<svg id="Layer_1" data-name="Layer 1" xmlns="http://www.w3.org/2000/svg" width="281.48" height="296.47" viewBox="0 0 281.48 296.47">
  <defs>
    <style>
      .cls-1 {
        fill: #317889;
      }

      .cls-2 {
        fill: #6a9906;
      }

      .cls-3 {
        fill: #423628;
      }

      .cls-4 {
        fill: #564837;
      }
    </style>
  </defs>
  <g>
    <g>
      <path class="cls-1" d="M110,77c-2.54-4.33-5.41-6.15-7.67-5a2.84,2.84,0,0,0-1.54,1.9c-.44,1.64.18,3.91,1.85,6.77a21.65,21.65,0,0,0,4.59,5.19,38.78,38.78,0,0,0,4.61,3.41l.89.55v-1C112.75,88.51,112.71,81.59,110,77Z"/>
      <path class="cls-1" d="M126.86,102.13a5.25,5.25,0,0,0-.37-1.49,3.83,3.83,0,0,0-2.16-2.33c-1.81-.68-3.41.25-4.66,1.37-1.7,1.52-6.86,5.61-4.84,8.72C117.46,112.48,127.28,106.46,126.86,102.13Z"/>
      <path class="cls-1" d="M129.34,117.18c-1.39-2.32-4.42-1.83-6.54-1.33-1.68.41-8,3.62-8,5.83,0,.62.5,1.16,1.72,1.53,3,.91,9.87.84,12.42-1.24C130.41,120.77,130.35,118.87,129.34,117.18Z"/>
      <path class="cls-1" d="M118.23,130a25.12,25.12,0,0,0-3.71,1.75c-2,1.2-3.38,2.83-1,4.54,2.24,1.61,6,.68,8.39.49,2.08-.17,5.15-1,5.54-3.53C128.22,128.35,120.73,129,118.23,130Z"/>
      <path class="cls-1" d="M118.87,143.72a14.8,14.8,0,0,0-8.73,1.61A10.66,10.66,0,0,0,109,146c-3.78,2.64-.61,4.47,2.74,5.29s9.09,1.23,11.06-2.07C124.27,146.83,121.43,144.08,118.87,143.72Z"/>
      <path class="cls-1" d="M110.67,155.73h-.22c-3,.06-10,1.33-10.14,4.67-.24,5.5,15.57,3.22,17.07-.06C119,156.76,113.12,155.73,110.67,155.73Z"/>
      <path class="cls-1" d="M92.24,222.25c-5.2-.88-16.07,4.53-17.54,6.85-2.76,4.38,5.88,4,8.23,3.69,4.23-.48,12.13-2.13,12.06-7.5A2.9,2.9,0,0,0,92.24,222.25Z"/>
      <path class="cls-1" d="M110.65,171.82a2.88,2.88,0,0,0-1.47-1.45,13.79,13.79,0,0,0-7-.93c-2.18.36-13,2.69-7.27,5.87,1.8,1,4.34,1,6.29,1.18C103.63,176.7,112.16,175.85,110.65,171.82Z"/>
      <path class="cls-1" d="M101.93,181.32a13.27,13.27,0,0,0-5.15-.14c-2.79.56-10.41,2.27-9.19,6.34.71,2.36,6.19,1.94,7.88,1.39,2.66-.87,5.35-1,7.61-2.82C106.43,183.49,104.64,182,101.93,181.32Z"/>
      <path class="cls-1" d="M99.87,194.59a5,5,0,0,0-1.38-.43c-2.64-.42-5,.8-7.51,1.29-1.72.34-10,2.27-6.94,5.39,1.43,1.48,6.41.85,8.27.62,2.48-.32,6.56-.31,8.42-2.07S101.81,195.53,99.87,194.59Z"/>
      <path class="cls-1" d="M99.9,211.05a5.53,5.53,0,0,0-1.84-1.14c-4.24-1.62-11.18.74-14.6,1.77-1.57.48-4.39,1.13-4.28,3.12.22,3.8,6.1,3.41,8.8,3.22C90.43,217.85,105.56,216.48,99.9,211.05Z"/>
      <path class="cls-1" d="M116.69,106.8c-.38-3.71-4-10.84-7.89-11.71a2.09,2.09,0,0,0-1.79.35c-2.79,2.09-1.43,5.32,1.09,8.33C109.73,105.73,117.4,113.76,116.69,106.8Z"/>
      <path class="cls-1" d="M115,114.23c-.77-2.23-1.79-3.69-3-4.34a3,3,0,0,0-2.44-.19c-6.57,2.35,3.32,16.55,5.67,12.9C116.44,120.7,115.71,116.35,115,114.23Z"/>
      <path class="cls-1" d="M113.2,132.54a13.54,13.54,0,0,0-2-8.17c-.31-.43-3-4.23-5.25-2.81-1.12.72-2,2.57,0,7.32l0,.1C107.1,131.66,112.58,138.66,113.2,132.54Z"/>
      <path class="cls-1" d="M103.41,137c-.39-.5-3.89-4.81-6.41-3.51-3.47,1.79-.22,7.35,1.48,9.62s8.7,8.87,8.22,2.4A17.27,17.27,0,0,0,103.41,137Z"/>
      <path class="cls-1" d="M89.9,147.48a2.87,2.87,0,0,0-1.25,2.1c-.16,1.47.67,3.24,2.45,5.27,1.52,1.72,5.86,5.26,8.44,4.84a1.89,1.89,0,0,0,1.1-.5c1.07-1.08,0-3.47-.62-4.82C98.69,151.31,94.27,144.39,89.9,147.48Z"/>
      <path class="cls-1" d="M64.73,213.85a6.6,6.6,0,0,0-2.39-.22,2.69,2.69,0,0,0-2.19,1.18c-1.9,3.2.38,6.85,2.69,9.42,1.49,1.66,9.48,10.47,11.16,5.49.66-1.92.08-4.68-1.16-7.36C71,218.45,67.76,214.68,64.73,213.85Z"/>
      <path class="cls-1" d="M93.31,165.27c-1.17-3.12-4.15-8.76-8.47-6S89.15,171.64,92,173c4.59,2.18,2.71-3.93,1.71-6.72Z"/>
      <path class="cls-1" d="M78.71,173.7c-2.53,3,1.89,8,4,10.34,1.24,1.43,5,4.86,6,1.6.32-1-.06-3-.86-5.07C86.88,178.07,82.41,169.27,78.71,173.7Z"/>
      <path class="cls-1" d="M70.08,186.33c-1.86,2.45.64,6.11,2.22,8.23,1.35,1.81,4.56,6.39,7.21,6.29s2.43-3.54.82-7.19C78,188.36,72.88,182.66,70.08,186.33Z"/>
      <path class="cls-1" d="M75.49,204.61c-1-3-3-6.13-6.5-7.09a8.62,8.62,0,0,0-1.23-.24,2.65,2.65,0,0,0-2.45.74c-3.06,3.51,1.49,10.16,4.09,12.9,1.27,1.34,3.66,4.35,5.84,4,3.57-.53,1.85-5.84,1.15-7.86C76.06,206.17,75.73,205.31,75.49,204.61Z"/>
    </g>
    <g>
      <path class="cls-1" d="M44,84.21c-4.51-4.14-6.8-2.72-7.58-1.93s-1.88,2.66,1.24,6.14c.35.39.74.78,1.17,1.18,3.31,3.06,9.37,4.42,9.63,4.47l.92.21-.26-.91C49,93.13,47.29,87.26,44,84.21Z"/>
      <path class="cls-1" d="M62.59,97c1.73-2.45,2.73-5.52.52-7.44-1.68-1.46-4.35.75-5.72,1.63-3.7,2.38-4.67,12.33,1.45,9.35A11.66,11.66,0,0,0,62.59,97Z"/>
      <path class="cls-1" d="M74.4,104.25c1.26-5.27-6.6-2.65-8.27-1.36-2,1.51-6.56,7.28-2.45,8.68,1.32.44,4.24-1.07,6.7-2.93C72.41,107.12,74.13,105.36,74.4,104.25Z"/>
      <path class="cls-1" d="M80.94,120.6c-.26-1.43-1.66-2.59-4.33-2.58s-6.61,1.4-8.18,3.76C65.4,126.33,82.16,127.07,80.94,120.6Z"/>
      <path class="cls-1" d="M81.69,127.3c-3-2-7.6,1.24-9.65,3-1.59,1.39-5.68,6.61-.94,7.12a11,11,0,0,0,4.65-1.12c1.46-.6,2.87-1.29,3.9-1.66C82.26,133.72,85.23,129.67,81.69,127.3Z"/>
      <path class="cls-1" d="M75.48,143.75c-2.84-.06-6.83,1.79-8.88,3.48-4.49,3.71,1,5.17,5,4,3.08-.9,6.16-2.59,6.68-3.85C79.41,144.65,78.18,143.78,75.48,143.75Z"/>
      <path class="cls-1" d="M67.5,215.55c-4,.53-11.24,9.18-9.92,13,2.78,7.94,16.26-9,12.67-12.48A3.26,3.26,0,0,0,67.5,215.55Z"/>
      <path class="cls-1" d="M73.85,159.26c-2.31-4.95-9.8-.25-12.13,1.5-2.79,2.09-4.38,4.85.7,5.22a14.23,14.23,0,0,0,2.56-.15C69.16,165.26,75.66,163.22,73.85,159.26Z"/>
      <path class="cls-1" d="M62.71,174.11c-1.67.46-9.34,4.29-7.92,6.66,1,1.57,3.21,1.89,5.68,1.48,4.13-.69,8.83-3.44,9-5.92C69.89,172.08,65.16,173.45,62.71,174.11Z"/>
      <path class="cls-1" d="M63.52,186.79c-2.88,0-7.71,3.69-9.31,5.75-2.45,3.18-.21,4.93,3.5,4.33a12.18,12.18,0,0,0,2.57-.73C63.21,195,71.35,186.83,63.52,186.79Z"/>
      <path class="cls-1" d="M63.59,201.65c-3.75,1.06-8,4-9.19,7.59-1.77,5.35,4.66,3.45,7.52,1.89a3.18,3.18,0,0,1,.32-.16c2.57-1.41,6.69-3.76,7.59-6.67C71.16,200,66.34,200.87,63.59,201.65Z"/>
      <g>
        <path class="cls-1" d="M56,100.63c-.63-2.17-7.34-3.1-9-3.23-4.64-.37-7.35,3.95-1.75,5.93,2,.71,10.85.3,10.77-2.41A1,1,0,0,0,56,100.63Z"/>
        <path class="cls-1" d="M51.26,108.34c-4.76,1.15-1.76,3.63,1.41,4.82,3.57,1.34,9.73,2.69,10.68-2.1C64.25,106.56,53.31,107.84,51.26,108.34Z"/>
        <path class="cls-1" d="M67.63,120.94c-1.72-2.33-12.56-3.2-11.7.59S67.07,127,68.21,123A2.35,2.35,0,0,0,67.63,120.94Z"/>
        <path class="cls-1" d="M67.89,132.26c-2.42-1.73-11.64-4.22-13.23-.47-2.19,5.16,12.2,6.12,14.68,3.64C70.06,134.7,69.87,133.67,67.89,132.26Z"/>
        <path class="cls-1" d="M59.78,143.08c-3.65-1.7-8.22-.73-6.16,3.75.5,1.08,2.33,2.27,4.41,3.08,3.39,1.32,7.42,1.62,7.29-1.28C65.22,146.4,61.68,144,59.78,143.08Z"/>
        <path class="cls-1" d="M56.13,227.56c-.69-3.46-9.31-9.94-13-8.22-5.1,2.36,2.86,9,5.61,10.06,2.48,1,7.69,2.74,7.52-1.05A4.87,4.87,0,0,0,56.13,227.56Z"/>
        <path class="cls-1" d="M52,156.31c-2.59-.88-5.27-1-5.33,2.21,0,2.64,5.07,5.73,8.93,6.38C64.06,166.33,55.52,157.51,52,156.31Z"/>
        <path class="cls-1" d="M44.32,171.28c-3.37,1.31-1.84,4.23,1,6.6s7.35,4.32,9.14,3.14a1.73,1.73,0,0,0,.81-1.59C55.13,176.3,47.59,170,44.32,171.28Z"/>
        <path class="cls-1" d="M40.54,187c-2.51,1.38-1.45,3.89.82,6.07,2.87,2.76,7.65,5,9.58,3.74C54.8,194.28,44.77,184.67,40.54,187Z"/>
        <path class="cls-1" d="M39.65,202.34a2.26,2.26,0,0,0-1.6,1.57c-.91,3.84,5.32,7.94,10,9.32,2.63.78,4.77.7,4.87-.76C53.28,207.6,44.61,200.52,39.65,202.34Z"/>
      </g>
    </g>
    <g>
      <path class="cls-1" d="M165.12,140.41c-.12-2.11-2-2.81-3.64-2.86s-9.82,1.35-8.57,4.67c.91,2.46,9.46,2.43,11.64-.15A2.32,2.32,0,0,0,165.12,140.41Z"/>
      <path class="cls-1" d="M120.61,181.54c-1.18-3.21-4-4.43-5.71-1.15-2.28,4.45-1.49,10,1,14.45,1.94,3.46,4.33,5.21,5.4.39a21,21,0,0,0,.47-3.81A27.44,27.44,0,0,0,120.61,181.54Z"/>
      <path class="cls-1" d="M106.54,223.31a9.69,9.69,0,0,0-2.37-7.25c-1.73-1.77-4.25-2.54-5.67-.27-2.74,4.36,1.78,12.91,5.37,16.16,3.08,2.8,3.36-.39,3.13-3.69C106.86,226.15,106.5,224,106.54,223.31Z"/>
      <path class="cls-1" d="M113.33,197.14c-2.48-1-3.64,1.54-4.09,3.13a18.63,18.63,0,0,0-.48,7.69c.19,1.11.81,5.06,2.08,5.65,3.17,1.49,5.72-6.35,5.07-11.79C115.64,199.6,114.84,197.78,113.33,197.14Z"/>
      <path class="cls-1" d="M125.4,164.77c-2.15-2.88-4.52-1.6-5.71,1.32-1.51,3.73.17,7.84,1.88,11.17,1.38,2.67,3.81,7.07,5.5,1.91a20.94,20.94,0,0,0-.11-11.1A10.63,10.63,0,0,0,125.4,164.77Z"/>
      <path class="cls-1" d="M147.09,152.27a13.74,13.74,0,0,0-7.7-.42c-3.07.7-4.71,2.61-1.13,4.1a12.27,12.27,0,0,0,8.49-.22,3.2,3.2,0,0,0,2-1.65C148.91,153.46,148.48,152.8,147.09,152.27Z"/>
      <path class="cls-1" d="M139.12,144.05a13.93,13.93,0,0,0-3.23,7c-.49,3.11.68,5.34,3.39,2.56a12.22,12.22,0,0,0,2.93-8,3.14,3.14,0,0,0-.8-2.46C140.9,142.81,140.14,143,139.12,144.05Z"/>
      <path class="cls-1" d="M136,162.23c-3.48,1.13-6.6,3.2-5.7,5.35,1.33,3.15,8.61,0,10.73-.92,1.75-.75,4.34-2.16,3-4.18C142.49,160.21,138.16,161.53,136,162.23Z"/>
      <path class="cls-1" d="M120.61,195.43c-1.84,2.57,3.73,3.57,5.48,3.75.77.08,1.9.2,3.09.22,2.78.06,6-.38,6.28-2.87C136.12,191.22,122.51,192.79,120.61,195.43Z"/>
      <path class="cls-1" d="M116.23,227l-.29,0c-3.71-.45-9.32.95-11.61,3.49-3.29,3.65,12,4.62,14.38,3.9C125.77,232.17,122.29,227.94,116.23,227Z"/>
      <path class="cls-1" d="M127.87,212.27a11.5,11.5,0,0,0-4.15-.83c-3.08,0-12.14,1.54-10.16,5.56,2.16,4.39,11.38,1.82,14.82,1.26,2-.33,3.69-.18,3.29-2.55C131.4,214.11,129.45,212.9,127.87,212.27Z"/>
      <path class="cls-1" d="M140,174.22a7.72,7.72,0,0,0-2.82-.12c-4.5.35-12.32,2.17-11.71,4.67.82,3.36,9.58,3,12,2.38C141.1,180.27,145.12,176.44,140,174.22Z"/>
    </g>
    <path class="cls-1" d="M25.55,181.84v.08C25.67,180.69,25.61,181.23,25.55,181.84Z"/>
    <path class="cls-1" d="M25.55,181.84a.5.5,0,0,1,0,.12.08.08,0,0,0,0,0Z"/>
    <path class="cls-1" d="M25.55,181.92a.08.08,0,0,1,0,0C25.47,182.59,25.42,183.16,25.55,181.92Z"/>
    <path class="cls-1" d="M42.1,214.62l.69.54Z"/>
    <path class="cls-1" d="M37.5,226.28Z"/>
    <path class="cls-1" d="M25.34,198.92h0C25.42,199.05,25.47,199.11,25.34,198.92Z"/>
    <path class="cls-1" d="M25.34,198.92Z"/>
    <g>
      <path class="cls-1" d="M31.13,182c-2.29.64-4.79,2.78-4.94,5.13-.07,1.12,0,6.81,2.55,5,2.24-1.59,5.44-3.58,5.84-6.44,0,0,0-.08,0-.12C34.84,183.43,33.83,181.27,31.13,182Z"/>
      <path class="cls-1" d="M18.68,187.57a8.7,8.7,0,0,0-4.45-.14c-1.37.4-2.48,1.72-1.39,2.88a8.94,8.94,0,0,0,4.31,2,28.51,28.51,0,0,0,4.65.72c1.75.14,3.52.18,5.3.17l-.72-.91A13.76,13.76,0,0,0,18.68,187.57Z"/>
      <path class="cls-1" d="M35.94,208.84a5.8,5.8,0,0,0-4-1.06c-2.53.08-5.87,1.08-7.5,3-.81.95-1,2.39.33,3s3.46.39,4.92.07a19.18,19.18,0,0,0,5-2c1.34-.72,2.41-1.16,2.2-1.91A2.58,2.58,0,0,0,35.94,208.84Z"/>
      <path class="cls-1" d="M44.32,197.8c-3-1.7-5.87,4.72-6.46,6.21a15.12,15.12,0,0,0-1,4.63,2.35,2.35,0,0,0,.22,1.62c.51.67,1.66.35,2.23,0a15,15,0,0,0,5.41-5.16C45.76,203.14,47.16,199.4,44.32,197.8Z"/>
      <path class="cls-1" d="M44.84,234.51a9.13,9.13,0,0,0-5.06-2.61c-2.15-.46-4.82-.41-6.32.43-3.1,1.76,1,4.25,4.14,5a22.27,22.27,0,0,0,6.48.28c1.23-.08,1.8-.39,1.9-.88S45.63,235.42,44.84,234.51Z"/>
      <path class="cls-1" d="M47.25,227a7.31,7.31,0,0,0-1,3.89c-.1,1.44-.68,2.8-.78,4.23-.08,1.17,1.29,1.58,2.34.92a12.08,12.08,0,0,0,3.13-3.38c1.56-2.15,4.32-5.47,2.78-8.16C52.24,222,48,225.93,47.25,227Z"/>
      <path class="cls-1" d="M51.71,214.35h0c-.78-3.19-4.62-.9-6.09,0a12.05,12.05,0,0,0-4.2,4.31c-.53.84-1.68,2.17-1.09,3.32,1.36,2.62,5.69-.27,7.17-1.16C49.67,219.51,52.47,217.46,51.71,214.35Z"/>
      <path class="cls-1" d="M34.18,219c-2.43-.57-5.38-.67-6.74,1.56-1.69,2.76,3.38,4.07,5.46,4.38,1.62.24,9.63.09,7.47-3.13C39.18,220.05,36.19,219.47,34.18,219Z"/>
      <path class="cls-1" d="M40.16,190c-1.84-2.71-4.68.38-5.91,1.73a11.46,11.46,0,0,0-2.6,5.15c-.25,1.1-1,3,0,4,2.28,2.09,5.56-2.05,6.79-3.46C40.16,195.41,42,192.62,40.16,190Z"/>
      <path class="cls-1" d="M30.5,199.33c-1.72-1.53-5.16-1.4-7.43-1.39-2.51,0-6,.65-6.51,3.38s4.8,2.84,6.74,2.72c1.61-.1,10.24-2,7.2-4.71Z"/>
      <path class="cls-1" d="M18.86,176.44a9.1,9.1,0,0,0-3.46-2.62c-1.14-.42-3-.62-3.62.5-1,1.72,1.43,4.84,2.61,6.19,1,1.17,5.76,5.58,6.9,2.82h0C22.17,181.24,20.27,178.08,18.86,176.44Z"/>
    </g>
    <path class="cls-1" d="M161.15,218.13c.29,1.12-.17-.64,0,0Z"/>
    <path class="cls-1" d="M144.79,218.81c2.61,2.17-.27-.23,0,0Z"/>
    <path class="cls-1" d="M105.85,77.48c-.92-.44-.23.39,0,.76a53.27,53.27,0,0,1,9.7,20.69c4.67,20.36-2.48,41.34-12.5,59-1.48,2.65-4.38,8-5.76,10.73C85,192.66,67.23,235.06,83.37,260l-2.17-.23c18.21-17.69,30.54-40.71,38.39-64.7C125,180.21,128,163.45,139,151.41c6.64-7.14,16-11,25.3-13.08-9.13,2.48-18.23,6.52-24.58,13.74s-9.55,16.35-12.51,25.35c-1.93,6.07-3.72,12.21-5.68,18.3-7.52,24.63-19.81,48.08-38.39,66.21L82,263.07l-1-1.37c-9.59-14.21-7.71-32.74-4.1-48.58,4.88-20.05,13.86-38.66,24.14-56.36,2.06-3.49,4-7,5.73-10.69,10.16-20.6,13.49-46.66-.13-66.52l-.84-1.28a3.4,3.4,0,0,1-.45-.84c0-.09.09-.12.14-.1a1.44,1.44,0,0,1,.36.15Z"/>
    <path class="cls-1" d="M16.52,178.54A135.1,135.1,0,0,1,38.7,213.63c2.91,6.24,4.82,13.05,7.35,19.41a43.11,43.11,0,0,0,11.87,16.13,45.1,45.1,0,0,0,17.82,9.1,39,39,0,0,0,6.52,1.15L81.34,262C54,242.6,46.15,204.94,55.14,174A125.84,125.84,0,0,1,64,151.49c6.9-14.49,6-31.77-3.4-45A62.28,62.28,0,0,0,43.69,89.8C57.28,98.14,68.46,112.12,70,128.45a49.45,49.45,0,0,1-4.21,23.81c-1.48,3.28-3.5,7.68-4.7,11C47.54,198.54,53.9,241,87.12,262.72c-22.22-.87-39.54-13.85-45.33-35.49a150,150,0,0,0-25.27-48.69Z"/>
    <path class="cls-1" d="M172.12,236.83c-12,14.19-33.82-3-48.84-.6a50,50,0,0,0-10.62,2.14c-8.35,2.68-16.34,7.1-22.34,13.55a26.68,26.68,0,0,0-5,7.65,19.05,19.05,0,0,1-1.69,2.79c-.74-2.31.1-4.59,1.1-6.55a30.73,30.73,0,0,1,1.69-2.89c8.28-11.82,22.49-18.52,36.68-19.68a38.91,38.91,0,0,1,13.13,1.53c11.4,2.81,25.72,11.91,35.91,2.06Z"/>
    <g>
      <path class="cls-1" d="M162.86,250.35c.15-1.28-.81-2.5-1.55-3.52a15.74,15.74,0,0,0-3.55-3.73,16,16,0,0,0-4.59-2.36c-1.67-.44-2.21,1.3-1.81,2.67.73,2.45,2.8,5,4.63,6.79a7.25,7.25,0,0,0,3.14,2c1.43.38,3.2,0,3.65-1.4A2,2,0,0,0,162.86,250.35Z"/>
      <path class="cls-1" d="M143.63,240.55a13.31,13.31,0,0,0-3.51-2.35c-.28-.13-2.79-1.06-2.83-.63a10.66,10.66,0,0,0,1.79,6.48c1,1.67,3.73,4.31,5.58,2.22S145.35,242.2,143.63,240.55Z"/>
      <path class="cls-1" d="M119.67,239.35a16.36,16.36,0,0,0-9.16-1.43c-1.52.23-1.63,1.75-.74,2.78a11.56,11.56,0,0,0,3.61,2.44c2.46,1.21,5.78,2.89,8.53,1.76,1.13-.47,2.28-1.54,1.63-2.81S121,240,119.67,239.35Z"/>
      <path class="cls-1" d="M132,238.85a14.58,14.58,0,0,0-7.74-3.71c-1.42-.13-1.76,1.31-1.27,2.37a10.07,10.07,0,0,0,2.41,3c1.83,1.73,4.26,4.07,7,3.79,1.17-.12,2.45-.79,2.18-2.09S133,239.75,132,238.85Z"/>
      <path class="cls-1" d="M107.11,243.68a14.6,14.6,0,0,0-5.26-.4c-1.16.13-3.51.19-4.25,1.14-1.85,2.36,4.31,3.91,5.82,4.3,2.33.59,5.59,1.37,7.54-.27C114,245.88,109.32,244.23,107.11,243.68Z"/>
      <path class="cls-1" d="M171.81,230.33a4.49,4.49,0,0,0-3.28,2.21,12.21,12.21,0,0,0-2,8.58,11,11,0,0,0,5.56-2.85c1.53-1.39,3.54-3.75,2.95-6A2.86,2.86,0,0,0,171.81,230.33Z"/>
      <path class="cls-1" d="M145.78,226.92c-.1-.14-.21-.28-.34-.43-1.68-1.87-4.09,0-5.42,1.09a9.71,9.71,0,0,0-3.05,4.55c-.38,1-1.14,2.45-.14,3.43,2,1.92,5.22-1,6.61-2.2C145.05,232,147.35,229.28,145.78,226.92Z"/>
      <path class="cls-1" d="M159.51,231.79c-1.46-2.36-4-.17-5.25.94a8.89,8.89,0,0,0-2.46,3.94c-.29,1-1.05,2.56-.1,3.46,1.89,1.81,4.78-1.13,6-2.29C159.29,236.33,161,234.11,159.51,231.79Z"/>
      <path class="cls-1" d="M130.79,226.67c.09-1.17-.3-2.89-1.48-3.45s-2.64.5-3.53,1.26a11.44,11.44,0,0,0-4,7.56,1.82,1.82,0,0,0,2.18,1.82,7.06,7.06,0,0,0,3.37-2C128.83,230.52,130.6,228.92,130.79,226.67Z"/>
      <path class="cls-1" d="M97.4,229.53c-1-1.23-3.18-2.61-4.88-2-2,.71-2.1,3.51-2.15,5.23a15.59,15.59,0,0,0,.94,6c.71,1.82,1.8,4.3,3.31,5.7s3.36-.06,3.94-1.44a12.82,12.82,0,0,0,.77-4.76C99.38,235.36,99.46,232,97.4,229.53Z"/>
      <path class="cls-1" d="M116.22,226.28c-.36-1.37-1.61-3.09-3.18-3.09s-2.79,1.8-3.52,3a13.37,13.37,0,0,0-1.67,9.82c.42,1.74,2.4,1.7,3.55.88a10.55,10.55,0,0,0,2.79-3.46C115.38,231.39,116.89,228.87,116.22,226.28Z"/>
    </g>
  </g>
  <g>
    <g>
      <g>
        <path class="cls-2" d="M256.28,105c4.87.93,7.21,3.24,6.44,6.08a4.25,4.25,0,0,1-1.7,2.39c-1.62,1.12-4.06,1.38-7.27.76a17.12,17.12,0,0,1-6.1-2.76,29.88,29.88,0,0,1-4.26-3.5l-.71-.72,1-.4C244,106.73,251.13,104,256.28,105Z"/>
        <path class="cls-2" d="M239.36,93.84a4.41,4.41,0,0,1,1.48.14,3.56,3.56,0,0,1,2.45,2.1c.85,2,.12,4.07-.82,5.77-1.29,2.3-4.66,9.19-7.86,7.41C230.43,106.94,235.16,94.19,239.36,93.84Z"/>
        <path class="cls-2" d="M229.79,97.85c1.79,2.07.47,5.5-.62,7.87-.86,1.87-5.72,8.6-7.8,8.15-.57-.13-.93-.81-.94-2.29,0-3.61,2-11.65,4.74-14.21C226.72,95.9,228.49,96.34,229.79,97.85Z"/>
        <path class="cls-2" d="M215.77,112.07a36.79,36.79,0,0,1-1,4.81c-.79,2.62-2.09,4.82-4.19,2.72s-1.75-6.57-2-9.32c-.23-2.4,0-6.18,2.37-7.5C215.53,100.19,216.26,108.9,215.77,112.07Z"/>
        <path class="cls-2" d="M202.89,118.69a17.79,17.79,0,0,1-.37,9.89c-.13.42-.32.93-.54,1.45-2.16,5-4.52,2.36-5.87-.87s-2.61-9.2.5-12.55C198.88,114.16,202.13,116.1,202.89,118.69Z"/>
        <path class="cls-2" d="M190.18,134.89a1,1,0,0,1,.07.21c1,2.93,2.21,10.42-1,12.53-5.29,3.48-8.63-13.1-6-16.48C186.22,127.43,189.32,132.52,190.18,134.89Z"/>
        <path class="cls-2" d="M117.12,210c3.82,3.35,5.58,16.26,4.45,19.31-2.13,5.72-6.86-1.38-8-3.43-2.08-3.71-5.32-11.24-.66-15.56C114.49,208.8,115.91,208.9,117.12,210Z"/>
        <path class="cls-2" d="M176.22,144.87a2.3,2.3,0,0,1,1.87.72c1.63,1.49,2.72,4.87,2.9,6.49.25,2.37,1,14.41-3.83,10.34-1.51-1.28-2.23-3.82-3-5.69C173.32,154.45,171.76,145.45,176.22,144.87Z"/>
        <path class="cls-2" d="M165.12,163a10.85,10.85,0,0,1,3.16,3.91c1.16,2.64,4.18,10,0,12.37-2.44,1.36-5.31-3.26-5.83-5-.82-2.79-2.25-5.05-2.07-8.25C160.61,161.2,163,161.34,165.12,163Z"/>
        <path class="cls-2" d="M153.27,179.13a3.87,3.87,0,0,1,1,1c1.42,2.15,1.06,5,1.48,7.54.28,1.75,1.35,10.32-3,9.37-2.07-.45-3.27-5.32-3.72-7.13-.6-2.43-2.13-6.12-1-8.81S151.58,177.92,153.27,179.13Z"/>
        <path class="cls-2" d="M135.58,193.65a4.46,4.46,0,0,1,1.82,1.07c3.15,3,3,10.67,3.1,14.37,0,1.7.29,4.63-1.85,5.59-4.08,1.84-5.67-3.77-6.38-6.35C131.62,206,127.92,191.35,135.58,193.65Z"/>
      </g>
      <g>
        <path class="cls-2" d="M236.71,108c3.63.83,9.68,5.55,9.25,10a3,3,0,0,1-1,1.92c-3.07,2.83-5.89,1-8.1-2.12C235.45,115.7,229.87,106.39,236.71,108Z"/>
        <path class="cls-2" d="M231.6,115.45c1.68,1.53,2.51,3.07,2.48,4.57a4.07,4.07,0,0,1-1.1,2.64c-5.63,6.19-13.75-8.73-9.12-10.07C226.29,111.9,230,114,231.6,115.45Z"/>
        <path class="cls-2" d="M215.12,119.65a10.73,10.73,0,0,1,7.08,4c.29.43,2.79,4.22.42,6.29-1.19,1.05-3.4,1.61-7.14-1.63l-.08-.07C213.29,126.42,208.88,118.93,215.12,119.65Z"/>
        <path class="cls-2" d="M203.41,131.08a15,15,0,0,1,8.86,2.16c.5.34,4.86,3.44,3.29,6.4-2.16,4.08-7.87,1.46-10.17,0S196.53,131.63,203.41,131.08Z"/>
        <path class="cls-2" d="M206,148.32a4.09,4.09,0,0,1-1.39,2.54c-1.33,1.16-3.43,1.7-6.23,1.6-2.38-.08-7.86-1.29-8.72-3.78a2,2,0,0,1-.05-1.29c.51-1.66,3.33-2.4,4.91-2.85C198.11,143.53,206.86,142.45,206,148.32Z"/>
        <path class="cls-2" d="M139.32,228.67a5.51,5.51,0,0,1,1.36,1.88,2.94,2.94,0,0,1-.07,2.68c-2.13,3.86-6.71,4.48-10.29,4.32-2.31-.1-14.61-.73-10.67-5.65,1.52-1.9,4.43-3.34,7.6-4.16C131.86,226.54,137,226.67,139.32,228.67Z"/>
        <path class="cls-2" d="M187.51,157.88c3.55-1.19,10.38-2.61,9.8,3s-13.85,5-16.5,3.52c-4.31-2.38,2.44-5.06,5.59-6.16C186.86,158.09,187.24,158,187.51,157.88Z"/>
        <path class="cls-2" d="M185.51,177.1c-1.66,4.25-8.52,4-11.8,3.86-2-.06-7.08-.86-4.46-4,.83-1,2.88-2,5.26-2.82C177.37,173.2,187.94,170.84,185.51,177.1Z"/>
        <path class="cls-2" d="M173.68,195.84c-1.44,3.3-6.15,3.74-8.93,3.88-2.39.11-8.32.59-9.52-1.72s2.21-4.55,6.46-5.74C167.89,190.52,175.83,190.89,173.68,195.84Z"/>
        <path class="cls-2" d="M148.92,208.35c3.38-1.24,7.33-1.72,9.92.56a5.87,5.87,0,0,1,.83.89,2.57,2.57,0,0,1,.49,2.59c-1.87,5.06-10.43,5.85-14.31,5.56-1.89-.14-5.93-.07-6.68-2.14-1.24-3.4,4.67-5.66,6.94-6.48C147.15,209,148.14,208.63,148.92,208.35Z"/>
      </g>
    </g>
    <g>
      <g>
        <path class="cls-2" d="M259,186.87c4.46,3.85,3.06,6.74,2.26,7.81-.7.91-2.72,2.77-6.44.26a14.45,14.45,0,0,1-1.26-1c-3.29-2.83-4.9-9.14-5-9.41l-.24-1,1,.05C249.59,183.66,255.75,184,259,186.87Z"/>
        <path class="cls-2" d="M244.6,170.49c3-1.52,6.39-2.11,7.46.68.82,2.13-2.31,4.74-3.66,6.11-3.67,3.74-13.74,3.12-8.61-3.2A16.07,16.07,0,0,1,244.6,170.49Z"/>
        <path class="cls-2" d="M238.46,167c5.19,1.17-1.84,8-4,9.13-2.49,1.31-10.16,3.32-8.8-1.56.44-1.56,3.51-3.85,6.59-5.52C234.83,167.73,237.37,166.79,238.46,167Z"/>
        <path class="cls-2" d="M223.35,165.51c1.17.77,1.53,2.66.17,5.54s-4.6,6.67-7.55,7.58C210.3,180.39,218.05,162,223.35,165.51Z"/>
        <path class="cls-2" d="M211.81,166.23c2.64,2.26.2,8.47-1.23,11.38-1.11,2.26-5.66,8.78-7.09,4.06-.39-1.27-.14-3.31.24-5.34.33-1.78.75-3.55.94-4.79C205.12,168.41,208.69,163.56,211.81,166.23Z"/>
        <path class="cls-2" d="M198.78,174.7c.5,3-.77,7.94-2.18,10.78-3.1,6.22-5.49,1-4.93-3.68.44-3.61,1.69-7.54,2.89-8.59C197.22,170.9,198.3,171.86,198.78,174.7Z"/>
        <path class="cls-2" d="M121.59,225.05c.68,0,1.36.51,2,1.75,1.91,3.59-1.27,16.28-5.29,18.34C109.87,249.44,116.45,225.11,121.59,225.05Z"/>
        <path class="cls-2" d="M185.44,179.51c5.48.43,1.89,10.24.48,13.4-1.69,3.78-4.26,6.58-5.48,1.37a15.08,15.08,0,0,1-.28-2.77C180.05,186.87,181.08,179.17,185.44,179.51Z"/>
        <path class="cls-2" d="M176,196.56c-.15,1.95-2.58,11.61-5.29,11.14-1.78-.3-2.55-2.53-2.6-5.3-.09-4.6,1.8-10.7,4.31-12C176.7,188.2,176.21,193.72,176,196.56Z"/>
        <path class="cls-2" d="M160.84,203.54c1.71,2.24,1.37,9,.55,12-1.28,4.51-4.11,4.19-5.79.79a12.24,12.24,0,0,1-.88-2.61C154,210.46,156.2,197.44,160.84,203.54Z"/>
        <path class="cls-2" d="M144.76,215.65c1.3,3.81,1.29,9.47-1.11,13.38-3.54,5.75-5.7-.82-6.05-4.34l0-.39c-.32-3.15-.72-8.29,1.25-11.37C141.72,208.4,143.81,212.87,144.76,215.65Z"/>
      </g>
      <g>
        <path class="cls-2" d="M240.41,180.31c2.35-.5,5.18,5.75,5.77,7.32,1.67,4.46-1.89,9.43-5.45,4.84-1.29-1.67-3.36-10.73-.62-12.05A1.21,1.21,0,0,1,240.41,180.31Z"/>
        <path class="cls-2" d="M236.08,188.28c.65,5.23-2.87,3.88-5.21,1.58-2.63-2.58-6.22-7.63-1.92-11.45C233,174.83,235.81,186,236.08,188.28Z"/>
        <path class="cls-2" d="M217.51,177.8c2.91.18,7.92,9.87,3.92,11.41s-9.54-7.14-6.16-10.67A2.72,2.72,0,0,1,217.51,177.8Z"/>
        <path class="cls-2" d="M206.49,181.76c2.83.73,9.91,6.57,7.38,10.75-3.48,5.75-11.92-5.59-11-9.56C203.15,181.79,204.19,181.18,206.49,181.76Z"/>
        <path class="cls-2" d="M201.3,188.29c3.6,1.47,5.46,5.84.39,7.87-1.21.49-3.31,0-5.23-.94-3.13-1.58-5.77-4.49-3.2-6.75C195.24,186.73,199.41,187.52,201.3,188.29Z"/>
        <path class="cls-2" d="M121.42,242.07c3.38-2.28,14-.82,14.74,3.51,1,5.91-9.39,5.06-12,3.8-2.3-1.13-6.88-3.8-3.52-6.75C120.9,242.45,121.15,242.26,121.42,242.07Z"/>
        <path class="cls-2" d="M192.66,195.75c2.28,1.31,4,3.32,1.25,6-2.25,2.2-7.92.71-10.75-1.78C176.94,194.46,189.55,194,192.66,195.75Z"/>
        <path class="cls-2" d="M186.52,208.69c.86,3.7-2.55,4.89-6.26,4.59s-8-2.23-8.08-4.6a2.48,2.48,0,0,1,.89-1.92C175.84,204.32,185.68,205.09,186.52,208.69Z"/>
        <path class="cls-2" d="M173.92,220.11c.3,3.1-2.48,4.31-5.7,4.32-4.05,0-8.79-1.93-8.85-4.46C159.26,214.9,173.41,214.91,173.92,220.11Z"/>
        <path class="cls-2" d="M160.24,233.18a2.94,2.94,0,0,1-.41,2.54c-2.76,3.83-10,2.29-13.9-.24-2.21-1.42-3.4-3.15-2.21-4.43C147.69,226.81,158.89,227.82,160.24,233.18Z"/>
      </g>
    </g>
    <g>
      <g>
        <path class="cls-2" d="M184.18,102.31c1.49,1.39.64,3.65-.49,5.21s-8.1,8.58-9.69,5.39c-1.18-2.36,5-10.52,8.51-11A1.94,1.94,0,0,1,184.18,102.31Z"/>
        <path class="cls-2" d="M167.34,152.41c2.67-2.64,5.88-5.53,9.18-7.14,3.46-1.7,6.17-.47,4.35,3.53-2.48,5.41-7.73,9.31-13,11-4.12,1.31-7,.86-3.52-3.91A32.83,32.83,0,0,1,167.34,152.41Z"/>
        <path class="cls-2" d="M142.3,184.15c2.06-2.13,4.84-4,7.62-4.05,2.53-.1,4.67,1.26,3.56,4.22-2.13,5.69-12.12,9.12-17,9-4.21-.14-1.64-2.95,1.33-5.47C139.67,186.21,141.74,184.73,142.3,184.15Z"/>
        <path class="cls-2" d="M171.07,172.09c.81,2.47-2.41,3.54-4.34,3.93a26.21,26.21,0,0,1-9.08.26c-1.27-.21-5.78-.92-6.25-2.18-1.21-3.16,8.39-5.44,14.65-4.66C168.6,169.77,170.59,170.6,171.07,172.09Z"/>
        <path class="cls-2" d="M180.15,124.46c3.52-2.06,4.83.3,4.13,3.87-.9,4.55-4.76,8.1-8.19,10.82-2.75,2.19-7.43,5.71-5.84-.39a30.86,30.86,0,0,1,6.61-11.53A15,15,0,0,1,180.15,124.46Z"/>
      </g>
      <g>
        <path class="cls-2" d="M163.8,80.34a10.82,10.82,0,0,1,5.71,4.75c1.61,2.68,1.27,5.52-2.38,4.49-2.58-.72-4.8-3.32-5.76-5.86a3.61,3.61,0,0,1-.12-2.83C161.61,80.21,162.42,79.91,163.8,80.34Z"/>
        <path class="cls-2" d="M168.79,105.56c3.15,1.6,5.66,4.23,4.12,6.56-2.26,3.42-8.61-.82-10.45-2-1.53-1-3.69-2.84-1.74-5C162.9,102.68,166.85,104.57,168.79,105.56Z"/>
        <path class="cls-2" d="M164.19,155.87c-1.12,3.54-5.26,0-6.44-1.22a27.36,27.36,0,0,1-2-2.26c-1.68-2.12-3.18-5-1.23-7.24C158.67,140.3,165.34,152.24,164.19,155.87Z"/>
        <path class="cls-2" d="M131.22,176.34l.21.2c2.57,2.53,4.67,8.06,3.84,11.93-1.19,5.54-11.06-5.65-11.82-8.08C121.17,173.08,126.85,172.35,131.22,176.34Z"/>
        <path class="cls-2" d="M146.51,158.79a9.31,9.31,0,0,1,3.31,2.7c1.91,2.53,6,11.37,1.14,13.26-5.34,2.06-8.64-7.8-10.23-11.12-.92-1.95-2.09-3.2.32-4.95C142.68,157.49,145,158,146.51,158.79Z"/>
        <path class="cls-2" d="M165,124.75a6,6,0,0,1,2.14,1.68c3,3.15,7.34,9.79,5,11.75-3.1,2.64-9.19-3.27-10.52-5.34C159.69,129.71,159.63,123.58,165,124.75Z"/>
      </g>
    </g>
    <g>
      <path class="cls-2" d="M189.82,231.79c.74,2.35.3,6.05-1.67,8.05-.93.95-5.94,5.41-5.81,1.93.13-3,0-7.16,2.26-9.77l.2-.22C186.54,229.92,189,229.05,189.82,231.79Z"/>
      <path class="cls-2" d="M184.8,231.78l-.13.13C185.61,230.86,185.26,231.26,184.8,231.78Z"/>
      <path class="cls-2" d="M184.67,231.91l-.07.09C184.12,232.54,183.71,233,184.67,231.91Z"/>
      <path class="cls-2" d="M184.8,231.78l-.2.22.07-.09Z"/>
      <path class="cls-2" d="M190.66,248.25a8.08,8.08,0,0,1,1.63,4.25c.06,1.57-.87,3.4-2.39,3s-2.57-1.81-3.43-3a26,26,0,0,1-2.26-4.13c-.73-1.63-1.36-3.33-1.94-5.07l1.14.18A10.72,10.72,0,0,1,190.66,248.25Z"/>
      <path class="cls-2" d="M157.85,248.79a4.79,4.79,0,0,1,3.86,1.11c2,1.46,3.94,4.26,3.94,7,0,1.37-.85,2.89-2.32,2.81s-3-1.49-4-2.6a16.61,16.61,0,0,1-2.63-4.72c-.58-1.45-1.13-2.47-.45-3.09A3,3,0,0,1,157.85,248.79Z"/>
      <path class="cls-2" d="M163.37,232.77c3.27.78-.27,8.39-1.14,10.1a22.8,22.8,0,0,1-3.26,4.64c-.39.44-.89,1.08-1.49,1.2-.88.19-1.33-1-1.4-1.66a19,19,0,0,1,.93-8.43C158,236.21,160.26,232,163.37,232.77Z"/>
      <path class="cls-2" d="M125.74,253.91a7.41,7.41,0,0,1,5.22,1.83c1.66,1.31,3.19,3.44,3.35,5.3.32,3.86-4.23,2.69-6.72.81a17.74,17.74,0,0,1-4-4.84c-.66-1-.73-1.72-.37-2.2A3.66,3.66,0,0,1,125.74,253.91Z"/>
      <path class="cls-2" d="M146,245.51l.86.1h0l-.85-.1Z"/>
      <path class="cls-2" d="M149.63,238h0c3.26.39.61,5-.42,6.82a17.44,17.44,0,0,1-4.78,5.36c-.91.73-2.38,2.22-3.52,1.73-2.63-1.11.68-6.4,1.7-8.2C144.14,241.11,146.47,237.68,149.63,238Z"/>
      <path class="cls-2" d="M147.14,254.56c1.92,1.44,3.74,3.67,2.62,6.56-1.37,3.57-5.48.66-7-.71-1.16-1.07-5.75-7.47-1.72-8.39C143.28,251.51,145.54,253.37,147.14,254.56Z"/>
      <path class="cls-2" d="M139.52,258.71Z"/>
      <path class="cls-2" d="M177.17,232.56c3.24.44.94,4.89-.07,6.82a16.77,16.77,0,0,1-4.43,5.29c-1,.82-2.72,2.59-4,2-2.74-1.19.49-6.65,1.55-8.61C171.71,235.39,174,232.12,177.17,232.56Z"/>
      <path class="cls-2" d="M170.62,245.85Z"/>
      <path class="cls-2" d="M176.87,248.88c1.92,1.47,4.12,4.09,2.61,7.05-1.58,3.11-5.68,0-7.09-1.26-1.16-1-6.44-7.86-2.2-8.73C172.6,245.44,175.13,247.56,176.87,248.88Z"/>
      <path class="cls-2" d="M170.62,245.85l-.43.09Z"/>
      <path class="cls-2" d="M191.49,242.91h0C192.39,242,191.71,242.7,191.49,242.91Z"/>
      <path class="cls-2" d="M191.49,242.91Z"/>
      <path class="cls-2" d="M191.49,242.91c1.92-1.89,5.57-1.47,7.57-.81a7,7,0,0,1,3.48,2.29c.71,1,1.35,2.71.38,3.94-1.5,1.89-5.26.86-6.91.29-1.44-.49-7-3.21-4.52-5.71Z"/>
      <polygon class="cls-2" points="191.49 242.91 191.49 242.91 191.49 242.91 191.49 242.91"/>
      <path class="cls-2" d="M131.06,246.14a10.91,10.91,0,0,1-2.75,4c-1.18,1.26-2,2.82-3.18,4.06-1,1-2.11.28-2.16-1.09a15.76,15.76,0,0,1,1.06-5.2c.93-3,2.16-7.84,5.37-8.82C132.41,238.15,131.52,244.63,131.06,246.14Z"/>
    </g>
    <g>
      <g>
        <path class="cls-2" d="M98.08,120.87c1.35-.45,2.61.34,3.67.93a12.07,12.07,0,0,1,3.86,3.1,13.62,13.62,0,0,1,2.43,4.56c.46,1.75-1.36,2.74-2.79,2.59-2.54-.26-5.18-2-7-3.6a6.08,6.08,0,0,1-2-3c-.39-1.5,0-3.54,1.49-4.35A2.08,2.08,0,0,1,98.08,120.87Z"/>
        <path class="cls-2" d="M108.32,136.45a10.64,10.64,0,0,1,3.86,1.4c.25.15,2.32,1.7,1.93,2a12.72,12.72,0,0,1-6.85,3.06c-2.05.26-5.77-.21-4.72-3.32C103.52,136.73,106,136.12,108.32,136.45Z"/>
        <path class="cls-2" d="M108.66,161.58a12.9,12.9,0,0,1,6.63,6c.69,1.38-.54,2.69-2,2.83a9.29,9.29,0,0,1-4.22-.83c-2.5-.94-5.89-2.17-6.54-5.24-.27-1.27,0-3,1.45-3.56S107.33,161,108.66,161.58Z"/>
        <path class="cls-2" d="M90.83,181.7a17.76,17.76,0,0,1,6.72,9.13c.51,1.38,1,3.54-1.11,4.1-1.89.49-3.86-1.06-5.16-2.06-2.15-1.67-4.6-3.58-5.59-6.33a5.66,5.66,0,0,1,.42-4.86C87.39,179.76,89.58,180.85,90.83,181.7Z"/>
        <path class="cls-2" d="M109.33,148.29a11.3,11.3,0,0,1,6.67,4.85c.7,1.24-.55,2.47-1.76,2.69a9.07,9.07,0,0,1-3.82-.34c-2.4-.6-5.64-1.38-6.46-4.11-.35-1.16-.23-2.77,1.13-3.36S108.07,148,109.33,148.29Z"/>
        <path class="cls-2" d="M102.74,173.11a11.57,11.57,0,0,1,3.44,3.78c.58,1,1.9,2.91,1.52,4.25-.94,3.37-5.89-.18-7.11-1-1.89-1.33-4.48-3.25-4.21-6.12C96.8,169.52,101,171.82,102.74,173.11Z"/>
      </g>
      <path class="cls-2" d="M78,201.06a19.6,19.6,0,0,1,4.66,5.07,19.85,19.85,0,0,1,2.79,7.09c.29,2.21-2,2.93-3.64,2.5-3.39-.92-6.59-4-8.9-6.58a10.23,10.23,0,0,1-2.6-4.56c-.38-1.78.06-4.87,2.19-5.62S76.62,200,78,201.06Z"/>
      <g>
        <path class="cls-2" d="M115.66,128h0C115.39,128.16,114.93,128.43,115.66,128Z"/>
        <path class="cls-2" d="M116.54,128a2.48,2.48,0,0,1,3.58.87c.79,1.21.53,2.93,0,4.37a18,18,0,0,1-6.18,8.59,12,12,0,0,1-.82-6.67c.29-2.33,1.14-5.83,3.38-7.16Z"/>
        <path class="cls-2" d="M115.66,128Z"/>
        <polygon class="cls-2" points="115.66 128 115.66 128 115.65 128 115.66 128"/>
        <path class="cls-2" d="M125.22,158.68a2.66,2.66,0,0,1,.45.29c1.91,1.48-.3,4.43-1.5,6.05a14.16,14.16,0,0,1-5.08,4.12c-1.1.57-2.71,1.66-3.7.75-1.94-1.78,1.44-5.83,2.77-7.53C119.72,160.37,122.78,157.4,125.22,158.68Z"/>
        <path class="cls-2" d="M112.43,192.35c1.24.82,2.35,2.59,1.47,4s-3.43,1.86-5.13,2.07c-3.85.46-8.12-.09-11.22-2.09-1.59-1-.45-2.8,1-3.54a15.66,15.66,0,0,1,5.18-1.25C106.6,191.23,110.09,190.79,112.43,192.35Z"/>
        <path class="cls-2" d="M124.7,141.35Z"/>
        <path class="cls-2" d="M124.7,141.35Z"/>
        <path class="cls-2" d="M123.93,143.15h0c2.77.23,1.32,3.94.55,5.74a13,13,0,0,1-3.24,4.54c-.88.81-2.26,2.4-3.44,1.93-2.35-1-.23-5.39.58-7.21C119.44,145.77,121.19,142.94,123.93,143.15Z"/>
        <polygon class="cls-2" points="124.7 141.35 124.7 141.35 124.7 141.35 124.7 141.35"/>
        <path class="cls-2" d="M121.75,179.59c1,.67,2.09,2,1.52,3.28s-2.68,1.67-4.06,1.84c-3.24.42-7,0-9.6-1.78-1-.72-.67-2.08.4-2.78a10.54,10.54,0,0,1,4.52-1.25C116.93,178.62,119.76,178.31,121.75,179.59Z"/>
        <path class="cls-2" d="M101.88,208.32c1.59.56,3.54,2.13,3.19,4-.42,2.21-3.58,3.26-5.51,3.91a20.81,20.81,0,0,1-7,1.23c-2.2,0-5.19-.21-7.06-1.17s-.54-3.26.9-4.3a19.26,19.26,0,0,1,5.25-2.42C94.92,208.47,98.73,207.21,101.88,208.32Z"/>
      </g>
    </g>
    <g>
      <path class="cls-2" d="M244.85,107.07a55.89,55.89,0,0,0-24,7.83c-.89.59-3.25,2.21-4.17,2.84-1.62,1.31-3.71,2.92-5.15,4.35a93.41,93.41,0,0,0-11.2,12.63c-10.88,14.56-19.87,30.53-30.37,45.43-17,24.43-38.22,46.27-63.22,62.62-5.48,3.55-12,7.41-17.68,10.61l-1.2-2.11,5.9-3.39c3.33-1.83,8.34-5.07,11.62-7.12a229.15,229.15,0,0,0,46-40.33c18.37-20.39,31.34-44.77,47.82-66.58,5.58-7.14,12-14,19.74-18.79,7.7-5,16.76-7.49,25.85-8.19l0,.2Z"/>
      <path class="cls-2" d="M254.14,188.12c-2.39-2.81-6.18-4.63-9.58-6.2-10.7-4.73-23.1-4.78-34.06-1-15,4.9-26.52,16.25-37,27.63-21.23,21.45-48.41,37.26-77.86,44.15a42.45,42.45,0,0,1-6,1c-.13,0-.17,0-.38,0l-.32,0a2.32,2.32,0,0,1-.56-.14,2.69,2.69,0,0,1-.73-.39L90.39,249a30.13,30.13,0,0,0,4.2,1.48c9.3,2.51,19.19,2.74,28.78,2.44,14.43-.53,29.59-3.59,43.64-6.95,8.14-2.4,20.74-5.77,28.8-.79l-.16.25c-4.21-2.51-9.43-2.27-14.14-1.71a70.34,70.34,0,0,0-14.14,3.52l-9.59,2.53-9.69,2.16c-18,3.38-41.54,6.3-58.94-.51l.28-.44s-.06,0,0,0a1.76,1.76,0,0,0,.23,0l.36,0c30.09-5.56,60.09-22.76,81.7-44.26,15.78-17.54,36.85-33.71,61.87-29.08,7.27,1.43,14.53,4.32,20,9.39a3.53,3.53,0,0,1,.81,1.11.3.3,0,0,1-.14.34l-.12-.28Z"/>
      <path class="cls-2" d="M166.11,84.48c.15-.2.44-.1.56,0a9.3,9.3,0,0,1,1.54,2.29c3.27,6.5,4.89,13.68,5.82,20.86,3.35,25.1-6.33,50.68-23.22,69.18-5.45,6.15-12,11.6-18.36,16.83-15.2,12.93-29.7,27.88-37.1,46.66-1.75,4.46-3,9.36-4.34,14.12l-2.42-.84c-3.6-1.26-5.49-5.14-6.79-8.4-3.22-8.86-2.23-18.75.66-27.43a68.39,68.39,0,0,1,8-16.2,112.49,112.49,0,0,1,14.14-17.22,39.27,39.27,0,0,0,11.55-26.44,42.3,42.3,0,0,0-6.65-24.5c-1.44-1.93-3.79-5.32-6.51-4.52l-.14-.26c4.78-1.6,9.94,8.49,11.38,12.11,5.65,13.58,4.09,30.11-5.29,41.67-1.58,2-4.1,4.61-5.85,6.54-11.38,12.83-21.51,29-20.47,46.8a26.47,26.47,0,0,0,3.73,12.33,6.88,6.88,0,0,0,3,2.8l-.34.19a116.84,116.84,0,0,1,3.63-11.78c7.39-19.39,22.46-34.59,38.06-47.71l4.75-3.93c11.16-9,21-19.8,27.76-32.46a83,83,0,0,0,7.64-59.53c-1-3.66-2.06-7.44-4.14-10.66a3.08,3.08,0,0,0-.24-.26c-.09-.09-.17-.08-.11-.1l-.25-.17Z"/>
    </g>
  </g>
  <g>
    <path class="cls-3" d="M100,243.63c-9.71-5.83-23-7.67-34-5.21a39,39,0,0,0-5.79,1.75C46.44,245.64,46.4,257,65.35,262.55c8.31,2.4,31.07,3.47,38.69.18C113.45,258.68,107.83,248.33,100,243.63Z"/>
    <path class="cls-4" d="M100,243.63c-9.71-5.83-23-7.67-34-5.21a39,39,0,0,0-5.79,1.75c-6.87,2.73-10.32,7-9.68,11.17a37.85,37.85,0,0,0,7.94,3.22c8.31,2.4,31.07,3.46,38.69.18,5.14-2.22,5.79-6.3,4-10.33Q100.59,244,100,243.63Z"/>
  </g>
</svg>
