<svg id="Layer_1" data-name="Layer 1" xmlns="http://www.w3.org/2000/svg" width="281.48" height="296.47" viewBox="0 0 281.48 296.47">
  <defs>
    <style>
      .cls-1 {
        fill: #317889;
      }

      .cls-2 {
        fill: #6a9906;
      }

      .cls-3 {
        fill: #423628;
      }

      .cls-4 {
        fill: #564837;
      }
    </style>
  </defs>
  <g>
    <g>
      <g>
        <path class="cls-1" d="M102.51,58.31c-4.19-2.77-7.56-3.13-9.11-1.13a2.86,2.86,0,0,0-.54,2.39c.33,1.66,1.89,3.42,4.65,5.25a21.44,21.44,0,0,0,6.41,2.64,39.05,39.05,0,0,0,5.64,1l1,.1-.44-.9C110,67.43,106.93,61.24,102.51,58.31Z"/>
        <path class="cls-1" d="M117.13,59.76a5.25,5.25,0,0,0-1.48-.42,3.85,3.85,0,0,0-3.08.73c-1.5,1.24-1.48,3.09-1.13,4.73.49,2.23,1.49,8.74,5.2,8.52C121.48,73.05,121.1,61.53,117.13,59.76Z"/>
        <path class="cls-1" d="M125.52,69.65c-2.65.54-3.2,3.57-3.42,5.74-.17,1.71.78,8.75,2.87,9.47.59.2,1.25-.09,2-1.12,1.83-2.49,4-9,2.92-12.14C129.25,69.82,127.44,69.25,125.52,69.65Z"/>
        <path class="cls-1" d="M130.48,88.76a24.36,24.36,0,0,0-1.35,3.87c-.51,2.23-.34,4.4,2.56,3.88,2.72-.47,4.7-3.83,6.22-5.66,1.33-1.6,2.87-4.4,1.35-6.42C136.27,80.45,131.51,86.27,130.48,88.76Z"/>
        <path class="cls-1" d="M138.46,100.25a14.83,14.83,0,0,0-7.05,5.4c-.2.31-.45.7-.67,1.12-2.17,4.07,1.49,4.26,4.85,3.47s8.66-3,8.91-6.88C144.68,100.56,140.9,99.4,138.46,100.25Z"/>
        <path class="cls-1" d="M135.49,115.07l-.21.07c-2.88.85-9.27,4-8.53,7.21,1.24,5.36,15.87-1.06,16.44-4.62C143.82,113.83,137.85,114.42,135.49,115.07Z"/>
        <path class="cls-1" d="M105.57,190.19c-5.2-.81-16,4.76-17.43,7.09-2.7,4.42,5.93,3.88,8.28,3.58,4.22-.55,12.1-2.31,12-7.68A2.9,2.9,0,0,0,105.57,190.19Z"/>
        <path class="cls-1" d="M137.46,129.94a2.9,2.9,0,0,0-1.87-.88,13.67,13.67,0,0,0-6.87,1.45c-1.94,1.07-11.34,6.86-4.89,8,2,.35,4.42-.49,6.32-1C132.47,136.88,140.23,133.23,137.46,129.94Z"/>
        <path class="cls-1" d="M128.77,146.15a13.18,13.18,0,0,0-5.15-.07c-2.78.6-10.38,2.42-9.1,6.47.74,2.35,6.22,1.86,7.9,1.28,2.65-.9,5.33-1.13,7.57-2.93C133.3,148.25,131.5,146.74,128.77,146.15Z"/>
        <path class="cls-1" d="M120.83,162.16a4.62,4.62,0,0,0-1.38-.41c-2.65-.38-5,.87-7.5,1.4-1.71.36-9.92,2.41-6.86,5.48,1.45,1.47,6.43.77,8.28.51,2.48-.36,6.56-.41,8.39-2.2S122.79,163.07,120.83,162.16Z"/>
        <path class="cls-1" d="M116.66,178.49a5.36,5.36,0,0,0-1.86-1.1c-4.26-1.56-11.17.89-14.57,2-1.57.5-4.38,1.19-4.24,3.18.28,3.8,6.15,3.32,8.85,3.09C107.28,185.43,122.39,183.84,116.66,178.49Z"/>
      </g>
      <g>
        <path class="cls-1" d="M114.28,71.44c-2.94-2.29-10.56-4.66-13.91-2.42a2.1,2.1,0,0,0-1,1.54c-.43,3.46,2.84,4.71,6.76,5C108.68,75.72,119.79,75.75,114.28,71.44Z"/>
        <path class="cls-1" d="M117.38,79.16c-2.29-.56-4.07-.5-5.29.18a3,3,0,0,0-1.49,1.94c-1.61,6.79,15.69,6.24,13.91,2.29C123.59,81.49,119.54,79.72,117.38,79.16Z"/>
        <path class="cls-1" d="M128.48,94.43a13.43,13.43,0,0,0-7.7-3.41c-.53,0-5.2-.21-5.43,2.42-.12,1.32.78,3.17,5.76,4.5l.1,0C124,98.7,132.93,98.67,128.48,94.43Z"/>
        <path class="cls-1" d="M122.17,101.76c-.59-.23-5.83-2.06-7.29.37-2,3.35,3.66,6.37,6.3,7.41s12.06,3,8.26-2.26A17.08,17.08,0,0,0,122.17,101.76Z"/>
        <path class="cls-1" d="M116.58,112.28a2.86,2.86,0,0,0-1.22,2.12c-.14,1.47.71,3.23,2.53,5.23,1.54,1.7,5.93,5.18,8.5,4.72a1.89,1.89,0,0,0,1.1-.51c1-1.1-.09-3.48-.69-4.82C125.42,116,120.91,109.13,116.58,112.28Z"/>
        <path class="cls-1" d="M78.45,182.77a6.61,6.61,0,0,0-2.39-.17,2.66,2.66,0,0,0-2.17,1.21c-1.85,3.22.48,6.83,2.82,9.38,1.52,1.63,9.64,10.33,11.25,5.32.62-1.93,0-4.68-1.27-7.34C84.81,187.28,81.5,183.57,78.45,182.77Z"/>
        <path class="cls-1" d="M120.06,129.17c-1.22-3.11-4.27-8.7-8.55-5.84s4.48,12.26,7.31,13.56c4.63,2.11,2.65-4,1.61-6.75C120.28,129.73,120.15,129.4,120.06,129.17Z"/>
        <path class="cls-1" d="M104.45,139.08c-2.48,3,2,7.93,4.12,10.28,1.26,1.41,5.08,4.79,6,1.52.31-1-.1-3-.93-5.06C112.69,143.33,108.08,134.59,104.45,139.08Z"/>
        <path class="cls-1" d="M94.14,153.55c-1.82,2.48.72,6.1,2.33,8.19,1.39,1.79,4.66,6.32,7.31,6.19s2.38-3.58.72-7.2C102.1,155.46,96.89,149.83,94.14,153.55Z"/>
        <path class="cls-1" d="M95.15,172.6c-1.08-3-3.12-6.09-6.61-7a8.57,8.57,0,0,0-1.23-.22,2.68,2.68,0,0,0-2.44.77c-3,3.56,1.64,10.14,4.28,12.85,1.28,1.31,3.72,4.29,5.89,3.94,3.56-.57,1.77-5.86,1-7.87C95.74,174.15,95.4,173.29,95.15,172.6Z"/>
      </g>
    </g>
    <g>
      <g>
        <path class="cls-1" d="M27.8,89.4c-6-1-7.17,1.47-7.39,2.57-.17.94-.1,3.26,4.43,4.43a16.43,16.43,0,0,0,1.62.34c4.45.73,10.26-1.49,10.5-1.59l.88-.33-.72-.62C36.93,94.05,32.25,90.11,27.8,89.4Z"/>
        <path class="cls-1" d="M43.69,88.6c-1-2.82-3-5.37-5.85-4.63-2.16.56-1.84,4-1.88,5.64-.13,4.4,7.54,10.81,8.53,4.08A11.72,11.72,0,0,0,43.69,88.6Z"/>
        <path class="cls-1" d="M52.54,88.91c-4.59-2.86-4.6,5.42-3.91,7.41.82,2.35,4.83,8.53,7.46,5.07.83-1.1.33-4.35-.66-7.28C54.63,91.71,53.51,89.52,52.54,88.91Z"/>
        <path class="cls-1" d="M64.67,96.79c-1.39-.38-3.05.37-4.21,2.78s-1.62,6.55-.18,9C63.05,113.28,71,98.52,64.67,96.79Z"/>
        <path class="cls-1" d="M75.65,108.22c-3.56-.59-6.4,4.28-7.52,6.76-.87,1.92-2.42,8.37,2.09,6.86A11,11,0,0,0,74,118.9c1.08-1.15,2.08-2.37,2.86-3.13C78.83,113.82,79.86,108.91,75.65,108.22Z"/>
        <path class="cls-1" d="M75.85,122.62c-2.57,1.22-5.32,4.65-6.4,7.08-2.36,5.32,3.22,4.17,6.25,1.37,2.35-2.17,4.36-5.06,4.27-6.41C79.77,121.68,78.28,121.45,75.85,122.62Z"/>
        <path class="cls-1" d="M79,197.74c-4,.6-11.11,9.35-9.73,13.11,2.88,7.9,16.12-9.19,12.48-12.66C81.3,197.73,80.43,197.54,79,197.74Z"/>
        <path class="cls-1" d="M82.59,135.15c-4.24-3.44-8.91,4.08-10.23,6.67-1.59,3.1-1.8,6.28,2.92,4.38a13.53,13.53,0,0,0,2.23-1.26C81,142.59,86,137.9,82.59,135.15Z"/>
        <path class="cls-1" d="M76.31,152.9c-1.32,1.11-6.7,7.78-4.42,9.35,1.51,1,3.7.38,5.78-1,3.46-2.35,6.6-6.8,5.76-9.15C82,148.07,78.27,151.27,76.31,152.9Z"/>
        <path class="cls-1" d="M79.78,167.53c-2.88,0-7.66,3.8-9.23,5.88-2.41,3.22-.14,4.94,3.56,4.28a12.2,12.2,0,0,0,2.56-.77C79.59,175.73,87.61,167.45,79.78,167.53Z"/>
        <path class="cls-1" d="M78.54,183.79c-3.74,1.12-7.91,4.08-9.08,7.73-1.69,5.37,4.71,3.38,7.55,1.78l.31-.17c2.56-1.44,6.64-3.85,7.5-6.77C86.08,182,81.28,183,78.54,183.79Z"/>
      </g>
      <g>
        <path class="cls-1" d="M43.18,96.75c-1.32-1.83-8-.46-9.54,0-4.49,1.2-5.6,6.18.33,6.16,2.17,0,10.33-3.35,9.35-5.87A1.3,1.3,0,0,0,43.18,96.75Z"/>
        <path class="cls-1" d="M40.81,103c-4.32,2.3-.8,4,2.57,4.32,3.79.41,10.09.18,9.82-4.7C53,98,42.67,102,40.81,103Z"/>
        <path class="cls-1" d="M60.9,109.27c-2.21-1.86-12.95-.15-11.23,3.33s12.12,2.66,12.3-1.45A2.39,2.39,0,0,0,60.9,109.27Z"/>
        <path class="cls-1" d="M66.05,119.35c-2.57-1.52-12-3.21-13.23.66-1.74,5.33,12.68,5.06,14.94,2.37C68.41,121.59,68.13,120.58,66.05,119.35Z"/>
        <path class="cls-1" d="M64.11,127.23c-3.67-1.65-8.23-.61-6.1,3.84.52,1.07,2.36,2.23,4.45,3,3.41,1.27,7.45,1.51,7.28-1.39C69.6,130.46,66,128.09,64.11,127.23Z"/>
        <path class="cls-1" d="M70.2,209.38c-.74-3.45-9.46-9.81-13.15-8-5.07,2.43,3,8.92,5.75,10,2.49.95,7.73,2.63,7.51-1.16A5,5,0,0,0,70.2,209.38Z"/>
        <path class="cls-1" d="M63.37,138.61c-2.6-.84-5.29-.91-5.3,2.28,0,2.65,5.15,5.66,9,6.26C75.59,148.45,66.92,139.75,63.37,138.61Z"/>
        <path class="cls-1" d="M60.52,153.07c-3.35,1.36-1.78,4.26,1.09,6.58s7.41,4.22,9.19,3a1.71,1.71,0,0,0,.78-1.6C71.4,157.94,63.77,151.75,60.52,153.07Z"/>
        <path class="cls-1" d="M58.51,169.09c-2.5,1.42-1.4,3.91.9,6.06,2.91,2.72,7.72,4.88,9.63,3.6C72.86,176.18,62.7,166.72,58.51,169.09Z"/>
        <path class="cls-1" d="M55.78,182.91a2.24,2.24,0,0,0-1.58,1.6c-.86,3.85,5.43,7.86,10.14,9.17,2.63.74,4.77.63,4.85-.83C69.48,188,60.7,181,55.78,182.91Z"/>
      </g>
    </g>
    <g>
      <g>
        <path class="cls-1" d="M159.18,142.33c-2.1-.28-3.15,1.48-3.5,3s-.52,9.9,3,9.3c2.58-.44,4.17-8.84,2.05-11.46A2.31,2.31,0,0,0,159.18,142.33Z"/>
        <path class="cls-1" d="M134.43,163.12c-1.23-3.2-4.09-4.38-5.73-1.07-2.22,4.48-1.34,10,1.21,14.43,2,3.44,4.41,5.15,5.4.32a21.13,21.13,0,0,0,.42-3.82A27.61,27.61,0,0,0,134.43,163.12Z"/>
        <path class="cls-1" d="M105.16,208.28a9.66,9.66,0,0,0-2.47-7.21c-1.76-1.75-4.28-2.48-5.68-.19-2.67,4.4,2,12.88,5.6,16.08,3.12,2.75,3.36-.43,3.08-3.73C105.52,211.11,105.14,209,105.16,208.28Z"/>
        <path class="cls-1" d="M118.25,182.94c-2.49-1-3.62,1.59-4,3.19a18.5,18.5,0,0,0-.37,7.7c.21,1.1.88,5,2.16,5.61,3.2,1.44,5.63-6.43,4.9-11.86C120.6,185.36,119.77,183.56,118.25,182.94Z"/>
        <path class="cls-1" d="M148.79,152.64c-1-3.44-3.68-3.08-5.82-.75-2.71,3-2.56,7.41-2.11,11.12.35,3,1.11,8,4.48,3.71a20.93,20.93,0,0,0,3.76-10.44A10.61,10.61,0,0,0,148.79,152.64Z"/>
      </g>
      <g>
        <path class="cls-1" d="M181.88,148.52a13.73,13.73,0,0,0-7.59-1.34c-3.14.32-5,2-1.62,3.93a12.25,12.25,0,0,0,8.46.8,3.13,3.13,0,0,0,2.17-1.4C183.54,149.92,183.2,149.22,181.88,148.52Z"/>
        <path class="cls-1" d="M165.14,154c-3.44-1.26-7.17-1.57-7.79.67-.91,3.3,6.77,5.33,9,5.93,1.84.49,4.75,1,4.93-1.44C171.48,156.48,167.27,154.83,165.14,154Z"/>
        <path class="cls-1" d="M132.84,180.54c-1.81,2.59,3.78,3.51,5.52,3.67.78.07,1.91.17,3.1.17,2.78,0,6-.46,6.24-3C148.28,176.1,134.69,177.87,132.84,180.54Z"/>
        <path class="cls-1" d="M118.54,213.52l-.29,0c-3.71-.4-9.31,1.08-11.56,3.65-3.24,3.7,12.09,4.45,14.43,3.69C128.16,218.54,124.62,214.36,118.54,213.52Z"/>
        <path class="cls-1" d="M134.62,194.79a11.84,11.84,0,0,0-4.37-.8c-3.23,0-12.71,1.9-10.59,6.15,2.3,4.65,11.94,1.71,15.54,1,2.1-.4,3.86-.27,3.42-2.8C138.33,196.68,136.28,195.42,134.62,194.79Z"/>
        <path class="cls-1" d="M157.57,167.34a7.83,7.83,0,0,0-2.77-.56c-4.49-.37-12.5.2-12.29,2.76.27,3.45,9,4.44,11.48,4.25C157.74,173.5,162.32,170.35,157.57,167.34Z"/>
      </g>
    </g>
    <g>
      <path class="cls-1" d="M41.18,168.06c-2.28.72-4.69,2.95-4.76,5.31,0,1.12.27,6.8,2.74,4.89,2.17-1.67,5.3-3.79,5.59-6.66,0,0,0-.08,0-.12C44.93,169.32,43.84,167.19,41.18,168.06Z"/>
      <path class="cls-1" d="M44.77,171.48v.08C44.87,170.33,44.82,170.87,44.77,171.48Z"/>
      <path class="cls-1" d="M44.77,171.48s0,.08,0,.12a.05.05,0,0,0,0,0Z"/>
      <path class="cls-1" d="M44.77,171.56a.05.05,0,0,1,0,0C44.7,172.23,44.65,172.8,44.77,171.56Z"/>
      <path class="cls-1" d="M28.41,176.08a8.62,8.62,0,0,0-4.3,1.13c-1.2.77-1.88,2.35-.51,3.16a8.86,8.86,0,0,0,4.71.72,29.85,29.85,0,0,0,4.66-.65c1.72-.36,3.43-.83,5.13-1.34l-1-.68A13.77,13.77,0,0,0,28.41,176.08Z"/>
      <path class="cls-1" d="M50.35,200.36a5.81,5.81,0,0,0-3.59-2c-2.47-.55-6-.41-8,1.05-1,.71-1.53,2.08-.43,3s3.26,1.23,4.75,1.29a19.76,19.76,0,0,0,5.38-.7c1.48-.37,2.63-.53,2.6-1.31A2.45,2.45,0,0,0,50.35,200.36Z"/>
      <path class="cls-1" d="M57.67,187.82c-2.92-1.78-6,4.56-6.63,6a15.29,15.29,0,0,0-1.09,4.6,2.42,2.42,0,0,0,.18,1.63c.49.68,1.65.39,2.23.06,2.13-1.22,4.48-3,5.55-5S60.46,189.5,57.67,187.82Z"/>
      <path class="cls-1" d="M61.88,228.76a9.21,9.21,0,0,0-5.1-2.54c-2.16-.42-4.82-.34-6.31.53-3.08,1.8,1.05,4.23,4.22,4.91a22.08,22.08,0,0,0,6.47.18c1.23-.09,1.79-.41,1.9-.9S62.69,229.66,61.88,228.76Z"/>
      <path class="cls-1" d="M63.6,222a7.29,7.29,0,0,0-1,3.91c-.08,1.44-.64,2.81-.72,4.24-.06,1.17,1.31,1.56,2.36.88a11.9,11.9,0,0,0,3.08-3.42c1.53-2.17,4.24-5.54,2.65-8.2C68.52,217,64.37,220.92,63.6,222Z"/>
      <path class="cls-1" d="M61.79,204l.69.52Z"/>
      <path class="cls-1" d="M61.79,204s0,0,0,0c-2.61-2-4.15,2.22-4.72,3.83a12.1,12.1,0,0,0-.54,6c.13,1,.07,2.75,1.26,3.26,2.71,1.18,4.24-3.8,4.82-5.42C63.47,209.3,64.34,206,61.79,204Z"/>
      <path class="cls-1" d="M51.14,213c-2.44-.53-5.4-.59-6.72,1.66-1.66,2.79,3.44,4,5.52,4.3,1.62.22,9.63,0,7.42-3.23C56.15,214,53.15,213.46,51.14,213Z"/>
      <path class="cls-1" d="M57.36,215.75c.38.54-.8-1.17,0,0Z"/>
      <path class="cls-1" d="M49.67,176.92c-2.64-1.94-4.28,1.92-5,3.6a11.5,11.5,0,0,0-.74,5.72c.13,1.12,0,3.17,1.37,3.73,2.85,1.21,4.56-3.79,5.24-5.53C51.49,182.05,52.27,178.82,49.67,176.92Z"/>
      <path class="cls-1" d="M44.8,188.57Z"/>
      <path class="cls-1" d="M44.8,188.57c-1.36-1.87-4.74-2.46-7-2.93-2.46-.53-6-.63-7.08,1.92s4.09,3.8,6,4.09c1.6.24,10.43.21,8-3.08Z"/>
      <path class="cls-1" d="M44.8,188.57h0C44.26,187.83,44.62,188.32,44.8,188.57Z"/>
      <path class="cls-1" d="M26.94,167.25a9.11,9.11,0,0,0-4.2-1.14c-1.21,0-3,.52-3.17,1.81-.33,2,3.13,4,4.73,4.77,1.4.71,7.43,3,7.46.05h0C31.79,170.47,28.85,168.24,26.94,167.25Z"/>
      <path class="cls-1" d="M31.76,172.74h0C31.77,171.66,31.76,172.49,31.76,172.74Z"/>
      <path class="cls-1" d="M31.76,172.74Z"/>
    </g>
    <g>
      <path class="cls-1" d="M111.44,232.13c-5,4.38-9.44,9.74-15.43,13-1.66.9-8.07,3.65-9.65,1.9-2.38-2.68,5.71-9.78,7.24-11.56,2.34-2.72,5-5.23,7.23-8,13.38-16.7,24.81-34.7,38.15-51.44,7.9-9.92,21.18-28.4,37.13-26.48-.21-.69-.41.37-.24-.33C161,145.27,147,162.75,139.3,171.51c-14.07,16.1-25.77,33.9-38.76,50.76-1,1.25-1.9,2.53-2.88,3.77a121.86,121.86,0,0,1-8.93,10.22c-1.57,1.58-5.77,6.65-7.5,2.87-1.47-3.2-1.3-7.79-.74-11.1,2.23-13.2,7.27-24.94,13.67-36.57,14.62-26.67,39-56.66,37.69-88.48-.76-18.72-12.84-28.16-27.77-39.05A89.64,89.64,0,0,1,120.43,80a39.17,39.17,0,0,1,8.08,16.44c2.35,11.52-.9,23.61-5.17,34.16-5,12.48-12.48,23.87-19.57,35.34a356.71,356.71,0,0,0-20,36.41c-5.52,11.85-8,23.43-6.76,36.5.07.78.92,3.91.48,4.48-1.6,2.07-2.29-1.92-2.53-2.7a62.26,62.26,0,0,1-1.55-6.08C63.13,183.2,96.55,98.93,30.82,93.72a36.49,36.49,0,0,1,4.45,1.52C45.91,99,56.93,103.54,63,113.12c5.64,8.93,6.54,19.91,7,29.86a242.65,242.65,0,0,1-1.35,35.16,233.64,233.64,0,0,0-.82,36c.41,7.87.67,15.9,2.87,23.46,1.43,4.9.9,7.25-.38,4.67-.79-1.6-1.43-3.31-2.16-4.72-1.64-3.18-3-6.49-4.26-9.8-4.88-12.41-9.45-25.37-16.09-37.13C43.12,182.28,36.25,171.72,25,171c.08.51-.4-.42-.53.09,12.93,2.51,19.51,16.27,24,26.43,6,13.56,9.86,27.89,16.94,41.08,3.61,6.72,8.73,15.11,18,15,4.5-.06,6.93-2,10.8-3.82a79.35,79.35,0,0,0,18-12.47c10.73-9.44,20.54-20.63,34.34-26.4a56.54,56.54,0,0,1,28.19-3.63c-8.8-1.59-18.19-1.58-26.57,1C133.6,212.74,122.32,222.56,111.44,232.13Z"/>
      <g>
        <path class="cls-1" d="M182.34,207.34c-.63-1.14-2.12-1.57-3.32-2a15.52,15.52,0,0,0-10.16-.21c-1.62.61-1,2.34.09,3.22,2,1.57,5.18,2.43,7.71,2.83a7.34,7.34,0,0,0,3.7-.21c1.39-.53,2.63-1.83,2.16-3.27A3.39,3.39,0,0,0,182.34,207.34Z"/>
        <path class="cls-1" d="M163.49,208.62a13.39,13.39,0,0,0-3.79-1.85c-.3-.09-2.92-.66-2.89-.23a10.71,10.71,0,0,0,2.66,6.18c1.28,1.5,4.29,3.75,5.83,1.42C166.73,212,165.43,210,163.49,208.62Z"/>
        <path class="cls-1" d="M142.51,217.32a16.39,16.39,0,0,0-9.18-1.3c-1.51.26-1.61,1.77-.7,2.79a11.25,11.25,0,0,0,3.65,2.38c2.47,1.18,5.81,2.81,8.55,1.65,1.13-.49,2.26-1.58,1.59-2.83S143.87,217.93,142.51,217.32Z"/>
        <path class="cls-1" d="M124.58,233.2a21.43,21.43,0,0,0-11.57.27c-1.37.38-3.34,1.16-2.23,2.88,1,1.52,3.55,2,5.23,2.38,2.78.56,5.93,1.2,8.67.43a4.59,4.59,0,0,0,3.29-2.81C128.47,234.49,126.09,233.59,124.58,233.2Z"/>
        <path class="cls-1" d="M153.38,211.47a14.59,14.59,0,0,0-8.36-1.93c-1.42.18-1.43,1.66-.73,2.59a10.26,10.26,0,0,0,3,2.37c2.16,1.29,5.05,3.05,7.66,2.18,1.11-.37,2.22-1.3,1.67-2.51S154.54,212.14,153.38,211.47Z"/>
        <path class="cls-1" d="M131.14,224.47a14.57,14.57,0,0,0-5.26-.33c-1.16.15-3.51.25-4.23,1.2-1.81,2.39,4.37,3.85,5.88,4.22,2.34.56,5.61,1.29,7.54-.38C138.06,226.57,133.37,225,131.14,224.47Z"/>
      </g>
      <path class="cls-1" d="M120.13,246.12h0C120.2,246.26,120.24,246.35,120.13,246.12Z"/>
      <path class="cls-1" d="M120.13,246.12h0C119.81,245.49,120,245.89,120.13,246.12Z"/>
      <path class="cls-1" d="M120.13,246.12c-.9-1.76-3.67-2.3-5.45-2.66a24.62,24.62,0,0,0-7.1-.59,21.71,21.71,0,0,0-7.28,1.71c-1.86.92-.76,2.88.68,3.74,3.07,1.83,7.64,2.44,11.2,2.7a11.89,11.89,0,0,0,5.25-.56c1.61-.64,3.62-2.51,2.7-4.33Z"/>
      <path class="cls-1" d="M120.13,246.12Z"/>
      <g>
        <path class="cls-1" d="M161.87,196.69a4.5,4.5,0,0,0-3.24,2.26,12.12,12.12,0,0,0-1.92,8.6,11,11,0,0,0,5.52-2.92c1.51-1.41,3.48-3.81,2.86-6A2.88,2.88,0,0,0,161.87,196.69Z"/>
        <path class="cls-1" d="M165.09,198.63c.31,1.12-.18-.63,0,0Z"/>
        <path class="cls-1" d="M135.87,204.66a3.39,3.39,0,0,0-.51-.21c-2.38-.8-3.53,2.07-4.17,3.63a9.66,9.66,0,0,0-.39,5.46c.17,1.05.23,2.7,1.58,3.05,2.66.69,4-3.48,4.65-5.18C137.76,209.43,138.41,205.93,135.87,204.66Z"/>
        <path class="cls-1" d="M112.74,221.65c-.89-1.1-2.74-2.15-4.17-1.5s-1.81,2.78-2,4.19a13.44,13.44,0,0,0,2.51,9.64c1.11,1.41,2.89.56,3.61-.66a10.67,10.67,0,0,0,1.12-4.3C114.07,226.66,114.41,223.74,112.74,221.65Z"/>
        <path class="cls-1" d="M148.75,199.55c2.64,2.13-.28-.23,0,0Z"/>
        <path class="cls-1" d="M148.75,199.55c-2.16-1.75-3.86,1.17-4.64,2.62a8.79,8.79,0,0,0-1,4.53c0,1-.15,2.77,1,3.31,2.38,1.08,4.14-2.66,4.9-4.15C150,203.91,150.88,201.26,148.75,199.55Z"/>
        <path class="cls-1" d="M123,214.91c-.75-.9-2.24-1.85-3.47-1.43s-1.54,2.21-1.64,3.38a11.47,11.47,0,0,0,2.44,8.2,1.81,1.81,0,0,0,2.83-.23,7.21,7.21,0,0,0,1-3.78C124.34,219,124.48,216.65,123,214.91Z"/>
        <path class="cls-1" d="M100.29,229.74c-1.05-1.22-3.21-2.57-4.9-2-2,.74-2,3.54-2.07,5.26a15.51,15.51,0,0,0,1,6,16.31,16.31,0,0,0,3.39,5.66c1.55,1.39,3.37-.12,3.92-1.5a12.86,12.86,0,0,0,.71-4.77C102.37,235.54,102.39,232.16,100.29,229.74Z"/>
      </g>
    </g>
  </g>
  <g>
    <g>
      <g>
        <path class="cls-2" d="M237,70.81c4.86.94,7.21,3.24,6.43,6.09a4.22,4.22,0,0,1-1.7,2.39c-1.61,1.12-4.06,1.37-7.26.76a16.94,16.94,0,0,1-6.11-2.77,30.12,30.12,0,0,1-4.26-3.49l-.71-.72,1-.4C224.73,72.56,231.85,69.83,237,70.81Z"/>
        <path class="cls-2" d="M227,60.74a4.29,4.29,0,0,1,1.25.8,3.58,3.58,0,0,1,1.23,3c-.16,2.18-1.74,3.69-3.35,4.77-2.19,1.47-8.33,6.08-10.37,3C213.07,68.36,223.08,59.14,227,60.74Z"/>
        <path class="cls-2" d="M213.53,62.45c1.13,2.49-1.11,5.41-2.83,7.37-1.35,1.55-7.92,6.62-9.78,5.61-.52-.29-.67-1-.26-2.47,1-3.46,5.27-10.59,8.57-12.28C211.14,59.71,212.71,60.64,213.53,62.45Z"/>
        <path class="cls-2" d="M194.29,74.41a36.5,36.5,0,0,1-2.48,4.23c-1.59,2.24-3.53,3.9-4.84,1.24-1.23-2.49.44-6.79,1.08-9.47.55-2.35,2-5.85,4.64-6.35C197.88,63.07,195.78,71.56,194.29,74.41Z"/>
        <path class="cls-2" d="M179.73,77.75a17.78,17.78,0,0,1-.36,9.89c-.14.41-.32.92-.55,1.45-2.16,5-4.52,2.36-5.86-.88s-2.62-9.19.49-12.55C175.72,73.21,179,75.16,179.73,77.75Z"/>
        <path class="cls-2" d="M168.9,92.28l.08.21c1,2.94,2.21,10.43-1,12.54-5.3,3.47-8.64-13.1-6-16.49C165,84.83,168,89.92,168.9,92.28Z"/>
        <path class="cls-2" d="M123,177.4c3.82,3.35,5.58,16.26,4.45,19.3-2.14,5.73-6.87-1.37-8-3.43-2.08-3.7-5.31-11.23-.66-15.55C120.38,176.23,121.8,176.33,123,177.4Z"/>
        <path class="cls-2" d="M155.08,103.05a2.32,2.32,0,0,1,1.87.71c1.63,1.5,2.72,4.88,2.89,6.5.26,2.37,1,14.4-3.82,10.34-1.51-1.28-2.23-3.82-3-5.69C152.18,112.63,150.61,103.63,155.08,103.05Z"/>
        <path class="cls-2" d="M146.52,123.14a10.84,10.84,0,0,1,3.15,3.91c1.16,2.64,4.18,10,0,12.36-2.45,1.37-5.32-3.25-5.84-5-.82-2.79-2.25-5-2.07-8.25C142,121.38,144.38,121.53,146.52,123.14Z"/>
        <path class="cls-2" d="M137.67,142.48a3.68,3.68,0,0,1,1.19.74c1.91,1.72,2.28,4.58,3.32,6.92.71,1.62,3.91,9.64-.55,9.83-2.12.08-4.5-4.33-5.4-6-1.19-2.2-3.6-5.39-3.18-8.28S135.72,141.73,137.67,142.48Z"/>
        <path class="cls-2" d="M126.29,159.2a4.42,4.42,0,0,1,2.06.51c3.89,2,6,9.35,7.08,12.87.51,1.62,1.61,4.36-.16,5.89-3.39,2.93-6.52-2-7.94-4.26C126,172.15,118.3,159.19,126.29,159.2Z"/>
      </g>
      <g>
        <path class="cls-2" d="M218.77,72.59c3.71.37,10.3,4.29,10.42,8.72a3,3,0,0,1-.71,2c-2.69,3.19-5.73,1.7-8.31-1.09C218.49,80.43,211.79,71.9,218.77,72.59Z"/>
        <path class="cls-2" d="M210.33,76.57c1.85,1.31,2.87,2.73,3,4.23a4,4,0,0,1-.76,2.75c-4.8,6.85-14.74-6.94-10.31-8.84C204.61,73.72,208.55,75.37,210.33,76.57Z"/>
        <path class="cls-2" d="M190.68,80.63a10.76,10.76,0,0,1,7.53,3.12c.34.38,3.3,3.83,1.2,6.18-1,1.19-3.17,2-7.29-.71l-.09-.06C189.71,87.58,184.39,80.71,190.68,80.63Z"/>
        <path class="cls-2" d="M179.17,90.51a15,15,0,0,1,9.06,1c.55.28,5.26,2.8,4.07,5.94-1.63,4.32-7.62,2.44-10.09,1.26S172.42,91.92,179.17,90.51Z"/>
        <path class="cls-2" d="M182.65,104.55a4.15,4.15,0,0,1-1.07,2.69c-1.17,1.32-3.18,2.12-6,2.38-2.37.22-8-.29-9.13-2.66a2,2,0,0,1-.22-1.27c.3-1.71,3-2.8,4.52-3.45C174.18,100.8,182.73,98.62,182.65,104.55Z"/>
        <path class="cls-2" d="M145.63,192.18a5.38,5.38,0,0,1,1.58,1.7,2.9,2.9,0,0,1,.27,2.67c-1.62,4.09-6.09,5.28-9.67,5.57-2.3.19-14.57,1.11-11.28-4.26,1.27-2.08,4-3.88,7-5.09C138,191,143.12,190.49,145.63,192.18Z"/>
        <path class="cls-2" d="M166.19,115.82c3.38-1.62,10-3.89,10.11,1.77s-13.12,6.68-15.93,5.56c-4.57-1.81,1.79-5.32,4.77-6.81Z"/>
        <path class="cls-2" d="M167.15,136.05c-1.11,4.43-8,5-11.21,5.31-2,.19-7.14,0-4.93-3.4.69-1.09,2.6-2.38,4.86-3.46C158.58,133.21,168.78,129.53,167.15,136.05Z"/>
        <path class="cls-2" d="M161.05,155.94c-1,3.45-5.63,4.49-8.38,5-2.35.41-8.17,1.63-9.65-.51s1.61-4.79,5.68-6.51C154.63,151.39,162.56,150.76,161.05,155.94Z"/>
        <path class="cls-2" d="M144.24,170.91c3.2-1.65,7.06-2.63,9.92-.7a6.86,6.86,0,0,1,.93.78,2.61,2.61,0,0,1,.82,2.51c-1.23,5.26-9.62,7.12-13.51,7.32-1.89.1-5.88.67-6.9-1.29-1.65-3.21,3.93-6.2,6.07-7.3C142.57,171.72,143.5,171.29,144.24,170.91Z"/>
      </g>
    </g>
    <g>
      <g>
        <path class="cls-2" d="M255.49,154.09c4.45,3.85,3.06,6.74,2.25,7.8s-2.71,2.78-6.43.27a13.09,13.09,0,0,1-1.26-1c-3.3-2.84-4.9-9.14-5-9.41l-.24-1,1,.05C246,150.88,252.21,151.23,255.49,154.09Z"/>
        <path class="cls-2" d="M246.61,141.17c3-1.52,6.39-2.1,7.46.68.82,2.14-2.31,4.75-3.67,6.12-3.66,3.73-13.73,3.12-8.6-3.2A16,16,0,0,1,246.61,141.17Z"/>
        <path class="cls-2" d="M241,134.62c5.19,1.17-1.85,8-4,9.13-2.48,1.31-10.16,3.32-8.79-1.56.43-1.56,3.5-3.86,6.58-5.52C237.39,135.31,239.93,134.37,241,134.62Z"/>
        <path class="cls-2" d="M227,131.77c1.17.76,1.52,2.65.17,5.54s-4.6,6.66-7.55,7.57C214,146.64,221.73,128.29,227,131.77Z"/>
        <path class="cls-2" d="M210.71,132.75c2.64,2.26.2,8.46-1.23,11.38-1.11,2.26-5.66,8.78-7.09,4.06-.39-1.27-.13-3.31.24-5.34.33-1.78.76-3.56.94-4.79C204,134.92,207.59,130.08,210.71,132.75Z"/>
        <path class="cls-2" d="M198.35,144.49c.5,3-.77,7.94-2.18,10.78-3.1,6.22-5.49,1-4.93-3.68.44-3.61,1.69-7.54,2.89-8.59C196.79,140.69,197.87,141.65,198.35,144.49Z"/>
        <path class="cls-2" d="M130.51,202.35c.68,0,1.37.5,2,1.75,1.91,3.59-1.27,16.28-5.29,18.33C118.8,226.74,125.37,202.4,130.51,202.35Z"/>
        <path class="cls-2" d="M183.64,149.65c5.48.43,1.89,10.23.48,13.39-1.69,3.79-4.26,6.58-5.48,1.37a15,15,0,0,1-.28-2.76C178.25,157,179.27,149.31,183.64,149.65Z"/>
        <path class="cls-2" d="M172.31,169.14c-.14,1.94-2.58,11.6-5.29,11.14-1.78-.3-2.55-2.53-2.6-5.3-.09-4.6,1.81-10.7,4.31-12C173,160.78,172.52,166.3,172.31,169.14Z"/>
        <path class="cls-2" d="M157.79,178.57c1.7,2.23,1.37,9,.54,12-1.27,4.52-4.1,4.19-5.78.8a11.71,11.71,0,0,1-.88-2.61C150.93,185.48,153.15,172.46,157.79,178.57Z"/>
        <path class="cls-2" d="M144.7,193c1.31,3.81,1.3,9.47-1.11,13.38-3.54,5.75-5.7-.83-6.05-4.34l0-.39c-.32-3.16-.72-8.29,1.25-11.37C141.66,185.7,143.75,190.17,144.7,193Z"/>
      </g>
      <g>
        <path class="cls-2" d="M240,148.3c2.35-.5,5.18,5.75,5.77,7.32,1.66,4.47-1.9,9.43-5.45,4.84-1.3-1.67-3.36-10.73-.63-12.05A1.28,1.28,0,0,1,240,148.3Z"/>
        <path class="cls-2" d="M236.11,155.27c.65,5.23-2.87,3.89-5.21,1.59-2.63-2.58-6.23-7.63-1.92-11.45C233,141.83,235.84,153,236.11,155.27Z"/>
        <path class="cls-2" d="M218.68,145c2.92.17,7.92,9.87,3.92,11.41s-9.54-7.15-6.16-10.67A2.73,2.73,0,0,1,218.68,145Z"/>
        <path class="cls-2" d="M207,149.34c2.84.73,9.92,6.57,7.39,10.75-3.49,5.74-11.92-5.6-11-9.56C203.69,149.37,204.72,148.75,207,149.34Z"/>
        <path class="cls-2" d="M201.49,157.34c3.6,1.47,5.46,5.85.39,7.88-1.21.49-3.31,0-5.23-.94-3.13-1.58-5.77-4.5-3.2-6.75C195.43,155.79,199.6,156.58,201.49,157.34Z"/>
        <path class="cls-2" d="M128,220.52c3.37-2.28,14-.81,14.74,3.51,1,5.92-9.39,5.07-12,3.81-2.3-1.14-6.87-3.8-3.52-6.75A6.8,6.8,0,0,1,128,220.52Z"/>
        <path class="cls-2" d="M192.25,167.32c2.28,1.31,3.95,3.32,1.25,6-2.24,2.2-7.92.71-10.75-1.79C176.53,166,189.14,165.53,192.25,167.32Z"/>
        <path class="cls-2" d="M181.67,181.46c.85,3.71-2.55,4.9-6.26,4.6s-8-2.23-8.08-4.6a2.45,2.45,0,0,1,.89-1.93C171,177.1,180.83,177.86,181.67,181.46Z"/>
        <path class="cls-2" d="M169.25,196.25c.3,3.09-2.48,4.31-5.7,4.31-4.05,0-8.79-1.92-8.84-4.46C154.59,191,168.75,191.05,169.25,196.25Z"/>
        <path class="cls-2" d="M159.14,209.77a2.93,2.93,0,0,1-.41,2.54c-2.76,3.84-9.95,2.3-13.9-.23-2.21-1.42-3.4-3.16-2.21-4.43C146.59,203.4,157.79,204.41,159.14,209.77Z"/>
      </g>
    </g>
    <g>
      <g>
        <path class="cls-2" d="M131.48,96.54c1.49,1.39.64,3.65-.49,5.21s-8.1,8.58-9.69,5.39c-1.18-2.36,5-10.52,8.51-11A1.94,1.94,0,0,1,131.48,96.54Z"/>
        <path class="cls-2" d="M119.51,139.94c2.67-2.64,5.88-5.53,9.18-7.15,3.46-1.69,6.17-.46,4.35,3.54-2.48,5.41-7.73,9.31-13,11-4.12,1.31-7,.86-3.52-3.91A32.83,32.83,0,0,1,119.51,139.94Z"/>
        <path class="cls-2" d="M107.88,192.66c2.06-2.13,4.84-3.95,7.62-4,2.53-.09,4.67,1.26,3.56,4.22-2.13,5.7-12.13,9.13-17,9-4.21-.13-1.64-3,1.33-5.47C105.25,194.73,107.31,193.24,107.88,192.66Z"/>
        <path class="cls-2" d="M121.86,162c2.13,1.49.19,4.28-1.12,5.76a26.38,26.38,0,0,1-7.11,5.65c-1.14.59-5.18,2.72-6.31,2-2.86-1.8,3.45-9.39,8.93-12.51C118.48,161.59,120.58,161.06,121.86,162Z"/>
        <path class="cls-2" d="M129,113.06c3.53-2.06,4.83.3,4.13,3.88-.89,4.54-4.76,8.09-8.18,10.81-2.76,2.19-7.43,5.71-5.85-.39a31,31,0,0,1,6.62-11.53A15.24,15.24,0,0,1,129,113.06Z"/>
      </g>
      <g>
        <path class="cls-2" d="M112.56,84.15a10.79,10.79,0,0,1,5.71,4.75c1.62,2.68,1.28,5.52-2.38,4.49-2.57-.72-4.79-3.32-5.75-5.86A3.57,3.57,0,0,1,110,84.7C110.38,84,111.18,83.72,112.56,84.15Z"/>
        <path class="cls-2" d="M117.93,101.62c3.15,1.61,5.66,4.23,4.12,6.56-2.26,3.43-8.61-.82-10.45-2-1.52-1-3.69-2.83-1.74-5C112,98.75,116,100.63,117.93,101.62Z"/>
        <path class="cls-2" d="M114.83,148.41c-1.12,3.54-5.26,0-6.45-1.22a29.5,29.5,0,0,1-2-2.26c-1.68-2.12-3.19-5-1.23-7.24C109.31,132.84,116,144.78,114.83,148.41Z"/>
        <path class="cls-2" d="M95.37,186.68l.21.2c2.57,2.53,4.67,8.06,3.84,11.93-1.19,5.54-11.06-5.65-11.82-8.08C85.32,183.42,91,182.69,95.37,186.68Z"/>
        <path class="cls-2" d="M101.63,158.81a9.21,9.21,0,0,1,3.31,2.7c1.91,2.53,6,11.37,1.14,13.26-5.34,2.06-8.64-7.8-10.23-11.12-.92-2-2.09-3.21.32-5C97.8,157.51,100.09,158.06,101.63,158.81Z"/>
        <path class="cls-2" d="M111.18,118.44a6.06,6.06,0,0,1,2.14,1.68c3,3.15,7.35,9.79,5,11.75-3.1,2.64-9.19-3.26-10.52-5.34C105.83,123.4,105.77,117.27,111.18,118.44Z"/>
      </g>
    </g>
    <g>
      <path class="cls-2" d="M180.56,208.75c.74,2.36.3,6.06-1.67,8.05-.93.95-5.94,5.42-5.8,1.94.12-3,0-7.16,2.25-9.77.07-.08.14-.15.2-.23C177.28,206.88,179.69,206,180.56,208.75Z"/>
      <path class="cls-2" d="M175.54,208.74l-.13.14C176.35,207.83,176,208.23,175.54,208.74Z"/>
      <path class="cls-2" d="M175.41,208.88l-.07.09C174.86,209.51,174.45,210,175.41,208.88Z"/>
      <path class="cls-2" d="M175.54,208.74c-.06.08-.13.15-.2.23l.07-.09Z"/>
      <path class="cls-2" d="M181.4,225.21a8.15,8.15,0,0,1,1.63,4.26c.06,1.56-.87,3.4-2.38,3s-2.58-1.81-3.44-3a25.2,25.2,0,0,1-2.26-4.13c-.73-1.62-1.35-3.32-1.94-5.06l1.14.17A10.75,10.75,0,0,1,181.4,225.21Z"/>
      <path class="cls-2" d="M147.56,228.37a4.78,4.78,0,0,1,3.86,1.11c2,1.45,3.94,4.25,3.94,7,0,1.37-.85,2.9-2.31,2.82s-3-1.5-4-2.6a16.81,16.81,0,0,1-2.63-4.73c-.58-1.44-1.14-2.47-.46-3.08A2.87,2.87,0,0,1,147.56,228.37Z"/>
      <path class="cls-2" d="M153.82,212.36c3.28.79-.26,8.39-1.13,10.1a22.31,22.31,0,0,1-3.27,4.64c-.39.45-.88,1.09-1.49,1.21-.87.18-1.33-.95-1.39-1.67a18.85,18.85,0,0,1,.93-8.42C148.48,215.81,150.71,211.6,153.82,212.36Z"/>
      <path class="cls-2" d="M116.48,243a7.45,7.45,0,0,1,5.23,1.83c1.65,1.31,3.18,3.44,3.34,5.3.32,3.86-4.23,2.69-6.72.8a18,18,0,0,1-4-4.83c-.66-1-.73-1.73-.37-2.21A3.7,3.7,0,0,1,116.48,243Z"/>
      <path class="cls-2" d="M136.71,222.48l.87.09h0l-.85-.09Z"/>
      <path class="cls-2" d="M137.56,222.57h0c3.26.38.61,5-.42,6.81a17.44,17.44,0,0,1-4.78,5.36c-.92.73-2.38,2.22-3.52,1.73-2.63-1.11.68-6.4,1.7-8.19C132.07,225.65,134.4,222.22,137.56,222.57Z"/>
      <path class="cls-2" d="M136.33,238.22c1.91,1.44,3.74,3.68,2.62,6.56-1.37,3.57-5.48.66-7-.71-1.17-1.07-5.76-7.47-1.72-8.39C132.47,235.17,134.73,237,136.33,238.22Z"/>
      <path class="cls-2" d="M130.26,235.68Z"/>
      <path class="cls-2" d="M167.91,209.53c3.24.44.94,4.88-.07,6.82a16.87,16.87,0,0,1-4.42,5.29c-1,.82-2.72,2.59-4,2-2.74-1.2.49-6.65,1.56-8.61C162.45,212.36,164.73,209.09,167.91,209.53Z"/>
      <path class="cls-2" d="M161.36,222.82Z"/>
      <path class="cls-2" d="M167.61,225.85c1.92,1.47,4.12,4.09,2.62,7.05s-5.69,0-7.1-1.26c-1.16-1-6.44-7.86-2.2-8.73C163.34,222.41,165.87,224.53,167.61,225.85Z"/>
      <path class="cls-2" d="M161.36,222.82l-.43.09Z"/>
      <path class="cls-2" d="M182.24,219.88h0C183.13,219,182.45,219.66,182.24,219.88Z"/>
      <path class="cls-2" d="M182.23,219.88Z"/>
      <path class="cls-2" d="M182.24,219.88c1.91-1.89,5.56-1.48,7.56-.81a7,7,0,0,1,3.49,2.29c.71.95,1.34,2.71.37,3.93-1.5,1.9-5.26.86-6.91.3-1.43-.49-7-3.22-4.52-5.71Z"/>
      <polygon class="cls-2" points="182.23 219.88 182.24 219.88 182.23 219.88 182.23 219.88"/>
      <path class="cls-2" d="M121.18,236.06a10.86,10.86,0,0,1-2.75,4c-1.18,1.25-2,2.81-3.18,4.06-1,1-2.11.27-2.16-1.1a15.7,15.7,0,0,1,1.06-5.19c.93-3,2.16-7.85,5.37-8.82C122.53,228.07,121.64,234.55,121.18,236.06Z"/>
    </g>
    <g>
      <path class="cls-2" d="M62.27,132.4c1.35-.46,2.6.34,3.67.93a12,12,0,0,1,3.85,3.1A13.55,13.55,0,0,1,72.23,141c.46,1.75-1.36,2.74-2.79,2.59-2.55-.26-5.19-2-7-3.6a6.13,6.13,0,0,1-2-3c-.39-1.5,0-3.54,1.48-4.36A2.89,2.89,0,0,1,62.27,132.4Z"/>
      <path class="cls-2" d="M72.51,148a10.82,10.82,0,0,1,3.86,1.39c.25.16,2.31,1.71,1.93,2a12.91,12.91,0,0,1-6.85,3.06c-2,.25-5.77-.21-4.72-3.32C67.71,148.26,70.16,147.64,72.51,148Z"/>
      <path class="cls-2" d="M77.73,171.34a12.9,12.9,0,0,1,6.63,6c.69,1.38-.54,2.69-2,2.83a9.29,9.29,0,0,1-4.22-.83c-2.5-.94-5.89-2.17-6.54-5.23-.27-1.28,0-3.05,1.45-3.57S76.4,170.8,77.73,171.34Z"/>
      <path class="cls-2" d="M75,198.28a17.79,17.79,0,0,1,6.73,9.14c.5,1.38,1,3.54-1.12,4.1-1.89.49-3.86-1.06-5.16-2.06-2.15-1.68-4.59-3.58-5.58-6.33a5.62,5.62,0,0,1,.41-4.86C71.57,196.35,73.76,197.44,75,198.28Z"/>
      <path class="cls-2" d="M76.17,158.14A11.31,11.31,0,0,1,82.84,163c.69,1.24-.55,2.47-1.77,2.69a8.92,8.92,0,0,1-3.82-.34c-2.39-.6-5.63-1.38-6.45-4.11-.36-1.16-.23-2.77,1.12-3.36S74.91,157.79,76.17,158.14Z"/>
      <path class="cls-2" d="M78.48,186a11.7,11.7,0,0,1,3.45,3.78c.57,1,1.9,2.91,1.52,4.26-.94,3.37-5.9-.19-7.12-1.05-1.88-1.34-4.47-3.26-4.2-6.13C72.55,182.42,76.71,184.72,78.48,186Z"/>
    </g>
    <path class="cls-2" d="M72.24,214.39a19.76,19.76,0,0,1,7.68,12c.34,2.2-2,3-3.58,2.56-3.41-.85-6.67-3.87-9-6.4a10.18,10.18,0,0,1-2.69-4.5c-.42-1.78,0-4.88,2.08-5.67S70.86,213.32,72.24,214.39Z"/>
    <path class="cls-2" d="M66.7,212.39Z"/>
    <g>
      <path class="cls-2" d="M80.05,138.5Z"/>
      <path class="cls-2" d="M80.05,138.5a2.48,2.48,0,0,1,3.58.88c.79,1.2.52,2.92,0,4.36a17.92,17.92,0,0,1-6.17,8.59,12,12,0,0,1-.82-6.67c.29-2.32,1.14-5.82,3.38-7.16Z"/>
      <path class="cls-2" d="M80.05,138.5Z"/>
      <polygon class="cls-2" points="80.05 138.5 80.05 138.5 80.05 138.5 80.05 138.5"/>
      <path class="cls-2" d="M92.49,166a3.06,3.06,0,0,1,.49.22c2.1,1.18.36,4.43-.59,6.21a14.15,14.15,0,0,1-4.4,4.82c-1,.74-2.44,2.05-3.56,1.3-2.17-1.47.56-6,1.63-7.86C87.3,168.49,89.89,165.1,92.49,166Z"/>
      <path class="cls-2" d="M92,197.87c1.46-.23,3.48.33,3.79,2s-1.28,3.69-2.4,5c-2.53,2.94-6.06,5.41-9.7,6-1.86.31-2.21-1.76-1.6-3.32a15.45,15.45,0,0,1,3-4.41C86.89,201,89.17,198.3,92,197.87Z"/>
      <path class="cls-2" d="M89.1,151.85h0Z"/>
      <path class="cls-2" d="M89.09,151.85Z"/>
      <path class="cls-2" d="M89.09,151.85h0c2.77.22,1.32,3.94.55,5.74a13,13,0,0,1-3.24,4.54c-.88.8-2.26,2.4-3.44,1.92-2.35-.94-.23-5.38.58-7.2C84.6,154.46,86.35,151.63,89.09,151.85Z"/>
      <polygon class="cls-2" points="89.09 151.85 89.1 151.85 89.09 151.85 89.09 151.85"/>
      <path class="cls-2" d="M91.49,184.36c1.21-.16,2.92.19,3.29,1.49s-1,3-1.88,4.05c-2.18,2.42-5.37,4.55-8.44,4.9-1.27.14-1.86-1.13-1.51-2.36a10.55,10.55,0,0,1,2.61-3.9C87.2,186.76,89.15,184.69,91.49,184.36Z"/>
      <path class="cls-2" d="M92.55,214.14c1.67-.19,4.12.36,4.62,2.17.59,2.17-1.79,4.5-3.23,5.93a20.88,20.88,0,0,1-5.72,4.18c-2,.93-4.75,2.1-6.85,2.05s-1.92-2.68-1.08-4.25a19.23,19.23,0,0,1,3.64-4.49C86.37,217.34,89.24,214.53,92.55,214.14Z"/>
    </g>
    <path class="cls-2" d="M83.82,207.53c-.73,7.47-2.61,15.32-1.77,22.62.23,2,1.74,9.25,4.18,9,3.71-.37,4.89-12.47,5.48-15.14.91-4,1.44-8.16,2.47-12.18,6.17-24.12,14.59-47.8,20.81-71.91,3.69-14.29,11.42-39.79.2-50.51.71-.4-.07.64.42-.08,12.25,8.2,5.85,33.49,3,46.63-5.23,24.15-13.32,47.88-19.85,71.81-.49,1.78-1,3.56-1.47,5.34C96,218.21,94.77,223.31,94,228.45c-.4,2.51-2.18,9.93,2.07,8.15,3.6-1.52,7.4-5.44,9.88-8.61,9.89-12.62,16.83-26.2,22.89-40.74,13.88-33.31,24.73-76.86,52.58-102.15,16.38-14.88,31.66-13.37,49.9-10.86a83.77,83.77,0,0,0-23.51.7,45.54,45.54,0,0,0-18.85,7.34C177.71,90,169.4,102.49,163,114.49c-7.58,14.19-12.79,29.35-18.28,44.28-5.65,15.33-11.81,30.66-18.94,45.49-6.76,14-15.08,25.56-27,35.37-.7.58-3.87,2.51-4.1,3.32-.8,2.94,3,.18,3.82-.28,2.08-1.17,4.12-2.45,6.1-3.82C154.47,204.35,206,109,250,155.32a30.35,30.35,0,0,0-4-2.17c-9.57-5.14-20.1-9.85-31.89-6.6-11,3-20.86,11.4-29.6,19.27a352,352,0,0,0-29.09,30.09,341.27,341.27,0,0,1-30.12,30.37c-6.94,6.18-13.92,12.62-21.68,17.17-5,3-6.71,5.3-3.75,4.15,1.85-.71,3.68-1.63,5.32-2.23,3.7-1.37,7.3-3.09,10.89-4.82,13.49-6.48,27.25-13.67,41.25-18.28,9.92-3.26,23-6.69,30.42,1.36-.48.35.6,0,.24.48-9.91-7.89-25.57-1.59-36.91,3.34C136,234,121.47,242.89,106,248.33c-7.88,2.77-18.1,5.74-23.54-1.48-2.65-3.52-2.48-7-3.24-11.47-1.33-7.83-1-16-.24-24.22,1.57-16.07,5.18-32.86,1.8-48.28a49.08,49.08,0,0,0-13.87-24.73A47.27,47.27,0,0,1,82,159.47C87,174.44,85.41,191.24,83.82,207.53Z"/>
  </g>
  <g>
    <path class="cls-3" d="M100,243.63c-9.71-5.83-23-7.67-34-5.21a39,39,0,0,0-5.79,1.75C46.44,245.64,46.4,257,65.35,262.55c8.31,2.4,31.07,3.47,38.69.18C113.45,258.68,107.83,248.33,100,243.63Z"/>
    <path class="cls-4" d="M100,243.63c-9.71-5.83-23-7.67-34-5.21a39,39,0,0,0-5.79,1.75c-6.87,2.73-10.32,7-9.68,11.17a37.85,37.85,0,0,0,7.94,3.22c8.31,2.4,31.07,3.46,38.69.18,5.14-2.22,5.79-6.3,4-10.33Q100.59,244,100,243.63Z"/>
  </g>
</svg>
