<svg id="Layer_1" data-name="Layer 1" xmlns="http://www.w3.org/2000/svg" width="157.41" height="174.79" viewBox="0 0 157.41 174.79">
  <defs>
    <style>
      .cls-1 {
        fill: #295968;
      }
    </style>
  </defs>
  <g>
    <path class="cls-1" d="M146.56,34.84A5.83,5.83,0,0,0,145.29,29a4.88,4.88,0,0,0-5.2-1.17c-2.66,1.56-.71,5.21.43,7.33,3.85,7.14-3.18,11.33-6,16.42-2.45,6,5.09,8,8.75,11.58a7.22,7.22,0,0,1,.08,10.51c-2.35,2.58-5.5,4.3-8.18,5.81-3.18,2-7.46,2.41-10.83,3.16a2.74,2.74,0,0,0-1.14.46s.06,0,.07,0a.78.78,0,0,1-.06.24c-.69,3.36,1.74,5.46,3.61,8.39,2.55,3.64,2.12,8.73-2.29,11.09-3.38,1.63-8.29,2.54-11.11,4.6-1.29,1-1.08,1.08-1.8,2.94-1.94,5.6-5,11.16-10.87,13.84-2.82,1.41-6.85.57-9,.15-.43,0-.4-.08-.75,0a10.35,10.35,0,0,0-3.19,2.95,25.66,25.66,0,0,1-2,2.47A6.46,6.46,0,0,1,77.45,131c-2.92-2-3.51-4.79-5.5-6.8-.32-.27-.33-.32-.56-.39a3.2,3.2,0,0,0-1.66.34c-2.16.87-3.87,1.68-4.43,4.21-.28,1.29-.28,3-1,4.3a3.45,3.45,0,0,1-2,1.58,19,19,0,0,1-3.37.37,2.37,2.37,0,0,0-1.24.4c-.82,1.2,0,3.66,0,5.39a12.93,12.93,0,0,1-1.6,7.22,18.26,18.26,0,0,1-2,2.91l-.51-.31c2.67-4.06,2.78-8.29,1.44-12.83-.9-4.36,1.76-5.86,5.65-6.2a2.44,2.44,0,0,0,.66-.17s0,0,0,0a16.08,16.08,0,0,0,.33-3,8.61,8.61,0,0,1,3.24-6.12c11.68-8.66,13,6.08,16.5,4.77a10.11,10.11,0,0,0,2-2.46c2-2.76,4.89-5.82,8.65-5.49,2.23.15,4.37,1.13,6.46.2,3.83-1.94,6.16-6.36,7.48-10.39a10.41,10.41,0,0,1,3.88-5.85,35,35,0,0,1,9.46-4.2c1.33-.52,3.37-.62,3.09-2.23-1-2.58-3.25-4.59-4.23-7.25-1.16-3.23-1.32-7.7,1.53-10.13,2-1.48,4.4-1.66,6.68-2a17.9,17.9,0,0,0,6.33-1.91c2.77-1.58,6.2-3,7.83-5.8,1.12-2.65-4.4-5-6.07-6.73-3.87-2.81-5.78-8.22-3.06-12.52,2.66-4.54,10-7.69,7.21-13.82-7-13.63,11.85-12.17,8.49-.92l-.57-.19Z"/>
    <path class="cls-1" d="M54,149.7c.57-5.87,12.59-10,17.68-11.11-.26,0-.16,0-.2,0s0-.06,0-.11a7.07,7.07,0,0,0,0-2.22c-.13-7.47,9.11-8.61,14.32-10.7,2-.77,3.82-1.45,5.08-2.73a.81.81,0,0,0,.25-.6l.16-.74a17.84,17.84,0,0,1,3.72-8.32c1.23-1.58,3.87-3,5.06-3.75.62-.72.79-2.13.94-3.67,0-2.11-1-2.79-2.91-4.21-3-2.07-6.11-3.14-9.42-5.78-2.74-1.95-5.06-6.26-4-10a8.64,8.64,0,0,1,9.33-6.87,36.87,36.87,0,0,1,6,1.09c1.82.36,2.51.48,3.19.21a1.34,1.34,0,0,0,.58-1,12.69,12.69,0,0,0-1.08-3.62c-.95-2.32-2.1-5.09-1.44-7.89.85-3.81,5-6.09,8.59-5.6,3.38.3,6.64,2.49,9.29,3.2,0,0-.18.21.13,0s.65-.48.71-1.11c-.09-2.1-1.44-4-2.54-6.2-1.8-3.09-3.14-7.62,1-9.56a12.64,12.64,0,0,0,2.63-1.2c2.55-1.59,2.07-5.32.22-7.48A4.19,4.19,0,0,0,117.24,38l-.22-.56c4.85-1.63,9.1,4.74,7.34,9.05a7,7,0,0,1-4,3.76,2.86,2.86,0,0,0-1.79,1.49c-.47,1.6.72,3.3,1.47,4.71,1.64,3,4.76,6.83,2.53,10.27-2.45,3.79-7.08,1-10.3.12-2.29-.78-5.55-.94-6.3,1.74-.27,2.61,1.67,4.85,2.46,7.34,1.65,3.59.25,8.29-3.7,9.56-3.67,1.14-7.29-.63-10.83-.84a3.57,3.57,0,0,0-2.24.48,3.41,3.41,0,0,0-.8,4.14,6.4,6.4,0,0,0,1.66,1.8c2.76,2.08,6.16,3.49,9.13,5.65,5.46,3.65,6.45,9,3.76,14.86-.82,1.73-2.65,2.8-4.24,3.62-2.36,1.23-3.59,3.66-4.26,6.14-.26.86-.4,1.78-.67,2.64-2.92,6.88-13.37,6.09-19,9.53a3.06,3.06,0,0,0-1.65,3,6.4,6.4,0,0,1-1.22,4.05A3.75,3.75,0,0,1,71.8,142a58.2,58.2,0,0,0-9.64,2.36c-2.82,1.12-6.58,2.37-7.53,5.51L54,149.7Z"/>
    <path class="cls-1" d="M97.91,48.66C93.22,50.57,85.78,54.31,88,60.31c2.53,5.88,5.27,14.49-.74,19.34a10.64,10.64,0,0,1-6.49,1.89,26.31,26.31,0,0,0-10.79,3,9.08,9.08,0,0,0-4.44,6.4c0,1.44.92,2.42,2.15,3.71,3.61,3.42,10.14,7.52,8,13.71C73,115.08,65,115.66,59.49,118.28a6.89,6.89,0,0,0-2.2,1.44,2.56,2.56,0,0,0,.23,1.36c4,8.33,10.75,24.94-1.88,29l-.25-.54c9.49-4.63,3.59-16.68-.08-23.52-7.08-10.25,2.45-12.2,10.2-15.56,15.93-7-12.24-9.57-4.66-24.41,2.68-5.94,9.47-8.42,15.55-8.68,2.84-.36,6.14.79,8.64-.86s2.56-5.12,2.32-7.85c-.57-6.94-5.27-11.38,2-16.84a24.63,24.63,0,0,1,8.37-3.69l.14.58Z"/>
    <path class="cls-1" d="M91.83,43.76c-1.13,3.21-1.7,7.73,1.39,9.9,2.81,1.62,5.93,3.64,5.9,7.45C99,64.5,96,66.87,93.74,68.41a2.68,2.68,0,0,0-1.3,1.66c-.25.81.71,2.58,1.48,2.61C104.19,76,109.26,85.49,105.1,95.75c-1.76,4.28-6.36,6.65-10,7.79-2.19.8-4,1.34-5.43,2.68a6.34,6.34,0,0,0-1.33,2.57c-.76,3.43-1.39,6.51-4.34,9.34-2,2-4.91,2.72-7.18,3.58-1,1.09-1,3.05-1.22,4.53-.42,11.6-21.32,3.58-21,23.47l-.59.1a18.16,18.16,0,0,1,.41-8.87c1.9-6,8.09-8.77,13.38-11,1.35-.71,3.43-1.4,3.63-3.08v-1.09c0-2.94.34-6.57,3.1-8.33,1.82-1.17,4.22-1.52,5.68-3.06a8.16,8.16,0,0,0,1.92-3.6c.37-1.36.51-3,.93-4.32a11,11,0,0,1,5.84-6.82c3.62-2,8.8-2.24,10.77-6.32a12.67,12.67,0,0,0,.6-8.21c-1.12-3.75-4.66-6.28-8.14-7.84a7,7,0,0,1-3.56-9c1.44-3.53,6.66-3.68,7.47-7.49.13-2.11-1.76-3.67-3.27-5-2.64-1.67-3.64-5.16-3-8.11a15.36,15.36,0,0,1,1.47-4.24l.53.29Z"/>
    <path class="cls-1" d="M79.82,87.25c-2.54-1-4.09-.11-4.73,2.5-1,3.37-.75,7.74-3.68,10.51-3.37,2.88-8.06,1.07-11.56-.45a3.52,3.52,0,0,1-.7-.38c-1.53-1-4.36-4.2-6-2.49-.44.44-1.87,2.15-1.51,3,.29.6,1.37,1.94,2,3.1a6.77,6.77,0,0,1-.14,6.65,9.52,9.52,0,0,1-4,3.57c-2.57,1.14-4.23,1-6,1.45-.14.06.17.09.63-.24a2.65,2.65,0,0,0,.76-.89c0-.1,0,.08,0,.34,0,.5,0,.15,0,.06s-.09-.22-.05-.18c3.8,3.2,11.13,4.46,12.09,10.64.87,8.43-8.15,7-6,19.65.41,1.91.93,4.39,2.26,5.85l.27.53a1.29,1.29,0,0,1-1.14-.15,7.87,7.87,0,0,1-2-1.9c-4.63-5.7-5.37-14.63-.35-20.34,1.91-2,1.72-3.45-.75-4.9-3.07-1.91-6.68-2.78-9.12-5.83-1.54-2-1.49-5.57.45-7.35,2.82-2,7.71.25,9.16-3.57.18-.89-.53-1.92-1.12-2.94a7,7,0,0,1-1.18-3.58,8,8,0,0,1,4.1-6.09c2.35-1.43,5.21,0,6.88,1.76.84.7,1.53,2,2.42,2.45,4,2.11,9.66,3.89,11.52-1.75,1.58-3.79,1.33-12.45,7.78-9.58l-.23.55Z"/>
    <path class="cls-1" d="M122.46,132c-3.9,3-10.11,6.79-15.19,5-3.33-1.32-5.68-3.73-8.58-5.16a8.51,8.51,0,0,0-8,.24c-1.36.77-2.18,2.15-3.18,3.64-5.44,7.8-14.4.69-17.39,4.46A10.15,10.15,0,0,0,69,142.7a15.85,15.85,0,0,1-3.73,6.11c-2.59,2.77-7.18,3.63-10.4,1.43l-.26-.16c-.06-.06-.19,0-.08-.14l-.35-.36a.8.8,0,0,1,.53-.2c.71-.1,1.53-.13,2.22-.26,7.54-1.24,5.5-12.11,12.41-14.42,4.57-1.61,8.85,1.43,13.08,1.46,3.69.2,4.82-3.21,7.18-5.55,2.07-2.07,4.77-3.82,7.87-3.56,2.93.14,5.67,2,7.7,3.64,2.45,2,4.4,3.89,7.54,3.24a46.1,46.1,0,0,0,9.52-2.35l.25.43Z"/>
  </g>
</svg>
