<svg id="Layer_1" data-name="Layer 1" xmlns="http://www.w3.org/2000/svg" width="281.48" height="296.47" viewBox="0 0 281.48 296.47">
  <defs>
    <style>
      .cls-1 {
        fill: #8c2c2c;
      }

      .cls-2 {
        fill: #2f9c06;
      }

      .cls-3 {
        fill: #8cad06;
      }

      .cls-4 {
        fill: #9c6006;
      }

      .cls-5 {
        fill: #84766d;
      }

      .cls-6 {
        fill: #93908c;
      }
    </style>
  </defs>
  <g>
    <path class="cls-1" d="M205.2,199.55a4.63,4.63,0,0,0-3.52.52c-4.63,2-6.49-.6-10.22-4.15a7.55,7.55,0,0,0-7.36-2.16c-6.51,1.74-6.79,10.15-11,15.05-5.88,6.28-15.11-4-21.58-3.17s-7.94,11.65-10.22,17.13c-1.89,4.54-6.91,6.47-10.21,9.12-3.65,2.81-5.93,6.59-7.68,11.48-.68,2.55-.73,5.42-1.71,7.82-.45.59-2.62,3-3.4,4.21a2.09,2.09,0,0,0-.63,1.62c.24,1.7,6.89-3.89,7.34-4.57,2-3,1.17-7,2.91-10.13,2.31-4.12,7.43-4,10.78-6.13a19.1,19.1,0,0,0,6.65-8c2-4.05,1.33-8.55,3-12.73,4.78-11.89,19.94,2.75,27.56-4.09,3.24-2.65,5.32-7.12,8.78-9.41,3.85-2.56,6.23.65,9.17,3.49s4.23,0,6.89-1.76c1-.65,2.42-1.39,3.44-.7l.1.07a1.89,1.89,0,0,1,.12,2.93c1.48.5,2.24-.86,2.41-2.63S206.58,200.09,205.2,199.55Z"/>
    <g>
      <path class="cls-1" d="M169.81,108.67a12.92,12.92,0,0,0-.37-13.47c-2.48-3.4-6.43-3.45-9.63-5.09-6.41-3.29-.73-5.68-1.1-10.89-.34-4.77-7.45-2.94-7-7.77.44-4.55,8-3.13,10.26-5.58,6.19-6.81-5.23-13.24-6.92-17.61a4.07,4.07,0,0,1-.06-3.07c.26-.59.78-1.15,1.33-1.12.24,0,1,.64,1,1,0-.36,0-.71,0-1.07-.05-1.54-.45-2.74-1.76-3a3.74,3.74,0,0,0-3.37,1.89c-4.62,6.93,6.38,10.62,6.82,16.47.63,8.34-11.62,4-10.91,12.57.27,3.1,2.4,3.55,4,4.91,4.62,3.86-2,7.13,0,13.61,2.25,7.38,8.83,4.62,12.43,9.64a7.43,7.43,0,0,1,1,1.76c1.78,4-2.57,7.35-4.46,9.91-2.64,3.59-4.51,8.32-3.73,13.26,1.3,7.68,10.13,11.52,8.17,20.22-1.73,8-10.51,5.54-15.38,6.42-5.84,1.06-10.85,5.08-13.33,12.13-2.11,6.64-.94,15.17-3.78,21.28-1.1,1.83-2.85,2.38-4.58,3.23-3.42,1.77-7.09,4.43-8.16,9.38a20.35,20.35,0,0,0-.66,6.6c.18,2.89,2,8,1.24,10.47-1.68,6.18-5.6,10.16-5.39,17.24.19,6,2.22,11.77,3.07,17.66.23,1.65.5,8.23,2,7.93.59-.11.59-6,.67-7,.47-6.29-.38-12.53.09-18.82,0-4.66,5.59-9.26,7-14.08,1.68-5.63-3.23-18.37,2.47-21.09,3.13-1.5,7.26-1.71,9.79-4.87,5-6.17,1.19-17.59,4.37-24.85,5.14-11.76,22.44-3,24.49-19.54A18,18,0,0,0,165,132.53c-2.52-2.94-5.63-6.22-4.9-11.08C161,115,166.88,113.24,169.81,108.67Z"/>
      <path class="cls-1" d="M130.87,167.53c-6-1.94-13.83-7.57-8.93-16.9,1.76-3.35,4.92-4.78,6.33-8.7,2.29-6.38-1.25-12-3.72-16.9-1.45-2.86-2-4.54-.59-7.57,1.11-2.43,2.2-4.76,2-7.73-.33-4-4.15-4.8-5.16-8.15-1.41-4.68,4.47-6.7,5-11.1.4-3.62-1.94-5.84-4-5.58-1.43.19-2.71,1.6-2.78,4.63,2-2.2,5.22-2.52,3.3,1.45-1.2,2.47-3.44,4-4.58,6.43a8.54,8.54,0,0,0-.32,7.07c.84,2.09,2.88,2.93,3.58,4.82.84,2.29-.66,4.38-1.63,6.12-2,3.6-2,7.06-.6,10.88,1.12,3.14,3.81,5.5,4.2,9a16.21,16.21,0,0,1-1.84,9.51c-2,4.14-4.17,8.21-3.46,13.28.87,6.26,5.27,9.68,9.48,12s8.89,4.56,13.29,6.8c3.64,1.84,7,6.17,3.83,11.23-2.1,3.32-6.27,4.53-9,7.08s-5.08,6.1-4.82,10.81c.23,4.13,3.43,6.9,5,10.1,2.52,5,.26,8.11-3.26,11a40.5,40.5,0,0,0-8.77,8.94,25.18,25.18,0,0,0-4.19,13.13c-.07,1.24-.73,8.22.21,8.45s2.36-6.46,2.73-7.69a19.63,19.63,0,0,1,5.6-9.43c6.51-5.93,21.74-10.39,16.85-25-1.44-4.32-6.15-8.1-4.44-13.43s7.75-6,10.37-10.7c2.53-4.48,1.39-10.43-1-14.49C144.86,170.1,137.32,169.62,130.87,167.53Z"/>
      <path class="cls-1" d="M109.24,139.68a5.58,5.58,0,0,1-2.19-7c1.24-2.7,3.79-3.34,4.63-6.48,1-3.63-.29-7.24-1.68-10.31s-6.4-11.77-.89-13.12c-2.19-1.72-3.56-1.15-4.3.43a12.41,12.41,0,0,0-.62,6.07c.56,5.18,6,11.13,3.29,16.58-2.32,4.7-8.4,6.65-5.82,13.53,1.73,4.6,6.75,6.46,10.09,8.38,3,1.7,10,5.67,2.89,8.5a8,8,0,0,0-4.59,7c.44,4.68,5.28,7.82,5,13-.26,4.46-3.73,4.87-6.6,4.82-4.22-.08-9.59.73-11.64,6.45-1.86,5.15-.2,10.71,2.29,14.89,2.84,4.77,4.92,5.82,1.46,11.26-3.09,4.87-5.35,9.2-3.63,15.56a17.07,17.07,0,0,0,7.86,10.37c2.89,1.82,7.55,2.74,9.82,5.73,2.43,3.2.44,7.92,1.82,11.52a25.84,25.84,0,0,0,1.42-9.4c-.17-8.58-5.51-10.28-10.25-13.8-5.1-3.77-4.64-11-1.66-16.78,2.66-5.14,2.36-10,.33-15.2-1.42-3.65-5.2-9.44-2.07-13.35,4-4.94,14.24.82,16-8.06,1.43-7.24-8.94-14.15-7-19.4,1.12-2.95,5-1.65,6.85-3.37C128.66,149.63,113.39,142.52,109.24,139.68Z"/>
      <path class="cls-1" d="M109.15,246.42c-1-2.47-.18-4.4-.07-7A15.52,15.52,0,0,0,105,228.22c-4-4.28-12.73-4.42-15-11.13-1.88-5.58,3.26-11.51,3.19-17.21-.12-9.49-6.83-13-13.24-9.54-3.11,1.7-8.35,5.93-11.83,4.53-1.8-.28-1.2-2.8-1.19-4.72-.06-5.64-2.56-11.53-7.33-11.37-4.27.15-4,.28-5.59-5-.66-2.13-2-5.09-3.87-5.85-1.61-.66-4.7.94-5.13,2.88,8-.34,3.3,8.69,7.27,14.07,2.17,2.94,5.34.92,7.29,3S60.86,194,62,196.51c5.09,11.62,13.83-2.36,20-4,3.39-.93,6,.24,6.46,5,.39,4.4-2.55,7.2-4.06,10.69a19.88,19.88,0,0,0-.63,14.14c2.89,8.1,8,9.43,14.06,12.55s2.86,8,6.28,13.8a12.52,12.52,0,0,0,2.59,3c1.41,1.18,3.08,1.83,4.43,3.12.37.35,1.58,2.81,1.74,2.83,2.22.27-.21-5.7-.76-6.6C111.17,249.54,109.74,247.91,109.15,246.42Z"/>
      <path class="cls-1" d="M119.79,212.33c-1.41-1.72-2.49-2.62-2.4-5.3s1.41-4.5,1.49-7c.34-10.46-7.83-11.86-14.15-13.37-3.28-.73-8.43-1.27-7.35-6.9.63-3.25,2.55-4.33,5.1-5.58s9.66-3,8.11-8.32c-1.26-4.36-6.28-4.59-9.28-4.65-2.48,0-8.68,1.81-10.28-1s1.26-3.9,2.79-4.4c1.88-.62,3.49-1.2,4.4-3.63,1.83-4.89-1.12-9.71-4.51-11.51-1-.54-7.7-2.3-7.72-3.92,0-2.06,2.51-1.94,3.53-2.21-.36-1.61-3.11-1.38-4.1-.45-6,5.56,12.06,8.66,7.49,14.79-1.78,2.38-5.19,2.25-7.14,4.38-2.66,2.91-1.85,8.46.16,11.43,2.95,4.37,8.35,2.37,12.11,1.09,2.53-.85,8.35-3.72,9.95.14,1.46,3.52-4.92,5.36-6.52,5.88C97,173.23,92.41,178.5,94,184.84c1.76,7.22,7.21,7.62,12.12,8.41,2.26.36,5.52,1.92,6.22,5.16.87,4-1.81,7.56-1.53,11.5s4,4.37,5.06,8c1.1,3.89-1.64,4.93-3.68,6.52a19,19,0,0,0-6.23,7.87c-2.47,7.56.24,13.26,3.94,19,.47.73,3.52,6.86,4.06,5.55a17.32,17.32,0,0,0-1.32-5.7c-1.8-5.93-4.44-10.8-1.15-16.65a26.06,26.06,0,0,1,3.92-2.9c3-1.88,6.2-4.08,7.47-8.27C124.38,218.18,122.4,215.51,119.79,212.33Z"/>
    </g>
  </g>
  <g>
    <path class="cls-2" d="M207.36,241.39a4.17,4.17,0,0,0-2.77-.53c-4.09.14-4.6-2-6.19-5.13a5.65,5.65,0,0,0-4.73-3.16c-5.39-.5-8.35,4.74-13.1,6.78-6.41,2.52-9.85-6.23-14.91-7.28s-9.69,5.4-13.17,8.29c-2.89,2.4-7.23,2.39-10.55,3.25A21.06,21.06,0,0,0,132.5,249c-1.34,1.45-2.32,3.24-3.84,4.52-.52.26-2.9,1.24-3.89,1.81-.47.25-.84.43-1,.87-.39,1.13,6.37-.76,6.93-1.08,2.43-1.39,3.16-4.14,5.47-5.67,3.06-2,6.81-.72,10-1.23a17.49,17.49,0,0,0,7.55-3.43c2.81-2.07,3.79-5.07,6.41-7.3,7.43-6.32,13.84,6.63,21.72,4.18,3.26-.87,6.26-3.18,9.57-3.78,3.68-.66,4.4,1.94,5.64,4.46s3.11,1.05,5.67.57c.91-.17,2.24-.28,2.77.41a.18.18,0,0,1,0,.07,1.25,1.25,0,0,1-.87,1.87c.93.68,1.93,0,2.64-1.06S208.21,242.07,207.36,241.39Z"/>
    <g>
      <path class="cls-3" d="M211,175.41c3.1-1.83,4.88-5.73,4.14-8.59s-3.61-3.75-5.44-5.58c-3.66-3.64,1.32-3.75,2.76-7.13,1.31-3.09-4.55-3.69-2.62-6.62,1.82-2.76,7,0,9.42-1,6.81-2.79.47-9.64.66-12.81a2.64,2.64,0,0,1,1-1.95,1.5,1.5,0,0,1,1.34-.38c.18.07.55.65.42.87.13-.22.24-.44.35-.67.47-1,.57-1.84-.32-2.3a3.57,3.57,0,0,0-3.12.36c-5.69,3.24,1.24,8.27-.36,12.06-2.27,5.42-9.92-.29-12.18,5.25-.83,2,.6,2.83,1.35,4.08,2.15,3.57-3.83,4-4.5,8.58-.75,5.2,5,5.08,6,9.13a3.73,3.73,0,0,1,.19,1.36c0,2.94-4.31,4-6.54,5.16-3.14,1.61-6.07,4.14-7.12,7.44-1.56,5.17,3.71,9.75-.59,14.76-3.91,4.62-9.59.91-13.48.28a16.24,16.24,0,0,0-13.83,4.38c-3.74,3.67-5.67,9.33-9.79,12.49-1.4.88-2.88.8-4.44.92-3.11.27-6.69,1.05-9.11,3.91a14.21,14.21,0,0,0-2.65,4c-.82,1.87-1.14,5.57-2.52,6.91-3.27,3.48-7.48,5-9.64,9.54-1.85,3.87-2.22,8-3.53,11.9-.37,1.09-2.33,5.31-1.1,5.5.48.07,2.4-3.63,2.8-4.26,2.41-3.85,3.83-8,6.24-11.84,1.54-2.95,7.17-4.48,9.82-7.16,3.09-3.14,3.64-12.38,8.75-12.7,2.81-.17,5.92.7,8.83-.66,5.69-2.68,6.66-10.81,11.39-14.61,7.66-6.15,17.58,3.59,24.52-6.31a10.63,10.63,0,0,0,1.49-10.47c-.89-2.47-2.12-5.3,0-8.18C202.47,177.25,207.36,177.57,211,175.41Z"/>
      <path class="cls-2" d="M162.93,203c-3.77-2.68-7.74-8.16-1.06-12.84,2.4-1.68,5.2-1.81,7.53-3.94,3.79-3.46,3-7.89,2.8-11.57-.14-2.16,0-3.35,2.05-4.92,1.62-1.26,3.19-2.46,4-4.39,1.05-2.59-1.49-4.05-1.14-6.41.49-3.3,5.5-3.13,7.3-5.78,1.48-2.19.48-4.17-1.1-4.5-1.12-.23-2.53.35-3.58,2.24,2.23-.89,4.69-.31,2,1.72-1.7,1.27-3.85,1.67-5.5,2.93a5.83,5.83,0,0,0-2.56,4.39c-.06,1.52,1.17,2.55,1.07,3.91-.13,1.65-1.93,2.6-3.21,3.46a8.41,8.41,0,0,0-4,6.71c-.2,2.26,1,4.41.15,6.72a11.84,11.84,0,0,1-4.48,5.54c-2.82,2.13-5.78,4.16-6.92,7.53-1.41,4.16.72,7.4,3.07,9.9s5.07,5.06,7.59,7.55c2.08,2.05,3.17,5.61-.86,8-2.64,1.58-6.12,1.32-9,2.26s-5.76,2.6-7.11,5.64c-1.18,2.66.27,5.19.42,7.6.23,3.75-2.48,5.18-6,6.1a38.61,38.61,0,0,0-9.42,3.49,19.54,19.54,0,0,0-7.4,7.26c-.46.76-3.24,5-2.62,5.38s3.87-3.5,4.54-4.18a16.81,16.81,0,0,1,7.23-4.57c6.77-2.15,19.49-1.22,20.67-11.64.35-3.08-1.89-6.62,1.12-9.56s7.72-1.92,11.18-4.21a9.69,9.69,0,0,0,4-9.38C172.42,208,167,205.87,162.93,203Z"/>
      <path class="cls-4" d="M156.07,180.11a3.39,3.39,0,0,1,.69-5c1.81-1.4,3.9-1.18,5.55-2.95,1.91-2.05,2.17-4.64,2.14-6.91s-.86-9,3.65-8.5c-1.06-1.62-2.26-1.59-3.32-.78a8.66,8.66,0,0,0-2.45,3.67c-1.29,3.41.77,8.49-3,11.27-3.26,2.39-8.4,2.13-8.74,7.11-.24,3.32,2.87,5.72,4.71,7.75,1.64,1.8,5.49,6-.65,6.07a7,7,0,0,0-5.7,3.28c-1.2,3.06,1.34,6.23-.58,9.43-1.65,2.75-4.35,2.16-6.46,1.42-3.09-1.08-7.32-1.89-10.72,1.22a11,11,0,0,0-3.19,9.95c.53,3.7,1.72,4.88-2.62,7.46-3.88,2.31-7,4.49-7.79,8.92A9.84,9.84,0,0,0,120,242c1.54,1.85,4.68,3.58,5.38,6,.75,2.62-2.28,5.1-2.44,7.71a18.45,18.45,0,0,0,4.14-5.58c2.68-5.45-.7-7.83-3.06-11.21-2.52-3.64.19-8.08,4.29-11a11.59,11.59,0,0,0,5.23-9.51c.15-2.65-.74-7.23,2.85-8.93,4.54-2.14,10.26,4,14.47-1.16,3.44-4.21-2-11.11,1.23-13.93,1.8-1.59,4.22.18,6.17-.45C167.17,191.14,158.21,182.91,156.07,180.11Z"/>
      <path class="cls-2" d="M121,247.4c.08-1.81,1.31-2.82,2.25-4.46a9,9,0,0,0,.62-8.05c-1.55-3.68-8-5.91-7.43-10.7.45-4,6.19-6.45,8-10.06,3-6-.77-9.9-6.66-9.27-2.85.31-8.12,1.69-10.22-.05-1.24-.61,0-2.06.66-3.26,1.81-3.57,1.89-7.9-1.68-9-3.21-1-3-.79-2.51-4.5.21-1.5.18-3.7-.94-4.63s-3.78-.57-4.74.55c6,1.74-.41,6.29.76,10.66.64,2.38,3.65,1.89,4.41,3.65s-1,4.19-1,6c0,8.57,11,1.9,16.12,2.35,2.8.25,4.38,1.64,3.12,4.75-1.15,2.87-4.24,3.91-6.51,5.74a13.43,13.43,0,0,0-5.1,8.77c-.52,5.82,2.8,7.9,6.27,11.36s-.52,5.77.12,10.24a7.33,7.33,0,0,0,.93,2.52c.66,1.09,1.68,1.91,2.26,3,.16.31.24,2.16.36,2.21,1.54.72,1.71-3.65,1.6-4.34A19.86,19.86,0,0,1,121,247.4Z"/>
      <path class="cls-2" d="M140,228.51c-.48-1.43-1-2.27,0-3.93s2.52-2.5,3.41-4.08c3.68-6.51-1.9-9.4-6.07-11.9-2.19-1.27-5.82-2.87-3.17-6.16,1.52-1.89,3.31-2.1,5.6-2.26s8.11.5,8.73-3.26c.49-3.06-3.14-4.43-5.34-5.21-1.82-.63-7-1-7.28-3.14s2.21-2.14,3.51-2.08c1.59.07,3,.1,4.44-1.21a5.72,5.72,0,0,0,.45-8.36c-.58-.59-4.94-3.35-4.42-4.37.66-1.31,2.48-.61,3.33-.53.26-1.1-1.85-1.63-2.89-1.29-6.25,2,6.08,8.42.69,11.16-2.1,1.07-4.58.15-6.72,1-2.92,1.19-4.14,4.89-3.63,7.25.74,3.48,5.39,3.54,8.59,3.66,2.15.08,7.4-.3,7.31,2.53-.08,2.58-5.39,2.17-6.74,2.11-3.78-.19-8.9,2-9.85,6.38-1.07,5,2.83,6.58,6.2,8.28,1.55.78,3.45,2.57,2.91,4.78-.68,2.75-3.82,4.32-4.91,6.88s1.54,3.74,1.12,6.28c-.46,2.72-2.83,2.71-4.86,3.21a17.13,17.13,0,0,0-7.19,3.43c-4.31,4.16-4.17,8.42-3.33,13,.11.57.36,5.18,1.18,4.49a10.25,10.25,0,0,0,.9-3.92c.62-4.18.26-7.89,4.61-10.78a25.27,25.27,0,0,1,3.85-.87c2.82-.45,5.93-1,8.24-3.38C141.5,233.33,140.92,231.15,140,228.51Z"/>
    </g>
  </g>
  <g>
    <path class="cls-5" d="M124.87,242.87c-9.61-6.46-23-8.73-34.26-6.36a36.66,36.66,0,0,0-5.94,1.74C70.52,243.78,70,256,89,262.29c8.32,2.76,31.34,4.42,39.2,1.09C137.93,259.26,132.63,248.08,124.87,242.87Z"/>
    <path class="cls-6" d="M124.87,242.87c-9.61-6.46-23-8.73-34.26-6.36a36.66,36.66,0,0,0-5.94,1.74C77.6,241,73.94,245.44,74.42,250a37.11,37.11,0,0,0,7.93,3.63c8.32,2.75,31.34,4.42,39.2,1.08,5.29-2.25,6.11-6.6,4.51-10.94C125.67,243.43,125.27,243.14,124.87,242.87Z"/>
  </g>
</svg>
