<svg id="Layer_1" data-name="Layer 1" xmlns="http://www.w3.org/2000/svg" width="281.48" height="296.47" viewBox="0 0 281.48 296.47">
  <defs>
    <style>
      .cls-1 {
        fill: #8c2c2c;
      }

      .cls-2 {
        fill: #4f1313;
      }

      .cls-3 {
        fill: #423628;
      }

      .cls-4 {
        fill: #564837;
      }
    </style>
  </defs>
  <path class="cls-1" d="M227.2,240.27c-3.61-.69-8.45.41-11.38,1.78a26.6,26.6,0,0,0-3-.8c-5.32-1-11.4-.49-16.55.41,3-1.84,5.87-4,6.72-7l.13-.46-.51-.23a6.54,6.54,0,0,0-6.46.93,15.45,15.45,0,0,0-5.84,8.08c-2.47.62-4.32,1.2-5.14,1.46-2.73.89-5.37,1.61-8,2.23,1.74-1.61,3-3.38,3.15-5l0-.43-.48-.2a6.57,6.57,0,0,0-.79-.23c-4-.76-8.85,4.07-12.06,7.61a58.74,58.74,0,0,1-15.4-.44c1-.36,2-.73,2.94-1.09s4.73-4.2,4.36-6.07a1.49,1.49,0,0,0-1.3-1.13h-.27c-3.25.5-8.77,4-11.93,6.91q-2.21-.65-4.35-1.47a77.09,77.09,0,0,0,12.09-5.76c4.31-2.39,8.38-4.64,12.79-5.88,2.74-.78,5.64-1.42,8.55-2,4.18,2.6,8.81,5.11,13.43,6a18.46,18.46,0,0,0,3.39.34H192v-.53c.11-3.32-5-5.82-10.32-7.23a123.72,123.72,0,0,0,14.08-3.49l.59.12c3.16.6,22.41,2.94,23-.18a1.79,1.79,0,0,0-.24-1.67,4.36,4.36,0,0,0-2.86-1.39c-3.26-.62-8.77-.22-13.53.32.36-.18.75-.34,1.11-.53,7.51-3.92,9.8-10.62,11.84-16.54.06-.16.11-.31.16-.46,5.47.34,14.8-.33,17.71-2.48a2,2,0,0,0,1-1.87c0-.47-.36-1.3-2-1.61-3-.57-9.35.86-15.51,2.52,2.33-6,5.43-9.94,15.6-9.81a2.76,2.76,0,0,0,1.88-.65,2,2,0,0,0,.7-1.63,2.77,2.77,0,0,0-2.82-2.35,34.67,34.67,0,0,0-5,.26c2.84-3.41,5.5-7.7,6.22-10.86l.12-.52-.61-.19a5.57,5.57,0,0,0-4.95.71c-3.51,2.36-5.18,8.25-5.75,12-7.7,2.74-9.9,9.14-12,15.39-1.49,4.34-3.06,8.78-6.63,12,1.66-5.66,2.79-13.38-3.1-16.72l-.62-.35-.35.53c-1.39,2.14-1,5.31-.57,8.1.1.78.21,1.52.26,2.2s.07,1.3.09,2.07a29.79,29.79,0,0,0,.72,6.57c-6.76,3.4-14.86,5-22.72,6.55l-.25,0-3.33.68c2.35-3.27,4.85-7.56,4.22-9.89a2.34,2.34,0,0,0-1.48-1.6,2.68,2.68,0,0,0-2.63.38c-2.51,1.84-4,8.15-4.62,12.09-1.84.41-3.67.83-5.45,1.34l-.5.17a43.85,43.85,0,0,0,6-10c.72-1.62,1.32-3.26,1.89-4.9,4.55-1,11.08-3.35,12.75-5.63a1.82,1.82,0,0,0,0-2.47,2.54,2.54,0,0,0-1.52-.85c-2.27-.44-5.7,1.43-9.54,4a45.89,45.89,0,0,1,3.15-7.43c1.62-3,3.6-5.82,5.55-8.65,1.36-2,2.73-4,4-6.08,1.27-.27,2.62-.63,3.94-1a45.42,45.42,0,0,1,4.49-1.07,63.87,63.87,0,0,0,11.9-2l.72-.2-.37-.61a6.3,6.3,0,0,0-4.42-2.87c-4-.76-9.39,1-13.74,3.08,3.87-8.7,3.45-17.75,3-26.55,0-.18,0-.36,0-.53,4.88-2.12,11.08-6.1,13.63-9.43l.34-.43-.5-.36a5.92,5.92,0,0,0-2.31-1c-4.14-.79-8.43,3-11.33,6.51a68.13,68.13,0,0,1,.38-10.69,40.8,40.8,0,0,1,11.26-22.51c1.1.29,2.22.53,2.9.66,1.11.21,10.87,2,13.59-.12a1.7,1.7,0,0,0,.7-1.67c-.11-.75-.73-1.74-3-2.17-2.79-.53-7.31-.09-11,.38a38.43,38.43,0,0,1,16.17-8.06,2.14,2.14,0,0,0,1.72-2.82,3.06,3.06,0,0,0-3.41-1.67,45.07,45.07,0,0,0-5.54,1.69c2.2-4.08,3.27-8.32-.35-11.27l-.42-.34-.45.26c-3.47,2-3.31,5.31-3.2,7.71,0,.35,0,.67,0,.92a18.91,18.91,0,0,1-.44,2.21,29.15,29.15,0,0,0-.6,3,44.91,44.91,0,0,0-8.95,6.39c.51-4.79,0-9.9-4.47-13.35l-.46-.35-.45.32c-.35.24-1.4,1-1.07,5.43a41.58,41.58,0,0,0,2.79,11.69,45.52,45.52,0,0,0-10.32,20.42c-1.14-3.66-3-7.1-6.61-9.24l-.51-.3-.39.36c-1,1-1,3,.06,6.17,1.36,4,4.21,9,6.61,11.34-.1,3.65,0,7.28.2,10.83.16,3.39.29,6.72.21,10-2-3.35-5.07-6.2-9.75-6.62l-.62-.06-.09.52c-.51,2.72,2.4,5.1,4.75,7l1.19,1a35.29,35.29,0,0,1,2.4,2.82c.51.64,1,1.27,1.54,1.88a31.26,31.26,0,0,1-4,11.47c-1.37,2.27-2.93,4.53-4.49,6.81-1.79,2.6-3.61,5.29-5.21,8.09.14-5.36-.87-10.86-6.5-13.43l-.72-.33-.24.63c-1,2.55.25,5.9,1.32,8.85.29.8.57,1.57.78,2.27s.41,1.94.61,3.13a28,28,0,0,0,1.43,6c-.52,1.42-1,2.84-1.47,4.23-.75,2.25-1.59,4.79-2.64,7.15a41.08,41.08,0,0,1-4.77,8.21c.15-4-.44-8-1.66-9.83l-.34-.52-.59.25c-4.88,2.08-3.77,9.91-2.7,15.71a49.84,49.84,0,0,1-16.25,8.76,3.63,3.63,0,0,0-.94-.26,40.12,40.12,0,0,0,.1-4.64,38.13,38.13,0,0,1,.14-4.45c5-2.19,12.37-5.74,13.21-10.12l.08-.42-.45-.22a5.33,5.33,0,0,0-1.26-.42c-3.1-.59-6.76,1.64-9.7,4.37a47.38,47.38,0,0,1,3.39-6.36A53.93,53.93,0,0,0,151,191.3c4.34-3.91,9.08-8.66,8.21-14.29l-.09-.57-.66,0c-2.53.07-5.3,3.39-6.72,5.37-.29.4-.59.85-.89,1.32-.29-3.72-.8-7.36-1.33-10.94-.38-2.61-.74-5.17-1-7.72,5.38-3.35,11.26-8.82,10.71-15.12l-.06-.66-.76.08c-3.83.39-6,4-7.67,6.9-.29.49-.55.94-.81,1.34a25.88,25.88,0,0,1-1.81,2.29,42.35,42.35,0,0,1,1.17-12.49,62,62,0,0,1,4.77-11.58l1-2c5.25-1.52,14.23-5.3,15.87-7.24a1.13,1.13,0,0,0,.24-1.43,3.27,3.27,0,0,0-2.24-1.45c-2.93-.56-7.6,2-11.45,4.69a36.12,36.12,0,0,0,2-6.69c1-5.28.43-10.6-.11-15.78-.25-2.43-.49-4.91-.58-7.37a41.83,41.83,0,0,0,5.7-3.06c.72-.44,1.32-.81,1.74-1l.26-.13c3.49-1.78,6.5-3.33,7.45-7.21l.1-.44-.46-.23a7.37,7.37,0,0,0-1.75-.59c-4.72-.9-9.47,3.56-12.86,7.6,1.31-12,10-23.43,20.26-31.23l1.61.33c1.36.26,13.28,2.44,14.47-.39a1.59,1.59,0,0,0-.11-1.55,4.21,4.21,0,0,0-2.79-1.36,40,40,0,0,0-8.59-.23,61.5,61.5,0,0,1,5.38-3,2.06,2.06,0,0,0,.84-3.14,3.17,3.17,0,0,0-3.74-.92,68.3,68.3,0,0,0-17.22,12.16c.64-3.55.57-7.32-.34-9.06l-.28-.53-.62.19c-4.91,1.52-4.38,9.3-4,14.44,0,.23,0,.44,0,.66a48.86,48.86,0,0,0-8.79,15.85c-1.75-5.18-4.2-10.12-8.08-13.6l-.57-.51-.48.54c-2.94,3.29.42,8.32,2.64,11.64l.2.3c.5.73,1.06,1.67,1.66,2.68a49.61,49.61,0,0,0,3.23,5,33.7,33.7,0,0,0-.3,3.5,78.27,78.27,0,0,0,.62,10.87c.49,4.77.91,9.28.25,13.73-2.84-7.72-7.23-12.54-13.16-14.25l-.79-.23-.08.7c-.37,3.12,2.86,6.33,5.46,8.9.58.59,1.15,1.15,1.62,1.65a39.88,39.88,0,0,1,2.51,3.61,43.43,43.43,0,0,0,3.23,4.56,76.17,76.17,0,0,1-4,9.08,83.57,83.57,0,0,0-4.13,9.35,47.23,47.23,0,0,0-3.46-5.38c-.42-.55-6.15-4.53-8.66-5-1.14-.22-1.65.26-1.75.79v.19c.47,2.46,3,4.48,5.31,6.27.88.7,1.73,1.36,2.44,2a24.59,24.59,0,0,1,3.23,3.86c.53.73,1.05,1.42,1.58,2.07a57.39,57.39,0,0,0-.29,18.88l-.24,1,.36-.16c.23,1.8.49,3.59.75,5.37.23,1.59.46,3.2.67,4.81-4.37-5.47-9.51-10.74-15.63-13.26l-.75-.3-.19.66c-1.23,4.07,4,7.79,7.46,10.25l.3.21c.77.54,1.68,1.25,2.66,2a40.32,40.32,0,0,0,6.63,4.55,63.82,63.82,0,0,1,.35,8,48.94,48.94,0,0,1-3.89,17.95c-1.74-6.25-6.26-12-13.32-13.38l-.89-.17.09.77c.3,2.55,2.59,4.82,4.81,7a34,34,0,0,1,2.46,2.59,25,25,0,0,1,3,4.62c.59,1.08,1.16,2.11,1.77,3-.56,1.05-1.16,2.09-1.8,3.11a39.54,39.54,0,0,0-5.4,12.16,19.36,19.36,0,0,0-6.54-7.91l-.64-.44-.38.59c-1.94,3.11.77,7.36,2.74,10.46.28.44.54.85.76,1.22a41.49,41.49,0,0,1,1.77,3.86c.52,1.25,1.06,2.52,1.63,3.67,0,.44-.1.87-.17,1.31-7.45-6.31-11.65-11.8-13.26-20.62a66.56,66.56,0,0,0-1.83-7.75c3.82-4.48,7.93-10.38,5-15.87l-.29-.54-.62.21c-3.47,1.15-4.6,6.21-4.79,7.22a23.36,23.36,0,0,1-1.22,3.59.44.44,0,0,1-.06.16,32.39,32.39,0,0,0-1.56-3,59.25,59.25,0,0,0-4.5-6.34c-.82-1.06-1.63-2.1-2.38-3.14a28.31,28.31,0,0,0,3.06-4.75,23.4,23.4,0,0,1,2-3.31c1.89-2.2,2.44-4.45,3-7.16l.12-.6-.72-.11a5.86,5.86,0,0,0-4.19.87c-3.08,2-4.64,6.86-5.44,11.62-.16-.3-.34-.59-.48-.89-2.36-5-1.71-10.06-1-15.49.57-4.54,1.17-9.25,0-14.1a30,30,0,0,0-1.35-4.08c3-4.62,6.74-10.71,4-16.2l-.23-.46-.55.08a4.37,4.37,0,0,0-3,2.11c-1.56,2.32-2.41,6.15-2.7,9.51A68.39,68.39,0,0,0,87.2,136.94c.08-.21.15-.41.22-.63,1.66-4.55,3.72-10.22,1.18-14.67l-.24-.42-.52.07a4.13,4.13,0,0,0-3.23,2.64c-1.21,2.56-1.28,6.61-.76,9.89-1.39-1.26-2.79-2.49-4.17-3.68a3.15,3.15,0,0,0-3.83-.09,2,2,0,0,0-.74,1.61,2.27,2.27,0,0,0,.86,1.66c2.82,2.41,5.68,5,8.38,7.7-.51-.14-1-.27-1.58-.37-3.14-.6-5.93-.4-7.65.56l-.35.19.07.36c.35,2,3.86,3.1,6.74,3.65a33.17,33.17,0,0,0,7.36.54c3.86,4.57,6.91,9.47,8.18,14.61a27.08,27.08,0,0,1,.33,9.43,1.47,1.47,0,0,0-.1-.13c-.64-.86-1.24-1.64-1.65-2.27l-.17-.27c-2.15-3.2-4.16-6.22-8.92-7.2l-.68-.14-.13.57c-1,4.64,6.32,10.89,11.06,14.37-.62,5.21-1,10.57,1.61,16a30.36,30.36,0,0,0,2.67,4.49A26.17,26.17,0,0,0,95,193.3a11.12,11.12,0,0,0-7.16.74l-.52.26.28.49c1.41,2.52,7.47,3.92,10,4.4a37.32,37.32,0,0,0,6.89.71,48.86,48.86,0,0,1,3.71,5.24,39.87,39.87,0,0,1,4.36,12.14c-2.81-2.61-6.13-4.73-9.08-5.29a7.67,7.67,0,0,0-1.75-.15H101l.11.62c.79,4.57,8.06,9.56,13.54,13.27C117,232.23,121,237.07,127,242.3a36.57,36.57,0,0,1-7.65-.74,71.65,71.65,0,0,1-8.84-2.34q-.84-2.46-1.67-4.92c-1.08-3.25-2.19-6.59-3.4-9.87l-.21-.58-.66.15c-2.4.52-3.6,2.34-3.36,5.1a18.83,18.83,0,0,0,3,7.77c-7.07-3.14-11.25-8.63-15.44-15a27.3,27.3,0,0,0,2.68-13l-.09-.49-.56-.11a3.91,3.91,0,0,0-3.66,1c-1.53,1.51-2,4.39-2,7.25a49.88,49.88,0,0,0-15.38-14.6c.12-3.8-.32-12.07-6.47-13.25a10,10,0,0,0-1.25-.13H61.5l-.07.5c-.4,2.65,1.68,7.19,4,10.58a33.45,33.45,0,0,0-7.18-2.27,24.54,24.54,0,0,0-6.11-.42,19.49,19.49,0,0,0-6.08-2.62,6.53,6.53,0,0,0-5.18.93l-.37.27.21.4c.76,1.51,3.44,2.31,5.22,2.68a14.29,14.29,0,0,0-4.47,3.51,2,2,0,0,0-.42,1.72,2.46,2.46,0,0,0,1.13,1.54,3,3,0,0,0,3.76-.4,9.91,9.91,0,0,1,8-3.45,6,6,0,0,0-2.32,1.26,3.11,3.11,0,0,0-.91,2.82l.06.36.4.15a4.81,4.81,0,0,0,.79.21c3.16.6,7.58-1.24,9.92-3.15A33.68,33.68,0,0,1,65,204.54a38.4,38.4,0,0,1,8.54,6c-4.55-.78-10.2-.51-11.82,2.82l-.24.49.57.27a4.65,4.65,0,0,0,1.22.36,77.56,77.56,0,0,0,14.54.6,93.79,93.79,0,0,1,6.13,8.51c.74,1.11,1.48,2.21,2.24,3.29a20.54,20.54,0,0,0-3-.8c-3.31-.63-6-.19-7.58,1.26l-.37.33.33.4c1.17,1.46,3.19,2.44,6.17,3a54.47,54.47,0,0,0,7.53.69l.64,0a33.5,33.5,0,0,0,13.55,9.84,87.25,87.25,0,0,0,15.05,4.5,39.4,39.4,0,0,0,11.72.68.29.29,0,0,1,.1,0,4.34,4.34,0,0,0,.62.06c.71,0,1.4-.06,2.1-.12a3.31,3.31,0,0,0,.62,0,59,59,0,0,0,15.54,5.35,67.55,67.55,0,0,0,21,.47A65.57,65.57,0,0,0,183,256.87c3.31.63,5.21.36,5.83-.83a1.7,1.7,0,0,0,0-1.74c-.68-1.09-2.69-2-6.13-2.61-1.24-.23-2.59-.42-3.92-.58,2.84-.65,5.71-1.42,8.63-2.38a75.48,75.48,0,0,1,12.25-2.88c2.87,2.56,7.56,6.05,10.66,6.65A3.08,3.08,0,0,0,213,252a1.68,1.68,0,0,0,.61-1.9c-.56-1.67-3.89-3.38-7.34-4.76a28.31,28.31,0,0,1,5.65.43,15.55,15.55,0,0,1,3.78,1.2,8,8,0,0,1,4.51,5.53,3,3,0,0,0,3.22,1.94,2.64,2.64,0,0,0,1.71-.91,2,2,0,0,0,.36-1.73,12.7,12.7,0,0,0-4.16-6.69c3.57.3,7.16.23,10-1.36l.45-.27-.23-.45A5.73,5.73,0,0,0,227.2,240.27Z"/>
  <path class="cls-2" d="M76.63,217.65a18.57,18.57,0,0,1,9.4,1.52,21.55,21.55,0,0,1,2.57-.56,43.29,43.29,0,0,1,13.75.55c-2.45-1.45-4.72-3.14-5.31-5.47l-.09-.36.43-.16a5.76,5.76,0,0,1,5.34.8,11.36,11.36,0,0,1,4.54,6.24c2,.51,3.55,1,4.22,1.19,2.23.72,4.4,1.31,6.54,1.82a6.47,6.47,0,0,1-2.43-3.88l0-.33.41-.14a3.64,3.64,0,0,1,.67-.16c3.36-.53,7.2,3.23,9.73,6a53.83,53.83,0,0,0,12.83-.11c-.84-.3-1.66-.59-2.41-.88s-3.77-3.27-3.39-4.69a1.29,1.29,0,0,1,1.13-.85h.22c2.69.42,7.14,3.15,9.66,5.44,1.24-.3,2.46-.66,3.67-1.06a63.77,63.77,0,0,1-9.82-4.57,52.44,52.44,0,0,0-10.41-4.67c-2.25-.63-4.64-1.16-7-1.65-3.58,1.92-7.53,3.76-11.41,4.37a17.49,17.49,0,0,1-2.83.21l-.52,0v-.4c0-2.54,4.37-4.37,8.87-5.37a108.16,108.16,0,0,1-11.58-2.86l-.49.08c-2.65.42-18.76,1.92-19.13-.47a1.27,1.27,0,0,1,.27-1.27,3.94,3.94,0,0,1,2.43-1c2.74-.43,7.31,0,11.25.44-.3-.14-.61-.27-.91-.42-6.09-3.1-7.74-8.24-9.2-12.78,0-.13-.08-.24-.11-.36-4.57.19-12.3-.47-14.64-2.15a1.47,1.47,0,0,1-.76-1.44c.06-.35.36-1,1.7-1.19,2.5-.4,7.75.78,12.8,2.14-1.7-4.57-4.13-7.66-12.59-7.71a2.37,2.37,0,0,1-1.54-.52,1.42,1.42,0,0,1-.52-1.25,2.37,2.37,0,0,1,2.45-1.76,31.75,31.75,0,0,1,4.11.28c-2.23-2.64-4.27-5.95-4.75-8.38l-.08-.4.51-.13a4.94,4.94,0,0,1,4.09.61c2.83,1.85,4,6.37,4.31,9.23,6.31,2.21,7.88,7.12,9.41,11.91,1.07,3.33,2.2,6.74,5,9.22-1.15-4.34-1.79-10.25,3.24-12.7l.53-.26.27.41c1.08,1.65.59,4.06.16,6.18-.12.59-.24,1.16-.31,1.68s-.1,1-.16,1.57a20.92,20.92,0,0,1-.85,5c5.49,2.7,12.17,4,18.64,5.33l.2,0,2.75.57c-1.82-2.53-3.74-5.84-3.12-7.61a1.92,1.92,0,0,1,1.3-1.19,2.32,2.32,0,0,1,2.17.33c2,1.43,3,6.27,3.36,9.28,1.52.34,3,.69,4.49,1.1l.4.14a32,32,0,0,1-4.63-7.71c-.53-1.25-1-2.51-1.37-3.77-3.75-.83-9.09-2.72-10.39-4.48a1.32,1.32,0,0,1,.11-1.89,2.24,2.24,0,0,1,1.29-.62c1.91-.3,4.69,1.17,7.78,3.19a32.58,32.58,0,0,0-2.33-5.71,73.06,73.06,0,0,0-4.28-6.68c-1-1.51-2.11-3.09-3.1-4.69-1-.22-2.16-.52-3.25-.82a37.38,37.38,0,0,0-3.69-.88,56.92,56.92,0,0,1-9.82-1.68l-.59-.16.33-.46a5.53,5.53,0,0,1,3.79-2.13c3.35-.52,7.78.91,11.31,2.55-2.88-6.69-2.17-13.58-1.49-20.29,0-.13,0-.27,0-.41-4-1.68-9-4.8-11-7.38l-.26-.34.42-.26a5.37,5.37,0,0,1,2-.73c3.48-.54,6.9,2.39,9.17,5.13a47.35,47.35,0,0,0,.11-8.16,29.06,29.06,0,0,0-8.49-17.33c-.92.21-1.86.37-2.44.46-.92.14-9.11,1.36-11.29-.29a1.21,1.21,0,0,1-.52-1.28c.12-.57.67-1.32,2.56-1.61,2.34-.37,6.09,0,9.15.45a31.91,31.91,0,0,0-13.12-6.39c-1.17-.26-1.77-1.24-1.33-2.17a2.72,2.72,0,0,1,2.9-1.23,38.74,38.74,0,0,1,4.54,1.37c-1.66-3.13-2.38-6.39.74-8.58l.37-.26.36.21c2.81,1.58,2.54,4.1,2.35,5.93,0,.26,0,.51-.06.7a13.64,13.64,0,0,0,.27,1.69,19.48,19.48,0,0,1,.39,2.26,35.14,35.14,0,0,1,7.19,5c-.23-3.67.37-7.55,4.25-10.12l.4-.26.36.25c.27.19,1.12.78.67,4.16a30.21,30.21,0,0,1-2.78,8.87,32.27,32.27,0,0,1,7.78,15.72,12.53,12.53,0,0,1,5.86-6.95l.44-.22.31.29q1.22,1.13-.3,4.7a26.21,26.21,0,0,1-5.94,8.55c0,2.79-.31,5.55-.59,8.25s-.51,5.13-.57,7.62a10.89,10.89,0,0,1,8.38-4.91l.51,0,.06.4c.31,2.08-2.2,3.85-4.23,5.27-.38.27-.74.52-1,.74a26.4,26.4,0,0,0-2.1,2.12c-.45.48-.91.95-1.36,1.41a21.78,21.78,0,0,0,2.91,8.8c1.05,1.76,2.25,3.5,3.47,5.26,1.38,2,2.79,4.08,4,6.24.1-4.08,1.15-8.26,5.94-10.14l.61-.24.17.49c.69,1.95-.44,4.49-1.44,6.72-.27.61-.54,1.19-.74,1.72s-.42,1.48-.63,2.38a20.35,20.35,0,0,1-1.43,4.55c.38,1.1.72,2.18,1.06,3.25a56.35,56.35,0,0,0,1.92,5.49,29.52,29.52,0,0,0,3.64,6.34c0-3,.68-6.1,1.76-7.48l.31-.39.48.2c4,1.66,2.75,7.61,1.63,12a41.12,41.12,0,0,0,13.17,6.93,3,3,0,0,1,.79-.19,29.72,29.72,0,0,1,.1-3.54,24.31,24.31,0,0,0,.06-3.4c-4.11-1.74-10.07-4.55-10.59-7.9l-.05-.32.38-.17a4.85,4.85,0,0,1,1.07-.3c2.6-.4,5.56,1.35,7.9,3.47a33.3,33.3,0,0,0-2.57-4.89,37.83,37.83,0,0,1-5.92-20c-3.45-3-7.21-6.74-6.26-11l.09-.43.55,0c2.11.08,4.28,2.66,5.38,4.19.23.31.46.66.69,1,.39-2.83,1-5.6,1.53-8.32.43-2,.82-3.93,1.16-5.87-4.34-2.64-9-6.9-8.32-11.69l.08-.51.63.08c3.17.35,4.8,3.14,6.11,5.37.22.38.42.73.62,1a21.12,21.12,0,0,0,1.42,1.77,29.88,29.88,0,0,0-.48-9.54,43.6,43.6,0,0,0-3.52-8.9l-.72-1.54c-4.3-1.23-11.63-4.24-12.92-5.75-.42-.5-.31-.87-.14-1.09a2.91,2.91,0,0,1,1.92-1.08c2.46-.38,6.24,1.65,9.34,3.75a24.89,24.89,0,0,1-1.42-5.13c-.6-4,.06-8.09.71-12,.3-1.85.6-3.74.77-5.61a36.29,36.29,0,0,1-4.62-2.42c-.58-.35-1.07-.64-1.41-.81l-.21-.11c-2.83-1.41-5.27-2.63-5.91-5.6l-.07-.34.4-.16a5.9,5.9,0,0,1,1.47-.43c4-.62,7.74,2.85,10.4,6-.62-9.16-7.39-18-15.62-24.11l-1.36.23c-1.13.17-11.14,1.67-12-.51a1.12,1.12,0,0,1,.15-1.18,3.72,3.72,0,0,1,2.37-1,35.86,35.86,0,0,1,7.15,0,46.39,46.39,0,0,0-4.35-2.37,1.49,1.49,0,0,1-.58-2.41,2.87,2.87,0,0,1,3.15-.65,54.71,54.71,0,0,1,13.85,9.53c-.4-2.72-.19-5.59.64-6.9l.25-.41.51.16c4,1.22,3.27,7.15,2.78,11.07,0,.18,0,.33-.06.5a34.91,34.91,0,0,1,6.69,12.21c1.66-3.92,3.89-7.65,7.26-10.25l.49-.38.38.42c2.31,2.55-.68,6.34-2.66,8.84l-.17.23c-.45.54-1,1.25-1.49,2a38.8,38.8,0,0,1-2.88,3.73,23.65,23.65,0,0,1,.11,2.67,55.66,55.66,0,0,1-.95,8.29,38.66,38.66,0,0,0-.74,10.46c2.66-5.84,6.51-9.46,11.51-10.67l.66-.17,0,.53c.18,2.39-2.64,4.79-4.9,6.71-.51.45-1,.86-1.41,1.24a31.4,31.4,0,0,0-2.24,2.72,33.35,33.35,0,0,1-2.86,3.42,54.18,54.18,0,0,0,3,7,58.14,58.14,0,0,1,3.06,7.19,36.63,36.63,0,0,1,3.1-4.05c.36-.42,5.29-3.37,7.4-3.7,1-.15,1.36.23,1.42.63v.14c-.5,1.88-2.72,3.38-4.67,4.7-.77.53-1.5,1-2.11,1.53a20.52,20.52,0,0,0-2.84,2.89c-.47.55-.93,1.07-1.4,1.56a40.12,40.12,0,0,1-.5,14.4l.16.81-.3-.14c-.26,1.37-.54,2.74-.83,4.09s-.51,2.44-.75,3.66c3.86-4.11,8.34-8,13.53-9.88l.63-.22.14.5c.86,3.13-3.64,5.89-6.61,7.71l-.26.16c-.66.4-1.44.93-2.29,1.5A34.78,34.78,0,0,1,147,174a45.56,45.56,0,0,0-.6,6.06A34,34,0,0,0,149,193.83a14.87,14.87,0,0,1,11.61-10l.74-.12-.1.58c-.35,1.94-2.35,3.64-4.28,5.28a28.6,28.6,0,0,0-2.15,1.93,20.9,20.9,0,0,0-2.65,3.49c-.53.81-1,1.59-1.59,2.28q.63,1.22,1.38,2.4a28.1,28.1,0,0,1,4,9.35,16,16,0,0,1,5.74-5.94l.56-.32.29.46c1.49,2.39-.93,5.59-2.69,7.93l-.68.92a33.38,33.38,0,0,0-1.63,2.92c-.48.95-1,1.9-1.5,2.77,0,.34.05.67.09,1,6.45-4.7,10.16-8.82,11.85-15.52a47.25,47.25,0,0,1,1.83-5.89c-3-3.47-6.19-8-3.51-12.18l.26-.4.51.17c2.84.93,3.57,4.8,3.69,5.57a17.76,17.76,0,0,0,.87,2.76l0,.12a25.35,25.35,0,0,1,1.42-2.29,48.44,48.44,0,0,1,4-4.77c.73-.8,1.44-1.58,2.1-2.36a20.81,20.81,0,0,1-2.35-3.67,16.48,16.48,0,0,0-1.58-2.55,9.78,9.78,0,0,1-2.17-5.51l-.08-.46.61-.07a5.18,5.18,0,0,1,3.45.72c2.48,1.57,3.59,5.31,4.07,8.94.14-.22.3-.44.43-.67,2.16-3.75,1.82-7.65,1.46-11.8-.3-3.47-.61-7.06.58-10.74a23,23,0,0,1,1.28-3.1c-2.33-3.57-5.18-8.26-2.66-12.41l.2-.34.46.06a3.49,3.49,0,0,1,2.39,1.66c1.21,1.79,1.76,4.72,1.87,7.28a56.44,56.44,0,0,1,10-10.42c0-.16-.1-.31-.16-.48-1.2-3.5-2.69-7.85-.4-11.21l.21-.31.44.06a3.24,3.24,0,0,1,2.58,2.06c.91,2,.8,5.06.24,7.55,1.21-.94,2.42-1.86,3.62-2.74a2.8,2.8,0,0,1,3.19,0,1.42,1.42,0,0,1,.55,1.24,1.81,1.81,0,0,1-.78,1.25c-2.45,1.8-4.92,3.73-7.28,5.75.43-.1.88-.19,1.33-.26a10.74,10.74,0,0,1,6.34.54l.29.15-.07.28c-.38,1.53-3.34,2.3-5.76,2.68a30.65,30.65,0,0,1-6.14.31c-3.39,3.43-6.12,7.12-7.38,11a19.08,19.08,0,0,0-.64,7.18.36.36,0,0,1,.08-.09c.57-.65,1.1-1.24,1.46-1.71l.16-.2c1.91-2.41,3.71-4.68,7.7-5.36l.57-.1.09.44c.67,3.55-5.69,8.2-9.77,10.79.32,4,.41,8.08-2,12.21a23.93,23.93,0,0,1-2.4,3.39,23.54,23.54,0,0,1,5.21-1.55,9.88,9.88,0,0,1,5.92.66l.42.21-.24.37c-1.28,1.9-6.38,2.88-8.5,3.21a35.23,35.23,0,0,1-5.76.44,40.16,40.16,0,0,0-3.29,3.94,30.15,30.15,0,0,0-4.11,9.19,18.11,18.11,0,0,1,7.77-3.9,7.29,7.29,0,0,1,1.45-.09l.61,0-.11.47c-.84,3.47-7.08,7.17-11.79,9.92-2.18,4.91-5.73,8.55-11,12.45a34.22,34.22,0,0,0,6.4-.46,67.39,67.39,0,0,0,7.44-1.65c.53-1.25,1.07-2.49,1.59-3.73,1-2.46,2.07-5,3.21-7.48l.2-.44.54.12a3.15,3.15,0,0,1,2.59,3.94,14.11,14.11,0,0,1-2.84,5.89c6-2.3,9.7-6.42,13.44-11.2a19,19,0,0,1-1.72-10l.1-.38.47-.07a3.37,3.37,0,0,1,3,.8c1.22,1.18,1.51,3.39,1.41,5.57a42.3,42.3,0,0,1,13.37-10.92c.05-2.9.74-9.2,5.9-10a7.2,7.2,0,0,1,1.05-.08h.49l0,.38c.23,2-1.68,5.46-3.74,8a31.49,31.49,0,0,1,6.07-1.63,22.21,22.21,0,0,1,5.09-.23,17.32,17.32,0,0,1,5.17-1.9,5.66,5.66,0,0,1,4.27.78l.3.21-.19.3c-.69,1.14-3,1.71-4.45,2a11.13,11.13,0,0,1,3.58,2.74,1.41,1.41,0,0,1,.28,1.32,2,2,0,0,1-1,1.15,2.64,2.64,0,0,1-3.11-.35,8.32,8.32,0,0,0-6.51-2.75,4.79,4.79,0,0,1,1.88,1,2.17,2.17,0,0,1,.65,2.17l-.06.27-.34.11a6,6,0,0,1-.67.15c-2.65.41-6.26-1.06-8.13-2.55-1.11.37-2,.75-2.63,1a33.61,33.61,0,0,0-7.34,4.41c3.81-.53,8.5-.24,9.71,2.33l.19.37-.49.21a4.81,4.81,0,0,1-1,.25,72.31,72.31,0,0,1-12.13.25,74.07,74.07,0,0,0-5.43,6.4c-.66.83-1.32,1.66-2,2.47a21,21,0,0,1,2.48-.57c2.78-.43,5,0,6.26,1.07l.29.26-.29.3c-1,1.1-2.75,1.82-5.25,2.21a48.46,48.46,0,0,1-6.29.41h-.54a29.09,29.09,0,0,1-11.65,7.3,78.88,78.88,0,0,1-12.7,3.22A35.56,35.56,0,0,1,157,224l-.08,0a4.36,4.36,0,0,1-.51,0c-.6,0-1.17-.06-1.75-.11a3,3,0,0,1-.52,0A53.23,53.23,0,0,1,141,227.83a61.06,61.06,0,0,1-17.51.06A60.62,60.62,0,0,1,112.79,231c-2.78.43-4.35.2-4.82-.72a1.22,1.22,0,0,1,.1-1.32c.62-.83,2.32-1.45,5.21-1.9,1-.17,2.17-.29,3.28-.39-2.33-.54-4.69-1.17-7.09-2a65.74,65.74,0,0,0-10.07-2.36c-2.49,1.9-6.53,4.5-9.13,4.91a2.72,2.72,0,0,1-2.26-.43,1.18,1.18,0,0,1-.42-1.46c.52-1.26,3.36-2.52,6.29-3.52a25.7,25.7,0,0,0-4.72.25,13.94,13.94,0,0,0-3.19.85,6.55,6.55,0,0,0-4,4.16,2.6,2.6,0,0,1-2.75,1.43,2.18,2.18,0,0,1-1.39-.72,1.39,1.39,0,0,1-.24-1.33,10.1,10.1,0,0,1,3.73-5c-3,.18-6,.07-8.23-1.18l-.37-.21.21-.34A5,5,0,0,1,76.63,217.65Z"/>
  <g>
    <path class="cls-3" d="M177.67,207.73C144.4,189.27,99.78,185,63.18,195.11A127.9,127.9,0,0,0,44.05,202C-1.2,222.87.23,261.94,64.4,277.9c28.1,7,104.39,7.09,129.44-5.34C224.79,257.22,204.54,222.64,177.67,207.73Z"/>
    <path class="cls-4" d="M177.67,207.73C144.4,189.27,99.78,185,63.18,195.11A127.9,127.9,0,0,0,44.05,202c-22.61,10.42-33.57,25.4-30.85,39.77a124.11,124.11,0,0,0,27,9.8c28.1,6.95,104.39,7.09,129.45-5.34,16.89-8.38,18.5-22.49,12.13-36C180.44,209.35,179.07,208.51,177.67,207.73Z"/>
  </g>
</svg>
