<svg id="Layer_1" data-name="Layer 1" xmlns="http://www.w3.org/2000/svg" width="378.89" height="399.07" viewBox="0 0 378.89 399.07">
  <defs>
    <style>
      .cls-1 {
        fill: #8c2c2c;
      }

      .cls-2 {
        fill: #4f1313;
      }

      .cls-3 {
        fill: #423628;
      }

      .cls-4 {
        fill: #564837;
      }

      .cls-5 {
        fill: #607718;
      }
    </style>
  </defs>
  <path class="cls-1" d="M309.63,279.41c-4.2.65-9.14,4.52-11.88,7.93a19.68,19.68,0,0,0-3.63.23c-6.18.95-12.68,4.55-18,8.27,2.69-4.13,5.06-8.67,5-13.59l0-.74-.64-.11c-2.48-.4-4.86,1.14-6.77,4.38A30,30,0,0,0,270,300.5c-2.5,2.07-4.34,3.79-5.14,4.56-2.69,2.59-5.34,4.89-8,7,1.36-3.2,2.1-6.4,1.73-8.93l-.1-.67-.59-.06a3.8,3.8,0,0,0-.95,0c-4.66.72-8.32,10.15-10.62,16.91a54.76,54.76,0,0,1-17.07,6.49c1-1,2-2,2.86-3s3.75-8.43,2.7-11a1.61,1.61,0,0,0-1.82-1.07l-.29.12c-3.41,2.25-8.27,10-10.73,15.82a44.37,44.37,0,0,1-5.28-.18c4.19-4.16,7.78-9.19,11.29-14.17,3.92-5.55,7.61-10.78,12-14.68,2.74-2.43,5.71-4.72,8.7-7,5.48,1.94,11.43,3.52,16.81,2.68a16,16,0,0,0,3.83-1.07l.7-.29-.17-.81c-1-5-7.48-6.33-13.82-6a139.84,139.84,0,0,0,14.26-11.72c.22,0,.41,0,.68-.09,3.68-.56,25.62-6,25.2-10.94a3.22,3.22,0,0,0-.84-2.37c-.76-.77-1.94-1-3.61-.74-3.8.59-9.72,3.74-14.76,6.75.34-.43.71-.85,1-1.29,6.9-9.33,7.11-20.35,7.31-30.11,0-.26,0-.51,0-.76,6.12-2,16.14-7.36,18.59-11.91a4.08,4.08,0,0,0,.46-3.24,2.17,2.17,0,0,0-2.71-1.48c-3.47.54-10,5.61-16.17,10.94.52-9.94,2.55-17.31,13.76-21.83a3.48,3.48,0,0,0,1.84-1.84,4.05,4.05,0,0,0,.21-2.74,3,3,0,0,0-3.91-2.2,34.21,34.21,0,0,0-5.35,2.7c1.94-6.4,3.38-14,3.09-19.05l-.05-.83h-.73c-2.2,0-3.89,1.17-5.19,3.35-3.05,5.14-2.86,14.69-2.19,20.51-7.52,7.66-7.73,18.19-7.92,28.48-.14,7.14-.33,14.47-3.16,20.86-.13-9.18-1.54-21.2-9.16-23.42L266,232l-.2.95c-.8,3.83.77,8.34,2.15,12.31.39,1.11.76,2.17,1.05,3.15s.52,1.9.82,3a55.85,55.85,0,0,0,3,9.44c-6.25,8.2-14.59,14.35-22.69,20.29l-.25.18-3.43,2.57c1.45-6,2.73-13.51,1.23-16.69a2.65,2.65,0,0,0-2.18-1.68,2.85,2.85,0,0,0-2.75,1.79c-2.12,3.89-1.64,14-.92,20.11-1.87,1.48-3.74,3-5.52,4.53-.17.16-.32.33-.49.49A89.32,89.32,0,0,0,239,274.8c.22-2.75.31-5.47.38-8.17,4.66-3.59,11-10.13,12.06-14.28.5-2-.19-3.11-.86-3.68a2.31,2.31,0,0,0-2-.56c-2.64.41-5.77,4.77-9.1,10.37a98.23,98.23,0,0,1,.91-12.51c.76-5.13,1.94-10.32,3.12-15.44.81-3.54,1.62-7.22,2.32-10.91,1.31-1,2.66-2.15,4-3.31a51.6,51.6,0,0,1,4.57-3.67,68.58,68.58,0,0,0,12.38-8.46l.72-.64-.61-.73a6,6,0,0,0-5.84-2.22c-4.64.72-10,5.87-14,11,1.25-14.75-2.32-28-5.79-40.92l-.21-.79c4.63-5.41,10.07-14.2,11.73-20.34l.21-.8-.67-.3a5.16,5.16,0,0,0-2.87-.42c-4.82.75-8.24,8.34-10.21,14.95A140.59,140.59,0,0,1,236,146.85a83.77,83.77,0,0,1,4.62-38.71,34.06,34.06,0,0,0,3.42-.37c1.28-.2,12.61-2.07,14.87-6.48a3.4,3.4,0,0,0,.2-2.8c-.38-1.07-1.4-2.25-4-1.85-3.24.5-8,3.26-12,5.68a53.86,53.86,0,0,1,15-19.49,4,4,0,0,0,.92-5,2.91,2.91,0,0,0-4.32-.9,53.91,53.91,0,0,0-5.5,5.08c1-7.07.73-13.88-4.26-16.59l-.58-.31-.41.6c-3.12,4.6-1.81,9.43-.85,13,.13.5.27,1,.36,1.35.13.83.19,2.13.27,3.49.08,1.6.17,3.22.36,4.66a71.56,71.56,0,0,0-7.63,13.65C235.38,94.45,233.09,87.08,227,84l-.62-.31-.39.68c-.29.52-1.19,2.12.7,8.58a72.24,72.24,0,0,0,7.09,16.09,93.3,93.3,0,0,0-4.3,35.16c-2.52-4.92-5.76-9.16-10.45-10.68l-.66-.21-.3.72c-.79,1.91-.05,5,2.19,9.16,2.87,5.31,7.71,11.41,11.16,13.79,1.14,5.49,2.54,10.82,3.94,16,1.34,5,2.64,9.87,3.67,14.77-3.35-4.06-7.7-6.88-13-5.33l-.69.2.07.82c.38,4.28,4.4,6.47,7.63,8.22.61.33,1.18.64,1.65.92a40.65,40.65,0,0,1,3.6,3.08c.78.72,1.57,1.42,2.34,2.09a65.73,65.73,0,0,1-.48,18.93c-.72,4-1.66,8.1-2.59,12.22-1.07,4.69-2.14,9.53-2.94,14.44-1.69-8-4.69-15.75-11.76-17l-.9-.16-.05,1.05c-.16,4.23,2.31,8.65,4.49,12.54.6,1.06,1.17,2.08,1.65,3,.53,1.14,1.11,2.7,1.74,4.37a48.73,48.73,0,0,0,3.64,8.27q-.12,3.53-.16,7c-.05,3.69-.1,7.86-.44,11.86a83.37,83.37,0,0,1-2.42,14.43c-1.19-6-3.23-11.71-5.19-13.86l-.56-.62-.56.65c-4.65,5.36-.74,16.48,2.43,24.61a71.87,71.87,0,0,1-14.82,20.58,3,3,0,0,0-1.12.05c-.37-2.4-.93-4.7-1.49-7s-1-4.46-1.37-6.68c4.78-5.59,11.61-14.27,11-21.18l-.06-.66-.57-.12a4.13,4.13,0,0,0-1.53,0c-3.61.56-6.86,5.56-9.15,11a96.71,96.71,0,0,1,1.54-11,113.13,113.13,0,0,0,.19-42.65c3.41-7.83,7-17.09,4.09-25.06l-.29-.81-.72.34c-2.76,1.26-4.65,7.49-5.53,11.09-.18.74-.36,1.54-.53,2.38-1.6-5.39-3.41-10.57-5.22-15.65-1.31-3.71-2.59-7.35-3.77-11,4.74-7.49,9.32-18.35,6.55-27.46l-.29-1-.8.47c-4.08,2.35-5.18,8.72-6.06,13.83-.15.85-.28,1.66-.42,2.37-.27,1.22-.72,2.7-1.21,4.24a87.12,87.12,0,0,1-3-19.12c-.25-6.34.51-13,1.25-19.44.13-1.12.25-2.27.37-3.41,5.24-4.69,13.81-14.48,14.94-18.14a2.21,2.21,0,0,0-.23-2.23,3.16,3.16,0,0,0-2.95-1.12c-3.42.53-7.66,6.53-11,12.29a77.46,77.46,0,0,0-.08-10.88c-.75-8.32-3.18-16-5.55-23.43-1.11-3.5-2.23-7.07-3.18-10.69a60.08,60.08,0,0,0,5.21-7.21c.64-1,1.17-1.81,1.56-2.33l.24-.32c3.21-4.27,6-8,5.69-14.18l0-.69-.59-.13a5.83,5.83,0,0,0-2.12-.07c-5.49.85-9.17,9.69-11.51,17.26C181.3,73.4,186.9,52.35,195.49,36c.64-.08,1.28-.16,1.88-.26,1.58-.24,15.42-2.52,15.75-7.29a2.92,2.92,0,0,0-.65-2.25c-.7-.75-1.85-1-3.53-.73-2.58.4-6.18,2-9.51,3.65,1.57-2.49,3.21-4.83,4.88-7a4,4,0,0,0-.17-5.06,2.94,2.94,0,0,0-4.42.36A109.06,109.06,0,0,0,185,43.52c-.52-5.57-1.89-11.16-3.49-13.32l-.5-.66-.61.57c-4.87,4.53-1.61,15.86.55,23.35.1.34.18.64.27,1A99.72,99.72,0,0,0,177,82.07c-3.7-6.89-8.09-13.1-13.55-16.47l-.81-.49-.34,1c-2.09,6.27,3.33,12.19,6.91,16.09l.32.37c.8.85,1.74,2,2.74,3.2a62,62,0,0,0,5.26,5.87c.22,1.79.51,3.58.87,5.35a151.41,151.41,0,0,0,4.43,15.88c2.18,6.86,4.19,13.38,5,20.31-5.77-10.17-12.25-15.3-19.35-15.09l-1,0,.15,1.07c.67,4.82,5.32,8.09,9.06,10.72.85.6,1.66,1.17,2.35,1.7a48.31,48.31,0,0,1,4,4.21,54.07,54.07,0,0,0,5.12,5.28c-.09,5-.64,10.05-1.24,15.35s-1.19,10.46-1.31,15.82a63,63,0,0,0-5.66-6.39c-.64-.63-8.31-3.9-11.24-3.44a1.77,1.77,0,0,0-1.64,2l.06.28c1.37,3.45,4.89,5.25,8,6.86a37.93,37.93,0,0,1,3.39,1.9,29.28,29.28,0,0,1,4.87,4.24c.84.84,1.64,1.63,2.45,2.35.75,10.24,3.24,19.44,6.18,28.22l.1,1.68.34-.41c.87,2.57,1.77,5.12,2.66,7.65.81,2.25,1.62,4.54,2.4,6.84-6.69-6.12-14.15-11.56-21.73-12.47l-.92-.11v1.07c.06,6.63,7.07,9.74,11.71,11.79l.42.18c1,.44,2.27,1.08,3.61,1.77,3,1.52,6.19,3.18,8.85,3.69,1.19,3.79,2.27,7.67,3.12,11.67a103,103,0,0,1,1.91,28.52c-4.07-8.5-11-15-19.24-13.73l-1,.16.36,1.1c1.2,3.66,4.5,6,7.7,8.2a37.34,37.34,0,0,1,3.59,2.71,33.45,33.45,0,0,1,4.85,5.5c1,1.32,2,2.6,3,3.68q-.39,2.75-.91,5.47a81.55,81.55,0,0,0-1.74,20.58c-2.72-4-6-7.16-9.9-8.73l-.87-.35-.2,1.05c-1.06,5.52,3.37,10.59,6.6,14.29.46.52.89,1,1.26,1.46,1,1.29,2.1,3.06,3.27,4.93,1,1.62,2,3.25,3.05,4.69.12.68.19,1.35.27,2-10.36-5.92-16.86-12.14-21.66-24.51A115.76,115.76,0,0,0,178.26,288c2.65-8.44,5.14-19.12,0-25.91l-.51-.66-.61.59c-3.41,3.32-2.91,11.37-2.77,13a49.2,49.2,0,0,1-.1,5.9c0,.1,0,.18,0,.27-.87-1.3-1.77-2.57-2.77-3.79a75.32,75.32,0,0,0-7.12-7.34c-1.27-1.2-2.51-2.37-3.69-3.58A55.27,55.27,0,0,0,162.4,258a47.29,47.29,0,0,1,1.12-5.87c1.32-4.15,1.14-7.76.78-12l-.08-.95-.83.17a6.56,6.56,0,0,0-4.31,3.23c-2.68,4.4-2.73,12.37-2,19.81-.28-.37-.57-.72-.84-1.1-4.29-6.29-5.33-14.17-6.44-22.57-.94-7-1.9-14.29-4.89-21a49.47,49.47,0,0,0-2.88-5.45c1.73-8.28,3.71-19.06-1.22-25.94l-.41-.57-.58.36c-1.18.75-2,2.27-2.53,4.53-.92,4.17-.53,10.26.31,15.39a81.35,81.35,0,0,0-17.29-15.37c0-.35,0-.68,0-1,.25-7.54.56-16.93-3.76-22.37l-.41-.52-.55.35c-1.48.94-2.38,2.77-2.64,5.42-.44,4.37.88,10.43,2.58,15.06-2-1.23-3.92-2.41-5.85-3.53a3.11,3.11,0,0,0-4.24,1.64,4.1,4.1,0,0,0-.26,2.74,3.29,3.29,0,0,0,1.52,2.07c3.93,2.28,8,4.8,11.86,7.56-.61,0-1.24.09-1.86.18-3.67.57-6.66,2.17-8.22,4.39l-.32.45.2.51c1.09,2.82,5.31,2.8,8.66,2.28a29.65,29.65,0,0,0,8.27-2.6c5.81,5,10.84,10.88,14,17.94a52.54,52.54,0,0,1,3.6,13.87l-.15-.15c-1-1-1.92-1.86-2.59-2.61l-.28-.31c-3.46-3.76-6.71-7.32-12.28-6.57l-.79.1,0,.91c.47,7.38,10.69,13.26,17.09,16.24,1.11,8,2.55,16.19,7.29,23.12a41.51,41.51,0,0,0,4.49,5.44,22.18,22.18,0,0,0-7.51-.34,11.49,11.49,0,0,0-7.6,4.41l-.48.63.47.6c2.42,3.1,9.55,2.36,12.5,1.91a34,34,0,0,0,7.81-2.14,62.54,62.54,0,0,1,5.88,6.07c3.9,4.79,6.7,10.57,9,16-4-2.57-8.35-4.18-11.79-3.65a7.27,7.27,0,0,0-2,.58l-.8.36.34.88C164,303,173.73,307,181,310c4.78,8.57,10.88,13.91,19.32,18.88a33.09,33.09,0,0,1-8.66,2.46,62.47,62.47,0,0,1-10.51.61c-1.18-2.18-2.37-4.36-3.53-6.55-2.3-4.32-4.67-8.78-7.13-13.1l-.43-.76-.67.52c-2.46,1.9-3.15,5.16-1.93,9.15a29.46,29.46,0,0,0,6,10.15c-8.85-1.4-15.33-7.62-22.11-15.13a57,57,0,0,0-1.54-20.59l-.27-.69-.65.1a4.63,4.63,0,0,0-3.68,3.16c-1.16,3-.71,7.48.26,11.75-6.24-6.36-13.07-11.79-21.92-14.6-1.17-5.71-4.5-17.81-11.66-16.7a7.19,7.19,0,0,0-1.42.39l-.65.26.09.77c.48,4.13,4.33,9.92,8,13.89a28.67,28.67,0,0,0-8.67-.05,21.91,21.91,0,0,0-6.85,2.21,16.76,16.76,0,0,0-7.58-1.07,7.12,7.12,0,0,0-5.36,3.78l-.32.57.36.5c1.36,1.9,4.58,1.84,6.66,1.57a23.76,23.76,0,0,0-3.7,7.3,4.08,4.08,0,0,0,.13,2.74,3.11,3.11,0,0,0,1.77,1.77,3.23,3.23,0,0,0,4-2.34,13.27,13.27,0,0,1,7.57-8.83,8.54,8.54,0,0,0-2.11,2.95,6.3,6.3,0,0,0,0,4.62l.18.51.49,0a4.39,4.39,0,0,0,1-.05c3.67-.57,7.9-5.37,9.81-9.29a30,30,0,0,1,3.89.62,37,37,0,0,1,11.43,4.9c-5.27.95-11.38,4-12,9.69l-.1.83.72.15a4.07,4.07,0,0,0,1.46,0c1.85-.29,11.15-3,16.18-5.85a118.42,118.42,0,0,1,9.66,9.82q1.78,2,3.59,3.86a17,17,0,0,0-3.51.17c-3.86.59-6.66,2.5-7.9,5.39l-.28.66.49.45c1.79,1.62,4.35,2.14,7.82,1.61a48.35,48.35,0,0,0,8.5-2.48l.72-.25c5.22,4.41,11,7.66,18.25,8.34a74.12,74.12,0,0,0,18.08-.28,36,36,0,0,0,13.1-4.43h.13a3.59,3.59,0,0,0,.69-.2c.78-.33,1.52-.74,2.27-1.14a2.85,2.85,0,0,0,.7-.22,50.14,50.14,0,0,0,18.9.74,62.89,62.89,0,0,0,23.26-9.06,55.74,55.74,0,0,0,15.43.45c3.84-.59,5.83-1.88,6.11-3.95a3.19,3.19,0,0,0-.65-2.56c-1.12-1.31-3.62-1.65-7.63-1-1.44.22-3,.56-4.5.94a112.56,112.56,0,0,0,8.66-7.55,86,86,0,0,1,12.46-10c4,2.47,10.38,5.49,14,4.94a3.53,3.53,0,0,0,2.82-2,3.43,3.43,0,0,0,0-3.12c-1.19-2.21-5.43-3.22-9.7-3.68a26.22,26.22,0,0,1,6.36-2,13.05,13.05,0,0,1,4.55,0c3,.62,5.27,2.62,6.86,6.14a2.91,2.91,0,0,0,4.2,1.38,3.72,3.72,0,0,0,1.57-2.14,4,4,0,0,0-.2-2.74,16.94,16.94,0,0,0-6.87-8c4-1.21,7.94-3,10.47-6.65l.41-.6-.41-.56A5.49,5.49,0,0,0,309.63,279.41Z"/>
  <path class="cls-2" d="M109.46,247.56c3.61.83,7.8,4.12,10.09,6.88a21.06,21.06,0,0,1,3.12.47c5.31,1.23,10.84,4.44,15.38,7.65-2.24-3.3-4.2-6.87-4-10.52l0-.55.56,0c2.15-.09,4.17,1.25,5.74,3.82a20.92,20.92,0,0,1,2.84,11.24c2.11,1.75,3.66,3.18,4.34,3.82,2.26,2.15,4.5,4.08,6.74,5.87-1.11-2.5-1.69-4.94-1.32-6.78l.1-.49h.51a4.59,4.59,0,0,1,.82.1c4,.92,7,8.24,8.81,13.46a56.18,56.18,0,0,0,14.58,6.24c-.84-.84-1.66-1.67-2.4-2.47s-3.06-6.58-2.1-8.43a1.3,1.3,0,0,1,1.58-.65l.26.11c2.89,2,6.92,8.11,8.92,12.65a43.65,43.65,0,0,0,4.56.31,90.73,90.73,0,0,1-9.45-11.47c-3.26-4.45-6.34-8.65-10.06-11.91-2.32-2-4.83-4-7.36-5.9-4.77,1-9.92,1.66-14.55.6a16.64,16.64,0,0,1-3.28-1.11l-.59-.28.16-.59c1-3.62,6.57-4.08,12-3.28a133,133,0,0,1-12.05-9.9l-.59-.12c-3.15-.73-22-6.61-21.5-10.23a2.07,2.07,0,0,1,.78-1.7,3.72,3.72,0,0,1,3.12-.24c3.27.75,8.3,3.58,12.59,6.24-.29-.35-.59-.69-.87-1-5.76-7.5-5.72-15.71-5.7-23v-.57c-5.24-2-13.76-6.81-15.78-10.39a2.75,2.75,0,0,1-.33-2.45c.19-.48.76-1.25,2.36-.88,3,.69,8.49,5,13.72,9.48-.25-7.43-1.85-13.08-11.42-17.37a3.1,3.1,0,0,1-1.55-1.52,2.7,2.7,0,0,1-.13-2.06,2.48,2.48,0,0,1,3.42-1.3,33.93,33.93,0,0,1,4.56,2.44c-1.55-4.91-2.64-10.69-2.28-14.41l0-.62.63.07a5.73,5.73,0,0,1,4.41,2.92c2.52,4.07,2.17,11.15,1.47,15.42,6.33,6.32,6.3,14.17,6.26,21.83,0,5.32,0,10.78,2.3,15.77.3-6.82,1.76-15.63,8.37-16.65l.7-.11.15.72c.6,2.91-.84,6.14-2.11,9-.35.79-.7,1.54-1,2.25s-.49,1.36-.77,2.19a34.7,34.7,0,0,1-2.81,6.76c5.22,6.62,12.28,11.88,19.14,17l.22.15c1,.72,1.93,1.47,2.91,2.2-1.14-4.56-2.09-10.27-.73-12.51A2.06,2.06,0,0,1,165,242.6a2.73,2.73,0,0,1,2.34,1.55c1.75,3.07,1.13,10.54.38,15,1.58,1.25,3.17,2.5,4.67,3.82.15.13.27.28.41.41a61.11,61.11,0,0,1-2.4-13.41c-.14-2.06-.16-4.09-.16-6.1-3.94-3.06-9.3-8.45-10.11-11.62a2.13,2.13,0,0,1,2.51-2.92c2.27.52,4.88,4,7.64,8.47a64.07,64.07,0,0,0-.53-9.38c-.55-3.87-1.47-7.83-2.38-11.73-.62-2.7-1.25-5.5-1.78-8.31-1.11-.83-2.25-1.81-3.38-2.78a44.26,44.26,0,0,0-3.86-3.11,66.34,66.34,0,0,1-10.5-7.32l-.61-.53.54-.5a5.4,5.4,0,0,1,5.08-1.16c4,.92,8.48,5.19,11.88,9.31-.79-11.06,2.56-20.62,5.81-29.93l.19-.56c-3.88-4.41-8.39-11.39-9.69-16.09l-.17-.62.58-.17a5,5,0,0,1,2.49-.07c4.13,1,6.93,6.88,8.49,12a86.34,86.34,0,0,0,3.14-11.69A55.79,55.79,0,0,0,172.38,126c-1.12-.16-2.25-.39-2.93-.55-1.11-.26-10.84-2.59-12.69-6a2.25,2.25,0,0,1-.12-2.1c.35-.77,1.25-1.56,3.5-1,2.79.64,6.88,3.09,10.2,5.21a45.88,45.88,0,0,0-12.51-15.73,2.79,2.79,0,0,1-.7-3.79,2.68,2.68,0,0,1,3.74-.31,49.25,49.25,0,0,1,4.64,4.23c-.72-5.34-.34-10.38,4-12l.51-.18.33.48c2.6,3.68,1.37,7.16.48,9.7-.12.36-.25.7-.33,1a25.15,25.15,0,0,0-.32,2.57c-.1,1.18-.21,2.38-.39,3.44a56.62,56.62,0,0,1,6.29,10.78c1.1-5.38,3.21-10.67,8.56-12.42l.54-.18.32.53c.24.42,1,1.69-.77,6.32a45.93,45.93,0,0,1-6.44,11.38,62.13,62.13,0,0,1,3,26.49c2.26-3.45,5.14-6.33,9.21-7.07l.58-.1.24.56c.64,1.48-.05,3.7-2.07,6.62-2.58,3.71-6.87,7.84-9.9,9.33-1.09,4-2.4,7.83-3.71,11.57s-2.48,7.12-3.47,10.68c3-2.74,6.78-4.48,11.31-2.89l.59.21-.08.6c-.41,3.16-3.92,4.45-6.74,5.48-.53.2-1,.38-1.44.55a33.18,33.18,0,0,0-3.17,2c-.68.47-1.37.92-2,1.35a42,42,0,0,0,0,14.11c.54,3.05,1.26,6.17,2,9.3.83,3.58,1.65,7.26,2.24,11,1.62-5.83,4.36-11.31,10.47-11.62l.79,0v.79c.06,3.16-2.16,6.24-4.12,8.95-.53.74-1.05,1.45-1.48,2.11s-1,1.91-1.58,3.1a31.41,31.41,0,0,1-3.31,5.84c0,1.76,0,3.5,0,5.2,0,2.75-.07,5.85.14,8.85a56.84,56.84,0,0,0,1.79,10.93c1.15-4.34,3-8.43,4.76-9.87l.49-.41.47.53c3.9,4.37.3,12.31-2.59,18.09A60.61,60.61,0,0,0,193.07,286a2.65,2.65,0,0,1,1,.13,51.11,51.11,0,0,1,1.43-5.05,45.05,45.05,0,0,0,1.32-4.86c-4-4.55-9.72-11.57-9.07-16.65l.06-.49.49,0a4.23,4.23,0,0,1,1.32.1c3.1.72,5.8,4.71,7.67,8.93a64.91,64.91,0,0,0-1.11-8.32,72.58,72.58,0,0,1,.7-31.72c-2.79-6.1-5.68-13.28-3-19l.27-.57.62.31c2.35,1.17,3.85,5.95,4.54,8.7.14.57.28,1.18.4,1.82,1.49-3.88,3.16-7.58,4.82-11.21,1.21-2.64,2.38-5.24,3.48-7.86-3.94-6-7.67-14.42-5.1-21l.27-.69.68.42c3.46,2.09,4.28,6.91,4.94,10.78.11.65.21,1.26.32,1.8.21.93.56,2.06.95,3.25a54.44,54.44,0,0,0,3-14,84.38,84.38,0,0,0-.7-14.56c-.08-.84-.16-1.7-.24-2.56-4.43-3.92-11.61-11.91-12.51-14.72-.3-.93,0-1.4.24-1.64a2.85,2.85,0,0,1,2.57-.59c2.93.68,6.46,5.49,9.2,10.05a48.31,48.31,0,0,1,.28-8.08c.82-6.12,3.06-11.62,5.25-17,1-2.51,2.07-5.07,3-7.68a51.53,51.53,0,0,1-4.35-5.79c-.52-.78-1-1.44-1.29-1.86l-.2-.26c-2.69-3.44-5-6.41-4.63-11l.05-.51.51,0a5.93,5.93,0,0,1,1.83.13c4.71,1.08,7.71,8,9.57,13.78,2.69-13.48-1.71-29.58-8.79-42.47l-1.61-.34c-1.36-.32-13.24-3.16-13.43-6.74a1.82,1.82,0,0,1,.61-1.61c.61-.5,1.61-.58,3.05-.25a37.58,37.58,0,0,1,8.12,3.5c-1.3-2-2.66-3.85-4.06-5.58a2.62,2.62,0,0,1,.25-3.75,2.86,2.86,0,0,1,3.8.64,86.52,86.52,0,0,1,12.16,20.61c.56-4.1,1.86-8.14,3.28-9.61l.44-.45.51.47c4.11,3.78,1.07,11.92-.93,17.32-.1.24-.18.45-.26.69a67.18,67.18,0,0,1,3.07,20.9c3.33-4.82,7.23-9.07,12-11.12l.7-.3.28.78c1.67,4.83-3.12,8.78-6.29,11.39l-.28.24c-.71.57-1.53,1.33-2.42,2.16a45,45,0,0,1-4.66,3.92c-.22,1.32-.51,2.62-.85,3.91a95.43,95.43,0,0,1-4.14,11.43c-2,4.92-3.88,9.6-4.71,14.68,5.18-7.08,10.87-10.35,17-9.6l.82.09-.15.78c-.68,3.53-4.75,5.57-8,7.21-.74.38-1.45.73-2.05,1.07a35.88,35.88,0,0,0-3.54,2.8,40.64,40.64,0,0,1-4.52,3.5,108.22,108.22,0,0,0,.76,11.51,113.35,113.35,0,0,1,.82,11.87,45.15,45.15,0,0,1,5-4.28c.57-.41,7.24-2.21,9.76-1.63,1.13.26,1.45,1,1.38,1.62l-.06.2c-1.26,2.45-4.32,3.5-7,4.44-1.06.37-2.07.72-3,1.13a22.43,22.43,0,0,0-4.29,2.75c-.73.55-1.44,1.07-2.15,1.54a71.64,71.64,0,0,1-5.89,20.46l-.12,1.24-.29-.33c-.8,1.83-1.62,3.66-2.45,5.46q-1.11,2.41-2.21,4.89c5.89-4,12.43-7.42,19-7.46h.8l0,.8c-.19,4.92-6.3,6.64-10.34,7.78l-.36.1c-.9.25-2,.62-3.15,1a33.65,33.65,0,0,1-7.7,2,78.62,78.62,0,0,0-2.92,8.41,64.8,64.8,0,0,0-2.22,21c3.67-6,9.79-10.23,16.85-8.6l.89.2-.33.79c-1.12,2.62-4,4.06-6.8,5.45a31.44,31.44,0,0,0-3.15,1.71,24.25,24.25,0,0,0-4.29,3.69c-.9.9-1.78,1.77-2.65,2.49.18,1.38.4,2.75.67,4.14a54,54,0,0,1,1.09,15.44,17.5,17.5,0,0,1,8.71-5.66l.75-.19.15.8c.81,4.19-3.12,7.58-6,10.07-.4.35-.78.67-1.11,1a39.79,39.79,0,0,0-2.92,3.39c-.89,1.12-1.81,2.25-2.72,3.23-.12.5-.19,1-.27,1.49,9-3.54,14.77-7.63,19.16-16.42a74,74,0,0,1,4.25-7.55c-2.12-6.5-4.05-14.64.52-19.27l.45-.44.51.49c2.88,2.75,2.28,8.69,2.13,9.86a30.8,30.8,0,0,0,0,4.4v.2a31.56,31.56,0,0,1,2.46-2.59,54.69,54.69,0,0,1,6.29-4.87c1.12-.78,2.21-1.55,3.25-2.35a38.75,38.75,0,0,1-1.31-6.45,30.78,30.78,0,0,0-.85-4.45c-1-3.2-.83-5.86-.43-9l.09-.7.71.19a6.24,6.24,0,0,1,3.65,2.77c2.23,3.49,2.1,9.41,1.3,14.88.25-.25.51-.48.74-.74,3.83-4.33,4.89-10.1,6-16.25.95-5.14,1.93-10.46,4.64-15.16a32.3,32.3,0,0,1,2.59-3.81c-1.32-6.3-2.81-14.47,1.57-19.18l.36-.39.5.32a5.44,5.44,0,0,1,2.09,3.57c.71,3.18.25,7.67-.57,11.41a61.76,61.76,0,0,1,15.21-10c0-.26,0-.51,0-.78-.06-5.62-.14-12.63,3.69-16.31l.36-.35.47.31a5.31,5.31,0,0,1,2.17,4.24c.29,3.29-1,7.68-2.53,11q2.58-1.12,5.12-2.13a3,3,0,0,1,3.62,1.56,2.7,2.7,0,0,1,.16,2.06,2.28,2.28,0,0,1-1.34,1.41c-3.44,1.37-7,2.91-10.38,4.64a15.4,15.4,0,0,1,1.6.29c3.15.73,5.7,2.16,7,3.94l.27.36-.18.36c-1,2-4.64,1.65-7.51,1a30.39,30.39,0,0,1-7.08-2.62c-5.1,3.24-9.56,7.19-12.43,12.17a33,33,0,0,0-3.39,10l.13-.1c.89-.64,1.7-1.22,2.29-1.73l.25-.2c3.05-2.51,5.93-4.89,10.71-3.87l.69.15-.07.67c-.55,5.44-9.48,9-15,10.65-1.12,5.88-2.53,11.82-6.75,16.57a30,30,0,0,1-4,3.68,22.61,22.61,0,0,1,6.48.36,11.26,11.26,0,0,1,6.46,3.92l.4.51-.41.4c-2.15,2.1-8.29,1-10.82.38a34.48,34.48,0,0,1-6.68-2.24,45.27,45.27,0,0,0-5.19,4,42.12,42.12,0,0,0-8.05,11.17c3.48-1.58,7.28-2.42,10.24-1.74a7.43,7.43,0,0,1,1.68.6l.68.34-.3.62c-2.24,4.58-10.68,6.78-17,8.38-4.3,6-9.66,9.43-17,12.43a34.2,34.2,0,0,0,7.42,2.54,63.37,63.37,0,0,0,9,1.34c1.07-1.53,2.13-3.05,3.18-4.58,2.07-3,4.2-6.14,6.41-9.15l.38-.53.57.45c2.08,1.61,2.61,4.09,1.48,6.95a19.5,19.5,0,0,1-5.39,7.05c7.65-.3,13.36-4.39,19.36-9.41a36.08,36.08,0,0,1,1.74-15.17l.24-.5.56.13a4.29,4.29,0,0,1,3.11,2.66c.94,2.3.46,5.62-.46,8.71,5.51-4.21,11.51-7.67,19.19-9,1.12-4.14,4.24-12.86,10.38-11.44a7.55,7.55,0,0,1,1.22.4l.56.25-.1.57c-.5,3-3.93,7-7.2,9.65a29.57,29.57,0,0,1,7.48.68,22.56,22.56,0,0,1,5.85,2.22,16.35,16.35,0,0,1,6.56-.16,6.78,6.78,0,0,1,4.55,3.25l.26.45-.32.34c-1.21,1.3-4,1-5.78.62a18.1,18.1,0,0,1,3.05,5.73,2.63,2.63,0,0,1-.17,2,2.27,2.27,0,0,1-1.56,1.16,3.08,3.08,0,0,1-3.4-2.07,11.51,11.51,0,0,0-6.35-7.19,7,7,0,0,1,1.76,2.36,4.13,4.13,0,0,1-.06,3.44l-.17.37-.43,0a4.81,4.81,0,0,1-.81-.12c-3.16-.73-6.7-4.64-8.27-7.71a27.84,27.84,0,0,0-3.36.13,32.38,32.38,0,0,0-9.95,2.7c4.52,1.14,9.72,3.89,10.15,8.19l.07.63-.62.05a4.16,4.16,0,0,1-1.26-.15,72.73,72.73,0,0,1-13.83-5.7,89.16,89.16,0,0,0-8.53,6.5c-1.05.87-2.1,1.73-3.16,2.57a16.65,16.65,0,0,1,3,.42c3.31.76,5.69,2.41,6.7,4.66l.23.52-.44.29c-1.57,1.05-3.79,1.23-6.77.54a48.18,48.18,0,0,1-7.28-2.54l-.6-.25A28.51,28.51,0,0,1,225,302.94a75.24,75.24,0,0,1-15.57-1.72,36.59,36.59,0,0,1-11.21-4.38h-.11a4.56,4.56,0,0,1-.59-.2c-.67-.32-1.3-.68-1.93-1a3.07,3.07,0,0,1-.6-.22,50.42,50.42,0,0,1-16.31-1,63.7,63.7,0,0,1-19.86-8.67,55.81,55.81,0,0,1-13.31-.95c-3.3-.76-5-1.88-5.19-3.44a2,2,0,0,1,.61-1.85c1-.88,3.16-.93,6.6-.13,1.24.28,2.56.66,3.86,1.07-2.45-1.94-4.89-4-7.31-6.33a81.75,81.75,0,0,0-10.54-8.43c-3.52,1.5-9.06,3.22-12.16,2.5a3.28,3.28,0,0,1-2.4-1.73,2.23,2.23,0,0,1,.06-2.32c1.06-1.55,4.74-1.94,8.43-1.92a26.42,26.42,0,0,0-5.44-2,12.82,12.82,0,0,0-3.93-.35,7.29,7.29,0,0,0-6,4,2.6,2.6,0,0,1-3.65.69,3.17,3.17,0,0,1-1.31-1.73,2.56,2.56,0,0,1,.23-2,12.11,12.11,0,0,1,6.08-5.39c-3.44-1.23-6.79-2.88-8.89-5.81l-.34-.48.37-.38A4.88,4.88,0,0,1,109.46,247.56Z"/>
  <g>
    <path class="cls-3" d="M226.38,295.06c-33.27-18.47-77.89-22.73-114.49-12.62a125.72,125.72,0,0,0-19.13,6.89c-45.25,20.86-43.82,59.93,20.35,75.9,28.1,6.94,104.39,7.08,129.45-5.34C273.5,344.54,253.25,310,226.38,295.06Z"/>
    <path class="cls-4" d="M226.38,295.06c-33.27-18.47-77.89-22.73-114.49-12.62a125.72,125.72,0,0,0-19.13,6.89c-22.61,10.42-33.57,25.4-30.85,39.76a124.61,124.61,0,0,0,27,9.81c28.1,6.94,104.39,7.08,129.45-5.35,16.89-8.38,18.5-22.48,12.13-36C229.15,296.67,227.78,295.83,226.38,295.06Z"/>
  </g>
  <path class="cls-5" d="M315.3,24.28Z"/>
</svg>
