<svg id="Layer_1" data-name="Layer 1" xmlns="http://www.w3.org/2000/svg" width="157.41" height="174.79" viewBox="0 0 157.41 174.79">
  <defs>
    <style>
      .cls-1 {
        fill: #295968;
      }
    </style>
  </defs>
  <g>
    <path class="cls-1" d="M125.84,7.65a33.34,33.34,0,0,0-6.35,2.74c-1.26.78-2.69,1.69-3.16,3-.19,1.15.86,1.82,2,2.6,3.44,1.91,4.37,5.59,1.92,8.75-2.06,2.88-5.5,5.23-7.37,7.64-.64.94-.93,1.39-.75,2l0,.3c.2,1.61.86,2.71,2.44,3.07a11.21,11.21,0,0,0,5.1-.27l.3-.07.6-.11c6.48-1.34,12.12,3.54,11.17,10.23-.71,5.15-4.25,9.08-8.55,11.53-2,1.26-4.77,2.42-6.48,3.77,0,.06.13-.11.18-.22.08-.26,0,.32.08,1.18s.29,1.89.51,2.94c3.87,13.55-.32,22.55-14.7,25.78,0,0-.5.1-.51.12a3.58,3.58,0,0,0,1.91-2.46,2.77,2.77,0,0,0,0-.85c0-.1,0-.06,0,0,1.26,3.3,3.45,7.26,3.47,11.3.28,7.27-5.64,13.84-12.66,15.51a11,11,0,0,1-6.51-.86,27.93,27.93,0,0,1-3.46-2l-.39-.23-.13-.07s.22,0,.37,0,.19-.09.08,0a2.83,2.83,0,0,0-.6.39c-1.35,1.08-2.15,2.45-3.57,3.67a6.84,6.84,0,0,1-8.89.78c-.92-.63-.85-.65-1.36-1-1.26-.4-3.57.4-4.63,1.21-2.79,2.44-.65,6.48-1.5,9.85a3.83,3.83,0,0,1-1.06,1.74,9.57,9.57,0,0,1-1.4,1c-7.47,3.93-3.37,6.81-4.55,13.2a15.12,15.12,0,0,1-3.38,6.62l-.51-.31c6.73-10.26-4.67-14.65,6.57-22.23.44-.33,1.1-.68,1-1,0-2.86-1.11-5.82-.15-8.79,1.21-4.52,7.92-7.56,12.14-5.56,1.11.53,2.06,1.54,2.84,1.37a5.54,5.54,0,0,0,2.38-2c1.52-1.87,3.2-3.95,5.77-4.4,3.75-.49,6.13,3.83,9.82,3a11.83,11.83,0,0,0,7.28-6.4c1.83-4.5-1.32-8.85-2.76-13-.86-2.57.57-4,3-4.35,8.7-1.81,13.25-6.2,11.11-15.44-.66-4.3-3.24-10.8,1.78-13.44,3.92-2.4,8.74-3.76,11.19-7.87,2.83-4.6.64-9.25-5.16-7.81-6.63,1.51-13.37-1.28-12.16-9.06,1.65-4.69,6.86-6.5,9.87-10,1.84-2,1-4-1-5.45C109.61,12,121,8,125.71,7.06l.13.59Z"/>
    <path class="cls-1" d="M53.28,150.2A14.4,14.4,0,0,1,55,140.61c.44-.8.61-1.6,1.09-2.35,2-3.14,6.56-2.8,9.45-1.3l-1.67-.49c-.18,0-.08,0-.1,0s.16-.21,0-.12-.23.22-.29-.08c-.23-.84-.67-1.75-.83-2.68a5.79,5.79,0,0,1,.37-3.69,5.3,5.3,0,0,1,3.18-2.74c1.25-.48,3.28-.38,3.85-.62,0,0-.26,0-.63.27a2.33,2.33,0,0,0-.79,1c0-.28,0-1.3.06-1.61a22.18,22.18,0,0,1,.19-4.41,6.27,6.27,0,0,1,2.82-3.61c.48-.29,1.4-.91,1.85-1.24l.82-.62c.11-.07.15-.18-.14.15a3.34,3.34,0,0,0-.56,1.12,3.82,3.82,0,0,0,.41,3,21.35,21.35,0,0,1-5.66-6.27c-2.36-4.36-2.85-10.68.21-14.53,2.29-3.3,5.22-5,6.69-8.13.19-.71-.24-1.06-.66-1.75A23.11,23.11,0,0,0,68.83,85l.9.46A11.58,11.58,0,0,1,63.09,78,12.29,12.29,0,0,1,70.9,62.76c3-.95,4.86-.3,7.49-1.06a2.12,2.12,0,0,0-1,1.38c0,.32,0,.3,0,.14-.53-4-4-9.81.33-13.2a6.86,6.86,0,0,1,8.26-.29c2,.9,7.86,3.15,8.77-1.68.79-2.87-.74-10.52-4.64-10l-.2-.56a3.32,3.32,0,0,1,3.4,1.06,12.31,12.31,0,0,1,3,9.78c-.83,6-7.37,5.41-11.58,3.55a4.07,4.07,0,0,0-4.77.56c-2.56,2.13,1.43,7.27,1.68,10.16a2.93,2.93,0,0,1-2.3,3.62c-2.16.92-4.78.86-6.83,1.51-5.26,1.81-6,10-.77,12.25,5.34,3.19,12.78,9.22,7.83,15.94-1.89,2.76-4.55,4.74-6.4,7.22s-1.21,6,0,8.62a12.91,12.91,0,0,0,2.91,3.58c.89.89,2.09,1.55,2.58,2.86a1.73,1.73,0,0,1-.37,1.56c-1.32,1.46-3,2.08-4.5,3.14a.61.61,0,0,0-.17.29c-.18,1.08-.14,2.4-.29,3.52a15.66,15.66,0,0,1-.37,2.48A2.68,2.68,0,0,1,71,130.92c-1.29.4-3.49-.28-4.23.82-.49,1.17.56,2.83.48,4.55a3.42,3.42,0,0,1-3.33,3.55h-.1l-.12-.06c-1.76-1.08-4.42-1.95-5.95-.13a26.12,26.12,0,0,0-3.3,6,14.69,14.69,0,0,0-.59,4.53Z"/>
    <path class="cls-1" d="M77.09,48.12a3.55,3.55,0,0,0-2.6.18.62.62,0,0,0-.2.4c-.16,1.6.93,3.36,1.6,4.85,2.47,5.47.55,8-3,11.86-1.1,1.64-.66,3.08-.06,4.85a32.07,32.07,0,0,1,2.09,11.62c.17,3.77-1.09,8.21-5.48,9-3.33.59-5.66-1.49-8.21-2.5-1.93-.84-3.54-.09-4.86,1.29-.52.84-.18,1.8.22,3.14,2.06,5.86,8.3,13.3,3.07,19.4a15.93,15.93,0,0,1-1.19,1.14,31.84,31.84,0,0,0-3.5,3.42c-.15.18-.18.15-.22.09s-.13,0-.08.23c.38,1.34,1.72,2.75,2.68,3.83,6.12,6.9,8.45,19.19,2.21,26.61a8.38,8.38,0,0,1-3.88,2.38l-.25-.54c7.66-4.18,5.54-16,1.58-22.2-1.46-2.47-3.82-4-5.55-6.3-3.74-4.62-.18-8.09,3.18-11.36l.74-.75a2.75,2.75,0,0,0,.73-2.48c-1.08-6.1-9-13.27-4.56-20.09,2.71-3.66,7.88-5.28,12-3.2,1.35.57,2.57,1.38,3.76,2,.59.29,1.2.46,1.41.23a3,3,0,0,0,.61-1.57,31,31,0,0,0,0-8.27c-.76-4.16-2.65-8.9.85-12.44,1.94-2,4.51-3.49,3.88-6.58-.4-2.69-3.64-9.29,1.22-9.36a5.86,5.86,0,0,1,2.14.61l-.27.53Z"/>
    <path class="cls-1" d="M60.08,46.44c-1.21,3.35-1.7,8.2,1.84,10.17,2.76,1.52,5.68,3.79,5.43,7.48-.25,2.49-1.83,4.17-3.47,5.57-1,.92-3.12,1.92-3.2,3.16-.23.75.79,2.56,1.51,2.53l.25.05c4.77.88,9,.68,13.38,4.14,6.1,5,3.61,14.9-1.58,19.48-2.24,2.21-4.93,3.77-6.95,5.58a3.41,3.41,0,0,0-1.51,3.14c.18,1.1,2.2,2.84,3.44,3.9,2.58,2.19,5.11,4,7.25,7.16,4.39,6.35-.64,13.56-6.89,16-3.39,1.34-6.46,1.59-9,2.18-6.28,1-5.36,7.74-4.78,12.53l-.57.18c-1.93-5.84-3-13.18,4.31-15.51,2.83-1.06,5.78-1.53,8.36-2.81a10.73,10.73,0,0,0,5.55-6.07c1.15-6.72-12-9.73-13.2-16.51-1.92-8.72,9.27-11.07,12.35-17.47,4.35-10.35-6.74-9-12.93-11.8a7.06,7.06,0,0,1-2.94-8.35c1.13-3,4.73-3.65,6.66-5.88A3,3,0,0,0,64,61.71c-.94-2-3.06-3.07-4.51-4.7a8,8,0,0,1-1.37-6.59,15.23,15.23,0,0,1,1.49-4.28l.52.3Z"/>
    <path class="cls-1" d="M49.66,69.2c.81.1,1.05.59,1.53,1,2.53,3,3.1,7.72.3,10.75-1.24,1.8-4.09,2.21-4.41,4.08a6.44,6.44,0,0,0,.1,2.67c2.35,5.81,7.49,13.27.63,18.64-1.62,1.32-4.26,1.85-5.43,2.77,0,0,.13,0,.21-.09s.14-.18.15.28c0,.12,0,.42,0,.54s0,0,0-.07-.19-.22.19.05a15.34,15.34,0,0,0,2,1.14c5.24,2.3,8.6,7.16,7,13-1,4.12-3,6.44-4.44,9.42-.1,1,1.51,2.52,2.15,3.33A16.58,16.58,0,0,1,53,143.27a19.35,19.35,0,0,1,.63,6.73l-.58.15a23.91,23.91,0,0,0-6-10.44c-1.53-1.27-3.32-2.76-4-5-1.18-4.32,2.82-7.91,3.43-11.93,1.66-6.5-7.16-5.85-9.14-10.68a7.19,7.19,0,0,1,.72-6.51c1.39-1.85,3.77-2.18,5.73-2.89,6.41-2.22-.13-10.17-.41-14.55-.26-2.71.73-5.88,3.44-7A27.05,27.05,0,0,0,49.53,80a5.73,5.73,0,0,0,2.35-5.07c-.15-1.8-.77-4-2.22-5.12v-.6Z"/>
    <path class="cls-1" d="M122.46,131.88c-3.9,3-10.11,6.79-15.19,5-3.33-1.32-5.68-3.73-8.58-5.16a8.51,8.51,0,0,0-8,.24c-1.36.77-2.18,2.15-3.18,3.63-5.44,7.81-14.4.7-17.39,4.47A10,10,0,0,0,69,142.57a15.85,15.85,0,0,1-3.73,6.11c-2.59,2.77-7.18,3.63-10.4,1.43l-.26-.16c-.06-.06-.19,0-.08-.14l-.35-.36a.88.88,0,0,1,.53-.21c.71-.09,1.53-.12,2.22-.26,7.54-1.23,5.5-12.1,12.41-14.41C73.89,133,78.17,136,82.4,136c3.69.2,4.82-3.21,7.18-5.55,2.07-2.07,4.77-3.82,7.87-3.56,2.93.14,5.67,2,7.7,3.64,2.46,2,4.4,3.89,7.54,3.24a46.1,46.1,0,0,0,9.52-2.35l.25.43Z"/>
  </g>
</svg>
