<svg id="Layer_1" data-name="Layer 1" xmlns="http://www.w3.org/2000/svg" width="281.48" height="296.47" viewBox="0 0 281.48 296.47">
  <defs>
    <style>
      .cls-1 {
        fill: #5159b7;
      }

      .cls-2 {
        fill: #607718;
      }
    </style>
  </defs>
  <path class="cls-1" d="M14.27,178.9h0C14.29,177.82,14.28,178.66,14.27,178.9Z"/>
  <path class="cls-1" d="M14.27,178.9h0C14.27,179,14.26,179,14.27,178.9Z"/>
  <g>
    <g>
      <path class="cls-1" d="M147.68,81.35c-2.53-4.33-5.4-6.15-7.67-5a2.87,2.87,0,0,0-1.54,1.9c-.44,1.64.19,3.91,1.86,6.77a21.44,21.44,0,0,0,4.59,5.19,38.78,38.78,0,0,0,4.61,3.41l.88.55v-1C150.41,92.85,150.36,85.93,147.68,81.35Z"/>
      <path class="cls-1" d="M159.51,102.88a5.32,5.32,0,0,0-.37-1.5A3.84,3.84,0,0,0,157,99.06c-1.81-.68-3.41.25-4.66,1.36-1.7,1.53-6.86,5.62-4.84,8.73C150.11,113.22,159.93,107.21,159.51,102.88Z"/>
      <path class="cls-1" d="M155.09,118.18c-1.39-2.32-4.43-1.83-6.55-1.33-1.67.41-8,3.62-8,5.83,0,.62.49,1.16,1.71,1.53,3,.91,9.88.84,12.43-1.24C156.16,121.77,156.1,119.87,155.09,118.18Z"/>
      <path class="cls-1" d="M140.59,131.07a22.42,22.42,0,0,0-3.71,1.75c-1.95,1.19-3.38,2.82-1,4.54,2.24,1.61,6,.67,8.39.49,2.08-.18,5.15-1,5.54-3.53C150.58,129.39,143.08,130.07,140.59,131.07Z"/>
      <path class="cls-1" d="M138.86,143.8a14.8,14.8,0,0,0-8.73,1.61,11.87,11.87,0,0,0-1.12.69c-3.78,2.64-.6,4.47,2.75,5.29s9.09,1.23,11.06-2.07C144.25,146.91,141.42,144.16,138.86,143.8Z"/>
      <path class="cls-1" d="M128.32,153.52h-.22c-3,.06-10,1.34-10.14,4.68-.24,5.49,15.57,3.21,17.07-.07C136.68,154.55,130.77,153.52,128.32,153.52Z"/>
      <path class="cls-1" d="M98.67,216.4c-5.19-.88-16.06,4.52-17.53,6.84-2.77,4.38,5.87,4,8.22,3.7,4.24-.49,12.14-2.14,12.07-7.51A2.9,2.9,0,0,0,98.67,216.4Z"/>
      <path class="cls-1" d="M125.85,169.19a2.94,2.94,0,0,0-1.47-1.46,13.78,13.78,0,0,0-7-.92c-2.18.36-13,2.68-7.26,5.87,1.79,1,4.33,1,6.28,1.17C118.83,174.07,127.36,173.21,125.85,169.19Z"/>
      <path class="cls-1" d="M113.49,177.09a13.27,13.27,0,0,0-5.15-.14c-2.79.56-10.41,2.27-9.19,6.34.71,2.36,6.19,1.94,7.88,1.39,2.67-.87,5.35-1.05,7.61-2.82C118,179.26,116.21,177.72,113.49,177.09Z"/>
      <path class="cls-1" d="M108.84,189.8a5,5,0,0,0-1.37-.43c-2.65-.42-5,.8-7.52,1.29-1.72.33-10,2.27-6.94,5.39,1.43,1.48,6.41.85,8.27.62,2.48-.32,6.56-.31,8.42-2.07S110.78,190.74,108.84,189.8Z"/>
      <path class="cls-1" d="M106.34,205.19a5.45,5.45,0,0,0-1.84-1.13c-4.24-1.62-11.19.73-14.6,1.77-1.58.47-4.39,1.13-4.28,3.12.21,3.8,6.09,3.4,8.8,3.21C96.86,212,112,210.62,106.34,205.19Z"/>
      <path class="cls-1" d="M147.85,105.67C147.47,102,143.9,94.83,140,94a2.1,2.1,0,0,0-1.8.35c-2.79,2.08-1.43,5.31,1.09,8.33C140.89,104.6,148.56,112.62,147.85,105.67Z"/>
      <path class="cls-1" d="M141.4,114.3c-.78-2.23-1.8-3.69-3-4.34a3,3,0,0,0-2.44-.19c-6.57,2.36,3.32,16.55,5.67,12.91C142.83,120.78,142.1,116.42,141.4,114.3Z"/>
      <path class="cls-1" d="M136.23,133.35a13.48,13.48,0,0,0-2-8.17c-.3-.43-3-4.23-5.24-2.81-1.12.72-2,2.57,0,7.31l0,.11C130.13,132.47,135.61,139.47,136.23,133.35Z"/>
      <path class="cls-1" d="M125.21,137.1c-.39-.51-3.88-4.82-6.4-3.52-3.48,1.8-.23,7.36,1.47,9.63s8.7,8.87,8.22,2.4A17.14,17.14,0,0,0,125.21,137.1Z"/>
      <path class="cls-1" d="M109,146a2.9,2.9,0,0,0-1.25,2.1c-.15,1.47.67,3.25,2.46,5.27,1.51,1.73,5.85,5.26,8.43,4.85a1.92,1.92,0,0,0,1.11-.51c1.07-1.08,0-3.47-.62-4.82C117.8,149.87,113.39,143,109,146Z"/>
      <path class="cls-1" d="M71.16,208a6.79,6.79,0,0,0-2.38-.21A2.67,2.67,0,0,0,66.59,209c-1.9,3.2.38,6.85,2.69,9.42,1.49,1.66,9.48,10.48,11.16,5.49.65-1.92.08-4.68-1.16-7.36C77.46,212.59,74.2,208.83,71.16,208Z"/>
      <path class="cls-1" d="M108.68,162.63c-1.17-3.13-4.15-8.76-8.47-6s4.31,12.32,7.12,13.66c4.6,2.18,2.71-3.94,1.71-6.73C108.89,163.2,108.77,162.86,108.68,162.63Z"/>
      <path class="cls-1" d="M90.41,168.81c-2.52,3,1.9,8,4,10.34,1.25,1.43,5,4.86,6,1.6.33-1-.05-3-.85-5.07C98.59,173.18,94.11,164.37,90.41,168.81Z"/>
      <path class="cls-1" d="M82.61,180.48c-1.86,2.45.64,6.11,2.22,8.22,1.35,1.81,4.57,6.39,7.21,6.3s2.43-3.55.83-7.19C90.54,182.5,85.41,176.8,82.61,180.48Z"/>
      <path class="cls-1" d="M84.19,198.76c-1-3-3-6.14-6.5-7.1a7.21,7.21,0,0,0-1.23-.23,2.66,2.66,0,0,0-2.45.73c-3.06,3.51,1.49,10.17,4.09,12.91,1.27,1.33,3.67,4.34,5.84,4,3.57-.52,1.85-5.84,1.15-7.86C84.77,200.31,84.43,199.45,84.19,198.76Z"/>
    </g>
    <g>
      <path class="cls-1" d="M78.87,70.86c-4.5-4.14-6.79-2.73-7.57-1.93s-1.88,2.66,1.24,6.14a16.16,16.16,0,0,0,1.17,1.18c3.3,3,9.37,4.42,9.63,4.47l.92.2L84,80C83.92,79.78,82.2,73.91,78.87,70.86Z"/>
      <path class="cls-1" d="M94,87c1.73-2.45,2.73-5.53.53-7.44-1.69-1.47-4.36.74-5.73,1.62-3.7,2.38-4.66,12.33,1.45,9.35A11.73,11.73,0,0,0,94,87Z"/>
      <path class="cls-1" d="M98.58,98c1.27-5.27-6.59-2.65-8.26-1.36-2,1.51-6.56,7.28-2.45,8.68,1.31.44,4.23-1.07,6.7-2.93C96.6,100.86,98.31,99.1,98.58,98Z"/>
      <path class="cls-1" d="M97.26,114.36c-.26-1.42-1.66-2.58-4.34-2.58s-6.6,1.41-8.18,3.77C81.71,120.1,98.47,120.84,97.26,114.36Z"/>
      <path class="cls-1" d="M90.18,124.16c-3-2-7.59,1.23-9.65,3-1.58,1.39-5.67,6.61-.94,7.11a11,11,0,0,0,4.65-1.11c1.46-.6,2.88-1.29,3.9-1.66C90.75,130.58,93.72,126.53,90.18,124.16Z"/>
      <path class="cls-1" d="M84.11,137.4c-2.85-.06-6.83,1.79-8.88,3.48-4.49,3.71,1,5.17,5,4,3.08-.9,6.15-2.59,6.68-3.84C88,138.3,86.81,137.44,84.11,137.4Z"/>
      <path class="cls-1" d="M74.62,213.36c-4,.54-11.24,9.18-9.92,13,2.78,8,16.26-8.95,12.67-12.47C76.9,213.38,76,213.18,74.62,213.36Z"/>
      <path class="cls-1" d="M83.11,152.15c-2.3-5-9.79-.26-12.12,1.49-2.79,2.09-4.38,4.85.7,5.22a14.23,14.23,0,0,0,2.56-.15C78.43,158.14,84.93,156.1,83.11,152.15Z"/>
      <path class="cls-1" d="M73.62,168.73c-1.66.46-9.34,4.28-7.91,6.66.94,1.57,3.2,1.89,5.68,1.47,4.12-.69,8.82-3.43,9-5.92C80.8,166.7,76.07,168.06,73.62,168.73Z"/>
      <path class="cls-1" d="M74.14,180.93c-2.88,0-7.71,3.69-9.31,5.75-2.45,3.18-.21,4.93,3.5,4.33a12.18,12.18,0,0,0,2.57-.73C73.84,189.13,82,181,74.14,180.93Z"/>
      <path class="cls-1" d="M71.25,196.49c-3.76,1.06-8,4-9.19,7.59-1.78,5.35,4.65,3.45,7.52,1.9l.31-.17c2.58-1.4,6.7-3.75,7.59-6.66C78.81,194.85,74,195.71,71.25,196.49Z"/>
      <g>
        <path class="cls-1" d="M87.6,92.41c0-2.26-6.26-4.94-7.79-5.49-4.38-1.58-8.14,1.86-3.26,5.25,1.78,1.23,10.39,3.16,11,.53A.7.7,0,0,0,87.6,92.41Z"/>
        <path class="cls-1" d="M77.85,96.89c-4.42-2.1-3.65,1.71-1.93,4.63,1.93,3.29,5.87,8.22,9.62,5.09C89.07,103.68,79.76,97.79,77.85,96.89Z"/>
        <path class="cls-1" d="M82.64,119.4c.6-2.83-6-11.5-8.23-8.34s3.37,11.94,7.07,10.17A2.4,2.4,0,0,0,82.64,119.4Z"/>
        <path class="cls-1" d="M76.41,132c-.62-2.92-5.75-11-9.45-9.28-5.1,2.33,4.87,12.75,8.37,12.59C76.36,135.28,76.91,134.39,76.41,132Z"/>
        <path class="cls-1" d="M66.71,138.91c-3.64-1.71-8.22-.73-6.16,3.75.51,1.07,2.33,2.26,4.41,3.07,3.39,1.32,7.43,1.62,7.3-1.28C72.15,142.22,68.62,139.8,66.71,138.91Z"/>
        <path class="cls-1" d="M65.2,227.13c-.69-3.46-9.31-9.95-13-8.22-5.1,2.36,2.86,9,5.61,10.06,2.48,1,7.69,2.73,7.52-1.05A4.74,4.74,0,0,0,65.2,227.13Z"/>
        <path class="cls-1" d="M60.76,150.81c-2.59-.88-5.28-1-5.33,2.2-.06,2.65,5.07,5.74,8.92,6.39C72.83,160.83,64.29,152,60.76,150.81Z"/>
        <path class="cls-1" d="M52.43,165.81c-3.38,1.31-1.85,4.23,1,6.6s7.35,4.32,9.14,3.14a1.73,1.73,0,0,0,.81-1.59C63.23,170.83,55.69,164.54,52.43,165.81Z"/>
        <path class="cls-1" d="M50.52,183.52c-2.52,1.38-1.46,3.89.82,6.08,2.86,2.75,7.65,5,9.58,3.73C64.77,190.82,54.75,181.21,50.52,183.52Z"/>
        <path class="cls-1" d="M48.5,196.51a2.26,2.26,0,0,0-1.6,1.57c-.91,3.84,5.32,7.94,10,9.32,2.63.78,4.77.7,4.87-.76C62.13,201.77,53.46,194.69,48.5,196.51Z"/>
      </g>
    </g>
    <g>
      <path class="cls-1" d="M177.44,154.28c.41-2.08-1.28-3.24-2.82-3.69s-9.84-1.15-9.46,2.38c.27,2.61,8.55,4.73,11.3,2.78A2.41,2.41,0,0,0,177.44,154.28Z"/>
      <path class="cls-1" d="M126.36,184.11c-1.19-3.22-4-4.44-5.72-1.15-2.28,4.45-1.48,10,1,14.44,1.94,3.47,4.34,5.21,5.4.39a21.92,21.92,0,0,0,.48-3.81A27.83,27.83,0,0,0,126.36,184.11Z"/>
      <path class="cls-1" d="M100.36,213.64A9.65,9.65,0,0,0,98,206.39c-1.73-1.77-4.25-2.54-5.67-.27-2.74,4.36,1.77,12.91,5.36,16.16,3.08,2.8,3.36-.39,3.14-3.69C100.69,216.48,100.33,214.31,100.36,213.64Z"/>
      <path class="cls-1" d="M112.79,195.3c-2.48-1-3.65,1.54-4.09,3.13a18.63,18.63,0,0,0-.48,7.69c.19,1.11.81,5.06,2.07,5.65,3.18,1.48,5.73-6.35,5.08-11.8C115.1,197.75,114.3,195.94,112.79,195.3Z"/>
      <path class="cls-1" d="M132.91,170.38c-2.15-2.87-4.53-1.6-5.72,1.33-1.51,3.73.18,7.84,1.89,11.16,1.37,2.68,3.81,7.07,5.49,1.92a21,21,0,0,0-.1-11.1A10.92,10.92,0,0,0,132.91,170.38Z"/>
      <path class="cls-1" d="M158.91,157.8a13.85,13.85,0,0,0-7.71.09c-3,.9-4.53,2.92-.86,4.17a12.29,12.29,0,0,0,8.46-.78,3.17,3.17,0,0,0,1.88-1.78C160.8,158.87,160.33,158.25,158.91,157.8Z"/>
      <path class="cls-1" d="M150.06,149.52a13.79,13.79,0,0,0-3.24,7c-.49,3.11.69,5.34,3.39,2.56a12.22,12.22,0,0,0,2.94-8,3.18,3.18,0,0,0-.8-2.46C151.83,148.27,151.07,148.43,150.06,149.52Z"/>
      <path class="cls-1" d="M144.84,169.39c-3.49,1.14-6.61,3.21-5.7,5.35,1.33,3.16,8.61,0,10.73-.91,1.75-.76,4.33-2.17,3-4.18C151.33,167.38,147,168.69,144.84,169.39Z"/>
      <path class="cls-1" d="M124.62,199.72c-1.85,2.57,3.73,3.57,5.47,3.75.77.08,1.9.2,3.1.22,2.77.06,6-.38,6.28-2.87C140.13,195.51,126.51,197.08,124.62,199.72Z"/>
      <path class="cls-1" d="M110.29,221.65l-.29,0c-3.71-.45-9.32.94-11.61,3.49-3.29,3.64,12,4.62,14.38,3.89C119.83,226.81,116.35,222.58,110.29,221.65Z"/>
      <path class="cls-1" d="M124.78,210a12,12,0,0,0-4.35-.86c-3.24,0-12.74,1.71-10.69,6,2.24,4.68,11.92,1.88,15.53,1.26,2.1-.37,3.87-.21,3.46-2.75C128.46,212,126.43,210.69,124.78,210Z"/>
      <path class="cls-1" d="M145.87,188.05a7.69,7.69,0,0,0-2.76-.6c-4.48-.43-12.5,0-12.33,2.58.22,3.46,8.93,4.57,11.42,4.42C146,194.21,150.57,191.12,145.87,188.05Z"/>
    </g>
    <path class="cls-1" d="M27.29,177.83s0,.06,0,.08C27.42,176.69,27.36,177.22,27.29,177.83Z"/>
    <path class="cls-1" d="M27.29,177.83a.53.53,0,0,1,0,.13s0,0,0-.05S27.29,177.86,27.29,177.83Z"/>
    <path class="cls-1" d="M27.29,177.91s0,0,0,.05C27.22,178.58,27.16,179.15,27.29,177.91Z"/>
    <path class="cls-1" d="M43.84,210.61l.69.54Z"/>
    <path class="cls-1" d="M39.25,222.28Z"/>
    <path class="cls-1" d="M27.08,194.92h0C27.17,195,27.21,195.11,27.08,194.92Z"/>
    <path class="cls-1" d="M27.08,194.92h0C26.55,194.17,26.9,194.67,27.08,194.92Z"/>
    <g>
      <path class="cls-1" d="M56.35,173.9c-1.94-1.39-5.17-2-7.1-.63-.92.65-5.29,4.28-2.29,5.12,2.64.74,6.21,2,8.68.5l.11-.06C57.58,177.66,58.63,175.52,56.35,173.9Z"/>
      <path class="cls-1" d="M40.65,171.19A8.85,8.85,0,0,0,36.78,169c-1.4-.28-3,.37-2.58,1.91a9,9,0,0,0,2.86,3.81,28.67,28.67,0,0,0,3.78,2.8c1.48.95,3,1.81,4.6,2.64L45.23,179A13.82,13.82,0,0,0,40.65,171.19Z"/>
      <path class="cls-1" d="M42,206.48A5.74,5.74,0,0,0,40,202.92c-1.84-1.74-4.91-3.4-7.42-3.2-1.24.09-2.37,1-1.9,2.37s2.16,2.72,3.42,3.53a19.4,19.4,0,0,0,5,2.15c1.46.44,2.53.89,2.91.21A2.51,2.51,0,0,0,42,206.48Z"/>
      <path class="cls-1" d="M54.53,193.84c-1.78-2.91-7.42,1.3-8.66,2.31a15.27,15.27,0,0,0-3.08,3.59,2.37,2.37,0,0,0-.59,1.53c.12.83,1.28,1.11,1.95,1.08,2.46-.11,5.38-.65,7.24-1.9S56.24,196.62,54.53,193.84Z"/>
      <path class="cls-1" d="M47.36,231.16a9.26,9.26,0,0,0-5.06-2.61c-2.15-.45-4.82-.41-6.32.44-3.1,1.76,1,4.25,4.14,5a22.25,22.25,0,0,0,6.48.27c1.23-.07,1.8-.38,1.9-.87S48.15,232.07,47.36,231.16Z"/>
      <path class="cls-1" d="M49,219.23a7.14,7.14,0,0,0-1,3.89c-.11,1.45-.69,2.81-.79,4.24-.07,1.16,1.29,1.57,2.35.91a12.09,12.09,0,0,0,3.13-3.38c1.56-2.15,4.32-5.47,2.77-8.16C54,214.22,49.79,218.13,49,219.23Z"/>
      <path class="cls-1" d="M54.72,205.18s0,0,0,0c-.78-3.19-4.62-.91-6.09,0a12,12,0,0,0-4.2,4.31c-.53.85-1.68,2.18-1.09,3.32,1.36,2.63,5.69-.26,7.16-1.15C52.68,210.33,55.47,208.29,54.72,205.18Z"/>
      <path class="cls-1" d="M36.79,217.32c-2.43-.58-5.39-.68-6.75,1.56-1.69,2.76,3.39,4.07,5.47,4.37,1.61.25,9.63.1,7.46-3.12C41.79,218.37,38.8,217.79,36.79,217.32Z"/>
      <path class="cls-1" d="M56.57,184c-.19-3.27-4.21-2.06-6-1.53a11.43,11.43,0,0,0-4.87,3.1c-.78.81-2.42,2.05-2,3.43.89,3,5.84,1.08,7.61.5C53.8,188.67,56.78,187.2,56.57,184Z"/>
      <path class="cls-1" d="M42.82,191.68c.13-2.3-2.11-4.91-3.53-6.68-1.56-2-4.22-4.27-6.69-3s.76,5.53,2.06,7c1.08,1.2,7.92,6.78,8.16,2.71Z"/>
      <path class="cls-1" d="M54.53,161.58a9.15,9.15,0,0,0,.09-4.35c-.32-1.17-1.21-2.75-2.51-2.64-2,.16-3.1,4-3.5,5.74-.35,1.52-1.15,7.94,1.75,7.25h0C52.57,167.06,54,163.68,54.53,161.58Z"/>
    </g>
    <path class="cls-1" d="M162.89,214.13c.29,1.12-.17-.64,0,0Z"/>
    <path class="cls-1" d="M146.54,214.81c2.61,2.16-.27-.23,0,0Z"/>
    <path class="cls-1" d="M147.31,79.85c7.74,18.63-2.5,42.77-12.77,58.64-1.78,3-5.06,7.32-7.09,10.23-4.88,6.32-10.63,12.94-15.62,19.21C95.46,188.19,69.26,230.61,85.11,256l-2.63.64c3.89-19.87,15.9-38,33.05-48.9a38,38,0,0,0,9.72-9c11-14.84,11.24-36.3,31.2-43.58a54.74,54.74,0,0,1,18-3c-11.94.59-24.81,4.3-31.51,14.92-9.36,14.82-9.84,31.84-26.18,42.66a72.76,72.76,0,0,0-25.9,30.42,75.15,75.15,0,0,0-6.14,20.45l-2-2.85c-5-7.21-5.9-16.25-5.24-24.72,2.65-25.19,17-47.23,32.35-66.62,5.1-6.18,11-12.67,16-18.89,2.06-2.83,5.38-7,7.2-10,10.46-15.72,21.16-38.74,14.31-57.64Z"/>
    <path class="cls-1" d="M52.85,160.07c-7.23,16.43-11.21,34.71-9.32,52.67.95,6.64,2.57,13.38,5.7,19.34,6.59,13.06,20.31,22,34.78,23.34L83.09,258c-10.27-7.48-16.24-19.18-19.32-31.19-6.58-28-1.71-57.7,8.77-84.08,2.2-5.46,5.16-11.19,7.55-16.59,3.8-9.24,6.64-19,6.76-29.11-.08-7.93-1.69-16.36-6.76-22.69,10.7,12.94,8.66,31.77,3.75,46.73a177.56,177.56,0,0,1-7,16.89,164.5,164.5,0,0,0-9.23,28.63c-6.18,27.92-7.91,69.86,17.15,89.1l4.09,3-5-.44c-15.43-1.6-29.88-11.1-36.6-25.18A57.94,57.94,0,0,1,42,214.82l-.27-1.88-.12-1.9-.22-3.79.05-3.78c-.06-2.15.34-5.39.5-7.55a111.2,111.2,0,0,1,10.89-35.85Z"/>
    <path class="cls-1" d="M173.86,232.82c-12,14.19-33.82-2.95-48.83-.6a50.74,50.74,0,0,0-10.63,2.14c-8.34,2.69-16.34,7.1-22.34,13.56a26.73,26.73,0,0,0-5,7.64,19.52,19.52,0,0,1-1.7,2.79c-.74-2.31.1-4.59,1.11-6.55a29.85,29.85,0,0,1,1.69-2.89c8.27-11.81,22.49-18.51,36.68-19.67A38.39,38.39,0,0,1,138,230.77c11.4,2.8,25.73,11.91,35.91,2Z"/>
    <g>
      <path class="cls-1" d="M164.61,246.35c.15-1.29-.82-2.51-1.56-3.53a15.31,15.31,0,0,0-3.55-3.72,16,16,0,0,0-4.59-2.37c-1.67-.44-2.21,1.3-1.8,2.68.73,2.44,2.8,5,4.62,6.79a7.37,7.37,0,0,0,3.14,2c1.44.38,3.2,0,3.65-1.41A1.84,1.84,0,0,0,164.61,246.35Z"/>
      <path class="cls-1" d="M145.37,236.55a13.32,13.32,0,0,0-3.5-2.36c-.28-.13-2.8-1.06-2.84-.63a10.77,10.77,0,0,0,1.79,6.49c1.06,1.67,3.74,4.3,5.58,2.21S147.1,238.2,145.37,236.55Z"/>
      <path class="cls-1" d="M121.42,235.35a16.39,16.39,0,0,0-9.17-1.44c-1.51.24-1.63,1.75-.73,2.78a11,11,0,0,0,3.61,2.44c2.45,1.21,5.77,2.89,8.52,1.76,1.14-.47,2.29-1.54,1.63-2.8S122.76,236,121.42,235.35Z"/>
      <path class="cls-1" d="M133.74,234.84a14.46,14.46,0,0,0-7.74-3.7c-1.42-.13-1.75,1.3-1.27,2.37a10.27,10.27,0,0,0,2.42,3c1.82,1.73,4.26,4.07,7,3.79,1.16-.13,2.44-.79,2.18-2.09S134.73,235.74,133.74,234.84Z"/>
      <path class="cls-1" d="M108.85,239.68a14.57,14.57,0,0,0-5.25-.41c-1.17.13-3.52.2-4.25,1.14-1.85,2.36,4.3,3.91,5.82,4.3,2.32.59,5.59,1.37,7.53-.27C115.73,241.88,111.07,240.23,108.85,239.68Z"/>
      <path class="cls-1" d="M173.56,226.32a4.48,4.48,0,0,0-3.28,2.21,12.11,12.11,0,0,0-2,8.58,11,11,0,0,0,5.55-2.84c1.54-1.39,3.54-3.76,3-6A2.87,2.87,0,0,0,173.56,226.32Z"/>
      <path class="cls-1" d="M147.52,222.91a4,4,0,0,0-.34-.43c-1.67-1.87-4.09.05-5.42,1.09a9.71,9.71,0,0,0-3,4.55c-.37,1-1.14,2.46-.13,3.44,2,1.91,5.21-1,6.6-2.21C146.8,228,149.1,225.28,147.52,222.91Z"/>
      <path class="cls-1" d="M161.25,227.78c-1.45-2.36-4-.17-5.24.94a8.8,8.8,0,0,0-2.46,3.94c-.3,1-1.06,2.56-.11,3.47,1.89,1.8,4.78-1.14,6-2.29C161,232.33,162.7,230.1,161.25,227.78Z"/>
      <path class="cls-1" d="M132.53,222.66c.1-1.17-.3-2.89-1.47-3.44s-2.65.49-3.53,1.25a11.44,11.44,0,0,0-4,7.57,1.82,1.82,0,0,0,2.17,1.82,7.11,7.11,0,0,0,3.37-2C130.57,226.51,132.34,224.91,132.53,222.66Z"/>
      <path class="cls-1" d="M99.14,225.52c-1-1.23-3.17-2.61-4.88-2-2,.7-2.1,3.51-2.14,5.22a15.56,15.56,0,0,0,.93,6,16.13,16.13,0,0,0,3.32,5.71c1.52,1.41,3.36-.07,3.94-1.45a13,13,0,0,0,.77-4.76C101.13,231.36,101.2,228,99.14,225.52Z"/>
      <path class="cls-1" d="M118,222.28c-.36-1.38-1.62-3.09-3.19-3.09s-2.79,1.79-3.52,3a13.43,13.43,0,0,0-1.67,9.82c.43,1.74,2.4,1.7,3.55.88a10.33,10.33,0,0,0,2.79-3.46C117.12,227.39,118.63,224.86,118,222.28Z"/>
    </g>
  </g>
  <g>
    <g>
      <g>
        <path class="cls-2" d="M258,101c4.86.93,7.21,3.24,6.43,6.08a4.21,4.21,0,0,1-1.7,2.4c-1.61,1.12-4.06,1.37-7.26.75a16.9,16.9,0,0,1-6.11-2.76,31.78,31.78,0,0,1-4.26-3.49l-.71-.73,1-.39C245.75,102.72,252.87,100,258,101Z"/>
        <path class="cls-2" d="M241.11,89.83a4.1,4.1,0,0,1,1.47.15A3.55,3.55,0,0,1,245,92.07c.85,2,.13,4.08-.82,5.77-1.28,2.3-4.66,9.19-7.86,7.42C232.17,102.94,236.91,90.18,241.11,89.83Z"/>
        <path class="cls-2" d="M231.54,93.84c1.79,2.07.46,5.51-.63,7.87-.86,1.87-5.72,8.6-7.79,8.15-.58-.12-.94-.8-.94-2.29,0-3.61,2-11.65,4.74-14.2C228.47,91.9,230.24,92.34,231.54,93.84Z"/>
        <path class="cls-2" d="M217.51,108.07a36.7,36.7,0,0,1-1,4.8c-.79,2.63-2.1,4.82-4.19,2.72s-1.76-6.57-2-9.31c-.22-2.41,0-6.19,2.37-7.5C217.28,96.18,218,104.89,217.51,108.07Z"/>
        <path class="cls-2" d="M204.63,114.68a17.73,17.73,0,0,1-.36,9.9c-.14.41-.32.92-.55,1.45-2.16,5-4.52,2.35-5.86-.88s-2.62-9.19.49-12.55C200.62,110.15,203.88,112.1,204.63,114.68Z"/>
        <path class="cls-2" d="M191.92,130.88l.08.21c1,2.93,2.21,10.42-1,12.54-5.3,3.47-8.64-13.11-6-16.49C188,123.43,191.06,128.52,191.92,130.88Z"/>
        <path class="cls-2" d="M118.87,206c3.81,3.35,5.58,16.27,4.44,19.31-2.13,5.73-6.86-1.38-8-3.43-2.08-3.71-5.32-11.23-.66-15.56C116.24,204.79,117.66,204.89,118.87,206Z"/>
        <path class="cls-2" d="M178,140.86a2.33,2.33,0,0,1,1.88.72c1.63,1.49,2.72,4.87,2.89,6.49.26,2.38,1,14.41-3.82,10.34-1.51-1.27-2.23-3.82-3-5.69C175.06,150.45,173.5,141.44,178,140.86Z"/>
        <path class="cls-2" d="M166.87,159a10.85,10.85,0,0,1,3.16,3.9c1.15,2.65,4.17,10,0,12.37-2.45,1.37-5.32-3.25-5.84-5-.82-2.79-2.25-5-2.07-8.25C162.35,157.19,164.73,157.33,166.87,159Z"/>
        <path class="cls-2" d="M155,175.13a3.72,3.72,0,0,1,1,1c1.41,2.15,1.05,5,1.47,7.54.29,1.74,1.36,10.31-3,9.37-2.08-.45-3.27-5.33-3.73-7.14-.6-2.43-2.13-6.12-1-8.81S153.32,173.91,155,175.13Z"/>
        <path class="cls-2" d="M137.32,189.64a4.31,4.31,0,0,1,1.82,1.08c3.16,3,3,10.67,3.1,14.36,0,1.7.3,4.63-1.84,5.6-4.09,1.84-5.67-3.77-6.39-6.36C133.36,202,129.66,187.34,137.32,189.64Z"/>
      </g>
      <g>
        <path class="cls-2" d="M238.45,104c3.64.83,9.69,5.55,9.25,10a3.06,3.06,0,0,1-1,1.93c-3.07,2.82-5.9,1-8.11-2.13C237.19,111.7,231.62,102.39,238.45,104Z"/>
        <path class="cls-2" d="M233.35,111.44c1.67,1.53,2.5,3.07,2.47,4.58a4,4,0,0,1-1.1,2.63c-5.62,6.2-13.75-8.73-9.11-10.06C228,107.89,231.73,110,233.35,111.44Z"/>
        <path class="cls-2" d="M216.87,115.64a10.74,10.74,0,0,1,7.07,4c.29.42,2.8,4.21.43,6.29-1.2,1-3.4,1.6-7.15-1.63l-.08-.07C215,122.42,210.62,114.92,216.87,115.64Z"/>
        <path class="cls-2" d="M205.15,127.07a15,15,0,0,1,8.86,2.17c.51.34,4.87,3.43,3.3,6.4-2.17,4.08-7.88,1.46-10.18,0S198.27,127.62,205.15,127.07Z"/>
        <path class="cls-2" d="M207.78,144.31a4.08,4.08,0,0,1-1.4,2.54c-1.33,1.16-3.42,1.7-6.22,1.61-2.38-.08-7.87-1.29-8.73-3.78a2,2,0,0,1-.05-1.29c.51-1.66,3.33-2.41,4.91-2.86C199.85,139.52,208.6,138.44,207.78,144.31Z"/>
        <path class="cls-2" d="M141.06,224.67a5.33,5.33,0,0,1,1.36,1.88,2.91,2.91,0,0,1-.07,2.68c-2.12,3.86-6.71,4.47-10.29,4.31-2.31-.1-14.6-.72-10.66-5.64,1.52-1.9,4.42-3.35,7.59-4.17C133.61,222.54,138.78,222.67,141.06,224.67Z"/>
        <path class="cls-2" d="M189.25,153.87c3.56-1.19,10.38-2.61,9.81,3s-13.86,5-16.5,3.52c-4.32-2.38,2.44-5.06,5.59-6.16Z"/>
        <path class="cls-2" d="M187.25,173.09c-1.66,4.26-8.51,4-11.79,3.86-2-.06-7.09-.85-4.47-4,.83-1,2.88-2,5.27-2.82C179.11,169.2,189.69,166.83,187.25,173.09Z"/>
        <path class="cls-2" d="M175.42,191.83c-1.43,3.3-6.14,3.75-8.93,3.88-2.38.12-8.32.59-9.51-1.72s2.2-4.55,6.45-5.74C169.63,186.52,177.57,186.88,175.42,191.83Z"/>
        <path class="cls-2" d="M150.66,204.34c3.38-1.23,7.33-1.72,9.93.56a6.42,6.42,0,0,1,.83.89,2.64,2.64,0,0,1,.49,2.6c-1.88,5.05-10.44,5.84-14.32,5.56-1.88-.15-5.92-.07-6.68-2.15-1.24-3.4,4.67-5.66,6.94-6.48C148.9,204.94,149.88,204.63,150.66,204.34Z"/>
      </g>
    </g>
    <g>
      <g>
        <path class="cls-2" d="M260.78,182.86c4.45,3.86,3.06,6.74,2.25,7.81-.69.91-2.71,2.78-6.43.26a11.67,11.67,0,0,1-1.26-1c-3.3-2.83-4.9-9.14-5-9.41l-.24-.95,1,0C251.33,179.66,257.5,180,260.78,182.86Z"/>
        <path class="cls-2" d="M246.35,166.48c3-1.52,6.38-2.1,7.45.68.82,2.14-2.31,4.75-3.66,6.12-3.66,3.73-13.73,3.12-8.61-3.2A16,16,0,0,1,246.35,166.48Z"/>
        <path class="cls-2" d="M240.21,163c5.19,1.17-1.85,8-4,9.13-2.48,1.31-10.16,3.32-8.79-1.56.43-1.56,3.5-3.85,6.58-5.51C236.57,163.72,239.11,162.79,240.21,163Z"/>
        <path class="cls-2" d="M225.1,161.51c1.16.76,1.52,2.65.17,5.54s-4.61,6.66-7.55,7.58C212.05,176.38,219.8,158,225.1,161.51Z"/>
        <path class="cls-2" d="M213.55,162.22c2.64,2.27.21,8.47-1.22,11.39-1.12,2.25-5.67,8.78-7.1,4a13.25,13.25,0,0,1,.24-5.33c.33-1.78.76-3.56.94-4.79C206.87,164.4,210.43,159.55,213.55,162.22Z"/>
        <path class="cls-2" d="M200.52,170.69c.51,3-.76,7.94-2.18,10.78-3.1,6.22-5.48,1-4.92-3.68.43-3.61,1.68-7.54,2.89-8.59C199,166.89,200,167.85,200.52,170.69Z"/>
        <path class="cls-2" d="M123.33,221c.68,0,1.37.51,2,1.76,1.91,3.58-1.27,16.28-5.29,18.33C111.62,245.43,118.19,221.1,123.33,221Z"/>
        <path class="cls-2" d="M187.18,175.5c5.48.43,1.89,10.24.48,13.4-1.68,3.79-4.26,6.58-5.48,1.37a14.3,14.3,0,0,1-.27-2.77C181.8,182.86,182.82,175.17,187.18,175.5Z"/>
        <path class="cls-2" d="M177.74,192.55c-.14,1.95-2.58,11.61-5.29,11.14-1.78-.3-2.55-2.53-2.6-5.29-.08-4.6,1.81-10.7,4.32-12C178.44,184.19,178,189.72,177.74,192.55Z"/>
        <path class="cls-2" d="M162.59,199.53c1.7,2.24,1.37,9,.54,12-1.28,4.51-4.11,4.19-5.78.79a12,12,0,0,1-.89-2.61C155.72,206.45,157.94,193.43,162.59,199.53Z"/>
        <path class="cls-2" d="M146.5,211.64c1.31,3.81,1.3,9.47-1.11,13.39-3.54,5.75-5.7-.83-6-4.35l0-.38c-.31-3.16-.72-8.3,1.25-11.37C143.46,204.39,145.55,208.86,146.5,211.64Z"/>
      </g>
      <g>
        <path class="cls-2" d="M242.15,176.3c2.36-.49,5.18,5.75,5.77,7.32,1.67,4.47-1.89,9.43-5.45,4.84-1.29-1.67-3.36-10.73-.62-12.05A1.21,1.21,0,0,1,242.15,176.3Z"/>
        <path class="cls-2" d="M237.83,184.27c.64,5.23-2.88,3.88-5.21,1.58-2.63-2.58-6.23-7.63-1.92-11.44C234.75,170.82,237.55,182,237.83,184.27Z"/>
        <path class="cls-2" d="M219.26,173.8c2.91.17,7.91,9.87,3.91,11.41s-9.54-7.15-6.16-10.68A2.72,2.72,0,0,1,219.26,173.8Z"/>
        <path class="cls-2" d="M208.23,177.75c2.84.73,9.92,6.58,7.39,10.75-3.49,5.75-11.92-5.59-11-9.55C204.9,177.78,205.93,177.17,208.23,177.75Z"/>
        <path class="cls-2" d="M203,184.28c3.61,1.47,5.47,5.85.4,7.88-1.22.48-3.32,0-5.24-.94-3.13-1.59-5.76-4.5-3.19-6.76C197,182.73,201.15,183.51,203,184.28Z"/>
        <path class="cls-2" d="M123.17,238.06c3.38-2.28,14-.81,14.74,3.51,1,5.91-9.39,5.07-12,3.8-2.31-1.13-6.88-3.79-3.53-6.74A6.8,6.8,0,0,1,123.17,238.06Z"/>
        <path class="cls-2" d="M194.4,191.74c2.28,1.31,4,3.33,1.25,6-2.24,2.2-7.91.7-10.74-1.79C178.68,190.45,191.3,190,194.4,191.74Z"/>
        <path class="cls-2" d="M188.26,204.68c.86,3.7-2.54,4.89-6.25,4.6s-8-2.23-8.09-4.61a2.48,2.48,0,0,1,.89-1.92C177.59,200.32,187.43,201.08,188.26,204.68Z"/>
        <path class="cls-2" d="M175.67,216.11c.3,3.09-2.49,4.3-5.71,4.31-4.05,0-8.78-1.93-8.84-4.46C161,210.89,175.16,210.91,175.67,216.11Z"/>
        <path class="cls-2" d="M162,229.17a2.93,2.93,0,0,1-.4,2.54c-2.76,3.84-10,2.3-13.9-.23-2.22-1.42-3.41-3.16-2.22-4.43C149.43,222.8,160.63,223.81,162,229.17Z"/>
      </g>
    </g>
    <g>
      <g>
        <path class="cls-2" d="M185.92,98.31c1.49,1.38.64,3.64-.48,5.2s-8.11,8.58-9.7,5.39c-1.18-2.35,5-10.52,8.51-11.05A1.91,1.91,0,0,1,185.92,98.31Z"/>
        <path class="cls-2" d="M169.09,148.4c2.66-2.64,5.87-5.53,9.17-7.14,3.46-1.69,6.18-.47,4.35,3.53-2.48,5.42-7.72,9.32-13,11-4.12,1.31-7,.86-3.51-3.9A32,32,0,0,1,169.09,148.4Z"/>
        <path class="cls-2" d="M144,180.14c2.07-2.13,4.84-3.95,7.62-4,2.53-.09,4.68,1.26,3.57,4.22-2.14,5.7-12.13,9.12-17,9-4.21-.14-1.65-2.95,1.32-5.47C141.41,182.21,143.48,180.72,144,180.14Z"/>
        <path class="cls-2" d="M172.82,168.08c.81,2.47-2.41,3.54-4.35,3.94a26.44,26.44,0,0,1-9.08.26c-1.26-.21-5.77-.93-6.25-2.18-1.21-3.16,8.39-5.45,14.65-4.66C170.34,165.76,172.33,166.59,172.82,168.08Z"/>
        <path class="cls-2" d="M181.89,120.45c3.53-2.06,4.83.3,4.13,3.88-.89,4.54-4.76,8.09-8.18,10.81-2.76,2.19-7.43,5.71-5.85-.39a30.91,30.91,0,0,1,6.62-11.53A15,15,0,0,1,181.89,120.45Z"/>
      </g>
      <g>
        <path class="cls-2" d="M165.54,76.33a10.83,10.83,0,0,1,5.71,4.75c1.61,2.68,1.27,5.52-2.38,4.49-2.58-.72-4.79-3.32-5.76-5.86a3.65,3.65,0,0,1-.12-2.83C163.36,76.21,164.16,75.9,165.54,76.33Z"/>
        <path class="cls-2" d="M170.53,101.55c3.15,1.61,5.66,4.23,4.12,6.56-2.26,3.43-8.61-.82-10.45-2-1.52-1-3.69-2.83-1.74-5C164.65,98.68,168.59,100.56,170.53,101.55Z"/>
        <path class="cls-2" d="M165.94,151.87c-1.12,3.53-5.26,0-6.45-1.23-.52-.54-1.29-1.33-2-2.25-1.67-2.12-3.18-5-1.22-7.25C160.42,136.3,167.09,148.23,165.94,151.87Z"/>
        <path class="cls-2" d="M133,172.33l.21.2c2.57,2.54,4.67,8.06,3.84,11.93-1.19,5.55-11-5.64-11.81-8.08C122.92,169.07,128.6,168.35,133,172.33Z"/>
        <path class="cls-2" d="M148.26,154.79a9.26,9.26,0,0,1,3.3,2.7c1.91,2.53,6,11.36,1.14,13.25-5.33,2.07-8.64-7.79-10.22-11.12-.93-1.94-2.1-3.2.31-5C144.42,153.49,146.72,154,148.26,154.79Z"/>
        <path class="cls-2" d="M166.79,120.75a6,6,0,0,1,2.13,1.67c3,3.15,7.35,9.79,5.05,11.75-3.11,2.64-9.19-3.26-10.53-5.33C161.44,125.7,161.37,119.57,166.79,120.75Z"/>
      </g>
    </g>
    <g>
      <path class="cls-2" d="M191.56,227.78c.75,2.35.3,6.06-1.66,8.05-.94.95-6,5.42-5.81,1.93.12-3,0-7.16,2.25-9.77l.2-.22C188.28,225.91,190.7,225.05,191.56,227.78Z"/>
      <path class="cls-2" d="M186.54,227.77a1.59,1.59,0,0,1-.13.13C187.36,226.85,187,227.25,186.54,227.77Z"/>
      <path class="cls-2" d="M186.41,227.9l-.07.09C185.86,228.53,185.45,229,186.41,227.9Z"/>
      <path class="cls-2" d="M186.54,227.77l-.2.22.07-.09A1.59,1.59,0,0,0,186.54,227.77Z"/>
      <path class="cls-2" d="M192.4,244.24A8,8,0,0,1,194,248.5c.06,1.56-.86,3.4-2.38,3s-2.58-1.81-3.44-3a25.2,25.2,0,0,1-2.26-4.13c-.73-1.62-1.35-3.33-1.94-5.07l1.14.18A10.71,10.71,0,0,1,192.4,244.24Z"/>
      <path class="cls-2" d="M159.6,244.79a4.77,4.77,0,0,1,3.85,1.11c2,1.45,3.94,4.25,3.94,7,0,1.37-.84,2.9-2.31,2.82s-3-1.5-4-2.6a16.81,16.81,0,0,1-2.63-4.73c-.58-1.44-1.14-2.47-.46-3.08A2.87,2.87,0,0,1,159.6,244.79Z"/>
      <path class="cls-2" d="M165.11,228.76c3.27.79-.26,8.39-1.13,10.1a23.25,23.25,0,0,1-3.27,4.64c-.39.44-.88,1.08-1.49,1.21-.87.18-1.33-1-1.39-1.67a19,19,0,0,1,.92-8.42C159.77,232.2,162,228,165.11,228.76Z"/>
      <path class="cls-2" d="M127.48,249.9a7.46,7.46,0,0,1,5.23,1.84c1.65,1.31,3.19,3.44,3.34,5.3.32,3.85-4.23,2.69-6.71.8a17.78,17.78,0,0,1-4-4.84c-.66-1-.73-1.72-.37-2.2A3.7,3.7,0,0,1,127.48,249.9Z"/>
      <path class="cls-2" d="M147.71,241.5l.87.1h0l-.86-.1Z"/>
      <path class="cls-2" d="M151.38,234h0c3.26.38.61,5-.42,6.81a17.59,17.59,0,0,1-4.78,5.37c-.91.72-2.37,2.21-3.52,1.72-2.63-1.11.68-6.4,1.71-8.19C145.89,237.1,148.21,233.67,151.38,234Z"/>
      <path class="cls-2" d="M148.88,250.56c1.92,1.43,3.74,3.67,2.63,6.55-1.38,3.57-5.49.67-7-.71-1.17-1.07-5.76-7.46-1.72-8.39C145,247.51,147.29,249.37,148.88,250.56Z"/>
      <path class="cls-2" d="M141.26,254.7Z"/>
      <path class="cls-2" d="M178.91,228.55c3.24.44.94,4.89-.07,6.82a16.63,16.63,0,0,1-4.42,5.29c-1,.83-2.72,2.59-4,2-2.75-1.19.48-6.65,1.55-8.61C173.45,231.39,175.74,228.12,178.91,228.55Z"/>
      <path class="cls-2" d="M172.36,241.84Z"/>
      <path class="cls-2" d="M178.61,244.88c1.93,1.46,4.13,4.08,2.62,7-1.58,3.11-5.68,0-7.09-1.26-1.17-1-6.45-7.86-2.21-8.73C174.34,241.43,176.87,243.56,178.61,244.88Z"/>
      <path class="cls-2" d="M172.36,241.84l-.43.09Z"/>
      <path class="cls-2" d="M193.24,238.9h0C194.14,238,193.45,238.69,193.24,238.9Z"/>
      <path class="cls-2" d="M193.23,238.9h0C193.17,239,193.15,239,193.23,238.9Z"/>
      <path class="cls-2" d="M193.24,238.9c1.91-1.88,5.57-1.47,7.56-.81a7,7,0,0,1,3.49,2.3c.71,1,1.34,2.71.37,3.93-1.5,1.9-5.25.86-6.91.3-1.43-.5-7-3.22-4.52-5.71Z"/>
      <polygon class="cls-2" points="193.24 238.9 193.24 238.9 193.23 238.91 193.24 238.9"/>
      <path class="cls-2" d="M132.8,242.13a10.8,10.8,0,0,1-2.74,4c-1.18,1.26-2,2.82-3.19,4.07-1,1-2.1.27-2.16-1.1a15.9,15.9,0,0,1,1.06-5.19c.93-3,2.16-7.85,5.37-8.82C134.16,234.14,133.27,240.62,132.8,242.13Z"/>
    </g>
    <g>
      <g>
        <path class="cls-2" d="M99.82,116.86c1.35-.45,2.61.35,3.68.94a12,12,0,0,1,3.85,3.1,13.59,13.59,0,0,1,2.44,4.55c.45,1.75-1.37,2.74-2.79,2.59-2.55-.25-5.19-2-7-3.6a6.14,6.14,0,0,1-2-3c-.38-1.5,0-3.54,1.49-4.36Z"/>
        <path class="cls-2" d="M110.06,132.45a10.62,10.62,0,0,1,3.87,1.39c.25.16,2.31,1.7,1.93,2a12.76,12.76,0,0,1-6.85,3.06c-2.05.26-5.78-.2-4.72-3.31C105.27,132.73,107.72,132.11,110.06,132.45Z"/>
        <path class="cls-2" d="M110.4,157.57a13,13,0,0,1,6.64,6c.68,1.38-.55,2.69-2,2.84a9.46,9.46,0,0,1-4.22-.84c-2.5-.94-5.89-2.17-6.54-5.23-.27-1.28,0-3,1.46-3.57S109.07,157,110.4,157.57Z"/>
        <path class="cls-2" d="M92.57,177.69a17.79,17.79,0,0,1,6.73,9.14c.5,1.37,1,3.54-1.12,4.09-1.88.49-3.86-1-5.16-2.06-2.15-1.67-4.59-3.57-5.58-6.33a5.6,5.6,0,0,1,.41-4.85C89.13,175.76,91.33,176.85,92.57,177.69Z"/>
        <path class="cls-2" d="M111.08,144.29a11.31,11.31,0,0,1,6.67,4.84c.69,1.24-.55,2.47-1.77,2.69a8.91,8.91,0,0,1-3.82-.34c-2.4-.6-5.63-1.38-6.46-4.11-.35-1.16-.23-2.77,1.13-3.36S109.82,143.94,111.08,144.29Z"/>
        <path class="cls-2" d="M104.48,169.1a11.56,11.56,0,0,1,3.44,3.78c.58,1,1.9,2.91,1.53,4.26-.94,3.37-5.9-.19-7.12-1-1.88-1.34-4.47-3.26-4.2-6.13C98.54,165.51,102.7,167.81,104.48,169.1Z"/>
      </g>
      <path class="cls-2" d="M79.73,197.06a19.46,19.46,0,0,1,4.66,5.07,19.72,19.72,0,0,1,2.78,7.08c.3,2.21-2,2.93-3.63,2.5-3.4-.92-6.6-4-8.91-6.58A10.13,10.13,0,0,1,72,200.58c-.39-1.79,0-4.88,2.18-5.63S78.36,196,79.73,197.06Z"/>
      <g>
        <path class="cls-2" d="M117.4,124Z"/>
        <path class="cls-2" d="M118.29,124a2.47,2.47,0,0,1,3.57.88c.79,1.2.53,2.92,0,4.36a17.92,17.92,0,0,1-6.17,8.59,12,12,0,0,1-.83-6.67c.29-2.32,1.14-5.82,3.38-7.16Z"/>
        <path class="cls-2" d="M117.4,124Z"/>
        <polygon class="cls-2" points="117.4 123.99 117.4 123.99 117.4 123.99 117.4 123.99"/>
        <path class="cls-2" d="M127,154.68a2.76,2.76,0,0,1,.45.28c1.9,1.48-.31,4.44-1.51,6a14,14,0,0,1-5.07,4.12c-1.1.58-2.72,1.66-3.71.75-1.93-1.78,1.44-5.82,2.78-7.53C121.47,156.36,124.53,153.4,127,154.68Z"/>
        <path class="cls-2" d="M114.18,188.34c1.23.82,2.34,2.59,1.47,4s-3.43,1.87-5.13,2.07c-3.86.47-8.13-.08-11.23-2.09-1.58-1-.45-2.8,1.06-3.54a15.53,15.53,0,0,1,5.18-1.24C108.35,187.23,111.83,186.79,114.18,188.34Z"/>
        <path class="cls-2" d="M126.45,137.34Z"/>
        <path class="cls-2" d="M126.45,137.34h0C126.19,137.32,123.35,137.09,126.45,137.34Z"/>
        <path class="cls-2" d="M125.68,139.15h0c2.78.22,1.32,3.94.56,5.74a13.07,13.07,0,0,1-3.25,4.53c-.87.81-2.26,2.4-3.43,1.93-2.35-.94-.24-5.38.57-7.2C121.19,141.76,122.93,138.93,125.68,139.15Z"/>
        <polygon class="cls-2" points="126.44 137.34 126.45 137.34 126.44 137.34 126.44 137.34"/>
        <path class="cls-2" d="M123.49,175.59c1,.66,2.09,2,1.53,3.27s-2.69,1.67-4.07,1.85c-3.23.41-7-.05-9.59-1.79-1.06-.72-.68-2.07.39-2.77a10.45,10.45,0,0,1,4.52-1.26C118.67,174.61,121.5,174.3,123.49,175.59Z"/>
        <path class="cls-2" d="M103.63,204.31c1.58.56,3.53,2.13,3.19,4-.43,2.22-3.59,3.27-5.51,3.91a20.67,20.67,0,0,1-7,1.23c-2.19,0-5.19-.2-7.06-1.17s-.54-3.25.91-4.29a18.9,18.9,0,0,1,5.24-2.42C96.66,204.46,100.48,203.2,103.63,204.31Z"/>
      </g>
    </g>
    <g>
      <path class="cls-2" d="M246.59,103.06a56,56,0,0,0-24,7.83c-.9.59-3.25,2.21-4.18,2.85-1.62,1.31-3.71,2.91-5.15,4.35a93.33,93.33,0,0,0-11.2,12.62c-10.88,14.57-19.87,30.53-30.37,45.43-17,24.44-38.21,46.27-63.22,62.62-5.48,3.55-12,7.42-17.68,10.61l-1.2-2.1,5.91-3.39c3.33-1.83,8.33-5.07,11.61-7.13a229.15,229.15,0,0,0,46-40.33C171.54,176,184.51,151.65,201,129.84c5.59-7.14,12-14,19.75-18.78,7.7-5,16.75-7.5,25.85-8.2v.2Z"/>
      <path class="cls-2" d="M255.88,184.12c-2.39-2.81-6.18-4.63-9.58-6.21-10.7-4.73-23.1-4.77-34.05-1-15,4.91-26.52,16.25-37,27.63-21.24,21.46-48.41,37.26-77.86,44.16a42.57,42.57,0,0,1-6,1h-.38l-.31,0a3.82,3.82,0,0,1-.56-.14,2.85,2.85,0,0,1-.73-.4l2.65-4.1a31.34,31.34,0,0,0,4.19,1.48c9.31,2.5,19.19,2.74,28.78,2.44,14.43-.54,29.59-3.6,43.65-7,8.13-2.4,20.73-5.77,28.79-.79l-.16.25c-4.21-2.51-9.43-2.26-14.14-1.71a70.27,70.27,0,0,0-14.13,3.53l-9.6,2.52-9.69,2.16c-18,3.38-41.54,6.3-58.93-.51l.28-.43s-.07,0,0,0h.23l.36,0c30.1-5.55,60.1-22.76,81.7-44.25,15.78-17.54,36.85-33.71,61.87-29.09,7.27,1.43,14.54,4.32,20,9.4a3.18,3.18,0,0,1,.81,1.11.28.28,0,0,1-.13.33l-.13-.27Z"/>
      <path class="cls-2" d="M167.86,80.47c.15-.2.43-.1.56,0A8.87,8.87,0,0,1,170,82.8c3.27,6.49,4.89,13.67,5.82,20.85,3.35,25.1-6.32,50.68-23.21,69.19-5.46,6.15-12,11.59-18.37,16.83-15.2,12.93-29.7,27.87-37.09,46.65a146,146,0,0,0-4.35,14.13l-2.42-.84c-3.59-1.27-5.49-5.15-6.79-8.4-3.21-8.87-2.22-18.75.67-27.43a67.82,67.82,0,0,1,8-16.2,112.57,112.57,0,0,1,14.14-17.23,39.24,39.24,0,0,0,11.54-26.44,42.21,42.21,0,0,0-6.65-24.49c-1.44-1.93-3.79-5.33-6.51-4.52l-.13-.27c4.77-1.59,9.93,8.49,11.37,12.12,5.66,13.57,4.09,30.11-5.29,41.66-1.58,2-4.1,4.62-5.85,6.55-11.37,12.82-21.5,29-20.47,46.79a26.47,26.47,0,0,0,3.73,12.33,6.88,6.88,0,0,0,3,2.8l-.34.19a120.31,120.31,0,0,1,3.63-11.78c7.39-19.39,22.47-34.58,38.06-47.71l4.75-3.92c11.16-9,21-19.81,27.76-32.46a83,83,0,0,0,7.64-59.54c-1-3.66-2.06-7.44-4.14-10.65a3.27,3.27,0,0,0-.24-.27c-.09-.09-.17-.08-.11-.09l-.24-.18Z"/>
    </g>
  </g>
</svg>
