<svg id="Layer_1" data-name="Layer 1" xmlns="http://www.w3.org/2000/svg" width="281.48" height="296.47" viewBox="0 0 281.48 296.47">
  <defs>
    <style>
      .cls-1 {
        fill: #d45353;
      }

      .cls-2 {
        fill: #423628;
      }

      .cls-3 {
        fill: #564837;
      }
    </style>
  </defs>
  <path class="cls-1" d="M197.34,202.54a15.09,15.09,0,0,0-8.14,1.27,19.25,19.25,0,0,0-2.18-.57,34.58,34.58,0,0,0-11.84.29c2.17-1.31,4.2-2.86,4.81-5l.09-.33-.37-.16a4.67,4.67,0,0,0-4.62.66,11.08,11.08,0,0,0-4.17,5.78c-1.77.44-3.09.86-3.68,1.05-2,.63-3.84,1.15-5.69,1.59a6.41,6.41,0,0,0,2.25-3.59l0-.31-.34-.14a2.67,2.67,0,0,0-.57-.16c-2.86-.55-6.33,2.9-8.62,5.44a42,42,0,0,1-11-.32c.74-.26,1.45-.52,2.11-.78s3.38-3,3.12-4.34a1.09,1.09,0,0,0-.93-.81h-.19c-2.33.36-6.28,2.84-8.54,4.94-1-.3-2.09-.65-3.11-1a54.41,54.41,0,0,0,8.64-4.12,45.1,45.1,0,0,1,9.15-4.21c2-.55,4-1,6.12-1.43a29.65,29.65,0,0,0,9.61,4.28,12.1,12.1,0,0,0,2.42.24h.45v-.38c.08-2.38-3.57-4.16-7.38-5.17a88.15,88.15,0,0,0,10.07-2.5l.42.09c2.25.43,16,2.11,16.45-.13a1.26,1.26,0,0,0-.18-1.19,3.13,3.13,0,0,0-2-1c-2.33-.44-6.28-.16-9.68.23.26-.13.54-.24.79-.37,5.38-2.81,7-7.6,8.48-11.84,0-.11.07-.22.11-.33,3.91.25,10.59-.23,12.66-1.77a1.47,1.47,0,0,0,.72-1.34c0-.33-.26-.93-1.4-1.15-2.13-.4-6.69.62-11.1,1.8,1.67-4.25,3.89-7.1,11.16-7a2,2,0,0,0,1.35-.47,1.42,1.42,0,0,0,.5-1.16,2,2,0,0,0-2-1.69,25.88,25.88,0,0,0-3.55.2c2-2.45,3.94-5.51,4.45-7.78l.09-.37-.44-.13a4,4,0,0,0-3.54.5c-2.51,1.69-3.71,5.91-4.11,8.58-5.51,2-7.08,6.54-8.61,11-1.06,3.1-2.18,6.27-4.73,8.55,1.18-4,2-9.57-2.23-12l-.44-.25-.25.37c-1,1.53-.68,3.8-.41,5.8.08.55.16,1.08.19,1.57s.05.93.07,1.48a21.09,21.09,0,0,0,.51,4.7c-4.84,2.43-10.63,3.58-16.25,4.69l-.17,0-2.39.49c1.68-2.35,3.47-5.41,3-7.08a1.64,1.64,0,0,0-1.06-1.14,1.89,1.89,0,0,0-1.88.27c-1.79,1.31-2.89,5.83-3.3,8.64-1.32.3-2.63.6-3.91,1l-.35.13a31.65,31.65,0,0,0,4.32-7.15c.51-1.16.94-2.34,1.35-3.51,3.26-.71,7.93-2.4,9.12-4a1.31,1.31,0,0,0,0-1.77,1.82,1.82,0,0,0-1.08-.6c-1.63-.31-4.08,1-6.83,2.86a34.12,34.12,0,0,1,2.26-5.32,71,71,0,0,1,4-6.18c1-1.4,1.95-2.86,2.88-4.35.91-.19,1.87-.45,2.82-.71a30.57,30.57,0,0,1,3.21-.76,45.7,45.7,0,0,0,8.51-1.42l.52-.14-.27-.44a4.49,4.49,0,0,0-3.16-2.05c-2.85-.54-6.72.72-9.83,2.21,2.77-6.23,2.47-12.7,2.18-19,0-.12,0-.25,0-.38,3.48-1.51,7.92-4.35,9.74-6.74l.24-.31-.35-.25a4.11,4.11,0,0,0-1.65-.72c-3-.56-6,2.13-8.11,4.66a48.85,48.85,0,0,1,.28-7.65,29.17,29.17,0,0,1,8-16.1c.79.21,1.59.38,2.08.47.79.15,7.77,1.43,9.71-.08a1.21,1.21,0,0,0,.51-1.19c-.09-.54-.53-1.25-2.14-1.56-2-.38-5.22-.06-7.88.27a27.47,27.47,0,0,1,11.56-5.76,1.53,1.53,0,0,0,1.24-2,2.2,2.2,0,0,0-2.44-1.19,29.38,29.38,0,0,0-4,1.21c1.57-2.92,2.33-6-.26-8.06l-.3-.25-.32.19c-2.48,1.44-2.37,3.8-2.28,5.52,0,.24,0,.48,0,.66a12.92,12.92,0,0,1-.31,1.57c-.17.72-.34,1.45-.43,2.11a32.24,32.24,0,0,0-6.4,4.57c.36-3.43,0-7.08-3.2-9.54l-.33-.25-.32.22c-.25.18-1,.71-.77,3.89a29.68,29.68,0,0,0,2,8.36,32.54,32.54,0,0,0-7.38,14.6,11,11,0,0,0-4.73-6.61l-.36-.21-.28.26c-.73.69-.71,2.17,0,4.41a24.08,24.08,0,0,0,4.73,8.11c-.07,2.61,0,5.21.14,7.74s.21,4.81.15,7.15a8.93,8.93,0,0,0-7-4.74l-.44,0-.07.37c-.36,1.95,1.72,3.65,3.4,5l.85.7a23.35,23.35,0,0,1,1.71,2l1.1,1.35a22.34,22.34,0,0,1-2.88,8.2c-1,1.62-2.1,3.24-3.21,4.87-1.28,1.86-2.58,3.78-3.73,5.78.1-3.83-.62-7.76-4.65-9.6l-.51-.23-.18.45c-.67,1.82.19,4.21,1,6.32.2.58.41,1.13.56,1.63s.29,1.39.43,2.23a20,20,0,0,0,1,4.3c-.37,1-.72,2-1,3-.54,1.61-1.15,3.43-1.89,5.12A29.25,29.25,0,0,1,149,192c.11-2.84-.31-5.73-1.18-7l-.24-.37-.43.18c-3.49,1.48-2.7,7.08-1.93,11.23a35.76,35.76,0,0,1-11.62,6.27,2.57,2.57,0,0,0-.67-.19,28.44,28.44,0,0,0,.07-3.32,27.57,27.57,0,0,1,.1-3.18c3.61-1.57,8.85-4.11,9.45-7.24l0-.3-.32-.16a3.39,3.39,0,0,0-.9-.29c-2.22-.43-4.83,1.16-6.94,3.12a35.1,35.1,0,0,1,2.43-4.55,38.6,38.6,0,0,0,6-18.64c3.1-2.8,6.49-6.2,5.87-10.22l-.06-.41h-.47c-1.81,0-3.79,2.42-4.81,3.84-.2.29-.42.61-.64.95-.2-2.66-.57-5.27-.94-7.83-.28-1.86-.53-3.7-.73-5.52,3.84-2.4,8-6.31,7.66-10.81l-.05-.48-.54.06c-2.74.28-4.26,2.86-5.49,4.94-.2.34-.39.67-.57,1a20.46,20.46,0,0,1-1.3,1.63,30.33,30.33,0,0,1,.83-8.93,44.39,44.39,0,0,1,3.42-8.28c.23-.47.45-1,.68-1.43,3.76-1.08,10.18-3.78,11.35-5.18a.8.8,0,0,0,.17-1,2.35,2.35,0,0,0-1.59-1c-2.1-.4-5.44,1.44-8.19,3.35a25.57,25.57,0,0,0,1.44-4.78c.7-3.78.31-7.59-.07-11.29-.18-1.74-.36-3.51-.42-5.27a30.23,30.23,0,0,0,4.08-2.19c.51-.31.94-.58,1.24-.73l.19-.1c2.49-1.27,4.65-2.38,5.33-5.15l.07-.32-.33-.16a4.72,4.72,0,0,0-1.25-.42c-3.37-.65-6.77,2.54-9.2,5.43.94-8.57,7.15-16.76,14.49-22.34l1.15.24c1,.18,9.5,1.75,10.35-.28a1.14,1.14,0,0,0-.08-1.11,3,3,0,0,0-2-1,28.86,28.86,0,0,0-6.15-.16,43.69,43.69,0,0,1,3.85-2.15,1.47,1.47,0,0,0,.6-2.25,2.3,2.3,0,0,0-2.67-.66,49.22,49.22,0,0,0-12.32,8.7c.46-2.53.41-5.23-.24-6.47l-.2-.39-.44.14c-3.52,1.09-3.14,6.65-2.89,10.33a3.83,3.83,0,0,1,0,.47,35,35,0,0,0-6.28,11.33c-1.25-3.7-3-7.23-5.79-9.72l-.4-.36-.35.38c-2.09,2.36.31,5.95,1.9,8.33l.14.21c.35.52.75,1.19,1.18,1.91a34.45,34.45,0,0,0,2.32,3.55,23,23,0,0,0-.22,2.5,55.68,55.68,0,0,0,.45,7.78,39,39,0,0,1,.17,9.81c-2-5.52-5.17-9-9.41-10.18l-.57-.17,0,.5c-.27,2.23,2,4.52,3.9,6.36.42.43.83.82,1.16,1.18a28.23,28.23,0,0,1,1.8,2.59,31.68,31.68,0,0,0,2.31,3.26,57.43,57.43,0,0,1-2.84,6.49,59.23,59.23,0,0,0-3,6.69,34.29,34.29,0,0,0-2.47-3.85c-.3-.39-4.4-3.24-6.2-3.59-.81-.15-1.18.19-1.25.57V126c.34,1.76,2.18,3.2,3.8,4.48.63.5,1.24,1,1.75,1.46a17.19,17.19,0,0,1,2.31,2.76c.38.52.75,1,1.13,1.48a40.89,40.89,0,0,0-.21,13.5l-.17.76.26-.12c.16,1.29.34,2.57.53,3.84s.33,2.29.48,3.45c-3.12-3.92-6.8-7.69-11.18-9.49l-.53-.22-.14.47c-.88,2.92,2.86,5.58,5.33,7.33l.22.16c.55.38,1.2.89,1.9,1.44a29,29,0,0,0,4.74,3.26,46.67,46.67,0,0,1,.26,5.68A35.13,35.13,0,0,1,136.26,179c-1.24-4.47-4.47-8.61-9.52-9.57l-.64-.12.06.54c.22,1.83,1.85,3.45,3.45,5a24.33,24.33,0,0,1,1.75,1.85,17.94,17.94,0,0,1,2.13,3.31c.42.76.82,1.51,1.26,2.16-.4.75-.83,1.5-1.29,2.23a28.58,28.58,0,0,0-3.86,8.69,13.8,13.8,0,0,0-4.67-5.65l-.46-.32-.27.42c-1.39,2.23.55,5.27,2,7.48l.54.88a29.74,29.74,0,0,1,1.27,2.76c.37.89.75,1.8,1.16,2.62,0,.32-.07.63-.12.94-5.33-4.51-8.33-8.44-9.48-14.75a49.83,49.83,0,0,0-1.31-5.54c2.73-3.21,5.67-7.42,3.55-11.35l-.21-.38-.44.14c-2.48.83-3.29,4.44-3.42,5.17a18,18,0,0,1-.87,2.56l0,.12a20.29,20.29,0,0,0-1.12-2.17,42.5,42.5,0,0,0-3.21-4.54c-.59-.76-1.17-1.5-1.7-2.25a20.7,20.7,0,0,0,2.18-3.39,17,17,0,0,1,1.47-2.37,10,10,0,0,0,2.11-5.12l.08-.43-.51-.08a4.22,4.22,0,0,0-3,.62c-2.2,1.43-3.32,4.91-3.89,8.31-.11-.21-.24-.42-.34-.63-1.69-3.55-1.22-7.2-.73-11.08.41-3.25.83-6.61,0-10.08a21.72,21.72,0,0,0-1-2.92c2.17-3.31,4.82-7.66,2.84-11.59l-.16-.32-.4,0a3.1,3.1,0,0,0-2.12,1.51,15.62,15.62,0,0,0-1.93,6.8,48.66,48.66,0,0,0-8.15-9.93c.06-.15.11-.29.16-.45,1.19-3.26,2.66-7.31.85-10.49l-.18-.31-.37.06a3,3,0,0,0-2.31,1.88c-.87,1.83-.91,4.73-.54,7.07-1-.9-2-1.78-3-2.62a2.24,2.24,0,0,0-2.74-.07,1.42,1.42,0,0,0-.52,1.15,1.64,1.64,0,0,0,.61,1.19c2,1.72,4.06,3.57,6,5.5-.37-.1-.75-.19-1.13-.26a8.54,8.54,0,0,0-5.48.4l-.25.14.05.26c.26,1.44,2.77,2.21,4.83,2.6a23.57,23.57,0,0,0,5.26.39,26.66,26.66,0,0,1,5.85,10.45,19.27,19.27,0,0,1,.23,6.74l-.07-.09c-.46-.61-.88-1.17-1.18-1.63l-.12-.18c-1.53-2.29-3-4.45-6.38-5.15l-.49-.11-.09.41c-.74,3.32,4.52,7.79,7.91,10.28-.44,3.72-.71,7.56,1.15,11.47a22.15,22.15,0,0,0,1.92,3.21,18.63,18.63,0,0,0-4.41-1.53,8,8,0,0,0-5.11.52l-.38.19.2.35c1,1.8,5.34,2.8,7.16,3.15a27.69,27.69,0,0,0,4.92.51,35.25,35.25,0,0,1,2.65,3.74,28.42,28.42,0,0,1,3.12,8.68,14.47,14.47,0,0,0-6.49-3.78,6.16,6.16,0,0,0-1.25-.11h-.52l.07.45c.57,3.27,5.77,6.83,9.69,9.48,1.66,4.64,4.54,8.11,8.87,11.85a26.85,26.85,0,0,1-5.48-.53,53.91,53.91,0,0,1-6.32-1.67c-.4-1.18-.8-2.35-1.19-3.53-.77-2.31-1.56-4.71-2.43-7l-.15-.41-.47.1c-1.72.37-2.58,1.67-2.41,3.65a13.47,13.47,0,0,0,2.18,5.56c-5-2.25-8-6.18-11-10.72a19.5,19.5,0,0,0,1.91-9.3l-.06-.35-.4-.08a2.82,2.82,0,0,0-2.62.7c-1.09,1.08-1.44,3.15-1.46,5.19a35.6,35.6,0,0,0-11-10.44c.08-2.72-.23-8.64-4.63-9.48a6.38,6.38,0,0,0-.9-.09h-.42l0,.36c-.28,1.9,1.21,5.15,2.86,7.57a24.24,24.24,0,0,0-5.14-1.63,17.61,17.61,0,0,0-4.37-.3,13.91,13.91,0,0,0-4.35-1.87,4.65,4.65,0,0,0-3.7.67l-.27.19.15.28c.55,1.09,2.46,1.66,3.74,1.92a10.37,10.37,0,0,0-3.2,2.51,1.42,1.42,0,0,0-.3,1.23,1.73,1.73,0,0,0,.81,1.1,2.16,2.16,0,0,0,2.69-.28,7.06,7.06,0,0,1,5.71-2.47,4.2,4.2,0,0,0-1.66.9,2.21,2.21,0,0,0-.66,2l0,.26.29.1a3.4,3.4,0,0,0,.57.15c2.26.43,5.42-.89,7.09-2.25.94.36,1.71.73,2.23,1a27.85,27.85,0,0,1,6.1,4.26c-3.25-.56-7.29-.36-8.45,2l-.17.35.4.2a3.9,3.9,0,0,0,.88.25,54.89,54.89,0,0,0,10.4.43,70.17,70.17,0,0,1,4.39,6.09c.52.79,1,1.58,1.59,2.35a15.26,15.26,0,0,0-2.1-.57c-2.37-.45-4.3-.14-5.43.9l-.26.24.23.28c.84,1.05,2.29,1.75,4.42,2.16a40.13,40.13,0,0,0,5.39.49l.45,0a24.08,24.08,0,0,0,9.69,7,62.23,62.23,0,0,0,10.76,3.22,28.21,28.21,0,0,0,8.39.48l.07,0a3.27,3.27,0,0,0,.44,0c.51,0,1-.05,1.5-.08a2.27,2.27,0,0,0,.45,0A42,42,0,0,0,141.56,211a48,48,0,0,0,15,.34,46.6,46.6,0,0,0,9.09,3c2.37.45,3.73.25,4.17-.6a1.18,1.18,0,0,0,0-1.24c-.49-.78-1.92-1.39-4.38-1.86-.89-.17-1.85-.31-2.81-.42,2-.47,4.09-1,6.18-1.71a54.23,54.23,0,0,1,8.76-2.05c2,1.83,5.41,4.33,7.63,4.75a2.19,2.19,0,0,0,1.95-.36,1.21,1.21,0,0,0,.43-1.36c-.4-1.19-2.78-2.42-5.25-3.41a20.75,20.75,0,0,1,4,.32,10.58,10.58,0,0,1,2.7.85,5.69,5.69,0,0,1,3.23,4,2.12,2.12,0,0,0,2.3,1.38,1.86,1.86,0,0,0,1.23-.65,1.4,1.4,0,0,0,.26-1.23,9.09,9.09,0,0,0-3-4.79c2.55.22,5.12.16,7.12-1l.33-.19-.17-.32A4.06,4.06,0,0,0,197.34,202.54Z"/>
  <g>
    <path class="cls-2" d="M156.67,191.9c-14.52-8.06-34-9.92-50-5.5a54.38,54.38,0,0,0-8.35,3c-19.75,9.11-19.13,26.16,8.88,33.13,12.27,3,45.57,3.1,56.51-2.33C177.24,213.5,168.4,198.41,156.67,191.9Z"/>
    <path class="cls-3" d="M156.67,191.9c-14.52-8.06-34-9.92-50-5.5a54.38,54.38,0,0,0-8.35,3c-9.87,4.55-14.65,11.09-13.47,17.36A54.24,54.24,0,0,0,96.67,211c12.27,3,45.57,3.09,56.51-2.33,7.37-3.66,8.07-9.82,5.29-15.72C157.88,192.61,157.28,192.24,156.67,191.9Z"/>
  </g>
</svg>
