<svg id="Layer_1" data-name="Layer 1" xmlns="http://www.w3.org/2000/svg" width="378.89" height="399.07" viewBox="0 0 378.89 399.07">
  <defs>
    <style>
      .cls-1 {
        fill: #8c2c2c;
      }

      .cls-2 {
        fill: #4f1313;
      }

      .cls-3 {
        fill: #423628;
      }

      .cls-4 {
        fill: #564837;
      }
    </style>
  </defs>
  <path class="cls-1" d="M279.32,335.78c-3.92-1.12-9.19.66-12.37,2.91a19.24,19.24,0,0,0-3.32-1.3c-5.78-1.66-12.39-.81-18,.66,3.3-3,6.39-6.54,7.31-11.51l.14-.75-.56-.38c-2.16-1.45-4.63-.91-7,1.52-3.17,3.22-5.7,9.13-6.35,13.19-2.69,1-4.7,2-5.58,2.39a79.69,79.69,0,0,1-8.67,3.64,16.75,16.75,0,0,0,3.43-8.2l0-.71-.52-.31a4.18,4.18,0,0,0-.87-.38c-4.35-1.25-9.62,6.64-13.1,12.44a43.19,43.19,0,0,1-16.75-.72c1.12-.6,2.2-1.2,3.2-1.8s5.14-6.85,4.74-9.91a2.05,2.05,0,0,0-1.41-1.84h-.3c-3.54.82-9.53,6.49-13,11.3a44.81,44.81,0,0,1-4.73-2.41c4.65-2.4,8.94-5.91,13.14-9.41,4.69-3.89,9.12-7.57,13.91-9.61A97.11,97.11,0,0,1,222,321.3c4.55,4.26,9.58,8.35,14.61,9.79a13.63,13.63,0,0,0,3.68.55H241l0-.87c.11-5.43-5.43-9.5-11.22-11.81a98.86,98.86,0,0,0,15.3-5.7l.64.2c3.43,1,24.37,4.81,25-.3a4.24,4.24,0,0,0-.26-2.73,4.51,4.51,0,0,0-3.11-2.26c-3.55-1-9.54-.37-14.71.51.39-.28.81-.55,1.2-.85,8.17-6.41,10.66-17.35,12.88-27,.06-.26.12-.51.17-.76,5.95.57,16.1-.53,19.26-4a4,4,0,0,0,1.09-3.05,2.79,2.79,0,0,0-2.13-2.62c-3.25-.93-10.18,1.4-16.87,4.11,2.54-9.73,5.91-16.24,17-16a2.46,2.46,0,0,0,2-1.05,4.18,4.18,0,0,0,.76-2.66c-.07-2.05-1.46-3.81-3.07-3.85a25.17,25.17,0,0,0-5.39.43c3.09-5.57,6-12.58,6.76-17.75l.13-.85-.66-.3a4.43,4.43,0,0,0-5.38,1.15c-3.82,3.85-5.64,13.49-6.25,19.59-8.38,4.49-10.77,14.94-13.09,25.15-1.62,7.08-3.32,14.33-7.2,19.53,1.8-9.24,3-21.86-3.38-27.31l-.67-.57-.38.86c-1.51,3.5-1,8.67-.62,13.24.11,1.27.23,2.48.28,3.59s.08,2.11.1,3.38A72.51,72.51,0,0,0,250,301.7c-7.35,5.56-16.15,8.19-24.7,10.71l-.27.07-3.63,1.12c2.56-5.35,5.28-12.35,4.6-16.17a3.56,3.56,0,0,0-1.62-2.6,2.13,2.13,0,0,0-2.85.62c-2.73,3-4.4,13.31-5,19.74-2,.68-4,1.37-5.94,2.19l-.53.29a85.13,85.13,0,0,0,6.57-16.34c.77-2.65,1.42-5.34,2.05-8,4.95-1.63,12-5.48,13.86-9.19a4.17,4.17,0,0,0,0-4.05,2.79,2.79,0,0,0-1.65-1.38c-2.47-.71-6.2,2.33-10.37,6.53a100.74,100.74,0,0,1,3.42-12.14c1.76-4.81,3.91-9.5,6-14.13,1.47-3.2,3-6.53,4.37-9.93,1.39-.43,2.85-1,4.29-1.62a36,36,0,0,1,4.89-1.74,48.66,48.66,0,0,0,12.93-3.23l.79-.33-.41-1a7.37,7.37,0,0,0-4.8-4.69c-4.34-1.25-10.22,1.65-14.95,5,4.21-14.22,3.76-29,3.32-43.38,0-.28,0-.58,0-.87,5.3-3.45,12-10,14.82-15.39l.36-.71-.54-.59a5.67,5.67,0,0,0-2.51-1.63c-4.49-1.29-9.16,4.86-12.32,10.64a169.67,169.67,0,0,1,.42-17.48,83,83,0,0,1,12.25-36.77,32.4,32.4,0,0,0,3.15,1.08c1.2.34,11.81,3.25,14.77-.2a3.51,3.51,0,0,0,.76-2.72,4,4,0,0,0-3.24-3.54c-3-.87-7.94-.14-12,.61,4.88-6.11,10.77-10.84,17.58-13.16,1.54-.53,2.38-2.6,1.87-4.61s-2.21-3.21-3.71-2.73a37.58,37.58,0,0,0-6,2.76c2.39-6.65,3.55-13.58-.38-18.4l-.46-.56-.49.43c-3.77,3.29-3.6,8.67-3.47,12.6,0,.56,0,1.09,0,1.5-.05.89-.27,2.21-.48,3.61-.26,1.63-.52,3.29-.65,4.81a54.9,54.9,0,0,0-9.73,10.44c.55-7.83,0-16.17-4.87-21.8l-.5-.58-.48.52c-.38.4-1.53,1.62-1.17,8.87a97,97,0,0,0,3,19.1,92.55,92.55,0,0,0-11.22,33.36c-1.24-6-3.28-11.6-7.19-15.1l-.55-.49-.42.6c-1.11,1.57-1.09,4.95.06,10.08,1.48,6.52,4.57,14.67,7.19,18.52-.12,6,0,11.89.21,17.68.17,5.55.32,11,.23,16.33-2.18-5.48-5.51-10.13-10.61-10.82l-.67-.09-.1.84c-.55,4.45,2.62,8.34,5.17,11.46.47.58.93,1.14,1.29,1.61.85,1.27,1.7,2.9,2.61,4.61.55,1,1.11,2.08,1.67,3.07a69.52,69.52,0,0,1-4.38,18.74c-1.49,3.71-3.19,7.41-4.89,11.13-1.95,4.23-3.92,8.63-5.67,13.21.16-8.76-.94-17.74-7.06-21.94l-.78-.54-.26,1c-1,4.16.27,9.62,1.43,14.44.31,1.31.62,2.58.85,3.72.25,1.36.44,3.17.66,5.1a64.57,64.57,0,0,0,1.56,9.81c-.56,2.32-1.09,4.64-1.6,6.92-.82,3.67-1.73,7.82-2.87,11.67a80.22,80.22,0,0,1-5.19,13.42c.17-6.49-.48-13.08-1.8-16.06l-.37-.85-.64.41c-5.31,3.4-4.11,16.18-2.94,25.65a52.69,52.69,0,0,1-17.67,14.32,2.83,2.83,0,0,0-1-.42c.17-2.56.14-5.1.11-7.59s0-4.91.15-7.27c5.48-3.57,13.46-9.37,14.36-16.53l.09-.68-.48-.36a4.33,4.33,0,0,0-1.38-.68c-3.37-1-7.35,2.66-10.55,7.13a96.24,96.24,0,0,1,3.69-10.39,121.51,121.51,0,0,0,9.07-42.58c4.71-6.39,9.87-14.15,8.92-23.35l-.09-.93-.72,0c-2.75.11-5.76,5.53-7.31,8.77-.31.66-.64,1.39-1,2.16-.31-6.08-.86-12-1.44-17.87-.41-4.26-.8-8.45-1.11-12.61,5.85-5.48,12.24-14.42,11.65-24.7l-.07-1.09-.82.14c-4.16.63-6.48,6.53-8.35,11.27-.31.79-.6,1.54-.87,2.2-.5,1.1-1.21,2.39-2,3.73a103.76,103.76,0,0,1,1.28-20.41,131.48,131.48,0,0,1,5.19-18.91l1-3.26c5.7-2.48,15.47-8.65,17.25-11.83a2.52,2.52,0,0,0,.26-2.32,3.85,3.85,0,0,0-2.43-2.38c-3.19-.91-8.26,3.3-12.45,7.66a80.73,80.73,0,0,0,2.2-10.91c1.06-8.64.47-17.33-.11-25.79-.27-4-.54-8-.64-12a43.87,43.87,0,0,0,6.21-5c.77-.71,1.43-1.32,1.88-1.68l.29-.22c3.79-2.9,7.07-5.43,8.1-11.77l.11-.71-.51-.38a5.73,5.73,0,0,0-1.89-1c-5.13-1.47-10.3,5.81-14,12.4,1.43-19.57,10.86-38.27,22-51l1.75.54c1.48.42,14.44,4,15.73-.65a3.67,3.67,0,0,0-.12-2.52,4.32,4.32,0,0,0-3-2.22c-2.41-.69-6-.65-9.34-.37A62.18,62.18,0,0,1,238,33.89a4.28,4.28,0,0,0,.91-5.13c-.83-1.77-2.75-2.47-4.06-1.51a83.6,83.6,0,0,0-18.73,19.87c.7-5.79.63-12-.37-14.79l-.3-.88-.67.31C209.44,34.24,210,47,210.4,55.36c0,.38,0,.71,0,1.07a96.91,96.91,0,0,0-9.56,25.89c-1.9-8.46-4.56-16.53-8.79-22.2l-.62-.84-.52.87c-3.19,5.39.46,13.6,2.88,19l.21.5c.55,1.19,1.15,2.72,1.8,4.36,1.09,2.75,2.27,5.7,3.52,8.1-.17,1.88-.28,3.79-.33,5.71-.13,6,.28,12,.68,17.77.53,7.78,1,15.15.27,22.42-3.09-12.61-7.86-20.48-14.31-23.27l-.86-.38-.09,1.13c-.4,5.11,3.11,10.35,5.94,14.55.64,1,1.25,1.87,1.76,2.69.85,1.53,1.77,3.66,2.73,5.91a75.46,75.46,0,0,0,3.52,7.44c-1.12,4.94-2.67,9.79-4.32,14.84s-3.26,10-4.49,15.27a87.62,87.62,0,0,0-3.77-8.79c-.45-.9-6.68-7.41-9.42-8.19a1.38,1.38,0,0,0-1.9,1.29v.31c.52,4,3.31,7.33,5.78,10.24,1,1.15,1.88,2.24,2.66,3.34a41.66,41.66,0,0,1,3.51,6.3c.58,1.19,1.14,2.32,1.72,3.39-1.46,10.56-1.14,20.81-.32,30.83l-.26,1.73.39-.27c.25,2.94.53,5.87.81,8.78q.39,3.9.74,7.86c-4.76-8.95-10.35-17.54-17-21.66l-.81-.5-.21,1.08c-1.33,6.66,4.35,12.72,8.11,16.74l.34.35c.83.88,1.82,2,2.88,3.3,2.35,2.77,4.93,5.8,7.21,7.44.29,4.29.46,8.62.38,13a115.55,115.55,0,0,1-4.22,29.33c-1.9-10.21-6.81-19.65-14.49-21.86l-1-.27.09,1.25c.32,4.17,2.82,7.88,5.23,11.45,1,1.47,1.93,2.85,2.68,4.23a47.58,47.58,0,0,1,3.22,7.56c.64,1.75,1.26,3.44,1.93,4.94-.61,1.72-1.26,3.41-2,5.09a83.4,83.4,0,0,0-5.87,19.85c-1.62-5.12-4-9.71-7.1-12.92l-.71-.72-.4,1c-2.11,5.08.83,12,3,17.08.3.72.59,1.39.83,2,.64,1.71,1.26,3.95,1.92,6.31.57,2,1.15,4.11,1.78,6,0,.72-.12,1.42-.19,2.14-8.11-10.31-12.67-19.28-14.42-33.68-.48-4-1.09-8.27-2-12.67,4.15-7.32,8.62-16.95,5.4-25.92l-.31-.88-.67.34c-3.78,1.88-5,10.14-5.21,11.79a53,53,0,0,1-1.32,5.87c0,.09,0,.17-.07.26-.51-1.66-1.06-3.32-1.7-5A107.77,107.77,0,0,0,150.26,265c-.9-1.74-1.77-3.44-2.59-5.14a52.13,52.13,0,0,0,3.32-7.76,43.19,43.19,0,0,1,2.24-5.4c2.06-3.6,2.65-7.28,3.21-11.7l.12-1-.78-.17a4.73,4.73,0,0,0-4.56,1.41c-3.34,3.26-5,11.22-5.91,19-.17-.49-.37-1-.52-1.45-2.56-8.11-1.86-16.43-1.11-25.31.62-7.41,1.27-15.09,0-23a67,67,0,0,0-1.46-6.67c3.29-7.55,7.32-17.49,4.31-26.46l-.24-.75-.61.12c-1.22.25-2.3,1.41-3.22,3.46-1.7,3.79-2.62,10-2.94,15.52A114.69,114.69,0,0,0,127.1,167c.08-.34.16-.66.24-1,1.8-7.44,4-16.7,1.28-24l-.26-.69-.57.12c-1.54.31-2.72,1.76-3.51,4.3-1.32,4.19-1.39,10.81-.82,16.16-1.51-2.06-3-4.07-4.54-6a2.57,2.57,0,0,0-4.17-.16,4.12,4.12,0,0,0-.8,2.63,4.61,4.61,0,0,0,.93,2.71c3.08,3.94,6.18,8.17,9.12,12.58a14.42,14.42,0,0,0-1.71-.6c-3.43-1-6.46-.65-8.33.91l-.38.31.07.6c.39,3.29,4.21,5,7.34,5.95,1.32.38,5.43,1.26,8,.89a73.67,73.67,0,0,1,8.89,23.87,65.79,65.79,0,0,1,.36,15.39l-.1-.21c-.7-1.39-1.35-2.67-1.8-3.71l-.19-.43c-2.33-5.22-4.52-10.16-9.7-11.76l-.74-.23-.14.93c-1.12,7.58,6.88,17.78,12,23.47-.68,8.51-1.08,17.27,1.75,26.21a59.65,59.65,0,0,0,2.91,7.34,22.89,22.89,0,0,0-6.7-3.52,8.48,8.48,0,0,0-7.77,1.21l-.57.43.3.79c1.53,4.12,8.12,6.4,10.88,7.19a27.75,27.75,0,0,0,7.48,1.16,89.39,89.39,0,0,1,4,8.56,88.48,88.48,0,0,1,4.74,19.83c-3-4.26-6.66-7.72-9.88-8.64a5.76,5.76,0,0,0-1.89-.25l-.8,0,.12,1c.86,7.47,8.76,15.62,14.72,21.67,2.52,10.6,6.91,18.51,13.49,27.06a27.73,27.73,0,0,1-8.33-1.21,60.77,60.77,0,0,1-9.6-3.82c-.61-2.69-1.23-5.37-1.82-8.05-1.17-5.3-2.38-10.76-3.7-16.12l-.22-.94-.72.23c-2.61.86-3.91,3.83-3.65,8.34a40.79,40.79,0,0,0,3.31,12.7c-7.69-5.14-12.23-14.1-16.79-24.48a64,64,0,0,0,2.91-21.25l-.09-.8-.61-.18a3.4,3.4,0,0,0-4,1.61c-1.66,2.47-2.2,7.18-2.22,11.86-4.3-9-9.33-17.31-16.72-23.86.13-6.21-.35-19.73-7-21.64a5.67,5.67,0,0,0-1.37-.21l-.64,0-.07.81c-.43,4.33,1.83,11.75,4.34,17.29a29,29,0,0,0-7.81-3.72A18,18,0,0,0,89,265c-2.13-1.92-4.35-3.62-6.62-4.27a5.19,5.19,0,0,0-5.63,1.52l-.4.43.22.65c.83,2.48,3.75,3.78,5.69,4.39a18.46,18.46,0,0,0-4.87,5.74,4.6,4.6,0,0,0-.46,2.79,4.34,4.34,0,0,0,1.23,2.52,2.52,2.52,0,0,0,4.09-.65c2.11-3.75,5-5.63,8.68-5.64a6.4,6.4,0,0,0-2.52,2.06,6.76,6.76,0,0,0-1,4.61l.06.59.43.24a3.84,3.84,0,0,0,.87.34c3.43,1,8.24-2,10.79-5.13a30.18,30.18,0,0,1,3.37,2.26,46.76,46.76,0,0,1,9.29,9.73c-5-1.28-11.09-.83-12.85,4.62l-.26.79.61.45a4.22,4.22,0,0,0,1.33.58c1.73.49,10.68,1.73,15.82,1,2.38,4.33,4.52,9,6.66,13.91.8,1.81,1.61,3.61,2.43,5.38a16.29,16.29,0,0,0-3.2-1.32c-3.6-1-6.53-.31-8.25,2.06l-.39.54.35.66c1.28,2.38,3.47,4,6.72,4.91a39.13,39.13,0,0,0,8.18,1.12l.7,0c3.79,6.63,8.35,12.33,14.72,16.07a72.63,72.63,0,0,0,16.37,7.35,28.7,28.7,0,0,0,12.74,1.11.39.39,0,0,1,.11.06,2.63,2.63,0,0,0,.67.09,19.29,19.29,0,0,0,2.29-.19,2,2,0,0,0,.68.08,51.33,51.33,0,0,0,16.89,8.73,49.07,49.07,0,0,0,22.87.78c3.38,2.34,9.5,5.72,13.82,7,3.59,1,5.66.58,6.34-1.37a4,4,0,0,0-.05-2.83c-.74-1.79-2.92-3.19-6.67-4.26a42.74,42.74,0,0,0-4.26-1,78.9,78.9,0,0,0,9.39-3.89,59.92,59.92,0,0,1,13.32-4.69c3.11,4.17,8.22,9.88,11.59,10.85a2.54,2.54,0,0,0,3-.83,3.71,3.71,0,0,0,.66-3.11c-.61-2.71-4.23-5.52-8-7.77a21,21,0,0,1,6.14.71,13.15,13.15,0,0,1,4.11,2c2.6,1.89,4.2,4.84,4.91,9,.33,2,2,3.49,3.49,3.16a2.72,2.72,0,0,0,1.86-1.48,4.49,4.49,0,0,0,.4-2.82,23.74,23.74,0,0,0-4.53-10.93c3.88.49,7.79.37,10.83-2.23l.5-.43-.25-.73A6.75,6.75,0,0,0,279.32,335.78Z"/>
  <path class="cls-2" d="M115.6,298.82c3.3-.77,7.64.71,10.22,2.49a18,18,0,0,1,2.8-.92c4.85-1.14,10.33-.34,14.95.9-2.66-2.37-5.14-5.13-5.78-8.94l-.09-.57.47-.28c1.83-1.06,3.87-.6,5.8,1.31a20.09,20.09,0,0,1,4.94,10.2c2.21.83,3.86,1.6,4.58,1.95a72.81,72.81,0,0,0,7.11,3,12.23,12.23,0,0,1-2.63-6.33l0-.54.44-.23a3.93,3.93,0,0,1,.72-.27c3.66-.85,7.84,5.28,10.58,9.77a38.88,38.88,0,0,0,14-.18c-.92-.48-1.81-1-2.62-1.44s-4.1-5.34-3.69-7.66a1.61,1.61,0,0,1,1.23-1.37h.24c2.93.7,7.77,5.16,10.5,8.9a40,40,0,0,0,4-1.74,62.83,62.83,0,0,1-10.69-7.46c-3.8-3.07-7.38-6-11.31-7.63-2.45-1-5.05-1.89-7.65-2.71-3.9,3.15-8.19,6.16-12.41,7.15a12.42,12.42,0,0,1-3.08.34l-.57,0v-.67c0-4.14,4.76-7.12,9.64-8.76a86.34,86.34,0,0,1-12.58-4.68l-.54.14c-2.88.67-20.39,3.13-20.8-.78a3,3,0,0,1,.3-2.07,3.76,3.76,0,0,1,2.64-1.66c3-.7,8-.07,12.23.71-.33-.22-.66-.44-1-.68-6.63-5.06-8.42-13.46-10-20.89l-.12-.58c-5,.31-13.38-.76-15.91-3.51a2.86,2.86,0,0,1-.83-2.35,2.17,2.17,0,0,1,1.84-1.95c2.72-.64,8.43,1.28,13.93,3.5-1.86-7.47-4.5-12.51-13.7-12.59a2.09,2.09,0,0,1-1.67-.85,3,3,0,0,1-.57-2.05,3,3,0,0,1,2.66-2.87,23.22,23.22,0,0,1,4.47.45c-2.42-4.32-4.64-9.72-5.16-13.68l-.08-.65.55-.22a3.91,3.91,0,0,1,4.45,1c3.08,3,4.34,10.41,4.69,15.07,6.85,3.61,8.56,11.63,10.23,19.47,1.16,5.44,2.38,11,5.47,15-1.25-7.09-1.94-16.74,3.53-20.75l.58-.42.29.66c1.17,2.7.64,6.64.17,10.11-.13,1-.26,1.89-.33,2.73s-.12,1.61-.18,2.58a50.53,50.53,0,0,1-.92,8.17c6,4.4,13.22,6.6,20.26,8.7l.22.07c1,.29,2,.62,3,.93-2-4.14-4.07-9.54-3.4-12.43a2.72,2.72,0,0,1,1.41-1.95,1.88,1.88,0,0,1,2.36.53c2.19,2.35,3.31,10.25,3.66,15.16,1.64.57,3.29,1.14,4.87,1.81l.44.22a60.87,60.87,0,0,1-5-12.6c-.58-2-1.05-4.1-1.5-6.15-4.07-1.35-9.88-4.44-11.29-7.31a3,3,0,0,1,.12-3.09,2.32,2.32,0,0,1,1.4-1c2.08-.48,5.1,1.92,8.46,5.21a69.88,69.88,0,0,0-2.53-9.33c-1.34-3.71-3-7.33-4.65-10.91-1.14-2.47-2.3-5-3.38-7.67-1.14-.35-2.34-.84-3.53-1.32a29,29,0,0,0-4-1.44,43.16,43.16,0,0,1-10.68-2.75l-.64-.27.36-.75a6,6,0,0,1,4.12-3.47c3.64-.85,8.45,1.49,12.3,4.17-3.13-10.93-2.37-22.19-1.63-33.15,0-.22,0-.44,0-.67-4.32-2.75-9.75-7.85-11.92-12.06l-.29-.55.47-.43a4.76,4.76,0,0,1,2.13-1.19c3.78-.89,7.5,3.9,10,8.38a118.78,118.78,0,0,0,.11-13.34,59.53,59.53,0,0,0-9.22-28.3c-1,.34-2,.6-2.65.75-1,.24-9.92,2.22-12.28-.47a2.48,2.48,0,0,1-.57-2.09c.13-.94.73-2.16,2.79-2.64,2.54-.6,6.61.07,9.95.73a32.16,32.16,0,0,0-14.28-10.42,2.8,2.8,0,0,1-1.43-3.56,2.67,2.67,0,0,1,3.15-2,32.74,32.74,0,0,1,4.94,2.23c-1.81-5.12-2.6-10.43.8-14l.39-.42.4.34c3.06,2.59,2.77,6.69,2.56,9.68,0,.43-.06.84-.07,1.15,0,.68.16,1.69.3,2.76.17,1.25.35,2.52.42,3.68a43.38,43.38,0,0,1,7.82,8.17c-.26-6,.4-12.33,4.62-16.51l.43-.43.39.4c.3.32,1.23,1.27.73,6.8a68.91,68.91,0,0,1-3,14.5,66.21,66.21,0,0,1,8.46,25.67c1.19-4.53,3-8.76,6.37-11.35l.48-.36.33.46c.88,1.23.78,3.81-.32,7.69-1.4,4.94-4.18,11.09-6.46,14-.06,4.56-.34,9.07-.64,13.49-.29,4.22-.55,8.37-.62,12.45,2-4.14,4.85-7.62,9.11-8l.56,0,.06.65c.34,3.4-2.39,6.29-4.6,8.62-.41.43-.8.85-1.11,1.2a41.51,41.51,0,0,0-2.3,3.46c-.48.78-1,1.56-1.47,2.3a48.75,48.75,0,0,0,3.16,14.38c1.14,2.87,2.45,5.73,3.77,8.6,1.51,3.27,3,6.67,4.37,10.2.1-6.68,1.25-13.51,6.45-16.57l.67-.4.19.8c.75,3.19-.49,7.33-1.57,11-.3,1-.59,1.95-.81,2.81-.24,1-.45,2.41-.68,3.88a46.36,46.36,0,0,1-1.56,7.45c.41,1.78.79,3.56,1.15,5.31.59,2.81,1.24,6,2.09,9a56.76,56.76,0,0,0,4,10.35c0-4.95.74-10,1.92-12.21l.33-.64.52.33c4.33,2.7,3,12.43,1.78,19.62a42.93,42.93,0,0,0,14.32,11.31,2.45,2.45,0,0,1,.86-.3c-.07-1.95,0-3.89.1-5.79s.14-3.74.07-5.54c-4.47-2.85-10.95-7.45-11.52-12.92l-.05-.53.41-.26a3.74,3.74,0,0,1,1.17-.49c2.83-.66,6,2.19,8.58,5.67a67.51,67.51,0,0,0-2.79-8,85.54,85.54,0,0,1-6.43-32.68c-3.76-5-7.84-11-6.81-18l.1-.71.6,0c2.29.14,4.64,4.34,5.85,6.84.24.51.49,1.08.75,1.67.42-4.62,1-9.15,1.66-13.59.46-3.25.89-6.43,1.26-9.59-4.72-4.31-9.81-11.27-9-19.1l.08-.82.68.12c3.45.57,5.22,5.12,6.65,8.78.24.61.46,1.18.67,1.69.38.85.94,1.85,1.54,2.89a72.36,72.36,0,0,0-.52-15.59,96,96,0,0,0-3.82-14.54c-.26-.82-.52-1.67-.78-2.5-4.69-2-12.65-6.94-14.05-9.4a1.79,1.79,0,0,1-.15-1.78,3.13,3.13,0,0,1,2.08-1.76c2.68-.62,6.79,2.7,10.15,6.12A59,59,0,0,1,182,152c-.65-6.6.07-13.22.77-19.66.33-3,.66-6.1.85-9.16a36.42,36.42,0,0,1-5-3.95c-.63-.56-1.16-1-1.53-1.32l-.23-.18c-3.08-2.3-5.74-4.29-6.43-9.15l-.08-.55.44-.27a5.14,5.14,0,0,1,1.6-.7c4.31-1,8.41,4.66,11.31,9.77-.67-15-8-29.42-17-39.39-.5.14-1,.26-1.47.37-1.24.29-12.11,2.73-13.07-.83a2.6,2.6,0,0,1,.17-1.92,3.6,3.6,0,0,1,2.58-1.63,26.56,26.56,0,0,1,7.77-.08,52.53,52.53,0,0,0-4.73-3.87,3.06,3.06,0,0,1-.63-3.93,2.43,2.43,0,0,1,3.42-1.06,65.58,65.58,0,0,1,15.06,15.56c-.43-4.43-.21-9.13.69-11.27l.28-.66.55.25c4.38,2,3.56,11.69,3,18.09,0,.29,0,.54-.07.82a69.44,69.44,0,0,1,7.28,20c1.8-6.41,4.23-12.5,7.89-16.74l.54-.63.41.68c2.51,4.18-.74,10.36-2.89,14.44l-.19.38c-.49.89-1,2-1.62,3.28a65.62,65.62,0,0,1-3.14,6.1c.1,1.44.14,2.9.13,4.37a133.48,133.48,0,0,1-1,13.53,93.83,93.83,0,0,0-.81,17.09c2.9-9.55,7.08-15.45,12.51-17.43l.73-.27,0,.86c.2,3.91-2.86,7.82-5.32,11-.56.72-1.09,1.4-1.53,2-.75,1.15-1.57,2.75-2.43,4.44a58.37,58.37,0,0,1-3.12,5.6,117.27,117.27,0,0,0,3.2,11.41c1.22,3.78,2.45,7.67,3.34,11.75a64.87,64.87,0,0,1,3.36-6.62c.4-.68,5.75-5.5,8.05-6a1.13,1.13,0,0,1,1.55,1v.23c-.54,3.06-2.95,5.52-5.07,7.68-.83.86-1.63,1.67-2.3,2.49a31.52,31.52,0,0,0-3.09,4.73c-.51.89-1,1.74-1.52,2.54a98,98,0,0,1-.54,23.53l.17,1.32-.32-.22c-.28,2.24-.59,4.47-.9,6.68-.28,2-.56,4-.82,6,4.19-6.72,9.07-13.15,14.71-16.15l.69-.36.15.83c.93,5.1-4,9.6-7.19,12.59l-.29.26c-.71.65-1.56,1.51-2.48,2.45a38.39,38.39,0,0,1-6.2,5.51c-.34,3.27-.6,6.57-.65,9.9a80.93,80.93,0,0,0,2.75,22.46c1.84-7.75,6.17-14.84,12.62-16.35l.81-.19-.11,1c-.38,3.18-2.55,5.95-4.66,8.62-.86,1.1-1.67,2.13-2.33,3.17a34.67,34.67,0,0,0-2.88,5.69c-.58,1.32-1.14,2.6-1.74,3.73.47,1.32,1,2.63,1.5,3.92a58.87,58.87,0,0,1,4.36,15.27,24.46,24.46,0,0,1,6.25-9.7l.61-.53.31.75c1.62,3.91-1,9.14-2.92,13-.27.54-.53,1-.75,1.5-.57,1.3-1.15,3-1.76,4.77-.52,1.55-1.06,3.11-1.63,4.53,0,.55.05,1.09.1,1.63,7-7.68,11-14.42,12.88-25.36.5-3,1.12-6.28,2-9.62-3.26-5.67-6.73-13.12-3.81-19.89l.28-.66.55.27c3.09,1.52,3.89,7.85,4,9.11a36.62,36.62,0,0,0,.94,4.5c0,.08,0,.14.05.21.47-1.26,1-2.51,1.55-3.75a78.19,78.19,0,0,1,4.34-7.79c.79-1.3,1.56-2.58,2.28-3.86a38,38,0,0,1-2.56-6,31.66,31.66,0,0,0-1.72-4.17c-1.61-2.78-2-5.6-2.36-9l-.08-.75.66-.12A4.13,4.13,0,0,1,224.8,225c2.7,2.56,3.9,8.66,4.42,14.6.16-.37.33-.72.48-1.09,2.34-6.13,2-12.49,1.58-19.28-.32-5.66-.66-11.54.63-17.55a48.52,48.52,0,0,1,1.4-5.06c-2.54-5.82-5.64-13.5-2.9-20.27l.22-.56.5.1c1,.21,1.89,1.12,2.59,2.71,1.32,2.92,1.92,7.71,2,11.9a86.34,86.34,0,0,1,10.9-17l-.18-.79c-1.3-5.72-2.92-12.83-.44-18.31l.24-.52.47.11c1.27.27,2.22,1.4,2.81,3.36,1,3.21.87,8.26.26,12.33,1.31-1.53,2.63-3,3.94-4.48a2.25,2.25,0,0,1,3.46,0,3,3,0,0,1,.6,2,3.34,3.34,0,0,1-.85,2.05c-2.66,2.94-5.35,6.09-7.91,9.39a14,14,0,0,1,1.44-.42c2.88-.68,5.39-.36,6.9.88l.31.24-.07.46c-.41,2.49-3.64,3.76-6.26,4.37a21.73,21.73,0,0,1-6.68.5,53.8,53.8,0,0,0-8,18,45.86,45.86,0,0,0-.7,11.74.76.76,0,0,1,.09-.16c.61-1,1.19-2,1.59-2.79l.17-.33c2.07-3.93,4-7.64,8.37-8.75l.62-.16.1.71c.73,5.8-6.19,13.41-10.62,17.63.34,6.51.44,13.2-2.14,20a44.6,44.6,0,0,1-2.62,5.53,20.09,20.09,0,0,1,5.66-2.53,7.55,7.55,0,0,1,6.44,1.09l.46.34-.27.59c-1.38,3.12-6.92,4.71-9.24,5.25a25.17,25.17,0,0,1-6.25.72,65.2,65.2,0,0,0-3.58,6.44,63.21,63.21,0,0,0-4.47,15c2.65-3.18,5.75-5.74,8.45-6.38a5.44,5.44,0,0,1,1.58-.14l.66,0-.13.78c-.91,5.67-7.69,11.71-12.81,16.2-2.38,8-6.23,14-11.93,20.34a25,25,0,0,0,7-.74,53,53,0,0,0,8.09-2.71c.58-2,1.16-4.06,1.72-6.09,1.12-4,2.26-8.16,3.5-12.22l.21-.71.6.2c2.14.71,3.15,3,2.81,6.43a29.21,29.21,0,0,1-3.09,9.61c6.54-3.74,10.55-10.48,14.61-18.29A44.92,44.92,0,0,1,239.66,263l.1-.61.51-.12a2.91,2.91,0,0,1,3.27,1.31c1.32,1.92,1.64,5.53,1.53,9.09,3.82-6.77,8.22-13,14.54-17.83.05-4.74.8-15,6.41-16.34a4.8,4.8,0,0,1,1.14-.13h.54l0,.63c.25,3.31-1.83,8.92-4.07,13.09a25.35,25.35,0,0,1,6.6-2.67,16.26,16.26,0,0,1,5.54-.37,15.66,15.66,0,0,1,5.62-3.12,4.57,4.57,0,0,1,4.64,1.29l.32.33-.2.5c-.75,1.87-3.22,2.8-4.84,3.22a14.3,14.3,0,0,1,3.89,4.48,3.13,3.13,0,0,1,.31,2.14,3.24,3.24,0,0,1-1.09,1.9,2.19,2.19,0,0,1-3.38-.59,8.06,8.06,0,0,0-7.07-4.49,5.18,5.18,0,0,1,2,1.62,4.81,4.81,0,0,1,.71,3.54l-.07.45-.37.17a3.49,3.49,0,0,1-.73.25c-2.88.67-6.8-1.73-8.84-4.16a26.67,26.67,0,0,0-2.87,1.66,37.47,37.47,0,0,0-8,7.21c4.14-.86,9.24-.39,10.56,3.8l.2.61-.52.33a3.48,3.48,0,0,1-1.12.41c-1.45.34-8.93,1.09-13.19.41-2.09,3.25-4,6.76-5.91,10.46q-1.06,2-2.16,4a15.73,15.73,0,0,1,2.7-.93c3-.71,5.44-.09,6.81,1.75l.31.43-.31.49c-1.12,1.78-3,3-5.71,3.6a36,36,0,0,1-6.84.67l-.58,0c-3.33,5-7.27,9.22-12.67,11.93a64.55,64.55,0,0,1-13.81,5.25,26.09,26.09,0,0,1-10.63.56l-.09,0a2.67,2.67,0,0,1-.56.06c-.65,0-1.27-.11-1.9-.19a2.19,2.19,0,0,1-.57,0,42.54,42.54,0,0,1-33.32,6.38,49.94,49.94,0,0,1-11.68,5c-3,.7-4.72.31-5.24-1.19a2.83,2.83,0,0,1,.11-2.16c.67-1.34,2.52-2.36,5.66-3.1,1.13-.26,2.36-.47,3.57-.64a68.46,68.46,0,0,1-7.7-3.17,53.14,53.14,0,0,0-11-3.87c-2.7,3.11-7.1,7.36-9.93,8a2.23,2.23,0,0,1-2.45-.69,2.6,2.6,0,0,1-.46-2.39c.57-2.06,3.66-4.12,6.84-5.75a19,19,0,0,0-5.13.41,11.27,11.27,0,0,0-3.47,1.4c-2.21,1.38-3.62,3.6-4.32,6.78a2.77,2.77,0,0,1-3,2.33,2.24,2.24,0,0,1-1.51-1.17,3.17,3.17,0,0,1-.25-2.16,17.58,17.58,0,0,1,4-8.23c-3.24.29-6.49.11-8.95-1.94l-.4-.34.23-.55A5.45,5.45,0,0,1,115.6,298.82Z"/>
  <g>
    <path class="cls-3" d="M213.49,314C180.22,295.5,135.6,291.24,99,301.35a125.72,125.72,0,0,0-19.13,6.89c-45.24,20.86-43.82,59.93,20.35,75.9,28.1,6.94,104.39,7.08,129.45-5.34C260.61,363.45,240.36,328.88,213.49,314Z"/>
    <path class="cls-4" d="M213.49,314C180.22,295.5,135.6,291.24,99,301.35a125.72,125.72,0,0,0-19.13,6.89C57.26,318.66,46.3,333.64,49,348a124.28,124.28,0,0,0,27,9.81c28.1,6.94,104.39,7.09,129.45-5.35,16.89-8.38,18.5-22.48,12.13-36C216.26,315.59,214.89,314.74,213.49,314Z"/>
  </g>
</svg>
