<svg id="Layer_1" data-name="Layer 1" xmlns="http://www.w3.org/2000/svg" width="281.48" height="296.47" viewBox="0 0 281.48 296.47">
  <defs>
    <style>
      .cls-1 {
        fill: #8c2c2c;
      }

      .cls-2 {
        fill: #8cad06;
      }

      .cls-3 {
        fill: #9c6006;
      }

      .cls-4 {
        fill: #2f9c06;
      }

      .cls-5 {
        fill: #84766d;
      }

      .cls-6 {
        fill: #93908c;
      }
    </style>
  </defs>
  <g>
    <path class="cls-1" d="M176.93,51.73c-5,2.67-1.64,6.62,1.65,9,2.76,1.93,6.15,3.72,6.67,7.5.49,6.29-7.8,9.66-12.66,11.26-2.12.79-5,1.92-6.58,3.65-.24.29-.25.48-.18.34s0-.42.09-.29a9.2,9.2,0,0,0,1.51,1.25c5.17,3.71,5.76,8.25,2,13.41-.47.85-.75,1.24-.48,2a5.91,5.91,0,0,0,3.91,4,20.78,20.78,0,0,0,6.19.94,8.78,8.78,0,0,1,2.09.37c3.93,1.49,7.46,5.75,6.88,10.26-1,7-6.87,11.1-11.89,15a5.4,5.4,0,0,0-1.69,1.56c-.74,1.31-.58,3.19-.26,4.92A31.33,31.33,0,0,0,176.7,144a61.09,61.09,0,0,0,5.3,8.92,13.41,13.41,0,0,1,1.81,10.51c-3.09,10.9-16.72,13.21-25.94,16.22-3.68,1.23-7,1.71-9.36,4-1.24,1.31-1.67,4-2,5.82-.75,3.5-.82,6.43-2.83,10.06-2.49,4.19-7.34,6-11.54,7.5-.7.26-1.52.53-1.9.68-6,2.4-4.17,9.88-3.47,15.24.21,1.91.83,4.48-.88,6.27-2.35,2-5.36,3.11-7.14,5.62a7.94,7.94,0,0,0-1.27,6.72,20.09,20.09,0,0,1-4,17.51l-.51-.31a18.92,18.92,0,0,0,2.3-16.69c-2.06-6.81,2.41-11.41,7.69-14.75.28-.22.58-.45.6-.61a9.05,9.05,0,0,0-.27-3.09c-1.62-6.94-3-16.58,5.09-20a54.41,54.41,0,0,0,7.95-3.68c2.62-1.48,3.82-4.05,4.24-6.94.9-4.32.8-9.2,3.73-12.82s7.8-4.61,12-6c6.67-2.36,19.62-4.63,21.81-12.17a7.88,7.88,0,0,0-1.55-6.54c-.09-.12-.69-1-.78-1.16-3.19-5-6-10.38-7.2-16.28-1-4.52.06-9.76,4.39-12.15,3.43-2.51,7.2-5.26,9.2-9,1.52-2.77,0-5.31-2.6-6.64a4,4,0,0,0-.89-.14c-5.65-.2-11.92-2.05-13.83-8a6.38,6.38,0,0,1-.13-4.61c.72-2.17,2.68-3.56,3-5.74,0-3.08-3.71-4.17-5.08-6.63-1.44-2.29.6-4.8,2.56-5.94,5-3.31,11.46-3.26,16-7.19a4.38,4.38,0,0,0,1.77-3.53c-.36-2.92-3.34-4.52-5.4-6.35-1.66-1.49-3.36-3.19-4-5.4-.78-2.41,1.12-4.72,3.33-5.48l.2.57Z"/>
    <path class="cls-1" d="M112.54,258.87a19.85,19.85,0,0,1,1-9.34c1-2.67,3.13-5,3-7.89.05-2.22-1.14-3.91-2.21-6a4.1,4.1,0,0,1-.27-.81,4.66,4.66,0,0,1,.48-3c1.38-2.77,3.06-5.21,4-7.88.71-2.22,1-3.72-.15-5.18-1.82-2.1-3.8-4.35-4.39-7.45a11.93,11.93,0,0,1,0-3.53c.48-3,1.1-4.75,1.64-7.09a8.15,8.15,0,0,0,.27-3.35,7.44,7.44,0,0,0-2-2.73c-2.92-3-6.63-6.14-8.82-10a12.92,12.92,0,0,1,.41-13.8,15.12,15.12,0,0,1,2.9-3.14,43.49,43.49,0,0,0,7.12-8c1-1.67,1.86-3.11,1.75-4.46,0,0,0,0,0-.05l-.16-.35c-3.22-6.89-4.77-17.61,4.82-20.4a6.14,6.14,0,0,1,2.86-.16c.78.1,2.35.79,2.93.76a2.64,2.64,0,0,0,2.12-1.28l.16-.17c.08-.08.19-.34.17-1.35a8.71,8.71,0,0,1,6.29-9.3,2.83,2.83,0,0,1,.28-.07c.17,0,.18,0,.16.06a1.3,1.3,0,0,0-.08.46c0,.14.12.14.14,0,.11-.78-.86-2.53-1.46-3.31-2.53-2.49-5.73-7.59-3.34-11.59a8.35,8.35,0,0,1,4.81-3.56c2.58-.69,6.9-2.12,5.38-5.56l.45-.4a3.82,3.82,0,0,1,.78,3.12c-.5,2.16-2.46,3.45-4.26,4.42s-3.78,1.47-4.72,3.25c-2,5.3,5.38,8,6.32,12.73a3.64,3.64,0,0,1-.65,3.22c-1.34,1.63-3.75,1.69-4.7,3.53s.17,4-.52,5.89A9,9,0,0,1,130.9,140a7.92,7.92,0,0,1-6.29.35c-.48-.12-1-.37-1.15-.23-5.95,1.9-1.62,10-.41,14,1,6.84-6.38,13.69-11,17.91a7.55,7.55,0,0,0-2.29,10.11c1.94,3.43,5.1,6.13,7.79,9.06a10.44,10.44,0,0,1,3.12,5.39c.56,4.21-1.69,8-2.35,11.95-.87,8.83,10.49,6.64.81,22.23-.59,1.09-1.63,2.34-1.77,3.42,1.54,3.33,2.53,7.33.6,10.76-1.48,2.64-3.39,5-4.13,8a20.62,20.62,0,0,0-.7,5.91Z"/>
    <path class="cls-1" d="M130.75,103.25c-9.54-1-3.21,6.42-.73,10.66a10.67,10.67,0,0,1,1.4,7.55c-.73,4-5,6.79-5.66,10.35a5.88,5.88,0,0,0,.41,3.56c.49.93,1.89,2.46,3.24,4.24A19.83,19.83,0,0,1,133.73,154c-1.58,20.88-26.69,11.48-28.2,21.95-.28,3.2-.53,7,1.94,9.16,1.41,1.15,3.13,2,4.85,3.4a13.72,13.72,0,0,1,4.85,8,23.42,23.42,0,0,1,0,7.7c-.4,3.25-1.89,6.16-2.79,8.67-.35,1.71.92,3.18,2.2,5.07,9.34,11,12.25,32.79-2.54,40.41l-.32-.5c7.05-4.38,8.93-13.5,7.46-21.22A32.53,32.53,0,0,0,117,225.46c-2.4-4.33-7.84-7.65-7.37-13.17.49-3,2.13-5.73,2.37-8.77a19.29,19.29,0,0,0-.15-5.88c-2.27-8.7-12.46-4.64-12.38-19.5-.32-14.29,13-12.68,22.72-16a9.54,9.54,0,0,0,4.62-3.3,15.58,15.58,0,0,0,1.36-11.35c-1-4-4.08-6.77-5.89-10.46-1.58-4,.06-8.63,2.93-11.57,3.11-3.23,4.64-6.17,2.47-10.49-1.85-3.54-7.2-12.14.16-12.7a10.47,10.47,0,0,1,3.1.39l-.17.57Z"/>
    <path class="cls-1" d="M102.67,132.9c-6.4,4,1.81,6.39,4.6,9.4,4.8,4.15,3.51,9.17-1.15,12.59a8.1,8.1,0,0,0-1.54,1.32c-.27.33-.31.57-.23.58s.09,0,.21.19a5.08,5.08,0,0,0,.72.94,11.85,11.85,0,0,0,3.75,2.53c.89.26,1.68.38,2.73.59,7,1.29,16.18,2.73,19,10.78,2,6-.63,12.76-4.78,17-3.22,3.53-8.78,6.61-11.27,9.61-5,6.3,3.67,10.52,6.56,15.89,3,4.58,1.89,10.32-1.35,14.12-2.2,2.9-5.32,5-7.67,7.23-2.11,1.9-1.56,4.46-1.37,7.23.32,3,1,7.06,1.35,10.05l.64,5.1-.57.16c-1.36-4.91-2.82-9.8-3.94-14.78-.48-2.5-1.13-5.24-.21-7.75,2.54-5.25,9.22-8,10.17-14.17.61-8.08-12.92-10.81-10.52-22,2.66-10.11,17.62-12.24,17.84-23.46-.28-9.58-13.92-8.13-19.92-11.86-2.75-1.84-6.27-4.82-5.3-8.54,1.1-3.51,5.88-3.84,6.7-7.31.3-1.51-.74-3-1.8-4.22-2.22-2.89-9.2-6.24-5.11-10.34a7.41,7.41,0,0,1,2.27-1.37l.21.56Z"/>
    <path class="cls-1" d="M77.1,152.58a4.41,4.41,0,0,1,3.78,2.4c1.33,2.69.25,5.65.55,8.3.26,2.24.73,2.46,2.68,3.16,6.52,2.05,7.39,10.31,4.8,15.66-1.06,2.31-3.79,4.23-4.86,6.12-.62,1.16-.31,1.79.07,2.9a11.68,11.68,0,0,0,2.93,4.23c2.23,2,6.88,4.09,9.62,6.79a19.27,19.27,0,0,1,6,14.42c-.09,3.47-1.06,6.27-1.28,8.13a5.69,5.69,0,0,0,.84,4.5c1.25,2.09,4.28,4.4,6.37,6.71a13.17,13.17,0,0,1,3,6.72,113,113,0,0,1,1.23,16l-.58.13-1.7-7.67c-1.34-4.81-1.54-10.69-6-13.79a31.52,31.52,0,0,1-5.93-5.3,10.62,10.62,0,0,1-2.34-7.66c.2-2.7.91-5.22.87-7.76a14.24,14.24,0,0,0-7.49-12.36A41.6,41.6,0,0,1,83,199.77c-3.83-3.55-7-10-3.44-14.71,1.41-2.18,4.09-3.48,5.22-5.7,1-2.19,1.4-5,.29-7.18-1.17-2.42-4.59-2.5-5.79-5.07a7,7,0,0,1-.59-4.08c.31-3.38,3-8.51-1.72-9.86l.1-.59Z"/>
    <path class="cls-1" d="M191.79,213.91c2.34,6-4.08,9-9.17,8a25.45,25.45,0,0,1-6.37-2.42,12.86,12.86,0,0,0-7.88-.88c-6.27.72-8.39,5.34-11.07,10.41a17.42,17.42,0,0,1-1.53,2.11c-2.43,2.74-6.45,3.62-10,3.42-1.76,0-3.95-.64-5.38-.13-.14,0-.22.14-.34.19a.8.8,0,0,0-.32.25,11.22,11.22,0,0,0-2.4,4.31c-.54,1.5-1.19,3.11-1.82,4.57a24.72,24.72,0,0,1-21.45,14.48l-.35-.36a2.5,2.5,0,0,1,.43-.29,35.86,35.86,0,0,0,10-6.43,30.41,30.41,0,0,0,6.51-9.63c2-4.88,4.06-12,10.6-11.86,3.45.19,6.54,1.76,10,1.23,4.6-.62,6-5.54,8.36-9a16.36,16.36,0,0,1,12.17-7.8c3.31-.34,6.55,1.33,9.22,2.91a10.55,10.55,0,0,0,7.07,1.43c2.08-.32,3.17-2.38,3.25-4.45l.49-.11Z"/>
  </g>
  <g>
    <path class="cls-2" d="M217.42,133.79c-4,.54-2.41,4.14-1,6.48a24.63,24.63,0,0,1,2.17,3.69c2.89,7.43-6.33,9.09-11.65,8.47-1.27,0-3.6,0-4.75.75-.09.08.1,0,.3-.24s.21-.6.25-.56.11.2.29.46l.13.22c2.18,3.44,2.44,7.49-1,10.28-.43.38-1,.78-1.41,1.12l-.22.19-.12.13a.35.35,0,0,0-.13.18c-.05,0,0,0,0,0h0a.07.07,0,0,1,0,.07,3.71,3.71,0,0,0,1.21,3.09c1.2,1.28,3.35,1.91,4.77,3a6.39,6.39,0,0,1,1.24,1.36,9.89,9.89,0,0,1,2,5c.35,3.46-1.84,6.65-4.54,8.43a30.28,30.28,0,0,1-9.71,3.9c-.36.11-.43.25-.75.86-1.4,3.76-.85,8.24-.16,12.78a22.15,22.15,0,0,1,.52,4,11.39,11.39,0,0,1-8.12,11.09c-5.79,1.72-11.26.62-16.71,0-2.68-.29-4.65-.8-6.51-.22-.94.44-1.94,2.15-2.53,3.09-1.9,3.22-4.44,7.34-8.78,8.15a29.88,29.88,0,0,1-8,.22c-4.46.1-4.82,7.44-6.19,10.93a4.1,4.1,0,0,1-2.05,2.42,1.43,1.43,0,0,1-.31.13l-.19.06-.38.1c-3.94.54-7.19,1.12-8.07,5.58a18.21,18.21,0,0,1-2.59,6.43,16.42,16.42,0,0,1-5.05,4.49l-.37-.48a14.59,14.59,0,0,0,6-10.75,10.47,10.47,0,0,1,.86-3.2c1.51-3.52,5.52-4.45,8.76-5.28a6,6,0,0,0,.65-2.08c.81-5,2.3-12.33,8.61-12.74a45.45,45.45,0,0,0,6.41-.26c3.41-.36,4.73-3.72,6.29-6.31,1.11-1.92,2.29-3.92,4.26-5.1,3-1.73,6.63-1.06,9.82-.79,2.15.23,4.29.44,6.43.58,6.77.59,13.76-.65,11.37-9.13a38.59,38.59,0,0,1-.19-13.09c1.71-8.29,6.3-6.37,12.34-9.28,1.69-.82,3.72-2.16,3.59-4.21a4.37,4.37,0,0,0-1.38-2.77c-.81-.46-1.68-.92-2.46-1.42-2.88-1.75-5.07-5-4.71-8.45A4.89,4.89,0,0,1,196.8,162a16.9,16.9,0,0,1,2.57-2.07c1.37-.91,1.25-2.52.65-3.87l-.69-1.43c-1.4-2.59-.19-4.79,2.68-5.29,4.26-1,8.69,1.1,12.78-.49a2.89,2.89,0,0,0,1.91-2c.38-2.06-1-4-1.89-5.83a14.37,14.37,0,0,1-1-3.15,3.53,3.53,0,0,1,3.68-4.65l0,.6Z"/>
    <path class="cls-3" d="M118.71,259.57a14.32,14.32,0,0,1,4.63-8.11,7.92,7.92,0,0,0,2.35-2.9c.7-1.55.2-3.28.23-5.06a4.34,4.34,0,0,1,1.63-2.73c1.86-1.77,4.88-4.08,5.21-6.51a28.32,28.32,0,0,0-.81-3.07,9.58,9.58,0,0,1,.58-6.85c1.06-2.07,2.7-3.85,3.75-5.72.68-1.19.38-1.69-.08-3-1-2.76-2.6-6.12-3.08-9.25-1-4.84,1.85-10.55,7-12.05a36.15,36.15,0,0,0,3.52-1.41c2.1-1,4.8-2.38,5.83-4.28.14-3.55.31-7.6,2.87-10.68a7,7,0,0,1,7.23-2.17c1.54.48,1.93,1.43,3.07,2.14a1.44,1.44,0,0,0,.71-.11l.74-.35c.1-.05.25-.21.51-.87l.22-.56.14-.34a6.06,6.06,0,0,1,6.43-3.86h.08l.08,0h0s0,0,0,.07a.64.64,0,0,0-.17.28c0,.08,0,.07.08,0a5.82,5.82,0,0,0-.24-3c-1-3-1.31-7.9,2.44-9.3,2.35-1,5.39.73,7.39-1.14a2.42,2.42,0,0,0,.55-1.77l.48-.15c.76,2.78-2.13,4.19-4.45,4.29s-4.47.16-4.74,2.86c-.46,3.36,3.86,8.2.24,10.82a5.69,5.69,0,0,1-2.32.47c-2.81.1-2.28,3-3.73,4.65s-4.35,2.78-6.57,1.64a11.25,11.25,0,0,1-2.19-1.6,4.06,4.06,0,0,0-.93,0c-3.29.67-3.08,6-3.14,8.7,0,2.87-2.36,5-4.52,6.55a33.94,33.94,0,0,1-8.15,3.95c-4.84,1.65-4,7-2.45,10.81,3.75,9.21,2.33,8.91-2.9,16.43-1.15,1.87-.38,4.18.1,6.21,1.13,5.23-4.45,8.11-7.59,11.12-.05.07,0,.05,0,.14a1.54,1.54,0,0,0,0,.24v1.11a8.2,8.2,0,0,1-2.54,6.28c-1.72,1.44-3.66,2.54-5,4.4a15.94,15.94,0,0,0-2,3.87l-.47-.17Z"/>
    <path class="cls-4" d="M173,156.31c-6-3.39-3.46,4-3.08,7.2a8,8,0,0,1-3.21,7.9c-1.54,1.09-3.69,2.08-4.38,3.51a5.81,5.81,0,0,0-.64,2.08,34.9,34.9,0,0,0,1.06,4.19,16.38,16.38,0,0,1-3.26,15c-6.93,7.86-18.27-.83-21.67,2.93a9.32,9.32,0,0,0-1.36,2.63c-.65,2-1.13,3.25-.26,5,.38.83,1.4,2,2.37,4.09,3,6.1-1.39,13.29-5.65,17.32-.64,1.09-.22,2.48.1,4.11,2.43,9.22.22,21.21-8.61,26.19a11.45,11.45,0,0,1-4.56,1.2l-.09-.49c6-1.13,9.54-7.1,10.61-12.74a26.27,26.27,0,0,0,.25-8.8c-.38-3.69-2.94-7.43-1.37-11.16,1-2.05,2.94-3.46,4-5.47,1.32-2.52,2.45-5.58,1.1-8.14s-3.77-5.13-3.46-8.34a16.13,16.13,0,0,1,3.13-8.61c6.6-8.1,19.27,5.27,24-5.52a12.23,12.23,0,0,0,1-8.45,30,30,0,0,1-.78-4.49A8.13,8.13,0,0,1,159.7,173c2.84-4,8.54-3.18,8.06-9.44-.18-2.89-1.52-10.49,3.62-8.86a7.49,7.49,0,0,1,2,1.2l-.33.38Z"/>
    <path class="cls-4" d="M146.55,168.88c-5.18,1-.21,5.08.74,7.8,2.11,4.2,0,7.6-4.31,8.75a4.24,4.24,0,0,0-1.33.48c-.21.14-.18.24-.08.21s.11-.09.14.09A7.2,7.2,0,0,0,144,190c4.07,3,8.9,5.42,10.63,10.85,1.76,5.88-2.56,11.88-7.72,14.07-3,1.5-7.87,2.22-10.1,3.52-4.5,3,.16,8.36.34,12.73a9.48,9.48,0,0,1-5.11,9.54c-2.55,1.64-5.71,1.91-8,3.32-1,1-1.4,2.6-1.88,4.12-1,3.49-2,7.41-3,10.9l-.49-.06c.6-4.53.86-10.59,2.21-14.93.73-2.71,3.58-3.73,5.87-4.7s4.55-2.1,5.77-4.19.27-4.69-.55-6.88-1.93-4.76-1.73-7.44c.42-6.12,6.13-7.92,11.1-9.22,5.95-1.3,12-6.77,6.9-12.57-2.38-2.92-6.19-4.46-8.36-7.57-2.43-3.57-3.21-8.59,2.37-9.15,2.95-.54,3.83-2.15,2.84-5-.64-2.67-4.27-6.88-.53-8.68a4.87,4.87,0,0,1,2-.32l0,.5Z"/>
    <path class="cls-4" d="M124.43,175.17c4.95,4-4.65,8.53-.29,12.81a5.33,5.33,0,0,1,1.53,3.09,8.24,8.24,0,0,1-2.39,6.21,4.55,4.55,0,0,1-.75.63c-1.38.92-3.26,1.33-4.46,2.31-1.92,1.37-1.82,4.31-1.32,6.48.61,2.77,2.21,4.49,4,7a14.1,14.1,0,0,1,2,13.17c-.79,2.21-2.06,3.95-2.63,5.33a5.84,5.84,0,0,0-.38,4c.45,2.6,2.75,5.4,3,8.48-.07,5.26-2.05,9.93-3.67,14.8l-.49-.09c0-3.95.29-7.95.38-11.71a14.29,14.29,0,0,0-.19-2.5c-.63-2-2.36-3.95-3.21-6a10.73,10.73,0,0,1-.17-9c1-2.21,2.18-3.61,2.8-5.07a9.21,9.21,0,0,0-.74-9.14c-1.49-2.32-3.65-5.4-4-8.5a11.27,11.27,0,0,1-.18-1.64,10.1,10.1,0,0,1,.81-5.09c1.17-2.74,4.2-3.81,6.71-4.63a2.62,2.62,0,0,0,.87-.52c1.78-1.64,3-4.42,1.24-6.38-4.86-6.12,5.38-9.53,1.39-13.53l.27-.41Z"/>
    <path class="cls-4" d="M183.1,251.13c.31,5-5.22,5.63-8.61,3.35a18.19,18.19,0,0,1-3.65-3.52,9.91,9.91,0,0,0-6.38-3.29c-5.33-.75-7.69,6.4-13,6.13a11.72,11.72,0,0,1-2-.25,16.82,16.82,0,0,1-4.61-2,2.36,2.36,0,0,0-1.22-.41,6.38,6.38,0,0,0-2.27,1.83c-4.85,6.47-13.16,10.28-21,6.83l-.26-.11a.48.48,0,0,1-.16-.09l-.2-.46a20.54,20.54,0,0,1,2.46-.36,20.35,20.35,0,0,0,12.64-6.58c2.5-2.67,5.06-6.21,9.3-5.75,3.13.57,4.32,2.84,6.83,4.08l.9.35a4.46,4.46,0,0,0,4.06-.83c2.59-1.81,4.88-4.41,8.25-5.17,3.55-.95,7.86,0,10.06,3.17a33.9,33.9,0,0,0,2.56,3.26c2.06,1.84,4.25,2.5,5.79-.3l.5.08Z"/>
  </g>
  <g>
    <path class="cls-5" d="M124.87,242.87c-9.61-6.46-23-8.73-34.26-6.36a36.66,36.66,0,0,0-5.94,1.74C70.52,243.78,70,256,89,262.29c8.32,2.76,31.34,4.42,39.2,1.09C137.93,259.26,132.63,248.08,124.87,242.87Z"/>
    <path class="cls-6" d="M124.87,242.87c-9.61-6.46-23-8.73-34.26-6.36a36.66,36.66,0,0,0-5.94,1.74C77.6,241,73.94,245.44,74.42,250a37.11,37.11,0,0,0,7.93,3.63c8.32,2.75,31.34,4.42,39.2,1.08,5.29-2.25,6.11-6.6,4.51-10.94C125.67,243.43,125.27,243.14,124.87,242.87Z"/>
  </g>
</svg>
