<svg id="Layer_1" data-name="Layer 1" xmlns="http://www.w3.org/2000/svg" width="281.48" height="296.47" viewBox="0 0 281.48 296.47">
  <defs>
    <style>
      .cls-1 {
        fill: #d45353;
      }

      .cls-2 {
        fill: #423628;
      }

      .cls-3 {
        fill: #564837;
      }
    </style>
  </defs>
  <path class="cls-1" d="M200.85,201.86a14.72,14.72,0,0,0-7.83,2.93,16.47,16.47,0,0,0-2.27-.17,33.47,33.47,0,0,0-11.68,2.64c1.9-1.79,3.62-3.79,3.81-6.17l0-.36-.39-.09a4.58,4.58,0,0,0-4.46,1.6,12,12,0,0,0-3.05,6.81c-1.67.81-2.9,1.5-3.44,1.81-1.82,1-3.59,1.95-5.35,2.78a6.85,6.85,0,0,0,1.55-4.17l0-.33-.37-.07a2.88,2.88,0,0,0-.59-.06c-2.94,0-5.73,4.26-7.52,7.34a40.63,40.63,0,0,1-11,1.86c.68-.42,1.34-.83,1.94-1.23s2.78-3.78,2.27-5.12a1.08,1.08,0,0,0-1.08-.65l-.19,0c-2.24.83-5.68,4.18-7.53,6.81-1.09-.11-2.19-.27-3.28-.48a54.75,54.75,0,0,0,7.79-6,44.66,44.66,0,0,1,8.28-6.16c1.84-1,3.81-1.85,5.79-2.7,3.32,1.34,6.94,2.54,10.34,2.54a12.64,12.64,0,0,0,2.44-.23l.45-.09-.06-.4c-.37-2.48-4.32-3.6-8.3-3.9a84,84,0,0,0,9.51-4.58h.44c2.32,0,16.29-1,16.28-3.39a1.39,1.39,0,0,0-.39-1.2,3.14,3.14,0,0,0-2.22-.62c-2.4,0-6.25,1.07-9.55,2.15.23-.19.48-.36.71-.55,4.8-4,5.52-9.26,6.16-13.93,0-.13,0-.25,0-.37,3.93-.52,10.46-2.34,12.23-4.34a1.6,1.6,0,0,0,.45-1.53c-.09-.34-.43-.91-1.6-.91-2.2,0-6.52,2-10.67,4.06.86-4.75,2.52-8.14,9.74-9.48a2,2,0,0,0,1.25-.74,1.59,1.59,0,0,0,.28-1.31,2,2,0,0,0-2.33-1.35,24.92,24.92,0,0,0-3.47.9c1.55-2.93,2.85-6.48,2.94-8.93v-.4l-.45-.06a4,4,0,0,0-3.42,1.23c-2.17,2.24-2.56,6.85-2.45,9.7-5.1,3.12-5.79,8.17-6.46,13.11-.47,3.42-1,6.93-3.08,9.8.41-4.43.17-10.32-4.46-12l-.49-.18-.17.44c-.7,1.79,0,4.07.69,6.09.18.56.35,1.1.48,1.59s.22,1,.35,1.52a23.15,23.15,0,0,0,1.39,4.77c-4.33,3.48-9.86,5.82-15.22,8.07l-.17.07-2.27,1c1.22-2.76,2.42-6.3,1.65-7.94a1.68,1.68,0,0,0-1.27-1,1.86,1.86,0,0,0-1.81.66c-1.52,1.71-1.76,6.61-1.64,9.6-1.24.57-2.49,1.14-3.68,1.77-.12.06-.22.14-.33.2a34.3,34.3,0,0,0,2.93-8.27c.29-1.3.49-2.6.68-3.9,3.09-1.38,7.4-4,8.27-6a1.41,1.41,0,0,0-.34-1.83,1.77,1.77,0,0,0-1.19-.42c-1.67,0-3.85,1.87-6.22,4.32a36.44,36.44,0,0,1,1.23-6c.75-2.41,1.76-4.82,2.76-7.19.7-1.64,1.4-3.35,2-5.08.86-.37,1.77-.83,2.66-1.29a29.74,29.74,0,0,1,3-1.42,45.11,45.11,0,0,0,8.17-3.15l.48-.25-.34-.4a4.44,4.44,0,0,0-3.52-1.5c-2.94,0-6.53,2.07-9.33,4.22,1.56-7,0-13.64-1.43-20.11l-.09-.39c3.17-2.26,7-6.08,8.39-8.91l.18-.37-.4-.19a4,4,0,0,0-1.77-.42c-3,0-5.58,3.4-7.16,6.43a53.88,53.88,0,0,1-1.17-8A31.83,31.83,0,0,1,167,114.34c.82.07,1.64.08,2.14.08.82,0,8-.06,9.62-2a1.32,1.32,0,0,0,.28-1.33c-.19-.54-.76-1.19-2.41-1.19-2,0-5.2,1-7.76,1.84a27.84,27.84,0,0,1,10.37-8.26,1.64,1.64,0,0,0,.84-2.33,2.17,2.17,0,0,0-2.65-.76,32,32,0,0,0-3.69,2c1-3.33,1.19-6.63-1.78-8.3l-.34-.19-.29.26c-2.19,2-1.63,4.4-1.22,6.16.06.25.12.49.15.68a16.27,16.27,0,0,1,0,1.7,21.54,21.54,0,0,0,0,2.26,33.38,33.38,0,0,0-5.48,6c-.29-3.62-1.32-7.34-5-9.25l-.37-.2-.28.3c-.21.23-.86.93,0,4.18a32.31,32.31,0,0,0,3.56,8.27,35.36,35.36,0,0,0-4.55,16.58c-1.31-2.55-3.1-4.83-5.94-5.91l-.41-.15-.22.33c-.59.85-.3,2.39.88,4.56a24.82,24.82,0,0,0,6.22,7.47c.42,2.72,1,5.39,1.6,8s1.12,5,1.5,7.38c-1.87-2.2-4.43-3.88-7.81-3.53l-.45.05v.39c0,2.09,2.39,3.44,4.32,4.53.36.2.7.39,1,.56.66.47,1.35,1.1,2.09,1.75.44.41.89.8,1.34,1.18a24.24,24.24,0,0,1-1.31,9.07c-.66,1.88-1.46,3.77-2.26,5.68-.92,2.18-1.84,4.43-2.6,6.73-.63-4-2.08-7.92-6.43-9l-.55-.14-.09.5c-.33,2,1,4.33,2.13,6.37.32.55.62,1.08.87,1.57s.55,1.38.85,2.23a21.68,21.68,0,0,0,1.83,4.25c-.18,1.13-.33,2.24-.47,3.34-.23,1.77-.48,3.78-.91,5.68a31.77,31.77,0,0,1-2.27,6.76c-.43-3-1.4-5.87-2.5-7.06l-.31-.33-.39.27c-3.18,2.23-1.34,7.87.21,12a36.45,36.45,0,0,1-10.34,8.79,2.34,2.34,0,0,0-.7-.06,30.06,30.06,0,0,0-.56-3.46,28.54,28.54,0,0,1-.5-3.31c3.28-2.34,8-6,8-9.37v-.32l-.35-.1a3.35,3.35,0,0,0-1-.13c-2.28,0-4.57,2.16-6.29,4.6a36.4,36.4,0,0,1,1.55-5.19,42.46,42.46,0,0,0,2.38-20.5c2.55-3.51,5.27-7.7,3.89-11.75l-.14-.41-.47.11c-1.78.41-3.29,3.26-4,4.93-.15.34-.31.71-.46,1.1-.71-2.71-1.56-5.34-2.42-7.92-.62-1.87-1.22-3.72-1.77-5.57,3.36-3.25,6.79-8.13,5.55-12.72l-.13-.48-.52.16c-2.67.83-3.69,3.81-4.52,6.2-.13.4-.26.78-.38,1.11a20.92,20.92,0,0,1-1,1.95,33.3,33.3,0,0,1-.86-9.42,47.74,47.74,0,0,1,1.82-9.25c.13-.54.27-1.08.41-1.62,3.51-1.87,9.37-5.93,10.27-7.61a.88.88,0,0,0,0-1.09,2.36,2.36,0,0,0-1.78-.76c-2.16,0-5.12,2.57-7.49,5.1a28,28,0,0,0,.53-5.24c0-4.06-1.13-7.92-2.21-11.69-.5-1.76-1-3.56-1.41-5.37a30.68,30.68,0,0,0,3.63-3.08c.45-.42.83-.78,1.09-1l.17-.14c2.23-1.81,4.16-3.39,4.31-6.4v-.33l-.36-.11a5,5,0,0,0-1.32-.19c-3.46,0-6.23,4-8.09,7.45-.69-9.07,3.92-18.78,10.14-26l1.19,0c1,0,9.74-.07,10.21-2.34a1.23,1.23,0,0,0-.29-1.13,2.93,2.93,0,0,0-2.16-.61,27.66,27.66,0,0,0-6.12,1,40.61,40.61,0,0,1,3.41-3,1.6,1.6,0,0,0,.16-2.45,2.21,2.21,0,0,0-2.77-.16,50.63,50.63,0,0,0-10.57,11.45c0-2.72-.58-5.5-1.46-6.66L134,72.1l-.41.23c-3.28,1.82-1.85,7.51-.9,11.27l.12.49a37.66,37.66,0,0,0-4.09,13c-1.94-3.59-4.35-6.9-7.57-8.93l-.48-.3-.27.47c-1.63,2.85,1.43,6.11,3.46,8.25l.18.2c.45.47,1,1.08,1.53,1.74a34.12,34.12,0,0,0,3,3.22c0,.88.13,1.76.25,2.64a63.42,63.42,0,0,0,1.92,8,43,43,0,0,1,2,10.13c-3.06-5.32-6.82-8.27-11.26-8.69l-.59-.06,0,.52c.16,2.37,2.88,4.29,5.07,5.83.5.35,1,.69,1.37,1a28.19,28.19,0,0,1,2.28,2.32,30.81,30.81,0,0,0,2.9,2.92,60.71,60.71,0,0,1-1.59,7.3,65,65,0,0,0-1.66,7.51,36,36,0,0,0-3.18-3.5c-.37-.35-5-2.49-6.82-2.49-.84,0-1.13.43-1.13.83l0,.14c.67,1.77,2.77,2.9,4.61,3.9a22.78,22.78,0,0,1,2,1.17,18.2,18.2,0,0,1,2.82,2.4c.47.46.93.9,1.4,1.31a45,45,0,0,0,2.34,14l0,.82.23-.18c.41,1.31.83,2.6,1.26,3.88s.76,2.31,1.13,3.47c-3.85-3.44-8.21-6.61-12.89-7.61l-.56-.12-.06.51c-.31,3.2,3.9,5.21,6.68,6.54l.25.12c.62.29,1.35.69,2.15,1.12a28.85,28.85,0,0,0,5.32,2.44,51.53,51.53,0,0,1,1.33,5.84,38.91,38.91,0,0,1-.33,13.86c-2.08-4.39-6.07-8-11.26-8h-.65l.16.55c.56,1.85,2.49,3.21,4.37,4.52a23.69,23.69,0,0,1,2.09,1.57,18.27,18.27,0,0,1,2.73,3c.56.71,1.11,1.39,1.67,2-.26.86-.55,1.71-.86,2.56a30.53,30.53,0,0,0-2.18,9.77,14.32,14.32,0,0,0-5.71-4.94l-.52-.23-.18.49c-1,2.58,1.53,5.34,3.35,7.36l.71.8a30.74,30.74,0,0,1,1.77,2.61c.54.86,1.09,1.72,1.66,2.49,0,.33,0,.66.05,1-6.14-3.62-9.86-7.09-12.19-13.4a50.54,50.54,0,0,0-2.35-5.49c2.11-3.86,4.22-8.81,1.38-12.46l-.28-.36-.41.24c-2.3,1.35-2.42,5.26-2.42,6a18.6,18.6,0,0,1-.37,2.83l0,.13a21.88,21.88,0,0,0-1.52-2,43.12,43.12,0,0,0-4-4.06c-.72-.67-1.43-1.33-2.1-2a22.64,22.64,0,0,0,1.52-4,17.25,17.25,0,0,1,1-2.74,10.91,10.91,0,0,0,1.12-5.72v-.46l-.52,0A4.17,4.17,0,0,0,109,172.9c-1.91,1.92-2.36,5.75-2.28,9.38-.16-.2-.32-.39-.46-.59-2.34-3.35-2.57-7.21-2.82-11.34-.21-3.44-.42-7-1.93-10.44a22.63,22.63,0,0,0-1.51-2.83c1.52-3.85,3.33-8.89.62-12.57l-.22-.3-.38.13a3.21,3.21,0,0,0-1.82,2,17.18,17.18,0,0,0-.63,7.42,50.29,50.29,0,0,0-10-8.68c0-.16.05-.32.07-.5.56-3.6,1.25-8.1-1.15-11l-.23-.28-.36.13A3.07,3.07,0,0,0,84,135.8c-.51,2.06,0,5.08.8,7.43-1.16-.74-2.31-1.45-3.46-2.13a2.2,2.2,0,0,0-2.73.47,1.57,1.57,0,0,0-.3,1.3,1.71,1.71,0,0,0,.83,1.1c2.33,1.39,4.71,2.91,7,4.53a11.17,11.17,0,0,0-1.17-.06,8.37,8.37,0,0,0-5.35,1.5l-.23.19.1.26c.53,1.44,3.16,1.75,5.28,1.75a22.53,22.53,0,0,0,5.29-.64,28,28,0,0,1,7.78,9.68,21.15,21.15,0,0,1,1.5,6.93l-.08-.08c-.57-.54-1.1-1-1.48-1.45l-.16-.17c-2-2.07-3.79-4-7.3-4.07h-.5v.44c-.11,3.58,6,7.17,9.78,9.08.27,4,.73,8,3.31,11.66a23.69,23.69,0,0,0,2.51,3,18.43,18.43,0,0,0-4.66-.72,7.77,7.77,0,0,0-5,1.56l-.33.27.25.32c1.35,1.67,5.83,1.85,7.7,1.85a26.43,26.43,0,0,0,5-.45,36.51,36.51,0,0,1,3.34,3.36,30.6,30.6,0,0,1,4.73,8.37,14.24,14.24,0,0,0-7.16-2.63,5.57,5.57,0,0,0-1.25.13l-.52.12.16.44c1.18,3.28,7,5.95,11.4,7.92,2.52,4.48,6,7.5,11,10.52a25.75,25.75,0,0,1-5.53.53,51.15,51.15,0,0,1-6.58-.48l-1.85-3.41c-1.2-2.25-2.44-4.58-3.75-6.84l-.22-.39-.45.2c-1.63.73-2.23,2.24-1.69,4.25a14.36,14.36,0,0,0,3.21,5.33c-5.44-1.33-9.14-4.8-13-8.92a21.43,21.43,0,0,0,.13-10l-.12-.35h-.42a2.78,2.78,0,0,0-2.46,1.25c-.88,1.33-.84,3.54-.46,5.66a35.81,35.81,0,0,0-12.89-8.65c-.42-2.83-1.85-8.9-6.37-8.9a5.69,5.69,0,0,0-.91.08l-.42.08,0,.38c.08,2,2.17,5.09,4.26,7.28a23.49,23.49,0,0,0-5.4-.68,16.94,16.94,0,0,0-4.39.56,13.48,13.48,0,0,0-4.67-1.08,4.57,4.57,0,0,0-3.54,1.42l-.23.25.2.27c.75,1,2.76,1.23,4.07,1.25A10.59,10.59,0,0,0,64,199.82a1.55,1.55,0,0,0-.07,1.33,1.74,1.74,0,0,0,1,1,2.11,2.11,0,0,0,2.61-.82,7.17,7.17,0,0,1,5.19-3.69,4.36,4.36,0,0,0-1.47,1.26,2.44,2.44,0,0,0-.27,2.23l.09.25.31.06a3.73,3.73,0,0,0,.59,0c2.32,0,5.21-2,6.61-3.73a21.09,21.09,0,0,1,2.39.58,27.47,27.47,0,0,1,6.86,3.21c-3.33.06-7.3,1.07-8,3.76l-.1.4.44.12a3.34,3.34,0,0,0,.91.09,53.52,53.52,0,0,0,10.4-1.61,74.09,74.09,0,0,1,5.5,5.44c.67.72,1.34,1.43,2,2.13a13.76,13.76,0,0,0-2.19-.18c-2.44,0-4.29.71-5.21,2l-.21.3.28.25c1,.92,2.59,1.36,4.79,1.36a37,37,0,0,0,5.43-.56l.46-.07a23.79,23.79,0,0,0,10.93,5.38,60.1,60.1,0,0,0,11.28,1.2,27.09,27.09,0,0,0,8.41-1.15H133a3.42,3.42,0,0,0,.45,0c.5-.11,1-.25,1.47-.39a2.14,2.14,0,0,0,.45-.05,40.68,40.68,0,0,0,11.74,1.76,46.5,46.5,0,0,0,15-2.62,45.61,45.61,0,0,0,9.59,1.36c2.43,0,3.74-.47,4-1.44a1.31,1.31,0,0,0-.26-1.28c-.64-.71-2.18-1.06-4.7-1.06-.92,0-1.9,0-2.87.11,1.93-.88,3.86-1.86,5.81-3A53.16,53.16,0,0,1,182,209.9c2.38,1.49,6.18,3.41,8.46,3.41a2.17,2.17,0,0,0,1.87-.76,1.3,1.3,0,0,0,.17-1.49c-.62-1.16-3.21-2-5.84-2.49a19.75,19.75,0,0,1,4.06-.48,10.66,10.66,0,0,1,2.84.35,5.88,5.88,0,0,1,4,3.47,2.1,2.1,0,0,0,2.54,1,1.89,1.89,0,0,0,1.09-.92,1.55,1.55,0,0,0,0-1.33,9.43,9.43,0,0,0-3.86-4.37c2.57-.28,5.11-.85,6.88-2.42l.28-.26-.22-.3A4,4,0,0,0,200.85,201.86Z"/>
  <g>
    <path class="cls-2" d="M151,206.16c-14.52-8.06-34-9.92-50-5.51a55.44,55.44,0,0,0-8.35,3c-19.75,9.11-19.12,26.16,8.89,33.13,12.27,3,45.57,3.09,56.5-2.33C171.55,227.76,162.71,212.67,151,206.16Z"/>
    <path class="cls-3" d="M151,206.16c-14.52-8.06-34-9.92-50-5.51a55.44,55.44,0,0,0-8.35,3C82.78,208.21,78,214.75,79.19,221A54.14,54.14,0,0,0,91,225.3c12.27,3,45.57,3.09,56.51-2.34,7.37-3.65,8.08-9.81,5.29-15.71C152.19,206.87,151.59,206.5,151,206.16Z"/>
  </g>
</svg>
