<svg id="Layer_1" data-name="Layer 1" xmlns="http://www.w3.org/2000/svg" width="281.48" height="296.47" viewBox="0 0 281.48 296.47">
  <defs>
    <style>
      .cls-1 {
        fill: #d45353;
      }

      .cls-2 {
        fill: #607718;
      }

      .cls-3 {
        fill: #423628;
      }

      .cls-4 {
        fill: #564837;
      }
    </style>
  </defs>
  <path class="cls-1" d="M207.13,181.9a15.09,15.09,0,0,0-7.52,3.73,16.41,16.41,0,0,0-2.3.1,34.67,34.67,0,0,0-11.42,3.9c1.71-1.95,3.21-4.08,3.14-6.4v-.35l-.41,0a4.77,4.77,0,0,0-4.29,2.06,11.38,11.38,0,0,0-2.29,6.93c-1.59,1-2.75,1.78-3.26,2.14-1.7,1.22-3.38,2.3-5.05,3.3a6.5,6.5,0,0,0,1.09-4.2l-.06-.31-.37,0a2.41,2.41,0,0,0-.6,0c-2.95.34-5.27,4.77-6.73,8a42.37,42.37,0,0,1-10.8,3.06c.64-.48,1.25-1,1.8-1.41s2.38-4,1.72-5.2a1.1,1.1,0,0,0-1.15-.51l-.19.06c-2.16,1.06-5.24,4.69-6.79,7.44-1.11,0-2.23,0-3.35-.08a55.9,55.9,0,0,0,7.15-6.67,44.87,44.87,0,0,1,7.61-6.9c1.74-1.15,3.62-2.22,5.51-3.27,3.47.91,7.23,1.65,10.64,1.26a12.73,12.73,0,0,0,2.43-.51l.44-.14-.11-.38c-.65-2.34-4.73-3-8.75-2.8a88.18,88.18,0,0,0,9-5.52l.43,0c2.33-.26,16.22-2.83,16-5.15a1.32,1.32,0,0,0-.54-1.11,3.19,3.19,0,0,0-2.28-.35c-2.41.28-6.15,1.76-9.35,3.18.22-.21.45-.4.66-.61,4.37-4.39,4.5-9.57,4.63-14.16,0-.12,0-.24,0-.36,3.88-.95,10.22-3.46,11.77-5.6a1.51,1.51,0,0,0,.29-1.52c-.13-.32-.53-.84-1.71-.7-2.2.25-6.32,2.64-10.24,5.15.33-4.68,1.62-8.15,8.71-10.27a2,2,0,0,0,1.17-.87,1.48,1.48,0,0,0,.13-1.29,2,2,0,0,0-2.48-1,25.56,25.56,0,0,0-3.38,1.27c1.22-3,2.14-6.59,1.95-9l0-.39h-.46a4,4,0,0,0-3.29,1.57c-1.93,2.42-1.81,6.91-1.38,9.65-4.76,3.6-4.9,8.56-5,13.39-.09,3.37-.21,6.81-2,9.82-.09-4.32-1-10-5.81-11l-.51-.11-.12.44c-.5,1.8.49,3.93,1.36,5.8.25.52.49,1,.67,1.48s.33.89.51,1.43a22.48,22.48,0,0,0,1.93,4.44c-4,3.85-9.24,6.75-14.36,9.54l-.16.09-2.18,1.2c.92-2.8,1.73-6.35.78-7.84a1.67,1.67,0,0,0-1.38-.8,1.94,1.94,0,0,0-1.74.84c-1.34,1.83-1,6.59-.58,9.46-1.18.7-2.37,1.39-3.5,2.14l-.3.22a32.2,32.2,0,0,0,2-8.31c.14-1.29.2-2.57.24-3.84,3-1.69,7-4.77,7.64-6.72a1.34,1.34,0,0,0-.55-1.73,1.86,1.86,0,0,0-1.24-.27c-1.67.2-3.65,2.25-5.76,4.89a34.08,34.08,0,0,1,.58-5.89,73.68,73.68,0,0,1,2-7.26c.51-1.67,1-3.4,1.47-5.14.83-.46,1.69-1,2.53-1.55a33.14,33.14,0,0,1,2.89-1.73,46.18,46.18,0,0,0,7.84-4l.46-.3-.39-.34a4.59,4.59,0,0,0-3.7-1c-2.94.33-6.31,2.75-8.88,5.15.79-6.93-1.47-13.17-3.67-19.24,0-.12-.08-.25-.13-.37,2.93-2.55,6.37-6.68,7.42-9.57l.14-.38-.42-.14a4.22,4.22,0,0,0-1.82-.19c-3.05.35-5.22,3.92-6.46,7a51.41,51.41,0,0,1-2.07-7.57,30,30,0,0,1,2.93-18.21c.82,0,1.65-.11,2.16-.17.81-.1,8-1,9.41-3a1.25,1.25,0,0,0,.13-1.32c-.24-.5-.88-1.06-2.54-.87-2.06.24-5.1,1.54-7.58,2.67a27.77,27.77,0,0,1,9.48-9.16,1.58,1.58,0,0,0,.58-2.36,2.22,2.22,0,0,0-2.73-.42,32.35,32.35,0,0,0-3.48,2.39c.64-3.33.46-6.53-2.7-7.8l-.37-.15-.25.28c-2,2.17-1.15,4.44-.55,6.09.09.24.17.47.23.64a13.38,13.38,0,0,1,.18,1.64,20.8,20.8,0,0,0,.22,2.19,32.83,32.83,0,0,0-4.83,6.42c-.69-3.46-2.14-6.93-6-8.36l-.39-.14-.25.32c-.18.24-.76,1,.44,4a30.4,30.4,0,0,0,4.49,7.57,33.5,33.5,0,0,0-2.72,16.54,11.28,11.28,0,0,0-6.61-5l-.42-.1-.19.34c-.5.9,0,2.34,1.38,4.3a24.41,24.41,0,0,0,7.07,6.49c.72,2.58,1.61,5.09,2.49,7.53s1.67,4.65,2.33,6.95a9.09,9.09,0,0,0-8.23-2.5l-.44.09,0,.38c.24,2,2.78,3.05,4.83,3.87.38.16.75.3,1,.43a25.85,25.85,0,0,1,2.29,1.46c.49.33,1,.66,1.48,1a23,23,0,0,1-.31,8.91c-.46,1.89-1.05,3.81-1.64,5.75-.68,2.2-1.35,4.48-1.86,6.79-1.07-3.78-3-7.41-7.44-8l-.57-.08,0,.5c-.11,2,1.46,4.06,2.84,5.9.38.49.74,1,1,1.42s.71,1.27,1.1,2.05a20.39,20.39,0,0,0,2.31,3.89c-.05,1.11-.08,2.2-.1,3.28,0,1.74-.07,3.7-.28,5.58a30.19,30.19,0,0,1-1.53,6.79c-.76-2.81-2.05-5.51-3.29-6.52l-.35-.29-.36.3c-2.94,2.52-.46,7.76,1.54,11.58a36.38,36.38,0,0,1-9.38,9.68,2.42,2.42,0,0,0-.71,0,30.88,30.88,0,0,0-.94-3.27,25.94,25.94,0,0,1-.87-3.14c3-2.63,7.35-6.72,7-10l0-.31-.36-.06a3.94,3.94,0,0,0-1,0c-2.29.27-4.35,2.62-5.8,5.17a35.42,35.42,0,0,1,1-5.18,39.88,39.88,0,0,0,.12-20.06c2.16-3.69,4.42-8,2.59-11.79l-.18-.38-.46.15c-1.75.6-3,3.53-3.5,5.22-.12.35-.23.73-.34,1.12-1-2.53-2.15-5-3.3-7.36-.83-1.74-1.64-3.46-2.39-5.18,3-3.52,5.9-8.63,4.15-12.91l-.19-.46-.51.23c-2.57,1.1-3.27,4.1-3.83,6.5-.09.4-.18.78-.27,1.12a19.5,19.5,0,0,1-.76,2,31.3,31.3,0,0,1-1.91-9,46,46,0,0,1,.8-9.15c.08-.53.15-1.07.23-1.6,3.32-2.21,8.74-6.81,9.46-8.53a.83.83,0,0,0-.15-1,2.41,2.41,0,0,0-1.87-.53c-2.16.25-4.84,3.07-6.94,5.78a25.78,25.78,0,0,0,0-5.12c-.47-3.91-2-7.51-3.51-11-.7-1.64-1.41-3.32-2-5a31.81,31.81,0,0,0,3.3-3.39c.4-.46.74-.85,1-1.1l.15-.15c2-2,3.8-3.75,3.61-6.67l0-.33-.38-.06a5,5,0,0,0-1.34,0c-3.47.4-5.81,4.56-7.28,8.12-1.7-8.67,1.84-18.57,7.28-26.27l1.19-.12c1-.12,9.76-1.19,10-3.43a1.19,1.19,0,0,0-.41-1.06,3.07,3.07,0,0,0-2.24-.34,28.58,28.58,0,0,0-6,1.71,40.27,40.27,0,0,1,3.09-3.27,1.52,1.52,0,0,0-.11-2.38,2.3,2.3,0,0,0-2.8.17A50.33,50.33,0,0,0,128.22,71c-.32-2.63-1.19-5.25-2.21-6.27l-.31-.31-.38.27c-3.09,2.13-1,7.46.34,11,.06.16.12.3.17.45a36.08,36.08,0,0,0-2.66,13c-2.34-3.24-5.12-6.16-8.58-7.75l-.51-.23-.21.48c-1.32,2.94,2.11,5.73,4.37,7.57l.21.17c.5.4,1.09.93,1.73,1.5a35.41,35.41,0,0,0,3.33,2.77,24.46,24.46,0,0,0,.55,2.51,56.57,56.57,0,0,0,2.81,7.47,41,41,0,0,1,3.16,9.55c-3.66-4.78-7.76-7.19-12.26-7.09h-.6l.1.5c.42,2.27,3.37,3.81,5.73,5,.54.28,1.06.55,1.49.8a26.4,26.4,0,0,1,2.53,2,32.2,32.2,0,0,0,3.24,2.48,56.38,56.38,0,0,1-.78,7.22,58.79,58.79,0,0,0-.83,7.44,34.92,34.92,0,0,0-3.58-3c-.41-.3-5.26-1.83-7.12-1.62-.83.09-1.08.54-1,.93l0,.14c.87,1.62,3.1,2.47,5.06,3.22.77.3,1.5.58,2.14.9a17.7,17.7,0,0,1,3.09,2c.53.39,1,.76,1.55,1.1a42.28,42.28,0,0,0,3.91,13.27l.06.79L133,149c.55,1.21,1.12,2.41,1.69,3.6s1,2.13,1.52,3.22c-4.24-2.88-9-5.44-13.76-5.87l-.59-.05v.5c0,3.12,4.48,4.58,7.42,5.55l.26.08c.65.21,1.43.51,2.28.83a28.62,28.62,0,0,0,5.61,1.74,46.48,46.48,0,0,1,2,5.49,36.11,36.11,0,0,1,1.21,13.41c-2.57-4-7-7-12.18-6.45l-.65.07.23.52c.76,1.72,2.85,2.81,4.87,3.85a24.53,24.53,0,0,1,2.27,1.28,17.6,17.6,0,0,1,3.07,2.59c.65.62,1.27,1.22,1.9,1.73-.16.86-.36,1.71-.58,2.57a28.86,28.86,0,0,0-1.1,9.68,14.18,14.18,0,0,0-6.27-4.11l-.55-.16-.13.49c-.67,2.6,2.14,5,4.18,6.72.29.25.57.48.8.69a30.54,30.54,0,0,1,2.07,2.32c.64.76,1.28,1.53,1.93,2.21.08.31.12.63.17,1-6.56-2.79-10.67-5.71-13.71-11.53a51.59,51.59,0,0,0-3-5c1.68-4,3.25-9,0-12.18l-.32-.32-.39.28c-2.16,1.57-1.84,5.35-1.75,6.1a17.23,17.23,0,0,1-.07,2.78.49.49,0,0,1,0,.12,24.26,24.26,0,0,0-1.74-1.78,44.19,44.19,0,0,0-4.51-3.45c-.81-.57-1.59-1.12-2.34-1.69a21.32,21.32,0,0,0,1.09-4,16.28,16.28,0,0,1,.71-2.76,10.31,10.31,0,0,0,.49-5.65l-.05-.45-.53.08a4.28,4.28,0,0,0-2.72,1.52c-1.7,2.07-1.73,5.82-1.25,9.32-.18-.18-.36-.34-.53-.52-2.72-3-3.38-6.66-4.08-10.62-.59-3.3-1.21-6.71-3.1-9.85a21.62,21.62,0,0,0-1.82-2.56c1.09-3.89,2.35-9-.77-12.2l-.26-.27-.37.17a3.17,3.17,0,0,0-1.6,2.13,16.1,16.1,0,0,0,.19,7.24,49.46,49.46,0,0,0-10.94-7.23c0-.17,0-.32,0-.49.15-3.55.35-8-2.38-10.52l-.26-.24-.35.16a3,3,0,0,0-1.67,2.55c-.28,2,.56,4.9,1.63,7.08-1.24-.58-2.48-1.13-3.7-1.66a2.3,2.3,0,0,0-2.69.77,1.48,1.48,0,0,0-.16,1.29,1.67,1.67,0,0,0,1,1c2.49,1.07,5,2.26,7.51,3.56-.39,0-.78,0-1.18.09a8.59,8.59,0,0,0-5.2,2.06l-.2.21.12.24c.69,1.33,3.37,1.32,5.49,1.08a24.15,24.15,0,0,0,5.23-1.23,27.28,27.28,0,0,1,8.87,8.44,19.85,19.85,0,0,1,2.28,6.52l-.09-.07c-.63-.46-1.22-.87-1.64-1.23l-.18-.14c-2.19-1.77-4.25-3.44-7.77-3.09l-.51.05,0,.42c.29,3.47,6.76,6.24,10.82,7.64.7,3.78,1.61,7.62,4.61,10.88a22.88,22.88,0,0,0,2.84,2.55,19.47,19.47,0,0,0-4.75-.16,8,8,0,0,0-4.81,2.08l-.3.3.29.28c1.53,1.45,6,1.11,7.92.9a27.5,27.5,0,0,0,4.94-1,34.93,34.93,0,0,1,3.72,2.86,29.55,29.55,0,0,1,5.68,7.53,14.72,14.72,0,0,0-7.47-1.71,5.88,5.88,0,0,0-1.25.27l-.5.17.21.41c1.54,3,7.68,4.93,12.3,6.33,3,4,6.89,6.54,12.23,8.88a27.47,27.47,0,0,1-5.48,1.16,54.34,54.34,0,0,1-6.65.29l-2.24-3.09c-1.45-2-2.95-4.13-4.51-6.16l-.27-.36-.43.25c-1.55.89-2,2.42-1.22,4.3a13.63,13.63,0,0,0,3.81,4.77c-5.6-.65-9.7-3.58-14-7.11a20.18,20.18,0,0,0-1-9.68l-.17-.33-.41,0a2.83,2.83,0,0,0-2.33,1.49c-.74,1.39-.45,3.51.16,5.52a36.26,36.26,0,0,0-13.87-6.86c-.75-2.69-2.86-8.38-7.39-7.86a6.23,6.23,0,0,0-.9.18l-.41.12.06.37c.3,1.94,2.74,4.66,5.08,6.53a25.24,25.24,0,0,0-5.49,0A17.36,17.36,0,0,0,76,189.77a14,14,0,0,0-4.8-.51,4.72,4.72,0,0,0-3.4,1.78l-.2.27.23.23c.86.9,2.9.87,4.22.74a10.36,10.36,0,0,0-2.34,3.43,1.48,1.48,0,0,0,.07,1.3,1.84,1.84,0,0,0,1.13.83,2.19,2.19,0,0,0,2.53-1.1,7.21,7.21,0,0,1,4.79-4.16A4.26,4.26,0,0,0,76.88,194a2.26,2.26,0,0,0,0,2.17l.12.24.31,0a3.06,3.06,0,0,0,.6,0c2.33-.27,5-2.52,6.21-4.36a21.75,21.75,0,0,1,2.46.29,27.81,27.81,0,0,1,7.24,2.3c-3.33.45-7.2,1.87-7.6,4.56l-.06.39.45.07a3.29,3.29,0,0,0,.93,0,55.93,55.93,0,0,0,10.24-2.75,67.72,67.72,0,0,1,6.12,4.62c.75.61,1.5,1.22,2.27,1.81a14.92,14.92,0,0,0-2.23.08c-2.44.28-4.21,1.18-5,2.54l-.18.31.31.21c1.13.76,2.75,1,5,.76a38.28,38.28,0,0,0,5.38-1.17l.45-.12a24.34,24.34,0,0,0,11.56,3.93,62.21,62.21,0,0,0,11.44-.14,28.19,28.19,0,0,0,8.3-2.08h.08a3.43,3.43,0,0,0,.44-.09c.49-.16,1-.35,1.43-.54a3,3,0,0,0,.45-.1,42.49,42.49,0,0,0,12,.35A49,49,0,0,0,170.22,203a48.34,48.34,0,0,0,9.77.21c2.43-.28,3.69-.89,3.86-1.86a1.22,1.22,0,0,0-.4-1.2c-.72-.62-2.3-.78-4.83-.49-.92.1-1.89.26-2.86.44,1.84-1.07,3.66-2.24,5.49-3.55a55.58,55.58,0,0,1,7.88-4.68c2.55,1.16,6.58,2.59,8.87,2.32a2.21,2.21,0,0,0,1.78-1,1.24,1.24,0,0,0,0-1.46c-.75-1-3.44-1.52-6.14-1.73a21.07,21.07,0,0,1,4-.93,11.09,11.09,0,0,1,2.89,0A5.79,5.79,0,0,1,204.9,192a2.16,2.16,0,0,0,2.66.65,1.88,1.88,0,0,0,1-1,1.44,1.44,0,0,0-.12-1.29,9.3,9.3,0,0,0-4.35-3.77c2.55-.56,5-1.4,6.62-3.12l.26-.29-.26-.26A4.12,4.12,0,0,0,207.13,181.9Z"/>
  <path class="cls-2" d="M266.6,27.94Z"/>
  <g>
    <path class="cls-3" d="M160.44,191.66c-14.53-8.06-34-9.93-50-5.51a55.44,55.44,0,0,0-8.35,3C82.36,198.26,83,215.32,111,222.29c12.27,3,45.57,3.09,56.51-2.33C181,213.26,172.17,198.17,160.44,191.66Z"/>
    <path class="cls-4" d="M160.44,191.66c-14.53-8.06-34-9.93-50-5.51a55.44,55.44,0,0,0-8.35,3c-9.87,4.54-14.65,11.08-13.47,17.35a54.33,54.33,0,0,0,11.79,4.28c12.27,3,45.57,3.1,56.51-2.33,7.38-3.66,8.08-9.81,5.3-15.71C161.65,192.36,161.05,192,160.44,191.66Z"/>
  </g>
</svg>
