<svg id="Layer_1" data-name="Layer 1" xmlns="http://www.w3.org/2000/svg" width="444.71" height="580.24" viewBox="0 0 444.71 580.24">
  <defs>
    <style>
      .cls-1 {
        fill: #295612;
      }

      .cls-2 {
        fill: #423628;
      }

      .cls-3 {
        fill: #564837;
      }
    </style>
  </defs>
  <g>
    <path class="cls-1" d="M420.13,91.19c3.63-12.08-1.5-24.57-14.26-27.85a16.33,16.33,0,0,0-10.55.62c-9,4.35-5.73,16-2.39,23.4,1.71,3.84,4.4,8,5.45,12.39,2.14,7.44.52,15.9-3.44,22.45-4.63,7.87-11.11,14-16.65,20.54-4.47,5.28-8.33,11-8.68,17.6-1,22.68,26.34,27.39,37.84,42.92,12.68,18.67-6.25,33.92-20.73,42.68-3.87,2.4-7.73,4.6-11.6,6.7a64.41,64.41,0,0,1-14,5.95,117.44,117.44,0,0,1-13.82,3c-4.27.72-8.21,1.34-11.39,2.16a16.69,16.69,0,0,0-6.25,2.63c-2.92,2.83-2.47,9.21-2.15,13.83a12.42,12.42,0,0,0,.39,2.13c3.3,12,15,20,18.21,32.72a20.36,20.36,0,0,1-5,19.12c-4.57,4.64-9,6.2-14.55,7.95a203.62,203.62,0,0,0-24.72,9.13c-5.54,2.81-10.33,5.1-13.64,10-1.37,2-3.4,7.9-4.65,11.67a107.42,107.42,0,0,1-4.07,10.15c-5.7,11.7-13,22.17-23.62,30.23a37,37,0,0,1-28.12,6.85c-4.3-.55-7.94-1.7-11.49-2-7.69-.95-14.29,7.74-19,13.57-2.21,2.85-4.27,6.14-6.86,8.73-10.41,10.74-23.92,8.06-32.15-3.88-2.79-3.73-4.74-7.18-7.19-10.64-4-5.38-7.17-10.25-13.89-8.59a45.82,45.82,0,0,0-13.44,6.12c-7.22,4.83-9.36,11.46-10.06,20.48a28.32,28.32,0,0,1-1.62,7.39,10.08,10.08,0,0,1-2.84,4.08c-6.67,5.8-21.54-.88-23,10.24-.62,5.95,1.36,11.26,1.69,17.73,1.41,13.52-3.56,26.86-12,37.23l-1.36-.85c19.39-31.92-.53-44.45,6.18-60.93,3-6.44,10.43-8.46,16.83-9.3,1.61-.28,4.5-.49,5.67-1.09,1.31-3.58.74-7.62,1.29-11.46a31.67,31.67,0,0,1,12-22.53,53.33,53.33,0,0,1,11.1-6.64c5.89-2.81,12.87-4.68,19.29-2.43,15.76,4.62,23,32.07,31,26.93,3-1.92,5-5.89,7.64-9.26,7.46-10.15,18-21.4,31.77-20.15,8.28.59,16.38,4.24,24.24.77,7.44-3.22,12.86-10,17.51-16.56a81.73,81.73,0,0,0,10.62-22.38,55.62,55.62,0,0,1,5.14-11.91,33.79,33.79,0,0,1,9.09-9.51c10.68-7.5,22.84-11.53,35-15.52,3.5-1.22,8.19-2,10.79-4.64,6.84-6.77-17.89-23.72-17.45-44.18-1.31-32.93,21.62-28.29,45-34.31a54,54,0,0,0,11.4-4.7c3.73-1.91,7.42-3.9,11-6,6.39-4,21.27-12.37,18.51-21-2.31-5.57-8-8.88-12.79-12.52-14.71-10.18-28.46-21.72-26-41.52,1.62-13.24,12.56-22.7,21.34-31.37,5.73-5.75,11.55-12.25,12.15-20.66.55-6.22-2.23-12-4.74-17.66-2.36-6-4.13-12.5-2.69-19.06,2.13-9.69,12.62-13,21.4-10.13,8.42,2.48,15.26,10,16.25,18.78a29,29,0,0,1-1.45,12.82l-1.52-.51Z"/>
    <path class="cls-1" d="M76.33,518c1.92-17,31.5-28.06,45.74-32.88a182.35,182.35,0,0,1,18.59-5.25l1.09-.09c-.37,0-.24,0-.3,0s.07-.05.12-.08c3.64-1.66,3.68-6.88,3.5-10.83a20.91,20.91,0,0,1,5-15.82c14.42-16.59,51.95-17,66.71-31.61a8.81,8.81,0,0,0,2.23-4.16,4,4,0,0,1,.08-.48l.54-2.66a81.86,81.86,0,0,1,5.35-17,44.19,44.19,0,0,1,18.43-20.51c3.94-2.5,7.75-3.48,9.73-7.51,1.59-3.13,2.6-8.36,3.05-12.28a17.74,17.74,0,0,0-2.54-12.49c-7.73-11-23.29-17.14-35.24-24.56-13.81-8-26.93-20.34-22.74-38.23,3.15-14.23,14.69-22.42,29.15-21.32,7.74.44,14.51,2.53,21.54,3.94,6.56,1.14,13.93,3.08,18-2.84,4.47-5.87-.33-14.46-2.83-21-2.64-6.24-6.12-14-5.94-21.61-.12-11.38,9.63-20.9,20.48-22.3,13.77-2,25.66,5.9,37.7,9.8a14,14,0,0,0,6.06.9c2.53-1.43,4.79-4.05,4.65-7.36-.51-8.49-5.88-16-10.16-24.24-3.06-5.85-6.85-12.68-6.35-19.91.35-6.44,5.58-11.39,11.26-13.27,5.36-1.8,10.37-4.8,12.89-9.89,6.32-12.68-6.14-33.75-21.37-29.78l-.57-1.49c14.12-5.08,27.16,9.75,28.32,23a21.84,21.84,0,0,1-7.4,18.75,31.41,31.41,0,0,1-8.8,5.38c-2.84,1.11-5.74,2.73-6.81,5.65-4.07,13.82,27.3,37.88,14.92,55.65-2.13,2.87-4.88,5.52-8.34,6.62s-7.11.56-10.54-.2c-6.68-1.57-12.83-4.26-19.15-6.12-5.93-1.74-12.88-3.29-18.47-.14a10.7,10.7,0,0,0-5.36,6.79c-.61,2.88.13,6.07,1.2,9.09,2.2,6.11,5.58,12,7.92,18.37s3.73,13.87,1.16,20.53S271,276.77,264.14,279c-10,3.17-20.48.12-30.38-1.82-5.91-1.05-13.12-2.9-18.34.46-2.35,1.61-3.69,4.47-4.38,7.51-3,12.75,15.25,20.43,24.24,25.94,17.41,9.57,38.59,22.22,36.24,45.23-1.12,10.08-3.29,21.47-12,27.9a82.36,82.36,0,0,1-8.74,5.21,29.13,29.13,0,0,0-12.68,13.92,69.94,69.94,0,0,0-4.56,14l-.52,2.43a23.09,23.09,0,0,1-6.35,11.5c-14,13.38-38.19,15.49-55.89,22.21-5.61,2.23-12.54,4.94-14.58,11-.8,2.92-.14,6.65-.83,9.78-.93,7.31-6,14.34-13.4,14.77-6.06,1-12.14,2.17-18.13,3.59-13.56,3.43-42.28,10.89-46,25.79L76.33,518Z"/>
    <path class="cls-1" d="M239,142.14c-14.54,5.29-31.32,13.27-38.38,27.26-3.22,6.61-2.17,14.11.82,20.57,6.47,16.85,12.7,38.16,4,55.46-3.49,7.1-11.42,12.71-19.06,14.27a43,43,0,0,1-10.87,1A150.76,150.76,0,0,0,160,262.31c-17,2.5-36.49,9.52-43.66,25.95-1.45,3.4-3,7.16-3.28,10.91-.36,7.2,4.25,12.54,9.79,18.14,11.94,11.92,35.29,24.54,28.73,45.31-7.67,21.19-39.79,25.53-57.43,34.6-3.38,1.71-7,3.82-9,6.4A5.57,5.57,0,0,0,84,406.27c-.47,3,1.36,7.37,2.92,10.2,6.58,13,12.45,26.3,16.34,40.64,3,11.67,5.07,24,2.32,36.11a33.79,33.79,0,0,1-23.7,25.65l-.67-1.46a34.68,34.68,0,0,0,12.91-10c16.14-21.45-1.85-57.3-12.89-78-2.64-5.06-6-9.65-7.9-15.11-7.37-20.36,14.93-29.54,30.05-35.62,10.12-4.23,21.22-7.64,29.7-14.63,8.15-6.85,4.93-12.81-1.72-19.08-10.3-9.6-22.93-17.21-30.08-29.85a31.52,31.52,0,0,1-2.41-25.63,50.69,50.69,0,0,1,13.09-22.22c12.45-12.23,30.38-16.88,47.25-17.86a134.07,134.07,0,0,1,17,.1c8.06.66,16.62-1.84,20.65-9.17,6.45-11.89,3.57-27.66.5-40.28-1.28-5.52-3.71-10.71-4.51-16.36-1.87-12,5.36-22.84,14.83-29.47,9.28-6.66,20-10.93,31-13.72l.36,1.56Z"/>
    <path class="cls-1" d="M216.17,124.1c-4.39,11.18-7,26.37,1.8,35.87,2.62,2.89,6.28,4.5,9.4,6.8,6.83,4.91,13.89,12.31,13.42,21.64-.26,7.77-5.93,14.43-11.41,18.93-5.57,5.11-15.38,8-14.75,17,.38,4.87,3.9,10.5,8.68,11.92,25.45,9.57,44.38,29.46,42.09,58.37-1.41,16.56-6.54,29.93-21.28,38.74-10.68,6.47-21.36,8.27-31.05,13.09a29.78,29.78,0,0,0-8.85,6.28c-4.08,4.28-6.17,11.25-7.16,17.37-2.58,14.07-9.59,27.49-23.19,33.72a74,74,0,0,1-8.73,3.43c-3.84,1.45-5.86,1.76-8.14,4.25-3.9,5.35-4.17,12.7-4.73,19.29,0,.73-.09,1.79-.1,2.52-.14,5.51-3.72,10.78-7.65,13.67-8.51,6.3-19,8.62-28.2,12.54-14,5.29-27.49,13.42-33.79,27.59-4.3,9.65-5.15,20.34-4.62,30.91l-1.58.26c-1.85-10.83-2-22.23,1.57-32.77,7.52-22.59,29.47-31.94,49.57-40.65,5.14-2.62,14.23-6,13.77-12.84-.21-11.77.3-26.5,11.3-33.6,6.84-4.41,15.46-5.47,21.2-11.43,3.67-3.63,5.87-8.54,7.29-13.63s1.75-10.79,3.45-16a40.23,40.23,0,0,1,21.42-25c9.69-5,20.67-7.23,30-12.65a24.78,24.78,0,0,0,10.34-11.09c3.75-9.66,5.34-20.93,2.2-30.94-4.56-15.09-18.77-24.29-32.5-30.37A26.59,26.59,0,0,1,202.87,224c.08-8.84,6.41-16.41,14-20.2,6.41-3.76,14.46-8.28,15.75-16.19.52-8-6.75-14.06-12.39-18.82-10.16-7-13.14-18-10.91-29.77a55.94,55.94,0,0,1,5.43-15.65l1.4.78Z"/>
    <path class="cls-1" d="M171.94,285.56c-9.88-3.73-15.55-.75-18.37,9.33-3.8,12.28-3.28,28.64-13.77,38.37-12,10.11-29.05,3.31-41.42-2.26-2.51-1-4.7-3.26-6.65-4.94-5.62-4.83-13.74-12.28-20.57-7-3.48,2.86-8.66,9.25-8.08,14,.44,2.46,1.72,4.23,3.4,6.83,2,3.05,5,7.35,6.08,12,3,11.26-5.75,22-15.42,26.25-5.58,2.47-11.37,3.2-16.68,3.83-2.49.36-4.21.39-5.46,1.16.37.13,1.29-.75,1.5-1s.2-.24.18-.08a16,16,0,0,0-.21,2.77c0,1.93,0,1.68.11,2,1.08,2.32,3.25,3.78,6.8,6.14,8.22,5.25,18.7,9,26.86,15.29,10.48,7.64,14.82,20.28,8.11,32.07a34.76,34.76,0,0,1-5.66,7.43,51.18,51.18,0,0,0-6.23,8.05c-10.08,16.24-7.74,36.95-.25,54.2A33.72,33.72,0,0,0,71,517.71a4.2,4.2,0,0,0,1.93,1.36l.72,1.43c-1.44.66-2.73,0-3.91-.58-6.71-4.33-11-11.48-14.61-18.38-8-16-9.68-35.94-1.41-52.25A57.94,57.94,0,0,1,61.12,438a30.73,30.73,0,0,0,3.77-5.07c3.73-6.22-1.57-10.95-6.67-14-11.25-7-25.17-10.65-33.73-21.54C20,391.58,19.87,383.7,22,376.94c4.1-13.12,20.44-7.74,30.15-11.69,3.51-1.4,7.34-4.29,8.15-8,.65-4-2.33-7.79-4.25-11.28-5.65-8.91-6-17.36.57-26,10.25-14,22.78-15.28,35.12-2.86,2.81,2.63,5.12,5.77,7.85,8.42a1.8,1.8,0,0,0,.52.34c10.59,5.2,26.56,12.73,37.13,4.27,14.32-11.08,7.72-50.75,28.8-47.93a26,26,0,0,1,6.56,1.87l-.61,1.48Z"/>
    <path class="cls-1" d="M330.22,452.08c-12.75,9.71-28,17.93-44.33,19.54-14.64.69-25.37-10.42-36.38-17.15-10.47-6.82-17.31-9-29.49-5.79-19.53,4.65-15.78,23-36.74,29.23-6.81,1.87-14,1.53-20.7.71-9.61-.84-21.6-5.11-27.59,3-2,2.48-3.66,6.53-4.73,9.84a64.19,64.19,0,0,1-6.75,13.93c-10.25,16.29-27.78,24.35-45.41,13.82l-.41-.2c-.12-.08-.18-.05,0-.26l-1.13-1.14a2,2,0,0,1,1.1-.57,35.68,35.68,0,0,1,4.47-.34c10.06-.25,17.81-4.08,23.27-12.55,3.72-5.53,6.3-12.19,8.68-18.51,2-5.42,4.24-10.19,8.33-14.82,8.86-10.11,21.64-10.42,33.52-7.46,8.49,1.85,17.44,5.44,25.62,5,10.64-.41,14.41-5.26,20.32-13.46a58,58,0,0,1,14.55-14,31.86,31.86,0,0,1,31.73-3.48c9.84,4.12,16.45,10.52,24.31,16.37,4.14,3.05,8.44,6.14,13.28,6.7,14.87.33,29.6-4.94,43.69-9.78l.8,1.38Z"/>
  </g>
  <g>
    <path class="cls-2" d="M143.93,502.24c-25.32-14.05-59.28-17.3-87.14-9.6a97.64,97.64,0,0,0-14.56,5.24C7.8,513.76,8.88,543.5,57.72,555.65c21.39,5.29,79.45,5.39,98.52-4.06C179.79,539.91,164.38,513.59,143.93,502.24Z"/>
    <path class="cls-3" d="M143.93,502.24c-25.32-14.05-59.28-17.3-87.14-9.6a97.64,97.64,0,0,0-14.56,5.24c-17.2,7.93-25.54,19.33-23.48,30.27a94.43,94.43,0,0,0,20.57,7.46c21.39,5.29,79.45,5.39,98.52-4.07,12.86-6.38,14.08-17.11,9.23-27.39C146,503.48,145,502.84,143.93,502.24Z"/>
  </g>
</svg>
