<svg id="Layer_1" data-name="Layer 1" xmlns="http://www.w3.org/2000/svg" width="137.65" height="162.09" viewBox="0 0 137.65 162.09">
  <defs>
    <style>
      .cls-1 {
        fill: #295968;
      }
    </style>
  </defs>
  <path class="cls-1" d="M113.87,127.58a10.68,10.68,0,0,0-5.72,1.32,12.47,12.47,0,0,0-1.57-.3,24.65,24.65,0,0,0-8.4.8c1.48-1.05,2.85-2.25,3.17-3.83l.05-.24-.27-.1a3.34,3.34,0,0,0-3.25.7,7.92,7.92,0,0,0-2.68,4.33c-1.23.41-2.15.77-2.56.93-1.35.55-2.67,1-4,1.42a4.54,4.54,0,0,0,1.43-2.67v-.22l-.25-.08a1.87,1.87,0,0,0-.41-.09c-2.06-.25-4.36,2.39-5.86,4.31a30.22,30.22,0,0,1-7.84.33l1.46-.67c.41-.21,2.25-2.31,2-3.25a.77.77,0,0,0-.7-.53h-.14c-1.63.37-4.31,2.34-5.82,3.95-.76-.16-1.51-.36-2.26-.59a38.89,38.89,0,0,0,5.94-3.37,31.23,31.23,0,0,1,6.29-3.46c1.37-.49,2.82-.92,4.27-1.33a21,21,0,0,0,7,2.57,9.25,9.25,0,0,0,1.73.06l.32,0v-.27c-.07-1.7-2.74-2.79-5.5-3.32a62.67,62.67,0,0,0,7-2.28l.3,0c1.63.19,11.49.7,11.68-.92a.92.92,0,0,0-.18-.84,2.26,2.26,0,0,0-1.5-.61,27.32,27.32,0,0,0-6.87.65l.55-.31c3.68-2.27,4.61-5.77,5.43-8.86a2.17,2.17,0,0,0,.07-.24c2.79,0,7.51-.7,8.91-1.9a1.06,1.06,0,0,0,.44-1c0-.23-.23-.65-1-.75-1.54-.18-4.72.77-7.79,1.84,1-3.12,2.41-5.26,7.58-5.56a1.37,1.37,0,0,0,.93-.4,1,1,0,0,0,.3-.85,1.41,1.41,0,0,0-1.52-1.1,17.74,17.74,0,0,0-2.51.31A15.75,15.75,0,0,0,115,95.42l0-.27-.31-.07a2.85,2.85,0,0,0-2.49.54c-1.7,1.33-2.35,4.4-2.5,6.32-3.82,1.68-4.71,5-5.58,8.28-.6,2.27-1.24,4.59-2.94,6.34.64-3,1-6.93-2.16-8.42l-.33-.15-.16.28c-.63,1.14-.3,2.74,0,4.15.09.39.17.77.22,1.11s.07.66.12,1.06a14.88,14.88,0,0,0,.59,3.32c-3.32,2-7.37,3.09-11.31,4.16l-.12,0-1.67.47c1.07-1.76,2.2-4,1.79-5.2a1.15,1.15,0,0,0-.81-.76,1.33,1.33,0,0,0-1.32.29c-1.2,1-1.76,4.3-1.92,6.32-.92.28-1.84.56-2.72.88l-.25.11a22.58,22.58,0,0,0,2.72-5.32c.31-.85.55-1.71.79-2.57,2.27-.67,5.51-2.1,6.27-3.32a.93.93,0,0,0-.09-1.26,1.26,1.26,0,0,0-.8-.38c-1.17-.14-2.84.93-4.7,2.38a23,23,0,0,1,1.34-3.9,50.5,50.5,0,0,1,2.51-4.61c.62-1,1.25-2.14,1.83-3.25.64-.18,1.31-.41,2-.64a22.28,22.28,0,0,1,2.25-.71,33.5,33.5,0,0,0,6-1.43l.36-.13-.21-.3A3.25,3.25,0,0,0,99,97.46c-2-.24-4.73.86-6.87,2.07,1.66-4.58,1.13-9.18.62-13.65l0-.28c2.4-1.25,5.41-3.5,6.59-5.29l.16-.23-.27-.17A3,3,0,0,0,98,79.49c-2.12-.26-4.17,1.81-5.52,3.72a34.46,34.46,0,0,1-.18-5.47,20.91,20.91,0,0,1,4.93-11.88c.56.11,1.14.19,1.49.23.57.07,5.59.63,6.9-.55a.87.87,0,0,0,.3-.87c-.09-.38-.43-.86-1.59-1a21.42,21.42,0,0,0-5.59.59,19.61,19.61,0,0,1,7.93-4.69,1.1,1.1,0,0,0,.78-1.5,1.56,1.56,0,0,0-1.79-.73,22.2,22.2,0,0,0-2.76,1.06c1-2.16,1.37-4.36-.57-5.74l-.23-.15-.22.15c-1.69,1.15-1.49,2.82-1.35,4,0,.18,0,.34.05.47a8.7,8.7,0,0,1-.14,1.14,12.36,12.36,0,0,0-.2,1.53,22.82,22.82,0,0,0-4.33,3.57c.09-2.46-.33-5-2.74-6.64l-.24-.16-.22.17c-.17.14-.68.56-.35,2.81a20.87,20.87,0,0,0,1.83,5.87,23.24,23.24,0,0,0-4.53,10.78,7.92,7.92,0,0,0-3.68-4.48l-.27-.13-.18.2c-.49.52-.41,1.58.24,3.14a17,17,0,0,0,3.76,5.55c.07,1.86.27,3.71.48,5.51s.38,3.42.46,5.09a6.38,6.38,0,0,0-5.19-3h-.32l0,.26c-.16,1.41,1.41,2.52,2.66,3.41.24.17.46.32.64.46a17.09,17.09,0,0,1,1.32,1.35c.28.31.57.62.85.91a16,16,0,0,1-1.65,6c-.61,1.21-1.33,2.42-2,3.64-.82,1.38-1.65,2.82-2.36,4.31-.12-2.74-.82-5.51-3.78-6.62l-.37-.14-.1.33c-.4,1.33.33,3,1,4.46.17.4.34.79.48,1.14s.27,1,.41,1.57a14.32,14.32,0,0,0,.94,3c-.21.74-.41,1.48-.6,2.21-.3,1.17-.64,2.5-1.09,3.74a20.78,20.78,0,0,1-2.13,4.36,10,10,0,0,0-1.19-5l-.19-.25-.29.15c-2.41,1.24-1.57,5.19-.82,8.11a25.58,25.58,0,0,1-8,5.05,1.52,1.52,0,0,0-.48-.1,23.09,23.09,0,0,0-.11-2.37,19.74,19.74,0,0,1-.09-2.28c2.48-1.29,6.08-3.37,6.35-5.63l0-.22-.24-.09a2.3,2.3,0,0,0-.65-.17c-1.6-.19-3.38,1.07-4.78,2.57a25.7,25.7,0,0,1,1.5-3.36,27.75,27.75,0,0,0,3.33-13.59c2.06-2.15,4.3-4.75,3.66-7.59l-.06-.28-.34,0c-1.28.12-2.57,1.92-3.22,3-.14.21-.27.45-.41.7-.28-1.88-.66-3.72-1.06-5.53-.28-1.32-.55-2.61-.79-3.9,2.62-1.9,5.41-4.9,4.91-8.09l0-.34-.38.07c-1.93.33-2.89,2.25-3.66,3.79l-.36.72c-.21.36-.52.78-.84,1.23A21.68,21.68,0,0,1,71,82.71a32,32,0,0,1,2-6.07l.42-1c2.61-1,7-3.21,7.8-4.26a.57.57,0,0,0,.07-.74,1.65,1.65,0,0,0-1.18-.66c-1.51-.18-3.79,1.3-5.65,2.8a18.08,18.08,0,0,0,.79-3.48,28.14,28.14,0,0,0-.61-8c-.21-1.23-.42-2.48-.55-3.73a22.81,22.81,0,0,0,2.79-1.77c.35-.25.64-.46.84-.58l.13-.08c1.71-1,3.19-1.93,3.53-3.95l0-.22-.25-.1a3.52,3.52,0,0,0-.9-.24c-2.43-.29-4.69,2.15-6.27,4.33.25-6.16,4.25-12.3,9.2-16.65l.83.11c.69.08,6.82.77,7.33-.72a.81.81,0,0,0-.11-.78,2.13,2.13,0,0,0-1.47-.6,20.54,20.54,0,0,0-4.37.2,29,29,0,0,1,2.63-1.73,1.06,1.06,0,0,0,.32-1.63,1.61,1.61,0,0,0-1.93-.34,35,35,0,0,0-8.32,6.82,8.68,8.68,0,0,0-.49-4.6l-.17-.27-.3.12c-2.44,1-1.9,4.9-1.54,7.51,0,.12,0,.23,0,.34A25.19,25.19,0,0,0,71.78,51a15.89,15.89,0,0,0-4.58-6.64l-.31-.24-.22.29c-1.38,1.79.51,4.23,1.75,5.84l.11.15c.28.35.6.81.94,1.3a23.82,23.82,0,0,0,1.81,2.42,17.77,17.77,0,0,0,0,1.79,41.63,41.63,0,0,0,.7,5.52,28.12,28.12,0,0,1,.61,7c-1.71-3.84-4.11-6.14-7.19-6.8L65,61.57v.36c-.08,1.61,1.67,3.13,3.08,4.34.32.28.63.55.88.79a18.37,18.37,0,0,1,1.41,1.75A22,22,0,0,0,72.12,71a40.87,40.87,0,0,1-1.7,4.77,42.23,42.23,0,0,0-1.77,4.92,23.15,23.15,0,0,0-2-2.62,15.1,15.1,0,0,0-4.57-2.25c-.59-.07-.83.2-.86.47v.1c.33,1.24,1.71,2.17,2.92,3,.48.33.93.64,1.32,1a12.61,12.61,0,0,1,1.77,1.85c.3.35.58.69.88,1a29.46,29.46,0,0,0,.51,9.64l-.08.54.17-.09c.18.91.38,1.81.57,2.71s.35,1.62.51,2.43c-2.41-2.64-5.21-5.14-8.4-6.2l-.39-.13-.08.34c-.48,2.12,2.31,3.83,4.15,5l.16.1c.41.25.9.58,1.42.94a20.66,20.66,0,0,0,3.53,2.08,32,32,0,0,1,.46,4,25.12,25.12,0,0,1-1.35,9.3c-1.1-3.13-3.6-5.91-7.23-6.35l-.46,0,.07.39c.24,1.29,1.49,2.36,2.69,3.4.5.43,1,.83,1.34,1.23a13,13,0,0,1,1.67,2.26c.34.52.66,1,1,1.47-.25.56-.52,1.11-.81,1.66a20.13,20.13,0,0,0-2.31,6.39,10,10,0,0,0-3.6-3.8l-.35-.2-.16.31c-.88,1.66.64,3.73,1.75,5.24.16.21.31.41.43.59a21.44,21.44,0,0,1,1,1.91c.3.62.62,1.25,1,1.81,0,.23,0,.45,0,.68-4-2.95-6.33-5.6-7.46-10a33.41,33.41,0,0,0-1.2-3.89c1.78-2.42,3.67-5.58,2-8.27l-.17-.27-.3.13c-1.73.71-2.12,3.33-2.18,3.85a12,12,0,0,1-.49,1.88l0,.08c-.27-.5-.57-1-.9-1.49a30.19,30.19,0,0,0-2.51-3.07c-.46-.51-.9-1-1.32-1.52a14.29,14.29,0,0,0,1.39-2.53,11.22,11.22,0,0,1,.93-1.76,7.11,7.11,0,0,0,1.24-3.76l0-.31-.37,0a3,3,0,0,0-2.1.59c-1.49,1.13-2.11,3.67-2.35,6.12-.09-.15-.19-.29-.28-.43-1.37-2.45-1.22-5.07-1.06-7.87A19.41,19.41,0,0,0,47.67,91a14.19,14.19,0,0,0-.83-2c1.38-2.46,3-5.7,1.45-8.4l-.13-.23-.28.06a2.16,2.16,0,0,0-1.43,1.18,11.11,11.11,0,0,0-1,4.95,34.89,34.89,0,0,0-6.27-6.68c0-.11.06-.21.09-.33.68-2.38,1.52-5.34.08-7.52l-.14-.21-.26.06a2.14,2.14,0,0,0-1.55,1.46,9.65,9.65,0,0,0,0,5.07c-.75-.59-1.51-1.17-2.25-1.72a1.6,1.6,0,0,0-1.95.08,1,1,0,0,0-.32.85,1.19,1.19,0,0,0,.49.82c1.52,1.13,3.07,2.34,4.53,3.62L37,81.94a6.1,6.1,0,0,0-3.87.56l-.17.11.05.18c.25,1,2.07,1.44,3.55,1.62a16.49,16.49,0,0,0,3.76,0A18.9,18.9,0,0,1,45,91.59a13.71,13.71,0,0,1,.5,4.79l0-.06c-.36-.42-.69-.79-.92-1.1l-.1-.13c-1.2-1.55-2.33-3-4.78-3.35l-.35,0,0,.29c-.36,2.41,3.6,5.33,6.12,6.94-.13,2.67-.13,5.42,1.39,8.12a15.6,15.6,0,0,0,1.51,2.2,13.26,13.26,0,0,0-3.2-.88,5.61,5.61,0,0,0-3.61.63l-.25.15.15.24c.81,1.24,3.94,1.73,5.24,1.89a19.16,19.16,0,0,0,3.52.12,24.6,24.6,0,0,1,2.07,2.53,20.33,20.33,0,0,1,2.64,6,10.28,10.28,0,0,0-4.8-2.37,3.82,3.82,0,0,0-.89,0l-.37,0,.08.31c.56,2.3,4.43,4.59,7.34,6.28,1.41,3.23,3.63,5.55,6.88,8a18.09,18.09,0,0,1-3.91-.1,36.29,36.29,0,0,1-4.57-.88c-.35-.81-.69-1.63-1-2.45-.66-1.61-1.35-3.28-2.08-4.91l-.12-.29-.33.1a2.17,2.17,0,0,0-1.53,2.72,9.6,9.6,0,0,0,1.82,3.86c-3.7-1.35-6-4-8.37-7.09a13.93,13.93,0,0,0,.9-6.73l-.06-.25-.29,0a2,2,0,0,0-1.82.63,5.49,5.49,0,0,0-.78,3.77,25.46,25.46,0,0,0-8.33-6.9c-.07-1.94-.58-6.14-3.75-6.52a4.47,4.47,0,0,0-.64,0h-.3l0,.26c-.1,1.37,1.11,3.61,2.41,5.26a17.76,17.76,0,0,0-3.73-.91,12.54,12.54,0,0,0-3.12,0,9.77,9.77,0,0,0-3.18-1.12,3.32,3.32,0,0,0-2.6.66l-.18.15.12.2c.44.74,1.83,1.05,2.75,1.18a7.15,7.15,0,0,0-2.15,2,1,1,0,0,0-.15.89,1.23,1.23,0,0,0,.63.74,1.53,1.53,0,0,0,1.89-.33,5,5,0,0,1,3.93-2,3,3,0,0,0-1.13.73,1.56,1.56,0,0,0-.36,1.47l0,.18.21.06a2.48,2.48,0,0,0,.41.08,7.22,7.22,0,0,0,4.93-2,14,14,0,0,1,1.62.6,19.61,19.61,0,0,1,4.55,2.73c-2.34-.24-5.2.1-5.9,1.86l-.11.26.3.12a2.49,2.49,0,0,0,.63.14,40.35,40.35,0,0,0,7.41-.22,49.74,49.74,0,0,1,3.41,4.12c.41.54.83,1.08,1.25,1.6a10.47,10.47,0,0,0-1.52-.3,4.43,4.43,0,0,0-3.81.91l-.17.18.18.2a5,5,0,0,0,3.24,1.31,27.66,27.66,0,0,0,3.85.08h.32a17,17,0,0,0,7.23,4.53,43.5,43.5,0,0,0,7.8,1.76,20,20,0,0,0,6-.07h.36c.37,0,.71-.08,1.07-.14a1.15,1.15,0,0,0,.32,0,30.1,30.1,0,0,0,8.08,2.17,34.22,34.22,0,0,0,10.7-.52,33,33,0,0,0,6.6,1.72c1.7.21,2.66,0,2.93-.63a.85.85,0,0,0-.08-.88c-.39-.54-1.44-.9-3.21-1.11-.63-.08-1.32-.13-2-.16,1.42-.44,2.85-.93,4.3-1.53a38.32,38.32,0,0,1,6.12-1.9c1.55,1.2,4.06,2.82,5.65,3a1.57,1.57,0,0,0,1.37-.36.86.86,0,0,0,.24-1c-.34-.83-2.09-1.59-3.89-2.17a15.31,15.31,0,0,1,2.88,0,7.6,7.6,0,0,1,2,.48,4.05,4.05,0,0,1,2.49,2.66,1.5,1.5,0,0,0,1.7.87,1.34,1.34,0,0,0,.84-.52,1,1,0,0,0,.12-.9,6.43,6.43,0,0,0-2.35-3.26,8.77,8.77,0,0,0,5-1l.23-.15-.14-.22A2.88,2.88,0,0,0,113.87,127.58Z"/>
</svg>
