<svg id="Layer_1" data-name="Layer 1" xmlns="http://www.w3.org/2000/svg" width="281.48" height="296.47" viewBox="0 0 281.48 296.47">
  <defs>
    <style>
      .cls-1 {
        fill: #5159b7;
      }

      .cls-2 {
        fill: #607718;
      }
    </style>
  </defs>
  <g>
    <g>
      <path class="cls-1" d="M111.77,77c-2.53-4.33-5.4-6.15-7.67-5a2.87,2.87,0,0,0-1.54,1.9c-.44,1.64.18,3.91,1.86,6.77A21.44,21.44,0,0,0,109,85.84a38.78,38.78,0,0,0,4.61,3.41l.88.55v-1C114.5,88.51,114.45,81.59,111.77,77Z"/>
      <path class="cls-1" d="M128.61,102.13a5.27,5.27,0,0,0-.38-1.49,3.84,3.84,0,0,0-2.15-2.33c-1.82-.68-3.41.25-4.67,1.37-1.7,1.52-6.86,5.61-4.84,8.72C119.21,112.48,129,106.46,128.61,102.13Z"/>
      <path class="cls-1" d="M131.09,117.18c-1.39-2.32-4.43-1.83-6.55-1.33-1.67.41-8,3.62-8,5.83,0,.62.49,1.16,1.71,1.53,2.95.91,9.88.84,12.42-1.24C132.15,120.77,132.09,118.87,131.09,117.18Z"/>
      <path class="cls-1" d="M120,130a24.63,24.63,0,0,0-3.7,1.75c-2,1.2-3.38,2.83-1,4.54s6,.68,8.4.49c2.08-.17,5.15-1,5.53-3.53C130,128.35,122.47,129,120,130Z"/>
      <path class="cls-1" d="M120.61,143.72a14.83,14.83,0,0,0-8.73,1.61c-.32.18-.71.41-1.11.69-3.78,2.64-.6,4.47,2.75,5.29s9.09,1.23,11-2.07C126,146.83,123.18,144.08,120.61,143.72Z"/>
      <path class="cls-1" d="M112.41,155.73h-.21c-3,.06-10,1.33-10.15,4.67-.24,5.5,15.58,3.22,17.08-.06C120.78,156.76,114.86,155.73,112.41,155.73Z"/>
      <path class="cls-1" d="M94,222.25c-5.19-.88-16.07,4.53-17.53,6.85-2.77,4.38,5.87,4,8.22,3.69,4.24-.48,12.13-2.13,12.07-7.5A2.91,2.91,0,0,0,94,222.25Z"/>
      <path class="cls-1" d="M112.39,171.82a2.85,2.85,0,0,0-1.47-1.45,13.78,13.78,0,0,0-7-.93c-2.18.36-13,2.69-7.26,5.87,1.79,1,4.33,1,6.28,1.18C105.37,176.7,113.9,175.85,112.39,171.82Z"/>
      <path class="cls-1" d="M103.67,181.32a13.27,13.27,0,0,0-5.15-.14c-2.78.56-10.41,2.27-9.19,6.34.71,2.36,6.19,1.94,7.88,1.39,2.67-.87,5.35-1,7.61-2.82C108.17,183.49,106.39,182,103.67,181.32Z"/>
      <path class="cls-1" d="M101.62,194.59a5.06,5.06,0,0,0-1.38-.43c-2.64-.42-5,.8-7.52,1.29-1.71.34-10,2.27-6.94,5.39,1.44,1.48,6.42.85,8.28.62,2.48-.32,6.56-.31,8.41-2.07S103.56,195.53,101.62,194.59Z"/>
      <path class="cls-1" d="M101.64,211.05a5.43,5.43,0,0,0-1.84-1.14c-4.23-1.62-11.18.74-14.6,1.77-1.57.48-4.39,1.13-4.27,3.12.21,3.8,6.09,3.41,8.79,3.22C92.17,217.85,107.3,216.48,101.64,211.05Z"/>
      <path class="cls-1" d="M118.44,106.8c-.39-3.71-4-10.84-7.89-11.71a2.08,2.08,0,0,0-1.79.35c-2.8,2.09-1.43,5.32,1.08,8.33C111.47,105.73,119.15,113.76,118.44,106.8Z"/>
      <path class="cls-1" d="M116.75,114.23c-.78-2.23-1.8-3.69-3-4.34a3,3,0,0,0-2.44-.19c-6.57,2.35,3.33,16.55,5.68,12.9C118.18,120.7,117.46,116.35,116.75,114.23Z"/>
      <path class="cls-1" d="M114.94,132.54a13.4,13.4,0,0,0-2-8.17c-.3-.43-3-4.23-5.25-2.81-1.11.72-2,2.57,0,7.32l0,.1C108.85,131.66,114.32,138.66,114.94,132.54Z"/>
      <path class="cls-1" d="M105.15,137c-.38-.5-3.88-4.81-6.4-3.51-3.48,1.79-.23,7.35,1.47,9.62s8.7,8.87,8.22,2.4A17.18,17.18,0,0,0,105.15,137Z"/>
      <path class="cls-1" d="M91.64,147.48a2.9,2.9,0,0,0-1.25,2.1c-.15,1.47.67,3.24,2.46,5.27,1.51,1.72,5.85,5.26,8.43,4.84a1.92,1.92,0,0,0,1.11-.5c1.07-1.08,0-3.47-.62-4.82C100.43,151.31,96,144.39,91.64,147.48Z"/>
      <path class="cls-1" d="M66.47,213.85a6.6,6.6,0,0,0-2.39-.22,2.67,2.67,0,0,0-2.18,1.18c-1.9,3.2.38,6.85,2.69,9.42,1.48,1.66,9.48,10.47,11.16,5.49.65-1.92.07-4.68-1.16-7.36C72.76,218.45,69.51,214.68,66.47,213.85Z"/>
      <path class="cls-1" d="M95.05,165.27c-1.17-3.12-4.15-8.76-8.47-6s4.31,12.33,7.13,13.66c4.59,2.18,2.7-3.93,1.7-6.72C95.27,165.84,95.14,165.51,95.05,165.27Z"/>
      <path class="cls-1" d="M80.45,173.7c-2.52,3,1.89,8,4,10.34,1.24,1.43,5,4.86,6,1.6.32-1-.06-3-.85-5.07C88.63,178.07,84.15,169.27,80.45,173.7Z"/>
      <path class="cls-1" d="M71.83,186.33c-1.87,2.45.63,6.11,2.21,8.23,1.36,1.81,4.57,6.39,7.21,6.29s2.43-3.54.83-7.19C79.75,188.36,74.62,182.66,71.83,186.33Z"/>
      <path class="cls-1" d="M77.24,204.61c-1-3-3-6.13-6.51-7.09a8.36,8.36,0,0,0-1.23-.24,2.66,2.66,0,0,0-2.45.74c-3.06,3.51,1.49,10.16,4.1,12.9,1.26,1.34,3.66,4.35,5.83,4,3.57-.53,1.85-5.84,1.16-7.86C77.81,206.17,77.47,205.31,77.24,204.61Z"/>
    </g>
    <g>
      <path class="cls-1" d="M45.71,84.21c-4.5-4.14-6.79-2.72-7.57-1.93s-1.89,2.66,1.23,6.14c.35.39.74.78,1.17,1.18,3.31,3.06,9.38,4.42,9.64,4.47l.92.21-.27-.91C50.76,93.13,49,87.26,45.71,84.21Z"/>
      <path class="cls-1" d="M64.33,97c1.74-2.45,2.73-5.52.53-7.44-1.69-1.46-4.36.75-5.73,1.63-3.7,2.38-4.66,12.33,1.45,9.35A11.66,11.66,0,0,0,64.33,97Z"/>
      <path class="cls-1" d="M76.14,104.25c1.26-5.27-6.59-2.65-8.27-1.36-2,1.51-6.56,7.28-2.44,8.68,1.31.44,4.23-1.07,6.7-2.93C74.15,107.12,75.87,105.36,76.14,104.25Z"/>
      <path class="cls-1" d="M82.69,120.6C82.42,119.17,81,118,78.35,118s-6.6,1.4-8.18,3.76C67.14,126.33,83.9,127.07,82.69,120.6Z"/>
      <path class="cls-1" d="M83.43,127.3c-3-2-7.59,1.24-9.65,3-1.58,1.39-5.67,6.61-.94,7.12a11,11,0,0,0,4.65-1.12c1.46-.6,2.88-1.29,3.9-1.66C84,133.72,87,129.67,83.43,127.3Z"/>
      <path class="cls-1" d="M77.23,143.75c-2.85-.06-6.84,1.79-8.89,3.48-4.48,3.71,1,5.17,5,4,3.08-.9,6.16-2.59,6.68-3.85C81.16,144.65,79.92,143.78,77.23,143.75Z"/>
      <path class="cls-1" d="M69.25,215.55c-4,.53-11.24,9.18-9.92,13,2.77,7.94,16.26-9,12.66-12.48C71.52,215.57,70.66,215.36,69.25,215.55Z"/>
      <path class="cls-1" d="M75.59,159.26c-2.3-4.95-9.8-.25-12.12,1.5-2.79,2.09-4.39,4.85.69,5.22a14.15,14.15,0,0,0,2.56-.15C70.9,165.26,77.41,163.22,75.59,159.26Z"/>
      <path class="cls-1" d="M64.45,174.11c-1.66.46-9.33,4.29-7.91,6.66.94,1.57,3.2,1.89,5.68,1.48,4.12-.69,8.82-3.44,9-5.92C71.63,172.08,66.9,173.45,64.45,174.11Z"/>
      <path class="cls-1" d="M65.27,186.79c-2.88,0-7.72,3.69-9.31,5.75-2.46,3.18-.22,4.93,3.49,4.33a12,12,0,0,0,2.57-.73C65,195,73.1,186.83,65.27,186.79Z"/>
      <path class="cls-1" d="M65.34,201.65c-3.76,1.06-8,4-9.19,7.59-1.78,5.35,4.65,3.45,7.52,1.89L64,211c2.58-1.41,6.7-3.76,7.59-6.67C72.9,200,68.09,200.87,65.34,201.65Z"/>
      <g>
        <path class="cls-1" d="M57.79,100.63c-.63-2.17-7.35-3.1-9-3.23-4.64-.37-7.35,3.95-1.75,5.93,2,.71,10.86.3,10.78-2.41A2.93,2.93,0,0,0,57.79,100.63Z"/>
        <path class="cls-1" d="M53,108.34c-4.75,1.15-1.76,3.63,1.42,4.82,3.56,1.34,9.73,2.69,10.68-2.1C66,106.56,55.05,107.84,53,108.34Z"/>
        <path class="cls-1" d="M69.37,120.94c-1.72-2.33-12.56-3.2-11.7.59S68.82,127,70,123A2.39,2.39,0,0,0,69.37,120.94Z"/>
        <path class="cls-1" d="M69.64,132.26C67.21,130.53,58,128,56.4,131.79c-2.19,5.16,12.2,6.12,14.68,3.64C71.8,134.7,71.61,133.67,69.64,132.26Z"/>
        <path class="cls-1" d="M61.52,143.08c-3.64-1.7-8.22-.73-6.16,3.75.51,1.08,2.33,2.27,4.41,3.08,3.39,1.32,7.43,1.62,7.3-1.28C67,146.4,63.43,144,61.52,143.08Z"/>
        <path class="cls-1" d="M57.88,227.56c-.69-3.46-9.32-9.94-13-8.22-5.1,2.36,2.87,9,5.62,10.06,2.47,1,7.69,2.74,7.52-1.05A6.32,6.32,0,0,0,57.88,227.56Z"/>
        <path class="cls-1" d="M53.73,156.31c-2.59-.88-5.28-1-5.33,2.21-.06,2.64,5.07,5.73,8.92,6.38C65.8,166.33,57.26,157.51,53.73,156.31Z"/>
        <path class="cls-1" d="M46.07,171.28c-3.38,1.31-1.85,4.23,1,6.6s7.35,4.32,9.14,3.14a1.71,1.71,0,0,0,.81-1.59C56.87,176.3,49.33,170,46.07,171.28Z"/>
        <path class="cls-1" d="M42.29,187c-2.52,1.38-1.46,3.89.81,6.07,2.87,2.76,7.65,5,9.58,3.74C56.54,194.28,46.52,184.67,42.29,187Z"/>
        <path class="cls-1" d="M41.39,202.34a2.27,2.27,0,0,0-1.6,1.57c-.91,3.84,5.33,7.94,10,9.32,2.62.78,4.76.7,4.87-.76C55,207.6,46.35,200.52,41.39,202.34Z"/>
      </g>
    </g>
    <g>
      <path class="cls-1" d="M166.87,140.41c-.12-2.11-2.05-2.81-3.65-2.86s-9.82,1.35-8.57,4.67c.92,2.46,9.47,2.43,11.64-.15A2.33,2.33,0,0,0,166.87,140.41Z"/>
      <path class="cls-1" d="M122.36,181.54c-1.19-3.21-4-4.43-5.72-1.15-2.28,4.45-1.48,10,1,14.45,1.94,3.46,4.34,5.21,5.4.39a22.15,22.15,0,0,0,.48-3.81A27.89,27.89,0,0,0,122.36,181.54Z"/>
      <path class="cls-1" d="M108.28,223.31a9.65,9.65,0,0,0-2.37-7.25c-1.72-1.77-4.24-2.54-5.67-.27-2.73,4.36,1.78,12.91,5.37,16.16,3.08,2.8,3.36-.39,3.13-3.69C108.6,226.15,108.25,224,108.28,223.31Z"/>
      <path class="cls-1" d="M115.08,197.14c-2.48-1-3.65,1.54-4.1,3.13a18.63,18.63,0,0,0-.48,7.69c.2,1.11.81,5.06,2.08,5.65,3.18,1.49,5.73-6.35,5.07-11.79C117.38,199.6,116.58,197.78,115.08,197.14Z"/>
      <path class="cls-1" d="M127.14,164.77c-2.14-2.88-4.52-1.6-5.71,1.32-1.51,3.73.18,7.84,1.89,11.17,1.37,2.67,3.81,7.07,5.49,1.91a20.94,20.94,0,0,0-.11-11.1A10.41,10.41,0,0,0,127.14,164.77Z"/>
      <path class="cls-1" d="M148.84,152.27a13.78,13.78,0,0,0-7.71-.42c-3.07.7-4.71,2.61-1.12,4.1a12.28,12.28,0,0,0,8.49-.22,3.18,3.18,0,0,0,2-1.65C150.65,153.46,150.23,152.8,148.84,152.27Z"/>
      <path class="cls-1" d="M140.87,144.05a13.86,13.86,0,0,0-3.24,7c-.49,3.11.69,5.34,3.39,2.56a12.23,12.23,0,0,0,2.94-8,3.14,3.14,0,0,0-.8-2.46C142.64,142.81,141.88,143,140.87,144.05Z"/>
      <path class="cls-1" d="M137.75,162.23c-3.49,1.13-6.61,3.2-5.7,5.35,1.33,3.15,8.61,0,10.73-.92,1.75-.75,4.33-2.16,3-4.18C144.24,160.21,139.9,161.53,137.75,162.23Z"/>
      <path class="cls-1" d="M122.36,195.43c-1.85,2.57,3.73,3.57,5.47,3.75.77.08,1.9.2,3.1.22,2.77.06,6-.38,6.27-2.87C137.86,191.22,124.25,192.79,122.36,195.43Z"/>
      <path class="cls-1" d="M118,227l-.29,0c-3.7-.45-9.32.95-11.61,3.49-3.29,3.65,12,4.62,14.38,3.9C127.52,232.17,124,227.94,118,227Z"/>
      <path class="cls-1" d="M129.62,212.27a11.6,11.6,0,0,0-4.16-.83c-3.08,0-12.13,1.54-10.15,5.56,2.15,4.39,11.38,1.82,14.81,1.26,2-.33,3.69-.18,3.29-2.55C133.15,214.11,131.2,212.9,129.62,212.27Z"/>
      <path class="cls-1" d="M141.7,174.22a7.7,7.7,0,0,0-2.82-.12c-4.49.35-12.31,2.17-11.7,4.67.81,3.36,9.58,3,12,2.38C142.85,180.27,146.86,176.44,141.7,174.22Z"/>
    </g>
    <path class="cls-1" d="M27.29,181.84a.22.22,0,0,1,0,.08C27.42,180.69,27.36,181.23,27.29,181.84Z"/>
    <path class="cls-1" d="M27.29,181.84a.49.49,0,0,1,0,.12s0,0,0,0A.22.22,0,0,0,27.29,181.84Z"/>
    <path class="cls-1" d="M27.29,181.92s0,0,0,0C27.22,182.59,27.16,183.16,27.29,181.92Z"/>
    <path class="cls-1" d="M43.84,214.62l.69.54Z"/>
    <path class="cls-1" d="M39.25,226.28c.36.55-.79-1.18,0,0Z"/>
    <path class="cls-1" d="M27.08,198.92Z"/>
    <path class="cls-1" d="M27.08,198.92Z"/>
    <g>
      <path class="cls-1" d="M32.88,182c-2.3.64-4.79,2.78-5,5.13-.06,1.12,0,6.81,2.56,5,2.23-1.59,5.44-3.58,5.83-6.44a.25.25,0,0,0,0-.12C36.58,183.43,35.57,181.27,32.88,182Z"/>
      <path class="cls-1" d="M20.42,187.57a8.69,8.69,0,0,0-4.45-.14c-1.36.4-2.47,1.72-1.38,2.88a8.86,8.86,0,0,0,4.3,2,28.68,28.68,0,0,0,4.65.72c1.76.14,3.53.18,5.3.17l-.71-.91A13.81,13.81,0,0,0,20.42,187.57Z"/>
      <path class="cls-1" d="M37.68,208.84a5.77,5.77,0,0,0-4-1.06c-2.53.08-5.88,1.08-7.51,3-.81.95-1,2.39.33,3s3.46.39,4.92.07a19,19,0,0,0,5-2c1.34-.72,2.41-1.16,2.2-1.91C38.61,209.64,38.29,209.29,37.68,208.84Z"/>
      <path class="cls-1" d="M46.07,197.8c-3-1.7-5.88,4.72-6.47,6.21a15.12,15.12,0,0,0-1,4.63,2.41,2.41,0,0,0,.22,1.62c.51.67,1.66.35,2.24,0,2.09-1.28,4.39-3.17,5.41-5.16S48.9,199.4,46.07,197.8Z"/>
      <path class="cls-1" d="M46.59,234.51a9.2,9.2,0,0,0-5.06-2.61c-2.16-.46-4.83-.41-6.32.43-3.11,1.76,1,4.25,4.14,5a22.18,22.18,0,0,0,6.47.28c1.23-.08,1.8-.39,1.91-.88S47.38,235.42,46.59,234.51Z"/>
      <path class="cls-1" d="M49,227a7.14,7.14,0,0,0-1,3.89c-.11,1.44-.69,2.8-.79,4.23-.07,1.17,1.29,1.58,2.35.92a12.22,12.22,0,0,0,3.13-3.38c1.56-2.15,4.32-5.47,2.77-8.16C54,222,49.79,225.93,49,227Z"/>
      <path class="cls-1" d="M53.46,214.35s0,0,0,0c-.77-3.19-4.62-.9-6.08,0a12,12,0,0,0-4.21,4.31c-.53.84-1.68,2.17-1.08,3.32,1.35,2.62,5.68-.27,7.16-1.16C51.42,219.51,54.21,217.46,53.46,214.35Z"/>
      <path class="cls-1" d="M35.93,219c-2.43-.57-5.39-.67-6.75,1.56-1.69,2.76,3.39,4.07,5.47,4.38,1.61.24,9.63.09,7.46-3.13C40.93,220.05,37.94,219.47,35.93,219Z"/>
      <path class="cls-1" d="M41.9,190c-1.84-2.71-4.68.38-5.9,1.73a11.48,11.48,0,0,0-2.61,5.15c-.25,1.1-1,3,0,4,2.28,2.09,5.57-2.05,6.79-3.46C41.9,195.41,43.72,192.62,41.9,190Z"/>
      <path class="cls-1" d="M32.24,199.33c-1.72-1.53-5.16-1.4-7.42-1.39-2.52,0-6,.65-6.51,3.38s4.8,2.84,6.74,2.72c1.61-.1,10.23-2,7.19-4.71Z"/>
      <path class="cls-1" d="M20.61,176.44a9.13,9.13,0,0,0-3.47-2.62c-1.14-.42-2.94-.62-3.62.5-1,1.72,1.43,4.84,2.61,6.19,1,1.17,5.77,5.58,6.91,2.82h0C23.91,181.24,22,178.08,20.61,176.44Z"/>
    </g>
    <path class="cls-1" d="M162.89,218.13c.29,1.12-.17-.64,0,0Z"/>
    <path class="cls-1" d="M146.54,218.81c2.61,2.17-.27-.23,0,0Z"/>
    <path class="cls-1" d="M107.59,77.48c-.92-.44-.22.39,0,.76a53.29,53.29,0,0,1,9.71,20.69c4.66,20.36-2.49,41.34-12.51,59-1.48,2.65-4.37,8-5.76,10.73C86.74,192.66,69,235.06,85.11,260L83,259.77c18.2-17.69,30.53-40.71,38.38-64.7,5.44-14.86,8.41-31.62,19.43-43.66,6.65-7.14,16-11,25.31-13.08-9.13,2.48-18.24,6.52-24.58,13.74s-9.55,16.35-12.51,25.35c-1.94,6.07-3.73,12.21-5.69,18.3-7.51,24.63-19.81,48.08-38.38,66.21l-1.19,1.14-1-1.37C73.15,247.49,75,229,78.64,213.12c4.88-20.05,13.86-38.66,24.15-56.36,2-3.49,4-7,5.72-10.69,10.16-20.6,13.49-46.66-.12-66.52l-.84-1.28a3.1,3.1,0,0,1-.45-.84c0-.09.08-.12.14-.1a1.37,1.37,0,0,1,.35.15Z"/>
    <path class="cls-1" d="M18.26,178.54a135.13,135.13,0,0,1,22.19,35.09c2.91,6.24,4.81,13.05,7.34,19.41a43.41,43.41,0,0,0,11.87,16.13,45.23,45.23,0,0,0,17.82,9.1A38.92,38.92,0,0,0,84,259.42L83.09,262C55.77,242.6,47.9,204.94,56.88,174a125.84,125.84,0,0,1,8.88-22.46c6.9-14.49,6-31.77-3.39-45A62.57,62.57,0,0,0,45.44,89.8C59,98.14,70.21,112.12,71.72,128.45a49.32,49.32,0,0,1-4.2,23.81c-1.48,3.28-3.51,7.68-4.71,11C49.29,198.54,55.64,241,88.87,262.72c-22.23-.87-39.55-13.85-45.33-35.49a149.81,149.81,0,0,0-25.28-48.69Z"/>
    <path class="cls-1" d="M173.86,236.83c-12,14.19-33.82-3-48.83-.6a50.11,50.11,0,0,0-10.63,2.14c-8.34,2.68-16.34,7.1-22.34,13.55a26.78,26.78,0,0,0-5,7.65,20.09,20.09,0,0,1-1.7,2.79c-.74-2.31.1-4.6,1.11-6.55a28.7,28.7,0,0,1,1.69-2.89c8.27-11.82,22.49-18.52,36.68-19.68A38.64,38.64,0,0,1,138,234.78c11.4,2.8,25.73,11.9,35.91,2.05Z"/>
    <g>
      <path class="cls-1" d="M164.61,250.35c.15-1.28-.82-2.5-1.56-3.52a15.54,15.54,0,0,0-3.55-3.73,16,16,0,0,0-4.59-2.36c-1.67-.44-2.21,1.3-1.8,2.67.73,2.45,2.8,5,4.62,6.79a7.37,7.37,0,0,0,3.14,2c1.44.38,3.2,0,3.65-1.4A2.05,2.05,0,0,0,164.61,250.35Z"/>
      <path class="cls-1" d="M145.37,240.55a13.27,13.27,0,0,0-3.5-2.35c-.28-.13-2.8-1.06-2.84-.63a10.73,10.73,0,0,0,1.79,6.48c1.06,1.67,3.74,4.31,5.58,2.22S147.1,242.2,145.37,240.55Z"/>
      <path class="cls-1" d="M121.42,239.35a16.38,16.38,0,0,0-9.17-1.43c-1.51.23-1.63,1.75-.73,2.78a11.34,11.34,0,0,0,3.61,2.44c2.45,1.21,5.77,2.89,8.52,1.76,1.14-.47,2.29-1.54,1.63-2.81S122.76,240,121.42,239.35Z"/>
      <path class="cls-1" d="M133.74,238.85a14.55,14.55,0,0,0-7.74-3.71c-1.42-.13-1.75,1.31-1.27,2.37a10.27,10.27,0,0,0,2.42,3c1.82,1.73,4.26,4.07,7,3.79,1.16-.12,2.44-.79,2.18-2.09S134.73,239.75,133.74,238.85Z"/>
      <path class="cls-1" d="M108.85,243.68a14.57,14.57,0,0,0-5.25-.4c-1.17.13-3.52.19-4.25,1.14-1.85,2.36,4.3,3.91,5.82,4.3,2.32.59,5.59,1.37,7.53-.27C115.73,245.88,111.07,244.23,108.85,243.68Z"/>
      <path class="cls-1" d="M173.56,230.33a4.45,4.45,0,0,0-3.28,2.21,12.11,12.11,0,0,0-2,8.58,11,11,0,0,0,5.55-2.85c1.54-1.39,3.54-3.75,3-6A2.86,2.86,0,0,0,173.56,230.33Z"/>
      <path class="cls-1" d="M147.52,226.92a4,4,0,0,0-.34-.43c-1.67-1.87-4.09,0-5.42,1.09a9.71,9.71,0,0,0-3,4.55c-.37,1-1.14,2.45-.13,3.43,2,1.92,5.21-1,6.6-2.2C146.8,232,149.1,229.28,147.52,226.92Z"/>
      <path class="cls-1" d="M161.25,231.79c-1.45-2.36-4-.17-5.24.94a8.8,8.8,0,0,0-2.46,3.94c-.3,1-1.06,2.56-.11,3.46,1.89,1.81,4.78-1.13,6-2.29C161,236.33,162.7,234.11,161.25,231.79Z"/>
      <path class="cls-1" d="M132.53,226.67c.1-1.17-.3-2.89-1.47-3.45s-2.65.5-3.53,1.26a11.44,11.44,0,0,0-4,7.56,1.81,1.81,0,0,0,2.17,1.82,7,7,0,0,0,3.37-2C130.57,230.52,132.34,228.92,132.53,226.67Z"/>
      <path class="cls-1" d="M99.14,229.53c-1-1.23-3.17-2.61-4.88-2-2,.71-2.1,3.51-2.14,5.23a15.58,15.58,0,0,0,.93,6c.71,1.82,1.8,4.3,3.32,5.7s3.36-.06,3.94-1.44a13,13,0,0,0,.77-4.76C101.13,235.36,101.2,232,99.14,229.53Z"/>
      <path class="cls-1" d="M118,226.28c-.36-1.37-1.62-3.09-3.19-3.09s-2.79,1.8-3.52,3a13.42,13.42,0,0,0-1.67,9.82c.43,1.74,2.4,1.7,3.55.88a10.43,10.43,0,0,0,2.79-3.46C117.12,231.39,118.63,228.87,118,226.28Z"/>
    </g>
  </g>
  <g>
    <g>
      <g>
        <path class="cls-2" d="M258,105c4.86.93,7.21,3.24,6.43,6.08a4.16,4.16,0,0,1-1.7,2.39c-1.61,1.12-4.06,1.38-7.26.76a17.08,17.08,0,0,1-6.11-2.76,30.57,30.57,0,0,1-4.26-3.5l-.71-.72,1-.4C245.75,106.73,252.87,104,258,105Z"/>
        <path class="cls-2" d="M241.11,93.84a4.33,4.33,0,0,1,1.47.14,3.56,3.56,0,0,1,2.45,2.1c.85,2,.13,4.07-.82,5.77-1.28,2.3-4.66,9.19-7.86,7.41C232.17,106.94,236.91,94.19,241.11,93.84Z"/>
        <path class="cls-2" d="M231.54,97.85c1.79,2.07.46,5.5-.63,7.87-.86,1.87-5.72,8.6-7.79,8.15-.58-.13-.94-.81-.94-2.29,0-3.61,2-11.65,4.74-14.21C228.47,95.9,230.24,96.34,231.54,97.85Z"/>
        <path class="cls-2" d="M217.51,112.07a36.45,36.45,0,0,1-1,4.81c-.79,2.62-2.1,4.82-4.19,2.72s-1.76-6.57-2-9.32c-.22-2.4,0-6.18,2.37-7.5C217.28,100.19,218,108.9,217.51,112.07Z"/>
        <path class="cls-2" d="M204.63,118.69a17.69,17.69,0,0,1-.36,9.89c-.14.42-.32.93-.55,1.45-2.16,5-4.52,2.36-5.86-.87s-2.62-9.2.49-12.55C200.62,114.16,203.88,116.1,204.63,118.69Z"/>
        <path class="cls-2" d="M191.92,134.89c0,.06.05.13.08.21,1,2.93,2.21,10.42-1,12.53-5.3,3.48-8.64-13.1-6-16.48C188,127.43,191.06,132.52,191.92,134.89Z"/>
        <path class="cls-2" d="M118.87,210c3.81,3.35,5.58,16.26,4.44,19.31-2.13,5.72-6.86-1.38-8-3.43-2.08-3.71-5.32-11.24-.66-15.56C116.24,208.8,117.66,208.9,118.87,210Z"/>
        <path class="cls-2" d="M178,144.87a2.33,2.33,0,0,1,1.88.72c1.63,1.49,2.72,4.87,2.89,6.49.26,2.37,1,14.41-3.82,10.34-1.51-1.28-2.23-3.82-3-5.69C175.06,154.45,173.5,145.45,178,144.87Z"/>
        <path class="cls-2" d="M166.87,163a11,11,0,0,1,3.16,3.91c1.15,2.64,4.17,10,0,12.37-2.45,1.36-5.32-3.26-5.84-5-.82-2.79-2.25-5.05-2.07-8.25C162.35,161.2,164.73,161.34,166.87,163Z"/>
        <path class="cls-2" d="M155,179.13a3.87,3.87,0,0,1,1,1c1.41,2.15,1.05,5,1.47,7.54.29,1.75,1.36,10.32-3,9.37-2.08-.45-3.27-5.32-3.73-7.13-.6-2.43-2.13-6.12-1-8.81S153.32,177.92,155,179.13Z"/>
        <path class="cls-2" d="M137.32,193.65a4.4,4.4,0,0,1,1.82,1.07c3.16,3,3,10.67,3.1,14.37,0,1.7.3,4.63-1.84,5.59-4.09,1.84-5.67-3.77-6.39-6.35C133.36,206,129.66,191.35,137.32,193.65Z"/>
      </g>
      <g>
        <path class="cls-2" d="M238.45,108c3.64.83,9.69,5.55,9.25,10a3,3,0,0,1-1,1.92c-3.07,2.83-5.9,1-8.11-2.12C237.19,115.7,231.62,106.39,238.45,108Z"/>
        <path class="cls-2" d="M233.35,115.45c1.67,1.53,2.5,3.07,2.47,4.57a4,4,0,0,1-1.1,2.64c-5.62,6.19-13.75-8.73-9.11-10.07C228,111.9,231.73,114,233.35,115.45Z"/>
        <path class="cls-2" d="M216.87,119.65a10.73,10.73,0,0,1,7.07,4c.29.43,2.8,4.22.43,6.29-1.2,1.05-3.4,1.61-7.15-1.63l-.08-.07C215,126.42,210.62,118.93,216.87,119.65Z"/>
        <path class="cls-2" d="M205.15,131.08a15,15,0,0,1,8.86,2.16c.51.34,4.87,3.44,3.3,6.4-2.17,4.08-7.88,1.46-10.18,0S198.27,131.63,205.15,131.08Z"/>
        <path class="cls-2" d="M207.78,148.32a4.11,4.11,0,0,1-1.4,2.54c-1.33,1.16-3.42,1.7-6.22,1.6-2.38-.08-7.87-1.29-8.73-3.78a2,2,0,0,1-.05-1.29c.51-1.66,3.33-2.4,4.91-2.85C199.85,143.53,208.6,142.45,207.78,148.32Z"/>
        <path class="cls-2" d="M141.06,228.67a5.51,5.51,0,0,1,1.36,1.88,2.91,2.91,0,0,1-.07,2.68c-2.12,3.86-6.71,4.48-10.29,4.32-2.31-.1-14.6-.73-10.66-5.65,1.52-1.9,4.42-3.34,7.59-4.16C133.61,226.54,138.78,226.67,141.06,228.67Z"/>
        <path class="cls-2" d="M189.25,157.88c3.56-1.19,10.38-2.61,9.81,3s-13.86,5-16.5,3.52c-4.32-2.38,2.44-5.06,5.59-6.16C188.61,158.09,189,158,189.25,157.88Z"/>
        <path class="cls-2" d="M187.25,177.1c-1.66,4.25-8.51,4-11.79,3.86-2-.06-7.09-.86-4.47-4,.83-1,2.88-2,5.27-2.82C179.11,173.2,189.69,170.84,187.25,177.1Z"/>
        <path class="cls-2" d="M175.42,195.84c-1.43,3.3-6.14,3.74-8.93,3.88-2.38.11-8.32.59-9.51-1.72s2.2-4.55,6.45-5.74C169.63,190.52,177.57,190.89,175.42,195.84Z"/>
        <path class="cls-2" d="M150.66,208.35c3.38-1.24,7.33-1.72,9.93.56a6.42,6.42,0,0,1,.83.89,2.62,2.62,0,0,1,.49,2.59c-1.88,5.06-10.44,5.85-14.32,5.56-1.88-.14-5.92-.07-6.68-2.14-1.24-3.4,4.67-5.66,6.94-6.48C148.9,209,149.88,208.63,150.66,208.35Z"/>
      </g>
    </g>
    <g>
      <g>
        <path class="cls-2" d="M260.78,186.87c4.45,3.85,3.06,6.74,2.25,7.81-.69.91-2.71,2.77-6.43.26a13.09,13.09,0,0,1-1.26-1c-3.3-2.83-4.9-9.14-5-9.41l-.24-1,1,.05C251.33,183.66,257.5,184,260.78,186.87Z"/>
        <path class="cls-2" d="M246.35,170.49c3-1.52,6.38-2.11,7.45.68.82,2.13-2.31,4.74-3.66,6.11-3.66,3.74-13.73,3.12-8.61-3.2A16,16,0,0,1,246.35,170.49Z"/>
        <path class="cls-2" d="M240.21,167c5.19,1.17-1.85,8-4,9.13-2.48,1.31-10.16,3.32-8.79-1.56.43-1.56,3.5-3.85,6.58-5.52C236.57,167.73,239.11,166.79,240.21,167Z"/>
        <path class="cls-2" d="M225.1,165.51c1.16.77,1.52,2.66.17,5.54s-4.61,6.67-7.55,7.58C212.05,180.39,219.8,162,225.1,165.51Z"/>
        <path class="cls-2" d="M213.55,166.23c2.64,2.26.21,8.47-1.22,11.38-1.12,2.26-5.67,8.78-7.1,4.06a13.29,13.29,0,0,1,.24-5.34c.33-1.78.76-3.55.94-4.79C206.87,168.41,210.43,163.56,213.55,166.23Z"/>
        <path class="cls-2" d="M200.52,174.7c.51,3-.76,7.94-2.18,10.78-3.1,6.22-5.48,1-4.92-3.68.43-3.61,1.68-7.54,2.89-8.59C199,170.9,200,171.86,200.52,174.7Z"/>
        <path class="cls-2" d="M123.33,225.05c.68,0,1.37.51,2,1.75,1.91,3.59-1.27,16.28-5.29,18.34C111.62,249.44,118.19,225.11,123.33,225.05Z"/>
        <path class="cls-2" d="M187.18,179.51c5.48.43,1.89,10.24.48,13.4-1.68,3.78-4.26,6.58-5.48,1.37a14.39,14.39,0,0,1-.27-2.77C181.8,186.87,182.82,179.17,187.18,179.51Z"/>
        <path class="cls-2" d="M177.74,196.56c-.14,1.95-2.58,11.61-5.29,11.14-1.78-.3-2.55-2.53-2.6-5.3-.08-4.6,1.81-10.7,4.32-12C178.44,188.2,178,193.72,177.74,196.56Z"/>
        <path class="cls-2" d="M162.59,203.54c1.7,2.24,1.37,9,.54,12-1.28,4.51-4.11,4.19-5.78.79a12.22,12.22,0,0,1-.89-2.61C155.72,210.46,157.94,197.44,162.59,203.54Z"/>
        <path class="cls-2" d="M146.5,215.65c1.31,3.81,1.3,9.47-1.11,13.38-3.54,5.75-5.7-.82-6-4.34l0-.39c-.31-3.15-.72-8.29,1.25-11.37C143.46,208.4,145.55,212.87,146.5,215.65Z"/>
      </g>
      <g>
        <path class="cls-2" d="M242.15,180.31c2.36-.5,5.18,5.75,5.77,7.32,1.67,4.46-1.89,9.43-5.45,4.84-1.29-1.67-3.36-10.73-.62-12.05A1.21,1.21,0,0,1,242.15,180.31Z"/>
        <path class="cls-2" d="M237.83,188.28c.64,5.23-2.88,3.88-5.21,1.58-2.63-2.58-6.23-7.63-1.92-11.45C234.75,174.83,237.55,186,237.83,188.28Z"/>
        <path class="cls-2" d="M219.26,177.8c2.91.18,7.91,9.87,3.91,11.41s-9.54-7.14-6.16-10.67A2.75,2.75,0,0,1,219.26,177.8Z"/>
        <path class="cls-2" d="M208.23,181.76c2.84.73,9.92,6.57,7.39,10.75-3.49,5.75-11.92-5.59-11-9.56C204.9,181.79,205.93,181.18,208.23,181.76Z"/>
        <path class="cls-2" d="M203,188.29c3.61,1.47,5.47,5.84.4,7.87-1.22.49-3.32,0-5.24-.94-3.13-1.58-5.76-4.49-3.19-6.75C197,186.73,201.15,187.52,203,188.29Z"/>
        <path class="cls-2" d="M123.17,242.07c3.38-2.28,14-.82,14.74,3.51,1,5.91-9.39,5.06-12,3.8-2.31-1.13-6.88-3.8-3.53-6.75A8.36,8.36,0,0,1,123.17,242.07Z"/>
        <path class="cls-2" d="M194.4,195.75c2.28,1.31,4,3.32,1.25,6-2.24,2.2-7.91.71-10.74-1.78C178.68,194.46,191.3,194,194.4,195.75Z"/>
        <path class="cls-2" d="M188.26,208.69c.86,3.7-2.54,4.89-6.25,4.59s-8-2.23-8.09-4.6a2.48,2.48,0,0,1,.89-1.92C177.59,204.32,187.43,205.09,188.26,208.69Z"/>
        <path class="cls-2" d="M175.67,220.11c.3,3.1-2.49,4.31-5.71,4.32-4.05,0-8.78-1.93-8.84-4.46C161,214.9,175.16,214.91,175.67,220.11Z"/>
        <path class="cls-2" d="M162,233.18a2.94,2.94,0,0,1-.4,2.54c-2.76,3.83-10,2.29-13.9-.24-2.22-1.42-3.41-3.15-2.22-4.43C149.43,226.81,160.63,227.82,162,233.18Z"/>
      </g>
    </g>
    <g>
      <g>
        <path class="cls-2" d="M185.92,102.31c1.49,1.39.64,3.65-.48,5.21s-8.11,8.58-9.7,5.39c-1.18-2.36,5-10.52,8.51-11A1.93,1.93,0,0,1,185.92,102.31Z"/>
        <path class="cls-2" d="M169.09,152.41c2.66-2.64,5.87-5.53,9.17-7.14,3.46-1.7,6.18-.47,4.35,3.53-2.48,5.41-7.72,9.31-13,11-4.12,1.31-7,.86-3.51-3.91A31.7,31.7,0,0,1,169.09,152.41Z"/>
        <path class="cls-2" d="M144,184.15c2.07-2.13,4.84-4,7.62-4.05,2.53-.1,4.68,1.26,3.57,4.22-2.14,5.69-12.13,9.12-17,9-4.21-.14-1.65-2.95,1.32-5.47C141.41,186.21,143.48,184.73,144,184.15Z"/>
        <path class="cls-2" d="M172.82,172.09c.81,2.47-2.41,3.54-4.35,3.93a26.2,26.2,0,0,1-9.08.26c-1.26-.21-5.77-.92-6.25-2.18-1.21-3.16,8.39-5.44,14.65-4.66C170.34,169.77,172.33,170.6,172.82,172.09Z"/>
        <path class="cls-2" d="M181.89,124.46c3.53-2.06,4.83.3,4.13,3.87-.89,4.55-4.76,8.1-8.18,10.82-2.76,2.19-7.43,5.71-5.85-.39a30.76,30.76,0,0,1,6.62-11.53A14.74,14.74,0,0,1,181.89,124.46Z"/>
      </g>
      <g>
        <path class="cls-2" d="M165.54,80.34a10.78,10.78,0,0,1,5.71,4.75c1.61,2.68,1.27,5.52-2.38,4.49-2.58-.72-4.79-3.32-5.76-5.86a3.65,3.65,0,0,1-.12-2.83C163.36,80.21,164.16,79.91,165.54,80.34Z"/>
        <path class="cls-2" d="M170.53,105.56c3.15,1.6,5.66,4.23,4.12,6.56-2.26,3.42-8.61-.82-10.45-2-1.52-1-3.69-2.84-1.74-5C164.65,102.68,168.59,104.57,170.53,105.56Z"/>
        <path class="cls-2" d="M165.94,155.87c-1.12,3.54-5.26,0-6.45-1.22a29.32,29.32,0,0,1-2-2.26c-1.67-2.12-3.18-5-1.22-7.24C160.42,140.3,167.09,152.24,165.94,155.87Z"/>
        <path class="cls-2" d="M133,176.34l.21.2c2.57,2.53,4.67,8.06,3.84,11.93-1.19,5.54-11-5.65-11.81-8.08C122.92,173.08,128.6,172.35,133,176.34Z"/>
        <path class="cls-2" d="M148.26,158.79a9.36,9.36,0,0,1,3.3,2.7c1.91,2.53,6,11.37,1.14,13.26-5.33,2.06-8.64-7.8-10.22-11.12-.93-1.95-2.1-3.2.31-4.95C144.42,157.49,146.72,158,148.26,158.79Z"/>
        <path class="cls-2" d="M166.79,124.75a6,6,0,0,1,2.13,1.68c3,3.15,7.35,9.79,5.05,11.75-3.11,2.64-9.19-3.27-10.53-5.34C161.44,129.71,161.37,123.58,166.79,124.75Z"/>
      </g>
    </g>
    <g>
      <path class="cls-2" d="M191.56,231.79c.75,2.35.3,6.05-1.66,8.05-.94.95-6,5.41-5.81,1.93.12-3,0-7.16,2.25-9.77l.2-.22C188.28,229.92,190.7,229.05,191.56,231.79Z"/>
      <path class="cls-2" d="M186.54,231.78l-.13.13C187.36,230.86,187,231.26,186.54,231.78Z"/>
      <path class="cls-2" d="M186.41,231.91l-.07.09C185.86,232.54,185.45,233,186.41,231.91Z"/>
      <path class="cls-2" d="M186.54,231.78l-.2.22.07-.09Z"/>
      <path class="cls-2" d="M192.4,248.25A8,8,0,0,1,194,252.5c.06,1.57-.86,3.4-2.38,3s-2.58-1.81-3.44-3a26,26,0,0,1-2.26-4.13c-.73-1.63-1.35-3.33-1.94-5.07l1.14.18A10.68,10.68,0,0,1,192.4,248.25Z"/>
      <path class="cls-2" d="M159.6,248.79a4.77,4.77,0,0,1,3.85,1.11c2,1.46,3.94,4.26,3.94,7,0,1.37-.84,2.89-2.31,2.81s-3-1.49-4-2.6a16.61,16.61,0,0,1-2.63-4.72c-.58-1.45-1.14-2.47-.46-3.09A3,3,0,0,1,159.6,248.79Z"/>
      <path class="cls-2" d="M165.11,232.77c3.27.78-.26,8.39-1.13,10.1a23.25,23.25,0,0,1-3.27,4.64c-.39.44-.88,1.08-1.49,1.2-.87.19-1.33-1-1.39-1.66a19,19,0,0,1,.92-8.43C159.77,236.21,162,232,165.11,232.77Z"/>
      <path class="cls-2" d="M127.48,253.91a7.45,7.45,0,0,1,5.23,1.83c1.65,1.31,3.19,3.44,3.34,5.3.32,3.86-4.23,2.69-6.71.81a17.78,17.78,0,0,1-4-4.84c-.66-1-.73-1.72-.37-2.2A3.7,3.7,0,0,1,127.48,253.91Z"/>
      <path class="cls-2" d="M147.71,245.51l.87.1h0l-.86-.1Z"/>
      <path class="cls-2" d="M151.38,238h0c3.26.39.61,5-.42,6.82a17.44,17.44,0,0,1-4.78,5.36c-.91.73-2.37,2.22-3.52,1.73-2.63-1.11.68-6.4,1.71-8.2C145.89,241.11,148.21,237.68,151.38,238Z"/>
      <path class="cls-2" d="M148.88,254.56c1.92,1.44,3.74,3.67,2.63,6.56-1.38,3.57-5.49.66-7-.71-1.17-1.07-5.76-7.47-1.72-8.39C145,251.51,147.29,253.37,148.88,254.56Z"/>
      <path class="cls-2" d="M141.26,258.71Z"/>
      <path class="cls-2" d="M178.91,232.56c3.24.44.94,4.89-.07,6.82a16.74,16.74,0,0,1-4.42,5.29c-1,.82-2.72,2.59-4,2-2.75-1.19.48-6.65,1.55-8.61C173.45,235.39,175.74,232.12,178.91,232.56Z"/>
      <path class="cls-2" d="M172.36,245.85Z"/>
      <path class="cls-2" d="M178.61,248.88c1.93,1.47,4.13,4.09,2.62,7.05-1.58,3.11-5.68,0-7.09-1.26-1.17-1-6.45-7.86-2.21-8.73C174.34,245.44,176.87,247.56,178.61,248.88Z"/>
      <path class="cls-2" d="M172.36,245.85l-.43.09Z"/>
      <path class="cls-2" d="M193.24,242.91h0C194.14,242,193.45,242.7,193.24,242.91Z"/>
      <path class="cls-2" d="M193.23,242.91Z"/>
      <path class="cls-2" d="M193.24,242.91c1.91-1.89,5.57-1.47,7.56-.81a7,7,0,0,1,3.49,2.29c.71,1,1.34,2.71.37,3.94-1.5,1.89-5.25.86-6.91.29-1.43-.49-7-3.21-4.52-5.71Z"/>
      <polygon class="cls-2" points="193.24 242.91 193.24 242.91 193.23 242.91 193.24 242.91"/>
      <path class="cls-2" d="M132.8,246.14a10.88,10.88,0,0,1-2.74,4c-1.18,1.26-2,2.82-3.19,4.06-1,1-2.1.28-2.16-1.09a16,16,0,0,1,1.06-5.2c.93-3,2.16-7.84,5.37-8.82C134.16,238.15,133.27,244.63,132.8,246.14Z"/>
    </g>
    <g>
      <g>
        <path class="cls-2" d="M99.82,120.87c1.35-.45,2.61.34,3.68.93a12.14,12.14,0,0,1,3.85,3.1,13.64,13.64,0,0,1,2.44,4.56c.45,1.75-1.37,2.74-2.79,2.59-2.55-.26-5.19-2-7-3.6a6.16,6.16,0,0,1-2-3c-.38-1.5,0-3.54,1.49-4.35A2.35,2.35,0,0,1,99.82,120.87Z"/>
        <path class="cls-2" d="M110.06,136.45a10.62,10.62,0,0,1,3.87,1.4c.25.15,2.31,1.7,1.93,2a12.76,12.76,0,0,1-6.85,3.06c-2.05.26-5.78-.21-4.72-3.32C105.27,136.73,107.72,136.12,110.06,136.45Z"/>
        <path class="cls-2" d="M110.4,161.58a13,13,0,0,1,6.64,6c.68,1.38-.55,2.69-2,2.83a9.32,9.32,0,0,1-4.22-.83c-2.5-.94-5.89-2.17-6.54-5.24-.27-1.27,0-3,1.46-3.56S109.07,161,110.4,161.58Z"/>
        <path class="cls-2" d="M92.57,181.7a17.72,17.72,0,0,1,6.73,9.13c.5,1.38,1,3.54-1.12,4.1-1.88.49-3.86-1.06-5.16-2.06-2.15-1.67-4.59-3.58-5.58-6.33a5.63,5.63,0,0,1,.41-4.86C89.13,179.76,91.33,180.85,92.57,181.7Z"/>
        <path class="cls-2" d="M111.08,148.29a11.33,11.33,0,0,1,6.67,4.85c.69,1.24-.55,2.47-1.77,2.69a9.07,9.07,0,0,1-3.82-.34c-2.4-.6-5.63-1.38-6.46-4.11-.35-1.16-.23-2.77,1.13-3.36S109.82,148,111.08,148.29Z"/>
        <path class="cls-2" d="M104.48,173.11a11.46,11.46,0,0,1,3.44,3.78c.58,1,1.9,2.91,1.53,4.25-.94,3.37-5.9-.18-7.12-1-1.88-1.33-4.47-3.25-4.2-6.12C98.54,169.52,102.7,171.82,104.48,173.11Z"/>
      </g>
      <path class="cls-2" d="M79.73,201.06a19.73,19.73,0,0,1,7.44,12.16c.3,2.21-2,2.93-3.63,2.5-3.4-.92-6.6-4-8.91-6.58A10.21,10.21,0,0,1,72,204.58c-.39-1.78,0-4.87,2.18-5.62S78.36,200,79.73,201.06Z"/>
      <g>
        <path class="cls-2" d="M117.4,128Z"/>
        <path class="cls-2" d="M118.29,128a2.47,2.47,0,0,1,3.57.87c.79,1.21.53,2.93,0,4.37a17.92,17.92,0,0,1-6.17,8.59,12,12,0,0,1-.83-6.67c.29-2.33,1.14-5.83,3.38-7.16Z"/>
        <path class="cls-2" d="M117.4,128Z"/>
        <polygon class="cls-2" points="117.4 128 117.4 128 117.4 128 117.4 128"/>
        <path class="cls-2" d="M127,158.68a3.79,3.79,0,0,1,.45.29c1.9,1.48-.31,4.43-1.51,6.05a14.12,14.12,0,0,1-5.07,4.12c-1.1.57-2.72,1.66-3.71.75-1.93-1.78,1.44-5.83,2.78-7.53C121.47,160.37,124.53,157.4,127,158.68Z"/>
        <path class="cls-2" d="M114.18,192.35c1.23.82,2.34,2.59,1.47,4s-3.43,1.86-5.13,2.07c-3.86.46-8.13-.09-11.23-2.09-1.58-1-.45-2.8,1.06-3.54a15.54,15.54,0,0,1,5.18-1.25C108.35,191.23,111.83,190.79,114.18,192.35Z"/>
        <path class="cls-2" d="M126.45,141.35Z"/>
        <path class="cls-2" d="M126.45,141.35h0C126.19,141.33,123.35,141.1,126.45,141.35Z"/>
        <path class="cls-2" d="M125.68,143.15h0c2.78.23,1.32,3.94.56,5.74a13.11,13.11,0,0,1-3.25,4.54c-.87.81-2.26,2.4-3.43,1.93-2.35-1-.24-5.39.57-7.21C121.19,145.77,122.93,142.94,125.68,143.15Z"/>
        <polygon class="cls-2" points="126.44 141.35 126.45 141.35 126.44 141.35 126.44 141.35"/>
        <path class="cls-2" d="M123.49,179.59c1,.67,2.09,2,1.53,3.28s-2.69,1.67-4.07,1.84c-3.23.42-7,0-9.59-1.78-1.06-.72-.68-2.08.39-2.78a10.58,10.58,0,0,1,4.52-1.25C118.67,178.62,121.5,178.31,123.49,179.59Z"/>
        <path class="cls-2" d="M103.63,208.32c1.58.56,3.53,2.13,3.19,4-.43,2.21-3.59,3.26-5.51,3.91a20.91,20.91,0,0,1-7,1.23c-2.19,0-5.19-.21-7.06-1.17s-.54-3.26.91-4.3a19.2,19.2,0,0,1,5.24-2.42C96.66,208.47,100.48,207.21,103.63,208.32Z"/>
      </g>
    </g>
    <g>
      <path class="cls-2" d="M246.59,107.07a55.89,55.89,0,0,0-24,7.83c-.9.59-3.25,2.21-4.18,2.84-1.62,1.31-3.71,2.92-5.15,4.35a93.41,93.41,0,0,0-11.2,12.63c-10.88,14.56-19.87,30.53-30.37,45.43-17,24.43-38.21,46.27-63.22,62.62-5.48,3.55-12,7.41-17.68,10.61l-1.2-2.11,5.91-3.39c3.33-1.83,8.33-5.07,11.61-7.12a229.15,229.15,0,0,0,46-40.33C171.54,180,184.51,155.66,201,133.85c5.59-7.14,12-14,19.75-18.79,7.7-5,16.75-7.49,25.85-8.19v.2Z"/>
      <path class="cls-2" d="M255.88,188.12c-2.39-2.81-6.18-4.63-9.58-6.2-10.7-4.73-23.1-4.78-34.05-1-15,4.9-26.52,16.25-37,27.63-21.24,21.45-48.41,37.26-77.86,44.15a42.59,42.59,0,0,1-6,1c-.13,0-.17,0-.38,0l-.31,0a2.12,2.12,0,0,1-.56-.14,2.55,2.55,0,0,1-.73-.39L92.14,249a30,30,0,0,0,4.19,1.48c9.31,2.51,19.19,2.74,28.78,2.44,14.43-.53,29.59-3.59,43.65-6.95,8.13-2.4,20.73-5.77,28.79-.79l-.16.25c-4.21-2.51-9.43-2.27-14.14-1.71a70.24,70.24,0,0,0-14.13,3.52l-9.6,2.53-9.69,2.16c-18,3.38-41.54,6.3-58.93-.51l.28-.44s-.07,0,0,0a1.77,1.77,0,0,0,.23,0l.36,0c30.1-5.56,60.1-22.76,81.7-44.26,15.78-17.54,36.85-33.71,61.87-29.08,7.27,1.43,14.54,4.32,20,9.39a3.38,3.38,0,0,1,.81,1.11.29.29,0,0,1-.13.34l-.13-.28Z"/>
      <path class="cls-2" d="M167.86,84.48c.15-.2.43-.1.56,0A9,9,0,0,1,170,86.8c3.27,6.5,4.89,13.68,5.82,20.86,3.35,25.1-6.32,50.68-23.21,69.18-5.46,6.15-12,11.6-18.37,16.83-15.2,12.93-29.7,27.88-37.09,46.66a145.83,145.83,0,0,0-4.35,14.12l-2.42-.84c-3.59-1.26-5.49-5.14-6.79-8.4-3.21-8.86-2.22-18.75.67-27.43a68,68,0,0,1,8-16.2,112.49,112.49,0,0,1,14.14-17.22,39.26,39.26,0,0,0,11.54-26.44,42.23,42.23,0,0,0-6.65-24.5c-1.44-1.93-3.79-5.32-6.51-4.52l-.13-.26c4.77-1.6,9.93,8.49,11.37,12.11,5.66,13.58,4.09,30.11-5.29,41.67-1.58,2-4.1,4.61-5.85,6.54-11.37,12.83-21.5,29-20.47,46.8a26.47,26.47,0,0,0,3.73,12.33,6.94,6.94,0,0,0,3,2.8l-.34.19a119.47,119.47,0,0,1,3.63-11.78c7.39-19.39,22.47-34.59,38.06-47.71l4.75-3.93c11.16-9,21-19.8,27.76-32.46a83,83,0,0,0,7.64-59.53c-1-3.66-2.06-7.44-4.14-10.66a3.08,3.08,0,0,0-.24-.26c-.09-.09-.17-.08-.11-.1l-.24-.17Z"/>
    </g>
  </g>
</svg>
