<svg id="Layer_1" data-name="Layer 1" xmlns="http://www.w3.org/2000/svg" width="137.65" height="162.09" viewBox="0 0 137.65 162.09">
  <defs>
    <style>
      .cls-1 {
        fill: #295968;
      }
    </style>
  </defs>
  <path class="cls-1" d="M116.36,121.16a10.41,10.41,0,0,0-5.52,2.07,11.82,11.82,0,0,0-1.6-.11A23.39,23.39,0,0,0,101,125c1.34-1.26,2.55-2.68,2.69-4.35l0-.26-.28-.07a3.27,3.27,0,0,0-3.14,1.13,8.43,8.43,0,0,0-2.15,4.81c-1.18.57-2,1.05-2.43,1.27-1.28.74-2.53,1.38-3.77,2A4.86,4.86,0,0,0,93,126.53v-.23l-.26,0a2,2,0,0,0-.42,0c-2.07,0-4,3-5.3,5.18a29,29,0,0,1-7.75,1.3c.48-.29.95-.58,1.37-.86s2-2.67,1.6-3.61a.76.76,0,0,0-.76-.46l-.13,0c-1.58.58-4,3-5.31,4.8-.77-.08-1.55-.19-2.31-.34A39.55,39.55,0,0,0,79.24,128a31.44,31.44,0,0,1,5.83-4.35c1.3-.68,2.69-1.3,4.09-1.9a20.43,20.43,0,0,0,7.29,1.79,9.31,9.31,0,0,0,1.72-.16l.32-.07,0-.28c-.27-1.75-3-2.54-5.86-2.75a60.86,60.86,0,0,0,6.71-3.23h.31c1.63,0,11.48-.7,11.48-2.39a1,1,0,0,0-.28-.85,2.16,2.16,0,0,0-1.56-.44,26.41,26.41,0,0,0-6.74,1.52l.51-.39c3.38-2.8,3.89-6.53,4.34-9.82,0-.09,0-.18,0-.26,2.77-.37,7.37-1.65,8.62-3.06a1.15,1.15,0,0,0,.32-1.08c-.07-.24-.31-.64-1.13-.64-1.55,0-4.6,1.38-7.52,2.86.6-3.35,1.77-5.74,6.87-6.69a1.35,1.35,0,0,0,.87-.52,1.07,1.07,0,0,0,.2-.92,1.4,1.4,0,0,0-1.64-1,17.43,17.43,0,0,0-2.45.63,16.82,16.82,0,0,0,2.07-6.3v-.28l-.32,0a2.79,2.79,0,0,0-2.41.86c-1.53,1.59-1.8,4.84-1.73,6.84-3.59,2.21-4.08,5.77-4.55,9.25-.33,2.42-.69,4.89-2.17,6.91.29-3.12.12-7.27-3.15-8.43l-.34-.12-.13.31c-.49,1.26,0,2.87.49,4.29.13.4.25.78.34,1.13s.16.67.25,1.07a16.17,16.17,0,0,0,1,3.36c-3.06,2.45-6.95,4.1-10.73,5.69l-.12,0-1.61.69c.87-1.95,1.71-4.44,1.17-5.59a1.17,1.17,0,0,0-.89-.69,1.32,1.32,0,0,0-1.28.46c-1.08,1.21-1.24,4.66-1.16,6.78-.88.4-1.75.8-2.6,1.24l-.23.14a23.81,23.81,0,0,0,2.07-5.83c.2-.92.34-1.83.48-2.75,2.18-1,5.22-2.85,5.83-4.21a1,1,0,0,0-.24-1.29,1.23,1.23,0,0,0-.84-.29c-1.17,0-2.71,1.31-4.39,3a25.88,25.88,0,0,1,.87-4.2c.53-1.7,1.24-3.4,2-5.07.49-1.16,1-2.36,1.43-3.58.62-.27,1.25-.59,1.88-.91a21.67,21.67,0,0,1,2.15-1,30.9,30.9,0,0,0,5.76-2.22l.34-.18-.24-.28A3.15,3.15,0,0,0,98,91.88c-2.06,0-4.6,1.47-6.58,3,1.11-4.94,0-9.63-1-14.19,0-.09,0-.18-.07-.27,2.24-1.6,5-4.29,5.92-6.29l.13-.26-.29-.13a2.76,2.76,0,0,0-1.24-.3c-2.15,0-3.94,2.4-5,4.54A38.42,38.42,0,0,1,89,72.34a22.37,22.37,0,0,1,3.49-12.89c.57,0,1.15.06,1.51.06.57,0,5.62,0,6.78-1.42a.91.91,0,0,0,.19-.94c-.12-.38-.53-.84-1.69-.84a20.34,20.34,0,0,0-5.48,1.3,19.67,19.67,0,0,1,7.32-5.83,1.16,1.16,0,0,0,.59-1.64,1.54,1.54,0,0,0-1.87-.54A25.08,25.08,0,0,0,97.22,51c.71-2.35.84-4.67-1.25-5.85l-.25-.14-.2.18c-1.54,1.4-1.15,3.11-.86,4.35l.11.48c0,.29,0,.73,0,1.2a14.35,14.35,0,0,0,0,1.6,23.43,23.43,0,0,0-3.87,4.23c-.2-2.56-.93-5.18-3.51-6.53l-.26-.14-.2.21c-.15.16-.6.66,0,2.95a22.54,22.54,0,0,0,2.51,5.83,25,25,0,0,0-3.21,11.7A8.05,8.05,0,0,0,82,66.94l-.28-.11-.16.23c-.42.61-.21,1.69.62,3.22a17.67,17.67,0,0,0,4.38,5.27c.3,1.92.71,3.8,1.13,5.63s.79,3.49,1.06,5.21a6.23,6.23,0,0,0-5.51-2.49l-.31,0v.28c0,1.47,1.69,2.43,3,3.19l.68.4A16.52,16.52,0,0,1,88.13,89c.32.29.64.57,1,.83a17.29,17.29,0,0,1-.92,6.4c-.47,1.32-1,2.66-1.6,4-.64,1.53-1.3,3.12-1.83,4.74-.44-2.81-1.47-5.59-4.53-6.37l-.39-.1-.06.36c-.24,1.42.69,3,1.5,4.49.22.39.44.76.61,1.11s.39,1,.6,1.57a15.15,15.15,0,0,0,1.29,3c-.12.79-.23,1.58-.33,2.35-.16,1.25-.34,2.67-.64,4a21.75,21.75,0,0,1-1.61,4.77c-.3-2.09-1-4.14-1.76-5l-.22-.24-.27.19c-2.24,1.57-.94,5.55.14,8.48a25.66,25.66,0,0,1-7.28,6.2,1.67,1.67,0,0,0-.5,0,21,21,0,0,0-.39-2.44,20.08,20.08,0,0,1-.35-2.34c2.31-1.65,5.63-4.23,5.63-6.61v-.22l-.24-.07a2.13,2.13,0,0,0-.67-.1c-1.61,0-3.23,1.53-4.44,3.25a25.94,25.94,0,0,1,1.09-3.66,29.91,29.91,0,0,0,1.69-14.45c1.79-2.48,3.71-5.43,2.74-8.29l-.1-.29-.33.08c-1.26.28-2.32,2.29-2.85,3.47-.1.24-.21.5-.32.78-.5-1.91-1.1-3.77-1.7-5.58-.44-1.33-.87-2.63-1.25-3.94,2.37-2.29,4.79-5.73,3.91-9l-.09-.34-.37.12c-1.88.58-2.6,2.69-3.18,4.37-.1.28-.19.55-.28.79a13.53,13.53,0,0,1-.69,1.37,23.5,23.5,0,0,1-.6-6.64,34,34,0,0,1,1.28-6.53c.1-.38.19-.76.29-1.14,2.48-1.32,6.61-4.18,7.25-5.37a.61.61,0,0,0,0-.76A1.63,1.63,0,0,0,76,65.76c-1.52,0-3.61,1.81-5.28,3.59a19.91,19.91,0,0,0,.38-3.69,30.74,30.74,0,0,0-1.56-8.24c-.36-1.25-.72-2.52-1-3.79a22.34,22.34,0,0,0,2.56-2.17c.32-.3.59-.56.78-.71l.11-.1c1.58-1.28,2.94-2.38,3-4.51V45.9l-.25-.07a3.31,3.31,0,0,0-.93-.13c-2.45,0-4.4,2.8-5.71,5.25-.49-6.4,2.76-13.24,7.15-18.34h.84c.7,0,6.87,0,7.2-1.65a.87.87,0,0,0-.21-.8,2,2,0,0,0-1.52-.43,19.35,19.35,0,0,0-4.32.74,31.09,31.09,0,0,1,2.41-2.11,1.13,1.13,0,0,0,.12-1.72,1.57,1.57,0,0,0-2-.11,35.42,35.42,0,0,0-7.45,8.07,9.23,9.23,0,0,0-1-4.7l-.19-.25-.29.16c-2.31,1.28-1.3,5.3-.64,8,0,.12.06.23.09.34a26.75,26.75,0,0,0-2.89,9.16A16.43,16.43,0,0,0,60.14,41l-.33-.21-.19.33c-1.15,2,1,4.31,2.44,5.82l.12.14c.32.33.69.76,1.09,1.23a24,24,0,0,0,2.09,2.27q0,.93.18,1.86A41.84,41.84,0,0,0,66.89,58a30.15,30.15,0,0,1,1.43,7.14c-2.15-3.75-4.81-5.83-7.94-6.13L60,59l0,.37c.11,1.67,2,3,3.58,4.11.35.25.68.48,1,.7a21.22,21.22,0,0,1,1.6,1.64,23.48,23.48,0,0,0,2,2.06A44.9,44.9,0,0,1,67.07,73a43.37,43.37,0,0,0-1.17,5.3,24.49,24.49,0,0,0-2.25-2.47,14.86,14.86,0,0,0-4.81-1.76c-.59,0-.8.31-.8.59l0,.1c.47,1.24,1.95,2,3.25,2.75.51.28,1,.54,1.42.82a12.48,12.48,0,0,1,2,1.7c.34.32.66.63,1,.92a32,32,0,0,0,1.66,9.9l0,.57.16-.12c.29.92.59,1.83.89,2.73s.54,1.63.8,2.45c-2.72-2.43-5.79-4.66-9.09-5.37l-.4-.08,0,.36c-.22,2.25,2.75,3.67,4.71,4.61l.18.08c.43.21,1,.49,1.52.79a19.6,19.6,0,0,0,3.75,1.72,35.62,35.62,0,0,1,.93,4.12,27.26,27.26,0,0,1-.23,9.78c-1.47-3.1-4.28-5.67-7.94-5.67h-.46l.12.39c.39,1.31,1.75,2.27,3.07,3.19a17.81,17.81,0,0,1,1.48,1.1,12.91,12.91,0,0,1,1.92,2.13c.4.5.79,1,1.18,1.4-.18.61-.38,1.21-.61,1.81a21.53,21.53,0,0,0-1.53,6.89,10,10,0,0,0-4-3.48l-.36-.17-.13.35c-.68,1.81,1.08,3.77,2.36,5.19l.5.56a21.74,21.74,0,0,1,1.25,1.85c.38.6.77,1.2,1.17,1.75,0,.23,0,.46,0,.7-4.33-2.55-7-5-8.6-9.45a33.61,33.61,0,0,0-1.66-3.87c1.49-2.73,3-6.22,1-8.79l-.2-.25-.29.17c-1.63.94-1.71,3.7-1.71,4.25a12.91,12.91,0,0,1-.26,2s0,.06,0,.09c-.33-.48-.68-1-1.07-1.43a30.79,30.79,0,0,0-2.85-2.86c-.52-.47-1-.94-1.49-1.41a15.18,15.18,0,0,0,1.07-2.78,12.78,12.78,0,0,1,.71-1.94,7.65,7.65,0,0,0,.8-4v-.33h-.37a3,3,0,0,0-2,.88c-1.34,1.35-1.66,4-1.61,6.61-.11-.14-.22-.27-.32-.42-1.65-2.36-1.82-5.08-2-8a21,21,0,0,0-1.36-7.36,15.3,15.3,0,0,0-1.06-2c1.07-2.72,2.34-6.27.43-8.86l-.15-.22-.27.09A2.25,2.25,0,0,0,44,82a12.21,12.21,0,0,0-.45,5.24,34.89,34.89,0,0,0-7-6.12c0-.12,0-.23,0-.35.4-2.55.88-5.71-.81-7.79l-.16-.19-.25.09A2.19,2.19,0,0,0,34,74.58a10.41,10.41,0,0,0,.57,5.24c-.82-.52-1.63-1-2.44-1.5a1.53,1.53,0,0,0-1.92.33,1.08,1.08,0,0,0-.22.91,1.23,1.23,0,0,0,.59.79c1.64,1,3.32,2,4.93,3.18-.27,0-.55,0-.83,0a5.89,5.89,0,0,0-3.77,1l-.16.14.07.18c.37,1,2.23,1.23,3.72,1.23a15.86,15.86,0,0,0,3.73-.45,19.75,19.75,0,0,1,5.49,6.83,15.11,15.11,0,0,1,1.06,4.89l-.06-.06c-.4-.38-.78-.73-1-1l-.12-.12c-1.37-1.46-2.67-2.84-5.14-2.88h-.36v.31c-.07,2.53,4.2,5.06,6.9,6.4.19,2.79.52,5.63,2.34,8.23a16,16,0,0,0,1.77,2.08,12.58,12.58,0,0,0-3.29-.51,5.48,5.48,0,0,0-3.5,1.1l-.24.19.18.22c.95,1.18,4.11,1.31,5.43,1.31a18.77,18.77,0,0,0,3.51-.32,25,25,0,0,1,2.35,2.37,21.4,21.4,0,0,1,3.34,5.91,10,10,0,0,0-5-1.86,4.1,4.1,0,0,0-.88.09l-.37.08.12.32c.83,2.31,4.94,4.19,8,5.58,1.78,3.16,4.26,5.29,7.79,7.42a18,18,0,0,1-3.9.38,36,36,0,0,1-4.64-.34l-1.31-2.41c-.85-1.59-1.72-3.23-2.64-4.82l-.16-.28-.32.14a2.3,2.3,0,0,0-1.19,3,10,10,0,0,0,2.27,3.76c-3.84-.94-6.45-3.39-9.15-6.29a15.19,15.19,0,0,0,.09-7.07l-.09-.24h-.29a2,2,0,0,0-1.73.88,5.8,5.8,0,0,0-.33,4,25.43,25.43,0,0,0-9.09-6.1c-.3-2-1.31-6.28-4.49-6.28a3.47,3.47,0,0,0-.64.06l-.3,0v.27c.06,1.43,1.53,3.59,3,5.13a16.54,16.54,0,0,0-3.81-.47,11.84,11.84,0,0,0-3.09.39,9.46,9.46,0,0,0-3.3-.76,3.25,3.25,0,0,0-2.5,1l-.15.18.14.19c.52.71,1.94.86,2.86.88a7.48,7.48,0,0,0-1.9,2.28,1.11,1.11,0,0,0,0,.94,1.24,1.24,0,0,0,.71.69,1.5,1.5,0,0,0,1.84-.58,5.05,5.05,0,0,1,3.66-2.6,3,3,0,0,0-1,.89,1.69,1.69,0,0,0-.18,1.56l.06.19.21,0a3,3,0,0,0,.42,0c1.64,0,3.67-1.4,4.66-2.63a13.31,13.31,0,0,1,1.69.42,18.93,18.93,0,0,1,4.84,2.26c-2.35,0-5.15.75-5.64,2.65l-.08.28.31.09a2.53,2.53,0,0,0,.65.06,38.65,38.65,0,0,0,7.33-1.13,49.91,49.91,0,0,1,3.88,3.83c.47.51.94,1,1.43,1.5a10.46,10.46,0,0,0-1.55-.13,4.34,4.34,0,0,0-3.68,1.42l-.15.21.2.18a5,5,0,0,0,3.38,1,26.57,26.57,0,0,0,3.83-.39l.32,0a16.76,16.76,0,0,0,7.71,3.79,42.9,42.9,0,0,0,8,.85,19.19,19.19,0,0,0,5.93-.81h.05a1.55,1.55,0,0,0,.31,0c.36-.07.7-.17,1-.27a1.66,1.66,0,0,0,.32,0,28.74,28.74,0,0,0,8.28,1.24,32.78,32.78,0,0,0,10.56-1.85,32.11,32.11,0,0,0,6.77,1c1.71,0,2.63-.33,2.83-1a.92.92,0,0,0-.19-.9c-.44-.5-1.53-.75-3.31-.75-.64,0-1.33,0-2,.08,1.36-.62,2.72-1.31,4.09-2.1a37.35,37.35,0,0,1,5.85-2.72c1.68,1,4.36,2.4,6,2.4a1.57,1.57,0,0,0,1.32-.53.93.93,0,0,0,.12-1.06c-.44-.81-2.27-1.38-4.12-1.75a14,14,0,0,1,2.86-.34,7.54,7.54,0,0,1,2,.25,4.13,4.13,0,0,1,2.79,2.44,1.47,1.47,0,0,0,1.79.69,1.34,1.34,0,0,0,.77-.64,1.11,1.11,0,0,0,0-.94,6.61,6.61,0,0,0-2.72-3.08,8.63,8.63,0,0,0,4.85-1.71l.2-.18-.16-.21A2.82,2.82,0,0,0,116.36,121.16Z"/>
</svg>
