<svg id="Layer_1" data-name="Layer 1" xmlns="http://www.w3.org/2000/svg" width="281.48" height="296.47" viewBox="0 0 281.48 296.47">
  <defs>
    <style>
      .cls-1 {
        fill: #5159b7;
      }

      .cls-2 {
        fill: #607718;
      }
    </style>
  </defs>
  <g>
    <g>
      <g>
        <path class="cls-1" d="M104.25,58.31c-4.18-2.77-7.56-3.13-9.1-1.13a2.9,2.9,0,0,0-.55,2.39c.33,1.66,1.89,3.42,4.65,5.25a21.56,21.56,0,0,0,6.41,2.64,39.3,39.3,0,0,0,5.64,1l1,.1-.45-.9C111.77,67.43,108.67,61.24,104.25,58.31Z"/>
        <path class="cls-1" d="M118.88,59.76a5.41,5.41,0,0,0-1.49-.42,3.85,3.85,0,0,0-3.08.73c-1.49,1.24-1.47,3.09-1.12,4.73.49,2.23,1.48,8.74,5.19,8.52C123.22,73.05,122.85,61.53,118.88,59.76Z"/>
        <path class="cls-1" d="M127.26,69.65c-2.65.54-3.19,3.57-3.42,5.74-.16,1.71.79,8.75,2.88,9.47.58.2,1.25-.09,2-1.12,1.83-2.49,4.05-9,2.92-12.14C131,69.82,129.18,69.25,127.26,69.65Z"/>
        <path class="cls-1" d="M132.22,88.76a24.51,24.51,0,0,0-1.34,3.87c-.51,2.23-.34,4.4,2.56,3.88,2.72-.47,4.7-3.83,6.22-5.66,1.33-1.6,2.86-4.4,1.35-6.42C138,80.45,133.25,86.27,132.22,88.76Z"/>
        <path class="cls-1" d="M140.2,100.25a14.85,14.85,0,0,0-7,5.4c-.21.31-.45.7-.68,1.12-2.16,4.07,1.5,4.26,4.86,3.47s8.65-3,8.9-6.88C146.42,100.56,142.65,99.4,140.2,100.25Z"/>
        <path class="cls-1" d="M137.24,115.07a1.29,1.29,0,0,0-.21.07c-2.89.85-9.28,4-8.53,7.21,1.23,5.36,15.86-1.06,16.44-4.62C145.57,113.83,139.6,114.42,137.24,115.07Z"/>
        <path class="cls-1" d="M107.32,190.19c-5.21-.81-16,4.76-17.43,7.09-2.71,4.42,5.92,3.88,8.27,3.58,4.23-.55,12.1-2.31,12-7.68A2.9,2.9,0,0,0,107.32,190.19Z"/>
        <path class="cls-1" d="M139.2,129.94a2.88,2.88,0,0,0-1.87-.88,13.69,13.69,0,0,0-6.87,1.45c-1.93,1.07-11.34,6.86-4.89,8,2,.35,4.42-.49,6.32-1C134.21,136.88,142,133.23,139.2,129.94Z"/>
        <path class="cls-1" d="M130.52,146.15a13.24,13.24,0,0,0-5.16-.07c-2.77.6-10.38,2.42-9.1,6.47.75,2.35,6.22,1.86,7.91,1.28,2.65-.9,5.33-1.13,7.57-2.93C135.05,148.25,133.24,146.74,130.52,146.15Z"/>
        <path class="cls-1" d="M122.58,162.16a4.78,4.78,0,0,0-1.39-.41c-2.65-.38-5,.87-7.5,1.4-1.71.36-9.92,2.41-6.86,5.48,1.46,1.47,6.43.77,8.29.51,2.47-.36,6.55-.41,8.38-2.2S124.53,163.07,122.58,162.16Z"/>
        <path class="cls-1" d="M118.4,178.49a5.41,5.41,0,0,0-1.85-1.1c-4.27-1.56-11.18.89-14.58,2-1.57.5-4.37,1.19-4.23,3.18.27,3.8,6.14,3.32,8.84,3.09C109,185.43,124.14,183.84,118.4,178.49Z"/>
      </g>
      <g>
        <path class="cls-1" d="M116,71.44c-2.94-2.29-10.56-4.66-13.91-2.42a2.1,2.1,0,0,0-1,1.54c-.43,3.46,2.85,4.71,6.76,5C110.43,75.72,121.53,75.75,116,71.44Z"/>
        <path class="cls-1" d="M119.13,79.16c-2.29-.56-4.07-.5-5.3.18a3,3,0,0,0-1.49,1.94c-1.6,6.79,15.69,6.24,13.91,2.29C125.34,81.49,121.29,79.72,119.13,79.16Z"/>
        <path class="cls-1" d="M130.22,94.43A13.4,13.4,0,0,0,122.53,91c-.53,0-5.2-.21-5.44,2.42-.12,1.32.79,3.17,5.76,4.5l.11,0C125.78,98.7,134.67,98.67,130.22,94.43Z"/>
        <path class="cls-1" d="M123.92,101.76c-.6-.23-5.84-2.06-7.3.37-2,3.35,3.67,6.37,6.31,7.41s12.06,3,8.25-2.26A17.12,17.12,0,0,0,123.92,101.76Z"/>
        <path class="cls-1" d="M118.32,112.28a2.89,2.89,0,0,0-1.22,2.12c-.13,1.47.72,3.23,2.53,5.23,1.54,1.7,5.93,5.18,8.5,4.72a1.83,1.83,0,0,0,1.1-.51c1.06-1.1-.08-3.48-.69-4.82C127.17,116,122.65,109.13,118.32,112.28Z"/>
        <path class="cls-1" d="M80.19,182.77a6.59,6.59,0,0,0-2.39-.17,2.64,2.64,0,0,0-2.16,1.21c-1.86,3.22.47,6.83,2.82,9.38,1.51,1.63,9.63,10.33,11.24,5.32.62-1.93,0-4.68-1.27-7.34C86.55,187.28,83.24,183.57,80.19,182.77Z"/>
        <path class="cls-1" d="M121.8,129.17c-1.21-3.11-4.27-8.7-8.55-5.84s4.48,12.26,7.32,13.56c4.62,2.11,2.65-4,1.61-6.75Z"/>
        <path class="cls-1" d="M106.19,139.08c-2.48,3,2,7.93,4.12,10.28,1.26,1.41,5.08,4.79,6,1.52.31-1-.1-3-.92-5.06C114.43,143.33,109.83,134.59,106.19,139.08Z"/>
        <path class="cls-1" d="M95.89,153.55c-1.83,2.48.72,6.1,2.33,8.19,1.38,1.79,4.66,6.32,7.3,6.19s2.38-3.58.72-7.2C103.84,155.46,98.63,149.83,95.89,153.55Z"/>
        <path class="cls-1" d="M96.89,172.6c-1.07-3-3.12-6.09-6.61-7a8.33,8.33,0,0,0-1.23-.22,2.69,2.69,0,0,0-2.44.77c-3,3.56,1.64,10.14,4.28,12.85,1.29,1.31,3.73,4.29,5.89,3.94,3.57-.57,1.77-5.86,1-7.87C97.49,174.15,97.14,173.29,96.89,172.6Z"/>
      </g>
    </g>
    <g>
      <g>
        <path class="cls-1" d="M29.54,89.4c-6-1-7.17,1.47-7.38,2.57-.18.94-.1,3.26,4.42,4.43a16.05,16.05,0,0,0,1.63.34c4.44.73,10.25-1.49,10.5-1.59l.88-.33-.73-.62C38.67,94.05,34,90.11,29.54,89.4Z"/>
        <path class="cls-1" d="M45.44,88.6c-1-2.82-3-5.37-5.85-4.63-2.16.56-1.84,4-1.89,5.64-.13,4.4,7.54,10.81,8.53,4.08A11.69,11.69,0,0,0,45.44,88.6Z"/>
        <path class="cls-1" d="M54.28,88.91c-4.59-2.86-4.59,5.42-3.9,7.41.81,2.35,4.82,8.53,7.46,5.07.83-1.1.32-4.35-.66-7.28C56.38,91.71,55.25,89.52,54.28,88.91Z"/>
        <path class="cls-1" d="M66.42,96.79c-1.4-.38-3.05.37-4.22,2.78s-1.61,6.55-.18,9C64.8,113.28,72.78,98.52,66.42,96.79Z"/>
        <path class="cls-1" d="M77.39,108.22c-3.56-.59-6.39,4.28-7.52,6.76-.86,1.92-2.42,8.37,2.1,6.86a11.06,11.06,0,0,0,3.77-2.94c1.08-1.15,2.08-2.37,2.86-3.13C80.58,113.82,81.6,108.91,77.39,108.22Z"/>
        <path class="cls-1" d="M77.59,122.62c-2.57,1.22-5.31,4.65-6.39,7.08-2.37,5.32,3.21,4.17,6.24,1.37,2.36-2.17,4.36-5.06,4.27-6.41C81.52,121.68,80,121.45,77.59,122.62Z"/>
        <path class="cls-1" d="M80.77,197.74c-4,.6-11.1,9.35-9.73,13.11,2.89,7.9,16.13-9.19,12.49-12.66C83,197.73,82.18,197.54,80.77,197.74Z"/>
        <path class="cls-1" d="M84.34,135.15c-4.25-3.44-8.91,4.08-10.23,6.67-1.59,3.1-1.81,6.28,2.92,4.38a14,14,0,0,0,2.23-1.26C82.76,142.59,87.71,137.9,84.34,135.15Z"/>
        <path class="cls-1" d="M78.06,152.9c-1.33,1.11-6.71,7.78-4.43,9.35,1.51,1,3.7.38,5.78-1,3.46-2.35,6.6-6.8,5.76-9.15C83.74,148.07,80,151.27,78.06,152.9Z"/>
        <path class="cls-1" d="M81.52,167.53c-2.87,0-7.66,3.8-9.22,5.88-2.41,3.22-.15,4.94,3.56,4.28a12.38,12.38,0,0,0,2.56-.77C81.33,175.73,89.36,167.45,81.52,167.53Z"/>
        <path class="cls-1" d="M80.29,183.79c-3.74,1.12-7.92,4.08-9.08,7.73-1.7,5.37,4.7,3.38,7.54,1.78l.32-.17c2.55-1.44,6.64-3.85,7.49-6.77C87.83,182,83,183,80.29,183.79Z"/>
      </g>
      <g>
        <path class="cls-1" d="M44.92,96.75c-1.32-1.83-8-.46-9.53,0-4.5,1.2-5.61,6.18.33,6.16,2.16,0,10.33-3.35,9.34-5.87A.94.94,0,0,0,44.92,96.75Z"/>
        <path class="cls-1" d="M42.55,103c-4.32,2.3-.79,4,2.58,4.32,3.78.41,10.09.18,9.81-4.7C54.69,98,44.42,102,42.55,103Z"/>
        <path class="cls-1" d="M62.65,109.27c-2.22-1.86-13-.15-11.23,3.33s12.11,2.66,12.29-1.45A2.35,2.35,0,0,0,62.65,109.27Z"/>
        <path class="cls-1" d="M67.79,119.35c-2.57-1.52-12-3.21-13.23.66-1.74,5.33,12.68,5.06,14.94,2.37C70.16,121.59,69.88,120.58,67.79,119.35Z"/>
        <path class="cls-1" d="M65.85,127.23c-3.66-1.65-8.22-.61-6.1,3.84.52,1.07,2.37,2.23,4.45,3,3.41,1.27,7.45,1.51,7.28-1.39C71.34,130.46,67.77,128.09,65.85,127.23Z"/>
        <path class="cls-1" d="M71.94,209.38c-.74-3.45-9.46-9.81-13.15-8-5.07,2.43,3,8.92,5.76,10,2.49.95,7.73,2.63,7.5-1.16A5,5,0,0,0,71.94,209.38Z"/>
        <path class="cls-1" d="M65.11,138.61c-2.6-.84-5.28-.91-5.29,2.28,0,2.65,5.15,5.66,9,6.26C77.34,148.45,68.67,139.75,65.11,138.61Z"/>
        <path class="cls-1" d="M62.27,153.07c-3.36,1.36-1.79,4.26,1.09,6.58s7.41,4.22,9.18,3a1.74,1.74,0,0,0,.79-1.6C73.14,157.94,65.51,151.75,62.27,153.07Z"/>
        <path class="cls-1" d="M60.25,169.09c-2.5,1.42-1.4,3.91.91,6.06,2.9,2.72,7.72,4.88,9.63,3.6C74.61,176.18,64.45,166.72,60.25,169.09Z"/>
        <path class="cls-1" d="M57.52,182.91a2.26,2.26,0,0,0-1.58,1.6c-.85,3.85,5.44,7.86,10.14,9.17,2.63.74,4.77.63,4.86-.83C71.22,188,62.45,181,57.52,182.91Z"/>
      </g>
    </g>
    <g>
      <g>
        <path class="cls-1" d="M160.92,142.33c-2.09-.28-3.14,1.48-3.49,3s-.52,9.9,3,9.3c2.59-.44,4.18-8.84,2-11.46A2.31,2.31,0,0,0,160.92,142.33Z"/>
        <path class="cls-1" d="M136.17,163.12c-1.23-3.2-4.09-4.38-5.73-1.07-2.21,4.48-1.34,10,1.21,14.43,2,3.44,4.41,5.15,5.4.32a22.3,22.3,0,0,0,.43-3.82A27.62,27.62,0,0,0,136.17,163.12Z"/>
        <path class="cls-1" d="M106.9,208.28a9.66,9.66,0,0,0-2.47-7.21c-1.75-1.75-4.28-2.48-5.67-.19-2.67,4.4,2,12.88,5.6,16.08,3.12,2.75,3.35-.43,3.08-3.73C107.26,211.11,106.88,209,106.9,208.28Z"/>
        <path class="cls-1" d="M120,182.94c-2.5-1-3.63,1.59-4,3.19a18.84,18.84,0,0,0-.37,7.7c.21,1.1.88,5,2.16,5.61,3.2,1.44,5.64-6.43,4.9-11.86C122.34,185.36,121.51,183.56,120,182.94Z"/>
        <path class="cls-1" d="M150.53,152.64c-1-3.44-3.68-3.08-5.81-.75-2.72,3-2.57,7.41-2.12,11.12.36,3,1.11,8,4.48,3.71a20.94,20.94,0,0,0,3.77-10.44A10.6,10.6,0,0,0,150.53,152.64Z"/>
      </g>
      <g>
        <path class="cls-1" d="M183.63,148.52a13.75,13.75,0,0,0-7.6-1.34c-3.13.32-5,2-1.61,3.93a12.22,12.22,0,0,0,8.45.8,3.13,3.13,0,0,0,2.18-1.4C185.29,149.92,184.94,149.22,183.63,148.52Z"/>
        <path class="cls-1" d="M166.89,154c-3.45-1.26-7.18-1.57-7.79.67-.91,3.3,6.76,5.33,9,5.93,1.84.49,4.74,1,4.92-1.44C173.23,156.48,169,154.83,166.89,154Z"/>
        <path class="cls-1" d="M134.58,180.54c-1.81,2.59,3.78,3.51,5.53,3.67.77.07,1.9.17,3.1.17,2.77,0,6-.46,6.23-3C150,176.1,136.44,177.87,134.58,180.54Z"/>
        <path class="cls-1" d="M120.29,213.52l-.29,0c-3.72-.4-9.31,1.08-11.57,3.65-3.23,3.7,12.09,4.45,14.44,3.69C129.9,218.54,126.36,214.36,120.29,213.52Z"/>
        <path class="cls-1" d="M136.36,194.79A11.78,11.78,0,0,0,132,194c-3.24,0-12.71,1.9-10.6,6.15,2.3,4.65,11.95,1.71,15.54,1,2.1-.4,3.87-.27,3.43-2.8C140.07,196.68,138,195.42,136.36,194.79Z"/>
        <path class="cls-1" d="M159.31,167.34a7.76,7.76,0,0,0-2.76-.56c-4.49-.37-12.51.2-12.3,2.76.28,3.45,9,4.44,11.49,4.25C159.49,173.5,164.06,170.35,159.31,167.34Z"/>
      </g>
    </g>
    <g>
      <path class="cls-1" d="M42.92,168.06c-2.27.72-4.69,2.95-4.76,5.31,0,1.12.27,6.8,2.74,4.89,2.17-1.67,5.31-3.79,5.6-6.66a.49.49,0,0,0,0-.12C46.67,169.32,45.59,167.19,42.92,168.06Z"/>
      <path class="cls-1" d="M46.51,171.48a.22.22,0,0,1,0,.08C46.62,170.33,46.57,170.87,46.51,171.48Z"/>
      <path class="cls-1" d="M46.51,171.48a.49.49,0,0,1,0,.12s0,0,0,0A.22.22,0,0,0,46.51,171.48Z"/>
      <path class="cls-1" d="M46.51,171.56s0,0,0,0C46.44,172.23,46.4,172.8,46.51,171.56Z"/>
      <path class="cls-1" d="M30.16,176.08a8.65,8.65,0,0,0-4.31,1.13c-1.19.77-1.88,2.35-.5,3.16a8.82,8.82,0,0,0,4.7.72,29.85,29.85,0,0,0,4.66-.65c1.73-.36,3.43-.83,5.13-1.34l-1-.68A13.74,13.74,0,0,0,30.16,176.08Z"/>
      <path class="cls-1" d="M52.1,200.36a5.81,5.81,0,0,0-3.59-2c-2.48-.55-6-.41-8,1.05-1,.71-1.53,2.08-.42,3s3.25,1.23,4.74,1.29a19.89,19.89,0,0,0,5.39-.7c1.47-.37,2.62-.53,2.6-1.31A2.6,2.6,0,0,0,52.1,200.36Z"/>
      <path class="cls-1" d="M59.42,187.82c-2.92-1.78-6,4.56-6.64,6a15,15,0,0,0-1.08,4.6,2.42,2.42,0,0,0,.17,1.63c.5.68,1.65.39,2.24.06a15.1,15.1,0,0,0,5.55-5C60.71,193.19,62.21,189.5,59.42,187.82Z"/>
      <path class="cls-1" d="M63.63,228.76a9.28,9.28,0,0,0-5.1-2.54c-2.16-.42-4.83-.34-6.31.53-3.08,1.8,1,4.23,4.21,4.91a22.09,22.09,0,0,0,6.47.18c1.24-.09,1.8-.41,1.9-.9S64.43,229.66,63.63,228.76Z"/>
      <path class="cls-1" d="M65.34,222a7.19,7.19,0,0,0-1,3.91c-.09,1.44-.65,2.81-.73,4.24-.06,1.17,1.31,1.56,2.36.88a11.9,11.9,0,0,0,3.08-3.42c1.53-2.17,4.24-5.54,2.66-8.2C70.26,217,66.11,220.92,65.34,222Z"/>
      <path class="cls-1" d="M63.53,204c.07,0,.39.3.7.52Z"/>
      <path class="cls-1" d="M63.53,204h0c-2.61-2-4.15,2.22-4.73,3.83a12.1,12.1,0,0,0-.53,6c.12,1,.07,2.75,1.25,3.26,2.71,1.18,4.24-3.8,4.83-5.42C65.21,209.3,66.08,206,63.53,204Z"/>
      <path class="cls-1" d="M52.88,213c-2.44-.53-5.39-.59-6.72,1.66-1.65,2.79,3.44,4,5.52,4.3,1.62.22,9.64,0,7.42-3.23C57.89,214,54.9,213.46,52.88,213Z"/>
      <path class="cls-1" d="M59.1,215.75c.38.54-.8-1.17,0,0Z"/>
      <path class="cls-1" d="M51.41,176.92c-2.64-1.94-4.27,1.92-5,3.6a11.38,11.38,0,0,0-.73,5.72c.13,1.12,0,3.17,1.36,3.73,2.85,1.21,4.56-3.79,5.24-5.53C53.24,182.05,54,178.82,51.41,176.92Z"/>
      <path class="cls-1" d="M46.54,188.57Z"/>
      <path class="cls-1" d="M46.54,188.57c-1.35-1.87-4.74-2.46-7-2.93-2.46-.53-6-.63-7.08,1.92s4.09,3.8,6,4.09c1.59.24,10.42.21,8-3.08Z"/>
      <path class="cls-1" d="M46.54,188.57h0C46,187.83,46.37,188.32,46.54,188.57Z"/>
      <path class="cls-1" d="M28.68,167.25a9.07,9.07,0,0,0-4.19-1.14c-1.22,0-3,.52-3.17,1.81-.33,2,3.13,4,4.72,4.77,1.4.71,7.43,3,7.46.05h0C33.53,170.47,30.6,168.24,28.68,167.25Z"/>
      <path class="cls-1" d="M33.5,172.74h0C33.51,171.66,33.51,172.49,33.5,172.74Z"/>
      <path class="cls-1" d="M33.5,172.74Z"/>
    </g>
    <g>
      <path class="cls-1" d="M113.18,232.13c-5,4.38-9.43,9.74-15.43,13-1.66.9-8.07,3.65-9.65,1.9-2.38-2.68,5.71-9.78,7.25-11.56,2.33-2.72,5-5.23,7.22-8,13.38-16.7,24.82-34.7,38.16-51.44,7.9-9.92,21.17-28.4,37.13-26.48-.21-.69-.42.37-.24-.33-14.85-3.92-28.91,13.56-36.58,22.32-14.07,16.1-25.77,33.9-38.75,50.76-1,1.25-1.91,2.53-2.89,3.77a118.33,118.33,0,0,1-8.93,10.22c-1.57,1.58-5.77,6.65-7.49,2.87-1.47-3.2-1.3-7.79-.74-11.1,2.22-13.2,7.27-24.94,13.66-36.57,14.63-26.67,39-56.66,37.69-88.48-.76-18.72-12.83-28.16-27.76-39.05A89.58,89.58,0,0,1,122.17,80a39.19,39.19,0,0,1,8.09,16.44c2.35,11.52-.91,23.61-5.17,34.16-5,12.48-12.49,23.87-19.57,35.34a354.79,354.79,0,0,0-20,36.41c-5.53,11.85-8.06,23.43-6.76,36.5.07.78.92,3.91.47,4.48-1.59,2.07-2.28-1.92-2.52-2.7a57,57,0,0,1-1.55-6.08C64.87,183.2,98.3,98.93,32.57,93.72A36.35,36.35,0,0,1,37,95.24c10.65,3.71,21.67,8.3,27.72,17.88,5.65,8.93,6.55,19.91,7,29.86a242.65,242.65,0,0,1-1.36,35.16,234.9,234.9,0,0,0-.82,36c.42,7.87.67,15.9,2.87,23.46,1.44,4.9.9,7.25-.38,4.67-.79-1.6-1.42-3.31-2.15-4.72a102.17,102.17,0,0,1-4.26-9.8c-4.89-12.41-9.45-25.37-16.09-37.13C44.86,182.28,38,171.72,26.75,171c.09.51-.4-.42-.53.09,12.93,2.51,19.52,16.27,24,26.43,6,13.56,9.87,27.89,16.94,41.08,3.61,6.72,8.74,15.11,18,15,4.51-.06,6.94-2,10.8-3.82a79.35,79.35,0,0,0,18-12.47c10.74-9.44,20.54-20.63,34.35-26.4a56.51,56.51,0,0,1,28.19-3.63c-8.81-1.59-18.19-1.58-26.57,1C135.34,212.74,124.06,222.56,113.18,232.13Z"/>
      <g>
        <path class="cls-1" d="M184.08,207.34c-.62-1.14-2.12-1.57-3.31-2a15.55,15.55,0,0,0-10.17-.21c-1.61.61-1,2.34.09,3.22,2,1.57,5.18,2.43,7.71,2.83a7.39,7.39,0,0,0,3.71-.21c1.39-.53,2.63-1.83,2.15-3.27A1.7,1.7,0,0,0,184.08,207.34Z"/>
        <path class="cls-1" d="M165.24,208.62a13.31,13.31,0,0,0-3.8-1.85c-.29-.09-2.91-.66-2.89-.23a10.77,10.77,0,0,0,2.66,6.18c1.28,1.5,4.3,3.75,5.84,1.42C168.47,212,167.18,210,165.24,208.62Z"/>
        <path class="cls-1" d="M144.26,217.32a16.42,16.42,0,0,0-9.19-1.3c-1.51.26-1.6,1.77-.69,2.79a11.2,11.2,0,0,0,3.64,2.38c2.48,1.18,5.82,2.81,8.55,1.65,1.13-.49,2.26-1.58,1.59-2.83S145.61,217.93,144.26,217.32Z"/>
        <path class="cls-1" d="M126.32,233.2a21.43,21.43,0,0,0-11.57.27c-1.37.38-3.34,1.16-2.23,2.88,1,1.52,3.56,2,5.24,2.38,2.77.56,5.92,1.2,8.67.43a4.59,4.59,0,0,0,3.29-2.81C130.22,234.49,127.83,233.59,126.32,233.2Z"/>
        <path class="cls-1" d="M155.12,211.47a14.55,14.55,0,0,0-8.36-1.93c-1.41.18-1.43,1.66-.72,2.59a10.13,10.13,0,0,0,3,2.37c2.16,1.29,5,3.05,7.65,2.18,1.12-.37,2.22-1.3,1.68-2.51S156.28,212.14,155.12,211.47Z"/>
        <path class="cls-1" d="M132.89,224.47a14.6,14.6,0,0,0-5.26-.33c-1.17.15-3.51.25-4.23,1.2-1.82,2.39,4.36,3.85,5.88,4.22,2.33.56,5.61,1.29,7.53-.38C139.8,226.57,135.11,225,132.89,224.47Z"/>
      </g>
      <path class="cls-1" d="M121.87,246.12h0C121.94,246.26,122,246.35,121.87,246.12Z"/>
      <path class="cls-1" d="M121.87,246.12h0C121.55,245.49,121.75,245.89,121.87,246.12Z"/>
      <path class="cls-1" d="M121.87,246.12c-.89-1.76-3.67-2.3-5.45-2.66a24.55,24.55,0,0,0-7.09-.59,21.59,21.59,0,0,0-7.28,1.71c-1.87.92-.77,2.88.68,3.74,3.07,1.83,7.64,2.44,11.2,2.7a11.86,11.86,0,0,0,5.24-.56c1.62-.64,3.63-2.51,2.7-4.33Z"/>
      <path class="cls-1" d="M121.87,246.12Z"/>
      <g>
        <path class="cls-1" d="M163.62,196.69a4.49,4.49,0,0,0-3.25,2.26,12.17,12.17,0,0,0-1.92,8.6,11,11,0,0,0,5.52-2.92c1.51-1.41,3.48-3.81,2.86-6A2.87,2.87,0,0,0,163.62,196.69Z"/>
        <path class="cls-1" d="M166.83,198.63c.31,1.12-.18-.63,0,0Z"/>
        <path class="cls-1" d="M137.61,204.66a3,3,0,0,0-.51-.21c-2.38-.8-3.52,2.07-4.16,3.63a9.67,9.67,0,0,0-.4,5.46c.17,1.05.23,2.7,1.59,3.05,2.65.69,4-3.48,4.64-5.18C139.5,209.43,140.15,205.93,137.61,204.66Z"/>
        <path class="cls-1" d="M114.49,221.65c-.89-1.1-2.74-2.15-4.18-1.5s-1.8,2.78-2,4.19a13.39,13.39,0,0,0,2.51,9.64c1.1,1.41,2.89.56,3.6-.66a10.51,10.51,0,0,0,1.12-4.3C115.82,226.66,116.16,223.74,114.49,221.65Z"/>
        <path class="cls-1" d="M150.49,199.55c2.64,2.13-.27-.23,0,0Z"/>
        <path class="cls-1" d="M150.49,199.55c-2.15-1.75-3.85,1.17-4.64,2.62a8.79,8.79,0,0,0-1,4.53c0,1-.15,2.77,1,3.31,2.38,1.08,4.13-2.66,4.9-4.15C151.79,203.91,152.62,201.26,150.49,199.55Z"/>
        <path class="cls-1" d="M124.78,214.91c-.75-.9-2.24-1.85-3.47-1.43s-1.54,2.21-1.63,3.38a11.41,11.41,0,0,0,2.43,8.2,1.81,1.81,0,0,0,2.83-.23,7.12,7.12,0,0,0,1-3.78C126.08,219,126.22,216.65,124.78,214.91Z"/>
        <path class="cls-1" d="M102,229.74c-1.05-1.22-3.21-2.57-4.91-2-2,.74-2,3.54-2.07,5.26a15.51,15.51,0,0,0,1,6,16.34,16.34,0,0,0,3.4,5.66c1.54,1.39,3.36-.12,3.92-1.5a13.06,13.06,0,0,0,.7-4.77C104.11,235.54,104.13,232.16,102,229.74Z"/>
      </g>
    </g>
  </g>
  <g>
    <g>
      <g>
        <path class="cls-2" d="M238.75,70.81c4.87.94,7.21,3.24,6.44,6.09a4.28,4.28,0,0,1-1.71,2.39c-1.61,1.12-4,1.37-7.26.76a16.91,16.91,0,0,1-6.1-2.77,28.79,28.79,0,0,1-4.26-3.49l-.71-.72,1-.4C226.48,72.56,233.6,69.83,238.75,70.81Z"/>
        <path class="cls-2" d="M228.72,60.74a4.29,4.29,0,0,1,1.25.8,3.52,3.52,0,0,1,1.23,3c-.15,2.18-1.74,3.69-3.34,4.77-2.2,1.47-8.33,6.08-10.38,3C214.81,68.36,224.82,59.14,228.72,60.74Z"/>
        <path class="cls-2" d="M215.28,62.45c1.13,2.49-1.12,5.41-2.83,7.37-1.36,1.55-7.93,6.62-9.79,5.61-.52-.29-.67-1-.25-2.47,1-3.46,5.26-10.59,8.57-12.28C212.88,59.71,214.45,60.64,215.28,62.45Z"/>
        <path class="cls-2" d="M196,74.41a38.41,38.41,0,0,1-2.49,4.23c-1.59,2.24-3.53,3.9-4.84,1.24-1.23-2.49.44-6.79,1.08-9.47.56-2.35,2-5.85,4.65-6.35C199.62,63.07,197.53,71.56,196,74.41Z"/>
        <path class="cls-2" d="M181.47,77.75a17.69,17.69,0,0,1-.36,9.89c-.14.41-.32.92-.55,1.45-2.16,5-4.51,2.36-5.86-.88s-2.61-9.19.5-12.55C177.47,73.21,180.72,75.16,181.47,77.75Z"/>
        <path class="cls-2" d="M170.65,92.28a1.72,1.72,0,0,1,.07.21c1,2.94,2.21,10.43-1,12.54-5.29,3.47-8.64-13.1-6-16.49C166.69,84.83,169.79,89.92,170.65,92.28Z"/>
        <path class="cls-2" d="M124.75,177.4c3.82,3.35,5.58,16.26,4.45,19.3-2.13,5.73-6.86-1.37-8-3.43-2.08-3.7-5.32-11.23-.66-15.55C122.13,176.23,123.54,176.33,124.75,177.4Z"/>
        <path class="cls-2" d="M156.82,103.05a2.32,2.32,0,0,1,1.87.71c1.63,1.5,2.73,4.88,2.9,6.5.26,2.37,1,14.4-3.83,10.34-1.51-1.28-2.22-3.82-2.95-5.69C153.92,112.63,152.36,103.63,156.82,103.05Z"/>
        <path class="cls-2" d="M148.26,123.14a10.77,10.77,0,0,1,3.16,3.91c1.16,2.64,4.18,10,0,12.36-2.44,1.37-5.31-3.25-5.83-5-.82-2.79-2.25-5-2.07-8.25C143.74,121.38,146.12,121.53,148.26,123.14Z"/>
        <path class="cls-2" d="M139.42,142.48a3.75,3.75,0,0,1,1.18.74c1.91,1.72,2.28,4.58,3.32,6.92.72,1.62,3.91,9.64-.55,9.83-2.12.08-4.5-4.33-5.4-6-1.19-2.2-3.6-5.39-3.17-8.28S137.47,141.73,139.42,142.48Z"/>
        <path class="cls-2" d="M128,159.2a4.38,4.38,0,0,1,2.05.51c3.89,2,6,9.35,7.09,12.87.51,1.62,1.6,4.36-.17,5.89-3.39,2.93-6.51-2-7.94-4.26C127.77,172.15,120,159.19,128,159.2Z"/>
      </g>
      <g>
        <path class="cls-2" d="M220.51,72.59c3.71.37,10.31,4.29,10.42,8.72a3,3,0,0,1-.71,2c-2.69,3.19-5.72,1.7-8.31-1.09C220.23,80.43,213.53,71.9,220.51,72.59Z"/>
        <path class="cls-2" d="M212.07,76.57c1.86,1.31,2.88,2.73,3,4.23a4,4,0,0,1-.75,2.75c-4.81,6.85-14.74-6.94-10.31-8.84C206.36,73.72,210.29,75.37,212.07,76.57Z"/>
        <path class="cls-2" d="M192.42,80.63A10.73,10.73,0,0,1,200,83.75c.34.38,3.3,3.83,1.21,6.18-1,1.19-3.17,2-7.3-.71l-.08-.06C191.45,87.58,186.14,80.71,192.42,80.63Z"/>
        <path class="cls-2" d="M180.91,90.51a15,15,0,0,1,9.07,1c.54.28,5.25,2.8,4.07,5.94-1.64,4.32-7.63,2.44-10.1,1.26S174.16,91.92,180.91,90.51Z"/>
        <path class="cls-2" d="M184.39,104.55a4.05,4.05,0,0,1-1.07,2.69c-1.17,1.32-3.18,2.12-6,2.38-2.37.22-8-.29-9.13-2.66a2,2,0,0,1-.21-1.27c.3-1.71,3-2.8,4.51-3.45C175.92,100.8,184.47,98.62,184.39,104.55Z"/>
        <path class="cls-2" d="M147.37,192.18a5.41,5.41,0,0,1,1.59,1.7,2.9,2.9,0,0,1,.27,2.67c-1.62,4.09-6.1,5.28-9.67,5.57-2.3.19-14.58,1.11-11.29-4.26,1.27-2.08,4-3.88,7-5.09C139.71,191,144.86,190.49,147.37,192.18Z"/>
        <path class="cls-2" d="M167.94,115.82c3.37-1.62,10-3.89,10.1,1.77s-13.11,6.68-15.92,5.56c-4.58-1.81,1.78-5.32,4.77-6.81Z"/>
        <path class="cls-2" d="M168.89,136.05c-1.1,4.43-7.94,5-11.21,5.31-2,.19-7.14,0-4.93-3.4.7-1.09,2.6-2.38,4.87-3.46C160.33,133.21,170.53,129.53,168.89,136.05Z"/>
        <path class="cls-2" d="M162.79,155.94c-1,3.45-5.63,4.49-8.37,5-2.35.41-8.18,1.63-9.66-.51s1.62-4.79,5.69-6.51C156.38,151.39,164.3,150.76,162.79,155.94Z"/>
        <path class="cls-2" d="M146,170.91c3.2-1.65,7.06-2.63,9.92-.7a6.86,6.86,0,0,1,.93.78,2.59,2.59,0,0,1,.82,2.51c-1.22,5.26-9.62,7.12-13.5,7.32-1.89.1-5.89.67-6.9-1.29-1.66-3.21,3.92-6.2,6.07-7.3C144.31,171.72,145.25,171.29,146,170.91Z"/>
      </g>
    </g>
    <g>
      <g>
        <path class="cls-2" d="M257.23,154.09c4.46,3.85,3.06,6.74,2.26,7.8s-2.72,2.78-6.44.27a14.45,14.45,0,0,1-1.26-1c-3.29-2.84-4.9-9.14-5-9.41l-.24-1,1,.05C247.79,150.88,254,151.23,257.23,154.09Z"/>
        <path class="cls-2" d="M248.35,141.17c3-1.52,6.39-2.1,7.46.68.82,2.14-2.31,4.75-3.66,6.12-3.66,3.73-13.74,3.12-8.61-3.2A16.08,16.08,0,0,1,248.35,141.17Z"/>
        <path class="cls-2" d="M242.77,134.62c5.19,1.17-1.85,8-4,9.13-2.49,1.31-10.16,3.32-8.8-1.56.44-1.56,3.5-3.86,6.59-5.52C239.13,135.31,241.67,134.37,242.77,134.62Z"/>
        <path class="cls-2" d="M228.78,131.77c1.16.76,1.52,2.65.17,5.54s-4.61,6.66-7.55,7.57C215.73,146.64,223.47,128.29,228.78,131.77Z"/>
        <path class="cls-2" d="M212.45,132.75c2.65,2.26.21,8.46-1.22,11.38-1.11,2.26-5.67,8.78-7.1,4.06a13.29,13.29,0,0,1,.24-5.34c.33-1.78.76-3.56.94-4.79C205.77,134.92,209.34,130.08,212.45,132.75Z"/>
        <path class="cls-2" d="M200.09,144.49c.51,3-.76,7.94-2.18,10.78-3.1,6.22-5.48,1-4.92-3.68.43-3.61,1.68-7.54,2.89-8.59C198.53,140.69,199.61,141.65,200.09,144.49Z"/>
        <path class="cls-2" d="M132.26,202.35c.68,0,1.36.5,2,1.75,1.91,3.59-1.27,16.28-5.3,18.33C120.54,226.74,127.11,202.4,132.26,202.35Z"/>
        <path class="cls-2" d="M185.38,149.65c5.48.43,1.89,10.23.48,13.39-1.68,3.79-4.26,6.58-5.48,1.37a14.27,14.27,0,0,1-.27-2.76C180,157,181,149.31,185.38,149.65Z"/>
        <path class="cls-2" d="M174.06,169.14c-.15,1.94-2.58,11.6-5.29,11.14-1.78-.3-2.55-2.53-2.61-5.3-.08-4.6,1.81-10.7,4.32-12C174.75,160.78,174.27,166.3,174.06,169.14Z"/>
        <path class="cls-2" d="M159.54,178.57c1.7,2.23,1.36,9,.54,12-1.28,4.52-4.11,4.19-5.79.8a12.83,12.83,0,0,1-.88-2.61C152.67,185.48,154.89,172.46,159.54,178.57Z"/>
        <path class="cls-2" d="M146.44,193c1.31,3.81,1.3,9.47-1.11,13.38-3.54,5.75-5.69-.83-6.05-4.34l0-.39c-.31-3.16-.72-8.29,1.25-11.37C143.41,185.7,145.49,190.17,146.44,193Z"/>
      </g>
      <g>
        <path class="cls-2" d="M241.73,148.3c2.35-.5,5.18,5.75,5.77,7.32,1.67,4.47-1.89,9.43-5.45,4.84-1.29-1.67-3.36-10.73-.62-12.05A1.21,1.21,0,0,1,241.73,148.3Z"/>
        <path class="cls-2" d="M237.86,155.27c.64,5.23-2.88,3.89-5.22,1.59-2.62-2.58-6.22-7.63-1.91-11.45C234.78,141.83,237.58,153,237.86,155.27Z"/>
        <path class="cls-2" d="M220.43,145c2.91.17,7.92,9.87,3.91,11.41s-9.54-7.15-6.15-10.67A2.72,2.72,0,0,1,220.43,145Z"/>
        <path class="cls-2" d="M208.77,149.34c2.83.73,9.91,6.57,7.38,10.75-3.48,5.74-11.92-5.6-11-9.56C205.43,149.37,206.46,148.75,208.77,149.34Z"/>
        <path class="cls-2" d="M203.23,157.34c3.61,1.47,5.47,5.85.4,7.88-1.22.49-3.32,0-5.24-.94-3.13-1.58-5.76-4.5-3.2-6.75C197.18,155.79,201.34,156.58,203.23,157.34Z"/>
        <path class="cls-2" d="M129.7,220.52c3.38-2.28,14-.81,14.74,3.51,1,5.92-9.39,5.07-11.95,3.81-2.3-1.14-6.88-3.8-3.52-6.75A6.63,6.63,0,0,1,129.7,220.52Z"/>
        <path class="cls-2" d="M194,167.32c2.28,1.31,3.95,3.32,1.25,6-2.25,2.2-7.92.71-10.75-1.79C178.27,166,190.89,165.53,194,167.32Z"/>
        <path class="cls-2" d="M183.41,181.46c.86,3.71-2.55,4.9-6.25,4.6-3.87-.31-8-2.23-8.09-4.6a2.48,2.48,0,0,1,.89-1.93C172.73,177.1,182.58,177.86,183.41,181.46Z"/>
        <path class="cls-2" d="M171,196.25c.3,3.09-2.49,4.31-5.7,4.31-4.06,0-8.79-1.92-8.85-4.46C156.33,191,170.49,191.05,171,196.25Z"/>
        <path class="cls-2" d="M160.88,209.77a2.93,2.93,0,0,1-.4,2.54c-2.77,3.84-10,2.3-13.9-.23-2.22-1.42-3.41-3.16-2.22-4.43C148.33,203.4,159.53,204.41,160.88,209.77Z"/>
      </g>
    </g>
    <g>
      <g>
        <path class="cls-2" d="M133.22,96.54c1.49,1.39.64,3.65-.48,5.21s-8.11,8.58-9.7,5.39c-1.18-2.36,5-10.52,8.51-11A1.93,1.93,0,0,1,133.22,96.54Z"/>
        <path class="cls-2" d="M121.26,139.94c2.66-2.64,5.87-5.53,9.17-7.15,3.46-1.69,6.18-.46,4.35,3.54-2.48,5.41-7.72,9.31-13,11-4.12,1.31-7,.86-3.51-3.91A31.7,31.7,0,0,1,121.26,139.94Z"/>
        <path class="cls-2" d="M109.62,192.66c2.06-2.13,4.84-3.95,7.62-4,2.53-.09,4.68,1.26,3.57,4.22-2.14,5.7-12.13,9.13-17,9-4.22-.13-1.65-3,1.32-5.47C107,194.73,109.06,193.24,109.62,192.66Z"/>
        <path class="cls-2" d="M123.6,162c2.13,1.49.2,4.28-1.12,5.76a26.34,26.34,0,0,1-7.1,5.65c-1.14.59-5.18,2.72-6.32,2-2.86-1.8,3.45-9.39,8.93-12.51C120.23,161.59,122.32,161.06,123.6,162Z"/>
        <path class="cls-2" d="M130.71,113.06c3.52-2.06,4.83.3,4.13,3.88-.9,4.54-4.76,8.09-8.19,10.81-2.75,2.19-7.43,5.71-5.85-.39a31.18,31.18,0,0,1,6.62-11.53A15,15,0,0,1,130.71,113.06Z"/>
      </g>
      <g>
        <path class="cls-2" d="M114.31,84.15A10.83,10.83,0,0,1,120,88.9c1.61,2.68,1.27,5.52-2.38,4.49-2.58-.72-4.79-3.32-5.76-5.86a3.65,3.65,0,0,1-.12-2.83C112.13,84,112.93,83.72,114.31,84.15Z"/>
        <path class="cls-2" d="M119.68,101.62c3.15,1.61,5.65,4.23,4.11,6.56-2.26,3.43-8.6-.82-10.44-2-1.53-1-3.69-2.83-1.74-5C113.79,98.75,117.74,100.63,119.68,101.62Z"/>
        <path class="cls-2" d="M116.57,148.41c-1.12,3.54-5.26,0-6.45-1.22a29.5,29.5,0,0,1-2-2.26c-1.68-2.12-3.18-5-1.23-7.24C111.05,132.84,117.72,144.78,116.57,148.41Z"/>
        <path class="cls-2" d="M97.11,186.68l.21.2c2.57,2.53,4.67,8.06,3.84,11.93-1.19,5.54-11-5.65-11.81-8.08C87.07,183.42,92.75,182.69,97.11,186.68Z"/>
        <path class="cls-2" d="M103.38,158.81a9.26,9.26,0,0,1,3.3,2.7c1.92,2.53,6,11.37,1.14,13.26-5.33,2.06-8.64-7.8-10.22-11.12-.92-2-2.1-3.21.31-5C99.54,157.51,101.84,158.06,103.38,158.81Z"/>
        <path class="cls-2" d="M112.93,118.44a6.24,6.24,0,0,1,2.14,1.68c3,3.15,7.34,9.79,5,11.75-3.11,2.64-9.19-3.26-10.52-5.34C107.58,123.4,107.51,117.27,112.93,118.44Z"/>
      </g>
    </g>
    <g>
      <path class="cls-2" d="M182.3,208.75c.75,2.36.3,6.06-1.66,8.05-.94.95-5.95,5.42-5.81,1.94.12-3,0-7.16,2.26-9.77l.19-.23C179,206.88,181.44,206,182.3,208.75Z"/>
      <path class="cls-2" d="M177.28,208.74l-.12.14C178.1,207.83,177.74,208.23,177.28,208.74Z"/>
      <path class="cls-2" d="M177.16,208.88l-.07.09C176.61,209.51,176.19,210,177.16,208.88Z"/>
      <path class="cls-2" d="M177.28,208.74l-.19.23.07-.09Z"/>
      <path class="cls-2" d="M183.15,225.21a8.23,8.23,0,0,1,1.63,4.26c.05,1.56-.87,3.4-2.39,3s-2.58-1.81-3.44-3a25.16,25.16,0,0,1-2.25-4.13c-.73-1.62-1.36-3.32-1.95-5.06l1.15.17A10.79,10.79,0,0,1,183.15,225.21Z"/>
      <path class="cls-2" d="M149.31,228.37a4.79,4.79,0,0,1,3.86,1.11c2,1.45,3.94,4.25,3.94,7,0,1.37-.85,2.9-2.32,2.82s-3-1.5-3.95-2.6a16.81,16.81,0,0,1-2.63-4.73c-.58-1.44-1.13-2.47-.46-3.08A2.87,2.87,0,0,1,149.31,228.37Z"/>
      <path class="cls-2" d="M155.57,212.36c3.27.79-.27,8.39-1.14,10.1a22.26,22.26,0,0,1-3.26,4.64c-.39.45-.89,1.09-1.49,1.21-.87.18-1.33-.95-1.39-1.67a19,19,0,0,1,.92-8.42C150.22,215.81,152.46,211.6,155.57,212.36Z"/>
      <path class="cls-2" d="M118.22,243a7.45,7.45,0,0,1,5.23,1.83c1.65,1.31,3.19,3.44,3.34,5.3.33,3.86-4.23,2.69-6.71.8a18.07,18.07,0,0,1-4-4.83c-.65-1-.72-1.73-.36-2.21A3.65,3.65,0,0,1,118.22,243Z"/>
      <path class="cls-2" d="M138.46,222.48l.86.09h0l-.85-.09Z"/>
      <path class="cls-2" d="M139.31,222.57h0c3.26.38.61,5-.42,6.81a17.44,17.44,0,0,1-4.78,5.36c-.91.73-2.37,2.22-3.52,1.73-2.63-1.11.68-6.4,1.71-8.19C133.81,225.65,136.14,222.22,139.31,222.57Z"/>
      <path class="cls-2" d="M138.07,238.22c1.92,1.44,3.74,3.68,2.63,6.56-1.38,3.57-5.49.66-7-.71-1.16-1.07-5.75-7.47-1.71-8.39C134.22,235.17,136.48,237,138.07,238.22Z"/>
      <path class="cls-2" d="M132,235.68Z"/>
      <path class="cls-2" d="M169.66,209.53c3.23.44.93,4.88-.08,6.82a16.74,16.74,0,0,1-4.42,5.29c-1,.82-2.72,2.59-4,2-2.74-1.2.48-6.65,1.55-8.61C164.19,212.36,166.48,209.09,169.66,209.53Z"/>
      <path class="cls-2" d="M163.1,222.82Z"/>
      <path class="cls-2" d="M169.35,225.85c1.93,1.47,4.13,4.09,2.62,7.05s-5.68,0-7.09-1.26c-1.16-1-6.45-7.86-2.2-8.73C165.08,222.41,167.62,224.53,169.35,225.85Z"/>
      <path class="cls-2" d="M163.1,222.82l-.42.09Z"/>
      <path class="cls-2" d="M184,219.88h0C184.88,219,184.2,219.66,184,219.88Z"/>
      <path class="cls-2" d="M184,219.88Z"/>
      <path class="cls-2" d="M184,219.88c1.91-1.89,5.57-1.48,7.56-.81a7,7,0,0,1,3.49,2.29c.71.95,1.34,2.71.38,3.93-1.51,1.9-5.26.86-6.91.3-1.44-.49-7-3.22-4.52-5.71Z"/>
      <polygon class="cls-2" points="183.98 219.88 183.98 219.88 183.97 219.88 183.98 219.88"/>
      <path class="cls-2" d="M122.92,236.06a10.84,10.84,0,0,1-2.74,4c-1.18,1.25-2,2.81-3.19,4.06-.95,1-2.1.27-2.16-1.1a16,16,0,0,1,1.06-5.19c.93-3,2.16-7.85,5.37-8.82C124.28,228.07,123.39,234.55,122.92,236.06Z"/>
    </g>
    <g>
      <path class="cls-2" d="M64,132.4c1.35-.46,2.61.34,3.67.93a12.07,12.07,0,0,1,3.86,3.1A13.72,13.72,0,0,1,74,141c.45,1.75-1.37,2.74-2.79,2.59-2.55-.26-5.19-2-7.06-3.6a6.13,6.13,0,0,1-2-3c-.39-1.5,0-3.54,1.49-4.36A2.77,2.77,0,0,1,64,132.4Z"/>
      <path class="cls-2" d="M74.25,148a10.68,10.68,0,0,1,3.86,1.39c.25.16,2.32,1.71,1.94,2a12.91,12.91,0,0,1-6.85,3.06c-2.06.25-5.78-.21-4.73-3.32C69.46,148.26,71.9,147.64,74.25,148Z"/>
      <path class="cls-2" d="M79.47,171.34a13,13,0,0,1,6.64,6c.68,1.38-.55,2.69-2,2.83a9.29,9.29,0,0,1-4.22-.83c-2.5-.94-5.89-2.17-6.54-5.23-.27-1.28,0-3.05,1.46-3.57S78.14,170.8,79.47,171.34Z"/>
      <path class="cls-2" d="M76.75,198.28a17.79,17.79,0,0,1,6.73,9.14c.51,1.38,1,3.54-1.11,4.1-1.89.49-3.86-1.06-5.16-2.06-2.16-1.68-4.6-3.58-5.59-6.33a5.59,5.59,0,0,1,.42-4.86C73.32,196.35,75.51,197.44,76.75,198.28Z"/>
      <path class="cls-2" d="M77.91,158.14A11.28,11.28,0,0,1,84.58,163c.7,1.24-.55,2.47-1.76,2.69a8.91,8.91,0,0,1-3.82-.34c-2.4-.6-5.63-1.38-6.46-4.11-.35-1.16-.23-2.77,1.13-3.36S76.65,157.79,77.91,158.14Z"/>
      <path class="cls-2" d="M80.23,186a11.67,11.67,0,0,1,3.44,3.78c.58,1,1.9,2.91,1.52,4.26-.94,3.37-5.89-.19-7.11-1.05-1.88-1.34-4.48-3.26-4.21-6.13C74.29,182.42,78.45,184.72,80.23,186Z"/>
    </g>
    <path class="cls-2" d="M74,214.39a19.76,19.76,0,0,1,7.68,12c.33,2.2-2,3-3.59,2.56-3.41-.85-6.67-3.87-9-6.4a10.16,10.16,0,0,1-2.68-4.5c-.42-1.78,0-4.88,2.07-5.67S72.6,213.32,74,214.39Z"/>
    <path class="cls-2" d="M68.44,212.39Z"/>
    <g>
      <path class="cls-2" d="M81.79,138.5Z"/>
      <path class="cls-2" d="M81.8,138.5a2.47,2.47,0,0,1,3.57.88c.79,1.2.53,2.92,0,4.36a17.92,17.92,0,0,1-6.17,8.59,12,12,0,0,1-.83-6.67c.29-2.32,1.14-5.82,3.38-7.16Z"/>
      <path class="cls-2" d="M81.8,138.5h0C82,138.36,81.94,138.41,81.8,138.5Z"/>
      <polygon class="cls-2" points="81.79 138.5 81.8 138.5 81.79 138.5 81.79 138.5"/>
      <path class="cls-2" d="M94.23,166a3.06,3.06,0,0,1,.49.22c2.11,1.18.36,4.43-.58,6.21a14.08,14.08,0,0,1-4.41,4.82c-1,.74-2.43,2.05-3.55,1.3-2.18-1.47.55-6,1.62-7.86C89.05,168.49,91.63,165.1,94.23,166Z"/>
      <path class="cls-2" d="M93.69,197.87c1.47-.23,3.48.33,3.79,2s-1.28,3.69-2.39,5c-2.54,2.94-6.06,5.41-9.7,6-1.87.31-2.22-1.76-1.61-3.32a15.49,15.49,0,0,1,3-4.41C88.63,201,90.91,198.3,93.69,197.87Z"/>
      <path class="cls-2" d="M90.84,151.85Z"/>
      <path class="cls-2" d="M90.84,151.85h0C90.58,151.83,87.74,151.6,90.84,151.85Z"/>
      <path class="cls-2" d="M90.83,151.85h0c2.78.22,1.32,3.94.56,5.74a13.2,13.2,0,0,1-3.25,4.54c-.88.8-2.26,2.4-3.43,1.92-2.36-.94-.24-5.38.57-7.2C86.35,154.46,88.09,151.63,90.83,151.85Z"/>
      <polygon class="cls-2" points="90.84 151.85 90.84 151.85 90.83 151.85 90.84 151.85"/>
      <path class="cls-2" d="M93.24,184.36c1.21-.16,2.91.19,3.29,1.49s-1,3-1.89,4.05c-2.18,2.42-5.36,4.55-8.44,4.9-1.27.14-1.86-1.13-1.5-2.36a10.43,10.43,0,0,1,2.61-3.9C89,186.76,90.89,184.69,93.24,184.36Z"/>
      <path class="cls-2" d="M94.3,214.14c1.67-.19,4.11.36,4.61,2.17.6,2.17-1.78,4.5-3.23,5.93A20.73,20.73,0,0,1,90,226.42c-2,.93-4.75,2.1-6.85,2.05s-1.92-2.68-1.08-4.25a19.23,19.23,0,0,1,3.64-4.49C88.11,217.34,91,214.53,94.3,214.14Z"/>
    </g>
    <path class="cls-2" d="M85.56,207.53c-.72,7.47-2.61,15.32-1.77,22.62.24,2,1.74,9.25,4.19,9,3.71-.37,4.88-12.47,5.48-15.14.9-4,1.43-8.16,2.46-12.18,6.17-24.12,14.6-47.8,20.82-71.91,3.68-14.29,11.41-39.79.19-50.51.71-.4-.07.64.42-.08,12.26,8.2,5.85,33.49,3,46.63-5.23,24.15-13.33,47.88-19.86,71.81-.48,1.78-1,3.56-1.47,5.34-1.33,5.09-2.52,10.19-3.33,15.33-.4,2.51-2.18,9.93,2.07,8.15,3.6-1.52,7.4-5.44,9.89-8.61,9.88-12.62,16.83-26.2,22.88-40.74,13.89-33.31,24.74-76.86,52.58-102.15C199.5,70.22,214.79,71.73,233,74.24a83.76,83.76,0,0,0-23.51.7,45.58,45.58,0,0,0-18.86,7.34c-11.2,7.71-19.52,20.21-25.93,32.21-7.59,14.19-12.79,29.35-18.29,44.28-5.64,15.33-11.81,30.66-18.94,45.49-6.76,14-15.08,25.56-27,35.37-.7.58-3.87,2.51-4.09,3.32-.81,2.94,3,.18,3.81-.28,2.08-1.17,4.12-2.45,6.11-3.82,49.87-34.5,101.44-129.89,145.39-83.53a29.1,29.1,0,0,0-4-2.17c-9.56-5.14-20.09-9.85-31.89-6.6-11,3-20.86,11.4-29.6,19.27a353.49,353.49,0,0,0-29.09,30.09,342.52,342.52,0,0,1-30.11,30.37c-6.94,6.18-13.93,12.62-21.68,17.17-5,3-6.71,5.3-3.75,4.15,1.84-.71,3.68-1.63,5.31-2.23,3.7-1.37,7.3-3.09,10.9-4.82,13.49-6.48,27.25-13.67,41.24-18.28,9.93-3.26,23-6.69,30.42,1.36-.48.35.6,0,.24.48-9.9-7.89-25.57-1.59-36.9,3.34-15.14,6.58-29.66,15.44-45.12,20.88-7.89,2.77-18.1,5.74-23.54-1.48-2.66-3.52-2.49-7-3.25-11.47-1.33-7.83-1-16-.24-24.22,1.57-16.07,5.19-32.86,1.8-48.28a49.07,49.07,0,0,0-13.86-24.73,47.33,47.33,0,0,1,15.11,21.32C88.73,174.44,87.15,191.24,85.56,207.53Z"/>
  </g>
</svg>
