<svg id="Layer_1" data-name="Layer 1" xmlns="http://www.w3.org/2000/svg" width="137.65" height="162.09" viewBox="0 0 137.65 162.09">
  <defs>
    <style>
      .cls-1 {
        fill: #295968;
      }
    </style>
  </defs>
  <path class="cls-1" d="M112.46,130a10.52,10.52,0,0,0-5.74.9,13.28,13.28,0,0,0-1.54-.41,24.11,24.11,0,0,0-8.35.21c1.53-.93,3-2,3.39-3.56l.07-.23-.26-.11a3.29,3.29,0,0,0-3.26.46,7.83,7.83,0,0,0-2.94,4.08c-1.25.31-2.18.6-2.59.73-1.38.45-2.71.82-4,1.13a4.5,4.5,0,0,0,1.59-2.53l0-.22-.24-.1a2.64,2.64,0,0,0-.4-.12c-2-.38-4.47,2.05-6.08,3.84a29.47,29.47,0,0,1-7.77-.22c.52-.18,1-.37,1.48-.55s2.39-2.12,2.2-3.06a.75.75,0,0,0-.65-.57h-.14c-1.64.25-4.42,2-6,3.48-.74-.21-1.47-.46-2.19-.74a38.77,38.77,0,0,0,6.1-2.9,30.54,30.54,0,0,1,6.45-3c1.38-.39,2.84-.71,4.31-1a21.09,21.09,0,0,0,6.77,3,9.52,9.52,0,0,0,1.71.17h.32v-.27c0-1.68-2.52-2.94-5.21-3.65a62.92,62.92,0,0,0,7.1-1.76l.3.06c1.59.31,11.3,1.49,11.6-.09a.89.89,0,0,0-.12-.84,2.24,2.24,0,0,0-1.44-.7,26.64,26.64,0,0,0-6.83.16c.19-.09.38-.17.56-.27,3.79-2,4.95-5.35,6-8.34a2.25,2.25,0,0,0,.08-.24c2.76.18,7.47-.16,8.94-1.25a1,1,0,0,0,.5-.94c0-.23-.18-.65-1-.81-1.5-.28-4.72.43-7.82,1.27,1.18-3,2.74-5,7.87-5a1.4,1.4,0,0,0,1-.32,1,1,0,0,0,.35-.82,1.4,1.4,0,0,0-1.43-1.19,17.44,17.44,0,0,0-2.49.13,15.34,15.34,0,0,0,3.13-5.48l.06-.26-.3-.09a2.81,2.81,0,0,0-2.5.35c-1.77,1.19-2.62,4.17-2.9,6-3.89,1.38-5,4.61-6.07,7.76-.75,2.19-1.54,4.43-3.34,6,.83-2.86,1.41-6.75-1.57-8.44l-.31-.17-.18.26c-.7,1.08-.48,2.68-.29,4.09.06.39.11.77.14,1.11s0,.65,0,1a14.38,14.38,0,0,0,.36,3.32c-3.41,1.71-7.5,2.52-11.46,3.3l-.13,0-1.68.35c1.19-1.65,2.45-3.82,2.13-5a1.17,1.17,0,0,0-.75-.81,1.33,1.33,0,0,0-1.32.2c-1.27.92-2,4.1-2.33,6.09-.93.21-1.86.42-2.75.68l-.25.08a22.37,22.37,0,0,0,3-5c.37-.82.67-1.65,1-2.47,2.29-.51,5.59-1.69,6.43-2.84a.93.93,0,0,0,0-1.25,1.32,1.32,0,0,0-.76-.43c-1.15-.22-2.88.72-4.82,2a23.84,23.84,0,0,1,1.59-3.75c.82-1.48,1.82-2.93,2.8-4.36.69-1,1.38-2,2-3.07.65-.13,1.32-.31,2-.5a22.86,22.86,0,0,1,2.27-.53,32.55,32.55,0,0,0,6-1l.36-.1-.18-.31a3.16,3.16,0,0,0-2.23-1.45c-2-.38-4.74.51-6.94,1.56,2-4.39,1.75-9,1.54-13.4a2.53,2.53,0,0,0,0-.27c2.46-1.06,5.59-3.07,6.88-4.75l.17-.22-.25-.18a3.1,3.1,0,0,0-1.17-.5c-2.08-.4-4.25,1.5-5.71,3.28a34.62,34.62,0,0,1,.19-5.39,20.51,20.51,0,0,1,5.68-11.35c.55.14,1.12.26,1.46.33.56.1,5.48,1,6.85-.06a.85.85,0,0,0,.36-.84c-.06-.38-.37-.88-1.5-1.1a21.32,21.32,0,0,0-5.56.19,19.34,19.34,0,0,1,8.15-4.06,1.08,1.08,0,0,0,.87-1.43,1.55,1.55,0,0,0-1.72-.84,22.62,22.62,0,0,0-2.79.86c1.1-2.06,1.64-4.2-.18-5.69l-.21-.17-.23.13c-1.75,1-1.67,2.68-1.61,3.89,0,.18,0,.34,0,.47s-.13.68-.22,1.11a12.79,12.79,0,0,0-.31,1.49A22.6,22.6,0,0,0,99,65.59c.26-2.42,0-5-2.26-6.73l-.23-.18-.23.16c-.17.12-.7.5-.53,2.74a20.65,20.65,0,0,0,1.4,5.9A22.93,22.93,0,0,0,92,77.77a7.82,7.82,0,0,0-3.34-4.66L88.4,73l-.2.19c-.51.48-.5,1.53,0,3.11A16.91,16.91,0,0,0,91.57,82c-.06,1.84,0,3.67.09,5.46s.15,3.39.11,5a6.31,6.31,0,0,0-4.92-3.34l-.31,0-.05.26c-.25,1.37,1.22,2.57,2.4,3.54l.6.49c.39.4.79.9,1.21,1.43l.78,1a15.73,15.73,0,0,1-2,5.78c-.69,1.15-1.48,2.29-2.26,3.44s-1.82,2.66-2.63,4.07c.07-2.7-.44-5.47-3.28-6.77l-.36-.16-.12.32c-.48,1.28.12,3,.66,4.46.15.4.29.79.4,1.14s.2,1,.3,1.58a14,14,0,0,0,.73,3c-.27.71-.51,1.43-.75,2.13-.38,1.13-.8,2.42-1.33,3.61a20.43,20.43,0,0,1-2.41,4.14,9.79,9.79,0,0,0-.83-5l-.17-.26-.3.12c-2.46,1-1.9,5-1.36,7.92a25.24,25.24,0,0,1-8.2,4.43,1.57,1.57,0,0,0-.47-.13,23.22,23.22,0,0,0,0-2.35,18.31,18.31,0,0,1,.07-2.24c2.54-1.1,6.24-2.9,6.66-5.11l0-.21-.22-.11a2.4,2.4,0,0,0-.64-.21c-1.57-.3-3.41.83-4.89,2.2a23.19,23.19,0,0,1,1.71-3.2A27.23,27.23,0,0,0,74,105.29c2.19-2,4.58-4.37,4.14-7.21l0-.29H77.8c-1.27,0-2.67,1.71-3.38,2.71-.15.21-.3.43-.45.67-.15-1.88-.41-3.71-.67-5.52-.2-1.32-.38-2.61-.52-3.89,2.71-1.7,5.68-4.45,5.4-7.63l0-.33-.38,0c-1.93.19-3,2-3.87,3.48l-.41.68a14.1,14.1,0,0,1-.91,1.15,21.18,21.18,0,0,1,.59-6.3A30.89,30.89,0,0,1,75.58,77l.48-1c2.65-.76,7.18-2.67,8-3.65a.56.56,0,0,0,.12-.72,1.63,1.63,0,0,0-1.12-.73c-1.48-.28-3.84,1-5.78,2.37a17.54,17.54,0,0,0,1-3.38,27.92,27.92,0,0,0,0-8c-.13-1.22-.25-2.47-.3-3.71a21.71,21.71,0,0,0,2.88-1.55c.36-.22.67-.4.88-.51l.13-.07c1.76-.9,3.28-1.68,3.76-3.64l.05-.22-.24-.11a3.39,3.39,0,0,0-.88-.3c-2.38-.46-4.77,1.79-6.48,3.83.66-6,5-11.82,10.22-15.75l.81.16c.68.13,6.69,1.24,7.29-.19a.8.8,0,0,0-.05-.78,2.09,2.09,0,0,0-1.41-.69,20,20,0,0,0-4.33-.11,28.4,28.4,0,0,1,2.71-1.52,1,1,0,0,0,.43-1.58,1.62,1.62,0,0,0-1.89-.47,34.41,34.41,0,0,0-8.68,6.14A8.53,8.53,0,0,0,83,36.3L82.83,36l-.31.1c-2.48.76-2.21,4.68-2,7.28,0,.12,0,.22,0,.33a24.51,24.51,0,0,0-4.43,8A15.84,15.84,0,0,0,72,44.88l-.29-.26-.24.27c-1.48,1.66.21,4.2,1.33,5.87l.1.16c.25.36.54.83.84,1.34a23.38,23.38,0,0,0,1.63,2.5,17.12,17.12,0,0,0-.15,1.77A39.83,39.83,0,0,0,75.53,62a27.78,27.78,0,0,1,.13,6.92C74.23,65,72,62.61,69,61.75l-.4-.12,0,.35c-.19,1.58,1.44,3.2,2.75,4.49l.82.83a19.53,19.53,0,0,1,1.27,1.83,22.2,22.2,0,0,0,1.63,2.3A39.2,39.2,0,0,1,73,76,42.52,42.52,0,0,0,71,80.72,22.91,22.91,0,0,0,69.21,78a14.66,14.66,0,0,0-4.36-2.53c-.58-.11-.83.13-.89.4V76c.24,1.25,1.54,2.27,2.68,3.17.45.35.88.69,1.24,1a13.66,13.66,0,0,1,1.63,2c.26.37.52.72.79,1a29,29,0,0,0-.14,9.52l-.13.53.19-.08c.11.9.24,1.81.37,2.71s.24,1.61.34,2.42c-2.2-2.76-4.8-5.41-7.88-6.68l-.38-.16-.1.33c-.61,2.06,2,3.93,3.76,5.17l.16.11c.39.27.84.63,1.34,1a20.86,20.86,0,0,0,3.34,2.3,33.35,33.35,0,0,1,.18,4,24.75,24.75,0,0,1-2,9,9,9,0,0,0-6.72-6.74l-.45-.09.05.39c.15,1.28,1.3,2.43,2.42,3.53a16.28,16.28,0,0,1,1.24,1.31,12.12,12.12,0,0,1,1.5,2.33c.3.54.58,1.06.89,1.53-.28.53-.58,1-.91,1.57a19.92,19.92,0,0,0-2.72,6.13,9.77,9.77,0,0,0-3.29-4l-.33-.22-.19.3c-1,1.56.39,3.71,1.38,5.27l.39.62c.29.53.58,1.21.89,2s.53,1.26.82,1.84c0,.23,0,.44-.09.66-3.76-3.18-5.87-6-6.68-10.39a34.28,34.28,0,0,0-.93-3.91c1.93-2.27,4-5.24,2.51-8l-.15-.27-.31.1c-1.75.59-2.32,3.14-2.42,3.65a10.9,10.9,0,0,1-.61,1.81l0,.08a13.86,13.86,0,0,0-.79-1.53,29.67,29.67,0,0,0-2.27-3.2c-.41-.54-.82-1.06-1.2-1.59a12.9,12.9,0,0,0,1.54-2.39,12,12,0,0,1,1-1.67,7.07,7.07,0,0,0,1.49-3.61l.06-.31-.36,0A2.94,2.94,0,0,0,53,99c-1.55,1-2.34,3.46-2.74,5.86-.08-.16-.17-.3-.25-.45-1.18-2.51-.86-5.08-.51-7.82a18.84,18.84,0,0,0,0-7.1,15,15,0,0,0-.67-2.06c1.52-2.33,3.39-5.4,2-8.17L50.73,79l-.28,0A2.21,2.21,0,0,0,49,80.08a10.89,10.89,0,0,0-1.36,4.79,34.93,34.93,0,0,0-5.75-7c0-.1.07-.2.11-.32.84-2.29,1.88-5.15.6-7.39l-.12-.22-.27,0a2.08,2.08,0,0,0-1.63,1.33,9.47,9.47,0,0,0-.38,5c-.7-.64-1.41-1.26-2.11-1.86a1.59,1.59,0,0,0-1.93,0,1,1,0,0,0-.37.82,1.17,1.17,0,0,0,.43.83c1.43,1.22,2.87,2.53,4.23,3.89-.25-.07-.52-.14-.79-.19a6.07,6.07,0,0,0-3.86.28l-.18.1,0,.18c.18,1,2,1.56,3.41,1.84a16.23,16.23,0,0,0,3.71.27,18.87,18.87,0,0,1,4.12,7.38A13.49,13.49,0,0,1,47,94.54L47,94.47c-.32-.43-.62-.82-.83-1.14l-.09-.14c-1.08-1.61-2.1-3.13-4.5-3.63l-.34-.07-.07.29c-.52,2.34,3.19,5.49,5.58,7.24-.31,2.63-.5,5.34.81,8.1a16.65,16.65,0,0,0,1.35,2.26,13.28,13.28,0,0,0-3.1-1.08,5.62,5.62,0,0,0-3.61.37l-.26.13.13.25c.72,1.27,3.77,2,5.05,2.22a20.45,20.45,0,0,0,3.47.36,24.91,24.91,0,0,1,1.88,2.64,20.46,20.46,0,0,1,2.2,6.12,10.33,10.33,0,0,0-4.59-2.67,3.78,3.78,0,0,0-.87-.07h-.37l0,.32c.4,2.3,4.06,4.82,6.83,6.69,1.17,3.27,3.21,5.71,6.26,8.35a19.41,19.41,0,0,1-3.87-.37,39.51,39.51,0,0,1-4.45-1.18c-.29-.83-.57-1.66-.85-2.49-.54-1.63-1.1-3.32-1.71-5l-.11-.29-.33.07a2.14,2.14,0,0,0-1.69,2.57,9.31,9.31,0,0,0,1.54,3.92c-3.57-1.58-5.68-4.35-7.79-7.55A13.92,13.92,0,0,0,44,114.15l0-.24-.28-.06a2,2,0,0,0-1.85.5,5.34,5.34,0,0,0-1,3.66,25.11,25.11,0,0,0-7.76-7.37c.06-1.91-.16-6.09-3.26-6.68a3.28,3.28,0,0,0-.63-.06h-.3l0,.25c-.2,1.34.85,3.63,2,5.34a17.31,17.31,0,0,0-3.63-1.15,12.72,12.72,0,0,0-3.08-.21,9.71,9.71,0,0,0-3.07-1.32,3.28,3.28,0,0,0-2.61.47l-.18.14.1.2c.38.76,1.74,1.16,2.64,1.35a7.16,7.16,0,0,0-2.26,1.77,1,1,0,0,0-.21.87,1.21,1.21,0,0,0,.57.77,1.5,1.5,0,0,0,1.89-.2,5,5,0,0,1,4-1.74,2.93,2.93,0,0,0-1.17.64,1.55,1.55,0,0,0-.46,1.42l0,.18.2.08a2.6,2.6,0,0,0,.4.1,7.14,7.14,0,0,0,5-1.58,14.08,14.08,0,0,1,1.56.7,19.14,19.14,0,0,1,4.31,3c-2.3-.39-5.14-.26-6,1.42l-.12.25.28.14a3,3,0,0,0,.62.18,39.5,39.5,0,0,0,7.34.3,51.65,51.65,0,0,1,3.09,4.29c.37.56.74,1.12,1.12,1.66a10.16,10.16,0,0,0-1.48-.4,4.42,4.42,0,0,0-3.83.63l-.18.17.16.2a5.07,5.07,0,0,0,3.12,1.52,26.2,26.2,0,0,0,3.8.35h.32a16.81,16.81,0,0,0,6.83,5,43.5,43.5,0,0,0,7.59,2.27,19.55,19.55,0,0,0,5.91.34l.05,0,.31,0c.36,0,.71,0,1.06-.06a1.73,1.73,0,0,0,.32,0A29.7,29.7,0,0,0,73.13,136a33.7,33.7,0,0,0,10.6.24,33.24,33.24,0,0,0,6.41,2.15c1.67.32,2.63.18,2.94-.42a.84.84,0,0,0,0-.88c-.34-.55-1.35-1-3.09-1.31-.63-.12-1.3-.22-2-.3,1.43-.33,2.88-.71,4.36-1.2a38,38,0,0,1,6.17-1.45c1.45,1.29,3.82,3,5.38,3.35a1.59,1.59,0,0,0,1.38-.25.84.84,0,0,0,.3-1c-.28-.84-2-1.71-3.7-2.4a13.63,13.63,0,0,1,2.85.22,7.4,7.4,0,0,1,1.91.6,4,4,0,0,1,2.27,2.79,1.52,1.52,0,0,0,1.63,1,1.35,1.35,0,0,0,.86-.46,1,1,0,0,0,.18-.87,6.35,6.35,0,0,0-2.1-3.38,8.65,8.65,0,0,0,5-.69l.23-.13-.12-.22A2.89,2.89,0,0,0,112.46,130Z"/>
</svg>
