<svg id="Layer_1" data-name="Layer 1" xmlns="http://www.w3.org/2000/svg" width="281.48" height="296.47" viewBox="0 0 281.48 296.47">
  <defs>
    <style>
      .cls-1 {
        fill: #8c2c2c;
      }

      .cls-2 {
        fill: #4f1313;
      }

      .cls-3 {
        fill: #423628;
      }

      .cls-4 {
        fill: #564837;
      }
    </style>
  </defs>
  <path class="cls-1" d="M239.2,230.5c-3.69-.44-8.49,1-11.34,2.61a24.8,24.8,0,0,0-3.13-.59c-5.42-.65-11.51.31-16.64,1.58,2.92-2.07,5.63-4.46,6.28-7.6l.09-.47-.53-.2c-2.06-.76-4.32-.26-6.44,1.4a15.68,15.68,0,0,0-5.31,8.58c-2.45.8-4.28,1.52-5.08,1.84-2.68,1.1-5.29,2-7.87,2.82,1.65-1.75,2.76-3.63,2.83-5.3v-.44l-.49-.16a5.43,5.43,0,0,0-.82-.18c-4.08-.49-8.63,4.74-11.61,8.55a58.93,58.93,0,0,1-15.54.65c1-.44,2-.88,2.88-1.32s4.48-4.58,4-6.44a1.52,1.52,0,0,0-1.39-1.05l-.27,0c-3.25.73-8.56,4.63-11.54,7.83-1.51-.33-3-.72-4.48-1.18a77.68,77.68,0,0,0,11.77-6.68c4.18-2.72,8.12-5.28,12.47-6.86,2.71-1,5.58-1.82,8.47-2.63,4.39,2.33,9.23,4.54,13.95,5.1a17.35,17.35,0,0,0,3.43.1l.63,0,0-.54c-.12-3.36-5.42-5.52-10.89-6.58a123.7,123.7,0,0,0,13.93-4.52l.6.08c3.22.38,22.77,1.38,23.15-1.82a1.8,1.8,0,0,0-.36-1.67,4.43,4.43,0,0,0-3-1.2c-3.33-.4-8.85.4-13.61,1.28.36-.2.73-.39,1.08-.61,7.3-4.5,9.14-11.43,10.78-17.57,0-.16.08-.32.13-.48,5.53,0,14.88-1.38,17.66-3.76a2.09,2.09,0,0,0,.88-2c-.08-.47-.46-1.29-2.09-1.49-3-.36-9.36,1.53-15.45,3.65,1.94-6.19,4.79-10.44,15-11a2.76,2.76,0,0,0,1.84-.79,2.05,2.05,0,0,0,.6-1.69,2.83,2.83,0,0,0-3-2.19,36.14,36.14,0,0,0-5,.63c2.62-3.66,5-8.18,5.51-11.43l.08-.54-.62-.14a5.62,5.62,0,0,0-4.94,1.06c-3.37,2.64-4.65,8.72-4.95,12.54-7.57,3.32-9.34,10-11.05,16.42-1.2,4.49-2.47,9.08-5.84,12.56,1.27-5.84,1.88-13.73-4.29-16.69l-.65-.31-.31.56c-1.26,2.27-.6,5.44,0,8.24.16.77.33,1.52.42,2.2s.16,1.3.24,2.09a29.78,29.78,0,0,0,1.18,6.59c-6.58,3.92-14.62,6.12-22.42,8.24l-.25.06-3.31.93c2.14-3.48,4.36-8,3.56-10.31a2.32,2.32,0,0,0-1.6-1.5,2.66,2.66,0,0,0-2.62.57c-2.4,2-3.51,8.52-3.81,12.54-1.82.56-3.64,1.11-5.4,1.75-.17.06-.32.14-.49.21a44.9,44.9,0,0,0,5.39-10.54c.61-1.69,1.09-3.4,1.56-5.09,4.51-1.33,10.93-4.18,12.44-6.6a1.86,1.86,0,0,0-.18-2.5,2.53,2.53,0,0,0-1.58-.75c-2.32-.28-5.65,1.85-9.33,4.72a47.75,47.75,0,0,1,2.65-7.74c1.43-3.09,3.22-6.14,5-9.14,1.23-2.08,2.47-4.23,3.63-6.43,1.26-.36,2.59-.82,3.91-1.28a42.59,42.59,0,0,1,4.44-1.4A65.6,65.6,0,0,0,214,174.22l.71-.26-.41-.59a6.39,6.39,0,0,0-4.66-2.59c-4.07-.49-9.39,1.69-13.62,4.09,3.29-9.07,2.24-18.19,1.22-27.06,0-.18,0-.37-.06-.55,4.77-2.48,10.74-6.94,13.07-10.49l.31-.46L210,136a5.88,5.88,0,0,0-2.39-.85c-4.22-.5-8.28,3.61-11,7.39a71.39,71.39,0,0,1-.36-10.84,41.54,41.54,0,0,1,9.78-23.56c1.12.22,2.27.37,3,.46,1.13.13,11.08,1.24,13.67-1.09a1.7,1.7,0,0,0,.59-1.73c-.17-.76-.85-1.71-3.15-2-2.85-.34-7.37.44-11.07,1.17a38.85,38.85,0,0,1,15.71-9.3,2.16,2.16,0,0,0,1.54-3,3.08,3.08,0,0,0-3.55-1.45,44.9,44.9,0,0,0-5.45,2.1c1.92-4.27,2.7-8.64-1.14-11.37l-.45-.31-.44.3c-3.36,2.28-3,5.6-2.68,8,0,.35.08.68.1.93a21.12,21.12,0,0,1-.28,2.26,26.3,26.3,0,0,0-.4,3,44.8,44.8,0,0,0-8.57,7.09c.18-4.88-.66-10-5.44-13.18l-.49-.32-.42.35c-.34.27-1.35,1.1-.7,5.57a42.15,42.15,0,0,0,3.62,11.63,46.2,46.2,0,0,0-9,21.37c-1.4-3.62-3.53-7-7.3-8.87l-.53-.27-.37.4c-1,1-.79,3.14.49,6.23,1.65,3.95,4.86,8.79,7.45,11,.14,3.7.54,7.36,1,10.93s.76,6.79.91,10.1c-2.26-3.25-5.54-5.92-10.29-6h-.62l-.06.53c-.32,2.79,2.78,5,5.27,6.75.47.33.91.64,1.27.91a35.74,35.74,0,0,1,2.61,2.69c.56.61,1.12,1.21,1.68,1.79a31.66,31.66,0,0,1-3.26,11.88c-1.22,2.4-2.64,4.8-4.05,7.21-1.62,2.75-3.27,5.6-4.69,8.55-.23-5.43-1.62-10.92-7.48-13.12l-.74-.28-.2.66c-.78,2.64.66,5.94,1.94,8.85.35.78.69,1.55.95,2.24s.54,1.93.82,3.12a29.17,29.17,0,0,0,1.87,6c-.42,1.47-.81,2.94-1.19,4.38-.6,2.33-1.27,5-2.16,7.42a41.08,41.08,0,0,1-4.24,8.64c-.12-4-1-8.06-2.34-9.83l-.38-.5-.58.3c-4.78,2.45-3.11,10.28-1.63,16.07a50.39,50.39,0,0,1-15.75,10,3.49,3.49,0,0,0-1-.2,40.54,40.54,0,0,0-.23-4.7,38.5,38.5,0,0,1-.17-4.51c4.93-2.57,12.06-6.68,12.6-11.17l.05-.43-.46-.19a4.85,4.85,0,0,0-1.31-.33c-3.16-.38-6.69,2.13-9.46,5.1a48.66,48.66,0,0,1,3-6.67,55,55,0,0,0,6.59-27c4.09-4.27,8.53-9.4,7.27-15l-.13-.57-.67.07c-2.54.24-5.1,3.8-6.39,5.9-.26.43-.53.9-.8,1.4-.56-3.74-1.32-7.38-2.1-11-.57-2.61-1.11-5.17-1.57-7.73,5.18-3.77,10.73-9.72,9.74-16l-.11-.67-.76.14c-3.83.66-5.72,4.47-7.25,7.53-.25.5-.49,1-.72,1.41a25,25,0,0,1-1.67,2.44,43.92,43.92,0,0,1,.31-12.72,63,63,0,0,1,4-12c.27-.69.54-1.39.82-2.09,5.18-1.9,14-6.36,15.48-8.44a1.15,1.15,0,0,0,.14-1.46,3.34,3.34,0,0,0-2.35-1.31c-3-.36-7.51,2.58-11.2,5.55a36.9,36.9,0,0,0,1.57-6.9c.61-5.41-.31-10.76-1.21-16-.42-2.44-.84-4.93-1.1-7.41A42.3,42.3,0,0,0,165.92,88c.69-.49,1.28-.9,1.68-1.16l.25-.15c3.39-2,6.32-3.82,7-7.82l.08-.45-.49-.2a7,7,0,0,0-1.8-.47c-4.81-.57-9.28,4.27-12.42,8.59.49-12.21,8.43-24.4,18.23-33l1.65.21c1.38.17,13.53,1.53,14.54-1.42a1.62,1.62,0,0,0-.22-1.55,4.17,4.17,0,0,0-2.91-1.18,40.15,40.15,0,0,0-8.66.38,56.09,56.09,0,0,1,5.21-3.42,2.09,2.09,0,0,0,.62-3.24,3.2,3.2,0,0,0-3.83-.66,69.26,69.26,0,0,0-16.49,13.52c.4-3.63.07-7.44-1-9.14l-.33-.52-.6.24c-4.84,1.88-3.76,9.71-3.05,14.89,0,.23.06.44.09.66a49.69,49.69,0,0,0-7.76,16.65c-2.12-5.11-4.93-9.93-9.08-13.17l-.62-.48-.44.58c-2.72,3.54,1,8.38,3.48,11.58l.21.3c.56.7,1.19,1.6,1.86,2.58a49.32,49.32,0,0,0,3.6,4.78,35.19,35.19,0,0,0-.06,3.56,80.51,80.51,0,0,0,1.39,11c.82,4.79,1.56,9.32,1.2,13.87-3.4-7.61-8.15-12.17-14.25-13.48l-.81-.18,0,.71c-.15,3.19,3.32,6.2,6.12,8.62.63.56,1.24,1.08,1.74,1.55a38,38,0,0,1,2.79,3.48,41.75,41.75,0,0,0,3.57,4.38,80.35,80.35,0,0,1-3.37,9.46,86.69,86.69,0,0,0-3.51,9.75,47.57,47.57,0,0,0-3.86-5.19c-.45-.53-6.5-4.15-9.07-4.46-1.16-.14-1.64.39-1.71.92v.2c.66,2.46,3.39,4.31,5.79,6,.94.64,1.84,1.26,2.61,1.89a25.34,25.34,0,0,1,3.52,3.67c.58.7,1.15,1.36,1.73,2-.9,6.63-.16,13,1,19.1l-.17,1.09.36-.19c.35,1.8.73,3.6,1.12,5.38.35,1.59.69,3.2,1,4.82-4.79-5.23-10.34-10.19-16.67-12.3l-.77-.26-.16.68c-.94,4.21,4.58,7.6,8.23,9.84l.32.19c.81.49,1.78,1.15,2.82,1.86a40.22,40.22,0,0,0,7,4.13,64.73,64.73,0,0,1,.91,8,49.83,49.83,0,0,1-2.67,18.43c-2.19-6.2-7.14-11.72-14.34-12.58l-.91-.11.14.77c.48,2.56,3,4.69,5.34,6.74a34.22,34.22,0,0,1,2.65,2.45,25.05,25.05,0,0,1,3.31,4.47c.67,1,1.32,2,2,2.93-.49,1.1-1,2.19-1.6,3.28A40,40,0,0,0,142.9,224a19.55,19.55,0,0,0-7.13-7.53l-.69-.4-.33.62C133,219.92,136,224,138.23,227c.31.43.61.82.86,1.18.66,1,1.33,2.36,2,3.79.61,1.22,1.24,2.46,1.9,3.59,0,.45,0,.89-.08,1.33-8-5.85-12.56-11.1-14.8-19.9a67.74,67.74,0,0,0-2.38-7.72c3.54-4.8,7.27-11,3.9-16.4l-.33-.52-.61.25c-3.41,1.42-4.19,6.61-4.32,7.65a24.55,24.55,0,0,1-1,3.71,1.09,1.09,0,0,0,0,.17,33.76,33.76,0,0,0-1.79-3,59.34,59.34,0,0,0-5-6.09c-.91-1-1.79-2-2.62-3a27.9,27.9,0,0,0,2.75-5,23.05,23.05,0,0,1,1.84-3.49c1.75-2.36,2.14-4.68,2.47-7.45l.08-.62-.73-.06a6,6,0,0,0-4.17,1.17c-3,2.24-4.19,7.27-4.66,12.14-.19-.29-.38-.57-.55-.87-2.72-4.85-2.42-10-2.1-15.59.26-4.63.53-9.43-1-14.25a30.4,30.4,0,0,0-1.64-4c2.73-4.89,6-11.31,2.87-16.67l-.26-.44-.55.11a4.38,4.38,0,0,0-2.84,2.35c-1.41,2.46-2,6.39-2.06,9.81A68.89,68.89,0,0,0,91,135.94c.06-.22.12-.42.18-.65,1.35-4.72,3-10.6.17-14.92l-.27-.41-.53.11a4.21,4.21,0,0,0-3.07,2.9c-1,2.67-.82,6.77-.07,10.05-1.48-1.17-3-2.32-4.46-3.42a3.16,3.16,0,0,0-3.86.18,2,2,0,0,0-.63,1.68,2.33,2.33,0,0,0,1,1.61c3,2.24,6.07,4.66,9,7.2q-.8-.17-1.62-.27c-3.21-.38-6,0-7.67,1.11l-.34.22.1.37c.5,2,4.11,2.85,7,3.2a33,33,0,0,0,7.44,0c4.2,4.35,7.62,9.09,9.26,14.2a27.7,27.7,0,0,1,1,9.5.63.63,0,0,0-.1-.12c-.71-.82-1.36-1.57-1.82-2.18l-.2-.26c-2.38-3.08-4.62-6-9.48-6.64l-.7-.1-.09.59c-.71,4.76,7.13,10.56,12.14,13.74-.26,5.31-.26,10.76,2.74,16.11a30.34,30.34,0,0,0,3,4.35,26.68,26.68,0,0,0-6.35-1.74,11.19,11.19,0,0,0-7.16,1.26l-.5.3.31.47c1.6,2.45,7.79,3.44,10.38,3.75a37.67,37.67,0,0,0,7,.22,52.51,52.51,0,0,1,4.1,5,40.76,40.76,0,0,1,5.23,12c-3-2.43-6.5-4.34-9.51-4.7a7.55,7.55,0,0,0-1.77,0l-.74.07.16.62c1.11,4.56,8.78,9.09,14.55,12.45,2.79,6.4,7.2,11,13.65,15.87a37,37,0,0,1-7.76-.21,73.14,73.14,0,0,1-9.06-1.73q-1-2.44-2-4.87c-1.31-3.2-2.66-6.5-4.11-9.74l-.25-.56-.65.19c-2.39.7-3.46,2.63-3,5.4a19,19,0,0,0,3.61,7.64c-7.34-2.68-11.93-7.93-16.59-14.05a28,28,0,0,0,1.79-13.35l-.12-.49-.58-.07a3.94,3.94,0,0,0-3.61,1.26c-1.44,1.63-1.74,4.59-1.55,7.48A50.18,50.18,0,0,0,78,202.88C77.88,199,76.86,190.7,70.59,190a7.64,7.64,0,0,0-1.27,0l-.6,0,0,.5c-.21,2.71,2.2,7.16,4.76,10.42a34.38,34.38,0,0,0-7.39-1.79,24.57,24.57,0,0,0-6.18,0,19.2,19.2,0,0,0-6.31-2.21,6.5,6.5,0,0,0-5.15,1.31l-.35.29.23.39c.88,1.48,3.63,2.1,5.45,2.35a14.39,14.39,0,0,0-4.26,3.86,2,2,0,0,0-.3,1.77,2.44,2.44,0,0,0,1.24,1.47,3,3,0,0,0,3.76-.67,10,10,0,0,1,7.8-4A5.82,5.82,0,0,0,59.74,205,3.12,3.12,0,0,0,59,208l.08.36.42.12a5.27,5.27,0,0,0,.81.15c3.22.39,7.55-1.79,9.77-3.88a31.07,31.07,0,0,1,3.23,1.18,38.15,38.15,0,0,1,9,5.42c-4.63-.47-10.3.21-11.7,3.69l-.21.51.59.24a5.08,5.08,0,0,0,1.25.27,79,79,0,0,0,14.7-.42,96.5,96.5,0,0,1,6.76,8.17c.82,1.07,1.64,2.13,2.48,3.17a20.72,20.72,0,0,0-3-.61c-3.38-.4-6.07.24-7.55,1.82l-.35.36.36.38c1.28,1.39,3.38,2.24,6.43,2.6a52.87,52.87,0,0,0,7.63.16h.64a33.84,33.84,0,0,0,14.33,9,87,87,0,0,0,15.47,3.48A39.57,39.57,0,0,0,142,244a.29.29,0,0,1,.1,0,4.42,4.42,0,0,0,.63,0c.72-.05,1.41-.16,2.11-.26a3.31,3.31,0,0,0,.63,0,58.91,58.91,0,0,0,16,4.3,67.47,67.47,0,0,0,21.21-1,66.48,66.48,0,0,0,13.1,3.41c3.37.4,5.26,0,5.81-1.26a1.72,1.72,0,0,0-.16-1.75c-.77-1.06-2.85-1.78-6.36-2.2-1.27-.16-2.63-.25-4-.32,2.82-.86,5.66-1.84,8.53-3a76.28,76.28,0,0,1,12.13-3.77c3.07,2.37,8,5.58,11.21,6a3.09,3.09,0,0,0,2.71-.71,1.73,1.73,0,0,0,.48-2c-.68-1.64-4.15-3.14-7.72-4.29a29.39,29.39,0,0,1,5.72,0,15.43,15.43,0,0,1,3.88.94,8.08,8.08,0,0,1,4.93,5.28,3,3,0,0,0,3.38,1.73,2.68,2.68,0,0,0,1.66-1,2,2,0,0,0,.24-1.78,12.79,12.79,0,0,0-4.65-6.47c3.61.06,7.23-.28,9.93-2.08l.44-.3-.26-.44A5.77,5.77,0,0,0,239.2,230.5Z"/>
  <path class="cls-2" d="M73.61,213.76a16.22,16.22,0,0,1,8.77,1.61,18.83,18.83,0,0,1,2.38-.56,36.87,36.87,0,0,1,12.8.64c-2.31-1.49-4.47-3.23-5.07-5.62l-.09-.36.4-.16a5,5,0,0,1,5,.84,12.09,12.09,0,0,1,4.37,6.4c1.91.53,3.33,1,3.95,1.24,2.1.75,4.13,1.36,6.13,1.89a7,7,0,0,1-2.35-4l0-.34.37-.14a4.34,4.34,0,0,1,.62-.16c3.11-.52,6.78,3.34,9.19,6.16a45.31,45.31,0,0,0,11.93,0c-.79-.31-1.55-.61-2.25-.91s-3.59-3.36-3.27-4.81a1.14,1.14,0,0,1,1-.85h.2c2.52.45,6.72,3.26,9.12,5.61,1.14-.3,2.27-.66,3.39-1.06a59.6,59.6,0,0,1-9.25-4.72,47.56,47.56,0,0,0-9.8-4.82c-2.11-.66-4.34-1.21-6.58-1.73-3.28,1.94-6.91,3.8-10.51,4.39a13.3,13.3,0,0,1-2.62.2h-.49v-.42c0-2.59,4-4.43,8.12-5.43a92.8,92.8,0,0,1-10.84-3l-.45.08c-2.46.41-17.4,1.85-17.81-.59a1.45,1.45,0,0,1,.22-1.3,3.38,3.38,0,0,1,2.24-1c2.54-.42,6.8,0,10.47.51L92,200.9c-5.75-3.2-7.4-8.45-8.87-13.1,0-.13-.08-.25-.11-.37-4.24.17-11.46-.54-13.67-2.27a1.6,1.6,0,0,1-.74-1.48c0-.36.31-1,1.55-1.21,2.32-.38,7.22.85,12,2.26-1.7-4.68-4-7.84-11.9-7.94a2.12,2.12,0,0,1-1.44-.54A1.58,1.58,0,0,1,68.3,175a2.17,2.17,0,0,1,2.23-1.78,27.24,27.24,0,0,1,3.83.31c-2.13-2.71-4.11-6.1-4.61-8.58l-.09-.4.47-.14A4.29,4.29,0,0,1,74,165c2.68,1.9,3.87,6.53,4.24,9.44,5.92,2.29,7.5,7.31,9,12.21,1.07,3.41,2.2,6.89,4.91,9.44-1.18-4.43-1.92-10.47,2.71-13l.48-.26.26.42c1,1.69.65,4.15.3,6.31-.1.61-.2,1.18-.25,1.71s-.07,1-.11,1.61a22.82,22.82,0,0,1-.67,5.1c5.17,2.78,11.41,4.19,17.47,5.54l.19,0,2.57.6c-1.76-2.6-3.62-6-3.09-7.78a1.82,1.82,0,0,1,1.18-1.22,2,2,0,0,1,2,.35c1.91,1.48,3,6.42,3.36,9.49,1.41.36,2.83.73,4.2,1.16l.38.14a34.38,34.38,0,0,1-4.5-7.9c-.52-1.28-1-2.57-1.37-3.85-3.51-.87-8.52-2.83-9.77-4.63a1.43,1.43,0,0,1,.06-1.93,2,2,0,0,1,1.18-.63c1.77-.29,4.39,1.23,7.32,3.3a36.75,36.75,0,0,0-2.31-5.84c-1.2-2.32-2.68-4.6-4.14-6.84-1-1.55-2-3.16-3-4.81-1-.23-2-.54-3-.85-1.28-.38-2.49-.74-3.46-.92a48.58,48.58,0,0,1-9.17-1.77l-.56-.17.3-.46a4.87,4.87,0,0,1,3.47-2.15c3.11-.51,7.26,1,10.59,2.67-2.84-6.85-2.35-13.88-1.89-20.72,0-.14,0-.28,0-.42-3.73-1.74-8.46-5-10.38-7.6l-.25-.34.39-.27a4.44,4.44,0,0,1,1.81-.73c3.21-.54,6.47,2.47,8.65,5.28a53.87,53.87,0,0,0-.1-8.33,31.87,31.87,0,0,0-8.32-17.73c-.85.21-1.72.37-2.25.45-.86.15-8.45,1.34-10.51-.36a1.31,1.31,0,0,1-.52-1.3c.1-.59.6-1.35,2.35-1.64,2.16-.36,5.66.08,8.52.51a29.64,29.64,0,0,0-12.37-6.58,1.66,1.66,0,0,1-1.28-2.23,2.35,2.35,0,0,1,2.67-1.23,33.62,33.62,0,0,1,4.25,1.42c-1.62-3.21-2.37-6.54.48-8.76l.33-.26.35.22c2.65,1.63,2.46,4.19,2.33,6.06,0,.27,0,.52,0,.71a14.74,14.74,0,0,0,.29,1.73,23.09,23.09,0,0,1,.42,2.31,35.18,35.18,0,0,1,6.81,5.14c-.31-3.74.16-7.7,3.7-10.3l.37-.26.34.25c.26.2,1.06.8.73,4.25a32.36,32.36,0,0,1-2.38,9A35.51,35.51,0,0,1,106.89,134a12,12,0,0,1,5.29-7.06l.4-.22.29.29c.77.77.72,2.38-.16,4.8a25.77,25.77,0,0,1-5.32,8.69c0,2.85-.15,5.67-.34,8.42s-.35,5.23-.35,7.78a9.68,9.68,0,0,1,7.67-5l.48,0,.06.41c.34,2.12-2,3.92-3.8,5.36-.35.27-.68.52-.94.74-.62.6-1.24,1.35-1.91,2.15-.4.49-.81,1-1.22,1.43a24.22,24.22,0,0,0,2.91,9c1,1.79,2.19,3.59,3.36,5.39,1.33,2.05,2.69,4.18,3.88,6.39,0-4.17.87-8.43,5.28-10.32L123,172l.17.5c.69,2-.3,4.58-1.18,6.85-.24.62-.47,1.22-.65,1.75s-.34,1.51-.52,2.42a22.12,22.12,0,0,1-1.22,4.65c.38,1.11.73,2.23,1.06,3.32.55,1.76,1.15,3.76,1.92,5.61a31.73,31.73,0,0,0,3.55,6.49c0-3.09.48-6.22,1.45-7.62l.28-.4.45.21c3.74,1.71,2.74,7.78,1.81,12.27a38.47,38.47,0,0,0,12.42,7.14,2.52,2.52,0,0,1,.73-.18,31.23,31.23,0,0,1,0-3.62,28.57,28.57,0,0,0,0-3.47c-3.86-1.79-9.47-4.7-10-8.13l0-.32.35-.17a4.06,4.06,0,0,1,1-.3c2.41-.4,5.2,1.41,7.43,3.59a37.82,37.82,0,0,0-2.52-5,42.35,42.35,0,0,1-6-20.45c-3.29-3.13-6.87-6.92-6.1-11.28l.08-.44.52,0c2,.09,4,2.73,5.1,4.3.21.32.44.68.66,1.05.3-2.89.76-5.71,1.23-8.49.34-2,.66-4,.93-6-4.1-2.72-8.56-7.09-8-12l.06-.51.58.08c3,.37,4.55,3.22,5.82,5.52.21.38.41.74.6,1.06a21.63,21.63,0,0,0,1.37,1.81,33.26,33.26,0,0,0-.69-9.74,48.2,48.2,0,0,0-3.48-9.11c-.24-.51-.47-1-.71-1.57-4-1.28-10.92-4.39-12.15-5.94a.88.88,0,0,1-.16-1.11,2.52,2.52,0,0,1,1.75-1.09c2.29-.38,5.85,1.72,8.78,3.87a28.62,28.62,0,0,1-1.44-5.24c-.66-4.13-.14-8.26.36-12.28.24-1.88.48-3.81.59-5.72a33.47,33.47,0,0,1-4.36-2.49c-.55-.36-1-.66-1.33-.84l-.2-.11c-2.66-1.45-5-2.71-5.63-5.75l-.07-.34.36-.17a5.65,5.65,0,0,1,1.36-.43c3.67-.61,7.27,3,9.82,6.16-.8-9.35-7.31-18.42-15.12-24.69-.42.08-.85.16-1.25.22-1,.18-10.32,1.65-11.19-.59a1.25,1.25,0,0,1,.11-1.2,3.25,3.25,0,0,1,2.19-1,30.56,30.56,0,0,1,6.65,0,47.65,47.65,0,0,0-4.11-2.44,1.61,1.61,0,0,1-.59-2.46,2.45,2.45,0,0,1,2.91-.65,53.31,53.31,0,0,1,13.11,9.81c-.44-2.78-.32-5.71.42-7l.23-.42.47.16c3.78,1.28,3.23,7.32,2.86,11.32,0,.18,0,.34,0,.51a38.12,38.12,0,0,1,6.52,12.51c1.44-4,3.43-7.79,6.5-10.42l.45-.39.36.42c2.21,2.63-.48,6.47-2.26,9l-.15.24c-.4.55-.85,1.27-1.34,2a35,35,0,0,1-2.59,3.79c.1.91.16,1.81.17,2.73a62,62,0,0,1-.68,8.45,43.42,43.42,0,0,0-.44,10.68c2.34-6,5.83-9.62,10.45-10.83l.61-.17,0,.55c.23,2.43-2.32,4.87-4.38,6.82-.47.45-.92.87-1.29,1.25a32.41,32.41,0,0,0-2,2.76,32.08,32.08,0,0,1-2.58,3.48A59.67,59.67,0,0,0,136,132a66.26,66.26,0,0,1,3,7.35,35.57,35.57,0,0,1,2.78-4.11c.33-.42,4.83-3.41,6.79-3.74.88-.14,1.27.24,1.34.65v.15c-.42,1.91-2.44,3.43-4.23,4.78-.7.52-1.37,1-1.93,1.54a19,19,0,0,0-2.57,2.94c-.42.55-.84,1.08-1.26,1.58a44.91,44.91,0,0,1-.11,14.69l.16.83-.27-.14c-.21,1.4-.44,2.79-.68,4.17s-.41,2.48-.61,3.73c3.49-4.18,7.57-8.17,12.35-10l.58-.22.14.51c.87,3.2-3.24,6-6,7.83l-.24.16c-.61.41-1.32.94-2.09,1.52a30,30,0,0,1-5.22,3.41,49,49,0,0,0-.41,6.19,38.41,38.41,0,0,0,2.68,14c1.46-4.83,5.06-9.24,10.55-10.15l.69-.11-.08.59c-.27,2-2.09,3.71-3.85,5.36-.72.69-1.4,1.33-2,2a20.23,20.23,0,0,0-2.38,3.54c-.47.82-.93,1.62-1.43,2.32q.63,1.25,1.35,2.46a30.89,30.89,0,0,1,4,9.56,15.08,15.08,0,0,1,5.2-6l.51-.33.28.47c1.45,2.45-.72,5.7-2.31,8.08l-.61.93c-.47.81-.94,1.86-1.44,3-.42,1-.86,1.93-1.32,2.82,0,.34.06.68.1,1,5.89-4.76,9.24-9,10.64-15.78a53.36,53.36,0,0,1,1.56-6c-2.88-3.56-5.95-8.23-3.56-12.45l.23-.41.48.17c2.66,1,3.44,4.93,3.57,5.72a19.87,19.87,0,0,0,.88,2.81c0,.05,0,.09,0,.13a26.51,26.51,0,0,1,1.27-2.33,45.14,45.14,0,0,1,3.6-4.85c.65-.81,1.29-1.6,1.89-2.4a21.9,21.9,0,0,1-2.27-3.75,17.64,17.64,0,0,0-1.54-2.62A10.91,10.91,0,0,1,162.2,168l-.08-.47.56-.07a4.49,4.49,0,0,1,3.23.76c2.34,1.61,3.46,5.43,4,9.15.13-.24.27-.46.39-.69,1.91-3.81,1.5-7.79,1.06-12-.36-3.54-.73-7.21.28-11a22.73,22.73,0,0,1,1.12-3.15c-2.26-3.65-5-8.46-2.78-12.68l.18-.35.43.07a3.37,3.37,0,0,1,2.26,1.7,17,17,0,0,1,1.92,7.45,52.66,52.66,0,0,1,9.07-10.58l-.17-.5c-1.19-3.57-2.68-8-.64-11.43l.19-.33.41.07a3.22,3.22,0,0,1,2.45,2.11c.89,2,.86,5.17.4,7.71,1.1-.95,2.21-1.88,3.3-2.78a2.44,2.44,0,0,1,3,0,1.55,1.55,0,0,1,.54,1.27,1.8,1.8,0,0,1-.69,1.28c-2.23,1.82-4.49,3.78-6.63,5.83.39-.1.81-.19,1.22-.26a9.27,9.27,0,0,1,5.92.58l.27.16-.06.28c-.31,1.56-3,2.33-5.29,2.7a24.85,24.85,0,0,1-5.7.28,29.14,29.14,0,0,0-6.6,11.21,21.15,21.15,0,0,0-.42,7.33.86.86,0,0,1,.07-.1c.52-.65,1-1.25,1.32-1.73l.14-.21c1.72-2.44,3.34-4.75,7-5.42l.53-.1.09.45c.71,3.63-5.09,8.34-8.82,11,.38,4.06.57,8.24-1.54,12.45a23.89,23.89,0,0,1-2.15,3.44,20.36,20.36,0,0,1,4.8-1.55,8.63,8.63,0,0,1,5.53.71l.39.22-.22.37c-1.14,1.94-5.85,2.91-7.82,3.23a29.27,29.27,0,0,1-5.34.42,38.66,38.66,0,0,0-3,4,31.3,31.3,0,0,0-3.6,9.36,15.77,15.77,0,0,1,7.13-3.94,7,7,0,0,1,1.35-.08l.57,0-.1.48c-.69,3.54-6.41,7.28-10.71,10.06-1.92,5-5.13,8.69-9.91,12.64a28.51,28.51,0,0,0,5.94-.43,56.52,56.52,0,0,0,6.89-1.64c.46-1.27.93-2.54,1.38-3.8.89-2.5,1.81-5.09,2.81-7.62l.17-.44.51.13c1.85.45,2.74,1.89,2.5,4a14.57,14.57,0,0,1-2.49,6c5.53-2.31,8.86-6.5,12.22-11.36A21.38,21.38,0,0,1,179.18,192l.08-.38.43-.07a3,3,0,0,1,2.82.83c1.16,1.21,1.49,3.46,1.45,5.69A38.4,38.4,0,0,1,196.12,187c0-3,.47-9.39,5.25-10.18a6.14,6.14,0,0,1,1-.08h.46l0,.39c.26,2.07-1.43,5.57-3.28,8.16a26,26,0,0,1,5.6-1.63,18.8,18.8,0,0,1,4.74-.21,15,15,0,0,1,4.75-1.91,5,5,0,0,1,4,.82l.29.22-.17.3c-.62,1.17-2.71,1.74-4.09,2a11,11,0,0,1,3.39,2.82,1.51,1.51,0,0,1,.3,1.34,1.9,1.9,0,0,1-.9,1.18,2.34,2.34,0,0,1-2.91-.39,7.69,7.69,0,0,0-6.11-2.84,4.58,4.58,0,0,1,1.77,1,2.41,2.41,0,0,1,.66,2.21l-.05.28-.32.11a5.44,5.44,0,0,1-.61.15c-2.46.4-5.85-1.12-7.63-2.64a24.3,24.3,0,0,0-2.43,1,29.89,29.89,0,0,0-6.72,4.47c3.54-.52,7.91-.2,9.1,2.43l.18.38-.45.21a4.26,4.26,0,0,1-.95.25,60.06,60.06,0,0,1-11.27.18,75.25,75.25,0,0,0-4.9,6.51c-.58.84-1.18,1.69-1.78,2.51a16.3,16.3,0,0,1,2.29-.57c2.58-.42,4.65,0,5.85,1.13l.27.27-.25.3c-.94,1.11-2.52,1.84-4.84,2.22a40.16,40.16,0,0,1-5.84.39H180a26,26,0,0,1-10.66,7.39,66.2,66.2,0,0,1-11.74,3.2,29.88,29.88,0,0,1-9.08.3l-.08,0-.48,0c-.55,0-1.08-.08-1.62-.13a2.74,2.74,0,0,1-.49,0,45.2,45.2,0,0,1-12.12,3.85,52.06,52.06,0,0,1-16.29,0,51.43,51.43,0,0,1-9.91,3.07c-2.57.42-4,.17-4.5-.77a1.33,1.33,0,0,1,.06-1.35c.55-.84,2.12-1.46,4.8-1.91,1-.16,2-.28,3-.38-2.18-.56-4.39-1.21-6.64-2a57.49,57.49,0,0,0-9.43-2.47c-2.26,1.93-6,4.56-8.37,5a2.38,2.38,0,0,1-2.1-.45,1.31,1.31,0,0,1-.44-1.49c.46-1.29,3.07-2.56,5.77-3.57a22.92,22.92,0,0,0-4.38.23,12.09,12.09,0,0,0-3,.86,6.19,6.19,0,0,0-3.59,4.22,2.29,2.29,0,0,1-2.53,1.44,2,2,0,0,1-1.3-.74,1.52,1.52,0,0,1-.25-1.35,9.81,9.81,0,0,1,3.34-5.13c-2.77.17-5.55,0-7.68-1.25l-.35-.21.18-.35A4.44,4.44,0,0,1,73.61,213.76Z"/>
  <g>
    <path class="cls-3" d="M177.67,204.67C144.4,186.2,99.78,181.94,63.18,192.05a126.8,126.8,0,0,0-19.13,6.89C-1.2,219.8.23,258.88,64.4,274.84c28.1,7,104.39,7.08,129.44-5.34C224.79,254.15,204.54,219.58,177.67,204.67Z"/>
    <path class="cls-4" d="M177.67,204.67C144.4,186.2,99.78,181.94,63.18,192.05a126.8,126.8,0,0,0-19.13,6.89c-22.61,10.42-33.57,25.4-30.85,39.76a123.57,123.57,0,0,0,27,9.81c28.1,7,104.39,7.09,129.45-5.34,16.89-8.38,18.5-22.49,12.13-36C180.44,206.29,179.07,205.45,177.67,204.67Z"/>
  </g>
</svg>
