<svg id="Layer_1" data-name="Layer 1" xmlns="http://www.w3.org/2000/svg" width="281.48" height="296.47" viewBox="0 0 281.48 296.47">
  <defs>
    <style>
      .cls-1 {
        fill: #317889;
      }

      .cls-2 {
        fill: #6a9906;
      }

      .cls-3 {
        fill: #423628;
      }

      .cls-4 {
        fill: #564837;
      }
    </style>
  </defs>
  <g>
    <g>
      <path class="cls-1" d="M74.53,73.17c-4.08-2.92-7.44-3.42-9.06-1.48a2.91,2.91,0,0,0-.63,2.37c.26,1.67,1.75,3.49,4.44,5.43a21.7,21.7,0,0,0,6.3,2.88,38.66,38.66,0,0,0,5.6,1.24l1,.14-.41-.91C81.69,82.58,78.83,76.27,74.53,73.17Z"/>
      <path class="cls-1" d="M102.26,93.75a5.05,5.05,0,0,0-.62-1.41,3.83,3.83,0,0,0-2.52-1.92c-1.91-.36-3.32.83-4.36,2.14-1.42,1.8-5.8,6.71-3.28,9.43C94.78,105.55,103.42,97.94,102.26,93.75Z"/>
      <path class="cls-1" d="M109.46,110.62c-1.77-2.05-4.68-1.05-6.68-.19-1.58.69-7.27,4.94-6.88,7.12.11.61.69,1,1.95,1.21,3.07.38,9.88-.87,12-3.36C111.12,114,110.74,112.11,109.46,110.62Z"/>
      <path class="cls-1" d="M101.74,126.57a24.2,24.2,0,0,0-3.35,2.36c-1.72,1.51-2.85,3.37-.19,4.65,2.48,1.2,6-.38,8.35-1,2-.52,4.9-1.9,4.85-4.42C111.29,123.21,104,125.16,101.74,126.57Z"/>
      <path class="cls-1" d="M106.5,139.4a14.81,14.81,0,0,0-8.32,3.07c-.29.24-.64.54-1,.88-3.27,3.25.17,4.5,3.61,4.74s9.17-.35,10.54-3.93C112.36,141.54,109.09,139.31,106.5,139.4Z"/>
      <path class="cls-1" d="M102.32,152.86l-.21,0c-3,.57-9.62,3-9.2,6.35.71,5.45,15.9.49,16.82-3C110.73,152.43,104.73,152.44,102.32,152.86Z"/>
      <path class="cls-1" d="M99,221.89c-5.26,0-15.05,7.21-16.09,9.75-2,4.79,6.46,2.89,8.73,2.23,4.09-1.21,11.59-4.18,10.6-9.47A2.9,2.9,0,0,0,99,221.89Z"/>
      <path class="cls-1" d="M107.65,169.05a2.81,2.81,0,0,0-1.7-1.18,13.61,13.61,0,0,0-7,.28c-2.09.73-12.33,4.87-6.15,7,1.94.69,4.44.25,6.39.08C101.57,175.05,109.83,172.75,107.65,169.05Z"/>
      <path class="cls-1" d="M101.57,179.9a13.29,13.29,0,0,0-5.1.74c-2.65,1-9.87,4-8,7.82,1.1,2.21,6.43.86,8,0,2.48-1.31,5.09-1.95,7-4.08C106.38,181.26,104.36,180.05,101.57,179.9Z"/>
      <path class="cls-1" d="M101.82,193.32a5,5,0,0,0-1.43-.18c-2.67,0-4.83,1.65-7.18,2.56-1.64.62-9.42,3.94-5.91,6.5,1.66,1.21,6.46-.26,8.25-.81,2.39-.74,6.41-1.43,7.94-3.49S103.9,193.92,101.82,193.32Z"/>
      <path class="cls-1" d="M104.67,209.53a5.46,5.46,0,0,0-2-.8c-4.46-.87-10.89,2.64-14.08,4.25-1.47.74-4.14,1.86-3.69,3.81.87,3.7,6.59,2.31,9.22,1.66C96.51,217.86,111.18,213.91,104.67,209.53Z"/>
      <path class="cls-1" d="M92.69,100.24c-1-3.58-5.76-10-9.78-10.18a2.1,2.1,0,0,0-1.7.66c-2.4,2.53-.5,5.47,2.49,8C85.65,100.38,94.58,107,92.69,100.24Z"/>
      <path class="cls-1" d="M94.39,109.82c-1.15-2.06-2.41-3.33-3.74-3.76a3,3,0,0,0-2.43.23C82.15,109.74,94.33,122,96,118,96.91,116,95.45,111.78,94.39,109.82Z"/>
      <path class="cls-1" d="M97.1,129.91a13.47,13.47,0,0,0-3.4-7.7c-.37-.38-3.71-3.65-5.65-1.87-1,.9-1.55,2.88,1.23,7.21l.06.09C90.94,130.09,97.53,136,97.1,129.91Z"/>
      <path class="cls-1" d="M90.19,135.08c-.47-.43-4.65-4.08-6.91-2.37-3.11,2.37,1,7.28,3.1,9.23s10.09,7.25,8.51,1A17.13,17.13,0,0,0,90.19,135.08Z"/>
      <path class="cls-1" d="M80.41,148.49a2.86,2.86,0,0,0-.87,2.28c.1,1.48,1.21,3.08,3.32,4.77,1.79,1.44,6.67,4.18,9.14,3.33a1.9,1.9,0,0,0,1-.69c.87-1.25-.63-3.41-1.44-4.65C89.73,150.75,84.19,144.69,80.41,148.49Z"/>
      <path class="cls-1" d="M70.5,218.32a6.92,6.92,0,0,0-2.39.2,2.68,2.68,0,0,0-2,1.54c-1.32,3.47,1.55,6.68,4.26,8.82,1.75,1.38,11.14,8.69,11.94,3.49.32-2-.72-4.62-2.4-7.05C77.49,221.78,73.64,218.63,70.5,218.32Z"/>
      <path class="cls-1" d="M87.16,165.31c-1.68-2.87-5.59-7.92-9.36-4.42s6.35,11.41,9.36,12.24c4.9,1.36,2-4.34.52-6.92Z"/>
      <path class="cls-1" d="M77.39,176.38c-2,3.4,3.23,7.51,5.68,9.5,1.47,1.19,5.78,3.93,6.21.55.14-1.07-.57-2.93-1.71-4.85C86.19,179.27,80.27,171.37,77.39,176.38Z"/>
      <path class="cls-1" d="M71.85,189.83c-1.41,2.74,1.67,5.91,3.59,7.73,1.65,1.55,5.6,5.51,8.19,5s1.79-3.91-.42-7.22C80,190.47,74,185.73,71.85,189.83Z"/>
      <path class="cls-1" d="M79.52,207.38c-1.53-2.79-4-5.53-7.62-5.87a7.56,7.56,0,0,0-1.26,0,2.65,2.65,0,0,0-2.28,1.14c-2.41,4,3.21,9.76,6.25,12,1.47,1.1,4.35,3.66,6.43,3,3.43-1.12.83-6.07-.2-7.93C80.35,208.81,79.88,208,79.52,207.38Z"/>
    </g>
    <g>
      <path class="cls-1" d="M29.13,101.47c-4.5-4.14-6.79-2.72-7.57-1.93s-1.89,2.67,1.23,6.14c.35.39.74.78,1.17,1.18,3.31,3.06,9.38,4.42,9.64,4.47l.92.21-.27-.91C34.18,110.39,32.45,104.52,29.13,101.47Z"/>
      <path class="cls-1" d="M47.09,115.51c1.73-2.45,2.73-5.52.52-7.44-1.68-1.46-4.35.75-5.72,1.63-3.7,2.38-4.67,12.33,1.45,9.35A11.66,11.66,0,0,0,47.09,115.51Z"/>
      <path class="cls-1" d="M56.85,119.44c1.26-5.27-6.6-2.65-8.27-1.36-2,1.51-6.56,7.28-2.45,8.68,1.32.44,4.24-1.07,6.7-2.93C54.86,122.31,56.58,120.55,56.85,119.44Z"/>
      <path class="cls-1" d="M59,127.76c-1-1.09-2.75-1.37-5.05,0s-4.95,4.59-5.1,7.43C48.61,140.64,63.39,132.7,59,127.76Z"/>
      <path class="cls-1" d="M63.21,136.76c-3-2-7.59,1.24-9.64,3-1.59,1.39-5.68,6.62-.94,7.12a11,11,0,0,0,4.65-1.12c1.46-.6,2.87-1.29,3.9-1.66C63.79,143.18,66.76,139.13,63.21,136.76Z"/>
      <path class="cls-1" d="M60.6,153.89c-2.85-.06-6.83,1.79-8.88,3.48-4.49,3.72,1,5.17,5,4,3.08-.9,6.15-2.59,6.68-3.84C64.53,154.79,63.3,153.93,60.6,153.89Z"/>
      <path class="cls-1" d="M70.71,214.34c-4,.54-11.23,9.19-9.91,13,2.77,7.94,16.26-9,12.66-12.48C73,214.36,72.13,214.16,70.71,214.34Z"/>
      <path class="cls-1" d="M64.14,166.32c-2.31-4.95-9.8-.25-12.13,1.5-2.79,2.09-4.38,4.84.7,5.21a13.19,13.19,0,0,0,2.56-.14C59.45,172.32,66,170.27,64.14,166.32Z"/>
      <path class="cls-1" d="M58.26,177.66c-1.67.46-9.34,4.28-7.92,6.66.95,1.57,3.21,1.89,5.68,1.47,4.12-.69,8.83-3.43,9-5.92C65.43,175.63,60.71,177,58.26,177.66Z"/>
      <path class="cls-1" d="M61.14,190.07c-2.88,0-7.71,3.69-9.31,5.75-2.45,3.18-.21,4.93,3.5,4.33a12.88,12.88,0,0,0,2.57-.74C60.83,198.27,69,190.1,61.14,190.07Z"/>
      <path class="cls-1" d="M64.36,202.09c-3.75,1.06-8,4-9.19,7.6-1.77,5.34,4.66,3.45,7.52,1.89l.32-.17c2.57-1.4,6.69-3.75,7.59-6.66C71.93,200.45,67.11,201.32,64.36,202.09Z"/>
      <g>
        <path class="cls-1" d="M41.5,119c-.63-2.17-7.35-3.11-9-3.23-4.64-.37-7.36,3.94-1.76,5.92,2,.72,10.86.3,10.78-2.4A1.35,1.35,0,0,0,41.5,119Z"/>
        <path class="cls-1" d="M33.56,124.3c-4.76,1.15-1.76,3.63,1.41,4.82,3.57,1.34,9.73,2.69,10.68-2.09C46.55,122.53,35.61,123.8,33.56,124.3Z"/>
        <path class="cls-1" d="M48.1,134.67c-1.72-2.33-12.56-3.2-11.7.59s11.15,5.44,12.29,1.49A2.36,2.36,0,0,0,48.1,134.67Z"/>
        <path class="cls-1" d="M48.9,144c-2.43-1.73-11.64-4.22-13.24-.47-2.19,5.16,12.2,6.13,14.68,3.64C51.07,146.39,50.87,145.36,48.9,144Z"/>
        <path class="cls-1" d="M44.14,153.46c-3.65-1.71-8.22-.73-6.16,3.75.5,1.08,2.33,2.27,4.4,3.07,3.39,1.33,7.43,1.62,7.3-1.28C49.58,156.77,46,154.35,44.14,153.46Z"/>
        <path class="cls-1" d="M60.53,228.39c-.69-3.46-9.31-9.94-13-8.22-5.1,2.36,2.86,9,5.61,10.06,2.48,1,7.69,2.74,7.52-1A4.87,4.87,0,0,0,60.53,228.39Z"/>
        <path class="cls-1" d="M43.14,164.48c-2.59-.88-5.27-1-5.33,2.2-.05,2.65,5.07,5.74,8.93,6.39C55.22,174.5,46.68,165.67,43.14,164.48Z"/>
        <path class="cls-1" d="M38.46,176.47c-3.38,1.3-1.85,4.23,1,6.59s7.35,4.33,9.14,3.14a1.73,1.73,0,0,0,.81-1.59C49.26,181.49,41.72,175.19,38.46,176.47Z"/>
        <path class="cls-1" d="M38.67,189.23c-2.52,1.38-1.46,3.89.82,6.07,2.86,2.76,7.65,5,9.58,3.74C52.92,196.52,42.9,186.91,38.67,189.23Z"/>
        <path class="cls-1" d="M41.06,203.13a2.22,2.22,0,0,0-1.6,1.57c-.91,3.84,5.32,7.93,10,9.32,2.62.78,4.76.7,4.86-.76C54.69,208.39,46,201.3,41.06,203.13Z"/>
      </g>
    </g>
    <g>
      <path class="cls-1" d="M150.17,120.12c-.12-2.11-2-2.81-3.64-2.86s-9.82,1.35-8.57,4.67c.91,2.46,9.46,2.44,11.64-.15A2.32,2.32,0,0,0,150.17,120.12Z"/>
      <path class="cls-1" d="M105.12,168.93c-2.65-2.17-5.71-1.79-5.51,1.9.29,5,3.78,9.38,8.17,12,3.42,2,6.37,2.3,4.85-2.39a21.5,21.5,0,0,0-1.51-3.53A27.56,27.56,0,0,0,105.12,168.93Z"/>
      <path class="cls-1" d="M100.06,212.42a9.63,9.63,0,0,0-2.37-7.25c-1.72-1.77-4.24-2.53-5.67-.26-2.73,4.36,1.78,12.9,5.37,16.15,3.08,2.8,3.36-.38,3.14-3.68C100.38,215.26,100,213.09,100.06,212.42Z"/>
      <path class="cls-1" d="M98.1,188.38c-2.52.93-1.6,3.61-.84,5.08a18.85,18.85,0,0,0,4.91,5.94c.9.67,4,3.13,5.38,2.69,3.33-1.09-.17-8.55-4.37-12.07C101.46,188.59,99.64,187.81,98.1,188.38Z"/>
      <path class="cls-1" d="M113.51,146.44c-2.15-2.88-4.53-1.6-5.71,1.33-1.52,3.72.17,7.84,1.88,11.16,1.37,2.67,3.81,7.07,5.49,1.91a20.93,20.93,0,0,0-.1-11.1A10.86,10.86,0,0,0,113.51,146.44Z"/>
      <path class="cls-1" d="M136,128.59a13.86,13.86,0,0,0-7.71-.41c-3.07.69-4.71,2.61-1.13,4.1a12.22,12.22,0,0,0,8.49-.23,3.12,3.12,0,0,0,2-1.65C137.83,129.78,137.4,129.13,136,128.59Z"/>
      <path class="cls-1" d="M126.92,119.91a13.9,13.9,0,0,0-3.23,7c-.49,3.12.68,5.35,3.39,2.57a12.25,12.25,0,0,0,2.94-8,3.22,3.22,0,0,0-.8-2.46C128.7,118.67,127.94,118.82,126.92,119.91Z"/>
      <path class="cls-1" d="M124.35,138.68c-3.48,1.13-6.6,3.2-5.7,5.35,1.33,3.15,8.61,0,10.73-.92,1.75-.75,4.34-2.16,3-4.18C130.84,136.66,126.51,138,124.35,138.68Z"/>
      <path class="cls-1" d="M112.56,181.76c-1.85,2.57,3.73,3.57,5.47,3.75.77.08,1.9.2,3.1.22,2.77.06,6-.38,6.28-2.87C128.07,177.55,114.45,179.13,112.56,181.76Z"/>
      <path class="cls-1" d="M112.59,217.59l-.29-.05c-3.71-.44-9.32,1-11.61,3.49-3.29,3.65,12,4.63,14.38,3.9C122.13,222.74,118.65,218.51,112.59,217.59Z"/>
      <path class="cls-1" d="M123.4,197.9a11.59,11.59,0,0,0-4.15-.83c-3.09,0-12.14,1.54-10.16,5.56,2.16,4.39,11.38,1.82,14.81,1.26,2-.33,3.69-.18,3.29-2.55C126.93,199.74,125,198.53,123.4,197.9Z"/>
      <path class="cls-1" d="M127.26,158.73a7.5,7.5,0,0,0-2.81-.11c-4.5.34-12.32,2.17-11.71,4.66.82,3.36,9.58,3,12,2.38C128.41,164.79,132.43,161,127.26,158.73Z"/>
    </g>
    <path class="cls-1" d="M30.55,179.07a.22.22,0,0,1,0,.08C30.68,177.92,30.62,178.46,30.55,179.07Z"/>
    <path class="cls-1" d="M30.55,179.07a.49.49,0,0,1,0,.12s0,0,0,0A.22.22,0,0,0,30.55,179.07Z"/>
    <path class="cls-1" d="M30.55,179.15s0,0,0,0C30.48,179.82,30.42,180.39,30.55,179.15Z"/>
    <path class="cls-1" d="M47.11,211.85l.68.54Z"/>
    <path class="cls-1" d="M42.51,223.51Z"/>
    <path class="cls-1" d="M30.34,196.16h0C30.43,196.28,30.47,196.35,30.34,196.16Z"/>
    <path class="cls-1" d="M30.34,196.16h0C29.81,195.41,30.17,195.91,30.34,196.16Z"/>
    <g>
      <path class="cls-1" d="M25.82,195.13c-2.3.64-4.8,2.78-4.95,5.13-.07,1.12,0,6.8,2.55,5,2.24-1.6,5.45-3.59,5.84-6.45,0,0,0-.08,0-.12C29.52,196.53,28.51,194.36,25.82,195.13Z"/>
      <path class="cls-1" d="M12.46,208.17a8.74,8.74,0,0,0-3,3.29c-.58,1.3-.3,3,1.29,2.93a9,9,0,0,0,4.34-1.95,29.55,29.55,0,0,0,3.57-3.07c1.25-1.24,2.43-2.56,3.58-3.91l-1.16-.06A13.86,13.86,0,0,0,12.46,208.17Z"/>
      <path class="cls-1" d="M31.07,224.42a5.85,5.85,0,0,0-4-1.06c-2.53.08-5.87,1.08-7.5,3-.81.94-1,2.39.33,3s3.46.39,4.92.08a19.55,19.55,0,0,0,5-2c1.34-.72,2.41-1.16,2.2-1.9A2.59,2.59,0,0,0,31.07,224.42Z"/>
      <path class="cls-1" d="M40.19,213.1c-3-1.69-5.88,4.73-6.47,6.21a15.12,15.12,0,0,0-1,4.64,2.41,2.41,0,0,0,.22,1.62c.51.67,1.66.35,2.24,0,2.09-1.29,4.39-3.18,5.41-5.17S43,214.71,40.19,213.1Z"/>
      <path class="cls-1" d="M42.75,241.67a9.23,9.23,0,0,0-5.63-.89c-2.18.25-4.7,1.13-5.86,2.4-2.39,2.65,2.27,3.73,5.5,3.42A22.26,22.26,0,0,0,43,244.82c1.14-.46,1.58-.93,1.53-1.42S43.79,242.28,42.75,241.67Z"/>
      <path class="cls-1" d="M46.33,233.12a7.36,7.36,0,0,0-1,3.89c-.1,1.45-.68,2.81-.78,4.24-.08,1.16,1.29,1.57,2.34.91A11.9,11.9,0,0,0,50,238.79c1.57-2.16,4.32-5.48,2.78-8.16C51.33,228.11,47.12,232,46.33,233.12Z"/>
      <path class="cls-1" d="M46.14,224.1s0,0,0,0c-1.83-2.71-4.64.76-5.71,2.11a12,12,0,0,0-2.44,5.5c-.2,1-.82,2.62.13,3.49,2.19,2,5.24-2.22,6.32-3.57C46,229.65,47.92,226.75,46.14,224.1Z"/>
      <path class="cls-1" d="M30.89,232.73c-2.43-.57-5.38-.67-6.74,1.56-1.69,2.77,3.38,4.07,5.46,4.38,1.62.24,9.63.09,7.47-3.13C35.89,233.79,32.9,233.2,30.89,232.73Z"/>
      <path class="cls-1" d="M37.31,204.71c-1.84-2.71-4.68.39-5.9,1.73a11.48,11.48,0,0,0-2.61,5.15c-.25,1.1-1,3,0,4,2.28,2.1,5.57-2.05,6.79-3.46C37.31,210.16,39.12,207.37,37.31,204.71Z"/>
      <path class="cls-1" d="M28.19,215.78c-1.72-1.53-5.15-1.39-7.42-1.39-2.52,0-6,.66-6.51,3.38s4.8,2.85,6.74,2.73c1.61-.11,10.23-2,7.19-4.72Z"/>
      <path class="cls-1" d="M8.5,197.26a9,9,0,0,0-4.17,1.22c-1,.65-2.26,2-1.76,3.19.76,1.87,4.74,1.75,6.52,1.6,1.56-.13,7.92-1.29,6.38-3.86h0C14.32,197.47,10.65,197.1,8.5,197.26Z"/>
    </g>
    <path class="cls-1" d="M166.15,215.36Z"/>
    <path class="cls-1" d="M149.8,216c2.61,2.17-.27-.23,0,0Z"/>
    <path class="cls-1" d="M68.26,73.38c-.19-.13-.44-.19-.56-.39s.06,0,.09-.06a18.37,18.37,0,0,1,4.95,2.28c12.6,7.73,20.58,21.43,23.67,35.68,3.68,16.48,1.28,33.51-2.26,49.77-3.2,16.28-6.24,32.61-8,49.06-1.27,15-3.32,34.67,5.46,47.53l-2.55.58c4-19.08,11.22-37.11,18.33-55.14,4.2-12.12,5.71-24.94,7-37.68,1.47-12.55,2.14-26.77,11-36.66,4.42-4.83,10.61-7.57,16.9-9-6.17,1.64-12.18,4.58-16.42,9.43-8.49,10-8.59,23.92-9.88,36.37-.55,6.42-1.1,12.86-2.07,19.27a118.4,118.4,0,0,1-4.35,19c-7.08,19-14.74,38.08-18.36,58.13l-1.91-2.64c-5.09-7.09-6.64-15.92-7.11-24.39-.69-25.13,4.69-49.89,9.54-74.35,5.86-23.56,8.26-50.61-6.08-71.68a50,50,0,0,0-8.15-9.28c-2.92-2.47-6-5-9.72-6.25-.08,0-.07.05,0,.09a2.56,2.56,0,0,0,.48.33Z"/>
    <path class="cls-1" d="M5,200c9.24-3.22,18.39,3.84,22.73,11.63a62.05,62.05,0,0,1,5.48,12.62,35,35,0,0,0,6.37,11.46c8.66,10.26,21.71,15.68,34.52,18.76a94.66,94.66,0,0,0,13.17,2.17l-.94,2.57c-23.82-16.87-36.52-45.78-37.84-74.43a134.62,134.62,0,0,1,.61-21.44c.42-3.57.83-7,.93-10.52.3-10.49-1.8-21.16-7.06-30.35A46.29,46.29,0,0,0,28.84,107c12.3,7.42,20.07,21.09,22.23,35.14,1.18,7.05.82,14.39.08,21.42a137.5,137.5,0,0,0-.09,21.09C53.17,215.33,66.3,242.55,92.13,260c-19.43-1.5-41.4-7.22-54.29-22.82a36.85,36.85,0,0,1-6.56-12.27,61,61,0,0,0-4.91-12.45c-4-7.8-12.06-14.82-21.35-12.42Z"/>
    <path class="cls-1" d="M177.12,234.06c-12,14.19-33.81-2.95-48.83-.6a50.23,50.23,0,0,0-10.63,2.14c-8.34,2.69-16.34,7.1-22.33,13.55a26.74,26.74,0,0,0-5,7.65,20.09,20.09,0,0,1-1.7,2.79c-.74-2.31.1-4.59,1.11-6.55a29.85,29.85,0,0,1,1.69-2.89c8.28-11.81,22.49-18.51,36.68-19.68A38.61,38.61,0,0,1,141.21,232c11.4,2.8,25.73,11.9,35.91,2.05Z"/>
    <g>
      <path class="cls-1" d="M167.87,247.58c.15-1.28-.82-2.5-1.55-3.52a15.58,15.58,0,0,0-3.56-3.73,15.74,15.74,0,0,0-4.59-2.36c-1.67-.44-2.21,1.3-1.8,2.67.73,2.45,2.8,5,4.62,6.79a7.27,7.27,0,0,0,3.14,2c1.44.38,3.2.05,3.65-1.4A1.93,1.93,0,0,0,167.87,247.58Z"/>
      <path class="cls-1" d="M148.63,237.79a13.32,13.32,0,0,0-3.5-2.36c-.28-.13-2.8-1.06-2.83-.63a10.7,10.7,0,0,0,1.78,6.49c1.06,1.66,3.74,4.3,5.58,2.21S150.36,239.44,148.63,237.79Z"/>
      <path class="cls-1" d="M124.68,236.58a16.47,16.47,0,0,0-9.17-1.43c-1.51.24-1.63,1.75-.73,2.78a11.18,11.18,0,0,0,3.61,2.44c2.45,1.21,5.77,2.89,8.52,1.76,1.14-.47,2.29-1.54,1.64-2.8S126,237.22,124.68,236.58Z"/>
      <path class="cls-1" d="M137,236.08a14.55,14.55,0,0,0-7.74-3.71c-1.42-.12-1.75,1.31-1.27,2.37a10.14,10.14,0,0,0,2.42,3c1.82,1.73,4.26,4.07,7,3.79,1.17-.12,2.44-.78,2.18-2.09S138,237,137,236.08Z"/>
      <path class="cls-1" d="M112.11,240.91a14.79,14.79,0,0,0-5.25-.4c-1.17.13-3.52.19-4.25,1.14-1.85,2.36,4.31,3.91,5.82,4.3,2.32.59,5.59,1.37,7.54-.27C119,243.11,114.33,241.47,112.11,240.91Z"/>
      <path class="cls-1" d="M176.82,227.56a4.45,4.45,0,0,0-3.28,2.21,12.11,12.11,0,0,0-2,8.58,11,11,0,0,0,5.56-2.85c1.53-1.38,3.53-3.75,2.95-5.95A2.87,2.87,0,0,0,176.82,227.56Z"/>
      <path class="cls-1" d="M150.78,224.15a3,3,0,0,0-.34-.43c-1.67-1.87-4.08.05-5.41,1.09a9.57,9.57,0,0,0-3.05,4.55c-.38,1-1.15,2.45-.14,3.43,2,1.92,5.21-1,6.6-2.2C150.06,229.23,152.36,226.51,150.78,224.15Z"/>
      <path class="cls-1" d="M164.51,229c-1.45-2.36-4-.17-5.24.94a8.8,8.8,0,0,0-2.46,3.94c-.3,1-1.06,2.56-.11,3.46,1.89,1.81,4.78-1.13,6-2.29C164.29,233.56,166,231.34,164.51,229Z"/>
      <path class="cls-1" d="M135.79,223.9c.1-1.17-.3-2.89-1.47-3.45s-2.65.5-3.53,1.26a11.44,11.44,0,0,0-4,7.56,1.81,1.81,0,0,0,2.18,1.82,7,7,0,0,0,3.36-2C133.83,227.75,135.6,226.15,135.79,223.9Z"/>
      <path class="cls-1" d="M102.4,226.76c-1-1.23-3.17-2.61-4.87-2-2,.71-2.11,3.52-2.15,5.23a15.41,15.41,0,0,0,.94,6,16.06,16.06,0,0,0,3.31,5.7c1.52,1.41,3.36-.06,3.94-1.44a12.82,12.82,0,0,0,.77-4.76C104.39,232.59,104.46,229.21,102.4,226.76Z"/>
      <path class="cls-1" d="M121.23,223.51c-.36-1.37-1.62-3.08-3.19-3.09s-2.78,1.8-3.52,3a13.42,13.42,0,0,0-1.67,9.82c.43,1.74,2.4,1.7,3.56.88a10.53,10.53,0,0,0,2.78-3.46C120.38,228.62,121.89,226.1,121.23,223.51Z"/>
    </g>
  </g>
  <g>
    <g>
      <g>
        <path class="cls-2" d="M202.79,65.78c4.91-.7,7.88.72,8.07,3.66a4.22,4.22,0,0,1-.83,2.81c-1.15,1.59-3.38,2.62-6.62,3.09a17,17,0,0,1-6.67-.62,30.58,30.58,0,0,1-5.16-1.91l-.91-.46.84-.7C191.76,71.44,197.6,66.53,202.79,65.78Z"/>
        <path class="cls-2" d="M182.82,59.27a4.11,4.11,0,0,1,1.44-.35,3.57,3.57,0,0,1,3,1.18c1.46,1.63,1.45,3.81,1.11,5.72-.47,2.6-1.41,10.22-5,9.58C178.65,74.57,179,61,182.82,59.27Z"/>
        <path class="cls-2" d="M175.08,66.18c2.37,1.37,2.23,5,2,7.65-.21,2-2.61,10-4.71,10.24-.59.07-1.15-.45-1.64-1.86-1.18-3.41-1.87-11.68-.15-15C171.54,65.34,173.36,65.18,175.08,66.18Z"/>
        <path class="cls-2" d="M166.46,84.2a36.18,36.18,0,0,1,.62,4.87c.11,2.74-.4,5.24-3.07,3.94-2.5-1.22-3.81-5.64-4.94-8.15-1-2.2-2-5.86-.21-7.86C162.36,73,165.9,81,166.46,84.2Z"/>
        <path class="cls-2" d="M158.51,95.86a17.85,17.85,0,0,1,2.88,9.47c0,.43,0,1,0,1.55-.41,5.46-3.51,3.7-5.83,1.08s-5.47-7.84-3.63-12C153.24,92.88,157,93.66,158.51,95.86Z"/>
        <path class="cls-2" d="M155.69,115.49l.14.18c1.9,2.44,5.49,9.13,3.13,12.18-3.87,5-12.44-9.57-11-13.64C149.52,109.74,154.1,113.54,155.69,115.49Z"/>
        <path class="cls-2" d="M121.81,194.6c4.7,1.92,10.58,13.56,10.5,16.8-.15,6.11-6.94.94-8.7-.63-3.17-2.82-8.69-8.88-5.7-14.49C118.94,194.36,120.32,194,121.81,194.6Z"/>
        <path class="cls-2" d="M145.71,128.83a2.28,2.28,0,0,1,2,.07c2,.88,4.16,3.71,4.86,5.19,1,2.16,5.63,13.3-.24,11-1.85-.71-3.36-2.88-4.66-4.41C146.09,138.83,141.68,130.84,145.71,128.83Z"/>
        <path class="cls-2" d="M142.8,148.28a10.78,10.78,0,0,1,4.26,2.66c1.95,2.12,7.21,8.09,4,11.7-1.87,2.09-6.09-1.34-7.16-2.86-1.69-2.37-3.78-4-4.65-7.12C138,148.09,140.25,147.45,142.8,148.28Z"/>
        <path class="cls-2" d="M139,164.84a3.86,3.86,0,0,1,1.24.64c2,1.57,2.63,4.4,3.85,6.65.84,1.55,4.65,9.31.22,9.84-2.11.25-4.83-4-5.85-5.54-1.36-2.09-4-5.09-3.81-8S137,164.24,139,164.84Z"/>
        <path class="cls-2" d="M130.36,181.46a4.45,4.45,0,0,1,2.07.43c4,1.84,6.35,9.1,7.62,12.56.58,1.6,1.79,4.29.08,5.9-3.26,3.07-6.59-1.72-8.11-3.93C130.64,194.41,122.37,181.79,130.36,181.46Z"/>
      </g>
      <g>
        <path class="cls-2" d="M185.4,74.11c3.7-.4,11,2.08,12,6.39a3,3,0,0,1-.29,2.14c-2,3.67-5.25,2.83-8.35.63C186.73,81.84,178.42,74.86,185.4,74.11Z"/>
        <path class="cls-2" d="M182.15,82.85c2.08.9,3.37,2.08,3.83,3.52a4,4,0,0,1-.18,2.85c-3.29,7.69-15.84-3.77-11.9-6.54C176,81.23,180.16,82,182.15,82.85Z"/>
        <path class="cls-2" d="M168.8,92.2a10.77,10.77,0,0,1,8,1.5c.41.31,4,3.08,2.45,5.81-.79,1.38-2.69,2.62-7.29.79l-.09,0C169.28,99.2,162.67,93.56,168.8,92.2Z"/>
        <path class="cls-2" d="M163,108.41a15,15,0,0,1,9.08-.85c.59.16,5.72,1.66,5.2,5-.72,4.56-7,3.95-9.62,3.3S156.66,111.17,163,108.41Z"/>
        <path class="cls-2" d="M173.38,123a4.09,4.09,0,0,1-.49,2.85c-.88,1.54-2.68,2.73-5.36,3.55-2.28.7-7.85,1.35-9.48-.72a2,2,0,0,1-.47-1.2c-.06-1.74,2.36-3.37,3.71-4.3C164.33,121,172.25,117.15,173.38,123Z"/>
        <path class="cls-2" d="M149.86,202.33a5.36,5.36,0,0,1,1.9,1.34,2.89,2.89,0,0,1,.81,2.55c-.75,4.35-4.88,6.42-8.32,7.44-2.22.66-14,4.08-11.92-1.86.82-2.29,3.09-4.6,5.82-6.41C142.12,202.75,147.06,201.19,149.86,202.33Z"/>
        <path class="cls-2" d="M160.84,137.35c3-2.29,9-5.86,10.25-.35s-11.47,9.23-14.45,8.71c-4.85-.84.66-5.58,3.28-7.65Z"/>
        <path class="cls-2" d="M167,156.17c-.18,4.56-6.76,6.52-9.89,7.49-1.88.59-7,1.51-5.52-2.32.46-1.2,2.06-2.86,4.05-4.38C158.07,155.14,167.3,149.45,167,156.17Z"/>
        <path class="cls-2" d="M163.94,175.18c-.28,3.59-4.58,5.54-7.17,6.58-2.22.89-7.67,3.27-9.56,1.48s.6-5,4.23-7.54C156.73,172,164.36,169.8,163.94,175.18Z"/>
        <path class="cls-2" d="M145.51,192c2.79-2.27,6.37-4,9.56-2.71a6.22,6.22,0,0,1,1.08.57,2.61,2.61,0,0,1,1.31,2.29c-.12,5.4-8,8.94-11.72,9.93-1.83.48-5.62,1.87-7,.16-2.27-2.81,2.57-6.88,4.45-8.4Z"/>
      </g>
    </g>
    <g>
      <g>
        <path class="cls-2" d="M257.86,157.36c4.45,3.85,3.06,6.74,2.25,7.8s-2.71,2.78-6.43.27a13.09,13.09,0,0,1-1.26-1c-3.3-2.84-4.9-9.14-5-9.41l-.24-.95,1,0C248.41,154.15,254.58,154.5,257.86,157.36Z"/>
        <path class="cls-2" d="M246.5,144.52c3-1.52,6.39-2.11,7.46.68.82,2.13-2.32,4.74-3.67,6.11-3.66,3.74-13.73,3.12-8.6-3.2A15.94,15.94,0,0,1,246.5,144.52Z"/>
        <path class="cls-2" d="M239,143.37c5.2,1.18-1.84,8-3.95,9.13-2.49,1.32-10.16,3.32-8.79-1.56.43-1.55,3.5-3.85,6.58-5.51C235.4,144.07,237.94,143.13,239,143.37Z"/>
        <path class="cls-2" d="M223.3,143.52c1.16.76,1.52,2.66.17,5.54s-4.6,6.66-7.55,7.58C210.25,158.4,218,140.05,223.3,143.52Z"/>
        <path class="cls-2" d="M211.78,144.46c2.64,2.26.2,8.47-1.23,11.38-1.11,2.26-5.66,8.78-7.09,4.06-.39-1.27-.14-3.31.24-5.34.33-1.78.75-3.55.93-4.79C205.09,146.64,208.66,141.79,211.78,144.46Z"/>
        <path class="cls-2" d="M199.35,154.18c.51,3-.76,7.94-2.18,10.78-3.1,6.21-5.48,1-4.92-3.68.43-3.62,1.68-7.55,2.89-8.6C197.79,150.37,198.87,151.34,199.35,154.18Z"/>
        <path class="cls-2" d="M137,202.92c.68,0,1.36.51,2,1.76,1.91,3.59-1.27,16.28-5.3,18.33C125.28,227.31,131.85,203,137,202.92Z"/>
        <path class="cls-2" d="M186,159c5.48.43,1.89,10.23.48,13.39-1.68,3.79-4.26,6.58-5.48,1.37a14.18,14.18,0,0,1-.27-2.76C180.62,166.35,181.65,158.65,186,159Z"/>
        <path class="cls-2" d="M176.57,176c-.14,1.94-2.58,11.6-5.29,11.14-1.78-.31-2.55-2.53-2.6-5.3-.09-4.6,1.81-10.7,4.31-12C177.27,167.67,176.78,173.2,176.57,176Z"/>
        <path class="cls-2" d="M163.45,182.8c1.71,2.24,1.37,9,.54,12-1.27,4.51-4.1,4.19-5.78.79a12.24,12.24,0,0,1-.88-2.61C156.59,189.72,158.81,176.7,163.45,182.8Z"/>
        <path class="cls-2" d="M153,194.77c1.31,3.81,1.3,9.47-1.11,13.38-3.54,5.75-5.7-.83-6.05-4.34l0-.39c-.31-3.16-.72-8.29,1.25-11.37C149.91,187.52,152,192,153,194.77Z"/>
      </g>
      <g>
        <path class="cls-2" d="M241.91,152.72c2.35-.5,5.18,5.75,5.77,7.32,1.67,4.46-1.89,9.43-5.45,4.84-1.29-1.67-3.36-10.73-.62-12A1.21,1.21,0,0,1,241.91,152.72Z"/>
        <path class="cls-2" d="M235.26,163.18c.64,5.22-2.88,3.88-5.22,1.58-2.63-2.58-6.22-7.63-1.91-11.45C232.18,149.73,235,160.92,235.26,163.18Z"/>
        <path class="cls-2" d="M219.3,156.94c2.91.17,7.92,9.87,3.92,11.41s-9.54-7.15-6.16-10.67A2.72,2.72,0,0,1,219.3,156.94Z"/>
        <path class="cls-2" d="M208.28,160.9c2.83.72,9.91,6.57,7.38,10.74-3.48,5.75-11.92-5.59-11-9.55C204.94,160.93,206,160.31,208.28,160.9Z"/>
        <path class="cls-2" d="M203.08,167.43c3.61,1.46,5.47,5.84.4,7.87-1.21.49-3.32,0-5.23-.94-3.13-1.58-5.77-4.49-3.2-6.75C197,165.87,201.2,166.66,203.08,167.43Z"/>
        <path class="cls-2" d="M134.9,222.38c3.38-2.28,14-.82,14.74,3.51,1,5.91-9.39,5.06-11.95,3.8-2.3-1.13-6.88-3.8-3.52-6.75A8.12,8.12,0,0,1,134.9,222.38Z"/>
        <path class="cls-2" d="M194.45,174.89c2.28,1.31,4,3.32,1.25,6-2.25,2.2-7.92.71-10.75-1.79C178.72,173.6,191.34,173.1,194.45,174.89Z"/>
        <path class="cls-2" d="M187.21,187.92c.86,3.71-2.54,4.9-6.25,4.6-3.86-.31-8.05-2.23-8.09-4.6a2.46,2.46,0,0,1,.9-1.93C176.54,183.56,186.38,184.32,187.21,187.92Z"/>
        <path class="cls-2" d="M176.69,200.07c.3,3.09-2.49,4.31-5.7,4.31-4.06,0-8.79-1.92-8.85-4.46C162,194.85,176.18,194.87,176.69,200.07Z"/>
        <path class="cls-2" d="M165.62,213.18a2.91,2.91,0,0,1-.4,2.53c-2.76,3.84-9.95,2.3-13.9-.23-2.22-1.42-3.41-3.16-2.22-4.43C153.07,206.8,164.27,207.82,165.62,213.18Z"/>
      </g>
    </g>
    <g>
      <g>
        <path class="cls-2" d="M142.94,98.65c1.49,1.38.64,3.64-.48,5.2s-8.11,8.58-9.7,5.39c-1.18-2.35,5-10.52,8.51-11A1.91,1.91,0,0,1,142.94,98.65Z"/>
        <path class="cls-2" d="M137.22,153.08c2.67-2.63,5.88-5.52,9.18-7.14,3.46-1.69,6.17-.47,4.35,3.53-2.48,5.42-7.73,9.32-13,11-4.12,1.31-7,.86-3.52-3.9A34.24,34.24,0,0,1,137.22,153.08Z"/>
        <path class="cls-2" d="M120.47,186.43c2.06-2.13,4.84-4,7.62-4.05,2.53-.09,4.67,1.26,3.56,4.23-2.13,5.69-12.12,9.12-17,9-4.21-.13-1.64-2.95,1.33-5.46C117.84,188.5,119.91,187,120.47,186.43Z"/>
        <path class="cls-2" d="M144.46,175.39c.81,2.47-2.41,3.54-4.34,3.94a26.46,26.46,0,0,1-9.08.26c-1.27-.21-5.78-.93-6.25-2.18-1.21-3.16,8.39-5.45,14.65-4.66C142,173.07,144,173.9,144.46,175.39Z"/>
        <path class="cls-2" d="M147,115.28c3.53-2.06,4.83.3,4.13,3.87-.9,4.54-4.76,8.1-8.19,10.82-2.75,2.19-7.43,5.71-5.84-.39a30.86,30.86,0,0,1,6.61-11.53A15,15,0,0,1,147,115.28Z"/>
      </g>
      <g>
        <path class="cls-2" d="M119.65,80.06a10.8,10.8,0,0,1,5.71,4.76c1.61,2.68,1.27,5.51-2.38,4.49-2.58-.72-4.79-3.33-5.76-5.86a3.65,3.65,0,0,1-.12-2.83C117.47,79.94,118.27,79.64,119.65,80.06Z"/>
        <path class="cls-2" d="M129.38,103.88c3.15,1.6,5.66,4.22,4.12,6.55-2.26,3.43-8.61-.82-10.45-2-1.53-1-3.69-2.83-1.74-5C123.49,101,127.44,102.89,129.38,103.88Z"/>
        <path class="cls-2" d="M134,157.8c-1.12,3.54-5.26,0-6.45-1.23a29.08,29.08,0,0,1-2-2.25c-1.68-2.12-3.18-5-1.23-7.24C128.47,142.23,135.14,154.17,134,157.8Z"/>
        <path class="cls-2" d="M109.7,180.34l.21.19c2.57,2.54,4.67,8.07,3.84,11.93-1.19,5.55-11-5.64-11.82-8.08C99.65,177.07,105.34,176.35,109.7,180.34Z"/>
        <path class="cls-2" d="M118,163.87a9.26,9.26,0,0,1,3.3,2.7c1.91,2.53,6,11.36,1.14,13.25-5.33,2.07-8.64-7.79-10.22-11.12-.93-1.94-2.1-3.2.31-4.95C114.13,162.57,116.42,163.11,118,163.87Z"/>
        <path class="cls-2" d="M129.87,120.09a6.08,6.08,0,0,1,2.14,1.67c3,3.16,7.34,9.8,5,11.76-3.1,2.64-9.19-3.27-10.52-5.34C124.52,125.05,124.46,118.92,129.87,120.09Z"/>
      </g>
    </g>
    <g>
      <path class="cls-2" d="M194.51,210.66c.75,2.35.3,6.06-1.66,8.05-.94.95-5.95,5.42-5.81,1.93.12-3,0-7.16,2.25-9.77l.2-.22C191.23,208.79,193.65,207.93,194.51,210.66Z"/>
      <path class="cls-2" d="M189.49,210.65l-.13.13C190.31,209.73,190,210.13,189.49,210.65Z"/>
      <path class="cls-2" d="M189.36,210.78l-.07.09C188.81,211.41,188.4,211.88,189.36,210.78Z"/>
      <path class="cls-2" d="M189.49,210.65l-.2.22.07-.09Z"/>
      <path class="cls-2" d="M195.35,227.12a8,8,0,0,1,1.63,4.26c.06,1.56-.86,3.4-2.38,3s-2.58-1.81-3.44-3a25.2,25.2,0,0,1-2.26-4.13c-.72-1.62-1.35-3.33-1.94-5.07l1.15.18A10.72,10.72,0,0,1,195.35,227.12Z"/>
      <path class="cls-2" d="M162.55,227.67a4.8,4.8,0,0,1,3.86,1.11c2,1.45,3.93,4.25,3.93,7,0,1.37-.84,2.9-2.31,2.82s-3-1.5-3.95-2.6a16.81,16.81,0,0,1-2.63-4.73c-.58-1.44-1.14-2.47-.46-3.08A2.87,2.87,0,0,1,162.55,227.67Z"/>
      <path class="cls-2" d="M168.06,211.64c3.27.79-.26,8.39-1.13,10.1a23,23,0,0,1-3.27,4.64c-.39.44-.88,1.08-1.49,1.21-.87.18-1.33-1-1.39-1.67a19,19,0,0,1,.92-8.42C162.72,215.08,165,210.88,168.06,211.64Z"/>
      <path class="cls-2" d="M130.43,232.78a7.46,7.46,0,0,1,5.23,1.84c1.65,1.31,3.19,3.44,3.34,5.3.32,3.86-4.23,2.69-6.71.8a18,18,0,0,1-4-4.84c-.66-1-.73-1.72-.37-2.2A3.7,3.7,0,0,1,130.43,232.78Z"/>
      <path class="cls-2" d="M150.66,224.38l.87.1h0l-.85-.1Z"/>
      <path class="cls-2" d="M154.33,216.9h0c3.26.38.61,5-.42,6.81a17.59,17.59,0,0,1-4.78,5.37c-.91.72-2.37,2.21-3.52,1.72-2.63-1.11.68-6.4,1.71-8.19C148.84,220,151.16,216.55,154.33,216.9Z"/>
      <path class="cls-2" d="M151.83,233.44c1.92,1.43,3.74,3.67,2.63,6.55-1.38,3.57-5.48.67-7-.7-1.17-1.08-5.76-7.47-1.72-8.4C148,230.39,150.24,232.25,151.83,233.44Z"/>
      <path class="cls-2" d="M144.21,237.59Z"/>
      <path class="cls-2" d="M181.86,211.43c3.24.44.94,4.89-.07,6.82a16.63,16.63,0,0,1-4.42,5.29c-1,.83-2.72,2.59-4,2-2.75-1.19.48-6.65,1.55-8.61C176.4,214.27,178.69,211,181.86,211.43Z"/>
      <path class="cls-2" d="M175.31,224.72Z"/>
      <path class="cls-2" d="M181.56,227.76c1.93,1.46,4.13,4.08,2.62,7s-5.68,0-7.09-1.26c-1.17-1-6.45-7.86-2.21-8.73C177.29,224.31,179.83,226.44,181.56,227.76Z"/>
      <path class="cls-2" d="M175.31,224.72l-.43.09Z"/>
      <path class="cls-2" d="M196.19,221.78h0C197.09,220.89,196.4,221.57,196.19,221.78Z"/>
      <path class="cls-2" d="M196.18,221.78h0C196.12,221.85,196.1,221.87,196.18,221.78Z"/>
      <path class="cls-2" d="M196.19,221.78c1.91-1.88,5.57-1.47,7.56-.81a6.91,6.91,0,0,1,3.49,2.3c.71.95,1.34,2.71.37,3.93-1.5,1.9-5.25.86-6.91.3-1.43-.5-7-3.22-4.52-5.71Z"/>
      <polygon class="cls-2" points="196.19 221.78 196.19 221.78 196.18 221.79 196.19 221.78"/>
      <path class="cls-2" d="M135.75,225a10.8,10.8,0,0,1-2.74,4c-1.18,1.26-2,2.82-3.19,4.07-.95,1-2.1.27-2.16-1.1a15.9,15.9,0,0,1,1.06-5.19c.93-3,2.16-7.85,5.37-8.82C137.11,217,136.22,223.5,135.75,225Z"/>
    </g>
    <g>
      <g>
        <path class="cls-2" d="M75.05,115.73c1.35-.45,2.61.35,3.67.93a12.07,12.07,0,0,1,3.86,3.1A13.92,13.92,0,0,1,85,124.32c.45,1.75-1.37,2.74-2.79,2.59-2.55-.25-5.19-2-7.06-3.6a6.06,6.06,0,0,1-2-3c-.39-1.51,0-3.54,1.49-4.36A2.8,2.8,0,0,1,75.05,115.73Z"/>
        <path class="cls-2" d="M83.48,132.89a10.64,10.64,0,0,1,3.86,1.4c.25.15,2.31,1.7,1.93,2a12.76,12.76,0,0,1-6.85,3.06c-2,.26-5.77-.21-4.72-3.32C78.68,133.17,81.13,132.56,83.48,132.89Z"/>
        <path class="cls-2" d="M85.63,156.44a13,13,0,0,1,6.64,6c.68,1.38-.55,2.69-2,2.84a9.43,9.43,0,0,1-4.22-.84c-2.5-.94-5.89-2.17-6.54-5.23-.27-1.28,0-3.05,1.45-3.57S84.3,155.91,85.63,156.44Z"/>
        <path class="cls-2" d="M75.27,181A17.75,17.75,0,0,1,82,190.18c.5,1.37,1,3.54-1.12,4.09-1.89.49-3.86-1.05-5.16-2.06-2.15-1.67-4.6-3.57-5.59-6.33a5.66,5.66,0,0,1,.42-4.86C71.83,179.11,74,180.2,75.27,181Z"/>
        <path class="cls-2" d="M85.29,143.73A11.27,11.27,0,0,1,92,148.58c.7,1.24-.55,2.47-1.76,2.69a8.91,8.91,0,0,1-3.82-.35c-2.4-.59-5.63-1.37-6.46-4.1-.35-1.16-.23-2.78,1.13-3.36S84,143.39,85.29,143.73Z"/>
        <path class="cls-2" d="M83.8,170.89a11.6,11.6,0,0,1,3.44,3.79c.58,1,1.9,2.9,1.52,4.25-.94,3.37-5.89-.19-7.11-1.05-1.89-1.34-4.48-3.26-4.21-6.12C77.86,167.3,82,169.6,83.8,170.89Z"/>
      </g>
      <path class="cls-2" d="M70.24,196.32a19.48,19.48,0,0,1,4.66,5.08,19.73,19.73,0,0,1,2.79,7.08c.29,2.21-2,2.93-3.64,2.5-3.39-.92-6.59-4-8.9-6.58a10.13,10.13,0,0,1-2.6-4.56c-.38-1.78.06-4.87,2.18-5.62S68.88,195.23,70.24,196.32Z"/>
      <g>
        <path class="cls-2" d="M110.37,124.49Z"/>
        <path class="cls-2" d="M91.88,122.54a2.49,2.49,0,0,1,3.58.88c.79,1.21.53,2.92,0,4.36a17.92,17.92,0,0,1-6.17,8.59,11.87,11.87,0,0,1-.83-6.67c.29-2.32,1.14-5.82,3.38-7.15Z"/>
        <path class="cls-2" d="M110.37,124.49Z"/>
        <polygon class="cls-2" points="110.37 124.49 110.37 124.49 110.37 124.5 110.37 124.49"/>
        <path class="cls-2" d="M102.62,153.79a2.66,2.66,0,0,1,.45.29c1.91,1.48-.3,4.43-1.5,6a14,14,0,0,1-5.08,4.11c-1.1.58-2.71,1.67-3.7.76-1.94-1.78,1.44-5.83,2.77-7.53C97.12,155.47,100.18,152.51,102.62,153.79Z"/>
        <path class="cls-2" d="M96.82,189.68c1.23.82,2.34,2.59,1.47,4s-3.43,1.86-5.13,2.07c-3.86.46-8.13-.09-11.23-2.09-1.58-1-.45-2.8,1.06-3.54a15.53,15.53,0,0,1,5.18-1.24C91,188.56,94.47,188.13,96.82,189.68Z"/>
        <path class="cls-2" d="M119.42,137.84Z"/>
        <path class="cls-2" d="M119.42,137.84h0C119.16,137.82,116.32,137.59,119.42,137.84Z"/>
        <path class="cls-2" d="M99.4,137.63h0c2.78.22,1.32,3.94.56,5.74a13.21,13.21,0,0,1-3.24,4.54c-.88.8-2.26,2.4-3.44,1.92-2.35-.94-.24-5.38.57-7.2C94.91,140.24,96.65,137.41,99.4,137.63Z"/>
        <polygon class="cls-2" points="119.42 137.84 119.42 137.84 119.41 137.84 119.42 137.84"/>
        <path class="cls-2" d="M100.63,177.17c1,.66,2.09,2.05,1.53,3.28s-2.68,1.66-4.07,1.84c-3.23.41-7,0-9.59-1.78-1.06-.72-.68-2.08.39-2.78a10.48,10.48,0,0,1,4.53-1.25C95.82,176.2,98.64,175.89,100.63,177.17Z"/>
        <path class="cls-2" d="M95.39,203c1.58.56,3.54,2.13,3.19,4-.43,2.22-3.59,3.27-5.51,3.91a20.87,20.87,0,0,1-7,1.23c-2.19,0-5.19-.2-7-1.17s-.55-3.25.9-4.29a19.22,19.22,0,0,1,5.24-2.43C88.43,203.15,92.24,201.89,95.39,203Z"/>
      </g>
    </g>
    <g>
      <path class="cls-2" d="M197.24,71.86c-32.86,2.64-34.84,36.54-39.41,62.32-2.79,18-5.91,36.21-12.29,53.43a118.77,118.77,0,0,1-51.41,63l-1.29-2.06a125.23,125.23,0,0,0,21.52-16.35c13.1-12.57,22.74-28.38,29.08-45.34s9.72-35,12.68-52.94c3.5-18.39,5.77-44,21.86-55.91,5.56-4,12.45-5.86,19.24-6.33l0,.2Z"/>
      <path class="cls-2" d="M250.92,155.33c-3.28-1.37-7.5-1.76-11.25-1.83a64.26,64.26,0,0,0-22.87,4.08c-18.5,6.47-33.69,19.68-46.63,34.06a325.57,325.57,0,0,1-54.1,46.79,171.36,171.36,0,0,1-19.36,11.7,5.27,5.27,0,0,1-2.64.71,2.59,2.59,0,0,1-1.32-.53l-5.55-4.48c8,.14,16.54.35,24.43-.94,17.47-2.51,33.92-9.58,50-16.56,9.56-3,31.75-10.22,40.56-5.1l-.16.25c-3-1.72-6.65-1.57-10-1.38-10.27,1-20.25,4.07-29.95,7.48-5.27,2.51-10.73,5.06-16.17,7.35-16.31,7-33.75,12.23-51.68,11.72l.17-.47c-.12-.07-.1,0-.09,0s.19,0,.21,0a80.31,80.31,0,0,0,10-5.53,302.12,302.12,0,0,0,28.87-20.68,352.27,352.27,0,0,0,34.85-32c15.75-17.41,35.83-32.84,59.6-36.5,7.52-1,15.6-1.32,22.76,1.53a1.82,1.82,0,0,1,.51.36.35.35,0,0,1,.06.19.23.23,0,0,1-.14.19l-.13-.27Z"/>
      <path class="cls-2" d="M121.1,82.3l-.12-.11s-.08,0,0,0c.34-.24.09-.15.17-.18v0l.18.28c.18.29,1,1.41,1.2,1.74,19.5,28.49,22.12,65.13,2.4,94.27-1.76,2.82-4.66,6.5-6.64,9.22-8.54,11.84-16.24,24.61-19.21,39-1.88,7.83-.42,16.06-2.77,23.9l-1.33.36a4.32,4.32,0,0,1-2.51-.07c-2.94-1-5-3.49-6.73-5.78a40.7,40.7,0,0,1-4.45-7.84c-4.7-10.87-5.38-23.13-3-34.59a89.39,89.39,0,0,1,9.08-24.15,53.23,53.23,0,0,0,4.73-24A67.1,67.1,0,0,0,87,129.92a19.91,19.91,0,0,0-3.17-5.35c-.46-.46-1.06-1-1.64-.8l-.12-.28c2.29-.52,4.57,4.48,5.48,6.17,5.79,12.84,7.63,27.73,4.32,41.49-1.23,5.56-4.19,10.49-6.38,15.68-7.6,17.78-9.21,40.11,2.45,56.49a17,17,0,0,0,4.44,4.34,2.68,2.68,0,0,0,1.79.47l-.19.18c1-3.58.84-7.37,1-11.11.15-19.12,10.08-36.3,21.11-51.28,26-31.37,26.79-68.73,5.34-102.84l-.38-.6c-.07-.13-.15-.22-.21-.36s-.19,0,.16-.25c.14,0,.11.07.15.09l.14.13-.22.21Z"/>
    </g>
  </g>
  <g>
    <path class="cls-3" d="M103,243.63c-9.71-5.83-23-7.67-34-5.21a39,39,0,0,0-5.79,1.75C49.44,245.64,49.4,257,68.35,262.55c8.31,2.4,31.07,3.47,38.69.18C116.45,258.68,110.83,248.33,103,243.63Z"/>
    <path class="cls-4" d="M103,243.63c-9.71-5.83-23-7.67-34-5.21a39,39,0,0,0-5.79,1.75c-6.87,2.73-10.32,7-9.68,11.17a37.85,37.85,0,0,0,7.94,3.22c8.31,2.4,31.07,3.46,38.69.18,5.14-2.22,5.79-6.3,4-10.33Q103.59,244,103,243.63Z"/>
  </g>
</svg>
