<svg id="Layer_1" data-name="Layer 1" xmlns="http://www.w3.org/2000/svg" width="281.48" height="296.47" viewBox="0 0 281.48 296.47">
  <defs>
    <style>
      .cls-1 {
        fill: #8c2c2c;
      }

      .cls-2 {
        fill: #4f1313;
      }

      .cls-3 {
        fill: #423628;
      }

      .cls-4 {
        fill: #564837;
      }
    </style>
  </defs>
  <path class="cls-1" d="M240.07,219.38c-3.71,0-8.31,2.09-10.95,4.1a23.32,23.32,0,0,0-3.18-.23c-5.46,0-11.39,1.74-16.33,3.69,2.65-2.5,5.06-5.3,5.33-8.62l0-.51-.54-.13c-2.14-.53-4.33.26-6.23,2.24a16.59,16.59,0,0,0-4.26,9.52c-2.34,1.13-4.06,2.1-4.82,2.53-2.54,1.46-5,2.73-7.48,3.88,1.42-2,2.31-4.08,2.17-5.82l0-.46-.51-.1a3.84,3.84,0,0,0-.83-.09c-4.12,0-8,6-10.52,10.27a56.89,56.89,0,0,1-15.36,2.59c1-.58,1.88-1.16,2.72-1.72s3.89-5.28,3.17-7.15a1.5,1.5,0,0,0-1.5-.91l-.27,0c-3.13,1.16-7.94,5.85-10.52,9.52q-2.31-.22-4.59-.66A78,78,0,0,0,166.46,233c3.83-3.32,7.44-6.46,11.57-8.62,2.58-1.35,5.33-2.58,8.1-3.77,4.64,1.87,9.7,3.55,14.45,3.55a17.66,17.66,0,0,0,3.42-.32l.63-.13-.09-.56c-.52-3.46-6-5-11.6-5.45a121.34,121.34,0,0,0,13.3-6.4h.61c3.24,0,22.77-1.38,22.77-4.73a2,2,0,0,0-.56-1.69A4.31,4.31,0,0,0,226,204c-3.35,0-8.75,1.5-13.36,3,.33-.25.68-.49,1-.76,6.71-5.55,7.71-12.94,8.61-19.48,0-.18.05-.35.07-.51,5.49-.72,14.62-3.27,17.09-6.07a2.21,2.21,0,0,0,.64-2.14c-.13-.47-.6-1.27-2.24-1.27-3.07,0-9.12,2.73-14.91,5.67,1.19-6.63,3.51-11.37,13.62-13.25a2.78,2.78,0,0,0,1.74-1,2.2,2.2,0,0,0,.39-1.83,2.8,2.8,0,0,0-3.25-1.88,33.09,33.09,0,0,0-4.87,1.26c2.17-4.1,4-9.07,4.11-12.49l0-.57-.64-.07a5.49,5.49,0,0,0-4.78,1.71c-3,3.14-3.58,9.58-3.43,13.56-7.12,4.37-8.09,11.44-9,18.33-.66,4.79-1.37,9.7-4.31,13.7.57-6.19.24-14.41-6.24-16.7l-.68-.24-.25.61c-1,2.49.06,5.69,1,8.51.25.78.5,1.53.68,2.23s.31,1.32.48,2.12a33.11,33.11,0,0,0,2,6.67c-6.06,4.86-13.78,8.13-21.28,11.28l-.24.1c-1,.44-2.11.91-3.18,1.37,1.71-3.87,3.39-8.8,2.32-11.1a2.35,2.35,0,0,0-1.78-1.35,2.59,2.59,0,0,0-2.53.91c-2.14,2.39-2.47,9.24-2.29,13.43-1.74.8-3.49,1.6-5.16,2.47l-.45.28a48.37,48.37,0,0,0,4.1-11.56c.4-1.82.68-3.64.94-5.45,4.32-1.93,10.35-5.67,11.57-8.35a2,2,0,0,0-.47-2.57,2.55,2.55,0,0,0-1.67-.58c-2.33,0-5.38,2.61-8.7,6a50.88,50.88,0,0,1,1.72-8.33,106.67,106.67,0,0,1,3.87-10.06c1-2.29,2-4.68,2.84-7.09,1.21-.53,2.47-1.17,3.72-1.81a44.45,44.45,0,0,1,4.25-2,63,63,0,0,0,11.43-4.4l.67-.36-.48-.55a6.2,6.2,0,0,0-4.93-2.1c-4.09,0-9.12,2.9-13,5.91,2.19-9.79.06-19.08-2-28.12l-.12-.55c4.44-3.15,9.83-8.5,11.73-12.46l.25-.52-.56-.27a5.77,5.77,0,0,0-2.48-.58c-4.25,0-7.79,4.75-10,9a74.89,74.89,0,0,1-1.64-11.16A44.48,44.48,0,0,1,192.69,97c1.14.09,2.29.11,3,.11,1.13,0,11.15-.08,13.44-2.81a1.84,1.84,0,0,0,.39-1.86c-.26-.76-1.05-1.67-3.37-1.67-2.86,0-7.26,1.36-10.85,2.57a39,39,0,0,1,14.5-11.54A2.3,2.3,0,0,0,211,78.55a3,3,0,0,0-3.69-1,42.2,42.2,0,0,0-5.17,2.85c1.4-4.66,1.66-9.27-2.48-11.61l-.49-.27-.39.36c-3.07,2.77-2.28,6.15-1.71,8.62.08.36.16.69.21,1a21.26,21.26,0,0,1,0,2.37c0,1.09-.09,2.19,0,3.18a46.61,46.61,0,0,0-7.66,8.38c-.4-5.06-1.85-10.26-7-12.94l-.53-.27-.38.41c-.3.32-1.2,1.31,0,5.85a44.81,44.81,0,0,0,5,11.56,49.54,49.54,0,0,0-6.37,23.19c-1.82-3.57-4.33-6.76-8.31-8.26l-.56-.22-.31.46c-.83,1.2-.42,3.34,1.22,6.38,2.11,3.87,5.87,8.48,8.7,10.44.59,3.81,1.41,7.54,2.24,11.18.8,3.49,1.57,6.92,2.1,10.32-2.62-3.08-6.2-5.43-10.92-4.94l-.62.06v.56c0,2.92,3.35,4.81,6,6.33.5.28,1,.55,1.36.78a36.09,36.09,0,0,1,2.92,2.46c.62.56,1.25,1.11,1.88,1.64A34.15,34.15,0,0,1,184.15,170c-.93,2.63-2.05,5.28-3.17,7.95-1.28,3-2.57,6.19-3.64,9.41-.87-5.58-2.91-11.08-9-12.63l-.77-.2-.12.7c-.46,2.83,1.36,6.06,3,8.91.44.77.86,1.51,1.21,2.2s.77,1.93,1.19,3.12a29.69,29.69,0,0,0,2.56,5.93c-.25,1.58-.46,3.14-.66,4.68-.32,2.48-.68,5.28-1.27,7.93a44.47,44.47,0,0,1-3.18,9.45c-.6-4.14-2-8.21-3.5-9.86l-.43-.47-.54.38c-4.45,3.12-1.87,11,.29,16.8a50.93,50.93,0,0,1-14.45,12.3,3.23,3.23,0,0,0-1-.08,47,47,0,0,0-.78-4.84,38.9,38.9,0,0,1-.7-4.64c4.58-3.26,11.18-8.39,11.18-13.09v-.45l-.49-.14a5,5,0,0,0-1.33-.18c-3.19,0-6.4,3-8.79,6.44a50.65,50.65,0,0,1,2.16-7.26,59.43,59.43,0,0,0,3.34-28.66c3.56-4.91,7.36-10.77,5.43-16.43l-.19-.58-.66.16c-2.5.56-4.61,4.55-5.64,6.88-.21.48-.43,1-.64,1.55-1-3.8-2.18-7.47-3.38-11.07-.87-2.63-1.71-5.22-2.47-7.8,4.69-4.54,9.49-11.37,7.76-17.78l-.19-.68-.73.23c-3.73,1.16-5.16,5.33-6.31,8.67-.19.56-.37,1.09-.54,1.55-.33.79-.83,1.74-1.37,2.73a46.65,46.65,0,0,1-1.2-13.18A67.13,67.13,0,0,1,147.69,125l.57-2.25c4.92-2.61,13.11-8.3,14.37-10.64a1.24,1.24,0,0,0,0-1.53,3.26,3.26,0,0,0-2.48-1.06c-3,0-7.16,3.6-10.47,7.12a39.85,39.85,0,0,0,.74-7.32c0-5.67-1.58-11.08-3.09-16.34-.71-2.47-1.42-5-2-7.51a43.07,43.07,0,0,0,5.07-4.31c.63-.59,1.16-1.09,1.53-1.4l.24-.19c3.12-2.54,5.81-4.74,6-9l0-.47-.51-.14a6.4,6.4,0,0,0-1.84-.27c-4.85,0-8.72,5.56-11.32,10.41-1-12.68,5.48-26.25,14.19-36.37l1.66,0c1.39,0,13.62-.09,14.26-3.27a1.71,1.71,0,0,0-.4-1.58,4.08,4.08,0,0,0-3-.86,38.58,38.58,0,0,0-8.56,1.47,60.71,60.71,0,0,1,4.77-4.18,2.23,2.23,0,0,0,.23-3.42,3.11,3.11,0,0,0-3.88-.22,71,71,0,0,0-14.77,16c0-3.8-.82-7.7-2-9.32l-.38-.5-.58.32c-4.58,2.55-2.58,10.5-1.26,15.77.06.23.11.45.17.67a52.85,52.85,0,0,0-5.72,18.16c-2.72-5-6.08-9.65-10.59-12.49l-.66-.42-.38.65c-2.28,4,2,8.54,4.83,11.54l.25.28c.64.66,1.37,1.51,2.15,2.44a49.93,49.93,0,0,0,4.15,4.5c.05,1.22.18,2.45.35,3.68A86.71,86.71,0,0,0,142,94.2c1.39,4.84,2.66,9.43,2.84,14.17-4.27-7.44-9.54-11.56-15.74-12.16l-.83-.08,0,.73c.23,3.31,4,6,7.1,8.15.7.5,1.36,1,1.92,1.39a41.32,41.32,0,0,1,3.18,3.24,43.65,43.65,0,0,0,4.06,4.09,85.75,85.75,0,0,1-2.22,10.19A89.55,89.55,0,0,0,140,134.43a48,48,0,0,0-4.46-4.89c-.51-.49-7-3.49-9.53-3.49-1.17,0-1.59.61-1.59,1.17l0,.2c.94,2.46,3.87,4,6.45,5.44,1,.55,2,1.08,2.81,1.64a24.88,24.88,0,0,1,3.93,3.36c.67.65,1.31,1.26,2,1.83-.11,7,1.38,13.41,3.28,19.62l0,1.14.33-.24q.85,2.73,1.76,5.42.8,2.4,1.58,4.85c-5.38-4.81-11.47-9.24-18-10.65l-.8-.16-.07.72c-.44,4.46,5.44,7.28,9.33,9.14l.35.16c.86.41,1.9,1,3,1.57a39.46,39.46,0,0,0,7.44,3.41,69.6,69.6,0,0,1,1.85,8.17,53.91,53.91,0,0,1-.46,19.37c-2.91-6.13-8.48-11.23-15.74-11.23h-.91l.23.78c.78,2.59,3.48,4.49,6.1,6.31a36.61,36.61,0,0,1,2.93,2.2,25.73,25.73,0,0,1,3.81,4.21c.79,1,1.55,2,2.33,2.78-.35,1.2-.75,2.39-1.2,3.58a43.32,43.32,0,0,0-3.05,13.66,19.86,19.86,0,0,0-8-6.9l-.73-.33-.26.69c-1.33,3.6,2.15,7.47,4.69,10.3.36.4.7.77,1,1.11a44,44,0,0,1,2.49,3.66c.75,1.19,1.52,2.39,2.31,3.47.05.47.06.93.08,1.39-8.59-5.06-13.79-9.92-17.05-18.74a72.18,72.18,0,0,0-3.29-7.67c2.94-5.4,5.91-12.32,1.93-17.43l-.39-.5-.57.34c-3.23,1.88-3.39,7.34-3.39,8.43a25.47,25.47,0,0,1-.52,4l0,.17c-.66-1-1.36-1.91-2.13-2.83a60.71,60.71,0,0,0-5.66-5.68c-1-.94-2-1.86-3-2.79a30.46,30.46,0,0,0,2.13-5.53,26,26,0,0,1,1.41-3.83c1.46-2.65,1.57-5.09,1.57-8v-.65l-.73,0a5.81,5.81,0,0,0-4,1.73c-2.67,2.67-3.3,8-3.19,13.11-.22-.28-.45-.54-.65-.82-3.27-4.68-3.6-10.09-3.94-15.86-.29-4.81-.59-9.8-2.7-14.59a30.83,30.83,0,0,0-2.11-4c2.13-5.38,4.66-12.43.87-17.57l-.31-.42L99,139a4.49,4.49,0,0,0-2.53,2.78c-1.12,2.71-1.23,6.84-.88,10.38A69.77,69.77,0,0,0,81.7,140c0-.24.07-.46.11-.7.78-5,1.75-11.33-1.61-15.44l-.32-.38-.5.17A4.33,4.33,0,0,0,76.67,127c-.71,2.9,0,7.11,1.13,10.4-1.62-1-3.24-2-4.84-3a3.09,3.09,0,0,0-3.82.65,2.19,2.19,0,0,0-.42,1.82,2.42,2.42,0,0,0,1.16,1.55c3.26,1.94,6.58,4.06,9.77,6.32-.53,0-1.08-.07-1.63-.07-3.24,0-6,.76-7.49,2.09l-.31.27.14.37c.73,2,4.42,2.44,7.38,2.44a31.74,31.74,0,0,0,7.4-.9c4.68,4,8.63,8.45,10.87,13.53a29.74,29.74,0,0,1,2.11,9.7l-.12-.11c-.8-.76-1.54-1.45-2.07-2l-.22-.24c-2.73-2.89-5.3-5.62-10.21-5.7h-.7l0,.62c-.14,5,8.33,10,13.68,12.7.37,5.52,1,11.15,4.63,16.3a30.88,30.88,0,0,0,3.51,4.13,25.48,25.48,0,0,0-6.51-1,10.9,10.9,0,0,0-7,2.18l-.46.37.36.45c1.88,2.34,8.15,2.59,10.75,2.59a37,37,0,0,0,7-.63,51.54,51.54,0,0,1,4.66,4.69A42.62,42.62,0,0,1,122,218.22c-3.28-2.15-7-3.69-10-3.69a8.18,8.18,0,0,0-1.76.19l-.72.16.22.63c1.65,4.57,9.8,8.31,15.94,11.06,3.52,6.27,8.44,10.49,15.43,14.72a36.08,36.08,0,0,1-7.73.74,69.21,69.21,0,0,1-9.21-.68c-.86-1.59-1.73-3.18-2.58-4.77-1.68-3.15-3.42-6.39-5.24-9.55l-.32-.56-.63.28c-2.28,1-3.12,3.14-2.36,5.95a19.92,19.92,0,0,0,4.49,7.45c-7.6-1.86-12.78-6.72-18.14-12.47a30.09,30.09,0,0,0,.19-14l-.18-.49h-.57a3.92,3.92,0,0,0-3.45,1.74c-1.23,1.87-1.17,5-.65,7.93-5-4.93-10.51-9.29-18-12.1-.6-4-2.6-12.44-8.92-12.44a7.85,7.85,0,0,0-1.26.11l-.59.1,0,.53c.11,2.83,3,7.13,6,10.18a33.13,33.13,0,0,0-7.56-.94,23.32,23.32,0,0,0-6.13.78,18.76,18.76,0,0,0-6.53-1.51,6.36,6.36,0,0,0-5,2l-.32.34.28.38c1,1.42,3.85,1.71,5.68,1.75a14.64,14.64,0,0,0-3.76,4.52,2.17,2.17,0,0,0-.1,1.86A2.56,2.56,0,0,0,50,219.77a3,3,0,0,0,3.66-1.15,10,10,0,0,1,7.26-5.16,6,6,0,0,0-2.06,1.77,3.36,3.36,0,0,0-.38,3.1l.13.36.43.08a5.46,5.46,0,0,0,.82.06c3.25,0,7.29-2.79,9.25-5.22a30.78,30.78,0,0,1,3.34.82A37.86,37.86,0,0,1,82,218.91c-4.66.09-10.21,1.49-11.18,5.27l-.15.55.62.17a4.37,4.37,0,0,0,1.27.13,75.83,75.83,0,0,0,14.54-2.25,98.19,98.19,0,0,1,7.69,7.6c.94,1,1.88,2,2.84,3a20.4,20.4,0,0,0-3.08-.25c-3.4,0-6,1-7.28,2.8l-.3.42.4.35c1.44,1.28,3.63,1.9,6.69,1.9a50.81,50.81,0,0,0,7.6-.78l.64-.1a33.12,33.12,0,0,0,15.29,7.52,83.82,83.82,0,0,0,15.77,1.68,38,38,0,0,0,11.75-1.61l.11,0a4.34,4.34,0,0,0,.62-.06c.71-.15,1.38-.35,2.06-.54a3.2,3.2,0,0,0,.63-.07A56.86,56.86,0,0,0,165,247.09a65.3,65.3,0,0,0,20.94-3.66,64.31,64.31,0,0,0,13.41,1.9c3.39,0,5.23-.66,5.62-2a1.82,1.82,0,0,0-.37-1.79c-.88-1-3-1.49-6.57-1.49-1.28,0-2.65.07-4,.17,2.69-1.24,5.4-2.6,8.11-4.17a73,73,0,0,1,11.6-5.4c3.33,2.08,8.64,4.77,11.83,4.77a3,3,0,0,0,2.61-1.06,1.83,1.83,0,0,0,.24-2.09c-.86-1.62-4.49-2.74-8.17-3.49a28.33,28.33,0,0,1,5.68-.66,15,15,0,0,1,4,.49,8.17,8.17,0,0,1,5.52,4.84A2.93,2.93,0,0,0,239,234.8a2.6,2.6,0,0,0,1.52-1.28,2.17,2.17,0,0,0,0-1.86,13.22,13.22,0,0,0-5.4-6.11c3.6-.39,7.15-1.18,9.62-3.38l.4-.36-.31-.42A5.64,5.64,0,0,0,240.07,219.38Z"/>
  <path class="cls-2" d="M66.84,202.92a18.71,18.71,0,0,1,9.17,3,22.73,22.73,0,0,1,2.66-.17,43.91,43.91,0,0,1,13.69,2.72c-2.23-1.84-4.24-3.91-4.47-6.35l0-.37.46-.1a5.81,5.81,0,0,1,5.22,1.65,11.61,11.61,0,0,1,3.57,7c2,.83,3.4,1.54,4,1.86,2.12,1.08,4.2,2,6.26,2.86a6.61,6.61,0,0,1-1.82-4.29l0-.33.43-.08a3.93,3.93,0,0,1,.69-.06c3.45,0,6.71,4.39,8.81,7.56a53.68,53.68,0,0,0,12.87,1.91c-.8-.43-1.57-.86-2.27-1.27s-3.27-3.89-2.66-5.26a1.27,1.27,0,0,1,1.26-.67l.22,0c2.63.86,6.66,4.31,8.82,7,1.28-.11,2.57-.27,3.84-.49a65.26,65.26,0,0,1-9.12-6.15,52.39,52.39,0,0,0-9.69-6.35c-2.16-1-4.47-1.9-6.79-2.78-3.89,1.38-8.13,2.62-12.11,2.62a16.42,16.42,0,0,1-2.87-.24l-.52-.09.07-.41c.44-2.55,5.06-3.71,9.72-4A105.65,105.65,0,0,1,95.18,197h-.51c-2.72,0-19.08-1-19.08-3.49a1.32,1.32,0,0,1,.47-1.24,4,4,0,0,1,2.59-.64c2.81,0,7.33,1.11,11.19,2.21-.27-.18-.56-.36-.83-.56-5.63-4.09-6.47-9.53-7.22-14.35l-.06-.37c-4.6-.53-12.25-2.41-14.32-4.47a1.5,1.5,0,0,1-.54-1.57c.11-.35.51-.94,1.89-.94,2.56,0,7.63,2,12.49,4.17-1-4.88-3-8.37-11.41-9.75a2.39,2.39,0,0,1-1.46-.77,1.46,1.46,0,0,1-.33-1.34,2.39,2.39,0,0,1,2.73-1.39,33.42,33.42,0,0,1,4.07.92c-1.82-3-3.35-6.67-3.44-9.19l0-.42.53-.05a5,5,0,0,1,4,1.26c2.55,2.31,3,7.05,2.88,10,6,3.21,6.78,8.42,7.56,13.49.55,3.53,1.14,7.14,3.6,10.09-.47-4.56-.19-10.62,5.24-12.3l.57-.18.2.45c.82,1.84,0,4.19-.81,6.27-.21.58-.42,1.13-.56,1.64s-.27,1-.41,1.57a22.21,22.21,0,0,1-1.63,4.9c5.07,3.58,11.54,6,17.83,8.31l.2.07,2.66,1c-1.43-2.84-2.84-6.48-1.94-8.17a2,2,0,0,1,1.49-1,2.35,2.35,0,0,1,2.12.68c1.79,1.76,2.07,6.8,1.92,9.89,1.46.58,2.92,1.17,4.32,1.82l.38.2a32.43,32.43,0,0,1-3.43-8.51c-.34-1.34-.58-2.68-.79-4-3.63-1.42-8.68-4.17-9.7-6.15a1.34,1.34,0,0,1,.4-1.88,2.23,2.23,0,0,1,1.39-.43c2,0,4.51,1.92,7.29,4.44a33.29,33.29,0,0,0-1.44-6.13,72.56,72.56,0,0,0-3.24-7.4c-.81-1.7-1.63-3.45-2.38-5.23-1-.38-2.07-.86-3.12-1.33-1.31-.59-2.55-1.14-3.56-1.47a57,57,0,0,1-9.57-3.24l-.57-.26.41-.41a5.57,5.57,0,0,1,4.12-1.54c3.44,0,7.65,2.14,10.93,4.35-1.83-7.21,0-14.05,1.68-20.71,0-.13.06-.27.1-.4-3.72-2.32-8.24-6.26-9.83-9.17l-.21-.39.47-.19a5.2,5.2,0,0,1,2.08-.43c3.56,0,6.53,3.49,8.38,6.62a51.31,51.31,0,0,0,1.38-8.22,29.83,29.83,0,0,0-5.8-18.82c-1,.07-1.92.09-2.51.09-1,0-9.34-.07-11.26-2.07a1.25,1.25,0,0,1-.33-1.38c.22-.55.88-1.22,2.83-1.22,2.39,0,6.08,1,9.09,1.89a32.49,32.49,0,0,0-12.15-8.5,1.61,1.61,0,0,1-1-2.4,2.73,2.73,0,0,1,3.1-.78,37.73,37.73,0,0,1,4.33,2.1c-1.18-3.43-1.39-6.82,2.08-8.55l.4-.2.34.27c2.56,2,1.91,4.53,1.43,6.35-.07.26-.14.5-.18.69a13.1,13.1,0,0,0,0,1.75,20.5,20.5,0,0,1,0,2.34,36.24,36.24,0,0,1,6.42,6.17c.34-3.73,1.55-7.55,5.83-9.53l.44-.2.32.31c.25.24,1,1,0,4.3a30.74,30.74,0,0,1-4.17,8.51A33.15,33.15,0,0,1,117,129.84a12.69,12.69,0,0,1,7-6.08l.47-.16.27.34c.69.88.35,2.46-1,4.7a26.8,26.8,0,0,1-7.29,7.68c-.49,2.81-1.18,5.55-1.88,8.23s-1.31,5.1-1.76,7.6a11,11,0,0,1,9.16-3.63l.52,0V149c0,2.15-2.8,3.54-5.05,4.66l-1.15.58c-.77.48-1.58,1.13-2.44,1.8-.52.42-1,.83-1.58,1.21a22.41,22.41,0,0,0,1.54,9.34c.77,1.94,1.71,3.89,2.65,5.85,1.08,2.24,2.16,4.56,3,6.93.73-4.11,2.44-8.15,7.52-9.29l.65-.15.1.52c.39,2.08-1.14,4.45-2.49,6.55-.37.57-.73,1.12-1,1.62s-.64,1.42-1,2.3a20.91,20.91,0,0,1-2.15,4.37c.21,1.16.39,2.31.55,3.44a57.44,57.44,0,0,0,1.07,5.84,29.55,29.55,0,0,0,2.66,7c.5-3.05,1.64-6,2.93-7.26l.37-.34.45.27c3.73,2.3,1.56,8.11-.24,12.38a41.59,41.59,0,0,0,12.1,9,3.21,3.21,0,0,1,.82-.06,29.43,29.43,0,0,1,.66-3.56,26.79,26.79,0,0,0,.59-3.41c-3.84-2.41-9.37-6.18-9.37-9.65v-.33l.4-.1a4.64,4.64,0,0,1,1.12-.13c2.67,0,5.36,2.22,7.37,4.74a35,35,0,0,0-1.81-5.35,38.84,38.84,0,0,1-2.8-21.1c-3-3.62-6.17-7.93-4.55-12.1l.16-.42.55.11c2.09.42,3.86,3.35,4.73,5.07.17.35.35.74.53,1.14.83-2.8,1.83-5.5,2.83-8.15.73-1.94,1.44-3.84,2.08-5.74-3.94-3.35-8-8.38-6.51-13.1l.16-.5.61.18c3.13.85,4.33,3.91,5.29,6.38.16.41.31.8.45,1.14.28.58.7,1.28,1.15,2a30.35,30.35,0,0,0,1-9.7,45.08,45.08,0,0,0-2.13-9.53l-.48-1.66c-4.12-1.93-11-6.12-12-7.84-.35-.57-.18-.92,0-1.12a2.92,2.92,0,0,1,2.08-.78c2.53,0,6,2.64,8.77,5.24a25.75,25.75,0,0,1-.62-5.39c0-4.18,1.33-8.16,2.59-12,.59-1.82,1.19-3.67,1.65-5.53a36.09,36.09,0,0,1-4.25-3.18c-.53-.43-1-.8-1.28-1l-.2-.14c-2.61-1.87-4.87-3.48-5-6.59l0-.34.43-.11a6.14,6.14,0,0,1,1.54-.2c4.06,0,7.3,4.1,9.48,7.67.81-9.33-4.59-19.33-11.88-26.78l-1.39,0c-1.17,0-11.42-.07-12-2.41a1.15,1.15,0,0,1,.34-1.16,3.79,3.79,0,0,1,2.53-.63,36.54,36.54,0,0,1,7.17,1.08,49,49,0,0,0-4-3.08,1.52,1.52,0,0,1-.2-2.52,2.9,2.9,0,0,1,3.25-.16,55.86,55.86,0,0,1,12.38,11.79c0-2.8.68-5.67,1.72-6.86l.32-.37.48.24c3.84,1.87,2.16,7.73,1.06,11.61a4.5,4.5,0,0,0-.14.49A35.88,35.88,0,0,1,151.36,95c2.27-3.7,5.09-7.11,8.87-9.19l.56-.31.31.48c1.91,2.94-1.67,6.29-4,8.5l-.21.2c-.53.48-1.14,1.11-1.8,1.8a39.88,39.88,0,0,1-3.47,3.31,25.23,25.23,0,0,1-.3,2.71,56.86,56.86,0,0,1-2.25,8.21,39.93,39.93,0,0,0-2.38,10.43c3.59-5.47,8-8.51,13.2-9l.69-.06,0,.54c-.19,2.44-3.38,4.41-6,6-.58.36-1.14.7-1.61,1a32.38,32.38,0,0,0-2.66,2.39,33.15,33.15,0,0,1-3.41,3,57.57,57.57,0,0,0,1.87,7.51,59.85,59.85,0,0,1,1.94,7.73,39.41,39.41,0,0,1,3.74-3.6c.43-.36,5.82-2.57,8-2.57,1,0,1.33.45,1.33.86l0,.15c-.78,1.81-3.24,3-5.4,4-.85.4-1.66.79-2.36,1.2a21.24,21.24,0,0,0-3.29,2.47c-.56.48-1.1.93-1.64,1.35a41.42,41.42,0,0,1-2.75,14.45l0,.84-.28-.18c-.47,1.34-1,2.68-1.47,4s-.89,2.37-1.32,3.57c4.5-3.54,9.61-6.81,15.09-7.84L161,159l.06.53c.37,3.29-4.56,5.36-7.82,6.74l-.29.12c-.73.3-1.59.71-2.53,1.15a35.31,35.31,0,0,1-6.23,2.51,47,47,0,0,0-1.55,6,35.15,35.15,0,0,0,.38,14.26A15.1,15.1,0,0,1,156.18,182H157l-.2.57c-.65,1.91-2.91,3.31-5.11,4.65-.9.56-1.74,1.08-2.45,1.62A20.66,20.66,0,0,0,146,192c-.66.73-1.3,1.44-2,2.05.3.88.63,1.76,1,2.64a28.65,28.65,0,0,1,2.55,10.06,16.28,16.28,0,0,1,6.68-5.09l.61-.24.22.51c1.12,2.65-1.8,5.5-3.93,7.58-.3.29-.59.57-.83.82a32,32,0,0,0-2.08,2.69c-.63.88-1.28,1.77-1.94,2.56,0,.34-.05.68-.06,1,7.19-3.73,11.55-7.3,14.28-13.8a51.87,51.87,0,0,1,2.75-5.65c-2.46-4-4.94-9.07-1.61-12.83l.33-.36.48.24c2.7,1.39,2.83,5.41,2.83,6.21a16.6,16.6,0,0,0,.44,2.91l0,.14a26.3,26.3,0,0,1,1.78-2.09,46.63,46.63,0,0,1,4.74-4.18c.85-.7,1.68-1.37,2.47-2.06A20.16,20.16,0,0,1,173,181a16.64,16.64,0,0,0-1.19-2.82,10.08,10.08,0,0,1-1.31-5.89v-.48l.61,0a5.24,5.24,0,0,1,3.35,1.27c2.23,2,2.76,5.92,2.67,9.66.18-.21.38-.4.54-.61,2.75-3.44,3-7.42,3.3-11.67.25-3.55.5-7.22,2.27-10.75a23.09,23.09,0,0,1,1.76-2.92c-1.78-4-3.9-9.15-.73-12.93l.26-.32.45.14a3.49,3.49,0,0,1,2.13,2c.93,2,1,5,.74,7.65a56.77,56.77,0,0,1,11.66-8.94l-.09-.51c-.65-3.72-1.46-8.34,1.35-11.37l.27-.28.42.13a3.3,3.3,0,0,1,2.27,2.48c.6,2.13,0,5.23-.94,7.66,1.35-.76,2.71-1.5,4-2.2a2.84,2.84,0,0,1,3.2.48,1.47,1.47,0,0,1,.35,1.34,1.83,1.83,0,0,1-1,1.14c-2.73,1.43-5.52,3-8.19,4.66.45,0,.91-.06,1.37-.06,2.71,0,5,.56,6.27,1.54l.26.2-.11.27c-.62,1.48-3.71,1.8-6.18,1.8a30.2,30.2,0,0,1-6.2-.66c-3.93,2.93-7.24,6.22-9.11,10a19.44,19.44,0,0,0-1.77,7.14l.1-.08c.67-.56,1.29-1.07,1.73-1.49l.19-.18c2.29-2.13,4.44-4.14,8.55-4.19l.59,0v.46c.12,3.69-7,7.38-11.46,9.35-.31,4.07-.85,8.21-3.88,12a25.47,25.47,0,0,1-2.93,3,23.76,23.76,0,0,1,5.45-.75,10,10,0,0,1,5.83,1.6l.39.28-.31.33c-1.57,1.72-6.82,1.91-9,1.91a33.92,33.92,0,0,1-5.83-.47,42.15,42.15,0,0,0-3.91,3.46,30.52,30.52,0,0,0-5.55,8.63,18.2,18.2,0,0,1,8.39-2.72,7.64,7.64,0,0,1,1.47.14l.6.12-.19.46c-1.38,3.37-8.21,6.12-13.34,8.15-3,4.61-7.08,7.72-12.94,10.83a34.28,34.28,0,0,0,6.48.55,67.34,67.34,0,0,0,7.71-.5c.73-1.17,1.46-2.34,2.17-3.51,1.41-2.32,2.86-4.71,4.39-7l.27-.41.52.21c1.91.75,2.62,2.31,2,4.38a14.5,14.5,0,0,1-3.76,5.49c6.37-1.37,10.71-4.95,15.2-9.19a19.46,19.46,0,0,1-.16-10.31l.15-.36h.48a3.44,3.44,0,0,1,2.89,1.28c1,1.38,1,3.65.54,5.84a42.65,42.65,0,0,1,15.09-8.91c.5-2.92,2.18-9.17,7.47-9.17a6.41,6.41,0,0,1,1.06.09l.5.08,0,.38c-.09,2.09-2.54,5.25-5,7.5a31.26,31.26,0,0,1,6.33-.69,21.93,21.93,0,0,1,5.14.57,17.59,17.59,0,0,1,5.47-1.11,5.74,5.74,0,0,1,4.15,1.46l.27.26-.24.27c-.87,1-3.23,1.27-4.76,1.29a11.45,11.45,0,0,1,3.15,3.33,1.45,1.45,0,0,1,.09,1.37,2,2,0,0,1-1.19,1,2.67,2.67,0,0,1-3.06-.85,8.42,8.42,0,0,0-6.08-3.79,4.86,4.86,0,0,1,1.72,1.29,2.25,2.25,0,0,1,.32,2.29l-.11.27-.36.05a5.09,5.09,0,0,1-.69.05c-2.72,0-6.1-2.06-7.74-3.85-1.17.2-2.15.43-2.8.61a33.56,33.56,0,0,0-8,3.3c3.9.06,8.55,1.1,9.37,3.87l.12.41-.51.13a4.64,4.64,0,0,1-1.07.09A70.73,70.73,0,0,1,195,205.42a80,80,0,0,0-6.45,5.6q-1.17,1.13-2.37,2.19a18.83,18.83,0,0,1,2.57-.18c2.85,0,5,.73,6.1,2.06l.25.31-.33.26c-1.21.94-3,1.39-5.61,1.39a48.5,48.5,0,0,1-6.36-.57l-.54-.07a29.51,29.51,0,0,1-12.81,5.53,80.22,80.22,0,0,1-13.21,1.24,35.88,35.88,0,0,1-9.85-1.19l-.09,0a3,3,0,0,1-.52,0c-.59-.1-1.16-.25-1.73-.39a3,3,0,0,1-.52-.06,53.53,53.53,0,0,1-13.76,1.82,61.76,61.76,0,0,1-17.55-2.7A60.14,60.14,0,0,1,101,222c-2.85,0-4.38-.49-4.71-1.49a1.2,1.2,0,0,1,.31-1.31c.74-.74,2.54-1.1,5.51-1.1,1.06,0,2.21.05,3.35.12-2.26-.91-4.52-1.91-6.8-3.07a65.27,65.27,0,0,0-9.72-4c-2.78,1.53-7.24,3.51-9.91,3.51a2.72,2.72,0,0,1-2.19-.78,1.23,1.23,0,0,1-.2-1.54c.73-1.19,3.76-2,6.85-2.57a26.26,26.26,0,0,0-4.76-.49,14,14,0,0,0-3.33.37,6.62,6.62,0,0,0-4.62,3.56,2.62,2.62,0,0,1-3,1,2.19,2.19,0,0,1-1.28-.94,1.44,1.44,0,0,1,0-1.38A10.17,10.17,0,0,1,71,207.47c-3-.29-6-.87-8.06-2.49l-.34-.27.27-.31A5,5,0,0,1,66.84,202.92Z"/>
  <g>
    <path class="cls-3" d="M177.67,204.74C144.4,186.27,99.78,182,63.18,192.12A126.8,126.8,0,0,0,44.05,199C-1.2,219.88.23,259,64.4,274.91c28.1,6.95,104.39,7.09,129.44-5.34C224.79,254.22,204.54,219.65,177.67,204.74Z"/>
    <path class="cls-4" d="M177.67,204.74C144.4,186.27,99.78,182,63.18,192.12A126.8,126.8,0,0,0,44.05,199c-22.61,10.42-33.57,25.4-30.85,39.77a124.11,124.11,0,0,0,27,9.8c28.1,6.95,104.39,7.09,129.45-5.34,16.89-8.38,18.5-22.49,12.13-36C180.44,206.36,179.07,205.52,177.67,204.74Z"/>
  </g>
</svg>
