<svg id="Layer_1" data-name="Layer 1" xmlns="http://www.w3.org/2000/svg" width="281.48" height="296.47" viewBox="0 0 281.48 296.47">
  <defs>
    <style>
      .cls-1 {
        fill: #8c2c2c;
      }

      .cls-2 {
        fill: #8cad06;
      }

      .cls-3 {
        fill: #9c6006;
      }

      .cls-4 {
        fill: #2f9c06;
      }

      .cls-5 {
        fill: #84766d;
      }

      .cls-6 {
        fill: #93908c;
      }
    </style>
  </defs>
  <g>
    <path class="cls-1" d="M213.24,46.29a46.62,46.62,0,0,0-8.94,3.62c-1.86,1.08-4,2.35-4.72,4.3-.65,3,3.3,4.11,5,6.08,4.62,4.62.19,10-3.55,13.23-3.11,3.06-7.19,5.48-8.29,9.28-.21,7.78,6.46,8.12,12.66,6.62s13.2,1.52,14.24,8.44c.87,5.75-2.12,11.23-6.16,14.92-3.7,3.45-9,5.53-13.17,8.11-.65.46-1.13.73-1.3,1.19a7.27,7.27,0,0,0-.05,2.53c.79,7,3.62,13,2.18,20.8-1.82,10.29-12,15.27-21.23,17.11-.15,0-.16.07-.08,0a3.08,3.08,0,0,0,1.27-1.84c.1-.61,0-.67.11-.15.82,2.51,2.7,5.92,3.6,8.92,3.21,9.17-.36,17.51-8.25,22.86-6.65,4.75-12.74,3.58-19-.84a6.66,6.66,0,0,0-1.15-.58,1.16,1.16,0,0,0-.3-.09,1.31,1.31,0,0,0-.57.17c-2.49,1.39-3.89,4-6.11,6-1.86,1.89-5.49,3.2-8.13,2a17.46,17.46,0,0,1-3.62-2.19c-1.77-1.08-3.75-.44-5.79.21-6.42,2.06-5.33,8.2-4.87,13.73a6.41,6.41,0,0,1-.63,3.35,4,4,0,0,1-1,1.12c-1.71,1.29-3.71,2.24-5.15,3.56a7.82,7.82,0,0,0-3.07,6.68c.36,3.23,1.14,6.75.5,10.06a21.19,21.19,0,0,1-4.31,9.18l-.51-.32c2.58-4.1,4-9,2.94-13.78-.64-3.16-1.87-6.61-.49-9.8,1.41-3.83,5-6,8.05-8.3a5.19,5.19,0,0,0,0-2.69c-.84-4.67-1.37-10.57,2.49-14.22,3.54-3.2,9.48-5.48,14-3.27,1.34.59,2.62,2.09,4.07,1.93,1.4-.36,2.49-1.76,3.42-2.88,11.74-15.42,14.62,4.35,25.75-3.75,8.11-5.75,8.33-12.31,4.16-20.75-1.14-2.75-4.13-7.53-.37-9.56,1.6-.8,3.19-.85,4.82-1.37,6-1.53,12.48-5.05,13.64-11.63s-1.58-12.77-2.05-19.21c-.25-2.44,0-5.45,2-7.24,5.59-4.64,13.82-5.94,17.65-12.54,4-6.53.84-13.17-7.36-11.13-9.21,2-18.27-1.57-16.72-12.37,2.29-6.47,9.51-9,13.68-13.92a4.8,4.8,0,0,0,1.38-4.17c-1-3.82-7.71-5.26-6-10.07,1.05-2.38,3.5-3.69,5.68-4.78a46.62,46.62,0,0,1,9.34-3.13l.12.58Z"/>
    <path class="cls-1" d="M112.54,244.5a20,20,0,0,1,2.8-13c.62-1,.92-2.14,1.58-3.12,2.59-3.94,8.34-3.25,12-1.29l-1.67-.49c-.14,0,0,0,0,0,.78-.31.75-.39.69-1.43-.21-1.6-1-2.83-1.15-4.59-.59-4.24,2.6-7,6.67-7.11a14.11,14.11,0,0,0,2.64-.28c.17-.06.05-.1-.2.07s-.51.7-.49.44c.14-1.83.21-3.62.2-5.47v-.95a6.57,6.57,0,0,1,2-4.6c1.81-1.5,3.48-2.21,5.26-3.67a2.12,2.12,0,1,1,.21-.17,2.68,2.68,0,0,0-.44.92,3.32,3.32,0,0,0,.3,2.51c0,.06,0,0-.1-.09-6.6-5.25-10.58-11.18-9.92-20.14.77-8.14,9.31-11.7,12.14-18.18,1.41-4.35-6.58-9.51-9.87-11.73l.9.45a14,14,0,0,1-8-9,15.17,15.17,0,0,1,9.53-18.78c3.94-1.23,6.81-.47,10.34-1.72l.09,0h0s0,0,0,0a1.44,1.44,0,0,0-.45.81c.25-.32-.35-2.39-.66-3.41-1.34-4.35-4.19-10.68.43-14.3a8.45,8.45,0,0,1,9.1-1.17,9.18,9.18,0,0,1,1.2.65l-.28-.13c4.6,2.13,12.13,4,13.37-2.84,1.1-4.16-1.52-15.1-7-14.11l-.2-.57c3.51-1.06,6,2.76,7.27,5.49,1.83,4.26,2.81,10.07-.53,13.89-3.7,3.71-9.53,2-13.83.42a5.77,5.77,0,0,0-6.84.76c-3.65,3,1.89,10.2,2.27,14.25.47,2.58-.7,4.12-3.09,4.85-3,1.26-6.45,1.14-9.5,2.08a9.79,9.79,0,0,0-5.76,12.1,8.33,8.33,0,0,0,4.77,5.35c3.78,2.41,7.54,5,10.37,8.72,7.41,9.78-3.13,16.24-8.57,23.09a8.11,8.11,0,0,0-1.58,6,15.38,15.38,0,0,0,5.71,11.24c1.22,1.22,2.87,2.14,3.52,3.89.4,1.43-.82,2.51-1.81,3.22-1.53,1.16-3.32,2.06-4.89,3.13-.51.53-.36,1.29-.45,2a41.85,41.85,0,0,1-.74,6.78c-.77,2.61-4,2.55-6.18,2.56-1.06.05-2.21.2-2.57,1-.72,1.79.79,4.05.66,6.4a4.58,4.58,0,0,1-4.58,4.78c-3-2-7.66-2.89-9.42,1.11-1.39,2.3-3,4.5-3.75,7.1a20.38,20.38,0,0,0-.83,6.32Z"/>
    <path class="cls-1" d="M145.57,102.55c-8.65-2.38-2.14,7.28-1.45,11.1a9.55,9.55,0,0,1-1.38,7.62c-2,2.84-5.31,4.59-5.43,8.16a11.28,11.28,0,0,0,.71,4.33,43.7,43.7,0,0,1,2.47,12.48c0,3.56.37,7.18-1.36,10.51-2,3.71-6.49,4.18-9.83,2.46-3.85-2-7.65-4.76-11.6-2.27-1.79,1-3.55,2.28-3.51,4.56.42,6,5,11.42,6.87,17.29,1.5,3.75,1.61,9.06-1.77,12.09-1.62,1.54-3.66,3.38-5,4.81a12.49,12.49,0,0,0-1.2,1.54c-.49.88-.6.88-.35,1.9.73,2.08,2.68,4.09,4.24,5.73,8.25,8.88,11.74,25.78,3.76,35.7a12,12,0,0,1-5.13,3.43l-.25-.55c7.36-3.59,8.11-13.2,6.66-20.37a29.19,29.19,0,0,0-7.94-15.17c-8.75-7.92-8-12,.3-19.79l1-1a4.06,4.06,0,0,0,1.09-3.63c-1.53-7.39-7.84-13.55-8.21-21.91-.17-6.41,6.31-11.22,12.29-11.51,4.12-.19,7.75,2.2,11.15,4,2.25,1.21,2.77.07,3.15-2a43,43,0,0,0,0-11.56c-1-5.89-3.73-12,1.13-17.09,2.78-2.78,6.31-4.87,5.42-9.34-.4-3.39-4.34-10.5-.1-12.64a6.21,6.21,0,0,1,4.5.61l-.27.54Z"/>
    <path class="cls-1" d="M121.78,100.25c-2,4.75-2.7,11.68,2.27,14.71,9.77,5.68,8.8,13.06-.39,18.6-3.61,2.12-2.92,6.66.22,8.42a12.24,12.24,0,0,0,1.83.45c3.09.6,6,.91,9.25,1.78,8.3,1.93,13.45,8.28,11.21,17.21a21.33,21.33,0,0,1-6.08,10.44c-3.06,3-6.79,5.13-9.65,7.74a6.72,6.72,0,0,0-2.6,6.29c.38,2.28,3.48,4.76,5.6,6.52,4.44,3.71,10.09,7.31,11.69,13.62,1.53,7.18-4.64,13.32-10.63,15.95-4.42,1.84-8.65,2.27-12.27,3.26-9.06,1.9-7.65,11.3-6.41,18.39l-.57.17a47.6,47.6,0,0,1-1.51-6c-1.37-7,.2-12.89,7.47-15.29,3.91-1.44,8-2.1,11.65-3.9,3.45-1.72,6.74-4.86,7.83-8.6,1.78-9.39-16.62-13.74-18.33-23-2.6-12.11,12.88-15.16,17.14-24.13,3-6.63,1.09-11.5-6.1-13.44-3.92-1.3-8.23-1.37-12-3.27-3.66-2.3-5.63-7.21-4-11.3s6.53-5,9.2-8.11a4.4,4.4,0,0,0,.8-5.27c-1.81-3.72-6.64-5.19-7.89-9.32s-.17-8.45,1.69-12.16l.52.29Z"/>
    <path class="cls-1" d="M107.4,132.06c1,.14,1.37.83,2,1.45,2.91,3.7,3.89,9.36.93,13.38a11.07,11.07,0,0,1-1.81,2c-2.18,1.78-4.81,2.19-5.64,4.56a9,9,0,0,0,.23,5.93c1.77,4.73,5.46,10.33,4.79,16.11-.84,6.1-6.07,8-10.77,9.78-1.43.59-1.37,1.33-1.4,3,.08,1,0,1.11,1.13,2,3,2,7.62,3.52,10.07,7.1,5.46,7.75-.61,16-3.71,22.49-.85,1.91-.07,3.16,1.23,4.78.68.75,1.4,1.49,2.1,2.26a26.07,26.07,0,0,1,5.82,12.94,25.22,25.22,0,0,1,.41,4.51l-.58.15c-1.65-5.35-4.22-10.76-8.36-14.61-2.16-1.77-4.59-3.82-5.52-6.8-1.6-6,3.94-10.89,4.79-16.49,2.26-9.35-9.82-8.23-12.7-15a9.77,9.77,0,0,1,1-8.83c1.88-2.53,5.16-3,7.85-3.95,9.08-3.14,0-14.28-.46-20.44-.35-3.7,1-8,4.68-9.49,2.67-1.08,5.33-2,6.47-4.89,1.55-3.5.53-7.87-1.83-10.78a1.59,1.59,0,0,0-.66-.49v-.6Z"/>
    <path class="cls-1" d="M208.52,219c-4.88,3.51-10.44,6.41-16.55,7-4.05.26-7.68-2.51-10.59-4.53-3.78-2.68-7.18-5-11-4.57-3.13.36-6.55,1.49-8.48,4.2-1.47,1.9-2.63,4.19-4.75,5.61-3.14,2.38-7.64,2.38-11.17,1.86-3.82-.4-8.27-2-10.79,1.17-1.23,1.51-1.78,3.77-2.56,5.58a21.2,21.2,0,0,1-4.23,6.5,11.21,11.21,0,0,1-14.29,2.1l-.35-.35c.31-.29.75-.2,1.12-.25a14,14,0,0,0,5.61-.81c4.64-2,6.37-7.18,8.1-11.63,1.58-4.6,5.83-8.28,10.91-7.77,4.91.25,8.95,2.54,13.54,2.31a10.35,10.35,0,0,0,3-.66c2.08-.83,3.33-2.8,4.67-4.58,3.05-4,7.71-7.64,13-7.21,6.31.45,10.69,6,15.64,8.74,1.89,1.06,3.72.89,5.77.63a58.5,58.5,0,0,0,13.16-3.77l.25.43Z"/>
  </g>
  <g>
    <path class="cls-2" d="M230.77,148.23a30.42,30.42,0,0,0-6.34.24c-1.32.24-2.84.53-3.67,1.47-.48.87.18,1.71.86,2.72,3.87,4.87,0,8.36-4.58,10.06-2.46,1.17-5.43,1.67-6.68,3.51a.2.2,0,0,0,0,.11s0,0,0,.08l-.07.26c-.84,3.17,2.38,4,5.19,4.49,6.75.68,10.78,7,7.55,13.06a14.38,14.38,0,0,1-9.43,6.88c-2.75.73-6.25.72-8.84,1.42a.86.86,0,0,0,.35-.21c.29-.32,0,0-.16.76-1.17,4.74-.79,8.95-3.76,13.79-3.72,6.27-11.89,7.48-18.43,6.28l-.45-.06h0a2.89,2.89,0,0,0,1.45-.37,3.84,3.84,0,0,0,1.4-1.24c.57-1,.42-1.12.44-1-.08,1.52.26,4.27.1,6.27A14.31,14.31,0,0,1,182,226a16.33,16.33,0,0,1-8.31,4.43c-5.61,1.38-10.08-.86-13.22-5.73a3.56,3.56,0,0,1-.31-.41,1.41,1.41,0,0,0,.44.16c.22,0,.27,0,.24,0a2.69,2.69,0,0,0-.54.1,9.63,9.63,0,0,0-1.5.61c-2.13,1.07-4.16,2.18-6.83,1.74-2.28-.28-4.28-2.46-5-4.12-.79-.76-3-.85-4.07-.61-2.1.61-2.56,2.88-3.27,5-.47,1.42-.87,3-2.57,3.86a6.09,6.09,0,0,1-1.76.47c-7.73.75-5.1,4.44-8.29,9.5a13.68,13.68,0,0,1-5.2,4.5l-.35-.49a13.4,13.4,0,0,0,4.11-4.72c1-1.95,1-4.05,1.46-6.2.72-3.53,4.32-5.22,7.53-5.81.4-.13,1-.1,1.16-.48.9-2.48,1-5.37,2.82-7.59,2.63-3.4,9.42-3.65,12.33-.47.76.84,1.24,2,2,2.06a5.26,5.26,0,0,0,2.69-.95c2-1.08,4.1-2.28,6.47-1.75,3.28.84,4,5.33,7.39,5.87a10.74,10.74,0,0,0,8.34-3c3.08-3.28,1.77-7.87,1.93-12.05.11-2.51,1.93-3.21,4.11-2.69,8,1.39,13.42-.8,14.61-9.4.69-3.15.67-6.81,2.91-9.45a5.72,5.72,0,0,1,3.19-1.41c4.15-.7,8.73-.23,12.19-2.93,4-3,3.39-7.61-2-8.3-6.15-1-11.08-5.63-7.42-11.89,3-3.44,8.08-3.2,11.86-5.22,2.22-1.06,2.13-3.09.87-5-4.6-7.3,6.58-6.83,10.92-6.06l-.1.59Z"/>
    <path class="cls-3" d="M121.14,245.08a13.09,13.09,0,0,1,4.77-7.51c.4-.35.81-.77,1.15-1.13,2.62-2.57,6.75-.76,8.8,1.63l-1.13-.87c-.13-.06,0,0,0,0s.35-.07.19-.13-.16,0-.09-.27a5.34,5.34,0,0,0,.06-.56c-.09-2.27.67-5.19,3.44-5.92,1.64-.59,3.94.46,5.07.62.06,0-.1-.07-.44,0a1.92,1.92,0,0,0-.85.49c.5-1.08.93-2.13,1.35-3.26a6.79,6.79,0,0,1,.89-1.77,5.32,5.32,0,0,1,3.39-1.94c.51-.11,1.51-.29,2-.43l.93-.25c.14,0,.24-.12-.06,0a3.1,3.1,0,0,0-1.36,2.23c0,.92.12.92,0,.83-2.75-4.47-4-9.66-1.67-14.8,1.28-3.67,5.44-5.43,8.27-6.69,1.78-.92,3.44-1.39,4.26-2.86.2-2.59-2.07-5.72-3.63-8l.56.62a9.68,9.68,0,0,1-2.54-3.93,10.79,10.79,0,0,1,3.08-11.63,10.64,10.64,0,0,1,7.71-2.64c2.65.21,4,1.21,6.24,1.52l.48.05c.14,0,0,0,0,0a.42.42,0,0,1-.14.05,1.63,1.63,0,0,0-.81.64c-.12.22,0,.2,0,0,.59-2.35.21-5.21,1.13-7.76,1.11-3.68,6.17-4.64,9-2.17a6.79,6.79,0,0,1,1.27,1.34l-.17-.18a12.66,12.66,0,0,0,4.46,3.18c3.95,1.3,5.56-3.78,5.61-7,0-1.74-.31-4.36-2.33-4.72l0-.5c2.44.2,3.12,3.16,3.25,5.17.39,4-2,10.08-7,8.68A13.55,13.55,0,0,1,180.9,172a3.85,3.85,0,0,0-4.34-1.2c-1.65.46-1.75,2.43-1.79,4-.09,2.6.88,8-3.33,7.48-2.16,0-4.36-.88-6.35-1-5.18-.26-8.59,6.53-4.77,10.24,3.47,4.43,7.94,12.14,1.49,16.15-5.6,3.67-11.29,2.87-10.76,11.4a11.93,11.93,0,0,0,1.33,4c.58,1.27,2.24,3.42.46,4.46-1.62.79-3.25.76-4.91,1.15a.51.51,0,0,0-.26.2c-.52.86-.92,2-1.42,2.91-1.45,3.17-2.5,3.33-5.65,2.08-.67-.24-1.39-.41-1.76,0-.84.84-.46,2.62-1.11,4.06a3.1,3.1,0,0,1-4,1.87l-.08,0-.06-.08c-1.17-1.51-3.16-3.16-5.1-2.15a23.28,23.28,0,0,0-4.86,4,12.87,12.87,0,0,0-2,3.67l-.47-.17Z"/>
    <path class="cls-4" d="M175.43,166.17c-3.81-2.64-3.17,1.69-3,4.19.3,5.55-2.4,6.91-6.52,8.87-1.58,1-1.77,2.51-1.85,4.29a28,28,0,0,1-1.39,8.47c-.92,2.42-1.57,4.87-3.73,6.6-2.45,1.95-5.87,1-7.71-1.1-1.78-1.87-3.18-4.32-5.85-3.88-1,.18-2.06.27-2.48,1.32-.94,2.85,0,6.38.07,9.57.39,3.65-.47,8.65-4.48,10.15-1.34.52-3.09,1.16-4.16,1.67-.57.23-.92.57-1.27.65s-.15,1-.08,1.42a18.5,18.5,0,0,0,1,3.16c3,7.85,1.07,19-6.65,23.29a7.94,7.94,0,0,1-4.08.75l0-.5c5.36-.44,8.1-6.12,8.87-10.87a19.15,19.15,0,0,0-1.31-11.14c-1.08-2.36-2.52-5-1.5-7.73,1.25-2.59,4.14-3.35,6.49-4.47l.89-.39a2.52,2.52,0,0,0,1.46-1.9c1.08-5.59-3.34-14.33,2.75-18.64a9.1,9.1,0,0,1,11.28,1.34c1,.94,1.73,2,2.56,2.94.4.46.89.85,1.18.74s.78-.61,1.08-1.11a27.92,27.92,0,0,0,2.73-7.08c.73-3.78.68-8.51,4.84-10.32,2.31-1,5.06-1.46,5.53-4.32.55-2.37-.07-9.13,4.12-7.54a5.79,5.79,0,0,1,1.62,1.23l-.37.34Z"/>
    <path class="cls-4" d="M161.3,159c-2.23,2.46-4.28,6.48-1.87,9.39,1.79,2.19,3.53,5.07,2.07,8-1.05,2-2.91,2.8-4.74,3.4-1.25.44-3.37.58-3.93,1.64-.62.86-.27,2.88.7,3.27,3.67,2.38,7.35,3.64,9.94,7.88,3.53,6.1-1.81,13.49-7.6,15.55-2.65,1.12-5.46,1.54-7.82,2.41a3.47,3.47,0,0,0-2.58,2.46,2.71,2.71,0,0,0,.25,1.69c.82,2.2,2.38,4.43,3.56,6.73,4.09,7.21,2,13.63-6.54,15.5-10.78,1.66-15.94-7-19.26,8.41l-.5,0c.29-5.65,1.83-12.23,8.87-11.71,2.76.06,5.44.64,8.09.43a9.81,9.81,0,0,0,6.82-3.32c3.72-6.58-11-14.31-4.09-22.37,3.85-4.1,10.63-3.08,14.61-6.84,1.76-1.67,3.31-4.34,2-6.7-2.07-3.6-6.44-4.76-9.21-7.74a6.41,6.41,0,0,1,.17-8.06c2-2.24,5.26-1.54,7.67-2.77,2.83-1.22,1.58-4.53.34-6.56-2.76-3.69-.44-8.5,2.73-11.1l.32.39Z"/>
    <path class="cls-4" d="M144.8,174.87c.63.35.69.85.94,1.39,1.15,3.32,0,7.56-3.35,9.14-1.7,1.08-4.21.45-5.23,1.91a5.48,5.48,0,0,0-.95,3.34c.12,4.17,1.47,10.61-2.91,13.67-2,1.74-5.52,1.47-7.62,1.54-.29,0-.74.2-.44.19s.05,0-.12.44-.2.63-.19.57,0,0,.24.36c1.4,2,3.94,4.14,4.62,7,1.74,6.4-4.16,10.48-7.9,13.69-.32.33-.44.39-.54.62-.35.95.51,2.71.85,3.74a15.46,15.46,0,0,1,.74,6.57,17.89,17.89,0,0,1-1.52,5.94l-.49-.05A22,22,0,0,0,119.21,234c-.9-1.6-1.94-3.45-1.82-5.55.4-4.09,5.06-5.78,6.91-9,3.58-5-4.18-7.44-4.33-12.16a6.5,6.5,0,0,1,2.75-5.3c1.8-1.1,3.93-.58,5.83-.52,6.38.24,3.32-8.65,4.53-12.55.67-2.4,2.58-4.76,5.24-4.75,1.9,0,3.73.09,5.13-1.38a6.74,6.74,0,0,0,1.17-7.43l.18-.47Z"/>
    <path class="cls-4" d="M186.75,252.9a21.73,21.73,0,0,1-12.14.74c-2.72-.79-4.52-3.51-5.88-5.48-1.57-2.21-2.77-4.35-5.22-5.31a9.3,9.3,0,0,0-4-.61,9.21,9.21,0,0,0-3.95,2c-3,2.27-7.22,1.55-10.19-.18-2.19-1-4.11-2.92-6.21-1.76a8.35,8.35,0,0,0-1.8,1.69,14.36,14.36,0,0,1-5.35,4c-3.22,1.49-7.52.62-9.5-2.44l-.17-.23c0-.08-.15-.11,0-.16l-.2-.46a.89.89,0,0,1,.55,0l.92.23c7.69,2.57,9.39-8.43,16.65-8,4.47.24,7.12,4.24,10.7,5.75,3.08,1.48,5.19-1.07,8-2.27a12.17,12.17,0,0,1,5.17-1.15c3.85.12,6.71,3.54,8.32,6.49,1.46,2.49,2.43,4.75,5.3,5.29a45.08,45.08,0,0,0,8.94,1.32l.07.49Z"/>
  </g>
  <g>
    <path class="cls-5" d="M124.87,242.87c-9.61-6.46-23-8.73-34.26-6.36a36.66,36.66,0,0,0-5.94,1.74C70.52,243.78,70,256,89,262.29c8.32,2.76,31.34,4.42,39.2,1.09C137.93,259.26,132.63,248.08,124.87,242.87Z"/>
    <path class="cls-6" d="M124.87,242.87c-9.61-6.46-23-8.73-34.26-6.36a36.66,36.66,0,0,0-5.94,1.74C77.6,241,73.94,245.44,74.42,250a37.11,37.11,0,0,0,7.93,3.63c8.32,2.75,31.34,4.42,39.2,1.08,5.29-2.25,6.11-6.6,4.51-10.94C125.67,243.43,125.27,243.14,124.87,242.87Z"/>
  </g>
</svg>
