<svg id="Layer_1" data-name="Layer 1" xmlns="http://www.w3.org/2000/svg" width="281.48" height="296.47" viewBox="0 0 281.48 296.47">
  <defs>
    <style>
      .cls-1 {
        fill: #8c2c2c;
      }

      .cls-2 {
        fill: #8cad06;
      }

      .cls-3 {
        fill: #9c6006;
      }

      .cls-4 {
        fill: #2f9c06;
      }

      .cls-5 {
        fill: #84766d;
      }

      .cls-6 {
        fill: #93908c;
      }
    </style>
  </defs>
  <g>
    <path class="cls-1" d="M242.17,85.83c1.45-4.34-.71-9.39-5.33-10.42-2.51-.69-5.57.18-6,3s.91,5.58,2.24,8.12a11,11,0,0,1-.3,10.93c-3.33,6-11.55,10.19-9,17.57,1.91,5.29,8.36,7.27,12.47,11.32,4.88,4.68,2.65,10.68-2.17,14.33a59.93,59.93,0,0,1-9.8,6.12,31.45,31.45,0,0,1-9.32,2.77c-2.36.52-5.73.58-7,2.27a10,10,0,0,0-.27,5.51c.9,3.3,3.14,5.38,5.12,8.58,1.08,1.67,2.4,4.52,1.73,7.25-.68,3.36-3.83,5.53-6.78,6.36-.31.12-1.31.41-1.65.53-3.73,1.22-8.55,2.86-11.39,4.9-2.09,1.57-2.26,2.41-3.24,5.11-2.83,8.94-10.33,20.62-21.23,18.82-4.31-.7-5.76-1.68-8.82,1.35-3.49,3.06-5.21,8.9-10.89,8.74-6.21-.47-7.5-7.34-11.17-10.46-1.68-1.24-2.48-.89-4.72-.1-3.4,1.36-6.17,3.24-6.79,7.16-.47,2.72-.2,6.74-3.83,7.36-1.78.35-3.88.11-5.44.89-4.35,2.86,4,11.14-5.15,22.63l-.51-.31c3.81-6,3.9-11.28,2-17.91-1.22-6,2.4-8,7.75-8.45a2.9,2.9,0,0,0,1-.29s0,0,0,0a1.23,1.23,0,0,0,.09-.23c.5-2.9.15-6,1.71-8.7,2.22-4.07,7.37-7.09,12-7.48,3.44-.15,6.2,2.4,8.08,5,1.43,1.8,2.49,4,4.29,5.39,2.1,1.24,3.36-2,4.58-3.42a31.69,31.69,0,0,1,3.1-3.67c2.24-2.32,5.4-4.19,8.75-3.86,3.09.21,6.14,1.58,9.07.27,5.43-2.73,8.68-9,10.52-14.57a20.64,20.64,0,0,1,1.92-4.45c3.71-5.49,10.6-7.29,16.49-9.37,3.17-1,6-1.54,3.51-5.35-1.67-2.65-3.78-5.15-5-8.12-1.61-4.28-1.77-10.68,2.06-13.84,2.67-2,6.05-2.28,9.19-2.82,6.27-.69,11.84-3.93,16.85-7.52,5.59-4.2,3-6.75-1.73-10-3.84-2.76-8.08-5.76-9.37-10.63a12.1,12.1,0,0,1,1.33-9.42c2.5-4.17,6.68-6.72,9.34-10.66,4.6-6.51-2.74-11.3-1.27-18,.67-3.53,4.87-4.9,8-3.78a8.57,8.57,0,0,1,6.08,7,11,11,0,0,1-.54,4.8l-.57-.19Z"/>
    <path class="cls-1" d="M113.6,245.43c1.08-8.09,18.13-12.85,24.53-14.4,1.33-.77,1.25-2.92,1.13-4.43-.24-10.85,18.11-11.06,24.94-15.77,1.38-.85,2.56-1.79,2.8-3.24l.21-1c.85-3.84,2.06-7.55,4.78-10.69,1.69-2.14,5-3.77,6.79-4.94,1.63-1.47,1.8-3.86,2.13-6.49.17-3.61-1.84-5.51-4.85-7.7-5.51-4-12.81-5.75-16.82-12.38a10.75,10.75,0,0,1,3-13.64c3.42-2.41,7.85-1.8,11.35-1,2.16.5,7,1.68,8.49,1.09,7.95-3.28-6.47-14.65.5-22.52,3.13-3.85,8.9-3.78,13-2.12,3.28,1.07,6,2.92,8.86,3,0,.17,1.06-.58,1.36-1,1.94-2.87-1.8-7.78-3.23-10.8-1.36-2.64-3.19-5.78-2-9a6.06,6.06,0,0,1,3.58-3.32,11.39,11.39,0,0,0,3.22-1.59c4.68-3.3,2.18-11.21-2.71-13.18a5.2,5.2,0,0,0-3.4-.16l-.22-.56c2.5-1,5.34,0,7.19,1.83,3.84,3.43,4.89,10.22.61,13.74-1.65,1.81-4.93,1.93-5.86,4.14-.68,2.29,1,4.67,2,6.67,1.83,3.23,4.28,6.47,4.57,10.34a6.35,6.35,0,0,1-4.13,6.22c-3.87.87-7.5-1.44-11.07-2.34-3.06-1.1-7.95-1.33-9,2.53a6.52,6.52,0,0,0,.45,3.42c1.25,3.46,3.52,6.8,3.89,10.62a9,9,0,0,1-5.95,9.29,15.81,15.81,0,0,1-7.67.08c-4.07-.57-11-3.61-12.19,2.25-.95,5,5.57,7.46,9.07,9.7,4.35,2.5,9.05,5,11.82,9.41,2.19,3.36,2,7.54,1.09,11.27a11,11,0,0,1-3.84,6.65c-2.05,1.49-4.44,2.23-6.08,4.15-2,2.28-3,5.31-3.65,8.24-2,11.15-18.92,10.14-26.75,15a4.9,4.9,0,0,0-2.2,2.57c-.36,2.45,0,5.17-1.82,7.27a5,5,0,0,1-3.46,1.85c-2.27.36-4.54.82-6.78,1.36-5.33,1.46-15.48,3.86-17.18,9.7l-.59-.12Z"/>
    <path class="cls-1" d="M174.42,104.88c-5.54,2-11.6,4.9-14.35,10.2-1.88,3.69.27,7.28,1.44,10.78,1.42,4.44,2.47,8.88,1.67,13.73-.92,6.28-6.36,10-12.5,9.65-6.24.35-12.88,1.35-18,5.12a13.74,13.74,0,0,0-5,7.34,5.65,5.65,0,0,0,.31,5.06c3.07,5.3,9.53,7.87,12.86,13.49,4.27,7.6-3.08,13.23-9.25,15.54-3.85,1.64-7.86,2.76-11.4,4.47a9.56,9.56,0,0,0-3.36,2.39c-1,1.2-.27,2.87.34,4.19,5.59,11.14,15.1,32.91-1.57,38.92l-.25-.54c13.38-6.36,5.19-23.37.06-32.91-9.76-14.16,3.43-16.6,14.06-21.29,7.85-3.68,10-6.42,2.3-12.32-3.26-2.7-6.76-5.33-8.91-9.11-4.45-8,1.7-18.07,9.29-21.57a32.43,32.43,0,0,1,12.37-3c4-.51,8.58,1.1,12.13-1.24s3.68-7.27,3.32-11.15c-.27-4.23-1.94-8.13-2.83-12.24-1.1-9.41,9.51-14.16,17.09-16.14l.13.58Z"/>
    <path class="cls-1" d="M165.9,98.13c-2,4.71-2.71,11.57,2.15,14.64,9.73,5.6,9,13,0,18.51-2.45,1.64-3.28,3.37-2.31,5.95a5.29,5.29,0,0,0,2.13,2.55c.76.33,1.53.59,2.29.93a26.71,26.71,0,0,1,9,6.19,19.33,19.33,0,0,1,5.14,15c-.41,5.89-2.77,11.59-7.94,14.48-6.34,4-15.34,3.42-17.18,11.74-.16.7-.48,2.19-.62,2.9-1,4.73-3.88,9.68-8.47,11.71-1.87,1-3.79,1.35-5.3,2.08-2.45,1.36-2.39,4.77-2.72,7.32l-.05.7,0,.35A6.85,6.85,0,0,1,140.9,217a9.47,9.47,0,0,1-3.53,3c-2.89,1.54-6,2.41-8.81,3.61-10.38,3.7-15.14,10.66-14.37,21.86l-.59.1c-1.62-8.49.69-16.95,8.21-21.83,3.4-2.37,7.25-3.89,10.94-5.57,1.7-.83,3.74-1.68,4.81-3.26.55-.84.34-1.79.36-2.75s0-2.07.13-3.1c.29-4.6,2.34-8.19,6.89-9.67a14,14,0,0,0,5.11-2.9c2.08-2.06,2.88-5.19,3.34-8a15.54,15.54,0,0,1,8.67-12.4c3.62-1.89,7.73-2.71,11.21-4.75a9.16,9.16,0,0,0,3.87-4.14,17.81,17.81,0,0,0,.84-11.58c-1.14-3.79-4.07-6.81-7.45-8.91-1.7-1.16-3.64-1.83-5.39-2.91-3.48-2.47-5.28-7.39-3.42-11.37,2-4.87,9.36-5.09,10.39-10.49.19-3-2.51-5.25-4.66-7.07-3.64-2.29-5-7-4.09-11.1a20.65,20.65,0,0,1,2-5.86l.53.29Z"/>
    <path class="cls-1" d="M149.36,158.51c-3.62-1.42-5.9-.24-6.88,3.49-1.45,4.65-1.16,10.61-5.14,14.35-4.58,3.93-11.74,1.05-16.35-1.3-2-1.63-4.38-4.23-6.87-4.65-2.3-.31-3.48,1.45-4.73,3.3a4,4,0,0,0-.73,2.54c.36,2,3,4.47,3.51,7,1.13,4.08-2.15,8.26-5.74,9.8-3.26,1.39-5.55,1.09-8,1.73-.37.12-.27.24,0,.05s.4-.47.36-.33a6,6,0,0,0-.1,1c0,.72,0,.62,0,.76.43.86,1.24,1.4,2.58,2.28,5.51,3.46,16,6.55,14,15.29-.72,3.54-3.71,5.33-5.43,8.21-3.72,6-2.89,14-.07,20.27.64,1.2,1.25,2.88,2.5,3.45l.27.53a1.63,1.63,0,0,1-1.46-.22,10.63,10.63,0,0,1-2.76-2.63c-5.08-6.6-7-16.1-3.2-23.76a21.59,21.59,0,0,1,2.76-4.24c1-1.14,2.08-2.43,1.84-3.94-.83-2.88-4.77-4.11-7.26-5.51-3.65-1.89-8.16-3.86-9.47-8.15-.53-2.56-.3-5.67,1.77-7.5,1.45-1.13,3.3-1.22,5-1.33,2.41-.14,4.88-.26,6.67-2a3,3,0,0,0,.74-3.95c-1.1-2.22-2.84-4.28-2.79-7,.18-3.53,2.67-6.45,5.56-8.24,3.2-1.92,7,0,9.31,2.38,1,1,1.94,2.17,3,3.14a32.07,32.07,0,0,0,5,2.2c13.67,4.5,11.24-8.32,15.39-16.31,1.4-2.54,4.61-2.55,7-1.42l-.23.55Z"/>
    <path class="cls-1" d="M208.52,220.75c-4.88,3.51-10.44,6.4-16.55,7-4.05.25-7.68-2.52-10.59-4.54-3.78-2.67-7.18-5-11-4.56-3.13.36-6.55,1.49-8.48,4.2-1.47,1.89-2.63,4.19-4.75,5.61-3.14,2.38-7.64,2.38-11.17,1.85-3.82-.4-8.27-2-10.79,1.18-1.23,1.51-1.78,3.76-2.56,5.58a21.2,21.2,0,0,1-4.23,6.5,11.22,11.22,0,0,1-14.29,2.1l-.35-.36c.31-.29.75-.2,1.12-.24a14,14,0,0,0,5.61-.81c4.64-2,6.37-7.19,8.1-11.63,1.58-4.61,5.83-8.28,10.91-7.77,4.91.25,8.95,2.54,13.54,2.31a10.69,10.69,0,0,0,3-.66c2.08-.83,3.33-2.8,4.67-4.58,3.05-4,7.71-7.64,13-7.21,6.31.45,10.69,6,15.64,8.74,1.89,1,3.72.89,5.77.63a58.54,58.54,0,0,0,13.16-3.78l.25.44Z"/>
  </g>
  <g>
    <path class="cls-2" d="M246.19,188.84a5.62,5.62,0,0,0,1.44-5.21,4,4,0,0,0-3.49-3c-2.59.28-2.59,4-2.58,6.05.29,4.15-2.92,7.3-6.48,8.74-3.2,1.57-6.13,2.22-6.67,5.66-.35,3.26,2.45,6,3.59,9.34a7.05,7.05,0,0,1-3.66,9.19c-3.44,1.62-7,1.7-10.54,1.91a21,21,0,0,1-6.4-1.05,13.46,13.46,0,0,0-3.42-.79c.11,0,.36-.17.13.07a9.38,9.38,0,0,0-1,1.92c-.44,2,.12,3.6.3,6,.65,4.87-2.54,9.18-7.88,8.81-2.84-.27-6.91-1.11-9.41-.67-1.33.32-1.11.38-2.38,1.55-4.39,4.37-11,8.87-17.62,6.6a17.74,17.74,0,0,1-4.64-3c-.21-.13,0-.1-.19-.15a4.17,4.17,0,0,0-1.4.24c-2.47.71-4.34,2.57-7.2,2.58-3.8.1-6.09-3.32-6.27-6.41-.26-1.81-.15-3.38-.5-4.65-.09-.24.09-.12,0-.23s-.35-.19-.5-.21c-2.29-.28-4.12-.5-5.79,1.61-.9,1.14-1.6,2.62-3.17,3.33a3.32,3.32,0,0,1-1.82.21c-1.58-.3-2.15-.95-3.47-1.27a.41.41,0,0,0-.34,0,3,3,0,0,0-1.11,1.55,19.39,19.39,0,0,1-3.09,5.83,14.44,14.44,0,0,1-5.29,3.77l-.33-.51a13.78,13.78,0,0,0,6.44-9.74,6.27,6.27,0,0,1,1.51-2.85c1.67-1.78,4.41-.62,6.17-.12a13.3,13.3,0,0,0,1.38-2.14,9.26,9.26,0,0,1,2.06-2.44,10.12,10.12,0,0,1,9.22-1.33c3.27,1.38,3.3,5.44,3.7,8.41s1.8,1.7,3.64.72c2.73-1.46,6.3-3,9.23-1.13,1.72,1,3,2.73,5.06,2.75,3.85-.18,7.43-2.89,10.1-5.63a9.62,9.62,0,0,1,5.49-3.22,30.34,30.34,0,0,1,9.37.36,4.77,4.77,0,0,0,2.62,0c.53-.25.59-1.3.52-2.26a29.33,29.33,0,0,1-.29-6.22c.53-3.09,2.19-6.69,5.47-7.57,3.23-.58,6.09,1.34,9.16,1.79a29,29,0,0,0,9-.5,4.82,4.82,0,0,0,2.46-1.22,2.48,2.48,0,0,0,.17-2.48c-.63-1.86-1.73-3.64-2.45-5.61-1.76-3.89-.63-9.09,3.25-11.3,4.05-2.5,11-2.45,11.24-8.46.29-13.83,14.45-5.22,7.07,2.78l-.43-.42Z"/>
    <path class="cls-3" d="M125.68,246.48c2.94-4.54,13.73-3,18.34-1.86-.21-.11-.12-.07-.15-.09s.06,0,.08-.07a4.92,4.92,0,0,0,1.2-2c2.83-6,10.56-3.22,15.49-2.82a11.21,11.21,0,0,0,5.16-.27,1.77,1.77,0,0,0,.71-.67c2.33-3.21,6.06-6.34,10.22-6.45a11.13,11.13,0,0,0,1.79-.18c1-.42,1.76-1.64,2.57-2.89,2.28-4-3.89-9.36-5.35-13.71-1.24-2.49-1.24-6.77.93-9.09a7.38,7.38,0,0,1,9.87-1.8,33.84,33.84,0,0,1,4.31,3.35,6.49,6.49,0,0,0,2.07,1.34.63.63,0,0,0,.43,0c1.16-.38,1.33-1.29,1.58-2.51.37-2.1.32-4.44,1.13-6.67a6.53,6.53,0,0,1,8.18-4c3.52,1.06,5.44,5,7.65,7,.14.11.13.12.05.16s-.06,0,0,0c1.36-.08,1.74-1.31,1.91-2.63.57-3.27-.84-7.84,1.89-10.64,2-1.72,3.62-.64,5.51-1,2.7-.38,3.93-3.64,3.4-6.19a3.6,3.6,0,0,0-2.66-3.08l0-.5c3.69.46,4.63,5.28,3.38,8.23a5.92,5.92,0,0,1-6.14,3.59c-6.46-.66.82,12.87-6.16,14.83C210,207,208,203.29,206,201.55c-2.28-2.59-6-3.17-6.51.95-.45,3.15.12,6.9-2.32,9.48-2.76,2.88-6.54,2.07-9.26-.28-1.84-1.25-3.49-3.55-5.8-3.4a3.35,3.35,0,0,0-2.37,3.13,6.09,6.09,0,0,0,.52,2.16c1.29,2.84,3.4,5.41,4.81,8.4s2,6.82,0,9.7c-1.35,2-3,4.33-5.59,4.9-1.63.35-3.22.07-4.72.71-2.23.93-3.72,2.78-5.27,4.65a6.81,6.81,0,0,1-4.61,2c-3.31.23-6.5-.66-9.71-1.22-2.19-.28-4.91-1.08-6.65.55-.81,1.23-1.61,3.06-3.18,3.73a3.27,3.27,0,0,1-2.59.13,47.63,47.63,0,0,0-8.59-1.92c-2.7-.21-6.17-.6-8.15,1.56l-.39-.31Z"/>
    <path class="cls-4" d="M202.44,180.79c-4.75-.46-12-.1-12.78,5.73-.57,5.66-1.75,13.35-8.19,15.21a8.76,8.76,0,0,1-6-1c-3.15-1.3-6.57-2.34-9.92-2a8.92,8.92,0,0,0-6,3.29c-3.49,4.47,6.49,13.08.08,19-4.9,3.89-11.26,1.32-16.59,1.39-2.14.05-2.67.35-2.8,2.22-.39,8.26-1.9,24.19-13.42,22.69v-.5c9.41-.1,9.78-12.08,9.88-19.14-.28-5.09,0-8.8,6-9.3,3.18-.64,14.25,2.34,14.45-2.24-.42-4-3.29-7.49-3.34-11.76-.2-5.93,6.06-10.31,11.57-10.35a19.4,19.4,0,0,1,8.14,1.78c2.43.85,4.61,3.22,7.32,2.73s4-3.3,5-5.61c1.1-2.55,1.37-5.19,2.09-7.89.87-2.78,3.6-4.56,6.36-5a20.89,20.89,0,0,1,8.26.26l-.12.49Z"/>
    <path class="cls-4" d="M199.75,174.33c-2.6,2.56-4.91,6.23-2.78,9.5,2,3,2.81,7.61-1,9.78a13.54,13.54,0,0,1-4.8,1.5,2.67,2.67,0,0,0-2.21,4.15,17.43,17.43,0,0,1,2.28,2.92c4.32,6.48,3,14.46-2.73,19.7-2.72,2.73-7.73,3.14-11,2.55-2.16-.23-3.87-.54-5.61.08a7.57,7.57,0,0,0-2.79,2.3c-1.74,2.17-3.4,4.06-6.48,5.18-2.17.83-4.83.46-6.8.19a1.2,1.2,0,0,0-.53,0c-1.28.62-2.18,2.21-3,3.43l-.12.18-.06.1a1,1,0,0,0-.1.17c-1.42,2.75-4.87,3-7.27,2.67-4.87-.51-10-1.47-14,1.86a17.83,17.83,0,0,0-4.55,6.08l-.48-.16c3.07-9.77,9.8-11.57,19.13-10.82,1.52,0,3.37.17,4.17-1.17l.45-.9c1.49-3.14,4-6.22,7.91-5.55a8.35,8.35,0,0,0,3.75-.27,7.72,7.72,0,0,0,3-2.22c.84-1,1.61-2.19,2.5-3.13a10.05,10.05,0,0,1,7.41-3.28c3.25-.14,6.59,1.14,9.7-.05a11.19,11.19,0,0,0,5.35-7.49c.69-3.51-1-7-3.16-9.78a6.55,6.55,0,0,1,1.14-8.68c2.59-2.23,6.94-.32,9-3.25.89-1.71.1-3.74-.58-5.45-1.32-2.5-.53-5.63,1.18-7.74a14.4,14.4,0,0,1,2.89-2.84l.29.4Z"/>
    <path class="cls-4" d="M172.09,205.33c-1.66-1.92-3.26-1.64-4.81.2-2.17,2.35-3.71,5.86-7.11,7.06-4,1.13-7.15-2.61-9.22-5.46-.81-1.46-1.63-5.51-3.78-4.67-3.73,1.56-2.37,2.31-2.44,5.83,0,3.7-3.95,6.27-7.38,6-2.39-.16-3.59-1.06-5-1.23-.07,0,.38.16.79,0s.54-.29.51-.22a6.28,6.28,0,0,0-.29.57l-.07.14s0-.11,0,.05c.83,2.46,2.92,4.43,4.23,7.08,1.06,1.86,1.61,5,.36,7.12a7.56,7.56,0,0,1-4.61,3.65,11.24,11.24,0,0,0-5.49,4.29,18.59,18.59,0,0,0-3,7.91,6,6,0,0,0,.08,2.72v.5c-.79-.11-.93-.82-1.19-1.37a16.27,16.27,0,0,1,.8-11.26,14,14,0,0,1,6.78-7c2.17-.86,3.27-1.92,1.93-4.26-1.55-2.87-4.07-5.09-4.78-8.5-.53-2.67,1.72-6.71,4.86-6,1.57.35,3,1.37,4.52,1.54a3.24,3.24,0,0,0,2.61-.78c.57-.64.48-1.75.44-2.81a5.59,5.59,0,0,1,2.84-5.78c1.88-1.12,4.68-1.83,6.41,0,1.64,1.58,1.77,4,2.46,5.95a22.6,22.6,0,0,0,2,2.49c5.29,5.9,8.53-.13,12.17-4.07a4.56,4.56,0,0,1,2.91-1.62,3.8,3.8,0,0,1,2.87,1.68l-.38.32Z"/>
    <path class="cls-4" d="M186.53,259.24c-3.86.95-8,1.25-11.81-.22-2.55-1.1-3.9-4-5-6-1.22-2.26-2-4.42-4.26-5.5a8.12,8.12,0,0,0-3.83-.82,10,10,0,0,0-3.93,1.74,7.7,7.7,0,0,1-5.16,1,13.2,13.2,0,0,1-4.67-2.12c-2-1.15-3.5-3.12-5.5-2a23.9,23.9,0,0,0-2.85,2.45c-3.74,3.39-10.65,4.89-13.5-.5l-.13-.24c0-.08-.13-.11,0-.15l-.17-.47a.74.74,0,0,1,.54,0c.61.2,1.29.5,1.89.65,5.46,1.2,7.22-4.29,11.93-6.46,4-2,7.87.8,10.33,3.43,1.52,1.49,2.71,2.64,4.68,3,2.23.27,3.83-1.43,6.06-2.17a12.14,12.14,0,0,1,5.05-.88c3.74.27,6.34,4,7.48,7.09,1.11,2.51,1.59,4.84,4.29,5.63a41.13,41.13,0,0,0,8.45,2l0,.5Z"/>
  </g>
  <g>
    <path class="cls-5" d="M124.87,242.87c-9.61-6.46-23-8.73-34.26-6.36a36.66,36.66,0,0,0-5.94,1.74C70.52,243.78,70,256,89,262.29c8.32,2.76,31.34,4.42,39.2,1.09C137.93,259.26,132.63,248.08,124.87,242.87Z"/>
    <path class="cls-6" d="M124.87,242.87c-9.61-6.46-23-8.73-34.26-6.36a36.66,36.66,0,0,0-5.94,1.74C77.6,241,73.94,245.44,74.42,250a37.11,37.11,0,0,0,7.93,3.63c8.32,2.75,31.34,4.42,39.2,1.08,5.29-2.25,6.11-6.6,4.51-10.94C125.67,243.43,125.27,243.14,124.87,242.87Z"/>
  </g>
</svg>
