<svg id="Layer_1" data-name="Layer 1" xmlns="http://www.w3.org/2000/svg" width="281.48" height="296.47" viewBox="0 0 281.48 296.47">
  <defs>
    <style>
      .cls-1 {
        fill: #d45353;
      }

      .cls-2 {
        fill: #423628;
      }

      .cls-3 {
        fill: #564837;
      }
    </style>
  </defs>
  <path class="cls-1" d="M199.34,221.25a15,15,0,0,0-8.11,1.87,16.62,16.62,0,0,0-2.23-.43,34.66,34.66,0,0,0-11.9,1.13c2.09-1.48,4-3.19,4.49-5.43l.06-.34-.37-.14a4.7,4.7,0,0,0-4.61,1,11.23,11.23,0,0,0-3.8,6.14c-1.75.57-3.06,1.08-3.63,1.31-1.92.79-3.79,1.44-5.63,2a6.44,6.44,0,0,0,2-3.79v-.32l-.35-.11a4,4,0,0,0-.58-.13c-2.93-.35-6.18,3.39-8.31,6.12a42.78,42.78,0,0,1-11.12.46c.73-.31,1.43-.63,2.07-.94s3.2-3.28,2.84-4.61a1.07,1.07,0,0,0-1-.75H149c-2.32.53-6.12,3.32-8.25,5.61-1.08-.24-2.15-.52-3.2-.85A54.67,54.67,0,0,0,146,224.3a44.59,44.59,0,0,1,8.92-4.9c1.94-.7,4-1.31,6.06-1.89,3.14,1.67,6.6,3.25,10,3.65a12.75,12.75,0,0,0,2.45.08l.46,0,0-.39c-.09-2.4-3.88-3.95-7.79-4.7a89.75,89.75,0,0,0,10-3.24l.43.06c2.31.28,16.29,1,16.56-1.3a1.31,1.31,0,0,0-.26-1.2,3.16,3.16,0,0,0-2.12-.85c-2.39-.29-6.34.28-9.74.91l.78-.43c5.21-3.22,6.53-8.18,7.7-12.57,0-.12.06-.23.09-.34,4,0,10.65-1,12.64-2.69a1.48,1.48,0,0,0,.62-1.4c-.05-.34-.32-.93-1.49-1.07-2.17-.26-6.69,1.1-11.05,2.61,1.39-4.43,3.43-7.46,10.76-7.89a2,2,0,0,0,1.32-.56,1.44,1.44,0,0,0,.42-1.21,2,2,0,0,0-2.15-1.56,25.26,25.26,0,0,0-3.56.44c1.88-2.61,3.58-5.85,3.94-8.17l.06-.39-.45-.1a4,4,0,0,0-3.53.76c-2.41,1.89-3.32,6.24-3.54,9-5.42,2.37-6.68,7.11-7.9,11.74-.86,3.21-1.76,6.5-4.18,9,.91-4.17,1.34-9.82-3.07-11.93l-.46-.22-.23.4c-.89,1.62-.42,3.89,0,5.89.12.55.24,1.09.3,1.57s.12.94.17,1.5a21.57,21.57,0,0,0,.85,4.71c-4.7,2.81-10.46,4.38-16,5.89l-.17.05-2.37.66c1.53-2.49,3.12-5.71,2.55-7.37a1.73,1.73,0,0,0-1.15-1.08,1.93,1.93,0,0,0-1.88.41c-1.71,1.45-2.5,6.1-2.72,9-1.3.4-2.61.8-3.86,1.25-.12.05-.23.11-.35.15a32,32,0,0,0,3.85-7.54c.44-1.21.79-2.42,1.12-3.64,3.23-.95,7.81-3,8.9-4.71a1.33,1.33,0,0,0-.13-1.79,1.8,1.8,0,0,0-1.14-.54c-1.65-.2-4,1.32-6.67,3.38a34.48,34.48,0,0,1,1.9-5.54,73,73,0,0,1,3.57-6.53c.88-1.49,1.77-3,2.6-4.61.9-.25,1.85-.58,2.79-.91a31.69,31.69,0,0,1,3.18-1,46.5,46.5,0,0,0,8.47-2l.51-.18-.3-.42a4.51,4.51,0,0,0-3.32-1.85c-2.91-.35-6.72,1.21-9.75,2.93,2.36-6.5,1.6-13,.88-19.36,0-.13,0-.26,0-.39,3.41-1.78,7.68-5,9.35-7.51l.22-.33-.37-.23a4.39,4.39,0,0,0-1.72-.61c-3-.36-5.92,2.58-7.83,5.29a50.34,50.34,0,0,1-.26-7.76,29.72,29.72,0,0,1,7-16.85c.81.16,1.62.27,2.12.33.81.1,7.93.89,9.78-.77A1.24,1.24,0,0,0,188,132c-.12-.54-.62-1.23-2.26-1.42-2-.25-5.27.3-7.92.83a27.76,27.76,0,0,1,11.24-6.65,1.55,1.55,0,0,0,1.1-2.13,2.19,2.19,0,0,0-2.53-1,30.42,30.42,0,0,0-3.91,1.5c1.38-3.06,1.94-6.18-.81-8.13l-.32-.22-.32.21c-2.4,1.63-2.12,4-1.91,5.74,0,.25.06.48.07.66a14.73,14.73,0,0,1-.21,1.62c-.12.74-.24,1.48-.28,2.16a32.55,32.55,0,0,0-6.13,5.08c.13-3.5-.47-7.16-3.89-9.43l-.35-.23-.3.25c-.24.2-1,.79-.5,4a30.18,30.18,0,0,0,2.59,8.31A33,33,0,0,0,165,148.44a11.23,11.23,0,0,0-5.23-6.35l-.38-.19-.26.28c-.69.75-.57,2.25.35,4.46a24.26,24.26,0,0,0,5.33,7.87c.1,2.64.38,5.26.67,7.82s.55,4.85.66,7.22a9,9,0,0,0-7.36-4.3h-.45l0,.38c-.23,2,2,3.57,3.77,4.83.34.23.65.46.91.65.6.53,1.21,1.21,1.87,1.92.4.44.8.87,1.2,1.28a22.83,22.83,0,0,1-2.33,8.5c-.88,1.72-1.89,3.43-2.9,5.16-1.16,2-2.34,4-3.35,6.11-.17-3.88-1.17-7.81-5.35-9.38l-.54-.2-.14.47c-.55,1.89.48,4.25,1.39,6.33.25.56.49,1.11.68,1.6s.39,1.38.59,2.23a20,20,0,0,0,1.34,4.27c-.31,1.05-.59,2.1-.85,3.14-.43,1.66-.92,3.54-1.55,5.3a29.84,29.84,0,0,1-3,6.18c-.09-2.88-.72-5.77-1.68-7l-.27-.35-.42.21c-3.41,1.75-2.22,7.35-1.16,11.49a36.12,36.12,0,0,1-11.27,7.17,2,2,0,0,0-.68-.14,31.06,31.06,0,0,0-.16-3.37,25.23,25.23,0,0,1-.12-3.22c3.52-1.84,8.62-4.78,9-8l0-.31-.33-.14a3.59,3.59,0,0,0-.94-.23c-2.26-.27-4.78,1.52-6.76,3.65a32.26,32.26,0,0,1,2.13-4.77A39.38,39.38,0,0,0,142,189.7c2.93-3,6.11-6.72,5.2-10.75l-.09-.41-.47.05c-1.82.17-3.65,2.72-4.58,4.22-.18.31-.38.64-.57,1-.4-2.67-.94-5.28-1.5-7.84-.41-1.87-.79-3.71-1.12-5.53,3.7-2.7,7.67-7,7-11.48l-.08-.48-.54.1c-2.74.47-4.09,3.19-5.18,5.38-.18.36-.35.71-.52,1a20.34,20.34,0,0,1-1.19,1.75,31,31,0,0,1,.22-9.1,44.6,44.6,0,0,1,2.86-8.61c.2-.49.39-1,.59-1.49,3.71-1.37,10-4.56,11.07-6.05.36-.49.26-.83.1-1a2.37,2.37,0,0,0-1.68-.94c-2.14-.25-5.37,1.85-8,4a26.17,26.17,0,0,0,1.12-4.94c.44-3.87-.21-7.69-.86-11.41-.3-1.74-.6-3.52-.79-5.3a29.46,29.46,0,0,0,4-2.5c.49-.36.91-.65,1.2-.83l.18-.11c2.43-1.47,4.52-2.74,5-5.6l0-.32-.35-.14a5.27,5.27,0,0,0-1.28-.34c-3.45-.41-6.65,3.06-8.89,6.15.35-8.74,6-17.45,13-23.62.4.06.8.12,1.18.16,1,.12,9.68,1.1,10.4-1a1.15,1.15,0,0,0-.16-1.11,3,3,0,0,0-2.08-.84,28.78,28.78,0,0,0-6.19.27,39.54,39.54,0,0,1,3.72-2.44,1.5,1.5,0,0,0,.45-2.32,2.31,2.31,0,0,0-2.74-.48,49.91,49.91,0,0,0-11.8,9.67c.29-2.59,0-5.32-.69-6.53l-.23-.37-.44.17c-3.46,1.34-2.69,6.94-2.18,10.65,0,.17,0,.31.06.47a35.53,35.53,0,0,0-5.54,11.91c-1.52-3.66-3.53-7.11-6.5-9.42l-.44-.34-.32.41c-1.94,2.53.73,6,2.49,8.28l.16.21c.39.5.84,1.15,1.32,1.85a35.14,35.14,0,0,0,2.58,3.42,24,24,0,0,0,0,2.55,56.23,56.23,0,0,0,1,7.83,39.78,39.78,0,0,1,.86,9.91c-2.43-5.43-5.83-8.7-10.19-9.63l-.58-.13,0,.51c-.11,2.28,2.37,4.43,4.37,6.16.45.4.89.77,1.25,1.11a29.21,29.21,0,0,1,2,2.49,32.28,32.28,0,0,0,2.56,3.13,56.24,56.24,0,0,1-2.41,6.77,59.4,59.4,0,0,0-2.51,7,33.46,33.46,0,0,0-2.77-3.71c-.32-.38-4.65-3-6.48-3.19-.83-.1-1.18.27-1.22.66v.14c.46,1.76,2.41,3.08,4.14,4.26.67.46,1.31.9,1.86,1.35a18.74,18.74,0,0,1,2.52,2.63c.41.5.82,1,1.24,1.42a41.41,41.41,0,0,0,.73,13.66l-.12.78.25-.14c.25,1.29.53,2.58.8,3.85s.5,2.29.73,3.45c-3.42-3.74-7.39-7.29-11.92-8.8l-.55-.18-.11.49c-.68,3,3.27,5.43,5.88,7l.23.14c.58.35,1.27.82,2,1.32a28.61,28.61,0,0,0,5,3,47.61,47.61,0,0,1,.65,5.73,35.88,35.88,0,0,1-1.91,13.19c-1.57-4.44-5.11-8.39-10.26-9l-.65-.08.1.55c.34,1.83,2.11,3.36,3.82,4.82.7.61,1.36,1.18,1.9,1.75a17.93,17.93,0,0,1,2.36,3.2c.48.74.94,1.46,1.43,2.1q-.53,1.17-1.14,2.34a28.36,28.36,0,0,0-3.28,9.06,14.13,14.13,0,0,0-5.11-5.38l-.49-.29-.23.45c-1.25,2.34.91,5.28,2.49,7.42l.61.84c.47.74.95,1.69,1.46,2.71s.89,1.77,1.36,2.57c0,.32,0,.63-.06,1-5.68-4.18-9-7.94-10.58-14.23a47.57,47.57,0,0,0-1.7-5.52c2.53-3.43,5.2-7.91,2.79-11.73l-.24-.37-.43.18c-2.44,1-3,4.72-3.09,5.46a16.91,16.91,0,0,1-.7,2.66l0,.12c-.39-.71-.81-1.42-1.28-2.11a43.56,43.56,0,0,0-3.56-4.36c-.64-.73-1.27-1.44-1.87-2.15a20.21,20.21,0,0,0,2-3.6,16.89,16.89,0,0,1,1.31-2.49,10,10,0,0,0,1.77-5.33l.06-.44-.53,0a4.19,4.19,0,0,0-3,.84c-2.12,1.6-3,5.2-3.34,8.68-.13-.21-.27-.41-.39-.62-2-3.47-1.73-7.19-1.51-11.16.19-3.31.38-6.74-.72-10.19a22.34,22.34,0,0,0-1.18-2.88c1.95-3.5,4.32-8.09,2-11.92l-.18-.32-.4.08a3.18,3.18,0,0,0-2,1.69,15.81,15.81,0,0,0-1.47,7,49.27,49.27,0,0,0-8.9-9.47c0-.15.09-.3.14-.46,1-3.38,2.16-7.59.11-10.67l-.19-.3-.38.08a3,3,0,0,0-2.19,2.07c-.74,1.92-.59,4.85,0,7.19-1.07-.84-2.13-1.66-3.19-2.44a2.26,2.26,0,0,0-2.77.12,1.49,1.49,0,0,0-.45,1.2,1.69,1.69,0,0,0,.7,1.16c2.16,1.6,4.35,3.33,6.43,5.14-.38-.07-.76-.14-1.16-.18a8.56,8.56,0,0,0-5.48.79l-.25.16.07.26c.36,1.43,2.94,2,5,2.29a24.49,24.49,0,0,0,5.33,0,27.22,27.22,0,0,1,6.62,10.15,19.83,19.83,0,0,1,.7,6.8l-.07-.09c-.51-.58-1-1.12-1.31-1.56l-.13-.18c-1.71-2.2-3.31-4.28-6.79-4.75l-.5-.07-.06.42c-.51,3.41,5.1,7.55,8.68,9.83-.19,3.8-.19,7.69,2,11.52a22.33,22.33,0,0,0,2.15,3.11,18.7,18.7,0,0,0-4.54-1.24,8,8,0,0,0-5.12.89l-.36.22.22.34c1.15,1.75,5.58,2.45,7.43,2.68a27.31,27.31,0,0,0,5,.16,35.57,35.57,0,0,1,2.94,3.6,29,29,0,0,1,3.74,8.56,14.53,14.53,0,0,0-6.8-3.37,6,6,0,0,0-1.27,0l-.52,0,.11.44c.79,3.27,6.28,6.51,10.41,8.91,2,4.57,5.14,7.87,9.76,11.35a26.5,26.5,0,0,1-5.55-.15,53.19,53.19,0,0,1-6.48-1.24c-.49-1.16-1-2.32-1.45-3.48-.94-2.29-1.91-4.65-2.94-7l-.18-.41-.47.14c-1.7.5-2.48,1.88-2.17,3.86a13.62,13.62,0,0,0,2.59,5.47c-5.25-1.92-8.53-5.68-11.87-10.06a19.79,19.79,0,0,0,1.28-9.54l-.09-.35-.41-.05a2.8,2.8,0,0,0-2.58.9c-1,1.17-1.24,3.28-1.11,5.35a35.83,35.83,0,0,0-11.81-9.78c-.1-2.76-.83-8.72-5.31-9.25a4.57,4.57,0,0,0-.91,0l-.43,0,0,.36c-.16,1.94,1.57,5.12,3.4,7.45a25.12,25.12,0,0,0-5.29-1.28,17.67,17.67,0,0,0-4.42,0,13.75,13.75,0,0,0-4.51-1.58,4.63,4.63,0,0,0-3.68.93l-.25.21.16.28c.63,1.06,2.6,1.5,3.9,1.68a10.21,10.21,0,0,0-3,2.76,1.47,1.47,0,0,0-.23,1.26,1.82,1.82,0,0,0,.9,1.06A2.16,2.16,0,0,0,67,204.9,7.17,7.17,0,0,1,72.6,202a4.18,4.18,0,0,0-1.6,1,2.23,2.23,0,0,0-.52,2.09l.06.26.29.08a3.71,3.71,0,0,0,.58.11c2.31.28,5.41-1.28,7-2.77a21.57,21.57,0,0,1,2.3.84,27.8,27.8,0,0,1,6.45,3.87c-3.32-.33-7.37.15-8.37,2.65l-.15.36.42.17a3.17,3.17,0,0,0,.9.19,55.59,55.59,0,0,0,10.5-.3,68.68,68.68,0,0,1,4.84,5.85c.59.76,1.18,1.52,1.78,2.27a15.75,15.75,0,0,0-2.17-.44c-2.41-.29-4.33.17-5.4,1.3l-.24.26.25.27a7.23,7.23,0,0,0,4.6,1.86,38.52,38.52,0,0,0,5.46.12l.46,0a24.16,24.16,0,0,0,10.24,6.43A63,63,0,0,0,121.35,231a28.16,28.16,0,0,0,8.47-.1l.08,0h.44c.52,0,1-.12,1.51-.19a2.25,2.25,0,0,0,.45,0,42.55,42.55,0,0,0,11.46,3.08,48.37,48.37,0,0,0,15.17-.73,47.49,47.49,0,0,0,9.37,2.44c2.41.29,3.76,0,4.16-.9a1.22,1.22,0,0,0-.12-1.25c-.55-.76-2-1.28-4.55-1.58-.9-.11-1.88-.18-2.85-.22,2-.62,4-1.32,6.1-2.16a53.4,53.4,0,0,1,8.68-2.7c2.19,1.7,5.75,4,8,4.26a2.21,2.21,0,0,0,1.94-.5A1.23,1.23,0,0,0,190,229c-.48-1.18-3-2.25-5.52-3.07a20.59,20.59,0,0,1,4.09,0,10.79,10.79,0,0,1,2.78.67,5.81,5.81,0,0,1,3.53,3.77,2.13,2.13,0,0,0,2.41,1.24,1.9,1.9,0,0,0,1.19-.74,1.47,1.47,0,0,0,.17-1.27,9.11,9.11,0,0,0-3.33-4.63c2.59,0,5.17-.2,7.11-1.49l.31-.21-.19-.32A4.11,4.11,0,0,0,199.34,221.25Z"/>
  <g>
    <path class="cls-2" d="M150.09,217.6c-14.52-8.06-34-9.92-50-5.51a55,55,0,0,0-8.35,3c-19.75,9.11-19.13,26.16,8.88,33.13,12.27,3,45.57,3.09,56.5-2.33C170.66,239.2,161.82,224.11,150.09,217.6Z"/>
    <path class="cls-3" d="M150.09,217.6c-14.52-8.06-34-9.92-50-5.51a55,55,0,0,0-8.35,3c-9.87,4.55-14.66,11.09-13.47,17.36a54.33,54.33,0,0,0,11.79,4.28c12.27,3,45.57,3.09,56.51-2.33,7.38-3.66,8.08-9.82,5.3-15.72C151.3,218.31,150.71,217.94,150.09,217.6Z"/>
  </g>
</svg>
