<svg id="Layer_1" data-name="Layer 1" xmlns="http://www.w3.org/2000/svg" width="444.71" height="580.24" viewBox="0 0 444.71 580.24">
  <defs>
    <style>
      .cls-1 {
        fill: #295612;
      }

      .cls-2 {
        fill: #423628;
      }

      .cls-3 {
        fill: #564837;
      }
    </style>
  </defs>
  <g>
    <path class="cls-1" d="M401.4,66.66C394.21,68.9,360.69,80.57,373,91.2c2.71,2.65,6.3,4.11,9.07,7.08,6.73,6.57,5.76,15.48.47,22.35-6.88,9.27-16.79,15.44-23.83,24-1.62,2.13-3.34,4.59-3.11,7.07,0,.23,0,.2.08.53l.1,1c.33,3.22,1.65,7.08,3.82,8.94,4.36,3.9,11.64,3.77,17.5,2.94,3.91-.55,7.74-1.8,11.75-2,27-1.63,36.44,24.94,23.75,45.89a52.63,52.63,0,0,1-15,16.17,181.63,181.63,0,0,1-15.94,9.34c-4.11,2.31-8.27,4.16-11.07,6.68-.3.34,0,.14,0,.13s-.09.41-.12,1.33c.24,12.37,5.26,24.33,6,37.1,2.62,33.13-21,49.57-50.56,55.58a3.59,3.59,0,0,0-.41.11c-.25.05-.15.08.2-.12a7.13,7.13,0,0,0,2.09-1.78,8.31,8.31,0,0,0,1.94-5.61c0-.12,0,.12.13.5a84.39,84.39,0,0,0,3.55,8.52c3.68,8.15,7.2,17,7.51,26.86.72,13.82-6.49,26.94-16.84,35.48-6.1,5.26-13,9.75-21.39,11.3-11.55,2.24-21.12-2.93-30-8.85a16.3,16.3,0,0,0-2.23-1.15c-.32-.12,0-.08.11-.15s-.07-.08-.65.18a13.06,13.06,0,0,0-2.33,1.59,51.36,51.36,0,0,0-6.14,6.42c-3.19,3.7-7.29,7.94-12.4,10-6,2.71-13.43,1.28-18.31-2.42-3-2-3-2.5-5.24-3.4-2.37-.74-5.59,0-8.18.68-5.3,1.47-9.94,3.86-12,8.95-2.13,5.42-1.45,11.8-.88,18.33.18,3.45.69,7.12-1,10.89a9.43,9.43,0,0,1-.47.9,8.74,8.74,0,0,1-.59.88,12.3,12.3,0,0,1-2.77,2.59c-3.85,2.63-7.53,4.41-10.91,7.32-6.53,5.32-8,11.67-6.39,19.65,1.68,9.8,1.22,20.69-3.64,29.55a53.22,53.22,0,0,1-6.38,9.71l-1.36-.85c5.94-9.4,9-20.59,6.65-31.57-.65-3.64-1.79-7.18-2.41-11-2-12.64,6.83-22.1,16.63-28.44a21.9,21.9,0,0,0,3.11-2.36,1.55,1.55,0,0,0,.27-.71c.33-5.33-1.58-10.95-1.64-16.48-.53-7.7,1.38-16.15,7.17-21.67s13.21-8.38,21-9.5a20.27,20.27,0,0,1,11.69,2,49.42,49.42,0,0,1,4.9,3c1.34.87,2.73,1.66,4.26,1.4,3.1-.76,5.61-4,7.69-6.5a61.8,61.8,0,0,1,7.76-8.47c18.42-15.91,25.58,7,41.95,4.23,9.12-1.91,20.12-12.08,23.47-20.58,2.74-6.71,2-14.17-.29-21a100.47,100.47,0,0,0-4.14-10.26c-4-8.72-10.6-20.89,3.63-23.78,28.82-6.11,43.84-18.86,37-49.95-1.43-7.3-3.19-14.68-3.85-22.32-.31-3.91-.33-8,1.18-11.75,3.17-7.5,11.64-10.43,18.18-14.1,3.33-1.72,6.63-3.46,9.88-5.28a40.88,40.88,0,0,0,15.93-14.48c5.61-8.64,6.33-22.95-6-25.53a25.42,25.42,0,0,0-10.62.39A59.83,59.83,0,0,1,372.73,178c-12.33.22-24.1-5.33-27-18.21-.83-3.86-1.38-7.89-.37-11.77a25.18,25.18,0,0,1,6.08-10c5.29-5.63,11.52-9.95,17.34-14.59,4.17-3.47,8.73-6.89,10.86-11.91,3-7.77-5.83-12.2-10.33-16.92-2-2.18-3.69-5.08-3.57-8.2.78-10.11,16.31-15.39,24.39-18.24,3.59-1.17,7.21-2.19,10.92-3l.34,1.56Z"/>
    <path class="cls-1" d="M169.89,522c-1.68-10.77.69-20.89,6.09-30.21a48.65,48.65,0,0,0,2.32-5.06c5-11.4,19.74-10.75,29.14-6.08.21.11.35.17.69.37l-4.46-1.31h-.18s0,0,0,0,0,0,0,0l.09-.05.26-.13a2.07,2.07,0,0,0,.45-.3c.22-.2.2-.36.1-.39s-.22,0-.25-.21a17.41,17.41,0,0,0-1.24-5.06c-5-13,1-23.69,15-24.43a28.31,28.31,0,0,0,5.81-.7c.23-.11-.29-.13-1.14.46a5.24,5.24,0,0,0-1.62,1.9c-.09.15-.11.22-.13.12.34-4.53.43-8.83.41-13.44a16.69,16.69,0,0,1,8.54-15.53c2-1.28,4.12-2.6,6-4,1-.73,2.25-1.63,3.15-2.44a6.52,6.52,0,0,0-1.73,3.11,9.78,9.78,0,0,0,0,5.12,7.41,7.41,0,0,0,1,2.25c.17.26.11.18,0,0l-.8-.73-1.22-1.06c-14.51-11.57-22.49-25.88-21.35-45.24.53-12.29,10-21.5,17.7-29.58,4.59-5,8-8.24,10.22-13.46,2.14-5.48-6.28-12.81-10.69-16.55a121.35,121.35,0,0,0-11.16-7.94l2.43,1.22a32.23,32.23,0,0,1-12.75-9.35A37.1,37.1,0,0,1,206,263c5.22-10.4,15.47-18.06,27.16-19.32,5.65-.73,10.64-.43,15.72-1.88.61-.17,1.24-.34,1.86-.53a5.86,5.86,0,0,0-1.43,1.67,3.45,3.45,0,0,0-.46,1.35c0,.63.18.3.14-.39-.53-5.11-2.68-9.95-4.18-15.29s-3.43-12.7-.66-19.2c3.9-8.69,15.17-13.09,24-10a23.53,23.53,0,0,1,5.69,2.69l-.74-.36c17.27,7.86,32.39,7.43,30.34-15.72-.62-7.74-6.29-24.42-15.91-22.4l-.54-1.51c20.67-6.71,40,68.14-16.37,45.82-5.66-3-12.84-2-16.77,3.3C248,219.38,263,237,260.51,247.13c-1.13,5.32-7.19,6.52-11.62,7.93-8.34,2.38-18,1.06-24.5,7.73a22.16,22.16,0,0,0-6,23.09C220,291.25,223.91,296,229.06,298a137.24,137.24,0,0,1,12.87,9c13.54,10.75,23.43,25,11.9,41.41-5.82,8.61-14.32,14.95-20.41,23.08a19.56,19.56,0,0,0-3.22,6.33,29.71,29.71,0,0,0-.37,7.24c.24,10.14,5.41,19.12,13,25.65,2.9,3,9.41,6.67,8.18,11.72-.66,2.25-2.58,3.77-4.27,5-3.51,2.65-7.63,4.76-11.2,7.17-1.08,1.17-.73,2.8-.94,4.51-.35,5.05-.51,10.76-1.72,15.64-3.33,9.91-17.1,3.22-20.11,8.24-1.59,3.8,1.82,9.06,1.57,14.56a10.8,10.8,0,0,1-10.62,11.31h-.33l-.34-.21c-7.11-4.36-16.71-6.56-21,2.52-3.22,5.28-7,10.31-8.67,16.26A46.45,46.45,0,0,0,171.49,522l-1.6,0Z"/>
    <path class="cls-1" d="M245.85,195.91c-2.76-.63-8.36-1.73-9.51,1.63-1,5.21,2.45,11.31,4.58,16.19,2.25,5.14,3.87,10.46,3,16.52-.64,5.88-5.16,11.73-9,15.44-3.65,3.69-6.56,7.19-6.67,12.11-.23,3.43.66,5.8,1.78,9.36A120,120,0,0,1,234,281a100.77,100.77,0,0,1,2.13,22.71c.23,10.93-2.52,23.72-15.36,26.2-9.65,1.72-17-4.86-24.69-7.91-5.69-2.29-9.36-1.8-14.18,1.06a17.11,17.11,0,0,0-4.73,4,6.64,6.64,0,0,0-1.32,4.25,25.29,25.29,0,0,0,1.69,8.4c6.15,18.18,26.63,41.49,9.8,60-5.27,5.23-11.8,10-15.33,15.77-.13.19-.24.66.05,1.65,1.33,4,4.92,8.23,7.93,11.5a66.1,66.1,0,0,1,10.49,14.12,77.19,77.19,0,0,1,9.28,43.26c-1.09,14.16-7.94,30.61-22.58,34.95l-.68-1.45C189,513.61,193.27,498.79,193,486c-.4-17.52-6.94-35.54-19.6-47.88-8-7.27-19-18.54-12.58-30.14,3.28-6.15,8.56-10.87,13.29-15.73l2.38-2.39c2.22-2.15,2.84-5,2.41-8.13-.55-4.15-2.37-8.26-4.26-12.25-3.92-8.11-8.6-15.91-11.73-24.46-5.9-15.4-2.81-28.1,12.1-36.38,11.21-6.55,22.82-4.24,33.44,2.13,2.52,1.17,8.25,5.58,10.64,3.92,1.26-1.09,1.73-3.47,2-5.21a97,97,0,0,0,.84-13.23c.13-9-1.5-17.62-3.72-26.35-2.45-9-1.35-19.54,5.42-26.41,6.58-6.85,14.17-10.43,12.41-21.22-1.07-6.67-4.33-12.89-4.51-19.76-.22-3.58.67-8.12,4.5-9.47,3.53-1.19,7.25,0,10.46,1.47l-.72,1.43Z"/>
    <path class="cls-1" d="M191.32,190.58c-4,10.36-5.91,25.27,4.25,32.44,8.55,5,18.73,12.39,17.73,23.78-1.09,9-7.52,14.44-13.9,19.24-4.11,2.77-8.8,5.49-8,11a11.87,11.87,0,0,0,4.44,7.31,5.28,5.28,0,0,0,2.33.92c10.57,2.27,21.85,2.61,32.46,7.37,17.72,7.54,23.3,24.67,17.71,42.36-2.38,8.18-8.08,16.21-13.66,21.49a117.28,117.28,0,0,1-12.33,10.09c-3.83,2.83-7.25,5.41-9.82,7.75-2.91,2.69-5.11,5.09-5.56,8.91a15.44,15.44,0,0,0,0,3.33,5.18,5.18,0,0,0,.77,2.49c2.67,4.48,6.73,7.82,11.36,11.76C227,407.36,236,413.93,242,423c9.15,13.6,5,28.35-6.43,38.77A46.94,46.94,0,0,1,221,471.4c-9.47,4-19.23,4.86-28.45,7.21-8.18,1.94-13.89,6-15.7,14.19-1.91,8.58-.6,18.27.74,27.13l-1.52.47a110.29,110.29,0,0,1-3.52-13.83c-3.09-16.63.16-29.44,17.23-35.43,8.84-3.32,18.28-4.82,26.72-9,7.51-3.61,15.69-11.46,17.85-19.56,2.17-9.45-6-16.55-12.63-22-9.11-7.54-20-13.61-26.64-23.79-4-6.37-4.34-14.76-1.85-21.77,3.51-9.42,12-15.34,19.55-21.13,7.3-5.54,14.9-11.34,18.91-19.69,2.66-5.89,4.42-13.15,1.89-19.33-4.81-10.37-19.33-12.06-29.44-14.43-11.07-2.18-18.62-4.38-23.15-15.84-2.82-7.06-1.39-15.69,4.16-21,3.36-3.55,8-5.26,11.89-8,3.52-2.51,7.25-5.71,8.06-10.05.84-6.88-5.44-12.2-10.23-16.29-8.89-6.12-11.63-15.49-9.69-25.8a48,48,0,0,1,4.7-13.6l1.4.77Z"/>
    <path class="cls-1" d="M158.18,263.5c2.13.17,3.37,1.95,4.68,3.34a30.8,30.8,0,0,1,6.34,14.57A23.85,23.85,0,0,1,161,302.82c-2.87,2.43-6.15,3.84-8.82,5.81-4.67,3-4.39,8.15-3.87,13.4.93,4.16,2.92,7.89,4.87,12.23,3.11,6.95,6.28,13.12,7.6,21.42,2.06,12.62-5,23.49-16.63,28.18-5,2.27-8,2.72-10.74,4.84-.24.26-.08.34,0,.32s.08,0,0,.42a13.11,13.11,0,0,0-.16,1.83c0,.29,0,1.68,0,1.93.07.63.05.86.45,1.25,5.29,4.41,12.14,6.13,18.8,11.5,18.59,15,11,36.78,1,53a41.35,41.35,0,0,0-4.11,8.58c-.6,2.15.53,4.15,1.81,6.12a72.08,72.08,0,0,0,5.79,6.68c7.39,8.54,11.4,19.53,12.93,30.55a54.62,54.62,0,0,1,.59,10.54l-1.55.4a92.55,92.55,0,0,0-7.53-18.08,59.13,59.13,0,0,0-11.68-15.4c-5.23-4.34-10.67-8.91-12.77-15.71s.82-13.94,3.81-19.95c4-8.51,9.41-17.67,7.15-27.13-3.23-9.64-14.47-11.18-22.3-17a19.45,19.45,0,0,1-6.85-8.15c-2.45-6.26-1.76-15,2.27-20.51,4.23-5.76,12-6.92,18.14-9.13,6.54-2.19,9.93-6.7,9-13.69-1.38-11.5-8.41-21.5-10.16-33.08-.32-5.19.32-10.49,3-15.16A17.48,17.48,0,0,1,149,302c3.81-1.87,7.75-2.65,10.73-5.42,6.7-6.1,7.06-16.34,3.57-24.27a18.82,18.82,0,0,0-4.46-6.86,1.67,1.67,0,0,0-.63-.34v-1.6Z"/>
    <path class="cls-1" d="M390.65,463.5c-10.88,8.72-23.93,16-38.14,17.48-12.81.73-22.28-8.84-31.83-14.68-8.7-5.67-14.33-7.6-24.52-5.27-16.09,3.29-13.7,18-29.41,24.45-6.47,2.54-13.76,2.37-20.38,1.64-7.34-.61-13.77-2.79-19.59-.31-5.11,2.81-6.16,9.87-8.48,14.93-7.28,17.4-25.09,31.32-43.53,20l-.83-.49a2.25,2.25,0,0,1-.33-.19c-.1-.08-.13-.06.07-.29l-1.14-1.13a2.65,2.65,0,0,1,1.69-.68c4.55-.43,9.72-.84,13.63-3,10.37-5.66,13.12-18.15,17.61-28.42,9.45-19.94,25-19,43.39-13.34,9.13,2.62,19.14,5,26.21-2.34,3.61-3.91,6.55-9,10.59-12.83,10-9.92,21-14.66,34.81-9.12,8.63,3.58,14.25,9.08,21,14.19,3.43,2.56,6.93,5.17,10.87,5.76a42.83,42.83,0,0,0,7.1-.2c10.19-1.09,20.49-4.29,30.4-7.52l.8,1.38Z"/>
  </g>
  <g>
    <path class="cls-2" d="M253.4,512.18c-25.32-14-59.28-17.3-87.14-9.6a97.64,97.64,0,0,0-14.56,5.24c-34.43,15.88-33.35,45.62,15.49,57.77,21.39,5.29,79.45,5.39,98.52-4.06C289.26,549.85,273.85,523.53,253.4,512.18Z"/>
    <path class="cls-3" d="M253.4,512.18c-25.32-14-59.28-17.3-87.14-9.6a97.64,97.64,0,0,0-14.56,5.24c-17.21,7.93-25.55,19.33-23.48,30.27a94.52,94.52,0,0,0,20.56,7.46c21.39,5.29,79.46,5.39,98.53-4.07,12.86-6.38,14.08-17.11,9.23-27.39C255.51,513.42,254.46,512.78,253.4,512.18Z"/>
  </g>
</svg>
