<svg id="Layer_1" data-name="Layer 1" xmlns="http://www.w3.org/2000/svg" width="281.48" height="296.47" viewBox="0 0 281.48 296.47">
  <defs>
    <style>
      .cls-1 {
        fill: #317889;
      }

      .cls-2 {
        fill: #6a9906;
      }

      .cls-3 {
        fill: #423628;
      }

      .cls-4 {
        fill: #564837;
      }
    </style>
  </defs>
  <g>
    <g>
      <path class="cls-1" d="M145.94,81.35c-2.54-4.33-5.41-6.15-7.67-5a2.87,2.87,0,0,0-1.54,1.9c-.44,1.64.18,3.91,1.85,6.77a21.65,21.65,0,0,0,4.59,5.19,38.78,38.78,0,0,0,4.61,3.41l.89.55v-1C148.66,92.85,148.62,85.93,145.94,81.35Z"/>
      <path class="cls-1" d="M157.77,102.88a5.68,5.68,0,0,0-.37-1.5,3.84,3.84,0,0,0-2.16-2.32c-1.82-.68-3.41.25-4.66,1.36-1.7,1.53-6.87,5.62-4.85,8.73C148.37,113.22,158.19,107.21,157.77,102.88Z"/>
      <path class="cls-1" d="M153.35,118.18c-1.39-2.32-4.43-1.83-6.55-1.33-1.67.41-8,3.62-8,5.83,0,.62.49,1.16,1.71,1.53,2.95.91,9.88.84,12.42-1.24C154.41,121.77,154.35,119.87,153.35,118.18Z"/>
      <path class="cls-1" d="M138.84,131.07a22.78,22.78,0,0,0-3.7,1.75c-1.95,1.19-3.38,2.82-1,4.54s6,.67,8.4.49c2.08-.18,5.15-1,5.53-3.53C148.83,129.39,141.34,130.07,138.84,131.07Z"/>
      <path class="cls-1" d="M137.11,143.8a14.82,14.82,0,0,0-8.73,1.61,10.66,10.66,0,0,0-1.11.69c-3.78,2.64-.61,4.47,2.74,5.29s9.1,1.23,11.06-2.07C142.51,146.91,139.67,144.16,137.11,143.8Z"/>
      <path class="cls-1" d="M126.58,153.52h-.22c-3,.06-10,1.34-10.15,4.68-.24,5.49,15.58,3.21,17.08-.07C134.94,154.55,129,153.52,126.58,153.52Z"/>
      <path class="cls-1" d="M96.93,216.4c-5.19-.88-16.07,4.52-17.53,6.84-2.77,4.38,5.87,4,8.22,3.7,4.23-.49,12.13-2.14,12.07-7.51A2.91,2.91,0,0,0,96.93,216.4Z"/>
      <path class="cls-1" d="M124.1,169.19a2.92,2.92,0,0,0-1.46-1.46,13.8,13.8,0,0,0-7-.92c-2.18.36-13,2.68-7.26,5.87,1.79,1,4.33,1,6.29,1.17C117.09,174.07,125.62,173.21,124.1,169.19Z"/>
      <path class="cls-1" d="M111.75,177.09a13.28,13.28,0,0,0-5.15-.14c-2.79.56-10.42,2.27-9.2,6.34.71,2.36,6.19,1.94,7.89,1.39,2.66-.87,5.34-1.05,7.61-2.82C116.25,179.26,114.46,177.72,111.75,177.09Z"/>
      <path class="cls-1" d="M107.1,189.8a5,5,0,0,0-1.38-.43c-2.64-.42-5,.8-7.52,1.29-1.71.33-10,2.27-6.94,5.39,1.44,1.48,6.42.85,8.28.62,2.48-.32,6.56-.31,8.41-2.07S109,190.74,107.1,189.8Z"/>
      <path class="cls-1" d="M104.59,205.19a5.35,5.35,0,0,0-1.84-1.13c-4.24-1.62-11.18.73-14.6,1.77-1.57.47-4.39,1.13-4.28,3.12.22,3.8,6.1,3.4,8.8,3.21C95.12,212,110.25,210.62,104.59,205.19Z"/>
      <path class="cls-1" d="M146.11,105.67c-.39-3.71-4-10.84-7.89-11.71a2.08,2.08,0,0,0-1.79.35c-2.8,2.08-1.43,5.31,1.08,8.33C139.15,104.6,146.82,112.62,146.11,105.67Z"/>
      <path class="cls-1" d="M139.65,114.3c-.77-2.23-1.8-3.69-3-4.34a3,3,0,0,0-2.44-.19c-6.57,2.36,3.32,16.55,5.67,12.91C141.08,120.78,140.36,116.42,139.65,114.3Z"/>
      <path class="cls-1" d="M134.48,133.35a13.4,13.4,0,0,0-2-8.17c-.31-.43-3-4.23-5.25-2.81-1.11.72-2,2.57,0,7.31l0,.11C128.38,132.47,133.86,139.47,134.48,133.35Z"/>
      <path class="cls-1" d="M123.47,137.1c-.39-.51-3.89-4.82-6.41-3.52-3.47,1.8-.22,7.36,1.48,9.63s8.7,8.87,8.21,2.4A17.22,17.22,0,0,0,123.47,137.1Z"/>
      <path class="cls-1" d="M107.27,146a2.87,2.87,0,0,0-1.25,2.1c-.16,1.47.67,3.25,2.45,5.27,1.52,1.73,5.86,5.26,8.44,4.85a1.89,1.89,0,0,0,1.1-.51c1.07-1.08,0-3.47-.62-4.82C116.06,149.87,111.64,143,107.27,146Z"/>
      <path class="cls-1" d="M69.42,208a6.83,6.83,0,0,0-2.39-.21A2.66,2.66,0,0,0,64.85,209c-1.9,3.2.38,6.85,2.68,9.42C69,220,77,228.85,78.7,223.86c.65-1.92.07-4.68-1.16-7.36C75.71,212.59,72.46,208.83,69.42,208Z"/>
      <path class="cls-1" d="M106.93,162.63c-1.16-3.13-4.14-8.76-8.46-6s4.3,12.32,7.12,13.66c4.59,2.18,2.71-3.94,1.7-6.73C107.15,163.2,107,162.86,106.93,162.63Z"/>
      <path class="cls-1" d="M88.67,168.81c-2.52,3,1.89,8,4,10.34,1.24,1.43,5,4.86,6,1.6.32-1-.06-3-.86-5.07C96.84,173.18,92.37,164.37,88.67,168.81Z"/>
      <path class="cls-1" d="M80.87,180.48c-1.86,2.45.63,6.11,2.21,8.22,1.36,1.81,4.57,6.39,7.22,6.3s2.43-3.55.82-7.19C88.8,182.5,83.67,176.8,80.87,180.48Z"/>
      <path class="cls-1" d="M82.45,198.76c-1-3-3-6.14-6.5-7.1a7.33,7.33,0,0,0-1.24-.23,2.64,2.64,0,0,0-2.44.73c-3.06,3.51,1.49,10.17,4.09,12.91,1.26,1.33,3.66,4.34,5.83,4,3.57-.52,1.86-5.84,1.16-7.86C83,200.31,82.69,199.45,82.45,198.76Z"/>
    </g>
    <g>
      <path class="cls-1" d="M77.13,70.86c-4.5-4.14-6.79-2.73-7.57-1.93s-1.89,2.66,1.23,6.14c.35.38.74.78,1.17,1.18,3.31,3,9.38,4.42,9.64,4.47l.92.2L82.25,80C82.18,79.78,80.45,73.91,77.13,70.86Z"/>
      <path class="cls-1" d="M92.28,87c1.73-2.45,2.72-5.53.52-7.44-1.69-1.47-4.36.74-5.72,1.62-3.7,2.38-4.67,12.33,1.45,9.35A11.83,11.83,0,0,0,92.28,87Z"/>
      <path class="cls-1" d="M96.84,98c1.26-5.27-6.59-2.65-8.27-1.36-2,1.51-6.56,7.28-2.44,8.68,1.31.44,4.23-1.07,6.7-2.93C94.85,100.86,96.57,99.1,96.84,98Z"/>
      <path class="cls-1" d="M95.51,114.36c-.26-1.42-1.66-2.58-4.33-2.58s-6.61,1.41-8.18,3.77C80,120.1,96.73,120.84,95.51,114.36Z"/>
      <path class="cls-1" d="M88.44,124.16c-3-2-7.6,1.23-9.65,3-1.59,1.39-5.68,6.61-.94,7.11a11,11,0,0,0,4.65-1.11c1.46-.6,2.87-1.29,3.9-1.66C89,130.58,92,126.53,88.44,124.16Z"/>
      <path class="cls-1" d="M82.37,137.4c-2.85-.06-6.84,1.79-8.89,3.48-4.48,3.71,1,5.17,5,4,3.08-.9,6.16-2.59,6.68-3.84C86.3,138.3,85.06,137.44,82.37,137.4Z"/>
      <path class="cls-1" d="M72.88,213.36c-4,.54-11.24,9.18-9.92,13,2.77,8,16.26-8.95,12.67-12.47C75.15,213.38,74.29,213.18,72.88,213.36Z"/>
      <path class="cls-1" d="M81.37,152.15c-2.3-5-9.8-.26-12.12,1.49-2.79,2.09-4.39,4.85.69,5.22a14.15,14.15,0,0,0,2.56-.15C76.68,158.14,83.19,156.1,81.37,152.15Z"/>
      <path class="cls-1" d="M71.88,168.73c-1.67.46-9.34,4.28-7.92,6.66.94,1.57,3.21,1.89,5.68,1.47,4.12-.69,8.83-3.43,9-5.92C79.05,166.7,74.33,168.06,71.88,168.73Z"/>
      <path class="cls-1" d="M72.4,180.93c-2.88,0-7.72,3.69-9.31,5.75-2.46,3.18-.22,4.93,3.5,4.33a12.18,12.18,0,0,0,2.57-.73C72.09,189.13,80.23,181,72.4,180.93Z"/>
      <path class="cls-1" d="M69.5,196.49c-3.76,1.06-8,4-9.19,7.59-1.77,5.35,4.65,3.45,7.52,1.9l.32-.17c2.57-1.4,6.69-3.75,7.59-6.66C77.06,194.85,72.25,195.71,69.5,196.49Z"/>
      <g>
        <path class="cls-1" d="M85.86,92.41c0-2.26-6.26-4.94-7.8-5.49-4.38-1.58-8.13,1.86-3.26,5.25,1.78,1.23,10.39,3.16,11,.53A1.36,1.36,0,0,0,85.86,92.41Z"/>
        <path class="cls-1" d="M76.11,96.89c-4.42-2.1-3.65,1.71-1.93,4.63,1.92,3.29,5.87,8.22,9.61,5.09C87.32,103.68,78,97.79,76.11,96.89Z"/>
        <path class="cls-1" d="M80.9,119.4c.59-2.83-6-11.5-8.23-8.34S76,123,79.74,121.23A2.42,2.42,0,0,0,80.9,119.4Z"/>
        <path class="cls-1" d="M74.66,132c-.62-2.92-5.74-11-9.45-9.28-5.1,2.33,4.87,12.75,8.38,12.59C74.61,135.28,75.17,134.39,74.66,132Z"/>
        <path class="cls-1" d="M65,138.91c-3.65-1.71-8.22-.73-6.16,3.75.5,1.07,2.33,2.26,4.41,3.07,3.39,1.32,7.42,1.62,7.29-1.28C70.41,142.22,66.87,139.8,65,138.91Z"/>
        <path class="cls-1" d="M63.46,227.13c-.69-3.46-9.32-9.95-13-8.22-5.11,2.36,2.86,9,5.61,10.06,2.47,1,7.69,2.73,7.52-1.05A6.09,6.09,0,0,0,63.46,227.13Z"/>
        <path class="cls-1" d="M59,150.81c-2.59-.88-5.27-1-5.33,2.2,0,2.65,5.07,5.74,8.93,6.39C71.09,160.83,62.55,152,59,150.81Z"/>
        <path class="cls-1" d="M50.68,165.81c-3.37,1.31-1.84,4.23,1,6.6s7.35,4.32,9.14,3.14a1.75,1.75,0,0,0,.81-1.59C61.48,170.83,54,164.54,50.68,165.81Z"/>
        <path class="cls-1" d="M48.78,183.52c-2.52,1.38-1.46,3.89.81,6.08,2.87,2.75,7.65,5,9.58,3.73C63,190.82,53,181.21,48.78,183.52Z"/>
        <path class="cls-1" d="M46.76,196.51a2.24,2.24,0,0,0-1.6,1.57c-.91,3.84,5.32,7.94,10,9.32,2.62.78,4.76.7,4.87-.76C60.38,201.77,51.71,194.69,46.76,196.51Z"/>
      </g>
    </g>
    <g>
      <path class="cls-1" d="M175.69,154.28c.41-2.08-1.27-3.24-2.81-3.69s-9.84-1.15-9.47,2.38c.27,2.61,8.56,4.73,11.31,2.78A2.36,2.36,0,0,0,175.69,154.28Z"/>
      <path class="cls-1" d="M124.61,184.11c-1.18-3.22-4-4.44-5.71-1.15-2.28,4.45-1.49,10,1,14.44,1.94,3.47,4.33,5.21,5.4.39a20.79,20.79,0,0,0,.47-3.81A27.38,27.38,0,0,0,124.61,184.11Z"/>
      <path class="cls-1" d="M98.62,213.64a9.65,9.65,0,0,0-2.37-7.25c-1.72-1.77-4.24-2.54-5.67-.27C87.85,210.48,92.36,219,96,222.28c3.08,2.8,3.36-.39,3.13-3.69C98.94,216.48,98.59,214.31,98.62,213.64Z"/>
      <path class="cls-1" d="M111,195.3c-2.47-1-3.64,1.54-4.09,3.13a18.63,18.63,0,0,0-.48,7.69c.2,1.11.81,5.06,2.08,5.65,3.18,1.48,5.73-6.35,5.07-11.8C113.35,197.75,112.55,195.94,111,195.3Z"/>
      <path class="cls-1" d="M131.16,170.38c-2.14-2.87-4.52-1.6-5.71,1.33-1.51,3.73.17,7.84,1.89,11.16,1.37,2.68,3.8,7.07,5.49,1.92a20.94,20.94,0,0,0-.11-11.1A10.69,10.69,0,0,0,131.16,170.38Z"/>
      <path class="cls-1" d="M157.17,157.8a13.88,13.88,0,0,0-7.72.09c-3,.9-4.52,2.92-.85,4.17a12.3,12.3,0,0,0,8.46-.78c1-.48,1.75-1.13,1.87-1.78S158.59,158.25,157.17,157.8Z"/>
      <path class="cls-1" d="M148.31,149.52a13.69,13.69,0,0,0-3.23,7c-.49,3.11.68,5.34,3.39,2.56a12.21,12.21,0,0,0,2.93-8,3.14,3.14,0,0,0-.8-2.46C150.09,148.27,149.33,148.43,148.31,149.52Z"/>
      <path class="cls-1" d="M143.09,169.39c-3.48,1.14-6.6,3.21-5.7,5.35,1.34,3.16,8.62,0,10.73-.91,1.75-.76,4.34-2.17,3-4.18C149.58,167.38,145.25,168.69,143.09,169.39Z"/>
      <path class="cls-1" d="M122.87,199.72c-1.84,2.57,3.74,3.57,5.48,3.75.77.08,1.9.2,3.09.22,2.78.06,6-.38,6.28-2.87C138.38,195.51,124.77,197.08,122.87,199.72Z"/>
      <path class="cls-1" d="M108.55,221.65l-.29,0c-3.71-.45-9.33.94-11.62,3.49-3.29,3.64,12,4.62,14.38,3.89C118.09,226.81,114.61,222.58,108.55,221.65Z"/>
      <path class="cls-1" d="M123,210a12,12,0,0,0-4.35-.86c-3.23,0-12.74,1.71-10.68,6,2.23,4.68,11.92,1.88,15.52,1.26,2.1-.37,3.87-.21,3.47-2.75C126.72,212,124.69,210.69,123,210Z"/>
      <path class="cls-1" d="M144.13,188.05a7.81,7.81,0,0,0-2.76-.6c-4.49-.43-12.51,0-12.33,2.58.22,3.46,8.92,4.57,11.42,4.42C144.21,194.21,148.83,191.12,144.13,188.05Z"/>
    </g>
    <path class="cls-1" d="M25.55,177.83v.08C25.67,176.69,25.61,177.22,25.55,177.83Z"/>
    <path class="cls-1" d="M25.55,177.83a.51.51,0,0,1,0,.13s0,0,0-.05Z"/>
    <path class="cls-1" d="M25.55,177.91s0,0,0,.05C25.47,178.58,25.42,179.15,25.55,177.91Z"/>
    <path class="cls-1" d="M42.1,210.61l.69.54Z"/>
    <path class="cls-1" d="M37.5,222.28c.37.54-.78-1.18,0,0Z"/>
    <path class="cls-1" d="M25.34,194.92Z"/>
    <path class="cls-1" d="M25.34,194.92h0C24.81,194.17,25.16,194.67,25.34,194.92Z"/>
    <g>
      <path class="cls-1" d="M54.6,173.9c-1.94-1.39-5.17-2-7.1-.63-.91.65-5.29,4.28-2.28,5.12,2.64.74,6.21,2,8.68.5l.11-.06C55.83,177.66,56.89,175.52,54.6,173.9Z"/>
      <path class="cls-1" d="M38.9,171.19A8.74,8.74,0,0,0,35,169c-1.39-.28-3,.37-2.57,1.91a8.88,8.88,0,0,0,2.86,3.81,28.56,28.56,0,0,0,3.77,2.8c1.48.95,3,1.81,4.6,2.64-.06-.39-.13-.76-.2-1.15A13.83,13.83,0,0,0,38.9,171.19Z"/>
      <path class="cls-1" d="M40.3,206.48a5.79,5.79,0,0,0-2.06-3.56c-1.84-1.74-4.91-3.4-7.42-3.2-1.24.09-2.38,1-1.91,2.37s2.17,2.72,3.43,3.53a19.25,19.25,0,0,0,5,2.15c1.46.44,2.53.89,2.9.21A2.49,2.49,0,0,0,40.3,206.48Z"/>
      <path class="cls-1" d="M52.79,193.84c-1.78-2.91-7.43,1.3-8.66,2.31A15.31,15.31,0,0,0,41,199.74a2.48,2.48,0,0,0-.59,1.53c.13.83,1.29,1.11,2,1.08,2.45-.11,5.38-.65,7.23-1.9S54.49,196.62,52.79,193.84Z"/>
      <path class="cls-1" d="M45.62,231.16a9.3,9.3,0,0,0-5.06-2.61c-2.16-.45-4.83-.41-6.32.44-3.11,1.76,1,4.25,4.14,5a22.19,22.19,0,0,0,6.47.27c1.24-.07,1.8-.38,1.91-.87S46.41,232.07,45.62,231.16Z"/>
      <path class="cls-1" d="M47.25,219.23a7.31,7.31,0,0,0-1,3.89c-.1,1.45-.68,2.81-.78,4.24-.08,1.16,1.29,1.57,2.34.91a11.94,11.94,0,0,0,3.13-3.38c1.56-2.15,4.32-5.47,2.78-8.16C52.24,214.22,48,218.13,47.25,219.23Z"/>
      <path class="cls-1" d="M53,205.18s0,0,0,0c-.77-3.19-4.62-.91-6.08,0a12.08,12.08,0,0,0-4.21,4.31c-.53.85-1.68,2.18-1.08,3.32,1.35,2.63,5.68-.26,7.16-1.15C50.94,210.33,53.73,208.29,53,205.18Z"/>
      <path class="cls-1" d="M35.05,217.32c-2.43-.58-5.39-.68-6.75,1.56-1.69,2.76,3.38,4.07,5.46,4.37,1.62.25,9.64.1,7.47-3.12C40,218.37,37.05,217.79,35.05,217.32Z"/>
      <path class="cls-1" d="M54.83,184c-.2-3.27-4.21-2.06-6-1.53a11.49,11.49,0,0,0-4.87,3.1c-.78.81-2.41,2.05-2,3.43.89,3,5.83,1.08,7.6.5C52.05,188.67,55,187.2,54.83,184Z"/>
      <path class="cls-1" d="M41.07,191.68c.14-2.3-2.1-4.91-3.52-6.68-1.57-2-4.22-4.27-6.69-3s.75,5.53,2,7c1.08,1.2,7.93,6.78,8.16,2.71Z"/>
      <path class="cls-1" d="M52.78,161.58a9,9,0,0,0,.1-4.35c-.32-1.17-1.22-2.75-2.52-2.64-2,.16-3.09,4-3.49,5.74-.35,1.52-1.16,7.94,1.75,7.25h0C50.83,167.06,52.28,163.68,52.78,161.58Z"/>
    </g>
    <path class="cls-1" d="M161.15,214.13c.29,1.12-.17-.64,0,0Z"/>
    <path class="cls-1" d="M144.79,214.81c2.61,2.16-.27-.23,0,0Z"/>
    <path class="cls-1" d="M145.57,79.85a24.77,24.77,0,0,1,1.92,5.89,42.51,42.51,0,0,1,.8,6.17l.06,3.11c0,1-.12,2.08-.17,3.11a53.65,53.65,0,0,1-.76,6.19,85.87,85.87,0,0,1-8.17,23.52c-1,1.83-1.88,3.71-2.91,5.52l-3.26,5.32c-.55.88-1.07,1.79-1.65,2.65l-1.8,2.54L126,149c-2.52,3.3-5.2,6.47-7.79,9.72l-4,4.72-3.85,4.8C100.3,181.06,91.3,194.91,85.17,210a80.86,80.86,0,0,0-5.93,23.31,46.19,46.19,0,0,0,.39,11.82,26.39,26.39,0,0,0,4.13,10.63l-3.5.85a64.85,64.85,0,0,1,2.41-9.17,84,84,0,0,1,3.49-8.7,79.46,79.46,0,0,1,9.94-15.85A71.92,71.92,0,0,1,109.72,210l3.84-2.64,1.82-1.24c.6-.41,1.15-.9,1.73-1.35a37.64,37.64,0,0,0,6.08-6.34c3.54-4.73,6.08-10.23,8.45-15.83s4.68-11.4,8.38-16.46a31.58,31.58,0,0,1,6.5-6.71,32,32,0,0,1,8.14-4.46,54.53,54.53,0,0,1,18.09-2.91A57.49,57.49,0,0,0,155,155.86a31.08,31.08,0,0,0-7.67,4.62,30.49,30.49,0,0,0-5.92,6.65c-3.3,5-5.39,10.7-7.62,16.39s-4.61,11.48-8.31,16.62a40.85,40.85,0,0,1-6.41,7c-.62.5-1.21,1-1.85,1.5L115.28,210l-3.64,2.63a71.45,71.45,0,0,0-12.78,12.4,76.21,76.21,0,0,0-9.28,15.23,87.87,87.87,0,0,0-3.25,8.32,60.23,60.23,0,0,0-2.22,8.53l-.81,4.64L80.6,258a30.09,30.09,0,0,1-4.85-12.21,49.43,49.43,0,0,1-.49-12.84,84.38,84.38,0,0,1,6.3-24.44,125.28,125.28,0,0,1,5.31-11.38c1.92-3.71,4.07-7.3,6.29-10.82a218.94,218.94,0,0,1,14.61-20.21l4-4.77,4.1-4.68c2.62-3.14,5.33-6.22,7.88-9.41l3.67-4.92,1.85-2.45c.6-.83,1.13-1.7,1.69-2.55l3.36-5.13c1.07-1.75,2-3.56,3-5.33a87.55,87.55,0,0,0,8.91-22.74,54.15,54.15,0,0,0,1-6c.09-1,.27-2,.28-3l.08-3.07a46.59,46.59,0,0,0-.47-6.13A24.22,24.22,0,0,0,145.57,79.85Z"/>
    <path class="cls-1" d="M51.1,160.07A114.24,114.24,0,0,0,46,174.15a107.3,107.3,0,0,0-3.28,14.55l-.3,1.84c-.08.61-.13,1.23-.2,1.85l-.4,3.69-.18,3.71c0,.62-.08,1.23-.09,1.85l0,1.85,0,3.7.32,3.68.16,1.84.31,1.81.62,3.63c.27,1.19.63,2.36.93,3.54a35.44,35.44,0,0,0,1,3.52,50,50,0,0,0,2.85,6.69A46,46,0,0,0,51.7,238a42.87,42.87,0,0,0,16.82,13.25,48.14,48.14,0,0,0,6.8,2.4c1.16.31,2.33.59,3.51.81a32,32,0,0,0,3.46.46l-1.23,3.44a49.09,49.09,0,0,1-15.43-19.67,76.35,76.35,0,0,1-4.08-11.78,95.59,95.59,0,0,1-2.21-12.19c-1.9-16.41-.19-32.94,3.56-48.84a157.19,157.19,0,0,1,7.53-23.31c.75-1.9,1.61-3.76,2.44-5.63s1.8-3.7,2.62-5.51L78,126c.8-1.83,1.46-3.72,2.19-5.58A73.54,73.54,0,0,0,85,97a47.7,47.7,0,0,0-1.42-11.89l-.9-2.88c-.38-.92-.71-1.88-1.14-2.79a23.37,23.37,0,0,0-3.14-5.14,23.42,23.42,0,0,1,3.48,5c.49.89.88,1.83,1.33,2.75l1.06,2.87a48.45,48.45,0,0,1,2,12.08,71.63,71.63,0,0,1-3.84,24.15c-.69,1.93-1.3,3.89-2,5.79l-2.41,5.64c-.8,1.91-1.66,3.67-2.46,5.52s-1.57,3.69-2.26,5.57a167.58,167.58,0,0,0-6.9,23,160,160,0,0,0-3.48,23.72c-.31,4-.38,8-.36,12s.32,8,.8,11.91a81.28,81.28,0,0,0,6,22.82A45.5,45.5,0,0,0,83.3,255.3l5.46,4-6.68-.6a42.53,42.53,0,0,1-7.75-1.5,51.12,51.12,0,0,1-7.3-2.7,46.15,46.15,0,0,1-12.82-8.73,44.64,44.64,0,0,1-5.09-5.89,50.32,50.32,0,0,1-4-6.65,51.94,51.94,0,0,1-2.85-7.17,34.4,34.4,0,0,1-1-3.71c-.29-1.24-.61-2.48-.86-3.73l-.52-3.79-.26-1.9-.1-1.9-.2-3.81.07-3.8,0-1.9c0-.63.1-1.26.15-1.89l.35-3.78.57-3.74c.1-.62.19-1.25.3-1.87l.39-1.85a110.4,110.4,0,0,1,4-14.54A100.83,100.83,0,0,1,51.1,160.07Z"/>
    <path class="cls-1" d="M172.12,232.82a14.77,14.77,0,0,1-5,4.13,16.8,16.8,0,0,1-6.39,1.66,41.88,41.88,0,0,1-12.93-1.78c-4.17-1.08-8.22-2.45-12.31-3.42a36.23,36.23,0,0,0-12.24-1.18c-1,.06-2,.16-3.07.31s-2,.37-3.06.56-2,.46-3,.72c-.5.14-1,.25-1.51.4l-1.48.49a56.21,56.21,0,0,0-11.38,5.13,45.62,45.62,0,0,0-9.83,7.73,23.68,23.68,0,0,0-6.31,10.78,18.85,18.85,0,0,1,1.71-6.23c.2-.51.5-1,.75-1.45s.51-1,.83-1.41c.62-.88,1.19-1.84,1.9-2.66a43,43,0,0,1,9.7-8.74,52.85,52.85,0,0,1,24.58-8.63,38.53,38.53,0,0,1,13.15,1.43c4.19,1.17,8.23,2.61,12.26,3.93s8.09,2.46,12.24,2.55a16,16,0,0,0,6.08-.95A15.81,15.81,0,0,0,172.12,232.82Z"/>
    <g>
      <path class="cls-1" d="M162.86,246.35c.15-1.29-.81-2.51-1.55-3.53a15.5,15.5,0,0,0-3.55-3.72,16,16,0,0,0-4.59-2.37c-1.67-.44-2.21,1.3-1.81,2.68.73,2.44,2.8,5,4.63,6.79a7.25,7.25,0,0,0,3.14,2c1.43.38,3.2,0,3.65-1.41A1.84,1.84,0,0,0,162.86,246.35Z"/>
      <path class="cls-1" d="M143.63,236.55a13.36,13.36,0,0,0-3.51-2.36c-.28-.13-2.79-1.06-2.83-.63a10.71,10.71,0,0,0,1.79,6.49c1,1.67,3.73,4.3,5.58,2.21S145.35,238.2,143.63,236.55Z"/>
      <path class="cls-1" d="M119.67,235.35a16.37,16.37,0,0,0-9.16-1.44c-1.52.24-1.63,1.75-.74,2.78a11.23,11.23,0,0,0,3.61,2.44c2.46,1.21,5.78,2.89,8.53,1.76,1.13-.47,2.28-1.54,1.63-2.8S121,236,119.67,235.35Z"/>
      <path class="cls-1" d="M132,234.84a14.49,14.49,0,0,0-7.74-3.7c-1.42-.13-1.76,1.3-1.27,2.37a10.07,10.07,0,0,0,2.41,3c1.83,1.73,4.26,4.07,7,3.79,1.17-.13,2.45-.79,2.18-2.09S133,235.74,132,234.84Z"/>
      <path class="cls-1" d="M107.11,239.68a14.61,14.61,0,0,0-5.26-.41c-1.16.13-3.51.2-4.25,1.14-1.85,2.36,4.31,3.91,5.82,4.3,2.33.59,5.59,1.37,7.54-.27C114,241.88,109.32,240.23,107.11,239.68Z"/>
      <path class="cls-1" d="M171.81,226.32a4.52,4.52,0,0,0-3.28,2.21,12.21,12.21,0,0,0-2,8.58,11,11,0,0,0,5.56-2.84c1.53-1.39,3.54-3.76,2.95-6A2.87,2.87,0,0,0,171.81,226.32Z"/>
      <path class="cls-1" d="M145.78,222.91c-.1-.14-.21-.28-.34-.43-1.68-1.87-4.09.05-5.42,1.09a9.71,9.71,0,0,0-3.05,4.55c-.38,1-1.14,2.46-.14,3.44,2,1.91,5.22-1,6.61-2.21C145.05,228,147.35,225.28,145.78,222.91Z"/>
      <path class="cls-1" d="M159.51,227.78c-1.46-2.36-4-.17-5.25.94a8.89,8.89,0,0,0-2.46,3.94c-.29,1-1.05,2.56-.1,3.47,1.89,1.8,4.78-1.14,6-2.29C159.29,232.33,161,230.1,159.51,227.78Z"/>
      <path class="cls-1" d="M130.79,222.66c.09-1.17-.3-2.89-1.48-3.44s-2.64.49-3.53,1.25a11.44,11.44,0,0,0-4,7.57,1.83,1.83,0,0,0,2.18,1.82,7.16,7.16,0,0,0,3.37-2C128.83,226.51,130.6,224.91,130.79,222.66Z"/>
      <path class="cls-1" d="M97.4,225.52c-1-1.23-3.18-2.61-4.88-2-2,.7-2.1,3.51-2.15,5.22a15.57,15.57,0,0,0,.94,6,16.25,16.25,0,0,0,3.31,5.71c1.53,1.41,3.36-.07,3.94-1.45a12.76,12.76,0,0,0,.77-4.76C99.38,231.36,99.46,228,97.4,225.52Z"/>
      <path class="cls-1" d="M116.22,222.28c-.36-1.38-1.61-3.09-3.18-3.09s-2.79,1.79-3.52,3a13.38,13.38,0,0,0-1.67,9.82c.42,1.74,2.4,1.7,3.55.88a10.45,10.45,0,0,0,2.79-3.46C115.38,227.39,116.89,224.86,116.22,222.28Z"/>
    </g>
  </g>
  <g>
    <g>
      <g>
        <path class="cls-2" d="M256.28,101c4.87.93,7.21,3.24,6.44,6.08a4.3,4.3,0,0,1-1.7,2.4c-1.62,1.12-4.06,1.37-7.27.75a16.94,16.94,0,0,1-6.1-2.76,31,31,0,0,1-4.26-3.49l-.71-.73,1-.39C244,102.72,251.13,100,256.28,101Z"/>
        <path class="cls-2" d="M239.36,89.83a4.17,4.17,0,0,1,1.48.15,3.55,3.55,0,0,1,2.45,2.09c.85,2,.12,4.08-.82,5.77-1.29,2.3-4.66,9.19-7.86,7.42C230.43,102.94,235.16,90.18,239.36,89.83Z"/>
        <path class="cls-2" d="M229.79,93.84c1.79,2.07.47,5.51-.62,7.87-.86,1.87-5.72,8.6-7.8,8.15-.57-.12-.93-.8-.94-2.29,0-3.61,2-11.65,4.74-14.2C226.72,91.9,228.49,92.34,229.79,93.84Z"/>
        <path class="cls-2" d="M215.77,108.07a37.05,37.05,0,0,1-1,4.8c-.79,2.63-2.09,4.82-4.19,2.72s-1.75-6.57-2-9.31c-.23-2.41,0-6.19,2.37-7.5C215.53,96.18,216.26,104.89,215.77,108.07Z"/>
        <path class="cls-2" d="M202.89,114.68a17.82,17.82,0,0,1-.37,9.9c-.13.41-.32.92-.54,1.45-2.16,5-4.52,2.35-5.87-.88s-2.61-9.19.5-12.55C198.88,110.15,202.13,112.1,202.89,114.68Z"/>
        <path class="cls-2" d="M190.18,130.88a1.72,1.72,0,0,1,.07.21c1,2.93,2.21,10.42-1,12.54-5.29,3.47-8.63-13.11-6-16.49C186.22,123.43,189.32,128.52,190.18,130.88Z"/>
        <path class="cls-2" d="M117.12,206c3.82,3.35,5.58,16.27,4.45,19.31-2.13,5.73-6.86-1.38-8-3.43-2.08-3.71-5.32-11.23-.66-15.56C114.49,204.79,115.91,204.89,117.12,206Z"/>
        <path class="cls-2" d="M176.22,140.86a2.3,2.3,0,0,1,1.87.72c1.63,1.49,2.72,4.87,2.9,6.49.25,2.38,1,14.41-3.83,10.34-1.51-1.27-2.23-3.82-3-5.69C173.32,150.45,171.76,141.44,176.22,140.86Z"/>
        <path class="cls-2" d="M165.12,159a10.74,10.74,0,0,1,3.16,3.9c1.16,2.65,4.18,10,0,12.37-2.44,1.37-5.31-3.25-5.83-5-.82-2.79-2.25-5-2.07-8.25C160.61,157.19,163,157.33,165.12,159Z"/>
        <path class="cls-2" d="M153.27,175.13a3.72,3.72,0,0,1,1,1c1.42,2.15,1.06,5,1.48,7.54.28,1.74,1.35,10.31-3,9.37-2.07-.45-3.27-5.33-3.72-7.14-.6-2.43-2.13-6.12-1-8.81S151.58,173.91,153.27,175.13Z"/>
        <path class="cls-2" d="M135.58,189.64a4.38,4.38,0,0,1,1.82,1.08c3.15,3,3,10.67,3.1,14.36,0,1.7.29,4.63-1.85,5.6-4.08,1.84-5.67-3.77-6.38-6.36C131.62,202,127.92,187.34,135.58,189.64Z"/>
      </g>
      <g>
        <path class="cls-2" d="M236.71,104c3.63.83,9.68,5.55,9.25,10a3,3,0,0,1-1,1.93c-3.07,2.82-5.89,1-8.1-2.13C235.45,111.7,229.87,102.39,236.71,104Z"/>
        <path class="cls-2" d="M231.6,111.44c1.68,1.53,2.51,3.07,2.48,4.58a4.07,4.07,0,0,1-1.1,2.63c-5.63,6.2-13.75-8.73-9.12-10.06C226.29,107.89,230,110,231.6,111.44Z"/>
        <path class="cls-2" d="M215.12,115.64a10.74,10.74,0,0,1,7.08,4c.29.42,2.79,4.21.42,6.29-1.19,1-3.4,1.6-7.14-1.63l-.08-.07C213.29,122.42,208.88,114.92,215.12,115.64Z"/>
        <path class="cls-2" d="M203.41,127.07a15,15,0,0,1,8.86,2.17c.5.34,4.86,3.43,3.29,6.4-2.16,4.08-7.87,1.46-10.17,0S196.53,127.62,203.41,127.07Z"/>
        <path class="cls-2" d="M206,144.31a4.07,4.07,0,0,1-1.39,2.54c-1.33,1.16-3.43,1.7-6.23,1.61-2.38-.08-7.86-1.29-8.72-3.78a2,2,0,0,1-.05-1.29c.51-1.66,3.33-2.41,4.91-2.86C198.11,139.52,206.86,138.44,206,144.31Z"/>
        <path class="cls-2" d="M139.32,224.67a5.33,5.33,0,0,1,1.36,1.88,2.94,2.94,0,0,1-.07,2.68c-2.13,3.86-6.71,4.47-10.29,4.31-2.31-.1-14.61-.72-10.67-5.64,1.52-1.9,4.43-3.35,7.6-4.17C131.86,222.54,137,222.67,139.32,224.67Z"/>
        <path class="cls-2" d="M187.51,153.87c3.55-1.19,10.38-2.61,9.8,3s-13.85,5-16.5,3.52c-4.31-2.38,2.44-5.06,5.59-6.16Z"/>
        <path class="cls-2" d="M185.51,173.09c-1.66,4.26-8.52,4-11.8,3.86-2-.06-7.08-.85-4.46-4,.83-1,2.88-2,5.26-2.82C177.37,169.2,187.94,166.83,185.51,173.09Z"/>
        <path class="cls-2" d="M173.68,191.83c-1.44,3.3-6.15,3.75-8.93,3.88-2.39.12-8.32.59-9.52-1.72s2.21-4.55,6.46-5.74C167.89,186.52,175.83,186.88,173.68,191.83Z"/>
        <path class="cls-2" d="M148.92,204.34c3.38-1.23,7.33-1.72,9.92.56a5.87,5.87,0,0,1,.83.89,2.59,2.59,0,0,1,.49,2.6c-1.87,5.05-10.43,5.84-14.31,5.56-1.89-.15-5.93-.07-6.68-2.15-1.24-3.4,4.67-5.66,6.94-6.48C147.15,204.94,148.14,204.63,148.92,204.34Z"/>
      </g>
    </g>
    <g>
      <g>
        <path class="cls-2" d="M259,182.86c4.46,3.86,3.06,6.74,2.26,7.81-.7.91-2.72,2.78-6.44.26a12.74,12.74,0,0,1-1.26-1c-3.29-2.83-4.9-9.14-5-9.41l-.24-.95,1,0C249.59,179.66,255.75,180,259,182.86Z"/>
        <path class="cls-2" d="M244.6,166.48c3-1.52,6.39-2.1,7.46.68.82,2.14-2.31,4.75-3.66,6.12-3.67,3.73-13.74,3.12-8.61-3.2A16.08,16.08,0,0,1,244.6,166.48Z"/>
        <path class="cls-2" d="M238.46,163c5.19,1.17-1.84,8-4,9.13-2.49,1.31-10.16,3.32-8.8-1.56.44-1.56,3.51-3.85,6.59-5.51C234.83,163.72,237.37,162.79,238.46,163Z"/>
        <path class="cls-2" d="M223.35,161.51c1.17.76,1.53,2.65.17,5.54s-4.6,6.66-7.55,7.58C210.3,176.38,218.05,158,223.35,161.51Z"/>
        <path class="cls-2" d="M211.81,162.22c2.64,2.27.2,8.47-1.23,11.39-1.11,2.25-5.66,8.78-7.09,4-.39-1.26-.14-3.3.24-5.33.33-1.78.75-3.56.94-4.79C205.12,164.4,208.69,159.55,211.81,162.22Z"/>
        <path class="cls-2" d="M198.78,170.69c.5,3-.77,7.94-2.18,10.78-3.1,6.22-5.49,1-4.93-3.68.44-3.61,1.69-7.54,2.89-8.59C197.22,166.89,198.3,167.85,198.78,170.69Z"/>
        <path class="cls-2" d="M121.59,221c.68,0,1.36.51,2,1.76,1.91,3.58-1.27,16.28-5.29,18.33C109.87,245.43,116.45,221.1,121.59,221Z"/>
        <path class="cls-2" d="M185.44,175.5c5.48.43,1.89,10.24.48,13.4-1.69,3.79-4.26,6.58-5.48,1.37a15,15,0,0,1-.28-2.77C180.05,182.86,181.08,175.17,185.44,175.5Z"/>
        <path class="cls-2" d="M176,192.55c-.15,1.95-2.58,11.61-5.29,11.14-1.78-.3-2.55-2.53-2.6-5.29-.09-4.6,1.8-10.7,4.31-12C176.7,184.19,176.21,189.72,176,192.55Z"/>
        <path class="cls-2" d="M160.84,199.53c1.71,2.24,1.37,9,.55,12-1.28,4.51-4.11,4.19-5.79.79a12.05,12.05,0,0,1-.88-2.61C154,206.45,156.2,193.43,160.84,199.53Z"/>
        <path class="cls-2" d="M144.76,211.64c1.3,3.81,1.29,9.47-1.11,13.39-3.54,5.75-5.7-.83-6.05-4.35l0-.38c-.32-3.16-.72-8.3,1.25-11.37C141.72,204.39,143.81,208.86,144.76,211.64Z"/>
      </g>
      <g>
        <path class="cls-2" d="M240.41,176.3c2.35-.49,5.18,5.75,5.77,7.32,1.67,4.47-1.89,9.43-5.45,4.84-1.29-1.67-3.36-10.73-.62-12.05A1.21,1.21,0,0,1,240.41,176.3Z"/>
        <path class="cls-2" d="M236.08,184.27c.65,5.23-2.87,3.88-5.21,1.58-2.63-2.58-6.22-7.63-1.92-11.44C233,170.82,235.81,182,236.08,184.27Z"/>
        <path class="cls-2" d="M217.51,173.8c2.91.17,7.92,9.87,3.92,11.41s-9.54-7.15-6.16-10.68A2.68,2.68,0,0,1,217.51,173.8Z"/>
        <path class="cls-2" d="M206.49,177.75c2.83.73,9.91,6.58,7.38,10.75-3.48,5.75-11.92-5.59-11-9.55C203.15,177.78,204.19,177.17,206.49,177.75Z"/>
        <path class="cls-2" d="M201.3,184.28c3.6,1.47,5.46,5.85.39,7.88-1.21.48-3.31,0-5.23-.94-3.13-1.59-5.77-4.5-3.2-6.76C195.24,182.73,199.41,183.51,201.3,184.28Z"/>
        <path class="cls-2" d="M121.42,238.06c3.38-2.28,14-.81,14.74,3.51,1,5.91-9.39,5.07-12,3.8-2.3-1.13-6.88-3.79-3.52-6.74A7.74,7.74,0,0,1,121.42,238.06Z"/>
        <path class="cls-2" d="M192.66,191.74c2.28,1.31,4,3.33,1.25,6-2.25,2.2-7.92.7-10.75-1.79C176.94,190.45,189.55,190,192.66,191.74Z"/>
        <path class="cls-2" d="M186.52,204.68c.86,3.7-2.55,4.89-6.26,4.6s-8-2.23-8.08-4.61a2.48,2.48,0,0,1,.89-1.92C175.84,200.32,185.68,201.08,186.52,204.68Z"/>
        <path class="cls-2" d="M173.92,216.11c.3,3.09-2.48,4.3-5.7,4.31-4.05,0-8.79-1.93-8.85-4.46C159.26,210.89,173.41,210.91,173.92,216.11Z"/>
        <path class="cls-2" d="M160.24,229.17a2.93,2.93,0,0,1-.41,2.54c-2.76,3.84-10,2.3-13.9-.23-2.21-1.42-3.4-3.16-2.21-4.43C147.69,222.8,158.89,223.81,160.24,229.17Z"/>
      </g>
    </g>
    <g>
      <g>
        <path class="cls-2" d="M184.18,98.31c1.49,1.38.64,3.64-.49,5.2s-8.1,8.58-9.69,5.39c-1.18-2.35,5-10.52,8.51-11.05A1.92,1.92,0,0,1,184.18,98.31Z"/>
        <path class="cls-2" d="M167.34,148.4c2.67-2.64,5.88-5.53,9.18-7.14,3.46-1.69,6.17-.47,4.35,3.53-2.48,5.42-7.73,9.32-13,11-4.12,1.31-7,.86-3.52-3.9A33.15,33.15,0,0,1,167.34,148.4Z"/>
        <path class="cls-2" d="M142.3,180.14c2.06-2.13,4.84-3.95,7.62-4,2.53-.09,4.67,1.26,3.56,4.22-2.13,5.7-12.12,9.12-17,9-4.21-.14-1.64-2.95,1.33-5.47C139.67,182.21,141.74,180.72,142.3,180.14Z"/>
        <path class="cls-2" d="M171.07,168.08c.81,2.47-2.41,3.54-4.34,3.94a26.46,26.46,0,0,1-9.08.26c-1.27-.21-5.78-.93-6.25-2.18-1.21-3.16,8.39-5.45,14.65-4.66C168.6,165.76,170.59,166.59,171.07,168.08Z"/>
        <path class="cls-2" d="M180.15,120.45c3.52-2.06,4.83.3,4.13,3.88-.9,4.54-4.76,8.09-8.19,10.81-2.75,2.19-7.43,5.71-5.84-.39a31,31,0,0,1,6.61-11.53A15.28,15.28,0,0,1,180.15,120.45Z"/>
      </g>
      <g>
        <path class="cls-2" d="M163.8,76.33a10.86,10.86,0,0,1,5.71,4.75c1.61,2.68,1.27,5.52-2.38,4.49-2.58-.72-4.8-3.32-5.76-5.86a3.61,3.61,0,0,1-.12-2.83C161.61,76.21,162.42,75.9,163.8,76.33Z"/>
        <path class="cls-2" d="M168.79,101.55c3.15,1.61,5.66,4.23,4.12,6.56-2.26,3.43-8.61-.82-10.45-2-1.53-1-3.69-2.83-1.74-5C162.9,98.68,166.85,100.56,168.79,101.55Z"/>
        <path class="cls-2" d="M164.19,151.87c-1.12,3.53-5.26,0-6.44-1.23a28.73,28.73,0,0,1-2-2.25c-1.68-2.12-3.18-5-1.23-7.25C158.67,136.3,165.34,148.23,164.19,151.87Z"/>
        <path class="cls-2" d="M131.22,172.33l.21.2c2.57,2.54,4.67,8.06,3.84,11.93-1.19,5.55-11.06-5.64-11.82-8.08C121.17,169.07,126.85,168.35,131.22,172.33Z"/>
        <path class="cls-2" d="M146.51,154.79a9.21,9.21,0,0,1,3.31,2.7c1.91,2.53,6,11.36,1.14,13.25-5.34,2.07-8.64-7.79-10.23-11.12-.92-1.94-2.09-3.2.32-5C142.68,153.49,145,154,146.51,154.79Z"/>
        <path class="cls-2" d="M165,120.75a6,6,0,0,1,2.14,1.67c3,3.15,7.34,9.79,5,11.75-3.1,2.64-9.19-3.26-10.52-5.33C159.69,125.7,159.63,119.57,165,120.75Z"/>
      </g>
    </g>
    <g>
      <path class="cls-2" d="M189.82,227.78c.74,2.35.3,6.06-1.67,8.05-.93.95-5.94,5.42-5.81,1.93.13-3,0-7.16,2.26-9.77l.2-.22C186.54,225.91,189,225.05,189.82,227.78Z"/>
      <path class="cls-2" d="M184.8,227.77l-.13.13C185.61,226.85,185.26,227.25,184.8,227.77Z"/>
      <path class="cls-2" d="M184.67,227.9l-.07.09C184.12,228.53,183.71,229,184.67,227.9Z"/>
      <path class="cls-2" d="M184.8,227.77l-.2.22.07-.09Z"/>
      <path class="cls-2" d="M190.66,244.24a8.11,8.11,0,0,1,1.63,4.26c.06,1.56-.87,3.4-2.39,3s-2.57-1.81-3.43-3a25.2,25.2,0,0,1-2.26-4.13,53.71,53.71,0,0,1-1.94-5.07l1.14.18A10.76,10.76,0,0,1,190.66,244.24Z"/>
      <path class="cls-2" d="M157.85,244.79a4.79,4.79,0,0,1,3.86,1.11c2,1.45,3.94,4.25,3.94,7,0,1.37-.85,2.9-2.32,2.82s-3-1.5-4-2.6a16.81,16.81,0,0,1-2.63-4.73c-.58-1.44-1.13-2.47-.45-3.08A2.8,2.8,0,0,1,157.85,244.79Z"/>
      <path class="cls-2" d="M163.37,228.76c3.27.79-.27,8.39-1.14,10.1A22.8,22.8,0,0,1,159,243.5c-.39.44-.89,1.08-1.49,1.21-.88.18-1.33-1-1.4-1.67a19,19,0,0,1,.93-8.42C158,232.2,160.26,228,163.37,228.76Z"/>
      <path class="cls-2" d="M125.74,249.9a7.42,7.42,0,0,1,5.22,1.84c1.66,1.31,3.19,3.44,3.35,5.3.32,3.85-4.23,2.69-6.72.8a17.74,17.74,0,0,1-4-4.84c-.66-1-.73-1.72-.37-2.2A3.66,3.66,0,0,1,125.74,249.9Z"/>
      <path class="cls-2" d="M146,241.5l.86.1h0l-.85-.1Z"/>
      <path class="cls-2" d="M149.63,234h0c3.26.38.61,5-.42,6.81a17.59,17.59,0,0,1-4.78,5.37c-.91.72-2.38,2.21-3.52,1.72-2.63-1.11.68-6.4,1.7-8.19C144.14,237.1,146.47,233.67,149.63,234Z"/>
      <path class="cls-2" d="M147.14,250.56c1.92,1.43,3.74,3.67,2.62,6.55-1.37,3.57-5.48.67-7-.71-1.16-1.07-5.75-7.46-1.72-8.39C143.28,247.51,145.54,249.37,147.14,250.56Z"/>
      <path class="cls-2" d="M139.52,254.7Z"/>
      <path class="cls-2" d="M177.17,228.55c3.24.44.94,4.89-.07,6.82a16.66,16.66,0,0,1-4.43,5.29c-1,.83-2.72,2.59-4,2-2.74-1.19.49-6.65,1.55-8.61C171.71,231.39,174,228.12,177.17,228.55Z"/>
      <path class="cls-2" d="M170.62,241.84Z"/>
      <path class="cls-2" d="M176.87,244.88c1.92,1.46,4.12,4.08,2.61,7-1.58,3.11-5.68,0-7.09-1.26-1.16-1-6.44-7.86-2.2-8.73C172.6,241.43,175.13,243.56,176.87,244.88Z"/>
      <path class="cls-2" d="M170.62,241.84l-.43.09Z"/>
      <path class="cls-2" d="M191.49,238.9h0C192.39,238,191.71,238.69,191.49,238.9Z"/>
      <path class="cls-2" d="M191.49,238.9h0C191.43,239,191.41,239,191.49,238.9Z"/>
      <path class="cls-2" d="M191.49,238.9c1.92-1.88,5.57-1.47,7.57-.81a6.93,6.93,0,0,1,3.48,2.3c.71,1,1.35,2.71.38,3.93-1.5,1.9-5.26.86-6.91.3-1.44-.5-7-3.22-4.52-5.71Z"/>
      <polygon class="cls-2" points="191.49 238.9 191.49 238.9 191.49 238.91 191.49 238.9"/>
      <path class="cls-2" d="M131.06,242.13a10.83,10.83,0,0,1-2.75,4c-1.18,1.26-2,2.82-3.18,4.07-1,1-2.11.27-2.16-1.1a15.65,15.65,0,0,1,1.06-5.19c.93-3,2.16-7.85,5.37-8.82C132.41,234.14,131.52,240.62,131.06,242.13Z"/>
    </g>
    <g>
      <g>
        <path class="cls-2" d="M98.08,116.86c1.35-.45,2.61.35,3.67.94a11.94,11.94,0,0,1,3.86,3.1,13.57,13.57,0,0,1,2.43,4.55c.46,1.75-1.36,2.74-2.79,2.59-2.54-.25-5.18-2-7-3.6a6.06,6.06,0,0,1-2-3c-.39-1.5,0-3.54,1.49-4.36A4.28,4.28,0,0,1,98.08,116.86Z"/>
        <path class="cls-2" d="M108.32,132.45a10.63,10.63,0,0,1,3.86,1.39c.25.16,2.32,1.7,1.93,2a12.72,12.72,0,0,1-6.85,3.06c-2.05.26-5.77-.2-4.72-3.31C103.52,132.73,106,132.11,108.32,132.45Z"/>
        <path class="cls-2" d="M108.66,157.57a12.94,12.94,0,0,1,6.63,6c.69,1.38-.54,2.69-2,2.84a9.43,9.43,0,0,1-4.22-.84c-2.5-.94-5.89-2.17-6.54-5.23-.27-1.28,0-3,1.45-3.57S107.33,157,108.66,157.57Z"/>
        <path class="cls-2" d="M90.83,177.69a17.83,17.83,0,0,1,6.72,9.14c.51,1.37,1,3.54-1.11,4.09-1.89.49-3.86-1-5.16-2.06-2.15-1.67-4.6-3.57-5.59-6.33a5.64,5.64,0,0,1,.42-4.85C87.39,175.76,89.58,176.85,90.83,177.69Z"/>
        <path class="cls-2" d="M109.33,144.29a11.28,11.28,0,0,1,6.67,4.84c.7,1.24-.55,2.47-1.76,2.69a8.91,8.91,0,0,1-3.82-.34c-2.4-.6-5.64-1.38-6.46-4.11-.35-1.16-.23-2.77,1.13-3.36S108.07,143.94,109.33,144.29Z"/>
        <path class="cls-2" d="M102.74,169.1a11.67,11.67,0,0,1,3.44,3.78c.58,1,1.9,2.91,1.52,4.26-.94,3.37-5.89-.19-7.11-1-1.89-1.34-4.48-3.26-4.21-6.13C96.8,165.51,101,167.81,102.74,169.1Z"/>
      </g>
      <path class="cls-2" d="M78,197.06a19.28,19.28,0,0,1,4.66,5.07,19.73,19.73,0,0,1,2.79,7.08c.29,2.21-2,2.93-3.64,2.5-3.39-.92-6.59-4-8.9-6.58a10.14,10.14,0,0,1-2.6-4.55c-.38-1.79.06-4.88,2.19-5.63S76.62,196,78,197.06Z"/>
      <g>
        <path class="cls-2" d="M115.66,124h0C115.39,124.15,114.93,124.42,115.66,124Z"/>
        <path class="cls-2" d="M116.54,124a2.48,2.48,0,0,1,3.58.88c.79,1.2.53,2.92,0,4.36a18,18,0,0,1-6.18,8.59,12,12,0,0,1-.82-6.67c.29-2.32,1.14-5.82,3.38-7.16Z"/>
        <path class="cls-2" d="M115.66,124Z"/>
        <polygon class="cls-2" points="115.66 123.99 115.66 123.99 115.65 123.99 115.66 123.99"/>
        <path class="cls-2" d="M125.22,154.68a2.11,2.11,0,0,1,.45.28c1.91,1.48-.3,4.44-1.5,6a14.05,14.05,0,0,1-5.08,4.12c-1.1.58-2.71,1.66-3.7.75-1.94-1.78,1.44-5.82,2.77-7.53C119.72,156.36,122.78,153.4,125.22,154.68Z"/>
        <path class="cls-2" d="M112.43,188.34c1.24.82,2.35,2.59,1.47,4s-3.43,1.87-5.13,2.07c-3.85.47-8.12-.08-11.22-2.09-1.59-1-.45-2.8,1-3.54a15.65,15.65,0,0,1,5.18-1.24C106.6,187.23,110.09,186.79,112.43,188.34Z"/>
        <path class="cls-2" d="M124.7,137.34Z"/>
        <path class="cls-2" d="M124.7,137.34Z"/>
        <path class="cls-2" d="M123.93,139.15h0c2.77.22,1.32,3.94.55,5.74a12.91,12.91,0,0,1-3.24,4.53c-.88.81-2.26,2.4-3.44,1.93-2.35-.94-.23-5.38.58-7.2C119.44,141.76,121.19,138.93,123.93,139.15Z"/>
        <polygon class="cls-2" points="124.7 137.34 124.7 137.34 124.7 137.34 124.7 137.34"/>
        <path class="cls-2" d="M121.75,175.59c1,.66,2.09,2,1.52,3.27s-2.68,1.67-4.06,1.85c-3.24.41-7-.05-9.6-1.79-1-.72-.67-2.07.4-2.77a10.41,10.41,0,0,1,4.52-1.26C116.93,174.61,119.76,174.3,121.75,175.59Z"/>
        <path class="cls-2" d="M101.88,204.31c1.59.56,3.54,2.13,3.19,4-.42,2.22-3.58,3.27-5.51,3.91a20.57,20.57,0,0,1-7,1.23c-2.2,0-5.19-.2-7.06-1.17S85,209,86.43,208a19,19,0,0,1,5.25-2.42C94.92,204.46,98.73,203.2,101.88,204.31Z"/>
      </g>
    </g>
    <g>
      <path class="cls-2" d="M244.85,103.06a56,56,0,0,0-24,7.83c-.89.59-3.25,2.21-4.17,2.85-1.62,1.31-3.71,2.91-5.15,4.35a93.33,93.33,0,0,0-11.2,12.62c-10.88,14.57-19.87,30.53-30.37,45.43-17,24.44-38.22,46.27-63.22,62.62-5.48,3.55-12,7.42-17.68,10.61l-1.2-2.1,5.9-3.39c3.33-1.83,8.34-5.07,11.62-7.13a229.15,229.15,0,0,0,46-40.33c18.37-20.39,31.34-44.77,47.82-66.58,5.58-7.14,12-14,19.74-18.78,7.7-5,16.76-7.5,25.85-8.2l0,.2Z"/>
      <path class="cls-2" d="M254.14,184.12c-2.39-2.81-6.18-4.63-9.58-6.21-10.7-4.73-23.1-4.77-34.06-1-15,4.91-26.52,16.25-37,27.63-21.23,21.46-48.41,37.26-77.86,44.16a42.43,42.43,0,0,1-6,1h-.38l-.32,0a4.65,4.65,0,0,1-.56-.14,3,3,0,0,1-.73-.4L90.4,245a30.85,30.85,0,0,0,4.19,1.48c9.3,2.5,19.19,2.74,28.78,2.44,14.43-.54,29.59-3.6,43.64-7,8.14-2.4,20.74-5.77,28.8-.79l-.16.25c-4.21-2.51-9.43-2.26-14.14-1.71a70.19,70.19,0,0,0-14.14,3.53l-9.59,2.52-9.69,2.16c-18,3.38-41.54,6.3-58.94-.51l.28-.43s-.06,0,0,0h.23l.36,0c30.09-5.55,60.09-22.76,81.7-44.25,15.78-17.54,36.85-33.71,61.87-29.09,7.27,1.43,14.53,4.32,20,9.4a3.32,3.32,0,0,1,.81,1.11.29.29,0,0,1-.14.33l-.12-.27Z"/>
      <path class="cls-2" d="M166.11,80.47c.15-.2.44-.1.56,0a9.17,9.17,0,0,1,1.54,2.3c3.27,6.49,4.89,13.67,5.82,20.85,3.35,25.1-6.33,50.68-23.22,69.19-5.45,6.15-12,11.59-18.36,16.83-15.2,12.93-29.7,27.87-37.1,46.65-1.75,4.47-3,9.36-4.34,14.13l-2.42-.84c-3.6-1.27-5.49-5.15-6.79-8.4-3.22-8.87-2.23-18.75.66-27.43a68.2,68.2,0,0,1,8-16.2,112.57,112.57,0,0,1,14.14-17.23,39.25,39.25,0,0,0,11.55-26.44,42.29,42.29,0,0,0-6.65-24.49c-1.44-1.93-3.79-5.33-6.51-4.52l-.14-.27c4.78-1.59,9.94,8.49,11.38,12.12,5.65,13.57,4.09,30.11-5.29,41.66-1.58,2-4.1,4.62-5.85,6.55-11.38,12.82-21.51,29-20.47,46.79a26.47,26.47,0,0,0,3.73,12.33,6.82,6.82,0,0,0,3,2.8l-.34.19a117.64,117.64,0,0,1,3.63-11.78c7.39-19.39,22.46-34.58,38.06-47.71l4.75-3.92c11.16-9,21-19.81,27.76-32.46a83.05,83.05,0,0,0,7.64-59.54c-1-3.66-2.06-7.44-4.14-10.65a3.27,3.27,0,0,0-.24-.27c-.09-.09-.17-.08-.11-.09l-.25-.18Z"/>
    </g>
  </g>
  <g>
    <path class="cls-3" d="M100,243.63c-9.71-5.83-23-7.67-34-5.21a39,39,0,0,0-5.79,1.75C46.44,245.64,46.4,257,65.35,262.55c8.31,2.4,31.07,3.47,38.69.18C113.45,258.68,107.83,248.33,100,243.63Z"/>
    <path class="cls-4" d="M100,243.63c-9.71-5.83-23-7.67-34-5.21a39,39,0,0,0-5.79,1.75c-6.87,2.73-10.32,7-9.68,11.17a37.85,37.85,0,0,0,7.94,3.22c8.31,2.4,31.07,3.46,38.69.18,5.14-2.22,5.79-6.3,4-10.33Q100.59,244,100,243.63Z"/>
  </g>
</svg>
