<svg id="Layer_1" data-name="Layer 1" xmlns="http://www.w3.org/2000/svg" width="157.41" height="174.79" viewBox="0 0 157.41 174.79">
  <defs>
    <style>
      .cls-1 {
        fill: #295968;
      }
    </style>
  </defs>
  <g>
    <path class="cls-1" d="M140,123.36a3.35,3.35,0,0,0-2.53.38c-3.33,1.45-4.67-.44-7.35-3a5.44,5.44,0,0,0-5.3-1.55c-4.69,1.25-4.88,7.3-7.94,10.83-4.23,4.52-10.87-2.89-15.52-2.28s-5.72,8.38-7.35,12.32c-1.36,3.27-5,4.66-7.36,6.57a17.1,17.1,0,0,0-5.52,8.26c-.49,1.83-.53,3.9-1.23,5.63-.32.42-1.88,2.14-2.45,3a1.53,1.53,0,0,0-.45,1.17c.17,1.22,5-2.8,5.28-3.29,1.42-2.14.84-5.05,2.1-7.29,1.66-3,5.34-2.89,7.75-4.41A13.76,13.76,0,0,0,97,143.94c1.43-2.91,1-6.15,2.16-9.16,3.44-8.56,14.35,2,19.84-2.94,2.33-1.91,3.83-5.12,6.31-6.77,2.77-1.84,4.49.47,6.6,2.51s3,0,5-1.27c.69-.46,1.74-1,2.48-.5l.07,0a1.35,1.35,0,0,1,.08,2.11c1.07.36,1.62-.62,1.74-1.89S141,123.75,140,123.36Z"/>
    <g>
      <path class="cls-1" d="M114.57,58a9.28,9.28,0,0,0-.27-9.69c-1.78-2.45-4.62-2.49-6.93-3.67-4.61-2.36-.52-4.08-.79-7.83-.24-3.44-5.36-2.12-5-5.6.32-3.27,5.79-2.25,7.39-4,4.45-4.9-3.77-9.53-5-12.67a2.87,2.87,0,0,1,0-2.21c.19-.42.56-.83,1-.8.17,0,.73.45.72.71,0-.26,0-.51,0-.77,0-1.11-.33-2-1.27-2.13a2.69,2.69,0,0,0-2.43,1.36c-3.32,5,4.6,7.64,4.91,11.85.45,6-8.36,2.91-7.84,9,.18,2.23,1.72,2.56,2.88,3.53,3.33,2.78-1.45,5.14,0,9.8,1.62,5.31,6.36,3.33,9,6.94a4.82,4.82,0,0,1,.75,1.26c1.28,2.86-1.85,5.29-3.21,7.13a13,13,0,0,0-2.69,9.54c.94,5.53,7.29,8.29,5.89,14.55-1.25,5.77-7.57,4-11.07,4.63-4.2.76-7.81,3.65-9.59,8.72-1.52,4.78-.68,10.92-2.73,15.32-.79,1.31-2,1.71-3.29,2.32-2.47,1.27-5.11,3.19-5.87,6.75a14.89,14.89,0,0,0-.48,4.75c.13,2.08,1.47,5.78.9,7.53-1.21,4.45-4,7.32-3.88,12.41.13,4.36,1.59,8.47,2.2,12.71.17,1.18.37,5.92,1.47,5.71.43-.09.43-4.31.48-5.05.34-4.53-.27-9,.07-13.54,0-3.36,4-6.67,5.06-10.14,1.21-4-2.33-13.22,1.78-15.17,2.25-1.08,5.22-1.23,7-3.5,3.57-4.44.86-12.66,3.14-17.89,3.71-8.46,16.15-2.18,17.63-14.06a13,13,0,0,0-3.28-10.66c-1.81-2.12-4-4.48-3.53-8C108.26,62.53,112.46,61.26,114.57,58Z"/>
      <path class="cls-1" d="M86.55,100.32c-4.29-1.39-10-5.44-6.42-12.16,1.26-2.41,3.53-3.44,4.54-6.26,1.66-4.59-.89-8.65-2.67-12.16-1-2.06-1.43-3.27-.42-5.45A10.67,10.67,0,0,0,83,58.73c-.24-2.85-3-3.45-3.71-5.86-1-3.37,3.21-4.82,3.56-8,.29-2.6-1.4-4.2-2.86-4-1,.13-2,1.15-2,3.33,1.46-1.58,3.76-1.82,2.38,1-.87,1.78-2.48,2.86-3.3,4.63A6.15,6.15,0,0,0,76.82,55c.6,1.51,2.07,2.11,2.57,3.47.61,1.65-.47,3.15-1.17,4.4a8.94,8.94,0,0,0-.43,7.83c.81,2.27,2.74,4,3,6.49A11.62,11.62,0,0,1,79.49,84c-1.42,3-3,5.91-2.49,9.56.63,4.5,3.79,7,6.82,8.64s6.4,3.28,9.57,4.89c2.61,1.33,5,4.44,2.75,8.08-1.51,2.39-4.51,3.26-6.46,5.1A9.66,9.66,0,0,0,86.21,128c.17,3,2.47,5,3.63,7.27,1.81,3.57.18,5.83-2.35,7.87a29.26,29.26,0,0,0-6.31,6.44,18,18,0,0,0-3,9.45c-.06.89-.53,5.91.15,6.08s1.7-4.65,2-5.54a14,14,0,0,1,4-6.78c4.69-4.27,15.65-7.48,12.13-18-1-3.11-4.43-5.83-3.2-9.66s5.58-4.36,7.46-7.7,1-7.51-.73-10.43C96.62,102.17,91.19,101.83,86.55,100.32Z"/>
      <path class="cls-1" d="M71,80.29a4,4,0,0,1-1.57-5.06c.89-1.94,2.72-2.4,3.33-4.66.7-2.61-.21-5.21-1.21-7.42s-4.6-8.47-.64-9.44c-1.58-1.24-2.56-.83-3.1.31a9,9,0,0,0-.44,4.36c.4,3.73,4.31,8,2.37,11.94-1.67,3.38-6,4.78-4.19,9.74,1.24,3.3,4.86,4.64,7.26,6,2.14,1.23,7.16,4.08,2.08,6.12a5.76,5.76,0,0,0-3.31,5c.33,3.37,3.81,5.63,3.6,9.36-.19,3.21-2.68,3.5-4.75,3.47-3-.06-6.9.53-8.38,4.64-1.33,3.71-.14,7.71,1.65,10.72,2,3.43,3.54,4.19,1.05,8.1-2.22,3.51-3.85,6.62-2.61,11.19a12.31,12.31,0,0,0,5.65,7.47c2.08,1.31,5.44,2,7.07,4.12s.31,5.7,1.31,8.29a18.45,18.45,0,0,0,1-6.77c-.12-6.17-4-7.39-7.38-9.92-3.66-2.72-3.33-7.92-1.18-12.08,1.91-3.7,1.69-7.18.23-10.94-1-2.62-3.74-6.79-1.49-9.6,2.84-3.56,10.25.59,11.51-5.8,1-5.21-6.43-10.18-5-14,.81-2.13,3.58-1.19,4.93-2.43C85,87.44,74,82.33,71,80.29Z"/>
      <path class="cls-1" d="M70.92,157.09c-.71-1.78-.13-3.16,0-5.07a11.12,11.12,0,0,0-3-8c-2.87-3.08-9.16-3.19-10.79-8-1.34-4,2.35-8.28,2.3-12.38-.08-6.83-4.91-9.38-9.53-6.86-2.23,1.22-6,4.26-8.5,3.25-1.3-.19-.87-2-.86-3.39-.05-4.06-1.85-8.3-5.28-8.18-3.07.11-2.84.2-4-3.57-.48-1.53-1.45-3.66-2.78-4.21a3.31,3.31,0,0,0-3.69,2.07c5.72-.24,2.37,6.26,5.22,10.13,1.57,2.11,3.85.66,5.25,2.13s1,4.41,1.74,6.21c3.66,8.36,9.95-1.7,14.4-2.91,2.43-.67,4.34.17,4.64,3.61.28,3.16-1.83,5.17-2.92,7.69a14.28,14.28,0,0,0-.45,10.17c2.08,5.83,5.74,6.78,10.11,9s2.06,5.78,4.53,9.93a8.67,8.67,0,0,0,1.86,2.15c1,.85,2.22,1.32,3.19,2.24.26.25,1.13,2,1.25,2,1.59.2-.16-4.11-.55-4.75A26.32,26.32,0,0,1,70.92,157.09Z"/>
      <path class="cls-1" d="M78.58,132.56c-1-1.23-1.8-1.89-1.73-3.81s1-3.24,1.07-5.07c.24-7.52-5.63-8.53-10.18-9.62-2.36-.53-6.07-.91-5.29-5,.45-2.33,1.84-3.11,3.67-4s6.95-2.13,5.83-6c-.9-3.13-4.51-3.3-6.67-3.34-1.79,0-6.25,1.3-7.4-.7s.91-2.81,2-3.17c1.35-.44,2.51-.86,3.16-2.61A6.9,6.9,0,0,0,59.81,81c-.73-.39-5.54-1.66-5.55-2.82,0-1.49,1.8-1.4,2.53-1.59-.25-1.16-2.23-1-2.95-.33-4.31,4,8.68,6.23,5.39,10.64C58,88.61,55.5,88.51,54.1,90.05c-1.92,2.09-1.34,6.08.11,8.22,2.12,3.15,6,1.71,8.71.79,1.83-.62,6-2.68,7.16.1,1,2.53-3.53,3.86-4.68,4.23-3.22,1-6.52,4.83-5.42,9.39,1.27,5.19,5.19,5.48,8.72,6,1.63.26,4,1.38,4.48,3.71.63,2.9-1.3,5.44-1.1,8.28S75,134,75.72,136.57c.79,2.8-1.18,3.55-2.65,4.69a13.57,13.57,0,0,0-4.48,5.66c-1.78,5.44.17,9.54,2.83,13.68.34.53,2.54,4.94,2.92,4a12.33,12.33,0,0,0-.94-4.11c-1.3-4.26-3.2-7.76-.83-12a18.44,18.44,0,0,1,2.82-2.08c2.14-1.35,4.46-2.94,5.37-6C81.88,136.77,80.45,134.85,78.58,132.56Z"/>
    </g>
  </g>
</svg>
