<svg id="Layer_1" data-name="Layer 1" xmlns="http://www.w3.org/2000/svg" width="137.65" height="162.09" viewBox="0 0 137.65 162.09">
  <defs>
    <style>
      .cls-1 {
        fill: #295968;
      }
    </style>
  </defs>
  <path class="cls-1" d="M119.36,121.12a10.78,10.78,0,0,0-5.3,2.64,12.86,12.86,0,0,0-1.62.07,24.55,24.55,0,0,0-8,2.75c1.2-1.38,2.26-2.88,2.21-4.51v-.25l-.28,0a3.32,3.32,0,0,0-3,1.45,8,8,0,0,0-1.62,4.88c-1.12.69-1.94,1.26-2.29,1.51-1.2.86-2.39,1.63-3.57,2.33a4.56,4.56,0,0,0,.77-3l0-.22-.26,0h-.43c-2.08.24-3.71,3.37-4.74,5.61a30,30,0,0,1-7.62,2.16c.45-.34.88-.68,1.28-1s1.67-2.8,1.2-3.66a.76.76,0,0,0-.81-.36l-.13,0c-1.52.75-3.69,3.31-4.79,5.25-.78,0-1.57,0-2.36-.06a38.79,38.79,0,0,0,5-4.7,31.64,31.64,0,0,1,5.37-4.87c1.23-.81,2.55-1.57,3.88-2.31a21.17,21.17,0,0,0,7.51.89,9.76,9.76,0,0,0,1.71-.35l.31-.1-.07-.27c-.46-1.65-3.34-2.1-6.17-2a64.33,64.33,0,0,0,6.36-3.89l.31,0c1.64-.19,11.44-2,11.25-3.63a.92.92,0,0,0-.38-.78,2.25,2.25,0,0,0-1.61-.25,27.74,27.74,0,0,0-6.59,2.24c.15-.14.32-.28.46-.43,3.09-3.09,3.18-6.75,3.27-10a2.26,2.26,0,0,1,0-.26c2.73-.67,7.2-2.44,8.3-4A1.07,1.07,0,0,0,117,101c-.09-.22-.38-.59-1.21-.49-1.55.18-4.45,1.86-7.22,3.63.23-3.3,1.14-5.74,6.15-7.25a1.45,1.45,0,0,0,.82-.6,1.07,1.07,0,0,0,.09-.92,1.42,1.42,0,0,0-1.75-.72,19,19,0,0,0-2.38.89,16,16,0,0,0,1.38-6.32l0-.27h-.32a2.86,2.86,0,0,0-2.32,1.11c-1.36,1.7-1.27,4.87-1,6.8-3.35,2.54-3.45,6-3.53,9.45-.07,2.37-.15,4.8-1.41,6.92-.06-3-.69-7-4.09-7.77l-.36-.08-.09.31c-.35,1.27.35,2.77,1,4.09.17.37.34.72.47,1s.23.63.36,1a16.08,16.08,0,0,0,1.36,3.13c-2.79,2.72-6.51,4.76-10.13,6.73l-.11.06-1.53.85c.65-2,1.22-4.48.55-5.53a1.2,1.2,0,0,0-1-.56,1.37,1.37,0,0,0-1.23.59c-1,1.29-.73,4.65-.41,6.68-.84.48-1.67,1-2.47,1.5l-.21.16a23.06,23.06,0,0,0,1.42-5.86c.1-.91.14-1.82.17-2.71,2.08-1.2,4.92-3.36,5.39-4.74a1,1,0,0,0-.39-1.22,1.34,1.34,0,0,0-.87-.19c-1.18.14-2.58,1.59-4.06,3.44a24.11,24.11,0,0,1,.4-4.15c.34-1.7.87-3.42,1.39-5.12.36-1.17.73-2.39,1-3.62.58-.32,1.19-.71,1.78-1.09a20.93,20.93,0,0,1,2-1.22,32.28,32.28,0,0,0,5.53-2.81l.32-.21-.27-.24A3.22,3.22,0,0,0,97.7,95c-2.07.24-4.45,2-6.27,3.64.57-4.89-1-9.29-2.58-13.57l-.09-.26C90.82,83,93.25,80.08,94,78l.1-.27-.3-.1a3,3,0,0,0-1.28-.13c-2.15.24-3.68,2.76-4.56,4.95a36.3,36.3,0,0,1-1.45-5.34,21.14,21.14,0,0,1,2.06-12.83c.58,0,1.17-.08,1.52-.13.58-.06,5.64-.68,6.64-2.14a.9.9,0,0,0,.09-.94c-.17-.35-.62-.74-1.79-.61a21.66,21.66,0,0,0-5.35,1.88,19.83,19.83,0,0,1,6.69-6.46,1.11,1.11,0,0,0,.41-1.66,1.59,1.59,0,0,0-1.93-.3,24.1,24.1,0,0,0-2.45,1.69c.45-2.35.32-4.61-1.91-5.51l-.25-.1-.18.2c-1.4,1.53-.81,3.13-.39,4.3.06.17.12.32.16.45A11,11,0,0,1,90,56.14a12.49,12.49,0,0,0,.16,1.55,23,23,0,0,0-3.41,4.53c-.49-2.44-1.51-4.89-4.24-5.9l-.28-.1-.18.22c-.13.18-.53.71.32,2.85a21.31,21.31,0,0,0,3.16,5.34,23.58,23.58,0,0,0-1.92,11.66,8,8,0,0,0-4.66-3.54l-.3-.07-.13.24c-.35.63,0,1.65,1,3a17.13,17.13,0,0,0,5,4.58c.51,1.82,1.13,3.59,1.76,5.31s1.17,3.28,1.64,4.9A6.44,6.44,0,0,0,82,89l-.31.07,0,.27c.17,1.42,2,2.15,3.41,2.73l.73.3c.5.27,1,.64,1.61,1l1,.69a16.31,16.31,0,0,1-.21,6.28c-.32,1.33-.74,2.69-1.16,4-.48,1.56-1,3.16-1.31,4.79-.75-2.66-2.09-5.22-5.25-5.62l-.4,0,0,.34c-.08,1.41,1,2.87,2,4.17.27.35.52.68.74,1s.49.89.77,1.45a14.59,14.59,0,0,0,1.63,2.74c0,.78-.06,1.55-.07,2.31,0,1.23-.05,2.61-.2,3.94A21.12,21.12,0,0,1,84,124.24a10,10,0,0,0-2.32-4.6l-.24-.2-.26.22c-2.07,1.77-.32,5.46,1.09,8.16a25.7,25.7,0,0,1-6.62,6.83,1.68,1.68,0,0,0-.5,0,19.74,19.74,0,0,0-.66-2.31,19.34,19.34,0,0,1-.62-2.21c2.14-1.86,5.19-4.74,4.92-7l0-.22-.25,0a3.18,3.18,0,0,0-.69,0c-1.61.19-3.06,1.85-4.08,3.65a23.69,23.69,0,0,1,.68-3.66,28.16,28.16,0,0,0,.09-14.15c1.52-2.59,3.12-5.66,1.82-8.31l-.12-.27-.33.11c-1.23.42-2.07,2.49-2.47,3.68-.08.25-.16.52-.23.79-.71-1.79-1.52-3.5-2.33-5.19-.59-1.23-1.16-2.44-1.69-3.65,2.12-2.48,4.17-6.09,2.93-9.11L72,86.41l-.36.16c-1.82.78-2.31,2.89-2.7,4.59-.07.28-.13.55-.19.78a13.14,13.14,0,0,1-.54,1.41A22.11,22.11,0,0,1,66.81,87a32.21,32.21,0,0,1,.56-6.45c.06-.37.11-.75.17-1.13,2.34-1.56,6.16-4.8,6.67-6a.59.59,0,0,0-.11-.74,1.69,1.69,0,0,0-1.31-.37c-1.53.18-3.42,2.17-4.9,4.08a18.93,18.93,0,0,0,0-3.61A29,29,0,0,0,65.38,65c-.49-1.16-1-2.34-1.42-3.54a22.39,22.39,0,0,0,2.33-2.39c.28-.32.52-.6.69-.77l.11-.11c1.44-1.41,2.67-2.64,2.54-4.7v-.23l-.27,0a4.22,4.22,0,0,0-.94,0c-2.45.28-4.1,3.22-5.14,5.73-1.2-6.12,1.3-13.1,5.13-18.53l.84-.08c.71-.08,6.89-.84,7-2.42a.82.82,0,0,0-.3-.75,2.1,2.1,0,0,0-1.57-.24,20.26,20.26,0,0,0-4.25,1.21,28.34,28.34,0,0,1,2.18-2.31,1.07,1.07,0,0,0-.07-1.68,1.62,1.62,0,0,0-2,.12,35.21,35.21,0,0,0-6.57,8.65,8.64,8.64,0,0,0-1.56-4.41l-.22-.23-.27.19c-2.18,1.51-.72,5.26.24,7.75.05.11.08.21.12.32a25.33,25.33,0,0,0-1.87,9.17,16.16,16.16,0,0,0-6-5.46L53.75,50l-.16.34c-.93,2.08,1.49,4,3.09,5.34l.14.12c.36.28.78.65,1.23,1.06a24.67,24.67,0,0,0,2.34,2q.15.88.39,1.77a40.52,40.52,0,0,0,2,5.27A28.88,28.88,0,0,1,65,72.62c-2.58-3.37-5.47-5.07-8.64-5h-.42L56,68c.3,1.6,2.38,2.69,4,3.56.38.2.74.38,1,.56a17.56,17.56,0,0,1,1.79,1.4,22.88,22.88,0,0,0,2.29,1.75,40.38,40.38,0,0,1-.56,5.09A43,43,0,0,0,64,85.59a25.61,25.61,0,0,0-2.53-2.12,15.08,15.08,0,0,0-5-1.14c-.59.06-.77.38-.74.66l0,.09c.61,1.14,2.18,1.74,3.57,2.27.54.21,1.06.41,1.51.64A12.63,12.63,0,0,1,63,87.39c.37.28.73.54,1.09.78a29.63,29.63,0,0,0,2.76,9.36l0,.56.15-.14c.39.86.79,1.7,1.19,2.54s.72,1.51,1.07,2.27c-3-2-6.31-3.83-9.7-4.14l-.41,0v.35c0,2.2,3.16,3.23,5.23,3.91l.19.06c.46.15,1,.36,1.61.59a20.81,20.81,0,0,0,4,1.22,33,33,0,0,1,1.39,3.87,25.6,25.6,0,0,1,.86,9.46c-1.82-2.81-4.92-5-8.59-4.55l-.46,0,.16.37c.54,1.21,2,2,3.44,2.72a17.92,17.92,0,0,1,1.6.9,12.73,12.73,0,0,1,2.16,1.82c.46.44.9.86,1.34,1.22-.12.61-.25,1.21-.41,1.82a20.59,20.59,0,0,0-.78,6.82,10,10,0,0,0-4.41-2.89l-.39-.12-.09.35c-.48,1.83,1.5,3.51,3,4.74l.56.48A21.63,21.63,0,0,1,71,133.42c.45.53.9,1.08,1.36,1.55.05.23.09.45.12.68-4.63-2-7.53-4-9.67-8.13A34.77,34.77,0,0,0,60.71,124c1.18-2.8,2.29-6.34,0-8.59l-.23-.22-.27.19c-1.52,1.11-1.3,3.77-1.24,4.3a12.26,12.26,0,0,1,0,2,.28.28,0,0,1,0,.09q-.57-.65-1.23-1.26A31.5,31.5,0,0,0,54.51,118c-.57-.4-1.12-.79-1.65-1.19a14,14,0,0,0,.77-2.81,11.68,11.68,0,0,1,.5-2,7.26,7.26,0,0,0,.35-4l0-.31-.37,0a3,3,0,0,0-1.92,1.08c-1.2,1.45-1.22,4.1-.88,6.57-.13-.13-.26-.24-.37-.37C49,113,48.51,110.39,48,107.6a19.55,19.55,0,0,0-2.19-6.94,15.17,15.17,0,0,0-1.28-1.81c.77-2.75,1.65-6.32-.55-8.6l-.18-.19-.26.12a2.21,2.21,0,0,0-1.13,1.5,11.23,11.23,0,0,0,.14,5.1,35.53,35.53,0,0,0-7.72-5.1c0-.11,0-.22,0-.34.12-2.5.25-5.62-1.67-7.42L33,83.75l-.25.11a2.17,2.17,0,0,0-1.18,1.8,9.74,9.74,0,0,0,1.15,5c-.87-.41-1.75-.8-2.61-1.17a1.6,1.6,0,0,0-1.89.54,1.05,1.05,0,0,0-.12.91,1.2,1.2,0,0,0,.68.68c1.75.76,3.55,1.6,5.29,2.51l-.83.06a6.13,6.13,0,0,0-3.67,1.46l-.14.15.09.17c.49.93,2.37.93,3.87.75a16.45,16.45,0,0,0,3.69-.86,19.23,19.23,0,0,1,6.25,6,14.07,14.07,0,0,1,1.61,4.6l-.06,0c-.45-.32-.86-.61-1.16-.86l-.13-.11c-1.54-1.25-3-2.43-5.48-2.18l-.35,0,0,.3c.21,2.45,4.77,4.4,7.63,5.39.5,2.66,1.14,5.36,3.25,7.66a15.65,15.65,0,0,0,2,1.81,13.51,13.51,0,0,0-3.35-.12,5.79,5.79,0,0,0-3.4,1.47l-.21.21.21.2c1.08,1,4.26.78,5.58.63a19.6,19.6,0,0,0,3.49-.71,27.5,27.5,0,0,1,2.62,2,20.75,20.75,0,0,1,4,5.32,10.36,10.36,0,0,0-5.26-1.21,4.55,4.55,0,0,0-.88.19l-.36.12.15.29c1.09,2.14,5.42,3.48,8.68,4.47,2.13,2.84,4.85,4.61,8.62,6.26a18.77,18.77,0,0,1-3.86.81,36.19,36.19,0,0,1-4.7.21l-1.57-2.18c-1-1.43-2.09-2.91-3.18-4.34l-.2-.25-.3.17a2.21,2.21,0,0,0-.86,3,9.74,9.74,0,0,0,2.69,3.37c-4-.46-6.84-2.53-9.87-5a14.23,14.23,0,0,0-.69-6.83l-.12-.23-.29,0A2,2,0,0,0,46,127.37a5.52,5.52,0,0,0,.11,3.89,25.44,25.44,0,0,0-9.78-4.84c-.53-1.89-2-5.91-5.21-5.54a3.72,3.72,0,0,0-.63.13l-.29.08,0,.26c.21,1.37,1.93,3.29,3.58,4.61a17.3,17.3,0,0,0-3.87,0,12.66,12.66,0,0,0-3.06.73,10.15,10.15,0,0,0-3.38-.35,3.29,3.29,0,0,0-2.4,1.26l-.14.18.17.17c.6.63,2,.61,3,.52a7.4,7.4,0,0,0-1.65,2.42,1,1,0,0,0,0,.91,1.3,1.3,0,0,0,.79.59,1.56,1.56,0,0,0,1.79-.78,5.08,5.08,0,0,1,3.38-2.93,3,3,0,0,0-.94,1,1.6,1.6,0,0,0,0,1.53l.09.17h.21a2.1,2.1,0,0,0,.43,0,7.3,7.3,0,0,0,4.38-3.08,17,17,0,0,1,1.73.21,19.76,19.76,0,0,1,5.11,1.63c-2.35.31-5.08,1.31-5.36,3.21l0,.27.32.05a2.38,2.38,0,0,0,.65,0,39.44,39.44,0,0,0,7.23-1.94,49.28,49.28,0,0,1,4.31,3.26l1.6,1.28a10.22,10.22,0,0,0-1.57,0,4.46,4.46,0,0,0-3.52,1.79l-.13.22.22.15a5.11,5.11,0,0,0,3.49.53,25.6,25.6,0,0,0,3.8-.82l.32-.08a17.23,17.23,0,0,0,8.15,2.77,45.41,45.41,0,0,0,8.07-.1,19.91,19.91,0,0,0,5.85-1.47h.06l.31-.06c.35-.11.67-.25,1-.38a1.57,1.57,0,0,0,.31-.08A29.85,29.85,0,0,0,83,139a34.32,34.32,0,0,0,10.38-3,34.72,34.72,0,0,0,6.89.15c1.72-.2,2.61-.63,2.73-1.31a.87.87,0,0,0-.29-.85c-.5-.44-1.62-.55-3.4-.35-.65.08-1.34.19-2,.32,1.3-.76,2.59-1.58,3.87-2.51a39.24,39.24,0,0,1,5.56-3.3c1.8.82,4.64,1.82,6.25,1.64a1.57,1.57,0,0,0,1.26-.67.87.87,0,0,0,0-1c-.53-.74-2.43-1.07-4.33-1.22a14.86,14.86,0,0,1,2.84-.66,8.06,8.06,0,0,1,2,0,4.1,4.1,0,0,1,3.06,2,1.53,1.53,0,0,0,1.88.46,1.36,1.36,0,0,0,.7-.72,1,1,0,0,0-.09-.9,6.49,6.49,0,0,0-3.07-2.66,8.88,8.88,0,0,0,4.67-2.21l.19-.2-.19-.19A2.94,2.94,0,0,0,119.36,121.12Z"/>
</svg>
