<svg id="Layer_1" data-name="Layer 1" xmlns="http://www.w3.org/2000/svg" width="281.48" height="296.47" viewBox="0 0 281.48 296.47">
  <defs>
    <style>
      .cls-1 {
        fill: #8c2c2c;
      }

      .cls-2 {
        fill: #4f1313;
      }

      .cls-3 {
        fill: #423628;
      }

      .cls-4 {
        fill: #564837;
      }

      .cls-5 {
        fill: #607718;
      }
    </style>
  </defs>
  <path class="cls-1" d="M235.62,211.76c-3.72.42-8.09,3-10.52,5.21a23.58,23.58,0,0,0-3.21.15c-5.47.63-11.23,3-16,5.44,2.38-2.72,4.48-5.7,4.38-8.94l0-.48-.56-.07c-2.2-.27-4.31.75-6,2.88a15.86,15.86,0,0,0-3.22,9.68c-2.22,1.36-3.84,2.49-4.55,3-2.38,1.7-4.73,3.21-7.06,4.61,1.2-2.11,1.86-4.22,1.53-5.88l-.09-.44-.52,0a4.85,4.85,0,0,0-.85,0c-4.12.47-7.36,6.68-9.4,11.12a59.41,59.41,0,0,1-15.1,4.27c.89-.67,1.75-1.33,2.52-2s3.32-5.55,2.4-7.27a1.52,1.52,0,0,0-1.61-.7l-.26.08c-3,1.48-7.32,6.56-9.5,10.4-1.55,0-3.12,0-4.67-.12a78.11,78.11,0,0,0,10-9.31c3.47-3.65,6.74-7.1,10.64-9.66,2.43-1.6,5.06-3.1,7.7-4.58,4.86,1.28,10.12,2.31,14.88,1.77a18.42,18.42,0,0,0,3.4-.71l.61-.19-.15-.53c-.91-3.28-6.62-4.17-12.23-3.93a124.25,124.25,0,0,0,12.62-7.7c.2,0,.37,0,.61-.06,3.25-.38,22.68-4,22.3-7.2a1.85,1.85,0,0,0-.74-1.56,4.5,4.5,0,0,0-3.2-.49c-3.36.39-8.6,2.46-13.06,4.44.3-.28.62-.55.91-.85,6.11-6.13,6.3-13.38,6.48-19.8,0-.17,0-.33,0-.5,5.43-1.33,14.29-4.84,16.46-7.83a2.1,2.1,0,0,0,.41-2.13c-.19-.44-.75-1.16-2.4-1-3.07.35-8.83,3.69-14.31,7.19.45-6.54,2.25-11.38,12.18-14.36a2.81,2.81,0,0,0,1.63-1.2,2.08,2.08,0,0,0,.18-1.81,2.82,2.82,0,0,0-3.46-1.44,36.13,36.13,0,0,0-4.74,1.77c1.72-4.21,3-9.21,2.74-12.53l0-.54h-.65a5.66,5.66,0,0,0-4.6,2.2c-2.69,3.38-2.53,9.66-1.93,13.49-6.66,5-6.85,12-7,18.73-.12,4.7-.29,9.51-2.79,13.72-.12-6-1.37-13.95-8.11-15.41l-.71-.15-.18.62c-.7,2.52.69,5.49,1.91,8.1.34.73.67,1.42.93,2.07s.46,1.25.72,2a31.3,31.3,0,0,0,2.69,6.21C197.51,205,190.13,209,183,212.92l-.22.12c-1,.55-2,1.13-3,1.69,1.28-3.93,2.41-8.88,1.09-11a2.34,2.34,0,0,0-1.93-1.11,2.69,2.69,0,0,0-2.44,1.17c-1.87,2.56-1.44,9.21-.81,13.23-1.65,1-3.31,1.94-4.89,3-.15.1-.28.22-.43.32a45.22,45.22,0,0,0,2.83-11.63c.2-1.8.28-3.59.34-5.37,4.12-2.36,9.75-6.66,10.68-9.39a1.89,1.89,0,0,0-.77-2.42,2.6,2.6,0,0,0-1.73-.37c-2.34.27-5.1,3.14-8,6.82a47.32,47.32,0,0,1,.8-8.23,102.6,102.6,0,0,1,2.76-10.15c.71-2.33,1.43-4.74,2.06-7.18,1.15-.64,2.35-1.41,3.53-2.17a42.92,42.92,0,0,1,4-2.41,65.71,65.71,0,0,0,11-5.57l.63-.42-.54-.48a6.4,6.4,0,0,0-5.17-1.46c-4.11.47-8.83,3.86-12.42,7.21,1.11-9.7-2.06-18.42-5.13-26.91l-.18-.52c4.1-3.55,8.91-9.33,10.38-13.37l.19-.53-.59-.2a5.89,5.89,0,0,0-2.55-.27c-4.26.49-7.29,5.48-9,9.83a72.11,72.11,0,0,1-2.89-10.59,42,42,0,0,1,4.09-25.45c1.16-.05,2.32-.16,3-.24,1.14-.13,11.17-1.37,13.17-4.26a1.74,1.74,0,0,0,.18-1.85c-.34-.7-1.24-1.48-3.56-1.21-2.87.33-7.13,2.14-10.59,3.73A39.07,39.07,0,0,1,190,82.47a2.19,2.19,0,0,0,.82-3.28,3.12,3.12,0,0,0-3.83-.6,45.86,45.86,0,0,0-4.86,3.35c.89-4.66.64-9.14-3.78-10.92l-.51-.2-.36.39c-2.76,3-1.6,6.2-.75,8.52.11.33.23.64.31.89a22.82,22.82,0,0,1,.25,2.29c.07,1.06.15,2.12.31,3.07a45.51,45.51,0,0,0-6.75,9c-1-4.84-3-9.69-8.42-11.69l-.55-.2-.34.44c-.26.35-1.06,1.4.61,5.64a42.68,42.68,0,0,0,6.28,10.59,46.8,46.8,0,0,0-3.81,23.12c-2.22-3.23-5.09-6-9.24-7l-.59-.14-.26.48c-.7,1.25,0,3.27,1.93,6,2.54,3.5,6.83,7.51,9.88,9.08,1,3.6,2.25,7.11,3.49,10.53,1.19,3.27,2.33,6.49,3.25,9.72-3-2.68-6.82-4.53-11.5-3.51l-.62.13.07.54c.34,2.82,3.89,4.26,6.76,5.41.53.21,1,.42,1.45.6a34.47,34.47,0,0,1,3.19,2c.69.47,1.39.93,2.07,1.37a32.05,32.05,0,0,1-.42,12.45c-.64,2.64-1.47,5.33-2.3,8-.95,3.08-1.89,6.27-2.6,9.5-1.49-5.29-4.15-10.36-10.4-11.16l-.8-.1-.05.69c-.14,2.78,2.05,5.69,4,8.25.53.7,1,1.37,1.46,2s1,1.77,1.53,2.87a29.27,29.27,0,0,0,3.23,5.44c-.07,1.54-.11,3.08-.14,4.59-.05,2.42-.09,5.17-.39,7.8a42.29,42.29,0,0,1-2.14,9.49c-1.06-3.94-2.87-7.7-4.6-9.12l-.49-.4-.5.42c-4.11,3.53-.65,10.84,2.16,16.19a50.8,50.8,0,0,1-13.13,13.53,3.32,3.32,0,0,0-1,0,42.39,42.39,0,0,0-1.31-4.58,36.65,36.65,0,0,1-1.22-4.39c4.23-3.68,10.27-9.39,9.75-13.93l0-.43-.5-.09a5.15,5.15,0,0,0-1.36,0c-3.19.37-6.07,3.66-8.1,7.23a48.94,48.94,0,0,1,1.37-7.25,55.67,55.67,0,0,0,.16-28c3-5.15,6.19-11.24,3.63-16.49l-.26-.53-.64.22c-2.44.84-4.12,4.93-4.9,7.3-.15.49-.31,1-.46,1.57-1.42-3.55-3-7-4.62-10.3-1.17-2.43-2.3-4.83-3.35-7.24,4.21-4.92,8.26-12.07,5.81-18.06l-.26-.63-.71.31c-3.61,1.55-4.58,5.73-5.36,9.1-.13.56-.25,1.09-.38,1.56a25.27,25.27,0,0,1-1.07,2.79,44.18,44.18,0,0,1-2.66-12.58,63.32,63.32,0,0,1,1.11-12.79c.11-.73.21-1.49.32-2.24,4.64-3.09,12.22-9.52,13.23-11.93a1.14,1.14,0,0,0-.21-1.46,3.31,3.31,0,0,0-2.61-.74c-3,.35-6.77,4.29-9.7,8.08a37.13,37.13,0,0,0-.07-7.15c-.67-5.47-2.81-10.51-4.91-15.42-1-2.3-2-4.65-2.82-7a43.11,43.11,0,0,0,4.62-4.74c.56-.65,1-1.19,1.37-1.54L132,87c2.84-2.8,5.3-5.23,5-9.32l0-.46-.52-.08a7,7,0,0,0-1.88,0c-4.86.56-8.12,6.37-10.19,11.36-2.38-12.13,2.57-26,10.18-36.74l1.67-.17c1.39-.16,13.64-1.66,13.94-4.8a1.61,1.61,0,0,0-.58-1.47,4.2,4.2,0,0,0-3.12-.48,40.21,40.21,0,0,0-8.42,2.4,59.22,59.22,0,0,1,4.31-4.58,2.12,2.12,0,0,0-.14-3.33,3.23,3.23,0,0,0-3.92.23,70.14,70.14,0,0,0-13,17.16c-.45-3.67-1.67-7.34-3.09-8.76l-.44-.44-.53.38c-4.32,3-1.43,10.43.48,15.36.09.22.16.42.24.63A50.06,50.06,0,0,0,118.23,82c-3.28-4.54-7.16-8.62-12-10.84l-.71-.32-.3.67c-1.85,4.12,3,8,6.12,10.58l.28.24c.71.56,1.54,1.3,2.43,2.11a51.67,51.67,0,0,0,4.65,3.86,33.36,33.36,0,0,0,.77,3.51,81.09,81.09,0,0,0,3.92,10.45c1.93,4.51,3.71,8.8,4.42,13.35-5.11-6.68-10.85-10.06-17.13-9.92h-.84l.13.71c.6,3.17,4.71,5.32,8,7,.75.4,1.47.77,2.08,1.12a40.12,40.12,0,0,1,3.55,2.77,42.12,42.12,0,0,0,4.53,3.47,81.08,81.08,0,0,1-1.1,10.1,84.77,84.77,0,0,0-1.17,10.41,48.1,48.1,0,0,0-5-4.21c-.57-.41-7.36-2.56-9.95-2.26-1.17.13-1.52.76-1.46,1.31l.06.18c1.21,2.27,4.33,3.46,7.07,4.51,1.08.42,2.1.81,3,1.25a25.4,25.4,0,0,1,4.32,2.8c.73.55,1.45,1.06,2.16,1.54.67,6.74,2.87,12.78,5.47,18.56l.09,1.1.3-.27c.77,1.69,1.57,3.37,2.36,5,.71,1.48,1.43,3,2.12,4.5-5.92-4-12.52-7.6-19.23-8.2l-.82-.07v.71c.05,4.35,6.26,6.39,10.37,7.75l.37.11c.91.29,2,.71,3.19,1.17a40.83,40.83,0,0,0,7.84,2.43,67.24,67.24,0,0,1,2.76,7.67,50.69,50.69,0,0,1,1.69,18.75c-3.6-5.58-9.75-9.86-17-9l-.91.1.32.73c1.06,2.4,4,3.93,6.81,5.39a34.08,34.08,0,0,1,3.18,1.78,25.54,25.54,0,0,1,4.29,3.62c.9.87,1.77,1.71,2.65,2.42q-.34,1.8-.81,3.6a40.53,40.53,0,0,0-1.54,13.53,19.85,19.85,0,0,0-8.76-5.74l-.77-.23-.18.69c-.94,3.63,3,7,5.85,9.4.4.34.78.66,1.11,1,.89.85,1.86,2,2.9,3.24.88,1.06,1.79,2.14,2.7,3.09.1.44.16.88.23,1.33-9.17-3.9-14.92-8-19.17-16.12a70,70,0,0,0-4.14-7c2.35-5.55,4.55-12.57,0-17l-.44-.44-.54.39c-3,2.19-2.58,7.48-2.46,8.53a24,24,0,0,1-.08,3.88,1,1,0,0,0,0,.17c-.77-.85-1.57-1.69-2.45-2.49a60,60,0,0,0-6.31-4.83c-1.12-.78-2.22-1.56-3.26-2.35a29.3,29.3,0,0,0,1.52-5.58,22.87,22.87,0,0,1,1-3.86c1.17-2.73,1-5.1.69-7.9l-.07-.63-.74.11a6,6,0,0,0-3.81,2.13c-2.38,2.89-2.41,8.13-1.74,13-.25-.25-.51-.48-.74-.72-3.8-4.14-4.73-9.33-5.71-14.85-.83-4.62-1.68-9.4-4.33-13.78a29.5,29.5,0,0,0-2.55-3.58c1.53-5.45,3.29-12.54-1.08-17.06l-.36-.38-.52.24a4.45,4.45,0,0,0-2.23,3c-.82,2.74-.48,6.75.27,10.12a69.63,69.63,0,0,0-15.31-10.11c0-.23,0-.44,0-.68.22-5,.5-11.14-3.32-14.72l-.36-.33-.49.23a4.21,4.21,0,0,0-2.34,3.56c-.39,2.88.78,6.86,2.28,9.91-1.74-.81-3.47-1.59-5.18-2.32a3.18,3.18,0,0,0-3.75,1.07,2.06,2.06,0,0,0-.23,1.8A2.39,2.39,0,0,0,56,153.26c3.48,1.5,7,3.16,10.5,5-.54,0-1.09,0-1.65.12-3.24.37-5.89,1.42-7.27,2.88l-.28.29.18.34c1,1.86,4.7,1.85,7.66,1.5a32.72,32.72,0,0,0,7.32-1.71c5.14,3.3,9.6,7.16,12.4,11.8a27.66,27.66,0,0,1,3.19,9.12.51.51,0,0,0-.13-.09c-.88-.65-1.7-1.23-2.29-1.72l-.25-.21c-3.06-2.47-5.94-4.81-10.87-4.32l-.7.07,0,.6c.41,4.85,9.46,8.72,15.12,10.68,1,5.28,2.26,10.64,6.45,15.2a31.32,31.32,0,0,0,4,3.58,26.49,26.49,0,0,0-6.64-.23,11.31,11.31,0,0,0-6.72,2.91l-.43.41.41.39c2.14,2,8.46,1.56,11.07,1.26A37.22,37.22,0,0,0,104,209.7a49.07,49.07,0,0,1,5.2,4,40.8,40.8,0,0,1,7.94,10.54c-3.52-1.69-7.39-2.75-10.44-2.4a8.36,8.36,0,0,0-1.74.38l-.71.24.3.58c2.16,4.22,10.74,6.89,17.2,8.84,4.23,5.64,9.63,9.15,17.1,12.42a37.57,37.57,0,0,1-7.67,1.61,72.51,72.51,0,0,1-9.3.41c-1-1.44-2.09-2.87-3.12-4.31-2-2.84-4.13-5.78-6.31-8.62l-.38-.5-.6.35c-2.17,1.24-2.78,3.39-1.71,6a19.33,19.33,0,0,0,5.33,6.68c-7.83-.92-13.56-5-19.57-10a28.2,28.2,0,0,0-1.36-13.54L94,222l-.58.07a4,4,0,0,0-3.25,2.08c-1,1.94-.63,4.92.22,7.72a50.69,50.69,0,0,0-19.4-9.6c-1-3.75-4-11.71-10.32-11a8.18,8.18,0,0,0-1.25.26l-.58.16.08.51c.43,2.72,3.83,6.53,7.11,9.14a34.06,34.06,0,0,0-7.68,0,24.67,24.67,0,0,0-6.06,1.46,19.51,19.51,0,0,0-6.71-.7,6.55,6.55,0,0,0-4.75,2.48l-.28.38.32.33c1.2,1.25,4.06,1.21,5.9,1a14.47,14.47,0,0,0-3.28,4.8,2.07,2.07,0,0,0,.11,1.8A2.52,2.52,0,0,0,45.12,234a3.07,3.07,0,0,0,3.54-1.53,10.08,10.08,0,0,1,6.7-5.81,6,6,0,0,0-1.87,1.94,3.21,3.21,0,0,0,0,3l.17.33.43,0a6,6,0,0,0,.84,0c3.26-.38,7-3.53,8.69-6.11,1.42.1,2.63.27,3.44.41a39.3,39.3,0,0,1,10.11,3.22c-4.66.63-10.06,2.62-10.62,6.37l-.09.55.64.1a4.78,4.78,0,0,0,1.29,0,78.7,78.7,0,0,0,14.32-3.85,99,99,0,0,1,8.56,6.46c1.05.86,2.1,1.71,3.17,2.54a20,20,0,0,0-3.11.11c-3.41.39-5.9,1.65-7,3.54l-.25.44.44.3c1.58,1.06,3.84,1.41,6.92,1A54.6,54.6,0,0,0,99,245.48l.63-.17a34.06,34.06,0,0,0,16.16,5.49,88.41,88.41,0,0,0,16-.19,39.78,39.78,0,0,0,11.6-2.91h.11a4.13,4.13,0,0,0,.61-.13c.7-.22,1.35-.49,2-.76a2.54,2.54,0,0,0,.62-.14,59.38,59.38,0,0,0,16.73.49,68.2,68.2,0,0,0,20.59-6,66.05,66.05,0,0,0,13.66.3c3.4-.39,5.16-1.24,5.41-2.6a1.72,1.72,0,0,0-.57-1.68c-1-.87-3.21-1.09-6.76-.68-1.28.14-2.64.37-4,.62,2.57-1.51,5.12-3.13,7.67-5a75.93,75.93,0,0,1,11-6.54c3.56,1.62,9.19,3.61,12.39,3.24a3.09,3.09,0,0,0,2.5-1.33,1.73,1.73,0,0,0,0-2c-1.05-1.46-4.81-2.13-8.58-2.42a29.41,29.41,0,0,1,5.62-1.3,15.43,15.43,0,0,1,4,0,8.14,8.14,0,0,1,6.08,4,3,3,0,0,0,3.71.92,2.66,2.66,0,0,0,1.39-1.41,2.06,2.06,0,0,0-.17-1.81,12.92,12.92,0,0,0-6.09-5.27c3.57-.79,7-2,9.27-4.37l.36-.4-.36-.37A5.81,5.81,0,0,0,235.62,211.76Z"/>
  <path class="cls-2" d="M58.43,190.81a20.55,20.55,0,0,1,8.93,4.52,27.75,27.75,0,0,1,2.76.31,48.1,48.1,0,0,1,13.61,5c-2-2.17-3.71-4.52-3.54-6.92l0-.36.49,0a6.31,6.31,0,0,1,5.09,2.51,11.13,11.13,0,0,1,2.51,7.4c1.87,1.14,3.24,2.09,3.84,2.51,2,1.41,4,2.68,6,3.86-1-1.64-1.48-3.25-1.16-4.46l.09-.32h.45a4.49,4.49,0,0,1,.73.06c3.54.61,6.17,5.42,7.8,8.85a59.38,59.38,0,0,0,12.9,4.11c-.75-.55-1.47-1.1-2.12-1.62s-2.71-4.33-1.87-5.55a1.36,1.36,0,0,1,1.41-.43l.22.08c2.56,1.28,6.13,5.33,7.91,8.32,1.34.11,2.68.18,4,.2a68.82,68.82,0,0,1-8.36-7.54,55.4,55.4,0,0,0-8.91-7.84c-2-1.34-4.28-2.62-6.51-3.87-4.23.64-8.79,1.09-12.88.39a18.46,18.46,0,0,1-2.91-.74l-.52-.18.14-.38c.87-2.39,5.82-2.69,10.65-2.17a116.63,116.63,0,0,1-10.67-6.5L88,190c-2.79-.48-19.44-4.35-19-6.73a1.25,1.25,0,0,1,.68-1.11,4.27,4.27,0,0,1,2.77-.17c2.89.5,7.35,2.36,11.14,4.11l-.77-.69c-5.1-4.94-5.06-10.34-5-15.12v-.37c-4.64-1.32-12.18-4.48-14-6.84a1.4,1.4,0,0,1-.29-1.61c.17-.31.67-.81,2.09-.57,2.64.45,7.51,3.29,12.14,6.23-.22-4.89-1.64-8.6-10.11-11.42a2.53,2.53,0,0,1-1.37-1,1.36,1.36,0,0,1-.11-1.36,2.52,2.52,0,0,1,3-.85,33.64,33.64,0,0,1,4,1.61c-1.37-3.24-2.34-7-2-9.49l0-.4.56,0a5.44,5.44,0,0,1,3.9,1.92c2.23,2.68,1.91,7.34,1.3,10.15,5.6,4.15,5.57,9.31,5.54,14.35,0,3.5,0,7.09,2,10.37.27-4.48,1.56-10.28,7.42-10.95l.61-.07.14.48c.53,1.91-.74,4-1.87,5.9-.31.52-.62,1-.85,1.48s-.43.9-.68,1.44a20.72,20.72,0,0,1-2.49,4.45c4.62,4.35,10.88,7.81,17,11.16l.19.1,2.57,1.44c-1-3-1.84-6.75-.64-8.22a2,2,0,0,1,1.69-.7,2.54,2.54,0,0,1,2.07,1c1.55,2,1,6.93.34,9.88,1.4.82,2.8,1.65,4.13,2.52.13.08.24.18.36.26a31.1,31.1,0,0,1-2.12-8.82c-.12-1.35-.14-2.68-.14-4-3.49-2-8.23-5.55-8.95-7.64A1.28,1.28,0,0,1,104,179a2.5,2.5,0,0,1,1.5-.17c2,.35,4.32,2.65,6.76,5.57a30.5,30.5,0,0,0-.47-6.17,69.58,69.58,0,0,0-2.1-7.71c-.55-1.78-1.11-3.62-1.58-5.46-1-.56-2-1.2-3-1.84-1.25-.79-2.43-1.55-3.41-2a61.83,61.83,0,0,1-9.3-4.81l-.54-.36.48-.32a6,6,0,0,1,4.5-.77c3.53.61,7.5,3.42,10.51,6.13-.7-7.28,2.26-13.56,5.14-19.68l.17-.38c-3.43-2.89-7.42-7.49-8.58-10.58L104,130l.51-.1a5.88,5.88,0,0,1,2.21,0c3.66.63,6.13,4.52,7.52,7.86A45.57,45.57,0,0,0,117,130c1.39-5.67.55-12.69-2.84-19.17-1-.11-2-.26-2.59-.36-1-.17-9.59-1.71-11.24-4a1.18,1.18,0,0,1-.1-1.39c.31-.5,1.11-1,3.1-.68,2.47.42,6.09,2,9,3.43a33.79,33.79,0,0,0-11.08-10.35c-1.08-.63-1.36-1.75-.61-2.49a3,3,0,0,1,3.31-.2,39.75,39.75,0,0,1,4.1,2.78c-.64-3.51-.3-6.83,3.55-7.88l.45-.12.3.32c2.3,2.42,1.21,4.71.42,6.38l-.3.64a13.67,13.67,0,0,0-.27,1.69,21.83,21.83,0,0,1-.35,2.26,36.79,36.79,0,0,1,5.57,7.09c1-3.54,2.84-7,7.57-8.17l.49-.12.28.35c.21.28.87,1.11-.69,4.16a29.65,29.65,0,0,1-5.69,7.48A31,31,0,0,1,122,129.12a13,13,0,0,1,8.16-4.65l.51-.07.22.37c.56,1,0,2.44-1.84,4.36a27,27,0,0,1-8.76,6.13c-1,2.62-2.13,5.15-3.29,7.61s-2.19,4.69-3.06,7a11.8,11.8,0,0,1,10-1.9l.53.14-.07.39c-.37,2.07-3.47,2.92-6,3.6l-1.27.36c-.87.33-1.81.81-2.81,1.31-.6.31-1.21.61-1.82.89a20.77,20.77,0,0,0,0,9.28c.48,2,1.12,4.06,1.76,6.12.74,2.35,1.47,4.78,2,7.22,1.43-3.84,3.85-7.44,9.27-7.65l.69,0,0,.51c0,2.08-1.92,4.1-3.65,5.89-.47.48-.93,1-1.31,1.38a23,23,0,0,0-1.4,2.05,20.8,20.8,0,0,1-2.93,3.84c0,1.15,0,2.29,0,3.42a54.72,54.72,0,0,0,.12,5.82,28.33,28.33,0,0,0,1.59,7.18c1-2.85,2.68-5.54,4.21-6.49l.43-.27.42.35c3.45,2.87.27,8.1-2.29,11.9a43.17,43.17,0,0,0,10.94,10.87,3.5,3.5,0,0,1,.85.08,28.74,28.74,0,0,1,1.26-3.32,23.27,23.27,0,0,0,1.17-3.19c-3.55-3-8.6-7.61-8-10.95l0-.32.44,0a4.63,4.63,0,0,1,1.17.07c2.74.47,5.13,3.09,6.78,5.87a32.69,32.69,0,0,0-1-5.48,35.84,35.84,0,0,1,.61-20.85c-2.46-4-5-8.74-2.67-12.48l.23-.38.55.21c2.08.77,3.41,3.91,4,5.72.12.37.24.78.36,1.2,1.31-2.55,2.79-5,4.26-7.37,1.07-1.74,2.11-3.45,3.08-5.18-3.49-3.92-6.79-9.48-4.52-13.78l.24-.45.61.27c3.06,1.38,3.79,4.55,4.37,7.1.1.42.19.82.28,1.18a21.39,21.39,0,0,0,.85,2.14,28.42,28.42,0,0,0,2.64-9.19,41.51,41.51,0,0,0-.61-9.57c-.08-.55-.15-1.12-.22-1.68-3.92-2.59-10.28-7.84-11.08-9.69-.26-.6,0-.92.22-1.07a3.12,3.12,0,0,1,2.27-.39c2.6.44,5.72,3.61,8.14,6.6a24.17,24.17,0,0,1,.26-5.31c.72-4,2.71-7.64,4.65-11.15.91-1.65,1.83-3.33,2.61-5a35.8,35.8,0,0,1-3.84-3.81c-.47-.51-.87-1-1.15-1.22l-.18-.17c-2.38-2.26-4.43-4.22-4.09-7.25l0-.33.45,0a6.75,6.75,0,0,1,1.62.08c4.17.72,6.83,5.24,8.47,9.07,2.38-8.87-1.51-19.46-7.78-27.93l-1.43-.23c-1.2-.21-11.72-2.08-11.89-4.43a1.1,1.1,0,0,1,.54-1.06,4.1,4.1,0,0,1,2.71-.17A40.36,40.36,0,0,1,147,74.48a48.09,48.09,0,0,0-3.6-3.67,1.44,1.44,0,0,1,.22-2.47,3.17,3.17,0,0,1,3.37.42,56.66,56.66,0,0,1,10.76,13.55c.5-2.69,1.64-5.35,2.9-6.31l.39-.3.46.31c3.64,2.48.94,7.84-.83,11.39-.09.16-.15.3-.23.45a33.56,33.56,0,0,1,2.71,13.75,25.29,25.29,0,0,1,10.64-7.31l.62-.2.25.51c1.48,3.18-2.76,5.78-5.57,7.49l-.25.16c-.62.37-1.36.88-2.14,1.42a40.87,40.87,0,0,1-4.12,2.58,22.12,22.12,0,0,1-.76,2.57,53.85,53.85,0,0,1-3.66,7.52A36.41,36.41,0,0,0,154,126c4.58-4.65,9.62-6.81,15-6.31l.72.06-.13.51c-.6,2.32-4.2,3.67-7.1,4.74-.66.25-1.29.48-1.82.71a30.24,30.24,0,0,0-3.13,1.83,36.21,36.21,0,0,1-4,2.31,51.83,51.83,0,0,0,.67,7.57,56.12,56.12,0,0,1,.72,7.8,40,40,0,0,1,4.43-2.81c.5-.27,6.41-1.45,8.64-1.07,1,.17,1.29.66,1.22,1.06l-.06.14c-1.1,1.61-3.82,2.3-6.22,2.91-.93.25-1.83.48-2.61.75a21,21,0,0,0-3.8,1.81c-.65.36-1.28.7-1.91,1a38.11,38.11,0,0,1-5.21,13.45l-.11.82-.25-.22c-.71,1.21-1.44,2.41-2.17,3.6s-1.31,2.13-2,3.21c5.21-2.63,11-4.88,16.8-4.91h.71l0,.52c-.16,3.24-5.57,4.37-9.15,5.12l-.32.07c-.79.16-1.75.4-2.79.66a37.78,37.78,0,0,1-6.81,1.33,42.83,42.83,0,0,0-2.59,5.53,32.35,32.35,0,0,0-2,13.83,15.86,15.86,0,0,1,14.92-5.65l.79.13-.3.52c-1,1.72-3.54,2.67-6,3.59a29.16,29.16,0,0,0-2.78,1.12,20.26,20.26,0,0,0-3.8,2.43c-.8.59-1.57,1.16-2.35,1.63.17.91.36,1.82.6,2.73a26.35,26.35,0,0,1,1,10.15A16.85,16.85,0,0,1,148.5,205l.67-.13.13.53c.72,2.75-2.76,5-5.29,6.62l-1,.65a30.22,30.22,0,0,0-2.58,2.23c-.79.73-1.6,1.48-2.41,2.12-.1.33-.17.65-.24,1,8-2.33,13.08-5,17-10.8a46.85,46.85,0,0,1,3.77-5c-1.88-4.28-3.59-9.63.46-12.67l.4-.3.45.32c2.54,1.82,2,5.72,1.88,6.49a16.52,16.52,0,0,0,0,2.89c0,.05,0,.09,0,.13.68-.58,1.4-1.16,2.17-1.7a51.4,51.4,0,0,1,5.57-3.2c1-.51,1.95-1,2.88-1.54a19.63,19.63,0,0,1-1.16-4.24,15.82,15.82,0,0,0-.75-2.93,9.44,9.44,0,0,1-.38-5.92l.08-.46.63.13A5.59,5.59,0,0,1,174,181c2,2.3,1.87,6.2,1.16,9.79.22-.17.45-.32.65-.49,3.39-2.84,4.33-6.64,5.32-10.68.84-3.38,1.71-6.88,4.11-10a21.64,21.64,0,0,1,2.3-2.51c-1.18-4.14-2.5-9.52,1.39-12.61l.31-.26.45.21a3.59,3.59,0,0,1,1.84,2.35c.63,2.09.23,5-.5,7.51a58.68,58.68,0,0,1,13.46-6.57c0-.17,0-.33,0-.51-.05-3.7-.12-8.31,3.27-10.73l.32-.23.41.2a3.33,3.33,0,0,1,1.92,2.79c.26,2.16-.85,5.05-2.23,7.23q2.28-.75,4.53-1.41a3.09,3.09,0,0,1,3.2,1,1.38,1.38,0,0,1,.15,1.35,1.83,1.83,0,0,1-1.19.93c-3.05.9-6.16,1.91-9.19,3.05.47.05.94.11,1.42.19,2.79.48,5,1.42,6.19,2.59l.23.24-.16.24c-.88,1.32-4.1,1.08-6.65.64a33.18,33.18,0,0,1-6.26-1.72c-4.52,2.13-8.47,4.73-11,8a18.09,18.09,0,0,0-3,6.59l.11-.07c.78-.42,1.5-.8,2-1.14l.22-.13c2.7-1.65,5.25-3.21,9.48-2.54l.61.09-.06.44c-.49,3.58-8.39,5.9-13.33,7-1,3.86-2.23,7.77-6,10.9a24.59,24.59,0,0,1-3.52,2.41,26.62,26.62,0,0,1,5.73.25,10.91,10.91,0,0,1,5.72,2.57l.35.33-.36.27c-1.9,1.38-7.33.64-9.58.25a38.68,38.68,0,0,1-5.91-1.47,42.07,42.07,0,0,0-4.6,2.65,29.48,29.48,0,0,0-7.12,7.34,19.79,19.79,0,0,1,9.06-1.14,7.9,7.9,0,0,1,1.49.39l.61.22-.27.41c-2,3-9.45,4.46-15.07,5.52-3.8,3.93-8.55,6.2-15.08,8.17a37.06,37.06,0,0,0,6.57,1.67,72.91,72.91,0,0,0,8,.88c.94-1,1.89-2,2.81-3,1.83-2,3.72-4,5.68-6l.34-.34.5.29a3.1,3.1,0,0,1,1.31,4.57,14.07,14.07,0,0,1-4.77,4.64c6.77-.2,11.82-2.89,17.14-6.19a18,18,0,0,1,1.54-10l.21-.32.5.08a3.67,3.67,0,0,1,2.75,1.75c.83,1.51.41,3.69-.41,5.72a45.36,45.36,0,0,1,17-5.93c1-2.73,3.76-8.46,9.2-7.53a7.29,7.29,0,0,1,1.07.27l.5.16-.09.37c-.44,2-3.48,4.62-6.37,6.36a34.75,34.75,0,0,1,6.62.44,24.58,24.58,0,0,1,5.18,1.46,19.59,19.59,0,0,1,5.81-.11,6.21,6.21,0,0,1,4,2.14l.23.3-.28.22c-1.07.86-3.53.65-5.11.41a11.44,11.44,0,0,1,2.69,3.76,1.36,1.36,0,0,1-.14,1.34,2.09,2.09,0,0,1-1.39.77,2.91,2.91,0,0,1-3-1.36,8.84,8.84,0,0,0-5.63-4.74A5,5,0,0,1,215,214.6a2.08,2.08,0,0,1,0,2.26l-.16.24h-.37a6.1,6.1,0,0,1-.72-.08c-2.8-.48-5.93-3-7.32-5.07-1.23,0-2.28,0-3,.09a36.56,36.56,0,0,0-8.81,1.77c4,.75,8.61,2.56,9,5.39l.06.41-.55,0a6,6,0,0,1-1.11-.1,79.67,79.67,0,0,1-12.25-3.75,81,81,0,0,0-7.54,4.27c-.93.58-1.86,1.14-2.81,1.69A21,21,0,0,1,182,222c2.93.5,5,1.59,5.93,3.06l.2.34-.38.2c-1.4.69-3.36.81-6,.35a53.37,53.37,0,0,1-6.45-1.67l-.54-.16a31.79,31.79,0,0,1-14.07,3.08,88.87,88.87,0,0,1-13.79-1.13,39.64,39.64,0,0,1-9.92-2.88h-.1a3,3,0,0,1-.52-.13c-.59-.21-1.15-.45-1.71-.68a4.26,4.26,0,0,1-.54-.15,59.76,59.76,0,0,1-14.43-.67,67.79,67.79,0,0,1-17.58-5.7,67.06,67.06,0,0,1-11.78-.62c-2.92-.5-4.42-1.24-4.59-2.27a1.14,1.14,0,0,1,.53-1.21c.89-.58,2.8-.61,5.84-.09,1.1.19,2.27.44,3.43.71-2.17-1.28-4.33-2.65-6.48-4.17a72.53,72.53,0,0,0-9.33-5.54c-3.12,1-8,2.12-10.77,1.64a2.92,2.92,0,0,1-2.12-1.14,1.14,1.14,0,0,1,.06-1.52c.94-1,4.19-1.28,7.46-1.27a29.73,29.73,0,0,0-4.82-1.31,15.9,15.9,0,0,0-3.47-.23,6.87,6.87,0,0,0-5.35,2.62,2.81,2.81,0,0,1-3.23.45,2.26,2.26,0,0,1-1.15-1.13,1.32,1.32,0,0,1,.19-1.33,10.35,10.35,0,0,1,5.39-3.55c-3-.81-6-1.89-7.87-3.82l-.3-.32.32-.25A5.44,5.44,0,0,1,58.43,190.81Z"/>
  <g>
    <path class="cls-3" d="M177.67,206.94c-33.27-18.47-77.89-22.73-114.49-12.62a126.8,126.8,0,0,0-19.13,6.89C-1.2,222.07.23,261.14,64.4,277.11c28.1,6.95,104.39,7.08,129.44-5.34C224.79,256.42,204.54,221.85,177.67,206.94Z"/>
    <path class="cls-4" d="M177.67,206.94c-33.27-18.47-77.89-22.73-114.49-12.62a126.8,126.8,0,0,0-19.13,6.89C21.44,211.63,10.48,226.61,13.2,241a123.57,123.57,0,0,0,27,9.81c28.1,7,104.39,7.09,129.45-5.35,16.89-8.38,18.5-22.48,12.13-36C180.44,208.56,179.07,207.72,177.67,206.94Z"/>
  </g>
  <path class="cls-5" d="M266.6,27.94Z"/>
</svg>
