<svg id="Layer_1" data-name="Layer 1" xmlns="http://www.w3.org/2000/svg" width="444.71" height="580.24" viewBox="0 0 444.71 580.24">
  <defs>
    <style>
      .cls-1 {
        fill: #295612;
      }

      .cls-2 {
        fill: #423628;
      }

      .cls-3 {
        fill: #564837;
      }
    </style>
  </defs>
  <g>
    <path class="cls-1" d="M329,31.11c-12.49,7-4,16.26,4.27,22.24,4.92,3.54,10.29,6.22,13.92,11.49,11.34,17.17-11.09,29.89-24.65,34.7-5.93,1.9-12.86,4.46-17.95,8.17a13.48,13.48,0,0,0-2.56,2.33c-.56.67-.52,1.08-.31.6a2.25,2.25,0,0,0,.13-.86c0-.25,0-.35,0-.27a13.91,13.91,0,0,0,1.68,1.5c9,6,16.39,14.94,12.28,26.57-1.43,4.48-5.07,8.46-6.26,12.12-.14.87,0,.89.23,1.59a15,15,0,0,0,4,6.59c6,5.33,15.22,4.7,23,5.51a16.79,16.79,0,0,1,4.06,1.09c14.31,6.62,21.32,21.06,14.11,35.91a50.42,50.42,0,0,1-8.65,12.35,127.53,127.53,0,0,1-18.81,16.2l-1.8,1.29c-4.32,3.08-3.54,8.81-2.64,14.05,2.61,12.72,11.34,28.16,17.53,37.14,10.65,13.89,9.87,32.93-2.49,45.45-7.82,8.05-16.89,12.36-26.75,16.05-9.75,3.52-20.18,6.6-29.88,9.37-7,2-13.8,4-18.3,6.26a16.27,16.27,0,0,0-4.72,3.38c-3.23,3.77-3.86,9.34-4.89,14.16-2.85,15.15-4.39,28.47-19.45,37-6.88,3.95-12.81,6-19.82,8.48-8.91,2.55-11.93,8.63-12.37,17.71-.3,6.67.79,13.43,1.83,20.41a46,46,0,0,1,.65,8.77,12,12,0,0,1-2.21,6.46c-2,2.5-3.57,3.06-5.81,4.57-7,4.21-14.67,9.32-16.29,17.71-1.17,6.83,1.47,13.48,1.44,20.66.6,11.84-4.19,23.4-11.58,32.43l-1.36-.85c8.59-13.81,10.08-26.27,5.64-41.72-3.6-12.26.75-22.68,10.32-30.59,2.85-2.46,6-4.53,9-6.61.69-.52,1.43-1.13,1.41-1.39.5-2.44-.32-5.09-.69-7.62-1.45-7.27-3.06-14.61-3.15-22.1-.37-12.16,4.46-23.24,16-28.31,6.75-2.85,13.73-5.32,19.92-9.19,6.79-4,9.3-9.72,10.55-17.27,2.46-12.55,2.31-27.8,13.57-36.24,7.6-5.73,17.12-8.12,25.86-10.9,7.07-2.12,14.11-4.25,21.06-6.64s13.83-4.74,20.07-8.45c12.45-7.05,18.79-18.9,9.56-31.57-.24-.32-1.69-2.53-2-2.92-8-12.6-15.11-26-18.06-40.8-1.84-9.3-1.05-20.38,6.48-27.13a42.3,42.3,0,0,1,4.56-3.45,113.43,113.43,0,0,0,16.75-14c4.37-4.83,9.71-11.3,7-18-1.31-3-4.16-5.21-7.21-6.92a4.23,4.23,0,0,0-.85-.19c-.71-.16-3.24-.27-4-.37-9.38-.68-19.42-2.92-26.15-10a27,27,0,0,1-7.22-15.65c-.51-6,3.87-11.23,6.67-15.66,3.37-5,1.08-9.32-3-13-2.79-2.59-6.15-4.54-8.06-8-3.64-6.08,1.41-12.09,6.51-15.2a64.64,64.64,0,0,1,18.12-7.68c9.5-2.75,32.54-10.43,24.63-23.65-2.86-4.66-7.77-7.55-11.79-11.13a43.76,43.76,0,0,1-7.59-8.35c-3.56-5-4.29-11.78.95-16.06a16.65,16.65,0,0,1,5-3l.53,1.51Z"/>
    <path class="cls-1" d="M167.68,549.9a48.26,48.26,0,0,1,5.79-30.74,50.24,50.24,0,0,0,3.15-6.44,18.82,18.82,0,0,0-.16-11.69c-1.05-3.42-3.54-6.38-5-9.85-2.28-5.92,2.31-11.6,4.8-16.47,3.5-6.53,10.81-18.92,5.63-24.73-15-16.43-12.9-24.16-7.69-44.06.7-2.77,1.81-7.28,1.09-9.84-.93-2.68-2.52-3.91-4.88-6.44-7.38-7.49-16.79-15.42-22.34-25.15-9-15.64-4.23-33.08,8-42.95,7.58-6.87,21.85-21.38,22.47-30.75-5.77-13.52-11.27-30.77-1.53-44.15a26.17,26.17,0,0,1,14.62-9.39c-.23.06.76-.2,1.59-.31a14.66,14.66,0,0,1,3.1-.13c3,.09,5.7,1.42,8.12,2.05a6,6,0,0,0,2.2.23,7.1,7.1,0,0,0,2.85-2.14l.36-.42.18-.2.06-.05a.93.93,0,0,1,.35-.19c.18,0,.48-.57.46-3.12-.1-3.93.3-9.39,2.84-13.64a23.25,23.25,0,0,1,14-10.49c.35-.05.37,0,.24.35a3.44,3.44,0,0,0-.28,1.5c0,.46.28.53.35.22.31-1.62-1.94-6-3.23-7.75l-.17-.27,0-.06.24.2-.26-.25-.84-.88c-8.31-8.67-14.88-23.77-3.69-33.16a25.24,25.24,0,0,1,8.47-4.54c4.92-1.4,10.93-2.83,13.6-7.45a7.3,7.3,0,0,0,0-6.13l1.2-1.05c3.93,4.76,2.08,11-2.22,14.66-3.81,3.59-8.72,5.31-13.23,7.69-7.67,4.27-7,11.4-2.41,17.81,2.78,4.27,7,7.23,9.87,11.49,3.07,4.22,5.73,10.89,1.79,15.5-1.77,2.21-4.29,3.22-6.72,4.4-5,2.49-6.4,5.55-5.79,11.09a22,22,0,0,1-.57,8,22.88,22.88,0,0,1-10.29,12.18c-4.78,2.74-10.83,2.5-15.86.86a23.25,23.25,0,0,0-2.51-.69h.07c.05,0,.11,0,.05,0-12.54,3.2-7.32,18.92-4.08,27.62.66,1.78,1.48,3.54,2.15,5.33,2.85,8.57-1.72,17.5-6.28,24.41a120.27,120.27,0,0,1-20.71,22.63c-5.74,4.16-9.56,11.25-8.1,18.42s6.58,13,11.43,18.4c5,5.71,11.07,10.61,15.41,17,4.77,6.71,3.37,15.9,1,23-1.13,4-3.26,10.45-3.94,14.48-1,4.91.73,9.32,3.55,13.32,2.8,4.3,7.05,8,7.88,13.36,2.14,13.29-7.27,24.64-13.17,35.55A5.64,5.64,0,0,0,180,488a4.05,4.05,0,0,0,.24.82c5.87,12.5,5.43,21.57-2.85,32.9a47.15,47.15,0,0,0-8.15,28.19l-1.6,0Z"/>
    <path class="cls-1" d="M213.33,160.16c-4.06-.33-12.5-.68-12.59,4.94.29,5.39,3.86,10.27,6.77,14.81.4.61,1.16,1.66,1.54,2.22a39.78,39.78,0,0,1,6.23,13.07c2.74,10.72-2.7,18.9-8.84,26.61-2.45,3.31-4.38,6.31-5,10a19.32,19.32,0,0,0,.37,7.44c2.42,4.24,5.69,7.29,8.84,11.49a55.6,55.6,0,0,1,9,16.73c3.28,10.3,2.72,21.47-.14,31.73-3.07,10.58-12.31,18.73-22.19,22.5-9.85,4.08-21.32,5.36-31,8-11.65,3.15-15.69,6.16-15.62,18.06,0,5.65.32,9.87,2.58,13.93,1.71,2.6,3.78,3.9,7,6,9.76,5.81,17.73,13.71,19.94,25.73A59.73,59.73,0,0,1,178,422.3c-1.3,4.07-2.85,7.27-4.21,10.67a8.4,8.4,0,0,0-.81,3.37c.52,3.52,3.15,7.36,5.45,10.57,15.82,19.17,23.16,46.19,17.36,70.6-3.21,13.08-11.71,25.59-24.2,31.09l-.85-1.36c31.05-20.52,21.39-69.25-1.13-92.82-7.72-9.15-12.38-16.86-7.32-28.85,2.74-7,4.53-14.21,4.28-21.73,0-7.24-2.07-14.61-8.2-19-5.82-4.37-13.82-7.79-18-14.46-4.47-6.63-5.5-15-5.48-22.72-.27-10.91,3.21-21.66,13.05-27.5,15.59-10.27,45.15-6.39,55.42-20.88,2.74-4,3.57-9,4.27-13.73,1.39-9.91-1.5-19.68-7.31-27.78-2.84-4.28-6.25-8.13-8.38-13s-1.87-10.64-.59-15.78,4.55-9.55,7.95-13.44,6.85-7.51,8.16-12.07c2.07-7.29-2-14.36-5.48-20.61-4.63-8.28-11.11-24.76,4.1-25.31a26.78,26.78,0,0,1,7.77,1l-.44,1.54Z"/>
    <path class="cls-1" d="M143,234.43c-8.54,5.59-7.13,10.27.87,15.15,8.35,5.41,20.11,13,18.65,24.91-1.06,7.43-6.92,12.85-12.41,16.9a10.57,10.57,0,0,0-1.93,1.82c-.62.79-.61,1.29-.39,1.19s.25-.39.54.06c2.28,3.33,6.84,6.47,10.94,8.23C173,306,188.2,306.63,200.86,315c22.07,14.2,17.77,43.55,1.13,60-6.56,6.92-14.13,11.86-20.92,17.36-6.23,5.11-12.3,10.16-10.68,18.25,1.22,5.49,6,10.26,10.4,15.24,7.67,8.07,15.94,19.16,13.64,32-2,11.28-9.73,19.37-17.91,26.41l-4.91,4.18c-2.47,2.2-5.16,4.1-6.69,6.49s-1.49,5.82-1.41,8.85c.2,6.11,1.11,12.27,1.86,18.48,1,7.11,2.48,18.36,3.18,25.53l-1.54.42c-2.32-8.18-4.67-16.35-6.89-24.58-1.11-4.11-2.19-8.24-3.11-12.42-1.23-6.26-2.91-13.21-.57-19.53,2.5-6.2,8.1-10.35,12.45-15a74,74,0,0,0,8.25-9.44c5.05-6.9,7-14.82,1.85-22.17-4.67-7-11.7-12.17-16.9-18.91-9.07-10.87-9.67-26-.4-36.94,5.53-6.75,12.7-11.66,19.4-17,6.44-5.13,13-10.68,16.52-18.17,5.71-12.94,2.75-23.72-10.67-29.54-9.64-4.42-20.39-5.53-30.48-8.76a37.79,37.79,0,0,1-15.88-11.59c-4.82-5.83-5.79-13.42.38-18.76,3.31-2.92,7.2-4.44,10.08-7.63,5.18-5,2.63-10.58-1.62-15.25a97.65,97.65,0,0,0-9.09-8.73c-4.07-3.39-8.92-9.1-5.77-14.68,1.74-3,4.77-4.86,7.9-6.11l.54,1.51Z"/>
    <path class="cls-1" d="M79,283.61a11.2,11.2,0,0,1,9.62,6c3.42,6.75.73,14.24,1.65,20.89.39,5,2.1,6,6.55,7.32,7.67,2.27,13.66,9.64,15.12,17.34,1.77,8.89.41,18.61-4.75,26.15-2.84,4.09-8.28,8.48-10.13,12.08a4.41,4.41,0,0,0-.69,2.84,14.31,14.31,0,0,0,1,3.68,36.32,36.32,0,0,0,3.07,5.6c2.62,3.93,5.76,6.2,10,9,5.61,3.58,13,7.65,18.17,12.65,11.65,10.77,17,27.61,14.65,43-.44,3.41-1.37,7-2,10.28s-1.35,6.67-.89,9.35c1.34,7.12,8.54,12.83,13.73,17.85,10.28,8.75,11.71,19.23,12.89,31.61.59,6.4,1,13.58,1.22,20,.06,3.34.2,6.67.16,10l-1.57.32c-2.61-11.49-5.72-27.17-9-38.21a39.07,39.07,0,0,0-3.66-8.77,24.83,24.83,0,0,0-6.52-6.7c-7.69-5.87-16.72-12.41-19.72-22.33-2.12-6.57-.76-13.56.28-20.09,1.8-9.39.85-19.32-4.21-27.53-11.08-17.85-32.07-15.44-41.25-41-2.49-6.56-1.83-14.43,2.48-20,3.36-4.88,8.36-7.9,12-12.35,4-6.63,5.53-17.71-.91-23.26a16.47,16.47,0,0,0-4-2.36,22.29,22.29,0,0,1-4.37-2.79c-4.36-3.3-5.64-9.21-4.92-14.37a73.23,73.23,0,0,1,1.94-9.8c1.88-6,.69-13.2-6.19-14.85l.27-1.58Z"/>
    <path class="cls-1" d="M366.38,437.24a14,14,0,0,1-3.29,16.92c-5.17,4.11-11.47,5.2-17.69,4.83a32.63,32.63,0,0,1-8.35-1.71c-3.5-1.2-7.43-3.2-10.41-4.51A31.46,31.46,0,0,0,311.4,450c-8.44.22-16.76,2.74-22.09,10-6.72,8.58-9.35,21.85-20.38,26.95a38.19,38.19,0,0,1-18.14,3.51c-4.22,0-9.66-1.41-12.83-.15a6.89,6.89,0,0,0-2.41,2.42A48.33,48.33,0,0,0,230.92,503c-8.08,25.92-30.69,45.85-58.56,45.51l-.44,0c-.19,0-.16,0-.24,0l-1.13-1.14a4.64,4.64,0,0,1,.63-.53c4.44-2.61,9.21-4.89,13.39-7.82,12.3-8.13,21.27-19.85,26.87-33.26,2.19-5,3.62-9.92,6.2-14.85,6.82-13.43,16.35-18.58,31.15-14.12,23.37,6.63,25.58-1.44,36.29-19.71,4.5-7.54,11.38-14.29,19.66-17.61a31.82,31.82,0,0,1,18.78-2.75c10.62,1.65,17.85,10.59,28.37,11.13,3.87.34,8,.05,10.53-3.48a15.67,15.67,0,0,0,2.4-6.75l1.56-.36Z"/>
  </g>
  <g>
    <path class="cls-2" d="M239.87,512.18c-25.32-14-59.28-17.3-87.14-9.6a97.64,97.64,0,0,0-14.56,5.24c-34.43,15.88-33.35,45.62,15.49,57.77,21.39,5.29,79.45,5.39,98.52-4.06C275.73,549.85,260.32,523.53,239.87,512.18Z"/>
    <path class="cls-3" d="M239.87,512.18c-25.32-14-59.28-17.3-87.14-9.6a97.64,97.64,0,0,0-14.56,5.24c-17.21,7.93-25.55,19.33-23.48,30.27a94.52,94.52,0,0,0,20.56,7.46c21.39,5.29,79.46,5.39,98.53-4.07,12.86-6.38,14.08-17.11,9.23-27.39C242,513.42,240.93,512.78,239.87,512.18Z"/>
  </g>
</svg>
