<svg id="Layer_1" data-name="Layer 1" xmlns="http://www.w3.org/2000/svg" width="281.48" height="296.47" viewBox="0 0 281.48 296.47">
  <defs>
    <style>
      .cls-1 {
        fill: #5159b7;
      }

      .cls-2 {
        fill: #607718;
      }
    </style>
  </defs>
  <g>
    <g>
      <path class="cls-1" d="M73.27,73.17c-4.07-2.92-7.43-3.42-9-1.48a2.88,2.88,0,0,0-.64,2.37c.27,1.67,1.76,3.49,4.44,5.43a21.89,21.89,0,0,0,6.31,2.88,39,39,0,0,0,5.59,1.24l1,.14-.4-.91C80.43,82.58,77.58,76.27,73.27,73.17Z"/>
      <path class="cls-1" d="M101,93.75a5.71,5.71,0,0,0-.62-1.41,3.84,3.84,0,0,0-2.53-1.92c-1.91-.36-3.32.83-4.36,2.14-1.41,1.8-5.8,6.71-3.27,9.43C93.52,105.55,102.16,97.94,101,93.75Z"/>
      <path class="cls-1" d="M108.2,110.62c-1.76-2.05-4.67-1.05-6.68-.19-1.58.69-7.26,4.94-6.87,7.12.11.61.68,1,1.95,1.21,3.06.38,9.87-.87,12-3.36C109.87,114,109.48,112.11,108.2,110.62Z"/>
      <path class="cls-1" d="M100.48,126.57a24.2,24.2,0,0,0-3.35,2.36c-1.72,1.51-2.84,3.37-.19,4.65,2.49,1.2,6.06-.38,8.35-1,2-.52,4.9-1.9,4.85-4.42C110,123.21,102.77,125.16,100.48,126.57Z"/>
      <path class="cls-1" d="M105.25,139.4a14.87,14.87,0,0,0-8.33,3.07c-.29.24-.63.54-1,.88-3.28,3.25.17,4.5,3.61,4.74s9.17-.35,10.54-3.93C111.1,141.54,107.84,139.31,105.25,139.4Z"/>
      <path class="cls-1" d="M101.06,152.86l-.21,0c-2.95.57-9.62,3-9.19,6.35.7,5.45,15.89.49,16.81-3C109.48,152.43,103.48,152.44,101.06,152.86Z"/>
      <path class="cls-1" d="M97.79,221.89c-5.27,0-15.05,7.21-16.1,9.75-2,4.79,6.47,2.89,8.74,2.23,4.08-1.21,11.58-4.18,10.6-9.47A2.9,2.9,0,0,0,97.79,221.89Z"/>
      <path class="cls-1" d="M106.39,169.05a2.82,2.82,0,0,0-1.69-1.18,13.64,13.64,0,0,0-7,.28c-2.08.73-12.32,4.87-6.15,7,1.94.69,4.44.25,6.4.08C100.32,175.05,108.57,172.75,106.39,169.05Z"/>
      <path class="cls-1" d="M100.32,179.9a13.23,13.23,0,0,0-5.1.74c-2.65,1-9.87,4-8,7.82,1.1,2.21,6.43.86,8,0,2.48-1.31,5.09-1.95,7-4.08C105.12,181.26,103.1,180.05,100.32,179.9Z"/>
      <path class="cls-1" d="M100.57,193.32a5.1,5.1,0,0,0-1.43-.18c-2.68,0-4.83,1.65-7.19,2.56-1.63.62-9.42,3.94-5.91,6.5,1.67,1.21,6.46-.26,8.26-.81,2.39-.74,6.41-1.43,7.93-3.49S102.64,193.92,100.57,193.32Z"/>
      <path class="cls-1" d="M103.42,209.53a5.51,5.51,0,0,0-2-.8c-4.45-.87-10.89,2.64-14.08,4.25-1.47.74-4.13,1.86-3.68,3.81.86,3.7,6.59,2.31,9.22,1.66C95.25,217.86,109.92,213.91,103.42,209.53Z"/>
      <path class="cls-1" d="M91.43,100.24c-1-3.58-5.75-10-9.77-10.18a2.1,2.1,0,0,0-1.71.66c-2.4,2.53-.5,5.47,2.5,8C84.39,100.38,93.33,107,91.43,100.24Z"/>
      <path class="cls-1" d="M93.13,109.82c-1.15-2.06-2.4-3.33-3.73-3.76a3,3,0,0,0-2.44.23c-6.07,3.45,6.11,15.74,7.8,11.74C95.65,116,94.19,111.78,93.13,109.82Z"/>
      <path class="cls-1" d="M95.84,129.91a13.47,13.47,0,0,0-3.4-7.7c-.37-.38-3.7-3.65-5.65-1.87-1,.9-1.55,2.88,1.23,7.21l.06.09C89.68,130.09,96.28,136,95.84,129.91Z"/>
      <path class="cls-1" d="M88.94,135.08c-.47-.43-4.66-4.08-6.92-2.37-3.11,2.37,1,7.28,3.11,9.23s10.09,7.25,8.51,1A17.3,17.3,0,0,0,88.94,135.08Z"/>
      <path class="cls-1" d="M79.15,148.49a2.89,2.89,0,0,0-.87,2.28c.1,1.48,1.22,3.08,3.32,4.77,1.79,1.44,6.67,4.18,9.14,3.33a1.93,1.93,0,0,0,1-.69c.86-1.25-.63-3.41-1.44-4.65C88.47,150.75,82.93,144.69,79.15,148.49Z"/>
      <path class="cls-1" d="M69.25,218.32a6.9,6.9,0,0,0-2.39.2,2.66,2.66,0,0,0-2,1.54c-1.33,3.47,1.54,6.68,4.26,8.82,1.75,1.38,11.14,8.69,11.94,3.49.31-2-.73-4.62-2.41-7.05C76.23,221.78,72.38,218.63,69.25,218.32Z"/>
      <path class="cls-1" d="M85.91,165.31c-1.69-2.87-5.59-7.92-9.37-4.42s6.36,11.41,9.36,12.24c4.9,1.36,2-4.34.53-6.92C86.22,165.84,86,165.53,85.91,165.31Z"/>
      <path class="cls-1" d="M76.13,176.38c-2,3.4,3.23,7.51,5.69,9.5,1.47,1.19,5.77,3.93,6.2.55.14-1.07-.57-2.93-1.71-4.85C84.93,179.27,79,171.37,76.13,176.38Z"/>
      <path class="cls-1" d="M70.6,189.83c-1.42,2.74,1.67,5.91,3.59,7.73,1.64,1.55,5.59,5.51,8.18,5s1.79-3.91-.42-7.22C78.75,190.47,72.72,185.73,70.6,189.83Z"/>
      <path class="cls-1" d="M78.27,207.38c-1.54-2.79-4-5.53-7.63-5.87a7.44,7.44,0,0,0-1.25,0,2.66,2.66,0,0,0-2.29,1.14c-2.41,4,3.22,9.76,6.25,12,1.47,1.1,4.35,3.66,6.44,3,3.43-1.12.82-6.07-.21-7.93C79.1,208.81,78.62,208,78.27,207.38Z"/>
    </g>
    <g>
      <path class="cls-1" d="M27.87,101.47c-4.5-4.14-6.79-2.72-7.57-1.93s-1.88,2.67,1.24,6.14a14.38,14.38,0,0,0,1.17,1.18c3.3,3.06,9.37,4.42,9.63,4.47l.92.21-.27-.91C32.92,110.39,31.2,104.52,27.87,101.47Z"/>
      <path class="cls-1" d="M45.83,115.51c1.74-2.45,2.73-5.52.53-7.44-1.69-1.46-4.36.75-5.73,1.63-3.7,2.38-4.66,12.33,1.45,9.35A11.66,11.66,0,0,0,45.83,115.51Z"/>
      <path class="cls-1" d="M55.59,119.44c1.26-5.27-6.59-2.65-8.26-1.36-2,1.51-6.56,7.28-2.45,8.68,1.31.44,4.23-1.07,6.7-2.93C53.6,122.31,55.32,120.55,55.59,119.44Z"/>
      <path class="cls-1" d="M57.77,127.76c-1-1.09-2.74-1.37-5,0s-5,4.59-5.1,7.43C47.35,140.64,62.13,132.7,57.77,127.76Z"/>
      <path class="cls-1" d="M62,136.76c-3-2-7.6,1.24-9.65,3-1.58,1.39-5.67,6.62-.94,7.12A11,11,0,0,0,56,145.79c1.46-.6,2.87-1.29,3.9-1.66C62.53,143.18,65.5,139.13,62,136.76Z"/>
      <path class="cls-1" d="M59.34,153.89c-2.84-.06-6.83,1.79-8.88,3.48-4.48,3.72,1,5.17,5,4,3.08-.9,6.16-2.59,6.68-3.84C63.28,154.79,62,153.93,59.34,153.89Z"/>
      <path class="cls-1" d="M69.46,214.34c-4,.54-11.24,9.19-9.92,13,2.77,7.94,16.26-9,12.67-12.48C71.73,214.36,70.87,214.16,69.46,214.34Z"/>
      <path class="cls-1" d="M62.88,166.32c-2.3-4.95-9.8-.25-12.12,1.5-2.79,2.09-4.39,4.84.7,5.21a13.06,13.06,0,0,0,2.55-.14C58.19,172.32,64.7,170.27,62.88,166.32Z"/>
      <path class="cls-1" d="M57,177.66c-1.66.46-9.33,4.28-7.91,6.66.94,1.57,3.2,1.89,5.68,1.47,4.12-.69,8.82-3.43,9-5.92C64.18,175.63,59.45,177,57,177.66Z"/>
      <path class="cls-1" d="M59.89,190.07c-2.88,0-7.72,3.69-9.31,5.75-2.46,3.18-.22,4.93,3.49,4.33a12.7,12.7,0,0,0,2.57-.74C59.58,198.27,67.72,190.1,59.89,190.07Z"/>
      <path class="cls-1" d="M63.11,202.09c-3.76,1.06-8,4-9.19,7.6-1.78,5.34,4.65,3.45,7.52,1.89l.31-.17c2.58-1.4,6.7-3.75,7.59-6.66C70.67,200.45,65.86,201.32,63.11,202.09Z"/>
      <g>
        <path class="cls-1" d="M40.24,119c-.63-2.17-7.34-3.11-9-3.23-4.64-.37-7.35,3.94-1.75,5.92,2,.72,10.85.3,10.77-2.4A.93.93,0,0,0,40.24,119Z"/>
        <path class="cls-1" d="M32.3,124.3c-4.75,1.15-1.76,3.63,1.42,4.82,3.56,1.34,9.73,2.69,10.68-2.09C45.29,122.53,34.35,123.8,32.3,124.3Z"/>
        <path class="cls-1" d="M46.85,134.67c-1.72-2.33-12.56-3.2-11.7.59s11.14,5.44,12.28,1.49A2.35,2.35,0,0,0,46.85,134.67Z"/>
        <path class="cls-1" d="M47.64,144c-2.42-1.73-11.64-4.22-13.23-.47-2.19,5.16,12.2,6.13,14.68,3.64C49.81,146.39,49.62,145.36,47.64,144Z"/>
        <path class="cls-1" d="M42.88,153.46c-3.64-1.71-8.22-.73-6.16,3.75.5,1.08,2.33,2.27,4.41,3.07,3.39,1.33,7.43,1.62,7.29-1.28C48.32,156.77,44.78,154.35,42.88,153.46Z"/>
        <path class="cls-1" d="M59.27,228.39c-.69-3.46-9.31-9.94-13-8.22-5.1,2.36,2.87,9,5.61,10.06,2.48,1,7.7,2.74,7.53-1A5,5,0,0,0,59.27,228.39Z"/>
        <path class="cls-1" d="M41.89,164.48c-2.59-.88-5.28-1-5.33,2.2-.06,2.65,5.07,5.74,8.92,6.39C54,174.5,45.42,165.67,41.89,164.48Z"/>
        <path class="cls-1" d="M37.2,176.47c-3.38,1.3-1.85,4.23,1,6.59s7.35,4.33,9.14,3.14a1.71,1.71,0,0,0,.81-1.59C48,181.49,40.46,175.19,37.2,176.47Z"/>
        <path class="cls-1" d="M37.41,189.23c-2.51,1.38-1.45,3.89.82,6.07,2.87,2.76,7.65,5,9.58,3.74C51.67,196.52,41.64,186.91,37.41,189.23Z"/>
        <path class="cls-1" d="M39.81,203.13a2.24,2.24,0,0,0-1.61,1.57c-.9,3.84,5.33,7.93,10,9.32,2.62.78,4.76.7,4.87-.76C53.43,208.39,44.76,201.3,39.81,203.13Z"/>
      </g>
    </g>
    <g>
      <path class="cls-1" d="M148.92,120.12c-.12-2.11-2-2.81-3.65-2.86s-9.81,1.35-8.57,4.67c.92,2.46,9.47,2.44,11.64-.15A2.29,2.29,0,0,0,148.92,120.12Z"/>
      <path class="cls-1" d="M103.87,168.93c-2.65-2.17-5.72-1.79-5.51,1.9.28,5,3.77,9.38,8.16,12,3.43,2,6.38,2.3,4.86-2.39a21.38,21.38,0,0,0-1.52-3.53A27.71,27.71,0,0,0,103.87,168.93Z"/>
      <path class="cls-1" d="M98.81,212.42a9.71,9.71,0,0,0-2.37-7.25c-1.73-1.77-4.25-2.53-5.67-.26-2.74,4.36,1.78,12.9,5.37,16.15,3.08,2.8,3.36-.38,3.13-3.68C99.13,215.26,98.77,213.09,98.81,212.42Z"/>
      <path class="cls-1" d="M96.85,188.38c-2.53.93-1.61,3.61-.84,5.08a18.58,18.58,0,0,0,4.91,5.94c.9.67,4,3.13,5.37,2.69,3.34-1.09-.16-8.55-4.37-12.07C100.21,188.59,98.38,187.81,96.85,188.38Z"/>
      <path class="cls-1" d="M112.25,146.44c-2.14-2.88-4.52-1.6-5.71,1.33-1.51,3.72.17,7.84,1.89,11.16,1.37,2.67,3.8,7.07,5.49,1.91a20.93,20.93,0,0,0-.11-11.1A10.63,10.63,0,0,0,112.25,146.44Z"/>
      <path class="cls-1" d="M134.76,128.59a13.83,13.83,0,0,0-7.7-.41c-3.08.69-4.71,2.61-1.13,4.1a12.22,12.22,0,0,0,8.49-.23,3.14,3.14,0,0,0,2-1.65C136.57,129.78,136.15,129.13,134.76,128.59Z"/>
      <path class="cls-1" d="M125.67,119.91a13.83,13.83,0,0,0-3.24,7c-.49,3.12.69,5.35,3.39,2.57a12.25,12.25,0,0,0,2.94-8,3.14,3.14,0,0,0-.8-2.46C127.45,118.67,126.68,118.82,125.67,119.91Z"/>
      <path class="cls-1" d="M123.1,138.68c-3.49,1.13-6.61,3.2-5.7,5.35,1.33,3.15,8.61,0,10.73-.92,1.75-.75,4.33-2.16,3-4.18C129.59,136.66,125.25,138,123.1,138.68Z"/>
      <path class="cls-1" d="M111.3,181.76c-1.84,2.57,3.73,3.57,5.47,3.75.78.08,1.91.2,3.1.22,2.78.06,6-.38,6.28-2.87C126.81,177.55,113.19,179.13,111.3,181.76Z"/>
      <path class="cls-1" d="M111.34,217.59l-.29-.05c-3.71-.44-9.33,1-11.62,3.49-3.29,3.65,12,4.63,14.38,3.9C120.88,222.74,117.4,218.51,111.34,217.59Z"/>
      <path class="cls-1" d="M122.14,197.9a11.54,11.54,0,0,0-4.15-.83c-3.08,0-12.14,1.54-10.16,5.56,2.16,4.39,11.38,1.82,14.81,1.26,2-.33,3.7-.18,3.29-2.55C125.67,199.74,123.72,198.53,122.14,197.9Z"/>
      <path class="cls-1" d="M126,158.73a7.56,7.56,0,0,0-2.82-.11c-4.49.34-12.32,2.17-11.7,4.66.81,3.36,9.57,3,12,2.38C127.15,164.79,131.17,161,126,158.73Z"/>
    </g>
    <path class="cls-1" d="M29.3,179.07v.08C29.42,177.92,29.36,178.46,29.3,179.07Z"/>
    <path class="cls-1" d="M29.3,179.07a.5.5,0,0,1,0,.12.05.05,0,0,0,0,0Z"/>
    <path class="cls-1" d="M29.3,179.15a.05.05,0,0,1,0,0C29.22,179.82,29.17,180.39,29.3,179.15Z"/>
    <path class="cls-1" d="M45.85,211.85l.69.54Z"/>
    <path class="cls-1" d="M41.25,223.51Z"/>
    <path class="cls-1" d="M29.09,196.16Z"/>
    <path class="cls-1" d="M29.09,196.16h0C28.56,195.41,28.91,195.91,29.09,196.16Z"/>
    <g>
      <path class="cls-1" d="M24.56,195.13c-2.3.64-4.79,2.78-4.95,5.13-.06,1.12,0,6.8,2.56,5,2.23-1.6,5.44-3.59,5.84-6.45a.49.49,0,0,0,0-.12C28.26,196.53,27.26,194.36,24.56,195.13Z"/>
      <path class="cls-1" d="M11.21,208.17a8.77,8.77,0,0,0-3,3.29c-.58,1.3-.3,3,1.29,2.93a9,9,0,0,0,4.35-1.95,30.24,30.24,0,0,0,3.56-3.07c1.26-1.24,2.44-2.56,3.59-3.91l-1.17-.06A13.85,13.85,0,0,0,11.21,208.17Z"/>
      <path class="cls-1" d="M29.81,224.42a5.82,5.82,0,0,0-4-1.06c-2.53.08-5.88,1.08-7.51,3-.81.94-1,2.39.33,3s3.46.39,4.92.08a19.41,19.41,0,0,0,5-2c1.34-.72,2.41-1.16,2.2-1.9A2.46,2.46,0,0,0,29.81,224.42Z"/>
      <path class="cls-1" d="M38.93,213.1c-3-1.69-5.87,4.73-6.46,6.21a14.84,14.84,0,0,0-1,4.64,2.41,2.41,0,0,0,.22,1.62c.52.67,1.66.35,2.24,0,2.09-1.29,4.39-3.18,5.41-5.17S41.76,214.71,38.93,213.1Z"/>
      <path class="cls-1" d="M41.49,241.67a9.19,9.19,0,0,0-5.62-.89c-2.19.25-4.71,1.13-5.86,2.4-2.4,2.65,2.27,3.73,5.49,3.42a22.26,22.26,0,0,0,6.23-1.78c1.15-.46,1.59-.93,1.54-1.42S42.53,242.28,41.49,241.67Z"/>
      <path class="cls-1" d="M45.08,233.12a7.18,7.18,0,0,0-1,3.89c-.11,1.45-.69,2.81-.78,4.24-.08,1.16,1.28,1.57,2.34.91a12.19,12.19,0,0,0,3.13-3.37c1.56-2.16,4.32-5.48,2.77-8.16C50.07,228.11,45.87,232,45.08,233.12Z"/>
      <path class="cls-1" d="M44.88,224.1h0c-1.84-2.71-4.65.76-5.71,2.11a12,12,0,0,0-2.45,5.5c-.2,1-.82,2.62.14,3.49,2.18,2,5.24-2.22,6.31-3.57C44.76,229.65,46.67,226.75,44.88,224.1Z"/>
      <path class="cls-1" d="M29.64,232.73c-2.43-.57-5.39-.67-6.75,1.56-1.69,2.77,3.39,4.07,5.47,4.38,1.61.24,9.63.09,7.46-3.13C34.64,233.79,31.65,233.2,29.64,232.73Z"/>
      <path class="cls-1" d="M36.05,204.71c-1.84-2.71-4.67.39-5.9,1.73a11.58,11.58,0,0,0-2.61,5.15c-.25,1.1-1,3,0,4,2.28,2.1,5.57-2.05,6.79-3.46C36.06,210.16,37.87,207.37,36.05,204.71Z"/>
      <path class="cls-1" d="M26.94,215.78c-1.72-1.53-5.16-1.39-7.43-1.39-2.51,0-6,.66-6.51,3.38s4.8,2.85,6.74,2.73c1.61-.11,10.24-2,7.2-4.72Z"/>
      <path class="cls-1" d="M7.24,197.26a9,9,0,0,0-4.17,1.22c-1,.65-2.26,2-1.76,3.19.76,1.87,4.74,1.75,6.53,1.6,1.56-.13,7.91-1.29,6.38-3.86h0C13.06,197.47,9.39,197.1,7.24,197.26Z"/>
    </g>
    <path class="cls-1" d="M164.9,215.36c.29,1.12-.17-.64,0,0Z"/>
    <path class="cls-1" d="M148.54,216c2.61,2.17-.27-.23,0,0Z"/>
    <path class="cls-1" d="M67,73.38c-.2-.13-.44-.19-.56-.39s.06,0,.09-.06a18.31,18.31,0,0,1,4.94,2.28c12.6,7.73,20.59,21.43,23.67,35.68,3.68,16.48,1.28,33.51-2.25,49.77-3.21,16.28-6.25,32.61-8,49.06-1.28,15-3.32,34.67,5.46,47.53l-2.55.58c4-19.08,11.22-37.11,18.33-55.14,4.2-12.12,5.7-24.94,7-37.68,1.48-12.55,2.15-26.77,11-36.66,4.43-4.83,10.62-7.57,16.9-9-6.16,1.64-12.18,4.58-16.41,9.43-8.5,10-8.59,23.92-9.89,36.37-.54,6.42-1.1,12.86-2.07,19.27a117.33,117.33,0,0,1-4.35,19c-7.08,19-14.74,38.08-18.35,58.13l-1.92-2.64C83,251.82,81.42,243,80.94,234.52c-.69-25.13,4.69-49.89,9.54-74.35,5.86-23.56,8.27-50.61-6.07-71.68a50.7,50.7,0,0,0-8.15-9.28c-2.92-2.47-6.05-5-9.72-6.25-.09,0-.07.05,0,.09a2.63,2.63,0,0,0,.49.33Z"/>
    <path class="cls-1" d="M3.76,200c9.24-3.22,18.39,3.84,22.74,11.63A62.57,62.57,0,0,1,32,224.27a35.2,35.2,0,0,0,6.37,11.46C47,246,60.05,251.41,72.86,254.49A95.15,95.15,0,0,0,86,256.66l-.94,2.57c-23.82-16.87-36.52-45.78-37.84-74.43a135.8,135.8,0,0,1,.61-21.44c.42-3.57.83-7,.93-10.52.31-10.49-1.8-21.16-7-30.35A46.32,46.32,0,0,0,27.58,107c12.31,7.42,20.07,21.09,22.24,35.14,1.18,7.05.82,14.39.08,21.42a137.5,137.5,0,0,0-.1,21.09c2.12,30.69,15.25,57.91,41.07,75.34-19.43-1.5-41.39-7.22-54.29-22.82A37,37,0,0,1,30,224.89a61.53,61.53,0,0,0-4.9-12.45c-4-7.8-12.06-14.82-21.36-12.42Z"/>
    <path class="cls-1" d="M175.87,234.06c-12,14.19-33.82-2.95-48.84-.6a50.23,50.23,0,0,0-10.63,2.14c-8.34,2.69-16.34,7.1-22.33,13.55a27,27,0,0,0-5,7.65,19.05,19.05,0,0,1-1.69,2.79c-.74-2.31.1-4.59,1.1-6.55a32.06,32.06,0,0,1,1.69-2.89c8.28-11.81,22.49-18.51,36.68-19.68A38.67,38.67,0,0,1,140,232c11.4,2.8,25.72,11.9,35.91,2.05Z"/>
    <g>
      <path class="cls-1" d="M166.61,247.58c.15-1.28-.81-2.5-1.55-3.52a15.74,15.74,0,0,0-3.55-3.73,16,16,0,0,0-4.59-2.36c-1.67-.44-2.21,1.3-1.81,2.67.73,2.45,2.8,5,4.63,6.79a7.16,7.16,0,0,0,3.14,2c1.43.38,3.2.05,3.65-1.4A1.93,1.93,0,0,0,166.61,247.58Z"/>
      <path class="cls-1" d="M147.38,237.79a13.36,13.36,0,0,0-3.51-2.36c-.28-.13-2.79-1.06-2.83-.63a10.71,10.71,0,0,0,1.79,6.49c1,1.66,3.73,4.3,5.58,2.21S149.1,239.44,147.38,237.79Z"/>
      <path class="cls-1" d="M123.42,236.58a16.45,16.45,0,0,0-9.16-1.43c-1.52.24-1.63,1.75-.74,2.78a11.39,11.39,0,0,0,3.61,2.44c2.46,1.21,5.78,2.89,8.53,1.76,1.13-.47,2.28-1.54,1.63-2.8S124.77,237.22,123.42,236.58Z"/>
      <path class="cls-1" d="M135.75,236.08a14.58,14.58,0,0,0-7.74-3.71c-1.43-.12-1.76,1.31-1.27,2.37a10,10,0,0,0,2.41,3c1.83,1.73,4.26,4.07,7,3.79,1.17-.12,2.45-.78,2.18-2.09S136.74,237,135.75,236.08Z"/>
      <path class="cls-1" d="M110.85,240.91a14.76,14.76,0,0,0-5.25-.4c-1.16.13-3.51.19-4.25,1.14-1.85,2.36,4.31,3.91,5.82,4.3,2.33.59,5.59,1.37,7.54-.27C117.74,243.11,113.07,241.47,110.85,240.91Z"/>
      <path class="cls-1" d="M175.56,227.56a4.49,4.49,0,0,0-3.28,2.21,12.21,12.21,0,0,0-2,8.58,11,11,0,0,0,5.56-2.85c1.53-1.38,3.54-3.75,2.95-5.95A2.86,2.86,0,0,0,175.56,227.56Z"/>
      <path class="cls-1" d="M149.53,224.15c-.1-.14-.21-.28-.34-.43-1.68-1.87-4.09.05-5.42,1.09a9.71,9.71,0,0,0-3.05,4.55c-.38,1-1.14,2.45-.14,3.43,2,1.92,5.22-1,6.6-2.2C148.8,229.23,151.1,226.51,149.53,224.15Z"/>
      <path class="cls-1" d="M163.26,229c-1.46-2.36-4-.17-5.25.94a8.8,8.8,0,0,0-2.46,3.94c-.29,1-1.05,2.56-.1,3.46,1.89,1.81,4.78-1.13,6-2.29C163,233.56,164.7,231.34,163.26,229Z"/>
      <path class="cls-1" d="M134.54,223.9c.09-1.17-.3-2.89-1.48-3.45s-2.64.5-3.53,1.26a11.44,11.44,0,0,0-4,7.56,1.82,1.82,0,0,0,2.18,1.82,7.06,7.06,0,0,0,3.37-2C132.58,227.75,134.34,226.15,134.54,223.9Z"/>
      <path class="cls-1" d="M101.15,226.76c-1-1.23-3.18-2.61-4.88-2-2,.71-2.1,3.52-2.15,5.23a15.59,15.59,0,0,0,.94,6c.71,1.82,1.8,4.3,3.31,5.7s3.36-.06,3.94-1.44a12.82,12.82,0,0,0,.77-4.76C103.13,232.59,103.21,229.21,101.15,226.76Z"/>
      <path class="cls-1" d="M120,223.51c-.36-1.37-1.61-3.08-3.18-3.09s-2.79,1.8-3.52,3a13.37,13.37,0,0,0-1.67,9.82c.42,1.74,2.4,1.7,3.55.88a10.55,10.55,0,0,0,2.79-3.46C119.13,228.62,120.64,226.1,120,223.51Z"/>
    </g>
  </g>
  <g>
    <g>
      <g>
        <path class="cls-2" d="M201.54,65.78c4.9-.7,7.87.72,8.07,3.66a4.22,4.22,0,0,1-.83,2.81c-1.16,1.59-3.39,2.62-6.62,3.09a17,17,0,0,1-6.67-.62,30.9,30.9,0,0,1-5.17-1.91l-.9-.46.83-.7C190.5,71.44,196.34,66.53,201.54,65.78Z"/>
        <path class="cls-2" d="M181.56,59.27a4.11,4.11,0,0,1,1.44-.35,3.57,3.57,0,0,1,3,1.18c1.46,1.63,1.45,3.81,1.11,5.72-.46,2.6-1.41,10.22-5,9.58C177.39,74.57,177.71,61,181.56,59.27Z"/>
        <path class="cls-2" d="M173.82,66.18c2.37,1.37,2.24,5,2,7.65-.2,2-2.6,10-4.71,10.24-.59.07-1.15-.45-1.64-1.86-1.18-3.41-1.86-11.68-.15-15C170.29,65.34,172.1,65.18,173.82,66.18Z"/>
        <path class="cls-2" d="M165.21,84.2a39.79,39.79,0,0,1,.62,4.87c.11,2.74-.41,5.24-3.08,3.94-2.49-1.22-3.8-5.64-4.93-8.15-1-2.2-2-5.86-.21-7.86C161.11,73,164.64,81,165.21,84.2Z"/>
        <path class="cls-2" d="M157.25,95.86a17.67,17.67,0,0,1,2.88,9.47c0,.43,0,1,0,1.55-.4,5.46-3.5,3.7-5.83,1.08s-5.47-7.84-3.63-12C152,92.88,155.69,93.66,157.25,95.86Z"/>
        <path class="cls-2" d="M154.43,115.49l.14.18c1.9,2.44,5.49,9.13,3.14,12.18-3.87,5-12.44-9.57-11-13.64C148.26,109.74,152.85,113.54,154.43,115.49Z"/>
        <path class="cls-2" d="M120.55,194.6c4.7,1.92,10.58,13.56,10.5,16.8-.14,6.11-6.93.94-8.69-.63-3.18-2.82-8.69-8.88-5.7-14.49C117.69,194.36,119.06,194,120.55,194.6Z"/>
        <path class="cls-2" d="M144.45,128.83a2.3,2.3,0,0,1,2,.07c2,.88,4.16,3.71,4.85,5.19,1,2.16,5.63,13.3-.24,11-1.84-.71-3.35-2.88-4.65-4.41C144.84,138.83,140.42,130.84,144.45,128.83Z"/>
        <path class="cls-2" d="M141.54,148.28a10.78,10.78,0,0,1,4.26,2.66c2,2.12,7.21,8.09,4,11.7-1.86,2.09-6.09-1.34-7.16-2.86-1.69-2.37-3.77-4-4.65-7.12C136.7,148.09,139,147.45,141.54,148.28Z"/>
        <path class="cls-2" d="M137.75,164.84a3.92,3.92,0,0,1,1.23.64c2,1.57,2.63,4.4,3.85,6.65.84,1.55,4.65,9.31.22,9.84-2.1.25-4.82-4-5.84-5.54-1.36-2.09-4-5.09-3.82-8S135.74,164.24,137.75,164.84Z"/>
        <path class="cls-2" d="M129.1,181.46a4.43,4.43,0,0,1,2.07.43c4,1.84,6.35,9.1,7.62,12.56.58,1.6,1.79,4.29.08,5.9-3.26,3.07-6.59-1.72-8.11-3.93C129.38,194.41,121.11,181.79,129.1,181.46Z"/>
      </g>
      <g>
        <path class="cls-2" d="M184.14,74.11c3.71-.4,11,2.08,12,6.39a3,3,0,0,1-.28,2.14c-2,3.67-5.26,2.83-8.36.63C185.47,81.84,177.17,74.86,184.14,74.11Z"/>
        <path class="cls-2" d="M180.89,82.85c2.09.9,3.37,2.08,3.84,3.52a4.09,4.09,0,0,1-.18,2.85c-3.3,7.69-15.85-3.77-11.9-6.54C174.71,81.23,178.9,82,180.89,82.85Z"/>
        <path class="cls-2" d="M167.55,92.2a10.74,10.74,0,0,1,8,1.5c.42.31,4,3.08,2.46,5.81-.79,1.38-2.69,2.62-7.29.79l-.1,0C168,99.2,161.41,93.56,167.55,92.2Z"/>
        <path class="cls-2" d="M161.72,108.41a15,15,0,0,1,9.08-.85c.59.16,5.72,1.66,5.2,5-.71,4.56-7,3.95-9.62,3.3S155.4,111.17,161.72,108.41Z"/>
        <path class="cls-2" d="M172.13,123a4.09,4.09,0,0,1-.49,2.85c-.88,1.54-2.69,2.73-5.36,3.55-2.28.7-7.86,1.35-9.48-.72a2.07,2.07,0,0,1-.48-1.2c0-1.74,2.37-3.37,3.72-4.3C163.07,121,171,117.15,172.13,123Z"/>
        <path class="cls-2" d="M148.6,202.33a5.28,5.28,0,0,1,1.9,1.34,2.89,2.89,0,0,1,.81,2.55c-.74,4.35-4.88,6.42-8.32,7.44-2.21.66-14,4.08-11.92-1.86.82-2.29,3.09-4.6,5.82-6.41C140.87,202.75,145.8,201.19,148.6,202.33Z"/>
        <path class="cls-2" d="M159.58,137.35c3-2.29,9-5.86,10.26-.35s-11.47,9.23-14.45,8.71c-4.85-.84.65-5.58,3.27-7.65Z"/>
        <path class="cls-2" d="M165.78,156.17c-.17,4.56-6.75,6.52-9.89,7.49-1.88.59-7,1.51-5.52-2.32.46-1.2,2.06-2.86,4.06-4.38C156.82,155.14,166,149.45,165.78,156.17Z"/>
        <path class="cls-2" d="M162.69,175.18c-.28,3.59-4.59,5.54-7.18,6.58-2.22.89-7.67,3.27-9.56,1.48s.6-5,4.24-7.54C155.48,172,163.1,169.8,162.69,175.18Z"/>
        <path class="cls-2" d="M144.25,192c2.79-2.27,6.37-4,9.57-2.71a5.8,5.8,0,0,1,1.07.57,2.61,2.61,0,0,1,1.31,2.29c-.12,5.4-7.95,8.94-11.71,9.93-1.83.48-5.63,1.87-7,.16-2.28-2.81,2.57-6.88,4.44-8.4C142.78,193.11,143.61,192.48,144.25,192Z"/>
      </g>
    </g>
    <g>
      <g>
        <path class="cls-2" d="M256.6,157.36c4.46,3.85,3.06,6.74,2.26,7.8s-2.72,2.78-6.44.27a14.45,14.45,0,0,1-1.26-1c-3.29-2.84-4.9-9.14-5-9.41l-.24-.95,1,0C247.16,154.15,253.32,154.5,256.6,157.36Z"/>
        <path class="cls-2" d="M245.24,144.52c3-1.52,6.39-2.11,7.46.68.82,2.13-2.31,4.74-3.66,6.11-3.66,3.74-13.74,3.12-8.61-3.2A16.07,16.07,0,0,1,245.24,144.52Z"/>
        <path class="cls-2" d="M237.78,143.37c5.19,1.18-1.85,8-3.95,9.13-2.49,1.32-10.16,3.32-8.8-1.56.44-1.55,3.5-3.85,6.59-5.51C234.14,144.07,236.68,143.13,237.78,143.37Z"/>
        <path class="cls-2" d="M222,143.52c1.17.76,1.52,2.66.17,5.54s-4.6,6.66-7.55,7.58C209,158.4,216.74,140.05,222,143.52Z"/>
        <path class="cls-2" d="M210.52,144.46c2.64,2.26.21,8.47-1.23,11.38-1.11,2.26-5.66,8.78-7.09,4.06a13.29,13.29,0,0,1,.24-5.34c.33-1.78.76-3.55.94-4.79C203.84,146.64,207.4,141.79,210.52,144.46Z"/>
        <path class="cls-2" d="M198.09,154.18c.51,3-.76,7.94-2.17,10.78-3.1,6.21-5.49,1-4.93-3.68.44-3.62,1.68-7.55,2.89-8.6C196.54,150.37,197.62,151.34,198.09,154.18Z"/>
        <path class="cls-2" d="M135.74,202.92c.68,0,1.37.51,2,1.76,1.91,3.59-1.27,16.28-5.29,18.33C124,227.31,130.6,203,135.74,202.92Z"/>
        <path class="cls-2" d="M184.75,159c5.49.43,1.9,10.23.48,13.39-1.68,3.79-4.26,6.58-5.48,1.37a15,15,0,0,1-.27-2.76C179.37,166.35,180.39,158.65,184.75,159Z"/>
        <path class="cls-2" d="M175.32,176c-.15,1.94-2.58,11.6-5.29,11.14-1.78-.31-2.55-2.53-2.61-5.3-.08-4.6,1.81-10.7,4.32-12C176,167.67,175.53,173.2,175.32,176Z"/>
        <path class="cls-2" d="M162.2,182.8c1.7,2.24,1.37,9,.54,12-1.28,4.51-4.11,4.19-5.78.79a12.22,12.22,0,0,1-.89-2.61C155.33,189.72,157.55,176.7,162.2,182.8Z"/>
        <path class="cls-2" d="M151.7,194.77c1.3,3.81,1.29,9.47-1.12,13.38-3.54,5.75-5.69-.83-6-4.34l0-.39c-.32-3.16-.72-8.29,1.24-11.37C148.66,187.52,150.75,192,151.7,194.77Z"/>
      </g>
      <g>
        <path class="cls-2" d="M240.66,152.72c2.35-.5,5.18,5.75,5.77,7.32,1.67,4.46-1.89,9.43-5.45,4.84-1.3-1.67-3.36-10.73-.63-12A1.28,1.28,0,0,1,240.66,152.72Z"/>
        <path class="cls-2" d="M234,163.18c.64,5.22-2.88,3.88-5.21,1.58-2.63-2.58-6.23-7.63-1.92-11.45C230.92,149.73,233.73,160.92,234,163.18Z"/>
        <path class="cls-2" d="M218.05,156.94c2.91.17,7.91,9.87,3.91,11.41s-9.54-7.15-6.16-10.67A2.75,2.75,0,0,1,218.05,156.94Z"/>
        <path class="cls-2" d="M207,160.9c2.84.72,9.92,6.57,7.39,10.74-3.49,5.75-11.93-5.59-11-9.55C203.69,160.93,204.72,160.31,207,160.9Z"/>
        <path class="cls-2" d="M201.83,167.43c3.61,1.46,5.47,5.84.4,7.87-1.22.49-3.32,0-5.24-.94-3.13-1.58-5.76-4.49-3.2-6.75C195.78,165.87,199.94,166.66,201.83,167.43Z"/>
        <path class="cls-2" d="M133.65,222.38c3.37-2.28,14-.82,14.73,3.51,1,5.91-9.38,5.06-11.95,3.8-2.3-1.13-6.87-3.8-3.52-6.75A8.36,8.36,0,0,1,133.65,222.38Z"/>
        <path class="cls-2" d="M193.19,174.89c2.28,1.31,3.95,3.32,1.25,6-2.24,2.2-7.91.71-10.75-1.79C177.47,173.6,190.08,173.1,193.19,174.89Z"/>
        <path class="cls-2" d="M186,187.92c.86,3.71-2.55,4.9-6.26,4.6s-8-2.23-8.08-4.6a2.48,2.48,0,0,1,.89-1.93C175.28,183.56,185.12,184.32,186,187.92Z"/>
        <path class="cls-2" d="M175.43,200.07c.3,3.09-2.48,4.31-5.7,4.31-4,0-8.79-1.92-8.85-4.46C160.77,194.85,174.92,194.87,175.43,200.07Z"/>
        <path class="cls-2" d="M164.37,213.18a2.91,2.91,0,0,1-.41,2.53c-2.76,3.84-10,2.3-13.9-.23-2.21-1.42-3.4-3.16-2.21-4.43C151.82,206.8,163,207.82,164.37,213.18Z"/>
      </g>
    </g>
    <g>
      <g>
        <path class="cls-2" d="M141.69,98.65c1.49,1.38.63,3.64-.49,5.2s-8.1,8.58-9.69,5.39c-1.18-2.35,5-10.52,8.51-11A1.92,1.92,0,0,1,141.69,98.65Z"/>
        <path class="cls-2" d="M136,153.08c2.66-2.63,5.87-5.52,9.17-7.14,3.46-1.69,6.18-.47,4.35,3.53-2.48,5.42-7.72,9.32-13,11-4.12,1.31-7,.86-3.51-3.9A33,33,0,0,1,136,153.08Z"/>
        <path class="cls-2" d="M119.21,186.43c2.07-2.13,4.84-4,7.62-4.05,2.53-.09,4.68,1.26,3.57,4.23-2.14,5.69-12.13,9.12-17,9-4.21-.13-1.65-2.95,1.32-5.46C116.58,188.5,118.65,187,119.21,186.43Z"/>
        <path class="cls-2" d="M143.21,175.39c.81,2.47-2.41,3.54-4.35,3.94a26.44,26.44,0,0,1-9.08.26c-1.26-.21-5.77-.93-6.25-2.18-1.21-3.16,8.39-5.45,14.65-4.66C140.73,173.07,142.72,173.9,143.21,175.39Z"/>
        <path class="cls-2" d="M145.7,115.28c3.53-2.06,4.83.3,4.13,3.87-.89,4.54-4.76,8.1-8.18,10.82-2.76,2.19-7.43,5.71-5.85-.39a30.76,30.76,0,0,1,6.62-11.53A14.74,14.74,0,0,1,145.7,115.28Z"/>
      </g>
      <g>
        <path class="cls-2" d="M118.39,80.06a10.8,10.8,0,0,1,5.71,4.76c1.62,2.68,1.28,5.51-2.38,4.49-2.57-.72-4.79-3.33-5.75-5.86a3.57,3.57,0,0,1-.12-2.83C116.21,79.94,117,79.64,118.39,80.06Z"/>
        <path class="cls-2" d="M128.12,103.88c3.15,1.6,5.66,4.22,4.12,6.55-2.26,3.43-8.61-.82-10.45-2-1.52-1-3.69-2.83-1.74-5C122.24,101,126.18,102.89,128.12,103.88Z"/>
        <path class="cls-2" d="M132.73,157.8c-1.12,3.54-5.26,0-6.44-1.23a27,27,0,0,1-2-2.25c-1.68-2.12-3.18-5-1.23-7.24C127.21,142.23,133.88,154.17,132.73,157.8Z"/>
        <path class="cls-2" d="M108.44,180.34l.21.19c2.57,2.54,4.67,8.07,3.84,11.93-1.19,5.55-11-5.64-11.81-8.08C98.4,177.07,104.08,176.35,108.44,180.34Z"/>
        <path class="cls-2" d="M116.71,163.87a9.21,9.21,0,0,1,3.31,2.7c1.91,2.53,6,11.36,1.13,13.25-5.33,2.07-8.64-7.79-10.22-11.12-.92-1.94-2.1-3.2.32-4.95C112.87,162.57,115.17,163.11,116.71,163.87Z"/>
        <path class="cls-2" d="M128.61,120.09a6,6,0,0,1,2.14,1.67c3,3.16,7.35,9.8,5,11.76-3.1,2.64-9.19-3.27-10.52-5.34C123.26,125.05,123.2,118.92,128.61,120.09Z"/>
      </g>
    </g>
    <g>
      <path class="cls-2" d="M193.25,210.66c.75,2.35.31,6.06-1.66,8.05-.93.95-5.94,5.42-5.81,1.93.12-3,0-7.16,2.26-9.77l.2-.22C190,208.79,192.39,207.93,193.25,210.66Z"/>
      <path class="cls-2" d="M188.24,210.65a1.59,1.59,0,0,0-.13.13C189.05,209.73,188.7,210.13,188.24,210.65Z"/>
      <path class="cls-2" d="M188.11,210.78l-.07.09C187.56,211.41,187.14,211.88,188.11,210.78Z"/>
      <path class="cls-2" d="M188.24,210.65l-.2.22.07-.09A1.59,1.59,0,0,1,188.24,210.65Z"/>
      <path class="cls-2" d="M194.1,227.12a8.11,8.11,0,0,1,1.63,4.26c.06,1.56-.87,3.4-2.39,3s-2.58-1.81-3.43-3a25.2,25.2,0,0,1-2.26-4.13c-.73-1.62-1.36-3.33-2-5.07l1.15.18A10.76,10.76,0,0,1,194.1,227.12Z"/>
      <path class="cls-2" d="M161.29,227.67a4.79,4.79,0,0,1,3.86,1.11c2,1.45,3.94,4.25,3.94,7,0,1.37-.85,2.9-2.32,2.82s-3-1.5-4-2.6a16.81,16.81,0,0,1-2.63-4.73c-.58-1.44-1.13-2.47-.46-3.08A2.87,2.87,0,0,1,161.29,227.67Z"/>
      <path class="cls-2" d="M166.81,211.64c3.27.79-.27,8.39-1.14,10.1a22.53,22.53,0,0,1-3.26,4.64c-.39.44-.89,1.08-1.5,1.21-.87.18-1.32-1-1.39-1.67a19,19,0,0,1,.93-8.42C161.46,215.08,163.7,210.88,166.81,211.64Z"/>
      <path class="cls-2" d="M129.18,232.78a7.42,7.42,0,0,1,5.22,1.84c1.65,1.31,3.19,3.44,3.35,5.3.32,3.86-4.24,2.69-6.72.8a18,18,0,0,1-4-4.84c-.65-1-.72-1.72-.36-2.2A3.66,3.66,0,0,1,129.18,232.78Z"/>
      <path class="cls-2" d="M149.41,224.38l.86.1h0l-.85-.1Z"/>
      <path class="cls-2" d="M153.07,216.9h0c3.25.38.61,5-.42,6.81a17.59,17.59,0,0,1-4.78,5.37c-.92.72-2.38,2.21-3.52,1.72-2.64-1.11.68-6.4,1.7-8.19C147.58,220,149.91,216.55,153.07,216.9Z"/>
      <path class="cls-2" d="M150.58,233.44c1.91,1.43,3.74,3.67,2.62,6.55-1.37,3.57-5.48.67-7-.7-1.17-1.08-5.76-7.47-1.72-8.4C146.72,230.39,149,232.25,150.58,233.44Z"/>
      <path class="cls-2" d="M143,237.59c-.68.15,1.48-.35,0,0Z"/>
      <path class="cls-2" d="M180.61,211.43c3.23.44.94,4.89-.08,6.82a16.5,16.5,0,0,1-4.42,5.29c-1,.83-2.72,2.59-4,2-2.74-1.19.48-6.65,1.55-8.61C175.15,214.27,177.43,211,180.61,211.43Z"/>
      <path class="cls-2" d="M174.06,224.72Z"/>
      <path class="cls-2" d="M180.3,227.76c1.93,1.46,4.13,4.08,2.62,7s-5.68,0-7.09-1.26c-1.16-1-6.44-7.86-2.2-8.73C176,224.31,178.57,226.44,180.3,227.76Z"/>
      <path class="cls-2" d="M174.06,224.72l-.43.09Z"/>
      <path class="cls-2" d="M194.93,221.78h0C195.83,220.89,195.15,221.57,194.93,221.78Z"/>
      <path class="cls-2" d="M194.93,221.78h0C194.86,221.85,194.84,221.87,194.93,221.78Z"/>
      <path class="cls-2" d="M194.93,221.78c1.92-1.88,5.57-1.47,7.57-.81a6.93,6.93,0,0,1,3.48,2.3c.71.95,1.35,2.71.38,3.93-1.5,1.9-5.26.86-6.91.3-1.44-.5-7-3.22-4.52-5.71Z"/>
      <polygon class="cls-2" points="194.93 221.78 194.93 221.78 194.93 221.79 194.93 221.78"/>
      <path class="cls-2" d="M134.5,225a10.83,10.83,0,0,1-2.75,4c-1.18,1.26-2,2.82-3.18,4.07-1,1-2.11.27-2.16-1.1a15.89,15.89,0,0,1,1-5.19c.94-3,2.16-7.85,5.38-8.82C135.85,217,135,223.5,134.5,225Z"/>
    </g>
    <g>
      <g>
        <path class="cls-2" d="M73.8,115.73c1.35-.45,2.6.35,3.67.93a12.14,12.14,0,0,1,3.85,3.1,13.74,13.74,0,0,1,2.44,4.56c.46,1.75-1.37,2.74-2.79,2.59-2.55-.25-5.19-2-7-3.6a6.14,6.14,0,0,1-2-3c-.38-1.51,0-3.54,1.49-4.36A2.92,2.92,0,0,1,73.8,115.73Z"/>
        <path class="cls-2" d="M82.22,132.89a10.5,10.5,0,0,1,3.86,1.4c.26.15,2.32,1.7,1.94,2a12.76,12.76,0,0,1-6.85,3.06c-2.06.26-5.78-.21-4.72-3.32C77.43,133.17,79.87,132.56,82.22,132.89Z"/>
        <path class="cls-2" d="M84.37,156.44a12.92,12.92,0,0,1,6.64,6c.69,1.38-.55,2.69-2,2.84a9.46,9.46,0,0,1-4.22-.84c-2.5-.94-5.89-2.17-6.53-5.23-.27-1.28,0-3.05,1.45-3.57S83,155.91,84.37,156.44Z"/>
        <path class="cls-2" d="M74,181a17.75,17.75,0,0,1,6.73,9.14c.5,1.37,1,3.54-1.11,4.09-1.89.49-3.86-1.05-5.16-2.06-2.16-1.67-4.6-3.57-5.59-6.33A5.6,5.6,0,0,1,69.3,181C70.58,179.11,72.77,180.2,74,181Z"/>
        <path class="cls-2" d="M84,143.73a11.33,11.33,0,0,1,6.67,4.85c.69,1.24-.55,2.47-1.77,2.69a8.93,8.93,0,0,1-3.82-.35c-2.39-.59-5.63-1.37-6.45-4.1-.36-1.16-.23-2.78,1.12-3.36S82.78,143.39,84,143.73Z"/>
        <path class="cls-2" d="M82.54,170.89A11.49,11.49,0,0,1,86,174.68c.58,1,1.9,2.9,1.52,4.25-.93,3.37-5.89-.19-7.11-1.05-1.88-1.34-4.47-3.26-4.21-6.12C76.6,167.3,80.76,169.6,82.54,170.89Z"/>
      </g>
      <path class="cls-2" d="M69,196.32a19.76,19.76,0,0,1,7.45,12.16c.29,2.21-2,2.93-3.63,2.5-3.4-.92-6.6-4-8.91-6.58a10.11,10.11,0,0,1-2.59-4.56c-.39-1.78.05-4.87,2.18-5.62S67.62,195.23,69,196.32Z"/>
      <g>
        <path class="cls-2" d="M109.11,124.49Z"/>
        <path class="cls-2" d="M90.63,122.54a2.48,2.48,0,0,1,3.57.88c.8,1.21.53,2.92,0,4.36a17.92,17.92,0,0,1-6.17,8.59,12,12,0,0,1-.83-6.67c.29-2.32,1.15-5.82,3.38-7.15Z"/>
        <path class="cls-2" d="M109.12,124.49h0C109.35,124.35,109.27,124.4,109.12,124.49Z"/>
        <polygon class="cls-2" points="109.11 124.49 109.12 124.49 109.11 124.5 109.11 124.49"/>
        <path class="cls-2" d="M101.37,153.79a3.79,3.79,0,0,1,.45.29c1.9,1.48-.31,4.43-1.51,6a14,14,0,0,1-5.07,4.11c-1.1.58-2.72,1.67-3.71.76-1.93-1.78,1.44-5.83,2.78-7.53C95.87,155.47,98.93,152.51,101.37,153.79Z"/>
        <path class="cls-2" d="M95.56,189.68c1.24.82,2.35,2.59,1.47,4s-3.43,1.86-5.13,2.07c-3.85.46-8.12-.09-11.22-2.09-1.59-1-.45-2.8,1-3.54a15.65,15.65,0,0,1,5.18-1.24C89.73,188.56,93.22,188.13,95.56,189.68Z"/>
        <path class="cls-2" d="M118.16,137.84Z"/>
        <path class="cls-2" d="M118.16,137.84Z"/>
        <path class="cls-2" d="M98.14,137.63h0c2.77.22,1.32,3.94.55,5.74a13,13,0,0,1-3.24,4.54c-.88.8-2.26,2.4-3.44,1.92-2.35-.94-.23-5.38.58-7.2C93.65,140.24,95.4,137.41,98.14,137.63Z"/>
        <polygon class="cls-2" points="118.16 137.84 118.16 137.84 118.16 137.84 118.16 137.84"/>
        <path class="cls-2" d="M99.38,177.17c1,.66,2.09,2.05,1.52,3.28s-2.68,1.66-4.06,1.84c-3.24.41-7,0-9.6-1.78-1-.72-.67-2.08.4-2.78a10.4,10.4,0,0,1,4.52-1.25C94.56,176.2,97.39,175.89,99.38,177.17Z"/>
        <path class="cls-2" d="M94.13,203c1.59.56,3.54,2.13,3.19,4-.42,2.22-3.58,3.27-5.51,3.91a20.81,20.81,0,0,1-7,1.23c-2.2,0-5.19-.2-7.06-1.17s-.54-3.25.9-4.29a19.28,19.28,0,0,1,5.25-2.43C87.17,203.15,91,201.89,94.13,203Z"/>
      </g>
    </g>
    <g>
      <path class="cls-2" d="M196,71.86c-32.85,2.64-34.84,36.54-39.41,62.32-2.79,18-5.9,36.21-12.29,53.43a118.68,118.68,0,0,1-51.41,63l-1.28-2.06a126,126,0,0,0,21.52-16.35c13.1-12.57,22.74-28.38,29.08-45.34s9.71-35,12.67-52.94c3.51-18.39,5.77-44,21.86-55.91,5.57-4,12.45-5.86,19.25-6.33v.2Z"/>
      <path class="cls-2" d="M249.67,155.33c-3.29-1.37-7.51-1.76-11.25-1.83a64.22,64.22,0,0,0-22.87,4.08c-18.51,6.47-33.69,19.68-46.63,34.06C152.56,209,134.6,225,114.81,238.43a170.48,170.48,0,0,1-19.36,11.7,5.21,5.21,0,0,1-2.64.71,2.6,2.6,0,0,1-1.31-.53L86,245.83c8,.14,16.54.35,24.42-.94,17.47-2.51,33.92-9.58,50-16.56,9.57-3,31.75-10.22,40.56-5.1l-.16.25c-3-1.72-6.65-1.57-10-1.38-10.28,1-20.25,4.07-29.95,7.48-5.27,2.51-10.73,5.06-16.17,7.35-16.32,7-33.76,12.23-51.68,11.72l.16-.47c-.11-.07-.1,0-.09,0a2.09,2.09,0,0,0,.21,0,79.6,79.6,0,0,0,10-5.53,299.62,299.62,0,0,0,28.87-20.68,350,350,0,0,0,34.85-32c15.76-17.41,35.83-32.84,59.61-36.5,7.52-1,15.59-1.32,22.76,1.53a1.92,1.92,0,0,1,.5.36.24.24,0,0,1,.06.19.21.21,0,0,1-.14.19l-.12-.27Z"/>
      <path class="cls-2" d="M119.84,82.3l-.12-.11s-.07,0,0,0c.34-.24.09-.15.17-.18v0l.19.28c.17.29,1,1.41,1.19,1.74,19.5,28.49,22.12,65.13,2.4,94.27-1.76,2.82-4.66,6.5-6.64,9.22-8.54,11.84-16.24,24.61-19.21,39-1.87,7.83-.42,16.06-2.77,23.9l-1.33.36a4.33,4.33,0,0,1-2.51-.07c-2.94-1-4.95-3.49-6.73-5.78a40.14,40.14,0,0,1-4.44-7.84c-4.71-10.87-5.39-23.13-3-34.59a89.06,89.06,0,0,1,9.08-24.15,53.5,53.5,0,0,0,4.73-24,67.1,67.1,0,0,0-5.12-24.43,19.94,19.94,0,0,0-3.18-5.35c-.45-.46-1.06-1-1.64-.8l-.11-.28c2.29-.52,4.57,4.48,5.47,6.17,5.79,12.84,7.64,27.73,4.33,41.49-1.23,5.56-4.2,10.49-6.39,15.68-7.6,17.78-9.21,40.11,2.46,56.49a16.77,16.77,0,0,0,4.43,4.34,2.7,2.7,0,0,0,1.79.47l-.18.18c.95-3.58.83-7.37,1-11.11.15-19.12,10.08-36.3,21.11-51.28,26-31.37,26.79-68.73,5.34-102.84l-.37-.6a2.6,2.6,0,0,1-.21-.36c.06-.05-.2,0,.15-.25a.41.41,0,0,1,.16.09l.13.13-.22.21Z"/>
    </g>
  </g>
</svg>
