<svg id="Layer_1" data-name="Layer 1" xmlns="http://www.w3.org/2000/svg" width="378.89" height="399.07" viewBox="0 0 378.89 399.07">
  <defs>
    <style>
      .cls-1 {
        fill: #8c2c2c;
      }

      .cls-2 {
        fill: #4f1313;
      }

      .cls-3 {
        fill: #423628;
      }

      .cls-4 {
        fill: #564837;
      }
    </style>
  </defs>
  <path class="cls-1" d="M328.62,304.4c-4.37,0-9.77,3.11-12.88,6.11a21.49,21.49,0,0,0-3.74-.34c-6.42,0-13.4,2.6-19.21,5.5,3.13-3.73,6-7.91,6.27-12.86l.05-.75-.65-.21c-2.51-.78-5.09.39-7.32,3.34a28.45,28.45,0,0,0-5,14.21c-2.74,1.68-4.77,3.12-5.66,3.77-3,2.18-5.91,4.08-8.8,5.79,1.67-3,2.72-6.09,2.56-8.69l0-.68-.6-.15a4.06,4.06,0,0,0-1-.13c-4.84,0-9.42,8.89-12.37,15.32a54.16,54.16,0,0,1-18.06,3.86c1.12-.86,2.2-1.73,3.19-2.56s4.58-7.88,3.74-10.67a1.79,1.79,0,0,0-1.77-1.36L247,324c-3.68,1.73-9.34,8.72-12.37,14.2a47.88,47.88,0,0,1-5.4-1c4.65-3.52,8.78-8,12.81-12.46,4.5-5,8.75-9.63,13.6-12.86,3-2,6.27-3.84,9.53-5.62,5.46,2.79,11.41,5.29,17,5.29a16.23,16.23,0,0,0,4-.47l.74-.2-.1-.83c-.61-5.16-7.11-7.51-13.65-8.13a133.28,133.28,0,0,0,15.65-9.54l.71,0c3.81,0,26.79-2.06,26.78-7.07a3.41,3.41,0,0,0-.65-2.51c-.71-.89-1.9-1.3-3.64-1.3-4,0-10.29,2.24-15.72,4.48.39-.38.8-.74,1.18-1.14,7.89-8.28,9.07-19.3,10.13-29.06,0-.26.06-.51.08-.76,6.46-1.07,17.19-4.87,20.1-9.05a3.92,3.92,0,0,0,.76-3.18,2.41,2.41,0,0,0-2.64-1.91c-3.61,0-10.73,4.08-17.54,8.46,1.4-9.89,4.13-17,16-19.76a3.23,3.23,0,0,0,2-1.55,4,4,0,0,0,.45-2.73,3.3,3.3,0,0,0-3.82-2.81,33.66,33.66,0,0,0-5.72,1.88c2.55-6.11,4.7-13.52,4.84-18.63l0-.84-.75-.11a5.75,5.75,0,0,0-5.61,2.55c-3.57,4.68-4.22,14.29-4,20.23-8.38,6.52-9.52,17.05-10.61,27.34-.78,7.14-1.61,14.46-5.06,20.43.66-9.23.27-21.5-7.35-24.91l-.8-.36-.29.91c-1.14,3.72.07,8.49,1.14,12.69.29,1.17.59,2.29.79,3.32s.37,2,.57,3.18a58.29,58.29,0,0,0,2.3,9.94c-7.13,7.25-16.21,12.13-25,16.82l-.28.15c-1.24.66-2.49,1.36-3.74,2,2-5.76,4-13.12,2.72-16.54a3,3,0,0,0-2.09-2,2.74,2.74,0,0,0-3,1.36c-2.52,3.58-2.91,13.79-2.7,20-2.05,1.19-4.1,2.38-6.06,3.68-.19.13-.36.29-.54.42a85.23,85.23,0,0,0,4.82-17.24c.47-2.72.8-5.43,1.11-8.13,5.08-2.88,12.18-8.45,13.61-12.46a3.48,3.48,0,0,0-.56-3.82,2.59,2.59,0,0,0-2-.87c-2.74,0-6.33,3.89-10.23,9a94.3,94.3,0,0,1,2-12.42c1.23-5,2.9-10.05,4.55-15,1.14-3.43,2.29-7,3.34-10.58,1.43-.78,2.91-1.74,4.38-2.7a48.2,48.2,0,0,1,5-3,65.26,65.26,0,0,0,13.44-6.56l.79-.53-.57-.83a6.7,6.7,0,0,0-5.79-3.13c-4.82,0-10.73,4.33-15.34,8.81,2.58-14.59.08-28.45-2.35-41.93,0-.27-.09-.55-.14-.83,5.21-4.7,11.56-12.67,13.79-18.57l.3-.78-.66-.4a5.61,5.61,0,0,0-2.91-.87c-5,0-9.18,7.08-11.77,13.41A140,140,0,0,1,264.77,160a80.31,80.31,0,0,1,8.12-38.11c1.35.14,2.7.17,3.53.17,1.34,0,13.12-.13,15.81-4.19a3.3,3.3,0,0,0,.46-2.78c-.3-1.14-1.24-2.48-4-2.48-3.37,0-8.54,2-12.77,3.83A49.79,49.79,0,0,1,293,99.22a3.83,3.83,0,0,0,1.38-4.87,3.16,3.16,0,0,0-4.35-1.57A50.08,50.08,0,0,0,284,97c1.66-6.94,2-13.81-2.92-17.31l-.56-.4-.47.54c-3.6,4.13-2.68,9.18-2,12.86.09.53.19,1,.25,1.41.07.86,0,2.17,0,3.54-.06,1.62-.11,3.26-.05,4.74a66.09,66.09,0,0,0-9,12.5c-.48-7.55-2.17-15.3-8.19-19.3l-.61-.41-.46.62c-.34.48-1.41,2,0,8.72a77,77,0,0,0,5.85,17.24,89.66,89.66,0,0,0-7.49,34.6c-2.14-5.33-5.09-10.08-9.76-12.33l-.67-.32-.37.68c-1,1.79-.49,5,1.45,9.52,2.47,5.77,6.9,12.64,10.23,15.57.68,5.68,1.65,11.25,2.63,16.67.94,5.21,1.84,10.32,2.47,15.4-3.08-4.6-7.29-8.1-12.85-7.37l-.73.09v.83c0,4.36,3.94,7.18,7.1,9.44.59.42,1.15.82,1.6,1.17a44.89,44.89,0,0,1,3.43,3.66c.74.84,1.48,1.66,2.21,2.45a63.32,63.32,0,0,1-2.15,18.91c-1.09,3.92-2.4,7.88-3.72,11.86-1.51,4.53-3,9.23-4.28,14-1-8.32-3.42-16.52-10.56-18.83l-.92-.3-.14,1.05c-.54,4.21,1.61,9,3.51,13.28.51,1.15,1,2.26,1.42,3.28.45,1.22.91,2.88,1.4,4.65a52.22,52.22,0,0,0,3,8.86c-.29,2.35-.54,4.68-.77,7-.38,3.69-.8,7.87-1.5,11.83a78.43,78.43,0,0,1-3.74,14.1c-.7-6.18-2.29-12.25-4.11-14.71l-.51-.7-.64.56c-5.23,4.65-2.19,16.42.34,25.07a66.7,66.7,0,0,1-17,18.34,3,3,0,0,0-1.15-.13c-.18-2.46-.55-4.86-.92-7.21s-.68-4.64-.83-6.92c5.4-4.86,13.15-12.51,13.15-19.53v-.67l-.57-.21a4.63,4.63,0,0,0-1.57-.27c-3.74,0-7.51,4.52-10.34,9.61A92.79,92.79,0,0,1,225,293.92a110.88,110.88,0,0,0,3.92-42.75c4.19-7.32,8.66-16.06,6.4-24.5l-.23-.86-.77.23c-2.94.84-5.42,6.79-6.64,10.27-.25.71-.5,1.49-.75,2.31-1.16-5.66-2.57-11.14-4-16.52-1-3.92-2-7.77-2.91-11.63,5.52-6.77,11.17-16.95,9.13-26.52l-.22-1-.86.35c-4.38,1.72-6.07,7.94-7.42,12.93-.22.83-.43,1.62-.64,2.31-.38,1.18-1,2.6-1.61,4.07A88.05,88.05,0,0,1,217,183c.3-6.39,1.66-12.95,3-19.3.23-1.11.45-2.24.67-3.37,5.79-3.89,15.42-12.38,16.9-15.87a2.2,2.2,0,0,0,0-2.27,3.51,3.51,0,0,0-2.93-1.58c-3.55,0-8.41,5.36-12.31,10.62a73.79,73.79,0,0,0,.87-10.93c0-8.45-1.85-16.52-3.63-24.36-.83-3.68-1.67-7.44-2.32-11.21a56,56,0,0,0,6-6.42c.74-.89,1.36-1.64,1.8-2.1l.27-.28c3.67-3.78,6.84-7.06,7.09-13.34l0-.7-.59-.22a6.39,6.39,0,0,0-2.17-.4c-5.7,0-10.25,8.29-13.31,15.53-1.14-18.91,6.44-39.15,16.68-54.24l1.95,0c1.64,0,16-.13,16.78-4.87a3,3,0,0,0-.47-2.35c-.64-.87-1.81-1.28-3.55-1.28-2.68,0-6.51,1-10.07,2.18A78.22,78.22,0,0,1,243.19,30a3.92,3.92,0,0,0,.27-5.1,3.08,3.08,0,0,0-4.56-.33,100.78,100.78,0,0,0-17.38,23.88c0-5.67-1-11.48-2.41-13.9l-.45-.74-.67.48c-5.39,3.79-3,15.66-1.49,23.51.08.35.14.66.2,1A95.14,95.14,0,0,0,210,85.87c-3.19-7.49-7.15-14.39-12.45-18.62l-.78-.62-.44,1c-2.69,6,2.35,12.74,5.68,17.22l.29.41c.75,1,1.61,2.26,2.53,3.64a71.13,71.13,0,0,0,4.88,6.71c.06,1.83.21,3.66.42,5.49a159.08,159.08,0,0,0,3.15,16.62c1.63,7.22,3.12,14.07,3.34,21.14-5-11.09-11.22-17.24-18.52-18.13l-1-.13.06,1.1c.26,4.94,4.74,8.94,8.35,12.15.81.74,1.6,1.43,2.25,2.07a53.63,53.63,0,0,1,3.74,4.84,58.51,58.51,0,0,0,4.78,6.09c-.53,5-1.53,10-2.61,15.21s-2.14,10.31-2.74,15.67a68.25,68.25,0,0,0-5.24-7.29c-.6-.73-8.17-5.2-11.21-5.2a1.67,1.67,0,0,0-1.86,1.74l0,.29c1.1,3.67,4.55,6,7.59,8.12,1.19.83,2.32,1.61,3.3,2.44a33.14,33.14,0,0,1,4.63,5c.78,1,1.54,1.89,2.3,2.74-.12,10.39,1.62,20,3.86,29.26l0,1.7.38-.36c.67,2.71,1.37,5.41,2.07,8.09.62,2.38,1.25,4.8,1.86,7.23-6.33-7.17-13.5-13.79-21.19-15.88l-.94-.25-.08,1.08c-.52,6.65,6.4,10.85,11,13.64l.41.24c1,.6,2.23,1.44,3.54,2.33,2.89,2,6.07,4.16,8.75,5.08.89,4,1.66,8,2.18,12.19a102.51,102.51,0,0,1-.54,28.9c-3.43-9.15-10-16.75-18.52-16.75h-1.07l.27,1.16c.92,3.86,4.09,6.69,7.18,9.41a45.73,45.73,0,0,1,3.44,3.28,37.61,37.61,0,0,1,4.49,6.27c.92,1.49,1.82,2.92,2.74,4.16q-.63,2.69-1.42,5.34A79.37,79.37,0,0,0,215.25,312c-2.44-4.41-5.56-8.12-9.38-10.3l-.86-.49-.3,1c-1.57,5.37,2.53,11.14,5.52,15.35.42.6.82,1.16,1.16,1.66.91,1.46,1.89,3.4,2.92,5.46.88,1.77,1.79,3.57,2.72,5.18.06.69.07,1.38.09,2.07-10.1-7.55-16.22-14.8-20.05-27.95-1.06-3.62-2.3-7.52-3.86-11.44,3.46-8.06,6.94-18.38,2.26-26l-.46-.74-.67.5c-3.79,2.81-4,11-4,12.57a48.47,48.47,0,0,1-.62,5.91l0,.26c-.77-1.43-1.59-2.85-2.5-4.22a83.87,83.87,0,0,0-6.66-8.47c-1.2-1.41-2.36-2.78-3.47-4.16a53.09,53.09,0,0,0,2.5-8.25,44.54,44.54,0,0,1,1.66-5.71c1.72-4,1.85-7.6,1.85-11.94v-1l-.86.05a6.26,6.26,0,0,0-4.7,2.57c-3.13,4-3.88,12-3.75,19.56-.26-.41-.53-.81-.76-1.23-3.85-7-4.23-15-4.63-23.64-.34-7.18-.7-14.62-3.18-21.77a53.17,53.17,0,0,0-2.48-5.92c2.5-8,5.48-18.53,1-26.2l-.37-.64-.63.28c-1.28.56-2.28,2-3,4.14-1.3,4-1.44,10.21-1,15.49A91.7,91.7,0,0,0,142.36,186c0-.35.08-.68.13-1,.91-7.53,2-16.9-1.89-23l-.38-.58-.59.26c-1.61.71-2.68,2.41-3.19,5-.83,4.31,0,10.59,1.33,15.51-1.91-1.54-3.81-3-5.69-4.45a3.1,3.1,0,0,0-4.49,1,3.89,3.89,0,0,0-.5,2.7,3.67,3.67,0,0,0,1.37,2.32c3.83,2.89,7.74,6.05,11.49,9.42-.63-.06-1.27-.1-1.92-.1-3.81,0-7,1.14-8.8,3.12l-.37.4.16.54c.86,3,5.2,3.64,8.68,3.64a29.71,29.71,0,0,0,8.7-1.33c5.51,5.93,10.16,12.61,12.79,20.18A54.53,54.53,0,0,1,161.67,234l-.14-.17c-.94-1.14-1.81-2.17-2.43-3l-.27-.36c-3.21-4.31-6.23-8.38-12-8.49l-.82,0,0,.92c-.17,7.47,9.8,15,16.09,18.94.44,8.23,1.2,16.63,5.45,24.32a46.41,46.41,0,0,0,4.12,6.15,24.22,24.22,0,0,0-7.66-1.5,11.09,11.09,0,0,0-8.17,3.24l-.55.56.42.67c2.21,3.49,9.59,3.86,12.65,3.86a34.31,34.31,0,0,0,8.19-.93,70.81,70.81,0,0,1,5.49,7,69.61,69.61,0,0,1,7.79,17.47c-3.85-3.2-8.2-5.5-11.77-5.5a7.29,7.29,0,0,0-2.07.29l-.85.23.27.94c1.93,6.82,11.52,12.39,18.74,16.5,4.15,9.35,9.93,15.64,18.15,21.94a33.41,33.41,0,0,1-9.1,1.12,65.69,65.69,0,0,1-10.82-1q-1.53-3.57-3-7.12c-2-4.7-4-9.54-6.15-14.25l-.38-.83-.74.42c-2.68,1.52-3.67,4.68-2.78,8.87a32.23,32.23,0,0,0,5.29,11.12c-8.95-2.78-15-10-21.34-18.61a56.73,56.73,0,0,0,.23-20.89l-.22-.74h-.67a4.39,4.39,0,0,0-4,2.61c-1.45,2.78-1.39,7.39-.77,11.81-5.83-7.34-12.36-13.84-21.18-18-.7-5.91-3.06-18.56-10.49-18.56a7.1,7.1,0,0,0-1.49.17l-.69.16,0,.79c.13,4.21,3.56,10.62,7,15.18a30.79,30.79,0,0,0-8.89-1.4,22.1,22.1,0,0,0-7.21,1.15,18.23,18.23,0,0,0-7.68-2.25,6.78,6.78,0,0,0-5.82,3l-.38.51.33.56c1.23,2.12,4.53,2.56,6.69,2.61a21.73,21.73,0,0,0-4.43,6.75,4,4,0,0,0-.11,2.77,3.46,3.46,0,0,0,1.66,2.05,3.15,3.15,0,0,0,4.3-1.73,12.32,12.32,0,0,1,8.54-7.68,7.8,7.8,0,0,0-2.43,2.63,6.22,6.22,0,0,0-.44,4.63l.15.54.5.11a5.23,5.23,0,0,0,1,.09c3.82,0,8.57-4.16,10.88-7.79a30.37,30.37,0,0,1,3.93,1.23,41.16,41.16,0,0,1,11.28,6.69c-5.48.13-12,2.22-13.15,7.84l-.18.83.73.26a4.55,4.55,0,0,0,1.5.18c1.91,0,11.69-1.26,17.1-3.35a136.66,136.66,0,0,1,9,11.34q1.65,2.25,3.34,4.43a18.93,18.93,0,0,0-3.62-.37c-4,0-7,1.48-8.56,4.18l-.35.62.46.53c1.7,1.9,4.27,2.82,7.88,2.82a47.64,47.64,0,0,0,8.93-1.16l.75-.14c5,5.23,10.64,9.4,18,11.2a78.86,78.86,0,0,0,18.55,2.52A35.92,35.92,0,0,0,217,343l.12,0a3.56,3.56,0,0,0,.73-.09c.83-.22,1.62-.51,2.43-.8a3.08,3.08,0,0,0,.74-.11,53.88,53.88,0,0,0,19.3,3.68,62.37,62.37,0,0,0,24.64-5.47,60.48,60.48,0,0,0,15.77,2.84c4,0,6.14-1,6.61-3a3.31,3.31,0,0,0-.44-2.67c-1-1.49-3.57-2.22-7.73-2.22-1.5,0-3.11.1-4.7.25a106.18,106.18,0,0,0,9.54-6.23,81.31,81.31,0,0,1,13.64-8.05c3.91,3.1,10.17,7.12,13.92,7.12a3.43,3.43,0,0,0,3.35-4.71c-1-2.4-5.28-4.08-9.62-5.19a26.38,26.38,0,0,1,6.69-1,13.87,13.87,0,0,1,4.67.74c3.05,1.08,5.17,3.44,6.49,7.21a3.2,3.2,0,0,0,4.19,2,3.53,3.53,0,0,0,1.79-1.91,4.09,4.09,0,0,0,0-2.78,18.93,18.93,0,0,0-6.34-9.11c4.23-.58,8.4-1.76,11.31-5l.47-.54-.37-.63A6.13,6.13,0,0,0,328.62,304.4Z"/>
  <path class="cls-2" d="M124.88,279.85c3.66,0,8.19,2.29,10.79,4.5a19.74,19.74,0,0,1,3.13-.25c5.38,0,11.23,1.91,16.1,4-2.62-2.75-5-5.83-5.26-9.47l0-.55.54-.15c2.1-.58,4.26.28,6.13,2.46a19.26,19.26,0,0,1,4.2,10.45c2.3,1.25,4,2.31,4.75,2.78,2.5,1.61,5,3,7.37,4.27-1.4-2.21-2.28-4.49-2.14-6.4l0-.5.5-.12a4.57,4.57,0,0,1,.82-.09c4.06,0,7.9,6.55,10.37,11.28A51,51,0,0,0,197.31,305c-.94-.63-1.85-1.27-2.67-1.88s-3.84-5.81-3.13-7.86a1.48,1.48,0,0,1,1.48-1l.26.06c3.09,1.27,7.83,6.42,10.37,10.46,1.51-.17,3-.42,4.53-.74a77.35,77.35,0,0,1-10.74-9.17c-3.77-3.65-7.33-7.1-11.4-9.47-2.54-1.48-5.25-2.84-8-4.15-4.57,2.06-9.56,3.9-14.24,3.9a15.15,15.15,0,0,1-3.37-.35l-.62-.14.08-.61c.52-3.8,6-5.53,11.44-6a113.13,113.13,0,0,1-13.11-7h-.59c-3.2,0-22.45-1.52-22.45-5.21a2.29,2.29,0,0,1,.55-1.84,3.93,3.93,0,0,1,3.05-1c3.31,0,8.62,1.65,13.17,3.3-.33-.28-.67-.55-1-.84-6.61-6.1-7.6-14.21-8.49-21.4,0-.19-.05-.38-.07-.56-5.41-.79-14.4-3.59-16.84-6.67a2.6,2.6,0,0,1-.63-2.34c.13-.52.6-1.4,2.21-1.4,3,0,9,3,14.7,6.23-1.18-7.28-3.47-12.49-13.42-14.55a2.69,2.69,0,0,1-1.72-1.15,2.58,2.58,0,0,1-.38-2,2.74,2.74,0,0,1,3.2-2.07,31.48,31.48,0,0,1,4.79,1.38c-2.14-4.5-3.94-9.95-4.05-13.72l0-.61.63-.08a5.08,5.08,0,0,1,4.7,1.87c3,3.45,3.53,10.53,3.39,14.9,7,4.8,8,12.56,8.89,20.13.64,5.26,1.34,10.65,4.24,15-.56-6.8-.23-15.84,6.15-18.35l.67-.27.24.68c1,2.74,0,6.25-.95,9.34-.25.87-.49,1.69-.66,2.45s-.31,1.46-.48,2.33a39.14,39.14,0,0,1-1.92,7.33c6,5.34,13.58,8.93,21,12.38l.23.11c1,.49,2.09,1,3.14,1.5-1.69-4.24-3.34-9.66-2.29-12.18a2.39,2.39,0,0,1,1.75-1.49,2.45,2.45,0,0,1,2.5,1c2.1,2.64,2.43,10.16,2.26,14.76,1.71.87,3.43,1.75,5.08,2.71.15.1.3.21.45.3a56.44,56.44,0,0,1-4-12.69c-.4-2-.68-4-.93-6-4.26-2.12-10.21-6.22-11.41-9.17a2.36,2.36,0,0,1,.47-2.81,2.3,2.3,0,0,1,1.64-.64c2.3,0,5.31,2.86,8.58,6.62a60.84,60.84,0,0,0-1.7-9.14c-1-3.7-2.43-7.4-3.81-11-1-2.53-1.92-5.15-2.8-7.8-1.19-.57-2.44-1.28-3.67-2a41.38,41.38,0,0,0-4.18-2.19,58.25,58.25,0,0,1-11.26-4.83l-.67-.39.48-.61a5.85,5.85,0,0,1,4.85-2.31c4,0,9,3.19,12.86,6.49-2.17-10.74-.07-21,2-30.88l.12-.6c-4.37-3.47-9.69-9.34-11.56-13.68l-.25-.57.56-.3a5.17,5.17,0,0,1,2.44-.64c4.19,0,7.68,5.22,9.86,9.88a93.5,93.5,0,0,0,1.62-12.26,53.25,53.25,0,0,0-6.81-28.06c-1.13.09-2.26.12-3,.12-1.12,0-11-.09-13.25-3.09a2.2,2.2,0,0,1-.38-2.05c.25-.83,1-1.82,3.32-1.82,2.82,0,7.16,1.49,10.69,2.82a39.51,39.51,0,0,0-14.28-12.68,2.63,2.63,0,0,1-1.16-3.58,2.79,2.79,0,0,1,3.64-1.16,41.47,41.47,0,0,1,5.09,3.12c-1.38-5.11-1.64-10.17,2.45-12.74l.48-.3.39.4c3,3,2.24,6.76,1.68,9.47-.08.39-.16.75-.21,1,0,.63,0,1.59,0,2.6,0,1.2.09,2.4,0,3.49a49.8,49.8,0,0,1,7.55,9.21c.4-5.56,1.82-11.27,6.86-14.21l.52-.3.37.45c.3.36,1.19,1.44,0,6.42a52.53,52.53,0,0,1-4.91,12.7,59.12,59.12,0,0,1,6.27,25.47c1.8-3.92,4.27-7.42,8.19-9.08l.55-.23.31.5c.82,1.32.41,3.67-1.21,7-2.07,4.25-5.78,9.31-8.57,11.46-.57,4.18-1.39,8.28-2.21,12.28-.78,3.83-1.54,7.59-2.07,11.33,2.59-3.38,6.11-6,10.77-5.42l.61.07v.61c0,3.21-3.3,5.28-5.95,7l-1.35.86a36,36,0,0,0-2.87,2.69c-.61.62-1.24,1.23-1.85,1.81a41.59,41.59,0,0,0,1.8,13.92c.91,2.89,2,5.8,3.12,8.73,1.27,3.35,2.54,6.8,3.59,10.34.85-6.13,2.86-12.17,8.85-13.87l.76-.22.12.77c.45,3.11-1.35,6.65-2.94,9.78-.43.85-.85,1.67-1.19,2.42-.37.9-.76,2.12-1.17,3.42a35.12,35.12,0,0,1-2.52,6.52c.24,1.73.45,3.45.64,5.14.32,2.72.67,5.8,1.26,8.71a52.45,52.45,0,0,0,3.13,10.38c.59-4.55,1.92-9,3.45-10.83l.42-.52.54.42c4.38,3.42,1.84,12.09-.29,18.45A52,52,0,0,0,212,298.76a2.86,2.86,0,0,1,1-.09,53,53,0,0,1,.76-5.31,49.45,49.45,0,0,0,.7-5.1c-4.52-3.58-11-9.21-11-14.38v-.49l.48-.16a4.42,4.42,0,0,1,1.31-.2c3.14,0,6.3,3.33,8.66,7.08a59.93,59.93,0,0,0-2.13-8,72.45,72.45,0,0,1-3.29-31.48c-3.5-5.39-7.25-11.83-5.35-18l.19-.63.64.16c2.47.62,4.55,5,5.57,7.56.2.53.42,1.1.62,1.7,1-4.16,2.15-8.2,3.34-12.16.86-2.88,1.68-5.72,2.43-8.56-4.62-5-9.35-12.49-7.64-19.53l.18-.75.72.27c3.67,1.26,5.08,5.84,6.22,9.52.19.61.36,1.19.53,1.7.32.87.82,1.91,1.35,3a56.94,56.94,0,0,0,1.19-14.47,82.73,82.73,0,0,0-2.51-14.21c-.19-.81-.37-1.65-.56-2.48-4.85-2.86-12.92-9.11-14.16-11.68a1.48,1.48,0,0,1,0-1.68,3.08,3.08,0,0,1,2.45-1.16c3,0,7.06,3.95,10.32,7.82a48.1,48.1,0,0,1-.73-8.05c0-6.22,1.55-12.16,3-17.94.7-2.71,1.4-5.47,1.95-8.25a43.17,43.17,0,0,1-5-4.73c-.62-.65-1.14-1.2-1.51-1.54l-.23-.21c-3.08-2.78-5.73-5.2-5.94-9.82l0-.52.5-.16a6,6,0,0,1,1.82-.29c4.78,0,8.59,6.1,11.15,11.43C220,113,213.63,98.12,205,87l-1.63,0c-1.38,0-13.43-.1-14.06-3.59a2,2,0,0,1,.39-1.73,3.74,3.74,0,0,1,3-1,34.39,34.39,0,0,1,8.44,1.61,61,61,0,0,0-4.7-4.58,2.63,2.63,0,0,1-.23-3.76,2.81,2.81,0,0,1,3.82-.24,75.12,75.12,0,0,1,14.56,17.58c0-4.17.8-8.45,2-10.23l.38-.55.56.35c4.52,2.79,2.55,11.53,1.25,17.31-.07.26-.12.49-.17.74a63.42,63.42,0,0,1,5.64,19.94c2.67-5.51,6-10.6,10.43-13.71l.65-.46.37.71c2.25,4.39-2,9.38-4.76,12.68l-.24.3c-.63.72-1.35,1.66-2.12,2.68a52.11,52.11,0,0,1-4.09,4.94c-.05,1.35-.17,2.7-.35,4a103,103,0,0,1-2.64,12.24c-1.36,5.31-2.62,10.35-2.8,15.56,4.22-8.16,9.41-12.7,15.52-13.35l.81-.09,0,.8c-.22,3.64-4,6.59-7,9-.69.55-1.34,1.06-1.89,1.53a41,41,0,0,0-3.13,3.56,46.49,46.49,0,0,1-4,4.49A101.62,101.62,0,0,0,221.19,175a109.54,109.54,0,0,1,2.29,11.54,53.42,53.42,0,0,1,4.39-5.37c.51-.53,6.85-3.83,9.4-3.83,1.15,0,1.56.66,1.56,1.29l0,.21c-.92,2.7-3.81,4.44-6.36,6-1,.61-1.94,1.18-2.76,1.79a26,26,0,0,0-3.88,3.7c-.66.71-1.29,1.38-1.93,2a76.65,76.65,0,0,1-3.23,21.54l0,1.26-.32-.27q-.84,3-1.73,6c-.52,1.75-1.05,3.53-1.56,5.33,5.3-5.29,11.31-10.16,17.75-11.7l.79-.18.07.79c.43,4.9-5.36,8-9.2,10l-.34.18c-.85.44-1.87,1.06-3,1.72a37.13,37.13,0,0,1-7.33,3.74,87.93,87.93,0,0,0-1.83,9,66.08,66.08,0,0,0,.46,21.28c2.87-6.73,8.36-12.33,15.51-12.33h.9l-.23.85c-.77,2.84-3.43,4.93-6,6.94a33.57,33.57,0,0,0-2.88,2.41,27.63,27.63,0,0,0-3.77,4.62c-.77,1.09-1.52,2.15-2.29,3.06.35,1.32.74,2.63,1.18,3.93a51.8,51.8,0,0,1,3,15,20.38,20.38,0,0,1,7.86-7.58l.71-.36.26.76c1.31,3.95-2.12,8.2-4.63,11.31-.35.43-.68.85-1,1.22-.77,1.07-1.58,2.5-2.45,4-.74,1.31-1.5,2.64-2.27,3.82-.06.51-.07,1-.08,1.53,8.46-5.56,13.59-10.9,16.8-20.58a81.06,81.06,0,0,1,3.24-8.43c-2.9-5.93-5.82-13.54-1.9-19.14l.38-.55.57.37c3.17,2.07,3.33,8.07,3.33,9.26a30.6,30.6,0,0,0,.52,4.35l0,.19a36.73,36.73,0,0,1,2.09-3.11,63.62,63.62,0,0,1,5.58-6.24c1-1,2-2,2.91-3.06a35.25,35.25,0,0,1-2.1-6.07,30.7,30.7,0,0,0-1.39-4.21c-1.44-2.91-1.55-5.6-1.55-8.79v-.71l.72,0a5.45,5.45,0,0,1,3.94,1.9c2.63,2.94,3.25,8.82,3.14,14.4.22-.31.44-.6.64-.91,3.22-5.14,3.54-11.07,3.88-17.41.29-5.29.58-10.76,2.66-16a36.9,36.9,0,0,1,2.08-4.35c-2.1-5.92-4.59-13.65-.86-19.3l.3-.47.54.21a4.76,4.76,0,0,1,2.5,3.05c1.09,3,1.21,7.52.86,11.4a72,72,0,0,1,13.72-13.33c0-.25-.06-.49-.1-.76-.77-5.54-1.72-12.44,1.58-16.95l.32-.43.5.2c1.34.52,2.24,1.76,2.66,3.7.71,3.17,0,7.8-1.1,11.42q2.38-1.71,4.76-3.28a2.82,2.82,0,0,1,3.76.72,2.61,2.61,0,0,1,.42,2,2.64,2.64,0,0,1-1.15,1.71c-3.21,2.13-6.48,4.45-9.63,6.94.53,0,1.07-.08,1.62-.08,3.18,0,5.87.84,7.37,2.3l.31.29-.14.4c-.72,2.22-4.35,2.68-7.27,2.68a28.17,28.17,0,0,1-7.29-1c-4.62,4.37-8.51,9.28-10.71,14.86A35.4,35.4,0,0,0,264.76,228a.68.68,0,0,1,.12-.12c.78-.84,1.51-1.6,2-2.23l.22-.26c2.69-3.18,5.23-6.18,10.06-6.26h.69l0,.67c.14,5.51-8.2,11-13.48,14-.37,6.06-1,12.25-4.56,17.91a34.5,34.5,0,0,1-3.46,4.53,22.61,22.61,0,0,1,6.42-1.11,10,10,0,0,1,6.85,2.39l.46.41-.36.5c-1.85,2.56-8,2.84-10.6,2.84a32.9,32.9,0,0,1-6.86-.69,54.86,54.86,0,0,0-4.6,5.16,48.29,48.29,0,0,0-6.52,12.86c3.23-2.35,6.87-4.05,9.86-4.05a6.83,6.83,0,0,1,1.73.21l.72.18-.23.68c-1.62,5-9.65,9.13-15.7,12.16-3.47,6.88-8.32,11.51-15.21,16.15a31.93,31.93,0,0,0,7.62.82,62.48,62.48,0,0,0,9.07-.74q1.29-2.62,2.55-5.24c1.66-3.46,3.37-7,5.16-10.5l.32-.61.61.31c2.25,1.12,3.08,3.45,2.33,6.54a22.56,22.56,0,0,1-4.42,8.18c7.49-2,12.6-7.38,17.88-13.7a36.5,36.5,0,0,1-.19-15.38l.17-.54H264a3.74,3.74,0,0,1,3.39,1.91c1.22,2.05,1.16,5.44.64,8.7,4.9-5.4,10.37-10.19,17.75-13.28.59-4.35,2.56-13.67,8.79-13.67a6.81,6.81,0,0,1,1.25.13l.58.11,0,.58c-.11,3.11-3,7.82-5.88,11.18a29.41,29.41,0,0,1,7.44-1,21,21,0,0,1,6,.85,16.91,16.91,0,0,1,6.43-1.65,6,6,0,0,1,4.88,2.18l.32.38-.28.41c-1,1.56-3.8,1.88-5.6,1.92a15.84,15.84,0,0,1,3.71,5,2.67,2.67,0,0,1-1.3,3.55,2.77,2.77,0,0,1-3.6-1.27,10,10,0,0,0-7.16-5.66,6.21,6.21,0,0,1,2,1.93,4.1,4.1,0,0,1,.36,3.42l-.12.39-.42.08a4.28,4.28,0,0,1-.81.07c-3.2,0-7.18-3.06-9.11-5.73a29.16,29.16,0,0,0-3.3.9,35.83,35.83,0,0,0-9.45,4.92c4.59.1,10.06,1.64,11,5.78l.14.61-.6.19a4.22,4.22,0,0,1-1.26.14,67.42,67.42,0,0,1-14.32-2.47,102.57,102.57,0,0,0-7.58,8.35c-.92,1.11-1.85,2.19-2.8,3.26a17.58,17.58,0,0,1,3-.27c3.36,0,5.91,1.09,7.18,3.07l.29.46-.39.39c-1.42,1.4-3.58,2.08-6.6,2.08a45.66,45.66,0,0,1-7.48-.85l-.63-.11a31.52,31.52,0,0,1-15.07,8.25A74.52,74.52,0,0,1,230,310.06a33.77,33.77,0,0,1-11.58-1.77l-.11,0a3.26,3.26,0,0,1-.61-.07c-.69-.16-1.36-.37-2-.59a2.57,2.57,0,0,1-.62-.08,50.68,50.68,0,0,1-16.18,2.71,58.43,58.43,0,0,1-20.64-4,56.35,56.35,0,0,1-13.21,2.1c-3.34,0-5.15-.73-5.54-2.22a2.21,2.21,0,0,1,.37-2c.87-1.09,3-1.63,6.47-1.63,1.26,0,2.61.07,3.94.18-2.65-1.36-5.31-2.85-8-4.58a69.56,69.56,0,0,0-11.43-5.93c-3.28,2.28-8.52,5.24-11.66,5.24a2.89,2.89,0,0,1-2.57-1.16,2.23,2.23,0,0,1-.24-2.3c.86-1.78,4.43-3,8.06-3.83a24.69,24.69,0,0,0-5.6-.73,13,13,0,0,0-3.91.55,8.37,8.37,0,0,0-5.45,5.31,2.76,2.76,0,0,1-3.5,1.5,2.71,2.71,0,0,1-1.5-1.4,2.65,2.65,0,0,1,0-2.05,14.1,14.1,0,0,1,5.32-6.71c-3.55-.42-7-1.29-9.48-3.71l-.39-.4.31-.46A5.33,5.33,0,0,1,124.88,279.85Z"/>
  <g>
    <path class="cls-3" d="M232.13,303.37c-33.27-18.46-77.9-22.73-114.5-12.61a125.58,125.58,0,0,0-19.12,6.89c-45.25,20.86-43.83,59.93,20.34,75.89,28.11,6.95,104.4,7.09,129.45-5.33C279.24,352.86,259,318.29,232.13,303.37Z"/>
    <path class="cls-4" d="M232.13,303.37c-33.27-18.46-77.9-22.73-114.5-12.61a125.58,125.58,0,0,0-19.12,6.89C75.89,308.07,64.94,323,67.65,337.41a124.3,124.3,0,0,0,27,9.8c28.1,7,104.4,7.09,129.46-5.34,16.89-8.38,18.5-22.48,12.13-36Q234.22,304.55,232.13,303.37Z"/>
  </g>
</svg>
