<svg id="Layer_1" data-name="Layer 1" xmlns="http://www.w3.org/2000/svg" width="378.89" height="399.07" viewBox="0 0 378.89 399.07">
  <defs>
    <style>
      .cls-1 {
        fill: #8c2c2c;
      }

      .cls-2 {
        fill: #4f1313;
      }

      .cls-3 {
        fill: #423628;
      }

      .cls-4 {
        fill: #564837;
      }
    </style>
  </defs>
  <path class="cls-1" d="M319.16,327.72c-4.28-.66-9.87,1.51-13.19,3.91a23.05,23.05,0,0,0-3.64-.89c-6.31-1-13.39.47-19.36,2.38,3.4-3.11,6.55-6.7,7.3-11.4l.11-.71-.61-.29c-2.4-1.14-5-.4-7.5,2.09a25.4,25.4,0,0,0-6.18,12.87c-2.85,1.2-5,2.28-5.91,2.76-3.12,1.64-6.16,3-9.15,4.23,1.91-2.63,3.21-5.44,3.28-7.95l0-.66-.57-.24a4.65,4.65,0,0,0-.95-.27c-4.75-.73-10.05,7.1-13.51,12.82a53.62,53.62,0,0,1-18.09,1c1.18-.66,2.32-1.32,3.36-2s5.21-6.87,4.62-9.67a1.9,1.9,0,0,0-1.61-1.57l-.32,0c-3.78,1.1-10,6.95-13.42,11.75a52.64,52.64,0,0,1-5.22-1.78c4.89-2.67,9.34-6.36,13.7-10,4.86-4.08,9.45-7.92,14.51-10.28,3.15-1.47,6.5-2.74,9.85-3.95,5.11,3.5,10.74,6.8,16.23,7.65a16.49,16.49,0,0,0,4,.15l.73-.07,0-.82c-.14-5-6.31-8.28-12.68-9.86a122.31,122.31,0,0,0,16.22-6.79c.22,0,.42.09.69.13,3.75.58,26.5,2.08,26.94-2.73a3.3,3.3,0,0,0-.42-2.5,4.65,4.65,0,0,0-3.45-1.8c-3.88-.6-10.31.59-15.84,1.92.41-.31.85-.59,1.26-.91,8.48-6.75,10.63-17.15,12.54-26.35.05-.24.1-.48.14-.72,6.44-.05,17.32-2.07,20.55-5.64a3.56,3.56,0,0,0,1-2.94,2.55,2.55,0,0,0-2.43-2.22c-3.54-.55-10.89,2.29-18,5.46,2.26-9.27,5.57-15.65,17.5-16.53a3,3,0,0,0,2.15-1.18,3.71,3.71,0,0,0,.69-2.55,3.51,3.51,0,0,0-3.51-3.27,33.6,33.6,0,0,0-5.78.93c3.05-5.47,5.82-12.25,6.4-17.13l.1-.8-.72-.22a5.46,5.46,0,0,0-5.75,1.59c-3.92,4-5.41,13.08-5.76,18.8-8.81,5-10.87,14.92-12.86,24.62-1.39,6.73-2.87,13.62-6.79,18.83,1.48-8.75,2.18-20.59-5-25l-.75-.47-.37.84c-1.45,3.39-.69,8.15,0,12.34.19,1.17.37,2.28.49,3.31s.18,1.95.27,3.13a57.82,57.82,0,0,0,1.37,9.88c-7.64,5.88-17,9.18-26.08,12.35l-.29.1-3.86,1.39c2.49-5.22,5.08-12,4.15-15.45a3.13,3.13,0,0,0-1.87-2.26,2.6,2.6,0,0,0-3,.85c-2.79,3.05-4.08,12.79-4.44,18.81-2.11.83-4.23,1.66-6.28,2.62-.2.1-.38.22-.56.31a75.77,75.77,0,0,0,6.26-15.8c.71-2.54,1.28-5.09,1.82-7.63,5.25-2,12.71-6.26,14.48-9.89a3.38,3.38,0,0,0-.21-3.75,2.79,2.79,0,0,0-1.85-1.13c-2.69-.41-6.56,2.77-10.85,7.08a84.85,84.85,0,0,1,3.09-11.6c1.65-4.64,3.74-9.2,5.8-13.7,1.43-3.12,2.88-6.35,4.22-9.65,1.47-.53,3-1.23,4.55-1.92a44,44,0,0,1,5.17-2.1,61.11,61.11,0,0,0,13.79-4.26l.82-.38-.48-.89a7.21,7.21,0,0,0-5.41-3.88c-4.74-.73-10.93,2.53-15.86,6.14,3.83-13.61,2.61-27.28,1.43-40.58,0-.27,0-.55-.07-.82,5.54-3.72,12.49-10.41,15.21-15.73l.36-.7-.62-.48a5.94,5.94,0,0,0-2.78-1.27c-4.91-.76-9.64,5.4-12.75,11.08a133.73,133.73,0,0,1-.42-16.26,72.86,72.86,0,0,1,11.37-35.33c1.31.33,2.64.57,3.46.69,1.31.21,12.89,1.87,15.9-1.62a3,3,0,0,0,.7-2.6c-.2-1.13-1-2.57-3.68-3-3.3-.51-8.57.65-12.87,1.75a44.53,44.53,0,0,1,18.28-13.94,3.47,3.47,0,0,0,1.79-4.46,3.32,3.32,0,0,0-4.13-2.17,46.31,46.31,0,0,0-6.35,3.15c2.24-6.41,3.15-13-1.33-17l-.52-.47-.5.44c-3.91,3.42-3.45,8.4-3.12,12,0,.52.09,1,.12,1.39,0,.84-.18,2.08-.34,3.4-.2,1.54-.4,3.11-.46,4.53a58.58,58.58,0,0,0-10,10.63c.2-7.31-.77-15-6.33-19.75l-.57-.48-.49.52c-.39.41-1.57,1.66-.82,8.35A77.09,77.09,0,0,0,273.65,143a81,81,0,0,0-10.43,32.05c-1.64-5.43-4.11-10.44-8.5-13.3l-.62-.41-.43.6c-1.11,1.57-.92,4.71.57,9.35,1.92,5.91,5.66,13.17,8.67,16.48.17,5.55.62,11,1.1,16.4.46,5.13.89,10.17,1.06,15.13-2.62-4.87-6.44-8.87-12-9l-.72,0-.07.8c-.37,4.18,3.23,7.48,6.13,10.12.55.5,1.06,1,1.48,1.37a50.13,50.13,0,0,1,3,4c.64.91,1.3,1.82,2,2.68a58.49,58.49,0,0,1-3.79,17.82c-1.42,3.59-3.07,7.19-4.72,10.81-1.89,4.12-3.8,8.39-5.45,12.81-.27-8.14-1.89-16.37-8.7-19.66l-.87-.43-.23,1c-.91,4,.77,8.91,2.26,13.27.4,1.18.8,2.32,1.11,3.36.33,1.24.63,2.9.95,4.67a51.9,51.9,0,0,0,2.17,8.95c-.49,2.21-.94,4.41-1.38,6.58-.7,3.48-1.48,7.43-2.52,11.12a70.89,70.89,0,0,1-4.92,13c-.14-6-1.17-12.09-2.74-14.73l-.44-.75-.67.45c-5.55,3.67-3.62,15.41-1.9,24.09a59.23,59.23,0,0,1-18.32,15,3.2,3.2,0,0,0-1.12-.29c.05-2.4-.1-4.75-.26-7.06s-.25-4.55-.2-6.76c5.73-3.85,14-10,14.66-16.74l.06-.64-.54-.3a4.83,4.83,0,0,0-1.52-.49c-3.68-.57-7.79,3.19-11,7.65a82,82,0,0,1,3.46-10,102.08,102.08,0,0,0,7.66-40.41c4.76-6.39,9.93-14.09,8.46-22.54l-.15-.85-.77.09c-3,.37-5.94,5.7-7.44,8.85-.31.65-.63,1.36-.94,2.1-.64-5.6-1.53-11.07-2.44-16.44-.66-3.91-1.29-7.76-1.82-11.59,6-5.66,12.48-14.58,11.32-24.07l-.12-1-.88.21c-4.46,1-6.66,6.7-8.44,11.28-.29.76-.57,1.48-.83,2.12-.48,1.07-1.19,2.34-1.95,3.66a83.66,83.66,0,0,1,.37-19.07c.86-6.08,2.78-12.16,4.65-18.06.32-1,.64-2.08,1-3.12,6-2.86,16.25-9.54,18-12.67a2.07,2.07,0,0,0,.16-2.18,3.77,3.77,0,0,0-2.73-2c-3.49-.53-8.74,3.87-13,8.33a67.08,67.08,0,0,0,1.83-10.35c.72-8.11-.35-16.13-1.4-23.92-.49-3.65-1-7.39-1.28-11.1A50.14,50.14,0,0,0,233.9,114c.81-.73,1.49-1.36,2-1.74l.29-.23c3.95-3.07,7.35-5.73,8.15-11.72l.09-.67-.57-.3a6.64,6.64,0,0,0-2.09-.71c-5.61-.86-10.81,6.41-14.46,12.88.57-18.31,9.81-36.58,21.21-49.5l1.92.33c1.61.25,15.75,2.29,16.91-2.14a3,3,0,0,0-.25-2.33c-.56-.92-1.66-1.5-3.38-1.76-2.62-.41-6.47,0-10.08.57a71.47,71.47,0,0,1,6.06-5.13,3.66,3.66,0,0,0,.73-4.85,3.16,3.16,0,0,0-4.46-1A88.87,88.87,0,0,0,236.74,66c.47-5.44.08-11.16-1.13-13.69l-.38-.79-.7.36c-5.63,2.82-4.38,14.56-3.55,22.33,0,.35.07.66.1,1a85.85,85.85,0,0,0-9,25c-2.47-7.67-5.74-14.89-10.57-19.75l-.71-.71-.52.86c-3.17,5.31,1.17,12.57,4,17.37l.26.44c.64,1,1.37,2.41,2.16,3.87a74.26,74.26,0,0,0,4.19,7.17c-.1,1.77-.12,3.55-.08,5.34a156.86,156.86,0,0,0,1.62,16.42c1,7.17,1.82,14,1.4,20.78-3.95-11.4-9.49-18.24-16.58-20.2l-.94-.26,0,1.06c-.18,4.77,3.87,9.29,7.12,12.92.74.83,1.44,1.61,2,2.32a57.82,57.82,0,0,1,3.24,5.21,63.32,63.32,0,0,0,4.16,6.57,144.59,144.59,0,0,1-3.92,14.19,149.73,149.73,0,0,0-4.08,14.61,74.31,74.31,0,0,0-4.5-7.78c-.53-.79-7.57-6.22-10.55-6.68a1.53,1.53,0,0,0-2,1.38v.29c.76,3.69,3.94,6.47,6.74,8.94,1.09,1,2.14,1.89,3,2.83a36.36,36.36,0,0,1,4.1,5.51c.68,1,1.34,2,2,3-1,9.95-.18,19.44,1.19,28.65l-.19,1.63.41-.29c.41,2.71.85,5.4,1.3,8.07q.61,3.59,1.19,7.23c-5.57-7.84-12-15.27-19.4-18.44l-.9-.39-.18,1c-1.1,6.31,5.33,11.39,9.58,14.75l.37.29c.95.73,2.07,1.72,3.28,2.78,2.66,2.34,5.59,4.9,8.14,6.19.52,4,.91,8,1.05,12a95.08,95.08,0,0,1-3.1,27.64c-2.55-9.29-8.31-17.57-16.69-18.87l-1.06-.16.17,1.15c.55,3.84,3.42,7,6.2,10.12a45.28,45.28,0,0,1,3.09,3.66,39.37,39.37,0,0,1,3.86,6.7c.77,1.56,1.52,3.07,2.32,4.4q-.85,2.47-1.86,4.91a71.74,71.74,0,0,0-5.34,19,27.76,27.76,0,0,0-8.3-11.29l-.8-.6-.38.94c-2,4.91,1.49,11.07,4.05,15.56.36.64.7,1.23,1,1.77.77,1.53,1.56,3.54,2.39,5.67.71,1.84,1.44,3.7,2.2,5.38,0,.68-.05,1.34-.09,2-9.25-8.77-14.61-16.65-17.21-29.84-.72-3.64-1.58-7.57-2.78-11.57,4.12-7.2,8.46-16.58,4.55-24.59l-.39-.78-.71.38c-4,2.12-4.88,9.9-5,11.46a46.28,46.28,0,0,1-1.14,5.57,1.14,1.14,0,0,1-.06.25c-.63-1.5-1.3-3-2.08-4.44a87.66,87.66,0,0,0-5.78-9.13c-1.05-1.53-2.08-3-3-4.52a46.36,46.36,0,0,0,3.19-7.52,41.11,41.11,0,0,1,2.14-5.23c2-3.54,2.5-7,2.88-11.17l.09-.93-.85-.09a5.82,5.82,0,0,0-4.84,1.76c-3.44,3.35-4.88,10.9-5.43,18.2-.22-.44-.45-.86-.64-1.3-3.16-7.28-2.82-15.07-2.45-23.38.31-6.94.62-14.13-1.18-21.36a52.47,52.47,0,0,0-1.91-6c3.17-7.33,7-17,3.34-25l-.3-.67-.65.17c-1.3.35-2.41,1.53-3.3,3.52-1.64,3.68-2.33,9.58-2.4,14.7A97.68,97.68,0,0,0,146.74,186c.07-.33.14-.63.21-1,1.57-7.08,3.53-15.89.2-22.37l-.32-.61-.61.17c-1.64.43-2.84,1.9-3.57,4.34-1.21,4-1,10.16-.08,15.07-1.73-1.76-3.47-3.48-5.2-5.13a3,3,0,0,0-4.49.26,3.54,3.54,0,0,0-.73,2.52,3.73,3.73,0,0,0,1.14,2.43c3.5,3.36,7.06,7,10.45,10.78a19,19,0,0,0-1.88-.39c-3.74-.58-7,0-8.93,1.66l-.39.33.11.54c.58,3,4.78,4.28,8.2,4.81a30,30,0,0,0,8.66,0c4.89,6.52,8.86,13.63,10.77,21.29A52.55,52.55,0,0,1,161.43,235l-.13-.18c-.82-1.23-1.58-2.36-2.11-3.27l-.23-.39c-2.77-4.62-5.38-9-11-10l-.8-.15-.11.88c-.83,7.15,8.29,15.83,14.12,20.61-.3,8-.3,16.13,3.19,24.15a49,49,0,0,0,3.5,6.53,25.25,25.25,0,0,0-7.39-2.61,10.55,10.55,0,0,0-8.32,1.88l-.59.45.36.71c1.86,3.67,9.07,5.15,12.08,5.61a34.66,34.66,0,0,0,8.13.35,75.45,75.45,0,0,1,4.77,7.54,71.55,71.55,0,0,1,6.1,17.94c-3.51-3.65-7.57-6.51-11.08-7.05a7.09,7.09,0,0,0-2,0l-.86.1.18.93c1.29,6.84,10.21,13.63,16.94,18.67,3.24,9.59,8.36,16.5,15.87,23.79a33.47,33.47,0,0,1-9-.31,68,68,0,0,1-10.54-2.61c-.79-2.43-1.59-4.86-2.36-7.29-1.52-4.8-3.09-9.75-4.78-14.6l-.29-.85-.77.29c-2.77,1.06-4,3.94-3.52,8.09a32.7,32.7,0,0,0,4.21,11.46c-8.55-4-13.89-11.88-19.31-21.07a52.72,52.72,0,0,0,2.08-20l-.14-.74-.67-.1a4.08,4.08,0,0,0-4.21,1.88c-1.67,2.45-2,6.88-1.8,11.22-5.08-7.93-10.91-15.15-19.2-20.51-.17-5.78-1.35-18.27-8.65-19.39a7.28,7.28,0,0,0-1.48-.07l-.7,0,0,.76c-.25,4.06,2.56,10.73,5.54,15.62a32.89,32.89,0,0,0-8.6-2.69,22.24,22.24,0,0,0-7.19,0,19.52,19.52,0,0,0-7.34-3.31,6.38,6.38,0,0,0-6,1.95l-.41.45.27.58c1,2.22,4.22,3.14,6.34,3.52a19.22,19.22,0,0,0-5,5.79,3.84,3.84,0,0,0-.36,2.65,3.65,3.65,0,0,0,1.46,2.21,3,3,0,0,0,4.37-1,11.16,11.16,0,0,1,9.07-6.08,7,7,0,0,0-2.61,2.15,5.73,5.73,0,0,0-.84,4.38l.09.54.48.18a6,6,0,0,0,1,.24c3.75.57,8.79-2.69,11.37-5.83a32.86,32.86,0,0,1,3.75,1.77,44.35,44.35,0,0,1,10.49,8.13c-5.39-.71-12,.31-13.61,5.53l-.25.77.69.36a4.52,4.52,0,0,0,1.46.4c1.88.29,11.59.56,17.09-.63a138.61,138.61,0,0,1,7.87,12.25q1.43,2.42,2.89,4.75a19.58,19.58,0,0,0-3.52-.9c-3.93-.61-7,.35-8.78,2.71l-.4.55.41.57c1.49,2.08,3.94,3.36,7.48,3.9a48.25,48.25,0,0,0,8.88.24l.75,0c4.42,5.78,9.61,10.63,16.67,13.48a83.38,83.38,0,0,0,18,5.22,35.75,35.75,0,0,0,13.79-.22l.12,0a2.89,2.89,0,0,0,.72,0c.84-.08,1.64-.24,2.46-.39a3,3,0,0,0,.73,0A56.91,56.91,0,0,0,228.73,354a61.43,61.43,0,0,0,24.69-1.52,63.21,63.21,0,0,0,15.24,5.11c3.92.61,6.12,0,6.76-1.88a3.24,3.24,0,0,0-.19-2.63c-.89-1.59-3.31-2.67-7.4-3.3-1.47-.23-3.06-.38-4.64-.47a97.45,97.45,0,0,0,9.93-4.53,74.44,74.44,0,0,1,14.11-5.66c3.57,3.57,9.35,8.37,13,8.94a3.13,3.13,0,0,0,3.71-4c-.79-2.47-4.83-4.71-9-6.44a26.77,26.77,0,0,1,6.65.06,14.63,14.63,0,0,1,4.52,1.42c2.9,1.5,4.78,4.08,5.74,7.9a3.37,3.37,0,0,0,3.93,2.59,3.08,3.08,0,0,0,1.93-1.56,3.73,3.73,0,0,0,.28-2.65,19.64,19.64,0,0,0-5.42-9.7c4.21.08,8.42-.42,11.56-3.13l.52-.45-.31-.65A6.57,6.57,0,0,0,319.16,327.72Z"/>
  <path class="cls-2" d="M126.49,302.62c3.27-.7,7.61.72,10.21,2.41a18.58,18.58,0,0,1,2.77-.84c4.81-1,10.27-.24,14.9,1-2.69-2.23-5.21-4.84-5.91-8.42l-.1-.54.46-.25c1.81-1,3.85-.53,5.8,1.27a19.08,19.08,0,0,1,5.09,9.6c2.21.79,3.87,1.52,4.59,1.85a74.75,74.75,0,0,0,7.13,2.83,11.42,11.42,0,0,1-2.73-5.94l0-.51.43-.21a3.84,3.84,0,0,1,.72-.25c3.62-.77,7.89,5,10.7,9.24a41.13,41.13,0,0,0,13.88-.07c-.92-.45-1.81-.91-2.62-1.36s-4.18-5-3.81-7.21a1.51,1.51,0,0,1,1.2-1.28h.24c2.92.67,7.82,4.89,10.6,8.41a40.22,40.22,0,0,0,4-1.59,64.58,64.58,0,0,1-10.76-7.07c-3.84-2.91-7.45-5.66-11.4-7.24-2.45-1-5.05-1.81-7.65-2.59-3.83,2.91-8.05,5.7-12.23,6.59a12.64,12.64,0,0,1-3.06.3l-.57,0v-.62c0-3.88,4.61-6.64,9.45-8.13a91.93,91.93,0,0,1-12.61-4.49l-.53.13c-2.85.61-20.24,2.77-20.71-.89a2.6,2.6,0,0,1,.25-1.94,3.67,3.67,0,0,1,2.6-1.53c3-.64,7.91,0,12.19.76-.33-.21-.67-.41-1-.64-6.69-4.8-8.61-12.68-10.32-19.65-.05-.19-.09-.37-.13-.55-4.94.25-13.33-.81-15.9-3.41a2.64,2.64,0,0,1-.86-2.2,2,2,0,0,1,1.79-1.82c2.7-.58,8.41,1.27,13.92,3.39-2-7-4.68-11.75-13.84-11.9a2.21,2.21,0,0,1-1.68-.81,2.85,2.85,0,0,1,2-4.59,24,24,0,0,1,4.45.46c-2.48-4.07-4.79-9.15-5.37-12.86l-.1-.61.55-.2a4.12,4.12,0,0,1,4.45,1c3.11,2.85,4.49,9.78,4.92,14.16,6.89,3.43,8.73,10.95,10.52,18.31,1.25,5.1,2.56,10.32,5.71,14.14-1.37-6.65-2.23-15.69,3.15-19.41l.57-.39.3.63c1.21,2.53.75,6.22.35,9.46-.12.91-.23,1.77-.29,2.56s-.09,1.51-.13,2.41a43.56,43.56,0,0,1-.78,7.65c6,4.17,13.28,6.28,20.32,8.31l.22.06,3,.9c-2-3.9-4.22-9-3.6-11.68a2.48,2.48,0,0,1,1.37-1.81,2,2,0,0,1,2.36.52c2.22,2.21,3.47,9.62,3.9,14.23,1.65.54,3.3,1.09,4.89,1.73.15.06.29.15.44.21a56.79,56.79,0,0,1-5.23-11.84c-.61-1.91-1.11-3.85-1.6-5.77-4.07-1.3-9.91-4.24-11.36-6.94a2.62,2.62,0,0,1,.06-2.89,2.18,2.18,0,0,1,1.38-.95c2.06-.44,5.11,1.84,8.51,4.95a64.48,64.48,0,0,0-2.68-8.76c-1.39-3.49-3.12-6.89-4.82-10.25-1.17-2.33-2.37-4.75-3.49-7.21-1.14-.35-2.35-.81-3.54-1.28a31.5,31.5,0,0,0-4-1.37,46.58,46.58,0,0,1-10.67-2.66l-.65-.26.35-.69a5.68,5.68,0,0,1,4-3.22c3.61-.77,8.44,1.45,12.31,4-3.3-10.27-2.73-20.81-2.19-31.07l0-.63c-4.34-2.6-9.85-7.42-12.07-11.39l-.3-.51.46-.4a4.51,4.51,0,0,1,2.1-1.1c3.74-.8,7.53,3.71,10.07,7.93a106.36,106.36,0,0,0-.12-12.5A54.87,54.87,0,0,0,151,160.16c-1,.31-2,.55-2.63.68-1,.21-9.83,2-12.23-.54a2.26,2.26,0,0,1-.6-2c.12-.88.69-2,2.73-2.45,2.52-.54,6.58.12,9.91.77a33,33,0,0,0-14.38-9.88,2.73,2.73,0,0,1,1.61-5.19,33.45,33.45,0,0,1,4.95,2.14c-1.89-4.82-2.76-9.8.56-13.14l.38-.38.4.32c3.09,2.45,2.87,6.28,2.72,9.09,0,.4-.05.78-.05,1.07,0,.64.19,1.59.34,2.59.2,1.17.39,2.37.48,3.45a43.53,43.53,0,0,1,7.93,7.72c-.36-5.61.18-11.55,4.31-15.44l.42-.4.4.38c.3.3,1.24,1.2.85,6.38a60.24,60.24,0,0,1-2.76,13.55A61.06,61.06,0,0,1,165.22,183c1.1-4.24,2.86-8.19,6.15-10.58l.46-.34.35.44c.89,1.15.83,3.57-.19,7.2-1.31,4.61-4,10.35-6.19,13,0,4.26-.18,8.49-.4,12.62-.21,4-.41,7.84-.4,11.66,1.87-3.86,4.69-7.09,8.92-7.45l.56-.05.07.61c.4,3.19-2.27,5.88-4.43,8-.4.41-.78.79-1.09,1.12-.72.89-1.44,2-2.22,3.22-.47.73-.95,1.46-1.42,2.15a44.29,44.29,0,0,0,3.39,13.5c1.18,2.69,2.54,5.38,3.9,8.08,1.56,3.08,3.14,6.27,4.53,9.58,0-6.25,1-12.64,6.13-15.47L184,240l.2.74c.8,3-.35,6.87-1.37,10.28-.28.93-.55,1.82-.76,2.63-.22,1-.41,2.25-.61,3.63a40,40,0,0,1-1.42,7c.44,1.67.85,3.34,1.24,5,.63,2.64,1.33,5.63,2.23,8.42a53.7,53.7,0,0,0,4.12,9.72c0-4.64.57-9.33,1.7-11.42l.32-.6.52.31c4.36,2.57,3.19,11.67,2.11,18.4a43.88,43.88,0,0,0,14.45,10.7,2.35,2.35,0,0,1,.85-.27c-.1-1.84-.05-3.65,0-5.43s.07-3.5,0-5.19c-4.49-2.7-11-7.06-11.68-12.19l-.06-.49.4-.25a4,4,0,0,1,1.15-.45c2.81-.59,6.06,2.11,8.65,5.38a61.43,61.43,0,0,0-2.93-7.51,77.43,77.43,0,0,1-7-30.66c-3.82-4.69-8-10.37-7.09-16.91l.09-.66.6,0c2.28.15,4.7,4.1,5.93,6.45.26.49.52,1,.78,1.57.34-4.33.87-8.56,1.42-12.72.4-3,.78-6,1.09-9-4.77-4.08-10-10.63-9.33-18l.06-.77.68.12c3.45.56,5.29,4.84,6.78,8.27.24.58.47,1.12.69,1.59a30.22,30.22,0,0,0,1.59,2.72,64.42,64.42,0,0,0-.79-14.6,86.52,86.52,0,0,0-4.06-13.65l-.82-2.35C189,178,181,173.3,179.6,171a1.62,1.62,0,0,1-.19-1.67,3,3,0,0,1,2-1.62c2.66-.57,6.81,2.57,10.22,5.8a51.43,51.43,0,0,1-1.68-7.85c-.77-6.2-.17-12.39.42-18.42.28-2.82.55-5.71.69-8.57A36.83,36.83,0,0,1,186,134.9c-.63-.52-1.17-1-1.54-1.24l-.23-.17c-3.11-2.18-5.79-4.07-6.56-8.63l-.09-.51.43-.25a5.47,5.47,0,0,1,1.58-.64c4.27-.91,8.46,4.43,11.43,9.24-.93-14-8.51-27.62-17.59-37L172,96c-1.23.26-12,2.46-13-.88a2.28,2.28,0,0,1,.13-1.8,3.48,3.48,0,0,1,2.54-1.51,27.68,27.68,0,0,1,7.74,0,51.55,51.55,0,0,0-4.78-3.66,2.79,2.79,0,0,1-.69-3.69,2.46,2.46,0,0,1,3.39-1,66,66,0,0,1,15.25,14.7c-.5-4.16-.36-8.56.5-10.56l.26-.62.55.25c4.39,1.91,3.75,11,3.33,17,0,.27,0,.51-.05.77a64.43,64.43,0,0,1,7.58,18.74c1.68-6,4-11.67,7.57-15.61l.52-.59.42.64c2.57,3.93-.56,9.7-2.63,13.51l-.18.35c-.46.83-1,1.9-1.55,3.06a57.45,57.45,0,0,1-3,5.69c.13,1.35.19,2.71.21,4.09a120,120,0,0,1-.8,12.67,83.19,83.19,0,0,0-.51,16c2.72-8.92,6.78-14.41,12.16-16.23l.71-.25.06.81c.27,3.66-2.71,7.31-5.1,10.23-.55.67-1.07,1.31-1.5,1.88-.72,1.07-1.51,2.56-2.34,4.14a49,49,0,0,1-3,5.22,106.35,106.35,0,0,0,3.38,10.71,115.56,115.56,0,0,1,3.53,11,56.56,56.56,0,0,1,3.23-6.17c.38-.63,5.63-5.11,7.9-5.6a1.15,1.15,0,0,1,1.56,1v.22c-.48,2.86-2.84,5.14-4.92,7.15-.81.79-1.59,1.55-2.24,2.31a27.94,27.94,0,0,0-3,4.41c-.5.84-1,1.63-1.47,2.37a86.72,86.72,0,0,1-.13,22l.19,1.24-.32-.2c-.24,2.09-.51,4.18-.78,6.25-.25,1.84-.49,3.71-.71,5.59,4.05-6.26,8.79-12.25,14.36-15l.67-.33.17.77c1,4.79-3.77,9-6.94,11.74l-.28.24c-.7.6-1.53,1.41-2.43,2.28a36.12,36.12,0,0,1-6.07,5.11c-.29,3.06-.48,6.15-.48,9.27a72.4,72.4,0,0,0,3.12,21.06c1.71-7.24,5.89-13.85,12.28-15.22l.81-.17-.1.89c-.32,3-2.43,5.55-4.48,8a36.06,36.06,0,0,0-2.27,2.95,30.6,30.6,0,0,0-2.77,5.31c-.55,1.23-1.09,2.42-1.66,3.48.48,1.24,1,2.47,1.56,3.68a54.26,54.26,0,0,1,4.6,14.34,22.07,22.07,0,0,1,6.06-9l.59-.49.32.7c1.69,3.68-.84,8.56-2.68,12.12-.26.5-.51,1-.71,1.4-.55,1.21-1.1,2.79-1.68,4.46-.49,1.44-1,2.9-1.54,4.23,0,.52.07,1,.12,1.53,6.85-7.14,10.75-13.42,12.38-23.66.45-2.82,1-5.88,1.81-9-3.34-5.34-6.92-12.34-4.14-18.66l.27-.62.56.26c3.1,1.45,4,7.38,4.16,8.56a32,32,0,0,0,1,4.22,1.05,1.05,0,0,0,.05.19c.44-1.17.92-2.34,1.47-3.49a69.58,69.58,0,0,1,4.19-7.26c.76-1.22,1.5-2.41,2.2-3.6a36,36,0,0,1-2.65-5.64,30.43,30.43,0,0,0-1.78-3.91c-1.66-2.62-2.1-5.27-2.51-8.44l-.09-.71.65-.11a4.4,4.4,0,0,1,3.76,1.14c2.72,2.42,4,8.14,4.65,13.71.15-.34.32-.67.45-1,2.23-5.72,1.75-11.69,1.24-18-.42-5.31-.85-10.82.33-16.44a43,43,0,0,1,1.3-4.73c-2.63-5.48-5.84-12.69-3.23-19l.21-.53.5.1c1,.21,1.89,1.07,2.62,2.56,1.36,2.75,2,7.24,2.24,11.17a77.68,77.68,0,0,1,10.55-15.87c-.06-.24-.12-.48-.19-.74-1.39-5.36-3.13-12-.75-17.15l.22-.48.47.1c1.27.26,2.24,1.33,2.86,3.17,1,3,1,7.75.47,11.56q1.92-2.14,3.84-4.17a2.34,2.34,0,0,1,3.45,0,2.7,2.7,0,0,1,.63,1.9,3,3,0,0,1-.81,1.91c-2.59,2.74-5.22,5.67-7.71,8.74a13,13,0,0,1,1.43-.38c2.85-.61,5.35-.29,6.88.87l.31.24-.07.42c-.36,2.34-3.55,3.5-6.15,4.05a22.78,22.78,0,0,1-6.64.42,47.51,47.51,0,0,0-7.67,16.81,40.15,40.15,0,0,0-.49,11c0-.05,0-.1.08-.14.6-1,1.15-1.88,1.54-2.61l.16-.3c2-3.67,3.88-7.13,8.19-8.14l.61-.14.11.67c.82,5.44-5.93,12.51-10.27,16.43.45,6.1.67,12.37-1.78,18.67A39.11,39.11,0,0,1,241,254a20.2,20.2,0,0,1,5.59-2.33,8.06,8.06,0,0,1,6.43,1.07l.46.33-.25.55c-1.33,2.91-6.82,4.36-9.11,4.85a26.57,26.57,0,0,1-6.22.62,61.5,61.5,0,0,0-3.45,6,55.48,55.48,0,0,0-4.18,14c2.58-3,5.62-5.33,8.29-5.91a5.76,5.76,0,0,1,1.58-.12l.66,0-.12.72c-.8,5.31-7.45,10.92-12.47,15.08-2.22,7.5-6,13-11.52,19a26.08,26.08,0,0,0,6.91-.64,53.5,53.5,0,0,0,8-2.47q.81-2.85,1.61-5.7c1-3.75,2.11-7.62,3.27-11.41l.2-.67.59.19c2.15.68,3.19,2.84,2.92,6a25.88,25.88,0,0,1-2.91,9c6.43-3.46,10.31-9.74,14.22-17A40.41,40.41,0,0,1,249.33,270l.09-.57.51-.11a3,3,0,0,1,3.27,1.26c1.35,1.8,1.73,5.18,1.69,8.52,3.68-6.31,7.95-12.11,14.16-16.59,0-4.43.54-14.07,6.1-15.26a5.22,5.22,0,0,1,1.13-.11h.53l.06.58c.3,3.11-1.67,8.35-3.82,12.23a25.35,25.35,0,0,1,6.51-2.44,16.9,16.9,0,0,1,5.51-.31,15.33,15.33,0,0,1,5.54-2.87,4.81,4.81,0,0,1,4.64,1.24l.33.31-.2.47c-.71,1.74-3.15,2.59-4.76,3a14.06,14.06,0,0,1,3.95,4.22,3,3,0,0,1-.7,3.78,2.28,2.28,0,0,1-3.38-.58,8.36,8.36,0,0,0-7.12-4.26,5.18,5.18,0,0,1,2.06,1.54,4.3,4.3,0,0,1,.77,3.32l-.06.42-.36.16a4.29,4.29,0,0,1-.72.22c-2.86.61-6.81-1.67-8.87-4a25.43,25.43,0,0,0-2.83,1.53,35.34,35.34,0,0,0-7.82,6.69c4.12-.77,9.2-.29,10.59,3.65l.2.57-.51.31a3.82,3.82,0,0,1-1.11.37,53.91,53.91,0,0,1-13.11.28c-2,3-3.86,6.3-5.7,9.75-.69,1.27-1.38,2.53-2.08,3.77a15.56,15.56,0,0,1,2.67-.85c3-.64,5.41,0,6.8,1.69l.32.4-.3.46c-1.09,1.66-2.93,2.75-5.62,3.33a37.86,37.86,0,0,1-6.8.58h-.58c-3.22,4.63-7.07,8.58-12.4,11.08a64.91,64.91,0,0,1-13.65,4.8,27.21,27.21,0,0,1-10.57.45l-.09,0a2.65,2.65,0,0,1-.56.05,17.05,17.05,0,0,1-1.89-.2,2.15,2.15,0,0,1-.56,0,44.72,44.72,0,0,1-14.11,5.78,46.89,46.89,0,0,1-18.95-.07A49.76,49.76,0,0,1,166,323.29c-3,.63-4.69.26-5.23-1.15a2.41,2.41,0,0,1,.08-2c.63-1.26,2.46-2.2,5.57-2.87,1.13-.24,2.34-.42,3.55-.57a71.27,71.27,0,0,1-7.73-3,56.26,56.26,0,0,0-11-3.71c-2.63,2.9-6.94,6.84-9.74,7.44a2.32,2.32,0,0,1-2.45-.67,2.35,2.35,0,0,1-.5-2.24c.53-1.92,3.56-3.83,6.7-5.34a20,20,0,0,0-5.09.35,11.7,11.7,0,0,0-3.43,1.28,9,9,0,0,0-4.18,6.32,2.67,2.67,0,0,1-2.94,2.17,2.31,2.31,0,0,1-1.52-1.11,2.84,2.84,0,0,1-.29-2,15.52,15.52,0,0,1,3.89-7.68c-3.23.25-6.46.05-8.94-1.89l-.41-.31.22-.52A5.18,5.18,0,0,1,126.49,302.62Z"/>
  <g>
    <path class="cls-3" d="M226.38,311.91c-33.27-18.47-77.9-22.73-114.5-12.62a126.66,126.66,0,0,0-19.12,6.89C47.51,327,48.93,366.12,113.1,382.08c28.11,6.95,104.4,7.08,129.45-5.34C273.49,361.39,253.25,326.82,226.38,311.91Z"/>
    <path class="cls-4" d="M226.38,311.91c-33.27-18.47-77.9-22.73-114.5-12.62a126.66,126.66,0,0,0-19.12,6.89c-22.61,10.42-33.57,25.4-30.86,39.76a123.76,123.76,0,0,0,27,9.81c28.11,6.95,104.4,7.09,129.46-5.35,16.89-8.37,18.5-22.48,12.13-36C229.15,313.53,227.78,312.69,226.38,311.91Z"/>
  </g>
</svg>
