<svg id="Layer_1" data-name="Layer 1" xmlns="http://www.w3.org/2000/svg" viewBox="0 0 256 128"><defs><style>.cls-1{fill:#fc2b94;stroke:#fcd6ed;stroke-miterlimit:10;stroke-width:3px;}.cls-2{fill:#f4f4d9;}</style></defs><rect class="cls-1" x="28" y="34" width="200" height="60" rx="12"/><path class="cls-2" d="M100.93,75.31a3.9,3.9,0,0,1-1.33,1.88,4,4,0,0,1-2.27.56,3.71,3.71,0,0,1-2.3-.61,4.23,4.23,0,0,1-1.3-2l-4.25-13L85,75.36a3.23,3.23,0,0,1-1.28,1.83,4.37,4.37,0,0,1-2.37.56,7,7,0,0,1-1-.07,2.88,2.88,0,0,1-1-.32,2.56,2.56,0,0,1-.85-.78,5.14,5.14,0,0,1-.7-1.41l-7-19.42h6.75l2.9,8.88c.1.32.2.7.32,1.14s.24.87.38,1.3.28,1,.45,1.56a7.47,7.47,0,0,1,.3-1.22c.1-.36.2-.74.32-1.15s.23-.79.33-1.14l2.8-9.37h8.1l3,9.8a7.06,7.06,0,0,0,.27,1c.12.34.23.67.33,1a6.57,6.57,0,0,1,.3,1.12c.1-.33.2-.67.3-1,.16-.65.35-1.26.55-1.85l3-10h7Z"/><path class="cls-2" d="M125.67,77.75c0-.23,0-.52,0-.85s-.06-.58-.08-1,0-.75-.08-1.15a8,8,0,0,1-3.25,2.58,10.61,10.61,0,0,1-4.26.87,7.91,7.91,0,0,1-6.39-2.7q-2.28-2.7-2.28-7.7,0-6,3.67-9.33t10.47-3.27c.74,0,1.42,0,2,0s1.21.09,1.82.18,1.23.19,1.88.32,1.35.32,2.13.55v14.2c0,.77,0,1.58.05,2.43s.08,1.62.15,2.32.13,1.65.2,2.45Zm-1-16.3a10.44,10.44,0,0,0-1.58-.25c-.48,0-.92-.05-1.32-.05a5.35,5.35,0,0,0-4.28,1.77,7.33,7.33,0,0,0-1.52,4.93,4.88,4.88,0,0,0,.91,3.2,3.21,3.21,0,0,0,2.6,1.1,4.62,4.62,0,0,0,2-.45,5,5,0,0,0,1.65-1.28,6.06,6.06,0,0,0,1.12-1.94,7.46,7.46,0,0,0,.41-2.53Z"/><path class="cls-2" d="M137.28,77.75V60.5h-4.41V55.75h4.41V50.2h6.55v5.55h5.65V60.5h-5.65V77.75Z"/><path class="cls-2" d="M168.58,61.8a5.69,5.69,0,0,1-.89,3.1,7.44,7.44,0,0,1-2.51,2.37,13.92,13.92,0,0,1-3.9,1.53,21.46,21.46,0,0,1-5.09.55l-.61,0q-.33,0-.81,0a4.62,4.62,0,0,0,1.5,3,4.77,4.77,0,0,0,3.24,1.08,14.78,14.78,0,0,0,7.36-2.25v5.25a14.25,14.25,0,0,1-3.62,1.57,15,15,0,0,1-3.92.48,13,13,0,0,1-4.53-.75,9.4,9.4,0,0,1-3.43-2.17,9.9,9.9,0,0,1-2.15-3.4,12.56,12.56,0,0,1-.75-4.48,13.92,13.92,0,0,1,.88-5,11.62,11.62,0,0,1,2.45-3.93,10.79,10.79,0,0,1,3.78-2.55,12.64,12.64,0,0,1,4.84-.9,9.14,9.14,0,0,1,5.93,1.8A5.87,5.87,0,0,1,168.58,61.8Zm-6.66.5a1.75,1.75,0,0,0-.68-1.38,2.61,2.61,0,0,0-1.73-.57,4,4,0,0,0-2.85,1.17,5.65,5.65,0,0,0-1.54,3.23,4,4,0,0,0,.8.1h.74Q161.92,64.85,161.92,62.3Z"/><path class="cls-2" d="M186.57,61.9c-.46-.1-.83-.17-1.1-.2a7.85,7.85,0,0,0-.9-.05,5.07,5.07,0,0,0-4.32,2,9.58,9.58,0,0,0-1.48,5.81v8.34h-6.65V63.31c0-.82,0-1.53,0-2.13S172,60,172,59.49A13.41,13.41,0,0,0,171.7,58q-.18-.77-.48-1.74h6.32c.1.41.19.76.28,1a4.7,4.7,0,0,1,.18.82c0,.26.07.53.1.83a7.83,7.83,0,0,1,.06,1.05A11.06,11.06,0,0,1,181,56.7a5.46,5.46,0,0,1,3.17-1,4.42,4.42,0,0,1,1.18.13,9.73,9.73,0,0,1,1.32.49Z"/></svg>