<svg id="Layer_1" data-name="Layer 1" xmlns="http://www.w3.org/2000/svg" viewBox="0 0 360 128"><defs><style>.cls-1{fill:#fc2b94;stroke:#fcd6ed;stroke-miterlimit:10;stroke-width:3px;}.cls-2{fill:#f4f4d9;}</style></defs><rect class="cls-1" x="15" y="34" width="330" height="60" rx="12"/><path class="cls-2" d="M27.5,77.75V42.9h6.65V77.75Z"/><path class="cls-2" d="M54.8,77.75c0-.23,0-.52,0-.85s-.06-.58-.08-1-.05-.75-.08-1.15a8,8,0,0,1-3.26,2.58,10.54,10.54,0,0,1-4.26.87,7.91,7.91,0,0,1-6.39-2.7q-2.28-2.7-2.28-7.7,0-6,3.68-9.33t10.47-3.27c.74,0,1.41,0,2,0s1.22.09,1.83.18,1.23.19,1.87.32,1.35.32,2.13.55v14.2c0,.77,0,1.58.05,2.43s.09,1.62.15,2.32.14,1.65.2,2.45Zm-1-16.3a10.06,10.06,0,0,0-1.58-.25c-.47,0-.91-.05-1.32-.05a5.34,5.34,0,0,0-4.27,1.77,7.33,7.33,0,0,0-1.53,4.93,4.88,4.88,0,0,0,.92,3.2,3.19,3.19,0,0,0,2.59,1.1,4.58,4.58,0,0,0,2-.45,5,5,0,0,0,1.66-1.28,6.25,6.25,0,0,0,1.12-1.94,7.46,7.46,0,0,0,.4-2.53Z"/><path class="cls-2" d="M79.45,77.75V65.27a5.21,5.21,0,0,0-.32-2,2.9,2.9,0,0,0-.78-1.08,2,2,0,0,0-.95-.44,5.68,5.68,0,0,0-.85-.07,4.85,4.85,0,0,0-1,.19,3.61,3.61,0,0,0-1.52.92,6.18,6.18,0,0,0-1.38,2.12,9.68,9.68,0,0,0-.6,3.76v9.11H65.35V63.21a25,25,0,0,0-.3-3.8,12.59,12.59,0,0,0-.8-3.06H70.9a11.39,11.39,0,0,1,.43,1.15c.08.3.17.73.27,1.3A10.51,10.51,0,0,1,75,56.5a9.88,9.88,0,0,1,3.72-.75,7.42,7.42,0,0,1,2.92.58A7.1,7.1,0,0,1,84,58a7.67,7.67,0,0,1,1.54,2.58A10.09,10.09,0,0,1,86.1,64V77.75Z"/><path class="cls-2" d="M107.91,77.75c0-.2-.07-.43-.11-.7s-.07-.5-.1-.8-.07-.67-.11-1.1a9.14,9.14,0,0,1-3.3,2.48,10.35,10.35,0,0,1-4,.72,10,10,0,0,1-4-.77,8.73,8.73,0,0,1-3-2.16,9.67,9.67,0,0,1-2-3.32,12.72,12.72,0,0,1-.7-4.35,14.86,14.86,0,0,1,.83-5,12,12,0,0,1,2.3-4,10.06,10.06,0,0,1,3.52-2.6,10.79,10.79,0,0,1,4.5-.93,15.52,15.52,0,0,1,2.2.15,13.05,13.05,0,0,1,2.45.65V42.9h6.65V70.15c0,.57,0,1.28.08,2.15s.1,1.7.17,2.5.15,1.92.25,3Zm-1.46-16a7.16,7.16,0,0,0-1.84-.5,14.92,14.92,0,0,0-1.8-.1,5,5,0,0,0-4,1.73,7,7,0,0,0-1.48,4.72,5.17,5.17,0,0,0,1,3.43,3.57,3.57,0,0,0,2.86,1.22,6,6,0,0,0,2-.35,3.77,3.77,0,0,0,1.67-1.2A6.56,6.56,0,0,0,106,68.42a12.21,12.21,0,0,0,.41-3.42Z"/><path class="cls-2" d="M146.45,77.75c0-.23,0-.52,0-.85a7.87,7.87,0,0,1-.08-1c0-.37,0-.75-.08-1.15A8,8,0,0,1,143,77.38a10.61,10.61,0,0,1-4.26.87,7.91,7.91,0,0,1-6.39-2.7q-2.28-2.7-2.28-7.7,0-6,3.68-9.33t10.46-3.27c.75,0,1.42,0,2,0s1.22.09,1.83.18,1.23.19,1.87.32,1.35.32,2.13.55v14.2c0,.77,0,1.58,0,2.43s.08,1.62.15,2.32.13,1.65.2,2.45Zm-1-16.3a10.25,10.25,0,0,0-1.58-.25c-.47,0-.91-.05-1.32-.05a5.32,5.32,0,0,0-4.27,1.77,7.33,7.33,0,0,0-1.53,4.93,4.83,4.83,0,0,0,.92,3.2,3.19,3.19,0,0,0,2.59,1.1,4.62,4.62,0,0,0,2-.45,4.85,4.85,0,0,0,1.65-1.28A5.88,5.88,0,0,0,145,68.48,7.46,7.46,0,0,0,145.4,66Z"/><path class="cls-2" d="M171.1,77.75V65.27a5.21,5.21,0,0,0-.32-2,2.9,2.9,0,0,0-.78-1.08,2,2,0,0,0-.95-.44,5.78,5.78,0,0,0-.85-.07,4.85,4.85,0,0,0-1,.19,3.7,3.7,0,0,0-1.53.92,6.32,6.32,0,0,0-1.37,2.12,9.68,9.68,0,0,0-.6,3.76v9.11H157V63.21a25,25,0,0,0-.3-3.8,12.59,12.59,0,0,0-.8-3.06h6.65A11.39,11.39,0,0,1,163,57.5c.08.3.17.73.27,1.3a10.4,10.4,0,0,1,3.43-2.3,9.88,9.88,0,0,1,3.72-.75,7.42,7.42,0,0,1,2.92.58A7.06,7.06,0,0,1,175.64,58a7.53,7.53,0,0,1,1.55,2.58,10.09,10.09,0,0,1,.56,3.44V77.75Z"/><path class="cls-2" d="M199.55,77.75c0-.2-.07-.43-.1-.7s-.07-.5-.11-.8-.06-.67-.1-1.1a9.17,9.17,0,0,1-3.31,2.48,10.35,10.35,0,0,1-4,.72,10,10,0,0,1-4-.77,8.73,8.73,0,0,1-3-2.16,9.67,9.67,0,0,1-2-3.32,12.72,12.72,0,0,1-.7-4.35,14.86,14.86,0,0,1,.82-5,12.15,12.15,0,0,1,2.3-4,10.19,10.19,0,0,1,3.53-2.6,10.79,10.79,0,0,1,4.5-.93,15.52,15.52,0,0,1,2.2.15,13.05,13.05,0,0,1,2.45.65V42.9h6.65V70.15c0,.57,0,1.28.07,2.15s.11,1.7.18,2.5.15,1.92.25,3Zm-1.45-16a7.12,7.12,0,0,0-1.85-.5,14.75,14.75,0,0,0-1.79-.1,5,5,0,0,0-4,1.73A7,7,0,0,0,189,67.55,5.11,5.11,0,0,0,190,71a3.56,3.56,0,0,0,2.86,1.22,6,6,0,0,0,2.05-.35,3.82,3.82,0,0,0,1.67-1.2,6.38,6.38,0,0,0,1.11-2.23A11.81,11.81,0,0,0,198.1,65Z"/><path class="cls-2" d="M250.55,75.31a3.9,3.9,0,0,1-1.33,1.88,4,4,0,0,1-2.27.56,3.71,3.71,0,0,1-2.3-.61,4.3,4.3,0,0,1-1.3-2l-4.25-13-4.45,13.22a3.18,3.18,0,0,1-1.28,1.83,4.37,4.37,0,0,1-2.37.56,7,7,0,0,1-1.05-.07,3,3,0,0,1-.95-.32,2.66,2.66,0,0,1-.85-.78,5.14,5.14,0,0,1-.7-1.41l-7-19.42h6.75l2.9,8.88c.1.32.21.7.32,1.14s.25.87.38,1.3.28,1,.45,1.56a8.66,8.66,0,0,1,.3-1.22c.1-.36.21-.74.32-1.15s.23-.79.33-1.14l2.8-9.37h8.1l3,9.8q.1.45.27,1c.12.34.23.67.33,1a6.57,6.57,0,0,1,.3,1.12c.1-.33.2-.67.3-1,.16-.65.35-1.26.55-1.85l3-10h7Z"/><path class="cls-2" d="M275.29,77.75a7,7,0,0,0-.05-.85c0-.27-.06-.58-.08-1s0-.75-.07-1.15a8.05,8.05,0,0,1-3.26,2.58,10.61,10.61,0,0,1-4.26.87,7.91,7.91,0,0,1-6.39-2.7q-2.28-2.7-2.28-7.7,0-6,3.67-9.33T273,55.25c.74,0,1.42,0,2,0s1.22.09,1.82.18,1.24.19,1.88.32,1.35.32,2.13.55v14.2c0,.77,0,1.58.05,2.43s.08,1.62.15,2.32.13,1.65.2,2.45Zm-1-16.3a10.25,10.25,0,0,0-1.58-.25c-.47,0-.92-.05-1.32-.05a5.36,5.36,0,0,0-4.28,1.77,7.38,7.38,0,0,0-1.52,4.93,4.88,4.88,0,0,0,.91,3.2,3.21,3.21,0,0,0,2.6,1.1,4.62,4.62,0,0,0,2-.45,4.85,4.85,0,0,0,1.65-1.28,5.88,5.88,0,0,0,1.12-1.94,7.46,7.46,0,0,0,.41-2.53Z"/><path class="cls-2" d="M286.9,77.75V60.5h-4.4V55.75h4.4V50.2h6.55v5.55h5.65V60.5h-5.65V77.75Z"/><path class="cls-2" d="M318.2,61.8a5.69,5.69,0,0,1-.89,3.1,7.35,7.35,0,0,1-2.51,2.37,14,14,0,0,1-3.89,1.53,21.61,21.61,0,0,1-5.1.55l-.6,0q-.34,0-.81,0a4.53,4.53,0,0,0,1.5,3,4.72,4.72,0,0,0,3.23,1.08,14.82,14.82,0,0,0,7.37-2.25v5.25a14.31,14.31,0,0,1-3.63,1.57,15,15,0,0,1-3.92.48,13,13,0,0,1-4.53-.75A9.27,9.27,0,0,1,301,75.48a9.75,9.75,0,0,1-2.15-3.4,12.56,12.56,0,0,1-.75-4.48,13.92,13.92,0,0,1,.87-5,11.78,11.78,0,0,1,2.45-3.93,10.79,10.79,0,0,1,3.78-2.55,12.66,12.66,0,0,1,4.85-.9A9.13,9.13,0,0,1,316,57,5.85,5.85,0,0,1,318.2,61.8Zm-6.65.5a1.76,1.76,0,0,0-.69-1.38,2.61,2.61,0,0,0-1.73-.57,4,4,0,0,0-2.85,1.17,5.64,5.64,0,0,0-1.53,3.23,3.92,3.92,0,0,0,.79.1h.74Q311.55,64.85,311.55,62.3Z"/><path class="cls-2" d="M336.2,61.9c-.47-.1-.84-.17-1.1-.2a8.12,8.12,0,0,0-.9-.05,5.1,5.1,0,0,0-4.33,2,9.59,9.59,0,0,0-1.47,5.81v8.34h-6.65V63.31q0-1.23,0-2.13c0-.6-.06-1.17-.12-1.69s-.16-1-.28-1.54-.27-1.09-.47-1.74h6.31c.1.41.2.76.28,1a4.7,4.7,0,0,1,.18.82c0,.26.07.53.11.83a10.26,10.26,0,0,1,0,1.05,11.35,11.35,0,0,1,2.84-3.26,5.5,5.5,0,0,1,3.18-1,4.34,4.34,0,0,1,1.17.13,10.28,10.28,0,0,1,1.33.49Z"/></svg>