<svg id="Layer_1" data-name="Layer 1" xmlns="http://www.w3.org/2000/svg" xmlns:xlink="http://www.w3.org/1999/xlink" width="2160" height="720" viewBox="0 0 2160 720">
  <defs>
    <style>
      .cls-1 {
        fill: none;
      }

      .cls-2 {
        clip-path: url(#clip-path);
      }

      .cls-3 {
        fill: #46dcff;
      }

      .cls-4 {
        fill: #79b1f2;
      }

      .cls-26, .cls-27, .cls-4 {
        opacity: 0.43;
      }

      .cls-5, .cls-8 {
        fill: #1b8e8b;
      }

      .cls-5 {
        opacity: 0.51;
      }

      .cls-6 {
        fill: #0d726d;
      }

      .cls-7 {
        fill: #09326b;
      }

      .cls-9 {
        fill: #17afa7;
        stroke: #107a75;
      }

      .cls-11, .cls-9 {
        stroke-miterlimit: 10;
      }

      .cls-10 {
        fill: #4faaa5;
      }

      .cls-11 {
        fill: #32ce95;
        stroke: #0c685d;
      }

      .cls-12 {
        fill: #3cbf7a;
      }

      .cls-13 {
        fill: #92cc36;
        opacity: 0.45;
      }

      .cls-14 {
        fill: #659e7b;
      }

      .cls-15 {
        fill: #61847d;
      }

      .cls-16 {
        fill: #5ba389;
      }

      .cls-17 {
        fill: #41685f;
      }

      .cls-18 {
        fill: #41877a;
      }

      .cls-19 {
        fill: #22493f;
      }

      .cls-20 {
        fill: #256350;
      }

      .cls-21 {
        fill: #db4646;
        opacity: 0.39;
      }

      .cls-22 {
        fill: #423628;
      }

      .cls-23 {
        fill: #564837;
      }

      .cls-24 {
        fill: #84766d;
      }

      .cls-25 {
        fill: #93908c;
      }

      .cls-26 {
        fill: #88f1ff;
      }

      .cls-28 {
        fill: #045d6b;
      }

      .cls-29 {
        fill: #163a30;
      }
    </style>
    <clipPath id="clip-path">
      <rect class="cls-1" width="2160" height="720"/>
    </clipPath>
  </defs>
  <g class="cls-2">
    <rect class="cls-3" x="-105.18" y="-66.72" width="2297.48" height="625.32"/>
    <path class="cls-4" d="M-55.6,420.5c-4.87-.61-9.77-1.29-14.79-2.06-25.77-4-65-9.36-106.47-9.35-39.2,0-67.79,4.66-112.09,4.58-25-.05-58.11-2.38-76.45.06-15,2-7.42,5.86-21.29,7.81-43.12,6.08-97.85,1.18-141.56,7.73-4.78.71-15.63,2-28.79,3.47v25.85c23.47-1.41,46.38-3.71,70.23-3.73,34.95,0,71.05,3.77,106.59,3.23,22.43-.35,36.45-2.4,53.66-3.67,19.41-1.45,38.24-2.43,63.78-2.33,35.64.14,72.26,2.75,108.19,4.06,30.28,1.11,72.84,2.57,90.8.24,19.39-2.54-11.36-6.65-11.39-9.68,0-2.43,15.18-4.75,28.7-6,32.61-3,83.51-2.65,123.21-4C184.79,433.15-22.36,424.65-55.6,420.5Z"/>
    <path class="cls-4" d="M423.54,427.9c43.57,3,84.91,12.06,128.93,7,40.35-4.67,78.83-20.59,119.62-22,32.82-1.13,65.23,7.48,97.24,16.48,28.38,8,56.84,22.27,85.28,28,19,3.84,39.68-1.87,56.82,9.27a38.57,38.57,0,0,1,0,12c-11.11,7.83-25.47,1.81-37.41,3.52s-23,3-35.61,2.15C782,480.42,731.1,454.85,674,470.94c-36.87,10.4-69.72,31.61-108.06,33.12-20.09.79-40.08-3.29-59.75-7.22-23.26-4.65-42.06-20.43-64.66-24.78-29.92-5.75-60.54-6.66-90.47-.48-12.73,2.62-25.41,7.72-38,11.29C296.75,487.5,264.5,497.42,250,482c13.46-19.23,39.31-23.23,57.46-26.19,9-1.47,18.23-.86,26.76-4.62,12.09-5.32,21-15.37,34.25-17.3C387.11,431.16,404.58,426.58,423.54,427.9Z"/>
    <path class="cls-5" d="M-306.06,374.93c6.42,4,12.92,7.72,19.59,11,31.52,15.56,70.64,19,104.43,20.85,3.35.19,6.71.31,10.1.35,37.09.44,75.2.76,112.22-1.73,41.25-2.78,76.09-17.12,120.59-17.19,60.05-.11,115.18,10.64,175.09,5.16,52.14-4.78,103.33,18.44,155.28,20.44,56.25,2.16,111.06-4.59,166.6-15C606.7,389.59,656,377.4,705,371c49.19-6.43,95.27-.77,142-26,14.5-7.81,31.39-10.82,48.45-9.76,1.88,17.78-15.44,31.88-16.15,49.36-.38,9.32,1.19,19.33.06,28.55-8.38,68.07-4.42,392.74-4.42,407.09H-466.42s-.15-374.79-.1-412.7c0-20.82-11.93-93.75-.61-104.17,6.67-6.13,41.75,14.27,47.57,20.59,14.29,2.29,28.65,7.61,42.82,11.91C-351.29,343.64-329.18,360.64-306.06,374.93Z"/>
    <path class="cls-6" d="M-80.46,464.69C-55,469-29.66,474.87-4.87,481.1c22,5.53,42.24,12.32,63.54,19.23,22.71,7.38,51,6.15,74.72,6.16,24.43,0,49.91,1.69,73.94-1.5,22.2-2.95,44.11-7.38,66.3-10.7,66.74-10,129.54-23.68,197.64-22,67.89,1.63,135,17.15,203.08,13.78,44-2.19,87.32-93.44,130.46-88.86L791.87,663H-328.82V465.57c0-1.91,77.09-8.8,82.3-9.05,33.93-1.64,67.9.26,101.82,1.37A480.77,480.77,0,0,1-80.46,464.69Z"/>
    <path class="cls-5" d="M1316.94,399.86c6.42,3.74,12.92,7.29,19.59,10.4C1368.05,425,1407.17,428.2,1441,430c3.35.18,6.71.29,10.1.33,37.09.41,75.2.72,112.22-1.63,41.25-2.63,76.09-16.16,120.59-16.23,60.05-.1,115.18,10,175.09,4.87,52.14-4.51,103.33,17.41,155.28,19.29,56.25,2,111.06-4.33,166.6-14.2,48.86-8.68,98.13-20.19,147.12-26.23,49.19-6.07,95.27-.72,142-24.5,14.5-7.38,31.39-10.21,48.45-9.22,1.88,16.78-15.44,30.09-16.15,46.6-.38,8.8,1.19,18.25.06,27-8.38,64.26-4.42,370.76-4.42,384.3H1156.58s-.15-353.81-.1-389.6c0-19.65-11.93-88.5-.61-98.33,6.67-5.79,41.75,13.47,47.57,19.43,14.29,2.17,28.65,7.18,42.82,11.25C1271.71,370.33,1293.82,386.37,1316.94,399.86Z"/>
    <path class="cls-6" d="M1550.54,490.69c25.5,4.31,50.8,10.18,75.59,16.41,22,5.53,42.24,12.32,63.54,19.23,22.71,7.38,50.95,6.15,74.72,6.16,24.43,0,49.91,1.69,73.94-1.5,22.2-3,44.11-7.38,66.3-10.7,66.74-10,129.54-23.68,197.64-22,67.89,1.63,135,17.15,203.08,13.78,44.05-2.19,87.32-93.44,130.46-88.86L2422.87,689H1302.18V491.57c0-1.91,77.09-8.8,82.3-9.05,33.93-1.64,67.9.26,101.82,1.37A480.77,480.77,0,0,1,1550.54,490.69Z"/>
    <path class="cls-7" d="M2117.94,462.46a5.27,5.27,0,0,0-2.89.76c-.47.25-.91.53-1.27.77a7.46,7.46,0,0,1-1.08-2.74c-.34-1.3-.74-2.6-1.15-3.9-.7-2.24-.36-12.75-1.41-12.56-1.67.29-1.72,2.45-2,3.7-.68,2.77.39,6.89,1.23,9.56.28.91.57,1.85.84,2.78.43,1.55.12,1.67-.89.48a34.65,34.65,0,0,1-4.38-6.92c-.84-1.56-2.54-2.91-3.26-.76s3.11,5.71,4.38,7a15,15,0,0,1,3,3.55c1.2,2.27-.59,5.61-1.83,7-.76.85-1.5,1.7-2.23,2.55l-.18.21a19.73,19.73,0,0,0-.12-6.21,33.68,33.68,0,0,0-2.55-7.12c-1-2.29-2.3-14.61-5.76-11.87-2.75,2.18,2.27,10.88,3.22,13,1.85,4.14,3.59,8,2,13l-.24.78a13.2,13.2,0,0,1-1.63,3.77,1,1,0,0,0-.1.17,12.82,12.82,0,0,1-1.43,1.44c-.46.4-.93.8-1.41,1.18a29,29,0,0,1-4.31,2.89c-2.53,1.35-4.38,1.38-3.89.72s3.05-3.14,5.36-5.87c3.09-3.66,5.39-8,4.39-13.38-.8-4.32-3-7.21-5.2-10-2.67-3.43-3.41-6-4.38-9.94-.37-1.53-.75-7.46-3.17-2.43-1.82,3.77,3.71,11.2,5.72,13.79s4.06,5.22,4.76,9a11.56,11.56,0,0,1-1.3,7.73c-1.68,3.16-3.77,2.49-5-.48a30.57,30.57,0,0,0-2.78-5.07c-2.2-3.49-4.11-6.5-2.95-11.27a25.06,25.06,0,0,0-1.19-15.37c-.94-2.38-1.83-5-1.5-5.94a8.08,8.08,0,0,1,.79-1.65c.75-1.19,2.41-2.07,2.57-3.59.18-1.84-1.06-2.67-2.66-1.65s-1,5.48-2.54,6c-1.09.35-1.57-2-1.86-2.69-.6-1.47-1.48-3.22-3.19-3.67-6-1.58,1.87,7.78,3.06,9.42.39.56,3.05,5.83,2.73,5.77l-.54-.11c-2.43-.46-2.7-.72-4-2.47-.69-1-.83-3.47-2.53-3.39-2.72.13-1.21,3.38-.37,4.65,1.54,2.31,3.83,3,6.43,3.49.38.07.76.14,1.14.23.63.13,1.7,2.52,1.62,5.32a24.68,24.68,0,0,1-.7,5c0,.16-.08.33-.11.49s-.56-.42-1.24-1.51a8.75,8.75,0,0,0-1.41-1.82c-1.13-1.05-2.71-1.55-3.86-2.43-.94-.71-1-1.92-2.42-2.25-1.69-.38-3.07.44-2.7,2.17.33,1.52,3.44,2.52,4.71,2.92A6.72,6.72,0,0,1,2077,456a14.78,14.78,0,0,1,2.13,3.33c.3.54.59,1.1.9,1.62a15.11,15.11,0,0,1,1.33,3c.22.8-1,1.68-2.53.79a24,24,0,0,1-2.55-1.85c-1.44-1.15-13.71-5.56-9.66-.63,1.52,1.85,6.14.19,8.5,2.07,2,1.58,4.16,3.32,6.61,2.95l.44-.08c.23-.06.83.67,1.4,1.63.35.58.71,1.15,1.07,1.71,1.91,3,3.73,5.9,3.4,10a7.67,7.67,0,0,1-1.67,3.47c-1.28,1.73-2.94,1.69-2.82.24.07-.84.2-1.75.33-2.61.41-2.68.84-5.46-.54-7.27a4.25,4.25,0,0,0-3-1.59,1.38,1.38,0,1,0-.33,2.75c.83.1,1.07.41,1.15.52.67.87.32,3.16,0,5.17-.17,1.12-.34,2.26-.4,3.34-.1,1.86-.11,3.37-.72,3.46s-3.18-1.67-3.22-4.75a27.36,27.36,0,0,1,.78-5.5c.74-3.52,1.68-8.37-2-10.7-1.71-1.08-7.24-1.45-5.8,2,.82,2,3.58.15,4.64,1.27,1.77,1.87,1,4.36.47,6.81a28.53,28.53,0,0,0-.83,6.21c.06,3.46,1.7,6,1.37,6.17s-1.39-.87-2.81-2c-.87-.7-1.82-1.32-2.72-1.91-1.88-1.23-4-2.48-4.52-4.82-.14-.59,1.84-5.73.46-5.79-8.12-.36-.15,11.18,2.55,12.93a29.74,29.74,0,0,1,2.57,1.82c1.35,1.11,1.77,2.71,1.6,3s-.2.4-.29.62-.25.6-.35.9c-.17.51-.86.48-1.63-.05-.45-.3-.93-.6-1.43-.91q-.34-.21-.75-.42c-1.66-.85-.78-4.65-3-5.38-4.1-1.35-1.12,1.83-.21,2.79.61.66-.37,1.11-1.6.72a7.42,7.42,0,0,1-2.22-.9,1.48,1.48,0,0,0,0-.21c-.1-1.15-.3-2.55-.59-4.09-.41-2.24-.88-4.08-.88-4.13a.28.28,0,0,1,0-.09,4.81,4.81,0,0,1,0-1.69,9.79,9.79,0,0,1,2.49-4.51c1.46-1.82,3.12-3.89,3-6.94-.08-3.23-2.26-4.67-3.39-7.37-.66-1.57,0-4.7-1.85-5.62a2.33,2.33,0,0,0-3.22,1.78c-.22,1.41,2.19,3.88,3,4.9,1.6,2.08,3.12,4,3.17,6.37s-1.15,3.7-2.54,5.44c-.37.46-.75.93-1.1,1.43-.59.81-1.31.51-1.8-.72-1.07-2.63,3.15-9.87.26-11.52-2.13-1.21-2,.2-2.47,1.7-.09.32,0,5.48-.43,5a33,33,0,0,1-1.51-2.95c-.36-.72-.78-1.43-1.19-2.13-1-1.67-2.51-3.86-2.2-5.89.23-1.43,2.31-2.44,1.55-4-1.29-2.73-3,.89-3.28,2.09-.83,3.21.76,6.06,2.33,8.77l.25.42c.13.23-.52-.05-1.49-.55s-2.7-1.7-2.9-3.1a14.41,14.41,0,0,1,0-2.56c.06-1.36,0-9.51-3-7.8-1.73,1,.74,6.14.67,7.7,0,.58-.06,1.18,0,1.78,0,1-.37,1.55-1.06,1.26a3.31,3.31,0,0,1-1.62-2.54c-.28-3.89-.1-8.52-2.33-11.93-5,.07.43,7.19.43,9.89,0,.48,0,1,0,1.47,0,.8-1.23.77-2.47-.53a8.2,8.2,0,0,1-1.73-2.74,1.39,1.39,0,1,0-2.6,1c1.91,5,6.59,6.9,11.12,8.73l1,.42c.57.23,0,.51-1.34.37-.77-.08-1.57-.21-2.36-.34-3.64-.57-8.16-1.3-10,2.95a1.39,1.39,0,0,0,2.54,1.12c.91-2.06,2.94-2,7-1.32a41.23,41.23,0,0,0,5.93.66c3.55,0,4.36-1.17,6.59,2.25a28.49,28.49,0,0,1,2.83,6.59c1.08,3.42-1,4.88-3.41,2.24a21.68,21.68,0,0,1-2.11-2.74c-.3-1.88-.69-4.88-2.5-5.3a2.37,2.37,0,0,0-1.24.09,2,2,0,0,0-1.32,1c-1.61,3.5,10.16,13.16,12.42,14.21l.19.07c.11,0,.23.26.26.54s-2.8-.19-6-1.86c-2.36-1.24-5.81-8.29-8.42-5.81-2.9,2.74,7.16,8.39,9.19,9.24,3.31,1.38,3.64,2.92.46,3.24a18.57,18.57,0,0,1-5.78-.16c-6.21-1.48-6.71-6-7.3-11.16-.31-2.75-1-8.86-3.55-10.51-5.82-3.72.49,8.14.79,10.81a27.69,27.69,0,0,0,1.37,6.83c1.29,3.34,1,5.75-2.22,4.6-1.49-.52-4.92-4.29-6.53-3.28-2.62,1.63,3.16,4.91,4.37,5.29,6.37,2,14.23,1.12,20.72.14a23.62,23.62,0,0,0,7.35-2.18,1.07,1.07,0,0,0,.22-.15c1.61-1.15,8.07,3.88,9,5a.75.75,0,0,0,.15.16,6.22,6.22,0,0,1,1.57,2.74,5.8,5.8,0,0,1-.54,3.52l-.12.28a42.29,42.29,0,0,1-3.52,5.7l-.92,1.34c-.5.75-1.21.39-.89-.75a11.6,11.6,0,0,1,.82-2,10.11,10.11,0,0,0,1.35-5,9,9,0,0,0-2.15-4.25,17.15,17.15,0,0,0-3.29-3.2c-1.83-1.31-3.7-1.86-4.87-.59a3.21,3.21,0,0,0-.51.74v.05a3.58,3.58,0,0,0,.06.82c.7,3.74,7.81,1.75,8,6.53a5.32,5.32,0,0,1,0,.57c0,.32-.44,0-1.1-.54a5.39,5.39,0,0,0-1.31-.75c-3-1.22-7.94-.41-10.3,2-3.67,3.69.52,2.57,2.88,1.09,2.17-1.36,3.9-2.48,6.73-1.34a2.94,2.94,0,0,1,1.47,1.16c.55.9-.43,3.2-.64,5.08s.06,3.35-.49,3.39c-.33,0-.67,0-1,.09-3.38.33-2.28-1-3.61-3.12-3.06-4.94-4.65,4.44.94,5.87a9,9,0,0,0,2.94,0l.93-.08a.8.8,0,0,1,.92.51c.06.28.21,1.46.36,2.66.09.63.2,1.35.34,2.16a1.39,1.39,0,0,0,1.57,1.14h0a1.38,1.38,0,0,0,1.12-1.61c-.82-4.75-.59-5.1.9-7.39.69-1.06,1.37-2,2-3l.09-.12a5.86,5.86,0,0,1,3.08-2,17.17,17.17,0,0,1,3.54-.32l1.06,0a10.16,10.16,0,0,0,5.82-2.06c1.54-1,3.88-2.47,5.74-2.16s3.18,3.4,5.23,1c3.14-3.72-6.15-3.28-7.78-2.85a14.17,14.17,0,0,0-4.46,2.11,8,8,0,0,1-4.63,1.68l-1,0c-.68,0-1.31,0-1.9.08-1.05.07-1.72,0-1.54-.37l.41-.77a.59.59,0,0,0,.06-.14c0-.06.05-.12.08-.17a1.34,1.34,0,0,1,.07-.18c.71-1.48,2.08-1.76,4.33-2.1a11.17,11.17,0,0,0,4.75-1.47,9.27,9.27,0,0,0,2.74-3.35c1-1.85,1.59-2.66,3.59-2.45a1.39,1.39,0,1,0,.29-2.76c-3.89-.4-5.28,2.05-6.3,3.84a6.7,6.7,0,0,1-1.88,2.42,8.86,8.86,0,0,1-3.59,1l-.25,0c-.14,0,.39-.74,1.06-1.78.42-.65.79-1.3,1.15-1.92,1.19-2,3.73-2.89,5.11-4.72,1.84-2.46.67-3.92-2.18-1.85a18.82,18.82,0,0,0-4.53,5.64c-.48.83-1,1.67-1.53,2.48-.91,1.32-1.89,2.07-1.92,1.89l-.06-.32a7.3,7.3,0,0,0-.77-2c-.57-1.05-1.32-2.49-1.15-3.35a7.44,7.44,0,0,1,.49-1.52c1.9-4.42,7.05-4,10.93-4.6a26.13,26.13,0,0,0,12.74-5.65,63,63,0,0,0,8.59-8.74c2.44-2.83,5-5.31,7.72-7.86C2114.87,467.58,2120.53,462.76,2117.94,462.46Z"/>
    <path class="cls-8" d="M7.28,413.39l0,0C21,426,18.1,452.22,30.48,461.91c25.75,20.18,23.67-9.2,47.08-18.14l.06,0c41.53-15.69,32.06,25.78,48.07,45.7,6.68,8.31,25.38,12.29,34,21.91,16.94,18.87,12.21,30.58,38.31,39.82,18.49,6.55,43.37.58,62.85,2.13h0c15.29,1.22,29.31,3.86,39.42,10.42,20.77,13.46,48.82,47.74,42.19,63-6.52,15-17,27.64-21.53,42.91H-71.7V406.19C-71.69,402.65-1.91,405.05,7.28,413.39Z"/>
    <path class="cls-8" d="M2231.27,365.53h0c-20.41,11.73-16.06,36.17-34.45,45.21-38.26,18.8-35.17-8.58-70-16.91l-.08,0c-61.73-14.62-47.64,24-71.44,42.59-9.93,7.74-37.71,11.45-50.55,20.42-25.18,17.58-18.15,28.49-56.93,37.11-27.48,6.1-64.45.53-93.4,2h0c-22.73,1.14-43.56,3.6-58.59,9.71-30.85,12.54-72.54,44.49-62.69,58.72,9.69,14,25.27,25.75,32,40h583.53V358.82C2348.61,355.52,2244.93,357.75,2231.27,365.53Z"/>
    <path class="cls-9" d="M1896.32,558.61c-23.78-10.62-56.74-14.89-92.71-16.87-60.89-3.35-130.41-.14-178.58-10.07l-.08,0c-101.55-21-39.74-92.77-160.06-127.72-52.51-15.26-104.61-9.53-154.22-29.21-44.49-17.64-49.87-40.18-102.61-55.25-14.41-4.12-158-21.08-182.93-17.7-15.27-3.37-102.78,13.58-111.57,17.7-32.18,15.07-35.46,37.61-62.6,55.25-30.26,19.68-62,13.95-94.08,29.21-73.4,34.95-35.7,106.76-97.64,127.72l0,0c-29.39,9.93-71.8,6.72-109,10.07-21.94,2-42,6.25-56.55,16.87-29.79,21.81,2.9,77.37,12.42,102.12,9.35,24.32,24.39,44.78,30.89,69.53,0,0,428.66,0,484.43,0h0s803.88,0,803.89,0c10.65-24.74,35.32-45.21,50.65-69.53C1891.56,636,1945.15,580.42,1896.32,558.61Z"/>
    <path class="cls-10" d="M84.08,626.21c-36.91-.53-70.22-1.65-88.7,4.16a11.67,11.67,0,0,0-1.76.58C-14.7,634.76,30.27,634,40,634.08c14.13.07,23.65-.29,33.39,1.74,17.26,3.59,9.82,10,38.55,11.92,18.64,1.22,56.16.85,57.17-3.86.31-1.45-9.65-3.24-14.05-4.31l-1.15-.29c-11.58-3.1-9.33-4.56-4.39-7.95C160.29,624,103.77,626.49,84.08,626.21Z"/>
    <path class="cls-11" d="M2541.12,577.36c-37.52,5.95-79.26-6.22-115.43,4-65.08,18.44-124.09-14.31-187.36-1.24-38,7.84-72.84,2.76-110.18-4-43-7.79-64.18-3.66-105.93-.15h0c-22.17,1.85-40.64-6.63-62.64-2.86-41,7-62.4,16.31-106.29,16.28-70.12-.06-149,31.9-218.48,22.88-44-5.72-83.5-24.91-128.6-27.71-50.24-3.12-97.68,16-147.84,13-57.86-3.44-101.86-24.21-161-24.26-4.2,0-8.16-.12-11.92-.33-38.85-2.2-56.18-15-91.49-26.55-13.21-4.32-58.28-8.38-70.47,3.81.06-.07.12.07.18.38-16.13,3.55-78.23,25.45-86,26.7-37.33,5.95-78.87-6.22-114.86,4-64.75,18.44-123.46-14.31-186.42-1.24-37.8,7.84-72.49,2.76-109.64-4-42.74-7.79-63.86-3.66-105.4-.15h0c-22.06,1.85-40.43-6.63-62.33-2.86-40.74,7-62.09,16.31-105.76,16.28-69.77-.06-148.29,31.9-217.39,22.88-43.8-5.72-83.09-24.91-128-27.71-50-3.12-97.2,16-147.11,13-57.57-3.44-101.35-24.21-160.23-24.26-4.18,0-8.12-.12-11.87-.33-38.65-2.2-55.89-15-91-26.55-13.15-4.32-70.12-1.1-70.12-18.34V739.28h3204V550.43C2631.41,547.15,2550.13,575.93,2541.12,577.36Z"/>
    <path class="cls-12" d="M1385.8,629c-6.07,2.64,7.66,3.71,17.42,3.28,7.51-.32,15.77-1.11,23.45-.82,8.6.32,12.31,2,19.15,3,13.59,2.07,18.82,0,20.37-3.43,2-4.46,27-6.83,25.67-11.07-2.69-8.46-58.34.94-44.36-10.45.63-.51,1.39-1.05,2.3-1.65,1.93-1.26,3.56-2.46,5.77-3.69,11-6.13-29.52-1.25-36.07,0-7.23,1.4-13.82,3.52-16,5.76-4.21,4.4-20.47,6.41-36.63,4.25-8.24-1.11-19-4.13-26.89-.79-9.39,4,4.68,8,20.17,8.08,7.67,0,23.36-1.45,30-.43,6.07.94,5.44,2.8,4.39,4.31C1393.21,627.28,1389,627.56,1385.8,629Z"/>
    <path class="cls-12" d="M1221.5,590.73c-11.84-1.52-23.3-2.43-27.1-3.05-12.21-2-23-5.86-34.81-8.73-18.88-4.57-34.74-.33-53.34-3.46-14.23-2.4-28-6-42.33-8.3-7.22-1.15-20.7-5.47-25.61-2.83-5.8,3.12,20.36,12.75,24.39,14.57,10.7,4.85,9.1,4.93,8.44,12-1.12,12,22.58,15.17,37.56,11.68,16.32-3.81,21.07-9.48,42.57-6.62,7.62,1,20.73,3.25,27.47,6.32,6.25,2.84,9,6.95,15.46,10,13.75,6.57,19.2,5.33,26.79-.56,3.28-2.55,5.32-5.47,11-6.58,6.74-1.32,18.2,2.06,21.27-3C1256.71,596.41,1238.7,592.93,1221.5,590.73Z"/>
    <path class="cls-12" d="M1683.36,626.21c-37.09-.53-70.57-1.65-89.14,4.16a11.47,11.47,0,0,0-1.77.58c-8.36,3.81,36.83,3.08,46.65,3.13,14.2.07,23.77-.29,33.56,1.74,17.35,3.59,9.87,10,38.74,11.92,18.74,1.22,56.44.85,57.46-3.86.31-1.45-9.7-3.24-14.12-4.31l-1.16-.29c-11.64-3.1-9.38-4.56-4.41-7.95C1760,624,1703.15,626.49,1683.36,626.21Z"/>
    <path class="cls-12" d="M2171.73,619.79c15.85-4.2,40.67-5.53,60-8.24,52.62-7.36-48.58-9.64-64.88-13-2.38-.48-4.79-1.05-7.25-1.7-12.65-3.39-31.91-7.82-52.12-6.47-19.11,1.29-33,7.17-54.57,8.53-12.18.76-28.38-.63-37.28,2.56-7.26,2.6-3.5,6.46-10.22,9-20.9,7.86-47.7,4.45-68.88,12.83-7.94,3.14-50.65,15.07-54.2,21.23-6.5,11.27,12,13.79,24.45,13.08,17.44-1,33.41-7.3,50.49-8.48s34.73,1.69,52,0c10.93-1.1,17.73-3.73,26.1-5.65a176.6,176.6,0,0,1,31-4.55c17.38-1,35.3.56,52.85.78,14.79.19,35.57.36,44.28-2.71,9.41-3.32-5.68-6.69-5.75-9.91C2157.8,624.49,2165.16,621.53,2171.73,619.79Z"/>
    <path class="cls-13" d="M-120.23,659.41c94,4.1,156.1-13.9,246-16,105.07-2.48,144.82,19,229.57,25.15,177.73,12.85,304.3-38.34,465.51-45.46,181-8,329.15,29.85,503.34,27,83.72-1.34,151.25-9.75,233.25-6.92V748.28h-2130V626.59C-373.47,615.42-318.33,650.76-120.23,659.41Z"/>
    <path class="cls-13" d="M1364.91,662.41c71,4.1,117.84-13.9,185.69-16,79.32-2.48,109.33,19,173.31,25.15,134.18,12.85,229.72-38.34,351.43-45.46,136.62-8,248.48,29.85,380,27,63.2-1.34,114.19-9.75,176.09-6.92V751.28h-1608V629.59C1173.73,618.42,1215.36,653.76,1364.91,662.41Z"/>
    <path class="cls-14" d="M-230.79,720.41c70.6,4.1,117.26-13.9,184.77-16,78.92-2.48,108.78,19,172.44,25.15C259.93,742.38,355,691.19,476.1,684.07c135.95-8,247.25,29.85,378.1,27,62.89-1.34,113.61-9.75,175.21-6.92V809.28h-1601l-1-122C-423,676.11-379.59,711.76-230.79,720.41Z"/>
    <path class="cls-15" d="M1300.41,729.28c70,9.9,377.49-31.88,445-34,78.92-2.49,155.34,18.87,219,25,133.51,12.85,152.9-9.88,274-17,135.94-8,116.15,18.8,247,16,62.88-1.35,80.4-27.83,142-25v117l-1653-9S521.61,619.15,1300.41,729.28Z"/>
    <path class="cls-16" d="M984.1,669c-24.05,3.53-15.51,10.91,24.39,16.64,29.6,4.24,111.73,10.47,140.74,9.9,41.44-.81,21.17-8.73,69-8.43,36.77.23,82.61,5.64,117.22,4.92,72.52-1.5-37.41-11-57.89-15.1-19.52-3.95-16.12-8.29-38.57-12.18-25.89-4.47-61.88-4-88.63-6.56-35.93-3.43-56.69-9.64-97.61-12-21.61-1.24-87.61-5-102.8-4.06-37.25,2.33,72.72,11.66,81.7,15.59C1046.5,664.21,1006.12,665.72,984.1,669Z"/>
    <path class="cls-17" d="M685.38,729.23c-3.13,3.73-36.9,5.72-56.7,4.27-25.72-1.88-42.75-6-66.33-8.41-24.57-2.49-59.12-2.3-87-1.8-23.16.41-22.07,4.49-44.17,5.3-15.71.58-43.67-.47-50.22-3.17-4.52-1.86,1.26-3.41,5.57-5.15a69.42,69.42,0,0,0,7-3.57c6.6-3.46,10.2-7.48,19.22-10.74,21.89-7.91,64.71-8.31,111.63-8.75,11.53-.11,24.06-.12,35.41-.39,9.11-.22,17.15-1.15,26.43-1.23,9.89-.09,16.46.58,24.74,1.14,25.53,1.72,51,2,49.76,6.67-1.11,4.32-12.78,7.28-2.45,11.61C666.76,718.56,688.56,725.43,685.38,729.23Z"/>
    <path class="cls-18" d="M1996.39,681c2.94,2,14.15,3.69,19.3,5.59,4.13,1.52-.32,3.67,15.5,4.41,20,.93,42-.08,61.4-.69,8.18-.26,16-.73,24.46-.67,8.65.06,16.28.73,24.86.86,32.4.49,62.74-2.62,34.42-6.4-25.44-3.4-54.81-7.68-47.35-13.16,7.3-5.36,35.49-6.51,69.44-7.63,13.1-.43,29.14-1.28,40.46-2.35,2-.18,23.16-2.76,15.84-2.79-18.49-.07-36.53,0-54.92-.36-21.46-.47-44.36-1.73-64.59-2.82-9.9-.53-25.15-2.11-36.17-1.67-18.47.74-18.47,5-37.22,6.07-22.27,1.23-53.81.46-78.13.83-24.48.37-50.08,1.87-62.81,4.29h0c-20,3.72,33.08,4.63,47.08,5.54s25.28,2.52,29.8,4.6C2002.6,676.9,1993.22,678.88,1996.39,681Z"/>
    <path class="cls-16" d="M245.31,705.89c-3.34,3.55-37.17,3.62-56.85,1-25.57-3.33-42.34-8.44-65.75-12.16C98.32,690.89,63.82,689.11,36,688c-23.15-.9-22.29,3.23-44.4,2.79-15.72-.32-43.58-3-50-6-4.41-2.12,1.45-3.34,5.85-4.83a70.16,70.16,0,0,0,7.18-3.17c6.79-3.08,10.61-6.88,19.8-9.63,22.31-6.65,65.08-4.61,112-2.39,11.52.55,24,1.25,35.37,1.63,9.11.3,17.19-.18,26.46.27,9.88.47,16.4,1.52,24.64,2.55,25.39,3.16,50.76,4.87,49.3,9.48C220.79,683,209,685.25,219,690.16,227.33,694.18,248.7,702.28,245.31,705.89Z"/>
    <path class="cls-19" d="M660,747.84c5.86-2,11.85-7.36,16.17-9.22,5.49-2.37,12.38-5.28,19.34-7.6a91.46,91.46,0,0,1,13.17-3.45c22.9-3.88,48.36-3.34,71.92-6.31,11.93-1.5,23.26-3.39,35.06-5.4,14.76-2.51,29.52-3,43.82-5.08,15.87-2.36,28.54-10.46,41.52-16,18.76-8.07,39-15.83,61.43-19.22,5.19-.78,61.57-2.82,61.57,3v70H660.21C660.16,748.31,660.1,748.07,660,747.84Z"/>
    <path class="cls-20" d="M1460,730.62c12.27-2.93,24.81-11,33.84-13.85,11.49-3.56,25.92-7.92,40.5-11.4a254,254,0,0,1,27.57-5.19c47.94-5.82,101.22-5,150.55-9.47,25-2.25,48.69-5.1,73.39-8.11,30.91-3.77,61.8-4.42,91.74-7.62,33.21-3.54,59.73-15.71,86.92-24.1,39.26-12.12,81.64-23.78,128.59-28.86,10.87-1.18,128.9-4.24,128.9,4.51V731.69H1460.36C1460.26,731.33,1460.12,731,1460,730.62Z"/>
    <path class="cls-19" d="M1355.61,740.31c-5.86-1.95-11.85-7.36-16.16-9.22-5.49-2.37-12.39-5.28-19.35-7.6a91.12,91.12,0,0,0-13.17-3.45c-22.9-3.88-48.35-3.34-71.92-6.31-11.93-1.5-23.25-3.39-35-5.4-14.77-2.51-29.53-3-43.83-5.08-15.86-2.36-28.53-10.46-41.52-16-18.75-8.07-39-15.83-61.42-19.22-5.2-.78-61.58-2.83-61.58,3v70h363.84C1355.49,740.78,1355.56,740.54,1355.61,740.31Z"/>
    <path class="cls-21" d="M283.57,613.48c-6.32-2.24-17.59-1.06-18.44-5.55-.29-1.57,7-10.62-2.12-7.8a12.58,12.58,0,0,0-5,3.12,10.25,10.25,0,0,1-4.45,2.67,14.71,14.71,0,0,1-6.54.12,57.65,57.65,0,0,1-6.76-2.2,39.08,39.08,0,0,0-8-1.88,11.88,11.88,0,0,0-4,.19c-1.31,1,.6,1.73,1.55,2.55,3.7,3.21,13.65,5.78,5.44,9.27-3.39,1.43-21,5-6.57,5.14,9.13.12,17.91-2.67,23,1.54,2.47,2.05,13.56,9.21,14.34,3.4.39-2.93-10.34-8.46,1.27-8C271,616.18,294.39,617.31,283.57,613.48Z"/>
    <g>
      <path class="cls-22" d="M945,674.85c-33.27-18.47-77.89-22.74-114.49-12.62a125.72,125.72,0,0,0-19.13,6.89C766.11,690,767.54,729.05,831.71,745c28.1,6.94,104.39,7.08,129.45-5.34C992.1,724.33,971.85,689.76,945,674.85Z"/>
      <path class="cls-23" d="M945,674.85c-33.27-18.47-77.89-22.74-114.49-12.62a125.72,125.72,0,0,0-19.13,6.89c-22.61,10.42-33.57,25.4-30.85,39.76a124.61,124.61,0,0,0,27,9.81c28.1,6.94,104.39,7.08,129.45-5.35,16.89-8.38,18.5-22.48,12.13-36C947.75,676.46,946.38,675.62,945,674.85Z"/>
    </g>
    <g>
      <path class="cls-22" d="M2089,656.39c-33.27-18.47-77.89-22.73-114.49-12.62a125.72,125.72,0,0,0-19.13,6.89c-45.24,20.86-43.82,59.93,20.35,75.9,28.11,6.94,104.39,7.08,129.45-5.34C2136.16,705.87,2115.91,671.3,2089,656.39Z"/>
      <path class="cls-23" d="M2089,656.39c-33.27-18.47-77.89-22.73-114.49-12.62a125.72,125.72,0,0,0-19.13,6.89c-22.61,10.42-33.57,25.4-30.85,39.76a124.28,124.28,0,0,0,27,9.81c28.1,6.94,104.39,7.08,129.45-5.35,16.89-8.38,18.51-22.48,12.13-36C2091.81,658,2090.44,657.16,2089,656.39Z"/>
    </g>
    <g>
      <path class="cls-24" d="M1663.09,689.78c-10.91-3.67-24.29-2.3-34.44,3a37.22,37.22,0,0,0-5.2,3.27c-12,9.13-9.26,21,10.57,22.09,8.69.44,31.13-4.11,37.75-9.43C1679.94,702.15,1671.89,692.75,1663.09,689.78Z"/>
      <path class="cls-25" d="M1663.09,689.78c-10.91-3.67-24.29-2.3-34.44,3a37.22,37.22,0,0,0-5.2,3.27c-6,4.56-8.34,9.82-6.67,14.07a35.85,35.85,0,0,0,8.54,1.38c8.68.45,31.13-4.1,37.74-9.42,4.46-3.59,4.08-8,1.39-11.79C1664,690.11,1663.54,689.94,1663.09,689.78Z"/>
    </g>
    <g>
      <path class="cls-24" d="M1199.64,705.93c-13.41-7.06-31.69-10.12-46.88-8.37a60.83,60.83,0,0,0-8,1.42c-18.9,4.78-18.87,17,7.28,24.52,11.45,3.25,42.81,6.24,53.28,3.32C1218.3,723.22,1210.47,711.63,1199.64,705.93Z"/>
      <path class="cls-25" d="M1199.64,705.93c-13.41-7.06-31.69-10.12-46.88-8.37a60.83,60.83,0,0,0-8,1.42c-9.45,2.39-14.16,6.65-13.25,11.24a64.21,64.21,0,0,0,11,4.11c11.46,3.26,42.81,6.24,53.29,3.32,7.06-2,7.93-6.31,5.5-10.78C1200.76,706.54,1200.2,706.22,1199.64,705.93Z"/>
    </g>
    <g>
      <path class="cls-24" d="M1147.6,683.24c-15.39-3.15-33.53.62-46.77,9a52.8,52.8,0,0,0-6.73,5c-15.35,13.64-10.07,28.7,17.22,27.11,12-.71,42.11-9.93,50.51-17.82C1172.2,696.8,1160,685.79,1147.6,683.24Z"/>
      <path class="cls-25" d="M1147.6,683.24c-15.39-3.15-33.53.62-46.77,9a52.8,52.8,0,0,0-6.73,5c-7.67,6.82-10.19,14-7.38,19.26a51.81,51.81,0,0,0,11.86.53c12-.71,42.11-9.93,50.51-17.83,5.66-5.32,4.59-11,.44-15.5C1148.89,683.54,1148.24,683.38,1147.6,683.24Z"/>
    </g>
    <g>
      <path class="cls-26" d="M-456.76,104.88s215.88,100.42,730,107.33S983.4,88.3,1454.93,93.73,1977.59,149,1977.59,149,1463.45,23.13,790.24,203.33s-1542.42-76-1542.42-76Z"/>
      <path class="cls-26" d="M-446.27,224.79s192.4,53.45,650.63,57.13,752.05-92.63,921.07-115.32,340.86-22.39,340.86-22.39c-241.65.88-678.89,111.6-801.16,133C73.81,388.26-709.57,236.72-709.57,236.72Z"/>
    </g>
    <g class="cls-27">
      <path class="cls-26" d="M1013.73,420S871,476.77,530.47,482.28s-470.72-67-783-62.44-346.06,32.58-346.06,32.58S-258.41,380.41,188,479,1199.53,422,1199.53,422c287-90,623.7-107,994-99C1830.82,272.24,1494.53,274,1013.73,420Z"/>
      <path class="cls-26" d="M1038.17,490.79s-127.3,30.49-430.81,34S109,475.45-3,463.3-228.9,451.88-228.9,451.88c160.07-.28,450,60.2,531,71.76,392,60.2,907.39-30.6,907.39-30.6,293.48-56.48,811-132,1333-83C1961.53,314,1473.42,408.47,1038.17,490.79Z"/>
    </g>
    <path class="cls-28" d="M1140.05,563.62l0,.13.13,0Z"/>
    <rect class="cls-1" x="-572.59" y="-66.72" width="3200" height="900"/>
    <rect class="cls-1" x="-553.53" y="-90" width="3200" height="900"/>
    <path class="cls-12" d="M534.73,612.73c15.76-4.2,40.46-5.53,59.7-8.24,52.36-7.36-48.33-9.63-64.55-13-2.37-.49-4.77-1-7.22-1.71-12.58-3.39-31.75-7.82-51.86-6.46-19,1.28-32.79,7.16-54.29,8.52-12.12.76-28.25-.63-37.1,2.56-7.22,2.6-3.48,6.46-10.17,9-20.8,7.86-47.46,4.45-68.53,12.83-7.91,3.14-50.4,15.07-53.93,21.23-6.48,11.27,12,13.79,24.32,13.08,17.35-1,33.25-7.3,50.24-8.48s34.56,1.69,51.8-.05c10.87-1.1,17.63-3.73,26-5.65a175,175,0,0,1,30.9-4.55c17.29-1,35.12.56,52.58.79,14.72.18,35.4.35,44.06-2.72,9.36-3.32-5.64-6.68-5.72-9.91C520.86,617.43,528.18,614.47,534.73,612.73Z"/>
    <path class="cls-29" d="M510,719.65a7.58,7.58,0,0,0-4-4.31c-8-3.26-16.65-10.83-22.55-13.21a296.37,296.37,0,0,0-29.08-10.35A100.93,100.93,0,0,0,435,688c-33-2.57-68.21,3.78-101.83,3.09-17-.35-33.33-1.58-50.31-2.91-21.25-1.68-41.91.59-62.41-.46-22.74-1.16-42.67-13.87-62.33-21.76-28.39-11.38-58.76-21.87-90.93-23.6-7.45-.4-116.85,28-115.18,39,0,0,51.8,115.09,51.8,115.09l506.3-76.2A2.08,2.08,0,0,0,510,719.65Z"/>
    <g>
      <path class="cls-22" d="M55.21,672.45C27,663.81-9,665.18-37.1,674.91A115.21,115.21,0,0,0-51.64,681c-34,17.31-29,41.86,23.58,46.1,23,1.83,83.73-5,102.45-15.17C97.51,699.42,78,679.42,55.21,672.45Z"/>
      <path class="cls-23" d="M55.21,672.45C27,663.81-9,665.18-37.1,674.91A115.21,115.21,0,0,0-51.64,681c-17,8.64-24.23,19.11-20.67,27.94a121.13,121.13,0,0,0,22.45,3.73c23,1.83,83.73-5,102.46-15.18,12.61-6.83,12.52-15.89,6.14-23.85C57.57,673.22,56.4,672.81,55.21,672.45Z"/>
    </g>
    <g>
      <path class="cls-22" d="M326.09,685.39c-18.16-9.91-41-9.17-58.66.74a58.92,58.92,0,0,0-9.12,6.28c-21.24,18-17.59,44.59,15.95,50.26,14.69,2.45,53.15-3.7,64.85-14.25C353.55,715.38,340.75,693.39,326.09,685.39Z"/>
      <path class="cls-23" d="M326.09,685.39c-18.16-9.91-41-9.17-58.66.74a58.92,58.92,0,0,0-9.12,6.28c-10.62,9-15,20.13-12.57,29.73a51.1,51.1,0,0,0,14.36,4.5c14.68,2.45,53.15-3.7,64.85-14.26,7.88-7.12,7.63-16.9,3.41-25.62C327.61,686.27,326.85,685.81,326.09,685.39Z"/>
    </g>
    <g>
      <path class="cls-22" d="M123.15,703.57c-15.09-5.3-34.23-4.59-49.19,1.19a56.48,56.48,0,0,0-7.73,3.63C48.18,718.72,50.89,733.56,79,736.29c12.28,1.18,44.61-2.76,54.56-8.82C145.79,720,135.35,707.86,123.15,703.57Z"/>
      <path class="cls-23" d="M123.15,703.57c-15.09-5.3-34.23-4.59-49.19,1.19a56.48,56.48,0,0,0-7.73,3.63c-9,5.16-12.86,11.45-10.93,16.79a57.67,57.67,0,0,0,12,2.33c12.28,1.18,44.61-2.76,54.56-8.82,6.71-4.09,6.63-9.56,3.2-14.38C124.42,704.05,123.79,703.8,123.15,703.57Z"/>
    </g>
    <g>
      <path class="cls-22" d="M199.15,714.57c-15.09-5.3-34.23-4.59-49.19,1.19a56.48,56.48,0,0,0-7.73,3.63c-18,10.33-15.34,25.17,12.72,27.9,12.28,1.18,44.61-2.76,54.56-8.82C221.79,731,211.35,718.86,199.15,714.57Z"/>
      <path class="cls-23" d="M199.15,714.57c-15.09-5.3-34.23-4.59-49.19,1.19a56.48,56.48,0,0,0-7.73,3.63c-9,5.16-12.86,11.45-10.93,16.79a57.67,57.67,0,0,0,12,2.33c12.28,1.18,44.61-2.76,54.56-8.82,6.71-4.09,6.63-9.56,3.2-14.38C200.42,715.05,199.79,714.8,199.15,714.57Z"/>
    </g>
  </g>
</svg>
