<?xml version="1.0" encoding="utf-8"?>
<!-- Generator: Adobe Illustrator 25.2.3, SVG Export Plug-In . SVG Version: 6.00 Build 0)  -->
<svg version="1.1" id="Layer_1" xmlns="http://www.w3.org/2000/svg" xmlns:xlink="http://www.w3.org/1999/xlink" x="0px" y="0px"
	 viewBox="0 0 1600 268.9" style="enable-background:new 0 0 1600 268.9;" xml:space="preserve">
<style type="text/css">
	.st0{clip-path:url(#SVGID_2_);}
	.st1{fill:url(#SVGID_3_);}
	.st2{fill:#FC6212;}
	.st3{opacity:0.2;}
	.st4{opacity:0.1;}
	.st5{fill:#FFFFFF;}
	.st6{fill:url(#SVGID_4_);}
</style>
<g>
	<defs>
		<rect id="SVGID_1_" y="10.3" width="1600" height="248.2"/>
	</defs>
	<clipPath id="SVGID_2_">
		<use xlink:href="#SVGID_1_"  style="overflow:visible;"/>
	</clipPath>
	<g class="st0">
		
			<linearGradient id="SVGID_3_" gradientUnits="userSpaceOnUse" x1="256.2" y1="29.3856" x2="256.2" y2="259.67" gradientTransform="matrix(1 0 0 -1 0 270)">
			<stop  offset="0" style="stop-color:#FF023E"/>
			<stop  offset="0.89" style="stop-color:#9A0233"/>
		</linearGradient>
		<path class="st1" d="M794.4,10.4c0,0-89.4,159.8-272.8,154.9C333,160.1,246.3,77.6,246.3,77.6S94.6,229.7-85.2,240.3
			c-128.7,7.5-191.2-114.6-193.1-118.3v-0.1L-280,91l-2-40c128.9-16.3,324.3-26.1,513.5-32l18.2-0.6c237.5-7,461.4-8,526.1-8.1
			c8.1,0,13.7,0,16.5,0L794.4,10.4z"/>
		<path class="st2" d="M794.4,10.4c-1.2,0.5-105.7,169.9-286.2,163.9c-188.6-6.4-261.9-96.6-261.9-96.6S94.6,229.7-85.2,240.3
			c-128.7,7.5-191.2-114.6-193.1-118.3v-0.1l-3.1-37.6c0.1,0.7,0.5,3.1,1.5,6.7c7,28.3,44.1,127.8,190.9,129.4
			C70.9,222,242.4,54.1,242.4,54.1l8.1-0.2c0,0,97,111,278.9,102.4C705.7,148,784.6,12.5,786,10.4h-10.3H794.4z"/>
		<g class="st3">
			<path d="M-246.3,43.1c0,0,39,44.6,169.2,38.9S95.2,21.2,95.2,21.2H61.8c0,0-27,33.5-137.4,42.5s-153.2-22.3-153.2-22.3
				L-246.3,43.1z"/>
		</g>
		<g class="st3">
			<path d="M133,19.8c0,0-82.7,105.3-208.6,109.7s-190.9-82.9-190.9-82.9l-17.9,0.7c0,0,80.1,108.8,208.8,105.7
				S146.2,19.8,146.2,19.8H133z"/>
		</g>
		<g class="st4">
			<path class="st5" d="M170.9,17.1c0,0-61.8,112-162.9,156.1c0,0,95.3-10.9,202.2-156.1L170.9,17.1z"/>
		</g>
		<g class="st3">
			<path d="M430.6,47.7c0,0,19.5,22.4,80.9,25.5s106.4-29.4,106.4-29.4l-27.6,0.6c0,0-41.2,21.7-78.8,18.5S452,44.5,452,44.5
				L430.6,47.7z"/>
		</g>
		<g class="st3">
			<path d="M359.6,49.3c0,0,73.1,52.8,164.6,52.3s133.6-57,133.6-57h37.1c0,0-67.3,65.4-170.7,69.2S328.4,50,328.4,50L359.6,49.3z"
				/>
		</g>
		<g class="st4">
			<path class="st5" d="M303.7,50.6c0,0,52.5,66.6,146.9,87.8c0,0-106.2-8.9-188.7-86.7L303.7,50.6z"/>
		</g>
		<g class="st4">
			<path class="st5" d="M733.4,43.9c0,0-15.2,27.1-60.3,57.7c0,0,59.5-24.1,95.9-57L733.4,43.9z"/>
		</g>
		<g class="st4">
			<path class="st5" d="M388,39c0,0,64,48.7,136.2,47.8s115.9-64.5,115.9-64.5s-33.6,49.4-115.9,49.8S388,39,388,39z"/>
		</g>
		<g class="st4">
			<path class="st5" d="M366,72.7c0,0,48.8,68.4,158.2,64.2S688,50.6,688,50.6s-59,59.3-168.6,59S366,72.7,366,72.7z"/>
		</g>
		<g class="st4">
			<path class="st5" d="M-226.3,56.1c0,0,49.4,42.8,144.6,41.1S63.8,45,63.8,45S-13.8,83.8-94.3,80.6S-226.3,56.1-226.3,56.1z"/>
		</g>
		<g class="st4">
			<path class="st5" d="M-216.3,109.8c0,0,38.8,66,120.4,66.2c107.8,0.2,175-87.1,175-87.1s-94.5,69.4-174,63.4
				S-216.3,109.8-216.3,109.8z"/>
		</g>
		
			<linearGradient id="SVGID_4_" gradientUnits="userSpaceOnUse" x1="2063.175" y1="29.3856" x2="2063.175" y2="259.67" gradientTransform="matrix(-1 0 0 -1 3407 270)">
			<stop  offset="0" style="stop-color:#FF023E"/>
			<stop  offset="0.89" style="stop-color:#9A0233"/>
		</linearGradient>
		<path class="st6" d="M805.6,10.4c0,0,89.4,159.8,272.8,154.9c188.6-5.1,275.3-87.6,275.3-87.6s151.7,152.1,331.5,162.7
			c128.7,7.5,191.2-114.6,193.1-118.3v-0.1L1880,91l2.1-40c-128.9-16.3-324.3-26.1-513.4-32l-18.2-0.6c-237.5-7-461.4-8-526.1-8.1
			c-8.1,0-13.7,0-16.5,0L805.6,10.4z"/>
		<path class="st2" d="M805.6,10.4c1.2,0.5,105.7,169.9,286.2,163.9c188.6-6.4,261.9-96.6,261.9-96.6s151.7,152.1,331.5,162.7
			c128.7,7.5,191.2-114.6,193.1-118.3v-0.1l3.1-37.6c-0.1,0.7-0.6,3.1-1.4,6.7c-7,28.3-44.1,127.8-190.9,129.4
			c-160,1.7-331.5-166.3-331.5-166.3l-8.1-0.2c0,0-97,111-278.9,102.4C894.3,148,815.4,12.5,814,10.4h10.3H805.6z"/>
		<g class="st3">
			<path d="M1846.3,43.1c0,0-39,44.6-169.2,38.9s-172.3-60.8-172.3-60.8h33.3c0,0,27,33.5,137.4,42.5s153.2-22.3,153.2-22.3
				L1846.3,43.1z"/>
		</g>
		<g class="st3">
			<path d="M1467,19.8c0,0,82.8,105.3,208.6,109.7c125.8,4.4,190.9-82.9,190.9-82.9l17.9,0.7c0,0-80.2,108.8-208.9,105.7
				S1453.8,19.8,1453.8,19.8H1467z"/>
		</g>
		<g class="st4">
			<path class="st5" d="M1429.1,17.1c0,0,61.8,112,162.9,156.1c0,0-95.3-10.9-202.2-156.1L1429.1,17.1z"/>
		</g>
		<g class="st3">
			<path d="M1169.4,47.7c0,0-19.5,22.4-80.8,25.5S982.2,43.9,982.2,43.9l27.6,0.6c0,0,41.2,21.7,78.8,18.5s59.4-18.5,59.4-18.5
				L1169.4,47.7z"/>
		</g>
		<g class="st3">
			<path d="M1240.3,49.3c0,0-73.1,52.8-164.6,52.3s-133.6-57-133.6-57h-37.1c0,0,67.3,65.4,170.7,69.2S1271.6,50,1271.6,50
				L1240.3,49.3z"/>
		</g>
		<g class="st4">
			<path class="st5" d="M1296.3,50.6c0,0-52.6,66.6-146.9,87.8c0,0,106.2-8.9,188.7-86.7L1296.3,50.6z"/>
		</g>
		<g class="st4">
			<path class="st5" d="M866.6,43.9c0,0,15.2,27.1,60.3,57.7c0,0-59.5-24.1-95.9-57L866.6,43.9z"/>
		</g>
		<g class="st4">
			<path class="st5" d="M1212,39c0,0-64,48.7-136.2,47.8s-116-64.5-116-64.5s33.6,49.4,115.9,49.8S1212,39,1212,39z"/>
		</g>
		<g class="st4">
			<path class="st5" d="M1234,72.7c0,0-48.8,68.4-158.2,64.2S912,50.6,912,50.6s59,59.3,168.6,59S1234,72.7,1234,72.7z"/>
		</g>
		<g class="st4">
			<path class="st5" d="M1826.3,56.1c0,0-49.4,42.8-144.6,41.1S1536.2,45,1536.2,45s77.6,38.9,158.1,35.6S1826.3,56.1,1826.3,56.1z"
				/>
		</g>
		<g class="st4">
			<path class="st5" d="M1816.3,109.8c0,0-38.8,66-120.4,66.2c-107.8,0.2-175-87.1-175-87.1s94.5,69.4,174,63.4
				S1816.3,109.8,1816.3,109.8z"/>
		</g>
	</g>
</g>
</svg>
