<?xml version="1.0" encoding="utf-8"?>
<!-- Generator: Adobe Illustrator 25.2.3, SVG Export Plug-In . SVG Version: 6.00 Build 0)  -->
<svg version="1.1" id="Layer_1" xmlns="http://www.w3.org/2000/svg" xmlns:xlink="http://www.w3.org/1999/xlink" x="0px" y="0px"
	 viewBox="0 0 1600 900" style="enable-background:new 0 0 1600 900;" xml:space="preserve">
<style type="text/css">
	.st0{clip-path:url(#SVGID_2_);}
	.st1{fill-rule:evenodd;clip-rule:evenodd;fill:url(#SVGID_3_);}
	.st2{fill:url(#SVGID_4_);}
	.st3{fill:url(#SVGID_5_);}
	.st4{fill:url(#SVGID_6_);}
	.st5{fill:#AC4034;}
	.st6{opacity:0.67;fill:#FFE7FA;enable-background:new    ;}
	.st7{opacity:0.67;fill:#A44D64;enable-background:new    ;}
</style>
<g>
	<defs>
		<rect id="SVGID_1_" width="1600" height="900"/>
	</defs>
	<clipPath id="SVGID_2_">
		<use xlink:href="#SVGID_1_"  style="overflow:visible;"/>
	</clipPath>
	<g class="st0">
		
			<linearGradient id="SVGID_3_" gradientUnits="userSpaceOnUse" x1="-140" y1="-319.16" x2="-140" y2="1335.92" gradientTransform="matrix(1 0 0 -1 0 900)">
			<stop  offset="0" style="stop-color:#631336"/>
			<stop  offset="1" style="stop-color:#23001C"/>
		</linearGradient>
		<polygon class="st1" points="-3097.6,1165.9 -3097.6,-435.9 2817.6,-435.9 2817.6,1219.2 		"/>
		
			<linearGradient id="SVGID_4_" gradientUnits="userSpaceOnUse" x1="1517.6299" y1="-285.41" x2="1517.6299" y2="56.7324" gradientTransform="matrix(1 0 0 -1 0 900)">
			<stop  offset="0" style="stop-color:#896600"/>
			<stop  offset="1" style="stop-color:#D19F25"/>
		</linearGradient>
		<path class="st2" d="M1956.3,1185.4c0,0-25.7-204.9-102.3-211.7s-121.4,94.4-121.4,94.4s-69.2-194.1-199.5-223.3
			c-123-27.5-239.8,314.6-239.8,314.6s-33.6-86.1-95.2-82.5c-73.7,4.2-119.3,101-119.3,101L1956.3,1185.4z"/>
		
			<linearGradient id="SVGID_5_" gradientUnits="userSpaceOnUse" x1="1522.24" y1="-285.41" x2="1522.24" y2="37.1118" gradientTransform="matrix(1 0 0 -1 0 900)">
			<stop  offset="0" style="stop-color:#753B00"/>
			<stop  offset="1" style="stop-color:#A98625"/>
		</linearGradient>
		<path class="st3" d="M1960.9,1185.4c0,0-25.7-193.1-102.3-199.6s-121.4,89-121.4,89s-69.2-183-199.5-210.5
			c-123-25.9-239.8,296.5-239.8,296.5s-33.6-81.1-95.2-77.8c-73.7,4-119.3,95.2-119.3,95.2L1960.9,1185.4z"/>
		
			<linearGradient id="SVGID_6_" gradientUnits="userSpaceOnUse" x1="667.435" y1="714.6877" x2="667.435" y2="1343.72" gradientTransform="matrix(1 0 0 -1 0 900)">
			<stop  offset="0" style="stop-color:#84002F"/>
			<stop  offset="0.99" style="stop-color:#4A001E"/>
		</linearGradient>
		<path class="st4" d="M1949.3-332.6l-44.7,146.2v0.1l-9,29.4c0,0-157.8,362.3-469,341.4c-428.3-28.8-730.2-577.7-730.2-577.7
			S511-94.1,61.8-80.2c-436.7,13.6-676.2-363.5-676.2-363.5h27.2c129.6,0.2,702.7,2.3,1304.7,23.4h0.1
			C1170.8-404.4,1640.4-377.6,1949.3-332.6z"/>
		<path class="st5" d="M1904.6-186.4l-9,29.4c0,0-157.8,362.3-469,341.4c-428.3-28.8-730.2-577.7-730.2-577.7S511-94.1,61.8-80.2
			c-436.7,13.6-676.2-363.5-676.2-363.5h27.2c0,0,235.1,340.2,653,327.7c441.7-13.2,616.6-304.3,616.6-304.3h35.3
			c0,0,297.9,529.4,706.1,547.9C1765,143.1,1901.8-180.1,1904.6-186.4z"/>
		<path class="st6" d="M833-419.5c0,0,147.2,305.8,388,426.5c0,0-227-29.8-481.5-426.5L833-419.5z"/>
		<path class="st7" d="M1933.7-334.8c0,0-109.9,255.2-354.1,367.8c0,0,199-47,331.1-239.2l38.6-126.3L1933.7-334.8z"/>
	</g>
</g>
</svg>
