<?xml version="1.0" encoding="utf-8"?>
<!-- Generator: Adobe Illustrator 25.2.3, SVG Export Plug-In . SVG Version: 6.00 Build 0)  -->
<svg version="1.1" id="Layer_1" xmlns="http://www.w3.org/2000/svg" xmlns:xlink="http://www.w3.org/1999/xlink" x="0px" y="0px"
	 viewBox="0 0 1600 900" style="enable-background:new 0 0 1600 900;" xml:space="preserve">
<style type="text/css">
	.st0{clip-path:url(#SVGID_2_);}
	.st1{fill-rule:evenodd;clip-rule:evenodd;fill:url(#SVGID_3_);}
	.st2{fill-rule:evenodd;clip-rule:evenodd;fill:#680E36;}
	.st3{fill-rule:evenodd;clip-rule:evenodd;fill:#D6482A;}
	.st4{opacity:0.67;fill-rule:evenodd;clip-rule:evenodd;fill:#A62764;enable-background:new    ;}
	.st5{opacity:0.3;}
	.st6{fill-rule:evenodd;clip-rule:evenodd;fill:#811021;}
	.st7{fill-rule:evenodd;clip-rule:evenodd;fill:#6A0621;}
	.st8{fill-rule:evenodd;clip-rule:evenodd;fill:#9B1F21;}
	.st9{fill:url(#SVGID_4_);}
	.st10{fill:url(#SVGID_5_);}
	.st11{fill:url(#SVGID_6_);}
	.st12{fill:url(#SVGID_7_);}
	.st13{fill:url(#SVGID_8_);}
	.st14{fill:url(#SVGID_9_);}
	.st15{fill:#AC4034;}
	.st16{fill:#560A27;}
	.st17{opacity:0.1;}
	.st18{fill:#FFFFFF;}
	.st19{opacity:0.2;}
	.st20{fill-rule:evenodd;clip-rule:evenodd;fill:url(#SVGID_10_);}
	.st21{fill-rule:evenodd;clip-rule:evenodd;fill:#11132D;}
	.st22{fill-rule:evenodd;clip-rule:evenodd;fill:url(#SVGID_11_);}
	.st23{fill-rule:evenodd;clip-rule:evenodd;}
	.st24{fill-rule:evenodd;clip-rule:evenodd;fill:url(#SVGID_12_);}
	.st25{fill-rule:evenodd;clip-rule:evenodd;fill:url(#SVGID_13_);}
</style>
<g>
	<defs>
		<rect id="SVGID_1_" width="1600" height="900"/>
	</defs>
	<clipPath id="SVGID_2_">
		<use xlink:href="#SVGID_1_"  style="overflow:visible;"/>
	</clipPath>
	<g class="st0">
		
			<linearGradient id="SVGID_3_" gradientUnits="userSpaceOnUse" x1="800" y1="149.56" x2="800" y2="1010.36" gradientTransform="matrix(1 0 0 -1 0 900)">
			<stop  offset="0" style="stop-color:#631336"/>
			<stop  offset="1" style="stop-color:#23001C"/>
		</linearGradient>
		<polygon class="st1" points="-738.2,722.8 -738.2,-110.4 2338.2,-110.4 2338.2,750.4 		"/>
		<polygon class="st2" points="-746.8,779.3 -751.1,916.9 2348.1,916.9 2347.9,781.8 		"/>
		<path class="st3" d="M-856.8,779.3c0,0,779.6,51,1690.6,51s1623.1-48.5,1623.1-48.5V742l-381.4-33.3h-2585l-347.3,15.4V779.3z"/>
		<path class="st3" d="M-357.8,786.1c0,0,482.5,52.4,1157.8,52.4s1157.7-52.4,1157.7-52.4v11.6c0,0-502.9,60-1157.7,60
			s-1157.6-60.1-1157.6-60.1L-357.8,786.1z"/>
		<polygon class="st4" points="828.7,830.3 835.1,708.7 835.9,708.7 836.8,830.3 		"/>
		<polygon class="st4" points="952.8,830.3 902.2,708.7 903.1,708.7 960.9,830.3 		"/>
		<polygon class="st4" points="1085.6,827.6 968.3,706.7 970,706.7 1093.7,827.6 		"/>
		<polygon class="st4" points="1243.3,824.6 1041,706.7 1042.6,706.7 1251.4,824.6 		"/>
		<polygon class="st4" points="1391.4,818.5 1103.4,706.7 1105.1,706.7 1399.4,818.5 		"/>
		<polygon class="st4" points="1516.9,811.8 1167,706.7 1168.7,706.7 1524.9,811.8 		"/>
		<polygon class="st4" points="1627.3,806.3 1232.6,708.7 1234.3,708.7 1635.3,806.3 		"/>
		<polygon class="st4" points="1717.4,799.8 1287.9,708.7 1289.6,708.7 1725.4,799.8 		"/>
		<polygon class="st4" points="1833,792.1 1379.6,708.7 1381.3,708.7 1841.1,792.1 		"/>
		<polygon class="st4" points="716.2,830.3 766.9,708.7 766,708.7 708.2,830.3 		"/>
		<polygon class="st4" points="583.4,827.6 700.7,706.7 699,706.7 575.4,827.6 		"/>
		<polygon class="st4" points="425.7,824.6 628.1,706.7 626.4,706.7 417.7,824.6 		"/>
		<polygon class="st4" points="277.7,818.5 565.7,706.7 564,706.7 269.6,818.5 		"/>
		<polygon class="st4" points="152.2,813.2 502.1,706.7 500.4,706.7 144.1,813.2 		"/>
		<polygon class="st4" points="40.4,807.7 436.5,708.7 434.8,708.7 32.4,807.7 		"/>
		<polygon class="st4" points="-49.7,801.6 381.1,708.7 379.5,708.7 -57.8,801.6 		"/>
		<polygon class="st4" points="-167.3,794.1 289.5,708.7 287.8,708.7 -175.3,794.1 		"/>
		<g class="st5">
			<path d="M1885,916.9l-85.5-104.1L1628,786.1l-80.1-33.1l-285.1-17.1c-476.7-26.3-786.9-14.8-1300.2,14.6l-289.5,9.5l-76.4,22.4
				l-219.1,25.4l-16.3,109.2h-99.5v-198l682-12.2H2044l303.3,25.8l-9,184.5L1885,916.9z"/>
		</g>
		<polygon class="st6" points="1086,835.3 1085.6,827.6 1055.3,796.3 1093.7,827.6 1093.7,835.2 		"/>
		<polygon class="st6" points="1243.3,831 1243.3,824.6 1204.9,802.2 1251.4,824.6 1248.5,830.8 		"/>
		<polygon class="st6" points="1390.1,825.3 1391.4,818.5 1343.3,799.8 1399.4,818.5 1399.4,825.3 		"/>
		<polygon class="st7" points="1518.6,818.5 1516.9,811.8 1494.2,804.9 1524.9,811.8 1524.6,818.5 		"/>
		<polygon class="st8" points="960.9,837.5 960.9,830.3 938.7,796.3 952.8,830.3 953.1,837.5 		"/>
		<polygon class="st8" points="828.7,837.5 828.7,830.3 836.8,815.8 836.8,830.3 836.8,837.5 		"/>
		<polygon class="st8" points="708.2,838.1 708.2,830.3 724,811.8 716.2,830.3 716,837.5 		"/>
		<polygon class="st6" points="583.9,836.7 583.4,827.6 598.8,811.8 575.4,827.6 577.4,836.3 		"/>
		<polygon class="st6" points="417.7,832.9 417.7,824.6 445.3,813.2 425.7,824.6 426.8,833.2 		"/>
		<polygon class="st6" points="269.6,827.8 269.6,818.5 305.4,807.7 277.7,818.5 275.4,827.8 		"/>
		<polygon class="st6" points="144.1,822.2 144.1,813.2 170.1,807.7 152.2,813.2 149.3,822.5 		"/>
		
			<linearGradient id="SVGID_4_" gradientUnits="userSpaceOnUse" x1="75.9835" y1="172.08" x2="75.9835" y2="350.3195" gradientTransform="matrix(1 0 0 -1 0 900)">
			<stop  offset="0" style="stop-color:#753B00"/>
			<stop  offset="1" style="stop-color:#A98625"/>
		</linearGradient>
		<path class="st9" d="M-136.7,703.3c0,0,18.2-74.2,66.1-83.8s68.5,51.7,68.5,51.7s36.5-134.4,111.8-120.4
			C162.4,560.5,139,665,139,665s29.3-25.7,68.6-13.4s33.8,70.7,33.8,70.7c5.8-12.5,17.8-21.1,31.5-22.5
			c23.8-2.9,32.5,28.2,32.5,28.2h-456C-150.6,727.9-162.8,701.6-136.7,703.3z"/>
		
			<linearGradient id="SVGID_5_" gradientUnits="userSpaceOnUse" x1="75.9835" y1="172.05" x2="75.9835" y2="342.8362" gradientTransform="matrix(1 0 0 -1 0 900)">
			<stop  offset="0" style="stop-color:#5E2500"/>
			<stop  offset="1" style="stop-color:#815900"/>
		</linearGradient>
		<path class="st10" d="M-136.7,704.3c0,0,18.2-71.1,66.1-80.3s68.5,49.5,68.5,49.5s36.5-128.8,111.8-115.4
			c52.7,9.4,29.3,109.5,29.3,109.5s29.3-24.6,68.6-12.8s33.8,67.7,33.8,67.7s7.7-18.8,31.5-21.6s32.5,27,32.5,27h-456
			C-150.6,727.9-162.8,702.7-136.7,704.3z"/>
		
			<linearGradient id="SVGID_6_" gradientUnits="userSpaceOnUse" x1="1662.14" y1="167.12" x2="1662.14" y2="345.067" gradientTransform="matrix(1 0 0 -1 0 900)">
			<stop  offset="0" style="stop-color:#896600"/>
			<stop  offset="1" style="stop-color:#D19F25"/>
		</linearGradient>
		<path class="st11" d="M1890.3,732.9c0,0-13.3-106.6-53.2-110.1s-63.1,49.1-63.1,49.1s-36-101-103.8-116.1
			c-64-14.3-124.7,163.6-124.7,163.6s-17.5-44.8-49.5-42.9c-38.3,2.2-62,52.5-62,52.5L1890.3,732.9z"/>
		
			<linearGradient id="SVGID_7_" gradientUnits="userSpaceOnUse" x1="1664.535" y1="167.12" x2="1664.535" y2="334.8601" gradientTransform="matrix(1 0 0 -1 0 900)">
			<stop  offset="0" style="stop-color:#753B00"/>
			<stop  offset="1" style="stop-color:#A98625"/>
		</linearGradient>
		<path class="st12" d="M1892.7,732.9c0,0-13.3-100.5-53.2-103.8s-63.1,46.3-63.1,46.3s-36-95.2-103.8-109.5
			c-64-13.5-124.7,154.2-124.7,154.2s-17.5-42.2-49.5-40.5c-38.3,2.1-62,49.5-62,49.5L1892.7,732.9z"/>
		
			<linearGradient id="SVGID_8_" gradientUnits="userSpaceOnUse" x1="1219.9399" y1="687.3263" x2="1219.9399" y2="1014.42" gradientTransform="matrix(1 0 0 -1 0 900)">
			<stop  offset="0" style="stop-color:#84002F"/>
			<stop  offset="0.99" style="stop-color:#4A001E"/>
		</linearGradient>
		<path class="st13" d="M1886.6-56.6l-23.2,76l0,0l-4.7,15.3c0,0-82.1,188.4-243.9,177.5C1392,197.3,1235-88.2,1235-88.2
			S1138.6,67.4,904.9,74.7c-227.1,7.1-351.7-189.1-351.7-189.1h14.2c67.4,0.1,365.5,1.2,678.5,12.2h0.1
			C1481.7-93.9,1726-80,1886.6-56.6z"/>
		
			<linearGradient id="SVGID_9_" gradientUnits="userSpaceOnUse" x1="226.74" y1="686.4198" x2="226.74" y2="1014.98" gradientTransform="matrix(1 0 0 -1 0 900)">
			<stop  offset="0" style="stop-color:#84002F"/>
			<stop  offset="0.99" style="stop-color:#4A001E"/>
		</linearGradient>
		<path class="st14" d="M548.8-114.8l4.2-0.2l-1.2,15.1c0,0-185.1,297.3-407.8,313C-15.3,224.2-92.7,43.5-95,38v-0.1l-2-45.8
			l-2.6-59.1c159.6-24.2,401.7-38.7,636-47.3L548.8-114.8z"/>
		<path class="st15" d="M553.1-115l-1.2,15.1c0,0-185.1,297.3-407.8,313C-15.3,224.2-92.7,43.5-95,38v-0.1l-3.9-55.7
			c0.1,1.1,0.7,4.5,1.8,9.9c8.7,41.8,54.7,189.1,236.5,191.4c198.2,2.5,409.5-298.3,409.5-298.3L553.1-115z"/>
		<path class="st15" d="M1863.4,19.4l-4.7,15.3c0,0-82.1,188.4-243.9,177.5C1392,197.3,1235-88.2,1235-88.2S1138.6,67.4,904.9,74.7
			c-227.1,7.1-351.7-189.1-351.7-189.1h14.2c0,0,122.3,176.9,339.6,170.4c229.7-6.9,320.7-158.3,320.7-158.3h18.3
			c0,0,154.9,275.4,367.3,285C1790.8,190.8,1861.9,22.7,1863.4,19.4z"/>
		<path class="st16" d="M1353-98.1c0,0,102.6,149.6,258.4,155.9S1847.9-60,1847.9-60l22.2,1c0,0-99.3,154.7-258.7,150.2
			S1336.7-98.1,1336.7-98.1H1353z"/>
		<g class="st17">
			<path class="st18" d="M1306.1-101.8c0,0,76.6,159.1,201.8,221.8c0,0-118.1-15.5-250.4-221.8L1306.1-101.8z"/>
		</g>
		<path class="st16" d="M414.5-113.3c0,0-102.5,155.8-258.4,162.4S-80.4-73.7-80.4-73.7l-22.2,1.1c0,0,99.3,161.1,258.7,156.4
			s274.7-197.1,274.7-197.1H414.5z"/>
		<g class="st17">
			<path class="st18" d="M461.4-117.2c0,0-76.6,165.7-201.8,231c0,0,118.1-16.1,250.4-231H461.4z"/>
		</g>
		<path class="st16" d="M-111-71.3c0,0,57.2,138.3,184.2,199.2c0,0-103.5-25.4-172.2-129.6l-20.1-68.4L-111-71.3z"/>
		<path class="st16" d="M647.9-113.6c0,0,100.1,131.2,249.2,132.9c154.9,1.8,237.2-125.2,237.2-125.2l16.3,1.8
			c0,0-77.5,153.1-248.9,153.1C723.5,49.2,629.8-114,629.8-114L647.9-113.6z"/>
		<g class="st19">
			<polygon points="70.6,794.6 -3.2,822.3 -172.8,810.5 -55.2,793.6 			"/>
		</g>
		
			<linearGradient id="SVGID_10_" gradientUnits="userSpaceOnUse" x1="8.375" y1="137.59" x2="8.375" y2="163.79" gradientTransform="matrix(1 0 0 -1 0 900)">
			<stop  offset="1.000000e-02" style="stop-color:#3A2A51"/>
			<stop  offset="1" style="stop-color:#49455A"/>
		</linearGradient>
		<polygon class="st20" points="-59.2,757.7 -42.4,736.2 76,738.6 52.8,762.4 		"/>
		<polygon class="st21" points="-55.2,793.6 -59.2,757.7 52.8,762.4 49.7,800.3 		"/>
		
			<linearGradient id="SVGID_11_" gradientUnits="userSpaceOnUse" x1="62.85" y1="99.71" x2="62.85" y2="161.43" gradientTransform="matrix(1 0 0 -1 0 900)">
			<stop  offset="1.000000e-02" style="stop-color:#281742"/>
			<stop  offset="1" style="stop-color:#322D45"/>
		</linearGradient>
		<polygon class="st22" points="70.6,794.6 49.7,800.3 52.8,762.4 76,738.6 		"/>
		<g class="st19">
			<polygon class="st23" points="1472.8,807.5 1546.6,835.2 1716.2,823.4 1598.5,806.5 			"/>
		</g>
		
			<linearGradient id="SVGID_12_" gradientUnits="userSpaceOnUse" x1="-1129.91" y1="124.72" x2="-1129.91" y2="150.93" gradientTransform="matrix(-1 0 0 -1 405.07 900)">
			<stop  offset="1.000000e-02" style="stop-color:#3A2A51"/>
			<stop  offset="1" style="stop-color:#49455A"/>
		</linearGradient>
		<polygon class="st24" points="1602.6,770.5 1585.8,749.1 1467.4,751.4 1490.6,775.3 		"/>
		<polygon class="st21" points="1598.5,806.5 1602.6,770.5 1490.6,775.3 1493.6,813.2 		"/>
		
			<linearGradient id="SVGID_13_" gradientUnits="userSpaceOnUse" x1="-1075.4401" y1="86.85" x2="-1075.4401" y2="148.57" gradientTransform="matrix(-1 0 0 -1 405.07 900)">
			<stop  offset="1.000000e-02" style="stop-color:#281742"/>
			<stop  offset="1" style="stop-color:#322D45"/>
		</linearGradient>
		<polygon class="st25" points="1472.8,807.5 1493.6,813.2 1490.6,775.3 1467.4,751.4 		"/>
	</g>
</g>
</svg>
