<?xml version="1.0" encoding="utf-8"?>
<!-- Generator: Adobe Illustrator 25.2.3, SVG Export Plug-In . SVG Version: 6.00 Build 0)  -->
<svg version="1.1" id="Layer_1" xmlns="http://www.w3.org/2000/svg" xmlns:xlink="http://www.w3.org/1999/xlink" x="0px" y="0px"
	 viewBox="0 0 1600 900" style="enable-background:new 0 0 1600 900;" xml:space="preserve">
<style type="text/css">
	.st0{fill:#2BE21B;}
	.st1{fill:#FFF6ED;}
	.st2{fill:#2C275B;}
	.st3{fill:#0AE9EF;}
	.st4{fill:#FFFFFF;}
	.st5{fill:#EF5925;}
	.st6{fill:#FBBE00;}
	.st7{fill:#E7412B;}
	.st8{fill:#FF00C9;}
	.st9{fill:#FF9D00;}
	.st10{fill:#E63D11;}
	.st11{fill:#DCF23B;}
	.st12{fill:#FDEBDB;}
	.st13{fill:#14DEE2;}
	.st14{fill:#D40075;}
	.st15{fill:#FF9CC2;}
	.st16{fill:#260000;}
</style>
<polygon class="st0" points="645.9,410 648.7,211.3 583,217.5 579.9,305.7 543.2,248.5 526.5,314.2 484.2,236.3 431.1,247.4 
	510.6,444.1 563.6,431.7 561.3,347.9 588,415.2 "/>
<path class="st1" d="M506.8,303.8c0,0-10.9-0.8-12.1,15.6C494.7,319.5,509.2,315.2,506.8,303.8z"/>
<path class="st1" d="M514.9,325.7c0,0-10.9-0.7-12.1,15.6C502.8,341.4,517.3,337.1,514.9,325.7z"/>
<path class="st1" d="M523.2,348.1c0,0-10.9-0.8-12.1,15.6C511.1,363.8,525.6,359.5,523.2,348.1z"/>
<path class="st1" d="M531.6,370.8c0,0-10.9-0.8-12.1,15.7C519.5,386.5,534,382.2,531.6,370.8z"/>
<path class="st1" d="M538.7,390c0,0-10.9-0.8-12.1,15.6C526.6,405.6,541.1,401.4,538.7,390z"/>
<path class="st1" d="M469.6,317.6c0,0,7.8-7.7,19.4,4C489,321.6,475.3,327.8,469.6,317.6z"/>
<path class="st1" d="M477.7,339.5c0,0,7.7-7.7,19.4,4C497.1,343.5,483.4,349.7,477.7,339.5z"/>
<path class="st1" d="M486,361.9c0,0,7.7-7.7,19.4,4C505.4,365.9,491.7,372.1,486,361.9z"/>
<path class="st1" d="M494.4,384.6c0,0,7.7-7.7,19.4,4C513.8,388.5,500.1,394.7,494.4,384.6z"/>
<path class="st1" d="M501.5,403.8c0,0,7.7-7.7,19.4,4C520.9,407.8,507.2,414,501.5,403.8z"/>
<polygon class="st1" points="482.9,299 527.8,420.5 529.8,419.7 484.8,298.2 "/>
<path class="st2" d="M453.4,275.7c14.7-2.7,10.9,24.1,27.7,20.9c8.1-1.6,10.8-8.9,8.6-16.4c-2-7.1-5.3-10.8,0.8-16.8
	c-5.4,2.1-10,3-11.6,9.4c-0.8-1.6-5-9.6-8.3-10.6c-3.4,3-1,9.7-0.5,13.7C465.3,272.2,458.5,272.1,453.4,275.7z"/>
<path class="st1" d="M634.8,283.2c0,0-9.8-4.9-17.2,9.9C617.7,293,632.7,294.6,634.8,283.2z"/>
<path class="st1" d="M634,306.5c0,0-9.8-4.8-17.2,9.9C616.8,316.4,631.9,318,634,306.5z"/>
<path class="st1" d="M633.1,330.4c0,0-9.7-4.8-17.2,9.9C616,340.3,631,341.9,633.1,330.4z"/>
<path class="st1" d="M632.3,354.6c0,0-9.8-4.9-17.2,9.9C615.1,364.5,630.2,366,632.3,354.6z"/>
<path class="st1" d="M631.6,375c0,0-9.8-4.9-17.2,9.9C614.4,384.9,629.4,386.5,631.6,375z"/>
<path class="st1" d="M595.2,281.8c0,0,10.1-4.1,16.4,11.1C611.6,292.8,596.5,293.3,595.2,281.8z"/>
<path class="st1" d="M594.4,305.1c0,0,10.1-4.1,16.4,11.1C610.8,316.2,595.7,316.7,594.4,305.1z"/>
<path class="st1" d="M593.5,329c0,0,10.1-4.1,16.4,11.1C610,340.1,594.9,340.6,593.5,329z"/>
<path class="st1" d="M592.7,353.2c0,0,10.1-4.1,16.4,11.1C609.1,364.2,594,364.7,592.7,353.2z"/>
<path class="st1" d="M592,373.6c0,0,10-4.1,16.4,11.1C608.4,384.7,593.3,385.2,592,373.6z"/>
<polygon class="st1" points="614.5,269.6 609.9,399.1 612,399.1 616.7,269.7 "/>
<path class="st2" d="M596.2,236.9c14.6,3.1,0.9,26.5,17.7,29.9c8.1,1.6,13.4-4.2,14.2-11.9c0.8-7.3-0.8-12,7.1-15.2
	c-5.8-0.1-10.4-1.1-14.3,4.3c-0.1-1.8-1-10.8-3.6-12.9c-4.3,1.5-4.6,8.6-5.6,12.5C608.5,238.2,602.2,235.5,596.2,236.9z"/>
<path class="st3" d="M755.5,329.5c0,0-2.2-70.8-53.4-63.7S659,397.7,721.1,395.9c32.2-0.9,36.4-32,35.8-43l-21.5,2.6
	c0,0,1.2,13.3-13.9,14.6c-19.7,1.7-21.4-35.6-21.4-35.6L755.5,329.5z M707,286.7c12.8-1.4,15.2,24.9,15.2,24.9l-22.9,2.7
	C698.5,307,697.8,287.7,707,286.7z"/>
<path class="st2" d="M681.8,354.9c-0.7,1.7,2.6,5.5,5.5,2.5S683.8,349.9,681.8,354.9z"/>
<path class="st2" d="M679.1,311.3c-0.7,1.7,2.6,5.5,5.5,2.5S681.1,306.2,679.1,311.3z"/>
<path class="st2" d="M699.4,274.1c-0.7,1.7,2.6,5.5,5.5,2.5S701.4,269.1,699.4,274.1z"/>
<path class="st2" d="M734,293.1c-0.7,1.7,2.6,5.5,5.4,2.5S736,288.1,734,293.1z"/>
<path class="st2" d="M721.8,321.4c-0.7,1.7,2.6,5.5,5.5,2.5S723.8,316.3,721.8,321.4z"/>
<path class="st2" d="M743.8,361.2c-0.7,1.7,2.6,5.5,5.5,2.5S745.8,356.1,743.8,361.2z"/>
<path class="st2" d="M713.9,384.1c-0.7,1.7,2.6,5.5,5.5,2.5S716,379,713.9,384.1z"/>
<path class="st4" d="M688.3,334.1l-5.1,12.6l1.6-0.1l-6.9-11.7l0.1,0.8l5.1-12.6l-1.6,0.1l6.9,11.7L688.3,334.1z M681.4,322.4
	l-5.1,12.6l-0.2,0.4l0.2,0.4l6.9,11.7l0.9,1.5l0.7-1.7l5.1-12.6l0.2-0.4l-0.2-0.4l-6.9-11.8l-0.9-1.5L681.4,322.4z"/>
<path class="st4" d="M735.2,315.4l3.5-13.1l-1.6,0.3l8.3,10.8l-0.2-0.8l-3.5,13.1l1.6-0.3l-8.3-10.8L735.2,315.4z M743.4,326.2
	l3.5-13.1l0.1-0.4l-0.3-0.4l-8.3-10.8l-1.1-1.4l-0.5,1.7l-3.5,13.2l-0.1,0.4l0.3,0.3l8.3,10.8l1.1,1.4L743.4,326.2z"/>
<path class="st4" d="M704.1,318.7l11.7,6.9l0.1-1.6l-12.6,5.1l0.8,0l-11.7-6.9l-0.1,1.6l12.6-5.1L704.1,318.7z M691.5,323.8
	l11.7,6.9l0.4,0.2l0.4-0.2l12.6-5.1l1.7-0.7l-1.5-0.9l-11.7-6.9l-0.4-0.2l-0.4,0.2l-12.6,5.1l-1.7,0.7L691.5,323.8z"/>
<path class="st4" d="M730,376.5l12.2-6l-1.3-1l-2.6,13.3l0.5-0.6l-12.2,6l1.3,1l2.6-13.3L730,376.5z M727.4,389.8l12.2-6l0.4-0.2
	l0.1-0.4l2.7-13.3l0.3-1.8l-1.6,0.8l-12.2,6l-0.4,0.2l-0.1,0.4l-2.6,13.3l-0.3,1.8L727.4,389.8z"/>
<path class="st4" d="M702.4,367.3l4.9,12.7l1.1-1.2l-13-3.8l0.6,0.5l-4.9-12.7L690,364l13,3.8L702.4,367.3z M689.4,363.5l4.9,12.7
	l0.2,0.4l0.4,0.1l13,3.8l1.7,0.5l-0.6-1.7l-4.9-12.7l-0.2-0.4l-0.4-0.1l-13-3.8l-1.7-0.5L689.4,363.5z"/>
<path class="st4" d="M694.2,292.1l-10.3,8.8l1.5,0.6l-0.7-13.6l-0.3,0.7l10.3-8.8l-1.5-0.6l0.7,13.6L694.2,292.1z M693.5,278.6
	l-10.3,8.8l-0.3,0.3v0.4l0.7,13.6l0.1,1.8l1.4-1.2l10.3-8.8l0.3-0.3v-0.4l-0.7-13.6l-0.1-1.8L693.5,278.6z"/>
<path class="st4" d="M719.8,285.1l-7.9-11l-0.7,1.4l13.6,0.5l-0.7-0.4l7.9,11l0.8-1.4l-13.6-0.5L719.8,285.1z M733.4,285.5l-7.9-11
	l-0.3-0.4h-0.4l-13.6-0.5l-1.8,0l1,1.4l7.9,11.1l0.3,0.4h0.4l13.6,0.5l1.8,0L733.4,285.5z"/>
<path class="st5" d="M765.7,522.7l37.8-5.4l2.9,27.7c10.8-15,28.3-23.8,46.8-23.5c36.3,0.4,62,49.1,61.7,147.1l-51.4,1.3
	c0,0,6.4-103.9-28.8-103.4c-10.8,0.2-15.4,7.1-21.2,16.1l10.5,91.8l-48.1,1.8L765.7,522.7z"/>
<path class="st4" d="M791.2,583.3c2.3-3.9-5.1-7.8-6.3-3.1c-0.5,1.7,0.3,3.5,2,4.2C788.5,585.1,790.2,584.6,791.2,583.3z"/>
<path class="st4" d="M887.8,605.3c2.3-3.9-5.1-7.8-6.2-3.1c-0.5,1.7,0.3,3.5,2,4.2C885,607.1,886.8,606.6,887.8,605.3z"/>
<path class="st4" d="M838,550.1c2.3-3.9-5.1-7.8-6.3-3.1c-0.5,1.7,0.3,3.5,2,4.2C835.3,551.9,837,551.4,838,550.1z"/>
<path class="st4" d="M798.4,659.7c2.3-3.9-5.1-7.8-6.2-3.1c-0.5,1.7,0.3,3.5,2,4.2C795.7,661.5,797.4,661,798.4,659.7z"/>
<path class="st4" d="M784.7,533c0.3,2.8,0.6,5.8,0.6,8.8l0.3-0.1c1.5-2.5,3.4-4.4,5-6.7c0.2,0,0.4,0,0.5,0.2c-1,2.5-3.4,4.5-4.5,6.8
	c-0.5,0.5-0.9,1.1-1.2,1.7c3.4,0,7.3-0.5,10.3-0.5c-0.3,1-1.4,0.9-2.3,1c-2.4,0-4.5,0.5-7,0.4l-0.1,0.1c2.4,2.8,6.1,4.5,7.5,7.9
	c-0.1,0.1-0.2,0.2-0.4,0.2c-2.4-2.8-5.2-4.8-7.8-7.3c-0.1,4.1,0.7,8.1,0.2,12.4c-0.4-0.3-0.7-0.8-0.8-1.4c-0.1-3.9-0.4-7.6-0.6-11.6
	l-0.7,0.8c-1.8,2.4-2.9,5.7-5.7,7.3h-0.2c0.1-0.9,1.2-1.4,1.6-2.4l3.6-5.5c-0.9-0.3-1.8,0-2.9,0.1c-1.8-0.2-3.8,0.3-5.6-0.2
	c-0.2-0.2-0.5-0.3-0.3-0.6c1.1-0.4,2.4,0.1,3.8,0c1.8-0.2,3.8-0.2,5.8-0.4c-2.5-2.2-4.9-4.6-7.1-7.1c0.3-0.5,0.9-0.1,1.2,0.2
	c2.1,2.1,4.2,4.2,6.5,6.1l0.1-0.2c-0.3-3.7-0.3-7.8-0.6-11.2C785,530.8,784.2,532.6,784.7,533z"/>
<path class="st4" d="M791.8,606.8c0.3,2.8,0.5,5.8,0.6,8.8l0.3-0.1c1.5-2.5,3.4-4.4,5-6.7c0.2,0,0.4,0,0.5,0.2
	c-1,2.5-3.4,4.5-4.5,6.8c-0.5,0.5-0.9,1.1-1.2,1.7c3.4,0,7.3-0.5,10.3-0.5c-0.3,1.1-1.4,0.9-2.3,1c-2.4,0-4.5,0.5-7,0.4l-0.1,0.1
	c2.4,2.8,6.1,4.5,7.5,7.9c-0.1,0.1-0.2,0.2-0.4,0.2c-2.4-2.8-5.2-4.8-7.8-7.3c-0.1,4.1,0.7,8.1,0.2,12.4c-0.4-0.4-0.7-0.8-0.8-1.4
	c-0.1-3.9-0.4-7.6-0.6-11.6l-0.7,0.8c-1.8,2.4-2.9,5.7-5.7,7.3l-0.2,0c0.1-0.9,1.2-1.4,1.6-2.3l3.6-5.4c-0.9-0.3-1.8,0-2.9,0.1
	c-1.8-0.2-3.8,0.3-5.6-0.2c-0.2-0.2-0.5-0.3-0.4-0.6c1.1-0.4,2.4,0.1,3.8,0c1.8-0.2,3.8-0.1,5.8-0.4c-2.5-2.2-4.9-4.6-7.1-7.1
	c0.3-0.5,0.9-0.1,1.2,0.2c2.1,2.1,4.2,4.2,6.5,6.1l0.1-0.2c-0.3-3.7-0.3-7.7-0.6-11.2C792,604.6,791.3,606.4,791.8,606.8z"/>
<path class="st4" d="M878.3,558.2c0.3,2.8,0.5,5.8,0.6,8.8l0.3-0.1c1.4-2.5,3.4-4.4,5-6.7c0.2,0,0.4,0,0.5,0.2
	c-1,2.5-3.4,4.6-4.5,6.8c-0.4,0.6-1,1.1-1.2,1.7c3.4,0,7.3-0.5,10.4-0.5c-0.3,1.1-1.4,0.9-2.3,1c-2.4,0-4.5,0.5-7,0.4l-0.1,0.1
	c2.4,2.8,6.1,4.5,7.5,7.9c-0.1,0.1-0.2,0.2-0.4,0.2c-2.4-2.8-5.2-4.8-7.8-7.3c-0.1,4.1,0.7,8.1,0.2,12.4c-0.4-0.3-0.7-0.8-0.8-1.4
	c-0.1-3.9-0.4-7.6-0.6-11.6l-0.7,0.8c-1.8,2.3-2.9,5.8-5.7,7.3l-0.2-0.1c0.1-0.9,1.2-1.4,1.6-2.3l3.6-5.5c-0.9-0.3-1.8,0-2.9,0.1
	c-1.9-0.2-3.8,0.3-5.6-0.2c-0.2-0.2-0.5-0.3-0.3-0.6c1.1-0.4,2.4,0.1,3.8,0c1.8-0.2,3.8-0.1,5.8-0.4c-2.5-2.2-4.9-4.6-7.1-7.1
	c0.3-0.5,0.9-0.1,1.2,0.2c2.1,2.1,4.2,4.2,6.5,6.1l0.1-0.2c-0.3-3.7-0.3-7.8-0.6-11.2C878.6,556,877.9,557.8,878.3,558.2z"/>
<path class="st4" d="M889.9,629.1c0.3,2.8,0.5,5.8,0.6,8.8l0.3-0.1c1.5-2.5,3.4-4.4,5-6.7c0.2,0,0.4,0,0.5,0.2
	c-1,2.5-3.4,4.5-4.5,6.8c-0.4,0.6-1,1.1-1.2,1.7c3.4,0,7.3-0.5,10.3-0.5c-0.3,1-1.4,0.9-2.3,1c-2.4,0-4.5,0.5-7,0.4l-0.1,0.1
	c2.4,2.8,6.1,4.5,7.5,7.9c-0.1,0.1-0.2,0.2-0.4,0.2c-2.4-2.8-5.2-4.8-7.8-7.3c-0.1,4.1,0.7,8.1,0.2,12.4c-0.4-0.4-0.7-0.8-0.8-1.4
	c-0.1-3.9-0.4-7.6-0.6-11.6l-0.7,0.8c-1.9,2.3-2.9,5.7-5.7,7.3H883c0.1-0.9,1.2-1.4,1.6-2.3l3.6-5.5c-0.9-0.3-1.8,0-2.9,0.1
	c-1.8-0.2-3.8,0.3-5.6-0.2c-0.2-0.2-0.5-0.3-0.3-0.6c1.1-0.4,2.4,0.1,3.8,0c1.8-0.2,3.8-0.2,5.8-0.4c-2.5-2.2-4.9-4.6-7.1-7.1
	c0.3-0.5,0.9-0.1,1.2,0.1c2.1,2.1,4.2,4.2,6.5,6.1l0.1-0.2c-0.3-3.7-0.3-7.8-0.6-11.2C890.2,627,889.5,628.8,889.9,629.1z"/>
<path class="st6" d="M633.2,548.5c-32.1,48.7-9.5,94,15.4,115.2c28.4,24.1,86.6,21.4,96.1-42.4C756,545.7,677.5,481.5,633.2,548.5z
	 M695.5,602c7.1,1.7,22.6,10.8,19,19.6c-5.3,12.9-23.6,1.5-29.2-6.8c1,13.5-9.6,42.1-22.8,23.4c-5.4-7.7-2.3-18.3,10.4-32.6
	c-17-1.8-32.6-11.4-26.4-23.4c4.2-8.1,22.8-1.3,30.5,7.7c-4.7-8.5-9.3-42.8,9-38.3c15.8,3.9,2.2,38.4,2.2,38.4
	c8.1-8,25.5-17.2,32.5-7.3C729.1,594.6,708.8,604,695.5,602z"/>
<path class="st7" d="M637.2,556.5c-0.8,2.3,3.8,7.1,7.4,2.9S639.5,549.7,637.2,556.5z"/>
<path class="st7" d="M650.2,541c-0.8,2.3,3.8,7.2,7.4,2.9S652.5,534.1,650.2,541z"/>
<path class="st7" d="M665.2,534.1c-0.8,2.3,3.8,7.1,7.4,2.9S667.5,527.3,665.2,534.1z"/>
<path class="st7" d="M683,533.2c-0.8,2.3,3.8,7.1,7.4,2.9S685.3,526.4,683,533.2z"/>
<path class="st7" d="M700.3,542.9c-0.8,2.3,3.8,7.1,7.4,2.9S702.6,536.1,700.3,542.9z"/>
<path class="st7" d="M714.3,556.1c-0.8,2.3,3.8,7.1,7.4,2.9S716.7,549.3,714.3,556.1z"/>
<path class="st7" d="M724,572.4c-0.8,2.3,3.8,7.1,7.4,2.9S726.3,565.6,724,572.4z"/>
<path class="st7" d="M730.1,590.6c-0.8,2.3,3.8,7.1,7.4,2.9S732.5,583.8,730.1,590.6z"/>
<path class="st7" d="M732.3,611.4c-0.8,2.3,3.8,7.1,7.4,2.9S734.7,604.6,732.3,611.4z"/>
<path class="st7" d="M728.3,627.1c-0.8,2.3,3.8,7.1,7.3,2.9S730.6,620.2,728.3,627.1z"/>
<path class="st7" d="M720.5,642.6c-0.8,2.3,3.8,7.1,7.4,2.9S722.8,635.8,720.5,642.6z"/>
<path class="st7" d="M707.9,657.6c-0.8,2.3,3.8,7.1,7.4,2.9S710.3,650.8,707.9,657.6z"/>
<path class="st7" d="M689.5,666.4c-0.8,2.3,3.8,7.1,7.4,2.9S691.8,659.6,689.5,666.4z"/>
<path class="st7" d="M627.4,573.4c-0.8,2.3,3.8,7.1,7.4,2.9S629.8,566.5,627.4,573.4z"/>
<path class="st7" d="M623.7,592.1c-0.8,2.3,3.8,7.1,7.4,2.9S626,585.3,623.7,592.1z"/>
<path class="st7" d="M624.2,612c-0.8,2.3,3.8,7.1,7.4,2.9S626.6,605.2,624.2,612z"/>
<path class="st7" d="M630.9,630.2c-0.8,2.3,3.8,7.1,7.4,2.9S633.3,623.4,630.9,630.2z"/>
<path class="st7" d="M639.8,644.5c-0.8,2.3,3.8,7.1,7.4,2.9S642.2,637.7,639.8,644.5z"/>
<path class="st7" d="M653.4,658.8c-0.8,2.3,3.8,7.1,7.4,2.9S655.8,651.9,653.4,658.8z"/>
<path class="st7" d="M669.5,667c-0.8,2.3,3.8,7.1,7.4,2.9S671.9,660.2,669.5,667z"/>
<path class="st8" d="M1047,608c0,0,20.4-89.2-45.8-97.1s-97.1,150.8-19,168.9c40.5,9.4,56-28.1,58.8-42l-27.7-3.8
	c0,0-2.8,17-22.2,13.7c-25.2-4.3-15-51.5-15-51.5L1047,608z M1000.4,538.6c16.5,2.5,10.9,36.1,10.9,36.1l-29.5-4.1
	C983.2,561.2,988.7,536.8,1000.4,538.6L1000.4,538.6z"/>
<path class="st4" d="M946.6,615.7c-1.4,1.9,1.5,7.8,6,4.9S950.8,610,946.6,615.7z"/>
<path class="st4" d="M957.5,560.3c-1.4,1.9,1.5,7.8,6,4.9S961.7,554.6,957.5,560.3z"/>
<path class="st4" d="M995.1,520.5c-1.4,1.9,1.5,7.8,6,4.9S999.3,514.8,995.1,520.5z"/>
<path class="st4" d="M1032,555.5c-1.4,1.9,1.5,7.8,6,4.9S1036.2,549.8,1032,555.5z"/>
<path class="st4" d="M1007.6,586.8c-1.4,1.9,1.5,7.8,6,4.9S1011.8,581.1,1007.6,586.8z"/>
<path class="st4" d="M1022,643.8c-1.4,1.9,1.5,7.8,6,4.9S1026.2,638.1,1022,643.8z"/>
<path class="st4" d="M977.2,662.7c-1.4,1.9,1.5,7.8,6,4.9S981.4,657,977.2,662.7z"/>
<path class="st4" d="M961.5,591.7l-10.5,14l2,0.4l-4.8-16.9l-0.2,1l10.5-14.1l-2-0.4l4.8,16.9L961.5,591.7z M956.8,574.8l-10.5,14.1
	l-0.3,0.5l0.2,0.5l4.8,16.9l0.6,2.2l1.4-1.8l10.5-14.1l0.3-0.5l-0.2-0.5l-4.8-16.9l-0.6-2.2L956.8,574.8z"/>
<path class="st4" d="M1026.2,583.8l8.7-15.3l-2-0.1l6.8,16.2l0.1-1l-8.7,15.2l2,0.1l-6.8-16.2L1026.2,583.8z M1033,599.9l8.7-15.3
	l0.3-0.5l-0.2-0.5l-6.8-16.2l-0.9-2.1l-1.2,2l-8.7,15.3l-0.3,0.5l0.2,0.5l6.8,16.2l0.9,2.1L1033,599.9z"/>
<path class="st4" d="M986.4,577.7l12.4,12.5l0.7-1.9l-17.4,2.2l1,0.3l-12.4-12.5l-0.7,1.9l17.3-2.2L986.4,577.7z M968.9,579.9
	l12.4,12.5l0.4,0.4l0.6-0.1l17.4-2.2l2.3-0.3l-1.6-1.6L988,576l-0.4-0.4l-0.5,0.1l-17.4,2.3l-2.3,0.3L968.9,579.9z"/>
<path class="st4" d="M999.8,658.4l17.2-3.5l-1.3-1.6l-7.7,15.8l0.8-0.6l-17.2,3.5l1.3,1.6l7.7-15.8L999.8,658.4z M992.1,674.2
	l17.2-3.5l0.5-0.1l0.3-0.5l7.7-15.8l1-2.1l-2.3,0.5l-17.2,3.5l-0.5,0.1l-0.3,0.5l-7.7,15.8l-1,2.1L992.1,674.2z"/>
<path class="st4" d="M968.3,637.9l2,17.4l1.7-1.1l-15-9l0.5,0.9l-2-17.4l-1.7,1.1l15,9L968.3,637.9z M953.3,628.9l2,17.4l0.1,0.6
	l0.5,0.3l15,9l2,1.2l-0.3-2.3l-2-17.4l0-0.6l-0.5-0.3l-15-9l-2-1.2L953.3,628.9z"/>
<path class="st4" d="M982.7,541.3l-15.8,7.6l1.6,1.3l3.6-17.1l-0.6,0.8l15.8-7.6l-1.6-1.3l-3.6,17.2L982.7,541.3z M986.3,524.1
	l-15.8,7.6l-0.5,0.3l-0.1,0.5l-3.6,17.2l-0.5,2.3l2.1-1l15.8-7.6l0.5-0.2l0.1-0.5l3.6-17.2l0.5-2.3L986.3,524.1z"/>
<path class="st4" d="M1017,540.8l-6.3-16.4l-1.4,1.5l16.8,5l-0.7-0.7l6.3,16.4l1.4-1.5l-16.8-5L1017,540.8z M1033.8,545.8l-6.3-16.4
	l-0.2-0.5l-0.6-0.2l-16.8-5l-2.2-0.7l0.8,2.2l6.3,16.4l0.2,0.5l0.5,0.2l16.8,5l2.2,0.7L1033.8,545.8z"/>
<polygon class="st9" points="931.7,394.3 1037.7,375.9 1030.7,322.2 976.2,331.4 953.2,165.1 887,177.5 "/>
<path class="st10" d="M925.8,280.3c0,0,9.1-0.8,7.9-14.5C933.7,265.8,922.3,271.2,925.8,280.3z"/>
<path class="st10" d="M915,191.9c3.4,1.9,7.5,5.1,8.1,9.1c0.4,2.6-1.1,4.5-2.7,6.7c-1.1,1.3-2,2.8-2.8,4.3c-1.3,2.9-1.4,5.3-0.5,7.4
	c1.7,3.8,6.7,5.4,11.4,7c2.5,0.7,4.9,1.7,7.1,2.9c8.8,5.9,4.4,16.8,1.2,24.8l-0.2,0.6c-3.4,8.5-0.7,18.1,7.4,26.4
	c8,8,12.3,14.9,10.9,26c-0.5,3.9-2,7.2-3.5,10.3c-2.2,4.6-4.5,9.3-3.1,16.1c1.1,5.3,3.9,9.3,6.7,13.2c2.5,3.5,4.8,6.8,6,11
	c1.3,4.6,0.9,9.4-1.1,13.7l1.7,0.8c2.1-4.7,2.5-10,1.2-15c-1.2-4.5-3.8-8-6.3-11.5c-2.8-3.9-5.4-7.6-6.4-12.5
	c-1.2-6.1,0.8-10.4,3-14.9c1.6-3.3,3.2-6.6,3.7-10.9c1.5-11.9-3.1-19.1-11.4-27.6c-3.6-3.6-11.5-13.2-7-24.4l0.3-0.6
	c3.3-8.1,8.2-20.4-1.9-27.1c-2.4-1.4-4.9-2.4-7.6-3.2c-4.4-1.4-8.9-2.9-10.3-6c-0.7-1.6-0.5-3.5,0.5-5.9c0.7-1.4,1.5-2.7,2.5-3.9
	c1.8-2.3,3.6-4.7,3.1-8.1c-0.5-3.8-3.6-7.3-9-10.4L915,191.9z"/>
<path class="st10" d="M943,367.3c0,0,10.1,3.2,15-12C958,355.2,943.4,356,943,367.3z"/>
<path class="st10" d="M961.6,369.5c0,0-10.6,0.5-9.8,16.5C951.8,386,965.2,380.2,961.6,369.5z"/>
<path class="st10" d="M931.6,340.4c0,0,10.1,3.2,15-12C946.5,328.3,931.9,329.1,931.6,340.4z"/>
<path class="st10" d="M919,202.9c0,0-6.4-4.5-13.3,5.2C905.7,208,916.2,210.8,919,202.9z"/>
<path class="st10" d="M959,344c0,0,3.8,9.9,18.7,4.3C977.7,348.3,968.1,337.3,959,344z"/>
<path class="st10" d="M939,265.1c0,0,3.8,9.9,18.7,4.3C957.8,269.4,948.1,258.3,939,265.1z"/>
<path class="st10" d="M894.5,181.4c0,0-0.6,19.9,25.5,13.1C920,194.5,912.4,170.9,894.5,181.4z"/>
<path class="st10" d="M923.3,249.1c0,0,10.1-3,5.7-18.4C929,230.7,917.2,239.6,923.3,249.1z"/>
<path class="st10" d="M921.7,190.1c0,0,4.5,9.6,19,2.9C940.7,193,930.3,182.7,921.7,190.1z"/>
<path class="st10" d="M959.4,246.7c0,0,0.3-10.6-15.7-11.1C943.7,235.6,948.4,249.5,959.4,246.7z"/>
<path class="st10" d="M937.2,303.6c0,0,10.6-0.2,10.3-16.2C947.6,287.5,933.9,292.8,937.2,303.6z"/>
<path class="st10" d="M969,333.5c0,0,0.1-10.6-15.9-10.9C953.1,322.6,958.1,336.5,969,333.5z"/>
<path class="st10" d="M924.5,214.5c0,0,3.8,9.9,18.7,4.3C943.3,218.8,933.6,207.7,924.5,214.5z"/>
<path class="st10" d="M941.3,376.7c-0.9-1.1-2.5-1.3-3.6-0.4s-1.3,2.5-0.4,3.6c0.1,0.1,0.2,0.3,0.4,0.4c2.2,2.4,5.5,0.4,4.2-2.8
	C941.7,377.2,941.5,376.9,941.3,376.7z"/>
<path class="st10" d="M1021.4,365.3c-0.9-1.1-2.5-1.3-3.6-0.4c-1.1,0.9-1.3,2.5-0.4,3.6c0.1,0.1,0.2,0.2,0.3,0.3
	c2.2,2.3,5.5,0.3,4.2-2.8C1021.7,365.8,1021.6,365.5,1021.4,365.3z"/>
<path class="st10" d="M938.1,317.5c-0.9-1.1-2.6-1.2-3.6-0.2c-1.1,0.9-1.2,2.6-0.2,3.6c0.1,0.1,0.1,0.1,0.2,0.2
	c2.2,2.4,5.5,0.4,4.2-2.8C938.4,318.1,938.3,317.8,938.1,317.5z"/>
<path class="st10" d="M960.1,280.2c-2.3-2.7-6.3,0.8-3.7,3.6c2.2,2.4,5.5,0.4,4.2-2.8C960.5,280.7,960.3,280.5,960.1,280.2z"/>
<path class="st10" d="M973.9,373c-2.3-2.7-6.3,0.8-3.7,3.6c2.2,2.3,5.5,0.3,4.2-2.8C974.3,373.5,974.1,373.2,973.9,373z"/>
<path class="st10" d="M922.5,260.2c-0.9-1.1-2.5-1.2-3.6-0.3c-1.1,0.9-1.2,2.5-0.3,3.6c0.1,0.1,0.2,0.2,0.2,0.3
	c2.2,2.4,5.5,0.4,4.2-2.8C922.9,260.7,922.7,260.4,922.5,260.2z"/>
<path class="st10" d="M949.4,224.2c-2.3-2.7-6.3,0.8-3.7,3.6c2.2,2.3,5.5,0.3,4.2-2.8C949.8,224.7,949.6,224.5,949.4,224.2z"/>
<path class="st10" d="M917.4,228.1c-2.3-2.7-6.3,0.8-3.7,3.6c2.2,2.4,5.5,0.4,4.2-2.7C917.7,228.6,917.6,228.3,917.4,228.1z"/>
<path class="st10" d="M939.3,178.3c-0.9-1.1-2.6-1.2-3.6-0.2s-1.2,2.6-0.2,3.6c0.1,0.1,0.1,0.1,0.2,0.2c2.2,2.4,5.5,0.4,4.2-2.8
	C939.7,178.8,939.6,178.5,939.3,178.3z"/>
<path class="st10" d="M1001.2,347.7c-2.3-2.7-6.3,0.8-3.7,3.6c2.2,2.3,5.5,0.3,4.2-2.8C1001.6,348.2,1001.4,348,1001.2,347.7z"/>
<path class="st10" d="M926.9,291.4c-2.3-2.7-6.3,0.8-3.7,3.6c2.2,2.3,5.5,0.3,4.2-2.8C927.2,292,927.1,291.7,926.9,291.4z"/>
<path class="st10" d="M943.3,202.1c-0.9-1.1-2.6-1.2-3.6-0.2s-1.2,2.6-0.2,3.6c0.1,0.1,0.1,0.1,0.2,0.2c2.2,2.4,5.5,0.3,4.2-2.8
	C943.6,202.6,943.5,202.3,943.3,202.1z"/>
<path class="st10" d="M974.8,356.7c-2.3-2.7-6.3,0.8-3.7,3.6c2.2,2.4,5.5,0.3,4.2-2.8C975.1,357.2,975,357,974.8,356.7z"/>
<path class="st10" d="M939.7,351.4c-2.3-2.7-6.3,0.8-3.7,3.6c2.2,2.4,5.5,0.4,4.2-2.8C940.1,351.9,939.9,351.7,939.7,351.4z"/>
<path class="st10" d="M1016.4,346.5c2,5.4,5.2,8.1,8,6.6c5.2-2.7-3.4-8-5.7-9c2.1,0.9,9.3,1.1,9-3.4c-0.3-3.8-8.1-1.5-10.3,0.1
	c1.2-3.1-0.9-10.8-3.9-8.1c-2,1.8-1.8,6.6,0.1,9.1c-3-1.7-7.6-1.1-7.8,0.9c-0.3,2.8,4.1,3.4,7.3,2.3c-3.8,2.9-5.9,7.9-1.6,8.4
	C1015.2,353.7,1016.4,346.5,1016.4,346.5z"/>
<path class="st10" d="M993.3,366.1c1.7-0.2,10.2-0.8,9.8,3.1c-0.3,3.4-9.9,1.8-11.5-1c1,3.8-1.2,10.7-4.2,6.5
	c-1.5-2.2,0.9-6.3,1.8-7.8c-3,1.7-10.8,3.5-11-0.5c-0.1-3.3,8.2-3.4,10.3-3.4c-3.1-2-6.3-10.4-3-12.6c5.7-3.7,8.1,9,6.9,12.7
	c0.7-1,7-9.9,8.4-4.6C1001.8,361.9,993.3,366.1,993.3,366.1z"/>
<polygon class="st11" points="785.2,405.9 881.4,404.9 882.9,356.5 833.4,356.8 837,206.7 776.9,208.1 "/>
<path class="st12" d="M796.3,304.4c0,0,8.1,0.6,9.1-11.7C805.4,292.7,794.6,295.9,796.3,304.4z"/>
<path class="st12" d="M799.5,224.9c2.7,2.2,5.9,5.6,5.9,9.2c0,2.4-1.6,3.8-3.4,5.5c-1.2,1-2.2,2.2-3,3.4c-1.5,2.4-2,4.5-1.5,6.5
	c1,3.6,5.1,5.7,9.1,7.8c2.1,1,4.1,2.2,5.9,3.6c6.9,6.4,1.5,15.5-2.5,22.1l-0.3,0.5c-4.3,7-3.2,15.9,2.8,24.3
	c5.9,8.2,8.8,14.9,5.9,24.6c-1,3.1-2.6,6-4.6,8.5c-2.6,3.8-5.3,7.6-5.1,13.7c0.2,4.8,2.1,8.8,4,12.7c1.7,3.5,3.3,6.7,3.7,10.5
	c0.5,4.2-0.6,8.5-2.9,12l1.4,0.9c2.6-3.8,3.7-8.5,3.2-13.1c-0.5-4.1-2.2-7.7-3.8-11.1c-1.9-3.9-3.7-7.5-3.8-12
	c-0.2-5.6,2.2-9,4.8-12.7c2.1-2.7,3.7-5.7,4.8-9c3-10.3,0-17.3-6.1-26c-2.7-3.7-8.2-13.3-2.7-22.5l0.3-0.5c4-6.7,10.2-16.8,2.3-24.1
	c-1.9-1.6-4-2.9-6.3-3.9c-3.7-1.9-7.5-3.9-8.3-6.8c-0.4-1.5,0-3.2,1.3-5.1c0.8-1.1,1.7-2.2,2.8-3.1c1.9-1.8,3.8-3.6,3.9-6.7
	c0.1-3.4-2.1-7-6.5-10.5L799.5,224.9z"/>
<path class="st12" d="M799,383.7c0,0,8.5,4.3,15-8.5C814,375.2,800.9,373.7,799,383.7z"/>
<path class="st12" d="M815.1,388.3c0,0-9.4-1-11.1,13.2C804,401.5,816.8,398.3,815.1,388.3z"/>
<path class="st12" d="M792.8,358.3c0,0,8.4,4.3,15-8.5C807.7,349.8,794.7,348.4,792.8,358.3z"/>
<path class="st12" d="M801.4,235.1c0,0-5-4.9-12.5,2.6C788.9,237.7,797.8,241.7,801.4,235.1z"/>
<path class="st12" d="M816.4,365.5c0,0,1.9,9.3,15.9,6.5C832.4,372,825.4,360.8,816.4,365.5z"/>
<path class="st12" d="M810.2,292.9c0,0,1.9,9.3,15.9,6.5C826.1,299.4,819.2,288.2,810.2,292.9z"/>
<path class="st12" d="M782.9,212.6c0,0-3.4,17.5,20.6,15.2C803.5,227.9,800.2,205.9,782.9,212.6z"/>
<path class="st12" d="M798.6,276.5c0,0,9.4-1.2,7.6-15.4C806.2,261.1,794.6,267.2,798.6,276.5z"/>
<path class="st12" d="M805.7,224.2c0,0,2.6,9.1,16.4,5.3C822,229.5,814.3,218.9,805.7,224.2z"/>
<path class="st12" d="M830.8,279.6c0,0,1.8-9.3-12.3-12C818.5,267.6,820.7,280.5,830.8,279.6z"/>
<path class="st12" d="M803,326.7c0,0,9.4,1.3,11.5-12.8C814.5,313.9,801.7,316.7,803,326.7z"/>
<path class="st12" d="M826.8,357.6c0,0,1.6-9.3-12.4-11.9C814.3,345.7,816.7,358.6,826.8,357.6z"/>
<path class="st12" d="M804.7,246.1c0,0,1.9,9.3,15.9,6.5C820.6,252.6,813.7,241.5,804.7,246.1z"/>
<path class="st2" d="M796.1,391.8c-0.6-1.1-2.1-1.5-3.1-0.8c-1.1,0.6-1.5,2.1-0.8,3.1c0.1,0.1,0.1,0.2,0.2,0.3
	c1.6,2.4,4.8,1.1,4.1-1.8C796.4,392.3,796.3,392,796.1,391.8z"/>
<path class="st12" d="M868.5,393.2c-0.7-1.1-2.1-1.4-3.2-0.8c-1.1,0.7-1.4,2.1-0.8,3.2c0,0.1,0.1,0.1,0.1,0.2
	c1.6,2.4,4.8,1.1,4.1-1.8C868.7,393.7,868.6,393.4,868.5,393.2z"/>
<path class="st2" d="M801.8,339.1c-0.7-1.1-2.1-1.4-3.2-0.8c-1.1,0.7-1.4,2.1-0.8,3.2c0,0.1,0.1,0.1,0.1,0.2
	c1.6,2.4,4.8,1.1,4.1-1.8C802,339.6,801.9,339.3,801.8,339.1z"/>
<path class="st2" d="M826.6,309.3c-0.6-1.1-2-1.5-3.1-0.8c-1.1,0.6-1.5,2-0.8,3.1c0.1,0.1,0.1,0.2,0.2,0.3c1.6,2.4,4.8,1.1,4.1-1.8
	C826.9,309.8,826.8,309.5,826.6,309.3z"/>
<path class="st2" d="M825.5,393.2c-0.6-1.1-2-1.5-3.1-0.9c-1.1,0.6-1.5,2-0.9,3.1c0.1,0.1,0.2,0.2,0.2,0.4c1.6,2.4,4.8,1.1,4.1-1.8
	C825.7,393.7,825.6,393.4,825.5,393.2z"/>
<path class="st2" d="M796.3,286.2c-0.6-1.1-2-1.5-3.1-0.8c-1.1,0.6-1.5,2-0.8,3.1c0.1,0.1,0.1,0.2,0.2,0.3c1.6,2.4,4.8,1.1,4.1-1.8
	C796.6,286.7,796.5,286.4,796.3,286.2z"/>
<path class="st2" d="M825.2,258.3c-0.6-1.1-2-1.5-3.1-0.8c-1.1,0.6-1.5,2-0.8,3.1c0.1,0.1,0.1,0.2,0.2,0.3c1.6,2.4,4.8,1.1,4.1-1.8
	C825.5,258.8,825.4,258.6,825.2,258.3z"/>
<path class="st2" d="M796.4,257.1c-0.6-1.1-2-1.5-3.1-0.8c-1.1,0.6-1.5,2-0.8,3.1c0.1,0.1,0.1,0.2,0.2,0.3c1.6,2.4,4.8,1.1,4.1-1.8
	C796.6,257.6,796.5,257.3,796.4,257.1z"/>
<path class="st2" d="M822.9,216.3c-0.7-1.1-2.1-1.4-3.2-0.8c-1.1,0.7-1.4,2.1-0.8,3.2c0,0.1,0.1,0.1,0.1,0.2
	c1.6,2.4,4.8,1.1,4.1-1.8C823.2,216.8,823.1,216.5,822.9,216.3z"/>
<path class="st12" d="M853.2,374.8c-0.6-1.1-2.1-1.5-3.1-0.8c-1.1,0.6-1.5,2.1-0.8,3.1c0.1,0.1,0.1,0.2,0.2,0.3
	c1.6,2.4,4.8,1.1,4.1-1.8C853.5,375.3,853.4,375,853.2,374.8z"/>
<path class="st12" d="M795.7,314.4c-0.6-1.1-2-1.5-3.1-0.8c-1.1,0.6-1.5,2-0.8,3.1c0.1,0.1,0.1,0.2,0.2,0.3c1.6,2.4,4.8,1.1,4.1-1.8
	C795.9,314.9,795.8,314.7,795.7,314.4z"/>
<path class="st12" d="M823,237.9c-0.7-1.1-2.1-1.4-3.2-0.8c-1.1,0.7-1.4,2.1-0.8,3.2c0,0.1,0.1,0.1,0.1,0.2c1.6,2.4,4.8,1.1,4.1-1.8
	C823.2,238.4,823.1,238.1,823,237.9z"/>
<path class="st12" d="M828.5,378.9c-0.6-1.1-2-1.5-3.1-0.9c-1.1,0.6-1.5,2-0.9,3.1c0.1,0.1,0.2,0.2,0.2,0.4c1.6,2.4,4.8,1.1,4.1-1.8
	C828.8,379.4,828.7,379.2,828.5,378.9z"/>
<path class="st12" d="M798.4,369.2c-0.7-1.1-2.1-1.4-3.2-0.8c-1.1,0.7-1.4,2.1-0.8,3.2c0,0.1,0.1,0.1,0.1,0.2
	c1.6,2.4,4.8,1.1,4.1-1.8C798.6,369.7,798.5,369.5,798.4,369.2z"/>
<path class="st2" d="M866.8,375.8c1,5,3.5,7.9,6.1,7c4.9-1.6-1.8-7.6-3.7-8.8c1.7,1.1,8,2.3,8.4-1.7c0.3-3.4-7-2.5-9.1-1.4
	c1.5-2.5,0.8-9.7-2.3-7.7c-2,1.3-2.6,5.6-1.2,8.1c-2.4-2-6.5-2.1-7-0.3c-0.7,2.4,3.1,3.6,6.2,3.1c-3.8,2-6.3,6.1-2.6,7.2
	C864.7,382.1,866.8,375.8,866.8,375.8z"/>
<path class="st2" d="M843.5,389.9c1.5,0,9.1,0.7,8.2,4.2c-0.8,3-9,0.1-10-2.5c0.4,3.5-2.6,9.3-4.6,5.1c-1-2.1,1.7-5.4,2.7-6.7
	c-2.9,1.1-10.1,1.5-9.6-2c0.3-2.9,7.7-1.8,9.6-1.5c-2.5-2.2-4-10.1-0.8-11.5c5.6-2.5,5.9,9.1,4.3,12.2c0.7-0.7,7.6-7.7,8.1-2.9
	C851.7,387.4,843.5,389.9,843.5,389.9z"/>
<path class="st13" d="M1124.2,432.2l-2.2,0.5l-0.1,2.3c-0.1,1.4-9.6,143.9-9.5,175.7v2.5l40.1,8l0.6-3c3.3-17,32.4-166.1,31.5-175.7
	l-0.2-1.8l-1.6-0.7C1181.5,439.4,1151.1,425.9,1124.2,432.2z"/>
<path class="st13" d="M1126.2,632.4c-11.8,2.3-22,11.6-24.6,22.5c-0.4,1.6-0.7,3.3-0.9,5c-1.7,14.2,4.4,25.4,17.4,31.2
	c15,6.7,29,2.7,36.4-10.6c5.3-9.5,6.6-21.6,3.3-30.2C1153.5,639.3,1140.5,629.5,1126.2,632.4z"/>
<path class="st2" d="M1132.3,641.9c-0.3,2.7-0.3,6.1-0.9,8.1c0.6,2.9-0.8,6.5-0.4,9.4l11.4-10.9c0.5,0.1,1-0.5,1.4,0.2l-0.1,0.7
	c-3.8,4.5-8.8,7.7-12.3,12.4c5,1,11.2,0.3,16.6,0.4c0.4-0.4,1.3-0.8,1.8-0.2c-2.3,2.5-6.2,2.1-9.6,2.2c-2.8,0.4-5.7-1.1-8.4-0.2
	c1.8,3.8,5.9,5.9,7.1,10c-0.9,0.4-1.4-0.4-2.4-0.7c-2.2-2.4-3.9-5.3-6.2-7.5c-1.2,5.4,1.1,12.4-2.5,17.2c-0.9-0.5-0.5-1.7-0.4-2.5
	c-0.2-4.7,0.6-10.2,0.6-14.9c-3,2.1-4.7,6.1-8.5,8c-0.2-0.3-0.6-0.1-0.7-0.5c1.5-3,4.5-5.7,7-8.5l0.7-0.5c-1.8-1.6-5.2-1.1-7.6-1.7
	l-8.3-0.8c-0.5-0.2-0.9-0.8-0.4-1.3c5.6,0.2,11.4,0,17,1.3c-2.8-3.6-5.8-7.3-7.6-11.3c0.4-0.4,1.1-0.5,1.6-0.2
	c2.6,3.5,4.3,6.7,7.4,9.8l0.4-1.3c0.3-5.9,1.2-12.6,1.8-18.5C1131.8,640.1,1132.3,641.1,1132.3,641.9z"/>
<path class="st4" d="M1168,492.3c0,0-9.4-5.8-18.2,8.5C1149.8,500.8,1164.8,503.7,1168,492.3z"/>
<path class="st4" d="M1165.1,515.8c0,0-9.4-5.7-18.2,8.5C1146.9,524.3,1161.9,527.2,1165.1,515.8z"/>
<path class="st4" d="M1162.1,539.9c0,0-9.4-5.8-18.2,8.5C1144,548.3,1159,551.2,1162.1,539.9z"/>
<path class="st4" d="M1159.2,564.2c0,0-9.4-5.7-18.2,8.5C1141,572.6,1156,575.5,1159.2,564.2z"/>
<path class="st4" d="M1156.6,584.8c0,0-9.4-5.8-18.2,8.5C1138.4,593.3,1153.5,596.1,1156.6,584.8z"/>
<path class="st4" d="M1128.1,487.4c0,0,10.5-3.3,15.6,12.6C1143.7,500,1128.4,499.2,1128.1,487.4z"/>
<path class="st4" d="M1125.2,510.9c0,0,10.5-3.3,15.6,12.6C1140.8,523.5,1125.5,522.7,1125.2,510.9z"/>
<path class="st4" d="M1122.3,535c0,0,10.5-3.3,15.6,12.6C1137.9,547.6,1122.6,546.8,1122.3,535z"/>
<path class="st4" d="M1119.3,559.3c0,0,10.5-3.3,15.6,12.6C1134.9,571.9,1119.6,571.1,1119.3,559.3z"/>
<path class="st4" d="M1116.8,579.9c0,0,10.5-3.3,15.6,12.6C1132.3,592.5,1117.1,591.7,1116.8,579.9z"/>
<rect x="1076.1" y="541" transform="matrix(0.1217 -0.9926 0.9926 0.1217 464.7348 1609.42)" class="st4" width="131.3" height="2.2"/>
<path class="st14" d="M1133,442.2c14.5,4.4-1.4,26.8,15.2,31.7c8,2.4,13.9-3,15.4-10.8c1.4-7.4,0.2-12.2,8.5-14.7
	c-5.8-0.6-10.4-2-14.8,3.1c0-1.9-0.1-11-2.5-13.4c-4.4,1.2-5.4,8.3-6.8,12.2C1145.3,444.5,1139.2,441.3,1133,442.2z"/>
<path class="st15" d="M595.4,596.5c-10.2-85.7-72.6-110.1-119.8-107.5c-17.1,0.9-60.2,8.7-60.2,8.7l35,237.2c0,0,42.6-4,59.9-8.4
	C553,715.5,605.7,683.2,595.4,596.5z M497.1,668.3L480.5,552c13.8-2.6,52.6-1.8,60.6,41.6C553.9,662.9,497.1,668.3,497.1,668.3
	L497.1,668.3z"/>
<polygon class="st4" points="446.3,557.6 451.5,537.2 461.9,555.5 456.7,575.8 "/>
<polygon class="st4" points="486.2,512.4 503.4,524.4 482.7,527.8 465.5,515.7 "/>
<polygon class="st4" points="555.5,547.1 563.6,566.5 544.3,558.2 536.2,538.8 "/>
<polygon class="st4" points="575.1,624.5 565.2,643.4 559.2,623 569.1,604.1 "/>
<polygon class="st4" points="534.2,690 514.6,697.4 523.5,678.4 543.1,671 "/>
<polygon class="st16" points="447.3,509.9 450.3,528.6 451.4,528.4 448.3,509.7 "/>
<polygon class="st16" points="457.6,517.3 440.9,520.1 441.1,521.2 457.8,518.4 "/>
<polygon class="st16" points="456.7,523.6 442.6,514.1 442,515 456,524.5 "/>
<polygon class="st16" points="453.2,511.7 444.5,526.3 445.5,526.8 454.1,512.3 "/>
<polygon class="st16" points="518.9,519.3 522,538.1 523,537.9 520,519.2 "/>
<polygon class="st16" points="529.3,526.8 512.5,529.6 512.7,530.6 529.4,527.9 "/>
<polygon class="st16" points="528.3,533 514.3,523.5 513.7,524.4 527.7,533.9 "/>
<polygon class="st16" points="524.9,521.2 516.2,535.7 517.1,536.3 525.8,521.7 "/>
<polygon class="st16" points="565.3,575.8 568.8,596.9 570,596.7 566.5,575.6 "/>
<polygon class="st16" points="577,584.2 558.2,587.3 558.4,588.5 577.2,585.4 "/>
<polygon class="st16" points="575.9,591.2 560.1,580.5 559.4,581.5 575.3,592.2 "/>
<polygon class="st16" points="572.1,577.9 562.3,594.2 563.3,594.9 573.1,578.5 "/>
<polygon class="st16" points="553.8,649.3 556.8,668 557.9,667.8 554.8,649.1 "/>
<polygon class="st16" points="564.1,656.8 547.4,659.5 547.6,660.6 564.3,657.8 "/>
<polygon class="st16" points="563.2,663 549.1,653.5 548.5,654.4 562.6,663.8 "/>
<polygon class="st16" points="559.8,651.1 551.1,665.7 552,666.2 560.7,651.7 "/>
<polygon class="st16" points="497.4,689.4 500.5,708.1 501.5,708 498.5,689.2 "/>
<polygon class="st16" points="507.8,696.9 491,699.6 491.2,700.7 507.9,697.9 "/>
<polygon class="st16" points="506.8,703.1 492.8,693.6 492.2,694.5 506.2,704 "/>
<polygon class="st16" points="503.4,691.2 494.7,705.8 495.6,706.3 504.3,691.8 "/>
<polygon class="st4" points="454.5,629.4 459.7,609.1 470.1,627.3 464.9,647.7 "/>
<polygon class="st16" points="455.5,581.7 458.5,600.4 459.6,600.3 456.5,581.5 "/>
<polygon class="st16" points="465.8,589.2 449.1,591.9 449.3,593 466,590.2 "/>
<polygon class="st16" points="464.9,595.4 450.8,585.9 450.2,586.8 464.3,596.3 "/>
<polygon class="st16" points="461.4,583.5 452.7,598.1 453.6,598.6 462.3,584.1 "/>
<polygon class="st4" points="465.8,700.4 471,680 481.5,698.3 476.2,718.6 "/>
<polygon class="st16" points="463.6,652.8 466.6,671.5 467.7,671.3 464.6,652.6 "/>
<polygon class="st16" points="473.9,660.3 457.2,663 457.4,664.1 474.1,661.3 "/>
<polygon class="st16" points="473,666.5 458.9,657 458.3,657.9 472.4,667.4 "/>
<polygon class="st16" points="469.5,654.6 460.8,669.2 461.8,669.7 470.5,655.2 "/>
</svg>
