<?xml version="1.0" encoding="utf-8"?>
<!-- Generator: Adobe Illustrator 25.2.3, SVG Export Plug-In . SVG Version: 6.00 Build 0)  -->
<svg version="1.1" id="Layer_1" xmlns="http://www.w3.org/2000/svg" xmlns:xlink="http://www.w3.org/1999/xlink" x="0px" y="0px"
	 viewBox="0 0 1600 900" style="enable-background:new 0 0 1600 900;" xml:space="preserve">
<style type="text/css">
	.st0{clip-path:url(#SVGID_2_);}
	.st1{fill:#CAEDEF;}
	.st2{clip-path:url(#SVGID_4_);}
	.st3{fill:url(#SVGID_5_);}
	.st4{fill:url(#SVGID_6_);}
	.st5{fill:url(#SVGID_7_);}
	.st6{fill:url(#SVGID_8_);}
	.st7{fill:url(#SVGID_9_);}
	.st8{fill:url(#SVGID_10_);}
	.st9{fill:#265126;}
	.st10{fill:url(#SVGID_11_);}
	.st11{opacity:0.5;fill:url(#SVGID_12_);enable-background:new    ;}
	.st12{opacity:0.5;fill:url(#SVGID_13_);enable-background:new    ;}
	.st13{fill:url(#SVGID_14_);}
	.st14{fill:#103D23;}
	.st15{clip-path:url(#SVGID_16_);}
	.st16{fill:#46DCFF;}
	.st17{fill:#178C80;}
	.st18{fill:#139E69;}
	.st19{fill:#2ABCB1;}
	.st20{fill:#1F7F58;}
	.st21{fill:#32CE95;stroke:#0C685D;stroke-miterlimit:10;}
	.st22{fill:#3CBF7A;}
	.st23{opacity:0.45;fill:#92CC36;enable-background:new    ;}
	.st24{fill:#61847D;}
	.st25{fill:#41685F;}
	.st26{fill:#5BA389;}
	.st27{opacity:0.75;}
	.st28{opacity:0.43;fill:#88F1FF;enable-background:new    ;}
	.st29{clip-path:url(#SVGID_18_);}
	.st30{opacity:0.2;fill:url(#SVGID_19_);enable-background:new    ;}
	.st31{fill:url(#SVGID_20_);}
	.st32{opacity:0.44;fill:#E5F0C8;enable-background:new    ;}
	.st33{opacity:0.3;fill:#E5F0C8;enable-background:new    ;}
	.st34{opacity:0.6;fill:#E6A143;enable-background:new    ;}
	.st35{fill:url(#SVGID_21_);}
	.st36{opacity:0.4;fill:#7FCEF4;enable-background:new    ;}
	.st37{opacity:0.6;fill:url(#SVGID_22_);enable-background:new    ;}
	.st38{fill:#9C673E;}
	.st39{opacity:0.5;}
	.st40{opacity:0.8;fill:#9C673E;enable-background:new    ;}
	.st41{fill:#6C9E12;}
	.st42{opacity:0.3;fill:url(#SVGID_23_);enable-background:new    ;}
	.st43{opacity:0.3;fill:url(#SVGID_24_);enable-background:new    ;}
	.st44{opacity:0.3;fill:url(#SVGID_25_);enable-background:new    ;}
	.st45{opacity:0.6;fill:url(#SVGID_26_);enable-background:new    ;}
	.st46{opacity:0.6;fill:url(#SVGID_27_);enable-background:new    ;}
	.st47{opacity:0.3;fill:url(#SVGID_28_);enable-background:new    ;}
	.st48{opacity:0.3;fill:url(#SVGID_29_);enable-background:new    ;}
	.st49{opacity:0.6;fill:url(#SVGID_30_);enable-background:new    ;}
	.st50{opacity:0.6;fill:url(#SVGID_31_);enable-background:new    ;}
	.st51{opacity:0.6;fill:url(#SVGID_32_);enable-background:new    ;}
	.st52{opacity:0.6;fill:url(#SVGID_33_);enable-background:new    ;}
	.st53{opacity:0.6;fill:url(#SVGID_34_);enable-background:new    ;}
	.st54{opacity:0.6;fill:url(#SVGID_35_);enable-background:new    ;}
	.st55{fill:#147E20;}
	.st56{fill:#145131;}
	.st57{fill:#143D26;}
	.st58{opacity:0.2;fill:#5E4752;enable-background:new    ;}
	.st59{fill:#AD7D61;}
	.st60{fill:url(#SVGID_36_);}
	.st61{fill:url(#SVGID_37_);}
	.st62{fill:url(#SVGID_38_);}
	.st63{opacity:0.3;fill:url(#SVGID_39_);enable-background:new    ;}
	.st64{opacity:0.3;fill:url(#SVGID_40_);enable-background:new    ;}
	.st65{opacity:0.4;fill:url(#SVGID_41_);enable-background:new    ;}
	.st66{opacity:0.2;fill:#F6C2A4;enable-background:new    ;}
	.st67{fill:url(#SVGID_42_);}
	.st68{fill:url(#SVGID_43_);}
	.st69{fill:url(#SVGID_44_);}
	.st70{opacity:0.5;fill:#817858;enable-background:new    ;}
	.st71{opacity:0.1;fill:#3E120B;enable-background:new    ;}
	.st72{opacity:0.3;fill:#3E120B;enable-background:new    ;}
	.st73{opacity:0.3;fill:url(#SVGID_45_);enable-background:new    ;}
	.st74{opacity:0.3;fill:#FCB381;enable-background:new    ;}
	.st75{fill:url(#SVGID_46_);}
	.st76{fill:url(#SVGID_47_);}
	.st77{fill:url(#SVGID_48_);}
	.st78{opacity:0.2;fill:url(#SVGID_49_);enable-background:new    ;}
	.st79{opacity:0.6;fill:#B67318;enable-background:new    ;}
	.st80{fill:url(#SVGID_50_);}
	.st81{fill:url(#SVGID_51_);}
	.st82{opacity:0.75;fill:#C28A73;enable-background:new    ;}
	.st83{fill:#754D32;}
	.st84{fill:url(#SVGID_52_);}
	.st85{fill:#024E20;}
	.st86{fill:none;stroke:#FFFFFF;stroke-width:10;stroke-miterlimit:10;}
</style>
<g>
	<defs>
		<rect id="SVGID_1_" width="1600" height="900"/>
	</defs>
	<clipPath id="SVGID_2_">
		<use xlink:href="#SVGID_1_"  style="overflow:visible;"/>
	</clipPath>
	<g class="st0">
		<polygon class="st1" points="800,410 -280,810 -280,-40 800,-40 		"/>
		<g>
			<defs>
				<polygon id="SVGID_3_" points="800,410 -280,810 -280,-40 800,-40 				"/>
			</defs>
			<clipPath id="SVGID_4_">
				<use xlink:href="#SVGID_3_"  style="overflow:visible;"/>
			</clipPath>
			<g class="st2">
				
					<linearGradient id="SVGID_5_" gradientUnits="userSpaceOnUse" x1="269.1043" y1="275.64" x2="266.1743" y2="961.8101" gradientTransform="matrix(1 0 0 -1 0 900)">
					<stop  offset="0.29" style="stop-color:#FFF5CA"/>
					<stop  offset="0.36" style="stop-color:#F4F3CB"/>
					<stop  offset="0.49" style="stop-color:#D8EDCF"/>
					<stop  offset="0.66" style="stop-color:#AAE3D5"/>
					<stop  offset="0.87" style="stop-color:#6CD6DC"/>
					<stop  offset="1" style="stop-color:#3ECCE2"/>
				</linearGradient>
				<rect x="-331.2" y="-5" class="st3" width="1198.7" height="800"/>
				
					<linearGradient id="SVGID_6_" gradientUnits="userSpaceOnUse" x1="354.4289" y1="330.0095" x2="323.9389" y2="1488.4694" gradientTransform="matrix(1 0 0 -1 0 900)">
					<stop  offset="0" style="stop-color:#ADFFDC"/>
					<stop  offset="0.52" style="stop-color:#1EBC96"/>
					<stop  offset="1" style="stop-color:#007F56"/>
				</linearGradient>
				<path class="st4" d="M912.7,121.6c-0.8-11-18.4-16-18.4-16l-9.6-10l-27.9,10c-0.9,5.9-4,31.2-6.3,51.7
					c-4.9-5.4-9.7-10.7-14.5-12.7c-8.9-3.7-21.4,3.6-29.9,9c-10.4,6.5-16.5,21.4-26,30.9c-10.4,10.5-21.4,7.3-32.6,1.9
					c-21.1-10.1-35.4-33.4-57.5-32.1c-11.2,0.7-39.3,18.1-44.5-4.6c-9.3,2.6-20.2,4.5-29.8,0.4c-9.1-3.9-15.6-23-23.8-23.4
					c-14.4-0.7-19.7,58.6-35.7,42.3c-2.2-23.6-18.8,16.9-26.3-9.5c-3.9-13.7,1.4-23.7-6.5-34.6c-4.8-6.7-18.1-8.4-23.8-8.2
					c-20.4,0.7-13.1,43.8-28.7,50.4c-6.2,2.7-25.7-9.4-32.1-13.1c-0.3-21.6-18.8-32.7-20.7-10c-0.5-0.1-0.9-0.2-1.3-0.3
					c-4.3-6.5-19-11.2-23.5-6.7c-4.3-14.8-11.2-3-14.9-19c-11.3,3.3-17.9,16.6-25-7.8c0.4-5.6-0.5-13.3-0.5-19.1
					c-6.5,8.2-14.8,7.4-21.8-1c-0.2-11.7-2.6-22.6-6.6-30.1c-0.6,3.8-3.9,11.6-4.7,16.8c-2.3-2.4-5.6-1.3-7.9-3.5
					c-0.4-3.2,0-6-0.5-9.1c-5.2,1.6-9.8,2.5-12.5,8.3c-1.8-2.2-4.3-3.4-6.3-5.1c0.1-4.6,1-8.8,1.2-13.1c-0.8-2.5-3.3,1-4.4-1
					c-0.1-3.3,0.3-9.6-0.5-12.5c-1.8,2.6-5.1,3.5-7.4,8.5c-1.4-4.9-1.4-5.7-3.5-9.2c-7.1,5.3-7.9,10.5-6.6,16.4l-4.6,7.4h-3.2
					c-2-3.3-2.4-8.4-3.6-8.4s-4.8-2.5-6,0s-3.6,7.3-3.6,3.6s-2-7-2-11.2s-2-8.4-3.2-8.4h-8.4c0,0,2.4,9.2,0,9.2s-4,0.8-4.4-1.7
					s-1.6-7.5-1.6-7.5l-3.1-4.2c0,0-5.6-9.2-6-6.7c-0.2,2.8-0.2,5.6,0,8.4l-2,9c0,0-3.6,2.3-3.6,0v-2.3l2.8-5.9l-2.8-2.5
					c-0.4-5-1.2-7.6-2.8-7.1s0,6.3,0,6.3c-4.8,2.5-2.8,5.8-4.8,2.5s-2.4-4.2-4-2.5s-4,11.5-4,11.5l-6.8,7.8c0,0,4,10,2.4,10h-10
					c-1.2,0-3.6,2.5-2.4,4.2s1.6,6.7,1.6,6.7s-2.4-2.5-3.6,0s-4.4,0-4.4,0s-1.2,8.4,0,8.4s-0.8,5.6-0.5,7.5c0.9,7.5,1.8,10.9,0,10
					c-1.4-0.5-2.9-0.4-4.2,0.1v-8.4l-2.4-0.8c0,0,2.8-2.5-2.8-3.3s-6.7,3.3-6.7,3.3s-2.4,5.8,0,5.8s5.6,1.1,4,3.5s-5.1,6.6-5.1,6.6
					s0.1,5,0,5h-4.5c-0.9,0.5-1.9,0.5-2.8,0c-1.2-0.8-2.4,6.7-2.4,6.7s-1.6,6.7,0,6.7s3.6,4.2,3.6,4.2s-4.2,5.9-4.3,5.9
					s-0.5,6.7-2.5,5s-4.8,4.2-4.8,4.2v10h-6v-7.4c0,0-2.5-4.3-3.6-6c1.1,1.5,4,4.3,4-0.6c-0.1-3.6-1.7-6.9-4.4-9.2l-4-3.3
					c0,0-2.8-5.9-3.2-3.3s-2,14.2-4,11.7s-5.6-5-6-8.4s-5.2-3.3-6.4-5s-4.4,0-5.2,3.3c-0.5,2-1.5,6.2-2,8.4c1.2-5-0.3-12.6-0.3-12.6
					l-4.8-4.2c-3.2,0-2-9.2-3.2,0s0.8,10-1.2,9.2s-2,1.7-4,3.3s-1.6,6.7-1.6,10s0,14.2,0,14.2s-8.8-5.9-9.2,0s-1.2,11.7-3.6,11.7
					H61.2c0,0-5.2,0.8-5.2,5.8v15.9c0,0-0.4,8.5-1.1,18.1c-11.7,1.2-23.2,5.2-34.8,5.5c-14.9,0.4-24.5-12.9-37.4-22.6
					c-18.7-14-37-4.6-56.3-10.7c-10.6-3.4-18.7-14.7-28.4-22.7c-5.3-4.4-15.2-4.7-19.5-12.4c-2.4-4.1-3.2-16.4-5.9-22
					c-2-3.9-8.4-9.4-10.7-9.7c-16.4-1.5-8.3,33-16.8,45c-5.4-15.6-7.6-52.5-21.5-20.1c-5.6-9.8-13.1-5.8-12.1,11.9
					c-4.7,0.8-11.2-3.9-15.4-7.1c-1.3-1-11.2-10.5-12-10.1c-4.8,2.2-15.1,40.4-19.4,5.6c-6.5-1.4-160.2,7.1-160.9,21.4
					c-0.8,17.6,0.6,271.8-0.4,316.8c-0.6,27.5,156,30.5,166.2,42.1c13.4,15.1,19.8,20.7,36.2,20.7c37.4-0.1,74.8,1.8,112,5.6
					c35.4,3.7,69.3-0.9,104.6-3.1c21.9-1.3,43.6-1.7,65.4-3.1c3.2,0.9,12.6,3.7,20.1,6.8c9.3,3.8,6.7-3.8,12.3-0.5
					c4.9,2.9,12.3-8.3,27.6-15.7c18.2-4.9,38.5-10,53.7-0.4c0.3-6.7,1.1-13.4,2.5-20c1.2,0.8,2.7,1.2,4.1,1.1
					c8.4-0.9,7.6-14.3,14.3-20.5c14.6-13.7,29.6,2.9,44.7-5.6c6.6-3.7,12.2-9.8,17.9-15c1.6,3.2,3.5,6.2,5.7,9
					c0,0-5.2,20.1-2.8,31.8h5.6c0,0,9.6,23.4,12.8,28.4s12.8,6.7,17.6,8.3s93.4-10,99.5,0s21-18.3,25-17s36.7-9.7,39.9-3
					s24.7,0,33.5,0c4.6,0,9.2-12.4,12.9-25.4l5.8,0.5c35.7,2.9,70.8-7.1,106.3-7.6c31.5-0.4,62.4-17,93.9-19.5
					c37.1-2.9,74.1-12.8,111.1-15.6c13.9-1.1,38.7,10.6,49-15.6c10.4-26.5,191.1,14.3,193.5,16.3l-1.3-271.2
					C1080.3,177.7,913.3,129.9,912.7,121.6z"/>
				
					<linearGradient id="SVGID_7_" gradientUnits="userSpaceOnUse" x1="560" y1="922.435" x2="713.2685" y2="922.435" gradientTransform="matrix(1 0 0 -1 0 900)">
					<stop  offset="1.000000e-02" style="stop-color:#352A1A"/>
					<stop  offset="0.16" style="stop-color:#44331E"/>
					<stop  offset="0.43" style="stop-color:#5A3F25"/>
					<stop  offset="0.61" style="stop-color:#624427"/>
					<stop  offset="0.66" style="stop-color:#64482C"/>
					<stop  offset="0.84" style="stop-color:#6B5339"/>
					<stop  offset="1" style="stop-color:#6D573D"/>
				</linearGradient>
				<path class="st5" d="M713.1-319.6c0,0-18.7,69.4-26.5,85.2s-23.3,47.6-26.5,90.8s0,109.6,0,146.6s46.7,403.1,46.7,403.1L666,442
					l-61.9-13.1c0,0-18.9-505.6-20.4-534s4.5-149.9,0-170.4s-7.2-154.6-23.8-187.7l10.6-23.7c0,0,25,83.5,26.3,110.7
					s8.3,80.3,9.5,90.4s-1.2,90.6,4.7,96.5c2.3-7.1,11.7-35.5,12.8-43.8s11.2-37.9,12.6-45s9.6-20.1,9.6-24.9s3.5-7.1,4.7-13
					s4.7-14.2,4.7-17.8s2.3-4.7,2.3-9.5s2.3-13.7,2.3-13.7s55.8,3,53,6.6S713.1-319.6,713.1-319.6z"/>
				
					<linearGradient id="SVGID_8_" gradientUnits="userSpaceOnUse" x1="672.4495" y1="742.1697" x2="527.3895" y2="1084.3198" gradientTransform="matrix(1 0 0 -1 0 900)">
					<stop  offset="1.000000e-02" style="stop-color:#282217"/>
					<stop  offset="0.1" style="stop-color:#3D321F"/>
					<stop  offset="0.28" style="stop-color:#614D2D"/>
					<stop  offset="0.44" style="stop-color:#775E35"/>
					<stop  offset="0.53" style="stop-color:#7F6438"/>
					<stop  offset="0.6" style="stop-color:#83683E"/>
					<stop  offset="0.81" style="stop-color:#8B724B"/>
					<stop  offset="1" style="stop-color:#8E754F"/>
				</linearGradient>
				<path class="st6" d="M605.4,54.1c1.4-21-1.7-40.9-2.8-61.4c-1-19.5,1.3-39.7-1.5-58.4s-4-36.8-12.5-53.6
					c-1.8-3.4-3.4-7-4.9-10.7c-0.1,10.8-0.1,19.5,0.1,24.8c0.5,9.3,2.8,69.7,5.8,146.8C593.4,46.1,598.5,49.4,605.4,54.1z"/>
				
					<linearGradient id="SVGID_9_" gradientUnits="userSpaceOnUse" x1="745.152" y1="217.7109" x2="523.012" y2="739.1909" gradientTransform="matrix(1 0 0 -1 0 900)">
					<stop  offset="1.000000e-02" style="stop-color:#282217"/>
					<stop  offset="0.1" style="stop-color:#3D321F"/>
					<stop  offset="0.28" style="stop-color:#614D2D"/>
					<stop  offset="0.44" style="stop-color:#775E35"/>
					<stop  offset="0.53" style="stop-color:#7F6438"/>
					<stop  offset="0.6" style="stop-color:#83683E"/>
					<stop  offset="0.81" style="stop-color:#8B724B"/>
					<stop  offset="1" style="stop-color:#8E754F"/>
				</linearGradient>
				<path class="st7" d="M613.5,302c-2.9-5-9.6-14.7-15-24.1c3.2,85.4,5.7,151,5.7,151l39.9,8.5c-0.9-29.8-3.7-64.2-10.2-91.3
					C630.1,331,621.3,315.5,613.5,302z"/>
				
					<linearGradient id="SVGID_10_" gradientUnits="userSpaceOnUse" x1="678.3307" y1="689.8081" x2="729.7907" y2="440.2181" gradientTransform="matrix(1 0 0 -1 0 900)">
					<stop  offset="0" style="stop-color:#B8D34E"/>
					<stop  offset="9.000000e-02" style="stop-color:#A2C741"/>
					<stop  offset="0.27" style="stop-color:#69A920"/>
					<stop  offset="0.39" style="stop-color:#419409"/>
					<stop  offset="0.62" style="stop-color:#2F7518"/>
					<stop  offset="0.76" style="stop-color:#236122"/>
					<stop  offset="1" style="stop-color:#052C3B"/>
				</linearGradient>
				<path class="st8" d="M653.2,302.6v-3.9c0,0-2.5-1.3,0-3.9c1.5-1.5,3.2-2.8,5.1-3.8h4.5c-1.3,3.8,0,8.9,0,8.9s5.1,7.7,4.5,2.6
					s0-7.7,0-7.7c1.4-0.4,3-0.4,4.4,0c1.9,0.6,0,2.9,0,2.9s3.2,9,5.1,6.6s5.7-0.5,5.7-2.4c0-5.2-2.5-2.9,2.5-4l5.1-1.1l0,0l1.3,6.5
					l0,0c5.1,0,1.3-3.9,5.1,0c2.3,2.4,3.2,5.7,2.5,8.9l0.2,2.7v2.6c3,3.9-1.5,4.5,3,3.9s2.5,2.6,4.5-0.6l1.9-3.2
					c0,0,3.5-7.1,6.4-5.3c1.8,1.1,4,1.1,5.7,0c0,0-4.5-5.1,0-8.9s7.4-2.4,7.4-2.4l7.6-1.7l2.1,3.4c6.9-1.9,14.3,8.2,15.4,9.6
					s7.5,9.9,7.5,9.9s-12.1,5-8.9,5s8.9,4.4,8.9,4.4c1-1.1,2.2-2.2,3.4-3.1c2.3-1.9,5.5,5.6,8.7,3.1s7,0,7,0l-2.5,7.5l2.5,6.8
					c0,0,0.4-7.7,4.8-4.5c3,2.2,2.3,4.5,2.3,4.5s-3,6.4-2.3,5.9s5.3,0.5,5.3,0.5l2.9,5v7.8c0,0,2.5,2.7,2,5.8s1.2,11.4-1.6,8.8
					s-1.6,3.4-2.8,6.7s-4.8,12.3-5.8,13.6s-12.4,13.5-15,12.9s-11.5,2-18.5,0s-47.7,0.9-51.5,0.7s-15.9,4.6-22.3,0
					s-16.5-9.1-20.4-9.8s-14.6-0.7-17.2-7.1s-10.8-12.2-11.5-21.3s-3.8-33.5-4.5-36.4s5.1-15.3,5.1-16.2S653.2,302.6,653.2,302.6z"
					/>
				<path class="st9" d="M771.6,358.3c-3.9,3.9-6.8,4-11.3,5.7c-3.4,1.3-7,6.4-9.2,9.9c3.9-8.3,10-31.3,7.9-35.6
					c-2.3-5,3-14.4,2.2-13.9c-5.3,7.1-3.9,21.5-4.6,25.9s-16.7,24.7-16.7,24.7c1.7-4.1,3-8.2,4.1-12.5c2.2-8.2,11.2-21.4,11.2-21.4
					c-15.5,14.3-19,34.5-19.7,37.9c-1.5-17.4,15.2-39.4,11.3-36.5c-10.3,8.9-15.5,21.9-19.7,37.9c-0.7-4.3,4.3-24.6,7.6-29.5
					c-6,8.1-10.3,17.3-12.7,27.1c0,0,2.8-13.9,2.4-14.1c-3.1,3.6-6.3,14.8-6.3,14.8c-0.9-15.2,13.3-32.6,15.4-33.9
					c-12.3,7.3-22.9,27.5-22.9,27.5c-0.8-9.5,14.1-27,20.3-33.9c-1.3,0.9-3,2.1-5,3.5c-15.1,10.6-21.5,27-23.6,33.8l-0.9-5.8
					l0.3,1.1c0,0,5.1-20.3,8.7-25.8s11.7-12,11.7-12c-5.8,1.9-10.9,5.6-14.5,10.5c-4,5.4-7.2,11.5-9.4,17.8c0,0,0.7-21.3-5.4-32.8
					c0,0,2.5,21.5,2.5,27c-1.4-1.9-6.6-9.4-8.7-15.5c1.7,6.6,5.2,20.1,4.9,21.3c-0.5,1.4-7.6-10.5-19-5.1c0,0,12.9,0.2,15.2,11.9
					s9.6,13.5,9.6,13.5l-7.1,5.7c0,0-5,4.7-5,6.7s7.5,2.7,8.7,3.8s10,3.9,11.8,6.2s25.8-0.6,31.9-3.6s10-9.8,10-9.8
					s4.2-7.9,7.2-13.6s7.5-10.7,10.7-12.9S772.8,357.4,771.6,358.3z"/>
				
					<linearGradient id="SVGID_11_" gradientUnits="userSpaceOnUse" x1="17.6002" y1="-29.4909" x2="-4.9998" y2="727.7891" gradientTransform="matrix(1 0 0 -1 0 900)">
					<stop  offset="0" style="stop-color:#80BF00"/>
					<stop  offset="0" style="stop-color:#6AB003"/>
					<stop  offset="0" style="stop-color:#469708"/>
					<stop  offset="0.11" style="stop-color:#4E990C"/>
					<stop  offset="0.28" style="stop-color:#649D16"/>
					<stop  offset="0.48" style="stop-color:#87A427"/>
					<stop  offset="0.55" style="stop-color:#95A72E"/>
					<stop  offset="0.62" style="stop-color:#A8BD1F"/>
					<stop  offset="0.75" style="stop-color:#CEE900"/>
					<stop  offset="0.99" style="stop-color:#ACD152"/>
				</linearGradient>
				<path class="st10" d="M1715.3,783.2l-0.3-364.4c-64.6-1.3-157-28.6-245.7-31.5c-189.7-6.2-331,2.2-382.4,8.2
					c-293.1,34.2-351.1-18-838.7-4.6c-376.3,10.4-326,40.8-720.5,51.3c-196.3,5.2-267.5-0.7-696.9-3c-227.6-1.2-412.4-0.6-530.2,0
					v344L1715.3,783.2z"/>
				
					<linearGradient id="SVGID_12_" gradientUnits="userSpaceOnUse" x1="-725.88" y1="304.265" x2="1581.2799" y2="304.265" gradientTransform="matrix(1 0 0 -1 0 900)">
					<stop  offset="0" style="stop-color:#80BF00"/>
					<stop  offset="0" style="stop-color:#6AB003"/>
					<stop  offset="0" style="stop-color:#469708"/>
					<stop  offset="0" style="stop-color:#0E9078"/>
					<stop  offset="0" style="stop-color:#008E94"/>
					<stop  offset="0" style="stop-color:#00314D"/>
					<stop  offset="0.17" style="stop-color:#093E40"/>
					<stop  offset="0.47" style="stop-color:#22611D"/>
					<stop  offset="0.7" style="stop-color:#377F00"/>
					<stop  offset="1" style="stop-color:#419409"/>
					<stop  offset="1" style="stop-color:#55A40C"/>
					<stop  offset="1" style="stop-color:#74BC10"/>
					<stop  offset="1" style="stop-color:#90D114"/>
					<stop  offset="1" style="stop-color:#A6E218"/>
					<stop  offset="1" style="stop-color:#B7EF1A"/>
					<stop  offset="1" style="stop-color:#C2F81C"/>
					<stop  offset="1" style="stop-color:#C9FE1D"/>
					<stop  offset="1" style="stop-color:#CBFF1D"/>
				</linearGradient>
				<path class="st11" d="M1311.9,633.3c-194.5-20.3-389.7-51.5-580.7-72.7C517.5,537,308.8,497.9,99.7,464.8
					c-78.5-12.5-157.6-23.7-252.5-26.5c-88.4,10.8-210.5,13.3-321,13.4c-55.4,5.1-109.4,13.5-157.8,28.5l-4.8,5
					c-42.1-0.2-53.2-10.8-89.6,6.4c182.5,23.9,230.5,44,346,44c48.9,0,188.7,11.9,312.2,27.4c121.2,17.1,187.9,25.5,311,38.3
					C428,620.5,610.5,644.2,793,682.9c130.9,27.8,268.5,58.9,403.7,70.3H1312L1311.9,633.3z"/>
				
					<linearGradient id="SVGID_13_" gradientUnits="userSpaceOnUse" x1="499.44" y1="392.755" x2="1884.3899" y2="392.755" gradientTransform="matrix(1 0 0 -1 0 900)">
					<stop  offset="0" style="stop-color:#00314D"/>
					<stop  offset="0.95" style="stop-color:#003E2B"/>
					<stop  offset="0.99" style="stop-color:#003F29"/>
				</linearGradient>
				<path class="st12" d="M739.6,443.9c68.8,29.1,131.9,23.2,172.5,29.1c60,8.7,170.4,19,228.4,36.8
					c166.5,51,378.4,21.8,575.8,110.7l81.3-161.5c-49.2-5.6-573.9-48.1-622.1-50.5c-31.7-1.6-61.8-4.2-91-8
					c-38.1,2.3-73.7,4.4-99.9,2.1c-88-7.8-258.3-6.7-378.6-8.4c-49.9,14-115.5,17.1-157.8,31.9C541,424.4,650.2,435.1,739.6,443.9z"
					/>
				
					<linearGradient id="SVGID_14_" gradientUnits="userSpaceOnUse" x1="-414.1172" y1="1770.627" x2="-4.5872" y2="-21.0431" gradientTransform="matrix(1 0 0 -1 0 900)">
					<stop  offset="0" style="stop-color:#2A0F00"/>
					<stop  offset="4.000000e-02" style="stop-color:#2D1407"/>
					<stop  offset="0.15" style="stop-color:#331D13"/>
					<stop  offset="0.26" style="stop-color:#352017"/>
					<stop  offset="0.34" style="stop-color:#3F2619"/>
					<stop  offset="0.53" style="stop-color:#50301C"/>
					<stop  offset="0.74" style="stop-color:#5B361D"/>
					<stop  offset="0.99" style="stop-color:#5E381E"/>
					<stop  offset="0.99" style="stop-color:#5E3A1D"/>
					<stop  offset="0.99" style="stop-color:#5B4514"/>
					<stop  offset="0.99" style="stop-color:#594C0E"/>
					<stop  offset="0.99" style="stop-color:#594E0D"/>
					<stop  offset="1" style="stop-color:#6D5C4E"/>
					<stop  offset="1" style="stop-color:#B3CE45"/>
				</linearGradient>
				<path class="st13" d="M-642-340c12.7,12.3,35,43.4,43.3,57.2c8.3,14.3,34.5,76.4,39.4,91.2s15.5,38,21.9,41.9s17,25.1,22.9,30.1
					c5.4,4.9,11.9,10.3,23,28.7c11,19.1,46,76.2,49.3,91.3s0,29-1.3,71.9s25.2,123.4,34.3,146.8s33.7,98.9,39.6,113.6
					s11.6,52.3,11.6,60.5s7.1,16.8,3.9,20.7c-5.8,3.3-11.7,12.5-14.9,15.1s-8.4,2.6-12.3,4s-7.1,1.3-13.6,0.7s-10.4,3.9-26,7.2
					s-38.3,14.8-38.3,14.8l162.8,9.5h151.3c12.4,0.7,118.6-11.8,149.9-14.5c-27.1-14.6-55.2-13.1-59.2-14.3s-33-6.8-41.9-12.7
					s-26.1-20.4-36.9-33.5s-39.2-95.3-42.8-108.4s-6.1-33.5-10.4-45.2s-26.8-54.7-34.6-85.2s-19.5-124-20.1-131.4s2-13.6,1.3-15.4
					s-0.6-5.5-0.6-10.8s0,0,1.9-4.6s1.9-5.3-0.6-10.5s-3.3-8.6-2-14.6s7.1-13,16.2-27.7s31.1-70.8,40.2-93.8s27.2-60.5,48.7-92
					c20.1-30.2,83.5-40.1,91.4-44.7s26-10.5,46.1-19c20.1-9.1,47.3-4.6,57.1-4.7c9.8-4.2,66.8-24.7,66.8-24.7v-6.2
					c0,0-5.2,2.6-13.6,6.2c-11,3.6-47.3,16.1-55.8,16.8s-12.3-4.6-27.1-2c2.1-1.3,21.9-17.1,32.3-27c9.1-9.9,28.6-45.5,28.6-45.5
					L78-394.2c-3.9,13.6-27.9,35.1-33.8,39.7s-10.3,8.5-15.4,7.9c-13.5-20.4,0-62.4,0-62.4l-8.6,1.3c-13,28.9,0,66.4,0,66.4
					l-6.5,4.6c-9.1,5.9-64.9,33.5-91.3,38.3s-46.9,12.3-57.9,20.9c1.9-5.9,9.1-24.3,9.1-35.4s4.5-27.7,4.5-36.9
					c0-9.9,9.1-42.1,11-54.8s17.5-28,21.4-35.9s12.1-38.1,12.1-38.1l-11.4-5.3c-1.9,5.9-15.6,34.8-22.7,41.4
					c-4.1,3.7-7.8,7.9-11,12.5c-1.3-7.2-8.4-23-17.1-31.5c-5.3-5.3-10.3-11-14.7-17.1l-3.3,17.1c8.4,7.9,19.5,28.3,22.3,32.9
					s1.7,5.9,0,13.8s-5.4,33.5-8.7,47.9c-3.9,14.4-19.4,80.3-23.3,96.5s-18.2,35-30.5,61.3s-29.9,57.8-33.1,66.5
					s-26.6,28.2-30.1,29.7c-4.1,1.5-1.7-126.4-1.7-195.4c-1.9-66.4,11-120.9,13-128.2c1.4-5.4,3.2-37.3,4-53.2h-173.1v77.9
					c0,36-6.8,90.7-8.3,100.5s-5.8,66.6-7.3,102.8s-4.4,70.2-4.4,70.2c-5-3.4-9.7-7.2-14.1-11.4c-8.8-7.9-35-35.5-41.4-41.9
					s-33.1-51.8-40.6-62.6s-19.7-44.9-24.6-53.2c-4.8-8.9-2.5-58.2-2-62.1s8.8-28.6,9.7-41.4c0.8-10.3,0.6-60,0.5-78.9h-16.1
					c0.3,3.2,0.7,8.3,1.5,16.3c0.8,14.1-0.6,28.3-4.4,41.9c-1-3.5-12.6-13.8-19.4-18.7s-9.8-17.8-15.8-24.1
					c-3.3-3.4-6.7-10-9.3-15.3h-12.2c3.1,6.6,7.2,12.8,11.9,18.3c10.2,11.8,12.7,29.1,21.9,33.5s19.5,23.7,19.5,23.7
					s-2.9,20.2-5.8,26.6c-3.4,6.4-10.2,28.1-10.2,28.1s-5.8-11.8-12.7-25.1c-6.3-13.8-26.8-40.9-33.4-52.3
					c-4.7-8-17.6-36.6-24.9-52.8h-21.4c2.4,3.9,5.7,9.5,9.7,17.3c8.9,17.3,13.4,36,19.8,45.8s13.6,24.1,16.8,34.3
					c-1.7,12.6,3,26.3,3,26.3c-4-3.9-14.9-3.9-22.5-8.4s-9.9-5.9-28.9-21.7c-20.4-15.3-50.3-75.4-50.3-75.4v37.9
					c9.4,18.2,29.3,39.4,36.7,49.4C-688.2-372-654.7-352.3-642-340z"/>
				<path class="st14" d="M-938.5,682.7C-673,695.2-51.3,750.4,354.8,787.9c-28.1,1.7-56.2,3.3-84.4,4.8
					c-107.2,5.5-214.4,9.3-321.6,14.9c-214.5,11.3-428.8,26.8-643.5,35.8h-0.6c-84.6-5-169.2-9.9-253.8-13.5
					c-204.1-8.6-407.3-0.9-610.9,7.7c-61.2,2.6-122,6.1-182.8,11.9l-6.6-157.2C-1749.3,692.3-1349.1,663.2-938.5,682.7z"/>
			</g>
		</g>
		<polygon class="st1" points="800,410 1880,810 1880,-20 800,-20 		"/>
		<g>
			<defs>
				<polygon id="SVGID_15_" points="800,410 1880,810 1880,-20 800,-20 				"/>
			</defs>
			<clipPath id="SVGID_16_">
				<use xlink:href="#SVGID_15_"  style="overflow:visible;"/>
			</clipPath>
			<g class="st15">
				<rect x="739.5" y="-7" class="st16" width="1222.6" height="625.6"/>
				<path class="st17" d="M1382.4,507c26.6,4.5,53,10.6,78.9,17.1c23,5.8,44.1,12.8,66.3,20.1c23.7,7.7,53.2,6.4,78,6.4
					c25.5,0,52.1,1.8,77.2-1.6c23.2-3.1,46-7.7,69.2-11.2c69.6-10.4,135.2-24.7,206.2-23c70.8,1.7,140.8,17.9,211.9,14.4
					c46-2.3,91.1-97.5,136.1-92.7l-13.5,277.3H1123.2v-206c0-2,80.4-9.2,85.9-9.4c35.4-1.7,70.8,0.3,106.2,1.4
					C1337.8,500.7,1360.2,503.1,1382.4,507z"/>
				<path class="st18" d="M1183.4,447.3c-1.2,3.2-0.6,6.7-0.7,10.1c0,0.7,0,3-1.1,2.7c-1.5-0.5-0.8-13.4-4.2-11.1
					c-1.2,0.8-0.4,4.5-0.3,5.6c0.5,3.9,1.5,7.7,2.8,11.4c0.1,0.4,0.3,0.7,0.4,1.1c0.2,0.5,0.4,1,0.7,1.5c0.5,1.7,0.5,3.6,0,5.3
					c-0.3,1.2-0.7,2.5-1.1,3.7c-0.7,1.7-1.5,3.3-2.4,4.8c-1.1,2-2.3,3.9-3.6,5.8c-0.4,0.5-3.3,4-3.3,1.6c0.1-1.3,0.2-2.6,0.6-3.8
					c0.7-2.7,1.6-5.3,2.7-7.8c0.5-1.4,4.5-11.5,1.4-11.8s-5.6,15-6.5,17.5c-1.2,3.4-1.4,7.1-2.1,10.7c-0.5,2.4-1.4,7-3.2,8.8
					c-0.9,0.7-2.1,0.5-2.8-0.4c0-0.1-0.1-0.1-0.1-0.2c-0.5-1.2,0-3,0-4.3c0-1.8,0.2-3.5,0.4-5.3c0.3-3.7,0.9-7.3,1.7-10.9
					c0.9-3.6,2.1-7.1,3.4-10.5c0.8-2.1,1.6-4.3,2.3-6.5c1.2-3.6,1-6.9,0-7.1s-2.3,2.5-3.4,5.9c-0.7,2.1-1.4,4.2-2.2,6.2
					c-0.9,2.6-1.9,5.2-2.7,7.9c-0.4,1.4-0.7,2.9-1.1,4.3s-1.2,5.1-2,1.7c-1.3-5-1.7-10.3-1.2-15.5c0.7-4.5,1.9-9,3.4-13.4
					c1.2-3.4,2.2-6.9,3-10.5c1.2-5.9,0-10.8-1-10.7c-2.4,0.2-1.8,6.2-1.8,7.7c-0.1,2.2-1.1,8.3-3.2,3.4c-1-2.2-0.7-13.5-3.5-13.2
					c-1,0.1-1.6,5.5-0.3,12s2.2,14.2,1.3,17.7c-0.6,2.1-1,4.3-1.3,6.4c-0.9,7.1,0.7,12.9,2.3,18.5c1.3,4.5,2.5,8.8,2.4,13.9
					c0,3.1-1.6,0.7-2.2-0.7c-2-4.7-3.2-9.7-3.6-14.7c-0.1-1,0.1-5.3-1.7-4.8c-1.4,0.4-1.4,4.9-1.5,6.1c-0.2,4.5,1.1,8.1,2.7,12.3
					c1,2.4,1.8,4.8,2.5,7.2c1,3.9,0.7,9.5-4.7,9.1c-4.8-0.4-2.8-7.4-2.3-10.4c0.3-1.7,0.6-3.4,0.7-5.1c0.2-2.9-0.9-5-1.8-4.9
					s-1.2,2.4-1.4,4.9c-0.1,1.3-0.3,2.6-0.5,3.9c-0.1,0.9-0.7,3.7-1.8,1.7c-0.4-1-0.5-2.1-0.4-3.2c0-2,0.3-4.1,0.4-6.1
					c0.5-5.2,2.7-10.5,4.1-15.5c1.5-5.4,2.6-10.8,3.6-16.2c1.2-6.5,1.1-12,0.1-12.2s-2.5,4.8-3.6,11s-2.6,5.8-2.1-0.8
					c0.4-4.7,1.1-9.5,1.8-14.5c0.5-3.7,1-7.5,1.4-11.3c0.7-6.3-0.1-11.4-1.1-11.4s-1.8,5-2.4,11.1c-0.4,3.7-0.9,7.4-1.4,11
					c-1.1,7.9-2.2,16-2.1,24.1c0.1,6.6,0.5,14.3-0.5,17.2s-3.3,0-3.7-6.6c-0.5-10.7,1.1-22.2,2.7-33.5c0.6-4.4,0.8-9.3,1.8-13.6
					c0.3-1.3,0.3-2.7,0.6-4.1c0.4-2.1,0.7-4.2,0.9-6.3c0.1-1.1,0.5-3.6-0.6-4.3c-2-1.3-4.1,7.3-4.2,8.6c-0.6,6.4-1.1,12.6-2,19
					c-0.3,2.3-0.7,5-2.6,2.2c-0.9-1.4-1.5-2.9-2-4.5c-0.9-2.9-1.7-5.8-2.3-8.8c-0.7-3.1-1.4-6.5-2.9-9.3c-0.6-1.2-3-4.9-3.3-1.5
					c-0.2,2.6,1.4,5.8,2,8.4c1.1,5.3,2.5,10.5,4.2,15.6c2.2,6.1,4.5,15.8,4.2,22.4c-0.3,5-0.2,10,0.4,15c0.8,6,2.4,11.9,4.9,17.4
					c0.7,1.6,1.4,3.2,2,4.8c1,2.7,0.6,5-0.3,4.9s-4-4.5-6.8-9.8c-1.7-3.1-3.6-6.1-4.6-9.6c-1.1-3.9-1.1-6.8-1.1-10.9
					c0-4.5-0.1-9.1-0.4-13.6c-0.4-5.5,0.1-11-0.3-16.6c-0.4-3.4-0.9-6.7-1.7-10c-0.2-0.8-0.4-6.4-1.4-6.6c-1.7-0.4-1.6,3.4-1.5,4.3
					c0.5,2.6,1.2,5.3,1.4,8s-1.2,1.8-2,0c-2.2-4.7-2.8-10.5-6-14.7c-2.4-3.2-4.4-1-3,2.3c2.8,6.5,6.6,11.8,8.5,18.9
					c2.4,9.1,2.6,18.8,2.7,28.2c0,1.2,0,2.4-0.1,3.5c-0.2,3.1,0.2,6.3,1.2,9.2c0.7,1.8,1.6,3.5,2.6,5.1c1,1.8,0.2,2.6-1.5,1.6
					c-1.1-0.6-2.1-1.4-3-2.2c-2.6-2.6-3.6-5.1-4.9-8.6c-1.5-4.7-1.8-9.8-0.9-14.7c0.5-3.2,2.7-8.3,1.2-11.5c-1-2-2.3,2.9-2.5,3.4
					c-0.7,2.5-0.7,5.8-1.9,8c-1,1.9-2.4,2.7-2.9,0c-0.6-3.5-0.2-7.1-0.5-10.6c-0.2-2.9-0.5-5.7-0.8-8.4c-0.4-4-0.9-7.8-1.3-11.8
					c-0.1-1.4-1-5-2.5-5.4c-3.7-1.2,0.6,14.7,0.5,16.1s-0.7,1.8-1.6,0.9s-2.5-7.7-4.4-7.2c-1,0.3-0.4,2.9-0.2,3.6
					c0.7,2.5,1.5,5,2.6,7.3c1.5,3.6,2.7,7.3,3.5,11.1c0.6,3.8,1.5,7.4,2.9,11c3.2,7.3,7,15.4,11.3,19.8c2,1.8,4.2,3.2,6.6,4.2
					c2.1,1.1,3.9,2.6,5.5,4.3c1.7,1.6,2.7,3.5,4.8,4.9c2,1.4,4.3,2.3,6.7,2.9c4.4,1.1,9.1,0.3,12.9-2.2c2-1.4,3.7-3.2,5.1-5.2
					c2.5-3.7,8.6-9.4,13.5-12.6c2.4-1.6,6.2-3.1,8-5.4c1.7-2.1-0.4-2.3-2.3-1.6c-2.3,0.8-3.9,2.8-6.2,3.4c-1.8,0.5-2.2-0.2-1.1-1.8
					s2.7-3.2,4-4.8c2.1-2.7,3.9-5.7,5.4-8.8c2.1-5.5,3.4-11.3,3.6-17.1c0.2-3,0.3-6,0.3-9c0-1.6,0.7-4.5,0.6-6.7
					c0-0.7-0.1-1.4-0.4-2.1C1185.4,444,1184.2,445.2,1183.4,447.3z"/>
				<path class="st19" d="M1389.7,589.5c-17.2-7.7-40.9-10.7-66.8-12.2c-43.9-2.4-94-0.1-128.8-7.3l0,0
					c-73.2-15.1-28.7-66.9-115.4-92.1c-37.9-11-75.4-6.9-111.2-21.1c-32.1-12.7-36-29-74-39.9c-10.4-3-113.9-15.2-131.9-12.8
					c-11-2.4-74.1,9.8-80.5,12.8c-23.2,10.9-25.6,27.1-45.1,39.9c-21.9,14.2-44.8,10.1-67.9,21.1c-52.9,25.2-25.7,77-70.4,92.1l0,0
					c-21.2,7.2-51.8,4.8-78.6,7.3c-15.8,1.4-30.3,4.5-40.8,12.2c-21.5,15.7,2.1,55.8,9,73.6c6.7,17.5,17.6,32.3,22.3,50.2
					c0,0,309.1,0,349.3,0h579.7c7.7-17.8,25.5-32.6,36.5-50.2C1386.3,645.3,1425,605.3,1389.7,589.5z"/>
				<path class="st20" d="M1484.8,467.5c-2.1,1.2-5.1,1.8-7.3,2.8c-5.5,2.4-8.1,3.6-10.6,7.7c-4.6,7.5-14.5,11-19.7,18
					c-4,5.4-6.2,11.3-10,16.8c-4.4,6.3-14.2,12.3-9.5,21.2c0.3,0.5,0.6,0.9,1,1.3c-2.2,3.2-4.6,6.2-7.2,9.1
					c-2.3,1.8-13,6.9-14.3,4.7c-0.8-1.4,5.7-3,7-8.1c0.6-2.1,1-4.3,1.3-6.5c0.1-1,0.2-2.1,0.4-3.2c7.3-1.9,4.2-11.6,8.3-15.7
					c2.6-2.6,3-5.3,4.5-8.6s3.7-5.9,3.9-9.3c0.4-6.7,2.5-10.9,4.7-16.9c2.2-6.2,4.2-12.2,8.3-17.8c5.2-7.2,12.9-14.9,9.4-24
					c-0.2-0.1-0.4,0.6-0.6,0.6c-1.4,2.3-5.6,3-7.8,5c-4.1,3.8-3.6,8.1-5.6,12.9c-1.1,2.6-3.6,3.3-6.1,5.2c-5.9,4.4-5.4,8.7-5.8,15.8
					c-0.3,4.8-4.2,8.9-7,13s-5,7.9-5.7,12.8c-0.7,6.5-2,12.9-3.7,19.1c-0.7,2.5-0.3,4.5,1.2,6.8c-0.2,1.3-0.4,2.6-0.5,3.9
					c-0.1,2.1-0.5,4.2-1.2,6.2c-1,2.4-2.7,4.2-5.8,6c-5.6,3.3-9.4-3.6-9.7-7.2c-0.2-2.2,1.3-7.3,1.4-10.6c0.1,0.1,0.2,0.1,0.3,0.1
					c0.5-4.5,5-6,7.3-8.8s2.1-6.4,3-10.3s2.9-6.7,2.3-9.9s-3.8-6.9-2.5-10.9s5-5.8,5.6-8.3s-1.9-5.4-1.9-9.5
					c0-4.6,5.1-12.6,6.6-20.8c1.2-6.4-0.4-12.8-1.2-19.3c-3.9,2.3-8.2,6.3-9.7,9.9c-2.4,5.7-1.1,13-1.4,16c-0.4,3.6-3.1,6-3.3,8.8
					s2.2,6.1,0.9,9.5c-1.2,3.1-5.3,5-6.4,7.9s0.8,6.4,0.9,10.1c0,3.3-2.3,6-2.1,8.8s3,6.2,2.3,9.7c-0.6,2.9-4.9,6.2-5.3,9.7
					c-0.3,2.6,0.3,4.6,2.4,6.1c0.3,2,0.1,4.1-0.4,6.1c-0.7,2-1.3,3.9-1,5.3c4.1,22.5,32.4,10.7,36.6-2.8c4.3-0.2,10.2-7.9,11-9.3
					c2.7-4.3,1.4-10.2,4.4-14.4c3.2-4.5,10.5-6.6,13.9-11c3.6-4.8,1.5-11.5,6.5-15.7C1473.6,479.8,1481,474.9,1484.8,467.5z"/>
				<path class="st20" d="M1521,523.3c-1.3,0.4-3.2,0.5-4.6,0.8c-3.4,0.8-5,1.2-6.6,3.2c-2.8,3.8-9,4.7-12.1,8.2
					c-2.4,2.6-3.7,5.8-6,8.5c-2.7,3.1-8.8,5.5-5.7,11c0.2,0.3,0.4,0.6,0.7,0.8c-1.3,1.6-2.8,3.1-4.4,4.4c-1.4,0.8-8.1,2.6-9,1.2
					c-0.6-0.9,3.5-1.1,4.3-3.8c0.3-1.2,0.6-2.4,0.7-3.6c0-0.6,0.1-1.2,0.2-1.8c4.6-0.3,2.4-6.1,5-8c1.6-1.2,1.8-2.7,2.7-4.4
					s2.3-2.9,2.3-4.9c0.1-3.8,1.4-6,2.7-9.1s2.5-6.5,4.9-9.3c3.2-3.6,7.9-7.1,5.6-12.6c-0.1-0.1-0.3,0.3-0.4,0.3
					c-0.8,1.1-3.5,1.1-4.8,2c-2.5,1.7-2.1,4.2-3.3,6.8c-0.6,1.4-2.2,1.5-3.8,2.3c-3.6,1.9-3.3,4.4-3.4,8.3c-0.1,2.7-2.5,4.6-4.2,6.6
					c-1.8,1.8-3,4.2-3.4,6.7c-0.3,3.6-1,7.1-2,10.5c-0.4,1.3-0.1,2.5,0.9,4c-0.1,0.7-0.2,1.4-0.3,2.2c0,1.2-0.2,2.3-0.7,3.4
					c-0.6,1.3-1.6,2.1-3.6,2.8c-3.5,1.3-6-3.1-6.3-5.1c-0.2-1.3,0.7-4,0.7-5.9c0.1,0,0.1,0.1,0.2,0.1c0.3-2.5,3-2.9,4.4-4.2
					s1.2-3.4,1.7-5.5s1.7-3.5,1.3-5.4s-2.5-4.3-1.8-6.5s3-2.8,3.4-4.1s-1.3-3.3-1.4-5.6c-0.1-2.6,3-6.6,3.8-11.1
					c0.7-3.5-0.5-7.3-1.1-11.1c-2.5,0.9-5.1,2.7-5.9,4.6c-1.4,3-0.5,7.3-0.6,9c-0.2,2-1.9,3.1-1.9,4.6c-0.1,1.5,1.5,3.7,0.7,5.5
					c-0.7,1.7-3.3,2.3-3.9,3.8s0.7,3.7,0.7,5.8c0.1,1.9-1.4,3.1-1.2,4.8s2,3.8,1.6,5.8c-0.3,1.6-3,3-3.2,4.9
					c-0.2,1.4,0.4,2.8,1.6,3.7c0.2,1.1,0.2,2.3-0.2,3.4c-0.4,0.9-0.6,1.9-0.6,2.9c3,13.2,20.7,9.5,23.1,2.3c2.7,0.3,6.3-3.4,6.8-4.1
					c1.7-2.2,0.7-5.6,2.6-7.7s6.5-2.7,8.6-4.8c2.2-2.3,0.8-6.4,3.9-8.2C1514.1,529.1,1518.7,527.1,1521,523.3z"/>
				<path class="st21" d="M2748.7,540.7c-39.1,6.2-82.7-6.5-120.4,4.2c-67.9,19.2-129.5-14.9-195.5-1.3c-39.6,8.2-76,2.9-115-4.2
					c-44.8-8.1-67-3.8-110.5-0.2l0,0c-23.1,1.9-42.4-6.9-65.4-3c-42.7,7.3-65.1,17-110.9,17c-73.2-0.1-155.5,33.3-228,23.9
					c-45.9-6-87.1-26-134.2-28.9c-52.4-3.3-101.9,16.7-154.3,13.6c-60.4-3.6-106.3-25.3-168-25.3c-4.4,0-8.5-0.1-12.4-0.3
					c-40.5-2.3-58.6-15.7-95.5-27.7c-13.8-4.5-60.8-8.7-73.5,4c0.1-0.1,0.1,0.1,0.2,0.4c-16.8,3.7-81.6,26.6-89.8,27.9
					c-39,6.2-82.3-6.5-119.8,4.2c-67.6,19.2-128.8-14.9-194.5-1.3c-39.4,8.2-75.6,2.9-114.4-4.2c-44.6-8.1-66.6-3.8-110-0.2l0,0
					c-23,1.9-42.2-6.9-65-3c-42.5,7.3-64.8,17-110.4,17c-72.8-0.1-154.7,33.3-226.8,23.9c-45.7-6-86.7-26-133.5-28.9
					c-52.2-3.3-101.4,16.7-153.5,13.6c-60.1-3.6-105.8-25.3-167.2-25.3c-4.4,0-8.5-0.1-12.4-0.3c-40.3-2.3-58.3-15.7-95-27.7
					c-13.7-4.5-73.2-1.1-73.2-19.1v220.3h3343.1v-197C2842.9,509.1,2758.1,539.2,2748.7,540.7z"/>
				<path class="st22" d="M1543.3,594.5c-6.3,2.8,8,3.9,18.2,3.4c7.8-0.3,16.5-1.2,24.5-0.9c9,0.3,12.8,2,20,3.1
					c14.2,2.2,19.6,0,21.3-3.6c2.1-4.7,28.2-7.1,26.8-11.5c-2.8-8.8-60.9,1-46.3-10.9c0.8-0.6,1.6-1.2,2.4-1.7c2-1.3,3.7-2.6,6-3.8
					c11.5-6.4-30.8-1.3-37.6,0c-7.5,1.5-14.4,3.7-16.7,6c-4.4,4.6-21.4,6.7-38.2,4.4c-8.6-1.2-19.8-4.3-28.1-0.8
					c-9.8,4.1,4.9,8.3,21,8.4c8,0,24.4-1.5,31.3-0.4c6.3,1,5.7,2.9,4.6,4.5C1551,592.7,1546.6,593,1543.3,594.5z"/>
				<path class="st22" d="M1371.8,554.6c-12.3-1.6-24.3-2.5-28.3-3.2c-12.8-2.1-24-6.1-36.3-9.1c-19.7-4.8-36.3-0.3-55.7-3.6
					c-14.8-2.5-29.3-6.3-44.2-8.7c-7.5-1.2-21.6-5.7-26.7-3c-6.1,3.3,21.2,13.3,25.4,15.2c11.2,5,9.5,5.1,8.8,12.5
					c-1.2,12.5,23.6,15.8,39.2,12.2c17-4,22-9.9,44.4-6.9c8,1.1,21.6,3.4,28.7,6.6c6.5,3,9.4,7.3,16.1,10.5c14.3,6.8,20,5.6,28-0.6
					c3.4-2.7,5.6-5.7,11.4-6.9c7-1.4,19,2.2,22.2-3.1C1408.6,560.5,1389.8,556.9,1371.8,554.6z"/>
				<path class="st23" d="M-28.1,626.3c98.1,4.3,162.9-14.5,256.6-16.7c109.6-2.5,151.1,19.8,239.5,26.2
					c185.5,13.4,317.5-40,485.7-47.4c188.8-8.3,343.4,31.2,525.2,28.2c87.3-1.4,157.8-10.2,243.4-7.2V719H-500.1V592
					C-292.4,580.4-234.8,617.2-28.1,626.3z"/>
				<path class="st23" d="M1521.5,629.4c74,4.3,123-14.5,193.8-16.7c82.8-2.6,114.1,19.8,180.8,26.2c140,13.4,239.7-40,366.7-47.4
					c142.6-8.3,259.3,31.2,396.5,28.2c66-1.4,119.1-10.2,183.7-7.2v109.6H1165.1v-127C1322,583.5,1365.4,620.4,1521.5,629.4z"/>
				<path class="st24" d="M1454.2,699.2c73.1,10.3,393.9-33.3,464.3-35.5c82.3-2.6,162.1,19.7,228.5,26.1
					c139.3,13.4,159.5-10.3,285.9-17.7c141.9-8.3,121.2,19.6,257.7,16.7c65.6-1.4,83.9-29,148.2-26.1v122.1L1114,775.3
					C1114,775.3,641.5,584.3,1454.2,699.2z"/>
				<path class="st25" d="M1440.8,758.8c85.6,6.1,142.3-14.5,224.2-16.7c95.8-2.6,132,19.8,209.3,26.2c162,13.4,277.4-40,424.4-47.4
					c165-8.3,300.7,42.8,458.9,28.2c32.1-3,6.4-20.5,81.2-17.6v76.2H1031.6L1186,743C1322.7,735.7,1292.4,748.2,1440.8,758.8z"/>
				<path class="st25" d="M1549.1,800c-24.8,6.3-15.4,14.7,26.6,18.4c31.1,2.8,117,3.8,147.2,0.7c43.1-4.4,21.4-12.4,71.2-16
					c38.3-2.7,86.4,0.2,122.4-3.5c75.4-7.7-39.7-10.4-61.3-13.8c-20.6-3.3-17.3-8.9-41-11.8c-27.3-3.4-64.7,0.1-92.7-0.8
					c-37.7-1.3-59.7-7.2-102.5-6.8c-22.6,0.2-91.6,1-107.3,3.4c-38.6,5.9,76.5,8.4,86.1,12.5C1613.8,789,1571.8,794.2,1549.1,800z"
					/>
				<path class="st26" d="M1124.1,636.2c-25.1,3.7-16.2,11.4,25.5,17.4c30.9,4.4,116.6,10.9,146.8,10.3c43.2-0.8,22.1-9.1,72-8.8
					c38.4,0.2,86.2,5.9,122.3,5.1c75.7-1.6-39-11.5-60.4-15.8c-20.4-4.1-16.8-8.7-40.3-12.7c-27-4.7-64.6-4.2-92.5-6.8
					c-37.5-3.6-59.2-10-101.8-12.5c-22.5-1.3-91.4-5.2-107.3-4.2c-38.9,2.4,75.9,12.2,85.3,16.3
					C1189.2,631.3,1147.1,632.8,1124.1,636.2z"/>
				<g class="st27">
					<path class="st28" d="M-303.1,190.4c0,0,225.3,104.8,761.7,112s741-129.3,1233-123.6s545.4,57.7,545.4,57.7
						S1700.4,105.1,998,293.1s-1609.4-79.3-1609.4-79.3L-303.1,190.4z"/>
					<path class="st28" d="M-292.2,315.5c0,0,200.8,55.8,678.9,59.6s784.7-96.6,961-120.3s355.7-23.4,355.7-23.4
						c-252.1,0.9-708.3,116.4-835.9,138.7C250.5,486.1-566.9,328-566.9,328L-292.2,315.5z"/>
				</g>
				<path class="st20" d="M1307.3,488.4c2-14.9-6.7-28.6-6.6-43.5c0.1-16.6,11.3-31.1,12.6-48c0.4-16.1-11.8-30.6-6.9-46.3
					c-7.6,10.5-6.3,25.7-0.5,43.8c6.6,20.3-9.9,30.2-12.7,48.3c-2.3,14.4,8.1,26.9,8.7,40.9c0.6,13.1-7.2,24.9-12.6,36.8
					c0.3,1.6,0.5,3.2,0.7,4.5C1298,515,1305.7,501,1307.3,488.4z"/>
				<path class="st20" d="M1290.1,527.6c0-0.6,0-1.2-0.1-1.8c0-0.3,0-0.5-0.1-0.8c-0.6,0.7-1.1,1.4-1.7,2L1290.1,527.6z"/>
				<path class="st20" d="M1288.2,515c-6.3-15.9,5.3-29.4,5.3-44.5c0-10.4-7.6-15.2-4.5-25.8c3-10.2,5.2-20.8,3.5-32l-0.2-1.2
					l-0.3,1.2c-1.4,5.8-2.9,11.5-4.4,17.2c-1,3.9-2.5,7.8-3.4,11.9c-1.8,8.3,3.3,17.4,3.5,25.9c0.1,5.4-1.3,11-2.6,16.3
					c-1.2,4.6-1.7,9.7-2.4,14.4c-0.4,2.8-0.6,5.7-0.6,8.5c0.1,5,1,10,2.7,14.7c0.6,1.5,1.2,2.9,1.9,4.4c0,0.1,0.1,0.2,0.2,0.3
					c0.7-2,1.6-3.9,2.5-5.9C1288.8,517.7,1288.2,515.1,1288.2,515z"/>
				<path class="st20" d="M1288.3,527c0.6-0.7,1.1-1.3,1.7-2c-0.1-1.3-0.4-3-0.7-4.5c-0.9,2-1.7,3.9-2.5,5.9l0.1,0.2L1288.3,527z"/>
				<path class="st20" d="M1268.2,514c0.7-1.4,1.3-2.9,1.8-4.4c1.5-4.8,2.2-9.8,2.2-14.9c-0.1-2.8-0.4-5.7-0.8-8.5
					c-0.5-2.7-1.2-5.4-1.8-7.9c-0.2-0.9-0.4-1.8-0.7-2.6c-1.6-6.6-1.9-13-2.3-19.8c-0.5-7.3,1.4-14.5,1.3-21.8
					c-0.2-7.1-0.6-11.9-2.9-18.5c-1.9-5.3-5.2-9.7-6.1-15.5c-2.5,12.8,3.6,23,5.5,35c1.3,8.3-0.4,15.1-1.4,23.2
					c-0.6,4.9-1.3,9.1-1,14.1c0.4,6.7,3.3,10.1,5.5,15.5c2.3,5.7-0.5,12-2,17.5c-1.1,4-1.9,8-2.1,12.1l2.9,1.2
					C1266.8,517.1,1267.4,515.5,1268.2,514z"/>
				<path class="st20" d="M1279,521.8c-2-6.2-3.7-12.7-1.9-19.3c1.8-6.2,6.1-11.7,6.7-18.4c1-10.9-3.3-20.4-5.8-30.5
					c-0.6-2.3-1.1-4.6-1.6-7c-0.9-4.3-1.5-8.5-0.5-13c1.3-6.4,2.9-9.7,2-16.7c-1.1-8.3-4.6-18.1-3.7-27c1-10.3,4-16.5,7.9-25.3
					c-4.3,4.3-9.3,12.7-12.2,22.3c-2.6,8.5-0.5,17.5,0.6,26.1c0.8,6.4,3.3,17,2,23.2c-1.5,7-4.4,10.1-3.1,17.6
					c2,11.2,11.7,29.2,7.9,40.8c-2.4,7.4-6,11.1-4.6,19.9c0.4,2.6,1.2,5.2,2.4,7.5l4.5,1.7C1279.4,523.1,1279.3,522.5,1279,521.8z"
					/>
				<path class="st20" d="M1351.2,511.8c1.6-12.1-5.4-23.3-5.3-35.4c0.1-13.5,9.2-25.3,10.2-39c0.3-13.1-9.5-24.9-5.6-37.6
					c-6.2,8.5-5.1,20.9-0.4,35.7c5.3,16.5-8,24.6-10.3,39.3c-1.8,11.7,6.6,21.9,7.1,33.3c0.4,10-5.1,19.1-9.4,28.3l3.6,0.1
					C1345.9,528.9,1350.1,520,1351.2,511.8z"/>
				<path class="st20" d="M1335.7,533.5c-5.1-12.9,4.3-23.9,4.3-36.2c0-8.5-6.1-12.4-3.6-21c2.4-8.3,4.2-17,2.8-26l-0.2-1l-0.2,1
					c-1.1,4.7-2.4,9.4-3.6,14c-0.8,3.1-2,6.3-2.7,9.7c-1.5,6.8,2.7,14.1,2.8,21.1c0.1,4.4-1,9-2.1,13.2c-1,3.8-1.4,7.9-2,11.7
					c-0.3,2.3-0.5,4.6-0.4,6.9c0.1,3.1,0.5,6.1,1.3,9.1l4.3,0.2C1336,534.7,1335.7,533.5,1335.7,533.5z"/>
				<path class="st20" d="M1319.5,532.7c0.5-1.2,1-2.4,1.4-3.6c1.2-3.9,1.8-8,1.8-12.1c-0.1-2.3-0.3-4.6-0.7-6.9
					c-0.4-2.2-0.9-4.4-1.4-6.5c-0.2-0.7-0.3-1.4-0.5-2.1c-1.3-5.4-1.5-10.6-1.9-16.1c-0.4-6,1.2-11.8,1-17.8
					c-0.1-5.8-0.5-9.6-2.4-15c-1.5-4.3-4.2-7.9-4.9-12.6c-2,10.4,2.9,18.8,4.4,28.5c1.1,6.8-0.3,12.3-1.1,18.9
					c-0.5,4-1,7.4-0.8,11.5c0.3,5.5,2.7,8.2,4.4,12.6c1.9,4.6-0.4,9.8-1.6,14.3c-0.8,2.8-1.3,5.6-1.6,8.5l2.9,0.5
					C1319,533.9,1319.2,533.3,1319.5,532.7z"/>
				<path class="st20" d="M1326.8,523.3c1.4-5.1,4.9-9.5,5.4-15c0.8-8.9-2.7-16.6-4.7-24.8c-0.5-1.9-0.9-3.8-1.3-5.7
					c-0.7-3.5-1.2-6.9-0.4-10.6c1.1-5.2,2.4-7.9,1.6-13.6c-0.9-6.8-3.7-14.7-3-21.9c0.8-8.4,3.3-13.5,6.4-20.6
					c-3.5,3.5-7.5,10.3-9.8,18.2c-2.1,6.9-0.4,14.3,0.4,21.3c0.6,5.2,2.7,13.9,1.6,18.9c-1.2,5.7-3.6,8.3-2.5,14.3
					c1.6,9.1,9.5,23.8,6.4,33.2c-2,6-4.9,9.1-3.7,16.2c0.1,0.8,0.3,1.5,0.5,2.2c1.3,0.2,2.6,0.3,3.7,0.5
					C1326.2,531.7,1325.6,527.5,1326.8,523.3z"/>
				<path class="st20" d="M1387.6,526.1c1.3-8.7-4.4-16.7-4.3-25.4c0.1-9.7,7.5-18.2,8.3-28c0.3-9.4-7.8-17.9-4.6-27
					c-5,6.1-4.2,15-0.3,25.6c4.3,11.9-6.5,17.7-8.4,28.3c-1.5,8.4,5.3,15.7,5.7,23.9c0.3,5.3-2.1,10.2-4.7,15l3.4,0.4
					C1385.1,534.9,1386.8,530.6,1387.6,526.1z"/>
				<path class="st20" d="M1378.5,515.7c0-6.1-5-8.9-2.9-15.1c2-6,3.4-12.2,2.3-18.7l-0.1-0.7l-0.2,0.7c-0.9,3.4-1.9,6.7-2.9,10.1
					c-0.7,2.3-1.6,4.5-2.2,7c-1.2,4.9,2.2,10.2,2.3,15.1c-0.1,3.2-0.7,6.4-1.7,9.5c-0.7,2.8-1.2,5.6-1.6,8.4c-0.3,1.7-0.4,3.3-0.4,5
					c0,0.2,0,0.4,0,0.6l2.9,0.3C1372.9,530.1,1378.5,523.2,1378.5,515.7z"/>
				<path class="st20" d="M1363.5,536.9c0.6-2.3,0.9-4.7,0.9-7.1c-0.1-1.7-0.2-3.3-0.5-5c-0.3-1.6-0.8-3.1-1.2-4.7
					c-0.2-0.5-0.3-1-0.4-1.5c-0.9-3.8-1.4-7.7-1.5-11.6c-0.3-4.3,1-8.5,0.8-12.8c0.1-3.7-0.6-7.4-1.9-10.8c-1.3-3.1-3.4-5.7-4-9
					c-1.6,7.5,2.4,13.5,3.6,20.5c0.9,4.9-0.3,8.8-0.9,13.5c-0.5,2.7-0.7,5.5-0.7,8.2c0.3,3.9,2.2,5.9,3.6,9.1s-0.3,7-1.3,10.2
					c-0.1,0.3-0.1,0.5-0.2,0.7C1361.1,536.7,1362.3,536.7,1363.5,536.9z"/>
				<path class="st20" d="M1367.8,534.4c1.2-3.7,4-6.8,4.4-10.8c0.7-6.4-2.2-11.9-3.8-17.8c-0.4-1.4-0.7-2.7-1-4.1
					c-0.7-2.5-0.8-5.1-0.3-7.6c0.9-3.8,1.9-5.6,1.3-9.8c-0.7-4.9-3-10.6-2.4-15.8c0.7-6,2.6-9.7,5.2-14.8c-2.8,2.5-6.1,7.4-8,13
					c-1.7,5-0.3,10.3,0.4,15.3c0.5,3.8,2.2,10,1.3,13.6c-1,4.1-2.9,5.9-2,10.3c1.3,6.6,7.7,17.1,5.2,23.8c-1,2.8-2.4,4.7-3,7.2
					l2.4,0.2C1367.3,536.2,1367.5,535.3,1367.8,534.4z"/>
			</g>
		</g>
		<polygon class="st1" points="1880,810 1878.2,916.4 -281.5,908.7 -280,810 800,410 		"/>
		<g>
			<defs>
				<polygon id="SVGID_17_" points="1880,810 1878.2,916.4 -281.5,908.7 -280,810 800,410 				"/>
			</defs>
			<clipPath id="SVGID_18_">
				<use xlink:href="#SVGID_17_"  style="overflow:visible;"/>
			</clipPath>
			<g class="st29">
				
					<linearGradient id="SVGID_19_" gradientUnits="userSpaceOnUse" x1="712.0228" y1="568.0507" x2="833.1627" y2="50.2906" gradientTransform="matrix(1 0 0 -1 0 900)">
					<stop  offset="2.000000e-02" style="stop-color:#328635"/>
					<stop  offset="0.18" style="stop-color:#4A9739"/>
					<stop  offset="0.51" style="stop-color:#85C043"/>
					<stop  offset="0.64" style="stop-color:#9CCB5B"/>
					<stop  offset="0.84" style="stop-color:#C8DF89"/>
				</linearGradient>
				<path class="st30" d="M1002.5,548.6c0.9-2,1.9-3.9,2.9-5.7l-0.2-0.3c-6.8-0.2-13.5-0.4-20.3-0.7c-21.7-0.9-46.1-2-65.2-15.6
					c-0.4-0.3-0.5-0.9-0.2-1.4c4.9-7.2,11.5-12.2,17.9-17.6c-5.2-2.3-10.5-4.3-16-5.7c-30.2-7.8-61.5-5.1-92.1-3
					c-33.5,2.3-66.7,1.8-100.2,0.5c-37.3-1.5-74.6-3.4-111.9-2.3c-13.8,0.4-27.7,0.8-41.5,0.6c-17.1-0.2-34.9-0.6-51.6-5.4
					c-4.2-1.2-10.5-3.2-15-6.8v22c11.4,5.8,39.1,6.6,43.4,6.8c34.6,1.4,69.2,2.5,103.9,2.7c24.6,0.2,49.2,0.3,73.8,0.2
					c24.4-0.1,48.8-1.1,73.2-1.1c22.2,0,44.3,1.6,66.5,3.7c15.5,1.5,33.6,3.2,45.9,15.6c0.2,0.2,0.3,0.5,0.2,0.8
					c1.4-1.2,2.6-2.6,3.6-4.1c0.6-0.9,1.7,0.4,1.1,1.3c-2,2.6-4.3,4.9-6.9,6.9c10.1,0.9,20.3-1.4,30.3,1.4c0.8,0.2,0.7,1.4,0,1.7
					c-1.5,0.7-3,1.6-4.6,2.4c6,2.5,12.8,1.8,19,2.5c0.5,0.1,0.8,0.6,0.7,1.1c-0.1,0.3-0.2,0.5-0.5,0.6c-1.7,0.6-3.3,1.4-4.9,2.1
					c10,1.3,19.8-4.3,29.9-3.8c0.5,0.1,0.8,0.6,0.7,1.1c0,0.2-0.2,0.4-0.3,0.6c-1,0.6-1.9,1.3-2.8,1.9c5.5,0.2,11-0.2,16.3-1.3
					c1.7-0.2,3.4-0.6,5.1-1C1002.3,549.2,1002.3,548.9,1002.5,548.6z"/>
				
					<linearGradient id="SVGID_20_" gradientUnits="userSpaceOnUse" x1="1639.0967" y1="461.6701" x2="1626.5767" y2="-133.65" gradientTransform="matrix(1 0 0 -1 0 900)">
					<stop  offset="9.000000e-02" style="stop-color:#CCDD49"/>
					<stop  offset="0.29" style="stop-color:#B6D435"/>
					<stop  offset="0.47" style="stop-color:#A7CE28"/>
					<stop  offset="0.96" style="stop-color:#80A22F"/>
				</linearGradient>
				<path class="st31" d="M-285.7,504.1v487.8h3836.6V530c0-4.9-1.4-11.4-7.1-18c-18.8-21.8-66.5-24.7-71-25
					c-671.7-2.3-1343.3-1.8-2014.8,1.7C876.7,491.7,295.5,496.8-285.7,504.1z"/>
				<path class="st32" d="M1150.1,501.1c0.3,8.2-98.9,17-221.5,19.5s-222.1-2-222.4-10.2s98.9-17,221.4-19.5
					S1149.8,492.9,1150.1,501.1z"/>
				<path class="st33" d="M2130.3,589.4c-167.6-3.3-303.7,4.6-304.2,17.6c0,0.3,0.4,0.5,0.5,0.8c-7,0-14.1,0-21.2,0.1
					c-193.4,1-350.2,12.3-350.1,25.3s157,22.7,350.4,21.6c157.8-0.8,291.2-8.5,334.9-18.3c162.1,2.7,291.9-5.1,292.4-17.8
					C2433.4,605.8,2298,592.6,2130.3,589.4z"/>
				<path class="st32" d="M1256.6,556c0,4.1-49.7,7.4-111,7.4s-111-3.3-111-7.4s49.8-7.4,111-7.4S1256.6,551.8,1256.6,556z"/>
				<path class="st32" d="M1492.4,503.9c0,4.1-49.7,7.5-111,7.5s-111-3.4-111-7.5s49.7-7.4,111-7.4S1492.4,499.8,1492.4,503.9z"/>
				<path class="st32" d="M1594.2,541.1c0,4.1-49.7,7.4-111,7.4s-111-3.3-111-7.4s49.7-7.5,111-7.5S1594.2,537,1594.2,541.1z"/>
				<path class="st33" d="M926.8,573.7c118.6,1.3,227.8,17.3,142.1,45.6s189.8,9.8,476.3,28.2s449.1,97.6,185.5,146.5
					s-1006.6,52.1-888.3-38s-27.3-51-119.5-87.9S728.3,571.5,926.8,573.7z"/>
				<path class="st34" d="M1018.8,512.9c0,0-358.5,32.5-258.2,95.2s172.1,64.9,84,114.6s358.5,101.7,772.3,103.8
					s1079.6-121.2,682.2-224.9C1885,493.4,1078.2,506.4,1018.8,512.9z"/>
				
					<linearGradient id="SVGID_21_" gradientUnits="userSpaceOnUse" x1="1586.7495" y1="-149.67" x2="1586.7495" y2="457.56" gradientTransform="matrix(1 0 0 -1 0 900)">
					<stop  offset="0" style="stop-color:#7FCEF4"/>
					<stop  offset="0.39" style="stop-color:#B1DBF5"/>
					<stop  offset="1" style="stop-color:#4AA8B0"/>
				</linearGradient>
				<path class="st35" d="M1033,520.7c0,0-352.5,30.3-253.8,88.7s169.2,60.6,82.6,106.9s352.5,94.8,759.4,96.8
					s1061.5-112.9,670.7-209.7C1884.6,502.5,1091.4,514.7,1033,520.7z"/>
				<path class="st36" d="M2291.8,603.4c-407.2-100.9-1200.5-88.7-1258.8-82.7c0,0-352.5,30.3-253.8,88.7s169.1,60.6,82.5,106.9
					s352.5,94.8,759.4,96.8S2682.6,700.2,2291.8,603.4z M1442.4,655.9c-33,1.7-66.3,3.1-98.7,9.8c-6.3,1.3-14.5,2.3-19.5,6.5
					c-6.8,5.6-0.5,14.3,4.1,19.2c3.9,4.1,9,7,14,9.7c13.9,7.5,28.5,13.7,42.1,21.8c3.8,2.1,7.4,4.5,10.8,7.1
					c8.6,5.3,16.6,11.4,21.7,19.3c18.9,29.3-47.3,34.8-60.7,35.7c-64.5,4-129.2,2.9-193.5-3.5c-32.4-3.2-64.6-8-96.8-13.5
					c-28.3-4.8-57.2-8.9-84.3-18.5c-11-3.9-30.6-12.1-20.2-26.9c3.1-4.2,6.9-7.9,11.3-10.8c7-10.3,23.6-11.1,34.6-12.7
					c8.2-1.2,58.5-6.7,61-7.1c45.7-8.4,87.3-33.3,21.8-44c-28.6-4.7-84.3-3-115.5-5c-35.3-2.7-59.1-9.1-77.2-12.5
					c-16.3-3-37-11.1-39-21.5c-4.6-24.8,71.1-30.7,85.9-32.8c59.3-8.5,119.5-13.3,179.2-17.5c130.7-9.4,263.1-10.5,393.8-0.8
					c32.2,2.4,64.1,6.7,95.9,12.1c19.5,3.4,38.9,5.5,58.4,8.6c10.4,1.7,55.7,9.4,34.5,27.8c-7.6,6.6-17.7,10.3-27.1,13.4
					c-14,4.6-28.3,8.4-42.8,11.5c-31.6,6.8-63.6,11.9-95.6,16C1508,651.3,1475.3,654.2,1442.4,655.9z M2287.5,703.2
					c-44,25.2-107.1,34.6-176.8,44c-73.5,9.9-147.6,15.3-221.6,20.7c-44.1,3.2-88.3,5.2-132.5,4.9c-37-0.2-74.3-0.4-111.2-3.3
					c-17.8-1.3-72.7-2.7-79.8-25.6c-18.1-58.4,277.7-76.9,312.6-79.4c114.2-8.3,227.8-5,341.8,3.2
					C2234.4,668.8,2334.3,676.5,2287.5,703.2L2287.5,703.2z"/>
				
					<linearGradient id="SVGID_22_" gradientUnits="userSpaceOnUse" x1="1586.7722" y1="-149.6899" x2="1586.7722" y2="457.56" gradientTransform="matrix(1 0 0 -1 0 900)">
					<stop  offset="0" style="stop-color:#7FCEF4"/>
					<stop  offset="0.39" style="stop-color:#B1DBF5"/>
					<stop  offset="1" style="stop-color:#0095AA"/>
				</linearGradient>
				<path class="st37" d="M2291.8,603.4c-407.2-100.9-1200.5-88.7-1258.8-82.7c0,0-352.5,30.3-253.8,88.7s169.1,60.6,82.5,106.9
					c-23.6,12.6-8.2,25.4,34.9,37.3c-2.5-1.7-4.2-4.4-4.6-7.4c-1-8,6.3-13.4,12.4-17c11.3-6.5,24.4-9.5,34.4-18.2
					c6.9-5.9,15.7-16.1,10.6-25.9c-4.9-9.5-15-14.9-24.6-18.7c-27.6-10.8-55.8-19.7-81.5-34.8c-8.8-5.1-32.4-14.8-23.3-28.1
					c7.6-11,27.1-13.7,39-16c23.9-4.5,47.6-10.3,71.5-14.7c95.7-17.6,192.8-23.9,290-23.2c7-1.3,14.2-2.1,21.3-2.4
					c21.4-1.2,42.7-4.3,64.2-5.2c43-1.7,86.4-0.7,129.5-0.4s86.1,4.9,129,8c30.4,2.2,60.8,4.8,91.1,7.5c22.1,0.2,44.3,2.8,66.4,4
					c23.2,1.3,46,4.9,69.1,6.4c24.6,1.6,49.2,2,73.5,6c0.9,0.2,1.9,0.3,2.8,0.5c43.7,0.9,86.9,5.6,130.3,11.3
					c25.3,3.4,50.7,6.2,75.9,10.6c20.3,3.5,39.9,8.6,59.8,13.5c7.8,1.9,24.8,3.9,27.7,13.1c3.1,9.7-19,8.9-21.2,14.6
					c0,0-0.1,0.1-0.1,0.1c0.1,5.2,12.1,6.4,14.4,6.6c7.5,0.5,14.9,0.1,22.4,0.3c17.8,0.6,35.6,0.4,53.3,1.6
					c32.9,2.3,67.4,3.9,98.6,15.3c10.4,3.8,25,9.9,28.4,21.7s-3.3,20.4-11.5,28.1c-9.4,8.9-21.3,13.3-32.8,18.5
					C2433.6,691.6,2462.9,645.8,2291.8,603.4z"/>
				<path class="st38" d="M904.8,722c5.3-2.3,11.8-4.9,14.6-10.4c4.2-8.4,1.5-16.8-4.8-23.3c-4.6-4.7-9.8-8.7-15.5-12
					c6.3,10.6-3.5,21.9-37.3,40c-19.2,10.3-12.5,20.7,14,30.7C876,732.7,892.1,727.5,904.8,722z"/>
				<path class="st38" d="M849,572.8c43.3-11.8,87.7-16.4,131.9-22.7c22.9-3.2,45.8-7.1,68.9-9.2c20.5-1.9,41-2.2,61.6-2.6
					c21.3-0.4,42.8-1.2,64.2-0.5c19.9,0.7,39.8,2.2,59.6,0.3c1.5-0.7,3.1-1.3,4.7-1.8c17-5.6,38.1-1.4,55.7-1.5
					c54.5-0.5,109.3-0.1,163.7,3.4c54.6,3.5,108.7,10,163.4,11.3c27.7,0.7,55.3,0.9,82.9,2c20.8,0.8,43.4,0.4,64.2,4.7
					c4.8-1.7,13.3,0.4,15.8,0.9c38.1,7,77.7,7.3,116.3,10c45.1,3.2,90.5,5.2,135.3,11.6c20,2.9,39.7,7.2,59.7,10.7
					c7.9,1.4,15.9,2.9,23.8,4.9c12.9-0.8,25.1,3.3,37.7,6.4c17.2,4.2,34.9,6.8,52.2,10.3c31.1,6.3,62.5,10.5,93.8,15.8
					c13.8,2.4,27.9,5.2,40.9,10.4c11.7,4.8,22.9,11.3,33.7,17.9c12.9,7.8,20.4,17.8,24.4,29.8c24.6-26.7-3.4-54.9-111.6-81.7
					c-407.2-100.8-1200.4-88.7-1258.8-82.6c0,0-350,30-254.7,88.1C795.9,587.7,822.7,579.9,849,572.8z"/>
				<g class="st39">
					<path class="st38" d="M856.2,719.9c-11.8,9.1-3.8,18.3,19.6,27.1c0-2.2,0.5-4.4,1.4-6.4C869.5,734.5,862.7,727.3,856.2,719.9z"
						/>
					<path class="st38" d="M860.3,717.1c-0.3,0.2-0.6,0.3-0.8,0.5c6.2,6.9,12.5,13.7,19.7,19.5c1.8-2.3,3.9-4.2,6.4-5.8
						C876.9,727.7,867.8,723,860.3,717.1z"/>
					<path class="st40" d="M894.8,705.2c-1.9-2-3.9-3.9-5.8-5.9c-5.9,4.7-14.1,9.8-24.9,15.7c7.7,5.8,17,10.3,25.6,13.8
						c4.8-2.6,10.2-4.7,15.1-6.8c1-0.5,2.2-1,3.3-1.5C903.7,715.3,899.5,710,894.8,705.2z"/>
					<path class="st38" d="M899,688.7c1.8,1.6,3.5,3.2,5.1,4.7c5.7,4.5,11.4,9,16.8,13.8c1.6-6.9-1.1-13.6-6.3-18.9
						c-4.6-4.7-9.8-8.7-15.5-12C901.4,680.2,901.5,684.3,899,688.7z"/>
					<path class="st38" d="M901.9,696.8c-0.9-0.7-1.8-1.4-2.7-2.2c-0.3-0.2-0.5-0.6-0.5-1l-0.8-0.8l-1.1-1.1
						c-1.5,1.8-3.1,3.5-4.8,5.1c2.4,2.5,4.9,4.9,7.3,7.3c4.1,4.2,7.9,8.6,11.6,13.2c0.6-0.8,1.7-1.3,2.5-0.6
						c0.2,0.2,0.4,0.3,0.6,0.5c2-1.3,3.7-3,5-5C913,707.4,907.3,702.3,901.9,696.8z"/>
					<path class="st38" d="M764.5,581.5c-5.8,8.3-2.6,17.4,13.7,27.4c0.9-1,1.8-2.1,2.8-3.1C774.9,598,769.4,589.9,764.5,581.5z"/>
					<path class="st38" d="M774.5,572.6c-2.1,1.4-4.2,2.9-6.1,4.6c5,8.6,10.4,16.9,16.3,24.9c1.5-1.3,3-2.5,4.6-3.8
						C784.1,589.9,779.1,581.3,774.5,572.6z"/>
					<path class="st40" d="M857.5,545.5c-32.6,6.9-61.8,15.2-79.2,24.8c5,8.3,10,16.6,15,24.9c16.2-11.4,36.1-17.1,55.7-22.5
						c7.3-2,14.7-3.7,22.1-5.4C866.4,560.2,861.9,552.9,857.5,545.5z"/>
					<path class="st38" d="M960.2,553c2.3-0.3,4.5-0.6,6.8-0.9c-2.3-7.8-4.7-15.5-7.3-23.2c-2.1,0.3-4.3,0.6-6.4,0.8
						C955.6,537.4,957.9,545.2,960.2,553z"/>
					<path class="st38" d="M946.6,530.5c-27.1,3.7-57.1,8.4-85.1,14.1c4.4,7.4,9,14.7,13.6,21.9c26.3-5.6,52.9-9.2,79.6-12.8
						C951.8,546.1,949.1,538.3,946.6,530.5z"/>
					<path class="st40" d="M1222.5,516.8c-102.8,0.1-173.5,2.3-189.5,3.9c0,0-29.7,2.5-69.4,7.6c2.5,7.7,5,15.4,7.2,23.2
						c3.4-0.4,6.8-0.9,10.2-1.4c22.9-3.2,45.8-7.1,68.9-9.2c20.5-1.9,41-2.2,61.6-2.6c21.3-0.4,42.8-1.2,64.2-0.5
						c17,0.6,34,1.8,51,1C1225.1,531.6,1223.2,524.2,1222.5,516.8z"/>
					<path class="st38" d="M1229.9,516.8c0.8,7.2,1.2,14.4,1.5,21.7c1.3-0.1,2.5-0.2,3.8-0.3c1.5-0.7,3.1-1.3,4.7-1.8
						c0.5-0.2,1.1-0.3,1.7-0.5c0.1-6.4,0.1-12.7,0.2-19.1H1229.9z"/>
					<path class="st38" d="M1464.3,536.4c0,0,0-0.1,0-0.2v0c-0.5-5.4-0.6-10.8-0.1-16.3c-79.8-2.1-153.8-2.9-217.2-3.1v0.2
						c-0.1,0.9-0.7,1.6-1.6,1.9c-0.1,5.4-0.1,10.8-0.2,16.1c16-3.4,34.7,0,50.5-0.2c54.5-0.5,109.3-0.1,163.7,3.4
						c1.6,0.1,3.1,0.2,4.7,0.3C1464.1,537.9,1464.2,537.1,1464.3,536.4z"/>
					<path class="st38" d="M1475.7,526.8c0-1.6-0.1-4-0.2-6.6c-2,0-4.1-0.1-6.2-0.2c-0.3,3.3-0.7,6.6-1,9.9c-0.2,3-0.5,6-0.8,9
						c2.6,0.2,5.2,0.4,7.8,0.6C1475.4,535.2,1475.5,531,1475.7,526.8z"/>
					<path class="st40" d="M1695.2,529.3c-73.9-4.1-146.6-7-215.3-8.9c0,6.5,0.1,13,0,19.4c47.6,3.6,95,8.7,142.8,9.8
						c23.6,0.5,47.2,0.9,70.7,1.6C1693.9,543.8,1694.5,536.6,1695.2,529.3z"/>
				</g>
				<path class="st41" d="M1202.4,803.8c0,0,4.3-7.9-2.5-18.2c2.7,1.4,4.6,3.9,5.3,6.8c0,0-0.7-2.3,3.2-7.1c0,0-2.3,7-1.5,10.9
					c1.5-3.6,4.1-6.6,7.5-8.5c0,0-6.3,7.1-5.1,11.8c0,0,3.3-6.6,8.3-8c0,0-5.7,4.3-5.5,7.5c0.2,1.1,0.8,2.1,1.5,2.9
					c-0.9,0-1.8-0.4-2.4-1.1c-0.4,1-0.4,2.2,0,3.2c0,0-3.2-1.1-3.4-3.6c-0.6,1.5-1,3-1.4,4.5l-0.7-4.3L1202.4,803.8z"/>
				
					<linearGradient id="SVGID_23_" gradientUnits="userSpaceOnUse" x1="1049.292" y1="209.2145" x2="1169.5386" y2="419.416" gradientTransform="matrix(1 0 0 -1 0 900)">
					<stop  offset="0" style="stop-color:#7FCEF4"/>
					<stop  offset="0.39" style="stop-color:#B1DBF5"/>
					<stop  offset="1" style="stop-color:#4AA8B0"/>
				</linearGradient>
				<path class="st42" d="M1319,566.2c-30.8-7.9-64.7-4.9-96.3-4.5c-32.8,0.4-65.3,0.8-98,3.7c-33.9,3-67.8,6-101.6,9.8
					c-23.5,2.7-47,5.2-70.4,8.4c-11.7,1.6-50.2,4.2-51.8,16.4c-0.9,6.3,11.8,12.8,16.3,15c9.7,4.7,21.3,5.5,31.8,7.2
					c15.1,2.3,30.1,4.9,45.3,6.8c59.7,7.8,119.5,12.6,179.5,4.3c9.6-1.3,31.1-0.1,31.6-14.2c0.2-5.3-8-8.6-11.8-10.2
					s-7.8-2.8-11.7-4.2c-0.9-0.4-13.6-4.7-7-7.6s15.1-2.3,22.1-3.2c15.7-2,31.3-4.1,46.9-6.5c14.8-2.3,29.6-5.1,44.3-8.2
					c9.4-2,21.9-1.8,29.8-7.8C1319,570.7,1321.7,566.9,1319,566.2z"/>
				
					<linearGradient id="SVGID_24_" gradientUnits="userSpaceOnUse" x1="1535.1371" y1="287.4504" x2="1535.1371" y2="308.2877" gradientTransform="matrix(1 0 0 -1 0 900)">
					<stop  offset="0" style="stop-color:#7FCEF4"/>
					<stop  offset="0.39" style="stop-color:#B1DBF5"/>
					<stop  offset="1" style="stop-color:#4AA8B0"/>
				</linearGradient>
				<path class="st43" d="M1534.4,592.2c-4.5-1-9.4-0.3-14.1,0.4c-5.3,0.7-12.1,0.5-15.5,5.4c-9.9,14.3,27.1,14.7,32.4,14.5
					c5.9-0.2,30.7-0.5,29.9-11.5C1566.6,592.5,1548,591.6,1534.4,592.2z"/>
				
					<linearGradient id="SVGID_25_" gradientUnits="userSpaceOnUse" x1="1499.7192" y1="274.59" x2="1499.7192" y2="285.0336" gradientTransform="matrix(1 0 0 -1 0 900)">
					<stop  offset="0" style="stop-color:#7FCEF4"/>
					<stop  offset="0.39" style="stop-color:#B1DBF5"/>
					<stop  offset="1" style="stop-color:#4AA8B0"/>
				</linearGradient>
				<path class="st44" d="M1511.7,619c-1.9-2.8-11.1-3.9-12.5-4c-3.3,0-10.1-0.2-11.4,3.8c-2,6,7.1,6.7,10.6,6.7
					c4.1,0,9.3-0.4,12.4-3.4C1512.1,620.9,1512.2,619.8,1511.7,619z"/>
				
					<linearGradient id="SVGID_26_" gradientUnits="userSpaceOnUse" x1="1287.4211" y1="157.881" x2="1287.4211" y2="178.7275" gradientTransform="matrix(1 0 0 -1 0 900)">
					<stop  offset="0" style="stop-color:#7FCEF4"/>
					<stop  offset="0.39" style="stop-color:#B1DBF5"/>
					<stop  offset="1" style="stop-color:#4AA8B0"/>
				</linearGradient>
				<path class="st45" d="M1286.6,721.8c-4.6-1-9.4-0.3-14.1,0.4c-5.3,0.7-12.1,0.5-15.5,5.4c-9.8,14.3,27.2,14.7,32.4,14.5
					c5.9-0.2,30.7-0.5,30-11.5C1318.8,722.1,1300.2,721.2,1286.6,721.8z"/>
				
					<linearGradient id="SVGID_27_" gradientUnits="userSpaceOnUse" x1="1251.9785" y1="145.02" x2="1251.9785" y2="155.4727" gradientTransform="matrix(1 0 0 -1 0 900)">
					<stop  offset="0" style="stop-color:#7FCEF4"/>
					<stop  offset="0.39" style="stop-color:#B1DBF5"/>
					<stop  offset="1" style="stop-color:#4AA8B0"/>
				</linearGradient>
				<path class="st46" d="M1263.9,748.5c-1.9-2.8-11-4-12.5-4c-3.3-0.1-10-0.2-11.3,3.8c-2,6,7.1,6.7,10.6,6.7
					c4.1,0,9.3-0.4,12.4-3.4C1264.4,750.4,1264.5,749.4,1263.9,748.5z"/>
				
					<linearGradient id="SVGID_28_" gradientUnits="userSpaceOnUse" x1="1141.9554" y1="213.8906" x2="1141.9554" y2="226.6205" gradientTransform="matrix(1 0 0 -1 0 900)">
					<stop  offset="0" style="stop-color:#7FCEF4"/>
					<stop  offset="0.39" style="stop-color:#B1DBF5"/>
					<stop  offset="1" style="stop-color:#4AA8B0"/>
				</linearGradient>
				<path class="st47" d="M1141.5,673.7c-2.8-0.6-5.7-0.1-8.6,0.3c-3.2,0.4-7.4,0.3-9.5,3.3c-6,8.7,16.6,9,19.8,8.9
					c3.6-0.1,18.7-0.3,18.3-7C1161.2,673.9,1149.8,673.3,1141.5,673.7z"/>
				
					<linearGradient id="SVGID_29_" gradientUnits="userSpaceOnUse" x1="1120.3289" y1="206.05" x2="1120.3289" y2="212.41" gradientTransform="matrix(1 0 0 -1 0 900)">
					<stop  offset="0" style="stop-color:#7FCEF4"/>
					<stop  offset="0.39" style="stop-color:#B1DBF5"/>
					<stop  offset="1" style="stop-color:#4AA8B0"/>
				</linearGradient>
				<path class="st48" d="M1127.6,690c-1.2-1.7-6.7-2.4-7.7-2.4c-2,0-6.2-0.1-6.9,2.3c-1.2,3.6,4.3,4,6.5,4c2.5,0,5.7-0.2,7.6-2
					C1127.9,691.2,1128,690.5,1127.6,690z"/>
				
					<linearGradient id="SVGID_30_" gradientUnits="userSpaceOnUse" x1="1557.7893" y1="202.0421" x2="1880.1212" y2="202.0421" gradientTransform="matrix(1 0 0 -1 0 900)">
					<stop  offset="0" style="stop-color:#7FCEF4"/>
					<stop  offset="0.39" style="stop-color:#B1DBF5"/>
					<stop  offset="1" style="stop-color:#4AA8B0"/>
				</linearGradient>
				<path class="st49" d="M1879.9,660.7c-12.5,4.3-26.2,1.5-39.1,1.4c-14.8-0.2-29.7,1-44.4,2.1c-29.9,2.4-59.9,5.8-89.5,10.6
					c-28.6,4.4-56.8,11-84.5,19.7c-23.8,7.6-50.4,17.4-64.4,39.7c-0.8,1.2,0.7,1.4,1.3,0.6c17.9-22.5,49.8-30.9,76.3-38.7
					c27.5-8.1,55.8-13.5,84.2-17.8c28.8-4.4,57.9-7.5,86.9-10.2c14.6-1.3,29.3-2.8,44-3c10.1-0.1,19.8-0.4,29.2-4
					C1880.2,661,1880.2,660.6,1879.9,660.7z"/>
				
					<linearGradient id="SVGID_31_" gradientUnits="userSpaceOnUse" x1="1131.4865" y1="284.202" x2="1269.5797" y2="284.202" gradientTransform="matrix(1 0 0 -1 0 900)">
					<stop  offset="0" style="stop-color:#7FCEF4"/>
					<stop  offset="0.39" style="stop-color:#B1DBF5"/>
					<stop  offset="1" style="stop-color:#4AA8B0"/>
				</linearGradient>
				<path class="st50" d="M1269.3,584.9c-23.6,2.9-49.8,3.6-72.2,11.1c-13.7,4.5,13.7,16.7,16,19.8c12.7,16.5-44.8,20.5-54.1,21.4
					c-1.9,0.2-32.8,2.8-26.8,9.3c0.5,0.6,1.7-0.5,1.5-1c-0.8-2.4,46.9-8.5,52.2-9.3c11.4-1.7,25.3-3.7,31.2-13.1
					c7.5-11.8-10.5-17-18.6-22.6c-2.7-1.8,13.6-5.4,14-5.5c5.8-1.4,11.7-2.4,17.5-3.4c13-2.3,26.1-4.2,39.2-6
					C1269.5,585.4,1269.8,584.9,1269.3,584.9z"/>
				
					<linearGradient id="SVGID_32_" gradientUnits="userSpaceOnUse" x1="1167.7678" y1="256.6879" x2="1217.9126" y2="256.6879" gradientTransform="matrix(1 0 0 -1 0 900)">
					<stop  offset="0" style="stop-color:#7FCEF4"/>
					<stop  offset="0.39" style="stop-color:#B1DBF5"/>
					<stop  offset="1" style="stop-color:#4AA8B0"/>
				</linearGradient>
				<path class="st51" d="M1217.6,638.1c-14.6,7.2-33,2.3-48.4,7.7c-0.9,0.3-2.3,2.9-0.6,2.9c9.4-0.4,18.6-3.4,28-4.5
					c7.5-0.8,14.6-1.7,21.1-5.5C1218,638.4,1218,637.9,1217.6,638.1z"/>
				
					<linearGradient id="SVGID_33_" gradientUnits="userSpaceOnUse" x1="804.3688" y1="306.7109" x2="897.2485" y2="306.7109" gradientTransform="matrix(1 0 0 -1 0 900)">
					<stop  offset="0" style="stop-color:#7FCEF4"/>
					<stop  offset="0.39" style="stop-color:#B1DBF5"/>
					<stop  offset="1" style="stop-color:#4AA8B0"/>
				</linearGradient>
				<path class="st52" d="M897,569.3c-23.8,6-48.9,8.7-71.8,18.1c-13.5,5.6-32.5,19.4-11.3,29.8c0.6,0.3,1.7-0.9,1.1-1.3
					c-4-3.1-8.9-5.7-6.3-12.7c2.1-5.8,11.8-9.5,16.8-11.9c7.2-3.4,14.6-6.2,22.1-8.6c16.1-5.4,32.9-8.4,49.3-12.7
					C897.2,569.8,897.5,569.2,897,569.3z"/>
				
					<linearGradient id="SVGID_34_" gradientUnits="userSpaceOnUse" x1="871.076" y1="225.4287" x2="983.3832" y2="225.4287" gradientTransform="matrix(1 0 0 -1 0 900)">
					<stop  offset="0" style="stop-color:#7FCEF4"/>
					<stop  offset="0.39" style="stop-color:#B1DBF5"/>
					<stop  offset="1" style="stop-color:#4AA8B0"/>
				</linearGradient>
				<path class="st53" d="M973.8,684.4c-7.2-3.7-14.9-6.4-22-10.2c-6.4-3.4-4.4-9.9,1-13.7c1.9-1.2,3.6-2.8,4.8-4.8
					c3.3-5.8-5.7-8.6-9.5-9.9c-25-8.2-51.8-9.2-76.5-18.5c-0.3-0.1-0.8,0.5-0.4,0.6c21.9,11,47,13.7,70.3,20.5
					c3.8,1.1,7.6,2.4,10.8,4.8c3.8,3-4,8.1-5.8,10.2c-2.5,2.8-2.5,7.1,0,9.9c2.9,3.6,9.5,5.3,13.5,7.2c6.5,3,15.4,6.1,19.5,12.3
					c1.9,3-12.3,7.6-13.8,8.2c-5.9,2.5-11.6,5.5-17.4,8.2s-11.2,5.9-13,12.2c-0.2,0.7,0.9,0.3,1-0.1c4.9-11.9,26.8-16.7,37.7-20.2
					c4-1.3,9.5-3.3,9.4-8.4C983.2,688.7,976.7,685.9,973.8,684.4z"/>
				
					<linearGradient id="SVGID_35_" gradientUnits="userSpaceOnUse" x1="1556.2123" y1="205.5954" x2="1673.7844" y2="205.5954" gradientTransform="matrix(1 0 0 -1 0 900)">
					<stop  offset="0" style="stop-color:#7FCEF4"/>
					<stop  offset="0.39" style="stop-color:#B1DBF5"/>
					<stop  offset="1" style="stop-color:#4AA8B0"/>
				</linearGradient>
				<path class="st54" d="M1673,668.9c-28.5,7.3-57.8,13-85,24.8c-9.7,4.3-33.5,11.4-31.7,25.7c0.2,1.2,1.7,0,1.8-0.6
					c4.4-14.8,30.1-22,42.9-27.2c23-9.3,47.5-14.5,71.4-20.7C1673.6,670.7,1674.5,668.5,1673,668.9z"/>
				<path class="st55" d="M1321.6,641.9c0.1,0,0.1,0,0.2,0c0,0.3,0.2,0.6,0.6,0.6c2,0.2,4,0.7,5.8,1.5c1.5,0.6,2.7,1.7,3.7,3
					c2.1,3.2,3.1,7,5.1,10.3c1.1,1.8,2.4,1.3,3.3,0.1c0.2,0.5,0.4,1,0.6,1.4c0,0.2,0.1,0.3,0.2,0.5c1.1,0.1,2.2,0.3,3.3,0.5
					c0.3-0.3,0.6-0.6,0.7-1.1c0.8,0.2,1.6-0.1,2-0.8c0.1,0.4,0.1,0.8,0.2,1.2c0.7,3.4,5.4,2.2,4.6-0.7c0-0.1,0-0.1,0-0.2
					c0.2,0.2,0.4,0.4,0.6,0.5c0.2,0.1,0.5,0.2,0.8,0.2c0.2,0.3,0.3,0.6,0.5,0.9c2,2.9,5.7-0.6,4-3l0,0c-4.4-6.5-5.7-14.8-6.2-22.5
					c-0.5-7.3-0.6-15.4,4.1-21.4c0.3-0.4-0.2-1-0.6-0.7c-5.3,5-7.4,14-7.6,21.2c-0.6-1.9-1.3-3.7-2.1-5.5c-1.8-4.3-4.3-8.4-7.3-12
					c-1.5-1.8-3.2-3.4-5-4.9c-1.6-1.2-3.5-1.8-4.9-3c-0.3-0.2-0.7-0.2-0.9,0.1c-0.1,0.2-0.2,0.4-0.1,0.6c0.6,1.5,1.4,1.9,2.5,3
					c0.5,0.5,1,0.9,1.4,1.4c3.8,4.5,6.4,9.8,7.8,15.5c0.9,3.8,1.4,7.7,1.6,11.6c-0.4-0.8-0.8-1.5-1.3-2.2c-2.5-3.2-5.9-6.3-10.2-5.9
					c-0.2,0-0.3,0.2-0.3,0.4c0,0.1,0.1,0.2,0.2,0.3c2.1,1.2,4.5,1.6,6.2,3.5c1.8,2,2.5,4.7,3.2,7.3c0.2,1.2,0.4,2.4,0.5,3.5
					c-4.3-4.4-10-7.1-16.1-6.1l-0.8-0.1C1321.4,640.9,1321.1,641.7,1321.6,641.9z"/>
				<path class="st56" d="M1336.7,637.1c1.8,2.9,3.1,6.1,3.8,9.5c0.7,3,0.9,6.2,1.8,9.1c0.4,1.4,1,2.8,1.8,4.1
					c0.8,0.1,1.5,0.3,2.2,0.5c1.2,0.3,2.4,0.8,3.6,1.3c0-0.1,0-0.2,0-0.3c1.3,0.4,2.8-0.2,3.4-1.5c0.2-0.1,0.4-0.3,0.6-0.4
					c0.1-0.1,0.1-0.2,0.2-0.2c0.2-0.3,0.4-0.6,0.4-1c1.6,1.4,4.6-0.3,3.9-2.9c-0.8-2.8-2.3-5.4-3.2-8.3c-0.9-3.1-1.4-6.4-1.6-9.6
					c-0.4-3.8-0.3-7.7,0.2-11.5c0.6-3,1.4-6,2-9c0.1-0.4-0.5-0.7-0.7-0.3c-3.7,5.9-5.6,13.7-5.8,20.7c0,0.7,0,1.4,0,2
					c-0.5-3-1.2-5.9-2.2-8.8c-3.2-8.3-8.5-15.5-15.4-21.1c-0.5-0.3-1.2,0.3-0.8,0.8c2.6,3.5,5.8,6.5,8,10.3
					c2.7,4.5,4.4,9.5,5.1,14.7c0.7,5.2,0.7,10.5,1.6,15.6c-0.7-3.1-1.8-6.1-3.2-8.9c-2.8-5.4-6.7-8.3-11.9-10.9
					c-0.3-0.2-0.6,0.3-0.3,0.5C1332.4,633.2,1335.3,634.8,1336.7,637.1z"/>
				<path class="st56" d="M1324.9,641c2.8,0.6,5.4,1.5,8,2.7c-1.1-2.3-2.7-4.3-4.7-5.9c-0.4-0.3,0-0.9,0.4-0.7
					c7.2,2.9,10.6,9.6,12.6,17.1c0.1,0.4,0.1,0.7,0.1,1.1l0,0c0.1,0.6-0.2,1.2-0.8,1.4c-0.3,0.3-0.7,0.5-1.1,0.7
					c-0.4,1.3-2,2.3-3.1,1.2c-1.8-1.8-1.9-4.7-3.2-6.9c-1.6-2.9-4.6-4.6-7.6-5.6c-0.3-0.1-0.1-0.6,0.2-0.6c3.1,0.1,6.1,1,8.7,2.8
					c-2.6-3.3-6.2-5-9.7-6.9C1324.6,641.3,1324.7,640.9,1324.9,641z"/>
				<path class="st57" d="M1331.2,635.7c0.3,0.4,0.5,0.8,1,0.9c0.1,0,0.1,0.2,0,0.2C1331.8,636.6,1331.4,636.2,1331.2,635.7
					C1331.1,635.7,1331.2,635.6,1331.2,635.7z"/>
				<path class="st57" d="M1346.3,660.3c3.2,1,6.2,2.3,9,4c2.7-1.5,5.5-2.8,8.3-4c-0.5-0.3-0.9-0.7-1.4-1c0.1-0.4,0-0.9-0.2-1.3
					c-2.9-4.9-5.4-9.6-6.4-15.3c-0.8-5-1.4-10.1-1.7-15.2c0-0.1-0.1-0.1-0.1-0.1s-0.1,0.1-0.1,0.1c-1.6,8.8-1.3,20,3.2,28.3
					c-0.5-0.6-0.9-1.3-1.3-2c-1.9-3.5-3.1-7.3-3.6-11.2c0-0.2-0.1-0.3-0.3-0.3c0,0-0.1,0-0.1,0c-0.4-2.5-0.8-5.1-1.4-7.6
					c-1-4.1-2.7-7.8-4-11.8c0-0.1-0.2-0.2-0.3-0.2c-0.1,0-0.2,0.2-0.2,0.3l0,0c0.5,3.4,1.2,6.8,2.1,10.1c-1.6-3.6-3.7-6.8-5.5-10.3
					c-0.1-0.1-0.3-0.1-0.2,0.1c1.8,4.5,3.4,9.1,4.7,13.8c0.9,3.5,1.3,7.2,1.3,10.8c0,2.9,0.3,5.9,0.8,8.8l-0.1-0.2
					c-1.8-3.6-2.7-7.5-2.6-11.4c0-0.2-0.2-0.3-0.4-0.2c-0.1,0-0.2,0.1-0.2,0.2c-0.4,3.4-0.1,6.8,0.7,10.2c-1.1-2.5-1.8-5.2-2.1-7.9
					c0-0.2-0.2-0.3-0.3-0.2c-0.1,0-0.2,0.1-0.2,0.2c-0.6,3.8,0.3,7.4,1.3,11c0.2,0.6,0.3,1.2,0.5,1.8c-1.6-2.8-2.7-5.9-3.3-9.1
					c0-0.2-0.3-0.2-0.3,0c-0.1,1.5,0,3.1,0.2,4.6c0-0.1,0-0.2-0.1-0.2c-0.5-2.2-1.2-4.4-1.9-6.6c-1.6-4.1-4.4-7.1-6.9-10.5
					c0,0-0.1,0-0.1,0c1.8,4,4.3,8,5.4,12.3c0.2,0.6,0.3,1.2,0.4,1.8c-1.7-3.7-4.4-6.8-7.8-9c-0.3-0.2-0.5,0.2-0.3,0.4
					c1.4,2.6,3.7,4.4,4.6,7.3c0.3,1,0.6,2,0.8,3c-0.9-1.3-1.9-2.6-3.1-3.6c-0.8-1.1-1.8-2-2.9-2.7c-0.3-0.2-0.5,0.3-0.3,0.5
					c1.6,1.4,2.8,3.3,3.4,5.3c0.4,1.9,0.7,3.9,0.8,5.9c0,0.1,0,0.1,0.1,0.2C1338.2,658.8,1342.3,659.2,1346.3,660.3z"/>
				<path class="st58" d="M1314.1,682.7c0,4,14,7.1,31.3,7.1s31.4-3.2,31.4-7.1s-14-7.1-31.4-7.1S1314.1,678.8,1314.1,682.7z"/>
				<path class="st58" d="M1274,660.6c0,3,10.7,5.4,23.9,5.4s23.9-2.5,23.9-5.4s-10.7-5.4-23.9-5.4S1274,657.6,1274,660.6z"/>
				<path class="st58" d="M1152.6,690.2c0,7.5,26.9,13.7,60.2,13.7s60.2-6.1,60.2-13.7s-27-13.7-60.2-13.7
					S1152.6,682.6,1152.6,690.2z"/>
				<path class="st59" d="M1256.4,688.7c3.9-3.2,7.6-6.9,12.1-9.1c0-2.5,0.1-5.1,0.1-7.6c-5-8.1-9.6-16.5-13.7-25.1
					c0.1-0.3-0.1-0.7-0.4-0.8c0,0-0.1,0-0.1,0c-4.8-1-9.7-2.1-14.5-3.3c-4.7-1-9.4-2.3-13.9-3.9c-3.4-1.3-6.3-3.8-9.8-5.1
					s-7.6-0.3-10.9,0.8c-3.8,1.3-7.3,3.6-10.8,5.7c-4.4,2.7-8.8,5.3-13.2,8.1c-7.8,4.8-15.6,9.7-23.3,14.7c0-0.6-0.7-1-1.1-0.4
					c-0.4,0.5-0.7,1.1-1,1.7c-0.3,0.2-0.5,0.3-0.8,0.5c-0.1,0.1-0.2,0.3-0.1,0.4s0.3,0.2,0.4,0.1l0,0c0,0,0.1,0,0.1-0.1
					c-1.2,3.6,0,6.9,2.7,10c3.4,4,6.4,8.3,9.8,12.3s6.8,5.5,11.9,4.9c3.1-0.5,6.3-0.7,9.5-0.6c3.6,0.3,7.2,0.5,10.9,0.7
					c7.4,0.4,14.8,0.7,22.2,1c6.3,0.2,12.4,1.8,18.8,1.8C1247.3,695.4,1251.8,692.5,1256.4,688.7z"/>
				
					<linearGradient id="SVGID_36_" gradientUnits="userSpaceOnUse" x1="1214.3212" y1="219.7038" x2="1278.3715" y2="219.7038" gradientTransform="matrix(0.9987 -5.094156e-02 -5.094156e-02 -0.9987 -35.3434 931.7216)">
					<stop  offset="1.000000e-02" style="stop-color:#B87B56"/>
					<stop  offset="1" style="stop-color:#CCB084"/>
				</linearGradient>
				<path class="st60" d="M1226,638.8c-3.4-1.3-6.3-3.8-9.8-5.1s-7.6-0.3-10.9,0.8c-3.8,1.3-7.3,3.6-10.8,5.7
					c-4.4,2.7-8.8,5.3-13.2,8.1c-4.9,3-9.8,6.1-14.7,9.2c0.9-0.6,6.4,2.2,7.4,2.5c2,0.7,3.9,1.4,5.9,2c4.6,1.5,9.5,2.1,14.3,1.9
					c3.2-0.1,6.4-0.4,9.5-1.1c4.3-1,7.1-1.8,10.2-5.3c5.2-6,10.6-11.5,15.9-17.4C1228.5,639.8,1227.2,639.4,1226,638.8z"/>
				
					<linearGradient id="SVGID_37_" gradientUnits="userSpaceOnUse" x1="1261.1809" y1="198.4831" x2="1318.6108" y2="198.4831" gradientTransform="matrix(0.9987 -5.094156e-02 -5.094156e-02 -0.9987 -35.3434 931.7216)">
					<stop  offset="1.000000e-02" style="stop-color:#A6623C"/>
					<stop  offset="1" style="stop-color:#B4865C"/>
				</linearGradient>
				<path class="st61" d="M1256.4,688.7c3.9-3.2,7.6-6.9,12.1-9.1c0-2.5,0.1-5.1,0.1-7.6c-5-8.1-9.6-16.5-13.7-25.1
					c0.1-0.3-0.1-0.7-0.4-0.8c0,0-0.1,0-0.1,0c-4.8-1-9.7-2.1-14.5-3.3c-2.7-0.7-5.4-1.3-8-2c-1.3-0.3-9.3,9-10.5,10.3
					c-2.7,2.8-5.9,5.8-7.3,9.6c-1.6,4.2,2.6,8.5,4,12s2.9,7.3,4.2,11c0.4,1.1,2.8,10.2,3.4,10.2c5.2,0.5,10.3,1.6,15.5,1.6
					C1247.3,695.4,1251.8,692.5,1256.4,688.7z"/>
				
					<linearGradient id="SVGID_38_" gradientUnits="userSpaceOnUse" x1="1202.296" y1="192.4974" x2="1269.6976" y2="192.4974" gradientTransform="matrix(0.9987 -5.094156e-02 -5.094156e-02 -0.9987 -35.3434 931.7216)">
					<stop  offset="1.000000e-02" style="stop-color:#9E503C"/>
					<stop  offset="1" style="stop-color:#B2856A"/>
				</linearGradient>
				<path class="st62" d="M1215.7,672.4c-1.4-3.9-3.2-7.5-7.4-8.1s-8.7,1.2-12.9,1.6s-8.9,0.4-13.1-1c-6-2-11.8-4.5-17.8-6.1
					c-2.2,1.4-4.3,2.8-6.5,4.1c0-0.6-0.7-1-1.1-0.4c-0.4,0.5-0.7,1.1-1,1.7c-0.3,0.2-0.5,0.3-0.8,0.5c-0.1,0.1-0.2,0.3-0.1,0.4
					s0.3,0.2,0.4,0.1l0,0c0,0,0.1,0,0.1-0.1c-1.2,3.6,0,6.9,2.7,10c3.4,4,6.4,8.3,9.8,12.3s6.8,5.5,11.9,4.9
					c3.1-0.5,6.3-0.7,9.5-0.6c3.6,0.3,7.2,0.5,10.9,0.7c7.4,0.4,14.8,0.7,22.2,1l1.4,0.1c-0.6,0-3.5-9.5-3.9-10.6
					c-1.2-3-2.6-5.8-3.7-8.8C1216.1,673.6,1215.9,673,1215.7,672.4z"/>
				
					<linearGradient id="SVGID_39_" gradientUnits="userSpaceOnUse" x1="1202.304" y1="197.664" x2="1318.6439" y2="197.664" gradientTransform="matrix(0.9987 -5.094156e-02 -5.094156e-02 -0.9987 -35.3434 931.7216)">
					<stop  offset="1.000000e-02" style="stop-color:#8A3F29"/>
					<stop  offset="1" style="stop-color:#A56951"/>
				</linearGradient>
				<path class="st63" d="M1256.4,688.7c3.9-3.2,7.6-6.9,12.1-9.1c0-2.5,0.1-5.1,0.1-7.6c-5-8.1-9.6-16.5-13.7-25.1
					c0.1-0.3-0.1-0.7-0.4-0.8c0,0-0.1,0-0.1,0c-0.1,0-0.2,0-0.2,0c-0.1-0.2-0.2-0.3-0.4-0.4c-4.8-0.9-9.7-2-14.4-3.3
					c-0.4-0.1-0.8-0.2-1.2-0.3c2.3,1.5,4.8,2.9,7.3,4.2c2.9,1.4,7.7,3.1,8.7,6.8c1.1,4,0.8,8.2,1.4,12.3c0.3,1.9,0.6,4.1-1.4,5.1
					c-4.7,2.2-9.5,1-14.4,1.1c-4.3,0-8.8,0.9-13,0c-5.6-1.1-12.7-6.8-12.2-13.3c-5,4.1-11.7,7.5-17.8,6.5c-8.2-1.3-13-9.4-20.9-11.3
					c-0.5-0.2-0.8-0.7-0.7-1.2c-3.5,2.2-7.1,4.4-10.6,6.7l0,0c-2.2,1.4-4.3,2.8-6.5,4.1c0-0.6-0.7-1-1.1-0.4c-0.4,0.5-0.7,1.1-1,1.7
					c-0.3,0.2-0.5,0.3-0.8,0.5c-0.1,0.1-0.2,0.3-0.1,0.4s0.3,0.2,0.4,0.1c0,0,0.1,0,0.1-0.1c-1.2,3.6,0,6.9,2.7,10
					c3.4,4,6.4,8.3,9.8,12.3s6.8,5.5,11.9,4.9c3.1-0.5,6.3-0.7,9.5-0.6c3.6,0.3,7.2,0.5,10.9,0.7c7.4,0.4,14.8,0.7,22.2,1
					c6.3,0.2,12.4,1.8,18.8,1.8C1247.3,695.4,1251.8,692.5,1256.4,688.7z"/>
				
					<linearGradient id="SVGID_40_" gradientUnits="userSpaceOnUse" x1="1202.2734" y1="196.7993" x2="1318.6134" y2="196.7993" gradientTransform="matrix(0.9987 -5.094156e-02 -5.094156e-02 -0.9987 -35.3434 931.7216)">
					<stop  offset="1.000000e-02" style="stop-color:#8A3F29"/>
					<stop  offset="1" style="stop-color:#A56951"/>
				</linearGradient>
				<path class="st64" d="M1256.4,688.7c3.9-3.2,7.6-6.9,12.1-9.1c0-2.5,0.1-5.1,0.1-7.6c-3-4.9-5.9-9.9-8.6-15
					c1,6.5,2.3,12.8,5.7,18.4c0.3,0.4,0.2,1-0.3,1.3c-9.5,5.6-21.5,13.6-32.8,9.8c-4.3-1.5-7-7-10.2-9.9c-2.8-2.5-4.6-5.8-6.8-8.8
					c6.8,18.9-9.9,8.2-12.4,1.9c-1.4-3.6-0.5-5.4,1.4-6.8c-3.8,0.7-7.5,1-11.4,0c-5.1-1.4-8.8-6-14-7.3c-0.5-0.2-0.8-0.7-0.6-1.3
					c0,0,0-0.1,0-0.1c1.5-2.8,3.4-5.4,5.7-7.6c-1,0.6-2,1.2-3,1.8c-5.6,3.5-11.3,7-16.9,10.6l0,0c-2.2,1.4-4.3,2.8-6.5,4.1
					c0-0.6-0.7-1-1.1-0.4c-0.4,0.5-0.7,1.1-1,1.7c-0.3,0.2-0.5,0.3-0.8,0.5c-0.1,0.1-0.2,0.3-0.1,0.4s0.3,0.2,0.4,0.1l0,0
					c0,0,0.1,0,0.1-0.1c-1.2,3.6,0,6.9,2.7,10c3.4,4,6.4,8.3,9.8,12.3s6.8,5.5,11.9,4.9c3.1-0.5,6.3-0.7,9.5-0.6
					c3.6,0.3,7.2,0.5,10.9,0.7c7.4,0.4,14.8,0.7,22.2,1c6.3,0.2,12.4,1.8,18.8,1.8C1247.3,695.4,1251.8,692.5,1256.4,688.7z"/>
				
					<linearGradient id="SVGID_41_" gradientUnits="userSpaceOnUse" x1="1202.2976" y1="193.8352" x2="1318.4976" y2="193.8352" gradientTransform="matrix(0.9987 -5.094156e-02 -5.094156e-02 -0.9987 -35.3434 931.7216)">
					<stop  offset="1.000000e-02" style="stop-color:#8A3F29"/>
					<stop  offset="1" style="stop-color:#A56951"/>
				</linearGradient>
				<path class="st65" d="M1247.2,691.4c-8.6,3.3-18.3,0.7-24.1-6.4c-0.3,1.2-0.5,2.4-0.8,3.5c-0.1,0.5-0.6,0.8-1.1,0.7
					c-4.5-0.9-10.9-0.8-14.4-4.4c-2.6-2.7-2.7-8.3-4.4-11.6c-3.1-5.8-8.5-8.2-13.9-11.2c-5.1-2.7-10-5.7-14.8-8.9
					c-3.1,1.9-6.1,3.8-9.2,5.8l0,0c-2.2,1.4-4.3,2.8-6.5,4.1c0-0.6-0.7-1-1.1-0.4c-0.4,0.5-0.7,1.1-1,1.7c-0.3,0.2-0.5,0.3-0.8,0.5
					c-0.1,0.1-0.2,0.3-0.1,0.4s0.3,0.2,0.4,0.1c0,0,0.1,0,0.1-0.1c-1.2,3.6,0,6.9,2.7,10c3.4,4,6.4,8.3,9.8,12.3s6.8,5.5,11.9,4.9
					c3.1-0.5,6.3-0.7,9.5-0.6c3.6,0.3,7.2,0.5,10.9,0.7c7.4,0.4,14.8,0.7,22.2,1c6.3,0.2,12.4,1.8,18.8,1.8c6,0,10.5-2.8,15.1-6.7
					c2.6-2.2,5.1-4.5,7.8-6.5C1258.5,685,1253.1,689.2,1247.2,691.4z"/>
				<path class="st66" d="M1209.4,637.2c-0.5-0.7-1.5-0.9-2.2-0.4c-5,3.1-10.9,4.8-15.2,9c-0.8,0.9-0.7,2.3,0.2,3.1
					c0.1,0.1,0.2,0.2,0.3,0.2c5.8,3.3,22-0.1,22.5-8.7C1215.3,636.7,1212.7,636.2,1209.4,637.2z"/>
				<path class="st66" d="M1223,640.6c-0.3-0.1-0.5-0.2-0.8-0.3c-0.3-0.3-0.7-0.5-1.2-0.4c-1.2,0.3-2.4,0.8-3.4,1.6
					c-1.4,1-1.2,3.7,0.6,3.9c1.7,0.4,3.5-0.1,4.9-1.3c0.6-0.4,0.9-1.1,0.9-1.8C1224.1,641.6,1223.6,640.9,1223,640.6z"/>
				<path class="st66" d="M1208.2,656c-0.1-0.1-0.2-0.1-0.3-0.2l0,0c-0.3-0.2-0.6-0.2-0.9-0.2h-0.1h-0.5c-0.2,0-0.4,0-0.7,0
					c-0.7,0.1-1.3,0.6-1.4,1.3c-0.2,0.8,0.3,1.7,1.2,1.9c0.9,0.3,2.6,0.1,3.1-0.9C1208.8,657.2,1208.7,656.5,1208.2,656z"/>
				<path class="st59" d="M1326.2,656.1l2.3-3.7l16.2-4l12.6,2.4l16.8,17.9l-1.9,9.5l-7.4,5.9l-33.8,0.2c-3.6-1.4-7-3.1-10.4-5
					l-5.9-12.2l-0.3-0.5L1326.2,656.1z"/>
				
					<linearGradient id="SVGID_42_" gradientUnits="userSpaceOnUse" x1="-325.3427" y1="292.4065" x2="-324.9727" y2="277.0965" gradientTransform="matrix(-1 -7.000000e-02 7.000000e-02 -1 1002.5601 939.99)">
					<stop  offset="1.000000e-02" style="stop-color:#8A3F29"/>
					<stop  offset="0.8" style="stop-color:#A56951"/>
				</linearGradient>
				<path class="st67" d="M1334.7,682.2c2.4-2.7,4.6-5.6,6.9-8.4c2.5-3.2,6.2-2.9,9.8-3.8c1.6,0,1.8,0.8,2.7,1.9s2.3,1.8,3.3,2.9
					c2.1,2.4,3.8,6.6,5.1,9.5l-30.7,0.2C1332.8,683.9,1333.9,683.1,1334.7,682.2C1335.7,681.1,1333.9,683.1,1334.7,682.2z"/>
				
					<linearGradient id="SVGID_43_" gradientUnits="userSpaceOnUse" x1="-332.0709" y1="306.9412" x2="-348.5409" y2="282.5012" gradientTransform="matrix(-1 -7.000000e-02 7.000000e-02 -1 1002.5601 939.99)">
					<stop  offset="1.000000e-02" style="stop-color:#8A3F29"/>
					<stop  offset="1" style="stop-color:#A56951"/>
				</linearGradient>
				<path class="st68" d="M1359.4,677.8c-0.4-0.9-0.7-1.8-1.2-2.7c-0.7-1.3-2.3-1.9-3.4-2.9c-1.4-1.4-2.1-2.8-1-4.5s3.3-5.8,3.2-7.8
					c-0.1-1.7-0.7-3-0.3-4.7c0.5-1.4,0.6-3,0.2-4.5c2.4,0.6,5.4,5.3,7,7.1c3.3,3.5,6.6,7,9.9,10.6c1,1-0.7,8.7-1.5,9.9
					s-3.3,2.6-4.6,3.6c-1.9,1.5-2.4,2.3-4.9,2.3C1361.8,682,1360.5,680,1359.4,677.8C1358.9,677,1360.5,679.9,1359.4,677.8z"/>
				
					<linearGradient id="SVGID_44_" gradientUnits="userSpaceOnUse" x1="-305.6632" y1="275.8767" x2="-305.6632" y2="314.0467" gradientTransform="matrix(-1 -7.000000e-02 7.000000e-02 -1 1002.5601 939.99)">
					<stop  offset="1.000000e-02" style="stop-color:#8A3F29"/>
					<stop  offset="0.8" style="stop-color:#A56951"/>
				</linearGradient>
				<path class="st69" d="M1331,684.3c-3.5-1.4-6.9-3-10.2-4.8c-1.9-4.2-3.8-8.4-6-12.4c1-0.1,2-0.2,3-0.3c-0.1,0-0.2,0,0.1,0
					c5.5-0.7,11.5,1.4,16.7,3c2.4,0.7,4.8,1.8,7.3,1.9c1.8,0.3-1.2,2.9-1.6,3.4C1338,677.3,1334.7,683.6,1331,684.3z"/>
				<path class="st70" d="M1354.9,651l-1.7-0.3c0.9,0.1,1.8,0.2,2.7,0.2c2.1,0,3.4,2,4.5,3.5c1.3,1.9,2.9,3.7,4.5,5.4
					c1.5,1.5,3,3.1,4.3,4.8c0.7,0.7,1.4,1.4,2.2,2.1c0.7,0.7,1.3,1.6,1.8,2.5c0,0-0.1,0.1-0.1,0c-1.2-1.6-2.7-3-4.4-4.1
					c-0.8-0.4-1.5-0.9-2.2-1.4c-0.8-0.6-1.6-1.4-2.3-2c-1.5-1.3-2.9-2.8-4.2-4.4C1358.8,654.7,1358.2,651.6,1354.9,651z"/>
				<path class="st66" d="M1316.3,664.9c1.4-1.3,3-2.3,4.4-3.7s2.8-3.2,4.4-4.6c1.2-1.1,2.4-2.2,3.6-3.5c1.1-1.1,2.6-1.8,4.1-1.9
					c3.8-0.7,7.5-1.5,11.3-2.4c0.8-0.3,1.7-0.4,2.6-0.3c0.8,0.2,1.5,0.5,2.2,0.9c2.1,1,4.4,1,6.7,1.3c0.1,0,0.1,0.1,0,0.1
					c-1.8,0.1-3.5,0-5.3-0.4c-0.7-0.1-1.4-0.3-2.1-0.6c-1.1-0.5-2.3-0.5-3.3-0.1c-3.5,1.2-7.1,2.2-10.8,2.9
					c-1.7,0.1-3.3,0.9-4.4,2.2c-1.1,1.2-2.3,2.4-3.6,3.4c-1.5,1.3-3.1,2.3-4.6,3.5s-3,2.4-4.6,3.4
					C1316.3,665.6,1316,665.2,1316.3,664.9z"/>
				<path class="st66" d="M1346.9,669.9c0.3,0,0.6-0.1,0.8-0.2c0.2-0.1,0.5-0.1,0.7,0l0,0c0,0,0,0,0.1-0.1c0.7-0.4,1.4-0.7,2.2-0.8
					c0.8,0,1.3,0,1.7-0.9c0.2-0.4,0.3-0.8,0.4-1.2c0.7-2,2.4-3.5,3-5.5c0-0.1,0.1,0,0.1,0c0,0.8,0.2,1.7-0.6,2.2
					c-1.6,0.8-1.9,2.5-2.3,4c-0.2,0.8-0.6,1.5-1.2,2.1c-0.3,0.2-0.7,0.2-1,0.2c-0.8,0-1.6,0.1-2.4,0.2c0,0-0.1,0-0.1,0
					c0,0.1-0.1,0.1-0.1,0.1c-0.2,0.1-0.4,0-0.7,0S1347.1,669.9,1346.9,669.9C1346.9,669.9,1346.9,669.9,1346.9,669.9z"/>
				<path class="st66" d="M1324,666.7c3.4-0.3,7,1.4,10.3,2.3c3.6,1,7.8,2.7,11.4,1.1c0.1-0.1,0.1,0,0.2,0c0.1,0.1,0,0.1,0,0.2
					c0,0,0,0-0.1,0c-1.4,0.7-2.9,1.6-4.5,1.6c-1.8,0-3.6-1-5.3-1.5c-2-0.7-4-1.3-6-2S1326,667.4,1324,666.7L1324,666.7z"/>
				<path class="st66" d="M1355.3,651.4c-0.1,0-0.1-0.1,0-0.2c0,0,0.1-0.1,0.2,0c1.2,0.5,2,1.1,1.9,2.5c-0.1,1-0.7,1.8-0.8,2.9
					s0.4,2.2,0.4,3.4c0,0,0,0.1-0.1,0.1c0,0-0.1,0-0.1-0.1c0,0,0,0,0,0c-0.3-0.7-0.5-1.3-0.7-2c-0.1-0.7-0.1-1.5,0-2.2
					c0.1-0.6,0.3-1.1,0.6-1.7C1357.3,652.5,1356,652.1,1355.3,651.4z"/>
				<path class="st70" d="M1354.3,671.3c1.6,1.1,3.5,2,4.6,3.6s1.7,3.4,2.8,5c0.1,0.1-0.1,0.3-0.2,0.2c-1.3-1-1.8-2.7-2.6-4.1
					c-0.5-1.1-1.4-2-2.4-2.5c-0.9-0.5-1.6-1.1-2.3-1.9C1354,671.3,1354.1,671.2,1354.3,671.3z"/>
				<path class="st71" d="M1320.6,664.3c2-0.6,4-1.2,6.1-1.6c1-0.3,2.1-0.3,3.2,0c0.2,0.1,0.4,0.1,0.6,0.2c1.2,0.9,2.3,1.9,3.6,2.7
					c1.5,1,3,1.8,4.4,2.8c1,0.7,1.9,1.1,3,0.5c0.7-0.4,1.4-0.6,2.2-0.7c0.8-0.2,1.6-0.6,2.5-0.7c1.3-0.1,2.7,0.5,3.9,0s1.7-2,2.3-3
					c1-1.7,2.9-3.4,2.7-5.6c-0.1-0.9-0.7-1.5-0.6-2.4c0.3-2.2,3.2-3.8,0.9-6.1l2.1,0.4l16.8,17.9l-1.9,9.5l-7.4,5.9l-33.8,0.2
					c-3.6-1.4-7-3.1-10.4-5l-5.9-12.2l-0.3-0.5C1316.5,665.8,1318.6,665,1320.6,664.3z"/>
				<path class="st72" d="M1320.8,679.5l-3.9-8.2c1,1.5,2,3.1,3,4.6c1,1.7,2.4,3.1,4.1,4.1c2.5,1.2,5.2,1.5,7.9,1.1
					c2.5-0.4,5.1-1.7,7.5-0.2c1.7,1,3.8,0.2,5.5-0.2c2.9-0.6,5.8-1.4,8.7-1.8c0.5,0,1.6,0.1,2-0.3c0.4-0.4,0.8-0.8,1.1-1.2
					c0.6-0.7,1-1.5,1.3-2.4c2.8,1.3,5.7,2.2,8.8,2.5c0.3,0,0.5-0.1,0.7-0.3c0.4-0.1,0.7-0.5,0.7-0.8c0.4-2.3,2.2-4,3.1-6.1
					c0.6-1.5,0.1-2.8-0.6-4.2c-0.3-0.6-0.6-1.2-0.9-1.7l4.3,4.6l-1.9,9.5l-7.4,5.9l-33.8,0.2C1327.6,683,1324.2,681.3,1320.8,679.5z
					"/>
				
					<linearGradient id="SVGID_45_" gradientUnits="userSpaceOnUse" x1="-353.4584" y1="293.5031" x2="-293.7984" y2="293.5031" gradientTransform="matrix(-1 -7.000000e-02 7.000000e-02 -1 1002.5601 939.99)">
					<stop  offset="1.000000e-02" style="stop-color:#8A3F29"/>
					<stop  offset="1" style="stop-color:#A56951"/>
				</linearGradient>
				<path class="st73" d="M1314.6,666.6c1.7,1.5,3.5,2.9,5.2,4.4c1.1,1,1.9,2.3,3.2,3.1c1.2,0.7,2.5,1,3.9,1
					c2.7,0.3,5.5,1.3,8.3,0.8c1.4-0.4,2.6-0.9,3.8-1.6c1.2-0.5,2.4-1.1,3.6-1.6c-0.2,0.9-0.5,1.7-0.9,2.6c-0.6,1.1-1.2,2.4,0,3.3
					s4.3,0,5.6-0.4c2-0.8,4-1.3,6.2-1.5c0.8,0,0.9-1.1,0.5-1.5c-1.3-1.8-2.9-3.2-4.8-4.3c-0.2-0.1-0.3-0.2-0.5-0.2
					c1.2-0.4,2.4-0.7,3.6-1c3.6,1.8,7.4,3.3,10.9,5.2c0.5,0.3,1.1,0.2,1.4-0.3c0,0,0.1-0.1,0.1-0.1c0.8-2.8,2.6-4.9,4.2-7.3
					c0.3-0.4,0.2-1-0.2-1.3c-3.8-3.2-6.1-7.7-8.5-12l14.1,15l-1.9,9.5l-7.4,5.9l-33.8,0.2c-3.6-1.4-7-3.1-10.4-5l-5.9-12.2
					L1314.6,666.6L1314.6,666.6z"/>
				<path class="st74" d="M1341,654.9c0.9-0.8,2.6-0.5,3.7-0.3c1,0.2,1.9,0.6,2.6,1.2c1,0.4,1.5,1.4,1.3,2.4c-0.4,2.8-3.6,2.8-5.6,2
					S1338.8,656.9,1341,654.9z"/>
				<path class="st74" d="M1335.6,664.6c0-0.7,0.6-1.2,1.3-1.2h0.4c0.6-0.2,1.2-0.1,1.6,0.4c0.5,0.6,0.5,1.4,0,2
					c-0.5,0.7-1.3,0.9-2.1,0.7c-0.4-0.2-0.7-0.5-0.8-1C1335.7,665.3,1335.6,664.9,1335.6,664.6z"/>
				<path class="st59" d="M1317.8,653.9c-0.9-2.3-1.9-4.5-2.6-6.9l-10.8-4.3l-20.9,8.8l-7.2,8.4l25.4,1.4l0.3,0.1l12.7-2.1
					C1315.6,657.5,1316.7,655.7,1317.8,653.9z"/>
				
					<linearGradient id="SVGID_46_" gradientUnits="userSpaceOnUse" x1="1285.9647" y1="264.0912" x2="1322.4069" y2="264.0912" gradientTransform="matrix(1 5.000000e-02 5.000000e-02 -1.05 -20.42 863.84)">
					<stop  offset="1.000000e-02" style="stop-color:#9E503C"/>
					<stop  offset="1" style="stop-color:#B2856A"/>
				</linearGradient>
				<path class="st75" d="M1307.6,656.4c4.4-2.8,3.8-5.1,5.8-10.1c-2.5-1-6.5-3.7-9.1-3.6c-3.1,0.1-7.6,3.2-10.4,4.4
					c-3.2,1.3-7.6,2.4-10.4,4.4s-5,5.8-7.2,8.4l14.3,0.8l8.5,0.5C1302.1,661.4,1305.1,658,1307.6,656.4L1307.6,656.4z"/>
				
					<linearGradient id="SVGID_47_" gradientUnits="userSpaceOnUse" x1="1285.9547" y1="257.2536" x2="1346.5247" y2="257.2536" gradientTransform="matrix(1 5.000000e-02 5.000000e-02 -1.05 -20.42 863.84)">
					<stop  offset="1.000000e-02" style="stop-color:#8A3F29"/>
					<stop  offset="0.8" style="stop-color:#A56951"/>
				</linearGradient>
				<path class="st76" d="M1315.3,658.2c-2.7-1-5.8-1-8.5,0.1l-0.6,0.2c-1.5,1-3,2-4.5,3c4.3-0.4,8.6-1,12.8-2
					C1314.8,659,1315.1,658.6,1315.3,658.2z"/>
				
					<linearGradient id="SVGID_48_" gradientUnits="userSpaceOnUse" x1="1286.6246" y1="264.8516" x2="1346.5046" y2="264.8516" gradientTransform="matrix(1 5.000000e-02 5.000000e-02 -1.05 -20.42 863.84)">
					<stop  offset="1.000000e-02" style="stop-color:#8A3F29"/>
					<stop  offset="0.8" style="stop-color:#A56951"/>
				</linearGradient>
				<path class="st77" d="M1315.8,657.3c0.7-1.2,1.3-2.3,2-3.4c-0.9-2.3-1.9-4.5-2.6-6.9l-1.6-0.6c-1.4,4.6-2.6,6.9,0.2,10.2
					C1314.5,656.8,1315.2,657.1,1315.8,657.3z"/>
				<path class="st74" d="M1313.1,646.8c-2.1-1.3-3.1-2.2-5.5-2.7c-2.1-0.4-4.2-0.4-6.3,0.1c-4.1,0.8-7.6,3.5-11.6,4.9
					c-0.3,0.1-0.3,0.6,0.1,0.6c3.5-0.3,6.2-2.7,9.4-4c2.5-1,5.3-0.1,7.8,0.7c2.2,0.7,3.8,0.6,6,0.9
					C1313.2,647.3,1313.3,646.9,1313.1,646.8z"/>
				
					<linearGradient id="SVGID_49_" gradientUnits="userSpaceOnUse" x1="1310.3187" y1="243.0079" x2="1341.8605" y2="243.0079" gradientTransform="matrix(1 0 0 -1 -30.89 900)">
					<stop  offset="1.000000e-02" style="stop-color:#8A3F29"/>
					<stop  offset="1" style="stop-color:#A56951"/>
				</linearGradient>
				<path class="st78" d="M1309.2,653.8c-2.4,4.8-7.9,4.4-12.5,5c-5.7,0.5-11.5,0.7-17.2,0.7c-0.3,0,3.3,0.2,3.6,0.3
					c5.5,1,10.9,2.6,16.5,1.8c4.6-0.6,10.6-4,11.4-9.2C1311,652,1309.4,653.5,1309.2,653.8z"/>
				<path class="st79" d="M1317.8,653.9c-0.9-2.3-1.9-4.5-2.6-6.9l-7-2.8c0.5,0.5,0.9,1.1,1.3,1.7c2,3.4-0.8,6.6-2.7,9.2
					c-0.5,0.5-1.2,0.7-1.9,0.5c-6.5-1.5-14.6-1.3-20.8-4.3l-0.6,0.2l-7.2,8.4l25.4,1.4l0.3,0.1l12.7-2.1
					C1315.6,657.5,1316.7,655.7,1317.8,653.9z"/>
				
					<linearGradient id="SVGID_50_" gradientUnits="userSpaceOnUse" x1="637.0226" y1="276.0075" x2="936.2426" y2="577.0575" gradientTransform="matrix(1 0 0 -1 0 900)">
					<stop  offset="3.000000e-02" style="stop-color:#2EB691"/>
					<stop  offset="0.85" style="stop-color:#42D984"/>
				</linearGradient>
				<path class="st80" d="M534.3,463.1c0,0-5.7-69.7,58.9-96.9c27.8-11.7,39.6,4.8,39.6,4.8s19.4-21.8,43.7-19.3
					s46.9,27.3,46.9,27.3s50.9-14.4,67.1,5.6c0,0,8.1,7.7,3.2,18.3c0,0,69.5-19.9,76.8,29.8c0,0,41.2-5,48.5,29.6
					c0,0,58.5-17.9,82.3,19.4c0,0,54.6-1.4,69,18.7l-17.5,0.1l-507-4.5L534.3,463.1z"/>
				
					<linearGradient id="SVGID_51_" gradientUnits="userSpaceOnUse" x1="603.7831" y1="374.8802" x2="596.6531" y2="740.1902" gradientTransform="matrix(1 0 0 -1 0 900)">
					<stop  offset="0" style="stop-color:#907D61"/>
					<stop  offset="6.000000e-02" style="stop-color:#8B7660"/>
					<stop  offset="0.47" style="stop-color:#6E4F57"/>
					<stop  offset="0.69" style="stop-color:#634054"/>
				</linearGradient>
				<path class="st81" d="M744.6,501.9c0.3-0.8-2.2-2.1-4.3-5.1c-1.4-2.1-2.4-4.5-2.9-7c-1.9-7.3-9.2-16.2-11.6-19.5
					c-7.6-10.4-11.2-26-17.2-51.9c-3.4-14.7-5.9-29.5-7.5-44.4c-0.4-25.8,3.1-45.3,10.4-56.5c7.8-12.3,14.8-25.1,20.8-38.3
					c0,0,42.9,2,46.5,0s14.1-11.2,12.3-35.1l0.6-5.8l-11,3.1c0,0-3.4,21.5-17.5,23.1c-16.8,2.3-36.1-8-33.3-23.1h-12.3
					c0,0,3.8,44.1-14.8,53.4c-13.8,3.7-22-2.1-21.3-27.9l0.6-25.8h-22c0,0,1.3,27.4,0,29.1s-11,18.6-21.3-16.3
					c-8.8-24.6-3.8-12.8-3.8-12.8l-11.9,0.3c0,0,5.3,27.1,22.9,44.1c11.6,16.3,11.9,43.6,3.1,53.2c-9.4,9.6-25.4,15-37.7-42.3
					c-8.2-37.9-10.4-55.1-10.4-55.1l-17-0.2c0,0,6.9,45.3,5.7,53.3c-1.6,9-2.2,36.6-39.2,25c-19.2-2.8-57.7-13-73.8-43.6
					c-6-25.9-4.7-35.9-4.7-35.9l-13.8-0.4c0,0,0.3,15,3.1,19c-8.5,0.6-17-1.3-24.5-5.4c-14.2-7.9-20-21.2-21.5-25.1l-11.1-0.4
					c2.6,7.1,6.4,13.7,11.2,19.6c10.9,13.1,26.1,20.3,37.2,22.1c2.2,0.4,11,1.5,11,1.9c0,0.1-0.6,0.1-0.6,0.1s2.8,39.3,47.1,57.2
					c39.5,15.6,56.8,23.6,66.8,29.9s16.9,13,15.4,34.6c-1.6,17.3-0.6,34.7,2.8,51.7c4,19.7,11.3,38.5,21.7,55.7
					c34,1.1,55.8,1.2,69.8,1.1c28.1-0.3,44-1.7,52.4,0.3C739.2,501.8,744.1,503,744.6,501.9z"/>
				<path class="st82" d="M700.5,368.4c-10.5,6.4-19.6,14.9-26.6,25c-30,43.5-9.6,100.8-7.3,107.1l79.3,1.5
					c-5.6-8.2-10.7-16.7-15.3-25.5C709.8,436.5,702.7,397.5,700.5,368.4z"/>
				<path class="st83" d="M691.3,437.8c-1.4,0.3-2.8,0.5-4.2,0.6c-1.4,0.1-2.9-0.1-4.2-0.6c-0.7-0.3-1.3-0.7-1.7-1.4
					c-0.4-0.6-0.6-1.4-0.6-2.1c0-1.5,0.4-2.9,1-4.2c1.2-2.6,2.8-5,4.7-7.2c1.9-2.2,4.1-4.1,6.5-5.6c1.3-0.8,2.7-1.3,4.2-1.4
					c0.8-0.1,1.6,0.1,2.3,0.4c0.3,0.2,0.7,0.4,1,0.6c0.3,0.3,0.6,0.5,0.8,0.8c0.9,1.2,1.6,2.5,1.9,4c0.2,0.7,0.3,1.4,0.5,2.1
					s0.2,1.4,0.2,2.1c0.3,5.7-0.5,11.5-2.1,17v0.1v0.1c-1.5,2.7-3.3,5.3-5.3,7.7c-1.9,2.5-4.2,4.7-6.7,6.6c-1.3,1-2.7,1.7-4.2,2.3
					c-1.6,0.6-3.3,0.7-4.9,0.2c-1.5-0.6-2.8-1.8-3.7-3.2c-0.9-1.3-1.5-2.8-2-4.3c-0.9-3-1.5-6.1-1.7-9.2c-0.3-3.1-0.3-6.2-0.1-9.3
					l0.9-18.5l-0.3,18.5c-0.1,3.1,0,6.2,0.3,9.2c0.3,3,0.9,6,1.8,9c0.5,1.4,1.1,2.8,1.9,4.1c0.7,1.3,1.8,2.2,3.2,2.8
					c1.4,0.4,2.9,0.3,4.2-0.3c1.4-0.5,2.7-1.3,3.9-2.2c4.8-3.7,8.5-8.8,11.6-14v0.1c1.7-5.4,2.4-11,2.2-16.6c0-0.7-0.2-1.4-0.2-2.1
					s-0.2-1.4-0.4-2c-0.3-1.3-0.9-2.6-1.7-3.6c-0.2-0.3-0.5-0.4-0.7-0.7c-0.3-0.2-0.5-0.3-0.8-0.5c-0.6-0.2-1.2-0.4-1.9-0.3
					c-1.3,0.1-2.6,0.6-3.8,1.3c-2.4,1.4-4.6,3.2-6.4,5.3c-1.9,2.1-3.5,4.4-4.7,6.9c-0.6,1.2-1,2.6-1.1,4c0,0.7,0.2,1.3,0.5,1.9
					c0.4,0.6,0.9,1,1.5,1.3c1.3,0.5,2.7,0.8,4.1,0.8C688.5,438.2,689.9,438,691.3,437.8z"/>
				
					<linearGradient id="SVGID_52_" gradientUnits="userSpaceOnUse" x1="71.5516" y1="-158.1067" x2="1414.5116" y2="151.8733" gradientTransform="matrix(1 0 0 -1 0 900)">
					<stop  offset="2.000000e-02" style="stop-color:#024E20"/>
					<stop  offset="0.82" style="stop-color:#024E20"/>
					<stop  offset="0.94" style="stop-color:#024E20"/>
				</linearGradient>
				<path class="st84" d="M-388,778.5c0,0,340.6-56.4,952.9,37.6s1337.9,21.5,1423.2,0v185.3H-388V778.5z"/>
				<path class="st85" d="M1492.5,863.4c0,0,39-23.9,47-28.2c9.7-5.3-8.1-12.8-37.1,5.5C1502.4,840.7,1484.6,853.9,1492.5,863.4z"/>
				<path class="st85" d="M1474.2,861.9c0,0-7.9-22.1-51.1-21.5S1474.2,861.9,1474.2,861.9z"/>
				<path class="st85" d="M1485.9,865.2c0,0,13.2-49.6,32.4-63.2c16.4-11.7-18.4-14.8-38,13S1485.9,865.2,1485.9,865.2z"/>
				<path class="st85" d="M514.2,824.7c0,0,51.8-7.1,50.3-26.6S514.2,824.7,514.2,824.7z"/>
				<path class="st85" d="M504.1,832.6c0,0,28.8-48.8,50.4-61.2S517.1,758,504.1,809V832.6z"/>
				<path class="st85" d="M502,826c0,0,14.5-37.9-39.6-39.9C438,785.2,502,826,502,826z"/>
				<path class="st85" d="M270.9,789.1c0,0,20.1-12.5,59-15.5s-41.7-16.4-70.5,15.5C259.3,789.1,246.4,803.3,270.9,789.1z"/>
				<path class="st85" d="M216.2,790.9c0,0,59-39.9,93.5-50.5s-33.1-11.5-79.1,21.7C230.6,762.1,207.6,782,216.2,790.9z"/>
				<path class="st85" d="M198.9,790.9c0,0,39.2-64.7,57-72.7s-28.2-12.4-57,40.3C198.9,758.5,187.4,786.4,198.9,790.9z"/>
				<path class="st85" d="M178.1,790.9c0,0,15.1-59.4,29.5-68.3S152.9,732.3,178.1,790.9z"/>
				<path class="st85" d="M169.4,790.9c0,0,0.7-49.5-30.2-57.1S157.2,766,169.4,790.9z"/>
				<path class="st85" d="M159.4,790.9c0,0-19.4-56.7-66.9-58.1S129.9,753.6,159.4,790.9z"/>
				<path class="st85" d="M155.3,790.9c0,0-25.4-23-68.6-21.3S144.8,783.8,155.3,790.9z"/>
			</g>
		</g>
		<line class="st86" x1="1880" y1="810" x2="800" y2="410"/>
		<line class="st86" x1="-280" y1="810" x2="800" y2="410"/>
		<line class="st86" x1="800" y1="413.9" x2="800" y2="0"/>
	</g>
</g>
</svg>
