<?xml version="1.0" encoding="utf-8"?>
<!-- Generator: Adobe Illustrator 25.2.3, SVG Export Plug-In . SVG Version: 6.00 Build 0)  -->
<svg version="1.1" id="Layer_1" xmlns="http://www.w3.org/2000/svg" xmlns:xlink="http://www.w3.org/1999/xlink" x="0px" y="0px"
	 viewBox="0 0 1600 900" style="enable-background:new 0 0 1600 900;" xml:space="preserve">
<style type="text/css">
	.st0{clip-path:url(#SVGID_2_);}
	.st1{fill:url(#SVGID_3_);}
	.st2{fill:#8FD6F3;}
	.st3{fill:url(#SVGID_4_);}
	.st4{fill:url(#SVGID_5_);}
	.st5{fill:url(#SVGID_6_);}
	.st6{fill:url(#SVGID_7_);}
	.st7{fill:url(#SVGID_8_);}
	.st8{fill:url(#SVGID_9_);}
	.st9{opacity:0.2;fill:url(#SVGID_10_);enable-background:new    ;}
	.st10{fill:url(#SVGID_11_);}
	.st11{opacity:0.1;fill:#0F5A2A;enable-background:new    ;}
	.st12{opacity:0.2;fill:url(#SVGID_12_);enable-background:new    ;}
	.st13{opacity:0.2;fill:url(#SVGID_13_);enable-background:new    ;}
	.st14{fill:url(#SVGID_14_);}
	.st15{opacity:0.44;fill:#E5F0C8;enable-background:new    ;}
	.st16{opacity:0.3;fill:#E5F0C8;enable-background:new    ;}
	.st17{opacity:0.6;fill:#E6A143;enable-background:new    ;}
	.st18{fill:url(#SVGID_15_);}
	.st19{opacity:0.4;fill:#7FCEF4;enable-background:new    ;}
	.st20{opacity:0.6;fill:url(#SVGID_16_);enable-background:new    ;}
	.st21{fill:#9C673E;}
	.st22{opacity:0.5;}
	.st23{opacity:0.8;fill:#9C673E;enable-background:new    ;}
	.st24{fill:#6C9E12;}
	.st25{opacity:0.3;fill:url(#SVGID_17_);enable-background:new    ;}
	.st26{opacity:0.3;fill:url(#SVGID_18_);enable-background:new    ;}
	.st27{opacity:0.3;fill:url(#SVGID_19_);enable-background:new    ;}
	.st28{opacity:0.6;fill:url(#SVGID_20_);enable-background:new    ;}
	.st29{opacity:0.6;fill:url(#SVGID_21_);enable-background:new    ;}
	.st30{opacity:0.6;fill:url(#SVGID_22_);enable-background:new    ;}
	.st31{opacity:0.6;fill:url(#SVGID_23_);enable-background:new    ;}
	.st32{opacity:0.3;fill:url(#SVGID_24_);enable-background:new    ;}
	.st33{opacity:0.3;fill:url(#SVGID_25_);enable-background:new    ;}
	.st34{opacity:0.6;fill:url(#SVGID_26_);enable-background:new    ;}
	.st35{opacity:0.6;fill:url(#SVGID_27_);enable-background:new    ;}
	.st36{opacity:0.6;fill:url(#SVGID_28_);enable-background:new    ;}
	.st37{opacity:0.6;fill:url(#SVGID_29_);enable-background:new    ;}
	.st38{opacity:0.6;fill:url(#SVGID_30_);enable-background:new    ;}
	.st39{opacity:0.6;fill:url(#SVGID_31_);enable-background:new    ;}
	.st40{fill:#147E20;}
	.st41{fill:#145131;}
	.st42{fill:#143D26;}
	.st43{opacity:0.2;fill:#5E4752;enable-background:new    ;}
	.st44{fill:#AD7D61;}
	.st45{fill:url(#SVGID_32_);}
	.st46{fill:url(#SVGID_33_);}
	.st47{fill:url(#SVGID_34_);}
	.st48{opacity:0.3;fill:url(#SVGID_35_);enable-background:new    ;}
	.st49{opacity:0.3;fill:url(#SVGID_36_);enable-background:new    ;}
	.st50{opacity:0.4;fill:url(#SVGID_37_);enable-background:new    ;}
	.st51{opacity:0.2;fill:#F6C2A4;enable-background:new    ;}
	.st52{fill:url(#SVGID_38_);}
	.st53{fill:url(#SVGID_39_);}
	.st54{fill:url(#SVGID_40_);}
	.st55{opacity:0.5;fill:#817858;enable-background:new    ;}
	.st56{opacity:0.1;fill:#3E120B;enable-background:new    ;}
	.st57{opacity:0.3;fill:#3E120B;enable-background:new    ;}
	.st58{opacity:0.3;fill:url(#SVGID_41_);enable-background:new    ;}
	.st59{opacity:0.3;fill:#FCB381;enable-background:new    ;}
	.st60{fill:url(#SVGID_42_);}
	.st61{fill:url(#SVGID_43_);}
	.st62{fill:url(#SVGID_44_);}
	.st63{opacity:0.2;fill:url(#SVGID_45_);enable-background:new    ;}
	.st64{opacity:0.6;fill:#B67318;enable-background:new    ;}
	.st65{fill:url(#SVGID_46_);}
	.st66{fill:url(#SVGID_47_);}
	.st67{opacity:0.75;fill:#C28A73;enable-background:new    ;}
	.st68{fill:#754D32;}
	.st69{fill:#3BEAA2;}
	.st70{fill:url(#SVGID_48_);}
	.st71{fill:url(#SVGID_49_);}
	.st72{fill:url(#SVGID_50_);}
	.st73{fill:#CE856B;}
	.st74{fill:url(#SVGID_51_);}
	.st75{fill:url(#SVGID_52_);}
	.st76{fill:#024E20;}
	.st77{fill:url(#SVGID_53_);}
	.st78{fill:#032616;}
</style>
<g>
	<defs>
		<rect id="SVGID_1_" width="1600" height="900"/>
	</defs>
	<clipPath id="SVGID_2_">
		<use xlink:href="#SVGID_1_"  style="overflow:visible;"/>
	</clipPath>
	<g class="st0">
		
			<linearGradient id="SVGID_3_" gradientUnits="userSpaceOnUse" x1="1591.6649" y1="499.05" x2="1591.6649" y2="1963.97" gradientTransform="matrix(1 0 0 -1 0 900)">
			<stop  offset="0" style="stop-color:#DDF1FD"/>
			<stop  offset="1" style="stop-color:#16B6E6"/>
		</linearGradient>
		<path class="st1" d="M-627.9,1033.1c37.9-0.9,47.3-3.6,87,0s175.9,5.3,266.7-0.9s208.1,0,268.6,0s247.8,3.6,372.7,3.6
			s507.9,2.7,797.3,5.3s422.8,2.7,803,4s607.3,5.3,743.5,8s349,0,496.5-1.3c140.8-1.3,462.4-13.5,762.7-10V-735H-786.8v1776.5
			c21.9-0.7,47.7-2.6,68.1-6.6C-679,1026.8-665.7,1033.9-627.9,1033.1z"/>
		<path class="st2" d="M3057.6,181.7c-139.3-54.1-256.5-91.8-341.1-117C2478.3-6.4,2356-41.7,2203.1-25.8
			c-127.3,13.2-229.1,55.5-293.8,88.1C1194.6,254.5,700.8-200.3,361.8,14.9C6.6,240.3-676.7,29.2-676.7,29.2v421.7l2586-48.4v-50.5
			l1290.3,14.3c9.6-8.9,13.5-17.9,14.6-26C3222.6,279.3,3085.7,198,3057.6,181.7z"/>
		
			<linearGradient id="SVGID_4_" gradientUnits="userSpaceOnUse" x1="899.0984" y1="453.9515" x2="1510.9884" y2="1092.1315" gradientTransform="matrix(1 0 0 -1 0 900)">
			<stop  offset="1.000000e-02" style="stop-color:#987CE4"/>
			<stop  offset="0.23" style="stop-color:#919FDF"/>
			<stop  offset="0.45" style="stop-color:#8BBCDB"/>
			<stop  offset="0.64" style="stop-color:#87CDD9"/>
			<stop  offset="0.78" style="stop-color:#86D3D8"/>
		</linearGradient>
		<path class="st3" d="M676.7,142.1c0,0,209.3,62.4,386.7-220.7c0,0,71.6-104.6,180.4-99.6c87.4,4,262.3,96.3,317,376.1
			c0,0,7.9,59.6,0.9,92.9l-893.3-6.4L676.7,142.1z"/>
		
			<linearGradient id="SVGID_5_" gradientUnits="userSpaceOnUse" x1="-207.7719" y1="457.9622" x2="774.6982" y2="1273.7123" gradientTransform="matrix(1 0 0 -1 0 900)">
			<stop  offset="0.17" style="stop-color:#9595EB"/>
			<stop  offset="0.23" style="stop-color:#929FE8"/>
			<stop  offset="0.41" style="stop-color:#89BDE1"/>
			<stop  offset="0.6" style="stop-color:#83D2DC"/>
			<stop  offset="0.78" style="stop-color:#7FDFD9"/>
			<stop  offset="0.95" style="stop-color:#7EE3D8"/>
		</linearGradient>
		<path class="st4" d="M384.8-361.4l16.7-2.3c56-4.1,100.5,15.6,112.2,23.5c46.6,31.8,179.6,142.8,241.6,334.7
			c45.6,141.2,46.9,283.4,46.9,283.4H-822.4c0,0,554.6-69.5,708.2-235.8c143.9-155.9,335.8-345.5,464-393.4
			C361.3-355.6,372.1-359.2,384.8-361.4z"/>
		
			<linearGradient id="SVGID_6_" gradientUnits="userSpaceOnUse" x1="237.2" y1="632.149" x2="3001.46" y2="632.149" gradientTransform="matrix(1 0 0 -1 0 900)">
			<stop  offset="0.15" style="stop-color:#108937"/>
			<stop  offset="0.33" style="stop-color:#1C9C45"/>
			<stop  offset="0.69" style="stop-color:#3BCC67"/>
			<stop  offset="0.73" style="stop-color:#3FD26C"/>
		</linearGradient>
		<path class="st5" d="M2883.1-3.3c0,0-31.3-10.1-39.6,7.9c0,0-31.4-26.9-51.1,2.3c-24.7-37.1-123.7-22.5-103.9,32.5
			c0,0-19.8-12.4-29.7,0c-8.2-12.4-52.8-23.6-52.8,2.3c-39.6-29.2-87.4-9-102.2,22.4c-36.3-14.6-52.8,12.3-52.8,12.3
			s-39.6-22.5-82.4,2.2s1.6,66.2,1.6,66.2s-19.8-19.1-52.8,7.9c0,0-29.7-41.5-52.8-11.2c-23.1-35.9-117.1-38.2-141.8,25.8
			c0,0-42.9-22.5-47.8,9c-29.7-28.1-131.9-21.3-118.7,30.3c0,0-72.6-11.2-67.6,35.9c0,0-29.7-11.2-33,1.1
			c-77.5-56.1-128.6,16.8-128.6,16.8s-14.8-28.1-51.1-11.2c-31.3-55-140.2-26.9-143.4,24.7c0,0-36.3-13.5-38,13.5
			c-19.8-11.2-57.7-26.9-74.2,5.6c-11.5-20.2-61-48.3-105.5-7.9c0,0-11.5-25.8-64.3-15.7c19.8-20.2-11.6-68.5-54.4-57.3
			c36.3-37-39.6-92.1-105.5-40.4c0,0-13.2-33.7-54.4-15.7c18.1-33.7-29.7-56.1-57.7-30.3c0,0-8.3-22.4-41.2-11.2
			c-6.6-33.7-44.5-18-44.5-18s-16.4-32.6-51-15.7C859.9,49.5,822,46.1,822,46.1C815.4-37,680.2-25.8,663.7,15.8
			c0,0-11.5-11.2-28-2.2c3.3-13.5-18.1-37-33-16.9c-6.6-34.8-112.1-53.9-150-2.2c0,0-16.5-24.7-37.9-9
			C383.4-61.7,301-35.9,299.3,14.7c0,0-5-10.1-13.2,1.1c-23-9.9-38.5-6.5-48.9,0.8v477.8c12.7-0.6,27.7-2.1,39.6-5.6
			c23.1-6.8,30.8-0.8,52.8-1.5s27.5-3,50.6,0s102.2,4.5,155-0.8s120.9,0,156.1,0s144,3,216.6,3s296,83.2,464.2,85.5
			s244.8-78.8,465.7-77.6s352.9,4.5,432,6.8s202.8,0,288.5-1.1c81.8-1.1,268.7-11.3,443.2-8.4V-3.6c-5.7-2-11.7-3-17.8-3.1
			C2990.3-49.3,2878.2-49.3,2883.1-3.3z"/>
		
			<linearGradient id="SVGID_7_" gradientUnits="userSpaceOnUse" x1="-6855.3301" y1="585.3652" x2="-4091.0798" y2="585.3652" gradientTransform="matrix(-1 0 0 -1 -6655.0898 900)">
			<stop  offset="0.15" style="stop-color:#108937"/>
			<stop  offset="0.33" style="stop-color:#1C9C45"/>
			<stop  offset="0.69" style="stop-color:#3BCC67"/>
			<stop  offset="0.73" style="stop-color:#3FD26C"/>
		</linearGradient>
		<path class="st6" d="M-2445.6,43.5c0,0,31.3-10.1,39.6,7.9c0,0,31.4-26.9,51.1,2.3c24.7-37.1,123.6-22.5,103.9,32.5
			c0,0,19.8-12.3,29.7,0c8.2-12.3,52.8-23.6,52.8,2.3c39.6-29.2,87.4-9,102.3,22.4c36.3-14.6,52.8,12.3,52.8,12.3
			s39.6-22.5,82.4,2.2s-1.6,66.2-1.6,66.2s19.8-19.1,52.8,7.9c0,0,29.7-41.5,52.8-11.2c23.1-35.9,117-38.2,141.8,25.8
			c0,0,42.9-22.4,47.8,9c29.7-28.1,131.9-21.3,118.7,30.3c0,0,72.6-11.2,67.6,35.9c0,0,29.7-11.2,33,1.1
			c77.5-56.1,128.6,16.8,128.6,16.8s14.8-28,51.1-11.2c31.3-55,140.2-26.9,143.5,24.7c0,0,36.3-13.5,37.9,13.5
			c19.8-11.2,57.7-26.9,74.2,5.6c11.5-20.2,61-48.3,105.5-7.8c0,0,11.5-25.8,64.3-15.7c-19.8-20.2,11.5-68.5,54.4-57.3
			c-36.3-37,39.6-92.1,105.5-40.4c0,0,13.2-33.7,54.4-15.7c-18.1-33.7,29.7-56.1,57.7-30.3c0,0,8.3-22.4,41.2-11.2
			c6.6-33.7,44.5-18,44.5-18s16.5-32.6,51.1-15.7c-18.1-31.4,19.8-34.8,19.8-34.8c6.5-83,141.8-71.8,158.2-30.3
			c0,0,11.5-11.2,28-2.2c-3.3-13.5,18.1-37,33-16.8c6.6-34.8,112.1-53.9,150-2.2c0,0,16.5-24.7,37.9-9
			C54-14.9,136.5,10.9,138.1,61.4c0,0,5-10.1,13.2,1.1c23-9.9,38.5-6.5,48.9,0.8v477.8c-12.7-0.6-27.7-2.2-39.6-5.6
			c-23.1-6.8-30.8-0.8-52.8-1.5s-27.5-3-50.6,0s-102.2,4.5-155-0.8s-120.9,0-156.1,0s-144,3-216.6,3s-296,83.3-464.2,85.5
			s-244.8-78.8-465.7-77.6s-352.9,4.5-432,6.8s-202.8,0-288.5-1.1c-81.8-1.1-268.7-11.3-443.2-8.4V43.2c5.7-2,11.7-3,17.8-3.1
			C-2552.8-2.5-2440.7-2.5-2445.6,43.5z"/>
		
			<linearGradient id="SVGID_8_" gradientUnits="userSpaceOnUse" x1="117.41" y1="697.4699" x2="652.4559" y2="697.4699" gradientTransform="matrix(1 0 0 -1 0 900)">
			<stop  offset="0.15" style="stop-color:#108937"/>
			<stop  offset="0.33" style="stop-color:#1C9C45"/>
			<stop  offset="0.69" style="stop-color:#3BCC67"/>
			<stop  offset="0.73" style="stop-color:#3FD26C"/>
		</linearGradient>
		<path class="st7" d="M121,65.6c0,0,46-42,68.9,3.6c8.5-13.2,19.4-8.4,19.4-8.4s-7.2-51.6,47.2-52.9s26.6,34.8,26.6,34.8
			s36.3-8.4,18.1,27.6c23-8.4,27.8,16.8,27.8,16.8c24.2-21.6,42.3-2.4,41.1,19.2c18.1-4.8,59.3,3.6,43.5,51.7
			c12.1-3.6,15.7,21.6,15.7,21.6s39.9-42,55.6,9.6c18.1-52.9,68.9-48.1,71.3-10.8c13.3-1.2,18.1,12,13.3,19.2
			c15.7-8.4,31.4,10.8,20.6,27.6c0,0,42.3-12,61.7,43.3S117.4,397.2,117.4,397.2L121,65.6z"/>
		
			<radialGradient id="SVGID_9_" cx="-589.04" cy="2211.5564" r="980.64" gradientTransform="matrix(1.75 0 0 -1.48 2548.6899 3137.1599)" gradientUnits="userSpaceOnUse">
			<stop  offset="9.000000e-02" style="stop-color:#85C043"/>
			<stop  offset="0.33" style="stop-color:#9DC830"/>
			<stop  offset="0.4" style="stop-color:#A5CB2A"/>
			<stop  offset="0.69" style="stop-color:#6E9730"/>
			<stop  offset="0.75" style="stop-color:#648D31"/>
			<stop  offset="1" style="stop-color:#3D5E27"/>
		</radialGradient>
		<path class="st8" d="M2974.5,274c-87-12.9-202.3-19.4-342.8-19.4c-423,0-925.2,57.5-946.4,59.9c-20.9,2.4-47.8,3.6-79.9,3.6
			c-111.7,0-272.8-14.6-402.2-26.4c-82-7.5-152.9-13.9-195.6-15.3c-13.7-0.5-30-0.7-48.3-0.7c-112.5,0-290.7,8.7-433.8,15.6
			c-42.9,2.1-83.3,4-117.5,5.5c-20.1,0.9-39.5,1.3-57.6,1.3c-38,0-70.8-2-97.6-5.9l-1.7-0.2v99.5h1.4c12.8,0,32.7,0,57.5,0
			c121.7,0,414.9,0.5,508.5,4.9c49.1,2.4,119.9,4.2,195,6.1c110.1,2.8,224,5.8,264.2,10.5c18.8,2.2,36.1,3.5,52,4.4
			c-1,0.9-1.9,1.8-2.8,2.8c-1.3,1.4-0.4,3.9,3,2.9c6.6-1.9,13.3-3.5,20.1-4.7c-4,2.6-7.8,5.7-11.3,9c-1.2,1.1-0.9,4.5,2.7,3.6
			c18-4.2,36.2-7.7,55.4-8.2c-4.6,2.3-9.3,4.4-14,6.6c-2.2,1.1-1.7,4.4,1.9,3.8c18.4-3,35.9-7.4,54.7-8.7c-0.5,0.2-1,0.4-1.6,0.6
			c-1.9,0.7-3.2,3.9,0.4,3.8c11.1-0.1,22.2-0.7,33.2-2c-0.6,0.7-0.5,1.8,0.3,2.4c0.3,0.2,0.6,0.4,1,0.4c18.2,2.6,35.7-2.1,53.3-4.8
			c21.8,0.8,44.8,1.5,66.6,2c-1.6,1.4-3.1,2.8-4.5,4.3c-1,1,0.3,2.6,2.2,1.6c4.1-2.1,8.3-3.9,12.6-5.6l10.6,0.2
			c-3.1,3.3-6,6.8-8.6,10.5c-0.8,1.1,0.7,2.8,2.8,2c12.4-4.5,24.8-8.7,37.8-12l10.7,0.1c-1.8,1.4-3.4,3-5,4.6
			c-1.4,1.5,0.3,3.5,3.2,2.3c5.8-2.5,11.7-4.9,17.9-6.9c5-0.1,9.2-0.2,12.5-0.4c1.4,0,2.8-0.1,4.3-0.1c1.2,3.3,3,6.3,5.3,8.9
			c0.8,0.6,1.9,0.8,2.9,0.4c5.7-1.9,10.8-5.4,14.7-10c5.3-0.1,10.5-0.2,15.8-0.3c4.4,2,8.9,3.8,13.7,5.5c1.5,0.5,3-0.3,3.5-1.8
			c0-0.1,0-0.2,0.1-0.2c0-1.3-0.1-2.5-0.2-3.7c2.4,0,4.9-0.1,7.3-0.1c22.5-0.2,45.8-0.5,68.3-1.4c18-0.8,28.2-1.8,38.1-2.9
			c14.4-1.5,28-3,64.9-3c61.1,0,144.7,0,195.3-1c17.1-0.3,38.4-0.4,60.8-0.5c26.5-0.1,53.5-0.3,75.5-0.8c0,0.2,0.2,0.5,0.7,0.5
			c17.6,0.3,33.2,3.3,49.1,7.5c0.7,0.2,1.4-0.2,1.6-0.9c0,0,0,0,0-0.1c0.3-4.6-4.4-7.3-10.6-9.1l7-0.6c15.7,1.3,30.6,4.5,41.5,11.8
			c1.6,1.1,3.9-0.5,4.2-1.4c1.7-5.4-2.7-9.3-9.2-12.2c11.3,1.4,22,4.5,29.1,9.9c1.8,1.2,4.2,0.9,5.5-0.8c6.5-9-5.8-15.3-19.4-19.2
			c16.4,0.3,32.9,1.2,49.3,2.1c2.6,0.1,4.3-2.1,2.9-3.3c-4-3.5-9.2-5.7-15.1-7.2c10.4-0.3,19.8-0.5,30.4-0.6
			c6.5-0.1,13.4-0.2,21.2-0.3c5.2,0.4,10.4,0.8,15.6,1c1,0.1,2-0.5,2.4-1.4c6.8-0.2,14.3-0.4,22.8-0.6l19.2-0.6
			c48.8-1.6,104.1-3.5,143.7-3.5c7.3,0,13.9,0.1,19.6,0.2s12.1,0.2,19.3,0.2c41.2,0,96-2.1,128.9-4.3c-10.3,3.1-19.8,7.1-28,12.8
			l0,0l0,0c-0.1,0.1-0.2,0.1-0.3,0.2c-0.9,0.6,0,2.1,1.5,1.5c9.7-3.8,19.6-6.8,29.8-9c-1.7,0.9-3.2,2-4.7,3.2
			c-0.9,0.8-0.5,2.6,1.7,2.2c10-1.9,19.5-4.2,29.8-5.4c-2.6,1.9-4.8,4.2-6.7,6.8c-0.8,1.1,0.6,2.3,2.5,1.7
			c6.8-1.9,12.4-5.1,18.6-7.7c11.4-4.6,18.1,5.6,25.9,9.1c1.7,0.8,4-0.2,4.1-1.4c0.3-2.9-0.7-5.4-1.9-8c9.6,3.5,17.8,8.3,29.4,9.3
			c1.3,0.2,2.5-0.5,3.1-1.7c0.7-3,0-6.1-1.7-8.5c18.7,1.6,38.1,3,56.2,3.2h1.4v-118L2974.5,274z M1593.3,428.4
			c0.3-0.4,0.7-0.8,1-1.1c0.4,0,0.8,0,1.2,0C1594.8,427.6,1594,428,1593.3,428.4z"/>
		
			<linearGradient id="SVGID_10_" gradientUnits="userSpaceOnUse" x1="1480.2023" y1="1104.1058" x2="1760.4724" y2="-93.7841" gradientTransform="matrix(1 0 0 -1 0 900)">
			<stop  offset="2.000000e-02" style="stop-color:#328635"/>
			<stop  offset="0.18" style="stop-color:#4A9739"/>
			<stop  offset="0.51" style="stop-color:#85C043"/>
			<stop  offset="0.64" style="stop-color:#9CCB5B"/>
			<stop  offset="0.84" style="stop-color:#C8DF89"/>
		</linearGradient>
		<path class="st9" d="M2743.8,345.2c-68.2,4-136,8.7-203.9,14.5c-64.9,5.6-130.4,11-196.1,11.5c-53.2,0.4-112.7-0.8-159.8-17.5
			c-1.3-0.5-1.1-1.5,0-2c14.7-6.4,26-15.1,41.4-20.9c-58.2-12.9-128.3-7.1-188-2.2c-62.9,5.2-124.8,13.4-187.4,19.6
			c32.9,7.9,75.1,6.6,96.7,25.9c0.7,0.5,0.1,1.2-0.7,1.6c-37.7,17.2-89.9,22-135.6,25.3c-56.5,4-113.6,4.7-170.4,4.6
			c-52.6-0.1-105.2-0.7-157.8-1.8c-56.2-1.2-119.3-2.7-168.7-20.8c-1.1-0.4-1.2-1.2-0.4-1.8c12.7-9.6,29.8-16.3,46.2-23.4
			c-13.5-3.1-27.3-5.7-41.4-7.6c-77.9-10.3-159.1-6.8-238.1-3.9c-86.6,3.1-172.6,2.4-259.2,0.6c-96.5-2-193-4.5-289.5-3.1
			c-35.8,0.5-71.6,1.1-107.4,0.8c-44.3-0.3-90.2-0.9-133.5-7.2c-10.8-1.6-27-4.2-38.8-9v63.2h1.4c12.8,0,32.7,0,57.5,0
			c121.7,0,414.9,0.5,508.5,4.9c49.1,2.4,119.9,4.2,195,6.1c110.2,2.8,224,5.8,264.2,10.5c18.8,2.2,36.1,3.5,52,4.4
			c-1,0.9-1.9,1.8-2.8,2.8c-1.3,1.4-0.4,3.9,3,2.9c6.6-1.9,13.3-3.5,20.1-4.7c-4,2.6-7.8,5.7-11.3,9c-1.2,1.1-0.9,4.5,2.7,3.6
			c18-4.2,36.2-7.7,55.4-8.2c-4.6,2.3-9.3,4.4-14,6.6c-2.2,1.1-1.7,4.4,1.9,3.8c18.4-3,35.9-7.4,54.7-8.7c-0.5,0.2-1,0.4-1.6,0.6
			c-1.9,0.7-3.2,3.9,0.4,3.8c11.1-0.1,22.2-0.7,33.2-2c-0.6,0.7-0.5,1.8,0.3,2.4c0.3,0.2,0.6,0.4,1,0.4c18.2,2.6,35.7-2.1,53.3-4.8
			c21.8,0.8,44.8,1.5,66.6,2c-1.6,1.4-3.1,2.8-4.5,4.3c-1,1,0.3,2.6,2.2,1.6c4.1-2.1,8.3-3.9,12.6-5.6l10.6,0.2
			c-3.1,3.3-6,6.8-8.6,10.5c-0.8,1.1,0.7,2.8,2.8,2c12.4-4.5,24.8-8.7,37.8-12l10.7,0.1c-1.8,1.4-3.4,3-5,4.6
			c-1.4,1.5,0.3,3.5,3.2,2.3c5.8-2.5,11.7-4.9,17.9-6.9c5-0.1,9.2-0.2,12.5-0.4c1.4,0,2.8-0.1,4.3-0.1c1.2,3.3,3,6.3,5.3,8.9
			c0.8,0.6,1.9,0.8,2.9,0.4c5.7-1.9,10.8-5.4,14.7-10c5.3-0.1,10.5-0.2,15.8-0.3c4.4,2,8.9,3.8,13.7,5.5c1.5,0.5,3-0.3,3.5-1.8
			c0-0.1,0-0.2,0.1-0.2c0-1.3-0.1-2.5-0.2-3.7c2.4,0,4.9-0.1,7.3-0.1c22.5-0.2,45.8-0.5,68.3-1.4c18-0.8,28.2-1.8,38.1-2.9
			c14.4-1.5,28-3,64.9-3c61.1,0,144.7,0,195.3-1c17.1-0.3,38.4-0.4,60.8-0.5c26.5-0.1,53.5-0.3,75.5-0.8c0,0.2,0.2,0.5,0.7,0.5
			c17.6,0.3,33.2,3.3,49.1,7.5c0.7,0.2,1.4-0.2,1.6-0.9c0,0,0,0,0-0.1c0.3-4.6-4.4-7.3-10.6-9.1l7-0.6c15.7,1.3,30.6,4.5,41.5,11.8
			c1.6,1.1,3.9-0.5,4.2-1.4c1.7-5.4-2.7-9.3-9.2-12.2c11.3,1.4,22,4.5,29.1,9.9c1.8,1.2,4.2,0.9,5.5-0.8c6.5-9-5.8-15.3-19.4-19.2
			c16.4,0.3,32.9,1.2,49.3,2.1c2.6,0.1,4.3-2.1,2.9-3.3c-4-3.5-9.2-5.7-15.1-7.2c10.4-0.3,19.8-0.5,30.4-0.6
			c6.5-0.1,13.4-0.2,21.2-0.3c5.2,0.4,10.4,0.8,15.6,1c1,0.1,2-0.5,2.4-1.4c6.8-0.2,14.3-0.4,22.8-0.6l19.2-0.6
			c48.8-1.6,104.1-3.5,143.7-3.5c7.3,0,13.9,0.1,19.6,0.2s12.1,0.2,19.3,0.2c41.2,0,96-2.1,128.9-4.3c-10.3,3.1-19.8,7.1-28,12.8
			l0,0l0,0c-0.1,0.1-0.2,0.1-0.3,0.2c-0.9,0.6,0,2.1,1.5,1.5c9.7-3.8,19.6-6.8,29.8-9c-1.7,0.9-3.2,2-4.7,3.2
			c-0.9,0.8-0.5,2.6,1.7,2.2c10-1.9,19.5-4.2,29.8-5.4c-2.6,1.9-4.8,4.2-6.7,6.8c-0.8,1.1,0.6,2.3,2.5,1.7
			c6.8-1.9,12.4-5.1,18.6-7.7c11.4-4.6,18.1,5.6,25.9,9.1c1.7,0.8,4-0.2,4.1-1.4c0.3-2.9-0.7-5.4-1.9-8c9.6,3.5,17.8,8.3,29.4,9.3
			c1.3,0.2,2.5-0.5,3.1-1.7c0.7-3,0-6.1-1.7-8.5c18.7,1.6,38.1,3,56.2,3.2h1.4v-54.7C2898.1,337,2820.8,340.7,2743.8,345.2z
			 M1593.3,428.4c0.3-0.4,0.7-0.8,1-1.1c0.4,0,0.8,0,1.2,0C1594.8,427.6,1594,428,1593.3,428.4z"/>
		
			<radialGradient id="SVGID_11_" cx="-2147.1101" cy="2217.3999" r="980.64" gradientTransform="matrix(1 0 0 -1 0 900)" gradientUnits="userSpaceOnUse">
			<stop  offset="9.000000e-02" style="stop-color:#85C043"/>
			<stop  offset="0.33" style="stop-color:#9DC830"/>
			<stop  offset="0.4" style="stop-color:#A5CB2A"/>
			<stop  offset="0.69" style="stop-color:#6E9730"/>
			<stop  offset="0.75" style="stop-color:#648D31"/>
			<stop  offset="1" style="stop-color:#3D5E27"/>
		</radialGradient>
		<path class="st10" d="M250.1,291.3c-87-12.9-202.3-19.4-342.8-19.4c-423,0-925.2,57.5-946.4,59.9c-20.9,2.4-47.8,3.6-79.9,3.6
			c-111.7,0-272.8-14.6-402.2-26.4c-82-7.5-152.9-13.9-195.6-15.3c-13.7-0.5-30-0.7-48.3-0.7c-112.5,0-290.7,8.6-433.8,15.6
			c-42.9,2.1-83.3,4-117.5,5.5c-20.1,0.9-39.5,1.3-57.6,1.3c-38,0-70.8-2-97.6-5.9l-1.7-0.2v99.5h1.4c12.8,0,32.7,0,57.5,0
			c121.7,0,414.9,0.5,508.5,4.9c49.1,2.4,119.9,4.2,195,6.1c110.2,2.8,224,5.8,264.2,10.5c18.8,2.2,36.1,3.5,52,4.4
			c-1,0.9-1.9,1.8-2.8,2.8c-1.3,1.4-0.4,3.9,3,2.9c6.6-1.9,13.3-3.5,20.1-4.7c-4,2.6-7.8,5.7-11.3,9c-1.2,1.1-0.9,4.5,2.7,3.6
			c17.9-4.2,36.2-7.7,55.4-8.2c-4.6,2.3-9.3,4.4-14,6.6c-2.2,1.1-1.7,4.4,2,3.8c18.3-3,35.9-7.4,54.7-8.7c-0.5,0.2-1,0.4-1.6,0.6
			c-1.9,0.7-3.2,3.9,0.4,3.8c11.1-0.1,22.2-0.7,33.2-2c-0.6,0.7-0.5,1.8,0.3,2.4c0.3,0.2,0.6,0.4,1,0.4c18.2,2.6,35.7-2.1,53.3-4.8
			c21.8,0.7,44.8,1.5,66.6,2c-1.6,1.4-3.1,2.8-4.5,4.3c-1,1,0.3,2.6,2.2,1.6c4.2-2.1,8.3-3.9,12.6-5.6l10.6,0.2
			c-3.1,3.3-6,6.8-8.6,10.5c-0.8,1.1,0.7,2.8,2.8,2c12.4-4.4,24.8-8.7,37.8-12l10.7,0.1c-1.8,1.4-3.4,3-5,4.6
			c-1.4,1.5,0.3,3.5,3.2,2.3c5.8-2.5,11.7-4.9,17.9-6.9c5-0.1,9.2-0.2,12.5-0.4c1.4,0,2.8-0.1,4.3-0.1c1.2,3.3,3,6.3,5.3,8.9
			c0.8,0.6,1.9,0.8,2.9,0.4c5.7-1.9,10.8-5.4,14.7-10c5.3-0.1,10.5-0.2,15.8-0.3c4.4,1.9,9,3.8,13.7,5.5c1.5,0.5,3-0.3,3.5-1.8
			c0-0.1,0-0.1,0.1-0.2c0-1.3-0.1-2.5-0.2-3.7l7.3-0.1c22.5-0.2,45.8-0.5,68.3-1.4c18-0.8,28.2-1.8,38.1-2.9c14.4-1.5,28-3,64.9-3
			c61.1,0,144.7,0,195.3-1c17.1-0.3,38.3-0.4,60.8-0.5c26.5-0.1,53.5-0.3,75.5-0.8c0,0.3,0.2,0.5,0.7,0.5
			c17.6,0.3,33.2,3.3,49.1,7.5c0.7,0.2,1.4-0.2,1.6-0.8c0,0,0,0,0-0.1c0.3-4.6-4.4-7.3-10.6-9.1l7-0.6c15.7,1.3,30.6,4.5,41.5,11.8
			c1.6,1.1,3.9-0.5,4.2-1.4c1.7-5.4-2.7-9.3-9.2-12.2c11.3,1.4,22,4.5,29.1,9.9c1.8,1.2,4.2,0.9,5.5-0.8c6.5-9-5.8-15.3-19.5-19.2
			c16.4,0.3,32.9,1.2,49.3,2.1c2.5,0.1,4.3-2.1,2.9-3.3c-4-3.5-9.2-5.7-15.1-7.2c10.5-0.3,19.8-0.5,30.4-0.6
			c6.5-0.1,13.4-0.2,21.2-0.3c5.2,0.4,10.4,0.8,15.6,1c1,0.1,2-0.5,2.4-1.4c6.8-0.2,14.3-0.4,22.8-0.6l19.2-0.6
			c48.8-1.6,104.1-3.5,143.7-3.5c7.3,0,13.9,0.1,19.6,0.2s12.2,0.2,19.3,0.2c41.2,0,96-2.1,128.9-4.3c-10.3,3.1-19.8,7.1-28,12.8
			l0,0l0,0c-0.1,0.1-0.2,0.1-0.3,0.2c-0.9,0.6,0,2.1,1.5,1.5c9.7-3.8,19.6-6.9,29.8-9c-1.7,0.9-3.2,2-4.7,3.2
			c-1,0.8-0.5,2.6,1.7,2.2c10-1.9,19.5-4.2,29.8-5.4c-2.6,1.9-4.8,4.2-6.7,6.8c-0.8,1.1,0.6,2.3,2.5,1.8c6.8-1.9,12.4-5.1,18.6-7.7
			c11.4-4.6,18.1,5.6,25.9,9.1c1.7,0.8,4-0.2,4.1-1.4c0.3-2.9-0.7-5.4-1.9-8c9.6,3.5,17.8,8.3,29.4,9.3c1.3,0.2,2.5-0.5,3.1-1.7
			c0.7-3,0-6-1.7-8.5c18.7,1.6,38.1,3,56.2,3.2h1.4v-118L250.1,291.3z M-1131.2,445.6c0.3-0.4,0.7-0.8,1-1.1c0.4,0,0.8,0,1.2,0
			C-1129.7,444.8-1130.5,445.2-1131.2,445.6z"/>
		<path class="st11" d="M-762.4,320.8c33.2,5.5,68.2-4.7,101.1,2.9c1.5,0.4,2,1.6,0.5,2.1c-4.8,1.8-8.5,4.5-12.8,6.6
			c35.9,5.3,74.2,3.6,110.5,0.8c38.8-3,76.9-7.9,115.4-11.8c34.4-3.4,69.2-3.7,103.9-5.1c34.3-1.3,70.7-2.9,102.7-11.1
			c-11.5-2.8-23.1-5.2-35.7-5.4c-2.5-0.1-2.5-2.4,0-2.3c18.4,0.4,36.8,0.5,55.2,0.2c59.7-0.9,119.1-3.4,178.8-3.5
			c50.5,0,101.1,0,151.6,1.5c47.1,1.4,95,3.6,142.1,8.4v-12.7l-1-0.1c-87-12.9-202.3-19.4-342.8-19.4
			c-218.9,0-458.9,15.4-642.6,30.6C-747.2,307-757.6,312.8-762.4,320.8z"/>
		
			<linearGradient id="SVGID_12_" gradientUnits="userSpaceOnUse" x1="-1244.204" y1="1086.8838" x2="-963.9341" y2="-111.0062" gradientTransform="matrix(1 0 0 -1 0 900)">
			<stop  offset="2.000000e-02" style="stop-color:#328635"/>
			<stop  offset="0.18" style="stop-color:#4A9739"/>
			<stop  offset="0.51" style="stop-color:#85C043"/>
			<stop  offset="0.64" style="stop-color:#9CCB5B"/>
			<stop  offset="0.84" style="stop-color:#C8DF89"/>
		</linearGradient>
		<path class="st12" d="M19.3,362.4c-68.2,4-136,8.7-203.9,14.5c-64.9,5.6-130.4,11-196.1,11.5c-53.2,0.5-112.7-0.8-159.8-17.5
			c-1.3-0.5-1.1-1.5,0-2c14.7-6.4,26-15.1,41.4-20.8c-58.2-12.9-128.3-7.1-188-2.2c-62.9,5.2-124.9,13.4-187.5,19.6
			c32.9,7.9,75.1,6.6,96.7,25.9c0.7,0.5,0.1,1.2-0.7,1.6c-37.7,17.2-89.9,22-135.6,25.3c-56.5,4-113.6,4.7-170.4,4.6
			c-52.6-0.1-105.2-0.7-157.8-1.8c-56.2-1.2-119.3-2.7-168.7-20.7c-1.1-0.4-1.2-1.2-0.4-1.8c12.7-9.6,29.8-16.3,46.2-23.4
			c-13.5-3.1-27.3-5.7-41.4-7.6c-77.9-10.3-159.1-6.8-238.1-3.9c-86.6,3.1-172.6,2.4-259.2,0.6c-96.5-1.9-193-4.5-289.5-3
			c-35.8,0.5-71.6,1.1-107.4,0.8c-44.3-0.3-90.3-0.9-133.5-7.2c-10.8-1.6-27.1-4.2-38.8-9v63.2h1.4c12.8,0,32.7,0,57.5,0
			c121.7,0,414.9,0.5,508.5,4.9c49.1,2.4,119.9,4.2,195,6.1c110.2,2.8,224,5.8,264.2,10.5c18.8,2.2,36.1,3.5,52,4.4
			c-1,0.9-1.9,1.8-2.8,2.8c-1.3,1.4-0.4,3.9,3,2.9c6.6-1.9,13.3-3.5,20.1-4.7c-4,2.6-7.8,5.7-11.3,9c-1.2,1.1-0.9,4.5,2.7,3.6
			c17.9-4.2,36.2-7.7,55.4-8.2c-4.6,2.3-9.3,4.4-14,6.6c-2.2,1.1-1.7,4.4,2,3.8c18.3-3,35.9-7.4,54.7-8.7c-0.5,0.2-1,0.4-1.6,0.6
			c-1.9,0.7-3.2,3.9,0.4,3.8c11.1-0.1,22.2-0.7,33.2-2c-0.6,0.7-0.5,1.8,0.3,2.4c0.3,0.2,0.6,0.4,1,0.4c18.2,2.6,35.7-2.1,53.3-4.8
			c21.8,0.7,44.8,1.5,66.6,2c-1.6,1.4-3.1,2.8-4.5,4.3c-1,1,0.3,2.6,2.2,1.6c4.2-2.1,8.3-3.9,12.6-5.6l10.6,0.2
			c-3.1,3.3-6,6.8-8.6,10.5c-0.8,1.1,0.7,2.8,2.8,2c12.4-4.4,24.8-8.7,37.8-12l10.7,0.1c-1.8,1.4-3.4,3-5,4.6
			c-1.4,1.5,0.3,3.5,3.2,2.3c5.8-2.5,11.7-4.9,17.9-6.9c5-0.1,9.2-0.2,12.5-0.4c1.4,0,2.8-0.1,4.3-0.1c1.2,3.3,3,6.3,5.3,8.9
			c0.8,0.6,1.9,0.8,2.9,0.4c5.7-1.9,10.8-5.4,14.7-10c5.3-0.1,10.5-0.2,15.8-0.3c4.4,1.9,9,3.8,13.7,5.5c1.5,0.5,3-0.3,3.5-1.8
			c0-0.1,0-0.1,0.1-0.2c0-1.3-0.1-2.5-0.2-3.7l7.3-0.1c22.5-0.2,45.8-0.5,68.3-1.4c18-0.8,28.2-1.8,38.1-2.9c14.4-1.5,28-3,64.9-3
			c61.1,0,144.7,0,195.3-1c17.1-0.3,38.3-0.4,60.8-0.5c26.5-0.1,53.5-0.3,75.5-0.8c0,0.3,0.2,0.5,0.7,0.5
			c17.6,0.3,33.2,3.3,49.1,7.5c0.7,0.2,1.4-0.2,1.6-0.8c0,0,0,0,0-0.1c0.3-4.6-4.4-7.3-10.6-9.1l7-0.6c15.7,1.3,30.6,4.5,41.5,11.8
			c1.6,1.1,3.9-0.5,4.2-1.4c1.7-5.4-2.7-9.3-9.2-12.2c11.3,1.4,22,4.5,29.1,9.9c1.8,1.2,4.2,0.9,5.5-0.8c6.5-9-5.8-15.3-19.5-19.2
			c16.4,0.3,32.9,1.2,49.3,2.1c2.5,0.1,4.3-2.1,2.9-3.3c-4-3.5-9.2-5.7-15.1-7.2c10.5-0.3,19.8-0.5,30.4-0.6
			c6.5-0.1,13.4-0.2,21.2-0.3c5.2,0.4,10.4,0.8,15.6,1c1,0.1,2-0.5,2.4-1.4c6.8-0.2,14.3-0.4,22.8-0.6l19.2-0.6
			c48.8-1.6,104.1-3.5,143.7-3.5c7.3,0,13.9,0.1,19.6,0.2s12.2,0.2,19.3,0.2c41.2,0,96-2.1,128.9-4.3c-10.3,3.1-19.8,7.1-28,12.8
			l0,0l0,0c-0.1,0.1-0.2,0.1-0.3,0.2c-0.9,0.6,0,2.1,1.5,1.5c9.7-3.8,19.6-6.9,29.8-9c-1.7,0.9-3.2,2-4.7,3.2
			c-1,0.8-0.5,2.6,1.7,2.2c10-1.9,19.5-4.2,29.8-5.4c-2.6,1.9-4.8,4.2-6.7,6.8c-0.8,1.1,0.6,2.3,2.5,1.8c6.8-1.9,12.4-5.1,18.6-7.7
			c11.4-4.6,18.1,5.6,25.9,9.1c1.7,0.8,4-0.2,4.1-1.4c0.3-2.9-0.7-5.4-1.9-8c9.6,3.5,17.8,8.3,29.4,9.3c1.3,0.2,2.5-0.5,3.1-1.7
			c0.7-3,0-6-1.7-8.5c18.7,1.6,38.1,3,56.2,3.2h1.4v-54.6C173.6,354.3,96.3,357.9,19.3,362.4z M-1131.2,445.6c0.3-0.4,0.7-0.8,1-1.1
			c0.4,0,0.8,0,1.2,0C-1129.7,444.8-1130.5,445.2-1131.2,445.6z"/>
		
			<linearGradient id="SVGID_13_" gradientUnits="userSpaceOnUse" x1="443.0596" y1="739.0946" x2="596.6996" y2="82.4446" gradientTransform="matrix(1 0 0 -1 0 900)">
			<stop  offset="2.000000e-02" style="stop-color:#328635"/>
			<stop  offset="0.18" style="stop-color:#4A9739"/>
			<stop  offset="0.51" style="stop-color:#85C043"/>
			<stop  offset="0.64" style="stop-color:#9CCB5B"/>
			<stop  offset="0.84" style="stop-color:#C8DF89"/>
		</linearGradient>
		<path class="st13" d="M811.4,435.7c1.1-2.5,2.3-4.9,3.7-7.3l-0.2-0.4c-8.6-0.2-17.2-0.5-25.8-0.9c-27.5-1.1-58.5-2.5-82.7-19.7
			c-0.5-0.4-0.6-1.2-0.2-1.7c0,0,0,0,0,0c6.3-9.2,14.6-15.5,22.6-22.3c-6.5-3-13.3-5.4-20.3-7.2c-38.2-9.9-78-6.4-116.8-3.7
			c-42.4,3-84.6,2.3-127.1,0.6c-47.3-1.8-94.6-4.3-141.9-2.9c-17.5,0.5-35.1,1-52.7,0.8c-21.7-0.3-44.2-0.8-65.4-6.8
			c-5.3-1.5-13.3-4-19-8.6v27.9c14.4,7.4,49.6,8.4,55,8.6c43.9,1.8,87.8,3.1,131.7,3.5c31.2,0.3,62.3,0.4,93.5,0.3
			c30.9-0.2,61.9-1.4,92.8-1.4c28.2,0.1,56.2,2,84.3,4.7c19.6,1.9,42.7,4,58.2,19.8c0.3,0.3,0.4,0.6,0.3,1c1.7-1.5,3.3-3.3,4.6-5.2
			c0.8-1.1,2.1,0.5,1.3,1.6c-2.5,3.5-5.6,6.1-8.7,8.8c12.8,1.1,25.8-1.8,38.5,1.8c1,0.3,0.8,1.8,0,2.1c-2,0.9-3.8,2-5.8,3
			c7.6,3.2,16.2,2.3,24.2,3.1c0.6,0.1,1,0.7,0.9,1.3c-0.1,0.4-0.3,0.7-0.7,0.8c-2.1,0.8-4.2,1.8-6.3,2.7c12.7,1.7,25.1-5.4,37.9-4.9
			c0.6,0.1,1,0.7,0.9,1.4c-0.1,0.3-0.2,0.5-0.4,0.7c-1.2,0.8-2.4,1.6-3.6,2.4c6.8,0.5,14.1-0.5,20.7-1.6c2.1-0.3,4.3-0.7,6.4-1.3
			C811.3,436.4,811.3,436,811.4,435.7z"/>
		
			<linearGradient id="SVGID_14_" gradientUnits="userSpaceOnUse" x1="1618.8043" y1="604.1801" x2="1602.9242" y2="-150.8399" gradientTransform="matrix(1 0 0 -1 0 900)">
			<stop  offset="9.000000e-02" style="stop-color:#CCDD49"/>
			<stop  offset="0.29" style="stop-color:#B6D435"/>
			<stop  offset="0.47" style="stop-color:#A7CE28"/>
			<stop  offset="0.96" style="stop-color:#80A22F"/>
		</linearGradient>
		<path class="st14" d="M-822.4,379.2v618.7h4865.8V412c0-6.2-1.8-14.4-9-22.8c-23.8-27.7-84.4-31.4-90-31.7
			c-851.8-2.9-1703.6-2.2-2555.3,2.1C651.9,363.4-85.2,370-822.4,379.2z"/>
		<path class="st15" d="M998.6,375.5c0.4,10.4-125.4,21.5-280.9,24.7s-281.7-2.6-282-13s125.4-21.5,280.8-24.7
			S998.3,365,998.6,375.5z"/>
		<path class="st16" d="M2241.8,487.4c-212.5-4.1-385.2,5.8-385.8,22.3c0,0.4,0.5,0.7,0.6,1c-8.9,0-17.9,0-26.9,0.1
			c-245.3,1.2-444.1,15.6-444,32.1s199,28.7,444.3,27.4c200.2-1,369.3-10.7,424.8-23.2c205.6,3.4,370.2-6.5,370.8-22.5
			C2626.2,508.2,2454.4,491.5,2241.8,487.4z"/>
		<path class="st15" d="M1133.6,445c0,5.2-63.1,9.4-140.8,9.4S852,450.2,852,445s63.1-9.4,140.8-9.4S1133.6,439.8,1133.6,445z"/>
		<path class="st15" d="M1432.7,379c0,5.2-63,9.5-140.7,9.5s-140.8-4.3-140.8-9.5s63-9.4,140.8-9.4S1432.7,373.7,1432.7,379z"/>
		<path class="st15" d="M1561.8,426.1c0,5.2-63,9.4-140.8,9.4s-140.8-4.2-140.8-9.4s63-9.5,140.8-9.5S1561.8,420.9,1561.8,426.1z"/>
		<path class="st16" d="M715.4,467.5c150.4,1.6,288.9,22,180.2,57.8s240.8,12.4,604,35.8s569.6,123.8,235.3,185.8
			s-1276.6,66-1126.6-48.2S573.7,634,456.8,587.2S463.6,464.7,715.4,467.5z"/>
		<path class="st17" d="M832.2,390.5c0,0-454.7,41.1-327.4,120.7S723,593.4,611.3,656.5s454.7,128.9,979.5,131.7
			S2960,634.5,2456,502.9C1930.7,365.7,907.5,382.2,832.2,390.5z"/>
		
			<linearGradient id="SVGID_15_" gradientUnits="userSpaceOnUse" x1="1552.4149" y1="-171.15" x2="1552.4149" y2="598.96" gradientTransform="matrix(1 0 0 -1 0 900)">
			<stop  offset="0" style="stop-color:#7FCEF4"/>
			<stop  offset="0.39" style="stop-color:#B1DBF5"/>
			<stop  offset="1" style="stop-color:#4AA8B0"/>
		</linearGradient>
		<path class="st18" d="M850.1,400.3c0,0-447,38.4-321.9,112.5S742.8,589.6,633,648.4s447,120.2,963,122.7s1346.2-143.2,850.6-266
			C1930.2,377.2,924.2,392.7,850.1,400.3z"/>
		<path class="st19" d="M2446.6,505.2C1930.2,377.2,924.2,392.7,850.1,400.3c0,0-447,38.4-321.9,112.5S742.8,589.6,633,648.4
			s447,120.2,963,122.7S2942.2,627.9,2446.6,505.2z M1369.4,571.8c-41.8,2.2-84.1,3.9-125.2,12.4c-7.9,1.7-18.3,2.9-24.8,8.2
			c-8.7,7.2-0.6,18.1,5.2,24.3c4.9,5.2,11.4,8.9,17.7,12.3c17.7,9.5,36.2,17.4,53.4,27.7c4.8,2.7,9.3,5.7,13.7,9
			c10.9,6.7,21.1,14.5,27.5,24.4c24,37.1-60,44.1-77,45.2c-81.1,5.3-164.5,3.5-245.4-4.4c-41.2-4-82-10.1-122.8-17
			c-35.8-6.1-72.6-11.3-107-23.5c-14-5-38.8-15.4-25.6-34.1c3.9-5.4,8.8-10,14.3-13.8c8.8-13.1,29.9-14.1,43.8-16.2
			c10.4-1.5,74.2-8.4,77.3-9c57.9-10.7,110.7-42.2,27.7-55.9c-36.2-5.9-106.9-3.8-146.5-6.3c-44.7-3.4-74.9-11.5-97.9-15.8
			c-20.6-3.8-46.9-14.1-49.4-27.3c-5.8-31.4,90.2-38.9,108.9-41.6c75.2-10.9,151.5-16.8,227.3-22.2c165.7-11.9,333.7-13.3,499.5-1
			c40.8,3,81.3,8.5,121.6,15.4c24.7,4.3,49.3,7,74,10.9c13.2,2.1,70.6,11.9,43.8,35.2c-9.6,8.4-22.5,13.1-34.3,17
			c-17.8,5.9-35.9,10.7-54.3,14.5c-40,8.7-80.6,15.1-121.2,20.3C1452.5,566,1411.1,569.7,1369.4,571.8L1369.4,571.8z M2441.2,631.8
			c-55.8,31.9-135.9,43.9-224.2,55.8c-93.2,12.5-187.2,19.4-281.1,26.2c-55.9,4.1-112,6.6-168.1,6.2c-47-0.3-94.2-0.5-141-4.1
			c-22.5-1.7-92.2-3.5-101.2-32.5c-23-74,352.2-97.5,396.4-100.7c144.8-10.5,288.8-6.3,433.5,4.1
			C2373.7,588.1,2500.5,597.8,2441.2,631.8L2441.2,631.8z"/>
		
			<linearGradient id="SVGID_16_" gradientUnits="userSpaceOnUse" x1="1552.4164" y1="-171.17" x2="1552.4164" y2="598.96" gradientTransform="matrix(1 0 0 -1 0 900)">
			<stop  offset="0" style="stop-color:#7FCEF4"/>
			<stop  offset="0.39" style="stop-color:#B1DBF5"/>
			<stop  offset="1" style="stop-color:#0095AA"/>
		</linearGradient>
		<path class="st20" d="M2446.6,505.2C1930.2,377.2,924.2,392.7,850.1,400.3c0,0-447,38.4-321.9,112.5S742.8,589.6,633,648.4
			c-29.9,16-10.3,32.2,44.2,47.3c-3.2-2.2-5.3-5.6-5.9-9.4c-1.3-10.1,8-17,15.8-21.5c14.3-8.2,31-12.1,43.7-23
			c8.8-7.5,19.9-20.4,13.4-32.8c-6.2-12.1-19-18.9-31.2-23.7c-35-13.8-70.8-25-103.4-44.2c-11.1-6.5-41.1-18.8-29.5-35.7
			c9.6-13.9,34.4-17.4,49.5-20.2c30.3-5.8,60.3-13.1,90.7-18.7c121.3-22.4,244.5-30.3,367.7-29.5c8.9-1.6,17.9-2.6,27-3.1
			c27.2-1.6,54.1-5.4,81.3-6.5c54.6-2.2,109.5-0.9,164.2-0.6s109.2,6.3,163.6,10.2c38.5,2.8,77,6.1,115.5,9.5
			c28,0.2,56.2,3.6,84.2,5.1c29.4,1.6,58.4,6.3,87.7,8.2c31.1,2,62.4,2.6,93.2,7.6c1.2,0.2,2.4,0.4,3.6,0.6
			c55.4,1.1,110.2,7.1,165.3,14.4c32.1,4.3,64.3,7.9,96.2,13.4c25.7,4.4,50.6,11,75.9,17.2c9.9,2.4,31.4,5,35.1,16.6
			c3.9,12.3-24.1,11.3-26.9,18.5c-0.1,0-0.1,0.1-0.1,0.2c0.2,6.6,15.4,8.2,18.3,8.3c9.5,0.7,18.9,0.1,28.4,0.4
			c22.5,0.7,45.1,0.5,67.6,2.1c41.7,3,85.4,4.9,125.1,19.4c13.1,4.8,31.8,12.6,36,27.5s-4.2,25.9-14.6,35.6
			c-12,11.3-27.1,16.8-41.6,23.5C2626.5,617,2663.5,558.9,2446.6,505.2z"/>
		<path class="st21" d="M687.5,655.6c6.7-2.9,15-6.3,18.5-13.2c5.4-10.7,1.9-21.4-6.1-29.6c-5.9-5.9-12.5-11-19.7-15.2
			c8,13.4-4.5,27.8-47.3,50.7c-24.4,13.1-15.8,26.2,17.8,38.9C651,669.1,671.5,662.5,687.5,655.6z"/>
		<path class="st21" d="M616.8,466.4c54.8-15,111.2-20.8,167.3-28.7c29.1-4.1,58.1-9,87.3-11.6c26-2.4,52-2.8,78.2-3.4
			c27.1-0.5,54.3-1.5,81.4-0.6c25.2,0.9,50.4,2.8,75.6,0.4c1.9-0.9,4-1.7,6-2.3c21.6-7.2,48.3-1.7,70.6-1.9
			c69.1-0.6,138.6-0.1,207.6,4.3c69.2,4.5,137.8,12.7,207.2,14.3c35.1,0.9,70.2,1.1,105.2,2.6c26.4,1.1,55,0.5,81.5,5.9
			c6.1-2.1,16.8,0.5,20,1.1c48.4,8.8,98.5,9.2,147.5,12.8c57.2,4,114.8,6.6,171.6,14.7c25.4,3.6,50.4,9.1,75.7,13.6
			c10.1,1.8,20.2,3.6,30.1,6.2c16.4-1,31.8,4.2,47.8,8.1c21.8,5.3,44.2,8.6,66.3,13.1c39.5,8,79.2,13.3,118.9,20.1
			c17.5,3,35.3,6.5,51.9,13.2c14.9,6,29,14.4,42.7,22.7c16.3,9.8,25.9,22.6,30.9,37.7c31.2-33.9-4.4-69.6-141.5-103.6
			C1930.2,377.2,924.2,392.7,850.1,400.3c0,0-443.9,38.1-323.1,111.8C549.4,485.3,583.4,475.4,616.8,466.4z"/>
		<g class="st22">
			<path class="st21" d="M625.8,652.9c-14.9,11.6-4.8,23.2,24.9,34.4c0-2.8,0.6-5.6,1.7-8.1C642.8,671.4,634.2,662.3,625.8,652.9z"
				/>
			<path class="st21" d="M631.2,649.4c-0.3,0.2-0.7,0.4-1.1,0.6c7.8,8.8,15.9,17.4,25,24.7c2.3-2.9,5-5.4,8.1-7.4
				C652.2,662.8,640.6,656.9,631.2,649.4z"/>
			<path class="st23" d="M674.8,634.3c-2.5-2.5-4.9-5-7.3-7.5c-7.5,5.9-17.8,12.4-31.6,19.9c9.8,7.3,21.5,13,32.5,17.5
				c6.1-3.3,12.9-6,19.1-8.6c1.3-0.6,2.8-1.3,4.2-1.9C686.2,647.1,680.8,640.4,674.8,634.3z"/>
			<path class="st21" d="M680.1,613.3c2.3,2,4.5,4,6.5,6c7.2,5.8,14.4,11.4,21.3,17.5c2-8.7-1.4-17.2-8-24
				c-5.9-5.9-12.5-11-19.7-15.2C683.2,602.6,683.3,607.7,680.1,613.3z"/>
			<path class="st21" d="M683.8,623.6c-1.1-0.9-2.3-1.8-3.4-2.8c-0.4-0.3-0.6-0.7-0.6-1.2c-0.3-0.3-0.7-0.7-1.1-1s-0.9-0.9-1.4-1.3
				c-1.9,2.3-3.9,4.5-6.1,6.4c3,3.2,6.2,6.3,9.3,9.3c5.3,5.2,9.9,11,14.7,16.8c0.8-1,2.2-1.7,3.2-0.8c0.3,0.2,0.5,0.5,0.7,0.7
				c2.5-1.6,4.7-3.8,6.3-6.4C697.9,637.2,690.7,630.6,683.8,623.6z"/>
			<path class="st21" d="M509.6,477.4c-7.4,10.5-3.3,22.1,17.4,34.7c1.2-1.3,2.3-2.7,3.5-4C522.8,498.3,515.8,488.1,509.6,477.4z"/>
			<path class="st21" d="M522.3,466.1c-2.7,1.7-5.3,3.7-7.7,5.8c6.3,10.9,13.2,21.4,20.7,31.6c1.9-1.7,3.8-3.2,5.8-4.8
				C534.4,488,528.2,477.2,522.3,466.1z"/>
			<path class="st23" d="M627.5,431.7c-41.3,8.7-78.4,19.2-100.4,31.5c6.4,10.5,12.7,21,19,31.6c20.5-14.4,45.8-21.7,70.7-28.5
				c9.3-2.5,18.6-4.7,28-6.8C638.9,450.4,633.1,441.1,627.5,431.7z"/>
			<path class="st21" d="M757.8,441.2c2.9-0.4,5.8-0.8,8.6-1.2c-2.9-9.9-6-19.7-9.3-29.5c-2.6,0.3-5.4,0.7-8.1,1.1
				C751.9,421.5,754.8,431.4,757.8,441.2z"/>
			<path class="st21" d="M740.6,412.8c-34.3,4.7-72.4,10.6-107.9,17.9c5.6,9.4,11.4,18.6,17.3,27.7c33.4-7.1,67.1-11.7,100.9-16.3
				C747.2,432.5,743.8,422.7,740.6,412.8z"/>
			<path class="st23" d="M1090.4,395.4c-130.3,0.2-220.1,2.9-240.3,4.9c0,0-37.6,3.2-88,9.6c3.2,9.8,6.3,19.6,9.2,29.5
				c4.3-0.6,8.6-1.2,12.9-1.8c29.1-4.1,58.1-9,87.3-11.6c26-2.4,52-2.8,78.2-3.4c27.1-0.5,54.3-1.5,81.4-0.6
				c21.6,0.7,43.2,2.3,64.7,1.2C1093.8,414.1,1091.4,404.7,1090.4,395.4z"/>
			<path class="st21" d="M1099.9,395.4c1,9.1,1.6,18.3,1.9,27.5c1.6-0.1,3.2-0.2,4.9-0.4c1.9-0.9,4-1.7,6-2.3
				c0.7-0.2,1.4-0.4,2.1-0.6c0.1-8.1,0.1-16.1,0.3-24.2H1099.9z"/>
			<path class="st21" d="M1397.1,420.2c0-0.1,0-0.2,0-0.3v-0.1c-0.7-6.9-0.7-13.8-0.2-20.6c-101.2-2.6-195-3.7-275.5-3.9v0.2
				c-0.2,1.1-0.9,2-2,2.4c-0.1,6.8-0.2,13.6-0.2,20.4c20.3-4.4,43.9,0,64.1-0.2c69.1-0.6,138.6-0.1,207.6,4.3c2,0.1,4,0.3,6,0.4
				C1396.9,422.1,1397,421.1,1397.1,420.2z"/>
			<path class="st21" d="M1411.5,408.1c0.1-2-0.2-5.1-0.3-8.4c-2.6-0.1-5.2-0.1-7.8-0.2c-0.4,4.2-0.8,8.4-1.2,12.5
				c-0.3,3.8-0.6,7.6-1,11.4c3.3,0.2,6.6,0.5,9.8,0.7C1411.1,418.7,1411.3,413.3,1411.5,408.1z"/>
			<path class="st23" d="M1690,411.2c-93.7-5.2-185.9-8.9-273.1-11.3c0,8.2,0.1,16.4,0,24.6c60.4,4.6,120.5,11,181.1,12.4
				c29.9,0.7,59.8,1.1,89.7,2C1688.3,429.6,1689,420.4,1690,411.2z"/>
		</g>
		<path class="st24" d="M1065,759.3c0,0,5.5-10-3.2-23.1c3.4,1.8,5.9,4.9,6.7,8.7c0,0-0.8-2.9,4-9c0,0-3,8.9-1.9,13.9
			c1.9-4.5,5.2-8.3,9.5-10.7c0,0-8,9-6.5,15c0,0,4.2-8.3,10.5-10.2c0,0-7.3,5.5-7,9.6c0.3,1.4,1,2.6,2,3.7c0,0-2.1,0-3-1.4
			c0,0-0.9,2.4,0,4.1c0,0-4.1-1.4-4.4-4.6c-0.7,1.9-1.3,3.8-1.7,5.7l-0.8-5.4L1065,759.3z"/>
		
			<linearGradient id="SVGID_17_" gradientUnits="userSpaceOnUse" x1="870.7653" y1="283.9912" x2="1023.2822" y2="550.5734" gradientTransform="matrix(1 0 0 -1 0 900)">
			<stop  offset="0" style="stop-color:#7FCEF4"/>
			<stop  offset="0.39" style="stop-color:#B1DBF5"/>
			<stop  offset="1" style="stop-color:#4AA8B0"/>
		</linearGradient>
		<path class="st25" d="M1212.8,458c-39.1-10.1-82.1-6.2-122.1-5.7c-41.6,0.5-82.8,1.1-124.2,4.7c-43,3.8-86,7.5-128.8,12.5
			c-29.8,3.4-59.6,6.6-89.3,10.6c-15,2.1-63.7,5.3-65.8,20.8c-1.1,8,14.9,16.2,20.7,19c12.3,5.9,27,7,40.3,9.1
			c19.1,3,38.2,6.2,57.4,8.7c75.8,9.9,151.6,16,227.6,5.5c12.2-1.7,39.5-0.1,40.1-18c0.2-6.8-10.2-10.9-15-12.9s-9.8-3.6-14.8-5.3
			c-1.2-0.5-17.3-6-8.8-9.7c8.5-3.7,19.1-2.9,28-4c19.8-2.5,39.7-5.2,59.5-8.2c18.8-2.9,37.5-6.4,56.2-10.3
			c12-2.5,27.7-2.3,37.7-9.9C1212.8,463.7,1216.3,458.8,1212.8,458z"/>
		
			<linearGradient id="SVGID_18_" gradientUnits="userSpaceOnUse" x1="1486.9922" y1="383.2112" x2="1486.9922" y2="409.6196" gradientTransform="matrix(1 0 0 -1 0 900)">
			<stop  offset="0" style="stop-color:#7FCEF4"/>
			<stop  offset="0.39" style="stop-color:#B1DBF5"/>
			<stop  offset="1" style="stop-color:#4AA8B0"/>
		</linearGradient>
		<path class="st26" d="M1486,491c-5.8-1.2-11.9-0.4-17.9,0.5c-6.7,0.9-15.3,0.7-19.6,6.9c-12.5,18.1,34.4,18.7,41.1,18.4
			c7.5-0.3,38.9-0.7,38-14.6C1526.8,491.4,1503.3,490.2,1486,491z"/>
		
			<linearGradient id="SVGID_19_" gradientUnits="userSpaceOnUse" x1="1442.0427" y1="366.91" x2="1442.0427" y2="380.1561" gradientTransform="matrix(1 0 0 -1 0 900)">
			<stop  offset="0" style="stop-color:#7FCEF4"/>
			<stop  offset="0.39" style="stop-color:#B1DBF5"/>
			<stop  offset="1" style="stop-color:#4AA8B0"/>
		</linearGradient>
		<path class="st27" d="M1457.2,524.9c-2.4-3.5-14-5-15.9-5c-4.2-0.1-12.8-0.2-14.4,4.8c-2.5,7.6,9.1,8.5,13.5,8.5
			c5.2,0,11.8-0.5,15.8-4.3C1457.8,527.3,1457.9,526,1457.2,524.9z"/>
		
			<linearGradient id="SVGID_20_" gradientUnits="userSpaceOnUse" x1="1172.7715" y1="218.8941" x2="1172.7715" y2="245.3107" gradientTransform="matrix(1 0 0 -1 0 900)">
			<stop  offset="0" style="stop-color:#7FCEF4"/>
			<stop  offset="0.39" style="stop-color:#B1DBF5"/>
			<stop  offset="1" style="stop-color:#4AA8B0"/>
		</linearGradient>
		<path class="st28" d="M1171.8,655.3c-5.8-1.2-11.9-0.3-17.9,0.5c-6.7,0.9-15.3,0.6-19.6,6.9c-12.5,18.1,34.4,18.7,41.1,18.4
			c7.5-0.3,38.9-0.7,38-14.6C1212.6,655.7,1189.1,654.5,1171.8,655.3z"/>
		
			<linearGradient id="SVGID_21_" gradientUnits="userSpaceOnUse" x1="1127.8713" y1="202.58" x2="1127.8713" y2="215.8446" gradientTransform="matrix(1 0 0 -1 0 900)">
			<stop  offset="0" style="stop-color:#7FCEF4"/>
			<stop  offset="0.39" style="stop-color:#B1DBF5"/>
			<stop  offset="1" style="stop-color:#4AA8B0"/>
		</linearGradient>
		<path class="st29" d="M1143,689.2c-2.4-3.6-14-5-15.9-5c-4.2-0.1-12.8-0.2-14.4,4.8c-2.5,7.6,9,8.5,13.5,8.5
			c5.2,0,11.8-0.5,15.8-4.3C1143.6,691.6,1143.7,690.3,1143,689.2z"/>
		
			<linearGradient id="SVGID_22_" gradientUnits="userSpaceOnUse" x1="1617.6431" y1="151.6651" x2="1617.6431" y2="168.5998" gradientTransform="matrix(1 0 0 -1 0 900)">
			<stop  offset="0" style="stop-color:#7FCEF4"/>
			<stop  offset="0.39" style="stop-color:#B1DBF5"/>
			<stop  offset="1" style="stop-color:#4AA8B0"/>
		</linearGradient>
		<path class="st30" d="M1617,731.8c-3.7-0.8-7.6-0.2-11.5,0.3c-4.3,0.6-9.8,0.5-12.6,4.4c-8,11.6,22.1,12,26.3,11.8
			c4.8-0.2,24.9-0.4,24.3-9.3C1643.2,732.1,1628.1,731.3,1617,731.8z"/>
		
			<linearGradient id="SVGID_23_" gradientUnits="userSpaceOnUse" x1="1588.874" y1="141.2396" x2="1588.874" y2="149.7215" gradientTransform="matrix(1 0 0 -1 0 900)">
			<stop  offset="0" style="stop-color:#7FCEF4"/>
			<stop  offset="0.39" style="stop-color:#B1DBF5"/>
			<stop  offset="1" style="stop-color:#4AA8B0"/>
		</linearGradient>
		<path class="st31" d="M1598.6,753.5c-1.6-2.3-9-3.2-10.2-3.3c-2.7-0.1-8.2-0.2-9.3,3.1c-1.6,4.8,5.8,5.4,8.7,5.3
			c3.3,0,7.6-0.3,10.1-2.7C1599,755.1,1599,754.3,1598.6,753.5z"/>
		
			<linearGradient id="SVGID_24_" gradientUnits="userSpaceOnUse" x1="988.3033" y1="289.9243" x2="988.3033" y2="306.0684" gradientTransform="matrix(1 0 0 -1 0 900)">
			<stop  offset="0" style="stop-color:#7FCEF4"/>
			<stop  offset="0.39" style="stop-color:#B1DBF5"/>
			<stop  offset="1" style="stop-color:#4AA8B0"/>
		</linearGradient>
		<path class="st32" d="M987.7,594.3c-3.5-0.7-7.3-0.2-10.9,0.3c-4.1,0.6-9.3,0.4-12,4.2c-7.6,11.1,21,11.4,25.1,11.3
			c4.6-0.1,23.8-0.4,23.2-8.9C1012.7,594.6,998.3,593.8,987.7,594.3z"/>
		
			<linearGradient id="SVGID_25_" gradientUnits="userSpaceOnUse" x1="960.8684" y1="279.98" x2="960.8684" y2="288.05" gradientTransform="matrix(1 0 0 -1 0 900)">
			<stop  offset="0" style="stop-color:#7FCEF4"/>
			<stop  offset="0.39" style="stop-color:#B1DBF5"/>
			<stop  offset="1" style="stop-color:#4AA8B0"/>
		</linearGradient>
		<path class="st33" d="M970.1,615.1c-1.5-2.2-8.5-3.1-9.7-3.1c-2.5,0-7.8-0.1-8.8,2.9c-1.5,4.6,5.5,5.1,8.2,5.1
			c3.2,0,7.2-0.3,9.6-2.6C970.5,616.5,970.5,615.7,970.1,615.1z"/>
		
			<linearGradient id="SVGID_26_" gradientUnits="userSpaceOnUse" x1="1515.6721" y1="274.9141" x2="1924.4767" y2="274.9141" gradientTransform="matrix(1 0 0 -1 0 900)">
			<stop  offset="0" style="stop-color:#7FCEF4"/>
			<stop  offset="0.39" style="stop-color:#B1DBF5"/>
			<stop  offset="1" style="stop-color:#4AA8B0"/>
		</linearGradient>
		<path class="st34" d="M1924.3,577.8c-15.8,5.4-33.2,1.9-49.6,1.8c-18.8-0.2-37.6,1.2-56.3,2.7c-37.9,3-75.9,7.4-113.5,13.4
			c-36.3,5.6-72.1,14-107.1,25c-30.2,9.6-63.9,22.1-81.7,50.3c-1,1.5,0.9,1.8,1.7,0.8c22.7-28.5,63.2-39.2,96.8-49.1
			c34.9-10.3,70.8-17.1,106.8-22.6c36.6-5.6,73.4-9.6,110.2-13c18.5-1.7,37.2-3.5,55.8-3.8c12.8-0.2,25-0.5,37.1-5.1
			C1924.5,578.2,1924.6,577.7,1924.3,577.8z"/>
		
			<linearGradient id="SVGID_27_" gradientUnits="userSpaceOnUse" x1="975.0762" y1="379.1036" x2="1150.1708" y2="379.1036" gradientTransform="matrix(1 0 0 -1 0 900)">
			<stop  offset="0" style="stop-color:#7FCEF4"/>
			<stop  offset="0.39" style="stop-color:#B1DBF5"/>
			<stop  offset="1" style="stop-color:#4AA8B0"/>
		</linearGradient>
		<path class="st35" d="M1149.9,481.8c-30,3.7-63.1,4.6-91.6,14.1c-17.3,5.7,17.3,21.2,20.3,25.1c16.1,21-56.8,25.9-68.6,27.2
			c-2.4,0.3-41.5,3.5-34,11.7c0.7,0.8,2.1-0.6,1.9-1.3c-1-3,59.5-10.8,66.1-11.8c14.5-2.2,32.1-4.7,39.6-16.7
			c9.5-14.9-13.3-21.5-23.6-28.7c-3.4-2.4,17.2-6.9,17.7-7c7.3-1.7,14.8-3,22.2-4.3c16.5-2.9,33.1-5.3,49.6-7.7
			C1150.1,482.3,1150.4,481.7,1149.9,481.8z"/>
		
			<linearGradient id="SVGID_28_" gradientUnits="userSpaceOnUse" x1="1021.0297" y1="344.2061" x2="1084.5872" y2="344.2061" gradientTransform="matrix(1 0 0 -1 0 900)">
			<stop  offset="0" style="stop-color:#7FCEF4"/>
			<stop  offset="0.39" style="stop-color:#B1DBF5"/>
			<stop  offset="1" style="stop-color:#4AA8B0"/>
		</linearGradient>
		<path class="st36" d="M1084.2,549.1c-18.6,9.1-41.8,2.9-61.4,9.7c-1.2,0.4-3,3.7-0.7,3.6c11.9-0.5,23.6-4.3,35.5-5.7
			c9.5-1.1,18.5-2.1,26.8-7C1084.7,549.6,1084.7,548.9,1084.2,549.1z"/>
		
			<linearGradient id="SVGID_29_" gradientUnits="userSpaceOnUse" x1="560.2192" y1="407.6138" x2="677.9766" y2="407.6138" gradientTransform="matrix(1 0 0 -1 0 900)">
			<stop  offset="0" style="stop-color:#7FCEF4"/>
			<stop  offset="0.39" style="stop-color:#B1DBF5"/>
			<stop  offset="1" style="stop-color:#4AA8B0"/>
		</linearGradient>
		<path class="st37" d="M677.7,462c-30.3,7.7-62,11-91.1,23c-17.2,7.1-41.3,24.6-14.3,37.7c0.8,0.4,2.2-1.1,1.4-1.7
			c-5.1-3.9-11.3-7.3-8-16.1c2.7-7.3,14.9-12.1,21.3-15.1c9-4.4,18.6-7.8,28.1-10.9c20.4-6.9,41.8-10.6,62.5-16.1
			C677.9,462.6,678.2,461.8,677.7,462z"/>
		
			<linearGradient id="SVGID_30_" gradientUnits="userSpaceOnUse" x1="644.6099" y1="304.5359" x2="787.1346" y2="304.5359" gradientTransform="matrix(1 0 0 -1 0 900)">
			<stop  offset="0" style="stop-color:#7FCEF4"/>
			<stop  offset="0.39" style="stop-color:#B1DBF5"/>
			<stop  offset="1" style="stop-color:#4AA8B0"/>
		</linearGradient>
		<path class="st38" d="M775,607.8c-9.1-4.7-18.9-8.2-28-13c-8.1-4.3-5.6-12.6,1.2-17.4c2.5-1.5,4.5-3.6,6.1-6
			c4.2-7.3-7.2-11-12-12.5c-31.7-10.4-65.7-11.7-97-23.4c-0.4-0.1-1,0.6-0.5,0.8c27.8,14,59.6,17.4,89.2,26c4.9,1.5,9.6,3,13.7,6.2
			c4.9,3.8-5,10.3-7.3,12.9c-3.3,3.8-3.1,8.8,0,12.6c3.7,4.5,12,6.8,17.1,9.1c8.2,3.8,19.5,7.7,24.7,15.6
			c2.5,3.8-15.6,9.6-17.5,10.4c-7.5,3.1-14.7,7-22.1,10.5s-14.2,7.5-16.4,15.4c-0.3,0.9,1.1,0.5,1.3-0.1c6.3-15.1,34-21.1,47.8-25.7
			c5-1.7,12.1-4.2,11.9-10.7C787,613.3,778.8,609.8,775,607.8z"/>
		
			<linearGradient id="SVGID_31_" gradientUnits="userSpaceOnUse" x1="1513.7866" y1="279.4031" x2="1662.8162" y2="279.4031" gradientTransform="matrix(1 0 0 -1 0 900)">
			<stop  offset="0" style="stop-color:#7FCEF4"/>
			<stop  offset="0.39" style="stop-color:#B1DBF5"/>
			<stop  offset="1" style="stop-color:#4AA8B0"/>
		</linearGradient>
		<path class="st39" d="M1661.8,588.3c-36.2,9.3-73.3,16.5-107.7,31.4c-12.3,5.4-42.5,14.5-40.2,32.6c0.2,1.6,2.1,0.1,2.3-0.7
			c5.5-18.8,38.2-27.9,54.4-34.4c29.2-11.8,60.2-18.3,90.6-26.2C1662.6,590.5,1663.7,587.8,1661.8,588.3z"/>
		<path class="st40" d="M1216.1,554c0.1,0,0.1,0,0.2,0c0,0.4,0.3,0.7,0.7,0.8c2.6,0.2,5,0.9,7.4,1.9c1.9,0.8,3.5,2.2,4.6,3.8
			c2.7,4.1,4,8.8,6.5,13c1.3,2.2,3.1,1.6,4.1,0.2c0.3,0.6,0.5,1.2,0.7,1.8c0.1,0.2,0.1,0.4,0.2,0.6c1.4,0.1,2.8,0.3,4.3,0.6
			c0.4-0.3,0.7-0.8,0.9-1.3c1,0.3,2.1-0.1,2.6-1c0.1,0.5,0.2,1,0.3,1.5c0.9,4.3,6.8,2.8,5.9-0.9c0-0.1,0-0.2,0-0.3
			c0.2,0.3,0.5,0.5,0.8,0.7c0.3,0.2,0.7,0.2,1,0.2c0.2,0.3,0.4,0.7,0.7,1.1c2.5,3.7,7.2-0.8,5.1-3.8l0,0c-5.6-8.3-7.2-18.7-7.9-28.6
			c-0.7-9.3-0.7-19.5,5.2-27.1c0.4-0.5-0.3-1.3-0.8-0.8c-6.8,6.3-9.4,17.7-9.6,26.9c-0.7-2.4-1.6-4.7-2.7-7
			c-2.5-5.5-5.2-10.7-9.2-15.2c-1.9-2.3-4-4.4-6.3-6.2c-2-1.5-4.4-2.3-6.3-3.9c-0.3-0.3-0.9-0.3-1.2,0.1c-0.2,0.2-0.3,0.6-0.1,0.8
			c0.7,1.9,1.8,2.5,3.2,3.8c0.6,0.6,1.2,1.1,1.8,1.8c4.8,5.7,8.1,12.4,9.8,19.7c1.1,4.8,1.8,9.8,2.1,14.7c-0.5-1-1.1-1.9-1.7-2.8
			c-3.1-4.1-7.5-8-12.9-7.4c-0.5,0-0.5,0.7-0.1,0.9c2.7,1.5,5.7,2.1,7.9,4.5c2.3,2.6,3.2,5.9,4.1,9.3c0.3,1.5,0.5,3,0.6,4.5
			c-5.4-5.5-12.7-9-20.4-7.7l-0.9-0.1C1215.8,552.7,1215.5,553.7,1216.1,554z"/>
		<path class="st41" d="M1235.3,547.9c2.3,3.7,3.9,7.8,4.8,12c0.9,3.8,1.2,7.8,2.2,11.6c0.5,1.8,1.3,3.5,2.3,5.2
			c0.9,0.2,1.9,0.4,2.8,0.7c1.6,0.4,3.1,1,4.6,1.6c0-0.2,0-0.3,0-0.5c1.7,0.5,3.5-0.3,4.3-1.9c0.3-0.1,0.5-0.3,0.7-0.6
			c0.1-0.1,0.2-0.2,0.2-0.3c0.3-0.3,0.5-0.8,0.5-1.2c2.1,1.8,5.9-0.3,4.9-3.7c-1-3.6-2.9-6.9-4-10.5c-1.1-4-1.8-8.1-2-12.2
			c-0.3-4.7-0.6-9.8,0.2-14.5c0.7-3.8,1.8-7.6,2.6-11.4c0.1-0.5-0.6-0.8-0.8-0.4c-4.7,7.5-7,17.3-7.4,26.2c0,0.9,0,1.7,0,2.5
			c-0.6-3.8-1.5-7.5-2.8-11.1c-4-10.5-10.8-19.7-19.5-26.7c-0.6-0.4-1.5,0.3-1,1c3.3,4.4,7.4,8.3,10.2,13c3.4,5.7,5.6,12.1,6.5,18.7
			c0.8,6.6,0.9,13.3,2,19.8c-0.9-3.9-2.3-7.7-4.1-11.3c-3.5-6.9-8.5-10.5-15.1-13.9c-0.4-0.2-0.8,0.4-0.4,0.7
			C1229.9,542.9,1233.4,545,1235.3,547.9z"/>
		<path class="st41" d="M1220.3,552.9c3.6,1,7,1.8,10.2,3.4c-1.3-2.9-3.4-5.5-5.9-7.5c-0.5-0.4,0-1.1,0.6-0.9
			c9.1,3.7,13.5,12.2,16,21.7c0.1,0.4,0.1,0.9,0.1,1.4c0,0,0,0,0,0c0.2,0.8-0.2,1.6-1,1.8c-0.4,0.4-0.9,0.7-1.4,0.8
			c-0.5,1.7-2.5,2.9-4,1.5c-2.3-2.3-2.4-5.9-4-8.8c-2.1-3.6-5.8-5.8-9.6-7.1c-0.4-0.2-0.2-0.8,0.2-0.7c3.9,0.1,7.7,1.3,11,3.5
			c-3.3-4.1-7.8-6.4-12.3-8.7C1219.9,553.3,1220,552.8,1220.3,552.9z"/>
		<path class="st42" d="M1228.4,546.1c0.3,0.5,0.7,1,1.3,1.1c0.1,0,0.1,0,0.1,0.1c0,0.1,0,0.1-0.1,0.1c-0.7-0.2-1-0.7-1.4-1.2
			C1228.1,546.1,1228.3,546,1228.4,546.1z"/>
		<path class="st42" d="M1247.5,577.3c4,1.2,7.8,2.9,11.4,5c3.4-1.9,6.9-3.6,10.5-5c-0.6-0.5-1.2-0.9-1.8-1.3c0.1-0.6,0-1.1-0.3-1.6
			c-3.7-6.2-6.8-12.2-8.2-19.4c-1.1-6.4-1.8-12.8-2.2-19.3c0-0.1-0.1-0.1-0.2-0.1c-0.1,0-0.1,0.1-0.1,0.1c-2,11.2-1.7,25.4,4.1,35.8
			c-0.6-0.8-1.1-1.6-1.6-2.5c-2.4-4.4-3.9-9.2-4.5-14.2c0-0.2-0.2-0.4-0.4-0.4c-0.1,0-0.1,0-0.2,0.1c-0.5-3.2-1-6.5-1.7-9.7
			c-1.3-5.2-3.4-9.9-5-15c-0.1-0.2-0.3-0.3-0.5-0.2c-0.1,0.1-0.2,0.2-0.2,0.3c0.7,4.3,1.6,8.6,2.7,12.8c-2-4.6-4.7-8.6-6.9-13.1
			c-0.1-0.2-0.4-0.1-0.3,0.1c2.3,5.7,4.3,11.6,6,17.5c1.3,4.7,1.4,8.9,1.6,13.7c0.1,3.2,0.1,7.4,1,11.1c0-0.1-0.1-0.1-0.1-0.2
			c-2.4-4.5-3.2-9.3-3.3-14.5c0-0.2-0.2-0.4-0.4-0.3c-0.2,0-0.3,0.2-0.3,0.3c-0.5,4.3-0.1,8.7,0.9,12.9c-1.4-3.2-2.3-6.5-2.7-10
			c0-0.2-0.2-0.4-0.4-0.4s-0.4,0.2-0.4,0.4c-0.7,4.8,0.4,9.4,1.7,14c0.2,0.7,0.4,1.5,0.7,2.3c-1.9-3.7-3.6-7.4-4.2-11.5
			c0-0.2-0.3-0.2-0.3,0c-0.1,1.9,0,3.9,0.2,5.8c0-0.1,0-0.2-0.1-0.3c-0.7-2.8-1.5-5.6-2.4-8.3c-2.1-5.2-5.6-9-8.8-13.3
			c0-0.1-0.1,0-0.1,0c2.3,5.1,5.4,10.1,6.8,15.6c0.2,0.8,0.3,1.5,0.5,2.3c-2.2-4.6-5.6-8.6-9.9-11.4c-0.3-0.2-0.6,0.3-0.4,0.5
			c1.8,3.3,4.7,5.5,5.9,9.3c0.4,1.3,0.8,2.6,1,3.8c-1.1-1.7-2.5-3.2-4-4.6c-1-1.4-2.2-2.6-3.6-3.6c-0.4-0.2-0.7,0.3-0.4,0.6
			c1.9,1.9,3.7,4,4.3,6.8c0.5,2.4,0.8,4.9,1,7.3c0,0.1,0.1,0.2,0.1,0.3C1237.2,575.5,1242.4,576,1247.5,577.3z"/>
		<path class="st43" d="M1206.7,605.8c0,5,17.8,9,39.8,9s39.8-4,39.8-9s-17.8-9-39.8-9S1206.7,600.8,1206.7,605.8z"/>
		<path class="st43" d="M1155.8,577.7c0,3.8,13.6,6.9,30.3,6.9s30.3-3.1,30.3-6.9s-13.6-6.9-30.3-6.9S1155.8,573.9,1155.8,577.7z"/>
		<path class="st43" d="M1001.8,615.2c0,9.6,34.2,17.3,76.3,17.3s76.3-7.8,76.3-17.3s-34.2-17.3-76.3-17.3
			S1001.8,605.6,1001.8,615.2z"/>
		<path class="st44" d="M1133.4,613.4c4.9-4.1,9.7-8.7,15.3-11.6c0-3.2,0.1-6.5,0.2-9.7c-6.3-10.3-12.1-21-17.4-31.9
			c0.1-0.4-0.1-0.8-0.5-1c0,0-0.1,0-0.1,0c-6.1-1.2-12.3-2.6-18.3-4.1c-5.9-1.5-12-2.8-17.7-5c-4.3-1.7-8-4.8-12.4-6.4
			s-9.6-0.4-13.9,1c-4.8,1.6-9.3,4.5-13.7,7.2c-5.6,3.4-11.2,6.8-16.8,10.3c-9.9,6.1-19.8,12.3-29.6,18.7c0-0.7-0.9-1.3-1.3-0.5
			c-0.5,0.7-0.9,1.4-1.2,2.2l-1,0.6c-0.2,0.1-0.2,0.4-0.1,0.5c0.1,0.2,0.3,0.2,0.5,0.1c0,0,0.1,0,0.1-0.1c-1.5,4.5,0,8.7,3.4,12.7
			c4.3,5.1,8.1,10.6,12.4,15.6c4.3,5.1,8.6,6.9,15.1,6.2c4.1-0.5,7.9-1.1,12-0.8c4.6,0.4,9.2,0.7,13.8,0.9
			c9.4,0.5,18.8,0.9,28.2,1.2c8,0.3,15.8,2.3,23.8,2.3C1121.9,621.8,1127.6,618.2,1133.4,613.4z"/>
		
			<linearGradient id="SVGID_32_" gradientUnits="userSpaceOnUse" x1="1020.4708" y1="142.5014" x2="1101.6926" y2="142.5014" gradientTransform="matrix(0.9987 -5.094156e-02 -5.094156e-02 -0.9987 7.2066 759.1616)">
			<stop  offset="1.000000e-02" style="stop-color:#B87B56"/>
			<stop  offset="1" style="stop-color:#CCB084"/>
		</linearGradient>
		<path class="st45" d="M1094.9,550.1c-4.3-1.7-8-4.8-12.4-6.4s-9.6-0.4-13.9,1c-4.8,1.6-9.3,4.5-13.7,7.2
			c-5.6,3.4-11.2,6.8-16.8,10.3c-6.3,3.8-12.5,7.8-18.7,11.7c1.2-0.7,8.1,2.7,9.4,3.2c2.5,0.9,5,1.8,7.5,2.6
			c5.9,1.9,12,2.7,18.2,2.4c4.1-0.1,8.1-0.6,12.1-1.3c5.4-1.2,9-2.3,12.9-6.7c6.6-7.6,13.5-14.6,20.2-22
			C1099.6,552,1095.5,550.3,1094.9,550.1z"/>
		
			<linearGradient id="SVGID_33_" gradientUnits="userSpaceOnUse" x1="1079.9221" y1="115.6502" x2="1152.7521" y2="115.6502" gradientTransform="matrix(0.9987 -5.094156e-02 -5.094156e-02 -0.9987 7.2066 759.1616)">
			<stop  offset="1.000000e-02" style="stop-color:#A6623C"/>
			<stop  offset="1" style="stop-color:#B4865C"/>
		</linearGradient>
		<path class="st46" d="M1133.4,613.4c4.9-4.1,9.7-8.7,15.3-11.6c0-3.2,0.1-6.5,0.2-9.7c-6.3-10.3-12.1-21-17.4-31.9
			c0.1-0.4-0.1-0.8-0.5-1c0,0-0.1,0-0.1,0c-6.1-1.2-12.2-2.6-18.3-4.1c-3.4-0.8-6.8-1.6-10.2-2.6c-1.6-0.4-11.7,11.4-13.3,13
			c-3.4,3.5-7.5,7.4-9.3,12.2c-2,5.3,3.3,10.7,5.2,15.2s3.6,9.2,5.3,13.9c0.5,1.4,3.5,12.9,4.3,13c6.6,0.7,13,2.1,19.6,2.1
			C1121.9,621.8,1127.6,618.2,1133.4,613.4z"/>
		
			<linearGradient id="SVGID_34_" gradientUnits="userSpaceOnUse" x1="1005.1941" y1="108.0166" x2="1090.6348" y2="108.0166" gradientTransform="matrix(0.9987 -5.094156e-02 -5.094156e-02 -0.9987 7.2066 759.1616)">
			<stop  offset="1.000000e-02" style="stop-color:#9E503C"/>
			<stop  offset="1" style="stop-color:#B2856A"/>
		</linearGradient>
		<path class="st47" d="M1081.9,592.7c-1.8-4.9-4-9.5-9.4-10.3s-11,1.5-16.4,2s-11.3,0.6-16.6-1.2c-7.6-2.6-14.9-5.8-22.6-7.7
			c-2.8,1.8-5.5,3.5-8.2,5.3c0-0.7-0.9-1.3-1.3-0.5c-0.5,0.7-0.9,1.4-1.2,2.2l-1,0.6c-0.2,0.1-0.2,0.4-0.1,0.5
			c0.1,0.2,0.3,0.2,0.5,0.1c0,0,0.1,0,0.1-0.1c-1.5,4.5,0,8.7,3.4,12.7c4.3,5.1,8.1,10.6,12.4,15.6s8.7,6.9,15.1,6.2
			c4.1-0.5,7.9-1.1,12-0.8c4.6,0.4,9.2,0.7,13.8,0.9c9.4,0.5,18.8,0.9,28.2,1.2l1.7,0.1c-0.7,0-4.4-12.1-5-13.4
			c-1.6-3.7-3.3-7.4-4.6-11.2C1082.4,594.2,1082.1,593.5,1081.9,592.7z"/>
		
			<linearGradient id="SVGID_35_" gradientUnits="userSpaceOnUse" x1="1005.2153" y1="114.6311" x2="1152.7552" y2="114.6311" gradientTransform="matrix(0.9987 -5.094156e-02 -5.094156e-02 -0.9987 7.2066 759.1616)">
			<stop  offset="1.000000e-02" style="stop-color:#8A3F29"/>
			<stop  offset="1" style="stop-color:#A56951"/>
		</linearGradient>
		<path class="st48" d="M1133.4,613.4c4.9-4.1,9.7-8.7,15.3-11.6c0-3.2,0.1-6.5,0.2-9.7c-6.3-10.3-12.1-21-17.4-31.9
			c0.1-0.4-0.1-0.8-0.5-1c0,0-0.1,0-0.1,0c-0.1,0-0.2-0.1-0.3,0c-0.1-0.2-0.3-0.4-0.5-0.5c-6.1-1.2-12.3-2.6-18.3-4.1
			c-0.5-0.1-1-0.2-1.5-0.4c3,1.9,6.1,3.7,9.2,5.3c3.7,1.8,9.7,4,11,8.7c1.4,5.1,1,10.4,1.7,15.6c0.3,2.4,0.8,5.3-1.8,6.4
			c-6,2.8-12,1.3-18.2,1.3c-5.4,0.1-11.2,1.1-16.5,0c-7.1-1.4-16.1-8.6-15.5-16.8c-6.3,5.2-14.8,9.5-22.6,8.3
			c-10.4-1.7-16.4-11.9-26.5-14.3c-0.6-0.2-1-0.8-0.8-1.5c0,0,0-0.1,0-0.1c-4.5,2.8-9,5.6-13.5,8.5l0,0c-2.8,1.8-5.5,3.5-8.2,5.3
			c0-0.7-0.9-1.3-1.3-0.5c-0.5,0.7-0.9,1.4-1.2,2.2l-1,0.6c-0.2,0.1-0.2,0.4-0.1,0.5c0.1,0.2,0.3,0.2,0.5,0.1c0,0,0.1,0,0.1-0.1
			c-1.5,4.5,0,8.7,3.4,12.7c4.3,5.1,8.1,10.6,12.4,15.6s8.7,6.9,15.1,6.2c4.1-0.5,7.9-1.1,12-0.8c4.6,0.4,9.2,0.7,13.8,0.9
			c9.4,0.5,18.8,0.9,28.2,1.2c8,0.3,15.8,2.3,23.8,2.3C1121.9,621.8,1127.6,618.2,1133.4,613.4z"/>
		
			<linearGradient id="SVGID_36_" gradientUnits="userSpaceOnUse" x1="1005.1935" y1="113.5174" x2="1152.7335" y2="113.5174" gradientTransform="matrix(0.9987 -5.094156e-02 -5.094156e-02 -0.9987 7.2066 759.1616)">
			<stop  offset="1.000000e-02" style="stop-color:#8A3F29"/>
			<stop  offset="1" style="stop-color:#A56951"/>
		</linearGradient>
		<path class="st49" d="M1133.4,613.4c4.9-4.1,9.7-8.7,15.3-11.6c0-3.2,0.1-6.5,0.2-9.7c-3.8-6.2-7.4-12.6-10.9-19.1
			c1.2,8.2,2.9,16.3,7.2,23.4c0.3,0.6,0.2,1.3-0.3,1.7c-12,7-27.3,17.3-41.6,12.4c-5.4-1.9-8.8-8.8-12.9-12.5
			c-3.5-3.2-5.8-7.4-8.6-11.2c8.6,24-12.6,10.4-15.7,2.5c-1.8-4.6-0.7-6.9,1.7-8.7c-4.8,0.8-9.6,1.3-14.4,0
			c-6.5-1.8-11.2-7.7-17.8-9.3c-0.6-0.2-1-0.8-0.9-1.5c0-0.1,0.1-0.2,0.1-0.2c1.9-3.6,4.3-6.8,7.2-9.7c-1.2,0.8-2.5,1.5-3.7,2.3
			c-7.2,4.4-14.3,8.9-21.4,13.4l0,0c-2.8,1.8-5.5,3.5-8.2,5.3c0-0.7-0.9-1.3-1.3-0.5c-0.5,0.7-0.9,1.4-1.2,2.2l-1,0.6
			c-0.2,0.1-0.2,0.4-0.1,0.5c0.1,0.2,0.3,0.2,0.5,0.1c0,0,0.1,0,0.1-0.1c-1.5,4.5,0,8.7,3.4,12.7c4.3,5.1,8.1,10.6,12.4,15.6
			c4.3,5.1,8.6,6.9,15.1,6.2c4.1-0.5,7.9-1.1,12-0.8c4.6,0.4,9.2,0.7,13.8,0.9c9.4,0.5,18.8,0.9,28.2,1.2c8,0.3,15.8,2.3,23.8,2.3
			C1121.9,621.8,1127.6,618.2,1133.4,613.4z"/>
		
			<linearGradient id="SVGID_37_" gradientUnits="userSpaceOnUse" x1="1005.1951" y1="109.6888" x2="1152.5652" y2="109.6888" gradientTransform="matrix(0.9987 -5.094156e-02 -5.094156e-02 -0.9987 7.2066 759.1616)">
			<stop  offset="1.000000e-02" style="stop-color:#8A3F29"/>
			<stop  offset="1" style="stop-color:#A56951"/>
		</linearGradient>
		<path class="st50" d="M1121.7,616.8c-10.9,4.1-23.4,1-30.5-8.1c-0.3,1.5-0.7,3-1.1,4.5c-0.2,0.6-0.8,1-1.4,0.9
			c-5.7-1.1-13.8-1-18.2-5.6c-3.3-3.4-3.4-10.5-5.6-14.7c-3.9-7.3-10.8-10.4-17.7-14.2c-6.5-3.4-12.7-7.2-18.7-11.3
			c-3.9,2.4-7.8,4.8-11.7,7.3l0,0c-2.8,1.8-5.5,3.5-8.2,5.3c0-0.7-0.9-1.3-1.3-0.5c-0.5,0.7-0.9,1.4-1.2,2.2l-1,0.6
			c-0.2,0.1-0.2,0.4-0.1,0.5c0.1,0.2,0.3,0.2,0.5,0.1c0,0,0.1,0,0.1-0.1c-1.5,4.5,0,8.7,3.4,12.7c4.3,5.1,8.1,10.6,12.4,15.6
			s8.7,6.9,15.1,6.2c4.1-0.5,7.9-1.1,12-0.8c4.6,0.4,9.2,0.7,13.8,0.9c9.4,0.5,18.8,0.9,28.2,1.2c8,0.3,15.8,2.3,23.8,2.3
			c7.6,0,13.3-3.6,19.1-8.5c3.3-2.8,6.5-5.7,9.9-8.2C1136.1,608.7,1129.2,614,1121.7,616.8z"/>
		<path class="st51" d="M1073.8,548c-0.6-0.9-1.9-1.1-2.8-0.5c-6.3,4-13.8,6.1-19.3,11.4c-1,1.2-0.9,2.9,0.3,4
			c0.1,0.1,0.3,0.2,0.4,0.3c7.3,4.2,28-0.1,28.6-11C1081.3,547.4,1078,546.8,1073.8,548z"/>
		<path class="st51" d="M1091,552.3c-0.3-0.1-0.7-0.3-1-0.3c-0.4-0.4-0.9-0.6-1.5-0.5c-1.6,0.4-3,1-4.3,2c-1.8,1.2-1.5,4.6,0.8,4.9
			s4.3,0.1,6.2-1.6c0.7-0.5,1.2-1.4,1.2-2.3C1092.3,553.6,1091.8,552.8,1091,552.3z"/>
		<path class="st51" d="M1072.3,571.9c-0.1-0.1-0.2-0.2-0.3-0.3l0,0c-0.3-0.2-0.7-0.3-1.2-0.3h-0.1c-0.2,0-0.4,0-0.7,0
			c-0.3,0-0.6,0-0.9,0c-0.9,0.1-1.6,0.7-1.8,1.6c-0.3,1.1,0.4,2.1,1.4,2.4c1.2,0.5,3.3,0.2,3.9-1.2
			C1073.1,573.4,1072.9,572.5,1072.3,571.9z"/>
		<path class="st44" d="M1222,572l3-4.7l20.5-5l16,3l21.3,22.8l-2.4,12.1l-9.4,7.5l-42.8,0.3c-4.5-1.8-8.9-3.9-13.2-6.3l-7.4-15.5
			l-0.4-0.7L1222,572z"/>
		
			<linearGradient id="SVGID_38_" gradientUnits="userSpaceOnUse" x1="-6984.4434" y1="611.8752" x2="-6983.9736" y2="592.4553" gradientTransform="matrix(-1 -7.000000e-02 7.000000e-02 -1 -5775.4102 693.99)">
			<stop  offset="1.000000e-02" style="stop-color:#8A3F29"/>
			<stop  offset="0.8" style="stop-color:#A56951"/>
		</linearGradient>
		<path class="st52" d="M1232.8,605.1c3-3.4,5.9-7.1,8.7-10.6c3.2-4,7.8-3.7,12.4-4.9c2.1,0,2.3,1,3.4,2.4s3,2.2,4.2,3.7
			c2.6,3.1,4.8,8.4,6.4,12l-39,0.3C1230.3,607.2,1231.7,606.2,1232.8,605.1C1234,603.7,1231.8,606.2,1232.8,605.1z"/>
		
			<linearGradient id="SVGID_39_" gradientUnits="userSpaceOnUse" x1="-6988.4233" y1="617.3453" x2="-7009.3232" y2="586.3453" gradientTransform="matrix(-1 -7.000000e-02 7.000000e-02 -1 -5775.4102 693.99)">
			<stop  offset="1.000000e-02" style="stop-color:#8A3F29"/>
			<stop  offset="1" style="stop-color:#A56951"/>
		</linearGradient>
		<path class="st53" d="M1264.1,599.6c-0.6-1.1-0.9-2.3-1.5-3.4c-0.9-1.6-3-2.4-4.3-3.7c-1.7-1.8-2.7-3.5-1.3-5.8s4.2-7.3,4.1-10
			c-0.1-2.1-0.9-3.8-0.3-5.9c0.6-1.8,0.7-3.8,0.3-5.7c3.1,0.8,6.8,6.7,8.9,9c4.2,4.5,8.4,8.9,12.6,13.4c1.2,1.3-1,11-2,12.6
			s-4.2,3.3-5.8,4.6c-2.4,2-3.1,2.9-6.2,2.9C1267.2,604.9,1265.5,602.3,1264.1,599.6L1264.1,599.6z"/>
		
			<linearGradient id="SVGID_40_" gradientUnits="userSpaceOnUse" x1="-6959.0576" y1="590.5567" x2="-6959.0576" y2="638.9667" gradientTransform="matrix(-1 -7.000000e-02 7.000000e-02 -1 -5775.4102 693.99)">
			<stop  offset="1.000000e-02" style="stop-color:#8A3F29"/>
			<stop  offset="0.8" style="stop-color:#A56951"/>
		</linearGradient>
		<path class="st54" d="M1228.1,607.8c-4.4-1.8-8.7-3.9-12.9-6.2c-2.4-5.3-4.9-10.6-7.6-15.8c1.3-0.1,2.5-0.3,3.8-0.4
			c-0.1,0-0.2,0,0.1,0c7-0.9,14.6,1.7,21.2,3.7c3,0.9,6.1,2.2,9.2,2.4c2.3,0.4-1.4,3.6-2.1,4.3
			C1237,598.8,1232.7,606.9,1228.1,607.8z"/>
		<path class="st55" d="M1258.4,565.5c-0.7-0.1-1.4-0.3-2.1-0.4c1.2,0.1,2.3,0.2,3.5,0.2c2.7,0,4.3,2.5,5.7,4.4
			c1.7,2.4,3.6,4.7,5.7,6.8c2,1.9,3.8,4,5.4,6.1c0.9,0.9,1.8,1.8,2.8,2.6c0.9,0.9,1.7,2,2.2,3.2c0,0.1-0.1,0.2-0.2,0.1
			c-1.6-2-3.4-3.8-5.5-5.2c-1-0.5-1.9-1.1-2.8-1.8c-1-0.8-2-1.7-2.9-2.6c-2-1.7-3.7-3.6-5.3-5.6
			C1263.3,570.2,1262.5,566.3,1258.4,565.5z"/>
		<path class="st51" d="M1209.4,583.2c1.8-1.6,3.7-3,5.5-4.7c2-1.9,3.6-4,5.6-5.8c1.6-1.4,3.1-2.8,4.5-4.4c1.4-1.4,3.2-2.2,5.2-2.4
			c4.8-0.9,9.6-1.9,14.3-3c1-0.4,2.2-0.5,3.3-0.4c1,0.3,1.9,0.7,2.8,1.2c2.6,1.3,5.6,1.3,8.4,1.7c0.1,0,0.1,0.2,0,0.2
			c-2.2,0.2-4.5,0-6.7-0.5c-0.9-0.2-1.8-0.4-2.6-0.8c-1.3-0.6-2.9-0.6-4.2-0.1c-4.5,1.6-9,2.8-13.7,3.7c-2.4,0.4-4.1,1-5.7,2.8
			c-1.4,1.5-2.9,3-4.5,4.3c-1.9,1.6-3.9,3-5.9,4.4s-3.8,3-5.8,4.3C1209.5,584.1,1209,583.5,1209.4,583.2z"/>
		<path class="st51" d="M1248.2,589.5c0.4,0,0.7-0.2,1-0.2c0.3-0.2,0.6-0.2,0.9,0l0,0c0,0,0,0,0.1-0.1c0.8-0.6,1.8-0.9,2.8-1
			c1.1,0,1.7,0,2.2-1.1c0.2-0.5,0.4-1,0.6-1.5c0.9-2.5,3-4.5,3.8-7c0-0.1,0.2,0,0.2,0c0,1,0.3,2.2-0.8,2.8c-1.9,1-2.4,3.2-2.9,5.1
			c-0.2,1-0.7,1.9-1.5,2.6c-0.4,0.2-0.8,0.3-1.2,0.2c-1,0-2,0.1-3,0.2c-0.1,0-0.1,0-0.2,0c0,0.1-0.1,0.1-0.2,0.1
			c-0.3,0.2-0.5,0-0.8,0S1248.6,589.4,1248.2,589.5C1248.2,589.5,1248.2,589.5,1248.2,589.5z"/>
		<path class="st51" d="M1219.1,585.5c4.3-0.3,8.9,1.7,13.1,2.9c4.5,1.3,9.9,3.4,14.5,1.5c0.1,0,0.2,0,0.2,0.1c0,0.1,0,0.2-0.1,0.2
			c-1.8,0.8-3.7,2-5.8,2c-2.3,0-4.6-1.2-6.7-2c-2.5-0.9-5.1-1.7-7.6-2.6S1221.6,586.3,1219.1,585.5
			C1219.1,585.5,1219.1,585.5,1219.1,585.5z"/>
		<path class="st51" d="M1258.9,566c-0.1-0.1,0-0.3,0.2-0.3c1.5,0.6,2.6,1.5,2.5,3.1c-0.1,1.2-0.9,2.3-1,3.6
			c-0.2,1.5,0.6,2.8,0.4,4.3c0,0.1-0.1,0.1-0.1,0c-0.4-0.8-0.7-1.7-0.9-2.6c-0.1-0.9-0.1-1.9,0-2.8c0.2-0.7,0.4-1.5,0.8-2.2
			C1261.5,567.5,1259.8,567,1258.9,566z"/>
		<path class="st55" d="M1257.6,591.3c2,1.3,4.4,2.6,5.8,4.6s2.2,4.3,3.5,6.3c0.1,0.1-0.1,0.3-0.3,0.2c-1.7-1.3-2.3-3.4-3.3-5.2
			c-0.7-1.3-1.8-2.5-3.1-3.2c-1.1-0.6-2.1-1.5-2.9-2.4C1257.3,591.3,1257.4,591.2,1257.6,591.3z"/>
		<path class="st56" d="M1214.9,582.4c2.5-0.8,5.1-1.5,7.7-2c1.3-0.3,2.7-0.3,4,0c0.2,0.1,0.5,0.1,0.8,0.2c1.5,1.2,2.9,2.4,4.5,3.5
			c1.9,1.2,3.8,2.3,5.6,3.5c1.3,0.9,2.4,1.4,3.8,0.6c0.9-0.5,1.8-0.8,2.8-0.9c1.1-0.2,2.1-0.7,3.1-0.8c1.6-0.2,3.4,0.7,5,0
			s2.2-2.5,2.9-3.8c1.2-2.2,3.7-4.3,3.4-7.1c-0.1-1.1-0.8-2-0.7-3.1c0.3-2.8,4-4.9,1.2-7.7l2.6,0.5l21.3,22.8l-2.4,12.1l-9.4,7.5
			l-42.8,0.3c-4.5-1.8-8.9-3.9-13.2-6.3l-7.4-15.5l-0.4-0.6C1209.8,584.3,1212.3,583.3,1214.9,582.4z"/>
		<path class="st57" d="M1215.1,601.7l-5-10.5c1.3,1.9,2.5,3.9,3.8,5.8s3,4.1,5.2,5.2c3.1,1.5,6.6,1.9,10.1,1.3
			c3.2-0.5,6.5-2.2,9.5-0.3c2.1,1.3,4.8,0.2,7-0.3c3.7-0.8,7.3-1.8,11-2.3c0.7-0.1,2,0.1,2.5-0.4c0.5-0.5,1-1,1.4-1.5
			c0.7-0.9,1.3-1.9,1.7-3c3.5,1.7,7.3,2.7,11.1,3.2c0.3,0,0.7-0.1,0.9-0.3c0.5-0.2,0.9-0.6,0.9-1.1c0.6-2.9,2.8-5.1,3.9-7.7
			c0.8-2,0.1-3.6-0.8-5.4c-0.4-0.7-0.7-1.5-1.1-2.2l5.5,5.9l-2.4,12.1l-9.4,7.5l-42.8,0.3C1223.7,606.1,1219.3,604,1215.1,601.7z"/>
		
			<linearGradient id="SVGID_41_" gradientUnits="userSpaceOnUse" x1="-7034.2681" y1="594.2296" x2="-6958.5981" y2="594.2296" gradientTransform="matrix(-1 -7.000000e-02 7.000000e-02 -1 -5775.4102 693.99)">
			<stop  offset="1.000000e-02" style="stop-color:#8A3F29"/>
			<stop  offset="1" style="stop-color:#A56951"/>
		</linearGradient>
		<path class="st58" d="M1207.3,585.3c2.1,2,4.4,3.7,6.6,5.6c1.4,1.2,2.5,2.9,4,3.9s3.1,1,5,1.2c3.4,0.4,7,1.6,10.5,1
			c1.7-0.4,3.4-1.1,4.9-2c1.5-0.7,3-1.4,4.6-2c-0.3,1.1-0.7,2.2-1.2,3.3c-0.7,1.4-1.5,3,0,4.2s5.4,0,7.1-0.6c2.5-1,5.1-1.6,7.8-2
			c1,0,1.2-1.3,0.7-2c-1.6-2.2-3.7-4.1-6.1-5.4c-0.2-0.1-0.5-0.2-0.7-0.3c1.5-0.5,3-0.9,4.6-1.3c4.5,2.3,9.3,4.2,13.9,6.6
			c0.6,0.4,1.4,0.2,1.7-0.4c0-0.1,0.1-0.1,0.1-0.2c1-3.5,3.3-6.2,5.3-9.2c0.4-0.5,0.2-1.3-0.3-1.7c-4.8-4.1-7.8-9.7-10.8-15.2
			l17.8,19l-2.4,12.1l-9.4,7.5l-42.8,0.3c-4.5-1.8-8.9-3.9-13.2-6.3l-7.4-15.5L1207.3,585.3L1207.3,585.3z"/>
		<path class="st59" d="M1240.8,570.5c1.2-1,3.3-0.6,4.7-0.3c1.2,0.2,2.4,0.7,3.3,1.5c1.2,0.5,1.9,1.8,1.6,3.1
			c-0.6,3.5-4.6,3.6-7.1,2.6S1238,573,1240.8,570.5z"/>
		<path class="st59" d="M1233.9,582.7c0.1-0.9,0.8-1.5,1.6-1.5h0.5c0.7-0.3,1.5-0.1,2,0.5c0.6,0.8,0.6,1.8,0,2.6
			c-0.6,0.8-1.6,1.2-2.6,0.9c-0.5-0.2-0.9-0.7-1.1-1.2C1234,583.7,1233.9,583.2,1233.9,582.7z"/>
		<path class="st44" d="M1211.3,569.2c-1.2-2.9-2.3-5.8-3.3-8.8l-13.7-5.4l-26.5,11.2l-9.2,10.7l32.3,1.8l0.3,0.2l16-2.7
			C1208.5,573.8,1209.9,571.5,1211.3,569.2z"/>
		
			<linearGradient id="SVGID_42_" gradientUnits="userSpaceOnUse" x1="1205.0146" y1="537.4127" x2="1251.2284" y2="537.4127" gradientTransform="matrix(1 5.000000e-02 5.000000e-02 -1.05 -70.91 1069.34)">
			<stop  offset="1.000000e-02" style="stop-color:#9E503C"/>
			<stop  offset="1" style="stop-color:#B2856A"/>
		</linearGradient>
		<path class="st60" d="M1198.4,572.4c5.6-3.6,4.8-6.5,7.4-12.8c-3.1-1.2-8.2-4.7-11.5-4.5c-3.9,0.2-9.6,4.1-13.2,5.6
			c-4.1,1.7-9.6,3-13.2,5.6c-3.5,2.5-6.3,7.4-9.2,10.7c6,0.3,12,0.7,18.1,1c3.6,0.2,7.2,0.4,10.8,0.6
			C1191.4,578.8,1195.2,574.4,1198.4,572.4z"/>
		
			<linearGradient id="SVGID_43_" gradientUnits="userSpaceOnUse" x1="1205.0146" y1="528.7496" x2="1281.8147" y2="528.7496" gradientTransform="matrix(1 5.000000e-02 5.000000e-02 -1.05 -70.91 1069.34)">
			<stop  offset="1.000000e-02" style="stop-color:#8A3F29"/>
			<stop  offset="0.8" style="stop-color:#A56951"/>
		</linearGradient>
		<path class="st61" d="M1208.2,574.6c-3.5-1.3-7.3-1.3-10.7,0.1c-0.1,0-0.4,0.1-0.7,0.3c-1.9,1.3-3.8,2.6-5.7,3.8
			c5.3-0.2,10.8-1.5,16.2-2.5C1207.6,575.7,1207.8,575.2,1208.2,574.6z"/>
		
			<linearGradient id="SVGID_44_" gradientUnits="userSpaceOnUse" x1="1205.8547" y1="538.3784" x2="1281.8047" y2="538.3784" gradientTransform="matrix(1 5.000000e-02 5.000000e-02 -1.05 -70.91 1069.34)">
			<stop  offset="1.000000e-02" style="stop-color:#8A3F29"/>
			<stop  offset="0.8" style="stop-color:#A56951"/>
		</linearGradient>
		<path class="st62" d="M1208.8,573.5c0.8-1.5,1.6-2.9,2.5-4.3c-1.2-2.9-2.3-5.8-3.3-8.8l-2-0.7c-1.7,5.8-3.3,8.8,0.2,13
			C1207.2,573,1208,573.2,1208.8,573.5z"/>
		<path class="st59" d="M1205.4,560.2c-2.6-1.6-3.9-2.8-7-3.4c-2.6-0.5-5.4-0.5-8,0.1c-5.2,1-9.7,4.5-14.7,6.3
			c-0.4,0.1-0.3,0.8,0.1,0.8c4.4-0.5,7.8-3.5,11.9-5.1c3.2-1.3,6.7-0.1,9.9,0.9c2.8,0.9,4.8,0.8,7.6,1.1
			C1205.5,560.9,1205.6,560.4,1205.4,560.2z"/>
		
			<linearGradient id="SVGID_45_" gradientUnits="userSpaceOnUse" x1="1193.5527" y1="326.8636" x2="1233.553" y2="326.8636" gradientTransform="matrix(1 0 0 -1 -30.89 900)">
			<stop  offset="1.000000e-02" style="stop-color:#8A3F29"/>
			<stop  offset="1" style="stop-color:#A56951"/>
		</linearGradient>
		<path class="st63" d="M1200.4,569.1c-3.1,6.1-10,5.6-15.9,6.3c-7.3,0.7-14.5,0.9-21.8,0.8c-0.4,0,4.1,0.3,4.6,0.3
			c7,1.2,13.8,3.3,20.9,2.3c5.8-0.8,13.4-5.1,14.5-11.7C1202.8,566.8,1200.6,568.7,1200.4,569.1z"/>
		<path class="st64" d="M1211.3,569.2c-1.2-2.9-2.3-5.8-3.3-8.8l-8.9-3.5c0.6,0.7,1.2,1.4,1.6,2.2c2.6,4.4-1,8.4-3.4,11.7
			c-0.6,0.7-1.5,0.9-2.4,0.7c-8.2-1.9-18.4-1.6-26.3-5.5l-0.7,0.3l-9.2,10.7l32.3,1.8l0.3,0.2l16-2.7
			C1208.5,573.8,1209.9,571.5,1211.3,569.2z"/>
		
			<linearGradient id="SVGID_46_" gradientUnits="userSpaceOnUse" x1="347.9212" y1="368.7188" x2="727.4011" y2="750.5289" gradientTransform="matrix(1 0 0 -1 0 900)">
			<stop  offset="3.000000e-02" style="stop-color:#2EB691"/>
			<stop  offset="0.85" style="stop-color:#42D984"/>
		</linearGradient>
		<path class="st65" d="M217.7,327.3c0,0-7.3-88.4,74.7-122.9c35.2-14.8,50.2,6.1,50.2,6.1s24.6-27.7,55.4-24.5s59.5,34.7,59.5,34.7
			s64.6-18.3,85.1,7.1c0,0,10.3,9.7,4.1,23.2c0,0,88.2-25.2,97.4,37.9c0,0,52.3-6.3,61.5,37.5c0,0,74.3-22.7,104.3,24.6
			c0,0,69.2-1.8,87.5,23.7l-22.2,0.2l-643-5.8L217.7,327.3z"/>
		
			<linearGradient id="SVGID_47_" gradientUnits="userSpaceOnUse" x1="305.7961" y1="494.1007" x2="296.7561" y2="957.4007" gradientTransform="matrix(1 0 0 -1 0 900)">
			<stop  offset="0" style="stop-color:#907D61"/>
			<stop  offset="6.000000e-02" style="stop-color:#8B7660"/>
			<stop  offset="0.47" style="stop-color:#6E4F57"/>
			<stop  offset="0.69" style="stop-color:#634054"/>
		</linearGradient>
		<path class="st66" d="M484.3,376.5c0.4-1-2.8-2.6-5.5-6.5c-1.8-2.7-3-5.7-3.6-8.8c-2.4-9.3-11.6-20.5-14.7-24.7
			c-9.7-13.2-14.2-33-21.8-65.8c-4.3-18.6-7.5-37.4-9.5-56.4c-0.5-32.7,4-57.4,13.2-71.6c10-15.5,18.8-31.8,26.4-48.6
			c0,0,54.4,2.5,59.1,0s17.9-14.2,15.5-44.6l0.8-7.3l-14,3.9c0,0-4.3,27.2-22.2,29.3c-21.4,3-45.8-10.2-42.2-29.3h-15.5
			c0,0,4.8,56-18.7,67.7c-17.5,4.6-27.9-2.7-27.1-35.4l0.8-32.7h-27.9c0,0,1.6,34.8,0,36.9s-13.9,23.6-27.1-20.7
			c-11.1-31.2-4.8-16.2-4.8-16.2L330.4,46c0,0,6.8,34.4,29,55.9c14.7,20.7,15.1,55.3,4,67.5c-11.9,12.2-32.2,19-47.8-53.6
			c-10.4-48-13.1-69.8-13.1-69.8l-21.5-0.2c0,0,8.8,57.4,7.2,67.5c-2,11.4-2.8,46.4-49.8,31.6c-24.4-3.6-73.2-16.4-93.5-55.2
			c-7.6-32.9-6-45.6-6-45.6l-17.5-0.5c0,0,0.4,19,4,24.1c-10.9,0.8-21.7-1.6-31.2-6.9C76.2,51,68.9,34.1,67,29.1l-14-0.6
			c3.2,9,8,17.4,14.1,24.8c13.8,16.6,33.1,25.8,47.2,28c2.8,0.4,14,1.9,13.9,2.4c0,0.1-0.8,0.1-0.8,0.1s3.6,49.8,59.7,72.6
			c50.1,19.8,72,30,84.8,38s21.5,16.4,19.5,43.9c-2,21.9-0.8,44,3.6,65.6c5,25,14.3,48.9,27.5,70.7c43.1,1.4,70.8,1.6,88.5,1.4
			c35.6-0.4,55.8-2.2,66.5,0.4C477.5,376.3,483.8,377.9,484.3,376.5z"/>
		<path class="st67" d="M428.4,207.1c-13.4,8-24.9,18.8-33.8,31.6c-38.1,55.2-12.2,127.9-9.2,135.8l100.6,1.9
			c-7.1-10.4-13.5-21.2-19.3-32.4C440.2,293.5,431.2,244,428.4,207.1z"/>
		<path class="st67" d="M312.5,102.6c0,0,18.6,73.2,33.2,72.6C330.6,182.7,302.4,162.4,312.5,102.6z"/>
		<path class="st68" d="M416.8,295.1c-1.8,0.4-3.5,0.6-5.4,0.7c-1.8,0.1-3.6-0.2-5.4-0.8c-0.9-0.4-1.6-0.9-2.1-1.7
			c-0.5-0.8-0.8-1.7-0.8-2.6c0-1.8,0.5-3.7,1.3-5.3c1.5-3.3,3.5-6.3,6-9.1c2.4-2.8,5.2-5.2,8.3-7.1c1.6-1,3.4-1.6,5.3-1.8
			c1-0.1,2,0.1,2.9,0.4c0.4,0.2,0.9,0.5,1.3,0.8c0.4,0.3,0.7,0.6,1,1c1.2,1.5,2,3.2,2.4,5c0.2,0.9,0.4,1.8,0.6,2.7
			c0.1,0.9,0.3,1.8,0.3,2.7c0.3,7.3-0.6,14.6-2.7,21.5v0.1v0.1c-2,3.4-4.2,6.7-6.6,9.8c-2.5,3.1-5.3,5.9-8.5,8.3
			c-1.6,1.2-3.4,2.2-5.3,2.9c-1.9,0.8-4.1,0.9-6.1,0.3c-1.9-0.8-3.6-2.2-4.6-4c-1.1-1.7-1.9-3.5-2.5-5.4c-1.2-3.8-1.9-7.7-2.2-11.6
			c-0.3-3.9-0.4-7.9-0.2-11.8l1.1-23.5l-0.5,23.5c-0.2,3.9,0,7.8,0.4,11.7c0.4,3.9,1.2,7.7,2.4,11.4c0.6,1.8,1.4,3.6,2.4,5.2
			c0.9,1.6,2.4,2.9,4.1,3.6c1.8,0.5,3.7,0.4,5.4-0.3c1.8-0.7,3.5-1.6,5-2.8c3.1-2.4,5.8-5.1,8.2-8.2c2.4-3.1,4.6-6.3,6.5-9.6
			l-0.1,0.1c2.1-6.8,3.1-14,2.8-21.1c0-0.9-0.2-1.8-0.3-2.6s-0.3-1.7-0.6-2.6c-0.4-1.7-1.1-3.3-2.2-4.6c-0.3-0.3-0.6-0.6-0.9-0.9
			c-0.3-0.2-0.7-0.5-1-0.6c-0.8-0.3-1.6-0.4-2.4-0.4c-1.7,0.2-3.4,0.7-4.9,1.6c-3.1,1.8-5.8,4.1-8.2,6.8c-2.4,2.7-4.4,5.6-6,8.8
			c-0.8,1.6-1.3,3.3-1.4,5.1c0,0.9,0.2,1.7,0.7,2.5c0.5,0.7,1.2,1.3,2,1.6c1.7,0.7,3.4,1,5.2,0.9C413.3,295.6,415,295.5,416.8,295.1
			z"/>
		<path class="st69" d="M606.6-101.3c0,0,128.2-29.5,185.1,60.3c37,69.6,43.6,92.2-185.1,79.6C568-72.9,606.6-101.3,606.6-101.3z"/>
		
			<linearGradient id="SVGID_48_" gradientUnits="userSpaceOnUse" x1="807.7231" y1="1074.006" x2="620.6031" y2="817.0359" gradientTransform="matrix(1 0 0 -1 0 900)">
			<stop  offset="0.3" style="stop-color:#72E379"/>
			<stop  offset="0.87" style="stop-color:#57B479"/>
		</linearGradient>
		<path class="st70" d="M610-98.7c0,0,124.6-30,179.8,61.3c36,70.8,42.4,93.7-179.8,80.9C572.4-69.8,610-98.7,610-98.7z"/>
		<path class="st69" d="M60.8,26.6c-3.9,0-116-7.9-116-7.9s-69.6-14.5-29.6-50c10.1-4.9,18.8-12.3,25.3-21.5
			c8-11.6,5.8-17.3,10.9-28c16.1-33.9,70-45.5,70-45.5l0,0c0,0,73.1-15,127.6,14.4c6.1,3.3,9.1,5,11.4,8.1
			c25.2,33.2-53.1,130.4-53.1,130.4L60.8,26.6z"/>
		
			<linearGradient id="SVGID_49_" gradientUnits="userSpaceOnUse" x1="-47.9593" y1="854.4845" x2="133.2394" y2="1026.0938" gradientTransform="matrix(1 0 0 -1 0 900)">
			<stop  offset="0.23" style="stop-color:#2FAC76"/>
			<stop  offset="0.54" style="stop-color:#31AD79"/>
			<stop  offset="0.74" style="stop-color:#36B281"/>
			<stop  offset="0.88" style="stop-color:#3DB98E"/>
		</linearGradient>
		<path class="st71" d="M59.8,28.9c-3.7,0-112-7.9-112-7.9s-67.2-14.5-28.7-50.1c9.8-5,18.2-12.4,24.4-21.6
			c7.7-11.7,5.6-17.4,10.5-28.1c15.5-34,67.6-45.6,67.6-45.6l0,0c0,0,70.6-15,123.2,14.5c5.9,3.3,8.8,5.1,11,8.1
			c24.3,33.3-51.3,130.8-51.3,130.8H59.8z"/>
		<path class="st69" d="M66.8-63.1c0,0,63.8-53.2,130.7-74c73.1-31.3,169.8-101.1,287.1-68.8c90.6,30.2,158.5,71.9,198.6,149
			c19.5,44.8,22.6,99-126.6,91.7l-415.8,0.7C140.9,35.5-21.7,23.4,66.8-63.1z"/>
		
			<linearGradient id="SVGID_50_" gradientUnits="userSpaceOnUse" x1="274.4827" y1="788.468" x2="542.0427" y2="1148.0181" gradientTransform="matrix(1 0 0 -1 0 900)">
			<stop  offset="7.000000e-02" style="stop-color:#39A57E"/>
			<stop  offset="0.77" style="stop-color:#72E379"/>
		</linearGradient>
		<path class="st72" d="M60.7-55.1c0,0,64.6-54,132.2-75.2c73.9-31.8,171.8-102.8,290.5-69.9c91.6,30.7,160.3,73.1,200.9,151.5
			c19.8,45.5,22.9,100.7-128,93.2l-420.6,0.7C135.7,45.2-28.8,32.8,60.7-55.1z"/>
		<path class="st73" d="M544.1,46.9c0,0,2,31.5-12,43.8c-4.1,4.3-7.5,4.2-12.5,4.3c8.9-3.6,15.4-11.5,17.4-20.9
			c2.1-9.3,3.3-18.7,3.6-28.2h3.4V46.9z"/>
		<path class="st67" d="M405.3,45.6c-0.6,5.5-0.8,24.8-0.6,28.5c1,16.4,2.1,35.1,12.1,39.9c2.4,1.1,5,1.4,7.5,1l3.8-0.4
			c-4.7,6.1-8.9,6.6-10.2,6.7c-8.3,0.4-18-11-20.4-29.4c-1.5-8.7-2.1-17.6-1.7-26.4c0.4-7.3,1.8-19.8,1.8-19.8L405.3,45.6
			L405.3,45.6z"/>
		
			<linearGradient id="SVGID_51_" gradientUnits="userSpaceOnUse" x1="-7605.8223" y1="473.9551" x2="-7011.1924" y2="657.9551" gradientTransform="matrix(-1 0 0 -1 -7370.46 900)">
			<stop  offset="3.000000e-02" style="stop-color:#219F68"/>
			<stop  offset="0.84" style="stop-color:#3FE28C"/>
			<stop  offset="0.94" style="stop-color:#43EA90"/>
		</linearGradient>
		<path class="st74" d="M247.3,364.8c0,0,68.7-48.7-47.8-68.4c0,0,38.8-35.5,0-65.8c0,0-28.4-25-77.6-9.2c0,0-56.8-52.6-135.9-19.7
			c0,0-70.2-19.7-116.5,4s-29.9,72.2-29.9,72.2s-76.2-22.2-109,5.4c0,0-73.2-1.3-80.6,34.2c0,0-116.5-19.7-115,28.9
			c0,0-95.6-5.3-74.7,25l35.8,14.5L230.9,374L247.3,364.8z"/>
		
			<linearGradient id="SVGID_52_" gradientUnits="userSpaceOnUse" x1="583.3096" y1="-283.3086" x2="2286.5195" y2="109.8215" gradientTransform="matrix(1 0 0 -1 0 900)">
			<stop  offset="2.000000e-02" style="stop-color:#024E20"/>
			<stop  offset="0.82" style="stop-color:#024E20"/>
			<stop  offset="0.94" style="stop-color:#024E20"/>
		</linearGradient>
		<path class="st75" d="M0.5,828.7c0,0,432-71.5,1208.5,47.7s1696.8,27.3,1804.9,0v235H0.5V828.7z"/>
		<path class="st76" d="M1144.7,887.3c0,0,65.7-9,63.8-33.7S1144.7,887.3,1144.7,887.3z"/>
		<path class="st76" d="M1132,897.3c0,0,36.5-61.8,63.8-77.6s-47.4-17-63.8,47.7V897.3z"/>
		<path class="st76" d="M1129.2,888.9c0,0,18.4-48.1-50.2-50.6C1048,837.2,1129.2,888.9,1129.2,888.9z"/>
		<path class="st76" d="M836.1,842.1c0,0,25.5-15.8,74.8-19.7s-52.9-20.8-89.4,19.7C821.5,842.1,805.1,860.1,836.1,842.1z"/>
		<path class="st76" d="M766.8,844.4c0,0,74.8-50.6,118.6-64.1s-42-14.6-100.3,27.5C785,807.8,755.8,833.2,766.8,844.4z"/>
		<path class="st76" d="M744.9,844.4c0,0,49.7-82.1,72.3-92.2s-35.8-15.7-72.3,51.2C744.9,803.3,730.3,838.8,744.9,844.4z"/>
		<path class="st76" d="M718.4,844.4c0,0,19.2-75.3,37.4-86.6S686.5,770.2,718.4,844.4z"/>
		<path class="st76" d="M707.5,844.4c0,0,0.9-62.8-38.3-72.4S692,812.9,707.5,844.4z"/>
		<path class="st76" d="M694.7,844.4c0,0-24.6-71.9-84.8-73.6S657.3,797.2,694.7,844.4z"/>
		<path class="st76" d="M689.5,844.4c0,0-32.2-29.2-87-27S676.2,835.4,689.5,844.4z"/>
		
			<linearGradient id="SVGID_53_" gradientUnits="userSpaceOnUse" x1="-5410.9204" y1="-281.1071" x2="-3707.7107" y2="112.0329" gradientTransform="matrix(-1 0 0 -1 -5979.9102 900)">
			<stop  offset="2.000000e-02" style="stop-color:#024E20"/>
			<stop  offset="0.82" style="stop-color:#024E20"/>
			<stop  offset="0.94" style="stop-color:#024E20"/>
		</linearGradient>
		<path class="st77" d="M13.8,826.5c0,0-432-71.5-1208.5,47.7s-1696.8,27.3-1804.9,0v235H13.8V826.5z"/>
		<path class="st76" d="M-2.8,843.8c0,0-19.2-75.3-37.4-86.6S29.1,769.6-2.8,843.8z"/>
		<path class="st76" d="M8.2,843.8c0,0-0.9-62.8,38.3-72.4S23.7,812.4,8.2,843.8z"/>
		<path class="st76" d="M20.9,843.8c0,0,24.6-71.9,84.8-73.6S58.3,796.6,20.9,843.8z"/>
		<path class="st76" d="M26.1,843.8c0,0,32.2-29.2,87-27S39.5,834.8,26.1,843.8z"/>
		<path class="st78" d="M-183.6,982.5l11-63.7c0,0,1185.5-39.4,1359.5-27.3c0,0-9.4-31.8-26.7-36.4c0,0,39.2-4.5,42.3,36.4
			c0,0,0-60.6-25.1-71.2c0,0,61.1,9.1,56.4,71.2l285.3,12.1c0,0-17.3-16.7-28.3-21.2c0,0,31.3-10.6,48.6,9.1c0,0-20.4-47-32.9-53
			c0,0,34.9-3,44.1,45.5c0,0,31.2-25.8,40.6-22c0,0-34.5,40.2-28.2,41.7c0,0,1132.4,31,1344,41.6v80.9L-183.6,982.5z"/>
		<path class="st78" d="M-1928.1,962.6l11-63.7c0,0,1185.5-39.4,1359.5-27.3c0,0-9.4-31.8-26.7-36.4c0,0,39.2-4.5,42.3,36.4
			c0,0,0-60.6-25.1-71.2c0,0,61.1,9.1,56.4,71.2l285.3,12.1c0,0-17.2-16.7-28.2-21.2c0,0,31.3-10.6,48.6,9.1c0,0-20.4-47-32.9-53
			c0,0,34.9-3,44.1,45.5c0,0,31.2-25.8,40.6-22c0,0-34.5,40.2-28.2,41.7c0,0,1132.4,31,1344,41.6v80.9L-1928.1,962.6z"/>
	</g>
</g>
</svg>
