<?xml version="1.0" encoding="utf-8"?>
<!-- Generator: Adobe Illustrator 25.2.3, SVG Export Plug-In . SVG Version: 6.00 Build 0)  -->
<svg version="1.1" id="Layer_1" xmlns="http://www.w3.org/2000/svg" xmlns:xlink="http://www.w3.org/1999/xlink" x="0px" y="0px"
	 viewBox="0 0 1600 900" style="enable-background:new 0 0 1600 900;" xml:space="preserve">
<style type="text/css">
	.st0{clip-path:url(#SVGID_2_);}
	.st1{fill-rule:evenodd;clip-rule:evenodd;fill:#D6482A;}
	.st2{clip-path:url(#SVGID_4_);}
	.st3{fill:#26877D;}
	.st4{fill:url(#SVGID_5_);}
	.st5{fill:#C08872;}
	.st6{fill:#CD846B;}
	.st7{fill:#754E33;}
	.st8{fill:#6DC294;}
	.st9{fill:#62C19D;}
	.st10{fill:#4BACAF;}
	.st11{fill:#2CB78B;}
	.st12{fill:#65C3AF;}
	.st13{fill:url(#SVGID_6_);}
	.st14{fill:url(#SVGID_7_);}
	.st15{fill:url(#SVGID_8_);}
	.st16{fill:#104925;}
	.st17{fill:url(#SVGID_9_);}
	.st18{fill:#B48274;}
	.st19{fill:#C98A72;}
	.st20{fill:#50B477;}
	.st21{fill:#7DC792;}
	.st22{fill:url(#SVGID_10_);}
	.st23{fill:url(#SVGID_11_);}
	.st24{fill:url(#SVGID_12_);}
	.st25{fill:#3DB88D;}
	.st26{fill:url(#SVGID_13_);}
	.st27{fill:url(#SVGID_14_);}
	.st28{fill:url(#SVGID_15_);}
	.st29{fill-rule:evenodd;clip-rule:evenodd;fill:url(#SVGID_16_);}
	.st30{fill-rule:evenodd;clip-rule:evenodd;fill:url(#SVGID_17_);}
	.st31{fill-rule:evenodd;clip-rule:evenodd;fill:url(#SVGID_18_);}
	.st32{fill-rule:evenodd;clip-rule:evenodd;fill:url(#SVGID_19_);}
	.st33{fill-rule:evenodd;clip-rule:evenodd;fill:url(#SVGID_20_);}
	.st34{fill-rule:evenodd;clip-rule:evenodd;fill:url(#SVGID_21_);}
	.st35{fill-rule:evenodd;clip-rule:evenodd;fill:url(#SVGID_22_);}
	.st36{fill-rule:evenodd;clip-rule:evenodd;fill:url(#SVGID_23_);}
	.st37{fill-rule:evenodd;clip-rule:evenodd;fill:url(#SVGID_24_);}
	.st38{fill-rule:evenodd;clip-rule:evenodd;fill:url(#SVGID_25_);}
	.st39{fill-rule:evenodd;clip-rule:evenodd;fill:url(#SVGID_26_);}
	.st40{fill-rule:evenodd;clip-rule:evenodd;fill:url(#SVGID_27_);}
	.st41{fill-rule:evenodd;clip-rule:evenodd;fill:url(#SVGID_28_);}
	.st42{fill-rule:evenodd;clip-rule:evenodd;fill:url(#SVGID_29_);}
	.st43{fill-rule:evenodd;clip-rule:evenodd;fill:url(#SVGID_30_);}
	.st44{fill-rule:evenodd;clip-rule:evenodd;fill:url(#SVGID_31_);}
	.st45{fill-rule:evenodd;clip-rule:evenodd;fill:url(#SVGID_32_);}
	.st46{fill-rule:evenodd;clip-rule:evenodd;fill:url(#SVGID_33_);}
	.st47{fill-rule:evenodd;clip-rule:evenodd;fill:url(#SVGID_34_);}
	.st48{fill-rule:evenodd;clip-rule:evenodd;fill:url(#SVGID_35_);}
	.st49{fill-rule:evenodd;clip-rule:evenodd;fill:url(#SVGID_36_);}
	.st50{fill-rule:evenodd;clip-rule:evenodd;fill:url(#SVGID_37_);}
	.st51{fill-rule:evenodd;clip-rule:evenodd;fill:url(#SVGID_38_);}
	.st52{fill-rule:evenodd;clip-rule:evenodd;fill:url(#SVGID_39_);}
	.st53{fill:url(#SVGID_40_);}
	.st54{fill:url(#SVGID_41_);}
	.st55{fill:url(#SVGID_42_);}
	.st56{fill-rule:evenodd;clip-rule:evenodd;fill:url(#SVGID_43_);}
	.st57{fill-rule:evenodd;clip-rule:evenodd;fill:url(#SVGID_44_);}
	.st58{fill-rule:evenodd;clip-rule:evenodd;fill:url(#SVGID_45_);}
	.st59{fill:url(#SVGID_46_);}
	.st60{fill:url(#SVGID_47_);}
	.st61{fill:url(#SVGID_48_);}
	.st62{opacity:0.34;fill:url(#SVGID_49_);enable-background:new    ;}
	.st63{fill:url(#SVGID_50_);}
	.st64{clip-path:url(#SVGID_52_);}
	.st65{fill:url(#SVGID_53_);}
	.st66{fill:#031C0F;}
	.st67{fill:url(#SVGID_54_);}
	.st68{fill:url(#SVGID_55_);}
	.st69{fill:url(#SVGID_56_);}
	.st70{fill:#196516;}
	.st71{fill:none;}
	.st72{fill-rule:evenodd;clip-rule:evenodd;fill:#004F17;}
	.st73{fill-rule:evenodd;clip-rule:evenodd;fill:#003A17;}
	.st74{fill:#3D2B01;}
	.st75{fill:#4E3800;}
	.st76{fill:#466421;}
	.st77{fill:#448430;}
	.st78{fill:#004F17;}
	.st79{fill:#072918;}
	.st80{fill:#0B2F1F;}
</style>
<g>
	<defs>
		<rect id="SVGID_1_" x="4860" y="-920" width="1600" height="900"/>
	</defs>
	<clipPath id="SVGID_2_">
		<use xlink:href="#SVGID_1_"  style="overflow:visible;"/>
	</clipPath>
	<g class="st0">
		<path class="st1" d="M1534.3,354.6c0,0,1499,98.1,3250.5,98.1s3120.9-93.2,3120.9-93.2v-76.7L7172.5,219H2202.1l-667.8,29.5
			L1534.3,354.6z"/>
	</g>
</g>
<g>
	<defs>
		<rect id="SVGID_3_" width="1600" height="900"/>
	</defs>
	<clipPath id="SVGID_4_">
		<use xlink:href="#SVGID_3_"  style="overflow:visible;"/>
	</clipPath>
	<g class="st2">
		<path class="st3" d="M1964.8,675.1c4.2-762-211.8-856.8-459.7-761.3C1559.1-271.1-284.6-441-291-341.5
			c-3.8,59.3-7.5,118.5-9.1,177.9c-1.6,60.8-0.8,121.7-0.8,182.6v206.5c25.4,124.3,15.1,360.4,14,485.6
			C-286.8,711.1,2192.2,616.6,1964.8,675.1z"/>
		
			<linearGradient id="SVGID_5_" gradientUnits="userSpaceOnUse" x1="180.233" y1="152.0697" x2="168.473" y2="754.4297" gradientTransform="matrix(1 0 0 -1 0 900)">
			<stop  offset="0" style="stop-color:#8C7D62"/>
			<stop  offset="0.29" style="stop-color:#817C63"/>
			<stop  offset="0.78" style="stop-color:#727B64"/>
		</linearGradient>
		<path class="st4" d="M368.9,710.5c0.4-1.3-3-3.5-5.9-8.5c-1.9-3.6-3.2-7.5-3.9-11.5c-2.5-12.1-12.4-26.8-15.6-32.2
			c-10.3-17.2-15.2-43.1-23.3-85.9c-3.5-18.6-7.5-43.6-10.2-73.6c-0.6-42.7,4.2-75,14.1-93.6c10.7-20.5,20.1-41.7,28.2-63.5
			c0,0,58,3.2,62.9,0s19-18.6,16.6-58.2l0.8-9.5l-14.9,5.1c0,0-4.6,35.6-23.7,38.3c-22.8,3.9-48.8-13.3-45-38.3h-16.5
			c0,0,5.1,73-19.9,88.4c-18.7,6.1-29.7-3.5-28.9-46.3l0.9-42.8l-29.7,0.1c0,0,1.7,45.4,0,48.2s-14.9,30.9-28.9-27
			c-11.9-40.7-5.1-21.1-5.1-21.1l-16.1,0.5c0,0,7.2,44.9,31,73c15.7,27,16.1,72.2,4.2,88.1c-12.7,16-34.4,24.8-50.9-70
			c-11-62.8-14-91.2-14-91.2l-22.9-0.3c0,0,9.3,75,7.6,88.2c-2.1,14.9-3,60.6-53,41.3c-26-4.7-78-21.5-99.7-72.2
			c-8.1-43-6.4-59.5-6.4-59.5l-18.8-0.5c0,0,0.4,24.8,4.2,31.5c-11.8,1-23.6-2.2-33.3-9c-19.2-13-27-35-29.1-41.6l-15-0.8
			c3.3,11.5,8.4,22.4,15.1,32.4c14.8,21.7,35.3,33.6,50.3,36.5c3,0.6,14.9,2.5,14.8,3.1c0,0.2-0.8,0.2-0.8,0.2s3.8,65,63.6,94.8
			c53.5,25.9,76.8,39.1,90.4,49.6s22.9,21.5,20.8,57.3c-2.1,28.6-0.8,57.4,3.8,85.7c5.2,32,15,63.1,29.3,92.3
			c45.9,1.9,75.4,2,94.3,1.8c37.9-0.5,59.5-2.9,70.9,0.5C361.6,710.3,368.3,712.3,368.9,710.5z"/>
		<path class="st5" d="M309.3,489.4c-14.8,11.1-27.1,25.2-36,41.3c-40.6,72.1-13,167-9.8,177.3l107.2,2.5
			c-7.6-13.7-14.5-27.8-20.6-42.3C321.8,602.1,312.3,537.5,309.3,489.4z"/>
		<path class="st6" d="M185.7,352.9c0,0,19.9,95.5,35.4,94.8C205,457.5,175,431,185.7,352.9z"/>
		<path class="st7" d="M296.9,604.3c-2.1,0.6-4.3,0.9-6.5,0.8c-2.2,0.1-4.4-0.6-6.1-2c-0.8-0.8-1.4-1.8-1.6-2.9
			c-0.2-1.1-0.3-2.2-0.1-3.3c0.3-2.2,0.9-4.3,1.7-6.3c1.6-4.1,3.8-7.9,6.5-11.5c1.3-1.8,2.8-3.4,4.3-5c1.5-1.6,3.3-3,5.1-4.1
			c1-0.6,2-1,3.1-1.3c1.1-0.3,2.3-0.3,3.4,0c1.1,0.4,2,1.1,2.7,2c0.7,0.9,1.3,1.8,1.7,2.9c1.5,4.2,2.3,8.6,2.4,13
			c0.1,8.8-0.9,17.6-3,26.1l0,0l0,0c-2.1,4.4-4.4,8.7-7.1,12.8c-2.6,4.1-5.8,7.9-9.5,11.2c-1.8,1.7-4,3-6.3,3.8
			c-1.2,0.4-2.5,0.5-3.8,0.3c-1.2-0.3-2.4-0.9-3.3-1.8c-1.7-1.8-3-3.9-3.9-6.3c-0.9-2.3-1.6-4.7-2.1-7c-1.9-9.6-2.5-19.4-2-29.2
			l1-29.3l-0.6,29.3c-0.4,9.7,0,19.5,2.1,29.1c0.5,2.4,1.2,4.7,2.1,7c0.8,2.3,2.1,4.3,3.8,6.1c0.8,0.8,1.9,1.4,3,1.7
			c1.2,0.2,2.4,0.1,3.5-0.3c2.3-0.8,4.3-2.1,6.1-3.7c3.6-3.3,6.7-7,9.3-11.1c2.6-4.1,5-8.3,7.1-12.7v0.1c2.1-8.5,3.2-17.2,3.1-25.9
			c0-4.4-0.8-8.7-2.3-12.8c-0.4-1-0.9-1.9-1.6-2.8c-0.6-0.8-1.5-1.5-2.5-1.8c-1-0.3-2.1-0.3-3.1,0c-1,0.3-2,0.7-3,1.3
			c-1.9,1.1-3.6,2.5-5.1,4c-1.5,1.5-3,3.2-4.3,4.9c-2.6,3.5-4.8,7.3-6.5,11.3c-0.9,2-1.5,4.1-1.8,6.3c-0.1,1.1-0.1,2.2,0.1,3.2
			c0.2,1.1,0.8,2,1.5,2.8c1.6,1.5,3.9,2,6,2.1C292.5,605.1,294.7,604.8,296.9,604.3z"/>
		<path class="st8" d="M-112.5,65.9c4.6-41.2,16.8-103.4,53.3-154.2c98.7-137.3,287.8-73.4,348.3-52.9
			C438.4-90.5,535.2,30.8,582.5,101.4l23.5,22.7c-123.1,27.7-249,40.7-375.2,38.7c-109.9-1.9-219.3-15-326.5-39.4L-112.5,65.9z"/>
		<path class="st9" d="M-111.2,63.7c4.6-39.7,16.6-99.5,52.8-148.5c97.7-132.1,284.8-70.6,344.6-50.9
			C433.9-87,529.7,29.8,576.6,97.8l23.3,21.8c-121.9,26.7-246.5,39.2-371.3,37.2C119.9,155.1,11.7,142.4-94.5,119L-111.2,63.7z"/>
		<path class="st10" d="M502.8,90.1c0,0,132.8-39.1,191.6,80c38.3,92.4,45.2,122.4-191.6,105.6C462.8,127.7,502.8,90.1,502.8,90.1z"
			/>
		<path class="st11" d="M18.8,85.8c-2.4-4-5.5-6.3-11.7-10.6c-56-38.5-131.4-18.9-131.4-18.9s-55.5,15.1-72.1,59.5
			c-5.2,14-3,21.5-11.2,36.7c-6.1,11.5-15.1,21.2-26,28.2c-41.1,46.5,30.6,65.5,30.6,65.5s115.4,10.3,119.4,10.3h47.8
			C-35.9,256.7,44.8,129.4,18.8,85.8z"/>
		<path class="st12" d="M582,155.3C538.8,52.9,465.5-2.5,367.9-42.6C241.3-85.5,137,7.2,58.2,48.7C-13.9,76.4-82.7,147-82.7,147
			C-178.2,261.8-2.8,277.9-2.8,277.9l448.4-0.9C606.5,286.7,603.1,214.7,582,155.3z"/>
		<path class="st6" d="M432.6,280.1c0,0,2.1,41.2-12.8,57.2c-4.5,5.6-8,5.5-13.3,5.6c0,0,14.9-6.3,18.5-27.3
			c2.2-12.2,3.5-24.5,3.9-36.8h3.7L432.6,280.1z"/>
		<path class="st6" d="M284.6,278.5c-0.6,7.2-0.9,32.3-0.6,37.2c1,21.4,2.2,45.8,12.9,52.1c2.4,1.4,5.3,1.9,8,1.3l4-0.6
			c-5,8-9.4,8.7-10.9,8.7c-8.9,0.5-19.2-14.4-21.7-38.4c-1.6-11.4-2.2-23-1.8-34.5c0.4-9.6,1.9-25.8,1.9-25.8L284.6,278.5
			L284.6,278.5z"/>
		
			<linearGradient id="SVGID_6_" gradientUnits="userSpaceOnUse" x1="568.074" y1="275.1293" x2="598.894" y2="441.4292" gradientTransform="matrix(1 0 0 -1 0 900)">
			<stop  offset="0.18" style="stop-color:#45AC66"/>
			<stop  offset="0.25" style="stop-color:#52B26F"/>
			<stop  offset="0.4" style="stop-color:#6ABD7E"/>
			<stop  offset="0.54" style="stop-color:#78C488"/>
			<stop  offset="0.65" style="stop-color:#7DC68B"/>
		</linearGradient>
		<path class="st13" d="M560.6,609.7c0,0-6.9-21.1-25.4-26.1c0,0,16.1-10.2,33.4,13.1l-26.5-38.1c0,0,26.5,1.1,35.8,25.6
			c41.5-29.4,41.5-18.1,41.5-18.1c-3.8,4.4-7.7,9-11.5,13.8c-5.8,7.2-11.2,14.3-16.1,21.3c-12.7,8.8,0,8.6,0,8.6L560.6,609.7z"/>
		
			<linearGradient id="SVGID_7_" gradientUnits="userSpaceOnUse" x1="966.8054" y1="286.229" x2="988.8455" y2="405.169" gradientTransform="matrix(1 0 0 -1 0 900)">
			<stop  offset="0.18" style="stop-color:#45AC66"/>
			<stop  offset="0.25" style="stop-color:#52B26F"/>
			<stop  offset="0.4" style="stop-color:#6ABD7E"/>
			<stop  offset="0.54" style="stop-color:#78C488"/>
			<stop  offset="0.65" style="stop-color:#7DC68B"/>
		</linearGradient>
		<path class="st14" d="M974.7,605.3c0,0-62.3-25-41.5-25.6s53,25.6,53,25.6s-37.7-24.9-28.7-39.9s37.9,39.9,37.9,39.9
			s-2.3-25,15-25.6c17.3-0.5-9.2,25.6-9.2,25.6"/>
		
			<linearGradient id="SVGID_8_" gradientUnits="userSpaceOnUse" x1="1195.4113" y1="300.2916" x2="1224.2412" y2="455.8916" gradientTransform="matrix(1 0 0 -1 0 900)">
			<stop  offset="0.18" style="stop-color:#45AC66"/>
			<stop  offset="0.25" style="stop-color:#52B26F"/>
			<stop  offset="0.4" style="stop-color:#6ABD7E"/>
			<stop  offset="0.54" style="stop-color:#78C488"/>
			<stop  offset="0.65" style="stop-color:#7DC68B"/>
		</linearGradient>
		<path class="st15" d="M1203,588.2c-3.4-2.3-64.6-27.4-45-36.2s54.2,36.2,54.2,36.2s-24.2-33.6-19.6-51.2s27.7,51.2,27.7,51.2
			s1.2-38.9,25.4-42.5s-13.8,42.5-13.8,42.5L1203,588.2z"/>
		<path class="st16" d="M-293.5,408.1c2,63.2,1.5,126.6-2.5,190c-3.6,57.1-9.1,113.9-14.5,170.7h858c0,0-115.8-168.7-246.5-75
			c0,0-67.2-196.8-227.9-89C147.8,501.7-31.5,337.7-98.7,460.7C-127.4,404-246.6,347.9-293.5,408.1z"/>
		
			<linearGradient id="SVGID_9_" gradientUnits="userSpaceOnUse" x1="575.7195" y1="223.4002" x2="562.2095" y2="915.3802" gradientTransform="matrix(1 0 0 -1 0 900)">
			<stop  offset="0" style="stop-color:#877E62"/>
			<stop  offset="0.28" style="stop-color:#7C7C63"/>
			<stop  offset="0.76" style="stop-color:#6D7A65"/>
		</linearGradient>
		<path class="st17" d="M777.6,633.9c0.5-1.5-3.2-4-6.3-9.8c-2.1-4.2-3.5-8.7-4.2-13.3c-2.7-14-13.3-30.8-16.8-37.1
			c-11.1-19.8-16.3-49.5-25-98.8c-3.8-21.4-8-50.1-10.9-84.7c-0.6-49.2,4.5-86.2,15.1-107.6c11.5-23.7,21.6-48.1,30.2-73
			c0,0,62.3,3.7,67.6,0s20.5-21.4,17.8-67l0.9-11l-16,5.9c0,0-4.9,40.9-25.4,44.1c-24.5,4.4-52.4-15.3-48.3-44.1h-17.8
			c0,0,5.5,84-21.4,101.7c-20,7-31.9-4.1-31-53.2l0.9-49.2l-31.9,0.1c0,0,1.8,52.3,0,55.4s-16,35.5-31-31.1
			c-12.8-46.9-5.5-24.3-5.5-24.3l-17.3,0.5c0,0,7.7,51.7,33.3,84c16.9,31,17.3,83,4.5,101.4c-13.7,18.4-36.9,28.5-54.7-80.5
			c-11.8-72.2-15-104.9-15-104.9l-24.6-0.4c0,0,10,86.2,8.2,101.4c-2.3,17.1-3.2,69.7-57,47.5c-27.9-5.4-83.8-24.8-107.1-83
			c-8.7-49.4-6.8-68.4-6.8-68.4l-20-0.7c0,0,0.5,28.6,4.5,36.2c-6.4,0.6-20.6,0.7-35.8-10.3c-20.6-15-29-40.3-31.2-47.8l-16.1-0.9
			c3.5,13.2,9,25.7,16.2,37.3c15.9,24.9,37.9,38.7,54.1,42c3.2,0.7,16,2.9,15.9,3.6c0,0.2-0.9,0.2-0.9,0.2s4.1,74.8,68.4,109
			c57.4,29.8,82.5,45,97.1,57s24.6,24.7,22.3,65.9c-2.3,32.9-0.9,65.9,4.1,98.5c7.4,47.9,21.2,83.9,31.4,106.1
			c49.3,2.1,81,2.3,101.3,2.1c40.8-0.5,64-3.3,76.1,0.6C769.8,633.7,777,636,777.6,633.9z"/>
		<path class="st18" d="M713.6,379.5c-12.6,10-26.9,25.1-38.7,47.5C631.3,510,661,619.2,664.3,631l115.1,2.9
			c-7.6-14.6-15.1-30.8-22.2-48.6C727.1,509.2,716.8,434.9,713.6,379.5z"/>
		<path class="st19" d="M580.8,222.5c0,0,21.3,109.9,38.1,109.1C601.6,342.9,569.3,312.4,580.8,222.5z"/>
		<path class="st7" d="M700.3,511.7c-2.4,0.7-4.8,1-7.3,0.9c-1.2,0-2.5-0.3-3.6-0.7c-1.2-0.4-2.2-1.1-3-2.1c-0.8-1-1.2-2.2-1.4-3.4
			c-0.2-1.2-0.2-2.5,0-3.7c0.4-2.5,1-4.9,2-7.1c1.8-4.6,4.1-9,7-13c1.4-2,3-4,4.7-5.8c1.7-1.8,3.6-3.4,5.7-4.8
			c1.1-0.7,2.2-1.1,3.5-1.4c1.3-0.3,2.6-0.1,3.7,0.5c1.1,0.6,2,1.6,2.7,2.7c0.7,1.1,1.2,2.2,1.6,3.4c0.8,2.4,1.4,4.8,1.7,7.3
			c0.3,2.5,0.5,4.9,0.6,7.4c0.1,9.9-1,19.8-3.2,29.4v0.1c-2.2,5.1-4.8,10-7.7,14.8c-2.8,4.8-6.3,9.1-10.3,13c-2,2-4.5,3.5-7.2,4.3
			c-1.4,0.4-2.9,0.4-4.2-0.1c-1.3-0.5-2.5-1.4-3.4-2.5c-1.7-2.2-3-4.7-3.8-7.4c-0.9-2.6-1.5-5.3-2-8c-1.9-10.9-2.6-22-2-33.1l1-33.2
			l-0.7,33.2c-0.6,11,0.1,22.1,2,33c0.5,2.7,1.2,5.4,2.1,8c0.8,2.6,2.1,5.1,3.8,7.2c0.8,1.1,1.9,1.9,3.2,2.4c1.3,0.4,2.6,0.4,3.9,0
			c2.6-0.9,5-2.3,6.9-4.2c4-3.9,7.4-8.2,10.2-13c2.9-4.7,5.4-9.6,7.7-14.6v0.1c2.3-9.6,3.4-19.4,3.3-29.3c0-2.5-0.2-4.9-0.5-7.3
			c-0.3-2.4-0.8-4.8-1.6-7.2c-0.4-1.2-0.9-2.3-1.5-3.3c-0.6-1-1.5-1.9-2.5-2.5c-1.1-0.5-2.3-0.7-3.5-0.5c-1.2,0.3-2.3,0.7-3.3,1.4
			c-2.1,1.3-4,2.9-5.6,4.7c-1.7,1.8-3.2,3.7-4.7,5.7c-2.8,4-5.2,8.4-7,12.9c-0.9,2.3-1.6,4.6-2,7.1c-0.2,1.2-0.2,2.4,0,3.7
			c0.2,1.2,0.6,2.4,1.3,3.4c0.8,1,1.8,1.7,2.9,2.1c1.2,0.4,2.4,0.7,3.6,0.7C695.4,512.7,697.9,512.4,700.3,511.7z"/>
		<path class="st8" d="M811.8-281.9c-63.4-0.8-126.8-1.7-190.2-2.7c-100.7-1.5-201.3-2.2-302-3c-0.6,0.9-1.2,1.8-1.8,2.6
			c-39.3,58.4-52.3,130-57.3,177.4l18.1,66.1C393.5-13.5,511.2,1.7,629.4,3.9c135.7,2.3,271.1-12.7,403-44.5l-25.3-26.1
			C970.3-125.5,905.6-214.9,811.8-281.9z"/>
		<path class="st20" d="M921.5-79.7c0,0,142.6-45,205.9,92c41.2,106.3,48.5,140.8-205.9,121.5C878.5-36.4,921.5-79.7,921.5-79.7z"/>
		<path class="st11" d="M291.6,111.8c-4.3,0-128.3-11.8-128.3-11.8s-77-21.8-32.8-75.3c11.9-8.3,21.5-19.4,27.9-32.5
			c8.8-17.5,6.4-26.1,12.1-42.3c17.8-51.1,77.5-68.5,77.5-68.5l0,0c0,0,80.9-22.5,141.1,21.7c6.7,4.9,10,7.6,12.6,12.2
			c27.8,50.1-58.7,196.5-58.7,196.5L291.6,111.8z"/>
		<path class="st21" d="M292.5-14.3c0,0,73.9-81.2,151.4-113c84.6-47.7,196.7-154.4,332.6-105c104.9,46.1,183.6,109.8,230.1,227.5
			c22.6,68.4,26.2,151.2-146.6,140l-481.6,1C378.4,136.2,190,117.7,292.5-14.3z"/>
		<path class="st6" d="M846.1,138.9c0,0,2.3,47.4-13.7,65.8c-4.8,6.4-8.6,6.3-14.3,6.4c0,0,16-7.3,19.9-31.4
			c2.4-14,3.7-28.1,4.2-42.3h3.9L846.1,138.9z"/>
		<path class="st6" d="M687.1,136.9c-0.6,8.3-0.9,37.2-0.7,42.8c1.1,24.6,2.4,52.7,13.8,59.9c2.6,1.6,5.7,2.1,8.6,1.5l4.3-0.7
			c-5.3,9.2-10.1,10-11.7,10.1c-9.5,0.6-20.6-16.5-23.3-44.2c-1.8-13.2-2.4-26.4-1.9-39.7c0.4-11,2-29.7,2-29.7H687.1L687.1,136.9z"
			/>
		<path class="st21" d="M274,106.9c0,0,45.3,133.1,126.5,25.4c0,0,24.8,84.2,118.5,16.8c0,0,86.7,55.5,133.3-9.8
			c0,0,14.4,148.2,107.7,8.4c0,0,69.7,67.9,123.6-10.3c0,0-35.4,64.8,33.6,28.8c0,0,58.9,19.7,58.2-42.5c0,0,105-75.2-18-60.8
			c0,0-43.5-106.1-138.8,8.7c0,0-11-22.3-42-8.3c0,0-6.7-116.8-61.2-19.6c0,0-16.6,12.6-45.8,3.3c0,0-29.5-56.8-52.3,18.3
			c0,0-127.3-98.8-130.1-96.2S437.1,5.9,430,25.3S274,106.9,274,106.9z"/>
		<path class="st11" d="M441.3,176c0,0-48.1-127.2-153.5,10.4c0,0-12.2-26.8-46.4-9.9c0,0-7.4-140-67.7-23.5c0,0-18.3,15.1-50.7,3.9
			c0,0-32.6-68.1-57.9,21.9c0,0-140.8-118.4-143.9-115.3s-55.5,44-63.4,67.2c-5.1,15.1-76,51.7-125.3,75.6
			c0.5,32.4,1.7,64.8,3.6,97.2c22.7,12.8,52.6,8,89.1-44.5c0,0,27.5,101,131.1,20.2c0,0,96,66.5,147.4-11.8c0,0,15.9,177.6,119.2,10
			c0,0,77.1,81.4,136.7-12.4c0,0-39.2,77.6,37.2,34.6c0,0,65.1,23.6,64.4-50.9C461.2,248.9,577.4,158.7,441.3,176z"/>
		<path class="st11" d="M128.5,93.7c1.4,1.4,61.1,69.2,117.6,17.5c0,0,8.3-17.1-29.1-32.2c0,0,90-22.2,13.2-50.9
			c0,0,18.7-11.6,4.9-22c0,0,108,19.2,49.1-41.1c0,0,16.3-1.4,11.9-17.1c0,0,112.7,16.8,49.5-36.2c0,0,75.6,6.7,42.7-43.7
			c0,0,46.4,11.2,11.8-24c0,0-103.5-62.7-87.3,28.5c0,0-84.1-37.5-65.5,46.8c0,0-125,11.1-45.5,70.5c0,0-110.2-17.2-46.4,68
			C155.3,57.9,95,59.4,128.5,93.7z"/>
		
			<linearGradient id="SVGID_10_" gradientUnits="userSpaceOnUse" x1="1382.6426" y1="832.6901" x2="1397.5825" y2="576.7202" gradientTransform="matrix(1 0 0 -1 0 900)">
			<stop  offset="9.000000e-02" style="stop-color:#2CAA95"/>
			<stop  offset="0.35" style="stop-color:#43B49F"/>
			<stop  offset="0.68" style="stop-color:#65C3AF"/>
		</linearGradient>
		<path class="st22" d="M1151.7,151.8c0,0,0.9-0.9,2.7-2.6c11.8-11,59.7-52.4,91.9-26.9c0,0,6.9-31.2,84.9-13.6
			c0,0,87.4-90.3,150.8-23.1c0,0,139.4-26.1,91.9,49.6c0,0,94.8-2.5,23.4,65.5c0,0-135.6-64.3-211.8-43.9L1151.7,151.8z"/>
		
			<linearGradient id="SVGID_11_" gradientUnits="userSpaceOnUse" x1="707.83" y1="389.56" x2="1553.3979" y2="389.56" gradientTransform="matrix(1 0 0 -1 0 900)">
			<stop  offset="0" style="stop-color:#43B555"/>
			<stop  offset="3.000000e-02" style="stop-color:#40B255"/>
			<stop  offset="0.27" style="stop-color:#289B52"/>
			<stop  offset="0.49" style="stop-color:#1A8E50"/>
			<stop  offset="0.68" style="stop-color:#15894F"/>
		</linearGradient>
		<path class="st23" d="M1553.3,644c0.5-19.8-2-39.4-2.5-59.1c-0.6-19-0.1-37.9,1.7-56.8c0.2-2.4,0.4-4.8,0.7-7.2
			c0-3.3,0.1-6.6,0.1-9.9c0.4-52.6-1.4-105.3-1.6-157.9c0-10.8,0-21.6,0.1-32.4l-86.1,5.7c0,0,0.4-15.1-33.4,40
			c-39.4-22.8-94-19.6-107.9,42c-44.8-77.4-114.7-42-114.7,10.2c-124.9-154.9-282.4,6.8-330.4,144.5c-97.4,23.3-171.4,137-171.4,137
			l843.7-19C1552,668.7,1553,656.3,1553.3,644z"/>
		
			<linearGradient id="SVGID_12_" gradientUnits="userSpaceOnUse" x1="1147.2227" y1="195.0807" x2="1132.7527" y2="936.3607" gradientTransform="matrix(1 0 0 -1 0 900)">
			<stop  offset="0" style="stop-color:#907D62"/>
			<stop  offset="0.25" style="stop-color:#877D63"/>
			<stop  offset="0.76" style="stop-color:#787C65"/>
		</linearGradient>
		<path class="st24" d="M1415.2,658.2c0.6-1.6-4.2-4.2-8.3-10.5c-2.7-4.3-4.6-9.1-5.5-14.2c-3.6-14.9-17.5-32.9-22.1-39.5
			c-14.6-21.1-21.4-52.8-32.8-105.4c-6.4-29.8-11.3-60-14.4-90.4c-0.8-52.5,5.9-92,19.9-114.8c23.4-38.3,39.8-77.9,39.8-77.9
			s81.9,4,88.9,0s26.9-22.8,23.4-71.4l1.2-11.7l-21,6.3c0,0-6.5,43.6-33.4,47c-32.1,4.7-68.9-16.3-63.5-47H1364
			c0,0,7.2,89.6-28.2,108.5c-26.4,7.4-41.9-4.3-40.7-56.8l1.2-52.4l-41.9,0.1c0,0,2.4,55.8,0,59.1s-21,37.9-40.7-33.1
			c-16.8-50-7.2-25.9-7.2-25.9l-22.8,0.6c0,0,10.2,55.1,43.7,89.6c22.2,33.1,22.8,88.5,6,108.1c-18,19.6-48.5,30.4-71.9-85.9
			c-15.6-77.1-19.8-111.9-19.8-111.9l-32.3-0.4c0,0,13.2,92,10.8,108.2c-3,18.3-4.2,74.4-74.9,50.7c-36.7-5.8-110.2-26.4-140.8-88.6
			c-11.4-52.7-9-73-9-73l-26.4-0.7c0,0,0.6,30.5,6,38.6c-16.4,1.2-32.8-2.6-47-11c-27.1-16-38.1-43-41-51l-21.1-0.9
			c4.9,14.3,12.1,27.8,21.3,39.8c20.8,26.6,49.8,41.3,71.1,44.8c4.2,0.7,21,3.1,20.9,3.9c0,0.2-1.2,0.2-1.2,0.2s5.3,79.7,89.8,116.2
			c75.5,31.8,108.4,48,127.6,60.8s32.3,26.4,29.3,70.3c-3,35.1-1.2,70.5,5.4,105.1c7.5,39.7,21.4,78,41.3,113.2
			c64.8,2.3,106.5,2.5,133.2,2.2c53.6-0.6,84.1-3.5,100.1,0.7C1405,657.9,1414.4,660.4,1415.2,658.2z"/>
		<path class="st5" d="M1331.1,386.8c-20.4,13.1-37.7,30.4-50.9,50.7c-57.3,88.5-18.3,204.9-13.9,217.6l151.4,3.1
			c-10.7-16.7-20.4-34.1-29.1-51.9C1348.8,525.2,1335.3,445.9,1331.1,386.8z"/>
		<path class="st6" d="M1156.6,219.4c0,0,28.1,117.2,50.1,116.4C1183.9,347.7,1141.4,315.2,1156.6,219.4z"/>
		<path class="st7" d="M1313.6,527.8c-2.8,0.6-5.6,1-8.4,1c-2.8,0.1-5.7-0.4-8.2-1.7c-1.3-0.7-2.3-1.7-2.9-3
			c-0.6-1.3-0.9-2.7-0.8-4.2c0.2-2.8,1-5.6,2.2-8.2c2.3-5.2,5.4-10,9-14.3c3.6-4.4,7.9-8.2,12.7-11.2c2.4-1.5,5.2-2.4,8.1-2.5
			c1.5,0,2.9,0.4,4.1,1.2c1.2,0.8,2.2,1.9,3,3.1c1.5,2.4,2.6,5.1,3.2,7.9c0.6,2.8,1,5.6,1.2,8.4c0.6,11.3-1.2,22.6-4.2,33.5v0.1
			c-2.9,5.5-6.3,10.7-10,15.6c-3.7,5-8,9.5-12.8,13.4c-2.4,2-5.2,3.5-8.1,4.6c-1.5,0.5-3,0.8-4.6,0.9c-1.6,0-3.2-0.3-4.6-1
			c-2.9-1.5-4.8-4.1-6.3-6.8c-1.5-2.7-2.6-5.6-3.4-8.6c-1.6-6-2.7-12.1-3.1-18.3c-0.5-6.2-0.6-12.4-0.3-18.5l1.3-37l-1,37
			c-0.3,6.2-0.2,12.3,0.3,18.5c0.5,6.2,1.6,12.2,3.3,18.2c0.8,3,2,5.8,3.4,8.5c1.5,2.6,3.4,5.2,6.1,6.5c2.8,1.3,6,1.3,8.8,0.1
			c2.9-1.1,5.5-2.6,7.9-4.6c4.8-3.9,9-8.4,12.7-13.3c3.7-4.9,7-10.1,9.9-15.6v0.1c3-10.8,4.8-22.1,4.3-33.3
			c-0.2-2.8-0.5-5.6-1.1-8.3c-0.6-2.7-1.6-5.4-3.1-7.7c-0.7-1.2-1.7-2.2-2.8-3c-1.2-0.7-2.5-1.1-3.9-1.1c-2.8,0.1-5.5,1-7.9,2.4
			c-4.8,2.9-9,6.7-12.6,11c-3.6,4.3-6.7,9.1-9,14.2c-1.2,2.5-2,5.3-2.2,8c-0.1,1.4,0.2,2.8,0.8,4.1c0.6,1.3,1.6,2.3,2.8,3
			c2.5,1.2,5.3,1.8,8.2,1.7C1308.1,528.7,1310.8,528.4,1313.6,527.8z"/>
		<path class="st10" d="M1604.4-103.1c0,0,187.5-48,270.6,98.1c54.1,113.4,63.8,150.2-270.6,129.6
			C1547.8-56.9,1604.4-103.1,1604.4-103.1z"/>
		<path class="st25" d="M776.3,101.3c-5.6,0-168.6-12.7-168.6-12.7S506.5,65.3,564.6,8.2c15-8.2,27.6-20.1,36.7-34.6
			c11.6-18.7,8.5-27.9,15.9-45.1c23.4-54.5,101.8-73.1,101.8-73.1l0,0c0,0,106.3-24.1,185.5,23.2c8.8,5.3,13.2,8.1,16.5,13
			c36.6,53.4-77.2,209.6-77.2,209.6L776.3,101.3z"/>
		<path class="st12" d="M777.6-33.4c0,0,97.2-86.6,199-120.5c111.3-50.9,258.6-164.7,437.2-112c137.9,49.2,241.3,117.1,302.4,242.8
			c29.8,73,34.5,161.3-192.7,149.4l-633.1,1.1C890.4,127.3,642.8,107.5,777.6-33.4z"/>
		<path class="st6" d="M1505.3,130.1c0,0,3,50.5-18.1,70.2c-6.3,6.9-11.3,6.7-18.8,6.9c0,0,21-7.7,26.2-33.5
			c3.1-14.9,4.9-30,5.5-45.2h5.2V130.1z"/>
		<path class="st6" d="M1296.3,128c-0.8,8.9-1.3,39.7-0.9,45.7c1.4,26.3,3.1,56.2,18.2,63.9c3.5,1.7,7.5,2.3,11.3,1.6l5.7-0.7
			c-7,9.8-13.3,10.6-15.3,10.7c-12.5,0.6-27.1-17.6-30.7-47.1c-2.3-14-3.2-28.2-2.5-42.4c0.6-11.8,2.7-31.7,2.7-31.7H1296.3
			L1296.3,128z"/>
		<path class="st12" d="M739.3,76.3c0,0-3.8,82.7,80.7,57.3c-72.5,121.7,47.3,121.3,113.5,62.2c2,103,116.9,64.6,136.8,4.8
			c30,74.4,146.3,27.1,158.7-29.6c26,89.2,116.6-26.6,116.6-26.6c50.3,75,136.2,22,142.2-21.4c0,0,79.7,68.1,183.4,40.2l5.6-2.9
			l-34.1-96.6L739.3,76.3z"/>
		<path class="st12" d="M1928.3,121.5L1121,132.7c0,0-3.5,74.6,72.8,51.7c-65.3,109.7,42.7,109.4,102.4,56
			c1.8,92.9,105.4,58.2,123.3,4.3c27,67.1,131.9,24.4,143.1-26.7c23.4,80.4,105.1-23.9,105.1-23.9c45.4,67.6,122.8,19.9,128.2-19.3
			c0,0,55.4,47.4,132.3,41.9C1928.1,184.9,1928.2,153.2,1928.3,121.5z"/>
		
			<linearGradient id="SVGID_13_" gradientUnits="userSpaceOnUse" x1="769.1299" y1="367.6057" x2="2020" y2="367.6057" gradientTransform="matrix(1 0 0 -1 0 900)">
			<stop  offset="0" style="stop-color:#43B555"/>
			<stop  offset="3.000000e-02" style="stop-color:#40B255"/>
			<stop  offset="0.27" style="stop-color:#289B52"/>
			<stop  offset="0.49" style="stop-color:#1A8E50"/>
			<stop  offset="0.68" style="stop-color:#15894F"/>
		</linearGradient>
		<path class="st26" d="M1931.9,406.9c-0.9-25.3-1.7-50.5-2.2-75.8c-37.7-95.2-177.7-35.7-205.6,37.1
			c-103.8-74.8-219.1,13.6-186.8,68c-113-39.1-221.4,56.5-182.2,104.8c-122.3-52.1-129.2,80.5-129.2,80.5
			c-140.7-28.9-203,55-168.4,90.1c0,0-173-8.5-283.7,66.3l-4.6,5.1h1155.7c0.3-31.7,2.2-63.3,4.8-94.9c3.4-41.5,8.2-82.9,11.2-124.5
			C1937.3,511.4,1933.8,459.2,1931.9,406.9z"/>
		<path class="st16" d="M1929.6,688l0.4-5.2c-22.5-8.7-52.2-11.4-91.3-2c9.2-92.5-117.5-100.1-159-64.2
			c9.2-100.3-108.3-60.4-131.3-20c-41.5-67.5-152,22.5-106,79c-99-59.1-140.5,48.8-140.5,48.8c-80.6-51.4-152,41.1-152,41.1h775.1
			C1925.8,739.8,1927.5,713.9,1929.6,688z"/>
		
			<linearGradient id="SVGID_14_" gradientUnits="userSpaceOnUse" x1="509.3835" y1="100.5201" x2="815.1035" y2="513.05" gradientTransform="matrix(1 0 0 -1 0 900)">
			<stop  offset="0.17" style="stop-color:#24B174"/>
			<stop  offset="0.31" style="stop-color:#3AB575"/>
			<stop  offset="0.48" style="stop-color:#4DBA76"/>
			<stop  offset="0.6" style="stop-color:#54BB76"/>
		</linearGradient>
		<path class="st27" d="M312.2,665.5c0,0,14-102.7,115.5-34.2c-7-57,38.5-67.6,70-23.5c-8.8-81.4,64.7-52.9,78.7-27.2
			c0-72.5,66.5-60.5,82.2-26.5c54.2-18.5,84,42.3,84,42.3c29.7-38.1,78.7-1.7,77,40.6c47.3,1.2,98,28.6,98,28.6L312.2,665.5z"/>
		
			<linearGradient id="SVGID_15_" gradientUnits="userSpaceOnUse" x1="571.9907" y1="120.3813" x2="678.8907" y2="697.2213" gradientTransform="matrix(0.9995 3.036406e-02 3.036406e-02 -0.9995 -47.868 792.2599)">
			<stop  offset="0" style="stop-color:#43B555"/>
			<stop  offset="3.000000e-02" style="stop-color:#40B255"/>
			<stop  offset="0.27" style="stop-color:#289B52"/>
			<stop  offset="0.49" style="stop-color:#1A8E50"/>
			<stop  offset="0.68" style="stop-color:#15894F"/>
		</linearGradient>
		<path class="st28" d="M505.4,624.5c-4.6-0.2-93.6,3.2-80.4-13.9s84.5-8.5,90.1-3.3s-81.1-27.7-83.9-52.9s67.5,19.6,91.3,37.4
			c-70.5-79.3-72.3-96.9,14.5-22.6c-52.9-89.5-63.8-111.1,29-6.6c-58.5-136-3.3-5-26.9-68.5s11.4-76.1,39.1,47.6
			c0,0-1.9,26.3,13.1-15.9s74.5-65.2,21.9,42.1c28.3-20.4,25.9-19.2,48.3-34.8s47.6,31.7-33.6,89.1
			C565.5,620.2,505.4,624.5,505.4,624.5z"/>
		
			<linearGradient id="SVGID_16_" gradientUnits="userSpaceOnUse" x1="13003.2588" y1="158.2079" x2="13082.2588" y2="-55.7121" gradientTransform="matrix(-1 0 0 -1 13699.3301 900)">
			<stop  offset="2.000000e-02" style="stop-color:#86D738"/>
			<stop  offset="1" style="stop-color:#4B8A40"/>
		</linearGradient>
		<path class="st29" d="M1644.6,655.3c-26.1,5.8-84.4,7.9-209.8,28.3c-41.1,6.7-31.1-0.3-122.3,4.9c-4.3,0.2-14.1-0.5-18.9-0.2
			c-3.6,0.2-59.1-4.1-63-3.8c-1.9,0.1,40.2,5.5,38.3,5.6c-8.2,0.5-49.6-4.1-59.1-3.5c-2.5,0.2-58.9-3.6-61.5-3.5
			c-3.1,0.2,67.2,10.9,63.9,11.1c-22.7,1.4-25.5-4-55.7-2.1c-1.8,0.1-25.2,0-59.6-4.2c25.7,9.7,45.1,9.8,41.2,10.1
			c-9.3,0.6-12.3,0.7-22.3,1.4c0,0-229-3.1-242.1-2.4c0,0-150.4,0.3-162.5,2.5S660,696,645,701s-79.3-4.3-97.3-2.2
			s-38.1,2.2-55.2,2.2s19.1-12.3,11-12.3s-17.1-2.2-28.1-2.2s-38.1,0.7-63.2,0.7s-44.6-5.7-50.6-4.3s-35.7,0.7-47.7,1.4
			s-72.9,3.7-83.9,3.7s-70.4,8.7-79.5,6.4c11.6-2.2,32.8-7.3,35.7-8.3c-8.9-2.6-119.1,1.3-171.3,12.4c-42.1,0.2-221.9,5.9-229.4,6.3
			c-38.4,1.9-69.8,2.3-89.6,3c-0.6,16.5,5.3,202.8,5,204.5l1944.5,1.5C1645.3,913.9,1646.1,656.9,1644.6,655.3z"/>
		
			<linearGradient id="SVGID_17_" gradientUnits="userSpaceOnUse" x1="13032.8896" y1="332.5695" x2="13033.4795" y2="308.2795" gradientTransform="matrix(-1 0 0 -1 13699.3301 900)">
			<stop  offset="2.000000e-02" style="stop-color:#B8EB38"/>
			<stop  offset="0.47" style="stop-color:#86D738"/>
			<stop  offset="1" style="stop-color:#70BD40"/>
		</linearGradient>
		<path class="st30" d="M763.5,579.1c0,0-2.6,2.5-2.9,3.7s-4.4-1.2-5.9,1.8s-7,0-12.5,2.8s-1.1,0-8.8,2.2s-2.6,2.5-7.7,2.2
			s-5.2-2.8-10.3-1.5s-5.2,2.8-10.3,2.8s-9.2-6.2-13.6-4.6c-3.6,1.4-7.3,2.5-11,3.4c-4.4,0.9-10.7,1.5-12.9,3.4s-6.6-0.6-11.8-1.2
			s-16.6-7.4-19.9-6.2s-5.5-0.3,0-1.5c-0.9-1.3,1.5-2.7,1.5-2.7s-20.3,1.8-26.5,1.8s-11.4-1.8-16.2-2.5s-9.2-1.8-12.5-0.3
			s-13.3,4.9-13.3,4.9s8.8-7.4,11.4-7.7s21.1-9.3,30.7-8.7s53.1-6.5,73.8-1.5c11.4,0.3,39.2,0.9,58.4,2.3
			C755.1,572.5,762.5,577,763.5,579.1z"/>
		
			<linearGradient id="SVGID_18_" gradientUnits="userSpaceOnUse" x1="13242.6729" y1="388.8442" x2="13281.543" y2="201.3542" gradientTransform="matrix(-1 0 0 -1 13699.3301 900)">
			<stop  offset="2.000000e-02" style="stop-color:#78A81F"/>
			<stop  offset="0.98" style="stop-color:#386B1F"/>
		</linearGradient>
		<path class="st31" d="M760.7,582.5c0,0,4.7,7.4,7,11.7s17,9.3,22.3,14.5c4.6,4.6,19.6-0.2,28.2,3.1c1.2,0.5,24.8,17.7,26,18.1
			c9.3,3.2-7.6,1.7-7.6,1.7s-31.6,2.9-36.3,2.7s-10.3,1.8-15.3,2.5s-21.5-2.7-21.5-2.7s23.1,9.9-13.8,1.4c-3.5-0.8,4.9,7-32.8,3.6
			c-5.3,2.9-14.1,8.4-15.6,8.8c8.5-5.3-20.8-0.4-21.6-0.1s-13.1,1.5-13.1,1.5c-2.8,1.6-5.9,2.8-9.1,3.4c-6,1.4-12.6-2.9-19.6-2.9
			s-42.4,5.1-47.2,7.8s-55.4,26.4-58.1,28.7s-6.7,8-13.5,10s-174.6,23.3-199.1,31.5c-40.5,13.6-149.3,32.1-157.5,31.3
			c-187,16.6-166.7-26.3-166.7-26.3c174.8-14.7,221.8-61.1,262.3-50.3c3.8-1.1,84.6-38.7,92.7-37.4c43.5,7,54.6-19.5,85.3-26
			c5.7-1.2,13.5-3.3,14-3.4c2.4-0.3,7-0.5,12.6-0.7c4.3-0.2,44.4-3.2,51.2-2.6c3.6-3.5,23.1-17.3,25.6-17.4
			c1.3-0.7,24.2,1.7,24.7,0.6s2.5-6,3.5-6.4s1.2-4,9.5-6.4s25-8,25-8l-9.3,6.3c0,0,22.9-2.9,19.9,0.8c-2.4,3,14.2,3.1,19.5,3.3
			s13-0.2,13-0.2s-8.8,2.4-10.5,3.9c-0.1,0.1-0.2,0.2-0.2,0.3c0.1,0.8,16-4.5,18.1-2.6c2.3,2,7.1-2.4,8.3-0.8s15.4-3.1,17.6-3.4
			s-5.3,11.1-3.6,11.3s8.8-5,12.3-3.4s7.5,2,9.5,1.4s9.3-1.8,10.5-0.7s6-1.1,7.3,0.2s6.7,2.6,6.7,2.6s3.8-3.3,8-3.5
			c2.4-0.1,4.8-0.1,7.3,0c0.8,0,7.8-5.2,8.8-3.6s8.8-1.9,8.8-1.9S758.8,584.5,760.7,582.5z"/>
		
			<linearGradient id="SVGID_19_" gradientUnits="userSpaceOnUse" x1="600.0905" y1="298.7184" x2="589.7205" y2="265.6984" gradientTransform="matrix(1 0 0 -1 0 900)">
			<stop  offset="2.000000e-02" style="stop-color:#85B038"/>
			<stop  offset="0.47" style="stop-color:#86C238"/>
			<stop  offset="1" style="stop-color:#70B340"/>
		</linearGradient>
		<path class="st32" d="M518.6,608.2c0,0,15-1.5,23.9-0.7c10.6,0.9,15,0.9,21,0.5c7.7-0.5,13.5-1.1,15.9-1.4
			c1.2-0.1,21.9,1.5,19.7,2.1c-3.3,0.7-14.2,2.8-11.5,3.3s6.3,0.8,7.7,1.3s3.3,0.7,1.5,1.5s-1.8,2.7,1.8,2.7s8.6,1.5,12.5,1.2
			s12.5-1.7,14.6-2.7l2.1-1c0,0-9.5,6.5-5.7,5s9.2-4.2,11.6-4.7s3.9,1,8.6,0.8s6-1.3,6-1.3s-4.8,5-6.5,6s3.3-0.5,5.7-1.7
			c1.2-0.7,2.5-1.3,3.9-1.7c0,0,0.9,4,4.5,2.7l3.6-1.2c0,0,0,3-0.9,4.2s-0.6-0.8,0.9-1.2c0.8-0.3,1.6-0.6,2.4-1c0,0,1,1.8,2.4,1.2
			s2.1,1.7,0.9,2.5s1.8,0.7,1.8,1.5s0,0.5,3,0.7s5.4,0.5,7.4,0.8s-6.2,1.5-10.3,3.2s-4.9,1-8.7,2.3s-13.7,4-17.5,4.5
			s-17.5,4.3-19.3,4.1s9.1-5.2,1.9-3.5s-12.1,1.6-15.7,1.8s-14.3-0.5-17-0.3s-11,0.3-11,0.3s8.6-3.7,10.7-4.2s0.3-0.5-2.7-0.3
			s-3-0.3-6.2,0s-7.1-1.2-8.6-1.5s5.4-2.7,1.5-2.5s-2.1-1-6.5-0.8s-11.3-1.7-13.7-1.2s11.3-3.7,14-4.7s10.4-3,12.8-3
			c2.3-0.1,4.6-0.4,6.8-0.8c0,0-13.7-2.2-18.4-1s-23.2,0.3-27.7,0.7s-15.8,0.5-17.8,0.8s12.8-3.5,27.4-5.7c-2.1,0-45.2,3.7-41.6,2
			c5.3-1,9.2-2.2,15.2-3.7s18.2-1.5,20.5-1.5s-11.2-1.8-11.2-1.8C529,609.2,523.8,608.3,518.6,608.2z"/>
		
			<linearGradient id="SVGID_20_" gradientUnits="userSpaceOnUse" x1="12862.9658" y1="283.7968" x2="12921.1201" y2="283.7968" gradientTransform="matrix(-1 0 0 -1 13699.3301 900)">
			<stop  offset="0" style="stop-color:#417C14"/>
			<stop  offset="1" style="stop-color:#6B961F"/>
		</linearGradient>
		<path class="st33" d="M815.6,607.8c0,0,3.1,9.8,11.6,11.4c2.9,0.5-3.9-5.3-8.1-12.5c0,2.5,1.8-1.2,2.7-0.3
			c24.3,23.5,11,15.9,11,15.9s-33.1,11-33.8,8.4s-20.7-29.4-20.7-29.4l13.5,2.9c0,0,10.5,16.3,10.5,14.8c1.7-11.1-5.5-13.2-5.5-13.2
			S812.5,607.4,815.6,607.8z"/>
		
			<linearGradient id="SVGID_21_" gradientUnits="userSpaceOnUse" x1="12931.1201" y1="288.4238" x2="13014.1602" y2="288.4238" gradientTransform="matrix(-1 0 0 -1 13699.3301 900)">
			<stop  offset="0" style="stop-color:#417C14"/>
			<stop  offset="1" style="stop-color:#6B961F"/>
		</linearGradient>
		<path class="st34" d="M715.1,590.7l5.1,2.8c0,0-2,7.7,1.8,13.4c3.4,5.3,8.2,9.5,13.9,12.3c6.1,3.2,8.3,4.2,13.9,7.2
			s18.5,5.5,18.5,5.5s-17.2-1.9-24.6-0.2s-14.9-1.3-21.3-0.2s-18.5,5.9-18.5,5.9s6-4.5,9.7-7.3c1.2-0.9-10.8,3.2-14.6,1.4
			c0.8-0.2,18-4.7,18.2-5.8c0.3-2.2,0.2-4.4-0.4-6.5c-0.5-2.4-0.8-4.8-0.8-7.2c0,0-5.8,9.9-9.9,12.5s-11.9,4.4-11.9,4.4l-9.1,3.6
			c0,0,13.9-8.7,16.7-12.7s4.8-4.7,5.6-8.5s3.3-8.3,3.3-12.5s-9.7,15.8-11.2,14.7s6.9-23.1,6.9-23.1c2.5-1.9,5.2-3.4,8.1-4.5
			c1.6-0.6,8.1,2.9,8.1,2.9S715,591,715.1,590.7z"/>
		
			<linearGradient id="SVGID_22_" gradientUnits="userSpaceOnUse" x1="12918.29" y1="289.855" x2="12974.1104" y2="289.855" gradientTransform="matrix(-1 0 0 -1 13699.3301 900)">
			<stop  offset="0" style="stop-color:#417C14"/>
			<stop  offset="1" style="stop-color:#6B961F"/>
		</linearGradient>
		<path class="st35" d="M739.4,586.2c0,0-3.5,2.9-2,6c2.2,4.6,5,8.9,8.1,12.9c3,3.6,6,5.9,12.8,9.3s22.7,16,22.7,16
			s-20.8-6-25.3-9.1s-15-14.7-17.8-17.6s-5.6-11.6-5.8-9.9s-2.8,3.8-0.8,6.1l29.9,34.3c0,0-25-19.5-30.1-27.9
			c-1.6-2.6-2.9-10.1-3.4-13.3c-0.2-1.8-1.1-3.5-2.5-4.7c1.2-1,2.7-1.7,4.3-1.9C732.1,586.2,739.4,586.2,739.4,586.2z"/>
		
			<linearGradient id="SVGID_23_" gradientUnits="userSpaceOnUse" x1="12899.8496" y1="294.8243" x2="12953.6436" y2="294.8243" gradientTransform="matrix(-1 0 0 -1 13699.3301 900)">
			<stop  offset="0" style="stop-color:#417C14"/>
			<stop  offset="1" style="stop-color:#6B961F"/>
		</linearGradient>
		<path class="st36" d="M747,582.7c0,0-2.8,1.5-0.3,5.7s2.4,12.6,3.9,13.9s33.5,26.7,33.5,26.7l15.3-0.9c0,0-36-21.3-39.5-24.7
			s-5.6-8.9-7.6-11.8c-1.1-1.4-1.8-3-2.3-4.7l22.5,19.9c0,0-13.3-16.7-15.4-24.6c-1.3-2.3-4.6,0.9-4.6,0.9S748.3,581.2,747,582.7z"
			/>
		
			<linearGradient id="SVGID_24_" gradientUnits="userSpaceOnUse" x1="12877.582" y1="301.264" x2="12928.46" y2="301.264" gradientTransform="matrix(-1 0 0 -1 13699.3301 900)">
			<stop  offset="2.000000e-02" style="stop-color:#B8EB38"/>
			<stop  offset="0.47" style="stop-color:#86D738"/>
			<stop  offset="1" style="stop-color:#70BD40"/>
		</linearGradient>
		<path class="st37" d="M770.9,590.2c0,0,5.2,8.2,6,8.8s0.8,2.2,2.1,2.2s20.4,5,21.6,5.2c9.3,1.6,24.8,0.8,20.4-0.3
			c-1.5-1.3-28.2-8.6-29.7-8.8S773.2,589,770.9,590.2z"/>
		
			<linearGradient id="SVGID_25_" gradientUnits="userSpaceOnUse" x1="13000.3301" y1="259.455" x2="13139.8096" y2="259.455" gradientTransform="matrix(-1 0 0 -1 13699.3301 900)">
			<stop  offset="2.000000e-02" style="stop-color:#86B80D"/>
			<stop  offset="1" style="stop-color:#4B820A"/>
		</linearGradient>
		<path class="st38" d="M687.9,623c0,0-2.5,0.6-5.6,1.1s-4.8-0.6-7.8,1.5s-6.3,0-7.6,0.2s-11.9,0.9-13.9,1.1s5.5-4.8,5.5-9.2
			c-4.4,7.1-24.5,17.6-29.3,18.4s-11.1,2.1-13.4,3.4s-7.6,2.3-7.6,2.3s-5.8,2.5-10.9,4.9s-37.8,16.8-37.8,16.8s51.5-17.8,55-17.6
			s12.7-2.8,16.7-2.8c4.5-0.3,9-0.7,13.4-1.5c-1.8,0.2-11.1,3.4-12.7,3.4c-1.3,0.1-2.6,0.4-3.8,0.8c0,0,13.4-1.7,18.5-2.1
			s14.4-3.6,18-4.2s9.6-1.1,12.2-1.7s22.2-10.4,22.2-10.4s-20.4,7.8-24.7,8.5s-8.3,0-11.9,1.1s-9.6,2.1-9.6,2.1s9.1-5.1,11.4-5.1
			s-6.1-1-1-1.9c2.7-0.3,5.3-0.9,7.8-1.7c2-0.6,8.6-3.8,10.1-3.8s8.6-4,6.1-1.5s-3.5,3.6-5.1,4.2s-5.3,2.1-5.3,2.1l9.4-3
			c3.3-1.1,3-2.5,4.8-3.8s7.6-2.7,7.6-2.7S690.5,621.3,687.9,623z"/>
		
			<linearGradient id="SVGID_26_" gradientUnits="userSpaceOnUse" x1="87.3289" y1="240.9919" x2="593.2148" y2="240.9919" gradientTransform="matrix(1 0 0 -1 0 900)">
			<stop  offset="1.000000e-02" style="stop-color:#2B6333"/>
			<stop  offset="1" style="stop-color:#5C8500"/>
		</linearGradient>
		<path class="st39" d="M545.1,650.9c0,0,11,5.5,27.7,4.2c-3.3,4-31.7,5.1-43.6,2c-2.1-0.6-22,2-24.1,2c-8.8,0.3-50,7.2-52,7.9
			c-3.6,1.3,52.3-2.6,49.5-0.9c-16.7,8.1-96.2,12.7-114.4,18.8s62.5-24.2,49.5-21.8s-90.5,16.3-92.1,16.3s-80.9,4-102.5,10.3
			c-2.3,0.6-4.6,1.1-7,1.5c-2.2,0.4,62-5.8,65.8-0.2c-16.7-0.3-76.9,4.2-80.4,4.5c-14.9,1.4-33.1,0-33.1,0l120.4,4.1
			c0,0-72,12.5-142.6,7.2c-42.4-3.2-82.3-6.5-78.7-8.9c1.5-1,28.9,8.8,105.8-12.4c2.5-0.2-25.3,8.8-22.8,8.5
			c2.3-0.2,40.7-2.4,43-2.6c5.2-0.5,8.1-2.7,13-3.2c2.1-0.2,29.7-0.5,28.1-2.7c-0.9-1.2-18.6-3.5-17-3.6c6.8-0.7,13.3-1.4,19.1-2.5
			c1.5-0.3,53.6-4.3,61.3-3.6c-21.9-3.8-53.9,0.9-52.5,0.6c28.3-7.5,70.5-15.9,72.4-17.2c1.1-0.8-53.4,7.7-77.1,16.4
			c-22-4.8-44.4,1-71.8,7.8c19.1-9,74.4-24,99.3-23.2c51.7-19.6,37.6-18.8,62.9-23.5c-17.6,7.2-60.5,22.3-48.7,20.3
			c11.4-1.9,21.4-1.4,28.6-2.3c4.2-0.6,8.4-0.9,12.7-0.9c8.8-2.3,17.4-10.4,31.7-13.2c9.1-10.3,61.9-26.8,64.4-27.5
			c-29.1,11.5-39,24.1-35.3,23.5c3.4-0.5,9.9-6.8,14.5-7.3c3-0.3,0.6,7.6,3.7,7.3c0.8-5.3,18.9-11.3,13.3-4.1
			c13.1-10.7,35.9-14.7,39.6-15.6c12.3-3.2,39.5-7.7,39.8-6.5c-14,4.2-15.5,6.5-15.5,6.5s0.7-0.7,3,0.5c0.9,0.5-17.4,9.7-15.8,10.2
			s25.9-7.8,28.3-7.5c1,0.2-12.5,8.1-11.3,8.2s15.7-3.8,17.2-3.7c5,0.4,9.1-1.5,17-1.7c9.2-0.2,20.5-0.8,34.5-2.1
			c6.9,0.7-45.1,8.6-39.8,10.9c7.1-1,6.8,6.2,37.2,5.7c0.8,0.4,1.5,1,2.1,1.7c0,0,29.8,3.9,17.8,5c-10.3,1-13.3,3-18.3,2.3
			c-7.2-1-9.6,6.2-27.8,4.3C544.3,650.8,544.7,649.2,545.1,650.9z"/>
		
			<linearGradient id="SVGID_27_" gradientUnits="userSpaceOnUse" x1="409.7476" y1="229.1506" x2="417.4376" y2="259.9206" gradientTransform="matrix(1 0 0 -1 0 900)">
			<stop  offset="1.000000e-02" style="stop-color:#4A7A00"/>
			<stop  offset="0.98" style="stop-color:#699621"/>
		</linearGradient>
		<path class="st40" d="M377,639.8c0,0,34.4,7.8,50.1,9.7s17.9-1,30.4-1s30.2,0.5,34.4,1.4s28.5,3.6,27.6,4s-46.7-1.9-54.6-0.2
			s-19.4,7.1-24.5,8.5s-16.5,2.1-23.9,4.8s-23,2.6-23,2.6s19.1-7.6,27-9.7c3.3-1,6.6-1.8,10-2.4c0,0-24.7-3.1-34.7-2.8
			s-18.5-2.1-22.8-1.2s-7.4,4.8-12.5,6.9s-18.2,6.7-18.2,6.7s-11.1-1.7-16.5-0.5s-21.9,5.5-21.9,5.5s18.5-9.3,25.9-10.9
			c5.1-1.1,10.2-1.8,15.4-2.1c0,0,0.3-1.4-5.7-1.4s-12.2-0.2-11.4-0.5s13.7-2.8,18.5-5s7.7-5,4.6-5c0,0-6.4-3.8-2-4.1
			s3.5-2.2,3.5-2.2s-5-3.8-1.2-4.5s29.5-0.1,29.5-0.1S372.3,638.9,377,639.8z"/>
		
			<linearGradient id="SVGID_28_" gradientUnits="userSpaceOnUse" x1="12896.9766" y1="263.3" x2="12896.9766" y2="140.94" gradientTransform="matrix(-1 0 0 -1 13699.3301 900)">
			<stop  offset="2.000000e-02" style="stop-color:#86D738"/>
			<stop  offset="0.92" style="stop-color:#58963E"/>
		</linearGradient>
		<path class="st41" d="M1062.2,627.9c0,0-85.5-8.4-113.7-7s-87.9,8.4-101.9,8.4s-50.4,2.8-58.6,1.4s-109,4.2-135.9,5.6
			s-84.3,24.5-112.4,30.1s-82.5,7.8-101.3,17.6s-51.1,9.6-74.6,26.3S327,741.7,327,741.7s85.3-25.4,142.4-17.5
			c29.2,4,66.8,7,106.6,12.6s92.5-7,119.5-1.4s124.2,5.6,138.3,5.6s41.2-1,103.3-1s97.7,1.8,149.5,1.6s152.4-52,191.1-43.7
			C1278.9,685.8,1215.7,630.7,1062.2,627.9z"/>
		
			<linearGradient id="SVGID_29_" gradientUnits="userSpaceOnUse" x1="12913.9043" y1="190.1767" x2="12953.584" y2="7.0366" gradientTransform="matrix(-1 0 0 -1 13699.3301 900)">
			<stop  offset="1.000000e-02" style="stop-color:#4A7A00"/>
			<stop  offset="0.98" style="stop-color:#699621"/>
		</linearGradient>
		<path class="st42" d="M1148,723.3c0,0-120.1,3.3-128.2,3.3s-55.7-7.7-63.8-6.5s-3-4.8-3-4.8s-20.1-4.4-30.2-2
			s-71.3,12.9-78.4,11.7s-16.2-6-16.2-6s-23.2,5.1-39.4,6.3s-41.5,12.8-42.5,9.2s20.1-10.3,13-9.2s-49,0.7-49,0.7l14.2-12
			c-9.5-0.7-14.8-7-30.3,6.2c-9.4,8-17.3-6-27.4,4.8s-19.8,6.1-19.8,6.1s-15.5-3.8-12.3-4c-6.1,2.5-16.1-1.9-25.2-3.1
			s-21.8,4.7-30,4.7s-16.7,2.4-14.6-8c-11.1,4.9-34.1,2-34.1,2h-30.5c-7.1,0-30.5-15.7-36.5-10.9s-12.2,2.4-19.3,4.8
			s-16.2,2.4-16.2,2.4s10.1-12.1,20.3-12.1c6.4-0.1,12.7-1.8,18.3-4.9c0,0-40.6,3.6-47.7,9.7s-24.4,7.3-30.5,8.5s-28.7,1-28.7,1
			l-21.5,13c0,0-28.9,14.8-46.2,23.2s-30.8,2-50.1,9.3s-121.1,18.2-121.1,18.2s93.2-0.3,173.7-11.3c-46.7,6.2-91.8,20.1-72.1,17
			c11.5-1.8,172.8-6.6,172.8-6.6s-41.5,11.1-53.7,13.5c-7.4,1.5-14.6,3.9-21.3,7.3c0,0,73.1-4.8,87.3-4.8s44.7-3.6,65-6
			c13.2-1.4,26.5-1,39.6,1.2c0,0-19.3,15.7-24.4,18.1s12.2,2.4,15.2,2.4s57.9,3.6,71.1,1.2s30.5-3.6,46.7-3.6s85.3,13.3,101.5,10.9
			s28.4-14.6,31.4-7.3S738.7,841,738.7,841l-29.3,26.7c0,0,46.6-20.5,57.6-24.4s41.8-10.8,61.1-15.6c4.2-0.9,8.4-1.5,12.6-1.7
			c4.8-0.3-29.8,21.7-37.5,26.6c6.9,0.2,65.8-17.9,72.9-17.4c12.8,0.9,26.7-6.3,36.1-6.3c23.3,0,74.5-4.8,90.7-4.8
			c13.1,0,258.4,24.6,291.9,12.3c8-3-30.2-24.7-21.4-24.3c21.3,1.2,138-1.1,138-1.1c-62-59.6-100.3-80.7-137.8-115.1
			C1260.5,683.8,1148,723.3,1148,723.3z"/>
		
			<linearGradient id="SVGID_30_" gradientUnits="userSpaceOnUse" x1="13122.2705" y1="144.115" x2="13231.7197" y2="144.115" gradientTransform="matrix(-1 0 0 -1 13699.3301 900)">
			<stop  offset="1.000000e-02" style="stop-color:#336300"/>
			<stop  offset="1" style="stop-color:#5C8C00"/>
		</linearGradient>
		<path class="st43" d="M577.1,728.2c0,0-10.3,5-11.6,8.6s-18,24-21,27.1s-29.8,17.9-33.3,17.9s-43.6,9.6-43.6,9.6
			s69.1-29,71.3-31.1s10.7-9.7,14.6-19.9s10.3-19.9,11.6-19.9C563.2,727.4,576.2,725.6,577.1,728.2z"/>
		
			<linearGradient id="SVGID_31_" gradientUnits="userSpaceOnUse" x1="13137.6602" y1="142.56" x2="13275.2197" y2="142.56" gradientTransform="matrix(-1 0 0 -1 13699.3301 900)">
			<stop  offset="1.000000e-02" style="stop-color:#336300"/>
			<stop  offset="1" style="stop-color:#5C8C00"/>
		</linearGradient>
		<path class="st44" d="M561.7,723.7c0,0-10.8,3.9-12.5,7.5s-13.3,19.9-15,22s-11.6,6.6-18.9,10.7s-15.9,4.6-18.9,6.1
			s-72.3,27-72.3,27s85.2-42.3,89.5-43.9s11.2-19.4,9-17.9c7.5-4.7-5.2-8.3,9.9-14.3c5.2-2,8.6-3.1,8.6-3.1
			C538.4,721.1,547.7,723.7,561.7,723.7z"/>
		
			<linearGradient id="SVGID_32_" gradientUnits="userSpaceOnUse" x1="13170.8398" y1="149.321" x2="13352.1904" y2="149.321" gradientTransform="matrix(-1 0 0 -1 13699.3301 900)">
			<stop  offset="1.000000e-02" style="stop-color:#2B4F00"/>
			<stop  offset="1" style="stop-color:#599438"/>
		</linearGradient>
		<path class="st45" d="M528.5,722.5c0,0-10.2,13.3-11.9,16.3s-11.6,14.3-15.9,17.4s-15.4,8.2-24.9,9.7s-83.7,18.1-86.2,18.6
			s73.4-23.2,76.4-25.8s13.7-10.8,13.7-10.8s-21.5,10.7-28.7,12.3s-26.6,6.1-34.3,5.6s-69.5,9.7-69.5,9.7s73.8-22.5,83.6-23
			s18-6.1,29.2-10.7s26.2-16.4,26.2-19.4c0-1.9,0.1-3.8,0.4-5.6l10.3,4.1c0,0-3.4,6.1-7.7,9.7s-13.3,11.3-13.3,11.3
			s18.5-8.2,20.2-11.3s3.9-12.3,5.6-10.7S526.8,723.5,528.5,722.5z"/>
		
			<linearGradient id="SVGID_33_" gradientUnits="userSpaceOnUse" x1="13219.2197" y1="161.3467" x2="13481.9297" y2="161.3467" gradientTransform="matrix(-1 0 0 -1 13699.3301 900)">
			<stop  offset="1.000000e-02" style="stop-color:#2B4F00"/>
			<stop  offset="1" style="stop-color:#599438"/>
		</linearGradient>
		<path class="st46" d="M480.1,714.3c0,0-6,8.7-10.3,12.3s-21.9,12.8-30,16.9s-20.2,7.7-25.3,10.7s-48.1,13.2-58.8,17.3
			s-42-2.5-49.7,0c-41.8,6-88.6,0-88.6,0s142.9-62.5,153-68.2c-11.1,9.9-7.6,10.9-6.4,10.9s15.4-4.8,21.8-4.3s9.7,8.5,9.7,8.5
			s7.5-9.5,11.4-9s8.8,3.9,8.8,3.9s-12,15.8-24.5,21s-15,6.6-19.7,10.2c-3.9,2.7-8.1,5.1-12.4,7.2c0,0,36-7.7,43.8-12.8
			s13.7-12.9,16.7-14.9s9-7.2,11.1-7.2s7.1-6.8,11.5-7.5s15.5,5.9,15.5,5.9c-4.5,5.9-9.7,11.2-15.4,15.8
			c-8.6,6.7-16.3,8.2-22.7,13.3s-20.6,8.7-20.6,8.7s21-7.7,27-8.7s24.9-12.8,30.5-16.3s9.5-16.9,9.5-16.9S467.7,706.1,480.1,714.3z"
			/>
		
			<linearGradient id="SVGID_34_" gradientUnits="userSpaceOnUse" x1="12998.8301" y1="135.365" x2="13070.3301" y2="135.365" gradientTransform="matrix(-1 0 0 -1 13699.3301 900)">
			<stop  offset="1.000000e-02" style="stop-color:#336300"/>
			<stop  offset="1" style="stop-color:#5C9600"/>
		</linearGradient>
		<path class="st47" d="M683.4,719.4c0,0,3.9,1.5-0.4,16.3s-8.2,28.6-17.2,39.9S629,812.4,629,812.4s39-26.1,45.9-39.3
			s16.3-43.4,18-46.5s7.6-9.7,7.6-9.7S692.5,723.5,683.4,719.4z"/>
		
			<linearGradient id="SVGID_35_" gradientUnits="userSpaceOnUse" x1="12938.6797" y1="135.37" x2="13060.7803" y2="135.37" gradientTransform="matrix(-1 0 0 -1 13699.3301 900)">
			<stop  offset="1.000000e-02" style="stop-color:#336300"/>
			<stop  offset="1" style="stop-color:#5C8C00"/>
		</linearGradient>
		<path class="st48" d="M708.3,712.8c0,0,0.4,5.1-6,19.4s-6.4,15.3-15,31.7c-20.7,14.5-48.8,44.6-48.8,44.6s51.8-36.9,59.1-52.2
			s7.3-24,11.6-24c2.3,0.1,4.6-0.8,6.3-2.4c0,0-0.7,13.1-0.7,21.8s-3.4,16.3-7.3,26.6s-11.6,23.5-22.3,30.7s-17.2,7.7-17.2,7.7
			s20.6-4.1,31.7-11.8s10.3-14.8,18.5-29.7s12.9-26.6,14.6-32.7s5.2-12.8,5.2-10.2s-0.4,19.4-0.4,21.5s8.2-23.5,4.7-25
			c-1.9-0.8-3.6-1.8-5.2-3.1c3.3-0.2,6.6,0.5,9.4,2c4.3,2.5,14.2-2.6,14.2-2.6s-9.4,1-16.3-2s-10.3-4.1-16.7-2
			c-4.7,1.5-9.7,2.3-14.6,2.5c-2.2,0-0.9-3.6-0.9-3.6S712.2,714.3,708.3,712.8z"/>
		
			<linearGradient id="SVGID_36_" gradientUnits="userSpaceOnUse" x1="12766.54" y1="112.3811" x2="13013.9902" y2="112.3811" gradientTransform="matrix(-1 0 0 -1 13699.3301 900)">
			<stop  offset="1.000000e-02" style="stop-color:#336300"/>
			<stop  offset="1" style="stop-color:#5C8C00"/>
		</linearGradient>
		<path class="st49" d="M818.3,720.7c0,0,1.7,8.7-4.3,14.8c-4.5,4.6-17.7,19.8-29.4,31.5c-3.9,3.9-37.2,10.1-65.3,34.7
			c-2.8,2.2,48.7-20.1,45.8-17.4c-10.5,9.6-20.8,21.1-24.5,26.3c-4.7,6.6-21.9,13.3-31.3,13.8s-24-2.6-24-2.6s38.2,4.1,50.2-0.5
			s8.6-0.8,17.8-3.7s20.4-6.5,31.5-13.6s18-8.7,24.9-25s24-26.6,24-26.6s-20.2,53.1-31.7,61.3s-19.5,10.2-30.2,18.8
			s-22.9,11.6-26.8,14.6s-34.8,20.3-34.8,20.3s73.9-19.2,83.3-23.3s39.8-16.8,48-17.8s9.9-8.4,27.9-31.4s7.6-31.4,20.5-42.6
			s21-34.2,21-34.2l21.9-5.1c0,0-94.6,8.7-57.9-4.6c-8.2-2.6-33.2,3.5-35,3.5s-2-1.4-11-0.4s-7.7-2-26.6,3.1s-26.6,5.1-26.6,5.1
			s33.5-0.5,35.2-0.5s-3,0.5-14.2,4.1s-28.8,5.6-28.8,5.6s9,4.1-0.4,7.2s-9,2-13.3,2.5l-4.3,0.5c0,0,9.8,4.2,19.7,1.1
			s3.4,19.1-32.7,34.2c31-5.5,70.9-41.9,74.4-42.4S819.1,727.9,818.3,720.7z"/>
		
			<linearGradient id="SVGID_37_" gradientUnits="userSpaceOnUse" x1="12629.4648" y1="226.4518" x2="12585.0254" y2="98.2618" gradientTransform="matrix(-1 0 0 -1 13699.3301 900)">
			<stop  offset="1.000000e-02" style="stop-color:#336300"/>
			<stop  offset="1" style="stop-color:#4D8F00"/>
		</linearGradient>
		<path class="st50" d="M1412.6,812.8c0,0-131.1-120.8-141-125.2c-1.9,1-0.1,2.5-1.8,3.4c-1.2,0.6-6.3,0-7.4,0.5
			c-2.2,1,15.4,13,13.6,13.7c-1.5,0.6-25.2-10.7-26.5-10.3c-3.1,1-4.8-1.8-7.2-1.5c-13.8,2.1-16.4-2.2-16.4-2.2s-108.6,43-81.3,15.6
			c-14,0-81.5,12.3-93.7,12.3s-17.7-13.9-30.8-6.6c-1.5,0.8-3.1,1.4-4.7,1.8c-0.9,0.2-1.9,0.5-2.9,0.6c-3.1,0.5-6.2,0.8-9.4,0.8
			c-5.1,0.1-27.2,67-62.6,95.1c13.6-14.1,52-96.7,50.2-96.3c-13.6,2.8-14,5.8-16.5,5.6c-1.4-0.1-48.8,84.3-49.6,84.4
			c-1,0.2,41.2-85.2,40.2-85.1c-1.2,0.2-8.9-2.8-3-5.1c4.5-1.7-8.7,0.8-8.7,0.8s-6.3,19.2-15.1,32.7s-43.7,60.4-52.5,65.6
			s-51.1,29.7-51.1,29.7s31.5-11.1,46.3-12.6c21.1-2.1,50-4.6,66-4.6c27.1,0,42.8,5.2,74.3,4.2s62.1,5.2,75.2,7.3
			s153.9,7.2,153.9,7.2s-162.6-28.1-174.9-35.3s-5.4,2.8,22.6-2.4s172.5,39.2,190.9,36.1c8.2-1.4-120.9-68-109.9-69.3
			c0.9-0.1,118.1,61,119,60.9c12.5-1.5-92.8-63.8-89.6-63.8c6.1,0-28.8-23.2-14.8-20.1c122.9,34.3,172.1,48.3,172.1,48.3
			s-68.8-45.1-76.7-54.5s-37.8-33.8-37.8-33.8L1412.6,812.8z"/>
		
			<linearGradient id="SVGID_38_" gradientUnits="userSpaceOnUse" x1="13064.7002" y1="142.175" x2="13204.1602" y2="142.175" gradientTransform="matrix(-1 0 0 -1 13699.3301 900)">
			<stop  offset="1.000000e-02" style="stop-color:#336300"/>
			<stop  offset="1" style="stop-color:#5C9600"/>
		</linearGradient>
		<path class="st51" d="M624.3,727.5c0,0-4.8,2.2-6.3,3.5s-15.9,14.6-24.1,24.3s-23.9,21.8-29.8,24.5S495.2,793,495.2,793
			s63.5-15.2,66.8-16.9s14.1-11,18.9-15.5s10.8-11.9,10.8-13.7c0.1-2.7,1-5.3,2.6-7.5c1.8-2.2,3.7-8.4,3.7-8.4s-8.5,8.8-10.8,11.5
			s-8.9,8.8-10,10.6c-0.8,1.2-2,2.1-3.3,2.7c0,0,8.6-8.8,11.1-12.8s8.2-12.8,8.2-14.1v-1.3c0,0-22.9-1.1,6-2.4
			c24.7-1.1,3-1.2,4.4-1.2c0.7,0,4.9-0.9,6.3-1c4.2-0.1,10-0.4,10-0.4s8.2,5.7,11.5,4.8l3.3-0.9
			C634.6,726.6,627.2,731.5,624.3,727.5z"/>
		
			<linearGradient id="SVGID_39_" gradientUnits="userSpaceOnUse" x1="13028.6699" y1="145.095" x2="13161.9199" y2="145.095" gradientTransform="matrix(-1 0 0 -1 13699.3301 900)">
			<stop  offset="1.000000e-02" style="stop-color:#336300"/>
			<stop  offset="1" style="stop-color:#5C8C00"/>
		</linearGradient>
		<path class="st52" d="M657.5,734.6c-6.3,7.6-8,4.8-18.6,18.1c-11.7,14.7-34.5,20.9-47.5,27.1s-54,7-54,7s41.6-7,50.7-10.8
			s29.9-15.5,37.7-20.1s8.5-10.8,9.2-14s-0.3-15.2-0.3-15.2s12-0.3,15.9,0.5s20.1-4.1,20.1-4.1s-9.7,10.3-7.1,14.2
			s6.5,12.5,6.5,12.5S658.1,739.3,657.5,734.6z"/>
		
			<linearGradient id="SVGID_40_" gradientUnits="userSpaceOnUse" x1="888.0273" y1="326.5625" x2="818.8073" y2="251.7425" gradientTransform="matrix(1 0 0 -1 0 900)">
			<stop  offset="1.000000e-02" style="stop-color:#FAF7A6"/>
			<stop  offset="1" style="stop-color:#8CD95C"/>
		</linearGradient>
		<path class="st53" d="M731.4,632.3c42,0.5,81.5-13.6,91.2-11.3s37.5,1.7,43.4,2.8s71.8,6.3,71.8,6.3s-47.9,13.5-94.6,1.1
			c-11.7,1.2-2.6,5-10.4,6.2c-20.4,3-17.8-0.7-46.7-6.2c0,0,35.9,12.3,50.6,12.3s63.2,4.8,63.2,4.8s-61.7,10.4-76.3,8.1
			s-29.3-2.7-38.5-6.7C774.2,645.1,752.6,643.6,731.4,632.3z"/>
		
			<linearGradient id="SVGID_41_" gradientUnits="userSpaceOnUse" x1="1115.1594" y1="297.6935" x2="1002.6494" y2="176.0935" gradientTransform="matrix(1 0 0 -1 0 900)">
			<stop  offset="1.000000e-02" style="stop-color:#A6E37D"/>
			<stop  offset="1" style="stop-color:#8CD95C"/>
		</linearGradient>
		<path class="st54" d="M915.3,697.6c0,0,17.7-5.5,13.8-0.8c20.5-1.2,12.6-3.4,25.3-3.4c7,0,17-1.4,26.3-2.5
			c7.6-0.9,14.7-1.5,19.5-1c2.7,0.3-25.7,9.9-20.7,10c3.7,0,40.5-9.5,44.5-9.5c12.2-0.1,59.6-1.4,59.6-1.4s-52.8-3.5-56.3-6.2
			s-64.2,3.2-72,1.6c-1.7-0.4,70.3-11.9,64.2-13.3c-8-1.7-23.9-0.1-26.1-0.1s39.3-7.8,54.2-10c7.2-1.1-24.3,9.7-17,10.1
			c2.8,0.2,14.1-1.6,38.6-0.8c15.1,0.5,45.4-5,71-2.6c3.9,0.4-82.8,11.3-80.5,12.2c8.5,3.3,10.1,2.1,14.6,3
			c5.9,1.2,65.8-1.2,65.8-1.2l44.4,2.2c0,0-93.6,15.3-110.2,14.2l-16.6-1.2c6.7,2.3,13.6,4.3,20.5,5.8c10.7,2.3,19.5,3.5,19.5,3.5
			s-5.6,4.5,5.5,3.4s31.6-3.4,31.6-3.4s-50.7,7-65.3,10.5s-12.9,0.5-18.6,2.6s-26.2,2.1-23.3,2.1s5.8-7,15.6-5.8s5.8-2.3,5.8-2.3
			s-3.9-8.1-14.6-4.7s-13.7,7.2-19,5.9s-5.9-3.1-10.2-2.5c-7.9,1.2-19.3,5-12.5,2.7s9.6-8.5,13.5-8.5s12.7-2.3,12.7-2.3
			s-21.5-4.7-28.3,1.2s-10.7,4.7-14.6,4.7s-8.7,5-14.1,4.8s-23.1-3.3-20.2-2.1s-0.8-1.5,15.7-6.2l16.6-4.7c0,0-27.3-1.2-35.1,2.3
			s-9.8-1.2-16.6-1.2s-46.1,5.8-50,5.8S927,691.8,915.3,697.6z"/>
		
			<linearGradient id="SVGID_42_" gradientUnits="userSpaceOnUse" x1="736.9168" y1="279.7136" x2="658.0769" y2="194.5036" gradientTransform="matrix(1 0 0 -1 0 900)">
			<stop  offset="1.000000e-02" style="stop-color:#A6E37D"/>
			<stop  offset="1" style="stop-color:#8CD95C"/>
		</linearGradient>
		<path class="st55" d="M614.9,651.6c3.5-0.5,15.6-12.8,32.2-10.5s19.5,0,23.4,0c7.9,0.3,15.8,1.5,23.4,3.5
			c7.8,2.3,13.7-5.8,19.5,1.2s17.6,7,23.4,10.5s28.3,9.3,28.3,9.3h-20.6c-7.2,0,65.2,24.3,47.8,20.3c-2.4-0.5-77.3-11.6-79.8-11.7
			c-9.8-0.5-15.1-10.5-24.4-8.7c-11.7,2.3-56.6,11.6-61.5,13.9s-54.6,15.1-58.5,16.3s22.4-12.8,41-17.4s30.2-17.4,46.8-18.6
			s30.2-4.7,32.2-3.5s-33.2-5.8-40-2.3s-14.6-1.2-19.5,1.2s-15.6,4.7-21.5,9.3s-41.9,12.8-41.9,12.8s27.2-15.4,34.1-17
			S606.1,652.8,614.9,651.6z"/>
		
			<linearGradient id="SVGID_43_" gradientUnits="userSpaceOnUse" x1="217.1305" y1="255.374" x2="189.4905" y2="122.054" gradientTransform="matrix(1 0 0 -1 0 900)">
			<stop  offset="2.000000e-02" style="stop-color:#4A9633"/>
			<stop  offset="0.98" style="stop-color:#307300"/>
		</linearGradient>
		<path class="st56" d="M336.1,741.8c18.4-9.5,65.3-23.7,65.3-23.7s-18,3.2-45.4,10.7s-43.5,17.4-94.6,33.2s-130.5,27.2-130.5,27.2
			s68.9-15.2,137.2-40.3c124-45.6,165.9-53.3,165.9-53.3s-45.9,3.6-62,7.6s-26.5,8.8-80.4,25.3c-50,15.4-108.5,21.9-116.7,22.7
			c-0.7,0.1-1,0.1-1,0.1l1-0.1c3.4-0.4,16.5-2.1,52-9.4c42.5-8.7,81.3-24.9,81.3-24.9s-47.6,16.2-127,18.6S1.2,757-21.1,755.4
			l-12-0.8c0,1,0,1.9,0,2.9c0.7,1.1,1.3,2.2,1.9,3.3c5.8,9,9.2,19.5,9.6,30.2c2.4,10.7,1.9,21.9-1.4,32.4c-0.2,1.7-0.5,3.3-0.7,5
			h190c45.5-25.5,92.8-47.7,141.4-66.5c15.5-5.9,49.1-22,66.7-24.5c32.6-4.7,53.4-13.5,53.4-13.5c-15.4,5.2-31.5,8.3-47.8,9.1
			C353.6,734.3,317.7,751.3,336.1,741.8z"/>
		
			<linearGradient id="SVGID_44_" gradientUnits="userSpaceOnUse" x1="12684.9443" y1="59.9098" x2="12689.1543" y2="202.9099" gradientTransform="matrix(-1 0 0 -1 13699.3301 900)">
			<stop  offset="0" style="stop-color:#458029"/>
			<stop  offset="1" style="stop-color:#1F7A4F"/>
		</linearGradient>
		<path class="st57" d="M1656.6,778.9c-3.7-8.2-5.2-16.9-5.8-25.5c-0.1-3.3,0-6.5,0.3-9.8c-2.8-8.2-4.2-16.8-4.3-25.4
			c0-17.8,0.8-35.7,1.9-53.5c-51.7,14.2-179,47.3-227.5,44.1c-4.3-1.2-19.3-2.7-35.2-0.9c-5.9-0.3-15.9,4.8-22.7,5.7
			c-8.4,1.2-9.6,1.2-19.5,2.8c-60.9,9.7-147.6,26.9-226.4,46.8c-468.6,48.9-224.9,7.5-257.7,9.8c-159.1,11.3-214.1,30.9-244.7,36.7
			c1.9-1.5,42.7-20.1,92.9-27.1c-39.7-3.5-250,28.4-258.2,31.5c-40,2.7-55.9,1.7-80.4,7c5.2,8.2,206.7-18.4,222.8-22
			c4.5,3.2-101.9,18.3-119.7,23.4c-10,5.3,0,5.7,0,5.7h1179.2c1.3-2.5,2.5-5.1,3.8-7.7c0.9-1.9,1.8-3.7,2.8-5.6
			c-0.3-8.8-0.8-17.6-1.2-26.4C1656.9,785.5,1656.7,782.2,1656.6,778.9z"/>
		
			<linearGradient id="SVGID_45_" gradientUnits="userSpaceOnUse" x1="76.4372" y1="119.8872" x2="104.9672" y2="193.4172" gradientTransform="matrix(1 0 0 -1 0 900)">
			<stop  offset="1.000000e-02" style="stop-color:#336300"/>
			<stop  offset="1" style="stop-color:#30802E"/>
		</linearGradient>
		<path class="st58" d="M90.1,720c52.7-12,163.1-25.1,163.1-25.1s-145.3,16-194.4,8.4c-28.6-4.4-67.3-11.9-90-16.4
			c-0.7,23.5-1.7,47-2,70.5c0.7,1.1,1.3,2.2,1.9,3.3c5.9,9,9.2,19.5,9.7,30.2c2.1,9.5,2,19.3-0.4,28.7c11.3-1.9,26.5-5,46.7-10.1
			c36.3-10.1,139.9-48.3,156-53.6C100.3,776.8,74.6,766.5-10,780.8c0,0,27.6-18.8,72.6-26.3c36.5-6.1,133-20,133-20
			s-144,2.7-168.9,5.7c30.5-15.1,212.1-15.5,212.1-15.5S141.1,716,90.1,720z"/>
		
			<linearGradient id="SVGID_46_" gradientUnits="userSpaceOnUse" x1="2491.9155" y1="-873.5125" x2="2784.6055" y2="-343.5424" gradientTransform="matrix(-0.32 -0.89 0.94 -0.34 1267.99 2607.9399)">
			<stop  offset="3.000000e-02" style="stop-color:#052B00"/>
			<stop  offset="1" style="stop-color:#007200"/>
		</linearGradient>
		<path class="st59" d="M137.6,267.6c-5-11.6-35.3-15.4-35.3-15.4S9.3,335.5-150.5,418.4c-63.5,32.9-128.8,62.2-195.6,87.8
			c0.2,39.1,0.5,78.3,0.3,117.4c1.5,1.1,3.2,2,5,2.6c33.6,10.8,89.6-14.2,89.6-14.2s-93.3-51.5-66.1-71.8s56.9,69.2,83.1,65.6
			s56.9-21.9,56.9-21.9l-77.2-108.7c0,0,80.3,101.9,86.4,101.9s23.6-12,23.6-12s-92.5-102.9-91-101.3S-134.5,561-134.5,561
			l53.3-27.9c0,0-104.9-80.4-90.6-87.8s88.3,82.1,96.7,82.7s42-26.1,42-26.1l-77.9-83.1c0,0,78.3,72.6,89.9,71.4
			s26.8-17.1,26.8-17.1l-74.1-66.7c0,0,73.5,54.8,82.2,53.9s31.6-29,31.6-29l-72-57.1c0,0,71.2,36.6,90.3,29s31.6-31.1,31.6-31.1
			L54,354.9l45.7,8.8l9.3-19l-76.2-14.8c0,0,62.9,5.5,76.1,0s25.5-33.7,25.5-33.7l-60.1,1C74.2,297.2,142.6,279.1,137.6,267.6z"/>
		
			<linearGradient id="SVGID_47_" gradientUnits="userSpaceOnUse" x1="4775.6812" y1="-966.1934" x2="4624.291" y2="-1393.8335" gradientTransform="matrix(0.3042 0.9526 0.9526 -0.3042 -500.5867 -4037.1772)">
			<stop  offset="0" style="stop-color:#D1F6B0"/>
			<stop  offset="1" style="stop-color:#7CCE76"/>
		</linearGradient>
		<path class="st60" d="M-218.4,783.4c-44.6-3-89-3.1-124.2-2.4c0.2,2.6,0.4,5.2,0.6,7.8c0.3,0.8,0.6,1.5,1,2.3
			c37.9-0.6,81.3-0.8,109.9,1c150.1,9.4,262,29.6,262,29.6S-118,790.2-218.4,783.4z"/>
		
			<linearGradient id="SVGID_48_" gradientUnits="userSpaceOnUse" x1="4839.833" y1="-1353.2773" x2="4913.873" y2="-798.8773" gradientTransform="matrix(6.906001e-02 0.9976 0.9976 -6.906001e-02 468.1398 -4319.3452)">
			<stop  offset="3.000000e-02" style="stop-color:#052B00"/>
			<stop  offset="1" style="stop-color:#007200"/>
		</linearGradient>
		<path class="st61" d="M-34.2,505.4c0,0,41.9-10.2,46.5-16.6s-3.2-32-8.4-34.6s-71.1,77.4-219.1,165.2
			c-43.2,25.6-88.7,48.7-131.5,68.6c-0.1,3.4-0.2,6.7-0.3,10.1c0.4,12.7,0.9,25.3,1.6,37.9c0.6,11.4,1.2,22.8,2,34.1
			c13.8,14,29.3,27.8,39,30.6c28.1,8.3,111.1-37.7,111.1-37.7s-124.4-23.4-99.9-55.1c29.1-37.8,82.5,49.2,110.2,49.8
			c24,0.5,70.9-55,70.9-55l-89.4-70.8c0,0,97.2,57.4,101.9,56.1s23.4-21.3,23.4-21.3l-90.6-56.3c0,0,96.2,42.4,100.5,42.1
			s16-20.2,16-20.2L-96,613.4c0,0,49.2,11.4,53,8.2s33.7-44.6,33.7-44.6s-87.1,3-81.7-16.5c5.7-20.4,80.7,15.6,84.1,10.3
			s25-66.2,25-66.2L-34.2,505.4z"/>
		
			<linearGradient id="SVGID_49_" gradientUnits="userSpaceOnUse" x1="4758.6797" y1="-1342.4381" x2="4832.7197" y2="-788.0382" gradientTransform="matrix(6.906001e-02 0.9976 0.9976 -6.906001e-02 468.1398 -4319.3452)">
			<stop  offset="3.000000e-02" style="stop-color:#053200"/>
			<stop  offset="1" style="stop-color:#37DE00"/>
		</linearGradient>
		<path class="st62" d="M-34.2,505.4c0,0,41.9-10.2,46.5-16.6s-3.2-32-8.4-34.6c-3.8-2-40.8,41.2-119.5,99.3
			c-1.9,4.7-3.9,9.4-6,14.1c-7.7,17.5-15.7,34.8-24,52c28.6,12.5,76.4,33.1,79.4,32.9c4.3-0.3,16-20.2,16-20.2L-96,613.4
			c0,0,49.2,11.4,53,8.2s33.7-44.6,33.7-44.6s-87.1,3-81.7-16.5c5.7-20.4,80.7,15.6,84.1,10.3s25-66.2,25-66.2L-34.2,505.4z"/>
		
			<linearGradient id="SVGID_50_" gradientUnits="userSpaceOnUse" x1="6323.0718" y1="4424.4639" x2="5880.0117" y2="3641.0139" gradientTransform="matrix(-0.96 -0.61 -0.56 0.88 7976.8398 953.51)">
			<stop  offset="0" style="stop-color:#A3DB40"/>
			<stop  offset="0.21" style="stop-color:#91CE3C"/>
			<stop  offset="0.73" style="stop-color:#67B034"/>
			<stop  offset="1" style="stop-color:#57A431"/>
		</linearGradient>
		<path class="st63" d="M-619.3,731.1c0.2,3.2,0.4,6.5,0.6,9.7c163.1,81.9,263.7,115,297.5,132.1c-37.9-0.1-83.1-21-292.5-69.3
			c0.2,2.6,0.5,5.3,0.8,7.9c146.6,52.7,292.4,100.6,320.3,109c-28.6,3.4-119.4-12.5-315.3-60.9c0.1,1.2,0.3,2.3,0.4,3.5
			c77.1,27.4,143.2,50.4,200.5,69.4c57.3-2.6,114.5-4.6,171.9-4.5c62.4,0.1,124.8,2.7,187.2,3.7c62.2,1,124.3,1.6,186.5,1.8
			c19.9,0.1,39.8,0.2,59.8,0.2c72.3-25.4,154.8-51.4,250.9-62.5c-84.8-15.2-181.4,15.1-314.7,26.1c73.8-47,182.3-50.4,303.9-97.9
			c-172-0.9-250.8,25.3-354.8,51c110-77.1,245.3-103.9,305.4-136.1c-25.7,0-219.4,36.1-347.4,88.9c0.2-14.5,72.1-95.6,193.9-196.7
			c-23.4-1.2-200.1,98.5-261.4,178c-17.9-49.3,44-164.2,55.3-242.1c-75.5,48.4-135.9,202.1-162.8,235.1
			c-23.3-32.9-72.6-139.4-117-266.6c-1.7,165.5,45.2,233.5,75.3,279.8c-12.6-2.7-138.6-92.7-310.5-198.6
			C-345.4,727.9-247.7,790.4-221.6,808c-20.5,3.4-236.8-106.5-392.1-173.6c140,83.4,277.1,180,345.8,201.4
			C-292.6,837.5-437.3,793.9-619.3,731.1z"/>
		<g>
			<defs>
				<path id="SVGID_51_" d="M1390.8-45.3c-30.3,12.4-34.1,33.4-34.1,33.4s-5.3,19.8,30.4,29.1c59.3,15.4,82.7,5.7,93.8-2.2
					c5.7-4.1,13.8-41.6-10.4-60.1C1444.9-64.4,1420.3-57.1,1390.8-45.3"/>
			</defs>
			<clipPath id="SVGID_52_">
				<use xlink:href="#SVGID_51_"  style="overflow:visible;"/>
			</clipPath>
			<g class="st64">
				
					<linearGradient id="SVGID_53_" gradientUnits="userSpaceOnUse" x1="2345.1221" y1="1292.1873" x2="2346.2422" y2="1292.1873" gradientTransform="matrix(155.19 -134.53 134.53 155.19 -536448.5 115033.8203)">
					<stop  offset="0" style="stop-color:#82CDD9"/>
					<stop  offset="0.15" style="stop-color:#82CDD9"/>
					<stop  offset="0.9" style="stop-color:#D7EEF4"/>
					<stop  offset="1" style="stop-color:#D7EEF4"/>
				</linearGradient>
				<path class="st65" d="M1377.1-88.5l-54.3,67.8l90.2,152.9L1524-6.4l-47.3-80.2C1443.5-87.1,1410.3-87.8,1377.1-88.5z"/>
			</g>
		</g>
		<path class="st66" d="M-164.7,909c26-58.4,155.1-320.3,169.1-335.8C-52.7,620.6-211.1,851-176.2,908.8L-164.7,909z"/>
		<path class="st66" d="M-152.8,909.3c85.9-54.1,229.2-268.2,237.3-317c-95.7,65.1-249,264.3-275.1,316.1
			C-178.1,908.7-165.4,909-152.8,909.3z"/>
		<path class="st66" d="M-114.7,910.3c92.1-43.5,239.2-104.3,425.3-151.5c-250,29.5-415.9,97.7-490.1,149.9
			C-157.9,909.2-136.3,909.8-114.7,910.3z"/>
		<path class="st66" d="M-118.6,910.2c119.1-67,289.7-174.8,384.2-247.1c-185.9,56-382.7,170.8-477.9,245
			C-181.1,908.5-149.8,909.4-118.6,910.2z"/>
		<path class="st66" d="M-59.4,911.5c20.2,0.3,40.4,0.6,60.7,0.8c17.1-4.3,34.9-9,53.4-14c-62.8-8-126.7-0.2-179.1,11.8
			C-102.8,910.6-81.1,911.2-59.4,911.5z"/>
		<path class="st66" d="M-59.4,911.5l19.3,0.3c146-35.9,335.1-88.7,407.8-107c-243.6,18.7-413,69.4-506,104.9
			C-112,910.4-85.7,911.1-59.4,911.5z"/>
		
			<linearGradient id="SVGID_54_" gradientUnits="userSpaceOnUse" x1="845.8276" y1="732.1907" x2="979.7776" y2="732.1907" gradientTransform="matrix(1 0 0 -1 0 900)">
			<stop  offset="0" style="stop-color:#056100"/>
			<stop  offset="1" style="stop-color:#29C200"/>
		</linearGradient>
		<path class="st67" d="M936.4,86.7c-3.4-0.1-6.8-0.1-10.2-0.2l-0.1,0.3l-1.5-0.3c-5.2-0.1-10.3-0.3-15.5-0.4l-7.1-0.2
			c-7.2,1.6-13.4,5.8-15.1,14.8c-3.4,18.4,20.2,13.4,31.3,10.1c-4.1,10.8-8.8,21.3-13.7,31.2c-9.1-2.7-38.4-9.6-40.8,10.6
			c-1.7,14.3,20.5,11.2,30.4,9.1c-4.4,7.9-8.9,15.3-13.2,22.1c-7.1-1.1-30.1-3.7-34.4,7.1c-4.5,11.1,15.3,13.1,20.7,13.4
			c-10.2,14.6-17.5,23.2-17.5,23.2s7.4,28.1,17.7,21.2c9.3-6.2,0.8-33.8-1-39.5c5.9-6.9,12.8-15.5,20.1-25.5
			c1.2,8.6,5.1,28.5,16.3,26.4c13.6-2.5,0.1-33.8-4.4-43.6c5.2-7.9,10.3-16.3,15.1-25.2c1.7,9.1,7.4,34.4,18.1,22.5
			c10.8-12.1-3.1-35.5-7.9-42.8C928.8,109.9,933,98.4,936.4,86.7z"/>
		
			<linearGradient id="SVGID_55_" gradientUnits="userSpaceOnUse" x1="7276.6646" y1="704.111" x2="7393.1606" y2="704.111" gradientTransform="matrix(-1 0 0 -1 7423.3901 900)">
			<stop  offset="0" style="stop-color:#056100"/>
			<stop  offset="1" style="stop-color:#29C200"/>
		</linearGradient>
		<path class="st68" d="M116.2,243.9c-3.7-5.9-7.6-12.4-11.5-19.2c8.7,1.8,28,4.5,26.5-7.9c-2.1-17.6-27.6-11.5-35.5-9.2
			c-4.3-8.7-8.4-17.8-11.9-27.2c9.7,2.9,30.2,7.2,27.2-8.8c-3.3-18.3-28-13.6-34.1-12.1c-0.3-1.1-0.6-2.2-0.9-3.4
			c-1.5-5.7-2.8-11.3-4-16.7c8.8,5.3,27.2,14.5,28.7-0.4c1.8-18.8-28.9-27.1-34.2-28.4c-0.9-5.6-1.6-10.8-2.2-15.7
			c10,7.2,33.6,22.3,36.5,6.1c0.6-3.7-0.3-7.5-2.4-10.5c-15.6,0.2-31.2,0.4-46.8,0.7h-4.2c-10,13-23.5,34.2-13.9,42.8
			c9.3,8.3,19.7-9.1,24.1-17.7c0.9,4.4,1.8,9,2.9,13.9c-4.6,7.4-26.8,44.8-11.1,57.2c9.5,7.6,15.8-17.6,18.1-29.2
			c3,10.7,6.8,21.1,11.4,31.2c-4.2,6.3-16.3,26.7-6.9,37.3c9.3,10.4,14.3-11.6,15.7-19.6c4.2,7.8,8.7,15.1,13.2,21.9
			c-4,8.5-15.7,35.7-3.9,37.9c9.8,1.8,13.2-15.5,14.2-23c6.3,8.7,12.4,16.2,17.5,22.2c-1.6,5-9,29-0.9,34.4c9,6,15.4-18.4,15.4-18.4
			s-6.3-7.5-15.2-20.2c4.7-0.3,21.9-2,18-11.7C142.4,240.7,122.4,243,116.2,243.9z"/>
		
			<linearGradient id="SVGID_56_" gradientUnits="userSpaceOnUse" x1="158.8418" y1="704.592" x2="274.9792" y2="704.592" gradientTransform="matrix(1 0 0 -1 0 900)">
			<stop  offset="0" style="stop-color:#056100"/>
			<stop  offset="1" style="stop-color:#29C200"/>
		</linearGradient>
		<path class="st69" d="M210.6,88.6c-13.4,16-3.8,32.1,31.1,7.1c-0.6,4.9-1.3,10.1-2.2,15.7c-41.8,6.7-48,54.2-5.5,28.9
			c-1.5,6.4-3.1,13.4-5,20c-37.3-12.2-51.9,35.3-6.9,20.9c-3.6,9.4-7.6,18.5-11.9,27.2c-38.9-14.6-52.7,27.3-9,17.1
			c-3.9,6.9-7.7,13.3-11.5,19.2c-28-6.5-46.7,14.6-11.9,17.8c-8.9,12.7-15.2,20.2-15.2,20.2s6.4,24.5,15.4,18.4
			c8.1-5.4,0.7-29.4-0.9-34.4c5.1-6,11.1-13.5,17.5-22.2c5.5,38.8,32.7,26.8,10.3-14.9c4.5-6.9,9-14.2,13.2-22
			c8.4,46.2,31.8,11,8.9-17.7c4.6-10.1,8.5-20.5,11.5-31.1c12.5,62.9,40.3,17.3,7-28c1.1-4.9,2.1-9.5,2.9-13.9
			c21.7,41.5,43.2,12,8.3-28C241.2,88.9,225.9,88.7,210.6,88.6z"/>
		<path class="st70" d="M298.8-137.4c-8.6,3.2-17.2,6.5-25.7,9.8l-5.1,2c-1,2.4-2,4.9-3.1,7.4c-89.4,23.4-75.9,68.9-20.4,46
			c-13.3,28.6-29.3,60.6-48,93.9c-92.3-2.1-90.5,53.8-23.1,39.4c-21.3,35.2-44.8,69-70.2,101.3C16.1,145.8,9.5,200.8,72.6,199
			c-28,31.7-59.3,61.9-93.6,88.2c-73.5-42.7-94.8,9-39.3,27.3c-41.5,26.1-87,45.9-136.2,55.6c-38.2-80.1-83-43.6-43.1,6.5
			c-49.5,5.1-94.4,1.9-135.1-7.6c-0.5-9.5-3.9-65.7-21.2-67.4c5.2,16.8,10.3,33.6,15.4,50.5c4.8,16,9.6,32,14.6,48
			c4.4-3.8,9-8,13.9-12.8c45,7,92.5,6.2,142.6-2.3c-8.9,13.8-21.1,37.2-8.7,45.6c14.5,9.8,40.6-36.2,50.3-54.8
			c49.1-13.8,97.1-38,143.4-72c-2.8,15.1-5.6,43,11.3,43.5c19.7,0.5,24.1-55.7,25-72.4c31.8-27.4,62.5-59.4,92.3-96.1
			c1.3,14.6,5.9,40.3,23,35.6c20.2-5.5,9.5-58.3,6-73.4c24.2-33.4,46.6-68,67-103.8c3.7,14,12.1,34.6,27.8,27.8
			c19.6-8.4,1.8-56.5-4.1-71c19.8-37.7,36-72.7,48.6-102C302.4-56.3,335.1-88.9,298.8-137.4z"/>
		<rect x="9.9" y="-84.3" class="st71" width="1600" height="900"/>
		<path class="st72" d="M1605.6,718c-2.4,4-9.3,33.5-11.4,38.5c-1.4,3.3-2.8,37.3-3.2,61l9.4-0.1c0-22.8,0-54.3,0.4-63.4
			c0.7-14.8,15.3-41,15.3-41s-1.1,10.8,11.7,15.3s36.9-1.4,28.5-21.1s-36.8-3.8-36.8-3.8c5.3-17.5,24.7-54.8,24.7-54.8
			s5,9.5,22.9,15.3s28.8-3.5,26.1-17s-39.6-12.1-39.6-12.1s32.8-27.8,38.9-48.8s-5.4-30.1-20.6-22.3s-17.4,62.5-17.4,62.5
			c-3.8,2.5-17.7,25.3-17.7,25.3c4.1-12.9,3-49.8-3.9-64.8s-14.3-9.2-14.5,21s15.3,51.2,11.6,56.8s-18.3,43.1-18.3,43.1
			c1.4-9.8,3.3-37.5-2.3-57.2s-14.7-21.4-17.2-3.9S1608,714,1605.6,718z"/>
		<path class="st72" d="M1585.2,785.8c0,0-20.7-17.1-23.5-36.8s0.9-33.5,10.8-23.7s17.8,33.7,17.6,44.2s7.9,20.9,7.9,20.9
			S1594.5,796.8,1585.2,785.8z"/>
		<path class="st72" d="M1439.4,656.2c22.2,21.5,48.1,23.8,49.7,30.8s19.8,45.6,19.8,45.6c-6.4-8.1-25.6-29.3-43.8-38.7
			s-25.6-3.2-14.3,11.4s60.6,34.7,62,39.5s18.7,31.5,20.9,36.7c1.2,2.9,18,20.7,33.6,36.4l13.6-0.2c-16.7-15.9-38.4-36.9-44.7-43.4
			c-10.5-11-20.2-41.6-20.2-41.6s7.3,8.5,19.1,1.3s23.4-31.3,3.3-38.3s-27.2,27.5-27.2,27.5c-9.4-16.8-24.3-59.2-24.3-59.2
			s10.4,2.6,26.4-8s16.4-26,4.6-33.5s-35.2,23.9-35.2,23.9s1.1-46.7-10.4-66.5s-25.9-16.9-30.2,1s34.7,58.6,34.7,58.6
			c-0.7,4.9,7,32.5,7,32.5c-6.9-12.5-34.9-37.8-50.6-42.8S1417.2,634.6,1439.4,656.2z"/>
		<path class="st72" d="M1549.4,809.6c0,0-26.4,4.8-42.8-6.8s-24.2-24.5-10.4-25.7s36.8,9.3,44.4,16.9s20.7,8.3,20.7,8.3
			S1563.8,809.8,1549.4,809.6z"/>
		<path class="st72" d="M1581.1,817.7l9.3-0.2c3-7.9,4.9-24.7,4.1-36.8c-1.1-17.3-17.6-25.8-22.5-9.1s5.3,40.1,5.3,40.1
			C1578.4,813.9,1579.6,815.9,1581.1,817.7z"/>
		<path class="st72" d="M1321.2,788c19.6,9,60.7,0,60.7,0s-17.6,22.9-16.7,36.5c9.7-0.5,19.5-0.9,29.2-1.3c0.5-1.2,1-2.4,1.5-3.8
			c6.5-19.2,2.3-30,2.3-30s40.1,8.9,56.7,16.2c0,0-12.7,5.9-18.6,15.8c11.2-0.4,22.3-0.8,33.5-1.1c-0.3-4.3-2.3-8.2-5.6-11
			c0,0,19.6,3.6,33,10.2l11.1-0.3c-8.1-3.5-29.9-14.9-34-15.5c-4.5-0.7-31.2-50.7-46.1-60.4s-19-0.8-7.5,17.4s33.7,35.4,42,40.9
			c0,0-37.4-13.2-43.9-13.7s-13.2-28.2-36.2-48.6s-32-18-24.7-1.9s34.6,42.2,46.9,47.5c0,0-25.8-3.7-30-2.1c0,0-43-35.3-58.1-27.7
			S1301.6,779,1321.2,788z"/>
		<path class="st72" d="M1517,819l19.7-0.5c-1.6-9.8-5-22.6-12.3-31.3c-13.2-15.8-26-22-24.6-7C1501,792.2,1509.5,809,1517,819z"/>
		<path class="st73" d="M1516.3,702.2c-2.9,4.8-11.3,40.5-13.8,46.4c-1.6,3.8-3.3,42.4-3.8,70.8l11.3-0.3c0-27.2,0.1-63,0.5-73.6
			c0.8-17.8,18.4-49.4,18.4-49.4s-1.3,13,14.1,18.5s44.6-1.7,34.4-25.4s-44.4-4.6-44.4-4.6c6.4-21.2,29.8-66.2,29.8-66.2
			s6.1,11.5,27.6,18.4s34.7-4.3,31.5-20.6s-47.8-14.6-47.8-14.6s39.6-33.6,46.9-58.9s-6.5-36.3-24.8-27s-21,75.4-21,75.4
			c-4.6,3-21.4,30.5-21.4,30.5c4.9-15.6,3.6-60.1-4.8-78.2s-17.2-11-17.5,25.3s18.5,61.8,13.9,68.5s-22.1,52-22.1,52
			c1.7-11.9,4-45.3-2.8-69s-17.7-25.9-20.8-4.7S1519.2,697.4,1516.3,702.2z"/>
		<path class="st73" d="M1491.8,784c0,0-25-20.6-28.4-44.3s1.1-40.4,13-28.6s21.5,40.7,21.2,53.3s9.6,25.2,9.6,25.2
			S1503,797.2,1491.8,784z"/>
		<path class="st73" d="M1533.9,818.6c6.3-4.3,12.2-9.2,17.6-14.6c13.4-13.8,7.4-35.3-10.3-27.4s-29,34.7-29,34.7
			c-1,2.5-1.7,5.2-2.1,7.9C1518.1,819,1526,818.8,1533.9,818.6z"/>
		<path class="st73" d="M1315.7,627.5c26.8,26,58,28.7,60,37.2s23.9,55,23.9,55c-7.7-9.8-30.8-35.4-52.9-46.6s-30.9-3.8-17.2,13.7
			s73.2,41.9,74.8,47.7s22.5,38,25.3,44.3c1.4,3.3,20.1,23.2,38.2,41.6c5.3-0.2,10.7-0.3,16.1-0.5c-19.7-18.9-44-42.3-51.2-49.8
			c-12.6-13.3-24.4-50.2-24.4-50.2s8.8,10.3,23,1.5s28.3-37.8,4-46.3s-32.8,33.2-32.8,33.2c-11.5-20.3-29.3-71.4-29.3-71.4
			s12.5,3.1,31.9-9.6s19.8-31.5,5.6-40.4s-42.4,28.9-42.4,28.9s1.3-56.3-12.5-80.2s-31.2-20.4-36.4,1.3s41.9,70.8,41.9,70.8
			c-0.9,5.9,8.4,39.2,8.4,39.2c-8.3-15.1-42.1-45.6-61.1-51.6S1289,601.5,1315.7,627.5z"/>
		<path class="st73" d="M1448.6,812.7c0,0-31.8,5.9-51.7-8.2s-29.2-29.6-12.6-31s44.4,11.2,53.5,20.4s25,10,25,10
			S1465.8,812.9,1448.6,812.7z"/>
		<path class="st73" d="M1484.9,819.9l14.1-0.4c3.1-10.3,4.9-28.3,4-41.6c-1.3-20.8-21.2-31.1-27.1-11s6.4,48.4,6.4,48.4
			C1483.1,816.9,1483.9,818.4,1484.9,819.9z"/>
		<path class="st73" d="M1173.1,786.7c23.7,10.9,73.2,0,73.2,0s-22.8,29.8-20,45.9c11.5-0.7,23-1.4,34.4-2.1
			c0.9-1.9,1.7-3.9,2.4-5.9c7.8-23.1,2.8-36.2,2.8-36.2s48.4,10.7,68.4,19.6c0,0-15.7,7.2-22.6,19.4c8.4-0.5,16.8-1,25.3-1.4
			c5.1-0.3,10.2-0.5,15.3-0.8c-0.5-5-2.9-9.6-6.7-12.8c0,0,21.6,4,37.6,11.3c4.3-0.2,8.5-0.4,12.8-0.6
			c-11.3-5.2-33.7-16.8-38.1-17.5c-5.4-0.8-37.7-61.1-55.6-72.9s-22.9-1-9,21s40.7,42.7,50.7,49.4c0,0-45.1-15.9-53-16.6
			s-15.9-34-43.7-58.6s-38.6-21.8-29.9-2.3s41.7,51,56.6,57.3c0,0-31.1-4.4-36.2-2.5c0,0-51.8-42.7-70.1-33.4
			S1149.4,775.8,1173.1,786.7z"/>
		<path class="st73" d="M1408.3,822.6c8.2-0.3,16.4-0.7,24.6-1c-2-11.5-6.2-25.9-14.5-35.8c-15.9-19.1-31.4-26.6-29.7-8.4
			C1390.1,791.1,1399.5,810.3,1408.3,822.6z"/>
		<rect x="9.9" y="-84.3" class="st71" width="1600" height="900"/>
		<path class="st74" d="M1991.2,1090.3c-4.1-15-5.7-31.2-6.3-46.9c-0.5-11.9,1-23.9,1-35.9c0-72.8-0.6-145.6-1.1-218.5
			c-0.5-73.5-0.3-147.1,4-220.5c0-7.9,0.6-15.8,1.9-23.6c0-2.3,0.1-4.5,0.1-6.8c-23.1-74-47.5-152.7-51.6-164.2l-30.3-99.1
			c-4.1-11.4-18.5-109.2-26-130.1s-39.4-83.3-39.4-83.3l-19-53.3l-29.8-83.2c0,0,23.7-25.5,47.8-26.4c21.4-0.8,39.5-21.4,48.5-31.6
			c-29.5-0.2-58.9-0.6-88.4-1.2c-84.2-1.6-168.3-4.3-252.5-7.2c-17.3,0.6-34.6,1.2-51.9,1.7l-18.2,0.6c-0.4,2.2-0.9,5.2-1.3,9.4
			c6.8,11.4,4.3,6.6,9.1,20s7.5,17.7,19.4,40.4c8.8,16.8,21.6,40.6,28.4,59.7s63.9,135.7,68,147.1s31.5,126.8,35.6,138.2
			s24.1,132.1,14.8,142.1s17,47.6,21.1,59s34,66.2,40.8,85.2s47.2,167.9,60.1,204s51.2,258.4,46.1,308.7
			c-3.5,34.6-41.3,82.4-64.5,108.8c29.5,0.4,58.9,1.3,88.4,2.9c5-2.3,8.5-4.4,10-6c5.6-6,13.7,0.4,22.4,8.2l2.7,0.2
			c24.4,1.9,48.9,3.9,73.4,4.7c12.1-5.5,23.4-12.6,31.1-20.9c1.1-1.2,2.4-2.3,3.8-3.2l0.6-1.9c1-3.4,2-6.8,3-10.2
			c-0.3-16.2-0.8-32.4-1.3-48.6C1991.5,1102.4,1991.3,1096.4,1991.2,1090.3z"/>
		<path class="st75" d="M1627.7,216.8c9.8,61.8-56.8,74-56.8,74C1346,357.1,1234-142.4,1234-142.4l-19.8-2.1
			c-11.6,0.1-23.2,0.2-34.9,0.2c85.3,169.6,68,164.6,68,164.6C1187.2-1.2,1154.1-110,1145-144.5c-17.6-0.2-35.1-0.6-52.7-1.1
			C1206,135.7,1276.1,96.6,1276.1,96.6c133.9,371.2,396.1,306.5,396.1,306.5C1703.3,212.4,1627.7,216.8,1627.7,216.8z"/>
		<path class="st76" d="M1951.6,790.2c-66-58.9-133-116.5-208.3-154.6c-53.1-26.9-109.1-44.8-164.8-61.3
			c-11.7-3.5-49.4-22.2-60.9-14.5c-8.7,5.8,22.2,17.1,27.9,19.8c81.9,38.8,166.7,67.4,247.1,111.4c50,27.4,93.2,66.2,137.7,105.3
			l15.4,13.5c0.9-5.7,3.8-7.9,5.7-13L1951.6,790.2z"/>
		<path class="st76" d="M1488.2,553.3c27.6-20.8,59.3-28.2,93.8-31.8c19.5,19.4,33.4,43.7,40.2,70.4l12.7-1.8
			c-5.7-20.8-15.7-41.7-31.2-62.9c18.8-6.2,38.4-5.2,58.8,0.8c13.9,32.5,21.5,61.3,24.8,87.8l14,6.2c-4.3-30.7-11.5-61-21.3-90.4
			c50.5,0.5,96.2,16,140.2,36.9c19.6,57.1,29.5,105.5,32,147.2C1739.6,637,1618.6,580.4,1488.2,553.3z"/>
		<path class="st76" d="M1488.2,553.3c-4.6,29.5,12.2,57,41,83.4l79.8-29.7l9.1,15.8l-71.8,22.6c29.3,27.4,64.7,45.8,101.4,62.3
			l112.1-23.5l14.6,9.3l-102,29c20.9,18.2,44.8,32.5,70.7,42.4l113-33.7C1748.4,649.2,1624.4,592,1488.2,553.3z"/>
		<path class="st77" d="M1963.1,890.5c9.4-11.2,32.6-19.2,36.3-34.3c-59.2-52.8-116.4-132.5-162.1-199c-17-24.8-33.4-48.7-50.2-73.8
			c-14.1-21.1-30.6-40.1-46.8-58.8c-32-37.1-62.8-71.2-99-102.6c-14.9-13-27.4-29.4-42.2-42c0.6,23,21.5,47.3,31.6,65.5
			c12.1,22,25.4,41.2,38.7,61.9c27.6,42.9,56.3,83.3,88.3,121.3c30.4,36.1,64,63.9,95.1,99.9c34.2,39.5,66.7,81.2,98.9,123.2
			c8,10.3,15.2,21,23.2,31.3c1.8-4.8,6.7-4,9-7.2L1963.1,890.5z"/>
		<polygon class="st77" points="1569.6,353.3 1637.1,356.8 1624.8,389.4 1656,370.9 1693.6,394.2 1676.9,423.1 1705.5,404 
			1762.8,439 1716.5,488.6 1787.7,442.8 1806.7,466.9 1755.2,510.4 1814.5,478.9 1876.9,551.4 1828.3,618.4 1888,580.7 
			1919.2,637.5 1873.4,684 1927.2,659.5 1938.9,729.7 1887,740.1 1595.1,378.1 1866.7,745.8 1822.6,792.4 1803.4,760.3 
			1828.5,727.9 1796.2,750.1 1754,691 1765.2,659.9 1747.2,682.5 1711.5,648.1 1731.7,608.3 1699.6,633.3 1622.9,536.3 
			1648.5,493.5 1613,525.4 1605.7,515.2 1632.8,481.7 1604,500 1592.4,479 1614.2,434.3 1582.6,461.1 1565.1,422.1 1594.2,404.6 
			1562.8,398.1 		"/>
		<path class="st78" d="M2079.1,982c-3.2-12.3-5.1-24.8-5.8-37.5c-19.4-29.6-42-61.2-39-64.4l-50.2,54.8l34.4-74.3l-52.3-45
			l-52.3,72.3l30.7-98.1l-91.2-45.4l-54,65.4l41.6-74.1l-28.4-16.1l-62.2,87.2l33.9-78.2L1711,721l-24.7,35.8l8.6-40.1l-48.3-5.3
			l-27.7,36.5l2.7-41.8l-74.2,32l7.3,52l36.1-9.6l-25.8,34.3l31.6,32.9l25.4-45.7l-9,59.9l19.4,16.6l25.2-35l-18.4,50.4l11.2,7.2
			l28-53.2l-13.8,59.8l114.8,64.4l26.6-44.1l-8.9,53.8l49.9,18.3l12-33.9l-2,39.5l65,41.6l27.8-41l-16.5,48.2
			c15.6,12.2,26,19.9,43.7,24.4c1.8,0.5,6.9,1.5,13.4,3.1c17.4,1.3,34.8,2.5,52.2,3c6.4-16,12-26.6,23.2-39.3
			c-40.3-28.8-86.1-48.6-129.8-76.6c-116.8-74.6-235.3-145.4-353-217.6c122.7,67,245.7,133,368.1,200.8
			c23.1,12.8,104.9,67.3,125.8,79.2c0.7-3.5,1.8-6.8,3.4-10c-0.2-7.1-0.4-14.2-0.6-21.2C2079.4,994.1,2079.3,988,2079.1,982z"/>
		<path class="st78" d="M1590.7,780.6l-25.8,34.3l31.6,32.9l25.5-45.7l-9,59.9l19.4,16.6l25.2-35l-18.4,50.4l11.2,7.2l28-53.2
			l-13.8,59.8l114.8,64.4l26.6-44.1l-8.9,53.8l49.9,18.3l12-33.9l-2,39.5l65,41.6l27.8-41l-16.5,48.2c15.6,12.2,26,19.9,43.7,24.4
			c1.8,0.5,6.9,1.5,13.4,3.1c17.4,1.3,34.8,2.5,52.2,3c6.4-16,12-26.6,23.2-39.3c-40.3-28.8-86.1-48.6-129.8-76.6
			c-112.1-71.6-225.7-139.7-338.8-208.9c-4.6-2.2-9-4.8-13-7.9l-1.3-0.8l0.8,0.5c-3.1-2.3-6.2-4.8-9.3-7.2
			c-5.6-4.2-11.6-7.7-18-10.5l-9.2,4l7.3,52L1590.7,780.6z"/>
		<path class="st79" d="M1919.3,190.3c-0.8-22.9-2.1-45.8-3.3-68.6c-0.8-0.3-1.6-0.6-2.5-0.8l2.2-4.4c-0.7-13.7-1.3-27.4-1.7-41.1
			c-1-31.6-0.1-63.2,2.7-94.6c-3.7-9.8-8.6-16.3-15.3-16.1c-25.2,0.8-9.2,138.9-7,156.9c-43,80.5-92.4,152.6-148.6,206.2
			c5-28.2,13.6-91.1-5.1-107.3c-22.4-19.5-34.4,120.6-36.1,142.2c-43.7,32.5-91.2,53.5-142.4,58.9c47.5-114.5,4.6-174.2-44.4,0.7
			c-50.5-4-96-29.5-136.6-69.1c60.3-55,43.7-153.2-38.1-42.9c-33-42.3-62.3-93.6-88.2-149c66-16.7,65.2-126.1-28-64.5
			c-24.5-61-44.7-122.2-62.2-183.2c69.1,7.5,77.2-106.6-19.8-72.6c-9.4-36.6-17.9-72.6-25.5-107c-4.6,0.2-9.2,0.3-13.8,0.5
			c4.2,19.4,8.7,39.3,13.5,59.6c-7.8,31.3-31.8,134.5-12.2,145.4c15.7,8.7,26.7-35.9,32.2-65.5c16.8,63.9,37.6,131.8,58.6,189.2
			c-5.3,31.7-22.5,142.4-1.9,147c17.4,3.9,25.1-49.7,28.1-79.6c27,64.9,55.7,120.1,86,165.5c-0.9,33.5-2.6,146.3,18.1,138.9
			c17.7-6.4,17.9-62.2,16.7-91.9c44.7,54,92.3,87.7,142.2,100c8.2,34.7,30.3,119.7,46.6,95.1c14-21.1,3.8-64.6-4-89.8
			c51.5,1,101.2-12.7,149.2-41.3c60.9,109.4,90.8,35.1,42.4-29.5c55.7-44.3,108.6-109.4,158.7-195.3c15.9,9.5,29.1,13.2,39.5,13
			C1919.4,193.5,1919.3,191.9,1919.3,190.3z"/>
		<path class="st80" d="M1755.2,610.7c-14.6-25.6-57-97-69-83.3c-9.3,10.6,6.9,40.4,19.9,60.6c2.7,4.2,2.2,7.5-0.8,6.1
			c-40.8-18.1-79.9-39.8-116.9-64.7c-2.2-1.6-4-3.9-5-6.5c-9.8-25.8-39.4-99.4-56.8-93.7c-12.9,4.2-3.7,31.9,5.5,52.8
			c1.8,4.2-0.1,6-3.5,3.2c-46.5-37.7-93.2-83.6-138.6-139.6c-1.7-2.1-2.8-4.6-2.8-6.2c0-16.7-1.3-88.3-26.2-97.8
			c-18.1-6.9-18.6,18.2-16.6,37.1c0.4,3.6-3.6,2.5-6.8-2c-39.9-55.6-75.8-113.9-107.2-174.7c-1-2-1.3-3.8-0.8-4.7
			c6.7-11,32.7-57.4,7.2-78.7c-18.8-15.6-29.2,0.4-34.2,13.7c-1,2.6-6.1-1.1-8.2-6c-30.6-69.6-54.7-141.9-72.1-216
			c-8.7-0.2-17.5-0.5-26.2-0.8l-7.2-0.3c9.1,10.3,18.4,20,25.3,27c1.7,1.7,2.9,3.7,3.6,5.9C1139-78,1168-0.5,1204.3,73.8
			c1.9,3.9,0.7,6.1-2.4,4.2c-15.8-9.9-35.3-18.7-35.8-2.6c-0.7,21.3,49.3,52.3,71,64.7c1.9,1.3,3.5,3,4.6,5
			c35.6,63,75.6,123.4,119.8,180.6c3,3.9,3.4,7.9,0.8,7.5c-14.1-2.1-30.6-0.8-24.6,18.9c7.8,25.3,51.2,31.4,70.3,32.8
			c1.2,0.1,2.8,1.2,4.3,2.9c47.3,53.6,98.1,100,151.9,139c3.7,2.7,6.5,8.6,4.7,10c-9.4,7.3-19.3,20.5-6.7,40.3
			c16.8,26.4,47.3-1.7,57.3-12.1c0.6-0.6,1.6-0.5,2.8,0.3c37.7,22.8,77.4,42.4,118.5,58.3c3.5,1.4,7.5,7.8,6.5,10.3
			c-5.1,12.3-8.6,31,6,47.8c20.2,23.3,36.5-22.4,41.3-38.3c0.3-0.8,1-1.1,2-0.8c13.3,4,26.8,7.5,40.4,10.7c0-5.1,0.1-10.2,0.2-15.3
			c-25.9-5.9-51.5-13.2-76.6-21.9C1758.9,615.5,1756.7,613.3,1755.2,610.7z"/>
		<path class="st80" d="M1859.9,681.8c-1.8-0.6-4-2.8-5.4-5.4c-14.4-25.7-56.5-97.5-68.5-83.9c-9.3,10.5,6.7,40.4,19.6,60.8
			c2.7,4.2,2.2,7.5-0.9,6.1c-40.7-18.5-79.7-40.5-116.5-65.8c-2.2-1.7-4-3.9-5-6.5c-9.7-25.9-38.8-99.7-56.3-94.3
			c-12.9,4-3.8,31.8,5.2,52.8c1.8,4.2-0.1,5.9-3.6,3.1c-46.3-38.1-92.7-84.5-137.8-140.9c-1.7-2.1-2.8-4.6-2.8-6.2
			c0.1-16.7-0.8-88.3-25.6-98c-18-7.1-18.7,18-16.8,36.9c0.3,3.6-3.6,2.4-6.8-2.1c-39.6-55.9-75.1-114.6-106.2-175.7
			c-1-2-1.3-3.8-0.8-4.7c6.8-10.9,33-57.1,7.6-78.7c-18.7-15.8-29.2,0.1-34.3,13.4c-1,2.6-6.1-1.2-8.2-6
			c-30.5-70.6-54.4-143.8-71.3-218.7c-0.3-1.5,0-2.6,0.8-2.8c11.2-2.9,61.1-17.7,38.8-47.5c-16-21.3-34.1-17.4-45.2-11.8
			c-2.2,1.1-7.5-4.5-8.2-8.8c-3.6-22-6.4-43.3-8.5-64c-4.4,0-8.8-0.1-13.3-0.2c1.9,16.6,4,33.4,6.7,50.1c2.7,17.1,5.7,34.1,9.1,51
			c0.7,3.5-2.1,3.6-5.3,0.2c-14.6-15.6-33.3-31.8-39.8-21.9c-8.6,13.2,35.5,61.1,57,83.3c1.7,1.7,2.9,3.7,3.6,5.9
			c20.9,80.1,49.5,157.9,85.3,232.4c1.9,3.9,0.6,6.1-2.4,4.2c-15.7-10-35.2-19-35.8-2.9c-0.8,21.3,49,52.7,70.6,65.4
			c1.9,1.3,3.5,3,4.6,5.1c35.2,63.4,74.9,124.1,118.8,181.8c3,3.9,3.4,7.9,0.8,7.5c-14.1-2.2-30.6-1-24.7,18.6
			c7.7,25.4,51,31.8,70.1,33.5c1.2,0.1,2.8,1.2,4.2,2.9c47,54,97.6,101,151.1,140.4c3.7,2.7,6.4,8.7,4.6,10
			c-9.4,7.2-19.5,20.4-7,40.3c16.7,26.5,47.3-1.2,57.4-11.6c0.6-0.6,1.6-0.5,2.8,0.3c37.6,23.2,77.1,43.1,118.2,59.5
			c3.5,1.4,7.5,7.8,6.4,10.3c-5.2,12.2-8.7,31,5.8,47.9c12.6,14.8,23.8,2.3,31.7-13l-0.3-44.6
			C1875.8,687.4,1867.9,684.7,1859.9,681.8z"/>
	</g>
</g>
</svg>
