<?xml version="1.0" encoding="utf-8"?>
<!-- Generator: Adobe Illustrator 25.2.3, SVG Export Plug-In . SVG Version: 6.00 Build 0)  -->
<svg version="1.1" id="Layer_1" xmlns="http://www.w3.org/2000/svg" xmlns:xlink="http://www.w3.org/1999/xlink" x="0px" y="0px"
	 viewBox="0 0 1600 900" style="enable-background:new 0 0 1600 900;" xml:space="preserve">
<style type="text/css">
	.st0{clip-path:url(#SVGID_2_);}
	.st1{fill:#2BA1DB;}
	.st2{fill:url(#Cloud_1_);}
	.st3{fill:#0571AD;}
	.st4{opacity:6.000000e-02;}
	.st5{opacity:6.000000e-02;enable-background:new    ;}
	.st6{opacity:0.69;}
	.st7{fill:#E7F1F7;}
	.st8{fill:#82BBDD;}
	.st9{fill:#CAD7E9;}
	.st10{fill:#1E82B6;}
	.st11{fill:#DEE3E9;}
	.st12{fill:#9DBDDC;}
	.st13{fill:#84A2BF;}
	.st14{fill:#6C8AA5;}
	.st15{fill:#AED2EF;}
	.st16{fill:#9CB5CF;}
	.st17{opacity:0.69;fill:#10709F;enable-background:new    ;}
	.st18{fill:#10709F;}
	.st19{opacity:0.72;}
	.st20{fill:#247EAC;}
	.st21{fill:#0C597F;}
	.st22{fill:#206285;}
	.st23{fill:#E8F1F6;}
	.st24{fill:#81B8E4;}
	.st25{fill:#0E5176;}
	.st26{fill:#5C94B9;}
	.st27{fill:#2880A5;}
	.st28{fill:#96CBE8;}
	.st29{opacity:0.1;enable-background:new    ;}
</style>
<g>
	<defs>
		<rect id="SVGID_1_" width="1600" height="900"/>
	</defs>
	<clipPath id="SVGID_2_">
		<use xlink:href="#SVGID_1_"  style="overflow:visible;"/>
	</clipPath>
	<g class="st0">
		<g>
			<polygon id="Rive" class="st1" points="-308.3,360.5 1887.2,356.7 1887.5,956.7 -307.1,957.2 			"/>
			
				<linearGradient id="Cloud_1_" gradientUnits="userSpaceOnUse" x1="785.6769" y1="327.6701" x2="806.9569" y2="1027.7401" gradientTransform="matrix(1 0 0 -1 0 900)">
				<stop  offset="0.41" style="stop-color:#AAD4ED"/>
				<stop  offset="0.6" style="stop-color:#7ABCE0"/>
				<stop  offset="0.77" style="stop-color:#56ABD7"/>
				<stop  offset="0.91" style="stop-color:#40A0D1"/>
				<stop  offset="1" style="stop-color:#389CCF"/>
			</linearGradient>
			<rect id="Cloud" x="-291.9" y="-8.2" class="st2" width="2179.4" height="366.1"/>
			<polygon class="st3" points="-309.3,360.6 1895.6,355.8 1894,393.5 1648.5,408.1 1444.2,415.9 300.2,438 15.3,438 -312.4,452.2 
							"/>
			<g id="_05" class="st4">
				<polygon points="678,456.7 678,470.9 711.9,475.3 763.6,460.8 763.6,454.4 717.3,447 				"/>
				<polygon points="678,456.7 711.9,461.1 763.6,454.4 763.6,460.8 711.9,475.3 678,470.9 				"/>
			</g>
			<g id="_05-2" class="st4">
				<polygon points="200.7,421.8 200.7,443.3 232.3,450 280.4,427.9 280.4,418.2 237.3,407 				"/>
				<polygon points="200.7,421.8 232.3,428.5 280.4,418.2 280.4,427.9 232.3,450 200.7,443.3 				"/>
			</g>
			<polygon class="st5" points="1883.4,569.3 753.6,609.5 1881.3,669.4 			"/>
			<g id="_05-3" class="st6">
				<polygon class="st7" points="200.7,410.7 200.7,432.2 232.3,438.9 280.4,416.8 280.4,407.1 237.3,395.9 				"/>
				<polygon class="st8" points="200.7,410.7 232.3,417.4 280.4,407.1 280.4,416.8 232.3,438.9 200.7,432.2 				"/>
			</g>
			<g id="_05-4">
				<polygon class="st7" points="678,449.4 678,463.5 711.9,467.9 763.6,453.4 763.6,447 717.3,439.7 				"/>
				<polygon class="st8" points="678,449.4 711.9,453.8 763.6,447 763.6,453.4 711.9,467.9 678,463.5 				"/>
			</g>
			<polygon class="st9" points="1782.1,154.8 1755.2,216.6 1768.7,209 1735.5,356 1576,353.7 1651.2,257.7 1690.7,285.1 
				1721.1,200.6 			"/>
			<path class="st10" d="M1597.6,404.6h-162l-0.2,0.3H763.2l7.3,1.7l-37.1-0.8l88,26.2l40.1,42.6l58.7,17l30.5-4.5l53.3-42.4
				l42.6,11.8l59.5,56.6l13.5,100.2l21.6,76.7l38.1,25.6h72.8l1.7-2.4l-1.2,2.5l91.9-98.8l13.8-22.1l12.9-17.7l57.1-10.8l40.8-39.4
				l-6.1-16.9l20.4,2.3L1597.6,404.6z M964.8,423.2l-2.5-1.2l0.6,0.1L964.8,423.2z"/>
			<polygon class="st11" points="720.2,408.1 755.2,408.1 747,413.9 1423.4,416.8 1407.5,402.8 744.9,399.4 			"/>
			<g>
				<polygon class="st12" points="819.2,367.5 693.9,242.8 581.3,237 547.3,31.1 502.7,16.6 439,-154.5 -4.8,-354.6 -472,-148.7 
					-605.8,-154.5 -890.4,-87.8 -888.2,355.9 				"/>
				<path class="st13" d="M373.2-108.1L352-26.9l36.1,252.3l17-69.6l34.1,208l380,3.7L693.9,242.8L581.3,237l-34-205.9l-44.6-14.5
					L439-154.5c0,0-125.3,31.9-123.2,31.9S373.2-108.1,373.2-108.1z"/>
				<path class="st14" d="M439.1,363.7C456,364.6,581.3,237,581.3,237l112.6,5.8l-127.4,58l-112.1,64.6L439.1,363.7z"/>
				<polygon class="st14" points="547.3,31.1 502.7,16.6 377.6,147.9 390.2,245.7 405,155.8 				"/>
				<polygon class="st13" points="317.3,363.6 348.8,363.6 313.7,242.8 326.5,245.7 286.1,126.8 309.5,-3.7 269.1,126.8 
					305.2,216.7 288.3,210.9 				"/>
				<path class="st11" d="M27.8,360.6C27,353,35.5,42.7,35.5,42.7L71.6-61.7L56.8,60.1l70.1-232l95.6,49.3l144.4,17.4l-45.2-16.5
					L439-154.5L-4.8-354.6L-472-148.7l-133.8-5.8l-284.6,66.7v98.6l169.9,43.5l78.6-98.6l-6.4,46.4l320.7-69.6l220.9-168.2
					l-29.7,63.8l29.7-20.3l-97.7,150.8l29.7,11.6l133.8-179.8L-9-229.9L71.6-140L-9.1,34l-17.8,327.7L27.8,360.6z"/>
				<polygon class="st13" points="275.5,42.7 242,-119 305.2,-137.1 281.9,-163.2 343.5,-163.2 243.7,-177.7 271.3,-145.8 
					210.3,-126.9 				"/>
				<polyline class="st13" points="27.8,360.6 35.5,42.7 71.6,-61.7 56.7,51.3 126.9,-171.9 107.7,135.5 139.6,13.7 169.6,361.9 
					22.5,361.9 				"/>
				<polygon class="st13" points="-26.9,361.6 -9.1,34 66.4,-141.3 -9.1,-229.9 -40.9,-209.6 -174.7,-29.8 -191.7,234.1 -162,158.7 
					-142.9,358.8 				"/>
			</g>
			<g>
				<g id="Mountian_02">
					<polygon class="st11" points="763.2,409.8 1595.7,409.8 1528.1,322.7 1425.3,109.3 1392.9,89.5 1341.5,-68.9 1309,-104.1 
						1252.3,-288.4 1179.4,-288.4 1141.4,-230.8 1119.7,-58.4 1106.2,166.9 1046.7,294.1 1000.8,322.7 962.9,371.1 916.9,385.1 
						884.5,346.4 					"/>
					<polygon class="st9" points="1000.8,409.8 1087.3,346.4 1144.1,346.4 1160.3,294.1 1160.3,124.7 1190.1,-174.5 1179.4,199.1 
						1190.1,322.7 1199.5,199.1 1199.5,304.2 1213.7,3.3 1234,243.5 1234,346.4 1264.4,409.8 					"/>
					<polygon class="st9" points="1325.3,409.8 1288.8,230.3 1234,71.9 1234,-81.2 1223.8,-99.7 1223.8,-288.4 1252.2,-287.9 
						1279.3,-200 1325.3,-86.5 1337.4,103.6 1410.4,409.8 					"/>
					<polygon class="st15" points="1325.3,-86.5 1337.4,103.6 1410.4,409.8 1546.3,409.8 1561.9,366.2 1425.3,109.3 1381.9,55.8 
						1341.5,-68.9 					"/>
					<polygon class="st16" points="1410.4,409.8 1337.4,103.6 1325.3,-86.5 1353.7,106.2 1443.6,409.8 					"/>
				</g>
				<polygon class="st13" points="1435.6,410.4 1324.2,27 1305.8,110.5 1289.5,-79.1 1299.7,-66.5 1252.7,-288.5 1344.6,-66.5 
					1369.1,22 1428.3,47.3 1469.2,135.8 1463.1,173.7 1483.5,168.6 1597.6,410.4 				"/>
				<polygon class="st14" points="1469.2,135.8 1440.2,238.7 1459.9,349.7 1461,232.6 1483.5,168.6 1463.1,173.7 				"/>
				<g>
					<polygon class="st13" points="733.5,407.8 937,396.7 1005.8,323.7 950.8,225.2 920.3,214.9 861.6,253.1 821.5,348.9 					"/>
					<polygon class="st11" points="977,355.8 839.4,391.1 861.7,367.9 872.5,292.7 926.2,245.5 920.3,214.9 861.6,253.1 
						821.5,348.9 733.5,407.8 937,397.8 					"/>
					<polygon class="st13" points="920.3,214.9 950.8,225.2 1005.8,323.7 968.2,365.1 931.5,375.4 872.5,292.7 926.2,245.5 					"/>
				</g>
			</g>
			<polygon class="st17" points="962.8,876.8 1321.8,897.1 1271.2,842.9 1738.7,883.5 1374.8,880.2 1437.5,927.6 781.3,929.8 			"/>
			<path class="st1" d="M742.9,480.6c6.2,0,332-14.5,332-14.5s-59.8,17.4-55.7,17.4s286.6-2.9,278.4-2.9s-348.5,34.8-348.5,34.8
				l30.9-14.5L742.9,480.6z"/>
			<path class="st1" d="M965.6,515.4c5.9,0,318.3-14.5,318.3-14.5s-57.3,17.4-53.4,17.4s274.8-2.9,266.9-2.9s-334.2,34.8-334.2,34.8
				l29.7-14.5L965.6,515.4z"/>
			<path class="st1" d="M843.9,625.6c5.9,0,318.3-14.5,318.3-14.5s-57.3,17.4-53.4,17.4s274.8-2.9,266.9-2.9s-334.1,34.8-334.1,34.8
				l29.7-14.5L843.9,625.6z"/>
			<path class="st1" d="M1365.6,448.7c3.8,0,204.8-14.5,204.8-14.5s-36.9,17.4-34.3,17.4s176.8-2.9,171.7-2.9s-215,34.8-215,34.8
				l19.1-14.5L1365.6,448.7z"/>
			<path class="st18" d="M1586.3,498.7c2.9,0,155.5-11,155.5-11s-28,13.2-26.1,13.2s134.2-2.2,130.3-2.2s-163.2,26.4-163.2,26.4
				l14.5-11L1586.3,498.7z"/>
			<path class="st3" d="M-154.2,469c6.2,0,332-14.5,332-14.5s-59.8,17.4-55.7,17.4s286.6-2.9,278.4-2.9S52,503.8,52,503.8l31-14.5
				L-154.2,469z"/>
			<path class="st3" d="M99.5,550.2c6.2,0,332-14.5,332-14.5s-59.8,17.4-55.7,17.4s286.6-2.9,278.4-2.9S305.7,585,305.7,585
				l30.9-14.5L99.5,550.2z"/>
			<g id="_07" class="st19">
				<polygon class="st20" points="-298.5,515.4 -302.6,535.7 -183.2,572.4 37.6,515.4 41.7,495.1 -16.1,471.9 -143.8,478.7 
					-203,467.4 				"/>
			</g>
			<g id="_07-2">
				<polygon class="st7" points="-290.7,483.1 -298.7,517.1 -189.5,545.4 41,495.7 41,475.2 -22.4,444.9 -150.1,451.6 -209.4,440.3 
									"/>
				<polygon class="st8" points="-290.7,483.1 -187.6,511.5 41,475.2 41,495.7 -189.5,545.4 -298.7,517.1 				"/>
			</g>
			<polygon class="st5" points="1508,461.6 1444.8,441 1386.3,459.9 1386,475.8 1416.8,522.3 1509.4,479.4 			"/>
			<polygon class="st5" points="947.8,485.5 883.5,506.4 883.5,536.8 939,546.2 1023.3,515 1023.3,501.3 			"/>
			<g>
				<g>
					<path class="st21" d="M265.5,1241.9l446.2-268.7l-62.6-8.7l42.8-13.1l54.4,2.2l62.6-30.6l41.2,15.3l56-13.1v-21.8l92.3-6.5
						l4.9-30.5l33,17.5l166.4-28.4l51.1-39.3l-8.2-100.4c0,0-990.9,241.6-1571.9,531.7L265.5,1241.9z"/>
					<polygon class="st22" points="1202.7,855.4 1253.8,816.1 1246.4,723.3 1184.6,761.6 					"/>
					<polygon class="st22" points="850,938.3 906.1,925.2 904,868.6 848.5,895.4 					"/>
				</g>
				<g>
					<path class="st23" d="M452.9,1027.7c0,0,72.5-58.9,351-144l44.5,13.1l56-15.3l-1.6-28.4l103.8-24l-5-21.8l34.6,10.9l153.3-37.1
						l57.7-45.8l10-100.4c0,0-23.1-69.8-168.1-63.3H896.2l-169.7-39.3l-797.1-13L-454.1,562l-8.3,355l38.7,135.7l425.1,43.9
						l261.9,49L452.9,1027.7z"/>
					<polygon class="st24" points="-389.7,1295.3 -540.3,1055 51,1064.6 512.2,870.7 519,991.4 139.7,1235.7 					"/>
					<path class="st25" d="M519,991.4c0,0,45.1-21.9,46.3-22.3s4.5-118.2,4.5-118.2l-150-34.9l92.3,54.5L519,991.4z"/>
					<polygon class="st24" points="565.3,969.2 633.8,942.7 668.8,824.8 569.9,851 					"/>
					<polygon class="st25" points="633.8,942.7 668.8,824.8 553.4,813.9 604.5,800.8 515.5,787.7 673.7,776.8 627.6,792.1 
						716.5,805.2 648.7,935.9 					"/>
					<polygon class="st24" points="648.7,935.9 803.9,883.7 815.4,789.9 716.5,805.2 					"/>
					<polygon class="st26" points="848.4,896.8 851.7,805.2 815.4,789.9 803.9,883.7 					"/>
					<polygon class="st24" points="848.4,896.8 904.4,881.6 904.4,792.1 851.7,805.2 					"/>
					<polygon class="st26" points="902.8,853.2 1006.6,829.2 986.8,746.3 883,774.7 904.4,792.1 					"/>
					<polygon class="st27" points="1036.3,818.3 1001.7,807.4 986.8,746.3 894.5,720.1 1047.8,731 					"/>
					<polygon class="st24" points="1036.3,818.3 1189.5,781.2 1206,693.9 1047.8,731 					"/>
					<path class="st28" d="M1189.5,781.2l57.7-45.8l9.9-100.4c0,0-8.2,34.9-51.1,58.9L1189.5,781.2z"/>
				</g>
			</g>
			<ellipse class="st1" cx="1109.9" cy="422.6" rx="261.9" ry="2.9"/>
			<rect x="-302.1" y="-5.7" class="st29" width="2187.6" height="416.7"/>
			<g id="_05-5">
				<polygon class="st7" points="883.5,497.6 883.5,528 939,537.5 1023.3,506.3 1023.3,492.6 947.8,476.8 				"/>
				<polygon class="st8" points="883.5,497.6 939,507.1 1023.3,492.6 1023.3,506.3 939,537.5 883.5,528 				"/>
			</g>
			<g id="_04">
				<polygon class="st7" points="1386.3,451.2 1386,467 1416.8,513.7 1509.4,470.7 1508,452.9 1444.8,432.3 				"/>
				<polygon class="st8" points="1386.3,451.2 1422,483.1 1508,452.9 1509.4,470.7 1416.8,513.7 1386,467 				"/>
			</g>
		</g>
	</g>
</g>
</svg>
