<?xml version="1.0" encoding="utf-8"?>
<!-- Generator: Adobe Illustrator 25.2.3, SVG Export Plug-In . SVG Version: 6.00 Build 0)  -->
<svg version="1.1" id="Layer_1" xmlns="http://www.w3.org/2000/svg" xmlns:xlink="http://www.w3.org/1999/xlink" x="0px" y="0px"
	 viewBox="0 0 1600 900" style="enable-background:new 0 0 1600 900;" xml:space="preserve">
<style type="text/css">
	.st0{clip-path:url(#SVGID_2_);}
	.st1{fill:url(#SVGID_3_);}
	.st2{fill:#D1E7FC;}
	.st3{fill:#4998CE;}
	.st4{fill:url(#SVGID_4_);}
	.st5{fill:url(#SVGID_5_);}
	.st6{fill:#8ABADE;}
	.st7{fill:#699AC5;}
	.st8{fill:#70A4D2;}
	.st9{fill:url(#SVGID_6_);}
	.st10{opacity:8.000000e-02;fill:#0071BC;enable-background:new    ;}
	.st11{opacity:0.42;fill:#FFFFFF;enable-background:new    ;}
	.st12{fill:url(#SVGID_7_);}
	.st13{fill:url(#SVGID_8_);}
</style>
<g>
	<defs>
		<rect id="SVGID_1_" width="1600" height="900"/>
	</defs>
	<clipPath id="SVGID_2_">
		<use xlink:href="#SVGID_1_"  style="overflow:visible;"/>
	</clipPath>
	<g class="st0">
		
			<linearGradient id="SVGID_3_" gradientUnits="userSpaceOnUse" x1="753.0716" y1="1430.8099" x2="747.4716" y2="-83.8698" gradientTransform="matrix(1 0 0 -1 0 900)">
			<stop  offset="0.12" style="stop-color:#90CBF6"/>
			<stop  offset="0.18" style="stop-color:#86C5F2"/>
			<stop  offset="0.42" style="stop-color:#65AFE3"/>
			<stop  offset="0.62" style="stop-color:#51A2DA"/>
			<stop  offset="0.75" style="stop-color:#4A9DD7"/>
		</linearGradient>
		<polygon class="st1" points="2477.6,591.3 -979.5,556.8 -976.4,-305.1 2455.6,-308.3 		"/>
		<polygon class="st2" points="126.9,342.7 203.2,332.2 233.3,330.1 299.3,312 343.6,294.6 355.9,294.6 371.7,286 400.8,300.4 
			411.8,303.6 442.5,305.1 455.5,311.7 518.5,317.5 709.6,486.5 -94.3,507 		"/>
		<polygon class="st3" points="754.3,373.8 850.7,311.3 911.5,286.1 952.2,286.1 987.8,275.1 1018.2,263 1105.5,293.5 1137.2,312.4 
			1140.4,318.4 1157.9,318.4 1198,335 1301.5,358.1 1372,442.1 657.9,449.4 		"/>
		<polygon class="st3" points="1246.7,442.4 1361.1,372.1 1427.1,368.9 1475.6,360 1518.9,348.5 1549.3,374.6 1567.4,380.5 
			1636,428.3 		"/>
		<polygon class="st3" points="1741.6,523.1 1464.8,389 1444.5,369.8 1404.7,356.6 1396.2,343.8 1359.1,316.6 1328.8,307.2 
			1286.6,274.7 1252.6,299.2 1239.4,303.2 1216.7,301.7 1188.4,319.2 1178.6,319.2 1163.1,325.7 1120.4,333 1079.9,341.2 
			1054.6,344.3 914.2,361.6 850.5,525.9 1741.6,525.9 		"/>
		
			<linearGradient id="SVGID_4_" gradientUnits="userSpaceOnUse" x1="295.1427" y1="717.0499" x2="254.4927" y2="3.9499" gradientTransform="matrix(1 0 0 -1 0 900)">
			<stop  offset="0.12" style="stop-color:#90CBF6"/>
			<stop  offset="0.18" style="stop-color:#86C5F2"/>
			<stop  offset="0.42" style="stop-color:#65AFE3"/>
			<stop  offset="0.62" style="stop-color:#51A2DA"/>
			<stop  offset="0.75" style="stop-color:#4A9DD7"/>
		</linearGradient>
		<polygon class="st4" points="-277.9,512.6 1567.4,525.9 1383.8,456.1 1272.2,395.4 1235,380 1203,380 1181.7,383.6 1143.2,371 
			1122.2,367.9 1117,362.1 1102.4,359.2 1085.3,348.5 1037,338.5 983.9,305.4 911,288.6 888.7,269.7 867.6,254.2 850.5,228 
			837.9,223.5 831.1,215.9 809.4,205.1 779.4,178.1 742.2,146.6 717,158.4 662.6,190.7 649,204.9 611,237.8 600.2,261 580.5,269.2 
			561.7,279.1 536.5,286 497.4,311.7 481.9,328 444,346 427.5,344.1 407.1,349.8 390.5,347.1 361.1,354.6 345.4,350.3 317.4,362 
			272.5,363.7 263.8,359.7 251.9,352.8 236.2,338.7 193.5,322.5 147.1,306.6 82.2,290.4 57.2,305.2 29.8,325.7 10.6,330.6 
			-9.1,341.6 -19.6,339 -31.7,344.5 -47.4,347.1 -138.6,392.9 -230.2,400.3 -1017.2,542.7 		"/>
		
			<linearGradient id="SVGID_5_" gradientUnits="userSpaceOnUse" x1="386.7765" y1="646.6401" x2="382.7765" y2="354.55" gradientTransform="matrix(1 0 0 -1 0 900)">
			<stop  offset="0.12" style="stop-color:#90CBF6"/>
			<stop  offset="0.21" style="stop-color:#7CBFEC"/>
			<stop  offset="0.38" style="stop-color:#5BABDA"/>
			<stop  offset="0.53" style="stop-color:#479ED0"/>
			<stop  offset="0.63" style="stop-color:#409ACC"/>
		</linearGradient>
		<polygon class="st5" points="721,177.3 699.7,197.9 708.4,207 698.4,211.7 677.6,232.6 655,258.8 667.2,254.4 682.7,246.9 
			705.7,232.6 719.8,232.6 734.1,239.8 722.5,237.5 713.2,239.8 694.3,256.8 675.9,264.3 612.3,316.2 589.5,321.3 581.8,326.5 
			589.5,338.9 551.2,349.7 539.7,362.1 521.6,361.3 500.3,364.7 497.7,368.4 500.3,374.6 484.4,374.6 472.8,379.4 455,382.8 
			463.1,402.3 380,473.9 170.4,473.9 116.6,434.9 59.8,383.8 42.4,370.8 55.5,357.4 39,345.2 31.7,336.2 39,328.6 56.9,309 
			82.2,290.4 147.1,306.6 193.5,322.5 236.2,338.7 251.9,352.8 263.8,359.7 272.5,363.7 317.4,362 345.4,350.3 361.1,354.6 
			390.5,347.1 407.1,349.8 427.5,344.1 444,346 481.9,328 497.4,311.7 536.5,286 561.7,279.1 580.5,269.2 600.2,261 611,237.8 
			649,204.9 662.6,190.7 717,158.4 742.2,146.6 734.1,168.9 		"/>
		<polygon class="st6" points="1351.6,448.5 1257.6,440.6 1161.5,444.6 1086.4,432.5 1055.5,419.6 990.3,415.5 985.7,417.5 
			930.3,419.3 913.3,416.5 885,420.9 868.8,416.2 853.7,412.6 796.8,412.6 734.5,410 662.5,421.7 656.8,424.3 640.6,426.8 
			623.6,429.3 603.6,417.3 591.6,417.3 514.6,422.7 499.2,425.3 426,428 400,425.3 371.7,431.2 333.6,435.1 190.6,453.5 
			113.7,533.1 109.7,559.8 1449.7,559.8 		"/>
		<polygon class="st7" points="-277.9,559.7 738.8,559.7 641.6,515 575.9,491.2 513.1,471.2 432.9,446 397,443.4 330.6,430.4 
			270.4,399.6 180.7,388.1 150.8,379.4 117.1,385.6 2.4,419.2 -14.4,419.2 -174.7,445.3 -229.2,461.9 -247.3,452.7 -987.4,539.5 		
			"/>
		<polygon class="st8" points="2476,539.5 1940.6,470.5 1701,446.1 1639.8,419.6 1541.8,410.6 1492.9,403.8 1459.8,406.8 
			1434,414.7 1391.4,414.7 1351,406.8 1301.9,410.6 1258.3,415.7 1207.9,415.7 1183.5,419.6 1141.4,415.7 1114,429 1087.5,429 
			1037.8,446.1 1012.3,449.3 991.7,455.7 964.2,455.7 949.2,462.7 931.8,465.4 909.3,462.7 868,478.7 756.3,519.1 471,585.1 
			1741.6,585.1 		"/>
		
			<linearGradient id="SVGID_6_" gradientUnits="userSpaceOnUse" x1="648.5994" y1="465.8892" x2="740.3294" y2="144.0092" gradientTransform="matrix(-1 8.000000e-02 -8.000000e-02 -1 1059.02 849.79)">
			<stop  offset="0" style="stop-color:#C6E2FF"/>
			<stop  offset="1" style="stop-color:#E5F2FF"/>
		</linearGradient>
		<path class="st9" d="M-993.7,534.8l18.8,339.1L1647.5,798c-8.7-2.4-16.8-4.7-22.7-6.9c-219.3-82.9-456.6-148.6-701.2-196.7
			C508.1,512.7,71.6,481.8-333.8,503C-341.9,503.5-985.5,534.3-993.7,534.8z"/>
		<polygon class="st10" points="-343.2,687.7 -305.5,674.8 -174.2,684.8 -329.5,626.8 -9.9,684.1 206.6,695.3 129.9,661 334.1,702 
			639.1,717.8 937.4,808.9 -339.9,728.9 		"/>
		<path class="st11" d="M-148.9,551.6l409.2-31.8l-60.1,19.3l607.7,54.8l85.1,32.2l94.4-14.8c-21-5.8-42.3-11.4-63.7-16.7
			C508.1,512.7,71.6,481.8-333.8,503l248.6,31.2L-148.9,551.6z"/>
		
			<linearGradient id="SVGID_7_" gradientUnits="userSpaceOnUse" x1="-430.4026" y1="475.2008" x2="-497.4026" y2="-22.2592" gradientTransform="matrix(-0.93 -6.000000e-02 7.000000e-02 -1 793.39 917.69)">
			<stop  offset="0" style="stop-color:#C6E2FF"/>
			<stop  offset="1" style="stop-color:#E5F2FF"/>
		</linearGradient>
		<path class="st12" d="M5.7,839.3l2485.8,132.8l-21.8-481.3c-9,0.1-692.4,3.5-701.5,3.7C1241.9,503.9,477.4,648.5,5.7,839.3z"/>
		<path class="st11" d="M193.4,794.6l113,7.5l97.3-50.8l712.5-141.7l-73-17.2l486.7-8.7l-77-14.3l315.3-74.9
			C1241.9,503.9,665,603.8,193.4,794.6z"/>
		<polygon class="st10" points="486.8,814 772.6,760.5 1055.1,782.5 1248.1,767.1 1173.2,791.7 1373.7,807.3 1674.8,790 
			1524.7,828.3 1646.8,834.6 1768.6,898.9 		"/>
		
			<linearGradient id="SVGID_8_" gradientUnits="userSpaceOnUse" x1="819.6774" y1="355.5301" x2="812.0275" y2="-131.4599" gradientTransform="matrix(-1 0 0 -1 946.61 900)">
			<stop  offset="0" style="stop-color:#C6E2FF"/>
			<stop  offset="1" style="stop-color:#E5F2FF"/>
		</linearGradient>
		<path class="st13" d="M-987.4,539.5l2.5,414.2l2235.8-46l-176.1-41c-81.5-22.7-164.3-43.8-248.6-63.5
			C757,786.9,687,771.7,616.5,757.6C324.8,698.9-697.2,562-987.4,539.5z"/>
		<path class="st11" d="M-990.5,541.1l17.3,55l800.3,86.7l268.1,15.1l-69.4,24.3l200,3.2l221.7,51.8l-76.6-35.6l189.9,29.1
			l265.5,32.5C757,786.9,687,771.7,616.5,757.5C324.8,698.9-700.3,563.5-990.5,541.1z"/>
		<polygon class="st10" points="-170.6,866.7 715.2,866.7 587.8,844.8 383.8,803.6 461,843.3 245.7,840.8 -73.2,785 82.7,850.6 
			-36.4,853.2 		"/>
	</g>
</g>
</svg>
