<?xml version="1.0" encoding="utf-8"?>
<!-- Generator: Adobe Illustrator 25.2.3, SVG Export Plug-In . SVG Version: 6.00 Build 0)  -->
<svg version="1.1" id="Layer_1" xmlns="http://www.w3.org/2000/svg" xmlns:xlink="http://www.w3.org/1999/xlink" x="0px" y="0px"
	 viewBox="0 0 1600 900" style="enable-background:new 0 0 1600 900;" xml:space="preserve">
<style type="text/css">
	.st0{clip-path:url(#SVGID_2_);}
	.st1{fill:#46DCFF;}
	.st2{fill:#178C80;}
	.st3{fill:#139E69;}
	.st4{fill:#2ABCB1;}
	.st5{fill:#1F7F58;}
	.st6{fill:#32CE95;stroke:#0C685D;stroke-miterlimit:10;}
	.st7{fill:#3CBF7A;}
	.st8{opacity:0.45;fill:#92CC36;enable-background:new    ;}
	.st9{fill:#659E7B;}
	.st10{fill:#61847D;}
	.st11{fill:#41685F;}
	.st12{fill:#5BA389;}
	.st13{fill:#256350;}
	.st14{fill:#22493F;}
	.st15{fill:#423628;}
	.st16{fill:#564837;}
	.st17{fill:#84766D;}
	.st18{fill:#93908C;}
	.st19{opacity:0.75;}
	.st20{opacity:0.43;fill:#88F1FF;enable-background:new    ;}
	.st21{fill:#045D6B;}
	.st22{fill:none;}
	.st23{fill:#163A30;}
	.st24{fill:#0A8C57;}
	.st25{fill:#94877E;}
	.st26{fill:#A8A4A0;}
</style>
<g>
	<defs>
		<rect id="SVGID_1_" width="1600" height="900"/>
	</defs>
	<clipPath id="SVGID_2_">
		<use xlink:href="#SVGID_1_"  style="overflow:visible;"/>
	</clipPath>
	<g class="st0">
		<rect x="-383.4" y="-14.6" class="st1" width="2297.5" height="756.7"/>
		<path class="st2" d="M951.6,635.1c25.5,4.3,50.8,10.2,75.6,16.4c22,5.5,42.3,12.3,63.5,19.2c22.7,7.4,51,6.1,74.7,6.2
			c24.4,0,49.9,1.7,74-1.5c22.2-3,44.1-7.4,66.3-10.7c66.7-10,129.5-23.7,197.6-22c67.9,1.6,135,17.2,203.1,13.8
			c44-2.2,87.3-93.4,130.4-88.8L1824,833.4H703.3V635.9c0-1.9,77.1-8.8,82.3-9c33.9-1.7,67.9,0.3,101.8,1.4
			C908.9,629.1,930.4,631.4,951.6,635.1z"/>
		<path class="st3" d="M761,577.8c-1.1,3.1-0.6,6.4-0.7,9.7c0,0.7,0,2.9-1.1,2.5c-1.4-0.5-0.8-12.9-4-10.6c-1.1,0.8-0.4,4.3-0.3,5.3
			c0.5,3.7,1.4,7.4,2.7,10.9l0.4,1.1c0.2,0.5,0.4,1,0.7,1.5c0.5,1.7,0.5,3.4,0,5.1c-0.3,1.2-0.6,2.4-1,3.5c-0.7,1.6-1.5,3.1-2.3,4.6
			c-1,1.9-2.2,3.8-3.5,5.5c-0.4,0.5-3.2,3.8-3.2,1.5c0.1-1.2,0.2-2.5,0.5-3.7c0.7-2.6,1.5-5.1,2.5-7.5c0.5-1.3,4.3-11.1,1.3-11.3
			s-5.4,14.4-6.2,16.8c-1.2,3.3-1.4,6.8-2,10.3c-0.5,2.3-1.3,6.7-3,8.4c-0.8,0.6-2,0.5-2.7-0.4c0-0.1-0.1-0.1-0.1-0.2
			c-0.5-1.1,0-2.9,0-4.1c0-1.7,0.2-3.4,0.3-5.1c0.3-3.5,0.8-7,1.6-10.4c0.9-3.4,2-6.8,3.2-10c0.7-2,1.5-4.1,2.2-6.2
			c1.1-3.5,1-6.6,0-6.8s-2.5,2.4-3.5,5.7c-0.7,2-1.4,4-2.1,5.9c-0.9,2.5-1.8,5-2.6,7.6c-0.4,1.4-0.7,2.8-1,4.1s-1.1,4.9-1.9,1.6
			c-1.2-4.8-1.6-9.9-1.1-14.8c0.7-4.4,1.8-8.6,3.3-12.8c1.1-3.3,2.1-6.6,2.8-10c1.2-5.7,0-10.4-1-10.3c-2.3,0.2-1.7,5.9-1.8,7.4
			c-0.1,2.1-1,7.9-3.1,3.3c-0.9-2.1-0.6-12.9-3.4-12.7c-0.9,0.1-1.5,5.3-0.3,11.5s2.1,13.6,1.3,17c-0.5,2-0.9,4.1-1.2,6.2
			c-0.9,6.8,0.7,12.4,2.2,17.7c1.2,4.3,2.4,8.5,2.3,13.3c0,2.9-1.5,0.7-2.1-0.7c-1.9-4.5-3.1-9.3-3.5-14.2c-0.1-1,0.1-5.1-1.7-4.6
			c-1.4,0.3-1.4,4.7-1.4,5.8c-0.2,4.4,1.1,7.7,2.6,11.8c0.9,2.3,1.8,4.6,2.4,6.9c0.9,3.7,0.6,9.1-4.5,8.7c-4.6-0.4-2.7-7.1-2.2-9.9
			c0.3-1.6,0.5-3.3,0.7-4.9c0.2-2.7-0.9-4.8-1.7-4.7s-1.2,2.3-1.4,4.7c-0.1,1.3-0.3,2.5-0.5,3.8c-0.1,0.8-0.7,3.5-1.7,1.6
			c-0.3-1-0.5-2.1-0.4-3.1c0-2,0.2-3.9,0.4-5.8c0.5-5,2.6-10.1,3.9-14.9c1.4-5.1,2.5-10.3,3.5-15.6c1.1-6.2,1-11.5,0.1-11.7
			s-2.4,4.6-3.4,10.5s-2.5,5.6-2-0.8c0.4-4.5,1-9.2,1.7-13.9c0.5-3.6,1-7.2,1.4-10.8c0.6-6-0.1-10.9-1.1-10.9s-1.7,4.8-2.3,10.6
			c-0.4,3.5-0.9,7.1-1.3,10.5c-1.1,7.6-2.1,15.3-2,23.1c0.1,6.4,0.5,13.7-0.5,16.5s-3.2,0-3.5-6.4c-0.5-10.2,1.1-21.3,2.6-32.1
			c0.6-4.3,0.8-8.9,1.7-13.1c0.3-1.3,0.3-2.6,0.6-3.9c0.4-2,0.7-4,0.8-6c0.1-1,0.5-3.4-0.6-4.1c-1.9-1.2-3.9,7-4,8.3
			c-0.6,6.1-1,12.1-1.9,18.2c-0.3,2.2-0.7,4.8-2.5,2.1c-0.8-1.4-1.5-2.8-2-4.3c-0.9-2.8-1.6-5.6-2.2-8.5c-0.7-3-1.3-6.2-2.8-8.9
			c-0.6-1.2-2.8-4.7-3.1-1.4c-0.2,2.5,1.3,5.6,1.9,8c1,5.1,2.4,10,4,14.9c2.2,5.9,4.3,15.1,4,21.5c-0.3,4.8-0.2,9.6,0.4,14.4
			c0.7,5.8,2.3,11.4,4.7,16.7c0.7,1.5,1.3,3.1,1.9,4.6c0.9,2.6,0.6,4.8-0.3,4.7s-3.8-4.3-6.6-9.4c-1.6-3-3.4-5.9-4.4-9.2
			c-1.1-3.8-1.1-6.5-1.1-10.5c0-4.3-0.1-8.7-0.4-13c-0.4-5.3,0.1-10.6-0.3-15.9c-0.3-3.2-0.9-6.5-1.6-9.6c-0.2-0.7-0.4-6.1-1.3-6.4
			c-1.6-0.4-1.6,3.3-1.4,4.1c0.5,2.5,1.1,5.1,1.4,7.6s-1.2,1.7-2,0c-2.1-4.5-2.7-10.1-5.7-14.1c-2.3-3.1-4.2-0.9-2.8,2.2
			c2.7,6.2,6.4,11.3,8.2,18.1c2.3,8.7,2.5,18,2.6,27c0,1.1,0,2.2-0.1,3.3c-0.2,3,0.2,6,1.2,8.8c0.7,1.7,1.5,3.4,2.5,4.9
			c0.9,1.7,0.2,2.5-1.5,1.5c-1-0.6-2-1.3-2.8-2.1c-2.5-2.5-3.5-4.9-4.7-8.2c-1.5-4.5-1.8-9.4-0.8-14.1c0.5-3.1,2.6-8,1.1-11
			c-0.9-1.9-2.3,2.8-2.4,3.3c-0.7,2.4-0.7,5.5-1.9,7.7c-1,1.8-2.3,2.6-2.8,0c-0.6-3.3-0.2-6.8-0.4-10.2c-0.2-2.8-0.5-5.4-0.8-8.1
			c-0.4-3.8-0.8-7.5-1.2-11.3c-0.1-1.3-1-4.7-2.4-5.2c-3.5-1.1,0.6,14.1,0.5,15.5s-0.6,1.8-1.6,0.9s-2.4-7.4-4.2-6.9
			c-1,0.3-0.3,2.8-0.2,3.5c0.6,2.4,1.5,4.7,2.5,7c1.5,3.4,2.6,7,3.3,10.6c0.5,3.6,1.5,7.1,2.8,10.5c3,7,6.7,14.8,10.9,19
			c1.9,1.7,4,3,6.4,4c2,1.1,3.8,2.5,5.3,4.1c1.6,1.6,2.6,3.3,4.6,4.7c1.9,1.3,4.1,2.3,6.4,2.8c4.2,1.1,8.7,0.3,12.3-2.1
			c1.9-1.4,3.6-3.1,4.9-5c2.4-3.5,8.2-9,13-12.1c2.3-1.5,6-3,7.7-5.2c1.6-2-0.4-2.2-2.2-1.5c-2.2,0.8-3.7,2.7-6,3.3
			c-1.7,0.4-2.2-0.2-1.1-1.7s2.6-3,3.8-4.6c2-2.6,3.8-5.4,5.1-8.4c2.1-5.2,3.2-10.8,3.5-16.4c0.2-2.9,0.3-5.7,0.3-8.6
			c0-1.6,0.6-4.3,0.6-6.4c0-0.7-0.1-1.4-0.4-2C762.8,574.7,761.7,575.9,761,577.8z"/>
		<path class="st3" d="M122,614.4c-1.6,1.9-3.9,5-4.1,7.6s1.9,4.6,0.9,7.1c-2.5,6.3-6.2,11.5-10.3,17c-0.5,0.8-1.1,1.5-1.7,2.2
			c-0.2-2.5,1.2-5,2.3-7.2c3.5-7.1,3.5-15,2.7-22.7c-0.7-6.9-5-14.5-3.6-21.4c0.7-3.1,2.7-5.5,3.5-8.6c0.8-3.5,2-6.9,3.6-10.1
			c1.2-2.2,3.8-4,4.6-6c-0.8,1.8-5.7,2.9-7.4,4.1c-2.6,2-4.2,4.8-5.8,7.6c-2.6,4.6-2.2,8.8-2.1,14.1c0.1,4.7,1.3,8.6,1.4,13.3
			c0.4,10.5-2,21.4-2.7,31.9c-0.4-3.5-0.8-7.3-1.3-10.8c-0.6-3.3-1.5-6.6-2.7-9.7c-0.7-1.9-1.3-3.9-1.7-5.8
			c-0.7-3.2-0.9-6.6-0.6-9.9c0.6-6.9,2.3-13.5,1.3-20.5s-4.5-15-3.6-22.4c1-8.5,3-13.7,6.8-21c-4.2,3.6-9,10.5-11.9,18.5
			c-3.5,9.9,1.8,21.1,1.2,31.1c-0.4,6.4-1.6,11-2.1,17.4c-0.8,9,3.7,16.5,5.9,24.4c0.5,2.3,0.9,4.7,1.1,7.1c0.4,2,0.4,4.1,0.1,6.2
			c-0.2-2.4-0.7-4.9-1.2-7.6c-0.5-2.3-1.2-4.6-2.1-6.8c-0.9-2.1-1.9-4.2-2.9-6.2c-2.2-4.4-5.9-9-7.4-13.7c-2.3-6.9,0.7-15-2.1-21.7
			c-3.8-9.1-6.6-18.6-11.7-26.7c0,0,2,10.9,3.8,15.5c1.4,3.4,2.5,6.9,3.3,10.5c0.4,4,0.3,8-0.1,11.9c-0.4,5-0.8,10.1,0.5,15.1
			c0.9,3.6,2.3,7,4.1,10.2c0.9,1.6,1.9,3.2,2.8,4.8c2.4,3.6,4.3,7.5,5.5,11.7c0.5,1.9,0.9,3.9,1.2,5.9c0.2,1.8-0.7,5.2-0.2,6.8
			c-2-5.4-1.8-10-5.5-15c-2.4-3.3-5.7-5.8-8.2-9c-4.2-5.5-4.5-12.8-5.7-19.4c-1.4-7.6-3-10.6-9.5-14.9c-2.6-1.4-5.4-2.7-8.2-3.7
			c2.8,4.8,8.1,8.3,10.8,13.3c3.5,6.4,1.9,12.7,2.7,19.6c0.6,5.4,4,10.4,8,13.8s8,5.2,9.5,10.4c1.6,5.5,2.8,11.6,9.5,12.7
			c3.3,0.7,6.8,0.4,10-0.7c4.4-1.8,4.3-4.9,6.1-8.8c1.9-4.2,5.3-7,8.3-10.4c2.7-3.1,5.9-7.1,6.2-11.4s-2.8-7.8-0.3-12
			c0.9-1.5,1.7-3,2.5-4.5c2.3-4.2,6.8-7.2,9.1-11.2c-2.4,0.9-4.7,1.9-6.9,3.1C125.9,611,123.8,612.5,122,614.4z"/>
		<path class="st2" d="M1981.8,455.5L1981.8,455.5c-20.4,11.7-16.1,36.2-34.4,45.2c-38.3,18.8-35.2-8.6-70-16.9h-0.1
			c-61.7-14.6-47.6,24-71.4,42.6c-9.9,7.7-37.7,11.5-50.6,20.4c-25.2,17.6-18.2,28.5-56.9,37.1c-27.5,6.1-64.4,0.5-93.4,2l0,0
			c-22.7,1.1-43.6,3.6-58.6,9.7c-30.9,12.5-72.6,44.5-62.7,58.7c9.7,14,25.3,25.8,32,40h583.5V448.8
			C2099.1,445.5,1995.5,447.8,1981.8,455.5z"/>
		<path class="st4" d="M958.7,714.2c-16.4-7.3-39.2-10.3-64.1-11.7c-42.1-2.3-90.1-0.1-123.4-7l0,0c-70.2-14.5-27.5-64.1-110.6-88.3
			c-36.3-10.5-72.3-6.6-106.6-20.2c-30.8-12.2-34.5-27.8-70.9-38.2c-10-2.8-109.2-14.6-126.4-12.2c-10.5-2.3-71,9.4-77.1,12.2
			c-22.2,10.4-24.5,26-43.3,38.2c-20.9,13.6-42.9,9.6-65,20.2c-50.7,24.2-24.7,73.8-67.5,88.3l0,0c-20.3,6.9-49.6,4.6-75.3,7
			c-15.3,1.4-29.2,4.3-39.2,11.7c-20.6,15.1,2,53.5,8.6,70.6c6.5,16.8,16.9,31,21.4,48H354l0,0h555.6c7.4-17.1,24.4-31.2,35-48
			C955.4,767.7,992.4,729.3,958.7,714.2z"/>
		<path class="st3" d="M1412.8,647.3c-1.3,0.1-2.5,0.6-3.5,1.5c-0.3-0.1-0.7-0.1-1-0.1c-1.8,0.1-3.5,0.5-5.2,1.3
			c0.9-0.8,1.5-1.9,1.7-3.1v-0.2h-0.2c-0.8-0.2-1.6,0.1-2,0.8c-0.8,1-1.2,2.2-1.3,3.4c-0.7,0.4-1.3,0.8-1.5,0.9
			c-0.8,0.5-1.6,1-2.4,1.4c0.4-0.6,0.7-1.3,0.7-2.1V651h-0.2c-0.1,0-0.2,0-0.3,0c-1.3,0-2.5,2.1-3.3,3.7c-1.6,0.6-3.2,0.9-4.8,0.9
			l0.9-0.6c0.2-0.2,1.2-1.9,1-2.6c-0.1-0.2-0.3-0.3-0.5-0.3h-0.1c-1.4,0.9-2.5,2-3.3,3.4c-0.5-0.1-1-0.1-1.4-0.2
			c1.2-0.9,2.4-1.9,3.4-3c1.1-1.2,2.3-2.2,3.7-3.1c0.8-0.5,1.7-0.9,2.6-1.3c1.4,0.7,3,1.2,4.6,1.3c0.4,0,0.7,0,1.1-0.1h0.2v-0.2
			c-0.2-1.2-1.9-1.8-3.7-2c1.5-0.7,2.9-1.4,4.2-2.3h0.2c1,0,7.2-0.5,7.2-1.7c0-0.2,0-0.4-0.2-0.6c-0.3-0.2-0.6-0.4-1-0.3
			c-1.5,0.2-2.9,0.5-4.2,1.1l0.3-0.3c2.1-2,2.4-4.6,2.7-7c0-0.1,0-0.1,0-0.2c1.7-0.3,4.6-1.2,5.4-2.2c0.2-0.2,0.3-0.5,0.2-0.8
			c0-0.2-0.2-0.5-0.7-0.5c-1,0-2.9,1-4.7,2c0.4-2.4,1.1-4.1,4.3-4.8c0.2,0,0.4-0.2,0.6-0.4c0.1-0.2,0.2-0.4,0.1-0.7
			c-0.1-0.5-0.5-0.7-1-0.7c-0.5,0.1-1,0.3-1.5,0.5c0.7-1.4,1.1-2.9,1.3-4.5v-0.2h-0.2c-0.6-0.1-1.2,0.2-1.5,0.6
			c-1,1.1-1.1,3.4-1.1,4.9c-2.3,1.6-2.6,4.1-2.9,6.6c-0.1,1.7-0.5,3.4-1.4,4.9c0.2-2.2,0.1-5.2-2-6l-0.2-0.1l-0.1,0.2
			c-0.2,1-0.1,2,0.3,3c0.1,0.3,0.2,0.5,0.2,0.8s0.1,0.5,0.2,0.8c0.1,0.8,0.3,1.6,0.6,2.4c-2,1.7-4.3,3-6.7,4h-0.1l-1,0.5
			c0.5-1.4,1.1-3.2,0.7-4c-0.1-0.2-0.3-0.4-0.6-0.5c-0.3-0.1-0.6,0.1-0.8,0.3c-0.7,0.9-0.8,3.3-0.7,4.8c-0.6,0.3-1.1,0.6-1.6,0.9
			l-0.2,0.1c0.6-1.3,1-2.7,1.3-4.1c0.1-0.7,0.2-1.3,0.3-2c1.4-0.7,3.3-2,3.7-3c0.2-0.3,0.1-0.7-0.2-0.9c-0.1-0.1-0.3-0.2-0.5-0.2
			c-0.7,0-1.7,0.9-2.8,2.2c0.1-1,0.3-2,0.5-3c0.3-1.2,0.8-2.4,1.2-3.6c0.3-0.8,0.6-1.7,0.9-2.5c0.4-0.2,0.8-0.4,1.2-0.6
			c0.4-0.3,0.9-0.5,1.3-0.7c1.3-0.4,2.5-0.9,3.6-1.6l0.2-0.1l-0.2-0.2c-0.4-0.5-0.9-0.8-1.6-0.8c-1.3,0-2.9,1-4.1,2.1
			c0.7-3.5,0-6.8-0.6-10.1c0-0.1,0-0.1,0-0.2c1.5-1.2,2.8-2.7,3.7-4.5l0.1-0.2l-0.2-0.1c-0.2-0.1-0.5-0.2-0.8-0.2
			c-1.3,0-2.5,1.7-3.2,3.2c-0.3-1.3-0.4-2.7-0.5-4c-0.1-3.2,0.6-6.4,2.2-9.2c0.4,0,0.7,0,1,0s3.5,0,4.3-1c0.1-0.2,0.2-0.4,0.1-0.7
			c-0.1-0.3-0.3-0.6-1.1-0.6c-1.2,0.1-2.3,0.4-3.4,0.9c1.2-1.7,2.7-3.2,4.6-4.1c0.4-0.2,0.6-0.7,0.4-1.2c-0.2-0.4-0.7-0.6-1.2-0.4
			c-0.6,0.3-1.1,0.6-1.6,1c0.4-1.7,0.5-3.3-0.8-4.2l-0.2-0.1l-0.1,0.1c-0.7,0.9-0.9,2-0.5,3.1c0,0.1,0.1,0.2,0.1,0.3
			c0,0.3,0,0.6,0,0.8c0,0.4,0,0.8,0,1.1c-0.9,0.9-1.7,1.9-2.4,3c-0.1-1.8-0.6-3.7-2.2-4.6l-0.2-0.1l-0.1,0.2c-0.1,0.1-0.4,0.5,0,2.1
			c0.3,1.4,0.9,2.8,1.6,4.1c-1.3,2.6-1.9,5.4-2,8.3c-0.5-1.3-1.4-2.4-2.6-3l-0.2-0.1l-0.1,0.2c-0.3,0.4-0.1,1.2,0.4,2.3
			c0.7,1.4,1.6,2.7,2.8,3.7c0.2,1.4,0.4,2.7,0.7,4s0.5,2.5,0.7,3.7c-0.7-1.2-2.1-1.9-3.4-1.8h-0.2v0.2c0,1,1.1,1.7,1.9,2.3l0.4,0.3
			c0.3,0.3,0.6,0.6,0.9,0.9l0.6,0.6c0.1,1.5-0.1,3.1-0.6,4.5c-0.3,0.9-0.7,1.9-1,2.8s-0.8,2.2-1.2,3.4c-0.3-2-0.9-4-2.8-4.5
			l-0.3-0.1v0.3c0,1.1,0.4,2.2,1,3.2c0.1,0.3,0.3,0.5,0.4,0.8s0.2,0.7,0.4,1.1c0.2,0.7,0.5,1.5,0.8,2.1c-0.1,0.6-0.2,1.1-0.2,1.7
			c-0.1,0.9-0.2,1.9-0.4,2.8c-0.2,1.2-0.6,2.3-1,3.4c-0.1-1.2-0.5-2.5-1.1-3.5l-0.1-0.2l-0.2,0.1c-1.4,1.1-0.6,4,0.1,6
			c-1.2,1.7-2.8,3.2-4.6,4.4c-0.1,0-0.2,0-0.3,0c0-0.6-0.2-1.2-0.3-1.7s-0.2-1.1-0.2-1.7c1.4-1.2,3.5-3,3.5-4.7V645l-0.2,0
			c-0.1,0-0.3-0.1-0.4-0.1c-1,0-2,1.1-2.8,2.3c0.2-0.9,0.4-1.7,0.7-2.6c1.1-3.3,1.5-6.8,1.1-10.3c1.1-1.8,2.3-3.9,1.7-5.9l-0.1-0.2
			l-0.2,0c-0.8,0.2-1.5,1.6-1.8,2.5l-0.2,0.5c-0.3-1.3-0.7-2.7-1.1-4c-0.3-0.9-0.5-1.9-0.8-2.8c1.5-1.6,3-4.1,2.4-6.4v-0.3l-0.2,0.1
			c-1.2,0.4-1.6,1.9-2,3.1l-0.2,0.6c-0.1,0.3-0.3,0.6-0.4,1c-0.3-1.6-0.4-3.1-0.4-4.7c0.1-1.6,0.4-3.1,0.8-4.6l0.2-0.8
			c1.6-0.9,4.1-3,4.5-3.8c0.1-0.2,0.1-0.4,0-0.5c-0.2-0.2-0.5-0.4-0.8-0.4c-1,0-2.3,1.3-3.3,2.5c0.1-0.9,0.2-1.7,0.2-2.6
			c-0.1-2-0.4-3.9-1-5.8c-0.2-0.9-0.4-1.8-0.6-2.7c0.6-0.5,1.1-1,1.6-1.5c0.2-0.2,0.4-0.4,0.5-0.5l0.1-0.1c1-0.9,1.8-1.7,1.9-3.2
			v-0.2l-0.2-0.1c-0.2-0.1-0.4-0.1-0.6-0.1c-1.5,0-2.8,2-3.6,3.7c-0.3-4.5,1.7-9.4,4.5-13h0.5c0.4,0,4.3,0,4.5-1.2
			c0-0.2,0-0.4-0.1-0.6c-0.3-0.3-0.6-0.4-1-0.3c-0.9,0.1-1.8,0.2-2.7,0.5c0.5-0.5,1-1,1.5-1.5c0.4-0.3,0.4-0.9,0.1-1.2
			c-0.3-0.3-0.9-0.4-1.2-0.1c-1.8,1.7-3.4,3.6-4.7,5.7c0-1.1-0.2-2.3-0.7-3.3l-0.1-0.2l-0.2,0.1c-1.4,0.9-0.8,3.8-0.4,5.7
			c0,0.1,0,0.2,0.1,0.2c-1,2.1-1.6,4.3-1.8,6.5c-0.7-1.7-1.9-3.3-3.3-4.5l-0.2-0.2l-0.1,0.2c-0.7,1.4,0.6,3,1.5,4.1l0.1,0.1
			c0.2,0.2,0.4,0.5,0.7,0.9c0.4,0.6,0.8,1.1,1.3,1.6c0,0.4,0.1,0.9,0.1,1.3c0.2,1.3,0.5,2.7,0.8,4c0.5,1.7,0.8,3.4,0.9,5.1
			c-1.3-2.7-3-4.1-5-4.3h-0.3v0.3c0.1,1.2,1.3,2.2,2.2,2.9l0.6,0.5c0.4,0.4,0.7,0.8,1,1.2c0.4,0.5,0.8,1,1.3,1.5
			c-0.2,1.2-0.4,2.4-0.7,3.7c-0.3,1.2-0.6,2.5-0.7,3.8c-0.4-0.6-0.9-1.2-1.4-1.8c-0.9-0.6-1.9-1-3-1.3c-0.4,0-0.5,0.2-0.5,0.4v0.1
			c0.4,0.9,1.1,1.5,2,2c0.3,0.2,0.6,0.4,0.9,0.6c0.5,0.4,0.9,0.8,1.2,1.2c0.2,0.2,0.4,0.5,0.6,0.7c0,2.4,0.3,4.7,1,7v0.4l0.1-0.1
			c0.2,0.7,0.4,1.3,0.6,1.9s0.3,1.2,0.5,1.7c-1.7-1.7-3.6-3.3-5.7-3.8l-0.3-0.1v0.3c-0.1,1.6,1.7,2.6,3,3.3h0.1
			c0.3,0.2,0.6,0.3,1,0.6c0.7,0.5,1.5,0.9,2.4,1.2c0.2,1,0.4,1.9,0.6,2.9c0.3,2.3,0.3,4.6-0.1,6.9c-0.9-2.2-2.7-4-5-4h-0.3l0.1,0.3
			c0.4,0.9,1.1,1.7,1.9,2.3c0.3,0.3,0.7,0.5,0.9,0.8c0.5,0.5,0.9,1,1.2,1.5c0.3,0.4,0.5,0.7,0.7,1c-0.1,0.4-0.2,0.9-0.4,1.3
			c-0.6,1.6-0.9,3.2-1,4.9c-0.6-1-1.5-1.9-2.5-2.5l-0.2-0.1l-0.1,0.2c-0.4,1.3,0.7,2.7,1.5,3.7l0.3,0.4c0.3,0.4,0.5,0.9,0.8,1.3
			c0.2,0.4,0.5,0.9,0.7,1.2c0,0.2,0,0.3,0,0.5c-2.6-1.5-4.5-3.9-5.4-6.7c-0.3-0.9-0.6-1.9-1-2.8c0.9-1.9,1.9-4.4,0.6-6.2l-0.1-0.2
			l-0.2,0.1c-1,0.7-1.1,2.6-1.1,3c0,0.5-0.1,1-0.2,1.4c0,0,0,0,0,0.1c-0.2-0.3-0.4-0.7-0.7-1c-0.6-0.7-1.1-1.4-1.8-2
			c-0.3-0.3-0.6-0.7-0.9-1c0.3-0.6,0.5-1.3,0.7-2c0.1-0.5,0.3-0.9,0.4-1.4c0.4-0.9,0.6-1.9,0.5-2.9V632h-0.2c-0.5,0-0.9,0.2-1.3,0.6
			c-0.8,1-1,2.9-1,4.7l-0.2-0.3c-1-1.7-1.1-3.6-1.3-5.7c0-1.8-0.3-3.5-0.8-5.2c-0.2-0.5-0.4-1-0.7-1.4c0.7-1.9,1.5-4.5,0.3-6.3
			l-0.1-0.2l-0.2,0.1c-0.4,0.2-0.7,0.6-0.8,1c-0.3,1.2-0.4,2.5-0.3,3.7c-1.3-1.6-2.8-3.1-4.4-4.3c0-0.1,0-0.2,0-0.2
			c0.2-1.8,0.6-4.1-0.5-5.5l-0.1-0.1l-0.2,0.1c-0.5,0.2-0.8,0.7-0.9,1.2c-0.2,1.3,0,2.5,0.4,3.7c-0.5-0.4-1-0.7-1.5-1.1
			c-0.4-0.3-0.9-0.1-1.2,0.2c-0.1,0.2-0.2,0.4-0.1,0.7c0,0.2,0.2,0.4,0.4,0.5c1,0.7,2.1,1.5,3.1,2.3c-0.2,0-0.3,0-0.5,0
			c-0.9-0.1-1.7,0.2-2.4,0.8l-0.1,0.1v0.1c0.2,0.7,1.4,0.9,2.3,0.9c0.8,0,1.6-0.1,2.3-0.3c1.5,1.4,2.7,3,3.4,4.8
			c0.4,1.1,0.6,2.3,0.7,3.5l0,0c-0.3-0.3-0.5-0.5-0.7-0.7l-0.1-0.1c-0.9-1-1.7-2-3.2-2h-0.2v0.2c-0.1,1.8,2.6,3.6,4.3,4.5
			c0,2,0.5,4,1.5,5.8c0.3,0.5,0.7,1,1.1,1.5c-0.7-0.2-1.4-0.3-2.1-0.4c-0.8,0-1.6,0.2-2.2,0.8l-0.2,0.1l0.1,0.2
			c0.6,0.8,2.6,0.9,3.4,0.9c0.7,0,1.5-0.1,2.2-0.2c0.5,0.5,1,1.1,1.5,1.7c0.9,1.3,1.6,2.7,2.1,4.2c-0.9-0.7-2-1.2-3.2-1.3
			c-0.2,0-0.4,0-0.6,0.1l-0.2,0.1l0.1,0.2c0.5,1.6,3.1,3,5,4c1.1,2.2,2.8,4,4.9,5.3c-0.8,0.2-1.6,0.3-2.4,0.3c-1,0-1.9-0.1-2.9-0.2
			l-0.8-1.7c-0.5-1.1-1.1-2.3-1.7-3.4l-0.1-0.2l-0.2,0.1c-0.7,0.4-1.1,1.3-0.8,2.1c0.3,1,0.8,1.9,1.4,2.7c-2.4-0.7-4-2.4-5.7-4.5
			c0.4-1.6,0.4-3.3,0.1-5l-0.1-0.2h-0.2c-0.5,0-0.9,0.2-1.1,0.6c-0.4,0.9-0.4,1.9-0.2,2.8c-1.5-1.9-3.5-3.3-5.7-4.3
			c-0.2-1.4-0.8-4.5-2.8-4.5c-0.1,0-0.3,0-0.4,0h-0.2v0.3c0.3,1.4,0.9,2.6,1.9,3.7c-0.8-0.2-1.6-0.3-2.4-0.3c-0.7,0-1.3,0.1-1.9,0.3
			c-0.6-0.3-1.4-0.5-2.1-0.5c-0.6,0-1.2,0.2-1.6,0.7l-0.1,0.1l0.1,0.1c0.3,0.5,1.2,0.6,1.8,0.6c-0.5,0.5-0.9,1-1.2,1.6
			c-0.2,0.4,0,1,0.4,1.2c0,0,0,0,0,0c0.4,0.2,0.9,0,1.2-0.4c0.4-1,1.3-1.6,2.3-1.8c-0.3,0.2-0.5,0.4-0.7,0.6
			c-0.2,0.3-0.2,0.7-0.1,1.1v0.1h0.1c0.1,0,0.2,0,0.3,0c1.2-0.2,2.3-0.9,2.9-1.9c0.3,0.1,0.7,0.2,1,0.3c1.1,0.4,2.1,0.9,3,1.6
			c-1.5,0-3.2,0.5-3.5,1.9v0.2l0.2,0.1c0.1,0,0.3,0,0.4,0c1.6-0.1,3.1-0.4,4.6-0.8c0.9,0.9,1.7,1.8,2.4,2.7c0.3,0.4,0.6,0.7,0.9,1.1
			c-0.3-0.1-0.7-0.1-1-0.1c-0.9-0.1-1.8,0.3-2.3,1l-0.1,0.2l0.1,0.1c0.6,0.5,1.3,0.8,2.1,0.7c0.8,0,1.6-0.1,2.4-0.3h0.2
			c1.3,1.3,3,2.3,4.8,2.7c1.6,0.4,3.3,0.6,5,0.6c1.3,0,2.5-0.2,3.7-0.6l0,0h0.2c0.2,0,0.4-0.1,0.7-0.2c0.1,0,0.1,0,0.2,0
			c1.7,0.6,3.4,0.9,5.2,0.9c2.3,0,4.5-0.5,6.6-1.3c1.4,0.4,2.8,0.6,4.2,0.7c1.1,0,1.7-0.2,1.8-0.7c0.1-0.2,0-0.5-0.1-0.6
			c-0.3-0.4-1-0.5-2.1-0.5c-0.4,0-0.8,0-1.3,0.1c0.8-0.5,1.7-0.9,2.6-1.5c1.2-0.8,2.4-1.4,3.7-1.9c1.1,0.9,2.4,1.4,3.7,1.7
			c0.3,0,0.6-0.1,0.8-0.4c0.2-0.2,0.2-0.5,0.1-0.8c-0.3-0.6-1.4-1-2.6-1.3c0.6-0.1,1.2-0.2,1.8-0.2c0.4,0,0.9,0.1,1.3,0.2
			c0.8,0.3,1.5,0.9,1.7,1.7c0.2,0.4,0.7,0.7,1.1,0.5c0.2-0.1,0.4-0.2,0.5-0.5c0.1-0.2,0.1-0.4,0-0.7c-0.3-0.9-0.9-1.7-1.7-2.2
			c1.1-0.1,2.2-0.5,3-1.2l0.1-0.1l-0.1-0.2C1413.8,647.5,1413.3,647.3,1412.8,647.3z"/>
		<path class="st5" d="M1049.8,597.3c-2,1.1-4.9,1.7-7,2.6c-5.3,2.3-7.7,3.5-10.2,7.4c-4.5,7.1-13.9,10.5-18.8,17.3
			c-3.8,5.2-5.9,10.9-9.6,16.1c-4.3,6.1-13.6,11.8-9.1,20.3c0.2,0.5,0.6,0.9,0.9,1.2c-2.1,3-4.4,6-6.9,8.7
			c-2.2,1.8-12.4,6.6-13.7,4.5c-0.8-1.3,5.4-2.9,6.7-7.7c0.6-2.1,1-4.1,1.2-6.3c0.1-1,0.2-2,0.4-3c7-1.8,4-11.1,7.9-15
			c2.5-2.5,2.9-5,4.3-8.2s3.6-5.6,3.8-8.9c0.4-6.4,2.4-10.5,4.5-16.2c2.1-5.9,4.1-11.7,7.9-17.1c5-6.9,12.4-14.3,9-23
			c-0.2-0.1-0.4,0.6-0.6,0.6c-1.3,2.2-5.4,2.9-7.4,4.8c-3.9,3.6-3.4,7.8-5.3,12.4c-1,2.5-3.4,3.2-5.9,5c-5.6,4.2-5.2,8.4-5.5,15.1
			c-0.3,4.6-4,8.5-6.8,12.4s-4.8,7.5-5.5,12.3c-0.7,6.2-1.9,12.3-3.5,18.3c-0.7,2.4-0.2,4.3,1.2,6.6c-0.2,1.2-0.4,2.5-0.5,3.8
			c-0.1,2-0.5,4.1-1.2,6c-1,2.3-2.6,4-5.6,5.8c-5.3,3.1-9-3.5-9.3-6.9c-0.2-2.1,1.2-7,1.3-10.2l0.3,0.1c0.5-4.3,4.8-5.7,7-8.4
			s2-6.1,2.9-9.9s2.8-6.4,2.2-9.5s-3.7-6.6-2.4-10.4s4.8-5.6,5.3-8s-1.8-5.2-1.8-9.2c0-4.4,4.9-12.1,6.3-19.9
			c1.2-6.1-0.4-12.3-1.2-18.5c-3.8,2.2-7.8,6.1-9.3,9.5c-2.3,5.5-1,12.5-1.4,15.4c-0.4,3.5-3,5.8-3.1,8.4s2.1,5.8,0.8,9.1
			c-1.1,3-5,4.8-6.1,7.6s0.8,6.2,0.8,9.7c0,3.2-2.2,5.7-2,8.5s2.9,6,2.2,9.3c-0.6,2.8-4.7,6-5.1,9.3c-0.3,2.5,0.3,4.4,2.3,5.8
			c0.3,2,0.1,4-0.4,5.8c-0.6,2-1.2,3.8-1,5.1c4,21.6,31,10.3,35.1-2.7c4.1-0.2,9.8-7.6,10.6-8.9c2.6-4.1,1.3-9.7,4.2-13.8
			c3.1-4.3,10.1-6.4,13.3-10.6c3.5-4.5,1.5-11.1,6.3-15.1C1039,609,1046.1,604.4,1049.8,597.3z"/>
		<path class="st5" d="M1084.5,650.7c-1.3,0.4-3.1,0.5-4.4,0.8c-3.3,0.7-4.8,1.2-6.3,3.1c-2.7,3.6-8.6,4.5-11.6,7.8
			c-2.3,2.5-3.6,5.5-5.8,8.2c-2.6,3-8.4,5.3-5.4,10.6c0.2,0.3,0.4,0.6,0.6,0.8c-1.3,1.5-2.7,2.9-4.2,4.2c-1.4,0.8-7.7,2.4-8.6,1.1
			c-0.5-0.8,3.4-1.1,4.1-3.7c0.3-1.1,0.5-2.3,0.7-3.4c0-0.6,0.1-1.1,0.2-1.7c4.4-0.3,2.3-5.9,4.8-7.7c1.5-1.2,1.7-2.6,2.6-4.2
			s2.2-2.8,2.2-4.7c0.1-3.6,1.4-5.7,2.6-8.8s2.4-6.2,4.7-8.9c3-3.4,7.6-6.8,5.3-12.1c-0.1-0.1-0.3,0.3-0.4,0.3
			c-0.8,1.1-3.4,1.1-4.6,1.9c-2.4,1.6-2,4-3.2,6.5c-0.6,1.3-2.1,1.4-3.6,2.2c-3.5,1.8-3.1,4.2-3.3,8c-0.1,2.6-2.4,4.4-4.1,6.3
			c-1.7,1.7-2.9,4-3.3,6.4c-0.3,3.4-1,6.7-1.9,10c-0.4,1.3-0.1,2.4,0.9,3.8c-0.1,0.7-0.2,1.4-0.3,2.1c0,1.1-0.2,2.2-0.6,3.3
			c-0.6,1.2-1.6,2-3.4,2.7c-3.3,1.2-5.8-2.9-6-4.9c-0.2-1.2,0.6-3.8,0.7-5.7l0.2,0.1c0.3-2.4,2.9-2.8,4.3-4s1.2-3.3,1.6-5.3
			s1.6-3.3,1.2-5.2s-2.4-4.2-1.7-6.2s2.9-2.7,3.2-4s-1.2-3.2-1.3-5.4c-0.1-2.5,2.9-6.4,3.7-10.7c0.6-3.3-0.5-7-1.1-10.6
			c-2.4,0.8-4.9,2.6-5.7,4.4c-1.3,2.9-0.4,7-0.6,8.6c-0.2,1.9-1.8,3-1.8,4.5s1.4,3.5,0.7,5.3c-0.7,1.6-3.1,2.2-3.7,3.7
			s0.6,3.6,0.7,5.6c0.1,1.8-1.3,3-1.1,4.6s2,3.7,1.6,5.5c-0.3,1.5-2.9,2.9-3,4.7c-0.2,1.4,0.4,2.7,1.5,3.5c0.2,1.1,0.2,2.2-0.2,3.3
			c-0.4,0.9-0.6,1.8-0.5,2.8c2.9,12.7,19.8,9.1,22.2,2.2c2.6,0.3,6.1-3.3,6.5-3.9c1.6-2.1,0.7-5.4,2.4-7.4s6.3-2.6,8.2-4.6
			c2.1-2.2,0.7-6.1,3.7-7.9C1077.9,656.3,1082.3,654.4,1084.5,650.7z"/>
		<path class="st6" d="M2261.1,667.4c-37.5,6-79.3-6.2-115.4,4c-65.1,18.4-124.1-14.3-187.4-1.2c-38,7.8-72.8,2.8-110.2-4
			c-43-7.8-64.2-3.7-105.9-0.2l0,0c-22.2,1.8-40.6-6.6-62.6-2.9c-41,7-62.4,16.3-106.3,16.3c-70.1-0.1-149,31.9-218.5,22.9
			c-44-5.7-83.5-24.9-128.6-27.7c-50.2-3.1-97.7,16-147.8,13c-57.9-3.4-101.9-24.2-161-24.3c-4.2,0-8.2-0.1-11.9-0.3
			c-38.8-2.2-56.2-15-91.5-26.5c-13.2-4.3-58.3-8.4-70.5,3.8c0.1-0.1,0.1,0.1,0.2,0.4c-16.1,3.5-78.2,25.5-86,26.7
			c-37.3,6-78.9-6.2-114.9,4c-64.8,18.4-123.5-14.3-186.4-1.2c-37.8,7.8-72.5,2.8-109.6-4c-42.7-7.8-63.9-3.7-105.4-0.2l0,0
			c-22.1,1.8-40.4-6.6-62.3-2.9c-40.7,7-62.1,16.3-105.8,16.3c-69.8-0.1-148.3,31.9-217.4,22.9c-43.8-5.7-83.1-24.9-128-27.7
			c-50-3.1-97.2,16-147.1,13c-57.6-3.4-101.3-24.2-160.2-24.3c-4.2,0-8.1-0.1-11.9-0.3c-38.7-2.2-55.9-15-91-26.5
			c-13.2-4.3-70.1-1.1-70.1-18.3v211.3h3204V640.4C2351.4,637.2,2270.1,665.9,2261.1,667.4z"/>
		<path class="st7" d="M1105.8,719c-6.1,2.6,7.7,3.7,17.4,3.3c7.5-0.3,15.8-1.1,23.4-0.8c8.6,0.3,12.3,2,19.2,3
			c13.6,2.1,18.8,0,20.4-3.4c2-4.5,27-6.8,25.7-11.1c-2.7-8.5-58.3,0.9-44.4-10.5c0.6-0.5,1.4-1,2.3-1.7c1.9-1.3,3.6-2.5,5.8-3.7
			c11-6.1-29.5-1.3-36.1,0c-7.2,1.4-13.8,3.5-16,5.8c-4.2,4.4-20.5,6.4-36.6,4.3c-8.2-1.1-19-4.1-26.9-0.8c-9.4,4,4.7,8,20.2,8.1
			c7.7,0,23.4-1.5,30-0.4c6.1,0.9,5.4,2.8,4.4,4.3C1113.2,717.3,1109,717.6,1105.8,719z"/>
		<path class="st7" d="M941.5,680.7c-11.8-1.5-23.3-2.4-27.1-3c-12.2-2-23-5.9-34.8-8.7c-18.9-4.6-34.7-0.3-53.3-3.5
			c-14.2-2.4-28-6-42.3-8.3c-7.2-1.2-20.7-5.5-25.6-2.8c-5.8,3.1,20.4,12.8,24.4,14.6c10.7,4.8,9.1,4.9,8.4,12
			c-1.1,12,22.6,15.2,37.6,11.7c16.3-3.8,21.1-9.5,42.6-6.6c7.6,1,20.7,3.3,27.5,6.3c6.3,2.8,9,7,15.5,10
			c13.8,6.6,19.2,5.3,26.8-0.6c3.3-2.5,5.3-5.5,11-6.6c6.7-1.3,18.2,2.1,21.3-3C976.7,686.4,958.7,682.9,941.5,680.7z"/>
		<path class="st7" d="M1403.4,716.2c-37.1-0.5-70.6-1.7-89.1,4.2c-0.6,0.1-1.2,0.3-1.8,0.6c-8.4,3.8,36.8,3.1,46.7,3.1
			c14.2,0.1,23.8-0.3,33.6,1.7c17.3,3.6,9.9,10,38.7,11.9c18.7,1.2,56.4,0.8,57.5-3.9c0.3-1.5-9.7-3.2-14.1-4.3l-1.2-0.3
			c-11.6-3.1-9.4-4.6-4.4-8C1480,714,1423.2,716.5,1403.4,716.2z"/>
		<path class="st8" d="M-400.2,749.4c94,4.1,156.1-13.9,246-16c105.1-2.5,144.8,19,229.6,25.2c177.7,12.8,304.3-38.3,465.5-45.5
			c181-8,329.2,29.8,503.3,27c83.7-1.3,151.3-9.8,233.3-6.9v105.1h-2130V716.6C-653.5,705.4-598.3,740.8-400.2,749.4z"/>
		<path class="st8" d="M1084.9,752.4c71,4.1,117.8-13.9,185.7-16c79.3-2.5,109.3,19,173.3,25.2c134.2,12.8,229.7-38.3,351.4-45.5
			c136.6-8,248.5,29.8,380,27c63.2-1.3,114.2-9.8,176.1-6.9v105.1h-1608V719.6C893.7,708.4,935.4,743.8,1084.9,752.4z"/>
		<path class="st9" d="M-510.8,810.4c70.6,4.1,117.3-13.9,184.8-16c78.9-2.5,108.8,19,172.4,25.2c133.5,12.8,228.6-38.4,349.7-45.5
			c136-8,247.3,29.8,378.1,27c62.9-1.3,113.6-9.8,175.2-6.9v105.1h-1601l-1-122C-703,766.1-659.6,801.8-510.8,810.4z"/>
		<path class="st10" d="M1020.4,819.3c70,9.9,377.5-31.9,445-34c78.9-2.5,155.3,18.9,219,25c133.5,12.8,152.9-9.9,274-17
			c135.9-8,116.1,18.8,247,16c62.9-1.3,80.4-27.8,142-25v117l-1653-9C694.4,892.3,241.6,709.2,1020.4,819.3z"/>
		<path class="st11" d="M-629.4,877.4c82.1,4.1,136.4-13.9,214.9-16c91.8-2.5,126.5,19,200.6,25.2c155.3,12.8,265.9-38.4,406.7-45.5
			c158.1-8,287.6,29.8,439.8,27c73.1-1.3,132.2-9.8,203.8-6.9v62.1h-1689v-79C-678.6,833.1-802.4,868.8-629.4,877.4z"/>
		<path class="st11" d="M1007.6,876.4c82,5.8,136.4-13.9,214.9-16c91.8-2.5,126.5,19,200.6,25.2c155.3,12.8,265.9-38.3,406.7-45.5
			c158.1-8,288.2,41.1,439.8,27c30.8-2.8,6.1-19.7,77.8-16.8v73h-1732l148-62C894.4,854.3,865.4,866.3,1007.6,876.4z"/>
		<path class="st11" d="M232.4,878.9c-23.8,6-14.8,14,25.5,17.7c29.8,2.7,112.2,3.6,141.1,0.7c41.3-4.2,20.5-11.9,68.3-15.3
			c36.7-2.6,82.8,0.2,117.3-3.3c72.3-7.4-38-10-58.8-13.3c-19.7-3.1-16.6-8.5-39.3-11.3c-26.1-3.3-62,0.1-88.9-0.8
			c-36.1-1.2-57.2-6.9-98.2-6.5c-21.6,0.2-87.8,0.9-102.9,3.2c-37,5.7,73.3,8,82.6,12C294.4,868.4,254.2,873.4,232.4,878.9z"/>
		<path class="st11" d="M1111.4,915.9c-23.8,6-14.8,14,25.4,17.7c29.8,2.7,112.2,3.6,141.1,0.7c41.3-4.2,20.6-11.9,68.3-15.3
			c36.7-2.6,82.8,0.2,117.3-3.3c72.3-7.4-38-10-58.8-13.3c-19.7-3.1-16.6-8.5-39.3-11.3c-26.1-3.3-62,0.1-88.9-0.8
			c-36.1-1.2-57.2-6.9-98.2-6.5c-21.6,0.2-87.8,0.9-102.8,3.2c-37,5.7,73.3,8,82.6,12C1173.4,905.4,1133.2,910.4,1111.4,915.9z"/>
		<path class="st12" d="M704.1,759c-24,3.5-15.5,10.9,24.4,16.6c29.6,4.2,111.7,10.5,140.7,9.9c41.4-0.8,21.2-8.7,69-8.4
			c36.8,0.2,82.6,5.6,117.2,4.9c72.5-1.5-37.4-11-57.9-15.1c-19.6-4-16.1-8.3-38.6-12.2c-25.9-4.5-61.9-4-88.6-6.6
			c-35.9-3.4-56.7-9.6-97.6-12c-21.6-1.2-87.6-5-102.8-4.1c-37.3,2.3,72.7,11.7,81.7,15.6C766.5,754.2,726.1,755.7,704.1,759z"/>
		<path class="st11" d="M-95.3,891c-9,3.3-12.6,7.3-19.2,10.7c-2.3,1.3-4.6,2.5-7,3.6c-4.3,1.7-10.1,3.3-5.6,5.2
			c6.6,2.7,34.5,3.8,50.2,3.2c22.1-0.8,21-4.9,44.2-5.3c27.9-0.5,62.4-0.7,87,1.8c23.6,2.4,40.6,6.5,66.3,8.4
			c19.8,1.5,53.6-0.5,56.7-4.3s-18.6-10.7-27.1-14.3c-10.3-4.3,1.3-7.3,2.4-11.6c1.2-4.7-24.2-5-49.8-6.7
			c-8.3-0.6-14.8-1.2-24.7-1.1c-9.3,0.1-17.3,1-26.4,1.2c-11.3,0.3-23.9,0.3-35.4,0.4C-30.5,882.7-73.4,883-95.3,891z"/>
		<path class="st11" d="M405.4,819.2c-3.1,3.7-36.9,5.7-56.7,4.3c-25.7-1.9-42.8-6-66.3-8.4c-24.6-2.5-59.1-2.3-87-1.8
			c-23.2,0.4-22.1,4.5-44.2,5.3c-15.7,0.6-43.7-0.5-50.2-3.2c-4.5-1.9,1.3-3.4,5.6-5.2c2.4-1.1,4.7-2.2,7-3.6
			c6.6-3.5,10.2-7.5,19.2-10.7c21.9-7.9,64.7-8.3,111.6-8.8c11.5-0.1,24.1-0.1,35.4-0.4c9.1-0.2,17.1-1.2,26.4-1.2
			c9.9-0.1,16.5,0.6,24.7,1.1c25.5,1.7,51,2,49.8,6.7c-1.1,4.3-12.8,7.3-2.5,11.6C386.8,808.6,408.6,815.4,405.4,819.2z"/>
		<path class="st11" d="M1357.4,858c2.9,2,14.2,3.7,19.3,5.6c4.1,1.5-0.3,3.7,15.5,4.4c20,0.9,42-0.1,61.4-0.7
			c8.2-0.3,16-0.7,24.5-0.7c8.7,0.1,16.3,0.7,24.9,0.9c32.4,0.5,62.7-2.6,34.4-6.4c-25.4-3.4-54.8-7.7-47.3-13.2
			c7.3-5.4,35.5-6.5,69.4-7.6c13.1-0.4,29.1-1.3,40.5-2.3c2-0.2,23.2-2.8,15.8-2.8c-18.5-0.1-36.5,0-54.9-0.4
			c-21.5-0.5-44.4-1.7-64.6-2.8c-9.9-0.5-25.2-2.1-36.2-1.7c-18.5,0.7-18.5,5-37.2,6.1c-22.3,1.2-53.8,0.5-78.1,0.8
			c-24.5,0.4-50.1,1.9-62.8,4.3l0,0c-20,3.7,33.1,4.6,47.1,5.5s25.3,2.5,29.8,4.6C1363.6,853.9,1354.2,855.9,1357.4,858z"/>
		<path class="st13" d="M1180,820.6c12.3-2.9,24.8-11,33.8-13.8c11.5-3.6,25.9-7.9,40.5-11.4c9.1-2.2,18.3-4,27.6-5.2
			c47.9-5.8,101.2-5,150.6-9.5c25-2.3,48.7-5.1,73.4-8.1c30.9-3.8,61.8-4.4,91.7-7.6c33.2-3.5,59.7-15.7,86.9-24.1
			c39.3-12.1,81.6-23.8,128.6-28.9c10.9-1.2,128.9-4.2,128.9,4.5v105.2h-761.6C1180.3,821.3,1180.1,821,1180,820.6z"/>
		<path class="st14" d="M1081.7,837.5c-5.9-2-11.8-7.3-16.2-9.2c-5.5-2.4-12.4-5.3-19.3-7.6c-4.3-1.5-8.7-2.6-13.2-3.5
			c-22.9-3.9-48.3-3.3-71.9-6.3c-11.9-1.5-23.3-3.4-35.1-5.4c-14.8-2.5-29.5-3-43.8-5.1c-15.9-2.4-28.5-10.5-41.5-16
			c-18.8-8.1-39-15.8-61.4-19.2c-3.8-0.6-34.4-1.8-51-0.2c-17.1-1-42.5,0.1-45.9,0.6c-22.4,3.3-42.6,11.1-61.4,19.2
			c-13,5.6-25.7,13.7-41.5,16c-14.3,2.1-29.1,2.6-43.8,5.1c-11.8,2-23.1,3.9-35.1,5.4c-23.6,3-49,2.4-71.9,6.3
			c-4.5,0.8-8.8,2-13.1,3.5c-7,2.3-13.9,5.2-19.3,7.6c-4.3,1.9-10.3,7.3-16.2,9.2c0.1,0.2,0.1,0.5,0.2,0.7H744v-0.4h337.5
			C1081.6,837.9,1081.7,837.7,1081.7,837.5z"/>
		<path class="st15" d="M665,764.8c-33.3-18.5-77.9-22.7-114.5-12.6c-6.6,1.8-12.9,4.1-19.1,6.9C486.1,780,487.5,819,551.7,835
			c28.1,6.9,104.4,7.1,129.5-5.3C712.1,814.3,691.8,779.8,665,764.8z"/>
		<path class="st16" d="M665,764.8c-33.3-18.5-77.9-22.7-114.5-12.6c-6.6,1.8-12.9,4.1-19.1,6.9c-22.6,10.4-33.6,25.4-30.9,39.8
			c8.6,4.3,17.7,7.6,27,9.8c28.1,6.9,104.4,7.1,129.5-5.3c16.9-8.4,18.5-22.5,12.1-36C667.8,766.5,666.4,765.6,665,764.8z"/>
		<path class="st17" d="M1383.1,779.8c-10.9-3.7-24.3-2.3-34.4,3c-1.8,0.9-3.6,2-5.2,3.3c-12,9.1-9.3,21,10.6,22.1
			c8.7,0.4,31.1-4.1,37.8-9.4C1399.9,792.2,1391.9,782.8,1383.1,779.8z"/>
		<path class="st18" d="M1383.1,779.8c-10.9-3.7-24.3-2.3-34.4,3c-1.8,0.9-3.6,2-5.2,3.3c-6,4.6-8.3,9.8-6.7,14.1
			c2.8,0.8,5.6,1.3,8.5,1.4c8.7,0.5,31.1-4.1,37.7-9.4c4.5-3.6,4.1-8,1.4-11.8C1384,780.1,1383.5,779.9,1383.1,779.8z"/>
		<path class="st17" d="M919.6,795.9c-13.4-7.1-31.7-10.1-46.9-8.4c-2.7,0.3-5.4,0.8-8,1.4c-18.9,4.8-18.9,17,7.3,24.5
			c11.5,3.3,42.8,6.2,53.3,3.3C938.3,813.2,930.5,801.6,919.6,795.9z"/>
		<path class="st18" d="M919.6,795.9c-13.4-7.1-31.7-10.1-46.9-8.4c-2.7,0.3-5.4,0.8-8,1.4c-9.5,2.4-14.2,6.7-13.3,11.2
			c3.5,1.7,7.2,3.1,11,4.1c11.5,3.3,42.8,6.2,53.3,3.3c7.1-2,7.9-6.3,5.5-10.8C920.8,796.5,920.2,796.2,919.6,795.9z"/>
		<path class="st17" d="M867.6,773.2c-15.4-3.2-33.5,0.6-46.8,9c-2.4,1.5-4.6,3.2-6.7,5c-15.3,13.7-10.1,28.8,17.2,27.1
			c12-0.7,42.1-9.9,50.5-17.8C892.2,786.8,880,775.8,867.6,773.2z"/>
		<path class="st18" d="M867.6,773.2c-15.4-3.2-33.5,0.6-46.8,9c-2.4,1.5-4.6,3.2-6.7,5c-7.7,6.8-10.2,14-7.4,19.3
			c3.9,0.6,7.9,0.8,11.9,0.5c12-0.7,42.1-9.9,50.5-17.8c5.7-5.3,4.6-11,0.4-15.5C868.9,773.5,868.2,773.4,867.6,773.2z"/>
		<g class="st19">
			<path class="st20" d="M-663.8,44.1c0,0,215.9,100.4,730,107.3S776.4,27.6,1247.9,33s522.7,55.3,522.7,55.3
				S1256.4-37.6,583.2,142.6s-1542.4-76-1542.4-76L-663.8,44.1z"/>
			<path class="st20" d="M-653.3,164.1c0,0,192.4,53.4,650.6,57.1s752.1-92.6,921.1-115.3s340.9-22.4,340.9-22.4
				c-241.7,0.9-678.9,111.6-801.2,133C-133.2,327.5-916.6,176-916.6,176L-653.3,164.1z"/>
		</g>
		<path class="st21" d="M860,653.6v0.1h0.1L860,653.6z"/>
		<path class="st5" d="M879.7,617.3c1.9-14.3-6.4-27.4-6.3-41.7c0.1-16,10.9-29.8,12-46c0.4-15.5-11.3-29.4-6.6-44.3
			c-7.3,10.1-6.1,24.7-0.5,42c6.3,19.5-9.5,29-12.2,46.3c-2.2,13.8,7.8,25.8,8.4,39.2c0.6,12.5-6.9,23.8-12.1,35.3
			c0.3,1.5,0.5,3.1,0.6,4.3C870.7,642.8,878.1,629.4,879.7,617.3z"/>
		<path class="st5" d="M863.1,654.9c0-0.6,0-1.2,0-1.8c0-0.2,0-0.5-0.1-0.8c-0.5,0.7-1.1,1.3-1.6,1.9L863.1,654.9z"/>
		<path class="st5" d="M861.3,642.8c-6-15.2,5.1-28.2,5.1-42.7c0-10-7.3-14.5-4.3-24.8c2.9-9.8,5-20,3.3-30.6l-0.2-1.2l-0.3,1.1
			c-1.3,5.5-2.8,11-4.2,16.5c-1,3.7-2.4,7.5-3.3,11.4c-1.8,8,3.2,16.7,3.3,24.8c0.1,5.2-1.2,10.6-2.5,15.6
			c-1.1,4.4-1.6,9.3-2.3,13.8c-0.4,2.7-0.5,5.4-0.5,8.1c0.1,4.8,1,9.6,2.5,14.1c0.5,1.4,1.2,2.8,1.8,4.2c0,0.1,0.1,0.2,0.2,0.3
			c0.7-1.9,1.5-3.8,2.3-5.6C861.9,645.3,861.4,642.9,861.3,642.8z"/>
		<path class="st5" d="M861.4,654.3c0.5-0.6,1.1-1.3,1.6-1.9c-0.1-1.3-0.4-2.8-0.6-4.3c-0.9,1.9-1.7,3.8-2.3,5.6l0.1,0.2
			L861.4,654.3z"/>
		<path class="st5" d="M842.2,641.8c0.6-1.4,1.2-2.8,1.7-4.3c1.4-4.6,2.1-9.4,2.1-14.2c-0.1-2.7-0.3-5.4-0.8-8.1
			c-0.5-2.6-1.1-5.1-1.7-7.6c-0.2-0.8-0.4-1.7-0.6-2.5c-1.5-6.4-1.8-12.5-2.2-19c-0.5-7,1.4-13.9,1.2-20.9
			c-0.2-6.8-0.5-11.4-2.8-17.7c-1.8-5.1-4.9-9.3-5.8-14.8c-2.4,12.2,3.4,22.1,5.3,33.5c1.3,8-0.4,14.5-1.3,22.2
			c-0.5,4.7-1.2,8.7-1,13.5c0.4,6.5,3.1,9.6,5.3,14.8c2.2,5.4-0.5,11.5-1.9,16.8c-1.1,3.8-1.8,7.7-2.1,11.6l2.8,1.1
			C840.9,644.8,841.5,643.3,842.2,641.8z"/>
		<path class="st5" d="M852.6,649.3c-2-5.9-3.5-12.2-1.8-18.5c1.7-6,5.8-11.2,6.4-17.6c1-10.5-3.2-19.5-5.6-29.2
			c-0.6-2.2-1.1-4.4-1.5-6.7c-0.8-4.1-1.4-8.1-0.5-12.4c1.3-6.2,2.8-9.3,1.9-16c-1.1-8-4.4-17.3-3.5-25.8c1-9.8,3.8-15.9,7.5-24.3
			c-4.1,4.1-8.9,12.2-11.7,21.4c-2.4,8.2-0.5,16.8,0.5,25c0.8,6.1,3.2,16.3,1.9,22.3c-1.4,6.7-4.2,9.7-3,16.9
			c1.9,10.8,11.2,28,7.6,39.1c-2.3,7.1-5.8,10.7-4.4,19c0.3,2.5,1.1,5,2.3,7.2l4.3,1.6C853,650.6,852.8,649.9,852.6,649.3z"/>
		<path class="st5" d="M921.8,639.7c1.5-11.6-5.2-22.3-5.1-33.9c0.1-13,8.8-24.2,9.8-37.4c0.3-12.6-9.1-23.9-5.4-36.1
			c-5.9,8.2-4.9,20.1-0.4,34.2c5.1,15.8-7.7,23.6-9.9,37.7c-1.7,11.2,6.3,21,6.8,31.9c0.4,9.6-4.9,18.3-9,27.1l3.4,0.1
			C916.7,656.1,920.7,647.6,921.8,639.7z"/>
		<path class="st5" d="M906.9,660.5c-4.9-12.4,4.1-23,4.1-34.7c0-8.1-5.9-11.8-3.5-20.2c2.3-8,4.1-16.3,2.7-24.9l-0.2-1l-0.2,0.9
			c-1.1,4.5-2.3,9-3.4,13.5c-0.8,3-1.9,6.1-2.6,9.3c-1.4,6.5,2.5,13.5,2.7,20.2c0.1,4.2-1,8.6-2,12.7c-0.9,3.6-1.3,7.5-1.9,11.3
			c-0.3,2.2-0.4,4.4-0.4,6.6c0.1,2.9,0.5,5.9,1.2,8.7l4.1,0.2C907.2,661.6,906.9,660.5,906.9,660.5z"/>
		<path class="st5" d="M891.4,659.7c0.5-1.1,1-2.3,1.4-3.5c1.2-3.8,1.7-7.7,1.7-11.6c-0.1-2.2-0.3-4.4-0.6-6.6
			c-0.4-2.1-0.9-4.2-1.4-6.2c-0.2-0.7-0.3-1.4-0.5-2c-1.2-5.2-1.5-10.2-1.8-15.5c-0.3-5.7,1.1-11.3,1-17s-0.4-9.3-2.3-14.4
			c-1.5-4.1-4-7.5-4.7-12.1c-1.9,10,2.8,18,4.3,27.3c1,6.5-0.3,11.8-1.1,18.1c-0.6,3.6-0.8,7.3-0.8,11c0.3,5.3,2.5,7.8,4.3,12.1
			c1.8,4.4-0.4,9.4-1.5,13.7c-0.7,2.7-1.3,5.4-1.6,8.1l2.8,0.5C890.8,660.9,891.1,660.3,891.4,659.7z"/>
		<path class="st5" d="M898.3,650.7c1.4-4.9,4.7-9.1,5.2-14.3c0.8-8.5-2.5-15.9-4.5-23.8c-0.4-1.8-0.8-3.6-1.2-5.4
			c-0.8-3.3-1-6.7-0.4-10.1c1-5,2.3-7.5,1.5-13c-0.9-6.5-3.5-14.1-2.9-21c0.8-8,3.1-12.9,6.1-19.8c-3.3,3.4-7.2,9.9-9.4,17.4
			c-2,6.6-0.4,13.7,0.4,20.4c0.6,5,2.6,13.3,1.6,18.1c-1.1,5.4-3.4,7.9-2.4,13.7c1.5,8.8,9.1,22.8,6.1,31.8
			c-1.9,5.7-4.7,8.7-3.6,15.5c0.1,0.8,0.3,1.5,0.4,2.1c1.3,0.2,2.5,0.3,3.5,0.4C897.8,658.8,897.2,654.8,898.3,650.7z"/>
		<path class="st5" d="M956.6,653.4c1.2-8.3-4.2-16-4.2-24.4c0.1-9.3,7.2-17.4,7.9-26.9c0.3-9-7.4-17.2-4.4-25.9
			c-4.8,5.9-4,14.4-0.3,24.6c4.2,11.4-6.2,16.9-8,27.1c-1.4,8,5.1,15.1,5.5,22.9c0.3,5-2,9.7-4.5,14.4l3.2,0.4
			C954.3,661.8,955.8,657.7,956.6,653.4z"/>
		<path class="st5" d="M947.9,643.4c0-5.8-4.8-8.5-2.8-14.5c1.9-5.7,3.3-11.7,2.2-17.9l-0.1-0.7L947,611c-0.9,3.2-1.8,6.5-2.8,9.7
			c-0.6,2.2-1.6,4.4-2.1,6.7c-1.2,4.7,2.1,9.7,2.2,14.5c-0.1,3.1-0.7,6.2-1.7,9.1c-0.7,2.7-1.2,5.3-1.6,8.1
			c-0.2,1.6-0.4,3.2-0.3,4.8c0,0.2,0,0.4,0,0.6l2.8,0.3C942.5,657.3,947.9,650.7,947.9,643.4z"/>
		<path class="st5" d="M933.5,663.8c0.6-2.2,0.9-4.5,0.9-6.8c0-1.6-0.2-3.2-0.5-4.8c-0.3-1.5-0.7-3-1.1-4.5c-0.1-0.5-0.3-1-0.4-1.5
			c-0.9-3.6-1.3-7.4-1.5-11.1c-0.3-4.1,0.9-8.1,0.8-12.2c0.1-3.5-0.5-7.1-1.8-10.3c-1.2-3-3.3-5.4-3.8-8.7
			c-1.6,7.2,2.3,12.9,3.5,19.6c0.8,4.7-0.3,8.5-0.8,13c-0.5,2.6-0.7,5.2-0.6,7.9c0.2,3.8,2.1,5.6,3.5,8.7s-0.3,6.7-1.2,9.8
			c-0.1,0.2-0.1,0.5-0.2,0.7C931.2,663.6,932.4,663.6,933.5,663.8z"/>
		<path class="st5" d="M937.6,661.4c1.1-3.5,3.8-6.5,4.2-10.3c0.6-6.1-2.1-11.4-3.7-17.1c-0.4-1.3-0.7-2.6-1-3.9
			c-0.7-2.4-0.8-4.9-0.3-7.3c0.8-3.6,1.8-5.4,1.3-9.4c-0.7-4.7-2.9-10.1-2.3-15.1c0.6-5.8,2.5-9.3,5-14.2c-2.7,2.4-5.8,7.1-7.7,12.5
			c-1.6,4.8-0.3,9.8,0.3,14.7c0.5,3.6,2.1,9.5,1.3,13c-0.9,3.9-2.8,5.7-2,9.9c1.2,6.3,7.4,16.4,5,22.8c-1,2.7-2.3,4.5-2.8,6.8
			l2.3,0.2C937.2,663.1,937.3,662.2,937.6,661.4z"/>
		<rect x="-833.5" class="st22" width="3200" height="900"/>
		<path class="st7" d="M254.7,702.7c15.8-4.2,40.5-5.5,59.7-8.2c52.4-7.4-48.3-9.6-64.6-13c-2.4-0.5-4.8-1-7.2-1.7
			c-12.6-3.4-31.8-7.8-51.9-6.5c-19,1.3-32.8,7.2-54.3,8.5c-12.1,0.8-28.3-0.6-37.1,2.6c-7.2,2.6-3.5,6.5-10.2,9
			c-20.8,7.9-47.5,4.5-68.5,12.8c-7.9,3.1-50.4,15.1-53.9,21.2c-6.5,11.3,12,13.8,24.3,13.1c17.4-1,33.3-7.3,50.2-8.5
			s34.6,1.7,51.8,0c10.9-1.1,17.6-3.7,26-5.7c10.1-2.4,20.5-4,30.9-4.5c17.3-1,35.1,0.6,52.6,0.8c14.7,0.2,35.4,0.3,44.1-2.7
			c9.4-3.3-5.6-6.7-5.7-9.9C240.9,707.4,248.2,704.5,254.7,702.7z"/>
		<path class="st23" d="M230,809.7c-0.7-1.9-2.1-3.5-4-4.3c-8-3.3-16.6-10.8-22.6-13.2c-9.5-4-19.2-7.4-29.1-10.3
			c-6.3-1.9-12.8-3.2-19.4-3.8c-33-2.6-68.2,3.8-101.8,3.1c-17-0.3-33.3-1.6-50.3-2.9c-21.3-1.7-41.9,0.6-62.4-0.5
			c-22.7-1.2-42.7-13.9-62.3-21.8c-28.4-11.4-58.8-21.9-90.9-23.6c-7.4-0.4-116.9,28-115.2,39l51.8,115.1l506.3-76.2
			C230.1,810,230.1,809.8,230,809.7z"/>
		<path class="st15" d="M46.1,775.4c-18.2-9.9-41-9.2-58.7,0.7c-3.2,1.8-6.3,3.9-9.1,6.3c-21.2,18-17.6,44.6,16,50.3
			c14.7,2.4,53.1-3.7,64.8-14.3C73.6,805.4,60.8,783.4,46.1,775.4z"/>
		<path class="st16" d="M46.1,775.4c-18.2-9.9-41-9.2-58.7,0.7c-3.2,1.8-6.3,3.9-9.1,6.3c-10.6,9-15,20.1-12.6,29.7
			c4.5,2.2,9.4,3.7,14.4,4.5c14.7,2.5,53.2-3.7,64.8-14.3c7.9-7.1,7.6-16.9,3.4-25.6C47.6,776.3,46.8,775.8,46.1,775.4z"/>
		<path class="st3" d="M133.3,733.5c3.5,4.4,5.8,9.7,6.6,15.3c0.7,5.6,0.2,11.1,2,16.6c2,6.3,7.3,12.3,10.9,17.6
			c0.5,0.7,0.9,1.4,1.3,2.1c-1-6.2-5.1-11.3-7.1-17.3c-2.7-8.3-3.3-17.3-2.9-26.1c0.6-17.4,4.7-35.1,0.6-52.3
			c-1.1-4.4-2.8-8.5-5-12.4c-1.9-3.4-6-6.2-7.3-9.3c7.9,1.8,13.2,8.4,18,14.9c5.1,6.9,7.2,14.7,7.8,22.9c1,13-2.6,25.6-2.5,38.5
			c0.1,4.5,0.8,9.1,2.1,13.4c0.5-2.1,1.2-4.1,2-6.1c2.4-5.2,4.3-10.7,5.7-16.3c1.2-5.1,1.5-10.3,1-15.5c-1-10.8-3.8-21.1-2-32.1
			s7.2-23.5,5.8-35c-1.6-13.3-4.9-21.5-11-32.9c6.8,5.6,14.7,16.5,19.3,29c5.7,15.5-3,33.1-2,48.7c0.6,10.1,2.5,17.3,3.5,27.3
			c1.3,14-6.1,25.8-9.5,38.2c-1,3.6-1.3,7.4-1.8,11.1c-1.4,8.7,6,22.8,2.6,30.3c-9.1,20.5-27.5-17-31.5-21.9c-4.2-5.1-8.2-11-8.9-18
			c-0.9-9,1-17.3-3.3-25.8c-3.3-6.6-9.8-11.2-13.2-17.5c3.5,1.4,6.8,3,10,4.9C127.7,728.3,130.7,730.2,133.3,733.5z"/>
		<path class="st24" d="M218.1,747.2c-2.8,3.5-4.6,7.8-5.3,12.3c-0.5,4.5-0.1,8.9-1.6,13.3c-1.6,5-5.8,9.9-8.7,14.1
			c-0.4,0.6-0.7,1.1-1.1,1.7c0.8-4.9,4.1-9,5.7-13.8c2.2-6.7,2.6-13.8,2.3-20.8c-0.5-13.9-3.7-28-0.5-41.8c0.9-3.5,2.2-6.8,4-9.9
			c1.5-2.7,4.8-5,5.9-7.4c-6.3,1.4-10.5,6.7-14.4,11.9c-4.1,5.5-5.8,11.8-6.2,18.3c-0.8,10.4,2.1,20.4,2,30.7
			c-0.1,3.6-0.6,7.2-1.6,10.7c-0.4-1.7-0.9-3.3-1.6-4.9c-1.9-4.2-3.5-8.6-4.6-13.1c-0.9-4.1-1.2-8.2-0.8-12.4
			c0.8-8.6,3.1-16.9,1.6-25.6s-5.8-18.8-4.7-28c1.3-10.7,3.9-17.2,8.8-26.3c-5.4,4.5-11.7,13.2-15.4,23.2c-4.6,12.4,2.4,26.4,1.6,39
			c-0.5,8-2,13.8-2.8,21.8c-1,11.2,4.9,20.6,7.6,30.6c0.7,2.9,1.1,5.9,1.5,8.9c1.1,7-4.8,18.2-2.1,24.3
			c7.3,16.4,21.9-13.6,25.1-17.5c3.4-4.1,6.6-8.8,7.1-14.4c0.7-7.2-0.8-13.8,2.6-20.6c2.6-5.3,7.9-9,10.5-14c-2.8,1.1-5.4,2.4-8,3.9
			C222.6,743,220.2,744.6,218.1,747.2z"/>
		<path class="st25" d="M524.6,830.9c-3.3-2.4-8.9-2.8-14.5-2c1.8,0.3,3.6,1,5.1,2c15.2,11-12.3,17.6-18.8,19.4
			c-1.2,0.3-2.5,0.8-3.9,1.1c3.6,2.4,9,0,13.3-1.1C512.3,848.5,539.8,841.9,524.6,830.9z"/>
		<path class="st26" d="M515.2,830.9c-1.5-1-3.3-1.7-5.1-2c-6.8,1-13.7,3.7-17,6.9c-3,3-4.9,8.2-3.1,12.4c0.5,1.3,1.4,2.4,2.5,3.2
			c1.3-0.4,2.6-0.8,3.9-1.1C502.9,848.5,530.4,841.9,515.2,830.9z"/>
	</g>
</g>
</svg>
