<svg id="Layer_1" data-name="Layer 1" xmlns="http://www.w3.org/2000/svg" width="320" height="190" viewBox="0 0 320 190">
  <defs>
    <style>
      .cls-1 {
        fill: #001866;
      }

      .cls-2 {
        fill: #fef3ff;
      }

      .cls-3 {
        fill: #002060;
      }

      .cls-4 {
        fill: #d800d8;
      }
    </style>
  </defs>
  <g>
    <g>
      <path class="cls-1" d="M314.35,79a9,9,0,0,0,3.35-3,9.09,9.09,0,0,0,1.1-7.72c-4.67-15-15.39-23.54-29.44-23.54-.51,0-1,0-1.6,0-7.18.34-12.15,2.69-15.48,5.26-.16-13.06.09-25.37.86-33.75a9.08,9.08,0,0,0-9.05-9.9,9.19,9.19,0,0,0-2.53.35A105,105,0,0,1,245.23,9.6a9.08,9.08,0,0,0-8.12,10.66,237.7,237.7,0,0,1,2.94,28.33,29.12,29.12,0,0,0-5.65-3.05,34,34,0,0,0-12.86-2.7,24.62,24.62,0,0,0-19.46,9c-.38.46-.73.94-1.08,1.42a21.47,21.47,0,0,0-16.66-8,21.79,21.79,0,0,0-10.89,2.93,19.62,19.62,0,0,0-6.8-2.55,21.71,21.71,0,0,0-3.94-.36,22.87,22.87,0,0,0-3.32.25A9.11,9.11,0,0,0,151,44.52,31.7,31.7,0,0,1,144.18,46a18.18,18.18,0,0,0-.27-8.14.83.83,0,0,0,0-.15c-1.91-7-8.52-11.64-16.43-11.64a20.9,20.9,0,0,0-8.55,1.86C110.32,31.62,106,40,108.26,48.5a22.86,22.86,0,0,0-7.83-2.73l-.13,0a28.5,28.5,0,0,0-3.89-.28,25.39,25.39,0,0,0-5.93.7,9.13,9.13,0,0,0-5.06-1.53,9,9,0,0,0-3.11.55,46.62,46.62,0,0,1-11.32,2A9.09,9.09,0,0,0,65.84,49c-1.36-7.66-2.48-15-3.28-21.45a9.09,9.09,0,0,0-11-7.75,97,97,0,0,1-17.88,2H32.3a9.07,9.07,0,0,0-9.07,8.66c-.92,20.05-7.14,52.43-16.85,73a9.1,9.1,0,0,0,7.91,13c.1,0,10.1.34,19.25,1.53a8.92,8.92,0,0,0,1.16.07,9.07,9.07,0,0,0,8.61-6.18,9.08,9.08,0,0,0,8.18,5.15,8.8,8.8,0,0,0,1.36-.1c4.28-.65,7.82-1.43,10.95-2.13l2.64-.58a9.06,9.06,0,0,0,5.39,1.79h.27c1.13,0,2.34,0,3.61,0,6,0,11.43.37,11.49.38l.62,0a9.07,9.07,0,0,0,6.52-2.76,7.88,7.88,0,0,0,.55-.62c3.26.46,8.36,1.22,13.12,2.09a9.18,9.18,0,0,0,1.64.15A9.06,9.06,0,0,0,114,114a9.13,9.13,0,0,0,5,1.48,9.54,9.54,0,0,0,1.4-.11c5.17-.81,10.28-1.46,13.48-1.84a7.53,7.53,0,0,0,.56.57,9,9,0,0,0,7.71,2.27c6.55-1.14,14.82-1.58,14.9-1.59a9,9,0,0,0,3.55-.92,105.7,105.7,0,0,1,12.49,1.76,8.58,8.58,0,0,0,1.88.2,9.12,9.12,0,0,0,5-1.49,9.69,9.69,0,0,0,1.65-1.4,93.48,93.48,0,0,1,12.65,1.77,9.33,9.33,0,0,0,2,.21,9.1,9.1,0,0,0,7.7-4.29,28.82,28.82,0,0,0,15.58,4.71,21,21,0,0,0,2.54-.14l.2,0a36.72,36.72,0,0,0,3.73-.72,8.92,8.92,0,0,0,3.72.8,8.68,8.68,0,0,0,1-.06c.05,0,5-.55,10.2-.55.76,0,1.5,0,2.18,0h0a9,9,0,0,0,3.95.92c.27,0,.55,0,.82,0,.1,0,10.09-.92,19.37-1.59a9.07,9.07,0,0,0,6.43-3.37,35.29,35.29,0,0,0,17.49,4.54h.47c16,0,27.33-9.14,27.67-22.24A19.33,19.33,0,0,0,314.35,79Z"/>
      <path class="cls-2" d="M309.51,73a9,9,0,0,0,3.35-3,9.12,9.12,0,0,0,1.1-7.72c-4.67-15-15.4-23.54-29.44-23.54-.51,0-1,0-1.6,0-7.18.34-12.15,2.69-15.48,5.26-.16-13.06.09-25.37.85-33.75A9.1,9.1,0,0,0,256.72.7a105.21,105.21,0,0,1-16.33,2.88,9.09,9.09,0,0,0-8.13,10.66,239.57,239.57,0,0,1,3,28.33,29.12,29.12,0,0,0-5.65-3,34.14,34.14,0,0,0-12.87-2.7,24.62,24.62,0,0,0-19.46,9c-.37.46-.73.94-1.07,1.42a21.47,21.47,0,0,0-16.67-8,21.79,21.79,0,0,0-10.88,2.93,19.62,19.62,0,0,0-6.8-2.55,21.82,21.82,0,0,0-3.95-.36,22.84,22.84,0,0,0-3.31.25,9.11,9.11,0,0,0-8.37-1.06A32,32,0,0,1,139.34,40a18.32,18.32,0,0,0-.27-8.14c0-.05,0-.1,0-.15-1.91-7-8.52-11.64-16.43-11.64a20.87,20.87,0,0,0-8.55,1.86c-8.57,3.69-12.9,12.11-10.63,20.57a22.84,22.84,0,0,0-7.84-2.73l-.12,0a28.5,28.5,0,0,0-3.89-.28,25.54,25.54,0,0,0-5.94.7,9,9,0,0,0-8.17-1,46.47,46.47,0,0,1-11.31,2A9.12,9.12,0,0,0,61,43c-1.35-7.66-2.47-15-3.27-21.45a9.07,9.07,0,0,0-9-8,9.24,9.24,0,0,0-2,.21,96.83,96.83,0,0,1-17.87,2H27.46a9.07,9.07,0,0,0-9.07,8.66c-.93,20-7.15,52.43-16.85,73a9.09,9.09,0,0,0,7.91,13c.1,0,10.1.34,19.24,1.53a9.06,9.06,0,0,0,9.77-6.11,9.19,9.19,0,0,0,2.19,2.89,9.08,9.08,0,0,0,6,2.26,8.89,8.89,0,0,0,1.36-.1c4.28-.65,7.82-1.43,11-2.13l2.64-.58A9,9,0,0,0,67,109.9h.26c1.13,0,2.35,0,3.62,0,6,0,11.43.37,11.48.38l.63,0a9.07,9.07,0,0,0,6.52-2.76c.19-.2.38-.41.55-.62,3.26.46,8.36,1.22,13.11,2.09a9.37,9.37,0,0,0,1.65.15A9.06,9.06,0,0,0,109.2,108a9.13,9.13,0,0,0,5,1.48,9.54,9.54,0,0,0,1.4-.11c5.17-.81,10.27-1.46,13.48-1.84.18.2.36.39.55.57a9,9,0,0,0,7.72,2.27c6.55-1.14,14.82-1.58,14.9-1.59a8.93,8.93,0,0,0,3.54-.92,105.53,105.53,0,0,1,12.5,1.76,8.52,8.52,0,0,0,1.88.2,9.09,9.09,0,0,0,5-1.49,9.39,9.39,0,0,0,1.66-1.4,94.44,94.44,0,0,1,12.64,1.76,8.88,8.88,0,0,0,2,.22,9.11,9.11,0,0,0,7.7-4.29,28.82,28.82,0,0,0,15.58,4.71,21.15,21.15,0,0,0,2.54-.14l.2,0a36,36,0,0,0,3.72-.72,9,9,0,0,0,3.72.8,8.72,8.72,0,0,0,1-.06c.05,0,5-.55,10.2-.55.76,0,1.49,0,2.18,0h0a9,9,0,0,0,4,.92c.27,0,.55,0,.82,0,.1,0,10.08-.92,19.37-1.59a9.07,9.07,0,0,0,6.42-3.37,35.33,35.33,0,0,0,17.5,4.54h.46c16,0,27.34-9.14,27.68-22.24A19.37,19.37,0,0,0,309.51,73Z"/>
      <g>
        <path class="cls-3" d="M48.9,103a154.26,154.26,0,0,0-.8-17,85.57,85.57,0,0,0-13.71-.46c-1,6.4-1.83,12.79-2.29,18.51-9.71-1.26-20.1-1.6-20.1-1.6C21.82,81.59,28.68,48.23,29.7,26A103.1,103.1,0,0,0,51,23.78c3,23.88,9.83,57.46,16.57,75.51C61.46,100.21,56.44,101.81,48.9,103ZM42.16,49.83c-1.95,6.51-4.23,16.1-6.17,26.39a98.45,98.45,0,0,0,10.85-1.15C45.7,66.62,44.1,57.94,42.16,49.83Z"/>
        <path class="cls-3" d="M90,98.49c5.6-16,4.12-33.7-.68-35.07-2.29-.68-4.46.23-6.4,2.86.46,13,1.37,27,2.29,36,0,0-8.23-.57-16-.34a299.6,299.6,0,0,0-.45-50.61s8.11-.34,14-2.51v5a16.48,16.48,0,0,1,13.59-4C110.24,52,113.67,71.65,107,101.12,98.93,99.63,90,98.49,90,98.49Z"/>
        <path class="cls-3" d="M126.47,45.71c-5.26,1.72-10.86,0-12-4.34-1.14-4,.91-8.11,5.48-10,5.26-2.4,11.31-.68,12.57,3.88C133.55,39.2,132.18,43.77,126.47,45.71Zm-10.06,55.75c2.29-14.39,1.37-35.64-.68-49.69A116.28,116.28,0,0,0,132,49.26c-.92,12.79.11,37.69,1.71,49.92C133.66,99.18,125.21,100.09,116.41,101.46Z"/>
        <path class="cls-3" d="M178.1,98.83c5.25-15.65,5.25-33.7.11-35.52a4.36,4.36,0,0,0-4.45.91c2.05,9.25,1.71,22.16-1.37,37.59a118.15,118.15,0,0,0-15.31-2.06c5.14-17,3.66-35-.69-36.33a4.87,4.87,0,0,0-4.79,1.26c.45,13.71,1.48,28.56,2.4,36.1a156.63,156.63,0,0,0-16,1.71c1.49-16.22,1.94-36.44-.34-52,0,0,8.11-.23,13.94-2.4-.12,1.49-.12,3-.12,4.57a13.42,13.42,0,0,1,11-3c3.31.57,5.94,2.52,8,5.83,4-5,9-6.74,13.7-5.83,12.8,2.52,16.57,23.88,9.49,51.18A104.2,104.2,0,0,0,178.1,98.83Z"/>
        <path class="cls-3" d="M227.11,101.23a31.82,31.82,0,0,0,.57-3.31,21.85,21.85,0,0,1-9.25,3.31c-7,.8-18.62-4.22-18.85-14.5-.23-11.43,9.94-16.91,19-17.14a19.15,19.15,0,0,1,10.05,2.63c-1.94-17.37-10.05-14-9-5.71a68.47,68.47,0,0,0-16.57,2c-2.74-13.48,7.77-26.73,25.36-19.53,19.42,7.88,10.51,37.92,12.46,51.63A108.12,108.12,0,0,0,227.11,101.23Zm-7-20.9c-3,1-5.94,4-4.68,7.08s5.25,3.31,7.76,2.4c3.55-1.37,5.94-5.14,4.92-7.43C226.88,79.76,222.88,79.3,220.14,80.33Z"/>
        <path class="cls-3" d="M244.47,101.58c4.34-25.59,2.74-67.06-1-87.85a114.65,114.65,0,0,0,18-3.2c-1.94,21.36-.68,68.08,2.52,89.45C254.53,100.66,244.47,101.58,244.47,101.58Z"/>
        <path class="cls-3" d="M288.68,101.12c-8.11-.11-15.31-2.86-21.36-11A79.42,79.42,0,0,1,277.6,78.27c3.89,7.88,10.85,9.83,12.57,7.77,1.37-1.71.45-4.68-7-7.88-6.74-2.86-12.68-7.08-13-14.62-.35-6.06,3.42-14.06,15.42-14.63,12.91-.57,19.19,8.34,21.93,17.14a45.28,45.28,0,0,0-14.74,4.34c-3.42-8.91-9-8.57-8.56-5C285.6,75,308,73,307.65,87.75,307.42,96.55,299,101.23,288.68,101.12Z"/>
      </g>
      <g>
        <path class="cls-4" d="M46.65,101.84a154.47,154.47,0,0,0-.8-17,86.5,86.5,0,0,0-13.71-.45c-1,6.39-1.83,12.79-2.28,18.5-9.71-1.26-20.11-1.6-20.11-1.6,9.83-20.79,16.68-54.15,17.71-76.42a103.21,103.21,0,0,0,21.25-2.17c3,23.87,9.82,57.46,16.56,75.51C59.22,99.1,54.19,100.7,46.65,101.84ZM39.91,48.72C38,55.23,35.68,64.83,33.74,75.11A95.45,95.45,0,0,0,44.59,74C43.45,65.52,41.85,56.83,39.91,48.72Z"/>
        <path class="cls-4" d="M87.78,97.39c5.6-16,4.11-33.7-.69-35.07-2.28-.69-4.45.23-6.39,2.85.45,13,1.37,27,2.28,36,0,0-8.22-.57-16-.34a299.57,299.57,0,0,0-.46-50.61s8.11-.34,14-2.51v5a16.57,16.57,0,0,1,13.6-4C108,50.89,111.42,70.54,104.8,100,96.69,98.53,87.78,97.39,87.78,97.39Z"/>
        <path class="cls-4" d="M124.22,44.61c-5.26,1.71-10.85,0-12-4.34-1.14-4,.92-8.11,5.49-10.05,5.25-2.4,11.31-.69,12.56,3.88C131.3,38.1,129.93,42.67,124.22,44.61Zm-10,55.75c2.28-14.4,1.37-35.64-.69-49.69a117,117,0,0,0,16.22-2.52c-.91,12.8.12,37.7,1.72,49.92C131.42,98.07,123,99,114.17,100.36Z"/>
        <path class="cls-4" d="M175.85,97.73c5.26-15.65,5.26-33.7.12-35.53a4.38,4.38,0,0,0-4.46.92c2.06,9.25,1.72,22.16-1.37,37.58a118.15,118.15,0,0,0-15.31-2.06c5.15-17,3.66-34.95-.68-36.32a4.89,4.89,0,0,0-4.8,1.25c.46,13.71,1.49,28.56,2.4,36.1a157.75,157.75,0,0,0-16,1.72c1.48-16.22,1.94-36.44-.35-52,0,0,8.11-.23,13.94-2.4-.11,1.48-.11,3-.11,4.57a13.36,13.36,0,0,1,11-3c3.32.57,5.94,2.51,8,5.83,4-5,9-6.74,13.71-5.83,12.79,2.51,16.56,23.87,9.48,51.18A102.69,102.69,0,0,0,175.85,97.73Z"/>
        <path class="cls-4" d="M224.86,100.13a31.82,31.82,0,0,0,.57-3.31,22.12,22.12,0,0,1-9.25,3.31c-7,.8-18.62-4.23-18.85-14.51-.23-11.42,9.94-16.91,19-17.13a19.24,19.24,0,0,1,10.06,2.62c-1.94-17.36-10.06-14-9-5.71a68.1,68.1,0,0,0-16.56,2.06C198,54,208.53,40.73,226.12,47.92c19.42,7.89,10.51,37.93,12.45,51.64A108.25,108.25,0,0,0,224.86,100.13Zm-7-20.91c-3,1-5.94,4-4.68,7.09s5.26,3.31,7.77,2.4c3.54-1.37,5.94-5.14,4.91-7.43C224.63,78.65,220.64,78.2,217.89,79.22Z"/>
        <path class="cls-4" d="M242.23,100.47c4.34-25.59,2.74-67-1-87.85a114.09,114.09,0,0,0,18.05-3.19c-1.94,21.36-.69,68.08,2.51,89.44C252.28,99.56,242.23,100.47,242.23,100.47Z"/>
        <path class="cls-4" d="M286.44,100c-8.11-.12-15.31-2.86-21.37-11a79.22,79.22,0,0,1,10.29-11.88c3.88,7.88,10.85,9.82,12.56,7.77,1.37-1.72.46-4.69-7-7.89-6.74-2.85-12.68-7.08-13-14.62-.34-6,3.43-14,15.42-14.62,12.91-.57,19.19,8.34,21.94,17.14a45,45,0,0,0-14.74,4.34c-3.43-8.91-9-8.57-8.57-5,1.37,9.6,23.76,7.65,23.42,22.39C305.17,95.45,296.72,100.13,286.44,100Z"/>
      </g>
    </g>
    <g>
      <path class="cls-1" d="M247.52,159.65a26.15,26.15,0,0,0-3.89-13.3,9.87,9.87,0,0,0,.81-4.24A54.92,54.92,0,0,1,245.82,132a10,10,0,0,0-9.76-12.18l-.53,0c-7.2.38-20.71,1.42-30.33,4.14a10,10,0,0,0-7.27,9.09,250.3,250.3,0,0,0-.29,26.6,10.24,10.24,0,0,0-.75,1.22,9.84,9.84,0,0,0-3.28-3.23,10.11,10.11,0,0,0,.65-3.55,38.42,38.42,0,0,1,.6-5.86,10,10,0,0,0-2.31-8.42,9.66,9.66,0,0,0-1.56-1.44,10,10,0,0,0-9.52-10.93c-.2,0-5-.21-9.88-.29h-.14a10,10,0,0,0-9.59,7.17c-.31,1-.6,2.08-.87,3.13a14.87,14.87,0,0,0-1.54-.35,18.56,18.56,0,0,0-3.19-.27,21.06,21.06,0,0,0-3.36.28,10,10,0,0,0-7.82-.25,20.52,20.52,0,0,1-5.07.8,10,10,0,0,0-3.75.86,21.93,21.93,0,0,0-2.18-1,25.3,25.3,0,0,0-9.57-2H124c-3.34-9.56-12.71-15.15-25.88-15.15a60.21,60.21,0,0,0-14,1.76,10,10,0,0,0-7.44,11.7c2.68,13.23,3,32.81.65,43.66a10,10,0,0,0,9.79,12.09,9.64,9.64,0,0,0,1.69-.14,52.92,52.92,0,0,1,7.9-.63c1,0,2,0,2.84.11a8.25,8.25,0,0,0,.86,0,10,10,0,0,0,7.58-3.49,9.6,9.6,0,0,0,1.26-1.85,22.14,22.14,0,0,0,14,5.18,17.41,17.41,0,0,0,2.06-.12l.23,0c.48-.06,1-.14,1.42-.23a10,10,0,0,0,3.64.27,56.51,56.51,0,0,1,5.76-.32h.05a10,10,0,0,0,4.07.87,9.81,9.81,0,0,0,3.07-.49,22.43,22.43,0,0,1,6.27-.85h.67a10,10,0,0,0,9.89-11.37c3.5,8.3,9.7,11,14.21,11.83a19.47,19.47,0,0,0,3.63.34c7,0,15.5-4.11,18.89-15.18,3.21,9.53,11.66,15.36,23.09,15.36h.83a26.5,26.5,0,0,0,19.86-9.1A29.57,29.57,0,0,0,247.52,159.65Z"/>
      <path class="cls-2" d="M243.52,155.65a26.15,26.15,0,0,0-3.89-13.3,9.87,9.87,0,0,0,.81-4.24A54.92,54.92,0,0,1,241.82,128a10,10,0,0,0-9.76-12.18l-.53,0c-7.2.38-20.71,1.42-30.33,4.14a10,10,0,0,0-7.27,9.09,250.3,250.3,0,0,0-.29,26.6,10.24,10.24,0,0,0-.75,1.22,9.84,9.84,0,0,0-3.28-3.23,10.11,10.11,0,0,0,.65-3.55,38.42,38.42,0,0,1,.6-5.86,10,10,0,0,0-2.31-8.42,9.66,9.66,0,0,0-1.56-1.44,10,10,0,0,0-9.52-10.93c-.2,0-5-.21-9.88-.29h-.14a10,10,0,0,0-9.59,7.17c-.31,1-.6,2.08-.87,3.13a14.87,14.87,0,0,0-1.54-.35,18.56,18.56,0,0,0-3.19-.27,21.06,21.06,0,0,0-3.36.28,10,10,0,0,0-7.82-.25,20.52,20.52,0,0,1-5.07.8,10,10,0,0,0-3.75.86,21.93,21.93,0,0,0-2.18-1,25.3,25.3,0,0,0-9.57-2H120c-3.34-9.56-12.71-15.15-25.88-15.15a60.21,60.21,0,0,0-14,1.76,10,10,0,0,0-7.44,11.7c2.68,13.23,3,32.81.65,43.66a10,10,0,0,0,9.79,12.09,9.64,9.64,0,0,0,1.69-.14,52.92,52.92,0,0,1,7.9-.63c1,0,2,0,2.84.11a8.25,8.25,0,0,0,.86,0,10,10,0,0,0,7.58-3.49,9.6,9.6,0,0,0,1.26-1.85,22.14,22.14,0,0,0,14,5.18,17.41,17.41,0,0,0,2.06-.12l.23,0c.48-.06,1-.14,1.42-.23a10,10,0,0,0,3.64.27,56.51,56.51,0,0,1,5.76-.32h.05a10,10,0,0,0,4.07.87,9.81,9.81,0,0,0,3.07-.49,22.43,22.43,0,0,1,6.27-.85h.67a10,10,0,0,0,9.89-11.37c3.5,8.3,9.7,11,14.21,11.83a19.47,19.47,0,0,0,3.63.34c7,0,15.5-4.11,18.89-15.18,3.21,9.53,11.66,15.36,23.09,15.36h.83a26.5,26.5,0,0,0,19.86-9.1A29.57,29.57,0,0,0,243.52,155.65Z"/>
      <g>
        <path class="cls-3" d="M95.67,157.49A118.45,118.45,0,0,0,98.4,177a59.28,59.28,0,0,0-13.3.63c2.73-12.74,2.24-33.61-.63-47.75,10.08-2.45,26.74-3.29,28.7,9.38C114.29,146.42,110.58,155.39,95.67,157.49Zm-.21-17.16c-.14,2.66-.21,6-.14,9.87,4.06-.56,7.77-2.45,8.05-5.39C103.72,141.31,101,139.21,95.46,140.33Z"/>
        <path class="cls-3" d="M127.52,176.74a20.52,20.52,0,0,0,.35-2,13.47,13.47,0,0,1-5.67,2c-4.27.49-11.41-2.59-11.55-8.89-.14-7,6.09-10.36,11.62-10.5a11.75,11.75,0,0,1,6.16,1.61c-1.19-10.65-6.16-8.62-5.53-3.5a41.86,41.86,0,0,0-10.15,1.26c-1.68-8.27,4.76-16.39,15.54-12,11.9,4.83,6.44,23.25,7.63,31.65A66.39,66.39,0,0,0,127.52,176.74Zm-4.27-12.81c-1.82.63-3.64,2.45-2.87,4.34s3.22,2,4.76,1.47c2.17-.84,3.64-3.15,3-4.55C127.38,163.58,124.93,163.3,123.25,163.93Z"/>
        <path class="cls-3" d="M152.3,160.43c.14-3.92-.77-6.44-2.1-6.72s-2.45.21-3.5,2a182,182,0,0,0,1.82,20.16,33,33,0,0,0-10,1.33c.7-9.66,1.19-22-.21-31.58a30.49,30.49,0,0,0,8.4-1.47c-.07,1.12-.14,2.38-.14,3.71a11.37,11.37,0,0,1,9.17-2.94c4.62.77,7,5.32,6.86,13.17A53.57,53.57,0,0,0,152.3,160.43Z"/>
        <path class="cls-3" d="M174.42,176.53c-8.12-1.47-9.59-13-8.26-25.21-1.61.07-2.59.15-2.59.15.13-3.16.56-6.1.56-6.1l2.94-.14a92.84,92.84,0,0,1,2.38-10.08c4.76.07,9.59.28,9.59.28a59.59,59.59,0,0,0-2.94,9.31l6.93-.35a49.62,49.62,0,0,0-.77,7.7c-2.52-.41-5.11-.62-7.56-.77-1.47,8.76-1,15.62.49,16.18s2.38-2.8,2.31-6.86c4.69,1.61,9,3.57,9,3.57C185.41,173.8,180.16,177.58,174.42,176.53Z"/>
        <path class="cls-3" d="M218.8,176.88c-9.11.21-14.64-4.62-15.06-13.37a84.57,84.57,0,0,1,11.84-3.64c-.63,8.33,10.08,7.21,9-1.75-.91-8.48-13.1-4.84-19-.77a241.11,241.11,0,0,1,.28-25.77c8.2-2.31,20.24-3.36,28.15-3.78,0,0-1.75,7.84-1.61,12.6a47.26,47.26,0,0,0-18.28.14c-.42,3.29-.48,6-.48,6,12.88-5.88,21.49.63,21.84,11.49C235.81,168.55,229.58,176.6,218.8,176.88Z"/>
      </g>
      <g>
        <path class="cls-4" d="M93.67,155.49A118.45,118.45,0,0,0,96.4,175a59.28,59.28,0,0,0-13.3.63c2.73-12.74,2.24-33.61-.63-47.75,10.08-2.45,26.74-3.29,28.7,9.38C112.29,144.42,108.58,153.39,93.67,155.49Zm-.21-17.16c-.14,2.66-.21,6-.14,9.87,4.06-.56,7.77-2.45,8.05-5.39C101.72,139.31,99,137.21,93.46,138.33Z"/>
        <path class="cls-4" d="M125.52,174.74a20.52,20.52,0,0,0,.35-2,13.47,13.47,0,0,1-5.67,2c-4.27.49-11.41-2.59-11.55-8.89-.14-7,6.09-10.36,11.62-10.5a11.75,11.75,0,0,1,6.16,1.61c-1.19-10.65-6.16-8.62-5.53-3.5a41.86,41.86,0,0,0-10.15,1.26c-1.68-8.27,4.76-16.39,15.54-12,11.9,4.83,6.44,23.25,7.63,31.65A66.39,66.39,0,0,0,125.52,174.74Zm-4.27-12.81c-1.82.63-3.64,2.45-2.87,4.34s3.22,2,4.76,1.47c2.17-.84,3.64-3.15,3-4.55C125.38,161.58,122.93,161.3,121.25,161.93Z"/>
        <path class="cls-4" d="M150.3,158.43c.14-3.92-.77-6.44-2.1-6.72s-2.45.21-3.5,2a182,182,0,0,0,1.82,20.16,33,33,0,0,0-10,1.33c.7-9.66,1.19-22-.21-31.58a30.49,30.49,0,0,0,8.4-1.47c-.07,1.12-.14,2.38-.14,3.71a11.37,11.37,0,0,1,9.17-2.94c4.62.77,7,5.32,6.86,13.17A53.57,53.57,0,0,0,150.3,158.43Z"/>
        <path class="cls-4" d="M172.42,174.53c-8.12-1.47-9.59-13-8.26-25.21-1.61.07-2.59.15-2.59.15.13-3.16.56-6.1.56-6.1l2.94-.14a92.84,92.84,0,0,1,2.38-10.08c4.76.07,9.59.28,9.59.28a59.59,59.59,0,0,0-2.94,9.31l6.93-.35a49.62,49.62,0,0,0-.77,7.7c-2.52-.41-5.11-.62-7.56-.77-1.47,8.76-1,15.62.49,16.18s2.38-2.8,2.31-6.86c4.69,1.61,9,3.57,9,3.57C183.41,171.8,178.16,175.58,172.42,174.53Z"/>
        <path class="cls-4" d="M216.8,174.88c-9.11.21-14.64-4.62-15.06-13.37a84.57,84.57,0,0,1,11.84-3.64c-.63,8.33,10.08,7.21,9-1.75-.91-8.48-13.1-4.84-19-.77a241.11,241.11,0,0,1,.28-25.77c8.2-2.31,20.24-3.36,28.15-3.78,0,0-1.75,7.84-1.61,12.6a47.26,47.26,0,0,0-18.28.14c-.42,3.29-.48,6-.48,6,12.88-5.88,21.49.63,21.84,11.49C233.81,166.55,227.58,174.6,216.8,174.88Z"/>
      </g>
    </g>
  </g>
</svg>
