<?xml version="1.0" encoding="utf-8"?>
<!-- Generator: Adobe Illustrator 25.2.3, SVG Export Plug-In . SVG Version: 6.00 Build 0)  -->
<svg version="1.1" id="Layer_1" xmlns="http://www.w3.org/2000/svg" xmlns:xlink="http://www.w3.org/1999/xlink" x="0px" y="0px"
	 viewBox="0 0 512 570" style="enable-background:new 0 0 512 570;" xml:space="preserve">
<style type="text/css">
	.st0{fill:#FFC50E;}
	.st1{fill:#FDDF00;}
	.st2{fill:#FAAD20;}
	.st3{fill:#F7981D;}
	.st4{fill:none;stroke:#5C5536;stroke-width:3;stroke-miterlimit:10;}
	.st5{fill:none;stroke:#5C5536;stroke-width:1.5;stroke-miterlimit:10;}
</style>
<g>
	<g>
		<path class="st0" d="M498.4,363.1c-1,0-1.9-0.2-2.8-0.6h-0.1c-0.1-0.1-0.2-0.1-0.3-0.2s0.1-0.2,0.1-0.3c0.2-0.4,0.3-0.9,0.4-1.4
			c0.2-1.1,0.4-2.1,0.7-3.2c0.2-0.6,0.4-1.2,0.8-1.7c0.2-0.2,0.1-0.2,0.4-0.1c0.5,0.3,1.1,0.3,1.6,0c0.1-0.1,0.2,0,0.2,0
			c0.4,0.4,0.6,1,0.8,1.5c0.3,0.8,0.4,1.7,0.6,2.6c0.1,0.7,0.3,1.3,0.5,2c0,0.1,0.1,0.3,0.2,0.4c0.1,0.1,0,0.1,0,0.2
			c-0.4,0.3-0.9,0.4-1.4,0.5C499.6,363.1,499,363.1,498.4,363.1z"/>
		<path class="st0" d="M498.4,353.1c0.7-0.1,1.3,0.4,1.3,1.1c0.1,0.7-0.4,1.3-1.1,1.3c-0.1,0-0.1,0-0.2,0c-0.7-0.1-1.2-0.6-1.1-1.3
			C497.4,353.6,497.8,353.2,498.4,353.1z"/>
	</g>
	<path class="st1" d="M498.6,272h-0.5c-0.2,0-0.4,0.3-0.4,0.5c0,0.2,0.2,0.3,0.4,0.4c-0.2,0-0.4,0.2-0.4,0.5c0,0.2,0.1,0.4,0.4,0.4
		c0,0,0,0,0,0c-0.2,0-0.4,0.2-0.4,0.5c0.2,0.1,0.4,0.3,0.4,0.5c0,0.2-0.2,0.3-0.4,0.4c0.2,0.1,0.4,0.3,0.4,0.5
		c0,0.2-0.2,0.3-0.4,0.4c0.2,0.1,0.4,0.3,0.4,0.5c0,0.2-0.2,0.3-0.4,0.4c0.2,0.1,0.4,0.3,0.4,0.5c0,0.2-0.2,0.3-0.4,0.4
		c0.2,0.1,0.4,0.3,0.4,0.5c0,0.2-0.2,0.3-0.4,0.4c0.2,0.1,0.4,0.3,0.4,0.5c0,0.2-0.2,0.3-0.4,0.4c0.2,0.1,0.4,0.3,0.4,0.5
		c0,0.2-0.2,0.3-0.4,0.4c0.2,0.1,0.4,0.3,0.4,0.5c0,0.2-0.2,0.3-0.4,0.4c0.2,0.1,0.4,0.3,0.4,0.5c0,0.2-0.2,0.3-0.4,0.4
		c0,0.2,0.1,0.4,0.4,0.5c-0.2,0-0.4,0.2-0.4,0.4c0,0,0,0,0,0c0,0.2,0.1,0.4,0.4,0.5c-0.2,0-0.4,0.3-0.4,0.5c0,0.2,0.2,0.3,0.4,0.4
		c-0.2,0-0.4,0.2-0.4,0.5c0,0.2,0.1,0.4,0.4,0.4c0,0,0,0,0,0c-0.2,0-0.4,0.2-0.4,0.5c0.2,0.1,0.4,0.3,0.4,0.5c0,0.2-0.2,0.3-0.4,0.4
		c0.2,0.1,0.4,0.3,0.4,0.5c0,0.2-0.2,0.3-0.4,0.4c0.2,0.1,0.4,0.3,0.4,0.5c0,0.2-0.2,0.3-0.4,0.4c0.2,0.1,0.4,0.3,0.4,0.5
		c0,0.2-0.2,0.3-0.4,0.4c0.2,0.1,0.4,0.3,0.4,0.5c0,0.2-0.2,0.3-0.4,0.4c0.2,0.1,0.4,0.3,0.4,0.5c0,0.2-0.2,0.3-0.4,0.4
		c0.2,0.1,0.4,0.3,0.4,0.5c0,0.2-0.2,0.3-0.4,0.4c0.2,0.1,0.4,0.3,0.4,0.5c0,0.2-0.2,0.3-0.4,0.4c0.2,0.1,0.4,0.3,0.4,0.5
		c0,0.2-0.2,0.3-0.4,0.4c0,0.2,0.1,0.4,0.4,0.5c-0.2,0-0.4,0.2-0.4,0.4c0,0,0,0,0,0c0,0.2,0.1,0.4,0.4,0.5c-0.2,0-0.4,0.3-0.4,0.5
		c0,0.2,0.2,0.3,0.4,0.4c-0.2,0-0.4,0.2-0.4,0.5c0.2,0.1,0.4,0.3,0.4,0.5c0,0.2-0.2,0.3-0.4,0.4c0.2,0.1,0.4,0.3,0.4,0.5
		c0,0.2-0.2,0.3-0.4,0.4c0.2,0.1,0.4,0.3,0.4,0.5c0,0.2-0.2,0.3-0.4,0.4c0.2,0.1,0.4,0.3,0.4,0.5c0,0.2-0.2,0.3-0.4,0.4
		c0.2,0.1,0.4,0.3,0.4,0.5c0,0.2-0.2,0.3-0.4,0.4c0.2,0.1,0.4,0.3,0.4,0.5c0,0.2-0.2,0.3-0.4,0.4c0.2,0.1,0.4,0.3,0.4,0.5
		c0,0.2-0.2,0.3-0.4,0.4c0.2,0.1,0.4,0.3,0.4,0.5c0,0.2-0.2,0.3-0.4,0.4c0.2,0.1,0.4,0.3,0.4,0.5c0,0.2-0.2,0.3-0.4,0.4
		c0.2,0.1,0.4,0.3,0.4,0.5c0,0.2-0.2,0.3-0.4,0.4c0,0.2,0.1,0.4,0.4,0.5c-0.2,0-0.4,0.3-0.4,0.5c0,0.2,0.2,0.3,0.4,0.4
		c-0.2,0-0.4,0.2-0.4,0.5c0,0.2,0.1,0.4,0.4,0.4c0,0,0,0,0,0c-0.2,0-0.4,0.2-0.4,0.5c0.2,0.1,0.4,0.3,0.4,0.5c0,0.2-0.2,0.3-0.4,0.4
		c0.2,0.1,0.4,0.3,0.4,0.5c0,0.2-0.2,0.3-0.4,0.4c0.2,0.1,0.4,0.3,0.4,0.5c0,0.2-0.2,0.3-0.4,0.4c0.2,0.1,0.4,0.3,0.4,0.5
		c0,0.2-0.2,0.3-0.4,0.4c0.2,0.1,0.4,0.3,0.4,0.5c0,0.2-0.2,0.3-0.4,0.4c0.2,0.1,0.4,0.3,0.4,0.5c0,0.2-0.2,0.3-0.4,0.4
		c0.2,0.1,0.4,0.3,0.4,0.5c0,0.2-0.2,0.3-0.4,0.4c0.2,0.1,0.4,0.3,0.4,0.5c0,0.2-0.2,0.3-0.4,0.4c0.2,0.1,0.4,0.3,0.4,0.5
		c0,0.2-0.2,0.3-0.4,0.4c0,0.2,0.1,0.4,0.4,0.5c-0.2,0-0.4,0.2-0.4,0.4c0,0,0,0,0,0c0,0.2,0.1,0.4,0.4,0.5c-0.2,0-0.4,0.3-0.4,0.5
		c0,0.2,0.2,0.3,0.4,0.4c-0.2,0-0.4,0.2-0.4,0.5c0,0.2,0.1,0.4,0.4,0.4c0,0,0,0,0,0c-0.2,0-0.4,0.2-0.4,0.5c0.2,0.1,0.4,0.3,0.4,0.5
		c0,0.2-0.2,0.3-0.4,0.4c0.2,0.1,0.4,0.3,0.4,0.5c0,0.2-0.2,0.3-0.4,0.4c0.2,0.1,0.4,0.3,0.4,0.5c0,0.2-0.2,0.3-0.4,0.4
		c0.2,0.1,0.4,0.3,0.4,0.5c0,0.2-0.2,0.3-0.4,0.4c0.2,0.1,0.4,0.3,0.4,0.5c0,0.2-0.2,0.3-0.4,0.4c0.2,0.1,0.4,0.3,0.4,0.5
		c0,0.2-0.2,0.3-0.4,0.4c0.2,0.1,0.4,0.3,0.4,0.5c0,0.2-0.2,0.3-0.4,0.4c0.2,0.1,0.4,0.3,0.4,0.5c0,0.2-0.2,0.3-0.4,0.4
		c0.2,0.1,0.4,0.3,0.4,0.5c0,0.2-0.2,0.3-0.4,0.4c0,0.2,0.1,0.4,0.4,0.5c-0.2,0-0.4,0.2-0.4,0.4c0,0,0,0,0,0c0,0.2,0.1,0.4,0.4,0.5
		c-0.2,0-0.4,0.3-0.4,0.5c0,0.2,0.2,0.3,0.4,0.4c-0.2,0-0.4,0.2-0.4,0.5c0.2,0.1,0.4,0.3,0.4,0.5c0,0.2-0.2,0.3-0.4,0.4
		c0.2,0.1,0.4,0.3,0.4,0.5c0,0.2-0.2,0.3-0.4,0.4c0.2,0.1,0.4,0.3,0.4,0.5c0,0.2-0.2,0.3-0.4,0.4c0.2,0.1,0.4,0.3,0.4,0.5
		c0,0.2-0.2,0.3-0.4,0.4c0.2,0.1,0.4,0.3,0.4,0.5c0,0.2-0.2,0.3-0.4,0.4c0.2,0.1,0.4,0.3,0.4,0.5c0,0.2-0.2,0.3-0.4,0.4
		c0.2,0.1,0.4,0.3,0.4,0.5c0,0.2-0.2,0.3-0.4,0.4c0.2,0.1,0.4,0.3,0.4,0.5c0,0.2-0.2,0.3-0.4,0.4c0.2,0.1,0.4,0.3,0.4,0.5
		c0,0.2-0.2,0.3-0.4,0.4c0.2,0.1,0.4,0.3,0.4,0.5c0,0.2-0.2,0.3-0.4,0.4c0,0.2,0.1,0.4,0.4,0.5c-0.2,0-0.4,0.2-0.4,0.4c0,0,0,0,0,0
		c0,0.2,0.1,0.4,0.4,0.5c-0.2,0-0.4,0.3-0.4,0.5c0,0.2,0.2,0.3,0.4,0.4c-0.2,0-0.4,0.2-0.4,0.5c0.2,0.1,0.4,0.3,0.4,0.5
		c0,0.2-0.2,0.3-0.4,0.4c0.2,0.1,0.4,0.3,0.4,0.5c0,0.2-0.2,0.3-0.4,0.4c0.2,0.1,0.4,0.3,0.4,0.5c0,0.2-0.2,0.3-0.4,0.4
		c0.2,0.1,0.4,0.3,0.4,0.5c0,0.2-0.2,0.3-0.4,0.4c0.2,0.1,0.4,0.3,0.4,0.5c0,0.2-0.2,0.3-0.4,0.4c0.2,0.1,0.4,0.3,0.4,0.5
		c0,0.2-0.2,0.3-0.4,0.4c0.2,0.1,0.4,0.3,0.4,0.5c0,0.2-0.2,0.3-0.4,0.4c0.2,0.1,0.4,0.3,0.4,0.5c0,0.2-0.2,0.3-0.4,0.4
		c0.2,0.1,0.4,0.3,0.4,0.5c0,0.2-0.2,0.3-0.4,0.4c0.2,0.1,0.4,0.3,0.4,0.5c0,0.2-0.2,0.3-0.4,0.4c0,0.2,0.1,0.4,0.4,0.5
		c-0.2,0-0.4,0.3-0.4,0.5c0,0.2,0.2,0.3,0.4,0.4h0.5c0.2,0,0.4-0.3,0.4-0.5c0-0.2-0.2-0.3-0.4-0.4c0.2,0,0.4-0.2,0.4-0.5
		c-0.2-0.1-0.4-0.3-0.4-0.5c0-0.2,0.2-0.3,0.4-0.4c-0.2-0.1-0.4-0.3-0.4-0.5c0-0.2,0.2-0.3,0.4-0.4c-0.2-0.1-0.4-0.3-0.4-0.5
		c0-0.2,0.2-0.3,0.4-0.4c-0.2-0.1-0.4-0.3-0.4-0.5c0-0.2,0.2-0.3,0.4-0.4c-0.2-0.1-0.4-0.3-0.4-0.5c0-0.2,0.2-0.3,0.4-0.4
		c-0.2-0.1-0.4-0.3-0.4-0.5c0-0.2,0.2-0.3,0.4-0.4c-0.2-0.1-0.4-0.3-0.4-0.5c0-0.2,0.2-0.3,0.4-0.4c-0.2-0.1-0.4-0.3-0.4-0.5
		c0-0.2,0.2-0.3,0.4-0.4c-0.2-0.1-0.4-0.3-0.4-0.5c0-0.2,0.2-0.3,0.4-0.4c-0.2-0.1-0.4-0.3-0.4-0.5c0-0.2,0.2-0.3,0.4-0.4
		c0-0.2-0.1-0.4-0.4-0.5c0.2,0,0.4-0.3,0.4-0.5c0-0.2-0.2-0.3-0.4-0.4c0.2,0,0.4-0.2,0.4-0.5c0-0.2-0.1-0.4-0.4-0.4c0,0,0,0,0,0
		c0.2,0,0.4-0.2,0.4-0.5c-0.2-0.1-0.4-0.3-0.4-0.5c0-0.2,0.2-0.3,0.4-0.4c-0.2-0.1-0.4-0.3-0.4-0.5c0-0.2,0.2-0.3,0.4-0.4
		c-0.2-0.1-0.4-0.3-0.4-0.5c0-0.2,0.2-0.3,0.4-0.4c-0.2-0.1-0.4-0.3-0.4-0.5c0-0.2,0.2-0.3,0.4-0.4c-0.2-0.1-0.4-0.3-0.4-0.5
		c0-0.2,0.2-0.3,0.4-0.4c-0.2-0.1-0.4-0.3-0.4-0.5c0-0.2,0.2-0.3,0.4-0.4c-0.2-0.1-0.4-0.3-0.4-0.5c0-0.2,0.2-0.3,0.4-0.4
		c-0.2-0.1-0.4-0.3-0.4-0.5c0-0.2,0.2-0.3,0.4-0.4c-0.2-0.1-0.4-0.3-0.4-0.5c0-0.2,0.2-0.3,0.4-0.4c-0.2-0.1-0.4-0.3-0.4-0.5
		c0-0.2,0.2-0.3,0.4-0.4c0-0.2-0.1-0.4-0.4-0.5c0.2,0,0.4-0.3,0.4-0.5c0-0.2-0.2-0.3-0.4-0.4c0.2,0,0.4-0.2,0.4-0.5
		c0-0.2-0.1-0.4-0.4-0.4c0,0,0,0,0,0c0.2,0,0.4-0.2,0.4-0.5c-0.2-0.1-0.4-0.3-0.4-0.5c0-0.2,0.2-0.3,0.4-0.4
		c-0.2-0.1-0.4-0.3-0.4-0.5c0-0.2,0.2-0.3,0.4-0.4c-0.2-0.1-0.4-0.3-0.4-0.5c0-0.2,0.2-0.3,0.4-0.4c-0.2-0.1-0.4-0.3-0.4-0.5
		c0-0.2,0.2-0.3,0.4-0.4c-0.2-0.1-0.4-0.3-0.4-0.5c0-0.2,0.2-0.3,0.4-0.4c-0.2-0.1-0.4-0.3-0.4-0.5c0-0.2,0.2-0.3,0.4-0.4
		c-0.2-0.1-0.4-0.3-0.4-0.5c0-0.2,0.2-0.3,0.4-0.4c-0.2-0.1-0.4-0.3-0.4-0.5c0-0.2,0.2-0.3,0.4-0.4c-0.2-0.1-0.4-0.3-0.4-0.5
		c0-0.2,0.2-0.3,0.4-0.4c0-0.2-0.1-0.4-0.4-0.5c0.2,0,0.4-0.2,0.4-0.4c0,0,0,0,0,0c0-0.2-0.1-0.4-0.4-0.5c0.2,0,0.4-0.3,0.4-0.5
		c0-0.2-0.2-0.3-0.4-0.4c0.2,0,0.4-0.2,0.4-0.5c0-0.2-0.1-0.4-0.4-0.4c0,0,0,0,0,0c0.2,0,0.4-0.2,0.4-0.5c-0.2-0.1-0.4-0.3-0.4-0.5
		c0-0.2,0.2-0.3,0.4-0.4c-0.2-0.1-0.4-0.3-0.4-0.5c0-0.2,0.2-0.3,0.4-0.4c-0.2-0.1-0.4-0.3-0.4-0.5c0-0.2,0.2-0.3,0.4-0.4
		c-0.2-0.1-0.4-0.3-0.4-0.5c0-0.2,0.2-0.3,0.4-0.4c-0.2-0.1-0.4-0.3-0.4-0.5c0-0.2,0.2-0.3,0.4-0.4c-0.2-0.1-0.4-0.3-0.4-0.5
		c0-0.2,0.2-0.3,0.4-0.4c-0.2-0.1-0.4-0.3-0.4-0.5c0-0.2,0.2-0.3,0.4-0.4c-0.2-0.1-0.4-0.3-0.4-0.5c0-0.2,0.2-0.3,0.4-0.4
		c-0.2-0.1-0.4-0.3-0.4-0.5c0-0.2,0.2-0.3,0.4-0.4c0-0.2-0.1-0.4-0.4-0.5c0.2,0,0.4-0.2,0.4-0.4c0,0,0,0,0,0c0-0.2-0.1-0.4-0.4-0.5
		c0.2,0,0.4-0.3,0.4-0.5c0-0.2-0.2-0.3-0.4-0.4c0.2,0,0.4-0.2,0.4-0.5c-0.2-0.1-0.4-0.3-0.4-0.5c0-0.2,0.2-0.3,0.4-0.4
		c-0.2-0.1-0.4-0.3-0.4-0.5c0-0.2,0.2-0.3,0.4-0.4c-0.2-0.1-0.4-0.3-0.4-0.5c0-0.2,0.2-0.3,0.4-0.4c-0.2-0.1-0.4-0.3-0.4-0.5
		c0-0.2,0.2-0.3,0.4-0.4c-0.2-0.1-0.4-0.3-0.4-0.5c0-0.2,0.2-0.3,0.4-0.4c-0.2-0.1-0.4-0.3-0.4-0.5c0-0.2,0.2-0.3,0.4-0.4
		c-0.2-0.1-0.4-0.3-0.4-0.5c0-0.2,0.2-0.3,0.4-0.4c-0.2-0.1-0.4-0.3-0.4-0.5c0-0.2,0.2-0.3,0.4-0.4c-0.2-0.1-0.4-0.3-0.4-0.5
		c0-0.2,0.2-0.3,0.4-0.4c-0.2-0.1-0.4-0.3-0.4-0.5c0-0.2,0.2-0.3,0.4-0.4c0-0.2-0.1-0.4-0.4-0.5c0.2,0,0.4-0.3,0.4-0.5
		c0-0.2-0.2-0.3-0.4-0.4c0.2,0,0.4-0.2,0.4-0.4c0-0.2-0.1-0.4-0.4-0.4c0,0,0,0,0,0c0.2,0,0.4-0.2,0.4-0.5c-0.2-0.1-0.4-0.3-0.4-0.5
		c0-0.2,0.2-0.3,0.4-0.4c-0.2-0.1-0.4-0.3-0.4-0.5c0-0.2,0.2-0.3,0.4-0.4c-0.2-0.1-0.4-0.3-0.4-0.5c0-0.2,0.2-0.3,0.4-0.4
		c-0.2-0.1-0.4-0.3-0.4-0.5c0-0.2,0.2-0.3,0.4-0.4c-0.2-0.1-0.4-0.3-0.4-0.5c0-0.2,0.2-0.3,0.4-0.4c-0.2-0.1-0.4-0.3-0.4-0.5
		c0-0.2,0.2-0.3,0.4-0.4c-0.2-0.1-0.4-0.3-0.4-0.5c0-0.2,0.2-0.3,0.4-0.4c-0.2-0.1-0.4-0.3-0.4-0.5c0-0.2,0.2-0.3,0.4-0.4
		c-0.2-0.1-0.4-0.3-0.4-0.5c0-0.2,0.2-0.3,0.4-0.4c0-0.2-0.1-0.4-0.4-0.5c0.2,0,0.4-0.2,0.4-0.4c0,0,0,0,0,0c0-0.2-0.1-0.4-0.4-0.5
		c0.2,0,0.4-0.3,0.4-0.5c0-0.2-0.2-0.3-0.4-0.4c0.2,0,0.4-0.2,0.4-0.5c0-0.2-0.1-0.4-0.4-0.4c0,0,0,0,0,0c0.2,0,0.4-0.2,0.4-0.5
		c-0.2-0.1-0.4-0.3-0.4-0.5c0-0.2,0.2-0.3,0.4-0.4c-0.2-0.1-0.4-0.3-0.4-0.5c0-0.2,0.2-0.3,0.4-0.4c-0.2-0.1-0.4-0.3-0.4-0.5
		c0-0.2,0.2-0.3,0.4-0.4c-0.2-0.1-0.4-0.3-0.4-0.5c0-0.2,0.2-0.3,0.4-0.4c-0.2-0.1-0.4-0.3-0.4-0.5c0-0.2,0.2-0.3,0.4-0.4
		c-0.2-0.1-0.4-0.3-0.4-0.5c0-0.2,0.2-0.3,0.4-0.4c-0.2-0.1-0.4-0.3-0.4-0.5c0-0.2,0.2-0.3,0.4-0.4c-0.2-0.1-0.4-0.3-0.4-0.5
		c0-0.2,0.2-0.3,0.4-0.4c-0.2-0.1-0.4-0.3-0.4-0.5c0-0.2,0.2-0.3,0.4-0.4c0-0.2-0.1-0.4-0.4-0.5c0.2,0,0.4-0.2,0.4-0.4c0,0,0,0,0,0
		c0-0.2-0.1-0.4-0.4-0.5c0.2,0,0.4-0.3,0.4-0.5C499,272.3,498.8,272.1,498.6,272L498.6,272z"/>
	<g>
		<path class="st0" d="M14,363.1c-1,0-2-0.2-2.8-0.6l0,0c-0.1-0.1-0.2-0.1-0.3-0.2s0.1-0.2,0.1-0.3c0.2-0.4,0.3-0.9,0.4-1.4
			c0.2-1.1,0.4-2.1,0.7-3.2c0.2-0.6,0.4-1.2,0.8-1.7c0.1-0.2,0.1-0.2,0.4-0.1c0.5,0.3,1.1,0.3,1.6,0c0.1-0.1,0.2,0,0.2,0
			c0.4,0.4,0.6,1,0.8,1.5c0.2,0.8,0.4,1.7,0.6,2.6c0.1,0.7,0.3,1.3,0.5,2c0,0.1,0.1,0.3,0.2,0.4c0.1,0.1,0,0.1,0,0.2
			c-0.4,0.3-0.9,0.4-1.4,0.5C15.2,363.1,14.6,363.1,14,363.1z"/>
		<path class="st0" d="M14,353.1c0.7,0,1.2,0.5,1.2,1.2c0,0.7-0.5,1.2-1.2,1.2c-0.7,0-1.2-0.5-1.2-1.2c0,0,0,0,0,0
			C12.8,353.6,13.3,353.1,14,353.1C14,353.1,14,353.1,14,353.1z"/>
	</g>
	<path class="st1" d="M14.2,272h-0.5c-0.2,0-0.4,0.3-0.4,0.5c0,0.2,0.2,0.3,0.4,0.4c-0.2,0-0.4,0.2-0.4,0.5c0,0.2,0.1,0.4,0.4,0.5
		c-0.2,0-0.4,0.2-0.4,0.5c0.2,0.1,0.4,0.3,0.4,0.5c0,0.2-0.2,0.3-0.4,0.4c0.2,0.1,0.4,0.3,0.4,0.5c0,0.2-0.2,0.3-0.4,0.4
		c0.2,0.1,0.4,0.3,0.4,0.5c0,0.2-0.2,0.3-0.4,0.4c0.2,0.1,0.4,0.3,0.4,0.5c0,0.2-0.2,0.3-0.4,0.4c0.2,0.1,0.4,0.3,0.4,0.5
		c0,0.2-0.2,0.3-0.4,0.4c0.2,0.1,0.4,0.3,0.4,0.5c0,0.2-0.2,0.3-0.4,0.4c0.2,0.1,0.4,0.3,0.4,0.5c0,0.2-0.2,0.3-0.4,0.4
		c0.2,0.1,0.4,0.3,0.4,0.5c0,0.2-0.2,0.3-0.4,0.4c0.2,0.1,0.4,0.3,0.4,0.5c0,0.2-0.2,0.3-0.4,0.4c0,0.2,0.1,0.4,0.4,0.5
		c-0.2,0-0.4,0.2-0.4,0.5c0,0.2,0.1,0.4,0.4,0.5c-0.2,0-0.4,0.3-0.4,0.5c0,0.2,0.2,0.3,0.4,0.4c-0.2,0-0.4,0.2-0.4,0.5
		c0,0.2,0.1,0.4,0.4,0.5c-0.2,0-0.4,0.2-0.4,0.5c0.2,0.1,0.4,0.3,0.4,0.5c0,0.2-0.2,0.3-0.4,0.4c0.2,0.1,0.4,0.3,0.4,0.5
		c0,0.2-0.2,0.3-0.4,0.4c0.2,0.1,0.4,0.3,0.4,0.5c0,0.2-0.2,0.3-0.4,0.4c0.2,0.1,0.4,0.3,0.4,0.5c0,0.2-0.2,0.3-0.4,0.4
		c0.2,0.1,0.4,0.3,0.4,0.5c0,0.2-0.2,0.3-0.4,0.4c0.2,0.1,0.4,0.3,0.4,0.5c0,0.2-0.2,0.3-0.4,0.4c0.2,0.1,0.4,0.3,0.4,0.5
		c0,0.2-0.2,0.3-0.4,0.4c0.2,0.1,0.4,0.3,0.4,0.5c0,0.2-0.2,0.3-0.4,0.4c0.2,0.1,0.4,0.3,0.4,0.5c0,0.2-0.2,0.3-0.4,0.4
		c0,0.2,0.1,0.4,0.4,0.5c-0.2,0-0.4,0.2-0.4,0.5c0,0.2,0.1,0.4,0.4,0.5c-0.2,0-0.4,0.3-0.4,0.5c0,0.2,0.2,0.3,0.4,0.4
		c-0.2,0-0.4,0.2-0.4,0.5c0.2,0.1,0.4,0.3,0.4,0.5c0,0.2-0.2,0.3-0.4,0.4c0.2,0.1,0.4,0.3,0.4,0.5c0,0.2-0.2,0.3-0.4,0.4
		c0.2,0.1,0.4,0.3,0.4,0.5c0,0.2-0.2,0.3-0.4,0.4c0.2,0.1,0.4,0.3,0.4,0.5c0,0.2-0.2,0.3-0.4,0.4c0.2,0.1,0.4,0.3,0.4,0.5
		c0,0.2-0.2,0.3-0.4,0.4c0.2,0.1,0.4,0.3,0.4,0.5c0,0.2-0.2,0.3-0.4,0.4c0.2,0.1,0.4,0.3,0.4,0.5c0,0.2-0.2,0.3-0.4,0.4
		c0.2,0.1,0.4,0.3,0.4,0.5c0,0.2-0.2,0.3-0.4,0.4c0.2,0.1,0.4,0.3,0.4,0.5c0,0.2-0.2,0.3-0.4,0.4c0.2,0.1,0.4,0.3,0.4,0.5
		c0,0.2-0.2,0.3-0.4,0.4c0,0.2,0.1,0.4,0.4,0.5c-0.2,0-0.4,0.3-0.4,0.5c0,0.2,0.2,0.3,0.4,0.4c-0.2,0-0.4,0.2-0.4,0.5
		c0,0.2,0.1,0.4,0.4,0.5c-0.2,0-0.4,0.2-0.4,0.5c0.2,0.1,0.4,0.3,0.4,0.5c0,0.2-0.2,0.3-0.4,0.4c0.2,0.1,0.4,0.3,0.4,0.5
		c0,0.2-0.2,0.3-0.4,0.4c0.2,0.1,0.4,0.3,0.4,0.5c0,0.2-0.2,0.3-0.4,0.4c0.2,0.1,0.4,0.3,0.4,0.5c0,0.2-0.2,0.3-0.4,0.4
		c0.2,0.1,0.4,0.3,0.4,0.5c0,0.2-0.2,0.3-0.4,0.4c0.2,0.1,0.4,0.3,0.4,0.5c0,0.2-0.2,0.3-0.4,0.4c0.2,0.1,0.4,0.3,0.4,0.5
		c0,0.2-0.2,0.3-0.4,0.4c0.2,0.1,0.4,0.3,0.4,0.5c0,0.2-0.2,0.3-0.4,0.4c0.2,0.1,0.4,0.3,0.4,0.5c0,0.2-0.2,0.3-0.4,0.4
		c0,0.2,0.1,0.4,0.4,0.5c-0.2,0-0.4,0.2-0.4,0.5c0,0.2,0.1,0.4,0.4,0.5c-0.2,0-0.4,0.3-0.4,0.5c0,0.2,0.2,0.3,0.4,0.4
		c-0.2,0-0.4,0.2-0.4,0.5c0,0.2,0.1,0.4,0.4,0.5c-0.2,0-0.4,0.2-0.4,0.5c0.2,0.1,0.4,0.3,0.4,0.5c0,0.2-0.2,0.3-0.4,0.4
		c0.2,0.1,0.4,0.3,0.4,0.5c0,0.2-0.2,0.3-0.4,0.4c0.2,0.1,0.4,0.3,0.4,0.5c0,0.2-0.2,0.3-0.4,0.4c0.2,0.1,0.4,0.3,0.4,0.5
		c0,0.2-0.2,0.3-0.4,0.4c0.2,0.1,0.4,0.3,0.4,0.5c0,0.2-0.2,0.3-0.4,0.4c0.2,0.1,0.4,0.3,0.4,0.5c0,0.2-0.2,0.3-0.4,0.4
		c0.2,0.1,0.4,0.3,0.4,0.5c0,0.2-0.2,0.3-0.4,0.4c0.2,0.1,0.4,0.3,0.4,0.5c0,0.2-0.2,0.3-0.4,0.4c0.2,0.1,0.4,0.3,0.4,0.5
		c0,0.2-0.2,0.3-0.4,0.4c0,0.2,0.1,0.4,0.4,0.5c-0.2,0-0.4,0.2-0.4,0.5c0,0.2,0.1,0.4,0.4,0.5c-0.2,0-0.4,0.3-0.4,0.5
		c0,0.2,0.2,0.3,0.4,0.4c-0.2,0-0.4,0.2-0.4,0.5c0.2,0.1,0.4,0.3,0.4,0.5c0,0.2-0.2,0.3-0.4,0.4c0.2,0.1,0.4,0.3,0.4,0.5
		c0,0.2-0.2,0.3-0.4,0.4c0.2,0.1,0.4,0.3,0.4,0.5c0,0.2-0.2,0.3-0.4,0.4c0.2,0.1,0.4,0.3,0.4,0.5c0,0.2-0.2,0.3-0.4,0.4
		c0.2,0.1,0.4,0.3,0.4,0.5c0,0.2-0.2,0.3-0.4,0.4c0.2,0.1,0.4,0.3,0.4,0.5c0,0.2-0.2,0.3-0.4,0.4c0.2,0.1,0.4,0.3,0.4,0.5
		c0,0.2-0.2,0.3-0.4,0.4c0.2,0.1,0.4,0.3,0.4,0.5c0,0.2-0.2,0.3-0.4,0.4c0.2,0.1,0.4,0.3,0.4,0.5c0,0.2-0.2,0.3-0.4,0.4
		c0.2,0.1,0.4,0.3,0.4,0.5c0,0.2-0.2,0.3-0.4,0.4c0,0.2,0.1,0.4,0.4,0.5c-0.2,0-0.4,0.2-0.4,0.5c0,0.2,0.1,0.4,0.4,0.5
		c-0.2,0-0.4,0.3-0.4,0.5c0,0.2,0.2,0.3,0.4,0.4c-0.2,0-0.4,0.2-0.4,0.5c0.2,0.1,0.4,0.3,0.4,0.5c0,0.2-0.2,0.3-0.4,0.4
		c0.2,0.1,0.4,0.3,0.4,0.5c0,0.2-0.2,0.3-0.4,0.4c0.2,0.1,0.4,0.3,0.4,0.5c0,0.2-0.2,0.3-0.4,0.4c0.2,0.1,0.4,0.3,0.4,0.5
		c0,0.2-0.2,0.3-0.4,0.4c0.2,0.1,0.4,0.3,0.4,0.5c0,0.2-0.2,0.3-0.4,0.4c0.2,0.1,0.4,0.3,0.4,0.5c0,0.2-0.2,0.3-0.4,0.4
		c0.2,0.1,0.4,0.3,0.4,0.5c0,0.2-0.2,0.3-0.4,0.4c0.2,0.1,0.4,0.3,0.4,0.5c0,0.2-0.2,0.3-0.4,0.4c0.2,0.1,0.4,0.3,0.4,0.5
		c0,0.2-0.2,0.3-0.4,0.4c0.2,0.1,0.4,0.3,0.4,0.5c0,0.2-0.2,0.3-0.4,0.4c0,0.2,0.1,0.4,0.4,0.5c-0.2,0-0.4,0.3-0.4,0.5
		c0,0.2,0.2,0.3,0.4,0.4h0.5c0.2,0,0.4-0.3,0.4-0.5c0-0.2-0.2-0.3-0.4-0.4c0.2,0,0.4-0.2,0.4-0.5c-0.2-0.1-0.4-0.3-0.4-0.5
		c0-0.2,0.2-0.3,0.4-0.4c-0.2-0.1-0.4-0.3-0.4-0.5c0-0.2,0.2-0.3,0.4-0.4c-0.2-0.1-0.4-0.3-0.4-0.5c0-0.2,0.2-0.3,0.4-0.4
		c-0.2-0.1-0.4-0.3-0.4-0.5c0-0.2,0.2-0.3,0.4-0.4c-0.2-0.1-0.4-0.3-0.4-0.5c0-0.2,0.2-0.3,0.4-0.4c-0.2-0.1-0.4-0.3-0.4-0.5
		c0-0.2,0.2-0.3,0.4-0.4c-0.2-0.1-0.4-0.3-0.4-0.5c0-0.2,0.2-0.3,0.4-0.4c-0.2-0.1-0.4-0.3-0.4-0.5c0-0.2,0.2-0.3,0.4-0.4
		c-0.2-0.1-0.4-0.3-0.4-0.5c0-0.2,0.2-0.3,0.4-0.4c-0.2-0.1-0.4-0.3-0.4-0.5c0-0.2,0.2-0.3,0.4-0.4c0-0.2-0.1-0.4-0.4-0.5
		c0.2,0,0.4-0.3,0.4-0.5c0-0.2-0.2-0.3-0.4-0.4c0.2,0,0.4-0.2,0.4-0.5c0-0.2-0.1-0.4-0.4-0.5c0.2,0,0.4-0.2,0.4-0.5
		c-0.2-0.1-0.4-0.3-0.4-0.5c0-0.2,0.2-0.3,0.4-0.4c-0.2-0.1-0.4-0.3-0.4-0.5c0-0.2,0.2-0.3,0.4-0.4c-0.2-0.1-0.4-0.3-0.4-0.5
		c0-0.2,0.2-0.3,0.4-0.4c-0.2-0.1-0.4-0.3-0.4-0.5c0-0.2,0.2-0.3,0.4-0.4c-0.2-0.1-0.4-0.3-0.4-0.5c0-0.2,0.2-0.3,0.4-0.4
		c-0.2-0.1-0.4-0.3-0.4-0.5c0-0.2,0.2-0.3,0.4-0.4c-0.2-0.1-0.4-0.3-0.4-0.5c0-0.2,0.2-0.3,0.4-0.4c-0.2-0.1-0.4-0.3-0.4-0.5
		c0-0.2,0.2-0.3,0.4-0.4c-0.2-0.1-0.4-0.3-0.4-0.5c0-0.2,0.2-0.3,0.4-0.4c-0.2-0.1-0.4-0.3-0.4-0.5c0-0.2,0.2-0.3,0.4-0.4
		c0-0.2-0.1-0.4-0.4-0.5c0.2,0,0.4-0.3,0.4-0.5c0-0.2-0.2-0.3-0.4-0.4c0.2,0,0.4-0.2,0.4-0.5c0-0.2-0.1-0.4-0.4-0.5
		c0.2,0,0.4-0.2,0.4-0.5c-0.2-0.1-0.4-0.3-0.4-0.5c0-0.2,0.2-0.3,0.4-0.4c-0.2-0.1-0.4-0.3-0.4-0.5c0-0.2,0.2-0.3,0.4-0.4
		c-0.2-0.1-0.4-0.3-0.4-0.5c0-0.2,0.2-0.3,0.4-0.4c-0.2-0.1-0.4-0.3-0.4-0.5c0-0.2,0.2-0.3,0.4-0.4c-0.2-0.1-0.4-0.3-0.4-0.5
		c0-0.2,0.2-0.3,0.4-0.4c-0.2-0.1-0.4-0.3-0.4-0.5c0-0.2,0.2-0.3,0.4-0.4c-0.2-0.1-0.4-0.3-0.4-0.5c0-0.2,0.2-0.3,0.4-0.4
		c-0.2-0.1-0.4-0.3-0.4-0.5c0-0.2,0.2-0.3,0.4-0.4c-0.2-0.1-0.4-0.3-0.4-0.5c0-0.2,0.2-0.3,0.4-0.4c0-0.2-0.1-0.4-0.4-0.5
		c0.2,0,0.4-0.2,0.4-0.5c0-0.2-0.1-0.4-0.4-0.5c0.2,0,0.4-0.3,0.4-0.5c0-0.2-0.2-0.3-0.4-0.4c0.2,0,0.4-0.2,0.4-0.5
		c0-0.2-0.1-0.4-0.4-0.5c0.2,0,0.4-0.2,0.4-0.5c-0.2-0.1-0.4-0.3-0.4-0.5c0-0.2,0.2-0.3,0.4-0.4c-0.2-0.1-0.4-0.3-0.4-0.5
		c0-0.2,0.2-0.3,0.4-0.4c-0.2-0.1-0.4-0.3-0.4-0.5c0-0.2,0.2-0.3,0.4-0.4c-0.2-0.1-0.4-0.3-0.4-0.5c0-0.2,0.2-0.3,0.4-0.4
		c-0.2-0.1-0.4-0.3-0.4-0.5c0-0.2,0.2-0.3,0.4-0.4c-0.2-0.1-0.4-0.3-0.4-0.5c0-0.2,0.2-0.3,0.4-0.4c-0.2-0.1-0.4-0.3-0.4-0.5
		c0-0.2,0.2-0.3,0.4-0.4c-0.2-0.1-0.4-0.3-0.4-0.5c0-0.2,0.2-0.3,0.4-0.4c-0.2-0.1-0.4-0.3-0.4-0.5c0-0.2,0.2-0.3,0.4-0.4
		c0-0.2-0.1-0.4-0.4-0.5c0.2,0,0.4-0.2,0.4-0.5c0-0.2-0.1-0.4-0.4-0.5c0.2,0,0.4-0.3,0.4-0.5c0-0.2-0.2-0.3-0.4-0.4
		c0.2,0,0.4-0.2,0.4-0.5c-0.2-0.1-0.4-0.3-0.4-0.5c0-0.2,0.2-0.3,0.4-0.4c-0.2-0.1-0.4-0.3-0.4-0.5c0-0.2,0.2-0.3,0.4-0.4
		c-0.2-0.1-0.4-0.3-0.4-0.5c0-0.2,0.2-0.3,0.4-0.4c-0.2-0.1-0.4-0.3-0.4-0.5c0-0.2,0.2-0.3,0.4-0.4c-0.2-0.1-0.4-0.3-0.4-0.5
		c0-0.2,0.2-0.3,0.4-0.4c-0.2-0.1-0.4-0.3-0.4-0.5c0-0.2,0.2-0.3,0.4-0.4c-0.2-0.1-0.4-0.3-0.4-0.5c0-0.2,0.2-0.3,0.4-0.4
		c-0.2-0.1-0.4-0.3-0.4-0.5c0-0.2,0.2-0.3,0.4-0.4c-0.2-0.1-0.4-0.3-0.4-0.5c0-0.2,0.2-0.3,0.4-0.4c-0.2-0.1-0.4-0.3-0.4-0.5
		c0-0.2,0.2-0.3,0.4-0.4c0-0.2-0.1-0.4-0.4-0.5c0.2,0,0.4-0.3,0.4-0.5c0-0.2-0.2-0.3-0.4-0.4c0.2,0,0.4-0.2,0.4-0.5
		c0-0.2-0.1-0.4-0.4-0.5c0.2,0,0.4-0.2,0.4-0.5c-0.2-0.1-0.4-0.3-0.4-0.5c0-0.2,0.2-0.3,0.4-0.4c-0.2-0.1-0.4-0.3-0.4-0.5
		c0-0.2,0.2-0.3,0.4-0.4c-0.2-0.1-0.4-0.3-0.4-0.5c0-0.2,0.2-0.3,0.4-0.4c-0.2-0.1-0.4-0.3-0.4-0.5c0-0.2,0.2-0.3,0.4-0.4
		c-0.2-0.1-0.4-0.3-0.4-0.5c0-0.2,0.2-0.3,0.4-0.4c-0.2-0.1-0.4-0.3-0.4-0.5c0-0.2,0.2-0.3,0.4-0.4c-0.2-0.1-0.4-0.3-0.4-0.5
		c0-0.2,0.2-0.3,0.4-0.4c-0.2-0.1-0.4-0.3-0.4-0.5c0-0.2,0.2-0.3,0.4-0.4c-0.2-0.1-0.4-0.3-0.4-0.5c0-0.2,0.2-0.3,0.4-0.4
		c0-0.2-0.1-0.4-0.4-0.5c0.2,0,0.4-0.2,0.4-0.5c0-0.2-0.1-0.4-0.4-0.5c0.2,0,0.4-0.3,0.4-0.5c0-0.2-0.2-0.3-0.4-0.4
		c0.2,0,0.4-0.2,0.4-0.5c0-0.2-0.1-0.4-0.4-0.5c0.2,0,0.4-0.2,0.4-0.5c-0.2-0.1-0.4-0.3-0.4-0.5c0-0.2,0.2-0.3,0.4-0.4
		c-0.2-0.1-0.4-0.3-0.4-0.5c0-0.2,0.2-0.3,0.4-0.4c-0.2-0.1-0.4-0.3-0.4-0.5c0-0.2,0.2-0.3,0.4-0.4c-0.2-0.1-0.4-0.3-0.4-0.5
		c0-0.2,0.2-0.3,0.4-0.4c-0.2-0.1-0.4-0.3-0.4-0.5c0-0.2,0.2-0.3,0.4-0.4c-0.2-0.1-0.4-0.3-0.4-0.5c0-0.2,0.2-0.3,0.4-0.4
		c-0.2-0.1-0.4-0.3-0.4-0.5c0-0.2,0.2-0.3,0.4-0.4c-0.2-0.1-0.4-0.3-0.4-0.5c0-0.2,0.2-0.3,0.4-0.4c-0.2-0.1-0.4-0.3-0.4-0.5
		c0-0.2,0.2-0.3,0.4-0.4c0-0.2-0.1-0.4-0.4-0.5c0.2,0,0.4-0.2,0.4-0.5c0-0.2-0.1-0.4-0.4-0.5c0.2,0,0.4-0.3,0.4-0.5
		C14.6,272.2,14.4,272,14.2,272z"/>
	<g>
		<g>
			<ellipse class="st2" cx="498.4" cy="263.5" rx="5.2" ry="9.7"/>
			<ellipse class="st3" cx="502.4" cy="263.5" rx="3.1" ry="5.8"/>
		</g>
		<g>
			<rect x="9.2" y="257.7" class="st3" width="493.2" height="11.5"/>
			<g>
				<ellipse class="st2" cx="13.6" cy="263.5" rx="5.2" ry="9.7"/>
				<ellipse class="st3" cx="9.6" cy="263.5" rx="3.1" ry="5.8"/>
			</g>
		</g>
	</g>
	<path class="st2" d="M489.5,482.4l-135.8,11.8c-5.3,5.7-37.5,39.1-89.7,39.3c-53,0.3-85.8-33.7-91-39.3L24.4,482.4V260.5h465.2
		V482.4z"/>
	<path class="st1" d="M467.8,280.5v187.9l-80.8,6.8l-39,3.3c-2.2,0.2-4.2,1.1-5.8,2.7c-7.6,7.4-16.2,13.7-25.5,18.7
		c-16.3,8.9-34.6,13.6-53.1,13.7H263c-43.2,0-71.6-24.8-79.2-32.4c-1.6-1.6-3.6-2.5-5.9-2.7l-66.2-5l-65.6-5V280.5H467.8
		 M468.5,275.5h-423c-2.4,0-4.3,1.9-4.3,4.3V469c0,2.3,1.7,4.1,4,4.3l132.4,10.1c1,0.1,2,0.5,2.7,1.2c7.3,7.3,36.8,33.9,82.7,33.9
		h0.6c45.7-0.2,74.9-26.6,82.2-33.9c0.7-0.7,1.7-1.1,2.7-1.2l120.4-10.1c2.2-0.2,3.9-2.1,4-4.3V279.8
		C472.8,277.4,470.9,275.5,468.5,275.5z"/>
	<g>
		<line class="st4" x1="494.5" y1="266.7" x2="494.5" y2="0.4"/>
		<path class="st5" d="M494.3,264.2c0,0,3.4-4.6,8.8-5.1c5.6-0.5-1.4,6.4-8.8,5.4"/>
		<path class="st5" d="M494.6,264.2c0,0-3.4-4.6-8.8-5.1c-5.6-0.5,1.4,6.4,8.8,5.4"/>
		<line class="st5" x1="494.6" y1="265" x2="500.5" y2="270.8"/>
		<line class="st5" x1="494.8" y1="264.8" x2="488.9" y2="270.5"/>
	</g>
	<g>
		<line class="st4" x1="22.2" y1="266.7" x2="22.2" y2="0.4"/>
		<path class="st5" d="M21.6,266c0,0,3.1-4.3,8.1-4.7c5.2-0.5-1.3,5.9-8.1,5"/>
		<path class="st5" d="M21.9,266c0,0-3.1-4.3-8.1-4.7c-5.2-0.5,1.3,5.9,8.1,5"/>
		<line class="st5" x1="21.9" y1="266.8" x2="27.4" y2="272.2"/>
		<line class="st5" x1="22.1" y1="266.6" x2="16.6" y2="271.9"/>
	</g>
	<g>
		<g>
			<path class="st0" d="M363.3,534.4c2.5-1.8,4.4-4.2,5.8-6.9c0-0.1,0.1-0.1,0.1-0.2c0.1-0.3,0.4-0.6,0.3-0.9s-0.5-0.3-0.8-0.4
				c-1.3-0.7-2.5-1.6-3.5-2.6c-2.6-2.2-5-4.6-7.8-6.6c-1.6-1.2-3.4-2.2-5.4-2.7c-0.7-0.2-0.7-0.2-1,0.5c-0.7,1.7-2.3,2.9-4.1,3.1
				c-0.4,0-0.5,0.2-0.5,0.5c-0.1,1.8,0.2,3.6,1,5.2c1,2.6,2.2,5.1,3.5,7.5c1.1,1.9,2,3.9,2.7,5.9c0.2,0.4,0.2,0.9,0.2,1.3
				c0,0.4,0.2,0.4,0.4,0.3c1.5-0.2,3-0.6,4.4-1.3C360.3,536.5,361.8,535.6,363.3,534.4z"/>
			<path class="st0" d="M343.9,509.9c-1.6,1.3-1.9,3.6-0.7,5.2c0,0,0,0,0.1,0.1c1.3,1.6,3.7,1.9,5.3,0.6c1.6-1.3,1.9-3.7,0.6-5.3
				C347.9,508.8,345.6,508.5,343.9,509.9C344,509.8,343.9,509.8,343.9,509.9z"/>
		</g>
		<g>
			<path class="st0" d="M334.8,551.7c2.8-1.3,5.2-3.2,7.1-5.6l0.1-0.2c0.2-0.3,0.5-0.6,0.5-0.8s-0.5-0.4-0.7-0.6
				c-1.1-1-2.1-2.1-2.9-3.2c-2.1-2.7-4-5.5-6.4-8c-1.3-1.5-2.9-2.8-4.7-3.7c-0.7-0.3-0.7-0.3-1.1,0.3c-1,1.6-2.8,2.4-4.7,2.2
				c-0.4,0-0.5,0.1-0.6,0.4c-0.4,1.7-0.5,3.5-0.1,5.3c0.5,2.7,1.2,5.4,2,8c0.7,2.1,1.2,4.2,1.5,6.3c0.1,0.4,0.1,0.9,0,1.3
				c-0.1,0.4,0.1,0.4,0.4,0.4c1.5,0.1,3.1,0,4.6-0.4C331.4,553.1,333.2,552.5,334.8,551.7z"/>
			<path class="st0" d="M320.8,523.7c-1.9,0.9-2.6,3.2-1.7,5c0,0,0,0,0,0c1,1.9,3.2,2.6,5.1,1.6c1.8-1,2.4-3.3,1.4-5.1
				C324.6,523.6,322.5,522.9,320.8,523.7z"/>
		</g>
		<g>
			<path class="st0" d="M301.1,563.8c3-0.7,5.7-2.2,8-4.2c0,0,0.1-0.1,0.1-0.1c0.2-0.2,0.6-0.5,0.6-0.7s-0.4-0.4-0.6-0.7
				c-0.9-1.2-1.7-2.4-2.3-3.7c-1.5-3-2.9-6.2-4.7-9.1c-1-1.8-2.3-3.3-4-4.5c-0.6-0.4-0.6-0.4-1.1,0.1c-1.3,1.3-3.2,1.8-5,1.2
				c-0.4-0.1-0.5,0-0.7,0.3c-0.8,1.6-1.1,3.4-1.1,5.2c0,2.8,0.1,5.5,0.4,8.3c0.3,2.2,0.4,4.3,0.3,6.5c0,0.4-0.1,0.9-0.3,1.3
				c-0.2,0.3,0,0.4,0.3,0.5c1.5,0.4,3,0.6,4.6,0.5C297.5,564.6,299.4,564.3,301.1,563.8z"/>
			<path class="st0" d="M292.7,533.7c-2,0.5-3.2,2.6-2.6,4.6c0,0,0,0,0,0.1c0.6,2,2.7,3.2,4.7,2.6c2-0.6,3.1-2.7,2.6-4.7
				C296.8,534.3,294.7,533.1,292.7,533.7z"/>
		</g>
		<g>
			<path class="st0" d="M266.5,569.6c-3.1,0-6.1-0.6-8.8-1.9l-0.2-0.1c-0.3-0.2-0.7-0.3-0.8-0.5s0.3-0.5,0.4-0.8
				c0.6-1.3,1-2.8,1.2-4.2c0.7-3.3,1.2-6.7,2.2-10c0.5-2,1.4-3.8,2.6-5.4c0.5-0.6,0.5-0.6,1.1-0.2c1.6,1,3.6,0.9,5.2-0.1
				c0.3-0.2,0.5-0.2,0.7,0.1c1.2,1.4,2,3,2.5,4.7c0.8,2.7,1.4,5.4,1.8,8.1c0.3,2.2,0.8,4.3,1.5,6.4c0.1,0.4,0.3,0.8,0.6,1.2
				c0.3,0.3,0.1,0.4-0.1,0.5c-1.3,0.8-2.8,1.4-4.3,1.7C270.2,569.4,268.4,569.6,266.5,569.6z"/>
			<path class="st0" d="M266.8,538.3c2.1,0,3.7,1.7,3.7,3.8c0,0,0,0,0,0c0,2.1-1.8,3.7-3.9,3.7c-2.1,0-3.7-1.8-3.7-3.8c0,0,0,0,0,0
				C263,540,264.7,538.3,266.8,538.3C266.7,538.3,266.8,538.3,266.8,538.3z"/>
		</g>
		<g>
			<path class="st0" d="M195.9,551.7c-2.8-1.3-5.2-3.2-7.1-5.6c0-0.1-0.1-0.1-0.1-0.2c-0.2-0.3-0.5-0.6-0.5-0.8s0.5-0.4,0.7-0.6
				c1.1-1,2.1-2.1,2.9-3.2c2.1-2.7,4-5.5,6.4-8c1.3-1.5,2.9-2.8,4.7-3.7c0.7-0.3,0.7-0.3,1.1,0.3c1,1.6,2.8,2.4,4.7,2.2
				c0.4,0,0.5,0.1,0.6,0.4c0.4,1.7,0.5,3.5,0.1,5.3c-0.5,2.7-1.2,5.4-2,8c-0.7,2.1-1.2,4.2-1.5,6.3c-0.1,0.4-0.1,0.9,0,1.3
				c0.1,0.4-0.1,0.4-0.4,0.4c-1.5,0.1-3.1,0-4.6-0.4C199.2,553.1,197.5,552.5,195.9,551.7z"/>
			<path class="st0" d="M209.9,523.7c1.9,0.9,2.6,3.2,1.7,5c0,0,0,0,0,0c-1,1.9-3.2,2.6-5.1,1.6c-1.8-1-2.4-3.3-1.4-5.1
				C206,523.6,208.1,522.9,209.9,523.7z"/>
		</g>
		<g>
			<path class="st0" d="M229.5,563.8c-3-0.7-5.7-2.2-8-4.2l-0.1-0.1c-0.2-0.2-0.6-0.5-0.6-0.7s0.4-0.4,0.6-0.7
				c0.9-1.2,1.7-2.4,2.3-3.7c1.5-3,2.9-6.2,4.7-9.1c1-1.8,2.3-3.3,3.9-4.5c0.6-0.4,0.6-0.4,1.1,0.1c1.3,1.3,3.2,1.8,5,1.2
				c0.4-0.1,0.5,0,0.7,0.3c0.8,1.6,1.1,3.4,1.1,5.2c0,2.8-0.1,5.5-0.4,8.3c-0.3,2.2-0.4,4.3-0.3,6.5c0,0.4,0.1,0.9,0.3,1.3
				c0.2,0.3,0,0.4-0.3,0.5c-1.5,0.4-3,0.6-4.6,0.5C233.1,564.6,231.3,564.3,229.5,563.8z"/>
			<path class="st0" d="M238,533.7c2,0.6,3.2,2.6,2.6,4.6c0,0,0,0,0,0.1c-0.6,2-2.7,3.2-4.7,2.6c-2-0.6-3.1-2.7-2.6-4.6
				c0.5-2,2.6-3.2,4.5-2.6C237.9,533.7,238,533.7,238,533.7z"/>
		</g>
		<g>
			<path class="st0" d="M167.4,534.4c-2.5-1.8-4.4-4.2-5.8-6.9l-0.1-0.2c-0.1-0.3-0.4-0.6-0.3-0.9s0.5-0.3,0.8-0.4
				c1.3-0.7,2.5-1.6,3.5-2.6c2.6-2.2,5-4.6,7.8-6.6c1.6-1.2,3.4-2.2,5.4-2.7c0.7-0.2,0.7-0.2,1,0.5c0.7,1.7,2.3,2.9,4.1,3.1
				c0.4,0,0.5,0.2,0.5,0.5c0.1,1.8-0.2,3.6-0.9,5.2c-1,2.6-2.2,5.1-3.6,7.5c-1.1,1.9-2,3.9-2.7,5.9c-0.2,0.4-0.2,0.9-0.2,1.3
				c0,0.4-0.2,0.4-0.4,0.3c-1.5-0.2-3.1-0.6-4.5-1.3C170.3,536.5,168.8,535.6,167.4,534.4z"/>
			<path class="st0" d="M186.7,509.9c1.6,1.3,1.9,3.6,0.7,5.2c0,0,0,0,0,0.1c-1.3,1.6-3.7,1.9-5.3,0.6c-1.6-1.3-1.9-3.7-0.6-5.3
				C182.7,508.8,185,508.5,186.7,509.9C186.7,509.8,186.7,509.8,186.7,509.9z"/>
		</g>
	</g>
	<g>
		<g>
			<path class="st0" d="M482.3,513.8c-2.9,0.1-5.8-0.6-8.4-1.8l-0.2-0.1c-0.3-0.2-0.6-0.3-0.8-0.5s0.2-0.5,0.4-0.8
				c0.5-1.3,0.9-2.6,1.1-4c0.6-3.2,1.1-6.4,2-9.5c0.5-1.9,1.3-3.6,2.5-5.1c0.5-0.5,0.5-0.5,1.1-0.2c1.5,0.9,3.4,0.9,4.9-0.1
				c0.3-0.2,0.5-0.1,0.7,0.1c1.1,1.3,1.9,2.8,2.3,4.5c0.7,2.5,1.3,5.1,1.7,7.7c0.3,2,0.8,4,1.4,6c0.1,0.4,0.3,0.8,0.6,1.1
				c0.3,0.3,0.1,0.4-0.1,0.5c-1.3,0.8-2.6,1.3-4.1,1.6C485.8,513.6,484,513.8,482.3,513.8z"/>
			<path class="st0" d="M482.4,484c2,0,3.6,1.6,3.6,3.6c0,0,0,0,0,0.1c0,2-1.7,3.6-3.6,3.5c-2,0-3.5-1.6-3.5-3.6c0,0,0,0,0,0
				c0-1.9,1.5-3.5,3.5-3.6C482.3,484,482.3,484,482.4,484z"/>
		</g>
		<g>
			<path class="st0" d="M451.4,516.7c-2.9,0.1-5.8-0.6-8.4-1.8l-0.2-0.1c-0.3-0.2-0.6-0.3-0.8-0.5s0.2-0.5,0.4-0.8
				c0.5-1.3,0.9-2.6,1.1-4c0.6-3.2,1.1-6.4,2-9.5c0.5-1.9,1.3-3.6,2.5-5.1c0.5-0.5,0.4-0.5,1.1-0.2c1.5,0.9,3.4,0.8,4.9-0.1
				c0.2-0.2,0.5-0.2,0.6,0c0,0,0,0.1,0.1,0.1c1.1,1.3,1.9,2.8,2.4,4.5c0.7,2.5,1.3,5.1,1.7,7.7c0.3,2,0.8,4,1.4,6
				c0.1,0.4,0.3,0.8,0.6,1.1c0.3,0.3,0.1,0.4-0.1,0.5c-1.3,0.8-2.6,1.3-4.1,1.6C454.9,516.5,453.2,516.7,451.4,516.7z"/>
			<path class="st0" d="M451.5,486.9c2,0,3.6,1.6,3.6,3.6c0,0,0,0,0,0c0,2-1.7,3.6-3.6,3.6c-2,0-3.6-1.6-3.5-3.6
				C447.9,488.5,449.5,486.9,451.5,486.9z"/>
		</g>
		<g>
			<path class="st0" d="M419.3,520.1c-2.9,0.1-5.8-0.5-8.4-1.8l-0.2-0.1c-0.3-0.2-0.6-0.3-0.8-0.5s0.2-0.5,0.4-0.8
				c0.5-1.3,0.9-2.6,1.1-4c0.6-3.2,1.1-6.4,2-9.5c0.5-1.9,1.3-3.6,2.5-5.1c0.5-0.5,0.5-0.5,1.1-0.2c1.5,0.9,3.4,0.8,4.9-0.1
				c0.3-0.2,0.5-0.1,0.7,0.1c1.1,1.3,1.9,2.8,2.4,4.5c0.7,2.5,1.3,5.1,1.7,7.7c0.3,2,0.8,4,1.4,6c0.1,0.4,0.3,0.8,0.6,1.1
				c0.3,0.3,0.1,0.4-0.1,0.5c-1.3,0.8-2.6,1.3-4.1,1.6C422.8,519.9,421.1,520.1,419.3,520.1z"/>
			<path class="st0" d="M419.4,490.3c2,0,3.6,1.6,3.6,3.5c0,0,0,0.1,0,0.1c0,2-1.7,3.6-3.6,3.5c0,0,0,0,0,0c-2-0.1-3.5-1.8-3.4-3.8
				C416.1,491.9,417.6,490.5,419.4,490.3L419.4,490.3z"/>
		</g>
		<g>
			<path class="st0" d="M387.6,523.8c-2.9,0.1-5.8-0.5-8.4-1.8l-0.2-0.1c-0.3-0.2-0.6-0.3-0.8-0.5s0.2-0.5,0.4-0.8
				c0.5-1.3,0.9-2.6,1.1-4c0.6-3.2,1.1-6.4,2-9.5c0.5-1.9,1.3-3.6,2.5-5.1c0.5-0.5,0.5-0.5,1.1-0.2c1.5,0.9,3.4,0.8,4.9-0.1
				c0.3-0.2,0.5-0.1,0.7,0.1c1.1,1.3,1.9,2.8,2.4,4.5c0.7,2.5,1.3,5.1,1.7,7.7c0.3,2,0.8,4,1.4,6c0.1,0.4,0.3,0.8,0.6,1.1
				c0.3,0.3,0.1,0.4-0.1,0.5c-1.3,0.8-2.6,1.3-4.1,1.6C391.1,523.6,389.3,523.8,387.6,523.8z"/>
			<path class="st0" d="M387.7,494c2,0,3.6,1.6,3.6,3.6c0,0,0,0,0,0.1c0,2-1.7,3.6-3.6,3.5c0,0,0,0,0,0c-2-0.1-3.5-1.8-3.4-3.8
				C384.3,495.6,385.8,494.1,387.7,494L387.7,494z"/>
		</g>
	</g>
	<g>
		<g>
			<path class="st0" d="M36.6,513.8c2.9,0.1,5.8-0.5,8.4-1.8c0.1,0,0.1-0.1,0.2-0.1c0.3-0.2,0.6-0.3,0.8-0.5s-0.3-0.5-0.4-0.8
				c-0.5-1.3-0.9-2.6-1.1-4c-0.6-3.2-1.1-6.4-2-9.5c-0.4-1.9-1.3-3.7-2.5-5.2c-0.5-0.5-0.5-0.5-1.1-0.2c-1.5,0.9-3.4,0.9-4.9-0.1
				c-0.3-0.2-0.5-0.1-0.7,0.1c-1.1,1.3-1.9,2.8-2.4,4.5c-0.7,2.5-1.3,5.1-1.7,7.7c-0.3,2-0.8,4-1.4,6c-0.1,0.4-0.3,0.8-0.6,1.1
				c-0.3,0.3-0.1,0.4,0.1,0.5c1.3,0.8,2.6,1.3,4.1,1.6C33.1,513.5,34.8,513.8,36.6,513.8z"/>
			<path class="st0" d="M36.5,484c-2,0-3.6,1.6-3.6,3.6c0,0,0,0,0,0.1c0,2,1.7,3.6,3.6,3.5c0,0,0,0,0,0c2-0.1,3.5-1.8,3.4-3.8
				C39.8,485.5,38.3,484.1,36.5,484L36.5,484z"/>
		</g>
		<g>
			<path class="st0" d="M67.4,516.7c2.9,0.1,5.8-0.6,8.4-1.8l0.2-0.1c0.3-0.2,0.6-0.3,0.8-0.5s-0.2-0.5-0.4-0.8
				c-0.5-1.3-0.9-2.6-1.1-4c-0.6-3.2-1.1-6.4-2-9.5c-0.5-1.9-1.3-3.6-2.5-5.1c-0.5-0.5-0.4-0.5-1.1-0.2c-1.5,0.9-3.4,0.8-4.9-0.1
				c-0.3-0.2-0.5-0.1-0.7,0.1c-1.1,1.3-1.9,2.8-2.3,4.5c-0.7,2.5-1.3,5.1-1.7,7.7c-0.3,2-0.8,4-1.4,6c-0.1,0.4-0.3,0.8-0.6,1.1
				c-0.3,0.3-0.1,0.4,0.1,0.5c1.3,0.8,2.6,1.3,4.1,1.6C64,516.5,65.7,516.7,67.4,516.7z"/>
			<path class="st0" d="M67.3,486.9c-2,0-3.6,1.6-3.6,3.6c0,0,0,0,0,0c0,2,1.7,3.6,3.6,3.6c2,0,3.6-1.7,3.5-3.6
				C71,488.5,69.3,486.9,67.3,486.9z"/>
		</g>
		<g>
			<path class="st0" d="M99.5,520.1c2.9,0.1,5.8-0.5,8.4-1.8l0.2-0.1c0.3-0.2,0.6-0.3,0.8-0.5s-0.2-0.5-0.4-0.8
				c-0.5-1.3-0.9-2.6-1.1-4c-0.6-3.2-1.1-6.4-2-9.5c-0.5-1.9-1.3-3.6-2.5-5.1c-0.5-0.5-0.4-0.5-1.1-0.2c-1.5,0.9-3.4,0.8-4.9-0.1
				c-0.3-0.2-0.5-0.1-0.7,0.1c-1.1,1.3-1.9,2.8-2.3,4.5c-0.7,2.5-1.3,5.1-1.7,7.7c-0.3,2-0.8,4-1.4,6c-0.1,0.4-0.3,0.8-0.6,1.1
				c-0.3,0.3-0.1,0.4,0.1,0.5c1.3,0.8,2.6,1.3,4.1,1.6C96.1,519.9,97.8,520.1,99.5,520.1z"/>
			<path class="st0" d="M99.5,490.3c-2,0-3.6,1.6-3.6,3.6s1.6,3.6,3.6,3.6c2,0,3.6-1.6,3.6-3.6c0,0,0,0,0,0
				C103.1,491.9,101.5,490.4,99.5,490.3C99.5,490.3,99.5,490.3,99.5,490.3z"/>
		</g>
		<g>
			<path class="st0" d="M131.3,523.8c2.9,0.1,5.8-0.5,8.4-1.8l0.2-0.1c0.3-0.2,0.6-0.3,0.8-0.5s-0.2-0.5-0.4-0.8
				c-0.5-1.3-0.9-2.6-1.1-4c-0.6-3.2-1.1-6.4-2-9.5c-0.5-1.9-1.3-3.6-2.5-5.1c-0.5-0.5-0.4-0.5-1.1-0.2c-1.5,0.9-3.4,0.8-4.9-0.1
				c-0.3-0.2-0.5-0.1-0.7,0.1c-1.1,1.3-1.9,2.8-2.3,4.5c-0.7,2.5-1.3,5.1-1.7,7.7c-0.3,2-0.8,4-1.4,6c-0.1,0.4-0.3,0.8-0.6,1.1
				c-0.3,0.3-0.1,0.4,0.1,0.5c1.3,0.8,2.6,1.3,4.1,1.6C127.8,523.6,129.5,523.8,131.3,523.8z"/>
			<path class="st0" d="M131.2,494c-2,0-3.6,1.6-3.6,3.6c0,2,1.6,3.6,3.6,3.6c2,0,3.6-1.6,3.6-3.6c0,0,0,0,0,0
				c0-1.9-1.5-3.5-3.5-3.6C131.3,494,131.3,494,131.2,494z"/>
		</g>
	</g>
</g>
</svg>
