<svg id="Layer_1" data-name="Layer 1" xmlns="http://www.w3.org/2000/svg" viewBox="0 0 380 560"><defs><style>.cls-1{fill:#323232;opacity:0.4;}.cls-11,.cls-2{fill:#b28e7f;}.cls-14,.cls-2,.cls-20,.cls-9{stroke:#3a2114;}.cls-10,.cls-14,.cls-2,.cls-20,.cls-3,.cls-8,.cls-9{stroke-miterlimit:10;}.cls-3,.cls-6{fill:#f9dad2;}.cls-3,.cls-8{stroke:#4c2606;}.cls-4{fill:#e2b2aa;}.cls-5{fill:#1e130b;}.cls-7{fill:#4c2606;}.cls-8,.cls-9{fill:none;}.cls-10{fill:#f4efed;stroke:#7f604f;}.cls-12{fill:#3a2114;}.cls-13{fill:#eadcd3;}.cls-14{fill:#e0beb1;}.cls-15{fill:#fcf9f7;}.cls-16{fill:#3a1e0f;}.cls-17{fill:#f9f8f7;}.cls-18{fill:#b59374;}.cls-19{fill:#f58778;}.cls-20{fill:#634439;}.cls-21{fill:#d1aa9d;}.cls-22{fill:#7a2f2b;}.cls-23{fill:#f9f6f2;}.cls-24{fill:#8c574b;}</style></defs><ellipse class="cls-1" cx="228.87" cy="529.34" rx="94.07" ry="24.96"/><path class="cls-2" d="M273,521.3c-1.17.62-2.36,1.2-3.56,1.7a46.72,46.72,0,0,1-10,3,53.38,53.38,0,0,1-10.72.84,52.72,52.72,0,0,1-11.44-1.49,28.82,28.82,0,0,1-10.75-4.76,7.12,7.12,0,0,1-2.46-3.17c-2.23-7.27,3.17-10.44,2.8-34.86a67.18,67.18,0,0,0-14.91-40.64l40.64-27.59s10.07,29.45,5.41,55.18,3.17,30.57,3.17,30.57A51.51,51.51,0,0,1,272,511C276.79,517.67,273,521.3,273,521.3Z"/><path class="cls-3" d="M150.76,412.08A29.9,29.9,0,0,1,159,422.51c1.81,4,3.91,13.43,3,19,0,0-2.75,3.39-6.73-7.87a4.83,4.83,0,0,0-6-3.06c-1.75.6-3.14,2.3-2.57,6.45,1.31,9.51,7.65,11.75,7.65,11.75s2.05,4.47-3,3.73a8.2,8.2,0,0,1-6.52-4.48s-3.54,3.55-7.08-4.1c0,0-5.41,3.17-7.65-6.15A80.11,80.11,0,0,1,128.39,418Z"/><path class="cls-3" d="M145.55,449.17A33.88,33.88,0,0,1,140.88,438"/><path class="cls-3" d="M137.72,444s-2.43-2.05-3.17-8.76"/><path class="cls-3" d="M270.49,285.69c-3.1,2.74-4.54,4.93-8.67,7-25.17,12.58-73,8.67-102.06-22.65-18.22-19.63-26-47.26-16.57-72.45,5.63-15,17.38-29.17,36.7-40.23,51.73-29.65,82.77,2.23,82.77,2.23s20.69-1.68,19.85,53.68c0,0-1.4,9.23,4.2,24.33C291.38,250.21,286.29,271.71,270.49,285.69Z"/><path class="cls-4" d="M272.64,285.41a49.91,49.91,0,0,1-10.82,7.27c-25.17,12.58-73,8.67-102.06-22.65-18.22-19.63-26-47.26-16.57-72.45l27.1-28.4c-.08.22,29.37-15.11,26.47-4.48S158.63,212,158.82,221.38c.34,16.44,5.2,35.95,22.1,51.63C207.68,297.86,251.24,290.91,272.64,285.41Z"/><path class="cls-5" d="M236.34,160.59a30.8,30.8,0,0,1,27.12,2.8c17.9,10.9,17.62,26,19.24,36.17,0,0,6-29.45-13.8-50.33s-107-41.75-132,41.39c0,0,12.09,37.17,15.81,50.22,0,0-2.78-24.82,13.71-44.74,4.14-5,14.61-7.85,26.84-15.65,16.22-10.35,23.13-18.13,32.72-19.58Z"/><path class="cls-3" d="M336.81,273.2v1.49s8.94-11.75,16.77-17.15c0,0,5.59-.56-.93,10.07,0,0,4.47-6.53,9.32-9.33s3.36,7.09-5,15.66c0,0,7.83-8,8.57-2.61,0,0-1.67,5.78-5.78,9.14,0,0,4.48-3.73,5.78-1.68s2.8,5.59-10.44,16-20.13,10.07-20.13,10.07l-13.23-17"/><path class="cls-3" d="M322.45,288.11s-2.61-6,6.71-14.91c0,0,5.78-5.41,6.53-12.12,0,0,4.28-3.17,4.1,6.53l-2.24,9.87s2.61,10.26-5.22,11.38"/><path class="cls-6" d="M339.42,272.45a26.72,26.72,0,0,1,13.23,18.83"/><path class="cls-7" d="M339.42,272.45a19.57,19.57,0,0,1,5.07,3.18,23,23,0,0,1,4.08,4.45,22.2,22.2,0,0,1,2.8,5.35,21.5,21.5,0,0,1,1.28,5.85,39.9,39.9,0,0,0-2-5.56,27.86,27.86,0,0,0-2.9-5.06,30.79,30.79,0,0,0-3.78-4.45A33.06,33.06,0,0,0,339.42,272.45Z"/><line class="cls-8" x1="354.89" y1="265" x2="345.01" y2="276.18"/><line class="cls-8" x1="358.8" y1="272.08" x2="349.39" y2="281.87"/><line class="cls-8" x1="361.6" y1="278.79" x2="352.28" y2="288.3"/><path class="cls-2" d="M248.93,337.72l-.21,0c14.28,46.6,7.38,66.36,7.38,66.36l-33.38,41c-1.92,2.09-.15.36-3,.66h0c-1.69.18-10.81.35-10.81.35l7.87.08L205.58,490c.63.53-2.43.3-2,.83,6.17,6.94-5,.84-5,.84-.81,1.4,2.09,4.25.56,5.32-2.76,1.93-1.9,9.41-6.15,10.34-3.94.87-4.4-42.39-14.74-66.44-12.66-29.47-7.07-31.42-4.27-54.63,1.73-14.41,3.18-22.35,1.63-30v0c-1-4.64-1.82-7.36-1.82-7.36l-.25.1c-20.5,8.47-27.16,30.94-27.16,30.94l7.27,34.67c-13.69.28-27.12,5-27.12,5l-7.27-28.8c-3.36-15.94,7.27-37.46,27.68-58.43s34.77-26.2,34.77-26.2-.37,3,63.94,3c54,0,70.73-22.45,74.72-29.67a1,1,0,0,1,1.83.15A64.64,64.64,0,0,0,338.76,305C301.33,343.49,252.47,338.17,248.93,337.72Z"/><path class="cls-2" d="M256.09,403.31s-2.61,30.58-33.37,41.76c0,0-19.57,5.87-35.79-6.43"/><line class="cls-9" x1="250.12" y1="341.05" x2="244.53" y2="325.39"/><path class="cls-2" d="M146.38,379.92s-5.59-6.71-13.7-4.2"/><path class="cls-10" d="M278.68,88.39s7.72-2.25,23.83-10.13S335.68,68,305.9,94.78,270,107.89,270,107.89Z"/><path class="cls-2" d="M228.51,309.91c7.13-3.15,17-5.34,22.65-8.39,16.84-9.13,23-17.79,23-17.79-29.08,18.18-60.11,11.18-85.56-.28s-40.82-39.71-36.91-71.58S186,166.46,186,166.46l22.09-8.66c76.06,2.23,112.72-14.16,112.72-14.16,56.76-33.55,56.48-79.13,50.05-101.5s-31-35.51-49.21-36.35-9.23,4.47-11.19,17.61,8.11,15.38,12.87,9.23S334,28.44,334,28.44c12.86,8.66,21.81,42.5-12.3,57.6S256,77.65,238.05,66.46s-65.43-34.67-109.89-7S98.8,129.1,98.8,129.1s-29.92,0-45.86,41.94,80.5,90.78,80.5,90.78,9.23,29.08,37.75,42.78c0,0,15.69,10.54,27.62,9"/><path class="cls-11" d="M94.05,129.66s13.14-3.08,30.48,9"/><path class="cls-12" d="M93.93,129.17a28.22,28.22,0,0,1,8.26,0,43.19,43.19,0,0,1,8,1.89c1.28.46,2.57.91,3.8,1.49s2.47,1.15,3.68,1.76,2.35,1.36,3.53,2,2.25,1.51,3.38,2.26c-1.15-.72-2.29-1.46-3.45-2.15s-2.35-1.34-3.58-1.91-2.43-1.18-3.7-1.65-2.53-.93-3.81-1.36a43.49,43.49,0,0,0-7.89-1.61,27.36,27.36,0,0,0-7.94.22Z"/><path class="cls-11" d="M104.39,129.1s17.9-8.95,28,8.67"/><path class="cls-12" d="M104.17,128.65a26,26,0,0,1,8-2.05,21.36,21.36,0,0,1,8.15.74,18.69,18.69,0,0,1,7.08,4,25.14,25.14,0,0,1,5,6.41,24.66,24.66,0,0,0-5.14-6.22,18.42,18.42,0,0,0-7-3.73,20.64,20.64,0,0,0-7.94-.47,24.85,24.85,0,0,0-7.62,2.2Z"/><path class="cls-11" d="M276.36,86.6s6.15,9.23-1.68,22.09"/><path class="cls-12" d="M276.78,86.32A17,17,0,0,1,278.69,92a21.45,21.45,0,0,1,.1,5.88,24.73,24.73,0,0,1-1.47,5.65c-.31.93-.8,1.78-1.19,2.66s-1,1.69-1.45,2.53c.45-.86.92-1.71,1.34-2.58s.79-1.76,1.06-2.69a24.75,24.75,0,0,0,1.22-5.62,21.35,21.35,0,0,0-.35-5.7,16,16,0,0,0-2-5.23Z"/><path class="cls-11" d="M292.58,90.23s8.95,5.32,4.47,19.3"/><path class="cls-12" d="M292.83,89.8a12.65,12.65,0,0,1,3.66,4.1,15.35,15.35,0,0,1,1.78,5.1,19.18,19.18,0,0,1,0,5.35c-.1.89-.32,1.75-.48,2.62l-.76,2.56.64-2.58c.11-.88.29-1.75.36-2.62a19.13,19.13,0,0,0-.27-5.24,14.59,14.59,0,0,0-1.93-4.8,11.89,11.89,0,0,0-3.53-3.63Z"/><path class="cls-11" d="M312.71,88.83s6.15.84,7.83,10.91"/><path class="cls-12" d="M312.78,88.34a7.85,7.85,0,0,1,3.32,1.78A11.13,11.13,0,0,1,318.39,93a16,16,0,0,1,1.42,3.3c.16.58.29,1.16.44,1.73l.29,1.76L320.12,98c-.18-.56-.35-1.12-.55-1.68a15.31,15.31,0,0,0-1.6-3.12,10.76,10.76,0,0,0-2.34-2.51,7.17,7.17,0,0,0-3-1.37Z"/><path class="cls-12" d="M236.92,306.32a68.8,68.8,0,0,1-9.79,2.79A85.6,85.6,0,0,1,217,310.49a74.77,74.77,0,0,1-30.28-3.77,71,71,0,0,1-9.43-4,74.28,74.28,0,0,1-8.72-5.31,82.81,82.81,0,0,1-7.84-6.49l.07-.07a79.33,79.33,0,0,0,16.83,11.18,81,81,0,0,0,9.37,3.81,82.36,82.36,0,0,0,9.8,2.52A84.62,84.62,0,0,0,217,309.71,87,87,0,0,0,227,308.59a68.76,68.76,0,0,0,9.84-2.36Z"/><circle class="cls-5" cx="168.01" cy="101.28" r="15.8"/><circle class="cls-13" cx="169.55" cy="91.07" r="4.47"/><ellipse class="cls-5" cx="203.52" cy="66.19" rx="11.46" ry="15.8" transform="translate(73.12 235.88) rotate(-70.48)"/><ellipse class="cls-13" cx="206.27" cy="59.66" rx="2.52" ry="4.47" transform="translate(79.53 232.99) rotate(-69.96)"/><path class="cls-10" d="M230.78,114.28s-18.17,15.66-4.47,34.95c0,0,58.44,17.06,96.75-21.81,0,0,12.3-11.74-.84-14S299,128.54,230.78,114.28Z"/><path class="cls-14" d="M211,529.24a11.93,11.93,0,0,1-3.56,3.68c-1.23-3.54-4.5-14.82,2.69-16.89C216.27,523,211,529.24,211,529.24Z"/><path class="cls-5" d="M191.62,195.66s-1-6.64,17.51-10.16S185.91,176.53,191.62,195.66Z"/><path class="cls-5" d="M268.43,189.13s0-6.72-12.87-7.46S270.37,169.37,268.43,189.13Z"/><ellipse class="cls-15" cx="216.22" cy="220.93" rx="14.21" ry="15.46" transform="translate(-29.88 33.86) rotate(-8.38)"/><path class="cls-16" d="M218.48,236.28a13.77,13.77,0,0,1-11-3.14,16.9,16.9,0,0,1-3.65-21.72,14,14,0,0,1,21.43-3.15,16.91,16.91,0,0,1,2.76,21.85A13.8,13.8,0,0,1,218.48,236.28Zm0-.1a13.6,13.6,0,0,0,9.4-6.19,16.34,16.34,0,0,0-3.12-21.06,13.32,13.32,0,0,0-20.15,3A16.36,16.36,0,0,0,207.68,233,13.57,13.57,0,0,0,218.46,236.18Z"/><ellipse class="cls-5" cx="211.46" cy="225.45" rx="7.68" ry="8.45" transform="translate(-30.59 33.21) rotate(-8.38)"/><ellipse class="cls-17" cx="216.41" cy="224.03" rx="2.18" ry="2.4" transform="translate(-30.33 33.92) rotate(-8.38)"/><ellipse class="cls-15" cx="262.15" cy="218.1" rx="10.61" ry="15.46" transform="translate(-28.98 40.52) rotate(-8.38)"/><path class="cls-16" d="M264.41,233.45a8.26,8.26,0,0,1-5-.91,12.65,12.65,0,0,1-4-3.34,21.57,21.57,0,0,1-3.47-20,13.29,13.29,0,0,1,2.88-4.63A8.27,8.27,0,0,1,265.27,203a13.16,13.16,0,0,1,4.1,3.6,20.75,20.75,0,0,1,3.74,9.86,21,21,0,0,1-1.3,10.3,12.6,12.6,0,0,1-2.83,4.33A8.28,8.28,0,0,1,264.41,233.45Zm0-.1a8.21,8.21,0,0,0,4.46-2.34,12.5,12.5,0,0,0,2.73-4.31,21.06,21.06,0,0,0-2.9-19.53,12.5,12.5,0,0,0-3.85-3.32,7.59,7.59,0,0,0-9.37,1.38,12.49,12.49,0,0,0-2.74,4.29,21.06,21.06,0,0,0,2.86,19.53,12.36,12.36,0,0,0,3.86,3.34A8.13,8.13,0,0,0,264.4,233.35Z"/><ellipse class="cls-5" cx="258.74" cy="222.42" rx="5.73" ry="8.45" transform="translate(-29.64 40.07) rotate(-8.38)"/><ellipse class="cls-17" cx="262.41" cy="221.19" rx="1.63" ry="2.4" transform="translate(-29.42 40.59) rotate(-8.38)"/><path class="cls-18" d="M252.54,199.59a47.74,47.74,0,0,0-3.31,8.27,32.08,32.08,0,0,0-1.39,8.64,18.75,18.75,0,0,0,1.65,8.36,19.21,19.21,0,0,0,5.26,6.66l-.45-.18a12.08,12.08,0,0,1,3.29.86,8.22,8.22,0,0,1,2.86,2,5.92,5.92,0,0,1,1.44,3.21,4.19,4.19,0,0,1-1.06,3.42,8.33,8.33,0,0,1-2.75,1.91,20.23,20.23,0,0,1-3,1.09c-2,.59-4.09,1-6.12,1.57l0-.09c2-.69,4-1.21,6-1.89a22.21,22.21,0,0,0,2.91-1.19,7.85,7.85,0,0,0,2.5-1.83,3.46,3.46,0,0,0,.82-2.87,5.22,5.22,0,0,0-1.33-2.76,9,9,0,0,0-5.59-2.47h0a18.88,18.88,0,0,1-5.57-7,19.62,19.62,0,0,1-1.63-8.78,31.11,31.11,0,0,1,1.69-8.81,40.63,40.63,0,0,1,3.79-8.13Z"/><path class="cls-19" d="M226.86,249.28a31.23,31.23,0,0,0-3.6,4.36,16.47,16.47,0,0,0-1.33,2.36c-.42.83-.71,1.72-1.14,2.68h-.1a11.51,11.51,0,0,1,.49-2.92,9.86,9.86,0,0,1,1.25-2.67,11.74,11.74,0,0,1,4.38-3.9Z"/><path class="cls-19" d="M267.1,247.54a3.07,3.07,0,0,1,2.19.56,4.2,4.2,0,0,1,1.5,1.83,4.79,4.79,0,0,1,.27,2.3,5,5,0,0,1-.27,1.08,4.74,4.74,0,0,1-.57,1l-.09,0,.13-1c0-.34,0-.67,0-1a5.86,5.86,0,0,0-.42-1.94,4.69,4.69,0,0,0-2.79-2.67Z"/><path class="cls-7" d="M244,263.27c1.45-.26,2.88-.5,4.29-.67s2.81-.37,4.19-.62,2.76-.47,4.1-.8a6.82,6.82,0,0,0,1-.27,7.24,7.24,0,0,0,1-.34,9.1,9.1,0,0,0,1-.37c.31-.16.64-.31,1-.46l.06.07a11.7,11.7,0,0,1-3.78,2.1,22.67,22.67,0,0,1-4.2,1.06,36.75,36.75,0,0,1-4.31.41c-1.45.06-2.89.07-4.34,0Z"/><ellipse class="cls-20" cx="320.59" cy="294.68" rx="3.54" ry="3.68"/><ellipse class="cls-20" cx="135.11" cy="408.76" rx="3.54" ry="3.68"/><path class="cls-21" d="M202,356a25.8,25.8,0,0,1,.7-13.45c1.72-5,5.16-10.45,12-13,14.51-5.47,27.63,6.86,33.8,26.07s16.55,52.38-10.06,74.45-52.7-15.37-42.4-42.16C203.07,369.74,202.89,360.24,202,356Z"/><path class="cls-19" d="M222.78,254.27s9.79,13,24.61,17c12.47,3.38,21.67-22.51,21.67-22.51l-17.34,9.55Z"/><path class="cls-22" d="M222.78,254.27s17.26,14.9,27.68,13.56c7.46-1,17-16.68,17-16.68S247.67,260.56,222.78,254.27Z"/><path class="cls-23" d="M261.72,254.77h0c0,3.26-1.87,6.31-7.69,7.79-9.72,2.47-19.87-1.37-23.84-5.64-1.15-1.23,7.27-.14,7.27-.14S255.09,259.57,261,255Z"/><path class="cls-19" d="M222.78,254.27s34,3.27,45.19-4C268,250.27,255.91,265.45,222.78,254.27Z"/><path class="cls-2" d="M111.63,131.26s-74.94-15.85-105.14,42c0,0-11.18,58.5,118.56,83.48"/><path class="cls-24" d="M120.58,159.47S47.88,139.9,30,179.05c0,0,0,23.49,31.32,32.43,0,0-22.93-6.15-27.4-30.75C33.9,180.73,51.79,145.49,120.58,159.47Z"/><path class="cls-2" d="M139.59,166.19s-33,39.7-6.15,95.63"/><path class="cls-2" d="M221,440.77c.12,1.59.17,3.16.17,4.69v.34A73.85,73.85,0,0,1,211.74,481c-3.63,30.44,5.15,35.93,7.83,39.14a25.34,25.34,0,0,1,1.6,2.16,16.38,16.38,0,0,1,2.86,7.91c.41,2.42,3.91,7.17-4.49,9.68h0a35.6,35.6,0,0,1-6.38,1.18c-1.2.14-2.51.24-3.94.32a82.3,82.3,0,0,1-11.3-.16,65.58,65.58,0,0,1-10.63-1.73c-7.7-1.94-12.81-5-14.27-7.73l0-.05a8.17,8.17,0,0,1,.35-8.06l5.86-9.58s7.36-40.64-3.54-62.45c-6.51-13-6.45-29.31-5.34-40.34h0v0a100.77,100.77,0,0,1,2-12.47"/><path class="cls-14" d="M213.16,541.12c-1.2.14-2.51.24-3.94.32a82.3,82.3,0,0,1-11.3-.16c1-3.8,4.07-13.55,8.6-11.27h0a6.2,6.2,0,0,1,1.85,1.55l.31.36A20.33,20.33,0,0,1,213.16,541.12Z"/><path class="cls-14" d="M219.54,539.93c-.21-1.83-1.75-15.78,1.63-17.59a16.38,16.38,0,0,1,2.86,7.91C224.44,532.67,227.94,537.42,219.54,539.93Z"/><path class="cls-14" d="M187.29,539.55c-7.7-1.94-12.81-5-14.27-7.73l0-.05c1-3.24,3.07-7,7.42-4.69C185.28,529.64,186.81,535.88,187.29,539.55Z"/><path class="cls-14" d="M237.24,525.32a28.82,28.82,0,0,1-10.75-4.76C227.12,514.53,229.45,502.59,237.24,525.32Z"/><path class="cls-14" d="M259.4,526a53.38,53.38,0,0,1-10.72.84C248.9,521.12,250.35,501.06,259.4,526Z"/><path class="cls-14" d="M273,521.3c-1.17.62-2.36,1.2-3.56,1.7-1.8-4.13-4.57-12.2-1-16.38A51.35,51.35,0,0,1,272,511C276.79,517.67,273,521.3,273,521.3Z"/><path class="cls-9" d="M165.88,352.41,185.45,344s22.65-23.2-10.35-33.83"/></svg>