<?xml version="1.0" encoding="utf-8"?>
<!-- Generator: Adobe Illustrator 25.2.3, SVG Export Plug-In . SVG Version: 6.00 Build 0)  -->
<svg version="1.1" id="Layer_1" xmlns="http://www.w3.org/2000/svg" xmlns:xlink="http://www.w3.org/1999/xlink" x="0px" y="0px"
	 viewBox="0 0 1600 900" style="enable-background:new 0 0 1600 900;" xml:space="preserve">
<style type="text/css">
	.st0{clip-path:url(#SVGID_2_);}
	.st1{fill-rule:evenodd;clip-rule:evenodd;fill:url(#SVGID_3_);}
	.st2{fill-rule:evenodd;clip-rule:evenodd;fill:#680E36;}
	.st3{fill-rule:evenodd;clip-rule:evenodd;fill:#D6482A;}
	.st4{opacity:0.67;fill-rule:evenodd;clip-rule:evenodd;fill:#A62764;enable-background:new    ;}
	.st5{opacity:0.3;}
	.st6{fill-rule:evenodd;clip-rule:evenodd;fill:#811021;}
	.st7{fill-rule:evenodd;clip-rule:evenodd;fill:#6A0621;}
	.st8{fill-rule:evenodd;clip-rule:evenodd;fill:#9B1F21;}
	.st9{fill:url(#SVGID_4_);}
	.st10{fill:url(#SVGID_5_);}
	.st11{fill:url(#SVGID_6_);}
	.st12{fill:url(#SVGID_7_);}
	.st13{fill:url(#SVGID_8_);}
	.st14{fill:url(#SVGID_9_);}
	.st15{fill:#AC4034;}
	.st16{fill:#560A27;}
	.st17{opacity:0.1;}
	.st18{fill:#FFFFFF;}
	.st19{opacity:0.67;fill:#BB2864;enable-background:new    ;}
	.st20{opacity:0.67;fill:#FFE7FA;enable-background:new    ;}
	.st21{opacity:0.2;}
	.st22{fill-rule:evenodd;clip-rule:evenodd;fill:url(#SVGID_10_);}
	.st23{fill-rule:evenodd;clip-rule:evenodd;fill:#11132D;}
	.st24{fill-rule:evenodd;clip-rule:evenodd;fill:url(#SVGID_11_);}
	.st25{fill:url(#SVGID_12_);}
	.st26{opacity:0.3;enable-background:new    ;}
	.st27{fill:#4F0230;}
	.st28{fill:url(#SVGID_13_);}
	.st29{fill:url(#SVGID_14_);}
	.st30{fill:url(#SVGID_15_);}
	.st31{fill-rule:evenodd;clip-rule:evenodd;}
	.st32{fill-rule:evenodd;clip-rule:evenodd;fill:url(#SVGID_16_);}
	.st33{fill-rule:evenodd;clip-rule:evenodd;fill:url(#SVGID_17_);}
</style>
<g>
	<defs>
		<rect id="SVGID_1_" width="1600" height="900"/>
	</defs>
	<clipPath id="SVGID_2_">
		<use xlink:href="#SVGID_1_"  style="overflow:visible;"/>
	</clipPath>
	<g class="st0">
		
			<linearGradient id="SVGID_3_" gradientUnits="userSpaceOnUse" x1="800" y1="205.62" x2="800" y2="909.68" gradientTransform="matrix(1 0 0 -1 0 900)">
			<stop  offset="0" style="stop-color:#631336"/>
			<stop  offset="1" style="stop-color:#23001C"/>
		</linearGradient>
		<polygon class="st1" points="-280,671.7 -280,-9.7 1880,-9.7 1880,694.4 		"/>
		<polygon class="st2" points="-286,714.6 -289,933 1886.9,933 1886.8,718.7 		"/>
		<path class="st3" d="M-363.3,714.6c0,0,547.4,35.8,1187,35.8s1139.6-34,1139.6-34v-28l-267.8-23.3h-1815l-243.9,10.8L-363.3,714.6
			z"/>
		<path class="st3" d="M-12.9,719.4c0,0,338.8,36.8,812.9,36.8s812.8-36.8,812.8-36.8v8.2c0,0-353.1,42.2-812.8,42.2
			s-812.8-42.2-812.8-42.2L-12.9,719.4z"/>
		<polygon class="st4" points="820.2,750.4 824.7,665.1 825.2,665.1 825.8,750.4 		"/>
		<polygon class="st4" points="907.3,750.4 871.8,665.1 872.4,665.1 913,750.4 		"/>
		<polygon class="st4" points="1000.5,748.6 918.2,663.6 919.4,663.6 1006.2,748.6 		"/>
		<polygon class="st4" points="1111.3,746.5 969.2,663.6 970.4,663.6 1116.9,746.5 		"/>
		<polygon class="st4" points="1215.2,742.2 1013,663.6 1014.2,663.6 1220.9,742.2 		"/>
		<polygon class="st4" points="1303.3,737.4 1057.7,663.6 1058.8,663.6 1309,737.4 		"/>
		<polygon class="st4" points="1380.8,733.6 1103.7,665.1 1104.9,665.1 1386.5,733.6 		"/>
		<polygon class="st4" points="1444.1,729.1 1142.6,665.1 1143.8,665.1 1449.8,729.1 		"/>
		<polygon class="st4" points="1525.3,723.7 1207,665.1 1208.1,665.1 1530.9,723.7 		"/>
		<polygon class="st4" points="741.2,750.4 776.7,665.1 776.1,665.1 735.5,750.4 		"/>
		<polygon class="st4" points="647.9,748.6 730.3,663.6 729.1,663.6 642.3,748.6 		"/>
		<polygon class="st4" points="537.2,746.5 679.3,663.6 678.1,663.6 531.5,746.5 		"/>
		<polygon class="st4" points="433.3,742.2 635.5,663.6 634.3,663.6 427.6,742.2 		"/>
		<polygon class="st4" points="345.2,738.4 590.8,663.6 589.7,663.6 339.5,738.4 		"/>
		<polygon class="st4" points="266.7,734.6 544.8,665.1 543.6,665.1 261,734.6 		"/>
		<polygon class="st4" points="203.4,730.3 505.9,665.1 504.7,665.1 197.7,730.3 		"/>
		<polygon class="st4" points="120.9,725 441.5,665.1 440.4,665.1 115.2,725 		"/>
		<g class="st5">
			<path d="M1561.8,811.3l-60-73.1l-120.5-18.8l-56.2-23.2l-200.2-12c-334.7-18.5-552.5-10.4-912.9,10.2L8.7,701l-53.6,15.7
				l-153.8,17.9l-11.4,76.7H-280v-139l478.8-8.6h1474.6l212.9,18.1l-6.3,129.5H1561.8z"/>
		</g>
		<polygon class="st6" points="1000.8,754 1000.5,748.6 979.2,726.6 1006.2,748.6 1006.2,753.9 		"/>
		<polygon class="st6" points="1111.3,751 1111.3,746.5 1084.3,730.7 1116.9,746.5 1114.9,750.8 		"/>
		<polygon class="st6" points="1214.3,747 1215.2,742.2 1181.5,729.1 1220.9,742.2 1220.9,747 		"/>
		<polygon class="st7" points="1304.6,742.2 1303.3,737.4 1287.4,732.6 1309,737.4 1308.7,742.2 		"/>
		<polygon class="st7" points="1380.6,738 1380.8,733.6 1368.9,729.3 1386.5,733.6 1386.5,737.6 		"/>
		<polygon class="st7" points="1446,733.8 1445.9,729.3 1436.4,727.5 1449.8,729.1 1449.8,733.3 		"/>
		<polygon class="st8" points="913,755.5 913,750.4 897.4,726.6 907.3,750.4 907.5,755.5 		"/>
		<polygon class="st8" points="820.2,755.5 820.2,750.4 825.8,740.3 825.8,750.4 825.8,755.5 		"/>
		<polygon class="st8" points="735.5,755.9 735.5,750.4 746.6,737.4 741.2,750.4 741.1,755.5 		"/>
		<polygon class="st6" points="648.2,754.9 647.9,748.6 658.7,737.4 642.3,748.6 643.7,754.7 		"/>
		<polygon class="st6" points="531.5,752.3 531.5,746.5 551,738.4 537.2,746.5 538,752.5 		"/>
		<polygon class="st6" points="427.6,748.7 427.6,742.2 452.8,734.6 433.3,742.2 431.7,748.7 		"/>
		<polygon class="st6" points="339.5,744.8 339.5,738.4 357.8,734.6 345.2,738.4 343.1,745 		"/>
		
			<linearGradient id="SVGID_4_" gradientUnits="userSpaceOnUse" x1="291.6777" y1="221.42" x2="291.6777" y2="346.5764" gradientTransform="matrix(1 0 0 -1 0 900)">
			<stop  offset="0" style="stop-color:#753B00"/>
			<stop  offset="1" style="stop-color:#A98625"/>
		</linearGradient>
		<path class="st9" d="M142.3,661.3c0,0,12.8-52.1,46.4-58.9s48.1,36.3,48.1,36.3s25.6-94.4,78.5-84.6c37,6.9,20.6,80.3,20.6,80.3
			s20.6-18,48.2-9.4s23.8,49.6,23.8,49.6c4.1-8.8,12.5-14.8,22.1-15.8c16.7-2,22.8,19.8,22.8,19.8H132.6
			C132.6,678.6,124,660.1,142.3,661.3z"/>
		
			<linearGradient id="SVGID_5_" gradientUnits="userSpaceOnUse" x1="291.6527" y1="221.3599" x2="291.6527" y2="341.308" gradientTransform="matrix(1 0 0 -1 0 900)">
			<stop  offset="0" style="stop-color:#5E2500"/>
			<stop  offset="1" style="stop-color:#815900"/>
		</linearGradient>
		<path class="st10" d="M142.3,662c0,0,12.8-49.9,46.4-56.4s48.1,34.8,48.1,34.8s25.6-90.4,78.5-81c37,6.6,20.6,76.9,20.6,76.9
			s20.6-17.3,48.2-9s23.8,47.5,23.8,47.5s5.4-13.2,22.1-15.2s22.8,19,22.8,19H132.6C132.6,678.6,124,660.9,142.3,662z"/>
		
			<linearGradient id="SVGID_6_" gradientUnits="userSpaceOnUse" x1="1405.3049" y1="217.95" x2="1405.3049" y2="342.8802" gradientTransform="matrix(1 0 0 -1 0 900)">
			<stop  offset="0" style="stop-color:#896600"/>
			<stop  offset="1" style="stop-color:#D19F25"/>
		</linearGradient>
		<path class="st11" d="M1565.5,682c0,0-9.4-74.8-37.4-77.3s-44.3,34.5-44.3,34.5s-25.3-70.9-72.8-81.5
			c-44.9-10-87.6,114.9-87.6,114.9s-12.3-31.4-34.8-30.1c-26.9,1.5-43.6,36.9-43.6,36.9L1565.5,682z"/>
		
			<linearGradient id="SVGID_7_" gradientUnits="userSpaceOnUse" x1="1406.985" y1="217.95" x2="1406.985" y2="335.721" gradientTransform="matrix(1 0 0 -1 0 900)">
			<stop  offset="0" style="stop-color:#753B00"/>
			<stop  offset="1" style="stop-color:#A98625"/>
		</linearGradient>
		<path class="st12" d="M1567.2,682c0,0-9.4-70.5-37.4-72.9s-44.3,32.5-44.3,32.5s-25.3-66.8-72.8-76.8
			c-44.9-9.5-87.6,108.3-87.6,108.3s-12.3-29.6-34.8-28.4c-26.9,1.5-43.6,34.8-43.6,34.8L1567.2,682z"/>
		
			<linearGradient id="SVGID_8_" gradientUnits="userSpaceOnUse" x1="1107.5801" y1="583.1814" x2="1107.5801" y2="822.06" gradientTransform="matrix(1 0 0 -1 0 900)">
			<stop  offset="0" style="stop-color:#84002F"/>
			<stop  offset="0.99" style="stop-color:#4A001E"/>
		</linearGradient>
		<path class="st13" d="M1588.4,77.9l-41.8,103.2l0,0l-3.3,10.8c0,0-57.6,132.3-171.3,124.6c-156.4-10.5-266.6-211-266.6-211
			s-67.7,109.3-231.8,114.4c-159.5,5-246.9-132.8-246.9-132.8h9.9C684,87.2,1588.4,77.9,1588.4,77.9z"/>
		
			<linearGradient id="SVGID_9_" gradientUnits="userSpaceOnUse" x1="380.26" y1="582.5828" x2="380.26" y2="829" gradientTransform="matrix(1 0 0 -1 0 900)">
			<stop  offset="0" style="stop-color:#84002F"/>
			<stop  offset="0.99" style="stop-color:#4A001E"/>
		</linearGradient>
		<path class="st14" d="M623.7,86.9l3-0.1l-0.8,10.6c0,0-130,208.8-286.4,219.7c-111.9,7.8-166.3-119-167.9-122.9v-0.1
			c0,0-19.3-34.1-23.5-46.4c-6.2-18.5-14.3-76.6-14.3-76.6s316.5,22.2,481,16.2L623.7,86.9z"/>
		<path class="st15" d="M626.6,86.8l-0.8,10.6c0,0-129.9,208.8-286.3,219.7c-111.9,7.8-166.3-119-167.9-122.9v-0.1l-2.7-39.1
			c0.1,0.7,0.5,3.2,1.3,6.9c6.1,29.4,38.4,132.8,166,134.4c139.1,1.8,287.5-209.5,287.5-209.5L626.6,86.8z"/>
		<path class="st15" d="M1546.6,181.1l-3.3,10.8c0,0-57.6,132.3-171.3,124.6c-156.4-10.5-266.6-211-266.6-211
			s-67.7,109.3-231.8,114.4c-159.5,5-246.9-132.8-246.9-132.8h9.9c0,0,85.8,124.2,238.4,119.7c161.3-4.8,225.2-111.1,225.2-111.1
			h12.9c0,0,108.8,193.3,257.8,200.1C1495.6,301.4,1545.6,183.4,1546.6,181.1z"/>
		<path class="st16" d="M1518.2,121.9c0,0-33.9,44.5-147.2,38.8s-149.8-60.6-149.8-60.6h29c0,0,23.5,33.4,119.5,42.3
			s133.2-22.3,133.2-22.3L1518.2,121.9z"/>
		<path class="st16" d="M1188.3,98.6c0,0,72,105,181.4,109.5s166-82.7,166-82.7l15.6,0.7c0,0-69.7,108.6-181.6,105.4
			S1176.8,98.6,1176.8,98.6H1188.3z"/>
		<g class="st17">
			<path class="st18" d="M1155.3,96c0,0,53.8,111.7,141.7,155.7c0,0-82.9-10.9-175.8-155.7L1155.3,96z"/>
		</g>
		<path class="st16" d="M1557.2,126.9c0,0-40.1,93.2-129.3,134.3c0,0,72.7-17.1,120.9-87.4l14.1-46.1L1557.2,126.9z"/>
		<path class="st19" d="M199.4,112.2c0,0,33.9,46.4,147.2,40.4s149.8-63.1,149.8-63.1h-29c0,0-23.5,34.8-119.5,44.1
			s-133.2-23.2-133.2-23.2L199.4,112.2z"/>
		<path class="st16" d="M529.3,87.9c0,0-72,109.4-181.4,114s-166-86.2-166-86.2l-15.6,0.8c0,0,69.7,113.1,181.6,109.8
			S540.8,87.9,540.8,87.9H529.3z"/>
		<g class="st17">
			<path class="st18" d="M562.3,85.2c0,0-53.7,116.3-141.7,162.2c0,0,82.9-11.3,175.8-162.2L562.3,85.2z"/>
		</g>
		<path class="st16" d="M160.4,117.4c0,0,40.1,97.1,129.3,139.9c0,0-72.7-17.9-120.9-91l-14.1-48L160.4,117.4z"/>
		<path class="st16" d="M796.1,87.1c0,0,37.1,27.1,76.7,25.5s51.5-22.2,51.5-22.2L796.1,87.1z"/>
		<path class="st16" d="M753.9,87.9c0,0,42.2,49.5,112.2,52.4s111.3-48.6,111.3-48.6l19.5,0.5c0,0-42.2,68.2-128.6,68.2
			c-87.3,0-128.6-72.6-128.6-72.6L753.9,87.9z"/>
		<path class="st16" d="M693.2,87.8c0,0,70.3,92.1,175,93.3c108.8,1.3,166.5-87.9,166.5-87.9l11.4,1.3c0,0-54.4,107.5-174.8,107.5
			c-125,0-190.8-114.6-190.8-114.6L693.2,87.8z"/>
		<path class="st20" d="M569,87.2c0,0-13.2,28.2-52.4,60c0,0,51.7-25,83.4-59.2L569,87.2z"/>
		<g class="st21">
			<polygon points="287.9,725.4 236.1,744.8 117,736.6 199.6,724.7 			"/>
		</g>
		
			<linearGradient id="SVGID_10_" gradientUnits="userSpaceOnUse" x1="244.195" y1="197.21" x2="244.195" y2="215.62" gradientTransform="matrix(1 0 0 -1 0 900)">
			<stop  offset="1.000000e-02" style="stop-color:#3A2A51"/>
			<stop  offset="1" style="stop-color:#49455A"/>
		</linearGradient>
		<polygon class="st22" points="196.7,699.5 208.5,684.4 291.6,686 275.4,702.8 		"/>
		<polygon class="st23" points="199.6,724.7 196.7,699.5 275.4,702.8 273.2,729.4 		"/>
		
			<linearGradient id="SVGID_11_" gradientUnits="userSpaceOnUse" x1="282.44" y1="170.62" x2="282.44" y2="213.96" gradientTransform="matrix(1 0 0 -1 0 900)">
			<stop  offset="1.000000e-02" style="stop-color:#281742"/>
			<stop  offset="1" style="stop-color:#322D45"/>
		</linearGradient>
		<polygon class="st24" points="287.9,725.4 273.2,729.4 275.4,702.8 291.6,686 		"/>
		
			<linearGradient id="SVGID_12_" gradientUnits="userSpaceOnUse" x1="4184.8354" y1="215.8789" x2="4184.8354" y2="849.75" gradientTransform="matrix(-1 0 0 -1 4147.2402 900)">
			<stop  offset="0" style="stop-color:#84002F"/>
			<stop  offset="0.99" style="stop-color:#4A001E"/>
		</linearGradient>
		<path class="st25" d="M148.1,89.5v591.2c0,0-30,7.8-47.7,0v-2.9h-5.9v2.8c-13.5,1.1-27,1.5-40.5,1v-2.9l-5-0.2v3.2
			c0,0-31.6,1-51.5-1v-3.5l-2.7,0.1v3.7c0,0-5.1,2.1-9.9,1v-4.3l-3-0.3v3.1c0,0-38,3.3-59,0.3v-3.6h-2.7v2.9c0,0-55.8,3-95-1.9
			l-48.5-115.9l29.3-241.5l11.6-270.4L148.1,89.5z"/>
		<path class="st26" d="M148.1,680.7l-1.3-457.8l-326.2-24.4l4.5,479.6c35.2,3.7,71.7,3,95,1.9v-3h2.7v3.6c19.6,1.4,39.4,1.3,59-0.3
			v-3.1l3,0.3v4.3c3.3,0.5,6.7,0.2,9.9-1v-3.7l2.7-0.1v3.5c17.1,1.2,34.3,1.6,51.5,1v-3.2l5,0.3l0.1,2.8c13.3,0.3,26.8,0,40.5-1
			v-2.8h5.9v2.9C110.4,685.7,133.8,684.9,148.1,680.7z"/>
		<polygon class="st27" points="114.9,157.5 100.4,677.8 94.5,677.8 101.7,188.2 72.2,214.3 54,678.6 49,678.5 49,214.9 10.4,230.5 
			-2.5,677.2 -5.2,677.2 -8.6,218.9 -31.5,213.6 -15.1,677.6 -18.1,677.2 -39,195.5 -105.1,195.5 -77.1,677.1 -79.9,677.1 
			-116.6,185.6 -138.3,185 -116.6,678.6 -140.5,679.2 -160.8,124.9 		"/>
		
			<linearGradient id="SVGID_13_" gradientUnits="userSpaceOnUse" x1="2761.3999" y1="215.8789" x2="2761.3999" y2="849.75" gradientTransform="matrix(1 0 0 -1 -1020.82 900)">
			<stop  offset="0" style="stop-color:#84002F"/>
			<stop  offset="0.99" style="stop-color:#4A001E"/>
		</linearGradient>
		<path class="st28" d="M1554.8,89.5v591.2c0,0,30,7.8,47.7,0v-2.9h5.9v2.8c13.5,1.1,27,1.5,40.5,1v-2.9l5.1-0.2v3.2
			c0,0,31.6,1,51.5-1v-3.5l2.7,0.1v3.7c0,0,5.1,2.1,9.9,1v-4.3l3-0.3v3.1c0,0,38,3.3,59,0.3v-3.6h2.7v2.9c0,0,55.8,3,95-1.9
			l48.5-115.9L1897,320.7l-11.6-270.4L1554.8,89.5z"/>
		<path class="st26" d="M1554.8,680.7l1.3-457.8l326.2-24.4l-4.5,479.6c-35.2,3.7-71.7,3-95,1.9v-3h-2.7v3.6
			c-19.6,1.4-39.4,1.3-59-0.3v-3.1l-3,0.3v4.3c-3.3,0.5-6.7,0.2-9.9-1v-3.7l-2.7-0.1v3.5c-17.1,1.2-34.3,1.6-51.5,1v-3.2l-5,0.3
			l-0.1,2.8c-13.3,0.3-26.8,0-40.5-1v-2.8h-5.9v2.9C1592.6,685.7,1569.2,684.9,1554.8,680.7z"/>
		<polygon class="st27" points="1588.1,157.5 1602.6,677.8 1608.5,677.8 1601.3,188.2 1630.8,214.3 1648.9,678.6 1654,678.5 
			1654,214.9 1692.6,230.5 1705.4,677.2 1708.2,677.2 1711.5,218.9 1734.5,213.6 1718.1,677.6 1721.1,677.2 1741.9,195.5 
			1808.1,195.5 1780.1,677.1 1782.8,677.1 1819.6,185.6 1841.3,185 1819.6,678.6 1843.5,679.2 1863.8,124.9 		"/>
		<path class="st26" d="M82.2,228.5c0,0-93.6,309.6-289.2,289.8l7.8-327.1l266.7-8.3L82.2,228.5z"/>
		
			<linearGradient id="SVGID_14_" gradientUnits="userSpaceOnUse" x1="4258.6504" y1="195.1177" x2="4258.6504" y2="810.16" gradientTransform="matrix(-1 0 0 -1 4147.2402 900)">
			<stop  offset="0" style="stop-color:#D1023E"/>
			<stop  offset="0.99" style="stop-color:#74021E"/>
		</linearGradient>
		<path class="st29" d="M77.8,89.8c0,0-70.9,269.1-172,361.1c-20.8,18.9-87.3,39-110.5,36.4L-207,501l49.1,194.5
			c0,0-9.2,4.8-27.5,3.8l-2.3-3.8h-4.9l1.3,4c0,0-11.9,6.1-34,3.4V701l-4.8,0.5v1.8c0,0-28.6,3.3-70.5,0.3l2.5-607.9L77.8,89.8z"/>
		<g class="st17">
			<path d="M55.7,111.5c0,0-89.7,207.9-143.7,285.9s-125.7,86.7-125.7,86.7l1.2,9.5c18.4,78.5,23.4,123.9,24.9,202h-4.9l-25.5-211.8
				v-2.9c0,0,82.9-40.3,148.4-146.1c45-72.8,89.9-219.9,89.9-219.9L55.7,111.5z"/>
		</g>
		<g class="st17">
			<path class="st18" d="M34.4,223.6c0,0-65.1,162.3-102.1,198.5s-87.6,46.7-87.6,46.7s48.2-27.8,94.8-97.7S34.4,223.6,34.4,223.6z"
				/>
		</g>
		<g class="st5">
			<path d="M24.8,252.7l-49.1,28.1l-17.6,0.6c0,0-8.3,7.1-24.3,9.5c-18.8,2.7-45.2-1.9-45.2-1.9l-3.9,7.8c0,0-37.4,16.2-62.4-3.1
				c0,0-57.5,19.7-120.4-5.2l-0.1-192.6l376-5.9C77.8,89.9,37.3,224.6,24.8,252.7z"/>
		</g>
		<path class="st26" d="M1517,228.5c0,0,93.6,309.6,289.2,289.8l-7.8-327.1l-266.7-8.3L1517,228.5z"/>
		
			<linearGradient id="SVGID_15_" gradientUnits="userSpaceOnUse" x1="2162.7849" y1="195.0777" x2="2162.7849" y2="810.16" gradientTransform="matrix(1 0 0 -1 -452.24 900)">
			<stop  offset="0" style="stop-color:#D1023E"/>
			<stop  offset="0.99" style="stop-color:#74021E"/>
		</linearGradient>
		<path class="st30" d="M1521.4,89.8c0,0,70.9,269.1,172,361.1c20.7,18.9,87.3,39,110.5,36.4l2.3,13.8L1757,695.6
			c0,0,9.2,4.8,27.5,3.8l2.3-3.8h4.9l-1.3,4c0,0,11.9,6.1,34,3.4v-1.9l4.8,0.5v1.8c0,0,28.6,3.3,70.5,0.3l-2.5-607.9L1521.4,89.8z"
			/>
		<g class="st17">
			<path d="M1543.4,111.5c0,0,89.6,207.9,143.8,285.9s125.7,86.7,125.7,86.7l-1.2,9.5c-18.4,78.5-23.4,123.9-24.9,202h4.9
				l25.5-211.8v-2.9c0,0-82.9-40.3-148.4-146.1c-45-72.8-89.9-219.9-89.9-219.9L1543.4,111.5z"/>
		</g>
		<g class="st17">
			<path class="st18" d="M1564.8,223.6c0,0,65.1,162.3,102.1,198.5s87.6,46.7,87.6,46.7s-48.2-27.8-94.8-97.7
				S1564.8,223.6,1564.8,223.6z"/>
		</g>
		<g class="st5">
			<path d="M1574.4,252.7l49.1,28.1l17.6,0.6c0,0,8.3,7.1,24.3,9.5c18.8,2.7,45.2-1.9,45.2-1.9l3.8,7.8c0,0,37.4,16.2,62.4-3.1
				c0,0,57.5,19.7,120.4-5.2l0.1-192.6l-375.9-5.9C1521.4,89.8,1561.9,224.6,1574.4,252.7z"/>
		</g>
		<g class="st21">
			<polygon class="st31" points="1272.3,734.4 1324.2,753.9 1443.3,745.6 1360.7,733.7 			"/>
		</g>
		
			<linearGradient id="SVGID_16_" gradientUnits="userSpaceOnUse" x1="2617.03" y1="188.18" x2="2617.03" y2="206.58" gradientTransform="matrix(-1 0 0 -1 3933.0701 900)">
			<stop  offset="1.000000e-02" style="stop-color:#3A2A51"/>
			<stop  offset="1" style="stop-color:#49455A"/>
		</linearGradient>
		<polygon class="st32" points="1363.5,708.5 1351.7,693.4 1268.6,695.1 1284.8,711.8 		"/>
		<polygon class="st23" points="1360.7,733.7 1363.5,708.5 1284.8,711.8 1287,738.4 		"/>
		
			<linearGradient id="SVGID_17_" gradientUnits="userSpaceOnUse" x1="2655.28" y1="161.59" x2="2655.28" y2="204.92" gradientTransform="matrix(-1 0 0 -1 3933.0701 900)">
			<stop  offset="1.000000e-02" style="stop-color:#281742"/>
			<stop  offset="1" style="stop-color:#322D45"/>
		</linearGradient>
		<polygon class="st33" points="1272.3,734.4 1287,738.4 1284.8,711.8 1268.6,695.1 		"/>
	</g>
</g>
</svg>
