<svg id="Layer_1" data-name="Layer 1" xmlns="http://www.w3.org/2000/svg" viewBox="0 0 300 470"><defs><style>.cls-1{fill:#323232;opacity:0.4;}.cls-2{fill:#9e3d26;}.cls-2,.cls-22,.cls-3,.cls-4,.cls-9{stroke:#4c2606;stroke-miterlimit:10;}.cls-20,.cls-3{fill:#d35d3d;}.cls-4,.cls-6{fill:#f9dad2;}.cls-5{fill:#fff;}.cls-7{fill:#4c2606;}.cls-8{fill:#eab6ac;}.cls-9{fill:#aa4027;}.cls-10{fill:#b24a32;}.cls-11{fill:#c14d33;}.cls-12{fill:#2d1c15;}.cls-13{fill:#fcf9f7;}.cls-14{fill:#3a1e0f;}.cls-15{fill:#f9f4f2;}.cls-16{fill:#f58778;}.cls-17{fill:#7a2f2b;}.cls-18{fill:#f9f6f2;}.cls-19{fill:#e3ae9f;}.cls-21{fill:#efa69a;}.cls-22{fill:#9e3a23;}</style></defs><ellipse class="cls-1" cx="154.69" cy="436.66" rx="77.8" ry="18.79"/><path class="cls-2" d="M195.6,433.41a17.25,17.25,0,0,1-.1,5.08s-4.88,4.31-18.25,2.9-12.77-5.47-12.77-5.47-2.33-.68-2.82-1.56v-4.45Z"/><path class="cls-3" d="M161.75,430.65s0,1.1,3.06,2.69a28,28,0,0,0,8.43,3.65c8.11,2.07,18.12.27,22.06-2.3,0,0,1.88-1.84-3.06-6.61a19.15,19.15,0,0,0-4.73-3.27,31.12,31.12,0,0,0-6.71-6.37l-2.39-1.75-13.93-2.33a4.57,4.57,0,0,0-2.1,5.39Z"/><path class="cls-3" d="M181.13,418.77s-1.45-1.39-7.11.24-11.25,5.56-11.84-1.14"/><path class="cls-4" d="M164.48,414.36V421s1.58,1.23,7.11-1.55c0,0,4.27-1.92,7.23-.94l-.27-4.24-14.13-.13"/><path class="cls-5" d="M174.1,424.89a5.2,5.2,0,0,1,2-2.38,7.66,7.66,0,0,1,2.91-1.19,9,9,0,0,1,3.11,0,11.22,11.22,0,0,1,1.48.41,8.74,8.74,0,0,1,1.36.7l0,.1-1.43-.28c-.48-.05-1-.13-1.44-.14a12.61,12.61,0,0,0-2.88.18,10.2,10.2,0,0,0-2.73.91,7.48,7.48,0,0,0-2.28,1.74Z"/><path class="cls-5" d="M175.81,426.6a5.2,5.2,0,0,1,2-2.38,8,8,0,0,1,2.91-1.19,9,9,0,0,1,3.11,0,11.22,11.22,0,0,1,1.48.41,8.74,8.74,0,0,1,1.36.7l0,.1-1.43-.28c-.48,0-1-.13-1.44-.14a12.65,12.65,0,0,0-2.88.18,10.2,10.2,0,0,0-2.73.91,7.6,7.6,0,0,0-2.28,1.74Z"/><path class="cls-5" d="M177.61,428.13a5.2,5.2,0,0,1,2-2.38,8.07,8.07,0,0,1,2.91-1.19,8.78,8.78,0,0,1,3.11,0,9.52,9.52,0,0,1,1.48.4,9.7,9.7,0,0,1,1.36.7l0,.1L187,425.5c-.48,0-1-.13-1.44-.14a12.65,12.65,0,0,0-2.88.18,10.2,10.2,0,0,0-2.73.91,7.6,7.6,0,0,0-2.28,1.74Z"/><path class="cls-2" d="M104.86,435a17.86,17.86,0,0,0,.09,5.08s4.72,4.31,17.62,2.9,12.31-5.47,12.31-5.47,2.26-.68,2.73-1.55v-4.45Z"/><path class="cls-3" d="M137.52,432.27s0,1.1-3,2.7a26.7,26.7,0,0,1-8.14,3.64c-7.82,2.07-17.48.27-21.29-2.3,0,0-1.81-1.83,3-6.61a18.78,18.78,0,0,1,4.57-3.27,30.62,30.62,0,0,1,6.48-6.37l2.31-1.75L134.88,416a4.61,4.61,0,0,1,2,5.39Z"/><path class="cls-3" d="M118.82,420.39s1.4-1.39,6.86.24,10.85,5.56,11.42-1.14"/><path class="cls-4" d="M134.88,416v6.61s-1.52,1.23-6.85-1.55c0,0-4.13-1.92-7-.94l.26-4.24,13.64-.12"/><path class="cls-5" d="M125.52,426.57A17.21,17.21,0,0,0,123,425.4a16.94,16.94,0,0,0-2.48-.69c-.42-.08-.84-.16-1.28-.2s-.87-.07-1.32-.14l-1.37-.09c-.46,0-.94,0-1.44-.12l0-.1,1.39-.3c.47-.06.93-.15,1.41-.17a11.69,11.69,0,0,1,2.83.14,8.45,8.45,0,0,1,4.85,2.78Z"/><path class="cls-5" d="M123.87,428.28a17.21,17.21,0,0,0-2.48-1.17,16.94,16.94,0,0,0-2.48-.69c-.42-.08-.85-.16-1.28-.2s-.87-.07-1.32-.14l-1.37-.09c-.47,0-.94,0-1.44-.12l0-.1,1.38-.3c.47-.06.94-.15,1.41-.17a11.75,11.75,0,0,1,2.84.14,8.53,8.53,0,0,1,4.85,2.78Z"/><path class="cls-5" d="M122.13,429.81a16.12,16.12,0,0,0-2.48-1.16,15.82,15.82,0,0,0-2.48-.7,10.66,10.66,0,0,0-1.28-.19c-.43-.09-.87-.08-1.32-.15l-1.37-.09a12.33,12.33,0,0,1-1.44-.12l0-.1,1.39-.3c.47-.06.93-.15,1.41-.17a11.69,11.69,0,0,1,2.83.14,8.5,8.5,0,0,1,4.85,2.78Z"/><path class="cls-4" d="M209.64,318.72a25.67,25.67,0,0,0-1.24,11.21c.45,3.71,3.1,11.67,6.21,15.48,0,0,3.42,1.41,1.32-8.68a3.88,3.88,0,0,1,2.89-4.75c1.49-.28,3.22.42,4.63,3.77,3.24,7.67-.26,11.95-.26,11.95s.5,4.2,3.73,1.57a6.8,6.8,0,0,0,2.66-6s4,1.19,3.21-6c0,0,5.21.15,2.71-7.76a73.27,73.27,0,0,0-7.45-15.5Z"/><path class="cls-4" d="M229.54,344.37a30.28,30.28,0,0,0-1.6-10.3"/><path class="cls-4" d="M232.79,337.23s.82-2.53-1.59-7.87"/><path class="cls-4" d="M39.12,186.69,38.83,188S33,175.8,27.06,169.48c0,0-4.91-1.57-1.08,9.19,0,0-2.77-6.69-6.58-10.12s-4.35,5.71,1.54,15c0,0-5.49-8.66-7.19-4,0,0,.41,5.5,3.45,9.28,0,0-3.3-4.19-4.86-2.6s-3.57,4.48,6.31,16.34,16.12,12.84,16.12,12.84l15.08-12.69"/><path class="cls-4" d="M49.15,202.77s3.46-4.85-3.19-14.63c0,0-4.15-5.94-3.54-12.1,0,0-3.24-3.65-4.92,5.07l.13,9.28s-4.28,8.68,2.52,11.17"/><path class="cls-6" d="M36.92,185.52a24.46,24.46,0,0,0-15.43,14.36"/><path class="cls-7" d="M36.92,185.52a31.11,31.11,0,0,0-4.78,2.53,29.18,29.18,0,0,0-4.22,3.27,26.93,26.93,0,0,0-3.56,4,38,38,0,0,0-2.87,4.58,19.44,19.44,0,0,1,2.23-5,20,20,0,0,1,3.52-4.27,21.26,21.26,0,0,1,4.51-3.21A17.79,17.79,0,0,1,36.92,185.52Z"/><line class="cls-4" x1="24.47" y1="175.91" x2="31.2" y2="187.8"/><line class="cls-4" x1="19.62" y1="181.51" x2="26.2" y2="192.06"/><line class="cls-4" x1="15.84" y1="186.99" x2="22.39" y2="197.28"/><path class="cls-3" d="M125.78,202.31l-.67.11c-2.61.52-15.38,4.06-27.15,17.45-5.43,6.17-10.58,8.74-14,10.81-5.34,3.18-7.56,3.78-7.56,3.78l-24.59-37a109.54,109.54,0,0,1-21.61,19.18s15.13,31.88,41.33,47.55c0,0,28.37-3.24,38.37-17,0,0-3.25,26.2-4.06,53s-.54,52.14,13.51,116.17c0,0,9.46,6.48,17.83.81,0,0,8.2-53.95,5.76-80.69,0,0,6.76,1.53,12.34.45,0,0,7.84,60.78,7.3,76.72,0,0,6.48,7.3,17.56,1.62,0,0,14.31-62.94,15.12-84.28s-5.67-58.63-5.67-58.63,12.16,23.78,16.21,47c0,0,18.64.27,24-7.56,0,0-7.83-24.05-17.29-46.74s-20-48.09-32.14-56.46-27.56-5.14-27.56-5.14"/><path class="cls-3" d="M131.91,195.65s-.72-4-9,5.76c0,0-1.08,5.77,15.13,10.27s26.84-3.42,31.16-7.75c0,0-1.44-8.46-11.53-6.48S131.91,195.65,131.91,195.65Z"/><path class="cls-4" d="M163.43,186.46a23,23,0,0,0-2.79,8.71,14.16,14.16,0,0,0,0,1.55,3.94,3.94,0,0,1-1.87,3.51c-10.78,6.7-21.7,1.69-26.08-.92a2.76,2.76,0,0,1-1.19-3.26.19.19,0,0,0,0-.1c.83-2.55.24-3.72.24-3.72S167.57,178.54,163.43,186.46Z"/><path class="cls-8" d="M162.92,186.46a23.72,23.72,0,0,0-2.69,8.71c-9.93,4.48-21.82,2.44-28.14.78.8-2.55.23-3.72.23-3.72S166.92,178.54,162.92,186.46Z"/><path class="cls-3" d="M117.05,45A36.43,36.43,0,0,0,93.13,26.48C73.89,21.83,54.67,33,50.22,51.41S57.76,88.53,77,93.18a37.3,37.3,0,0,0,11,1"/><path class="cls-9" d="M102.05,56.36a17.54,17.54,0,0,0-11.52-8.94c-9.27-2.24-18.53,3.14-20.68,12s3.64,17.89,12.91,20.13a17.85,17.85,0,0,0,5.31.47"/><path class="cls-3" d="M246.27,104a102.7,102.7,0,0,1-1,14.1c-6,43.27-39.53,72-81.52,72-3.14,0-6.24.12-9.3.3-1.8.1-3.59.23-5.35.35h-.23c-19.54,1.4-36.77,3.17-49.6-14.62-4.35-6-9.36-34-12.47-40.92a107.56,107.56,0,0,1-9.69-43.91c0-51,32.76-76.73,79.16-76.73S246.27,53,246.27,104Z"/><path class="cls-10" d="M149.14,190.72l.18.46-.57.06.16-.51.11-.3Z"/><path class="cls-10" d="M244,120.77c-5.86,41.18-38.69,68.52-79.8,68.52-3.07,0-6.11.11-9.1.28C172.16,185.52,223.31,170.57,244,120.77Z"/><path class="cls-11" d="M81.72,81.13s-1.45-14.23,9.85-16.7,26.07,13.42,44,13.14,50.4-16.42,65.47.82,22.59,75.83-26.65,105.67c0,0-25.49,11.49-45.19,7.66,0,0,4-6.82-19.19-24.89s-24.55-40-26.58-55A231.5,231.5,0,0,1,81.72,81.13Z"/><path class="cls-4" d="M207.74,125.94c-1.49,21.17-11,44.62-35.22,60.16,0,0-23.77,11.35-42.14,7.57,0,0-8.65,0-30.26-17.83-19.37-16-12.48-40.43-12.2-56a35,35,0,0,0-.23-5,242.06,242.06,0,0,1-1.62-30.26s-1.35-14,9.19-16.47,24.31,13.23,41.06,13,47-16.22,61.05.81C204,89.86,209.07,107,207.74,125.94Z"/><path class="cls-12" d="M207.74,125.94c-4.17,3.23-7.65,5.72-20.9-22.77-16.92-36.42-53.76-18.92-53.76-18.92l-2.43-1.62c-46.29-16.45-37.34,26.74-42.73,37.19a35,35,0,0,0-.23-5,242.06,242.06,0,0,1-1.62-30.26s-1.35-14,9.19-16.47,24.31,13.23,41.06,13,47-16.22,61.05.81C204,89.86,209.07,107,207.74,125.94Z"/><ellipse class="cls-13" cx="152.75" cy="119.67" rx="13.63" ry="14.23" transform="translate(-5.72 7.69) rotate(-2.83)"/><path class="cls-14" d="M153.45,133.93a13.47,13.47,0,0,1-10.06-3.72,15.11,15.11,0,0,1-1.45-20.5,13.75,13.75,0,0,1,20.58-1,15.12,15.12,0,0,1,.58,20.54A13.47,13.47,0,0,1,153.45,133.93Zm0-.1a13.28,13.28,0,0,0,9.47-4.75,14.58,14.58,0,0,0-1-19.77,13.14,13.14,0,0,0-19.32,1,14.55,14.55,0,0,0,1,19.77A13.29,13.29,0,0,0,153.45,133.83Z"/><ellipse class="cls-12" cx="157.98" cy="119.15" rx="8.34" ry="8.71" transform="translate(-5.69 7.95) rotate(-2.83)"/><ellipse class="cls-15" cx="153.55" cy="115" rx="2.13" ry="2.38" transform="translate(-5.49 7.72) rotate(-2.83)"/><ellipse class="cls-13" cx="105.4" cy="115.01" rx="12.08" ry="14.23" transform="translate(-5.55 5.35) rotate(-2.83)"/><path class="cls-14" d="M106.11,129.27a11.48,11.48,0,0,1-9.22-4.08,16.53,16.53,0,0,1-1.46-19.81,13.23,13.23,0,0,1,3.95-3.79,10.82,10.82,0,0,1,10.69-.53,13.31,13.31,0,0,1,4.3,3.38,16.54,16.54,0,0,1,.51,19.86A11.47,11.47,0,0,1,106.11,129.27Zm0-.09a11.37,11.37,0,0,0,8.59-5,16,16,0,0,0-1-19.15,10.79,10.79,0,0,0-17.58.87A16,16,0,0,0,97.07,125,11.36,11.36,0,0,0,106.1,129.18Z"/><ellipse class="cls-12" cx="110.03" cy="114.53" rx="7.39" ry="8.71" transform="translate(-5.52 5.57) rotate(-2.83)"/><ellipse class="cls-15" cx="106.09" cy="110.36" rx="1.89" ry="2.38" transform="translate(-5.32 5.37) rotate(-2.83)"/><path class="cls-12" d="M153.34,89a17.42,17.42,0,0,1,16.75,7.43S170,85.06,155.5,84.12C155.5,84.12,150.77,85.33,153.34,89Z"/><path class="cls-12" d="M110.79,87s-8.93-1.9-14.39,7.43c0,0,.12-11.35,12.53-12.3C108.93,82.09,113,83.31,110.79,87Z"/><path class="cls-12" d="M117.71,129.41a9.63,9.63,0,0,0-1.93,2.57,6.85,6.85,0,0,0-.84,2.91,14.53,14.53,0,0,0,.06,1.48,8.38,8.38,0,0,0,.35,1.46,10.43,10.43,0,0,0,.58,1.37,8.59,8.59,0,0,0,.86,1.19,5.93,5.93,0,0,0,2.26,1.76,8.49,8.49,0,0,0,2.89.62,8.25,8.25,0,0,0,3.06-.43,11.09,11.09,0,0,0,2.91-1.39l.07.07a9.43,9.43,0,0,1-6,2.53,8.14,8.14,0,0,1-3.27-.56,7,7,0,0,1-2.68-2,9.32,9.32,0,0,1-.94-1.38,10.92,10.92,0,0,1-.6-1.56,7.38,7.38,0,0,1-.31-3.3,8.05,8.05,0,0,1,3.48-5.46Z"/><path class="cls-16" d="M154.7,153.13S142.75,171,128.45,172.79c-19.37,2.44-19.91-19.68-19.91-19.68l19.77,4Z"/><path class="cls-17" d="M154.7,153.13S141,168.6,125.26,168.61c-11.26,0-16.75-16.42-16.75-16.42S126.74,161.49,154.7,153.13Z"/><path class="cls-18" d="M113.05,154.21h0c.25,4.13,3.16,8.23,12.11,8.61,7.29.31,20.36-1.74,26-7.79,1.64-1.75-1.35-.23-1.35-.23s-26.48,4.4-35.63-.39"/><path class="cls-16" d="M153.39,153.82s-33.35,5.46-48.34-4.21C105.05,149.61,117.11,165.74,153.39,153.82Z"/><path class="cls-19" d="M154.46,150.11s7.14-.28,3.32,5.92C157.78,156,159.43,152.41,154.46,150.11Z"/><path class="cls-19" d="M107.21,147.41s-3.26,1.84-.53,6.44C106.68,153.85,101.11,149.76,107.21,147.41Z"/><path class="cls-3" d="M222.74,53.7a38.78,38.78,0,0,1,28.8-12.4C272.2,41.3,289,56.66,289,75.61s-16.76,34.31-37.42,34.31a40.27,40.27,0,0,1-11.4-1.63"/><path class="cls-9" d="M235.17,68.24a18.66,18.66,0,0,1,13.88-6c9.95,0,18,7.41,18,16.54s-8.08,16.53-18,16.53a19.14,19.14,0,0,1-5.5-.79"/><path class="cls-3" d="M191.16,280.39s-7.56-38.63-11.07-55.65"/><path class="cls-3" d="M108.49,261.21s2.17-25.4,4.33-36.74"/><path class="cls-3" d="M76.35,234.46s5,5.58,1.89,14.59"/><path class="cls-20" d="M116.6,322.8s33.5,33.5,67.36-.72"/><path class="cls-7" d="M116.63,322.77a55.54,55.54,0,0,0,7.65,5.48,60.38,60.38,0,0,0,8.29,4.31,46.92,46.92,0,0,0,18,4,39.87,39.87,0,0,0,9.18-.95,44.81,44.81,0,0,0,8.75-3l2.1-1c.7-.33,1.35-.77,2-1.15a45.25,45.25,0,0,0,3.93-2.53,21.43,21.43,0,0,0,1.91-1.37l1.88-1.42c1.21-1,2.38-2.06,3.57-3.08l.07.07a57.77,57.77,0,0,1-15.14,11.2,40.69,40.69,0,0,1-18.29,4.25,46.26,46.26,0,0,1-18.31-4.3,58.74,58.74,0,0,1-15.69-10.43Z"/><path class="cls-21" d="M181.44,292c0,26.56-16.92,31.88-29.45,31.88s-31.07-11.53-31.07-38.09,16.1-60.51,28.64-60.51S181.44,265.45,181.44,292Z"/><ellipse class="cls-22" cx="217.64" cy="309.56" rx="3.24" ry="2.97"/><ellipse class="cls-22" cx="41.68" cy="216.99" rx="3.24" ry="2.97"/><path class="cls-20" d="M183.6,238s4.05-.27,3.24-11.61"/><path class="cls-7" d="M183.56,237.47a2,2,0,0,0,1.07-.61,4.81,4.81,0,0,0,.87-1.19,11.2,11.2,0,0,0,.95-2.95,23.88,23.88,0,0,0,.36-3.16c.07-1.06,0-2.13,0-3.2.09,1.06.2,2.13.22,3.2a23.4,23.4,0,0,1-.11,3.24,11.79,11.79,0,0,1-.78,3.2,5.93,5.93,0,0,1-.9,1.47,2.92,2.92,0,0,1-1.64,1Z"/><path class="cls-20" d="M110.57,238.24s-4.34-2.7-2.89-14.05"/><path class="cls-7" d="M110.3,238.67a5.55,5.55,0,0,1-1.34-1.56,10.75,10.75,0,0,1-.83-1.75,14.55,14.55,0,0,1-.79-3.71c-.09-.62-.07-1.25-.11-1.88s0-1.25,0-1.87.09-1.24.16-1.86l.25-1.85-.12,1.86c0,.62,0,1.24,0,1.86s0,1.23.08,1.85.11,1.22.23,1.82a13.92,13.92,0,0,0,1,3.5,8.65,8.65,0,0,0,.86,1.55,4.65,4.65,0,0,0,1.14,1.19Z"/><path class="cls-3" d="M169.55,423.57c.54-1.62,7.56-15.94,10.81-11.62a18.23,18.23,0,0,1,3.51,8.92"/><path class="cls-3" d="M130,425.19c-.53-1.62-7.3-15.94-10.43-11.62a18.64,18.64,0,0,0-3.39,8.92"/><path class="cls-20" d="M180.72,18.43s-27.38-9.37-41.79,8.28"/><path class="cls-7" d="M180.55,18.9a55.22,55.22,0,0,0-10.93-2.32,47.6,47.6,0,0,0-11.19,0,33.14,33.14,0,0,0-10.72,3.16,27.82,27.82,0,0,0-8.78,7,28,28,0,0,1,8.66-7.17,33.68,33.68,0,0,1,10.77-3.44,48.88,48.88,0,0,1,11.34-.26A55.67,55.67,0,0,1,180.88,18Z"/></svg>