<svg id="Layer_1" data-name="Layer 1" xmlns="http://www.w3.org/2000/svg" viewBox="0 0 128 128"><defs><style>.cls-1{fill:#333;}</style></defs><path class="cls-1" d="M88.6,58.89a.33.33,0,0,1,0-.1v0c0-.2,0-.4,0-.61a9.92,9.92,0,0,0-.6-2.58A7.23,7.23,0,0,0,82.58,51c-.3-.06-.6-.1-.9-.13h-.26l-.31,0-.44,0h-.13a6,6,0,0,0-.85.13l-.19,0a6.27,6.27,0,0,0-.84.26A11.18,11.18,0,0,0,78,45.56a8,8,0,0,0-1-1.64,6.76,6.76,0,0,0-1.26-1.3,6.58,6.58,0,0,0-1.55-.93,7.58,7.58,0,0,0-1.79-.54,6.89,6.89,0,0,0-1.1-.09h-.1c-.18,0-.35,0-.52,0h-.23a8.13,8.13,0,0,0-.86.15l-.18.06a5.6,5.6,0,0,0-.66.21l-.28.12a5,5,0,0,0-.52.25l-.3.16-.48.32-.27.2a3.72,3.72,0,0,0-.48.41,2.09,2.09,0,0,0-.22.2,7.18,7.18,0,0,0-.65.7c-.21.26-.41.54-.6.82s-.36.59-.53.91a9.44,9.44,0,0,0-1.31-2.07q-.3-.35-.63-.66l-.22-.19-.45-.38-.28-.19a5,5,0,0,0-.45-.29l-.3-.17-.46-.22L60,41.3l-.5-.16c-.11,0-.21-.07-.32-.09a5.22,5.22,0,0,0-.57-.11l-.27,0a8.11,8.11,0,0,0-.86,0h0a7.69,7.69,0,0,0-.95.06,7.14,7.14,0,0,0-5.78,4.57A12.4,12.4,0,0,0,50,51.53l-.69-.3-.21-.07L48.59,51l-.22-.06c-.23,0-.46-.09-.7-.12h0a6.34,6.34,0,0,0-.76,0h-.22l-.59,0-.23,0c-.27,0-.53.08-.8.14a7.13,7.13,0,0,0-5.24,5.11,13.19,13.19,0,0,0,3.1,12,5.43,5.43,0,0,1,.78,1.18c.17.33.34.71.52,1.11,0,.08.07.16.11.25s.09.22.14.34l.11.27.14.35c0,.08.06.17.1.26l.21.55.09.26.13.36.09.27.14.38.06.2c.07.19.13.37.18.55l.06.18.12.37.06.19c0,.13.08.26.11.38l0,.09c0,.15.08.29.12.42l0,.1c0,.1.05.18.07.26a.29.29,0,0,0,0,.09c0,.1,0,.19.06.26a9.25,9.25,0,0,0,.24.93,11.34,11.34,0,0,0,1,2.2A12.15,12.15,0,0,0,49.19,82l.43.45a16,16,0,0,0,7.77,4c.67.15,1.38.28,2.12.39s1.54.19,2.38.24l1.28.05H64.9l.67,0,.61,0,.63,0,.58-.06.6-.08.55-.08.57-.11.51-.1.54-.13.47-.12.52-.14.44-.14.49-.17.4-.15.46-.19.38-.16.44-.2L74.1,85l.42-.23.31-.17.39-.24.29-.18.37-.26.25-.18.35-.27a2.11,2.11,0,0,0,.23-.19L77,83l.22-.19.3-.29.18-.18.28-.3.17-.18.26-.3.14-.18a3.65,3.65,0,0,0,.24-.31l.13-.17.21-.3.12-.17.19-.31c0-.05.07-.1.1-.16s.12-.2.17-.3l.09-.15.15-.3.08-.14c0-.1.09-.19.13-.29l.06-.13.12-.28,0-.12c0-.09.07-.18.1-.26l0-.12.09-.25,0-.1c0-.07,0-.14.07-.21l0-.1c0-.07,0-.14,0-.2a.19.19,0,0,1,0-.08.85.85,0,0,1,0-.17s0-.05,0-.08a.5.5,0,0,0,0-.16v0a1,1,0,0,0,0-.16c.25-2.2,3-6.55,4.46-8.26a13.35,13.35,0,0,0,2.93-6.16c0-.21.08-.43.11-.67,0,0,0-.1,0-.15s0-.38.07-.59a1.21,1.21,0,0,0,0-.19c0-.16,0-.32,0-.48v-1Z"/></svg>