<svg id="Layer_1" data-name="Layer 1" xmlns="http://www.w3.org/2000/svg" viewBox="0 0 512 128"><defs><style>.cls-1{opacity:0.2;}.cls-2{fill:#723600;}.cls-3{fill:#8e430c;}.cls-4{fill:#b76400;}.cls-5{fill:#a85c09;}.cls-6{fill:#9b520a;}.cls-7{fill:#4e6b00;}.cls-8{fill:#5d8e07;}.cls-9{fill:#77a004;}.cls-10{fill:#88b709;}</style></defs><path class="cls-1" d="M53.21,85.57c2.3,8.9,14.43,15.62,29.45,15.58s337.8-.37,353.46-2.77,21.58-10.58,23-19.71,3.15-22.87.43-32.3S449,33.21,433.22,31.94,103.87,29.46,86.6,30.06c-23.66.81-35.43,7.17-35.6,19.12C50.87,58.67,51.12,77.46,53.21,85.57Z"/><path class="cls-2" d="M54.24,81.62c2.27,8.61,14.27,15.12,29.1,15.08s335-.36,350.45-2.68,21.33-10.25,22.76-19.08,3.12-20.14.43-29.28-10.5-12.74-26.05-14S104.31,29.3,87.24,29.88c-23.39.79-35,6.94-35.18,18.51C51.93,57.58,52.18,73.77,54.24,81.62Z"/><path class="cls-3" d="M55.16,78.74c2.27,8.61,14.27,15.12,29.11,15.08s335-.36,350.44-2.68,21.34-10.24,22.77-19.08,3.11-20.14.42-29.28-10.5-12.74-26-14S105.24,26.42,88.16,27c-23.38.79-35,6.94-35.18,18.51C52.85,54.7,53.1,70.89,55.16,78.74Z"/><path class="cls-4" d="M56.29,80.68c0,3.35,10.95,10.92,22.87,12s348-.89,355.55-1.57,19.08-5.82,19.7-16c.93-4.89,2.16-10.84.54-11.41S58.61,66.05,56.29,67.19s-2.21,10.07,0,10.25,29.56,2,29.56,2S56.29,79.39,56.29,80.68Z"/><path class="cls-4" d="M55.47,63c1.25,2.18,398.41-2.3,401-3.4s1.65-17.88,0-20.33-35.92-2.54-35.92-2.54,28.79-.47,29.79-1.71-12.45-5.42-23.82-5.66S83.85,27.26,76.26,28,56.38,34.17,54.8,38.6,94.28,41,91.69,42.31,56.2,42,54.59,43.75,54.63,61.55,55.47,63Z"/><path class="cls-3" d="M85.13,38.12c-4.29,0-3.75-3.68.35-4.66S92.22,38.14,85.13,38.12Z"/><path class="cls-3" d="M65.76,42.31c4.86-2.19,11.32-1.54,11.71.14S62.34,43.85,65.76,42.31Z"/><path class="cls-5" d="M64.27,82.71c-1.55,2.2,5.46,8.38,14.39,9.19s270.88-.49,273-1.92,3.44-17.67,3.44-17.67,1.16,16,5,17.1S435.62,88.68,440,87c5.33-2.06,13.36-19.17,8.25-21.23s-382,2-386.81,3.42-7.55,2.68-5.11,4S239.87,78.3,239.87,78.3,66,80.28,64.27,82.71Z"/><path class="cls-4" d="M131.36,82.54c-4.88,2.95-5.28,8.42,2.24,8.81s12.44-1.67,11.25-4.42"/><path class="cls-5" d="M61.4,60.87c2.47,1,273.18.57,275.16-.19s8.24-13.87,7.95-14.82-84.92-3.42-84.18-3.23,20.87-1.33,21.44-2.47,2.26-8.36-.57-9.31-195.51-.19-202,0-14,7-11.79,8.25,61.44,1.77,61.44,1.77-64.56,3.85-66.75,6.7S57.54,59.35,61.4,60.87Z"/><path class="cls-5" d="M345.08,58.78c4.56.29,105.16-1.14,106.2-2.47s1.48-13.49-2-16.15-33.86-1.9-33.86-1.9,23-2.09,24.12-4.56-10.5-4-17-3.32S288.32,29,287.18,30.49s-1.61,11.24,4,11.12S351,42.82,351,42.82,341.64,58.57,345.08,58.78Z"/><path class="cls-6" d="M400.54,39.81c2.55-4.32,15.38-2.46,11.07,2.77S398.1,43.92,400.54,39.81Z"/><path class="cls-6" d="M236.68,39.38c2.6-6.44,14.49-1,11.49,2.22S234.4,45,236.68,39.38Z"/><path class="cls-6" d="M103.48,35.14c3.81-1,4.28,2,1.79,2.41S101.41,35.68,103.48,35.14Z"/><path class="cls-6" d="M390.92,36.3c-2.88-2-6.23.93-3.81,2.67S393.78,38.3,390.92,36.3Z"/><path class="cls-6" d="M419.91,49.05c.45-1.3,4.93.22,3.1,1.18S419.3,50.82,419.91,49.05Z"/><path class="cls-6" d="M69.62,53.08c-4.78.93-6.15,6.39,1.72,5.56S79.09,51.25,69.62,53.08Z"/><path class="cls-6" d="M110.1,83.12c-2.46,3.44-14.8,2-10.66-2.21S112.45,79.85,110.1,83.12Z"/><path class="cls-6" d="M381.62,84.62c-2.5,5.13-13.94.75-11.06-1.77S383.81,80.11,381.62,84.62Z"/><path class="cls-6" d="M413.7,86.84c-3.67.79-4.13-1.62-1.72-1.92S415.68,86.41,413.7,86.84Z"/><path class="cls-6" d="M119.36,85.92c2.77,1.59,6-.75,3.67-2.13S116.6,84.32,119.36,85.92Z"/><path class="cls-6" d="M91.46,75.76c-.43,1-4.75-.18-3-.94S92,74.35,91.46,75.76Z"/><path class="cls-6" d="M406.31,71.59c6-1.08,6.69-5.71-3.27-4.66S394.38,73.74,406.31,71.59Z"/><path class="cls-1" d="M446.67,45.92c-.74-8.87-17.35-14.49-21.59-9.66-1.81,2.05-1.24,7,1.46,7.39,1,.14,1.12-1.1,1-1.74-.16-1.13,1.45-1.51,2.41,0,1.55,2.46-5.62,5-7.33-.22-1.41-4.33.86-6.77,6.44-8.83,6.67-2.46,21,8.46,19.64,14.21"/><path class="cls-7" d="M446.91,43.83c-.74-8.87-17.34-14.5-21.59-9.67-1.8,2.05-1.24,7,1.46,7.4,1,.13,1.12-1.1,1-1.74-.16-1.13,1.44-1.51,2.41,0,1.54,2.46-5.63,5-7.33-.23-1.41-4.32.85-6.77,6.43-8.83C436,28.33,450.34,39.25,449,45"/><path class="cls-8" d="M447.71,41.88C447.35,36.6,433,27,426,32.65,430.85,29.1,444.08,35.25,447.71,41.88Z"/><path class="cls-9" d="M423.89,34.59c.53,1-3.95,2.67-4.09-.23C419.69,32.07,423.11,33.17,423.89,34.59Z"/><path class="cls-10" d="M420,35.13c.48,1.37,3.07.55,2.3-.51S419.34,33.36,420,35.13Z"/><path class="cls-8" d="M428.23,39c-.74.94.35,2.4,1.1,1.71S429,38.08,428.23,39Z"/><path class="cls-9" d="M429.07,30.91c.3,1.05-4.61.92-4-1.69C425.47,27.17,428.63,29.38,429.07,30.91Z"/><path class="cls-10" d="M425,29.94c.22,1.45,3.22,1.86,2.61.55S424.68,28.06,425,29.94Z"/><path class="cls-9" d="M438.67,32.48c.84.8,2.9-4.12.27-4.6C436.87,27.5,437.47,31.32,438.67,32.48Z"/><path class="cls-10" d="M439.62,28.12c1.23.88.32,4.52-.61,3.25S438,27,439.62,28.12Z"/><path class="cls-1" d="M449.55,47.21c5.25-1.38,3.73,4.82,1.31,5.61-1.68.55-.14-3.8-1.61-5-.72,2.2-4,1.93-4.51-.92s3-1.9,4.24-.13c.88-2.85-1.41-5.75,1.55-5.8C453.81,41,452.78,46.23,449.55,47.21Z"/><path class="cls-9" d="M449.5,45c5.25-1.38,3.73,4.82,1.31,5.61-1.68.55-.14-3.8-1.61-5-.72,2.2-4,1.93-4.51-.92s3-1.9,4.24-.13c.88-2.85-1.41-5.75,1.55-5.8C453.76,38.78,452.73,44,449.5,45Z"/><path class="cls-10" d="M452.53,48.47c.93-2-.68-3.9-1.66-2.44S450.69,52.35,452.53,48.47Z"/><path class="cls-10" d="M450.67,43.78c1.65-1.77,2.41-4.21.35-4.13S449.49,43.18,450.67,43.78Z"/><path class="cls-10" d="M447,45.59c.1-2.19-1.79-2.48-1.95-1.39S446.87,47.19,447,45.59Z"/></svg>