<svg xmlns="http://www.w3.org/2000/svg" viewBox="0 0 128 128"><defs><style>.cls-1{isolation:isolate;}.cls-2{fill:#fbdd2c;}.cls-3{fill:#f4b909;}.cls-4{fill:#cc8600;}.cls-5{fill:#fcbe22;}.cls-6{fill:#ffee73;}.cls-7{fill:#fff8cc;opacity:0.5;mix-blend-mode:screen;}.cls-8{fill:#ffef48;}</style></defs><g class="cls-1"><g id="Layer_1" data-name="Layer 1"><g id="_6" data-name="6"><path class="cls-2" d="M88,55.64A7.19,7.19,0,0,0,82.57,51a6.92,6.92,0,0,0-3.91.3A11.18,11.18,0,0,0,78,45.56a7.25,7.25,0,0,0-5.55-4.41,7.16,7.16,0,0,0-6.86,2.72,10.48,10.48,0,0,0-1.12,1.73,9.88,9.88,0,0,0-1.32-2.07,7.22,7.22,0,0,0-12.37,1.94A12.52,12.52,0,0,0,50,51.53,7.35,7.35,0,0,0,45,51a7.11,7.11,0,0,0-5.23,5.11,13.19,13.19,0,0,0,3.1,12c1.28,1.31,3.23,7.45,3.48,8.67.34,1.74,2.72,10.13,16.8,10.44C78.3,87.49,80.8,77.8,81,76.35c.25-2.2,3-6.55,4.46-8.26a13.34,13.34,0,0,0,2.92-6.16A11.4,11.4,0,0,0,88,55.64Z"/><path class="cls-3" d="M56.87,41.87c3.23-.09,4.59,1.29,5.55,2.83,1.24,2,1.31,4.32,2,4.61.55.23.59-2.25,1.92-4.34a6.35,6.35,0,0,1,6.09-2.89c8.14,1.93,4.08,10.58,4.2,11.56.06.56,1.77-1.61,4.26-1.81a5.15,5.15,0,0,1,5.43,3.36c2.77,7.36-1.71,10.72-2.91,12.08-1.55,1.76-4,5.17-4.4,8.87-.38,2.37-1.54,7.6-15.56,8.12C56,84.38,52.11,81.91,51,80.77c-4.1-3.22-4.5-11.3-7-13.7-2.9-3-4.41-6.71-3.49-9.88.72-3,1.49-4.13,3.56-5.1,4.65-1.55,6.84,2.58,7.88,2.13.44-.19-.2-1.53-.42-3.58a13.41,13.41,0,0,1,.48-5A5.37,5.37,0,0,1,56.87,41.87Zm.61-1a7.73,7.73,0,0,0-1,.06,7.17,7.17,0,0,0-5.79,4.57A12.52,12.52,0,0,0,50,51.53a7.18,7.18,0,0,0-3.23-.77A7.77,7.77,0,0,0,45,51a7.11,7.11,0,0,0-5.23,5.11,13.19,13.19,0,0,0,3.1,12c1.28,1.31,3.23,7.45,3.48,8.67.34,1.74,2.72,10.13,16.8,10.44h.76c14.46,0,16.87-9.38,17-10.81.25-2.2,3-6.55,4.46-8.26a13.34,13.34,0,0,0,2.92-6.16A11.4,11.4,0,0,0,88,55.64,7.19,7.19,0,0,0,82.57,51a7.33,7.33,0,0,0-1.46-.16,6.83,6.83,0,0,0-2.45.46A11.18,11.18,0,0,0,78,45.56a7.25,7.25,0,0,0-5.55-4.41,7.14,7.14,0,0,0-1.21-.1,7.27,7.27,0,0,0-5.65,2.82,10.48,10.48,0,0,0-1.12,1.73,9.88,9.88,0,0,0-1.32-2.07,7.22,7.22,0,0,0-5.62-2.69Z"/><path class="cls-4" d="M84.83,67.59c-1.56,1.76-4.35,4.83-4.75,8.53-.38,2.37-2.31,9.22-16.33,9.73C56.26,86,51.5,83,49.61,81.3c-3-2.71-3.49-9.11-5.62-11.4a43.91,43.91,0,0,1,2.38,6.81c.34,1.74,2.72,10.13,16.8,10.44h.76c14.46,0,16.87-9.38,17-10.81.25-2.2,3-6.55,4.46-8.26a13.34,13.34,0,0,0,2.92-6.16,12.92,12.92,0,0,0,.25-3.14A13.94,13.94,0,0,1,84.83,67.59Z"/><path class="cls-5" d="M57,44.37c-6.18.81-3.82,14.8,1.8,13.93S63.59,43.53,57,44.37Z"/><path class="cls-6" d="M57,44.83c-5.57.68-3.57,12.91,1.49,12.16S62.9,44.11,57,44.83Z"/><path class="cls-7" d="M56.84,45.84c-2.86.35-1.84,6.65.77,6.26S59.88,45.47,56.84,45.84Z"/><path class="cls-8" d="M57,44.83c-5.57.68-3.57,12.91,1.49,12.16S62.9,44.11,57,44.83Zm1.2,9.82c-4,.55-5.54-8.73-1.17-9.23C61.66,44.9,62.17,54.1,58.2,54.65Z"/><path class="cls-5" d="M71.9,44.72c-6.36-1.25-8.54,12.9-2.72,13.89S78.63,46,71.9,44.72Z"/><path class="cls-6" d="M71.74,45.05c-5.53-.94-7.12,11.35-2,12.08S77.6,46.05,71.74,45.05Z"/><path class="cls-7" d="M71.27,46.05c-3.08-.63-4.22,6.57-1.4,7.07S74.52,46.73,71.27,46.05Z"/><path class="cls-8" d="M71.74,45.05c-5.53-.94-7.12,11.35-2,12.08S77.6,46.05,71.74,45.05Zm-1.85,9.86c-3.76-.51-2.46-9.91,1.65-9.25C75.88,46.36,73.65,55.41,69.89,54.91Z"/><path class="cls-5" d="M82.07,54.52c-6.44-1.33-9.24,13-3.34,14.08S88.88,55.93,82.07,54.52Z"/><path class="cls-6" d="M81.77,54.89c-5.49-1.16-7.56,11.06-2.53,12S87.58,56.12,81.77,54.89Z"/><path class="cls-7" d="M81.43,55.73c-3.2-.61-4.59,7-1.65,7.46S84.82,56.38,81.43,55.73Z"/><path class="cls-8" d="M81.77,54.89c-5.49-1.16-7.56,11.06-2.53,12S87.58,56.12,81.77,54.89Zm-2.2,10c-3.91-.72-2.15-10.18,2.1-9.28C86.18,56.59,83.47,65.64,79.57,64.93Z"/><path class="cls-5" d="M45.93,54.31c-6.17,1.45-2.32,14.57,3.27,13.11S52.46,52.78,45.93,54.31Z"/><path class="cls-6" d="M45.93,54.81c-5.45,1.28-2,12.87,2.9,11.58S51.71,53.45,45.93,54.81Z"/><path class="cls-7" d="M45.44,56c-2.68.69-1.07,6.95,1.36,6.25S48.28,55.28,45.44,56Z"/><path class="cls-8" d="M45.93,54.81c-5.45,1.28-2,12.87,2.9,11.58S51.71,53.45,45.93,54.81Zm2.15,9.53c-3.83,1-6.47-8-2.24-9C50.31,54.31,51.91,63.34,48.08,64.34Z"/><path class="cls-5" d="M50.63,74.11c.57-3.92,3.94-4.26,6.78-6.78,1.94-1.88,2.19-7.55,6.65-7.55s3.94,5.55,6.73,8c1.73,1.83,6.92,3.71,6.06,9.18a5.91,5.91,0,0,1-7.3,4.71c-2.39-.64-3.84-2.37-5.94-2.45s-3.81,1.92-7.43,2.19C53.66,81.61,50,78.83,50.63,74.11Z"/><path class="cls-6" d="M51.58,73.72c.54-3.73,2.74-3,5.9-6.15,1.82-1.79,2.78-7.23,6.25-7.34,4.25,0,4.7,5.41,6.34,7.18s6.33,3.31,5.53,8.52a4.86,4.86,0,0,1-1.82,3,4.52,4.52,0,0,1-5.2.14,11.78,11.78,0,0,0-5.33-2c-2.08-.08-4.06,2-7.07,2.51C54.22,80,51,77.77,51.58,73.72Z"/><path class="cls-8" d="M63.93,61.07c3.1,0,3,4.84,4.33,6.78.48,1.82,2.71,2.33,4.07,3.55a3.58,3.58,0,0,1,1,3c-.58,1.62-2.7,2-4.07,1.74-2-.32-3.44-1.77-5.88-2-2.9.13-4.3,2.69-7.49,3a3,3,0,0,1-3.29-3.35,5.15,5.15,0,0,1,2.13-3.1c.94-.57,3.36-1,4.71-4.58C61,62.55,61.6,61.07,63.93,61.07Zm-.14-.84h-.06c-3.47.11-4.43,5.55-6.25,7.34-3.16,3.12-5.36,2.42-5.9,6.15s2.24,5.94,4.21,5.94a2.56,2.56,0,0,0,.39,0c3-.48,4.91-2.51,7-2.51h.12a11.78,11.78,0,0,1,5.33,2,3.77,3.77,0,0,0,2.32.76,5.5,5.5,0,0,0,2.88-.9,4.86,4.86,0,0,0,1.82-3c.8-5.21-3.91-6.78-5.53-8.52S68,60.23,63.79,60.23Z"/><path class="cls-7" d="M68.67,69.63a17.27,17.27,0,0,1-1.7-4c-.84-3.48-2.52-4.1-4.14-3.39-1.22.54-1.84,2.81-2.71,5.33-.75,2.18-2.78,2.46-4.46,3.17s-2.75,2.6-2.26,4a2.65,2.65,0,0,0,3.1,1.42c3.94-.77,4.33-3.42,8.53-2.45.14-.14,3.45,1.9,5.68,1.61.87-.11,1.91-.51,1.94-1.61C72.72,71.4,70.38,71.57,68.67,69.63Z"/></g></g></g></svg>