<?xml version="1.0" encoding="utf-8"?>
<!-- Generator: Adobe Illustrator 25.2.3, SVG Export Plug-In . SVG Version: 6.00 Build 0)  -->
<svg version="1.1" id="Layer_1" xmlns="http://www.w3.org/2000/svg" xmlns:xlink="http://www.w3.org/1999/xlink" x="0px" y="0px"
	 viewBox="0 0 770 740" style="enable-background:new 0 0 770 740;" xml:space="preserve">
<style type="text/css">
	.st0{fill:#7C5438;}
	.st1{opacity:0.5;}
	.st2{fill:#CE9F38;}
	.st3{fill:#E5AE41;}
	.st4{opacity:0.5;fill:#CE9F38;enable-background:new    ;}
	.st5{opacity:0.4;fill:#CE9F38;enable-background:new    ;}
	.st6{fill:#FFE3C7;}
	.st7{fill:url(#SVGID_1_);}
	.st8{fill:#C77B4B;}
	.st9{fill:#F0D9AA;}
	.st10{clip-path:url(#SVGID_3_);}
	.st11{fill:#26877D;}
	.st12{fill:url(#SVGID_4_);}
	.st13{fill:#C08872;}
	.st14{fill:#CD846B;}
	.st15{fill:#754E33;}
	.st16{fill:#6DC294;}
	.st17{fill:#62C19D;}
	.st18{fill:#4BACAF;}
	.st19{fill:#65C3AF;}
	.st20{fill:url(#SVGID_5_);}
	.st21{fill:#B48274;}
	.st22{fill:#C98A72;}
	.st23{fill:#7DC792;}
	.st24{fill:#2CB78B;}
	.st25{fill:url(#SVGID_6_);}
	.st26{fill:url(#SVGID_7_);}
	.st27{fill:url(#SVGID_8_);}
	.st28{fill:url(#SVGID_9_);}
	.st29{fill:url(#SVGID_10_);}
	.st30{fill-rule:evenodd;clip-rule:evenodd;fill:url(#SVGID_11_);}
	.st31{fill-rule:evenodd;clip-rule:evenodd;fill:url(#SVGID_12_);}
	.st32{fill-rule:evenodd;clip-rule:evenodd;fill:url(#SVGID_13_);}
	.st33{fill-rule:evenodd;clip-rule:evenodd;fill:url(#SVGID_14_);}
	.st34{fill-rule:evenodd;clip-rule:evenodd;fill:url(#SVGID_15_);}
	.st35{fill-rule:evenodd;clip-rule:evenodd;fill:url(#SVGID_16_);}
	.st36{fill-rule:evenodd;clip-rule:evenodd;fill:url(#SVGID_17_);}
	.st37{fill-rule:evenodd;clip-rule:evenodd;fill:url(#SVGID_18_);}
	.st38{fill-rule:evenodd;clip-rule:evenodd;fill:url(#SVGID_19_);}
	.st39{fill-rule:evenodd;clip-rule:evenodd;fill:url(#SVGID_20_);}
	.st40{fill-rule:evenodd;clip-rule:evenodd;fill:url(#SVGID_21_);}
	.st41{fill-rule:evenodd;clip-rule:evenodd;fill:url(#SVGID_22_);}
	.st42{fill-rule:evenodd;clip-rule:evenodd;fill:url(#SVGID_23_);}
	.st43{fill-rule:evenodd;clip-rule:evenodd;fill:url(#SVGID_24_);}
	.st44{fill-rule:evenodd;clip-rule:evenodd;fill:url(#SVGID_25_);}
	.st45{fill-rule:evenodd;clip-rule:evenodd;fill:url(#SVGID_26_);}
	.st46{fill-rule:evenodd;clip-rule:evenodd;fill:url(#SVGID_27_);}
	.st47{fill-rule:evenodd;clip-rule:evenodd;fill:url(#SVGID_28_);}
	.st48{fill-rule:evenodd;clip-rule:evenodd;fill:url(#SVGID_29_);}
	.st49{fill-rule:evenodd;clip-rule:evenodd;fill:url(#SVGID_30_);}
	.st50{fill-rule:evenodd;clip-rule:evenodd;fill:url(#SVGID_31_);}
	.st51{fill-rule:evenodd;clip-rule:evenodd;fill:url(#SVGID_32_);}
	.st52{fill-rule:evenodd;clip-rule:evenodd;fill:url(#SVGID_33_);}
	.st53{fill-rule:evenodd;clip-rule:evenodd;fill:url(#SVGID_34_);}
	.st54{fill:url(#SVGID_35_);}
	.st55{fill:url(#SVGID_36_);}
	.st56{fill:url(#SVGID_37_);}
	.st57{fill-rule:evenodd;clip-rule:evenodd;fill:url(#SVGID_38_);}
	.st58{fill:url(#SVGID_39_);}
	.st59{fill:#072918;}
	.st60{fill:url(#SVGID_40_);}
	.st61{fill:url(#SVGID_41_);}
	.st62{fill:url(#SVGID_42_);}
	.st63{fill:url(#SVGID_43_);}
	.st64{fill:url(#SVGID_44_);}
	.st65{fill:url(#SVGID_45_);}
	.st66{fill:url(#SVGID_46_);}
	.st67{fill:url(#SVGID_47_);}
	.st68{fill:url(#SVGID_48_);}
	.st69{fill:url(#SVGID_49_);}
	.st70{fill:url(#SVGID_50_);}
	.st71{fill:url(#SVGID_51_);}
	.st72{fill:url(#SVGID_52_);}
	.st73{fill:url(#SVGID_53_);}
	.st74{fill:url(#SVGID_54_);}
	.st75{fill:url(#SVGID_55_);}
	.st76{fill:url(#SVGID_56_);}
	.st77{fill:url(#SVGID_57_);}
	.st78{fill:url(#SVGID_58_);}
	.st79{fill:url(#SVGID_59_);}
	.st80{fill:url(#SVGID_60_);}
	.st81{fill:url(#SVGID_61_);}
	.st82{fill:url(#SVGID_62_);}
	.st83{fill:url(#SVGID_63_);}
	.st84{fill:url(#SVGID_64_);}
	.st85{fill:url(#SVGID_65_);}
	.st86{fill:url(#SVGID_66_);}
	.st87{fill:url(#SVGID_67_);}
	.st88{fill:url(#SVGID_68_);}
	.st89{fill:url(#SVGID_69_);}
	.st90{fill:url(#SVGID_70_);}
</style>
<path class="st0" d="M644.2,297.3c-9.9,0-17.9-8-17.9-17.8s8-17.9,17.8-17.9c9.9,0,17.9,8,17.9,17.8c0,0,0,0,0,0
	C662,289.3,654,297.3,644.2,297.3z M644.2,267.3c-6.7,0-12.1,5.4-12.1,12.1s5.4,12.1,12.1,12.1s12.1-5.4,12.1-12.1c0,0,0,0,0,0
	C656.2,272.8,650.8,267.4,644.2,267.3L644.2,267.3z"/>
<g class="st1">
	<path class="st2" d="M644.3,295.4c-8.9,0-16.1-7.2-16.1-16.1c0-8.9,7.2-16.1,16.1-16.1c8.9,0,16.1,7.2,16.1,16.1c0,0,0,0,0,0
		C660.5,288.2,653.2,295.4,644.3,295.4z M644.3,265.1c-7.9,0-14.2,6.4-14.2,14.2s6.4,14.2,14.2,14.2c7.9,0,14.2-6.4,14.2-14.2
		c0,0,0,0,0,0C658.5,271.4,652.2,265.1,644.3,265.1z"/>
</g>
<path class="st3" d="M637.7,265.7c-0.8-0.2-1.7-0.1-2.5,0.4l-1,0.6c-1.4,2.2-3.6,3.6-4.8,6.1c-0.6,1.3-1,2.8-1.2,4.2
	c-0.2,1.6,0.2,3.7,1.6,1.7s1.3-5.6,2.8-7.8C633.8,269.3,638,267.4,637.7,265.7z"/>
<path class="st3" d="M659.3,281.3c-1.4-0.3-2.5,5.8-3.6,7.2c-2.1,2.7-4.4,3.6-7.4,4.4l-0.6,0.2c-1.5,0-1.3,1.1,0,1.3
	c1-0.1,1.9-0.4,2.8-0.8c1.7-0.7,3.2-1.7,4.5-3C657.2,288.6,660.6,284.6,659.3,281.3z"/>
<rect x="640.6" y="296.5" class="st0" width="7.1" height="13.9"/>
<polygon class="st4" points="641.6,298.3 641.7,309.9 644.6,310.4 644.1,299.9 "/>
<path class="st0" d="M643.1,255.2c-8.8,0-15.9-7.1-15.9-15.9s7.1-15.9,15.9-15.9s15.9,7.1,15.9,15.9
	C659,248.1,651.9,255.2,643.1,255.2z M643.1,228.5c-6,0-10.8,4.8-10.8,10.8c0,6,4.8,10.8,10.8,10.8c6,0,10.8-4.8,10.8-10.8
	c0,0,0,0,0,0C653.9,233.4,649.1,228.5,643.1,228.5L643.1,228.5z"/>
<g class="st1">
	<path class="st2" d="M643.3,253.5c-7.9,0-14.4-6.4-14.4-14.4s6.4-14.4,14.4-14.4c7.9,0,14.4,6.4,14.4,14.4c0,0,0,0,0,0
		C657.6,247.1,651.2,253.5,643.3,253.5z M643.3,226.5c-7,0-12.6,5.7-12.6,12.7c0,7,5.7,12.6,12.7,12.6c7,0,12.6-5.7,12.6-12.7
		C656,232.2,650.3,226.5,643.3,226.5C643.3,226.5,643.3,226.5,643.3,226.5L643.3,226.5z"/>
</g>
<path class="st3" d="M637.4,227c-0.7-0.2-1.5-0.1-2.2,0.3l-0.8,0.5c-1.3,1.9-3.2,3.2-4.3,5.4c-0.5,1.2-0.9,2.5-1,3.8
	c-0.2,1.4,0.1,3.3,1.4,1.5s1.1-4.9,2.5-7C633.8,230.3,637.7,228.5,637.4,227z"/>
<path class="st3" d="M656.6,241c-1.3-0.3-2.2,5.1-3.2,6.4c-1.9,2.4-3.9,3.2-6.6,3.9l-0.5,0.2c-1.3,0.1-1.2,1,0,1.2
	c0.9-0.1,1.7-0.3,2.5-0.7c1.5-0.6,2.8-1.5,4-2.6C654.7,247.5,657.8,243.9,656.6,241z"/>
<path class="st0" d="M647.6,269.9c0,1.4-1.6,2.6-3.5,2.6l0,0c-2,0-3.5-1.2-3.5-2.6v-22.1c0-1.4,1.6-2.6,3.5-2.6l0,0
	c2,0,3.5,1.2,3.5,2.6V269.9z"/>
<path class="st5" d="M645.6,263.3c-0.1,1-1,1.8-2,1.8l0,0c-1,0.1-1.9-0.7-2-1.8v-15.1c0.1-1,1-1.8,2-1.8l0,0c1-0.1,1.9,0.7,2,1.8
	V263.3z"/>
<path class="st3" d="M643.5,254.6c-0.3-2.1,0.7-4,0.4-6c-0.3-0.1-0.6-0.2-0.9-0.3h-0.1c-1.3,1.3-0.2,4.4-0.3,6.1
	c0,0.9-1.1,5.4,0.5,5.3S643.6,255.4,643.5,254.6z"/>
<path class="st0" d="M643.3,212.1c-8.8,0-15.9-7.1-15.9-15.9s7.1-15.9,15.9-15.9s15.9,7.1,15.9,15.9c0,0,0,0,0,0
	C659.2,205,652.1,212.1,643.3,212.1z M643.3,185.4c-6,0-10.8,4.8-10.8,10.8s4.8,10.8,10.8,10.8c6,0,10.8-4.8,10.8-10.8c0,0,0,0,0,0
	C654.1,190.2,649.2,185.4,643.3,185.4z"/>
<g class="st1">
	<path class="st2" d="M643.5,210.4c-7.9,0-14.4-6.4-14.4-14.4s6.4-14.4,14.4-14.4c7.9,0,14.4,6.4,14.4,14.4c0,0,0,0,0,0
		C657.8,203.9,651.4,210.4,643.5,210.4z M643.5,183.4c-7,0-12.7,5.7-12.7,12.7c0,7,5.7,12.7,12.7,12.7c7,0,12.7-5.7,12.7-12.7
		c0,0,0,0,0,0C656.1,189,650.4,183.3,643.5,183.4L643.5,183.4z"/>
</g>
<path class="st3" d="M637.6,183.9c-0.7-0.2-1.5-0.1-2.2,0.3l-0.8,0.5c-1.3,2-3.2,3.2-4.3,5.4c-0.5,1.2-0.9,2.5-1,3.7
	c-0.2,1.4,0.1,3.3,1.4,1.5s1.1-4.9,2.5-7C634,187.1,637.8,185.4,637.6,183.9z"/>
<path class="st3" d="M656.8,197.8c-1.3-0.3-2.2,5.1-3.2,6.4c-1.9,2.4-3.9,3.2-6.6,3.9l-0.5,0.2c-1.3,0-1.2,1,0,1.2
	c0.9-0.1,1.7-0.3,2.5-0.7c1.5-0.6,2.8-1.5,4-2.6C654.9,204.3,657.9,200.8,656.8,197.8z"/>
<path class="st0" d="M647.6,230.2c0,1.4-1.6,2.6-3.5,2.6l0,0c-2,0-3.5-1.2-3.5-2.6v-22.1c0-1.4,1.6-2.6,3.5-2.6l0,0
	c2,0,3.5,1.2,3.5,2.6V230.2z"/>
<path class="st5" d="M645.6,223.5c-0.1,1-1,1.8-2,1.8l0,0c-1,0.1-1.9-0.7-2-1.8v-15.1c0.1-1,1-1.8,2-1.8l0,0c1-0.1,1.9,0.7,2,1.8
	V223.5z"/>
<path class="st3" d="M643.5,214.9c-0.3-2.1,0.7-4,0.4-6c-0.3-0.1-0.6-0.2-0.9-0.3h-0.1c-1.3,1.3-0.2,4.4-0.3,6.1
	c0,0.9-1.1,5.4,0.5,5.4S643.6,215.7,643.5,214.9z"/>
<path class="st0" d="M643.3,167.5c-8.8,0-15.9-7.1-15.9-15.9s7.1-15.9,15.9-15.9s15.9,7.1,15.9,15.9
	C659.2,160.4,652.1,167.5,643.3,167.5z M643.3,140.8c-6,0-10.8,4.8-10.8,10.8c0,6,4.8,10.8,10.8,10.8c6,0,10.8-4.8,10.8-10.8
	c0,0,0,0,0,0C654.1,145.6,649.2,140.8,643.3,140.8z"/>
<g class="st1">
	<path class="st2" d="M643.5,165.8c-7.9,0-14.4-6.4-14.4-14.4s6.4-14.4,14.4-14.4c7.9,0,14.4,6.4,14.4,14.4c0,0,0,0,0,0
		C657.8,159.4,651.4,165.8,643.5,165.8z M643.5,138.8c-7,0-12.7,5.7-12.7,12.7c0,7,5.7,12.7,12.7,12.7c7,0,12.7-5.7,12.7-12.7v0
		C656.1,144.5,650.5,138.8,643.5,138.8C643.5,138.8,643.5,138.8,643.5,138.8L643.5,138.8z"/>
</g>
<path class="st3" d="M637.6,139.3c-0.7-0.2-1.5,0-2.2,0.3l-0.8,0.5c-1.3,2-3.2,3.2-4.3,5.4c-0.5,1.2-0.9,2.5-1,3.8
	c-0.2,1.4,0.1,3.3,1.4,1.5s1.1-5,2.5-7C634,142.6,637.8,140.8,637.6,139.3z"/>
<path class="st3" d="M656.8,153.3c-1.3-0.3-2.2,5.1-3.2,6.4c-1.9,2.4-3.9,3.2-6.6,3.9l-0.5,0.2c-1.3,0-1.2,1,0,1.2
	c0.9-0.1,1.7-0.3,2.5-0.7c1.5-0.6,2.8-1.5,4-2.6C654.9,159.8,657.9,156.2,656.8,153.3z"/>
<path class="st0" d="M647.6,185.6c0,1.4-1.6,2.6-3.5,2.6l0,0c-2,0-3.5-1.2-3.5-2.6v-22.1c0-1.4,1.6-2.6,3.5-2.6l0,0
	c2,0,3.5,1.2,3.5,2.6V185.6z"/>
<path class="st5" d="M645.6,179c-0.1,1-1,1.8-2,1.8l0,0c-1,0.1-1.9-0.7-2-1.8v-15.1c0.1-1,1-1.8,2-1.8l0,0c1-0.1,1.9,0.7,2,1.8V179z
	"/>
<path class="st3" d="M643.5,170.3c-0.3-2.1,0.7-4,0.4-6c-0.3-0.1-0.6-0.2-0.9-0.3h-0.1c-1.3,1.3-0.2,4.4-0.3,6.1
	c0,0.9-1.1,5.4,0.5,5.4S643.6,171.1,643.5,170.3z"/>
<path class="st0" d="M643.3,122.6c-8.8,0-15.9-7.1-15.9-15.9s7.1-15.9,15.9-15.9c8.8,0,15.9,7.1,15.9,15.9
	C659.2,115.4,652.1,122.5,643.3,122.6z M643.3,95.9c-6,0-10.8,4.8-10.8,10.8c0,6,4.8,10.8,10.8,10.8c6,0,10.8-4.8,10.8-10.8v0
	C654.1,100.7,649.2,95.9,643.3,95.9z"/>
<g class="st1">
	<path class="st2" d="M643.5,120.8c-7.9,0-14.4-6.4-14.4-14.4s6.4-14.4,14.4-14.4c7.9,0,14.4,6.4,14.4,14.4l0,0
		C657.8,114.4,651.4,120.8,643.5,120.8z M643.5,93.8c-7,0-12.7,5.7-12.7,12.7c0,7,5.7,12.7,12.7,12.7c7,0,12.7-5.7,12.7-12.7
		c0,0,0,0,0,0C656.1,99.5,650.5,93.8,643.5,93.8C643.5,93.8,643.5,93.8,643.5,93.8L643.5,93.8z"/>
</g>
<path class="st3" d="M637.6,94.3c-0.7-0.2-1.5,0-2.2,0.3l-0.8,0.5c-1.3,2-3.2,3.2-4.3,5.4c-0.5,1.2-0.9,2.5-1,3.8
	c-0.2,1.4,0.1,3.3,1.4,1.5s1.1-4.9,2.5-7C634,97.6,637.8,95.8,637.6,94.3z"/>
<path class="st3" d="M656.8,108.3c-1.3-0.3-2.2,5.2-3.2,6.4c-1.9,2.4-3.9,3.2-6.6,3.9l-0.5,0.2c-1.3,0-1.2,1,0,1.2
	c0.9-0.1,1.7-0.3,2.5-0.7c1.5-0.6,2.8-1.5,4-2.6C654.9,114.8,657.9,111.3,656.8,108.3z"/>
<path class="st0" d="M647.6,140.6c0,1.4-1.6,2.6-3.5,2.6l0,0c-2,0-3.5-1.2-3.5-2.6v-22c0-1.4,1.6-2.6,3.5-2.6l0,0
	c2,0,3.5,1.2,3.5,2.6V140.6z"/>
<path class="st5" d="M645.6,134c-0.1,1-1,1.8-2,1.8l0,0c-1,0.1-1.9-0.7-2-1.8v-15.1c0.1-1,1-1.8,2-1.8l0,0c1-0.1,1.9,0.7,2,1.8V134z
	"/>
<path class="st3" d="M643.5,125.3c-0.3-2.1,0.7-4,0.4-6c-0.3-0.1-0.6-0.2-0.9-0.3h-0.1c-1.3,1.3-0.2,4.4-0.3,6.1
	c0,0.9-1.1,5.4,0.5,5.4S643.6,126.2,643.5,125.3z"/>
<path class="st0" d="M643.3,77.8c-8.8,0-15.9-7.1-15.9-15.9S634.5,46,643.3,46s15.9,7.1,15.9,15.9C659.2,70.7,652.1,77.8,643.3,77.8
	z M643.3,51.1c-6,0-10.8,4.8-10.8,10.8c0,6,4.8,10.8,10.8,10.8c6,0,10.8-4.8,10.8-10.8c0,0,0,0,0,0C654.1,56,649.2,51.1,643.3,51.1z
	"/>
<g class="st1">
	<path class="st2" d="M643.5,76.1c-7.9,0-14.4-6.4-14.4-14.4s6.4-14.4,14.4-14.4c7.9,0,14.4,6.4,14.4,14.4c0,0,0,0,0,0
		C657.8,69.7,651.4,76.1,643.5,76.1z M643.5,49.1c-7,0-12.7,5.7-12.7,12.7c0,7,5.7,12.7,12.7,12.7c7,0,12.7-5.7,12.7-12.7
		c0,0,0,0,0,0C656.1,54.8,650.5,49.1,643.5,49.1C643.5,49.1,643.5,49.1,643.5,49.1L643.5,49.1z"/>
</g>
<path class="st3" d="M637.6,49.6c-0.7-0.2-1.5,0-2.2,0.3l-0.8,0.5c-1.3,2-3.2,3.2-4.3,5.4c-0.5,1.2-0.9,2.5-1,3.8
	c-0.2,1.4,0.1,3.3,1.4,1.5s1.1-5,2.5-7C634,52.9,637.8,51.1,637.6,49.6z"/>
<path class="st3" d="M656.8,63.6c-1.3-0.3-2.2,5.2-3.2,6.4c-1.9,2.4-3.9,3.2-6.6,3.9l-0.5,0.2c-1.3,0.1-1.2,1,0,1.2
	c0.9-0.1,1.7-0.3,2.5-0.7c1.5-0.6,2.8-1.5,4-2.6C654.9,70.1,657.9,66.5,656.8,63.6z"/>
<path class="st0" d="M647.6,95.9c0,1.4-1.6,2.6-3.5,2.6l0,0c-2,0-3.5-1.2-3.5-2.6v-22c0-1.4,1.6-2.6,3.5-2.6l0,0
	c2,0,3.5,1.2,3.5,2.6V95.9z"/>
<path class="st5" d="M645.6,89.3c-0.1,1-1,1.8-2,1.8l0,0c-1,0.1-1.9-0.7-2-1.8V74.2c0.1-1,1-1.8,2-1.8l0,0c1-0.1,1.9,0.7,2,1.8V89.3
	z"/>
<path class="st3" d="M643.5,80.6c-0.3-2.1,0.7-4,0.4-6c-0.3-0.1-0.6-0.2-0.9-0.3h-0.1c-1.3,1.3-0.2,4.4-0.3,6.1
	c0,0.9-1.1,5.3,0.5,5.3S643.6,81.5,643.5,80.6z"/>
<path class="st0" d="M643.3,35.4c-8.8,0-15.9-7.1-15.9-15.9s7.1-15.9,15.9-15.9s15.9,7.1,15.9,15.9
	C659.2,28.3,652.1,35.4,643.3,35.4z M643.3,8.7c-6,0-10.8,4.8-10.8,10.8c0,6,4.8,10.8,10.8,10.8c6,0,10.8-4.8,10.8-10.8c0,0,0,0,0,0
	C654.1,13.6,649.2,8.7,643.3,8.7z"/>
<g class="st1">
	<path class="st2" d="M643.5,33.7c-7.9,0-14.4-6.4-14.4-14.4S635.5,5,643.5,5c7.9,0,14.4,6.4,14.4,14.4c0,0,0,0,0,0
		C657.8,27.3,651.4,33.7,643.5,33.7z M643.5,6.7c-7,0-12.7,5.7-12.7,12.7c0,7,5.7,12.7,12.7,12.7c7,0,12.7-5.7,12.7-12.7
		c0,0,0,0,0,0C656.1,12.4,650.5,6.7,643.5,6.7C643.5,6.7,643.5,6.7,643.5,6.7L643.5,6.7z"/>
</g>
<path class="st3" d="M637.6,7.2c-0.7-0.2-1.5-0.1-2.2,0.3L634.5,8c-1.3,2-3.2,3.2-4.3,5.4c-0.5,1.2-0.9,2.5-1,3.8
	c-0.2,1.4,0.1,3.3,1.4,1.5s1.1-4.9,2.5-7C634,10.5,637.8,8.7,637.6,7.2z"/>
<path class="st3" d="M656.8,21.2c-1.3-0.3-2.2,5.1-3.2,6.4c-1.9,2.4-3.9,3.2-6.6,3.9l-0.5,0.2c-1.3,0-1.2,1,0,1.2
	c0.9-0.1,1.7-0.3,2.5-0.7c1.5-0.6,2.8-1.5,4-2.6C654.9,27.7,657.9,24.1,656.8,21.2z"/>
<path class="st0" d="M647.6,53.5c0,1.4-1.6,2.6-3.5,2.6l0,0c-2,0-3.5-1.2-3.5-2.6V31.5c0-1.4,1.6-2.6,3.5-2.6l0,0
	c2,0,3.5,1.2,3.5,2.6V53.5z"/>
<path class="st5" d="M645.6,46.9c-0.1,1-1,1.8-2,1.8l0,0c-1,0.1-1.9-0.7-2-1.8V31.8c0.1-1,1-1.8,2-1.8l0,0c1-0.1,1.9,0.7,2,1.8V46.9
	z"/>
<path class="st3" d="M643.5,38.2c-0.3-2.1,0.7-4,0.4-6c-0.3-0.1-0.5-0.2-0.8-0.2h-0.1c-1.3,1.3-0.2,4.4-0.3,6.1
	c0,0.9-1.1,5.3,0.5,5.3S643.6,39,643.5,38.2z"/>
<path class="st0" d="M125.8,297.3c-9.9,0-17.9-8-17.9-17.8s8-17.9,17.8-17.9c9.9,0,17.9,8,17.9,17.8c0,0,0,0,0,0
	C143.7,289.3,135.7,297.3,125.8,297.3z M125.8,267.3c-6.7,0-12.1,5.5-12.1,12.2c0,6.7,5.5,12.1,12.2,12.1c6.7,0,12.1-5.4,12.1-12.1
	C138,272.8,132.6,267.4,125.8,267.3C125.9,267.4,125.9,267.4,125.8,267.3L125.8,267.3z"/>
<g class="st1">
	<path class="st2" d="M126,295.4c-8.9,0-16.1-7.2-16.1-16.1c0-8.9,7.2-16.1,16.1-16.1s16.1,7.2,16.1,16.1
		C142.1,288.2,134.9,295.4,126,295.4z M126,265.1c-7.9,0-14.2,6.4-14.2,14.2c0,7.9,6.4,14.2,14.2,14.2s14.2-6.4,14.2-14.2
		c0,0,0,0,0,0C140.2,271.4,133.8,265.1,126,265.1z"/>
</g>
<path class="st3" d="M119.4,265.7c-0.8-0.2-1.7-0.1-2.4,0.3l-1,0.6c-1.4,2.2-3.6,3.6-4.8,6.1c-0.6,1.3-1,2.7-1.2,4.2
	c-0.2,1.6,0.1,3.7,1.6,1.7s1.3-5.6,2.8-7.8C115.4,269.3,119.7,267.4,119.4,265.7z"/>
<path class="st3" d="M141,281.3c-1.4-0.3-2.5,5.8-3.6,7.2c-2.1,2.7-4.4,3.6-7.4,4.4l-0.6,0.2c-1.5,0-1.3,1.1,0,1.3
	c1-0.1,1.9-0.4,2.8-0.8c1.7-0.7,3.2-1.7,4.5-3C138.9,288.6,142.3,284.6,141,281.3z"/>
<rect x="122.3" y="296.5" class="st0" width="7.1" height="13.9"/>
<polygon class="st4" points="123.3,298.3 123.4,309.9 126.3,310.4 125.8,299.9 "/>
<path class="st0" d="M124.8,255.2c-8.8,0-15.9-7.1-15.9-15.9c0-8.8,7.1-15.9,15.9-15.9s15.9,7.1,15.9,15.9l0,0
	C140.7,248.1,133.6,255.2,124.8,255.2z M124.8,228.5c-6,0-10.8,4.8-10.8,10.8c0,6,4.8,10.8,10.8,10.8c6,0,10.8-4.8,10.8-10.8l0,0
	C135.6,233.4,130.8,228.6,124.8,228.5L124.8,228.5z"/>
<g class="st1">
	<path class="st2" d="M125,253.5c-7.9,0-14.4-6.4-14.4-14.4c0-7.9,6.4-14.4,14.4-14.4c7.9,0,14.4,6.4,14.4,14.4c0,0,0,0,0,0
		C139.4,247.1,132.9,253.5,125,253.5z M125,226.5c-7,0-12.7,5.7-12.7,12.7s5.7,12.7,12.7,12.7s12.7-5.7,12.7-12.7l0,0
		C137.7,232.2,132,226.5,125,226.5C125,226.5,125,226.5,125,226.5L125,226.5z"/>
</g>
<path class="st3" d="M119.1,227c-0.7-0.2-1.5-0.1-2.2,0.3l-0.8,0.5c-1.3,1.9-3.2,3.2-4.3,5.4c-0.5,1.2-0.9,2.5-1,3.8
	c-0.2,1.4,0.1,3.3,1.4,1.5s1.1-4.9,2.5-7C115.5,230.3,119.3,228.5,119.1,227z"/>
<path class="st3" d="M138.3,241c-1.3-0.3-2.2,5.1-3.2,6.4c-1.9,2.4-3.9,3.2-6.6,3.9l-0.5,0.2c-1.3,0.1-1.2,1,0,1.2
	c0.9-0.1,1.7-0.3,2.5-0.7c1.5-0.6,2.8-1.5,4-2.6C136.4,247.5,139.4,243.9,138.3,241z"/>
<path class="st0" d="M129.3,269.9c0,1.4-1.6,2.6-3.5,2.6l0,0c-2,0-3.5-1.2-3.5-2.6v-22.1c0-1.4,1.6-2.6,3.5-2.6l0,0
	c2,0,3.5,1.2,3.5,2.6V269.9z"/>
<path class="st5" d="M127.3,263.3c-0.1,1-1,1.8-2,1.8l0,0c-1,0.1-1.9-0.7-2-1.8v-15.1c0.1-1,1-1.8,2-1.8l0,0c1-0.1,1.9,0.7,2,1.8
	V263.3z"/>
<path class="st3" d="M125.2,254.6c-0.3-2.1,0.7-4,0.4-6c-0.3-0.1-0.6-0.2-0.9-0.3h-0.1c-1.3,1.3-0.2,4.4-0.3,6.1
	c0,0.9-1.1,5.4,0.5,5.3S125.3,255.4,125.2,254.6z"/>
<path class="st0" d="M125,212.1c-8.8,0-15.9-7.1-15.9-15.9c0-8.8,7.1-15.9,15.9-15.9s15.9,7.1,15.9,15.9c0,0,0,0,0,0
	C140.9,204.9,133.8,212.1,125,212.1z M125,185.4c-6,0-10.8,4.8-10.8,10.8c0,6,4.8,10.8,10.8,10.8c6,0,10.8-4.8,10.8-10.8
	c0,0,0,0,0,0C135.8,190.2,131,185.4,125,185.4z"/>
<g class="st1">
	<path class="st2" d="M125.1,210.4c-7.9,0-14.4-6.4-14.4-14.4c0-7.9,6.4-14.4,14.4-14.4s14.4,6.4,14.4,14.4l0,0
		C139.5,203.9,133.1,210.4,125.1,210.4z M125.1,183.4c-7,0-12.7,5.7-12.7,12.7c0,7,5.7,12.7,12.7,12.7c7,0,12.7-5.7,12.7-12.7
		c0,0,0,0,0,0C137.8,189,132.1,183.3,125.1,183.4L125.1,183.4z"/>
</g>
<path class="st3" d="M119.2,183.9c-0.7-0.2-1.5-0.1-2.2,0.3l-0.8,0.5c-1.3,2-3.2,3.2-4.3,5.4c-0.5,1.2-0.9,2.5-1,3.7
	c-0.2,1.4,0.1,3.3,1.4,1.5s1.1-4.9,2.5-7C115.7,187.1,119.5,185.4,119.2,183.9z"/>
<path class="st3" d="M138.4,197.8c-1.3-0.3-2.2,5.1-3.2,6.4c-1.9,2.4-3.9,3.2-6.6,3.9l-0.5,0.2c-1.3,0-1.2,1,0,1.2
	c0.9-0.1,1.7-0.3,2.5-0.7c1.5-0.6,2.8-1.5,4-2.6C136.6,204.3,139.6,200.8,138.4,197.8z"/>
<path class="st0" d="M129.3,230.2c0,1.4-1.6,2.6-3.5,2.6l0,0c-2,0-3.5-1.2-3.5-2.6v-22.1c0-1.4,1.6-2.6,3.5-2.6l0,0
	c2,0,3.5,1.2,3.5,2.6V230.2z"/>
<path class="st5" d="M127.3,223.5c-0.1,1-1,1.8-2,1.8l0,0c-1,0.1-1.9-0.7-2-1.8v-15.1c0.1-1,1-1.8,2-1.8l0,0c1-0.1,1.9,0.7,2,1.8
	V223.5z"/>
<path class="st3" d="M125.2,214.9c-0.3-2.1,0.7-4,0.4-6c-0.3-0.1-0.6-0.2-0.9-0.3h-0.1c-1.3,1.3-0.2,4.4-0.3,6.1
	c-0.1,0.9-1.1,5.4,0.5,5.4S125.3,215.7,125.2,214.9z"/>
<path class="st0" d="M125,167.5c-8.8,0-15.9-7.1-15.9-15.9c0-8.8,7.1-15.9,15.9-15.9c8.8,0,15.9,7.1,15.9,15.9c0,0,0,0,0,0
	C140.9,160.4,133.8,167.5,125,167.5z M125,140.8c-6,0-10.8,4.8-10.8,10.8s4.8,10.8,10.8,10.8s10.8-4.8,10.8-10.8
	C135.8,145.6,131,140.8,125,140.8z"/>
<g class="st1">
	<path class="st2" d="M125.1,165.8c-7.9,0-14.4-6.4-14.4-14.4c0-7.9,6.4-14.4,14.4-14.4s14.4,6.4,14.4,14.4l0,0
		C139.5,159.4,133.1,165.8,125.1,165.8z M125.1,138.8c-7,0-12.7,5.7-12.7,12.7c0,7,5.7,12.7,12.7,12.7c7,0,12.7-5.7,12.7-12.7
		C137.8,144.5,132.1,138.8,125.1,138.8C125.1,138.8,125.1,138.8,125.1,138.8L125.1,138.8z"/>
</g>
<path class="st3" d="M119.2,139.3c-0.7-0.2-1.5,0-2.2,0.3l-0.8,0.5c-1.3,2-3.2,3.2-4.3,5.4c-0.5,1.2-0.9,2.5-1,3.8
	c-0.2,1.4,0.1,3.3,1.4,1.5s1.1-5,2.5-7C115.7,142.6,119.5,140.8,119.2,139.3z"/>
<path class="st3" d="M138.4,153.3c-1.3-0.3-2.2,5.1-3.2,6.4c-1.9,2.4-3.9,3.2-6.6,3.9l-0.5,0.2c-1.3,0-1.2,1,0,1.2
	c0.9-0.1,1.7-0.3,2.5-0.7c1.5-0.6,2.8-1.5,4-2.6C136.6,159.8,139.6,156.2,138.4,153.3z"/>
<path class="st0" d="M129.3,185.6c0,1.4-1.6,2.6-3.5,2.6l0,0c-2,0-3.5-1.2-3.5-2.6v-22.1c0-1.4,1.6-2.6,3.5-2.6l0,0
	c2,0,3.5,1.2,3.5,2.6V185.6z"/>
<path class="st5" d="M127.3,179c-0.1,1-1,1.8-2,1.8l0,0c-1,0.1-1.9-0.7-2-1.8v-15.1c0.1-1,1-1.8,2-1.8l0,0c1-0.1,1.9,0.7,2,1.8V179z
	"/>
<path class="st3" d="M125.2,170.3c-0.3-2.1,0.7-4,0.4-6c-0.3-0.1-0.6-0.2-0.9-0.3h-0.1c-1.3,1.3-0.2,4.4-0.3,6.1
	c-0.1,0.9-1.1,5.4,0.5,5.4S125.3,171.1,125.2,170.3z"/>
<path class="st0" d="M125,122.6c-8.8,0-15.9-7.1-15.9-15.9c0-8.8,7.1-15.9,15.9-15.9c8.8,0,15.9,7.1,15.9,15.9l0,0
	C140.9,115.4,133.8,122.5,125,122.6z M125,95.9c-6,0-10.8,4.8-10.8,10.8s4.8,10.8,10.8,10.8s10.8-4.8,10.8-10.8
	C135.8,100.7,131,95.9,125,95.9z"/>
<g class="st1">
	<path class="st2" d="M125.1,120.8c-7.9,0-14.4-6.4-14.4-14.4s6.4-14.4,14.4-14.4s14.4,6.4,14.4,14.4
		C139.5,114.4,133.1,120.8,125.1,120.8z M125.1,93.8c-7,0-12.7,5.7-12.7,12.7c0,7,5.7,12.7,12.7,12.7c7,0,12.7-5.7,12.7-12.7
		C137.8,99.5,132.1,93.8,125.1,93.8C125.1,93.8,125.1,93.8,125.1,93.8L125.1,93.8z"/>
</g>
<path class="st3" d="M119.2,94.3c-0.7-0.2-1.5,0-2.2,0.3l-0.8,0.5c-1.3,2-3.2,3.2-4.3,5.4c-0.5,1.2-0.9,2.5-1,3.8
	c-0.2,1.4,0.1,3.3,1.4,1.5s1.1-4.9,2.5-7C115.7,97.6,119.5,95.8,119.2,94.3z"/>
<path class="st3" d="M138.4,108.3c-1.3-0.3-2.2,5.2-3.2,6.4c-1.9,2.4-3.9,3.2-6.6,3.9l-0.5,0.2c-1.3,0-1.2,1,0,1.2
	c0.9-0.1,1.7-0.3,2.5-0.7c1.5-0.6,2.8-1.5,4-2.6C136.6,114.8,139.6,111.3,138.4,108.3z"/>
<path class="st0" d="M129.3,140.6c0,1.4-1.6,2.6-3.5,2.6l0,0c-2,0-3.5-1.2-3.5-2.6v-22c0-1.4,1.6-2.6,3.5-2.6l0,0
	c2,0,3.5,1.2,3.5,2.6V140.6z"/>
<path class="st5" d="M127.3,134c-0.1,1-1,1.8-2,1.8l0,0c-1,0.1-1.9-0.7-2-1.8v-15.1c0.1-1,1-1.8,2-1.8l0,0c1-0.1,1.9,0.7,2,1.8V134z
	"/>
<path class="st3" d="M125.2,125.3c-0.3-2.1,0.7-4,0.4-6c-0.3-0.1-0.6-0.2-0.9-0.3h-0.1c-1.3,1.3-0.2,4.4-0.3,6.1
	c-0.1,0.9-1.1,5.4,0.5,5.4S125.3,126.2,125.2,125.3z"/>
<path class="st0" d="M125,77.8c-8.8,0-15.9-7.1-15.9-15.9c0-8.8,7.1-15.9,15.9-15.9c8.8,0,15.9,7.1,15.9,15.9v0
	C140.9,70.7,133.8,77.8,125,77.8z M125,51.1c-6,0-10.8,4.8-10.8,10.8S119,72.7,125,72.7s10.8-4.8,10.8-10.8
	C135.8,56,131,51.1,125,51.1z"/>
<g class="st1">
	<path class="st2" d="M125.1,76.1c-7.9,0-14.4-6.4-14.4-14.4s6.4-14.4,14.4-14.4c7.9,0,14.4,6.4,14.4,14.4
		C139.5,69.7,133.1,76.1,125.1,76.1z M125.1,49.1c-7,0-12.7,5.7-12.7,12.7s5.7,12.7,12.7,12.7c7,0,12.7-5.7,12.7-12.7c0,0,0,0,0,0
		C137.8,54.8,132.1,49.1,125.1,49.1L125.1,49.1z"/>
</g>
<path class="st3" d="M119.2,49.6c-0.7-0.2-1.5,0-2.2,0.3l-0.8,0.5c-1.3,2-3.2,3.2-4.3,5.4c-0.5,1.2-0.9,2.5-1,3.8
	c-0.2,1.4,0.1,3.3,1.4,1.5s1.1-5,2.5-7C115.7,52.9,119.5,51.1,119.2,49.6z"/>
<path class="st3" d="M138.4,63.6c-1.3-0.3-2.2,5.2-3.2,6.4c-1.9,2.4-3.9,3.2-6.6,3.9l-0.5,0.2c-1.3,0.1-1.2,1,0,1.2
	c0.9-0.1,1.7-0.3,2.5-0.7c1.5-0.6,2.8-1.5,4-2.6C136.6,70.1,139.6,66.5,138.4,63.6z"/>
<path class="st0" d="M129.3,95.9c0,1.4-1.6,2.6-3.5,2.6l0,0c-2,0-3.5-1.2-3.5-2.6v-22c0-1.4,1.6-2.6,3.5-2.6l0,0
	c2,0,3.5,1.2,3.5,2.6V95.9z"/>
<path class="st5" d="M127.3,89.3c-0.1,1-1,1.8-2,1.8l0,0c-1,0.1-1.9-0.7-2-1.8V74.2c0.1-1,1-1.8,2-1.8l0,0c1-0.1,1.9,0.7,2,1.8V89.3
	z"/>
<path class="st3" d="M125.2,80.6c-0.3-2.1,0.7-4,0.4-6c-0.3-0.1-0.6-0.2-0.9-0.3h-0.1c-1.3,1.3-0.2,4.4-0.3,6.1
	c-0.1,0.9-1.1,5.3,0.5,5.3S125.3,81.5,125.2,80.6z"/>
<path class="st0" d="M125,35.4c-8.8,0-15.9-7.1-15.9-15.9c0-8.8,7.1-15.9,15.9-15.9c8.8,0,15.9,7.1,15.9,15.9c0,0,0,0,0,0
	C140.9,28.3,133.8,35.4,125,35.4z M125,8.7c-6,0-10.8,4.8-10.8,10.8S119,30.3,125,30.3s10.8-4.8,10.8-10.8
	C135.8,13.6,131,8.7,125,8.7z"/>
<g class="st1">
	<path class="st2" d="M125.1,33.7c-7.9,0-14.4-6.4-14.4-14.4S117.2,5,125.1,5c7.9,0,14.4,6.4,14.4,14.4
		C139.5,27.3,133.1,33.7,125.1,33.7z M125.1,6.7c-7,0-12.7,5.7-12.7,12.7s5.7,12.7,12.7,12.7s12.7-5.7,12.7-12.7c0,0,0,0,0,0
		C137.8,12.4,132.1,6.7,125.1,6.7L125.1,6.7z"/>
</g>
<path class="st3" d="M119.2,7.2c-0.7-0.2-1.5-0.1-2.2,0.3L116.2,8c-1.3,2-3.2,3.2-4.3,5.4c-0.5,1.2-0.9,2.5-1,3.8
	c-0.2,1.4,0.1,3.3,1.4,1.5s1.1-4.9,2.5-7C115.7,10.5,119.5,8.7,119.2,7.2z"/>
<path class="st3" d="M138.4,21.2c-1.3-0.3-2.2,5.1-3.2,6.4c-1.9,2.4-3.9,3.2-6.6,3.9l-0.5,0.2c-1.3,0-1.2,1,0,1.2
	c0.9-0.1,1.7-0.3,2.5-0.7c1.5-0.6,2.8-1.5,4-2.6C136.6,27.7,139.6,24.1,138.4,21.2z"/>
<path class="st0" d="M129.3,53.5c0,1.4-1.6,2.6-3.5,2.6l0,0c-2,0-3.5-1.2-3.5-2.6V31.5c0-1.4,1.6-2.6,3.5-2.6l0,0
	c2,0,3.5,1.2,3.5,2.6V53.5z"/>
<path class="st5" d="M127.3,46.9c-0.1,1-1,1.8-2,1.8l0,0c-1,0.1-1.9-0.7-2-1.8V31.8c0.1-1,1-1.8,2-1.8l0,0c1-0.1,1.9,0.7,2,1.8V46.9
	z"/>
<path class="st3" d="M125.2,38.2c-0.3-2.1,0.7-4,0.4-6c-0.3-0.1-0.6-0.2-0.9-0.3h-0.1c-1.3,1.3-0.2,4.4-0.3,6.1
	c-0.1,0.9-1.1,5.3,0.5,5.3S125.3,39,125.2,38.2z"/>
<path class="st6" d="M229.1,280.7h311.8c125.8,0,227.8,102,227.8,227.8l0,0c0,125.8-102,227.8-227.8,227.8H229.1
	c-125.8,0-227.8-102-227.8-227.8l0,0C1.3,382.7,103.3,280.7,229.1,280.7z"/>
<linearGradient id="SVGID_1_" gradientUnits="userSpaceOnUse" x1="385" y1="-14.35" x2="385" y2="490.17" gradientTransform="matrix(1 0 0 -1 0 742)">
	<stop  offset="0" style="stop-color:#B11107"/>
	<stop  offset="0.26" style="stop-color:#C21608"/>
	<stop  offset="0.72" style="stop-color:#DA1E0A"/>
	<stop  offset="1" style="stop-color:#E3210B"/>
</linearGradient>
<path class="st7" d="M229.1,283.1h311.8c124.5,0,225.4,100.9,225.4,225.4v0c0,124.5-100.9,225.4-225.4,225.4H229.1
	C104.6,734,3.7,633.1,3.7,508.6v0C3.7,384.1,104.6,283.1,229.1,283.1z"/>
<path class="st6" d="M229.1,307.1h311.8c111.3,0,201.4,90.2,201.4,201.4l0,0c0,111.3-90.2,201.4-201.4,201.4H229.1
	c-111.3,0-201.4-90.2-201.4-201.4l0,0C27.7,397.3,117.9,307.1,229.1,307.1z"/>
<path class="st8" d="M229.1,309.5h311.8c109.9,0,199,89.1,199,199v0c0,109.9-89.1,199-199,199H229.1c-109.9,0-199-89.1-199-199v0
	C30.1,398.6,119.2,309.5,229.1,309.5z"/>
<path class="st9" d="M229.1,316.3h311.8c106,0,191.9,85.9,191.9,191.9v0c0,106-85.9,191.9-191.9,191.9H229.1
	c-106,0-191.9-85.9-191.9-191.9v0C37.3,402.2,123.2,316.3,229.1,316.3z"/>
<g>
	<defs>
		<path id="SVGID_2_" d="M229.1,316.3h311.8c106,0,191.9,85.9,191.9,191.9v0c0,106-85.9,191.9-191.9,191.9H229.1
			c-106,0-191.9-85.9-191.9-191.9v0C37.3,402.2,123.2,316.3,229.1,316.3z"/>
	</defs>
	<clipPath id="SVGID_3_">
		<use xlink:href="#SVGID_2_"  style="overflow:visible;"/>
	</clipPath>
	<g class="st10">
		<polygon class="st11" points="823.3,721.3 824.4,232.2 -52.1,232.2 -52.1,718.3 		"/>
		
			<linearGradient id="SVGID_4_" gradientUnits="userSpaceOnUse" x1="-1.3586" y1="39.3002" x2="-8.6886" y2="414.8302" gradientTransform="matrix(1 0 0 -1 0 742)">
			<stop  offset="0" style="stop-color:#8C7D62"/>
			<stop  offset="0.29" style="stop-color:#817C63"/>
			<stop  offset="0.78" style="stop-color:#727B64"/>
		</linearGradient>
		<path class="st12" d="M116.2,679.4c0.3-0.8-1.8-2.2-3.7-5.3c-1.2-2.2-2-4.7-2.4-7.2c-1.6-7.6-7.7-16.7-9.8-20.1
			c-6.4-10.8-9.5-26.8-14.5-53.6c-2.2-11.6-4.7-27.2-6.3-45.9c-0.4-26.7,2.6-46.7,8.8-58.3c6.7-12.8,12.5-26,17.5-39.6
			c0,0,36.2,2,39.2,0s11.9-11.6,10.3-36.3l0.5-5.9l-9.3,3.2c0,0-2.9,22.2-14.8,23.9c-14.2,2.4-30.4-8.3-28-23.9H93.6
			c0,0,3.2,45.5-12.4,55.1c-11.6,3.8-18.5-2.2-18-28.9l0.5-26.7H45.2c0,0,1.1,28.3,0,30s-9.3,19.2-18-16.8
			c-7.4-25.4-3.2-13.1-3.2-13.1l-10,0.3c0,0,4.5,28,19.3,45.5c9.8,16.8,10.1,45,2.7,55c-7.9,10-21.4,15.5-31.7-43.6
			c-6.9-39.1-8.7-56.9-8.7-56.9l-14.3-0.2c0,0,5.8,46.8,4.8,55c-1.3,9.3-1.9,37.8-33.1,25.8c-16.2-2.9-48.7-13.4-62.2-45
			c-5-26.8-4-37.1-4-37.1l-11.6-0.4c0,0,0.3,15.5,2.6,19.6c-7.4,0.6-14.7-1.4-20.8-5.6c-12-8.1-16.8-21.9-18.1-25.9l-9.3-0.5
			c2.1,7.2,5.3,14,9.4,20.2c9.2,13.5,22,21,31.4,22.8c1.9,0.4,9.3,1.6,9.3,2c0,0.1-0.5,0.1-0.5,0.1s2.4,40.5,39.7,59.1
			c33.3,16.1,47.9,24.4,56.3,30.9s14.3,13.4,13,35.7c-1.3,17.8-0.5,35.8,2.4,53.4c3.2,20,9.3,39.4,18.2,57.5
			c28.6,1.2,47,1.3,58.8,1.1c23.7-0.3,37.1-1.8,44.2,0.3C111.7,679.3,115.9,680.5,116.2,679.4z"/>
		<path class="st13" d="M79.1,541.5c-9.2,6.9-16.9,15.7-22.5,25.8c-25.3,45-8.1,104.1-6.1,110.5l66.8,1.6c-4.7-8.6-9-17.4-12.9-26.4
			C86.9,611.8,80.9,571.5,79.1,541.5z"/>
		<path class="st14" d="M2,456.4c0,0,12.4,59.6,22.1,59.1C14.1,521.6-4.7,505.1,2,456.4z"/>
		<path class="st15" d="M71.3,613.1c-1.3,0.4-2.6,0.5-4,0.5c-1.4,0.1-2.8-0.4-3.8-1.3c-0.5-0.5-0.8-1.1-1-1.8
			c-0.1-0.7-0.2-1.4-0.1-2.1c0.2-1.4,0.5-2.7,1.1-4c1-2.6,2.4-5,4-7.2c1.6-2.3,3.6-4.2,5.9-5.7c0.3-0.2,0.6-0.3,0.9-0.5
			c0.3-0.2,0.7-0.3,1-0.3c0.3-0.1,0.7-0.2,1.1-0.2c0.4,0,0.7,0.1,1.1,0.2c1.3,0.6,2.4,1.7,2.8,3.1c0.5,1.3,0.9,2.6,1.1,4
			c0.2,1.4,0.3,2.7,0.4,4.1c0.1,5.5-0.5,11-1.9,16.3v0.1c-1.3,2.8-2.8,5.4-4.4,8c-1.7,2.6-3.6,4.9-5.9,7c-1.2,1.1-2.5,1.9-4,2.4
			c-0.8,0.3-1.6,0.3-2.4,0.2c-0.8-0.2-1.5-0.6-2.1-1.1c-1.1-1.1-1.9-2.5-2.5-4c-0.5-1.4-1-2.9-1.3-4.4c-1.2-6-1.6-12.1-1.3-18.2
			l0.7-18.2l-0.3,18.2c-0.3,6.1,0.2,12.1,1.4,18.1c0.3,1.5,0.8,2.9,1.3,4.3c0.5,1.4,1.3,2.7,2.3,3.7c0.5,0.5,1.1,0.8,1.8,1
			c0.7,0.1,1.4,0,2.1-0.2c1.4-0.5,2.7-1.3,3.8-2.3c2.2-2.1,4.2-4.4,5.8-6.9c1.6-2.5,3.1-5.2,4.4-7.9v0.1c1.3-5.3,1.9-10.7,1.9-16.1
			c0-1.3-0.2-2.7-0.4-4c-0.2-1.3-0.5-2.6-1-3.9c-0.4-1.2-1.3-2.2-2.5-2.8c-1.3-0.3-2.6,0-3.7,0.8c-2.3,1.5-4.2,3.4-5.8,5.5
			c-1.6,2.2-3,4.5-4.1,7c-0.6,1.2-0.9,2.5-1.1,3.9c-0.1,0.7-0.1,1.3,0.1,2c0.1,0.7,0.5,1.3,0.9,1.7c1,0.9,2.4,1.3,3.7,1.3
			C68.7,613.6,70,613.5,71.3,613.1z"/>
		<path class="st16" d="M-183.9,277.5c2.9-25.7,10.4-64.5,33.2-96.1c61.5-85.6,179.4-45.8,217.1-33c93.1,31.6,153.4,107.2,183,151.2
			l14.7,14.1c-76.8,17.3-155.3,25.4-234,24.2c-68.5-1.2-136.7-9.4-203.5-24.5L-183.9,277.5z"/>
		<path class="st17" d="M-183,276.1c2.8-24.7,10.3-62,32.9-92.5c60.9-82.4,177.5-44.1,214.8-31.7c92.1,30.4,151.8,103.2,181,145.6
			l14.5,13.6c-76,16.6-153.7,24.4-231.4,23.2c-67.8-1.1-135.2-9-201.4-23.6L-183,276.1z"/>
		<path class="st18" d="M199.7,292.6c0,0,82.8-24.4,119.5,49.9c23.9,57.6,28.2,76.3-119.5,65.9C174.8,316,199.7,292.6,199.7,292.6z"
			/>
		<path class="st19" d="M249.1,333.2c-27-63.8-72.6-98.3-133.5-123.3c-78.9-26.7-143.9,31-193,56.9c-45,17.2-87.9,61.2-87.9,61.2
			c-59.5,71.6,49.8,81.6,49.8,81.6l279.5-0.5C264.3,415.1,262.3,370.3,249.1,333.2z"/>
		<path class="st14" d="M156,411.1c0,0,1.3,25.7-8,35.6c-2.8,3.5-5,3.4-8.3,3.5c0,0,9.3-3.9,11.6-17c1.4-7.6,2.2-15.3,2.4-23h2.3
			V411.1z"/>
		<path class="st14" d="M63.7,410c-0.4,4.5-0.5,20.1-0.4,23.2c0.6,13.4,1.4,28.5,8,32.5c1.5,0.9,3.3,1.2,5,0.8l2.5-0.4
			c-3.1,5-5.9,5.4-6.8,5.5c-5.5,0.3-12-9-13.5-24c-1-7.1-1.4-14.3-1.1-21.5c0.3-6,1.2-16.1,1.2-16.1L63.7,410L63.7,410z"/>
		
			<linearGradient id="SVGID_5_" gradientUnits="userSpaceOnUse" x1="245.2046" y1="83.7807" x2="236.7846" y2="515.1807" gradientTransform="matrix(1 0 0 -1 0 742)">
			<stop  offset="0" style="stop-color:#877E62"/>
			<stop  offset="0.28" style="stop-color:#7C7C63"/>
			<stop  offset="0.76" style="stop-color:#6D7A65"/>
		</linearGradient>
		<path class="st20" d="M371,631.6c0.3-1-2-2.5-3.9-6.1c-1.3-2.6-2.2-5.4-2.6-8.3c-1.7-8.7-8.3-19.2-10.5-23.1
			c-6.9-12.3-10.2-30.9-15.6-61.6c-2.4-13.3-5-31.2-6.8-52.8c-0.4-30.7,2.8-53.8,9.4-67.1c7.2-14.8,13.5-30,19-45.5
			c0,0,38.8,2.3,42.1,0s12.8-13.3,11.1-41.7l0.5-6.8l-10,3.7c0,0-3.1,25.5-15.9,27.5c-15.2,2.8-32.7-9.5-30.1-27.5h-11.1
			c0,0,3.4,52.4-13.4,63.4c-12.5,4.3-19.9-2.5-19.3-33.2l0.6-30.6h-19.9c0,0,1.1,32.6,0,34.6s-10,22.1-19.3-19.4
			c-8-29.2-3.4-15.2-3.4-15.2l-10.8,0.3c0,0,4.8,32.2,20.7,52.4c10.5,19.4,10.8,51.8,2.8,63.2c-8.5,11.5-23,17.8-34.1-50.2
			c-7.4-45-9.4-65.4-9.4-65.4L226,322c0,0,6.3,53.8,5.1,63.3c-1.4,10.7-2,43.5-35.5,29.6c-17.4-3.4-52.3-15.4-66.8-51.8
			c-5.4-30.8-4.3-42.7-4.3-42.7L112,320c0,0,0.3,17.8,2.8,22.6c-8,0.7-15.9-1.6-22.3-6.4c-12.8-9.3-18-25.1-19.4-29.8l-10-0.5
			c2.2,8.2,5.6,16,10.1,23.2c9.9,15.5,23.6,24.1,33.7,26.2c2,0.4,10,1.8,9.9,2.3c0,0.1-0.6,0.1-0.6,0.1s2.6,46.6,42.6,67.9
			c35.8,18.6,51.4,28,60.5,35.6s15.3,15.4,13.9,41.1c-1.4,20.5-0.6,41.1,2.6,61.4c3.4,22.9,10,45.1,19.6,66.2
			c30.8,1.3,50.5,1.5,63.2,1.3c25.4-0.3,39.9-2.1,47.5,0.4C366.2,631.5,370.7,632.9,371,631.6z"/>
		<path class="st21" d="M331.1,473c-10,8.1-18.2,18.2-24.1,29.6c-27.2,51.7-8.7,119.8-6.6,127.1l71.8,1.8
			c-4.7-9.1-9.4-19.2-13.8-30.3C339.5,553.9,333.1,507.5,331.1,473z"/>
		<path class="st22" d="M248.4,375.1c0,0,13.3,68.5,23.7,68C261.3,450.1,241.2,431.1,248.4,375.1z"/>
		<path class="st15" d="M322.8,555.4c-1.5,0.4-3,0.6-4.6,0.6c-1.6,0-3.1-0.6-4.2-1.7c-0.9-1.3-1.2-2.9-0.9-4.5
			c0.2-1.5,0.6-3,1.2-4.5c1.1-2.9,2.6-5.6,4.4-8.2c1.7-2.6,3.9-4.8,6.5-6.6c0.7-0.4,1.4-0.7,2.2-0.9c0.8-0.2,1.7-0.1,2.4,0.3
			c0.4,0.2,0.7,0.5,1,0.8c0.3,0.3,0.5,0.6,0.7,0.9c0.2,0.3,0.4,0.7,0.6,1l0.5,1.1c0.9,3,1.4,6.1,1.4,9.2c0,6.2-0.6,12.3-2,18.4l0,0
			l0,0c-1.4,3.2-3,6.3-4.8,9.2c-1.8,3-4,5.7-6.5,8.2c-1.3,1.2-2.8,2.2-4.5,2.7c-0.9,0.3-1.8,0.2-2.7-0.1c-0.9-0.3-1.6-0.9-2.2-1.6
			c-1.1-1.4-1.9-3-2.4-4.7c-0.5-1.6-1-3.3-1.3-5c-1.2-6.8-1.6-13.8-1.2-20.7l0.7-20.7l-0.3,20.7c-0.4,6.9,0,13.8,1.2,20.6
			c0.3,1.7,0.8,3.4,1.3,5c0.5,1.6,1.3,3.1,2.3,4.5c0.5,0.6,1.2,1.1,2,1.4c0.8,0.2,1.6,0.2,2.4,0c1.6-0.5,3-1.4,4.3-2.6
			c2.5-2.4,4.6-5.1,6.3-8.1c1.8-2.9,3.3-6,4.7-9.1v0.1c1.4-6,2.1-12.1,2.1-18.2c0-3-0.4-6.1-1.3-9l-0.4-1c-0.1-0.3-0.4-0.7-0.5-1
			c-0.2-0.3-0.4-0.6-0.7-0.9c-0.3-0.2-0.5-0.5-0.9-0.7c-0.6-0.3-1.4-0.4-2.1-0.3c-0.7,0.2-1.4,0.4-2.1,0.8c-2.5,1.7-4.7,3.9-6.4,6.4
			c-1.8,2.5-3.2,5.2-4.4,8c-0.6,1.4-1,2.9-1.3,4.4c-0.3,1.5,0,3.1,0.8,4.3c1,1.1,2.5,1.8,4,1.8C319.8,556,321.3,555.8,322.8,555.4z"
			/>
		<path class="st14" d="M314.6,321.8c-0.4,5.2-0.6,23.2-0.4,26.7c0.7,15.4,1.5,32.8,8.6,37.4c1.6,1,3.5,1.3,5.4,1l2.7-0.4
			c-3.3,5.7-6.3,6.2-7.3,6.3c-5.9,0.4-12.9-10.3-14.5-27.5c-1.1-8.2-1.5-16.5-1.2-24.8c0.3-6.9,1.3-18.5,1.3-18.5L314.6,321.8
			L314.6,321.8z"/>
		<path class="st23" d="M57.1,303.1c0,0,28.3,83,78.9,15.9c0,0,15.5,52.5,73.9,10.5c0,0,54.1,34.6,83.1-6.1c0,0,9,92.4,67.2,5.2
			c0,0,43.5,42.4,77.1-6.4c0,0-22.1,40.4,21,18c0,0,36.7,12.3,36.3-26.5c0,0,65.5-46.9-11.2-37.9c0,0-27.1-66.1-86.5,5.4
			c0,0-6.9-13.9-26.1-5.2c0,0-4.1-72.8-38.1-12.2c0,0-10.3,7.8-28.6,2c0,0-18.4-35.4-32.6,11.4c0,0-79.4-61.6-81.1-60
			s-31.3,22.9-35.7,35S57.1,303.1,57.1,303.1z"/>
		<path class="st24" d="M161.4,346.1c0,0-30-79.3-95.7,6.5c0,0-7.6-16.7-28.9-6.2c0,0-4.6-87.3-42.2-14.6c0,0-11.4,9.4-31.6,2.4
			c0,0-20.3-42.5-36.1,13.6c0,0-87.8-73.8-89.7-71.9s-34.6,27.4-39.5,41.9c-3.2,9.4-47.4,32.2-78.1,47.1c0.3,20.2,1.1,40.4,2.2,60.6
			c14.1,8,32.8,5,55.6-27.7c0,0,17.1,63,81.7,12.6c0,0,59.8,41.5,91.9-7.3c0,0,9.9,110.7,74.3,6.3c0,0,48.1,50.8,85.2-7.7
			c0,0-24.4,48.4,23.2,21.5c0,0,40.6,14.7,40.2-31.7C173.8,391.6,246.2,335.4,161.4,346.1z"/>
		
			<linearGradient id="SVGID_6_" gradientUnits="userSpaceOnUse" x1="327.54" y1="187.39" x2="854.6935" y2="187.39" gradientTransform="matrix(1 0 0 -1 0 742)">
			<stop  offset="0" style="stop-color:#43B555"/>
			<stop  offset="3.000000e-02" style="stop-color:#40B255"/>
			<stop  offset="0.27" style="stop-color:#289B52"/>
			<stop  offset="0.49" style="stop-color:#1A8E50"/>
			<stop  offset="0.68" style="stop-color:#15894F"/>
		</linearGradient>
		<path class="st25" d="M854.7,637.9c0.3-12.3-1.2-24.5-1.6-36.9c-0.4-11.8-0.1-23.6,1-35.4c0.1-1.5,0.3-3,0.4-4.5
			c0-2,0-4.1,0.1-6.2c0.3-32.8-0.9-65.6-1-98.4c0-6.7,0-13.5,0.1-20.2l-53.7,3.6c0,0,0.2-9.4-20.8,24.9
			c-24.5-14.2-58.6-12.2-67.3,26.2c-27.9-48.3-71.5-26.2-71.5,6.4c-77.9-96.6-176.1,4.2-206,90.1c-60.7,14.5-106.9,85.4-106.9,85.4
			l526-11.8C853.8,653.3,854.5,645.6,854.7,637.9z"/>
		
			<linearGradient id="SVGID_7_" gradientUnits="userSpaceOnUse" x1="601.4554" y1="66.1201" x2="592.4354" y2="528.2601" gradientTransform="matrix(1 0 0 -1 0 742)">
			<stop  offset="0" style="stop-color:#907D62"/>
			<stop  offset="0.25" style="stop-color:#877D63"/>
			<stop  offset="0.76" style="stop-color:#787C65"/>
		</linearGradient>
		<path class="st26" d="M768.6,646.8c0.4-1-2.6-2.6-5.2-6.5c-1.7-2.7-2.8-5.7-3.4-8.8c-2.2-9.3-10.9-20.5-13.8-24.7
			c-9.1-13.2-13.4-32.9-20.5-65.7c-4-18.6-7-37.4-9-56.3c-0.5-32.7,3.7-57.4,12.4-71.6c9.4-15.6,17.7-31.8,24.8-48.5
			c0,0,51,2.5,55.4,0s16.8-14.2,14.6-44.5l0.7-7.3l-13.1,3.9c0,0-4,27.2-20.8,29.3c-20,3-43-10.1-39.6-29.3h-14.6
			c0,0,4.5,55.9-17.5,67.6c-16.4,4.6-26.2-2.7-25.4-35.4l0.8-32.7h-26.2c0,0,1.5,34.8,0,36.9s-13.1,23.6-25.4-20.6
			c-10.5-31.2-4.5-16.2-4.5-16.2l-14.2,0.4c0,0,6.3,34.4,27.3,55.9c13.8,20.6,14.2,55.2,3.7,67.4c-11.2,12.2-30.3,19-44.8-53.5
			c-9.7-48-12.3-69.8-12.3-69.8l-20.2-0.2c0,0,8.2,57.4,6.7,67.5c-1.9,11.4-2.6,46.4-46.7,31.6c-22.9-3.5-68.7-16.5-87.8-55.2
			c-7.1-32.9-5.6-45.5-5.6-45.5l-16.4-0.5c0,0,0.4,19,3.7,24.1c-10.2,0.8-20.5-1.6-29.3-6.9c-16.9-10-23.7-26.8-25.6-31.8l-13.2-0.6
			c3,8.9,7.5,17.3,13.3,24.8c13,16.6,31.1,25.7,44.3,28c2.6,0.4,13.1,1.9,13,2.4c0,0.1-0.7,0.1-0.7,0.1s3.4,49.7,56,72.5
			c47,19.8,67.6,29.9,79.5,37.9s20.2,16.4,18.3,43.8c-1.9,21.9-0.7,43.9,3.4,65.5c4.7,24.8,13.4,48.6,25.8,70.6
			c40.4,1.4,66.4,1.6,83,1.4c33.4-0.3,52.4-2.2,62.4,0.4C762.2,646.6,768.1,648.1,768.6,646.8z"/>
		<path class="st13" d="M716.1,477.6c-12.7,8.2-23.5,18.9-31.7,31.6c-35.8,55.2-11.4,127.8-8.7,135.6l94.4,1.9
			c-6.6-10.4-12.7-21.2-18.2-32.3C727.2,563.8,718.7,514.4,716.1,477.6z"/>
		<path class="st14" d="M607.3,373.2c0,0,17.5,73.1,31.2,72.5C624.3,453.2,597.9,432.9,607.3,373.2z"/>
		<path class="st15" d="M705.2,565.5c-1.7,0.4-3.5,0.6-5.2,0.6c-1.8,0.1-3.5-0.2-5.2-1c-0.8-0.4-1.4-1.1-1.8-1.9
			c-0.4-0.8-0.6-1.7-0.5-2.6c0.1-1.8,0.6-3.5,1.3-5.1c2.2-4.8,5.4-9.2,9.3-12.8c1.3-1.2,2.7-2.3,4.3-3.2c1.5-1,3.3-1.5,5.1-1.6
			c0.9,0,1.8,0.3,2.6,0.8c0.2,0.1,0.4,0.2,0.6,0.4l0.5,0.5c0.3,0.3,0.6,0.6,0.8,1c2,3.1,2.5,6.7,2.7,10.2c0.2,7.1-0.6,14.1-2.6,20.9
			l0,0l0,0c-1.8,3.4-3.9,6.7-6.3,9.8c-2.3,3.1-5,5.9-8,8.4c-1.5,1.2-3.2,2.2-5.1,2.9c-1.9,0.8-4,0.7-5.8-0.1c-1.7-1-3.1-2.5-4-4.3
			c-0.9-1.7-1.6-3.5-2.2-5.4c-1-3.7-1.7-7.6-2-11.4c-0.3-3.8-0.4-7.7-0.2-11.6l0.9-23.1l-0.5,23.2c-0.2,3.8-0.1,7.7,0.2,11.5
			c0.3,3.8,1,7.6,2,11.3c0.5,1.8,1.2,3.6,2.1,5.3c0.8,1.7,2.2,3.1,3.8,4c1.7,0.7,3.7,0.7,5.4,0c1.8-0.7,3.4-1.6,4.9-2.8
			c3-2.4,5.6-5.2,7.9-8.3c2.3-3.1,4.4-6.3,6.2-9.7v0.1c2-6.7,2.9-13.7,2.7-20.7c-0.2-3.5-0.8-7-2.6-10c-0.9-1.5-2.4-2.4-4.1-2.5
			c-1.7,0.1-3.4,0.6-4.9,1.5c-1.5,0.9-2.9,1.9-4.2,3.1c-1.3,1.2-2.5,2.4-3.7,3.8c-2.3,2.7-4.3,5.7-5.8,8.9c-0.8,1.6-1.2,3.3-1.4,5
			c0,0.9,0.1,1.7,0.5,2.5c0.4,0.8,1,1.4,1.8,1.8c1.6,0.8,3.3,1.1,5.1,1.1C701.7,566,703.4,565.8,705.2,565.5z"/>
		<path class="st19" d="M347.2,284c0,0-2.4,51.6,50.3,35.7c-45.2,75.9,29.5,75.7,70.8,38.8c1.2,64.2,72.9,40.3,85.3,3
			c18.7,46.4,91.2,16.9,98.9-18.5c16.2,55.6,72.7-16.5,72.7-16.5c31.4,46.8,84.9,13.7,88.7-13.3c0,0,49.7,42.5,114.3,25.1l3.5-1.8
			l-21.3-60.2L347.2,284z"/>
		<path class="st19" d="M1088.4,312.1l-503.3,7c0,0-2.2,46.5,45.4,32.2c-40.8,68.4,26.6,68.2,63.8,34.9c1.1,57.9,65.7,36.3,76.9,2.7
			c16.8,41.8,82.2,15.2,89.2-16.6c14.6,50.1,65.6-15,65.6-15c28.3,42.2,76.6,12.4,80-12c0,0,34.5,29.5,82.5,26.1
			C1088.3,351.7,1088.3,331.9,1088.4,312.1z"/>
		
			<linearGradient id="SVGID_8_" gradientUnits="userSpaceOnUse" x1="365.72" y1="173.6843" x2="1145.5499" y2="173.6843" gradientTransform="matrix(1 0 0 -1 0 742)">
			<stop  offset="0" style="stop-color:#43B555"/>
			<stop  offset="3.000000e-02" style="stop-color:#40B255"/>
			<stop  offset="0.27" style="stop-color:#289B52"/>
			<stop  offset="0.49" style="stop-color:#1A8E50"/>
			<stop  offset="0.68" style="stop-color:#15894F"/>
		</linearGradient>
		<path class="st27" d="M1090.7,490.1c-0.6-15.7-1.1-31.5-1.4-47.3c-23.5-59.4-110.8-22.2-128.2,23.2
			c-64.7-46.6-136.6,8.5-116.5,42.4C774.2,484,706.6,543.6,731,573.7c-76.2-32.5-80.5,50.2-80.5,50.2c-87.7-18-126.5,34.3-105,56.2
			c0,0-107.9-5.3-176.9,41.3l-2.9,3.2h720.5c0.2-19.8,1.3-39.5,3-59.2c2.1-25.8,5.1-51.7,7-77.6
			C1094.1,555.2,1091.9,522.7,1090.7,490.1z"/>
		
			<linearGradient id="SVGID_9_" gradientUnits="userSpaceOnUse" x1="203.8117" y1="7.1787" x2="394.4117" y2="264.3587" gradientTransform="matrix(1 0 0 -1 0 742)">
			<stop  offset="0.17" style="stop-color:#24B174"/>
			<stop  offset="0.31" style="stop-color:#3AB575"/>
			<stop  offset="0.48" style="stop-color:#4DBA76"/>
			<stop  offset="0.6" style="stop-color:#54BB76"/>
		</linearGradient>
		<path class="st28" d="M80.9,651.3c0,0,8.7-64,72-21.3c-4.4-35.6,24-42.1,43.6-14.7c-5.5-50.8,40.4-33,49.1-17
			c0-45.2,41.5-37.7,51.3-16.5c33.8-11.5,52.4,26.4,52.4,26.4c18.5-23.7,49.1-1,48,25.3c29.5,0.8,61.1,17.8,61.1,17.8L80.9,651.3z"
			/>
		
			<linearGradient id="SVGID_10_" gradientUnits="userSpaceOnUse" x1="226.2041" y1="135.8723" x2="292.8541" y2="495.4923" gradientTransform="matrix(0.9995 3.036406e-02 3.036406e-02 -0.9995 -15.0998 795.0721)">
			<stop  offset="0" style="stop-color:#43B555"/>
			<stop  offset="3.000000e-02" style="stop-color:#40B255"/>
			<stop  offset="0.27" style="stop-color:#289B52"/>
			<stop  offset="0.49" style="stop-color:#1A8E50"/>
			<stop  offset="0.68" style="stop-color:#15894F"/>
		</linearGradient>
		<path class="st29" d="M201.3,625.7c-2.9-0.1-58.3,2-50.1-8.7s52.6-5.3,56.2-2s-50.6-17.3-52.3-33s42.1,12.2,56.9,23.3
			c-43.9-49.5-45.1-60.4,9-14.1c-33-55.8-39.8-69.3,18.1-4.1c-36.5-84.8-2.1-3.1-16.8-42.7s7.1-47.5,24.4,29.7c0,0-1.2,16.4,8.2-9.9
			c9.4-26.3,46.5-40.7,13.6,26.2c17.6-12.7,16.2-12,30.1-21.7s29.7,19.7-21,55.6C238.8,623.1,201.3,625.7,201.3,625.7z"/>
		
			<linearGradient id="SVGID_11_" gradientUnits="userSpaceOnUse" x1="2815.4905" y1="73.8128" x2="2860.4204" y2="-47.8373" gradientTransform="matrix(-1 0 0 -1 3117.3301 742)">
			<stop  offset="2.000000e-02" style="stop-color:#86D738"/>
			<stop  offset="1" style="stop-color:#4B8A40"/>
		</linearGradient>
		<path class="st30" d="M911.6,645c-16.3,3.6-52.6,5-130.8,17.7c-25.7,4.2-19.4-0.2-76.3,3.1c-2.7,0.2-8.8-0.3-11.8-0.1
			c-2.2,0.1-36.8-2.5-39.3-2.4c-1.2,0.1,25.1,3.4,23.9,3.5c-5.1,0.3-30.9-2.5-36.8-2.2c-1.6,0.1-36.7-2.3-38.3-2.2
			c-2,0.1,41.9,6.8,39.9,6.9c-14.2,0.9-15.9-2.5-34.7-1.3c-1.1,0.1-15.7,0-37.1-2.6c16,6.1,28.1,6.1,25.7,6.3
			c-5.8,0.4-7.7,0.5-13.9,0.9c0,0-142.8-2-150.9-1.5c0,0-93.8,0.2-101.3,1.5s-32-2.2-41.4,0.9s-49.4-2.7-60.7-1.3
			s-23.8,1.3-34.4,1.3s11.9-7.6,6.9-7.6s-10.6-1.3-17.5-1.3s-23.8,0.5-39.4,0.5s-27.8-3.6-31.6-2.7s-22.3,0.4-29.8,0.9
			s-45.5,2.3-52.3,2.3s-43.9,5.4-49.6,4c7.2-1.4,20.4-4.5,22.3-5.2c-5.6-1.6-74.3,0.8-106.8,7.7c-26.3,0.1-138.3,3.7-143,3.9
			c-23.9,1.2-43.5,1.5-55.8,1.9c-0.4,10.3-0.8,20.6-1,30.9c0.5,0.7,1,1.4,1.4,2.1c4.2,5.4,6.6,12,7,18.8c1.7,6.7,1.3,13.7-1.1,20.2
			l-0.5,3.1H94.9c0,0,49.6-6.1,72.8-4.7s230.8-2.7,241.4-2.1C529,752.7,922.5,657,911.6,645z"/>
		
			<linearGradient id="SVGID_12_" gradientUnits="userSpaceOnUse" x1="2815.5898" y1="151.8295" x2="2815.9597" y2="136.6895" gradientTransform="matrix(-1 0 0 -1 3117.3301 742)">
			<stop  offset="2.000000e-02" style="stop-color:#B8EB38"/>
			<stop  offset="0.47" style="stop-color:#86D738"/>
			<stop  offset="1" style="stop-color:#70BD40"/>
		</linearGradient>
		<path class="st31" d="M362.2,597.5c-0.7,0.7-1.3,1.4-1.8,2.3c-0.2,0.8-2.8-0.8-3.7,1.2s-4.4,0-7.8,1.7s-0.7,0-5.5,1.3
			s-1.6,1.5-4.8,1.3s-3.2-1.7-6.4-1s-3.2,1.7-6.4,1.7s-5.7-3.8-8.5-2.9c-2.2,0.9-4.5,1.6-6.9,2.1c-2.8,0.6-6.7,1-8,2.1
			s-4.1-0.4-7.4-0.8s-10.3-4.6-12.4-3.8s-3.4-0.2,0-1c-0.5-0.8,0.9-1.7,0.9-1.7s-12.6,1.1-16.5,1.1s-7.1-1.2-10.1-1.5
			s-5.8-1.2-7.8-0.2s-8.3,3.1-8.3,3.1s5.5-4.6,7.1-4.8s13.2-5.8,19.2-5.4s33.1-4,46-0.9c7.1,0.2,24.5,0.6,36.4,1.5
			C357,593.3,361.6,596.1,362.2,597.5z"/>
		
			<linearGradient id="SVGID_13_" gradientUnits="userSpaceOnUse" x1="2946.3999" y1="186.92" x2="2970.6299" y2="70.04" gradientTransform="matrix(-1 0 0 -1 3117.3301 742)">
			<stop  offset="2.000000e-02" style="stop-color:#78A81F"/>
			<stop  offset="0.98" style="stop-color:#386B1F"/>
		</linearGradient>
		<path class="st32" d="M360.5,599.6c0,0,2.9,4.6,4.3,7.3s10.6,5.8,13.9,9c2.9,2.8,12.2-0.1,17.6,1.9c0.8,0.3,15.5,11.1,16.2,11.3
			c5.8,2-4.8,1-4.8,1s-19.7,1.8-22.6,1.7s-6.4,1.1-9.5,1.6s-13.4-1.7-13.4-1.7s14.4,6.2-8.6,0.8c-2.2-0.5,3.1,4.4-20.5,2.3
			c-3.3,1.8-8.8,5.2-9.7,5.5c5.3-3.3-13-0.2-13.5-0.1s-8.2,0.9-8.2,0.9c-1.8,1-3.7,1.7-5.7,2.1c-3.8,0.8-7.9-1.8-12.2-1.8
			s-26.5,3.2-29.4,4.9s-34.5,16.5-36.3,17.9s-4.2,5-8.4,6.2S100.9,685,85.6,690.2c-25.3,8.5-93.1,20-98.2,19.5
			c-116.6,10.4-103.9-16.4-103.9-16.4c109-9.2,138.3-38.1,163.5-31.4c2.4-0.7,52.7-24.1,57.8-23.3c27.1,4.4,34-12.2,53.2-16.2
			c3.6-0.8,8.4-2.1,8.7-2.1c1.5-0.2,4.3-0.3,7.9-0.5c2.7-0.1,27.7-2,31.9-1.6c2.2-2.2,14.4-10.8,15.9-10.8
			c0.8-0.4,15.1,1.1,15.4,0.4s1.6-3.7,2.2-4s0.8-2.5,5.9-4s15.6-5,15.6-5l-5.8,3.9c0,0,14.3-1.8,12.4,0.5c-1.5,1.9,8.8,1.9,12.1,2.1
			s8.1-0.1,8.1-0.1s-5.5,1.5-6.6,2.4c-0.1,0.1-0.1,0.1-0.1,0.2c0.1,0.5,10-2.8,11.3-1.6s4.4-1.5,5.2-0.5s9.6-2,11-2.1
			s-3.3,6.9-2.2,7s5.5-3.1,7.6-2.1s4.7,1.3,5.9,0.8s5.8-1.1,6.6-0.4s3.8-0.7,4.5,0.1s4.2,1.6,4.2,1.6c1.4-1.2,3.2-2,5-2.2
			c1.5-0.1,3-0.1,4.5,0c0.5,0,4.8-3.3,5.5-2.3s5.5-1.2,5.5-1.2S359.3,600.8,360.5,599.6z"/>
		
			<linearGradient id="SVGID_14_" gradientUnits="userSpaceOnUse" x1="260.3048" y1="130.7516" x2="253.8348" y2="110.1616" gradientTransform="matrix(1 0 0 -1 0 742)">
			<stop  offset="2.000000e-02" style="stop-color:#85B038"/>
			<stop  offset="0.47" style="stop-color:#86C238"/>
			<stop  offset="1" style="stop-color:#70B340"/>
		</linearGradient>
		<path class="st33" d="M209.6,615.6c0,0,9.3-0.9,14.9-0.5c4.3,0.5,8.7,0.6,13.1,0.3c4.8-0.3,8.4-0.7,9.9-0.9
			c0.8-0.1,13.7,1,12.3,1.3c-2,0.5-8.8,1.8-7.2,2.1s3.9,0.5,4.8,0.8s2,0.5,0.9,0.9s-1.1,1.7,1.1,1.7s5.4,0.9,7.8,0.8
			s7.8-1.1,9.1-1.7l1.3-0.6c0,0-5.9,4-3.5,3.1s5.8-2.6,7.2-2.9s2.4,0.6,5.4,0.5s3.7-0.8,3.7-0.8c-1.3,1.3-2.6,2.6-4.1,3.7
			c-1.1,0.6,2-0.3,3.5-1.1c0.8-0.4,1.6-0.8,2.4-1.1c0,0,0.6,2.5,2.8,1.7l2.2-0.8c0,0.9-0.2,1.8-0.6,2.6c-0.6,0.8-0.4-0.5,0.6-0.8
			c0.5-0.2,1-0.4,1.5-0.6c0,0,0.6,1.1,1.5,0.8s1.3,1.1,0.6,1.5s1.1,0.5,1.1,0.9s0,0.3,1.9,0.5s3.3,0.3,4.6,0.5s-3.8,0.9-6.4,2
			s-3,0.6-5.4,1.4c-3.6,1.1-7.2,2.1-10.9,2.8c-2.4,0.3-10.9,2.7-12,2.5s5.6-3.2,1.2-2.2c-3.2,0.7-6.5,1.1-9.8,1.1
			c-2.2,0.2-8.9-0.3-10.6-0.2s-6.9,0.2-6.9,0.2s5.4-2.3,6.7-2.6s0.2-0.3-1.7-0.2s-1.9-0.2-3.9,0s-4.4-0.8-5.4-0.9s3.3-1.7,0.9-1.5
			s-1.3-0.6-4.1-0.5s-7-1.1-8.5-0.8s7.1-2.3,8.7-2.9c2.6-0.9,5.3-1.5,8-1.9c1.4-0.1,2.9-0.2,4.3-0.5c0,0-8.5-1.4-11.5-0.6
			s-14.5,0.2-17.2,0.5s-9.8,0.3-11.1,0.5s8-2.2,17.1-3.6c-1.3,0-28.2,2.3-26,1.2c3.3-0.6,5.8-1.4,9.5-2.3s11.3-0.9,12.8-0.9
			s-7-1.1-7-1.1C216,616.2,212.8,615.7,209.6,615.6z"/>
		
			<linearGradient id="SVGID_15_" gradientUnits="userSpaceOnUse" x1="2709.665" y1="121.4316" x2="2745.9302" y2="121.4316" gradientTransform="matrix(-1 0 0 -1 3117.3301 742)">
			<stop  offset="0" style="stop-color:#417C14"/>
			<stop  offset="1" style="stop-color:#6B961F"/>
		</linearGradient>
		<path class="st34" d="M394.7,615.3c0,0,1.9,6.1,7.2,7.1c1.8,0.3-2.4-3.3-5-7.8c0,1.6,1.1-0.7,1.7-0.2c15.1,14.6,6.9,9.9,6.9,9.9
			s-20.6,6.8-21.1,5.3s-12.9-18.3-12.9-18.3l8.4,1.8c0,0,6.5,10.2,6.5,9.3c1-7-3.4-8.3-3.4-8.3S392.8,615.1,394.7,615.3z"/>
		
			<linearGradient id="SVGID_16_" gradientUnits="userSpaceOnUse" x1="2752.1501" y1="124.3013" x2="2803.9502" y2="124.3013" gradientTransform="matrix(-1 0 0 -1 3117.3301 742)">
			<stop  offset="0" style="stop-color:#417C14"/>
			<stop  offset="1" style="stop-color:#6B961F"/>
		</linearGradient>
		<path class="st35" d="M332,604.7l3.2,1.7c0,0-1.3,4.8,1.1,8.4c2.1,3.3,5.1,5.9,8.7,7.6c3.8,2,5.2,2.6,8.7,4.5s11.5,3.4,11.5,3.4
			s-10.7-1.2-15.3-0.1s-9.3-0.8-13.3-0.1s-11.5,3.7-11.5,3.7s3.8-2.8,6-4.6c0.7-0.5-6.8,2-9.1,0.9c0.5-0.1,11.3-3,11.4-3.6
			c0.2-1.3,0.1-2.7-0.3-4c-0.3-1.5-0.5-3-0.5-4.5c0,0-3.6,6.2-6.2,7.8c-2.3,1.2-4.8,2.2-7.4,2.8l-5.7,2.2c0,0,8.7-5.4,10.4-7.9
			s3-2.9,3.5-5.3s2-5.1,2-7.8s-6,9.8-7,9.2s4.3-14.4,4.3-14.4c1.6-1.2,3.3-2.1,5.1-2.8c1-0.4,5,1.8,5,1.8S332,604.9,332,604.7z"/>
		
			<linearGradient id="SVGID_17_" gradientUnits="userSpaceOnUse" x1="2744.1602" y1="125.22" x2="2778.96" y2="125.22" gradientTransform="matrix(-1 0 0 -1 3117.3301 742)">
			<stop  offset="0" style="stop-color:#417C14"/>
			<stop  offset="1" style="stop-color:#6B961F"/>
		</linearGradient>
		<path class="st36" d="M347.2,601.8c0,0-2.2,1.8-1.2,3.8c1.4,2.8,3.1,5.5,5,8c1.9,2.2,3.7,3.7,8,5.8s14.2,10,14.2,10
			s-13-3.7-15.8-5.7s-9.4-9.1-11.1-11s-3.5-7.3-3.6-6.2s-1.7,2.4-0.5,3.8l18.6,21.4c0,0-15.6-12.1-18.7-17.4c-1-1.6-1.8-6.3-2.1-8.3
			c-0.2-1.1-0.7-2.2-1.6-2.9c0.8-0.6,1.7-1,2.7-1.2C342.7,601.8,347.2,601.8,347.2,601.8z"/>
		
			<linearGradient id="SVGID_18_" gradientUnits="userSpaceOnUse" x1="2732.6201" y1="128.302" x2="2766.1455" y2="128.302" gradientTransform="matrix(-1 0 0 -1 3117.3301 742)">
			<stop  offset="0" style="stop-color:#417C14"/>
			<stop  offset="1" style="stop-color:#6B961F"/>
		</linearGradient>
		<path class="st37" d="M352,599.7c0,0-1.7,0.9-0.1,3.6s1.5,7.9,2.5,8.7s20.9,16.7,20.9,16.7l9.5-0.5c0,0-22.5-13.3-24.7-15.4
			s-3.5-5.5-4.7-7.4c-0.7-0.9-1.1-1.8-1.4-2.9l14,12.4c0,0-8.3-10.4-9.6-15.3c-0.8-1.5-2.9,0.6-2.9,0.6S352.8,598.8,352,599.7z"/>
		
			<linearGradient id="SVGID_19_" gradientUnits="userSpaceOnUse" x1="2718.7947" y1="132.3167" x2="2750.49" y2="132.3167" gradientTransform="matrix(-1 0 0 -1 3117.3301 742)">
			<stop  offset="2.000000e-02" style="stop-color:#B8EB38"/>
			<stop  offset="0.47" style="stop-color:#86D738"/>
			<stop  offset="1" style="stop-color:#70BD40"/>
		</linearGradient>
		<path class="st38" d="M366.8,604.4c0,0,3.3,5.1,3.7,5.5s0.5,1.4,1.3,1.4s12.7,3.1,13.5,3.2c5.8,1,15.4,0.5,12.7-0.2
			c-0.9-0.8-17.5-5.4-18.5-5.5S368.3,603.6,366.8,604.4z"/>
		
			<linearGradient id="SVGID_20_" gradientUnits="userSpaceOnUse" x1="2795.3301" y1="106.27" x2="2882.25" y2="106.27" gradientTransform="matrix(-1 0 0 -1 3117.3301 742)">
			<stop  offset="2.000000e-02" style="stop-color:#86B80D"/>
			<stop  offset="1" style="stop-color:#4B820A"/>
		</linearGradient>
		<path class="st39" d="M315.1,624.8c0,0-1.6,0.4-3.5,0.7s-3-0.4-4.9,0.9s-4,0-4.7,0.1s-7.4,0.6-8.7,0.7s3.4-3,3.4-5.8
			c-2.8,4.5-15.3,11-18.3,11.5s-7,1.3-8.4,2.1c-1.5,0.7-3.1,1.1-4.7,1.5c0,0-3.6,1.6-6.8,3S235.1,650,235.1,650s32.1-11.1,34.3-11
			s7.9-1.7,10.4-1.7c2.8-0.2,5.6-0.5,8.4-0.9c-1.1,0.1-6.9,2.1-7.9,2.1c-0.8,0.1-1.6,0.2-2.4,0.5c0,0,8.4-1,11.5-1.3s9-2.2,11.2-2.6
			s6-0.7,7.6-1.1s13.8-6.4,13.8-6.4s-12.7,4.9-15.4,5.3s-5.2,0-7.4,0.7s-6,1.3-6,1.3s5.7-3.2,7.1-3.2s-3.8-0.7-0.6-1.2
			c1.7-0.2,3.3-0.6,4.9-1.1c1.3-0.4,5.4-2.4,6.3-2.4s5.4-2.5,3.8-0.9s-2.2,2.2-3.2,2.6s-3.3,1.3-3.3,1.3s3.8-1.2,5.8-1.8
			s1.9-1.6,3-2.4c1.5-0.7,3.1-1.3,4.7-1.7C321.7,624.1,316.7,623.7,315.1,624.8z"/>
		
			<linearGradient id="SVGID_21_" gradientUnits="userSpaceOnUse" x1="-59.2391" y1="94.797" x2="256.174" y2="94.797" gradientTransform="matrix(1 0 0 -1 0 742)">
			<stop  offset="1.000000e-02" style="stop-color:#2B6333"/>
			<stop  offset="1" style="stop-color:#5C8500"/>
		</linearGradient>
		<path class="st40" d="M226.1,642.2c0,0,6.9,3.4,17.2,2.6c-2,2.5-19.8,3.2-27.2,1.2c-1.3-0.3-13.7,1.2-15,1.3
			c-5.5,0.2-31.2,4.5-32.4,4.9c-2.3,0.8,32.6-1.6,30.8-0.6c-10.4,5.1-60,7.9-71.3,11.7s39-15.1,30.9-13.6s-56.4,10.2-57.4,10.2
			s-50.4,2.5-63.9,6.4c-1.4,0.4-2.9,0.7-4.3,0.9c-1.4,0.2,38.7-3.6,41-0.1c-10.4-0.2-47.9,2.6-50.1,2.8c-6.9,0.5-13.8,0.5-20.6,0
			l75.1,2.5c0,0-44.8,7.8-88.9,4.4c-26.4-2-51.3-4.1-49-5.5c1-0.6,18,5.5,66-7.7c1.6-0.1-15.8,5.5-14.2,5.3s25.4-1.5,26.8-1.6
			c3.2-0.3,5-1.7,8.1-2c1.3-0.1,18.5-0.3,17.5-1.7c-0.6-0.8-11.6-2.2-10.6-2.3c4.3-0.4,8.3-0.9,11.9-1.6c0.9-0.2,33.4-2.7,38.2-2.2
			c-13.7-2.4-33.6,0.6-32.7,0.3c17.6-4.7,44-9.9,45.1-10.7c0.7-0.5-33.3,4.8-48.1,10.2c-13.7-3-27.7,0.6-44.8,4.9
			c11.9-5.6,46.4-14.9,61.9-14.4c32.2-12.2,23.4-11.7,39.2-14.7c-11,4.5-37.7,13.9-30.3,12.7c7.1-1.2,13.4-0.9,17.9-1.4
			c2.6-0.4,5.3-0.6,7.9-0.6c5.5-1.4,10.8-6.5,19.7-8.2c5.7-6.5,38.6-16.7,40.1-17.1c-18.1,7.2-24.3,15-22,14.7
			c2.1-0.3,6.2-4.3,9.1-4.6c1.9-0.2,0.4,4.7,2.3,4.6c0.5-3.3,11.8-7.1,8.3-2.6c8.2-6.7,22.4-9.2,24.7-9.8c7.7-2,24.7-4.8,24.8-4
			c-8.7,2.6-9.6,4-9.6,4s0.4-0.4,1.9,0.3c0.6,0.3-10.9,6-9.8,6.3s16.2-4.9,17.6-4.6c0.6,0.1-7.8,5-7,5.1s9.8-2.4,10.8-2.3
			c3.1,0.2,5.7-1,10.6-1c5.7-0.1,12.8-0.5,21.5-1.3c4.3,0.4-28.1,5.3-24.9,6.8c4.4-0.6,4.3,3.9,23.2,3.6c0.5,0.3,0.9,0.7,1.3,1.1
			c0,0,18.6,2.4,11.1,3.1c-6.4,0.6-8.3,1.9-11.4,1.5c-4.5-0.6-6,3.8-17.3,2.7C225.6,642.1,225.9,641.1,226.1,642.2z"/>
		
			<linearGradient id="SVGID_22_" gradientUnits="userSpaceOnUse" x1="141.7846" y1="87.3363" x2="146.5846" y2="106.5263" gradientTransform="matrix(1 0 0 -1 0 742)">
			<stop  offset="1.000000e-02" style="stop-color:#4A7A00"/>
			<stop  offset="0.98" style="stop-color:#699621"/>
		</linearGradient>
		<path class="st41" d="M121.3,635.3c0,0,21.5,4.9,31.2,6.1s11.2-0.6,19-0.6s18.8,0.3,21.5,0.9s17.7,2.2,17.2,2.5s-29.1-1.2-34-0.2
			s-12.1,4.4-15.3,5.3s-10.3,1.3-14.9,3s-14.4,1.6-14.4,1.6s11.9-4.7,16.9-6.1c2-0.6,4.1-1.1,6.2-1.5c0,0-15.4-1.9-21.6-1.8
			s-11.5-1.3-14.2-0.7s-4.6,3-7.8,4.3s-11.3,4.1-11.3,4.1s-6.9-1-10.3-0.3s-13.7,3.4-13.7,3.4s11.5-5.8,16.1-6.8
			c3.2-0.7,6.4-1.1,9.6-1.3c0,0,0.2-0.9-3.6-0.9s-7.6-0.2-7.1-0.3s8.5-1.8,11.5-3.1s4.8-3.1,2.8-3.1c0,0-4-2.4-1.3-2.5
			s2.2-1.3,2.2-1.3s-3.1-2.4-0.8-2.8s18.4-0.1,18.4-0.1S118.4,634.7,121.3,635.3z"/>
		
			<linearGradient id="SVGID_23_" gradientUnits="userSpaceOnUse" x1="2730.8398" y1="108.65" x2="2730.8398" y2="32.37" gradientTransform="matrix(-1 0 0 -1 3117.3301 742)">
			<stop  offset="2.000000e-02" style="stop-color:#86D738"/>
			<stop  offset="0.92" style="stop-color:#58963E"/>
		</linearGradient>
		<path class="st42" d="M548.5,627.9c0,0-53.3-5.2-70.9-4.3s-54.8,5.2-63.5,5.2s-31.4,1.7-36.5,0.9s-67.9,2.6-84.7,3.5
			s-52.5,15.3-70.1,18.8s-51.4,4.8-63.1,10.9s-31.9,6-46.5,16.4c-8.3,5.8-16,12.4-23,19.6c0,0,53.2-15.8,88.8-10.9
			c18.2,2.5,41.6,4.3,66.5,7.8s57.7-4.3,74.5-0.9s77.4,3.5,86.2,3.5s25.7-0.6,64.4-0.6s60.9,1.1,93.2,1s95-32.5,119.1-27.2
			C683.6,663.9,644.2,629.6,548.5,627.9z"/>
		
			<linearGradient id="SVGID_24_" gradientUnits="userSpaceOnUse" x1="2741.4417" y1="63.0626" x2="2766.1816" y2="-51.1074" gradientTransform="matrix(-1 0 0 -1 3117.3301 742)">
			<stop  offset="1.000000e-02" style="stop-color:#4A7A00"/>
			<stop  offset="0.98" style="stop-color:#699621"/>
		</linearGradient>
		<path class="st43" d="M601.9,687.4c0,0-74.8,2-79.9,2s-34.7-4.8-39.8-4.1s-1.9-3-1.9-3s-12.5-2.8-18.8-1.3s-44.4,8-48.9,7.3
			s-10.1-3.8-10.1-3.8s-14.4,3.2-24.5,3.9s-25.9,8-26.5,5.7s12.5-6.5,8.1-5.7S329,689,329,689l8.8-7.5c-5.9-0.4-9.2-4.4-18.9,3.8
			c-5.9,5-10.8-3.8-17.1,3s-12.3,3.8-12.3,3.8s-9.7-2.4-7.7-2.5c-3.8,1.5-10-1.2-15.7-2s-13.6,2.9-18.7,2.9s-10.4,1.5-9.1-5
			c-6.9,3.1-21.3,1.3-21.3,1.3h-19c-4.4,0-19-9.8-22.8-6.8s-7.6,1.5-12,3c-3.3,1-6.7,1.5-10.1,1.5c0,0,6.3-7.5,12.7-7.5
			c4-0.1,7.9-1.1,11.4-3c0,0-25.3,2.3-29.8,6s-15.2,4.5-19,5.3s-17.9,0.7-17.9,0.7l-13.4,8.1c0,0-18,9.2-28.8,14.5
			s-19.2,1.3-31.2,5.8s-75.5,11.3-75.5,11.3s58.1-0.2,108.3-7c-29.1,3.8-57.2,12.5-44.9,10.6c7.2-1.1,107.7-4.1,107.7-4.1
			s-25.9,6.9-33.5,8.4c-4.6,0.9-9.1,2.4-13.3,4.5c0,0,45.6-3,54.4-3s27.9-2.3,40.5-3.8c8.2-0.9,16.5-0.6,24.7,0.8
			c0,0-12,9.8-15.2,11.3s7.6,1.5,9.5,1.5s36.1,2.3,44.3,0.8c9.6-1.6,19.4-2.3,29.1-2.3c10.1,0,53.2,8.3,63.3,6.8s17.7-9,19.6-4.5
			s-9.5,15.1-9.5,15.1l-18.2,16.7c0,0,29-12.8,35.9-15.2s26.1-6.7,38.1-9.7c2.6-0.6,5.2-0.9,7.9-1c3-0.2-18.5,13.5-23.4,16.6
			c4.3,0.1,41-11.2,45.5-10.9c8,0.5,16.6-3.9,22.5-3.9c14.5,0,46.4-3,56.5-3c8.2,0,161.1,15.4,182,7.7c5-1.8-18.8-15.4-13.4-15.1
			c13.3,0.8,86-0.7,86-0.7c-38.6-37.1-62.5-50.3-85.9-71.8C672.1,662.7,601.9,687.4,601.9,687.4z"/>
		
			<linearGradient id="SVGID_25_" gradientUnits="userSpaceOnUse" x1="2871.3301" y1="34.32" x2="2939.5701" y2="34.32" gradientTransform="matrix(-1 0 0 -1 3117.3301 742)">
			<stop  offset="1.000000e-02" style="stop-color:#336300"/>
			<stop  offset="1" style="stop-color:#5C8C00"/>
		</linearGradient>
		<path class="st44" d="M246,690.4c0,0-6.4,3.1-7.2,5.4s-11.2,15-13.1,16.9s-18.6,11.2-20.7,11.2s-27.2,6-27.2,6
			s43.1-18.1,44.4-19.4s6.7-6.1,9.1-12.4s6.4-12.4,7.2-12.4C237.4,689.9,245.5,688.8,246,690.4z"/>
		
			<linearGradient id="SVGID_26_" gradientUnits="userSpaceOnUse" x1="2880.9102" y1="33.3799" x2="2966.6802" y2="33.3799" gradientTransform="matrix(-1 0 0 -1 3117.3301 742)">
			<stop  offset="1.000000e-02" style="stop-color:#336300"/>
			<stop  offset="1" style="stop-color:#5C8C00"/>
		</linearGradient>
		<path class="st45" d="M236.4,687.6c0,0-6.7,2.4-7.8,4.7s-8.3,12.4-9.4,13.7s-7.2,4.2-11.8,6.7s-9.9,2.9-11.8,3.8
			s-45.1,16.8-45.1,16.8s53.1-26.4,55.8-27.4s6.9-12.1,5.6-11.2c4.7-2.9-3.2-5.2,6.1-8.9c3.2-1.3,5.4-1.9,5.4-1.9
			C221.9,686,227.7,687.6,236.4,687.6z"/>
		
			<linearGradient id="SVGID_27_" gradientUnits="userSpaceOnUse" x1="2901.6001" y1="37.5975" x2="3014.6602" y2="37.5975" gradientTransform="matrix(-1 0 0 -1 3117.3301 742)">
			<stop  offset="1.000000e-02" style="stop-color:#2B4F00"/>
			<stop  offset="1" style="stop-color:#599438"/>
		</linearGradient>
		<path class="st46" d="M215.7,686.8c0,0-6.4,8.3-7.4,10.2s-7.2,8.9-9.9,10.8c-4.8,2.9-10,5-15.5,6c-5.9,1-52.2,11.3-53.8,11.6
			s45.7-14.5,47.6-16.1s8.6-6.7,8.6-6.7s-13.4,6.7-17.9,7.7s-16.6,3.8-21.4,3.5s-43.3,6.1-43.3,6.1s46-14,52.2-14.3
			s11.2-3.8,18.2-6.7s16.3-10.2,16.3-12.1c0-1.2,0.1-2.3,0.3-3.5l6.4,2.5c-1.3,2.3-2.9,4.3-4.8,6.1c-2.7,2.2-8.3,7-8.3,7
			s11.5-5.1,12.6-7s2.4-7.7,3.5-6.7S214.7,687.5,215.7,686.8z"/>
		
			<linearGradient id="SVGID_28_" gradientUnits="userSpaceOnUse" x1="2931.76" y1="45.0933" x2="3095.6001" y2="45.0933" gradientTransform="matrix(-1 0 0 -1 3117.3301 742)">
			<stop  offset="1.000000e-02" style="stop-color:#2B4F00"/>
			<stop  offset="1" style="stop-color:#599438"/>
		</linearGradient>
		<path class="st47" d="M185.6,681.7c0,0-3.7,5.4-6.4,7.7s-13.6,8-18.7,10.5s-12.6,4.8-15.8,6.7s-30,8.2-36.7,10.8s-26.2-1.6-31,0
			c-26.1,3.7-55.2,0-55.2,0s89.1-39,95.4-42.5c-6.9,6.2-4.8,6.8-4,6.8s9.6-3,13.6-2.7s6,5.3,6,5.3s4.7-5.9,7.1-5.6s5.5,2.4,5.5,2.4
			s-7.3,9.9-15.1,13.1s-9.4,4.1-12.3,6.4c-2.5,1.7-5,3.2-7.8,4.5c0,0,22.5-4.8,27.3-8s8.6-8,10.4-9.2s5.6-4.5,7-4.5s4.4-4.3,7.2-4.7
			s9.7,3.7,9.7,3.7c-2.8,3.7-6,7-9.6,9.9c-5.4,4.1-10.2,5.1-14.2,8.3s-12.9,5.4-12.9,5.4s13.1-4.8,16.8-5.4s15.5-8,19-10.2
			s5.9-10.5,5.9-10.5S177.8,676.6,185.6,681.7z"/>
		
			<linearGradient id="SVGID_29_" gradientUnits="userSpaceOnUse" x1="2794.3701" y1="28.825" x2="2838.96" y2="28.825" gradientTransform="matrix(-1 0 0 -1 3117.3301 742)">
			<stop  offset="1.000000e-02" style="stop-color:#336300"/>
			<stop  offset="1" style="stop-color:#5C9600"/>
		</linearGradient>
		<path class="st48" d="M312.3,684.9c0,0,2.4,1-0.3,10.2s-5.1,17.8-10.7,24.9s-23,22.9-23,22.9s24.3-16.3,28.6-24.5
			s10.2-27.1,11.2-29c1.4-2.1,3-4.1,4.7-6C323,683.4,318,687.5,312.3,684.9z"/>
		
			<linearGradient id="SVGID_30_" gradientUnits="userSpaceOnUse" x1="2756.8901" y1="28.905" x2="2832.99" y2="28.905" gradientTransform="matrix(-1 0 0 -1 3117.3301 742)">
			<stop  offset="1.000000e-02" style="stop-color:#336300"/>
			<stop  offset="1" style="stop-color:#5C8C00"/>
		</linearGradient>
		<path class="st49" d="M327.8,680.8c0,0,0.3,3.2-3.7,12.1s-4,9.6-9.4,19.8c-12.9,9-30.4,27.8-30.4,27.8s32.3-23,36.8-32.6
			s4.5-15,7.2-15c1.5,0.1,2.9-0.5,3.9-1.5c0,0-0.4,8.2-0.4,13.6s-2.1,10.2-4.5,16.6s-7.2,14.7-13.9,19.1s-10.7,4.8-10.7,4.8
			s12.8-2.5,19.8-7.3s6.4-9.2,11.5-18.5s8-16.6,9.1-20.4s3.2-8,3.2-6.4S346,705,346,706.3s5.1-14.7,2.9-15.6
			c-1.2-0.5-2.2-1.1-3.2-1.9c2-0.1,4.1,0.3,5.9,1.3c2.7,1.6,8.8-1.6,8.8-1.6s-5.9,0.6-10.2-1.3s-6.4-2.5-10.4-1.3
			c-2.9,0.9-6,1.5-9.1,1.6c-1.3,0-0.5-2.2-0.5-2.2S330.3,681.7,327.8,680.8z"/>
		
			<linearGradient id="SVGID_31_" gradientUnits="userSpaceOnUse" x1="2649.53" y1="14.526" x2="2803.8501" y2="14.526" gradientTransform="matrix(-1 0 0 -1 3117.3301 742)">
			<stop  offset="1.000000e-02" style="stop-color:#336300"/>
			<stop  offset="1" style="stop-color:#5C8C00"/>
		</linearGradient>
		<path class="st50" d="M396.4,685.7c0,0,1.1,5.4-2.7,9.2c-2.8,2.9-11,12.4-18.4,19.6c-2.4,2.4-23.2,6.3-40.7,21.6
			c-1.7,1.4,30.4-12.5,28.6-10.8c-5.5,5-10.6,10.5-15.2,16.4c-2.9,4.1-13.6,8.3-19.5,8.6s-15-1.6-15-1.6s23.8,2.5,31.3-0.3
			s5.4-0.5,11.1-2.3s12.7-4,19.6-8.5s11.2-5.4,15.5-15.6s15-16.6,15-16.6s-12.6,33.1-19.8,38.2s-12.1,6.3-18.8,11.8
			s-14.3,7.2-16.7,9.1S329,777.2,329,777.2s46.1-12,52-14.5s24.8-10.4,29.9-11.1s6.1-5.2,17.4-19.5s4.8-19.6,12.8-26.6
			s13.1-21.3,13.1-21.3l13.6-3.1c0,0-59,5.4-36.1-2.9c-5.1-1.6-20.7,2.2-21.8,2.2s-1.2-0.9-6.8-0.3s-4.8-1.3-16.6,1.9
			s-16.6,3.2-16.6,3.2s20.9-0.3,21.9-0.3s-1.9,0.3-8.8,2.5s-17.9,3.5-17.9,3.5s5.6,2.5-0.3,4.5s-5.6,1.3-8.3,1.6l-2.7,0.3
			c0,0,6.1,2.6,12.3,0.7s2.1,11.9-20.4,21.3c19.3-3.4,44.2-26.1,46.4-26.4S396.9,690.2,396.4,685.7z"/>
		
			<linearGradient id="SVGID_32_" gradientUnits="userSpaceOnUse" x1="2564.1018" y1="85.6759" x2="2536.4016" y2="5.756" gradientTransform="matrix(-1 0 0 -1 3117.3301 742)">
			<stop  offset="1.000000e-02" style="stop-color:#336300"/>
			<stop  offset="1" style="stop-color:#4D8F00"/>
		</linearGradient>
		<path class="st51" d="M766.9,743.2c0,0-81.7-75.3-87.9-78.1c-1.2,0.7-0.1,1.6-1.2,2.1c-0.7,0.4-3.9,0-4.6,0.3
			c-1.3,0.6,9.6,8.1,8.5,8.5c-0.9,0.3-15.7-6.7-16.5-6.4c-1.9,0.6-3-1.2-4.5-0.9c-8.6,1.3-10.3-1.3-10.3-1.3s-67.7,26.8-50.7,9.7
			c-8.7,0-50.8,7.7-58.4,7.7s-11-8.7-19.2-4.1c-0.9,0.5-1.9,0.9-3,1.2c-0.6,0.2-1.2,0.3-1.8,0.4c-1.9,0.3-3.9,0.5-5.8,0.5
			c-3.2,0-16.9,41.8-39,59.3c8.5-8.8,32.4-60.3,31.3-60.1c-8.5,1.8-8.7,3.6-10.3,3.5c-0.9,0-30.4,52.5-30.9,52.6s25.7-53.1,25-53.1
			s-5.5-1.8-1.9-3.2c2.8-1.1-5.4,0.5-5.4,0.5s-4,12-9.5,20.4s-27.3,37.7-32.7,40.9s-31.8,18.5-31.8,18.5s19.6-6.9,28.9-7.8
			c13.2-1.3,31.2-2.9,41.1-2.9c16.9,0,26.7,3.3,46.3,2.6c19.6-0.7,38.7,3.3,46.9,4.5s95.9,4.5,95.9,4.5s-101.4-17.5-109-22
			s-3.4,1.7,14.1-1.5s107.5,24.5,119,22.5c5.1-0.9-75.4-42.4-68.5-43.2c0.5-0.1,73.6,38,74.2,38c7.8-0.9-57.8-39.8-55.9-39.8
			c3.8,0-18-14.5-9.2-12.5c76.6,21.4,107.3,30.1,107.3,30.1s-42.9-28.1-47.8-34S666,679.6,666,679.6L766.9,743.2z"/>
		
			<linearGradient id="SVGID_33_" gradientUnits="userSpaceOnUse" x1="2835.4302" y1="33.1149" x2="2922.3901" y2="33.1149" gradientTransform="matrix(-1 0 0 -1 3117.3301 742)">
			<stop  offset="1.000000e-02" style="stop-color:#336300"/>
			<stop  offset="1" style="stop-color:#5C9600"/>
		</linearGradient>
		<path class="st52" d="M275.5,690c-1.4,0.6-2.7,1.3-3.9,2.2c-5.3,4.8-10.3,9.8-15,15.1c-5.1,6.1-14.9,13.6-18.6,15.3
			s-43,8.2-43,8.2s39.6-9.4,41.7-10.5s8.8-6.9,11.8-9.6s6.7-7.4,6.7-8.5c0.1-1.7,0.6-3.3,1.6-4.7c1.2-1.4,2.3-5.2,2.3-5.2
			s-5.3,5.5-6.7,7.2s-5.5,5.5-6.2,6.6c-0.5,0.7-1.2,1.3-2.1,1.7c2.5-2.5,4.8-5.2,6.9-8c1.6-2.5,5.1-8,5.1-8.8V690
			c0,0-14.3-0.7,3.7-1.5c15.4-0.7,1.9-0.7,2.7-0.7c0.5,0,3-0.6,3.9-0.6c2.6-0.1,6.2-0.2,6.2-0.2s5.1,3.6,7.2,3l2.1-0.5
			C281.9,689.4,277.3,692.5,275.5,690z"/>
		
			<linearGradient id="SVGID_34_" gradientUnits="userSpaceOnUse" x1="2812.97" y1="34.96" x2="2896.02" y2="34.96" gradientTransform="matrix(-1 0 0 -1 3117.3301 742)">
			<stop  offset="1.000000e-02" style="stop-color:#336300"/>
			<stop  offset="1" style="stop-color:#5C8C00"/>
		</linearGradient>
		<path class="st53" d="M296.1,694.4c-4,4.7-5,3-11.6,11.3c-7.3,9.2-21.5,13-29.6,16.9s-33.6,4.3-33.6,4.3s25.9-4.3,31.6-6.8
			c5.7-2.4,18.6-9.7,23.5-12.5s5.3-6.8,5.7-8.7s-0.2-9.5-0.2-9.5s7.5-0.2,9.9,0.3s12.5-2.6,12.5-2.6s-6,6.4-4.4,8.8
			c1.5,2.5,2.9,5.1,4,7.8C304,703.8,296.5,697.3,296.1,694.4z"/>
		
			<linearGradient id="SVGID_35_" gradientUnits="userSpaceOnUse" x1="439.8867" y1="148.0838" x2="396.7367" y2="101.4438" gradientTransform="matrix(1 0 0 -1 0 742)">
			<stop  offset="1.000000e-02" style="stop-color:#FAF7A6"/>
			<stop  offset="1" style="stop-color:#8CD95C"/>
		</linearGradient>
		<path class="st54" d="M342.2,630.6c26.2,0.3,50.8-8.5,56.9-7s23.4,1,27,1.8s44.8,3.9,44.8,3.9s-29.9,8.4-59,0.7
			c-7.3,0.7-1.6,3.1-6.5,3.8c-12.7,1.9-11.1-0.4-29.1-3.8c0,0,22.4,7.7,31.5,7.7s39.4,3,39.4,3s-38.4,6.5-47.6,5s-18.3-1.7-24-4.2
			C368.9,638.6,355.5,637.6,342.2,630.6z"/>
		
			<linearGradient id="SVGID_36_" gradientUnits="userSpaceOnUse" x1="581.4708" y1="130.1101" x2="511.3307" y2="54.3001" gradientTransform="matrix(1 0 0 -1 0 742)">
			<stop  offset="1.000000e-02" style="stop-color:#A6E37D"/>
			<stop  offset="1" style="stop-color:#8CD95C"/>
		</linearGradient>
		<path class="st55" d="M456.9,671.3c0,0,11-3.4,8.6-0.5c12.8-0.7,7.8-2.1,15.7-2.1c4.4,0,10.6-0.9,16.4-1.5c4.7-0.5,9.2-1,12.2-0.6
			c1.7,0.2-16,6.2-12.9,6.2c2.3,0,25.2-5.9,27.8-5.9c7.6-0.1,37.1-0.9,37.1-0.9s-32.9-2.2-35.1-3.9s-40,2-44.9,1
			c-1.1-0.2,43.8-7.4,40-8.3c-5-1.1-14.9-0.1-16.3-0.1s24.5-4.9,33.8-6.3c4.5-0.7-15.2,6-10.6,6.3c1.8,0.1,8.8-1,24.1-0.5
			c9.4,0.3,28.3-3.2,44.2-1.6c2.4,0.2-51.6,7-50.2,7.6c5.3,2.1,6.3,1.3,9.1,1.9c3.7,0.7,41-0.8,41-0.8l27.7,1.3
			c0,0-58.4,9.5-68.7,8.8l-10.3-0.7c4.2,1.5,8.4,2.7,12.8,3.6c6.7,1.5,12.2,2.2,12.2,2.2s-3.5,2.8,3.4,2.1s19.7-2.1,19.7-2.1
			s-31.6,4.3-40.7,6.5s-8,0.3-11.6,1.6s-16.4,1.3-14.5,1.3s3.6-4.3,9.7-3.6s3.7-1.5,3.7-1.5s-2.4-5.1-9.1-2.9s-8.5,4.5-11.9,3.7
			s-3.7-1.9-6.4-1.5c-4.9,0.7-12,3.2-7.8,1.7s6-5.3,8.4-5.3c2.4,0,7.9-1.5,7.9-1.5s-13.4-2.9-17.6,0.7s-6.7,2.9-9.1,2.9
			s-5.4,3.1-8.8,3s-14.4-2-12.6-1.3s-0.5-1,9.8-3.9l10.3-2.9c0,0-17-0.7-21.9,1.5s-6.1-0.7-10.3-0.7s-28.8,3.6-31.2,3.6
			S464.2,667.7,456.9,671.3z"/>
		
			<linearGradient id="SVGID_37_" gradientUnits="userSpaceOnUse" x1="345.6744" y1="118.8859" x2="296.5244" y2="65.7559" gradientTransform="matrix(1 0 0 -1 0 742)">
			<stop  offset="1.000000e-02" style="stop-color:#A6E37D"/>
			<stop  offset="1" style="stop-color:#8CD95C"/>
		</linearGradient>
		<path class="st56" d="M269.6,642.6c2.2-0.3,9.7-8,20.1-6.5s12.2,0,14.6,0c4.9,0.2,9.8,0.9,14.6,2.2c4.9,1.5,8.5-3.6,12.2,0.7
			s11,4.3,14.6,6.5s17.6,5.8,17.6,5.8h-12.9c-4.5,0,40.6,15.2,29.8,12.7c-1.5-0.3-48.2-7.2-49.8-7.3c-6.1-0.3-9.4-6.5-15.2-5.4
			c-7.3,1.5-35.3,7.3-38.3,8.7s-34,9.4-36.5,10.1s14-8,25.5-10.9c11.5-2.9,18.9-10.9,29.2-11.6s18.9-2.9,20.1-2.2
			s-20.7-3.6-24.9-1.5s-9.1-0.7-12.2,0.7s-9.7,2.9-13.4,5.8s-26.1,8-26.1,8s17-9.6,21.3-10.6S264.1,643.4,269.6,642.6z"/>
		
			<linearGradient id="SVGID_38_" gradientUnits="userSpaceOnUse" x1="2598.6873" y1="-18.1505" x2="2601.3174" y2="70.9995" gradientTransform="matrix(-1 0 0 -1 3117.3301 742)">
			<stop  offset="0" style="stop-color:#458029"/>
			<stop  offset="1" style="stop-color:#1F7A4F"/>
		</linearGradient>
		<path class="st57" d="M919,722c-2.1-5-3.4-10.4-3.6-15.9c-0.1-2,0-4.1,0.2-6.1c-1.7-5.1-2.6-10.4-2.6-15.8
			c0-11.1,0.5-22.3,1.2-33.3c-32.2,8.8-111.6,29.5-141.8,27.5c-2.7-0.7-12-1.7-22-0.5c-3.7-0.2-9.9,3-14.2,3.5
			c-5.2,0.7-6,0.8-12.2,1.8c-38,6-92,16.8-141.2,29.2c-292.1,30.5-140.2,4.7-160.7,6.1c-99.2,7-133.5,19.2-152.5,22.9
			c1.2-0.9,26.6-12.5,57.9-16.9c-24.8-2.2-155.8,17.7-161,19.7c-24.9,1.7-34.9,1-50.2,4.4c3.2,5.1,128.8-11.5,138.9-13.7
			c2.8,2-63.5,11.4-74.6,14.6c-6.2,3.3,0,3.6,0,3.6h735.2c0.8-1.6,1.6-3.2,2.3-4.8c0.6-1.2,1.2-2.3,1.7-3.5
			c-0.2-5.5-0.5-11-0.7-16.5C919.2,726.1,919.1,724,919,722z"/>
		
			<linearGradient id="SVGID_39_" gradientUnits="userSpaceOnUse" x1="413.5526" y1="400.9725" x2="497.0626" y2="400.9725" gradientTransform="matrix(1 0 0 -1 0 742)">
			<stop  offset="0" style="stop-color:#056100"/>
			<stop  offset="1" style="stop-color:#29C200"/>
		</linearGradient>
		<path class="st58" d="M470,290.5l-6.4-0.1l0,0.2l-0.9-0.2c-3.2-0.1-6.5-0.2-9.7-0.3l-4.4-0.1c-4.5,1-8.4,3.6-9.4,9.3
			c-2.1,11.5,12.5,8.4,19.5,6.3c-2.6,6.7-5.5,13.3-8.5,19.5c-5.7-1.7-23.9-6-25.4,6.6c-1.1,8.9,12.8,7,19,5.7
			c-2.8,4.9-5.5,9.5-8.2,13.8c-4.5-0.7-18.8-2.3-21.5,4.4c-2.8,6.9,9.5,8.1,12.9,8.4c-6.4,9.1-10.9,14.5-10.9,14.5s4.6,17.5,11,13.2
			c5.8-3.9,0.5-21.1-0.6-24.6c3.6-4.3,8-9.6,12.5-15.9c0.7,5.3,3.2,17.8,10.2,16.5c8.5-1.6,0.1-21.1-2.8-27.2
			c3.2-4.9,6.4-10.2,9.4-15.7c1,5.7,4.6,21.5,11.3,14s-2-22.2-4.9-26.7C465.2,304.9,467.9,297.8,470,290.5z"/>
		<path class="st59" d="M1082.8,355c-0.5-14.3-1.3-28.5-2.1-42.8c-0.5-0.2-1-0.4-1.6-0.5c0.5-0.9,0.9-1.8,1.4-2.7
			c-0.4-8.5-0.8-17.1-1.1-25.6c-0.6-19.7,0-39.4,1.7-59c-2.3-6.1-5.4-10.2-9.6-10c-15.7,0.5-5.7,86.6-4.3,97.8
			c-26.8,50.2-57.6,95.2-92.6,128.5c3.1-17.6,8.5-56.8-3.2-66.9c-13.9-12.1-21.5,75.2-22.5,88.7c-27.3,20.3-56.8,33.3-88.8,36.7
			c29.6-71.4,2.9-108.6-27.7,0.4c-31.5-2.5-59.8-18.4-85.1-43.1c37.6-34.3,27.2-95.5-23.7-26.7c-20.6-26.4-38.9-58.3-55-92.9
			c41.1-10.4,40.7-78.6-17.4-40.2c-14.9-37.4-27.8-75.5-38.8-114.2c43.1,4.7,48.1-66.5-12.3-45.3c-5.8-22.8-11.2-45.3-15.8-66.7
			c-2.9,0.1-5.7,0.2-8.6,0.3c2.6,12.1,5.4,24.5,8.4,37.2c-4.9,19.5-19.8,83.9-7.6,90.6c9.8,5.4,16.7-22.4,20.1-40.8
			c10.4,39.8,23.4,82.2,36.5,118c-3.3,19.7-14,88.8-1.2,91.7c10.8,2.5,15.7-31,17.5-49.7c16.8,40.5,34.7,74.9,53.6,103.2
			c-0.6,20.9-1.6,91.2,11.3,86.6c11-4,11.1-38.8,10.4-57.3c27.9,33.7,57.6,54.7,88.7,62.4c5.1,21.6,18.9,74.7,29.1,59.3
			c8.7-13.2,2.3-40.3-2.5-56c32.1,0.7,63.1-7.9,93-25.7c38,68.2,56.6,21.9,26.5-18.4c34.7-27.7,67.6-68.3,98.9-121.8
			c10,5.9,18.2,8.2,24.7,8.1C1082.9,357.1,1082.8,356,1082.8,355z"/>
	</g>
</g>
<radialGradient id="SVGID_40_" cx="456.94" cy="446.87" r="8.37" gradientTransform="matrix(1 0 0 -1 0 742)" gradientUnits="userSpaceOnUse">
	<stop  offset="0" style="stop-color:#FFFFFF"/>
	<stop  offset="0.13" style="stop-color:#FFFFFB"/>
	<stop  offset="0.26" style="stop-color:#FFFFEE"/>
	<stop  offset="0.39" style="stop-color:#FFFFDA"/>
	<stop  offset="0.53" style="stop-color:#FFFFBD"/>
	<stop  offset="0.66" style="stop-color:#FFFF98"/>
	<stop  offset="0.7" style="stop-color:#FFFF8C"/>
	<stop  offset="1" style="stop-color:#FFC728"/>
</radialGradient>
<circle class="st60" cx="456.9" cy="295.1" r="8.4"/>
<radialGradient id="SVGID_41_" cx="389.6" cy="446.87" r="8.37" gradientTransform="matrix(1 0 0 -1 0 742)" gradientUnits="userSpaceOnUse">
	<stop  offset="0" style="stop-color:#FFFFFF"/>
	<stop  offset="0.13" style="stop-color:#FFFFFB"/>
	<stop  offset="0.26" style="stop-color:#FFFFEE"/>
	<stop  offset="0.39" style="stop-color:#FFFFDA"/>
	<stop  offset="0.53" style="stop-color:#FFFFBD"/>
	<stop  offset="0.66" style="stop-color:#FFFF98"/>
	<stop  offset="0.7" style="stop-color:#FFFF8C"/>
	<stop  offset="1" style="stop-color:#FFC728"/>
</radialGradient>
<circle class="st61" cx="389.6" cy="295.1" r="8.4"/>
<radialGradient id="SVGID_42_" cx="322.25" cy="446.87" r="8.37" gradientTransform="matrix(1 0 0 -1 0 742)" gradientUnits="userSpaceOnUse">
	<stop  offset="0" style="stop-color:#FFFFFF"/>
	<stop  offset="0.13" style="stop-color:#FFFFFB"/>
	<stop  offset="0.26" style="stop-color:#FFFFEE"/>
	<stop  offset="0.39" style="stop-color:#FFFFDA"/>
	<stop  offset="0.53" style="stop-color:#FFFFBD"/>
	<stop  offset="0.66" style="stop-color:#FFFF98"/>
	<stop  offset="0.7" style="stop-color:#FFFF8C"/>
	<stop  offset="1" style="stop-color:#FFC728"/>
</radialGradient>
<circle class="st62" cx="322.3" cy="295.1" r="8.4"/>
<radialGradient id="SVGID_43_" cx="254.9" cy="446.87" r="8.37" gradientTransform="matrix(1 0 0 -1 0 742)" gradientUnits="userSpaceOnUse">
	<stop  offset="0" style="stop-color:#FFFFFF"/>
	<stop  offset="0.13" style="stop-color:#FFFFFB"/>
	<stop  offset="0.26" style="stop-color:#FFFFEE"/>
	<stop  offset="0.39" style="stop-color:#FFFFDA"/>
	<stop  offset="0.53" style="stop-color:#FFFFBD"/>
	<stop  offset="0.66" style="stop-color:#FFFF98"/>
	<stop  offset="0.7" style="stop-color:#FFFF8C"/>
	<stop  offset="1" style="stop-color:#FFC728"/>
</radialGradient>
<circle class="st63" cx="254.9" cy="295.1" r="8.4"/>
<radialGradient id="SVGID_44_" cx="187.56" cy="446.87" r="8.37" gradientTransform="matrix(1 0 0 -1 0 742)" gradientUnits="userSpaceOnUse">
	<stop  offset="0" style="stop-color:#FFFFFF"/>
	<stop  offset="0.13" style="stop-color:#FFFFFB"/>
	<stop  offset="0.26" style="stop-color:#FFFFEE"/>
	<stop  offset="0.39" style="stop-color:#FFFFDA"/>
	<stop  offset="0.53" style="stop-color:#FFFFBD"/>
	<stop  offset="0.66" style="stop-color:#FFFF98"/>
	<stop  offset="0.7" style="stop-color:#FFFF8C"/>
	<stop  offset="1" style="stop-color:#FFC728"/>
</radialGradient>
<circle class="st64" cx="187.6" cy="295.1" r="8.4"/>
<radialGradient id="SVGID_45_" cx="125.21" cy="421.87" r="8.37" gradientTransform="matrix(1 0 0 -1 0 742)" gradientUnits="userSpaceOnUse">
	<stop  offset="0" style="stop-color:#FFFFFF"/>
	<stop  offset="0.13" style="stop-color:#FFFFFB"/>
	<stop  offset="0.26" style="stop-color:#FFFFEE"/>
	<stop  offset="0.39" style="stop-color:#FFFFDA"/>
	<stop  offset="0.53" style="stop-color:#FFFFBD"/>
	<stop  offset="0.66" style="stop-color:#FFFF98"/>
	<stop  offset="0.7" style="stop-color:#FFFF8C"/>
	<stop  offset="1" style="stop-color:#FFC728"/>
</radialGradient>
<circle class="st65" cx="125.2" cy="320.1" r="8.4"/>
<radialGradient id="SVGID_46_" cx="79.6909" cy="386.396" r="8.37" gradientTransform="matrix(1 0 0 -1 -4.422469e-03 741.9938)" gradientUnits="userSpaceOnUse">
	<stop  offset="0" style="stop-color:#FFFFFF"/>
	<stop  offset="0.13" style="stop-color:#FFFFFB"/>
	<stop  offset="0.26" style="stop-color:#FFFFEE"/>
	<stop  offset="0.39" style="stop-color:#FFFFDA"/>
	<stop  offset="0.53" style="stop-color:#FFFFBD"/>
	<stop  offset="0.66" style="stop-color:#FFFF98"/>
	<stop  offset="0.7" style="stop-color:#FFFF8C"/>
	<stop  offset="1" style="stop-color:#FFC728"/>
</radialGradient>
<circle class="st66" cx="79.7" cy="355.6" r="8.4"/>
<radialGradient id="SVGID_47_" cx="42.69" cy="339.0536" r="8.3682" gradientTransform="matrix(1 0 0 -1 -2.026072e-02 741.9869)" gradientUnits="userSpaceOnUse">
	<stop  offset="0" style="stop-color:#FFFFFF"/>
	<stop  offset="0.13" style="stop-color:#FFFFFB"/>
	<stop  offset="0.26" style="stop-color:#FFFFEE"/>
	<stop  offset="0.39" style="stop-color:#FFFFDA"/>
	<stop  offset="0.53" style="stop-color:#FFFFBD"/>
	<stop  offset="0.66" style="stop-color:#FFFF98"/>
	<stop  offset="0.7" style="stop-color:#FFFF8C"/>
	<stop  offset="1" style="stop-color:#FFC728"/>
</radialGradient>
<circle class="st67" cx="42.7" cy="402.9" r="8.4"/>
<radialGradient id="SVGID_48_" cx="18.69" cy="271.71" r="8.37" gradientTransform="matrix(1 0 0 -1 0 742)" gradientUnits="userSpaceOnUse">
	<stop  offset="0" style="stop-color:#FFFFFF"/>
	<stop  offset="0.13" style="stop-color:#FFFFFB"/>
	<stop  offset="0.26" style="stop-color:#FFFFEE"/>
	<stop  offset="0.39" style="stop-color:#FFFFDA"/>
	<stop  offset="0.53" style="stop-color:#FFFFBD"/>
	<stop  offset="0.66" style="stop-color:#FFFF98"/>
	<stop  offset="0.7" style="stop-color:#FFFF8C"/>
	<stop  offset="1" style="stop-color:#FFC728"/>
</radialGradient>
<circle class="st68" cx="18.7" cy="470.3" r="8.4"/>
<radialGradient id="SVGID_49_" cx="16.6877" cy="205.3625" r="8.37" gradientTransform="matrix(1 0 0 -1 5.669232e-03 742.0027)" gradientUnits="userSpaceOnUse">
	<stop  offset="0" style="stop-color:#FFFFFF"/>
	<stop  offset="0.13" style="stop-color:#FFFFFB"/>
	<stop  offset="0.26" style="stop-color:#FFFFEE"/>
	<stop  offset="0.39" style="stop-color:#FFFFDA"/>
	<stop  offset="0.53" style="stop-color:#FFFFBD"/>
	<stop  offset="0.66" style="stop-color:#FFFF98"/>
	<stop  offset="0.7" style="stop-color:#FFFF8C"/>
	<stop  offset="1" style="stop-color:#FFC728"/>
</radialGradient>
<circle class="st69" cx="16.7" cy="536.6" r="8.4"/>
<radialGradient id="SVGID_50_" cx="34.69" cy="147.01" r="8.37" gradientTransform="matrix(1 0 0 -1 0 742)" gradientUnits="userSpaceOnUse">
	<stop  offset="0" style="stop-color:#FFFFFF"/>
	<stop  offset="0.13" style="stop-color:#FFFFFB"/>
	<stop  offset="0.26" style="stop-color:#FFFFEE"/>
	<stop  offset="0.39" style="stop-color:#FFFFDA"/>
	<stop  offset="0.53" style="stop-color:#FFFFBD"/>
	<stop  offset="0.66" style="stop-color:#FFFF98"/>
	<stop  offset="0.7" style="stop-color:#FFFF8C"/>
	<stop  offset="1" style="stop-color:#FFC728"/>
</radialGradient>
<circle class="st70" cx="34.7" cy="595" r="8.4"/>
<radialGradient id="SVGID_51_" cx="62.67" cy="100.0086" r="8.3657" gradientTransform="matrix(1 0 0 -1 -2.666311e-02 741.9783)" gradientUnits="userSpaceOnUse">
	<stop  offset="0" style="stop-color:#FFFFFF"/>
	<stop  offset="0.13" style="stop-color:#FFFFFB"/>
	<stop  offset="0.26" style="stop-color:#FFFFEE"/>
	<stop  offset="0.39" style="stop-color:#FFFFDA"/>
	<stop  offset="0.53" style="stop-color:#FFFFBD"/>
	<stop  offset="0.66" style="stop-color:#FFFF98"/>
	<stop  offset="0.7" style="stop-color:#FFFF8C"/>
	<stop  offset="1" style="stop-color:#FFC728"/>
</radialGradient>
<circle class="st71" cx="62.7" cy="642" r="8.4"/>
<radialGradient id="SVGID_52_" cx="116.0206" cy="52.0066" r="8.3722" gradientTransform="matrix(1 0 0 -1 -5.413041e-04 742.0045)" gradientUnits="userSpaceOnUse">
	<stop  offset="0" style="stop-color:#FFFFFF"/>
	<stop  offset="0.13" style="stop-color:#FFFFFB"/>
	<stop  offset="0.26" style="stop-color:#FFFFEE"/>
	<stop  offset="0.39" style="stop-color:#FFFFDA"/>
	<stop  offset="0.53" style="stop-color:#FFFFBD"/>
	<stop  offset="0.66" style="stop-color:#FFFF98"/>
	<stop  offset="0.7" style="stop-color:#FFFF8C"/>
	<stop  offset="1" style="stop-color:#FFC728"/>
</radialGradient>
<circle class="st72" cx="116" cy="690" r="8.4"/>
<radialGradient id="SVGID_53_" cx="178.36" cy="26.0036" r="8.3682" gradientTransform="matrix(1 0 0 -1 -3.445033e-02 741.9655)" gradientUnits="userSpaceOnUse">
	<stop  offset="0" style="stop-color:#FFFFFF"/>
	<stop  offset="0.13" style="stop-color:#FFFFFB"/>
	<stop  offset="0.26" style="stop-color:#FFFFEE"/>
	<stop  offset="0.39" style="stop-color:#FFFFDA"/>
	<stop  offset="0.53" style="stop-color:#FFFFBD"/>
	<stop  offset="0.66" style="stop-color:#FFFF98"/>
	<stop  offset="0.7" style="stop-color:#FFFF8C"/>
	<stop  offset="1" style="stop-color:#FFC728"/>
</radialGradient>
<circle class="st73" cx="178.4" cy="716" r="8.4"/>
<radialGradient id="SVGID_54_" cx="245.7109" cy="20.0006" r="8.3722" gradientTransform="matrix(1 0 0 -1 3.016060e-03 742.0024)" gradientUnits="userSpaceOnUse">
	<stop  offset="0" style="stop-color:#FFFFFF"/>
	<stop  offset="0.13" style="stop-color:#FFFFFB"/>
	<stop  offset="0.26" style="stop-color:#FFFFEE"/>
	<stop  offset="0.39" style="stop-color:#FFFFDA"/>
	<stop  offset="0.53" style="stop-color:#FFFFBD"/>
	<stop  offset="0.66" style="stop-color:#FFFF98"/>
	<stop  offset="0.7" style="stop-color:#FFFF8C"/>
	<stop  offset="1" style="stop-color:#FFC728"/>
</radialGradient>
<circle class="st74" cx="245.7" cy="722" r="8.4"/>
<radialGradient id="SVGID_55_" cx="313.0645" cy="20.0016" r="8.37" gradientTransform="matrix(1 0 0 -1 -6.535320e-03 741.9958)" gradientUnits="userSpaceOnUse">
	<stop  offset="0" style="stop-color:#FFFFFF"/>
	<stop  offset="0.13" style="stop-color:#FFFFFB"/>
	<stop  offset="0.26" style="stop-color:#FFFFEE"/>
	<stop  offset="0.39" style="stop-color:#FFFFDA"/>
	<stop  offset="0.53" style="stop-color:#FFFFBD"/>
	<stop  offset="0.66" style="stop-color:#FFFF98"/>
	<stop  offset="0.7" style="stop-color:#FFFF8C"/>
	<stop  offset="1" style="stop-color:#FFC728"/>
</radialGradient>
<circle class="st75" cx="313.1" cy="722" r="8.4"/>
<radialGradient id="SVGID_56_" cx="380.4057" cy="19.9957" r="8.3722" gradientTransform="matrix(1 0 0 -1 -4.550808e-03 741.9939)" gradientUnits="userSpaceOnUse">
	<stop  offset="0" style="stop-color:#FFFFFF"/>
	<stop  offset="0.13" style="stop-color:#FFFFFB"/>
	<stop  offset="0.26" style="stop-color:#FFFFEE"/>
	<stop  offset="0.39" style="stop-color:#FFFFDA"/>
	<stop  offset="0.53" style="stop-color:#FFFFBD"/>
	<stop  offset="0.66" style="stop-color:#FFFF98"/>
	<stop  offset="0.7" style="stop-color:#FFFF8C"/>
	<stop  offset="1" style="stop-color:#FFC728"/>
</radialGradient>
<circle class="st76" cx="380.4" cy="722" r="8.4"/>
<radialGradient id="SVGID_57_" cx="447.7542" cy="20.0016" r="8.37" gradientTransform="matrix(1 0 0 -1 -6.031484e-03 741.9956)" gradientUnits="userSpaceOnUse">
	<stop  offset="0" style="stop-color:#FFFFFF"/>
	<stop  offset="0.13" style="stop-color:#FFFFFB"/>
	<stop  offset="0.26" style="stop-color:#FFFFEE"/>
	<stop  offset="0.39" style="stop-color:#FFFFDA"/>
	<stop  offset="0.53" style="stop-color:#FFFFBD"/>
	<stop  offset="0.66" style="stop-color:#FFFF98"/>
	<stop  offset="0.7" style="stop-color:#FFFF8C"/>
	<stop  offset="1" style="stop-color:#FFC728"/>
</radialGradient>
<circle class="st77" cx="447.7" cy="722" r="8.4"/>
<radialGradient id="SVGID_58_" cx="515.1" cy="20" r="8.37" gradientTransform="matrix(1 0 0 -1 -4.532002e-02 741.9879)" gradientUnits="userSpaceOnUse">
	<stop  offset="0" style="stop-color:#FFFFFF"/>
	<stop  offset="0.13" style="stop-color:#FFFFFB"/>
	<stop  offset="0.26" style="stop-color:#FFFFEE"/>
	<stop  offset="0.39" style="stop-color:#FFFFDA"/>
	<stop  offset="0.53" style="stop-color:#FFFFBD"/>
	<stop  offset="0.66" style="stop-color:#FFFF98"/>
	<stop  offset="0.7" style="stop-color:#FFFF8C"/>
	<stop  offset="1" style="stop-color:#FFC728"/>
</radialGradient>
<circle class="st78" cx="515.1" cy="722" r="8.4"/>
<radialGradient id="SVGID_59_" cx="582.4423" cy="20.0023" r="8.3722" gradientTransform="matrix(1 0 0 -1 -5.417190e-04 742.0031)" gradientUnits="userSpaceOnUse">
	<stop  offset="0" style="stop-color:#FFFFFF"/>
	<stop  offset="0.13" style="stop-color:#FFFFFB"/>
	<stop  offset="0.26" style="stop-color:#FFFFEE"/>
	<stop  offset="0.39" style="stop-color:#FFFFDA"/>
	<stop  offset="0.53" style="stop-color:#FFFFBD"/>
	<stop  offset="0.66" style="stop-color:#FFFF98"/>
	<stop  offset="0.7" style="stop-color:#FFFF8C"/>
	<stop  offset="1" style="stop-color:#FFC728"/>
</radialGradient>
<circle class="st79" cx="582.4" cy="722" r="8.4"/>
<radialGradient id="SVGID_60_" cx="645.79" cy="46" r="8.37" gradientTransform="matrix(1 0 0 -1 -5.732757e-02 741.9928)" gradientUnits="userSpaceOnUse">
	<stop  offset="0" style="stop-color:#FFFFFF"/>
	<stop  offset="0.13" style="stop-color:#FFFFFB"/>
	<stop  offset="0.26" style="stop-color:#FFFFEE"/>
	<stop  offset="0.39" style="stop-color:#FFFFDA"/>
	<stop  offset="0.53" style="stop-color:#FFFFBD"/>
	<stop  offset="0.66" style="stop-color:#FFFF98"/>
	<stop  offset="0.7" style="stop-color:#FFFF8C"/>
	<stop  offset="1" style="stop-color:#FFC728"/>
</radialGradient>
<circle class="st80" cx="645.8" cy="696" r="8.4"/>
<radialGradient id="SVGID_61_" cx="689.3089" cy="78.4722" r="8.37" gradientTransform="matrix(1 0 0 -1 3.428142e-03 742.003)" gradientUnits="userSpaceOnUse">
	<stop  offset="0" style="stop-color:#FFFFFF"/>
	<stop  offset="0.13" style="stop-color:#FFFFFB"/>
	<stop  offset="0.26" style="stop-color:#FFFFEE"/>
	<stop  offset="0.39" style="stop-color:#FFFFDA"/>
	<stop  offset="0.53" style="stop-color:#FFFFBD"/>
	<stop  offset="0.66" style="stop-color:#FFFF98"/>
	<stop  offset="0.7" style="stop-color:#FFFF8C"/>
	<stop  offset="1" style="stop-color:#FFC728"/>
</radialGradient>
<circle class="st81" cx="689.3" cy="663.5" r="8.4"/>
<radialGradient id="SVGID_62_" cx="726.31" cy="127.82" r="8.37" gradientTransform="matrix(1 0 0 -1 0 742)" gradientUnits="userSpaceOnUse">
	<stop  offset="0" style="stop-color:#FFFFFF"/>
	<stop  offset="0.13" style="stop-color:#FFFFFB"/>
	<stop  offset="0.26" style="stop-color:#FFFFEE"/>
	<stop  offset="0.39" style="stop-color:#FFFFDA"/>
	<stop  offset="0.53" style="stop-color:#FFFFBD"/>
	<stop  offset="0.66" style="stop-color:#FFFF98"/>
	<stop  offset="0.7" style="stop-color:#FFFF8C"/>
	<stop  offset="1" style="stop-color:#FFC728"/>
</radialGradient>
<circle class="st82" cx="726.3" cy="614.2" r="8.4"/>
<radialGradient id="SVGID_63_" cx="751.308" cy="195.1731" r="8.37" gradientTransform="matrix(1 0 0 -1 -4.445244e-03 742.0039)" gradientUnits="userSpaceOnUse">
	<stop  offset="0" style="stop-color:#FFFFFF"/>
	<stop  offset="0.13" style="stop-color:#FFFFFB"/>
	<stop  offset="0.26" style="stop-color:#FFFFEE"/>
	<stop  offset="0.39" style="stop-color:#FFFFDA"/>
	<stop  offset="0.53" style="stop-color:#FFFFBD"/>
	<stop  offset="0.66" style="stop-color:#FFFF98"/>
	<stop  offset="0.7" style="stop-color:#FFFF8C"/>
	<stop  offset="1" style="stop-color:#FFC728"/>
</radialGradient>
<circle class="st83" cx="751.3" cy="546.8" r="8.4"/>
<radialGradient id="SVGID_64_" cx="753.31" cy="260.51" r="8.37" gradientTransform="matrix(1 0 0 -1 -4.302106e-02 742.0054)" gradientUnits="userSpaceOnUse">
	<stop  offset="0" style="stop-color:#FFFFFF"/>
	<stop  offset="0.13" style="stop-color:#FFFFFB"/>
	<stop  offset="0.26" style="stop-color:#FFFFEE"/>
	<stop  offset="0.39" style="stop-color:#FFFFDA"/>
	<stop  offset="0.53" style="stop-color:#FFFFBD"/>
	<stop  offset="0.66" style="stop-color:#FFFF98"/>
	<stop  offset="0.7" style="stop-color:#FFFF8C"/>
	<stop  offset="1" style="stop-color:#FFC728"/>
</radialGradient>
<circle class="st84" cx="753.3" cy="481.5" r="8.4"/>
<radialGradient id="SVGID_65_" cx="736.31" cy="319.86" r="8.37" gradientTransform="matrix(1 0 0 -1 0 742)" gradientUnits="userSpaceOnUse">
	<stop  offset="0" style="stop-color:#FFFFFF"/>
	<stop  offset="0.13" style="stop-color:#FFFFFB"/>
	<stop  offset="0.26" style="stop-color:#FFFFEE"/>
	<stop  offset="0.39" style="stop-color:#FFFFDA"/>
	<stop  offset="0.53" style="stop-color:#FFFFBD"/>
	<stop  offset="0.66" style="stop-color:#FFFF98"/>
	<stop  offset="0.7" style="stop-color:#FFFF8C"/>
	<stop  offset="1" style="stop-color:#FFC728"/>
</radialGradient>
<circle class="st85" cx="736.3" cy="422.1" r="8.4"/>
<radialGradient id="SVGID_66_" cx="705.33" cy="370.87" r="8.37" gradientTransform="matrix(1 0 0 -1 0 742)" gradientUnits="userSpaceOnUse">
	<stop  offset="0" style="stop-color:#FFFFFF"/>
	<stop  offset="0.13" style="stop-color:#FFFFFB"/>
	<stop  offset="0.26" style="stop-color:#FFFFEE"/>
	<stop  offset="0.39" style="stop-color:#FFFFDA"/>
	<stop  offset="0.53" style="stop-color:#FFFFBD"/>
	<stop  offset="0.66" style="stop-color:#FFFF98"/>
	<stop  offset="0.7" style="stop-color:#FFFF8C"/>
	<stop  offset="1" style="stop-color:#FFC728"/>
</radialGradient>
<circle class="st86" cx="705.3" cy="371.1" r="8.4"/>
<radialGradient id="SVGID_67_" cx="658.98" cy="412.87" r="8.37" gradientTransform="matrix(1 0 0 -1 0 742)" gradientUnits="userSpaceOnUse">
	<stop  offset="0" style="stop-color:#FFFFFF"/>
	<stop  offset="0.13" style="stop-color:#FFFFFB"/>
	<stop  offset="0.26" style="stop-color:#FFFFEE"/>
	<stop  offset="0.39" style="stop-color:#FFFFDA"/>
	<stop  offset="0.53" style="stop-color:#FFFFBD"/>
	<stop  offset="0.66" style="stop-color:#FFFF98"/>
	<stop  offset="0.7" style="stop-color:#FFFF8C"/>
	<stop  offset="1" style="stop-color:#FFC728"/>
</radialGradient>
<circle class="st87" cx="659" cy="329.1" r="8.4"/>
<radialGradient id="SVGID_68_" cx="591.64" cy="441.87" r="8.37" gradientTransform="matrix(1 0 0 -1 0 742)" gradientUnits="userSpaceOnUse">
	<stop  offset="0" style="stop-color:#FFFFFF"/>
	<stop  offset="0.13" style="stop-color:#FFFFFB"/>
	<stop  offset="0.26" style="stop-color:#FFFFEE"/>
	<stop  offset="0.39" style="stop-color:#FFFFDA"/>
	<stop  offset="0.53" style="stop-color:#FFFFBD"/>
	<stop  offset="0.66" style="stop-color:#FFFF98"/>
	<stop  offset="0.7" style="stop-color:#FFFF8C"/>
	<stop  offset="1" style="stop-color:#FFC728"/>
</radialGradient>
<circle class="st88" cx="591.6" cy="300.1" r="8.4"/>
<radialGradient id="SVGID_69_" cx="524.29" cy="446.87" r="8.37" gradientTransform="matrix(1 0 0 -1 0 742)" gradientUnits="userSpaceOnUse">
	<stop  offset="0" style="stop-color:#FFFFFF"/>
	<stop  offset="0.13" style="stop-color:#FFFFFB"/>
	<stop  offset="0.26" style="stop-color:#FFFFEE"/>
	<stop  offset="0.39" style="stop-color:#FFFFDA"/>
	<stop  offset="0.53" style="stop-color:#FFFFBD"/>
	<stop  offset="0.66" style="stop-color:#FFFF98"/>
	<stop  offset="0.7" style="stop-color:#FFFF8C"/>
	<stop  offset="1" style="stop-color:#FFC728"/>
</radialGradient>
<circle class="st89" cx="524.3" cy="295.1" r="8.4"/>
<radialGradient id="SVGID_70_" cx="456.94" cy="446.87" r="8.37" gradientTransform="matrix(1 0 0 -1 0 742)" gradientUnits="userSpaceOnUse">
	<stop  offset="0" style="stop-color:#FFFFFF"/>
	<stop  offset="0.13" style="stop-color:#FFFFFB"/>
	<stop  offset="0.26" style="stop-color:#FFFFEE"/>
	<stop  offset="0.39" style="stop-color:#FFFFDA"/>
	<stop  offset="0.53" style="stop-color:#FFFFBD"/>
	<stop  offset="0.66" style="stop-color:#FFFF98"/>
	<stop  offset="0.7" style="stop-color:#FFFF8C"/>
	<stop  offset="1" style="stop-color:#FFC728"/>
</radialGradient>
<circle class="st90" cx="456.9" cy="295.1" r="8.4"/>
</svg>
