<?xml version="1.0" encoding="utf-8"?>
<!-- Generator: Adobe Illustrator 25.2.3, SVG Export Plug-In . SVG Version: 6.00 Build 0)  -->
<svg version="1.1" id="Layer_1" xmlns="http://www.w3.org/2000/svg" xmlns:xlink="http://www.w3.org/1999/xlink" x="0px" y="0px"
	 viewBox="0 0 550 550" style="enable-background:new 0 0 550 550;" xml:space="preserve">
<style type="text/css">
	.st0{fill:#7C5438;}
	.st1{opacity:0.5;}
	.st2{fill:#CE9F38;}
	.st3{fill:#E5AE41;}
	.st4{opacity:0.5;fill:#CE9F38;enable-background:new    ;}
	.st5{opacity:0.4;fill:#CE9F38;enable-background:new    ;}
	.st6{fill:#FFE3C7;}
	.st7{fill:url(#SVGID_1_);}
	.st8{fill:#C77B4B;}
	.st9{fill:#F0D9AA;}
	.st10{clip-path:url(#SVGID_3_);}
	.st11{clip-path:url(#SVGID_5_);}
	.st12{fill:#26877D;}
	.st13{fill:url(#SVGID_6_);}
	.st14{fill:#C08872;}
	.st15{fill:#CD846B;}
	.st16{fill:#754E33;}
	.st17{fill:#6DC294;}
	.st18{fill:#62C19D;}
	.st19{fill:#4BACAF;}
	.st20{fill:#65C3AF;}
	.st21{fill:#104925;}
	.st22{fill:url(#SVGID_7_);}
	.st23{fill:#B48274;}
	.st24{fill:#C98A72;}
	.st25{fill:#7DC792;}
	.st26{fill:#2CB78B;}
	.st27{fill:url(#SVGID_8_);}
	.st28{fill:url(#SVGID_9_);}
	.st29{fill:url(#SVGID_10_);}
	.st30{fill:url(#SVGID_11_);}
	.st31{fill:url(#SVGID_12_);}
	.st32{fill-rule:evenodd;clip-rule:evenodd;fill:url(#SVGID_13_);}
	.st33{fill-rule:evenodd;clip-rule:evenodd;fill:url(#SVGID_14_);}
	.st34{fill-rule:evenodd;clip-rule:evenodd;fill:url(#SVGID_15_);}
	.st35{fill-rule:evenodd;clip-rule:evenodd;fill:url(#SVGID_16_);}
	.st36{fill-rule:evenodd;clip-rule:evenodd;fill:url(#SVGID_17_);}
	.st37{fill-rule:evenodd;clip-rule:evenodd;fill:url(#SVGID_18_);}
	.st38{fill-rule:evenodd;clip-rule:evenodd;fill:url(#SVGID_19_);}
	.st39{fill-rule:evenodd;clip-rule:evenodd;fill:url(#SVGID_20_);}
	.st40{fill-rule:evenodd;clip-rule:evenodd;fill:url(#SVGID_21_);}
	.st41{fill-rule:evenodd;clip-rule:evenodd;fill:url(#SVGID_22_);}
	.st42{fill-rule:evenodd;clip-rule:evenodd;fill:url(#SVGID_23_);}
	.st43{fill-rule:evenodd;clip-rule:evenodd;fill:url(#SVGID_24_);}
	.st44{fill-rule:evenodd;clip-rule:evenodd;fill:url(#SVGID_25_);}
	.st45{fill-rule:evenodd;clip-rule:evenodd;fill:url(#SVGID_26_);}
	.st46{fill-rule:evenodd;clip-rule:evenodd;fill:url(#SVGID_27_);}
	.st47{fill-rule:evenodd;clip-rule:evenodd;fill:url(#SVGID_28_);}
	.st48{fill-rule:evenodd;clip-rule:evenodd;fill:url(#SVGID_29_);}
	.st49{fill-rule:evenodd;clip-rule:evenodd;fill:url(#SVGID_30_);}
	.st50{fill-rule:evenodd;clip-rule:evenodd;fill:url(#SVGID_31_);}
	.st51{fill-rule:evenodd;clip-rule:evenodd;fill:url(#SVGID_32_);}
	.st52{fill-rule:evenodd;clip-rule:evenodd;fill:url(#SVGID_33_);}
	.st53{fill-rule:evenodd;clip-rule:evenodd;fill:url(#SVGID_34_);}
	.st54{fill-rule:evenodd;clip-rule:evenodd;fill:url(#SVGID_35_);}
	.st55{fill-rule:evenodd;clip-rule:evenodd;fill:url(#SVGID_36_);}
	.st56{fill:url(#SVGID_37_);}
	.st57{fill:url(#SVGID_38_);}
	.st58{fill:url(#SVGID_39_);}
	.st59{fill-rule:evenodd;clip-rule:evenodd;fill:url(#SVGID_40_);}
	.st60{fill-rule:evenodd;clip-rule:evenodd;fill:url(#SVGID_41_);}
	.st61{fill:url(#SVGID_42_);}
	.st62{fill:url(#SVGID_43_);}
	.st63{fill-rule:evenodd;clip-rule:evenodd;fill:#004F17;}
	.st64{fill-rule:evenodd;clip-rule:evenodd;fill:#003A17;}
	.st65{fill:#072918;}
	.st66{fill:#0B2F1F;}
	.st67{fill:url(#SVGID_44_);}
	.st68{fill:url(#SVGID_45_);}
	.st69{fill:url(#SVGID_46_);}
	.st70{fill:url(#SVGID_47_);}
	.st71{fill:url(#SVGID_48_);}
	.st72{fill:url(#SVGID_49_);}
	.st73{fill:url(#SVGID_50_);}
	.st74{fill:url(#SVGID_51_);}
	.st75{fill:url(#SVGID_52_);}
	.st76{fill:url(#SVGID_53_);}
	.st77{fill:url(#SVGID_54_);}
	.st78{fill:url(#SVGID_55_);}
	.st79{fill:url(#SVGID_56_);}
	.st80{fill:url(#SVGID_57_);}
	.st81{fill:url(#SVGID_58_);}
	.st82{fill:url(#SVGID_59_);}
	.st83{fill:url(#SVGID_60_);}
	.st84{fill:url(#SVGID_61_);}
	.st85{fill:url(#SVGID_62_);}
	.st86{fill:url(#SVGID_63_);}
	.st87{fill:url(#SVGID_64_);}
	.st88{fill:url(#SVGID_65_);}
	.st89{fill:url(#SVGID_66_);}
	.st90{fill:url(#SVGID_67_);}
	.st91{fill:url(#SVGID_68_);}
	.st92{fill:url(#SVGID_69_);}
	.st93{fill:url(#SVGID_70_);}
	.st94{fill:url(#SVGID_71_);}
	.st95{fill:url(#SVGID_72_);}
	.st96{fill:url(#SVGID_73_);}
	.st97{fill:url(#SVGID_74_);}
	.st98{fill:url(#SVGID_75_);}
	.st99{fill:url(#SVGID_76_);}
	.st100{fill:url(#SVGID_77_);}
	.st101{fill:url(#SVGID_78_);}
</style>
<path class="st0" d="M458.3,213c-7,0-12.6-5.7-12.6-12.6s5.7-12.6,12.6-12.6c7,0,12.6,5.7,12.6,12.6c0,0,0,0,0,0
	C470.9,207.3,465.2,213,458.3,213z M458.3,191.8c-4.7,0-8.6,3.8-8.6,8.6c0,4.7,3.8,8.6,8.6,8.6c4.7,0,8.6-3.8,8.6-8.6
	C466.8,195.6,463,191.8,458.3,191.8L458.3,191.8z"/>
<g class="st1">
	<path class="st2" d="M458.4,211.6c-6.3,0-11.4-5.1-11.4-11.4s5.1-11.4,11.4-11.4c6.3,0,11.4,5.1,11.4,11.4v0
		C469.8,206.5,464.7,211.6,458.4,211.6z M458.4,190.2c-5.6,0-10.1,4.4-10.1,10c0,5.6,4.4,10.1,10,10.1s10.1-4.4,10.1-10
		c0,0,0,0,0-0.1C468.4,194.7,463.9,190.2,458.4,190.2z"/>
</g>
<path class="st3" d="M453.7,190.6c-0.6-0.1-1.2,0-1.7,0.3l-0.7,0.4c-1,1.6-2.5,2.5-3.4,4.3c-0.4,1-0.7,2-0.8,3
	c-0.1,1.1,0.1,2.6,1.1,1.2s0.9-3.9,2-5.5C450.9,193.2,454,191.8,453.7,190.6z"/>
<path class="st3" d="M469,201.7c-1-0.2-1.7,4.1-2.5,5.1c-1.3,1.6-3.2,2.8-5.3,3.1l-0.4,0.1c-1.1,0-1,0.8,0,0.9
	c0.7-0.1,1.4-0.2,2-0.6c1.2-0.5,2.2-1.2,3.2-2.1C467.5,206.9,469.9,204,469,201.7z"/>
<rect x="455.8" y="212.4" class="st0" width="5" height="9.9"/>
<polygon class="st4" points="456.5,213.7 456.5,221.9 458.6,222.2 458.2,214.8 "/>
<path class="st0" d="M457.5,183.2c-6.2,0-11.2-5-11.2-11.3s5-11.2,11.3-11.2c6.2,0,11.2,5,11.2,11.3
	C468.8,178.2,463.7,183.2,457.5,183.2z M457.5,164.3c-4.2,0-7.6,3.4-7.6,7.6s3.4,7.6,7.6,7.6c4.2,0,7.6-3.4,7.6-7.6
	S461.7,164.3,457.5,164.3L457.5,164.3z"/>
<g class="st1">
	<path class="st2" d="M457.6,182c-5.6,0-10.2-4.5-10.2-10.2s4.5-10.2,10.2-10.2c5.6,0,10.2,4.5,10.2,10.2
		C467.8,177.4,463.3,182,457.6,182z M457.6,162.9c-5,0-9,4-9,9s4,9,9,9s9-4,9-9C466.6,166.9,462.6,162.9,457.6,162.9L457.6,162.9z"
		/>
</g>
<path class="st3" d="M453.5,163.3c-0.5-0.1-1.1,0-1.5,0.2l-0.6,0.4c-0.9,1.4-2.3,2.3-3,3.8c-0.4,0.8-0.6,1.7-0.7,2.6
	c-0.1,1,0.1,2.4,1,1.1s0.8-3.5,1.8-4.9C451,165.6,453.7,164.4,453.5,163.3z"/>
<path class="st3" d="M467.1,173.1c-0.9-0.2-1.5,3.6-2.3,4.6c-1.2,1.5-2.8,2.5-4.7,2.8l-0.4,0.1c-1,0-0.9,0.7,0,0.8
	c0.6-0.1,1.2-0.2,1.8-0.5c1-0.4,2-1.1,2.8-1.9C465.8,177.8,467.9,175.3,467.1,173.1z"/>
<path class="st0" d="M460.7,193.6c0,1-1.1,1.9-2.5,1.9l0,0c-1.4,0-2.5-0.8-2.5-1.9V178c0-1,1.1-1.9,2.5-1.9l0,0
	c1.4,0,2.5,0.8,2.5,1.9V193.6z"/>
<path class="st5" d="M459.3,188.9c0,0.7-0.7,1.3-1.4,1.3l0,0c-0.7,0-1.4-0.5-1.4-1.3c0,0,0,0,0,0v-10.6c0-0.7,0.7-1.3,1.4-1.3
	c0,0,0,0,0,0l0,0c0.7,0,1.4,0.5,1.4,1.3V188.9z"/>
<path class="st3" d="M457.8,182.8c-0.2-1.5,0.5-2.8,0.3-4.2c-0.2-0.1-0.4-0.2-0.6-0.2h-0.1c-0.9,0.9-0.1,3.1-0.2,4.3
	c0,0.6-0.8,3.8,0.4,3.8S457.9,183.4,457.8,182.8z"/>
<path class="st0" d="M457.6,152.7c-6.2,0-11.3-5-11.3-11.3s5-11.3,11.3-11.3s11.3,5,11.3,11.3C468.9,147.7,463.9,152.7,457.6,152.7z
	 M457.6,133.8c-4.2,0-7.6,3.4-7.6,7.6c0,4.2,3.4,7.6,7.6,7.6c4.2,0,7.6-3.4,7.6-7.6c0,0,0,0,0,0
	C465.3,137.2,461.9,133.8,457.6,133.8z"/>
<g class="st1">
	<path class="st2" d="M457.8,151.5c-5.6,0-10.2-4.6-10.2-10.2s4.6-10.2,10.2-10.2c5.6,0,10.2,4.6,10.2,10.2
		C467.9,147,463.4,151.5,457.8,151.5z M457.8,132.4c-5,0-9,4-9,9s4,9,9,9s9-4,9-9C466.8,136.4,462.7,132.4,457.8,132.4L457.8,132.4z
		"/>
</g>
<path class="st3" d="M453.6,132.8c-0.5-0.1-1.1,0-1.5,0.2l-0.6,0.4c-0.9,1.4-2.3,2.3-3,3.8c-0.4,0.8-0.6,1.7-0.7,2.6
	c-0.1,1,0.1,2.4,1,1.1s0.8-3.5,1.8-4.9C451.1,135.1,453.8,133.8,453.6,132.8z"/>
<path class="st3" d="M467.2,142.6c-0.9-0.2-1.5,3.6-2.3,4.6c-1.2,1.5-2.8,2.4-4.7,2.8l-0.4,0.1c-1,0-0.9,0.7,0,0.8
	c0.6-0.1,1.2-0.2,1.8-0.5c1.1-0.4,2-1.1,2.8-1.9C465.9,147.2,468,144.7,467.2,142.6z"/>
<path class="st0" d="M460.7,165.5c0,1-1.1,1.9-2.5,1.9l0,0c-1.4,0-2.5-0.8-2.5-1.9v-15.6c0-1,1.1-1.9,2.5-1.9l0,0
	c1.4,0,2.5,0.8,2.5,1.9V165.5z"/>
<path class="st5" d="M459.3,160.8c0,0.7-0.7,1.3-1.4,1.3l0,0c-0.7,0-1.4-0.5-1.4-1.3v-10.6c0-0.7,0.7-1.3,1.4-1.3l0,0
	c0.7,0,1.4,0.5,1.4,1.3c0,0,0,0,0,0V160.8z"/>
<path class="st3" d="M457.8,154.7c-0.2-1.5,0.5-2.8,0.3-4.2c-0.2-0.1-0.4-0.2-0.6-0.2h-0.1c-0.9,0.9-0.1,3.1-0.2,4.3
	c0,0.6-0.8,3.8,0.4,3.8S457.9,155.3,457.8,154.7z"/>
<path class="st0" d="M457.6,121.2c-6.2,0-11.2-5-11.2-11.3s5-11.2,11.3-11.2c6.2,0,11.2,5,11.2,11.3c0,0,0,0,0,0.1
	C468.9,116.2,463.8,121.2,457.6,121.2z M457.6,102.3c-4.2,0-7.6,3.4-7.6,7.6s3.4,7.6,7.6,7.6s7.6-3.4,7.6-7.6
	S461.9,102.3,457.6,102.3C457.6,102.3,457.6,102.3,457.6,102.3z"/>
<g class="st1">
	<path class="st2" d="M457.8,120c-5.6,0-10.2-4.6-10.2-10.2c0-5.6,4.6-10.2,10.2-10.2c5.6,0,10.2,4.6,10.2,10.2c0,0,0,0,0,0
		C467.9,115.5,463.4,120,457.8,120z M457.8,100.9c-5,0-9,4-9,9s4,9,9,9s9-4,9-9l0,0C466.8,104.9,462.8,100.9,457.8,100.9
		C457.8,100.9,457.8,100.9,457.8,100.9L457.8,100.9z"/>
</g>
<path class="st3" d="M453.6,101.3c-0.5-0.1-1.1,0-1.5,0.2l-0.6,0.4c-0.9,1.4-2.3,2.3-3,3.8c-0.4,0.8-0.6,1.7-0.7,2.7
	c-0.1,1,0.1,2.3,1,1.1s0.8-3.5,1.8-4.9C451.1,103.5,453.8,102.3,453.6,101.3z"/>
<path class="st3" d="M467.2,111.1c-0.9-0.2-1.5,3.6-2.3,4.6c-1.2,1.5-2.8,2.4-4.7,2.8l-0.4,0.1c-1,0-0.9,0.7,0,0.8
	c0.6-0.1,1.2-0.2,1.8-0.5c1-0.4,2-1.1,2.8-1.9C465.9,115.7,468,113.2,467.2,111.1z"/>
<path class="st0" d="M460.7,134c0,1-1.1,1.9-2.5,1.9l0,0c-1.4,0-2.5-0.8-2.5-1.9v-15.6c0-1,1.1-1.8,2.5-1.8l0,0
	c1.4,0,2.5,0.8,2.5,1.8V134z"/>
<path class="st5" d="M459.3,129.3c0,0.7-0.7,1.3-1.4,1.3l0,0c-0.7,0-1.4-0.5-1.4-1.3v-10.7c0-0.7,0.7-1.3,1.4-1.3l0,0
	c0.7,0,1.4,0.5,1.4,1.3V129.3z"/>
<path class="st3" d="M457.8,123.2c-0.2-1.5,0.5-2.8,0.3-4.2c-0.2-0.1-0.4-0.2-0.6-0.2h-0.1c-0.9,0.9-0.1,3.1-0.2,4.3
	c0,0.7-0.8,3.8,0.4,3.8S457.9,123.8,457.8,123.2z"/>
<path class="st0" d="M457.6,89.4c-6.2,0-11.3-5-11.3-11.3s5-11.3,11.3-11.3s11.3,5,11.3,11.3l0,0C468.9,84.4,463.9,89.4,457.6,89.4z
	 M457.6,70.5c-4.2,0-7.6,3.4-7.6,7.6s3.4,7.6,7.6,7.6s7.6-3.4,7.6-7.6S461.9,70.5,457.6,70.5L457.6,70.5z"/>
<g class="st1">
	<path class="st2" d="M457.8,88.2c-5.6,0-10.2-4.6-10.1-10.2c0-5.6,4.6-10.2,10.2-10.1c5.6,0,10.1,4.5,10.1,10.1
		C468,83.6,463.4,88.2,457.8,88.2C457.8,88.2,457.8,88.2,457.8,88.2z M457.8,69.1c-5,0-9,4-9,9s4,9,9,9s9-4,9-9
		S462.7,69.1,457.8,69.1z"/>
</g>
<path class="st3" d="M453.6,69.4c-0.5-0.1-1.1,0-1.5,0.2l-0.6,0.4c-0.9,1.4-2.3,2.3-3,3.8c-0.4,0.8-0.6,1.7-0.7,2.7
	c-0.1,1,0.1,2.3,1,1.1s0.8-3.5,1.8-4.9C451.1,71.8,453.8,70.5,453.6,69.4z"/>
<path class="st3" d="M467.2,79.3c-0.9-0.2-1.5,3.7-2.3,4.6c-1.2,1.5-2.8,2.5-4.7,2.8l-0.4,0.1c-1,0-0.9,0.7,0,0.8
	c0.6-0.1,1.2-0.2,1.8-0.5c1-0.4,2-1.1,2.8-1.9C465.9,83.9,468,81.4,467.2,79.3z"/>
<path class="st0" d="M460.7,102.2c0,1-1.1,1.8-2.5,1.8l0,0c-1.4,0-2.5-0.8-2.5-1.8V86.6c0-1,1.1-1.8,2.5-1.8l0,0
	c1.4,0,2.5,0.8,2.5,1.8V102.2z"/>
<path class="st5" d="M459.3,97.5c0,0.7-0.7,1.3-1.4,1.3c0,0,0,0,0,0l0,0c-0.7,0-1.4-0.5-1.4-1.3V86.8c0-0.7,0.7-1.3,1.4-1.3l0,0
	c0.7,0,1.4,0.5,1.4,1.3V97.5z"/>
<path class="st3" d="M457.8,91.4c-0.2-1.4,0.5-2.8,0.3-4.2c-0.2-0.1-0.4-0.2-0.6-0.2h-0.1c-0.9,0.9-0.1,3.1-0.2,4.3
	c0,0.7-0.8,3.8,0.4,3.8S457.9,92,457.8,91.4z"/>
<path class="st0" d="M457.6,57.8c-6.2,0-11.3-5-11.3-11.3s5-11.3,11.3-11.3s11.3,5,11.3,11.3C468.9,52.7,463.9,57.8,457.6,57.8z
	 M457.6,38.9c-4.2,0-7.6,3.4-7.6,7.6s3.4,7.6,7.6,7.6s7.6-3.4,7.6-7.6C465.3,42.3,461.9,38.9,457.6,38.9L457.6,38.9z"/>
<g class="st1">
	<path class="st2" d="M457.8,56.6c-5.6,0-10.2-4.6-10.1-10.2c0-5.6,4.6-10.2,10.2-10.1c5.6,0,10.1,4.6,10.1,10.2
		C467.9,52,463.4,56.6,457.8,56.6z M457.8,37.4c-5,0-9,4-9,9s4,9,9,9s9-4,9-9S462.7,37.5,457.8,37.4z"/>
</g>
<path class="st3" d="M453.6,37.8c-0.5-0.1-1.1,0-1.5,0.2l-0.6,0.4c-0.9,1.4-2.3,2.3-3,3.8c-0.4,0.8-0.6,1.7-0.7,2.7
	c-0.1,1,0.1,2.3,1,1.1s0.8-3.5,1.8-4.9C451.1,40.1,453.8,38.9,453.6,37.8z"/>
<path class="st3" d="M467.2,47.7c-0.9-0.2-1.5,3.7-2.3,4.5c-1.2,1.5-2.8,2.4-4.7,2.8l-0.4,0.1c-1,0-0.9,0.7,0,0.8
	c0.6-0.1,1.2-0.2,1.8-0.5c1-0.4,2-1.1,2.8-1.9C465.9,52.3,468,49.8,467.2,47.7z"/>
<path class="st0" d="M460.7,70.6c0,1-1.1,1.8-2.5,1.8l0,0c-1.4,0-2.5-0.8-2.5-1.8V55c0-1,1.1-1.8,2.5-1.8l0,0c1.4,0,2.5,0.8,2.5,1.8
	V70.6z"/>
<path class="st5" d="M459.3,65.9c0,0.7-0.7,1.3-1.4,1.3c0,0,0,0,0,0l0,0c-0.7,0-1.4-0.5-1.4-1.3V55.2c0.1-0.7,0.7-1.3,1.4-1.2l0,0
	c0.7,0,1.4,0.5,1.4,1.3V65.9z"/>
<path class="st3" d="M457.8,59.8c-0.2-1.5,0.5-2.8,0.3-4.2c-0.2-0.1-0.4-0.2-0.6-0.2h-0.1c-0.9,0.9-0.1,3.1-0.2,4.3
	c0,0.7-0.8,3.8,0.4,3.8S457.9,60.3,457.8,59.8z"/>
<path class="st0" d="M457.6,27.8c-6.2,0-11.3-5-11.3-11.3s5-11.3,11.3-11.3s11.3,5,11.3,11.3C468.9,22.7,463.9,27.8,457.6,27.8z
	 M457.6,8.9c-4.2,0-7.6,3.4-7.6,7.6s3.4,7.6,7.6,7.6c4.2,0,7.6-3.4,7.6-7.6C465.3,12.3,461.9,8.9,457.6,8.9
	C457.6,8.9,457.6,8.9,457.6,8.9z"/>
<g class="st1">
	<path class="st2" d="M457.8,26.6c-5.6,0-10.2-4.6-10.1-10.2c0-5.6,4.6-10.2,10.2-10.1c5.6,0,10.1,4.6,10.1,10.2
		C467.9,22,463.4,26.6,457.8,26.6z M457.8,7.4c-5,0-9,4-9,9s4,9,9,9s9-4,9-9S462.7,7.4,457.8,7.4z"/>
</g>
<path class="st3" d="M453.6,7.8c-0.5-0.1-1.1,0-1.5,0.2l-0.6,0.4c-0.9,1.4-2.3,2.3-3,3.9c-0.4,0.8-0.6,1.7-0.7,2.6
	c-0.1,1,0.1,2.4,1,1.1s0.8-3.5,1.8-4.9C451.1,10.1,453.8,8.9,453.6,7.8z"/>
<path class="st3" d="M467.2,17.7c-0.9-0.2-1.5,3.6-2.3,4.6c-1.2,1.5-2.8,2.4-4.7,2.8l-0.4,0.1c-1,0-0.9,0.7,0,0.8
	c0.6-0.1,1.2-0.2,1.8-0.5c1-0.4,2-1.1,2.8-1.9C465.9,22.3,468,19.8,467.2,17.7z"/>
<path class="st0" d="M460.7,40.6c0,1-1.1,1.8-2.5,1.8l0,0c-1.4,0-2.5-0.8-2.5-1.8V25c0-1,1.1-1.9,2.5-1.9l0,0c1.4,0,2.5,0.8,2.5,1.9
	V40.6z"/>
<path class="st5" d="M459.3,35.9c0,0.7-0.7,1.3-1.4,1.3c0,0,0,0,0,0l0,0c-0.7,0-1.4-0.5-1.4-1.3V25.2c0.1-0.7,0.7-1.3,1.4-1.2l0,0
	c0.7,0,1.4,0.5,1.4,1.3V35.9z"/>
<path class="st3" d="M457.8,29.8c-0.2-1.5,0.5-2.8,0.3-4.2c-0.2-0.1-0.4-0.2-0.6-0.2h-0.1c-0.9,0.9-0.1,3.1-0.2,4.3
	c0,0.6-0.8,3.8,0.4,3.8S457.9,30.3,457.8,29.8z"/>
<path class="st0" d="M91.7,213c-7,0-12.6-5.6-12.6-12.6s5.6-12.6,12.6-12.6c7,0,12.6,5.6,12.6,12.6c0,0,0,0,0,0
	C104.3,207.3,98.7,213,91.7,213z M91.7,191.8c-4.7,0-8.6,3.8-8.6,8.6s3.8,8.6,8.6,8.6s8.6-3.8,8.6-8.6c0,0,0,0,0,0
	C100.3,195.6,96.5,191.8,91.7,191.8L91.7,191.8z"/>
<g class="st1">
	<path class="st2" d="M91.9,211.6c-6.3,0-11.4-5.1-11.4-11.4c0-6.3,5.1-11.4,11.4-11.4c6.3,0,11.4,5.1,11.4,11.4l0,0
		C103.3,206.5,98.2,211.6,91.9,211.6z M91.9,190.2c-5.6,0-10.1,4.4-10.1,10c0,5.6,4.4,10.1,10,10.1s10.1-4.4,10.1-10c0,0,0,0,0-0.1
		C101.9,194.7,97.4,190.2,91.9,190.2z"/>
</g>
<path class="st3" d="M87.2,190.6c-0.6-0.1-1.2,0-1.7,0.3l-0.7,0.4c-1,1.6-2.6,2.5-3.4,4.3c-0.4,1-0.7,2-0.8,3
	c-0.2,1.1,0.1,2.6,1.1,1.2s0.9-3.9,2-5.5C84.4,193.2,87.4,191.8,87.2,190.6z"/>
<path class="st3" d="M102.4,201.7c-1-0.2-1.7,4.1-2.5,5.1c-1.3,1.6-3.2,2.8-5.3,3.1l-0.4,0.1c-1.1,0-1,0.8,0,0.9
	c0.7-0.1,1.4-0.2,2-0.6c1.2-0.5,2.2-1.2,3.2-2.1C101,206.9,103.4,204,102.4,201.7z"/>
<rect x="89.2" y="212.4" class="st0" width="5" height="9.9"/>
<polygon class="st4" points="89.9,213.7 90,221.9 92.1,222.2 91.7,214.8 "/>
<path class="st0" d="M91,183.2c-6.2,0-11.2-5-11.2-11.2c0-6.2,5-11.2,11.2-11.2c6.2,0,11.2,5,11.2,11.2c0,0,0,0,0,0
	C102.2,178.2,97.2,183.2,91,183.2z M91,164.3c-4.2,0-7.6,3.4-7.7,7.6c0,4.2,3.4,7.6,7.6,7.7c4.2,0,7.6-3.4,7.7-7.6c0,0,0,0,0,0
	C98.6,167.8,95.2,164.4,91,164.3L91,164.3z"/>
<g class="st1">
	<path class="st2" d="M91.1,182c-5.6,0-10.2-4.6-10.1-10.2c0-5.6,4.6-10.2,10.2-10.1c5.6,0,10.1,4.6,10.2,10.2
		C101.3,177.5,96.7,182,91.1,182z M91.1,162.9c-5,0-9,4-9,9s4,9,9,9s9-4,9-9C100.1,166.9,96.1,162.9,91.1,162.9L91.1,162.9z"/>
</g>
<path class="st3" d="M86.9,163.3c-0.5-0.1-1.1,0-1.6,0.2l-0.6,0.4c-0.9,1.4-2.3,2.3-3,3.8c-0.4,0.8-0.6,1.7-0.7,2.6
	c-0.1,1,0.1,2.4,1,1.1s0.8-3.5,1.8-4.9C84.4,165.6,87.1,164.4,86.9,163.3z"/>
<path class="st3" d="M100.5,173.1c-0.9-0.2-1.6,3.6-2.3,4.6c-1.2,1.5-2.8,2.5-4.7,2.8l-0.4,0.1c-1,0-0.8,0.7,0,0.8
	c0.6-0.1,1.2-0.2,1.8-0.5c1-0.5,2-1.1,2.8-1.9C99.2,177.8,101.3,175.3,100.5,173.1z"/>
<path class="st0" d="M94.2,193.6c0,1-1.1,1.9-2.5,1.9l0,0c-1.4,0-2.5-0.8-2.5-1.9V178c0-1,1.1-1.9,2.5-1.9l0,0
	c1.4,0,2.5,0.8,2.5,1.9V193.6z"/>
<path class="st5" d="M92.8,188.9c0,0.7-0.7,1.3-1.4,1.3l0,0c-0.7,0-1.4-0.5-1.4-1.3c0,0,0,0,0,0v-10.6c0-0.7,0.7-1.3,1.4-1.3
	c0,0,0,0,0,0l0,0c0.7,0,1.4,0.5,1.4,1.3L92.8,188.9z"/>
<path class="st3" d="M91.3,182.8c-0.2-1.5,0.5-2.8,0.3-4.2c-0.2-0.1-0.4-0.2-0.6-0.2h-0.1c-0.9,0.9-0.1,3.1-0.2,4.3
	c0,0.6-0.8,3.8,0.3,3.8S91.3,183.4,91.3,182.8z"/>
<path class="st0" d="M91.1,152.7c-6.2,0-11.3-5-11.3-11.3s5-11.3,11.3-11.3s11.3,5,11.3,11.3C102.3,147.7,97.3,152.7,91.1,152.7z
	 M91.1,133.8c-4.2,0-7.6,3.4-7.6,7.6c0,4.2,3.4,7.6,7.6,7.6c4.2,0,7.6-3.4,7.6-7.6c0,0,0,0,0,0C98.7,137.2,95.3,133.8,91.1,133.8z"
	/>
<g class="st1">
	<path class="st2" d="M91.2,151.5c-5.6,0-10.2-4.6-10.2-10.2c0-5.6,4.6-10.2,10.2-10.2c5.6,0,10.2,4.6,10.2,10.2l0,0
		C101.4,147,96.8,151.5,91.2,151.5z M91.2,132.4c-5,0-9,4-9,9s4,9,9,9s9-4,9-9C100.2,136.4,96.2,132.4,91.2,132.4L91.2,132.4z"/>
</g>
<path class="st3" d="M87.1,132.8c-0.5-0.1-1.1,0-1.6,0.2l-0.6,0.4c-0.9,1.4-2.3,2.3-3,3.8c-0.4,0.8-0.6,1.7-0.7,2.6
	c-0.1,1,0.1,2.4,1,1.1s0.8-3.5,1.8-4.9C84.5,135.1,87.3,133.8,87.1,132.8z"/>
<path class="st3" d="M100.6,142.6c-0.9-0.2-1.6,3.6-2.3,4.6c-1.2,1.5-2.8,2.4-4.7,2.8l-0.4,0.1c-1,0-0.8,0.7,0,0.8
	c0.6-0.1,1.2-0.2,1.8-0.5c1-0.4,2-1.1,2.8-1.9C99.3,147.2,101.5,144.7,100.6,142.6z"/>
<path class="st0" d="M94.2,165.5c0,1-1.1,1.9-2.5,1.9l0,0c-1.4,0-2.5-0.8-2.5-1.9v-15.6c0-1,1.1-1.9,2.5-1.9l0,0
	c1.4,0,2.5,0.8,2.5,1.9V165.5z"/>
<path class="st5" d="M92.7,160.8c0,0.7-0.7,1.3-1.4,1.3l0,0c-0.7,0-1.4-0.5-1.4-1.3v-10.6c0-0.7,0.7-1.3,1.4-1.3c0,0,0,0,0,0l0,0
	c0.7,0,1.4,0.5,1.4,1.3V160.8z"/>
<path class="st3" d="M91.2,154.7c-0.2-1.5,0.5-2.8,0.3-4.2c-0.2-0.1-0.4-0.2-0.6-0.2h-0.1c-0.9,0.9-0.1,3.1-0.2,4.3
	c0,0.6-0.8,3.8,0.3,3.8S91.3,155.3,91.2,154.7z"/>
<path class="st0" d="M91.1,121.2c-6.2,0-11.2-5-11.2-11.3s5-11.2,11.3-11.2s11.2,5,11.2,11.3c0,0,0,0,0,0.1
	C102.3,116.2,97.3,121.2,91.1,121.2z M91.1,102.3c-4.2,0-7.6,3.4-7.6,7.6c0,4.2,3.4,7.6,7.6,7.6c4.2,0,7.6-3.4,7.6-7.6
	C98.8,105.8,95.4,102.3,91.1,102.3C91.1,102.3,91.1,102.3,91.1,102.3z"/>
<g class="st1">
	<path class="st2" d="M91.2,120c-5.6,0-10.2-4.6-10.2-10.2c0-5.6,4.6-10.2,10.2-10.2c5.6,0,10.2,4.6,10.2,10.2c0,0,0,0,0,0
		C101.4,115.5,96.8,120,91.2,120z M91.2,100.9c-5,0-9,4-9,9s4,9,9,9s9-4,9-9l0,0C100.2,104.9,96.2,100.9,91.2,100.9
		C91.2,100.9,91.2,100.9,91.2,100.9L91.2,100.9z"/>
</g>
<path class="st3" d="M87.1,101.3c-0.5-0.1-1.1,0-1.6,0.2l-0.6,0.4c-0.9,1.4-2.3,2.3-3,3.8c-0.4,0.8-0.6,1.7-0.7,2.7
	c-0.1,1,0.1,2.3,1,1.1s0.8-3.5,1.8-4.9C84.5,103.5,87.3,102.3,87.1,101.3z"/>
<path class="st3" d="M100.6,111.1c-0.9-0.2-1.6,3.6-2.3,4.6c-1.2,1.5-2.8,2.4-4.7,2.8l-0.4,0.1c-1,0-0.8,0.7,0,0.8
	c0.6-0.1,1.2-0.2,1.8-0.5c1-0.4,2-1.1,2.8-1.9C99.3,115.7,101.5,113.2,100.6,111.1z"/>
<path class="st0" d="M94.2,134c0,1-1.1,1.9-2.5,1.9l0,0c-1.4,0-2.5-0.8-2.5-1.9v-15.6c0-1,1.1-1.8,2.5-1.8l0,0
	c1.4,0,2.5,0.8,2.5,1.8V134z"/>
<path class="st5" d="M92.7,129.3c0,0.7-0.7,1.3-1.4,1.3l0,0c-0.7,0-1.4-0.5-1.4-1.3v-10.7c0-0.7,0.7-1.3,1.4-1.3l0,0
	c0.7,0,1.4,0.5,1.4,1.3V129.3z"/>
<path class="st3" d="M91.2,123.2c-0.2-1.5,0.5-2.8,0.3-4.2c-0.2-0.1-0.4-0.2-0.6-0.2h-0.1c-0.9,0.9-0.1,3.1-0.2,4.3
	c0,0.7-0.8,3.8,0.3,3.8S91.3,123.8,91.2,123.2z"/>
<path class="st0" d="M91.1,89.4c-6.2,0-11.3-5-11.3-11.3s5-11.3,11.3-11.3s11.3,5,11.3,11.3l0,0C102.3,84.4,97.3,89.4,91.1,89.4z
	 M91.1,70.5c-4.2,0-7.6,3.4-7.6,7.6c0,4.2,3.4,7.6,7.6,7.6c4.2,0,7.6-3.4,7.6-7.6l0,0C98.7,73.9,95.3,70.5,91.1,70.5z"/>
<g class="st1">
	<path class="st2" d="M91.2,88.2c-5.6,0-10.2-4.6-10.1-10.2c0-5.6,4.6-10.2,10.2-10.1c5.6,0,10.1,4.5,10.1,10.1
		C101.4,83.6,96.9,88.2,91.2,88.2C91.2,88.2,91.2,88.2,91.2,88.2z M91.2,69.1c-5,0-9,4-9,9s4,9,9,9s9-4,9-9S96.2,69.1,91.2,69.1z"/>
</g>
<path class="st3" d="M87.1,69.4c-0.5-0.1-1.1,0-1.6,0.2L84.9,70c-0.9,1.4-2.3,2.3-3,3.8c-0.4,0.8-0.6,1.7-0.7,2.7
	c-0.1,1,0.1,2.3,1,1.1s0.8-3.5,1.8-4.9C84.5,71.8,87.3,70.5,87.1,69.4z"/>
<path class="st3" d="M100.6,79.3c-0.9-0.2-1.6,3.7-2.3,4.6c-1.2,1.5-2.8,2.5-4.7,2.8l-0.4,0.1c-1,0-0.8,0.7,0,0.8
	c0.6-0.1,1.2-0.2,1.8-0.5c1-0.4,2-1.1,2.8-1.9C99.3,83.9,101.5,81.4,100.6,79.3z"/>
<path class="st0" d="M94.2,102.2c0,1-1.1,1.8-2.5,1.8l0,0c-1.4,0-2.5-0.8-2.5-1.8V86.6c0-1,1.1-1.8,2.5-1.8l0,0
	c1.4,0,2.5,0.8,2.5,1.8V102.2z"/>
<path class="st5" d="M92.7,97.5c0,0.7-0.7,1.3-1.4,1.3l0,0c-0.7,0-1.4-0.5-1.4-1.3c0,0,0,0,0,0V86.8c0-0.7,0.7-1.3,1.4-1.3l0,0
	c0.7,0,1.4,0.5,1.4,1.3V97.5z"/>
<path class="st3" d="M91.2,91.4c-0.2-1.4,0.5-2.8,0.3-4.2C91.3,87,91.1,87,90.9,87h-0.1c-0.9,0.9-0.1,3.1-0.2,4.3
	c0,0.7-0.8,3.8,0.3,3.8S91.3,92,91.2,91.4z"/>
<path class="st0" d="M91.1,57.8c-6.2,0-11.3-5-11.3-11.3s5-11.3,11.3-11.3s11.3,5,11.3,11.3C102.3,52.7,97.3,57.8,91.1,57.8z
	 M91.1,38.9c-4.2,0-7.6,3.4-7.6,7.6s3.4,7.6,7.6,7.6c4.2,0,7.6-3.4,7.6-7.6l0,0C98.7,42.3,95.3,38.9,91.1,38.9z"/>
<g class="st1">
	<path class="st2" d="M91.2,56.6c-5.6,0-10.2-4.6-10.1-10.2c0-5.6,4.6-10.2,10.2-10.1c5.6,0,10.2,4.6,10.2,10.2
		C101.4,52,96.8,56.6,91.2,56.6z M91.2,37.4c-5,0-9,4-9,9s4,9,9,9s9-4,9-9S96.2,37.5,91.2,37.4z"/>
</g>
<path class="st3" d="M87.1,37.8c-0.5-0.1-1.1,0-1.6,0.2l-0.6,0.4c-0.9,1.4-2.3,2.3-3,3.8c-0.4,0.8-0.6,1.7-0.7,2.7
	c-0.1,1,0.1,2.3,1,1.1s0.8-3.5,1.8-4.9C84.5,40.1,87.3,38.9,87.1,37.8z"/>
<path class="st3" d="M100.6,47.7c-0.9-0.2-1.6,3.7-2.3,4.5c-1.2,1.5-2.8,2.4-4.7,2.8l-0.4,0.1c-1,0-0.8,0.7,0,0.8
	c0.6-0.1,1.2-0.2,1.8-0.5c1-0.4,2-1.1,2.8-1.9C99.3,52.3,101.5,49.8,100.6,47.7z"/>
<path class="st0" d="M94.2,70.6c0,1-1.1,1.8-2.5,1.8l0,0c-1.4,0-2.5-0.8-2.5-1.8V55c0-1,1.1-1.8,2.5-1.8l0,0c1.4,0,2.5,0.8,2.5,1.8
	V70.6z"/>
<path class="st5" d="M92.7,65.9c0,0.7-0.7,1.3-1.4,1.3l0,0c-0.7,0-1.4-0.5-1.4-1.3c0,0,0,0,0,0V55.2c0.1-0.7,0.7-1.3,1.4-1.2l0,0
	c0.7,0,1.4,0.5,1.4,1.3L92.7,65.9z"/>
<path class="st3" d="M91.2,59.8c-0.2-1.5,0.5-2.8,0.3-4.2c-0.2-0.1-0.4-0.2-0.6-0.2h-0.1c-0.9,0.9-0.1,3.1-0.2,4.3
	c0,0.7-0.8,3.8,0.3,3.8S91.3,60.3,91.2,59.8z"/>
<path class="st0" d="M91.1,27.8c-6.2,0-11.3-5-11.3-11.3s5-11.3,11.3-11.3s11.3,5,11.3,11.3C102.3,22.7,97.3,27.8,91.1,27.8z
	 M91.1,8.9c-4.2,0-7.6,3.4-7.6,7.6s3.4,7.6,7.6,7.6c4.2,0,7.6-3.4,7.6-7.6l0,0C98.7,12.3,95.3,8.9,91.1,8.9z"/>
<g class="st1">
	<path class="st2" d="M91.2,26.6c-5.6,0-10.2-4.6-10.1-10.2c0-5.6,4.6-10.2,10.2-10.1c5.6,0,10.2,4.6,10.2,10.2
		C101.4,22,96.8,26.6,91.2,26.6z M91.2,7.4c-5,0-9,4-9,9s4,9,9,9s9-4,9-9S96.2,7.4,91.2,7.4z"/>
</g>
<path class="st3" d="M87.1,7.8c-0.5-0.1-1.1,0-1.6,0.2l-0.6,0.4c-0.9,1.4-2.3,2.3-3,3.9c-0.4,0.8-0.6,1.7-0.7,2.6
	c-0.1,1,0.1,2.4,1,1.1s0.8-3.5,1.8-4.9C84.5,10.1,87.3,8.9,87.1,7.8z"/>
<path class="st3" d="M100.6,17.7c-0.9-0.2-1.6,3.6-2.3,4.6c-1.2,1.5-2.8,2.4-4.7,2.8l-0.4,0.1c-1,0-0.8,0.7,0,0.8
	c0.6-0.1,1.2-0.2,1.8-0.5c1-0.4,2-1.1,2.8-1.9C99.3,22.3,101.5,19.8,100.6,17.7z"/>
<path class="st0" d="M94.2,40.6c0,1-1.1,1.8-2.5,1.8l0,0c-1.4,0-2.5-0.8-2.5-1.8V25c0-1,1.1-1.9,2.5-1.9l0,0c1.4,0,2.5,0.8,2.5,1.9
	V40.6z"/>
<path class="st5" d="M92.7,35.9c0,0.7-0.7,1.3-1.4,1.3l0,0c-0.7,0-1.4-0.5-1.4-1.3c0,0,0,0,0,0V25.2c0.1-0.7,0.7-1.3,1.4-1.2l0,0
	c0.7,0,1.4,0.5,1.4,1.3L92.7,35.9z"/>
<path class="st3" d="M91.2,29.8c-0.2-1.5,0.5-2.8,0.3-4.2c-0.2-0.1-0.4-0.2-0.6-0.2h-0.1c-0.9,0.9-0.1,3.1-0.2,4.3
	c0,0.6-0.8,3.8,0.3,3.8S91.3,30.3,91.2,29.8z"/>
<path class="st6" d="M30.8,222.5h488.4c15,0,27.1,12.1,27.1,27.1v268c0,15-12.1,27.1-27.1,27.1H30.8c-15,0-27.1-12.1-27.1-27.1v-268
	C3.7,234.6,15.8,222.5,30.8,222.5z"/>
<linearGradient id="SVGID_1_" gradientUnits="userSpaceOnUse" x1="275.005" y1="-6.83" x2="275.005" y2="349.96" gradientTransform="matrix(1 0 0 -1 0 552)">
	<stop  offset="0" style="stop-color:#B11107"/>
	<stop  offset="0.26" style="stop-color:#C21608"/>
	<stop  offset="0.72" style="stop-color:#DA1E0A"/>
	<stop  offset="1" style="stop-color:#E3210B"/>
</linearGradient>
<path class="st7" d="M30.8,224.2h488.4c14.1,0,25.4,11.4,25.4,25.4v268c0,14.1-11.4,25.4-25.4,25.4H30.8
	c-14.1,0-25.4-11.4-25.4-25.4v-268C5.3,235.6,16.7,224.2,30.8,224.2z"/>
<path class="st6" d="M30.8,241.1h488.4c4.7,0,8.5,3.8,8.5,8.5v268c0,4.7-3.8,8.5-8.5,8.5H30.8c-4.7,0-8.5-3.8-8.5-8.5v-268
	C22.3,244.9,26.1,241.1,30.8,241.1z"/>
<path class="st8" d="M30.8,242.8h488.4c3.7,0,6.8,3,6.8,6.8v268c0,3.7-3,6.8-6.8,6.8H30.8c-3.7,0-6.8-3-6.8-6.8v-268
	C24,245.9,27,242.8,30.8,242.8z"/>
<path class="st9" d="M30.8,247.6h488.4c0.9,0,1.7,0.8,1.7,1.7v267.9c0,0.9-0.8,1.7-1.7,1.7H30.8c-0.9,0-1.7-0.8-1.7-1.7V249.3
	C29.1,248.4,29.9,247.6,30.8,247.6z"/>
<g>
	<defs>
		<path id="SVGID_2_" d="M30.8,247.6h488.4c0.9,0,1.7,0.8,1.7,1.7v267.9c0,0.9-0.8,1.7-1.7,1.7H30.8c-0.9,0-1.7-0.8-1.7-1.7V249.3
			C29.1,248.4,29.9,247.6,30.8,247.6z"/>
	</defs>
	<clipPath id="SVGID_3_">
		<use xlink:href="#SVGID_2_"  style="overflow:visible;"/>
	</clipPath>
	<g class="st10">
		<g>
			<defs>
				<rect id="SVGID_4_" x="-148.6" y="241.1" width="847.2" height="282.4"/>
			</defs>
			<clipPath id="SVGID_5_">
				<use xlink:href="#SVGID_4_"  style="overflow:visible;"/>
			</clipPath>
			<g class="st11">
				<polygon class="st12" points="550.8,510.9 551.5,203.2 0,203.2 0,509 				"/>
				
					<linearGradient id="SVGID_6_" gradientUnits="userSpaceOnUse" x1="31.8843" y1="52.7993" x2="27.2643" y2="289.0593" gradientTransform="matrix(1 0 0 -1 0 552)">
					<stop  offset="0" style="stop-color:#8C7D62"/>
					<stop  offset="0.29" style="stop-color:#817C63"/>
					<stop  offset="0.78" style="stop-color:#727B64"/>
				</linearGradient>
				<path class="st13" d="M105.9,484.5c0.2-0.5-1.2-1.4-2.3-3.3c-0.8-1.4-1.3-2.9-1.5-4.5c-1-4.8-4.9-10.5-6.1-12.6
					c-4-6.8-6-16.9-9.1-33.7c-1.4-7.3-2.9-17.1-4-28.9c-0.2-16.8,1.7-29.4,5.5-36.7c4.2-8.1,7.9-16.4,11-24.9c0,0,22.7,1.3,24.7,0
					s7.5-7.3,6.5-22.8l0.3-3.7l-5.8,2c0,0-1.8,13.9-9.3,15c-8.9,1.5-19.1-5.2-17.6-15h-6.5c0,0,2,28.6-7.8,34.7
					c-7.3,2.4-11.7-1.4-11.3-18.1l0.3-16.8H61.2c0,0,0.7,17.8,0,18.9s-5.8,12.1-11.3-10.6c-4.7-16-2-8.3-2-8.3l-6.3,0.2
					c0,0,2.8,17.6,12.2,28.6c6.2,10.6,6.3,28.3,1.7,34.6c-5,6.3-13.5,9.7-20-27.4c-4.3-24.6-5.5-35.8-5.5-35.8l-9-0.1
					c0,0,3.7,29.4,3,34.6c-0.8,5.8-1.2,23.8-20.8,16.2c-10.2-1.8-30.6-8.5-39.1-28.3c-3.2-16.9-2.5-23.3-2.5-23.3l-7.3-0.2
					c0,0,0.2,9.7,1.7,12.3c-4.6,0.4-9.2-0.9-13.1-3.5c-7.5-5.1-10.6-13.8-11.4-16.3l-5.9-0.3c1.3,4.5,3.3,8.8,6,12.7
					c5.8,8.5,13.8,13.2,19.8,14.3c1.2,0.2,5.8,1,5.8,1.2c0,0.1-0.3,0.1-0.3,0.1s1.5,25.5,25,37.2c21,10.2,30.1,15.3,35.5,19.5
					s9,8.4,8.1,22.5c-0.8,11.2-0.3,22.5,1.5,33.6c2,12.6,5.9,24.8,11.5,36.2c18,0.7,29.6,0.8,37,0.7c14.9-0.2,23.3-1.1,27.8,0.2
					C103.1,484.5,105.7,485.2,105.9,484.5z"/>
				<path class="st14" d="M82.5,397.8c-5.8,4.3-10.6,9.9-14.1,16.2c-15.9,28.3-5.1,65.5-3.9,69.5l42.1,1c-3-5.4-5.7-10.9-8.1-16.6
					C87.4,442,83.7,416.7,82.5,397.8z"/>
				<path class="st15" d="M34,344.3c0,0,7.8,37.5,13.9,37.2C41.6,385.3,29.8,374.9,34,344.3z"/>
				<path class="st16" d="M77.7,442.9c-0.8,0.2-1.7,0.4-2.6,0.4c-0.9,0-1.8-0.2-2.4-0.8c-0.6-0.7-0.9-1.6-0.7-2.5
					c0.1-0.9,0.3-1.7,0.7-2.5c0.6-1.6,1.5-3.1,2.5-4.5c1-1.4,2.3-2.7,3.7-3.6c1.1-1,2.9-0.9,3.9,0.2c0.3,0.3,0.5,0.7,0.6,1.2
					c0.6,1.6,1,3.4,1,5.1c0.1,3.5-0.3,6.9-1.2,10.3v0.1c-1.5,3.6-3.8,6.8-6.6,9.5c-0.8,0.7-1.7,1.2-2.6,1.5c-0.5,0.2-1,0.2-1.6,0.1
					c-0.5-0.1-1-0.4-1.4-0.8c-1.3-1.5-2.1-3.4-2.4-5.3c-0.7-3.8-0.9-7.6-0.7-11.5l0.5-11.5l-0.1,11.5c-0.2,3.8,0.1,7.6,0.9,11.4
					c0.4,1.8,1,3.7,2.3,5c0.3,0.3,0.7,0.5,1.1,0.6c0.4,0.1,0.9,0,1.3-0.1c0.9-0.3,1.7-0.8,2.3-1.4c2.7-2.7,4.8-5.8,6.4-9.3v0.1
					c0.8-3.3,1.2-6.7,1.2-10.1c0-1.7-0.3-3.4-0.9-4.9c-0.2-0.8-0.8-1.4-1.5-1.7c-0.8-0.2-1.6,0-2.2,0.5c-1.4,0.9-2.7,2.1-3.7,3.5
					c-1,1.4-1.9,2.8-2.6,4.4c-0.3,0.8-0.6,1.6-0.7,2.4c-0.2,0.8,0,1.7,0.6,2.3c0.7,0.5,1.5,0.8,2.3,0.8
					C76,443.1,76.8,443.1,77.7,442.9z"/>
				<path class="st17" d="M-82.9,231.7c1.8-16.2,6.6-40.6,20.9-60.5c38.7-53.8,112.9-28.8,136.6-20.7
					c58.6,19.9,96.5,67.4,115.1,95.1l9.2,8.9c-48.3,10.9-97.7,16-147.2,15.2c-43.1-0.7-86-5.9-128.1-15.4L-82.9,231.7z"/>
				<path class="st18" d="M-82.4,230.8c1.8-15.6,6.5-39,20.7-58.2c38.3-51.8,111.7-27.7,135.2-20c58,19.1,95.5,64.9,113.9,91.6
					l9.1,8.6c-47.8,10.5-96.7,15.4-145.6,14.6c-42.6-0.7-85.1-5.7-126.7-14.9L-82.4,230.8z"/>
				<path class="st19" d="M158.4,241.2c0,0,52.1-15.3,75.2,31.4c15,36.3,17.7,48-75.2,41.4C142.7,255.9,158.4,241.2,158.4,241.2z"/>
				<path class="st20" d="M189.5,266.7c-17-40.1-45.7-61.9-84-77.6C55.9,172.3,15,208.7-15.9,225c-28.3,10.9-55.3,38.5-55.3,38.5
					c-37.4,45,31.3,51.4,31.3,51.4l175.9-0.4C199.1,318.3,197.8,290.1,189.5,266.7z"/>
				<path class="st15" d="M130.9,315.7c0,0,0.8,16.1-5,22.4c-1.7,2.2-3.1,2.1-5.2,2.2c0,0,5.8-2.5,7.3-10.7
					c0.9-4.8,1.4-9.6,1.5-14.4h1.4L130.9,315.7z"/>
				<path class="st15" d="M72.8,315.1c-0.2,2.8-0.3,12.7-0.3,14.6c0.4,8.4,0.9,18,5.1,20.4c1,0.5,2.1,0.7,3.2,0.5l1.6-0.2
					c-2,3.1-3.7,3.4-4.3,3.4c-3.5,0.2-7.5-5.6-8.5-15.1c-0.6-4.5-0.9-9-0.7-13.5c0.2-3.8,0.7-10.1,0.7-10.1S72.8,315.1,72.8,315.1z"
					/>
				<path class="st21" d="M-153.9,365.9c0.8,24.8,0.6,49.6-1,74.5c-1.4,22.4-3.6,44.7-5.7,67H176c0,0-45.5-66.2-96.7-29.4
					c0,0-26.4-77.2-89.4-34.9c29.3-40.4-41-104.8-67.4-56.5C-88.8,364.3-135.5,342.3-153.9,365.9z"/>
				
					<linearGradient id="SVGID_7_" gradientUnits="userSpaceOnUse" x1="187.0268" y1="80.7799" x2="181.7267" y2="352.1899" gradientTransform="matrix(1 0 0 -1 0 552)">
					<stop  offset="0" style="stop-color:#877E62"/>
					<stop  offset="0.28" style="stop-color:#7C7C63"/>
					<stop  offset="0.76" style="stop-color:#6D7A65"/>
				</linearGradient>
				<path class="st22" d="M266.2,454.5c0.2-0.6-1.3-1.6-2.5-3.8c-0.8-1.6-1.4-3.4-1.6-5.2c-1.1-5.5-5.2-12.1-6.6-14.5
					c-4.4-7.8-6.4-19.4-9.8-38.8c-1.5-8.4-3.1-19.7-4.3-33.2c-0.2-19.3,1.8-33.8,5.9-42.2c4.5-9.3,8.5-18.9,11.9-28.6
					c0,0,24.4,1.5,26.5,0s8-8.4,7-26.3l0.4-4.3l-6.3,2.3c0,0-1.9,16-10,17.3c-9.6,1.7-20.6-6-19-17.3h-7c0,0,2.1,32.9-8.4,39.9
					c-7.9,2.7-12.5-1.6-12.2-20.9l0.4-19.3h-12.5c0,0,0.7,20.5,0,21.7s-6.3,13.9-12.2-12.2c-5-18.4-2.1-9.5-2.1-9.5l-6.8,0.2
					c0,0,3,20.3,13,32.9c6.6,12.2,6.8,32.6,1.8,39.8c-5.4,7.2-14.5,11.2-21.4-31.6c-4.6-28.3-5.9-41.1-5.9-41.1l-9.6-0.1
					c0,0,3.9,33.8,3.2,39.8c-0.9,6.7-1.3,27.3-22.3,18.6c-10.9-2.1-32.9-9.7-42-32.6c-3.4-19.4-2.7-26.8-2.7-26.8l-7.9-0.3
					c0,0,0.2,11.2,1.8,14.2c-5,0.4-10-1-14-4c-8.1-5.9-11.4-15.8-12.2-18.8l-6.3-0.3c1.4,5.2,3.5,10.1,6.4,14.6
					c6.2,9.8,14.9,15.2,21.2,16.5c1.3,0.3,6.3,1.1,6.2,1.4c0,0.1-0.3,0.1-0.3,0.1s1.6,29.3,26.8,42.7c22.5,11.7,32.4,17.6,38.1,22.4
					s9.6,9.7,8.8,25.9c-0.9,12.9-0.4,25.9,1.6,38.6c2.2,14.4,6.3,28.4,12.3,41.6c19.4,0.8,31.8,0.9,39.8,0.8
					c16-0.2,25.1-1.3,29.9,0.3C263.2,454.4,266,455.3,266.2,454.5z"/>
				<path class="st23" d="M241.1,354.7c-6.3,5.1-11.5,11.4-15.2,18.6c-17.1,32.5-5.5,75.3-4.1,80l45.2,1.1c-3-5.7-5.9-12.1-8.7-19.1
					C246.4,405.6,242.4,376.4,241.1,354.7z"/>
				<path class="st24" d="M189,293.1c0,0,8.4,43.1,14.9,42.8C197.2,340.3,184.5,328.4,189,293.1z"/>
				<path class="st16" d="M235.9,406.5c-0.9,0.3-1.9,0.4-2.9,0.4c-1,0-2-0.4-2.6-1.1c-0.6-0.8-0.8-1.9-0.6-2.8
					c0.1-1,0.4-1.9,0.8-2.8c0.7-1.8,1.6-3.6,2.7-5.1c1.1-1.7,2.5-3.1,4.1-4.2c0.4-0.3,0.9-0.5,1.4-0.6c0.5-0.1,1.1,0,1.6,0.2
					c0.2,0.1,0.5,0.3,0.6,0.5c0.2,0.2,0.3,0.4,0.5,0.6c0.3,0.4,0.5,0.9,0.6,1.4c0.6,1.9,0.9,3.8,0.9,5.8c0,3.9-0.4,7.8-1.3,11.6v0.1
					c-0.9,2-1.9,4-3,5.8c-1.1,1.9-2.5,3.6-4.1,5.1c-0.8,0.8-1.8,1.4-2.9,1.8c-0.6,0.2-1.2,0.1-1.8-0.1c-0.6-0.2-1-0.5-1.4-1
					c-0.7-0.9-1.2-1.9-1.5-3c-0.4-1-0.6-2.1-0.8-3.2c-0.7-4.3-0.9-8.7-0.7-13l0.5-13l-0.1,13c-0.2,4.3,0.1,8.7,0.9,12.9
					c0.3,2.1,1.1,4.1,2.2,5.9c0.6,0.8,1.6,1.2,2.6,0.9c1-0.3,1.9-0.9,2.6-1.6c3.1-3,5.1-6.9,6.9-10.8v0.1c0.9-3.7,1.3-7.6,1.3-11.4
					c0-1.9-0.3-3.8-0.8-5.6c-0.2-0.9-0.8-1.6-1.5-2.2c-0.4-0.2-0.8-0.3-1.2-0.2c-0.4,0.1-0.9,0.3-1.3,0.5c-1.6,1.1-2.9,2.4-4,4
					c-1.1,1.6-2,3.2-2.8,5c-0.4,0.9-0.7,1.8-0.8,2.7c-0.2,0.9,0,1.9,0.5,2.7c0.6,0.7,1.6,1.1,2.5,1.1
					C234,406.9,234.9,406.8,235.9,406.5z"/>
				<path class="st15" d="M230.7,259.5c-0.3,3.3-0.4,14.6-0.3,16.8c0.4,9.6,0.9,20.7,5.4,23.5c1,0.6,2.2,0.8,3.4,0.6l1.7-0.3
					c-2.1,3.6-4,3.9-4.6,4c-3.7,0.2-8.1-6.5-9.1-17.3c-0.7-5.2-0.9-10.4-0.8-15.6c0.2-4.3,0.8-11.6,0.8-11.6L230.7,259.5
					L230.7,259.5z"/>
				<path class="st25" d="M68.7,247.8c0,0,17.8,52.2,49.6,10c0,0,9.7,33,46.5,6.6c0,0,34,21.8,52.3-3.9c0,0,5.6,58.1,42.3,3.3
					c0,0,27.3,26.6,48.5-4c0,0-13.9,25.4,13.2,11.3c0,0,23.1,7.7,22.8-16.7c0,0,41.2-29.5-7.1-23.8c0,0-17-41.6-54.4,3.4
					c0,0-4.3-8.8-16.5-3.3c0,0-2.6-45.8-24-7.7c0,0-6.5,4.9-18,1.3c0,0-11.6-22.3-20.5,7.2c0,0-49.9-38.7-51-37.7
					s-19.7,14.4-22.5,22S68.7,247.8,68.7,247.8z"/>
				<path class="st26" d="M134.3,274.9c0,0-18.9-49.9-60.2,4.1c0,0-4.8-10.5-18.2-3.9c0,0-2.9-54.9-26.5-9.2c0,0-7.2,5.9-19.9,1.5
					c0,0-12.8-26.7-22.7,8.6c0,0-55.2-46.4-56.5-45.2s-21.8,17.2-24.9,26.3c-2,5.9-29.8,20.3-49.2,29.7c0.2,12.7,0.7,25.4,1.4,38.1
					c8.9,5,20.7,3.1,35-17.4c0,0,10.8,39.6,51.4,7.9c0,0,37.6,26.1,57.8-4.6c0,0,6.2,69.7,46.8,3.9c0,0,30.2,31.9,53.6-4.9
					c0,0-15.4,30.5,14.6,13.6c0,0,25.5,9.3,25.3-20C142.1,303.5,187.7,268.1,134.3,274.9z"/>
				
					<linearGradient id="SVGID_8_" gradientUnits="userSpaceOnUse" x1="238.83" y1="145.97" x2="570.507" y2="145.97" gradientTransform="matrix(1 0 0 -1 0 552)">
					<stop  offset="0" style="stop-color:#43B555"/>
					<stop  offset="3.000000e-02" style="stop-color:#40B255"/>
					<stop  offset="0.27" style="stop-color:#289B52"/>
					<stop  offset="0.49" style="stop-color:#1A8E50"/>
					<stop  offset="0.68" style="stop-color:#15894F"/>
				</linearGradient>
				<path class="st27" d="M570.5,458.4c0.2-7.8-0.8-15.5-1-23.2c-0.2-7.4,0-14.9,0.7-22.3l0.3-2.8c0-1.3,0-2.6,0-3.9
					c0.2-20.6-0.6-41.3-0.6-61.9c0-4.2,0-8.5,0-12.7l-33.8,2.2c0,0,0.2-5.9-13.1,15.7c-15.4-8.9-36.9-7.7-42.3,16.5
					c-17.6-30.4-45-16.5-45,4c-49-60.8-110.8,2.7-129.6,56.7c-38.2,9.1-67.2,53.7-67.2,53.7l330.9-7.4
					C569.9,468.1,570.3,463.3,570.5,458.4z"/>
				
					<linearGradient id="SVGID_9_" gradientUnits="userSpaceOnUse" x1="411.1667" y1="69.6698" x2="405.4866" y2="360.4198" gradientTransform="matrix(1 0 0 -1 0 552)">
					<stop  offset="0" style="stop-color:#907D62"/>
					<stop  offset="0.25" style="stop-color:#877D63"/>
					<stop  offset="0.76" style="stop-color:#787C65"/>
				</linearGradient>
				<path class="st28" d="M516.3,464c0.2-0.6-1.6-1.7-3.2-4.1c-1.1-1.7-1.8-3.6-2.1-5.6c-1.4-5.8-6.9-12.9-8.7-15.5
					c-5.7-8.3-8.4-20.7-12.9-41.4c-2.5-11.7-4.4-23.6-5.6-35.5c-0.3-20.6,2.3-36.1,7.8-45c5.9-9.8,11.1-20,15.6-30.5
					c0,0,32.1,1.5,34.9,0s10.5-8.9,9.2-28l0.5-4.6l-8.3,2.5c0,0-2.5,17.1-13.1,18.4c-12.6,1.9-27-6.4-24.9-18.4h-9.2
					c0,0,2.8,35.1-11,42.6c-10.3,2.9-16.5-1.7-16-22.3l0.5-20.6h-16.4c0,0,0.9,21.9,0,23.2s-8.2,14.9-16-13
					c-6.6-19.6-2.8-10.2-2.8-10.2l-8.9,0.2c0,0,4,21.6,17.1,35.1c8.7,13,8.9,34.7,2.4,42.4c-7,7.7-19,11.9-28.2-33.7
					c-6.1-30.2-7.8-43.9-7.8-43.9l-12.7-0.1c0,0,5.2,36.1,4.2,42.5c-1.2,7.2-1.6,29.2-29.4,19.9c-14.4-2.3-43.2-10.4-55.2-34.7
					c-4.5-20.7-3.5-28.6-3.5-28.6l-10.3-0.3c0,0,0.2,12,2.3,15.1c-6.5,0.5-12.9-1-18.5-4.3c-10.6-6.3-14.9-16.9-16.1-20l-8.3-0.4
					c1.9,5.6,4.7,10.9,8.4,15.6c8.2,10.4,19.5,16.2,27.9,17.6c1.7,0.3,8.2,1.2,8.2,1.5c0,0.1-0.5,0.1-0.5,0.1s2.1,31.3,35.2,45.6
					c29.6,12.5,42.5,18.8,50,23.9s12.7,10.3,11.5,27.6c-1.2,13.8-0.5,27.6,2.1,41.2c2.9,15.6,8.4,30.6,16.2,44.4
					c25.4,0.9,41.8,1,52.3,0.9c21-0.2,33-1.4,39.3,0.3C512.3,463.9,516,464.9,516.3,464z"/>
				<path class="st14" d="M483.3,357.6c-8,5.1-14.8,11.9-20,19.9c-22.5,34.7-7.2,80.4-5.5,85.3l59.4,1.2c-4.2-6.6-8-13.4-11.4-20.4
					C490.3,411.8,485,380.7,483.3,357.6z"/>
				<path class="st15" d="M414.9,291.9c0,0,11,46,19.6,45.6C425.6,342.2,408.9,329.5,414.9,291.9z"/>
				<path class="st16" d="M476.4,412.9c-1.1,0.3-2.2,0.4-3.3,0.4c-1.1,0.1-2.2-0.1-3.3-0.6c-0.5-0.3-0.9-0.7-1.2-1.2
					c-0.2-0.5-0.4-1.1-0.4-1.7c0.1-1.1,0.4-2.2,0.8-3.2c0.9-2,2.1-3.9,3.5-5.6c1.4-1.7,3.1-3.2,5-4.4c1-0.6,2.1-1,3.3-1
					c0.6,0,1.2,0.2,1.7,0.5c0.3,0.2,0.5,0.3,0.7,0.6c0.2,0.2,0.4,0.4,0.5,0.7c1.1,2,1.7,4.2,1.7,6.5c0.1,4.5-0.4,8.9-1.7,13.2l0,0
					l0,0c-1.2,2.2-2.5,4.2-3.9,6.2c-1.5,2-3.2,3.7-5.1,5.3c-1,0.8-2.1,1.4-3.2,1.8c-1.2,0.5-2.6,0.5-3.8-0.1c-1.1-0.6-2-1.6-2.6-2.7
					c-0.6-1.1-1-2.2-1.4-3.4c-1.2-4.7-1.6-9.6-1.3-14.5l0.6-14.5l-0.3,14.5c-0.3,4.8,0.2,9.7,1.5,14.3c0.3,1.1,0.8,2.2,1.3,3.3
					c0.5,1,1.3,1.9,2.3,2.5c1,0.5,2.2,0.5,3.3,0c1.1-0.4,2.1-1,3-1.8c3.7-3,6.5-7.1,8.8-11.3v0.1c1.2-4.2,1.8-8.6,1.7-13
					c0-2.2-0.6-4.3-1.6-6.2c-0.5-0.8-1.4-1.4-2.4-1.5c-1.1,0.1-2.1,0.4-3,0.9c-1.9,1.1-3.5,2.6-4.9,4.3c-1.4,1.7-2.6,3.5-3.6,5.5
					c-0.5,1-0.8,2-0.9,3.1c0,0.5,0.1,1.1,0.3,1.6c0.2,0.5,0.6,0.9,1.1,1.1c1,0.5,2.1,0.7,3.2,0.7
					C474.3,413.2,475.4,413.1,476.4,412.9z"/>
				<path class="st20" d="M251.2,235.8c0,0-1.5,32.4,31.7,22.5c-28.4,47.7,18.6,47.6,44.5,24.4c0.8,40.4,45.9,25.3,53.6,1.9
					c11.8,29.2,57.4,10.6,62.3-11.6c10.2,35,45.7-10.4,45.7-10.4c19.8,29.4,53.4,8.6,55.8-8.4c0,0,31.3,26.7,72,15.8l2.2-1.1
					l-13.4-37.9L251.2,235.8z"/>
				<path class="st20" d="M717.6,253.5l-316.6,4.4c0,0-1.4,29.3,28.5,20.3c-25.6,43,16.7,42.9,40.1,22c0.7,36.4,41.4,22.9,48.4,1.7
					c10.6,26.3,51.7,9.6,56.1-10.5c9.2,31.5,41.2-9.4,41.2-9.4c17.8,26.5,48.2,7.8,50.3-7.5c0,0,21.7,18.6,51.9,16.4
					C717.5,278.4,717.5,265.9,717.6,253.5z"/>
				
					<linearGradient id="SVGID_10_" gradientUnits="userSpaceOnUse" x1="262.92" y1="137.3425" x2="753.54" y2="137.3425" gradientTransform="matrix(1 0 0 -1 0 552)">
					<stop  offset="0" style="stop-color:#43B555"/>
					<stop  offset="3.000000e-02" style="stop-color:#40B255"/>
					<stop  offset="0.27" style="stop-color:#289B52"/>
					<stop  offset="0.49" style="stop-color:#1A8E50"/>
					<stop  offset="0.68" style="stop-color:#15894F"/>
				</linearGradient>
				<path class="st29" d="M719,365.4c-0.4-9.9-0.7-19.8-0.9-29.7c-14.8-37.3-69.7-14-80.7,14.6c-40.7-29.3-85.9,5.3-73.3,26.7
					c-44.3-15.3-86.9,22.2-71.5,41.1c-48-20.4-50.7,31.6-50.7,31.6c-55.2-11.3-79.6,21.6-66,35.3c0,0-67.9-3.3-111.3,26l-1.8,2
					h453.3c0.1-12.4,0.8-24.9,1.9-37.2c1.3-16.3,3.2-32.5,4.4-48.8C721.1,406.4,719.7,386,719,365.4z"/>
				<path class="st21" d="M718.1,475.7c0.1-0.7,0.1-1.4,0.2-2c-8.8-3.4-20.5-4.5-35.8-0.8c3.6-36.3-46.1-39.3-62.3-25.2
					c3.6-39.3-42.5-23.7-51.5-7.8c-16.3-26.5-59.6,8.8-41.6,31c-38.8-23.2-55.1,19.1-55.1,19.1c-31.6-20.2-59.6,16.1-59.6,16.1h304
					C716.6,496,717.2,485.9,718.1,475.7z"/>
				
					<linearGradient id="SVGID_11_" gradientUnits="userSpaceOnUse" x1="161.0201" y1="32.5825" x2="280.9301" y2="194.3825" gradientTransform="matrix(1 0 0 -1 0 552)">
					<stop  offset="0.17" style="stop-color:#24B174"/>
					<stop  offset="0.31" style="stop-color:#3AB575"/>
					<stop  offset="0.48" style="stop-color:#4DBA76"/>
					<stop  offset="0.6" style="stop-color:#54BB76"/>
				</linearGradient>
				<path class="st30" d="M83.7,466.9c0,0,5.5-40.3,45.3-13.4c-2.7-22.4,15.1-26.5,27.4-9.2c-3.4-31.9,25.4-20.7,30.9-10.7
					c0-28.4,26.1-23.7,32.3-10.4c21.3-7.3,32.9,16.6,32.9,16.6c11.7-14.9,30.9-0.7,30.2,15.9c18.5,0.5,38.4,11.2,38.4,11.2H83.7z"/>
				
					<linearGradient id="SVGID_12_" gradientUnits="userSpaceOnUse" x1="152.2785" y1="142.6079" x2="194.2084" y2="368.8679" gradientTransform="matrix(0.9995 3.036406e-02 3.036406e-02 -0.9995 11.5841 614.126)">
					<stop  offset="0" style="stop-color:#43B555"/>
					<stop  offset="3.000000e-02" style="stop-color:#40B255"/>
					<stop  offset="0.27" style="stop-color:#289B52"/>
					<stop  offset="0.49" style="stop-color:#1A8E50"/>
					<stop  offset="0.68" style="stop-color:#15894F"/>
				</linearGradient>
				<path class="st31" d="M159.4,450.8c-1.8-0.1-36.7,1.3-31.5-5.5s33.1-3.3,35.3-1.3s-31.8-10.9-32.9-20.8s26.5,7.7,35.8,14.7
					c-27.6-31.1-28.4-38,5.7-8.9c-20.7-35.1-25-43.6,11.4-2.6c-22.9-53.4-1.3-2-10.6-26.9s4.4-29.9,15.3,18.7c0,0-0.7,10.3,5.1-6.2
					s29.2-25.6,8.6,16.5c11.1-8,10.2-7.5,18.9-13.6s18.7,12.4-13.2,35C183,449.1,159.4,450.8,159.4,450.8z"/>
				
					<linearGradient id="SVGID_13_" gradientUnits="userSpaceOnUse" x1="2324.6711" y1="74.5241" x2="2352.9412" y2="-2.0159" gradientTransform="matrix(-1 0 0 -1 2547.3301 552)">
					<stop  offset="2.000000e-02" style="stop-color:#86D738"/>
					<stop  offset="1" style="stop-color:#4B8A40"/>
				</linearGradient>
				<path class="st32" d="M606.3,462.9c-10.2,2.3-33.1,3.1-82.3,11.1c-16.1,2.6-12.2-0.1-48,1.9c-1.7,0.1-5.5-0.2-7.4-0.1
					c-1.4,0.1-23.2-1.6-24.7-1.5c-0.8,0,15.8,2.1,15,2.2c-3.2,0.2-19.4-1.6-23.2-1.4c-1,0.1-23.1-1.4-24.1-1.4
					c-1.2,0.1,26.4,4.3,25.1,4.4c-8.9,0.5-10-1.6-21.9-0.8c-7.8-0.1-15.6-0.6-23.4-1.6c10.1,3.8,17.7,3.9,16.1,4
					c-3.6,0.2-4.8,0.3-8.7,0.5c0,0-89.8-1.2-94.9-1c0,0-59,0.1-63.7,1s-20.1-1.4-26,0.6s-31.1-1.7-38.2-0.8
					c-7.2,0.7-14.4,1-21.6,0.8c-6.7,0,7.5-4.8,4.3-4.8s-6.7-0.9-11-0.9s-15,0.3-24.8,0.3s-17.5-2.2-19.8-1.7s-14,0.3-18.7,0.5
					s-28.6,1.4-32.9,1.4s-27.6,3.4-31.2,2.5c4.5-0.9,12.9-2.9,14-3.3c-3.5-1-46.7,0.5-67.2,4.9c-16.5,0.1-87,2.3-90,2.5
					c-15.1,0.7-27.4,0.9-35.1,1.2c-0.3,6.5-0.5,13-0.6,19.4c0.3,0.4,0.6,0.9,0.9,1.3c2.6,3.4,4.1,7.6,4.4,11.9
					c1.1,4.2,0.9,8.6-0.7,12.7l-0.3,2H92.5c0,0,31.2-3.8,45.8-3s145.2-1.7,151.9-1.3C365.6,530.6,613.2,470.5,606.3,462.9z"/>
				
					<linearGradient id="SVGID_14_" gradientUnits="userSpaceOnUse" x1="2324.6787" y1="123.599" x2="2324.9187" y2="114.069" gradientTransform="matrix(-1 0 0 -1 2547.3301 552)">
					<stop  offset="2.000000e-02" style="stop-color:#B8EB38"/>
					<stop  offset="0.47" style="stop-color:#86D738"/>
					<stop  offset="1" style="stop-color:#70BD40"/>
				</linearGradient>
				<path class="st33" d="M260.7,433c-0.5,0.4-0.9,0.9-1.2,1.4c-0.1,0.5-1.7-0.5-2.3,0.7s-2.8,0-4.9,1.1s-0.4,0-3.5,0.9s-1,1-3,0.8
					s-2-1.1-4-0.6s-2,1.1-4.1,1.1s-3.6-2.4-5.4-1.8c-1.4,0.5-2.9,1-4.3,1.3c-1.7,0.4-4.2,0.6-5.1,1.3s-2.6-0.2-4.6-0.5
					s-6.5-2.9-7.8-2.4s-2.2-0.1,0-0.6c-0.3-0.5,0.6-1,0.6-1s-8,0.7-10.4,0.7s-4.5-0.7-6.4-1s-3.6-0.7-4.9-0.1s-5.2,1.9-5.2,1.9
					s3.5-2.9,4.5-3s8.3-3.6,12-3.4s20.8-2.5,29-0.6c4.5,0.1,15.4,0.4,22.9,0.9C257.4,430.4,260.3,432.1,260.7,433z"/>
				
					<linearGradient id="SVGID_15_" gradientUnits="userSpaceOnUse" x1="2407.0269" y1="145.6735" x2="2422.2668" y2="72.1335" gradientTransform="matrix(-1 0 0 -1 2547.3301 552)">
					<stop  offset="2.000000e-02" style="stop-color:#78A81F"/>
					<stop  offset="0.98" style="stop-color:#386B1F"/>
				</linearGradient>
				<path class="st34" d="M259.6,434.3c0,0,1.9,2.9,2.7,4.6s6.7,3.6,8.8,5.7c1.8,1.8,7.7-0.1,11.1,1.2c0.5,0.2,9.8,7,10.2,7.1
					c3.6,1.3-3,0.7-3,0.7s-12.4,1.2-14.3,1.1s-4,0.7-6,1s-8.5-1.1-8.5-1.1s9.1,3.9-5.4,0.5c-1.4-0.3,1.9,2.8-12.9,1.4
					c-2.1,1.1-5.5,3.3-6.1,3.5c3.3-2.1-8.2-0.1-8.5,0s-5.1,0.6-5.1,0.6c-1.1,0.6-2.3,1.1-3.6,1.3c-2.4,0.5-4.9-1.1-7.7-1.1
					s-16.6,2-18.5,3.1S171.1,474.1,170,475s-2.6,3.1-5.3,3.9s-68.5,9.1-78.1,12.4c-15.9,5.3-58.5,12.6-61.8,12.3
					c-73.3,6.5-65.4-10.3-65.4-10.3c68.6-5.8,87-24,102.9-19.8c1.5-0.4,33.2-15.2,36.4-14.7c17,2.8,21.4-7.6,33.4-10.2
					c2.2-0.5,5.3-1.3,5.5-1.3c1-0.1,2.7-0.2,4.9-0.3c1.7-0.1,17.4-1.2,20.1-1c1.4-1.4,9.1-6.8,10-6.8c0.5-0.3,9.5,0.7,9.7,0.2
					s1-2.4,1.4-2.5c0.8-1.3,2.2-2.2,3.7-2.5c3.3-1,9.8-3.1,9.8-3.1l-3.6,2.5c0,0,9-1.1,7.8,0.3c-0.9,1.2,5.6,1.2,7.6,1.3
					s5.1-0.1,5.1-0.1c-1.4,0.4-2.8,0.9-4.1,1.5c-0.1,0-0.1,0.1-0.1,0.1c0,0.3,6.3-1.8,7.1-1s2.8-1,3.3-0.3s6-1.2,6.9-1.3
					s-2.1,4.3-1.4,4.4s3.4-2,4.8-1.3c1.2,0.6,2.5,0.8,3.7,0.5c0.8-0.3,3.6-0.7,4.1-0.3s2.4-0.5,2.9,0.1c0.8,0.5,1.7,0.8,2.6,1
					c0.9-0.7,2-1.2,3.1-1.4c0.9-0.1,1.9-0.1,2.9,0c0.3,0,3-2,3.4-1.4s3.5-0.8,3.5-0.8C257.9,435.1,258.8,434.9,259.6,434.3z"/>
				
					<linearGradient id="SVGID_16_" gradientUnits="userSpaceOnUse" x1="196.5337" y1="110.3351" x2="192.4637" y2="97.3851" gradientTransform="matrix(1 0 0 -1 0 552)">
					<stop  offset="2.000000e-02" style="stop-color:#85B038"/>
					<stop  offset="0.47" style="stop-color:#86C238"/>
					<stop  offset="1" style="stop-color:#70B340"/>
				</linearGradient>
				<path class="st35" d="M164.6,444.4c3.1-0.3,6.2-0.4,9.4-0.3c2.7,0.3,5.5,0.4,8.2,0.2c3-0.2,5.3-0.4,6.2-0.5
					c0.5,0,8.6,0.6,7.7,0.8c-1.3,0.3-5.6,1.1-4.5,1.3s2.4,0.3,3,0.5s1.3,0.3,0.6,0.6s-0.7,1.1,0.7,1.1s3.4,0.6,4.9,0.5
					c1.9-0.2,3.9-0.5,5.7-1.1l0.8-0.4c0,0-3.7,2.5-2.2,2s3.6-1.7,4.6-1.9s1.5,0.4,3.4,0.3c0.8,0,1.6-0.1,2.3-0.5
					c-0.8,0.8-1.7,1.6-2.6,2.3c-0.7,0.4,1.3-0.2,2.2-0.7c0.5-0.3,1-0.5,1.5-0.7c0,0,0.4,1.6,1.8,1.1l1.4-0.5c0,0.6-0.1,1.1-0.4,1.6
					c-0.4,0.5-0.2-0.3,0.4-0.5c0.3-0.1,0.6-0.2,0.9-0.4c0,0,0.4,0.7,0.9,0.5s0.8,0.7,0.4,1s0.7,0.3,0.7,0.6s0,0.2,1.2,0.3
					s2.1,0.2,2.9,0.3s-2.4,0.6-4,1.3s-1.9,0.4-3.4,0.9c-2.3,0.7-4.6,1.3-6.9,1.8c-1.5,0.2-6.9,1.7-7.6,1.6s3.6-2,0.8-1.4
					c-2,0.5-4.1,0.7-6.1,0.7c-1.4,0.1-5.6-0.2-6.6-0.1s-4.3,0.1-4.3,0.1s3.4-1.5,4.2-1.7s0.1-0.2-1.1-0.1s-1.2-0.1-2.4,0
					c-1.1,0-2.3-0.2-3.4-0.6c-0.6-0.1,2.1-1.1,0.6-1s-0.8-0.4-2.6-0.3s-4.4-0.7-5.4-0.5s4.4-1.5,5.5-1.9c1.6-0.6,3.3-1,5-1.2
					c0.9,0,1.8-0.1,2.7-0.3c0,0-5.4-0.9-7.2-0.4s-9.1,0.1-10.9,0.3s-6.2,0.2-7,0.3c3.5-1,7.1-1.7,10.7-2.2c-0.8,0-17.7,1.5-16.3,0.8
					c2.1-0.4,3.6-0.9,5.9-1.5c2.7-0.4,5.4-0.6,8.1-0.6c0.9,0-4.4-0.7-4.4-0.7C168.7,444.8,166.7,444.4,164.6,444.4z"/>
				
					<linearGradient id="SVGID_17_" gradientUnits="userSpaceOnUse" x1="2258.0674" y1="104.4661" x2="2280.8801" y2="104.4661" gradientTransform="matrix(-1 0 0 -1 2547.3301 552)">
					<stop  offset="0" style="stop-color:#417C14"/>
					<stop  offset="1" style="stop-color:#6B961F"/>
				</linearGradient>
				<path class="st36" d="M281.1,444.2c0,0,1.2,3.9,4.5,4.5c1.1,0.2-1.5-2.1-3.2-4.9c0,1,0.7-0.5,1.1-0.1c9.5,9.2,4.3,6.2,4.3,6.2
					s-13,4.3-13.3,3.3s-8.1-11.5-8.1-11.5l5.3,1.1c0,0,4.1,6.4,4.1,5.8c0.6-4.4-2.1-5.2-2.1-5.2S279.9,444.1,281.1,444.2z"/>
				
					<linearGradient id="SVGID_18_" gradientUnits="userSpaceOnUse" x1="2284.78" y1="106.2731" x2="2317.3301" y2="106.2731" gradientTransform="matrix(-1 0 0 -1 2547.3301 552)">
					<stop  offset="0" style="stop-color:#417C14"/>
					<stop  offset="1" style="stop-color:#6B961F"/>
				</linearGradient>
				<path class="st37" d="M241.7,437.5l2,1.1c-0.4,1.8-0.2,3.7,0.7,5.3c1.3,2.1,3.2,3.7,5.5,4.8c2.4,1.2,3.3,1.6,5.5,2.8
					c2.2,1.2,7.3,2.2,7.3,2.2s-6.8-0.8-9.6-0.1s-5.9-0.5-8.3-0.1c-2.5,0.6-4.9,1.4-7.3,2.3c0,0,2.4-1.8,3.8-2.9
					c0.4-0.3-4.3,1.3-5.7,0.5c0.3-0.1,7.1-1.9,7.1-2.3c0.1-0.8,0.1-1.7-0.2-2.5c-0.2-0.9-0.3-1.9-0.3-2.8c0,0-2.3,3.9-3.9,4.9
					c-1.5,0.8-3,1.4-4.7,1.7l-3.6,1.4c0,0,5.5-3.4,6.6-5s1.9-1.8,2.2-3.3s1.3-3.2,1.3-4.9s-3.8,6.2-4.4,5.8s2.7-9,2.7-9
					c1-0.7,2-1.3,3.2-1.8c0.6-0.2,3.2,1.1,3.2,1.1C243.7,437.1,242.7,437.3,241.7,437.5z"/>
				
					<linearGradient id="SVGID_19_" gradientUnits="userSpaceOnUse" x1="2279.75" y1="106.84" x2="2301.6401" y2="106.84" gradientTransform="matrix(-1 0 0 -1 2547.3301 552)">
					<stop  offset="0" style="stop-color:#417C14"/>
					<stop  offset="1" style="stop-color:#6B961F"/>
				</linearGradient>
				<path class="st38" d="M251.2,435.8c0,0-1.4,1.1-0.8,2.4c0.9,1.8,1.9,3.5,3.2,5.1c1.4,1.6,3.1,2.8,5,3.6c2.7,1.3,8.9,6.3,8.9,6.3
					s-8.2-2.3-10-3.6s-5.9-5.8-7-6.9s-2.2-4.6-2.3-3.9s-1.1,1.5-0.3,2.4l11.7,13.5c0,0-9.8-7.6-11.8-10.9c-0.7-1.7-1.1-3.4-1.3-5.2
					c-0.1-0.7-0.4-1.4-1-1.8c0.5-0.4,1.1-0.7,1.7-0.7C248.4,435.8,251.2,435.8,251.2,435.8z"/>
				
					<linearGradient id="SVGID_20_" gradientUnits="userSpaceOnUse" x1="2272.54" y1="108.7942" x2="2293.6255" y2="108.7942" gradientTransform="matrix(-1 0 0 -1 2547.3301 552)">
					<stop  offset="0" style="stop-color:#417C14"/>
					<stop  offset="1" style="stop-color:#6B961F"/>
				</linearGradient>
				<path class="st39" d="M254.2,434.4c0,0-1.1,0.6-0.1,2.2s0.9,5,1.6,5.5c0.6,0.5,13.1,10.5,13.1,10.5l6-0.3c0,0-14.1-8.4-15.5-9.7
					s-2.2-3.5-3-4.6c-0.4-0.5-0.7-1.2-0.9-1.8l8.8,7.8c0,0-5.2-6.6-6-9.7c-0.5-0.9-1.8,0.4-1.8,0.4S254.7,433.8,254.2,434.4z"/>
				
					<linearGradient id="SVGID_21_" gradientUnits="userSpaceOnUse" x1="2263.8218" y1="111.3397" x2="2283.76" y2="111.3397" gradientTransform="matrix(-1 0 0 -1 2547.3301 552)">
					<stop  offset="2.000000e-02" style="stop-color:#B8EB38"/>
					<stop  offset="0.47" style="stop-color:#86D738"/>
					<stop  offset="1" style="stop-color:#70BD40"/>
				</linearGradient>
				<path class="st40" d="M263.6,437.4c0,0,2,3.2,2.4,3.5s0.3,0.9,0.8,0.9s8,2,8.5,2c3.7,0.6,9.7,0.3,8-0.1
					c-0.6-0.5-11-3.4-11.6-3.5S264.5,436.9,263.6,437.4z"/>
				
					<linearGradient id="SVGID_22_" gradientUnits="userSpaceOnUse" x1="2311.9399" y1="94.95" x2="2366.6499" y2="94.95" gradientTransform="matrix(-1 0 0 -1 2547.3301 552)">
					<stop  offset="2.000000e-02" style="stop-color:#86B80D"/>
					<stop  offset="1" style="stop-color:#4B820A"/>
				</linearGradient>
				<path class="st41" d="M231.1,450.2c-0.7,0.2-1.5,0.3-2.2,0.4c-1.2,0.2-1.9-0.3-3.1,0.6s-2.5,0-3,0.1s-4.7,0.4-5.4,0.4
					s2.2-1.9,2.2-3.6c-1.7,2.8-9.6,6.9-11.5,7.2c-1.8,0.2-3.6,0.7-5.3,1.3c-1,0.4-2,0.7-3,0.9c0,0-2.3,1-4.3,1.9s-14.8,6.5-14.8,6.5
					s20.2-7,21.6-6.9s5-1.1,6.6-1.1c1.8-0.1,3.5-0.3,5.3-0.6c-0.7,0.1-4.4,1.3-5,1.3c-0.5,0-1,0.2-1.5,0.3c0,0,5.3-0.7,7.3-0.8
					s5.7-1.4,7-1.7s3.8-0.4,4.8-0.7s8.7-4.1,8.7-4.1s-8,3.1-9.7,3.3s-3.3,0-4.7,0.4s-3.8,0.8-3.8,0.8s3.6-2,4.5-2s-2.4-0.4-0.4-0.8
					c1-0.1,2.1-0.4,3.1-0.7c1.3-0.6,2.6-1.1,4-1.5c0.6,0,3.4-1.6,2.4-0.6c-0.5,0.7-1.2,1.2-2,1.6c-0.6,0.3-2.1,0.8-2.1,0.8
					s2.4-0.7,3.7-1.2s1.2-1,1.9-1.5c1-0.5,2-0.8,3-1.1C235.2,449.7,232,449.5,231.1,450.2z"/>
				
					<linearGradient id="SVGID_23_" gradientUnits="userSpaceOnUse" x1="-4.5109" y1="87.6857" x2="193.8869" y2="87.6857" gradientTransform="matrix(1 0 0 -1 0 552)">
					<stop  offset="1.000000e-02" style="stop-color:#2B6333"/>
					<stop  offset="1" style="stop-color:#5C8500"/>
				</linearGradient>
				<path class="st42" d="M175,461.1c3.4,1.4,7.2,2,10.9,1.6c-1.3,1.6-12.4,2-17.1,0.8c-0.8-0.2-8.6,0.8-9.4,0.8
					c-3.4,0.1-19.6,2.8-20.4,3.1c-1.4,0.5,20.5-1,19.4-0.4c-6.6,3.2-37.7,5-44.9,7.4s24.5-9.5,19.4-8.6s-35.5,6.4-36.1,6.4
					s-31.7,1.5-40.2,4c-0.9,0.2-1.8,0.4-2.7,0.6c-0.9,0.1,24.3-2.3,25.8-0.1c-6.6-0.1-30.2,1.6-31.5,1.8c-4.3,0.3-8.7,0.3-13,0
					l47.2,1.6c0,0-28.2,4.9-55.9,2.8c-16.6-1.3-32.3-2.6-30.9-3.5c0.6-0.4,11.3,3.5,41.5-4.9c1-0.1-9.9,3.4-8.9,3.4s16-0.9,16.9-1
					c2-0.2,3.2-1.1,5.1-1.2c0.8-0.1,11.7-0.2,11-1c-0.4-0.5-7.3-1.4-6.7-1.4c2.7-0.3,5.2-0.6,7.5-1c0.6-0.1,21-1.7,24-1.4
					c-8.6-1.5-21.2,0.4-20.6,0.2c11.1-2.9,27.7-6.2,28.4-6.7c0.4-0.3-21,3-30.2,6.4c-8.6-1.9-17.4,0.4-28.2,3.1
					c7.5-3.5,29.2-9.4,38.9-9.1c20.3-7.8,14.8-7.4,24.7-9.3c-6.9,2.8-23.7,8.7-19.1,8c4.5-0.8,8.4-0.5,11.2-0.9
					c1.7-0.2,3.3-0.4,5-0.4c3.4-0.9,6.8-4.1,12.4-5.2c3.6-4.1,24.3-10.5,25.3-10.8c-11.4,4.5-15.3,9.4-13.8,9.2s3.9-2.7,5.7-2.9
					c1.2-0.1,0.2,3,1.4,2.9c0.3-2.1,7.4-4.4,5.2-1.6c5.1-4.2,14.1-5.8,15.5-6.1c4.8-1.2,15.5-3,15.6-2.5c-5.5,1.6-6.1,2.5-6.1,2.5
					s0.3-0.3,1.2,0.2c0.4,0.2-6.8,3.8-6.2,4s10.2-3.1,11.1-2.9c0.4,0.1-4.9,3.2-4.4,3.2s6.2-1.5,6.8-1.5c1.9,0.1,3.6-0.6,6.6-0.6
					c3.6-0.1,8-0.3,13.5-0.8c2.7,0.3-17.7,3.4-15.6,4.3c2.8-0.4,2.7,2.4,14.6,2.2c0.3,0.2,0.6,0.4,0.8,0.7c0,0,11.7,1.5,7,2
					c-4.1,0.4-5.2,1.2-7.2,0.9c-2.8-0.4-3.8,2.4-10.9,1.7C174.7,461.1,174.9,460.5,175,461.1z"/>
				
					<linearGradient id="SVGID_24_" gradientUnits="userSpaceOnUse" x1="121.9665" y1="83.0259" x2="124.9765" y2="95.0959" gradientTransform="matrix(1 0 0 -1 0 552)">
					<stop  offset="1.000000e-02" style="stop-color:#4A7A00"/>
					<stop  offset="0.98" style="stop-color:#699621"/>
				</linearGradient>
				<path class="st43" d="M109.1,456.8c0,0,13.5,3.1,19.6,3.8c6.1,0.7,7-0.4,11.9-0.4s11.8,0.2,13.5,0.6s11.2,1.4,10.8,1.6
					s-18.3-0.7-21.4-0.1s-7.6,2.8-9.6,3.4s-6.5,0.8-9.4,1.9s-9,1-9,1s7.5-3,10.6-3.8c1.3-0.4,2.6-0.7,3.9-0.9c0,0-9.7-1.2-13.6-1.1
					s-7.3-0.8-8.9-0.5s-2.9,1.9-4.9,2.7s-7.1,2.6-7.1,2.6s-4.3-0.7-6.5-0.2s-8.6,2.1-8.6,2.1s7.3-3.6,10.2-4.3c2-0.4,4-0.7,6-0.8
					c0,0,0.1-0.6-2.2-0.6c-1.5,0.1-3,0-4.5-0.2c2.5-0.5,4.9-1.1,7.3-2c1.9-0.8,3-2,1.8-2c0,0-2.5-1.5-0.8-1.6s1.4-0.9,1.4-0.9
					s-2-1.5-0.5-1.7s11.6-0.1,11.6-0.1S107.3,456.4,109.1,456.8z"/>
				
					<linearGradient id="SVGID_25_" gradientUnits="userSpaceOnUse" x1="2271.4458" y1="96.43" x2="2271.4458" y2="48.44" gradientTransform="matrix(-1 0 0 -1 2547.3301 552)">
					<stop  offset="2.000000e-02" style="stop-color:#86D738"/>
					<stop  offset="0.92" style="stop-color:#58963E"/>
				</linearGradient>
				<path class="st44" d="M377.9,452.1c0,0-33.5-3.3-44.6-2.7s-34.5,3.3-40,3.3s-19.8,1.1-23,0.5s-42.7,1.6-53.3,2.2
					s-33.1,9.6-44.1,11.8s-32.4,3-39.7,6.9s-20,3.8-29.2,10.3c-5.2,3.6-10,7.8-14.5,12.3c0,0,33.4-10,55.8-6.9
					c11.4,1.6,26.2,2.7,41.8,4.9s36.3-2.7,46.9-0.5s48.7,2.2,54.2,2.2s16.2-0.4,40.5-0.4s38.3,0.7,58.6,0.6s59.8-20.4,75-17.1
					C462.9,474.8,438,453.2,377.9,452.1z"/>
				
					<linearGradient id="SVGID_26_" gradientUnits="userSpaceOnUse" x1="2277.9639" y1="67.7313" x2="2293.5339" y2="-4.1087" gradientTransform="matrix(-1 0 0 -1 2547.3301 552)">
					<stop  offset="1.000000e-02" style="stop-color:#4A7A00"/>
					<stop  offset="0.98" style="stop-color:#699621"/>
				</linearGradient>
				<path class="st45" d="M411.5,489.6c0,0-47.1,1.3-50.3,1.3s-21.8-3-25-2.6s-1.2-1.9-1.2-1.9s-7.9-1.8-11.9-0.8s-28,5.1-30.8,4.6
					c-2.2-0.5-4.4-1.3-6.4-2.4c-5.1,1.1-10.3,1.9-15.4,2.5c-6.4,0.5-16.3,5-16.7,3.6s7.9-4.1,5.1-3.6s-19.2,0.3-19.2,0.3l5.6-4.7
					c-3.7-0.3-5.8-2.8-11.9,2.4c-3.7,3.1-6.8-2.4-10.8,1.9s-7.8,2.4-7.8,2.4s-6.1-1.5-4.8-1.6c-2.4,1-6.3-0.8-9.9-1.2
					s-8.6,1.8-11.8,1.8s-6.5,0.9-5.7-3.1c-4.4,1.9-13.4,0.8-13.4,0.8h-12c-2.8,0-12-6.2-14.3-4.3s-4.8,1-7.6,1.9
					c-2.1,0.6-4.2,0.9-6.4,1c0,0,4-4.8,8-4.8c2.5,0,5-0.7,7.2-1.9c0,0-15.9,1.4-18.7,3.8s-9.6,2.9-11.9,3.3s-11.2,0.4-11.2,0.4
					l-8.4,5.1c0,0-11.3,5.8-18.1,9.1s-12.1,0.8-19.6,3.6s-47.5,7.1-47.5,7.1s36.6-0.1,68.1-4.4c-18.3,2.4-36,7.9-28.3,6.7
					c4.5-0.7,67.8-2.6,67.8-2.6s-16.3,4.3-21,5.3c-2.9,0.6-5.7,1.5-8.4,2.9c0,0,28.7-1.9,34.2-1.9s17.5-1.4,25.5-2.4
					c5.2-0.5,10.4-0.4,15.5,0.5c0,0-7.6,6.2-9.6,7.1s4.8,0.9,6,0.9s22.7,1.4,27.9,0.5c6.1-1,12.2-1.5,18.3-1.4
					c6.4,0,33.4,5.2,39.8,4.3s11.1-5.7,12.3-2.8s-6,9.5-6,9.5l-11.5,10.5c0,0,18.3-8,22.6-9.6s16.4-4.2,24-6.1
					c1.6-0.4,3.3-0.6,5-0.7c1.9-0.1-11.7,8.5-14.7,10.4c2.7,0.1,25.8-7,28.6-6.8c5,0.3,10.5-2.5,14.2-2.5c9.2,0,29.2-1.9,35.6-1.9
					c5.1,0,101.4,9.7,114.5,4.8c3.1-1.2-11.8-9.7-8.4-9.5c8.4,0.5,54.1-0.4,54.1-0.4c-24.3-23.4-39.3-31.7-54-45.1
					C455.6,474,411.5,489.6,411.5,489.6z"/>
				
					<linearGradient id="SVGID_27_" gradientUnits="userSpaceOnUse" x1="2359.77" y1="49.71" x2="2402.7102" y2="49.71" gradientTransform="matrix(-1 0 0 -1 2547.3301 552)">
					<stop  offset="1.000000e-02" style="stop-color:#336300"/>
					<stop  offset="1" style="stop-color:#5C8C00"/>
				</linearGradient>
				<path class="st46" d="M187.6,491.5c0,0-4,2-4.6,3.4s-7.1,9.4-8.2,10.6s-11.7,7-13.1,7s-17.1,3.8-17.1,3.8s27.1-11.4,28-12.2
					s4.2-3.8,5.7-7.8s4-7.8,4.5-7.8C182.1,491.2,187.2,490.5,187.6,491.5z"/>
				
					<linearGradient id="SVGID_28_" gradientUnits="userSpaceOnUse" x1="2365.8101" y1="49.06" x2="2419.77" y2="49.06" gradientTransform="matrix(-1 0 0 -1 2547.3301 552)">
					<stop  offset="1.000000e-02" style="stop-color:#336300"/>
					<stop  offset="1" style="stop-color:#5C8C00"/>
				</linearGradient>
				<path class="st47" d="M181.5,489.7c0,0-4.2,1.5-4.9,2.9s-5.2,7.8-5.9,8.6s-4.5,2.6-7.4,4.2s-6.2,1.8-7.4,2.4
					s-28.4,10.6-28.4,10.6s33.4-16.6,35.1-17.2s4.4-7.6,3.5-7c2.9-1.9-2-3.3,3.9-5.6c2-0.8,3.4-1.2,3.4-1.2
					C172.4,488.7,176,489.7,181.5,489.7z"/>
				
					<linearGradient id="SVGID_29_" gradientUnits="userSpaceOnUse" x1="2378.8201" y1="51.7084" x2="2449.9202" y2="51.7084" gradientTransform="matrix(-1 0 0 -1 2547.3301 552)">
					<stop  offset="1.000000e-02" style="stop-color:#2B4F00"/>
					<stop  offset="1" style="stop-color:#599438"/>
				</linearGradient>
				<path class="st48" d="M168.5,489.2c0,0-4,5.2-4.7,6.4c-1.8,2.5-3.9,4.8-6.2,6.8c-3,1.9-6.3,3.2-9.8,3.8
					c-3.7,0.6-32.8,7.1-33.8,7.3s28.8-9.1,30-10.1s5.4-4.2,5.4-4.2s-8.4,4.2-11.3,4.8s-10.4,2.4-13.5,2.2s-27.3,3.8-27.3,3.8
					s28.9-8.8,32.8-9s7.1-2.4,11.4-4.2s10.3-6.4,10.3-7.6c0-0.7,0.1-1.5,0.2-2.2l4,1.6c-0.8,1.4-1.8,2.7-3,3.8
					c-1.7,1.4-5.2,4.4-5.2,4.4s7.2-3.2,7.9-4.4s1.5-4.8,2.2-4.2S167.8,489.6,168.5,489.2z"/>
				
					<linearGradient id="SVGID_30_" gradientUnits="userSpaceOnUse" x1="2397.8" y1="56.455" x2="2500.8101" y2="56.455" gradientTransform="matrix(-1 0 0 -1 2547.3301 552)">
					<stop  offset="1.000000e-02" style="stop-color:#2B4F00"/>
					<stop  offset="1" style="stop-color:#599438"/>
				</linearGradient>
				<path class="st49" d="M149.5,486c-1.2,1.7-2.5,3.3-4,4.8c-1.7,1.4-8.6,5-11.8,6.6s-7.9,3-9.9,4.2s-18.9,5.2-23.1,6.8
					s-16.5-1-19.5,0c-16.4,2.3-34.8,0-34.8,0s56-24.5,60-26.8c-4.4,3.9-3,4.3-2.5,4.3s6-1.9,8.6-1.7s3.8,3.4,3.8,3.4
					s2.9-3.7,4.4-3.5c1.2,0.3,2.4,0.8,3.5,1.5c0,0-4.7,6.2-9.6,8.2s-5.9,2.6-7.7,4c-1.5,1.1-3.2,2-4.9,2.8c0,0,14.1-3,17.2-5
					s5.4-5,6.6-5.8s3.5-2.8,4.4-2.8s2.8-2.7,4.5-2.9s6.1,2.3,6.1,2.3c-1.8,2.3-3.8,4.4-6.1,6.2c-3.4,2.6-6.4,3.2-8.9,5.2
					s-8.1,3.4-8.1,3.4s8.2-3,10.6-3.4c2.4-0.4,9.8-5,11.9-6.4s3.7-6.6,3.7-6.6S144.6,482.8,149.5,486z"/>
				
					<linearGradient id="SVGID_31_" gradientUnits="userSpaceOnUse" x1="2311.3601" y1="46.2599" x2="2339.4202" y2="46.2599" gradientTransform="matrix(-1 0 0 -1 2547.3301 552)">
					<stop  offset="1.000000e-02" style="stop-color:#336300"/>
					<stop  offset="1" style="stop-color:#5C9600"/>
				</linearGradient>
				<path class="st50" d="M229.3,488c0,0,1.5,0.6-0.2,6.4s-3.2,11.2-6.7,15.6s-14.5,14.4-14.5,14.4s15.3-10.2,18-15.4
					s6.4-17,7.1-18.2c0.9-1.3,1.9-2.6,3-3.8C236,487,232.8,489.6,229.3,488z"/>
				
					<linearGradient id="SVGID_32_" gradientUnits="userSpaceOnUse" x1="2287.76" y1="46.27" x2="2335.7002" y2="46.27" gradientTransform="matrix(-1 0 0 -1 2547.3301 552)">
					<stop  offset="1.000000e-02" style="stop-color:#336300"/>
					<stop  offset="1" style="stop-color:#5C8C00"/>
				</linearGradient>
				<path class="st51" d="M239,485.4c0,0,0.2,2-2.4,7.6s-2.5,6-5.9,12.4c-8.1,5.7-19.1,17.5-19.1,17.5s20.3-14.5,23.2-20.5
					s2.9-9.4,4.6-9.4c0.9,0.1,1.8-0.3,2.4-0.9c0,0-0.3,5.1-0.3,8.6s-1.3,6.4-2.9,10.4s-4.5,9.2-8.8,12s-6.7,3-6.7,3
					s8.1-1.6,12.5-4.6s4-5.8,7.2-11.6c2.4-4.1,4.3-8.4,5.8-12.8c0.7-2.4,2-5,2-4s-0.2,7.6-0.2,8.4s3.2-9.2,1.9-9.8
					c-0.7-0.3-1.4-0.7-2-1.2c1.3-0.1,2.6,0.2,3.7,0.8c1.7,1,5.6-1,5.6-1c-2.2,0.2-4.4-0.1-6.4-0.8c-2.7-1.2-4-1.6-6.6-0.8
					c-1.9,0.6-3.8,0.9-5.7,1c-0.8,0-0.3-1.4-0.3-1.4S240.6,486,239,485.4z"/>
				
					<linearGradient id="SVGID_33_" gradientUnits="userSpaceOnUse" x1="2220.28" y1="37.1931" x2="2317.29" y2="37.1931" gradientTransform="matrix(-1 0 0 -1 2547.3301 552)">
					<stop  offset="1.000000e-02" style="stop-color:#336300"/>
					<stop  offset="1" style="stop-color:#5C8C00"/>
				</linearGradient>
				<path class="st52" d="M282.2,488.5c0.3,2.1-0.3,4.2-1.7,5.8c-1.8,1.8-6.9,7.8-11.5,12.4c-1.5,1.5-14.6,4-25.6,13.6
					c-1.1,0.9,19.1-7.9,18-6.8c-3.5,3.2-6.7,6.6-9.6,10.3c-1.9,2.6-8.6,5.2-12.3,5.4c-3.2,0-6.3-0.3-9.4-1c0,0,15,1.6,19.7-0.2
					s3.4-0.3,7-1.5c4.3-1.2,8.5-3,12.3-5.3c4.4-2.8,7.1-3.4,9.8-9.8s9.5-10.4,9.5-10.4s-7.9,20.8-12.5,24.1s-7.6,4-11.8,7.4
					s-9,4.5-10.5,5.7s-13.6,7.9-13.6,7.9s29-7.5,32.7-9.1s15.6-6.6,18.8-7s3.9-3.3,10.9-12.3s3-12.3,8-16.7s8.2-13.4,8.2-13.4l8.6-2
					c0,0-37.1,3.4-22.7-1.8c-3.2-1-13,1.4-13.7,1.4c-1.4-0.4-2.9-0.4-4.3-0.2c-3.5,0.4-3-0.8-10.4,1.2s-10.4,2-10.4,2l13.8-0.2
					c0.7,0-1.2,0.2-5.6,1.6c-3.7,1-7.5,1.8-11.3,2.2c0,0,3.5,1.6-0.2,2.8c-1.7,0.7-3.4,1-5.2,1l-1.7,0.2c2.5,1,5.2,1.1,7.7,0.4
					c3.9-1.2,1.4,7.5-12.8,13.4c12.1-2.1,27.8-16.4,29.2-16.6S282.5,491.3,282.2,488.5z"/>
				
					<linearGradient id="SVGID_34_" gradientUnits="userSpaceOnUse" x1="2166.4705" y1="81.9733" x2="2149.0405" y2="31.6933" gradientTransform="matrix(-1 0 0 -1 2547.3301 552)">
					<stop  offset="1.000000e-02" style="stop-color:#336300"/>
					<stop  offset="1" style="stop-color:#4D8F00"/>
				</linearGradient>
				<path class="st53" d="M515.3,524.7c0,0-51.4-47.4-55.3-49.1c-0.8,0.4,0,1-0.7,1.3c-0.5,0.2-2.5,0-2.9,0.2
					c-0.9,0.4,6,5.1,5.3,5.4c-0.6,0.2-9.9-4.2-10.4-4c-1.2,0.4-1.9-0.7-2.8-0.6c-5.4,0.8-6.5-0.9-6.5-0.9s-42.6,16.9-31.9,6.1
					c-5.5,0-32,4.8-36.8,4.8s-6.9-5.5-12.1-2.6c-0.6,0.3-1.2,0.6-1.9,0.7c-0.4,0.1-0.7,0.2-1.1,0.3c-1.2,0.2-2.4,0.3-3.7,0.3
					c-2,0-10.6,26.3-24.5,37.3c5.3-5.5,20.4-38,19.7-37.8c-5.3,1.1-5.5,2.3-6.5,2.2c-0.6,0-19.1,33.1-19.5,33.1s16.1-33.5,15.7-33.4
					s-3.5-1.1-1.2-2c1.8-0.7-3.4,0.3-3.4,0.3c-1.5,4.5-3.5,8.8-6,12.9c-3.4,5.3-17.1,23.7-20.6,25.7s-20,11.6-20,11.6
					s12.3-4.4,18.2-4.9c8.3-0.8,19.6-1.8,25.9-1.8c10.6,0,16.8,2,29.1,1.6s24.4,2,29.5,2.9s60.4,2.8,60.4,2.8s-63.8-11-68.6-13.9
					s-2.1,1.1,8.9-1s67.7,15.4,74.9,14.2c3.2-0.5-47.4-26.7-43.1-27.2c0.3,0,46.3,23.9,46.7,23.9c4.9-0.6-36.4-25-35.1-25
					c2.4,0-11.3-9.1-5.8-7.9c48.2,13.5,67.5,19,67.5,19s-27-17.7-30.1-21.4s-14.8-13.3-14.8-13.3L515.3,524.7z"/>
				
					<linearGradient id="SVGID_35_" gradientUnits="userSpaceOnUse" x1="2337.1702" y1="48.93" x2="2391.8601" y2="48.93" gradientTransform="matrix(-1 0 0 -1 2547.3301 552)">
					<stop  offset="1.000000e-02" style="stop-color:#336300"/>
					<stop  offset="1" style="stop-color:#5C9600"/>
				</linearGradient>
				<path class="st54" d="M206.1,491.2c-0.9,0.4-1.7,0.8-2.5,1.4c-3.3,3-6.5,6.2-9.4,9.5c-3.2,3.8-9.4,8.6-11.7,9.6
					c-2.3,1-27,5.2-27,5.2s24.9-5.9,26.2-6.6c2.6-1.8,5.1-3.9,7.4-6.1c1.9-1.7,4.2-4.7,4.2-5.4c0-1.1,0.4-2.1,1-3
					c0.6-1,1.1-2.1,1.4-3.3c0,0-3.3,3.5-4.2,4.5s-3.5,3.5-3.9,4.1c-0.3,0.4-0.8,0.8-1.3,1c1.6-1.6,3-3.2,4.4-5c1-1.6,3.2-5,3.2-5.5
					v-0.5c0,0-9-0.4,2.4-0.9c9.7-0.4,1.2-0.5,1.7-0.5c0.3,0,1.9-0.4,2.5-0.4c1.6,0,3.9-0.1,3.9-0.1s3.2,2.3,4.5,1.9l1.3-0.4
					C210.2,490.8,207.2,492.8,206.1,491.2z"/>
				
					<linearGradient id="SVGID_36_" gradientUnits="userSpaceOnUse" x1="2323.0801" y1="50.085" x2="2375.3301" y2="50.085" gradientTransform="matrix(-1 0 0 -1 2547.3301 552)">
					<stop  offset="1.000000e-02" style="stop-color:#336300"/>
					<stop  offset="1" style="stop-color:#5C8C00"/>
				</linearGradient>
				<path class="st55" d="M219.1,494c-2.5,3-3.1,1.9-7.3,7.1c-4.6,5.8-13.5,8.2-18.6,10.6c-5.1,2.4-21.2,2.7-21.2,2.7
					s16.3-2.7,19.9-4.3s11.7-6.1,14.8-7.9c2-1.1,3.3-3.2,3.6-5.5c0.1-2,0.1-4-0.1-6c2.1-0.1,4.2,0,6.2,0.2c1.5,0.3,7.9-1.6,7.9-1.6
					s-3.8,4-2.8,5.6c0.9,1.6,1.8,3.2,2.5,4.9C224,499.9,219.4,495.8,219.1,494z"/>
				
					<linearGradient id="SVGID_37_" gradientUnits="userSpaceOnUse" x1="309.5198" y1="121.2494" x2="282.3698" y2="91.8994" gradientTransform="matrix(1 0 0 -1 0 552)">
					<stop  offset="1.000000e-02" style="stop-color:#FAF7A6"/>
					<stop  offset="1" style="stop-color:#8CD95C"/>
				</linearGradient>
				<path class="st56" d="M248.1,453.9c16.5,0.2,32-5.3,35.8-4.4s14.7,0.6,17,1.1S329,453,329,453s-18.8,5.3-37.1,0.4
					c-4.6,0.5-1,2-4.1,2.4c-8,1.2-7-0.3-18.3-2.4c0,0,14.1,4.9,19.8,4.9s24.8,1.9,24.8,1.9s-24.2,4.1-29.9,3.2s-11.5-1-15.1-2.6
					C264.9,458.9,256.4,458.3,248.1,453.9z"/>
				
					<linearGradient id="SVGID_38_" gradientUnits="userSpaceOnUse" x1="398.5929" y1="109.9365" x2="354.463" y2="62.2465" gradientTransform="matrix(1 0 0 -1 0 552)">
					<stop  offset="1.000000e-02" style="stop-color:#A6E37D"/>
					<stop  offset="1" style="stop-color:#8CD95C"/>
				</linearGradient>
				<path class="st57" d="M320.2,479.5c0,0,6.9-2.1,5.4-0.3c8-0.5,4.9-1.3,9.9-1.3c2.8,0,6.7-0.6,10.3-1c2.5-0.4,5.1-0.5,7.7-0.4
					c1.1,0.1-10.1,3.9-8.1,3.9c1.5,0,15.9-3.7,17.5-3.7c4.8,0,23.4-0.6,23.4-0.6s-20.7-1.4-22.1-2.4s-25.2,1.3-28.3,0.6
					c-0.7-0.1,27.6-4.7,25.2-5.2c-3.1-0.7-9.4,0-10.2,0s15.4-3.1,21.3-3.9c2.8-0.4-9.5,3.8-6.7,4c5-0.4,10.1-0.5,15.1-0.3
					c5.9,0.2,17.8-2,27.8-1c1.5,0.1-32.5,4.4-31.6,4.8c3.3,1.3,4,0.8,5.8,1.2c2.3,0.5,25.8-0.5,25.8-0.5l17.4,0.8
					c0,0-36.7,6-43.2,5.6l-6.5-0.5c2.6,0.9,5.3,1.7,8,2.3c4.2,0.9,7.6,1.4,7.6,1.4s-2.2,1.8,2.1,1.3s12.4-1.3,12.4-1.3
					s-19.9,2.7-25.6,4.1s-5,0.2-7.3,1s-10.3,0.8-9.1,0.8s2.3-2.7,6.1-2.3s2.3-0.9,2.3-0.9s-1.5-3.2-5.7-1.8s-5.4,2.8-7.5,2.3
					s-2.3-1.2-4-1c-3.1,0.5-7.6,2-4.9,1.1s3.8-3.4,5.3-3.4c1.7-0.2,3.4-0.5,5-0.9c0,0-8.4-1.8-11.1,0.5s-4.2,1.8-5.7,1.8
					s-3.4,1.9-5.5,1.9s-9.1-1.3-7.9-0.8s-0.3-0.6,6.2-2.4l6.5-1.8c0,0-10.7-0.5-13.8,0.9s-3.8-0.5-6.5-0.5s-18.1,2.3-19.6,2.3
					S324.8,477.2,320.2,479.5z"/>
				
					<linearGradient id="SVGID_39_" gradientUnits="userSpaceOnUse" x1="250.2469" y1="102.8729" x2="219.3269" y2="69.4529" gradientTransform="matrix(1 0 0 -1 0 552)">
					<stop  offset="1.000000e-02" style="stop-color:#A6E37D"/>
					<stop  offset="1" style="stop-color:#8CD95C"/>
				</linearGradient>
				<path class="st58" d="M202.4,461.4c1.4-0.2,6.1-5,12.6-4.1s7.6,0,9.2,0c3.1,0.1,6.2,0.6,9.2,1.4c3.1,0.9,5.4-2.3,7.6,0.5
					s6.9,2.7,9.2,4.1s11.1,3.6,11.1,3.6h-8.1c-2.8,0,25.6,9.5,18.8,8c-0.9-0.2-30.3-4.5-31.3-4.6c-3.8-0.2-5.9-4.1-9.6-3.4
					c-4.6,0.9-22.2,4.5-24.1,5.5s-21.4,5.9-23,6.4s8.8-5,16.1-6.8s11.9-6.8,18.4-7.3s11.9-1.8,12.6-1.4s-13-2.3-15.7-0.9
					s-5.7-0.5-7.6,0.5s-6.1,1.8-8.4,3.6s-16.4,5-16.4,5s10.7-6,13.4-6.7S199,461.9,202.4,461.4z"/>
				
					<linearGradient id="SVGID_40_" gradientUnits="userSpaceOnUse" x1="46.3835" y1="93.3214" x2="35.5435" y2="41.0313" gradientTransform="matrix(1 0 0 -1 0 552)">
					<stop  offset="2.000000e-02" style="stop-color:#4A9633"/>
					<stop  offset="0.98" style="stop-color:#307300"/>
				</linearGradient>
				<path class="st59" d="M93.1,496.8c7.2-3.7,25.6-9.3,25.6-9.3s-7.1,1.2-17.8,4.2s-17.1,6.8-37.1,13s-51.2,10.7-51.2,10.7
					c18.2-4.2,36.2-9.5,53.8-15.8c48.6-17.9,65.1-20.9,65.1-20.9s-18,1.4-24.3,3s-10.4,3.4-31.5,9.9c-19.6,6-42.6,8.6-45.8,8.9h-0.4
					h0.4c1.3-0.1,6.5-0.8,20.4-3.7c10.9-2.4,21.6-5.6,31.9-9.8c0,0-18.7,6.4-49.8,7.3s-70.6,8.4-79.4,7.8l-4.7-0.3
					c0,0.4,0,0.8,0,1.1c0.3,0.4,0.5,0.9,0.8,1.3c2.3,3.5,3.6,7.6,3.8,11.9c1,4.2,0.8,8.6-0.6,12.7c-0.1,0.7-0.2,1.3-0.3,2h74.5
					c17.9-10,36.4-18.7,55.5-26.1c6.1-2.3,19.3-8.6,26.2-9.6c7.2-0.9,14.2-2.7,21-5.3c-6,2.1-12.4,3.3-18.7,3.6
					C99.9,493.9,85.8,500.5,93.1,496.8z"/>
				
					<linearGradient id="SVGID_41_" gradientUnits="userSpaceOnUse" x1="2188.2759" y1="16.649" x2="2189.9258" y2="72.7389" gradientTransform="matrix(-1 0 0 -1 2547.3301 552)">
					<stop  offset="0" style="stop-color:#458029"/>
					<stop  offset="1" style="stop-color:#1F7A4F"/>
				</linearGradient>
				<path class="st60" d="M611,511.3c-1.3-3.2-2.1-6.6-2.3-10c-0.1-1.3,0-2.6,0.1-3.8c-1.1-3.2-1.7-6.6-1.7-10c0-7,0.3-14,0.8-21
					c-20.3,5.6-70.2,18.5-89.2,17.3c-4.6-0.8-9.2-0.9-13.8-0.4c-2.3-0.1-6.2,1.9-8.9,2.2c-3.3,0.5-3.8,0.5-7.7,1.1
					c-23.9,3.8-57.9,10.5-88.8,18.4c-183.8,19.2-88.2,2.9-101.1,3.8c-62.4,4.4-84,12.1-96,14.4c0.7-0.6,16.8-7.9,36.4-10.6
					c-15.6-1.4-98,11.1-101.3,12.4c-15.7,1-21.9,0.7-31.6,2.8c2,3.2,81.1-7.2,87.4-8.6c1.8,1.3-40,7.2-46.9,9.2
					c-3.9,2.1,0,2.2,0,2.2H609c0.5-1,1-2,1.5-3c0.4-0.7,0.7-1.5,1.1-2.2c-0.1-3.5-0.3-6.9-0.5-10.3C611.1,513.9,611,512.6,611,511.3
					z"/>
				
					<linearGradient id="SVGID_42_" gradientUnits="userSpaceOnUse" x1="292.97" y1="280.3282" x2="345.51" y2="280.3282" gradientTransform="matrix(1 0 0 -1 0 552)">
					<stop  offset="0" style="stop-color:#056100"/>
					<stop  offset="1" style="stop-color:#29C200"/>
				</linearGradient>
				<path class="st61" d="M328.5,239.9l-4-0.1v0.1l-0.6-0.1l-6.1-0.2l-2.8-0.1c-2.8,0.6-5.3,2.3-5.9,5.8c-1.3,7.2,7.9,5.3,12.3,4
					c-1.6,4.2-3.5,8.3-5.4,12.2c-3.6-1-15.1-3.8-16,4.2c-0.7,5.6,8,4.4,11.9,3.6c-1.7,3.1-3.5,6-5.2,8.7c-2.8-0.4-11.8-1.5-13.5,2.8
					s6,5.1,8.1,5.3c-4,5.7-6.9,9.1-6.9,9.1s2.9,11,7,8.3c3.6-2.4,0.3-13.3-0.4-15.5c2.3-2.7,5-6.1,7.9-10c0.5,3.4,2,11.2,6.4,10.4
					c5.3-1,0-13.3-1.7-17.1c2-3.1,4-6.4,5.9-9.9c0.7,3.6,2.9,13.5,7.1,8.8s-1.2-13.9-3.1-16.8C325.5,249,327.2,244.5,328.5,239.9z"
					/>
				
					<linearGradient id="SVGID_43_" gradientUnits="userSpaceOnUse" x1="23.5" y1="269.5133" x2="69.06" y2="269.5133" gradientTransform="matrix(1 0 0 -1 0 552)">
					<stop  offset="0" style="stop-color:#056100"/>
					<stop  offset="1" style="stop-color:#29C200"/>
				</linearGradient>
				<path class="st62" d="M43.8,240.6c-5.3,6.3-1.5,12.6,12.2,2.8c-0.2,1.9-0.5,4-0.9,6.2c-16.4,2.6-18.8,21.3-2.2,11.3
					c-0.6,2.5-1.2,5.3-2,7.9c-14.6-4.8-20.4,13.8-2.7,8.2c-1.4,3.7-3,7.3-4.7,10.7c-15.3-5.7-20.6,10.7-3.5,6.7
					c-1.5,2.7-3,5.2-4.5,7.5c-11-2.6-18.3,5.7-4.7,7c-3.5,5-6,7.9-6,7.9s2.5,9.6,6,7.2c3.2-2.1,0.3-11.5-0.4-13.5
					c2-2.3,4.4-5.3,6.9-8.7c2.2,15.2,12.8,10.5,4-5.9c1.8-2.7,3.5-5.6,5.2-8.6c3.3,18.1,12.5,4.3,3.5-6.9c1.8-3.9,3.3-8,4.5-12.2
					c4.9,24.6,15.8,6.8,2.8-11c0.4-1.9,0.8-3.7,1.1-5.4c8.5,16.3,16.9,4.7,3.2-11C55.8,240.7,49.8,240.7,43.8,240.6z"/>
				<path class="st63" d="M525.8,463.2c8.7,8.5,18.9,9.3,19.5,12.1s7.8,17.9,7.8,17.9c-2.5-3.2-10-11.5-17.2-15.2s-10-1.2-5.6,4.5
					s23.7,13.6,24.3,15.5s7.3,12.3,8.2,14.4c0.5,1.1,7.1,8.1,13.2,14.3l5.3-0.1c-6.5-6.3-15.1-14.5-17.5-17
					c-4.1-4.3-7.9-16.3-7.9-16.3s2.8,3.3,7.5,0.5s9.2-12.3,1.3-15S554,489.5,554,489.5c-3.7-6.6-9.5-23.2-9.5-23.2s4.1,1,10.4-3.1
					s6.4-10.2,1.8-13.1s-13.8,9.4-13.8,9.4s0.4-18.3-4.1-26.1s-10.1-6.6-11.8,0.4s13.6,23,13.6,23c-0.3,1.9,2.8,12.8,2.8,12.8
					c-2.7-4.9-13.7-14.8-19.8-16.8S517.1,454.8,525.8,463.2z"/>
				<path class="st63" d="M569,523.4c0,0-10.3,1.9-16.8-2.7s-9.5-9.6-4.1-10.1s14.4,3.6,17.4,6.6s8.1,3.3,8.1,3.3
					S574.6,523.5,569,523.4z"/>
				<path class="st63" d="M479.4,514.9c7.7,3.5,23.8,0,23.8,0s-6.9,9-6.6,14.3c3.8-0.2,7.6-0.4,11.5-0.5c0.2-0.5,0.4-1,0.6-1.5
					c2.5-7.5,0.9-11.8,0.9-11.8s15.7,3.5,22.2,6.4c0,0-5,2.3-7.3,6.2l13.1-0.5c-0.1-1.7-0.9-3.2-2.2-4.3c0,0,7.7,1.4,12.9,4l4.4-0.1
					c-3.2-1.4-11.7-5.9-13.3-6.1c-1.8-0.3-12.2-19.9-18.1-23.7s-7.5-0.3-2.9,6.8s13.2,13.9,16.5,16c0,0-14.7-5.2-17.2-5.4
					s-5.2-11.1-14.2-19s-12.5-7.1-9.7-0.7s13.6,16.5,18.4,18.6c0,0-10.1-1.4-11.8-0.8c0,0-16.9-13.9-22.8-10.8
					S471.7,511.4,479.4,514.9z"/>
				<path class="st63" d="M556.2,527.1l7.7-0.2c-0.6-3.8-2-8.9-4.8-12.3c-5.2-6.2-10.2-8.6-9.6-2.7
					C550,516.5,553.3,523.2,556.2,527.1z"/>
				<path class="st64" d="M556,481.3c-1.1,1.9-4.4,15.9-5.4,18.2c-0.6,1.5-1.3,16.6-1.5,27.8l4.4-0.1c0-10.7,0-24.7,0.2-28.9
					c0.3-7,7.2-19.4,7.2-19.4s-0.5,5.1,5.5,7.3s17.5-0.7,13.5-10s-17.4-1.8-17.4-1.8c2.5-8.3,11.7-26,11.7-26s2.4,4.5,10.8,7.2
					s13.6-1.7,12.4-8.1s-18.8-5.7-18.8-5.7s15.5-13.2,18.4-23.1s-2.6-14.3-9.8-10.6s-8.3,29.6-8.3,29.6c-1.8,1.2-8.4,12-8.4,12
					c1.9-6.1,1.4-23.6-1.9-30.7s-6.8-4.3-6.9,9.9s7.3,24.3,5.5,26.9s-8.7,20.4-8.7,20.4c0.7-4.7,1.6-17.8-1.1-27.1s-7-10.1-8.2-1.9
					S557.1,479.4,556,481.3z"/>
				<path class="st64" d="M546.3,513.3c0,0-9.8-8.1-11.1-17.4s0.4-15.9,5.1-11.2s8.5,16,8.3,20.9s3.8,9.9,3.8,9.9
					S550.7,518.5,546.3,513.3z"/>
				<path class="st64" d="M477.3,452c10.5,10.2,22.8,11.3,23.5,14.6s9.4,21.6,9.4,21.6c-3-3.8-12.1-13.9-20.8-18.3
					s-12.1-1.5-6.8,5.4s28.7,16.4,29.3,18.7s8.8,14.9,9.9,17.4c0.6,1.3,7.9,9.1,15,16.3l6.3-0.2c-7.7-7.4-17.3-16.6-20.1-19.5
					c-5-5.2-9.6-19.7-9.6-19.7s3.4,4,9,0.6s11.1-14.8,1.6-18.1s-12.9,13-12.9,13c-4.5-8-11.5-28-11.5-28s4.9,1.2,12.5-3.8
					s7.8-12.4,2.2-15.9s-16.6,11.3-16.6,11.3s0.5-22.1-4.9-31.5s-12.2-8-14.3,0.5s16.4,27.8,16.4,27.8c-0.3,2.3,3.3,15.4,3.3,15.4
					c-3.3-5.9-16.5-17.9-24-20.2S466.8,441.8,477.3,452z"/>
				<path class="st64" d="M529.4,524.6c0,0-12.5,2.3-20.3-3.2s-11.4-11.6-4.9-12.1s17.4,4.4,21,8s9.8,3.9,9.8,3.9
					S536.2,524.7,529.4,524.6z"/>
				<path class="st64" d="M543.6,527.4l5.5-0.2c1.4-5.3,1.9-10.8,1.6-16.3c-0.5-8.2-8.3-12.2-10.6-4.3c-2.3,7.9,2.5,19,2.5,19
					C542.9,526.3,543.3,526.9,543.6,527.4z"/>
				<path class="st64" d="M421.3,514.4c9.3,4.3,28.7,0,28.7,0s-9,11.7-7.8,18c4.5-0.3,9-0.6,13.5-0.8c0.4-0.7,0.7-1.5,0.9-2.3
					c3.1-9.1,1.1-14.2,1.1-14.2s19,4.2,26.8,7.7c0,0-6.1,2.8-8.9,7.6l9.9-0.5l6-0.3c-0.2-1.9-1.2-3.7-2.6-5c5.1,1,10,2.5,14.8,4.4
					l5-0.2c-4.4-2-13.2-6.6-15-6.9c-2.1-0.3-14.8-24-21.8-28.6s-9-0.4-3.5,8.2s16,16.8,19.9,19.4c0,0-17.7-6.2-20.8-6.5
					s-6.2-13.4-17.1-23s-15.1-8.5-11.7-0.9s16.4,20,22.2,22.5c0,0-12.2-1.7-14.2-1c0,0-20.3-16.7-27.5-13.1S412.1,510.1,421.3,514.4
					z"/>
				<path class="st64" d="M513.6,528.5l9.6-0.4c-0.8-4.5-2.4-10.2-5.7-14.1c-6.3-7.5-12.3-10.4-11.6-3.3
					C506.4,516.1,510.1,523.7,513.6,528.5z"/>
				<path class="st65" d="M714,280.5c-0.3-9-0.8-18-1.3-26.9c-0.3-0.1-0.6-0.2-1-0.3c0.3-0.6,0.6-1.1,0.9-1.7
					c-0.3-5.4-0.5-10.7-0.7-16.1c-0.4-12.4,0-24.8,1.1-37.1c-1.4-3.9-3.4-6.4-6-6.3c-9.9,0.3-3.6,54.5-2.7,61.6
					c-16.9,31.6-36.3,59.9-58.3,80.9c2-11,5.3-35.7-2-42.1c-8.8-7.6-13.5,47.3-14.2,55.8c-17.2,12.7-35.8,21-55.8,23.1
					c18.6-44.9,1.8-68.3-17.4,0.3c-19.8-1.6-37.6-11.5-53.6-27.1c23.6-21.6,17.2-60.1-14.9-16.8c-13-16.6-24.5-36.7-34.6-58.4
					c25.9-6.5,25.6-49.5-11-25.3c-9.3-23.5-17.5-47.5-24.3-71.8c27.1,2.9,30.3-41.8-7.8-28.5c-3.7-14.4-7-28.4-10-42
					c-1.8,0.1-3.6,0.1-5.4,0.2c1.6,7.6,3.4,15.4,5.3,23.4c-3.1,12.3-12.5,52.8-4.8,57c6.2,3.4,10.5-14.1,12.6-25.7
					c6.6,25,14.8,51.7,23,74.2c-2.1,12.4-8.8,55.8-0.8,57.7c6.8,1.5,9.9-19.5,11-31.2c10.6,25.5,21.8,47.1,33.7,64.9
					c-0.4,13.1-1,57.4,7.1,54.5c7-2.5,7-24.4,6.5-36c17.5,21.2,36.2,34.4,55.8,39.2c3.2,13.6,11.9,47,18.3,37.3
					c5.5-8.3,1.5-25.3-1.6-35.2c20.2,0.4,39.7-5,58.5-16.2c23.9,42.9,35.6,13.8,16.6-11.6c21.8-17.4,42.6-43,62.2-76.6
					c6.3,3.7,11.4,5.2,15.5,5.1C714.1,281.8,714,281.1,714,280.5z"/>
				<path class="st66" d="M649.7,445.4c-5.7-10-22.4-38-27.1-32.7c-3.6,4.2,2.7,15.8,7.8,23.8c1,1.6,0.9,2.9-0.3,2.4
					c-16-7.1-31.3-15.6-45.9-25.4c-0.9-0.6-1.6-1.5-2-2.5c-3.8-10.1-15.5-39-22.3-36.8c-5.1,1.6-1.4,12.5,2.1,20.7
					c0.7,1.6,0,2.3-1.4,1.2c-20-16.3-38.2-34.7-54.4-54.8c-0.6-0.7-1-1.5-1.1-2.4c0-6.6-0.5-34.6-10.3-38.4
					c-7.1-2.7-7.3,7.1-6.5,14.5c0.1,1.4-1.4,1-2.7-0.8c-15.7-21.8-29.7-44.7-42-68.5c-0.4-0.8-0.5-1.5-0.3-1.8
					c2.6-4.3,12.8-22.5,2.8-30.9c-7.4-6.1-11.4,0.1-13.4,5.4c-0.4,1-2.4-0.4-3.2-2.3c-12-27.3-21.5-55.7-28.3-84.7
					c-3.4-0.1-6.9-0.2-10.3-0.3c-0.9,0-1.9-0.1-2.8-0.1c3.6,4,7.2,7.8,9.9,10.6c0.7,0.6,1.1,1.4,1.4,2.3c8.4,31.3,19.8,61.7,34,90.9
					c0.8,1.5,0.3,2.4-0.9,1.7c-6.2-3.9-13.8-7.3-14-1c-0.3,8.3,19.3,20.5,27.8,25.4c0.8,0.5,1.4,1.2,1.8,2
					c13.9,24.7,29.7,48.4,47,70.9c1.2,1.5,1.3,3.1,0.3,3c-5.5-0.8-12-0.3-9.6,7.4c3.1,9.9,20.1,12.3,27.6,12.9
					c0.7,0.2,1.3,0.6,1.7,1.1c17.8,20.3,37.8,38.6,59.6,54.5c1.5,1,2.5,3.4,1.8,3.9c-3.7,2.8-7.6,8.1-2.6,15.8
					c6.6,10.4,18.6-0.6,22.5-4.8c0.2-0.2,0.6-0.2,1.1,0.1c14.8,8.9,30.3,16.6,46.4,22.8c1.4,0.5,3,3,2.5,4c-2,4.8-3.3,12.2,2.4,18.8
					c7.9,9.1,14.3-8.8,16.2-15c0.1-0.3,0.4-0.4,0.8-0.3c5.2,1.5,10.5,2.9,15.8,4.2c0-2,0-4,0-6c-10.2-2.3-20.2-5.2-30-8.6
					C650.9,447,650.1,446.3,649.7,445.4z"/>
				<path class="st66" d="M690.7,473.3c-0.9-0.5-1.7-1.2-2.1-2.1c-5.7-10.1-22.2-38.3-26.9-32.9c-3.7,4.1,2.6,15.9,7.7,23.8
					c1,1.6,0.9,3-0.3,2.4c-16-7.3-31.2-15.9-45.7-25.8c-0.9-0.6-1.6-1.5-2-2.6c-3.8-10.2-15.2-39.1-22.1-37
					c-5.1,1.6-1.5,12.5,2,20.7c0.7,1.7,0,2.3-1.4,1.2c-19.9-16.5-38-35-54-55.3c-0.6-0.7-1-1.5-1.1-2.4c0-6.6-0.3-34.6-10-38.5
					c-7.1-2.8-7.3,7.1-6.6,14.5c0.1,1.4-1.4,1-2.7-0.8c-15.5-21.9-29.4-45-41.6-68.9c-0.4-0.5-0.5-1.2-0.3-1.8
					c2.7-4.3,13-22.4,3-30.9c-7.3-6.2-11.4,0-13.5,5.3c-0.4,1-2.4-0.5-3.2-2.4c-12-27.7-21.3-56.4-28-85.8c-0.1-0.6,0-1,0.3-1.1
					c4.4-1.1,24-7,15.2-18.6c-6.3-8.4-13.4-6.8-17.7-4.6c-0.9,0.4-2.9-1.8-3.2-3.4c-1.4-8.6-2.5-17-3.4-25.1l-5.2-0.1
					c0.7,6.5,1.6,13.1,2.6,19.7s2.2,13.3,3.6,20c0.3,1.4-0.8,1.4-2.1,0.1c-5.7-6.1-13-12.5-15.6-8.6c-3.4,5.2,13.9,24,22.4,32.7
					c0.6,0.7,1.1,1.5,1.4,2.3c8.2,31.4,19.4,61.9,33.5,91.2c0.7,1.5,0.3,2.4-1,1.6c-6.2-3.9-13.8-7.5-14-1.2
					c-0.3,8.3,19.2,20.7,27.7,25.6c0.8,0.5,1.4,1.2,1.8,2c13.8,24.8,29.4,48.7,46.6,71.3c1.2,1.5,1.3,3.1,0.3,3
					c-5.5-0.9-12-0.4-9.7,7.3c3,10,20,12.5,27.5,13.1c0.7,0.2,1.3,0.6,1.7,1.1c17.7,20.5,37.5,39,59.3,55.1c1.5,1.1,2.5,3.4,1.8,3.9
					c-3.7,2.8-7.6,8-2.7,15.8c6.5,10.4,18.6-0.5,22.5-4.5c0.2-0.2,0.6-0.2,1.1,0.1c14.7,9.1,30.3,16.9,46.3,23.3
					c1.4,0.5,2.9,3.1,2.5,4c-2,4.8-3.4,12.1,2.3,18.8c5,5.8,9.3,0.9,12.4-5.1l-0.1-17.5C697,475.5,693.9,474.4,690.7,473.3z"/>
			</g>
		</g>
	</g>
</g>
<radialGradient id="SVGID_44_" cx="325.88" cy="319.34" r="5.92" gradientTransform="matrix(1 0 0 -1 0 552)" gradientUnits="userSpaceOnUse">
	<stop  offset="0" style="stop-color:#FFFFFF"/>
	<stop  offset="0.13" style="stop-color:#FFFFFB"/>
	<stop  offset="0.26" style="stop-color:#FFFFEE"/>
	<stop  offset="0.39" style="stop-color:#FFFFDA"/>
	<stop  offset="0.53" style="stop-color:#FFFFBD"/>
	<stop  offset="0.66" style="stop-color:#FFFF98"/>
	<stop  offset="0.7" style="stop-color:#FFFF8C"/>
	<stop  offset="1" style="stop-color:#FFC728"/>
</radialGradient>
<circle class="st67" cx="325.9" cy="232.7" r="5.9"/>
<radialGradient id="SVGID_45_" cx="278.25" cy="319.34" r="5.92" gradientTransform="matrix(1 0 0 -1 0 552)" gradientUnits="userSpaceOnUse">
	<stop  offset="0" style="stop-color:#FFFFFF"/>
	<stop  offset="0.13" style="stop-color:#FFFFFB"/>
	<stop  offset="0.26" style="stop-color:#FFFFEE"/>
	<stop  offset="0.39" style="stop-color:#FFFFDA"/>
	<stop  offset="0.53" style="stop-color:#FFFFBD"/>
	<stop  offset="0.66" style="stop-color:#FFFF98"/>
	<stop  offset="0.7" style="stop-color:#FFFF8C"/>
	<stop  offset="1" style="stop-color:#FFC728"/>
</radialGradient>
<circle class="st68" cx="278.3" cy="232.7" r="5.9"/>
<radialGradient id="SVGID_46_" cx="230.62" cy="319.34" r="5.92" gradientTransform="matrix(1 0 0 -1 0 552)" gradientUnits="userSpaceOnUse">
	<stop  offset="0" style="stop-color:#FFFFFF"/>
	<stop  offset="0.13" style="stop-color:#FFFFFB"/>
	<stop  offset="0.26" style="stop-color:#FFFFEE"/>
	<stop  offset="0.39" style="stop-color:#FFFFDA"/>
	<stop  offset="0.53" style="stop-color:#FFFFBD"/>
	<stop  offset="0.66" style="stop-color:#FFFF98"/>
	<stop  offset="0.7" style="stop-color:#FFFF8C"/>
	<stop  offset="1" style="stop-color:#FFC728"/>
</radialGradient>
<circle class="st69" cx="230.6" cy="232.7" r="5.9"/>
<radialGradient id="SVGID_47_" cx="183" cy="319.34" r="5.92" gradientTransform="matrix(1 0 0 -1 0 552)" gradientUnits="userSpaceOnUse">
	<stop  offset="0" style="stop-color:#FFFFFF"/>
	<stop  offset="0.13" style="stop-color:#FFFFFB"/>
	<stop  offset="0.26" style="stop-color:#FFFFEE"/>
	<stop  offset="0.39" style="stop-color:#FFFFDA"/>
	<stop  offset="0.53" style="stop-color:#FFFFBD"/>
	<stop  offset="0.66" style="stop-color:#FFFF98"/>
	<stop  offset="0.7" style="stop-color:#FFFF8C"/>
	<stop  offset="1" style="stop-color:#FFC728"/>
</radialGradient>
<circle class="st70" cx="183" cy="232.7" r="5.9"/>
<radialGradient id="SVGID_48_" cx="135.37" cy="319.34" r="5.92" gradientTransform="matrix(1 0 0 -1 0 552)" gradientUnits="userSpaceOnUse">
	<stop  offset="0" style="stop-color:#FFFFFF"/>
	<stop  offset="0.13" style="stop-color:#FFFFFB"/>
	<stop  offset="0.26" style="stop-color:#FFFFEE"/>
	<stop  offset="0.39" style="stop-color:#FFFFDA"/>
	<stop  offset="0.53" style="stop-color:#FFFFBD"/>
	<stop  offset="0.66" style="stop-color:#FFFF98"/>
	<stop  offset="0.7" style="stop-color:#FFFF8C"/>
	<stop  offset="1" style="stop-color:#FFC728"/>
</radialGradient>
<circle class="st71" cx="135.4" cy="232.7" r="5.9"/>
<radialGradient id="SVGID_49_" cx="87.74" cy="319.34" r="5.92" gradientTransform="matrix(1 0 0 -1 0 552)" gradientUnits="userSpaceOnUse">
	<stop  offset="0" style="stop-color:#FFFFFF"/>
	<stop  offset="0.13" style="stop-color:#FFFFFB"/>
	<stop  offset="0.26" style="stop-color:#FFFFEE"/>
	<stop  offset="0.39" style="stop-color:#FFFFDA"/>
	<stop  offset="0.53" style="stop-color:#FFFFBD"/>
	<stop  offset="0.66" style="stop-color:#FFFF98"/>
	<stop  offset="0.7" style="stop-color:#FFFF8C"/>
	<stop  offset="1" style="stop-color:#FFC728"/>
</radialGradient>
<circle class="st72" cx="87.7" cy="232.7" r="5.9"/>
<radialGradient id="SVGID_50_" cx="40.11" cy="319.34" r="5.92" gradientTransform="matrix(1 0 0 -1 0 552)" gradientUnits="userSpaceOnUse">
	<stop  offset="0" style="stop-color:#FFFFFF"/>
	<stop  offset="0.13" style="stop-color:#FFFFFB"/>
	<stop  offset="0.26" style="stop-color:#FFFFEE"/>
	<stop  offset="0.39" style="stop-color:#FFFFDA"/>
	<stop  offset="0.53" style="stop-color:#FFFFBD"/>
	<stop  offset="0.66" style="stop-color:#FFFF98"/>
	<stop  offset="0.7" style="stop-color:#FFFF8C"/>
	<stop  offset="1" style="stop-color:#FFC728"/>
</radialGradient>
<circle class="st73" cx="40.1" cy="232.7" r="5.9"/>
<radialGradient id="SVGID_51_" cx="13.831" cy="290.724" r="5.92" gradientTransform="matrix(1 0 0 -1 1.140049e-03 551.9976)" gradientUnits="userSpaceOnUse">
	<stop  offset="0" style="stop-color:#FFFFFF"/>
	<stop  offset="0.13" style="stop-color:#FFFFFB"/>
	<stop  offset="0.26" style="stop-color:#FFFFEE"/>
	<stop  offset="0.39" style="stop-color:#FFFFDA"/>
	<stop  offset="0.53" style="stop-color:#FFFFBD"/>
	<stop  offset="0.66" style="stop-color:#FFFF98"/>
	<stop  offset="0.7" style="stop-color:#FFFF8C"/>
	<stop  offset="1" style="stop-color:#FFC728"/>
</radialGradient>
<circle class="st74" cx="13.8" cy="261.3" r="5.9"/>
<radialGradient id="SVGID_52_" cx="13.83" cy="243.0999" r="5.915" gradientTransform="matrix(1 0 0 -1 -6.366391e-03 551.9894)" gradientUnits="userSpaceOnUse">
	<stop  offset="0" style="stop-color:#FFFFFF"/>
	<stop  offset="0.13" style="stop-color:#FFFFFB"/>
	<stop  offset="0.26" style="stop-color:#FFFFEE"/>
	<stop  offset="0.39" style="stop-color:#FFFFDA"/>
	<stop  offset="0.53" style="stop-color:#FFFFBD"/>
	<stop  offset="0.66" style="stop-color:#FFFF98"/>
	<stop  offset="0.7" style="stop-color:#FFFF8C"/>
	<stop  offset="1" style="stop-color:#FFC728"/>
</radialGradient>
<circle class="st75" cx="13.8" cy="308.9" r="5.9"/>
<radialGradient id="SVGID_53_" cx="13.83" cy="195.47" r="5.92" gradientTransform="matrix(1 0 0 -1 0 552)" gradientUnits="userSpaceOnUse">
	<stop  offset="0" style="stop-color:#FFFFFF"/>
	<stop  offset="0.13" style="stop-color:#FFFFFB"/>
	<stop  offset="0.26" style="stop-color:#FFFFEE"/>
	<stop  offset="0.39" style="stop-color:#FFFFDA"/>
	<stop  offset="0.53" style="stop-color:#FFFFBD"/>
	<stop  offset="0.66" style="stop-color:#FFFF98"/>
	<stop  offset="0.7" style="stop-color:#FFFF8C"/>
	<stop  offset="1" style="stop-color:#FFC728"/>
</radialGradient>
<circle class="st76" cx="13.8" cy="356.5" r="5.9"/>
<radialGradient id="SVGID_54_" cx="13.831" cy="147.8461" r="5.92" gradientTransform="matrix(1 0 0 -1 -7.450802e-03 552.001)" gradientUnits="userSpaceOnUse">
	<stop  offset="0" style="stop-color:#FFFFFF"/>
	<stop  offset="0.13" style="stop-color:#FFFFFB"/>
	<stop  offset="0.26" style="stop-color:#FFFFEE"/>
	<stop  offset="0.39" style="stop-color:#FFFFDA"/>
	<stop  offset="0.53" style="stop-color:#FFFFBD"/>
	<stop  offset="0.66" style="stop-color:#FFFF98"/>
	<stop  offset="0.7" style="stop-color:#FFFF8C"/>
	<stop  offset="1" style="stop-color:#FFC728"/>
</radialGradient>
<circle class="st77" cx="13.8" cy="404.2" r="5.9"/>
<radialGradient id="SVGID_55_" cx="13.83" cy="100.21" r="5.92" gradientTransform="matrix(1 0 0 -1 0 552)" gradientUnits="userSpaceOnUse">
	<stop  offset="0" style="stop-color:#FFFFFF"/>
	<stop  offset="0.13" style="stop-color:#FFFFFB"/>
	<stop  offset="0.26" style="stop-color:#FFFFEE"/>
	<stop  offset="0.39" style="stop-color:#FFFFDA"/>
	<stop  offset="0.53" style="stop-color:#FFFFBD"/>
	<stop  offset="0.66" style="stop-color:#FFFF98"/>
	<stop  offset="0.7" style="stop-color:#FFFF8C"/>
	<stop  offset="1" style="stop-color:#FFC728"/>
</radialGradient>
<circle class="st78" cx="13.8" cy="451.8" r="5.9"/>
<radialGradient id="SVGID_56_" cx="13.831" cy="52.5846" r="5.92" gradientTransform="matrix(1 0 0 -1 1.546218e-03 551.9986)" gradientUnits="userSpaceOnUse">
	<stop  offset="0" style="stop-color:#FFFFFF"/>
	<stop  offset="0.13" style="stop-color:#FFFFFB"/>
	<stop  offset="0.26" style="stop-color:#FFFFEE"/>
	<stop  offset="0.39" style="stop-color:#FFFFDA"/>
	<stop  offset="0.53" style="stop-color:#FFFFBD"/>
	<stop  offset="0.66" style="stop-color:#FFFF98"/>
	<stop  offset="0.7" style="stop-color:#FFFF8C"/>
	<stop  offset="1" style="stop-color:#FFC728"/>
</radialGradient>
<circle class="st79" cx="13.8" cy="499.4" r="5.9"/>
<radialGradient id="SVGID_57_" cx="33.61" cy="17.4585" r="5.9208" gradientTransform="matrix(1 0 0 -1 -2.354617e-02 551.9764)" gradientUnits="userSpaceOnUse">
	<stop  offset="0" style="stop-color:#FFFFFF"/>
	<stop  offset="0.13" style="stop-color:#FFFFFB"/>
	<stop  offset="0.26" style="stop-color:#FFFFEE"/>
	<stop  offset="0.39" style="stop-color:#FFFFDA"/>
	<stop  offset="0.53" style="stop-color:#FFFFBD"/>
	<stop  offset="0.66" style="stop-color:#FFFF98"/>
	<stop  offset="0.7" style="stop-color:#FFFF8C"/>
	<stop  offset="1" style="stop-color:#FFC728"/>
</radialGradient>
<circle class="st80" cx="33.6" cy="534.5" r="5.9"/>
<radialGradient id="SVGID_58_" cx="81.2434" cy="17.4612" r="5.9215" gradientTransform="matrix(1 0 0 -1 2.137711e-03 552.0026)" gradientUnits="userSpaceOnUse">
	<stop  offset="0" style="stop-color:#FFFFFF"/>
	<stop  offset="0.13" style="stop-color:#FFFFFB"/>
	<stop  offset="0.26" style="stop-color:#FFFFEE"/>
	<stop  offset="0.39" style="stop-color:#FFFFDA"/>
	<stop  offset="0.53" style="stop-color:#FFFFBD"/>
	<stop  offset="0.66" style="stop-color:#FFFF98"/>
	<stop  offset="0.7" style="stop-color:#FFFF8C"/>
	<stop  offset="1" style="stop-color:#FFC728"/>
</radialGradient>
<circle class="st81" cx="81.2" cy="534.5" r="5.9"/>
<radialGradient id="SVGID_59_" cx="128.87" cy="17.469" r="5.9155" gradientTransform="matrix(1 0 0 -1 -2.085929e-02 551.9843)" gradientUnits="userSpaceOnUse">
	<stop  offset="0" style="stop-color:#FFFFFF"/>
	<stop  offset="0.13" style="stop-color:#FFFFFB"/>
	<stop  offset="0.26" style="stop-color:#FFFFEE"/>
	<stop  offset="0.39" style="stop-color:#FFFFDA"/>
	<stop  offset="0.53" style="stop-color:#FFFFBD"/>
	<stop  offset="0.66" style="stop-color:#FFFF98"/>
	<stop  offset="0.7" style="stop-color:#FFFF8C"/>
	<stop  offset="1" style="stop-color:#FFC728"/>
</radialGradient>
<circle class="st82" cx="128.9" cy="534.5" r="5.9"/>
<radialGradient id="SVGID_60_" cx="176.4936" cy="17.4619" r="5.9215" gradientTransform="matrix(1 0 0 -1 1.452941e-03 552.0027)" gradientUnits="userSpaceOnUse">
	<stop  offset="0" style="stop-color:#FFFFFF"/>
	<stop  offset="0.13" style="stop-color:#FFFFFB"/>
	<stop  offset="0.26" style="stop-color:#FFFFEE"/>
	<stop  offset="0.39" style="stop-color:#FFFFDA"/>
	<stop  offset="0.53" style="stop-color:#FFFFBD"/>
	<stop  offset="0.66" style="stop-color:#FFFF98"/>
	<stop  offset="0.7" style="stop-color:#FFFF8C"/>
	<stop  offset="1" style="stop-color:#FFC728"/>
</radialGradient>
<circle class="st83" cx="176.5" cy="534.5" r="5.9"/>
<radialGradient id="SVGID_61_" cx="224.1245" cy="17.4556" r="5.92" gradientTransform="matrix(1 0 0 -1 -9.300898e-04 551.9957)" gradientUnits="userSpaceOnUse">
	<stop  offset="0" style="stop-color:#FFFFFF"/>
	<stop  offset="0.13" style="stop-color:#FFFFFB"/>
	<stop  offset="0.26" style="stop-color:#FFFFEE"/>
	<stop  offset="0.39" style="stop-color:#FFFFDA"/>
	<stop  offset="0.53" style="stop-color:#FFFFBD"/>
	<stop  offset="0.66" style="stop-color:#FFFF98"/>
	<stop  offset="0.7" style="stop-color:#FFFF8C"/>
	<stop  offset="1" style="stop-color:#FFC728"/>
</radialGradient>
<circle class="st84" cx="224.1" cy="534.5" r="5.9"/>
<radialGradient id="SVGID_62_" cx="271.7531" cy="17.4665" r="5.9152" gradientTransform="matrix(1 0 0 -1 7.689019e-04 552.0028)" gradientUnits="userSpaceOnUse">
	<stop  offset="0" style="stop-color:#FFFFFF"/>
	<stop  offset="0.13" style="stop-color:#FFFFFB"/>
	<stop  offset="0.26" style="stop-color:#FFFFEE"/>
	<stop  offset="0.39" style="stop-color:#FFFFDA"/>
	<stop  offset="0.53" style="stop-color:#FFFFBD"/>
	<stop  offset="0.66" style="stop-color:#FFFF98"/>
	<stop  offset="0.7" style="stop-color:#FFFF8C"/>
	<stop  offset="1" style="stop-color:#FFC728"/>
</radialGradient>
<circle class="st85" cx="271.8" cy="534.5" r="5.9"/>
<radialGradient id="SVGID_63_" cx="319.3789" cy="17.4627" r="5.92" gradientTransform="matrix(1 0 0 -1 3.699794e-03 552.0037)" gradientUnits="userSpaceOnUse">
	<stop  offset="0" style="stop-color:#FFFFFF"/>
	<stop  offset="0.13" style="stop-color:#FFFFFB"/>
	<stop  offset="0.26" style="stop-color:#FFFFEE"/>
	<stop  offset="0.39" style="stop-color:#FFFFDA"/>
	<stop  offset="0.53" style="stop-color:#FFFFBD"/>
	<stop  offset="0.66" style="stop-color:#FFFF98"/>
	<stop  offset="0.7" style="stop-color:#FFFF8C"/>
	<stop  offset="1" style="stop-color:#FFC728"/>
</radialGradient>
<circle class="st86" cx="319.4" cy="534.5" r="5.9"/>
<radialGradient id="SVGID_64_" cx="367" cy="17.46" r="5.92" gradientTransform="matrix(1 0 0 -1 -3.969834e-02 551.9892)" gradientUnits="userSpaceOnUse">
	<stop  offset="0" style="stop-color:#FFFFFF"/>
	<stop  offset="0.13" style="stop-color:#FFFFFB"/>
	<stop  offset="0.26" style="stop-color:#FFFFEE"/>
	<stop  offset="0.39" style="stop-color:#FFFFDA"/>
	<stop  offset="0.53" style="stop-color:#FFFFBD"/>
	<stop  offset="0.66" style="stop-color:#FFFF98"/>
	<stop  offset="0.7" style="stop-color:#FFFF8C"/>
	<stop  offset="1" style="stop-color:#FFC728"/>
</radialGradient>
<circle class="st87" cx="367" cy="534.5" r="5.9"/>
<radialGradient id="SVGID_65_" cx="414.6303" cy="17.463" r="5.9215" gradientTransform="matrix(1 0 0 -1 -2.567879e-03 552.0015)" gradientUnits="userSpaceOnUse">
	<stop  offset="0" style="stop-color:#FFFFFF"/>
	<stop  offset="0.13" style="stop-color:#FFFFFB"/>
	<stop  offset="0.26" style="stop-color:#FFFFEE"/>
	<stop  offset="0.39" style="stop-color:#FFFFDA"/>
	<stop  offset="0.53" style="stop-color:#FFFFBD"/>
	<stop  offset="0.66" style="stop-color:#FFFF98"/>
	<stop  offset="0.7" style="stop-color:#FFFF8C"/>
	<stop  offset="1" style="stop-color:#FFC728"/>
</radialGradient>
<circle class="st88" cx="414.6" cy="534.5" r="5.9"/>
<radialGradient id="SVGID_66_" cx="462.26" cy="17.46" r="5.92" gradientTransform="matrix(1 0 0 -1 -4.673127e-02 551.9948)" gradientUnits="userSpaceOnUse">
	<stop  offset="0" style="stop-color:#FFFFFF"/>
	<stop  offset="0.13" style="stop-color:#FFFFFB"/>
	<stop  offset="0.26" style="stop-color:#FFFFEE"/>
	<stop  offset="0.39" style="stop-color:#FFFFDA"/>
	<stop  offset="0.53" style="stop-color:#FFFFBD"/>
	<stop  offset="0.66" style="stop-color:#FFFF98"/>
	<stop  offset="0.7" style="stop-color:#FFFF8C"/>
	<stop  offset="1" style="stop-color:#FFC728"/>
</radialGradient>
<circle class="st89" cx="462.2" cy="534.5" r="5.9"/>
<radialGradient id="SVGID_67_" cx="509.8843" cy="17.4545" r="5.9215" gradientTransform="matrix(1 0 0 -1 -7.078841e-03 551.9924)" gradientUnits="userSpaceOnUse">
	<stop  offset="0" style="stop-color:#FFFFFF"/>
	<stop  offset="0.13" style="stop-color:#FFFFFB"/>
	<stop  offset="0.26" style="stop-color:#FFFFEE"/>
	<stop  offset="0.39" style="stop-color:#FFFFDA"/>
	<stop  offset="0.53" style="stop-color:#FFFFBD"/>
	<stop  offset="0.66" style="stop-color:#FFFF98"/>
	<stop  offset="0.7" style="stop-color:#FFFF8C"/>
	<stop  offset="1" style="stop-color:#FFC728"/>
</radialGradient>
<circle class="st90" cx="509.9" cy="534.5" r="5.9"/>
<radialGradient id="SVGID_68_" cx="536.1708" cy="46.0792" r="5.92" gradientTransform="matrix(1 0 0 -1 -1.859805e-03 551.9993)" gradientUnits="userSpaceOnUse">
	<stop  offset="0" style="stop-color:#FFFFFF"/>
	<stop  offset="0.13" style="stop-color:#FFFFFB"/>
	<stop  offset="0.26" style="stop-color:#FFFFEE"/>
	<stop  offset="0.39" style="stop-color:#FFFFDA"/>
	<stop  offset="0.53" style="stop-color:#FFFFBD"/>
	<stop  offset="0.66" style="stop-color:#FFFF98"/>
	<stop  offset="0.7" style="stop-color:#FFFF8C"/>
	<stop  offset="1" style="stop-color:#FFC728"/>
</radialGradient>
<circle class="st91" cx="536.2" cy="505.9" r="5.9"/>
<radialGradient id="SVGID_69_" cx="536.17" cy="93.71" r="5.92" gradientTransform="matrix(1 0 0 -1 0 552)" gradientUnits="userSpaceOnUse">
	<stop  offset="0" style="stop-color:#FFFFFF"/>
	<stop  offset="0.13" style="stop-color:#FFFFFB"/>
	<stop  offset="0.26" style="stop-color:#FFFFEE"/>
	<stop  offset="0.39" style="stop-color:#FFFFDA"/>
	<stop  offset="0.53" style="stop-color:#FFFFBD"/>
	<stop  offset="0.66" style="stop-color:#FFFF98"/>
	<stop  offset="0.7" style="stop-color:#FFFF8C"/>
	<stop  offset="1" style="stop-color:#FFC728"/>
</radialGradient>
<circle class="st92" cx="536.2" cy="458.3" r="5.9"/>
<radialGradient id="SVGID_70_" cx="536.1708" cy="141.3406" r="5.92" gradientTransform="matrix(1 0 0 -1 -8.677125e-04 552.0017)" gradientUnits="userSpaceOnUse">
	<stop  offset="0" style="stop-color:#FFFFFF"/>
	<stop  offset="0.13" style="stop-color:#FFFFFB"/>
	<stop  offset="0.26" style="stop-color:#FFFFEE"/>
	<stop  offset="0.39" style="stop-color:#FFFFDA"/>
	<stop  offset="0.53" style="stop-color:#FFFFBD"/>
	<stop  offset="0.66" style="stop-color:#FFFF98"/>
	<stop  offset="0.7" style="stop-color:#FFFF8C"/>
	<stop  offset="1" style="stop-color:#FFC728"/>
</radialGradient>
<circle class="st93" cx="536.2" cy="410.7" r="5.9"/>
<radialGradient id="SVGID_71_" cx="536.17" cy="188.96" r="5.92" gradientTransform="matrix(1 0 0 -1 -3.428128e-02 552.0061)" gradientUnits="userSpaceOnUse">
	<stop  offset="0" style="stop-color:#FFFFFF"/>
	<stop  offset="0.13" style="stop-color:#FFFFFB"/>
	<stop  offset="0.26" style="stop-color:#FFFFEE"/>
	<stop  offset="0.39" style="stop-color:#FFFFDA"/>
	<stop  offset="0.53" style="stop-color:#FFFFBD"/>
	<stop  offset="0.66" style="stop-color:#FFFF98"/>
	<stop  offset="0.7" style="stop-color:#FFFF8C"/>
	<stop  offset="1" style="stop-color:#FFC728"/>
</radialGradient>
<circle class="st94" cx="536.2" cy="363" r="5.9"/>
<radialGradient id="SVGID_72_" cx="536.17" cy="236.59" r="5.92" gradientTransform="matrix(1 0 0 -1 0 552)" gradientUnits="userSpaceOnUse">
	<stop  offset="0" style="stop-color:#FFFFFF"/>
	<stop  offset="0.13" style="stop-color:#FFFFFB"/>
	<stop  offset="0.26" style="stop-color:#FFFFEE"/>
	<stop  offset="0.39" style="stop-color:#FFFFDA"/>
	<stop  offset="0.53" style="stop-color:#FFFFBD"/>
	<stop  offset="0.66" style="stop-color:#FFFF98"/>
	<stop  offset="0.7" style="stop-color:#FFFF8C"/>
	<stop  offset="1" style="stop-color:#FFC728"/>
</radialGradient>
<circle class="st95" cx="536.2" cy="315.4" r="5.9"/>
<radialGradient id="SVGID_73_" cx="536.1794" cy="284.22" r="5.9153" gradientTransform="matrix(1 0 0 -1 -2.643524e-02 552.0034)" gradientUnits="userSpaceOnUse">
	<stop  offset="0" style="stop-color:#FFFFFF"/>
	<stop  offset="0.13" style="stop-color:#FFFFFB"/>
	<stop  offset="0.26" style="stop-color:#FFFFEE"/>
	<stop  offset="0.39" style="stop-color:#FFFFDA"/>
	<stop  offset="0.53" style="stop-color:#FFFFBD"/>
	<stop  offset="0.66" style="stop-color:#FFFF98"/>
	<stop  offset="0.7" style="stop-color:#FFFF8C"/>
	<stop  offset="1" style="stop-color:#FFC728"/>
</radialGradient>
<circle class="st96" cx="536.2" cy="267.8" r="5.9"/>
<radialGradient id="SVGID_74_" cx="516.39" cy="319.34" r="5.92" gradientTransform="matrix(1 0 0 -1 0 552)" gradientUnits="userSpaceOnUse">
	<stop  offset="0" style="stop-color:#FFFFFF"/>
	<stop  offset="0.13" style="stop-color:#FFFFFB"/>
	<stop  offset="0.26" style="stop-color:#FFFFEE"/>
	<stop  offset="0.39" style="stop-color:#FFFFDA"/>
	<stop  offset="0.53" style="stop-color:#FFFFBD"/>
	<stop  offset="0.66" style="stop-color:#FFFF98"/>
	<stop  offset="0.7" style="stop-color:#FFFF8C"/>
	<stop  offset="1" style="stop-color:#FFC728"/>
</radialGradient>
<circle class="st97" cx="516.4" cy="232.7" r="5.9"/>
<radialGradient id="SVGID_75_" cx="468.76" cy="319.34" r="5.92" gradientTransform="matrix(1 0 0 -1 0 552)" gradientUnits="userSpaceOnUse">
	<stop  offset="0" style="stop-color:#FFFFFF"/>
	<stop  offset="0.13" style="stop-color:#FFFFFB"/>
	<stop  offset="0.26" style="stop-color:#FFFFEE"/>
	<stop  offset="0.39" style="stop-color:#FFFFDA"/>
	<stop  offset="0.53" style="stop-color:#FFFFBD"/>
	<stop  offset="0.66" style="stop-color:#FFFF98"/>
	<stop  offset="0.7" style="stop-color:#FFFF8C"/>
	<stop  offset="1" style="stop-color:#FFC728"/>
</radialGradient>
<circle class="st98" cx="468.8" cy="232.7" r="5.9"/>
<radialGradient id="SVGID_76_" cx="421.13" cy="319.34" r="5.92" gradientTransform="matrix(1 0 0 -1 0 552)" gradientUnits="userSpaceOnUse">
	<stop  offset="0" style="stop-color:#FFFFFF"/>
	<stop  offset="0.13" style="stop-color:#FFFFFB"/>
	<stop  offset="0.26" style="stop-color:#FFFFEE"/>
	<stop  offset="0.39" style="stop-color:#FFFFDA"/>
	<stop  offset="0.53" style="stop-color:#FFFFBD"/>
	<stop  offset="0.66" style="stop-color:#FFFF98"/>
	<stop  offset="0.7" style="stop-color:#FFFF8C"/>
	<stop  offset="1" style="stop-color:#FFC728"/>
</radialGradient>
<circle class="st99" cx="421.1" cy="232.7" r="5.9"/>
<radialGradient id="SVGID_77_" cx="373.51" cy="319.34" r="5.92" gradientTransform="matrix(1 0 0 -1 0 552)" gradientUnits="userSpaceOnUse">
	<stop  offset="0" style="stop-color:#FFFFFF"/>
	<stop  offset="0.13" style="stop-color:#FFFFFB"/>
	<stop  offset="0.26" style="stop-color:#FFFFEE"/>
	<stop  offset="0.39" style="stop-color:#FFFFDA"/>
	<stop  offset="0.53" style="stop-color:#FFFFBD"/>
	<stop  offset="0.66" style="stop-color:#FFFF98"/>
	<stop  offset="0.7" style="stop-color:#FFFF8C"/>
	<stop  offset="1" style="stop-color:#FFC728"/>
</radialGradient>
<circle class="st100" cx="373.5" cy="232.7" r="5.9"/>
<radialGradient id="SVGID_78_" cx="325.88" cy="319.34" r="5.92" gradientTransform="matrix(1 0 0 -1 0 552)" gradientUnits="userSpaceOnUse">
	<stop  offset="0" style="stop-color:#FFFFFF"/>
	<stop  offset="0.13" style="stop-color:#FFFFFB"/>
	<stop  offset="0.26" style="stop-color:#FFFFEE"/>
	<stop  offset="0.39" style="stop-color:#FFFFDA"/>
	<stop  offset="0.53" style="stop-color:#FFFFBD"/>
	<stop  offset="0.66" style="stop-color:#FFFF98"/>
	<stop  offset="0.7" style="stop-color:#FFFF8C"/>
	<stop  offset="1" style="stop-color:#FFC728"/>
</radialGradient>
<circle class="st101" cx="325.9" cy="232.7" r="5.9"/>
</svg>
