<?xml version="1.0" encoding="utf-8"?>
<!-- Generator: Adobe Illustrator 25.2.3, SVG Export Plug-In . SVG Version: 6.00 Build 0)  -->
<svg version="1.1" id="Layer_1" xmlns="http://www.w3.org/2000/svg" xmlns:xlink="http://www.w3.org/1999/xlink" x="0px" y="0px"
	 viewBox="0 0 770 740" style="enable-background:new 0 0 770 740;" xml:space="preserve">
<style type="text/css">
	.st0{fill:#7C5438;}
	.st1{opacity:0.5;}
	.st2{fill:#CE9F38;}
	.st3{fill:#E5AE41;}
	.st4{opacity:0.5;fill:#CE9F38;enable-background:new    ;}
	.st5{opacity:0.4;fill:#CE9F38;enable-background:new    ;}
	.st6{fill:#FFE3C7;}
	.st7{fill:url(#SVGID_1_);}
	.st8{fill:#C77B4B;}
	.st9{fill:#F0D9AA;}
	.st10{clip-path:url(#SVGID_3_);}
	.st11{clip-path:url(#SVGID_5_);}
	.st12{fill:#46DCFF;}
	.st13{fill:#178C80;}
	.st14{fill:#139E69;}
	.st15{fill:#2ABCB1;}
	.st16{fill:#1F7F58;}
	.st17{fill:#4FAAA5;}
	.st18{fill:#32CE95;stroke:#0C685D;stroke-miterlimit:10;}
	.st19{fill:#3CBF7A;}
	.st20{opacity:0.45;fill:#92CC36;enable-background:new    ;}
	.st21{fill:#659E7B;}
	.st22{fill:#61847D;}
	.st23{fill:#41685F;}
	.st24{fill:#5BA389;}
	.st25{fill:#256350;}
	.st26{fill:#22493F;}
	.st27{fill:#423628;}
	.st28{fill:#564837;}
	.st29{fill:#84766D;}
	.st30{fill:#93908C;}
	.st31{opacity:0.75;}
	.st32{opacity:0.43;fill:#88F1FF;enable-background:new    ;}
	.st33{fill:#045D6B;}
	.st34{fill:none;}
	.st35{fill:#163A30;}
	.st36{fill:#0A8C57;}
	.st37{fill:#94877E;}
	.st38{fill:#A8A4A0;}
	.st39{fill:url(#SVGID_6_);}
	.st40{fill:url(#SVGID_7_);}
	.st41{fill:url(#SVGID_8_);}
	.st42{fill:url(#SVGID_9_);}
	.st43{fill:url(#SVGID_10_);}
	.st44{fill:url(#SVGID_11_);}
	.st45{fill:url(#SVGID_12_);}
	.st46{fill:url(#SVGID_13_);}
	.st47{fill:url(#SVGID_14_);}
	.st48{fill:url(#SVGID_15_);}
	.st49{fill:url(#SVGID_16_);}
	.st50{fill:url(#SVGID_17_);}
	.st51{fill:url(#SVGID_18_);}
	.st52{fill:url(#SVGID_19_);}
	.st53{fill:url(#SVGID_20_);}
	.st54{fill:url(#SVGID_21_);}
	.st55{fill:url(#SVGID_22_);}
	.st56{fill:url(#SVGID_23_);}
	.st57{fill:url(#SVGID_24_);}
	.st58{fill:url(#SVGID_25_);}
	.st59{fill:url(#SVGID_26_);}
	.st60{fill:url(#SVGID_27_);}
	.st61{fill:url(#SVGID_28_);}
	.st62{fill:url(#SVGID_29_);}
	.st63{fill:url(#SVGID_30_);}
	.st64{fill:url(#SVGID_31_);}
	.st65{fill:url(#SVGID_32_);}
	.st66{fill:url(#SVGID_33_);}
	.st67{fill:url(#SVGID_34_);}
	.st68{fill:url(#SVGID_35_);}
	.st69{fill:url(#SVGID_36_);}
</style>
<path class="st0" d="M644.2,297.3c-9.9,0-17.9-8-17.9-17.8s8-17.9,17.8-17.9c9.9,0,17.9,8,17.9,17.8c0,0,0,0,0,0
	C662,289.3,654,297.3,644.2,297.3z M644.2,267.3c-6.7,0-12.1,5.4-12.1,12.1s5.4,12.1,12.1,12.1s12.1-5.4,12.1-12.1c0,0,0,0,0,0
	C656.2,272.8,650.8,267.4,644.2,267.3L644.2,267.3z"/>
<g class="st1">
	<path class="st2" d="M644.3,295.4c-8.9,0-16.1-7.2-16.1-16.1c0-8.9,7.2-16.1,16.1-16.1c8.9,0,16.1,7.2,16.1,16.1c0,0,0,0,0,0
		C660.5,288.2,653.2,295.4,644.3,295.4z M644.3,265.1c-7.9,0-14.2,6.4-14.2,14.2s6.4,14.2,14.2,14.2c7.9,0,14.2-6.4,14.2-14.2
		c0,0,0,0,0,0C658.5,271.4,652.2,265.1,644.3,265.1z"/>
</g>
<path class="st3" d="M637.7,265.7c-0.8-0.2-1.7-0.1-2.5,0.4l-1,0.6c-1.4,2.2-3.6,3.6-4.8,6.1c-0.6,1.3-1,2.8-1.2,4.2
	c-0.2,1.6,0.2,3.7,1.6,1.7s1.3-5.6,2.8-7.8C633.8,269.3,638,267.4,637.7,265.7z"/>
<path class="st3" d="M659.3,281.3c-1.4-0.3-2.5,5.8-3.6,7.2c-2.1,2.7-4.4,3.6-7.4,4.4l-0.6,0.2c-1.5,0-1.3,1.1,0,1.3
	c1-0.1,1.9-0.4,2.8-0.8c1.7-0.7,3.2-1.7,4.5-3C657.2,288.6,660.6,284.6,659.3,281.3z"/>
<rect x="640.6" y="296.5" class="st0" width="7.1" height="13.9"/>
<polygon class="st4" points="641.6,298.3 641.7,309.9 644.6,310.4 644.1,299.9 "/>
<path class="st0" d="M643.1,255.2c-8.8,0-15.9-7.1-15.9-15.9s7.1-15.9,15.9-15.9s15.9,7.1,15.9,15.9
	C659,248.1,651.9,255.2,643.1,255.2z M643.1,228.5c-6,0-10.8,4.8-10.8,10.8c0,6,4.8,10.8,10.8,10.8c6,0,10.8-4.8,10.8-10.8
	c0,0,0,0,0,0C653.9,233.4,649.1,228.5,643.1,228.5L643.1,228.5z"/>
<g class="st1">
	<path class="st2" d="M643.3,253.5c-7.9,0-14.4-6.4-14.4-14.4s6.4-14.4,14.4-14.4c7.9,0,14.4,6.4,14.4,14.4c0,0,0,0,0,0
		C657.6,247.1,651.2,253.5,643.3,253.5z M643.3,226.5c-7,0-12.6,5.7-12.6,12.7c0,7,5.7,12.6,12.7,12.6c7,0,12.6-5.7,12.6-12.7
		C656,232.2,650.3,226.5,643.3,226.5C643.3,226.5,643.3,226.5,643.3,226.5L643.3,226.5z"/>
</g>
<path class="st3" d="M637.4,227c-0.7-0.2-1.5-0.1-2.2,0.3l-0.8,0.5c-1.3,1.9-3.2,3.2-4.3,5.4c-0.5,1.2-0.9,2.5-1,3.8
	c-0.2,1.4,0.1,3.3,1.4,1.5s1.1-4.9,2.5-7C633.8,230.3,637.7,228.5,637.4,227z"/>
<path class="st3" d="M656.6,241c-1.3-0.3-2.2,5.1-3.2,6.4c-1.9,2.4-3.9,3.2-6.6,3.9l-0.5,0.2c-1.3,0.1-1.2,1,0,1.2
	c0.9-0.1,1.7-0.3,2.5-0.7c1.5-0.6,2.8-1.5,4-2.6C654.7,247.5,657.8,243.9,656.6,241z"/>
<path class="st0" d="M647.6,269.9c0,1.4-1.6,2.6-3.5,2.6l0,0c-2,0-3.5-1.2-3.5-2.6v-22.1c0-1.4,1.6-2.6,3.5-2.6l0,0
	c2,0,3.5,1.2,3.5,2.6V269.9z"/>
<path class="st5" d="M645.6,263.3c-0.1,1-1,1.8-2,1.8l0,0c-1,0.1-1.9-0.7-2-1.8v-15.1c0.1-1,1-1.8,2-1.8l0,0c1-0.1,1.9,0.7,2,1.8
	V263.3z"/>
<path class="st3" d="M643.5,254.6c-0.3-2.1,0.7-4,0.4-6c-0.3-0.1-0.6-0.2-0.9-0.3h-0.1c-1.3,1.3-0.2,4.4-0.3,6.1
	c0,0.9-1.1,5.4,0.5,5.3S643.6,255.4,643.5,254.6z"/>
<path class="st0" d="M643.3,212.1c-8.8,0-15.9-7.1-15.9-15.9s7.1-15.9,15.9-15.9s15.9,7.1,15.9,15.9c0,0,0,0,0,0
	C659.2,205,652.1,212.1,643.3,212.1z M643.3,185.4c-6,0-10.8,4.8-10.8,10.8s4.8,10.8,10.8,10.8c6,0,10.8-4.8,10.8-10.8c0,0,0,0,0,0
	C654.1,190.2,649.2,185.4,643.3,185.4z"/>
<g class="st1">
	<path class="st2" d="M643.5,210.4c-7.9,0-14.4-6.4-14.4-14.4s6.4-14.4,14.4-14.4c7.9,0,14.4,6.4,14.4,14.4c0,0,0,0,0,0
		C657.8,203.9,651.4,210.4,643.5,210.4z M643.5,183.4c-7,0-12.7,5.7-12.7,12.7c0,7,5.7,12.7,12.7,12.7c7,0,12.7-5.7,12.7-12.7
		c0,0,0,0,0,0C656.1,189,650.4,183.3,643.5,183.4L643.5,183.4z"/>
</g>
<path class="st3" d="M637.6,183.9c-0.7-0.2-1.5-0.1-2.2,0.3l-0.8,0.5c-1.3,2-3.2,3.2-4.3,5.4c-0.5,1.2-0.9,2.5-1,3.7
	c-0.2,1.4,0.1,3.3,1.4,1.5s1.1-4.9,2.5-7C634,187.1,637.8,185.4,637.6,183.9z"/>
<path class="st3" d="M656.8,197.8c-1.3-0.3-2.2,5.1-3.2,6.4c-1.9,2.4-3.9,3.2-6.6,3.9l-0.5,0.2c-1.3,0-1.2,1,0,1.2
	c0.9-0.1,1.7-0.3,2.5-0.7c1.5-0.6,2.8-1.5,4-2.6C654.9,204.3,657.9,200.8,656.8,197.8z"/>
<path class="st0" d="M647.6,230.2c0,1.4-1.6,2.6-3.5,2.6l0,0c-2,0-3.5-1.2-3.5-2.6v-22.1c0-1.4,1.6-2.6,3.5-2.6l0,0
	c2,0,3.5,1.2,3.5,2.6V230.2z"/>
<path class="st5" d="M645.6,223.5c-0.1,1-1,1.8-2,1.8l0,0c-1,0.1-1.9-0.7-2-1.8v-15.1c0.1-1,1-1.8,2-1.8l0,0c1-0.1,1.9,0.7,2,1.8
	V223.5z"/>
<path class="st3" d="M643.5,214.9c-0.3-2.1,0.7-4,0.4-6c-0.3-0.1-0.6-0.2-0.9-0.3h-0.1c-1.3,1.3-0.2,4.4-0.3,6.1
	c0,0.9-1.1,5.4,0.5,5.4S643.6,215.7,643.5,214.9z"/>
<path class="st0" d="M643.3,167.5c-8.8,0-15.9-7.1-15.9-15.9s7.1-15.9,15.9-15.9s15.9,7.1,15.9,15.9
	C659.2,160.4,652.1,167.5,643.3,167.5z M643.3,140.8c-6,0-10.8,4.8-10.8,10.8c0,6,4.8,10.8,10.8,10.8c6,0,10.8-4.8,10.8-10.8
	c0,0,0,0,0,0C654.1,145.6,649.2,140.8,643.3,140.8z"/>
<g class="st1">
	<path class="st2" d="M643.5,165.8c-7.9,0-14.4-6.4-14.4-14.4s6.4-14.4,14.4-14.4c7.9,0,14.4,6.4,14.4,14.4c0,0,0,0,0,0
		C657.8,159.4,651.4,165.8,643.5,165.8z M643.5,138.8c-7,0-12.7,5.7-12.7,12.7c0,7,5.7,12.7,12.7,12.7c7,0,12.7-5.7,12.7-12.7v0
		C656.1,144.5,650.5,138.8,643.5,138.8C643.5,138.8,643.5,138.8,643.5,138.8L643.5,138.8z"/>
</g>
<path class="st3" d="M637.6,139.3c-0.7-0.2-1.5,0-2.2,0.3l-0.8,0.5c-1.3,2-3.2,3.2-4.3,5.4c-0.5,1.2-0.9,2.5-1,3.8
	c-0.2,1.4,0.1,3.3,1.4,1.5s1.1-5,2.5-7C634,142.6,637.8,140.8,637.6,139.3z"/>
<path class="st3" d="M656.8,153.3c-1.3-0.3-2.2,5.1-3.2,6.4c-1.9,2.4-3.9,3.2-6.6,3.9l-0.5,0.2c-1.3,0-1.2,1,0,1.2
	c0.9-0.1,1.7-0.3,2.5-0.7c1.5-0.6,2.8-1.5,4-2.6C654.9,159.8,657.9,156.2,656.8,153.3z"/>
<path class="st0" d="M647.6,185.6c0,1.4-1.6,2.6-3.5,2.6l0,0c-2,0-3.5-1.2-3.5-2.6v-22.1c0-1.4,1.6-2.6,3.5-2.6l0,0
	c2,0,3.5,1.2,3.5,2.6V185.6z"/>
<path class="st5" d="M645.6,179c-0.1,1-1,1.8-2,1.8l0,0c-1,0.1-1.9-0.7-2-1.8v-15.1c0.1-1,1-1.8,2-1.8l0,0c1-0.1,1.9,0.7,2,1.8V179z
	"/>
<path class="st3" d="M643.5,170.3c-0.3-2.1,0.7-4,0.4-6c-0.3-0.1-0.6-0.2-0.9-0.3h-0.1c-1.3,1.3-0.2,4.4-0.3,6.1
	c0,0.9-1.1,5.4,0.5,5.4S643.6,171.1,643.5,170.3z"/>
<path class="st0" d="M643.3,122.6c-8.8,0-15.9-7.1-15.9-15.9s7.1-15.9,15.9-15.9c8.8,0,15.9,7.1,15.9,15.9
	C659.2,115.4,652.1,122.5,643.3,122.6z M643.3,95.9c-6,0-10.8,4.8-10.8,10.8c0,6,4.8,10.8,10.8,10.8c6,0,10.8-4.8,10.8-10.8v0
	C654.1,100.7,649.2,95.9,643.3,95.9z"/>
<g class="st1">
	<path class="st2" d="M643.5,120.8c-7.9,0-14.4-6.4-14.4-14.4s6.4-14.4,14.4-14.4c7.9,0,14.4,6.4,14.4,14.4l0,0
		C657.8,114.4,651.4,120.8,643.5,120.8z M643.5,93.8c-7,0-12.7,5.7-12.7,12.7c0,7,5.7,12.7,12.7,12.7c7,0,12.7-5.7,12.7-12.7
		c0,0,0,0,0,0C656.1,99.5,650.5,93.8,643.5,93.8C643.5,93.8,643.5,93.8,643.5,93.8L643.5,93.8z"/>
</g>
<path class="st3" d="M637.6,94.3c-0.7-0.2-1.5,0-2.2,0.3l-0.8,0.5c-1.3,2-3.2,3.2-4.3,5.4c-0.5,1.2-0.9,2.5-1,3.8
	c-0.2,1.4,0.1,3.3,1.4,1.5s1.1-4.9,2.5-7C634,97.6,637.8,95.8,637.6,94.3z"/>
<path class="st3" d="M656.8,108.3c-1.3-0.3-2.2,5.2-3.2,6.4c-1.9,2.4-3.9,3.2-6.6,3.9l-0.5,0.2c-1.3,0-1.2,1,0,1.2
	c0.9-0.1,1.7-0.3,2.5-0.7c1.5-0.6,2.8-1.5,4-2.6C654.9,114.8,657.9,111.3,656.8,108.3z"/>
<path class="st0" d="M647.6,140.6c0,1.4-1.6,2.6-3.5,2.6l0,0c-2,0-3.5-1.2-3.5-2.6v-22c0-1.4,1.6-2.6,3.5-2.6l0,0
	c2,0,3.5,1.2,3.5,2.6V140.6z"/>
<path class="st5" d="M645.6,134c-0.1,1-1,1.8-2,1.8l0,0c-1,0.1-1.9-0.7-2-1.8v-15.1c0.1-1,1-1.8,2-1.8l0,0c1-0.1,1.9,0.7,2,1.8V134z
	"/>
<path class="st3" d="M643.5,125.3c-0.3-2.1,0.7-4,0.4-6c-0.3-0.1-0.6-0.2-0.9-0.3h-0.1c-1.3,1.3-0.2,4.4-0.3,6.1
	c0,0.9-1.1,5.4,0.5,5.4S643.6,126.2,643.5,125.3z"/>
<path class="st0" d="M643.3,77.8c-8.8,0-15.9-7.1-15.9-15.9S634.5,46,643.3,46s15.9,7.1,15.9,15.9C659.2,70.7,652.1,77.8,643.3,77.8
	z M643.3,51.1c-6,0-10.8,4.8-10.8,10.8c0,6,4.8,10.8,10.8,10.8c6,0,10.8-4.8,10.8-10.8c0,0,0,0,0,0C654.1,56,649.2,51.1,643.3,51.1z
	"/>
<g class="st1">
	<path class="st2" d="M643.5,76.1c-7.9,0-14.4-6.4-14.4-14.4s6.4-14.4,14.4-14.4c7.9,0,14.4,6.4,14.4,14.4c0,0,0,0,0,0
		C657.8,69.7,651.4,76.1,643.5,76.1z M643.5,49.1c-7,0-12.7,5.7-12.7,12.7c0,7,5.7,12.7,12.7,12.7c7,0,12.7-5.7,12.7-12.7
		c0,0,0,0,0,0C656.1,54.8,650.5,49.1,643.5,49.1C643.5,49.1,643.5,49.1,643.5,49.1L643.5,49.1z"/>
</g>
<path class="st3" d="M637.6,49.6c-0.7-0.2-1.5,0-2.2,0.3l-0.8,0.5c-1.3,2-3.2,3.2-4.3,5.4c-0.5,1.2-0.9,2.5-1,3.8
	c-0.2,1.4,0.1,3.3,1.4,1.5s1.1-5,2.5-7C634,52.9,637.8,51.1,637.6,49.6z"/>
<path class="st3" d="M656.8,63.6c-1.3-0.3-2.2,5.2-3.2,6.4c-1.9,2.4-3.9,3.2-6.6,3.9l-0.5,0.2c-1.3,0.1-1.2,1,0,1.2
	c0.9-0.1,1.7-0.3,2.5-0.7c1.5-0.6,2.8-1.5,4-2.6C654.9,70.1,657.9,66.5,656.8,63.6z"/>
<path class="st0" d="M647.6,95.9c0,1.4-1.6,2.6-3.5,2.6l0,0c-2,0-3.5-1.2-3.5-2.6v-22c0-1.4,1.6-2.6,3.5-2.6l0,0
	c2,0,3.5,1.2,3.5,2.6V95.9z"/>
<path class="st5" d="M645.6,89.3c-0.1,1-1,1.8-2,1.8l0,0c-1,0.1-1.9-0.7-2-1.8V74.2c0.1-1,1-1.8,2-1.8l0,0c1-0.1,1.9,0.7,2,1.8V89.3
	z"/>
<path class="st3" d="M643.5,80.6c-0.3-2.1,0.7-4,0.4-6c-0.3-0.1-0.6-0.2-0.9-0.3h-0.1c-1.3,1.3-0.2,4.4-0.3,6.1
	c0,0.9-1.1,5.3,0.5,5.3S643.6,81.5,643.5,80.6z"/>
<path class="st0" d="M643.3,35.4c-8.8,0-15.9-7.1-15.9-15.9s7.1-15.9,15.9-15.9s15.9,7.1,15.9,15.9
	C659.2,28.3,652.1,35.4,643.3,35.4z M643.3,8.7c-6,0-10.8,4.8-10.8,10.8c0,6,4.8,10.8,10.8,10.8c6,0,10.8-4.8,10.8-10.8c0,0,0,0,0,0
	C654.1,13.6,649.2,8.7,643.3,8.7z"/>
<g class="st1">
	<path class="st2" d="M643.5,33.7c-7.9,0-14.4-6.4-14.4-14.4S635.5,5,643.5,5c7.9,0,14.4,6.4,14.4,14.4c0,0,0,0,0,0
		C657.8,27.3,651.4,33.7,643.5,33.7z M643.5,6.7c-7,0-12.7,5.7-12.7,12.7c0,7,5.7,12.7,12.7,12.7c7,0,12.7-5.7,12.7-12.7
		c0,0,0,0,0,0C656.1,12.4,650.5,6.7,643.5,6.7C643.5,6.7,643.5,6.7,643.5,6.7L643.5,6.7z"/>
</g>
<path class="st3" d="M637.6,7.2c-0.7-0.2-1.5-0.1-2.2,0.3L634.5,8c-1.3,2-3.2,3.2-4.3,5.4c-0.5,1.2-0.9,2.5-1,3.8
	c-0.2,1.4,0.1,3.3,1.4,1.5s1.1-4.9,2.5-7C634,10.5,637.8,8.7,637.6,7.2z"/>
<path class="st3" d="M656.8,21.2c-1.3-0.3-2.2,5.1-3.2,6.4c-1.9,2.4-3.9,3.2-6.6,3.9l-0.5,0.2c-1.3,0-1.2,1,0,1.2
	c0.9-0.1,1.7-0.3,2.5-0.7c1.5-0.6,2.8-1.5,4-2.6C654.9,27.7,657.9,24.1,656.8,21.2z"/>
<path class="st0" d="M647.6,53.5c0,1.4-1.6,2.6-3.5,2.6l0,0c-2,0-3.5-1.2-3.5-2.6V31.5c0-1.4,1.6-2.6,3.5-2.6l0,0
	c2,0,3.5,1.2,3.5,2.6V53.5z"/>
<path class="st5" d="M645.6,46.9c-0.1,1-1,1.8-2,1.8l0,0c-1,0.1-1.9-0.7-2-1.8V31.8c0.1-1,1-1.8,2-1.8l0,0c1-0.1,1.9,0.7,2,1.8V46.9
	z"/>
<path class="st3" d="M643.5,38.2c-0.3-2.1,0.7-4,0.4-6c-0.3-0.1-0.5-0.2-0.8-0.2h-0.1c-1.3,1.3-0.2,4.4-0.3,6.1
	c0,0.9-1.1,5.3,0.5,5.3S643.6,39,643.5,38.2z"/>
<path class="st0" d="M125.8,297.3c-9.9,0-17.9-8-17.9-17.8s8-17.9,17.8-17.9c9.9,0,17.9,8,17.9,17.8c0,0,0,0,0,0
	C143.7,289.3,135.7,297.3,125.8,297.3z M125.8,267.3c-6.7,0-12.1,5.5-12.1,12.2c0,6.7,5.5,12.1,12.2,12.1c6.7,0,12.1-5.4,12.1-12.1
	C138,272.8,132.6,267.4,125.8,267.3C125.9,267.4,125.9,267.4,125.8,267.3L125.8,267.3z"/>
<g class="st1">
	<path class="st2" d="M126,295.4c-8.9,0-16.1-7.2-16.1-16.1c0-8.9,7.2-16.1,16.1-16.1s16.1,7.2,16.1,16.1
		C142.1,288.2,134.9,295.4,126,295.4z M126,265.1c-7.9,0-14.2,6.4-14.2,14.2c0,7.9,6.4,14.2,14.2,14.2s14.2-6.4,14.2-14.2
		c0,0,0,0,0,0C140.2,271.4,133.8,265.1,126,265.1z"/>
</g>
<path class="st3" d="M119.4,265.7c-0.8-0.2-1.7-0.1-2.4,0.3l-1,0.6c-1.4,2.2-3.6,3.6-4.8,6.1c-0.6,1.3-1,2.7-1.2,4.2
	c-0.2,1.6,0.1,3.7,1.6,1.7s1.3-5.6,2.8-7.8C115.4,269.3,119.7,267.4,119.4,265.7z"/>
<path class="st3" d="M141,281.3c-1.4-0.3-2.5,5.8-3.6,7.2c-2.1,2.7-4.4,3.6-7.4,4.4l-0.6,0.2c-1.5,0-1.3,1.1,0,1.3
	c1-0.1,1.9-0.4,2.8-0.8c1.7-0.7,3.2-1.7,4.5-3C138.9,288.6,142.3,284.6,141,281.3z"/>
<rect x="122.3" y="296.5" class="st0" width="7.1" height="13.9"/>
<polygon class="st4" points="123.3,298.3 123.4,309.9 126.3,310.4 125.8,299.9 "/>
<path class="st0" d="M124.8,255.2c-8.8,0-15.9-7.1-15.9-15.9c0-8.8,7.1-15.9,15.9-15.9s15.9,7.1,15.9,15.9l0,0
	C140.7,248.1,133.6,255.2,124.8,255.2z M124.8,228.5c-6,0-10.8,4.8-10.8,10.8c0,6,4.8,10.8,10.8,10.8c6,0,10.8-4.8,10.8-10.8l0,0
	C135.6,233.4,130.8,228.6,124.8,228.5L124.8,228.5z"/>
<g class="st1">
	<path class="st2" d="M125,253.5c-7.9,0-14.4-6.4-14.4-14.4c0-7.9,6.4-14.4,14.4-14.4c7.9,0,14.4,6.4,14.4,14.4c0,0,0,0,0,0
		C139.4,247.1,132.9,253.5,125,253.5z M125,226.5c-7,0-12.7,5.7-12.7,12.7s5.7,12.7,12.7,12.7s12.7-5.7,12.7-12.7l0,0
		C137.7,232.2,132,226.5,125,226.5C125,226.5,125,226.5,125,226.5L125,226.5z"/>
</g>
<path class="st3" d="M119.1,227c-0.7-0.2-1.5-0.1-2.2,0.3l-0.8,0.5c-1.3,1.9-3.2,3.2-4.3,5.4c-0.5,1.2-0.9,2.5-1,3.8
	c-0.2,1.4,0.1,3.3,1.4,1.5s1.1-4.9,2.5-7C115.5,230.3,119.3,228.5,119.1,227z"/>
<path class="st3" d="M138.3,241c-1.3-0.3-2.2,5.1-3.2,6.4c-1.9,2.4-3.9,3.2-6.6,3.9l-0.5,0.2c-1.3,0.1-1.2,1,0,1.2
	c0.9-0.1,1.7-0.3,2.5-0.7c1.5-0.6,2.8-1.5,4-2.6C136.4,247.5,139.4,243.9,138.3,241z"/>
<path class="st0" d="M129.3,269.9c0,1.4-1.6,2.6-3.5,2.6l0,0c-2,0-3.5-1.2-3.5-2.6v-22.1c0-1.4,1.6-2.6,3.5-2.6l0,0
	c2,0,3.5,1.2,3.5,2.6V269.9z"/>
<path class="st5" d="M127.3,263.3c-0.1,1-1,1.8-2,1.8l0,0c-1,0.1-1.9-0.7-2-1.8v-15.1c0.1-1,1-1.8,2-1.8l0,0c1-0.1,1.9,0.7,2,1.8
	V263.3z"/>
<path class="st3" d="M125.2,254.6c-0.3-2.1,0.7-4,0.4-6c-0.3-0.1-0.6-0.2-0.9-0.3h-0.1c-1.3,1.3-0.2,4.4-0.3,6.1
	c0,0.9-1.1,5.4,0.5,5.3S125.3,255.4,125.2,254.6z"/>
<path class="st0" d="M125,212.1c-8.8,0-15.9-7.1-15.9-15.9c0-8.8,7.1-15.9,15.9-15.9s15.9,7.1,15.9,15.9c0,0,0,0,0,0
	C140.9,204.9,133.8,212.1,125,212.1z M125,185.4c-6,0-10.8,4.8-10.8,10.8c0,6,4.8,10.8,10.8,10.8c6,0,10.8-4.8,10.8-10.8
	c0,0,0,0,0,0C135.8,190.2,131,185.4,125,185.4z"/>
<g class="st1">
	<path class="st2" d="M125.1,210.4c-7.9,0-14.4-6.4-14.4-14.4c0-7.9,6.4-14.4,14.4-14.4s14.4,6.4,14.4,14.4l0,0
		C139.5,203.9,133.1,210.4,125.1,210.4z M125.1,183.4c-7,0-12.7,5.7-12.7,12.7c0,7,5.7,12.7,12.7,12.7c7,0,12.7-5.7,12.7-12.7
		c0,0,0,0,0,0C137.8,189,132.1,183.3,125.1,183.4L125.1,183.4z"/>
</g>
<path class="st3" d="M119.2,183.9c-0.7-0.2-1.5-0.1-2.2,0.3l-0.8,0.5c-1.3,2-3.2,3.2-4.3,5.4c-0.5,1.2-0.9,2.5-1,3.7
	c-0.2,1.4,0.1,3.3,1.4,1.5s1.1-4.9,2.5-7C115.7,187.1,119.5,185.4,119.2,183.9z"/>
<path class="st3" d="M138.4,197.8c-1.3-0.3-2.2,5.1-3.2,6.4c-1.9,2.4-3.9,3.2-6.6,3.9l-0.5,0.2c-1.3,0-1.2,1,0,1.2
	c0.9-0.1,1.7-0.3,2.5-0.7c1.5-0.6,2.8-1.5,4-2.6C136.6,204.3,139.6,200.8,138.4,197.8z"/>
<path class="st0" d="M129.3,230.2c0,1.4-1.6,2.6-3.5,2.6l0,0c-2,0-3.5-1.2-3.5-2.6v-22.1c0-1.4,1.6-2.6,3.5-2.6l0,0
	c2,0,3.5,1.2,3.5,2.6V230.2z"/>
<path class="st5" d="M127.3,223.5c-0.1,1-1,1.8-2,1.8l0,0c-1,0.1-1.9-0.7-2-1.8v-15.1c0.1-1,1-1.8,2-1.8l0,0c1-0.1,1.9,0.7,2,1.8
	V223.5z"/>
<path class="st3" d="M125.2,214.9c-0.3-2.1,0.7-4,0.4-6c-0.3-0.1-0.6-0.2-0.9-0.3h-0.1c-1.3,1.3-0.2,4.4-0.3,6.1
	c-0.1,0.9-1.1,5.4,0.5,5.4S125.3,215.7,125.2,214.9z"/>
<path class="st0" d="M125,167.5c-8.8,0-15.9-7.1-15.9-15.9c0-8.8,7.1-15.9,15.9-15.9c8.8,0,15.9,7.1,15.9,15.9c0,0,0,0,0,0
	C140.9,160.4,133.8,167.5,125,167.5z M125,140.8c-6,0-10.8,4.8-10.8,10.8s4.8,10.8,10.8,10.8s10.8-4.8,10.8-10.8
	C135.8,145.6,131,140.8,125,140.8z"/>
<g class="st1">
	<path class="st2" d="M125.1,165.8c-7.9,0-14.4-6.4-14.4-14.4c0-7.9,6.4-14.4,14.4-14.4s14.4,6.4,14.4,14.4l0,0
		C139.5,159.4,133.1,165.8,125.1,165.8z M125.1,138.8c-7,0-12.7,5.7-12.7,12.7c0,7,5.7,12.7,12.7,12.7c7,0,12.7-5.7,12.7-12.7
		C137.8,144.5,132.1,138.8,125.1,138.8C125.1,138.8,125.1,138.8,125.1,138.8L125.1,138.8z"/>
</g>
<path class="st3" d="M119.2,139.3c-0.7-0.2-1.5,0-2.2,0.3l-0.8,0.5c-1.3,2-3.2,3.2-4.3,5.4c-0.5,1.2-0.9,2.5-1,3.8
	c-0.2,1.4,0.1,3.3,1.4,1.5s1.1-5,2.5-7C115.7,142.6,119.5,140.8,119.2,139.3z"/>
<path class="st3" d="M138.4,153.3c-1.3-0.3-2.2,5.1-3.2,6.4c-1.9,2.4-3.9,3.2-6.6,3.9l-0.5,0.2c-1.3,0-1.2,1,0,1.2
	c0.9-0.1,1.7-0.3,2.5-0.7c1.5-0.6,2.8-1.5,4-2.6C136.6,159.8,139.6,156.2,138.4,153.3z"/>
<path class="st0" d="M129.3,185.6c0,1.4-1.6,2.6-3.5,2.6l0,0c-2,0-3.5-1.2-3.5-2.6v-22.1c0-1.4,1.6-2.6,3.5-2.6l0,0
	c2,0,3.5,1.2,3.5,2.6V185.6z"/>
<path class="st5" d="M127.3,179c-0.1,1-1,1.8-2,1.8l0,0c-1,0.1-1.9-0.7-2-1.8v-15.1c0.1-1,1-1.8,2-1.8l0,0c1-0.1,1.9,0.7,2,1.8V179z
	"/>
<path class="st3" d="M125.2,170.3c-0.3-2.1,0.7-4,0.4-6c-0.3-0.1-0.6-0.2-0.9-0.3h-0.1c-1.3,1.3-0.2,4.4-0.3,6.1
	c-0.1,0.9-1.1,5.4,0.5,5.4S125.3,171.1,125.2,170.3z"/>
<path class="st0" d="M125,122.6c-8.8,0-15.9-7.1-15.9-15.9c0-8.8,7.1-15.9,15.9-15.9c8.8,0,15.9,7.1,15.9,15.9l0,0
	C140.9,115.4,133.8,122.5,125,122.6z M125,95.9c-6,0-10.8,4.8-10.8,10.8s4.8,10.8,10.8,10.8s10.8-4.8,10.8-10.8
	C135.8,100.7,131,95.9,125,95.9z"/>
<g class="st1">
	<path class="st2" d="M125.1,120.8c-7.9,0-14.4-6.4-14.4-14.4s6.4-14.4,14.4-14.4s14.4,6.4,14.4,14.4
		C139.5,114.4,133.1,120.8,125.1,120.8z M125.1,93.8c-7,0-12.7,5.7-12.7,12.7c0,7,5.7,12.7,12.7,12.7c7,0,12.7-5.7,12.7-12.7
		C137.8,99.5,132.1,93.8,125.1,93.8C125.1,93.8,125.1,93.8,125.1,93.8L125.1,93.8z"/>
</g>
<path class="st3" d="M119.2,94.3c-0.7-0.2-1.5,0-2.2,0.3l-0.8,0.5c-1.3,2-3.2,3.2-4.3,5.4c-0.5,1.2-0.9,2.5-1,3.8
	c-0.2,1.4,0.1,3.3,1.4,1.5s1.1-4.9,2.5-7C115.7,97.6,119.5,95.8,119.2,94.3z"/>
<path class="st3" d="M138.4,108.3c-1.3-0.3-2.2,5.2-3.2,6.4c-1.9,2.4-3.9,3.2-6.6,3.9l-0.5,0.2c-1.3,0-1.2,1,0,1.2
	c0.9-0.1,1.7-0.3,2.5-0.7c1.5-0.6,2.8-1.5,4-2.6C136.6,114.8,139.6,111.3,138.4,108.3z"/>
<path class="st0" d="M129.3,140.6c0,1.4-1.6,2.6-3.5,2.6l0,0c-2,0-3.5-1.2-3.5-2.6v-22c0-1.4,1.6-2.6,3.5-2.6l0,0
	c2,0,3.5,1.2,3.5,2.6V140.6z"/>
<path class="st5" d="M127.3,134c-0.1,1-1,1.8-2,1.8l0,0c-1,0.1-1.9-0.7-2-1.8v-15.1c0.1-1,1-1.8,2-1.8l0,0c1-0.1,1.9,0.7,2,1.8V134z
	"/>
<path class="st3" d="M125.2,125.3c-0.3-2.1,0.7-4,0.4-6c-0.3-0.1-0.6-0.2-0.9-0.3h-0.1c-1.3,1.3-0.2,4.4-0.3,6.1
	c-0.1,0.9-1.1,5.4,0.5,5.4S125.3,126.2,125.2,125.3z"/>
<path class="st0" d="M125,77.8c-8.8,0-15.9-7.1-15.9-15.9c0-8.8,7.1-15.9,15.9-15.9c8.8,0,15.9,7.1,15.9,15.9v0
	C140.9,70.7,133.8,77.8,125,77.8z M125,51.1c-6,0-10.8,4.8-10.8,10.8S119,72.7,125,72.7s10.8-4.8,10.8-10.8
	C135.8,56,131,51.1,125,51.1z"/>
<g class="st1">
	<path class="st2" d="M125.1,76.1c-7.9,0-14.4-6.4-14.4-14.4s6.4-14.4,14.4-14.4c7.9,0,14.4,6.4,14.4,14.4
		C139.5,69.7,133.1,76.1,125.1,76.1z M125.1,49.1c-7,0-12.7,5.7-12.7,12.7s5.7,12.7,12.7,12.7c7,0,12.7-5.7,12.7-12.7c0,0,0,0,0,0
		C137.8,54.8,132.1,49.1,125.1,49.1L125.1,49.1z"/>
</g>
<path class="st3" d="M119.2,49.6c-0.7-0.2-1.5,0-2.2,0.3l-0.8,0.5c-1.3,2-3.2,3.2-4.3,5.4c-0.5,1.2-0.9,2.5-1,3.8
	c-0.2,1.4,0.1,3.3,1.4,1.5s1.1-5,2.5-7C115.7,52.9,119.5,51.1,119.2,49.6z"/>
<path class="st3" d="M138.4,63.6c-1.3-0.3-2.2,5.2-3.2,6.4c-1.9,2.4-3.9,3.2-6.6,3.9l-0.5,0.2c-1.3,0.1-1.2,1,0,1.2
	c0.9-0.1,1.7-0.3,2.5-0.7c1.5-0.6,2.8-1.5,4-2.6C136.6,70.1,139.6,66.5,138.4,63.6z"/>
<path class="st0" d="M129.3,95.9c0,1.4-1.6,2.6-3.5,2.6l0,0c-2,0-3.5-1.2-3.5-2.6v-22c0-1.4,1.6-2.6,3.5-2.6l0,0
	c2,0,3.5,1.2,3.5,2.6V95.9z"/>
<path class="st5" d="M127.3,89.3c-0.1,1-1,1.8-2,1.8l0,0c-1,0.1-1.9-0.7-2-1.8V74.2c0.1-1,1-1.8,2-1.8l0,0c1-0.1,1.9,0.7,2,1.8V89.3
	z"/>
<path class="st3" d="M125.2,80.6c-0.3-2.1,0.7-4,0.4-6c-0.3-0.1-0.6-0.2-0.9-0.3h-0.1c-1.3,1.3-0.2,4.4-0.3,6.1
	c-0.1,0.9-1.1,5.3,0.5,5.3S125.3,81.5,125.2,80.6z"/>
<path class="st0" d="M125,35.4c-8.8,0-15.9-7.1-15.9-15.9c0-8.8,7.1-15.9,15.9-15.9c8.8,0,15.9,7.1,15.9,15.9c0,0,0,0,0,0
	C140.9,28.3,133.8,35.4,125,35.4z M125,8.7c-6,0-10.8,4.8-10.8,10.8S119,30.3,125,30.3s10.8-4.8,10.8-10.8
	C135.8,13.6,131,8.7,125,8.7z"/>
<g class="st1">
	<path class="st2" d="M125.1,33.7c-7.9,0-14.4-6.4-14.4-14.4S117.2,5,125.1,5c7.9,0,14.4,6.4,14.4,14.4
		C139.5,27.3,133.1,33.7,125.1,33.7z M125.1,6.7c-7,0-12.7,5.7-12.7,12.7s5.7,12.7,12.7,12.7s12.7-5.7,12.7-12.7c0,0,0,0,0,0
		C137.8,12.4,132.1,6.7,125.1,6.7L125.1,6.7z"/>
</g>
<path class="st3" d="M119.2,7.2c-0.7-0.2-1.5-0.1-2.2,0.3L116.2,8c-1.3,2-3.2,3.2-4.3,5.4c-0.5,1.2-0.9,2.5-1,3.8
	c-0.2,1.4,0.1,3.3,1.4,1.5s1.1-4.9,2.5-7C115.7,10.5,119.5,8.7,119.2,7.2z"/>
<path class="st3" d="M138.4,21.2c-1.3-0.3-2.2,5.1-3.2,6.4c-1.9,2.4-3.9,3.2-6.6,3.9l-0.5,0.2c-1.3,0-1.2,1,0,1.2
	c0.9-0.1,1.7-0.3,2.5-0.7c1.5-0.6,2.8-1.5,4-2.6C136.6,27.7,139.6,24.1,138.4,21.2z"/>
<path class="st0" d="M129.3,53.5c0,1.4-1.6,2.6-3.5,2.6l0,0c-2,0-3.5-1.2-3.5-2.6V31.5c0-1.4,1.6-2.6,3.5-2.6l0,0
	c2,0,3.5,1.2,3.5,2.6V53.5z"/>
<path class="st5" d="M127.3,46.9c-0.1,1-1,1.8-2,1.8l0,0c-1,0.1-1.9-0.7-2-1.8V31.8c0.1-1,1-1.8,2-1.8l0,0c1-0.1,1.9,0.7,2,1.8V46.9
	z"/>
<path class="st3" d="M125.2,38.2c-0.3-2.1,0.7-4,0.4-6c-0.3-0.1-0.6-0.2-0.9-0.3h-0.1c-1.3,1.3-0.2,4.4-0.3,6.1
	c-0.1,0.9-1.1,5.3,0.5,5.3S125.3,39,125.2,38.2z"/>
<path class="st6" d="M229.1,280.7h311.8c125.8,0,227.8,102,227.8,227.8l0,0c0,125.8-102,227.8-227.8,227.8H229.1
	c-125.8,0-227.8-102-227.8-227.8l0,0C1.3,382.7,103.3,280.7,229.1,280.7z"/>
<linearGradient id="SVGID_1_" gradientUnits="userSpaceOnUse" x1="385" y1="-14.35" x2="385" y2="490.17" gradientTransform="matrix(1 0 0 -1 0 742)">
	<stop  offset="0" style="stop-color:#B11107"/>
	<stop  offset="0.26" style="stop-color:#C21608"/>
	<stop  offset="0.72" style="stop-color:#DA1E0A"/>
	<stop  offset="1" style="stop-color:#E3210B"/>
</linearGradient>
<path class="st7" d="M229.1,283.1h311.8c124.5,0,225.4,100.9,225.4,225.4v0c0,124.5-100.9,225.4-225.4,225.4H229.1
	C104.6,734,3.7,633.1,3.7,508.6v0C3.7,384.1,104.6,283.1,229.1,283.1z"/>
<path class="st6" d="M229.1,307.1h311.8c111.3,0,201.4,90.2,201.4,201.4l0,0c0,111.3-90.2,201.4-201.4,201.4H229.1
	c-111.3,0-201.4-90.2-201.4-201.4l0,0C27.7,397.3,117.9,307.1,229.1,307.1z"/>
<path class="st8" d="M229.1,309.5h311.8c109.9,0,199,89.1,199,199v0c0,109.9-89.1,199-199,199H229.1c-109.9,0-199-89.1-199-199v0
	C30.1,398.6,119.2,309.5,229.1,309.5z"/>
<path class="st9" d="M229.1,316.3h311.8c106,0,191.9,85.9,191.9,191.9v0c0,106-85.9,191.9-191.9,191.9H229.1
	c-106,0-191.9-85.9-191.9-191.9v0C37.3,402.2,123.2,316.3,229.1,316.3z"/>
<g>
	<defs>
		<path id="SVGID_2_" d="M229.1,316.3h311.8c106,0,191.9,85.9,191.9,191.9v0c0,106-85.9,191.9-191.9,191.9H229.1
			c-106,0-191.9-85.9-191.9-191.9v0C37.3,402.2,123.2,316.3,229.1,316.3z"/>
	</defs>
	<clipPath id="SVGID_3_">
		<use xlink:href="#SVGID_2_"  style="overflow:visible;"/>
	</clipPath>
	<g class="st10">
		<g>
			<defs>
				<rect id="SVGID_4_" x="-80.1" y="307.6" width="1190.2" height="396.7"/>
			</defs>
			<clipPath id="SVGID_5_">
				<use xlink:href="#SVGID_4_"  style="overflow:visible;"/>
			</clipPath>
			<g class="st11">
				<rect x="-137.1" y="250" class="st12" width="1266" height="416.9"/>
				<path class="st13" d="M598.5,608c14,2.4,28,5.6,41.7,9c12.1,3,23.3,6.8,35,10.6c12.5,4.1,28.1,3.4,41.2,3.4
					c13.5,0,27.5,0.9,40.8-0.8c12.2-1.6,24.3-4.1,36.5-5.9c36.8-5.5,71.4-13,108.9-12.1s74.4,9.5,111.9,7.6
					c24.3-1.2,48.1-51.5,71.9-49l-7.1,146.5H461.7V608.5c0-1,42.5-4.8,45.4-5c18.7-0.9,37.4,0.1,56.1,0.8
					C575,604.7,586.8,605.9,598.5,608z"/>
				<path class="st14" d="M493.5,576.5c-0.6,1.7-0.3,3.5-0.4,5.3c0,0.4,0,1.6-0.6,1.4c-0.8-0.3-0.4-7.1-2.2-5.8
					c-0.6,0.4-0.2,2.4-0.1,2.9c0.3,2,0.8,4.1,1.5,6l0.2,0.6c0.1,0.3,0.2,0.5,0.4,0.8c0.3,0.9,0.3,1.9,0,2.8c-0.2,0.7-0.4,1.3-0.6,2
					c-0.4,0.9-0.8,1.7-1.3,2.5c-0.6,1-1.2,2-1.9,3c-0.2,0.3-1.7,2.1-1.7,0.8c0-0.7,0.1-1.3,0.3-2c0.4-1.4,0.8-2.8,1.4-4.1
					c0.3-0.7,2.4-6.1,0.7-6.2s-3,7.9-3.4,9.3c-0.5,1.9-0.9,3.7-1.1,5.7c-0.3,1.3-0.7,3.7-1.7,4.6c-0.4,0.4-1.1,0.3-1.4-0.1
					c-0.1-0.1-0.1-0.1-0.1-0.2c-0.1-0.7-0.1-1.5,0-2.3c0-0.9,0.1-1.9,0.2-2.8c0.2-1.9,0.5-3.8,0.9-5.7c0.5-1.9,1.1-3.7,1.8-5.5
					c0.4-1.1,0.8-2.3,1.2-3.4c0.6-1.9,0.5-3.6,0-3.8s-1.2,1.3-1.8,3.1c-0.4,1.1-0.8,2.2-1.1,3.3c-0.5,1.4-1,2.7-1.4,4.2
					c-0.2,0.7-0.4,1.5-0.6,2.3s-0.6,2.7-1,0.9c-0.7-2.7-0.9-5.4-0.6-8.2c0.4-2.4,1-4.7,1.8-7c0.6-1.8,1.1-3.7,1.6-5.5
					c0.6-3.1,0-5.7-0.5-5.7c-1.3,0.1-0.9,3.3-1,4.1c-0.1,1.2-0.5,4.4-1.7,1.8c-0.5-1.1-0.3-7.1-1.9-7c-0.5,0-0.8,2.9-0.2,6.3
					s1.2,7.5,0.7,9.3c-0.3,1.1-0.5,2.2-0.7,3.4c-0.5,3.8,0.4,6.8,1.2,9.8c0.8,2.4,1.2,4.8,1.3,7.3c0,1.6-0.8,0.4-1.1-0.4
					c-1-2.5-1.7-5.1-1.9-7.8c0-0.5,0.1-2.8-0.9-2.5c-0.8,0.2-0.8,2.6-0.8,3.2c0,2.2,0.5,4.4,1.4,6.5c0.5,1.2,1,2.5,1.3,3.8
					c0.5,2,0.4,5-2.5,4.8c-2.5-0.2-1.5-3.9-1.2-5.5c0.1-0.9,0.3-1.8,0.4-2.7c0.1-1.5-0.5-2.7-0.9-2.6s-0.6,1.3-0.8,2.6
					c-0.1,0.7-0.2,1.4-0.3,2.1c-0.1,0.5-0.4,2-0.9,0.9c-0.2-0.6-0.3-1.1-0.2-1.7c0-1.1,0.1-2.1,0.2-3.2c0.3-2.8,1.4-5.5,2.2-8.2
					c0.8-2.8,1.4-5.7,1.9-8.6c0.6-3.4,0.6-6.3,0.1-6.4s-1.3,2.5-1.9,5.8s-1.4,3.1-1.1-0.4c0.2-2.5,0.6-5,0.9-7.6c0.3-2,0.6-4,0.8-6
					c0.4-3.3-0.1-6-0.6-6s-1,2.6-1.3,5.9c-0.2,2-0.5,3.9-0.7,5.8c-0.7,4.2-1.1,8.5-1.1,12.7c0.1,3.5,0.3,7.6-0.3,9.1s-1.8,0-1.9-3.5
					c-0.3-5.6,0.6-11.7,1.4-17.7c0.3-2.3,0.4-4.9,1-7.2c0.2-0.7,0.2-1.5,0.3-2.2c0.2-1.1,0.4-2.2,0.5-3.3c0.1-0.6,0.3-1.9-0.3-2.3
					c-1.1-0.7-2.1,3.8-2.2,4.5c-0.3,3.4-0.6,6.7-1.1,10c-0.2,1.2-0.4,2.7-1.4,1.2c-0.5-0.8-0.8-1.6-1.1-2.4
					c-0.5-1.5-0.9-3.1-1.2-4.7c-0.3-1.7-0.8-3.3-1.5-4.9c-0.3-0.6-1.5-2.6-1.7-0.8c-0.1,1.4,0.7,3.1,1,4.4c0.6,2.8,1.3,5.5,2.2,8.2
					c1.2,3.2,2.4,8.3,2.2,11.8c-0.2,2.6-0.1,5.3,0.2,7.9c0.4,3.2,1.3,6.3,2.6,9.2c0.4,0.9,0.7,1.7,1,2.5c0.5,1.4,0.3,2.7-0.1,2.6
					s-2.1-2.4-3.6-5.2c-1-1.6-1.8-3.3-2.4-5.1c-0.5-1.9-0.7-3.8-0.6-5.8c0-2.4,0-4.8-0.2-7.2c-0.2-2.9,0.1-5.8-0.2-8.8
					c-0.2-1.8-0.5-3.6-0.9-5.3c-0.1-0.4-0.2-3.4-0.7-3.5c-0.9-0.2-0.9,1.8-0.8,2.3c0.3,1.4,0.6,2.8,0.8,4.2s-0.6,0.9-1.1,0
					c-1.1-2.5-1.5-5.5-3.2-7.8c-1.3-1.7-2.3-0.5-1.5,1.2c1.5,3.4,3.5,6.2,4.5,10c1.3,4.8,1.4,9.9,1.4,14.9c0,0.6,0,1.2-0.1,1.8
					c-0.1,1.7,0.1,3.3,0.6,4.9c0.4,0.9,0.8,1.9,1.4,2.7c0.5,0.9,0.1,1.4-0.8,0.8c-0.6-0.3-1.1-0.7-1.6-1.2c-1.2-1.3-2.1-2.8-2.6-4.5
					c-0.8-2.5-1-5.2-0.5-7.8c0.3-1.7,1.4-4.4,0.6-6.1c-0.5-1-1.2,1.5-1.3,1.8c-0.4,1.3-0.4,3-1,4.2c-0.5,1-1.3,1.4-1.5,0
					c-0.2-1.9-0.3-3.7-0.2-5.6c-0.1-1.5-0.3-3-0.4-4.4c-0.2-2.1-0.5-4.1-0.7-6.2c-0.1-0.7-0.5-2.6-1.3-2.9c-1.9-0.6,0.3,7.8,0.3,8.5
					s-0.4,1-0.9,0.5s-1.3-4.1-2.3-3.8c-0.5,0.2-0.2,1.5-0.1,1.9c0.3,1.3,0.8,2.6,1.4,3.9c0.8,1.9,1.4,3.8,1.8,5.8
					c0.3,2,0.8,3.9,1.5,5.8c1.7,3.9,3.7,8.2,6,10.5c1,0.9,2.2,1.7,3.5,2.2c1.1,0.6,2.1,1.4,2.9,2.3c0.8,0.9,1.6,1.8,2.5,2.6
					c1.1,0.7,2.3,1.2,3.5,1.5c2.3,0.6,4.8,0.2,6.8-1.1c1.1-0.8,2-1.7,2.7-2.8c2-2.6,4.4-4.8,7.1-6.7c1.3-0.8,3.3-1.7,4.2-2.9
					s-0.2-1.2-1.2-0.8c-1.2,0.4-2,1.5-3.3,1.8c-0.9,0.2-1.2-0.1-0.6-0.9s1.5-1.7,2.1-2.6c1.1-1.4,2.1-3,2.8-4.7
					c1.1-2.9,1.8-5.9,1.9-9c0.1-1.6,0.1-3.2,0.2-4.7c0-0.9,0.4-2.3,0.3-3.5c0-0.4-0.1-0.8-0.2-1.1
					C494.5,574.7,493.9,575.3,493.5,576.5z"/>
				<path class="st14" d="M141.4,596.6c-1.1,1.2-1.9,2.6-2.3,4.2c-0.1,1.4,1,2.5,0.5,3.9c-1.4,3.4-3.3,6.5-5.6,9.3
					c-0.3,0.4-0.6,0.8-0.9,1.2c-0.1-1.4,0.7-2.7,1.3-3.9c1.9-3.9,1.9-8.3,1.5-12.5c-0.4-3.8-2.8-8-2-11.8c0.4-1.7,1.5-3,1.9-4.7
					c0.4-1.9,1.1-3.8,2-5.5c0.7-1.2,2.1-2.2,2.5-3.3c-0.4,1-3.2,1.6-4.1,2.3c-1.3,1.2-2.4,2.6-3.2,4.2c-1.4,2.5-1.2,4.9-1.1,7.8
					c0.1,2.6,0.7,4.8,0.8,7.3c0.2,5.8-1.1,11.8-1.5,17.6c-0.3-1.9-0.5-4-0.7-6c-0.3-1.8-0.8-3.6-1.5-5.3c-0.4-1.1-0.7-2.1-1-3.2
					c-0.4-1.8-0.5-3.6-0.3-5.5c0.3-3.8,1.3-7.4,0.7-11.3s-2.5-8.3-2-12.3c0.4-4.1,1.7-8,3.7-11.6c-3,2.8-5.2,6.3-6.5,10.2
					c-1.9,5.5,1,11.6,0.7,17.2c-0.2,3.5-0.8,6.1-1.2,9.6c-0.4,4.9,2.1,9.1,3.2,13.5c0.3,1.3,0.5,2.6,0.6,3.9
					c0.2,1.1,0.2,2.3,0.1,3.4c-0.1-1.3-0.4-2.7-0.6-4.2c-0.3-1.3-0.7-2.5-1.2-3.7c-0.5-1.2-1.1-2.3-1.6-3.4c-1.2-2.4-3.3-5-4.1-7.5
					c-1.3-3.8,0.4-8.3-1.1-12c-2.1-5-3.6-10.2-6.5-14.7c0.5,2.9,1.2,5.8,2.1,8.6c0.8,1.9,1.4,3.8,1.8,5.8c0.2,2.2,0.2,4.4-0.1,6.6
					c-0.3,2.8-0.3,5.6,0.3,8.3c0.5,2,1.3,3.8,2.3,5.6c0.5,0.9,1,1.8,1.6,2.7c1.3,2,2.3,4.2,3,6.5c0.3,1.1,0.5,2.2,0.7,3.3
					c0.1,1-0.4,2.9-0.1,3.7c-1.1-3-1-5.5-3-8.3c-1.3-1.8-3.1-3.2-4.5-5c-2.3-3-2.5-7.1-3.1-10.7c-0.8-4.2-1.6-5.8-5.2-8.2
					c-1.5-0.8-3-1.4-4.5-2c1.5,2.6,4.5,4.6,6,7.3c1.9,3.5,1.1,7,1.5,10.8c0.5,3,2,5.8,4.4,7.7c2.1,1.8,4.4,2.9,5.2,5.8
					s1.6,6.4,5.2,7c1.8,0.4,3.8,0.2,5.5-0.4c2.4-1,2.4-2.7,3.4-4.8c1-2.3,3-3.9,4.6-5.7c1.5-1.7,3.3-3.9,3.4-6.3s-1.5-4.3-0.1-6.6
					c0.5-0.8,0.9-1.7,1.4-2.5c1.3-2.3,3.8-4,5-6.2c-1.3,0.5-2.6,1-3.8,1.7C143.5,594.7,142.4,595.6,141.4,596.6z"/>
				<path class="st15" d="M602.4,651.6c-9.1-4-21.6-5.7-35.3-6.4c-23.2-1.3-49.7,0-68-3.8l0,0c-38.7-8-15.1-35.3-61-48.6
					c-20-5.8-39.8-3.6-58.7-11.1c-16.9-6.7-19-15.3-39.1-21c-5.5-1.6-60.2-8-69.7-6.7c-5.8-1.3-39.1,5.2-42.5,6.7
					c-12.3,5.7-13.5,14.3-23.8,21c-11.5,7.5-23.6,5.3-35.8,11.1c-27.9,13.3-13.6,40.7-37.2,48.6l0,0c-11.2,3.8-27.3,2.6-41.5,3.8
					c-8.4,0.8-16,2.4-21.5,6.4c-11.4,8.3,1,29.4,4.7,38.9c3.6,9.3,9.3,17.1,11.8,26.5h490.6c4.1-9.4,13.5-17.2,19.3-26.5
					C600.6,681,621,659.9,602.4,651.6z"/>
				<path class="st16" d="M652.6,587.2c-1.1,0.6-2.7,0.9-3.9,1.5c-2.9,1.3-4.3,1.9-5.6,4.1c-2.5,3.9-7.6,5.8-10.4,9.5
					c-2.1,2.8-3.3,6-5.3,8.9c-2.3,3.3-7.5,6.5-5,11.2c0.1,0.3,0.3,0.5,0.5,0.7c-1.2,1.7-2.4,3.3-3.8,4.8c-1.2,1-6.8,3.7-7.5,2.5
					c-0.4-0.7,3-1.6,3.7-4.3c0.3-1.1,0.5-2.3,0.7-3.5c0.1-0.6,0.1-1.1,0.2-1.7c3.8-1,2.2-6.1,4.4-8.3c1.4-1.4,1.6-2.8,2.4-4.5
					s2-3.1,2.1-4.9c0.2-3.5,1.3-5.8,2.5-8.9s2.2-6.5,4.4-9.4c2.7-3.8,6.8-7.9,5-12.7c-0.1,0-0.2,0.3-0.3,0.3c-0.7,1.2-3,1.6-4.1,2.6
					c-2.2,2-1.9,4.3-2.9,6.8c-0.6,1.4-1.9,1.7-3.2,2.8c-3.1,2.3-2.8,4.6-3.1,8.3c-0.1,2.5-2.2,4.7-3.7,6.8c-1.5,2-2.6,4.3-3,6.8
					c-0.4,3.4-1.1,6.8-2,10.1c-0.4,1.2-0.1,2.6,0.7,3.6c-0.1,0.7-0.2,1.4-0.3,2.1c-0.1,1.1-0.3,2.2-0.6,3.3
					c-0.6,1.4-1.7,2.5-3.1,3.2c-3,1.7-5-1.9-5.1-3.8c-0.1-1.2,0.7-3.8,0.7-5.6l0.2,0.1c0.3-2.4,2.6-3.2,3.8-4.6s1.1-3.4,1.6-5.4
					s1.5-3.5,1.2-5.3s-2-3.7-1.3-5.7s2.6-3.1,2.9-4.4s-1-2.9-1-5c0-2.5,2.7-6.7,3.5-11c0.6-3.3-0.2-6.8-0.6-10.2
					c-2.2,1.2-3.9,3-5.1,5.2c-1.2,3-0.6,6.9-0.8,8.5c-0.2,1.9-1.6,3.2-1.7,4.6s1.2,3.2,0.5,5c-0.6,1.7-2.8,2.7-3.4,4.2
					s0.5,3.4,0.5,5.3c0,1.8-1.2,3.1-1.1,4.7s1.6,3.3,1.2,5.1c-0.3,1.5-2.6,3.3-2.8,5.1c-0.3,1.2,0.2,2.5,1.2,3.2
					c0.2,1.1,0.1,2.2-0.2,3.2c-0.4,0.9-0.6,1.9-0.5,2.8c2.2,11.9,17.1,5.7,19.3-1.5c2.3-0.1,5.4-4.2,5.8-4.9
					c1.5-2.3,0.7-5.4,2.3-7.6s5.6-3.5,7.3-5.8c1.9-2.5,0.8-6.1,3.5-8.3C646.7,593.6,650.6,591.1,652.6,587.2z"/>
				<path class="st16" d="M671.8,616.6c-0.7,0.2-1.7,0.3-2.4,0.4c-1.8,0.4-2.7,0.6-3.5,1.7c-1.5,2-4.7,2.5-6.4,4.3
					c-1.3,1.4-2,3.1-3.2,4.5c-1.4,1.7-4.6,2.9-3,5.8c0.1,0.2,0.2,0.3,0.3,0.4c-0.7,0.8-1.5,1.6-2.3,2.3c-0.8,0.4-4.3,1.3-4.7,0.6
					c-0.3-0.5,1.9-0.6,2.3-2c0.2-0.6,0.3-1.2,0.4-1.9c0-0.3,0-0.6,0.1-0.9c2.4-0.2,1.3-3.2,2.6-4.2c0.8-0.6,1-1.4,1.4-2.3
					s1.2-1.5,1.2-2.6c0.1-2,0.8-3.1,1.4-4.8c0.6-1.8,1.4-3.4,2.6-4.9c1.7-1.9,4.2-3.8,2.9-6.7c-0.1,0-0.1,0.2-0.2,0.2
					c-0.4,0.6-1.8,0.6-2.5,1.1c-1.3,0.9-1.1,2.2-1.7,3.6c-0.3,0.7-1.2,0.8-2,1.2c-1.9,1-1.7,2.3-1.8,4.4c0,1.4-1.3,2.4-2.2,3.5
					c-1,1-1.6,2.2-1.8,3.5c-0.2,1.9-0.5,3.7-1.1,5.5c-0.2,0.7,0,1.5,0.5,2.1c-0.1,0.4-0.1,0.8-0.1,1.1c0,0.6-0.1,1.2-0.3,1.8
					c-0.4,0.7-1.1,1.3-1.9,1.5c-1.8,0.7-3.2-1.6-3.3-2.7c-0.1-0.7,0.3-2.1,0.4-3.1l0.1,0.1c0.1-1.3,1.6-1.5,2.3-2.2s0.7-1.8,0.9-2.9
					s0.9-1.8,0.7-2.9s-1.3-2.3-0.9-3.4s1.6-1.5,1.8-2.2s-0.7-1.7-0.7-3s1.6-3.5,2-5.9c0.3-1.8-0.3-3.9-0.6-5.9
					c-1.3,0.4-2.4,1.3-3.1,2.4c-0.7,1.6-0.3,3.8-0.3,4.7c-0.1,1.1-1,1.6-1,2.5s0.8,1.9,0.4,2.9s-1.7,1.2-2.1,2s0.3,2,0.4,3.1
					s-0.7,1.7-0.6,2.5s1.1,2,0.9,3c-0.2,0.8-1.6,1.6-1.7,2.6c-0.1,0.8,0.2,1.6,0.8,2c0.1,0.6,0.1,1.2-0.1,1.8
					c-0.2,0.5-0.3,1-0.3,1.5c1.6,7,10.9,5,12.2,1.2c1.4,0.2,3.3-1.8,3.6-2.2c0.9-1.1,0.4-3,1.3-4.1s3.5-1.4,4.5-2.5s0.4-3.4,2-4.3
					C668.1,619.7,670.5,618.6,671.8,616.6z"/>
				<path class="st17" d="M-33.8,652.7c-20.3-0.3-38.7-0.9-48.9,2.3c-0.3,0.1-0.7,0.2-1,0.3c-4.5,2.1,20.2,1.7,25.7,1.7
					c7.8,0,13-0.2,18.4,1c9.5,2,5.4,5.5,21.2,6.6c10.3,0.7,31,0.5,31.5-2.1c0.2-0.8-5.3-1.8-7.7-2.4l-0.6-0.2
					c-6.4-1.7-5.1-2.5-2.4-4.4C8.2,651.5-22.9,652.8-33.8,652.7z"/>
				<path class="st18" d="M1320.1,625.8c-20.7,3.3-43.7-3.4-63.6,2.2c-35.9,10.2-68.4-7.9-103.2-0.7c-20.9,4.3-40.1,1.5-60.7-2.2
					c-23.7-4.3-35.4-2-58.4-0.1l0,0c-12.2,1-22.4-3.7-34.5-1.6c-22.6,3.9-34.4,9-58.6,9c-38.7,0-82.1,17.6-120.4,12.6
					c-24.3-3.2-46-13.7-70.9-15.3c-27.7-1.7-53.8,8.8-81.5,7.2c-31.9-1.9-56.1-13.3-88.7-13.4c-2.3,0-4.5-0.1-6.6-0.2
					c-21.4-1.2-31-8.3-50.4-14.6c-7.3-2.4-32.1-4.6-38.8,2.1c0,0,0,0,0.1,0.2c-8.9,2-43.1,14-47.4,14.7c-20.6,3.3-43.5-3.4-63.3,2.2
					c-35.7,10.2-68-7.9-102.7-0.7c-20.8,4.3-39.9,1.5-60.4-2.2c-23.6-4.3-35.2-2-58.1-0.1l0,0c-12.1,1-22.3-3.7-34.3-1.6
					c-22.4,3.9-34.2,9-58.3,9c-38.5,0-81.7,17.6-119.8,12.6c-24.1-3.2-45.8-13.7-70.5-15.3c-27.5-1.7-53.6,8.8-81,7.2
					c-31.7-1.9-55.9-13.3-88.3-13.4c-2.3,0-4.5-0.1-6.5-0.2c-21.3-1.2-30.8-8.3-50.2-14.6c-7.2-2.4-38.6-0.6-38.6-10.1V715h1765.4
					V610.9C1369.9,609.1,1325.1,625,1320.1,625.8z"/>
				<path class="st19" d="M683.5,654.2c-3.3,1.5,4.2,2,9.6,1.8c4.1-0.2,8.7-0.6,12.9-0.5c4.7,0.2,6.8,1.1,10.5,1.7
					c7.5,1.1,10.4,0,11.2-1.9c1.1-2.5,14.9-3.8,14.2-6.1c-1.5-4.7-32.2,0.5-24.5-5.8c0.3-0.3,0.8-0.6,1.3-0.9c1.1-0.7,2-1.4,3.2-2
					c6.1-3.4-16.3-0.7-19.9,0c-4,0.8-7.6,1.9-8.8,3.2c-2.3,2.4-11.3,3.5-20.2,2.3c-4.5-0.6-10.5-2.3-14.8-0.4
					c-5.2,2.2,2.6,4.4,11.1,4.5c4.2,0,12.9-0.8,16.5-0.2c3.3,0.5,3,1.5,2.4,2.4C687.6,653.3,685.3,653.4,683.5,654.2z"/>
				<path class="st19" d="M593,633.1c-6.5-0.8-12.8-1.3-14.9-1.7c-6.7-1.1-12.7-3.2-19.2-4.8c-10.4-2.5-19.2-0.2-29.4-1.9
					c-7.8-1.3-15.5-3.3-23.3-4.6c-4-0.6-11.4-3-14.1-1.6c-3.2,1.7,11.2,7,13.4,8c5.9,2.7,5,2.7,4.6,6.6c-0.6,6.6,12.4,8.4,20.7,6.4
					c9-2.1,11.6-5.2,23.5-3.7c4.2,0.6,11.4,1.8,15.1,3.5c3.4,1.6,5,3.8,8.5,5.5c7.6,3.6,10.6,2.9,14.8-0.3c1.8-1.4,2.9-3,6-3.6
					c3.7-0.7,10,1.1,11.7-1.7C612.4,636.3,602.5,634.3,593,633.1z"/>
				<path class="st20" d="M-146.4,671c51.8,2.3,86-7.7,135.5-8.8c57.9-1.4,79.8,10.5,126.5,13.8c97.9,7.1,167.7-21.1,256.5-25
					c99.7-4.4,181.4,16.5,277.4,14.9c46.1-0.7,83.3-5.4,128.5-3.8V720H-395.6v-67.1C-285.9,646.7-255.5,666.2-146.4,671z"/>
				<path class="st20" d="M672,672.6c39.1,2.3,64.9-7.7,102.3-8.8c43.7-1.4,60.2,10.5,95.5,13.9c73.9,7.1,126.6-21.1,193.6-25
					c75.3-4.4,136.9,16.5,209.4,14.9c34.8-0.7,62.9-5.4,97-3.8v57.9h-886v-67.1C566.7,648.4,589.6,667.9,672,672.6z"/>
				<path class="st21" d="M-207.3,704.6c38.9,2.3,64.6-7.7,101.8-8.8c43.5-1.4,59.9,10.5,95,13.9c73.6,7.1,126-21.1,192.7-25
					c74.9-4.4,136.2,16.5,208.3,14.9c34.6-0.7,62.6-5.4,96.5-3.8v57.9h-882.2l-0.5-67.2C-313.2,680.2-289.3,699.8-207.3,704.6z"/>
				<path class="st22" d="M636.5,709.5c38.6,5.5,208-17.6,245.2-18.7c43.5-1.4,85.6,10.4,120.7,13.8c73.6,7.1,84.3-5.4,151-9.4
					c74.9-4.4,64,10.4,136.1,8.8c34.7-0.7,44.3-15.3,78.3-13.8v64.5l-910.8-5C456.8,749.7,207.3,648.8,636.5,709.5z"/>
				<path class="st23" d="M-272.6,741.5c45.3,2.3,75.1-7.7,118.4-8.8c50.6-1.4,69.7,10.5,110.5,13.9c85.6,7.1,146.5-21.1,224.1-25
					c87.1-4.4,158.5,16.5,242.3,14.9c40.3-0.8,72.8-5.4,112.3-3.8v34.2h-930.7v-43.6C-299.8,717.1-368,736.8-272.6,741.5z"/>
				<path class="st23" d="M629.4,741c45.2,3.2,75.2-7.7,118.4-8.8c50.6-1.4,69.7,10.5,110.5,13.8c85.6,7.1,146.5-21.1,224.1-25
					c87.1-4.4,158.8,22.6,242.3,14.9c17-1.6,3.4-10.8,42.9-9.3v40.2H413.3l81.6-34.2C567,728.8,551,735.4,629.4,741z"/>
				<path class="st23" d="M202.3,742.3c-13.1,3.3-8.1,7.8,14,9.7c16.4,1.5,61.8,2,77.7,0.4c22.8-2.3,11.3-6.6,37.6-8.4
					c20.2-1.4,45.6,0.1,64.6-1.8c39.8-4.1-21-5.5-32.4-7.3c-10.9-1.7-9.2-4.7-21.6-6.2c-14.4-1.8-34.2,0.1-49-0.4
					c-19.9-0.7-31.5-3.8-54.1-3.6c-11.9,0.1-48.4,0.5-56.7,1.8c-20.4,3.1,40.4,4.4,45.5,6.6C236.4,736.6,214.3,739.3,202.3,742.3z"
					/>
				<path class="st24" d="M462.1,676.2c-13.2,2-8.5,6,13.5,9.2c16.3,2.3,61.6,5.8,77.6,5.5c22.8-0.5,11.7-4.8,38-4.7
					c20.3,0.1,45.5,3.1,64.6,2.7c40-0.8-20.6-6-31.9-8.3c-10.8-2.2-8.9-4.6-21.3-6.7c-14.3-2.5-34.1-2.2-48.8-3.6
					c-19.7-1.9-31.2-5.3-53.7-6.6c-11.9-0.7-48.3-2.8-56.6-2.2c-20.5,1.3,40.1,6.4,45,8.6C496.5,673.6,474.3,674.5,462.1,676.2z"/>
				<path class="st23" d="M297.5,709.5c-1.7,2.1-20.3,3.2-31.2,2.4c-14.2-1-23.6-3.3-36.6-4.6c-13.5-1.4-32.6-1.3-47.9-1
					c-12.8,0.2-12.2,2.5-24.3,2.9c-8.6,0.3-24.1-0.3-27.7-1.8c-2.5-1,0.7-1.9,3.1-2.8c1.3-0.6,2.6-1.3,3.9-2
					c3.6-1.9,5.6-4.1,10.6-5.9c12.1-4.4,35.7-4.6,61.5-4.8c6.4-0.1,13.3-0.1,19.5-0.2c5-0.1,9.4-0.6,14.6-0.7
					c5.4,0,9.1,0.3,13.6,0.6c14.1,1,28.1,1.1,27.4,3.7c-0.6,2.4-7,4-1.4,6.4C287.3,703.6,299.3,707.4,297.5,709.5z"/>
				<path class="st24" d="M55.1,696.6c-1.8,2-20.5,2-31.3,0.6c-14.1-1.8-23.3-4.7-36.2-6.7c-13.4-2.1-32.5-3.1-47.8-3.7
					c-12.8-0.5-12.3,1.8-24.5,1.5c-8.7-0.2-24-1.6-27.5-3.3c-2.4-1.2,0.8-1.8,3.2-2.7c1.4-0.5,2.7-1.1,4-1.8
					c3.7-1.7,5.8-3.8,10.9-5.3c12.3-3.7,35.9-2.5,61.7-1.3c6.4,0.3,13.2,0.7,19.5,0.9c5,0.2,9.5-0.1,14.6,0.2
					c5.4,0.3,9,0.8,13.6,1.4c14,1.7,28,2.7,27.2,5.2c-0.7,2.3-7.3,3.6-1.7,6.3C45.2,690.1,56.9,694.6,55.1,696.6z"/>
				<path class="st25" d="M724.4,710.2c6.8-1.6,13.7-6.1,18.7-7.6c6.3-2,14.3-4.4,22.3-6.3c5-1.2,10.1-2.2,15.2-2.9
					c26.4-3.2,55.8-2.8,83-5.2c13.8-1.2,26.8-2.8,40.5-4.5c17-2.1,34-2.4,50.5-4.2c18.3-2,32.9-8.7,47.9-13.3
					c21.6-6.7,45-13.1,70.9-15.9c6-0.7,71-2.3,71,2.5v58H724.6C724.5,710.6,724.5,710.4,724.4,710.2z"/>
				<path class="st26" d="M670.3,719.5c-3.2-1.1-6.5-4.1-8.9-5.1c-3-1.3-6.8-2.9-10.7-4.2c-2.4-0.8-4.8-1.4-7.3-1.9
					c-12.6-2.1-26.6-1.8-39.6-3.5c-6.6-0.8-12.8-1.9-19.3-3c-8.1-1.4-16.3-1.6-24.1-2.8c-8.7-1.3-15.7-5.8-22.9-8.8
					c-10.3-4.4-21.5-8.7-33.9-10.6c-2.1-0.3-19-1-28.1-0.1c-8.4-0.4-16.9-0.3-25.3,0.3c-12.4,1.9-23.5,6.2-33.9,10.6
					c-7.1,3.1-14.1,7.5-22.9,8.8c-7.9,1.2-16,1.4-24.1,2.8c-6.5,1.1-12.8,2.2-19.3,3c-13,1.6-27,1.3-39.6,3.5
					c-2.5,0.5-4.9,1.1-7.3,1.9c-3.8,1.3-7.6,2.9-10.7,4.2c-2.4,1-5.7,4-8.9,5.1c0,0.1,0.1,0.3,0.1,0.4h200.5v-0.2h186
					C670.2,719.8,670.2,719.6,670.3,719.5z"/>
				<path class="st27" d="M440.6,679.5c-18.3-10.2-42.9-12.5-63.1-7c-3.6,1-7.1,2.3-10.5,3.8c-24.9,11.5-24.1,33,11.2,41.8
					c15.5,3.8,57.5,3.9,71.3-2.9C466.6,706.8,455.4,687.7,440.6,679.5z"/>
				<path class="st28" d="M440.6,679.5c-18.3-10.2-42.9-12.5-63.1-7c-3.6,1-7.1,2.3-10.5,3.8c-12.5,5.7-18.5,14-17,21.9
					c4.7,2.4,9.7,4.2,14.9,5.4c15.5,3.8,57.5,3.9,71.3-2.9c9.3-4.6,10.2-12.4,6.7-19.8C442.1,680.4,441.4,679.9,440.6,679.5z"/>
				<path class="st29" d="M580.9,696.6c-8-3.9-17-5.5-25.8-4.6c-1.5,0.2-2.9,0.4-4.4,0.8c-10.4,2.6-10.4,9.4,4,13.5
					c6.3,1.8,23.6,3.4,29.4,1.8C591.2,706.1,586.9,699.8,580.9,696.6z"/>
				<path class="st30" d="M580.9,696.6c-8-3.9-17-5.5-25.8-4.6c-1.5,0.2-2.9,0.4-4.4,0.8c-5.2,1.3-7.8,3.7-7.3,6.2
					c1.9,0.9,4,1.7,6,2.3c6.3,1.8,23.6,3.4,29.4,1.8c3.9-1.1,4.4-3.5,3-6C581.5,697,581.2,696.8,580.9,696.6z"/>
				<path class="st29" d="M552.3,684.1c-8.9-1.6-18.1,0.2-25.8,5c-1.3,0.8-2.5,1.7-3.7,2.8c-8.5,7.5-5.5,15.8,9.5,14.9
					c6.6-0.4,23.2-5.5,27.8-9.8C565.8,691.6,559.1,685.5,552.3,684.1z"/>
				<path class="st30" d="M552.3,684.1c-8.9-1.6-18.1,0.2-25.8,5c-1.3,0.8-2.5,1.7-3.7,2.8c-4.2,3.8-5.6,7.7-4.1,10.6
					c2.2,0.3,4.4,0.4,6.5,0.3c6.6-0.4,23.2-5.5,27.8-9.8c3.1-2.9,2.5-6.1,0.2-8.5L552.3,684.1z"/>
				<g class="st31">
					<path class="st32" d="M-291.6,282.4c0,0,119,55.3,402.3,59.1s391.3-68.3,651.1-65.3s288,30.5,288,30.5s-283.3-69.4-654.3,29.9
						s-849.9-41.9-849.9-41.9L-291.6,282.4z"/>
					<path class="st32" d="M-285.8,348.4c0,0,106,29.5,358.5,31.5s414.4-51,507.5-63.5S768.1,304,768.1,304
						c-133.1,0.5-374.1,61.5-441.5,73.3C0.8,438.5-430.9,355-430.9,355L-285.8,348.4z"/>
				</g>
				<path class="st33" d="M548.1,618.2L548.1,618.2L548.1,618.2L548.1,618.2z"/>
				<path class="st16" d="M558.9,598.2c1-7.9-3.5-15.1-3.5-23c0.1-8.8,6-16.4,6.6-25.3c0.2-8.5-6.2-16.2-3.7-24.4
					c-4,5.5-3.3,13.6-0.2,23.2c3.5,10.7-5.2,16-6.7,25.5c-1.2,7.6,4.3,14.2,4.6,21.6c0.3,6.9-3.8,13.2-6.7,19.4
					c0.1,0.8,0.3,1.7,0.3,2.4C554,612.2,558,604.9,558.9,598.2z"/>
				<path class="st16" d="M549.8,618.9c0-0.3,0-0.6,0-1c0-0.1,0-0.3,0-0.4c-0.3,0.4-0.6,0.7-0.9,1.1L549.8,618.9z"/>
				<path class="st16" d="M548.8,612.2c-3.3-8.4,2.8-15.5,2.8-23.5c0-5.5-4-8-2.4-13.6c1.6-5.4,2.8-11,1.8-16.9l-0.1-0.7l-0.2,0.6
					c-0.7,3-1.5,6.1-2.3,9.1c-0.5,2-1.3,4.1-1.8,6.3c-1,4.4,1.7,9.2,1.8,13.7c-0.1,2.9-0.5,5.8-1.4,8.6c-0.6,2.5-0.9,5.1-1.3,7.6
					c-0.2,1.5-0.3,3-0.3,4.5c0.1,2.7,0.6,5.3,1.4,7.8c0.3,0.8,0.6,1.6,1,2.3l0.1,0.2c0.4-1,0.8-2.1,1.3-3.1
					C549.1,613.6,548.8,612.3,548.8,612.2z"/>
				<path class="st16" d="M548.8,618.5c0.3-0.3,0.6-0.7,0.9-1.1c-0.1-0.7-0.2-1.6-0.3-2.4c-0.5,1-0.9,2.1-1.3,3.1v0.1L548.8,618.5z"
					/>
				<path class="st16" d="M538.2,611.7c0.4-0.8,0.7-1.5,1-2.3c0.8-2.5,1.2-5.2,1.2-7.8c0-1.5-0.2-3-0.4-4.5c-0.3-1.4-0.6-2.8-1-4.2
					c-0.1-0.5-0.2-0.9-0.3-1.4c-0.7-3.4-1.1-6.9-1.2-10.5c-0.2-3.9,0.8-7.7,0.7-11.5c0.1-3.3-0.5-6.6-1.5-9.8
					c-1-2.8-2.7-5.1-3.2-8.2c-1.3,6.8,1.9,12.2,2.9,18.5c0.7,4.4-0.2,8-0.7,12.2c-0.4,2.5-0.6,4.9-0.5,7.4c0.2,3.6,1.7,5.3,2.9,8.2
					s-0.3,6.4-1,9.3c-0.6,2.1-1,4.2-1.1,6.4l1.5,0.6C537.6,613.3,537.9,612.5,538.2,611.7z"/>
				<path class="st16" d="M544,615.8c-1.1-3.3-2-6.7-1-10.2c0.9-3.3,3.2-6.2,3.5-9.7c0.5-5.8-1.7-10.8-3.1-16.1
					c-0.3-1.2-0.6-2.5-0.8-3.7c-0.6-2.2-0.7-4.6-0.3-6.8c0.7-3.4,1.5-5.1,1-8.8c-0.6-4.4-2.4-9.5-1.9-14.2c0.5-5.4,2.1-8.7,4.2-13.4
					c-2.3,2.3-4.9,6.7-6.4,11.8c-1.3,4.5-0.3,9.3,0.3,13.8c0.4,3.4,1.8,9,1.1,12.3c-0.8,3.7-2.3,5.3-1.6,9.3
					c1,5.9,6.2,15.4,4.2,21.5c-1.3,3.9-3.2,5.9-2.4,10.5c0.2,1.4,0.6,2.8,1.3,4l2.4,0.9C544.2,616.5,544.1,616.2,544,615.8z"/>
				<path class="st16" d="M582.1,610.5c0.8-6.4-2.9-12.3-2.8-18.7c0-7.2,4.8-13.3,5.4-20.6c0.2-6.9-5-13.2-3-19.9
					c-3.3,4.5-2.7,11.1-0.2,18.8c2.8,8.7-4.2,13-5.4,20.8c-1,6.2,3.5,11.6,3.7,17.6c0.2,5.3-2.7,10.1-5,14.9l1.9,0.1
					C579.3,619.6,581.5,614.9,582.1,610.5z"/>
				<path class="st16" d="M573.9,622c-2.7-6.8,2.3-12.6,2.3-19.1c0-4.5-3.2-6.5-1.9-11.1c1.3-4.4,2.2-9,1.5-13.7l-0.1-0.5l-0.1,0.5
					c-0.6,2.5-1.3,5-1.9,7.4c-0.4,1.7-1,3.3-1.4,5.1c-0.8,3.6,1.4,7.5,1.5,11.1c-0.1,2.4-0.4,4.7-1.1,7c-0.5,2-0.7,4.2-1,6.2
					c-0.2,1.2-0.2,2.4-0.2,3.7c0.1,1.6,0.3,3.2,0.7,4.8l2.2,0.1C574,622.6,573.9,622,573.9,622z"/>
				<path class="st16" d="M565.3,621.5c0.3-0.6,0.5-1.3,0.8-1.9c0.6-2.1,0.9-4.2,0.9-6.4c0-1.2-0.1-2.4-0.3-3.6
					c-0.2-1.2-0.5-2.3-0.8-3.4l-0.3-1.1c-0.6-2.8-0.9-5.7-1-8.5c-0.2-3.2,0.6-6.2,0.5-9.4c0.1-2.7-0.4-5.4-1.3-7.9
					c-0.8-2.3-2.2-4.2-2.6-6.7c-1.1,5.5,1.5,9.9,2.3,15c0.6,3.6-0.2,6.5-0.6,10c-0.3,2-0.5,4-0.4,6c0.2,2.9,1.4,4.3,2.3,6.7
					s-0.2,5.2-0.8,7.5c-0.4,1.5-0.7,3-0.9,4.5l1.5,0.3C565,622.2,565.2,621.9,565.3,621.5z"/>
				<path class="st16" d="M569.2,616.6c0.7-2.7,2.6-5,2.9-7.9c0.4-4.7-1.4-8.8-2.5-13.1c-0.2-1-0.5-2-0.7-3
					c-0.5-1.8-0.5-3.7-0.2-5.6c0.6-2.8,1.2-4.2,0.8-7.2c-0.5-3.6-2-7.8-1.6-11.6c0.4-4.4,1.7-7.1,3.4-10.9c-2.4,2.8-4.2,6-5.2,9.6
					c-1.1,3.7-0.2,7.5,0.2,11.2c0.3,2.8,1.4,7.3,0.9,10c-0.6,3-1.9,4.4-1.3,7.6c0.8,4.8,5,12.6,3.4,17.5c-1,3.2-2.6,4.8-2,8.5
					c0.1,0.4,0.2,0.8,0.2,1.2c0.7,0.1,1.4,0.2,2,0.2C568.8,621.1,568.7,618.8,569.2,616.6z"/>
				<path class="st16" d="M601.3,618.1c0.7-4.6-2.3-8.8-2.3-13.4c0-5.1,3.9-9.6,4.4-14.8c0.2-5-4.1-9.5-2.4-14.3
					c-2.7,3.2-2.2,7.9-0.2,13.5c2.3,6.3-3.4,9.3-4.4,14.9c-0.8,4.4,2.8,8.3,3,12.6c0.1,2.8-1.1,5.4-2.5,7.9l1.8,0.2
					C600,622.7,600.9,620.5,601.3,618.1z"/>
				<path class="st16" d="M596.5,612.6c0-3.2-2.6-4.7-1.6-8s1.8-6.4,1.2-9.9l-0.1-0.4l-0.1,0.4c-0.5,1.8-1,3.6-1.5,5.3
					c-0.3,1.2-0.9,2.4-1.2,3.7c-0.6,2.6,1.2,5.4,1.2,8c-0.1,1.7-0.4,3.4-0.9,5c-0.4,1.5-0.7,3-0.8,4.5c-0.1,0.9-0.2,1.7-0.2,2.6
					c0,0.1,0,0.2,0,0.3l1.5,0.2C593.5,620.2,596.5,616.6,596.5,612.6z"/>
				<path class="st16" d="M588.6,623.8c0.3-1.2,0.5-2.5,0.5-3.7c0-0.9-0.1-1.8-0.3-2.6c-0.2-0.8-0.4-1.7-0.6-2.5
					c-0.1-0.3-0.2-0.5-0.2-0.8c-0.5-2-0.7-4.1-0.8-6.1c-0.2-2.3,0.5-4.5,0.4-6.7c0.1-1.9-0.3-3.9-1-5.7c-0.7-1.6-1.8-3-2.1-4.8
					c-0.8,3.9,1.3,7.1,1.9,10.8c0.5,2.6-0.2,4.7-0.5,7.2c-0.3,1.4-0.4,2.9-0.3,4.3c0.1,2.1,1.1,3.1,1.9,4.8s-0.2,3.7-0.7,5.4
					c0,0.1-0.1,0.3-0.1,0.4C587.3,623.7,588,623.7,588.6,623.8z"/>
				<path class="st16" d="M590.8,622.5c0.6-1.9,2.1-3.6,2.3-5.7c0.3-3.4-1.1-6.3-2-9.4c-0.2-0.7-0.4-1.4-0.5-2.2
					c-0.4-1.3-0.4-2.7-0.2-4c0.5-2,1-3,0.7-5.2c-0.4-2.6-1.6-5.6-1.3-8.3c0.4-3.2,1.4-5.1,2.7-7.8c-1.9,1.9-3.4,4.3-4.2,6.9
					c-0.9,2.6-0.2,5.4,0.2,8.1c0.3,2,1.2,5.3,0.7,7.2c-0.5,2.2-1.5,3.1-1.1,5.4c0.7,3.5,4.1,9,2.7,12.6c-0.6,1.2-1.1,2.5-1.6,3.8
					l1.3,0.1C590.6,623.4,590.7,622.9,590.8,622.5z"/>
				<rect x="-385.1" y="258" class="st34" width="1763.3" height="495.9"/>
				<path class="st19" d="M214.5,645.3c8.7-2.3,22.3-3,32.9-4.5c28.9-4-26.6-5.3-35.6-7.1c-1.3-0.3-2.6-0.6-4-0.9
					c-6.9-1.9-17.5-4.3-28.6-3.6c-10.5,0.7-18.1,4-29.9,4.7c-6.7,0.4-15.6-0.3-20.4,1.4c-4,1.4-1.9,3.6-5.6,5
					c-11.5,4.3-26.2,2.5-37.8,7.1c-4.3,1.7-27.8,8.3-29.7,11.7c-3.6,6.2,6.6,7.6,13.4,7.2c9.6-0.5,18.3-4,27.7-4.7s19,0.9,28.5,0
					c6-0.6,9.7-2.1,14.3-3.1c5.6-1.3,11.3-2.2,17-2.5c9.5-0.6,19.4,0.3,29,0.4c8.1,0.1,19.5,0.2,24.3-1.5c5.2-1.8-3.1-3.7-3.2-5.5
					C206.9,647.8,210.9,646.2,214.5,645.3z"/>
				<path class="st35" d="M200.9,704.2c-0.4-1.1-1.2-1.9-2.2-2.4c-4.4-1.8-9.2-6-12.4-7.3c-5.2-2.2-10.6-4.1-16-5.7
					c-3.5-1-7-1.7-10.6-2.1c-18.2-1.4-37.6,2.1-56.1,1.7c-9.4-0.2-18.4-0.9-27.7-1.6c-11.7-0.9-23.1,0.3-34.4-0.3
					c-12.5-0.6-23.5-7.7-34.3-12c-15.6-6.3-32.4-12-50.1-13c-4.1-0.2-64.4,15.4-63.5,21.5l28.5,63.4l279-42
					C201,704.4,200.9,704.3,200.9,704.2z"/>
				<path class="st27" d="M99.6,685.3c-10.1-5.3-22.3-5.2-32.3,0.4c-1.8,1-3.4,2.1-5,3.5c-11.7,9.9-9.7,24.6,8.8,27.7
					c8.1,1.3,29.3-2,35.7-7.8C114.7,701.8,107.7,689.7,99.6,685.3z"/>
				<path class="st28" d="M99.6,685.3c-10.1-5.3-22.3-5.2-32.3,0.4c-1.8,1-3.4,2.1-5,3.5c-5.8,4.9-8.3,11.1-6.9,16.4
					c2.5,1.2,5.2,2,7.9,2.5c8.1,1.3,29.3-2,35.7-7.9c4.3-3.9,4.2-9.3,1.9-14.1C100.4,685.8,100,685.5,99.6,685.3z"/>
				<path class="st14" d="M147.6,662.2c1.9,2.4,3.2,5.4,3.6,8.5c0.4,3.1,0.1,6.1,1.1,9.2c1.1,3.4,4,6.8,6,9.7
					c0.3,0.4,0.5,0.8,0.7,1.2c-0.5-3.4-2.8-6.2-3.9-9.5c-1.4-4.7-1.9-9.5-1.6-14.3c0.4-9.6,2.6-19.3,0.3-28.8
					c-0.6-2.4-1.5-4.7-2.8-6.8c-1.1-1.8-3.3-3.4-4-5.1c4.4,1,7.3,4.6,9.9,8.2c2.6,3.7,4.1,8.1,4.3,12.6c0.5,7.2-1.4,14.1-1.4,21.2
					c0,2.5,0.4,5,1.1,7.4c0.3-1.2,0.6-2.3,1.1-3.4c1.3-2.9,2.4-5.9,3.2-9c0.6-2.8,0.8-5.7,0.5-8.5c-0.5-6-2.1-11.7-1.1-17.7
					s4-12.9,3.2-19.3c-0.9-7.3-2.7-11.8-6.1-18.1c3.8,3.1,8.1,9.1,10.6,16c3.1,8.6-1.6,18.2-1.1,26.9c0.4,5.5,1.4,9.5,1.9,15
					c0.7,7.7-3.4,14.2-5.3,21.1c-0.4,2-0.8,4.1-1,6.1c-0.8,4.8,3.3,12.6,1.5,16.7c-5,11.3-15.1-9.3-17.3-12s-4.5-6-4.9-9.9
					c-0.5-5,0.6-9.5-1.8-14.2c-1.8-3.6-5.4-6.2-7.3-9.6c1.9,0.8,3.8,1.6,5.5,2.7C144.6,659.2,146.2,660.6,147.6,662.2z"/>
				<path class="st36" d="M194.4,669.8c-1.6,2-2.6,4.3-2.9,6.8c-0.3,2.5-0.1,4.9-0.9,7.3c-0.9,2.8-3.2,5.4-4.8,7.8
					c-0.2,0.3-0.4,0.6-0.6,0.9c0.4-2.7,2.3-5,3.1-7.6c1.1-3.7,1.5-7.6,1.3-11.5c-0.3-7.7-2.1-15.4-0.3-23c0.5-1.9,1.2-3.8,2.2-5.5
					c0.9-1.5,2.6-2.7,3.2-4.1c-3.5,0.8-5.8,3.7-7.9,6.6c-2.1,3-3.3,6.5-3.4,10.1c-0.4,5.7,1.1,11.3,1.1,16.9c0,2-0.3,4-0.9,5.9
					c-0.2-0.9-0.5-1.8-0.9-2.7c-1.1-2.3-1.9-4.7-2.5-7.2c-0.5-2.2-0.6-4.5-0.4-6.8c0.4-4.8,1.7-9.3,0.9-14.1s-3.2-10.3-2.6-15.4
					c0.7-5.9,2.2-9.5,4.9-14.5c-3.8,3.5-6.8,7.9-8.5,12.8c-2.5,6.8,1.3,14.6,0.9,21.5c-0.3,4.4-1.1,7.6-1.5,12
					c-0.6,6.2,2.7,11.3,4.2,16.8c0.4,1.6,0.6,3.2,0.8,4.9c0.6,3.8-2.6,10-1.2,13.4c4,9,12.1-7.5,13.9-9.6s3.6-4.8,3.9-7.9
					c0.4-4-0.4-7.6,1.4-11.3c1.5-2.9,4.3-4.9,5.8-7.7c-1.5,0.6-3,1.3-4.4,2.1C196.8,667.4,195.5,668.5,194.4,669.8z"/>
				<path class="st37" d="M363.3,715.9c-1.8-1.3-4.9-1.5-8-1.1c1,0.2,2,0.5,2.8,1.1c8.4,6-6.8,9.7-10.4,10.7
					c-0.7,0.2-1.4,0.4-2.1,0.6c2,1.3,5,0,7.3-0.6C356.5,725.6,371.6,721.9,363.3,715.9z"/>
				<path class="st38" d="M358.1,715.9c-0.8-0.6-1.8-0.9-2.8-1.1c-3.8,0.5-7.6,2-9.3,3.8s-2.7,4.5-1.7,6.8c0.3,0.7,0.7,1.3,1.4,1.8
					c0.7-0.2,1.5-0.5,2.1-0.6C351.3,725.6,366.5,721.9,358.1,715.9z"/>
			</g>
		</g>
	</g>
</g>
<radialGradient id="SVGID_6_" cx="456.94" cy="446.87" r="8.37" gradientTransform="matrix(1 0 0 -1 0 742)" gradientUnits="userSpaceOnUse">
	<stop  offset="0" style="stop-color:#FFFFFF"/>
	<stop  offset="0.13" style="stop-color:#FFFFFB"/>
	<stop  offset="0.26" style="stop-color:#FFFFEE"/>
	<stop  offset="0.39" style="stop-color:#FFFFDA"/>
	<stop  offset="0.53" style="stop-color:#FFFFBD"/>
	<stop  offset="0.66" style="stop-color:#FFFF98"/>
	<stop  offset="0.7" style="stop-color:#FFFF8C"/>
	<stop  offset="1" style="stop-color:#FFC728"/>
</radialGradient>
<circle class="st39" cx="456.9" cy="295.1" r="8.4"/>
<radialGradient id="SVGID_7_" cx="389.6" cy="446.87" r="8.37" gradientTransform="matrix(1 0 0 -1 0 742)" gradientUnits="userSpaceOnUse">
	<stop  offset="0" style="stop-color:#FFFFFF"/>
	<stop  offset="0.13" style="stop-color:#FFFFFB"/>
	<stop  offset="0.26" style="stop-color:#FFFFEE"/>
	<stop  offset="0.39" style="stop-color:#FFFFDA"/>
	<stop  offset="0.53" style="stop-color:#FFFFBD"/>
	<stop  offset="0.66" style="stop-color:#FFFF98"/>
	<stop  offset="0.7" style="stop-color:#FFFF8C"/>
	<stop  offset="1" style="stop-color:#FFC728"/>
</radialGradient>
<circle class="st40" cx="389.6" cy="295.1" r="8.4"/>
<radialGradient id="SVGID_8_" cx="322.25" cy="446.87" r="8.37" gradientTransform="matrix(1 0 0 -1 0 742)" gradientUnits="userSpaceOnUse">
	<stop  offset="0" style="stop-color:#FFFFFF"/>
	<stop  offset="0.13" style="stop-color:#FFFFFB"/>
	<stop  offset="0.26" style="stop-color:#FFFFEE"/>
	<stop  offset="0.39" style="stop-color:#FFFFDA"/>
	<stop  offset="0.53" style="stop-color:#FFFFBD"/>
	<stop  offset="0.66" style="stop-color:#FFFF98"/>
	<stop  offset="0.7" style="stop-color:#FFFF8C"/>
	<stop  offset="1" style="stop-color:#FFC728"/>
</radialGradient>
<circle class="st41" cx="322.3" cy="295.1" r="8.4"/>
<radialGradient id="SVGID_9_" cx="254.9" cy="446.87" r="8.37" gradientTransform="matrix(1 0 0 -1 0 742)" gradientUnits="userSpaceOnUse">
	<stop  offset="0" style="stop-color:#FFFFFF"/>
	<stop  offset="0.13" style="stop-color:#FFFFFB"/>
	<stop  offset="0.26" style="stop-color:#FFFFEE"/>
	<stop  offset="0.39" style="stop-color:#FFFFDA"/>
	<stop  offset="0.53" style="stop-color:#FFFFBD"/>
	<stop  offset="0.66" style="stop-color:#FFFF98"/>
	<stop  offset="0.7" style="stop-color:#FFFF8C"/>
	<stop  offset="1" style="stop-color:#FFC728"/>
</radialGradient>
<circle class="st42" cx="254.9" cy="295.1" r="8.4"/>
<radialGradient id="SVGID_10_" cx="187.56" cy="446.87" r="8.37" gradientTransform="matrix(1 0 0 -1 0 742)" gradientUnits="userSpaceOnUse">
	<stop  offset="0" style="stop-color:#FFFFFF"/>
	<stop  offset="0.13" style="stop-color:#FFFFFB"/>
	<stop  offset="0.26" style="stop-color:#FFFFEE"/>
	<stop  offset="0.39" style="stop-color:#FFFFDA"/>
	<stop  offset="0.53" style="stop-color:#FFFFBD"/>
	<stop  offset="0.66" style="stop-color:#FFFF98"/>
	<stop  offset="0.7" style="stop-color:#FFFF8C"/>
	<stop  offset="1" style="stop-color:#FFC728"/>
</radialGradient>
<circle class="st43" cx="187.6" cy="295.1" r="8.4"/>
<radialGradient id="SVGID_11_" cx="125.21" cy="421.87" r="8.37" gradientTransform="matrix(1 0 0 -1 0 742)" gradientUnits="userSpaceOnUse">
	<stop  offset="0" style="stop-color:#FFFFFF"/>
	<stop  offset="0.13" style="stop-color:#FFFFFB"/>
	<stop  offset="0.26" style="stop-color:#FFFFEE"/>
	<stop  offset="0.39" style="stop-color:#FFFFDA"/>
	<stop  offset="0.53" style="stop-color:#FFFFBD"/>
	<stop  offset="0.66" style="stop-color:#FFFF98"/>
	<stop  offset="0.7" style="stop-color:#FFFF8C"/>
	<stop  offset="1" style="stop-color:#FFC728"/>
</radialGradient>
<circle class="st44" cx="125.2" cy="320.1" r="8.4"/>
<radialGradient id="SVGID_12_" cx="79.6909" cy="386.396" r="8.37" gradientTransform="matrix(1 0 0 -1 -4.422469e-03 741.9938)" gradientUnits="userSpaceOnUse">
	<stop  offset="0" style="stop-color:#FFFFFF"/>
	<stop  offset="0.13" style="stop-color:#FFFFFB"/>
	<stop  offset="0.26" style="stop-color:#FFFFEE"/>
	<stop  offset="0.39" style="stop-color:#FFFFDA"/>
	<stop  offset="0.53" style="stop-color:#FFFFBD"/>
	<stop  offset="0.66" style="stop-color:#FFFF98"/>
	<stop  offset="0.7" style="stop-color:#FFFF8C"/>
	<stop  offset="1" style="stop-color:#FFC728"/>
</radialGradient>
<circle class="st45" cx="79.7" cy="355.6" r="8.4"/>
<radialGradient id="SVGID_13_" cx="42.69" cy="339.0536" r="8.3682" gradientTransform="matrix(1 0 0 -1 -2.026072e-02 741.9869)" gradientUnits="userSpaceOnUse">
	<stop  offset="0" style="stop-color:#FFFFFF"/>
	<stop  offset="0.13" style="stop-color:#FFFFFB"/>
	<stop  offset="0.26" style="stop-color:#FFFFEE"/>
	<stop  offset="0.39" style="stop-color:#FFFFDA"/>
	<stop  offset="0.53" style="stop-color:#FFFFBD"/>
	<stop  offset="0.66" style="stop-color:#FFFF98"/>
	<stop  offset="0.7" style="stop-color:#FFFF8C"/>
	<stop  offset="1" style="stop-color:#FFC728"/>
</radialGradient>
<circle class="st46" cx="42.7" cy="402.9" r="8.4"/>
<radialGradient id="SVGID_14_" cx="18.69" cy="271.71" r="8.37" gradientTransform="matrix(1 0 0 -1 0 742)" gradientUnits="userSpaceOnUse">
	<stop  offset="0" style="stop-color:#FFFFFF"/>
	<stop  offset="0.13" style="stop-color:#FFFFFB"/>
	<stop  offset="0.26" style="stop-color:#FFFFEE"/>
	<stop  offset="0.39" style="stop-color:#FFFFDA"/>
	<stop  offset="0.53" style="stop-color:#FFFFBD"/>
	<stop  offset="0.66" style="stop-color:#FFFF98"/>
	<stop  offset="0.7" style="stop-color:#FFFF8C"/>
	<stop  offset="1" style="stop-color:#FFC728"/>
</radialGradient>
<circle class="st47" cx="18.7" cy="470.3" r="8.4"/>
<radialGradient id="SVGID_15_" cx="16.6877" cy="205.3625" r="8.37" gradientTransform="matrix(1 0 0 -1 5.669232e-03 742.0027)" gradientUnits="userSpaceOnUse">
	<stop  offset="0" style="stop-color:#FFFFFF"/>
	<stop  offset="0.13" style="stop-color:#FFFFFB"/>
	<stop  offset="0.26" style="stop-color:#FFFFEE"/>
	<stop  offset="0.39" style="stop-color:#FFFFDA"/>
	<stop  offset="0.53" style="stop-color:#FFFFBD"/>
	<stop  offset="0.66" style="stop-color:#FFFF98"/>
	<stop  offset="0.7" style="stop-color:#FFFF8C"/>
	<stop  offset="1" style="stop-color:#FFC728"/>
</radialGradient>
<circle class="st48" cx="16.7" cy="536.6" r="8.4"/>
<radialGradient id="SVGID_16_" cx="34.69" cy="147.01" r="8.37" gradientTransform="matrix(1 0 0 -1 0 742)" gradientUnits="userSpaceOnUse">
	<stop  offset="0" style="stop-color:#FFFFFF"/>
	<stop  offset="0.13" style="stop-color:#FFFFFB"/>
	<stop  offset="0.26" style="stop-color:#FFFFEE"/>
	<stop  offset="0.39" style="stop-color:#FFFFDA"/>
	<stop  offset="0.53" style="stop-color:#FFFFBD"/>
	<stop  offset="0.66" style="stop-color:#FFFF98"/>
	<stop  offset="0.7" style="stop-color:#FFFF8C"/>
	<stop  offset="1" style="stop-color:#FFC728"/>
</radialGradient>
<circle class="st49" cx="34.7" cy="595" r="8.4"/>
<radialGradient id="SVGID_17_" cx="62.67" cy="100.0086" r="8.3657" gradientTransform="matrix(1 0 0 -1 -2.666311e-02 741.9783)" gradientUnits="userSpaceOnUse">
	<stop  offset="0" style="stop-color:#FFFFFF"/>
	<stop  offset="0.13" style="stop-color:#FFFFFB"/>
	<stop  offset="0.26" style="stop-color:#FFFFEE"/>
	<stop  offset="0.39" style="stop-color:#FFFFDA"/>
	<stop  offset="0.53" style="stop-color:#FFFFBD"/>
	<stop  offset="0.66" style="stop-color:#FFFF98"/>
	<stop  offset="0.7" style="stop-color:#FFFF8C"/>
	<stop  offset="1" style="stop-color:#FFC728"/>
</radialGradient>
<circle class="st50" cx="62.7" cy="642" r="8.4"/>
<radialGradient id="SVGID_18_" cx="116.0206" cy="52.0066" r="8.3722" gradientTransform="matrix(1 0 0 -1 -5.413041e-04 742.0045)" gradientUnits="userSpaceOnUse">
	<stop  offset="0" style="stop-color:#FFFFFF"/>
	<stop  offset="0.13" style="stop-color:#FFFFFB"/>
	<stop  offset="0.26" style="stop-color:#FFFFEE"/>
	<stop  offset="0.39" style="stop-color:#FFFFDA"/>
	<stop  offset="0.53" style="stop-color:#FFFFBD"/>
	<stop  offset="0.66" style="stop-color:#FFFF98"/>
	<stop  offset="0.7" style="stop-color:#FFFF8C"/>
	<stop  offset="1" style="stop-color:#FFC728"/>
</radialGradient>
<circle class="st51" cx="116" cy="690" r="8.4"/>
<radialGradient id="SVGID_19_" cx="178.36" cy="26.0036" r="8.3682" gradientTransform="matrix(1 0 0 -1 -3.445033e-02 741.9655)" gradientUnits="userSpaceOnUse">
	<stop  offset="0" style="stop-color:#FFFFFF"/>
	<stop  offset="0.13" style="stop-color:#FFFFFB"/>
	<stop  offset="0.26" style="stop-color:#FFFFEE"/>
	<stop  offset="0.39" style="stop-color:#FFFFDA"/>
	<stop  offset="0.53" style="stop-color:#FFFFBD"/>
	<stop  offset="0.66" style="stop-color:#FFFF98"/>
	<stop  offset="0.7" style="stop-color:#FFFF8C"/>
	<stop  offset="1" style="stop-color:#FFC728"/>
</radialGradient>
<circle class="st52" cx="178.4" cy="716" r="8.4"/>
<radialGradient id="SVGID_20_" cx="245.7109" cy="20.0006" r="8.3722" gradientTransform="matrix(1 0 0 -1 3.016060e-03 742.0024)" gradientUnits="userSpaceOnUse">
	<stop  offset="0" style="stop-color:#FFFFFF"/>
	<stop  offset="0.13" style="stop-color:#FFFFFB"/>
	<stop  offset="0.26" style="stop-color:#FFFFEE"/>
	<stop  offset="0.39" style="stop-color:#FFFFDA"/>
	<stop  offset="0.53" style="stop-color:#FFFFBD"/>
	<stop  offset="0.66" style="stop-color:#FFFF98"/>
	<stop  offset="0.7" style="stop-color:#FFFF8C"/>
	<stop  offset="1" style="stop-color:#FFC728"/>
</radialGradient>
<circle class="st53" cx="245.7" cy="722" r="8.4"/>
<radialGradient id="SVGID_21_" cx="313.0645" cy="20.0016" r="8.37" gradientTransform="matrix(1 0 0 -1 -6.535320e-03 741.9958)" gradientUnits="userSpaceOnUse">
	<stop  offset="0" style="stop-color:#FFFFFF"/>
	<stop  offset="0.13" style="stop-color:#FFFFFB"/>
	<stop  offset="0.26" style="stop-color:#FFFFEE"/>
	<stop  offset="0.39" style="stop-color:#FFFFDA"/>
	<stop  offset="0.53" style="stop-color:#FFFFBD"/>
	<stop  offset="0.66" style="stop-color:#FFFF98"/>
	<stop  offset="0.7" style="stop-color:#FFFF8C"/>
	<stop  offset="1" style="stop-color:#FFC728"/>
</radialGradient>
<circle class="st54" cx="313.1" cy="722" r="8.4"/>
<radialGradient id="SVGID_22_" cx="380.4057" cy="19.9957" r="8.3722" gradientTransform="matrix(1 0 0 -1 -4.550808e-03 741.9939)" gradientUnits="userSpaceOnUse">
	<stop  offset="0" style="stop-color:#FFFFFF"/>
	<stop  offset="0.13" style="stop-color:#FFFFFB"/>
	<stop  offset="0.26" style="stop-color:#FFFFEE"/>
	<stop  offset="0.39" style="stop-color:#FFFFDA"/>
	<stop  offset="0.53" style="stop-color:#FFFFBD"/>
	<stop  offset="0.66" style="stop-color:#FFFF98"/>
	<stop  offset="0.7" style="stop-color:#FFFF8C"/>
	<stop  offset="1" style="stop-color:#FFC728"/>
</radialGradient>
<circle class="st55" cx="380.4" cy="722" r="8.4"/>
<radialGradient id="SVGID_23_" cx="447.7542" cy="20.0016" r="8.37" gradientTransform="matrix(1 0 0 -1 -6.031484e-03 741.9956)" gradientUnits="userSpaceOnUse">
	<stop  offset="0" style="stop-color:#FFFFFF"/>
	<stop  offset="0.13" style="stop-color:#FFFFFB"/>
	<stop  offset="0.26" style="stop-color:#FFFFEE"/>
	<stop  offset="0.39" style="stop-color:#FFFFDA"/>
	<stop  offset="0.53" style="stop-color:#FFFFBD"/>
	<stop  offset="0.66" style="stop-color:#FFFF98"/>
	<stop  offset="0.7" style="stop-color:#FFFF8C"/>
	<stop  offset="1" style="stop-color:#FFC728"/>
</radialGradient>
<circle class="st56" cx="447.7" cy="722" r="8.4"/>
<radialGradient id="SVGID_24_" cx="515.1" cy="20" r="8.37" gradientTransform="matrix(1 0 0 -1 -4.532002e-02 741.9879)" gradientUnits="userSpaceOnUse">
	<stop  offset="0" style="stop-color:#FFFFFF"/>
	<stop  offset="0.13" style="stop-color:#FFFFFB"/>
	<stop  offset="0.26" style="stop-color:#FFFFEE"/>
	<stop  offset="0.39" style="stop-color:#FFFFDA"/>
	<stop  offset="0.53" style="stop-color:#FFFFBD"/>
	<stop  offset="0.66" style="stop-color:#FFFF98"/>
	<stop  offset="0.7" style="stop-color:#FFFF8C"/>
	<stop  offset="1" style="stop-color:#FFC728"/>
</radialGradient>
<circle class="st57" cx="515.1" cy="722" r="8.4"/>
<radialGradient id="SVGID_25_" cx="582.4423" cy="20.0023" r="8.3722" gradientTransform="matrix(1 0 0 -1 -5.417190e-04 742.0031)" gradientUnits="userSpaceOnUse">
	<stop  offset="0" style="stop-color:#FFFFFF"/>
	<stop  offset="0.13" style="stop-color:#FFFFFB"/>
	<stop  offset="0.26" style="stop-color:#FFFFEE"/>
	<stop  offset="0.39" style="stop-color:#FFFFDA"/>
	<stop  offset="0.53" style="stop-color:#FFFFBD"/>
	<stop  offset="0.66" style="stop-color:#FFFF98"/>
	<stop  offset="0.7" style="stop-color:#FFFF8C"/>
	<stop  offset="1" style="stop-color:#FFC728"/>
</radialGradient>
<circle class="st58" cx="582.4" cy="722" r="8.4"/>
<radialGradient id="SVGID_26_" cx="645.79" cy="46" r="8.37" gradientTransform="matrix(1 0 0 -1 -5.732757e-02 741.9928)" gradientUnits="userSpaceOnUse">
	<stop  offset="0" style="stop-color:#FFFFFF"/>
	<stop  offset="0.13" style="stop-color:#FFFFFB"/>
	<stop  offset="0.26" style="stop-color:#FFFFEE"/>
	<stop  offset="0.39" style="stop-color:#FFFFDA"/>
	<stop  offset="0.53" style="stop-color:#FFFFBD"/>
	<stop  offset="0.66" style="stop-color:#FFFF98"/>
	<stop  offset="0.7" style="stop-color:#FFFF8C"/>
	<stop  offset="1" style="stop-color:#FFC728"/>
</radialGradient>
<circle class="st59" cx="645.8" cy="696" r="8.4"/>
<radialGradient id="SVGID_27_" cx="689.3089" cy="78.4722" r="8.37" gradientTransform="matrix(1 0 0 -1 3.428142e-03 742.003)" gradientUnits="userSpaceOnUse">
	<stop  offset="0" style="stop-color:#FFFFFF"/>
	<stop  offset="0.13" style="stop-color:#FFFFFB"/>
	<stop  offset="0.26" style="stop-color:#FFFFEE"/>
	<stop  offset="0.39" style="stop-color:#FFFFDA"/>
	<stop  offset="0.53" style="stop-color:#FFFFBD"/>
	<stop  offset="0.66" style="stop-color:#FFFF98"/>
	<stop  offset="0.7" style="stop-color:#FFFF8C"/>
	<stop  offset="1" style="stop-color:#FFC728"/>
</radialGradient>
<circle class="st60" cx="689.3" cy="663.5" r="8.4"/>
<radialGradient id="SVGID_28_" cx="726.31" cy="127.82" r="8.37" gradientTransform="matrix(1 0 0 -1 0 742)" gradientUnits="userSpaceOnUse">
	<stop  offset="0" style="stop-color:#FFFFFF"/>
	<stop  offset="0.13" style="stop-color:#FFFFFB"/>
	<stop  offset="0.26" style="stop-color:#FFFFEE"/>
	<stop  offset="0.39" style="stop-color:#FFFFDA"/>
	<stop  offset="0.53" style="stop-color:#FFFFBD"/>
	<stop  offset="0.66" style="stop-color:#FFFF98"/>
	<stop  offset="0.7" style="stop-color:#FFFF8C"/>
	<stop  offset="1" style="stop-color:#FFC728"/>
</radialGradient>
<circle class="st61" cx="726.3" cy="614.2" r="8.4"/>
<radialGradient id="SVGID_29_" cx="751.308" cy="195.1731" r="8.37" gradientTransform="matrix(1 0 0 -1 -4.445244e-03 742.0039)" gradientUnits="userSpaceOnUse">
	<stop  offset="0" style="stop-color:#FFFFFF"/>
	<stop  offset="0.13" style="stop-color:#FFFFFB"/>
	<stop  offset="0.26" style="stop-color:#FFFFEE"/>
	<stop  offset="0.39" style="stop-color:#FFFFDA"/>
	<stop  offset="0.53" style="stop-color:#FFFFBD"/>
	<stop  offset="0.66" style="stop-color:#FFFF98"/>
	<stop  offset="0.7" style="stop-color:#FFFF8C"/>
	<stop  offset="1" style="stop-color:#FFC728"/>
</radialGradient>
<circle class="st62" cx="751.3" cy="546.8" r="8.4"/>
<radialGradient id="SVGID_30_" cx="753.31" cy="260.51" r="8.37" gradientTransform="matrix(1 0 0 -1 -4.302106e-02 742.0054)" gradientUnits="userSpaceOnUse">
	<stop  offset="0" style="stop-color:#FFFFFF"/>
	<stop  offset="0.13" style="stop-color:#FFFFFB"/>
	<stop  offset="0.26" style="stop-color:#FFFFEE"/>
	<stop  offset="0.39" style="stop-color:#FFFFDA"/>
	<stop  offset="0.53" style="stop-color:#FFFFBD"/>
	<stop  offset="0.66" style="stop-color:#FFFF98"/>
	<stop  offset="0.7" style="stop-color:#FFFF8C"/>
	<stop  offset="1" style="stop-color:#FFC728"/>
</radialGradient>
<circle class="st63" cx="753.3" cy="481.5" r="8.4"/>
<radialGradient id="SVGID_31_" cx="736.31" cy="319.86" r="8.37" gradientTransform="matrix(1 0 0 -1 0 742)" gradientUnits="userSpaceOnUse">
	<stop  offset="0" style="stop-color:#FFFFFF"/>
	<stop  offset="0.13" style="stop-color:#FFFFFB"/>
	<stop  offset="0.26" style="stop-color:#FFFFEE"/>
	<stop  offset="0.39" style="stop-color:#FFFFDA"/>
	<stop  offset="0.53" style="stop-color:#FFFFBD"/>
	<stop  offset="0.66" style="stop-color:#FFFF98"/>
	<stop  offset="0.7" style="stop-color:#FFFF8C"/>
	<stop  offset="1" style="stop-color:#FFC728"/>
</radialGradient>
<circle class="st64" cx="736.3" cy="422.1" r="8.4"/>
<radialGradient id="SVGID_32_" cx="705.33" cy="370.87" r="8.37" gradientTransform="matrix(1 0 0 -1 0 742)" gradientUnits="userSpaceOnUse">
	<stop  offset="0" style="stop-color:#FFFFFF"/>
	<stop  offset="0.13" style="stop-color:#FFFFFB"/>
	<stop  offset="0.26" style="stop-color:#FFFFEE"/>
	<stop  offset="0.39" style="stop-color:#FFFFDA"/>
	<stop  offset="0.53" style="stop-color:#FFFFBD"/>
	<stop  offset="0.66" style="stop-color:#FFFF98"/>
	<stop  offset="0.7" style="stop-color:#FFFF8C"/>
	<stop  offset="1" style="stop-color:#FFC728"/>
</radialGradient>
<circle class="st65" cx="705.3" cy="371.1" r="8.4"/>
<radialGradient id="SVGID_33_" cx="658.98" cy="412.87" r="8.37" gradientTransform="matrix(1 0 0 -1 0 742)" gradientUnits="userSpaceOnUse">
	<stop  offset="0" style="stop-color:#FFFFFF"/>
	<stop  offset="0.13" style="stop-color:#FFFFFB"/>
	<stop  offset="0.26" style="stop-color:#FFFFEE"/>
	<stop  offset="0.39" style="stop-color:#FFFFDA"/>
	<stop  offset="0.53" style="stop-color:#FFFFBD"/>
	<stop  offset="0.66" style="stop-color:#FFFF98"/>
	<stop  offset="0.7" style="stop-color:#FFFF8C"/>
	<stop  offset="1" style="stop-color:#FFC728"/>
</radialGradient>
<circle class="st66" cx="659" cy="329.1" r="8.4"/>
<radialGradient id="SVGID_34_" cx="591.64" cy="441.87" r="8.37" gradientTransform="matrix(1 0 0 -1 0 742)" gradientUnits="userSpaceOnUse">
	<stop  offset="0" style="stop-color:#FFFFFF"/>
	<stop  offset="0.13" style="stop-color:#FFFFFB"/>
	<stop  offset="0.26" style="stop-color:#FFFFEE"/>
	<stop  offset="0.39" style="stop-color:#FFFFDA"/>
	<stop  offset="0.53" style="stop-color:#FFFFBD"/>
	<stop  offset="0.66" style="stop-color:#FFFF98"/>
	<stop  offset="0.7" style="stop-color:#FFFF8C"/>
	<stop  offset="1" style="stop-color:#FFC728"/>
</radialGradient>
<circle class="st67" cx="591.6" cy="300.1" r="8.4"/>
<radialGradient id="SVGID_35_" cx="524.29" cy="446.87" r="8.37" gradientTransform="matrix(1 0 0 -1 0 742)" gradientUnits="userSpaceOnUse">
	<stop  offset="0" style="stop-color:#FFFFFF"/>
	<stop  offset="0.13" style="stop-color:#FFFFFB"/>
	<stop  offset="0.26" style="stop-color:#FFFFEE"/>
	<stop  offset="0.39" style="stop-color:#FFFFDA"/>
	<stop  offset="0.53" style="stop-color:#FFFFBD"/>
	<stop  offset="0.66" style="stop-color:#FFFF98"/>
	<stop  offset="0.7" style="stop-color:#FFFF8C"/>
	<stop  offset="1" style="stop-color:#FFC728"/>
</radialGradient>
<circle class="st68" cx="524.3" cy="295.1" r="8.4"/>
<radialGradient id="SVGID_36_" cx="456.94" cy="446.87" r="8.37" gradientTransform="matrix(1 0 0 -1 0 742)" gradientUnits="userSpaceOnUse">
	<stop  offset="0" style="stop-color:#FFFFFF"/>
	<stop  offset="0.13" style="stop-color:#FFFFFB"/>
	<stop  offset="0.26" style="stop-color:#FFFFEE"/>
	<stop  offset="0.39" style="stop-color:#FFFFDA"/>
	<stop  offset="0.53" style="stop-color:#FFFFBD"/>
	<stop  offset="0.66" style="stop-color:#FFFF98"/>
	<stop  offset="0.7" style="stop-color:#FFFF8C"/>
	<stop  offset="1" style="stop-color:#FFC728"/>
</radialGradient>
<circle class="st69" cx="456.9" cy="295.1" r="8.4"/>
</svg>
