<?xml version="1.0" encoding="utf-8"?>
<!-- Generator: Adobe Illustrator 25.2.3, SVG Export Plug-In . SVG Version: 6.00 Build 0)  -->
<svg version="1.1" id="Layer_1" xmlns="http://www.w3.org/2000/svg" xmlns:xlink="http://www.w3.org/1999/xlink" x="0px" y="0px"
	 viewBox="0 0 780 770" style="enable-background:new 0 0 780 770;" xml:space="preserve">
<style type="text/css">
	.st0{fill:#7C5438;}
	.st1{opacity:0.5;}
	.st2{fill:#CE9F38;}
	.st3{fill:#E5AE41;}
	.st4{opacity:0.5;fill:#CE9F38;enable-background:new    ;}
	.st5{opacity:0.4;fill:#CE9F38;enable-background:new    ;}
	.st6{fill:#FFE3C7;}
	.st7{fill:url(#SVGID_1_);}
	.st8{fill:#C77B4B;}
	.st9{fill:#F0D9AA;}
	.st10{clip-path:url(#SVGID_3_);}
	.st11{clip-path:url(#SVGID_5_);}
	.st12{fill:url(#SVGID_6_);}
	.st13{fill:#8FD6F3;}
	.st14{fill:url(#SVGID_7_);}
	.st15{fill:url(#SVGID_8_);}
	.st16{fill:url(#SVGID_9_);}
	.st17{fill:url(#SVGID_10_);}
	.st18{fill:url(#SVGID_11_);}
	.st19{fill:url(#SVGID_12_);}
	.st20{opacity:0.2;fill:url(#SVGID_13_);enable-background:new    ;}
	.st21{fill:url(#SVGID_14_);}
	.st22{opacity:0.1;fill:#0F5A2A;enable-background:new    ;}
	.st23{opacity:0.2;fill:url(#SVGID_15_);enable-background:new    ;}
	.st24{opacity:0.2;fill:url(#SVGID_16_);enable-background:new    ;}
	.st25{fill:url(#SVGID_17_);}
	.st26{opacity:0.44;fill:#E5F0C8;enable-background:new    ;}
	.st27{opacity:0.3;fill:#E5F0C8;enable-background:new    ;}
	.st28{opacity:0.6;fill:#E6A143;enable-background:new    ;}
	.st29{fill:url(#SVGID_18_);}
	.st30{opacity:0.4;fill:#7FCEF4;enable-background:new    ;}
	.st31{opacity:0.6;fill:url(#SVGID_19_);enable-background:new    ;}
	.st32{fill:#9C673E;}
	.st33{opacity:0.8;fill:#9C673E;enable-background:new    ;}
	.st34{opacity:0.3;fill:url(#SVGID_20_);enable-background:new    ;}
	.st35{opacity:0.6;fill:url(#SVGID_21_);enable-background:new    ;}
	.st36{opacity:0.6;fill:url(#SVGID_22_);enable-background:new    ;}
	.st37{opacity:0.6;fill:url(#SVGID_23_);enable-background:new    ;}
	.st38{opacity:0.2;fill:#5E4752;enable-background:new    ;}
	.st39{fill:#AD7D61;}
	.st40{fill:url(#SVGID_24_);}
	.st41{opacity:0.3;fill:url(#SVGID_25_);enable-background:new    ;}
	.st42{opacity:0.3;fill:url(#SVGID_26_);enable-background:new    ;}
	.st43{opacity:0.4;fill:url(#SVGID_27_);enable-background:new    ;}
	.st44{fill:url(#SVGID_28_);}
	.st45{fill:url(#SVGID_29_);}
	.st46{opacity:0.75;fill:#C28A73;enable-background:new    ;}
	.st47{fill:#754D32;}
	.st48{fill:#3BEAA2;}
	.st49{fill:url(#SVGID_30_);}
	.st50{fill:url(#SVGID_31_);}
	.st51{fill:url(#SVGID_32_);}
	.st52{fill:url(#SVGID_33_);}
	.st53{fill:#CE856B;}
	.st54{fill:url(#SVGID_34_);}
	.st55{fill:url(#SVGID_35_);}
	.st56{fill:#024E20;}
	.st57{fill:#032616;}
	.st58{fill:url(#SVGID_36_);}
	.st59{fill:url(#SVGID_37_);}
	.st60{fill:url(#SVGID_38_);}
	.st61{fill:url(#SVGID_39_);}
	.st62{fill:url(#SVGID_40_);}
	.st63{fill:url(#SVGID_41_);}
	.st64{fill:url(#SVGID_42_);}
	.st65{fill:url(#SVGID_43_);}
	.st66{fill:url(#SVGID_44_);}
	.st67{fill:url(#SVGID_45_);}
	.st68{fill:url(#SVGID_46_);}
	.st69{fill:url(#SVGID_47_);}
	.st70{fill:url(#SVGID_48_);}
	.st71{fill:url(#SVGID_49_);}
	.st72{fill:url(#SVGID_50_);}
	.st73{fill:url(#SVGID_51_);}
	.st74{fill:url(#SVGID_52_);}
	.st75{fill:url(#SVGID_53_);}
	.st76{fill:url(#SVGID_54_);}
	.st77{fill:url(#SVGID_55_);}
	.st78{fill:url(#SVGID_56_);}
	.st79{fill:url(#SVGID_57_);}
	.st80{fill:url(#SVGID_58_);}
	.st81{fill:url(#SVGID_59_);}
	.st82{fill:url(#SVGID_60_);}
	.st83{fill:url(#SVGID_61_);}
	.st84{fill:url(#SVGID_62_);}
	.st85{fill:url(#SVGID_63_);}
	.st86{fill:url(#SVGID_64_);}
	.st87{fill:url(#SVGID_65_);}
	.st88{fill:url(#SVGID_66_);}
	.st89{fill:url(#SVGID_67_);}
	.st90{fill:url(#SVGID_68_);}
	.st91{fill:url(#SVGID_69_);}
	.st92{fill:url(#SVGID_70_);}
</style>
<path class="st0" d="M649.2,297.3c-9.9,0-17.9-8-17.9-17.8s8-17.9,17.8-17.9c9.9,0,17.9,8,17.9,17.8c0,0,0,0,0,0
	C667,289.3,659,297.3,649.2,297.3z M649.2,267.3c-6.7,0-12.1,5.4-12.1,12.1s5.4,12.1,12.1,12.1s12.1-5.4,12.1-12.1c0,0,0,0,0,0
	C661.2,272.8,655.8,267.4,649.2,267.3L649.2,267.3z"/>
<g class="st1">
	<path class="st2" d="M649.3,295.4c-8.9,0-16.1-7.2-16.1-16.1c0-8.9,7.2-16.1,16.1-16.1c8.9,0,16.1,7.2,16.1,16.1c0,0,0,0,0,0
		C665.5,288.2,658.2,295.4,649.3,295.4z M649.3,265.1c-7.9,0-14.2,6.4-14.2,14.2s6.4,14.2,14.2,14.2c7.9,0,14.2-6.4,14.2-14.2
		c0,0,0,0,0,0C663.5,271.4,657.2,265.1,649.3,265.1z"/>
</g>
<path class="st3" d="M642.7,265.7c-0.8-0.2-1.7-0.1-2.5,0.4l-1,0.6c-1.4,2.2-3.6,3.6-4.8,6.1c-0.6,1.3-1,2.8-1.2,4.2
	c-0.2,1.6,0.2,3.7,1.6,1.7s1.3-5.6,2.8-7.8C638.8,269.3,643,267.4,642.7,265.7z"/>
<path class="st3" d="M664.3,281.3c-1.4-0.3-2.5,5.8-3.6,7.2c-2.1,2.7-4.4,3.6-7.4,4.4l-0.6,0.2c-1.5,0-1.3,1.1,0,1.3
	c1-0.1,1.9-0.4,2.8-0.8c1.7-0.7,3.2-1.7,4.5-3C662.2,288.6,665.6,284.6,664.3,281.3z"/>
<rect x="645.6" y="296.5" class="st0" width="7.1" height="13.9"/>
<polygon class="st4" points="646.6,298.3 646.7,309.9 649.6,310.4 649.1,299.9 "/>
<path class="st0" d="M648.1,255.2c-8.8,0-15.9-7.1-15.9-15.9s7.1-15.9,15.9-15.9s15.9,7.1,15.9,15.9
	C664,248.1,656.9,255.2,648.1,255.2z M648.1,228.5c-6,0-10.8,4.8-10.8,10.8c0,6,4.8,10.8,10.8,10.8c6,0,10.8-4.8,10.8-10.8
	c0,0,0,0,0,0C658.9,233.4,654.1,228.5,648.1,228.5L648.1,228.5z"/>
<g class="st1">
	<path class="st2" d="M648.3,253.5c-7.9,0-14.4-6.4-14.4-14.4s6.4-14.4,14.4-14.4c7.9,0,14.4,6.4,14.4,14.4c0,0,0,0,0,0
		C662.6,247.1,656.2,253.5,648.3,253.5z M648.3,226.5c-7,0-12.6,5.7-12.6,12.7c0,7,5.7,12.6,12.7,12.6c7,0,12.6-5.7,12.6-12.7
		C661,232.2,655.3,226.5,648.3,226.5C648.3,226.5,648.3,226.5,648.3,226.5L648.3,226.5z"/>
</g>
<path class="st3" d="M642.4,227c-0.7-0.2-1.5-0.1-2.2,0.3l-0.8,0.5c-1.3,1.9-3.2,3.2-4.3,5.4c-0.5,1.2-0.9,2.5-1,3.8
	c-0.2,1.4,0.1,3.3,1.4,1.5s1.1-4.9,2.5-7C638.8,230.3,642.7,228.5,642.4,227z"/>
<path class="st3" d="M661.6,241c-1.3-0.3-2.2,5.1-3.2,6.4c-1.9,2.4-3.9,3.2-6.6,3.9l-0.5,0.2c-1.3,0.1-1.2,1,0,1.2
	c0.9-0.1,1.7-0.3,2.5-0.7c1.5-0.6,2.8-1.5,4-2.6C659.7,247.5,662.8,243.9,661.6,241z"/>
<path class="st0" d="M652.6,269.9c0,1.4-1.6,2.6-3.5,2.6l0,0c-2,0-3.5-1.2-3.5-2.6v-22.1c0-1.4,1.6-2.6,3.5-2.6l0,0
	c2,0,3.5,1.2,3.5,2.6V269.9z"/>
<path class="st5" d="M650.6,263.3c-0.1,1-1,1.8-2,1.8l0,0c-1,0.1-1.9-0.7-2-1.8v-15.1c0.1-1,1-1.8,2-1.8l0,0c1-0.1,1.9,0.7,2,1.8
	V263.3z"/>
<path class="st3" d="M648.5,254.6c-0.3-2.1,0.7-4,0.4-6c-0.3-0.1-0.6-0.2-0.9-0.3h-0.1c-1.3,1.3-0.2,4.4-0.3,6.1
	c0,0.9-1.1,5.4,0.5,5.3S648.6,255.4,648.5,254.6z"/>
<path class="st0" d="M648.3,212.1c-8.8,0-15.9-7.1-15.9-15.9s7.1-15.9,15.9-15.9s15.9,7.1,15.9,15.9c0,0,0,0,0,0
	C664.2,205,657.1,212.1,648.3,212.1z M648.3,185.4c-6,0-10.8,4.8-10.8,10.8s4.8,10.8,10.8,10.8c6,0,10.8-4.8,10.8-10.8c0,0,0,0,0,0
	C659.1,190.2,654.2,185.4,648.3,185.4z"/>
<g class="st1">
	<path class="st2" d="M648.5,210.4c-7.9,0-14.4-6.4-14.4-14.4s6.4-14.4,14.4-14.4c7.9,0,14.4,6.4,14.4,14.4c0,0,0,0,0,0
		C662.8,203.9,656.4,210.4,648.5,210.4z M648.5,183.4c-7,0-12.7,5.7-12.7,12.7c0,7,5.7,12.7,12.7,12.7c7,0,12.7-5.7,12.7-12.7
		c0,0,0,0,0,0C661.1,189,655.4,183.3,648.5,183.4L648.5,183.4z"/>
</g>
<path class="st3" d="M642.6,183.9c-0.7-0.2-1.5-0.1-2.2,0.3l-0.8,0.5c-1.3,2-3.2,3.2-4.3,5.4c-0.5,1.2-0.9,2.5-1,3.7
	c-0.2,1.4,0.1,3.3,1.4,1.5s1.1-4.9,2.5-7C639,187.1,642.8,185.4,642.6,183.9z"/>
<path class="st3" d="M661.8,197.8c-1.3-0.3-2.2,5.1-3.2,6.4c-1.9,2.4-3.9,3.2-6.6,3.9l-0.5,0.2c-1.3,0-1.2,1,0,1.2
	c0.9-0.1,1.7-0.3,2.5-0.7c1.5-0.6,2.8-1.5,4-2.6C659.9,204.3,662.9,200.8,661.8,197.8z"/>
<path class="st0" d="M652.6,230.2c0,1.4-1.6,2.6-3.5,2.6l0,0c-2,0-3.5-1.2-3.5-2.6v-22.1c0-1.4,1.6-2.6,3.5-2.6l0,0
	c2,0,3.5,1.2,3.5,2.6V230.2z"/>
<path class="st5" d="M650.6,223.5c-0.1,1-1,1.8-2,1.8l0,0c-1,0.1-1.9-0.7-2-1.8v-15.1c0.1-1,1-1.8,2-1.8l0,0c1-0.1,1.9,0.7,2,1.8
	V223.5z"/>
<path class="st3" d="M648.5,214.9c-0.3-2.1,0.7-4,0.4-6c-0.3-0.1-0.6-0.2-0.9-0.3h-0.1c-1.3,1.3-0.2,4.4-0.3,6.1
	c0,0.9-1.1,5.4,0.5,5.4S648.6,215.7,648.5,214.9z"/>
<path class="st0" d="M648.3,167.5c-8.8,0-15.9-7.1-15.9-15.9s7.1-15.9,15.9-15.9s15.9,7.1,15.9,15.9
	C664.2,160.4,657.1,167.5,648.3,167.5z M648.3,140.8c-6,0-10.8,4.8-10.8,10.8c0,6,4.8,10.8,10.8,10.8c6,0,10.8-4.8,10.8-10.8
	c0,0,0,0,0,0C659.1,145.6,654.2,140.8,648.3,140.8z"/>
<g class="st1">
	<path class="st2" d="M648.5,165.8c-7.9,0-14.4-6.4-14.4-14.4s6.4-14.4,14.4-14.4c7.9,0,14.4,6.4,14.4,14.4c0,0,0,0,0,0
		C662.8,159.4,656.4,165.8,648.5,165.8z M648.5,138.8c-7,0-12.7,5.7-12.7,12.7c0,7,5.7,12.7,12.7,12.7c7,0,12.7-5.7,12.7-12.7v0
		C661.1,144.5,655.5,138.8,648.5,138.8C648.5,138.8,648.5,138.8,648.5,138.8L648.5,138.8z"/>
</g>
<path class="st3" d="M642.6,139.3c-0.7-0.2-1.5,0-2.2,0.3l-0.8,0.5c-1.3,2-3.2,3.2-4.3,5.4c-0.5,1.2-0.9,2.5-1,3.8
	c-0.2,1.4,0.1,3.3,1.4,1.5s1.1-5,2.5-7C639,142.6,642.8,140.8,642.6,139.3z"/>
<path class="st3" d="M661.8,153.3c-1.3-0.3-2.2,5.1-3.2,6.4c-1.9,2.4-3.9,3.2-6.6,3.9l-0.5,0.2c-1.3,0-1.2,1,0,1.2
	c0.9-0.1,1.7-0.3,2.5-0.7c1.5-0.6,2.8-1.5,4-2.6C659.9,159.8,662.9,156.2,661.8,153.3z"/>
<path class="st0" d="M652.6,185.6c0,1.4-1.6,2.6-3.5,2.6l0,0c-2,0-3.5-1.2-3.5-2.6v-22.1c0-1.4,1.6-2.6,3.5-2.6l0,0
	c2,0,3.5,1.2,3.5,2.6V185.6z"/>
<path class="st5" d="M650.6,179c-0.1,1-1,1.8-2,1.8l0,0c-1,0.1-1.9-0.7-2-1.8v-15.1c0.1-1,1-1.8,2-1.8l0,0c1-0.1,1.9,0.7,2,1.8V179z
	"/>
<path class="st3" d="M648.5,170.3c-0.3-2.1,0.7-4,0.4-6c-0.3-0.1-0.6-0.2-0.9-0.3h-0.1c-1.3,1.3-0.2,4.4-0.3,6.1
	c0,0.9-1.1,5.4,0.5,5.4S648.6,171.1,648.5,170.3z"/>
<path class="st0" d="M648.3,122.6c-8.8,0-15.9-7.1-15.9-15.9s7.1-15.9,15.9-15.9c8.8,0,15.9,7.1,15.9,15.9
	C664.2,115.4,657.1,122.5,648.3,122.6z M648.3,95.9c-6,0-10.8,4.8-10.8,10.8c0,6,4.8,10.8,10.8,10.8c6,0,10.8-4.8,10.8-10.8v0
	C659.1,100.7,654.2,95.9,648.3,95.9z"/>
<g class="st1">
	<path class="st2" d="M648.5,120.8c-7.9,0-14.4-6.4-14.4-14.4s6.4-14.4,14.4-14.4c7.9,0,14.4,6.4,14.4,14.4l0,0
		C662.8,114.4,656.4,120.8,648.5,120.8z M648.5,93.8c-7,0-12.7,5.7-12.7,12.7c0,7,5.7,12.7,12.7,12.7c7,0,12.7-5.7,12.7-12.7
		c0,0,0,0,0,0C661.1,99.5,655.5,93.8,648.5,93.8C648.5,93.8,648.5,93.8,648.5,93.8L648.5,93.8z"/>
</g>
<path class="st3" d="M642.6,94.3c-0.7-0.2-1.5,0-2.2,0.3l-0.8,0.5c-1.3,2-3.2,3.2-4.3,5.4c-0.5,1.2-0.9,2.5-1,3.8
	c-0.2,1.4,0.1,3.3,1.4,1.5s1.1-4.9,2.5-7C639,97.6,642.8,95.8,642.6,94.3z"/>
<path class="st3" d="M661.8,108.3c-1.3-0.3-2.2,5.2-3.2,6.4c-1.9,2.4-3.9,3.2-6.6,3.9l-0.5,0.2c-1.3,0-1.2,1,0,1.2
	c0.9-0.1,1.7-0.3,2.5-0.7c1.5-0.6,2.8-1.5,4-2.6C659.9,114.8,662.9,111.3,661.8,108.3z"/>
<path class="st0" d="M652.6,140.6c0,1.4-1.6,2.6-3.5,2.6l0,0c-2,0-3.5-1.2-3.5-2.6v-22c0-1.4,1.6-2.6,3.5-2.6l0,0
	c2,0,3.5,1.2,3.5,2.6V140.6z"/>
<path class="st5" d="M650.6,134c-0.1,1-1,1.8-2,1.8l0,0c-1,0.1-1.9-0.7-2-1.8v-15.1c0.1-1,1-1.8,2-1.8l0,0c1-0.1,1.9,0.7,2,1.8V134z
	"/>
<path class="st3" d="M648.5,125.3c-0.3-2.1,0.7-4,0.4-6c-0.3-0.1-0.6-0.2-0.9-0.3h-0.1c-1.3,1.3-0.2,4.4-0.3,6.1
	c0,0.9-1.1,5.4,0.5,5.4S648.6,126.2,648.5,125.3z"/>
<path class="st0" d="M648.3,77.8c-8.8,0-15.9-7.1-15.9-15.9S639.5,46,648.3,46s15.9,7.1,15.9,15.9C664.2,70.7,657.1,77.8,648.3,77.8
	z M648.3,51.1c-6,0-10.8,4.8-10.8,10.8c0,6,4.8,10.8,10.8,10.8c6,0,10.8-4.8,10.8-10.8c0,0,0,0,0,0C659.1,56,654.2,51.1,648.3,51.1z
	"/>
<g class="st1">
	<path class="st2" d="M648.5,76.1c-7.9,0-14.4-6.4-14.4-14.4s6.4-14.4,14.4-14.4c7.9,0,14.4,6.4,14.4,14.4c0,0,0,0,0,0
		C662.8,69.7,656.4,76.1,648.5,76.1z M648.5,49.1c-7,0-12.7,5.7-12.7,12.7c0,7,5.7,12.7,12.7,12.7c7,0,12.7-5.7,12.7-12.7
		c0,0,0,0,0,0C661.1,54.8,655.5,49.1,648.5,49.1C648.5,49.1,648.5,49.1,648.5,49.1L648.5,49.1z"/>
</g>
<path class="st3" d="M642.6,49.6c-0.7-0.2-1.5,0-2.2,0.3l-0.8,0.5c-1.3,2-3.2,3.2-4.3,5.4c-0.5,1.2-0.9,2.5-1,3.8
	c-0.2,1.4,0.1,3.3,1.4,1.5s1.1-5,2.5-7C639,52.9,642.8,51.1,642.6,49.6z"/>
<path class="st3" d="M661.8,63.6c-1.3-0.3-2.2,5.2-3.2,6.4c-1.9,2.4-3.9,3.2-6.6,3.9l-0.5,0.2c-1.3,0.1-1.2,1,0,1.2
	c0.9-0.1,1.7-0.3,2.5-0.7c1.5-0.6,2.8-1.5,4-2.6C659.9,70.1,662.9,66.5,661.8,63.6z"/>
<path class="st0" d="M652.6,95.9c0,1.4-1.6,2.6-3.5,2.6l0,0c-2,0-3.5-1.2-3.5-2.6v-22c0-1.4,1.6-2.6,3.5-2.6l0,0
	c2,0,3.5,1.2,3.5,2.6V95.9z"/>
<path class="st5" d="M650.6,89.3c-0.1,1-1,1.8-2,1.8l0,0c-1,0.1-1.9-0.7-2-1.8V74.2c0.1-1,1-1.8,2-1.8l0,0c1-0.1,1.9,0.7,2,1.8V89.3
	z"/>
<path class="st3" d="M648.5,80.6c-0.3-2.1,0.7-4,0.4-6c-0.3-0.1-0.6-0.2-0.9-0.3h-0.1c-1.3,1.3-0.2,4.4-0.3,6.1
	c0,0.9-1.1,5.3,0.5,5.3S648.6,81.5,648.5,80.6z"/>
<path class="st0" d="M648.3,35.4c-8.8,0-15.9-7.1-15.9-15.9s7.1-15.9,15.9-15.9s15.9,7.1,15.9,15.9
	C664.2,28.3,657.1,35.4,648.3,35.4z M648.3,8.7c-6,0-10.8,4.8-10.8,10.8c0,6,4.8,10.8,10.8,10.8c6,0,10.8-4.8,10.8-10.8c0,0,0,0,0,0
	C659.1,13.6,654.2,8.7,648.3,8.7z"/>
<g class="st1">
	<path class="st2" d="M648.5,33.7c-7.9,0-14.4-6.4-14.4-14.4S640.5,5,648.5,5c7.9,0,14.4,6.4,14.4,14.4c0,0,0,0,0,0
		C662.8,27.3,656.4,33.7,648.5,33.7z M648.5,6.7c-7,0-12.7,5.7-12.7,12.7c0,7,5.7,12.7,12.7,12.7c7,0,12.7-5.7,12.7-12.7
		c0,0,0,0,0,0C661.1,12.4,655.5,6.7,648.5,6.7C648.5,6.7,648.5,6.7,648.5,6.7L648.5,6.7z"/>
</g>
<path class="st3" d="M642.6,7.2c-0.7-0.2-1.5-0.1-2.2,0.3L639.5,8c-1.3,2-3.2,3.2-4.3,5.4c-0.5,1.2-0.9,2.5-1,3.8
	c-0.2,1.4,0.1,3.3,1.4,1.5s1.1-4.9,2.5-7C639,10.5,642.8,8.7,642.6,7.2z"/>
<path class="st3" d="M661.8,21.2c-1.3-0.3-2.2,5.1-3.2,6.4c-1.9,2.4-3.9,3.2-6.6,3.9l-0.5,0.2c-1.3,0-1.2,1,0,1.2
	c0.9-0.1,1.7-0.3,2.5-0.7c1.5-0.6,2.8-1.5,4-2.6C659.9,27.7,662.9,24.1,661.8,21.2z"/>
<path class="st0" d="M652.6,53.5c0,1.4-1.6,2.6-3.5,2.6l0,0c-2,0-3.5-1.2-3.5-2.6V31.5c0-1.4,1.6-2.6,3.5-2.6l0,0
	c2,0,3.5,1.2,3.5,2.6V53.5z"/>
<path class="st5" d="M650.6,46.9c-0.1,1-1,1.8-2,1.8l0,0c-1,0.1-1.9-0.7-2-1.8V31.8c0.1-1,1-1.8,2-1.8l0,0c1-0.1,1.9,0.7,2,1.8V46.9
	z"/>
<path class="st3" d="M648.5,38.2c-0.3-2.1,0.7-4,0.4-6c-0.3-0.1-0.5-0.2-0.8-0.2h-0.1c-1.3,1.3-0.2,4.4-0.3,6.1
	c0,0.9-1.1,5.3,0.5,5.3S648.6,39,648.5,38.2z"/>
<path class="st0" d="M130.8,297.3c-9.9,0-17.9-8-17.9-17.8s8-17.9,17.8-17.9c9.9,0,17.9,8,17.9,17.8c0,0,0,0,0,0
	C148.7,289.3,140.7,297.3,130.8,297.3z M130.8,267.3c-6.7,0-12.1,5.5-12.1,12.2c0,6.7,5.5,12.1,12.2,12.1c6.7,0,12.1-5.4,12.1-12.1
	C143,272.8,137.6,267.4,130.8,267.3C130.9,267.4,130.9,267.4,130.8,267.3L130.8,267.3z"/>
<g class="st1">
	<path class="st2" d="M131,295.4c-8.9,0-16.1-7.2-16.1-16.1c0-8.9,7.2-16.1,16.1-16.1c8.9,0,16.1,7.2,16.1,16.1
		C147.1,288.2,139.9,295.4,131,295.4z M131,265.1c-7.9,0-14.2,6.4-14.2,14.2c0,7.9,6.4,14.2,14.2,14.2s14.2-6.4,14.2-14.2
		c0,0,0,0,0,0C145.2,271.4,138.8,265.1,131,265.1z"/>
</g>
<path class="st3" d="M124.4,265.7c-0.8-0.2-1.7-0.1-2.4,0.3l-1,0.6c-1.4,2.2-3.6,3.6-4.8,6.1c-0.6,1.3-1,2.7-1.2,4.2
	c-0.2,1.6,0.1,3.7,1.6,1.7s1.3-5.6,2.8-7.8C120.4,269.3,124.7,267.4,124.4,265.7z"/>
<path class="st3" d="M146,281.3c-1.4-0.3-2.5,5.8-3.6,7.2c-2.1,2.7-4.4,3.6-7.4,4.4l-0.6,0.2c-1.5,0-1.3,1.1,0,1.3
	c1-0.1,1.9-0.4,2.8-0.8c1.7-0.7,3.2-1.7,4.5-3C143.9,288.6,147.3,284.6,146,281.3z"/>
<rect x="127.3" y="296.5" class="st0" width="7.1" height="13.9"/>
<polygon class="st4" points="128.3,298.3 128.4,309.9 131.3,310.4 130.8,299.9 "/>
<path class="st0" d="M129.8,255.2c-8.8,0-15.9-7.1-15.9-15.9c0-8.8,7.1-15.9,15.9-15.9s15.9,7.1,15.9,15.9c0,0,0,0,0,0
	C145.7,248.1,138.6,255.2,129.8,255.2z M129.8,228.5c-6,0-10.8,4.8-10.8,10.8s4.8,10.8,10.8,10.8s10.8-4.8,10.8-10.8
	C140.6,233.4,135.8,228.6,129.8,228.5L129.8,228.5z"/>
<g class="st1">
	<path class="st2" d="M130,253.5c-7.9,0-14.4-6.4-14.4-14.4c0-7.9,6.4-14.4,14.4-14.4c7.9,0,14.4,6.4,14.4,14.4c0,0,0,0,0,0
		C144.4,247.1,137.9,253.5,130,253.5z M130,226.5c-7,0-12.7,5.7-12.7,12.7s5.7,12.7,12.7,12.7s12.7-5.7,12.7-12.7l0,0
		C142.7,232.2,137,226.5,130,226.5L130,226.5L130,226.5z"/>
</g>
<path class="st3" d="M124.1,227c-0.7-0.2-1.5-0.1-2.2,0.3l-0.8,0.5c-1.3,1.9-3.2,3.2-4.3,5.4c-0.5,1.2-0.9,2.5-1,3.8
	c-0.2,1.4,0.1,3.3,1.4,1.5s1.1-4.9,2.5-7C120.5,230.3,124.3,228.5,124.1,227z"/>
<path class="st3" d="M143.3,241c-1.3-0.3-2.2,5.1-3.2,6.4c-1.9,2.4-3.9,3.2-6.6,3.9l-0.5,0.2c-1.4,0.1-1.2,1,0,1.2
	c0.9-0.1,1.7-0.3,2.5-0.7c1.5-0.6,2.8-1.5,4-2.6C141.4,247.5,144.4,243.9,143.3,241z"/>
<path class="st0" d="M134.3,269.9c0,1.4-1.6,2.6-3.5,2.6l0,0c-2,0-3.5-1.2-3.5-2.6v-22.1c0-1.4,1.6-2.6,3.5-2.6l0,0
	c1.9,0,3.5,1.2,3.5,2.6V269.9z"/>
<path class="st5" d="M132.3,263.3c-0.1,1-1,1.8-2,1.8l0,0c-1,0.1-1.9-0.7-2-1.8v-15.1c0.1-1,1-1.8,2-1.8l0,0c1-0.1,1.9,0.7,2,1.8
	V263.3z"/>
<path class="st3" d="M130.2,254.6c-0.3-2.1,0.7-4,0.4-6c-0.3-0.1-0.6-0.2-0.9-0.3h-0.1c-1.3,1.3-0.2,4.4-0.3,6.1
	c0,0.9-1.1,5.4,0.5,5.3S130.3,255.4,130.2,254.6z"/>
<path class="st0" d="M130,212.1c-8.8,0-15.9-7.1-15.9-15.9c0-8.8,7.1-15.9,15.9-15.9s15.9,7.1,15.9,15.9c0,0,0,0,0,0
	C145.9,204.9,138.8,212.1,130,212.1z M130,185.4c-6,0-10.8,4.8-10.8,10.8c0,6,4.8,10.8,10.8,10.8c6,0,10.8-4.8,10.8-10.8
	c0,0,0,0,0,0C140.8,190.2,136,185.4,130,185.4z"/>
<g class="st1">
	<path class="st2" d="M130.1,210.4c-7.9,0-14.4-6.4-14.4-14.4c0-7.9,6.4-14.4,14.4-14.4c7.9,0,14.4,6.4,14.4,14.4c0,0,0,0,0,0
		C144.5,203.9,138.1,210.4,130.1,210.4z M130.1,183.4c-7,0-12.7,5.7-12.7,12.7c0,7,5.7,12.7,12.7,12.7c7,0,12.7-5.7,12.7-12.7
		c0,0,0,0,0,0C142.8,189,137.1,183.3,130.1,183.4L130.1,183.4z"/>
</g>
<path class="st3" d="M124.2,183.9c-0.7-0.2-1.5-0.1-2.2,0.3l-0.8,0.5c-1.3,2-3.2,3.2-4.3,5.4c-0.5,1.2-0.9,2.5-1,3.7
	c-0.2,1.4,0.1,3.3,1.4,1.5s1.1-4.9,2.5-7C120.7,187.1,124.5,185.4,124.2,183.9z"/>
<path class="st3" d="M143.4,197.8c-1.3-0.3-2.2,5.1-3.2,6.4c-1.9,2.4-3.9,3.2-6.6,3.9l-0.5,0.2c-1.4,0-1.2,1,0,1.2
	c0.9-0.1,1.7-0.3,2.5-0.7c1.5-0.6,2.8-1.5,4-2.6C141.6,204.3,144.6,200.8,143.4,197.8z"/>
<path class="st0" d="M134.3,230.2c0,1.4-1.6,2.6-3.5,2.6l0,0c-1.9,0-3.5-1.2-3.5-2.6v-22.1c0-1.4,1.6-2.6,3.5-2.6l0,0
	c1.9,0,3.5,1.2,3.5,2.6V230.2z"/>
<path class="st5" d="M132.3,223.5c-0.1,1-1,1.8-2,1.8l0,0c-1,0.1-1.9-0.7-2-1.8v-15.1c0.1-1,1-1.8,2-1.8l0,0c1-0.1,1.9,0.7,2,1.8
	V223.5z"/>
<path class="st3" d="M130.1,214.9c-0.3-2.1,0.7-4,0.4-6c-0.3-0.1-0.6-0.2-0.9-0.3h-0.1c-1.3,1.3-0.2,4.4-0.3,6.1
	c0,0.9-1.1,5.4,0.5,5.4S130.3,215.7,130.1,214.9z"/>
<path class="st0" d="M130,167.5c-8.8,0-15.9-7.1-15.9-15.9c0-8.8,7.1-15.9,15.9-15.9s15.9,7.1,15.9,15.9c0,0,0,0,0,0
	C145.9,160.4,138.8,167.5,130,167.5z M130,140.8c-6,0-10.8,4.8-10.8,10.8s4.8,10.8,10.8,10.8s10.8-4.8,10.8-10.8
	C140.8,145.6,136,140.8,130,140.8z"/>
<g class="st1">
	<path class="st2" d="M130.1,165.8c-7.9,0-14.4-6.4-14.4-14.4c0-7.9,6.4-14.4,14.4-14.4c7.9,0,14.4,6.4,14.4,14.4c0,0,0,0,0,0
		C144.5,159.4,138.1,165.8,130.1,165.8z M130.1,138.8c-7,0-12.7,5.7-12.7,12.7s5.7,12.7,12.7,12.7s12.7-5.7,12.7-12.7l0,0
		C142.8,144.5,137.1,138.8,130.1,138.8L130.1,138.8L130.1,138.8z"/>
</g>
<path class="st3" d="M124.2,139.3c-0.7-0.2-1.5,0-2.2,0.3l-0.8,0.5c-1.3,2-3.2,3.2-4.3,5.4c-0.5,1.2-0.9,2.5-1,3.8
	c-0.2,1.4,0.1,3.3,1.4,1.5s1.1-5,2.5-7C120.7,142.6,124.5,140.8,124.2,139.3z"/>
<path class="st3" d="M143.4,153.3c-1.3-0.3-2.2,5.1-3.2,6.4c-1.9,2.4-3.9,3.2-6.6,3.9l-0.5,0.2c-1.4,0-1.2,1,0,1.2
	c0.9-0.1,1.7-0.3,2.5-0.7c1.5-0.6,2.8-1.5,4-2.6C141.6,159.8,144.6,156.2,143.4,153.3z"/>
<path class="st0" d="M134.3,185.6c0,1.4-1.6,2.6-3.5,2.6l0,0c-1.9,0-3.5-1.2-3.5-2.6v-22.1c0-1.4,1.6-2.6,3.5-2.6l0,0
	c1.9,0,3.5,1.2,3.5,2.6V185.6z"/>
<path class="st5" d="M132.3,179c-0.1,1-1,1.8-2,1.8l0,0c-1,0.1-1.9-0.7-2-1.8v-15.1c0.1-1,1-1.8,2-1.8l0,0c1-0.1,1.9,0.7,2,1.8V179z
	"/>
<path class="st3" d="M130.1,170.3c-0.3-2.1,0.7-4,0.4-6c-0.3-0.1-0.6-0.2-0.9-0.3h-0.1c-1.3,1.3-0.2,4.4-0.3,6.1
	c0,0.9-1.1,5.4,0.5,5.4S130.3,171.1,130.1,170.3z"/>
<path class="st0" d="M130,122.6c-8.8,0-15.9-7.1-15.9-15.9c0-8.8,7.1-15.9,15.9-15.9c8.8,0,15.9,7.1,15.9,15.9l0,0
	C145.9,115.4,138.8,122.5,130,122.6z M130,95.9c-6,0-10.8,4.8-10.8,10.8s4.8,10.8,10.8,10.8s10.8-4.8,10.8-10.8
	C140.8,100.7,136,95.9,130,95.9z"/>
<g class="st1">
	<path class="st2" d="M130.1,120.8c-7.9,0-14.4-6.4-14.4-14.4c0-7.9,6.4-14.4,14.4-14.4c7.9,0,14.4,6.4,14.4,14.4l0,0
		C144.5,114.4,138.1,120.8,130.1,120.8z M130.1,93.8c-7,0-12.7,5.7-12.7,12.7c0,7,5.7,12.7,12.7,12.7s12.7-5.7,12.7-12.7l0,0
		C142.8,99.5,137.1,93.8,130.1,93.8C130.1,93.8,130.1,93.8,130.1,93.8L130.1,93.8z"/>
</g>
<path class="st3" d="M124.2,94.3c-0.7-0.2-1.5,0-2.2,0.3l-0.8,0.5c-1.3,2-3.2,3.2-4.3,5.4c-0.5,1.2-0.9,2.5-1,3.8
	c-0.2,1.4,0.1,3.3,1.4,1.5s1.1-4.9,2.5-7C120.7,97.6,124.5,95.8,124.2,94.3z"/>
<path class="st3" d="M143.4,108.3c-1.3-0.3-2.2,5.2-3.2,6.4c-1.9,2.4-3.9,3.2-6.6,3.9l-0.5,0.2c-1.4,0-1.2,1,0,1.2
	c0.9-0.1,1.7-0.3,2.5-0.7c1.5-0.6,2.8-1.5,4-2.6C141.6,114.8,144.6,111.3,143.4,108.3z"/>
<path class="st0" d="M134.3,140.6c0,1.4-1.6,2.6-3.5,2.6l0,0c-1.9,0-3.5-1.2-3.5-2.6v-22c0-1.4,1.6-2.6,3.5-2.6l0,0
	c1.9,0,3.5,1.2,3.5,2.6V140.6z"/>
<path class="st5" d="M132.3,134c-0.1,1-1,1.8-2,1.8l0,0c-1,0.1-1.9-0.7-2-1.8v-15.1c0.1-1,1-1.8,2-1.8l0,0c1-0.1,1.9,0.7,2,1.8V134z
	"/>
<path class="st3" d="M130.1,125.3c-0.3-2.1,0.7-4,0.4-6c-0.3-0.1-0.6-0.2-0.9-0.3h-0.1c-1.3,1.3-0.2,4.4-0.3,6.1
	c0,0.9-1.1,5.4,0.5,5.4S130.3,126.2,130.1,125.3z"/>
<path class="st0" d="M130,77.8c-8.8,0-15.9-7.1-15.9-15.9c0-8.8,7.1-15.9,15.9-15.9s15.9,7.1,15.9,15.9v0
	C145.9,70.7,138.8,77.8,130,77.8z M130,51.1c-6,0-10.8,4.8-10.8,10.8S124,72.7,130,72.7s10.8-4.8,10.8-10.8
	C140.8,56,136,51.1,130,51.1z"/>
<g class="st1">
	<path class="st2" d="M130.1,76.1c-7.9,0-14.4-6.4-14.4-14.4c0-7.9,6.4-14.4,14.4-14.4c7.9,0,14.4,6.4,14.4,14.4c0,0,0,0,0,0
		C144.5,69.7,138.1,76.1,130.1,76.1z M130.1,49.1c-7,0-12.7,5.7-12.7,12.7c0,7,5.7,12.7,12.7,12.7c7,0,12.7-5.7,12.7-12.7
		c0,0,0,0,0,0C142.8,54.8,137.1,49.1,130.1,49.1L130.1,49.1z"/>
</g>
<path class="st3" d="M124.2,49.6c-0.7-0.2-1.5,0-2.2,0.3l-0.8,0.5c-1.3,2-3.2,3.2-4.3,5.4c-0.5,1.2-0.9,2.5-1,3.8
	c-0.2,1.4,0.1,3.3,1.4,1.5s1.1-5,2.5-7C120.7,52.9,124.5,51.1,124.2,49.6z"/>
<path class="st3" d="M143.4,63.6c-1.3-0.3-2.2,5.2-3.2,6.4c-1.9,2.4-3.9,3.2-6.6,3.9l-0.5,0.2c-1.4,0.1-1.2,1,0,1.2
	c0.9-0.1,1.7-0.3,2.5-0.7c1.5-0.6,2.8-1.5,4-2.6C141.6,70.1,144.6,66.5,143.4,63.6z"/>
<path class="st0" d="M134.3,95.9c0,1.4-1.6,2.6-3.5,2.6l0,0c-1.9,0-3.5-1.2-3.5-2.6v-22c0-1.4,1.6-2.6,3.5-2.6l0,0
	c1.9,0,3.5,1.2,3.5,2.6V95.9z"/>
<path class="st5" d="M132.3,89.3c-0.1,1-1,1.8-2,1.8l0,0c-1,0.1-1.9-0.7-2-1.8V74.2c0.1-1,1-1.8,2-1.8l0,0c1-0.1,1.9,0.7,2,1.8V89.3
	z"/>
<path class="st3" d="M130.1,80.6c-0.3-2.1,0.7-4,0.4-6c-0.3-0.1-0.6-0.2-0.9-0.3h-0.1c-1.3,1.3-0.2,4.4-0.3,6.1
	c0,0.9-1.1,5.3,0.5,5.3S130.3,81.5,130.1,80.6z"/>
<path class="st0" d="M130,35.4c-8.8,0-15.9-7.1-15.9-15.9c0-8.8,7.1-15.9,15.9-15.9s15.9,7.1,15.9,15.9c0,0,0,0,0,0
	C145.9,28.3,138.8,35.4,130,35.4z M130,8.7c-6,0-10.8,4.8-10.8,10.8S124,30.3,130,30.3s10.8-4.8,10.8-10.8
	C140.8,13.6,136,8.7,130,8.7z"/>
<g class="st1">
	<path class="st2" d="M130.1,33.7c-7.9,0-14.4-6.4-14.4-14.4c0-7.9,6.4-14.4,14.4-14.4c7.9,0,14.4,6.4,14.4,14.4c0,0,0,0,0,0
		C144.5,27.3,138.1,33.7,130.1,33.7z M130.1,6.7c-7,0-12.7,5.7-12.7,12.7c0,7,5.7,12.7,12.7,12.7c7,0,12.7-5.7,12.7-12.7
		c0,0,0,0,0,0C142.8,12.4,137.1,6.7,130.1,6.7L130.1,6.7z"/>
</g>
<path class="st3" d="M124.2,7.2c-0.7-0.2-1.5-0.1-2.2,0.3L121.2,8c-1.3,2-3.2,3.2-4.3,5.4c-0.5,1.2-0.9,2.5-1,3.8
	c-0.2,1.4,0.1,3.3,1.4,1.5s1.1-4.9,2.5-7C120.7,10.5,124.5,8.7,124.2,7.2z"/>
<path class="st3" d="M143.4,21.2c-1.3-0.3-2.2,5.1-3.2,6.4c-1.9,2.4-3.9,3.2-6.6,3.9l-0.5,0.2c-1.4,0-1.2,1,0,1.2
	c0.9-0.1,1.7-0.3,2.5-0.7c1.5-0.6,2.8-1.5,4-2.6C141.6,27.7,144.6,24.1,143.4,21.2z"/>
<path class="st0" d="M134.3,53.5c0,1.4-1.6,2.6-3.5,2.6l0,0c-1.9,0-3.5-1.2-3.5-2.6V31.5c0-1.4,1.6-2.6,3.5-2.6l0,0
	c1.9,0,3.5,1.2,3.5,2.6V53.5z"/>
<path class="st5" d="M132.3,46.9c-0.1,1-1,1.8-2,1.8l0,0c-1,0.1-1.9-0.7-2-1.8V31.8c0.1-1,1-1.8,2-1.8l0,0c1-0.1,1.9,0.7,2,1.8V46.9
	z"/>
<path class="st3" d="M130.1,38.2c-0.3-2.1,0.7-4,0.4-6c-0.3-0.1-0.6-0.2-0.9-0.3h-0.1c-1.3,1.3-0.2,4.4-0.3,6.1
	c0,0.9-1.1,5.3,0.5,5.3S130.3,39,130.1,38.2z"/>
<path class="st6" d="M44.7,310.7h690.7c21.2,0,38.4,17.2,38.4,38.4V728c0,21.2-17.2,38.4-38.4,38.4H44.7
	c-21.2,0-38.4-17.2-38.4-38.4V349.1C6.3,327.9,23.5,310.7,44.7,310.7z"/>
<linearGradient id="SVGID_1_" gradientUnits="userSpaceOnUse" x1="390" y1="-14.35" x2="390" y2="490.17" gradientTransform="matrix(1 0 0 -1 0 772)">
	<stop  offset="0" style="stop-color:#B11107"/>
	<stop  offset="0.26" style="stop-color:#C21608"/>
	<stop  offset="0.72" style="stop-color:#DA1E0A"/>
	<stop  offset="1" style="stop-color:#E3210B"/>
</linearGradient>
<path class="st7" d="M44.7,313.1h690.7c19.9,0,36,16.1,36,36V728c0,19.9-16.1,36-36,36H44.7c-19.9,0-36-16.1-36-36V349.1
	C8.7,329.2,24.8,313.1,44.7,313.1z"/>
<path class="st6" d="M44.7,337.1h690.7c6.6,0,12,5.4,12,12V728c0,6.6-5.4,12-12,12H44.7c-6.6,0-12-5.4-12-12V349.1
	C32.7,342.5,38,337.1,44.7,337.1z"/>
<path class="st8" d="M44.7,339.5h690.7c5.3,0,9.6,4.3,9.6,9.6V728c0,5.3-4.3,9.6-9.6,9.6H44.7c-5.3,0-9.6-4.3-9.6-9.6V349.1
	C35.1,343.8,39.4,339.5,44.7,339.5z"/>
<path class="st9" d="M44.7,346.3h690.7c1.3,0,2.4,1.1,2.4,2.4v378.9c0,1.3-1.1,2.4-2.4,2.4H44.7c-1.3,0-2.4-1.1-2.4-2.4V348.7
	C42.3,347.4,43.3,346.3,44.7,346.3z"/>
<g>
	<defs>
		<path id="SVGID_2_" d="M44.7,346.3h690.7c1.3,0,2.4,1.1,2.4,2.4v378.9c0,1.3-1.1,2.4-2.4,2.4H44.7c-1.3,0-2.4-1.1-2.4-2.4V348.7
			C42.3,347.4,43.3,346.3,44.7,346.3z"/>
	</defs>
	<clipPath id="SVGID_3_">
		<use xlink:href="#SVGID_2_"  style="overflow:visible;"/>
	</clipPath>
	<g class="st10">
		<g>
			<defs>
				<rect id="SVGID_4_" x="-282.7" y="176" width="1785.4" height="595.2"/>
			</defs>
			<clipPath id="SVGID_5_">
				<use xlink:href="#SVGID_4_"  style="overflow:visible;"/>
			</clipPath>
			<g class="st11">
				
					<linearGradient id="SVGID_6_" gradientUnits="userSpaceOnUse" x1="1264.4199" y1="338.97" x2="1264.4199" y2="1549.86" gradientTransform="matrix(1 0 0 -1 0 772)">
					<stop  offset="0" style="stop-color:#DDF1FD"/>
					<stop  offset="1" style="stop-color:#16B6E6"/>
				</linearGradient>
				<path class="st12" d="M-570.3,955.5c31.3-0.7,39.1-2.9,71.9,0s145.4,4.4,220.5-0.7s172,0,222,0s204.9,2.9,308.1,2.9
					s419.8,2.3,659.1,4.4s349.5,2.2,663.7,3.3s502,4.4,614.5,6.5s288.4,0,410.4-1c116.4-1.1,382.2-11.1,630.4-8.2V-505.9h-3932
					V962.5c18.1-0.5,39.5-2.1,56.3-5.5C-612.5,950.4-601.5,956.3-570.3,955.5z"/>
				<path class="st13" d="M2476.1,251.8c-115.2-44.7-212-75.9-281.9-96.7c-197-58.8-298-87.9-424.5-74.8
					c-105.3,10.9-189.3,45.8-242.8,72.8C936.1,312,528-63.9,247.8,113.9c-293.6,186.3-858.4,11.8-858.4,11.8v348.5l2137.6-40v-41.8
					l1066.5,11.8c7.9-7.3,11.1-14.8,12.1-21.5C2612.5,332.4,2499.4,265.3,2476.1,251.8z"/>
				
					<linearGradient id="SVGID_7_" gradientUnits="userSpaceOnUse" x1="691.9096" y1="301.6999" x2="1197.6896" y2="829.22" gradientTransform="matrix(1 0 0 -1 0 772)">
					<stop  offset="1.000000e-02" style="stop-color:#987CE4"/>
					<stop  offset="0.23" style="stop-color:#919FDF"/>
					<stop  offset="0.45" style="stop-color:#8BBCDB"/>
					<stop  offset="0.64" style="stop-color:#87CDD9"/>
					<stop  offset="0.78" style="stop-color:#86D3D8"/>
				</linearGradient>
				<path class="st14" d="M508.1,219.1c0,0,173,51.6,319.6-182.4c0,0,59.2-86.4,149.1-82.3c72.2,3.3,216.8,79.6,262,310.9
					c0,0,6.5,49.3,0.7,76.8l-738.4-5.3L508.1,219.1z"/>
				
					<linearGradient id="SVGID_8_" gradientUnits="userSpaceOnUse" x1="-223.0213" y1="305.0236" x2="589.0687" y2="979.3036" gradientTransform="matrix(1 0 0 -1 0 772)">
					<stop  offset="0.17" style="stop-color:#9595EB"/>
					<stop  offset="0.23" style="stop-color:#929FE8"/>
					<stop  offset="0.41" style="stop-color:#89BDE1"/>
					<stop  offset="0.6" style="stop-color:#83D2DC"/>
					<stop  offset="0.78" style="stop-color:#7FDFD9"/>
					<stop  offset="0.95" style="stop-color:#7EE3D8"/>
				</linearGradient>
				<path class="st15" d="M266.8-197.1l13.8-1.9c46.3-3.4,83.1,12.9,92.8,19.4C412-153.3,521.8-61.6,573.1,97
					c37.7,116.7,38.8,234.3,38.8,234.3H-731c0,0,458.5-57.4,585.4-194.9c119-128.8,277.5-285.5,383.6-325.1
					C247.3-192.5,256.9-195.3,266.8-197.1z"/>
				
					<linearGradient id="SVGID_9_" gradientUnits="userSpaceOnUse" x1="144.82" y1="448.9997" x2="2429.76" y2="448.9997" gradientTransform="matrix(1 0 0 -1 0 772)">
					<stop  offset="0.15" style="stop-color:#108937"/>
					<stop  offset="0.33" style="stop-color:#1C9C45"/>
					<stop  offset="0.69" style="stop-color:#3BCC67"/>
					<stop  offset="0.73" style="stop-color:#3FD26C"/>
				</linearGradient>
				<path class="st16" d="M2331.9,98.9c0,0-25.9-8.3-32.7,6.5c0,0-25.9-22.3-42.3,1.9c-20.4-30.6-102.2-18.6-85.9,26.9
					c0,0-16.4-10.2-24.5,0c-6.8-10.2-43.6-19.5-43.6,1.9c-32.7-24.1-72.2-7.4-84.5,18.5c-30-12.1-43.6,10.2-43.6,10.2
					s-32.7-18.6-68.1,1.9s1.4,54.8,1.4,54.8s-16.3-15.8-43.6,6.5c0,0-24.5-34.3-43.6-9.3c-19.1-29.7-96.8-31.6-117.2,21.3
					c0,0-35.4-18.6-39.5,7.4c-24.5-23.2-109-17.6-98.1,25c0,0-60-9.3-55.9,29.7c0,0-24.5-9.3-27.3,0.9
					c-64.1-46.4-106.3,13.9-106.3,13.9s-12.3-23.2-42.2-9.3c-25.9-45.5-115.9-22.3-118.6,20.4c0,0-30-11.1-31.4,11.1
					c-16.3-9.3-47.7-22.3-61.3,4.6c-9.5-16.7-50.4-39.9-87.2-6.5c0,0-9.5-21.3-53.2-13c16.4-16.7-9.5-56.6-45-47.3
					c30-30.6-32.7-76.1-87.2-33.4c0,0-10.9-27.8-45-13c15-27.8-24.5-46.4-47.7-25.1c0,0-6.8-18.6-34.1-9.3
					c-5.5-27.8-36.8-14.8-36.8-14.8s-13.6-26.9-42.3-13c15-26-16.4-28.8-16.4-28.8c-5.4-68.6-117.1-59.3-130.8-25
					c0,0-9.5-9.3-23.2-1.8c2.7-11.1-15-30.6-27.3-13.9c-5.5-28.8-92.7-44.5-124-1.8c0,0-13.6-20.4-31.4-7.4
					c-25.9-39-94-17.6-95.4,24.1c0,0-4.1-8.4-10.9,0.9c-19-8.2-31.8-5.4-40.4,0.7v394.9c10.5-0.5,22.9-1.8,32.7-4.6
					c19.1-5.6,25.4-0.6,43.6-1.3s22.7-2.5,41.8,0s84.5,3.7,128.1-0.6s100,0,129,0s119,2.5,179,2.5s244.7,68.8,383.8,70.7
					s202.3-65.1,385-64.2c182.7,0.9,291.7,3.7,357.1,5.6s167.6,0,238.5-0.9c67.6-0.9,222.1-9.4,366.3-6.9V98.7
					c-4.7-1.6-9.7-2.5-14.7-2.6C2420.5,60.8,2327.8,60.8,2331.9,98.9z"/>
				
					<linearGradient id="SVGID_10_" gradientUnits="userSpaceOnUse" x1="-2781.3899" y1="410.3371" x2="-496.4698" y2="410.3371" gradientTransform="matrix(-1 0 0 -1 -2667.0898 772)">
					<stop  offset="0.15" style="stop-color:#108937"/>
					<stop  offset="0.33" style="stop-color:#1C9C45"/>
					<stop  offset="0.69" style="stop-color:#3BCC67"/>
					<stop  offset="0.73" style="stop-color:#3FD26C"/>
				</linearGradient>
				<path class="st17" d="M-2072.8,137.6c0,0,25.9-8.4,32.7,6.5c0,0,25.9-22.3,42.3,1.9c20.4-30.6,102.2-18.6,85.9,26.9
					c0,0,16.3-10.2,24.5,0c6.8-10.2,43.6-19.5,43.6,1.9c32.7-24.1,72.2-7.4,84.5,18.6c30-12.1,43.6,10.2,43.6,10.2
					s32.7-18.6,68.1,1.9s-1.4,54.8-1.4,54.8s16.3-15.8,43.6,6.5c0,0,24.5-34.3,43.6-9.3c19.1-29.7,96.8-31.6,117.2,21.3
					c0,0,35.4-18.6,39.5,7.4c24.5-23.2,109-17.6,98.1,25.1c0,0,60-9.3,55.9,29.7c0,0,24.5-9.3,27.3,0.9
					c64.1-46.4,106.3,13.9,106.3,13.9s12.3-23.2,42.2-9.3c25.9-45.5,115.9-22.3,118.6,20.4c0,0,30-11.1,31.4,11.1
					c16.3-9.3,47.7-22.3,61.3,4.6c9.5-16.7,50.4-39.9,87.2-6.5c0,0,9.5-21.4,53.2-13c-16.4-16.7,9.5-56.6,45-47.3
					c-30-30.6,32.7-76.1,87.2-33.4c0,0,10.9-27.8,45-13c-15-27.8,24.5-46.4,47.7-25.1c0,0,6.8-18.6,34.1-9.3
					c5.5-27.8,36.8-14.8,36.8-14.8s13.6-26.9,42.2-13c-15-26,16.4-28.8,16.4-28.8c5.4-68.7,117.2-59.4,130.8-25.1
					c0,0,9.5-9.3,23.2-1.9c-2.7-11.1,15-30.6,27.3-13.9c5.5-28.8,92.7-44.6,124-1.9c0,0,13.6-20.4,31.3-7.4
					c25.9-39,94-17.6,95.4,24.1c0,0,4.1-8.4,10.9,0.9c19-8.2,31.8-5.4,40.4,0.7v394.9c-10.5-0.5-22.9-1.8-32.7-4.6
					c-19.1-5.6-25.5-0.6-43.6-1.2s-22.7-2.5-41.8,0s-84.5,3.7-128.1-0.6s-100,0-129,0s-119,2.5-179,2.5s-244.7,68.8-383.7,70.7
					s-202.3-65.1-385-64.2s-291.7,3.7-357.1,5.6s-167.6,0-238.5-0.9c-67.6-0.9-222.1-9.4-366.3-6.9V137.3c4.7-1.6,9.7-2.5,14.7-2.6
					C-2161.4,99.5-2068.7,99.5-2072.8,137.6z"/>
				
					<linearGradient id="SVGID_11_" gradientUnits="userSpaceOnUse" x1="45.77" y1="502.9871" x2="488.1797" y2="502.9871" gradientTransform="matrix(1 0 0 -1 0 772)">
					<stop  offset="0.15" style="stop-color:#108937"/>
					<stop  offset="0.33" style="stop-color:#1C9C45"/>
					<stop  offset="0.69" style="stop-color:#3BCC67"/>
					<stop  offset="0.73" style="stop-color:#3FD26C"/>
				</linearGradient>
				<path class="st18" d="M48.8,155.8c0,0,38-34.8,57,3c7-10.9,16-7,16-7s-6-42.7,39-43.7s22,28.8,22,28.8s30-7,15,22.8
					c19-7,23,13.9,23,13.9c20-17.9,35-2,34,15.9c15-4,49,3,36,42.7c10-3,13,17.9,13,17.9s33-34.8,46,7.9c15-43.7,57-39.7,59-8.9
					c11-1,15,9.9,11,15.9c13-7,26,8.9,17,22.8c0,0,35-9.9,51,35.8s-442,106.3-442,106.3L48.8,155.8z"/>
				
					<radialGradient id="SVGID_12_" cx="84.5043" cy="1967.4368" r="810.59" gradientTransform="matrix(1.75 0 0 -1.48 1056.5601 2900.8301)" gradientUnits="userSpaceOnUse">
					<stop  offset="9.000000e-02" style="stop-color:#85C043"/>
					<stop  offset="0.33" style="stop-color:#9DC830"/>
					<stop  offset="0.4" style="stop-color:#A5CB2A"/>
					<stop  offset="0.69" style="stop-color:#6E9730"/>
					<stop  offset="0.75" style="stop-color:#648D31"/>
					<stop  offset="1" style="stop-color:#3D5E27"/>
				</radialGradient>
				<path class="st19" d="M2407.4,328.1c-71.9-10.7-167.2-16-283.3-16c-349.7,0-764.8,47.5-782.3,49.5c-17.3,2-39.5,3-66.1,3
					c-92.3,0-225.5-12.1-332.5-21.8c-67.8-6.2-126.4-11.5-161.7-12.7c-11.3-0.4-24.8-0.6-39.9-0.6c-93,0-240.3,7.1-358.6,12.9
					c-35.4,1.7-68.9,3.3-97.1,4.6c-16.6,0.8-32.7,1.1-47.6,1.1c-31.4,0-58.6-1.6-80.7-4.9l-1.4-0.2v82.2h1.1c10.6,0,27.1,0,47.6,0
					c100.6,0,343,0.4,420.3,4.1c40.6,1.9,99.1,3.5,161.2,5.1c91,2.3,185.2,4.8,218.4,8.6c15.6,1.8,29.8,2.9,43,3.7
					c-0.8,0.7-1.6,1.5-2.3,2.3c-1.1,1.2-0.3,3.2,2.5,2.4c5.4-1.6,11-2.9,16.6-3.9c-3.3,2.2-6.4,4.7-9.3,7.4c-1,0.9-0.8,3.7,2.3,3
					c14.8-3.5,30-6.3,45.8-6.8c-3.8,1.9-7.7,3.7-11.6,5.5c-1.8,0.9-1.4,3.6,1.6,3.1c15.2-2.5,29.7-6.1,45.2-7.2l-1.3,0.5
					c-1.6,0.6-2.6,3.2,0.3,3.1c9.2-0.1,18.3-0.6,27.5-1.6c-0.5,0.6-0.4,1.5,0.2,2c0.2,0.2,0.5,0.3,0.8,0.3c15.1,2.2,29.5-1.8,44-4
					c18.1,0.6,37.1,1.2,55,1.6c-1.3,1.1-2.6,2.3-3.7,3.5c-0.8,0.9,0.2,2.1,1.8,1.3c3.4-1.7,6.9-3.2,10.4-4.6l8.8,0.2
					c-2.6,2.7-4.9,5.6-7.1,8.7c-0.7,0.9,0.5,2.3,2.3,1.6c10.2-3.7,20.5-7.2,31.3-9.9l8.8,0c-1.5,1.2-2.8,2.4-4.1,3.8
					c-1.2,1.3,0.3,2.9,2.6,1.9c4.8-2.1,9.7-4,14.8-5.7c4.1-0.1,7.6-0.2,10.3-0.3l3.5-0.1c1,2.7,2.5,5.2,4.4,7.4
					c0.7,0.5,1.6,0.6,2.4,0.3c4.7-1.6,8.9-4.5,12.1-8.3c4.3-0.1,8.7-0.2,13.1-0.2c3.6,1.6,7.4,3.1,11.3,4.5c1.2,0.4,2.5-0.3,2.9-1.5
					c0-0.1,0-0.1,0.1-0.2c0-1-0.1-2-0.2-3.1c2,0,4-0.1,6-0.1c18.6-0.2,37.8-0.4,56.5-1.2c14.9-0.7,23.3-1.5,31.5-2.4
					c11.9-1.3,23.1-2.5,53.6-2.5c50.5,0,119.6,0,161.5-0.8c14.2-0.2,31.7-0.4,50.3-0.4c21.9-0.1,44.2-0.2,62.4-0.6
					c0,0.2,0.2,0.4,0.6,0.4c14.5,0.2,27.4,2.7,40.6,6.2c0.6,0.2,1.2-0.1,1.4-0.7c0,0,0,0,0,0c0.3-3.9-3.6-6.1-8.8-7.5
					c2-0.2,4-0.3,5.8-0.5c13,1.1,25.3,3.7,34.3,9.7c1.3,0.9,3.2-0.4,3.5-1.1c1.4-4.5-2.3-7.7-7.6-10c9.3,1.1,18.2,3.7,24.1,8.1
					c1.5,1,3.4,0.7,4.6-0.7c5.4-7.4-4.8-12.7-16.1-15.9c13.6,0.2,27.2,1,40.7,1.7c2.1,0.1,3.5-1.7,2.4-2.7
					c-3.3-2.9-7.6-4.7-12.4-5.9c8.6-0.3,16.3-0.4,25.1-0.5c5.4-0.1,11.1-0.1,17.5-0.3c4.3,0.4,8.6,0.7,12.9,0.8
					c0.8,0.1,1.6-0.4,1.9-1.2c5.6-0.1,11.8-0.3,18.8-0.5l15.8-0.5c40.3-1.3,86.1-2.9,118.8-2.9c6,0,11.5,0,16.2,0.2s10,0.2,15.9,0.2
					c34,0,79.3-1.7,106.6-3.5c-8.2,2.3-16,5.9-23.1,10.6h-0.1l0,0c-0.1,0.1-0.2,0.1-0.2,0.2c-0.7,0.5,0,1.7,1.3,1.2
					c8-3.2,16.2-5.7,24.6-7.5c-1.3,0.8-2.6,1.6-3.7,2.6c-0.8,0.6-0.4,2.2,1.4,1.8c8.3-1.5,16.1-3.5,24.6-4.5c-2.1,1.6-4,3.5-5.5,5.6
					c-0.6,0.9,0.5,1.9,2.1,1.5c5.6-1.6,10.2-4.3,15.4-6.4c9.4-3.8,14.9,4.6,21.4,7.5c1.4,0.6,3.3-0.2,3.4-1.1
					c0.1-2.3-0.4-4.6-1.6-6.6c8,2.9,14.8,6.9,24.3,7.7c1.1,0.1,2.1-0.4,2.6-1.4c0.5-2.4,0-5-1.4-7c15.5,1.3,31.5,2.4,46.5,2.6h1.1
					v-97.5L2407.4,328.1z M1265.7,455.7c0.3-0.3,0.6-0.6,0.8-1c0.4,0,0.7,0,1,0C1267,455.1,1266.3,455.4,1265.7,455.7z"/>
				
					<linearGradient id="SVGID_13_" gradientUnits="userSpaceOnUse" x1="1172.2515" y1="839.098" x2="1403.9215" y2="-151.062" gradientTransform="matrix(1 0 0 -1 0 772)">
					<stop  offset="2.000000e-02" style="stop-color:#328635"/>
					<stop  offset="0.18" style="stop-color:#4A9739"/>
					<stop  offset="0.51" style="stop-color:#85C043"/>
					<stop  offset="0.64" style="stop-color:#9CCB5B"/>
					<stop  offset="0.84" style="stop-color:#C8DF89"/>
				</linearGradient>
				<path class="st20" d="M2216.7,386.9c-56.4,3.3-112.4,7.2-168.6,12c-53.7,4.6-107.8,9.1-162.1,9.5c-44,0.4-93.1-0.7-132.1-14.5
					c-1.1-0.4-0.9-1.3,0-1.7c12.2-5.3,21.5-12.5,34.2-17.2c-48.1-10.7-106.1-5.9-155.4-1.8c-52,4.3-103.2,11-154.9,16.2
					c27.2,6.5,62,5.5,79.9,21.4c0.5,0.5,0.1,1-0.6,1.3c-31.1,14.3-74.3,18.2-112.1,20.9c-46.7,3.3-93.9,3.9-140.9,3.8
					c-43.5-0.1-86.9-0.6-130.4-1.5c-46.4-1-98.6-2.2-139.5-17.1c-0.9-0.3-1-1-0.3-1.5c10.5-8,24.7-13.5,38.2-19.4
					c-11.1-2.6-22.6-4.7-34.2-6.3c-64.4-8.5-131.5-5.6-196.8-3.3c-71.6,2.6-142.7,2-214.3,0.5c-79.7-1.6-159.5-3.8-239.3-2.5
					c-29.6,0.4-59.2,0.9-88.8,0.7c-36.6-0.2-74.6-0.7-110.4-5.9c-8.9-1.3-22.4-3.5-32.1-7.5v52.2h1.1c10.6,0,27.1,0,47.6,0
					c100.6,0,343,0.4,420.3,4.1c40.6,1.9,99.1,3.5,161.2,5.1c91,2.3,185.2,4.8,218.4,8.6c15.6,1.8,29.8,2.9,43,3.7
					c-0.8,0.7-1.6,1.5-2.3,2.3c-1.1,1.2-0.3,3.2,2.5,2.4c5.4-1.6,11-2.9,16.6-3.9c-3.3,2.2-6.4,4.7-9.3,7.4c-1,0.9-0.8,3.7,2.3,3
					c14.8-3.5,30-6.3,45.8-6.8c-3.8,1.9-7.7,3.7-11.6,5.5c-1.8,0.9-1.4,3.6,1.6,3.1c15.2-2.5,29.7-6.1,45.2-7.2l-1.3,0.5
					c-1.6,0.6-2.6,3.2,0.3,3.1c9.2-0.1,18.3-0.6,27.5-1.6c-0.5,0.6-0.4,1.5,0.2,2c0.2,0.2,0.5,0.3,0.8,0.3c15.1,2.2,29.5-1.8,44-4
					c18.1,0.6,37.1,1.2,55,1.6c-1.3,1.1-2.6,2.3-3.7,3.5c-0.8,0.9,0.2,2.1,1.8,1.3c3.4-1.7,6.9-3.2,10.4-4.6l8.8,0.2
					c-2.6,2.7-4.9,5.6-7.1,8.7c-0.7,0.9,0.5,2.3,2.3,1.6c10.2-3.7,20.5-7.2,31.3-9.9l8.8,0c-1.5,1.2-2.8,2.4-4.1,3.8
					c-1.2,1.3,0.3,2.9,2.6,1.9c4.8-2.1,9.7-4,14.8-5.7c4.1-0.1,7.6-0.2,10.3-0.3l3.5-0.1c1,2.7,2.5,5.2,4.4,7.4
					c0.7,0.5,1.6,0.6,2.4,0.3c4.7-1.6,8.9-4.5,12.1-8.3c4.3-0.1,8.7-0.2,13.1-0.2c3.6,1.6,7.4,3.1,11.3,4.5c1.2,0.4,2.5-0.3,2.9-1.5
					c0-0.1,0-0.1,0.1-0.2c0-1-0.1-2-0.2-3.1c2,0,4-0.1,6-0.1c18.6-0.2,37.8-0.4,56.5-1.2c14.9-0.7,23.3-1.5,31.5-2.4
					c11.9-1.3,23.1-2.5,53.6-2.5c50.5,0,119.6,0,161.5-0.8c14.2-0.2,31.7-0.4,50.3-0.4c21.9-0.1,44.2-0.2,62.4-0.6
					c0,0.2,0.2,0.4,0.6,0.4c14.5,0.2,27.4,2.7,40.6,6.2c0.6,0.2,1.2-0.1,1.4-0.7c0,0,0,0,0,0c0.3-3.9-3.6-6.1-8.8-7.5
					c2-0.2,4-0.3,5.8-0.5c13,1.1,25.3,3.7,34.3,9.7c1.3,0.9,3.2-0.4,3.5-1.1c1.4-4.5-2.3-7.7-7.6-10c9.3,1.1,18.2,3.7,24.1,8.1
					c1.5,1,3.4,0.7,4.6-0.7c5.4-7.4-4.8-12.7-16.1-15.9c13.6,0.2,27.2,1,40.7,1.7c2.1,0.1,3.5-1.7,2.4-2.7
					c-3.3-2.9-7.6-4.7-12.4-5.9c8.6-0.3,16.3-0.4,25.1-0.5c5.4-0.1,11.1-0.1,17.5-0.3c4.3,0.4,8.6,0.7,12.9,0.8
					c0.8,0.1,1.6-0.4,1.9-1.2c5.6-0.1,11.8-0.3,18.8-0.5l15.8-0.5c40.3-1.3,86-2.9,118.8-2.9c6,0,11.5,0,16.2,0.2s10,0.2,15.9,0.2
					c34,0,79.3-1.7,106.6-3.5c-8.2,2.3-16,5.9-23.1,10.6h-0.1l0,0c-0.1,0.1-0.2,0.1-0.2,0.2c-0.7,0.5,0,1.7,1.3,1.2
					c8-3.2,16.2-5.7,24.6-7.5c-1.3,0.8-2.5,1.6-3.7,2.6c-0.8,0.6-0.4,2.2,1.4,1.8c8.3-1.5,16.1-3.5,24.6-4.5c-2.1,1.6-4,3.5-5.5,5.6
					c-0.6,0.9,0.5,1.9,2.1,1.5c5.6-1.6,10.2-4.3,15.4-6.4c9.4-3.8,14.9,4.6,21.4,7.5c1.4,0.6,3.3-0.2,3.4-1.1
					c0.1-2.3-0.4-4.6-1.6-6.6c8,2.9,14.8,6.9,24.3,7.7c1.1,0.1,2.1-0.4,2.6-1.4c0.5-2.4,0-5-1.4-7c15.5,1.3,31.5,2.4,46.5,2.6h1.1
					v-45.1C2344.3,380.2,2280.4,383.2,2216.7,386.9z M1265.7,455.7c0.3-0.3,0.6-0.6,0.8-1c0.4,0,0.7,0,1,0
					C1267,455.1,1266.3,455.4,1265.7,455.7L1265.7,455.7z"/>
				
					<radialGradient id="SVGID_14_" cx="-1028.1" cy="1937.04" r="810.59" gradientTransform="matrix(1 0 0 -1 0 772)" gradientUnits="userSpaceOnUse">
					<stop  offset="9.000000e-02" style="stop-color:#85C043"/>
					<stop  offset="0.33" style="stop-color:#9DC830"/>
					<stop  offset="0.4" style="stop-color:#A5CB2A"/>
					<stop  offset="0.69" style="stop-color:#6E9730"/>
					<stop  offset="0.75" style="stop-color:#648D31"/>
					<stop  offset="1" style="stop-color:#3D5E27"/>
				</radialGradient>
				<path class="st21" d="M155.4,342.4c-71.9-10.7-167.2-16-283.3-16c-349.6,0-764.8,47.5-782.3,49.5c-17.3,2-39.5,3-66.1,3
					c-92.3,0-225.5-12.1-332.5-21.8c-67.8-6.2-126.4-11.5-161.7-12.7c-11.3-0.4-24.8-0.6-39.9-0.6c-93,0-240.3,7.1-358.6,12.9
					c-35.4,1.7-68.9,3.3-97.1,4.6c-16.7,0.8-32.7,1.1-47.6,1.1c-31.4,0-58.6-1.6-80.7-4.9l-1.4-0.2v82.2h1.1c10.6,0,27,0,47.6,0
					c100.6,0,343,0.4,420.3,4.1c40.6,1.9,99.1,3.5,161.2,5.1c91,2.3,185.2,4.8,218.4,8.6c15.6,1.8,29.8,2.9,43,3.7
					c-0.8,0.7-1.6,1.5-2.3,2.3c-1.1,1.2-0.3,3.2,2.5,2.4c5.4-1.6,11-2.9,16.6-3.9c-3.3,2.2-6.4,4.7-9.3,7.4c-1,0.9-0.8,3.7,2.3,3
					c14.8-3.5,29.9-6.3,45.8-6.8c-3.8,1.9-7.7,3.7-11.6,5.5c-1.8,0.9-1.4,3.6,1.6,3.1c15.2-2.5,29.7-6.1,45.2-7.2l-1.3,0.5
					c-1.6,0.6-2.6,3.2,0.3,3.1c9.2-0.1,18.3-0.7,27.5-1.7c-0.5,0.6-0.4,1.5,0.2,2c0.2,0.2,0.5,0.3,0.8,0.3c15.1,2.2,29.5-1.8,44-4
					c18,0.6,37,1.2,55,1.6c-1.3,1.1-2.6,2.3-3.7,3.5c-0.8,0.9,0.2,2.1,1.8,1.3c3.4-1.7,6.9-3.2,10.4-4.6l8.8,0.2
					c-2.6,2.7-4.9,5.6-7.1,8.7c-0.7,0.9,0.5,2.3,2.3,1.6c10.2-3.7,20.5-7.2,31.3-9.9l8.8,0c-1.5,1.2-2.8,2.4-4.1,3.8
					c-1.2,1.3,0.3,2.9,2.6,1.9c4.8-2.1,9.7-4,14.8-5.7c4.1-0.1,7.6-0.2,10.3-0.3c1.2,0,2.3-0.1,3.5-0.1c1,2.7,2.5,5.2,4.4,7.4
					c0.7,0.5,1.6,0.6,2.4,0.3c4.7-1.6,8.9-4.5,12.1-8.3c4.3-0.1,8.7-0.2,13.1-0.2c3.6,1.6,7.4,3.1,11.3,4.5c1.2,0.4,2.5-0.3,2.9-1.5
					c0-0.1,0-0.1,0.1-0.2c0-1-0.1-2.1-0.2-3.1c2,0,4-0.1,6-0.1c18.6-0.2,37.8-0.4,56.5-1.2c14.9-0.7,23.3-1.5,31.5-2.4
					c11.9-1.3,23.1-2.5,53.7-2.5c50.5,0,119.6,0,161.5-0.8c14.2-0.2,31.7-0.4,50.3-0.4c21.9-0.1,44.2-0.2,62.4-0.6
					c0,0.2,0.2,0.4,0.6,0.4c14.5,0.2,27.4,2.7,40.6,6.2c0.6,0.2,1.2-0.1,1.4-0.7c0,0,0,0,0,0c0.3-3.9-3.6-6.1-8.8-7.5
					c2-0.2,4-0.3,5.8-0.5c13,1.1,25.3,3.7,34.3,9.7c1.4,0.9,3.2-0.4,3.5-1.1c1.4-4.5-2.3-7.7-7.6-10c9.4,1.1,18.2,3.7,24.1,8.1
					c1.5,1,3.4,0.7,4.6-0.7c5.4-7.4-4.8-12.7-16.1-15.9c13.6,0.2,27.2,1,40.7,1.7c2.1,0.1,3.5-1.7,2.4-2.7
					c-3.3-2.9-7.6-4.7-12.4-5.9c8.6-0.3,16.3-0.4,25.1-0.5c5.4-0.1,11.1-0.1,17.5-0.3c4.3,0.4,8.6,0.7,12.9,0.8
					c0.8,0.1,1.6-0.4,1.9-1.2c5.6-0.1,11.8-0.3,18.8-0.5l15.9-0.5c40.3-1.3,86-2.9,118.8-2.9c6,0,11.5,0,16.2,0.2s10,0.2,15.9,0.2
					c34,0,79.3-1.7,106.6-3.5c-8.2,2.3-15.9,5.9-23,10.6l0,0l0,0c-0.1,0.1-0.2,0.1-0.2,0.2c-0.8,0.5,0,1.7,1.3,1.2
					c8-3.2,16.2-5.7,24.6-7.5c-1.4,0.8-2.7,1.7-3.9,2.7c-0.8,0.6-0.4,2.2,1.4,1.8c8.3-1.5,16.1-3.5,24.6-4.5c-2.1,1.6-4,3.5-5.5,5.6
					c-0.6,0.9,0.5,1.9,2.1,1.5c5.7-1.6,10.2-4.3,15.4-6.4c9.4-3.8,14.9,4.6,21.4,7.5c1.4,0.6,3.3-0.2,3.4-1.1
					c0.1-2.3-0.4-4.6-1.6-6.6c8,2.9,14.7,6.9,24.3,7.7c1.1,0.1,2.1-0.4,2.5-1.4c0.5-2.4,0-5-1.4-7c15.4,1.3,31.5,2.4,46.5,2.6h1.1
					v-97.5L155.4,342.4z M-986.3,469.9c0.3-0.3,0.6-0.6,0.8-1c0.3,0,0.7,0,1,0C-985,469.3-985.7,469.6-986.3,469.9z"/>
				<path class="st22" d="M-681.5,366.8c27.5,4.5,56.4-3.9,83.5,2.4c1.3,0.3,1.6,1.3,0.4,1.8c-4,1.5-7,3.7-10.6,5.5
					c29.7,4.4,61.3,3,91.4,0.6c32-2.5,63.6-6.5,95.4-9.8c28.4-2.8,57.2-3.1,85.9-4.2c28.4-1.1,58.4-2.4,84.9-9.2
					c-9.5-2.3-19.1-4.3-29.5-4.5c-2,0-2-2,0-1.9c15.2,0.3,30.4,0.4,45.6,0.1c49.3-0.7,98.5-2.8,147.8-2.9c41.8,0,83.6,0,125.3,1.2
					c38.9,1.1,78.6,3,117.5,7v-10.5l-0.8-0.1c-71.9-10.7-167.2-16-283.3-16c-180.9,0-379.4,12.7-531.2,25.3
					C-668.9,355.4-677.5,360.2-681.5,366.8z"/>
				
					<linearGradient id="SVGID_15_" gradientUnits="userSpaceOnUse" x1="-1079.7488" y1="824.858" x2="-848.0787" y2="-165.302" gradientTransform="matrix(1 0 0 -1 0 772)">
					<stop  offset="2.000000e-02" style="stop-color:#328635"/>
					<stop  offset="0.18" style="stop-color:#4A9739"/>
					<stop  offset="0.51" style="stop-color:#85C043"/>
					<stop  offset="0.64" style="stop-color:#9CCB5B"/>
					<stop  offset="0.84" style="stop-color:#C8DF89"/>
				</linearGradient>
				<path class="st23" d="M-35.3,401.2c-56.4,3.3-112.4,7.2-168.6,12c-53.7,4.6-107.8,9.1-162.1,9.5c-44,0.4-93.1-0.7-132.1-14.5
					c-1.1-0.4-0.9-1.3,0-1.7c12.2-5.3,21.5-12.5,34.2-17.2c-48.1-10.7-106.1-5.9-155.4-1.8c-52,4.3-103.2,11-154.9,16.2
					c27.2,6.5,62,5.5,79.9,21.4c0.5,0.5,0.1,1-0.6,1.3c-31.1,14.3-74.3,18.2-112.1,20.9c-46.7,3.3-93.9,3.9-140.9,3.8
					c-43.5-0.1-86.9-0.6-130.4-1.5c-46.4-1-98.6-2.2-139.5-17.1c-0.9-0.3-1-1-0.3-1.5c10.5-8,24.7-13.5,38.2-19.4
					c-11.1-2.6-22.6-4.7-34.2-6.3c-64.4-8.5-131.5-5.6-196.8-3.3c-71.6,2.6-142.7,2-214.3,0.5c-79.7-1.6-159.5-3.8-239.3-2.5
					c-29.6,0.4-59.2,0.9-88.8,0.7c-36.6-0.2-74.6-0.7-110.4-5.9c-8.9-1.3-22.4-3.5-32.1-7.5v52.2h1.1c10.6,0,27,0,47.6,0
					c100.6,0,343,0.4,420.3,4.1c40.6,1.9,99.1,3.5,161.2,5.1c91,2.3,185.2,4.8,218.4,8.6c15.6,1.8,29.8,2.9,43,3.7
					c-0.8,0.7-1.6,1.5-2.3,2.3c-1.1,1.2-0.3,3.2,2.5,2.4c5.4-1.6,11-2.9,16.6-3.9c-3.3,2.2-6.4,4.7-9.3,7.4c-1,0.9-0.8,3.7,2.3,3
					c14.8-3.5,29.9-6.3,45.8-6.8c-3.8,1.9-7.7,3.7-11.6,5.5c-1.8,0.9-1.4,3.6,1.6,3.1c15.2-2.5,29.7-6.1,45.2-7.2l-1.3,0.5
					c-1.6,0.6-2.6,3.2,0.3,3.1c9.2-0.1,18.4-0.6,27.5-1.7c-0.5,0.6-0.4,1.5,0.2,2c0.2,0.2,0.5,0.3,0.8,0.3c15.1,2.2,29.5-1.8,44-4
					c18,0.6,37,1.2,55,1.6c-1.3,1.1-2.6,2.3-3.7,3.5c-0.8,0.9,0.2,2.1,1.8,1.3c3.4-1.7,6.9-3.2,10.4-4.6l8.8,0.2
					c-2.6,2.7-4.9,5.6-7.1,8.7c-0.7,0.9,0.5,2.3,2.3,1.6c10.2-3.7,20.5-7.2,31.3-9.9l8.8,0c-1.5,1.2-2.8,2.4-4.1,3.8
					c-1.2,1.3,0.3,2.9,2.6,1.9c4.8-2.1,9.7-4,14.8-5.7c4.1-0.1,7.6-0.2,10.3-0.3c1.2,0,2.3-0.1,3.5-0.1c1,2.7,2.5,5.2,4.4,7.4
					c0.7,0.5,1.6,0.6,2.4,0.3c4.7-1.6,8.9-4.5,12.1-8.3c4.3-0.1,8.7-0.2,13.1-0.2c3.6,1.6,7.4,3.1,11.3,4.5c1.2,0.4,2.5-0.3,2.9-1.5
					c0-0.1,0-0.1,0.1-0.2c0-1-0.1-2.1-0.2-3.1c2,0,4-0.1,6-0.1c18.6-0.2,37.8-0.4,56.5-1.2c14.9-0.7,23.3-1.5,31.5-2.4
					c11.9-1.3,23.1-2.5,53.7-2.5c50.5,0,119.6,0,161.5-0.8c14.2-0.2,31.7-0.4,50.3-0.4c21.9-0.1,44.2-0.2,62.4-0.6
					c0,0.2,0.2,0.4,0.6,0.4c14.5,0.2,27.4,2.7,40.6,6.2c0.6,0.2,1.2-0.1,1.4-0.7c0,0,0,0,0,0c0.3-3.9-3.6-6.1-8.8-7.5
					c2-0.2,4-0.3,5.8-0.5c13,1.1,25.3,3.7,34.3,9.7c1.4,0.9,3.2-0.4,3.5-1.1c1.4-4.5-2.3-7.7-7.6-10c9.4,1.1,18.2,3.7,24.1,8.1
					c1.5,1,3.4,0.7,4.6-0.7c5.4-7.4-4.8-12.7-16.1-15.9c13.6,0.2,27.2,1,40.7,1.7c2.1,0.1,3.5-1.7,2.4-2.7
					c-3.3-2.9-7.6-4.7-12.4-5.9c8.6-0.3,16.3-0.4,25.1-0.5c5.4-0.1,11.1-0.1,17.5-0.3c4.3,0.4,8.6,0.7,12.9,0.8
					c0.8,0.1,1.6-0.4,1.9-1.2c5.6-0.1,11.8-0.3,18.8-0.5l15.9-0.5c40.3-1.3,86-2.9,118.8-2.9c6,0,11.5,0,16.2,0.2s10,0.2,15.9,0.2
					c34,0,79.3-1.7,106.6-3.5c-8.2,2.3-15.9,5.9-23,10.6l0,0l0,0c-0.1,0.1-0.2,0.1-0.2,0.2c-0.8,0.5,0,1.7,1.3,1.2
					c8-3.2,16.2-5.7,24.6-7.5c-1.4,0.8-2.7,1.7-3.9,2.7c-0.8,0.6-0.4,2.2,1.4,1.8c8.3-1.5,16.1-3.5,24.6-4.5c-2.1,1.6-4,3.5-5.5,5.6
					c-0.6,0.9,0.5,1.9,2.1,1.5c5.7-1.6,10.2-4.3,15.4-6.4c9.4-3.8,14.9,4.6,21.4,7.5c1.4,0.6,3.3-0.2,3.4-1.1
					c0.1-2.3-0.4-4.6-1.6-6.6c8,2.9,14.7,6.9,24.3,7.7c1.1,0.1,2.1-0.4,2.5-1.4c0.5-2.4,0-5-1.4-7c15.4,1.3,31.5,2.4,46.5,2.6h1.1
					v-45.2C92.3,394.4,28.4,397.5-35.3,401.2z M-986.3,469.9c0.3-0.3,0.6-0.6,0.8-1c0.3,0,0.7,0,1,0
					C-985,469.3-985.7,469.6-986.3,469.9L-986.3,469.9z"/>
				
					<linearGradient id="SVGID_16_" gradientUnits="userSpaceOnUse" x1="314.8935" y1="537.3691" x2="441.8935" y2="-5.4109" gradientTransform="matrix(1 0 0 -1 0 772)">
					<stop  offset="2.000000e-02" style="stop-color:#328635"/>
					<stop  offset="0.18" style="stop-color:#4A9739"/>
					<stop  offset="0.51" style="stop-color:#85C043"/>
					<stop  offset="0.64" style="stop-color:#9CCB5B"/>
					<stop  offset="0.84" style="stop-color:#C8DF89"/>
				</linearGradient>
				<path class="st24" d="M619.5,461.8c0.9-2.1,2-4.1,3-6c0-0.1-0.1-0.2-0.2-0.3c-7.1-0.2-14.2-0.4-21.3-0.7
					c-22.8-0.9-48.3-2.1-68.4-16.3c-0.4-0.3-0.5-1-0.2-1.4c0,0,0,0,0,0c5.2-7.6,12.1-12.8,18.7-18.4c-5.4-2.5-11-4.5-16.8-6
					c-31.6-8.1-64.5-5.3-96.5-3.1c-35.1,2.4-69.9,1.9-105.1,0.5c-39.1-1.5-78.2-3.6-117.3-2.4c-14.5,0.4-29,0.9-43.5,0.6
					c-17.9-0.2-36.6-0.7-54.1-5.6c-4.3-1.2-11-3.3-15.7-7.1v23c11.9,6.1,41,6.9,45.5,7.1c36.3,1.5,72.6,2.6,108.9,2.9
					c25.8,0.2,51.5,0.3,77.3,0.2c25.6-0.1,51.1-1.2,76.7-1.1c23.3,0,46.5,1.6,69.7,3.9c16.2,1.6,35.3,3.4,48.1,16.4
					c0.2,0.2,0.3,0.5,0.2,0.8c1.4-1.3,2.7-2.7,3.8-4.3c0.7-0.9,1.7,0.4,1.1,1.3c-2.1,2.7-4.5,5.2-7.2,7.3
					c10.6,0.9,21.3-1.5,31.8,1.5c0.8,0.2,0.7,1.5,0,1.8c-1.6,0.7-3.2,1.7-4.8,2.5c6.3,2.6,13.4,1.9,20,2.6c0.5,0.2,0.8,0.7,0.6,1.3
					c-0.1,0.2-0.2,0.4-0.4,0.5c-1.8,0.6-3.5,1.5-5.2,2.2c10.5,1.4,20.8-4.5,31.3-4c0.5,0.2,0.8,0.7,0.7,1.3c0,0.2-0.1,0.3-0.3,0.4
					c-1,0.6-2,1.3-3,2c5.7,0.2,11.5-0.2,17.1-1.3c1.8-0.3,3.6-0.6,5.3-1C619.3,462.4,619.3,462,619.5,461.8z"/>
				
					<linearGradient id="SVGID_17_" gradientUnits="userSpaceOnUse" x1="1286.8285" y1="425.8698" x2="1273.6985" y2="-198.2302" gradientTransform="matrix(1 0 0 -1 0 772)">
					<stop  offset="9.000000e-02" style="stop-color:#CCDD49"/>
					<stop  offset="0.29" style="stop-color:#B6D435"/>
					<stop  offset="0.47" style="stop-color:#A7CE28"/>
					<stop  offset="0.96" style="stop-color:#80A22F"/>
				</linearGradient>
				<path class="st25" d="M-731,415v511.4h4022V442.2c0-5.1-1.5-11.9-7.4-18.9c-19.7-22.9-69.7-25.9-74.4-26.2
					c-704.1-2.4-1408.1-1.8-2112.1,1.8C487.6,402-121.7,407.4-731,415z"/>
				<path class="st26" d="M774.2,412c0.3,8.6-103.7,17.8-232.2,20.4s-232.9-2.1-233.1-10.7s103.6-17.8,232.1-20.5
					S773.9,403.4,774.2,412z"/>
				<path class="st26" d="M885.8,469.4c0,4.3-52.1,7.8-116.4,7.8S653,473.7,653,469.4s52.2-7.8,116.4-7.8S885.8,465.1,885.8,469.4z"
					/>
				<path class="st27" d="M540.1,488c124.3,1.4,238.8,18.2,149,47.8s199,10.2,499.3,29.6s470.8,102.4,194.5,153.5
					s-1055.2,54.6-931.3-39.8S423,625.6,326.3,587S332,485.8,540.1,488z"/>
				<path class="st28" d="M636.6,424.4c0,0-375.9,34-270.6,99.8s180.4,68,88.1,120.2s375.8,106.6,809.6,108.8
					s1131.8-127,715.2-235.8C1544.6,403.9,698.8,417.5,636.6,424.4z"/>
				
					<linearGradient id="SVGID_18_" gradientUnits="userSpaceOnUse" x1="1231.9747" y1="-215.01" x2="1231.9747" y2="421.55" gradientTransform="matrix(1 0 0 -1 0 772)">
					<stop  offset="0" style="stop-color:#7FCEF4"/>
					<stop  offset="0.39" style="stop-color:#B1DBF5"/>
					<stop  offset="1" style="stop-color:#4AA8B0"/>
				</linearGradient>
				<path class="st29" d="M651.4,432.5c0,0-369.5,31.7-266,93s177.4,63.4,86.6,112s369.4,99.4,796,101.5s1112.8-118.4,703.1-219.8
					C1544.2,413.4,712.6,426.2,651.4,432.5z"/>
				<path class="st30" d="M1971.1,519.2c-426.9-105.8-1258.5-93-1319.7-86.7c0,0-369.5,31.7-266,93s177.4,63.4,86.6,112
					s369.4,99.4,796,101.5S2380.7,620.6,1971.1,519.2z M1080.7,574.2c-34.5,1.8-69.5,3.2-103.5,10.3c-6.6,1.4-15.2,2.4-20.5,6.8
					c-7.2,5.9-0.5,15,4.3,20.1c4.1,4.3,9.5,7.3,14.6,10.1c14.6,7.8,29.9,14.4,44.2,22.9c3.9,2.2,7.7,4.7,11.3,7.5
					c9,5.5,17.4,12,22.8,20.2c19.8,30.7-49.6,36.4-63.6,37.4c-67.6,4.2-135.4,3-202.8-3.6c-34-3.3-67.8-8.4-101.5-14.1
					c-29.6-5-60-9.3-88.4-19.5c-11.6-4.1-32-12.7-21.1-28.2c3.3-4.4,7.2-8.3,11.8-11.4c7.3-10.8,24.7-11.7,36.2-13.3
					c8.6-1.3,61.3-7,63.9-7.5c47.9-8.8,91.5-34.9,22.9-46.2c-29.9-4.9-88.3-3.2-121.1-5.3c-37-2.8-61.9-9.5-80.9-13.1
					c-17-3.1-38.8-11.6-40.9-22.5c-4.8-25.9,74.6-32.1,90-34.4c62.1-9,125.3-13.9,187.9-18.4c137-9.8,275.8-11,412.9-0.8
					c33.7,2.5,67.2,7,100.6,12.7c20.4,3.6,40.8,5.8,61.2,9c10.9,1.7,58.4,9.8,36.2,29.1c-7.9,7-18.6,10.8-28.4,14.1
					c-14.7,4.8-29.7,8.8-44.9,12c-33.1,7.2-66.6,12.5-100.2,16.8C1149.4,569.4,1115.1,572.5,1080.7,574.2L1080.7,574.2z
					 M1966.6,623.8c-46.2,26.4-112.3,36.3-185.3,46.1c-77,10.4-154.7,16-232.3,21.7c-46.2,3.4-92.6,5.4-138.9,5.2
					c-38.8-0.2-77.9-0.4-116.6-3.4c-18.6-1.4-76.2-2.9-83.6-26.8c-19-61.2,291.2-80.6,327.7-83.2c119.7-8.7,238.8-5.2,358.3,3.4
					C1910.8,587.8,2015.7,595.8,1966.6,623.8L1966.6,623.8z"/>
				
					<linearGradient id="SVGID_19_" gradientUnits="userSpaceOnUse" x1="1231.9673" y1="-215.03" x2="1231.9673" y2="421.56" gradientTransform="matrix(1 0 0 -1 0 772)">
					<stop  offset="0" style="stop-color:#7FCEF4"/>
					<stop  offset="0.39" style="stop-color:#B1DBF5"/>
					<stop  offset="1" style="stop-color:#0095AA"/>
				</linearGradient>
				<path class="st31" d="M1971.1,519.2c-426.9-105.8-1258.5-93-1319.7-86.7c0,0-369.5,31.7-266,93s177.4,63.4,86.6,112
					c-24.7,13.2-8.5,26.6,36.6,39.1c-2.6-1.8-4.4-4.6-4.8-7.8c-1.1-8.4,6.6-14.1,13-17.8c11.8-6.8,25.6-10,36.1-19
					c7.2-6.2,16.4-16.9,11.1-27.1c-5.2-10-15.7-15.7-25.8-19.6c-29-11.4-58.5-20.6-85.5-36.5c-9.2-5.4-34-15.6-24.4-29.5
					c7.9-11.5,28.4-14.4,40.9-16.7c25.1-4.8,49.9-10.8,75-15.5c100.3-18.5,202.1-25,304-24.4c7.4-1.3,14.8-2.2,22.3-2.5
					c22.5-1.3,44.8-4.5,67.2-5.4c45.1-1.8,90.6-0.7,135.7-0.5s90.2,5.2,135.2,8.4c31.8,2.3,63.7,5,95.5,7.9
					c23.2,0.1,46.5,3,69.6,4.2c24.3,1.4,48.2,5.2,72.5,6.8c25.7,1.6,51.6,2.1,77,6.3c1,0.2,2,0.3,3,0.5c45.8,1,91.1,5.9,136.6,11.9
					c26.5,3.5,53.2,6.5,79.5,11.1c21.3,3.7,41.8,9,62.7,14.2c8.2,2,26,4.1,29,13.8c3.2,10.2-19.9,9.3-22.3,15.3c0,0-0.1,0.1-0.1,0.1
					c0.1,5.4,12.7,6.8,15.1,6.9c7.8,0.6,15.7,0.1,23.5,0.4c18.6,0.6,37.3,0.4,55.8,1.7c34.4,2.4,70.6,4.1,103.4,16
					c10.9,4,26.2,10.4,29.8,22.8s-3.5,21.4-12,29.5c-9.9,9.4-22.4,13.9-34.4,19.4C2119.8,611.6,2150.4,563.6,1971.1,519.2z"/>
				<path class="st32" d="M517,643.5c5.5-2.4,12.4-5.2,15.3-10.9c4.4-8.8,1.6-17.7-5-24.5c-4.9-4.9-10.4-9.1-16.3-12.5
					c6.7,11.1-3.7,23-39.1,41.9c-20.2,10.8-13.1,21.7,14.7,32.2C486.8,654.7,503.8,649.3,517,643.5z"/>
				<path class="st32" d="M458.6,487.1c45.3-12.4,91.9-17.2,138.3-23.8c24-3.4,48-7.4,72.2-9.6c21.5-2,43-2.3,64.6-2.8
					c22.4-0.4,44.9-1.2,67.3-0.5c20.8,0.7,41.7,2.3,62.5,0.3c1.6-0.7,3.3-1.4,5-1.9c17.8-5.9,39.9-1.4,58.4-1.6
					c57.1-0.5,114.6-0.1,171.6,3.6c57.2,3.7,113.9,10.5,171.3,11.8c29,0.7,58,0.9,86.9,2.1c21.8,0.9,45.5,0.4,67.3,4.9
					c5-1.8,13.9,0.4,16.6,0.9c40,7.3,81.4,7.6,122,10.5c47.3,3.3,94.9,5.5,141.8,12.2c21,3,41.7,7.5,62.5,11.2
					c8.3,1.5,16.7,3,24.9,5.1c13.6-0.8,26.3,3.5,39.5,6.7c18,4.4,36.6,7.2,54.8,10.8c32.6,6.6,65.5,11,98.3,16.6
					c14.5,2.5,29.2,5.4,42.9,10.9c12.3,5,24,11.9,35.3,18.8c13.5,8.1,21.4,18.7,25.6,31.2c25.8-28-3.6-57.5-117-85.6
					c-426.9-105.8-1258.5-93-1319.7-86.7c0,0-366.9,31.5-267,92.4C402.8,502.8,431,494.6,458.6,487.1z"/>
				<g class="st1">
					<path class="st32" d="M466,641.3c-12.4,9.6-4,19.2,20.6,28.4c0-2.3,0.5-4.6,1.4-6.7C480,656.6,472.9,649,466,641.3z"/>
					<path class="st32" d="M470.4,638.4c-0.3,0.2-0.6,0.4-0.9,0.5c6.5,7.2,13.1,14.4,20.6,20.4c1.9-2.4,4.1-4.4,6.7-6.1
						C487.8,649.5,478.3,644.6,470.4,638.4z"/>
					<path class="st33" d="M506.5,625.9c-2-2.1-4-4.1-6-6.2c-6.2,4.9-14.8,10.3-26.1,16.5c8.1,6,17.8,10.8,26.9,14.4
						c5-2.7,10.7-4.9,15.8-7.1c1.1-0.5,2.3-1.1,3.5-1.6C515.9,636.5,511.5,631,506.5,625.9z"/>
					<path class="st32" d="M510.9,608.6c1.9,1.7,3.7,3.3,5.4,5c5.9,4.8,11.9,9.4,17.6,14.4c1.6-7.2-1.2-14.2-6.6-19.8
						c-4.8-4.9-10.3-9.1-16.3-12.5C513.5,599.7,513.6,603.9,510.9,608.6z"/>
					<path class="st32" d="M514,617.1c-1-0.8-1.9-1.5-2.8-2.3c-0.3-0.3-0.5-0.6-0.5-1c-0.3-0.3-0.6-0.6-0.9-0.9s-0.8-0.8-1.1-1.1
						c-1.5,1.9-3.2,3.7-5.1,5.3c2.5,2.6,5.1,5.2,7.7,7.7c4.3,4.4,8.3,9,12.1,13.8c0.7-0.8,1.8-1.4,2.7-0.6c0.2,0.2,0.4,0.4,0.6,0.5
						c2.1-1.4,3.9-3.1,5.2-5.3C525.6,628.3,519.7,622.8,514,617.1z"/>
					<path class="st32" d="M370,496.2c-6.1,8.7-2.7,18.3,14.4,28.7c0.9-1.1,1.9-2.2,2.9-3.3C381,513.6,375.2,505.1,370,496.2z"/>
					<path class="st32" d="M380.4,486.9c-2.2,1.4-4.4,3-6.4,4.8c5.2,9,10.9,17.7,17.1,26.1c1.5-1.4,3.2-2.7,4.8-4
						C390.5,505,385.3,496.1,380.4,486.9z"/>
					<path class="st33" d="M467.4,458.5c-34.2,7.2-64.8,15.9-83,26c5.3,8.7,10.5,17.4,15.7,26.1c17-11.9,37.8-18,58.4-23.5
						c7.7-2.1,15.4-3.9,23.1-5.6C476.8,473.9,472,466.3,467.4,458.5z"/>
					<path class="st32" d="M575.1,466.3c2.4-0.3,4.8-0.6,7.1-1c-2.4-8.2-5-16.3-7.6-24.4c-2.2,0.3-4.5,0.6-6.7,0.9
						C570.3,450,572.7,458.2,575.1,466.3z"/>
					<path class="st32" d="M560.9,442.8c-28.4,3.9-59.9,8.8-89.2,14.8c4.6,7.7,9.4,15.4,14.3,22.9c27.6-5.9,55.5-9.7,83.4-13.4
						C566.3,459.1,563.5,451,560.9,442.8z"/>
					<path class="st33" d="M850,428.4c-107.7,0.1-181.9,2.4-198.7,4.1c0,0-31.1,2.7-72.8,8c2.7,8.1,5.3,16.2,7.6,24.4
						c3.5-0.5,7.1-1,10.6-1.5c24-3.4,48-7.4,72.2-9.6c21.5-2,43-2.3,64.6-2.8c22.4-0.4,44.9-1.2,67.3-0.5c17.8,0.6,35.7,1.9,53.5,1
						C852.9,443.9,850.8,436.1,850,428.4z"/>
				</g>
				
					<linearGradient id="SVGID_20_" gradientUnits="userSpaceOnUse" x1="668.5011" y1="161.2215" x2="794.5609" y2="381.5711" gradientTransform="matrix(1 0 0 -1 0 772)">
					<stop  offset="0" style="stop-color:#7FCEF4"/>
					<stop  offset="0.39" style="stop-color:#B1DBF5"/>
					<stop  offset="1" style="stop-color:#4AA8B0"/>
				</linearGradient>
				<path class="st34" d="M951.3,480.2c-32.3-8.3-67.8-5.1-100.9-4.7c-34.3,0.4-68.4,0.9-102.7,3.9c-35.6,3.1-71.1,6.2-106.5,10.3
					c-24.6,2.8-49.2,5.5-73.8,8.8c-12.4,1.7-52.7,4.4-54.4,17.2c-1,6.7,12.3,13.4,17,15.7c10.2,4.9,22.3,5.8,33.3,7.5
					c15.8,2.5,31.6,5.1,47.4,7.2c62.6,8.2,125.3,13.2,188.2,4.5c10.1-1.4,32.6-0.1,33.1-14.9c0.2-5.6-8.4-9-12.4-10.7
					s-8.1-3-12.2-4.4c-1-0.4-14.3-4.9-7.3-8s15.8-2.4,23.2-3.3c16.4-2.1,32.8-4.3,49.2-6.8c15.5-2.4,31-5.3,46.4-8.5
					c9.9-2.1,22.9-1.9,31.2-8.2C951.2,484.9,954.1,480.9,951.3,480.2z"/>
				
					<linearGradient id="SVGID_21_" gradientUnits="userSpaceOnUse" x1="754.7295" y1="239.8225" x2="899.4468" y2="239.8225" gradientTransform="matrix(1 0 0 -1 0 772)">
					<stop  offset="0" style="stop-color:#7FCEF4"/>
					<stop  offset="0.39" style="stop-color:#B1DBF5"/>
					<stop  offset="1" style="stop-color:#4AA8B0"/>
				</linearGradient>
				<path class="st35" d="M899.2,499.8c-24.8,3-52.2,3.8-75.7,11.6c-14.3,4.7,14.3,17.5,16.8,20.7c13.3,17.3-46.9,21.4-56.7,22.5
					c-2,0.2-34.3,2.9-28.1,9.7c0.6,0.6,1.8-0.5,1.6-1.1c-0.9-2.5,49.2-8.9,54.7-9.7c12-1.8,26.5-3.9,32.8-13.8
					c7.8-12.3-11-17.8-19.5-23.7c-2.8-1.9,14.2-5.7,14.7-5.8c6.1-1.4,12.2-2.5,18.4-3.5c13.7-2.4,27.3-4.4,41-6.3
					C899.4,500.3,899.7,499.8,899.2,499.8z"/>
				
					<linearGradient id="SVGID_22_" gradientUnits="userSpaceOnUse" x1="411.7966" y1="263.415" x2="509.1381" y2="263.415" gradientTransform="matrix(1 0 0 -1 0 772)">
					<stop  offset="0" style="stop-color:#7FCEF4"/>
					<stop  offset="0.39" style="stop-color:#B1DBF5"/>
					<stop  offset="1" style="stop-color:#4AA8B0"/>
				</linearGradient>
				<path class="st36" d="M508.9,483.5c-25,6.3-51.3,9.1-75.3,19c-14.2,5.8-34.1,20.4-11.9,31.2c0.6,0.3,1.8-0.9,1.2-1.4
					c-4.2-3.2-9.3-6-6.6-13.3c2.2-6,12.3-10,17.6-12.5c7.5-3.5,15.3-6.5,23.2-9c16.9-5.7,34.5-8.8,51.7-13.3
					C509.1,484,509.3,483.4,508.9,483.5z"/>
				
					<linearGradient id="SVGID_23_" gradientUnits="userSpaceOnUse" x1="481.5293" y1="178.1854" x2="599.4545" y2="178.1854" gradientTransform="matrix(1 0 0 -1 0 772)">
					<stop  offset="0" style="stop-color:#7FCEF4"/>
					<stop  offset="0.39" style="stop-color:#B1DBF5"/>
					<stop  offset="1" style="stop-color:#4AA8B0"/>
				</linearGradient>
				<path class="st37" d="M589.4,604c-7.5-3.9-15.6-6.7-23.1-10.7c-6.7-3.5-4.6-10.4,1-14.4c2-1.3,3.7-3,5-5c3.5-6.1-6-9-9.9-10.4
					c-26.2-8.6-54.3-9.7-80.2-19.4c-0.3-0.1-0.8,0.5-0.5,0.7c23,11.5,49.3,14.3,73.8,21.5c4,1.2,7.9,2.5,11.3,5.1
					c4,3.2-4.2,8.5-6.1,10.7c-2.7,3-2.7,7.5,0,10.4c3.1,3.7,9.9,5.6,14.1,7.5c6.8,3.1,16.2,6.3,20.4,12.9c2,3.1-12.9,7.9-14.5,8.6
					c-6.2,2.6-12.2,5.8-18.2,8.6s-11.7,6.2-13.5,12.8c-0.2,0.8,0.9,0.4,1.1-0.1c5.2-12.5,28.1-17.5,39.5-21.2
					c4.2-1.4,10-3.5,9.8-8.8C599.2,608.6,592.5,605.6,589.4,604z"/>
				<path class="st38" d="M776.8,610.1c0,7.9,28.2,14.3,63.1,14.3s63.1-6.4,63.1-14.3s-28.3-14.3-63.1-14.3S776.8,602.2,776.8,610.1
					z"/>
				<path class="st39" d="M885.6,608.6c4.1-3.4,8-7.2,12.7-9.6c0-2.7,0.1-5.4,0.1-8c-5.2-8.5-10-17.3-14.4-26.3
					c0.1-0.3-0.1-0.7-0.4-0.8c0,0-0.1,0-0.1,0c-5.1-1-10.1-2.2-15.2-3.4c-4.9-1.3-9.9-2.3-14.6-4.1c-3.6-1.4-6.6-4-10.2-5.3
					s-7.9-0.4-11.5,0.8c-4,1.3-7.7,3.8-11.3,6c-4.6,2.8-9.3,5.6-13.8,8.5c-8.2,5-16.4,10.2-24.5,15.4c0-0.6-0.7-1-1.1-0.5
					c-0.4,0.6-0.7,1.2-1,1.8c-0.3,0.2-0.5,0.3-0.8,0.5c-0.1,0.1-0.2,0.3-0.1,0.4c0.1,0.1,0.3,0.2,0.4,0.1c0,0,0.1,0,0.1-0.1
					c-1.3,3.7,0,7.2,2.8,10.5c3.6,4.2,6.7,8.7,10.2,12.9s7.2,5.7,12.5,5.1c3.3-0.6,6.7-0.8,10-0.6c3.8,0.3,7.6,0.5,11.4,0.8
					c7.8,0.4,15.5,0.7,23.3,1c6.6,0.2,13,1.9,19.7,1.9C876.1,615.6,880.8,612.6,885.6,608.6z"/>
				
					<linearGradient id="SVGID_24_" gradientUnits="userSpaceOnUse" x1="787.5988" y1="95.5806" x2="858.2985" y2="95.5806" gradientTransform="matrix(0.9987 -5.094156e-02 -5.094156e-02 -0.9987 -1.7739 733.1794)">
					<stop  offset="1.000000e-02" style="stop-color:#9E503C"/>
					<stop  offset="1" style="stop-color:#B2856A"/>
				</linearGradient>
				<path class="st40" d="M843,591.6c-1.5-4.1-3.3-7.9-7.8-8.5s-9.1,1.2-13.5,1.6s-9.3,0.5-13.7-1c-6.3-2.1-12.3-4.8-18.7-6.4
					c-2.3,1.5-4.5,2.9-6.8,4.3c0-0.6-0.7-1-1.1-0.5c-0.4,0.6-0.7,1.2-1,1.8c-0.3,0.2-0.5,0.3-0.8,0.5c-0.1,0.1-0.2,0.3-0.1,0.4
					c0.1,0.1,0.3,0.2,0.4,0.1l0,0c0,0,0.1,0,0.1-0.1c-1.3,3.7,0,7.2,2.8,10.5c3.6,4.2,6.7,8.7,10.2,12.9s7.2,5.7,12.5,5.1
					c3.3-0.6,6.7-0.8,10-0.6c3.8,0.3,7.6,0.5,11.4,0.8c7.8,0.4,15.5,0.7,23.3,1l1.4,0.1c-0.6,0-3.7-10-4.1-11.1
					c-1.3-3.1-2.7-6.1-3.8-9.3C843.4,592.7,843.2,592.2,843,591.6z"/>
				
					<linearGradient id="SVGID_25_" gradientUnits="userSpaceOnUse" x1="787.6282" y1="100.9774" x2="909.5881" y2="100.9774" gradientTransform="matrix(0.9987 -5.094156e-02 -5.094156e-02 -0.9987 -1.7739 733.1794)">
					<stop  offset="1.000000e-02" style="stop-color:#8A3F29"/>
					<stop  offset="1" style="stop-color:#A56951"/>
				</linearGradient>
				<path class="st41" d="M885.6,608.6c4.1-3.4,8-7.2,12.7-9.6c0-2.7,0.1-5.4,0.1-8c-5.2-8.5-10-17.3-14.4-26.3
					c0.1-0.3-0.1-0.7-0.4-0.8c0,0-0.1,0-0.1,0c-0.1,0-0.2,0-0.2,0c-0.1-0.2-0.2-0.4-0.5-0.4c-5.1-1-10.1-2.1-15.1-3.4
					c-0.4-0.1-0.8-0.2-1.2-0.3c2.5,1.6,5,3.1,7.6,4.4c3.1,1.5,8,3.3,9.1,7.2c1.1,4.2,0.8,8.6,1.4,12.9c0.3,2,0.7,4.3-1.5,5.3
					c-4.9,2.3-9.9,1.1-15.1,1.1c-4.5,0-9.2,0.9-13.6,0c-5.9-1.2-13.3-7.1-12.8-13.9c-5.2,4.3-12.3,7.8-18.7,6.8
					c-8.6-1.4-13.6-9.8-21.9-11.8c-0.5-0.1-0.8-0.7-0.7-1.2c0,0,0,0,0-0.1c-3.7,2.3-7.5,4.7-11.2,7l0,0c-2.3,1.5-4.5,2.9-6.8,4.3
					c0-0.6-0.7-1-1.1-0.5c-0.4,0.6-0.7,1.2-1,1.8c-0.3,0.2-0.5,0.3-0.8,0.5c-0.1,0.1-0.2,0.3-0.1,0.4c0.1,0.1,0.3,0.2,0.4,0.1
					c0,0,0.1,0,0.1-0.1c-1.3,3.7,0,7.2,2.8,10.5c3.6,4.2,6.7,8.7,10.2,12.9s7.2,5.7,12.5,5.1c3.3-0.6,6.7-0.8,10-0.6
					c3.8,0.3,7.6,0.5,11.4,0.8c7.8,0.4,15.5,0.7,23.3,1c6.6,0.2,13,1.9,19.7,1.9C876.1,615.6,880.8,612.6,885.6,608.6z"/>
				
					<linearGradient id="SVGID_26_" gradientUnits="userSpaceOnUse" x1="787.651" y1="100.1233" x2="909.611" y2="100.1233" gradientTransform="matrix(0.9987 -5.094156e-02 -5.094156e-02 -0.9987 -1.7739 733.1794)">
					<stop  offset="1.000000e-02" style="stop-color:#8A3F29"/>
					<stop  offset="1" style="stop-color:#A56951"/>
				</linearGradient>
				<path class="st42" d="M885.6,608.6c4.1-3.4,8-7.2,12.7-9.6c0-2.7,0.1-5.4,0.1-8c-3.1-5.2-6.1-10.4-9-15.8
					c1,6.8,2.4,13.5,5.9,19.3c0.3,0.5,0.1,1.1-0.3,1.4c-10,5.8-22.6,14.3-34.3,10.2c-4.5-1.5-7.3-7.3-10.7-10.3
					c-2.9-2.7-4.8-6.1-7.1-9.2c7.1,19.8-10.4,8.6-13,2c-1.5-3.8-0.6-5.7,1.4-7.2c-4,0.7-7.9,1.1-11.9,0c-5.4-1.5-9.2-6.3-14.7-7.7
					c-0.5-0.1-0.8-0.7-0.7-1.2c0-0.1,0-0.1,0.1-0.2c1.6-3,3.6-5.7,6-8c-1,0.6-2.1,1.3-3.1,1.9c-5.9,3.6-11.8,7.3-17.7,11.1l0,0
					c-2.3,1.5-4.5,2.9-6.8,4.3c0-0.6-0.7-1-1.1-0.5c-0.4,0.6-0.7,1.2-1,1.8c-0.3,0.2-0.5,0.3-0.8,0.5c-0.1,0.1-0.2,0.3-0.1,0.4
					c0.1,0.1,0.3,0.2,0.4,0.1c0,0,0.1,0,0.1-0.1c-1.3,3.7,0,7.2,2.8,10.5c3.6,4.2,6.7,8.7,10.2,12.9s7.2,5.7,12.5,5.1
					c3.3-0.6,6.7-0.8,10-0.6c3.8,0.3,7.6,0.5,11.4,0.8c7.8,0.4,15.5,0.7,23.3,1c6.6,0.2,13,1.9,19.7,1.9
					C876.1,615.6,880.8,612.6,885.6,608.6z"/>
				
					<linearGradient id="SVGID_27_" gradientUnits="userSpaceOnUse" x1="787.6631" y1="96.9563" x2="909.4731" y2="96.9563" gradientTransform="matrix(0.9987 -5.094156e-02 -5.094156e-02 -0.9987 -1.7739 733.1794)">
					<stop  offset="1.000000e-02" style="stop-color:#8A3F29"/>
					<stop  offset="1" style="stop-color:#A56951"/>
				</linearGradient>
				<path class="st43" d="M875.9,611.4c-9,3.5-19.2,0.8-25.2-6.7c-0.3,1.2-0.6,2.5-0.9,3.7c-0.1,0.5-0.6,0.9-1.2,0.8
					c-4.7-0.9-11.4-0.9-15.1-4.7c-2.7-2.8-2.8-8.7-4.7-12.2c-3.3-6-8.9-8.6-14.6-11.7c-5.3-2.8-10.5-6-15.5-9.4c-3.2,2-6.4,4-9.6,6
					l0,0c-2.3,1.5-4.5,2.9-6.8,4.3c0-0.6-0.7-1-1.1-0.5c-0.4,0.6-0.7,1.2-1,1.8c-0.3,0.2-0.5,0.3-0.8,0.5c-0.1,0.1-0.2,0.3-0.1,0.4
					c0.1,0.1,0.3,0.2,0.4,0.1c0,0,0.1,0,0.1-0.1c-1.3,3.7,0,7.2,2.8,10.5c3.6,4.2,6.7,8.7,10.2,12.9s7.2,5.7,12.5,5.1
					c3.3-0.6,6.7-0.8,10-0.6c3.8,0.3,7.6,0.5,11.4,0.8c7.8,0.4,15.5,0.7,23.3,1c6.6,0.2,13,1.9,19.7,1.9c6.3,0,11-3,15.8-7
					c2.7-2.3,5.4-4.7,8.2-6.8C887.8,604.8,882.2,609.1,875.9,611.4z"/>
				
					<linearGradient id="SVGID_28_" gradientUnits="userSpaceOnUse" x1="236.3027" y1="231.2472" x2="549.9827" y2="546.8472" gradientTransform="matrix(1 0 0 -1 0 772)">
					<stop  offset="3.000000e-02" style="stop-color:#2EB691"/>
					<stop  offset="0.85" style="stop-color:#42D984"/>
				</linearGradient>
				<path class="st44" d="M128.7,372.1c0,0-6-73,61.7-101.6c29.1-12.3,41.5,5,41.5,5s20.3-22.9,45.8-20.3s49.2,28.7,49.2,28.7
					s53.4-15.1,70.4,5.9c0,0,8.5,8,3.4,19.1c0,0,72.9-20.8,80.5,31.3c0,0,43.2-5.2,50.8,31c0,0,61.4-18.8,86.2,20.4
					c0,0,57.2-1.5,72.3,19.6l-18.4,0.1l-531.5-4.8L128.7,372.1z"/>
				
					<linearGradient id="SVGID_29_" gradientUnits="userSpaceOnUse" x1="201.4928" y1="334.8805" x2="194.0128" y2="717.8405" gradientTransform="matrix(1 0 0 -1 0 772)">
					<stop  offset="0" style="stop-color:#907D61"/>
					<stop  offset="6.000000e-02" style="stop-color:#8B7660"/>
					<stop  offset="0.47" style="stop-color:#6E4F57"/>
					<stop  offset="0.69" style="stop-color:#634054"/>
				</linearGradient>
				<path class="st45" d="M349,412.8c0.3-0.9-2.3-2.2-4.5-5.4c-1.5-2.2-2.5-4.7-3-7.3c-2-7.7-9.6-17-12.1-20.4
					c-8-10.9-11.8-27.3-18-54.4c-3.5-15.4-6.2-30.9-7.9-46.6c-0.5-27.1,3.3-47.4,10.9-59.2c8.2-12.8,15.5-26.3,21.8-40.2
					c0,0,45,2,48.8,0s14.8-11.8,12.8-36.9l0.6-6l-11.6,3.2c0,0-3.5,22.5-18.4,24.3c-17.6,2.4-37.8-8.4-34.9-24.3h-12.9
					c0,0,4,46.2-15.5,56c-14.5,3.8-23-2.2-22.4-29.3l0.7-27.1h-23c0,0,1.3,28.8,0,30.5s-11.5,19.5-22.4-17.1
					c-9.2-25.8-3.9-13.4-3.9-13.4l-12.5,0.3c0,0,5.6,28.4,24,46.2c12.2,17.1,12.5,45.7,3.3,55.8c-9.9,10.1-26.6,15.7-39.5-44.3
					c-8.6-39.8-10.9-57.7-10.9-57.7l-17.8-0.2c0,0,7.2,47.5,5.9,55.8c-1.6,9.4-2.3,38.4-41.1,26.2c-20.2-3-60.5-13.6-77.3-45.7
					c-6.3-27.2-4.9-37.7-4.9-37.7l-14.5-0.4c0,0,0.3,15.7,3.3,19.9c-9,0.6-18-1.3-25.8-5.7c-14.9-8.3-20.9-22.2-22.5-26.4l-11.6-0.5
					c2.7,7.5,6.7,14.4,11.7,20.5c11.4,13.7,27.4,21.3,39,23.1c2.3,0.4,11.5,1.6,11.5,2c0,0.1-0.6,0.1-0.6,0.1s3,41.2,49.3,60
					c41.4,16.4,59.5,24.8,70.1,31.4s17.8,13.6,16.1,36.3c-1.6,18.1-0.6,36.4,3,54.2c4.2,20.6,11.8,40.4,22.7,58.4
					c35.6,1.2,58.5,1.3,73.2,1.2c29.4-0.3,46.2-1.8,55,0.3C343.5,412.7,348.6,413.9,349,412.8z"/>
				<path class="st46" d="M302.8,272.8c-11.1,6.7-20.6,15.6-27.9,26.2c-31.5,45.7-10.1,105.7-7.6,112.2l83.1,1.6
					c-5.8-8.6-11.2-17.5-16-26.8C312.6,344.2,305.2,303.3,302.8,272.8z"/>
				<path class="st46" d="M207,186.4c0,0,15.4,60.5,27.5,60C222,252.6,198.7,235.9,207,186.4z"/>
				<path class="st47" d="M293.2,345.5c-1.5,0.3-2.9,0.5-4.4,0.6c-1.5,0.1-3-0.1-4.4-0.7c-0.7-0.3-1.3-0.8-1.8-1.4
					c-0.4-0.7-0.7-1.4-0.7-2.2c0-1.5,0.4-3,1.1-4.4c1.3-2.7,2.9-5.3,4.9-7.5c2-2.3,4.3-4.3,6.9-5.9c1.3-0.8,2.8-1.3,4.4-1.5
					c0.8-0.1,1.6,0.1,2.4,0.4c0.4,0.2,0.7,0.4,1.1,0.6c0.3,0.3,0.6,0.6,0.9,0.9c1,1.2,1.6,2.7,2,4.2c0.2,0.7,0.4,1.5,0.5,2.2
					c0.1,0.8,0.2,1.5,0.3,2.3c0.3,6-0.4,12-2.2,17.8v0.1v0.1c-1.6,2.8-3.5,5.5-5.5,8.1c-2,2.6-4.4,4.9-7,6.9c-1.3,1-2.8,1.8-4.4,2.4
					c-1.6,0.7-3.4,0.7-5.1,0.2c-1.6-0.7-3-1.8-3.8-3.3c-0.9-1.4-1.7-2.9-2.2-4.5c-1-3.1-1.6-6.4-1.8-9.6c-0.3-3.2-0.3-6.5-0.1-9.8
					L275,322l-0.3,19.4c-0.1,3.2,0,6.4,0.3,9.6c0.3,3.2,1,6.3,1.9,9.4c0.5,1.5,1.2,2.9,2,4.3c0.8,1.3,1.9,2.3,3.3,2.9
					c1.5,0.4,3,0.3,4.4-0.3c1.5-0.6,2.8-1.3,4.1-2.3c2.5-1.9,4.8-4.2,6.8-6.7c2-2.5,3.8-5.2,5.4-8v0.1c1.8-5.6,2.5-11.5,2.3-17.4
					c0-0.7-0.2-1.5-0.2-2.2c-0.1-0.7-0.3-1.4-0.5-2.1c-0.3-1.4-0.9-2.7-1.8-3.8c-0.2-0.3-0.5-0.5-0.7-0.7c-0.3-0.2-0.5-0.4-0.8-0.5
					c-0.6-0.3-1.3-0.4-2-0.3c-1.4,0.1-2.8,0.6-4,1.3c-2.5,1.5-4.8,3.4-6.8,5.6c-2,2.2-3.7,4.6-5,7.3c-0.7,1.3-1.1,2.7-1.1,4.2
					c0,0.7,0.2,1.4,0.5,2c0.4,0.6,1,1.1,1.6,1.4c1.4,0.6,2.8,0.8,4.3,0.8C290.2,345.9,291.7,345.8,293.2,345.5z"/>
				<path class="st48" d="M-24.2,4.8c3.6-26.1,13-65.4,41.3-97.6c76.6-86.9,223.1-46.5,270-33.5C403-94.3,478-17.5,514.7,27.2
					c6.1,4.8,12.2,9.6,18.3,14.4c-96,17.6-193.4,25.8-291,24.5c-84.9-1.1-169.6-9.5-253.1-24.9L-24.2,4.8z"/>
				
					<linearGradient id="SVGID_30_" gradientUnits="userSpaceOnUse" x1="183.7841" y1="590.5065" x2="396.4841" y2="1113.9065" gradientTransform="matrix(1 0 0 -1 0 772)">
					<stop  offset="0.26" style="stop-color:#55B093"/>
					<stop  offset="0.39" style="stop-color:#61C489"/>
					<stop  offset="0.56" style="stop-color:#6DDB7D"/>
					<stop  offset="0.68" style="stop-color:#72E379"/>
				</linearGradient>
				<path class="st49" d="M-23.2,3.3c3.5-25.1,12.9-63,40.9-94c75.7-83.6,220.8-44.7,267.3-32.2C399.5-92,473.8-18.1,510.1,24.9
					l18,13.8c-95,16.9-191.4,24.8-287.8,23.6c-84-1.1-167.8-9.1-250.5-24L-23.2,3.3z"/>
				<path class="st48" d="M450.2,17.9c0,0,106-24.4,153,49.8c30.6,57.6,36.1,76.2-153,65.8C418.2,41.3,450.2,17.9,450.2,17.9z"/>
				
					<linearGradient id="SVGID_31_" gradientUnits="userSpaceOnUse" x1="616.3564" y1="814.2426" x2="461.6764" y2="601.8326" gradientTransform="matrix(1 0 0 -1 0 772)">
					<stop  offset="0.3" style="stop-color:#72E379"/>
					<stop  offset="0.87" style="stop-color:#57B479"/>
				</linearGradient>
				<path class="st50" d="M452.9,20.1c0,0,103-24.8,148.6,50.6c29.7,58.5,35,77.5-148.6,66.9C421.9,43.9,452.9,20.1,452.9,20.1z"/>
				<path class="st48" d="M-1,123.6c-3.2,0-95.9-6.5-95.9-6.5s-57.5-12-24.5-41.3c8.3-4.1,15.5-10.2,20.9-17.8
					c6.6-9.6,4.8-14.3,9-23.2c13.3-28,57.9-37.6,57.9-37.6l0,0c0,0,60.5-12.4,105.5,11.9c5,2.7,7.5,4.2,9.4,6.7
					C102,43.3,37.3,123.6,37.3,123.6H-1z"/>
				
					<linearGradient id="SVGID_32_" gradientUnits="userSpaceOnUse" x1="-90.9385" y1="632.745" x2="58.8607" y2="774.6232" gradientTransform="matrix(1 0 0 -1 0 772)">
					<stop  offset="0.23" style="stop-color:#2FAC76"/>
					<stop  offset="0.54" style="stop-color:#31AD79"/>
					<stop  offset="0.74" style="stop-color:#36B281"/>
					<stop  offset="0.88" style="stop-color:#3DB98E"/>
				</linearGradient>
				<path class="st51" d="M-1.8,125.5c-3.1,0-92.6-6.6-92.6-6.6S-150,107-118.1,77.5c8.1-4.1,15.1-10.3,20.2-17.9
					c6.3-9.6,4.7-14.4,8.7-23.3C-76.3,8.3-33.3-1.3-33.3-1.3l0,0c0,0,58.4-12.4,101.8,11.9c4.8,2.7,7.2,4.2,9.1,6.7
					c20.1,27.5-42.4,108.1-42.4,108.1H-1.8z"/>
				<path class="st48" d="M3.9,49.5c0,0,52.7-43.9,108.1-61.2c60.4-25.8,140.4-83.6,237.3-56.9c74.9,25,131,59.4,164.2,123.2
					c16.2,37,18.7,81.8-104.6,75.8L65.2,131C65.2,131-69.2,121,3.9,49.5z"/>
				
					<linearGradient id="SVGID_33_" gradientUnits="userSpaceOnUse" x1="175.6123" y1="578.1983" x2="396.7722" y2="875.4083" gradientTransform="matrix(1 0 0 -1 0 772)">
					<stop  offset="7.000000e-02" style="stop-color:#39A57E"/>
					<stop  offset="0.77" style="stop-color:#72E379"/>
				</linearGradient>
				<path class="st52" d="M-1.1,56c0,0,53.4-44.7,109.3-62.2c61.1-26.3,142-84.9,240.1-57.8C424-38.5,480.8-3.5,514.4,61.3
					c16.3,37.7,18.9,83.2-105.9,77.1l-347.7,0.6C60.8,138.9-75.1,128.7-1.1,56z"/>
				<path class="st53" d="M398.5,140.4c0,0,1.6,26.1-9.9,36.2c-3.5,3.5-6.2,3.4-10.3,3.5c7.4-3,12.7-9.5,14.4-17.3
					c1.7-7.7,2.7-15.5,3-23.3h2.8L398.5,140.4z"/>
				<path class="st46" d="M283.7,139.3c-0.5,4.6-0.7,20.5-0.5,23.6c0.8,13.6,1.7,29,10,33c1.9,0.9,4.1,1.2,6.2,0.8l3.1-0.4
					c-3.9,5.1-7.3,5.5-8.4,5.5c-6.9,0.3-14.9-9.1-16.9-24.3c-1.3-7.2-1.7-14.5-1.4-21.9c0.3-6.1,1.5-16.4,1.5-16.4L283.7,139.3
					L283.7,139.3z"/>
				
					<linearGradient id="SVGID_34_" gradientUnits="userSpaceOnUse" x1="-3525.7344" y1="318.2322" x2="-3034.2244" y2="470.3222" gradientTransform="matrix(-1 0 0 -1 -3382.46 772)">
					<stop  offset="3.000000e-02" style="stop-color:#219F68"/>
					<stop  offset="0.84" style="stop-color:#3FE28C"/>
					<stop  offset="0.94" style="stop-color:#43EA90"/>
				</linearGradient>
				<path class="st54" d="M153.1,403.1c0,0,56.8-40.2-39.5-56.5c0,0,32.1-29.4,0-54.4c0,0-23.4-20.7-64.2-7.6
					c0,0-46.9-43.5-112.3-16.3c0,0-58-16.3-96.3,3.3s-24.7,59.7-24.7,59.7s-62.9-18.4-90.1,4.5c0,0-60.5-1.1-66.6,28.3
					c0,0-96.3-16.3-95.1,23.9c0,0-79-4.4-61.7,20.7l29.6,12l607.3-9.8L153.1,403.1z"/>
				
					<linearGradient id="SVGID_35_" gradientUnits="userSpaceOnUse" x1="430.8901" y1="-307.7302" x2="1838.75" y2="17.2298" gradientTransform="matrix(1 0 0 -1 0 772)">
					<stop  offset="2.000000e-02" style="stop-color:#024E20"/>
					<stop  offset="0.82" style="stop-color:#024E20"/>
					<stop  offset="0.94" style="stop-color:#024E20"/>
				</linearGradient>
				<path class="st55" d="M-50.9,786.6c0,0,357.1-59.1,998.9,39.4s1402.6,22.6,1492,0v194.3H-50.9V786.6z"/>
				<path class="st56" d="M582.5,799.6c0,0,61.8-41.8,98-53s-34.7-12.1-82.9,22.8C597.6,769.4,573.5,790.3,582.5,799.6z"/>
				<path class="st56" d="M564.4,799.6c0,0,41.1-67.8,59.7-76.2s-29.6-13-59.7,42.3C564.4,765.7,552.4,794.9,564.4,799.6z"/>
				<path class="st56" d="M542.6,799.6c0,0,15.8-62.3,30.9-71.6S516.2,738.2,542.6,799.6z"/>
				<path class="st56" d="M533.5,799.6c0,0,0.8-51.9-31.7-59.9S520.7,773.5,533.5,799.6z"/>
				<path class="st56" d="M523,799.6c0,0-20.4-59.5-70.1-60.9S492,760.5,523,799.6z"/>
				<path class="st56" d="M-34,799.1c0,0,20.4-59.5,70.1-60.9S-3.1,760.1-34,799.1z"/>
				<path class="st57" d="M-1645,897.3l9.1-52.6c0,0,980-32.6,1123.8-22.5c0,0-7.8-26.3-22-30.1c0,0,32.4-3.8,35,30.1
					c0,0,0-50.1-20.7-58.9c0,0,50.5,7.5,46.6,58.9l235.8,10c0,0-14.3-13.8-23.3-17.5c0,0,25.9-8.8,40.2,7.5c0,0-16.8-38.8-27.2-43.8
					c0,0,28.8-2.5,36.4,37.6c0,0,25.8-21.3,33.5-18.2c0,0-28.5,33.2-23.3,34.5c0,0,936,25.6,1111,34.4v66.9L-1645,897.3z"/>
			</g>
		</g>
	</g>
</g>
<radialGradient id="SVGID_36_" cx="461.94" cy="446.87" r="8.37" gradientTransform="matrix(1 0 0 -1 0 772)" gradientUnits="userSpaceOnUse">
	<stop  offset="0" style="stop-color:#FFFFFF"/>
	<stop  offset="0.13" style="stop-color:#FFFFFB"/>
	<stop  offset="0.26" style="stop-color:#FFFFEE"/>
	<stop  offset="0.39" style="stop-color:#FFFFDA"/>
	<stop  offset="0.53" style="stop-color:#FFFFBD"/>
	<stop  offset="0.66" style="stop-color:#FFFF98"/>
	<stop  offset="0.7" style="stop-color:#FFFF8C"/>
	<stop  offset="1" style="stop-color:#FFC728"/>
</radialGradient>
<circle class="st58" cx="461.9" cy="325.1" r="8.4"/>
<radialGradient id="SVGID_37_" cx="394.6" cy="446.87" r="8.37" gradientTransform="matrix(1 0 0 -1 0 772)" gradientUnits="userSpaceOnUse">
	<stop  offset="0" style="stop-color:#FFFFFF"/>
	<stop  offset="0.13" style="stop-color:#FFFFFB"/>
	<stop  offset="0.26" style="stop-color:#FFFFEE"/>
	<stop  offset="0.39" style="stop-color:#FFFFDA"/>
	<stop  offset="0.53" style="stop-color:#FFFFBD"/>
	<stop  offset="0.66" style="stop-color:#FFFF98"/>
	<stop  offset="0.7" style="stop-color:#FFFF8C"/>
	<stop  offset="1" style="stop-color:#FFC728"/>
</radialGradient>
<circle class="st59" cx="394.6" cy="325.1" r="8.4"/>
<radialGradient id="SVGID_38_" cx="327.25" cy="446.87" r="8.37" gradientTransform="matrix(1 0 0 -1 0 772)" gradientUnits="userSpaceOnUse">
	<stop  offset="0" style="stop-color:#FFFFFF"/>
	<stop  offset="0.13" style="stop-color:#FFFFFB"/>
	<stop  offset="0.26" style="stop-color:#FFFFEE"/>
	<stop  offset="0.39" style="stop-color:#FFFFDA"/>
	<stop  offset="0.53" style="stop-color:#FFFFBD"/>
	<stop  offset="0.66" style="stop-color:#FFFF98"/>
	<stop  offset="0.7" style="stop-color:#FFFF8C"/>
	<stop  offset="1" style="stop-color:#FFC728"/>
</radialGradient>
<circle class="st60" cx="327.3" cy="325.1" r="8.4"/>
<radialGradient id="SVGID_39_" cx="259.9" cy="446.87" r="8.37" gradientTransform="matrix(1 0 0 -1 0 772)" gradientUnits="userSpaceOnUse">
	<stop  offset="0" style="stop-color:#FFFFFF"/>
	<stop  offset="0.13" style="stop-color:#FFFFFB"/>
	<stop  offset="0.26" style="stop-color:#FFFFEE"/>
	<stop  offset="0.39" style="stop-color:#FFFFDA"/>
	<stop  offset="0.53" style="stop-color:#FFFFBD"/>
	<stop  offset="0.66" style="stop-color:#FFFF98"/>
	<stop  offset="0.7" style="stop-color:#FFFF8C"/>
	<stop  offset="1" style="stop-color:#FFC728"/>
</radialGradient>
<circle class="st61" cx="259.9" cy="325.1" r="8.4"/>
<radialGradient id="SVGID_40_" cx="192.56" cy="446.87" r="8.37" gradientTransform="matrix(1 0 0 -1 0 772)" gradientUnits="userSpaceOnUse">
	<stop  offset="0" style="stop-color:#FFFFFF"/>
	<stop  offset="0.13" style="stop-color:#FFFFFB"/>
	<stop  offset="0.26" style="stop-color:#FFFFEE"/>
	<stop  offset="0.39" style="stop-color:#FFFFDA"/>
	<stop  offset="0.53" style="stop-color:#FFFFBD"/>
	<stop  offset="0.66" style="stop-color:#FFFF98"/>
	<stop  offset="0.7" style="stop-color:#FFFF8C"/>
	<stop  offset="1" style="stop-color:#FFC728"/>
</radialGradient>
<circle class="st62" cx="192.6" cy="325.1" r="8.4"/>
<radialGradient id="SVGID_41_" cx="125.21" cy="446.87" r="8.37" gradientTransform="matrix(1 0 0 -1 0 772)" gradientUnits="userSpaceOnUse">
	<stop  offset="0" style="stop-color:#FFFFFF"/>
	<stop  offset="0.13" style="stop-color:#FFFFFB"/>
	<stop  offset="0.26" style="stop-color:#FFFFEE"/>
	<stop  offset="0.39" style="stop-color:#FFFFDA"/>
	<stop  offset="0.53" style="stop-color:#FFFFBD"/>
	<stop  offset="0.66" style="stop-color:#FFFF98"/>
	<stop  offset="0.7" style="stop-color:#FFFF8C"/>
	<stop  offset="1" style="stop-color:#FFC728"/>
</radialGradient>
<circle class="st63" cx="125.2" cy="325.1" r="8.4"/>
<radialGradient id="SVGID_42_" cx="57.86" cy="446.87" r="8.37" gradientTransform="matrix(1 0 0 -1 0 772)" gradientUnits="userSpaceOnUse">
	<stop  offset="0" style="stop-color:#FFFFFF"/>
	<stop  offset="0.13" style="stop-color:#FFFFFB"/>
	<stop  offset="0.26" style="stop-color:#FFFFEE"/>
	<stop  offset="0.39" style="stop-color:#FFFFDA"/>
	<stop  offset="0.53" style="stop-color:#FFFFBD"/>
	<stop  offset="0.66" style="stop-color:#FFFF98"/>
	<stop  offset="0.7" style="stop-color:#FFFF8C"/>
	<stop  offset="1" style="stop-color:#FFC728"/>
</radialGradient>
<circle class="st64" cx="57.9" cy="325.1" r="8.4"/>
<radialGradient id="SVGID_43_" cx="20.69" cy="406.3975" r="8.37" gradientTransform="matrix(1 0 0 -1 -1.688600e-03 771.9957)" gradientUnits="userSpaceOnUse">
	<stop  offset="0" style="stop-color:#FFFFFF"/>
	<stop  offset="0.13" style="stop-color:#FFFFFB"/>
	<stop  offset="0.26" style="stop-color:#FFFFEE"/>
	<stop  offset="0.39" style="stop-color:#FFFFDA"/>
	<stop  offset="0.53" style="stop-color:#FFFFBD"/>
	<stop  offset="0.66" style="stop-color:#FFFF98"/>
	<stop  offset="0.7" style="stop-color:#FFFF8C"/>
	<stop  offset="1" style="stop-color:#FFC728"/>
</radialGradient>
<circle class="st65" cx="20.7" cy="365.6" r="8.4"/>
<radialGradient id="SVGID_44_" cx="20.69" cy="339.0549" r="8.3675" gradientTransform="matrix(1 0 0 -1 -1.681332e-02 771.9811)" gradientUnits="userSpaceOnUse">
	<stop  offset="0" style="stop-color:#FFFFFF"/>
	<stop  offset="0.13" style="stop-color:#FFFFFB"/>
	<stop  offset="0.26" style="stop-color:#FFFFEE"/>
	<stop  offset="0.39" style="stop-color:#FFFFDA"/>
	<stop  offset="0.53" style="stop-color:#FFFFBD"/>
	<stop  offset="0.66" style="stop-color:#FFFF98"/>
	<stop  offset="0.7" style="stop-color:#FFFF8C"/>
	<stop  offset="1" style="stop-color:#FFC728"/>
</radialGradient>
<circle class="st66" cx="20.7" cy="432.9" r="8.4"/>
<radialGradient id="SVGID_45_" cx="20.69" cy="271.71" r="8.37" gradientTransform="matrix(1 0 0 -1 0 772)" gradientUnits="userSpaceOnUse">
	<stop  offset="0" style="stop-color:#FFFFFF"/>
	<stop  offset="0.13" style="stop-color:#FFFFFB"/>
	<stop  offset="0.26" style="stop-color:#FFFFEE"/>
	<stop  offset="0.39" style="stop-color:#FFFFDA"/>
	<stop  offset="0.53" style="stop-color:#FFFFBD"/>
	<stop  offset="0.66" style="stop-color:#FFFF98"/>
	<stop  offset="0.7" style="stop-color:#FFFF8C"/>
	<stop  offset="1" style="stop-color:#FFC728"/>
</radialGradient>
<circle class="st67" cx="20.7" cy="500.3" r="8.4"/>
<radialGradient id="SVGID_46_" cx="20.6899" cy="204.363" r="8.37" gradientTransform="matrix(1 0 0 -1 2.179247e-03 772.005)" gradientUnits="userSpaceOnUse">
	<stop  offset="0" style="stop-color:#FFFFFF"/>
	<stop  offset="0.13" style="stop-color:#FFFFFB"/>
	<stop  offset="0.26" style="stop-color:#FFFFEE"/>
	<stop  offset="0.39" style="stop-color:#FFFFDA"/>
	<stop  offset="0.53" style="stop-color:#FFFFBD"/>
	<stop  offset="0.66" style="stop-color:#FFFF98"/>
	<stop  offset="0.7" style="stop-color:#FFFF8C"/>
	<stop  offset="1" style="stop-color:#FFC728"/>
</radialGradient>
<circle class="st68" cx="20.7" cy="567.6" r="8.4"/>
<radialGradient id="SVGID_47_" cx="20.69" cy="137.01" r="8.37" gradientTransform="matrix(1 0 0 -1 0 772)" gradientUnits="userSpaceOnUse">
	<stop  offset="0" style="stop-color:#FFFFFF"/>
	<stop  offset="0.13" style="stop-color:#FFFFFB"/>
	<stop  offset="0.26" style="stop-color:#FFFFEE"/>
	<stop  offset="0.39" style="stop-color:#FFFFDA"/>
	<stop  offset="0.53" style="stop-color:#FFFFBD"/>
	<stop  offset="0.66" style="stop-color:#FFFF98"/>
	<stop  offset="0.7" style="stop-color:#FFFF8C"/>
	<stop  offset="1" style="stop-color:#FFC728"/>
</radialGradient>
<circle class="st69" cx="20.7" cy="635" r="8.4"/>
<radialGradient id="SVGID_48_" cx="20.69" cy="69.6733" r="8.37" gradientTransform="matrix(1 0 0 -1 2.390678e-03 772.0056)" gradientUnits="userSpaceOnUse">
	<stop  offset="0" style="stop-color:#FFFFFF"/>
	<stop  offset="0.13" style="stop-color:#FFFFFB"/>
	<stop  offset="0.26" style="stop-color:#FFFFEE"/>
	<stop  offset="0.39" style="stop-color:#FFFFDA"/>
	<stop  offset="0.53" style="stop-color:#FFFFBD"/>
	<stop  offset="0.66" style="stop-color:#FFFF98"/>
	<stop  offset="0.7" style="stop-color:#FFFF8C"/>
	<stop  offset="1" style="stop-color:#FFC728"/>
</radialGradient>
<circle class="st70" cx="20.7" cy="702.3" r="8.4"/>
<radialGradient id="SVGID_49_" cx="48.67" cy="20.0015" r="8.3692" gradientTransform="matrix(1 0 0 -1 -3.021079e-02 771.965)" gradientUnits="userSpaceOnUse">
	<stop  offset="0" style="stop-color:#FFFFFF"/>
	<stop  offset="0.13" style="stop-color:#FFFFFB"/>
	<stop  offset="0.26" style="stop-color:#FFFFEE"/>
	<stop  offset="0.39" style="stop-color:#FFFFDA"/>
	<stop  offset="0.53" style="stop-color:#FFFFBD"/>
	<stop  offset="0.66" style="stop-color:#FFFF98"/>
	<stop  offset="0.7" style="stop-color:#FFFF8C"/>
	<stop  offset="1" style="stop-color:#FFC728"/>
</radialGradient>
<circle class="st71" cx="48.7" cy="752" r="8.4"/>
<radialGradient id="SVGID_50_" cx="116.0209" cy="19.9964" r="8.3722" gradientTransform="matrix(1 0 0 -1 -4.470748e-03 771.9949)" gradientUnits="userSpaceOnUse">
	<stop  offset="0" style="stop-color:#FFFFFF"/>
	<stop  offset="0.13" style="stop-color:#FFFFFB"/>
	<stop  offset="0.26" style="stop-color:#FFFFEE"/>
	<stop  offset="0.39" style="stop-color:#FFFFDA"/>
	<stop  offset="0.53" style="stop-color:#FFFFBD"/>
	<stop  offset="0.66" style="stop-color:#FFFF98"/>
	<stop  offset="0.7" style="stop-color:#FFFF8C"/>
	<stop  offset="1" style="stop-color:#FFC728"/>
</radialGradient>
<circle class="st72" cx="116" cy="752" r="8.4"/>
<radialGradient id="SVGID_51_" cx="183.36" cy="20.0112" r="8.3644" gradientTransform="matrix(1 0 0 -1 -3.459889e-02 771.9763)" gradientUnits="userSpaceOnUse">
	<stop  offset="0" style="stop-color:#FFFFFF"/>
	<stop  offset="0.13" style="stop-color:#FFFFFB"/>
	<stop  offset="0.26" style="stop-color:#FFFFEE"/>
	<stop  offset="0.39" style="stop-color:#FFFFDA"/>
	<stop  offset="0.53" style="stop-color:#FFFFBD"/>
	<stop  offset="0.66" style="stop-color:#FFFF98"/>
	<stop  offset="0.7" style="stop-color:#FFFF8C"/>
	<stop  offset="1" style="stop-color:#FFC728"/>
</radialGradient>
<circle class="st73" cx="183.4" cy="752" r="8.4"/>
<radialGradient id="SVGID_52_" cx="250.712" cy="20.0008" r="8.3722" gradientTransform="matrix(1 0 0 -1 1.799801e-03 772.0056)" gradientUnits="userSpaceOnUse">
	<stop  offset="0" style="stop-color:#FFFFFF"/>
	<stop  offset="0.13" style="stop-color:#FFFFFB"/>
	<stop  offset="0.26" style="stop-color:#FFFFEE"/>
	<stop  offset="0.39" style="stop-color:#FFFFDA"/>
	<stop  offset="0.53" style="stop-color:#FFFFBD"/>
	<stop  offset="0.66" style="stop-color:#FFFF98"/>
	<stop  offset="0.7" style="stop-color:#FFFF8C"/>
	<stop  offset="1" style="stop-color:#FFC728"/>
</radialGradient>
<circle class="st74" cx="250.7" cy="752" r="8.4"/>
<radialGradient id="SVGID_53_" cx="318.0637" cy="19.999" r="8.37" gradientTransform="matrix(1 0 0 -1 3.004149e-03 771.9909)" gradientUnits="userSpaceOnUse">
	<stop  offset="0" style="stop-color:#FFFFFF"/>
	<stop  offset="0.13" style="stop-color:#FFFFFB"/>
	<stop  offset="0.26" style="stop-color:#FFFFEE"/>
	<stop  offset="0.39" style="stop-color:#FFFFDA"/>
	<stop  offset="0.53" style="stop-color:#FFFFBD"/>
	<stop  offset="0.66" style="stop-color:#FFFF98"/>
	<stop  offset="0.7" style="stop-color:#FFFF8C"/>
	<stop  offset="1" style="stop-color:#FFC728"/>
</radialGradient>
<circle class="st75" cx="318.1" cy="752" r="8.4"/>
<radialGradient id="SVGID_54_" cx="385.4069" cy="19.9959" r="8.3722" gradientTransform="matrix(1 0 0 -1 -5.765606e-03 771.9971)" gradientUnits="userSpaceOnUse">
	<stop  offset="0" style="stop-color:#FFFFFF"/>
	<stop  offset="0.13" style="stop-color:#FFFFFB"/>
	<stop  offset="0.26" style="stop-color:#FFFFEE"/>
	<stop  offset="0.39" style="stop-color:#FFFFDA"/>
	<stop  offset="0.53" style="stop-color:#FFFFBD"/>
	<stop  offset="0.66" style="stop-color:#FFFF98"/>
	<stop  offset="0.7" style="stop-color:#FFFF8C"/>
	<stop  offset="1" style="stop-color:#FFC728"/>
</radialGradient>
<circle class="st76" cx="385.4" cy="752" r="8.4"/>
<radialGradient id="SVGID_55_" cx="452.7534" cy="19.999" r="8.37" gradientTransform="matrix(1 0 0 -1 3.465163e-03 772.0008)" gradientUnits="userSpaceOnUse">
	<stop  offset="0" style="stop-color:#FFFFFF"/>
	<stop  offset="0.13" style="stop-color:#FFFFFB"/>
	<stop  offset="0.26" style="stop-color:#FFFFEE"/>
	<stop  offset="0.39" style="stop-color:#FFFFDA"/>
	<stop  offset="0.53" style="stop-color:#FFFFBD"/>
	<stop  offset="0.66" style="stop-color:#FFFF98"/>
	<stop  offset="0.7" style="stop-color:#FFFF8C"/>
	<stop  offset="1" style="stop-color:#FFC728"/>
</radialGradient>
<circle class="st77" cx="452.8" cy="752" r="8.4"/>
<radialGradient id="SVGID_56_" cx="520.1" cy="20" r="8.37" gradientTransform="matrix(1 0 0 -1 -5.118006e-02 771.9816)" gradientUnits="userSpaceOnUse">
	<stop  offset="0" style="stop-color:#FFFFFF"/>
	<stop  offset="0.13" style="stop-color:#FFFFFB"/>
	<stop  offset="0.26" style="stop-color:#FFFFEE"/>
	<stop  offset="0.39" style="stop-color:#FFFFDA"/>
	<stop  offset="0.53" style="stop-color:#FFFFBD"/>
	<stop  offset="0.66" style="stop-color:#FFFF98"/>
	<stop  offset="0.7" style="stop-color:#FFFF8C"/>
	<stop  offset="1" style="stop-color:#FFC728"/>
</radialGradient>
<circle class="st78" cx="520.1" cy="751.9" r="8.4"/>
<radialGradient id="SVGID_57_" cx="587.4435" cy="20.0025" r="8.3722" gradientTransform="matrix(1 0 0 -1 -1.744178e-03 772.0063)" gradientUnits="userSpaceOnUse">
	<stop  offset="0" style="stop-color:#FFFFFF"/>
	<stop  offset="0.13" style="stop-color:#FFFFFB"/>
	<stop  offset="0.26" style="stop-color:#FFFFEE"/>
	<stop  offset="0.39" style="stop-color:#FFFFDA"/>
	<stop  offset="0.53" style="stop-color:#FFFFBD"/>
	<stop  offset="0.66" style="stop-color:#FFFF98"/>
	<stop  offset="0.7" style="stop-color:#FFFF8C"/>
	<stop  offset="1" style="stop-color:#FFC728"/>
</radialGradient>
<circle class="st79" cx="587.4" cy="752" r="8.4"/>
<radialGradient id="SVGID_58_" cx="654.79" cy="20" r="8.37" gradientTransform="matrix(1 0 0 -1 -5.330223e-02 771.9833)" gradientUnits="userSpaceOnUse">
	<stop  offset="0" style="stop-color:#FFFFFF"/>
	<stop  offset="0.13" style="stop-color:#FFFFFB"/>
	<stop  offset="0.26" style="stop-color:#FFFFEE"/>
	<stop  offset="0.39" style="stop-color:#FFFFDA"/>
	<stop  offset="0.53" style="stop-color:#FFFFBD"/>
	<stop  offset="0.66" style="stop-color:#FFFF98"/>
	<stop  offset="0.7" style="stop-color:#FFFF8C"/>
	<stop  offset="1" style="stop-color:#FFC728"/>
</radialGradient>
<circle class="st80" cx="654.8" cy="752" r="8.4"/>
<radialGradient id="SVGID_59_" cx="722.1384" cy="19.9976" r="8.3722" gradientTransform="matrix(1 0 0 -1 -6.322823e-05 771.994)" gradientUnits="userSpaceOnUse">
	<stop  offset="0" style="stop-color:#FFFFFF"/>
	<stop  offset="0.13" style="stop-color:#FFFFFB"/>
	<stop  offset="0.26" style="stop-color:#FFFFEE"/>
	<stop  offset="0.39" style="stop-color:#FFFFDA"/>
	<stop  offset="0.53" style="stop-color:#FFFFBD"/>
	<stop  offset="0.66" style="stop-color:#FFFF98"/>
	<stop  offset="0.7" style="stop-color:#FFFF8C"/>
	<stop  offset="1" style="stop-color:#FFC728"/>
</radialGradient>
<circle class="st81" cx="722.1" cy="752" r="8.4"/>
<radialGradient id="SVGID_60_" cx="759.3125" cy="60.4738" r="8.37" gradientTransform="matrix(1 0 0 -1 -1.545687e-03 771.9982)" gradientUnits="userSpaceOnUse">
	<stop  offset="0" style="stop-color:#FFFFFF"/>
	<stop  offset="0.13" style="stop-color:#FFFFFB"/>
	<stop  offset="0.26" style="stop-color:#FFFFEE"/>
	<stop  offset="0.39" style="stop-color:#FFFFDA"/>
	<stop  offset="0.53" style="stop-color:#FFFFBD"/>
	<stop  offset="0.66" style="stop-color:#FFFF98"/>
	<stop  offset="0.7" style="stop-color:#FFFF8C"/>
	<stop  offset="1" style="stop-color:#FFC728"/>
</radialGradient>
<circle class="st82" cx="759.3" cy="711.5" r="8.4"/>
<radialGradient id="SVGID_61_" cx="759.31" cy="127.82" r="8.37" gradientTransform="matrix(1 0 0 -1 0 772)" gradientUnits="userSpaceOnUse">
	<stop  offset="0" style="stop-color:#FFFFFF"/>
	<stop  offset="0.13" style="stop-color:#FFFFFB"/>
	<stop  offset="0.26" style="stop-color:#FFFFEE"/>
	<stop  offset="0.39" style="stop-color:#FFFFDA"/>
	<stop  offset="0.53" style="stop-color:#FFFFBD"/>
	<stop  offset="0.66" style="stop-color:#FFFF98"/>
	<stop  offset="0.7" style="stop-color:#FFFF8C"/>
	<stop  offset="1" style="stop-color:#FFC728"/>
</radialGradient>
<circle class="st83" cx="759.3" cy="644.2" r="8.4"/>
<radialGradient id="SVGID_62_" cx="759.3054" cy="195.1705" r="8.37" gradientTransform="matrix(1 0 0 -1 -1.731069e-03 771.9977)" gradientUnits="userSpaceOnUse">
	<stop  offset="0" style="stop-color:#FFFFFF"/>
	<stop  offset="0.13" style="stop-color:#FFFFFB"/>
	<stop  offset="0.26" style="stop-color:#FFFFEE"/>
	<stop  offset="0.39" style="stop-color:#FFFFDA"/>
	<stop  offset="0.53" style="stop-color:#FFFFBD"/>
	<stop  offset="0.66" style="stop-color:#FFFF98"/>
	<stop  offset="0.7" style="stop-color:#FFFF8C"/>
	<stop  offset="1" style="stop-color:#FFC728"/>
</radialGradient>
<circle class="st84" cx="759.3" cy="576.8" r="8.4"/>
<radialGradient id="SVGID_63_" cx="759.31" cy="262.51" r="8.37" gradientTransform="matrix(1 0 0 -1 -5.252771e-02 772.0087)" gradientUnits="userSpaceOnUse">
	<stop  offset="0" style="stop-color:#FFFFFF"/>
	<stop  offset="0.13" style="stop-color:#FFFFFB"/>
	<stop  offset="0.26" style="stop-color:#FFFFEE"/>
	<stop  offset="0.39" style="stop-color:#FFFFDA"/>
	<stop  offset="0.53" style="stop-color:#FFFFBD"/>
	<stop  offset="0.66" style="stop-color:#FFFF98"/>
	<stop  offset="0.7" style="stop-color:#FFFF8C"/>
	<stop  offset="1" style="stop-color:#FFC728"/>
</radialGradient>
<circle class="st85" cx="759.3" cy="509.5" r="8.4"/>
<radialGradient id="SVGID_64_" cx="759.31" cy="329.86" r="8.37" gradientTransform="matrix(1 0 0 -1 0 772)" gradientUnits="userSpaceOnUse">
	<stop  offset="0" style="stop-color:#FFFFFF"/>
	<stop  offset="0.13" style="stop-color:#FFFFFB"/>
	<stop  offset="0.26" style="stop-color:#FFFFEE"/>
	<stop  offset="0.39" style="stop-color:#FFFFDA"/>
	<stop  offset="0.53" style="stop-color:#FFFFBD"/>
	<stop  offset="0.66" style="stop-color:#FFFF98"/>
	<stop  offset="0.7" style="stop-color:#FFFF8C"/>
	<stop  offset="1" style="stop-color:#FFC728"/>
</radialGradient>
<circle class="st86" cx="759.3" cy="442.1" r="8.4"/>
<radialGradient id="SVGID_65_" cx="759.3199" cy="397.21" r="8.365" gradientTransform="matrix(1 0 0 -1 -4.109576e-02 772.0131)" gradientUnits="userSpaceOnUse">
	<stop  offset="0" style="stop-color:#FFFFFF"/>
	<stop  offset="0.13" style="stop-color:#FFFFFB"/>
	<stop  offset="0.26" style="stop-color:#FFFFEE"/>
	<stop  offset="0.39" style="stop-color:#FFFFDA"/>
	<stop  offset="0.53" style="stop-color:#FFFFBD"/>
	<stop  offset="0.66" style="stop-color:#FFFF98"/>
	<stop  offset="0.7" style="stop-color:#FFFF8C"/>
	<stop  offset="1" style="stop-color:#FFC728"/>
</radialGradient>
<circle class="st87" cx="759.3" cy="374.8" r="8.4"/>
<radialGradient id="SVGID_66_" cx="731.33" cy="446.87" r="8.37" gradientTransform="matrix(1 0 0 -1 0 772)" gradientUnits="userSpaceOnUse">
	<stop  offset="0" style="stop-color:#FFFFFF"/>
	<stop  offset="0.13" style="stop-color:#FFFFFB"/>
	<stop  offset="0.26" style="stop-color:#FFFFEE"/>
	<stop  offset="0.39" style="stop-color:#FFFFDA"/>
	<stop  offset="0.53" style="stop-color:#FFFFBD"/>
	<stop  offset="0.66" style="stop-color:#FFFF98"/>
	<stop  offset="0.7" style="stop-color:#FFFF8C"/>
	<stop  offset="1" style="stop-color:#FFC728"/>
</radialGradient>
<circle class="st88" cx="731.3" cy="325.1" r="8.4"/>
<radialGradient id="SVGID_67_" cx="663.98" cy="446.87" r="8.37" gradientTransform="matrix(1 0 0 -1 0 772)" gradientUnits="userSpaceOnUse">
	<stop  offset="0" style="stop-color:#FFFFFF"/>
	<stop  offset="0.13" style="stop-color:#FFFFFB"/>
	<stop  offset="0.26" style="stop-color:#FFFFEE"/>
	<stop  offset="0.39" style="stop-color:#FFFFDA"/>
	<stop  offset="0.53" style="stop-color:#FFFFBD"/>
	<stop  offset="0.66" style="stop-color:#FFFF98"/>
	<stop  offset="0.7" style="stop-color:#FFFF8C"/>
	<stop  offset="1" style="stop-color:#FFC728"/>
</radialGradient>
<circle class="st89" cx="664" cy="325.1" r="8.4"/>
<radialGradient id="SVGID_68_" cx="596.64" cy="446.87" r="8.37" gradientTransform="matrix(1 0 0 -1 0 772)" gradientUnits="userSpaceOnUse">
	<stop  offset="0" style="stop-color:#FFFFFF"/>
	<stop  offset="0.13" style="stop-color:#FFFFFB"/>
	<stop  offset="0.26" style="stop-color:#FFFFEE"/>
	<stop  offset="0.39" style="stop-color:#FFFFDA"/>
	<stop  offset="0.53" style="stop-color:#FFFFBD"/>
	<stop  offset="0.66" style="stop-color:#FFFF98"/>
	<stop  offset="0.7" style="stop-color:#FFFF8C"/>
	<stop  offset="1" style="stop-color:#FFC728"/>
</radialGradient>
<circle class="st90" cx="596.6" cy="325.1" r="8.4"/>
<radialGradient id="SVGID_69_" cx="529.29" cy="446.87" r="8.37" gradientTransform="matrix(1 0 0 -1 0 772)" gradientUnits="userSpaceOnUse">
	<stop  offset="0" style="stop-color:#FFFFFF"/>
	<stop  offset="0.13" style="stop-color:#FFFFFB"/>
	<stop  offset="0.26" style="stop-color:#FFFFEE"/>
	<stop  offset="0.39" style="stop-color:#FFFFDA"/>
	<stop  offset="0.53" style="stop-color:#FFFFBD"/>
	<stop  offset="0.66" style="stop-color:#FFFF98"/>
	<stop  offset="0.7" style="stop-color:#FFFF8C"/>
	<stop  offset="1" style="stop-color:#FFC728"/>
</radialGradient>
<circle class="st91" cx="529.3" cy="325.1" r="8.4"/>
<radialGradient id="SVGID_70_" cx="461.94" cy="446.87" r="8.37" gradientTransform="matrix(1 0 0 -1 0 772)" gradientUnits="userSpaceOnUse">
	<stop  offset="0" style="stop-color:#FFFFFF"/>
	<stop  offset="0.13" style="stop-color:#FFFFFB"/>
	<stop  offset="0.26" style="stop-color:#FFFFEE"/>
	<stop  offset="0.39" style="stop-color:#FFFFDA"/>
	<stop  offset="0.53" style="stop-color:#FFFFBD"/>
	<stop  offset="0.66" style="stop-color:#FFFF98"/>
	<stop  offset="0.7" style="stop-color:#FFFF8C"/>
	<stop  offset="1" style="stop-color:#FFC728"/>
</radialGradient>
<circle class="st92" cx="461.9" cy="325.1" r="8.4"/>
</svg>
