<?xml version="1.0" encoding="utf-8"?>
<!-- Generator: Adobe Illustrator 25.2.3, SVG Export Plug-In . SVG Version: 6.00 Build 0)  -->
<svg version="1.1" id="Layer_1" xmlns="http://www.w3.org/2000/svg" xmlns:xlink="http://www.w3.org/1999/xlink" x="0px" y="0px"
	 viewBox="0 0 780 770" style="enable-background:new 0 0 780 770;" xml:space="preserve">
<style type="text/css">
	.st0{fill:#7C5438;}
	.st1{opacity:0.5;}
	.st2{fill:#CE9F38;}
	.st3{fill:#E5AE41;}
	.st4{opacity:0.5;fill:#CE9F38;enable-background:new    ;}
	.st5{opacity:0.4;fill:#CE9F38;enable-background:new    ;}
	.st6{fill:#FFE3C7;}
	.st7{fill:url(#SVGID_1_);}
	.st8{fill:#C77B4B;}
	.st9{fill:#F0D9AA;}
	.st10{clip-path:url(#SVGID_3_);}
	.st11{clip-path:url(#SVGID_5_);}
	.st12{fill:#46DCFF;}
	.st13{fill:#178C80;}
	.st14{fill:#139E69;}
	.st15{fill:#2ABCB1;}
	.st16{fill:#1F7F58;}
	.st17{fill:#4FAAA5;}
	.st18{fill:#32CE95;stroke:#0C685D;stroke-miterlimit:10;}
	.st19{fill:#3CBF7A;}
	.st20{opacity:0.45;fill:#92CC36;enable-background:new    ;}
	.st21{fill:#659E7B;}
	.st22{fill:#61847D;}
	.st23{fill:#41685F;}
	.st24{fill:#5BA389;}
	.st25{fill:#256350;}
	.st26{fill:#22493F;}
	.st27{fill:#423628;}
	.st28{fill:#564837;}
	.st29{fill:#84766D;}
	.st30{fill:#93908C;}
	.st31{opacity:0.75;}
	.st32{opacity:0.43;fill:#88F1FF;enable-background:new    ;}
	.st33{fill:#045D6B;}
	.st34{fill:none;}
	.st35{fill:#163A30;}
	.st36{fill:#0A8C57;}
	.st37{fill:#94877E;}
	.st38{fill:#A8A4A0;}
	.st39{fill:url(#SVGID_6_);}
	.st40{fill:url(#SVGID_7_);}
	.st41{fill:url(#SVGID_8_);}
	.st42{fill:url(#SVGID_9_);}
	.st43{fill:url(#SVGID_10_);}
	.st44{fill:url(#SVGID_11_);}
	.st45{fill:url(#SVGID_12_);}
	.st46{fill:url(#SVGID_13_);}
	.st47{fill:url(#SVGID_14_);}
	.st48{fill:url(#SVGID_15_);}
	.st49{fill:url(#SVGID_16_);}
	.st50{fill:url(#SVGID_17_);}
	.st51{fill:url(#SVGID_18_);}
	.st52{fill:url(#SVGID_19_);}
	.st53{fill:url(#SVGID_20_);}
	.st54{fill:url(#SVGID_21_);}
	.st55{fill:url(#SVGID_22_);}
	.st56{fill:url(#SVGID_23_);}
	.st57{fill:url(#SVGID_24_);}
	.st58{fill:url(#SVGID_25_);}
	.st59{fill:url(#SVGID_26_);}
	.st60{fill:url(#SVGID_27_);}
	.st61{fill:url(#SVGID_28_);}
	.st62{fill:url(#SVGID_29_);}
	.st63{fill:url(#SVGID_30_);}
	.st64{fill:url(#SVGID_31_);}
	.st65{fill:url(#SVGID_32_);}
	.st66{fill:url(#SVGID_33_);}
	.st67{fill:url(#SVGID_34_);}
	.st68{fill:url(#SVGID_35_);}
	.st69{fill:url(#SVGID_36_);}
	.st70{fill:url(#SVGID_37_);}
	.st71{fill:url(#SVGID_38_);}
	.st72{fill:url(#SVGID_39_);}
	.st73{fill:url(#SVGID_40_);}
</style>
<path class="st0" d="M649.2,297.3c-9.9,0-17.9-8-17.9-17.8s8-17.9,17.8-17.9c9.9,0,17.9,8,17.9,17.8c0,0,0,0,0,0
	C667,289.3,659,297.3,649.2,297.3z M649.2,267.3c-6.7,0-12.1,5.4-12.1,12.1s5.4,12.1,12.1,12.1s12.1-5.4,12.1-12.1c0,0,0,0,0,0
	C661.2,272.8,655.8,267.4,649.2,267.3L649.2,267.3z"/>
<g class="st1">
	<path class="st2" d="M649.3,295.4c-8.9,0-16.1-7.2-16.1-16.1c0-8.9,7.2-16.1,16.1-16.1c8.9,0,16.1,7.2,16.1,16.1c0,0,0,0,0,0
		C665.5,288.2,658.2,295.4,649.3,295.4z M649.3,265.1c-7.9,0-14.2,6.4-14.2,14.2s6.4,14.2,14.2,14.2c7.9,0,14.2-6.4,14.2-14.2
		c0,0,0,0,0,0C663.5,271.4,657.2,265.1,649.3,265.1z"/>
</g>
<path class="st3" d="M642.7,265.7c-0.8-0.2-1.7-0.1-2.5,0.4l-1,0.6c-1.4,2.2-3.6,3.6-4.8,6.1c-0.6,1.3-1,2.8-1.2,4.2
	c-0.2,1.6,0.2,3.7,1.6,1.7s1.3-5.6,2.8-7.8C638.8,269.3,643,267.4,642.7,265.7z"/>
<path class="st3" d="M664.3,281.3c-1.4-0.3-2.5,5.8-3.6,7.2c-2.1,2.7-4.4,3.6-7.4,4.4l-0.6,0.2c-1.5,0-1.3,1.1,0,1.3
	c1-0.1,1.9-0.4,2.8-0.8c1.7-0.7,3.2-1.7,4.5-3C662.2,288.6,665.6,284.6,664.3,281.3z"/>
<rect x="645.6" y="296.5" class="st0" width="7.1" height="13.9"/>
<polygon class="st4" points="646.6,298.3 646.7,309.9 649.6,310.4 649.1,299.9 "/>
<path class="st0" d="M648.1,255.2c-8.8,0-15.9-7.1-15.9-15.9s7.1-15.9,15.9-15.9s15.9,7.1,15.9,15.9
	C664,248.1,656.9,255.2,648.1,255.2z M648.1,228.5c-6,0-10.8,4.8-10.8,10.8c0,6,4.8,10.8,10.8,10.8c6,0,10.8-4.8,10.8-10.8
	c0,0,0,0,0,0C658.9,233.4,654.1,228.5,648.1,228.5L648.1,228.5z"/>
<g class="st1">
	<path class="st2" d="M648.3,253.5c-7.9,0-14.4-6.4-14.4-14.4s6.4-14.4,14.4-14.4c7.9,0,14.4,6.4,14.4,14.4c0,0,0,0,0,0
		C662.6,247.1,656.2,253.5,648.3,253.5z M648.3,226.5c-7,0-12.6,5.7-12.6,12.7c0,7,5.7,12.6,12.7,12.6c7,0,12.6-5.7,12.6-12.7
		C661,232.2,655.3,226.5,648.3,226.5C648.3,226.5,648.3,226.5,648.3,226.5L648.3,226.5z"/>
</g>
<path class="st3" d="M642.4,227c-0.7-0.2-1.5-0.1-2.2,0.3l-0.8,0.5c-1.3,1.9-3.2,3.2-4.3,5.4c-0.5,1.2-0.9,2.5-1,3.8
	c-0.2,1.4,0.1,3.3,1.4,1.5s1.1-4.9,2.5-7C638.8,230.3,642.7,228.5,642.4,227z"/>
<path class="st3" d="M661.6,241c-1.3-0.3-2.2,5.1-3.2,6.4c-1.9,2.4-3.9,3.2-6.6,3.9l-0.5,0.2c-1.3,0.1-1.2,1,0,1.2
	c0.9-0.1,1.7-0.3,2.5-0.7c1.5-0.6,2.8-1.5,4-2.6C659.7,247.5,662.8,243.9,661.6,241z"/>
<path class="st0" d="M652.6,269.9c0,1.4-1.6,2.6-3.5,2.6l0,0c-2,0-3.5-1.2-3.5-2.6v-22.1c0-1.4,1.6-2.6,3.5-2.6l0,0
	c2,0,3.5,1.2,3.5,2.6V269.9z"/>
<path class="st5" d="M650.6,263.3c-0.1,1-1,1.8-2,1.8l0,0c-1,0.1-1.9-0.7-2-1.8v-15.1c0.1-1,1-1.8,2-1.8l0,0c1-0.1,1.9,0.7,2,1.8
	V263.3z"/>
<path class="st3" d="M648.5,254.6c-0.3-2.1,0.7-4,0.4-6c-0.3-0.1-0.6-0.2-0.9-0.3h-0.1c-1.3,1.3-0.2,4.4-0.3,6.1
	c0,0.9-1.1,5.4,0.5,5.3S648.6,255.4,648.5,254.6z"/>
<path class="st0" d="M648.3,212.1c-8.8,0-15.9-7.1-15.9-15.9s7.1-15.9,15.9-15.9s15.9,7.1,15.9,15.9c0,0,0,0,0,0
	C664.2,205,657.1,212.1,648.3,212.1z M648.3,185.4c-6,0-10.8,4.8-10.8,10.8s4.8,10.8,10.8,10.8c6,0,10.8-4.8,10.8-10.8c0,0,0,0,0,0
	C659.1,190.2,654.2,185.4,648.3,185.4z"/>
<g class="st1">
	<path class="st2" d="M648.5,210.4c-7.9,0-14.4-6.4-14.4-14.4s6.4-14.4,14.4-14.4c7.9,0,14.4,6.4,14.4,14.4c0,0,0,0,0,0
		C662.8,203.9,656.4,210.4,648.5,210.4z M648.5,183.4c-7,0-12.7,5.7-12.7,12.7c0,7,5.7,12.7,12.7,12.7c7,0,12.7-5.7,12.7-12.7
		c0,0,0,0,0,0C661.1,189,655.4,183.3,648.5,183.4L648.5,183.4z"/>
</g>
<path class="st3" d="M642.6,183.9c-0.7-0.2-1.5-0.1-2.2,0.3l-0.8,0.5c-1.3,2-3.2,3.2-4.3,5.4c-0.5,1.2-0.9,2.5-1,3.7
	c-0.2,1.4,0.1,3.3,1.4,1.5s1.1-4.9,2.5-7C639,187.1,642.8,185.4,642.6,183.9z"/>
<path class="st3" d="M661.8,197.8c-1.3-0.3-2.2,5.1-3.2,6.4c-1.9,2.4-3.9,3.2-6.6,3.9l-0.5,0.2c-1.3,0-1.2,1,0,1.2
	c0.9-0.1,1.7-0.3,2.5-0.7c1.5-0.6,2.8-1.5,4-2.6C659.9,204.3,662.9,200.8,661.8,197.8z"/>
<path class="st0" d="M652.6,230.2c0,1.4-1.6,2.6-3.5,2.6l0,0c-2,0-3.5-1.2-3.5-2.6v-22.1c0-1.4,1.6-2.6,3.5-2.6l0,0
	c2,0,3.5,1.2,3.5,2.6V230.2z"/>
<path class="st5" d="M650.6,223.5c-0.1,1-1,1.8-2,1.8l0,0c-1,0.1-1.9-0.7-2-1.8v-15.1c0.1-1,1-1.8,2-1.8l0,0c1-0.1,1.9,0.7,2,1.8
	V223.5z"/>
<path class="st3" d="M648.5,214.9c-0.3-2.1,0.7-4,0.4-6c-0.3-0.1-0.6-0.2-0.9-0.3h-0.1c-1.3,1.3-0.2,4.4-0.3,6.1
	c0,0.9-1.1,5.4,0.5,5.4S648.6,215.7,648.5,214.9z"/>
<path class="st0" d="M648.3,167.5c-8.8,0-15.9-7.1-15.9-15.9s7.1-15.9,15.9-15.9s15.9,7.1,15.9,15.9
	C664.2,160.4,657.1,167.5,648.3,167.5z M648.3,140.8c-6,0-10.8,4.8-10.8,10.8c0,6,4.8,10.8,10.8,10.8c6,0,10.8-4.8,10.8-10.8
	c0,0,0,0,0,0C659.1,145.6,654.2,140.8,648.3,140.8z"/>
<g class="st1">
	<path class="st2" d="M648.5,165.8c-7.9,0-14.4-6.4-14.4-14.4s6.4-14.4,14.4-14.4c7.9,0,14.4,6.4,14.4,14.4c0,0,0,0,0,0
		C662.8,159.4,656.4,165.8,648.5,165.8z M648.5,138.8c-7,0-12.7,5.7-12.7,12.7c0,7,5.7,12.7,12.7,12.7c7,0,12.7-5.7,12.7-12.7v0
		C661.1,144.5,655.5,138.8,648.5,138.8C648.5,138.8,648.5,138.8,648.5,138.8L648.5,138.8z"/>
</g>
<path class="st3" d="M642.6,139.3c-0.7-0.2-1.5,0-2.2,0.3l-0.8,0.5c-1.3,2-3.2,3.2-4.3,5.4c-0.5,1.2-0.9,2.5-1,3.8
	c-0.2,1.4,0.1,3.3,1.4,1.5s1.1-5,2.5-7C639,142.6,642.8,140.8,642.6,139.3z"/>
<path class="st3" d="M661.8,153.3c-1.3-0.3-2.2,5.1-3.2,6.4c-1.9,2.4-3.9,3.2-6.6,3.9l-0.5,0.2c-1.3,0-1.2,1,0,1.2
	c0.9-0.1,1.7-0.3,2.5-0.7c1.5-0.6,2.8-1.5,4-2.6C659.9,159.8,662.9,156.2,661.8,153.3z"/>
<path class="st0" d="M652.6,185.6c0,1.4-1.6,2.6-3.5,2.6l0,0c-2,0-3.5-1.2-3.5-2.6v-22.1c0-1.4,1.6-2.6,3.5-2.6l0,0
	c2,0,3.5,1.2,3.5,2.6V185.6z"/>
<path class="st5" d="M650.6,179c-0.1,1-1,1.8-2,1.8l0,0c-1,0.1-1.9-0.7-2-1.8v-15.1c0.1-1,1-1.8,2-1.8l0,0c1-0.1,1.9,0.7,2,1.8V179z
	"/>
<path class="st3" d="M648.5,170.3c-0.3-2.1,0.7-4,0.4-6c-0.3-0.1-0.6-0.2-0.9-0.3h-0.1c-1.3,1.3-0.2,4.4-0.3,6.1
	c0,0.9-1.1,5.4,0.5,5.4S648.6,171.1,648.5,170.3z"/>
<path class="st0" d="M648.3,122.6c-8.8,0-15.9-7.1-15.9-15.9s7.1-15.9,15.9-15.9c8.8,0,15.9,7.1,15.9,15.9
	C664.2,115.4,657.1,122.5,648.3,122.6z M648.3,95.9c-6,0-10.8,4.8-10.8,10.8c0,6,4.8,10.8,10.8,10.8c6,0,10.8-4.8,10.8-10.8v0
	C659.1,100.7,654.2,95.9,648.3,95.9z"/>
<g class="st1">
	<path class="st2" d="M648.5,120.8c-7.9,0-14.4-6.4-14.4-14.4s6.4-14.4,14.4-14.4c7.9,0,14.4,6.4,14.4,14.4l0,0
		C662.8,114.4,656.4,120.8,648.5,120.8z M648.5,93.8c-7,0-12.7,5.7-12.7,12.7c0,7,5.7,12.7,12.7,12.7c7,0,12.7-5.7,12.7-12.7
		c0,0,0,0,0,0C661.1,99.5,655.5,93.8,648.5,93.8C648.5,93.8,648.5,93.8,648.5,93.8L648.5,93.8z"/>
</g>
<path class="st3" d="M642.6,94.3c-0.7-0.2-1.5,0-2.2,0.3l-0.8,0.5c-1.3,2-3.2,3.2-4.3,5.4c-0.5,1.2-0.9,2.5-1,3.8
	c-0.2,1.4,0.1,3.3,1.4,1.5s1.1-4.9,2.5-7C639,97.6,642.8,95.8,642.6,94.3z"/>
<path class="st3" d="M661.8,108.3c-1.3-0.3-2.2,5.2-3.2,6.4c-1.9,2.4-3.9,3.2-6.6,3.9l-0.5,0.2c-1.3,0-1.2,1,0,1.2
	c0.9-0.1,1.7-0.3,2.5-0.7c1.5-0.6,2.8-1.5,4-2.6C659.9,114.8,662.9,111.3,661.8,108.3z"/>
<path class="st0" d="M652.6,140.6c0,1.4-1.6,2.6-3.5,2.6l0,0c-2,0-3.5-1.2-3.5-2.6v-22c0-1.4,1.6-2.6,3.5-2.6l0,0
	c2,0,3.5,1.2,3.5,2.6V140.6z"/>
<path class="st5" d="M650.6,134c-0.1,1-1,1.8-2,1.8l0,0c-1,0.1-1.9-0.7-2-1.8v-15.1c0.1-1,1-1.8,2-1.8l0,0c1-0.1,1.9,0.7,2,1.8V134z
	"/>
<path class="st3" d="M648.5,125.3c-0.3-2.1,0.7-4,0.4-6c-0.3-0.1-0.6-0.2-0.9-0.3h-0.1c-1.3,1.3-0.2,4.4-0.3,6.1
	c0,0.9-1.1,5.4,0.5,5.4S648.6,126.2,648.5,125.3z"/>
<path class="st0" d="M648.3,77.8c-8.8,0-15.9-7.1-15.9-15.9S639.5,46,648.3,46s15.9,7.1,15.9,15.9C664.2,70.7,657.1,77.8,648.3,77.8
	z M648.3,51.1c-6,0-10.8,4.8-10.8,10.8c0,6,4.8,10.8,10.8,10.8c6,0,10.8-4.8,10.8-10.8c0,0,0,0,0,0C659.1,56,654.2,51.1,648.3,51.1z
	"/>
<g class="st1">
	<path class="st2" d="M648.5,76.1c-7.9,0-14.4-6.4-14.4-14.4s6.4-14.4,14.4-14.4c7.9,0,14.4,6.4,14.4,14.4c0,0,0,0,0,0
		C662.8,69.7,656.4,76.1,648.5,76.1z M648.5,49.1c-7,0-12.7,5.7-12.7,12.7c0,7,5.7,12.7,12.7,12.7c7,0,12.7-5.7,12.7-12.7
		c0,0,0,0,0,0C661.1,54.8,655.5,49.1,648.5,49.1C648.5,49.1,648.5,49.1,648.5,49.1L648.5,49.1z"/>
</g>
<path class="st3" d="M642.6,49.6c-0.7-0.2-1.5,0-2.2,0.3l-0.8,0.5c-1.3,2-3.2,3.2-4.3,5.4c-0.5,1.2-0.9,2.5-1,3.8
	c-0.2,1.4,0.1,3.3,1.4,1.5s1.1-5,2.5-7C639,52.9,642.8,51.1,642.6,49.6z"/>
<path class="st3" d="M661.8,63.6c-1.3-0.3-2.2,5.2-3.2,6.4c-1.9,2.4-3.9,3.2-6.6,3.9l-0.5,0.2c-1.3,0.1-1.2,1,0,1.2
	c0.9-0.1,1.7-0.3,2.5-0.7c1.5-0.6,2.8-1.5,4-2.6C659.9,70.1,662.9,66.5,661.8,63.6z"/>
<path class="st0" d="M652.6,95.9c0,1.4-1.6,2.6-3.5,2.6l0,0c-2,0-3.5-1.2-3.5-2.6v-22c0-1.4,1.6-2.6,3.5-2.6l0,0
	c2,0,3.5,1.2,3.5,2.6V95.9z"/>
<path class="st5" d="M650.6,89.3c-0.1,1-1,1.8-2,1.8l0,0c-1,0.1-1.9-0.7-2-1.8V74.2c0.1-1,1-1.8,2-1.8l0,0c1-0.1,1.9,0.7,2,1.8V89.3
	z"/>
<path class="st3" d="M648.5,80.6c-0.3-2.1,0.7-4,0.4-6c-0.3-0.1-0.6-0.2-0.9-0.3h-0.1c-1.3,1.3-0.2,4.4-0.3,6.1
	c0,0.9-1.1,5.3,0.5,5.3S648.6,81.5,648.5,80.6z"/>
<path class="st0" d="M648.3,35.4c-8.8,0-15.9-7.1-15.9-15.9s7.1-15.9,15.9-15.9s15.9,7.1,15.9,15.9
	C664.2,28.3,657.1,35.4,648.3,35.4z M648.3,8.7c-6,0-10.8,4.8-10.8,10.8c0,6,4.8,10.8,10.8,10.8c6,0,10.8-4.8,10.8-10.8c0,0,0,0,0,0
	C659.1,13.6,654.2,8.7,648.3,8.7z"/>
<g class="st1">
	<path class="st2" d="M648.5,33.7c-7.9,0-14.4-6.4-14.4-14.4S640.5,5,648.5,5c7.9,0,14.4,6.4,14.4,14.4c0,0,0,0,0,0
		C662.8,27.3,656.4,33.7,648.5,33.7z M648.5,6.7c-7,0-12.7,5.7-12.7,12.7c0,7,5.7,12.7,12.7,12.7c7,0,12.7-5.7,12.7-12.7
		c0,0,0,0,0,0C661.1,12.4,655.5,6.7,648.5,6.7C648.5,6.7,648.5,6.7,648.5,6.7L648.5,6.7z"/>
</g>
<path class="st3" d="M642.6,7.2c-0.7-0.2-1.5-0.1-2.2,0.3L639.5,8c-1.3,2-3.2,3.2-4.3,5.4c-0.5,1.2-0.9,2.5-1,3.8
	c-0.2,1.4,0.1,3.3,1.4,1.5s1.1-4.9,2.5-7C639,10.5,642.8,8.7,642.6,7.2z"/>
<path class="st3" d="M661.8,21.2c-1.3-0.3-2.2,5.1-3.2,6.4c-1.9,2.4-3.9,3.2-6.6,3.9l-0.5,0.2c-1.3,0-1.2,1,0,1.2
	c0.9-0.1,1.7-0.3,2.5-0.7c1.5-0.6,2.8-1.5,4-2.6C659.9,27.7,662.9,24.1,661.8,21.2z"/>
<path class="st0" d="M652.6,53.5c0,1.4-1.6,2.6-3.5,2.6l0,0c-2,0-3.5-1.2-3.5-2.6V31.5c0-1.4,1.6-2.6,3.5-2.6l0,0
	c2,0,3.5,1.2,3.5,2.6V53.5z"/>
<path class="st5" d="M650.6,46.9c-0.1,1-1,1.8-2,1.8l0,0c-1,0.1-1.9-0.7-2-1.8V31.8c0.1-1,1-1.8,2-1.8l0,0c1-0.1,1.9,0.7,2,1.8V46.9
	z"/>
<path class="st3" d="M648.5,38.2c-0.3-2.1,0.7-4,0.4-6c-0.3-0.1-0.5-0.2-0.8-0.2h-0.1c-1.3,1.3-0.2,4.4-0.3,6.1
	c0,0.9-1.1,5.3,0.5,5.3S648.6,39,648.5,38.2z"/>
<path class="st0" d="M130.8,297.3c-9.9,0-17.9-8-17.9-17.8s8-17.9,17.8-17.9c9.9,0,17.9,8,17.9,17.8c0,0,0,0,0,0
	C148.7,289.3,140.7,297.3,130.8,297.3z M130.8,267.3c-6.7,0-12.1,5.5-12.1,12.2c0,6.7,5.5,12.1,12.2,12.1c6.7,0,12.1-5.4,12.1-12.1
	C143,272.8,137.6,267.4,130.8,267.3C130.9,267.4,130.9,267.4,130.8,267.3L130.8,267.3z"/>
<g class="st1">
	<path class="st2" d="M131,295.4c-8.9,0-16.1-7.2-16.1-16.1c0-8.9,7.2-16.1,16.1-16.1c8.9,0,16.1,7.2,16.1,16.1
		C147.1,288.2,139.9,295.4,131,295.4z M131,265.1c-7.9,0-14.2,6.4-14.2,14.2c0,7.9,6.4,14.2,14.2,14.2s14.2-6.4,14.2-14.2
		c0,0,0,0,0,0C145.2,271.4,138.8,265.1,131,265.1z"/>
</g>
<path class="st3" d="M124.4,265.7c-0.8-0.2-1.7-0.1-2.4,0.3l-1,0.6c-1.4,2.2-3.6,3.6-4.8,6.1c-0.6,1.3-1,2.7-1.2,4.2
	c-0.2,1.6,0.1,3.7,1.6,1.7s1.3-5.6,2.8-7.8C120.4,269.3,124.7,267.4,124.4,265.7z"/>
<path class="st3" d="M146,281.3c-1.4-0.3-2.5,5.8-3.6,7.2c-2.1,2.7-4.4,3.6-7.4,4.4l-0.6,0.2c-1.5,0-1.3,1.1,0,1.3
	c1-0.1,1.9-0.4,2.8-0.8c1.7-0.7,3.2-1.7,4.5-3C143.9,288.6,147.3,284.6,146,281.3z"/>
<rect x="127.3" y="296.5" class="st0" width="7.1" height="13.9"/>
<polygon class="st4" points="128.3,298.3 128.4,309.9 131.3,310.4 130.8,299.9 "/>
<path class="st0" d="M129.8,255.2c-8.8,0-15.9-7.1-15.9-15.9c0-8.8,7.1-15.9,15.9-15.9s15.9,7.1,15.9,15.9c0,0,0,0,0,0
	C145.7,248.1,138.6,255.2,129.8,255.2z M129.8,228.5c-6,0-10.8,4.8-10.8,10.8s4.8,10.8,10.8,10.8s10.8-4.8,10.8-10.8
	C140.6,233.4,135.8,228.6,129.8,228.5L129.8,228.5z"/>
<g class="st1">
	<path class="st2" d="M130,253.5c-7.9,0-14.4-6.4-14.4-14.4c0-7.9,6.4-14.4,14.4-14.4c7.9,0,14.4,6.4,14.4,14.4c0,0,0,0,0,0
		C144.4,247.1,137.9,253.5,130,253.5z M130,226.5c-7,0-12.7,5.7-12.7,12.7s5.7,12.7,12.7,12.7s12.7-5.7,12.7-12.7l0,0
		C142.7,232.2,137,226.5,130,226.5L130,226.5L130,226.5z"/>
</g>
<path class="st3" d="M124.1,227c-0.7-0.2-1.5-0.1-2.2,0.3l-0.8,0.5c-1.3,1.9-3.2,3.2-4.3,5.4c-0.5,1.2-0.9,2.5-1,3.8
	c-0.2,1.4,0.1,3.3,1.4,1.5s1.1-4.9,2.5-7C120.5,230.3,124.3,228.5,124.1,227z"/>
<path class="st3" d="M143.3,241c-1.3-0.3-2.2,5.1-3.2,6.4c-1.9,2.4-3.9,3.2-6.6,3.9l-0.5,0.2c-1.4,0.1-1.2,1,0,1.2
	c0.9-0.1,1.7-0.3,2.5-0.7c1.5-0.6,2.8-1.5,4-2.6C141.4,247.5,144.4,243.9,143.3,241z"/>
<path class="st0" d="M134.3,269.9c0,1.4-1.6,2.6-3.5,2.6l0,0c-2,0-3.5-1.2-3.5-2.6v-22.1c0-1.4,1.6-2.6,3.5-2.6l0,0
	c1.9,0,3.5,1.2,3.5,2.6V269.9z"/>
<path class="st5" d="M132.3,263.3c-0.1,1-1,1.8-2,1.8l0,0c-1,0.1-1.9-0.7-2-1.8v-15.1c0.1-1,1-1.8,2-1.8l0,0c1-0.1,1.9,0.7,2,1.8
	V263.3z"/>
<path class="st3" d="M130.2,254.6c-0.3-2.1,0.7-4,0.4-6c-0.3-0.1-0.6-0.2-0.9-0.3h-0.1c-1.3,1.3-0.2,4.4-0.3,6.1
	c0,0.9-1.1,5.4,0.5,5.3S130.3,255.4,130.2,254.6z"/>
<path class="st0" d="M130,212.1c-8.8,0-15.9-7.1-15.9-15.9c0-8.8,7.1-15.9,15.9-15.9s15.9,7.1,15.9,15.9c0,0,0,0,0,0
	C145.9,204.9,138.8,212.1,130,212.1z M130,185.4c-6,0-10.8,4.8-10.8,10.8c0,6,4.8,10.8,10.8,10.8c6,0,10.8-4.8,10.8-10.8
	c0,0,0,0,0,0C140.8,190.2,136,185.4,130,185.4z"/>
<g class="st1">
	<path class="st2" d="M130.1,210.4c-7.9,0-14.4-6.4-14.4-14.4c0-7.9,6.4-14.4,14.4-14.4c7.9,0,14.4,6.4,14.4,14.4c0,0,0,0,0,0
		C144.5,203.9,138.1,210.4,130.1,210.4z M130.1,183.4c-7,0-12.7,5.7-12.7,12.7c0,7,5.7,12.7,12.7,12.7c7,0,12.7-5.7,12.7-12.7
		c0,0,0,0,0,0C142.8,189,137.1,183.3,130.1,183.4L130.1,183.4z"/>
</g>
<path class="st3" d="M124.2,183.9c-0.7-0.2-1.5-0.1-2.2,0.3l-0.8,0.5c-1.3,2-3.2,3.2-4.3,5.4c-0.5,1.2-0.9,2.5-1,3.7
	c-0.2,1.4,0.1,3.3,1.4,1.5s1.1-4.9,2.5-7C120.7,187.1,124.5,185.4,124.2,183.9z"/>
<path class="st3" d="M143.4,197.8c-1.3-0.3-2.2,5.1-3.2,6.4c-1.9,2.4-3.9,3.2-6.6,3.9l-0.5,0.2c-1.4,0-1.2,1,0,1.2
	c0.9-0.1,1.7-0.3,2.5-0.7c1.5-0.6,2.8-1.5,4-2.6C141.6,204.3,144.6,200.8,143.4,197.8z"/>
<path class="st0" d="M134.3,230.2c0,1.4-1.6,2.6-3.5,2.6l0,0c-1.9,0-3.5-1.2-3.5-2.6v-22.1c0-1.4,1.6-2.6,3.5-2.6l0,0
	c1.9,0,3.5,1.2,3.5,2.6V230.2z"/>
<path class="st5" d="M132.3,223.5c-0.1,1-1,1.8-2,1.8l0,0c-1,0.1-1.9-0.7-2-1.8v-15.1c0.1-1,1-1.8,2-1.8l0,0c1-0.1,1.9,0.7,2,1.8
	V223.5z"/>
<path class="st3" d="M130.1,214.9c-0.3-2.1,0.7-4,0.4-6c-0.3-0.1-0.6-0.2-0.9-0.3h-0.1c-1.3,1.3-0.2,4.4-0.3,6.1
	c0,0.9-1.1,5.4,0.5,5.4S130.3,215.7,130.1,214.9z"/>
<path class="st0" d="M130,167.5c-8.8,0-15.9-7.1-15.9-15.9c0-8.8,7.1-15.9,15.9-15.9s15.9,7.1,15.9,15.9c0,0,0,0,0,0
	C145.9,160.4,138.8,167.5,130,167.5z M130,140.8c-6,0-10.8,4.8-10.8,10.8s4.8,10.8,10.8,10.8s10.8-4.8,10.8-10.8
	C140.8,145.6,136,140.8,130,140.8z"/>
<g class="st1">
	<path class="st2" d="M130.1,165.8c-7.9,0-14.4-6.4-14.4-14.4c0-7.9,6.4-14.4,14.4-14.4c7.9,0,14.4,6.4,14.4,14.4c0,0,0,0,0,0
		C144.5,159.4,138.1,165.8,130.1,165.8z M130.1,138.8c-7,0-12.7,5.7-12.7,12.7s5.7,12.7,12.7,12.7s12.7-5.7,12.7-12.7l0,0
		C142.8,144.5,137.1,138.8,130.1,138.8L130.1,138.8L130.1,138.8z"/>
</g>
<path class="st3" d="M124.2,139.3c-0.7-0.2-1.5,0-2.2,0.3l-0.8,0.5c-1.3,2-3.2,3.2-4.3,5.4c-0.5,1.2-0.9,2.5-1,3.8
	c-0.2,1.4,0.1,3.3,1.4,1.5s1.1-5,2.5-7C120.7,142.6,124.5,140.8,124.2,139.3z"/>
<path class="st3" d="M143.4,153.3c-1.3-0.3-2.2,5.1-3.2,6.4c-1.9,2.4-3.9,3.2-6.6,3.9l-0.5,0.2c-1.4,0-1.2,1,0,1.2
	c0.9-0.1,1.7-0.3,2.5-0.7c1.5-0.6,2.8-1.5,4-2.6C141.6,159.8,144.6,156.2,143.4,153.3z"/>
<path class="st0" d="M134.3,185.6c0,1.4-1.6,2.6-3.5,2.6l0,0c-1.9,0-3.5-1.2-3.5-2.6v-22.1c0-1.4,1.6-2.6,3.5-2.6l0,0
	c1.9,0,3.5,1.2,3.5,2.6V185.6z"/>
<path class="st5" d="M132.3,179c-0.1,1-1,1.8-2,1.8l0,0c-1,0.1-1.9-0.7-2-1.8v-15.1c0.1-1,1-1.8,2-1.8l0,0c1-0.1,1.9,0.7,2,1.8V179z
	"/>
<path class="st3" d="M130.1,170.3c-0.3-2.1,0.7-4,0.4-6c-0.3-0.1-0.6-0.2-0.9-0.3h-0.1c-1.3,1.3-0.2,4.4-0.3,6.1
	c0,0.9-1.1,5.4,0.5,5.4S130.3,171.1,130.1,170.3z"/>
<path class="st0" d="M130,122.6c-8.8,0-15.9-7.1-15.9-15.9c0-8.8,7.1-15.9,15.9-15.9c8.8,0,15.9,7.1,15.9,15.9l0,0
	C145.9,115.4,138.8,122.5,130,122.6z M130,95.9c-6,0-10.8,4.8-10.8,10.8s4.8,10.8,10.8,10.8s10.8-4.8,10.8-10.8
	C140.8,100.7,136,95.9,130,95.9z"/>
<g class="st1">
	<path class="st2" d="M130.1,120.8c-7.9,0-14.4-6.4-14.4-14.4c0-7.9,6.4-14.4,14.4-14.4c7.9,0,14.4,6.4,14.4,14.4l0,0
		C144.5,114.4,138.1,120.8,130.1,120.8z M130.1,93.8c-7,0-12.7,5.7-12.7,12.7c0,7,5.7,12.7,12.7,12.7s12.7-5.7,12.7-12.7l0,0
		C142.8,99.5,137.1,93.8,130.1,93.8C130.1,93.8,130.1,93.8,130.1,93.8L130.1,93.8z"/>
</g>
<path class="st3" d="M124.2,94.3c-0.7-0.2-1.5,0-2.2,0.3l-0.8,0.5c-1.3,2-3.2,3.2-4.3,5.4c-0.5,1.2-0.9,2.5-1,3.8
	c-0.2,1.4,0.1,3.3,1.4,1.5s1.1-4.9,2.5-7C120.7,97.6,124.5,95.8,124.2,94.3z"/>
<path class="st3" d="M143.4,108.3c-1.3-0.3-2.2,5.2-3.2,6.4c-1.9,2.4-3.9,3.2-6.6,3.9l-0.5,0.2c-1.4,0-1.2,1,0,1.2
	c0.9-0.1,1.7-0.3,2.5-0.7c1.5-0.6,2.8-1.5,4-2.6C141.6,114.8,144.6,111.3,143.4,108.3z"/>
<path class="st0" d="M134.3,140.6c0,1.4-1.6,2.6-3.5,2.6l0,0c-1.9,0-3.5-1.2-3.5-2.6v-22c0-1.4,1.6-2.6,3.5-2.6l0,0
	c1.9,0,3.5,1.2,3.5,2.6V140.6z"/>
<path class="st5" d="M132.3,134c-0.1,1-1,1.8-2,1.8l0,0c-1,0.1-1.9-0.7-2-1.8v-15.1c0.1-1,1-1.8,2-1.8l0,0c1-0.1,1.9,0.7,2,1.8V134z
	"/>
<path class="st3" d="M130.1,125.3c-0.3-2.1,0.7-4,0.4-6c-0.3-0.1-0.6-0.2-0.9-0.3h-0.1c-1.3,1.3-0.2,4.4-0.3,6.1
	c0,0.9-1.1,5.4,0.5,5.4S130.3,126.2,130.1,125.3z"/>
<path class="st0" d="M130,77.8c-8.8,0-15.9-7.1-15.9-15.9c0-8.8,7.1-15.9,15.9-15.9s15.9,7.1,15.9,15.9v0
	C145.9,70.7,138.8,77.8,130,77.8z M130,51.1c-6,0-10.8,4.8-10.8,10.8S124,72.7,130,72.7s10.8-4.8,10.8-10.8
	C140.8,56,136,51.1,130,51.1z"/>
<g class="st1">
	<path class="st2" d="M130.1,76.1c-7.9,0-14.4-6.4-14.4-14.4c0-7.9,6.4-14.4,14.4-14.4c7.9,0,14.4,6.4,14.4,14.4c0,0,0,0,0,0
		C144.5,69.7,138.1,76.1,130.1,76.1z M130.1,49.1c-7,0-12.7,5.7-12.7,12.7c0,7,5.7,12.7,12.7,12.7c7,0,12.7-5.7,12.7-12.7
		c0,0,0,0,0,0C142.8,54.8,137.1,49.1,130.1,49.1L130.1,49.1z"/>
</g>
<path class="st3" d="M124.2,49.6c-0.7-0.2-1.5,0-2.2,0.3l-0.8,0.5c-1.3,2-3.2,3.2-4.3,5.4c-0.5,1.2-0.9,2.5-1,3.8
	c-0.2,1.4,0.1,3.3,1.4,1.5s1.1-5,2.5-7C120.7,52.9,124.5,51.1,124.2,49.6z"/>
<path class="st3" d="M143.4,63.6c-1.3-0.3-2.2,5.2-3.2,6.4c-1.9,2.4-3.9,3.2-6.6,3.9l-0.5,0.2c-1.4,0.1-1.2,1,0,1.2
	c0.9-0.1,1.7-0.3,2.5-0.7c1.5-0.6,2.8-1.5,4-2.6C141.6,70.1,144.6,66.5,143.4,63.6z"/>
<path class="st0" d="M134.3,95.9c0,1.4-1.6,2.6-3.5,2.6l0,0c-1.9,0-3.5-1.2-3.5-2.6v-22c0-1.4,1.6-2.6,3.5-2.6l0,0
	c1.9,0,3.5,1.2,3.5,2.6V95.9z"/>
<path class="st5" d="M132.3,89.3c-0.1,1-1,1.8-2,1.8l0,0c-1,0.1-1.9-0.7-2-1.8V74.2c0.1-1,1-1.8,2-1.8l0,0c1-0.1,1.9,0.7,2,1.8V89.3
	z"/>
<path class="st3" d="M130.1,80.6c-0.3-2.1,0.7-4,0.4-6c-0.3-0.1-0.6-0.2-0.9-0.3h-0.1c-1.3,1.3-0.2,4.4-0.3,6.1
	c0,0.9-1.1,5.3,0.5,5.3S130.3,81.5,130.1,80.6z"/>
<path class="st0" d="M130,35.4c-8.8,0-15.9-7.1-15.9-15.9c0-8.8,7.1-15.9,15.9-15.9s15.9,7.1,15.9,15.9c0,0,0,0,0,0
	C145.9,28.3,138.8,35.4,130,35.4z M130,8.7c-6,0-10.8,4.8-10.8,10.8S124,30.3,130,30.3s10.8-4.8,10.8-10.8
	C140.8,13.6,136,8.7,130,8.7z"/>
<g class="st1">
	<path class="st2" d="M130.1,33.7c-7.9,0-14.4-6.4-14.4-14.4c0-7.9,6.4-14.4,14.4-14.4c7.9,0,14.4,6.4,14.4,14.4c0,0,0,0,0,0
		C144.5,27.3,138.1,33.7,130.1,33.7z M130.1,6.7c-7,0-12.7,5.7-12.7,12.7c0,7,5.7,12.7,12.7,12.7c7,0,12.7-5.7,12.7-12.7
		c0,0,0,0,0,0C142.8,12.4,137.1,6.7,130.1,6.7L130.1,6.7z"/>
</g>
<path class="st3" d="M124.2,7.2c-0.7-0.2-1.5-0.1-2.2,0.3L121.2,8c-1.3,2-3.2,3.2-4.3,5.4c-0.5,1.2-0.9,2.5-1,3.8
	c-0.2,1.4,0.1,3.3,1.4,1.5s1.1-4.9,2.5-7C120.7,10.5,124.5,8.7,124.2,7.2z"/>
<path class="st3" d="M143.4,21.2c-1.3-0.3-2.2,5.1-3.2,6.4c-1.9,2.4-3.9,3.2-6.6,3.9l-0.5,0.2c-1.4,0-1.2,1,0,1.2
	c0.9-0.1,1.7-0.3,2.5-0.7c1.5-0.6,2.8-1.5,4-2.6C141.6,27.7,144.6,24.1,143.4,21.2z"/>
<path class="st0" d="M134.3,53.5c0,1.4-1.6,2.6-3.5,2.6l0,0c-1.9,0-3.5-1.2-3.5-2.6V31.5c0-1.4,1.6-2.6,3.5-2.6l0,0
	c1.9,0,3.5,1.2,3.5,2.6V53.5z"/>
<path class="st5" d="M132.3,46.9c-0.1,1-1,1.8-2,1.8l0,0c-1,0.1-1.9-0.7-2-1.8V31.8c0.1-1,1-1.8,2-1.8l0,0c1-0.1,1.9,0.7,2,1.8V46.9
	z"/>
<path class="st3" d="M130.1,38.2c-0.3-2.1,0.7-4,0.4-6c-0.3-0.1-0.6-0.2-0.9-0.3h-0.1c-1.3,1.3-0.2,4.4-0.3,6.1
	c0,0.9-1.1,5.3,0.5,5.3S130.3,39,130.1,38.2z"/>
<path class="st6" d="M44.7,310.7h690.7c21.2,0,38.4,17.2,38.4,38.4V728c0,21.2-17.2,38.4-38.4,38.4H44.7
	c-21.2,0-38.4-17.2-38.4-38.4V349.1C6.3,327.9,23.5,310.7,44.7,310.7z"/>
<linearGradient id="SVGID_1_" gradientUnits="userSpaceOnUse" x1="390" y1="-14.35" x2="390" y2="490.17" gradientTransform="matrix(1 0 0 -1 0 772)">
	<stop  offset="0" style="stop-color:#B11107"/>
	<stop  offset="0.26" style="stop-color:#C21608"/>
	<stop  offset="0.72" style="stop-color:#DA1E0A"/>
	<stop  offset="1" style="stop-color:#E3210B"/>
</linearGradient>
<path class="st7" d="M44.7,313.1h690.7c19.9,0,36,16.1,36,36V728c0,19.9-16.1,36-36,36H44.7c-19.9,0-36-16.1-36-36V349.1
	C8.7,329.2,24.8,313.1,44.7,313.1z"/>
<path class="st6" d="M44.7,337.1h690.7c6.6,0,12,5.4,12,12V728c0,6.6-5.4,12-12,12H44.7c-6.6,0-12-5.4-12-12V349.1
	C32.7,342.5,38,337.1,44.7,337.1z"/>
<path class="st8" d="M44.7,339.5h690.7c5.3,0,9.6,4.3,9.6,9.6V728c0,5.3-4.3,9.6-9.6,9.6H44.7c-5.3,0-9.6-4.3-9.6-9.6V349.1
	C35.1,343.8,39.4,339.5,44.7,339.5z"/>
<path class="st9" d="M44.7,346.3h690.7c1.3,0,2.4,1.1,2.4,2.4v378.9c0,1.3-1.1,2.4-2.4,2.4H44.7c-1.3,0-2.4-1.1-2.4-2.4V348.7
	C42.3,347.4,43.3,346.3,44.7,346.3z"/>
<g>
	<defs>
		<path id="SVGID_2_" d="M44.7,346.3h690.7c1.3,0,2.4,1.1,2.4,2.4v378.9c0,1.3-1.1,2.4-2.4,2.4H44.7c-1.3,0-2.4-1.1-2.4-2.4V348.7
			C42.3,347.4,43.3,346.3,44.7,346.3z"/>
	</defs>
	<clipPath id="SVGID_3_">
		<use xlink:href="#SVGID_2_"  style="overflow:visible;"/>
	</clipPath>
	<g class="st10">
		<g>
			<defs>
				<rect id="SVGID_4_" x="-67.8" y="339.5" width="1190.2" height="396.7"/>
			</defs>
			<clipPath id="SVGID_5_">
				<use xlink:href="#SVGID_4_"  style="overflow:visible;"/>
			</clipPath>
			<g class="st11">
				<rect x="-124.8" y="281.9" class="st12" width="1266" height="416.9"/>
				<path class="st13" d="M610.8,639.9c14.1,2.4,28,5.6,41.7,9c12.1,3,23.3,6.8,35,10.6c12.5,4.1,28.1,3.4,41.2,3.4
					c13.5,0,27.5,0.9,40.8-0.8c12.2-1.6,24.3-4.1,36.5-5.9c36.8-5.5,71.4-13,108.9-12.1s74.4,9.5,111.9,7.6
					c24.3-1.2,48.1-51.5,71.9-49l-7.1,146.5H474V640.3c0-1,42.5-4.8,45.3-5c18.7-0.9,37.4,0.1,56.1,0.8
					C587.3,636.6,599.1,637.8,610.8,639.9z"/>
				<path class="st14" d="M505.8,608.3c-0.6,1.7-0.3,3.5-0.4,5.3c0,0.4,0,1.6-0.6,1.4c-0.8-0.3-0.4-7.1-2.2-5.8
					c-0.6,0.4-0.2,2.4-0.1,2.9c0.3,2,0.8,4.1,1.5,6c0.1,0.2,0.1,0.4,0.2,0.6c0.1,0.3,0.2,0.5,0.4,0.8c0.3,0.9,0.3,1.9,0,2.8
					c-0.2,0.7-0.4,1.3-0.6,2c-0.4,0.9-0.8,1.7-1.3,2.6c-0.6,1-1.2,2-1.9,3c-0.2,0.3-1.7,2.1-1.7,0.8c0-0.7,0.1-1.3,0.3-2
					c0.4-1.4,0.8-2.8,1.4-4.1c0.3-0.7,2.4-6.1,0.7-6.2s-3,7.9-3.4,9.3c-0.5,1.9-0.9,3.7-1.1,5.7c-0.3,1.3-0.7,3.7-1.7,4.6
					c-0.5,0.3-1.1,0.3-1.5-0.2c0,0,0-0.1-0.1-0.1c-0.1-0.7-0.1-1.5,0-2.3c0-0.9,0.1-1.9,0.2-2.8c0.2-1.9,0.4-3.9,0.9-5.7
					c0.5-1.9,1.1-3.7,1.8-5.5c0.4-1.1,0.8-2.3,1.2-3.4c0.6-1.9,0.5-3.6,0-3.8s-1.2,1.3-1.8,3.1c-0.4,1.1-0.8,2.2-1.1,3.3
					c-0.5,1.4-1,2.7-1.4,4.2c-0.2,0.8-0.4,1.5-0.6,2.3s-0.6,2.7-1,0.9c-0.7-2.7-0.9-5.4-0.6-8.2c0.4-2.4,1-4.8,1.8-7
					c0.6-1.8,1.1-3.7,1.6-5.5c0.6-3.1,0-5.7-0.5-5.7c-1.3,0.1-0.9,3.3-1,4.1c-0.1,1.2-0.6,4.4-1.7,1.8c-0.5-1.1-0.4-7.1-1.9-7
					c-0.5,0-0.8,2.9-0.2,6.3s1.2,7.5,0.7,9.3c-0.3,1.1-0.5,2.2-0.7,3.4c-0.5,3.8,0.4,6.8,1.2,9.8c0.8,2.4,1.2,4.8,1.3,7.3
					c0,1.6-0.8,0.4-1.1-0.4c-1-2.5-1.7-5.1-1.9-7.8c0-0.5,0.1-2.8-0.9-2.5c-0.8,0.2-0.8,2.6-0.8,3.2c0,2.2,0.5,4.4,1.4,6.5
					c0.5,1.2,1,2.5,1.4,3.8c0.5,2,0.3,5-2.5,4.8c-2.5-0.2-1.5-3.9-1.2-5.5c0.1-0.9,0.3-1.8,0.4-2.7c0.1-1.5-0.5-2.7-0.9-2.6
					s-0.6,1.2-0.8,2.6c-0.1,0.7-0.2,1.4-0.3,2.1c-0.1,0.5-0.4,2-0.9,0.9c-0.2-0.5-0.3-1.1-0.2-1.7c0-1.1,0.1-2.1,0.2-3.2
					c0.3-2.8,1.4-5.5,2.1-8.2c0.8-2.8,1.4-5.7,1.9-8.6c0.6-3.4,0.6-6.3,0.1-6.4s-1.3,2.5-1.9,5.8s-1.4,3.1-1.1-0.4
					c0.2-2.5,0.5-5,0.9-7.6c0.3-2,0.5-4,0.8-6c0.4-3.3-0.1-6-0.6-6s-1,2.6-1.3,5.8c-0.2,2-0.5,3.9-0.8,5.8
					c-0.7,4.2-1.1,8.5-1.1,12.7c0.1,3.5,0.3,7.6-0.3,9.1s-1.8,0-1.9-3.5c-0.3-5.6,0.6-11.7,1.4-17.7c0.3-2.3,0.4-4.9,1-7.2
					c0.2-0.7,0.2-1.4,0.3-2.2c0.2-1.1,0.4-2.2,0.5-3.3c0-0.6,0.3-1.9-0.3-2.3c-1.1-0.7-2.2,3.8-2.2,4.5c-0.3,3.4-0.6,6.7-1,10
					c-0.2,1.2-0.4,2.7-1.4,1.2c-0.5-0.8-0.8-1.6-1.1-2.4c-0.5-1.5-0.9-3.1-1.2-4.7c-0.3-1.7-0.8-3.3-1.5-4.9
					c-0.3-0.6-1.6-2.6-1.7-0.8c-0.1,1.4,0.7,3.1,1,4.4c0.6,2.8,1.3,5.5,2.2,8.2c1.2,3.2,2.4,8.3,2.2,11.8c-0.2,2.6-0.1,5.3,0.2,7.9
					c0.4,3.2,1.3,6.3,2.6,9.2c0.4,0.9,0.7,1.7,1,2.5c0.5,1.4,0.3,2.7-0.1,2.6s-2.1-2.4-3.6-5.2c-1-1.6-1.8-3.3-2.4-5.1
					c-0.5-1.9-0.7-3.8-0.6-5.8c0-2.4,0-4.8-0.2-7.2c-0.2-2.9,0.1-5.8-0.2-8.8c-0.2-1.8-0.5-3.6-0.9-5.3c-0.1-0.4-0.2-3.4-0.7-3.5
					c-0.9-0.2-0.9,1.8-0.8,2.3c0.3,1.4,0.6,2.8,0.8,4.2s-0.6,0.9-1.1,0c-1.1-2.5-1.5-5.5-3.1-7.8c-1.3-1.7-2.3-0.5-1.6,1.2
					c1.5,3.4,3.5,6.2,4.5,10c1.3,4.8,1.4,9.9,1.4,14.9c0,0.6,0,1.2-0.1,1.8c-0.1,1.7,0.1,3.3,0.6,4.9c0.4,0.9,0.8,1.8,1.4,2.7
					c0.5,0.9,0.1,1.4-0.8,0.8c-0.6-0.3-1.1-0.7-1.6-1.2c-1.2-1.3-2.1-2.8-2.6-4.5c-0.8-2.5-1-5.2-0.5-7.8c0.3-1.7,1.4-4.4,0.6-6.1
					c-0.5-1.1-1.2,1.5-1.3,1.8c-0.4,1.3-0.4,3-1,4.2c-0.5,1-1.3,1.4-1.5,0c-0.2-1.9-0.3-3.7-0.2-5.6c-0.1-1.5-0.3-3-0.4-4.4
					c-0.2-2.1-0.5-4.1-0.7-6.2c-0.1-0.7-0.5-2.6-1.3-2.9c-1.9-0.6,0.3,7.8,0.3,8.5s-0.4,1-0.9,0.5s-1.3-4.1-2.3-3.8
					c-0.5,0.2-0.2,1.5-0.1,1.9c0.3,1.3,0.8,2.6,1.4,3.9c0.8,1.9,1.4,3.8,1.8,5.8c0.3,2,0.8,3.9,1.5,5.8c1.7,3.9,3.7,8.2,6,10.4
					c1,0.9,2.2,1.7,3.5,2.2c1.1,0.6,2.1,1.4,2.9,2.3c0.8,0.9,1.6,1.8,2.5,2.6c1.1,0.7,2.3,1.2,3.5,1.5c2.3,0.6,4.8,0.2,6.8-1.1
					c1.1-0.8,2-1.7,2.7-2.8c2-2.6,4.4-4.8,7.1-6.7c1.3-0.8,3.3-1.6,4.2-2.9s-0.2-1.2-1.2-0.8c-1.2,0.4-2,1.5-3.3,1.8
					c-0.9,0.2-1.2-0.1-0.6-0.9s1.5-1.7,2.1-2.6c1.1-1.4,2.1-3,2.8-4.7c1.1-2.9,1.8-6,1.9-9.1c0.1-1.6,0.1-3.2,0.2-4.7
					c0-0.9,0.4-2.4,0.3-3.5c0-0.4-0.1-0.8-0.2-1.1C506.8,606.6,506.2,607.2,505.8,608.3z"/>
				<path class="st14" d="M153.7,628.5c-1.1,1.2-1.9,2.6-2.3,4.2c-0.1,1.4,1.1,2.5,0.5,3.9c-1.4,3.4-3.4,6.5-5.7,9.3
					c-0.3,0.4-0.6,0.8-0.9,1.2c-0.1-1.4,0.7-2.7,1.3-4c1.9-3.9,1.9-8.3,1.5-12.5c-0.4-3.8-2.8-8-2-11.8c0.4-1.7,1.5-3,1.9-4.7
					c0.4-1.9,1.1-3.8,2-5.5c0.7-1.2,2.1-2.2,2.5-3.3c-0.4,1-3.2,1.6-4.1,2.3c-1.3,1.2-2.4,2.6-3.2,4.2c-1.4,2.5-1.2,4.9-1.1,7.8
					c0.1,2.6,0.7,4.7,0.8,7.3c0.2,5.8-1.1,11.8-1.5,17.6c-0.3-1.9-0.5-4-0.7-6c-0.3-1.8-0.8-3.6-1.5-5.3c-0.4-1-0.7-2.1-1-3.2
					c-0.4-1.8-0.5-3.6-0.3-5.5c0.3-3.8,1.3-7.4,0.7-11.3s-2.5-8.3-2-12.3c0.4-4.1,1.7-8,3.7-11.6c-3,2.8-5.2,6.3-6.6,10.2
					c-1.9,5.5,1,11.6,0.7,17.2c-0.2,3.5-0.9,6.1-1.2,9.6c-0.4,4.9,2.1,9.1,3.2,13.5c0.3,1.3,0.5,2.6,0.6,3.9
					c0.2,1.1,0.2,2.3,0.1,3.4c-0.1-1.3-0.4-2.7-0.6-4.2c-0.3-1.3-0.7-2.5-1.1-3.7c-0.5-1.2-1.1-2.3-1.6-3.4c-1.2-2.4-3.3-5-4.1-7.5
					c-1.3-3.8,0.4-8.3-1.1-12c-2.1-5-3.6-10.2-6.4-14.7c0.5,2.9,1.3,5.8,2.2,8.7c0.8,1.9,1.4,3.8,1.8,5.8c0.2,2.2,0.2,4.4-0.1,6.6
					c-0.4,2.8-0.3,5.6,0.3,8.3c0.5,2,1.3,3.8,2.3,5.6c0.5,0.9,1,1.8,1.6,2.7c1.3,2,2.3,4.2,3,6.5c0.3,1.1,0.5,2.2,0.7,3.3
					c0.1,1-0.4,2.9-0.1,3.7c-1.1-3-1-5.5-3.1-8.3c-1.3-1.8-3.1-3.2-4.5-5c-2.3-3-2.5-7.1-3.1-10.7c-0.8-4.2-1.6-5.8-5.2-8.2
					c-1.5-0.8-3-1.4-4.5-2c1.5,2.6,4.5,4.6,6,7.3c1.9,3.5,1.1,7,1.5,10.8c0.5,3,2,5.7,4.4,7.6c2.1,1.8,4.4,2.9,5.2,5.8
					c0.9,3,1.6,6.4,5.2,7c1.8,0.4,3.8,0.2,5.5-0.4c2.4-1,2.4-2.7,3.4-4.8c1-2.3,2.9-3.9,4.6-5.7c1.5-1.7,3.3-3.9,3.4-6.3
					s-1.5-4.3-0.1-6.6c0.5-0.8,0.9-1.6,1.4-2.5c1.3-2.3,3.7-3.9,5-6.2c-1.3,0.5-2.6,1.1-3.8,1.7
					C155.8,626.6,154.7,627.4,153.7,628.5z"/>
				<path class="st15" d="M614.7,683.5c-9.1-4-21.6-5.7-35.3-6.4c-23.2-1.3-49.7,0-68-3.8l0,0c-38.7-8-15.1-35.3-61-48.6
					c-20-5.8-39.8-3.6-58.7-11.1c-17-6.7-19-15.3-39.1-21c-5.5-1.6-60.2-8-69.7-6.8c-5.8-1.3-39.1,5.2-42.5,6.8
					c-12.3,5.7-13.5,14.3-23.8,21c-11.5,7.5-23.6,5.3-35.8,11.1c-28,13.3-13.6,40.7-37.2,48.6l0,0c-11.2,3.8-27.3,2.6-41.5,3.8
					c-8.4,0.8-16,2.4-21.5,6.4c-11.3,8.3,1.1,29.5,4.7,38.9c3.6,9.3,9.3,17,11.8,26.5h490.6c4.1-9.4,13.5-17.2,19.3-26.5
					C612.9,712.9,633.3,691.8,614.7,683.5z"/>
				<path class="st16" d="M664.9,619c-1.1,0.6-2.7,0.9-3.9,1.5c-2.9,1.3-4.3,1.9-5.6,4.1c-2.5,3.9-7.6,5.8-10.4,9.5
					c-2.1,2.8-3.3,6-5.3,8.9c-2.3,3.3-7.5,6.5-5,11.2c0.1,0.2,0.3,0.5,0.5,0.7c-1.2,1.7-2.4,3.3-3.8,4.8c-1.2,1-6.8,3.6-7.5,2.5
					c-0.5-0.7,3-1.6,3.7-4.3c0.3-1.1,0.5-2.3,0.7-3.5c0.1-0.6,0.1-1.1,0.2-1.7c3.8-1,2.2-6.1,4.4-8.3c1.4-1.4,1.6-2.8,2.4-4.5
					s2-3.1,2.1-4.9c0.2-3.5,1.3-5.8,2.5-8.9s2.2-6.5,4.4-9.4c2.7-3.8,6.8-7.9,5-12.7c-0.1,0-0.2,0.3-0.3,0.3c-0.7,1.2-3,1.6-4.1,2.6
					c-2.2,2-1.9,4.3-2.9,6.8c-0.6,1.4-1.9,1.7-3.2,2.8c-3.1,2.3-2.8,4.6-3.1,8.3c-0.1,2.6-2.2,4.7-3.7,6.8c-1.6,2-2.6,4.3-3,6.8
					c-0.4,3.4-1.1,6.8-2,10.1c-0.4,1.2-0.1,2.6,0.7,3.6c-0.1,0.7-0.2,1.4-0.3,2.1c-0.1,1.1-0.3,2.2-0.6,3.3
					c-0.6,1.4-1.7,2.5-3.1,3.2c-3,1.7-5-1.9-5.1-3.8c-0.1-1.2,0.7-3.8,0.7-5.6l0.2,0.1c0.3-2.4,2.6-3.2,3.8-4.6s1.1-3.4,1.6-5.4
					s1.5-3.5,1.2-5.3s-2-3.7-1.3-5.7s2.6-3.1,2.9-4.4s-1-2.9-1-5c0-2.4,2.7-6.7,3.5-11c0.6-3.3-0.2-6.8-0.6-10.2
					c-2.2,1.2-3.9,3-5.1,5.2c-1.3,3-0.6,6.9-0.8,8.5c-0.2,1.9-1.6,3.2-1.7,4.6s1.2,3.2,0.5,5c-0.6,1.7-2.8,2.7-3.4,4.2
					s0.5,3.4,0.5,5.3c0,1.8-1.2,3.1-1.1,4.7s1.6,3.3,1.2,5.1c-0.3,1.5-2.6,3.3-2.8,5.1c-0.3,1.2,0.2,2.5,1.2,3.2
					c0.2,1.1,0.1,2.2-0.2,3.2c-0.4,0.9-0.6,1.9-0.5,2.8c2.2,11.9,17.1,5.7,19.3-1.5c2.3-0.1,5.4-4.2,5.8-4.9
					c1.5-2.3,0.7-5.4,2.3-7.6s5.6-3.5,7.3-5.8c1.9-2.5,0.8-6.1,3.5-8.3C659,625.5,662.9,623,664.9,619z"/>
				<path class="st16" d="M684,648.5c-0.8,0.2-1.6,0.3-2.4,0.4c-1.8,0.4-2.7,0.6-3.5,1.7c-1.5,2-4.7,2.5-6.4,4.3
					c-1.3,1.4-2,3.1-3.2,4.5c-1.4,1.7-4.6,2.9-3,5.8c0.1,0.2,0.2,0.3,0.3,0.4c-0.7,0.8-1.5,1.6-2.3,2.3c-0.8,0.4-4.3,1.3-4.7,0.6
					c-0.3-0.5,1.9-0.6,2.3-2c0.2-0.6,0.3-1.3,0.4-1.9c0-0.3,0.1-0.6,0.1-0.9c2.4-0.2,1.3-3.2,2.6-4.3c0.8-0.6,1-1.4,1.4-2.3
					s1.2-1.5,1.2-2.6c0.1-2,0.8-3.1,1.4-4.8c0.6-1.8,1.4-3.4,2.6-4.9c1.7-1.9,4.2-3.8,2.9-6.7c-0.1,0-0.1,0.2-0.2,0.2
					c-0.4,0.6-1.8,0.6-2.5,1.1c-1.3,0.9-1.1,2.2-1.7,3.6c-0.3,0.7-1.2,0.8-2,1.2c-1.9,1-1.7,2.3-1.8,4.4c0,1.4-1.3,2.4-2.2,3.5
					c-1,1-1.6,2.2-1.8,3.5c-0.2,1.9-0.5,3.7-1.1,5.5c-0.2,0.7,0,1.5,0.5,2.1c-0.1,0.4-0.1,0.8-0.1,1.2c0,0.6-0.1,1.2-0.3,1.8
					c-0.4,0.7-1.1,1.3-1.9,1.5c-1.8,0.7-3.2-1.6-3.3-2.7c-0.1-0.7,0.4-2.1,0.4-3.1l0.1,0.1c0.1-1.3,1.6-1.5,2.3-2.2s0.7-1.8,0.9-2.9
					s0.9-1.8,0.7-2.9s-1.3-2.3-1-3.4s1.6-1.5,1.8-2.2s-0.7-1.7-0.7-3c0-1.4,1.6-3.5,2-5.9c0.3-1.8-0.3-3.9-0.6-5.8
					c-1.3,0.4-2.4,1.3-3.1,2.4c-0.7,1.6-0.3,3.8-0.3,4.7c-0.1,1.1-1,1.6-1,2.5s0.8,2,0.4,2.9s-1.7,1.2-2,2s0.3,2,0.4,3.1
					s-0.7,1.7-0.6,2.5s1.1,2,0.9,3c-0.2,0.8-1.6,1.6-1.7,2.6c-0.1,0.8,0.2,1.5,0.8,2c0.1,0.6,0.1,1.2-0.1,1.8
					c-0.2,0.5-0.3,1-0.3,1.5c1.6,7,10.9,5,12.2,1.2c1.4,0.2,3.3-1.8,3.6-2.2c0.9-1.1,0.4-3,1.3-4.1s3.5-1.4,4.5-2.5s0.4-3.4,2-4.4
					C680.4,651.5,682.8,650.5,684,648.5z"/>
				<path class="st17" d="M-21.5,684.6c-20.3-0.3-38.7-0.9-48.9,2.3c-0.3,0.1-0.7,0.2-1,0.3c-4.6,2.1,20.2,1.7,25.6,1.7
					c7.8,0,13-0.2,18.4,1c9.5,2,5.4,5.5,21.3,6.6c10.3,0.7,30.9,0.5,31.5-2.1c0.2-0.8-5.3-1.8-7.7-2.4l-0.6-0.2
					c-6.4-1.7-5.1-2.5-2.4-4.4C20.5,683.3-10.6,684.7-21.5,684.6z"/>
				<path class="st18" d="M1332.4,657.7c-20.7,3.3-43.7-3.4-63.6,2.2c-35.9,10.2-68.4-7.9-103.2-0.7c-20.9,4.3-40.2,1.5-60.7-2.2
					c-23.7-4.3-35.4-2-58.4-0.1l0,0c-12.2,1-22.4-3.7-34.5-1.6c-22.6,3.9-34.4,9-58.6,9c-38.6,0-82.1,17.6-120.4,12.6
					c-24.3-3.2-46-13.7-70.9-15.3c-27.7-1.7-53.8,8.8-81.5,7.2c-31.9-1.9-56.1-13.3-88.7-13.4c-2.3,0-4.5-0.1-6.6-0.2
					c-21.4-1.2-31-8.3-50.4-14.6c-7.3-2.4-32.1-4.6-38.8,2.1c0,0,0.1,0,0.1,0.2c-8.9,2-43.1,14-47.4,14.7
					c-20.6,3.3-43.5-3.4-63.3,2.2c-35.7,10.2-68-7.9-102.7-0.7c-20.8,4.3-39.9,1.5-60.4-2.2c-23.6-4.3-35.2-2-58.1-0.1l0,0
					c-12.2,1-22.3-3.7-34.3-1.6c-22.5,3.9-34.2,9-58.3,9C33.2,664.4-10,682-48.1,677c-24.1-3.2-45.8-13.7-70.5-15.3
					c-27.5-1.7-53.6,8.8-81.1,7.2c-31.7-1.9-55.8-13.3-88.3-13.4c-2.3,0-4.5-0.1-6.5-0.2c-21.3-1.2-30.8-8.3-50.2-14.6
					c-7.2-2.4-38.6-0.6-38.6-10.1v116.3h1765.4V642.8C1382.1,641,1337.3,656.9,1332.4,657.7z"/>
				<path class="st19" d="M695.8,686.1c-3.3,1.5,4.2,2,9.6,1.8c4.1-0.2,8.7-0.6,12.9-0.5c4.7,0.2,6.8,1.1,10.5,1.7
					c7.5,1.2,10.4,0,11.2-1.9c1.1-2.5,14.9-3.8,14.1-6.1c-1.5-4.7-32.1,0.5-24.4-5.8c0.4-0.3,0.8-0.6,1.3-0.9c1.1-0.7,2-1.4,3.2-2
					c6.1-3.4-16.3-0.7-19.9,0c-4,0.8-7.6,1.9-8.8,3.2c-2.3,2.4-11.3,3.5-20.2,2.3c-4.5-0.6-10.5-2.3-14.8-0.4
					c-5.2,2.2,2.6,4.4,11.1,4.5c4.2,0,12.9-0.8,16.5-0.2c3.3,0.5,3,1.5,2.4,2.4C699.9,685.2,697.5,685.3,695.8,686.1z"/>
				<path class="st19" d="M605.3,665c-6.5-0.8-12.8-1.3-14.9-1.7c-6.7-1.1-12.7-3.2-19.2-4.8c-10.4-2.5-19.1-0.2-29.4-1.9
					c-7.8-1.3-15.5-3.3-23.3-4.6c-4-0.6-11.4-3-14.1-1.6c-3.2,1.7,11.2,7,13.4,8c5.9,2.7,5,2.7,4.6,6.6c-0.6,6.6,12.4,8.4,20.7,6.4
					c9-2.1,11.6-5.2,23.5-3.7c4.2,0.5,11.4,1.8,15.1,3.5c3.4,1.6,5,3.8,8.5,5.5c7.6,3.6,10.6,2.9,14.8-0.3c1.8-1.4,2.9-3,6-3.6
					c3.7-0.7,10,1.1,11.7-1.7C624.7,668.2,614.7,666.2,605.3,665z"/>
				<path class="st20" d="M-134.1,702.9c51.8,2.3,86-7.7,135.5-8.8c57.9-1.4,79.8,10.5,126.5,13.8c97.9,7.1,167.7-21.1,256.5-25
					c99.7-4.4,181.4,16.5,277.4,14.9c46.1-0.7,83.3-5.4,128.5-3.8v57.9H-383.3v-67.1C-273.6,678.6-243.2,698.1-134.1,702.9z"/>
				<path class="st20" d="M684.3,704.5c39.1,2.3,64.9-7.7,102.3-8.8c43.7-1.4,60.2,10.5,95.5,13.9c73.9,7.1,126.6-21.1,193.6-25
					c75.3-4.4,136.9,16.5,209.4,14.9c34.8-0.8,62.9-5.4,97-3.8v57.9h-886v-67C578.9,680.3,601.9,699.8,684.3,704.5z"/>
				<path class="st21" d="M-195,736.5c38.9,2.3,64.6-7.7,101.8-8.8c43.5-1.4,60,10.5,95,13.8c73.6,7.1,126-21.1,192.7-25
					c74.9-4.4,136.2,16.5,208.3,14.9c34.6-0.7,62.6-5.4,96.5-3.8v57.9h-882.2l-0.5-67.2C-300.9,712.1-277,731.7-195,736.5z"/>
				<path class="st22" d="M648.7,741.4c38.6,5.5,208-17.6,245.2-18.7c43.5-1.4,85.6,10.4,120.7,13.8c73.6,7.1,84.3-5.4,151-9.4
					c74.9-4.4,64,10.4,136.1,8.8c34.7-0.7,44.3-15.3,78.2-13.8v64.5l-910.8-5C469.1,781.6,219.6,680.7,648.7,741.4z"/>
				<path class="st23" d="M-260.3,773.4c45.3,2.3,75.1-7.7,118.4-8.8c50.6-1.4,69.7,10.4,110.5,13.8c85.6,7.1,146.5-21.1,224.1-25
					c87.1-4.4,158.5,16.5,242.3,14.9c40.3-0.7,72.8-5.4,112.3-3.8v34.2h-930.7v-43.6C-287.5,749-355.7,768.6-260.3,773.4z"/>
				<path class="st23" d="M641.7,772.8c45.2,3.2,75.2-7.7,118.4-8.8c50.6-1.4,69.7,10.5,110.5,13.8c85.6,7.1,146.5-21.1,224.1-25
					c87.1-4.4,158.8,22.6,242.3,14.9c17-1.6,3.4-10.8,42.9-9.3v40.2H425.6l81.5-34.2C579.3,760.7,563.3,767.3,641.7,772.8z"/>
				<path class="st23" d="M214.5,774.2c-13.1,3.3-8.1,7.7,14,9.7c16.4,1.5,61.8,2,77.7,0.4c22.8-2.3,11.3-6.6,37.6-8.4
					c20.2-1.4,45.6,0.1,64.6-1.8c39.8-4.1-21-5.5-32.4-7.3c-10.9-1.7-9.2-4.7-21.6-6.2c-14.4-1.8-34.2,0.1-49-0.5
					c-19.9-0.7-31.5-3.8-54.1-3.6c-11.9,0.1-48.3,0.5-56.7,1.8c-20.4,3.1,40.4,4.4,45.5,6.6C248.7,768.5,226.5,771.2,214.5,774.2z"
					/>
				<path class="st24" d="M474.4,708.1c-13.3,2-8.5,6,13.5,9.2c16.3,2.3,61.6,5.8,77.5,5.5c22.8-0.4,11.7-4.8,38-4.6
					c20.3,0.1,45.5,3.1,64.6,2.7c40-0.8-20.6-6-31.9-8.3c-10.8-2.2-8.9-4.6-21.3-6.7c-14.3-2.5-34.1-2.2-48.8-3.6
					c-19.8-1.9-31.2-5.3-53.8-6.6c-11.9-0.7-48.3-2.8-56.6-2.2c-20.5,1.3,40.1,6.4,45,8.6C508.8,705.5,486.6,706.3,474.4,708.1z"/>
				<path class="st23" d="M309.8,741.3c-1.7,2.1-20.3,3.2-31.2,2.3c-14.2-1-23.6-3.3-36.6-4.6c-13.5-1.4-32.6-1.3-47.9-1
					c-12.8,0.2-12.2,2.5-24.3,2.9c-8.6,0.3-24.1-0.3-27.7-1.8c-2.5-1,0.7-1.9,3.1-2.8c1.3-0.6,2.6-1.3,3.9-2
					c3.6-1.9,5.6-4.1,10.6-5.9c12.1-4.4,35.7-4.6,61.5-4.8c6.4-0.1,13.3-0.1,19.5-0.2c5-0.1,9.4-0.6,14.6-0.7
					c5.5,0,9.1,0.3,13.6,0.6c14.1,1,28.1,1.1,27.4,3.7c-0.6,2.4-7,4-1.4,6.4C299.6,735.5,311.6,739.3,309.8,741.3z"/>
				<path class="st24" d="M67.3,728.5c-1.8,2-20.5,2-31.3,0.6c-14.1-1.8-23.3-4.7-36.2-6.7c-13.4-2.1-32.5-3.1-47.8-3.7
					c-12.8-0.5-12.3,1.8-24.5,1.5c-8.7-0.2-24-1.6-27.5-3.3c-2.4-1.2,0.8-1.8,3.2-2.7c1.4-0.5,2.7-1.1,4-1.7
					c3.7-1.7,5.8-3.8,10.9-5.3c12.3-3.7,35.8-2.5,61.7-1.3c6.4,0.3,13.2,0.7,19.5,0.9c5,0.2,9.5-0.1,14.6,0.2
					c5.4,0.3,9,0.8,13.6,1.4c14,1.8,28,2.7,27.2,5.2c-0.7,2.3-7.3,3.6-1.7,6.3C57.4,722,69.2,726.5,67.3,728.5z"/>
				<path class="st25" d="M736.7,742.1c6.8-1.6,13.7-6.1,18.7-7.6c6.3-2,14.3-4.4,22.3-6.3c5-1.2,10.1-2.2,15.2-2.8
					c26.4-3.2,55.8-2.8,83-5.2c13.8-1.3,26.8-2.8,40.4-4.5c17-2.1,34.1-2.4,50.5-4.2c18.3-2,32.9-8.7,47.9-13.3
					c21.6-6.7,45-13.1,70.9-15.9c6-0.7,71-2.3,71,2.5v58H736.9C736.8,742.5,736.7,742.3,736.7,742.1z"/>
				<path class="st26" d="M682.5,751.4c-3.2-1.1-6.5-4-8.9-5.1c-3-1.3-6.8-2.9-10.7-4.2c-2.4-0.8-4.8-1.4-7.3-1.9
					c-12.6-2.1-26.7-1.8-39.6-3.5c-6.6-0.8-12.8-1.9-19.3-3c-8.1-1.4-16.3-1.6-24.2-2.8c-8.7-1.3-15.7-5.8-22.9-8.8
					c-10.3-4.4-21.5-8.7-33.8-10.6c-2.1-0.3-19-1-28.1-0.1c-8.4-0.4-16.9-0.3-25.3,0.3c-12.4,1.9-23.5,6.2-33.9,10.6
					c-7.2,3.1-14.1,7.5-22.9,8.8c-7.9,1.2-16,1.4-24.1,2.8c-6.5,1.1-12.7,2.2-19.3,3c-13,1.6-27,1.3-39.6,3.5
					c-2.5,0.5-4.9,1.1-7.3,1.9c-3.8,1.3-7.6,2.9-10.7,4.2c-2.4,1-5.7,4-8.9,5.1c0,0.1,0.1,0.3,0.1,0.4h200.5v-0.2h186L682.5,751.4z"
					/>
				<path class="st27" d="M452.9,711.4c-18.3-10.2-42.9-12.5-63.1-7c-3.6,1-7.1,2.3-10.5,3.8c-24.9,11.5-24.1,33,11.2,41.8
					c15.5,3.8,57.5,3.9,71.3-2.9C478.8,738.6,467.7,719.6,452.9,711.4z"/>
				<path class="st28" d="M452.9,711.4c-18.3-10.2-42.9-12.5-63.1-7c-3.6,1-7.1,2.3-10.5,3.8c-12.5,5.7-18.5,14-17,21.9
					c4.7,2.4,9.7,4.2,14.9,5.4c15.5,3.8,57.5,3.9,71.3-2.9c9.3-4.6,10.2-12.4,6.7-19.8C454.4,712.3,453.6,711.8,452.9,711.4z"/>
				<path class="st29" d="M593.2,728.5c-8-3.9-17-5.5-25.8-4.6c-1.5,0.2-2.9,0.4-4.4,0.8c-10.4,2.6-10.4,9.4,4,13.5
					c6.3,1.8,23.6,3.4,29.4,1.8C603.5,738,599.2,731.6,593.2,728.5z"/>
				<path class="st30" d="M593.2,728.5c-8-3.9-17-5.5-25.8-4.6c-1.5,0.2-2.9,0.4-4.4,0.8c-5.2,1.3-7.8,3.7-7.3,6.2
					c1.9,0.9,3.9,1.7,6,2.3c6.3,1.8,23.6,3.4,29.4,1.8c3.9-1.1,4.4-3.5,3-5.9C593.8,728.8,593.5,728.7,593.2,728.5z"/>
				<path class="st29" d="M564.5,716c-8.9-1.6-18.1,0.2-25.8,5c-1.3,0.8-2.5,1.7-3.7,2.8c-8.5,7.5-5.5,15.8,9.5,14.9
					c6.6-0.4,23.2-5.5,27.8-9.8C578.1,723.5,571.4,717.4,564.5,716z"/>
				<path class="st30" d="M564.5,716c-8.9-1.6-18.1,0.2-25.8,5c-1.3,0.8-2.5,1.7-3.7,2.8c-4.2,3.8-5.6,7.7-4.1,10.6
					c2.2,0.3,4.4,0.4,6.5,0.3c6.6-0.4,23.2-5.5,27.8-9.8c3.1-2.9,2.5-6.1,0.2-8.5C565.2,716.2,564.9,716.1,564.5,716z"/>
				<g class="st31">
					<path class="st32" d="M-279.3,314.3c0,0,119,55.3,402.3,59.1s391.3-68.3,651.1-65.3s288,30.5,288,30.5s-283.3-69.4-654.3,29.9
						s-849.9-41.9-849.9-41.9L-279.3,314.3z"/>
					<path class="st32" d="M-273.5,380.3c0,0,106,29.4,358.5,31.5s414.4-51,507.5-63.5s187.8-12.3,187.8-12.3
						c-133.2,0.5-374.1,61.5-441.5,73.3c-325.8,61.2-757.5-22.3-757.5-22.3L-273.5,380.3z"/>
				</g>
				<path class="st33" d="M560.4,650.1L560.4,650.1L560.4,650.1L560.4,650.1z"/>
				<path class="st16" d="M571.2,630c1-7.9-3.5-15.1-3.5-23c0.1-8.8,6-16.4,6.6-25.3c0.2-8.5-6.2-16.2-3.7-24.4
					c-4,5.5-3.3,13.6-0.3,23.2c3.5,10.7-5.2,16-6.7,25.5c-1.2,7.6,4.3,14.2,4.6,21.6c0.3,6.9-3.8,13.1-6.7,19.4
					c0.2,0.8,0.3,1.7,0.3,2.4C566.2,644.1,570.3,636.8,571.2,630z"/>
				<path class="st16" d="M562.1,650.8c0-0.3,0-0.6,0-1c0-0.1,0-0.3,0-0.4c-0.3,0.4-0.6,0.7-0.9,1.1L562.1,650.8z"/>
				<path class="st16" d="M561.1,644.1c-3.3-8.4,2.8-15.5,2.8-23.5c0-5.5-4-8-2.4-13.6c1.6-5.4,2.8-11,1.8-16.9l-0.1-0.7l-0.2,0.6
					c-0.7,3-1.5,6.1-2.3,9.1c-0.5,2-1.3,4.1-1.8,6.3c-1,4.4,1.7,9.2,1.8,13.7c-0.1,2.9-0.5,5.8-1.4,8.6c-0.6,2.5-0.9,5.1-1.3,7.6
					c-0.2,1.5-0.3,3-0.3,4.5c0.1,2.6,0.5,5.3,1.4,7.8c0.3,0.8,0.6,1.6,1,2.3l0.1,0.2c0.4-1,0.8-2.1,1.3-3.1
					C561.4,645.5,561.1,644.2,561.1,644.1z"/>
				<path class="st16" d="M561.1,650.4c0.3-0.3,0.6-0.7,0.9-1.1c-0.1-0.7-0.2-1.6-0.3-2.4c-0.5,1-0.9,2.1-1.3,3.1v0.1L561.1,650.4z"
					/>
				<path class="st16" d="M550.5,643.6c0.4-0.8,0.7-1.5,0.9-2.3c0.8-2.5,1.2-5.2,1.2-7.8c0-1.5-0.2-3-0.4-4.5
					c-0.3-1.4-0.6-2.8-1-4.2c-0.1-0.5-0.2-0.9-0.3-1.4c-0.7-3.4-1.1-6.9-1.2-10.5c-0.2-3.9,0.8-7.7,0.7-11.5
					c0.1-3.3-0.4-6.6-1.5-9.8c-1-2.8-2.7-5.1-3.2-8.2c-1.3,6.7,1.9,12.2,2.9,18.5c0.7,4.4-0.2,8-0.7,12.2c-0.4,2.5-0.6,4.9-0.5,7.4
					c0.2,3.6,1.7,5.3,2.9,8.2s-0.3,6.3-1,9.3c-0.6,2.1-1,4.2-1.1,6.4l1.5,0.6C549.8,645.2,550.1,644.4,550.5,643.6z"/>
				<path class="st16" d="M556.2,647.7c-1.1-3.3-2-6.7-1-10.2c0.9-3.3,3.2-6.2,3.5-9.7c0.5-5.8-1.7-10.8-3.1-16.1
					c-0.3-1.2-0.6-2.5-0.8-3.7c-0.6-2.2-0.7-4.6-0.3-6.8c0.7-3.4,1.5-5.1,1-8.8c-0.6-4.4-2.4-9.5-1.9-14.2c0.5-5.4,2.1-8.7,4.2-13.4
					c-3,3.4-5.2,7.4-6.4,11.8c-1.3,4.5-0.3,9.3,0.3,13.8c0.4,3.4,1.8,9,1.1,12.3c-0.8,3.7-2.3,5.4-1.6,9.3c1,5.9,6.2,15.4,4.2,21.5
					c-1.3,3.9-3.2,5.9-2.4,10.5c0.2,1.4,0.6,2.8,1.3,4l2.4,0.9C556.4,648.4,556.4,648,556.2,647.7z"/>
				<path class="st16" d="M594.4,642.4c0.8-6.4-2.9-12.3-2.8-18.7c0.1-7.2,4.8-13.4,5.4-20.6c0.2-6.9-5-13.2-3-19.9
					c-3.3,4.5-2.7,11.1-0.2,18.8c2.8,8.7-4.2,13-5.4,20.8c-1,6.2,3.5,11.6,3.7,17.6c0.2,5.3-2.7,10.1-5,14.9l1.9,0.1
					C591.6,651.5,593.8,646.8,594.4,642.4z"/>
				<path class="st16" d="M586.2,653.9c-2.7-6.8,2.3-12.6,2.3-19.1c0-4.5-3.2-6.5-1.9-11.1c1.3-4.4,2.2-9,1.5-13.7l-0.1-0.5
					l-0.1,0.5c-0.6,2.5-1.3,5-1.9,7.4c-0.4,1.7-1.1,3.3-1.5,5.1c-0.8,3.6,1.4,7.5,1.5,11.1c-0.1,2.4-0.4,4.7-1.1,7
					c-0.5,2-0.7,4.2-1,6.2c-0.2,1.2-0.2,2.4-0.2,3.7c0.1,1.6,0.3,3.2,0.7,4.8l2.3,0.1C586.3,654.5,586.2,653.9,586.2,653.9z"/>
				<path class="st16" d="M577.6,653.4c0.3-0.6,0.5-1.3,0.8-1.9c0.6-2.1,1-4.2,0.9-6.4c0-1.2-0.2-2.4-0.3-3.6
					c-0.2-1.2-0.5-2.3-0.8-3.4l-0.3-1.1c-0.6-2.8-0.9-5.7-1-8.5c-0.2-3.2,0.6-6.2,0.5-9.4c0.1-2.7-0.4-5.4-1.3-7.9
					c-0.8-2.3-2.2-4.2-2.6-6.7c-1.1,5.5,1.5,9.9,2.3,15c0.6,3.6-0.2,6.5-0.6,10c-0.3,2-0.5,4-0.4,6c0.2,2.9,1.4,4.3,2.3,6.7
					s-0.2,5.2-0.8,7.5c-0.4,1.5-0.7,3-0.9,4.5l1.5,0.3C577.3,654.1,577.5,653.8,577.6,653.4z"/>
				<path class="st16" d="M581.5,648.5c0.8-2.7,2.6-5,2.9-7.9c0.4-4.7-1.4-8.8-2.5-13.1c-0.3-1-0.5-2-0.7-3
					c-0.5-1.8-0.5-3.7-0.2-5.6c0.6-2.8,1.3-4.2,0.8-7.2c-0.5-3.6-2-7.8-1.6-11.6c0.4-4.4,1.7-7.1,3.4-10.9c-2.4,2.8-4.2,6-5.2,9.6
					c-1.1,3.7-0.2,7.5,0.2,11.2c0.3,2.8,1.4,7.3,0.8,10c-0.6,3-1.9,4.4-1.3,7.6c0.8,4.8,5,12.6,3.4,17.5c-1,3.2-2.6,4.8-2,8.5
					c0.1,0.4,0.2,0.8,0.2,1.2c0.7,0.1,1.4,0.2,2,0.3C581.1,653,580.9,650.7,581.5,648.5z"/>
				<path class="st16" d="M613.6,650c0.7-4.6-2.3-8.8-2.3-13.4c0-5.1,4-9.6,4.4-14.8c0.1-5-4.1-9.5-2.4-14.3
					c-2.7,3.3-2.2,8-0.2,13.5c2.3,6.3-3.4,9.3-4.4,14.9c-0.8,4.4,2.8,8.3,3,12.6c0.1,2.8-1.1,5.4-2.5,7.9l1.8,0.2
					C612.2,654.6,613.1,652.4,613.6,650z"/>
				<path class="st16" d="M608.8,644.5c0-3.2-2.6-4.7-1.6-8s1.8-6.4,1.2-9.9l-0.1-0.4l-0.1,0.4c-0.5,1.8-1,3.6-1.5,5.3
					c-0.3,1.2-0.9,2.4-1.2,3.7c-0.6,2.6,1.1,5.4,1.2,8c-0.1,1.7-0.4,3.4-0.9,5c-0.4,1.5-0.6,3-0.8,4.5c-0.1,0.9-0.2,1.7-0.2,2.6v0.3
					l1.5,0.1C605.8,652.1,608.8,648.5,608.8,644.5z"/>
				<path class="st16" d="M600.9,655.7c0.3-1.2,0.5-2.5,0.5-3.7c0-0.9-0.1-1.7-0.3-2.6c-0.2-0.8-0.4-1.7-0.6-2.5
					c-0.1-0.3-0.2-0.5-0.2-0.8c-0.5-2-0.7-4.1-0.8-6.1c-0.2-2.3,0.5-4.5,0.5-6.7c0.1-1.9-0.3-3.9-1-5.7c-0.7-1.6-1.8-3-2.1-4.8
					c-0.9,3.9,1.3,7.1,1.9,10.8c0.5,2.6-0.2,4.7-0.5,7.2c-0.3,1.4-0.4,2.9-0.3,4.3c0.1,2.1,1.1,3.1,1.9,4.8s-0.2,3.7-0.7,5.4
					c0,0.1-0.1,0.3-0.1,0.4C599.6,655.6,600.2,655.6,600.9,655.7z"/>
				<path class="st16" d="M603.1,654.3c0.6-1.9,2.1-3.6,2.3-5.7c0.3-3.4-1.1-6.3-2-9.4c-0.2-0.7-0.4-1.4-0.5-2.2
					c-0.4-1.3-0.4-2.7-0.2-4c0.5-2,1-3,0.7-5.2c-0.4-2.6-1.6-5.6-1.3-8.3c0.4-3.2,1.4-5.1,2.7-7.8c-1.9,1.9-3.4,4.3-4.2,6.9
					c-0.9,2.6-0.2,5.4,0.2,8.1c0.3,2,1.2,5.3,0.7,7.2c-0.5,2.2-1.5,3.1-1.1,5.4c0.7,3.5,4.1,9,2.8,12.6c-0.6,1.2-1.1,2.5-1.6,3.8
					l1.3,0.1C602.9,655.3,603,654.8,603.1,654.3z"/>
				<rect x="-372.8" y="289.9" class="st34" width="1763.3" height="495.9"/>
				<path class="st19" d="M226.8,677.2c8.7-2.3,22.3-3,32.9-4.5c28.9-4.1-26.6-5.3-35.6-7.1c-1.3-0.3-2.6-0.6-4-0.9
					c-6.9-1.9-17.5-4.3-28.6-3.6c-10.5,0.7-18.1,3.9-29.9,4.7c-6.7,0.4-15.6-0.3-20.4,1.4c-4,1.4-1.9,3.6-5.6,5
					c-11.5,4.3-26.2,2.5-37.8,7.1c-4.4,1.7-27.8,8.3-29.7,11.7c-3.6,6.2,6.6,7.6,13.4,7.2c9.6-0.5,18.3-4,27.7-4.7s19,0.9,28.5,0
					c6-0.6,9.7-2,14.3-3.1c5.6-1.3,11.3-2.2,17-2.5c9.5-0.6,19.4,0.3,29,0.4c8.1,0.1,19.5,0.2,24.3-1.5c5.1-1.8-3.1-3.7-3.2-5.5
					C219.2,679.7,223.2,678.1,226.8,677.2z"/>
				<path class="st35" d="M213.2,736.1c-0.4-1.1-1.2-1.9-2.2-2.4c-4.4-1.8-9.2-6-12.4-7.3c-5.2-2.2-10.6-4.1-16-5.7
					c-3.5-1-7-1.7-10.6-2.1c-18.2-1.4-37.6,2.1-56.1,1.7c-9.4-0.2-18.4-0.9-27.7-1.6c-11.7-0.9-23.1,0.3-34.4-0.3
					c-12.5-0.6-23.5-7.7-34.3-12c-15.6-6.3-32.4-12.1-50.1-13c-4.1-0.2-64.4,15.4-63.5,21.5l28.5,63.4l279-42
					C213.3,736.3,213.2,736.2,213.2,736.1z"/>
				<path class="st27" d="M111.9,717.2c-10.2-5.3-22.3-5.2-32.3,0.4c-1.8,1-3.4,2.2-5,3.5c-11.7,9.9-9.7,24.6,8.8,27.7
					c8.1,1.3,29.3-2,35.7-7.9C127,733.7,119.9,721.6,111.9,717.2z"/>
				<path class="st28" d="M111.9,717.2c-10.2-5.3-22.3-5.2-32.3,0.4c-1.8,1-3.4,2.2-5,3.5c-5.8,5-8.3,11.1-6.9,16.4
					c2.5,1.2,5.2,2,7.9,2.5c8.1,1.3,29.3-2,35.7-7.8c4.3-3.9,4.2-9.3,1.9-14.1C112.7,717.7,112.3,717.4,111.9,717.2z"/>
				<path class="st14" d="M159.9,694.1c1.9,2.4,3.2,5.4,3.6,8.5c0.4,3.1,0.1,6.1,1.1,9.2c1.1,3.4,4,6.8,6,9.7
					c0.3,0.4,0.5,0.8,0.7,1.2c-0.5-3.4-2.8-6.2-3.9-9.5c-1.4-4.7-1.9-9.5-1.6-14.4c0.4-9.6,2.6-19.3,0.3-28.8
					c-0.6-2.4-1.5-4.7-2.7-6.8c-1.1-1.8-3.3-3.4-4-5.1c4.4,1,7.3,4.6,9.9,8.2c2.6,3.7,4.1,8.1,4.3,12.6c0.5,7.2-1.4,14.1-1.4,21.2
					c0,2.5,0.4,5,1.1,7.4c0.3-1.2,0.7-2.3,1.1-3.4c1.3-2.9,2.4-5.9,3.2-9c0.6-2.8,0.8-5.7,0.5-8.5c-0.5-6-2.1-11.7-1.1-17.7
					s4-12.9,3.2-19.3c-0.9-7.3-2.7-11.8-6.1-18.1c3.8,3.1,8.1,9.1,10.6,16c3.1,8.6-1.6,18.2-1.1,26.9c0.4,5.5,1.4,9.5,1.9,15
					c0.7,7.7-3.3,14.2-5.3,21.1c-0.4,2-0.8,4.1-1,6.1c-0.8,4.8,3.3,12.6,1.5,16.7c-5,11.3-15.1-9.3-17.3-12s-4.5-6-4.9-9.9
					c-0.5-5,0.5-9.5-1.8-14.2c-1.8-3.6-5.4-6.2-7.3-9.6c1.9,0.8,3.7,1.7,5.5,2.7C156.8,691.1,158.5,692.5,159.9,694.1z"/>
				<path class="st36" d="M206.6,701.6c-1.6,2-2.6,4.3-2.9,6.8c-0.3,2.5-0.1,4.9-0.9,7.3c-0.9,2.8-3.2,5.4-4.8,7.8
					c-0.2,0.3-0.4,0.6-0.6,0.9c0.4-2.7,2.3-5,3.1-7.6c1.1-3.7,1.5-7.6,1.3-11.5c-0.3-7.7-2.1-15.5-0.3-23c0.5-1.9,1.2-3.8,2.2-5.5
					c0.8-1.5,2.6-2.7,3.2-4.1c-3.5,0.8-5.8,3.7-7.9,6.6c-2.1,3-3.3,6.5-3.4,10.1c-0.4,5.7,1.1,11.3,1.1,16.9c0,2-0.3,4-0.9,5.9
					c-0.2-0.9-0.5-1.8-0.9-2.7c-1.1-2.3-1.9-4.7-2.5-7.2c-0.5-2.2-0.7-4.5-0.4-6.8c0.4-4.8,1.7-9.3,0.9-14.1s-3.2-10.3-2.6-15.4
					c0.7-5.9,2.2-9.5,4.9-14.5c-3.8,3.5-6.7,7.9-8.5,12.8c-2.5,6.8,1.3,14.6,0.9,21.5c-0.3,4.4-1.1,7.6-1.5,12
					c-0.6,6.2,2.7,11.3,4.2,16.8c0.4,1.6,0.6,3.2,0.8,4.9c0.6,3.8-2.6,10-1.2,13.4c4,9,12.1-7.5,13.9-9.6s3.6-4.8,3.9-7.9
					c0.4-4-0.4-7.6,1.4-11.3c1.5-2.9,4.3-4.9,5.8-7.7c-1.5,0.6-3,1.3-4.4,2.1C209.1,699.3,207.8,700.4,206.6,701.6z"/>
				<path class="st37" d="M375.5,747.8c-1.8-1.3-4.9-1.5-8-1.1c1,0.2,2,0.5,2.8,1.1c8.4,6-6.8,9.7-10.4,10.7
					c-0.7,0.2-1.4,0.4-2.1,0.6c2,1.3,5,0,7.3-0.6C368.8,757.5,383.9,753.8,375.5,747.8z"/>
				<path class="st38" d="M370.4,747.8c-0.8-0.6-1.8-0.9-2.8-1.1c-3.8,0.5-7.6,2-9.3,3.8s-2.7,4.5-1.7,6.8c0.3,0.7,0.7,1.3,1.4,1.8
					c0.7-0.2,1.5-0.5,2.1-0.6C363.6,757.5,378.7,753.8,370.4,747.8z"/>
			</g>
		</g>
	</g>
</g>
<radialGradient id="SVGID_6_" cx="461.94" cy="446.87" r="8.37" gradientTransform="matrix(1 0 0 -1 0 772)" gradientUnits="userSpaceOnUse">
	<stop  offset="0" style="stop-color:#FFFFFF"/>
	<stop  offset="0.13" style="stop-color:#FFFFFB"/>
	<stop  offset="0.26" style="stop-color:#FFFFEE"/>
	<stop  offset="0.39" style="stop-color:#FFFFDA"/>
	<stop  offset="0.53" style="stop-color:#FFFFBD"/>
	<stop  offset="0.66" style="stop-color:#FFFF98"/>
	<stop  offset="0.7" style="stop-color:#FFFF8C"/>
	<stop  offset="1" style="stop-color:#FFC728"/>
</radialGradient>
<circle class="st39" cx="461.9" cy="325.1" r="8.4"/>
<radialGradient id="SVGID_7_" cx="394.6" cy="446.87" r="8.37" gradientTransform="matrix(1 0 0 -1 0 772)" gradientUnits="userSpaceOnUse">
	<stop  offset="0" style="stop-color:#FFFFFF"/>
	<stop  offset="0.13" style="stop-color:#FFFFFB"/>
	<stop  offset="0.26" style="stop-color:#FFFFEE"/>
	<stop  offset="0.39" style="stop-color:#FFFFDA"/>
	<stop  offset="0.53" style="stop-color:#FFFFBD"/>
	<stop  offset="0.66" style="stop-color:#FFFF98"/>
	<stop  offset="0.7" style="stop-color:#FFFF8C"/>
	<stop  offset="1" style="stop-color:#FFC728"/>
</radialGradient>
<circle class="st40" cx="394.6" cy="325.1" r="8.4"/>
<radialGradient id="SVGID_8_" cx="327.25" cy="446.87" r="8.37" gradientTransform="matrix(1 0 0 -1 0 772)" gradientUnits="userSpaceOnUse">
	<stop  offset="0" style="stop-color:#FFFFFF"/>
	<stop  offset="0.13" style="stop-color:#FFFFFB"/>
	<stop  offset="0.26" style="stop-color:#FFFFEE"/>
	<stop  offset="0.39" style="stop-color:#FFFFDA"/>
	<stop  offset="0.53" style="stop-color:#FFFFBD"/>
	<stop  offset="0.66" style="stop-color:#FFFF98"/>
	<stop  offset="0.7" style="stop-color:#FFFF8C"/>
	<stop  offset="1" style="stop-color:#FFC728"/>
</radialGradient>
<circle class="st41" cx="327.3" cy="325.1" r="8.4"/>
<radialGradient id="SVGID_9_" cx="259.9" cy="446.87" r="8.37" gradientTransform="matrix(1 0 0 -1 0 772)" gradientUnits="userSpaceOnUse">
	<stop  offset="0" style="stop-color:#FFFFFF"/>
	<stop  offset="0.13" style="stop-color:#FFFFFB"/>
	<stop  offset="0.26" style="stop-color:#FFFFEE"/>
	<stop  offset="0.39" style="stop-color:#FFFFDA"/>
	<stop  offset="0.53" style="stop-color:#FFFFBD"/>
	<stop  offset="0.66" style="stop-color:#FFFF98"/>
	<stop  offset="0.7" style="stop-color:#FFFF8C"/>
	<stop  offset="1" style="stop-color:#FFC728"/>
</radialGradient>
<circle class="st42" cx="259.9" cy="325.1" r="8.4"/>
<radialGradient id="SVGID_10_" cx="192.56" cy="446.87" r="8.37" gradientTransform="matrix(1 0 0 -1 0 772)" gradientUnits="userSpaceOnUse">
	<stop  offset="0" style="stop-color:#FFFFFF"/>
	<stop  offset="0.13" style="stop-color:#FFFFFB"/>
	<stop  offset="0.26" style="stop-color:#FFFFEE"/>
	<stop  offset="0.39" style="stop-color:#FFFFDA"/>
	<stop  offset="0.53" style="stop-color:#FFFFBD"/>
	<stop  offset="0.66" style="stop-color:#FFFF98"/>
	<stop  offset="0.7" style="stop-color:#FFFF8C"/>
	<stop  offset="1" style="stop-color:#FFC728"/>
</radialGradient>
<circle class="st43" cx="192.6" cy="325.1" r="8.4"/>
<radialGradient id="SVGID_11_" cx="125.21" cy="446.87" r="8.37" gradientTransform="matrix(1 0 0 -1 0 772)" gradientUnits="userSpaceOnUse">
	<stop  offset="0" style="stop-color:#FFFFFF"/>
	<stop  offset="0.13" style="stop-color:#FFFFFB"/>
	<stop  offset="0.26" style="stop-color:#FFFFEE"/>
	<stop  offset="0.39" style="stop-color:#FFFFDA"/>
	<stop  offset="0.53" style="stop-color:#FFFFBD"/>
	<stop  offset="0.66" style="stop-color:#FFFF98"/>
	<stop  offset="0.7" style="stop-color:#FFFF8C"/>
	<stop  offset="1" style="stop-color:#FFC728"/>
</radialGradient>
<circle class="st44" cx="125.2" cy="325.1" r="8.4"/>
<radialGradient id="SVGID_12_" cx="57.86" cy="446.87" r="8.37" gradientTransform="matrix(1 0 0 -1 0 772)" gradientUnits="userSpaceOnUse">
	<stop  offset="0" style="stop-color:#FFFFFF"/>
	<stop  offset="0.13" style="stop-color:#FFFFFB"/>
	<stop  offset="0.26" style="stop-color:#FFFFEE"/>
	<stop  offset="0.39" style="stop-color:#FFFFDA"/>
	<stop  offset="0.53" style="stop-color:#FFFFBD"/>
	<stop  offset="0.66" style="stop-color:#FFFF98"/>
	<stop  offset="0.7" style="stop-color:#FFFF8C"/>
	<stop  offset="1" style="stop-color:#FFC728"/>
</radialGradient>
<circle class="st45" cx="57.9" cy="325.1" r="8.4"/>
<radialGradient id="SVGID_13_" cx="20.69" cy="406.3975" r="8.37" gradientTransform="matrix(1 0 0 -1 -1.688600e-03 771.9957)" gradientUnits="userSpaceOnUse">
	<stop  offset="0" style="stop-color:#FFFFFF"/>
	<stop  offset="0.13" style="stop-color:#FFFFFB"/>
	<stop  offset="0.26" style="stop-color:#FFFFEE"/>
	<stop  offset="0.39" style="stop-color:#FFFFDA"/>
	<stop  offset="0.53" style="stop-color:#FFFFBD"/>
	<stop  offset="0.66" style="stop-color:#FFFF98"/>
	<stop  offset="0.7" style="stop-color:#FFFF8C"/>
	<stop  offset="1" style="stop-color:#FFC728"/>
</radialGradient>
<circle class="st46" cx="20.7" cy="365.6" r="8.4"/>
<radialGradient id="SVGID_14_" cx="20.69" cy="339.0549" r="8.3675" gradientTransform="matrix(1 0 0 -1 -1.681332e-02 771.9811)" gradientUnits="userSpaceOnUse">
	<stop  offset="0" style="stop-color:#FFFFFF"/>
	<stop  offset="0.13" style="stop-color:#FFFFFB"/>
	<stop  offset="0.26" style="stop-color:#FFFFEE"/>
	<stop  offset="0.39" style="stop-color:#FFFFDA"/>
	<stop  offset="0.53" style="stop-color:#FFFFBD"/>
	<stop  offset="0.66" style="stop-color:#FFFF98"/>
	<stop  offset="0.7" style="stop-color:#FFFF8C"/>
	<stop  offset="1" style="stop-color:#FFC728"/>
</radialGradient>
<circle class="st47" cx="20.7" cy="432.9" r="8.4"/>
<radialGradient id="SVGID_15_" cx="20.69" cy="271.71" r="8.37" gradientTransform="matrix(1 0 0 -1 0 772)" gradientUnits="userSpaceOnUse">
	<stop  offset="0" style="stop-color:#FFFFFF"/>
	<stop  offset="0.13" style="stop-color:#FFFFFB"/>
	<stop  offset="0.26" style="stop-color:#FFFFEE"/>
	<stop  offset="0.39" style="stop-color:#FFFFDA"/>
	<stop  offset="0.53" style="stop-color:#FFFFBD"/>
	<stop  offset="0.66" style="stop-color:#FFFF98"/>
	<stop  offset="0.7" style="stop-color:#FFFF8C"/>
	<stop  offset="1" style="stop-color:#FFC728"/>
</radialGradient>
<circle class="st48" cx="20.7" cy="500.3" r="8.4"/>
<radialGradient id="SVGID_16_" cx="20.6899" cy="204.363" r="8.37" gradientTransform="matrix(1 0 0 -1 2.179247e-03 772.005)" gradientUnits="userSpaceOnUse">
	<stop  offset="0" style="stop-color:#FFFFFF"/>
	<stop  offset="0.13" style="stop-color:#FFFFFB"/>
	<stop  offset="0.26" style="stop-color:#FFFFEE"/>
	<stop  offset="0.39" style="stop-color:#FFFFDA"/>
	<stop  offset="0.53" style="stop-color:#FFFFBD"/>
	<stop  offset="0.66" style="stop-color:#FFFF98"/>
	<stop  offset="0.7" style="stop-color:#FFFF8C"/>
	<stop  offset="1" style="stop-color:#FFC728"/>
</radialGradient>
<circle class="st49" cx="20.7" cy="567.6" r="8.4"/>
<radialGradient id="SVGID_17_" cx="20.69" cy="137.01" r="8.37" gradientTransform="matrix(1 0 0 -1 0 772)" gradientUnits="userSpaceOnUse">
	<stop  offset="0" style="stop-color:#FFFFFF"/>
	<stop  offset="0.13" style="stop-color:#FFFFFB"/>
	<stop  offset="0.26" style="stop-color:#FFFFEE"/>
	<stop  offset="0.39" style="stop-color:#FFFFDA"/>
	<stop  offset="0.53" style="stop-color:#FFFFBD"/>
	<stop  offset="0.66" style="stop-color:#FFFF98"/>
	<stop  offset="0.7" style="stop-color:#FFFF8C"/>
	<stop  offset="1" style="stop-color:#FFC728"/>
</radialGradient>
<circle class="st50" cx="20.7" cy="635" r="8.4"/>
<radialGradient id="SVGID_18_" cx="20.69" cy="69.6733" r="8.37" gradientTransform="matrix(1 0 0 -1 2.390678e-03 772.0056)" gradientUnits="userSpaceOnUse">
	<stop  offset="0" style="stop-color:#FFFFFF"/>
	<stop  offset="0.13" style="stop-color:#FFFFFB"/>
	<stop  offset="0.26" style="stop-color:#FFFFEE"/>
	<stop  offset="0.39" style="stop-color:#FFFFDA"/>
	<stop  offset="0.53" style="stop-color:#FFFFBD"/>
	<stop  offset="0.66" style="stop-color:#FFFF98"/>
	<stop  offset="0.7" style="stop-color:#FFFF8C"/>
	<stop  offset="1" style="stop-color:#FFC728"/>
</radialGradient>
<circle class="st51" cx="20.7" cy="702.3" r="8.4"/>
<radialGradient id="SVGID_19_" cx="48.67" cy="20.0015" r="8.3692" gradientTransform="matrix(1 0 0 -1 -3.021079e-02 771.965)" gradientUnits="userSpaceOnUse">
	<stop  offset="0" style="stop-color:#FFFFFF"/>
	<stop  offset="0.13" style="stop-color:#FFFFFB"/>
	<stop  offset="0.26" style="stop-color:#FFFFEE"/>
	<stop  offset="0.39" style="stop-color:#FFFFDA"/>
	<stop  offset="0.53" style="stop-color:#FFFFBD"/>
	<stop  offset="0.66" style="stop-color:#FFFF98"/>
	<stop  offset="0.7" style="stop-color:#FFFF8C"/>
	<stop  offset="1" style="stop-color:#FFC728"/>
</radialGradient>
<circle class="st52" cx="48.7" cy="752" r="8.4"/>
<radialGradient id="SVGID_20_" cx="116.0209" cy="19.9964" r="8.3722" gradientTransform="matrix(1 0 0 -1 -4.470748e-03 771.9949)" gradientUnits="userSpaceOnUse">
	<stop  offset="0" style="stop-color:#FFFFFF"/>
	<stop  offset="0.13" style="stop-color:#FFFFFB"/>
	<stop  offset="0.26" style="stop-color:#FFFFEE"/>
	<stop  offset="0.39" style="stop-color:#FFFFDA"/>
	<stop  offset="0.53" style="stop-color:#FFFFBD"/>
	<stop  offset="0.66" style="stop-color:#FFFF98"/>
	<stop  offset="0.7" style="stop-color:#FFFF8C"/>
	<stop  offset="1" style="stop-color:#FFC728"/>
</radialGradient>
<circle class="st53" cx="116" cy="752" r="8.4"/>
<radialGradient id="SVGID_21_" cx="183.36" cy="20.0112" r="8.3644" gradientTransform="matrix(1 0 0 -1 -3.459889e-02 771.9763)" gradientUnits="userSpaceOnUse">
	<stop  offset="0" style="stop-color:#FFFFFF"/>
	<stop  offset="0.13" style="stop-color:#FFFFFB"/>
	<stop  offset="0.26" style="stop-color:#FFFFEE"/>
	<stop  offset="0.39" style="stop-color:#FFFFDA"/>
	<stop  offset="0.53" style="stop-color:#FFFFBD"/>
	<stop  offset="0.66" style="stop-color:#FFFF98"/>
	<stop  offset="0.7" style="stop-color:#FFFF8C"/>
	<stop  offset="1" style="stop-color:#FFC728"/>
</radialGradient>
<circle class="st54" cx="183.4" cy="752" r="8.4"/>
<radialGradient id="SVGID_22_" cx="250.712" cy="20.0008" r="8.3722" gradientTransform="matrix(1 0 0 -1 1.799801e-03 771.9956)" gradientUnits="userSpaceOnUse">
	<stop  offset="0" style="stop-color:#FFFFFF"/>
	<stop  offset="0.13" style="stop-color:#FFFFFB"/>
	<stop  offset="0.26" style="stop-color:#FFFFEE"/>
	<stop  offset="0.39" style="stop-color:#FFFFDA"/>
	<stop  offset="0.53" style="stop-color:#FFFFBD"/>
	<stop  offset="0.66" style="stop-color:#FFFF98"/>
	<stop  offset="0.7" style="stop-color:#FFFF8C"/>
	<stop  offset="1" style="stop-color:#FFC728"/>
</radialGradient>
<circle class="st55" cx="250.7" cy="752" r="8.4"/>
<radialGradient id="SVGID_23_" cx="318.0637" cy="19.999" r="8.37" gradientTransform="matrix(1 0 0 -1 3.004149e-03 771.9909)" gradientUnits="userSpaceOnUse">
	<stop  offset="0" style="stop-color:#FFFFFF"/>
	<stop  offset="0.13" style="stop-color:#FFFFFB"/>
	<stop  offset="0.26" style="stop-color:#FFFFEE"/>
	<stop  offset="0.39" style="stop-color:#FFFFDA"/>
	<stop  offset="0.53" style="stop-color:#FFFFBD"/>
	<stop  offset="0.66" style="stop-color:#FFFF98"/>
	<stop  offset="0.7" style="stop-color:#FFFF8C"/>
	<stop  offset="1" style="stop-color:#FFC728"/>
</radialGradient>
<circle class="st56" cx="318.1" cy="752" r="8.4"/>
<radialGradient id="SVGID_24_" cx="385.4069" cy="19.9959" r="8.3722" gradientTransform="matrix(1 0 0 -1 -5.765606e-03 771.9971)" gradientUnits="userSpaceOnUse">
	<stop  offset="0" style="stop-color:#FFFFFF"/>
	<stop  offset="0.13" style="stop-color:#FFFFFB"/>
	<stop  offset="0.26" style="stop-color:#FFFFEE"/>
	<stop  offset="0.39" style="stop-color:#FFFFDA"/>
	<stop  offset="0.53" style="stop-color:#FFFFBD"/>
	<stop  offset="0.66" style="stop-color:#FFFF98"/>
	<stop  offset="0.7" style="stop-color:#FFFF8C"/>
	<stop  offset="1" style="stop-color:#FFC728"/>
</radialGradient>
<circle class="st57" cx="385.4" cy="752" r="8.4"/>
<radialGradient id="SVGID_25_" cx="452.7534" cy="19.999" r="8.37" gradientTransform="matrix(1 0 0 -1 3.465163e-03 772.0008)" gradientUnits="userSpaceOnUse">
	<stop  offset="0" style="stop-color:#FFFFFF"/>
	<stop  offset="0.13" style="stop-color:#FFFFFB"/>
	<stop  offset="0.26" style="stop-color:#FFFFEE"/>
	<stop  offset="0.39" style="stop-color:#FFFFDA"/>
	<stop  offset="0.53" style="stop-color:#FFFFBD"/>
	<stop  offset="0.66" style="stop-color:#FFFF98"/>
	<stop  offset="0.7" style="stop-color:#FFFF8C"/>
	<stop  offset="1" style="stop-color:#FFC728"/>
</radialGradient>
<circle class="st58" cx="452.8" cy="752" r="8.4"/>
<radialGradient id="SVGID_26_" cx="520.1" cy="20" r="8.37" gradientTransform="matrix(1 0 0 -1 -5.118006e-02 771.9816)" gradientUnits="userSpaceOnUse">
	<stop  offset="0" style="stop-color:#FFFFFF"/>
	<stop  offset="0.13" style="stop-color:#FFFFFB"/>
	<stop  offset="0.26" style="stop-color:#FFFFEE"/>
	<stop  offset="0.39" style="stop-color:#FFFFDA"/>
	<stop  offset="0.53" style="stop-color:#FFFFBD"/>
	<stop  offset="0.66" style="stop-color:#FFFF98"/>
	<stop  offset="0.7" style="stop-color:#FFFF8C"/>
	<stop  offset="1" style="stop-color:#FFC728"/>
</radialGradient>
<circle class="st59" cx="520.1" cy="751.9" r="8.4"/>
<radialGradient id="SVGID_27_" cx="587.4435" cy="20.0025" r="8.3722" gradientTransform="matrix(1 0 0 -1 -1.744178e-03 772.0063)" gradientUnits="userSpaceOnUse">
	<stop  offset="0" style="stop-color:#FFFFFF"/>
	<stop  offset="0.13" style="stop-color:#FFFFFB"/>
	<stop  offset="0.26" style="stop-color:#FFFFEE"/>
	<stop  offset="0.39" style="stop-color:#FFFFDA"/>
	<stop  offset="0.53" style="stop-color:#FFFFBD"/>
	<stop  offset="0.66" style="stop-color:#FFFF98"/>
	<stop  offset="0.7" style="stop-color:#FFFF8C"/>
	<stop  offset="1" style="stop-color:#FFC728"/>
</radialGradient>
<circle class="st60" cx="587.4" cy="752" r="8.4"/>
<radialGradient id="SVGID_28_" cx="654.79" cy="20" r="8.37" gradientTransform="matrix(1 0 0 -1 -5.330223e-02 771.9833)" gradientUnits="userSpaceOnUse">
	<stop  offset="0" style="stop-color:#FFFFFF"/>
	<stop  offset="0.13" style="stop-color:#FFFFFB"/>
	<stop  offset="0.26" style="stop-color:#FFFFEE"/>
	<stop  offset="0.39" style="stop-color:#FFFFDA"/>
	<stop  offset="0.53" style="stop-color:#FFFFBD"/>
	<stop  offset="0.66" style="stop-color:#FFFF98"/>
	<stop  offset="0.7" style="stop-color:#FFFF8C"/>
	<stop  offset="1" style="stop-color:#FFC728"/>
</radialGradient>
<circle class="st61" cx="654.8" cy="752" r="8.4"/>
<radialGradient id="SVGID_29_" cx="722.1384" cy="19.9976" r="8.3722" gradientTransform="matrix(1 0 0 -1 -6.322823e-05 771.994)" gradientUnits="userSpaceOnUse">
	<stop  offset="0" style="stop-color:#FFFFFF"/>
	<stop  offset="0.13" style="stop-color:#FFFFFB"/>
	<stop  offset="0.26" style="stop-color:#FFFFEE"/>
	<stop  offset="0.39" style="stop-color:#FFFFDA"/>
	<stop  offset="0.53" style="stop-color:#FFFFBD"/>
	<stop  offset="0.66" style="stop-color:#FFFF98"/>
	<stop  offset="0.7" style="stop-color:#FFFF8C"/>
	<stop  offset="1" style="stop-color:#FFC728"/>
</radialGradient>
<circle class="st62" cx="722.1" cy="752" r="8.4"/>
<radialGradient id="SVGID_30_" cx="759.3125" cy="60.4738" r="8.37" gradientTransform="matrix(1 0 0 -1 -1.545687e-03 771.9982)" gradientUnits="userSpaceOnUse">
	<stop  offset="0" style="stop-color:#FFFFFF"/>
	<stop  offset="0.13" style="stop-color:#FFFFFB"/>
	<stop  offset="0.26" style="stop-color:#FFFFEE"/>
	<stop  offset="0.39" style="stop-color:#FFFFDA"/>
	<stop  offset="0.53" style="stop-color:#FFFFBD"/>
	<stop  offset="0.66" style="stop-color:#FFFF98"/>
	<stop  offset="0.7" style="stop-color:#FFFF8C"/>
	<stop  offset="1" style="stop-color:#FFC728"/>
</radialGradient>
<circle class="st63" cx="759.3" cy="711.5" r="8.4"/>
<radialGradient id="SVGID_31_" cx="759.31" cy="127.82" r="8.37" gradientTransform="matrix(1 0 0 -1 0 772)" gradientUnits="userSpaceOnUse">
	<stop  offset="0" style="stop-color:#FFFFFF"/>
	<stop  offset="0.13" style="stop-color:#FFFFFB"/>
	<stop  offset="0.26" style="stop-color:#FFFFEE"/>
	<stop  offset="0.39" style="stop-color:#FFFFDA"/>
	<stop  offset="0.53" style="stop-color:#FFFFBD"/>
	<stop  offset="0.66" style="stop-color:#FFFF98"/>
	<stop  offset="0.7" style="stop-color:#FFFF8C"/>
	<stop  offset="1" style="stop-color:#FFC728"/>
</radialGradient>
<circle class="st64" cx="759.3" cy="644.2" r="8.4"/>
<radialGradient id="SVGID_32_" cx="759.3054" cy="195.1705" r="8.37" gradientTransform="matrix(1 0 0 -1 -1.731069e-03 771.9977)" gradientUnits="userSpaceOnUse">
	<stop  offset="0" style="stop-color:#FFFFFF"/>
	<stop  offset="0.13" style="stop-color:#FFFFFB"/>
	<stop  offset="0.26" style="stop-color:#FFFFEE"/>
	<stop  offset="0.39" style="stop-color:#FFFFDA"/>
	<stop  offset="0.53" style="stop-color:#FFFFBD"/>
	<stop  offset="0.66" style="stop-color:#FFFF98"/>
	<stop  offset="0.7" style="stop-color:#FFFF8C"/>
	<stop  offset="1" style="stop-color:#FFC728"/>
</radialGradient>
<circle class="st65" cx="759.3" cy="576.8" r="8.4"/>
<radialGradient id="SVGID_33_" cx="759.31" cy="262.51" r="8.37" gradientTransform="matrix(1 0 0 -1 -5.252771e-02 772.0087)" gradientUnits="userSpaceOnUse">
	<stop  offset="0" style="stop-color:#FFFFFF"/>
	<stop  offset="0.13" style="stop-color:#FFFFFB"/>
	<stop  offset="0.26" style="stop-color:#FFFFEE"/>
	<stop  offset="0.39" style="stop-color:#FFFFDA"/>
	<stop  offset="0.53" style="stop-color:#FFFFBD"/>
	<stop  offset="0.66" style="stop-color:#FFFF98"/>
	<stop  offset="0.7" style="stop-color:#FFFF8C"/>
	<stop  offset="1" style="stop-color:#FFC728"/>
</radialGradient>
<circle class="st66" cx="759.3" cy="509.5" r="8.4"/>
<radialGradient id="SVGID_34_" cx="759.31" cy="329.86" r="8.37" gradientTransform="matrix(1 0 0 -1 0 772)" gradientUnits="userSpaceOnUse">
	<stop  offset="0" style="stop-color:#FFFFFF"/>
	<stop  offset="0.13" style="stop-color:#FFFFFB"/>
	<stop  offset="0.26" style="stop-color:#FFFFEE"/>
	<stop  offset="0.39" style="stop-color:#FFFFDA"/>
	<stop  offset="0.53" style="stop-color:#FFFFBD"/>
	<stop  offset="0.66" style="stop-color:#FFFF98"/>
	<stop  offset="0.7" style="stop-color:#FFFF8C"/>
	<stop  offset="1" style="stop-color:#FFC728"/>
</radialGradient>
<circle class="st67" cx="759.3" cy="442.1" r="8.4"/>
<radialGradient id="SVGID_35_" cx="759.3199" cy="397.21" r="8.365" gradientTransform="matrix(1 0 0 -1 -4.109576e-02 772.0131)" gradientUnits="userSpaceOnUse">
	<stop  offset="0" style="stop-color:#FFFFFF"/>
	<stop  offset="0.13" style="stop-color:#FFFFFB"/>
	<stop  offset="0.26" style="stop-color:#FFFFEE"/>
	<stop  offset="0.39" style="stop-color:#FFFFDA"/>
	<stop  offset="0.53" style="stop-color:#FFFFBD"/>
	<stop  offset="0.66" style="stop-color:#FFFF98"/>
	<stop  offset="0.7" style="stop-color:#FFFF8C"/>
	<stop  offset="1" style="stop-color:#FFC728"/>
</radialGradient>
<circle class="st68" cx="759.3" cy="374.8" r="8.4"/>
<radialGradient id="SVGID_36_" cx="731.33" cy="446.87" r="8.37" gradientTransform="matrix(1 0 0 -1 0 772)" gradientUnits="userSpaceOnUse">
	<stop  offset="0" style="stop-color:#FFFFFF"/>
	<stop  offset="0.13" style="stop-color:#FFFFFB"/>
	<stop  offset="0.26" style="stop-color:#FFFFEE"/>
	<stop  offset="0.39" style="stop-color:#FFFFDA"/>
	<stop  offset="0.53" style="stop-color:#FFFFBD"/>
	<stop  offset="0.66" style="stop-color:#FFFF98"/>
	<stop  offset="0.7" style="stop-color:#FFFF8C"/>
	<stop  offset="1" style="stop-color:#FFC728"/>
</radialGradient>
<circle class="st69" cx="731.3" cy="325.1" r="8.4"/>
<radialGradient id="SVGID_37_" cx="663.98" cy="446.87" r="8.37" gradientTransform="matrix(1 0 0 -1 0 772)" gradientUnits="userSpaceOnUse">
	<stop  offset="0" style="stop-color:#FFFFFF"/>
	<stop  offset="0.13" style="stop-color:#FFFFFB"/>
	<stop  offset="0.26" style="stop-color:#FFFFEE"/>
	<stop  offset="0.39" style="stop-color:#FFFFDA"/>
	<stop  offset="0.53" style="stop-color:#FFFFBD"/>
	<stop  offset="0.66" style="stop-color:#FFFF98"/>
	<stop  offset="0.7" style="stop-color:#FFFF8C"/>
	<stop  offset="1" style="stop-color:#FFC728"/>
</radialGradient>
<circle class="st70" cx="664" cy="325.1" r="8.4"/>
<radialGradient id="SVGID_38_" cx="596.64" cy="446.87" r="8.37" gradientTransform="matrix(1 0 0 -1 0 772)" gradientUnits="userSpaceOnUse">
	<stop  offset="0" style="stop-color:#FFFFFF"/>
	<stop  offset="0.13" style="stop-color:#FFFFFB"/>
	<stop  offset="0.26" style="stop-color:#FFFFEE"/>
	<stop  offset="0.39" style="stop-color:#FFFFDA"/>
	<stop  offset="0.53" style="stop-color:#FFFFBD"/>
	<stop  offset="0.66" style="stop-color:#FFFF98"/>
	<stop  offset="0.7" style="stop-color:#FFFF8C"/>
	<stop  offset="1" style="stop-color:#FFC728"/>
</radialGradient>
<circle class="st71" cx="596.6" cy="325.1" r="8.4"/>
<radialGradient id="SVGID_39_" cx="529.29" cy="446.87" r="8.37" gradientTransform="matrix(1 0 0 -1 0 772)" gradientUnits="userSpaceOnUse">
	<stop  offset="0" style="stop-color:#FFFFFF"/>
	<stop  offset="0.13" style="stop-color:#FFFFFB"/>
	<stop  offset="0.26" style="stop-color:#FFFFEE"/>
	<stop  offset="0.39" style="stop-color:#FFFFDA"/>
	<stop  offset="0.53" style="stop-color:#FFFFBD"/>
	<stop  offset="0.66" style="stop-color:#FFFF98"/>
	<stop  offset="0.7" style="stop-color:#FFFF8C"/>
	<stop  offset="1" style="stop-color:#FFC728"/>
</radialGradient>
<circle class="st72" cx="529.3" cy="325.1" r="8.4"/>
<radialGradient id="SVGID_40_" cx="461.94" cy="446.87" r="8.37" gradientTransform="matrix(1 0 0 -1 0 772)" gradientUnits="userSpaceOnUse">
	<stop  offset="0" style="stop-color:#FFFFFF"/>
	<stop  offset="0.13" style="stop-color:#FFFFFB"/>
	<stop  offset="0.26" style="stop-color:#FFFFEE"/>
	<stop  offset="0.39" style="stop-color:#FFFFDA"/>
	<stop  offset="0.53" style="stop-color:#FFFFBD"/>
	<stop  offset="0.66" style="stop-color:#FFFF98"/>
	<stop  offset="0.7" style="stop-color:#FFFF8C"/>
	<stop  offset="1" style="stop-color:#FFC728"/>
</radialGradient>
<circle class="st73" cx="461.9" cy="325.1" r="8.4"/>
</svg>
