<?xml version="1.0" encoding="utf-8"?>
<!-- Generator: Adobe Illustrator 25.2.3, SVG Export Plug-In . SVG Version: 6.00 Build 0)  -->
<svg version="1.1" id="Layer_1" xmlns="http://www.w3.org/2000/svg" xmlns:xlink="http://www.w3.org/1999/xlink" x="0px" y="0px"
	 viewBox="0 0 770 740" style="enable-background:new 0 0 770 740;" xml:space="preserve">
<style type="text/css">
	.st0{fill:#7C5438;}
	.st1{opacity:0.5;}
	.st2{fill:#CE9F38;}
	.st3{fill:#E5AE41;}
	.st4{opacity:0.5;fill:#CE9F38;enable-background:new    ;}
	.st5{opacity:0.4;fill:#CE9F38;enable-background:new    ;}
	.st6{fill:#FFE3C7;}
	.st7{fill:url(#SVGID_1_);}
	.st8{fill:#C77B4B;}
	.st9{fill:#F0D9AA;}
	.st10{clip-path:url(#SVGID_3_);}
	.st11{clip-path:url(#SVGID_5_);}
	.st12{fill:#2BA1DB;}
	.st13{fill:url(#Cloud_1_);}
	.st14{fill:#0571AD;}
	.st15{opacity:6.000000e-02;}
	.st16{opacity:6.000000e-02;enable-background:new    ;}
	.st17{fill:#E7F1F7;}
	.st18{fill:#82BBDD;}
	.st19{fill:#1E82B6;}
	.st20{fill:#DEE3E9;}
	.st21{fill:#9DBDDC;}
	.st22{fill:#84A2BF;}
	.st23{fill:#6C8AA5;}
	.st24{fill:#CAD7E9;}
	.st25{fill:#AED2EF;}
	.st26{fill:#9CB5CF;}
	.st27{fill:#0C597F;}
	.st28{fill:#206285;}
	.st29{fill:#E8F1F6;}
	.st30{fill:#0E5176;}
	.st31{fill:#81B8E4;}
	.st32{fill:#5C94B9;}
	.st33{fill:#2880A5;}
	.st34{fill:#96CBE8;}
	.st35{opacity:0.1;enable-background:new    ;}
	.st36{fill:url(#SVGID_6_);}
	.st37{fill:url(#SVGID_7_);}
	.st38{fill:url(#SVGID_8_);}
	.st39{fill:url(#SVGID_9_);}
	.st40{fill:url(#SVGID_10_);}
	.st41{fill:url(#SVGID_11_);}
	.st42{fill:url(#SVGID_12_);}
	.st43{fill:url(#SVGID_13_);}
	.st44{fill:url(#SVGID_14_);}
	.st45{fill:url(#SVGID_15_);}
	.st46{fill:url(#SVGID_16_);}
	.st47{fill:url(#SVGID_17_);}
	.st48{fill:url(#SVGID_18_);}
	.st49{fill:url(#SVGID_19_);}
	.st50{fill:url(#SVGID_20_);}
	.st51{fill:url(#SVGID_21_);}
	.st52{fill:url(#SVGID_22_);}
	.st53{fill:url(#SVGID_23_);}
	.st54{fill:url(#SVGID_24_);}
	.st55{fill:url(#SVGID_25_);}
	.st56{fill:url(#SVGID_26_);}
	.st57{fill:url(#SVGID_27_);}
	.st58{fill:url(#SVGID_28_);}
	.st59{fill:url(#SVGID_29_);}
	.st60{fill:url(#SVGID_30_);}
	.st61{fill:url(#SVGID_31_);}
	.st62{fill:url(#SVGID_32_);}
	.st63{fill:url(#SVGID_33_);}
	.st64{fill:url(#SVGID_34_);}
	.st65{fill:url(#SVGID_35_);}
	.st66{fill:url(#SVGID_36_);}
</style>
<g>
	<g>
		<g>
			<g>
				<g>
					<path class="st0" d="M644.2,297.3c-9.9,0-17.9-8-17.9-17.8s8-17.9,17.8-17.9c9.9,0,17.9,8,17.9,17.8c0,0,0,0,0,0
						C662,289.3,654,297.3,644.2,297.3z M644.2,267.3c-6.7,0-12.1,5.4-12.1,12.1s5.4,12.1,12.1,12.1s12.1-5.4,12.1-12.1c0,0,0,0,0,0
						C656.2,272.8,650.8,267.4,644.2,267.3L644.2,267.3z"/>
					<g class="st1">
						<path class="st2" d="M644.3,295.4c-8.9,0-16.1-7.2-16.1-16.1c0-8.9,7.2-16.1,16.1-16.1c8.9,0,16.1,7.2,16.1,16.1c0,0,0,0,0,0
							C660.5,288.2,653.2,295.4,644.3,295.4z M644.3,265.1c-7.9,0-14.2,6.4-14.2,14.2s6.4,14.2,14.2,14.2c7.9,0,14.2-6.4,14.2-14.2
							c0,0,0,0,0,0C658.5,271.4,652.2,265.1,644.3,265.1z"/>
					</g>
					<path class="st3" d="M637.7,265.7c-0.8-0.2-1.7-0.1-2.5,0.4l-1,0.6c-1.4,2.2-3.6,3.6-4.8,6.1c-0.6,1.3-1,2.8-1.2,4.2
						c-0.2,1.6,0.2,3.7,1.6,1.7s1.3-5.6,2.8-7.8C633.8,269.3,638,267.4,637.7,265.7z"/>
					<path class="st3" d="M659.3,281.3c-1.4-0.3-2.5,5.8-3.6,7.2c-2.1,2.7-4.4,3.6-7.4,4.4l-0.6,0.2c-1.5,0-1.3,1.1,0,1.3
						c1-0.1,1.9-0.4,2.8-0.8c1.7-0.7,3.2-1.7,4.5-3C657.2,288.6,660.6,284.6,659.3,281.3z"/>
				</g>
				<rect x="640.6" y="296.5" class="st0" width="7.1" height="13.9"/>
				<polygon class="st4" points="641.6,298.3 641.7,309.9 644.6,310.4 644.1,299.9 				"/>
			</g>
			<g>
				<g>
					<path class="st0" d="M643.1,255.2c-8.8,0-15.9-7.1-15.9-15.9s7.1-15.9,15.9-15.9s15.9,7.1,15.9,15.9
						C659,248.1,651.9,255.2,643.1,255.2z M643.1,228.5c-6,0-10.8,4.8-10.8,10.8c0,6,4.8,10.8,10.8,10.8c6,0,10.8-4.8,10.8-10.8
						c0,0,0,0,0,0C653.9,233.4,649.1,228.5,643.1,228.5L643.1,228.5z"/>
					<g class="st1">
						<path class="st2" d="M643.3,253.5c-7.9,0-14.4-6.4-14.4-14.4s6.4-14.4,14.4-14.4c7.9,0,14.4,6.4,14.4,14.4c0,0,0,0,0,0
							C657.6,247.1,651.2,253.5,643.3,253.5z M643.3,226.5c-7,0-12.6,5.7-12.6,12.7c0,7,5.7,12.6,12.7,12.6c7,0,12.6-5.7,12.6-12.7
							C656,232.2,650.3,226.5,643.3,226.5C643.3,226.5,643.3,226.5,643.3,226.5L643.3,226.5z"/>
					</g>
					<path class="st3" d="M637.4,227c-0.7-0.2-1.5-0.1-2.2,0.3l-0.8,0.5c-1.3,1.9-3.2,3.2-4.3,5.4c-0.5,1.2-0.9,2.5-1,3.8
						c-0.2,1.4,0.1,3.3,1.4,1.5s1.1-4.9,2.5-7C633.8,230.3,637.7,228.5,637.4,227z"/>
					<path class="st3" d="M656.6,241c-1.3-0.3-2.2,5.1-3.2,6.4c-1.9,2.4-3.9,3.2-6.6,3.9l-0.5,0.2c-1.3,0.1-1.2,1,0,1.2
						c0.9-0.1,1.7-0.3,2.5-0.7c1.5-0.6,2.8-1.5,4-2.6C654.7,247.5,657.8,243.9,656.6,241z"/>
				</g>
				<path class="st0" d="M647.6,269.9c0,1.4-1.6,2.6-3.5,2.6l0,0c-2,0-3.5-1.2-3.5-2.6v-22.1c0-1.4,1.6-2.6,3.5-2.6l0,0
					c2,0,3.5,1.2,3.5,2.6V269.9z"/>
				<path class="st5" d="M645.6,263.3c-0.1,1-1,1.8-2,1.8l0,0c-1,0.1-1.9-0.7-2-1.8v-15.1c0.1-1,1-1.8,2-1.8l0,0
					c1-0.1,1.9,0.7,2,1.8V263.3z"/>
				<path class="st3" d="M643.5,254.6c-0.3-2.1,0.7-4,0.4-6c-0.3-0.1-0.6-0.2-0.9-0.3h-0.1c-1.3,1.3-0.2,4.4-0.3,6.1
					c0,0.9-1.1,5.4,0.5,5.3S643.6,255.4,643.5,254.6z"/>
			</g>
			<g>
				<g>
					<path class="st0" d="M643.3,212.1c-8.8,0-15.9-7.1-15.9-15.9s7.1-15.9,15.9-15.9s15.9,7.1,15.9,15.9c0,0,0,0,0,0
						C659.2,205,652.1,212.1,643.3,212.1z M643.3,185.4c-6,0-10.8,4.8-10.8,10.8s4.8,10.8,10.8,10.8c6,0,10.8-4.8,10.8-10.8
						c0,0,0,0,0,0C654.1,190.2,649.2,185.4,643.3,185.4z"/>
					<g class="st1">
						<path class="st2" d="M643.5,210.4c-7.9,0-14.4-6.4-14.4-14.4s6.4-14.4,14.4-14.4c7.9,0,14.4,6.4,14.4,14.4c0,0,0,0,0,0
							C657.8,203.9,651.4,210.4,643.5,210.4z M643.5,183.4c-7,0-12.7,5.7-12.7,12.7c0,7,5.7,12.7,12.7,12.7c7,0,12.7-5.7,12.7-12.7
							c0,0,0,0,0,0C656.1,189,650.4,183.3,643.5,183.4L643.5,183.4z"/>
					</g>
					<path class="st3" d="M637.6,183.9c-0.7-0.2-1.5-0.1-2.2,0.3l-0.8,0.5c-1.3,2-3.2,3.2-4.3,5.4c-0.5,1.2-0.9,2.5-1,3.7
						c-0.2,1.4,0.1,3.3,1.4,1.5s1.1-4.9,2.5-7C634,187.1,637.8,185.4,637.6,183.9z"/>
					<path class="st3" d="M656.8,197.8c-1.3-0.3-2.2,5.1-3.2,6.4c-1.9,2.4-3.9,3.2-6.6,3.9l-0.5,0.2c-1.3,0-1.2,1,0,1.2
						c0.9-0.1,1.7-0.3,2.5-0.7c1.5-0.6,2.8-1.5,4-2.6C654.9,204.3,657.9,200.8,656.8,197.8z"/>
				</g>
				<path class="st0" d="M647.6,230.2c0,1.4-1.6,2.6-3.5,2.6l0,0c-2,0-3.5-1.2-3.5-2.6v-22.1c0-1.4,1.6-2.6,3.5-2.6l0,0
					c2,0,3.5,1.2,3.5,2.6V230.2z"/>
				<path class="st5" d="M645.6,223.5c-0.1,1-1,1.8-2,1.8l0,0c-1,0.1-1.9-0.7-2-1.8v-15.1c0.1-1,1-1.8,2-1.8l0,0
					c1-0.1,1.9,0.7,2,1.8V223.5z"/>
				<path class="st3" d="M643.5,214.9c-0.3-2.1,0.7-4,0.4-6c-0.3-0.1-0.6-0.2-0.9-0.3h-0.1c-1.3,1.3-0.2,4.4-0.3,6.1
					c0,0.9-1.1,5.4,0.5,5.4S643.6,215.7,643.5,214.9z"/>
			</g>
			<g>
				<g>
					<path class="st0" d="M643.3,167.5c-8.8,0-15.9-7.1-15.9-15.9s7.1-15.9,15.9-15.9s15.9,7.1,15.9,15.9
						C659.2,160.4,652.1,167.5,643.3,167.5z M643.3,140.8c-6,0-10.8,4.8-10.8,10.8c0,6,4.8,10.8,10.8,10.8c6,0,10.8-4.8,10.8-10.8
						c0,0,0,0,0,0C654.1,145.6,649.2,140.8,643.3,140.8z"/>
					<g class="st1">
						<path class="st2" d="M643.5,165.8c-7.9,0-14.4-6.4-14.4-14.4s6.4-14.4,14.4-14.4c7.9,0,14.4,6.4,14.4,14.4c0,0,0,0,0,0
							C657.8,159.4,651.4,165.8,643.5,165.8z M643.5,138.8c-7,0-12.7,5.7-12.7,12.7c0,7,5.7,12.7,12.7,12.7c7,0,12.7-5.7,12.7-12.7
							v0C656.1,144.5,650.5,138.8,643.5,138.8C643.5,138.8,643.5,138.8,643.5,138.8L643.5,138.8z"/>
					</g>
					<path class="st3" d="M637.6,139.3c-0.7-0.2-1.5,0-2.2,0.3l-0.8,0.5c-1.3,2-3.2,3.2-4.3,5.4c-0.5,1.2-0.9,2.5-1,3.8
						c-0.2,1.4,0.1,3.3,1.4,1.5s1.1-5,2.5-7C634,142.6,637.8,140.8,637.6,139.3z"/>
					<path class="st3" d="M656.8,153.3c-1.3-0.3-2.2,5.1-3.2,6.4c-1.9,2.4-3.9,3.2-6.6,3.9l-0.5,0.2c-1.3,0-1.2,1,0,1.2
						c0.9-0.1,1.7-0.3,2.5-0.7c1.5-0.6,2.8-1.5,4-2.6C654.9,159.8,657.9,156.2,656.8,153.3z"/>
				</g>
				<path class="st0" d="M647.6,185.6c0,1.4-1.6,2.6-3.5,2.6l0,0c-2,0-3.5-1.2-3.5-2.6v-22.1c0-1.4,1.6-2.6,3.5-2.6l0,0
					c2,0,3.5,1.2,3.5,2.6V185.6z"/>
				<path class="st5" d="M645.6,179c-0.1,1-1,1.8-2,1.8l0,0c-1,0.1-1.9-0.7-2-1.8v-15.1c0.1-1,1-1.8,2-1.8l0,0c1-0.1,1.9,0.7,2,1.8
					V179z"/>
				<path class="st3" d="M643.5,170.3c-0.3-2.1,0.7-4,0.4-6c-0.3-0.1-0.6-0.2-0.9-0.3h-0.1c-1.3,1.3-0.2,4.4-0.3,6.1
					c0,0.9-1.1,5.4,0.5,5.4S643.6,171.1,643.5,170.3z"/>
			</g>
			<g>
				<g>
					<path class="st0" d="M643.3,122.6c-8.8,0-15.9-7.1-15.9-15.9s7.1-15.9,15.9-15.9c8.8,0,15.9,7.1,15.9,15.9
						C659.2,115.4,652.1,122.5,643.3,122.6z M643.3,95.9c-6,0-10.8,4.8-10.8,10.8c0,6,4.8,10.8,10.8,10.8c6,0,10.8-4.8,10.8-10.8v0
						C654.1,100.7,649.2,95.9,643.3,95.9z"/>
					<g class="st1">
						<path class="st2" d="M643.5,120.8c-7.9,0-14.4-6.4-14.4-14.4s6.4-14.4,14.4-14.4c7.9,0,14.4,6.4,14.4,14.4l0,0
							C657.8,114.4,651.4,120.8,643.5,120.8z M643.5,93.8c-7,0-12.7,5.7-12.7,12.7c0,7,5.7,12.7,12.7,12.7c7,0,12.7-5.7,12.7-12.7
							c0,0,0,0,0,0C656.1,99.5,650.5,93.8,643.5,93.8C643.5,93.8,643.5,93.8,643.5,93.8L643.5,93.8z"/>
					</g>
					<path class="st3" d="M637.6,94.3c-0.7-0.2-1.5,0-2.2,0.3l-0.8,0.5c-1.3,2-3.2,3.2-4.3,5.4c-0.5,1.2-0.9,2.5-1,3.8
						c-0.2,1.4,0.1,3.3,1.4,1.5s1.1-4.9,2.5-7C634,97.6,637.8,95.8,637.6,94.3z"/>
					<path class="st3" d="M656.8,108.3c-1.3-0.3-2.2,5.2-3.2,6.4c-1.9,2.4-3.9,3.2-6.6,3.9l-0.5,0.2c-1.3,0-1.2,1,0,1.2
						c0.9-0.1,1.7-0.3,2.5-0.7c1.5-0.6,2.8-1.5,4-2.6C654.9,114.8,657.9,111.3,656.8,108.3z"/>
				</g>
				<path class="st0" d="M647.6,140.6c0,1.4-1.6,2.6-3.5,2.6l0,0c-2,0-3.5-1.2-3.5-2.6v-22c0-1.4,1.6-2.6,3.5-2.6l0,0
					c2,0,3.5,1.2,3.5,2.6V140.6z"/>
				<path class="st5" d="M645.6,134c-0.1,1-1,1.8-2,1.8l0,0c-1,0.1-1.9-0.7-2-1.8v-15.1c0.1-1,1-1.8,2-1.8l0,0c1-0.1,1.9,0.7,2,1.8
					V134z"/>
				<path class="st3" d="M643.5,125.3c-0.3-2.1,0.7-4,0.4-6c-0.3-0.1-0.6-0.2-0.9-0.3h-0.1c-1.3,1.3-0.2,4.4-0.3,6.1
					c0,0.9-1.1,5.4,0.5,5.4S643.6,126.2,643.5,125.3z"/>
			</g>
			<g>
				<g>
					<path class="st0" d="M643.3,77.8c-8.8,0-15.9-7.1-15.9-15.9S634.5,46,643.3,46s15.9,7.1,15.9,15.9
						C659.2,70.7,652.1,77.8,643.3,77.8z M643.3,51.1c-6,0-10.8,4.8-10.8,10.8c0,6,4.8,10.8,10.8,10.8c6,0,10.8-4.8,10.8-10.8
						c0,0,0,0,0,0C654.1,56,649.2,51.1,643.3,51.1z"/>
					<g class="st1">
						<path class="st2" d="M643.5,76.1c-7.9,0-14.4-6.4-14.4-14.4s6.4-14.4,14.4-14.4c7.9,0,14.4,6.4,14.4,14.4c0,0,0,0,0,0
							C657.8,69.7,651.4,76.1,643.5,76.1z M643.5,49.1c-7,0-12.7,5.7-12.7,12.7c0,7,5.7,12.7,12.7,12.7c7,0,12.7-5.7,12.7-12.7
							c0,0,0,0,0,0C656.1,54.8,650.5,49.1,643.5,49.1C643.5,49.1,643.5,49.1,643.5,49.1L643.5,49.1z"/>
					</g>
					<path class="st3" d="M637.6,49.6c-0.7-0.2-1.5,0-2.2,0.3l-0.8,0.5c-1.3,2-3.2,3.2-4.3,5.4c-0.5,1.2-0.9,2.5-1,3.8
						c-0.2,1.4,0.1,3.3,1.4,1.5s1.1-5,2.5-7C634,52.9,637.8,51.1,637.6,49.6z"/>
					<path class="st3" d="M656.8,63.6c-1.3-0.3-2.2,5.2-3.2,6.4c-1.9,2.4-3.9,3.2-6.6,3.9l-0.5,0.2c-1.3,0.1-1.2,1,0,1.2
						c0.9-0.1,1.7-0.3,2.5-0.7c1.5-0.6,2.8-1.5,4-2.6C654.9,70.1,657.9,66.5,656.8,63.6z"/>
				</g>
				<path class="st0" d="M647.6,95.9c0,1.4-1.6,2.6-3.5,2.6l0,0c-2,0-3.5-1.2-3.5-2.6v-22c0-1.4,1.6-2.6,3.5-2.6l0,0
					c2,0,3.5,1.2,3.5,2.6V95.9z"/>
				<path class="st5" d="M645.6,89.3c-0.1,1-1,1.8-2,1.8l0,0c-1,0.1-1.9-0.7-2-1.8V74.2c0.1-1,1-1.8,2-1.8l0,0c1-0.1,1.9,0.7,2,1.8
					V89.3z"/>
				<path class="st3" d="M643.5,80.6c-0.3-2.1,0.7-4,0.4-6c-0.3-0.1-0.6-0.2-0.9-0.3h-0.1c-1.3,1.3-0.2,4.4-0.3,6.1
					c0,0.9-1.1,5.3,0.5,5.3S643.6,81.5,643.5,80.6z"/>
			</g>
			<g>
				<g>
					<path class="st0" d="M643.3,35.4c-8.8,0-15.9-7.1-15.9-15.9s7.1-15.9,15.9-15.9s15.9,7.1,15.9,15.9
						C659.2,28.3,652.1,35.4,643.3,35.4z M643.3,8.7c-6,0-10.8,4.8-10.8,10.8c0,6,4.8,10.8,10.8,10.8c6,0,10.8-4.8,10.8-10.8
						c0,0,0,0,0,0C654.1,13.6,649.2,8.7,643.3,8.7z"/>
					<g class="st1">
						<path class="st2" d="M643.5,33.7c-7.9,0-14.4-6.4-14.4-14.4S635.5,5,643.5,5c7.9,0,14.4,6.4,14.4,14.4c0,0,0,0,0,0
							C657.8,27.3,651.4,33.7,643.5,33.7z M643.5,6.7c-7,0-12.7,5.7-12.7,12.7c0,7,5.7,12.7,12.7,12.7c7,0,12.7-5.7,12.7-12.7
							c0,0,0,0,0,0C656.1,12.4,650.5,6.7,643.5,6.7C643.5,6.7,643.5,6.7,643.5,6.7L643.5,6.7z"/>
					</g>
					<path class="st3" d="M637.6,7.2c-0.7-0.2-1.5-0.1-2.2,0.3L634.5,8c-1.3,2-3.2,3.2-4.3,5.4c-0.5,1.2-0.9,2.5-1,3.8
						c-0.2,1.4,0.1,3.3,1.4,1.5s1.1-4.9,2.5-7C634,10.5,637.8,8.7,637.6,7.2z"/>
					<path class="st3" d="M656.8,21.2c-1.3-0.3-2.2,5.1-3.2,6.4c-1.9,2.4-3.9,3.2-6.6,3.9l-0.5,0.2c-1.3,0-1.2,1,0,1.2
						c0.9-0.1,1.7-0.3,2.5-0.7c1.5-0.6,2.8-1.5,4-2.6C654.9,27.7,657.9,24.1,656.8,21.2z"/>
				</g>
				<path class="st0" d="M647.6,53.5c0,1.4-1.6,2.6-3.5,2.6l0,0c-2,0-3.5-1.2-3.5-2.6V31.5c0-1.4,1.6-2.6,3.5-2.6l0,0
					c2,0,3.5,1.2,3.5,2.6V53.5z"/>
				<path class="st5" d="M645.6,46.9c-0.1,1-1,1.8-2,1.8l0,0c-1,0.1-1.9-0.7-2-1.8V31.8c0.1-1,1-1.8,2-1.8l0,0c1-0.1,1.9,0.7,2,1.8
					V46.9z"/>
				<path class="st3" d="M643.5,38.2c-0.3-2.1,0.7-4,0.4-6c-0.3-0.1-0.5-0.2-0.8-0.2h-0.1c-1.3,1.3-0.2,4.4-0.3,6.1
					c0,0.9-1.1,5.3,0.5,5.3S643.6,39,643.5,38.2z"/>
			</g>
		</g>
		<g>
			<g>
				<g>
					<path class="st0" d="M125.8,297.3c-9.9,0-17.9-8-17.9-17.8s8-17.9,17.8-17.9c9.9,0,17.9,8,17.9,17.8c0,0,0,0,0,0
						C143.7,289.3,135.7,297.3,125.8,297.3z M125.8,267.3c-6.7,0-12.1,5.5-12.1,12.2c0,6.7,5.5,12.1,12.2,12.1
						c6.7,0,12.1-5.4,12.1-12.1C138,272.8,132.6,267.4,125.8,267.3C125.9,267.4,125.9,267.4,125.8,267.3L125.8,267.3z"/>
					<g class="st1">
						<path class="st2" d="M126,295.4c-8.9,0-16.1-7.2-16.1-16.1c0-8.9,7.2-16.1,16.1-16.1s16.1,7.2,16.1,16.1
							C142.1,288.2,134.9,295.4,126,295.4z M126,265.1c-7.9,0-14.2,6.4-14.2,14.2c0,7.9,6.4,14.2,14.2,14.2s14.2-6.4,14.2-14.2
							c0,0,0,0,0,0C140.2,271.4,133.8,265.1,126,265.1z"/>
					</g>
					<path class="st3" d="M119.4,265.7c-0.8-0.2-1.7-0.1-2.4,0.3l-1,0.6c-1.4,2.2-3.6,3.6-4.8,6.1c-0.6,1.3-1,2.7-1.2,4.2
						c-0.2,1.6,0.1,3.7,1.6,1.7s1.3-5.6,2.8-7.8C115.4,269.3,119.7,267.4,119.4,265.7z"/>
					<path class="st3" d="M141,281.3c-1.4-0.3-2.5,5.8-3.6,7.2c-2.1,2.7-4.4,3.6-7.4,4.4l-0.6,0.2c-1.5,0-1.3,1.1,0,1.3
						c1-0.1,1.9-0.4,2.8-0.8c1.7-0.7,3.2-1.7,4.5-3C138.9,288.6,142.3,284.6,141,281.3z"/>
				</g>
				<rect x="122.3" y="296.5" class="st0" width="7.1" height="13.9"/>
				<polygon class="st4" points="123.3,298.3 123.4,309.9 126.3,310.4 125.8,299.9 				"/>
			</g>
			<g>
				<g>
					<path class="st0" d="M124.8,255.2c-8.8,0-15.9-7.1-15.9-15.9c0-8.8,7.1-15.9,15.9-15.9s15.9,7.1,15.9,15.9l0,0
						C140.7,248.1,133.6,255.2,124.8,255.2z M124.8,228.5c-6,0-10.8,4.8-10.8,10.8c0,6,4.8,10.8,10.8,10.8c6,0,10.8-4.8,10.8-10.8
						l0,0C135.6,233.4,130.8,228.6,124.8,228.5L124.8,228.5z"/>
					<g class="st1">
						<path class="st2" d="M125,253.5c-7.9,0-14.4-6.4-14.4-14.4c0-7.9,6.4-14.4,14.4-14.4c7.9,0,14.4,6.4,14.4,14.4c0,0,0,0,0,0
							C139.4,247.1,132.9,253.5,125,253.5z M125,226.5c-7,0-12.7,5.7-12.7,12.7s5.7,12.7,12.7,12.7s12.7-5.7,12.7-12.7l0,0
							C137.7,232.2,132,226.5,125,226.5C125,226.5,125,226.5,125,226.5L125,226.5z"/>
					</g>
					<path class="st3" d="M119.1,227c-0.7-0.2-1.5-0.1-2.2,0.3l-0.8,0.5c-1.3,1.9-3.2,3.2-4.3,5.4c-0.5,1.2-0.9,2.5-1,3.8
						c-0.2,1.4,0.1,3.3,1.4,1.5s1.1-4.9,2.5-7C115.5,230.3,119.3,228.5,119.1,227z"/>
					<path class="st3" d="M138.3,241c-1.3-0.3-2.2,5.1-3.2,6.4c-1.9,2.4-3.9,3.2-6.6,3.9l-0.5,0.2c-1.3,0.1-1.2,1,0,1.2
						c0.9-0.1,1.7-0.3,2.5-0.7c1.5-0.6,2.8-1.5,4-2.6C136.4,247.5,139.4,243.9,138.3,241z"/>
				</g>
				<path class="st0" d="M129.3,269.9c0,1.4-1.6,2.6-3.5,2.6l0,0c-2,0-3.5-1.2-3.5-2.6v-22.1c0-1.4,1.6-2.6,3.5-2.6l0,0
					c2,0,3.5,1.2,3.5,2.6V269.9z"/>
				<path class="st5" d="M127.3,263.3c-0.1,1-1,1.8-2,1.8l0,0c-1,0.1-1.9-0.7-2-1.8v-15.1c0.1-1,1-1.8,2-1.8l0,0
					c1-0.1,1.9,0.7,2,1.8V263.3z"/>
				<path class="st3" d="M125.2,254.6c-0.3-2.1,0.7-4,0.4-6c-0.3-0.1-0.6-0.2-0.9-0.3h-0.1c-1.3,1.3-0.2,4.4-0.3,6.1
					c0,0.9-1.1,5.4,0.5,5.3S125.3,255.4,125.2,254.6z"/>
			</g>
			<g>
				<g>
					<path class="st0" d="M125,212.1c-8.8,0-15.9-7.1-15.9-15.9c0-8.8,7.1-15.9,15.9-15.9s15.9,7.1,15.9,15.9c0,0,0,0,0,0
						C140.9,204.9,133.8,212.1,125,212.1z M125,185.4c-6,0-10.8,4.8-10.8,10.8c0,6,4.8,10.8,10.8,10.8c6,0,10.8-4.8,10.8-10.8
						c0,0,0,0,0,0C135.8,190.2,131,185.4,125,185.4z"/>
					<g class="st1">
						<path class="st2" d="M125.1,210.4c-7.9,0-14.4-6.4-14.4-14.4c0-7.9,6.4-14.4,14.4-14.4s14.4,6.4,14.4,14.4l0,0
							C139.5,203.9,133.1,210.4,125.1,210.4z M125.1,183.4c-7,0-12.7,5.7-12.7,12.7c0,7,5.7,12.7,12.7,12.7c7,0,12.7-5.7,12.7-12.7
							c0,0,0,0,0,0C137.8,189,132.1,183.3,125.1,183.4L125.1,183.4z"/>
					</g>
					<path class="st3" d="M119.2,183.9c-0.7-0.2-1.5-0.1-2.2,0.3l-0.8,0.5c-1.3,2-3.2,3.2-4.3,5.4c-0.5,1.2-0.9,2.5-1,3.7
						c-0.2,1.4,0.1,3.3,1.4,1.5s1.1-4.9,2.5-7C115.7,187.1,119.5,185.4,119.2,183.9z"/>
					<path class="st3" d="M138.4,197.8c-1.3-0.3-2.2,5.1-3.2,6.4c-1.9,2.4-3.9,3.2-6.6,3.9l-0.5,0.2c-1.3,0-1.2,1,0,1.2
						c0.9-0.1,1.7-0.3,2.5-0.7c1.5-0.6,2.8-1.5,4-2.6C136.6,204.3,139.6,200.8,138.4,197.8z"/>
				</g>
				<path class="st0" d="M129.3,230.2c0,1.4-1.6,2.6-3.5,2.6l0,0c-2,0-3.5-1.2-3.5-2.6v-22.1c0-1.4,1.6-2.6,3.5-2.6l0,0
					c2,0,3.5,1.2,3.5,2.6V230.2z"/>
				<path class="st5" d="M127.3,223.5c-0.1,1-1,1.8-2,1.8l0,0c-1,0.1-1.9-0.7-2-1.8v-15.1c0.1-1,1-1.8,2-1.8l0,0
					c1-0.1,1.9,0.7,2,1.8V223.5z"/>
				<path class="st3" d="M125.2,214.9c-0.3-2.1,0.7-4,0.4-6c-0.3-0.1-0.6-0.2-0.9-0.3h-0.1c-1.3,1.3-0.2,4.4-0.3,6.1
					c-0.1,0.9-1.1,5.4,0.5,5.4S125.3,215.7,125.2,214.9z"/>
			</g>
			<g>
				<g>
					<path class="st0" d="M125,167.5c-8.8,0-15.9-7.1-15.9-15.9c0-8.8,7.1-15.9,15.9-15.9c8.8,0,15.9,7.1,15.9,15.9c0,0,0,0,0,0
						C140.9,160.4,133.8,167.5,125,167.5z M125,140.8c-6,0-10.8,4.8-10.8,10.8s4.8,10.8,10.8,10.8s10.8-4.8,10.8-10.8
						C135.8,145.6,131,140.8,125,140.8z"/>
					<g class="st1">
						<path class="st2" d="M125.1,165.8c-7.9,0-14.4-6.4-14.4-14.4c0-7.9,6.4-14.4,14.4-14.4s14.4,6.4,14.4,14.4l0,0
							C139.5,159.4,133.1,165.8,125.1,165.8z M125.1,138.8c-7,0-12.7,5.7-12.7,12.7c0,7,5.7,12.7,12.7,12.7c7,0,12.7-5.7,12.7-12.7
							C137.8,144.5,132.1,138.8,125.1,138.8C125.1,138.8,125.1,138.8,125.1,138.8L125.1,138.8z"/>
					</g>
					<path class="st3" d="M119.2,139.3c-0.7-0.2-1.5,0-2.2,0.3l-0.8,0.5c-1.3,2-3.2,3.2-4.3,5.4c-0.5,1.2-0.9,2.5-1,3.8
						c-0.2,1.4,0.1,3.3,1.4,1.5s1.1-5,2.5-7C115.7,142.6,119.5,140.8,119.2,139.3z"/>
					<path class="st3" d="M138.4,153.3c-1.3-0.3-2.2,5.1-3.2,6.4c-1.9,2.4-3.9,3.2-6.6,3.9l-0.5,0.2c-1.3,0-1.2,1,0,1.2
						c0.9-0.1,1.7-0.3,2.5-0.7c1.5-0.6,2.8-1.5,4-2.6C136.6,159.8,139.6,156.2,138.4,153.3z"/>
				</g>
				<path class="st0" d="M129.3,185.6c0,1.4-1.6,2.6-3.5,2.6l0,0c-2,0-3.5-1.2-3.5-2.6v-22.1c0-1.4,1.6-2.6,3.5-2.6l0,0
					c2,0,3.5,1.2,3.5,2.6V185.6z"/>
				<path class="st5" d="M127.3,179c-0.1,1-1,1.8-2,1.8l0,0c-1,0.1-1.9-0.7-2-1.8v-15.1c0.1-1,1-1.8,2-1.8l0,0c1-0.1,1.9,0.7,2,1.8
					V179z"/>
				<path class="st3" d="M125.2,170.3c-0.3-2.1,0.7-4,0.4-6c-0.3-0.1-0.6-0.2-0.9-0.3h-0.1c-1.3,1.3-0.2,4.4-0.3,6.1
					c-0.1,0.9-1.1,5.4,0.5,5.4S125.3,171.1,125.2,170.3z"/>
			</g>
			<g>
				<g>
					<path class="st0" d="M125,122.6c-8.8,0-15.9-7.1-15.9-15.9c0-8.8,7.1-15.9,15.9-15.9c8.8,0,15.9,7.1,15.9,15.9l0,0
						C140.9,115.4,133.8,122.5,125,122.6z M125,95.9c-6,0-10.8,4.8-10.8,10.8s4.8,10.8,10.8,10.8s10.8-4.8,10.8-10.8
						C135.8,100.7,131,95.9,125,95.9z"/>
					<g class="st1">
						<path class="st2" d="M125.1,120.8c-7.9,0-14.4-6.4-14.4-14.4s6.4-14.4,14.4-14.4s14.4,6.4,14.4,14.4
							C139.5,114.4,133.1,120.8,125.1,120.8z M125.1,93.8c-7,0-12.7,5.7-12.7,12.7c0,7,5.7,12.7,12.7,12.7c7,0,12.7-5.7,12.7-12.7
							C137.8,99.5,132.1,93.8,125.1,93.8C125.1,93.8,125.1,93.8,125.1,93.8L125.1,93.8z"/>
					</g>
					<path class="st3" d="M119.2,94.3c-0.7-0.2-1.5,0-2.2,0.3l-0.8,0.5c-1.3,2-3.2,3.2-4.3,5.4c-0.5,1.2-0.9,2.5-1,3.8
						c-0.2,1.4,0.1,3.3,1.4,1.5s1.1-4.9,2.5-7C115.7,97.6,119.5,95.8,119.2,94.3z"/>
					<path class="st3" d="M138.4,108.3c-1.3-0.3-2.2,5.2-3.2,6.4c-1.9,2.4-3.9,3.2-6.6,3.9l-0.5,0.2c-1.3,0-1.2,1,0,1.2
						c0.9-0.1,1.7-0.3,2.5-0.7c1.5-0.6,2.8-1.5,4-2.6C136.6,114.8,139.6,111.3,138.4,108.3z"/>
				</g>
				<path class="st0" d="M129.3,140.6c0,1.4-1.6,2.6-3.5,2.6l0,0c-2,0-3.5-1.2-3.5-2.6v-22c0-1.4,1.6-2.6,3.5-2.6l0,0
					c2,0,3.5,1.2,3.5,2.6V140.6z"/>
				<path class="st5" d="M127.3,134c-0.1,1-1,1.8-2,1.8l0,0c-1,0.1-1.9-0.7-2-1.8v-15.1c0.1-1,1-1.8,2-1.8l0,0c1-0.1,1.9,0.7,2,1.8
					V134z"/>
				<path class="st3" d="M125.2,125.3c-0.3-2.1,0.7-4,0.4-6c-0.3-0.1-0.6-0.2-0.9-0.3h-0.1c-1.3,1.3-0.2,4.4-0.3,6.1
					c-0.1,0.9-1.1,5.4,0.5,5.4S125.3,126.2,125.2,125.3z"/>
			</g>
			<g>
				<g>
					<path class="st0" d="M125,77.8c-8.8,0-15.9-7.1-15.9-15.9c0-8.8,7.1-15.9,15.9-15.9c8.8,0,15.9,7.1,15.9,15.9v0
						C140.9,70.7,133.8,77.8,125,77.8z M125,51.1c-6,0-10.8,4.8-10.8,10.8S119,72.7,125,72.7s10.8-4.8,10.8-10.8
						C135.8,56,131,51.1,125,51.1z"/>
					<g class="st1">
						<path class="st2" d="M125.1,76.1c-7.9,0-14.4-6.4-14.4-14.4s6.4-14.4,14.4-14.4c7.9,0,14.4,6.4,14.4,14.4
							C139.5,69.7,133.1,76.1,125.1,76.1z M125.1,49.1c-7,0-12.7,5.7-12.7,12.7s5.7,12.7,12.7,12.7c7,0,12.7-5.7,12.7-12.7
							c0,0,0,0,0,0C137.8,54.8,132.1,49.1,125.1,49.1L125.1,49.1z"/>
					</g>
					<path class="st3" d="M119.2,49.6c-0.7-0.2-1.5,0-2.2,0.3l-0.8,0.5c-1.3,2-3.2,3.2-4.3,5.4c-0.5,1.2-0.9,2.5-1,3.8
						c-0.2,1.4,0.1,3.3,1.4,1.5s1.1-5,2.5-7C115.7,52.9,119.5,51.1,119.2,49.6z"/>
					<path class="st3" d="M138.4,63.6c-1.3-0.3-2.2,5.2-3.2,6.4c-1.9,2.4-3.9,3.2-6.6,3.9l-0.5,0.2c-1.3,0.1-1.2,1,0,1.2
						c0.9-0.1,1.7-0.3,2.5-0.7c1.5-0.6,2.8-1.5,4-2.6C136.6,70.1,139.6,66.5,138.4,63.6z"/>
				</g>
				<path class="st0" d="M129.3,95.9c0,1.4-1.6,2.6-3.5,2.6l0,0c-2,0-3.5-1.2-3.5-2.6v-22c0-1.4,1.6-2.6,3.5-2.6l0,0
					c2,0,3.5,1.2,3.5,2.6V95.9z"/>
				<path class="st5" d="M127.3,89.3c-0.1,1-1,1.8-2,1.8l0,0c-1,0.1-1.9-0.7-2-1.8V74.2c0.1-1,1-1.8,2-1.8l0,0c1-0.1,1.9,0.7,2,1.8
					V89.3z"/>
				<path class="st3" d="M125.2,80.6c-0.3-2.1,0.7-4,0.4-6c-0.3-0.1-0.6-0.2-0.9-0.3h-0.1c-1.3,1.3-0.2,4.4-0.3,6.1
					c-0.1,0.9-1.1,5.3,0.5,5.3S125.3,81.5,125.2,80.6z"/>
			</g>
			<g>
				<g>
					<path class="st0" d="M125,35.4c-8.8,0-15.9-7.1-15.9-15.9c0-8.8,7.1-15.9,15.9-15.9c8.8,0,15.9,7.1,15.9,15.9c0,0,0,0,0,0
						C140.9,28.3,133.8,35.4,125,35.4z M125,8.7c-6,0-10.8,4.8-10.8,10.8S119,30.3,125,30.3s10.8-4.8,10.8-10.8
						C135.8,13.6,131,8.7,125,8.7z"/>
					<g class="st1">
						<path class="st2" d="M125.1,33.7c-7.9,0-14.4-6.4-14.4-14.4S117.2,5,125.1,5c7.9,0,14.4,6.4,14.4,14.4
							C139.5,27.3,133.1,33.7,125.1,33.7z M125.1,6.7c-7,0-12.7,5.7-12.7,12.7s5.7,12.7,12.7,12.7s12.7-5.7,12.7-12.7c0,0,0,0,0,0
							C137.8,12.4,132.1,6.7,125.1,6.7L125.1,6.7z"/>
					</g>
					<path class="st3" d="M119.2,7.2c-0.7-0.2-1.5-0.1-2.2,0.3L116.2,8c-1.3,2-3.2,3.2-4.3,5.4c-0.5,1.2-0.9,2.5-1,3.8
						c-0.2,1.4,0.1,3.3,1.4,1.5s1.1-4.9,2.5-7C115.7,10.5,119.5,8.7,119.2,7.2z"/>
					<path class="st3" d="M138.4,21.2c-1.3-0.3-2.2,5.1-3.2,6.4c-1.9,2.4-3.9,3.2-6.6,3.9l-0.5,0.2c-1.3,0-1.2,1,0,1.2
						c0.9-0.1,1.7-0.3,2.5-0.7c1.5-0.6,2.8-1.5,4-2.6C136.6,27.7,139.6,24.1,138.4,21.2z"/>
				</g>
				<path class="st0" d="M129.3,53.5c0,1.4-1.6,2.6-3.5,2.6l0,0c-2,0-3.5-1.2-3.5-2.6V31.5c0-1.4,1.6-2.6,3.5-2.6l0,0
					c2,0,3.5,1.2,3.5,2.6V53.5z"/>
				<path class="st5" d="M127.3,46.9c-0.1,1-1,1.8-2,1.8l0,0c-1,0.1-1.9-0.7-2-1.8V31.8c0.1-1,1-1.8,2-1.8l0,0c1-0.1,1.9,0.7,2,1.8
					V46.9z"/>
				<path class="st3" d="M125.2,38.2c-0.3-2.1,0.7-4,0.4-6c-0.3-0.1-0.6-0.2-0.9-0.3h-0.1c-1.3,1.3-0.2,4.4-0.3,6.1
					c-0.1,0.9-1.1,5.3,0.5,5.3S125.3,39,125.2,38.2z"/>
			</g>
		</g>
	</g>
	<g>
		<path class="st6" d="M229.1,280.7h311.8c125.8,0,227.8,102,227.8,227.8l0,0c0,125.8-102,227.8-227.8,227.8H229.1
			c-125.8,0-227.8-102-227.8-227.8l0,0C1.3,382.7,103.3,280.7,229.1,280.7z"/>
		
			<linearGradient id="SVGID_1_" gradientUnits="userSpaceOnUse" x1="385" y1="-14.35" x2="385" y2="490.17" gradientTransform="matrix(1 0 0 -1 0 742)">
			<stop  offset="0" style="stop-color:#B11107"/>
			<stop  offset="0.26" style="stop-color:#C21608"/>
			<stop  offset="0.72" style="stop-color:#DA1E0A"/>
			<stop  offset="1" style="stop-color:#E3210B"/>
		</linearGradient>
		<path class="st7" d="M229.1,283.1h311.8c124.5,0,225.4,100.9,225.4,225.4v0c0,124.5-100.9,225.4-225.4,225.4H229.1
			C104.6,734,3.7,633.1,3.7,508.6v0C3.7,384.1,104.6,283.1,229.1,283.1z"/>
		<path class="st6" d="M229.1,307.1h311.8c111.3,0,201.4,90.2,201.4,201.4l0,0c0,111.3-90.2,201.4-201.4,201.4H229.1
			c-111.3,0-201.4-90.2-201.4-201.4l0,0C27.7,397.3,117.9,307.1,229.1,307.1z"/>
	</g>
	<path class="st8" d="M229.1,309.5h311.8c109.9,0,199,89.1,199,199v0c0,109.9-89.1,199-199,199H229.1c-109.9,0-199-89.1-199-199v0
		C30.1,398.6,119.2,309.5,229.1,309.5z"/>
	<g>
		<path class="st9" d="M229.1,316.3h311.8c106,0,191.9,85.9,191.9,191.9v0c0,106-85.9,191.9-191.9,191.9H229.1
			c-106,0-191.9-85.9-191.9-191.9v0C37.3,402.2,123.2,316.3,229.1,316.3z"/>
		<g>
			<defs>
				<path id="SVGID_2_" d="M229.1,316.3h311.8c106,0,191.9,85.9,191.9,191.9v0c0,106-85.9,191.9-191.9,191.9H229.1
					c-106,0-191.9-85.9-191.9-191.9v0C37.3,402.2,123.2,316.3,229.1,316.3z"/>
			</defs>
			<clipPath id="SVGID_3_">
				<use xlink:href="#SVGID_2_"  style="overflow:visible;"/>
			</clipPath>
			<g class="st10">
				<g>
					<defs>
						<rect id="SVGID_4_" x="-318.1" y="251.7" width="1232.4" height="577.7"/>
					</defs>
					<clipPath id="SVGID_5_">
						<use xlink:href="#SVGID_4_"  style="overflow:visible;"/>
					</clipPath>
					<g class="st11">
						<g>
							<polygon id="Rive-2" class="st12" points="-322.5,451 920.6,448.5 920.8,833.7 -321.8,834 							"/>
							
								<linearGradient id="Cloud_1_" gradientUnits="userSpaceOnUse" x1="291.3573" y1="174.2098" x2="303.0473" y2="559.0398" gradientTransform="matrix(1 0 0 -1 0 742)">
								<stop  offset="0.41" style="stop-color:#AAD4ED"/>
								<stop  offset="0.6" style="stop-color:#7ABCE0"/>
								<stop  offset="0.77" style="stop-color:#56ABD7"/>
								<stop  offset="0.91" style="stop-color:#40A0D1"/>
								<stop  offset="1" style="stop-color:#389CCF"/>
							</linearGradient>
							<rect id="Cloud" x="-320.9" y="249.3" class="st13" width="1237.7" height="200"/>
							<polygon class="st14" points="-320.4,451.1 916.3,448 915.4,472.1 777.7,481.5 663.1,486.5 21.4,500.7 -138.4,500.7 
								-322.2,509.8 							"/>
							<g id="_05" class="st15">
								<polygon points="219.8,512.8 219.8,521.8 241.6,524.7 274.7,515.3 274.7,511.2 245.1,506.5 								"/>
								<polygon points="219.8,512.8 241.6,515.6 274.7,511.2 274.7,515.3 241.6,524.7 219.8,521.8 								"/>
							</g>
							<polygon class="st16" points="907.3,594.5 268.3,610.8 907.3,655.4 							"/>
							<g id="_05-2">
								<polygon class="st17" points="219.8,508 219.8,517.1 241.6,519.9 274.7,510.6 274.7,506.5 245.1,501.8 								"/>
								<polygon class="st18" points="219.8,508 241.6,510.9 274.7,506.5 274.7,510.6 241.6,519.9 219.8,517.1 								"/>
							</g>
							<path class="st19" d="M810,479.3H706l-0.1,0.2H274.5l4.7,1.1l-23.8-0.6l56.5,16.8l25.7,27.4l37.7,10.9l19.6-2.9l34.2-27.2
								l27.4,7.6l38.2,36.3l8.7,64.3l13.9,49.3l24.4,16.4h46.7l1.1-1.5l-0.8,1.6l59-63.4l8.8-14.2l8.3-11.3l36.6-7l26.2-25.3
								l-3.9-10.8l13.1,1.5L810,479.3z M403.9,491.2l-1.6-0.8l0.4,0.1L403.9,491.2z"/>
							<polygon class="st20" points="246.9,481.5 269.4,481.5 264.1,485.3 698.2,487.1 688,478.1 262.8,476 							"/>
							<g>
								<polygon class="st21" points="310.4,455.5 230,375.4 157.7,371.7 135.9,239.5 107.3,230.2 66.4,120.4 -218.5,-8.1 
									-518.4,124.1 -604.3,120.4 -786.9,163.2 -785.6,448 								"/>
								<path class="st22" d="M24.1,150.2l-13.6,52.1l23.2,162l10.9-44.7l21.9,133.5l244,2.4l-80.4-80l-72.2-3.7l-21.9-132.3
									l-28.6-9.3L66.4,120.4c0,0-80.4,20.5-79.1,20.5S24.1,150.2,24.1,150.2z"/>
								<path class="st23" d="M66.4,453.1c10.8,0.5,91.3-81.4,91.3-81.4l72.3,3.7l-81.8,37.2l-72,41.5L66.4,453.1z"/>
								<polygon class="st23" points="135.9,239.5 107.3,230.2 27,314.5 35,377.3 44.6,319.6 								"/>
								<polygon class="st22" points="-11.8,453 8.5,453 -14,375.4 -5.8,377.3 -31.8,301 -16.8,217.2 -42.7,301 -19.5,358.7 
									-30.4,354.9 								"/>
								<path class="st20" d="M-197.6,451c-0.5-4.9,4.9-204.1,4.9-204.1l23.2-67l-9.6,78.2l45-148.9l61.3,31.6L20,152l-29-10.5
									l75.4-21.1L-218.5-8l-299.9,132.1l-85.9-3.7l-182.7,42.8v63.3l109,27.9l50.4-63.3l-4.1,29.8l205.8-44.7l141.8-108l-19.1,41
									l19.1-13l-62.7,96.8l19.1,7.4L-241.7,85l20.4-13l51.8,57.7l-51.8,111.7l-11.4,210.3L-197.6,451z"/>
								<polygon class="st22" points="-38.6,247 -60.1,143.2 -19.5,131.6 -34.5,114.8 5.1,114.8 -59,105.5 -41.3,126 -80.4,138.1 
																	"/>
							</g>
							<g>
								<g id="Mountian_02">
									<polygon class="st20" points="274.5,482.6 808.8,482.6 765.4,426.7 699.5,289.7 678.7,277 645.7,175.3 624.8,152.8 
										588.4,34.5 541.7,34.5 517.2,71.4 503.3,182.1 494.7,326.7 456.5,408.4 427,426.7 402.7,457.8 373.2,466.8 352.3,442 
																			"/>
									<polygon class="st24" points="427,482.6 482.5,442 519,442 529.4,408.4 529.4,299.6 548.5,107.6 541.7,347.4 548.5,426.7 
										554.5,347.4 554.5,414.8 563.7,221.7 576.7,375.9 576.7,442 596.2,482.6 									"/>
									<polygon class="st24" points="635.3,482.6 611.8,367.4 576.7,265.7 576.7,167.4 570.2,155.6 570.2,34.5 588.3,34.8 
										605.7,91.2 635.3,164 643.1,286 689.9,482.6 									"/>
									<polygon class="st25" points="635.3,164 643.1,286 689.9,482.6 777.2,482.6 787.1,454.7 699.5,289.7 671.6,255.4 
										645.7,175.3 									"/>
									<polygon class="st26" points="689.9,482.6 643.1,286 635.3,164 653.5,287.8 711.2,482.6 									"/>
								</g>
								<polygon class="st22" points="706.1,483 634.6,236.9 622.8,290.5 612.3,168.8 618.9,176.9 588.7,34.4 647.7,176.9 
									663.4,233.7 701.4,249.9 727.7,306.7 723.7,331.1 736.8,327.8 810,483 								"/>
								<polygon class="st23" points="727.7,306.7 709,372.8 721.7,444 722.4,368.9 736.8,327.8 723.7,331.1 								"/>
								<g>
									<polygon class="st22" points="255.4,481.3 386,474.2 430.2,427.4 394.9,364.1 375.3,357.5 337.6,382.1 311.9,443.6 
																			"/>
									<polygon class="st20" points="411.7,448 323.4,470.6 337.7,455.7 344.6,407.5 379.1,377.2 375.3,357.5 337.6,382.1 
										311.9,443.6 255.4,481.3 386.1,474.9 									"/>
									<polygon class="st22" points="375.3,357.5 394.9,364.1 430.2,427.4 406.1,454 382.5,460.5 344.6,407.5 379.1,377.2 
																			"/>
								</g>
							</g>
							<path class="st12" d="M261.4,528.1c4,0,213.1-9.3,213.1-9.3s-38.4,11.2-35.7,11.2s184-1.9,178.7-1.9s-223.7,22.3-223.7,22.3
								l19.9-9.3L261.4,528.1z"/>
							<path class="st12" d="M404.4,550.4c3.8,0,204.3-9.3,204.3-9.3s-36.8,11.2-34.3,11.2s176.4-1.9,171.3-1.9
								s-214.5,22.3-214.5,22.3l19-9.3L404.4,550.4z"/>
							<path class="st12" d="M326.3,621.2c3.8,0,204.3-9.3,204.3-9.3S493.8,623,496.4,623s176.4-1.9,171.3-1.9
								s-214.5,22.3-214.5,22.3l19-9.3L326.3,621.2z"/>
							<path class="st12" d="M661.2,507.6c2.5,0,131.5-9.3,131.5-9.3s-23.7,11.2-22,11.2s113.5-1.9,110.2-1.9s-138,22.3-138,22.3
								l12.2-9.3L661.2,507.6z"/>
							<path class="st14" d="M-314.4,520.6c4,0,213.1-9.3,213.1-9.3s-38.4,11.2-35.7,11.2s184-1.9,178.7-1.9S-182,543-182,543
								l19.9-9.3L-314.4,520.6z"/>
							<path class="st14" d="M-151.6,572.8c4,0,213.1-9.3,213.1-9.3s-38.4,11.2-35.7,11.2s184-1.9,178.7-1.9s-223.7,22.3-223.7,22.3
								l19.9-9.3L-151.6,572.8z"/>
							<polygon class="st16" points="752.6,515.9 712,502.6 674.4,514.8 674.3,525 694,554.9 753.5,527.3 							"/>
							<polygon class="st16" points="393,531.2 351.7,544.6 351.7,564.1 387.3,570.2 441.4,550.2 441.4,541.3 							"/>
							<g>
								<g>
									<path class="st27" d="M-45,1016.8l286.4-172.5l-40.2-5.6l27.5-8.4l34.9,1.4l40.2-19.6l26.5,9.8l36-8.4v-14l59.2-4.2
										l3.2-19.6l21.1,11.2l106.8-18.2l32.8-25.2l-5.3-64.4c0,0-636.1,155.1-1009,341.3L-45,1016.8z"/>
									<polygon class="st28" points="556.6,768.7 589.4,743.4 584.7,683.8 545,708.4 									"/>
								</g>
								<g>
									<path class="st29" d="M75.3,879.3c0,0,46.6-37.8,225.3-92.4l28.6,8.4l36-9.8l-1.1-18.2l66.6-15.4l-3.2-14l22.2,7l98.4-23.8
										l37-29.4l6.3-64.4c0,0-14.8-44.8-107.9-40.6H359.8l-109-25.2l-511.6-8.3l-246.1,27.3l-5.3,227.8l24.9,87.1l272.9,28.2
										l168.1,31.5L75.3,879.3z"/>
									<polygon class="st30" points="191.4,824.7 213.9,749 139.8,742 172.6,733.6 115.5,725.2 217,718.2 187.4,728 244.5,736.4 
										200.9,820.3 									"/>
									<polygon class="st31" points="200.9,820.3 300.6,786.8 308,726.6 244.5,736.4 									"/>
									<polygon class="st32" points="329.2,795.3 331.3,736.4 308,726.6 300.6,786.8 									"/>
									<polygon class="st31" points="329.2,795.3 365.1,785.5 365.1,728 331.3,736.4 									"/>
									<polygon class="st32" points="364.1,767.3 430.7,751.8 418,698.6 351.4,716.8 365.1,728 									"/>
									<polygon class="st33" points="449.8,744.8 427.5,737.8 418,698.6 358.8,681.8 457.2,688.8 									"/>
									<polygon class="st31" points="449.8,744.8 548.1,721 558.7,665 457.2,688.8 									"/>
									<path class="st34" d="M548.1,721l37-29.4l6.3-64.4c0,0-5.3,22.4-32.8,37.8L548.1,721z"/>
								</g>
							</g>
							<ellipse class="st12" cx="497" cy="490.9" rx="168.1" ry="1.9"/>
							<rect x="-320.9" y="246.3" class="st35" width="1241" height="237.1"/>
							<g id="_05-3">
								<polygon class="st17" points="351.7,539 351.7,558.5 387.3,564.6 441.4,544.6 441.4,535.8 393,525.6 								"/>
								<polygon class="st18" points="351.7,539 387.3,545.1 441.4,535.8 441.4,544.6 387.3,564.6 351.7,558.5 								"/>
							</g>
							<g id="_04">
								<polygon class="st17" points="674.4,509.2 674.3,519.4 694,549.3 753.5,521.7 752.6,510.3 712,497 								"/>
								<polygon class="st18" points="674.4,509.2 697.4,529.7 752.6,510.3 753.5,521.7 694,549.3 674.3,519.4 								"/>
							</g>
						</g>
					</g>
				</g>
			</g>
		</g>
	</g>
	<g>
		
			<radialGradient id="SVGID_6_" cx="885.9767" cy="258.6367" r="11.2" gradientTransform="matrix(0.75 0 0 -0.75 -206.08 490.04)" gradientUnits="userSpaceOnUse">
			<stop  offset="0" style="stop-color:#FFFFFF"/>
			<stop  offset="0.13" style="stop-color:#FFFFFB"/>
			<stop  offset="0.26" style="stop-color:#FFFFEE"/>
			<stop  offset="0.39" style="stop-color:#FFFFDA"/>
			<stop  offset="0.53" style="stop-color:#FFFFBD"/>
			<stop  offset="0.66" style="stop-color:#FFFF98"/>
			<stop  offset="0.7" style="stop-color:#FFFF8C"/>
			<stop  offset="1" style="stop-color:#FFC728"/>
		</radialGradient>
		<circle class="st36" cx="456.9" cy="295.1" r="8.4"/>
		
			<radialGradient id="SVGID_7_" cx="391.15" cy="434.97" r="11.2" gradientTransform="matrix(1 0 0 -1 0 742)" gradientUnits="userSpaceOnUse">
			<stop  offset="0" style="stop-color:#FFFFFF"/>
			<stop  offset="0.13" style="stop-color:#FFFFFB"/>
			<stop  offset="0.26" style="stop-color:#FFFFEE"/>
			<stop  offset="0.39" style="stop-color:#FFFFDA"/>
			<stop  offset="0.53" style="stop-color:#FFFFBD"/>
			<stop  offset="0.66" style="stop-color:#FFFF98"/>
			<stop  offset="0.7" style="stop-color:#FFFF8C"/>
			<stop  offset="1" style="stop-color:#FFC728"/>
		</radialGradient>
		<circle class="st37" cx="389.6" cy="295.1" r="8.4"/>
		
			<radialGradient id="SVGID_8_" cx="300.99" cy="434.97" r="11.2" gradientTransform="matrix(1 0 0 -1 0 742)" gradientUnits="userSpaceOnUse">
			<stop  offset="0" style="stop-color:#FFFFFF"/>
			<stop  offset="0.13" style="stop-color:#FFFFFB"/>
			<stop  offset="0.26" style="stop-color:#FFFFEE"/>
			<stop  offset="0.39" style="stop-color:#FFFFDA"/>
			<stop  offset="0.53" style="stop-color:#FFFFBD"/>
			<stop  offset="0.66" style="stop-color:#FFFF98"/>
			<stop  offset="0.7" style="stop-color:#FFFF8C"/>
			<stop  offset="1" style="stop-color:#FFC728"/>
		</radialGradient>
		<circle class="st38" cx="322.3" cy="295.1" r="8.4"/>
		
			<radialGradient id="SVGID_9_" cx="210.83" cy="434.97" r="11.2" gradientTransform="matrix(1 0 0 -1 0 742)" gradientUnits="userSpaceOnUse">
			<stop  offset="0" style="stop-color:#FFFFFF"/>
			<stop  offset="0.13" style="stop-color:#FFFFFB"/>
			<stop  offset="0.26" style="stop-color:#FFFFEE"/>
			<stop  offset="0.39" style="stop-color:#FFFFDA"/>
			<stop  offset="0.53" style="stop-color:#FFFFBD"/>
			<stop  offset="0.66" style="stop-color:#FFFF98"/>
			<stop  offset="0.7" style="stop-color:#FFFF8C"/>
			<stop  offset="1" style="stop-color:#FFC728"/>
		</radialGradient>
		<circle class="st39" cx="254.9" cy="295.1" r="8.4"/>
		
			<radialGradient id="SVGID_10_" cx="120.67" cy="434.97" r="11.2" gradientTransform="matrix(1 0 0 -1 0 742)" gradientUnits="userSpaceOnUse">
			<stop  offset="0" style="stop-color:#FFFFFF"/>
			<stop  offset="0.13" style="stop-color:#FFFFFB"/>
			<stop  offset="0.26" style="stop-color:#FFFFEE"/>
			<stop  offset="0.39" style="stop-color:#FFFFDA"/>
			<stop  offset="0.53" style="stop-color:#FFFFBD"/>
			<stop  offset="0.66" style="stop-color:#FFFF98"/>
			<stop  offset="0.7" style="stop-color:#FFFF8C"/>
			<stop  offset="1" style="stop-color:#FFC728"/>
		</radialGradient>
		<circle class="st40" cx="187.6" cy="295.1" r="8.4"/>
		
			<radialGradient id="SVGID_11_" cx="37.21" cy="401.5" r="11.2" gradientTransform="matrix(1 0 0 -1 0 742)" gradientUnits="userSpaceOnUse">
			<stop  offset="0" style="stop-color:#FFFFFF"/>
			<stop  offset="0.13" style="stop-color:#FFFFFB"/>
			<stop  offset="0.26" style="stop-color:#FFFFEE"/>
			<stop  offset="0.39" style="stop-color:#FFFFDA"/>
			<stop  offset="0.53" style="stop-color:#FFFFBD"/>
			<stop  offset="0.66" style="stop-color:#FFFF98"/>
			<stop  offset="0.7" style="stop-color:#FFFF8C"/>
			<stop  offset="1" style="stop-color:#FFC728"/>
		</radialGradient>
		<circle class="st41" cx="125.2" cy="320.1" r="8.4"/>
		
			<radialGradient id="SVGID_12_" cx="380.9366" cy="177.6867" r="11.2" gradientTransform="matrix(0.75 0 0 -0.75 -206.0764 490.0583)" gradientUnits="userSpaceOnUse">
			<stop  offset="0" style="stop-color:#FFFFFF"/>
			<stop  offset="0.13" style="stop-color:#FFFFFB"/>
			<stop  offset="0.26" style="stop-color:#FFFFEE"/>
			<stop  offset="0.39" style="stop-color:#FFFFDA"/>
			<stop  offset="0.53" style="stop-color:#FFFFBD"/>
			<stop  offset="0.66" style="stop-color:#FFFF98"/>
			<stop  offset="0.7" style="stop-color:#FFFF8C"/>
			<stop  offset="1" style="stop-color:#FFC728"/>
		</radialGradient>
		<circle class="st42" cx="79.7" cy="355.6" r="8.4"/>
		
			<radialGradient id="SVGID_13_" cx="337.0595" cy="124.6373" r="11.2" gradientTransform="matrix(0.7495 4.981380e-03 4.981380e-03 -0.7495 -212.9773 495.5092)" gradientUnits="userSpaceOnUse">
			<stop  offset="0" style="stop-color:#FFFFFF"/>
			<stop  offset="0.13" style="stop-color:#FFFFFB"/>
			<stop  offset="0.26" style="stop-color:#FFFFEE"/>
			<stop  offset="0.39" style="stop-color:#FFFFDA"/>
			<stop  offset="0.53" style="stop-color:#FFFFBD"/>
			<stop  offset="0.66" style="stop-color:#FFFF98"/>
			<stop  offset="0.7" style="stop-color:#FFFF8C"/>
			<stop  offset="1" style="stop-color:#FFC728"/>
		</radialGradient>
		<circle class="st43" cx="42.7" cy="403" r="8.4"/>
		
			<radialGradient id="SVGID_14_" cx="-105.4" cy="200.47" r="11.2" gradientTransform="matrix(1 0 0 -1 0 742)" gradientUnits="userSpaceOnUse">
			<stop  offset="0" style="stop-color:#FFFFFF"/>
			<stop  offset="0.13" style="stop-color:#FFFFFB"/>
			<stop  offset="0.26" style="stop-color:#FFFFEE"/>
			<stop  offset="0.39" style="stop-color:#FFFFDA"/>
			<stop  offset="0.53" style="stop-color:#FFFFBD"/>
			<stop  offset="0.66" style="stop-color:#FFFF98"/>
			<stop  offset="0.7" style="stop-color:#FFFF8C"/>
			<stop  offset="1" style="stop-color:#FFC728"/>
		</radialGradient>
		<circle class="st44" cx="18.7" cy="470.3" r="8.4"/>
		
			<radialGradient id="SVGID_15_" cx="296.5866" cy="-64.6833" r="11.2" gradientTransform="matrix(0.75 0 0 -0.75 -206.0737 490.0642)" gradientUnits="userSpaceOnUse">
			<stop  offset="0" style="stop-color:#FFFFFF"/>
			<stop  offset="0.13" style="stop-color:#FFFFFB"/>
			<stop  offset="0.26" style="stop-color:#FFFFEE"/>
			<stop  offset="0.39" style="stop-color:#FFFFDA"/>
			<stop  offset="0.53" style="stop-color:#FFFFBD"/>
			<stop  offset="0.66" style="stop-color:#FFFF98"/>
			<stop  offset="0.7" style="stop-color:#FFFF8C"/>
			<stop  offset="1" style="stop-color:#FFC728"/>
		</radialGradient>
		<circle class="st45" cx="16.7" cy="536.7" r="8.4"/>
		
			<radialGradient id="SVGID_16_" cx="-83.98" cy="33.54" r="11.2" gradientTransform="matrix(1 0 0 -1 0 742)" gradientUnits="userSpaceOnUse">
			<stop  offset="0" style="stop-color:#FFFFFF"/>
			<stop  offset="0.13" style="stop-color:#FFFFFB"/>
			<stop  offset="0.26" style="stop-color:#FFFFEE"/>
			<stop  offset="0.39" style="stop-color:#FFFFDA"/>
			<stop  offset="0.53" style="stop-color:#FFFFBD"/>
			<stop  offset="0.66" style="stop-color:#FFFF98"/>
			<stop  offset="0.7" style="stop-color:#FFFF8C"/>
			<stop  offset="1" style="stop-color:#FFC728"/>
		</radialGradient>
		<circle class="st46" cx="34.7" cy="595" r="8.4"/>
		
			<radialGradient id="SVGID_17_" cx="358.1466" cy="-205.7333" r="11.2" gradientTransform="matrix(0.75 0 0 -0.75 -206.0492 490.0891)" gradientUnits="userSpaceOnUse">
			<stop  offset="0" style="stop-color:#FFFFFF"/>
			<stop  offset="0.13" style="stop-color:#FFFFFB"/>
			<stop  offset="0.26" style="stop-color:#FFFFEE"/>
			<stop  offset="0.39" style="stop-color:#FFFFDA"/>
			<stop  offset="0.53" style="stop-color:#FFFFBD"/>
			<stop  offset="0.66" style="stop-color:#FFFF98"/>
			<stop  offset="0.7" style="stop-color:#FFFF8C"/>
			<stop  offset="1" style="stop-color:#FFC728"/>
		</radialGradient>
		<circle class="st47" cx="62.7" cy="642" r="8.4"/>
		
			<radialGradient id="SVGID_18_" cx="429.5666" cy="-269.9933" r="11.2" gradientTransform="matrix(0.75 0 0 -0.75 -206.0871 490.0243)" gradientUnits="userSpaceOnUse">
			<stop  offset="0" style="stop-color:#FFFFFF"/>
			<stop  offset="0.13" style="stop-color:#FFFFFB"/>
			<stop  offset="0.26" style="stop-color:#FFFFEE"/>
			<stop  offset="0.39" style="stop-color:#FFFFDA"/>
			<stop  offset="0.53" style="stop-color:#FFFFBD"/>
			<stop  offset="0.66" style="stop-color:#FFFF98"/>
			<stop  offset="0.7" style="stop-color:#FFFF8C"/>
			<stop  offset="1" style="stop-color:#FFC728"/>
		</radialGradient>
		<circle class="st48" cx="116.1" cy="690" r="8.4"/>
		
			<radialGradient id="SVGID_19_" cx="518.6895" cy="-294.4527" r="11.2" gradientTransform="matrix(0.7495 4.981380e-03 4.981380e-03 -0.7495 -212.9586 495.5175)" gradientUnits="userSpaceOnUse">
			<stop  offset="0" style="stop-color:#FFFFFF"/>
			<stop  offset="0.13" style="stop-color:#FFFFFB"/>
			<stop  offset="0.26" style="stop-color:#FFFFEE"/>
			<stop  offset="0.39" style="stop-color:#FFFFDA"/>
			<stop  offset="0.53" style="stop-color:#FFFFBD"/>
			<stop  offset="0.66" style="stop-color:#FFFF98"/>
			<stop  offset="0.7" style="stop-color:#FFFF8C"/>
			<stop  offset="1" style="stop-color:#FFC728"/>
		</radialGradient>
		<circle class="st49" cx="178.4" cy="716" r="8.4"/>
		
			<radialGradient id="SVGID_20_" cx="603.1967" cy="-312.8333" r="11.2" gradientTransform="matrix(0.75 0 0 -0.75 -206.0903 490.0215)" gradientUnits="userSpaceOnUse">
			<stop  offset="0" style="stop-color:#FFFFFF"/>
			<stop  offset="0.13" style="stop-color:#FFFFFB"/>
			<stop  offset="0.26" style="stop-color:#FFFFEE"/>
			<stop  offset="0.39" style="stop-color:#FFFFDA"/>
			<stop  offset="0.53" style="stop-color:#FFFFBD"/>
			<stop  offset="0.66" style="stop-color:#FFFF98"/>
			<stop  offset="0.7" style="stop-color:#FFFF8C"/>
			<stop  offset="1" style="stop-color:#FFC728"/>
		</radialGradient>
		<circle class="st50" cx="245.7" cy="722" r="8.4"/>
		
			<radialGradient id="SVGID_21_" cx="693.0782" cy="-315.4336" r="11.2" gradientTransform="matrix(0.7497 -1.058874e-03 -1.058874e-03 -0.7497 -205.1622 488.3021)" gradientUnits="userSpaceOnUse">
			<stop  offset="0" style="stop-color:#FFFFFF"/>
			<stop  offset="0.13" style="stop-color:#FFFFFB"/>
			<stop  offset="0.26" style="stop-color:#FFFFEE"/>
			<stop  offset="0.39" style="stop-color:#FFFFDA"/>
			<stop  offset="0.53" style="stop-color:#FFFFBD"/>
			<stop  offset="0.66" style="stop-color:#FFFF98"/>
			<stop  offset="0.7" style="stop-color:#FFFF8C"/>
			<stop  offset="1" style="stop-color:#FFC728"/>
		</radialGradient>
		<circle class="st51" cx="313.1" cy="722" r="8.4"/>
		
			<radialGradient id="SVGID_22_" cx="783.5167" cy="-312.8333" r="11.2" gradientTransform="matrix(0.75 0 0 -0.75 -206.0905 490.0196)" gradientUnits="userSpaceOnUse">
			<stop  offset="0" style="stop-color:#FFFFFF"/>
			<stop  offset="0.13" style="stop-color:#FFFFFB"/>
			<stop  offset="0.26" style="stop-color:#FFFFEE"/>
			<stop  offset="0.39" style="stop-color:#FFFFDA"/>
			<stop  offset="0.53" style="stop-color:#FFFFBD"/>
			<stop  offset="0.66" style="stop-color:#FFFF98"/>
			<stop  offset="0.7" style="stop-color:#FFFF8C"/>
			<stop  offset="1" style="stop-color:#FFC728"/>
		</radialGradient>
		<circle class="st52" cx="380.4" cy="722" r="8.4"/>
		
			<radialGradient id="SVGID_23_" cx="873.3983" cy="-315.4336" r="11.2" gradientTransform="matrix(0.7497 -1.058874e-03 -1.058874e-03 -0.7497 -205.1634 488.3026)" gradientUnits="userSpaceOnUse">
			<stop  offset="0" style="stop-color:#FFFFFF"/>
			<stop  offset="0.13" style="stop-color:#FFFFFB"/>
			<stop  offset="0.26" style="stop-color:#FFFFEE"/>
			<stop  offset="0.39" style="stop-color:#FFFFDA"/>
			<stop  offset="0.53" style="stop-color:#FFFFBD"/>
			<stop  offset="0.66" style="stop-color:#FFFF98"/>
			<stop  offset="0.7" style="stop-color:#FFFF8C"/>
			<stop  offset="1" style="stop-color:#FFC728"/>
		</radialGradient>
		<circle class="st53" cx="447.8" cy="722" r="8.4"/>
		
			<radialGradient id="SVGID_24_" cx="969.4995" cy="-302.4927" r="11.2" gradientTransform="matrix(0.7495 4.981380e-03 4.981380e-03 -0.7495 -212.9372 495.4991)" gradientUnits="userSpaceOnUse">
			<stop  offset="0" style="stop-color:#FFFFFF"/>
			<stop  offset="0.13" style="stop-color:#FFFFFB"/>
			<stop  offset="0.26" style="stop-color:#FFFFEE"/>
			<stop  offset="0.39" style="stop-color:#FFFFDA"/>
			<stop  offset="0.53" style="stop-color:#FFFFBD"/>
			<stop  offset="0.66" style="stop-color:#FFFF98"/>
			<stop  offset="0.7" style="stop-color:#FFFF8C"/>
			<stop  offset="1" style="stop-color:#FFC728"/>
		</radialGradient>
		<circle class="st54" cx="515.1" cy="722" r="8.4"/>
		
			<radialGradient id="SVGID_25_" cx="1053.9967" cy="-312.8333" r="11.2" gradientTransform="matrix(0.75 0 0 -0.75 -206.097 490.0208)" gradientUnits="userSpaceOnUse">
			<stop  offset="0" style="stop-color:#FFFFFF"/>
			<stop  offset="0.13" style="stop-color:#FFFFFB"/>
			<stop  offset="0.26" style="stop-color:#FFFFEE"/>
			<stop  offset="0.39" style="stop-color:#FFFFDA"/>
			<stop  offset="0.53" style="stop-color:#FFFFBD"/>
			<stop  offset="0.66" style="stop-color:#FFFF98"/>
			<stop  offset="0.7" style="stop-color:#FFFF8C"/>
			<stop  offset="1" style="stop-color:#FFC728"/>
		</radialGradient>
		<circle class="st55" cx="582.5" cy="722" r="8.4"/>
		
			<radialGradient id="SVGID_26_" cx="1138.7966" cy="-278.0233" r="11.2" gradientTransform="matrix(0.75 0 0 -0.75 -206.0133 490.0549)" gradientUnits="userSpaceOnUse">
			<stop  offset="0" style="stop-color:#FFFFFF"/>
			<stop  offset="0.13" style="stop-color:#FFFFFB"/>
			<stop  offset="0.26" style="stop-color:#FFFFEE"/>
			<stop  offset="0.39" style="stop-color:#FFFFDA"/>
			<stop  offset="0.53" style="stop-color:#FFFFBD"/>
			<stop  offset="0.66" style="stop-color:#FFFF98"/>
			<stop  offset="0.7" style="stop-color:#FFFF8C"/>
			<stop  offset="1" style="stop-color:#FFC728"/>
		</radialGradient>
		<circle class="st56" cx="645.8" cy="696" r="8.4"/>
		
			<radialGradient id="SVGID_27_" cx="1197.0566" cy="-234.5533" r="11.2" gradientTransform="matrix(0.75 0 0 -0.75 -206.1151 490.0165)" gradientUnits="userSpaceOnUse">
			<stop  offset="0" style="stop-color:#FFFFFF"/>
			<stop  offset="0.13" style="stop-color:#FFFFFB"/>
			<stop  offset="0.26" style="stop-color:#FFFFEE"/>
			<stop  offset="0.39" style="stop-color:#FFFFDA"/>
			<stop  offset="0.53" style="stop-color:#FFFFBD"/>
			<stop  offset="0.66" style="stop-color:#FFFF98"/>
			<stop  offset="0.7" style="stop-color:#FFFF8C"/>
			<stop  offset="1" style="stop-color:#FFC728"/>
		</radialGradient>
		<circle class="st57" cx="689.3" cy="663.5" r="8.4"/>
		
			<radialGradient id="SVGID_28_" cx="841.93" cy="7.84" r="11.2" gradientTransform="matrix(1 0 0 -1 0 742)" gradientUnits="userSpaceOnUse">
			<stop  offset="0" style="stop-color:#FFFFFF"/>
			<stop  offset="0.13" style="stop-color:#FFFFFB"/>
			<stop  offset="0.26" style="stop-color:#FFFFEE"/>
			<stop  offset="0.39" style="stop-color:#FFFFDA"/>
			<stop  offset="0.53" style="stop-color:#FFFFBD"/>
			<stop  offset="0.66" style="stop-color:#FFFF98"/>
			<stop  offset="0.7" style="stop-color:#FFFF8C"/>
			<stop  offset="1" style="stop-color:#FFC728"/>
		</radialGradient>
		<circle class="st58" cx="726.3" cy="614.2" r="8.4"/>
		
			<radialGradient id="SVGID_29_" cx="1279.7882" cy="-80.9336" r="11.2" gradientTransform="matrix(0.7497 -1.058874e-03 -1.058874e-03 -0.7497 -205.1802 488.3151)" gradientUnits="userSpaceOnUse">
			<stop  offset="0" style="stop-color:#FFFFFF"/>
			<stop  offset="0.13" style="stop-color:#FFFFFB"/>
			<stop  offset="0.26" style="stop-color:#FFFFEE"/>
			<stop  offset="0.39" style="stop-color:#FFFFDA"/>
			<stop  offset="0.53" style="stop-color:#FFFFBD"/>
			<stop  offset="0.66" style="stop-color:#FFFF98"/>
			<stop  offset="0.7" style="stop-color:#FFFF8C"/>
			<stop  offset="1" style="stop-color:#FFC728"/>
		</radialGradient>
		<circle class="st59" cx="751.3" cy="546.8" r="8.4"/>
		
			<radialGradient id="SVGID_30_" cx="1282.7368" cy="9.1466" r="11.2" gradientTransform="matrix(0.75 0 0 -0.75 -206.1621 490.0446)" gradientUnits="userSpaceOnUse">
			<stop  offset="0" style="stop-color:#FFFFFF"/>
			<stop  offset="0.13" style="stop-color:#FFFFFB"/>
			<stop  offset="0.26" style="stop-color:#FFFFEE"/>
			<stop  offset="0.39" style="stop-color:#FFFFDA"/>
			<stop  offset="0.53" style="stop-color:#FFFFBD"/>
			<stop  offset="0.66" style="stop-color:#FFFF98"/>
			<stop  offset="0.7" style="stop-color:#FFFF8C"/>
			<stop  offset="1" style="stop-color:#FFC728"/>
		</radialGradient>
		<circle class="st60" cx="753.3" cy="481.4" r="8.4"/>
		
			<radialGradient id="SVGID_31_" cx="855.32" cy="264.93" r="11.2" gradientTransform="matrix(1 0 0 -1 0 742)" gradientUnits="userSpaceOnUse">
			<stop  offset="0" style="stop-color:#FFFFFF"/>
			<stop  offset="0.13" style="stop-color:#FFFFFB"/>
			<stop  offset="0.26" style="stop-color:#FFFFEE"/>
			<stop  offset="0.39" style="stop-color:#FFFFDA"/>
			<stop  offset="0.53" style="stop-color:#FFFFBD"/>
			<stop  offset="0.66" style="stop-color:#FFFF98"/>
			<stop  offset="0.7" style="stop-color:#FFFF8C"/>
			<stop  offset="1" style="stop-color:#FFC728"/>
		</radialGradient>
		<circle class="st61" cx="736.3" cy="422.1" r="8.4"/>
		
			<radialGradient id="SVGID_32_" cx="813.84" cy="333.22" r="11.2" gradientTransform="matrix(1 0 0 -1 0 742)" gradientUnits="userSpaceOnUse">
			<stop  offset="0" style="stop-color:#FFFFFF"/>
			<stop  offset="0.13" style="stop-color:#FFFFFB"/>
			<stop  offset="0.26" style="stop-color:#FFFFEE"/>
			<stop  offset="0.39" style="stop-color:#FFFFDA"/>
			<stop  offset="0.53" style="stop-color:#FFFFBD"/>
			<stop  offset="0.66" style="stop-color:#FFFF98"/>
			<stop  offset="0.7" style="stop-color:#FFFF8C"/>
			<stop  offset="1" style="stop-color:#FFC728"/>
		</radialGradient>
		<circle class="st62" cx="705.3" cy="371.1" r="8.4"/>
		
			<radialGradient id="SVGID_33_" cx="751.79" cy="389.45" r="11.2" gradientTransform="matrix(1 0 0 -1 0 742)" gradientUnits="userSpaceOnUse">
			<stop  offset="0" style="stop-color:#FFFFFF"/>
			<stop  offset="0.13" style="stop-color:#FFFFFB"/>
			<stop  offset="0.26" style="stop-color:#FFFFEE"/>
			<stop  offset="0.39" style="stop-color:#FFFFDA"/>
			<stop  offset="0.53" style="stop-color:#FFFFBD"/>
			<stop  offset="0.66" style="stop-color:#FFFF98"/>
			<stop  offset="0.7" style="stop-color:#FFFF8C"/>
			<stop  offset="1" style="stop-color:#FFC728"/>
		</radialGradient>
		<circle class="st63" cx="659" cy="329.1" r="8.4"/>
		
			<radialGradient id="SVGID_34_" cx="661.63" cy="428.27" r="11.2" gradientTransform="matrix(1 0 0 -1 0 742)" gradientUnits="userSpaceOnUse">
			<stop  offset="0" style="stop-color:#FFFFFF"/>
			<stop  offset="0.13" style="stop-color:#FFFFFB"/>
			<stop  offset="0.26" style="stop-color:#FFFFEE"/>
			<stop  offset="0.39" style="stop-color:#FFFFDA"/>
			<stop  offset="0.53" style="stop-color:#FFFFBD"/>
			<stop  offset="0.66" style="stop-color:#FFFF98"/>
			<stop  offset="0.7" style="stop-color:#FFFF8C"/>
			<stop  offset="1" style="stop-color:#FFC728"/>
		</radialGradient>
		<circle class="st64" cx="591.6" cy="300.1" r="8.4"/>
		
			<radialGradient id="SVGID_35_" cx="571.47" cy="434.97" r="11.2" gradientTransform="matrix(1 0 0 -1 0 742)" gradientUnits="userSpaceOnUse">
			<stop  offset="0" style="stop-color:#FFFFFF"/>
			<stop  offset="0.13" style="stop-color:#FFFFFB"/>
			<stop  offset="0.26" style="stop-color:#FFFFEE"/>
			<stop  offset="0.39" style="stop-color:#FFFFDA"/>
			<stop  offset="0.53" style="stop-color:#FFFFBD"/>
			<stop  offset="0.66" style="stop-color:#FFFF98"/>
			<stop  offset="0.7" style="stop-color:#FFFF8C"/>
			<stop  offset="1" style="stop-color:#FFC728"/>
		</radialGradient>
		<circle class="st65" cx="524.3" cy="295.1" r="8.4"/>
		
			<radialGradient id="SVGID_36_" cx="885.9767" cy="258.6367" r="11.2" gradientTransform="matrix(0.75 0 0 -0.75 -206.08 490.04)" gradientUnits="userSpaceOnUse">
			<stop  offset="0" style="stop-color:#FFFFFF"/>
			<stop  offset="0.13" style="stop-color:#FFFFFB"/>
			<stop  offset="0.26" style="stop-color:#FFFFEE"/>
			<stop  offset="0.39" style="stop-color:#FFFFDA"/>
			<stop  offset="0.53" style="stop-color:#FFFFBD"/>
			<stop  offset="0.66" style="stop-color:#FFFF98"/>
			<stop  offset="0.7" style="stop-color:#FFFF8C"/>
			<stop  offset="1" style="stop-color:#FFC728"/>
		</radialGradient>
		<circle class="st66" cx="456.9" cy="295.1" r="8.4"/>
	</g>
</g>
</svg>
