<?xml version="1.0" encoding="utf-8"?>
<!-- Generator: Adobe Illustrator 25.2.3, SVG Export Plug-In . SVG Version: 6.00 Build 0)  -->
<svg version="1.1" id="Layer_1" xmlns="http://www.w3.org/2000/svg" xmlns:xlink="http://www.w3.org/1999/xlink" x="0px" y="0px"
	 viewBox="0 0 780 770" style="enable-background:new 0 0 780 770;" xml:space="preserve">
<style type="text/css">
	.st0{fill:#7C5438;}
	.st1{opacity:0.5;}
	.st2{fill:#CE9F38;}
	.st3{fill:#E5AE41;}
	.st4{opacity:0.5;fill:#CE9F38;enable-background:new    ;}
	.st5{opacity:0.4;fill:#CE9F38;enable-background:new    ;}
	.st6{fill:#FFE3C7;}
	.st7{fill:url(#SVGID_1_);}
	.st8{fill:#C77B4B;}
	.st9{fill:#F0D9AA;}
	.st10{clip-path:url(#SVGID_3_);}
	.st11{clip-path:url(#SVGID_5_);}
	.st12{fill:#2BA1DB;}
	.st13{fill:url(#Cloud_1_);}
	.st14{fill:#0571AD;}
	.st15{opacity:6.000000e-02;}
	.st16{opacity:6.000000e-02;enable-background:new    ;}
	.st17{fill:#E7F1F7;}
	.st18{fill:#82BBDD;}
	.st19{fill:#1E82B6;}
	.st20{fill:#DEE3E9;}
	.st21{fill:#9DBDDC;}
	.st22{fill:#84A2BF;}
	.st23{fill:#6C8AA5;}
	.st24{fill:#CAD7E9;}
	.st25{fill:#AED2EF;}
	.st26{fill:#9CB5CF;}
	.st27{fill:#0C597F;}
	.st28{fill:#206285;}
	.st29{fill:#E8F1F6;}
	.st30{fill:#0E5176;}
	.st31{fill:#5C94B9;}
	.st32{fill:#2880A5;}
	.st33{fill:#81B8E4;}
	.st34{fill:#96CBE8;}
	.st35{opacity:0.1;enable-background:new    ;}
	.st36{fill:url(#SVGID_6_);}
	.st37{fill:url(#SVGID_7_);}
	.st38{fill:url(#SVGID_8_);}
	.st39{fill:url(#SVGID_9_);}
	.st40{fill:url(#SVGID_10_);}
	.st41{fill:url(#SVGID_11_);}
	.st42{fill:url(#SVGID_12_);}
	.st43{fill:url(#SVGID_13_);}
	.st44{fill:url(#SVGID_14_);}
	.st45{fill:url(#SVGID_15_);}
	.st46{fill:url(#SVGID_16_);}
	.st47{fill:url(#SVGID_17_);}
	.st48{fill:url(#SVGID_18_);}
	.st49{fill:url(#SVGID_19_);}
	.st50{fill:url(#SVGID_20_);}
	.st51{fill:url(#SVGID_21_);}
	.st52{fill:url(#SVGID_22_);}
	.st53{fill:url(#SVGID_23_);}
	.st54{fill:url(#SVGID_24_);}
	.st55{fill:url(#SVGID_25_);}
	.st56{fill:url(#SVGID_26_);}
	.st57{fill:url(#SVGID_27_);}
	.st58{fill:url(#SVGID_28_);}
	.st59{fill:url(#SVGID_29_);}
	.st60{fill:url(#SVGID_30_);}
	.st61{fill:url(#SVGID_31_);}
	.st62{fill:url(#SVGID_32_);}
	.st63{fill:url(#SVGID_33_);}
	.st64{fill:url(#SVGID_34_);}
	.st65{fill:url(#SVGID_35_);}
	.st66{fill:url(#SVGID_36_);}
	.st67{fill:url(#SVGID_37_);}
	.st68{fill:url(#SVGID_38_);}
	.st69{fill:url(#SVGID_39_);}
	.st70{fill:url(#SVGID_40_);}
</style>
<g>
	<g>
		<g>
			<g>
				<g>
					<path class="st0" d="M649.2,297.3c-9.9,0-17.9-8-17.9-17.8s8-17.9,17.8-17.9c9.9,0,17.9,8,17.9,17.8c0,0,0,0,0,0
						C667,289.3,659,297.3,649.2,297.3z M649.2,267.3c-6.7,0-12.1,5.4-12.1,12.1s5.4,12.1,12.1,12.1s12.1-5.4,12.1-12.1c0,0,0,0,0,0
						C661.2,272.8,655.8,267.4,649.2,267.3L649.2,267.3z"/>
					<g class="st1">
						<path class="st2" d="M649.3,295.4c-8.9,0-16.1-7.2-16.1-16.1c0-8.9,7.2-16.1,16.1-16.1c8.9,0,16.1,7.2,16.1,16.1c0,0,0,0,0,0
							C665.5,288.2,658.2,295.4,649.3,295.4z M649.3,265.1c-7.9,0-14.2,6.4-14.2,14.2s6.4,14.2,14.2,14.2c7.9,0,14.2-6.4,14.2-14.2
							c0,0,0,0,0,0C663.5,271.4,657.2,265.1,649.3,265.1z"/>
					</g>
					<path class="st3" d="M642.7,265.7c-0.8-0.2-1.7-0.1-2.5,0.4l-1,0.6c-1.4,2.2-3.6,3.6-4.8,6.1c-0.6,1.3-1,2.8-1.2,4.2
						c-0.2,1.6,0.2,3.7,1.6,1.7s1.3-5.6,2.8-7.8C638.8,269.3,643,267.4,642.7,265.7z"/>
					<path class="st3" d="M664.3,281.3c-1.4-0.3-2.5,5.8-3.6,7.2c-2.1,2.7-4.4,3.6-7.4,4.4l-0.6,0.2c-1.5,0-1.3,1.1,0,1.3
						c1-0.1,1.9-0.4,2.8-0.8c1.7-0.7,3.2-1.7,4.5-3C662.2,288.6,665.6,284.6,664.3,281.3z"/>
				</g>
				<rect x="645.6" y="296.5" class="st0" width="7.1" height="13.9"/>
				<polygon class="st4" points="646.6,298.3 646.7,309.9 649.6,310.4 649.1,299.9 				"/>
			</g>
			<g>
				<g>
					<path class="st0" d="M648.1,255.2c-8.8,0-15.9-7.1-15.9-15.9s7.1-15.9,15.9-15.9s15.9,7.1,15.9,15.9
						C664,248.1,656.9,255.2,648.1,255.2z M648.1,228.5c-6,0-10.8,4.8-10.8,10.8c0,6,4.8,10.8,10.8,10.8c6,0,10.8-4.8,10.8-10.8
						c0,0,0,0,0,0C658.9,233.4,654.1,228.5,648.1,228.5L648.1,228.5z"/>
					<g class="st1">
						<path class="st2" d="M648.3,253.5c-7.9,0-14.4-6.4-14.4-14.4s6.4-14.4,14.4-14.4c7.9,0,14.4,6.4,14.4,14.4c0,0,0,0,0,0
							C662.6,247.1,656.2,253.5,648.3,253.5z M648.3,226.5c-7,0-12.6,5.7-12.6,12.7c0,7,5.7,12.6,12.7,12.6c7,0,12.6-5.7,12.6-12.7
							C661,232.2,655.3,226.5,648.3,226.5C648.3,226.5,648.3,226.5,648.3,226.5L648.3,226.5z"/>
					</g>
					<path class="st3" d="M642.4,227c-0.7-0.2-1.5-0.1-2.2,0.3l-0.8,0.5c-1.3,1.9-3.2,3.2-4.3,5.4c-0.5,1.2-0.9,2.5-1,3.8
						c-0.2,1.4,0.1,3.3,1.4,1.5s1.1-4.9,2.5-7C638.8,230.3,642.7,228.5,642.4,227z"/>
					<path class="st3" d="M661.6,241c-1.3-0.3-2.2,5.1-3.2,6.4c-1.9,2.4-3.9,3.2-6.6,3.9l-0.5,0.2c-1.3,0.1-1.2,1,0,1.2
						c0.9-0.1,1.7-0.3,2.5-0.7c1.5-0.6,2.8-1.5,4-2.6C659.7,247.5,662.8,243.9,661.6,241z"/>
				</g>
				<path class="st0" d="M652.6,269.9c0,1.4-1.6,2.6-3.5,2.6l0,0c-2,0-3.5-1.2-3.5-2.6v-22.1c0-1.4,1.6-2.6,3.5-2.6l0,0
					c2,0,3.5,1.2,3.5,2.6V269.9z"/>
				<path class="st5" d="M650.6,263.3c-0.1,1-1,1.8-2,1.8l0,0c-1,0.1-1.9-0.7-2-1.8v-15.1c0.1-1,1-1.8,2-1.8l0,0
					c1-0.1,1.9,0.7,2,1.8V263.3z"/>
				<path class="st3" d="M648.5,254.6c-0.3-2.1,0.7-4,0.4-6c-0.3-0.1-0.6-0.2-0.9-0.3h-0.1c-1.3,1.3-0.2,4.4-0.3,6.1
					c0,0.9-1.1,5.4,0.5,5.3S648.6,255.4,648.5,254.6z"/>
			</g>
			<g>
				<g>
					<path class="st0" d="M648.3,212.1c-8.8,0-15.9-7.1-15.9-15.9s7.1-15.9,15.9-15.9s15.9,7.1,15.9,15.9c0,0,0,0,0,0
						C664.2,205,657.1,212.1,648.3,212.1z M648.3,185.4c-6,0-10.8,4.8-10.8,10.8s4.8,10.8,10.8,10.8c6,0,10.8-4.8,10.8-10.8
						c0,0,0,0,0,0C659.1,190.2,654.2,185.4,648.3,185.4z"/>
					<g class="st1">
						<path class="st2" d="M648.5,210.4c-7.9,0-14.4-6.4-14.4-14.4s6.4-14.4,14.4-14.4c7.9,0,14.4,6.4,14.4,14.4c0,0,0,0,0,0
							C662.8,203.9,656.4,210.4,648.5,210.4z M648.5,183.4c-7,0-12.7,5.7-12.7,12.7c0,7,5.7,12.7,12.7,12.7c7,0,12.7-5.7,12.7-12.7
							c0,0,0,0,0,0C661.1,189,655.4,183.3,648.5,183.4L648.5,183.4z"/>
					</g>
					<path class="st3" d="M642.6,183.9c-0.7-0.2-1.5-0.1-2.2,0.3l-0.8,0.5c-1.3,2-3.2,3.2-4.3,5.4c-0.5,1.2-0.9,2.5-1,3.7
						c-0.2,1.4,0.1,3.3,1.4,1.5s1.1-4.9,2.5-7C639,187.1,642.8,185.4,642.6,183.9z"/>
					<path class="st3" d="M661.8,197.8c-1.3-0.3-2.2,5.1-3.2,6.4c-1.9,2.4-3.9,3.2-6.6,3.9l-0.5,0.2c-1.3,0-1.2,1,0,1.2
						c0.9-0.1,1.7-0.3,2.5-0.7c1.5-0.6,2.8-1.5,4-2.6C659.9,204.3,662.9,200.8,661.8,197.8z"/>
				</g>
				<path class="st0" d="M652.6,230.2c0,1.4-1.6,2.6-3.5,2.6l0,0c-2,0-3.5-1.2-3.5-2.6v-22.1c0-1.4,1.6-2.6,3.5-2.6l0,0
					c2,0,3.5,1.2,3.5,2.6V230.2z"/>
				<path class="st5" d="M650.6,223.5c-0.1,1-1,1.8-2,1.8l0,0c-1,0.1-1.9-0.7-2-1.8v-15.1c0.1-1,1-1.8,2-1.8l0,0
					c1-0.1,1.9,0.7,2,1.8V223.5z"/>
				<path class="st3" d="M648.5,214.9c-0.3-2.1,0.7-4,0.4-6c-0.3-0.1-0.6-0.2-0.9-0.3h-0.1c-1.3,1.3-0.2,4.4-0.3,6.1
					c0,0.9-1.1,5.4,0.5,5.4S648.6,215.7,648.5,214.9z"/>
			</g>
			<g>
				<g>
					<path class="st0" d="M648.3,167.5c-8.8,0-15.9-7.1-15.9-15.9s7.1-15.9,15.9-15.9s15.9,7.1,15.9,15.9
						C664.2,160.4,657.1,167.5,648.3,167.5z M648.3,140.8c-6,0-10.8,4.8-10.8,10.8c0,6,4.8,10.8,10.8,10.8c6,0,10.8-4.8,10.8-10.8
						c0,0,0,0,0,0C659.1,145.6,654.2,140.8,648.3,140.8z"/>
					<g class="st1">
						<path class="st2" d="M648.5,165.8c-7.9,0-14.4-6.4-14.4-14.4s6.4-14.4,14.4-14.4c7.9,0,14.4,6.4,14.4,14.4c0,0,0,0,0,0
							C662.8,159.4,656.4,165.8,648.5,165.8z M648.5,138.8c-7,0-12.7,5.7-12.7,12.7c0,7,5.7,12.7,12.7,12.7c7,0,12.7-5.7,12.7-12.7
							v0C661.1,144.5,655.5,138.8,648.5,138.8C648.5,138.8,648.5,138.8,648.5,138.8L648.5,138.8z"/>
					</g>
					<path class="st3" d="M642.6,139.3c-0.7-0.2-1.5,0-2.2,0.3l-0.8,0.5c-1.3,2-3.2,3.2-4.3,5.4c-0.5,1.2-0.9,2.5-1,3.8
						c-0.2,1.4,0.1,3.3,1.4,1.5s1.1-5,2.5-7C639,142.6,642.8,140.8,642.6,139.3z"/>
					<path class="st3" d="M661.8,153.3c-1.3-0.3-2.2,5.1-3.2,6.4c-1.9,2.4-3.9,3.2-6.6,3.9l-0.5,0.2c-1.3,0-1.2,1,0,1.2
						c0.9-0.1,1.7-0.3,2.5-0.7c1.5-0.6,2.8-1.5,4-2.6C659.9,159.8,662.9,156.2,661.8,153.3z"/>
				</g>
				<path class="st0" d="M652.6,185.6c0,1.4-1.6,2.6-3.5,2.6l0,0c-2,0-3.5-1.2-3.5-2.6v-22.1c0-1.4,1.6-2.6,3.5-2.6l0,0
					c2,0,3.5,1.2,3.5,2.6V185.6z"/>
				<path class="st5" d="M650.6,179c-0.1,1-1,1.8-2,1.8l0,0c-1,0.1-1.9-0.7-2-1.8v-15.1c0.1-1,1-1.8,2-1.8l0,0c1-0.1,1.9,0.7,2,1.8
					V179z"/>
				<path class="st3" d="M648.5,170.3c-0.3-2.1,0.7-4,0.4-6c-0.3-0.1-0.6-0.2-0.9-0.3h-0.1c-1.3,1.3-0.2,4.4-0.3,6.1
					c0,0.9-1.1,5.4,0.5,5.4S648.6,171.1,648.5,170.3z"/>
			</g>
			<g>
				<g>
					<path class="st0" d="M648.3,122.6c-8.8,0-15.9-7.1-15.9-15.9s7.1-15.9,15.9-15.9c8.8,0,15.9,7.1,15.9,15.9
						C664.2,115.4,657.1,122.5,648.3,122.6z M648.3,95.9c-6,0-10.8,4.8-10.8,10.8c0,6,4.8,10.8,10.8,10.8c6,0,10.8-4.8,10.8-10.8v0
						C659.1,100.7,654.2,95.9,648.3,95.9z"/>
					<g class="st1">
						<path class="st2" d="M648.5,120.8c-7.9,0-14.4-6.4-14.4-14.4s6.4-14.4,14.4-14.4c7.9,0,14.4,6.4,14.4,14.4l0,0
							C662.8,114.4,656.4,120.8,648.5,120.8z M648.5,93.8c-7,0-12.7,5.7-12.7,12.7c0,7,5.7,12.7,12.7,12.7c7,0,12.7-5.7,12.7-12.7
							c0,0,0,0,0,0C661.1,99.5,655.5,93.8,648.5,93.8C648.5,93.8,648.5,93.8,648.5,93.8L648.5,93.8z"/>
					</g>
					<path class="st3" d="M642.6,94.3c-0.7-0.2-1.5,0-2.2,0.3l-0.8,0.5c-1.3,2-3.2,3.2-4.3,5.4c-0.5,1.2-0.9,2.5-1,3.8
						c-0.2,1.4,0.1,3.3,1.4,1.5s1.1-4.9,2.5-7C639,97.6,642.8,95.8,642.6,94.3z"/>
					<path class="st3" d="M661.8,108.3c-1.3-0.3-2.2,5.2-3.2,6.4c-1.9,2.4-3.9,3.2-6.6,3.9l-0.5,0.2c-1.3,0-1.2,1,0,1.2
						c0.9-0.1,1.7-0.3,2.5-0.7c1.5-0.6,2.8-1.5,4-2.6C659.9,114.8,662.9,111.3,661.8,108.3z"/>
				</g>
				<path class="st0" d="M652.6,140.6c0,1.4-1.6,2.6-3.5,2.6l0,0c-2,0-3.5-1.2-3.5-2.6v-22c0-1.4,1.6-2.6,3.5-2.6l0,0
					c2,0,3.5,1.2,3.5,2.6V140.6z"/>
				<path class="st5" d="M650.6,134c-0.1,1-1,1.8-2,1.8l0,0c-1,0.1-1.9-0.7-2-1.8v-15.1c0.1-1,1-1.8,2-1.8l0,0c1-0.1,1.9,0.7,2,1.8
					V134z"/>
				<path class="st3" d="M648.5,125.3c-0.3-2.1,0.7-4,0.4-6c-0.3-0.1-0.6-0.2-0.9-0.3h-0.1c-1.3,1.3-0.2,4.4-0.3,6.1
					c0,0.9-1.1,5.4,0.5,5.4S648.6,126.2,648.5,125.3z"/>
			</g>
			<g>
				<g>
					<path class="st0" d="M648.3,77.8c-8.8,0-15.9-7.1-15.9-15.9S639.5,46,648.3,46s15.9,7.1,15.9,15.9
						C664.2,70.7,657.1,77.8,648.3,77.8z M648.3,51.1c-6,0-10.8,4.8-10.8,10.8c0,6,4.8,10.8,10.8,10.8c6,0,10.8-4.8,10.8-10.8
						c0,0,0,0,0,0C659.1,56,654.2,51.1,648.3,51.1z"/>
					<g class="st1">
						<path class="st2" d="M648.5,76.1c-7.9,0-14.4-6.4-14.4-14.4s6.4-14.4,14.4-14.4c7.9,0,14.4,6.4,14.4,14.4c0,0,0,0,0,0
							C662.8,69.7,656.4,76.1,648.5,76.1z M648.5,49.1c-7,0-12.7,5.7-12.7,12.7c0,7,5.7,12.7,12.7,12.7c7,0,12.7-5.7,12.7-12.7
							c0,0,0,0,0,0C661.1,54.8,655.5,49.1,648.5,49.1C648.5,49.1,648.5,49.1,648.5,49.1L648.5,49.1z"/>
					</g>
					<path class="st3" d="M642.6,49.6c-0.7-0.2-1.5,0-2.2,0.3l-0.8,0.5c-1.3,2-3.2,3.2-4.3,5.4c-0.5,1.2-0.9,2.5-1,3.8
						c-0.2,1.4,0.1,3.3,1.4,1.5s1.1-5,2.5-7C639,52.9,642.8,51.1,642.6,49.6z"/>
					<path class="st3" d="M661.8,63.6c-1.3-0.3-2.2,5.2-3.2,6.4c-1.9,2.4-3.9,3.2-6.6,3.9l-0.5,0.2c-1.3,0.1-1.2,1,0,1.2
						c0.9-0.1,1.7-0.3,2.5-0.7c1.5-0.6,2.8-1.5,4-2.6C659.9,70.1,662.9,66.5,661.8,63.6z"/>
				</g>
				<path class="st0" d="M652.6,95.9c0,1.4-1.6,2.6-3.5,2.6l0,0c-2,0-3.5-1.2-3.5-2.6v-22c0-1.4,1.6-2.6,3.5-2.6l0,0
					c2,0,3.5,1.2,3.5,2.6V95.9z"/>
				<path class="st5" d="M650.6,89.3c-0.1,1-1,1.8-2,1.8l0,0c-1,0.1-1.9-0.7-2-1.8V74.2c0.1-1,1-1.8,2-1.8l0,0c1-0.1,1.9,0.7,2,1.8
					V89.3z"/>
				<path class="st3" d="M648.5,80.6c-0.3-2.1,0.7-4,0.4-6c-0.3-0.1-0.6-0.2-0.9-0.3h-0.1c-1.3,1.3-0.2,4.4-0.3,6.1
					c0,0.9-1.1,5.3,0.5,5.3S648.6,81.5,648.5,80.6z"/>
			</g>
			<g>
				<g>
					<path class="st0" d="M648.3,35.4c-8.8,0-15.9-7.1-15.9-15.9s7.1-15.9,15.9-15.9s15.9,7.1,15.9,15.9
						C664.2,28.3,657.1,35.4,648.3,35.4z M648.3,8.7c-6,0-10.8,4.8-10.8,10.8c0,6,4.8,10.8,10.8,10.8c6,0,10.8-4.8,10.8-10.8
						c0,0,0,0,0,0C659.1,13.6,654.2,8.7,648.3,8.7z"/>
					<g class="st1">
						<path class="st2" d="M648.5,33.7c-7.9,0-14.4-6.4-14.4-14.4S640.5,5,648.5,5c7.9,0,14.4,6.4,14.4,14.4c0,0,0,0,0,0
							C662.8,27.3,656.4,33.7,648.5,33.7z M648.5,6.7c-7,0-12.7,5.7-12.7,12.7c0,7,5.7,12.7,12.7,12.7c7,0,12.7-5.7,12.7-12.7
							c0,0,0,0,0,0C661.1,12.4,655.5,6.7,648.5,6.7C648.5,6.7,648.5,6.7,648.5,6.7L648.5,6.7z"/>
					</g>
					<path class="st3" d="M642.6,7.2c-0.7-0.2-1.5-0.1-2.2,0.3L639.5,8c-1.3,2-3.2,3.2-4.3,5.4c-0.5,1.2-0.9,2.5-1,3.8
						c-0.2,1.4,0.1,3.3,1.4,1.5s1.1-4.9,2.5-7C639,10.5,642.8,8.7,642.6,7.2z"/>
					<path class="st3" d="M661.8,21.2c-1.3-0.3-2.2,5.1-3.2,6.4c-1.9,2.4-3.9,3.2-6.6,3.9l-0.5,0.2c-1.3,0-1.2,1,0,1.2
						c0.9-0.1,1.7-0.3,2.5-0.7c1.5-0.6,2.8-1.5,4-2.6C659.9,27.7,662.9,24.1,661.8,21.2z"/>
				</g>
				<path class="st0" d="M652.6,53.5c0,1.4-1.6,2.6-3.5,2.6l0,0c-2,0-3.5-1.2-3.5-2.6V31.5c0-1.4,1.6-2.6,3.5-2.6l0,0
					c2,0,3.5,1.2,3.5,2.6V53.5z"/>
				<path class="st5" d="M650.6,46.9c-0.1,1-1,1.8-2,1.8l0,0c-1,0.1-1.9-0.7-2-1.8V31.8c0.1-1,1-1.8,2-1.8l0,0c1-0.1,1.9,0.7,2,1.8
					V46.9z"/>
				<path class="st3" d="M648.5,38.2c-0.3-2.1,0.7-4,0.4-6c-0.3-0.1-0.5-0.2-0.8-0.2h-0.1c-1.3,1.3-0.2,4.4-0.3,6.1
					c0,0.9-1.1,5.3,0.5,5.3S648.6,39,648.5,38.2z"/>
			</g>
		</g>
		<g>
			<g>
				<g>
					<path class="st0" d="M130.8,297.3c-9.9,0-17.9-8-17.9-17.8s8-17.9,17.8-17.9c9.9,0,17.9,8,17.9,17.8c0,0,0,0,0,0
						C148.7,289.3,140.7,297.3,130.8,297.3z M130.8,267.3c-6.7,0-12.1,5.5-12.1,12.2c0,6.7,5.5,12.1,12.2,12.1
						c6.7,0,12.1-5.4,12.1-12.1C143,272.8,137.6,267.4,130.8,267.3C130.9,267.4,130.9,267.4,130.8,267.3L130.8,267.3z"/>
					<g class="st1">
						<path class="st2" d="M131,295.4c-8.9,0-16.1-7.2-16.1-16.1c0-8.9,7.2-16.1,16.1-16.1c8.9,0,16.1,7.2,16.1,16.1
							C147.1,288.2,139.9,295.4,131,295.4z M131,265.1c-7.9,0-14.2,6.4-14.2,14.2c0,7.9,6.4,14.2,14.2,14.2s14.2-6.4,14.2-14.2
							c0,0,0,0,0,0C145.2,271.4,138.8,265.1,131,265.1z"/>
					</g>
					<path class="st3" d="M124.4,265.7c-0.8-0.2-1.7-0.1-2.4,0.3l-1,0.6c-1.4,2.2-3.6,3.6-4.8,6.1c-0.6,1.3-1,2.7-1.2,4.2
						c-0.2,1.6,0.1,3.7,1.6,1.7s1.3-5.6,2.8-7.8C120.4,269.3,124.7,267.4,124.4,265.7z"/>
					<path class="st3" d="M146,281.3c-1.4-0.3-2.5,5.8-3.6,7.2c-2.1,2.7-4.4,3.6-7.4,4.4l-0.6,0.2c-1.5,0-1.3,1.1,0,1.3
						c1-0.1,1.9-0.4,2.8-0.8c1.7-0.7,3.2-1.7,4.5-3C143.9,288.6,147.3,284.6,146,281.3z"/>
				</g>
				<rect x="127.3" y="296.5" class="st0" width="7.1" height="13.9"/>
				<polygon class="st4" points="128.3,298.3 128.4,309.9 131.3,310.4 130.8,299.9 				"/>
			</g>
			<g>
				<g>
					<path class="st0" d="M129.8,255.2c-8.8,0-15.9-7.1-15.9-15.9c0-8.8,7.1-15.9,15.9-15.9s15.9,7.1,15.9,15.9c0,0,0,0,0,0
						C145.7,248.1,138.6,255.2,129.8,255.2z M129.8,228.5c-6,0-10.8,4.8-10.8,10.8s4.8,10.8,10.8,10.8s10.8-4.8,10.8-10.8
						C140.6,233.4,135.8,228.6,129.8,228.5L129.8,228.5z"/>
					<g class="st1">
						<path class="st2" d="M130,253.5c-7.9,0-14.4-6.4-14.4-14.4c0-7.9,6.4-14.4,14.4-14.4c7.9,0,14.4,6.4,14.4,14.4c0,0,0,0,0,0
							C144.4,247.1,137.9,253.5,130,253.5z M130,226.5c-7,0-12.7,5.7-12.7,12.7s5.7,12.7,12.7,12.7s12.7-5.7,12.7-12.7l0,0
							C142.7,232.2,137,226.5,130,226.5L130,226.5L130,226.5z"/>
					</g>
					<path class="st3" d="M124.1,227c-0.7-0.2-1.5-0.1-2.2,0.3l-0.8,0.5c-1.3,1.9-3.2,3.2-4.3,5.4c-0.5,1.2-0.9,2.5-1,3.8
						c-0.2,1.4,0.1,3.3,1.4,1.5s1.1-4.9,2.5-7C120.5,230.3,124.3,228.5,124.1,227z"/>
					<path class="st3" d="M143.3,241c-1.3-0.3-2.2,5.1-3.2,6.4c-1.9,2.4-3.9,3.2-6.6,3.9l-0.5,0.2c-1.4,0.1-1.2,1,0,1.2
						c0.9-0.1,1.7-0.3,2.5-0.7c1.5-0.6,2.8-1.5,4-2.6C141.4,247.5,144.4,243.9,143.3,241z"/>
				</g>
				<path class="st0" d="M134.3,269.9c0,1.4-1.6,2.6-3.5,2.6l0,0c-2,0-3.5-1.2-3.5-2.6v-22.1c0-1.4,1.6-2.6,3.5-2.6l0,0
					c1.9,0,3.5,1.2,3.5,2.6V269.9z"/>
				<path class="st5" d="M132.3,263.3c-0.1,1-1,1.8-2,1.8l0,0c-1,0.1-1.9-0.7-2-1.8v-15.1c0.1-1,1-1.8,2-1.8l0,0
					c1-0.1,1.9,0.7,2,1.8V263.3z"/>
				<path class="st3" d="M130.2,254.6c-0.3-2.1,0.7-4,0.4-6c-0.3-0.1-0.6-0.2-0.9-0.3h-0.1c-1.3,1.3-0.2,4.4-0.3,6.1
					c0,0.9-1.1,5.4,0.5,5.3S130.3,255.4,130.2,254.6z"/>
			</g>
			<g>
				<g>
					<path class="st0" d="M130,212.1c-8.8,0-15.9-7.1-15.9-15.9c0-8.8,7.1-15.9,15.9-15.9s15.9,7.1,15.9,15.9c0,0,0,0,0,0
						C145.9,204.9,138.8,212.1,130,212.1z M130,185.4c-6,0-10.8,4.8-10.8,10.8c0,6,4.8,10.8,10.8,10.8c6,0,10.8-4.8,10.8-10.8
						c0,0,0,0,0,0C140.8,190.2,136,185.4,130,185.4z"/>
					<g class="st1">
						<path class="st2" d="M130.1,210.4c-7.9,0-14.4-6.4-14.4-14.4c0-7.9,6.4-14.4,14.4-14.4c7.9,0,14.4,6.4,14.4,14.4c0,0,0,0,0,0
							C144.5,203.9,138.1,210.4,130.1,210.4z M130.1,183.4c-7,0-12.7,5.7-12.7,12.7c0,7,5.7,12.7,12.7,12.7c7,0,12.7-5.7,12.7-12.7
							c0,0,0,0,0,0C142.8,189,137.1,183.3,130.1,183.4L130.1,183.4z"/>
					</g>
					<path class="st3" d="M124.2,183.9c-0.7-0.2-1.5-0.1-2.2,0.3l-0.8,0.5c-1.3,2-3.2,3.2-4.3,5.4c-0.5,1.2-0.9,2.5-1,3.7
						c-0.2,1.4,0.1,3.3,1.4,1.5s1.1-4.9,2.5-7C120.7,187.1,124.5,185.4,124.2,183.9z"/>
					<path class="st3" d="M143.4,197.8c-1.3-0.3-2.2,5.1-3.2,6.4c-1.9,2.4-3.9,3.2-6.6,3.9l-0.5,0.2c-1.4,0-1.2,1,0,1.2
						c0.9-0.1,1.7-0.3,2.5-0.7c1.5-0.6,2.8-1.5,4-2.6C141.6,204.3,144.6,200.8,143.4,197.8z"/>
				</g>
				<path class="st0" d="M134.3,230.2c0,1.4-1.6,2.6-3.5,2.6l0,0c-1.9,0-3.5-1.2-3.5-2.6v-22.1c0-1.4,1.6-2.6,3.5-2.6l0,0
					c1.9,0,3.5,1.2,3.5,2.6V230.2z"/>
				<path class="st5" d="M132.3,223.5c-0.1,1-1,1.8-2,1.8l0,0c-1,0.1-1.9-0.7-2-1.8v-15.1c0.1-1,1-1.8,2-1.8l0,0
					c1-0.1,1.9,0.7,2,1.8V223.5z"/>
				<path class="st3" d="M130.1,214.9c-0.3-2.1,0.7-4,0.4-6c-0.3-0.1-0.6-0.2-0.9-0.3h-0.1c-1.3,1.3-0.2,4.4-0.3,6.1
					c0,0.9-1.1,5.4,0.5,5.4S130.3,215.7,130.1,214.9z"/>
			</g>
			<g>
				<g>
					<path class="st0" d="M130,167.5c-8.8,0-15.9-7.1-15.9-15.9c0-8.8,7.1-15.9,15.9-15.9s15.9,7.1,15.9,15.9c0,0,0,0,0,0
						C145.9,160.4,138.8,167.5,130,167.5z M130,140.8c-6,0-10.8,4.8-10.8,10.8s4.8,10.8,10.8,10.8s10.8-4.8,10.8-10.8
						C140.8,145.6,136,140.8,130,140.8z"/>
					<g class="st1">
						<path class="st2" d="M130.1,165.8c-7.9,0-14.4-6.4-14.4-14.4c0-7.9,6.4-14.4,14.4-14.4c7.9,0,14.4,6.4,14.4,14.4c0,0,0,0,0,0
							C144.5,159.4,138.1,165.8,130.1,165.8z M130.1,138.8c-7,0-12.7,5.7-12.7,12.7s5.7,12.7,12.7,12.7s12.7-5.7,12.7-12.7l0,0
							C142.8,144.5,137.1,138.8,130.1,138.8L130.1,138.8L130.1,138.8z"/>
					</g>
					<path class="st3" d="M124.2,139.3c-0.7-0.2-1.5,0-2.2,0.3l-0.8,0.5c-1.3,2-3.2,3.2-4.3,5.4c-0.5,1.2-0.9,2.5-1,3.8
						c-0.2,1.4,0.1,3.3,1.4,1.5s1.1-5,2.5-7C120.7,142.6,124.5,140.8,124.2,139.3z"/>
					<path class="st3" d="M143.4,153.3c-1.3-0.3-2.2,5.1-3.2,6.4c-1.9,2.4-3.9,3.2-6.6,3.9l-0.5,0.2c-1.4,0-1.2,1,0,1.2
						c0.9-0.1,1.7-0.3,2.5-0.7c1.5-0.6,2.8-1.5,4-2.6C141.6,159.8,144.6,156.2,143.4,153.3z"/>
				</g>
				<path class="st0" d="M134.3,185.6c0,1.4-1.6,2.6-3.5,2.6l0,0c-1.9,0-3.5-1.2-3.5-2.6v-22.1c0-1.4,1.6-2.6,3.5-2.6l0,0
					c1.9,0,3.5,1.2,3.5,2.6V185.6z"/>
				<path class="st5" d="M132.3,179c-0.1,1-1,1.8-2,1.8l0,0c-1,0.1-1.9-0.7-2-1.8v-15.1c0.1-1,1-1.8,2-1.8l0,0c1-0.1,1.9,0.7,2,1.8
					V179z"/>
				<path class="st3" d="M130.1,170.3c-0.3-2.1,0.7-4,0.4-6c-0.3-0.1-0.6-0.2-0.9-0.3h-0.1c-1.3,1.3-0.2,4.4-0.3,6.1
					c0,0.9-1.1,5.4,0.5,5.4S130.3,171.1,130.1,170.3z"/>
			</g>
			<g>
				<g>
					<path class="st0" d="M130,122.6c-8.8,0-15.9-7.1-15.9-15.9c0-8.8,7.1-15.9,15.9-15.9c8.8,0,15.9,7.1,15.9,15.9l0,0
						C145.9,115.4,138.8,122.5,130,122.6z M130,95.9c-6,0-10.8,4.8-10.8,10.8s4.8,10.8,10.8,10.8s10.8-4.8,10.8-10.8
						C140.8,100.7,136,95.9,130,95.9z"/>
					<g class="st1">
						<path class="st2" d="M130.1,120.8c-7.9,0-14.4-6.4-14.4-14.4c0-7.9,6.4-14.4,14.4-14.4c7.9,0,14.4,6.4,14.4,14.4l0,0
							C144.5,114.4,138.1,120.8,130.1,120.8z M130.1,93.8c-7,0-12.7,5.7-12.7,12.7c0,7,5.7,12.7,12.7,12.7s12.7-5.7,12.7-12.7l0,0
							C142.8,99.5,137.1,93.8,130.1,93.8C130.1,93.8,130.1,93.8,130.1,93.8L130.1,93.8z"/>
					</g>
					<path class="st3" d="M124.2,94.3c-0.7-0.2-1.5,0-2.2,0.3l-0.8,0.5c-1.3,2-3.2,3.2-4.3,5.4c-0.5,1.2-0.9,2.5-1,3.8
						c-0.2,1.4,0.1,3.3,1.4,1.5s1.1-4.9,2.5-7C120.7,97.6,124.5,95.8,124.2,94.3z"/>
					<path class="st3" d="M143.4,108.3c-1.3-0.3-2.2,5.2-3.2,6.4c-1.9,2.4-3.9,3.2-6.6,3.9l-0.5,0.2c-1.4,0-1.2,1,0,1.2
						c0.9-0.1,1.7-0.3,2.5-0.7c1.5-0.6,2.8-1.5,4-2.6C141.6,114.8,144.6,111.3,143.4,108.3z"/>
				</g>
				<path class="st0" d="M134.3,140.6c0,1.4-1.6,2.6-3.5,2.6l0,0c-1.9,0-3.5-1.2-3.5-2.6v-22c0-1.4,1.6-2.6,3.5-2.6l0,0
					c1.9,0,3.5,1.2,3.5,2.6V140.6z"/>
				<path class="st5" d="M132.3,134c-0.1,1-1,1.8-2,1.8l0,0c-1,0.1-1.9-0.7-2-1.8v-15.1c0.1-1,1-1.8,2-1.8l0,0c1-0.1,1.9,0.7,2,1.8
					V134z"/>
				<path class="st3" d="M130.1,125.3c-0.3-2.1,0.7-4,0.4-6c-0.3-0.1-0.6-0.2-0.9-0.3h-0.1c-1.3,1.3-0.2,4.4-0.3,6.1
					c0,0.9-1.1,5.4,0.5,5.4S130.3,126.2,130.1,125.3z"/>
			</g>
			<g>
				<g>
					<path class="st0" d="M130,77.8c-8.8,0-15.9-7.1-15.9-15.9c0-8.8,7.1-15.9,15.9-15.9s15.9,7.1,15.9,15.9v0
						C145.9,70.7,138.8,77.8,130,77.8z M130,51.1c-6,0-10.8,4.8-10.8,10.8S124,72.7,130,72.7s10.8-4.8,10.8-10.8
						C140.8,56,136,51.1,130,51.1z"/>
					<g class="st1">
						<path class="st2" d="M130.1,76.1c-7.9,0-14.4-6.4-14.4-14.4c0-7.9,6.4-14.4,14.4-14.4c7.9,0,14.4,6.4,14.4,14.4c0,0,0,0,0,0
							C144.5,69.7,138.1,76.1,130.1,76.1z M130.1,49.1c-7,0-12.7,5.7-12.7,12.7c0,7,5.7,12.7,12.7,12.7c7,0,12.7-5.7,12.7-12.7
							c0,0,0,0,0,0C142.8,54.8,137.1,49.1,130.1,49.1L130.1,49.1z"/>
					</g>
					<path class="st3" d="M124.2,49.6c-0.7-0.2-1.5,0-2.2,0.3l-0.8,0.5c-1.3,2-3.2,3.2-4.3,5.4c-0.5,1.2-0.9,2.5-1,3.8
						c-0.2,1.4,0.1,3.3,1.4,1.5s1.1-5,2.5-7C120.7,52.9,124.5,51.1,124.2,49.6z"/>
					<path class="st3" d="M143.4,63.6c-1.3-0.3-2.2,5.2-3.2,6.4c-1.9,2.4-3.9,3.2-6.6,3.9l-0.5,0.2c-1.4,0.1-1.2,1,0,1.2
						c0.9-0.1,1.7-0.3,2.5-0.7c1.5-0.6,2.8-1.5,4-2.6C141.6,70.1,144.6,66.5,143.4,63.6z"/>
				</g>
				<path class="st0" d="M134.3,95.9c0,1.4-1.6,2.6-3.5,2.6l0,0c-1.9,0-3.5-1.2-3.5-2.6v-22c0-1.4,1.6-2.6,3.5-2.6l0,0
					c1.9,0,3.5,1.2,3.5,2.6V95.9z"/>
				<path class="st5" d="M132.3,89.3c-0.1,1-1,1.8-2,1.8l0,0c-1,0.1-1.9-0.7-2-1.8V74.2c0.1-1,1-1.8,2-1.8l0,0c1-0.1,1.9,0.7,2,1.8
					V89.3z"/>
				<path class="st3" d="M130.1,80.6c-0.3-2.1,0.7-4,0.4-6c-0.3-0.1-0.6-0.2-0.9-0.3h-0.1c-1.3,1.3-0.2,4.4-0.3,6.1
					c0,0.9-1.1,5.3,0.5,5.3S130.3,81.5,130.1,80.6z"/>
			</g>
			<g>
				<g>
					<path class="st0" d="M130,35.4c-8.8,0-15.9-7.1-15.9-15.9c0-8.8,7.1-15.9,15.9-15.9s15.9,7.1,15.9,15.9c0,0,0,0,0,0
						C145.9,28.3,138.8,35.4,130,35.4z M130,8.7c-6,0-10.8,4.8-10.8,10.8S124,30.3,130,30.3s10.8-4.8,10.8-10.8
						C140.8,13.6,136,8.7,130,8.7z"/>
					<g class="st1">
						<path class="st2" d="M130.1,33.7c-7.9,0-14.4-6.4-14.4-14.4c0-7.9,6.4-14.4,14.4-14.4c7.9,0,14.4,6.4,14.4,14.4c0,0,0,0,0,0
							C144.5,27.3,138.1,33.7,130.1,33.7z M130.1,6.7c-7,0-12.7,5.7-12.7,12.7c0,7,5.7,12.7,12.7,12.7c7,0,12.7-5.7,12.7-12.7
							c0,0,0,0,0,0C142.8,12.4,137.1,6.7,130.1,6.7L130.1,6.7z"/>
					</g>
					<path class="st3" d="M124.2,7.2c-0.7-0.2-1.5-0.1-2.2,0.3L121.2,8c-1.3,2-3.2,3.2-4.3,5.4c-0.5,1.2-0.9,2.5-1,3.8
						c-0.2,1.4,0.1,3.3,1.4,1.5s1.1-4.9,2.5-7C120.7,10.5,124.5,8.7,124.2,7.2z"/>
					<path class="st3" d="M143.4,21.2c-1.3-0.3-2.2,5.1-3.2,6.4c-1.9,2.4-3.9,3.2-6.6,3.9l-0.5,0.2c-1.4,0-1.2,1,0,1.2
						c0.9-0.1,1.7-0.3,2.5-0.7c1.5-0.6,2.8-1.5,4-2.6C141.6,27.7,144.6,24.1,143.4,21.2z"/>
				</g>
				<path class="st0" d="M134.3,53.5c0,1.4-1.6,2.6-3.5,2.6l0,0c-1.9,0-3.5-1.2-3.5-2.6V31.5c0-1.4,1.6-2.6,3.5-2.6l0,0
					c1.9,0,3.5,1.2,3.5,2.6V53.5z"/>
				<path class="st5" d="M132.3,46.9c-0.1,1-1,1.8-2,1.8l0,0c-1,0.1-1.9-0.7-2-1.8V31.8c0.1-1,1-1.8,2-1.8l0,0c1-0.1,1.9,0.7,2,1.8
					V46.9z"/>
				<path class="st3" d="M130.1,38.2c-0.3-2.1,0.7-4,0.4-6c-0.3-0.1-0.6-0.2-0.9-0.3h-0.1c-1.3,1.3-0.2,4.4-0.3,6.1
					c0,0.9-1.1,5.3,0.5,5.3S130.3,39,130.1,38.2z"/>
			</g>
		</g>
	</g>
	<g>
		<path class="st6" d="M44.7,310.7h690.7c21.2,0,38.4,17.2,38.4,38.4V728c0,21.2-17.2,38.4-38.4,38.4H44.7
			c-21.2,0-38.4-17.2-38.4-38.4V349.1C6.3,327.9,23.5,310.7,44.7,310.7z"/>
		
			<linearGradient id="SVGID_1_" gradientUnits="userSpaceOnUse" x1="390" y1="-14.35" x2="390" y2="490.17" gradientTransform="matrix(1 0 0 -1 0 772)">
			<stop  offset="0" style="stop-color:#B11107"/>
			<stop  offset="0.26" style="stop-color:#C21608"/>
			<stop  offset="0.72" style="stop-color:#DA1E0A"/>
			<stop  offset="1" style="stop-color:#E3210B"/>
		</linearGradient>
		<path class="st7" d="M44.7,313.1h690.7c19.9,0,36,16.1,36,36V728c0,19.9-16.1,36-36,36H44.7c-19.9,0-36-16.1-36-36V349.1
			C8.7,329.2,24.8,313.1,44.7,313.1z"/>
		<path class="st6" d="M44.7,337.1h690.7c6.6,0,12,5.4,12,12V728c0,6.6-5.4,12-12,12H44.7c-6.6,0-12-5.4-12-12V349.1
			C32.7,342.5,38,337.1,44.7,337.1z"/>
	</g>
	<path class="st8" d="M44.7,339.5h690.7c5.3,0,9.6,4.3,9.6,9.6V728c0,5.3-4.3,9.6-9.6,9.6H44.7c-5.3,0-9.6-4.3-9.6-9.6V349.1
		C35.1,343.8,39.4,339.5,44.7,339.5z"/>
	<g>
		<path class="st9" d="M44.7,346.3h690.7c1.3,0,2.4,1.1,2.4,2.4v378.9c0,1.3-1.1,2.4-2.4,2.4H44.7c-1.3,0-2.4-1.1-2.4-2.4V348.7
			C42.3,347.4,43.3,346.3,44.7,346.3z"/>
		<g>
			<defs>
				<path id="SVGID_2_" d="M44.7,346.3h690.7c1.3,0,2.4,1.1,2.4,2.4v378.9c0,1.3-1.1,2.4-2.4,2.4H44.7c-1.3,0-2.4-1.1-2.4-2.4V348.7
					C42.3,347.4,43.3,346.3,44.7,346.3z"/>
			</defs>
			<clipPath id="SVGID_3_">
				<use xlink:href="#SVGID_2_"  style="overflow:visible;"/>
			</clipPath>
			<g class="st10">
				<g>
					<defs>
						<rect id="SVGID_4_" x="-407.5" y="237.2" width="1402.3" height="657.3"/>
					</defs>
					<clipPath id="SVGID_5_">
						<use xlink:href="#SVGID_4_"  style="overflow:visible;"/>
					</clipPath>
					<g class="st11">
						<g>
							<polygon id="Rive" class="st12" points="-412.5,464 1002,461.2 1002.1,899.4 -411.7,899.8 							"/>
							
								<linearGradient id="Cloud_1_" gradientUnits="userSpaceOnUse" x1="285.9775" y1="175.1001" x2="299.2875" y2="612.9701" gradientTransform="matrix(1 0 0 -1 0 772)">
								<stop  offset="0.41" style="stop-color:#AAD4ED"/>
								<stop  offset="0.6" style="stop-color:#7ABCE0"/>
								<stop  offset="0.77" style="stop-color:#56ABD7"/>
								<stop  offset="0.91" style="stop-color:#40A0D1"/>
								<stop  offset="1" style="stop-color:#389CCF"/>
							</linearGradient>
							<rect id="Cloud" x="-410.6" y="234.5" class="st13" width="1408.3" height="227.6"/>
							<polygon class="st14" points="-410.1,464.1 997,460.6 996,488.1 839.3,498.8 708.9,504.4 -21.2,520.6 -203,520.6 -412.1,531 
															"/>
							<g id="_05" class="st15">
								<polygon points="204.6,534.3 204.6,544.6 229.4,547.8 267,537.2 267,532.6 233.3,527.2 								"/>
								<polygon points="204.6,534.3 229.4,537.5 267,532.6 267,537.2 229.4,547.8 204.6,544.6 								"/>
							</g>
							<polygon class="st16" points="986.8,627.3 259.8,645.8 986.8,696.6 							"/>
							<g id="_05-2">
								<polygon class="st17" points="204.6,528.9 204.6,539.2 229.4,542.5 267,531.9 267,527.2 233.3,521.8 								"/>
								<polygon class="st18" points="204.6,528.9 229.4,532.1 267,527.2 267,531.9 229.4,542.5 204.6,539.2 								"/>
							</g>
							<path class="st19" d="M876.2,496.2H757.8l-0.1,0.2H266.8l5.4,1.3l-27.1-0.6l64.3,19.1l29.3,31.1l42.9,12.5l22.3-3.3l38.9-31
								l31.1,8.6l43.5,41.3l9.9,73.2l15.8,56l27.8,18.7H624l1.2-1.8l-0.9,1.8l67.1-72.1l10-16.1l9.4-12.9l41.7-7.9l29.8-28.8
								l-4.5-12.3l14.9,1.6L876.2,496.2z M414.1,509.8l-1.9-0.9l0.4,0.1L414.1,509.8z"/>
							<polygon class="st20" points="235.4,498.8 261,498.8 254.9,503 749,505.1 737.3,494.9 253.4,492.4 							"/>
							<g>
								<polygon class="st21" points="307.7,469.1 216.1,378 133.9,373.8 109.1,223.4 76.6,212.8 30,87.8 -294.1,-58.3 -635.4,92.1 
									-733.1,87.8 -940.9,136.6 -939.4,460.6 								"/>
								<path class="st22" d="M-18.1,121.7L-33.6,181l26.4,184.3l12.4-50.8l24.9,151.9l277.6,2.7L216.1,378l-82.2-4.2l-24.8-150.4
									l-32.6-10.6L30,87.8c0,0-91.5,23.3-90,23.3S-18.1,121.7-18.1,121.7z"/>
								<path class="st23" d="M30.1,466.4c12.3,0.6,103.9-92.6,103.9-92.6l82.2,4.2l-93.1,42.4l-81.8,47.2L30.1,466.4z"/>
								<polygon class="st23" points="109.1,223.4 76.6,212.8 -14.8,308.7 -5.7,380.1 5.2,314.5 								"/>
								<path class="st20" d="M-270.3,464.1c-0.6-5.6,5.6-232.2,5.6-232.2l26.4-76.2l-10.9,88.9L-198,75.1l69.8,36l105.5,12.7
									l-33-12l85.7-24L-294.1-58.3L-635.4,92.1l-97.7-4.2l-207.8,48.7v72l124.1,31.8l57.4-72l-4.7,33.9l234.2-50.8l161.3-122.8
									l-21.7,46.6l21.7-14.8l-71.4,110.1l21.7,8.5l97.7-131.3l23.3-14.8l58.9,65.7l-58.9,127.1l-13,239.3L-270.3,464.1z"/>
							</g>
							<g>
								<g id="Mountian_02">
									<polygon class="st20" points="266.8,500 874.8,500 825.4,436.4 750.4,280.5 726.7,266 689.1,150.4 665.4,124.7 624,-9.9 
										570.8,-9.9 543,32.1 527.2,158.1 517.3,322.6 473.9,415.5 440.3,436.4 412.6,471.7 379.1,482 355.4,453.7 									"/>
									<polygon class="st24" points="440.3,500 503.5,453.7 545,453.7 556.8,415.5 556.8,291.8 578.5,73.2 570.8,346.1 
										578.5,436.4 585.5,346.1 585.5,422.9 595.8,203.1 610.6,378.5 610.6,453.7 632.8,500 									"/>
									<polygon class="st24" points="677.3,500 650.6,368.9 610.6,253.2 610.6,141.4 603.2,127.9 603.2,-9.9 623.9,-9.6 
										643.7,54.6 677.3,137.5 686.2,276.3 739.5,500 									"/>
									<polygon class="st25" points="677.3,137.5 686.2,276.3 739.5,500 838.8,500 850.1,468.2 750.4,280.5 718.7,241.4 
										689.1,150.4 									"/>
									<polygon class="st26" points="739.5,500 686.2,276.3 677.3,137.5 698,278.3 763.7,500 									"/>
								</g>
								<polygon class="st22" points="757.8,500.4 676.5,220.5 663.1,281.4 651.2,142.9 658.6,152.1 624.3,-10 691.4,152.1 
									709.3,216.8 752.6,235.2 782.4,299.9 777.9,327.6 792.8,323.9 876.2,500.4 								"/>
								<polygon class="st23" points="782.4,299.9 761.2,375 775.6,456.1 776.5,370.6 792.8,323.9 777.9,327.6 								"/>
								<g>
									<polygon class="st22" points="245.1,498.5 393.7,490.5 444,437.1 403.8,365.2 381.5,357.7 338.6,385.6 309.4,455.5 
																			"/>
									<polygon class="st20" points="423,460.6 322.5,486.4 338.7,469.4 346.6,414.5 385.8,380 381.5,357.7 338.6,385.6 
										309.4,455.5 245.1,498.5 393.8,491.2 									"/>
									<polygon class="st22" points="381.5,357.7 403.8,365.2 444,437.1 416.5,467.4 389.7,474.9 346.6,414.5 385.8,380 									
										"/>
								</g>
							</g>
							<path class="st12" d="M251.9,551.7c4.5,0,242.5-10.6,242.5-10.6s-43.7,12.7-40.7,12.7s209.3-2.1,203.3-2.1
								s-254.5,25.4-254.5,25.4l22.6-10.6L251.9,551.7z"/>
							<path class="st12" d="M414.6,577.1c4.3,0,232.5-10.6,232.5-10.6s-41.9,12.7-39,12.7s200.7-2.1,195-2.1s-244,25.4-244,25.4
								l21.6-10.5L414.6,577.1z"/>
							<path class="st12" d="M325.7,657.6c4.3,0,232.5-10.6,232.5-10.6s-41.9,12.7-39,12.7s200.7-2.1,195-2.1S470.1,683,470.1,683
								l21.7-10.6L325.7,657.6z"/>
							<path class="st12" d="M706.8,528.4c2.8,0,149.6-10.6,149.6-10.6s-26.9,12.7-25.1,12.7s129.1-2.1,125.4-2.1
								s-157,25.4-157,25.4l13.9-10.6L706.8,528.4z"/>
							<path class="st14" d="M-403.2,543.2c4.5,0,242.5-10.6,242.5-10.6s-43.7,12.7-40.7,12.7s209.3-2.1,203.3-2.1
								s-254.5,25.4-254.5,25.4l22.6-10.6L-403.2,543.2z"/>
							<path class="st14" d="M-218,602.5c4.5,0,242.5-10.5,242.5-10.5s-43.7,12.7-40.7,12.7s209.4-2.1,203.3-2.1S-67.4,628-67.4,628
								l22.6-10.6L-218,602.5z"/>
							<polygon class="st16" points="810.8,537.9 764.6,522.8 721.8,536.6 721.7,548.2 744.2,582.2 811.8,550.8 							"/>
							<polygon class="st16" points="401.6,555.3 354.7,570.5 354.7,592.7 395.1,599.7 456.8,576.8 456.8,566.8 							"/>
							<g>
								<g>
									<path class="st27" d="M-96.8,1107.8l325.9-196.3l-45.7-6.4l31.3-9.6l39.7,1.6l45.7-22.3l30.1,11.2l40.9-9.6v-15.9l67.4-4.8
										l3.6-22.3l24.1,12.8l121.6-20.7l37.3-28.7l-6-73.3c0,0-723.7,176.4-1148.1,388.3L-96.8,1107.8z"/>
									<polygon class="st28" points="587.8,825.4 625.1,796.8 619.7,729 574.5,756.9 									"/>
								</g>
								<g>
									<path class="st29" d="M40.1,951.3c0,0,53-43,256.4-105.2l32.5,9.6l40.9-11.2l-1.2-20.7l75.8-17.5l-3.6-15.9l25.3,8
										l111.9-27.1l42.1-33.5l7.2-73.3c0,0-16.8-51-122.8-46.2H363.9l-124-28.7l-582.2-9.5l-280,31.1l-6,259.2l28.3,99.1
										l310.5,32.1l191.3,35.8L40.1,951.3z"/>
									<polygon class="st30" points="172.3,889.2 197.8,803.1 113.6,795.2 150.9,785.6 85.9,776 201.4,768.1 167.7,779.2 
										232.7,788.8 183.1,884.2 									"/>
									<polygon class="st31" points="368.7,823.8 444.5,806.3 430.1,745.8 354.3,766.5 369.9,779.2 									"/>
									<polygon class="st32" points="466.2,798.3 440.9,790.4 430.1,745.8 362.7,726.6 474.6,734.6 									"/>
									<polygon class="st33" points="466.2,798.3 578.2,771.3 590.2,707.5 474.6,734.6 									"/>
									<path class="st34" d="M578.2,771.3l42.1-33.5l7.2-73.3c0,0-6,25.5-37.3,43L578.2,771.3z"/>
								</g>
							</g>
							<ellipse class="st12" cx="520" cy="509.4" rx="191.3" ry="2.1"/>
							<rect x="-410.6" y="231.1" class="st35" width="1412" height="269.8"/>
							<g id="_05-3">
								<polygon class="st17" points="354.7,564.2 354.7,586.4 395.1,593.3 456.8,570.5 456.8,560.5 401.6,548.9 								"/>
								<polygon class="st18" points="354.7,564.2 395.1,571.1 456.8,560.5 456.8,570.5 395.1,593.3 354.7,586.4 								"/>
							</g>
							<g id="_04">
								<polygon class="st17" points="721.8,530.3 721.7,541.8 744.2,575.8 811.8,544.5 810.8,531.5 764.6,516.4 								"/>
								<polygon class="st18" points="721.8,530.3 748,553.6 810.8,531.5 811.8,544.5 744.2,575.8 721.7,541.8 								"/>
							</g>
						</g>
					</g>
				</g>
			</g>
		</g>
	</g>
	<g>
		
			<radialGradient id="SVGID_6_" cx="461.94" cy="446.87" r="8.37" gradientTransform="matrix(1 0 0 -1 0 772)" gradientUnits="userSpaceOnUse">
			<stop  offset="0" style="stop-color:#FFFFFF"/>
			<stop  offset="0.13" style="stop-color:#FFFFFB"/>
			<stop  offset="0.26" style="stop-color:#FFFFEE"/>
			<stop  offset="0.39" style="stop-color:#FFFFDA"/>
			<stop  offset="0.53" style="stop-color:#FFFFBD"/>
			<stop  offset="0.66" style="stop-color:#FFFF98"/>
			<stop  offset="0.7" style="stop-color:#FFFF8C"/>
			<stop  offset="1" style="stop-color:#FFC728"/>
		</radialGradient>
		<circle class="st36" cx="461.9" cy="325.1" r="8.4"/>
		
			<radialGradient id="SVGID_7_" cx="394.6" cy="446.87" r="8.37" gradientTransform="matrix(1 0 0 -1 0 772)" gradientUnits="userSpaceOnUse">
			<stop  offset="0" style="stop-color:#FFFFFF"/>
			<stop  offset="0.13" style="stop-color:#FFFFFB"/>
			<stop  offset="0.26" style="stop-color:#FFFFEE"/>
			<stop  offset="0.39" style="stop-color:#FFFFDA"/>
			<stop  offset="0.53" style="stop-color:#FFFFBD"/>
			<stop  offset="0.66" style="stop-color:#FFFF98"/>
			<stop  offset="0.7" style="stop-color:#FFFF8C"/>
			<stop  offset="1" style="stop-color:#FFC728"/>
		</radialGradient>
		<circle class="st37" cx="394.6" cy="325.1" r="8.4"/>
		
			<radialGradient id="SVGID_8_" cx="327.25" cy="446.87" r="8.37" gradientTransform="matrix(1 0 0 -1 0 772)" gradientUnits="userSpaceOnUse">
			<stop  offset="0" style="stop-color:#FFFFFF"/>
			<stop  offset="0.13" style="stop-color:#FFFFFB"/>
			<stop  offset="0.26" style="stop-color:#FFFFEE"/>
			<stop  offset="0.39" style="stop-color:#FFFFDA"/>
			<stop  offset="0.53" style="stop-color:#FFFFBD"/>
			<stop  offset="0.66" style="stop-color:#FFFF98"/>
			<stop  offset="0.7" style="stop-color:#FFFF8C"/>
			<stop  offset="1" style="stop-color:#FFC728"/>
		</radialGradient>
		<circle class="st38" cx="327.3" cy="325.1" r="8.4"/>
		
			<radialGradient id="SVGID_9_" cx="259.9" cy="446.87" r="8.37" gradientTransform="matrix(1 0 0 -1 0 772)" gradientUnits="userSpaceOnUse">
			<stop  offset="0" style="stop-color:#FFFFFF"/>
			<stop  offset="0.13" style="stop-color:#FFFFFB"/>
			<stop  offset="0.26" style="stop-color:#FFFFEE"/>
			<stop  offset="0.39" style="stop-color:#FFFFDA"/>
			<stop  offset="0.53" style="stop-color:#FFFFBD"/>
			<stop  offset="0.66" style="stop-color:#FFFF98"/>
			<stop  offset="0.7" style="stop-color:#FFFF8C"/>
			<stop  offset="1" style="stop-color:#FFC728"/>
		</radialGradient>
		<circle class="st39" cx="259.9" cy="325.1" r="8.4"/>
		
			<radialGradient id="SVGID_10_" cx="192.56" cy="446.87" r="8.37" gradientTransform="matrix(1 0 0 -1 0 772)" gradientUnits="userSpaceOnUse">
			<stop  offset="0" style="stop-color:#FFFFFF"/>
			<stop  offset="0.13" style="stop-color:#FFFFFB"/>
			<stop  offset="0.26" style="stop-color:#FFFFEE"/>
			<stop  offset="0.39" style="stop-color:#FFFFDA"/>
			<stop  offset="0.53" style="stop-color:#FFFFBD"/>
			<stop  offset="0.66" style="stop-color:#FFFF98"/>
			<stop  offset="0.7" style="stop-color:#FFFF8C"/>
			<stop  offset="1" style="stop-color:#FFC728"/>
		</radialGradient>
		<circle class="st40" cx="192.6" cy="325.1" r="8.4"/>
		
			<radialGradient id="SVGID_11_" cx="125.21" cy="446.87" r="8.37" gradientTransform="matrix(1 0 0 -1 0 772)" gradientUnits="userSpaceOnUse">
			<stop  offset="0" style="stop-color:#FFFFFF"/>
			<stop  offset="0.13" style="stop-color:#FFFFFB"/>
			<stop  offset="0.26" style="stop-color:#FFFFEE"/>
			<stop  offset="0.39" style="stop-color:#FFFFDA"/>
			<stop  offset="0.53" style="stop-color:#FFFFBD"/>
			<stop  offset="0.66" style="stop-color:#FFFF98"/>
			<stop  offset="0.7" style="stop-color:#FFFF8C"/>
			<stop  offset="1" style="stop-color:#FFC728"/>
		</radialGradient>
		<circle class="st41" cx="125.2" cy="325.1" r="8.4"/>
		
			<radialGradient id="SVGID_12_" cx="57.86" cy="446.87" r="8.37" gradientTransform="matrix(1 0 0 -1 0 772)" gradientUnits="userSpaceOnUse">
			<stop  offset="0" style="stop-color:#FFFFFF"/>
			<stop  offset="0.13" style="stop-color:#FFFFFB"/>
			<stop  offset="0.26" style="stop-color:#FFFFEE"/>
			<stop  offset="0.39" style="stop-color:#FFFFDA"/>
			<stop  offset="0.53" style="stop-color:#FFFFBD"/>
			<stop  offset="0.66" style="stop-color:#FFFF98"/>
			<stop  offset="0.7" style="stop-color:#FFFF8C"/>
			<stop  offset="1" style="stop-color:#FFC728"/>
		</radialGradient>
		<circle class="st42" cx="57.9" cy="325.1" r="8.4"/>
		
			<radialGradient id="SVGID_13_" cx="20.69" cy="406.3975" r="8.37" gradientTransform="matrix(1 0 0 -1 -1.688600e-03 771.9957)" gradientUnits="userSpaceOnUse">
			<stop  offset="0" style="stop-color:#FFFFFF"/>
			<stop  offset="0.13" style="stop-color:#FFFFFB"/>
			<stop  offset="0.26" style="stop-color:#FFFFEE"/>
			<stop  offset="0.39" style="stop-color:#FFFFDA"/>
			<stop  offset="0.53" style="stop-color:#FFFFBD"/>
			<stop  offset="0.66" style="stop-color:#FFFF98"/>
			<stop  offset="0.7" style="stop-color:#FFFF8C"/>
			<stop  offset="1" style="stop-color:#FFC728"/>
		</radialGradient>
		<circle class="st43" cx="20.7" cy="365.6" r="8.4"/>
		
			<radialGradient id="SVGID_14_" cx="20.69" cy="339.0549" r="8.3675" gradientTransform="matrix(1 0 0 -1 -1.681332e-02 771.9811)" gradientUnits="userSpaceOnUse">
			<stop  offset="0" style="stop-color:#FFFFFF"/>
			<stop  offset="0.13" style="stop-color:#FFFFFB"/>
			<stop  offset="0.26" style="stop-color:#FFFFEE"/>
			<stop  offset="0.39" style="stop-color:#FFFFDA"/>
			<stop  offset="0.53" style="stop-color:#FFFFBD"/>
			<stop  offset="0.66" style="stop-color:#FFFF98"/>
			<stop  offset="0.7" style="stop-color:#FFFF8C"/>
			<stop  offset="1" style="stop-color:#FFC728"/>
		</radialGradient>
		<circle class="st44" cx="20.7" cy="432.9" r="8.4"/>
		
			<radialGradient id="SVGID_15_" cx="20.69" cy="271.71" r="8.37" gradientTransform="matrix(1 0 0 -1 0 772)" gradientUnits="userSpaceOnUse">
			<stop  offset="0" style="stop-color:#FFFFFF"/>
			<stop  offset="0.13" style="stop-color:#FFFFFB"/>
			<stop  offset="0.26" style="stop-color:#FFFFEE"/>
			<stop  offset="0.39" style="stop-color:#FFFFDA"/>
			<stop  offset="0.53" style="stop-color:#FFFFBD"/>
			<stop  offset="0.66" style="stop-color:#FFFF98"/>
			<stop  offset="0.7" style="stop-color:#FFFF8C"/>
			<stop  offset="1" style="stop-color:#FFC728"/>
		</radialGradient>
		<circle class="st45" cx="20.7" cy="500.3" r="8.4"/>
		
			<radialGradient id="SVGID_16_" cx="20.6899" cy="204.363" r="8.37" gradientTransform="matrix(1 0 0 -1 2.179247e-03 772.005)" gradientUnits="userSpaceOnUse">
			<stop  offset="0" style="stop-color:#FFFFFF"/>
			<stop  offset="0.13" style="stop-color:#FFFFFB"/>
			<stop  offset="0.26" style="stop-color:#FFFFEE"/>
			<stop  offset="0.39" style="stop-color:#FFFFDA"/>
			<stop  offset="0.53" style="stop-color:#FFFFBD"/>
			<stop  offset="0.66" style="stop-color:#FFFF98"/>
			<stop  offset="0.7" style="stop-color:#FFFF8C"/>
			<stop  offset="1" style="stop-color:#FFC728"/>
		</radialGradient>
		<circle class="st46" cx="20.7" cy="567.6" r="8.4"/>
		
			<radialGradient id="SVGID_17_" cx="20.69" cy="137.01" r="8.37" gradientTransform="matrix(1 0 0 -1 0 772)" gradientUnits="userSpaceOnUse">
			<stop  offset="0" style="stop-color:#FFFFFF"/>
			<stop  offset="0.13" style="stop-color:#FFFFFB"/>
			<stop  offset="0.26" style="stop-color:#FFFFEE"/>
			<stop  offset="0.39" style="stop-color:#FFFFDA"/>
			<stop  offset="0.53" style="stop-color:#FFFFBD"/>
			<stop  offset="0.66" style="stop-color:#FFFF98"/>
			<stop  offset="0.7" style="stop-color:#FFFF8C"/>
			<stop  offset="1" style="stop-color:#FFC728"/>
		</radialGradient>
		<circle class="st47" cx="20.7" cy="635" r="8.4"/>
		
			<radialGradient id="SVGID_18_" cx="20.69" cy="69.6733" r="8.37" gradientTransform="matrix(1 0 0 -1 2.390678e-03 772.0056)" gradientUnits="userSpaceOnUse">
			<stop  offset="0" style="stop-color:#FFFFFF"/>
			<stop  offset="0.13" style="stop-color:#FFFFFB"/>
			<stop  offset="0.26" style="stop-color:#FFFFEE"/>
			<stop  offset="0.39" style="stop-color:#FFFFDA"/>
			<stop  offset="0.53" style="stop-color:#FFFFBD"/>
			<stop  offset="0.66" style="stop-color:#FFFF98"/>
			<stop  offset="0.7" style="stop-color:#FFFF8C"/>
			<stop  offset="1" style="stop-color:#FFC728"/>
		</radialGradient>
		<circle class="st48" cx="20.7" cy="702.3" r="8.4"/>
		
			<radialGradient id="SVGID_19_" cx="48.67" cy="20.0015" r="8.3692" gradientTransform="matrix(1 0 0 -1 -3.021079e-02 771.965)" gradientUnits="userSpaceOnUse">
			<stop  offset="0" style="stop-color:#FFFFFF"/>
			<stop  offset="0.13" style="stop-color:#FFFFFB"/>
			<stop  offset="0.26" style="stop-color:#FFFFEE"/>
			<stop  offset="0.39" style="stop-color:#FFFFDA"/>
			<stop  offset="0.53" style="stop-color:#FFFFBD"/>
			<stop  offset="0.66" style="stop-color:#FFFF98"/>
			<stop  offset="0.7" style="stop-color:#FFFF8C"/>
			<stop  offset="1" style="stop-color:#FFC728"/>
		</radialGradient>
		<circle class="st49" cx="48.7" cy="752" r="8.4"/>
		
			<radialGradient id="SVGID_20_" cx="116.0209" cy="19.9964" r="8.3722" gradientTransform="matrix(1 0 0 -1 -4.470748e-03 771.9949)" gradientUnits="userSpaceOnUse">
			<stop  offset="0" style="stop-color:#FFFFFF"/>
			<stop  offset="0.13" style="stop-color:#FFFFFB"/>
			<stop  offset="0.26" style="stop-color:#FFFFEE"/>
			<stop  offset="0.39" style="stop-color:#FFFFDA"/>
			<stop  offset="0.53" style="stop-color:#FFFFBD"/>
			<stop  offset="0.66" style="stop-color:#FFFF98"/>
			<stop  offset="0.7" style="stop-color:#FFFF8C"/>
			<stop  offset="1" style="stop-color:#FFC728"/>
		</radialGradient>
		<circle class="st50" cx="116" cy="752" r="8.4"/>
		
			<radialGradient id="SVGID_21_" cx="183.36" cy="20.0112" r="8.3644" gradientTransform="matrix(1 0 0 -1 -3.459889e-02 771.9763)" gradientUnits="userSpaceOnUse">
			<stop  offset="0" style="stop-color:#FFFFFF"/>
			<stop  offset="0.13" style="stop-color:#FFFFFB"/>
			<stop  offset="0.26" style="stop-color:#FFFFEE"/>
			<stop  offset="0.39" style="stop-color:#FFFFDA"/>
			<stop  offset="0.53" style="stop-color:#FFFFBD"/>
			<stop  offset="0.66" style="stop-color:#FFFF98"/>
			<stop  offset="0.7" style="stop-color:#FFFF8C"/>
			<stop  offset="1" style="stop-color:#FFC728"/>
		</radialGradient>
		<circle class="st51" cx="183.4" cy="752" r="8.4"/>
		
			<radialGradient id="SVGID_22_" cx="250.712" cy="20.0008" r="8.3722" gradientTransform="matrix(1 0 0 -1 1.799801e-03 772.0056)" gradientUnits="userSpaceOnUse">
			<stop  offset="0" style="stop-color:#FFFFFF"/>
			<stop  offset="0.13" style="stop-color:#FFFFFB"/>
			<stop  offset="0.26" style="stop-color:#FFFFEE"/>
			<stop  offset="0.39" style="stop-color:#FFFFDA"/>
			<stop  offset="0.53" style="stop-color:#FFFFBD"/>
			<stop  offset="0.66" style="stop-color:#FFFF98"/>
			<stop  offset="0.7" style="stop-color:#FFFF8C"/>
			<stop  offset="1" style="stop-color:#FFC728"/>
		</radialGradient>
		<circle class="st52" cx="250.7" cy="752" r="8.4"/>
		
			<radialGradient id="SVGID_23_" cx="318.0637" cy="19.999" r="8.37" gradientTransform="matrix(1 0 0 -1 3.004149e-03 771.9909)" gradientUnits="userSpaceOnUse">
			<stop  offset="0" style="stop-color:#FFFFFF"/>
			<stop  offset="0.13" style="stop-color:#FFFFFB"/>
			<stop  offset="0.26" style="stop-color:#FFFFEE"/>
			<stop  offset="0.39" style="stop-color:#FFFFDA"/>
			<stop  offset="0.53" style="stop-color:#FFFFBD"/>
			<stop  offset="0.66" style="stop-color:#FFFF98"/>
			<stop  offset="0.7" style="stop-color:#FFFF8C"/>
			<stop  offset="1" style="stop-color:#FFC728"/>
		</radialGradient>
		<circle class="st53" cx="318.1" cy="752" r="8.4"/>
		
			<radialGradient id="SVGID_24_" cx="385.4069" cy="19.9959" r="8.3722" gradientTransform="matrix(1 0 0 -1 -5.765606e-03 771.9971)" gradientUnits="userSpaceOnUse">
			<stop  offset="0" style="stop-color:#FFFFFF"/>
			<stop  offset="0.13" style="stop-color:#FFFFFB"/>
			<stop  offset="0.26" style="stop-color:#FFFFEE"/>
			<stop  offset="0.39" style="stop-color:#FFFFDA"/>
			<stop  offset="0.53" style="stop-color:#FFFFBD"/>
			<stop  offset="0.66" style="stop-color:#FFFF98"/>
			<stop  offset="0.7" style="stop-color:#FFFF8C"/>
			<stop  offset="1" style="stop-color:#FFC728"/>
		</radialGradient>
		<circle class="st54" cx="385.4" cy="752" r="8.4"/>
		
			<radialGradient id="SVGID_25_" cx="452.7534" cy="19.999" r="8.37" gradientTransform="matrix(1 0 0 -1 3.465163e-03 772.0008)" gradientUnits="userSpaceOnUse">
			<stop  offset="0" style="stop-color:#FFFFFF"/>
			<stop  offset="0.13" style="stop-color:#FFFFFB"/>
			<stop  offset="0.26" style="stop-color:#FFFFEE"/>
			<stop  offset="0.39" style="stop-color:#FFFFDA"/>
			<stop  offset="0.53" style="stop-color:#FFFFBD"/>
			<stop  offset="0.66" style="stop-color:#FFFF98"/>
			<stop  offset="0.7" style="stop-color:#FFFF8C"/>
			<stop  offset="1" style="stop-color:#FFC728"/>
		</radialGradient>
		<circle class="st55" cx="452.8" cy="752" r="8.4"/>
		
			<radialGradient id="SVGID_26_" cx="520.1" cy="20" r="8.37" gradientTransform="matrix(1 0 0 -1 -5.118006e-02 771.9816)" gradientUnits="userSpaceOnUse">
			<stop  offset="0" style="stop-color:#FFFFFF"/>
			<stop  offset="0.13" style="stop-color:#FFFFFB"/>
			<stop  offset="0.26" style="stop-color:#FFFFEE"/>
			<stop  offset="0.39" style="stop-color:#FFFFDA"/>
			<stop  offset="0.53" style="stop-color:#FFFFBD"/>
			<stop  offset="0.66" style="stop-color:#FFFF98"/>
			<stop  offset="0.7" style="stop-color:#FFFF8C"/>
			<stop  offset="1" style="stop-color:#FFC728"/>
		</radialGradient>
		<circle class="st56" cx="520.1" cy="751.9" r="8.4"/>
		
			<radialGradient id="SVGID_27_" cx="587.4435" cy="20.0025" r="8.3722" gradientTransform="matrix(1 0 0 -1 -1.744178e-03 772.0063)" gradientUnits="userSpaceOnUse">
			<stop  offset="0" style="stop-color:#FFFFFF"/>
			<stop  offset="0.13" style="stop-color:#FFFFFB"/>
			<stop  offset="0.26" style="stop-color:#FFFFEE"/>
			<stop  offset="0.39" style="stop-color:#FFFFDA"/>
			<stop  offset="0.53" style="stop-color:#FFFFBD"/>
			<stop  offset="0.66" style="stop-color:#FFFF98"/>
			<stop  offset="0.7" style="stop-color:#FFFF8C"/>
			<stop  offset="1" style="stop-color:#FFC728"/>
		</radialGradient>
		<circle class="st57" cx="587.4" cy="752" r="8.4"/>
		
			<radialGradient id="SVGID_28_" cx="654.79" cy="20" r="8.37" gradientTransform="matrix(1 0 0 -1 -5.330223e-02 771.9833)" gradientUnits="userSpaceOnUse">
			<stop  offset="0" style="stop-color:#FFFFFF"/>
			<stop  offset="0.13" style="stop-color:#FFFFFB"/>
			<stop  offset="0.26" style="stop-color:#FFFFEE"/>
			<stop  offset="0.39" style="stop-color:#FFFFDA"/>
			<stop  offset="0.53" style="stop-color:#FFFFBD"/>
			<stop  offset="0.66" style="stop-color:#FFFF98"/>
			<stop  offset="0.7" style="stop-color:#FFFF8C"/>
			<stop  offset="1" style="stop-color:#FFC728"/>
		</radialGradient>
		<circle class="st58" cx="654.8" cy="752" r="8.4"/>
		
			<radialGradient id="SVGID_29_" cx="722.1384" cy="19.9976" r="8.3722" gradientTransform="matrix(1 0 0 -1 -6.322823e-05 771.994)" gradientUnits="userSpaceOnUse">
			<stop  offset="0" style="stop-color:#FFFFFF"/>
			<stop  offset="0.13" style="stop-color:#FFFFFB"/>
			<stop  offset="0.26" style="stop-color:#FFFFEE"/>
			<stop  offset="0.39" style="stop-color:#FFFFDA"/>
			<stop  offset="0.53" style="stop-color:#FFFFBD"/>
			<stop  offset="0.66" style="stop-color:#FFFF98"/>
			<stop  offset="0.7" style="stop-color:#FFFF8C"/>
			<stop  offset="1" style="stop-color:#FFC728"/>
		</radialGradient>
		<circle class="st59" cx="722.1" cy="752" r="8.4"/>
		
			<radialGradient id="SVGID_30_" cx="759.3125" cy="60.4738" r="8.37" gradientTransform="matrix(1 0 0 -1 -1.545687e-03 771.9982)" gradientUnits="userSpaceOnUse">
			<stop  offset="0" style="stop-color:#FFFFFF"/>
			<stop  offset="0.13" style="stop-color:#FFFFFB"/>
			<stop  offset="0.26" style="stop-color:#FFFFEE"/>
			<stop  offset="0.39" style="stop-color:#FFFFDA"/>
			<stop  offset="0.53" style="stop-color:#FFFFBD"/>
			<stop  offset="0.66" style="stop-color:#FFFF98"/>
			<stop  offset="0.7" style="stop-color:#FFFF8C"/>
			<stop  offset="1" style="stop-color:#FFC728"/>
		</radialGradient>
		<circle class="st60" cx="759.3" cy="711.5" r="8.4"/>
		
			<radialGradient id="SVGID_31_" cx="759.31" cy="127.82" r="8.37" gradientTransform="matrix(1 0 0 -1 0 772)" gradientUnits="userSpaceOnUse">
			<stop  offset="0" style="stop-color:#FFFFFF"/>
			<stop  offset="0.13" style="stop-color:#FFFFFB"/>
			<stop  offset="0.26" style="stop-color:#FFFFEE"/>
			<stop  offset="0.39" style="stop-color:#FFFFDA"/>
			<stop  offset="0.53" style="stop-color:#FFFFBD"/>
			<stop  offset="0.66" style="stop-color:#FFFF98"/>
			<stop  offset="0.7" style="stop-color:#FFFF8C"/>
			<stop  offset="1" style="stop-color:#FFC728"/>
		</radialGradient>
		<circle class="st61" cx="759.3" cy="644.2" r="8.4"/>
		
			<radialGradient id="SVGID_32_" cx="759.3054" cy="195.1705" r="8.37" gradientTransform="matrix(1 0 0 -1 -1.731069e-03 771.9977)" gradientUnits="userSpaceOnUse">
			<stop  offset="0" style="stop-color:#FFFFFF"/>
			<stop  offset="0.13" style="stop-color:#FFFFFB"/>
			<stop  offset="0.26" style="stop-color:#FFFFEE"/>
			<stop  offset="0.39" style="stop-color:#FFFFDA"/>
			<stop  offset="0.53" style="stop-color:#FFFFBD"/>
			<stop  offset="0.66" style="stop-color:#FFFF98"/>
			<stop  offset="0.7" style="stop-color:#FFFF8C"/>
			<stop  offset="1" style="stop-color:#FFC728"/>
		</radialGradient>
		<circle class="st62" cx="759.3" cy="576.8" r="8.4"/>
		
			<radialGradient id="SVGID_33_" cx="759.31" cy="262.51" r="8.37" gradientTransform="matrix(1 0 0 -1 -5.252771e-02 772.0087)" gradientUnits="userSpaceOnUse">
			<stop  offset="0" style="stop-color:#FFFFFF"/>
			<stop  offset="0.13" style="stop-color:#FFFFFB"/>
			<stop  offset="0.26" style="stop-color:#FFFFEE"/>
			<stop  offset="0.39" style="stop-color:#FFFFDA"/>
			<stop  offset="0.53" style="stop-color:#FFFFBD"/>
			<stop  offset="0.66" style="stop-color:#FFFF98"/>
			<stop  offset="0.7" style="stop-color:#FFFF8C"/>
			<stop  offset="1" style="stop-color:#FFC728"/>
		</radialGradient>
		<circle class="st63" cx="759.3" cy="509.5" r="8.4"/>
		
			<radialGradient id="SVGID_34_" cx="759.31" cy="329.86" r="8.37" gradientTransform="matrix(1 0 0 -1 0 772)" gradientUnits="userSpaceOnUse">
			<stop  offset="0" style="stop-color:#FFFFFF"/>
			<stop  offset="0.13" style="stop-color:#FFFFFB"/>
			<stop  offset="0.26" style="stop-color:#FFFFEE"/>
			<stop  offset="0.39" style="stop-color:#FFFFDA"/>
			<stop  offset="0.53" style="stop-color:#FFFFBD"/>
			<stop  offset="0.66" style="stop-color:#FFFF98"/>
			<stop  offset="0.7" style="stop-color:#FFFF8C"/>
			<stop  offset="1" style="stop-color:#FFC728"/>
		</radialGradient>
		<circle class="st64" cx="759.3" cy="442.1" r="8.4"/>
		
			<radialGradient id="SVGID_35_" cx="759.3199" cy="397.21" r="8.365" gradientTransform="matrix(1 0 0 -1 -4.109576e-02 772.0131)" gradientUnits="userSpaceOnUse">
			<stop  offset="0" style="stop-color:#FFFFFF"/>
			<stop  offset="0.13" style="stop-color:#FFFFFB"/>
			<stop  offset="0.26" style="stop-color:#FFFFEE"/>
			<stop  offset="0.39" style="stop-color:#FFFFDA"/>
			<stop  offset="0.53" style="stop-color:#FFFFBD"/>
			<stop  offset="0.66" style="stop-color:#FFFF98"/>
			<stop  offset="0.7" style="stop-color:#FFFF8C"/>
			<stop  offset="1" style="stop-color:#FFC728"/>
		</radialGradient>
		<circle class="st65" cx="759.3" cy="374.8" r="8.4"/>
		
			<radialGradient id="SVGID_36_" cx="731.33" cy="446.87" r="8.37" gradientTransform="matrix(1 0 0 -1 0 772)" gradientUnits="userSpaceOnUse">
			<stop  offset="0" style="stop-color:#FFFFFF"/>
			<stop  offset="0.13" style="stop-color:#FFFFFB"/>
			<stop  offset="0.26" style="stop-color:#FFFFEE"/>
			<stop  offset="0.39" style="stop-color:#FFFFDA"/>
			<stop  offset="0.53" style="stop-color:#FFFFBD"/>
			<stop  offset="0.66" style="stop-color:#FFFF98"/>
			<stop  offset="0.7" style="stop-color:#FFFF8C"/>
			<stop  offset="1" style="stop-color:#FFC728"/>
		</radialGradient>
		<circle class="st66" cx="731.3" cy="325.1" r="8.4"/>
		
			<radialGradient id="SVGID_37_" cx="663.98" cy="446.87" r="8.37" gradientTransform="matrix(1 0 0 -1 0 772)" gradientUnits="userSpaceOnUse">
			<stop  offset="0" style="stop-color:#FFFFFF"/>
			<stop  offset="0.13" style="stop-color:#FFFFFB"/>
			<stop  offset="0.26" style="stop-color:#FFFFEE"/>
			<stop  offset="0.39" style="stop-color:#FFFFDA"/>
			<stop  offset="0.53" style="stop-color:#FFFFBD"/>
			<stop  offset="0.66" style="stop-color:#FFFF98"/>
			<stop  offset="0.7" style="stop-color:#FFFF8C"/>
			<stop  offset="1" style="stop-color:#FFC728"/>
		</radialGradient>
		<circle class="st67" cx="664" cy="325.1" r="8.4"/>
		
			<radialGradient id="SVGID_38_" cx="596.64" cy="446.87" r="8.37" gradientTransform="matrix(1 0 0 -1 0 772)" gradientUnits="userSpaceOnUse">
			<stop  offset="0" style="stop-color:#FFFFFF"/>
			<stop  offset="0.13" style="stop-color:#FFFFFB"/>
			<stop  offset="0.26" style="stop-color:#FFFFEE"/>
			<stop  offset="0.39" style="stop-color:#FFFFDA"/>
			<stop  offset="0.53" style="stop-color:#FFFFBD"/>
			<stop  offset="0.66" style="stop-color:#FFFF98"/>
			<stop  offset="0.7" style="stop-color:#FFFF8C"/>
			<stop  offset="1" style="stop-color:#FFC728"/>
		</radialGradient>
		<circle class="st68" cx="596.6" cy="325.1" r="8.4"/>
		
			<radialGradient id="SVGID_39_" cx="529.29" cy="446.87" r="8.37" gradientTransform="matrix(1 0 0 -1 0 772)" gradientUnits="userSpaceOnUse">
			<stop  offset="0" style="stop-color:#FFFFFF"/>
			<stop  offset="0.13" style="stop-color:#FFFFFB"/>
			<stop  offset="0.26" style="stop-color:#FFFFEE"/>
			<stop  offset="0.39" style="stop-color:#FFFFDA"/>
			<stop  offset="0.53" style="stop-color:#FFFFBD"/>
			<stop  offset="0.66" style="stop-color:#FFFF98"/>
			<stop  offset="0.7" style="stop-color:#FFFF8C"/>
			<stop  offset="1" style="stop-color:#FFC728"/>
		</radialGradient>
		<circle class="st69" cx="529.3" cy="325.1" r="8.4"/>
		
			<radialGradient id="SVGID_40_" cx="461.94" cy="446.87" r="8.37" gradientTransform="matrix(1 0 0 -1 0 772)" gradientUnits="userSpaceOnUse">
			<stop  offset="0" style="stop-color:#FFFFFF"/>
			<stop  offset="0.13" style="stop-color:#FFFFFB"/>
			<stop  offset="0.26" style="stop-color:#FFFFEE"/>
			<stop  offset="0.39" style="stop-color:#FFFFDA"/>
			<stop  offset="0.53" style="stop-color:#FFFFBD"/>
			<stop  offset="0.66" style="stop-color:#FFFF98"/>
			<stop  offset="0.7" style="stop-color:#FFFF8C"/>
			<stop  offset="1" style="stop-color:#FFC728"/>
		</radialGradient>
		<circle class="st70" cx="461.9" cy="325.1" r="8.4"/>
	</g>
</g>
</svg>
