<?xml version="1.0" encoding="utf-8"?>
<!-- Generator: Adobe Illustrator 25.2.3, SVG Export Plug-In . SVG Version: 6.00 Build 0)  -->
<svg version="1.1" id="Layer_1" xmlns="http://www.w3.org/2000/svg" xmlns:xlink="http://www.w3.org/1999/xlink" x="0px" y="0px"
	 viewBox="0 0 780 770" style="enable-background:new 0 0 780 770;" xml:space="preserve">
<style type="text/css">
	.st0{fill:#7C5438;}
	.st1{opacity:0.5;}
	.st2{fill:#CE9F38;}
	.st3{fill:#E5AE41;}
	.st4{opacity:0.5;fill:#CE9F38;enable-background:new    ;}
	.st5{opacity:0.4;fill:#CE9F38;enable-background:new    ;}
	.st6{fill:#FFE3C7;}
	.st7{fill:url(#SVGID_1_);}
	.st8{fill:#C77B4B;}
	.st9{fill:#F0D9AA;}
	.st10{clip-path:url(#SVGID_3_);}
	.st11{fill:#26877D;}
	.st12{fill:url(#SVGID_4_);}
	.st13{fill:#C08872;}
	.st14{fill:#CD846B;}
	.st15{fill:#754E33;}
	.st16{fill:#6DC294;}
	.st17{fill:#62C19D;}
	.st18{fill:#4BACAF;}
	.st19{fill:#65C3AF;}
	.st20{fill:#104925;}
	.st21{fill:url(#SVGID_5_);}
	.st22{fill:#B48274;}
	.st23{fill:#C98A72;}
	.st24{fill:#7DC792;}
	.st25{fill:#2CB78B;}
	.st26{fill:url(#SVGID_6_);}
	.st27{fill:url(#SVGID_7_);}
	.st28{fill:url(#SVGID_8_);}
	.st29{fill:url(#SVGID_9_);}
	.st30{fill:url(#SVGID_10_);}
	.st31{fill-rule:evenodd;clip-rule:evenodd;fill:url(#SVGID_11_);}
	.st32{fill-rule:evenodd;clip-rule:evenodd;fill:url(#SVGID_12_);}
	.st33{fill-rule:evenodd;clip-rule:evenodd;fill:url(#SVGID_13_);}
	.st34{fill-rule:evenodd;clip-rule:evenodd;fill:url(#SVGID_14_);}
	.st35{fill-rule:evenodd;clip-rule:evenodd;fill:url(#SVGID_15_);}
	.st36{fill-rule:evenodd;clip-rule:evenodd;fill:url(#SVGID_16_);}
	.st37{fill-rule:evenodd;clip-rule:evenodd;fill:url(#SVGID_17_);}
	.st38{fill-rule:evenodd;clip-rule:evenodd;fill:url(#SVGID_18_);}
	.st39{fill-rule:evenodd;clip-rule:evenodd;fill:url(#SVGID_19_);}
	.st40{fill-rule:evenodd;clip-rule:evenodd;fill:url(#SVGID_20_);}
	.st41{fill-rule:evenodd;clip-rule:evenodd;fill:url(#SVGID_21_);}
	.st42{fill-rule:evenodd;clip-rule:evenodd;fill:url(#SVGID_22_);}
	.st43{fill-rule:evenodd;clip-rule:evenodd;fill:url(#SVGID_23_);}
	.st44{fill-rule:evenodd;clip-rule:evenodd;fill:url(#SVGID_24_);}
	.st45{fill-rule:evenodd;clip-rule:evenodd;fill:url(#SVGID_25_);}
	.st46{fill-rule:evenodd;clip-rule:evenodd;fill:url(#SVGID_26_);}
	.st47{fill-rule:evenodd;clip-rule:evenodd;fill:url(#SVGID_27_);}
	.st48{fill-rule:evenodd;clip-rule:evenodd;fill:url(#SVGID_28_);}
	.st49{fill-rule:evenodd;clip-rule:evenodd;fill:url(#SVGID_29_);}
	.st50{fill-rule:evenodd;clip-rule:evenodd;fill:url(#SVGID_30_);}
	.st51{fill-rule:evenodd;clip-rule:evenodd;fill:url(#SVGID_31_);}
	.st52{fill-rule:evenodd;clip-rule:evenodd;fill:url(#SVGID_32_);}
	.st53{fill-rule:evenodd;clip-rule:evenodd;fill:url(#SVGID_33_);}
	.st54{fill-rule:evenodd;clip-rule:evenodd;fill:url(#SVGID_34_);}
	.st55{fill:url(#SVGID_35_);}
	.st56{fill:url(#SVGID_36_);}
	.st57{fill:url(#SVGID_37_);}
	.st58{fill-rule:evenodd;clip-rule:evenodd;fill:url(#SVGID_38_);}
	.st59{fill-rule:evenodd;clip-rule:evenodd;fill:url(#SVGID_39_);}
	.st60{fill:url(#SVGID_40_);}
	.st61{fill:url(#SVGID_41_);}
	.st62{fill-rule:evenodd;clip-rule:evenodd;fill:#004F17;}
	.st63{fill-rule:evenodd;clip-rule:evenodd;fill:#003A17;}
	.st64{fill:#072918;}
	.st65{fill:#0B2F1F;}
	.st66{fill:url(#SVGID_42_);}
	.st67{fill:url(#SVGID_43_);}
	.st68{fill:url(#SVGID_44_);}
	.st69{fill:url(#SVGID_45_);}
	.st70{fill:url(#SVGID_46_);}
	.st71{fill:url(#SVGID_47_);}
	.st72{fill:url(#SVGID_48_);}
	.st73{fill:url(#SVGID_49_);}
	.st74{fill:url(#SVGID_50_);}
	.st75{fill:url(#SVGID_51_);}
	.st76{fill:url(#SVGID_52_);}
	.st77{fill:url(#SVGID_53_);}
	.st78{fill:url(#SVGID_54_);}
	.st79{fill:url(#SVGID_55_);}
	.st80{fill:url(#SVGID_56_);}
	.st81{fill:url(#SVGID_57_);}
	.st82{fill:url(#SVGID_58_);}
	.st83{fill:url(#SVGID_59_);}
	.st84{fill:url(#SVGID_60_);}
	.st85{fill:url(#SVGID_61_);}
	.st86{fill:url(#SVGID_62_);}
	.st87{fill:url(#SVGID_63_);}
	.st88{fill:url(#SVGID_64_);}
	.st89{fill:url(#SVGID_65_);}
	.st90{fill:url(#SVGID_66_);}
	.st91{fill:url(#SVGID_67_);}
	.st92{fill:url(#SVGID_68_);}
	.st93{fill:url(#SVGID_69_);}
	.st94{fill:url(#SVGID_70_);}
	.st95{fill:url(#SVGID_71_);}
	.st96{fill:url(#SVGID_72_);}
	.st97{fill:url(#SVGID_73_);}
	.st98{fill:url(#SVGID_74_);}
	.st99{fill:url(#SVGID_75_);}
	.st100{fill:url(#SVGID_76_);}
</style>
<path class="st0" d="M649.8,297.1c-9.9,0-17.9-8-17.9-17.9c0-9.9,8-17.9,17.9-17.9c9.9,0,17.9,8,17.9,17.9
	C667.7,289.1,659.7,297.1,649.8,297.1z M649.8,267.1c-6.7,0-12.1,5.4-12.1,12.2s5.4,12.1,12.2,12.1c6.7,0,12.1-5.4,12.1-12.2
	c0,0,0,0,0,0C662,272.5,656.6,267,649.8,267.1C649.9,267,649.9,267,649.8,267.1L649.8,267.1z"/>
<g class="st1">
	<path class="st2" d="M650,295.2c-8.9,0-16.2-7.2-16.2-16.2c0-8.9,7.2-16.2,16.2-16.2c8.9,0,16.2,7.2,16.2,16.2c0,0,0,0,0,0
		C666.2,287.9,659,295.2,650,295.2z M650,264.8c-7.9,0-14.3,6.4-14.3,14.3s6.4,14.3,14.3,14.3s14.3-6.4,14.3-14.3
		C664.3,271.1,657.9,264.8,650,264.8z"/>
</g>
<path class="st3" d="M643.4,265.4c-0.8-0.2-1.7-0.1-2.5,0.4l-1,0.6c-1.4,2.2-3.6,3.6-4.8,6.1c-0.6,1.3-1,2.8-1.2,4.2
	c-0.2,1.6,0.1,3.7,1.6,1.7s1.3-5.6,2.8-7.8C639.4,269,643.7,267,643.4,265.4z"/>
<path class="st3" d="M665,281c-1.4-0.3-2.5,5.8-3.6,7.2c-2.1,2.7-4.4,3.6-7.5,4.4l-0.6,0.2c-1.5,0.1-1.3,1.1,0,1.3
	c1-0.1,1.9-0.4,2.8-0.8c1.7-0.7,3.2-1.7,4.5-3C663,288.4,666.3,284.4,665,281z"/>
<rect x="646.3" y="296.3" class="st0" width="7.1" height="14"/>
<polygon class="st4" points="647.3,298 647.4,309.7 650.3,310.2 649.8,299.7 "/>
<path class="st0" d="M648.8,254.9c-8.8,0-15.9-7.1-15.9-15.9c0-8.8,7.1-15.9,15.9-15.9c8.8,0,15.9,7.1,15.9,15.9c0,0,0,0,0,0
	C664.7,247.8,657.6,254.9,648.8,254.9z M648.8,228.1c-6,0-10.8,4.8-10.8,10.8c0,6,4.8,10.8,10.8,10.8c6,0,10.8-4.8,10.8-10.8
	C659.7,233,654.8,228.1,648.8,228.1C648.8,228.1,648.8,228.1,648.8,228.1z"/>
<g class="st1">
	<path class="st2" d="M649,253.2c-8,0-14.4-6.5-14.4-14.4s6.5-14.4,14.4-14.4c8,0,14.4,6.5,14.4,14.4c0,0,0,0,0,0
		C663.4,246.7,657,253.2,649,253.2z M649,226.1c-7,0-12.7,5.7-12.7,12.7s5.7,12.7,12.7,12.7s12.7-5.7,12.7-12.7
		C661.7,231.8,656,226.1,649,226.1z"/>
</g>
<path class="st3" d="M643.1,226.6c-0.7-0.2-1.5-0.1-2.2,0.3l-0.8,0.5c-1.3,2-3.2,3.2-4.3,5.4c-0.5,1.2-0.9,2.5-1,3.8
	c-0.2,1.4,0.1,3.3,1.4,1.5s1.1-5,2.5-7C639.5,229.9,643.3,228.1,643.1,226.6z"/>
<path class="st3" d="M662.3,240.6c-1.3-0.3-2.2,5.2-3.2,6.4c-1.9,2.4-3.9,3.2-6.7,3.9l-0.5,0.2c-1.4,0.1-1.2,1,0,1.2
	c0.9-0.1,1.7-0.3,2.5-0.7c1.5-0.6,2.8-1.5,4-2.6C660.5,247.1,663.5,243.6,662.3,240.6z"/>
<path class="st0" d="M653.3,269.6c0,1.4-1.6,2.6-3.5,2.6l0,0c-2,0-3.5-1.2-3.5-2.6v-22.1c0-1.4,1.6-2.6,3.5-2.6l0,0
	c2,0,3.5,1.2,3.5,2.6V269.6z"/>
<path class="st5" d="M651.3,263c-0.1,1-1,1.8-2,1.8l0,0c-1,0-1.9-0.8-2-1.8v-15.1c0.1-1,1-1.8,2-1.8l0,0c1-0.1,1.9,0.7,2,1.8V263z"
	/>
<path class="st3" d="M649.2,254.3c-0.3-2.1,0.7-4,0.4-6c-0.3-0.1-0.6-0.2-0.9-0.3h-0.1c-1.3,1.3-0.2,4.4-0.3,6.1
	c0,0.9-1.1,5.4,0.5,5.4S649.3,255.1,649.2,254.3z"/>
<path class="st0" d="M649,211.6c-8.8,0-16-7.1-16-16c0-8.8,7.1-15.9,16-15.9c8.8,0,15.9,7.1,15.9,16c0,0,0,0,0,0
	C664.9,204.5,657.8,211.6,649,211.6z M649,184.8c-6,0-10.8,4.8-10.8,10.8c0,6,4.8,10.8,10.8,10.8c6,0,10.8-4.8,10.8-10.8
	C659.8,189.7,655,184.8,649,184.8z"/>
<g class="st1">
	<path class="st2" d="M649.1,209.9c-8,0-14.4-6.5-14.4-14.4s6.5-14.4,14.4-14.4c8,0,14.4,6.5,14.4,14.4c0,0,0,0,0,0
		C663.5,203.5,657.1,209.9,649.1,209.9z M649.1,182.8c-7,0-12.7,5.7-12.7,12.7s5.7,12.7,12.7,12.7s12.7-5.7,12.7-12.7
		C661.8,188.5,656.2,182.8,649.1,182.8z"/>
</g>
<path class="st3" d="M643.2,183.3c-0.7-0.2-1.5-0.1-2.2,0.3l-0.8,0.5c-1.3,2-3.2,3.2-4.3,5.4c-0.5,1.2-0.9,2.5-1,3.8
	c-0.2,1.4,0.1,3.3,1.4,1.5s1.1-5,2.5-7C639.7,186.6,643.5,184.8,643.2,183.3z"/>
<path class="st3" d="M662.5,197.3c-1.3-0.3-2.2,5.2-3.2,6.4c-1.9,2.4-3.9,3.2-6.7,3.9l-0.5,0.2c-1.4,0-1.2,1,0,1.2
	c0.9-0.1,1.7-0.3,2.5-0.7c1.5-0.6,2.8-1.5,4-2.6C660.6,203.9,663.7,200.3,662.5,197.3z"/>
<path class="st0" d="M653.3,229.8c0,1.4-1.6,2.6-3.5,2.6l0,0c-2,0-3.5-1.2-3.5-2.6v-22.1c0-1.4,1.6-2.6,3.5-2.6l0,0
	c2,0,3.5,1.2,3.5,2.6V229.8z"/>
<path class="st5" d="M651.3,223.1c-0.1,1-1,1.8-2,1.8l0,0c-1,0.1-1.9-0.7-2-1.8V208c0.1-1,1-1.8,2-1.8l0,0c1,0,1.9,0.8,2,1.8V223.1z
	"/>
<path class="st3" d="M649.2,214.4c-0.3-2.1,0.7-4,0.4-6c-0.3-0.1-0.6-0.2-0.9-0.3h-0.1c-1.3,1.3-0.2,4.4-0.3,6.1
	c0,0.9-1.1,5.4,0.5,5.4S649.3,215.2,649.2,214.4z"/>
<path class="st0" d="M649,166.9c-8.8,0-15.9-7.1-16-15.9c0-8.8,7.1-15.9,15.9-16c8.8,0,15.9,7.1,16,15.9c0,0,0,0,0,0
	C664.9,159.8,657.8,166.9,649,166.9z M649,140.1c-6,0-10.8,4.8-10.9,10.8c0,6,4.8,10.8,10.8,10.9c6,0,10.8-4.8,10.9-10.8
	c0,0,0,0,0,0C659.8,145,655,140.2,649,140.1z"/>
<g class="st1">
	<path class="st2" d="M649.1,165.2c-8,0-14.4-6.5-14.4-14.4s6.5-14.4,14.4-14.4c8,0,14.4,6.5,14.4,14.4c0,0,0,0,0,0
		C663.5,158.8,657.1,165.2,649.1,165.2z M649.1,138.1c-7,0-12.7,5.7-12.7,12.7c0,7,5.7,12.7,12.7,12.7c7,0,12.7-5.7,12.7-12.7
		C661.8,143.8,656.2,138.1,649.1,138.1z"/>
</g>
<path class="st3" d="M643.2,138.6c-0.8-0.2-1.6,0-2.2,0.4l-0.8,0.5c-1.3,2-3.2,3.2-4.3,5.4c-0.5,1.2-0.9,2.5-1,3.8
	c-0.2,1.4,0.1,3.3,1.4,1.5s1.1-5,2.5-7C639.7,141.9,643.5,140.1,643.2,138.6z"/>
<path class="st3" d="M662.5,152.6c-1.3-0.3-2.2,5.2-3.2,6.4c-1.9,2.4-3.9,3.2-6.7,3.9l-0.5,0.2c-1.4,0.1-1.2,1,0,1.2
	c0.9-0.1,1.7-0.3,2.5-0.7c1.5-0.6,2.8-1.5,4-2.6C660.6,159.2,663.7,155.6,662.5,152.6z"/>
<path class="st0" d="M653.3,185.1c0,1.4-1.6,2.6-3.5,2.6l0,0c-2,0-3.5-1.2-3.5-2.6V163c0-1.4,1.6-2.6,3.5-2.6l0,0
	c2,0,3.5,1.2,3.5,2.6V185.1z"/>
<path class="st5" d="M651.3,178.4c-0.1,1-1,1.8-2,1.8l0,0c-1,0.1-1.9-0.7-2-1.8v-15.1c0.1-1,1-1.8,2-1.8l0,0c1-0.1,1.9,0.7,2,1.8
	V178.4z"/>
<path class="st3" d="M649.2,169.7c-0.3-2.1,0.7-4,0.4-6c-0.3-0.1-0.6-0.2-0.9-0.3h-0.1c-1.3,1.3-0.2,4.4-0.3,6.1
	c0,0.9-1.1,5.4,0.5,5.4S649.3,170.6,649.2,169.7z"/>
<path class="st0" d="M649,121.8c-8.8,0-15.9-7.1-15.9-16c0-8.8,7.1-15.9,16-15.9c8.8,0,15.9,7.1,15.9,15.9
	C664.9,114.7,657.8,121.8,649,121.8z M649,95.1c-6,0-10.8,4.8-10.9,10.8c0,6,4.8,10.8,10.8,10.9c6,0,10.8-4.8,10.9-10.8c0,0,0,0,0,0
	C659.8,99.9,655,95.1,649,95.1z"/>
<g class="st1">
	<path class="st2" d="M649.1,120.1c-8,0-14.4-6.5-14.4-14.4s6.5-14.4,14.4-14.4s14.4,6.5,14.4,14.4c0,0,0,0,0,0
		C663.5,113.7,657.1,120.1,649.1,120.1z M649.1,93c-7,0-12.7,5.7-12.7,12.7s5.7,12.7,12.7,12.7c7,0,12.7-5.7,12.7-12.7
		C661.9,98.7,656.2,93,649.1,93L649.1,93L649.1,93z"/>
</g>
<path class="st3" d="M643.2,93.6c-0.7-0.2-1.5-0.1-2.2,0.3l-0.8,0.5c-1.3,2-3.2,3.2-4.3,5.4c-0.5,1.2-0.9,2.5-1,3.8
	c-0.2,1.4,0.1,3.3,1.4,1.5s1.1-5,2.5-7C639.7,96.8,643.5,95.1,643.2,93.6z"/>
<path class="st3" d="M662.5,107.6c-1.3-0.3-2.2,5.2-3.2,6.4c-1.9,2.4-3.9,3.2-6.7,3.9l-0.5,0.2c-1.4,0-1.2,1,0,1.2
	c0.9-0.1,1.7-0.3,2.5-0.7c1.5-0.6,2.8-1.5,4-2.6C660.6,114.1,663.7,110.5,662.5,107.6z"/>
<path class="st0" d="M653.3,140c0,1.4-1.6,2.6-3.5,2.6l0,0c-2,0-3.5-1.2-3.5-2.6v-22.1c0-1.4,1.6-2.6,3.5-2.6l0,0
	c2,0,3.5,1.2,3.5,2.6V140z"/>
<path class="st5" d="M651.3,133.3c-0.1,1-1,1.8-2,1.8l0,0c-1,0.1-1.9-0.7-2-1.8v-15.1c0.1-1,1-1.8,2-1.8l0,0c1-0.1,1.9,0.7,2,1.8
	V133.3z"/>
<path class="st3" d="M649.2,124.6c-0.3-2.1,0.7-4,0.4-6c-0.3-0.1-0.6-0.2-0.9-0.3h-0.1c-1.3,1.3-0.2,4.4-0.3,6.1
	c0,0.9-1.1,5.4,0.5,5.4S649.3,125.5,649.2,124.6z"/>
<path class="st0" d="M649,77c-8.8,0-16-7.1-16-16c0-8.8,7.1-15.9,16-15.9c8.8,0,15.9,7.1,15.9,16c0,0,0,0,0,0
	C664.9,69.9,657.8,77,649,77z M649,50.2c-6,0-10.8,4.8-10.9,10.8c0,6,4.8,10.8,10.8,10.9c6,0,10.8-4.8,10.9-10.8c0,0,0,0,0,0
	C659.8,55.1,655,50.3,649,50.2L649,50.2z"/>
<g class="st1">
	<path class="st2" d="M649.1,75.3c-8,0-14.4-6.5-14.4-14.4s6.5-14.4,14.4-14.4s14.4,6.5,14.4,14.4c0,0,0,0,0,0
		C663.5,68.9,657.1,75.3,649.1,75.3z M649.1,48.2c-7,0-12.7,5.7-12.7,12.7c0,7,5.7,12.7,12.7,12.7s12.7-5.7,12.7-12.7c0,0,0,0,0,0
		C661.8,53.9,656.2,48.2,649.1,48.2z"/>
</g>
<path class="st3" d="M643.2,48.7c-0.7-0.2-1.5-0.1-2.2,0.3l-0.8,0.5c-1.3,2-3.2,3.2-4.3,5.4c-0.5,1.2-0.9,2.5-1,3.8
	c-0.2,1.5,0.1,3.3,1.4,1.5s1.1-5,2.5-7C639.7,52,643.5,50.2,643.2,48.7z"/>
<path class="st3" d="M662.5,62.7c-1.3-0.3-2.2,5.2-3.2,6.4c-1.9,2.4-3.9,3.2-6.7,3.9l-0.5,0.2c-1.4,0-1.2,1,0,1.2
	c0.9-0.1,1.7-0.3,2.5-0.7c1.5-0.6,2.8-1.5,4-2.6C660.6,69.3,663.7,65.7,662.5,62.7z"/>
<path class="st0" d="M653.3,95.2c0,1.4-1.6,2.6-3.5,2.6l0,0c-2,0-3.5-1.2-3.5-2.6V73.1c0-1.4,1.6-2.6,3.5-2.6l0,0
	c2,0,3.5,1.2,3.5,2.6V95.2z"/>
<path class="st5" d="M651.3,88.5c-0.1,1-1,1.8-2,1.8l0,0c-1,0.1-1.9-0.7-2-1.8V73.4c0.1-1,1-1.8,2-1.8l0,0c1,0,1.9,0.8,2,1.8V88.5z"
	/>
<path class="st3" d="M649.2,79.8c-0.3-2.1,0.7-4,0.4-6c-0.3-0.1-0.6-0.2-0.9-0.3h-0.1c-1.3,1.3-0.2,4.4-0.3,6.1
	c0,0.9-1.1,5.4,0.5,5.4S649.3,80.6,649.2,79.8z"/>
<path class="st0" d="M649,34.5c-8.8,0-16-7.1-16-16c0-8.8,7.1-15.9,16-15.9c8.8,0,16,7.1,16,15.9C664.9,27.3,657.8,34.5,649,34.5z
	 M649,7.7c-6,0-10.8,4.8-10.9,10.8c0,6,4.8,10.8,10.8,10.9c6,0,10.8-4.8,10.9-10.8c0,0,0,0,0,0C659.8,12.6,655,7.7,649,7.7z"/>
<g class="st1">
	<path class="st2" d="M649.1,32.8c-8,0-14.4-6.5-14.4-14.4S641.2,4,649.1,4s14.4,6.5,14.4,14.4c0,0,0,0,0,0
		C663.5,26.3,657.1,32.8,649.1,32.8z M649.1,5.7c-7,0-12.7,5.7-12.7,12.7s5.7,12.7,12.7,12.7c7,0,12.7-5.7,12.7-12.7c0,0,0,0,0,0
		C661.8,11.3,656.2,5.7,649.1,5.7z"/>
</g>
<path class="st3" d="M643.2,6.2c-0.7-0.2-1.5,0-2.2,0.3L640.2,7c-1.3,2-3.2,3.2-4.3,5.4c-0.5,1.2-0.9,2.5-1,3.8
	c-0.2,1.5,0.1,3.3,1.4,1.5s1.1-5,2.5-7C639.7,9.4,643.5,7.7,643.2,6.2z"/>
<path class="st3" d="M662.5,20.2c-1.3-0.3-2.2,5.2-3.2,6.5c-1.9,2.4-3.9,3.2-6.7,3.9l-0.5,0.2c-1.4,0-1.2,1,0,1.2
	c0.9-0.1,1.7-0.3,2.5-0.7c1.5-0.6,2.8-1.5,4-2.6C660.6,26.7,663.7,23.1,662.5,20.2z"/>
<path class="st0" d="M653.3,52.6c0,1.5-1.6,2.6-3.5,2.6l0,0c-2,0-3.5-1.2-3.5-2.6V30.5c0-1.5,1.6-2.6,3.5-2.6l0,0
	c2,0,3.5,1.2,3.5,2.6V52.6z"/>
<path class="st5" d="M651.3,46c-0.1,1-1,1.8-2,1.8l0,0c-1,0-1.9-0.8-2-1.8V30.9c0.1-1,1-1.8,2-1.8l0,0c1-0.1,1.9,0.7,2,1.8V46z"/>
<path class="st3" d="M649.2,37.3c-0.3-2.1,0.7-4,0.4-6c-0.3-0.1-0.6-0.2-0.9-0.3h-0.1c-1.3,1.3-0.2,4.4-0.3,6.1
	c0,0.9-1.1,5.4,0.5,5.4S649.3,38.1,649.2,37.3z"/>
<path class="st0" d="M130.1,297.1c-9.9,0-17.9-8-17.9-17.8c0-9.9,8-17.9,17.8-17.9s17.9,8,17.9,17.8c0,0,0,0,0,0
	C148,289.1,140,297,130.1,297.1z M130.1,267.1c-6.7,0-12.2,5.4-12.2,12.1c0,6.7,5.4,12.2,12.1,12.2c6.7,0,12.2-5.4,12.2-12.1
	c0,0,0,0,0,0C142.3,272.5,136.9,267,130.1,267.1C130.2,267,130.2,267,130.1,267.1L130.1,267.1z"/>
<g class="st1">
	<path class="st2" d="M130.3,295.2c-8.9,0-16.2-7.2-16.2-16.2s7.2-16.2,16.2-16.2s16.2,7.2,16.2,16.2c0,0,0,0,0,0
		C146.5,287.9,139.3,295.2,130.3,295.2z M130.3,264.8c-7.9,0-14.3,6.4-14.3,14.3s6.4,14.3,14.3,14.3s14.3-6.4,14.3-14.3
		C144.6,271.1,138.2,264.8,130.3,264.8z"/>
</g>
<path class="st3" d="M123.7,265.4c-0.8-0.2-1.7-0.1-2.5,0.4l-1,0.6c-1.4,2.2-3.6,3.6-4.8,6.1c-0.6,1.3-1,2.8-1.2,4.2
	c-0.2,1.6,0.2,3.7,1.6,1.7s1.3-5.6,2.8-7.8C119.7,269,124,267,123.7,265.4z"/>
<path class="st3" d="M145.3,281c-1.4-0.3-2.5,5.8-3.6,7.2c-2.1,2.7-4.4,3.6-7.5,4.4l-0.6,0.2c-1.5,0.1-1.3,1.1,0,1.3
	c1-0.1,1.9-0.4,2.8-0.8c1.7-0.7,3.2-1.7,4.5-3C143.2,288.4,146.6,284.4,145.3,281z"/>
<rect x="126.6" y="296.3" class="st0" width="7.1" height="14"/>
<polygon class="st4" points="127.6,298 127.7,309.7 130.6,310.2 130.1,299.7 "/>
<path class="st0" d="M129.1,254.9c-8.8,0-16-7.1-16-15.9c0-8.8,7.1-16,15.9-16c8.8,0,16,7.1,16,15.9c0,0,0,0.1,0,0.1
	C144.9,247.8,137.8,254.8,129.1,254.9z M129.1,228.1c-6,0-10.8,4.8-10.8,10.8c0,6,4.8,10.8,10.8,10.8c6,0,10.8-4.8,10.8-10.8
	C139.9,233,135.1,228.1,129.1,228.1C129.1,228.1,129.1,228.1,129.1,228.1z"/>
<g class="st1">
	<path class="st2" d="M129.3,253.2c-8,0-14.4-6.5-14.4-14.4s6.5-14.4,14.4-14.4c8,0,14.4,6.5,14.4,14.4
		C143.7,246.7,137.2,253.2,129.3,253.2z M129.3,226.1c-7,0-12.7,5.7-12.7,12.7c0,7,5.7,12.7,12.7,12.7c7,0,12.7-5.7,12.7-12.7
		C142,231.8,136.3,226.1,129.3,226.1C129.3,226.1,129.3,226.1,129.3,226.1z"/>
</g>
<path class="st3" d="M123.4,226.6c-0.7-0.2-1.5-0.1-2.2,0.3l-0.8,0.5c-1.3,2-3.2,3.2-4.3,5.4c-0.5,1.2-0.9,2.5-1,3.8
	c-0.2,1.4,0.1,3.3,1.4,1.5s1.1-5,2.5-7C119.8,229.9,123.6,228.1,123.4,226.6z"/>
<path class="st3" d="M142.6,240.6c-1.3-0.3-2.2,5.2-3.2,6.4c-1.9,2.4-3.9,3.2-6.6,3.9l-0.5,0.2c-1.4,0.1-1.2,1,0,1.2
	c0.9-0.1,1.7-0.3,2.5-0.7c1.5-0.6,2.8-1.5,4-2.6C140.8,247.1,143.8,243.6,142.6,240.6z"/>
<path class="st0" d="M133.6,269.6c0,1.4-1.6,2.6-3.5,2.6l0,0c-1.9,0-3.5-1.2-3.5-2.6v-22.1c0-1.4,1.6-2.6,3.5-2.6l0,0
	c2,0,3.5,1.2,3.5,2.6V269.6z"/>
<path class="st5" d="M131.6,263c-0.1,1-1,1.8-2,1.8l0,0c-1,0-1.9-0.8-2-1.8v-15.1c0.1-1,1-1.8,2-1.8l0,0c1-0.1,1.9,0.7,2,1.8V263z"
	/>
<path class="st3" d="M129.5,254.3c-0.3-2.1,0.7-4,0.4-6c-0.3-0.1-0.6-0.2-0.9-0.3h-0.1c-1.3,1.3-0.2,4.4-0.3,6.1
	c0,0.9-1.1,5.4,0.5,5.4S129.6,255.1,129.5,254.3z"/>
<path class="st0" d="M129.3,211.6c-8.8,0-15.9-7.2-15.9-16s7.2-15.9,16-15.9c8.8,0,15.9,7.2,15.9,16
	C145.2,204.5,138.1,211.6,129.3,211.6z M129.3,184.8c-6,0-10.8,4.8-10.8,10.8s4.8,10.8,10.8,10.8c6,0,10.8-4.8,10.8-10.8
	C140.1,189.7,135.2,184.8,129.3,184.8z"/>
<g class="st1">
	<path class="st2" d="M129.4,209.9c-8,0-14.4-6.5-14.4-14.4c0-8,6.5-14.4,14.4-14.4c8,0,14.4,6.5,14.4,14.4c0,0,0,0,0,0
		C143.8,203.5,137.4,209.9,129.4,209.9z M129.4,182.8c-7,0-12.7,5.7-12.7,12.7c0,7,5.7,12.7,12.7,12.7c7,0,12.7-5.7,12.7-12.7
		C142.1,188.5,136.4,182.8,129.4,182.8z"/>
</g>
<path class="st3" d="M123.5,183.3c-0.7-0.2-1.5-0.1-2.2,0.3l-0.8,0.5c-1.3,2-3.2,3.2-4.3,5.4c-0.5,1.2-0.9,2.5-1,3.8
	c-0.2,1.4,0.1,3.3,1.4,1.5s1.1-5,2.5-7C120,186.6,123.8,184.8,123.5,183.3z"/>
<path class="st3" d="M142.8,197.3c-1.3-0.3-2.2,5.2-3.2,6.4c-1.9,2.4-3.9,3.2-6.6,3.9l-0.5,0.2c-1.4,0-1.2,1,0,1.2
	c0.9-0.1,1.7-0.3,2.5-0.7c1.5-0.6,2.8-1.5,4-2.6C140.9,203.9,144,200.3,142.8,197.3z"/>
<path class="st0" d="M133.6,229.8c0,1.4-1.6,2.6-3.5,2.6l0,0c-2,0-3.5-1.2-3.5-2.6v-22.1c0-1.4,1.6-2.6,3.5-2.6l0,0
	c1.9,0,3.5,1.2,3.5,2.6V229.8z"/>
<path class="st5" d="M131.6,223.1c-0.1,1-1,1.8-2,1.8l0,0c-1,0.1-1.9-0.7-2-1.8V208c0.1-1,1-1.8,2-1.8l0,0c1,0,1.9,0.8,2,1.8V223.1z
	"/>
<path class="st3" d="M129.4,214.4c-0.3-2.1,0.7-4,0.4-6c-0.3-0.1-0.6-0.2-0.9-0.3h-0.1c-1.3,1.3-0.2,4.4-0.3,6.1
	c-0.1,0.9-1.1,5.4,0.5,5.4S129.6,215.2,129.4,214.4z"/>
<path class="st0" d="M129.3,166.9c-8.8,0-15.9-7.2-15.9-16c0-8.8,7.2-15.9,16-15.9c8.8,0,15.9,7.2,15.9,15.9
	C145.2,159.8,138.1,166.9,129.3,166.9z M129.3,140.1c-6,0-10.8,4.8-10.8,10.8c0,6,4.8,10.8,10.8,10.8c6,0,10.8-4.8,10.8-10.8
	C140.1,145,135.2,140.2,129.3,140.1L129.3,140.1z"/>
<g class="st1">
	<path class="st2" d="M129.4,165.2c-8,0-14.4-6.5-14.4-14.4s6.5-14.4,14.4-14.4c8,0,14.4,6.5,14.4,14.4
		C143.8,158.8,137.4,165.2,129.4,165.2z M129.4,138.1c-7,0-12.7,5.7-12.7,12.7c0,7,5.7,12.7,12.7,12.7c7,0,12.7-5.7,12.7-12.7
		C142.1,143.8,136.4,138.1,129.4,138.1z"/>
</g>
<path class="st3" d="M123.5,138.6c-0.7-0.2-1.5,0-2.2,0.3l-0.8,0.5c-1.3,2-3.2,3.2-4.3,5.4c-0.5,1.2-0.9,2.5-1,3.8
	c-0.2,1.4,0.1,3.3,1.4,1.5s1.1-5,2.5-7C120,141.9,123.8,140.1,123.5,138.6z"/>
<path class="st3" d="M142.8,152.6c-1.3-0.3-2.2,5.2-3.2,6.4c-1.9,2.4-3.9,3.2-6.6,3.9l-0.5,0.2c-1.4,0.1-1.2,1,0,1.2
	c0.9-0.1,1.7-0.3,2.5-0.7c1.5-0.6,2.8-1.5,4-2.6C140.9,159.2,144,155.6,142.8,152.6z"/>
<path class="st0" d="M133.6,185.1c0,1.4-1.6,2.6-3.5,2.6l0,0c-2,0-3.5-1.2-3.5-2.6V163c0-1.4,1.6-2.6,3.5-2.6l0,0
	c1.9,0,3.5,1.2,3.5,2.6V185.1z"/>
<path class="st5" d="M131.6,178.4c-0.1,1-1,1.8-2,1.8l0,0c-1,0.1-1.9-0.7-2-1.8v-15.1c0.1-1,1-1.8,2-1.8l0,0c1-0.1,1.9,0.7,2,1.8
	V178.4z"/>
<path class="st3" d="M129.4,169.7c-0.3-2.1,0.7-4,0.4-6c-0.3-0.1-0.6-0.2-0.9-0.3h-0.1c-1.3,1.3-0.2,4.4-0.3,6.1
	c-0.1,0.9-1.1,5.4,0.5,5.4S129.6,170.6,129.4,169.7z"/>
<path class="st0" d="M129.3,121.8c-8.8,0-15.9-7.2-15.9-16c0-8.8,7.2-15.9,16-15.9c8.8,0,15.9,7.2,15.9,15.9
	C145.2,114.7,138.1,121.8,129.3,121.8z M129.3,95.1c-6,0-10.8,4.8-10.8,10.8c0,6,4.8,10.8,10.8,10.8c6,0,10.8-4.8,10.8-10.8
	C140.1,99.9,135.2,95.1,129.3,95.1z"/>
<g class="st1">
	<path class="st2" d="M129.4,120.1c-8,0-14.4-6.5-14.4-14.4s6.5-14.4,14.4-14.4s14.4,6.5,14.4,14.4
		C143.8,113.7,137.4,120.1,129.4,120.1z M129.4,93c-7,0-12.7,5.7-12.7,12.7c0,7,5.7,12.7,12.7,12.7c7,0,12.7-5.7,12.7-12.7
		C142.1,98.7,136.5,93,129.4,93C129.4,93,129.4,93,129.4,93L129.4,93z"/>
</g>
<path class="st3" d="M123.5,93.6c-0.7-0.2-1.5-0.1-2.2,0.3l-0.8,0.5c-1.3,2-3.2,3.2-4.3,5.4c-0.5,1.2-0.9,2.5-1,3.8
	c-0.2,1.4,0.1,3.3,1.4,1.5s1.1-5,2.5-7C120,96.8,123.8,95.1,123.5,93.6z"/>
<path class="st3" d="M142.8,107.6c-1.3-0.3-2.2,5.2-3.2,6.4c-1.9,2.4-3.9,3.2-6.6,3.9l-0.5,0.2c-1.4,0-1.2,1,0,1.2
	c0.9-0.1,1.7-0.3,2.5-0.7c1.5-0.6,2.8-1.5,4-2.6C140.9,114.1,144,110.5,142.8,107.6z"/>
<path class="st0" d="M133.6,140c0,1.4-1.6,2.6-3.5,2.6l0,0c-2,0-3.5-1.2-3.5-2.6v-22.1c0-1.4,1.6-2.6,3.5-2.6l0,0
	c1.9,0,3.5,1.2,3.5,2.6V140z"/>
<path class="st5" d="M131.6,133.3c-0.1,1-1,1.8-2,1.8l0,0c-1,0.1-1.9-0.7-2-1.8v-15.1c0.1-1,1-1.8,2-1.8l0,0c1-0.1,1.9,0.7,2,1.8
	V133.3z"/>
<path class="st3" d="M129.4,124.6c-0.3-2.1,0.7-4,0.4-6c-0.3-0.1-0.6-0.2-0.9-0.3h-0.1c-1.3,1.3-0.2,4.4-0.3,6.1
	c-0.1,0.9-1.1,5.4,0.5,5.4S129.6,125.5,129.4,124.6z"/>
<path class="st0" d="M129.3,77c-8.8,0-15.9-7.2-15.9-16s7.2-15.9,16-15.9c8.8,0,15.9,7.2,15.9,16C145.2,69.9,138.1,77,129.3,77z
	 M129.3,50.2c-6,0-10.8,4.8-10.8,10.8s4.8,10.8,10.8,10.8c6,0,10.8-4.8,10.8-10.8C140.1,55.1,135.2,50.2,129.3,50.2L129.3,50.2z"/>
<g class="st1">
	<path class="st2" d="M129.4,75.3c-8,0-14.4-6.5-14.4-14.4s6.5-14.4,14.4-14.4c8,0,14.4,6.5,14.4,14.4l0,0
		C143.8,68.9,137.4,75.3,129.4,75.3z M129.4,48.2c-7,0-12.7,5.7-12.7,12.7c0,7,5.7,12.7,12.7,12.7c7,0,12.7-5.7,12.7-12.7
		C142.1,53.9,136.4,48.2,129.4,48.2z"/>
</g>
<path class="st3" d="M123.5,48.7c-0.7-0.2-1.5-0.1-2.2,0.3l-0.8,0.5c-1.3,2-3.2,3.2-4.3,5.4c-0.5,1.2-0.9,2.5-1,3.8
	c-0.2,1.5,0.1,3.3,1.4,1.5s1.1-5,2.5-7C120,52,123.8,50.2,123.5,48.7z"/>
<path class="st3" d="M142.8,62.7c-1.3-0.3-2.2,5.2-3.2,6.4c-1.9,2.4-3.9,3.2-6.6,3.9l-0.5,0.2c-1.4,0-1.2,1,0,1.2
	c0.9-0.1,1.7-0.3,2.5-0.7c1.5-0.6,2.8-1.5,4-2.6C140.9,69.3,144,65.7,142.8,62.7z"/>
<path class="st0" d="M133.6,95.2c0,1.4-1.6,2.6-3.5,2.6l0,0c-2,0-3.5-1.2-3.5-2.6V73.1c0-1.4,1.6-2.6,3.5-2.6l0,0
	c1.9,0,3.5,1.2,3.5,2.6V95.2z"/>
<path class="st5" d="M131.6,88.5c-0.1,1-1,1.8-2,1.8l0,0c-1,0.1-1.9-0.7-2-1.8V73.4c0.1-1,1-1.8,2-1.8l0,0c1,0,1.9,0.8,2,1.8V88.5z"
	/>
<path class="st3" d="M129.4,79.8c-0.3-2.1,0.7-4,0.4-6c-0.3-0.1-0.6-0.2-0.9-0.3h-0.1c-1.3,1.3-0.2,4.4-0.3,6.1
	c-0.1,0.9-1.1,5.4,0.5,5.4S129.6,80.6,129.4,79.8z"/>
<path class="st0" d="M129.3,34.5c-8.8,0-15.9-7.2-15.9-16c0-8.8,7.2-15.9,16-15.9c8.8,0,15.9,7.2,15.9,15.9
	C145.2,27.3,138.1,34.5,129.3,34.5z M129.3,7.7c-6,0-10.8,4.8-10.8,10.8s4.8,10.8,10.8,10.8c6,0,10.8-4.8,10.8-10.8
	C140.1,12.6,135.2,7.7,129.3,7.7z"/>
<g class="st1">
	<path class="st2" d="M129.4,32.8c-8,0-14.4-6.5-14.4-14.4S121.5,3.9,129.4,4c8,0,14.4,6.5,14.4,14.4
		C143.8,26.3,137.4,32.8,129.4,32.8z M129.4,5.7c-7,0-12.7,5.7-12.7,12.7c0,7,5.7,12.7,12.7,12.7c7,0,12.7-5.7,12.7-12.7
		c0,0,0,0,0,0C142.1,11.3,136.4,5.7,129.4,5.7z"/>
</g>
<path class="st3" d="M123.5,6.2c-0.7-0.2-1.5,0-2.2,0.3L120.5,7c-1.3,2-3.2,3.2-4.3,5.4c-0.5,1.2-0.9,2.5-1,3.8
	c-0.2,1.5,0.1,3.3,1.4,1.5s1.1-5,2.5-7C120,9.4,123.8,7.7,123.5,6.2z"/>
<path class="st3" d="M142.8,20.2c-1.3-0.3-2.2,5.2-3.2,6.5c-1.9,2.4-3.9,3.2-6.6,3.9l-0.5,0.2c-1.4,0-1.2,1,0,1.2
	c0.9-0.1,1.7-0.3,2.5-0.7c1.5-0.6,2.8-1.5,4-2.6C140.9,26.7,144,23.1,142.8,20.2z"/>
<path class="st0" d="M133.6,52.6c0,1.5-1.6,2.6-3.5,2.6l0,0c-2,0-3.5-1.2-3.5-2.6V30.5c0-1.5,1.6-2.6,3.5-2.6l0,0
	c1.9,0,3.5,1.2,3.5,2.6V52.6z"/>
<path class="st5" d="M131.6,46c-0.1,1-1,1.8-2,1.8l0,0c-1,0-1.9-0.8-2-1.8V30.9c0.1-1,1-1.8,2-1.8l0,0c1-0.1,1.9,0.7,2,1.8V46z"/>
<path class="st3" d="M129.4,37.3c-0.3-2.1,0.7-4,0.4-6c-0.3-0.1-0.6-0.2-0.9-0.3h-0.1c-1.3,1.3-0.2,4.4-0.3,6.1
	c-0.1,0.9-1.1,5.4,0.5,5.4S129.6,38.1,129.4,37.3z"/>
<path class="st6" d="M43.7,310.5h692.5c21.2,0,38.5,17.2,38.5,38.5v379.9c0,21.2-17.2,38.5-38.5,38.5H43.7
	c-21.2,0-38.5-17.2-38.5-38.5V349C5.3,327.8,22.5,310.5,43.7,310.5z"/>
<linearGradient id="SVGID_1_" gradientUnits="userSpaceOnUse" x1="389.995" y1="-15.43" x2="389.995" y2="490.45" gradientTransform="matrix(1 0 0 -1 0 772)">
	<stop  offset="0" style="stop-color:#B11107"/>
	<stop  offset="0.26" style="stop-color:#C21608"/>
	<stop  offset="0.72" style="stop-color:#DA1E0A"/>
	<stop  offset="1" style="stop-color:#E3210B"/>
</linearGradient>
<path class="st7" d="M43.7,313h692.5c19.9,0,36.1,16.1,36.1,36.1v379.9c0,19.9-16.1,36.1-36.1,36.1H43.7
	c-19.9,0-36.1-16.1-36.1-36.1V349C7.7,329.1,23.8,313,43.7,313z"/>
<path class="st6" d="M43.7,337h692.5c6.6,0,12,5.4,12,12v379.9c0,6.6-5.4,12-12,12H43.7c-6.6,0-12-5.4-12-12V349
	C31.7,342.4,37.1,337,43.7,337z"/>
<path class="st8" d="M43.7,339.4h692.5c5.3,0,9.6,4.3,9.6,9.6v379.9c0,5.3-4.3,9.6-9.6,9.6H43.7c-5.3,0-9.6-4.3-9.6-9.6V349
	C34.1,343.7,38.4,339.4,43.7,339.4z"/>
<path class="st9" d="M43.7,346.2h692.5c1.3,0,2.4,1.1,2.4,2.4v379.9c0,1.3-1.1,2.4-2.4,2.4H43.7c-1.3,0-2.4-1.1-2.4-2.4V348.6
	C41.3,347.3,42.4,346.2,43.7,346.2z"/>
<g>
	<defs>
		<path id="SVGID_2_" d="M43.7,346.2h692.5c1.3,0,2.4,1.1,2.4,2.4v379.9c0,1.3-1.1,2.4-2.4,2.4H43.7c-1.3,0-2.4-1.1-2.4-2.4V348.6
			C41.3,347.3,42.4,346.2,43.7,346.2z"/>
	</defs>
	<clipPath id="SVGID_3_">
		<use xlink:href="#SVGID_2_"  style="overflow:visible;"/>
	</clipPath>
	<g class="st10">
		<polygon class="st11" points="781,719.5 782,283.2 0.1,283.2 0.1,716.8 		"/>
		
			<linearGradient id="SVGID_4_" gradientUnits="userSpaceOnUse" x1="45.3224" y1="69.1197" x2="38.7824" y2="404.1096" gradientTransform="matrix(1 0 0 -1 0 772)">
			<stop  offset="0" style="stop-color:#8C7D62"/>
			<stop  offset="0.29" style="stop-color:#817C63"/>
			<stop  offset="0.78" style="stop-color:#727B64"/>
		</linearGradient>
		<path class="st12" d="M150.2,682.1c0.2-0.7-1.6-1.9-3.3-4.7c-1.1-2-1.8-4.2-2.1-6.4c-1.4-6.8-6.9-14.9-8.7-17.9
			c-5.7-9.6-8.4-23.9-12.9-47.8c-2-10.3-4.2-24.2-5.7-41c-0.3-23.8,2.3-41.7,7.8-52c5.9-11.4,11.2-23.2,15.6-35.2c0,0,32.2,1.8,35,0
			s10.6-10.3,9.2-32.4l0.5-5.3l-8.3,2.9c0,0-2.6,19.8-13.2,21.3c-12.7,2.1-27.1-7.4-25-21.3H130c0,0,2.8,40.6-11.1,49.2
			c-10.4,3.4-16.5-2-16-25.7l0.5-23.8H86.9c0,0,1,25.3,0,26.8s-8.3,17.2-16-15C64.2,431,68,441.9,68,441.9l-9,0.3
			c0,0,4,25,17.2,40.6c8.7,15,9,40.1,2.4,49c-7.1,8.9-19.1,13.8-28.3-38.9c-6.1-34.9-7.8-50.7-7.8-50.7l-12.7-0.2
			c0,0,5.2,41.7,4.3,49.1c-1.2,8.3-1.7,33.7-29.5,23c-14.5-2.6-43.4-12-55.5-40.1c-4.5-23.9-3.5-33.1-3.5-33.1l-10.4-0.3
			c0,0,0.2,13.8,2.4,17.5c-6.6,0.5-13.1-1.2-18.5-5c-10.7-7.2-15-19.5-16.2-23.1l-8.3-0.4c1.9,6.4,4.7,12.5,8.4,18
			c8.2,12.1,19.6,18.7,28,20.3c1.7,0.3,8.3,1.4,8.3,1.8c0,0.1-0.5,0.1-0.5,0.1s2.1,36.1,35.4,52.7c29.7,14.4,42.7,21.8,50.3,27.6
			s12.8,12,11.6,31.9c-1.2,15.9-0.5,31.9,2.1,47.6c2.9,17.8,8.4,35.1,16.3,51.3c25.6,1,41.9,1.1,52.5,1c21.1-0.3,33.1-1.6,39.4,0.3
			C146.2,682,149.9,683.1,150.2,682.1z"/>
		<path class="st13" d="M117.1,559.1c-8.2,6.2-15,14-20,23c-22.6,40.1-7.2,92.9-5.5,98.6l59.6,1.4c-4.2-7.6-8.1-15.5-11.5-23.5
			C124.1,621.8,118.8,585.8,117.1,559.1z"/>
		<path class="st14" d="M48.4,483.2c0,0,11,53.1,19.7,52.7C59.1,541.3,42.4,526.6,48.4,483.2z"/>
		<path class="st15" d="M110.2,623c-1.2,0.3-2.4,0.5-3.6,0.5c-1.2,0.1-2.5-0.3-3.4-1.1c-0.4-0.4-0.8-1-0.9-1.6
			c-0.1-0.6-0.2-1.2-0.1-1.8c0.1-1.2,0.5-2.4,0.9-3.6c0.9-2.3,2.1-4.4,3.6-6.4c1.4-2,3.2-3.8,5.3-5.1c0.3-0.2,0.5-0.3,0.8-0.4
			c0.3-0.1,0.6-0.2,0.9-0.3c0.6-0.2,1.3-0.2,1.9,0c1.2,0.5,2.1,1.5,2.6,2.8c0.5,1.1,0.8,2.3,1,3.6c0.2,1.2,0.3,2.4,0.3,3.7
			c0.1,4.9-0.5,9.8-1.7,14.6l0,0l0,0c-1.2,2.5-2.5,4.9-4,7.1c-1.5,2.3-3.3,4.4-5.3,6.3c-1,0.9-2.3,1.7-3.6,2.1
			c-0.7,0.2-1.4,0.3-2.2,0.2c-0.7-0.2-1.4-0.5-1.9-1c-1-1-1.7-2.2-2.2-3.5c-0.5-1.3-0.9-2.6-1.2-4c-1-5.4-1.3-10.8-1-16.3l0.6-16.3
			l-0.3,16.3c-0.3,5.4,0.1,10.8,1.2,16.1c0.3,1.3,0.7,2.6,1.2,3.8c0.5,1.2,1.2,2.4,2.1,3.3c0.4,0.4,1,0.7,1.6,0.9
			c0.6,0.1,1.3,0,1.9-0.2c1.2-0.4,2.4-1.1,3.3-2c4-3.6,6.7-8.4,9.1-13.2v0.1c1.2-4.7,1.8-9.5,1.7-14.4c0-2.4-0.4-4.8-1.3-7
			c-0.4-1.8-2.1-2.9-3.9-2.6c-0.6,0.1-1.1,0.4-1.6,0.8c-2,1.3-3.8,3-5.2,5c-1.5,1.9-2.7,4-3.6,6.3c-0.5,1.1-0.8,2.3-1,3.5
			c-0.1,0.6-0.1,1.2,0,1.8c0.1,0.6,0.4,1.1,0.8,1.5c0.9,0.8,2.1,1.2,3.3,1.2C107.8,623.4,109,623.3,110.2,623z"/>
		<path class="st16" d="M-117.5,323.6c2.6-22.9,9.3-57.5,29.6-85.8c54.9-76.3,160-40.8,193.7-29.4c83,28.1,136.9,95.6,163.2,134.9
			l13.1,12.6c-68.5,15.4-138.5,22.6-208.7,21.5c-61.1-1-122-8.4-181.6-21.9L-117.5,323.6z"/>
		<path class="st17" d="M-116.7,322.3c2.6-22.1,9.2-55.4,29.3-82.6c54.3-73.5,158.4-39.3,191.6-28.3c82.2,27.1,135.4,92,161.5,129.9
			l12.9,12.1c-67.8,14.8-137.1,21.8-206.5,20.7c-60.4-1-120.6-8-179.7-21.1L-116.7,322.3z"/>
		<path class="st18" d="M224.7,337c0,0,73.9-21.7,106.6,44.5c21.3,51.4,25.1,68.1-106.6,58.8C202.4,358,224.7,337,224.7,337z"/>
		<path class="st19" d="M268.8,373.3c-24.1-56.9-64.8-87.7-119.1-110C79.3,239.4,21.3,290.9-22.5,314
			c-40.1,15.4-78.4,54.6-78.4,54.6c-53.1,63.9,44.4,72.8,44.4,72.8l249.4-0.5C282.4,446.4,280.5,406.4,268.8,373.3z"/>
		<path class="st14" d="M185.7,442.7c0,0,1.2,22.9-7.1,31.8c-2.5,3.1-4.4,3-7.4,3.1c0,0,8.3-3.5,10.3-15.2
			c1.2-6.8,1.9-13.6,2.2-20.5h2L185.7,442.7z"/>
		<path class="st14" d="M103.4,441.8c-0.3,4-0.5,18-0.4,20.7c0.6,11.9,1.2,25.5,7.2,29c1.4,0.8,2.9,1,4.5,0.7l2.3-0.3
			c-2.8,4.4-5.3,4.8-6.1,4.9c-4.9,0.3-10.7-8-12.1-21.4c-0.9-6.4-1.3-12.8-1-19.2c0.2-5.3,1-14.4,1-14.4L103.4,441.8L103.4,441.8z"
			/>
		<path class="st20" d="M-218.1,513.9c1.1,35.2,0.9,70.4-1.4,105.7c-2,31.7-5.1,63.3-8.1,94.9h477.2c0,0-64.4-93.8-137.1-41.7
			c0,0-37.4-109.5-126.7-49.5c41.5-57.3-58.2-148.5-95.6-80.1C-125.8,511.6-192.1,480.4-218.1,513.9z"/>
		
			<linearGradient id="SVGID_5_" gradientUnits="userSpaceOnUse" x1="265.2927" y1="108.7904" x2="257.7727" y2="493.6204" gradientTransform="matrix(1 0 0 -1 0 772)">
			<stop  offset="0" style="stop-color:#877E62"/>
			<stop  offset="0.28" style="stop-color:#7C7C63"/>
			<stop  offset="0.76" style="stop-color:#6D7A65"/>
		</linearGradient>
		<path class="st21" d="M377.5,639.5c0.3-0.8-1.8-2.2-3.5-5.4c-1.2-2.3-1.9-4.8-2.3-7.4c-1.5-7.8-7.4-17.2-9.3-20.6
			c-6.2-11-9.1-27.5-13.9-55c-2.1-11.9-4.5-27.9-6.1-47.1c-0.4-27.4,2.5-48,8.4-59.9c6.4-13.2,12-26.7,16.8-40.6
			c0,0,34.6,2.1,37.6,0s11.4-11.9,9.9-37.2l0.5-6.1l-8.9,3.3c0,0-2.7,22.7-14.1,24.5c-13.6,2.5-29.1-8.5-26.9-24.5h-9.9
			c0,0,3,46.7-11.9,56.6c-11.1,3.9-17.7-2.3-17.2-29.6l0.5-27.4h-17.7c0,0,1,29.1,0,30.8s-8.9,19.7-17.2-17.3
			c-7.1-26.1-3-13.5-3-13.5l-9.6,0.3c0,0,4.3,28.7,18.5,46.7c9.4,17.3,9.6,46.2,2.5,56.4c-7.6,10.2-20.5,15.9-30.4-44.8
			c-6.6-40.2-8.4-58.3-8.4-58.3l-13.7-0.2c0,0,5.6,48,4.6,56.4c-1.3,9.5-1.8,38.8-31.7,26.4c-15.5-3-46.6-13.8-59.6-46.2
			c-4.8-27.5-3.8-38.1-3.8-38.1l-11.1-0.4c0,0,0.3,15.9,2.5,20.1c-7.1,0.6-14.2-1.4-19.9-5.7c-11.5-8.3-16.1-22.4-17.4-26.6
			l-8.9-0.5c2,7.3,5,14.3,9,20.7c8.8,13.9,21.1,21.5,30.1,23.4c1.8,0.4,8.9,1.6,8.9,2c0,0.1-0.5,0.1-0.5,0.1s2.3,41.6,38,60.6
			c31.9,16.6,45.9,25,54,31.7s13.7,13.8,12.4,36.7c-1.3,18.3-0.5,36.7,2.3,54.8c3.1,20.4,9,40.2,17.5,59c27.4,1.2,45.1,1.3,56.4,1.2
			c22.7-0.3,35.6-1.8,42.4,0.3C373.2,639.3,377.2,640.6,377.5,639.5z"/>
		<path class="st22" d="M341.9,498c-8.9,7.2-16.3,16.2-21.5,26.4c-24.3,46.2-7.8,106.8-5.9,113.4l64,1.6c-4.2-8.1-8.4-17.1-12.3-27
			C349.4,570.1,343.7,528.8,341.9,498z"/>
		<path class="st23" d="M268.1,410.7c0,0,11.9,61.1,21.2,60.7C279.7,477.6,261.7,460.6,268.1,410.7z"/>
		<path class="st15" d="M334.5,571.5c-1.3,0.4-2.7,0.6-4.1,0.5c-1.4,0-2.8-0.5-3.7-1.5c-0.8-1.2-1.1-2.6-0.8-4
			c0.2-1.4,0.6-2.7,1.1-4c1-2.6,2.3-5,3.9-7.3c1.5-2.3,3.5-4.3,5.8-5.9c0.6-0.4,1.3-0.6,2-0.8c0.7-0.1,1.5,0,2.2,0.3
			c0.3,0.2,0.6,0.4,0.9,0.7c0.2,0.3,0.5,0.6,0.7,0.8c0.2,0.3,0.4,0.6,0.5,0.9l0.4,1c0.8,2.7,1.2,5.4,1.2,8.2c0,5.5-0.6,11-1.8,16.4
			l0,0l0,0c-1.2,2.8-2.7,5.6-4.3,8.2c-1.6,2.7-3.5,5.1-5.8,7.3c-1.1,1.1-2.5,1.9-4,2.5c-0.8,0.2-1.7,0.2-2.5-0.1
			c-0.8-0.3-1.5-0.8-2-1.4c-1-1.3-1.7-2.7-2.2-4.2c-0.5-1.5-0.9-3-1.2-4.5c-1-6.1-1.4-12.3-1-18.4l0.6-18.5l-0.3,18.5
			c-0.3,6.1,0.1,12.3,1.2,18.3c0.3,1.5,0.7,3,1.2,4.4c0.5,1.4,1.1,2.8,2.1,4c0.5,0.6,1,1,1.7,1.3c0.7,0.2,1.4,0.2,2.1,0
			c1.4-0.5,2.7-1.3,3.8-2.3c2.2-2.1,4.1-4.5,5.6-7.2c1.6-2.6,3-5.3,4.2-8.2v0.1c1.2-5.3,1.9-10.8,1.8-16.2c0-2.7-0.4-5.4-1.2-8
			l-0.4-0.9c-0.1-0.3-0.3-0.6-0.5-0.9s-0.4-0.5-0.6-0.8c-0.2-0.2-0.5-0.4-0.7-0.6c-0.6-0.3-1.2-0.4-1.8-0.3
			c-0.6,0.2-1.2,0.4-1.8,0.7c-2.3,1.5-4.2,3.4-5.7,5.7c-1.6,2.2-2.9,4.6-3.9,7.2c-0.5,1.3-0.9,2.6-1.1,3.9c-0.3,1.3,0,2.7,0.7,3.9
			c0.9,1,2.2,1.6,3.6,1.6C331.9,572,333.2,571.8,334.5,571.5z"/>
		<path class="st14" d="M327.2,363.1c-0.4,4.6-0.5,20.7-0.4,23.8c0.6,13.7,1.3,29.3,7.7,33.3c1.4,0.9,3.2,1.2,4.8,0.8l2.4-0.4
			c-3,5.1-5.6,5.5-6.5,5.6c-5.3,0.3-11.5-9.2-13-24.6c-1-7.3-1.3-14.7-1.1-22.1c0.3-6.1,1.1-16.5,1.1-16.5L327.2,363.1L327.2,363.1z
			"/>
		<path class="st24" d="M97.5,346.4c0,0,25.2,74.1,70.4,14.1c0,0,13.8,46.9,65.9,9.4c0,0,48.2,30.9,74.1-5.5c0,0,8,82.4,59.9,4.7
			c0,0,38.8,37.8,68.7-5.7c0,0-19.7,36,18.7,16c0,0,32.7,10.9,32.4-23.6c0,0,58.4-41.8-10-33.8c0,0-24.2-59-77.2,4.8
			c0,0-6.1-12.4-23.3-4.6c0,0-3.7-65-34-10.9c0,0-9.2,7-25.5,1.8c0,0-16.4-31.6-29.1,10.2c0,0-70.8-54.9-72.4-53.5
			s-27.9,20.4-31.9,31.2S97.5,346.4,97.5,346.4z"/>
		<path class="st25" d="M190.5,384.8c0,0-26.8-70.7-85.4,5.8c0,0-6.8-14.9-25.8-5.5c0,0-4.1-77.9-37.7-13c0,0-10.2,8.4-28.2,2.2
			c0,0-18.1-37.9-32.2,12.2c0,0-78.3-65.8-80.1-64.1s-30.9,24.5-35.3,37.4c-2.8,8.4-42.3,28.7-69.7,42c0.3,18,1,36.1,2,54.1
			c12.6,7.1,29.3,4.5,49.6-24.7c0,0,15.3,56.1,72.9,11.2c0,0,53.4,37,82-6.5c0,0,8.8,98.8,66.3,5.6c0,0,42.9,45.3,76-6.9
			c0,0-21.8,43.2,20.7,19.2c0,0,36.2,13.1,35.8-28.3C201.6,425.3,266.2,375.2,190.5,384.8z"/>
		
			<linearGradient id="SVGID_6_" gradientUnits="userSpaceOnUse" x1="338.78" y1="201.2199" x2="809.0398" y2="201.2199" gradientTransform="matrix(1 0 0 -1 0 772)">
			<stop  offset="0" style="stop-color:#43B555"/>
			<stop  offset="3.000000e-02" style="stop-color:#40B255"/>
			<stop  offset="0.27" style="stop-color:#289B52"/>
			<stop  offset="0.49" style="stop-color:#1A8E50"/>
			<stop  offset="0.68" style="stop-color:#15894F"/>
		</linearGradient>
		<path class="st26" d="M809,645.1c0.3-11-1.1-21.9-1.4-32.9c-0.3-10.5,0-21.1,0.9-31.6c0.1-1.3,0.3-2.7,0.4-4
			c0-1.8,0.1-3.7,0.1-5.5c0.2-29.3-0.8-58.5-0.9-87.8c0-6,0-12,0.1-18l-47.9,3.2c0,0,0.2-8.4-18.6,22.2
			c-21.9-12.7-52.3-10.9-60,23.4c-24.9-43.1-63.8-23.4-63.8,5.7c-69.5-86.1-157,3.8-183.8,80.3c-54.1,13-95.4,76.2-95.4,76.2
			L808,665.7C808.2,658.8,808.8,651.9,809,645.1z"/>
		
			<linearGradient id="SVGID_7_" gradientUnits="userSpaceOnUse" x1="583.1038" y1="93.0404" x2="575.0538" y2="505.2905" gradientTransform="matrix(1 0 0 -1 0 772)">
			<stop  offset="0" style="stop-color:#907D62"/>
			<stop  offset="0.25" style="stop-color:#877D63"/>
			<stop  offset="0.76" style="stop-color:#787C65"/>
		</linearGradient>
		<path class="st27" d="M732.2,653c0.3-0.9-2.3-2.4-4.6-5.8c-1.5-2.4-2.5-5.1-3-7.9c-2-8.3-9.7-18.3-12.3-22
			c-8.1-11.8-11.9-29.4-18.3-58.6c-3.6-16.6-6.3-33.4-8-50.3c-0.5-29.2,3.3-51.2,11.1-63.9c8.4-13.9,15.7-28.4,22.1-43.3
			c0,0,45.5,2.2,49.4,0s15-12.7,13-39.7l0.7-6.5l-11.7,3.5c0,0-3.6,24.3-18.6,26.1c-17.9,2.6-38.3-9.1-35.3-26.1h-13
			c0,0,4,49.8-15.7,60.4c-14.7,4.1-23.3-2.4-22.7-31.6l0.7-29.2h-23.3c0,0,1.3,31,0,32.9S631,412.1,620,372.6
			c-9.3-27.8-4-14.4-4-14.4l-12.7,0.3c0,0,5.7,30.7,24.3,49.8c12.3,18.4,12.7,49.3,3.3,60.2c-10,10.9-27,16.9-40-47.7
			c-8.7-42.9-11-62.2-11-62.2l-18-0.2c0,0,7.3,51.2,6,60.2c-1.7,10.1-2.3,41.4-41.6,28.2c-20.4-3.2-61.3-14.7-78.3-49.2
			c-6.3-29.3-5-40.6-5-40.6l-14.6-0.4c0,0,0.3,17,3.3,21.5c-9.1,0.7-18.3-1.5-26.1-6.1c-15.1-8.9-21.2-23.9-22.8-28.4l-11.8-0.5
			c2.7,8,6.7,15.5,11.9,22.1c11.6,14.8,27.7,23,39.5,24.9c2.4,0.4,11.7,1.7,11.6,2.1c0,0.1-0.6,0.1-0.6,0.1s3,44.4,50,64.7
			c42,17.7,60.3,26.7,71,33.8s18,14.7,16.3,39.1c-1.7,19.5-0.7,39.2,3,58.5c4.2,22.1,11.9,43.4,23,63c36.1,1.3,59.2,1.4,74.1,1.3
			c29.8-0.3,46.7-2,55.7,0.4C726.5,652.8,731.7,654.2,732.2,653z"/>
		<path class="st13" d="M685.4,502c-11.3,7.3-21,16.9-28.3,28.2c-31.9,49.2-10.2,114-7.7,121l84.2,1.8c-5.9-9.3-11.3-18.9-16.2-28.8
			C695.2,579,687.7,534.9,685.4,502z"/>
		<path class="st14" d="M588.3,408.9c0,0,15.6,65.2,27.8,64.7C603.5,480.3,579.9,462.2,588.3,408.9z"/>
		<path class="st15" d="M675.6,580.5c-1.5,0.4-3.1,0.5-4.7,0.6c-1.6,0.1-3.2-0.2-4.6-0.9c-0.7-0.4-1.3-1-1.7-1.7
			c-0.3-0.7-0.5-1.5-0.5-2.3c0.1-1.6,0.5-3.1,1.2-4.6c1.3-2.9,3-5.6,5-8c1-1.2,2.1-2.4,3.3-3.4c1.2-1.1,2.4-2,3.8-2.8
			c1.4-0.9,2.9-1.4,4.5-1.4c0.8,0,1.6,0.3,2.3,0.7c0.2,0.1,0.3,0.2,0.5,0.3l0.4,0.4c0.3,0.3,0.6,0.6,0.8,1c1.8,2.7,2.2,6,2.4,9.1
			c0.2,6.3-0.5,12.6-2.3,18.7l0,0l0,0c-1.6,3-3.5,6-5.6,8.7c-2.1,2.8-4.5,5.3-7.2,7.5c-1.4,1.1-2.9,2-4.5,2.7
			c-1.7,0.7-3.6,0.6-5.2-0.1c-1.5-0.9-2.8-2.2-3.6-3.8c-0.8-1.5-1.4-3.2-1.9-4.8c-1.7-6.7-2.3-13.6-1.9-20.5l0.8-20.6l-0.5,20.6
			c-0.4,6.8,0.3,13.7,2,20.4c0.5,1.6,1.1,3.2,1.9,4.7c0.8,1.5,1.9,2.7,3.4,3.6c1.5,0.7,3.3,0.7,4.8,0.1c1.6-0.6,3-1.5,4.4-2.5
			c2.6-2.2,5-4.6,7-7.4c2-2.7,3.9-5.6,5.5-8.6v0.1c1.7-6,2.5-12.3,2.3-18.5c-0.2-3.1-0.7-6.3-2.3-8.9c-0.8-1.3-2.1-2.2-3.6-2.3
			c-1.5,0.1-3,0.5-4.3,1.3c-1.3,0.8-2.6,1.7-3.7,2.8c-1.2,1-2.3,2.2-3.3,3.3c-2,2.4-3.7,5-5,7.8c-0.7,1.4-1.1,2.9-1.2,4.5
			c0,0.8,0.1,1.5,0.4,2.2c0.3,0.7,0.9,1.3,1.6,1.6c1.4,0.7,2.9,1,4.5,1C672.5,581,674.1,580.8,675.6,580.5z"/>
		<path class="st19" d="M356.2,329.4c0,0-2.1,46,44.9,31.9c-40.3,67.7,26.3,67.5,63.1,34.6c1.1,57.3,65,35.9,76.1,2.7
			c16.7,41.4,81.4,15.1,88.3-16.5c14.5,49.6,64.8-14.8,64.8-14.8c28,41.7,75.8,12.3,79.1-11.9c0,0,44.3,37.9,102,22.4l3.1-1.6
			l-19-53.7L356.2,329.4z"/>
		<path class="st19" d="M1017.5,354.5l-449,6.2c0,0-1.9,41.5,40.5,28.8c-36.3,61,23.7,60.9,56.9,31.2c1,51.6,58.6,32.4,68.6,2.4
			c15,37.3,73.4,13.6,79.6-14.9c13,44.7,58.5-13.3,58.5-13.3c25.2,37.6,68.3,11,71.3-10.7c0,0,30.8,26.4,73.6,23.3
			C1017.4,389.8,1017.4,372.2,1017.5,354.5z"/>
		
			<linearGradient id="SVGID_8_" gradientUnits="userSpaceOnUse" x1="372.8399" y1="188.9923" x2="1068.49" y2="188.9923" gradientTransform="matrix(1 0 0 -1 0 772)">
			<stop  offset="0" style="stop-color:#43B555"/>
			<stop  offset="3.000000e-02" style="stop-color:#40B255"/>
			<stop  offset="0.27" style="stop-color:#289B52"/>
			<stop  offset="0.49" style="stop-color:#1A8E50"/>
			<stop  offset="0.68" style="stop-color:#15894F"/>
		</linearGradient>
		<path class="st28" d="M1019.5,513.2c-0.5-14.1-0.9-28.1-1.2-42.2c-21-53-98.8-19.8-114.3,20.7c-57.7-41.6-121.9,7.6-103.9,37.8
			c-62.9-21.7-123.2,31.5-101.3,58.3c-68-29-71.8,44.8-71.8,44.8c-78.2-16.1-112.9,30.6-93.6,50.1c0,0-96.2-4.7-157.8,36.9l-2.6,2.8
			h642.7c0.2-17.6,1.2-35.2,2.7-52.8c1.9-23.1,4.6-46.1,6.2-69.2C1022.5,571.3,1020.6,542.3,1019.5,513.2z"/>
		<path class="st20" d="M1018.2,669.6c0.1-1,0.2-1.9,0.3-2.9c-12.5-4.8-29-6.3-50.8-1.1c5.1-51.5-65.3-55.7-88.4-35.7
			c5.1-55.8-60.2-33.6-73-11.1c-23.1-37.5-84.5,12.5-58.9,43.9c-55.1-32.9-78.2,27.2-78.2,27.2c-44.8-28.6-84.5,22.9-84.5,22.9
			h431.1C1016.1,698.3,1017,684,1018.2,669.6z"/>
		
			<linearGradient id="SVGID_9_" gradientUnits="userSpaceOnUse" x1="228.3605" y1="40.467" x2="398.3806" y2="269.887" gradientTransform="matrix(1 0 0 -1 0 772)">
			<stop  offset="0.17" style="stop-color:#24B174"/>
			<stop  offset="0.31" style="stop-color:#3AB575"/>
			<stop  offset="0.48" style="stop-color:#4DBA76"/>
			<stop  offset="0.6" style="stop-color:#54BB76"/>
		</linearGradient>
		<path class="st29" d="M118.7,657c0,0,7.8-57.1,64.2-19c-3.9-31.7,21.4-37.6,38.9-13.1c-4.9-45.3,36-29.4,43.8-15.1
			c0-40.3,37-33.6,45.7-14.8c30.2-10.3,46.7,23.5,46.7,23.5c16.5-21.2,43.8-0.9,42.8,22.6c26.3,0.7,54.5,15.9,54.5,15.9L118.7,657z"
			/>
		
			<linearGradient id="SVGID_10_" gradientUnits="userSpaceOnUse" x1="224.9254" y1="184.4846" x2="284.3754" y2="505.2946" gradientTransform="matrix(0.9995 3.036406e-02 3.036406e-02 -0.9995 8.0371 847.8434)">
			<stop  offset="0" style="stop-color:#43B555"/>
			<stop  offset="3.000000e-02" style="stop-color:#40B255"/>
			<stop  offset="0.27" style="stop-color:#289B52"/>
			<stop  offset="0.49" style="stop-color:#1A8E50"/>
			<stop  offset="0.68" style="stop-color:#15894F"/>
		</linearGradient>
		<path class="st30" d="M226.2,634.2c-2.6-0.1-52,1.8-44.7-7.7s47-4.7,50.1-1.8s-45.1-15.4-46.7-29.4s37.6,10.9,50.8,20.8
			c-39.2-44.1-40.2-53.9,8-12.6c-29.4-49.8-35.5-61.8,16.1-3.7c-32.5-75.6-1.9-2.8-15-38.1s6.3-42.3,21.7,26.5c0,0-1,14.6,7.3-8.8
			s41.4-36.3,12.2,23.4c15.7-11.3,14.4-10.7,26.9-19.3s26.5,17.6-18.6,49.6C259.6,631.8,226.2,634.2,226.2,634.2z"/>
		
			<linearGradient id="SVGID_11_" gradientUnits="userSpaceOnUse" x1="1321.5212" y1="99.9067" x2="1361.6013" y2="-8.6132" gradientTransform="matrix(-1 0 0 -1 1637.3301 772)">
			<stop  offset="2.000000e-02" style="stop-color:#86D738"/>
			<stop  offset="1" style="stop-color:#4B8A40"/>
		</linearGradient>
		<path class="st31" d="M859.7,651.4c-14.5,3.2-46.9,4.4-116.7,15.8c-22.9,3.7-17.3-0.1-68,2.7c-2.4,0.1-7.8-0.3-10.5-0.1
			c-2,0.1-32.9-2.3-35-2.1c-1,0.1,22.4,3,21.3,3.1c-4.6,0.3-27.5-2.3-32.9-1.9c-1.4,0.1-32.7-2-34.2-1.9c-1.7,0.1,37.4,6.1,35.6,6.2
			c-12.6,0.8-14.2-2.2-31-1.2c-11.1-0.1-22.2-0.9-33.1-2.3c14.3,5.4,25.1,5.5,22.9,5.6c-5.2,0.3-6.8,0.4-12.4,0.8
			c0,0-127.4-1.7-134.6-1.3c0,0-83.6,0.2-90.4,1.4s-28.5-2-36.9,0.8s-44.1-2.4-54.1-1.2s-21.2,1.2-30.7,1.2s10.6-6.8,6.1-6.8
			s-9.5-1.2-15.6-1.2s-21.2,0.4-35.2,0.4s-24.8-3.2-28.1-2.4s-19.9,0.4-26.6,0.8s-40.5,2-46.7,2s-39.1,4.8-44.2,3.6
			c6.4-1.2,18.2-4.1,19.9-4.6c-5-1.4-66.3,0.7-95.2,6.9c-23.4,0.1-123.4,3.3-127.6,3.5c-21.4,1.1-38.8,1.3-49.8,1.7
			c-0.4,9.2-0.7,18.4-0.8,27.5c0.4,0.6,0.9,1.2,1.3,1.9c3.7,4.8,5.9,10.7,6.2,16.8c1.6,6,1.2,12.2-0.9,18c-0.1,0.9-0.3,1.8-0.5,2.8
			h350c0,0,44.3-5.4,64.9-4.2s205.9-2.4,215.3-1.8C518.5,747.5,869.5,662.1,859.7,651.4z"/>
		
			<linearGradient id="SVGID_12_" gradientUnits="userSpaceOnUse" x1="1321.6509" y1="169.5007" x2="1321.9807" y2="155.9907" gradientTransform="matrix(-1 0 0 -1 1637.3301 772)">
			<stop  offset="2.000000e-02" style="stop-color:#B8EB38"/>
			<stop  offset="0.47" style="stop-color:#86D738"/>
			<stop  offset="1" style="stop-color:#70BD40"/>
		</linearGradient>
		<path class="st32" d="M369.7,609c-0.6,0.6-1.2,1.3-1.6,2c-0.2,0.7-2.5-0.7-3.3,1s-3.9,0-7,1.5s-0.6,0-4.9,1.2s-1.4,1.4-4.3,1.2
			s-2.9-1.5-5.7-0.9s-2.9,1.5-5.7,1.5s-5.1-3.4-7.6-2.6c-2,0.8-4,1.4-6.1,1.9c-2.5,0.5-6,0.9-7.2,1.9s-3.7-0.3-6.5-0.7
			s-9.2-4.1-11.1-3.4s-3.1-0.2,0-0.9c-0.5-0.7,0.8-1.5,0.8-1.5s-11.3,1-14.8,1s-6.4-1-9-1.4s-5.1-1-7-0.2s-7.4,2.7-7.4,2.7
			s4.9-4.1,6.4-4.3s11.8-5.2,17.1-4.8s29.5-3.6,41.1-0.8c6.4,0.2,21.8,0.5,32.5,1.3C365,605.3,369.1,607.8,369.7,609z"/>
		
			<linearGradient id="SVGID_13_" gradientUnits="userSpaceOnUse" x1="1438.2892" y1="200.7998" x2="1459.899" y2="96.5298" gradientTransform="matrix(-1 0 0 -1 1637.3301 772)">
			<stop  offset="2.000000e-02" style="stop-color:#78A81F"/>
			<stop  offset="0.98" style="stop-color:#386B1F"/>
		</linearGradient>
		<path class="st33" d="M368.1,610.9c0,0,2.6,4.1,3.9,6.5s9.5,5.2,12.4,8.1c2.6,2.5,10.9-0.1,15.7,1.7c0.7,0.3,13.8,9.9,14.5,10.1
			c5.1,1.8-4.3,0.9-4.3,0.9s-17.6,1.6-20.2,1.5s-5.7,1-8.5,1.4s-12-1.5-12-1.5s12.8,5.5-7.7,0.8c-2-0.5,2.8,3.9-18.3,2
			c-2.9,1.6-7.9,4.7-8.7,4.9c4.7-3-11.6-0.2-12-0.1s-7.3,0.8-7.3,0.8c-1.6,0.9-3.3,1.5-5.1,1.9c-3.3,0.8-7-1.6-10.9-1.6
			s-23.6,2.8-26.3,4.3s-30.8,14.7-32.3,16s-3.7,4.4-7.5,5.6s-97.1,13-110.7,17.5c-22.5,7.5-83,17.8-87.6,17.4
			c-104,9.2-92.7-14.6-92.7-14.6c97.2-8.2,123.3-34,145.9-28c2.1-0.6,47-21.5,51.5-20.8c24.2,3.9,30.4-10.8,47.4-14.4
			c3.2-0.7,7.5-1.8,7.8-1.9c1.4-0.2,3.9-0.3,7-0.4c2.4-0.1,24.7-1.8,28.5-1.5c2-1.9,12.9-9.7,14.2-9.7c0.7-0.4,13.5,1,13.7,0.3
			s1.4-3.3,2-3.6s0.7-2.2,5.3-3.6s13.9-4.4,13.9-4.4l-5.2,3.5c0,0,12.8-1.6,11.1,0.5c-1.3,1.7,7.9,1.7,10.8,1.8s7.3-0.1,7.3-0.1
			s-4.9,1.3-5.9,2.1c-0.1,0.1-0.1,0.1-0.1,0.2c0.1,0.5,8.9-2.5,10.1-1.5s4-1.3,4.6-0.5s8.5-1.7,9.8-1.9s-3,6.2-2,6.3
			s4.9-2.8,6.8-1.9c1.6,0.8,3.5,1.1,5.3,0.8c1.1-0.4,5.2-1,5.9-0.4s3.4-0.6,4,0.1s3.8,1.4,3.8,1.4c1.3-1.1,2.8-1.8,4.5-2
			c1.3-0.1,2.7-0.1,4,0c0.4,0,4.3-2.9,4.9-2s4.9-1.1,4.9-1.1S367.1,612,368.1,610.9z"/>
		
			<linearGradient id="SVGID_14_" gradientUnits="userSpaceOnUse" x1="278.8051" y1="150.679" x2="273.0351" y2="132.319" gradientTransform="matrix(1 0 0 -1 0 772)">
			<stop  offset="2.000000e-02" style="stop-color:#85B038"/>
			<stop  offset="0.47" style="stop-color:#86C238"/>
			<stop  offset="1" style="stop-color:#70B340"/>
		</linearGradient>
		<path class="st34" d="M233.5,625.2c4.4-0.4,8.8-0.6,13.3-0.4c3.9,0.4,7.8,0.5,11.7,0.3c4.3-0.3,7.5-0.6,8.8-0.8
			c0.7-0.1,12.2,0.9,11,1.1c-1.8,0.4-7.9,1.6-6.4,1.8s3.5,0.4,4.3,0.7s1.8,0.4,0.8,0.8s-1,1.5,1,1.5s4.8,0.8,7,0.7
			c2.7-0.2,5.5-0.7,8.1-1.5l1.2-0.5c0,0-5.3,3.6-3.1,2.8s5.1-2.3,6.5-2.6s2.1,0.5,4.8,0.4s3.3-0.7,3.3-0.7c-1.1,1.2-2.3,2.3-3.6,3.3
			c-1,0.5,1.8-0.3,3.1-1c0.7-0.4,1.4-0.7,2.1-1c0,0,0.5,2.2,2.5,1.5l2-0.7c0,0.8-0.2,1.6-0.5,2.3c-0.5,0.7-0.3-0.4,0.5-0.7
			c0.5-0.1,0.9-0.3,1.3-0.5c0,0,0.6,1,1.3,0.7s1.1,1,0.5,1.4s1,0.4,1,0.8s0,0.3,1.6,0.4s3,0.3,4.1,0.4s-3.4,0.8-5.7,1.8
			s-2.7,0.6-4.9,1.3c-3.2,1-6.5,1.9-9.8,2.5c-2.1,0.3-9.7,2.4-10.7,2.3s5-2.9,1.1-1.9c-2.9,0.6-5.8,1-8.7,1c-2,0.1-7.9-0.3-9.4-0.1
			s-6.1,0.1-6.1,0.1s4.8-2.1,6-2.3s0.2-0.3-1.5-0.1s-1.6-0.1-3.5,0s-4-0.7-4.8-0.8s3-1.5,0.8-1.4s-1.2-0.5-3.6-0.4s-6.3-1-7.6-0.7
			s6.3-2.1,7.8-2.6c2.3-0.8,4.7-1.4,7.1-1.7c1.3-0.1,2.5-0.2,3.8-0.4c0,0-7.6-1.3-10.3-0.6s-12.9,0.1-15.4,0.4s-8.8,0.3-9.9,0.4
			s7.1-1.9,15.2-3.2c-1.2,0-25.1,2.1-23.2,1.1c3-0.5,5.1-1.2,8.4-2.1s10.1-0.8,11.4-0.8s-6.2-1-6.2-1
			C239.3,625.6,236.4,625.2,233.5,625.2z"/>
		
			<linearGradient id="SVGID_15_" gradientUnits="userSpaceOnUse" x1="1227.1116" y1="142.4094" x2="1259.4601" y2="142.4094" gradientTransform="matrix(-1 0 0 -1 1637.3301 772)">
			<stop  offset="0" style="stop-color:#417C14"/>
			<stop  offset="1" style="stop-color:#6B961F"/>
		</linearGradient>
		<path class="st35" d="M398.7,624.9c0,0,1.7,5.5,6.4,6.3c1.6,0.3-2.1-3-4.5-7c0,1.4,1-0.7,1.5-0.2c13.5,13.1,6.1,8.8,6.1,8.8
			s-18.4,6.1-18.8,4.7s-11.5-16.3-11.5-16.3l7.5,1.6c0,0,5.8,9.1,5.8,8.3c0.9-6.2-3-7.4-3-7.4S396.9,624.7,398.7,624.9z"/>
		
			<linearGradient id="SVGID_16_" gradientUnits="userSpaceOnUse" x1="1264.9901" y1="144.974" x2="1311.1702" y2="144.974" gradientTransform="matrix(-1 0 0 -1 1637.3301 772)">
			<stop  offset="0" style="stop-color:#417C14"/>
			<stop  offset="1" style="stop-color:#6B961F"/>
		</linearGradient>
		<path class="st36" d="M342.8,615.4l2.8,1.5c0,0-1.1,4.3,1,7.5c1.9,2.9,4.6,5.3,7.7,6.8c3.4,1.8,4.6,2.3,7.7,4s10.3,3,10.3,3
			s-9.6-1-13.7-0.1s-8.3-0.7-11.8-0.1s-10.3,3.3-10.3,3.3s3.3-2.5,5.4-4.1c0.6-0.5-6,1.8-8.1,0.8c0.5-0.1,10-2.6,10.1-3.2
			c0.2-1.2,0.1-2.4-0.2-3.6c-0.3-1.3-0.4-2.7-0.4-4c0,0-3.2,5.5-5.5,6.9c-2.1,1.1-4.3,1.9-6.6,2.5l-5.1,2c0,0,7.7-4.8,9.3-7
			s2.7-2.6,3.1-4.7s1.8-4.6,1.8-6.9s-5.4,8.8-6.2,8.2s3.9-12.8,3.9-12.8c1.4-1,2.9-1.9,4.5-2.5c0.9-0.3,4.5,1.6,4.5,1.6
			C345.6,614.8,344.2,615.2,342.8,615.4z"/>
		
			<linearGradient id="SVGID_17_" gradientUnits="userSpaceOnUse" x1="1257.8601" y1="145.7451" x2="1288.9" y2="145.7451" gradientTransform="matrix(-1 0 0 -1 1637.3301 772)">
			<stop  offset="0" style="stop-color:#417C14"/>
			<stop  offset="1" style="stop-color:#6B961F"/>
		</linearGradient>
		<path class="st37" d="M356.3,612.9c0,0-1.9,1.6-1.1,3.4c1.2,2.5,2.8,4.9,4.5,7.2c1.7,2,3.3,3.3,7.1,5.2s12.6,8.9,12.6,8.9
			s-11.6-3.3-14.1-5.1s-8.4-8.2-9.9-9.8s-3.1-6.5-3.2-5.5s-1.5,2.1-0.4,3.4l16.6,19.1c0,0-13.9-10.8-16.7-15.5
			c-0.9-1.5-1.6-5.6-1.9-7.4c-0.1-1-0.6-1.9-1.4-2.6c0.7-0.6,1.5-0.9,2.4-1.1C352.2,612.9,356.3,612.9,356.3,612.9z"/>
		
			<linearGradient id="SVGID_18_" gradientUnits="userSpaceOnUse" x1="1247.6201" y1="148.4909" x2="1277.5223" y2="148.4909" gradientTransform="matrix(-1 0 0 -1 1637.3301 772)">
			<stop  offset="0" style="stop-color:#417C14"/>
			<stop  offset="1" style="stop-color:#6B961F"/>
		</linearGradient>
		<path class="st38" d="M360.5,611c0,0-1.5,0.8-0.1,3.2s1.3,7,2.2,7.7s18.6,14.9,18.6,14.9l8.5-0.5c0,0-20-11.9-22-13.8
			s-3.1-4.9-4.2-6.6c-0.6-0.8-1-1.6-1.3-2.6l12.5,11.1c0,0-7.4-9.3-8.6-13.7c-0.7-1.3-2.5,0.5-2.5,0.5S361.2,610.2,360.5,611z"/>
		
			<linearGradient id="SVGID_19_" gradientUnits="userSpaceOnUse" x1="1235.2748" y1="152.0948" x2="1263.53" y2="152.0948" gradientTransform="matrix(-1 0 0 -1 1637.3301 772)">
			<stop  offset="2.000000e-02" style="stop-color:#B8EB38"/>
			<stop  offset="0.47" style="stop-color:#86D738"/>
			<stop  offset="1" style="stop-color:#70BD40"/>
		</linearGradient>
		<path class="st39" d="M373.8,615.2c0,0,2.9,4.6,3.3,4.9s0.5,1.2,1.2,1.2s11.3,2.8,12,2.9c5.2,0.9,13.8,0.4,11.4-0.2
			c-0.8-0.7-15.7-4.8-16.5-4.9S375.1,614.5,373.8,615.2z"/>
		
			<linearGradient id="SVGID_20_" gradientUnits="userSpaceOnUse" x1="1303.4401" y1="128.86" x2="1381.05" y2="128.86" gradientTransform="matrix(-1 0 0 -1 1637.3301 772)">
			<stop  offset="2.000000e-02" style="stop-color:#86B80D"/>
			<stop  offset="1" style="stop-color:#4B820A"/>
		</linearGradient>
		<path class="st40" d="M327.7,633.4c0,0-1.4,0.3-3.1,0.6s-2.7-0.3-4.4,0.8s-3.5,0-4.2,0.1s-6.6,0.5-7.7,0.6s3.1-2.7,3.1-5.1
			c-2.5,4-13.6,9.8-16.3,10.3s-6.2,1.2-7.5,1.9c-1.4,0.6-2.8,1-4.2,1.3c0,0-3.2,1.4-6,2.7s-21,9.3-21,9.3s28.6-9.9,30.6-9.8
			s7-1.5,9.3-1.5c2.5-0.1,5-0.4,7.5-0.8c-1,0.1-6.2,1.9-7,1.9c-0.7,0.1-1.4,0.2-2.1,0.5c0,0,7.5-0.9,10.3-1.2s8-2,10-2.4
			s5.4-0.6,6.8-0.9s12.3-5.8,12.3-5.8s-11.4,4.3-13.8,4.7s-4.6,0-6.6,0.6s-5.4,1.2-5.4,1.2s5.1-2.8,6.3-2.8s-3.4-0.6-0.6-1.1
			c1.5-0.2,2.9-0.5,4.4-0.9c1.1-0.3,4.8-2.1,5.6-2.1s4.8-2.2,3.4-0.8s-2,2-2.8,2.3s-3,1.2-3,1.2s3.4-1.1,5.2-1.7s1.7-1.4,2.7-2.1
			c1.3-0.7,2.8-1.2,4.2-1.5C333.7,632.8,329.1,632.5,327.7,633.4z"/>
		
			<linearGradient id="SVGID_21_" gradientUnits="userSpaceOnUse" x1="-6.3092" y1="118.5935" x2="274.9516" y2="118.5935" gradientTransform="matrix(1 0 0 -1 0 772)">
			<stop  offset="1.000000e-02" style="stop-color:#2B6333"/>
			<stop  offset="1" style="stop-color:#5C8500"/>
		</linearGradient>
		<path class="st41" d="M248.3,648.9c4.9,2,10.1,2.8,15.4,2.3c-1.8,2.2-17.6,2.9-24.2,1.1c-1.2-0.3-12.2,1.1-13.4,1.1
			c-4.9,0.2-27.8,4-28.9,4.4c-2,0.8,29.1-1.5,27.5-0.5c-9.3,4.5-53.5,7.1-63.6,10.4s34.8-13.5,27.6-12.2s-50.3,9.1-51.2,9.1
			s-45,2.2-57,5.7c-1.3,0.3-2.6,0.6-3.9,0.8c-1.2,0.2,34.5-3.2,36.6-0.1c-9.3-0.2-42.8,2.3-44.7,2.5c-6.1,0.4-12.3,0.4-18.4,0
			l67,2.3c0,0-40,7-79.3,4c-23.6-1.8-45.8-3.7-43.8-5c0.8-0.5,16.1,4.9,58.8-6.9c1.4-0.1-14,4.9-12.6,4.8s22.6-1.3,23.9-1.5
			c2.9-0.3,4.5-1.5,7.2-1.8c1.2-0.1,16.5-0.3,15.6-1.5c-0.5-0.7-10.4-1.9-9.4-2c3.8-0.4,7.4-0.8,10.6-1.4c0.8-0.2,29.8-2.4,34.1-2
			c-12.2-2.1-30,0.5-29.2,0.3c15.7-4.2,39.2-8.8,40.3-9.5c0.6-0.5-29.7,4.3-42.9,9.1c-12.2-2.7-24.7,0.5-39.9,4.3
			c10.6-5,41.4-13.3,55.2-12.9c28.8-10.9,20.9-10.5,35-13.1c-9.8,4-33.6,12.4-27.1,11.3c6.3-1.1,11.9-0.8,15.9-1.3
			c2.3-0.3,4.7-0.5,7-0.5c4.9-1.2,9.7-5.8,17.6-7.3c5-5.8,34.4-14.9,35.8-15.3c-16.2,6.4-21.7,13.4-19.6,13.1
			c1.9-0.3,5.5-3.8,8.1-4.1c1.7-0.2,0.3,4.2,2.1,4.1c0.4-3,10.5-6.3,7.4-2.3c7.3-5.9,20-8.2,22-8.7c6.8-1.8,22-4.3,22.2-3.6
			c-7.8,2.3-8.6,3.6-8.6,3.6s0.4-0.4,1.7,0.3c0.5,0.3-9.7,5.4-8.8,5.7s14.4-4.3,15.7-4.1c0.6,0.1-6.9,4.5-6.3,4.5s8.8-2.1,9.6-2.1
			c2.8,0.2,5.1-0.8,9.4-0.9c5.1-0.1,11.4-0.4,19.2-1.2c3.8,0.4-25.1,4.8-22.2,6.1c4-0.6,3.8,3.5,20.7,3.2c0.4,0.3,0.8,0.6,1.2,1
			c0,0,16.6,2.2,9.9,2.8c-5.8,0.5-7.4,1.7-10.2,1.3c-4-0.6-5.3,3.4-15.4,2.4C247.8,648.8,248,648,248.3,648.9z"/>
		
			<linearGradient id="SVGID_22_" gradientUnits="userSpaceOnUse" x1="172.9514" y1="111.9896" x2="177.2314" y2="129.0997" gradientTransform="matrix(1 0 0 -1 0 772)">
			<stop  offset="1.000000e-02" style="stop-color:#4A7A00"/>
			<stop  offset="0.98" style="stop-color:#699621"/>
		</linearGradient>
		<path class="st42" d="M154.8,642.7c0,0,19.1,4.4,27.8,5.4s10-0.5,16.9-0.5s16.8,0.3,19.1,0.8s15.8,2,15.4,2.2s-25.9-1-30.4-0.1
			s-10.8,4-13.6,4.8s-9.2,1.2-13.3,2.6s-12.8,1.5-12.8,1.5s10.6-4.2,15-5.4c1.8-0.5,3.7-1,5.5-1.3c0,0-13.8-1.7-19.3-1.6
			s-10.3-1.2-12.7-0.7s-4.1,2.6-7,3.8s-10.1,3.7-10.1,3.7s-6.2-0.9-9.2-0.3s-12.2,3-12.2,3s10.3-5.2,14.4-6.1c2.8-0.6,5.7-1,8.5-1.2
			c0,0,0.2-0.8-3.2-0.8s-6.8-0.1-6.3-0.3s7.6-1.6,10.3-2.8s4.3-2.8,2.5-2.8c0,0-3.5-2.1-1.1-2.3s1.9-1.2,1.9-1.2s-2.8-2.1-0.7-2.5
			s16.4-0.1,16.4-0.1S152.1,642.2,154.8,642.7z"/>
		
			<linearGradient id="SVGID_23_" gradientUnits="userSpaceOnUse" x1="1245.9951" y1="130.98" x2="1245.9951" y2="62.93" gradientTransform="matrix(-1 0 0 -1 1637.3301 772)">
			<stop  offset="2.000000e-02" style="stop-color:#86D738"/>
			<stop  offset="0.92" style="stop-color:#58963E"/>
		</linearGradient>
		<path class="st43" d="M535.8,636.2c0,0-47.6-4.7-63.2-3.9s-48.9,4.7-56.7,4.7s-28,1.5-32.6,0.8s-60.6,2.3-75.6,3.1
			s-46.9,13.7-62.5,16.8s-45.9,4.3-56.3,9.7s-28.4,5.3-41.5,14.7c-7.4,5.2-14.2,11-20.5,17.5c0,0,47.4-14.1,79.2-9.7
			c16.2,2.3,37.1,3.9,59.3,7s51.5-3.9,66.5-0.8s69.1,3.1,76.8,3.1s22.9-0.5,57.5-0.5s54.3,1,83.2,0.9s84.8-28.9,106.3-24.3
			C656.3,668.3,621.2,637.7,535.8,636.2z"/>
		
			<linearGradient id="SVGID_24_" gradientUnits="userSpaceOnUse" x1="1255.4629" y1="90.3128" x2="1277.5229" y2="-11.5372" gradientTransform="matrix(-1 0 0 -1 1637.3301 772)">
			<stop  offset="1.000000e-02" style="stop-color:#4A7A00"/>
			<stop  offset="0.98" style="stop-color:#699621"/>
		</linearGradient>
		<path class="st44" d="M583.5,689.2c0,0-66.8,1.8-71.3,1.8s-31-4.3-35.5-3.6s-1.7-2.7-1.7-2.7s-11.2-2.5-16.8-1.1
			s-39.6,7.2-43.6,6.5c-3.1-0.7-6.2-1.9-9-3.4c-7.2,1.6-14.5,2.8-21.9,3.5c-9,0.7-23.1,7.1-23.6,5.1s11.2-5.8,7.2-5.1
			s-27.3,0.4-27.3,0.4l7.9-6.7c-5.3-0.4-8.2-3.9-16.8,3.4c-5.2,4.5-9.6-3.4-15.3,2.7s-11,3.4-11,3.4s-8.6-2.1-6.8-2.2
			c-3.4,1.4-8.9-1.1-14-1.7s-12.2,2.6-16.7,2.6s-9.3,1.3-8.1-4.5c-6.2,2.8-19,1.1-19,1.1h-17c-3.9,0-16.9-8.8-20.3-6.1
			s-6.8,1.3-10.7,2.7c-2.9,0.9-6,1.3-9,1.3c0,0,5.6-6.7,11.3-6.7c3.6-0.1,7-1,10.2-2.7c0,0-22.6,2-26.5,5.4s-13.6,4-16.9,4.7
			s-15.9,0.6-15.9,0.6l-11.9,7.2c0,0-16.1,8.2-25.7,12.9s-17.1,1.1-27.8,5.2s-67.3,10.1-67.3,10.1s51.8-0.1,96.6-6.3
			c-26,3.4-51,11.2-40.1,9.5c6.4-1,96.1-3.7,96.1-3.7s-23.1,6.2-29.8,7.5c-4.1,0.8-8.1,2.2-11.9,4c0,0,40.7-2.7,48.6-2.7
			s24.8-2,36.1-3.4c7.3-0.8,14.7-0.5,22,0.7c0,0-10.7,8.7-13.6,10.1s6.8,1.3,8.5,1.3s32.2,2,39.5,0.7c8.6-1.4,17.3-2.1,26-2
			c9,0,47.4,7.4,56.5,6s15.8-8.1,17.5-4s-8.5,13.4-8.5,13.4l-16.3,14.9c0,0,25.9-11.4,32-13.6s23.3-6,34-8.7c2.3-0.5,4.6-0.8,7-0.9
			c2.7-0.2-16.5,12.1-20.8,14.8c3.8,0.1,36.6-10,40.6-9.7c7.1,0.5,14.8-3.5,20.1-3.5c13,0,41.4-2.7,50.4-2.7
			c7.3,0,143.7,13.7,162.3,6.8c4.5-1.7-16.8-13.8-11.9-13.5c11.9,0.7,76.7-0.6,76.7-0.6c-34.5-33.1-55.8-44.9-76.6-64
			C646.1,667.2,583.5,689.2,583.5,689.2z"/>
		
			<linearGradient id="SVGID_25_" gradientUnits="userSpaceOnUse" x1="1371.3301" y1="64.72" x2="1432.1901" y2="64.72" gradientTransform="matrix(-1 0 0 -1 1637.3301 772)">
			<stop  offset="1.000000e-02" style="stop-color:#336300"/>
			<stop  offset="1" style="stop-color:#5C8C00"/>
		</linearGradient>
		<path class="st45" d="M266,691.9c0,0-5.7,2.8-6.5,4.8s-10,13.3-11.7,15.1s-16.6,10-18.5,10s-24.2,5.3-24.2,5.3
			s38.4-16.1,39.6-17.3s6-5.4,8.1-11.1s5.7-11.1,6.4-11.1C258.3,691.5,265.5,690.5,266,691.9z"/>
		
			<linearGradient id="SVGID_26_" gradientUnits="userSpaceOnUse" x1="1379.8701" y1="63.855" x2="1456.3801" y2="63.855" gradientTransform="matrix(-1 0 0 -1 1637.3301 772)">
			<stop  offset="1.000000e-02" style="stop-color:#336300"/>
			<stop  offset="1" style="stop-color:#5C8C00"/>
		</linearGradient>
		<path class="st46" d="M257.5,689.4c0,0-6,2.2-6.9,4.2s-7.4,11.1-8.4,12.2s-6.4,3.7-10.5,6s-8.8,2.6-10.5,3.4s-40.2,15-40.2,15
			s47.4-23.6,49.8-24.4s6.2-10.8,5-10c4.2-2.6-2.9-4.6,5.5-8c2.9-1.1,4.8-1.7,4.8-1.7C244.5,688,249.7,689.4,257.5,689.4z"/>
		
			<linearGradient id="SVGID_27_" gradientUnits="userSpaceOnUse" x1="1398.3301" y1="67.6227" x2="1499.2401" y2="67.6227" gradientTransform="matrix(-1 0 0 -1 1637.3301 772)">
			<stop  offset="1.000000e-02" style="stop-color:#2B4F00"/>
			<stop  offset="1" style="stop-color:#599438"/>
		</linearGradient>
		<path class="st47" d="M239,688.7c0,0-5.7,7.4-6.6,9.1c-2.5,3.6-5.5,6.8-8.8,9.7c-4.2,2.6-8.9,4.5-13.8,5.4
			c-5.3,0.8-46.5,10.1-48,10.3s40.8-12.9,42.5-14.3s7.6-6,7.6-6s-11.9,6-16,6.8s-14.8,3.4-19.1,3.1s-38.6,5.4-38.6,5.4
			s41-12.5,46.5-12.8s10-3.4,16.2-6s14.6-9.1,14.6-10.8c0-1,0.1-2.1,0.2-3.1l5.7,2.3c-1.1,2-2.6,3.8-4.3,5.4c-2.4,2-7.4,6.3-7.4,6.3
			s10.3-4.5,11.3-6.2s2.1-6.8,3.1-6S238.1,689.3,239,688.7z"/>
		
			<linearGradient id="SVGID_28_" gradientUnits="userSpaceOnUse" x1="1425.2301" y1="74.2772" x2="1571.3501" y2="74.2772" gradientTransform="matrix(-1 0 0 -1 1637.3301 772)">
			<stop  offset="1.000000e-02" style="stop-color:#2B4F00"/>
			<stop  offset="1" style="stop-color:#599438"/>
		</linearGradient>
		<path class="st48" d="M212.1,684.2c0,0-3.3,4.8-5.7,6.8s-12.2,7.1-16.7,9.4s-11.2,4.3-14.1,6s-26.8,7.3-32.7,9.6s-23.3-1.4-27.6,0
			C92,719.3,66,716,66,716s79.4-34.8,85.1-38c-6.2,5.5-4.3,6.1-3.5,6.1s8.6-2.7,12.1-2.4s5.4,4.7,5.4,4.7s4.2-5.3,6.3-5
			c1.8,0.4,3.4,1.2,4.9,2.2c0,0-6.7,8.8-13.6,11.7s-8.4,3.7-11,5.7c-2.2,1.5-4.5,2.9-6.9,4c0,0,20-4.3,24.3-7.1s7.6-7.1,9.3-8.2
			s5-4,6.2-4s4-3.8,6.4-4.2s8.6,3.3,8.6,3.3c-2.5,3.3-5.4,6.2-8.6,8.8c-4.8,3.7-9.1,4.5-12.6,7.4s-11.4,4.8-11.4,4.8
			s11.7-4.3,15-4.8s13.8-7.1,16.9-9.1s5.3-9.4,5.3-9.4S205.2,679.6,212.1,684.2z"/>
		
			<linearGradient id="SVGID_29_" gradientUnits="userSpaceOnUse" x1="1302.6901" y1="59.84" x2="1342.4501" y2="59.84" gradientTransform="matrix(-1 0 0 -1 1637.3301 772)">
			<stop  offset="1.000000e-02" style="stop-color:#336300"/>
			<stop  offset="1" style="stop-color:#5C9600"/>
		</linearGradient>
		<path class="st49" d="M325.2,687c0,0,2.1,0.9-0.2,9.1s-4.5,15.9-9.5,22.2s-20.5,20.5-20.5,20.5s21.7-14.5,25.5-21.9
			s9.1-24.2,10-25.9c1.3-1.9,2.7-3.7,4.2-5.4C334.6,685.6,330.2,689.3,325.2,687z"/>
		
			<linearGradient id="SVGID_30_" gradientUnits="userSpaceOnUse" x1="1269.2101" y1="59.835" x2="1337.1401" y2="59.835" gradientTransform="matrix(-1 0 0 -1 1637.3301 772)">
			<stop  offset="1.000000e-02" style="stop-color:#336300"/>
			<stop  offset="1" style="stop-color:#5C8C00"/>
		</linearGradient>
		<path class="st50" d="M339,683.3c0,0,0.2,2.8-3.3,10.8s-3.6,8.5-8.4,17.6c-11.5,8.1-27.1,24.8-27.1,24.8s28.8-20.5,32.9-29
			s4-13.4,6.4-13.4c1.3,0.1,2.6-0.4,3.5-1.3c0,0-0.4,7.3-0.4,12.1s-1.9,9.1-4,14.8s-6.4,13.1-12.4,17s-9.5,4.3-9.5,4.3
			s11.5-2.3,17.6-6.5s5.7-8.3,10.2-16.5s7.2-14.8,8.1-18.2s2.9-7.1,2.9-5.7s-0.2,10.8-0.2,11.9s4.5-13.1,2.6-13.9
			c-1-0.4-2-1-2.9-1.7c1.8-0.1,3.6,0.3,5.3,1.1c2.4,1.4,7.9-1.4,7.9-1.4s-5.3,0.6-9.1-1.1s-5.7-2.3-9.3-1.1
			c-2.6,0.8-5.4,1.3-8.1,1.4c-1.2,0-0.5-2-0.5-2S341.2,684.2,339,683.3z"/>
		
			<linearGradient id="SVGID_31_" gradientUnits="userSpaceOnUse" x1="1173.4701" y1="47.055" x2="1311.1201" y2="47.055" gradientTransform="matrix(-1 0 0 -1 1637.3301 772)">
			<stop  offset="1.000000e-02" style="stop-color:#336300"/>
			<stop  offset="1" style="stop-color:#5C8C00"/>
		</linearGradient>
		<path class="st51" d="M400.2,687.7c0,0,1,4.8-2.4,8.3c-2.5,2.5-9.8,11-16.4,17.5c-2.2,2.2-20.7,5.6-36.3,19.3
			c-1.5,1.2,27.1-11.2,25.5-9.7c-4.9,4.5-9.5,9.4-13.6,14.7c-2.6,3.7-12.2,7.4-17.4,7.7s-13.4-1.4-13.4-1.4s21.2,2.3,27.9-0.3
			s4.8-0.5,9.9-2.1s11.3-3.6,17.5-7.6s10-4.8,13.8-13.9s13.4-14.8,13.4-14.8s-11.2,29.5-17.6,34.1s-10.8,5.7-16.8,10.5
			s-12.7,6.4-14.9,8.1s-19.4,11.3-19.4,11.3s41.1-10.7,46.4-13s22.2-9.3,26.7-9.9s5.5-4.6,15.5-17.4s4.2-17.5,11.4-23.7
			s11.7-19,11.7-19l12.2-2.8c0,0-52.6,4.9-32.2-2.6c-4.5-1.4-18.5,1.9-19.4,1.9s-1.1-0.8-6.1-0.2s-4.3-1.1-14.8,1.7
			s-14.8,2.8-14.8,2.8s18.6-0.3,19.6-0.3s-1.7,0.3-7.9,2.3s-16,3.1-16,3.1s5,2.3-0.2,4s-5,1.1-7.4,1.4l-2.4,0.3
			c3.5,1.4,7.3,1.6,11,0.6c5.5-1.7,1.9,10.6-18.2,19c17.2-3,39.5-23.3,41.4-23.6S400.6,691.7,400.2,687.7z"/>
		
			<linearGradient id="SVGID_32_" gradientUnits="userSpaceOnUse" x1="1097.2416" y1="110.4929" x2="1072.5316" y2="39.1929" gradientTransform="matrix(-1 0 0 -1 1637.3301 772)">
			<stop  offset="1.000000e-02" style="stop-color:#336300"/>
			<stop  offset="1" style="stop-color:#4D8F00"/>
		</linearGradient>
		<path class="st52" d="M730.7,739c0,0-72.9-67.2-78.4-69.6c-1.1,0.6-0.1,1.4-1,1.9c-0.7,0.3-3.5,0-4.1,0.3
			c-1.2,0.5,8.6,7.2,7.5,7.6c-0.8,0.3-14-6-14.7-5.7c-1.7,0.6-2.7-1-4-0.8c-7.7,1.2-9.1-1.2-9.1-1.2s-60.4,23.9-45.2,8.7
			c-7.8,0-45.3,6.8-52.1,6.8s-9.8-7.7-17.1-3.7c-0.8,0.4-1.7,0.8-2.6,1c-0.5,0.1-1,0.3-1.6,0.4c-1.7,0.3-3.5,0.4-5.2,0.4
			c-2.8,0-15.1,37.2-34.8,52.9c7.5-7.8,28.9-53.8,27.9-53.6c-7.5,1.6-7.8,3.2-9.2,3.1c-0.8,0-27.1,46.9-27.6,46.9
			s22.9-47.4,22.3-47.3s-4.9-1.6-1.6-2.8c2.5-1-4.9,0.4-4.9,0.4s-3.6,10.7-8.4,18.2s-24.3,33.6-29.2,36.5s-28.4,16.5-28.4,16.5
			s17.5-6.2,25.8-7c11.8-1.2,27.8-2.5,36.7-2.5c15.1,0,23.8,2.9,41.3,2.3s34.5,2.9,41.8,4.1s85.6,4,85.6,4s-90.5-15.6-97.3-19.6
			s-3,1.6,12.5-1.3s96,21.8,106.2,20.1c4.6-0.8-67.3-37.8-61.1-38.6c0.5,0,65.7,33.9,66.2,33.9c7-0.8-51.6-35.5-49.8-35.5
			c3.4,0-16-12.9-8.2-11.2c68.4,19.1,95.7,26.9,95.7,26.9s-38.3-25.1-42.6-30.3s-21-18.8-21-18.8L730.7,739z"/>
		
			<linearGradient id="SVGID_33_" gradientUnits="userSpaceOnUse" x1="1339.27" y1="63.615" x2="1416.8601" y2="63.615" gradientTransform="matrix(-1 0 0 -1 1637.3301 772)">
			<stop  offset="1.000000e-02" style="stop-color:#336300"/>
			<stop  offset="1" style="stop-color:#5C9600"/>
		</linearGradient>
		<path class="st53" d="M292.3,691.5c-1.2,0.6-2.4,1.2-3.5,2c-4.7,4.2-9.2,8.7-13.4,13.5c-4.5,5.4-13.3,12.1-16.6,13.6
			s-38.3,7.3-38.3,7.3s35.3-8.4,37.2-9.4s7.8-6.1,10.5-8.6s6-6.6,6-7.6c0-1.5,0.6-3,1.5-4.2c1-1.2,2.1-4.7,2.1-4.7s-4.7,4.9-6,6.4
			s-4.9,4.9-5.6,5.9c-0.5,0.7-1.1,1.2-1.9,1.5c2.2-2.2,4.3-4.6,6.2-7.1c1.4-2.2,4.5-7.1,4.5-7.9v-0.7c0,0-12.7-0.6,3.3-1.3
			c13.8-0.6,1.6-0.7,2.4-0.7c0.4,0,2.7-0.5,3.5-0.5c2.3-0.1,5.6-0.2,5.6-0.2s4.5,3.2,6.4,2.7l1.9-0.5
			C298.1,691,293.9,693.7,292.3,691.5z"/>
		
			<linearGradient id="SVGID_34_" gradientUnits="userSpaceOnUse" x1="1319.26" y1="65.28" x2="1393.3301" y2="65.28" gradientTransform="matrix(-1 0 0 -1 1637.3301 772)">
			<stop  offset="1.000000e-02" style="stop-color:#336300"/>
			<stop  offset="1" style="stop-color:#5C8C00"/>
		</linearGradient>
		<path class="st54" d="M310.7,695.5c-3.5,4.2-4.5,2.7-10.3,10c-6.5,8.2-19.2,11.6-26.4,15.1s-30,3.9-30,3.9s23.1-3.9,28.2-6
			s16.6-8.6,21-11.2s4.7-6,5.1-7.8s-0.2-8.5-0.2-8.5s6.7-0.2,8.9,0.3s11.1-2.3,11.1-2.3s-5.4,5.7-3.9,7.9c1.3,2.2,2.5,4.6,3.6,6.9
			C317.8,703.8,311.1,698.1,310.7,695.5z"/>
		
			<linearGradient id="SVGID_35_" gradientUnits="userSpaceOnUse" x1="438.9615" y1="166.1586" x2="400.4615" y2="124.5486" gradientTransform="matrix(1 0 0 -1 0 772)">
			<stop  offset="1.000000e-02" style="stop-color:#FAF7A6"/>
			<stop  offset="1" style="stop-color:#8CD95C"/>
		</linearGradient>
		<path class="st55" d="M351.9,638.6c23.4,0.3,45.3-7.6,50.7-6.3s20.9,0.9,24.1,1.6s39.9,3.5,39.9,3.5S440,644.9,414,638
			c-6.5,0.7-1.4,2.8-5.8,3.4c-11.3,1.7-9.9-0.4-26-3.4c0,0,20,6.9,28.1,6.9s35.2,2.7,35.2,2.7s-34.3,5.8-42.4,4.5
			s-16.3-1.5-21.4-3.7C375.7,645.7,363.6,644.8,351.9,638.6z"/>
		
			<linearGradient id="SVGID_36_" gradientUnits="userSpaceOnUse" x1="565.2607" y1="150.1201" x2="502.6907" y2="82.4901" gradientTransform="matrix(1 0 0 -1 0 772)">
			<stop  offset="1.000000e-02" style="stop-color:#A6E37D"/>
			<stop  offset="1" style="stop-color:#8CD95C"/>
		</linearGradient>
		<path class="st56" d="M454.1,674.9c0,0,9.8-3,7.6-0.4c11.4-0.6,7-1.9,14-1.9c3.9,0,9.5-0.8,14.6-1.4c3.6-0.5,7.2-0.7,10.9-0.6
			c1.5,0.2-14.3,5.5-11.5,5.6c2.1,0,22.5-5.3,24.8-5.3c6.8-0.1,33.1-0.8,33.1-0.8s-29.3-2-31.3-3.5s-35.7,1.8-40,0.9
			c-1-0.2,39.1-6.6,35.7-7.4c-4.5-1-13.3-0.1-14.5-0.1s21.9-4.3,30.2-5.6c4-0.6-13.5,5.4-9.5,5.6c1.6,0.1,7.8-0.9,21.5-0.4
			c8.4,0.3,25.3-2.8,39.5-1.4c2.2,0.2-46,6.3-44.8,6.8c4.7,1.9,5.6,1.2,8.1,1.7c3.3,0.6,36.6-0.7,36.6-0.7l24.7,1.2
			c0,0-52.1,8.5-61.3,7.9l-9.2-0.7c3.7,1.3,7.5,2.4,11.4,3.2c6,1.3,10.8,1.9,10.8,1.9s-3.1,2.5,3,1.9s17.6-1.9,17.6-1.9
			s-28.2,3.9-36.3,5.8s-7.2,0.3-10.4,1.4s-14.6,1.2-13,1.2s3.3-3.9,8.7-3.2s3.3-1.3,3.3-1.3s-2.1-4.6-8.1-2.6s-7.6,4-10.6,3.3
			s-3.3-1.7-5.7-1.4c-4.4,0.7-10.7,2.8-6.9,1.5s5.3-4.8,7.5-4.8c2.4-0.2,4.7-0.7,7.1-1.3c0,0-11.9-2.6-15.7,0.7s-6,2.6-8.1,2.6
			s-4.8,2.8-7.8,2.7s-12.9-1.8-11.2-1.2s-0.5-0.9,8.8-3.5l9.2-2.6c0,0-15.2-0.7-19.5,1.3s-5.4-0.7-9.2-0.7s-25.6,3.2-27.8,3.2
			S460.6,671.7,454.1,674.9z"/>
		
			<linearGradient id="SVGID_37_" gradientUnits="userSpaceOnUse" x1="354.8868" y1="140.1314" x2="311.0468" y2="92.7414" gradientTransform="matrix(1 0 0 -1 0 772)">
			<stop  offset="1.000000e-02" style="stop-color:#A6E37D"/>
			<stop  offset="1" style="stop-color:#8CD95C"/>
		</linearGradient>
		<path class="st57" d="M287,649.3c2-0.3,8.7-7.1,17.9-5.8s10.9,0,13,0c4.4,0.2,8.8,0.8,13,1.9c4.3,1.3,7.6-3.2,10.9,0.7
			s9.8,3.9,13,5.8s15.7,5.2,15.7,5.2h-11.4c-4,0,36.3,13.5,26.6,11.3c-1.3-0.3-43-6.4-44.4-6.5c-5.5-0.3-8.4-5.8-13.5-4.8
			c-6.5,1.3-31.5,6.5-34.2,7.8s-30.4,8.4-32.5,9s12.5-7.1,22.8-9.7s16.8-9.7,26-10.3s16.8-2.6,17.9-1.9s-18.5-3.2-22.2-1.3
			s-8.1-0.7-10.9,0.7s-8.7,2.6-11.9,5.2s-23.3,7.1-23.3,7.1s15.1-8.6,19-9.5S282.2,650,287,649.3z"/>
		
			<linearGradient id="SVGID_38_" gradientUnits="userSpaceOnUse" x1="65.8541" y1="126.5712" x2="50.4841" y2="52.4312" gradientTransform="matrix(1 0 0 -1 0 772)">
			<stop  offset="2.000000e-02" style="stop-color:#4A9633"/>
			<stop  offset="0.98" style="stop-color:#307300"/>
		</linearGradient>
		<path class="st58" d="M132,699.5c10.3-5.3,36.3-13.2,36.3-13.2s-10,1.8-25.2,5.9s-24.2,9.7-52.6,18.4s-72.6,15.1-72.6,15.1
			c25.9-6,51.3-13.4,76.3-22.4c68.9-25.4,92.3-29.6,92.3-29.6s-25.5,2-34.5,4.3s-14.7,4.9-44.7,14.1c-27.8,8.5-60.3,12.2-64.9,12.6
			l-0.5,0l0.5,0c1.9-0.2,9.2-1.2,28.9-5.2c15.4-3.3,30.6-7.9,45.2-13.8c0,0-26.4,9-70.6,10.3s-100.1,11.9-112.5,11l-6.7-0.5v1.6
			c0.4,0.6,0.7,1.2,1.1,1.9c3.3,5,5.1,10.8,5.4,16.8c1.3,6,1.1,12.2-0.8,18c-0.1,0.9-0.3,1.8-0.4,2.8H37.6
			c25.3-14.2,51.6-26.6,78.7-37c8.6-3.3,27.3-12.2,37.1-13.6c18.1-2.6,29.7-7.5,29.7-7.5c-8.6,2.9-17.5,4.6-26.6,5
			C141.8,695.3,121.8,704.7,132,699.5z"/>
		
			<linearGradient id="SVGID_39_" gradientUnits="userSpaceOnUse" x1="1128.0903" y1="17.8703" x2="1130.4303" y2="97.3903" gradientTransform="matrix(-1 0 0 -1 1637.3301 772)">
			<stop  offset="0" style="stop-color:#458029"/>
			<stop  offset="1" style="stop-color:#1F7A4F"/>
		</linearGradient>
		<path class="st59" d="M866.4,720.1c-1.9-4.5-3-9.3-3.2-14.2c-0.1-1.8,0-3.6,0.2-5.4c-1.5-4.5-2.3-9.3-2.4-14.1
			c0-9.9,0.4-19.8,1.1-29.8c-28.8,7.9-99.5,26.3-126.5,24.5c-2.4-0.7-10.7-1.5-19.6-0.5c-3.3-0.2-8.9,2.7-12.6,3.2
			c-4.7,0.7-5.3,0.7-10.9,1.6c-33.9,5.4-82.1,15-125.9,26c-260.6,27.2-125.1,4.1-143.3,5.4c-88.5,6.3-119.1,17.2-136.1,20.4
			c1-0.8,23.8-11.2,51.7-15.1c-22.1-1.9-139,15.8-143.6,17.5c-22.2,1.5-31.1,0.9-44.7,3.9c2.9,4.6,114.9-10.2,123.9-12.2
			c2.5,1.8-56.7,10.2-66.6,13c-5.5,3,0,3.2,0,3.2h655.8l2.1-4.3c0.5-1,1-2.1,1.5-3.1c-0.2-4.9-0.4-9.8-0.7-14.7
			C866.5,723.8,866.5,721.9,866.4,720.1z"/>
		
			<linearGradient id="SVGID_40_" gradientUnits="userSpaceOnUse" x1="415.4786" y1="391.7486" x2="489.9686" y2="391.7486" gradientTransform="matrix(1 0 0 -1 0 772)">
			<stop  offset="0" style="stop-color:#056100"/>
			<stop  offset="1" style="stop-color:#29C200"/>
		</linearGradient>
		<path class="st60" d="M465.9,335.2l-5.7-0.1l0,0.2l-0.8-0.2c-2.9-0.1-5.8-0.1-8.6-0.2c-1.3,0-2.6-0.1-4-0.1
			c-4,0.9-7.5,3.2-8.4,8.3c-1.9,10.2,11.2,7.5,17.4,5.6c-2.3,6-4.9,11.8-7.6,17.4c-5-1.5-21.4-5.4-22.7,5.9c-1,8,11.4,6.2,16.9,5.1
			c-2.5,4.4-5,8.5-7.3,12.3c-4-0.6-16.7-2-19.1,4c-2.5,6.2,8.5,7.3,11.5,7.5c-5.7,8.1-9.7,12.9-9.7,12.9s4.1,15.6,9.8,11.8
			c5.1-3.5,0.5-18.8-0.6-22c3.3-3.8,7.1-8.6,11.2-14.2c0.6,4.8,2.8,15.8,9.1,14.7c7.6-1.4,0.1-18.8-2.5-24.2c2.9-4.4,5.7-9.1,8.4-14
			c0.9,5.1,4.1,19.1,10,12.5s-1.7-19.8-4.4-23.8C461.6,348,464,341.7,465.9,335.2z"/>
		
			<linearGradient id="SVGID_41_" gradientUnits="userSpaceOnUse" x1="33.415" y1="376.3939" x2="97.9643" y2="376.3939" gradientTransform="matrix(1 0 0 -1 0 772)">
			<stop  offset="0" style="stop-color:#056100"/>
			<stop  offset="1" style="stop-color:#29C200"/>
		</linearGradient>
		<path class="st61" d="M62.2,336.2c-7.5,8.9-2.1,17.8,17.3,3.9c-0.3,2.7-0.7,5.6-1.2,8.8C55,352.6,51.5,379,75.2,365
			c-0.8,3.6-1.7,7.5-2.8,11.1c-20.8-6.8-28.9,19.6-3.8,11.6c-2,5.2-4.3,10.3-6.6,15.1c-21.6-8.1-29.3,15.2-5,9.5
			c-2.2,3.8-4.3,7.4-6.4,10.7c-15.6-3.7-26,8.1-6.6,9.9c-5,7-8.5,11.2-8.5,11.2s3.6,13.6,8.6,10.2c4.5-3,0.4-16.4-0.5-19.1
			c2.8-3.3,6.2-7.5,9.7-12.3c3.1,21.6,18.2,14.9,5.8-8.3c2.5-3.8,5-7.9,7.3-12.2c4.7,25.7,17.7,6.1,4.9-9.8
			c2.6-5.6,4.7-11.4,6.4-17.3c7,35,22.4,9.6,3.9-15.6c0.6-2.7,1.1-5.3,1.6-7.7c12,23.1,24,6.7,4.6-15.6
			C79.2,336.4,70.7,336.3,62.2,336.2z"/>
		<path class="st62" d="M745.6,651.8c12.3,12,26.7,13.2,27.6,17.1s11,25.4,11,25.4c-3.5-4.5-14.2-16.3-24.4-21.5s-14.2-1.8-7.9,6.3
			s33.7,19.3,34.5,22s10.4,17.5,11.6,20.4c0.7,1.6,10,11.5,18.7,20.3l7.6-0.1c-9.3-8.9-21.4-20.5-24.8-24.2
			c-5.8-6.1-11.2-23.1-11.2-23.1s4,4.7,10.6,0.7s13-17.4,1.8-21.3s-15.1,15.3-15.1,15.3c-5.3-9.4-13.5-32.9-13.5-32.9
			s5.8,1.4,14.7-4.4s9.1-14.5,2.6-18.6s-19.6,13.3-19.6,13.3s0.6-25.9-5.8-37s-14.4-9.4-16.8,0.6s19.3,32.6,19.3,32.6
			c-0.4,2.7,3.9,18.1,3.9,18.1c-3.8-7-19.4-21-28.2-23.8S733.3,639.9,745.6,651.8z"/>
		<path class="st62" d="M806.8,737.2c0,0-14.7,2.7-23.8-3.8s-13.5-13.7-5.8-14.3s20.5,5.2,24.7,9.4s11.5,4.6,11.5,4.6
			S814.8,737.3,806.8,737.2z"/>
		<path class="st62" d="M679.8,725.2c10.9,5,33.7,0,33.7,0s-9.8,12.7-9.3,20.3c5.4-0.3,10.8-0.5,16.2-0.8c0.3-0.7,0.6-1.4,0.8-2.1
			c3.6-10.6,1.3-16.6,1.3-16.6s22.3,4.9,31.5,9c0,0-7.1,3.3-10.3,8.8c6.2-0.2,12.4-0.4,18.6-0.6c-0.2-2.4-1.3-4.6-3.1-6.1
			c0,0,10.9,2,18.3,5.7l6.2-0.2c-4.5-2-16.6-8.3-18.9-8.7c-2.5-0.4-17.4-28.2-25.6-33.6s-10.6-0.5-4.2,9.7s18.8,19.7,23.4,22.8
			c0,0-20.8-7.3-24.4-7.6s-7.3-15.7-20.1-27s-17.8-10-13.8-1s19.2,23.5,26.1,26.4c0,0-14.3-2-16.7-1.2c0,0-23.9-19.7-32.3-15.4
			S668.9,720.2,679.8,725.2z"/>
		<path class="st62" d="M788.8,742.4l10.9-0.3c-0.9-5.4-2.8-12.6-6.8-17.4c-7.3-8.8-14.5-12.2-13.7-3.9
			C779.8,727.5,784.6,736.8,788.8,742.4z"/>
		<path class="st63" d="M788.4,677.5c-1.6,2.7-6.3,22.5-7.7,25.8c-0.9,2.1-1.8,23.6-2.1,39.4l6.3-0.2c0-15.1,0-35,0.3-40.9
			c0.5-9.9,10.3-27.5,10.3-27.5s-0.7,7.2,7.8,10.3s24.8-1,19.1-14.1s-24.7-2.5-24.7-2.5c3.6-11.8,16.5-36.8,16.5-36.8
			s3.4,6.4,15.4,10.2s19.3-2.4,17.5-11.4s-26.6-8.1-26.6-8.1s22-18.7,26.1-32.7s-3.6-20.2-13.8-15s-11.7,41.9-11.7,41.9
			c-2.6,1.7-11.9,17-11.9,17c2.8-8.7,2-33.4-2.7-43.5s-9.6-6.1-9.7,14.1s10.3,34.4,7.8,38.1s-12.3,29-12.3,29
			c0.9-6.6,2.2-25.2-1.5-38.4s-9.8-14.4-11.5-2.6S790,674.8,788.4,677.5z"/>
		<path class="st63" d="M774.7,722.9c0,0-13.9-11.5-15.8-24.7s0.6-22.5,7.2-15.9s12,22.7,11.8,29.7s5.3,14,5.3,14
			S781,730.3,774.7,722.9z"/>
		<path class="st63" d="M676.8,635.9c14.9,14.5,32.3,16,33.3,20.7s13.3,30.6,13.3,30.6c-4.3-5.5-17.2-19.7-29.4-26
			s-17.2-2.1-9.6,7.6s40.7,23.3,41.6,26.5s12.5,21.1,14,24.6c0.8,1.8,11.2,12.9,21.2,23.1l8.9-0.3c-11-10.5-24.5-23.5-28.5-27.7
			c-7-7.4-13.5-27.9-13.5-27.9s4.9,5.7,12.8,0.8s15.7-21,2.2-25.7S725,680.9,725,680.9c-6.3-11.3-16.3-39.7-16.3-39.7
			s7,1.7,17.8-5.3s11-17.5,3.1-22.5S706,629.4,706,629.4s0.7-31.3-7-44.6s-17.3-11.3-20.2,0.7s23.3,39.4,23.3,39.4
			c-0.5,3.3,4.7,21.8,4.7,21.8c-4.6-8.4-23.4-25.3-34-28.7S661.9,621.5,676.8,635.9z"/>
		<path class="st63" d="M750.7,738.9c0,0-17.7,3.3-28.7-4.5s-16.2-16.5-7-17.2s24.7,6.2,29.8,11.3s13.8,5.5,13.8,5.5
			S760.3,739,750.7,738.9z"/>
		<path class="st63" d="M770.9,742.9l7.8-0.2c1.7-5.8,2.7-15.7,2.3-23.2c-0.7-11.6-11.8-17.3-15.1-6.1s3.6,26.9,3.6,26.9
			C769.9,741.2,770.4,742.1,770.9,742.9z"/>
		<path class="st63" d="M597.5,724.4c13.2,6.1,40.7,0,40.7,0s-12.7,16.6-11.1,25.5l19.2-1.2c0.5-1.1,0.9-2.1,1.3-3.3
			c4.3-12.9,1.5-20.1,1.5-20.1s26.9,6,38,10.9c0,0-8.7,4-12.6,10.8l14-0.8l8.5-0.4c-0.3-2.8-1.6-5.3-3.7-7.1c0,0,12,2.2,20.9,6.3
			l7.1-0.3c-6.3-2.9-18.7-9.3-21.2-9.7c-3-0.5-20.9-34-30.9-40.5s-12.8-0.5-5,11.7s22.6,23.7,28.2,27.5c0,0-25.1-8.8-29.5-9.2
			s-8.8-18.9-24.3-32.6s-21.5-12.1-16.6-1.3s23.2,28.3,31.5,31.9c0,0-17.3-2.5-20.1-1.4c0,0-28.8-23.7-39-18.5
			S584.3,718.3,597.5,724.4z"/>
		<path class="st63" d="M728.3,744.4l13.7-0.5c-1.1-6.4-3.4-14.4-8-19.9c-8.9-10.6-17.5-14.8-16.5-4.7
			C718.1,726.9,723.4,737.6,728.3,744.4z"/>
		<path class="st64" d="M1012.5,392.7c-0.4-12.7-1.2-25.5-1.8-38.2c-0.5-0.2-0.9-0.3-1.4-0.5l1.2-2.4c-0.4-7.6-0.7-15.2-0.9-22.9
			c-0.5-17.6,0-35.1,1.5-52.6c-2-5.5-4.8-9.1-8.5-9c-14,0.5-5.1,77.3-3.9,87.3c-23.9,44.8-51.4,84.9-82.6,114.7
			c2.8-15.7,7.5-50.6-2.8-59.7c-12.4-10.8-19.2,67.1-20.1,79.1c-24.3,18.1-50.7,29.7-79.2,32.8c26.4-63.7,2.6-96.9-24.7,0.4
			c-28.1-2.2-53.4-16.4-75.9-38.4c33.5-30.6,24.3-85.2-21.2-23.8c-18.3-23.5-34.7-52-49-82.8c36.7-9.3,36.3-70.1-15.5-35.9
			c-13.2-33.3-24.8-67.3-34.6-101.9c38.4,4.2,42.9-59.3-11-40.4c-5.2-20.4-10-40.3-14.2-59.5l-7.7,0.3c2.3,10.8,4.8,21.9,7.5,33.2
			c-4.3,17.4-17.7,74.8-6.8,80.8c8.7,4.8,14.9-20,17.9-36.4c9.3,35.5,20.9,73.3,32.6,105.2c-3,17.6-12.5,79.2-1.1,81.8
			c9.7,2.2,14-27.6,15.6-44.3c15,36.1,31,66.8,47.8,92c-0.5,18.6-1.4,81.4,10.1,77.2c9.8-3.5,9.9-34.6,9.3-51.1
			c24.9,30.1,51.3,48.8,79.1,55.6c4.5,19.3,16.9,66.6,25.9,52.9c7.8-11.7,2.1-35.9-2.2-49.9c28.6,0.6,56.3-7.1,83-23
			c33.9,60.8,50.5,19.5,23.6-16.4c30.9-24.7,60.4-60.9,88.2-108.7c8.9,5.3,16.2,7.3,22,7.3L1012.5,392.7z"/>
		<path class="st65" d="M921.2,626.6c-8.1-14.2-31.7-53.9-38.4-46.3c-5.2,5.9,3.9,22.4,11.1,33.7c1.5,2.3,1.2,4.2-0.5,3.4
			c-22.7-10.1-44.4-22.1-65-36c-1.2-0.9-2.2-2.2-2.8-3.6c-5.5-14.4-21.9-55.3-31.6-52.1c-7.2,2.3-2,17.7,3,29.3c1,2.3,0,3.3-2,1.8
			c-28.3-23.1-54.2-49.1-77.1-77.6c-0.9-1-1.4-2.2-1.6-3.4c0-9.3-0.8-49.1-14.6-54.4c-10-3.8-10.3,10.1-9.3,20.6
			c0.2,2-2,1.4-3.8-1.1c-22.2-30.9-42.1-63.4-59.6-97.1c-0.6-1.1-0.7-2.1-0.4-2.6c3.7-6.1,18.2-32,4-43.8c-10.4-8.7-16.2,0.2-19,7.6
			c-0.5,1.4-3.4-0.6-4.6-3.3c-17-38.7-30.4-78.9-40.1-120.1c-4.8-0.1-9.7-0.3-14.6-0.5l-4-0.2c5.1,5.7,10.2,11.1,14.1,15
			c0.9,0.9,1.6,2,2,3.3c11.9,44.4,28,87.6,48.2,128.9c1.1,2.2,0.4,3.4-1.3,2.4c-8.8-5.5-19.6-10.4-19.9-1.5
			c-0.4,11.8,27.4,29.1,39.5,36c1.1,0.7,2,1.7,2.6,2.8c19.8,35,42.1,68.6,66.7,100.4c1.7,2.2,1.9,4.4,0.5,4.2
			c-7.8-1.1-17-0.4-13.7,10.5c4.3,14.1,28.5,17.4,39.1,18.2c0.9,0.2,1.8,0.8,2.4,1.6c25.2,28.8,53.6,54.7,84.5,77.3
			c2.1,1.5,3.6,4.8,2.6,5.6c-5.2,4-10.8,11.4-3.8,22.4c9.3,14.7,26.3-0.9,31.9-6.7c0.3-0.3,0.9-0.3,1.5,0.2
			c21,12.7,43,23.6,65.9,32.4c1.9,0.8,4.2,4.3,3.6,5.7c-2.8,6.8-4.8,17.3,3.3,26.6c11.2,13,20.3-12.4,23-21.3
			c0.2-0.5,0.5-0.6,1.1-0.5c7.4,2.2,14.9,4.2,22.5,5.9c0-2.8,0-5.7,0.1-8.5c-14.4-3.3-28.6-7.3-42.6-12.2
			C923,628.9,921.9,627.9,921.2,626.6z"/>
		<path class="st65" d="M979.4,666.1c-1.3-0.7-2.3-1.7-3-3c-8-14.3-31.4-54.2-38.1-46.7c-5.2,5.8,3.7,22.5,10.9,33.8
			c1.5,2.3,1.2,4.2-0.5,3.4c-22.6-10.3-44.3-22.6-64.8-36.6c-1.2-0.9-2.2-2.2-2.8-3.6c-5.4-14.4-21.6-55.4-31.3-52.4
			c-7.2,2.3-2.1,17.7,2.9,29.4c1,2.3-0.1,3.3-2,1.7c-28.2-23.4-53.9-49.7-76.6-78.4c-0.9-1-1.4-2.2-1.5-3.5
			c0.1-9.3-0.5-49.1-14.3-54.5c-10-3.9-10.4,10-9.4,20.5c0.2,2-2,1.4-3.8-1.1c-22-31.1-41.8-63.8-59.1-97.7
			c-0.5-0.8-0.7-1.7-0.4-2.6c3.8-6.1,18.4-31.8,4.2-43.8c-10.4-8.8-16.2,0-19.1,7.5c-0.5,1.4-3.4-0.6-4.5-3.4
			c-17-39.2-30.2-80-39.7-121.6c-0.2-0.9,0-1.4,0.5-1.6c6.2-1.6,34-9.9,21.6-26.4c-8.9-11.9-19-9.7-25.1-6.5
			c-1.2,0.6-4.2-2.5-4.6-4.9c-2-12.2-3.5-24.1-4.8-35.6c-2.5,0-4.9-0.1-7.4-0.1c1,9.3,2.2,18.6,3.7,27.9s3.2,18.9,5.1,28.3
			c0.4,1.9-1.2,2-2.9,0.1c-8.1-8.7-18.5-17.7-22.1-12.2c-4.8,7.3,19.7,34,31.7,46.3c0.9,0.9,1.6,2.1,2,3.3
			c11.6,44.5,27.5,87.8,47.5,129.3c1,2.2,0.3,3.4-1.3,2.3c-8.8-5.6-19.6-10.6-19.9-1.6c-0.4,11.8,27.3,29.3,39.3,36.4
			c1.1,0.7,1.9,1.7,2.5,2.8c19.6,35.2,41.7,69,66.1,101.1c1.7,2.2,1.9,4.4,0.4,4.2c-7.8-1.2-17-0.6-13.7,10.4
			c4.3,14.1,28.4,17.7,39,18.6c0.9,0.3,1.8,0.8,2.4,1.6c25,29,53.2,55.2,84,78.1c2,1.5,3.6,4.8,2.6,5.6c-5.2,4-10.8,11.3-3.9,22.4
			c9.3,14.8,26.3-0.7,31.9-6.4c0.3-0.3,0.9-0.3,1.5,0.2c20.9,12.9,42.9,24,65.7,33.1c1.9,0.8,4.2,4.3,3.6,5.8
			c-2.9,6.8-4.9,17.2,3.2,26.6c7,8.2,13.3,1.3,17.6-7.2c0-8.3-0.1-16.5-0.2-24.8C988.3,669.2,983.9,667.7,979.4,666.1z"/>
	</g>
</g>
<radialGradient id="SVGID_42_" cx="462.14" cy="447.03" r="8.39" gradientTransform="matrix(1 0 0 -1 0 772)" gradientUnits="userSpaceOnUse">
	<stop  offset="0" style="stop-color:#FFFFFF"/>
	<stop  offset="0.13" style="stop-color:#FFFFFB"/>
	<stop  offset="0.26" style="stop-color:#FFFFEE"/>
	<stop  offset="0.39" style="stop-color:#FFFFDA"/>
	<stop  offset="0.53" style="stop-color:#FFFFBD"/>
	<stop  offset="0.66" style="stop-color:#FFFF98"/>
	<stop  offset="0.7" style="stop-color:#FFFF8C"/>
	<stop  offset="1" style="stop-color:#FFC728"/>
</radialGradient>
<circle class="st66" cx="462.1" cy="325" r="8.4"/>
<radialGradient id="SVGID_43_" cx="394.61" cy="447.03" r="8.39" gradientTransform="matrix(1 0 0 -1 0 772)" gradientUnits="userSpaceOnUse">
	<stop  offset="0" style="stop-color:#FFFFFF"/>
	<stop  offset="0.13" style="stop-color:#FFFFFB"/>
	<stop  offset="0.26" style="stop-color:#FFFFEE"/>
	<stop  offset="0.39" style="stop-color:#FFFFDA"/>
	<stop  offset="0.53" style="stop-color:#FFFFBD"/>
	<stop  offset="0.66" style="stop-color:#FFFF98"/>
	<stop  offset="0.7" style="stop-color:#FFFF8C"/>
	<stop  offset="1" style="stop-color:#FFC728"/>
</radialGradient>
<circle class="st67" cx="394.6" cy="325" r="8.4"/>
<radialGradient id="SVGID_44_" cx="327.08" cy="447.03" r="8.39" gradientTransform="matrix(1 0 0 -1 0 772)" gradientUnits="userSpaceOnUse">
	<stop  offset="0" style="stop-color:#FFFFFF"/>
	<stop  offset="0.13" style="stop-color:#FFFFFB"/>
	<stop  offset="0.26" style="stop-color:#FFFFEE"/>
	<stop  offset="0.39" style="stop-color:#FFFFDA"/>
	<stop  offset="0.53" style="stop-color:#FFFFBD"/>
	<stop  offset="0.66" style="stop-color:#FFFF98"/>
	<stop  offset="0.7" style="stop-color:#FFFF8C"/>
	<stop  offset="1" style="stop-color:#FFC728"/>
</radialGradient>
<circle class="st68" cx="327.1" cy="325" r="8.4"/>
<radialGradient id="SVGID_45_" cx="259.55" cy="447.03" r="8.39" gradientTransform="matrix(1 0 0 -1 0 772)" gradientUnits="userSpaceOnUse">
	<stop  offset="0" style="stop-color:#FFFFFF"/>
	<stop  offset="0.13" style="stop-color:#FFFFFB"/>
	<stop  offset="0.26" style="stop-color:#FFFFEE"/>
	<stop  offset="0.39" style="stop-color:#FFFFDA"/>
	<stop  offset="0.53" style="stop-color:#FFFFBD"/>
	<stop  offset="0.66" style="stop-color:#FFFF98"/>
	<stop  offset="0.7" style="stop-color:#FFFF8C"/>
	<stop  offset="1" style="stop-color:#FFC728"/>
</radialGradient>
<circle class="st69" cx="259.5" cy="325" r="8.4"/>
<radialGradient id="SVGID_46_" cx="192.03" cy="447.03" r="8.39" gradientTransform="matrix(1 0 0 -1 0 772)" gradientUnits="userSpaceOnUse">
	<stop  offset="0" style="stop-color:#FFFFFF"/>
	<stop  offset="0.13" style="stop-color:#FFFFFB"/>
	<stop  offset="0.26" style="stop-color:#FFFFEE"/>
	<stop  offset="0.39" style="stop-color:#FFFFDA"/>
	<stop  offset="0.53" style="stop-color:#FFFFBD"/>
	<stop  offset="0.66" style="stop-color:#FFFF98"/>
	<stop  offset="0.7" style="stop-color:#FFFF8C"/>
	<stop  offset="1" style="stop-color:#FFC728"/>
</radialGradient>
<circle class="st70" cx="192" cy="325" r="8.4"/>
<radialGradient id="SVGID_47_" cx="124.5" cy="447.03" r="8.39" gradientTransform="matrix(1 0 0 -1 0 772)" gradientUnits="userSpaceOnUse">
	<stop  offset="0" style="stop-color:#FFFFFF"/>
	<stop  offset="0.13" style="stop-color:#FFFFFB"/>
	<stop  offset="0.26" style="stop-color:#FFFFEE"/>
	<stop  offset="0.39" style="stop-color:#FFFFDA"/>
	<stop  offset="0.53" style="stop-color:#FFFFBD"/>
	<stop  offset="0.66" style="stop-color:#FFFF98"/>
	<stop  offset="0.7" style="stop-color:#FFFF8C"/>
	<stop  offset="1" style="stop-color:#FFC728"/>
</radialGradient>
<circle class="st71" cx="124.5" cy="325" r="8.4"/>
<radialGradient id="SVGID_48_" cx="56.97" cy="447.03" r="8.39" gradientTransform="matrix(1 0 0 -1 0 772)" gradientUnits="userSpaceOnUse">
	<stop  offset="0" style="stop-color:#FFFFFF"/>
	<stop  offset="0.13" style="stop-color:#FFFFFB"/>
	<stop  offset="0.26" style="stop-color:#FFFFEE"/>
	<stop  offset="0.39" style="stop-color:#FFFFDA"/>
	<stop  offset="0.53" style="stop-color:#FFFFBD"/>
	<stop  offset="0.66" style="stop-color:#FFFF98"/>
	<stop  offset="0.7" style="stop-color:#FFFF8C"/>
	<stop  offset="1" style="stop-color:#FFC728"/>
</radialGradient>
<circle class="st72" cx="57" cy="325" r="8.4"/>
<radialGradient id="SVGID_49_" cx="19.7" cy="406.4541" r="8.39" gradientTransform="matrix(1 0 0 -1 2.881058e-03 771.9969)" gradientUnits="userSpaceOnUse">
	<stop  offset="0" style="stop-color:#FFFFFF"/>
	<stop  offset="0.13" style="stop-color:#FFFFFB"/>
	<stop  offset="0.26" style="stop-color:#FFFFEE"/>
	<stop  offset="0.39" style="stop-color:#FFFFDA"/>
	<stop  offset="0.53" style="stop-color:#FFFFBD"/>
	<stop  offset="0.66" style="stop-color:#FFFF98"/>
	<stop  offset="0.7" style="stop-color:#FFFF8C"/>
	<stop  offset="1" style="stop-color:#FFC728"/>
</radialGradient>
<circle class="st73" cx="19.7" cy="365.5" r="8.4"/>
<radialGradient id="SVGID_50_" cx="19.7168" cy="338.9302" r="8.3765" gradientTransform="matrix(1 0 0 -1 -1.244437e-02 771.9798)" gradientUnits="userSpaceOnUse">
	<stop  offset="0" style="stop-color:#FFFFFF"/>
	<stop  offset="0.13" style="stop-color:#FFFFFB"/>
	<stop  offset="0.26" style="stop-color:#FFFFEE"/>
	<stop  offset="0.39" style="stop-color:#FFFFDA"/>
	<stop  offset="0.53" style="stop-color:#FFFFBD"/>
	<stop  offset="0.66" style="stop-color:#FFFF98"/>
	<stop  offset="0.7" style="stop-color:#FFFF8C"/>
	<stop  offset="1" style="stop-color:#FFC728"/>
</radialGradient>
<circle class="st74" cx="19.7" cy="433" r="8.4"/>
<radialGradient id="SVGID_51_" cx="19.7" cy="271.4" r="8.39" gradientTransform="matrix(1 0 0 -1 0 772)" gradientUnits="userSpaceOnUse">
	<stop  offset="0" style="stop-color:#FFFFFF"/>
	<stop  offset="0.13" style="stop-color:#FFFFFB"/>
	<stop  offset="0.26" style="stop-color:#FFFFEE"/>
	<stop  offset="0.39" style="stop-color:#FFFFDA"/>
	<stop  offset="0.53" style="stop-color:#FFFFBD"/>
	<stop  offset="0.66" style="stop-color:#FFFF98"/>
	<stop  offset="0.7" style="stop-color:#FFFF8C"/>
	<stop  offset="1" style="stop-color:#FFC728"/>
</radialGradient>
<circle class="st75" cx="19.7" cy="500.6" r="8.4"/>
<radialGradient id="SVGID_52_" cx="19.7" cy="203.868" r="8.39" gradientTransform="matrix(1 0 0 -1 -1.413107e-03 771.9966)" gradientUnits="userSpaceOnUse">
	<stop  offset="0" style="stop-color:#FFFFFF"/>
	<stop  offset="0.13" style="stop-color:#FFFFFB"/>
	<stop  offset="0.26" style="stop-color:#FFFFEE"/>
	<stop  offset="0.39" style="stop-color:#FFFFDA"/>
	<stop  offset="0.53" style="stop-color:#FFFFBD"/>
	<stop  offset="0.66" style="stop-color:#FFFF98"/>
	<stop  offset="0.7" style="stop-color:#FFFF8C"/>
	<stop  offset="1" style="stop-color:#FFC728"/>
</radialGradient>
<circle class="st76" cx="19.7" cy="568.1" r="8.4"/>
<radialGradient id="SVGID_53_" cx="19.7" cy="136.34" r="8.39" gradientTransform="matrix(1 0 0 -1 0 772)" gradientUnits="userSpaceOnUse">
	<stop  offset="0" style="stop-color:#FFFFFF"/>
	<stop  offset="0.13" style="stop-color:#FFFFFB"/>
	<stop  offset="0.26" style="stop-color:#FFFFEE"/>
	<stop  offset="0.39" style="stop-color:#FFFFDA"/>
	<stop  offset="0.53" style="stop-color:#FFFFBD"/>
	<stop  offset="0.66" style="stop-color:#FFFF98"/>
	<stop  offset="0.7" style="stop-color:#FFFF8C"/>
	<stop  offset="1" style="stop-color:#FFC728"/>
</radialGradient>
<circle class="st77" cx="19.7" cy="635.7" r="8.4"/>
<radialGradient id="SVGID_54_" cx="19.7" cy="68.8106" r="8.39" gradientTransform="matrix(1 0 0 -1 4.253988e-04 772.001)" gradientUnits="userSpaceOnUse">
	<stop  offset="0" style="stop-color:#FFFFFF"/>
	<stop  offset="0.13" style="stop-color:#FFFFFB"/>
	<stop  offset="0.26" style="stop-color:#FFFFEE"/>
	<stop  offset="0.39" style="stop-color:#FFFFDA"/>
	<stop  offset="0.53" style="stop-color:#FFFFBD"/>
	<stop  offset="0.66" style="stop-color:#FFFF98"/>
	<stop  offset="0.7" style="stop-color:#FFFF8C"/>
	<stop  offset="1" style="stop-color:#FFC728"/>
</radialGradient>
<circle class="st78" cx="19.7" cy="703.2" r="8.4"/>
<radialGradient id="SVGID_55_" cx="47.75" cy="19.019" r="8.3905" gradientTransform="matrix(1 0 0 -1 -2.712285e-02 771.973)" gradientUnits="userSpaceOnUse">
	<stop  offset="0" style="stop-color:#FFFFFF"/>
	<stop  offset="0.13" style="stop-color:#FFFFFB"/>
	<stop  offset="0.26" style="stop-color:#FFFFEE"/>
	<stop  offset="0.39" style="stop-color:#FFFFDA"/>
	<stop  offset="0.53" style="stop-color:#FFFFBD"/>
	<stop  offset="0.66" style="stop-color:#FFFF98"/>
	<stop  offset="0.7" style="stop-color:#FFFF8C"/>
	<stop  offset="1" style="stop-color:#FFC728"/>
</radialGradient>
<circle class="st79" cx="47.8" cy="753" r="8.4"/>
<radialGradient id="SVGID_56_" cx="115.2788" cy="19.018" r="8.3922" gradientTransform="matrix(1 0 0 -1 -1.049314e-03 771.995)" gradientUnits="userSpaceOnUse">
	<stop  offset="0" style="stop-color:#FFFFFF"/>
	<stop  offset="0.13" style="stop-color:#FFFFFB"/>
	<stop  offset="0.26" style="stop-color:#FFFFEE"/>
	<stop  offset="0.39" style="stop-color:#FFFFDA"/>
	<stop  offset="0.53" style="stop-color:#FFFFBD"/>
	<stop  offset="0.66" style="stop-color:#FFFF98"/>
	<stop  offset="0.7" style="stop-color:#FFFF8C"/>
	<stop  offset="1" style="stop-color:#FFC728"/>
</radialGradient>
<circle class="st80" cx="115.3" cy="753" r="8.4"/>
<radialGradient id="SVGID_57_" cx="184.0172" cy="18.3965" r="8.39" gradientTransform="matrix(0.9969 -1.030891e-03 -1.030891e-03 -0.9969 -0.4339 768.954)" gradientUnits="userSpaceOnUse">
	<stop  offset="0" style="stop-color:#FFFFFF"/>
	<stop  offset="0.13" style="stop-color:#FFFFFB"/>
	<stop  offset="0.26" style="stop-color:#FFFFEE"/>
	<stop  offset="0.39" style="stop-color:#FFFFDA"/>
	<stop  offset="0.53" style="stop-color:#FFFFBD"/>
	<stop  offset="0.66" style="stop-color:#FFFF98"/>
	<stop  offset="0.7" style="stop-color:#FFFF8C"/>
	<stop  offset="1" style="stop-color:#FFC728"/>
</radialGradient>
<circle class="st81" cx="182.8" cy="752.9" r="8.4"/>
<radialGradient id="SVGID_58_" cx="250.3284" cy="19.0193" r="8.3922" gradientTransform="matrix(1 0 0 -1 -6.495743e-04 772.0049)" gradientUnits="userSpaceOnUse">
	<stop  offset="0" style="stop-color:#FFFFFF"/>
	<stop  offset="0.13" style="stop-color:#FFFFFB"/>
	<stop  offset="0.26" style="stop-color:#FFFFEE"/>
	<stop  offset="0.39" style="stop-color:#FFFFDA"/>
	<stop  offset="0.53" style="stop-color:#FFFFBD"/>
	<stop  offset="0.66" style="stop-color:#FFFF98"/>
	<stop  offset="0.7" style="stop-color:#FFFF8C"/>
	<stop  offset="1" style="stop-color:#FFC728"/>
</radialGradient>
<circle class="st82" cx="250.3" cy="753" r="8.4"/>
<radialGradient id="SVGID_59_" cx="317.8586" cy="19.0162" r="8.39" gradientTransform="matrix(1 0 0 -1 -4.339587e-04 772.0024)" gradientUnits="userSpaceOnUse">
	<stop  offset="0" style="stop-color:#FFFFFF"/>
	<stop  offset="0.13" style="stop-color:#FFFFFB"/>
	<stop  offset="0.26" style="stop-color:#FFFFEE"/>
	<stop  offset="0.39" style="stop-color:#FFFFDA"/>
	<stop  offset="0.53" style="stop-color:#FFFFBD"/>
	<stop  offset="0.66" style="stop-color:#FFFF98"/>
	<stop  offset="0.7" style="stop-color:#FFFF8C"/>
	<stop  offset="1" style="stop-color:#FFC728"/>
</radialGradient>
<circle class="st83" cx="317.9" cy="753" r="8.4"/>
<radialGradient id="SVGID_60_" cx="385.391" cy="19.0152" r="8.3922" gradientTransform="matrix(1 0 0 -1 -4.076391e-03 771.9956)" gradientUnits="userSpaceOnUse">
	<stop  offset="0" style="stop-color:#FFFFFF"/>
	<stop  offset="0.13" style="stop-color:#FFFFFB"/>
	<stop  offset="0.26" style="stop-color:#FFFFEE"/>
	<stop  offset="0.39" style="stop-color:#FFFFDA"/>
	<stop  offset="0.53" style="stop-color:#FFFFBD"/>
	<stop  offset="0.66" style="stop-color:#FFFF98"/>
	<stop  offset="0.7" style="stop-color:#FFFF8C"/>
	<stop  offset="1" style="stop-color:#FFC728"/>
</radialGradient>
<circle class="st84" cx="385.4" cy="753" r="8.4"/>
<radialGradient id="SVGID_61_" cx="452.916" cy="19.0162" r="8.39" gradientTransform="matrix(1 0 0 -1 4.008200e-03 772.0006)" gradientUnits="userSpaceOnUse">
	<stop  offset="0" style="stop-color:#FFFFFF"/>
	<stop  offset="0.13" style="stop-color:#FFFFFB"/>
	<stop  offset="0.26" style="stop-color:#FFFFEE"/>
	<stop  offset="0.39" style="stop-color:#FFFFDA"/>
	<stop  offset="0.53" style="stop-color:#FFFFBD"/>
	<stop  offset="0.66" style="stop-color:#FFFF98"/>
	<stop  offset="0.7" style="stop-color:#FFFF8C"/>
	<stop  offset="1" style="stop-color:#FFC728"/>
</radialGradient>
<circle class="st85" cx="452.9" cy="753" r="8.4"/>
<radialGradient id="SVGID_62_" cx="520.45" cy="19.02" r="8.39" gradientTransform="matrix(1 0 0 -1 -4.987666e-02 771.991)" gradientUnits="userSpaceOnUse">
	<stop  offset="0" style="stop-color:#FFFFFF"/>
	<stop  offset="0.13" style="stop-color:#FFFFFB"/>
	<stop  offset="0.26" style="stop-color:#FFFFEE"/>
	<stop  offset="0.39" style="stop-color:#FFFFDA"/>
	<stop  offset="0.53" style="stop-color:#FFFFBD"/>
	<stop  offset="0.66" style="stop-color:#FFFF98"/>
	<stop  offset="0.7" style="stop-color:#FFFF8C"/>
	<stop  offset="1" style="stop-color:#FFC728"/>
</radialGradient>
<circle class="st86" cx="520.4" cy="752.9" r="8.4"/>
<radialGradient id="SVGID_63_" cx="587.9698" cy="19.0191" r="8.3922" gradientTransform="matrix(1 0 0 -1 -3.449433e-03 772.0055)" gradientUnits="userSpaceOnUse">
	<stop  offset="0" style="stop-color:#FFFFFF"/>
	<stop  offset="0.13" style="stop-color:#FFFFFB"/>
	<stop  offset="0.26" style="stop-color:#FFFFEE"/>
	<stop  offset="0.39" style="stop-color:#FFFFDA"/>
	<stop  offset="0.53" style="stop-color:#FFFFBD"/>
	<stop  offset="0.66" style="stop-color:#FFFF98"/>
	<stop  offset="0.7" style="stop-color:#FFFF8C"/>
	<stop  offset="1" style="stop-color:#FFC728"/>
</radialGradient>
<circle class="st87" cx="588" cy="753" r="8.4"/>
<radialGradient id="SVGID_64_" cx="655.5" cy="19.02" r="8.39" gradientTransform="matrix(1 0 0 -1 -4.831371e-02 771.9897)" gradientUnits="userSpaceOnUse">
	<stop  offset="0" style="stop-color:#FFFFFF"/>
	<stop  offset="0.13" style="stop-color:#FFFFFB"/>
	<stop  offset="0.26" style="stop-color:#FFFFEE"/>
	<stop  offset="0.39" style="stop-color:#FFFFDA"/>
	<stop  offset="0.53" style="stop-color:#FFFFBD"/>
	<stop  offset="0.66" style="stop-color:#FFFF98"/>
	<stop  offset="0.7" style="stop-color:#FFFF8C"/>
	<stop  offset="1" style="stop-color:#FFC728"/>
</radialGradient>
<circle class="st88" cx="655.5" cy="752.9" r="8.4"/>
<radialGradient id="SVGID_65_" cx="723.0286" cy="19.0243" r="8.3922" gradientTransform="matrix(1 0 0 -1 -3.047138e-03 772.0054)" gradientUnits="userSpaceOnUse">
	<stop  offset="0" style="stop-color:#FFFFFF"/>
	<stop  offset="0.13" style="stop-color:#FFFFFB"/>
	<stop  offset="0.26" style="stop-color:#FFFFEE"/>
	<stop  offset="0.39" style="stop-color:#FFFFDA"/>
	<stop  offset="0.53" style="stop-color:#FFFFBD"/>
	<stop  offset="0.66" style="stop-color:#FFFF98"/>
	<stop  offset="0.7" style="stop-color:#FFFF8C"/>
	<stop  offset="1" style="stop-color:#FFC728"/>
</radialGradient>
<circle class="st89" cx="723" cy="753" r="8.4"/>
<radialGradient id="SVGID_66_" cx="760.3094" cy="59.59" r="8.39" gradientTransform="matrix(1 0 0 -1 -6.269187e-03 771.9966)" gradientUnits="userSpaceOnUse">
	<stop  offset="0" style="stop-color:#FFFFFF"/>
	<stop  offset="0.13" style="stop-color:#FFFFFB"/>
	<stop  offset="0.26" style="stop-color:#FFFFEE"/>
	<stop  offset="0.39" style="stop-color:#FFFFDA"/>
	<stop  offset="0.53" style="stop-color:#FFFFBD"/>
	<stop  offset="0.66" style="stop-color:#FFFF98"/>
	<stop  offset="0.7" style="stop-color:#FFFF8C"/>
	<stop  offset="1" style="stop-color:#FFC728"/>
</radialGradient>
<circle class="st90" cx="760.3" cy="712.4" r="8.4"/>
<radialGradient id="SVGID_67_" cx="760.3" cy="127.12" r="8.39" gradientTransform="matrix(1 0 0 -1 0 772)" gradientUnits="userSpaceOnUse">
	<stop  offset="0" style="stop-color:#FFFFFF"/>
	<stop  offset="0.13" style="stop-color:#FFFFFB"/>
	<stop  offset="0.26" style="stop-color:#FFFFEE"/>
	<stop  offset="0.39" style="stop-color:#FFFFDA"/>
	<stop  offset="0.53" style="stop-color:#FFFFBD"/>
	<stop  offset="0.66" style="stop-color:#FFFF98"/>
	<stop  offset="0.7" style="stop-color:#FFFF8C"/>
	<stop  offset="1" style="stop-color:#FFC728"/>
</radialGradient>
<circle class="st91" cx="760.3" cy="644.9" r="8.4"/>
<radialGradient id="SVGID_68_" cx="760.2953" cy="194.6473" r="8.39" gradientTransform="matrix(1 0 0 -1 6.026673e-03 772.0021)" gradientUnits="userSpaceOnUse">
	<stop  offset="0" style="stop-color:#FFFFFF"/>
	<stop  offset="0.13" style="stop-color:#FFFFFB"/>
	<stop  offset="0.26" style="stop-color:#FFFFEE"/>
	<stop  offset="0.39" style="stop-color:#FFFFDA"/>
	<stop  offset="0.53" style="stop-color:#FFFFBD"/>
	<stop  offset="0.66" style="stop-color:#FFFF98"/>
	<stop  offset="0.7" style="stop-color:#FFFF8C"/>
	<stop  offset="1" style="stop-color:#FFC728"/>
</radialGradient>
<circle class="st92" cx="760.3" cy="577.4" r="8.4"/>
<radialGradient id="SVGID_69_" cx="760.3" cy="262.18" r="8.39" gradientTransform="matrix(1 0 0 -1 -5.082747e-02 771.9949)" gradientUnits="userSpaceOnUse">
	<stop  offset="0" style="stop-color:#FFFFFF"/>
	<stop  offset="0.13" style="stop-color:#FFFFFB"/>
	<stop  offset="0.26" style="stop-color:#FFFFEE"/>
	<stop  offset="0.39" style="stop-color:#FFFFDA"/>
	<stop  offset="0.53" style="stop-color:#FFFFBD"/>
	<stop  offset="0.66" style="stop-color:#FFFF98"/>
	<stop  offset="0.7" style="stop-color:#FFFF8C"/>
	<stop  offset="1" style="stop-color:#FFC728"/>
</radialGradient>
<circle class="st93" cx="760.3" cy="509.8" r="8.4"/>
<radialGradient id="SVGID_70_" cx="760.3" cy="329.71" r="8.39" gradientTransform="matrix(1 0 0 -1 0 772)" gradientUnits="userSpaceOnUse">
	<stop  offset="0" style="stop-color:#FFFFFF"/>
	<stop  offset="0.13" style="stop-color:#FFFFFB"/>
	<stop  offset="0.26" style="stop-color:#FFFFEE"/>
	<stop  offset="0.39" style="stop-color:#FFFFDA"/>
	<stop  offset="0.53" style="stop-color:#FFFFBD"/>
	<stop  offset="0.66" style="stop-color:#FFFF98"/>
	<stop  offset="0.7" style="stop-color:#FFFF8C"/>
	<stop  offset="1" style="stop-color:#FFC728"/>
</radialGradient>
<circle class="st94" cx="760.3" cy="442.3" r="8.4"/>
<radialGradient id="SVGID_71_" cx="760.3" cy="397.23" r="8.39" gradientTransform="matrix(1 0 0 -1 -4.462106e-02 772.0154)" gradientUnits="userSpaceOnUse">
	<stop  offset="0" style="stop-color:#FFFFFF"/>
	<stop  offset="0.13" style="stop-color:#FFFFFB"/>
	<stop  offset="0.26" style="stop-color:#FFFFEE"/>
	<stop  offset="0.39" style="stop-color:#FFFFDA"/>
	<stop  offset="0.53" style="stop-color:#FFFFBD"/>
	<stop  offset="0.66" style="stop-color:#FFFF98"/>
	<stop  offset="0.7" style="stop-color:#FFFF8C"/>
	<stop  offset="1" style="stop-color:#FFC728"/>
</radialGradient>
<circle class="st95" cx="760.3" cy="374.7" r="8.4"/>
<radialGradient id="SVGID_72_" cx="732.25" cy="447.03" r="8.39" gradientTransform="matrix(1 0 0 -1 0 772)" gradientUnits="userSpaceOnUse">
	<stop  offset="0" style="stop-color:#FFFFFF"/>
	<stop  offset="0.13" style="stop-color:#FFFFFB"/>
	<stop  offset="0.26" style="stop-color:#FFFFEE"/>
	<stop  offset="0.39" style="stop-color:#FFFFDA"/>
	<stop  offset="0.53" style="stop-color:#FFFFBD"/>
	<stop  offset="0.66" style="stop-color:#FFFF98"/>
	<stop  offset="0.7" style="stop-color:#FFFF8C"/>
	<stop  offset="1" style="stop-color:#FFC728"/>
</radialGradient>
<circle class="st96" cx="732.3" cy="325" r="8.4"/>
<radialGradient id="SVGID_73_" cx="664.72" cy="447.03" r="8.39" gradientTransform="matrix(1 0 0 -1 0 772)" gradientUnits="userSpaceOnUse">
	<stop  offset="0" style="stop-color:#FFFFFF"/>
	<stop  offset="0.13" style="stop-color:#FFFFFB"/>
	<stop  offset="0.26" style="stop-color:#FFFFEE"/>
	<stop  offset="0.39" style="stop-color:#FFFFDA"/>
	<stop  offset="0.53" style="stop-color:#FFFFBD"/>
	<stop  offset="0.66" style="stop-color:#FFFF98"/>
	<stop  offset="0.7" style="stop-color:#FFFF8C"/>
	<stop  offset="1" style="stop-color:#FFC728"/>
</radialGradient>
<circle class="st97" cx="664.7" cy="325" r="8.4"/>
<radialGradient id="SVGID_74_" cx="597.19" cy="447.03" r="8.39" gradientTransform="matrix(1 0 0 -1 0 772)" gradientUnits="userSpaceOnUse">
	<stop  offset="0" style="stop-color:#FFFFFF"/>
	<stop  offset="0.13" style="stop-color:#FFFFFB"/>
	<stop  offset="0.26" style="stop-color:#FFFFEE"/>
	<stop  offset="0.39" style="stop-color:#FFFFDA"/>
	<stop  offset="0.53" style="stop-color:#FFFFBD"/>
	<stop  offset="0.66" style="stop-color:#FFFF98"/>
	<stop  offset="0.7" style="stop-color:#FFFF8C"/>
	<stop  offset="1" style="stop-color:#FFC728"/>
</radialGradient>
<circle class="st98" cx="597.2" cy="325" r="8.4"/>
<radialGradient id="SVGID_75_" cx="529.66" cy="447.03" r="8.39" gradientTransform="matrix(1 0 0 -1 0 772)" gradientUnits="userSpaceOnUse">
	<stop  offset="0" style="stop-color:#FFFFFF"/>
	<stop  offset="0.13" style="stop-color:#FFFFFB"/>
	<stop  offset="0.26" style="stop-color:#FFFFEE"/>
	<stop  offset="0.39" style="stop-color:#FFFFDA"/>
	<stop  offset="0.53" style="stop-color:#FFFFBD"/>
	<stop  offset="0.66" style="stop-color:#FFFF98"/>
	<stop  offset="0.7" style="stop-color:#FFFF8C"/>
	<stop  offset="1" style="stop-color:#FFC728"/>
</radialGradient>
<circle class="st99" cx="529.7" cy="325" r="8.4"/>
<radialGradient id="SVGID_76_" cx="462.14" cy="447.03" r="8.39" gradientTransform="matrix(1 0 0 -1 0 772)" gradientUnits="userSpaceOnUse">
	<stop  offset="0" style="stop-color:#FFFFFF"/>
	<stop  offset="0.13" style="stop-color:#FFFFFB"/>
	<stop  offset="0.26" style="stop-color:#FFFFEE"/>
	<stop  offset="0.39" style="stop-color:#FFFFDA"/>
	<stop  offset="0.53" style="stop-color:#FFFFBD"/>
	<stop  offset="0.66" style="stop-color:#FFFF98"/>
	<stop  offset="0.7" style="stop-color:#FFFF8C"/>
	<stop  offset="1" style="stop-color:#FFC728"/>
</radialGradient>
<circle class="st100" cx="462.1" cy="325" r="8.4"/>
</svg>
