<svg id="Layer_1" data-name="Layer 1" xmlns="http://www.w3.org/2000/svg" viewBox="0 0 256 256"><defs><style>.cls-1{fill:#fd5001;}.cls-2{fill:#e23703;}.cls-3{fill:#841900;}.cls-4{fill:#212121;}.cls-5{fill:#070707;}.cls-6{fill:#424242;}.cls-7{fill:#161616;}.cls-8{fill:#ff966c;}.cls-9{fill:#f2a668;}.cls-10{fill:#fff;}.cls-11{fill:#d6d6d6;}.cls-12{fill:#282828;}.cls-13{fill:#720000;}.cls-14{fill:#ffa4a4;}.cls-15{fill:#e58888;}.cls-16{fill:#ad4040;}.cls-17{fill:#542416;}.cls-18{fill:#200705;}</style></defs><path class="cls-1" d="M74.91,151.42c-4.75-.86-10.56,2.64-8.71,7.59-2.11,1.06-2.91,6.41,1.12,7.47-1,1.51-.46,7.19,8,7.48.2,1.82,4.91,5.1,14.72,4.61,14.79-.74,25.44-5.69,31-8C112.81,168.26,74.91,151.42,74.91,151.42Z"/><path class="cls-2" d="M96.43,161,95,158.58c-.2,0-18.6-1-29.12-.87l.36,1.47C76.7,159.07,96.24,160.94,96.43,161Z"/><path class="cls-2" d="M71.46,166.82c10.3,0,34.08-1.47,35.28-1.54l-3.57-2c-.35,0-32.72,2.91-37.33,2.44l1.45.89A32.1,32.1,0,0,0,71.46,166.82Z"/><path class="cls-2" d="M78.43,174.21a118.57,118.57,0,0,0,22.41-2.67c7.59-1.57,13.27-3.27,13.33-3.28L111,166.87c-.06,0-6.18,1.49-11.41,2.68-7.19,1.63-20,3.15-28.27,3.74l4,.79C76.35,174.14,77.37,174.21,78.43,174.21Z"/><path class="cls-2" d="M89.42,176.76a79.15,79.15,0,0,0,26.87-7.83c2,.76,3.65,1.33,4.75,1.64-5.57,2.31-16.22,7.26-31,8-9.24.46-14-2.41-14.64-4.27C77,176,80.85,177.63,89.42,176.76Z"/><path class="cls-3" d="M79,177.29c-2.13-.87-3.6-2.09-3.83-3.17-5.25-.22-7.18-2.52-7.86-3.88a4.28,4.28,0,0,1-.24-3.67,3.82,3.82,0,0,1-2.75-3.43,4.5,4.5,0,0,1,1.68-4.2,5,5,0,0,1,.9-5,8,8,0,0,1,3.58-2.32,9.21,9.21,0,0,1,4.46-.35h0c.38.17,38,16.86,46.11,19.14l.45.13-.44.18-1.37.58c-6,2.52-16,6.75-29.69,7.44-.68,0-1.33,0-2,0A24.21,24.21,0,0,1,79,177.29Zm-4.13-25.71a8.63,8.63,0,0,0-7.72,2.56,4.66,4.66,0,0,0-.8,4.82l.06.14-.14.06c-1.06.54-1.79,2.31-1.62,4a3.51,3.51,0,0,0,2.71,3.21l.23.06-.13.19a3.78,3.78,0,0,0,.14,3.52c.66,1.31,2.53,3.53,7.72,3.71h.14v.14c.09.81,1.26,2.07,3.66,3A25.6,25.6,0,0,0,90,178.41c13.62-.69,23.6-4.9,29.57-7.42l1-.39C111.64,167.89,75.86,152,74.87,151.58Z"/><path class="cls-3" d="M96.43,161l0-.33c-.19,0-19.74-1.89-30.26-1.78v.33C76.7,159.07,96.24,160.94,96.43,161Z"/><path class="cls-3" d="M71.46,166.82c10.3,0,34.08-1.47,35.28-1.54l0-.33c-.35,0-34.82,2.14-39.37,1.36l-.06.33A32.1,32.1,0,0,0,71.46,166.82Z"/><path class="cls-3" d="M78.43,174.21a118.57,118.57,0,0,0,22.41-2.67c7.59-1.57,13.27-3.27,13.33-3.28l-.09-.32c-.06,0-5.73,1.71-13.31,3.27-7,1.44-17.08,3.06-25.45,2.59l0,.33C76.32,174.18,77.37,174.21,78.43,174.21Z"/><path class="cls-4" d="M75.31,174c-8.45-.29-9-6-8-7.48-4-1.06-3.23-6.41-1.12-7.47-1.85-4.95,4-8.45,8.71-7.59C72.57,152,69.4,155,72,159.1c-1.76,1.57-1.8,5.13,2.24,7.52-1.89,2.4,2.34,6.56,9.11,7.29-1.16,1.08,1.21,2.7,4.94,3.49,1.82.39,3.79.7,5.29.91-1.15.11-2.33.2-3.54.26C80.22,179.06,75.51,175.78,75.31,174Z"/><path class="cls-5" d="M66.2,159.18l0-.15a.05.05,0,0,0,0,0q-.11-.28-.18-.57l0-.16a3.78,3.78,0,0,1-.1-.57c1.65,0,3.5,0,5.44,0A6.39,6.39,0,0,0,72,159.1l-.17.16C69.8,159.19,67.88,159.16,66.2,159.18Z"/><path class="cls-5" d="M72.83,165.61a9.9,9.9,0,0,0,1.4,1l-.12.17-2.65,0a32.1,32.1,0,0,1-4.17-.18l-.05,0,.08-.13a4.81,4.81,0,0,1-.7-.25l-.76-.46,0,0A62.69,62.69,0,0,0,72.83,165.61Z"/><path class="cls-5" d="M78.47,172.67a17.35,17.35,0,0,0,4.87,1.24l-.12.14c-1.61.1-3.22.16-4.79.16-1.06,0-2.08-.07-3.1-.13a.5.5,0,0,1,0-.12l-.84-.05-3.12-.62C73.48,173.14,75.91,172.93,78.47,172.67Z"/><path class="cls-5" d="M86.61,177c.52.16,1.08.31,1.67.43,1.81.39,3.79.7,5.28.91l-.6.06a46.67,46.67,0,0,1-7.57.15,20.45,20.45,0,0,1-7.1-1.74c-1-.47-2.51-1.28-2.86-2.42a10.26,10.26,0,0,0,3.27,1.85,21.65,21.65,0,0,0,6.51.79Z"/><path d="M79,177.29c-2.13-.87-3.6-2.09-3.83-3.17-5.25-.22-7.18-2.52-7.86-3.88a4.28,4.28,0,0,1-.24-3.67,3.82,3.82,0,0,1-2.75-3.43,4.5,4.5,0,0,1,1.68-4.2,5,5,0,0,1,.9-5,8,8,0,0,1,3.58-2.32,9.21,9.21,0,0,1,4.46-.35l.78.14-.77.18a5.3,5.3,0,0,0-3.46,3,4.79,4.79,0,0,0,.64,4.47l.08.12-.11.1A3.39,3.39,0,0,0,71,162.11a6,6,0,0,0,3.28,4.37l.16.1-.12.14a2.05,2.05,0,0,0-.21,2.15c.85,2,4.28,4.34,9.21,4.88l.36,0-.26.24a.62.62,0,0,0-.23.65c.22.78,2,1.91,5.09,2.56,1.86.4,3.89.71,5.27.91l1.37.19-1.37.13c-1.19.12-2.38.21-3.55.27-.68,0-1.33,0-2,0A24.21,24.21,0,0,1,79,177.29Zm9.25.27c-2.9-.61-5-1.74-5.34-2.79A.9.9,0,0,1,83,174a16.09,16.09,0,0,1-5.92-1.87A7.26,7.26,0,0,1,73.85,169a2.35,2.35,0,0,1,.14-2.32,6.23,6.23,0,0,1-3.28-4.53,3.76,3.76,0,0,1,1.07-3.07,5,5,0,0,1-.59-4.66,5.54,5.54,0,0,1,3-2.92,8.56,8.56,0,0,0-7,2.65,4.66,4.66,0,0,0-.8,4.82l.06.14-.14.06c-1.06.54-1.79,2.31-1.62,4a3.51,3.51,0,0,0,2.71,3.21l.23.06-.13.19a3.78,3.78,0,0,0,.14,3.52c.66,1.31,2.53,3.53,7.72,3.71h.14v.14c.09.81,1.26,2.07,3.66,3A25.6,25.6,0,0,0,90,178.41l2.13-.14C91,178.08,89.56,177.84,88.25,177.56Z"/><path d="M71.91,158.94v.33c-2.06-.07-4-.11-5.71-.09v-.33C67.91,158.83,69.85,158.87,71.91,158.94Z"/><path d="M67.35,166.31a50.16,50.16,0,0,0,6.81.15c0,.11.06.22.1.33l-2.8,0a32.1,32.1,0,0,1-4.17-.18Z"/><path d="M75.32,173.8a67.3,67.3,0,0,0,7.76-.07,3.05,3.05,0,0,1,.13.32c-1.61.1-3.22.16-4.78.16-1.06,0-2.11,0-3.13-.08Z"/><path class="cls-1" d="M69.36,117.4c-2.63-2.62-10.89-15-14.75-20.71S45.38,84.7,41,82.85c-5.72-2.43-11.84-1.15-12.9,3.08-3-.86-8.14,2.59-7.46,7.33-3.45,0-8.78,5.08-6.47,11.68-3.67.88-6.4,8.8-3.23,11.8-4.58.44-8.19,9.28-4.49,14.15-3,2-4.23,10,2.84,11.68a7,7,0,0,0,3.06,9.6c5.5,2.77,16.56.67,22.16-.55,6.15-1.34,20.8-6.21,28.72-7.2C66.07,140.13,69.36,117.4,69.36,117.4Z"/><rect class="cls-3" x="38.96" y="95.31" width="0.33" height="58.51" transform="translate(-91.36 128.99) rotate(-74.5)"/><path class="cls-4" d="M4.34,137.42a6.08,6.08,0,0,0,5,5l.21.06-.11.19a7.08,7.08,0,0,0-.5,5.28A6.57,6.57,0,0,0,12.42,152c2.36,1.19,6,1.6,11,1.21a86,86,0,0,0,11.09-1.77C36.7,151,40,150,43.79,149c6.7-1.9,14.28-4.05,19.34-4.69C65.82,140,69,119,69.19,117.46c-2.43-2.47-9.29-12.63-13.4-18.72l-1.32-2C52.68,94.14,46.4,85.31,40.94,83c-3.51-1.49-7.3-1.61-9.89-.32A5.06,5.06,0,0,0,28.26,86l0,.16-.16,0a5.82,5.82,0,0,0-5,1.58,6.15,6.15,0,0,0-2.22,5.56l0,.19h-.19c-1.76,0-3.87,1.34-5.26,3.3a8.8,8.8,0,0,0-1.05,8.17l.06.17-.18,0c-1.72.41-3.43,2.61-4.16,5.33s-.33,4.94,1,6.19l.27.25-.37,0c-1.88.18-3.75,1.9-4.88,4.49s-1.66,6.54.51,9.39l.11.14-.15.1C4.9,132.1,3.91,135,4.34,137.42Zm6.7-6.14.15-.1-.11-.14a7.34,7.34,0,0,1-.66-6.92c1-2.94,3.18-5.3,5.39-5.88l.31-.08-.25-.2c-1.4-1.18-2-3.38-1.55-5.91s1.8-4.62,3.4-5.22l.15-.06-.05-.15a7.55,7.55,0,0,1,1-7c1.58-2.25,3.89-3.43,5.35-3.44h.19l0-.19a5.18,5.18,0,0,1,2-4.53c1.66-1.45,4-2.23,5.48-1.81l.19,0,0-.19a4,4,0,0,1,1.79-3.26c1.47-.87,3.78-.69,6.66.53,3.28,1.39,7.79,6,12.05,12.28l1.18,1.74c3.65,5.42,9.75,14.46,11.92,16.67-.2,1.4-3,20.08-5.38,23.86-4.51.57-11.26,2.49-17.23,4.18-3.39,1-6.31,1.79-8.3,2.22a71.25,71.25,0,0,1-9.82,1.45c-4.32.3-7.62,0-9.82-.95A3.29,3.29,0,0,1,13,145.91a4.28,4.28,0,0,1,1-3.65l.18-.2L14,142a5.91,5.91,0,0,1-4.67-4.94C8.89,134.72,9.66,132.19,11,131.28Z"/><path class="cls-6" d="M53.77,97.32c-3.87-5.71-9.85-12-14.23-13.85-3.35-1.42-6.34-1.78-8.45-1,2.56-1.22,6.31-1.16,9.91.37C45.38,84.7,50.75,91,54.61,96.69s12.12,18.09,14.75,20.71C64.69,114.09,57.63,103,53.77,97.32Z"/><path class="cls-2" d="M68.17,125.45l1.1-2.48c-6.51-6.88-34.66-34-40.66-38.33L28,86.05C29.41,87.39,63.08,118.91,68.17,125.45Z"/><path class="cls-3" d="M67.91,125.65l.26-.2c-5.1-6.56-38.53-38.3-39.95-39.64l-.23.24C29.41,87.39,62.82,119.11,67.91,125.65Z"/><path class="cls-2" d="M67.28,128.82l.89-2.37c-.38-.28-37.65-28.82-47.53-35.07l-.1,2C29.09,100.11,66.9,128.53,67.28,128.82Z"/><path class="cls-3" d="M67.22,129l.2-.26c-.38-.29-38.13-28.86-46.68-35.58l-.2.26C29.09,100.11,66.84,128.69,67.22,129Z"/><path class="cls-2" d="M66.87,131.1l.76-1.49c-15.42-8.12-36.57-19.63-53.8-26.06l.27,1.54Z"/><rect class="cls-3" x="40.42" y="88.56" width="0.33" height="58.97" transform="translate(-83.2 101.97) rotate(-63.63)"/><path class="cls-2" d="M67.28,132.54l.35-1.73C46.05,124,17.07,116.25,9.94,115.12l1,1.78Z"/><path class="cls-2" d="M66.35,134.32v-2c-21.61-1.58-47.91-3.52-60.86-3l.94,1.78Z"/><rect class="cls-3" x="36.24" y="102.58" width="0.33" height="60" transform="translate(-98.02 161.44) rotate(-86.76)"/><path class="cls-2" d="M9.29,142.65l56.34-5-.74-2.22c-21.34,2-44.93,2.52-59.29,5.08A6.07,6.07,0,0,0,9.29,142.65Z"/><rect class="cls-3" x="9.17" y="139.85" width="56.56" height="0.33" transform="translate(-12.5 3.96) rotate(-5.19)"/><path class="cls-2" d="M34.51,151.62c-5.6,1.22-16.66,3.32-22.16.55a7,7,0,0,1-3.23-9.29c1.75,4,4.25,5.52,12.71,5.71,11.37.25,27.57-6.05,43.43-9.74a22,22,0,0,1-2,5.57C55.31,145.41,40.66,150.28,34.51,151.62Z"/><path d="M12.27,152.32A6.94,6.94,0,0,1,8.61,148,7.48,7.48,0,0,1,9,142.68a6.39,6.39,0,0,1-5-5.2c-.44-2.55.53-5.41,2.2-6.63a8.24,8.24,0,0,1-1.45-4.6,11.77,11.77,0,0,1,1-5c1.12-2.56,3-4.3,4.83-4.64-1.23-1.38-1.55-3.7-.86-6.28.63-2.34,2.17-4.91,4.23-5.52a9.09,9.09,0,0,1,1.15-8.3,7.69,7.69,0,0,1,5.35-3.43,6.54,6.54,0,0,1,2.35-5.68A6.29,6.29,0,0,1,28,85.73a5.33,5.33,0,0,1,2.91-3.34c2.67-1.33,6.57-1.22,10.16.3a23.08,23.08,0,0,1,7.06,5.52,69.11,69.11,0,0,1,6.63,8.39c.39.59.84,1.24,1.32,2,4.13,6.13,11.06,16.39,13.41,18.74l.06.06v.08c-.14.93-3.34,22.81-6.16,27.08l0,.07h-.07c-5,.63-12.65,2.79-19.37,4.69-3.81,1.08-7.1,2-9.34,2.5a86.43,86.43,0,0,1-11.14,1.78c-1.21.09-2.35.14-3.42.14A17.52,17.52,0,0,1,12.27,152.32Zm56.92-34.86c-2.43-2.47-9.29-12.63-13.4-18.72l-1.32-2C52.68,94.14,46.4,85.31,40.94,83c-3.51-1.49-7.3-1.61-9.89-.32A5.06,5.06,0,0,0,28.26,86l0,.16-.16,0a5.82,5.82,0,0,0-5,1.58,6.15,6.15,0,0,0-2.22,5.56l0,.19h-.19c-1.76,0-3.87,1.34-5.26,3.3a8.8,8.8,0,0,0-1.05,8.17l.06.17-.18,0c-1.72.41-3.43,2.61-4.16,5.33s-.33,4.94,1,6.19l.27.25-.37,0c-1.88.18-3.75,1.9-4.88,4.49s-1.66,6.54.51,9.39l.11.14-.15.1c-1.64,1.07-2.63,3.94-2.2,6.39a6.08,6.08,0,0,0,5,5l.21.06-.11.19a7.08,7.08,0,0,0-.5,5.28A6.57,6.57,0,0,0,12.42,152c2.36,1.19,6,1.6,11,1.21a86,86,0,0,0,11.09-1.77C36.7,151,40,150,43.79,149c6.7-1.9,14.28-4.05,19.34-4.69C65.82,140,69,119,69.19,117.46Z"/><path class="cls-5" d="M31.86,89.5l-.32-.07L28,86.05l.06-.14.05,0c0-.16.09-.31.14-.45l.3-.68.08-.14c.85.61,2.12,1.66,3.7,3A5.79,5.79,0,0,0,31.86,89.5Z"/><path class="cls-5" d="M24.21,96H24l-3.42-2.65v-.13h.09a6.27,6.27,0,0,1-.05-.74l0-.85a2.51,2.51,0,0,1,0-.27c1,.63,2.27,1.48,3.75,2.51A4.42,4.42,0,0,0,24.21,96Z"/><path class="cls-5" d="M17.26,104.88a8,8,0,0,0,.4,1.79l-.2.09-3.36-1.67,0-.12.09,0c-.08-.25-.16-.49-.22-.74l-.12-.65C15,104,16.1,104.42,17.26,104.88Z"/><path class="cls-5" d="M14.4,116a4.6,4.6,0,0,0,1.36,2l-.29.09-4.58-1.27-.07-.14.12,0c-.11-.1-.21-.21-.31-.32l-.69-1.3C11,115.29,12.5,115.6,14.4,116Z"/><path class="cls-5" d="M11,131.14l-.21.16-4.3-.25-.06-.11a.18.18,0,0,1,.07-.05,7.38,7.38,0,0,1-.46-.68l-.3-.58c-.06-.12-.11-.24-.16-.36,1.35-.05,2.84-.08,4.45-.08A5.85,5.85,0,0,0,11,131.14Z"/><path class="cls-5" d="M5.6,140.49c1.46-.26,3-.5,4.63-.72a6.15,6.15,0,0,0,3.69,2.38l-.07.09-4.56.41h0l0-.07A6.93,6.93,0,0,1,5.6,140.49Z"/><path class="cls-7" d="M9.12,142.88a7.57,7.57,0,0,0,4.53,4.59,3.93,3.93,0,0,0,1.36.92c5,2.15,14.75.6,19.74-.49,5.48-1.19,18.53-5.53,25.58-6.41a8.2,8.2,0,0,0,.78-1.62c1.38-.35,2.77-.7,4.15-1a31.56,31.56,0,0,1-1.82,5.27.67.67,0,0,1-.16.24.59.59,0,0,1-.3.09l-1.31.2c-.55.09-1.11.2-1.7.31l-.44.09-1.37.29-.94.21-1,.23-1,.23-1.5.38-3,.8-1,.28-1,.28-1.52.43-3.95,1.11c-3.5,1-6.62,1.87-8.73,2.33l-1.11.24-2.54.5-1.4.25-1.46.23c-.53.09-1.07.16-1.61.23l-1.35.16c-.82.09-1.65.17-2.47.22a30.59,30.59,0,0,1-6.62-.2q-.33,0-.66-.12a8.93,8.93,0,0,1-4.91-2.41A7.15,7.15,0,0,1,9.12,142.88Z"/><path d="M12.27,152.32A6.94,6.94,0,0,1,8.61,148,7.48,7.48,0,0,1,9,142.68a6.39,6.39,0,0,1-5-5.2c-.44-2.55.53-5.41,2.2-6.63a8.24,8.24,0,0,1-1.45-4.6,11.77,11.77,0,0,1,1-5c1.12-2.56,3-4.3,4.83-4.64-1.23-1.38-1.55-3.7-.86-6.28.63-2.34,2.17-4.91,4.23-5.52a9.09,9.09,0,0,1,1.15-8.3,7.69,7.69,0,0,1,5.35-3.43,6.54,6.54,0,0,1,2.35-5.68A6.29,6.29,0,0,1,28,85.73a5.33,5.33,0,0,1,2.91-3.34c2.67-1.33,6.57-1.22,10.16.3a23.08,23.08,0,0,1,7.06,5.52,69.11,69.11,0,0,1,6.63,8.39c.39.59.84,1.24,1.32,2,4.13,6.12,11.06,16.38,13.41,18.73l.06.06v.08c-.14.93-3.34,22.81-6.16,27.08l0,.07h-.07c-5,.63-12.65,2.79-19.37,4.69-3.81,1.08-7.1,2-9.34,2.5a86.43,86.43,0,0,1-11.14,1.78c-1.21.09-2.35.14-3.42.14A17.52,17.52,0,0,1,12.27,152.32Zm56.92-34.86c-2.43-2.47-9.29-12.63-13.4-18.72l-1.32-2C52.68,94.14,46.4,85.31,40.94,83c-3.51-1.49-7.3-1.61-9.89-.32A5.06,5.06,0,0,0,28.26,86l0,.16-.16,0a5.82,5.82,0,0,0-5,1.58,6.15,6.15,0,0,0-2.22,5.56l0,.19h-.19c-1.76,0-3.87,1.34-5.26,3.3a8.8,8.8,0,0,0-1.05,8.17l.06.17-.18,0c-1.72.41-3.43,2.61-4.16,5.33s-.33,4.94,1,6.19l.27.25-.37,0c-1.88.18-3.75,1.9-4.88,4.49s-1.66,6.54.51,9.39l.11.14-.15.1c-1.64,1.07-2.63,3.94-2.2,6.39a6.08,6.08,0,0,0,5,5l.21.06-.11.19a7.08,7.08,0,0,0-.5,5.28A6.57,6.57,0,0,0,12.42,152c2.36,1.19,6,1.6,11,1.21a86,86,0,0,0,11.09-1.77C36.7,151,40,150,43.79,149c6.7-1.9,14.28-4.05,19.34-4.69C65.82,140,69,119,69.19,117.46ZM14.94,148.55A3.64,3.64,0,0,1,12.69,146a4.54,4.54,0,0,1,.94-3.73,6.42,6.42,0,0,1-3.21-2A6.57,6.57,0,0,1,9,137.11c-.41-2.37.35-5,1.75-6a7.72,7.72,0,0,1-.61-7.1c1-2.91,3.12-5.28,5.32-6-1.33-1.29-1.86-3.51-1.43-6s1.79-4.7,3.46-5.41a7.88,7.88,0,0,1,1.13-7.14C20,97.45,22.25,96,24,95.87a5.47,5.47,0,0,1,2.09-4.65c1.7-1.48,4-2.27,5.6-1.93A4.24,4.24,0,0,1,33.64,86c1.57-.92,4-.75,7,.52,4.95,2.09,10.58,10,12.19,12.39.36.52.75,1.11,1.18,1.74,3.68,5.46,9.85,14.6,12,16.69l0,0v.09c-.12.83-3,20.32-5.49,24.13l0,.07h-.08c-4.48.56-11.26,2.48-17.25,4.18-3.39,1-6.32,1.79-8.32,2.22a71.66,71.66,0,0,1-9.87,1.46c-1.05.08-2,.11-3,.11A18.48,18.48,0,0,1,14.94,148.55Zm50.68-31.07c-2.17-2.21-8.27-11.25-11.92-16.67l-1.18-1.74c-4.26-6.3-8.77-10.89-12.05-12.28-2.88-1.22-5.19-1.4-6.66-.53A4,4,0,0,0,32,89.52l0,.19-.19,0c-1.47-.42-3.82.36-5.48,1.81a5.18,5.18,0,0,0-2,4.53l0,.19h-.19c-1.46,0-3.77,1.19-5.35,3.44a7.55,7.55,0,0,0-1,7l.05.15-.15.06c-1.6.6-3,2.7-3.4,5.22s.15,4.73,1.55,5.91l.25.2-.31.08c-2.21.58-4.38,2.94-5.39,5.88a7.34,7.34,0,0,0,.66,6.92l.11.14-.15.1c-1.38.91-2.15,3.44-1.75,5.77A5.91,5.91,0,0,0,14,142l.27.07-.18.2a4.28,4.28,0,0,0-1,3.65,3.29,3.29,0,0,0,2.06,2.33c2.2.93,5.5,1.25,9.82.95a71.25,71.25,0,0,0,9.82-1.45c2-.43,4.91-1.26,8.3-2.22,6-1.69,12.72-3.61,17.23-4.18C62.63,137.56,65.42,118.88,65.62,117.48Z"/><path d="M31.48,89.37,28,86.05l.23-.24c.26.25,1.64,1.55,3.74,3.56Z"/><path d="M23.84,96l-3.3-2.56.2-.26L24.38,96Z"/><path d="M17.56,106.8l-3.46-1.71.15-.3,3.51,1.75A1.64,1.64,0,0,1,17.56,106.8Z"/><path d="M15.6,118.21l-4.71-1.31.09-.31,4.66,1.29A1.24,1.24,0,0,1,15.6,118.21Z"/><path d="M10.93,131.12a.64.64,0,0,1-.1.18l-4.39-.25,0-.33,4.48.26A.23.23,0,0,1,10.93,131.12Z"/><path d="M13.74,142l.09.16a.22.22,0,0,1,0,.16l-4.53.41,0-.33Z"/><path class="cls-1" d="M117.9,99.13c-1.46-1-6.45-5.56-11.1-8.19-5.15-2.9-12.21-4.22-13.53-1-3.17-1.26-12.41.18-12.68,3.89-3.56-.13-7.79,3.77-6.2,7-2.18,1.06-3.17,5.88-.73,8.12C71.94,109.76,75.9,116,82,118,90.63,118.07,117.9,99.13,117.9,99.13Z"/><path class="cls-2" d="M113.46,102.08s-12.92-9.62-19.17-11.65C97.87,92.59,111,103.05,111,103.05Z"/><path class="cls-2" d="M106.81,105.73c-5.22-3.31-20.17-10.34-25.47-11.52,4.13,2.38,23.52,13.13,23.52,13.13Z"/><path class="cls-2" d="M98.48,111.22,75.11,101.07c5.74.67,26.33,8.71,26.33,8.71Z"/><path class="cls-3" d="M76.83,101.84c12.33,5,25.92,10.69,29.69,12.87l-.16.29c-3.77-2.18-17.34-7.85-29.67-12.86Z"/><path class="cls-2" d="M91.51,114.84,74,109.1c4.28.14,21,4.51,21,4.51Z"/><path class="cls-2" d="M85.8,117.13c-5.44-.83-11.7-5.36-12.47-6.89,1.37,3.58,4.33,5.61,7.64,7.59A9.89,9.89,0,0,0,85.8,117.13Z"/><path class="cls-3" d="M82,118.21h-.06a16.23,16.23,0,0,1-6.25-4.06c-1.51-1.57-2.5-3.23-2.57-4.34a1,1,0,0,1,.3-.92,5.39,5.39,0,0,1-1.26-4.6,5,5,0,0,1,2-3.57,4,4,0,0,1,.5-3.84,7.33,7.33,0,0,1,5.75-3.25h0a3.57,3.57,0,0,1,1.87-2.43c2.94-1.85,8.43-2.37,10.87-1.51A3,3,0,0,1,95,88.21c3-1,8.25.53,11.9,2.59a67.89,67.89,0,0,1,9.05,6.57c.92.75,1.64,1.34,2.06,1.63l.2.13-.2.14c-.07,0-6.91,4.79-14.72,9.47-4.6,2.75-8.62,4.94-12,6.51-4.18,2-7.31,3-9.31,3Zm33.74-20.59a68.46,68.46,0,0,0-9-6.53c-4.19-2.37-9.08-3.44-11.63-2.57A2.63,2.63,0,0,0,93.42,90l-.06.15L93.21,90c-2.27-.9-7.88-.36-10.73,1.43a3.13,3.13,0,0,0-1.72,2.33V94h-.16A6.93,6.93,0,0,0,75,97.05a3.65,3.65,0,0,0-.42,3.66l.08.15-.15.07a4.44,4.44,0,0,0-2,3.4,5,5,0,0,0,1.3,4.45l.18.16-.22.11a.67.67,0,0,0-.3.73c.06,1,1,2.64,2.48,4.13a15.79,15.79,0,0,0,6.1,4c3.51,0,10.8-3.26,21.08-9.42,7.07-4.24,13.35-8.53,14.52-9.33C117.17,98.81,116.52,98.27,115.72,97.62ZM93.19,90l.15-.29c5.7,3,18.09,13.46,18.22,13.56l-.21.26C111.22,103.45,98.85,93,93.19,90ZM80.5,93.92l.18-.28c3.59,2.29,24.36,13.5,24.57,13.61l-.16.29C104.88,107.43,84.1,96.21,80.5,93.92Zm-6.89,15.14.1-.31,17.8,6.09-.1.31Z"/><path class="cls-4" d="M73.66,108.9c-2.44-2.24-1.45-7.06.73-8.12-1.59-3.23,2.64-7.13,6.2-7,.27-3.71,9.51-5.15,12.68-3.89,1.32-3.17,8.38-1.85,13.53,1a48.9,48.9,0,0,1,5.48,3.72c-4.62-1.73-12.46-3.55-13.26-1-2.44-1.45-13-1.19-12.62,3.52-2.84-.11-7.37,2.13-5.5,6.52-3,.1-4.71,4.85-1.75,7.13-1.13.83.39,5.11,2.83,7.26C75.9,116,71.94,109.76,73.66,108.9Z"/><path class="cls-6" d="M108.65,92.68a30.3,30.3,0,0,0-8.52-3.76c-2.64-.6-5.39-.27-6,.68C97.48,88.8,102.44,89.74,108.65,92.68Z"/><path class="cls-6" d="M94.19,91.08c-1.88-1-4.9-1.16-7.79-.65-3.31.58-4.82,2.46-5,3C84,91.13,89.62,90,94.19,91.08Z"/><path class="cls-6" d="M80.5,94.21a7.75,7.75,0,0,0-4.44,2.26c-1.33,1.5-1.47,2.87-1,4C75.26,97.61,77.38,95.39,80.5,94.21Z"/><path class="cls-6" d="M74.5,101.42a4.79,4.79,0,0,0-1.62,3.89,4.72,4.72,0,0,0,1.32,3.33A7.73,7.73,0,0,1,74.5,101.42Z"/><path class="cls-5" d="M99.57,92.91a1.35,1.35,0,0,0-.55.7,3.44,3.44,0,0,0-.54-.25c-1.77-1.31-3.28-2.38-4.19-2.93A32,32,0,0,1,99.57,92.91Z"/><path class="cls-5" d="M86.55,95.94a2.74,2.74,0,0,0-.15,1.12c-2.24-1.25-4.08-2.28-5.06-2.85A38.41,38.41,0,0,1,86.55,95.94Z"/><path class="cls-5" d="M80.52,102.37a5.77,5.77,0,0,0,.35,1.21l-5.76-2.51A38.11,38.11,0,0,1,80.52,102.37Z"/><path class="cls-5" d="M78.17,109.68a3.89,3.89,0,0,0,1,1.1L74,109.1A31.73,31.73,0,0,1,78.17,109.68Z"/><path class="cls-5" d="M79.7,115a10.71,10.71,0,0,0,2.13,2.9h-.25a15.06,15.06,0,0,1-2.25-1.08A20.43,20.43,0,0,1,75.8,114c-.21-.22-.41-.44-.59-.66l-.06-.07-.13-.15a11,11,0,0,1-1.66-2.83v0C73.88,111.26,76.5,113.36,79.7,115Z"/><path d="M81.92,118.2a16.23,16.23,0,0,1-6.25-4.06c-1.51-1.57-2.5-3.23-2.57-4.34a1,1,0,0,1,.3-.92,5.39,5.39,0,0,1-1.26-4.6,5,5,0,0,1,2-3.57,4,4,0,0,1,.5-3.84,7.33,7.33,0,0,1,5.75-3.25h0a3.57,3.57,0,0,1,1.87-2.43c2.94-1.85,8.43-2.37,10.87-1.51A3,3,0,0,1,95,88.21c3-1,8.25.53,11.9,2.59a48.48,48.48,0,0,1,5.5,3.73l.89.68-1-.39c-4.45-1.67-10.28-2.91-12.33-1.91a1.26,1.26,0,0,0-.72.75l-.06.2-.18-.11c-1.79-1.06-7.94-1.14-10.82.67a2.83,2.83,0,0,0-1.56,2.69l0,.19h-.19a6.3,6.3,0,0,0-5.13,2.35,3.93,3.93,0,0,0-.21,4l.1.22h-.24A3.33,3.33,0,0,0,78,106.35a3.81,3.81,0,0,0,1.25,4.3l.18.14-.18.13a1,1,0,0,0-.31.8c-.07,1.55,1.26,4.53,3.15,6.2l.62.55Zm-4.23-12a3.74,3.74,0,0,1,3-2.74,4.2,4.2,0,0,1,.33-4A6.61,6.61,0,0,1,86.2,97h0A3.12,3.12,0,0,1,88,94.14a12.62,12.62,0,0,1,6-1.47,11.76,11.76,0,0,1,5,.71,1.69,1.69,0,0,1,.81-.77c2.21-1.07,7.77.23,11.57,1.53a43.61,43.61,0,0,0-4.6-3c-4.19-2.37-9.08-3.45-11.63-2.57A2.63,2.63,0,0,0,93.42,90l-.06.15L93.21,90c-2.27-.9-7.88-.36-10.73,1.43a3.13,3.13,0,0,0-1.72,2.33V94h-.16A6.93,6.93,0,0,0,75,97.05a3.65,3.65,0,0,0-.42,3.66l.08.15-.15.07a4.44,4.44,0,0,0-2,3.4,5,5,0,0,0,1.3,4.45l.18.16-.22.11a.67.67,0,0,0-.3.73c.06,1,1,2.64,2.48,4.13a15.9,15.9,0,0,0,5.39,3.7,9.72,9.72,0,0,1-2.69-5.9,1.5,1.5,0,0,1,.29-.92A4.16,4.16,0,0,1,77.69,106.24Z"/><path d="M99.18,93.58H98.7A49,49,0,0,0,93.19,90l.15-.29a50.54,50.54,0,0,1,5.84,3.79Z"/><path d="M86.12,97.16c-2.59-1.45-4.68-2.64-5.62-3.24l.18-.28c.95.61,3.08,1.83,5.73,3.3A.64.64,0,0,1,86.12,97.16Z"/><path d="M80.68,103.73l-6.36-2.8.13-.3,6.47,2.85A.64.64,0,0,1,80.68,103.73Z"/><path d="M79.14,110.72s0,.11,0,.13-.06,0-.07,0l-.08,0-5.39-1.84.1-.31,5.37,1.83Z"/><path class="cls-1" d="M188.6,80.79a104,104,0,0,0-16.74-15.65c-8-5.75-13.91-8-15.23-6.33-3.52-2.11-10.17-2.42-11.09.88-3.41-1.2-8,2.2-6.61,7-2.46.39-4.35,3.87-3.08,7.13-2.29.92-2.58,4.32.09,9A15.67,15.67,0,0,0,142,89.1C156.61,83.59,171.8,81.26,188.6,80.79Z"/><path class="cls-2" d="M157.57,59.62c7.1,3.56,18.67,15.79,23.22,21.53-1.58.11-2.4.17-3.95.31-1.59-2.91-6.78-9.25-11.55-14.3C162,63.62,159,61.06,157.57,59.62Z"/><path class="cls-2" d="M170.4,82.16c-1.39.18-1.27.21-2.64.43a158.41,158.41,0,0,0-12-14c-3-3.14-5.85-6.17-9.61-8.58C153.81,62.1,170.94,82.09,170.4,82.16Z"/><path class="cls-2" d="M143.8,88.43,142,89.1a15.67,15.67,0,0,1-6.05-6.25c-1.84-3.22-2.27-5.83-1.61-7.44C134.87,80.21,138.57,85.37,143.8,88.43Z"/><path class="cls-2" d="M136.29,74.45c5,3.64,10.37,8.14,15.08,11.72-.69.2-1.67.25-2.36.46C145,82.69,140.64,79.32,136.29,74.45Z"/><path class="cls-2" d="M159.66,84a24,24,0,0,1-3.14.53c-5.8-5.59-11.86-11.8-17.22-17.41C143.5,69.69,155.26,80.51,159.66,84Z"/><path class="cls-3" d="M141.92,89.25a16.07,16.07,0,0,1-6.12-6.32c-1.71-3-2.31-5.61-1.7-7.4a2.91,2.91,0,0,1,1.54-1.75,6.06,6.06,0,0,1,.41-5,4.23,4.23,0,0,1,2.68-2.14,5.68,5.68,0,0,1,1.55-5.75,5.36,5.36,0,0,1,5.15-1.38,3.32,3.32,0,0,1,2-1.93c2.41-1,6.47-.48,9.13,1.05,1.62-1.59,7.74.95,15.36,6.4a103.41,103.41,0,0,1,16.46,15.34l.54.6h-.36c-18.07.51-32.87,3.15-46.55,8.3l-.06,0Zm46.25-8.69a103,103,0,0,0-16.4-15.29,52.71,52.71,0,0,0-10.1-5.91c-2.56-1-4.31-1.19-4.91-.44l-.09.11-.13-.08c-2.57-1.54-6.59-2-8.95-1.09a2.88,2.88,0,0,0-1.89,1.88l0,.17-.17-.06a5,5,0,0,0-5,1.25,5.38,5.38,0,0,0-1.42,5.59l.06.18-.19,0a3.83,3.83,0,0,0-2.62,2,5.7,5.7,0,0,0-.33,4.89l.06.15-.15.06a2.55,2.55,0,0,0-1.5,1.62c-.58,1.67,0,4.27,1.66,7.12A16,16,0,0,0,142,88.92c13.61-5.12,28.31-7.75,46.24-8.29Z"/><path class="cls-3" d="M177.45,81.5l.26-.21c-.12-.14-11.67-14.91-21-22.6l-.21.25C165.8,66.61,177.33,81.35,177.45,81.5Z"/><path class="cls-3" d="M167.67,82.63l.26-.21s-3.93-5-8.6-10.25c-6.28-7.07-10.9-11.32-13.72-12.63l-.14.3C152.11,62.92,167.52,82.43,167.67,82.63Z"/><path class="cls-3" d="M156.17,84.84l.25-.22c-1.66-2-9.27-9.73-13.82-14.37l-3.55-3.63-.23.23c.49.52,1.84,1.89,3.54,3.63C146.91,75.11,154.52,82.87,156.17,84.84Z"/><path class="cls-3" d="M148.77,86.85l.24-.22c-.68-.76-2.6-2.56-4.82-4.66-3.37-3.17-7.56-7.13-8.19-8.19l-.29.17c.66,1.1,4.7,4.91,8.26,8.26C146.18,84.3,148.09,86.1,148.77,86.85Z"/><path class="cls-4" d="M135.94,82.85c-2.67-4.66-2.38-8.06-.09-9-1.27-3.26.62-6.74,3.08-7.13-1.4-4.85,3.2-8.25,6.61-7,.92-3.3,7.57-3,11.09-.88,1.31-1.61,7.11.55,15,6.18-3.36-1.68-8.73-3.54-9.87-1.47-3-1.93-9.75-2.34-9.19,1.76-3.8-1.45-9.24,1.84-8.37,6.86-2.51-.39-4.39,3.36-2.59,7.57-2.59-.55-2.95,4.27-1.51,8.13A17.79,17.79,0,0,1,135.94,82.85Z"/><path class="cls-6" d="M167.12,62.48c-.93-.55-8-4.66-9.55-3.38C159.82,58.85,167.12,62.48,167.12,62.48Z"/><path class="cls-6" d="M157.75,60.51a9.82,9.82,0,0,0-5.2-2.46c-2.44-.4-5.05.13-5.8,1C148.59,58.4,154.05,57.91,157.75,60.51Z"/><path class="cls-6" d="M148,61.9c-.8-.65-3.49-2.93-6.35-1.06-2.4,1.57-2.21,5.33-2.21,5.33.61-2.69,1.29-4.41,3.25-5.17S146.55,61.09,148,61.9Z"/><path class="cls-6" d="M138.82,67.78a4.37,4.37,0,0,0-1.47,6.67A7,7,0,0,1,138.82,67.78Z"/><path class="cls-5" d="M162.51,62.86a1.61,1.61,0,0,0-.73.66l-.31-.19c-1.68-1.61-3.06-2.85-3.9-3.71A33,33,0,0,1,162.51,62.86Z"/><path class="cls-5" d="M152.72,63.91a2.74,2.74,0,0,0-.13,1.37l0,0A39.23,39.23,0,0,0,146.16,60,21.36,21.36,0,0,1,152.72,63.91Z"/><path class="cls-5" d="M135.37,81.75a16,16,0,0,1-.73-1.71,6.57,6.57,0,0,1-.31-4.63A16.91,16.91,0,0,0,139.41,85a13.38,13.38,0,0,0,.71,2.8l-.05,0a18.1,18.1,0,0,1-4.69-6Z"/><path class="cls-5" d="M136.29,74.45c1.58,1.15,3.2,2.39,4.82,3.66a9.6,9.6,0,0,0,.52,1.6l-.15,0C139.77,78.09,138,76.39,136.29,74.45Z"/><path class="cls-5" d="M144.14,70.75a6.6,6.6,0,0,0,.08,1.39h-.06c-1.67-1.72-3.3-3.41-4.86-5A53.32,53.32,0,0,1,144.14,70.75Z"/><path d="M140,88a18.07,18.07,0,0,1-4.22-5c-1.71-3-2.31-5.61-1.7-7.4a2.91,2.91,0,0,1,1.54-1.75,6.06,6.06,0,0,1,.41-5,4.23,4.23,0,0,1,2.68-2.14,5.68,5.68,0,0,1,1.55-5.75,5.36,5.36,0,0,1,5.15-1.38,3.32,3.32,0,0,1,2-1.93c2.41-1,6.47-.48,9.13,1.05.76-.75,2.53-.61,5.13.43a52,52,0,0,1,10,5.83l-.17.28c-4-2-8.68-3.31-9.65-1.54l-.09.15-.15-.09c-2-1.32-6-1.95-7.94-.74a2.2,2.2,0,0,0-1,2.33l0,.28-.26-.1a6.35,6.35,0,0,0-6.07,1.21,5.67,5.67,0,0,0-2.07,5.47l0,.23-.23,0a2.27,2.27,0,0,0-2.19,1c-.87,1.13-1.46,3.47-.23,6.37l.13.29-.31-.07a1.35,1.35,0,0,0-1.38.45c-1.05,1.22-1,4.57.05,7.46l.22.57Zm1.35-8.46c-.94-2.41-.8-4.91.38-6.44A2.66,2.66,0,0,1,144,72a6,6,0,0,1,2.22-5.56A6.69,6.69,0,0,1,152.4,65a2.49,2.49,0,0,1,1.18-2.39c2-1.26,5.94-.69,8.15.65.61-.87,2-1.08,4.19-.6a23.17,23.17,0,0,1,4.1,1.37c-7.71-5.24-12.26-6.38-13.26-5.14l-.09.11-.13-.08c-2.57-1.54-6.59-2-8.95-1.09a2.88,2.88,0,0,0-1.89,1.88l0,.17-.17-.06a5,5,0,0,0-5,1.25,5.38,5.38,0,0,0-1.42,5.59l.06.18-.19,0a3.83,3.83,0,0,0-2.62,2,5.7,5.7,0,0,0-.33,4.89l.06.15-.15.06a2.55,2.55,0,0,0-1.5,1.62c-.58,1.67,0,4.27,1.66,7.12l-.14.09.14-.09a18.11,18.11,0,0,0,3.69,4.57c-.94-2.89-.87-6,.2-7.23a1.66,1.66,0,0,1,1.27-.6Z"/><path d="M161.46,63.44c-1.66-1.64-3.33-3.17-4.94-4.5l.21-.25c1.69,1.39,3.45,3,5.2,4.75Z"/><path d="M152.39,65.16h-.16a29.58,29.58,0,0,0-6.76-5.33l.14-.3c1.71.8,4.09,2.68,7.11,5.63Z"/><path d="M143.87,72l-1.51-1.54c-1.7-1.74-3.05-3.11-3.54-3.63l.23-.23,3.55,3.63L144.33,72Z"/><path d="M136,73.78a57.26,57.26,0,0,0,5.71,5.84.73.73,0,0,0-.28,0l-.07.08A54.61,54.61,0,0,1,135.71,74Z"/><path class="cls-1" d="M242.88,137c.92,2.58,5.76,5.7,5.81,9.11,0,2.58-3.44,6.14-8.78,6.41-4.23,1.38-16.06,11.39-27.35,10.8-4.65,3.66-19.66,8-42.64,10.7-24.8.07-43.22,2.17-66.09-6.58A189.85,189.85,0,0,1,64,145.91c-3.19-2.2-5.29-3-5.62-3.73-1.1-2.42-2-9.55,0-15.65,1.49-4.42,5.75-9.14,8.12-9.4a39.79,39.79,0,0,0,23.28-3.76c13-6.35,36.25-22.82,58.1-29,17.16-4.87,31.91-7.61,48.33-4.09,9.49,2,21.59,4.62,33.41,18.75,7.77,9.29,11.48,17.3,13.86,21s4.29,4.76,4.29,4.76Z"/><path class="cls-8" d="M242.64,120.48c-2.5-3.49-6.52-10.59-14.3-19.88-11.81-14.13-23-16-32.49-18-16.42-3.52-30.5-.83-47.66,4-21.86,6.21-44.78,22.68-57.75,29-12.41,6.07-23,1.38-24,1.48a39.79,39.79,0,0,0,23.28-3.76c13-6.35,36.25-22.82,58.1-29,17.16-4.87,31.91-7.61,48.33-4.09,9.49,2,21.59,4.62,33.41,18.75,7.77,9.29,11.48,17.3,13.86,21s4.29,4.76,4.29,4.76S245.21,124.06,242.64,120.48Z"/><path class="cls-9" d="M121.58,165a23.28,23.28,0,0,1-2.68-.86,14.07,14.07,0,0,1,2.49.78Z"/><path class="cls-9" d="M121.58,165l.61.15A3,3,0,0,1,121.58,165Z"/><path class="cls-2" d="M64.89,140.47c8,5.48,31.19,18.47,54.87,23.47,20.48,4.32,39.8,1,47.12.67,11.87-.57,27.88-3,30.65-11,7,2.63,15.12,4.78,23.32,3.21a44.88,44.88,0,0,0,13-5.06c-1.78-.83-4-2.85-4-3.3,1.3,1.07,7.41,2.67,12.51,1.75,3.16-.58,5.74-1.75,6.33-4.27,0,0,0,.07,0,.1,0,2.58-3.44,6.14-8.78,6.41-4.23,1.38-16.06,11.39-27.35,10.8-4.65,3.66-19.66,8-42.64,10.7-24.8.07-43.22,2.17-66.09-6.58A189.85,189.85,0,0,1,64,145.91c-3.19-2.2-5.29-3-5.62-3.73-.85-1.87-1.61-6.56-1-11.4C58.27,136.41,61.15,137.9,64.89,140.47Z"/><path class="cls-10" d="M166.92,126.35a24.79,24.79,0,0,1,2.25-14.73,112.9,112.9,0,0,1,10.07-16.68c.6-1,.9-2.26,1.51-3.16,2.4-3.9,6.16-6,9-9.76.68-1,2-1.53,2.66-2.48,1.25.2,2.51.44,3.78.71a71.4,71.4,0,0,1,15.24,4.57c-3.46,2.32-5.61,6.66-8.3,10.12-.76,1-1.51,2-2.26,3.15-8.11,12.33-13.37,25.4-11,40.28a45.35,45.35,0,0,0,2.11,6.91,37.56,37.56,0,0,0,7.21,12.62c2.76,3.14,6.24,5.32,9.75,7.44a76.25,76.25,0,0,1-13.43,4.3c-4.24-2.21-8.72-4-12.55-7.08C172,153.84,169,139.72,166.92,126.35Z"/><path class="cls-10" d="M67.53,117.22A38.05,38.05,0,0,0,78.84,117c3.12,4.2,2.9,10.38,2.13,15.56a34.29,34.29,0,0,1-5.86,13.82,24.4,24.4,0,0,1-3.59,4.59c-2.92-1.86-5.45-3.57-7.53-5-1.46-1-2.69-1.72-3.62-2.27C65.29,136,67.13,126.32,67.53,117.22Z"/><path class="cls-10" d="M119.44,165.72c1.35-4.66,2.25-9.32,3.75-14.13,3.16-9.77,2.71-20,2.11-30.2a36.93,36.93,0,0,0-2.11-8.72c-1.2-3.31-2.25-6.46-3.3-9.77-.65-1.82-1.75-3.41-2.49-5.16C123,94.64,129,91.6,135,89a69.28,69.28,0,0,1,10.18,21c2.11,7.06,1.35,14.12,1.05,21.33,0,.15.6.3.6.45-1.05,5.87-1.05,11.43-2.7,17-2.1,7.81-4.21,15.17-7.81,22.39-.54,1-1,1.89-1.56,2.78a107.39,107.39,0,0,1-17.1-2.35,37.4,37.4,0,0,0,2.28-5.39C119.89,166,119.28,165.87,119.44,165.72Z"/><path class="cls-11" d="M209,165.34a76.25,76.25,0,0,1-13.43,4.3c-4.23-2.2-8.69-4-12.52-7.06,6.29-1.45,11.71-3.81,13.89-7.61a33.35,33.35,0,0,0,2.31,2.93C202,161,205.47,163.22,209,165.34Z"/><path class="cls-11" d="M64.89,140.47c2.25,1.55,5.72,3.69,10.06,6.09a22.39,22.39,0,0,1-3.43,4.36c-3.74-2.38-7.39-4.94-11.14-7.29.84-1.52,1.74-3,2.46-4.55Z"/><path class="cls-11" d="M119.44,165.72c.16-.58.33-1.17.48-1.75a105.89,105.89,0,0,0,18.63,2.12c-.7,1.69-1.45,3.37-2.28,5-.54,1-1,1.89-1.56,2.78l-1.06-.07h0l-1.06-.08h0c-2.83-.22-5.66-.54-8.51-1h0l-1-.16-.11,0-.93-.16-.16,0-.89-.16-.19,0-.86-.17-.21,0-.85-.17-.22-.05-.86-.19-.14,0a37.4,37.4,0,0,0,2.28-5.39C119.89,166,119.28,165.87,119.44,165.72Z"/><path class="cls-3" d="M131,173.79a99.33,99.33,0,0,1-27.19-6.24A173.18,173.18,0,0,1,80,156.25c-7-4-12.54-7.72-16.14-10.21-1.41-1-2.59-1.66-3.53-2.21-1.21-.71-1.94-1.14-2.14-1.58a19.18,19.18,0,0,1-1.2-6.51,26.22,26.22,0,0,1,1.2-9.26A19.37,19.37,0,0,1,62,120.16c1.64-1.87,3.32-3.07,4.5-3.19a5.12,5.12,0,0,1,.94.07,38.75,38.75,0,0,0,22.27-3.82c3.93-1.92,8.73-4.73,14.3-8,12.73-7.45,28.58-16.72,43.83-21A147.77,147.77,0,0,1,172.3,79a74,74,0,0,1,23.93,1.11h0A70.34,70.34,0,0,1,212.12,85a51,51,0,0,1,17.61,13.94,111.79,111.79,0,0,1,11.81,17.49c.79,1.4,1.48,2.61,2.07,3.53,2.32,3.6,4.21,4.68,4.23,4.69l.13.07L243.05,137a12.68,12.68,0,0,0,2.41,3.25c1.58,1.76,3.36,3.75,3.39,5.85a5.76,5.76,0,0,1-2.43,4.2,11.19,11.19,0,0,1-6.48,2.37,33.11,33.11,0,0,0-5.18,2.79c-5.38,3.23-13.39,8-21.23,8l-.91,0c-2.46,1.9-7.46,3.87-14.47,5.71a213.85,213.85,0,0,1-28.21,5h0c-4.06,0-7.95.07-11.71.14s-7.53.12-11.2.12C141.56,174.41,136.23,174.27,131,173.79Zm67.11-4.95c6.91-1.81,12-3.83,14.39-5.69l0,0h.06l1,0c7.75,0,15.72-4.78,21.06-8a33.22,33.22,0,0,1,5.26-2.83h.05a10.77,10.77,0,0,0,6.31-2.3,5.42,5.42,0,0,0,2.31-3.93c0-2-1.77-3.92-3.3-5.64a12.38,12.38,0,0,1-2.5-3.42l0-.06,4.86-12.14a15.64,15.64,0,0,1-4.23-4.74c-.59-.92-1.28-2.13-2.08-3.54a110.8,110.8,0,0,0-11.77-17.43C217.71,85,205.78,82.47,196.2,80.42h0c-16-3.45-30.36-1-48.25,4.09-15.21,4.32-31,13.58-43.75,21-5.57,3.26-10.39,6.07-14.32,8a39.07,39.07,0,0,1-22.45,3.86,7.82,7.82,0,0,0-.88-.08c-1.09.12-2.7,1.28-4.28,3.09a19.14,19.14,0,0,0-3.7,6.2c-2.1,6.24-1,13.31,0,15.54a6.24,6.24,0,0,0,2,1.42c.95.56,2.14,1.25,3.56,2.23a188.51,188.51,0,0,0,39.81,21.48c19.1,7.3,35.42,7,54.32,6.71,3.76-.07,7.64-.13,11.7-.14A214.92,214.92,0,0,0,198.07,168.84Z"/><path class="cls-12" d="M191.77,149.63a41.4,41.4,0,0,1-4.42-17.54,52.62,52.62,0,0,1,2.44-17.75,64.18,64.18,0,0,1,6.85-14.72A70.89,70.89,0,0,1,205,88.74a51.58,51.58,0,0,1,4.89-4.58c1.33.55,2.69,1.18,4.05,1.9-3,2.06-8.76,7.34-14,15.66-4.24,6.78-9.18,17.52-8.69,30.21.41,10.6,4.32,19.18,11.6,25.53a35.17,35.17,0,0,0,9.53,5.91,20.77,20.77,0,0,1-4.33,2.36,39.17,39.17,0,0,1-7.66-5.17A36.8,36.8,0,0,1,191.77,149.63Z"/><path class="cls-12" d="M170.45,150.37c-4-7.59-5.77-13.65-6.14-21.4a54.84,54.84,0,0,1,10.37-34.06,84.53,84.53,0,0,1,14.58-15.8c1.73.2,3.48.46,5.24.8-17,13.82-25.2,30.27-24.3,48.89.63,12.94,5.53,23.59,14.56,31.66a43.43,43.43,0,0,0,13.59,8.35l0,.13q-2.82.75-6.11,1.46a64.27,64.27,0,0,1-9.94-6.87C177.38,159.58,173.12,155.38,170.45,150.37Z"/><path class="cls-12" d="M144.65,132.77c.73-16.82-3.33-31.54-11.79-42.83,1.24-.56,2.48-1.1,3.73-1.61a60,60,0,0,1,7.3,13.4,76.12,76.12,0,0,1,4.72,31.21,81.34,81.34,0,0,1-3.14,18.92,87.3,87.3,0,0,1-5.73,14.59,82.93,82.93,0,0,1-4.25,7.51c-1.51-.09-3-.2-4.52-.33a78.93,78.93,0,0,0,5.28-9.06A79.92,79.92,0,0,0,144.65,132.77Z"/><path class="cls-12" d="M116,98.73l3.47-1.91a66.07,66.07,0,0,1,5.29,14.93,96.38,96.38,0,0,1,2.45,20.63A98.16,98.16,0,0,1,125,154.43,78.48,78.48,0,0,1,119.1,172c-1.31-.27-2.64-.57-4-.91C126.54,148.1,124.9,116.24,116,98.73Z"/><path class="cls-12" d="M78.59,134.5c1.8-8.33-.36-14.84-3.42-17l.09-.13a38,38,0,0,0,4.64-.66,16.78,16.78,0,0,1,2.57,5.68,28.25,28.25,0,0,1,0,12.91,35.44,35.44,0,0,1-7,14c-.8,1-1.58,1.89-2.27,2.64-1.2-.75-2.33-1.47-3.41-2.17a39.45,39.45,0,0,0,2.63-3A31.28,31.28,0,0,0,78.59,134.5Z"/><path class="cls-12" d="M58.37,142.18a7.44,7.44,0,0,1-.29-.75,34,34,0,0,0,6.45-13.82,35.2,35.2,0,0,0,.86-10.12,3.43,3.43,0,0,1,1.1-.36c.26,0,1.27.15,2.87.27a39.64,39.64,0,0,1-1,11.08,38.05,38.05,0,0,1-7.34,15.57C59.54,143.15,58.58,142.65,58.37,142.18Z"/><path class="cls-3" d="M239.15,152.66l.76,0v-.33c-3.46.16-7.92-.76-10.06-3.82a4.84,4.84,0,0,0,2,2.33A14.09,14.09,0,0,0,239.15,152.66Z"/><path class="cls-13" d="M237.49,138.88a9.39,9.39,0,0,1,5.61,3.85c1.29,2.05,1.06,3.29-.42,4.07s-5.63.63-9.77-1.63a24.89,24.89,0,0,1-7.48-6.47Z"/><path class="cls-14" d="M232.91,145.17a24.89,24.89,0,0,1-7.48-6.47l10.16.15c3.12,1.68,7.93,5.66,6.74,8.09C240.68,147.5,236.75,147.26,232.91,145.17Z"/><path class="cls-15" d="M235.59,138.85h0c-1.72.28-3.61,1.67-2.87,3.41,1.8,4.24,8.78,4.93,9.77,4a1.73,1.73,0,0,1-.18.71c-1.65.56-5.58.32-9.42-1.77a24.89,24.89,0,0,1-7.48-6.47Z"/><path class="cls-16" d="M238.42,147.21a17.27,17.27,0,0,1-5.59-1.89,25.53,25.53,0,0,1-7.54-6.52l-.19-.27,10.53.16h0a21.88,21.88,0,0,1,5,3.8c1.73,1.81,2.35,3.37,1.79,4.52l0,.06-.07,0a6.41,6.41,0,0,1-2,.27A12.26,12.26,0,0,1,238.42,147.21Zm2-4.48a21.9,21.9,0,0,0-4.91-3.72l-9.79-.14A25.3,25.3,0,0,0,233,145h0c3.77,2.05,7.62,2.27,9.22,1.78C242.77,145.54,241.57,143.89,240.46,142.73Z"/><path class="cls-3" d="M238.81,147.27a17.23,17.23,0,0,1-6-2,25.53,25.53,0,0,1-7.54-6.52l-.19-.27,12.39.18h0a9.63,9.63,0,0,1,5.73,3.93,3.79,3.79,0,0,1,.8,2.89,2.3,2.3,0,0,1-1.28,1.42,5.61,5.61,0,0,1-2.4.42A12.19,12.19,0,0,1,238.81,147.27Zm-13.05-8.4A25.3,25.3,0,0,0,233,145c4,2.18,8.23,2.35,9.61,1.62a2,2,0,0,0,1.12-1.21,3.51,3.51,0,0,0-.76-2.62,9.2,9.2,0,0,0-5.49-3.78Z"/><path class="cls-1" d="M225.43,138.7c2.06,1.1,8.82,2.89,16,.71,6.63-2,10.29-6.58,10.46-10.33s-3.8-5.54-5.18-5.11c-2.05.65-2.48,6.48-6.83,9.76-4.56,3.43-11.71,3.69-13.34,2.81l-1.76.4Z"/><path class="cls-2" d="M250.7,125.68a4.65,4.65,0,0,1,1.22,3.4c-.17,3.75-3.83,8.31-10.46,10.33-7.21,2.18-14,.39-16-.71l-.62-1.76.27-.06c2.83,1.07,10.51,2.84,17.27.08C247.2,135,251.93,129.6,250.7,125.68Z"/><path class="cls-3" d="M225.35,138.85l-.06,0-.7-2,2-.45.06,0c.73.39,2.84.59,5.47.19a17.67,17.67,0,0,0,7.69-3c2.4-1.82,3.59-4.41,4.55-6.5.76-1.66,1.36-3,2.33-3.29a4.43,4.43,0,0,1,3.37,1,5,5,0,0,1,2,4.23,9.61,9.61,0,0,1-2.86,5.92,17.7,17.7,0,0,1-7.72,4.55,24.51,24.51,0,0,1-7.16,1A21.38,21.38,0,0,1,225.35,138.85Zm21.44-14.72c-.83.26-1.41,1.52-2.13,3.11-1,2.12-2.18,4.76-4.65,6.62a18,18,0,0,1-7.85,3.06c-2.37.35-4.66.27-5.61-.2l-1.52.34.53,1.53c2.21,1.14,8.88,2.77,15.85.66s10.19-6.74,10.35-10.17a4.66,4.66,0,0,0-1.91-4,4.79,4.79,0,0,0-2.64-1.05A1.33,1.33,0,0,0,246.79,124.13Z"/><path class="cls-1" d="M228.68,136.32c-1.7.49-4.57,3.9-5.23,6C221.57,136.3,223.65,134.67,228.68,136.32Z"/><path class="cls-3" d="M223.45,142.31c1-2.17,3.79-5.41,5.23-6a3.21,3.21,0,0,0-1.75.84,19.13,19.13,0,0,0-2.68,3.11A3.81,3.81,0,0,0,223.45,142.31Z"/><path class="cls-2" d="M222.68,106.14c8.45-.64,11.1,14.19,9.58,19-1.88,5.94-14.72,6.74-17.35,3S212.75,106.89,222.68,106.14Z"/><path d="M217.39,108.79a7.72,7.72,0,0,1,5.29-2.65,6.61,6.61,0,0,1,5.22,2,7.84,7.84,0,0,0-5.26-1.55C220.79,106.66,219.33,107.46,217.39,108.79Z"/><path d="M222.68,108.63c8.45-.57,11.1,12.73,9.58,17-1.88,5.33-14.72,6-17.35,2.68S212.75,109.31,222.68,108.63Z"/><path class="cls-10" d="M222.69,109.53c8.27-.55,10.87,12.2,9.38,16.31-1.85,5.11-14.41,5.81-17,2.57S213,110.18,222.69,109.53Z"/><path class="cls-11" d="M232.35,121a11.26,11.26,0,0,1-.28,4.82c-1.85,5.11-14.41,5.81-17,2.57-.94-1.19-1.48-4-1.29-7.07C215.51,129.5,229.84,128.85,232.35,121Z"/><path d="M219,130.34c-1.35-.22-3.15-.72-4-1.82s-1.32-3.13-1.36-5.62a18.59,18.59,0,0,1,1.46-7.72c1.1-2.49,3.32-5.53,7.63-5.81a7.59,7.59,0,0,1,6.75,3.36,17,17,0,0,1,2.9,7,13,13,0,0,1-.1,6.12,5.6,5.6,0,0,1-2.75,2.89,14.4,14.4,0,0,1-4.59,1.49,19.3,19.3,0,0,1-3.21.26A17.94,17.94,0,0,1,219,130.34Zm3.72-20.64c-4.15.27-6.29,3.2-7.35,5.61-2.17,4.91-1.59,11.18-.14,13,1,1.21,3.49,1.91,6.44,1.91a20.55,20.55,0,0,0,3.18-.26c3.71-.61,6.36-2.17,7.09-4.17a12.79,12.79,0,0,0,.08-6,16.61,16.61,0,0,0-2.83-6.9,7.26,7.26,0,0,0-5.95-3.25A4.61,4.61,0,0,0,222.7,109.7Z"/><ellipse class="cls-17" cx="222.24" cy="121.93" rx="4.67" ry="6.27" transform="translate(-12.9 27.23) rotate(-6.81)"/><ellipse cx="222.29" cy="123.08" rx="3.35" ry="3.79" transform="translate(-7.16 13.93) rotate(-3.53)"/><path class="cls-10" d="M222.2,119.35a1.5,1.5,0,1,0,1.41-1.59A1.5,1.5,0,0,0,222.2,119.35Z"/><path class="cls-18" d="M219.37,126.84a8,8,0,0,1-1.08-9,4.34,4.34,0,0,1,3.19-2.3c2.64-.31,5.14,2.3,5.56,5.82s-1.39,6.64-4,7a3.15,3.15,0,0,1-.44,0A4.43,4.43,0,0,1,219.37,126.84Zm2.15-11a4,4,0,0,0-2.94,2.13,7.71,7.71,0,0,0,1,8.61A4,4,0,0,0,223,128c2.47-.29,4.15-3.25,3.75-6.59-.38-3.16-2.48-5.55-4.8-5.55A2.55,2.55,0,0,0,221.52,115.87Z"/><path class="cls-4" d="M227.49,101.68c-.22-1.36-1.62-5.37-5.45-5.59-3.17-.18-7.29,3.17-7.84,9C215.9,101.77,222.24,96.89,227.49,101.68Z"/><path class="cls-5" d="M227.49,101.68c-3.54-6.93-11.81-2.61-13.29,3.44C215.9,101.77,222.24,96.89,227.49,101.68Z"/><path d="M214,105.1a11.37,11.37,0,0,1,3-6.87,6.76,6.76,0,0,1,5-2.3c3.88.22,5.36,4.21,5.61,5.73l.07.47-.35-.32a6.79,6.79,0,0,0-6-1.85,10.77,10.77,0,0,0-7,5.23L214,106Zm13.19-3.86c-.42-1.66-1.89-4.79-5.2-5a6.45,6.45,0,0,0-4.77,2.2,10.74,10.74,0,0,0-2.79,5.88,11.14,11.14,0,0,1,6.82-4.7,7.56,7.56,0,0,1,1.32-.13A7.19,7.19,0,0,1,227.23,101.24Z"/><path class="cls-1" d="M174.63,170.17c-1.76,6.56-10.73,18.82-16.24,23.71-5,4.44-10.17,4.81-11,3.67-2,1.84-7.53,1.72-7.79-1.1-2.54.79-7.35-3.17-5.85-7.22-1.85,0-3.61-4.49-.66-6.95-1.1-1.46.7-7.22,7.88-9.25s17.91-2.63,26.32-5.85A46.89,46.89,0,0,1,174.63,170.17Z"/><path class="cls-2" d="M157.43,193.19c4.83-4.23,14.31-16.87,15.9-23.65.8.37,1.3.63,1.3.63-1.76,6.56-10.73,18.82-16.24,23.71-4.71,4.17-9.55,4.75-10.84,3.86C149.44,198.1,152.71,197.32,157.43,193.19Z"/><path class="cls-2" d="M133.1,182.43l2.68-1c7.95-3,26.55-10,32.57-13.79l-2.52-.11c-6.46,3.06-22.12,9.83-30.05,12.82-1.18.44-2.49,1-3.07,1.19Z"/><path class="cls-2" d="M133.82,189.35c1.52-1.59,7.42-4.74,14.26-8.38,8-4.3,17.17-9.16,21.88-12.93l-1.2-.69c-4.26,3.74-13.18,8.27-21.21,12.55-6.86,3.66-13.48,7.12-15,8.75Z"/><path class="cls-2" d="M139.64,196.59c2.75-1.75,24.34-20.31,31.88-27.8l-1.52-.51c-7.52,7.48-29.28,26.44-32,28.19Z"/><path class="cls-2" d="M147.44,197.68c1-.8,6.12-5.72,11.42-11.36,4.82-5.13,11.13-12.24,13.83-17.06l-1.3-.58c-2.68,4.79-8.58,11.64-13.39,16.75-5.63,6-11.65,12.4-12.5,13.08Z"/><path class="cls-3" d="M141.25,198.57a2.64,2.64,0,0,1-1.84-1.91c-1.29.28-3.08-.48-4.43-1.9a5.42,5.42,0,0,1-1.51-5.38,2.82,2.82,0,0,1-1.87-2,4.68,4.68,0,0,1,1.22-5.13,3.5,3.5,0,0,1,0-2.69,9.28,9.28,0,0,1,2.51-3.71,13.24,13.24,0,0,1,5.5-3c2.89-.81,6.35-1.4,10-2,5.55-.93,11.28-1.91,16.3-3.82l0,0h.05a45.89,45.89,0,0,1,7.43,3l.12.06,0,.13c-.8,3-3.26,7.57-6.74,12.53A70.22,70.22,0,0,1,158.5,194c-3.64,3.23-7.56,4.46-9.84,4.24a2.24,2.24,0,0,1-1.33-.46,6.18,6.18,0,0,1-3.84,1.17A6.35,6.35,0,0,1,141.25,198.57Zm6.22-1.12a1.76,1.76,0,0,0,1.22.46c2.2.21,6-1,9.59-4.16a69.47,69.47,0,0,0,9.5-11.19c3.41-4.86,5.83-9.33,6.66-12.3a47.23,47.23,0,0,0-7.19-2.91c-5,1.92-10.77,2.89-16.31,3.83a100.71,100.71,0,0,0-10,2c-4.57,1.29-7,4.19-7.79,6.48a3,3,0,0,0,0,2.51l.09.12-.12.1a4.34,4.34,0,0,0-1.23,4.87c.39,1.07,1.11,1.8,1.79,1.8h.23l-.08.22a5.07,5.07,0,0,0,1.37,5.24c1.33,1.41,3.1,2.13,4.28,1.76l.2-.06,0,.2a2.25,2.25,0,0,0,1.65,1.83c1.86.7,4.65.31,5.86-.83l.13-.13Z"/><path class="cls-3" d="M133.1,182.43l2.68-1c7.95-3,26.55-10,32.57-13.79l-.17-.28c-6,3.79-24.58,10.78-32.51,13.77l-2.69,1Z"/><path class="cls-3" d="M133.82,189.35c1.52-1.59,7.42-4.74,14.26-8.38,8-4.3,17.17-9.16,21.88-12.93l-.21-.26c-4.69,3.75-13.79,8.61-21.83,12.9-6.86,3.66-12.78,6.82-14.34,8.44Z"/><path class="cls-3" d="M139.64,196.59c2.75-1.75,24.34-20.31,31.88-27.8l-.23-.23c-7.53,7.48-29.08,26-31.83,27.75Z"/><path class="cls-3" d="M147.44,197.68c1-.8,6.12-5.72,11.42-11.36,4.82-5.13,11.13-12.24,13.83-17.06l-.29-.16c-2.68,4.79-9,11.88-13.78,17-5.63,6-10.53,10.66-11.38,11.33Z"/><path class="cls-4" d="M147.34,197.55c-2,1.84-7.53,1.72-7.79-1.1-2.54.79-7.35-3.17-5.85-7.22-1.85,0-3.61-4.49-.66-6.95-1.1-1.46.7-7.22,7.88-9.25l.69-.19c-3.9,2.81-6.15,6-5,8.08a3.43,3.43,0,0,0,.94,5.63c-.45,1.75.87,6.33,6.35,6.47.09,1.23,4.16,2.57,7.64.55.86,1,3.72,1.27,8-.77-.4.39-.78.75-1.15,1.08C153.38,198.32,148.22,198.69,147.34,197.55Z"/><path class="cls-5" d="M156.54,194a18.08,18.08,0,0,0,3-1.15l-.29.29a17.38,17.38,0,0,1-8.8,4.89c-.81.15-2.15.33-2.86-.22.37,0,.77.07,1.15.05a7.66,7.66,0,0,0,1.42-.24,13.2,13.2,0,0,0,3.63-1.64A26.58,26.58,0,0,0,156.54,194Z"/><path class="cls-5" d="M133.1,182.43l-.07-.15h0l0,0-.22-.51a2,2,0,0,1,0-.24c.6-.23,1.87-.74,3-1.17l.57-.22a2.28,2.28,0,0,0,.27.81,3.5,3.5,0,0,0-.27.28l-.57.21Z"/><path class="cls-5" d="M133.59,189.22l-1-.54,0-.05a23.46,23.46,0,0,1,4-2.73,2.7,2.7,0,0,0,1,.65c0,.07,0,.14-.05.22a19.6,19.6,0,0,0-3.69,2.58l-.14-.08,0,0Z"/><path class="cls-5" d="M143.91,193a1.16,1.16,0,0,0,0,.18c-2.13,1.76-3.69,3-4.31,3.39h-.07s0-.08,0-.13a2.09,2.09,0,0,1-.51.09l-.86-.06-.17,0c.65-.42,2.28-1.72,4.48-3.57A7.83,7.83,0,0,0,143.91,193Z"/><path class="cls-5" d="M149.56,194.38a7.65,7.65,0,0,0,2-.81l.12.12c-2.11,2.08-3.69,3.56-4.21,4a.68.68,0,0,1-.12-.12,2.73,2.73,0,0,1-.53.4l-1.3.55h0C145.91,198.18,147.45,196.59,149.56,194.38Z"/><path d="M141.25,198.57a2.64,2.64,0,0,1-1.84-1.91c-1.29.28-3.08-.48-4.43-1.9a5.42,5.42,0,0,1-1.51-5.38,2.82,2.82,0,0,1-1.87-2,4.68,4.68,0,0,1,1.22-5.13,3.5,3.5,0,0,1,0-2.69,9.28,9.28,0,0,1,2.51-3.71,13.24,13.24,0,0,1,5.5-3l.7-.19.86-.22-.72.52a17,17,0,0,0-4.35,4.26c-.91,1.41-1.12,2.66-.6,3.6l.06.12-.09.09a3.22,3.22,0,0,0-1,3.06,3,3,0,0,0,1.84,2.29l.14,0,0,.14a5.07,5.07,0,0,0,1.06,3.89,6.27,6.27,0,0,0,5.14,2.38h.15V193c0,.27.3.57.79.83a7.25,7.25,0,0,0,6.6-.41l.12-.07.09.11c.86,1,3.82,1.08,7.79-.82l.89-.42-.71.69c-.4.4-.79.76-1.15,1.08-3.64,3.23-7.57,4.46-9.84,4.24a2.24,2.24,0,0,1-1.33-.46,6.18,6.18,0,0,1-3.84,1.17A6.35,6.35,0,0,1,141.25,198.57Zm6.22-1.12a1.76,1.76,0,0,0,1.22.46c2.2.21,6-1,9.59-4.16.15-.12.3-.26.45-.4-3.71,1.57-6.27,1.36-7.21.43a7.55,7.55,0,0,1-6.8.35,1.74,1.74,0,0,1-.95-.95,6.53,6.53,0,0,1-5.25-2.5,5.56,5.56,0,0,1-1.16-4,3.34,3.34,0,0,1-1.92-2.49,3.57,3.57,0,0,1,1-3.28c-.94-1.95.72-4.82,4.4-7.66-4.47,1.32-6.88,4.18-7.64,6.44a3,3,0,0,0,0,2.51l.09.12-.12.1a4.34,4.34,0,0,0-1.23,4.87c.39,1.07,1.11,1.8,1.79,1.8h.23l-.08.22a5.07,5.07,0,0,0,1.37,5.24c1.33,1.41,3.1,2.13,4.28,1.76l.2-.06,0,.2a2.25,2.25,0,0,0,1.65,1.83c1.86.7,4.65.31,5.86-.83l.13-.13Z"/><path d="M135.67,181.11l.86-.33c0,.12,0,.23,0,.35l-.75.28-2.68,1-.12-.31Z"/><path d="M137.43,186.44a1.17,1.17,0,0,0,.09.32,19.81,19.81,0,0,0-3.7,2.59l-.24-.23A20.67,20.67,0,0,1,137.43,186.44Z"/><path d="M143.71,193l.24.23c-2.13,1.76-3.69,3-4.31,3.39l-.18-.28C140.07,195.92,141.61,194.71,143.71,193Z"/><path d="M151.71,193.64c-2.15,2.13-3.75,3.63-4.27,4l-.2-.26c.43-.34,1.91-1.72,4-3.77Z"/><path class="cls-2" d="M177,170.26a9.24,9.24,0,0,1-8.43.14c-4.31-1.89-2.29-5.5-2.29-5.5Z"/><path class="cls-3" d="M173.06,171.54c.31,0,.62,0,.93,0s.64-.07.92-.12a3.58,3.58,0,0,0,2.12-1.11,9.51,9.51,0,0,1-8.36,0,4.35,4.35,0,0,1-2.55-2.41,4.05,4.05,0,0,1,.19-2.94,2.56,2.56,0,0,0-.72,1.67,3.65,3.65,0,0,0,.22,1.38,4.63,4.63,0,0,0,2.72,2.6A11.27,11.27,0,0,0,173.06,171.54Z"/><path class="cls-1" d="M159.94,127.23s-9.3-7.9-15.9-11.33-14.79-4.22-16,0c-4.89-.86-11.23,5.35-9.51,10.1-2.71,1.39-5.41,7.33-3,11.36-1.78,1.85-2,9.11,3.17,12.28-1.25,2.11.84,7.06,5.34,8.61-.19,2.28,4.06,8.52,11.54,7.78,1.21,2.16,7.47,4.12,14.81-.91,8.72-6,13.27-18.25,13.27-18.25Z"/><path class="cls-2" d="M148.06,164.9c7.89-5.28,13.68-16,15-20.64l.48,2.61s-4.55,12.28-13.27,18.25c-4.66,3.19-8.88,3.57-11.65,2.87C140.66,168.2,144,167.64,148.06,164.9Z"/><path class="cls-2" d="M160.55,131l-.14-1.89c-1.38-.86-26.4-12.37-31.73-14.53l-.75,1.43C132.42,118.15,160.27,130.91,160.55,131Z"/><path class="cls-2" d="M161.45,135.72l.07-2.34c-7.9-1.65-42.94-9.06-43.29-9.14l.22,1.92C118.8,126.24,153.55,134.07,161.45,135.72Z"/><path class="cls-2" d="M162.23,139.76v-.33c-.71,0-2.69-1.68-5.35-1.78-11.15-.4-37.89-1-42.11-1.69l.65,1.56c4.24.7,30.35,1.64,41.51,2Z"/><path class="cls-2" d="M118.62,149.8c8.36,0,43.78-7.32,44.14-7.39l-2.4-1.76c-.36.08-35.25,7.5-43.58,7.53Z"/><path class="cls-2" d="M124,158.42c9.49-1.5,38.85-14.09,39.15-14.22l-1.07-1.93c-.29.13-30.07,13.78-39.52,15.27Z"/><path class="cls-2" d="M135.56,166.18c4.57-1.78,11.9-7.32,17.25-11.66,5.78-4.69,10.55-9,10.6-9.06l-1.89-.93c-.19.17-19.69,17.65-27.72,21.56Z"/><path class="cls-3" d="M138.77,168.18a5.36,5.36,0,0,1-3.36-2,11.29,11.29,0,0,1-9.09-3.2c-1.78-1.75-2.55-3.59-2.53-4.63a9,9,0,0,1-5.3-5.23,4.47,4.47,0,0,1-.09-3.44,9.46,9.46,0,0,1-4.18-6.88c-.29-2.22.13-4.45,1-5.48a8.14,8.14,0,0,1-.47-6.29,8.93,8.93,0,0,1,3.51-5.13,5.52,5.52,0,0,1,0-3.32,9.22,9.22,0,0,1,1.82-3.27c2.14-2.55,5.25-4,7.77-3.61a3.74,3.74,0,0,1,2.25-2.27c3.09-1.32,8.85-.37,14,2.3,6.54,3.41,15.84,11.28,15.93,11.35l0,0,3.66,19.74v0a49.79,49.79,0,0,1-3.38,6.92c-2,3.49-5.43,8.31-10,11.41a18.35,18.35,0,0,1-6.49,2.9,13.22,13.22,0,0,1-2.75.3A10.32,10.32,0,0,1,138.77,168.18Zm21-40.86c-.71-.6-9.55-8-15.83-11.27-5.06-2.63-10.69-3.58-13.7-2.3a3.47,3.47,0,0,0-2.11,2.2l0,.14-.14,0c-2.44-.42-5.5,1-7.61,3.48-1.76,2.1-2.41,4.5-1.72,6.41l0,.13-.13.07c-1.41.73-2.81,2.73-3.46,5a7.76,7.76,0,0,0,.49,6.14l.07.1-.09.09c-.89.92-1.31,3.11-1,5.31a9.07,9.07,0,0,0,4.16,6.72l.14.08-.09.14a4,4,0,0,0,0,3.31A8.67,8.67,0,0,0,124,158.1l.12,0v.13c-.08,1,.73,2.83,2.43,4.49a11,11,0,0,0,8.94,3.11h.1l.06.09a4.92,4.92,0,0,0,3.2,1.91c1.6.38,5.92.85,11.37-2.88,4.47-3.07,7.83-7.84,9.85-11.31a48.75,48.75,0,0,0,3.34-6.82Z"/><path class="cls-3" d="M160.55,131l.14-.3c-.28-.13-28.13-12.89-32.62-15l-.14.3C132.42,118.15,160.27,130.91,160.55,131Z"/><path class="cls-3" d="M161.45,135.72l.07-.32c-7.9-1.65-42.64-9.48-43-9.56l-.08.32C118.8,126.24,153.55,134.07,161.45,135.72Z"/><path class="cls-3" d="M162.23,139.76v-.33l-5.29-.2c-11.15-.4-37.25-1.33-41.47-2l0,.32c4.24.7,30.35,1.64,41.51,2Z"/><path class="cls-3" d="M118.62,149.8c8.36,0,43.78-7.32,44.14-7.39l-.07-.33c-.35.08-35.74,7.36-44.07,7.39Z"/><path class="cls-3" d="M124,158.42c9.49-1.5,38.85-14.09,39.15-14.22l-.13-.3c-.3.12-29.62,12.7-39.07,14.19Z"/><path class="cls-3" d="M135.56,166.18c4.57-1.78,11.9-7.32,17.25-11.66,5.78-4.69,10.55-9,10.6-9.06l-.22-.24c-.19.17-19.07,17.26-27.75,20.66Z"/><path class="cls-4" d="M135.5,166c-7.48.74-11.73-5.5-11.54-7.78-4.5-1.55-6.59-6.5-5.34-8.61-5.21-3.17-5-10.43-3.17-12.28-2.37-4,.33-10,3-11.36-1.72-4.75,4.62-11,9.51-10.1,1.25-4.22,9.44-3.43,16,0,1.17.61,2.42,1.36,3.69,2.18-5.75-1.41-11.09-1-11.36,1.68-4.87-.62-11.86,1.55-11,7.79-4.63,1-5.35,7.74-2.78,10.39a6.49,6.49,0,0,0,1.73,11.21c-1.53,2.67,1.18,7,5.42,7.67-.08,3.38,4.73,6.22,11.4,6.15.86,1.55,4.4,3,9.49,1.93l-.31.22C143,170.15,136.71,168.19,135.5,166Z"/><path class="cls-5" d="M147.5,165.27a16.58,16.58,0,0,0,3.12-.37,18.93,18.93,0,0,1-5.9,2.88,11.53,11.53,0,0,1-6,.21,13.94,13.94,0,0,0,8-2.25C147,165.59,147.24,165.43,147.5,165.27Z"/><path class="cls-5" d="M128.63,114.71l.07-.08c1.55.63,4.73,2,8.5,3.73a2,2,0,0,0-.83,1.4l-.51-.05c-3.7-1.71-6.7-3.08-7.93-3.66Z"/><path class="cls-5" d="M118.44,126l0,0-.09-.26-.17-1.5,7.11,1.51a7.26,7.26,0,0,0,0,1.8l-.34.09-6.57-1.48Z"/><path class="cls-5" d="M115.39,137.43l.06-.07a6.56,6.56,0,0,1-.6-1.39c1.1.18,3.55.34,6.78.5a4.84,4.84,0,0,0,1,1.47l-.18.16c-3.35-.2-5.89-.4-7-.58Z"/><path class="cls-5" d="M117.71,149l-.52-.46a3.06,3.06,0,0,1-.36-.36,47,47,0,0,0,5.27-.46,8.27,8.27,0,0,0,2.21,1.43l-.09.17a49.52,49.52,0,0,1-5.6.48l-.06-.05.06-.11A8.68,8.68,0,0,1,117.71,149Z"/><path class="cls-5" d="M127.75,156.21a7.14,7.14,0,0,0,2,.61V157a47.34,47.34,0,0,1-5.75,1.44l0,0a.76.76,0,0,1,0-.15,6.15,6.15,0,0,1-.71-.28l-.71-.43A40.77,40.77,0,0,0,127.75,156.21Z"/><path class="cls-5" d="M141.13,163l.09.14a34.08,34.08,0,0,1-5.63,3.06l-.09-.14a12,12,0,0,1-1.68.05,42.07,42.07,0,0,0,5.18-3.19A21.2,21.2,0,0,0,141.13,163Z"/><path d="M138.77,168.18a5.36,5.36,0,0,1-3.36-2,11.29,11.29,0,0,1-9.09-3.2c-1.78-1.75-2.55-3.59-2.53-4.63a9,9,0,0,1-5.3-5.23,4.47,4.47,0,0,1-.09-3.44,9.46,9.46,0,0,1-4.18-6.88c-.29-2.22.13-4.45,1-5.48a8.14,8.14,0,0,1-.47-6.29,8.93,8.93,0,0,1,3.51-5.13,5.52,5.52,0,0,1,0-3.32,9.22,9.22,0,0,1,1.82-3.27c2.14-2.55,5.25-4,7.77-3.61a3.74,3.74,0,0,1,2.25-2.27c3.09-1.32,8.85-.37,14,2.3,1.09.58,2.34,1.31,3.7,2.19l.83.53-1-.23c-4.53-1.11-8.58-1-10.3.17a1.92,1.92,0,0,0-.87,1.37V120l-.17,0c-3-.37-7,.27-9.24,2.56a5.72,5.72,0,0,0-1.58,5l0,.15-.15,0a5.23,5.23,0,0,0-3.81,3.83,6.67,6.67,0,0,0,1.11,6.29l.13.13-.14.11a6.65,6.65,0,0,0-2.4,5.88,6.42,6.42,0,0,0,4.09,5l.17.08-.09.16a3.88,3.88,0,0,0,.09,3.65,7,7,0,0,0,5.2,3.77l.15,0v.15a4,4,0,0,0,1.29,2.89c1.95,2,5.67,3.14,9.95,3.1h.1l.05.08c.78,1.42,4.19,2.92,9.31,1.85l.77-.16-.64.46-.31.21a18.35,18.35,0,0,1-6.49,2.9,13.22,13.22,0,0,1-2.75.3A10.32,10.32,0,0,1,138.77,168.18Zm5.48-3.1a5.28,5.28,0,0,1-3.21-1.94h-.13c-4.27,0-8-1.19-10-3.19a4.42,4.42,0,0,1-1.39-3,7.33,7.33,0,0,1-5.31-3.93,4.33,4.33,0,0,1-.17-3.81A6.7,6.7,0,0,1,120,144a7,7,0,0,1,2.38-6.06,7.08,7.08,0,0,1-1.06-6.49,5.55,5.55,0,0,1,3.9-4,6,6,0,0,1,1.7-5.17c2.31-2.33,6.33-3,9.35-2.67a2.22,2.22,0,0,1,1-1.44c1.68-1.18,5.39-1.34,9.62-.44-1-.65-2-1.2-2.87-1.65-5.06-2.63-10.69-3.58-13.7-2.3a3.47,3.47,0,0,0-2.11,2.2l0,.14-.14,0c-2.44-.42-5.5,1-7.61,3.48-1.76,2.1-2.41,4.5-1.72,6.41l0,.13-.13.07c-1.41.73-2.81,2.73-3.46,5a7.76,7.76,0,0,0,.49,6.14l.07.1-.09.09c-.89.92-1.31,3.11-1,5.31a9.07,9.07,0,0,0,4.16,6.72l.14.08-.09.14a4,4,0,0,0,0,3.31A8.67,8.67,0,0,0,124,158.1l.12,0v.13c-.08,1,.73,2.83,2.43,4.49a11,11,0,0,0,7.73,3.17c.39,0,.79,0,1.21-.06h.1l.06.09a4.92,4.92,0,0,0,3.2,1.91c1.57.37,5.74.83,11-2.65A13.75,13.75,0,0,1,144.25,165.08Z"/><path d="M135.74,119.65l-7.81-3.6.14-.3c1.29.6,4.51,2.09,8.46,3.9Z"/><path d="M125.22,127.69l-6.77-1.53.08-.32,6.72,1.52A.35.35,0,0,1,125.22,127.69Z"/><path d="M122.5,138l0,0-.07.09c-3.39-.2-6-.4-7-.58l0-.32c1.07.17,3.56.37,6.85.56A1.84,1.84,0,0,0,122.5,138Z"/><path d="M124.16,149a.28.28,0,0,0,0,.09c0,.08,0,.15.07.23a50,50,0,0,1-5.62.48v-.33A50.63,50.63,0,0,0,124.16,149Z"/><path d="M129.41,156.74a1.72,1.72,0,0,0,.38.22,46.65,46.65,0,0,1-5.81,1.46l0-.33A43.67,43.67,0,0,0,129.41,156.74Z"/><path d="M141.23,162.71a.6.6,0,0,0,.16.29,34.16,34.16,0,0,1-5.83,3.18l-.12-.3A34.61,34.61,0,0,0,141.23,162.71Z"/><path class="cls-1" d="M160.07,124.66c-2,2.21-6.33,7.62-5,14.93,1.42,8.13,10.05,10.79,10.05,10.79Z"/><path class="cls-3" d="M165.08,150.38a17.59,17.59,0,0,1-4.43-2.4,13.48,13.48,0,0,1-5.46-8.41c-1.25-7.12,2.82-12.29,4.78-14.78l.1-.13a5.64,5.64,0,0,0-1.51,1.43c-2.07,2.84-4.76,7.49-3.7,13.53a13.81,13.81,0,0,0,5.6,8.63,18.43,18.43,0,0,0,2,1.27A6.5,6.5,0,0,0,165.08,150.38Z"/></svg>