<svg id="Layer_1" data-name="Layer 1" xmlns="http://www.w3.org/2000/svg" viewBox="0 0 256 390"><defs><style>.cls-1{fill:#ff3b05;}.cls-2{fill:#d95c00;}.cls-3{fill:#eb8500;}.cls-4{fill:#ffd154;}.cls-5{fill:#ffb32b;}.cls-6{fill:#ffe680;}.cls-7{fill:#ff991f;}.cls-8{fill:#e87300;}.cls-9{fill:#fff;}.cls-10{fill:#d40000;}.cls-11{fill:#5889d9;opacity:0.2;}</style></defs><path class="cls-1" d="M112.85,28c-1.49-5.27-1.48-19.32-2.12-25.21,10,18.55,25.51,19.36,39.55-1.91,1.43,20,19.37,28.53,39,11-10.61,19.55-4.78,32.87,23.18,31-18.14,11.87-18.63,29.12,3,36.42-23,10.19-24,20.13-5.63,39.14-23-1.77-33.94,15.14-21.23,35.73-30,5.41-38.8,21.69-10.81,30.55-10.6,9.54-6.92,39.55,23.3,36.69-11.05,12.34-7.1,23.9,12.34,23.8-8.68,10.27-7.23,25.16,9.68,31.3-14,8.18-12.42,20.05.54,29.29-10.22,3.65-18.2,22.47-2.31,35.36-18.28,1.16-23.6,10.64-18.9,27.46-14.18-4.76-24.3,1-22.87,16.83-10.95-6.86-21.89-5.12-27.62,3.71-7.36-5.76-20-.44-37.88-7.75,9.9-8.71,63.35-10.59,68.88-48s-14.34-86.45-51.88-127.3,26.31-71.76,38.38-120.55S115.57,37.59,112.85,28Z"/><path class="cls-2" d="M162.28,207.75c-40.73-54.18,23.05-85.37,23.05-132.56,0-50.18-85.51-79-102.69-7.92C78.75,68.5,74.93,73.68,55,73.68c-7.41,0-12.16-2.24-17.8-2.65-8.39-.62-4.57,27.21,2.25,30.27,12.44,5.6,15.87,1,26.05-.34,10.5-1.36,25.37,13,60.42-2.66,16.37,4.5,2.86,28.85-37.64,48.08S41.74,224.7,98.05,252.76c82.64,41.18,65.73,103.92,29.47,103.92-27.95,0-80.48-39.55-33.15-94.51-11.87,4.09-31.92,15.41-37.24,44.05s24.69,76.37,69,76.37c49.35,0,70.51-22.63,78.28-64.37C213.39,270.1,177.46,227.94,162.28,207.75Z"/><path class="cls-3" d="M162.28,207.75c-40.73-54.18,23.05-85.37,23.05-132.56,0-50.18-85.51-79-102.69-7.92C78.75,68.5,74.93,73.68,55,73.68c-7.41,0-12.16-2.24-17.8-2.65-8.39-.62-1.7,23.86,5.12,26.93,12.44,5.6,14.37.37,24.54-.95,4-.52,8.69,1.33,14.91,3,9.65,2.56,22.9,4.68,42.55-3.12,1.28-.5,28.19-11.59,29.52-12.18,2.47.68-21.4,12.41-20.37,14,5.8,9.09-.39,27.61-45.19,47.66-40.93,18.31-47.07,79.51,9.82,106.38,93.56,44.19,65.73,103.92,29.47,103.92-27.95,0-80.48-39.55-33.15-94.51-11.87,4.09-31.92,15.41-37.24,44.05s25,73.37,69.35,73.37c49.35,0,70.17-19.63,77.94-61.37C213.39,270.1,177.46,227.94,162.28,207.75Z"/><path class="cls-4" d="M98.05,252.76c-57.56-52.1,7.63-105.29-9.82-106.38C47.3,164.69,41.16,225.89,98.05,252.76Z"/><path class="cls-5" d="M73.7,156.61c.21,1.7,5.83,6.61,13.06,3.27-.68,1.16-1.81,4.75-3.24,6.38-.13-3.41-9.44-6.42-14.29-4.78C70.4,160.05,73.7,156.61,73.7,156.61Z"/><path class="cls-5" d="M59.94,176.65c.66,1.62,11.45,5.35,18.94.57-.49,1.28-1.65,4.36-2.38,7-1-3.31-13.18-4.54-18.35-1.93A47.63,47.63,0,0,1,59.94,176.65Z"/><path class="cls-5" d="M57.14,202.71c1,1.35,12.44,1.7,16.65-4.86a25.91,25.91,0,0,0-.21,7.29c-1.88-2.84-12.14-.52-15.27,3.36A38.29,38.29,0,0,1,57.14,202.71Z"/><path class="cls-5" d="M67.17,227.71c1.25,1.07,9.92-.19,9.18-5.83.52,1.21,1.24,4.27,2.73,6.51-2.44-2.26-8,.94-7.92,4.31A33.81,33.81,0,0,1,67.17,227.71Z"/><path class="cls-6" d="M84,149.09a66.34,66.34,0,0,0-5.59,4,6.91,6.91,0,0,0-2.46,2.18,2.13,2.13,0,0,0,.74,2.42,7.57,7.57,0,0,0,6.82,1.73c.86-.21,1.7-.68,1.34-1.68s-1.39-1.83-1.8-2.91a2.89,2.89,0,0,1,.8-2.94A12.11,12.11,0,0,0,85.76,149c.09-.22.17-.46.26-.69a2.48,2.48,0,0,0-.61-.06Z"/><path class="cls-6" d="M69.76,178.5a37.36,37.36,0,0,0-4.61-.51c-1.2-.06-2.88-.06-3.6-1.23-1.25-2,.87-4.82,1.74-6.6a40.89,40.89,0,0,1,2-3.62A9.7,9.7,0,0,1,70,162.45a8.39,8.39,0,0,1,4.1-.3c1,.18,1.85.77.61,1.41s-2.73.77-4,1.51a6.13,6.13,0,0,0-2,2.63,5.2,5.2,0,0,0,1.45,6.82,29.55,29.55,0,0,1,3.19,1.91c1,.85,1,1.67-.35,2-.34.07-.69.11-1,.16Z"/><path class="cls-6" d="M73.91,184.43c-3.64-1.4-8.19-3.18-12.11-1.92-3.72,1.19-3.77,5.65-4,8.9a20.65,20.65,0,0,0,.18,6.08c.18.79.85,3.55,2.16,3.11s1.35-3.73,1.49-4.8c.23-1.78.41-4.15,2.22-5.08,3.23-1.66,8.16.83,9.74-3.61.13-.39.24-.79.35-1.18Z"/><path class="cls-6" d="M69.68,205.84c-2.72.14-6.25.37-8.49,2.13s-.89,5.2,0,7.36c.52,1.23,1.11,2.42,1.72,3.62,0,.42.95,1.94,1.43,1.88.3-2.64-.71-5.52.17-8.08,1-2.76,3.42-2.85,5.68-4.08,1.17-.63,1.87-2,.64-3Z"/><path class="cls-6" d="M75.47,236.25c-.86-1.12-2.08-2.35-2.18-3.84a3.71,3.71,0,0,1,2.53-3.68,1.87,1.87,0,0,1,2.23.79c.6,1.41,1.26,2.79,1.74,4.24.33,1,1.31,4.06.16,4.75-.75.45-1.83-.18-2.43-.62Z"/><path class="cls-7" d="M35.45,83.64c-1-4.26-1.47-9.71-.21-10.65,3.25-2.43,7.06.25,10.53.86a65.9,65.9,0,0,0,12,1,66.37,66.37,0,0,0,12.05-.73c3.47-.63,7.4-1.09,10.59-2.64,3.79-1.83,4.76-5,6.62-8.48,0,2.43.11,4.18,1.63,6.1A7.14,7.14,0,0,0,91,70.94c.75.38,2.51.44,2.15,1.63a59,59,0,0,1-6.07,1.74c-2,.4-4.48.1-6.4.84-1.58.61-2.35,2.48-3.38,3.72A9.68,9.68,0,0,1,72.52,82c-2.28.63-4.25.07-6.47-.41s-4.71-.78-7-1.15a74.54,74.54,0,0,0-13.75-1,8,8,0,0,0-5.82,2.81,6.65,6.65,0,0,0-1.15,3c-.15,1,.19,2.55-1.18,2.79-.19-.2-.34-.35-.54-.54a2,2,0,0,0-.43-.93Z"/><path class="cls-7" d="M132.75,25.92c9.84.49,28.82,3.34,45.39,27.38-3.85-5-10.13-5.18-15.39-8.68-2.64-1.77-4.87-4.1-7.53-5.83S150,37.37,147,38.14a16,16,0,0,1-8.88-.29,28.75,28.75,0,0,0-10.5-1.25,41.94,41.94,0,0,0-11,2.26c-3.21,1.18-13.68-.57-27.73,12.93C101.05,30.18,117.61,25.17,132.75,25.92Z"/><path class="cls-8" d="M75.81,94.69c5,1.85,10,3.61,15.29,4.23a54.71,54.71,0,0,0,17.74-.48c5.66-1.21,10.82-3.61,16.11-5.85S135.75,88,141,85.37a71.55,71.55,0,0,1,16-5.65l1.9-.45c-5.53.08-10.7.36-15.57-2.66s-9.79-5.15-15.7-5-9.38,3.59-13,7.88c-3,3.62-6.1,7.29-10.45,9.33-5,2.33-10.53,2.32-15.86,2.9l-2,.22Z"/><path class="cls-9" d="M65.13,174.81c-.22,1.15-1,2-1.76,1.82s-1.17-1.2-.95-2.35,1-2,1.77-1.82S65.36,173.66,65.13,174.81Z"/><path class="cls-9" d="M78.34,155c-.53.53-1.11.81-1.3.62s.08-.78.61-1.3,1.11-.81,1.3-.62S78.87,154.5,78.34,155Z"/><path class="cls-9" d="M60.77,187.33c-.25,1.25-.83,2.19-1.29,2.1s-.61-1.19-.36-2.44.84-2.2,1.3-2.1S61,186.07,60.77,187.33Z"/><path class="cls-9" d="M59.56,193c0,.6-.25,1.09-.56,1.09s-.56-.49-.56-1.09.25-1.08.56-1.08S59.56,192.42,59.56,193Z"/><path class="cls-9" d="M62.51,211.91c.41,1,.39,1.89,0,2.08s-1.13-.44-1.54-1.4-.39-1.89,0-2.08S62.1,211,62.51,211.91Z"/><path class="cls-9" d="M75,233.3c.32.41.42.87.23,1s-.61-.07-.93-.48-.42-.86-.22-1S74.67,232.89,75,233.3Z"/><path class="cls-9" d="M41.12,74.48c0,.57-1.11,1-2.48,1s-2.48-.45-2.48-1,1.11-1,2.48-1S41.12,73.92,41.12,74.48Z"/><path class="cls-9" d="M112.81,31c.3.56-1,1.81-2.82,2.8s-3.59,1.34-3.89.79,1-1.81,2.82-2.8S112.51,30.47,112.81,31Z"/><path class="cls-9" d="M119.47,28.43c.13.36-.41.88-1.21,1.16s-1.55.23-1.68-.12.42-.88,1.21-1.16S119.34,28.08,119.47,28.43Z"/><path class="cls-9" d="M70.86,283.52c-1.75,2.46-3.54,4.18-4,3.86s.58-2.59,2.33-5,3.54-4.18,4-3.85S72.6,281.07,70.86,283.52Z"/><path class="cls-9" d="M77.32,274.82c-.48.66-1.07,1-1.33.85s-.07-.87.41-1.53,1.07-1,1.33-.84S77.8,274.17,77.32,274.82Z"/><path class="cls-2" d="M130.67,189.51c.68-5.1,12.53-13.64,87.33-34.3,3.52,9.68-15.2,13.89-15.13,15.58s14.76,6.3,15,8-17.42,4.81-17.12,6.66,14.5,7.15,14.13,9.58-14.69,6.53-14.68,8.58,15.29,7.11,12.71,12.31C201.49,215.57,128,209,130.67,189.51Z"/><path class="cls-3" d="M133.5,187.47c.69-5.09,9.7-11.6,84.5-32.26,2.61,7.16-9.67,11.83-16.19,14.46-2.3.92-50.15,12-50.13,12.4,0,.61,48.87-8.89,52.17-7.94,5.81,1.67,13.86,3.58,14,4.67s-10.34,3-17.16,4.61c-3.33.8-49.65,4.25-49.55,4.86s46.86-.84,50.4.48c5.87,2.19,13.55,4.78,13.32,6.29-.26,1.67-9.19,4.07-14.8,6.08-2.58.92-49.86-7.29-49.86-6.65s47.72,10.79,50.6,12c5.31,2.29,12.55,5.34,10.87,8.71C200.27,214.85,130.87,207,133.5,187.47Z"/><path class="cls-9" d="M204.32,160.59c.24.63-2.84,2.13-6.88,3.35s-7.51,1.7-7.75,1.07,2.85-2.13,6.89-3.35S204.08,160,204.32,160.59Z"/><path class="cls-9" d="M215.45,157.46c.13.39-1,1.06-2.56,1.49s-2.92.44-3.06,0,1-1.06,2.56-1.49S215.31,157.06,215.45,157.46Z"/><path class="cls-9" d="M169,171.51c.11.35-.86.9-2.17,1.23s-2.46.33-2.57,0,.86-.9,2.17-1.24S168.9,171.16,169,171.51Z"/><path class="cls-9" d="M150.7,176.92c.1.17-1.92,1.34-4.53,2.6s-4.8,2.15-4.91,2,1.93-1.34,4.53-2.61S150.59,176.75,150.7,176.92Z"/><path class="cls-9" d="M179.94,178.58c.05.28-1.93.77-4.41,1.12s-4.55.4-4.59.13,1.93-.77,4.41-1.12S179.89,178.31,179.94,178.58Z"/><path class="cls-9" d="M193.64,176.41c0,.23-.92.56-2.14.73s-2.24.12-2.28-.1.92-.56,2.14-.73S193.6,176.18,193.64,176.41Z"/><path class="cls-9" d="M171.18,189.28c0,.28-2.06.43-4.57.34s-4.55-.38-4.53-.66,2.06-.42,4.57-.33S171.19,189,171.18,189.28Z"/><path class="cls-9" d="M185.09,189.5c0,.23-1,.38-2.25.34s-2.23-.26-2.22-.49,1-.38,2.25-.34S185.1,189.27,185.09,189.5Z"/><path class="cls-9" d="M179.78,203.38c-.12.3-2.78-.06-5.95-.8s-5.64-1.59-5.52-1.9,2.78.06,5.95.8S179.9,203.07,179.78,203.38Z"/><path class="cls-9" d="M197.4,207.19c-.1.25-1.43.17-3-.2s-2.73-.86-2.64-1.11,1.44-.17,3,.19S197.5,206.94,197.4,207.19Z"/><path class="cls-9" d="M216.52,178.6c-.07.25-.87.27-1.78.05s-1.57-.6-1.49-.86.87-.28,1.78-.06S216.6,178.34,216.52,178.6Z"/><path class="cls-9" d="M213,194.35c-.13.24-.92.14-1.77-.22s-1.43-.85-1.3-1.09.91-.14,1.76.22S213.1,194.11,213,194.35Z"/><path class="cls-9" d="M211.28,213a.69.69,0,0,1-.23,1,.84.84,0,0,1-1-.53.69.69,0,0,1,.23-1A.84.84,0,0,1,211.28,213Z"/><path class="cls-7" d="M126.49,358.06a51,51,0,0,0,18.23-3.64c5.24-2.26,21.66-12.61,17.7-40.7,23.8,68.87-64.24,67.92-83.91,12.07C99.07,357.71,120.06,358.28,126.49,358.06Z"/><path class="cls-8" d="M202.57,308.38c1.68-11.37,3.27-36-40.49-97.15-3.2-4.47-28.79-2.73-32.94-15.14C141.26,250.51,183.15,215.21,202.57,308.38Z"/><path class="cls-8" d="M135.14,98.24c3,4.7,9.29,15-24.11,38.57,12.45-3.52,21.8-9.12,24.29-13,2.62-4,3.11-8.75,4.93-13.12,1.95-4.67,5.63-7.41,8.68-11.22,2.79-3.51,5.22-5.79,7.11-13.77C156,85.72,135.93,96.64,135.14,98.24Z"/><path class="cls-9" d="M137.15,15.52a14.46,14.46,0,0,1-16.43,0,21.84,21.84,0,0,0,8.21,2A21.86,21.86,0,0,0,137.15,15.52Z"/><path class="cls-9" d="M177.8,20.79a14.5,14.5,0,0,1-16.44.05,21.71,21.71,0,0,0,8.23,2A21.91,21.91,0,0,0,177.8,20.79Z"/><path class="cls-9" d="M195.72,99.55a14.47,14.47,0,0,1,6.75-15c.14.07-3.35,2.53-5.21,6.67A21.52,21.52,0,0,0,195.72,99.55Z"/><path class="cls-9" d="M183.48,128.89a16.08,16.08,0,0,1,13.89-10.46,19.8,19.8,0,0,0-13.89,10.46Z"/><path class="cls-9" d="M197.92,222a17.17,17.17,0,0,1-8.56.38,16.83,16.83,0,0,1-7.75-4.13,28.39,28.39,0,0,0,7.95,3.31A31.5,31.5,0,0,0,197.92,222Z"/><path class="cls-9" d="M208.93,245.87a14.26,14.26,0,0,1-6.28-.64,13.87,13.87,0,0,1-5.45-3.46,23.35,23.35,0,0,0,5.64,2.95A27.38,27.38,0,0,0,208.93,245.87Z"/><path class="cls-9" d="M220.32,276.7a16.76,16.76,0,0,1-5.65-2.7,16,16,0,0,1-4.31-4.72,28.54,28.54,0,0,0,4.58,4.37A32.69,32.69,0,0,0,220.32,276.7Z"/><path class="cls-9" d="M203.8,345.6a16.71,16.71,0,0,1,5.28-3.35,15.91,15.91,0,0,1,6.29-1.15,28.33,28.33,0,0,0-6.14,1.57A33.08,33.08,0,0,0,203.8,345.6Z"/><path class="cls-9" d="M205.89,44.72c-.06.25-4.49.47-9-.53s-7.36-3.19-7.3-3.45,3,1.69,7.53,2.69S206,44.46,205.89,44.72Z"/><path class="cls-9" d="M178.66,155.53c.11.29-2.89,1.42-6.07,2.6s-6.38,3.2-6.49,2.91,2.93-2.76,6.11-3.95S178.56,155.25,178.66,155.53Z"/><path class="cls-9" d="M184,154.21c0,.14-.62.39-1.45.56s-1.53.2-1.56.07.63-.39,1.46-.56S184,154.08,184,154.21Z"/><path class="cls-9" d="M220.8,304.68a10.07,10.07,0,0,1-2.08-1.74,9.33,9.33,0,0,1-1.81-2,9.29,9.29,0,0,1,2.08,1.73A9.18,9.18,0,0,1,220.8,304.68Z"/><path class="cls-9" d="M200.12,366.77c-.05.17-.9.09-1.92-.18s-1.79-.62-1.74-.79.9-.09,1.91.17S200.16,366.6,200.12,366.77Z"/><path class="cls-10" d="M142.41,20.4c-2.34,1.91-11.87,3.32-14.1,3.8,5-.26,19.66-.28,30.05,7.51a6.92,6.92,0,0,0-2.75-3.88c-1.32-1-2.73-1.81-4-2.87-2.38-2-3.15-5.2-3.66-8.17a33.6,33.6,0,0,1-.56-5.57S145,18.3,142.41,20.4Z"/><path class="cls-10" d="M160.51,31.34c2.42,1,5.81.72,8.29.08a20.82,20.82,0,0,0,7-3.45c1.15-.84,2.24-1.76,3.43-2.55-1.79,2-3.82,4.31-4.34,7a19.61,19.61,0,0,0,.56,8.78c.42,1.39.9,2.78,1.4,4.15-.48.12-1.43-1-1.79-1.33a19.17,19.17,0,0,1-1.49-1.5c-1-1.14-2.08-2.21-3.15-3.3a26.84,26.84,0,0,0-7-5.48c-1.33-.66-3.14-1.2-4-2.51,0-.09.06,0,.13-.05Z"/><path class="cls-10" d="M126.79,23.53a9.34,9.34,0,0,1-5.37-1.21,11.1,11.1,0,0,1-3.84-3.43,18.8,18.8,0,0,1-1.34-2.25,12.6,12.6,0,0,0-.19,1.86c-.09.71-.15,1.42-.3,2.12a16.74,16.74,0,0,1-.94,3.43c-.21.44-.65,1.18-.55,1.67a12.62,12.62,0,0,0,2.91-.42c1-.16,2-.31,2.93-.42a49.83,49.83,0,0,1,5.47-.48,14.71,14.71,0,0,0,1.47-.1c.27,0,1.14-.45.42-.57Z"/><path class="cls-10" d="M179.47,47.91a8.61,8.61,0,0,0,5.32,2.29,32.48,32.48,0,0,0,7.64.44A11.78,11.78,0,0,0,196,49.46c-1.93,4.09-5,7.84-6.06,12.28-1.09,4.61-.89,11.08,4.31,13,2.56.92,5.45,1,8.14,1.41-2.69,1-5.75,1.81-7.73,4.16s-3.58,4.61-5.61,6.8a14.84,14.84,0,0,1-3.67,2.69c-.42-1.18.59-2.49.9-3.61a15.46,15.46,0,0,0,.57-4c.06-2.76,0-5.53,0-8.29a47,47,0,0,0-2.32-15.11c-.84-2.55-2.75-4.6-3.56-7.13l-.23,0c-.14-.79-1-1.52-1.51-2.11s-.92-1.52-1.63-1.85a2.4,2.4,0,0,0-.29-.93Z"/><path class="cls-10" d="M185.47,96.19c-1.29,2.83-1.83,5.63-.29,8.53a12.69,12.69,0,0,0,6.15,5.88,16.76,16.76,0,0,1,3.94,1.93c-6.62-1.28-15.49-3.7-20.31,2.64-4.7,6.19-5,15.33-1.71,22.16a57.47,57.47,0,0,0,6.33,9.57c-5-1.94-11.76-5.32-16.93-2.27s-6.76,9.7-6.8,15.21c0,3.29.44,7.18-1,10.26-1.12,2.44-3.14,2-4.07-.33-2.29-5.82,1.64-13.27,3.91-18.56s6.12-9.23,8.35-14.35c.26-.59.5-1.18.74-1.78L164,135c.14-1,1.22-1.74,1.28-2.81l.22-.05c.06-1,.9-2.07,1.29-3s.91-2,1.32-3c.84-2,1.27-4.14,2.19-6.14a8.9,8.9,0,0,1,1.88-3.15c.26-1.36,1.93-3.13,2.74-4.29s2.7-3,2.9-4.39l.23,0c.17-1.07,1.33-2.32,1.8-3.32a31.32,31.32,0,0,0,1.18-3.5,29.88,29.88,0,0,1,3.32-6.87,9.87,9.87,0,0,1,2.72-2.93Z"/><path class="cls-10" d="M167.3,211.43c1.65,0,3.35-.09,5,0a30.06,30.06,0,0,0,1.58,2.83c.5.94.91,1.94,1.43,2.85,1,1.74,1.78,3.45,2.79,5.25.53.94,1.62,1.48,2.21,2.33.78.07,1.54.54,2.38.64s1.89.14,2.87.2c1.79.11,3.67.1,5.52.1a12.42,12.42,0,0,0,3-.29c-2.11,1.53-4.85,2.69-6.59,4.66-2,2.22-1.38,5.17-.09,7.58A42.12,42.12,0,0,0,192,244a11.44,11.44,0,0,0,6.07,4.21,34.45,34.45,0,0,0,9.56.64c-2.19,1.13-4.67,1.76-6.55,3.43-1.72,1.52-1.94,4.36-2,6.51,0,1.49,0,3,0,4.47-.64-.46-1-1.76-1.32-2.49-.45-1-.94-2-1.47-3-1-1.88-1.77-3.87-2.76-5.76-1.83-3.53-3.82-6.84-6-10.15-1-1.57-2.18-3-3.14-4.64s-1.7-3.27-2.51-4.94a52.8,52.8,0,0,0-6-9.07c-2.12-2.75-4-5.71-6.29-8.32-.25-.29-.53-.52-.76-.84Z"/><path class="cls-10" d="M201.05,268.21c.29,1.21,1.21,2.17,1.45,3.35l.17,0c1.07,3.29,5.52,5,8.59,5.51a26.12,26.12,0,0,0,3.27.42c-.78,1.17-2.37,1.7-3.41,2.66a9.12,9.12,0,0,0-2.16,3.25c-1.23,3.06-1,6.44-1,9.67a21,21,0,0,1-1.31,5.58c-.22-1.11-.78-11.55-1-13.86-.47-4.08-2.5-8.23-3.79-12.08-.36-1.07-.9-2.05-1.3-3.09s-.49-2.23-.84-3.3Z"/><path class="cls-10" d="M211.62,304.48c1.09.83,3.14.69,4.29,1.06-1.69,1.24-4.13,1-5.64,2.45a11.77,11.77,0,0,0-2.74,5.56c-.95,3.83-3.73,18.3,4,23.1-4.32-.15-7.7,0-10.19,3.93-2.35,3.7-2.92,7.65-3.07,11.93-.08,2.41-.35,4.8-.4,7.21-1.12.13-2.09-.57-3.33-.58a7.63,7.63,0,0,0-3.57.54c-1.92.86-4.23,3.29-6,3.89,7.23-8.21,10.08-14.09,11.48-17.2.89-2,5.93-13.64,6.52-15.88a58.86,58.86,0,0,0,1.22-7.55c.3-2.32,1.37-4.31,1.64-6.58.32-2.63.7-5.15,1-7.74.38-3-.21-5.77-.21-8.81C206.67,299.81,211.53,304.41,211.62,304.48Z"/><path class="cls-10" d="M151,386.17c1.64-1.51,5-4.6,6.19-5.36,2.71-1.73,12.86-2.43,19.36,0,1.55-3.09,1-5.83,2.39-7.23A27.67,27.67,0,0,0,185,364,67.51,67.51,0,0,1,165.89,377c-2.74,1-5.66,1.53-8.47,2.29s-5.48,1.39-8.22,2.06a61,61,0,0,1-8.51,1.23c-2.8.27-7.25.43-9.5.79C133.72,383.77,143.72,383,151,386.17Z"/><path class="cls-9" d="M135.75,358.49c0,.34-1.57.8-3.6,1s-3.71.14-3.75-.19,1.58-.8,3.61-1S135.72,358.15,135.75,358.49Z"/><path class="cls-9" d="M146.14,355.77c.08.24-.59.68-1.49,1s-1.7.34-1.78.11.59-.67,1.5-1S146.06,355.54,146.14,355.77Z"/><path class="cls-2" d="M179.47,64.38c.26,1.57-.13,2.94-.87,3.06s-1.54-1-1.8-2.62.13-2.95.87-3.07S179.21,62.81,179.47,64.38Z"/><path class="cls-2" d="M174.52,89.28c-.53,1.5-1.53,2.52-2.23,2.27s-.85-1.67-.32-3.17,1.53-2.51,2.23-2.27S175.05,87.78,174.52,89.28Z"/><path class="cls-2" d="M169.88,112.61c-.53,1.5-1.53,2.52-2.23,2.27s-.85-1.67-.32-3.17,1.52-2.52,2.23-2.27S170.41,111.11,169.88,112.61Z"/><path class="cls-2" d="M180.89,74.36c.12.8-.07,1.49-.45,1.55s-.78-.53-.91-1.33.06-1.49.44-1.55S180.75,73.56,180.89,74.36Z"/><path class="cls-2" d="M180.86,84.76c-.22.77-.7,1.31-1.07,1.21s-.47-.82-.24-1.6.7-1.32,1.06-1.21S181.09,84,180.86,84.76Z"/><path class="cls-2" d="M163.33,124.49c-.24.78-.71,1.32-1.07,1.21s-.48-.82-.25-1.59.7-1.32,1.07-1.22S163.55,123.72,163.33,124.49Z"/><path class="cls-2" d="M157.4,136.18c-.25.57-.67.94-.93.82s-.28-.68,0-1.24.67-.94.94-.82S157.66,135.61,157.4,136.18Z"/><path class="cls-2" d="M151.64,141.55c-.49,1.08-1.29,1.78-1.8,1.56s-.54-1.29-.06-2.38,1.29-1.79,1.8-1.56S152.12,140.46,151.64,141.55Z"/><path class="cls-2" d="M144.45,174.19c-.08,1.19-.61,2.12-1.16,2.08s-.95-1-.86-2.21.6-2.12,1.16-2.08S144.53,173,144.45,174.19Z"/><path class="cls-2" d="M151.44,148.09c-.29.86-.84,1.45-1.24,1.31s-.5-.93-.22-1.79.84-1.45,1.24-1.32S151.72,147.23,151.44,148.09Z"/><path class="cls-2" d="M147.64,156.71c-.13.9-.57,1.58-1,1.52s-.66-.83-.54-1.72.56-1.58,1-1.52S147.76,155.82,147.64,156.71Z"/><path class="cls-2" d="M138.42,157.53c-.13.89-.57,1.57-1,1.52s-.66-.83-.54-1.73.57-1.58,1-1.52S138.54,156.64,138.42,157.53Z"/><path class="cls-2" d="M146.64,164.4c-.09.66-.42,1.17-.73,1.12s-.48-.61-.39-1.27.41-1.17.73-1.13S146.73,163.74,146.64,164.4Z"/><path class="cls-2" d="M140.46,148.3c-.09.66-.41,1.16-.72,1.12s-.49-.62-.4-1.28.41-1.16.73-1.12S140.55,147.63,140.46,148.3Z"/><path class="cls-2" d="M134,160.81c-.09.66-.42,1.17-.73,1.12s-.48-.61-.39-1.27.41-1.17.73-1.12S134.08,160.15,134,160.81Z"/><path class="cls-2" d="M138,165c-.09.66-.42,1.16-.73,1.12s-.49-.62-.39-1.28.41-1.16.72-1.12S138.1,164.37,138,165Z"/><path class="cls-2" d="M143.07,162.35c-.09.66-.42,1.16-.73,1.12s-.49-.61-.4-1.28.42-1.16.73-1.12S143.16,161.69,143.07,162.35Z"/><path class="cls-2" d="M199.73,316.17c.07,1.19-.33,2.18-.88,2.21s-1.06-.9-1.14-2.08.32-2.18.88-2.22S199.66,315,199.73,316.17Z"/><path class="cls-2" d="M190.87,282.83c.44,1.1.38,2.17-.14,2.38s-1.3-.53-1.74-1.63-.38-2.16.14-2.37S190.42,281.73,190.87,282.83Z"/><path class="cls-2" d="M179.6,267.3c.58,1,.65,2.1.16,2.37s-1.35-.35-1.93-1.39-.65-2.1-.16-2.38S179,266.26,179.6,267.3Z"/><path class="cls-2" d="M180.75,257.63c.52,1,.59,1.94.14,2.19s-1.24-.33-1.77-1.29-.6-1.93-.15-2.18S180.21,256.68,180.75,257.63Z"/><path class="cls-2" d="M171.35,249.13c.72.83,1,1.77.6,2.11s-1.28-.06-2-.89-1-1.77-.6-2.1S170.63,248.31,171.35,249.13Z"/><path class="cls-2" d="M186.45,270.37c.69,1.72.59,3.38-.21,3.7s-2-.81-2.71-2.53-.59-3.37.21-3.7S185.76,268.65,186.45,270.37Z"/><path class="cls-2" d="M184.4,279.6c.31.78.26,1.53-.1,1.67s-.91-.36-1.22-1.14-.27-1.52.09-1.67S184.08,278.83,184.4,279.6Z"/><path class="cls-2" d="M176.05,261.51c.4.73.45,1.48.1,1.67s-1-.25-1.35-1-.45-1.49-.11-1.68S175.64,260.78,176.05,261.51Z"/><path class="cls-2" d="M199.45,323.18c-.29.86-.84,1.45-1.24,1.32s-.5-.94-.22-1.8.84-1.44,1.25-1.31S199.73,322.33,199.45,323.18Z"/><path class="cls-2" d="M197.33,306.13c.15.89-.07,1.67-.49,1.74s-.88-.6-1-1.49.07-1.67.49-1.74S197.18,305.24,197.33,306.13Z"/><path class="cls-2" d="M195.65,331.81c-.13.9-.57,1.57-1,1.52s-.66-.83-.54-1.73.57-1.57,1-1.52S195.77,330.92,195.65,331.81Z"/><path class="cls-2" d="M187.2,340.83c-.24.87-.77,1.48-1.18,1.37s-.54-.91-.3-1.79.77-1.48,1.18-1.37S187.44,340,187.2,340.83Z"/><path class="cls-2" d="M194.65,339.5c-.09.66-.42,1.16-.73,1.12s-.48-.62-.39-1.28.41-1.16.73-1.12S194.74,338.83,194.65,339.5Z"/><path class="cls-2" d="M194.07,323c-.09.66-.42,1.17-.73,1.12s-.49-.61-.4-1.27.42-1.17.73-1.13S194.16,322.36,194.07,323Z"/><path class="cls-2" d="M195.24,293.85c.11.66-.05,1.24-.36,1.29s-.65-.44-.76-1.1,0-1.24.35-1.29S195.12,293.19,195.24,293.85Z"/><path class="cls-2" d="M188.4,351.36c-.34.57-.83.91-1.1.76s-.22-.76.12-1.34.82-.92,1.1-.75S188.73,350.78,188.4,351.36Z"/><path class="cls-2" d="M192.24,345.73c-.15.65-.52,1.12-.82,1s-.43-.65-.28-1.3.51-1.13.82-1.06S192.39,345.08,192.24,345.73Z"/><path class="cls-2" d="M191.08,337.44c-.09.67-.42,1.17-.73,1.12s-.49-.61-.4-1.27.42-1.17.73-1.12S191.17,336.78,191.08,337.44Z"/><path class="cls-2" d="M147.23,170.11c-.09.67-.42,1.17-.73,1.13s-.49-.62-.4-1.28.42-1.16.73-1.12S147.32,169.45,147.23,170.11Z"/><path class="cls-2" d="M170.86,101.84c-.23.78-.71,1.32-1.07,1.21s-.48-.82-.25-1.59.71-1.32,1.07-1.22S171.08,101.07,170.86,101.84Z"/><path class="cls-2" d="M176.25,69.78c.19,1.18-.1,2.2-.65,2.29s-1.16-.79-1.35-2,.1-2.2.65-2.29S176.05,68.61,176.25,69.78Z"/><path class="cls-2" d="M177.64,95.78c-.35,1.14-1.06,1.93-1.59,1.77s-.69-1.22-.34-2.36,1.06-1.93,1.59-1.76S178,94.64,177.64,95.78Z"/><path class="cls-2" d="M173,57.49c.26.95.11,1.82-.33,1.94s-1-.54-1.29-1.49-.12-1.82.33-1.94S172.72,56.54,173,57.49Z"/><path class="cls-11" d="M223.65,305.78c-13-9.24-14.52-21.11-.54-29.29-16.91-6.14-18.36-21-9.68-31.3-19.44.1-23.39-11.46-12.35-23.8-12.54,1.19-20.5-3.3-24.77-9.62a323.44,323.44,0,0,0,36.59,4.16c2.58-5.2-12.69-10.27-12.7-12.31s14.3-6.14,14.67-8.58-13.84-7.72-14.13-9.58,16.57-4.82,17.1-6.55a.23.23,0,0,0,0-.11c-.23-1.71-14.91-6.33-15-8s17.74-5.7,15.34-14.89q-.09-.35-.21-.69c-26.32,7.27-44.49,12.79-57,17.11-1.33-7.33,9.1-14.83,27.62-18.17-12.71-20.59-1.77-37.5,21.23-35.73-18.4-19-17.32-28.95,5.63-39.14-21.62-7.3-21.13-24.55-3-36.42-28,1.91-33.79-11.41-23.18-31-19.64,17.49-37.58,8.94-39-11-14,21.27-29.6,20.46-39.55,1.91.64,5.89.63,19.94,2.12,25.21h0c-13.5,5.37-25,17.72-30.22,39.28C78.75,68.5,74.93,73.68,55,73.68c-7.41,0-12.16-2.24-17.8-2.66a3,3,0,0,0-2.57,1c-4.83,4.92-1.15,26.61,4.82,29.3,12.44,5.6,15.88,1,26.05-.34,10.5-1.36,25.37,13,60.42-2.66,16.37,4.5,2.86,28.85-37.64,48.08-40.93,18.31-47.07,79.51,9.82,106.38,82.64,41.18,65.73,103.92,29.47,103.92-27.95,0-80.48-39.55-33.15-94.51-11.87,4.09-31.92,15.41-37.24,44.05-.17.9-.3,1.81-.4,2.73C54,335,77.79,374.07,114.07,381.39h0c17.83,7.31,30.52,2,37.88,7.75,5.73-8.83,16.67-10.57,27.62-3.71-1.43-15.86,8.69-21.59,22.87-16.83-4.7-16.82.62-26.31,18.9-27.46C205.45,328.25,213.43,309.43,223.65,305.78Z"/></svg>