<svg id="Layer_1" data-name="Layer 1" xmlns="http://www.w3.org/2000/svg" viewBox="0 0 460 490"><defs><style>.cls-1{opacity:0.3;}.cls-2,.cls-8{fill:#c7c2b5;}.cls-14,.cls-15,.cls-2,.cls-3,.cls-4,.cls-7{stroke:#333;stroke-miterlimit:10;}.cls-3,.cls-6{fill:#f4f0df;}.cls-4,.cls-9{fill:#df771f;}.cls-5,.cls-7{fill:#ff912a;}.cls-10{fill:#2c1f21;}.cls-11{fill:#613e40;}.cls-12{fill:#2e1e20;}.cls-13{fill:#fff;}.cls-14,.cls-15{fill:none;}.cls-15{stroke-width:0.99px;}</style></defs><ellipse class="cls-1" cx="228.92" cy="454.26" rx="214.28" ry="33.49"/><path class="cls-2" d="M71.92,452.76c.74-10.68,5.84-23.72,13.83-26.86l1.2-.48-1.29-.15a24.38,24.38,0,0,0-2.68-.16,20.31,20.31,0,0,0-3.68.33C71,427,65,440.3,64.18,451.8c-.29,4.14.85,7.37,3.4,9.6a15.1,15.1,0,0,0,9.72,3.54l.21-.6a11.94,11.94,0,0,1-2-1.41C72.82,460.55,71.62,457.13,71.92,452.76Z"/><path class="cls-2" d="M83.65,458.78c-1.58-4.87,3.63-19.28,6.16-23.42a15.84,15.84,0,0,1,9.46-6.66l.8-.19-.71-.41a20.22,20.22,0,0,0-9.73-2.56,18.75,18.75,0,0,0-3.74.37C78.24,427.44,72.71,441,72,452.74c-.27,4.21.78,7.49,3.13,9.76,3.1,3,7.88,3.63,11.35,3.63l1.16,0,.27.13.34-.55A13.54,13.54,0,0,1,83.65,458.78Z"/><path class="cls-3" d="M75.74,165.82s2,17.2-3.1,43.34S98.6,280,98.6,280l65.08-8.83,11.91-117.84-24.26-18.66-44.1,2.1Z"/><path class="cls-4" d="M156.08,325l0,.24c-.67,4.11-4,25.28-4.65,39.5,0,.31,0,.62-.05.94-.09,2.82-.19,6.09-.29,9.59-.42,16.71-.55,38.92-.34,45,.14,4.26-1.32,7.73-3,11.74A56.19,56.19,0,0,0,144,442.67a48.72,48.72,0,0,0-.8,7.5c-.29,5.81-.55,10.78-6.16,14.07l-.23.13a33.05,33.05,0,0,0-2-8.72c-.2-.52-.39-1-.6-1.55-.28-.68-.58-1.35-.89-2a12.23,12.23,0,0,0-.65-1.26c-.06-.11-.11-.23-.18-.34s-.24-.41-.29-.49c-.41-.76-.83-1.5-1.27-2.23-5.45-9.28-14.6-17.84-25.67-19.33a19.59,19.59,0,0,0-2.3-.14h-.76l-.62,0,.32-.52a4.43,4.43,0,0,0,.53-1.26l0-.18.18,0a24,24,0,0,1,7-1c.78,0,1.53,0,2.23.08a25.38,25.38,0,0,0-3.7-.26,25.78,25.78,0,0,0-5.12.52l-.44.1.05-.46c.24-2.28.55-5.41.82-8.82.14-1.66.26-3.38.35-5.09.2-3,.3-6,.27-8.62,0-.85-.07-1.73-.17-2.65a62.17,62.17,0,0,0-1.35-8.05c-.93-4.24-2.27-9.23-3.88-15.23-1.89-7.08-4.21-15.69-6.75-26.3L90.21,343c-.88-3.95-1.65-7.67-2.34-11.17-.16-.85-.32-1.66-.48-2.5h0c-1.37-7.36-2.37-13.7-3.15-19.19-.36-2.5-.67-4.81-.95-7-.05-.26-.08-.54-.11-.8-.72-5.36-1.29-9.55-2-12.63s-1.94-7.5-3.39-12.66c-1.24-4.42-2.61-9.31-3.87-14.15a169.47,169.47,0,0,1-3.78-17.48c0-.2-.05-.41-.08-.62-1.29-10.08-.15-24.47,3.44-42.79.32-1.68.65-3.27,1-4.77l.65.08c-1.24,28.79,10,53.4,20,71.61l.08.17c2.58,4.73,9.88,17.87,16,26.79l.19.26a53.65,53.65,0,0,0,5.19,6.59c7,7.07,12.69,11.39,26.38,16.79,4.16,1.65,8.5,3.46,12.88,5.38Z"/><path class="cls-5" d="M70.15,245.4A159.94,159.94,0,0,0,73.7,262c.83-1.07-1.06-10.62-1.06-10.62s16.7,10,20.84,14.22C84.6,248.19,74,222.69,75.12,197.3l-.65-.08c-.31,1.5-.64,3.09-1,4.77-3.59,18.32-4.73,32.71-3.44,42.79C70.1,245,70.12,245.2,70.15,245.4Z"/><path class="cls-5" d="M129.22,445a76.4,76.4,0,0,0,.64-19.21c-.73-7.49-2.29-16.2-5.6-23.1-2.44-5.09-6.84-9.65-13.07-8.18a14.79,14.79,0,0,0-7.36,4.54c0,.37.09.75.12,1.11.1.92.15,1.8.17,2.65,0,2.61-.07,5.6-.27,8.62-.09,1.71-.21,3.43-.35,5.09-.27,3.41-.58,6.54-.82,8.82l-.05.46-.1.58,0,.18a4.43,4.43,0,0,1-.53,1.26l-.32.52.62,0H103a19.59,19.59,0,0,1,2.3.14C115.28,429.77,123.67,436.83,129.22,445Z"/><path class="cls-2" d="M133.07,449.29a48.81,48.81,0,0,0-6.14-8.88c-7.25-8.42-15.94-13.06-24.46-13.06-.39,0-.77,0-1.15,0a15.11,15.11,0,0,0-11.76,7.05c-2.57,4.2-7.82,19.18-6.33,23.79,1.81,5.6,5.08,8.46,10.94,9.56a99.81,99.81,0,0,0,16,1.12h0c7,0,16.91-.56,24.42-3.23a21,21,0,0,0,2.88-1.26l.12-.06a33.47,33.47,0,0,0-4.22-14.55A4.63,4.63,0,0,1,133.07,449.29Z"/><path class="cls-6" d="M83.81,425.26a20.39,20.39,0,0,0-2.33-.15,17.32,17.32,0,0,0-3.39.33c-5.87,1.16-10.48,9.31-12.65,18.24a6.21,6.21,0,0,0,5.88,1.3C73.33,436.13,76.9,426.5,83.81,425.26Z"/><path class="cls-6" d="M99.37,427.87a24.08,24.08,0,0,0-9.74-2.33,18.75,18.75,0,0,0-3.74.37c-6,1.2-10.7,9.84-12.8,19.17A14.91,14.91,0,0,0,83.75,448C85.52,438,90.38,427.26,99.37,427.87Z"/><path class="cls-6" d="M129.06,444.69c-.64-.84-2-2.44-2.72-3.26-7-8.13-15.37-12.61-23.6-12.61-.37,0-.73,0-1.1,0a14.55,14.55,0,0,0-11.34,6.81,59.48,59.48,0,0,0-4.78,12.21C90.4,454.19,124.64,456.74,129.06,444.69Z"/><path class="cls-2" d="M223.06,443.94c-1.78-5.93-6-9.33-11.61-9.33-4.92,0-8.14,1.93-9.84,5.91-1.83,4.29-2.27,30.61,0,35.05,1,1.93,4.23,3.51,8.06,3.92a17.5,17.5,0,0,0,2,.11c4.39,0,8.13-1.49,10.26-4.09C226.92,469.38,224.71,449.44,223.06,443.94Z"/><path class="cls-7" d="M371.4,361.09c-1.24-6.06-1.66-8.92-3.73-22.68l-.73-4.91q-.49-3.22-.88-7.6l0-.31c-1.52-17.38-1.21-43.4-.26-60.23.34-6.33,1.35-15.67,2.43-25.63,1.65-15.24,3.52-32.5,3.13-40.87a35.64,35.64,0,0,0-1.93-8.87s0,0,0,0c-.24-.8-.53-1.62-.84-2.45a114.76,114.76,0,0,0-5.68-12.82h0c-.64-1.31-1.34-2.58-2.06-3.88-6.05-11-13.83-21.94-20.89-27.72-.54-.45-1.07-.87-1.61-1.24-.85-.61-1.68-1.19-2.53-1.72a44.11,44.11,0,0,0-16.66-6.7c-1.73-.32-3.52-.57-5.43-.73-2.37-.21-4.88-.31-7.59-.31-1.92,0-3.92,0-5.93.13h0c-1.45.05-2.9.13-4.34.19l-6,.4a136.5,136.5,0,0,0-15.21,2q-3.36.61-6.61,1.32c-3.35.72-6.65,1.5-9.76,2.32l-1.57.4c-4.87,1.28-9.33,2.56-13,3.66l-3.35,1c-1.17.34-2.26.68-3.24,1s-2,.59-2.71.77a16.89,16.89,0,0,1-4.16.47,44,44,0,0,1-12.7-2.35l-.32.54c.78.76,1.56,1.55,2.31,2.3l1.62,1.63c-.56-.51-1.15-1-1.73-1.57-2.51-2.25-5.27-4.63-7.88-6.76-1.78-1.46-3.47-2.79-5-3.9a25.48,25.48,0,0,0-4.65-2.79,35.84,35.84,0,0,0-5.49-1.6c-1.93-.42-4-.8-6.07-1.12-5.17-.82-10.09-1.31-11.63-1.45l-1.42,0,.14,1.82c1,5.1.82,8.87,2.69,14-.52-4.41-1.37-10.41-2.69-16.36-.46-2.13-1-4.27-1.59-6.33-.68-2.34-1.41-4.61-2.2-6.78a135.14,135.14,0,0,0-7.91-17.85l-1.09-1.62c0,1,.24,3.92.17,10.52,0,0-.32.23-.58-.81l-.91-2.86,0,8.25c-.74,7-1,15.5-8,22.53,5.36-8.16,2.16-4.59,2.65-6.25l-2.2,3.65a29.73,29.73,0,0,1-7.7,7.51l-.21.15.1.25A138.36,138.36,0,0,1,154,157.49c.39,1.55.75,3.18,1.09,4.86a111.89,111.89,0,0,1,2.17,23.53c0,2.69-.14,5.48-.37,8.35,0,.18,0,.38-.05.56-.25,2.82-.59,5.72-1.08,8.7a138.23,138.23,0,0,1-6.67,25.72c-7.28,20.23-.19,44.81,10.16,57.64l.67.81s-.23-2.83-.33-4c.35,2.94.72,6.15,1.13,9.47v0c.55,4.53,1.16,9.28,1.79,13.71.87,6,1.76,11.39,2.65,15.14,2.08,9,4.48,21.28,6.35,33.64.59,3.83,1.13,7.66,1.59,11.39.57,4.63,1,9.13,1.32,13.29.06.82.11,1.65.19,2.5.2,2.49.41,5.09.66,7.74,0,.7.11,1.42.18,2.14l0,.26c.32,3.75.67,7.62,1,11.5,0,.73.1,1.46.17,2.2.1,1.51.21,3,.29,4.53v0c.11,1.79.21,3.58.29,5.35.35,8.25.27,16-.79,22l-.07.43.43-.05a7.3,7.3,0,0,1,.94-.05,14.52,14.52,0,0,1,6,1.5l.21.1.17-.17c2-2.13,4.55-3.13,8-3.14,4.24,0,7.21,1.3,8.8,3.81l.3.44.27-.45c1.81-3.18,4.95-4.8,9.3-4.8a11.27,11.27,0,0,1,8.33,3.47l.21.23.23-.19a11.56,11.56,0,0,1,6.66-2c.3,0,.61,0,.91,0l.63.05-.32-.54c-3.92-6.67-4.31-11.17-4.31-20.59,0-.69,0-1.45.05-2.32,0-.65,0-1.37.08-2.12.25-5.13.87-12.36,1.76-20.56.09-.91.2-1.84.31-2.79.69-6.16,1.52-12.78,2.47-19.42,0-.35.09-.71.14-1.07.59-4,1.19-8,1.85-11.84.39-2.35.78-4.78,1.17-7.26.2-1.3.39-2.62.6-4,.61-4.08,1.19-8.27,1.73-12.47v0c.26-1.92.51-3.82.73-5.74.56-4.5,3.23-8.26,3.66-12.6,0-.54-1-2.39-1-2.93,1-10.89,2.23-18.07,2-25.38,0-.68-.3-3.41-.35-4.16-.12-2.53-.55-5.49-.86-8.54-1-9.64-6.31-37.51-6.43-39.92,1.37,8,4.29,25.84,5.71,39.72.21,2.15.52,5.64.7,8.43.05.78.08,1.55.1,2.27.09,3.14.05,6.93-.15,11.25l0,.28.28,0a8.25,8.25,0,0,0,1.75.17c3,0,6.06-1.31,8.33-2.25,8.82-3.7,16.3-6.17,24.1-6.17h.34a27.46,27.46,0,0,1,18.31,6.8l.49-.42c-.21-.31-.42-.64-.62-.93a91.42,91.42,0,0,1,6.79,8.94c7.35,11.54,17,27.55,21,38.27,9.17,24.42,8.24,52.21,6.46,63.48a59.84,59.84,0,0,1-9.21,23l-.23.36.41.12a10.91,10.91,0,0,1,3,1.45l.18.11.2-.11a10.79,10.79,0,0,1,5.43-2.06l1,0c6.5,0,9.5,3.18,10.48,4.55l.13.16.2,0a19.6,19.6,0,0,1,3-.23,12.15,12.15,0,0,1,11,5.07c.21.23.39.49.58.74l.13.19.64.9c.29.46.57.9.83,1.34h0a1,1,0,0,1,.15.23,1.76,1.76,0,0,1,.14.23,23.49,23.49,0,0,1,2.83,7.11s.08.42.22,1.11a.1.1,0,0,0,0,.06c0,.13.05.28.08.43a14.84,14.84,0,0,1,.31,1.56c.08.48.18,1,.26,1.5.25,1.37.47,2.81.56,3.92l.08,1,.52-.89c1.91-3.28,2.15-7.88,2.51-14.32.16-3.16.36-6.73.78-10.78,1.42-13.58,3.72-23.82,6.4-35.73.48-2.18,1-4.41,1.51-6.76C372.09,372.47,372.76,367.76,371.4,361.09Z"/><path class="cls-8" d="M91.43,179.56c13,5.33,28.63,3.26,40.46-4.06,8.27-5.12,15.58-13.16,21.09-21.83a153,153,0,0,0-5.1-14.79l-.15-.37-.34.22a31.08,31.08,0,0,1-10.51,4.3c.44-.24,4.84-2.28,5.35-2.58l-.56-.72c-4.9,1.69-14.53,4.82-21.46,5.57-9.37,1-18.94,6.39-23.71,10.58-2.59,4.38-5.6,10.37-12.08,12.47a28.75,28.75,0,0,1-8.36,1.34h-.31C80.62,173.57,85.66,177.19,91.43,179.56Z"/><path class="cls-8" d="M160.26,291.59c0-1.34-.25-2.9-.3-3.51V288l-.07-.08c-4.7-5.49-8.68-13.24-11.16-21.89-18,12.21-44.75,13.65-55.24-.45.56,1.07,1.13,2.13,1.69,3.17.14.25,13,27.41,19.14,35.32,11.68,15,52.44,25.11,52.44,25.11S161.11,300.94,160.26,291.59Z"/><path class="cls-9" d="M370.7,361.09c-1.24-6.06-1.66-8.92-3.73-22.68l-.74-4.91c-.32-2.15-.62-4.68-.88-7.6v-.31c-.35-4-.6-8.38-.77-13a46.49,46.49,0,0,1-5.52,9.87c-8.49,11.35-19.49,6.55-28.33-2-16.44-15.91-25.24-47.35-52.48-45.2-7,.55-27,4.61-38.36.52a201.29,201.29,0,0,0-8.54-37.62s-.06,0-.06,0c1.61,12,3.35,24,5.21,36l-.33-.21c.21,2.16.47,5.25.64,7.78,0,.78.08,1.55.09,2.27.1,3.14.05,6.93-.14,11.25l0,.28.28,0a8.22,8.22,0,0,0,1.74.17c3,0,6.07-1.31,8.33-2.25,8.83-3.7,16.31-6.17,24.1-6.17h.35a27.46,27.46,0,0,1,18.31,6.8l.49-.42-.62-.93a89.81,89.81,0,0,1,6.78,8.94c7.36,11.54,17,27.55,21,38.27,5.12,13.64,7.09,28.33,7.52,40.61,1.61-5,4.1-9.58,8.74-11.81,6.28-3,11.51.65,14.41,6.27,9,17.53,5.26,40.36,1.17,60.54l.18.23c.21.23.39.49.59.74a1.07,1.07,0,0,0,.13.19c.21.31.42.61.64.9.29.46.57.9.83,1.34h0a1.5,1.5,0,0,1,.15.23l.14.23a23.45,23.45,0,0,1,2.82,7.11s.08.42.23,1.11a.1.1,0,0,0,0,.06,4,4,0,0,0,.08.43,14.84,14.84,0,0,1,.31,1.56c.08.48.18,1,.26,1.5.24,1.37.47,2.81.55,3.92l.09,1,.52-.89c1.91-3.28,2.15-7.88,2.51-14.32.16-3.16.36-6.73.78-10.78,1.42-13.58,3.72-23.82,6.39-35.73.49-2.18,1-4.41,1.52-6.76C371.39,372.47,372.06,367.76,370.7,361.09Z"/><path class="cls-9" d="M237.55,280.29c0-.69-.05-1.42-.1-2.17-.11-2.5-.53-10.86-.53-10.86S223.33,307.93,201,289.94c-8.36-6.75-30-43.17-37.67-40-6.74,2.8-6.74,8.66-14,12.27a60.89,60.89,0,0,0,10.4,20.95l.67.82s.72,4.77.8,5.43v0c.56,4.53,1.16,9.27,1.8,13.71.86,6,1.76,11.38,2.64,15.13,2.09,9,4.48,21.28,6.36,33.64.58,3.83,1.12,7.66,1.58,11.4.57,4.63,1,9.13,1.32,13.29.06.81.11,1.64.2,2.49.19,2.5,2,26.68,2,27,1.44-18.55,18.43-21.88,29.36-16.8,13.2,6.12,8.05,31.19,17.95,44.88a12.66,12.66,0,0,1,2.26-.21,6.75,6.75,0,0,1,.91.05l.64,0-.33-.54c-3.91-6.67-4.3-11.17-4.3-20.6,0-.68,0-1.45,0-2.31,0-.65.05-1.37.09-2.12.24-5.14.86-12.36,1.76-20.56.08-.92.19-1.85.31-2.79.68-6.17,1.51-12.79,2.46-19.42l.15-1.08c.58-4,1.19-8,1.84-11.84.39-2.34.78-4.77,1.17-7.25.2-1.31.39-2.63.61-4,.6-4.07,1.19-8.26,1.72-12.47v0c.27-1.92.51-3.81.74-5.74.55-4.5,1-9,1.47-13.3,0-.54.09-1.08.16-1.62A247,247,0,0,0,237.55,280.29Z"/><path class="cls-7" d="M447.39,356.15a6.61,6.61,0,0,0-5.23-2,12,12,0,0,0-7.32,2.52,63.72,63.72,0,0,1-12.71,8,19.22,19.22,0,0,1-8.47,2.32c-4.61,0-9-2.48-14.77-8.3-8.78-8.88-11.26-24.09-15.37-49.28l-.39-2.39c-3.09-18.9-3.41-37.5-3.69-53.91-.12-6.91-.23-13.43-.54-19.25a120,120,0,0,0-6.31-31.57l-.63.11c-.11,9-1.66,23.4-3.18,37.43-1.07,9.9-2.09,19.25-2.44,25.56-.93,16.86-1.25,42.9.27,60.24,4.65,38.51,22.45,55.63,32.24,59.67a43.57,43.57,0,0,0,16.1,3.09h0a37.38,37.38,0,0,0,26.59-10.79C451.2,368.37,450.73,360.28,447.39,356.15Z"/><path class="cls-9" d="M446,355.08c-6.78,9.57-15.8,18.11-27,20.58-15.66,3.45-32.6-8.62-38.23-22.86-3.56-9-7.88-33.16-8.25-68.66-.12-12.59,0-25.2,0-37.79.05-6.92.32-24.37-.9-39.4-.6,6.51-2.21,25.81-3,32.88-1.07,9.9-2.09,19.25-2.44,25.56-.93,16.86-1.25,42.9.27,60.24,4.65,38.51,22.45,55.63,32.24,59.67a43.57,43.57,0,0,0,16.1,3.09h0a37.38,37.38,0,0,0,26.59-10.79c9.66-9.23,9.19-17.32,5.85-21.45A4.54,4.54,0,0,0,446,355.08Z"/><path class="cls-10" d="M377.77,223.35c-.38-2.46-.81-4.83-1.29-7a48.08,48.08,0,0,0-5.48,1.8c-.23,2.52-.49,5.17-.76,7.85C372.73,225,375.25,224.17,377.77,223.35Z"/><path class="cls-10" d="M380.22,260.94c0-1.48-.38-4.61-.41-6.07a86.65,86.65,0,0,0-13,1.79c-.17,1.93-.3,5.1-.4,6.72C370.44,261.94,375.67,261.42,380.22,260.94Z"/><path class="cls-10" d="M381.59,292.63c-.11-1.7-.19-3.7-.29-5.39-5.3.35-10.89.84-15.74,3.8,0,1.37,0,4.5,0,5.87A29.15,29.15,0,0,1,381.59,292.63Z"/><path class="cls-10" d="M366.83,327.21c.45,3.47,1,6.75,1.67,9.86a58,58,0,0,1,18.15-9.33c-.46-2.45-1.11-6.13-1.57-8.86C384.84,318.9,372.39,324.17,366.83,327.21Z"/><path class="cls-2" d="M232.31,437.87a11.24,11.24,0,0,0-6.14-1.66,13.44,13.44,0,0,0-7.18,1.92l-.29.22.23.26a15.17,15.17,0,0,1,2.87,5.16c1.44,4.39,4.17,22.46-.27,30.47l-.11.19.15.17c1,1.15,3.18,2,5.58,2.2.27,0,.6,0,1,0h0a13.73,13.73,0,0,0,10.2-4.5c2.36-2.56,3.15-8.06,2.17-15.09C239.3,448.59,235.71,440.09,232.31,437.87Z"/><path class="cls-2" d="M202.14,440.23l.08-.17-.11-.16c-2.09-2.92-6.37-4.25-9.58-4.25-6,0-10.39,2.34-13.39,13.74-2.91,11.08-2.92,20.51,0,25.21,1.34,2.18,4.75,3.81,8.68,4.16.5.05,1,.07,1.5.07A17.4,17.4,0,0,0,201.36,474l.13-.13,0-.17C199.82,466,200.24,444.48,202.14,440.23Z"/><path class="cls-2" d="M296.55,296.27l-.2-.29c-4.44-6.65-13-10.82-22.26-10.9h-.31c-8.21,0-16.06,2.62-25.31,6.56-2.54,1.08-5.71,2.43-8.82,2.43a9.66,9.66,0,0,1-1.72-.15l-.39-.07,0,.39c-.38,8.05-1.18,17.54-2.38,28.23l-.06.53.51-.17c19.55-6.54,41.72-14,60.67-26.37Z"/><path class="cls-2" d="M265.2,438.53l.06-.39c2.23-13.95,7.37-17.54,11.3-18.1.71-.09,1.39-.12,1.91-.14v-.32h0l0-.36a48.23,48.23,0,0,0-10.68-2.81,9,9,0,0,0-1.36-.1,7.93,7.93,0,0,0-4.71,1.53c-4.65,3.33-8.08,13.48-8.67,19.22-.44,4.22.79,7.22,4,9.71,1.7,1.33,4.53,2.09,7.76,2.09a24.35,24.35,0,0,0,4.64-.47l.81-.15-.66-.42A8.85,8.85,0,0,1,265.2,438.53Z"/><path class="cls-4" d="M319.13,337.55c-4.5-11.72-15.33-30.25-22.58-41.14l-.44-.79-10.48,6.88c-10.91,5.86-14.5,7.94-30.51,13.68l-.32.12.12.31c.69,1.84,7.17,15,17.54,27.92q1.62,2,3.21,4l.14.18c7.11,8.71,13.25,16.23,14.34,23.23,1.26,8.15-1.69,26.73-4.81,34.65-2,5-3.54,8.2-5,10.23l-.58.74a6.2,6.2,0,0,1-2.72,2l-.92.31.91.33a16.67,16.67,0,0,1,5.17,3.11h0a30,30,0,0,1,2.77,2.68c3.16,3.84,6.24,8.43,7.7,13.15,0,0,.37-.8.37-.8a17.08,17.08,0,0,1,11.91-9.61,11.08,11.08,0,0,1,6.44-2.75l.95,0a16.83,16.83,0,0,1,3.4.33l.23.05.13-.19a60,60,0,0,0,9.81-23.72C327.74,390.87,328.72,362.49,319.13,337.55Z"/><path class="cls-2" d="M282.48,421.7l-.62-.46a10.62,10.62,0,0,0-7.69-3,11.24,11.24,0,0,0-2.43.27c-5.65,1.24-8.08,11.19-9.12,19.32-.88,6.89,4.41,10.45,7.33,11.36a29,29,0,0,0,7.53.67h0c4.53,0,9.58-.35,12.19-.57l.28,0,.05-.56c0-.43.08-.87.14-1.35a41.17,41.17,0,0,1,2.33-8.82,28.11,28.11,0,0,0-1.18-3.26A38.86,38.86,0,0,0,282.48,421.7Z"/><path class="cls-2" d="M179.44,449.24c1.19-4.44,2.64-7.67,4.42-9.88l.28-.34-.42-.18a16.34,16.34,0,0,0-6.21-1.42,9.8,9.8,0,0,0-1.83.17c-4.17.8-10.05,3.33-12.82,16-2.69,12.33-1.51,16.68,1.09,19.43,1.7,1.79,5.79,2.43,8.78,2.43h0a13.55,13.55,0,0,0,6-1.13l.29-.15-.13-.28C176.42,468.7,176.61,459.72,179.44,449.24Z"/><path class="cls-6" d="M223.44,461.73c-.13-6.43-.9-13.23-1.73-16-1.78-5.93-5.4-9-11-9-4.93,0-6.64,1.52-8.33,5.49-1,2.29-1.78,11.29-1.35,19.39C210.56,467.08,216.14,466.22,223.44,461.73Z"/><path class="cls-6" d="M240.5,457.83c-1.2-8.65-4.79-17.15-8.19-19.36a11.16,11.16,0,0,0-6.14-1.67,13.88,13.88,0,0,0-6.83,1.7c5.64,4.79,6.63,15.3,6.39,22.41,4.56,1.94,9.48,2.09,15-.86C240.68,459.32,240.61,458.59,240.5,457.83Z"/><path class="cls-6" d="M201.73,439.68c-2.23-2.43-6-3.57-9-3.57-6,0-10.39,2.34-13.39,13.74A69.22,69.22,0,0,0,177.44,460c7.29,3.73,14.59,4,21.88.6C199.06,456.86,198.77,445.34,201.73,439.68Z"/><path class="cls-6" d="M183.64,439.23a16.12,16.12,0,0,0-6-1.36,9.72,9.72,0,0,0-1.83.17c-4.18.81-10.05,3.34-12.82,16-.5,2.28-.86,4.29-1.11,6.07,4.16,2.34,8.81,2.92,14.28.56C176.9,452.2,178.86,443.75,183.64,439.23Z"/><path class="cls-2" d="M253.12,437c.75-6.58,4.69-15.93,9.39-19.35l.63-.46-.87-.1a13.36,13.36,0,0,0-1.36-.07,10.88,10.88,0,0,0-7.68,3c-5.06,4.88-9,13.63-6.84,20.91a7.65,7.65,0,0,0,4.08,4.94,10.46,10.46,0,0,0,4.48.93c.48,0,.9,0,1.23-.06l.79-.07-.51-.46C253.71,443.79,252.68,440.94,253.12,437Z"/><path class="cls-10" d="M196.34,131.53v0c-1.86,15.19-5.75,30-14.48,42.26-3.68,5.15-18.15,20-26.09,29.66l-.16.2a50.94,50.94,0,0,0-4.47,6.13c-7.58,13.62-14,22.34-19,42.28-.15-14.22,5.18-28.76,12-40.55a97.6,97.6,0,0,1,11.45-16.1c-10.05,4.41-28.86,21.48-29.69,22.34A102.87,102.87,0,0,1,146.53,194a111,111,0,0,1,10.66-8,.27.27,0,0,1,.08-.07,105.39,105.39,0,0,0,13.63-10.55c11.06-10.65,15.69-28.63,19.36-45,2.05.32,4.14.7,6.07,1.12C196.33,131.52,196.34,131.52,196.34,131.53Z"/><path class="cls-10" d="M207.25,230.92c-1.19,14.41-6.23,26.86-21.33,41.78C176.46,282,166.86,291,162.7,306.82c-.63-4.43-1.24-9.18-1.79-13.71v0A58.78,58.78,0,0,1,176,272.16C189.88,260.4,201.45,249.85,207.25,230.92Z"/><path class="cls-10" d="M112,296.34l-.62-.21C97.92,291.74,87.06,284,76,266.27c-.71-1.12-1.41-2.27-2.11-3.39a169.47,169.47,0,0,1-3.78-17.48c0-.2-.05-.41-.08-.62a56,56,0,0,1,8.67,12C87,272.6,94.61,286,111.21,295.87,111.47,296,111.75,296.18,112,296.34Z"/><path class="cls-10" d="M237.68,281.68a3.38,3.38,0,0,0-.57.12c-36.82,3.84-65.79,29.13-66.54,29.73.64-.86,21-35.88,65.87-38.17l.54-.11C237.3,276.3,237.55,279.17,237.68,281.68Z"/><path class="cls-10" d="M217.84,313.8c-4.6,2.46-8.71,5.95-12.91,9.3,6.54-1.82,13.12-2.86,19.31-2.35a25.33,25.33,0,0,1,10.18,3.17c-.23,2.18-.48,4.33-.75,6.51a23.91,23.91,0,0,0-11.74-4c-9.06-.47-35.6,11.72-52.44,1.19,15.8,1.32,26.06-5,40.07-13.52,8.74-5.33,17.37-6.84,26.53-7.11-.06.61-.11,1.22-.16,1.83C229.77,309.54,223.67,310.68,217.84,313.8Z"/><path class="cls-10" d="M175.91,360.47c22.67-5.53,42.63,2.69,52.21,7.88l-.15,1.07c-10.46-3.88-32.69-10-54.68-2.43-.46-3.73-1-7.56-1.59-11.39,18.32-11.61,39.53-15.82,60-10.31-.21,1.34-.4,2.66-.6,4C211.93,346.91,192.9,350.23,175.91,360.47Z"/><path class="cls-10" d="M220.61,147.4a4.72,4.72,0,0,1-1.1-.93l0,0a.3.3,0,0,0-.11.06c-4.36,2-12.05,7.34-14.52,20,.09-1.18-2.18-15,6.64-26.74l-5-3.9c-9.38,17.36-9.09,39.7-8.25,50.35,1,12.72-1.1,37.5-17.19,57.74,33.27-27.62,24.1-66.27,30.54-81.51a29.2,29.2,0,0,1,11.17-13A15.19,15.19,0,0,0,220.61,147.4Z"/><path class="cls-10" d="M240.71,246.76c-5.43-30.14,6.81-42.23,7-62.6.21-26.54-10-39.95-10-39.95l3.21-1,3.31-1s10.95,13.68,9.63,39.37C252.41,209.74,239.3,218.79,240.71,246.76Z"/><path class="cls-10" d="M254.73,139.48c3.89,12.16,20.42,37.72,21.15,56.36.53,13.42-7.33,30.86-15.6,49.87,11.93-18.3,22.13-36.06,23-51.54.84-15.72-10.65-33.53-8.62-59.08q-3.36.61-6.61,1.32c.66,11.4,2.41,26.27,7.54,39.17-5.57-11-13.11-26.39-17.3-36.85Z"/><path class="cls-10" d="M311.38,151.74c-4,13.61-2.64,27.64-1.52,41.81,1.21,15,8.62,37.89-6.59,54.95-7.65,8.56-14.69,13.28-22.09,28.26,3.32-23,17-24.64,24.32-47,4.86-14.87-8.39-50.43-9.92-60.25a112.59,112.59,0,0,1,.24-36.74c1.44-.06,2.89-.14,4.34-.19-1.28,16.13.23,32.27,3.31,49.21.08.49.15,1,.23,1.45-.18-2.69-.31-5.36-.37-8-.31-15.73,3.93-29.5,10.37-42.49,1.91.16,3.7.41,5.43.73A97.9,97.9,0,0,0,311.38,151.74Z"/><path class="cls-10" d="M348.74,156.69c-17.28,22.69-5.57,69.52-16.68,95.13-8.53,19.64-13.5,32.28-43.68,32.16,29.68-4.9,41-27,41.68-55.9C330.53,208.21,326.15,178.09,348.74,156.69Z"/><path class="cls-10" d="M368.69,187.14l-.12.39c-1.84,5.4-4.18,10.65-6.53,15.9a168.87,168.87,0,0,0,.85-28.72h0l-2.06-3.88c.41,25.09-7.23,65.26-23.22,87.43C364.41,234.14,367.49,202,369.41,190c0,0,0,0,0,0,.06-.36.12-.7.18-1A4.77,4.77,0,0,1,368.69,187.14Z"/><path class="cls-10" d="M296.55,301.49a7.49,7.49,0,0,1,.43.85l.53.85c.43.72,1,1.38,1.41,2.11a66,66,0,0,0,26.57-7.17c-4.94,5-13.11,13.3-19.78,18.08a22.61,22.61,0,0,1,1.4,2.67c9.38-5.12,42.94-24,55.31-71.15C345,288.63,314.31,298.91,296.55,301.49Z"/><path class="cls-10" d="M369,342.81a79.4,79.4,0,0,1-46.89,10c.54,3.05,1.24,5.92,1.51,9.09,9.52-.43,29-2.53,45.4-16.23A20.86,20.86,0,0,1,369,342.81Z"/><path class="cls-10" d="M325.22,396.15c-.07,1.17-.35,3.84-.57,5,18.34,7.85,40.82-3.07,40.82-3.07S341.32,403.79,325.22,396.15Z"/><path class="cls-10" d="M140.77,323.78c-1.34-.86-23-14.88-35.56-15.67-6.77-.42-14.27-.39-21,2-.36-2.5-.67-4.81-.95-7,8.71-3.89,14.61-3.81,25.2-1.32C120.18,304.57,139.58,322.64,140.77,323.78Z"/><path class="cls-10" d="M92,350.56c14.84-4.45,57.41-6.62,57.41-6.62s-33.59-23.09-62-14.66h0c.16.84.32,1.65.48,2.5,15.51-1.47,32.19,5.17,32.19,5.17s-20.25,2.82-29.85,6Z"/><path class="cls-10" d="M151.35,365.67c-.09,2.82-.19,6.09-.29,9.59-21.46-8.49-50.35-1.74-51.48-1.48C100.53,373.3,128.49,359.35,151.35,365.67Z"/><path class="cls-10" d="M238.38,294.64c12.05-11.28,17-44.16,11.8-68.42C251.1,245.55,243.06,285.46,238.38,294.64Z"/><path class="cls-10" d="M320.88,347.63c-.1-.63-.27-1.23-.38-1.86a3.48,3.48,0,0,0-.24-.52c-9.28,5.8-24.2,13.38-38.21,13,.63.95,1.14,2,1.76,2.94.83,1.26,1.73,2.46,2.5,3.75,14.71-.57,27-9.38,34.62-16.61C320.91,348.09,320.9,347.86,320.88,347.63Z"/><path class="cls-10" d="M298.92,305.3a183.06,183.06,0,0,1-33.09,7.46,30.56,30.56,0,0,1-9.14,3.15c.67,2.39,1.5,4.77,2.36,7.13,21.87,5.67,43.32-5.08,43.32-5.08s-27.37,5.91-38.64,0C280.35,316.59,298.92,305.3,298.92,305.3Z"/><path class="cls-10" d="M223.44,412.19c0,.75-.06,1.47-.08,2.12-13.17-2.62-31.58-4.15-46,2.21-.08-1.77-.18-3.56-.29-5.35v0c11.79-5.62,24.93-4.48,37.78-.85-12.28-7.38-25.43-7.16-38.07-3.68-.07-.74-.12-1.47-.17-2.2C192.25,398.42,208.44,399.05,223.44,412.19Z"/><path class="cls-10" d="M143.4,421.54s-22.75-6.79-39.9-5c.14-1.66.26-3.38.35-5.09C126,409.57,143.4,421.54,143.4,421.54Z"/><path class="cls-10" d="M293.34,221.8c-25.94,19.85-16.21,42.29-33.12,66C279.61,276.76,278,241.3,293.34,221.8Z"/><path class="cls-10" d="M339.93,143.1c-8.56,9.66-12.72,18.11-16.55,42.11-1.73-16.51,1.83-34,12.41-45.07.85.53,1.68,1.11,2.53,1.72C338.86,142.23,339.39,142.65,339.93,143.1Z"/><path class="cls-10" d="M365.81,276.31A144.27,144.27,0,0,0,358.57,290c-8.62,18.5-26.75,26.54-26.75,26.54s17-3.95,28-18.72a51.67,51.67,0,0,0,5.66-10.61A74.08,74.08,0,0,1,365.81,276.31Z"/><path class="cls-10" d="M177.35,128.37c-2.25,9.07-8,21.87-22.25,34,0,0,0,0,0,0a105,105,0,0,1-20.19,13.19,101.71,101.71,0,0,0,19.1-18,.05.05,0,0,0,0,0c17.53-21.64,19-45.12,19-45.12l.6,2.89c.79,2.17,1.52,4.44,2.2,6.78C176.35,124.1,176.89,126.24,177.35,128.37Z"/><path class="cls-10" d="M73.37,202.85c-.5,1.88-1.09,3.72-1.73,5.49.31.41.58.79.8,1.14,7.72,12.29,14.25,20.08,19.4,38.43,0-13.28-5.46-26.57-12.38-37.2A66.14,66.14,0,0,0,73.37,202.85Z"/><path class="cls-10" d="M155.9,232.74c-7.39,12.26-9.59,31.66-8.62,45.89,2.91-15.15,8.12-31.15,16-44.57,6.13-10.4,19.83-30.29,19.83-30.29S163.47,220.2,155.9,232.74Z"/><path class="cls-10" d="M222.74,211.59c-6,13-7.87,32.55-5.34,46.59,1.22-15.39,4.64-31.86,11-46.07,4.95-11,11.87-29.58,2.08-52.27C236.09,181.34,228.88,198.3,222.74,211.59Z"/><path class="cls-10" d="M69.72,233.19a24.41,24.41,0,0,1-.27,3.72A87.07,87.07,0,0,1,81,246.16a201.58,201.58,0,0,1,23.22,29.24c-4.94-12-15.06-29.29-23-37.09A19.69,19.69,0,0,0,69.72,233.19Z"/><path class="cls-10" d="M288.28,395.87c.11,1.82-.56,3.61-.86,5.43,10.5,9.24,26,6.44,34.46,3.77C309.69,407.08,297,404.13,288.28,395.87Z"/><path class="cls-2" d="M328.05,453.17c0-4.75,3.5-20.85,11.63-23.52l.51-.17-.35-.37c-1.44-1.54-4.87-4.12-11.6-4.12l-1.12,0C316.86,425.44,308,440.1,308,451.8c0,3.8,1,6.65,3.1,8.48a14.8,14.8,0,0,0,9.87,3.72h1a12.31,12.31,0,0,0,8.65-3.05l.49-.24-.42-.32C328.83,459,328.05,456.83,328.05,453.17Z"/><path class="cls-2" d="M311.75,460.71c-2.1-1.95-3.17-4.95-3.15-8.91,0-11,5.86-20.19,11.61-24.42l.42-.3-.45-.26a15.33,15.33,0,0,0-7.67-1.83l-1,0c-9.27.42-17.25,15.08-17.29,26.78,0,3.91,1,6.82,3,8.64a13.23,13.23,0,0,0,8.93,3h1.1a36.61,36.61,0,0,0,6.38-1l-1.1-1.13A8.7,8.7,0,0,1,311.75,460.71Z"/><path class="cls-2" d="M357.05,445.72a27.74,27.74,0,0,0-1.43-4c-.37-.87-.86-2.07-1.49-3.49a19.65,19.65,0,0,0-5.63-6.69c-1.7-1.21-4.53-1.9-7.76-1.9a23.58,23.58,0,0,0-3.77.31c-7,1.16-10.79,17-10.79,23.26s1.66,7.48,7.36,9.12a21.08,21.08,0,0,0,5.74.72,32.28,32.28,0,0,0,16.25-4.49,10.39,10.39,0,0,0,2.88-2.51l.07-.1v-.12A46.92,46.92,0,0,0,357.05,445.72Z"/><path class="cls-2" d="M293.92,451.8c0-8,3.46-17.07,8.55-22.54l-.43-.54c-4.63,2.06-10.54,6.87-12.34,18-.83,5.18-.09,9.17,2.2,11.85a6.08,6.08,0,0,0,3.93,1.86l.88.14-.53-.68C294.67,458,293.91,455.26,293.92,451.8Z"/><path class="cls-6" d="M337.14,428.57c-1.47-1.53-4.43-3.58-9.69-3.58l-1,0c-8.47.4-15.81,13.28-16.68,24.56,3.6,2.29,9.83,2.87,15.74.24C328.35,433.65,334.28,429,337.14,428.57Z"/><path class="cls-6" d="M318.72,427.6A13.24,13.24,0,0,0,312,426l-.92,0c-8,.4-14.91,13.39-15.74,24.67,4.25,1.69,8.3,2.26,11.86.69C309.15,435.39,315.94,428.88,318.72,427.6Z"/><path class="cls-6" d="M352,435c-.54-.51-2.43-2.28-3-2.7-1.7-1.2-4.53-1.89-7.76-1.89a22.48,22.48,0,0,0-3.77.31c-5.69.94-9.26,11.59-10.39,18.89C334.94,454,350.6,452.25,352,435Z"/><path class="cls-6" d="M301.32,429.47l-.09-.13c-4.34,2.06-9.87,6.87-11.55,18.05-.13.89-.2,1.72-.25,2.53a4.12,4.12,0,0,0,3.38,1.11C292.56,444,295.74,434.29,301.32,429.47Z"/><path class="cls-7" d="M172.76,34.86c-.82-5.38-3.28-9.69-6.9-12.14-2.77-1.88-6.85-2.72-11.8-2.43a41,41,0,0,0-16.35,4.54c-1.93,1.08-4.17,2.23-6.65,3.43a25.77,25.77,0,0,1-5.34,1.84l.2-.09-.51-.32a27.39,27.39,0,0,0-11.06-3.81,64.94,64.94,0,0,0-9.55,0l-6,.38a36.36,36.36,0,0,1-6.47,0l-1.49-.24a64.65,64.65,0,0,0-14.38-1.17A27.91,27.91,0,0,0,64.2,28.24c-11,6.14-19.41,16.84-23.46,22.67-1.71,2.47-3,4.68-4.29,6.81A55.77,55.77,0,0,1,24.92,72.39c-.89.81-1.7,1.65-2.4,2.41A16.26,16.26,0,0,0,21,77.21l-.73.15a51.16,51.16,0,0,0-9.85,19.85l.68.18.54-1.27c-.71,4.2-1.42,11.47.57,17.59l.69-.14a16.89,16.89,0,0,1-.2-2.13l0-1.85.63,1.76a120.47,120.47,0,0,0,6.76,15.21l.65-.24-1-2.83,1,1c.47.48,11.58,11.8,14.82,18l.35.66.3-.68a10.06,10.06,0,0,1,1.64-2.58l.16-.18-.13-.19c-1.57-2.43-9.38-14.86-8.51-20.87s7.43-14,8.74-15.6l.06-.07v-.1a5.51,5.51,0,0,0-1-3.85l-.23-.29s3.63-3.1,7.16-3.73l.37-.53a22.05,22.05,0,0,1,5-5.87c.57-.44,1.18-.87,1.87-1.35a24.92,24.92,0,0,0,6.46-5.87l.24-.33s7.31-7.22,4.51-8.43-13.56,2.81-13.56,2.81-4.66-3.9-3.58-8.3c1.13-4.61,6.23-7.2,9.5-7.39.26,0,.76,2.75,1,2.79,1.87.32,3.3-.9,3.89.89h.54c1,3,3,5.26,1.46,11.81s-6.65,8.43-9.87,11.63c-.56.55-1.84,1.3-2.43,1.75a26.7,26.7,0,0,0-6.67,7.74l.32,1.77-.32-.2a31,31,0,0,1,2.41,2.71c2.71,3.58,7.26,9.56,13.64,10.14a26.37,26.37,0,0,0,3.8,0c6.09-.36,13.46-2.32,18.87-3.76a45.53,45.53,0,0,1,6.16-1.43,2.11,2.11,0,0,1,.54,0,2.33,2.33,0,0,1,1.33,1.45l.45,1.08.23-1.14a28.65,28.65,0,0,0,.42-3l0,.31h.33c4.73.12,8.78,2.83,11.35,5.08,0,0,4.44,4.22,6,7.24a14.31,14.31,0,0,1,1.22,3.5c.16,1.44.38,2.88.55,4.29a16.85,16.85,0,0,1-1.46,7.53c-1.76,3.31-8.75,8.86-17.39,12.43a23.08,23.08,0,0,1-7.4,1.73,19.74,19.74,0,0,1-14.06-4.64C66,138.12,59.74,135.53,58.4,135h-.34A45.4,45.4,0,0,0,53,135c-5.48.31-9.92,1.63-13.18,3.91-2.3,1.6-3.65,4.13-4,7.51a22.14,22.14,0,0,0,1.4,9.75l.68-.15-.14-.82a46.74,46.74,0,0,0,2.59,5.45c2,3.59,5.09,7.17,7.44,8.7l.47-.47-1.42-1.49a53.79,53.79,0,0,0,13.29,5.07l.3-.58L58,170.26l1.83.57a39.47,39.47,0,0,0,12.53,1.27,33.24,33.24,0,0,0,9.33-1.85c7.77-2.81,10.7-8.2,13-12.53a34.7,34.7,0,0,1,3.39-5.29c-.43.86-.94,1.88-1.43,2.84l.56.37c4.78-4,12.43-9.06,21.8-10.54,11.34-1.79,17.65-3.81,20.95-5.19a28,28,0,0,0,5.39-3.06,22.88,22.88,0,0,1-3,2.85l.39.54c10.23-5.07,14.36-12.1,15.93-15.94-.11,1.59-.24,3.13-.33,3.52l.68.18c4.51-10.67,3.93-25.09,3.92-25.23l-.08-1.68.68,1.56a11.42,11.42,0,0,1,.54,1.65l.7-.09c-.72-16.55-6.36-26.92-11-32.71-1.61-2-3.71-4.44-5.55-6.53l-.52.3c-.58-1-1.18-2-1.82-3l-.35-.41c-4.68-5.28-9.1-10.27-10.21-12.51-1.67-3.38-1.21-10,5.62-17.56,4.1-4.55,10.29-7.68,15.77-8l.38,0A13.33,13.33,0,0,1,167,27.38,20,20,0,0,1,172.34,38l.7-.06A24.59,24.59,0,0,0,172.76,34.86Z"/><path class="cls-9" d="M38.17,103l.06-.08v-.09a5.46,5.46,0,0,0-1-3.85L37,98.73a13.38,13.38,0,0,1,6.22-3.25l1.3-1c.29-.47,1.28-2.79,1.58-3.22a11.79,11.79,0,0,1-5.7,3.22c-4.35,1.41-6.12,2.89-6.76,3.5-5,4.7-4.53,13.18-4.53,13.18s2.56-6.05,7.76-6.5C37.45,103.91,37.92,103.35,38.17,103Z"/><path class="cls-9" d="M90,95s-.17,7.76-3.12,10.73a1.93,1.93,0,0,1,2.71,1.37l.45,1.08.92-3.85c.06-1.48-.17-3.41-.26-4.9C90.61,98.07,90,95,90,95Z"/><path class="cls-9" d="M124.9,113c2.27.78,5.41,7.35,5.41,7.35s-1.18-9.17-2.65-11.74c-2-3.5-5.42-3.93-11.73-3.81a14.26,14.26,0,0,1-10.2-4.53c1.86,5,4.31,6.26,6.14,7.31,2.18,1.25,3.61,1,2.68,3.86-.68,2.08-3.66,5.17-5.52,6.6a82.9,82.9,0,0,1,1.11,8.28C112.4,123.2,121.35,111.77,124.9,113Z"/><path class="cls-6" d="M96.4,88.74c4.35,1.68,18,.62,26.68-3.78,5.41-2.75,2-7.11-.53-11-3.31-5.1-12.58-7.07-21.2-3.61C90.89,73.68,92.27,87.15,96.4,88.74Z"/><path class="cls-6" d="M148.38,65l-.53.3c4.21,6.37,7.54,18.32,8.89,28.24A48.93,48.93,0,0,0,155,88.85c.51,3.9,0,8.41-.37,12.28a51.78,51.78,0,0,1-.26,12.06s-.51-4.06-.67-5.43c-.76,6-3.47,12.57-9,16.31-.18.12,1.89-2.78,2.4-3.77-3.82,3.08-11.77,8.88-17,6.52a1.5,1.5,0,0,1-.83-1c-1-1.82-.8-4.09-1.2-6.11-.74-3.73-1.78-10-6.21-11.94-5.9,3.33-9.36,9.73-11.76,15.6.05.34.1.69.14,1a17,17,0,0,1-1.46,7.53c-1.76,3.31-8.75,8.86-17.4,12.43a23,23,0,0,1-7.4,1.73,19.73,19.73,0,0,1-14-4.64c-3.84-3.36-10.06-5.95-11.41-6.46h-.33a45.39,45.39,0,0,0-5.09,0c-5.48.31-9.92,1.63-13.19,3.91-2.3,1.6-3.27,4.12-3.63,7.51a21.85,21.85,0,0,0,1,9.75L38,156l-.14-.81a47.87,47.87,0,0,0,2.79,5.32c2,3.59,4.93,7.05,7.28,8.58l.43-.22L46.9,167.4A53.17,53.17,0,0,0,60,172.17l.23-.46-2.13-1.46,1.84.57a46.8,46.8,0,0,0,12.75,1,31,31,0,0,0,9-1.86c7.78-2.81,10.8-7.94,13.15-12.27a34.7,34.7,0,0,1,3.39-5.29l-1.43,2.83.56.38c4.77-4,12.43-9.06,21.79-10.54,11.35-1.79,17.66-3.81,20.95-5.19a28.07,28.07,0,0,0,5.4-3.06,23,23,0,0,1-3.05,2.85l.4.54c10.22-5.07,14.35-12.1,15.92-15.94-.11,1.59-.24,3.13-.32,3.52l.68.18c4.51-10.68,3.92-25.09,3.91-25.24l-.07-1.67.67,1.56a11.42,11.42,0,0,1,.54,1.65l.7-.09c-.71-16.55-6.35-26.92-11-32.71C152.32,69.47,150.22,67.05,148.38,65Z"/><path class="cls-8" d="M159.69,81.4c2.31,5.62,3.15,14.16,3.46,15.15a27.27,27.27,0,0,0-2.06-4.71c1.34,7,1.12,16.07-.06,25.77,0,0-.78-4.14-1.08-7.2-.37,6.18.45,14.9-8.95,22.24,1.14-1.43,3.58-4.79,4.53-6.32-12.43,12.76-38.88,10.21-49.3,11.69a13.79,13.79,0,0,0,4.61-5.2,10.92,10.92,0,0,0,.76-3.66,22.27,22.27,0,0,1,7.18-14.46c3.58-3,5.63-2.48,7.94-.48-.89-2.71-2.31-5.31-4.89-6.42-5.9,3.33-9.36,9.73-11.76,15.6.05.34,0,2.95,0,4-.09,2.37-1.61,5.83-6.15,9.73a52.31,52.31,0,0,1-8,4.95c-6.77,3.69-11.9,4.56-18.84,3.07,2.42,1.92,8,2.48,13.33,1.55,2.26,3.87-3.39,10.35-7.55,13.13a21.13,21.13,0,0,0,4.86-2.52c-9,9-25.77,11.18-37.7,4.2a14.83,14.83,0,0,0,3.67,3.65s-7.88-3.32-10.79-8.09a14.68,14.68,0,0,0,2,4.18A26.58,26.58,0,0,1,36.5,144.7c-.11.51-.26,1.42-.31,2a20.87,20.87,0,0,0,1.08,9.51L38,156l-.14-.81a47.87,47.87,0,0,0,2.79,5.32c2,3.59,4.93,7.05,7.28,8.58l.43-.22L46.9,167.4A53.17,53.17,0,0,0,60,172.17l.23-.46-2.13-1.46,1.84.57a46.8,46.8,0,0,0,12.75,1,31,31,0,0,0,9-1.86c7.78-2.81,10.8-7.94,13.15-12.27a34.7,34.7,0,0,1,3.39-5.29l-1.43,2.83.56.38c4.77-4,12.43-9.06,21.79-10.54,11.35-1.79,17.66-3.81,20.95-5.19a28.07,28.07,0,0,0,5.4-3.06,23,23,0,0,1-3.05,2.85l.4.54c10.22-5.07,14.35-12.1,15.92-15.94-.11,1.59-.24,3.13-.32,3.52l.68.18c4.51-10.68,3.92-25.09,3.91-25.24l-.07-1.67.67,1.56a11.42,11.42,0,0,1,.54,1.65l.7-.09C164.62,98,164,86.3,159.69,81.4Z"/><path class="cls-6" d="M37.44,98.64l-.29.23c-.69.55-2,1.73-1.95,1.69-2.14,2.78-2.82,6-4.06,9.49-.39,1.08-1,3.34-2.49,2.93-2.17-.89-4.41-4-5.46-5.79a16.27,16.27,0,0,1-2.58-7.68c-.13.8-.31,1.6-.39,2.41,0,.31-.57.21-.53-.1a.79.79,0,0,0,0-.13s0,0,0,0c-.63-1.75-.23-3.55,0-5.39-.31.86-1.06,3.21-1.06,3.21s-.18-1.41-.19-1.47a36.68,36.68,0,0,1,1.16-9.11,9,9,0,0,1,.6-1.46,18.42,18.42,0,0,0-2.06,2.76A52.81,52.81,0,0,1,22,76.73l-1.14.53A51.22,51.22,0,0,0,11,97.1l.68.18L12.2,96c-.71,4.2-1.42,11.46.57,17.59l.33-.24a9.38,9.38,0,0,1,.17-2l0-1.85.63,1.76a122.85,122.85,0,0,0,6.76,15.21l.65-.25-1-2.83,1,1c.47.48,11.58,11.81,14.82,18l.35.66.3-.68a10,10,0,0,1,1.64-2.59l.16-.17-.13-.2C36.82,137,29,124.55,29.88,118.54s7.43-14,8.74-15.59l.06-.08v-.09a5.5,5.5,0,0,0-1-3.85Z"/><path class="cls-8" d="M38.39,139.41c-.63-1-2.27-3.58-4-6.73a141.1,141.1,0,0,0-10.72-10.45,23.27,23.27,0,0,1-6.07-8.52c.28,1.5,1.56,5.71,1.56,5.71a88,88,0,0,1-5.91-12.6c.32,7.08,4.85,15.1,7.34,19.64l.65-.25-1-2.83,1,1c.47.48,11.58,11.81,14.82,18l.35.66.3-.68a10,10,0,0,1,1.64-2.59l.16-.17Z"/><path class="cls-8" d="M36.66,104.92c.68-.87,1.23-1.54,1.51-1.88l.06-.08v-.09a5.46,5.46,0,0,0-1-3.85L37,98.73l-.3.24c-.68.55-2,1.72-1.94,1.69-2.15,2.77-2.83,6-4.06,9.48-.09.24-.19.54-.31.86C31.77,108.52,33.92,106,36.66,104.92Z"/><path class="cls-8" d="M157.27,24.37H157c-5.35.31-11.39,3.37-15.39,7.8-6.21,6.88-7.25,13.48-5.53,17,1.08,2.17,5.68,7.37,10.12,12.4,1.41,1.59,2.83,3.2,4.18,4.75l.17.19.25-.09c1.84-.71,11.36-4.63,17.38-11.81a20.92,20.92,0,0,0,3.69-7c1.62-7-.6-15.46-5.16-19.77A12.49,12.49,0,0,0,157.27,24.37Z"/><path class="cls-6" d="M166.67,27.77a12.49,12.49,0,0,0-9.4-3.4H157a22.85,22.85,0,0,0-11.41,4.32c6.9-2.1,15.18.19,17.81,7.21,3.85,10.32-2.54,22.91-11.67,30.1,3.07-1.28,11.13-5.08,16.45-11.43a20.92,20.92,0,0,0,3.69-7C173.45,40.58,171.23,32.08,166.67,27.77Z"/><path class="cls-6" d="M30.05,118.71c-.8,5.5,6.11,16.86,8.24,20.21l.23.35.32-.28c.22-.18.43-.36.67-.52,3.36-2.35,7.92-3.7,13.53-4a45.23,45.23,0,0,1,4.67,0l.45,0-.08-.41a37,37,0,0,1-.36-6.19v-.26l-.28-.06c-4-.88-7.84-4.92-10.4-8.16-4.22-5.33-7.6-11.82-8.42-15l-.18-.68-.45.57C35.85,106.88,30.78,113.65,30.05,118.71Z"/><path class="cls-8" d="M57.73,127.57l-.28-.06c-4-.88-7.84-4.92-10.4-8.16a60.18,60.18,0,0,1-6.23-9.74c3.29,15.17,15.54,17.52,15.77,21.38s-10.19,1.07-19.89,5.33c.8,1.38,1.12,1.85,1.59,2.6l.23.35.32-.28c.22-.18.43-.36.67-.52,3.36-2.35,7.92-3.7,13.53-4a45.23,45.23,0,0,1,4.67,0l.45,0-.08-.41a37,37,0,0,1-.36-6.19Z"/><path class="cls-8" d="M44.71,44.29l.27.13.18-.22a85,85,0,0,1,8.53-9l.23-.21-.21-.23C49.1,29.72,49.06,22.54,49,16.19v-.58C49,10.05,49,4.81,45.09,4a5.13,5.13,0,0,0-1.35-.1c-3.83.22-6.35,4.92-7,6.36C34.79,14.29,26.13,35.06,44.71,44.29Z"/><path class="cls-6" d="M40.94,20.35c1.22-3.2,4-8.23,8.07-6.42C49,9,48.58,4.72,45.09,4a5.13,5.13,0,0,0-1.35-.1c-3.83.22-6.35,4.92-7,6.36-1.87,3.94-10,23.49,6.25,33.12C39.87,35.94,38.16,27.66,40.94,20.35Z"/><path class="cls-5" d="M45.35,3.44c4.23,1.44,4.26,6.68,4.29,12.75s.08,13.25,4.48,18.18l.25.27.27-.24A56.53,56.53,0,0,1,64,27.74a25.86,25.86,0,0,1,6.45-2.52l.75-.18-.64-.4A71,71,0,0,1,63,19.31c-1.92-1.62-5.32-5.92-8.32-9.73-2.09-2.65-4.07-5.15-5.18-6.28a3.94,3.94,0,0,0-3.08-1l-.6.07a7.62,7.62,0,0,0-1.21.3l0,.62A4.53,4.53,0,0,1,45.35,3.44Z"/><path class="cls-6" d="M58.73,127.71l-.38,0V128a27,27,0,0,0,.46,6.35l.06.13.13.05c1.21.49,7.45,3.11,11.32,6.5a19.11,19.11,0,0,0,13.6,4.48h0a22.45,22.45,0,0,0,7.18-1.68c9.39-3.87,15.64-9.44,17.09-12.16s2.28-9.78-.31-14.83c-.24-.47-5.93-11.32-16.76-12.4l-.41,0v.37a16.67,16.67,0,0,1-.78,6.22,4.6,4.6,0,0,1-1.17,2.56C87.32,115,70,127.14,60.06,127.72A11.71,11.71,0,0,1,58.73,127.71Z"/><path class="cls-8" d="M72.16,139.05c-6.4-3.65-11.25-3.76-11.61-7.6s18.87-4.12,28.7-18.49a3.4,3.4,0,0,1-.48.62C87.32,115,70,127.14,60.06,127.72a11.71,11.71,0,0,1-1.33,0l-.38,0V128a27,27,0,0,0,.46,6.35l.06.13.13.05c1.21.49,7.45,3.11,11.32,6.5,3.6,3.14,10.17,6.85,20.78,2.8,9.5-3.64,15.64-9.44,17.09-12.16a14.1,14.1,0,0,0,1.28-5c-1.83,7.6-13.24,14.78-23.86,15.79C80.56,143,76,141.22,72.16,139.05Z"/><path class="cls-9" d="M44,95.24l-.82.24a18.71,18.71,0,0,0-5.85,3l-.27.2.21.25a4.47,4.47,0,0,1,1,2.21l.17,1.1.51-1a8.5,8.5,0,0,1,3.42-3.41l.29-.15,0-.09c.22-.43.51-1,.88-1.61Z"/><path class="cls-11" d="M88.55,106.05c-.08,0-1-.51-1.12-.51-.88,0-3,1.31-5.52,2l.45-.41c-5.42,1.44-13.12,3.52-19.31,3.88a29.58,29.58,0,0,1-4.17-.24c-6.66-.6-11.12-6.82-13.93-10.51a17.8,17.8,0,0,0-1.8-2.14l-.31-.2-.42-.12c-.85.53-3.52,2.08-3.93,4.42-.34,1.94,3.43,11.44,8.21,17.47,3.83,4.83,8,7.7,11,8.15a16.49,16.49,0,0,0,2.58.68l1.26-.52c9.3-.54,25.89-13.27,27.69-15,1.18-1.16,1.36-4,.85-5.73A1.88,1.88,0,0,0,88.55,106.05Z"/><path class="cls-12" d="M132.38,71.59s11.09,16.09,4.86,31c-4.7-4.21-10.17-5.92-17.47-6.38,12.85,3,16.08,8.89,19.08,16C149.24,87.72,132.38,71.59,132.38,71.59Z"/><path class="cls-12" d="M102.29,89.65s21.84.12,23.75-10.27C130.07,95.77,102.29,89.65,102.29,89.65Z"/><path class="cls-12" d="M45.12,86.19s-10.81,1.4-14.92,4.33c-4.06-14.67,6.4-30.29,6.4-30.29S21.25,77.1,27.72,98.54C31.4,89.84,45.12,86.19,45.12,86.19Z"/><path class="cls-12" d="M58.18,126.15a31.2,31.2,0,0,1-.45-12.47A14.93,14.93,0,0,0,58.18,126.15Z"/><path class="cls-6" d="M81.85,117.81c-.9-.09-7.55-2.12-12.3.29-5.07,2.57-3.09,8.44-3.09,8.44S72.3,124.22,81.85,117.81Z"/><path class="cls-12" d="M82.41,118.37c-.91-.09-7.55-2.13-12.31.29-5.07,2.57-3.64,8.12-3.64,8.12S72.85,124.77,82.41,118.37Z"/><path class="cls-6" d="M48.41,114.67c-1.54-1.88-2.78-2-4.9-2,.81,3.18,7.72,10.76,7.72,10.76S51.4,118.34,48.41,114.67Z"/><path class="cls-12" d="M48.24,114.69c-1.29-2-3.43-2-5.56-2,.81,3.18,7.72,10.76,7.72,10.76S50.62,118.43,48.24,114.69Z"/><path class="cls-12" d="M62.63,81.38a36.61,36.61,0,0,1,16.42.94A23.62,23.62,0,0,0,62.63,81.38Z"/><path class="cls-12" d="M91.65,29.05c-11,7.61-14.7,25.8-14.7,25.8S72.21,36,91.65,29.05Z"/><path class="cls-12" d="M123.28,41.71s-14.2-12.83-27-5.5C109.42,22,123.28,41.71,123.28,41.71Z"/><path class="cls-12" d="M53.92,38.8s13.59-12.27,24.6-4.47C67.66,19.61,53.92,38.8,53.92,38.8Z"/><path class="cls-12" d="M52.14,83.11s-18-7.11-12.31-18C26.33,81.86,52.14,83.11,52.14,83.11Z"/><path class="cls-12" d="M61,39c9.64-2.19,17.4,7.74,17.4,7.74s15.67-9.18,27-5.55c-12.73-5.45-25.76,1.12-25.76,1.12A17.2,17.2,0,0,0,61,39Z"/><path class="cls-13" d="M59,75a.62.62,0,0,1-.76.37.55.55,0,0,1-.41-.69.61.61,0,0,1,.76-.38A.56.56,0,0,1,59,75Z"/><path class="cls-6" d="M46.21,104.39s5.37,7.31,12.44,7.94,20.75-2.84,20.75-2.84-14.79,4.82-21.54,3.72C50.15,112,46.21,104.39,46.21,104.39Z"/><path class="cls-12" d="M72.05,127.7c10.93,1.56,22.06,1.45,30.75-5.58C97.58,124.64,91.32,128.18,72.05,127.7Z"/><path class="cls-12" d="M89.22,133.19a61.28,61.28,0,0,1-18.46-2.07S79.68,135.66,89,135a22,22,0,0,0,14.47-7A31.36,31.36,0,0,1,89.22,133.19Z"/><path class="cls-12" d="M75.39,136.66c8.65,5.09,19.9.67,19.9.67S85.38,144.78,75.39,136.66Z"/><path class="cls-12" d="M30.87,123.94v0a1.25,1.25,0,0,1,0,.19c.05.21.13.42.19.63a14.92,14.92,0,0,0,11.8-1.61s-6.62,2.13-12,.6Z"/><path class="cls-12" d="M33.22,130.7a28.83,28.83,0,0,0,12.88-4.16s-7.94,3.33-13.86,1.67C32.48,128.82,33,130.09,33.22,130.7Z"/><path class="cls-12" d="M42.68,131.5a29.12,29.12,0,0,1-7.43,2.4l.61,1A19.18,19.18,0,0,0,42.68,131.5Z"/><path class="cls-6" d="M45.57,60.22s-6,3.28-6.4,5.75-2.09,7.58,6.93,13.9,16.16-2.54,16.7-4.43S63,59.6,63,59.6l-9.7,1.08Z"/><path class="cls-6" d="M62.92,64.66a8,8,0,0,0,2.87-5.92c.06-3.8-10.08-7.63-20.67-2.82A10.42,10.42,0,0,0,39,67l8.12-6.39,12.13,2Z"/><path class="cls-6" d="M63.67,74.36s3.83-7.42,2.12-15.62-4.59,8.43-4.59,8.43L62,70Z"/><path class="cls-6" d="M94.35,68.73s-4,6.7-.37,17c.4,1.14.27-7.26,3.76-11.4,3.87-4.59,11.38-5,11.38-5s8.39-.35,11.71,3.38a30.61,30.61,0,0,1,5,7.66,15.29,15.29,0,0,0-3.56-13.85c-3.84-4.27-8.54-5.61-15.77-4.7C106.47,61.78,96.74,63.66,94.35,68.73Z"/><path class="cls-14" d="M42.71,97.64s-3.84,1.54-4.09,5.31,8.7,21.66,19.11,24.62,28.73-12.2,31.71-15.4c2.4-2.56.5-7.77-2.57-6.46s-22.57,6.25-28,5.05S49.28,105.27,42.71,97.64Z"/><path class="cls-14" d="M38.17,103s-7.39,8.94-8.35,16.43,7.62,17.81,9,19.52a32.27,32.27,0,0,1,19.65-4S65,136.69,74,144s28.11-5.57,28.11-5.57,11.74-6.57,7-20.39A20.24,20.24,0,0,0,91,104l-.59,2.44"/><path class="cls-14" d="M110,122.12s5.85-9.88,8.42-11.85l3.4-2.47s4.23,1.28,5.41,8.19a53.23,53.23,0,0,0,2.83,10.83s2.91,2.84,13.55-3.92l3.47-2.6-2.4,3.77s6.56-5.19,8.11-11.9.92-4.41.92-4.41.83,6.31.11,8.23c0,0,.76-10,1.19-14.42.34-3.48,0-12.72,0-12.72l1.72,4.65s-4-20.9-8.89-28.24-1.81-3-1.81-3,2.51,4.42,5.65,3.71,17.8-7.84,20.67-20.59c0,0,1-5.68.07-7.43"/><path class="cls-14" d="M144.53,60.6s11.1,10.52,16.73,22.1a40.05,40.05,0,0,1,3.48,22.85"/><path class="cls-7" d="M58.35,128a30.45,30.45,0,0,0,.14,7"/><path class="cls-15" d="M72,24.9s-9.08-4.86-12-9L52.74,6.94C52,6.05,49.45.38,44.1,2.88l-.46.23a11.83,11.83,0,0,0-2,1.34c-7,5.76-9.35,16.61-8.48,25.57,0,0,1.54,10.59,11.78,14.4l3.5-3.15,5.77-5.75s-4.09-6-4.66-12.18-.07-12.35-1-15.75S44.05,3,44.05,3"/><path class="cls-14" d="M46.21,91.68l-3,3.8s-5.61,1.32-8.46,5.18a20.68,20.68,0,0,0-4.07,9.82c-.56,3.09-2,2.5-2,2.5s-7.25-4.58-8-13.19c0,0-.52,1-.23,3.85,0,0-1.8-3.94-.7-7.36a14,14,0,0,0-1.4,5.29c0,2.5-.68-10,1.91-14.12a10.61,10.61,0,0,0-2.58,4.74c-.72,2.94,1.51-13.22,5.28-17.72"/><path class="cls-12" d="M96.28,60.6s9.78-8.83,26.3-1.26c0,0,6.84,5.15,8,9.3,0,0-2.34-11.18-14.07-14.25S95.53,58.3,96.28,60.6Z"/><path class="cls-12" d="M42.1,53.62S50.48,43.53,66.2,50c0,0,3.5.68,3,4.83,0,0,3.52-9.86-9.34-9.67s-19.13,7.23-18,8.82"/><path class="cls-12" d="M102.8,46.76s16.22.66,21.64,6.86C124.44,53.62,120.14,43.82,102.8,46.76Z"/><path class="cls-14" d="M62,68.37s4.26,5.57-2.77,12.45S44,90.72,43,97.64"/></svg>