<svg id="Layer_1" data-name="Layer 1" xmlns="http://www.w3.org/2000/svg" viewBox="0 0 290 500"><defs><style>.cls-1{fill:#381500;}.cls-2{fill:#323232;opacity:0.4;}.cls-3{fill:#e56e43;}.cls-3,.cls-5{stroke:#a54325;}.cls-11,.cls-12,.cls-13,.cls-3,.cls-5,.cls-8{stroke-miterlimit:10;}.cls-4,.cls-5{fill:#c9522d;}.cls-6{fill:#ea9962;}.cls-7{fill:#cc5733;}.cls-8{fill:#603e3d;stroke:#311;}.cls-9{fill:#ab362d;}.cls-10{fill:#3c1317;}.cls-11{fill:#ab2522;stroke:#420f0f;}.cls-12,.cls-13{fill:#93312e;}.cls-12{stroke:#541515;}.cls-13{stroke:#4c1212;}.cls-14{fill:#591212;}.cls-15{fill:#e7c298;}</style></defs><path class="cls-1" d="M211.5,443.55c3.55-.82,12.42-3.22,15.09-6.66l-1.79-11.42H214.71l-2.92,7.23C212,435.38,211.5,443.55,211.5,443.55Z"/><path class="cls-1" d="M256.32,457.75c3.55-.82,13.31-5.88,16-9.32l-2.71-12.9H259.5l-2.93,7.23C256.79,445.43,256.32,457.75,256.32,457.75Z"/><path class="cls-1" d="M123.62,479.05c3.56-.76,15.53-3.43,18.2-6.66l-1.68-13.05H130.06l-4.62,6.89C125.65,468.74,123.62,479.05,123.62,479.05Z"/><path class="cls-1" d="M80.13,476.39c3.56-.77,14.44-6.87,17.11-10.09l.29-7H87.44l-6.86,5.06C80.79,466.91,80.13,476.39,80.13,476.39Z"/><ellipse class="cls-2" cx="175.99" cy="464.18" rx="113.17" ry="29.96"/><path class="cls-3" d="M241,228c14.32-4,20-12.22,21.67-26.65,7.89,8.42,6.3,15.05,2.72,21.11,1.65-.21,4.74-2.39,6.32-3.68.23,7.48-4.07,11.27-10.11,12.77-5.81,2.28-12.4,1.48-17.42,1.8Z"/><path class="cls-4" d="M244.08,231.57,241,228.05c14.31-4,20-12.23,21.67-26.67C271.07,219.32,253.61,232,244.08,231.57Z"/><path class="cls-5" d="M229.41,342.69c-4.71-4.83-7.35-9.89-9.78-16.8-2.13-15,3.42-52.22-.1-78l-55.69,22.5c1.76,35,13.51,55.87,35.55,69.9l17.72,12.12a5.51,5.51,0,0,1,2.3,4.92l-4.7,68.13h10l6.72-76.87A7.49,7.49,0,0,0,229.41,342.69Z"/><path class="cls-3" d="M250.88,234.42h0l0,0,0,0c-31.8-27.87-76,15.79-99.5,1.86-19.64-13-30.1-63.07-27.29-94L86.4,137.51c-1.82,63.87-12.29,125.9-13.79,133.92C64,309.75,94.54,345.17,130,337.36h0c34.59-8.09,56.42-22.44,102.9-34.39,13.41-3.45,29.6-18.15,31.66-33.79A38.08,38.08,0,0,0,250.88,234.42Z"/><path class="cls-5" d="M75.72,251.59c-3.8,23.41-9,50.47-2.62,66.55C84.39,339,91.85,360.45,91.85,383.58v63.34l-4.42,12.42H97.52l4.42-12.42V383.68a123.6,123.6,0,0,1,18.74-65.44l2.71-4.35Z"/><path class="cls-6" d="M226.81,283.36C183.65,295,159,320.81,126.69,317.1c-25.88-16.33-7.72-109-8.75-143.53-.24-8.27-18.7-35.2-24.51.87-2.09,13-13.86,73.46-14.71,108C78,315.78,98.26,344.35,130,337.36h0c32.82-7.68,54.17-21,96-32.54Z"/><path class="cls-3" d="M208.63,280.45c1.76,35,13.51,55.88,35.55,69.9l17.71,12.12a5.51,5.51,0,0,1,2.31,4.92l-4.7,68.14h10l6.73-76.88a7.58,7.58,0,0,0-2.06-5.91c-4.71-4.83-7.35-9.89-9.78-16.79-2.13-15,3.42-52.23-.11-78"/><path class="cls-7" d="M264.92,359.61c-4.71-4.83-27.42-15.85-40.21-34.41-9.17-13.31-14.15-34.95-16.08-44.75,1.76,35,13.51,55.88,35.55,69.9l17.71,12.12a5.51,5.51,0,0,1,2.31,4.92l-3.91,56.67c4.57-22.6,6.69-58.54,6.69-58.54A7.56,7.56,0,0,0,264.92,359.61Z"/><path class="cls-3" d="M123.39,280.07c-2.31,48.22,10.29,52.5,10.29,80.09l.78,86.76-4.41,12.42h10.09l4.41-12.42,2.76-90.79C148,339.21,168,313.81,168,285.32"/><path class="cls-7" d="M123.39,280.07c-2.31,48.22,10.29,52.5,10.29,80.09l.68,75.9s5.67-52.62,2.49-85.4C131.64,325.45,125.35,310.43,123.39,280.07Z"/><path class="cls-8" d="M109.09,93.73a16.77,16.77,0,0,1,5.91-13s-7.29-10.64-4.73-22.08c0,0-9.47-5.32-11.24-20.9,0,0,8.08,16.76,13.21,16.37s.79-18.74-5.91-21.89,16.75-4.34,9.66,25.43c0,0-3.75,12,3.55,17.55,0,0,9.46-4.14,15.18-7.1s16.56-11.23,13-21.09a24,24,0,0,0-12-13.41s-16.36-5.72-11-26.42c0,0,.59,1,2.17,10.65s11.83,11.23,11.83,11.23,1.18-14-4.14-20.7,9.86,0,8.28,21.69c0,0,12.62,9.46,11.44,22.48,0,0,11.83-1.78,15.77-8.87,0,0-8.87-10.65-1.58-29.38,0,0,.79-.79.79,10.84s5.72,13.41,5.72,13.41,7.69-11.44,19.52-10.45c0,0,2.76-.2-7.29,5.32s-7.89,21.69-34.51,26.82c0,0-4.34,10.25-21.89,17.55s-7.49,32.13-7.49,32.13Z"/><path class="cls-8" d="M81,93.12A19,19,0,0,0,75.6,80.35S81,69.43,78.39,58.11c0,0,7.45-5.69,8.15-21.31,0,0-5.78,17.05-10,16.86S75,35,80.34,31.57,66.5,27.88,73.69,57.35c0,0,3.63,11.87-2,17.66,0,0-7.9-3.76-12.69-6.5S44.93,57.93,47.35,48,56.5,34.09,56.5,34.09s13-6.35,7.72-26.82c0,0-.43,1-1.25,10.72a12.76,12.76,0,0,1-9.09,11.68S52.25,15.73,56.26,8.83s-8,.38-5.71,22c0,0-9.81,9.94-8.23,22.89,0,0-9.71-1.31-13.26-8.25,0,0,6.71-11-.12-29.4,0,0-.68-.76-.12,10.86s-4,13.61-4,13.61S18,29.41,8.42,30.86c0,0-2.26-.09,6.19,5S22.06,57.25,44,61.33c0,0,4,10.08,18.65,16.68s7.63,31.81,7.63,31.81Z"/><path class="cls-3" d="M122.79,98.36s7-1,15.08-15.82,22-23.07,45.25-12.57,8.58,12.57,4,17.89-14.35,12-22.48,25.73-33.13-1.77-33.13-1.77Z"/><path class="cls-9" d="M134.18,103.83s3.4-21.29,16.41-29.13,31.2-3.4,38.74,1.33-25.43-7.1-34.16,5.18-9.61,21.44,2.81,26.32S141,115.37,134.18,103.83Z"/><path class="cls-3" d="M71.92,107s-6.76-1-14.67-15.83-21.42-23.07-44-12.57S4.92,91.21,9.37,96.54s14,12,21.86,25.73,32.21-1.78,32.21-1.78Z"/><path class="cls-9" d="M60.85,112.51s-3.31-21.3-16-29.14S14.55,80,7.22,84.71,32,77.61,40.43,89.88s9.35,21.44-2.73,26.32S54.23,124,60.85,112.51Z"/><path class="cls-3" d="M142,139.86c0,10.17-7.88,12.23-13.21,16.37-4.68,3.64-9,8.67-10.64,12.22-3.36,7.1-12.74,7.44-19.13,1.78-4.76-4.22-10.32-4.95-15.58-6.9-17-6.31-23.07-12.77-23.07-28,0-4.9,2.85-11.32,4.54-16.17,2.61-7.46,4.08-17,9.27-20.5,6-4,12.32-1.38,21.69-1.38,6.89,0,6.9-7.1,19.12-4.93,9.25,1.64,17.64,12.4,19.52,23.66C136.69,129,142,134.07,142,139.86Z"/><path class="cls-10" d="M114.8,109s6.51-7.84,13.31-3.7C128.11,105.31,117,93.78,114.8,109Z"/><path class="cls-10" d="M87.45,114.18s-8-7.83-16.42-3.69C71,110.49,84.71,99,87.45,114.18Z"/><path class="cls-11" d="M95.43,160s5.62,7.83,11.39,9.75,8.87-3.1,8.43-8.13Z"/><path class="cls-12" d="M106.82,159.58s-4.73,4.14-16.12-2.51c0,0,9.91,9.17,25.43,4.73,0,0,8-4.88,10.8-10.8a14.69,14.69,0,0,1-9.46,7.25A38.13,38.13,0,0,1,106.82,159.58Z"/><path class="cls-13" d="M100.16,160.47s9.62.89,6.51-4.73-3.55,0-6.36-5.47c0,0-.44-7.69,10.65-7.1s.59.29.59.29,11.39-1.62,11.68,5.92-3.25,9.31-3.25,9.31"/><path class="cls-14" d="M104.16,148.76s3.85-2,5.32,2.1S104.16,148.76,104.16,148.76Z"/><path class="cls-14" d="M121.9,149.79s-1.83-1.59-2.68,2.53S121.9,149.79,121.9,149.79Z"/><ellipse class="cls-15" cx="172.95" cy="245.76" rx="8.94" ry="2.66" transform="translate(-25.89 20.43) rotate(-6.29)"/><ellipse class="cls-15" cx="175.76" cy="276.83" rx="8.94" ry="2.66" transform="translate(-29.28 20.93) rotate(-6.29)"/><ellipse class="cls-15" cx="194.7" cy="259.96" rx="8.94" ry="2.66" transform="translate(-27.31 22.9) rotate(-6.29)"/><ellipse class="cls-15" cx="153.13" cy="263.66" rx="8.94" ry="2.66" transform="translate(-27.97 18.37) rotate(-6.29)"/><ellipse class="cls-15" cx="144.7" cy="289.33" rx="8.94" ry="2.66" transform="translate(-30.83 17.6) rotate(-6.29)"/><ellipse class="cls-15" cx="126.65" cy="251.23" rx="2.66" ry="8.94" transform="translate(-152.52 216.27) rotate(-56.11)"/><ellipse class="cls-15" cx="226.06" cy="253.16" rx="8.94" ry="2.66" transform="translate(-26.38 26.3) rotate(-6.29)"/><ellipse class="cls-15" cx="250.32" cy="251.68" rx="8.94" ry="2.66" transform="translate(-26.07 28.95) rotate(-6.29)"/><ellipse class="cls-15" cx="141.44" cy="239.25" rx="2.66" ry="8.94" transform="translate(-136.09 224.37) rotate(-56.34)"/><ellipse class="cls-15" cx="126.65" cy="210.85" rx="2.66" ry="8.94" transform="translate(-93.68 101.52) rotate(-32.62)"/><ellipse class="cls-15" cx="204.02" cy="238.36" rx="8.94" ry="2.66" transform="translate(-24.89 23.79) rotate(-6.29)"/><ellipse class="cls-15" cx="213.48" cy="272.98" rx="8.94" ry="2.66" transform="translate(-28.63 25.04) rotate(-6.29)"/><ellipse class="cls-15" cx="229.61" cy="234.37" rx="8.94" ry="2.66"/><ellipse class="cls-15" cx="244.55" cy="268.98" rx="8.94" ry="2.66"/><path class="cls-3" d="M89.6,151.53s2.37,4.73-3.55,6.21"/><path class="cls-3" d="M125.7,146.64s-1.48,6.66,3.84,5.33"/></svg>