<svg id="Layer_1" data-name="Layer 1" xmlns="http://www.w3.org/2000/svg" viewBox="0 0 256 256"><defs><style>.cls-1{fill:#3f6875;}.cls-2{fill:#9bbec9;}.cls-3{fill:#648c9b;}.cls-4{fill:#233e44;}.cls-5{fill:#c8d5d6;}.cls-6{fill:#fff;}.cls-7{fill:#839d9e;}.cls-8{fill:#254951;}.cls-9{fill:#11c8d1;}.cls-10{fill:#43e4ff;}.cls-11{fill:#b6f5fc;}.cls-12{fill:#049b9b;}.cls-13{fill:#3d3d3d;}.cls-14{fill:#b2b1b1;}.cls-15{fill:#1d383d;}.cls-16{fill:#2e4f57;}.cls-17{fill:#0c1c1e;}</style></defs><path class="cls-1" d="M57.84,62.52c-1,0-4.64,6.34-8.67,10.66-5.09,5.45-10.54,7.39-10.54,14.71-5.71-5.48-14.29-2.14-21.91.36C11.41,90,7.19,88,6.93,89,6.3,91.28,22,106.35,41.76,102.8c3.84-.89,8.22-5.71,8.22-5.71C64.62,83.51,60.87,62.51,57.84,62.52Z"/><path class="cls-2" d="M57.84,62.52c-1,0-4.64,6.34-8.67,10.66-5.09,5.45-10.54,7.39-10.54,14.71-5.71-5.48-14.29-2.14-21.91.36C11.41,90,10.3,88.56,10,89.53c-.63,2.32,17.39,11.16,30,7.6a12.65,12.65,0,0,0,6.34-4.07C59,83.77,60.87,62.51,57.84,62.52Z"/><path class="cls-3" d="M57.84,62.52c-1,0-3.76,7.65-7.79,12-5.09,5.45-10,9.05-10,16.38-5.72-5.48-14.95-4.47-22.57-2-5.31,1.74-7.18-.34-7.44.63-.63,2.32,17.37,13.65,30,10.1,3.84-.9,8.15-4.77,8.15-4.77C60.83,85.57,60.87,62.51,57.84,62.52Z"/><path class="cls-4" d="M57.83,62.35c-.56,0-1.51,1.27-3.43,3.92A70.31,70.31,0,0,1,49,73.06a51.84,51.84,0,0,1-4.14,3.87c-3.37,2.91-6.29,5.44-6.44,10.56a11.07,11.07,0,0,0-7.75-2.74c-4,0-8.4,1.45-12.62,2.86l-1.42.47a15.22,15.22,0,0,1-4.77.73,25.89,25.89,0,0,1-3-.2,12.75,12.75,0,0,0-1.31-.11c-.35,0-.77,0-.87.41-.14.55.43,1.46.94,2.12,3.12,4.08,14.08,12.49,28,12.49h0A34.34,34.34,0,0,0,41.8,103c3.85-.9,8.13-5.57,8.3-5.76C61.71,86.46,62,70.54,59.63,64.41,59.1,63.06,58.48,62.35,57.83,62.35ZM49.84,97s-4.38,4.79-8.11,5.66a34.58,34.58,0,0,1-6,.53h0C21.9,103.16,11.06,94.84,8,90.82,7,89.6,7.07,89.12,7.1,89s.2-.15.52-.15A12.72,12.72,0,0,1,8.9,89a26.14,26.14,0,0,0,3,.2,15.63,15.63,0,0,0,4.88-.75L18.2,88c4.2-1.4,8.54-2.84,12.51-2.84A10.71,10.71,0,0,1,38.51,88l.3.29v-.42c0-5.23,2.79-7.64,6.32-10.69a49.15,49.15,0,0,0,4.17-3.9,73.6,73.6,0,0,0,5.39-6.82c1.34-1.86,2.73-3.78,3.15-3.78s1,.69,1.46,1.84C61.67,70.59,61.34,86.31,49.84,97Z"/><path class="cls-1" d="M208.57,161.36c-1.56-.77-16.11,7.72-14.89,8.94s6.17.44,6.64-.3c.51,1.81,6.7,2.86,9.49,3,1.85.07,3.66-1.93,5.41-2,2-.06,10.62-1.51,10.8-3.56S215.83,166.46,208.57,161.36Z"/><path class="cls-3" d="M210.56,162.58c-1.8,2.84-6.77,4.56-5.34,7.3.52,1,3.37,1.81,5.09,1.22.76-.26,2.8-1.42,4.35-1.46,3.54-.08,12.41-1.46,10.61-3C223.05,165.68,216.29,165.6,210.56,162.58Z"/><path class="cls-4" d="M221.63,165.63c-3.71-.63-8.81-1.5-13-4.43a.9.9,0,0,0-.36-.06c-2.51,0-14,6.76-14.8,8.72a.46.46,0,0,0,.07.56,4.09,4.09,0,0,0,2.67.69,9,9,0,0,0,4-.81c1,1.88,7.36,2.76,9.55,2.85h.11a6.33,6.33,0,0,0,2.84-1,5.78,5.78,0,0,1,2.47-.95c1.8-.05,10.77-1.46,11-3.73C226.29,166.42,224.53,166.12,221.63,165.63Zm-6.41,5.19a6.24,6.24,0,0,0-2.63,1,5.88,5.88,0,0,1-2.77,1c-3-.13-8.87-1.22-9.33-2.85l-.1-.38-.22.33c-.21.34-2,.86-3.94.86a3.66,3.66,0,0,1-2.42-.59s0-.09,0-.18c.76-1.82,12.12-8.5,14.47-8.5a.83.83,0,0,1,.18,0c4.22,3,9.56,3.87,13.1,4.47,2.42.41,4.33.74,4.27,1.44C225.68,169.2,217.64,170.75,215.22,170.82Z"/><path class="cls-5" d="M134.74,141.66c-12,4.64-61.1-9.65-90.09-31.16,10.24,24.9,46.5,61.17,81.15,66.17,2.5,0,12.51,2.68,23.23,2.14,64.3,2.68,111.28-49.46,97.71-95.65C233.7,63.43,146.7,137,134.74,141.66Z"/><path class="cls-6" d="M228,97.09c-4.37,8-7.83,19.68-12.11,27.8-7.41,14.09-28,14-31.69,5.36.21-7.51.64-16.18,1.13-23.59-23.1,15.69-45,32.83-50.55,35-12,4.64-61.1-9.65-90.09-31.16,10.24,24.9,55.89,62.66,84.38,60.81,2.51,0,9.38.53,20.1,0C213,174,254.35,125.37,246.87,83.94,240.91,80.91,233.47,86.94,228,97.09Z"/><path class="cls-7" d="M245,81.52c5.14,18.59-.55,40.57-15.21,58.79-19,23.65-48.81,36.77-79.7,35.11-3.07.4-15.77-1.43-21.88-2.3-2.34-.34-3.48-.5-3.68-.5h0c-20.57-1.71-39.21-15-51.23-25.87-12.7-11.49-22-23.86-26.53-32.24A127,127,0,0,0,85.5,154.72c15.26,10.07,29.15,14.62,37.05,15.51,1,.2,24.43,2.14,29,1.61,43.11,1.39,66.19-20.54,76.12-33.74a80.1,80.1,0,0,0,14.09-29.93c2.25-9.84,2.16-19.34-.24-26.76l-.34.11c5.15,15.89-.4,38.55-13.8,56.37-9.58,12.74-31.49,33.66-72,33.66-1.27,0-2.56,0-3.86-.06-4.73.55-28.73-1.58-28.9-1.61-15.66-1.77-55.28-18.64-77.8-59.47l-.32.16C47.71,118.61,58,133.44,73,147c12.06,10.9,30.77,24.25,51.45,26,.2,0,1.72.21,3.65.49,6.59.95,18.86,2.71,22,2.3,1.76.1,3.51.15,5.26.15a96,96,0,0,0,74.7-35.39,79.52,79.52,0,0,0,15-28.89,57.65,57.65,0,0,0,.26-30.22Z"/><path class="cls-7" d="M237.63,81.52c5,15.44-.27,37.25-13.12,54.27-9.57,12.67-31.64,33.73-71.92,32.3a120.41,120.41,0,0,1-17.2-.89c-5-.5-9.34-.94-11.61-.54-10-.23-24.81-5.85-38.52-14.65a127.42,127.42,0,0,1-35.09-33.27A122.89,122.89,0,0,0,91.73,154c15.09,7.88,28,10.64,33.27,11l2.92.07c5.78.18,17.81.54,27.36.28,15.26-.4,29-3.95,41-10.54a77.3,77.3,0,0,0,25.82-23.12c12.71-17.93,15.92-38,12.52-48.64l-.34.11c3.38,10.51.17,30.49-12.47,48.32-14.81,20.87-38.42,32.77-66.5,33.52-9.54.25-21.56-.11-27.34-.28-1.54-.05-2.55-.09-2.92-.08-5.22-.39-18.08-3.15-33.11-11a123.34,123.34,0,0,1-47.1-43.3l-.3.19c12.15,20.77,28.77,34.15,40.57,41.72,13.76,8.84,28.59,14.47,38.74,14.71,2.25-.39,6.56,0,11.54.53,4.6.46,9.71,1,14.41,1,1,0,1.91,0,2.83-.07,15.88.56,30.5-2.37,43.43-8.71A80.63,80.63,0,0,0,224.79,136a76.23,76.23,0,0,0,13.49-28.37c2.24-9.63,2.13-18.69-.31-26.22Z"/><path class="cls-7" d="M231,86.17c2.45,14.37-3.13,32.12-14.59,46.32-14.4,17.88-35.77,28.32-60.14,29.41l-13.86.31-16,.35c-7.94,0-34.79-6.73-54.1-23.38l-.24.27c19.38,16.71,46.36,23.46,54.34,23.46.41,0,8.34-.17,16-.35l13.87-.3c24.48-1.1,45.94-11.59,60.41-29.54,11.52-14.29,17.13-32.14,14.66-46.61Z"/><path class="cls-7" d="M227.62,90.76c.9,15.4-5.22,30.89-17.23,43.62-14.15,15-34.51,24.31-53.15,24.31V159c18.73,0,39.2-9.35,53.41-24.42,12.08-12.8,18.23-28.38,17.33-43.88Z"/><path class="cls-7" d="M159,155.83l0,.35c21.42-.87,46.47-16.69,52-29l-.32-.14C205.22,139.25,180.32,155,159,155.83Z"/><path class="cls-7" d="M159.92,152.28v.36c6.46,0,15.82-2.65,25-7.08,8.84-4.25,15.56-9.17,17.54-12.84l-.31-.17C198.13,140.05,173.86,152.28,159.92,152.28Z"/><path class="cls-7" d="M163.42,149.57l0,.36c8.56-.58,26.14-8.31,32.39-15.42l-.27-.24C189.37,141.33,171.92,149,163.42,149.57Z"/><path class="cls-7" d="M165.58,145.94v.36c7.45-.12,21.06-6.77,25.56-12.48l-.28-.22C186.41,139.25,172.94,145.83,165.58,145.94Z"/><path class="cls-7" d="M168.6,142.1l.06.36c6.87-1.09,17.29-6.46,18.89-9.75l-.32-.15C185.66,135.77,175.39,141,168.6,142.1Z"/><path class="cls-7" d="M246.88,83.07c-1.5-2.28-4.06-3.44-7.59-3.44-17.43,0-56,27.82-81.47,46.22-11.14,8-19.94,14.39-23.15,15.64a17.94,17.94,0,0,1-6.22.87c-18.76,0-59.4-14-83.69-32l-.52-.39.25.6c5.28,12.85,17,28,31.46,40.61,16.36,14.27,34.06,23.39,49.85,25.67a33.55,33.55,0,0,1,4,.55,96.84,96.84,0,0,0,16.3,1.66c1,0,2,0,2.89-.07,1.58.07,3.18.1,4.75.1a107.38,107.38,0,0,0,47.32-10.84,93.7,93.7,0,0,0,33.56-27.48,72.8,72.8,0,0,0,13.12-27.87,59,59,0,0,0-.86-29.79Zm-12.51,57.49c-17.89,23.9-48,38.17-80.6,38.17-1.57,0-3.16,0-4.75-.1-.94.05-1.91.07-2.89.07a96.29,96.29,0,0,1-16.24-1.65,32.56,32.56,0,0,0-4-.56h0C90.65,171.41,55.32,135.17,45.06,111c24.4,17.87,64.71,31.68,83.39,31.68h0a18.21,18.21,0,0,0,6.35-.89c3.25-1.26,12.07-7.62,23.23-15.68C183.49,107.76,222,80,239.29,80c3.4,0,5.84,1.09,7.28,3.25C252.06,102,247.62,122.85,234.37,140.56Z"/><path class="cls-1" d="M223.1,77.47c-4.6.83-7.51,1.73-15.31,1.84s-18.91.33-33,7.42c-15.6,7.83-42.34,28.67-54.57,35.9s-19.74,7.77-29,5.54c-1.34-.8-12.7-5.4-19-9.56-12-7.86-20.53-26.08-26.21-25.42l-6.15,2.18c-2.15,15.69,38.29,62.43,85.56,64,1-.54,31.11-9.57,37.41-9.66,6.25.4,9.37-6.79,9.55-9.6,7-1.64,8.41-10.15,12.46-9.92,33.76,17.33,27.33-40.9,56.57-52.1C236.46,74.58,229.32,76.34,223.1,77.47Z"/><path class="cls-2" d="M223.1,77.47c-4.6.83-7.51,1.73-15.31,1.84s-18.91.33-33,7.42c-15.6,7.83-42.34,28.67-54.57,35.9s-19.74,7.77-29,5.54c-1.34-.8-12.7-5.4-19-9.56-12-7.86-20.53-26.08-26.21-25.42l-6.15,2.18c-1,15.15,54.7,54.62,95.43,53.13,1-.53,19-8.46,25.24-8.55,3.4.22,7.09-2.86,7.27-5.68,7-1.63,7.83-19.8,21.67-14.7,11.82,4.34,20.75.09,27.52-15.8C222,91.9,228.81,82.91,241.32,78.12,236.46,74.58,229.32,76.34,223.1,77.47Z"/><path class="cls-3" d="M223.62,79.63a83,83,0,0,1-16.17,1.71c-7.8.12-17.46,0-31.58,7.08-15.6,7.83-41.31,27.72-53.55,35s-21.88,7-31.17,4.79c-1.34-.8-12.93-3.9-19.26-8-12-7.86-21.84-26.8-26-26.93l-4.46-.84-1.69,3c-1,15.15,45.65,62.3,86.38,60.81.95-.53,33.34-10.24,39.64-10.33,3.39.23,4.73-4.95,4.91-7.77,7-1.63,7.37-15.45,21.21-10.36,11.82,4.35,18.22-8.06,25-24C222,91.9,228,84.1,240.54,79.31,236.29,76.38,229.84,78.51,223.62,79.63Z"/><path class="cls-4" d="M224.71,77l-1.64.3-2.44.47a61.88,61.88,0,0,1-12.84,1.38c-7.52.11-18.89.28-33.12,7.43-9.42,4.72-22.87,14.18-34.75,22.52-7.7,5.41-15,10.52-19.83,13.39-12.53,7.4-20.07,7.63-28.87,5.52-.41-.24-1.58-.76-3.18-1.48-4.22-1.9-11.28-5.08-15.82-8.06-5.84-3.84-10.8-10.11-15.18-15.64-3-3.78-5.57-7-7.84-8.75l-.05,0c-1.86-1.51-3.23-.84-3.23-.84,2.8-.33,6.53,4.39,10.84,9.85S66.13,114.89,72,118.76c4.55,3,11.64,6.18,15.87,8.09,1.62.72,2.79,1.25,3.16,1.47l0,0c8.9,2.14,16.52,1.92,29.16-5.55,4.87-2.88,12.15-8,19.86-13.41,11.86-8.33,25.31-17.78,34.7-22.49,14.16-7.11,25.48-7.28,33-7.4a61.7,61.7,0,0,0,12.9-1.38l2.43-.47,1.65-.3c5.54-1,11.8-2.21,16.16.74-12.56,5-18.59,18.88-23.92,31.15-4.58,10.54-8.9,20.5-16.59,23.25-4.32,1.54-9.42.75-15.6-2.42h-.07c-2-.12-3.32,1.69-4.89,3.79-1.84,2.47-3.92,5.26-7.62,6.12l-.13,0v.14a12.27,12.27,0,0,1-2.46,5.91,8,8,0,0,1-6.92,3.52c-6.07.09-35.7,8.86-37.44,9.66-30.77-1.06-58.67-21.59-73.22-38.85-8.35-9.9-13.06-19.48-12.3-25a6.5,6.5,0,0,0-.13,4,.43.43,0,0,1,0,.11c1.19,5.64,5.54,13.29,12.13,21.12a121.19,121.19,0,0,0,31.06,25.91c13.93,8.08,28.61,12.6,42.47,13.07h.05l0,0c1.1-.62,31.2-9.56,37.3-9.64a8.31,8.31,0,0,0,7.21-3.67,12.88,12.88,0,0,0,2.53-6c3.75-.93,5.94-3.86,7.7-6.22,1.5-2,2.8-3.73,4.54-3.66,6.26,3.2,11.44,4,15.85,2.41,7.84-2.8,12.19-12.82,16.8-23.44,5.34-12.3,11.4-26.24,24-31.08l.31-.12-.27-.19C236.93,74.7,230.44,75.92,224.71,77Z"/><path class="cls-1" d="M86.45,124.11a121.66,121.66,0,0,0-6.11-12.78c-2.84-5.07-6.88-6.79-7.68-6.07-1,.88,1.2,4.51,0,8.71s-1.82,8,1.79,10.3l16.55,4C89.69,126.4,87.19,126.16,86.45,124.11Z"/><path class="cls-3" d="M86.45,124.11a89,89,0,0,0-6.11-12.78c-2.71-4.51-5.22-5.79-6-5.07-1,.88,1.1,3.54-.09,7.74s-2.72,7.65.22,10.27l7.25,3,9.3,1C89.69,126.4,87.19,126.16,86.45,124.11Z"/><path class="cls-2" d="M75.4,106.56c4.6,6.07,6.25,11.16,10.23,17.19C84.38,120.18,79.2,108.39,75.4,106.56Z"/><path class="cls-4" d="M88.92,126.19a4.41,4.41,0,0,1-2.31-2.14,118.36,118.36,0,0,0-6.11-12.8c-2.33-4.16-5.43-6-6.94-6.29a1.19,1.19,0,0,0-1,.17c-.49.44-.32,1.37-.08,2.66a13.07,13.07,0,0,1,0,6.13c-.92,3.24-1.63,6.55,0,9l.12.17c1.15,1.3,1.85,1.21,1.85,1.21C70.9,122,71.66,118.14,72.83,114a13.23,13.23,0,0,0,0-6.29c-.21-1.13-.38-2,0-2.34a.91.91,0,0,1,.72-.08c1.45.24,4.42,2.06,6.69,6.11a122.82,122.82,0,0,1,6.09,12.75,4.72,4.72,0,0,0,2.47,2.33A6.44,6.44,0,0,1,91,128.27l.3-.2A6.8,6.8,0,0,0,88.92,126.19Z"/><path class="cls-1" d="M184.48,84.34c-3.67,1.3-6.36,3.17-6,4.17s3.62.75,7.29-.56,6.37-3.17,6-4.17S188.16,83,184.48,84.34Z"/><path class="cls-8" d="M184.8,85.23c-2.76,1-4.78,2.39-4.52,3.14s2.73.57,5.49-.42,4.79-2.39,4.52-3.14S187.57,84.25,184.8,85.23Z"/><path class="cls-4" d="M190,83a18.23,18.23,0,0,0-5.61,1.18,19.69,19.69,0,0,0-4.55,2.22c-.86.6-1.82,1.46-1.56,2.18.17.49.82.73,1.92.73a18.18,18.18,0,0,0,5.6-1.18,20.62,20.62,0,0,0,4.56-2.22c.85-.6,1.82-1.46,1.56-2.18C191.78,83.23,191.13,83,190,83Zm.16,2.61a19.69,19.69,0,0,1-4.48,2.18A17.77,17.77,0,0,1,180.23,89c-.9,0-1.47-.18-1.58-.5s.39-1,1.42-1.76a19.8,19.8,0,0,1,4.47-2.19A18.07,18.07,0,0,1,190,83.34c.89,0,1.47.18,1.58.5S191.22,84.89,190.19,85.6Z"/><path class="cls-9" d="M185.29,55.56a4,4,0,1,0,4,4A4,4,0,0,0,185.29,55.56Z"/><path class="cls-10" d="M185.29,55.56a5.27,5.27,0,0,0-.57,0c-2.14.77-2.41,3.41-1.58,5,1.24,2.39,4.73,2.75,5.72.81a4,4,0,0,0-3.57-5.85Z"/><path class="cls-11" d="M186.39,56.48a1.77,1.77,0,1,0,2,1.76A1.87,1.87,0,0,0,186.39,56.48Z"/><path class="cls-12" d="M185.29,55.38a4.2,4.2,0,1,0,4.19,4.2A4.2,4.2,0,0,0,185.29,55.38Zm0,8a3.84,3.84,0,1,1,3.84-3.84A3.85,3.85,0,0,1,185.29,63.42Z"/><path class="cls-9" d="M177.07,70.12a4,4,0,1,0,4,4A4,4,0,0,0,177.07,70.12Z"/><path class="cls-10" d="M177.07,70.12a3.64,3.64,0,0,0-.57,0c-2.14.77-2.41,3.41-1.58,5,1.24,2.38,4.73,2.75,5.72.81a3.91,3.91,0,0,0,.45-1.84A4,4,0,0,0,177.07,70.12Z"/><path class="cls-11" d="M178.17,71a1.77,1.77,0,1,0,2,1.75A1.86,1.86,0,0,0,178.17,71Z"/><path class="cls-12" d="M177.07,69.94a4.2,4.2,0,1,0,4.2,4.19A4.2,4.2,0,0,0,177.07,69.94Zm0,8a3.85,3.85,0,1,1,3.84-3.85A3.85,3.85,0,0,1,177.07,78Z"/><path class="cls-9" d="M176.17,53.42a2.14,2.14,0,1,0,2.14,2.14A2.14,2.14,0,0,0,176.17,53.42Z"/><path class="cls-10" d="M176.17,53.42l-.3,0A1.89,1.89,0,0,0,175,56.1c.66,1.27,2.52,1.46,3,.43a2.11,2.11,0,0,0,.24-1A2.14,2.14,0,0,0,176.17,53.42Z"/><path class="cls-11" d="M176.76,53.91a.94.94,0,1,0,1,.93A1,1,0,0,0,176.76,53.91Z"/><path class="cls-12" d="M176.17,53.32a2.24,2.24,0,1,0,2.23,2.24A2.24,2.24,0,0,0,176.17,53.32Zm0,4.28a2,2,0,1,1,2-2A2,2,0,0,1,176.17,57.6Z"/><path class="cls-9" d="M187.36,74.23a2.14,2.14,0,1,0,2.14,2.14A2.14,2.14,0,0,0,187.36,74.23Z"/><path class="cls-10" d="M187.36,74.23l-.3,0a1.89,1.89,0,0,0-.84,2.66c.66,1.27,2.52,1.46,3,.43a2.11,2.11,0,0,0,.24-1A2.14,2.14,0,0,0,187.36,74.23Z"/><path class="cls-11" d="M188,74.72a.94.94,0,1,0,1,.93A1,1,0,0,0,188,74.72Z"/><path class="cls-12" d="M187.36,74.13a2.24,2.24,0,1,0,2.23,2.24A2.24,2.24,0,0,0,187.36,74.13Zm0,4.28a2,2,0,1,1,2-2A2,2,0,0,1,187.36,78.41Z"/><circle class="cls-9" cx="184.67" cy="82.99" r="2.14"/><path class="cls-10" d="M184.67,80.85l-.3,0a1.88,1.88,0,0,0-.84,2.66c.66,1.27,2.51,1.46,3,.43a2.11,2.11,0,0,0,.24-1A2.14,2.14,0,0,0,184.67,80.85Z"/><ellipse class="cls-11" cx="185.26" cy="82.27" rx="1.05" ry="0.93"/><path class="cls-12" d="M184.67,80.75A2.24,2.24,0,1,0,186.9,83,2.23,2.23,0,0,0,184.67,80.75Zm0,4.28a2,2,0,1,1,2-2A2,2,0,0,1,184.67,85Z"/><path class="cls-2" d="M179.06,112.63l15.07-2.48C190.82,106.13,182.67,106.11,179.06,112.63Z"/><path class="cls-3" d="M179.06,112.63H188l6.18-2.48C190.68,107.86,183.31,107.1,179.06,112.63Z"/><path class="cls-4" d="M192.55,108.35l-.06,0a9.52,9.52,0,0,0-5.66-1.17,10.08,10.08,0,0,0-6.29,2.92l-.12.11a5,5,0,0,0-1.36,2.45,9.83,9.83,0,0,1,7.8-5.13,8.43,8.43,0,0,1,7.27,2.65S194.13,109.29,192.55,108.35Z"/><path class="cls-1" d="M190.46,110.91c-2.72,0-8,3.71-8.13,7.63-.18,4.51,3,6.59,5.69,6.59a6.37,6.37,0,0,0,6.13-6.67C194,114.54,193.17,110.91,190.46,110.91Z"/><path class="cls-13" d="M190.31,111.93c-2.53,0-7.42,3.33-7.57,6.85-.18,4,2.82,6.34,5.35,6.34a6.18,6.18,0,0,0,5.65-6.41C193.65,115.19,192.83,111.93,190.31,111.93Z"/><path class="cls-14" d="M190.31,113.29c-2.53,0-7.43,2.87-7.43,5.93a5.62,5.62,0,0,0,5.21,5.54,5.72,5.72,0,0,0,5.32-5.54C193.41,116.16,192.83,113.29,190.31,113.29Z"/><path class="cls-6" d="M190.31,113.29a9.81,9.81,0,0,0-6,3,5.07,5.07,0,0,0,.06,6.07c.52.71,1.41.8,2.62,1.1a6.33,6.33,0,0,0,6-2.14,5.25,5.25,0,0,0,.44-2.09C193.41,116.16,192.83,113.29,190.31,113.29Z"/><path class="cls-13" d="M187.92,116.17c-2,0-3.68,2-3.65,4.41a3.7,3.7,0,0,0,3.82,4.18,4.32,4.32,0,0,0,1.53-.29,4.47,4.47,0,0,0,2.06-4C191.65,118.1,190,116.15,187.92,116.17Z"/><path class="cls-6" d="M185.9,120.25a.44.44,0,0,0-.39.52.52.52,0,0,0,.62.33.43.43,0,0,0,.39-.52A.52.52,0,0,0,185.9,120.25Z"/><path class="cls-6" d="M185.13,117.9a.76.76,0,0,0-.67.9.9.9,0,0,0,1.06.57.77.77,0,0,0,.68-.9A.91.91,0,0,0,185.13,117.9Z"/><path class="cls-2" d="M178.16,126.66l9.52-1.2,9.52.31C190.32,120.86,181.37,121.75,178.16,126.66Z"/><path class="cls-3" d="M178.16,126.66l19-.89C191.65,122.78,181.88,122.93,178.16,126.66Z"/><path class="cls-4" d="M194.61,123.85l-.09,0a16.85,16.85,0,0,0-10-1.36,11.79,11.79,0,0,0-3.87,1.41l-.11.06a5.57,5.57,0,0,0-2.38,2.74,9.57,9.57,0,0,1,6.43-3.86,16.82,16.82,0,0,1,12.61,3A5,5,0,0,0,194.61,123.85Z"/><path class="cls-15" d="M238.58,78.3c-6.91,1.85-13.86,7.75-18.92,19.12s-8.47,27-17.76,31.94-11.27-1.71-17.74.89c1.93,4.14,8.41,6.88,17.74,3.46C212,130,216.09,118.56,220,108.43c4.23-11,9.82-22,16.67-25,7.39-3.26,10.07-.77,10.72,2.15C248.28,82,245.48,76.46,238.58,78.3Z"/><path class="cls-16" d="M238.58,78.3c-6.91,1.85-13.86,7.75-18.92,19.12s-8.47,27-17.76,31.94-11.51-1.46-15.75.91c1.74,3.2,7.28,5,15.63,1.87,9.47-3.53,12.84-14.12,16.75-24.24,4.23-11,10.74-22.92,17.59-25.95,7.39-3.26,11.43-.31,11.27,3.62C248.28,82,245.48,76.46,238.58,78.3Z"/><path class="cls-17" d="M241.18,77.76a10.24,10.24,0,0,0-2.65.37c-5.43,1.45-13.13,6-19,19.22-1.26,2.82-2.44,6-3.57,9-3.53,9.43-7.18,19.18-14.11,22.84a13.72,13.72,0,0,1-6.39,1.85,14.07,14.07,0,0,1-4.35-.84,12.8,12.8,0,0,0-3.86-.77,8.17,8.17,0,0,0-3.13.65l-.17.07.08.17c1.47,3.15,5.28,5.11,9.95,5.11a23.33,23.33,0,0,0,8-1.57c9.82-3.6,14.08-14.66,17.84-24.43l.37-.94c5.5-14.27,10.93-22.42,16.57-24.91a15.13,15.13,0,0,1,5.88-1.53,4.25,4.25,0,0,1,4.59,3.55l.16.74.19-.74a6.66,6.66,0,0,0-1.22-5.48A6.27,6.27,0,0,0,241.18,77.76Zm1.44,3.94a15.61,15.61,0,0,0-6,1.56c-5.74,2.53-11.22,10.75-16.77,25.11l-.36.95c-3.73,9.69-8,20.67-17.63,24.22a23.14,23.14,0,0,1-7.89,1.54c-4.44,0-8.08-1.81-9.54-4.73a7.75,7.75,0,0,1,2.81-.55,12.56,12.56,0,0,1,3.75.75,14.31,14.31,0,0,0,4.46.86,14.08,14.08,0,0,0,6.55-1.89c7.05-3.73,10.73-13.55,14.28-23,1.14-3,2.31-6.18,3.56-9,5.84-13.12,13.45-17.58,18.8-19a10,10,0,0,1,2.56-.37,5.87,5.87,0,0,1,4.87,2.24,6.37,6.37,0,0,1,1.29,4.43A4.56,4.56,0,0,0,242.62,81.7Z"/><path class="cls-1" d="M157.93,137.63l-14.87,5.31c-18.38,7-18.51,15.09-18.33,17.65.11,1.53.7,2.17-1,4.47-2,2.77-1.4,5.65-.54,7.86s.67,3.21-.42,5.22c-1.18,2.19-.38,4.72.51,7.64s-4.28,15.27-2.23,16.61,26.16-9.94,32.05-29.52C158.58,154.7,176.15,140.94,157.93,137.63Z"/><path class="cls-2" d="M157.93,137.63l-14.87,5.31c-14,6.1-12.51,15.09-12.33,17.65a6.44,6.44,0,0,1-1.43,5.18c-2,2.77-1.13,3.34-.27,5.54s2.7,5.58,1.61,7.6c-1.18,2.19-1.87,1.72-1,4.63s-9.73,20.46-2.61,16.92c4.62-2.76,19.36-9.68,26.07-27.59C158.58,154.7,176.15,140.94,157.93,137.63Z"/><path class="cls-3" d="M157.93,137.63l-11.17,0-3.7,5.27c-14,6.1-15.45,14.88-15.28,17.44.11,1.53.61,2.86-1.07,5.15-2,2.77-.65,4.68.21,6.88s.14,4.48-1,6.5c-1.18,2.19.27,3.44,1.16,6.36s-7.2,18.73-.08,15.19c4.62-2.76,18.8-11.38,24.54-28.26C157.05,154,172.36,141,157.93,137.63Z"/><path class="cls-4" d="M160.91,138l-.1,0a6.5,6.5,0,0,0-2.88-.34c4.09.75,6.53,2.07,7.46,4,1.6,3.39-1.25,8.45-4.85,14.86-2.72,4.84-5.8,10.32-7.59,16.28-4.69,15.59-21.36,26.17-28.7,28.85-1.87.69-2.82.75-3.08.58-1-.66.06-4.85,1-8.54.87-3.4,1.7-6.6,1.28-8l0-.14c-.86-2.83-1.61-5.28-.48-7.36s1.32-3.11.43-5.38c-.76-1.95-1.54-4.87.51-7.69,1.4-1.9,1.27-2.73,1.12-3.78,0-.25-.08-.51-.1-.8-.47-6.81,5.8-12.91,18.15-17.64a16.87,16.87,0,0,0-5,1.77l-.11,0c-9.18,4.44-13.78,9.86-13.37,15.84,0,.31.06.58.1.83.15,1,.26,1.74-1,3.52-2.17,3-1.36,6-.56,8s.65,3.11-.42,5.08c-1.2,2.22-.43,4.73.46,7.64l0,.13c.39,1.27-.46,4.58-1.29,7.78-1.08,4.18-2.1,8.13-.87,8.93a1.21,1.21,0,0,0,.62.14,9.82,9.82,0,0,0,2.79-.68,55,55,0,0,0,15.38-9.55c4.72-4.08,10.9-10.78,13.53-19.53,1.78-5.93,4.85-11.39,7.56-16.22,3.65-6.49,6.54-11.62,4.86-15.19C165,140,163.4,138.8,160.91,138Z"/><path class="cls-3" d="M217.32,104.9c7.73-17.46,15-24.83,25.1-26.21C232.42,78.53,222.9,87.62,217.32,104.9Z"/><path class="cls-2" d="M225,167.15c-1.08-.7-11-1.88-14-3.85C211.86,165.44,221.18,166.94,225,167.15Z"/></svg>