<svg id="Layer_1" data-name="Layer 1" xmlns="http://www.w3.org/2000/svg" viewBox="0 0 60 30"><defs><style>.cls-1,.cls-3{fill:#fff;}.cls-1{stroke:#210e04;}.cls-1,.cls-4{stroke-miterlimit:10;stroke-width:0.5px;}.cls-2{fill:#231007;}.cls-4{fill:#f58d3c;stroke:#96400f;}</style></defs><path class="cls-1" d="M58.94,15.35a16,16,0,0,1-.17,2.06,15.09,15.09,0,0,1-1.65,5,13.79,13.79,0,0,1-4.19,4.81,11.51,11.51,0,0,1-8.42,2.1c-6.4-1-10.81-7.35-10.21-14.51,0-.35.07-.71.12-1.06C35.57,6.14,42,.82,48.68,1.84,54.79,2.77,59.07,8.6,58.94,15.35Z"/><ellipse class="cls-2" cx="49.99" cy="19.28" rx="8.71" ry="7.72" transform="translate(23.43 65.81) rotate(-81.36)"/><ellipse class="cls-3" cx="54.8" cy="15.94" rx="2" ry="1.77" transform="translate(30.81 67.72) rotate(-81.36)"/><path class="cls-1" d="M22.46,14.66c0,.2-.05.41-.08.62A15.84,15.84,0,0,1,20.89,20a13.29,13.29,0,0,1-3.68,4.57s0,0,0,0a9.59,9.59,0,0,1-7.36,2.09C4.38,25.83.66,20,1.1,13.42c0-.44.08-.9.15-1.35C2.34,4.89,8-.2,13.79.69,19.45,1.54,23.24,7.73,22.46,14.66Z"/><ellipse class="cls-2" cx="14.73" cy="17.14" rx="8.24" ry="6.7" transform="matrix(0.15, -0.99, 0.99, 0.15, -4.43, 29.12)"/><ellipse class="cls-3" cx="18.94" cy="13.93" rx="1.89" ry="1.54" transform="translate(2.33 30.57) rotate(-81.36)"/><path class="cls-4" d="M22.46,14.66c-.39.08-.77.14-1.16.19s-.77.12-1.15.16c-.8.11-1.58.18-2.36.23a48.15,48.15,0,0,1-9.41-.35A54.15,54.15,0,0,1,1.1,13.42c0-.44.08-.9.15-1.35C2.34,4.89,8-.2,13.79.69,19.45,1.54,23.24,7.73,22.46,14.66Z"/><path class="cls-4" d="M58.94,15.35c-.58.17-1.17.32-1.75.44l-.62.14q-1.76.36-3.48.54a46.6,46.6,0,0,1-10.32,0,53.34,53.34,0,0,1-8.47-1.65c0-.35.07-.71.12-1.06C35.57,6.14,42,.82,48.68,1.84,54.79,2.77,59.07,8.6,58.94,15.35Z"/></svg>