<svg id="Layer_1" data-name="Layer 1" xmlns="http://www.w3.org/2000/svg" viewBox="0 0 280 256"><defs><style>.cls-1{fill:#750606;}.cls-2{fill:#f4635b;}.cls-3{fill:#62add3;}.cls-4{fill:#fff;}.cls-5{fill:#ea1602;}.cls-6{fill:#bf120a;}.cls-7{fill:#4896b5;}.cls-8{fill:#e0504c;}.cls-9{fill:#f95850;}.cls-10{fill:#700;}.cls-11{fill:#161616;}.cls-12{fill:#6b0303;}.cls-13{fill:#5889d9;opacity:0.2;}</style></defs><path class="cls-1" d="M159.29,155.22c.16.2.33.4.5.59a19,19,0,0,1-4.1.66,5.7,5.7,0,0,0-.38-2.54C156.62,154.37,158,154.64,159.29,155.22Z"/><path class="cls-2" d="M155.55,156.47c-11.79.61-19.09-11.82-16.91-22.69,1.53-7.6,7.63,12.35,10.31,18.67a11,11,0,0,0-.18-2.2C151,152.57,155.74,152.62,155.55,156.47Z"/><path class="cls-3" d="M178.13,122.34l0,0Zm.08.25s0-.06,0-.08S178.21,122.56,178.21,122.59Zm.15.44c-1.34-4.39-6.19-3.2-4.79,1.36,1.49,4.1,5.92,2.9,4.77-1.43A.25.25,0,0,1,178.36,123Zm.08.23a.43.43,0,0,1,0-.05A.43.43,0,0,0,178.44,123.26Zm1.46,2.3c-2,11.14-13.67-2.74-6.9-9.32C177.11,117.5,179.6,121.45,179.9,125.56Z"/><path class="cls-3" d="M159.77,127.52c5.2,5.87-.79,10.14-6.94,10.35C144.07,131.58,152,115.86,159.77,127.52Zm-1.44,7c4-1.56,1.56-8.86-2.59-7.63C151.69,128.4,154.18,135.72,158.33,134.48Z"/><path class="cls-4" d="M170.86,115.67a15,15,0,0,1,2,.51c-2.51,2.79-2.55,6.9-1.29,10.17a14.49,14.49,0,0,1-3.38-10.9A15,15,0,0,1,170.86,115.67Z"/><path class="cls-4" d="M152.61,137.86c-11.49,1.07-12-9.78-2.21-13.65A9.72,9.72,0,0,0,152.61,137.86Z"/><path class="cls-5" d="M277.54,161.57a28.58,28.58,0,0,1,.49,2.89c-13.16-7-21.07-21-30-32.51C265.57,136.29,267.67,149.72,277.54,161.57Z"/><path class="cls-5" d="M279.25,160.29a26.32,26.32,0,0,1-1,10.21c1.48-13.55-7.17-26-18.14-33.14-19.75-9.76-51.05-23.21-40.43-50.8C246.06,87.15,277.87,134.19,279.25,160.29Z"/><path class="cls-6" d="M180.79,146.63a16.57,16.57,0,0,0,9.07,2.68C186.29,153.76,182.9,150.45,180.79,146.63Z"/><path class="cls-5" d="M217.57,87.94a2.44,2.44,0,0,1,1.48.21c-5.58,10.35,10.38,38.23-12.59,26.78a4,4,0,0,1,3.23-.19c-1.67-1.12-4,.09-5.72.75C208,108.38,201.38,88,213.57,92a13,13,0,0,0-.63,2.86C214,92.47,214.88,88.81,217.57,87.94Z"/><path class="cls-5" d="M187.92,110.7c3.08,3.21,4.42,9.39-.21,11.81-.8.41.41-1.76.37-2.69a10.58,10.58,0,0,1-5.26,7.36c-3.86-2.34-2.57-7.9-7.18-10.33a11.74,11.74,0,0,0,3.92-2.64c0,.13,0,.26,0,.39C178.63,108.4,184.35,105.12,187.92,110.7Z"/><path class="cls-5" d="M203.72,93.82l.56-.34c5.46,17.77-8.38,28.28-13.91,26.74,1.16-4.83-2.23-11.4-6.85-13.12.43-3.59,7.33-7.61,11.46-5.41.22.12-.28.42-.4.62.69-1.18,2.27-.07,3.39,0a21.93,21.93,0,0,0-2.62-.9A39.18,39.18,0,0,1,203.72,93.82Z"/><path class="cls-7" d="M177,126.83a1.92,1.92,0,0,1-1.23,0,5.08,5.08,0,0,1-.73,2.62c12.54,1.86-2.08-21.79-3.86-8.78a3.07,3.07,0,0,1,2.3,1.09c1.15-3,4.31-1.06,4.85,1.26a.25.25,0,0,0,0-.07C178.73,124.31,178.57,126.31,177,126.83Z"/><path class="cls-5" d="M205.09,175.67c-7.55,27.61-70.91,58.67-89.91,32.84a14.31,14.31,0,0,0,2.58,1.72,18.36,18.36,0,0,0,.18,2.12c-1.83-29.15,35.69-25.84,54.39-19.41C184.63,191.13,198,186.49,205.09,175.67Z"/><path class="cls-5" d="M195.22,177.56a11.32,11.32,0,0,1,2.8,1.18c-18.18-1.09-20.6,19.11-35.44,10.75C172.12,183.2,183.24,175.39,195.22,177.56Z"/><path class="cls-7" d="M149.2,127.62a4.61,4.61,0,0,1,4.56,1.71c3.74-9.2,11.35,7.48,2.21,4.9a4.7,4.7,0,0,1-1.18,3.41C170.73,137,153.66,114,149.2,127.62Z"/><path class="cls-5" d="M191.63,159.57a28.61,28.61,0,0,0,3.26,2.1c-9.37-2.3-17.9-8-20.09-17.83,1.82,6.93,5.15,13.88,10.25,19-7.21-3.65-15.29-10.53-15.72-19.1a2.2,2.2,0,0,0-.36,0c-.86,5.78,4.57,9.18,6.86,13.76-.89,23.41-66.22-.09-79.8-5.34-29.6-10.23-53-34.74-84.69-39,19.14.72,36,10.91,51.94,20.5,30.59,17.79,68.06,32.62,103.83,26.73-5.1-1.09-9.07-7-11.45-11.59a19.3,19.3,0,0,0,3.4,6.17c-11.34-3.14-20.64-14.46-20.45-26.35a22.44,22.44,0,0,1,1.44,2.1c-.75-2.36-9.39-4-6.08-4.1,9.47-.26,2.56,13.15,5.45,19.48l-2.07.59c-2.7-4.23-6-6.48-9.2-1.28-1.58-3.64-2.42-4.7-8.3-3.36-3,.69-7.19,1.72-6.54-2.45-2.35-5.88-.62-13.13-4.21-7.14-1.6,2.68-3.5-1.15-4-3.69-1.41-6.52-.5-9.63-3-6.44-.47.6-1.52-.12-1.4-1.08,5.25-1.44,2.05-15.56-3.1-9-9.57-8.58,5.38-38.89,17.87-26.18a7.94,7.94,0,0,0-1.86-2c3.37-4.8,9.86-4.86,13,.27-1.24-.37-2.48-.72-3.73-1,15,5.23,31.49,12,40.45,25.83a6.3,6.3,0,0,0-1.46.44,7.26,7.26,0,0,1,8.84,5.71,10.42,10.42,0,0,0-2.44.09,8.81,8.81,0,0,1,.39-1.63c-5.11,11.59,10.91,16.66,11.68,26.8a22.82,22.82,0,0,1-2.22-3.78,20.51,20.51,0,0,0,11,12.06c-6.29-.36-10.68-4.28-13.26-9.8A61.92,61.92,0,0,0,191.63,159.57ZM162.2,133.93q.53-.54,1-1.11c-.34.31-.67.61-1,.9.41-4.76-3-9-7.33-10.85.52-.09,1-.17,1.57-.22-7-.51-14.32,4.59-13.84,12-.49-.33-1-.67-1.42-1C146.78,139.53,156.72,140.34,162.2,133.93Zm-.82,4.54a14.78,14.78,0,0,1-11.73,1.83A10.23,10.23,0,0,0,161.38,138.47ZM141.89,127.8c1.18-2.14,6.2-13.93,9.53-8.9C147.19,113.49,142.88,124.34,141.89,127.8Zm-14.41,3.39c-3.07-1.85-5.81-4.49-6.79-8C120.71,127,124,130.18,127.48,131.19Zm-6.93-15a19.19,19.19,0,0,0,6.08,1.46,22.14,22.14,0,0,1-17.8-17.58A19.86,19.86,0,0,0,120.55,116.17Z"/><path class="cls-5" d="M184.23,105.06a9.39,9.39,0,0,0-.87,1.41,7.51,7.51,0,0,0-4.45-3.87c.57-1.48-2.22-5.07-.73-4.54A10,10,0,0,1,184.23,105.06Z"/><path class="cls-6" d="M182.27,127.72a3.88,3.88,0,0,1-3.09,4.39,2.4,2.4,0,0,0,1.6-.22,16.59,16.59,0,0,1-1.17,4.38c-.86-2.57-3-4.43-4.85-6.33,2.61.28,5.63-.27,6.26-2.91a4.69,4.69,0,0,1-.82.94c0-.76.05-1.53,0-2.28A3.17,3.17,0,0,1,182.27,127.72Z"/><path class="cls-5" d="M177.44,98.16c1.4,1.2,2.15,6.2-.93,4.64.14-.45.29-.89.41-1.34-2,3.7-3.79,7.85-7.07,10.61a5.54,5.54,0,0,0-3.37-2.72c3-3.34,6.27-6.82,7.75-11.14-.18.36-.39.71-.59,1.05C172.43,96,176.08,96.22,177.44,98.16Z"/><path class="cls-5" d="M170.78,103.25c-.6.78-1.2,1.56-1.79,2.35-.1-3-2.27-5.13-3.93-7,1.6-.4.09-5.47,1.21-4.7C169.33,96,170.66,100.17,170.78,103.25Z"/><path class="cls-5" d="M165.43,93.42c.93,1.29,1.29,4.65-.37,5-.9.21,0-1.83-.15-2.64-.09.86-.18,1.77-.31,2.67h0l0,0c-.38,2.78-1.1,5.66-3,7.69a36.13,36.13,0,0,0-5.18-5.94c2.48-1.26,4.81-3.44,5.23-6.28a13.26,13.26,0,0,1-1,1.59C159.64,92.14,163.57,91.44,165.43,93.42Z"/><path class="cls-6" d="M159.94,156a21.42,21.42,0,0,0,1.68,1.62c-4.65,2.74-10.44,2.33-15.63,2.63.08-5.82-7.67-7.64-8.64-13.54l2.07-.59C142.69,153.74,152.13,158.84,159.94,156Z"/><path class="cls-5" d="M156.14,91.38c.84,3.11,4.08,8,0,8.59-5.73.82,2.59-12.2-6.08-13.24C153,86.08,155.13,88.84,156.14,91.38Z"/><path class="cls-5" d="M151.07,87.64c1.79.74,4.68,3.34,3.26,5.4a10,10,0,0,0-.43-1.89,50.46,50.46,0,0,1-.41,6.61c-3.18-2.41-10-5.41-3.7-8.59a1.87,1.87,0,0,0-1.81.39C146.88,87.32,149.56,86.92,151.07,87.64Z"/><path class="cls-5" d="M145.39,157.89a5.07,5.07,0,0,1,.3,3.44c-6.83,1.62-11-10.15-17.52-5.77a9.11,9.11,0,0,1,.12-9.37c4.3-7.61,7.44-2.39,9.56,3.13C139.48,152.86,143.75,154.31,145.39,157.89Z"/><path class="cls-5" d="M143.35,91.31c-5.62-1.32-.58-7.29-4.87-10C142,83.25,142.43,87.86,143.35,91.31Z"/><path class="cls-5" d="M140.16,169.57c2,4.72.82,12.07-5.34,12.12-.29-7.67-13.32-12-18.81-7.41-7.17-6.47,6.83-8.27,10.15-11.51q7.17,1.83,14.45,3.11a8.47,8.47,0,0,0-.86,2.17,12.32,12.32,0,0,0-.83-1.25A18.69,18.69,0,0,1,140.16,169.57Z"/><path class="cls-5" d="M139.1,82.69c.84.77,1.72,2.26.76,3.27a7.5,7.5,0,0,0-2.64-2.87c1.54,1.79,2.95,4.15,2.86,6.56q-3.72-1.82-7.61-3.3c.57-1.16,2.83-4.27,2.21-3.12-1,1.92-2.07,4.3-1.5.81C132,80,137.4,80.24,139.1,82.69Z"/><path class="cls-6" d="M132.79,155.93a31.22,31.22,0,0,1,6.26,4.77c-4.48-.62-9-1.42-13.39-2.37C127.1,155.75,130.13,154.13,132.79,155.93Z"/><path class="cls-5" d="M134.49,182a10,10,0,0,1-1.09,5.31,12.43,12.43,0,0,0-5.08-3.11,23,23,0,0,1,6,5.12,20.36,20.36,0,0,0-16.55,20.94c-8.91-4.84-12.67-21.1-1.51-25.21a6.6,6.6,0,0,0-3,1.18C110.16,170.59,131.22,168.59,134.49,182Z"/><path class="cls-6" d="M125.66,141.42c3.59,3,1,9.9.89,9.73,0,0-5.86,2.15-6.58-4,0-1.52,3-.34,4.55-.21a2.82,2.82,0,0,1-2.41,2c4.71.46,3.56-6.72.42-7.91a3.94,3.94,0,0,1,.77.81q-1.72.12-3.45.21C120.47,138.16,124,139,125.66,141.42Z"/><path class="cls-5" d="M124.62,145.47a3.84,3.84,0,0,1,0,1.23c-6.31-.66-12.39.94-18.46,2.36a4,4,0,0,0,.44-1.69c-.75,1.29-1.52,2.78-3.13,3,2.15-3.54,1.56-8.06-3.51-7a7.14,7.14,0,0,1,2.33.19c-2.18.41-3.68,2.45-4.58,4.33-2.83-4.71,4.15-10.86,7.47-5.23a5.37,5.37,0,0,0-.51-.8C110.59,145.13,123.12,138.55,124.62,145.47Z"/><path class="cls-6" d="M115.63,133.79c.79,2.16.37,5.23-2.38,5.44a1.18,1.18,0,0,1,0-.2c-.52.63-1.85-.36-2.3-1a22.46,22.46,0,0,0,2.43-.93,1,1,0,0,1-1.26.69c3.25,1.21,2.21-6.56-.85-5.93a2.51,2.51,0,0,1,.83.43,19.06,19.06,0,0,1-2.93.18C110.07,127.9,115.32,130,115.63,133.79Z"/><path class="cls-5" d="M83.43,101.29s.25.2.6.45c-14.53-11.9,4.53-30,17.5-32.54,6.16.56,10,8,14.18,12.19a12.85,12.85,0,0,0-2.36,2.53C100,76.7,87.82,104.11,97.48,112.31a2.34,2.34,0,0,0-.39.68c-11.56-.17-27.33-6.14-18.67-20a13.42,13.42,0,0,0,5,8.28Z"/><path class="cls-5" d="M113.42,135.12c.67,1.94-1.19,2.22-2.71,2.58,0,0,0,0,0-.08s0,0,0,.08c-5.64,1.34-11.54.44-17.11-.78a7.54,7.54,0,0,0,1-.71c-2,.55-4.51,1.74-6.31.18,4.92-1.18,5.1-6.27.09-7.67.71.27,1.36.55,1.13,1.41a15,15,0,0,0-3.08.23c1.79-5.47,5.57-2.22,8.17.62-.36-.52-.77-1-1.18-1.51C98.57,133.61,113.12,130.71,113.42,135.12Z"/><path class="cls-6" d="M108.25,124.72c.65,3.73-2.8,4.69-5.55,2.79a11.41,11.41,0,0,0,3.26-.87.79.79,0,0,1-.66.67c2.78-.59.75-5.45-1.7-5.51a11.85,11.85,0,0,1,1,.8c-.78,0-1.58-.14-2.37-.26C103.29,117.57,108.36,121.41,108.25,124.72Z"/><path class="cls-5" d="M106,125c-2.15,5.2-13.28.68-17.29-2.06a6.76,6.76,0,0,0,1.1-1c-2.16,1.43-4.93,1.57-6.78-.5a12.53,12.53,0,0,1,3.08-.77c0,.38-.08.76-.12,1.13A4.63,4.63,0,0,0,83.12,115c.2.14.39.29.59.45-.9.15-1.81.33-2.7.56,3.06-5,6.48-.76,9,2.24-.17-.36-.38-.73-.59-1.08C94.18,122.35,104.09,121,106,125Z"/><path class="cls-5" d="M103.35,144c2.57,1.59-.43,5.46-1.07,7.53-1.66-.57-3.3-1.16-4.94-1.77C97.59,147.38,100.05,142.6,103.35,144Z"/><path class="cls-6" d="M102.69,115.63c.85,4.14-2.91,8.29-4.61,2.59-.18-.6,1.26-.08,1.88-.15a3.34,3.34,0,0,1-.45.48c2.77-.73,1.53-4.52.14-6.22.09.34.19.68.29,1-1-.12-1.9-.23-2.85-.36C100,108.34,103.05,111.45,102.69,115.63Z"/><path class="cls-5" d="M101,154.67a46.84,46.84,0,0,0-3.28,20.25c0-.82,0-1.64.1-2.45,6.24,6.13-8.6,12-5.13,1.4,0,.68,0,1.36-.06,2,.88-7.77,1.69-15.52,3.7-23.1Q98.6,153.76,101,154.67Z"/><path class="cls-5" d="M100.29,204.25a57.68,57.68,0,0,1-7-24.19c1.32,1.08,3.76.36,4.88-.91C97.33,187.49,97.32,196.32,100.29,204.25Z"/><path class="cls-5" d="M101.11,68.66c-14.66,2.67-23.68,18-25.58,31.35-7.75,4.42-14-10.85-10.29-17.26,1.15,3.8,3.79,7,6.72,9.67C50.31,74.4,87.42,43,101.11,68.66Z"/><path class="cls-5" d="M89.49,129.31c1.86,1.14,3.13,3,1.68,5.19C84.39,136.31,80,145,73.41,138.8c4.49-4.38,9.79-8.43,16.2-8.66h-.14Z"/><path class="cls-5" d="M85.69,118a4.59,4.59,0,0,1,.38,2.56c-5.79-.46-36.83,22.33-28.67,9C59.31,128.41,80.47,110.17,85.69,118Z"/><path class="cls-5" d="M100.7,115.74c1.38-5.21-5.72.44-24.77-8.32-.26-.12.2.53.26.82-1.82-3.88-5.33-3.83-8.13-1.13a13,13,0,0,1,3-.27l-.25-.16c3.41.38,2.42,4.11-.14,5.09l.14-.19c-.57.13-1.13.27-1.69.43,1.09,2.81,4.47.3,6.07-.66a7.86,7.86,0,0,1-1.32,1.38c2.06,1.33,7,3.68,7.48,2.48-.66-2.25,5.71-1,7.63,1.28S101.54,120.54,100.7,115.74Z"/><path class="cls-5" d="M85.25,57.53C75.49,59.74,64,68.94,64.67,79.81c-23.31,3.54-7.58-39.9,10.25-28.5.57.36-1-.93-1.47-1.37A24,24,0,0,1,85.25,57.53Z"/><path class="cls-5" d="M76.9,143.92a61.67,61.67,0,0,0-10.59,13.76c.38-.57.79-1.13,1.19-1.7,1,12.21-15.17-.81-5.23-4.17-.56.91-1.11,1.83-1.62,2.76C65.41,149.32,69.09,137,76.9,143.92Z"/><path class="cls-5" d="M71.32,107c2,1.11,1,3.08-.31,4.35-12.72-.3-18.18,19.35-29.42,9.65a6.7,6.7,0,0,1,3.94-1.28l-1.12,1C52.59,114.63,61.18,107.18,71.32,107Z"/><path class="cls-5" d="M72.35,49.16C57.82,47,52.38,64.07,52.44,75.39c-8.13,5-13.33-8-10.23-14.23,1.33,3.67,4.76,6.14,8.13,8C27.9,56,57.5,32.42,72.35,49.16Z"/><path class="cls-6" d="M64.67,79.81c3.72,8.67-16.48,8.93-11.3-7.63C55.26,67.9,59.53,81.38,64.67,79.81Z"/><path class="cls-5" d="M61.35,160.68a8.09,8.09,0,0,0,1.94.78,37.53,37.53,0,0,0-9.12,20.3,53.63,53.63,0,0,1,4.7-24.42A5.3,5.3,0,0,0,61.35,160.68Z"/><path class="cls-5" d="M61.38,135.23c-2,1.73-4,3.54-6,5.36.48-.41,1-.8,1.46-1.2-2.93,9.08-13.21-3.14-5-5.11l-1.5,1.65C54.06,130.92,56.83,131.61,61.38,135.23Z"/><path class="cls-5" d="M56.67,42.51C46.42,44.25,41,63.31,41,63.31,23.7,60.11,40.5,30,56.67,42.51Z"/><path class="cls-5" d="M49.93,142.17a4.81,4.81,0,0,0,2.89,1c-6.07,6-11.59,13.23-13.53,21.63,0-9.48,4-18.76,9.08-26.67A4.82,4.82,0,0,0,49.93,142.17Z"/><path class="cls-5" d="M48.84,39.29C45,39.13,42,40.88,38.39,38.85,41.71,37.53,45.84,37.2,48.84,39.29Z"/><path class="cls-6" d="M46.86,126.25c-2-.3-3.81-.84-5-2.48C43.47,124,45.26,125.52,46.86,126.25Z"/><path class="cls-5" d="M43.7,126.11a5.63,5.63,0,0,0,2.24.61c-7.81,4.42-12.81,12.44-16.25,20.47a52.36,52.36,0,0,1,12-23.19A4.1,4.1,0,0,0,43.7,126.11Z"/><path class="cls-6" d="M39.75,63l1.49.42A26.23,26.23,0,0,0,41.06,69c-5.18-.31-7-6.11-6.43-10.65A6.93,6.93,0,0,0,39.75,63Z"/><path class="cls-5" d="M42,40.55c-4.9,5.38-9.53,2.32-16.08,2.69C30.4,39.68,36.62,37.87,42,40.55Z"/><path class="cls-5" d="M36.94,44.88a16.27,16.27,0,0,0-2.78,6.59c-7.93-.1-16.16,1.05-23.25,4.67C15.55,45.89,26.35,41.07,36.94,44.88Z"/><path class="cls-5" d="M34.4,57.65c-1.59,9.89-13.13,16.1-20.81,21.77-21.93,12-16.94-30.92,20.56-27.9A13.37,13.37,0,0,0,34.4,57.65Zm-12,11.88c-10.48,9-22.48,10.68-15.26-7C-1.06,80.23,12.06,79.46,22.37,69.53Z"/><path class="cls-6" d="M34.4,57.65a13.37,13.37,0,0,1-.25-6.13C10.28,53-2.5,77.73,22.37,69.53,7.44,86.13-5.12,75.44,9.15,57.83,2.45,62.29-2.62,73.91,3.37,80.72,12.56,85.34,33.13,66.5,34.4,57.65Z"/><path class="cls-6" d="M34.16,51.47a16.27,16.27,0,0,1,2.78-6.59c-5.94-2-25.25,10.38-26,11.26C18,52.52,26.23,51.37,34.16,51.47Z"/><path class="cls-6" d="M32.05,43.58C36.12,45,37.67,45,41.05,41c-6.49-1.8-15.18,2.2-15.18,2.2A29.78,29.78,0,0,1,32.05,43.58Z"/><path class="cls-6" d="M43.85,39.8a10.24,10.24,0,0,0-5.46-.95C40.36,39,42,41,43.85,39.8Z"/><path class="cls-6" d="M38.19,58c-3.37-2.12-2.41-8.23-1.64-11.37-3.45,5.58-3.35,15.62,4.69,16.8.4-7.31,1.78-14.85,9.34-18.68C43.89,45,37.9,55.93,38.19,58Z"/><path class="cls-6" d="M48,63.69c-8.15-4.54-2.63-12.44-1.95-14.5-6.94,7.39-4.12,15.43,4.28,19.92-3.37-1.81-6.8-4.28-8.13-8-3.1,6.23,2.11,19.22,10.23,14.23.62-8.38,1.41-17.63,8.94-23.31C55.71,52.34,48.53,60.29,48,63.69Z"/><path class="cls-6" d="M59.63,74.11C53.14,66.54,58,57.39,60,54.18,51.75,61,55.36,75,64.67,79.81c7,3.62,5.35-14.37,11.56-18.44C66,62.48,61.19,69.18,59.63,74.11Z"/><path class="cls-6" d="M73.79,88.28c-8.52-4.86-5.77-16-4.39-20.11C62.53,75.4,64.7,86.35,72,92.42c-2.93-2.66-5.57-5.87-6.72-9.67-3.3,6.72,1.47,20.32,10.32,17.72,1.74-12.71,8.27-25,20.81-30.43C85.35,71.09,74.18,84,73.79,88.28Z"/><path class="cls-6" d="M97.53,91.34c2.62-5.52,9.85-11.59,15.82-7.42a12.85,12.85,0,0,1,2.36-2.53c-.61-.79-1.24-1.55-1.88-2.3a28.15,28.15,0,0,1-4.09,2.51c-11.76-5.48-21.25,11-21.11,20.57C74.56,92.15,85.45,79,87.4,76.83,79.55,84,74.17,93.43,84,101.74q-.52-.37-.6-.45l0,0a13.42,13.42,0,0,1-5-8.28c-8.66,13.83,7.11,19.79,18.67,20a2.34,2.34,0,0,1,.39-.68C91.32,108.19,94.66,96.72,97.53,91.34Z"/><path class="cls-6" d="M119.65,80.3c-2.43.17-4.54,2-6.11,3.76a7.94,7.94,0,0,1,1.86,2S116.85,81.5,119.65,80.3Z"/><path class="cls-6" d="M115.4,86.06A8.27,8.27,0,0,0,113,83.88C114,84.73,115.4,86.06,115.4,86.06Z"/><path class="cls-6" d="M143,131.83s3.75-18.42,11.43-8.87C150.55,123.62,145.54,125,143,131.83Z"/><path class="cls-6" d="M170.76,115.66c-4.33-11.43-5.31,2.78-2,6.62C168.09,118.73,166.81,114,170.76,115.66Z"/><path class="cls-6" d="M150.15,140.25a16,16,0,0,0,11.09-3.47C165.11,139.11,151.23,142.58,150.15,140.25Z"/><path class="cls-6" d="M34.94,137.35c2.91-4.22,6.45-8.13,11-10.63a5.31,5.31,0,0,1-3.08-1.18c-2.33,2.84-10.16,11-12.67,20.5A56.46,56.46,0,0,1,34.94,137.35Z"/><path class="cls-6" d="M65.81,112.65c2.45-1.27,6.69-.51,6.67-4.21-3.76,1.26-19.05,5.88-27.12,14.43q2.14,1.11,4.25,2.26A44.35,44.35,0,0,1,65.81,112.65Z"/><path class="cls-6" d="M100.51,116c-1.78-.19-8-.89-14-2.13C88.77,117.15,99.26,120.12,100.51,116Z"/><path class="cls-6" d="M74.76,109.75a4.45,4.45,0,0,0-1.68-1.21c.18,1.46-1.21,2.58-2.39,3.23l.14-.19c-.57.13-1.13.27-1.69.43,1.09,2.81,4.47.3,6.07-.66a7.86,7.86,0,0,1-1.32,1.38c3.55,1.23,6.89,3.62,9.67.5C79.8,112.3,76.45,111.15,74.76,109.75Z"/><path class="cls-6" d="M43.71,154.36a57.62,57.62,0,0,1,9.11-11.22,4.58,4.58,0,0,1-3.3-1.36c-2.38,1.93-9.18,15-10.21,22.9A32.68,32.68,0,0,1,43.71,154.36Z"/><path class="cls-6" d="M52,140.06a4.16,4.16,0,0,1-2.91-.81c.41,4.32,7.21,4.36,7.84.14-.49.4-1,.79-1.46,1.2,2-1.82,3.92-3.63,6-5.36C56.86,131,51,141.47,52,140.06Z"/><path class="cls-6" d="M60.87,131.59c7.85,3.18,15.47-11.7,25.2-11.08C86.09,114,70.77,124.8,60.87,131.59Z"/><path class="cls-6" d="M96.66,126.54c2.48.34,11.9,1.8,9.21-2C93,129.28,86.09,111.06,81.4,115.94c.76-.19,1.54-.35,2.31-.47-.2-.16-.39-.31-.59-.45a4.63,4.63,0,0,1,2.82,6.78c0-.37.09-.75.12-1.13a12.53,12.53,0,0,0-3.08.77c1.86,2.07,4.62,1.92,6.78.5a6.76,6.76,0,0,1-1.1,1A24.62,24.62,0,0,0,96.66,126.54Z"/><path class="cls-6" d="M64.34,155c-.84,1.88-4.24,2.43-5.08,1.26.4,5.75,9.68,6.92,8.24-.23-.4.57-.81,1.13-1.19,1.7A61.67,61.67,0,0,1,76.9,143.92C71.8,140.78,68.48,150.31,64.34,155Z"/><path class="cls-6" d="M61.35,160.68a5.07,5.07,0,0,1-1.11-.88c-1.06,1.95-6.48,14.58-6.07,22a37.53,37.53,0,0,1,9.12-20.3A8.09,8.09,0,0,1,61.35,160.68Z"/><path class="cls-6" d="M90,130c.34.24.7.41,1,.59a6.1,6.1,0,0,0-1.51-1.28l0,.76Z"/><path class="cls-6" d="M79.19,141.86c3.28-4.09,10.37-5,12.6-9.06-1.59.07-7.69,1.48-15.12,7.75C77.51,141,78.34,141.43,79.19,141.86Z"/><path class="cls-6" d="M89.06,130.13l.41-.06c.23-.84-.46-1.08-1.13-1.35,5,1.4,4.83,6.49-.09,7.67,1.8,1.56,4.32.37,6.31-.18a7.54,7.54,0,0,1-1,.71c5.56,1.22,11.47,2.12,17.11.78,0,0,0,0,0-.08s0,0,0,.08c2.23-.26,3.44-1.29,2.51-3.54-18.47,6.28-23.77-11.17-26.83-3.8A15.78,15.78,0,0,1,89.06,130.13Z"/><path class="cls-6" d="M95.85,180.48a4.85,4.85,0,0,1-.72.11,69,69,0,0,0,3.66,18.69,67.61,67.61,0,0,1-.66-20.13A4.83,4.83,0,0,1,95.85,180.48Z"/><path class="cls-6" d="M100.05,157.05c.28-.8.58-1.6.9-2.38l-2.73-1.08c-1.9,3.83-4,16.79-3.46,26.4,3.52.27,6.36-5.74,3-7.52,0,.81-.08,1.63-.1,2.45A47.67,47.67,0,0,1,100.05,157.05Z"/><path class="cls-6" d="M102.28,151.55c3.67-5,1.43-12.07-3.56-4.76,4.62-2.94,3,.46.84,3.8C100.46,150.92,101.37,151.24,102.28,151.55Z"/><path class="cls-6" d="M119.9,146.61a17.27,17.27,0,0,1,4.69.09,6.86,6.86,0,0,0-.48-3.23c-2.07.35-16.32,2.67-19.38.25-2.41-1.4-9.19-3.09-7,4.22.9-1.88,2.4-3.92,4.58-4.33a7.14,7.14,0,0,0-2.33-.19c5.07-1.11,5.66,3.41,3.51,7,1.61-.22,2.38-1.7,3.13-3a4,4,0,0,1-.44,1.69A77.63,77.63,0,0,1,119.9,146.61Z"/><path class="cls-6" d="M145.69,161.33c1.33-5.67-6.77-7.36-7.84-12-.66-2.83-3.34-9.48-7.45-5.94-2.62,2.27,5.17,7.11,7.09,9.56,2.21,2.81,2.21,4.41-1.9,1.21-5.21-3.81-7.42,1.41-7.42,1.41C130.86,163.29,140.23,162,145.69,161.33Z"/><path class="cls-6" d="M140.16,169.57a18.69,18.69,0,0,0-1.24-2.77,12.32,12.32,0,0,1,.83,1.25,8.47,8.47,0,0,1,.86-2.17c-3.1-.54-6.18-1.17-9.24-1.87,1.87,2.36,6.82,9,5,10.68-1-3.29-26.22-9.3-20.38-.41,5.48-4.55,18.52-.26,18.81,7.41C141,181.64,142.18,174.29,140.16,169.57Z"/><path class="cls-6" d="M130.61,190.45a29.31,29.31,0,0,1,3.7-1.16,23,23,0,0,0-5.7-4.93c-12.11.13-24.21,15-10.85,25.87A20.14,20.14,0,0,1,130.61,190.45Z"/><path class="cls-6" d="M116.77,174.38c3,.47,13.82,2.64,11.87,9.9a12.2,12.2,0,0,1,4.76,3C138.74,177.27,124.74,169.9,116.77,174.38Z"/><path class="cls-6" d="M167.25,198.84c-2.33,6.46-43.08,20-49.38,9.47a20.18,20.18,0,0,0,.07,4,18.36,18.36,0,0,1-.18-2.12,14.31,14.31,0,0,1-2.58-1.72c19,25.8,82.28-5.16,89.91-32.84-21.84,28.61-43.28,8.69-70.41,14.13C134.68,189.8,168.06,192.22,167.25,198.84Z"/><path class="cls-6" d="M167.16,191c8,4.74,16.67-14.31,30.86-12.28C186.39,176.32,171.11,187.83,167.16,191Z"/><path class="cls-6" d="M170.13,158.82c-4.53-.71-12.08-7.08-13.68-8.46,2.44,3.91,6.08,9.16,10.66,10a26.56,26.56,0,0,1-8,1.48C163.71,162.8,175.25,159.58,170.13,158.82Z"/><path class="cls-6" d="M157.1,154.3c.65.24,1.3.46,2,.65a19.35,19.35,0,0,1-2.91-4.86S156.55,152,157.1,154.3Z"/><path class="cls-6" d="M169.46,147.23c3.17,1.49,11.77,13.86,15.59,15.59C176.16,159.37,173,153.63,169.46,147.23Z"/><path class="cls-6" d="M175.17,144.93s7.58,13.73,19.72,16.74C185.24,159.75,176,152.2,175.17,144.93Z"/><path class="cls-6" d="M178.08,142.82s6.21,4.8,11,6C186,149,178.56,146.74,178.08,142.82Z"/><path class="cls-6" d="M187.06,122.84a16.76,16.76,0,0,0,1-3,7.59,7.59,0,0,1-.37,2.69c9-3.67-5-20.08-4.49-8.45,1.49,5.85-2,7.72-3.5,8.24-.08,2.75,1.61,3.18,3.1,4.88A10.61,10.61,0,0,0,187.06,122.84Z"/><path class="cls-6" d="M217.51,98.37a30.28,30.28,0,0,1,1.54-10.22c-2.88-.57-4.42,7.51-5.1,12-8.34-12.35-8.47,10.28-10,15.32,1.71-.65,4.05-1.87,5.72-.75a4,4,0,0,0-3.23.19C221,124.48,222.91,108.46,217.51,98.37Z"/><path class="cls-6" d="M202.46,107.25c-10.29-4-12.8,2.49-13.27,4.16,1.62,2.55,2.67,6,1.18,8.81,8.63.86,11.71-5.91,12.25-13.37C202.56,107,202.51,107.12,202.46,107.25Z"/><path class="cls-6" d="M141.92,90.56a25.69,25.69,0,0,0-1.57-5C139.89,87.34,139.72,91.33,141.92,90.56Z"/><path class="cls-6" d="M140.08,89.65c.09-2.41-1.32-4.77-2.86-6.56A7.5,7.5,0,0,1,139.86,86c.87-2.66-3.08-3.59-3.87-3.16C137.87,86.27,135.72,88.74,140.08,89.65Z"/><path class="cls-6" d="M155,91.63c-.59,2.79-2.09,6.68,1.12,8.34C157.12,96.7,155.56,93.05,155,91.63Z"/><path class="cls-6" d="M151.42,89.21c1.79,1.78-.63,4.81-1.62,5.91,1.27.83,2.5,1.7,3.69,2.64a50.46,50.46,0,0,0,.41-6.61,10,10,0,0,1,.43,1.89C156.1,91.2,151.92,87.91,151.42,89.21Z"/><path class="cls-6" d="M166.45,95.65c0,.93-.32,2.92-1.39,3,1.66,1.85,3.83,4,3.93,7C170.67,103.23,167,97.42,166.45,95.65Z"/><path class="cls-6" d="M161.61,106.19c1.89-2,2.61-4.91,3-7.69l0,0h0c.13-.9.22-1.81.31-2.67a15.91,15.91,0,0,1,.15,2.64c2.29-.77.3-7.08-1.41-3.53,1,2.87-3.61,7.62-4.32,8.33A34,34,0,0,1,161.61,106.19Z"/><path class="cls-6" d="M183.4,106.39c-1.27-4-3.48-4.9-4.24-5a3.55,3.55,0,0,1-.25,1.17,7.51,7.51,0,0,1,4.45,3.87S183.39,106.42,183.4,106.39Z"/><path class="cls-6" d="M169.85,112.07c3.28-2.76,5.05-6.91,7.07-10.61-.12.45-.27.89-.41,1.34,2.25,1.15,3-1.45,2-2.66a2.24,2.24,0,0,0-2.71-.81c-.63,3.6-6,10-7.12,11.21A5.53,5.53,0,0,1,169.85,112.07Z"/><path class="cls-6" d="M235.4,118.07c-17.41-10-16.94-25.68-16.69-28.59-9.66,41.46,53.56,37.15,59.11,72.28C279.37,144.53,254.64,129.09,235.4,118.07Z"/><path class="cls-6" d="M277.68,162.28c-8.75-11.9-13.09-26.41-29.64-30.33C254.34,142.31,271,158.4,277.68,162.28Z"/><path class="cls-6" d="M175.83,157.44c0-.06,0-.13-.07-.19C167.47,181,71.59,143.43,65,136.91,80.11,147.52,172.27,185.83,175.83,157.44Z"/><path class="cls-6" d="M190.51,148.53a110.17,110.17,0,0,0,9.15-19.92c-7.59,18.71-13.53,17.83-13.53,17.83C187.39,147,189.38,149.31,190.51,148.53Z"/><path class="cls-8" d="M152.66,152.71a26.72,26.72,0,0,1-3.89-2.46,11,11,0,0,1,.18,2.2c1.14-.84,5.92,1.41,6.6,4C155.64,154.45,154.49,153.31,152.66,152.71Z"/><path class="cls-8" d="M143.71,145a33.6,33.6,0,0,1-5.07-11.2c-1.2,19.1,3.41,8.2,10.31,18.67C148.79,149.06,145.2,147.76,143.71,145Z"/><path class="cls-4" d="M155.49,123.63c3.1,1.68,1.72,4.3-1.42,2.69S152.35,122,155.49,123.63Z"/><path class="cls-4" d="M176.15,117.94c2.34,1.25,1.32,3.24-1.05,2S173.78,116.75,176.15,117.94Z"/><path class="cls-9" d="M126,85.87c-2.1-1.63,45.13,22,20.71,25.39,2.4.8,9.48,2.94,10.95,4.94-1.57-3.74,3-7.67,4.41-7.21C158.9,103.77,138.06,88.41,126,85.87Z"/><path class="cls-10" d="M219.67,86.57a5.87,5.87,0,0,0-1.51.86,14.93,14.93,0,0,1,4.05-.67,22,22,0,0,0-2.54-.19Zm3,.19h-.47c27.62,3.68,63.24,56.65,56,83.74l0,0a25.17,25.17,0,0,0,1.27-9.74c1.44-21.13-32.66-74-56.87-74Zm-4.52.67h0v0l0,0Z"/><path class="cls-10" d="M33.21,52.46h.08a10.89,10.89,0,0,0,.41,5.2l-.06.52a13.88,13.88,0,0,0-.1,2.36l-.24.38C28.8,67.73,15.63,80.09,7.69,81.07v-.88c-4.53,0-6.15-3.53-6.15-6.84,0-8.66,9.66-20.85,31.11-20.85v0h.56m172,43.2a42.15,42.15,0,0,0-.67,8.65c-.07,4.1-.13,8.33-1.48,10.69l-1.39,2.44.85-.33a102.9,102.9,0,0,1-12.51,30.55l-2.18-1.33c5.67-4.44,8-12,10.18-19.4a85.84,85.84,0,0,1,2.88-8.53l.94-2.22-1.1.45c2.83-4.28,3.35-10.8,3.81-16.48.12-1.52.24-3,.39-4.34l.28-.15M77.38,144.85l.45.24a7.17,7.17,0,0,0-.81.11l.36-.35m50.53,12.23a7.65,7.65,0,0,0,1.58,1.63c-1.14-.2-2.27-.42-3.42-.66a7.19,7.19,0,0,0,1.84-1M42.07,37.32c-5.89,0-12.47,2.77-16.62,6-8.34,1-23.67,19.47-25,27.54C.11,79.09,2.75,82.14,6.71,82.14c8.49,0,23-14,27.42-20.67.06,4.24,2.68,7.79,7,7.79h0c.92,3.76,4,7.85,7.73,7.85a5.94,5.94,0,0,0,3.53-1.25c-.91,5.26,2.84,10.06,7.41,10.06a7.55,7.55,0,0,0,4.58-1.67c-2.53,6,1.64,17,8.6,17a7.48,7.48,0,0,0,2.58-.49,14.92,14.92,0,0,0,3.17,8c-2.74-1.36-5-4.14-7.37-4.14-1.2,0-2.44.71-3.8,2.68-10,2.07-17.61,10.31-26.41,13.58-9.94-4.79-20.9-7.93-32-7.93-.53,0-1.06,0-1.58,0,11,2.64,18.54,4.28,23.54,5.59a83.11,83.11,0,0,0-19.81-5.34c11.55.43,22.27,4.32,32.46,9.45A14.22,14.22,0,0,1,41.59,121a6.7,6.7,0,0,1,3.94-1.28l-1.12,1c5.47-3.12,16.79-13.24,24-13.24a5.31,5.31,0,0,1,4,1.61A5.21,5.21,0,0,1,71,111.35h-.29c-10,0-15.52,12.35-23,12.35a7.49,7.49,0,0,1-3.06-.68c2.08,1.06,4.15,2.17,6.19,3.32a15.78,15.78,0,0,1-1.14-1.16c6.08-5.76,12.76-11.77,21.15-13.59l-.14.19c2.56-1,3.55-4.71.14-5.09l.25.16h-.43a13.5,13.5,0,0,0-2.59.28,6.07,6.07,0,0,1,4.07-1.92c1.59,0,3.07,1,4.06,3a5.23,5.23,0,0,0-.26-.82c7,4.68,15.82,5.62,24,6,1.5,3.5,0,4.42-2.43,4.42s-6.09-1-8.11-1.14c-1.86-2.53-3.36-3.22-4.83-3.22-1.74,0-3.44,1-5.64,1a7.34,7.34,0,0,1-2.3-.37,13.43,13.43,0,0,0,4.64,1.49h0c1-1.35,2-1.87,3-1.87,2.21,0,4.12,2.92,5.79,4.55-.17-.36-.38-.73-.59-1.08,2,2.68,5.9,3.52,9.44,4.35a44.63,44.63,0,0,1-8-4,24.68,24.68,0,0,0,5.88.68,27.94,27.94,0,0,0,3.17-.18,3.34,3.34,0,0,1-.45.48c2.77-.73,1.53-4.52.14-6.22.09.34.19.68.29,1-11.86-.41-30.87-4.88-21.52-20.32A13.58,13.58,0,0,0,84,101.74c-14.53-11.9,4.53-30,17.5-32.54,6.15.55,10,8,14.18,12.19a12.85,12.85,0,0,0-2.36,2.53,9.44,9.44,0,0,0-4.5-1.2c-11.34,0-19.92,22.34-11.37,29.59a5.66,5.66,0,0,0-.37.59c1.23-1.57,2.24-2.2,3-2.2,3.18,0,3.09,9.88.42,9.88-.67,0-1.5-.62-2.48-2.17,0,1.59,1.83,2.37,2.18,3.46l.66.17a.74.74,0,0,1-.3-.81c4.27-1.17,3-10.72-.46-10.72-.79,0-1.68.5-2.64,1.73-8-7.13,1-29.25,11.45-29.25a9,9,0,0,1,6.42,3.07,7.94,7.94,0,0,0-1.86-2,8,8,0,0,1,6.5-3.59,7.6,7.6,0,0,1,6.5,3.86c-1.24-.37-2.48-.72-3.73-1,15,5.23,31.49,12,40.45,25.83a6.3,6.3,0,0,0-1.46.44,7.79,7.79,0,0,1,1.71-.19,7.25,7.25,0,0,1,7.13,5.9q-.4,0-.81,0a11,11,0,0,0-1.63.12,9,9,0,0,1,.39-1.63c-5.11,11.58,10.91,16.67,11.68,26.8a22.82,22.82,0,0,1-2.22-3.78,20.51,20.51,0,0,0,11,12.06c-5.56-.32-9.63-3.42-12.28-7.93,4.38,8.11,10.15,16,18.12,20.77-8.54-2.1-16.38-7-19.37-15.32a40.75,40.75,0,0,0,9.53,16.47c-7.22-3.66-15.29-10.52-15.72-19.1a2.2,2.2,0,0,0-.36,0c-.84,5.78,4.57,9.19,6.87,13.77-.35,7.52-7.29,10.2-17,10.2-20.54,0-53.51-12-62.8-15.55-2.45-.85-4.86-1.8-7.24-2.82,2.17,1.05,4.5,2.23,7.06,3.35a87.73,87.73,0,0,0-3.36,21.7c.05-.15.09-.3.15-.46,0,.68,0,1.36-.06,2,.88-7.77,1.69-15.52,3.7-23.1q2.32.94,4.67,1.86c-.32.78-.62,1.58-.9,2.38a47.67,47.67,0,0,0-2.38,17.87c0-.82,0-1.64.1-2.45,3.75,3.67-.09,7.27-3,7.27a2.45,2.45,0,0,1-2.21-1.15c.42,10,3.1,19.84,9.13,28.31C98.13,198,98,188.21,98.44,178.81c1.49-1.64,1.94-5.8-.66-6.43a56.15,56.15,0,0,1,3.75-17.49,222.33,222.33,0,0,0,24.38,7.82c-4.08,2.27-17.89,5.75-10,11.63a10.52,10.52,0,0,0-2.57,5.34c1.35-4.43,5.47-6.46,9.71-6.46,6,0,12.13,4,11.15,11a12.55,12.55,0,0,1,.62-2.23c9.91,0,5-10.53,6.1-16.05,4.82.41,12.92,2,20.2,2,8,0,15.06-2,15.52-9.83a29.59,29.59,0,0,0,9.64,5.57,37.74,37.74,0,0,1-6.58-9.16c4.83,3.8,10.47,7.08,16.63,7.65-4.68-2.52-8.33-6.55-11.74-10.57a4,4,0,0,0,1,.14,4.06,4.06,0,0,0,2.12-.67,3.26,3.26,0,0,1-1.42.33c-2.18,0-4.13-2.29-5.52-4.81a16.57,16.57,0,0,0,9.07,2.68,8.54,8.54,0,0,1-1,1,6.12,6.12,0,0,1,2-1l-.53-.27c6.51-10,10.73-21.31,13.46-32.89a3.26,3.26,0,0,1,2-.7c2.52,0,4.9,3,7.79,3a4,4,0,0,0,.76-.07c3.82-.3,5.86-4,6.63-7.42,6.06,9.64,16.46,16.11,26.58,20.79C254.2,141.59,267,160.53,278,164.5a32.52,32.52,0,0,1,.12,6.32l.12-.3a44,44,0,0,0,0-6c-.78-12-8.39-19.86-18-26.3a49,49,0,0,1,10.13,12.15,38.29,38.29,0,0,1-2-5.41,35.89,35.89,0,0,1,9.15,16.36A54.65,54.65,0,0,1,274,156.8c1.37,2.56,2.68,5.14,4,7.66-13.15-7-21.07-21-30-32.51a33.35,33.35,0,0,1,4.52,1.57c-13.15-7.58-27.48-14.13-32.81-25.63.65,4.25.06,7.85-4.9,9.78a6.18,6.18,0,0,1-.85.06c-2.73,0-5.07-1.75-7.54-2.8a5.86,5.86,0,0,1,2-.47,2.42,2.42,0,0,1,1.18.28,2.77,2.77,0,0,0-1.6-.46,12.65,12.65,0,0,0-4.12,1.21c2.91-5.08.34-16.93,3.08-21.84-1,.46-2,1-3,1.52-1.21,9.88-.18,25.1-12.45,25.1-.4,0-.8,0-1.22,0,2.7-5.34-2.4-11.55-6.85-13.42a10.69,10.69,0,0,1,9.23-5.35,10.57,10.57,0,0,1,2.23.24c-.13.19-.25.38-.36.56a1,1,0,0,1,.93-.48c.75,0,1.68.49,2.42.54a21.93,21.93,0,0,0-2.62-.9c.48-.55,1-1.09,1.47-1.63a8.41,8.41,0,0,0-1.62,1.6,10.44,10.44,0,0,0-3-.44,9.51,9.51,0,0,0-7.79,3.83c.29-2.91-6.42-8.51-9.55-8.51-1.25,0-1.93.9-1.37,3.2a37.74,37.74,0,0,1-2.46,3.44c.2-4-3.62-11-7.86-11a4.31,4.31,0,0,0-2.69,1c-.13,2.24-.15,4-2.35,5.4.3-6-3.9-12.15-7.37-12.15-2,0-3.69,1.94-4.24,6.92-5.26-1.56-2.29-11.55-8.87-12.24a5.8,5.8,0,0,0-2.49-.76c-2.54,0-2.27,3.65-3.28,6-4.71-.63-7.91-6.52-12.15-6.52a6.08,6.08,0,0,0-4,1.72c-4.1-4.46-8-12.57-14.57-12.68l-.36-.48c.09.16.18.32.26.49C97.87,69,94.6,70.78,92,72.49c-10.21,6.07-14.69,17-16.44,28a7.86,7.86,0,0,1-2.18.33c-7.43,0-11.16-11.91-8.14-18A18,18,0,0,0,68,88.12c-8.64-12.85,5.2-29.18,18.52-29.18a14.94,14.94,0,0,1,7.38,1.91c-2.53-2-5.36-3.38-8.27-3.39A59.74,59.74,0,0,0,70.14,47a19.9,19.9,0,0,1,2.21,2.12,15.11,15.11,0,0,0-2.68-.26,11.38,11.38,0,0,0-1.54.1C56.28,50.75,52.49,65.63,52.44,75.39a6.73,6.73,0,0,1-3.55,1.12c-6,0-9.3-10.09-6.68-15.35,1.33,3.67,4.76,6.14,8.13,8-16.92-9.89-4.25-25.74,9.38-25.74a16.44,16.44,0,0,1,2.1.13c-2.91-1.11-5.86-2.1-8.77-3a12.28,12.28,0,0,1,3.11,2,12.51,12.51,0,0,0-2.76.76c-11,3.9-12.85,15.66-12.34,25.7-5.17-.31-7-6.11-6.43-10.65a6.9,6.9,0,0,0,2,2.31c-7-7.53,2.17-21.08,12.08-21.08a10.69,10.69,0,0,1,1.94.18l-1.11-.34a13.13,13.13,0,0,0-7.48-2.06Zm.26,3.06a12.75,12.75,0,0,0-3.94-1.53,14.43,14.43,0,0,1,5.26-1.06,9,9,0,0,1,5.19,1.5c-.41,0-.83-.06-1.24-.06a12.83,12.83,0,0,0-5.27,1.15ZM25.87,43.24a17.57,17.57,0,0,1,10.57-4A12.16,12.16,0,0,1,42,40.55a12.89,12.89,0,0,0-3.77,2.78,3.66,3.66,0,0,1-2.57.87,10.23,10.23,0,0,1-1.52-.14,20.76,20.76,0,0,1,2.85.82,16.27,16.27,0,0,0-2.78,6.59h-.95c-7.64,0-15.49,1.21-22.3,4.68,3.57-7.88,10.79-12.56,18.75-12.56a20.94,20.94,0,0,1,3.42.28,27.23,27.23,0,0,0-5.3-.91,5.82,5.82,0,0,0-1.91.29ZM62.14,80.15c-16.62-4.24-5.92-30.62,7.1-30.62a10.31,10.31,0,0,1,5.68,1.78c-.47-.48-1-.93-1.47-1.37a24,24,0,0,1,11.8,7.59,16.59,16.59,0,0,0-3.17.89c-11,3.87-18.73,13.94-17.55,25.44a10,10,0,0,1-5,1.55c-5.57,0-8-7-6.19-13.23,1.48,3.63,4.65,7.5,8.77,8ZM.54,73.35c0-8.8,9.73-21.85,32.11-21.85C10.27,51.5.55,64.55.54,73.35c0,4.47,2.51,7.84,7.15,7.84-4.64,0-7.15-3.37-7.15-7.84ZM133.32,84.18c-.06,0-.11,0-.14-.14-.52-2.07.42-2.85,1.77-2.85,2.16,0,5.37,2,5.32,3.89a1.57,1.57,0,0,1-.41.88,7.5,7.5,0,0,0-2.64-2.87c1.54,1.79,2.95,4.15,2.86,6.56q-3.72-1.82-7.61-3.3a10.19,10.19,0,0,1,2.21-3.12c-.47.11-1.08,1-1.36,1Zm10,7.13c-.92-.49-1.86-1-2.8-1.44-.56-3.06,1.08-6.37-2.07-8.51,3.47,1.88,4,6.5,4.87,10Zm11.15-.41c-.13-2.07-1-3.75-4.46-4.17a5.27,5.27,0,0,1,.68,0c5.15,0,6.29,7.82,7.2,11.83-.58.5-1.18,1-1.8,1.45-2.4-1.47-1.86-4.39-1.66-7.12a2.14,2.14,0,0,1-.13.19,10,10,0,0,0-.43-1.89,50.46,50.46,0,0,1-.41,6.61c-3.18-2.41-10-5.41-3.7-8.59a1.33,1.33,0,0,0-.66-.17c-.63,0-1.19.38-1.19.6v.05s0,0,0-.05c-.31-1.58.35-2.19,1.36-2.19a7,7,0,0,1,5.2,3.49Zm6.18,4.66c-.44-2.27.67-3.19,2-3.19,1.82,0,4.06,1.73,3.31,4.13-.07.66-.06,1.84-.93,2a15.91,15.91,0,0,0-.15-2.64c-.09.86-.18,1.77-.31,2.67h0l0,0c-.38,2.78-1.1,5.66-3,7.69a36.13,36.13,0,0,0-5.18-5.94c2.48-1.26,4.81-3.44,5.23-6.28a13.26,13.26,0,0,1-1,1.59Zm8.31,10c-.1-3-2.27-5.13-3.93-7,1.6-.4,1.52-3.38,1.21-4.7,2.39,2,5.81,7.72,3.49,10.65l-.77,1Zm4.65-6.34c-.35-1.78.2-2.47,1.05-2.47,1.78,0,4.87,3,3.91,5.28a1,1,0,0,1-1.06,1.05,2.05,2.05,0,0,1-1-.32c.14-.45.29-.89.41-1.34-2,3.7-3.79,7.85-7.07,10.61a5.54,5.54,0,0,0-3.37-2.72c3-3.34,6.27-6.82,7.75-11.14-.18.36-.39.71-.59,1.05Zm9.72,7.21a7.54,7.54,0,0,0-4.45-3.87,4.91,4.91,0,0,0-.73-4.54c2.56,1.34,7.18,5.43,5.18,8.41Zm-18.52,2.66c-1.2,0-2.36-.85-3.11-2.77,2.1-1.46,3-4.2,3.28-6.89,2,1.43,3,4.09,3.66,6.55-.95,2-2.42,3.11-3.83,3.11Zm9.31,6.94a4.06,4.06,0,0,1-4.21-3.81c3.35-2,5.17-5.81,6.53-9.34a2.33,2.33,0,0,0,1.32.5,1.09,1.09,0,0,0,.94-.49c1.73.91,3.84,2.59,4.23,4.47-2.72.39-3.65,3.61-3.46,6.1a7.47,7.47,0,0,1-5.35,2.57Zm5.45-1.47c-.22-4.56,1.42-6.32,3.51-6.32,3.57,0,8.42,5.13,7.44,10.17a5.45,5.45,0,0,1-2.84,4.06,7.59,7.59,0,0,0,.37-2.69,10.58,10.58,0,0,1-5.26,7.36c-3.86-2.34-2.57-7.9-7.18-10.33a11.74,11.74,0,0,0,3.92-2.64c0,.13,0,.26,0,.39Zm-8,11.75a14.49,14.49,0,0,1-3.38-10.9h.07a14.66,14.66,0,0,1,4.6.73c-2.51,2.79-2.55,6.9-1.29,10.17Zm4.77,3.18c-5,0-7-8.93-3.34-13.29,5.15,1.53,7.1,6.89,7.14,11.78a6.4,6.4,0,0,1-3.8,1.51ZM200,118c-3.9,9.24-5.14,22.71-13.95,28.37-8.54-4.49-5.33-12-3.12-18.87,10.49-9.78,4.46-4.4,17.07-9.5ZM180.2,128c0-.76.05-1.53,0-2.28,1.36.55,2.34,1.62,2.06,3.12a3.89,3.89,0,0,1-3.11,3.3,2.09,2.09,0,0,0,.49,0,2.46,2.46,0,0,0,1.11-.27,16.59,16.59,0,0,1-1.17,4.38c-.86-2.57-3-4.43-4.85-6.33a11.9,11.9,0,0,0,1.2.06c2.27,0,4.52-.73,5.06-3a4.69,4.69,0,0,1-.82.94Zm10,20.95-4.06-2.48,4.06,2.48ZM116,174.28c-7.17-6.46,6.84-8.27,10.15-11.51q7.17,1.83,14.45,3.11a8.47,8.47,0,0,0-.86,2.17,12.32,12.32,0,0,0-.83-1.25c1.68,3.1,2.86,7.16,1.7,10.51a6,6,0,0,1-5.77,4.38h0c-.21-5.51-7-9.27-12.83-9.27a9.3,9.3,0,0,0-6,1.86Zm-21.12,6.31a4.59,4.59,0,0,0,3.24-1.44c-.8,8.34-.81,17.17,2.16,25.1-.11-.2-.23-.38-.34-.57a58.7,58.7,0,0,1-6.7-23.62,2.54,2.54,0,0,0,1.64.53ZM50.66,39.72l2.39.75a10.83,10.83,0,0,0-2.39-.75ZM61.82,43.5c2.82,1.06,5.61,2.23,8.32,3.54a16.21,16.21,0,0,0-8.32-3.54Zm-28.74.36c.34.08.68.14,1,.2-.34-.08-.68-.14-1-.2Zm3.56,16.76A11.84,11.84,0,0,0,39.75,63a4.91,4.91,0,0,0,.5.26,44.29,44.29,0,0,1-3.61-2.6Zm57.27.23a39.88,39.88,0,0,1,6.94,7.32,18.6,18.6,0,0,0-6.94-7.32ZM219.66,86.56c-.18.43-.36.86-.51,1.3a3.39,3.39,0,0,0-1-.42l-.35,0c-2.19,0-3.41,2.48-4.11,4.32a1.38,1.38,0,0,0-.59-.11,3.74,3.74,0,0,0-.53.05c.33.07.67.17,1,.28a13,13,0,0,0-.63,2.86c1-2.22,2.2-6.86,5.06-6.86a3.2,3.2,0,0,1,1.05.19c-1.94,2.92-2,6.31-1.44,9.76a35.34,35.34,0,0,1,2.06-11.34ZM68,88.12A20.63,20.63,0,0,0,72,92.42,29.86,29.86,0,0,1,68,88.12ZM154.5,90.9a14.23,14.23,0,0,1,0,1.95,2,2,0,0,0,0-1.95Zm56.3.56a4,4,0,0,0-3.75,2.19,23.06,23.06,0,0,1,5.49-2,7.6,7.6,0,0,0-1.74-.22Zm-6.52,2a33.46,33.46,0,0,0-7.46,6.3A50.57,50.57,0,0,1,204,95.17c.07-.58.15-1.15.24-1.69Zm13.33,4.43a23.42,23.42,0,0,0,2.14,10c-.47-3.11-1.6-6.57-2.14-10Zm-23,4.34a.21.21,0,0,0,0,.06l0-.06Zm-119.41,9.1c-1.17.65-2.79,1.94-4.25,1.94a2.1,2.1,0,0,1-1.68-.81,1.77,1.77,0,0,0,1.94,1.31,4.93,4.93,0,0,0,1.23-.17,2.94,2.94,0,0,1,1.3-.29,5.91,5.91,0,0,1,1.87.37,11.89,11.89,0,0,1-1.73-1,7.86,7.86,0,0,0,1.32-1.38Zm.41,2.35a7.12,7.12,0,0,0,1,.4c-.35-.14-.7-.28-1-.4Zm7.5,1.32c.2.14.39.29.59.45-15,.69-21.91,12.72-28.59,12.72a5.83,5.83,0,0,1-1.3-.15c3.2,1.84,6.34,3.73,9.46,5.6,25.9,15.05,56.7,28,87.25,28-1.59-.08-3.18-.2-4.76-.34h-.08c-8.11-1.27-14.95-.67-17.52-5.77-3-5.88.55-12.54,4.37-12.54,2,0,4,1.77,5.31,6.3,1,4.41,8.06,5.81,8,10.89a4.68,4.68,0,0,0,.05.6c0-.15,0-.3.07-.45,1.6.12,3.28.22,5,.22,3.86,0,7.77-.56,10.85-2.85a21.1,21.1,0,0,0,4.27,2.8l1-.16c-5.1-1.09-9.07-7-11.45-11.59a19.3,19.3,0,0,0,3.4,6.17c-11.15-3.09-20.32-14.07-20.45-25.74-.25-.16-.52-.32-.8-.47a10.81,10.81,0,0,1,.84,5.08c.9,7.68,7.62,12.33,10.3,18.63a11,11,0,0,0-.18-2.2c2.24,2.32,7,2.36,6.78,6.22l-.67,0c-.29,0-.59,0-.89,0-9-.91-14.53-8.16-15.49-16.42.07,8.06,2.5,16.89,23.12,17.55-4.65,2.74-10.44,2.33-15.63,2.63.31-4.43-4.47-6.73-6.87-9.77-1.31-3.56-3.91-8.58-6.88-8.58-1.32,0-2.71,1-4.09,3.53,0-2.81-3.41-6.39-5.89-6.39-1.19,0-2.16.84-2.41,3,.81-1.8,1.82-2.54,2.84-2.54,3.07,0,6.19,6.8,3.86,11.69-.62.06-1.22.1-1.8.1-2.32,0-4.21-.71-4.78-4.11a27.16,27.16,0,0,1,3.37-.26,11.64,11.64,0,0,1,1.18.05,2.82,2.82,0,0,1-2.41,2,3,3,0,0,0,.42,0c4.22,0,3-6.78,0-7.93a3.94,3.94,0,0,1,.77.81,5.31,5.31,0,0,0-.82,0,28,28,0,0,0-3.51.37h.18c3.25,0,5.6.88,5.44,4.56a27.65,27.65,0,0,0-3-.15c-5.25,0-10.35,1.32-15.46,2.51a4,4,0,0,0,.44-1.69c-.75,1.3-1.52,2.78-3.13,3,1.92-3.17,1.66-7.12-2.06-7.12a6.54,6.54,0,0,0-1.45.17,5.17,5.17,0,0,1,.57,0,7.07,7.07,0,0,1,1.76.22c-2.18.41-3.68,2.45-4.58,4.33-2-3.37,1-7.48,4.06-7.48a4,4,0,0,1,3.41,2.25,5.37,5.37,0,0,0-.51-.8,9.72,9.72,0,0,0,4.73,1c2.08,0,4.36-.31,6.51-.52-1.54-.12-2.63-.78-2.57-2.76,6.55-.55,2.2-10.32-1.44-10.32-1.09,0-2.12.89-2.77,3.18a3.73,3.73,0,0,1-.44.08c3.35.5,5.6,1.5,4.74,4.34a24.67,24.67,0,0,1-2.69.84s0,0,0-.08,0,0,0,.08a26.18,26.18,0,0,1-6,.66,52.15,52.15,0,0,1-11.07-1.44,7.54,7.54,0,0,0,1-.71,16.21,16.21,0,0,1-4.1.95h0a50.47,50.47,0,0,0,12.7,1.7,32.72,32.72,0,0,0,7.71-.84,2.61,2.61,0,0,0,2.24,1.56,5.81,5.81,0,0,0,.13,2.61H113a78.35,78.35,0,0,1-8.52-.49,4,4,0,0,0-3.2-1.89c-3.36,0-6.3,5.28-3.76,8.45-.21.45-.4.91-.59,1.37a171.8,171.8,0,0,1-17.18-7.47,52.72,52.72,0,0,1,8.34-5.69l.43.14-.28-.22c4.92-1.18,5.11-6.27.09-7.67,2.3.94,4.6,3.18,2.83,5.78-5,1.35-8.74,6.5-13,6.5a6.88,6.88,0,0,1-4.73-2.2c4.49-4.38,9.79-8.43,16.2-8.66l-.58,0a15.52,15.52,0,0,0-2.64.24c.71-2.17,1.73-3,2.86-3,1.74,0,3.74,1.86,5.31,3.58-.36-.52-.77-1-1.18-1.51,2.61,2.13,7.72,2.34,12.15,2.71-5.71-.83-11.34-2.37-15.74-5.74-1.94.1-3.34,2.08-3.66,4-5.63,1.32-12.73,7.69-13,8h0c.14-.22-5.25-1.89-8.91-4.82,5.86-4.43,11.73-9,18.48-12a4.43,4.43,0,0,0,3.69,2.14,3.62,3.62,0,0,0,2.11-.67c4.93,6.1,15.52,1.5,17.33,9.17l1.37.13c-1.21-.53-1.74-2-2.12-3.59a4.26,4.26,0,0,0,.5,0c6.31,0,2.3-9.11-1.06-9.11-1,0-1.86.75-2.46,2.66l-.36,0c2.49.76,4.32,1.83,4.33,4.12a16.33,16.33,0,0,1-4.83.71,22.6,22.6,0,0,1-12.51-4.19,6.76,6.76,0,0,0,1.1-1A6.09,6.09,0,0,1,86.44,123,4.53,4.53,0,0,1,83,121.44a12.53,12.53,0,0,1,3.08-.77c0,.38-.08.76-.12,1.13A4.63,4.63,0,0,0,83.12,115ZM62.93,132a8.11,8.11,0,0,1-5.53-2.44c4.15-2.8,17.24-13.44,24.24-13.44,2.37,0,4,1.22,4.43,4.39h-.32c-8.93,0-15.56,11.49-22.82,11.49Zm41.65-9.4c-.78,0-1.58-.14-2.37-.26.51-1.51,1.29-2.11,2.13-2.11,2.87,0,6.4,7.06,1.71,8.13a4.17,4.17,0,0,1-.61,0,4.6,4.6,0,0,1-2.74-.89,11.41,11.41,0,0,0,3.26-.87.79.79,0,0,1-.48.62c2.51-.76.52-5.4-1.88-5.46a11.85,11.85,0,0,1,1,.8Zm4.55,9.84c.63-1.9,1.59-2.65,2.59-2.65,3,0,6.49,6.76,2.73,9.09a2.69,2.69,0,0,1-1.2.35,1.18,1.18,0,0,1,0-.2.56.56,0,0,1-.45.2,2.91,2.91,0,0,1-1.85-1.23,22.46,22.46,0,0,0,2.43-.93,1,1,0,0,1-.9.75,1.23,1.23,0,0,1-.36-.06,1.74,1.74,0,0,0,.64.13c2.34,0,1.43-6.09-1.14-6.09l-.35,0a2.51,2.51,0,0,1,.83.43,19.06,19.06,0,0,1-2.93.18Zm-6.85,19.11c-1.66-.57-3.3-1.16-4.94-1.77.21-2.86,3.51-5.87,5.47-5.87,1.16,0,1.84,1.08,1.09,3.89-.52,1.25-1.08,2.5-1.62,3.75Zm17.44-4.37c-.31,3.26,1.78,4.55,4.36,4.55a9.52,9.52,0,0,0,2.49-.35,8.32,8.32,0,0,0,1.46,4.28,6.23,6.23,0,0,1-2.94,1.65l.57.26-.57-.26a8.62,8.62,0,0,1-2.18.26c-6.1,0-14.27-5-20-5.83,3.78-3.93,11.22-3.46,16.86-4.56Zm36,9.29a5.7,5.7,0,0,0-.38-2.54c1.4.82,3.42.66,4.48,1.88a19,19,0,0,1-4.1.66ZM81.3,115.59l0,0s0,0,0,0Zm-50.15,2.89q4.26,1.69,8.38,3.73c-.74-1.38-3.19-2.38-8.38-3.73Zm67.74,3.06c.46.14.92.28,1.4.39,0,0,0,0,0-.06-.45-.12-.91-.22-1.38-.33Zm2,.5a2.15,2.15,0,0,0,.74.22l-.74-.22Zm-61.4.17C41.32,125.55,33,131.15,29,149.6c3.92-7.43,10.23-22,18.65-22a8.07,8.07,0,0,1,3.54.86c-3.83-2.19-7.68-4.3-11.62-6.22Zm2.34,1.51a1.82,1.82,0,0,1-.15-.23l.26.13-.11.1Zm5,2.53c-2-.3-3.81-.84-5-2.48,1.56.25,3.35,1.75,5,2.48ZM29.69,147.19a52.36,52.36,0,0,1,12-23.19,4.8,4.8,0,0,0,4.25,2.72c-7.81,4.42-12.81,12.44-16.25,20.47Zm14.11-24.6c.28.15.55.29.83.42l-.83-.42Zm7,3.74a7.24,7.24,0,0,0,3,1.71c-1-.58-2-1.15-3-1.71Zm82.71.25c-1.32,0,1.9.89,4.28,2.16A4.35,4.35,0,0,0,134,126.6l-.44,0Zm-28,.68-.18,0a.41.41,0,0,0,.18,0Zm-54.33,1.17,1.33.77a12.26,12.26,0,0,0-1.33-.77Zm87.46.17c0,.2,0,.4,0,.61a5.53,5.53,0,0,1,1,.79,16.2,16.2,0,0,0-1-1.4Zm-86.13.6a15.63,15.63,0,0,1,2.37,2,35,35,0,0,0-3.73,3.33,4.39,4.39,0,0,1,.58-.18,5.35,5.35,0,0,1,3.86-2c1.72,0,3.55,1.08,5.82,2.89l-2.09,1.82a4.51,4.51,0,0,1,2.45-.75c2.82,0,5.68,2.64,9,4.35a69.6,69.6,0,0,0-9.22,11.44,6.35,6.35,0,0,1,.74-.28c-.56.91-1.11,1.83-1.62,2.76,3.76-4.15,6.84-12.73,11.81-12.73a6.81,6.81,0,0,1,4.44,2.08c-.66.64-1.31,1.28-1.94,1.94-.93,1-1.81,2-2.65,3A8.87,8.87,0,0,1,78.76,146a16.38,16.38,0,0,1,6,1.43C73.64,142.2,63.17,135.4,52.48,129.2Zm87.12.8.45.7a1.89,1.89,0,0,0-.45-.7Zm-34.07,2.18.28,0v0l-.27,0Zm1.64.15a2.55,2.55,0,0,0,1.07.21,3,3,0,0,0,.42,0c-.47-.07-1-.13-1.49-.19Zm145.39,1.19c2.64,1.52,5.23,3.09,7.69,4.74a31.92,31.92,0,0,0-7.69-4.74Zm-113.92.26a23,23,0,0,0-.14,6.25c0-2.18.14-4.31.15-6.21v0Zm-86.8.5-.14,0a17,17,0,0,0-1.36,1.61l1.5-1.65Zm-.72.22a3.21,3.21,0,0,0-2.34,2.63c.75-.92,1.53-1.8,2.34-2.63Zm37.41,2.11a3.28,3.28,0,0,0,1.9.55c-.65-.17-1.29-.36-1.9-.55Zm-29.24.44a7.77,7.77,0,0,0-1.63,1.48l1.63-1.48Zm-10.51.08c-6.69,8.21-10.85,19.77-9.65,30.41C40.3,157.2,48,149.63,54.22,142.61a3,3,0,0,1-.73.09c-2.45,0-5-3.08-4.71-5.57Zm-9.49,27.64c0-9.48,4-18.76,9.08-26.67a4.45,4.45,0,0,0,4.35,5h.1c-6.07,6-11.59,13.23-13.53,21.63Zm18.37-26.24-.51.46c-.57.54-1.16,1.06-1.72,1.6.48-.41,1-.8,1.46-1.2l-.06.18.3-.39c.18-.23.35-.45.53-.65Zm118.13.5c.3.65.63,1.27,1,1.87-.34-.62-.66-1.24-1-1.87Zm-119,.54c-.82,1-1.7,2-2.61,3,1-.29,2-1.2,2.61-3ZM119,142.14c-1,0-2,.09-3.09.2l.59,0a18.81,18.81,0,0,0,2.5-.22Zm55.83,1.7a22.07,22.07,0,0,0,.72,2.51c-.26-.84-.5-1.68-.72-2.51Zm-90,3.63c1.32.63,2.66,1.23,4,1.81-1.4-.68-2.73-1.3-4-1.81Zm-12.48,1.42a23,23,0,0,0-3.81,5.27c1.19-1.82,2.45-3.58,3.81-5.27Zm116.6,1.43c-.39.27-.78.55-1.18.79a5,5,0,0,0,1.18-.79Zm81.47.09A46,46,0,0,0,274,156.8c-1.16-2.16-2.37-4.31-3.65-6.39ZM61.53,152.09c-2.21,1-2.76,2.57-2.4,4.12q1.11-2.1,2.4-4.12Zm7,2.07c-.76,1.15-1.48,2.33-2.19,3.52.38-.57.79-1.13,1.19-1.7.32,3.75-1,5.12-2.67,5.12-2.23,0-5.12-2.42-5.7-4.89-4.81,9.11-7,19.41-4.75,30.45-.14-9.12,3.62-18,9.13-25.14a5,5,0,0,0,1.26.18c2.82,0,3.38-3.17,2.88-5.94.28-.56.57-1.09.85-1.6Zm-14.33,27.6a53.63,53.63,0,0,1,4.7-24.42,5.7,5.7,0,0,0,4.42,4.12,37.53,37.53,0,0,0-9.12,20.3Zm70.42-24.67.5.22-.5-.22Zm41.48,3.44a101.56,101.56,0,0,1-15.37,1.15h-.17q2.24.12,4.47.12a57.4,57.4,0,0,0,8.68-.61,22.59,22.59,0,0,0,2.62-.55l-.23-.11Zm-20.17.28c0,.17-.08.35-.13.52.14,0,.15-.27.13-.52ZM92.49,174.33c-.58,2-.46,3.4.05,4.26-.06-1.42-.07-2.84-.05-4.26ZM205,175.63c-7.19,10.45-20.17,14.75-32.18,16.71a46.6,46.6,0,0,1,3.39-3.35,12.08,12.08,0,0,1-7,2.53,13.58,13.58,0,0,1-6.69-2c8-5.13,17.92-12.33,27.83-12.33a18.62,18.62,0,0,1,7.61,1.58c-.49,0-1-.05-1.42-.05-7.22,0-11.86,3.49-15.94,6.83a37.42,37.42,0,0,1,17.67-6.67,14.82,14.82,0,0,0-8-2.18c-9.82,0-21.26,7.54-28,12.74-1.79-1.1-4.29-1.45-7.08-1.45s-5.6.32-8.4.61a83.75,83.75,0,0,1,25.53,4.37c12.3-1.81,25.63-6.45,32.76-17.27l-.06,0Zm-91.66,4.05a12.25,12.25,0,0,0-.36,5,22.63,22.63,0,0,1,.36-5Zm14.95,4.49a23,23,0,0,1,6,5.12,20.41,20.41,0,0,0-16.37,23.06c-1-15.42,9.08-21.76,21.53-23.35-3.47-.16-5.72-1.24-5.26-4.62a13.13,13.13,0,0,1-.81,2.9,12.43,12.43,0,0,0-5.08-3.11Zm5.91.05c0,.05,0,.11,0,.16a1,1,0,0,0,0-.16Zm-21.22.45c0,.56,0,1.12.07,1.66-7.17,5.82-4.81,17.14,2,22.18a23.38,23.38,0,0,0,2.6,1.72c-8.88-4.91-12.64-21.08-1.48-25.21a6.6,6.6,0,0,0-3,1.18q-.15-.8-.24-1.53Zm67.65.85a44.66,44.66,0,0,0-4.42,3.47c1.47-1,2.9-2.23,4.42-3.47Zm-34.13,3a54.53,54.53,0,0,0-7.06.43l1,0c1.89,0,4.08-.22,6.35-.45Z"/><path class="cls-10" d="M205.23,175.36l-.2.27c-5.36,20.35-41.27,42.54-67.39,42.54-9.36,0-17.47-2.85-22.46-9.66h-.05c5,7.17,13.29,10.17,22.92,10.17,26.27,0,62.34-22.39,67.18-43.32Z"/><path class="cls-10" d="M178.43,123.21a.43.43,0,0,0,0,.05.43.43,0,0,1,0-.05Z"/><path class="cls-10" d="M178.33,122.92a.19.19,0,0,0,0,.07.19.19,0,0,1,0-.07Zm0,.07s0,0,0,0a.06.06,0,0,0,0,0Z"/><path class="cls-10" d="M178.19,122.51s0,0,0,.08,0-.06,0-.08Z"/><path class="cls-10" d="M178.11,122.3l0,0,0,0Z"/><path class="cls-10" d="M155.48,122.61c-6.67,0-13.33,5-12.88,12.08-.49-.33-1-.67-1.42-1a15.08,15.08,0,0,0,10.92,4.71,13.58,13.58,0,0,0,11.12-5.56c-.34.31-.67.61-1,.9.41-4.76-3-9-7.33-10.85.52-.09,1-.17,1.57-.22-.32,0-.64,0-1,0Zm0,14.78c-5.3,0-9-6.8-4.72-13.32a5.4,5.4,0,0,1,2.78-.8c4.57,0,8.3,6.28,8.5,10.61-2.18,2.48-4.49,3.51-6.56,3.51Zm-5-13.18a9.73,9.73,0,0,0,2.21,13.65h-.25a18.11,18.11,0,0,1-9.66-3.12,12.14,12.14,0,0,1,7.7-10.54Z"/><path class="cls-10" d="M161.38,138.47a13.57,13.57,0,0,1-5.91,2.2c-.57.05-1.15.08-1.73.08a19.27,19.27,0,0,1-4.09-.45,10.52,10.52,0,0,0,4.64,1.07,9.74,9.74,0,0,0,7.09-2.9Z"/><path class="cls-10" d="M149,117.42c-3.33,0-6.3,7.6-7.09,10.38,1-1.77,4.57-10.13,7.68-10.13a1.71,1.71,0,0,1,.75.17,2.45,2.45,0,0,0-1.34-.42Zm1.34.42a4.9,4.9,0,0,1,1.1,1.06,3,3,0,0,0-1.1-1.06Z"/><path class="cls-10" d="M120.69,123.14c0,3.84,3.3,7,6.79,8a18.87,18.87,0,0,1-4.38-3.58,12.68,12.68,0,0,1-2.41-4.47Z"/><path class="cls-10" d="M108.83,100.05c.78,9.12,8.6,17.07,17.8,17.58a22.14,22.14,0,0,1-17.8-17.58Z"/><path class="cls-10" d="M83.43,101.29s.25.2.6.45l-.26-.2c-.12-.07-.22-.17-.34-.25Z"/><path class="cls-10" d="M83.51,101.35l.26.19-.26-.19Z"/><path class="cls-10" d="M62.16,80.15h0Z"/><path class="cls-10" d="M7.11,62.54c-4.55,9.85-2.49,14,2,14,3.57,0,8.68-2.59,13.24-7-1.87,1.26-3.72,2.55-5.62,3.76-2.94,1.84-5.19,2.63-6.86,2.63C5,75.92,5,69.29,7.11,62.54Z"/><path class="cls-11" d="M178.3,123c1.44,4-3.69,5.45-4.77,1.43C171.88,120.23,177.29,118.68,178.3,123Z"/><path class="cls-11" d="M160.11,129.61c1.85,4.78-4.78,7-6.22,2.12C152,126.94,158.66,124.69,160.11,129.61Z"/><path class="cls-5" d="M223.23,39.72a14.87,14.87,0,0,0-3,2.29,20.17,20.17,0,0,0-3.17,4.26A54.15,54.15,0,0,0,212.51,58a178.43,178.43,0,0,0-4.45,21.49c-.92,5.65-1.24,13-2,18.59-.5,5-.6,10.16-1.62,15.07-2.6,13.26-6.25,25.52-14.26,35.79l-3.72-2.14c3.55-3.44,3.82-4.95,5.93-9.44,5.78-12.52,7.67-26.41,8.54-40.06,1.31-11.2,3-22.44,6.17-33.29,2.58-8.21,6.63-20.52,15-24.28.29-.11.6-.24.78-.33l.33.34Z"/><path class="cls-12" d="M223.23,39.72a15,15,0,0,0-2.95,2.3h0A15.22,15.22,0,0,0,218,44.88c-.33.51-.66,1-1,1.55s-.56,1.08-.82,1.63a52.78,52.78,0,0,0-2.68,6.78c-.37,1.16-.7,2.33-1,3.5s-.63,2.35-.93,3.53c-.57,2.37-1.07,4.75-1.53,7.14s-.89,4.79-1.28,7.19-.8,4.8-1.05,7.22c-.54,4.83-.8,9.71-1.42,14.55s-.57,9.73-1.47,14.56a145.14,145.14,0,0,1-3.39,14.24,76.07,76.07,0,0,1-5.41,13.62,56.54,56.54,0,0,1-3.79,6.3c-.33.51-.71,1-1.07,1.49l-.55.74-.14.18c0,.05,0,0-.09,0l-.1-.05-.43-.2a32.25,32.25,0,0,1-3.6-1.76l-.43-.26.35-.34a22.34,22.34,0,0,0,2.41-2.65,17.09,17.09,0,0,0,1.81-3.07c1-2.19,2-4.4,3-6.63a86.62,86.62,0,0,0,4.26-13.85A131,131,0,0,0,199.94,106c.26-2.41.47-4.82.64-7.25.06-1.21.21-2.42.36-3.63l.47-3.61a174.86,174.86,0,0,1,5.85-28.55,77.47,77.47,0,0,1,5.48-13.5A29.74,29.74,0,0,1,217,43.48a15.9,15.9,0,0,1,6-4.1h0Zm0,0-.33-.34h0A15.78,15.78,0,0,0,217,43.55a29.45,29.45,0,0,0-4.12,6A77,77,0,0,0,207.6,63a176.9,176.9,0,0,0-5.7,28.5l-.45,3.61c-.15,1.2-.3,2.4-.35,3.62q-.24,3.63-.61,7.26a132.51,132.51,0,0,1-2.23,14.42,85.63,85.63,0,0,1-4.24,14c-.92,2.27-1.94,4.45-3,6.68a18.07,18.07,0,0,1-1.87,3.2,23.07,23.07,0,0,1-2.47,2.75l-.07-.59a22.86,22.86,0,0,1,2.73,1.87l.37.26.09.07s.07,0,.08,0l.14-.18.54-.72c.36-.49.74-1,1.07-1.47a55.2,55.2,0,0,0,3.77-6.21,76.14,76.14,0,0,0,5.43-13.48c1.41-4.64,2.48-9.4,3.43-14.17s1-9.64,1.53-14.51.91-9.69,1.47-14.54c.26-2.43.68-4.84,1.09-7.24s.83-4.8,1.31-7.19,1-4.78,1.61-7.14c.31-1.18.62-2.36,1-3.53s.68-2.34,1.07-3.5A53.67,53.67,0,0,1,216.12,48c.27-.55.56-1.09.85-1.62s.64-1,1-1.55A15.77,15.77,0,0,1,220.25,42h0A15.34,15.34,0,0,1,223.23,39.72Z"/><path class="cls-13" d="M280,161.25a77.14,77.14,0,0,0-2.32-14.72,54.64,54.64,0,0,0-6-14,135.23,135.23,0,0,0-8.28-12.77,137.61,137.61,0,0,0-21.21-23.56A53.54,53.54,0,0,0,230,87.91c-3.07-1.41-6.91-2.49-10-1.14h0a7,7,0,0,0-1.58,1h0a3,3,0,0,0-.52,0,3.85,3.85,0,0,0-2.78,2A10.86,10.86,0,0,0,213.92,92a9,9,0,0,0-7-.15c.06-3.38,0-6.76-.17-10.14-.29-5.38-1-10.71-1.09-16.1a61.54,61.54,0,0,1,1.09-15.39,20.49,20.49,0,0,1,2.18-5.79c.1-.09.19-.2.3-.29a13.42,13.42,0,0,1,5.23-2.71,13.8,13.8,0,0,0-5.13,2.47l-.11.09a12.51,12.51,0,0,1,3.65-3.78,11.69,11.69,0,0,0-3.46,3.19c-.22.31-.41.64-.6,1a12,12,0,0,0-3,4.91c-1.53,4.56-1.57,9.6-1.61,14.36-.07,9.77.84,19.54.31,29.3a29.69,29.69,0,0,0-9.15,8.73,10.4,10.4,0,0,0-7.09.39,9.9,9.9,0,0,0-3.7,3,13.77,13.77,0,0,0-2.28-4.48,8,8,0,0,0-4.4-2.72l-.05-.06c-.94-.9-3.6-2.15-4.46-.47a2.78,2.78,0,0,0,.25,2.41,41.66,41.66,0,0,1-2.47,3.45,13.36,13.36,0,0,0-1.44-5.7,8.77,8.77,0,0,0-3.56-3.85,2.39,2.39,0,0,0-1.53-1.29c-1.12-.34-3.49-.49-4,.83a4.7,4.7,0,0,0,0,2.85,17.07,17.07,0,0,1-2.38,2.57,24.77,24.77,0,0,0-1.74-7.7c-1.11-2.55-3.91-5.39-6.78-3.94a2.5,2.5,0,0,0-1.87.63c-.72.65-.46,1.6,0,2.37a6,6,0,0,0-1.27,3.39l-.57-.34c-.74-.42-1.5-.83-2.25-1.24a19.6,19.6,0,0,0-1.74-7c-.79-1.57-2.42-3.71-4.33-3.67a6.12,6.12,0,0,0-1.5-.58,3,3,0,0,0-3.31,1.23,2.85,2.85,0,0,0,.12,2.74,5.21,5.21,0,0,0-1.1,1.9c-1.61-.6-3.23-1.14-4.87-1.64-1.31-2.47-3.85-4.58-6.46-4.82a6.78,6.78,0,0,0-4.82,1.65,63.49,63.49,0,0,0-6.75-8.06c-1-1-1.91-1.91-2.92-2.8l-1.46-1.3a3.49,3.49,0,0,0-2.34-.6c-.37,0-.76,0-1.14.05a38,38,0,0,0-6-6.73,20.83,20.83,0,0,0-6.32-3.93,6.6,6.6,0,0,0-3.24-.55l-.29.05A28.6,28.6,0,0,0,81.63,54a21.34,21.34,0,0,0-9.09-4.61,29.39,29.39,0,0,0-11.88-6.49,12.29,12.29,0,0,0-4.33-.26,15.73,15.73,0,0,0-6.64-3.06l-.27,0a8.2,8.2,0,0,0-5.75-2.25A12.53,12.53,0,0,0,37.76,39a11.6,11.6,0,0,0-4.81.24,18.08,18.08,0,0,0-7.68,4.28,13.42,13.42,0,0,0-4.22,1.17,20.94,20.94,0,0,0-7.85,7.13,33.2,33.2,0,0,0-2.8,4.76,19.94,19.94,0,0,0-5.25,4,20.19,20.19,0,0,0-5,10.52c-.65,4.27.16,11,5.47,11.76,2.47.37,4.81-.85,6.89-2a57.19,57.19,0,0,0,6.56-4.33,77.4,77.4,0,0,0,10.7-9.77,52.53,52.53,0,0,0,4.16-5,11.1,11.1,0,0,0,.92,4A6.57,6.57,0,0,0,41,69.52a14.31,14.31,0,0,0,2.58,5.1c1.4,1.82,3.82,3.17,6.14,2.66a7.61,7.61,0,0,0,2.57-1.15,11.5,11.5,0,0,0-.08,1.16,10.57,10.57,0,0,0,2.33,6.78c2.6,3.13,6.65,2.42,9.76.47a15.29,15.29,0,0,0-.75,4A14.6,14.6,0,0,0,65.2,95.6a12.42,12.42,0,0,0,5.34,5.55,5.71,5.71,0,0,0,5-.09,15.11,15.11,0,0,0,3.18,8,26.37,26.37,0,0,1-2.91-1.46,4.55,4.55,0,0,0-3.7-2.77c-1.84-.15-3.45,1.35-4.58,2.76-.77.17-1.5.38-2.17.6a50.22,50.22,0,0,0-8,3.45,70.09,70.09,0,0,0-11.45,8.06c-1.82-.12-4.09.17-4.89,1.51a84.13,84.13,0,0,0-19.45-6.69A67.3,67.3,0,0,0,9,113.24H7.38c.5,0,1,.1,1.51.16a87.25,87.25,0,0,1,15.76,3.46,111.11,111.11,0,0,1,16.67,6.87c.06.19.13.37.19.55a40.91,40.91,0,0,0-8.92,12.58,42.33,42.33,0,0,0-3.67,12.19c-.06.33-.1.65-.14,1,.14-.3.27-.59.41-.88a70.46,70.46,0,0,1,5.95-10.8,47.46,47.46,0,0,1,6-7.27,27.25,27.25,0,0,1,5-4,7.62,7.62,0,0,0,1.26-.08c1.92,1.12,3.83,2.27,5.71,3.49l1.62,1c-1,1-2,2-2.94,3-1.51-.46-2.75.79-3.26,2.32a6.06,6.06,0,0,0-.28,1.33,50.62,50.62,0,0,0-7.6,14.4,33.36,33.36,0,0,0-1.82,14.27c0,.37.09.73.14,1.1q.09-.6.21-1.2a36.83,36.83,0,0,1,5.26-12.23,74,74,0,0,1,8.54-11,4.18,4.18,0,0,0,2.5-.84A4.61,4.61,0,0,0,57,139.6c1.54-1.26,3.07-2.51,4.63-3.74,3,1.79,6,3.54,9,5.21a74.85,74.85,0,0,0-8.39,11,3.58,3.58,0,0,0-3.55,3,6,6,0,0,0,0,2.5,48,48,0,0,0-5,16.08,43.65,43.65,0,0,0-.05,10c.05.55.14,1.09.23,1.63s.23,1.32.37,2c0-.62,0-1.24,0-1.87s.08-1.51.16-2.27a34.88,34.88,0,0,1,1.9-8.12A46.2,46.2,0,0,1,63.41,162a3.37,3.37,0,0,0,3.35-.66c1.09-1.25,1.06-3.36.8-5.11a81.83,81.83,0,0,1,8-9.82c.59-.6,1.2-1.19,1.81-1.77l3,1.52q7.56,3.71,15.4,6.94l-.13.36A83.89,83.89,0,0,0,92.62,174a5,5,0,0,0-.82,3.74,4.25,4.25,0,0,0,1.27,2.69,48.47,48.47,0,0,0,2.52,15.29,46.48,46.48,0,0,0,4,8.74c.46.74,1,1.43,1.45,2.12.22.29.43.59.66.87-.15-.37-.28-.75-.42-1.13-.31-.81-.59-1.65-.85-2.5a56.94,56.94,0,0,1-1.79-9.7,109.45,109.45,0,0,1-.17-14.82,5.3,5.3,0,0,0,1.13-2.49c.23-1.49-.12-3.71-1.8-4a58.18,58.18,0,0,1,3.09-15.76c.21-.59.43-1.18.67-1.76A224.07,224.07,0,0,0,126,163.18a13.92,13.92,0,0,1-2.76,1.34,53.54,53.54,0,0,0-6.35,2.78c-1.58.92-3.59,2.36-3.23,4.46a5,5,0,0,0,2.35,3.08,8.26,8.26,0,0,0-2.17,3.89,19.6,19.6,0,0,0-.78,6.55c0,.53.07,1.06.08,1.58a10.16,10.16,0,0,0-3.15,4,16.64,16.64,0,0,0-1.25,6.38,13.48,13.48,0,0,0,2.76,7.82,21,21,0,0,0,3.7,4v0a6.6,6.6,0,0,0,1.58,4.64c1.54,1.65,3.92,2.07,6.08,2.12,6.14,2.75,12.79,3.15,19.42,2.64a71.27,71.27,0,0,0,19.34-3.86,97,97,0,0,0,27.52-16.07,65,65,0,0,0,11-11.25A27.74,27.74,0,0,0,205.44,176a.59.59,0,0,0,0-.14s-.07.1-.1.16l-.09.12a29.93,29.93,0,0,1-5.22,5.81,42.4,42.4,0,0,1-11.19,6.66,66.72,66.72,0,0,1-13.3,3.81c-.84.16-1.7.35-2.55.46a45.76,45.76,0,0,1,11.65-9.17,34.27,34.27,0,0,1,7.55-3.16,42,42,0,0,1,6.25-1.18h.09l-.17-.11a14.71,14.71,0,0,0-9.12-2.05,36.53,36.53,0,0,0-12.33,3.67A74,74,0,0,0,162.42,190l-.36-.1a62.5,62.5,0,0,0-16.15-1.23A59.34,59.34,0,0,0,135,189.7a12.25,12.25,0,0,0-1.43-1.78,10.06,10.06,0,0,0,1.35-5.41,7.59,7.59,0,0,0,2.69-.38c2-.68,3-2.38,3.74-4.24a12.28,12.28,0,0,0-1-8.44,15.34,15.34,0,0,1,.72-3l.32.07a117.27,117.27,0,0,0,15.86,1.74c5.05.16,10.38-.13,15.08-2.14,2-.88,4.27-2.29,4.75-4.64a5.7,5.7,0,0,0-.21-2.84c1.1.9,2.26,1.74,3.43,2.52a23.78,23.78,0,0,0,5.8,2.93l.43.13-.5-.53a35.88,35.88,0,0,1-5.74-8l-.35-.63a47,47,0,0,0,6.23,4.21,26.61,26.61,0,0,0,10,3.42l.48.05-.61-.35a23.92,23.92,0,0,1-4.07-2.87,70.22,70.22,0,0,1-6.54-6.71c-.19-.22-.36-.45-.55-.67a6,6,0,0,0,5.53-2.35h0l.76,0-.52-.27,0,0a31.29,31.29,0,0,0,3.42-5.78,132.49,132.49,0,0,0,6.24-14.12,106.79,106.79,0,0,0,3.8-13l1.28-.61c.3-.13.64-.29,1-.43.61.37,1.22.72,1.84,1.07,2,1.1,4.08,2.41,6.44,2.23,3.83-.3,5.87-4,6.64-7.43.29.47.59,1,.92,1.42,5.63,8.06,14.47,13.9,23.16,18.2.85.42,1.71.82,2.57,1.21,3.32,5.16,6.93,10.15,10.71,15a99.33,99.33,0,0,0,10,11.26c2.88,2.71,6,5.35,9.79,6.6a33.88,33.88,0,0,1,.13,6.21v.14l.06-.16.06-.15a16.63,16.63,0,0,0,.79-2.82A28.34,28.34,0,0,0,280,161.25ZM41.72,124.11c0-.08-.1-.16-.14-.24l.26.13Zm56.36-5.33c.22,1,1,2.63,2.08,2.83a4.1,4.1,0,0,0,.12.7,22.24,22.24,0,0,1-4.64-1.73c-1.61-.83-3.19-1.74-4.76-2.64a25.18,25.18,0,0,0,7.19.65Zm65.45-9.32a30.4,30.4,0,0,0-1.66-2.75c2.1-1.47,3-4.22,3.28-6.92,2,1.44,3,4.11,3.67,6.57-.83,1.08-1.63,2.17-2.42,3.28A7,7,0,0,0,163.53,109.46ZM69.63,129.8a97.56,97.56,0,0,1,9.63-6.22,29.88,29.88,0,0,1,3.36-1.64,4.54,4.54,0,0,0,2.85,2,3.7,3.7,0,0,0,3-.58,22.33,22.33,0,0,0,2.25,1.6,21.5,21.5,0,0,0,5.52,2.43,16.54,16.54,0,0,0,6.26.5,4.55,4.55,0,0,0,2.13,1.11,7.92,7.92,0,0,0,1.22,3.57,28.38,28.38,0,0,1-4.27-.79c-2.13-.56-4.22-1.21-6.34-1.8L93,129.42l-.47-.55c-.67-.74-1.63-2-2.76-2h-.13c-1.87.2-3.22,2.12-3.54,4-5.12,1-9.62,4.4-13.33,8.1-2.91-1.62-5.78-3.28-8.65-5C65.92,132.54,67.76,131.15,69.63,129.8ZM87,137.49l1.08-.61a3.09,3.09,0,0,0,2.81,1.33,5.45,5.45,0,0,0,2.36-.68,34.83,34.83,0,0,0,8.26,1.74c.36,0,.73.06,1.09.09a22.69,22.69,0,0,0,8.28-.92A2.61,2.61,0,0,0,113.1,140a6,6,0,0,0,.13,2.62H113c-2.19,0-4.37-.12-6.55-.27-.67,0-1.33-.14-2-.23a4.66,4.66,0,0,0-3.08-1.9c-1.7-.15-3,1.13-3.86,2.44a5.12,5.12,0,0,0,0,6c-.21.46-.4.91-.59,1.38a175.88,175.88,0,0,1-17.15-7.45l-.08,0A54.76,54.76,0,0,1,87,137.49Zm16.26,13.8A2.76,2.76,0,0,0,106,149.7c2.86-.45,5.7-.95,8.56-1.38,1.72-.25,3.44-.5,5.16-.71,0,1.67.44,3.67,2,4.23a6.85,6.85,0,0,0,3,.26c.14,0,1.1-.12,1.88-.27a8.31,8.31,0,0,0,1.47,4.29,8.33,8.33,0,0,0-1.91,2.55c-5.38-1.16-10.71-2.55-16-4.13q-3.7-1.11-7.35-2.35C103,151.89,103.12,151.59,103.24,151.29Zm42.83,9.54a36.39,36.39,0,0,0,8.41,0c2.48-.33,5.49-.89,7.45-2.63a21.1,21.1,0,0,0,4.51,2.92,21.76,21.76,0,0,1-2.62.55,48.52,48.52,0,0,1-7,.58,93,93,0,0,1-10.94-.43A5.72,5.72,0,0,0,146.07,160.83Zm37.18-53.34a2,2,0,0,0-.11.26,3.32,3.32,0,0,0-1.76.81c-1.42,1.22-1.81,3.4-1.71,5.3a27,27,0,0,1-4.45,3,11.15,11.15,0,0,0-1.71-.7l-.08,0a11.42,11.42,0,0,0-2.45-.48,9.65,9.65,0,0,0-.88-3,12.09,12.09,0,0,0,4.27-4.56,25.82,25.82,0,0,0,2.27-4.81c.76.55,1.73.78,2.27,0A10.4,10.4,0,0,1,183.25,107.49ZM51.34,126.54l-1.78-1a76.83,76.83,0,0,1,10.32-8.64,28.45,28.45,0,0,1,9.18-4.54l.13.46c.37,1.5,2,1.46,3.19,1.15a5.88,5.88,0,0,0,1.14-.67,24.72,24.72,0,0,0,5.61,2.35c.63.19,1.26.36,1.9.51a1.67,1.67,0,0,0-.08.2v0a46.6,46.6,0,0,0-5.25,1.7,57.48,57.48,0,0,0-10.18,5.06,71.87,71.87,0,0,0-8.72,6.51Q54.07,128.08,51.34,126.54Zm132.92,18.67a26.59,26.59,0,0,1-3.78-4.2,17.13,17.13,0,0,0-.45-3.52,8.71,8.71,0,0,0,1.38-5.49,5.23,5.23,0,0,0,1.73-2.93,2.55,2.55,0,0,0,0-1.17,8,8,0,0,0,4.73-4.86,5.85,5.85,0,0,0,2.61-2.27,7.43,7.43,0,0,0,3.34.08,22.5,22.5,0,0,0,5.65-2.1l.77-.37q-1.11,3.91-2.48,7.77c-1.65,4.61-3.58,9.11-5.48,13.63a15.52,15.52,0,0,1-3.64,5.76,5.7,5.7,0,0,1-2.38,1.28A25,25,0,0,1,184.26,145.21Zm84.47.22c.68.72,1.33,1.45,2,2.21a35.69,35.69,0,0,1,7,13.44l.18.75A45.38,45.38,0,0,1,268.73,145.43Zm-48.8-58.57c-.18.42-.36.85-.51,1.3a3,3,0,0,0-1-.41A6.84,6.84,0,0,1,219.93,86.86Z"/></svg>