<svg id="Layer_1" data-name="Layer 1" xmlns="http://www.w3.org/2000/svg" viewBox="0 0 256 256"><defs><style>.cls-1{opacity:0.3;}.cls-2,.cls-8{fill:#c7c2b5;}.cls-18,.cls-19,.cls-2,.cls-3,.cls-4,.cls-7{stroke:#333;stroke-miterlimit:10;}.cls-3,.cls-6{fill:#f4f0df;}.cls-4,.cls-9{fill:#df771f;}.cls-5,.cls-7{fill:#ff912a;}.cls-10{fill:#2c1f21;}.cls-11{fill:#ffdd7c;}.cls-12{fill:#ceb062;}.cls-13{fill:#613e40;}.cls-14{fill:#2e1e20;}.cls-15{fill:#4a9544;}.cls-16{fill:#347230;}.cls-17{fill:#fff;}.cls-18,.cls-19{fill:none;}.cls-19{stroke-width:0.99px;}</style></defs><ellipse class="cls-1" cx="128" cy="212.2" rx="94.25" ry="13.48"/><path class="cls-2" d="M64.83,211.6c.3-4.3,2.35-9.55,5.56-10.81l.49-.19-.52-.06a10.11,10.11,0,0,0-1.08-.07,8.07,8.07,0,0,0-1.48.14c-3.34.6-5.76,6-6.09,10.6a4.45,4.45,0,0,0,1.37,3.86A6.07,6.07,0,0,0,67,216.5l.09-.24a5,5,0,0,1-.81-.57A4.73,4.73,0,0,1,64.83,211.6Z"/><path class="cls-2" d="M69.55,214c-.64-2,1.46-7.76,2.48-9.42a6.32,6.32,0,0,1,3.8-2.68l.33-.08-.29-.16a8.11,8.11,0,0,0-3.92-1,7.56,7.56,0,0,0-1.5.15c-3.08.62-5.3,6.09-5.6,10.8a4.76,4.76,0,0,0,1.26,3.93A6.64,6.64,0,0,0,70.67,217h.47l.11.05.14-.22A5.4,5.4,0,0,1,69.55,214Z"/><path class="cls-3" d="M66.37,96.14s.79,6.92-1.25,17.44,10.44,28.49,10.44,28.49l26.19-3.55,4.79-47.41L96.78,83.6,79,84.44Z"/><path class="cls-4" d="M98.69,160.19v.09c-.27,1.66-1.63,10.17-1.87,15.9,0,.12,0,.25,0,.38,0,1.13-.08,2.44-.12,3.85-.17,6.73-.22,15.67-.14,18.11a10.69,10.69,0,0,1-1.22,4.72,23.87,23.87,0,0,0-1.47,4.3,21.7,21.7,0,0,0-.32,3c-.11,2.33-.22,4.33-2.48,5.66l-.09.05a13.41,13.41,0,0,0-.79-3.51c-.08-.21-.16-.41-.25-.62s-.22-.55-.35-.82-.17-.36-.26-.5a.91.91,0,0,1-.07-.14,1.16,1.16,0,0,1-.12-.2l-.51-.89c-2.2-3.74-5.88-7.18-10.33-7.78a7.14,7.14,0,0,0-.93-.06h-.55l.13-.2a2.17,2.17,0,0,0,.21-.51l0-.07.07,0a9.85,9.85,0,0,1,2.79-.4c.32,0,.62,0,.9,0a9.26,9.26,0,0,0-1.49-.11,10.21,10.21,0,0,0-2.06.21l-.17,0,0-.18c.09-.92.22-2.18.32-3.55.06-.67.11-1.36.15-2,.08-1.21.12-2.42.1-3.47a9.69,9.69,0,0,0-.06-1.06,25,25,0,0,0-.55-3.24c-.37-1.71-.91-3.72-1.56-6.13-.76-2.85-1.69-6.31-2.72-10.59l-.7-3.05c-.36-1.59-.67-3.09-.94-4.5-.07-.34-.13-.67-.2-1h0c-.55-3-1-5.51-1.27-7.72-.14-1-.26-1.94-.38-2.8,0-.11,0-.22,0-.32-.29-2.16-.52-3.85-.8-5.09s-.78-3-1.37-5.09c-.5-1.78-1-3.75-1.55-5.7a64.71,64.71,0,0,1-1.52-7c0-.08,0-.16,0-.25-.52-4-.06-9.85,1.39-17.22.13-.67.26-1.31.38-1.92l.27,0c-.5,11.58,4,21.48,8,28.81l0,.07c1,1.9,4,7.19,6.45,10.78l.08.1a20.48,20.48,0,0,0,2.08,2.65c2.8,2.85,5.11,4.59,10.62,6.76,1.67.66,3.42,1.39,5.18,2.17Z"/><path class="cls-5" d="M64.12,128.16a65.73,65.73,0,0,0,1.42,6.66c.34-.43-.42-4.27-.42-4.27s6.72,4,8.38,5.72c-3.57-7-7.82-17.25-7.38-27.46l-.27,0c-.12.61-.25,1.25-.38,1.92-1.45,7.37-1.91,13.17-1.39,17.22C64.1,128,64.1,128.08,64.12,128.16Z"/><path class="cls-5" d="M87.88,208.47a30.18,30.18,0,0,0,.26-7.73,28.67,28.67,0,0,0-2.25-9.29c-1-2-2.75-3.89-5.26-3.3a6,6,0,0,0-3,1.83c0,.15,0,.3,0,.45a9.69,9.69,0,0,1,.06,1.06c0,1,0,2.26-.1,3.47,0,.69-.09,1.38-.15,2-.1,1.37-.23,2.63-.32,3.55l0,.18,0,.24,0,.07a2.17,2.17,0,0,1-.21.51l-.13.2h.55a7.14,7.14,0,0,1,.93.06C82.27,202.35,85.65,205.19,87.88,208.47Z"/><path class="cls-2" d="M89.44,210.2A19.9,19.9,0,0,0,87,206.63c-2.91-3.39-6.41-5.26-9.84-5.26h-.46a6.1,6.1,0,0,0-4.73,2.84c-1,1.69-3.15,7.72-2.55,9.58a5.12,5.12,0,0,0,4.4,3.84,39.63,39.63,0,0,0,6.44.45h0a31.63,31.63,0,0,0,9.83-1.3,9.27,9.27,0,0,0,1.15-.5l0,0a13.46,13.46,0,0,0-1.69-5.85A1,1,0,0,1,89.44,210.2Z"/><path class="cls-6" d="M69.61,200.53c-.31,0-.63-.06-.93-.06a6.84,6.84,0,0,0-1.37.14c-2.36.46-4.22,3.74-5.09,7.34a2.53,2.53,0,0,0,2.37.52C65.4,204.91,66.83,201,69.61,200.53Z"/><path class="cls-6" d="M75.87,201.58a9.72,9.72,0,0,0-3.92-.94,7.56,7.56,0,0,0-1.5.15c-2.42.49-4.3,4-5.15,7.72a6,6,0,0,0,4.29,1.15C70.3,205.66,72.26,201.34,75.87,201.58Z"/><path class="cls-6" d="M87.82,208.35c-.26-.34-.81-1-1.09-1.31-2.82-3.27-6.19-5.07-9.5-5.07h-.44a5.86,5.86,0,0,0-4.57,2.74,24,24,0,0,0-1.92,4.91C72.26,212.17,86,213.2,87.82,208.35Z"/><path class="cls-2" d="M125.64,208.05a4.76,4.76,0,0,0-4.67-3.76,3.87,3.87,0,0,0-4,2.38c-.73,1.73-.91,12.32,0,14.11a4.27,4.27,0,0,0,3.25,1.58c.25,0,.51,0,.78,0a5.24,5.24,0,0,0,4.13-1.65C127.2,218.29,126.31,210.26,125.64,208.05Z"/><path class="cls-7" d="M185.33,174.71c-.49-2.44-.66-3.59-1.5-9.12l-.29-2c-.13-.87-.25-1.88-.36-3.06v-.12a198.23,198.23,0,0,1-.11-24.24c.14-2.54.55-6.3,1-10.31.66-6.13,1.42-13.08,1.26-16.45a14.16,14.16,0,0,0-.78-3.56s0,0,0,0c-.09-.32-.21-.65-.34-1a44.29,44.29,0,0,0-2.28-5.16h0c-.25-.52-.53-1-.82-1.56-2.44-4.44-5.57-8.83-8.41-11.15-.22-.18-.43-.35-.65-.5s-.67-.48-1-.69a17.6,17.6,0,0,0-6.7-2.7,20.71,20.71,0,0,0-2.19-.29c-1-.09-2-.13-3.05-.13-.77,0-1.58,0-2.38,0h0l-1.75.08-2.4.16a56.82,56.82,0,0,0-6.13.79c-.9.17-1.78.34-2.65.54-1.35.28-2.68.6-3.93.93l-.63.16c-2,.51-3.76,1-5.25,1.47l-1.35.41-1.3.38c-.44.14-.81.24-1.09.31a6.58,6.58,0,0,1-1.68.19,17.87,17.87,0,0,1-5.11-.94l-.13.21c.32.31.63.63.93.93s.44.44.65.66l-.69-.63c-1-.91-2.12-1.87-3.17-2.73-.72-.58-1.4-1.12-2-1.56A10.59,10.59,0,0,0,117.1,83a15.86,15.86,0,0,0-2.21-.64c-.78-.17-1.62-.32-2.44-.45-2.08-.33-4.07-.53-4.68-.59h-.57l0,.73c.39,2,.33,3.57,1.08,5.64-.21-1.77-.55-4.18-1.08-6.58-.18-.86-.4-1.72-.64-2.55s-.57-1.85-.88-2.72a56.17,56.17,0,0,0-3.18-7.19L102.1,68c0,.39.1,1.58.07,4.23,0,0-.13.09-.23-.32l-.37-1.15V74c-.29,2.83-.42,6.23-3.24,9.06,2.16-3.28.87-1.84,1.07-2.51l-.89,1.46a12,12,0,0,1-3.09,3l-.09.06,0,.1a54.52,54.52,0,0,1,2.48,7.55c.16.62.3,1.28.44,1.95a45.46,45.46,0,0,1,.87,9.47c0,1.08-.06,2.21-.15,3.36a1.64,1.64,0,0,1,0,.22c-.1,1.14-.23,2.31-.43,3.51a56.57,56.57,0,0,1-2.68,10.35c-2.94,8.14-.08,18,4.08,23.19l.27.33s-.09-1.14-.13-1.63c.14,1.18.29,2.47.45,3.81h0c.23,1.82.47,3.73.73,5.52.34,2.39.7,4.58,1.06,6.09.84,3.61,1.8,8.56,2.56,13.53.23,1.54.45,3.09.63,4.59.23,1.86.42,3.67.53,5.35,0,.32.05.66.08,1,.08,1,.17,2.05.27,3.12,0,.28,0,.57.07.86v.1c.13,1.51.27,3.06.39,4.63,0,.29,0,.59.07.88,0,.61.09,1.22.12,1.83h0c0,.72.08,1.45.12,2.15a44.9,44.9,0,0,1-.32,8.86l0,.17.17,0a2.42,2.42,0,0,1,.38,0,5.88,5.88,0,0,1,2.41.6l.09,0,.07-.07a4.1,4.1,0,0,1,3.22-1.26c1.71,0,2.9.52,3.55,1.53l.12.18.11-.18a4,4,0,0,1,3.74-1.93,4.5,4.5,0,0,1,3.35,1.4l.08.09.1-.08a4.64,4.64,0,0,1,2.67-.8l.37,0,.26,0-.13-.21c-1.58-2.69-1.74-4.5-1.74-8.29,0-.28,0-.58,0-.93s0-.55,0-.85c.09-2.07.34-5,.7-8.28,0-.37.08-.74.13-1.12.27-2.48.61-5.14,1-7.81l.06-.44c.24-1.6.48-3.2.74-4.76.16-1,.32-1.92.47-2.92.08-.53.16-1.06.25-1.59.24-1.65.47-3.33.69-5h0c.11-.78.2-1.54.3-2.31.22-1.81,1.3-3.32,1.47-5.07,0-.22-.42-1-.39-1.18.41-4.38.9-7.27.81-10.21,0-.28-.12-1.38-.14-1.68-.05-1-.22-2.21-.35-3.43-.39-3.88-2.54-15.09-2.58-16.07.55,3.22,1.72,10.4,2.29,16,.09.86.21,2.27.28,3.39,0,.31,0,.62,0,.91,0,1.27,0,2.79-.06,4.53v.11l.11,0a3.2,3.2,0,0,0,.7.07,9.14,9.14,0,0,0,3.35-.91c3.55-1.49,6.56-2.48,9.7-2.48h.14a11,11,0,0,1,7.37,2.74l.19-.17-.24-.38a38.48,38.48,0,0,1,2.72,3.6c3,4.64,6.83,11.09,8.45,15.4,3.69,9.83,3.31,21,2.6,25.54a24.08,24.08,0,0,1-3.71,9.26l-.09.14.16.05a4.51,4.51,0,0,1,1.21.58l.07,0,.08,0a4.43,4.43,0,0,1,2.19-.83h.41a4.94,4.94,0,0,1,4.22,1.83l.05.07.08,0a9.39,9.39,0,0,1,1.19-.09,5.73,5.73,0,0,1,3.28.9,5.63,5.63,0,0,1,1.15,1.14l.23.3.05.08.26.36q.18.27.33.54h0a.35.35,0,0,1,.06.09l.06.1a9.3,9.3,0,0,1,1.14,2.86s0,.17.09.44a0,0,0,0,0,0,0,1.22,1.22,0,0,0,0,.17,5.86,5.86,0,0,1,.12.63c0,.19.08.39.11.6a15.24,15.24,0,0,1,.22,1.58l0,.41.21-.36c.77-1.32.87-3.17,1-5.76.07-1.27.15-2.71.32-4.34a116.44,116.44,0,0,1,2.57-14.37c.2-.88.4-1.78.61-2.73C185.61,179.29,185.88,177.4,185.33,174.71Z"/><path class="cls-8" d="M72.68,101.67A18.41,18.41,0,0,0,89,100a27.94,27.94,0,0,0,8.48-8.78,61.22,61.22,0,0,0-2-6l-.06-.15-.13.09A12.66,12.66,0,0,1,91,87c.17-.1,1.94-.92,2.15-1l-.22-.29a46.45,46.45,0,0,1-8.64,2.24,19.15,19.15,0,0,0-9.54,4.26c-1,1.76-2.25,4.17-4.86,5a11.53,11.53,0,0,1-3.36.54h-.13A26.3,26.3,0,0,0,72.68,101.67Z"/><path class="cls-8" d="M100.38,146.75c0-.54-.11-1.17-.13-1.42v0l0,0a24,24,0,0,1-4.49-8.81c-7.22,4.91-18,5.49-22.23-.18l.68,1.27c.06.11,5.23,11,7.71,14.22,4.7,6.05,21.1,10.1,21.1,10.1S100.72,150.51,100.38,146.75Z"/><path class="cls-9" d="M185.05,174.71c-.5-2.44-.67-3.59-1.5-9.12l-.3-2c-.13-.87-.25-1.88-.35-3.06v-.12c-.14-1.59-.23-3.37-.3-5.24a18.3,18.3,0,0,1-2.23,4c-3.41,4.57-7.84,2.64-11.4-.81-6.61-6.4-10.15-19-21.11-18.18-2.82.22-10.86,1.85-15.44.21A81,81,0,0,0,129,125.24s0,0,0,0c.65,4.82,1.35,9.65,2.1,14.46l-.14-.08c.09.87.2,2.11.26,3.13,0,.31,0,.62,0,.91,0,1.27,0,2.79-.06,4.53v.11l.12,0a3.2,3.2,0,0,0,.7.07,9.2,9.2,0,0,0,3.35-.91c3.55-1.49,6.56-2.48,9.7-2.48h.14a11,11,0,0,1,7.36,2.74l.2-.17-.25-.38a36.88,36.88,0,0,1,2.73,3.6c3,4.64,6.83,11.09,8.45,15.4a52.58,52.58,0,0,1,3,16.34c.65-2,1.65-3.86,3.52-4.75,2.53-1.21,4.63.26,5.8,2.52,3.64,7.05,2.11,16.24.47,24.36l.07.09c.09.1.16.2.24.3l.05.08.26.36q.18.27.33.54h0a.35.35,0,0,1,.06.09l.06.1a9.53,9.53,0,0,1,1.13,2.86l.1.44v0a1.36,1.36,0,0,0,0,.17,5.86,5.86,0,0,1,.12.63c0,.19.07.39.11.6.09.55.19,1.13.22,1.58l0,.41.21-.36c.77-1.32.87-3.17,1-5.76.07-1.27.15-2.71.32-4.34a114.59,114.59,0,0,1,2.57-14.37c.2-.88.4-1.78.61-2.73C185.33,179.29,185.6,177.4,185.05,174.71Z"/><path class="cls-9" d="M131.47,142.2c0-.28,0-.57,0-.87,0-1-.21-4.37-.21-4.37s-5.47,16.36-14.45,9.12c-3.36-2.71-12.07-17.37-15.16-16.09-2.71,1.13-2.71,3.48-5.61,4.94a24.46,24.46,0,0,0,4.18,8.43l.27.33s.29,1.92.32,2.18h0c.23,1.82.47,3.73.73,5.52.34,2.39.7,4.58,1.06,6.09.84,3.61,1.8,8.56,2.56,13.53.23,1.54.45,3.09.63,4.59.23,1.86.42,3.67.54,5.35,0,.32,0,.66.07,1,.08,1,.81,10.73.82,10.87.58-7.46,7.41-8.8,11.81-6.76,5.32,2.46,3.24,12.55,7.23,18.06a5.19,5.19,0,0,1,.9-.08h.37l.26,0-.13-.21c-1.58-2.69-1.74-4.5-1.74-8.29,0-.27,0-.58,0-.93s0-.55,0-.85c.09-2.07.34-5,.7-8.28,0-.36.08-.74.13-1.12.27-2.48.61-5.14,1-7.81l.06-.44c.24-1.6.48-3.2.74-4.76.16-.94.32-1.92.47-2.92.08-.52.16-1.06.25-1.59.24-1.64.48-3.33.69-5h0c.11-.77.2-1.54.3-2.31.22-1.81.42-3.61.59-5.35l.06-.65A97,97,0,0,0,131.47,142.2Z"/><path class="cls-7" d="M215.91,172.72a2.66,2.66,0,0,0-2.1-.8,4.8,4.8,0,0,0-2.95,1,25.94,25.94,0,0,1-5.12,3.21,7.63,7.63,0,0,1-3.4.93c-1.86,0-3.64-1-6-3.33-3.53-3.58-4.53-9.7-6.18-19.83l-.16-1a148.63,148.63,0,0,1-1.48-21.69c0-2.78-.09-5.4-.22-7.74a48,48,0,0,0-2.54-12.7l-.25,0c0,3.62-.67,9.41-1.28,15.06-.43,4-.84,7.74-1,10.29a196.05,196.05,0,0,0,.11,24.23c1.87,15.5,9,22.39,13,24a17.36,17.36,0,0,0,6.48,1.25h0a15.06,15.06,0,0,0,10.7-4.34C217.44,177.64,217.25,174.38,215.91,172.72Z"/><path class="cls-9" d="M215.37,172.29c-2.73,3.85-6.36,7.29-10.85,8.29-6.3,1.39-13.12-3.47-15.38-9.2-1.44-3.63-3.18-13.35-3.32-27.63,0-5.07,0-10.14,0-15.21,0-2.78.12-9.8-.37-15.85-.24,2.62-.88,10.39-1.19,13.23-.43,4-.84,7.74-1,10.29a196.05,196.05,0,0,0,.11,24.23c1.87,15.5,9,22.39,13,24a17.36,17.36,0,0,0,6.48,1.25h0a15.06,15.06,0,0,0,10.7-4.34c3.88-3.72,3.69-7,2.35-8.64A1.93,1.93,0,0,0,215.37,172.29Z"/><path class="cls-10" d="M187.9,119.29c-.16-1-.33-2-.52-2.83a21.11,21.11,0,0,0-2.21.72c-.09,1-.19,2.08-.3,3.16Q186.37,119.79,187.9,119.29Z"/><path class="cls-10" d="M188.88,134.41c0-.59-.15-1.85-.16-2.44a35.37,35.37,0,0,0-5.23.72c-.07.78-.12,2.05-.17,2.71A26.05,26.05,0,0,1,188.88,134.41Z"/><path class="cls-10" d="M189.43,147.16c0-.68-.07-1.48-.11-2.16a13.53,13.53,0,0,0-6.34,1.52c0,.56,0,1.82,0,2.37A11.87,11.87,0,0,1,189.43,147.16Z"/><path class="cls-10" d="M183.49,161.08c.19,1.39.41,2.72.68,4a23.34,23.34,0,0,1,7.3-3.76c-.19-1-.45-2.47-.63-3.56C190.74,157.74,185.73,159.86,183.49,161.08Z"/><path class="cls-2" d="M129.37,205.61a4.49,4.49,0,0,0-2.47-.67,5.39,5.39,0,0,0-2.89.77l-.12.09.09.11a6.09,6.09,0,0,1,1.16,2.07c.58,1.77,1.68,9-.11,12.26l0,.08.06.07a3.47,3.47,0,0,0,2.25.88l.39,0h0a5.56,5.56,0,0,0,4.11-1.81c1-1,1.26-3.25.87-6.08C132.18,209.92,130.73,206.5,129.37,205.61Z"/><path class="cls-2" d="M117.23,206.56l0-.07-.05-.06a4.93,4.93,0,0,0-3.85-1.71c-2.43,0-4.18.94-5.39,5.52s-1.17,8.25,0,10.15a4.65,4.65,0,0,0,3.49,1.67q.3,0,.6,0a7,7,0,0,0,4.86-1.94l0-.05V220C116.29,216.94,116.46,208.27,117.23,206.56Z"/><path class="cls-2" d="M155.21,148.63l-.07-.12a10.86,10.86,0,0,0-9-4.38h-.13c-3.3,0-6.46,1.05-10.18,2.64a9.63,9.63,0,0,1-3.55,1,3.85,3.85,0,0,1-.69-.06l-.16,0v.15c-.15,3.24-.47,7.06-1,11.36l0,.22.2-.07c7.87-2.63,16.79-5.62,24.42-10.61Z"/><path class="cls-2" d="M142.6,205.87l0-.15c.9-5.62,3-7.06,4.55-7.29.29,0,.56-.05.77-.05v-.13h0v-.15a19.36,19.36,0,0,0-4.3-1.13,3.48,3.48,0,0,0-.55,0,3.19,3.19,0,0,0-1.89.62c-1.87,1.34-3.25,5.42-3.49,7.73a4,4,0,0,0,1.59,3.91,5.26,5.26,0,0,0,3.12.84,9.42,9.42,0,0,0,1.87-.19l.33-.06-.27-.17A3.57,3.57,0,0,1,142.6,205.87Z"/><path class="cls-4" d="M164.3,165.24c-1.81-4.72-6.17-12.17-9.09-16.55l-.17-.32-4.22,2.77a68.31,68.31,0,0,1-12.27,5.5l-.13.05,0,.13a57,57,0,0,0,7.06,11.23l1.29,1.59.06.07c2.86,3.51,5.33,6.53,5.77,9.35.5,3.28-.68,10.76-1.93,13.95a18.7,18.7,0,0,1-2,4.11l-.23.3a2.52,2.52,0,0,1-1.09.81l-.37.12.36.13a7.21,7.21,0,0,1,2.09,1.25h0a11.91,11.91,0,0,1,1.11,1.08,16.37,16.37,0,0,1,3.1,5.29s.15-.32.15-.32a6.88,6.88,0,0,1,4.79-3.87,4.45,4.45,0,0,1,2.6-1.1h.38a6.71,6.71,0,0,1,1.37.13l.09,0,0-.08a24.18,24.18,0,0,0,4-9.54C167.77,186.69,168.16,175.28,164.3,165.24Z"/><path class="cls-2" d="M149.55,199.1l-.25-.18a4.24,4.24,0,0,0-3.09-1.23,4.75,4.75,0,0,0-1,.11c-2.27.5-3.25,4.5-3.67,7.77a4.23,4.23,0,0,0,2.95,4.58,12.14,12.14,0,0,0,3,.26h0c1.83,0,3.86-.14,4.91-.22h.11l0-.23c0-.17,0-.35.06-.54a16.39,16.39,0,0,1,.94-3.55,10.28,10.28,0,0,0-.48-1.31A15.5,15.5,0,0,0,149.55,199.1Z"/><path class="cls-2" d="M108.09,210.18a10.77,10.77,0,0,1,1.78-4l.11-.14-.16-.07a6.68,6.68,0,0,0-2.5-.57,4.35,4.35,0,0,0-.74.06c-1.68.33-4,1.35-5.16,6.43s-.61,6.71.44,7.82c.68.72,2.33,1,3.53,1h0a5.45,5.45,0,0,0,2.42-.46l.12-.06-.06-.11C106.88,218,107,214.4,108.09,210.18Z"/><path class="cls-6" d="M125.8,215.21a31,31,0,0,0-.7-6.43c-.71-2.39-2.17-3.62-4.42-3.62a3,3,0,0,0-3.36,2.21c-.39.92-.71,4.54-.54,7.8C120.62,217.36,122.86,217,125.8,215.21Z"/><path class="cls-6" d="M132.66,213.64c-.48-3.48-1.93-6.9-3.29-7.79a4.49,4.49,0,0,0-2.47-.67,5.64,5.64,0,0,0-2.75.68c2.27,1.93,2.67,6.16,2.57,9a6.62,6.62,0,0,0,6-.35C132.73,214.24,132.7,213.94,132.66,213.64Z"/><path class="cls-6" d="M117.06,206.34a5.14,5.14,0,0,0-3.62-1.44c-2.43,0-4.18.94-5.38,5.53a27,27,0,0,0-.77,4.09,9.51,9.51,0,0,0,8.8.24C116,213.25,115.87,208.61,117.06,206.34Z"/><path class="cls-6" d="M109.78,206.15a6.61,6.61,0,0,0-2.43-.54,3.57,3.57,0,0,0-.74.07c-1.68.32-4,1.34-5.15,6.42-.2.92-.35,1.73-.45,2.45a6.1,6.1,0,0,0,5.74.22C107.07,211.37,107.86,208,109.78,206.15Z"/><path class="cls-2" d="M137.74,205.26c.3-2.65,1.89-6.41,3.78-7.79l.25-.18-.35,0a4.44,4.44,0,0,0-.55,0,4.37,4.37,0,0,0-3.08,1.21c-2,2-3.64,5.49-2.76,8.42a3.14,3.14,0,0,0,1.64,2,4.33,4.33,0,0,0,1.81.37l.49,0,.32,0-.21-.18A4,4,0,0,1,137.74,205.26Z"/><path class="cls-10" d="M114.89,82.34v0c-.74,6.11-2.31,12.08-5.82,17-1.49,2.08-7.31,8-10.5,11.94a.27.27,0,0,0-.07.08,19.34,19.34,0,0,0-1.79,2.46c-3.06,5.48-5.65,9-7.64,17,0-5.72,2.09-11.58,4.83-16.32a38.86,38.86,0,0,1,4.61-6.48c-4.05,1.78-11.62,8.64-12,9a41.53,41.53,0,0,1,8.29-9.58,45.82,45.82,0,0,1,4.29-3.23l0,0a43.92,43.92,0,0,0,5.49-4.24c4.45-4.29,6.31-11.52,7.79-18.09.82.13,1.66.28,2.44.45Z"/><path class="cls-10" d="M119.28,122.33c-.48,5.8-2.5,10.81-8.58,16.81-3.81,3.76-7.67,7.37-9.34,13.74-.26-1.79-.5-3.7-.72-5.52h0a23.46,23.46,0,0,1,6.08-8.42C112.29,134.2,117,130,119.28,122.33Z"/><path class="cls-10" d="M81,148.66a2.34,2.34,0,0,1-.24-.09c-5.43-1.76-9.8-4.87-14.24-12l-.84-1.37a64.71,64.71,0,0,1-1.52-7c0-.08,0-.16,0-.25a22.37,22.37,0,0,1,3.49,4.81c3.33,6.38,6.39,11.79,13.07,15.75Z"/><path class="cls-10" d="M131.53,142.76l-.23.05c-14.82,1.54-26.47,11.72-26.78,12A33.72,33.72,0,0,1,131,139.41l.21,0C131.38,140.59,131.47,141.75,131.53,142.76Z"/><path class="cls-10" d="M123.54,155.68a35.52,35.52,0,0,0-5.19,3.75,22.22,22.22,0,0,1,7.77-1,10,10,0,0,1,4.09,1.28c-.09.87-.19,1.74-.3,2.62a9.47,9.47,0,0,0-4.72-1.6c-3.65-.19-14.33,4.71-21.1.48,6.36.53,10.49-2,16.12-5.44A20.5,20.5,0,0,1,130.89,153c0,.24,0,.49-.07.73A19.75,19.75,0,0,0,123.54,155.68Z"/><path class="cls-10" d="M106.67,174.46c9.12-2.22,17.15,1.09,21,3.17l-.06.44c-4.21-1.57-13.15-4-22-1-.19-1.5-.4-3.05-.64-4.59,7.37-4.67,15.9-6.36,24.16-4.14-.09.53-.17,1.06-.25,1.59A34.28,34.28,0,0,0,106.67,174.46Z"/><path class="cls-10" d="M124.66,88.73a2,2,0,0,1-.44-.38h0s0,0,0,0c-1.75.81-4.85,3-5.84,8,0-.47-.88-6,2.67-10.76l-2-1.56c-3.78,7-3.66,16-3.32,20.26.4,5.11-.45,15.09-6.92,23.23,13.39-11.11,9.7-26.66,12.29-32.8a11.66,11.66,0,0,1,4.5-5.24A6.64,6.64,0,0,0,124.66,88.73Z"/><path class="cls-10" d="M132.75,128.71c-2.19-12.13,2.74-17,2.8-25.19.09-10.68-4-16.08-4-16.08l1.3-.38,1.33-.41s4.4,5.5,3.87,15.84C137.45,113.81,132.18,117.45,132.75,128.71Z"/><path class="cls-10" d="M138.39,85.54c1.56,4.89,8.21,15.18,8.51,22.68.21,5.4-3,12.42-6.28,20.06,4.8-7.36,8.91-14.5,9.24-20.73s-4.28-13.49-3.47-23.78c-.9.17-1.78.34-2.65.54.26,4.58,1,10.57,3,15.76-2.24-4.43-5.28-10.62-7-14.83Z"/><path class="cls-10" d="M161.18,90.47c-1.62,5.48-1.06,11.12-.61,16.83.49,6,3.47,15.24-2.65,22.11-3.08,3.44-5.91,5.34-8.89,11.37,1.34-9.27,6.83-9.92,9.79-18.93,2-6-3.38-20.3-4-24.24a45.27,45.27,0,0,1,.1-14.79l1.75-.08A76.09,76.09,0,0,0,158,102.55l.09.58c-.07-1.08-.12-2.16-.15-3.22a36.18,36.18,0,0,1,4.17-17.09,20.71,20.71,0,0,1,2.19.29A39.2,39.2,0,0,0,161.18,90.47Z"/><path class="cls-10" d="M176.21,92.46c-7,9.14-2.23,28-6.7,38.28-3.44,7.91-5.44,13-17.58,12.94,11.94-2,16.51-10.84,16.77-22.49C168.89,113.2,167.13,101.08,176.21,92.46Z"/><path class="cls-10" d="M184.24,104.72a1.42,1.42,0,0,1-.05.16c-.74,2.17-1.68,4.28-2.62,6.39a68.47,68.47,0,0,0,.34-11.55h0l-.82-1.56c.16,10.1-2.91,26.26-9.35,35.18,10.79-9.7,12-22.64,12.8-27.46,0,0,0,0,0,0,0-.15.05-.28.07-.42A2,2,0,0,1,184.24,104.72Z"/><path class="cls-10" d="M155.21,150.73a2.71,2.71,0,0,1,.18.34l.21.35c.18.28.41.55.57.84a26.44,26.44,0,0,0,10.69-2.88,70.05,70.05,0,0,1-8,7.27,9.21,9.21,0,0,1,.56,1.08,44.59,44.59,0,0,0,22.26-28.63C174.7,145.55,162.36,149.69,155.21,150.73Z"/><path class="cls-10" d="M184.35,167.35a32,32,0,0,1-18.87,4c.22,1.22.5,2.38.61,3.66,3.83-.18,11.69-1,18.27-6.54A8.81,8.81,0,0,1,184.35,167.35Z"/><path class="cls-10" d="M166.75,188.82c0,.47-.14,1.55-.23,2C173.9,194,183,189.6,183,189.6S173.23,191.9,166.75,188.82Z"/><path class="cls-10" d="M92.53,159.7c-.54-.35-9.26-6-14.31-6.3a21.65,21.65,0,0,0-8.44.79c-.14-1-.26-1.94-.38-2.8,3.51-1.57,5.88-1.54,10.14-.53C84.25,152,92.05,159.24,92.53,159.7Z"/><path class="cls-10" d="M72.89,170.47c6-1.79,23.11-2.66,23.11-2.66s-13.52-9.29-25-5.9h0c.07.33.13.66.2,1,6.24-.59,13,2.08,13,2.08a95.52,95.52,0,0,0-12,2.42Z"/><path class="cls-10" d="M96.79,176.56c0,1.13-.08,2.44-.12,3.85C88,177,76.41,179.71,76,179.82,76.34,179.63,87.59,174,96.79,176.56Z"/><path class="cls-10" d="M131.81,148c4.85-4.53,6.83-17.77,4.75-27.53C136.93,128.22,133.69,144.28,131.81,148Z"/><path class="cls-10" d="M165,169.3c0-.26-.11-.5-.15-.75a1.89,1.89,0,0,0-.09-.21c-3.74,2.33-9.74,5.38-15.38,5.22.25.39.46.8.71,1.19s.69,1,1,1.51c5.91-.23,10.84-3.78,13.92-6.68A2.46,2.46,0,0,0,165,169.3Z"/><path class="cls-10" d="M156.17,152.26a73.46,73.46,0,0,1-13.32,3,12.11,12.11,0,0,1-3.67,1.27c.26,1,.6,1.92.95,2.87,8.79,2.28,17.43-2,17.43-2s-11,2.37-15.55,0C148.7,156.81,156.17,152.26,156.17,152.26Z"/><path class="cls-10" d="M125.8,195.28c0,.3,0,.59,0,.85-5.31-1.06-12.71-1.67-18.5.88,0-.7-.07-1.43-.12-2.15h0c4.74-2.27,10-1.81,15.2-.35-4.94-3-10.23-2.88-15.32-1.48l-.06-.88C113.25,189.73,119.76,190,125.8,195.28Z"/><path class="cls-10" d="M93.59,199s-9.15-2.73-16.06-2c.06-.67.11-1.36.15-2A26.86,26.86,0,0,1,93.59,199Z"/><path class="cls-10" d="M153.92,118.67c-10.43,8-6.52,17-13.32,26.54C148.4,140.78,147.74,126.51,153.92,118.67Z"/><path class="cls-10" d="M172.67,87c-3.44,3.89-5.12,7.28-6.66,16.94-.69-6.64.74-13.68,5-18.13.35.21.68.44,1,.69S172.45,86.82,172.67,87Z"/><path class="cls-10" d="M183.08,140.6a61.5,61.5,0,0,0-2.91,5.52,23.74,23.74,0,0,1-10.76,10.68,21.64,21.64,0,0,0,11.26-7.53A20.64,20.64,0,0,0,183,145,29.41,29.41,0,0,1,183.08,140.6Z"/><path class="cls-10" d="M107.25,81.07a26.24,26.24,0,0,1-9,13.67s0,0,0,0a42.7,42.7,0,0,1-8.13,5.31,41,41,0,0,0,7.69-7.26s0,0,0,0a35.18,35.18,0,0,0,7.62-18.16l.25,1.17c.31.87.61,1.78.88,2.72S107.07,80.21,107.25,81.07Z"/><path class="cls-10" d="M65.41,111c-.2.76-.44,1.5-.69,2.21.12.16.23.32.32.46,3.1,4.94,5.73,8.08,7.8,15.46,0-5.34-2.19-10.69-5-15A27.17,27.17,0,0,0,65.41,111Z"/><path class="cls-10" d="M98.62,123.07c-3,4.93-3.86,12.74-3.47,18.46a57,57,0,0,1,6.46-17.93c2.46-4.19,8-12.19,8-12.19S101.66,118,98.62,123.07Z"/><path class="cls-10" d="M125.52,114.56c-2.42,5.23-3.17,13.09-2.15,18.74a56.9,56.9,0,0,1,4.44-18.53c2-4.43,4.77-11.91.84-21C130.89,102.39,128,109.21,125.52,114.56Z"/><path class="cls-10" d="M63.94,123.25a8.42,8.42,0,0,1-.11,1.5,34.42,34.42,0,0,1,4.63,3.72,80.73,80.73,0,0,1,9.35,11.76c-2-4.84-6.06-11.78-9.27-14.92A7.86,7.86,0,0,0,63.94,123.25Z"/><path class="cls-10" d="M151.89,188.71a10.31,10.31,0,0,1-.35,2.18c4.23,3.72,10.45,2.59,13.87,1.52A15.86,15.86,0,0,1,151.89,188.71Z"/><path class="cls-2" d="M167.89,211.76c0-1.91,1.41-8.39,4.68-9.46l.21-.07-.14-.15a6.17,6.17,0,0,0-4.67-1.65h-.45c-4.13.17-7.69,6.06-7.71,10.77a4.37,4.37,0,0,0,1.25,3.42,6,6,0,0,0,4,1.49h.4a4.92,4.92,0,0,0,3.47-1.23l.2-.09-.17-.13C168.2,214.1,167.89,213.24,167.89,211.76Z"/><path class="cls-2" d="M161.33,214.8a4.68,4.68,0,0,1-1.27-3.59,12.65,12.65,0,0,1,4.68-9.82l.16-.13-.18-.1a6.1,6.1,0,0,0-3.08-.73h-.41c-3.72.16-6.94,6.06-6.95,10.77a4.48,4.48,0,0,0,1.19,3.48,5.32,5.32,0,0,0,3.59,1.21h.44a14.54,14.54,0,0,0,2.57-.41l-.44-.45Z"/><path class="cls-2" d="M179.56,208.77a10.39,10.39,0,0,0-.58-1.63c-.15-.35-.34-.83-.59-1.4a7.84,7.84,0,0,0-2.27-2.7,5.69,5.69,0,0,0-3.13-.76,9.61,9.61,0,0,0-1.51.12c-2.82.47-4.34,6.86-4.34,9.36s.66,3,3,3.68a8.86,8.86,0,0,0,2.31.28,13,13,0,0,0,6.54-1.8,4.16,4.16,0,0,0,1.15-1l0,0v-.05A18.83,18.83,0,0,0,179.56,208.77Z"/><path class="cls-2" d="M154.16,211.21a14.24,14.24,0,0,1,3.44-9.07l-.17-.21c-1.87.83-4.25,2.76-5,7.26-.33,2.08,0,3.69.88,4.77a2.51,2.51,0,0,0,1.58.75l.36,0-.21-.27A5.16,5.16,0,0,1,154.16,211.21Z"/><path class="cls-6" d="M171.55,201.87a5.18,5.18,0,0,0-3.9-1.44h-.4c-3.4.16-6.36,5.34-6.71,9.88a7,7,0,0,0,6.34.09C168,203.91,170.4,202,171.55,201.87Z"/><path class="cls-6" d="M164.14,201.48a5.3,5.3,0,0,0-2.7-.67h-.36c-3.22.16-6,5.39-6.34,9.93a6.11,6.11,0,0,0,4.77.27C160.29,204.61,163,202,164.14,201.48Z"/><path class="cls-6" d="M177.54,204.43c-.22-.2-1-.92-1.21-1.08a5.6,5.6,0,0,0-3.13-.76,9.42,9.42,0,0,0-1.51.12c-2.29.38-3.73,4.66-4.18,7.6C170.66,212.09,177,211.39,177.54,204.43Z"/><path class="cls-6" d="M157.13,202.23l0,0c-1.75.83-4,2.76-4.65,7.26,0,.36-.08.69-.1,1a1.63,1.63,0,0,0,1.36.44C153.61,208.05,154.89,204.17,157.13,202.23Z"/><path class="cls-7" d="M105.41,43.44a7,7,0,0,0-2.78-4.88,7.67,7.67,0,0,0-4.75-1,16.58,16.58,0,0,0-6.58,1.83c-.78.43-1.68.9-2.68,1.38a11,11,0,0,1-2.14.74l.08,0-.21-.13a11,11,0,0,0-4.45-1.53,24.69,24.69,0,0,0-3.84,0L75.63,40A14,14,0,0,1,73,40l-.6-.1a26.61,26.61,0,0,0-5.78-.47,11.2,11.2,0,0,0-4.93,1.35c-4.42,2.47-7.81,6.78-9.44,9.12-.69,1-1.22,1.88-1.72,2.74a22.44,22.44,0,0,1-4.64,5.9c-.36.33-.69.67-1,1a7.09,7.09,0,0,0-.6,1l-.3.07a20.54,20.54,0,0,0-4,8l.27.07.22-.51a16,16,0,0,0,.23,7.08l.28,0a6,6,0,0,1-.08-.86v-.75l.25.71A49.23,49.23,0,0,0,44,80.34l.27-.1-.42-1.13.4.4c.19.19,4.66,4.75,6,7.24l.14.27.12-.27a4,4,0,0,1,.66-1l.06-.07-.05-.07c-.63-1-3.78-6-3.43-8.4s3-5.65,3.52-6.28l0,0v0a2.2,2.2,0,0,0-.41-1.54l-.09-.12a7.38,7.38,0,0,1,2.88-1.5l.14-.22a9.22,9.22,0,0,1,2-2.36c.23-.18.48-.35.75-.54a10,10,0,0,0,2.6-2.36l.1-.14s2.94-2.9,1.81-3.39-5.45,1.13-5.45,1.13-1.88-1.57-1.44-3.34a4.39,4.39,0,0,1,3.82-3c.11,0,.31,1.11.39,1.12.75.13,1.33-.36,1.56.36h.22c.4,1.18,1.22,2.11.59,4.75s-2.67,3.39-4,4.68c-.23.22-.74.52-1,.7a10.55,10.55,0,0,0-2.68,3.12l.12.71-.12-.08a11.31,11.31,0,0,1,1,1.09c1.1,1.44,2.93,3.85,5.49,4.08a11,11,0,0,0,1.53,0,41.41,41.41,0,0,0,7.6-1.51,19.48,19.48,0,0,1,2.48-.58.62.62,0,0,1,.21,0,.91.91,0,0,1,.54.58l.18.43.09-.46a10.35,10.35,0,0,0,.17-1.21v.12h.13a7.54,7.54,0,0,1,4.57,2,15.77,15.77,0,0,1,2.43,2.91A5.59,5.59,0,0,1,80,77.76c.07.58.15,1.16.22,1.73a6.82,6.82,0,0,1-.58,3c-.71,1.33-3.52,3.56-7,5a9.23,9.23,0,0,1-3,.7A8,8,0,0,1,64,86.34a17.9,17.9,0,0,0-4.58-2.6h-.14c-.71,0-1.4,0-2,0a10.2,10.2,0,0,0-5.3,1.58,4,4,0,0,0-1.61,3,8.82,8.82,0,0,0,.56,3.92l.27-.06,0-.32a19.15,19.15,0,0,0,1,2.19,11.35,11.35,0,0,0,3,3.5l.19-.19-.57-.6a21.73,21.73,0,0,0,5.35,2l.12-.23-1-.66.73.23a16.46,16.46,0,0,0,5.05.51,13.36,13.36,0,0,0,3.75-.75c3.13-1.13,4.31-3.3,5.25-5a14.22,14.22,0,0,1,1.37-2.13c-.18.35-.38.76-.58,1.14L75,92A18.79,18.79,0,0,1,83.8,87.8a38.31,38.31,0,0,0,8.43-2.08,11.73,11.73,0,0,0,2.17-1.24,9.62,9.62,0,0,1-1.23,1.15l.16.22a12.74,12.74,0,0,0,6.41-6.42c0,.64-.1,1.26-.13,1.42l.27.07c1.81-4.29,1.58-10.1,1.58-10.15l0-.68.27.63a4.71,4.71,0,0,1,.21.66l.29,0c-.29-6.66-2.56-10.83-4.41-13.16-.65-.82-1.49-1.79-2.23-2.63l-.22.12c-.23-.41-.47-.82-.73-1.19l-.14-.16a40.72,40.72,0,0,1-4.11-5c-.67-1.36-.48-4,2.26-7.07A9.94,9.94,0,0,1,99,39h.15a5.33,5.33,0,0,1,4,1.44,7.9,7.9,0,0,1,2.13,4.27l.29,0C105.5,44.22,105.46,43.82,105.41,43.44Z"/><path class="cls-9" d="M51.25,70.88l0,0v0a2.26,2.26,0,0,0-.41-1.55l-.09-.12a5.4,5.4,0,0,1,2.5-1.3l.52-.41c.12-.19.52-1.12.64-1.29a4.79,4.79,0,0,1-2.3,1.29,6.88,6.88,0,0,0-2.72,1.41c-2,1.89-1.82,5.3-1.82,5.3s1-2.43,3.12-2.61Z"/><path class="cls-9" d="M72.1,67.64S72,70.76,70.85,72a.79.79,0,0,1,1.09.55l.18.44.37-1.55c0-.6-.07-1.37-.11-2S72.1,67.64,72.1,67.64Z"/><path class="cls-9" d="M86.15,74.88c.91.31,2.17,3,2.17,3a21.85,21.85,0,0,0-1.06-4.73c-.81-1.41-2.18-1.58-4.72-1.53a5.76,5.76,0,0,1-4.11-1.82A4.75,4.75,0,0,0,80.9,72.7c.88.5,1.45.41,1.08,1.55a7.46,7.46,0,0,1-2.22,2.65,33,33,0,0,1,.45,3.34C81.12,79,84.72,74.39,86.15,74.88Z"/><path class="cls-6" d="M74.68,65.12c1.75.68,7.25.25,10.73-1.52,2.18-1.1.8-2.86-.21-4.42-1.33-2-5.06-2.84-8.53-1.45C72.46,59.06,73,64.48,74.68,65.12Z"/><path class="cls-11" d="M83.5,60.59a3.52,3.52,0,0,0-.85-3A3.31,3.31,0,0,0,81,56.47a4.54,4.54,0,0,0-2,0,5.46,5.46,0,0,0-2.8,2.24c-1,1.5-1.89,3.86.54,4.39,2.27.49,5.85-.07,6.73-2.32C83.45,60.8,83.5,60.6,83.5,60.59Z"/><path class="cls-12" d="M80.83,57.21a4.43,4.43,0,0,1,2.71,2.41,4.53,4.53,0,0,0-.88-1.87A3.33,3.33,0,0,0,81,56.49a4.21,4.21,0,0,0-2,0,4.86,4.86,0,0,0-2,1.36A4.53,4.53,0,0,1,80.83,57.21Z"/><path class="cls-12" d="M76.79,62.38c-1.21-.8-1.27-2.22-1-3.47-.75,1.58-1,3.51,1,4a7,7,0,0,0,2.08.19A4.79,4.79,0,0,1,76.79,62.38Z"/><path class="cls-6" d="M95.59,55.55l-.21.13c1.69,2.56,3,7.37,3.58,11.36-.25-.8-.51-1.43-.69-1.87a22.68,22.68,0,0,1-.15,4.94A20.5,20.5,0,0,1,98,75s-.2-1.63-.27-2.18a9.2,9.2,0,0,1-3.63,6.56c-.07,0,.76-1.12,1-1.52-1.53,1.24-4.73,3.58-6.84,2.63a.62.62,0,0,1-.34-.4,8,8,0,0,1-.48-2.45c-.3-1.5-.72-4-2.5-4.81-2.37,1.34-3.76,3.92-4.73,6.28,0,.14,0,.28,0,.41a6.82,6.82,0,0,1-.58,3c-.71,1.33-3.52,3.57-7,5a9.23,9.23,0,0,1-3,.7A8,8,0,0,1,64,86.34a17.75,17.75,0,0,0-4.59-2.6h-.13a17.52,17.52,0,0,0-2,0,10.29,10.29,0,0,0-5.3,1.57,3.9,3.9,0,0,0-1.47,3,8.81,8.81,0,0,0,.42,3.92l.27-.06,0-.33A19.48,19.48,0,0,0,52.23,94a10.66,10.66,0,0,0,2.93,3.45l.17-.09-.57-.59A21.13,21.13,0,0,0,60,98.69l.09-.18-.86-.59.74.23a18.68,18.68,0,0,0,5.14.41,12.39,12.39,0,0,0,3.62-.75,9.24,9.24,0,0,0,5.29-4.94,14.54,14.54,0,0,1,1.36-2.12c-.17.34-.38.75-.57,1.14l.22.15a18.57,18.57,0,0,1,8.77-4.24,37.2,37.2,0,0,0,8.43-2.09,11.1,11.1,0,0,0,2.17-1.23,8.91,8.91,0,0,1-1.22,1.15l.16.21a12.78,12.78,0,0,0,6.41-6.41c0,.64-.1,1.26-.13,1.41l.27.08c1.81-4.3,1.58-10.1,1.57-10.16l0-.67.28.63a5.81,5.81,0,0,1,.21.66l.28,0c-.28-6.65-2.55-10.83-4.41-13.16C97.18,57.37,96.33,56.4,95.59,55.55Z"/><path class="cls-8" d="M100.15,62.17a33.62,33.62,0,0,1,1.39,6.1,11.31,11.31,0,0,0-.83-1.9,35.22,35.22,0,0,1,0,10.37s-.31-1.66-.43-2.89c-.15,2.48.18,6-3.6,8.94.46-.57,1.44-1.93,1.82-2.54-5,5.13-15.64,4.11-19.83,4.71a5.67,5.67,0,0,0,1.85-2.1,4.65,4.65,0,0,0,.31-1.47,9,9,0,0,1,2.88-5.82c1.44-1.19,2.27-1,3.2-.19a4,4,0,0,0-2-2.59c-2.37,1.34-3.76,3.92-4.73,6.28,0,.14,0,1.19,0,1.6,0,1-.65,2.35-2.48,3.92a20.93,20.93,0,0,1-3.23,2,9.91,9.91,0,0,1-7.58,1.24c1,.77,3.21,1,5.36.62.91,1.56-1.36,4.16-3,5.28a8.45,8.45,0,0,0,2-1C67.52,96.33,60.78,97.2,56,94.4a6.17,6.17,0,0,0,1.48,1.47s-3.17-1.34-4.35-3.26a6,6,0,0,0,.8,1.68,10.7,10.7,0,0,1-3.33-6.65,6.85,6.85,0,0,0-.13.79,8.3,8.3,0,0,0,.44,3.83l.27-.06,0-.33A19.48,19.48,0,0,0,52.23,94a10.66,10.66,0,0,0,2.93,3.45l.17-.09-.57-.59A21.13,21.13,0,0,0,60,98.69l.09-.18-.86-.59.74.23a18.68,18.68,0,0,0,5.14.41,12.39,12.39,0,0,0,3.62-.75,9.24,9.24,0,0,0,5.29-4.94,14.54,14.54,0,0,1,1.36-2.12c-.17.34-.38.75-.57,1.14l.22.15a18.57,18.57,0,0,1,8.77-4.24,37.2,37.2,0,0,0,8.43-2.09,11.1,11.1,0,0,0,2.17-1.23,8.91,8.91,0,0,1-1.22,1.15l.16.21a12.78,12.78,0,0,0,6.41-6.41c0,.64-.1,1.26-.13,1.41l.27.08c1.81-4.3,1.58-10.1,1.57-10.16l0-.67.28.63a5.81,5.81,0,0,1,.21.66l.28,0C102.13,68.86,101.9,64.14,100.15,62.17Z"/><path class="cls-6" d="M51,69.11l-.12.09c-.28.22-.79.7-.79.68a13.23,13.23,0,0,0-1.63,3.82c-.16.44-.41,1.34-1,1.18a6,6,0,0,1-2.2-2.33,6.54,6.54,0,0,1-1-3.09c0,.32-.12.64-.15,1,0,.12-.24.08-.22,0s0,0,0-.06h0a4.82,4.82,0,0,1,0-2.17c-.12.34-.42,1.29-.42,1.29s-.07-.57-.08-.59a14.65,14.65,0,0,1,.47-3.67A3.57,3.57,0,0,1,44,64.6a9.2,9.2,0,0,0-.83,1.11,21.6,21.6,0,0,1,1.54-5.42l-.46.21a20.58,20.58,0,0,0-4,8l.27.07.22-.51A15.8,15.8,0,0,0,41,75.13l.13-.09a3.92,3.92,0,0,1,.07-.82v-.75l.25.71a49.23,49.23,0,0,0,2.72,6.12l.26-.1L44,79.06l.4.41c.19.19,4.66,4.75,6,7.24l.14.27.13-.28a3.84,3.84,0,0,1,.66-1l.06-.07,0-.08c-.64-1-3.78-6-3.43-8.39s3-5.65,3.52-6.28l0,0v0a2.29,2.29,0,0,0-.41-1.55Z"/><path class="cls-8" d="M51.34,85.51c-.26-.39-.92-1.44-1.6-2.71a57,57,0,0,0-4.31-4.2A9.31,9.31,0,0,1,43,75.17c.11.6.63,2.3.63,2.3a35.58,35.58,0,0,1-2.39-5.07c.13,2.85,2,6.08,3,7.9l.26-.1L44,79.06l.4.41c.19.19,4.66,4.75,6,7.24l.14.27.13-.28a3.84,3.84,0,0,1,.66-1l.06-.07Z"/><path class="cls-8" d="M50.64,71.64c.27-.36.49-.62.61-.76l0,0v0a2.26,2.26,0,0,0-.41-1.55l-.09-.12-.12.1c-.28.22-.79.69-.79.68a13.23,13.23,0,0,0-1.63,3.82c0,.09-.08.21-.12.34A5.24,5.24,0,0,1,50.64,71.64Z"/><path class="cls-8" d="M99.17,39.22h-.12a9.59,9.59,0,0,0-6.19,3.13c-2.51,2.77-2.92,5.43-2.23,6.83a40.57,40.57,0,0,0,4.07,5l1.68,1.91.07.08.1,0a18.82,18.82,0,0,0,7-4.75A8.5,8.5,0,0,0,105,48.55a8.94,8.94,0,0,0-2.07-8A5.07,5.07,0,0,0,99.17,39.22Z"/><path class="cls-6" d="M103,40.59a5.07,5.07,0,0,0-3.79-1.37h-.12A9.26,9.26,0,0,0,94.46,41c2.77-.84,6.1.08,7.16,2.91,1.55,4.15-1,9.21-4.69,12.11a18.46,18.46,0,0,0,6.62-4.6A8.5,8.5,0,0,0,105,48.55,8.94,8.94,0,0,0,103,40.59Z"/><path class="cls-6" d="M48,77.18c-.32,2.21,2.46,6.79,3.32,8.13l.09.14.13-.11.27-.21a10.49,10.49,0,0,1,5.44-1.62c.6,0,1.23,0,1.88,0h.18l0-.17a13.74,13.74,0,0,1-.14-2.49v-.1l-.11,0c-1.59-.35-3.16-2-4.19-3.28a20.24,20.24,0,0,1-3.39-6l-.07-.27-.18.23C50.31,72.42,48.28,75.15,48,77.18Z"/><path class="cls-8" d="M59.12,80.75l-.11,0c-1.59-.35-3.16-2-4.19-3.28a24.92,24.92,0,0,1-2.51-3.92c1.33,6.11,6.26,7,6.35,8.61s-4.1.43-8,2.14c.32.55.45.75.64,1l.09.14.13-.11.27-.21a10.49,10.49,0,0,1,5.44-1.62c.6,0,1.23,0,1.88,0h.18l0-.17a13.74,13.74,0,0,1-.14-2.49Z"/><path class="cls-8" d="M53.88,47.24l.11,0,.07-.09a33.78,33.78,0,0,1,3.43-3.6l.1-.08-.09-.1c-1.86-2-1.87-4.94-1.89-7.49V35.7c0-2.24,0-4.35-1.58-4.69a2,2,0,0,0-.54,0c-1.54.09-2.55,2-2.83,2.56C49.89,35.17,46.4,43.53,53.88,47.24Z"/><path class="cls-6" d="M52.36,37.6c.49-1.28,1.62-3.31,3.25-2.58,0-2-.18-3.7-1.58-4a2,2,0,0,0-.54,0c-1.54.09-2.55,2-2.83,2.56-.75,1.58-4,9.45,2.52,13.33C51.93,43.88,51.24,40.54,52.36,37.6Z"/><path class="cls-5" d="M54.14,30.8c1.7.58,1.71,2.69,1.72,5.13s0,5.33,1.81,7.32l.09.11.12-.1a22.52,22.52,0,0,1,3.75-2.68,10.41,10.41,0,0,1,2.6-1l.3-.08-.26-.16a29.74,29.74,0,0,1-3-2.14,36.69,36.69,0,0,1-3.35-3.92c-.84-1.06-1.63-2.07-2.08-2.52a1.55,1.55,0,0,0-1.24-.41,1,1,0,0,0-.24,0,2.49,2.49,0,0,0-.49.12l0,.25A1.5,1.5,0,0,1,54.14,30.8Z"/><path class="cls-6" d="M59.52,80.8h-.15v.13a10.75,10.75,0,0,0,.18,2.56l0,.05.05,0a18.36,18.36,0,0,1,4.56,2.62A7.67,7.67,0,0,0,69.66,88h0a8.94,8.94,0,0,0,2.89-.68c3.77-1.55,6.29-3.79,6.87-4.89a7.5,7.5,0,0,0-.12-6c-.1-.18-2.39-4.55-6.75-5h-.16v.15a6.6,6.6,0,0,1-.31,2.5,1.9,1.9,0,0,1-.47,1c-.58.57-7.57,5.46-11.56,5.69A3.11,3.11,0,0,1,59.52,80.8Z"/><path class="cls-8" d="M64.92,85.37c-2.57-1.47-4.52-1.52-4.67-3.06s7.59-1.66,11.55-7.44a1.64,1.64,0,0,1-.19.25c-.58.57-7.57,5.46-11.56,5.69a3.11,3.11,0,0,1-.53,0h-.15v.13a10.75,10.75,0,0,0,.18,2.56l0,.05.05,0a18.36,18.36,0,0,1,4.56,2.62c1.44,1.26,4.09,2.75,8.36,1.12,3.82-1.46,6.29-3.79,6.87-4.89a5.45,5.45,0,0,0,.52-2c-.74,3.06-5.33,6-9.6,6.36A9.28,9.28,0,0,1,64.92,85.37Z"/><path class="cls-9" d="M53.61,67.74l-.33.1A7.45,7.45,0,0,0,50.93,69l-.11.08.08.1a1.82,1.82,0,0,1,.41.89l.07.44.2-.4A3.53,3.53,0,0,1,53,68.76l.11-.05,0,0c.09-.17.21-.39.36-.65Z"/><path class="cls-13" d="M71.52,72.09a3.07,3.07,0,0,0-.45-.2c-.36,0-1.2.52-2.22.79l.18-.16a43.45,43.45,0,0,1-7.77,1.56,12.24,12.24,0,0,1-1.68-.1c-2.68-.24-4.48-2.74-5.6-4.22a6.27,6.27,0,0,0-.73-.86l-.12-.08L53,68.76c-.34.22-1.42.84-1.58,1.78-.14.78,1.38,4.61,3.3,7,1.54,2,3.2,3.1,4.44,3.28a6.47,6.47,0,0,0,1,.28l.51-.21c3.74-.22,10.42-5.34,11.14-6a2.67,2.67,0,0,0,.34-2.31A.75.75,0,0,0,71.52,72.09Z"/><path class="cls-14" d="M89.16,58.22s4.46,6.48,2,12.48a10.76,10.76,0,0,0-7-2.57c5.17,1.22,6.47,3.58,7.68,6.42A14.82,14.82,0,0,0,89.16,58.22Z"/><path class="cls-14" d="M77.05,65.49s8.79.05,9.55-4.13C88.23,68,77.05,65.49,77.05,65.49Z"/><path class="cls-14" d="M54,64.1s-4.34.56-6,1.74c-1.63-5.9,2.57-12.19,2.57-12.19S44.44,60.44,47,69.07C48.52,65.57,54,64.1,54,64.1Z"/><path class="cls-14" d="M59.3,80.18a12.68,12.68,0,0,1-.18-5A6,6,0,0,0,59.3,80.18Z"/><path class="cls-6" d="M68.82,76.82c-.36,0-3-.85-4.95.12s-1.24,3.39-1.24,3.39A36.91,36.91,0,0,0,68.82,76.82Z"/><path class="cls-14" d="M69.05,77.05c-.37,0-3-.86-5,.11a2.92,2.92,0,0,0-1.47,3.27A28.39,28.39,0,0,0,69.05,77.05Z"/><path class="cls-6" d="M55.37,75.56a2,2,0,0,0-2-.79c.33,1.28,3.11,4.33,3.11,4.33A6,6,0,0,0,55.37,75.56Z"/><path class="cls-14" d="M55.3,75.57c-.52-.82-1.38-.83-2.24-.8.33,1.28,3.11,4.33,3.11,4.33A6.89,6.89,0,0,0,55.3,75.57Z"/><path class="cls-14" d="M61.09,62.16a14.77,14.77,0,0,1,6.61.38A9.54,9.54,0,0,0,61.09,62.16Z"/><path class="cls-14" d="M72.77,41.11c-4.43,3.06-5.92,10.38-5.92,10.38S65,43.91,72.77,41.11Z"/><path class="cls-14" d="M85.5,46.2S79.78,41,74.63,44C79.92,38.25,85.5,46.2,85.5,46.2Z"/><path class="cls-14" d="M57.59,45s5.47-4.94,9.9-1.8C63.12,37.31,57.59,45,57.59,45Z"/><path class="cls-14" d="M77.27,63.36c-.79-.06-2.7.11-3.06-.24s.59-1.07.79-1.82a8.48,8.48,0,0,1,2.64-4.37,2.75,2.75,0,0,1,1.7-.74s-.08.58-1,.66c3.09-.56,4.4.09,5,1.24s1.54,2.14,1.11,2.68a6.35,6.35,0,0,1-1.6,1.38A8,8,0,0,1,77.27,63.36Zm2-6.77c-1.77.21-3.54,2.56-3.77,4.8-.1,1,1.45,1.53,2,1.64,2,.38,4.7-.18,5.58-1.66a3.15,3.15,0,0,0-.3-3.3A3.55,3.55,0,0,0,79.28,56.59Z"/><path class="cls-14" d="M56.87,62.86S49.61,60,51.92,55.62C46.48,62.35,56.87,62.86,56.87,62.86Z"/><path class="cls-14" d="M60.42,45.12c3.88-.88,7,3.11,7,3.11S73.73,44.54,78.3,46c-5.12-2.2-10.37.45-10.37.45A6.9,6.9,0,0,0,60.42,45.12Z"/><path class="cls-15" d="M80.28,61.73a2.48,2.48,0,0,1-3.16-1,2.1,2.1,0,0,1,1.13-2.89,2.48,2.48,0,0,1,3.16,1A2.09,2.09,0,0,1,80.28,61.73Z"/><path class="cls-16" d="M81.24,58.58a2.49,2.49,0,0,0-3-.77A2.22,2.22,0,0,0,77,59,3.36,3.36,0,0,0,81.24,58.58Z"/><path class="cls-14" d="M79.42,62a2.72,2.72,0,0,1-1-.12A2.43,2.43,0,0,1,77,60.73a2.17,2.17,0,0,1,1.17-3,2.65,2.65,0,0,1,1.88-.09,2.38,2.38,0,0,1,1.4,1.15,2.17,2.17,0,0,1-1.17,3A2.57,2.57,0,0,1,79.42,62Zm-.3-4.32a2.39,2.39,0,0,0-.83.19,2.13,2.13,0,0,0-1.17,1.19,1.88,1.88,0,0,0,.08,1.59,2.28,2.28,0,0,0,1.3,1.07,2.43,2.43,0,0,0,1.74-.08,2.2,2.2,0,0,0,1.18-1.18,1.92,1.92,0,0,0-.09-1.59A2.2,2.2,0,0,0,80,57.8,2.53,2.53,0,0,0,79.12,57.69Z"/><path class="cls-14" d="M80,61.08a1.67,1.67,0,0,1-2.12-.69,1.4,1.4,0,0,1,.76-1.93,1.66,1.66,0,0,1,2.11.69A1.4,1.4,0,0,1,80,61.08Z"/><path class="cls-17" d="M78.11,59.54a.41.41,0,0,1-.4.42.43.43,0,0,1-.46-.37.41.41,0,0,1,.4-.42A.42.42,0,0,1,78.11,59.54Z"/><path class="cls-17" d="M80.29,60.78a.24.24,0,0,1-.23.24.24.24,0,0,1-.26-.21.23.23,0,0,1,.23-.24A.24.24,0,0,1,80.29,60.78Z"/><path class="cls-17" d="M59.63,59.61a.25.25,0,0,1-.31.15.22.22,0,0,1-.17-.28.25.25,0,0,1,.31-.15A.22.22,0,0,1,59.63,59.61Z"/><path class="cls-6" d="M54.48,71.42s2.16,2.94,5,3.2,8.35-1.15,8.35-1.15-6,1.94-8.67,1.5A7.21,7.21,0,0,1,54.48,71.42Z"/><path class="cls-14" d="M64.88,80.8c4.4.63,8.88.59,12.37-2.25C75.15,79.57,72.63,81,64.88,80.8Z"/><path class="cls-14" d="M71.79,83a24.65,24.65,0,0,1-7.43-.84,15.81,15.81,0,0,0,7.34,1.55,8.81,8.81,0,0,0,5.82-2.8A12.57,12.57,0,0,1,71.79,83Z"/><path class="cls-14" d="M66.22,84.41c3.48,2,8,.27,8,.27A6.6,6.6,0,0,1,66.22,84.41Z"/><path class="cls-14" d="M48.31,79.29h0s0,0,0,.07a2.58,2.58,0,0,0,.08.26A6,6,0,0,0,53.15,79a9.79,9.79,0,0,1-4.85.24Z"/><path class="cls-14" d="M49.26,82a11.66,11.66,0,0,0,5.18-1.68s-3.2,1.34-5.58.68C49,81.25,49.17,81.76,49.26,82Z"/><path class="cls-14" d="M53.06,82.33a11.67,11.67,0,0,1-3,1c.09.13.17.26.25.39A7.8,7.8,0,0,0,53.06,82.33Z"/><path class="cls-6" d="M54.23,53.65S51.81,55,51.65,56s-.84,3,2.79,5.59,6.5-1,6.72-1.78-.4-.09-.4-.09l-3.41-5.85Z"/><path class="cls-6" d="M61.2,55.43a3.2,3.2,0,0,0,1.16-2.38c0-1.53-4.06-3.07-8.32-1.13a4.2,4.2,0,0,0-2.47,4.46l3.27-2.58,4.88.83Z"/><path class="cls-6" d="M61.51,59.34a10.53,10.53,0,0,0,.85-6.29c-.68-3.3-1.85,3.4-1.85,3.4l.34,1.12Z"/><path class="cls-11" d="M61.45,59l0-.08a5.84,5.84,0,0,0-.51-1.33,9.41,9.41,0,0,0-3.89-4,1.82,1.82,0,0,0-1.93,0l-.26.22a3.33,3.33,0,0,0-1,2.46,4.42,4.42,0,0,0,1.66,3.48,3.61,3.61,0,0,0,1.09.55,8.31,8.31,0,0,0,1.73.15,4.34,4.34,0,0,0,.91-.19A6.66,6.66,0,0,0,61.38,59Z"/><path class="cls-12" d="M57.35,53.83c-.19-.12-.34-.2-.42-.24a1.81,1.81,0,0,0-1.94,0,3,3,0,0,0-.26.22,3.19,3.19,0,0,0-1,2.45A5.09,5.09,0,0,0,54,57.57C53.73,55.46,55.48,53.2,57.35,53.83Z"/><path class="cls-15" d="M59.1,54.94a2.69,2.69,0,0,0-2.29,1.43,2,2,0,0,0,1,2.87,2.62,2.62,0,0,0,3.14-1.3,2.15,2.15,0,0,0,.13-.32A16.65,16.65,0,0,0,59.1,54.94Z"/><path class="cls-16" d="M59,55a2.52,2.52,0,0,0-2.24,1.37,2.14,2.14,0,0,0-.13,1.67,3.29,3.29,0,0,0,2.81-2.52Z"/><path class="cls-14" d="M60.94,57.6a2.38,2.38,0,0,1-1.42,1.54,2.32,2.32,0,0,1-1.68,0A1.91,1.91,0,0,1,56.73,58a2,2,0,0,1,.13-1.61,2.35,2.35,0,0,1,.5-.67,2.66,2.66,0,0,1,.77-.49,2.44,2.44,0,0,1,.95-.16,2.09,2.09,0,0,0-.14-.17,2.59,2.59,0,0,0-.86.18,2.64,2.64,0,0,0-1.38,1.25,2.09,2.09,0,0,0,1.06,3,2.46,2.46,0,0,0,1.81,0,2.5,2.5,0,0,0,.83-.53,2.39,2.39,0,0,0,.54-.72,2,2,0,0,0,.11-.26A1.74,1.74,0,0,1,60.94,57.6Z"/><path class="cls-14" d="M60.22,56.52c-.1-.15-.21-.29-.32-.43a1.28,1.28,0,0,0-.39-.24,1.67,1.67,0,0,0-2,.82,1.34,1.34,0,0,0,.68,1.9,1.67,1.67,0,0,0,2-.83A1.38,1.38,0,0,0,60.22,56.52Z"/><path class="cls-17" d="M58,56a.44.44,0,0,1-.2.58.42.42,0,0,1-.56-.23.44.44,0,0,1,.21-.57A.41.41,0,0,1,58,56Z"/><path class="cls-17" d="M59.62,58.19a.23.23,0,1,1-.3-.12A.23.23,0,0,1,59.62,58.19Z"/><path class="cls-14" d="M61.44,58.89a9.71,9.71,0,0,0-3-4.31c-1.8-1.2-2.73-1.95-4.1-.16s.18,4.86,1.35,5.43,3.4.88,5.78-1.13l0,.25.06.37a6.3,6.3,0,0,1-.75.34,6.1,6.1,0,0,1-3.23,1.08,4,4,0,0,1-3.17-1.31c-1.12-1-1-3.23-.83-3.61A4.27,4.27,0,0,1,54.39,54c.61-.69.43-.39.43-.39a1.43,1.43,0,0,0-.59,0,1.84,1.84,0,0,1,1.46-.55,4.94,4.94,0,0,1,2.6,1C59,54.65,61.25,56.86,61.44,58.89Z"/><path class="cls-6" d="M73.85,57.07s-1.6,2.7-.14,6.84c.16.46.1-2.92,1.51-4.59,1.55-1.84,4.58-2,4.58-2s3.37-.14,4.71,1.36a12.31,12.31,0,0,1,2,3.08,6.14,6.14,0,0,0-1.43-5.57c-1.55-1.72-3.44-2.26-6.35-1.89C78.73,54.28,74.81,55,73.85,57.07Z"/><path class="cls-14" d="M80.82,56c-1.89-.14-5.29,2.06-5.73,2.3s-1.17,0-1.18-1.45a3.67,3.67,0,0,0,.25,2.57,1.55,1.55,0,0,1-.6-.94c0,.72.36,2.27,1.48,2.19.65-.06,2.43-2.13,4.25-2.73a5.7,5.7,0,0,1,5.92,1.47S83.68,56.18,80.82,56Z"/><path class="cls-18" d="M53.07,68.71a2.69,2.69,0,0,0-1.64,2.13c-.1,1.52,3.5,8.72,7.69,9.91s11.56-4.91,12.76-6.2c1-1,.2-3.12-1-2.6s-9.09,2.52-11.27,2S55.72,71.78,53.07,68.71Z"/><path class="cls-14" d="M56.3,52.19c2-.14,4.26,2.13,4.68,2.39s1.2,0,1.38-1.53a4.14,4.14,0,0,1-.57,2.71,2,2,0,0,0,.74-1c-.1.76-.66,2.4-1.79,2.3-.66-.06-1.32-2.18-3.11-2.82-3.52-1.28-6.24,1.52-6.24,1.52S53.36,52.4,56.3,52.19Z"/><path class="cls-18" d="M51.25,70.88s-3,3.59-3.36,6.61,3.06,7.17,3.63,7.85a13,13,0,0,1,7.9-1.6,18.49,18.49,0,0,1,6.23,3.61C69.25,90.28,77,85.11,77,85.11a6.71,6.71,0,0,0,2.8-8.21,8.15,8.15,0,0,0-7.27-5.62l-.24,1"/><path class="cls-18" d="M80.16,78.55s2.35-4,3.38-4.76l1.37-1s1.7.52,2.18,3.3a21.36,21.36,0,0,0,1.14,4.36s1.17,1.14,5.45-1.58l1.39-1.05-1,1.52a10.11,10.11,0,0,0,3.26-4.79c.63-2.7.37-1.77.37-1.77a11.81,11.81,0,0,1,.05,3.31s.3-4,.48-5.8c.13-1.41,0-5.12,0-5.12L99,67s-1.61-8.41-3.58-11.36-.73-1.2-.73-1.2,1,1.78,2.28,1.5,7.16-3.16,8.31-8.29c0,0,.43-2.28,0-3"/><path class="cls-18" d="M94.05,53.8a36.89,36.89,0,0,1,6.73,8.9,16.2,16.2,0,0,1,1.4,9.19"/><path class="cls-7" d="M59.37,80.93a12.28,12.28,0,0,0,.05,2.81"/><path class="cls-19" d="M64.87,39.43s-3.66-2-4.82-3.64l-2.94-3.58c-.29-.36-1.32-2.64-3.48-1.63a.76.76,0,0,0-.18.09,4.64,4.64,0,0,0-.79.54c-2.83,2.32-3.76,6.68-3.41,10.29A7.74,7.74,0,0,0,54,47.29L55.4,46l2.32-2.31a12.11,12.11,0,0,1-1.88-4.9c-.22-2.5,0-5-.38-6.34a2.94,2.94,0,0,0-1.84-1.85"/><path class="cls-18" d="M54.48,66.31l-1.2,1.53a6.68,6.68,0,0,0-3.41,2.08,8.35,8.35,0,0,0-1.63,4c-.23,1.24-.82,1-.82,1a7.56,7.56,0,0,1-3.23-5.31,3.13,3.13,0,0,0-.09,1.55,4.72,4.72,0,0,1-.29-3,5.66,5.66,0,0,0-.56,2.13c0,1-.27-4,.77-5.69a4.34,4.34,0,0,0-1,1.91c-.29,1.18.61-5.32,2.13-7.13"/><path class="cls-14" d="M74.61,59.74s-.89,2.78-.27,3.18,1.84.89,6.28.51a4.84,4.84,0,0,0,4.59-4s-.86-1.6-1.63-1.74l-1.13-.74s1.82,2.77,1.63,3.08-1,1.82-1,1.82a6.83,6.83,0,0,1-5,1.49c-3.06-.31-2.69-1.22-2.69-1.22l.12-1.57.35-1.09Z"/><path class="cls-14" d="M53.61,54a4.87,4.87,0,0,0-.55,4c.75,2,2.41,2.91,4.73,3a4.42,4.42,0,0,0,3.53-1.4L61.16,59l-2.5,1.35-2.11.11L55,59.66l-.91-1L53.62,57l-.09-1.15A6.92,6.92,0,0,1,55,53.57Z"/><path class="cls-14" d="M74.63,53.8s3.94-3.55,10.58-.51c0,0,2.76,2.08,3.23,3.74a8,8,0,0,0-5.66-5.73C78.06,50.06,74.33,52.88,74.63,53.8Z"/><path class="cls-14" d="M52.83,51s3.37-4.06,9.7-1.45a1.61,1.61,0,0,1,1.18,2s1.42-4-3.76-3.89-7.69,2.9-7.22,3.55"/><path class="cls-14" d="M77.25,48.23S83.78,48.5,86,51C86,51,84.23,47.05,77.25,48.23Z"/><path class="cls-18" d="M60.85,56.93s1.71,2.24-1.12,5-6.14,4-6.55,6.77"/></svg>