<svg id="Layer_1" data-name="Layer 1" xmlns="http://www.w3.org/2000/svg" viewBox="0 0 465 660"><defs><style>.cls-1{fill:#1e89e2;}.cls-2{fill:#1361bf;}.cls-3,.cls-6{fill:none;stroke-linecap:round;stroke-linejoin:round;}.cls-3{stroke:#1e89e2;stroke-width:7.55px;}.cls-4{fill:#46adf2;}.cls-5{fill:#16b3dc;}.cls-6{stroke:#4bc4d3;stroke-width:1.89px;}</style></defs><polygon class="cls-1" points="225.15 147.63 232.7 636.06 210.15 148.06 225.15 147.63"/><path class="cls-1" d="M255.47,131.38l-1.95,31.47-1,15.74c-.27,5.25-.45,10.51-.67,15.76l-1.29,31.53c-.29,10.52-.47,21-.71,31.56l-.34,15.78L249.44,289l-.11,31.59c.29,21,.34,42.12,1,63.17.45,21.07,1.39,42.12,2.26,63.18l1.65,31.57,2,31.55c2.86,42.07,6.46,84.1,11.46,126-6.24-41.73-11.09-83.67-15.2-125.68l-2.92-31.52L247,447.29c-1.49-21.05-3.06-42.12-4.13-63.21-1.33-21.08-2-42.19-2.93-63.3l-.82-31.69-.38-15.85-.13-15.85c-.07-10.57-.21-21.14-.22-31.71l.35-31.72c.07-5.29.09-10.58.2-15.87l.52-15.86,1-31.73Z"/><path class="cls-1" d="M295.33,122.53C297,165.38,298,208.17,298.9,251s1.6,85.58,2.2,128.37q1.83,128.37,2.69,256.72-4.67-128.28-10.18-256.5-2.78-64.11-5.95-128.19c-2.16-42.71-4.4-85.43-7.31-128Z"/><path class="cls-1" d="M175.88,134l2.5,32.33c.24,2.7.34,5.39.46,8.08l.37,8.08.73,16.15.37,8.08c.11,2.69.13,5.38.2,8.07l.35,16.14L181.2,247c.06,5.38,0,10.76.06,16.13.32,43-.7,86-2.14,128.89s-3.58,85.8-6.15,128.65c-.6,10.71-1.31,21.42-2,32.12s-1.43,21.42-2.18,32.12q-2.26,32.1-4.94,64.18c1.2-21.42,2.18-42.85,3.07-64.29.44-10.71.88-21.43,1.24-32.15s.78-21.43,1.08-32.15c1.31-42.88,2.21-85.76,2.39-128.63s0-85.73-1.6-128.51c-.18-5.35-.32-10.7-.53-16l-.81-16-.81-16c-.15-2.67-.25-5.35-.43-8l-.6-8-1.2-16-.59-8c-.2-2.66-.38-5.32-.69-8L161,135.63Z"/><path class="cls-1" d="M138.15,96a625.51,625.51,0,0,1,8.6,66l.64,8.27.31,4.13c.1,1.38.15,2.75.23,4.13l.86,16.54c.34,11,.77,22,.79,33.06.19,11,0,22-.09,33-.29,11-.48,22-1,33s-1.05,22-1.63,32.93c-.73,11-1.4,21.93-2.31,32.88-3.39,43.81-8.32,87.44-14.21,130.93Q125.9,523.5,120.62,556c-3.53,21.65-7.26,43.26-11.49,64.78,3.61-21.63,6.72-43.33,9.64-65s5.52-43.48,7.85-65.27c4.65-43.57,8.32-87.23,10.46-130.95.59-10.92.95-21.86,1.36-32.78s.63-21.87.69-32.79.07-21.86,0-32.78c-.23-10.91-.34-21.83-.84-32.73-.33-10.9-1.06-21.78-1.71-32.65l-1.31-16.28c-.11-1.36-.2-2.72-.34-4.07l-.43-4.05-.85-8.11a613.2,613.2,0,0,0-10.23-64.15Z"/><path class="cls-1" d="M326.17,97.38c1.55,87.48,3.2,174.94,5.41,262.4,1.12,43.72,2.37,87.45,4,131.15.83,21.86,1.74,43.71,2.93,65.54.61,10.91,1.27,21.83,2.13,32.72.44,5.45.92,10.9,1.55,16.32.31,2.72.66,5.43,1.12,8.12.23,1.35.48,2.69.82,4a14.73,14.73,0,0,0,.62,2,4.11,4.11,0,0,0,.48.9,1,1,0,0,0,.38.33.49.49,0,0,0,.48-.07.51.51,0,0,1-.49.08,1.16,1.16,0,0,1-.4-.33,4.37,4.37,0,0,1-.51-.89,16.46,16.46,0,0,1-.67-1.94c-.38-1.32-.67-2.65-.94-4-.54-2.68-1-5.39-1.36-8.09-.78-5.42-1.42-10.86-2-16.3-1.18-10.88-2.15-21.78-3.07-32.68-1.81-21.81-3.35-43.64-4.8-65.47-2.89-43.67-5.38-87.36-7.75-131-4.71-87.39-8.86-174.81-12.91-262.22Z"/><path class="cls-2" d="M164.93,141.89a4.2,4.2,0,0,0-6.89-1.24c-9.77,10.47-23.13,16.13-37.84,7.84C96.51,135.13,94.6,106.86,103.86,83c20.12-51.78,71-66.51,121.78-71.19,49.69-4.58,98,6.42,125,50.54,11.13,18.25,17.29,36.66,13.95,58.13-2.47,16-12.12,27.74-28.63,25.45a4.16,4.16,0,0,0-4.24,2.18c-10.14,18.95-44,32.65-60.17,15.55a4.28,4.28,0,0,0-5.54-.61c-10.55,7.32-17.65,16.42-32.29,17.71-11.29,1-20.88-1.61-30.65-6.58C188,166.59,171.73,157.6,164.93,141.89Z"/><path class="cls-1" d="M367.34,129.83a72.92,72.92,0,0,0-3.48-36,73,73,0,0,1,.69,26.66c-2.42,15.63-11.72,27.24-27.6,25.58a6,6,0,0,0-5.79,3c-10.78,18.54-44,31.54-59.84,14.42a3.89,3.89,0,0,0-5-.62c-10.72,7.35-17.81,16.61-32.6,17.92-11.29,1-20.88-1.61-30.65-6.58-15.31-7.78-32-17-38.5-33.29a3.46,3.46,0,0,0-5.79-1.05c-9.82,11-23.48,17.1-38.54,8.61-19-10.72-24-31-20.44-50.91-6.61,22.3-3,46.94,19.08,59.23,16.59,9.25,31.45,1.39,41.5-11.19a1.36,1.36,0,0,1,2.37.46c5.66,18.47,23.86,28.45,40.5,36.83,10,5,19.73,7.66,31.22,6.71,14.56-1.2,21.75-9.91,32.07-17.1a5.33,5.33,0,0,1,6.78.58c16.41,16.2,49.3,3.51,60.13-14.7a6.3,6.3,0,0,1,6-3.08C355.56,157,364.94,145.43,367.34,129.83Z"/><path class="cls-3" d="M155.57,55.77c5.39,27.86,32.75,37.88,58.57,40.75a44.84,44.84,0,0,0,21.37-3c6.49-2.74,10-9.78,16.21-11.69C266,77.49,282.58,95.44,298.13,89c2.87-1.2,4.37-4.65,7.27-5.77,3.77-1.46,7.53,0,11.28-.76,8.22-1.56,20.17-11.06,15.11-20.13"/><path class="cls-1" d="M222.82,68.57c-9.94.67-15.17,6.47-25.57,3.25-4.86-1.51-18.37-7-21.12-11.19-10.87-16.57,21.07-29.52,32.76-30.29,10.43-.68,20.5,2,30.89,2.72,16.19,1.15,32.48-.6,48.72,2.47,8.59,1.63,29.13,3.29,29.54,15.2.23,6.83-11.51,15-16.69,18.06-14,8.19-26.28.64-39.72-5.33C247.38,57.14,234.39,65,222.82,68.57Z"/><path class="cls-4" d="M206.43,40.29a8.11,8.11,0,0,1,3.59.44c8.33,1.83,15.37,4.77,4.51,12.61-4.28,3.09-15.33,4.58-21.09,1.63a4.47,4.47,0,0,1-1.54-6.47c4.28-6.3,7.47-7.45,14.53-8.21Z"/><path class="cls-4" d="M279.07,60c7-2.74,10-.14,17.72,2a1.59,1.59,0,0,1,.92,2.36c-3,4.77-10.7.87-15.82,1.52A5.4,5.4,0,0,1,278,65c-.61-.44-1.22-.82-1.78-1.26a1.39,1.39,0,0,1,.14-2.27l1.12-.67A9.86,9.86,0,0,1,279.07,60Z"/><path class="cls-5" d="M280.28,151.32a8.33,8.33,0,0,0,.63,10.05c4.28,5.12,11.64,6.66,18.17,2.77,4.52-2.69,4.81-8.28,2.66-12.75-2.43-5-9.76-6.38-14.92-5A12,12,0,0,0,280.28,151.32Z"/><path class="cls-5" d="M306.24,144.92a1.06,1.06,0,0,0-.24.91c.59,4,.57,9.34,4.55,11.39,2.91,1.5,5.91.8,8.57-.73a15.88,15.88,0,0,0,7.66-16.17c-1.26-8.19-6.13-4.42-10.28-.65-2.15,2-3.87,3.48-6.75,4.15C308.44,144.13,307,144.15,306.24,144.92Z"/><path class="cls-6" d="M332.82,130.76a47.35,47.35,0,0,1,1.07,7.15"/><path class="cls-6" d="M329.4,117.55a23.86,23.86,0,0,1,1.78,5.59"/><path class="cls-6" d="M268.9,149.06a45.23,45.23,0,0,1-.16,6.51"/><path class="cls-6" d="M266.92,134.12c.7,2.31,1.58,4.22,1.22,6.49"/><path class="cls-6" d="M265,124.72c.13.92.26,1.9.36,2.84"/><path class="cls-6" d="M263.79,118.23c.06.7.12,1.4.19,2.11"/><path class="cls-6" d="M261.26,111.43l.84,2.26"/><path class="cls-6" d="M327.7,111.64l.75,1.21"/><path class="cls-6" d="M326.08,105.4l.51,2.19"/><path class="cls-6" d="M324.81,102l.18.73"/><path class="cls-6" d="M163.71,126.25a5.52,5.52,0,0,0-.53,3.67"/><path class="cls-6" d="M165.08,119l-.54,2.28"/><path class="cls-6" d="M166.85,111.49l-.62,2.61"/><path class="cls-6" d="M168.64,105.37l-.79,1.88"/><path class="cls-6" d="M170.51,98.92l-.86,2.21"/><ellipse class="cls-5" cx="286.03" cy="139.51" rx="5.2" ry="5.83" transform="translate(84.44 385.75) rotate(-76.69)"/><path class="cls-5" d="M287.39,126.56a3,3,0,1,1-2.24-3.63A3,3,0,0,1,287.39,126.56Z"/><ellipse class="cls-5" cx="304.37" cy="133.51" rx="5.87" ry="5.52" transform="translate(104.39 398.98) rotate(-76.69)"/><ellipse class="cls-5" cx="213.48" cy="166.1" rx="5.87" ry="5.52" transform="translate(2.7 335.62) rotate(-76.69)"/><path class="cls-5" d="M217.85,153.77a3.1,3.1,0,1,1-2.29-3.82A3.14,3.14,0,0,1,217.85,153.77Z"/><ellipse class="cls-5" cx="235.86" cy="158.13" rx="11.76" ry="13.97" transform="translate(27.69 351.27) rotate(-76.69)"/><path class="cls-5" d="M320.39,128.51a3.35,3.35,0,1,1-2.55-3.7A3.2,3.2,0,0,1,320.39,128.51Z"/><path class="cls-5" d="M302.88,119.09c.57,1.76,0,3.53-1.35,4s-2.83-.67-3.4-2.43,0-3.53,1.35-4S302.31,117.33,302.88,119.09Z"/><path class="cls-5" d="M315.11,115.75c.36,1.63-.35,3.16-1.57,3.43s-2.5-.84-2.85-2.46.34-3.17,1.56-3.44S314.75,114.12,315.11,115.75Z"/><path class="cls-5" d="M310.61,107.12a1.44,1.44,0,0,1-1.69,1.11,1.47,1.47,0,1,1,1.69-1.11Z"/><path class="cls-5" d="M298.92,110.34a1.48,1.48,0,1,1-1.09-1.81A1.49,1.49,0,0,1,298.92,110.34Z"/><path class="cls-5" d="M285.17,117.4a1.56,1.56,0,1,1-1.69-1.7A1.71,1.71,0,0,1,285.17,117.4Z"/><path class="cls-5" d="M282.77,109.89a1.35,1.35,0,0,1-.87,1.68c-.62.11-1.24-.47-1.38-1.29a1.35,1.35,0,0,1,.87-1.68C282,108.49,282.63,109.07,282.77,109.89Z"/><path class="cls-5" d="M256.2,132.83A3,3,0,1,1,254,129.2,3,3,0,0,1,256.2,132.83Z"/><path class="cls-5" d="M254,123.67a1.57,1.57,0,1,1-1.7-1.7A1.72,1.72,0,0,1,254,123.67Z"/><ellipse class="cls-5" cx="250.45" cy="116.36" rx="1.15" ry="1.51" transform="translate(-16.22 44.59) rotate(-9.86)"/><path class="cls-5" d="M194.08,131.24a5,5,0,1,1-.87-7A5,5,0,0,1,194.08,131.24Z"/><path class="cls-5" d="M192.62,118.19a2.57,2.57,0,1,1-1.37-3.71A2.83,2.83,0,0,1,192.62,118.19Z"/><ellipse class="cls-5" cx="211.58" cy="124.83" rx="3.04" ry="2.53" transform="translate(23.33 282.65) rotate(-70.51)"/><path class="cls-5" d="M194.06,109.36c-.35,1.33-1.44,2.19-2.45,1.92s-1.54-1.55-1.2-2.88a2,2,0,1,1,3.65,1Z"/><path class="cls-5" d="M213.51,117.05a1.66,1.66,0,1,1-3.1-.81c.29-1.13,1.23-1.86,2.08-1.63A1.91,1.91,0,0,1,213.51,117.05Z"/><path class="cls-5" d="M213.65,109.49c-.19.72-.78,1.19-1.33,1a1.21,1.21,0,0,1-.64-1.55c.18-.72.78-1.19,1.32-1A1.2,1.2,0,0,1,213.65,109.49Z"/><path class="cls-5" d="M249.65,108.7c-.19.72-.79,1.19-1.33,1a1.39,1.39,0,1,1,1.33-1Z"/><ellipse class="cls-5" cx="235.23" cy="135.74" rx="8.2" ry="5.61" transform="translate(-8.85 16.64) rotate(-3.98)"/><ellipse class="cls-5" cx="233.56" cy="122.89" rx="5.97" ry="3.43" transform="translate(-9.92 21.07) rotate(-5.06)"/><path class="cls-5" d="M233.77,110.93c1.4.68,2.11,2.08,1.6,3.14s-2.06,1.37-3.45.7-2.11-2.08-1.6-3.14S232.38,110.26,233.77,110.93Z"/><path class="cls-5" d="M297.5,106.26a1.38,1.38,0,1,1-1.05-1.5A1.31,1.31,0,0,1,297.5,106.26Z"/><path class="cls-5" d="M295.88,101.23a1.38,1.38,0,1,1-1.06-1.5A1.3,1.3,0,0,1,295.88,101.23Z"/><path class="cls-5" d="M354.23,87a1.31,1.31,0,0,1-1.61.87,1.23,1.23,0,1,1,.56-2.37A1.31,1.31,0,0,1,354.23,87Z"/><path class="cls-5" d="M308.12,99.6a1.37,1.37,0,1,1-1-1.66A1.38,1.38,0,0,1,308.12,99.6Z"/><path class="cls-5" d="M145.61,132.71a8.32,8.32,0,0,1-3.71,9.36c-5.65,3.54-13.13,2.73-18.14-3-3.46-4-2-9.37,1.42-12.94,3.87-4.06,11.26-3.06,15.72-.12A12,12,0,0,1,145.61,132.71Z"/><path class="cls-5" d="M207.57,151.27c.54,3.93-2.45,7-7.15,7.62a25.11,25.11,0,0,1-23.37-10.21c-3.66-5.24-.44-9.93,5-12,6.11-2.39,15.68,1.56,20.91,6.22A14,14,0,0,1,207.57,151.27Z"/><path class="cls-5" d="M122.9,118.58a1.1,1.1,0,0,1-.05,1c-1.81,3.65-3.43,8.7-7.85,9.42-3.23.53-5.87-1.07-7.93-3.35a15.87,15.87,0,0,1-2.28-17.74c3.73-7.4,7.19-2.31,10,2.56,1.44,2.52,2.61,4.51,5.13,6C121.05,117.15,122.46,117.63,122.9,118.58Z"/><path class="cls-5" d="M134.87,118.26c-.24,2.86,2.17,5.39,5.38,5.66s6-1.84,6.24-4.7-2.18-5.4-5.39-5.66S135.1,115.4,134.87,118.26Z"/><path class="cls-5" d="M203.38,134.46c-.24,2.86,2.18,5.4,5.38,5.66s6-1.84,6.24-4.7-2.17-5.39-5.38-5.66S203.62,131.6,203.38,134.46Z"/><path class="cls-5" d="M249.4,148.62c-.23,2.86,2.18,5.39,5.39,5.66s6-1.84,6.24-4.7-2.18-5.4-5.39-5.66S249.64,145.76,249.4,148.62Z"/><path class="cls-5" d="M143.49,106.71a3,3,0,1,0,3.26-2.76A3,3,0,0,0,143.49,106.71Z"/><ellipse class="cls-5" cx="124.35" cy="106.61" rx="5.87" ry="5.52" transform="translate(7.88 221.77) rotate(-85.29)"/><ellipse class="cls-5" cx="112.61" cy="92.12" rx="3.02" ry="3.33" transform="translate(11.55 196.78) rotate(-85.29)"/><path class="cls-5" d="M128.64,93.78c-1.08,1.5-1.06,3.37.06,4.18s2.9.24,4-1.26,1.06-3.37-.05-4.18S129.73,92.28,128.64,93.78Z"/><path class="cls-5" d="M116.7,79.87c-.84,1.44-.65,3.12.43,3.75s2.63,0,3.48-1.46.65-3.12-.43-3.75S117.54,78.43,116.7,79.87Z"/><path class="cls-5" d="M123.29,72.85a1.39,1.39,0,1,0,2.77.23,1.39,1.39,0,1,0-2.77-.23Z"/><path class="cls-5" d="M134,86.41A1.48,1.48,0,0,0,135.31,88,1.51,1.51,0,1,0,134,86.41Z"/><path class="cls-5" d="M134.29,91.44a1.48,1.48,0,1,0,1.6-1.38A1.5,1.5,0,0,0,134.29,91.44Z"/><path class="cls-5" d="M130.38,102.06a1.48,1.48,0,1,0,1.59-1.38A1.48,1.48,0,0,0,130.38,102.06Z"/><path class="cls-5" d="M149.66,99.46a1.56,1.56,0,1,0,2.14-1.09A1.7,1.7,0,0,0,149.66,99.46Z"/><path class="cls-5" d="M154.7,93.16A1.36,1.36,0,0,0,155,95a1.35,1.35,0,0,0,1.71-.8,1.19,1.19,0,1,0-2-1.07Z"/><path class="cls-5" d="M136.79,81.35a1.29,1.29,0,0,0,1.26,1.32,1.22,1.22,0,1,0-1.26-1.32Z"/><path class="cls-5" d="M140.12,85.05A1.38,1.38,0,1,0,141.59,84,1.31,1.31,0,0,0,140.12,85.05Z"/><path class="cls-5" d="M140.91,75.77a1.38,1.38,0,0,0,2.73.22,1.29,1.29,0,0,0-1.26-1.32A1.31,1.31,0,0,0,140.91,75.77Z"/><path class="cls-5" d="M130,65.08a1.37,1.37,0,1,0,1.48-1.27A1.38,1.38,0,0,0,130,65.08Z"/><path class="cls-5" d="M134,60a1.37,1.37,0,1,0,1.49-1.26A1.38,1.38,0,0,0,134,60Z"/><path class="cls-5" d="M360.65,113.57a3.35,3.35,0,1,1-2.55-3.7A3.19,3.19,0,0,1,360.65,113.57Z"/><ellipse class="cls-5" cx="343.2" cy="135.67" rx="5.36" ry="5.19" transform="translate(132.17 438.42) rotate(-76.69)"/><path class="cls-5" d="M360.27,120.1c2.14,1.64,2.11,5.28-.07,8.12s-5.68,3.82-7.82,2.18-2.11-5.28.07-8.12S358.13,118.46,360.27,120.1Z"/><path class="cls-5" d="M358.61,102.13c.35,1.63-.35,3.17-1.57,3.43s-2.5-.83-2.85-2.46.34-3.16,1.56-3.43S358.25,100.5,358.61,102.13Z"/><path class="cls-5" d="M356.14,94.6a1.61,1.61,0,0,1-.93,2c-.72.16-1.48-.49-1.69-1.46a1.62,1.62,0,0,1,.93-2C355.17,93,355.93,93.63,356.14,94.6Z"/><path class="cls-5" d="M345.15,123.75a3.35,3.35,0,1,1-2.55-3.7A3.2,3.2,0,0,1,345.15,123.75Z"/><path class="cls-5" d="M340.64,104.78a1.61,1.61,0,0,1-.93,2c-.72.16-1.48-.5-1.69-1.46a1.61,1.61,0,0,1,.93-2C339.67,103.16,340.43,103.81,340.64,104.78Z"/><path class="cls-5" d="M338.86,98.59a1,1,0,1,1-1.27-1A1.15,1.15,0,0,1,338.86,98.59Z"/><path class="cls-5" d="M337.22,93.12a.86.86,0,1,1-1-.72A.89.89,0,0,1,337.22,93.12Z"/><path class="cls-5" d="M352.55,81.76a.89.89,0,0,1-.63,1.09.94.94,0,1,1,.63-1.09Z"/><path class="cls-5" d="M350.78,76.3a.86.86,0,1,1-1-.72A.89.89,0,0,1,350.78,76.3Z"/><path class="cls-5" d="M340.48,113.59a1.62,1.62,0,0,1-.93,2c-.72.16-1.48-.49-1.69-1.46a1.61,1.61,0,0,1,.93-2C339.51,112,340.27,112.62,340.48,113.59Z"/><ellipse class="cls-5" cx="343.04" cy="115.26" rx="1.34" ry="1.79" transform="translate(-16.7 75.9) rotate(-12.33)"/></svg>