<svg id="Layer_1" data-name="Layer 1" xmlns="http://www.w3.org/2000/svg" viewBox="0 0 425 515"><defs><style>.cls-1{opacity:0.3;}.cls-2{fill:#e8e8e8;}.cls-10,.cls-14,.cls-15,.cls-18,.cls-19,.cls-2,.cls-3{stroke:#161616;}.cls-10,.cls-14,.cls-15,.cls-18,.cls-19,.cls-2,.cls-20,.cls-21,.cls-3,.cls-6{stroke-miterlimit:10;}.cls-14,.cls-15,.cls-2,.cls-20,.cls-21,.cls-3{stroke-width:0.78px;}.cls-10,.cls-19,.cls-3{fill:#6b1230;}.cls-15,.cls-4,.cls-6{fill:#fff;}.cls-5{fill:#020206;}.cls-21,.cls-6{stroke:#111;}.cls-6{stroke-width:0.96px;}.cls-7{fill:#8e8e8d;}.cls-8{fill:#282828;}.cls-9{fill:#5b031e;}.cls-10{stroke-width:0.92px;}.cls-11{fill:#726f70;opacity:0.53;}.cls-12{fill:#bfbfbf;}.cls-13{fill:#ededed;}.cls-14{fill:#181818;}.cls-16{fill:#918e8f;opacity:0.68;}.cls-17{fill:#383838;}.cls-18{fill:#efefef;}.cls-18,.cls-19{stroke-width:1.16px;}.cls-20,.cls-21{fill:none;}.cls-20{stroke:#232323;}</style></defs><ellipse class="cls-1" cx="236.27" cy="481.67" rx="153.55" ry="27.39"/><g id="z"><path class="cls-2" d="M43.13,43.15S24.85,30,10.28,38.4c0,0,3.93,19,23.94,22.22L49.3,54.39Z"/><path class="cls-3" d="M17.28,42.19s9.68,10,22.9,12.2l-6.93,2.94S20.77,54.67,17.28,42.19Z"/><path class="cls-4" d="M58,145.2s5.63-8.06,15.7-9.62l23.59,7.08,16.12-12.53,8.07-22.37L90.8,50.13l-2-3.56S57,31.28,34.22,65.36c0,0-2.48,12.3-2.37,17.46l-.64,8.46S25.48,99,25.33,102.63Z"/><path class="cls-5" d="M43.11,69.71s1.25,15.44-2.93,21.57A41.1,41.1,0,0,0,50.6,63.9S44.79,60.18,43.11,69.71Z"/><path class="cls-6" d="M42.87,74.76s-4-2.09-2.69-10.23c0,0-5.12,3.2-7.2,7.71,0,0-2.91-9,0-15.7,0,0,7.09-3.54,12-3.89l-11.71-2.6s.39-12,9.87-18l6.18,6L45,30.17A24.5,24.5,0,0,1,58.75,25.1l23.55-.87s14,3,23,9.41c0,0-.75,7.6-3,9.51,0,0,5.49-3.58,6.49-6.07,0,0,20.46,16.72,28.2,35.18l-8.24,7.52,10.23-4.52,4.75,10.59a90.45,90.45,0,0,1-9.49,8.32s7-.2,12-3.94c0,0-.4,24.65,11.78,35.66l-4.54,5.46,5.74-1.94s20.07,33.87,20.07,51.22c0,0-17.63-22.82-21.53-31.42-3.69-8.14-27.49-22.59-27.49-22.59l-16-45.12L94.94,51.37,79.25,38.73,63.64,46s-7.54.09-12.28,16.31C51.36,62.28,46.37,72.26,42.87,74.76Z"/><path class="cls-7" d="M243.8,337s16.45,35.36,22.75,43.86c0,0-23.85,83.33-25.22,91.56,0,0,2.74.82,11.24,2.46,0,0,3.56,5.49,4.11,7.82,0,0,4.11-7-1.37-12.75,0,0,24.4-78.4,32.9-88.54,0,0-11.24-29.34-9.32-52.64l-7.4-7.4Z"/><path class="cls-7" d="M114.83,462.94l4.28-3.05L117,395.18s-11.6-66.37-12.21-73.78l34.49,10,5.8,31.74s-10.38,43-11,53.11L131,455.92s2.75,7.93,1.22,11.6C132.23,467.52,117.88,463.24,114.83,462.94Z"/><path d="M114.83,462.94s-14.12,7.33-13,19.79c0,0,12.6,3.39,25.21-1.92,0,0,6-3.12,5.2-13.29Z"/><path d="M153.28,474.4s-13,2.43-15,18.57c0,0,19,4.87,28.52-4,0,0,2.7-6.18,2.9-10.72Z"/><path d="M241.33,472.45s-12.14,2.39-15.68,18.53a36.83,36.83,0,0,0,26.09,0s5-3.24,4.94-8.25l-4.11-7.82Z"/><path d="M349.07,479.69s-12,6.21-13.52,17.26c0,0,18.36,5.1,30.07-2.64,0,0,4.2-6.57.66-11.58Z"/><path class="cls-4" d="M68.34,106.84l-.66-48.22L87,44.24s25.81,10.15,39.6,52.9c0,0,39.14,67.42,57.5,86s69.32,25.18,93.62,19,46.16-10.51,66.95,7.69S377.6,273,362.9,310.56c-9.12,23.29-2.64,46.2-2.64,46.2s8.56,13.75,8.05,27.25l-1.52,81.51s10.13,14.68-.51,17.21l-17.21-3,5.22-4.94L341.2,377.69s-56.42-30.64-70.09-51.4c0,0-32.34,24.22-94.28,19.38,0,0-.65,8.71-6.45,13.88l-3.55,112s2.58,4.19,2.9,6.77l-16.45-3.87L138.76,339.87s-9.44-1.38-14.06-4.46c0,0-22.76.77-32.56-25.41s-7-64.11-5.13-107.48c1.6-37.39-13.93-58.69-18.24-63.86a3,3,0,0,1-.57-2.9l1.91-6.1-1.77-22.82"/><path class="cls-8" d="M29.35,161.66a17.38,17.38,0,0,0,16.08,0c8.81-4.4,9.59-15.29,16.59-21.25s6.48-16.6,2.33-19.45-12.44-2.07-12.44-2.07S44.13,115,40,103.33s-21.26,4.41-21.26,4.41-5.3-5.45-12.44,5.7a11.58,11.58,0,0,0,0,12.45s-.52,8.81-3.89,11.4,7.78,10.37,18.93,8.56a8.7,8.7,0,0,1,6,7.52C27.8,159.33,29.35,161.66,29.35,161.66Z"/><path class="cls-9" d="M27.19,145.64s17.24-3.71,22.45-19.75h1.53s9.15,21.5-10,31.22c0,0-11,4.16-10.63-7.71A6.15,6.15,0,0,0,27.19,145.64Z"/><path class="cls-10" d="M31.21,124.35s3.54-3.11,6-1.73,3.22-4.61-1.54-4.45S31.21,124.35,31.21,124.35Z"/><path class="cls-11" d="M15,112.46s9.78-8.54,19.58-8.13c0,0,2,.82,3.63,5.48s6.17,10.55,16,9.87A15.7,15.7,0,0,1,44.52,112c-3.67-6.47-3-12-9.93-12.92s-14,7.26-15.87,8.64c0,0-3.66-3.81-9.69,2.08S3.66,122,6.28,125.89c0,0-1.9-9.64,4.54-14.57S15,112.46,15,112.46Z"/><path class="cls-12" d="M64.57,122s21.16,5.88,31.34-.72,11-18.53,11-18.53,7,18.11-8,28.63-28.09,9.88-28.09,9.88L69,138.78A2.41,2.41,0,0,0,66,138c-1.4.65-3.54,2.16-6.4,5.6l5.27-12.68Z"/><path class="cls-5" d="M60.52,120.42s7.71,8-2.35,19.44-7.55,19.59-19,20.6-9.23-5-9.84-6.87-1.79-7.37-4.3-8c0,0-5.09-1-.93,1.8,0,0,3.49,2,3.88,10.46s14.29,6,17.47,3.85S52.6,155.91,58,145.2c0,0,6.71-6.18,8.65-11.79S67.52,121.37,60.52,120.42Z"/><path class="cls-5" d="M4.37,135.5s.2,7.81,19.3,6.58S49.3,126.62,49.3,126.62s-2.86,16.85-28,19.23c0,0-15.46,2.05-19.54-7.67C1.78,138.18-.19,135.17,4.37,135.5Z"/><path class="cls-5" d="M25.32,127.51S24.8,114.19,35,113.35c0,0,3.75,0,5.69,4.81,0,0-4.15-4.81-9.44-1.7A12.81,12.81,0,0,0,25.32,127.51Z"/><path class="cls-5" d="M54.25,108.09s20.89,3.14,30.5-14.4S89.07,61,89.07,61s13.52,21.23-2.06,41.8C73.68,120.42,54.25,108.09,54.25,108.09Z"/><path class="cls-5" d="M64.57,68s12.73-7,16.81,5.28c0,0,.11-9.26-7.7-12.25C67.39,58.61,64.57,68,64.57,68Z"/><path class="cls-5" d="M32.12,78.42s2.42-4.92,6.07.6c0,0-.45-6.48-3.65-5.52C31.81,74.32,32.12,78.42,32.12,78.42Z"/><path class="cls-5" d="M68.34,119.25s20.44-3.85,26.17-15.38,6.74-26.24,5.31-34.16c0,0,6.19,7.48,1.5,32S68.34,119.25,68.34,119.25Z"/><path class="cls-5" d="M57.33,48.55S61.17,67.93,53.17,79c0,0,11.38-16.69,10.3-33.31C63.47,45.71,56.75,44.31,57.33,48.55Z"/><path class="cls-5" d="M70.76,141.23s9.28-1.77,20.16-5c4.51-1.35,9.3-3,13.81-4.83,0,0,.64,13.87-25.74,24.47C79,155.82,73.09,143.47,70.76,141.23Z"/><path class="cls-5" d="M127.92,99.09s-11.19,38.33-35.78,58.72c0,0,12.79-.59,28.19-16.78s18.39-22.87,18.39-22.87Z"/><path class="cls-13" d="M15,145.9s2.86,6.56,18.52,1.2,17.08-15.25,17.08-15.25l-2.29-2.19s-3.25,8.72-11.28,11.8S21.9,146.32,15,145.9Z"/><path class="cls-13" d="M30.57,151.38s2.64,4.65,10.08,1.35,10.56-11.08,10.73-14.81.34-5.58.34-5.58l1.33.41s1.19,9.71-3.46,16.46-6.42,7.76-10.44,8.6S30.58,156.72,30.57,151.38Z"/><path class="cls-5" d="M43.12,32.09,59.61,49.76a76.09,76.09,0,0,0-6.42,9.44l-15.45-22S40.39,32.38,43.12,32.09Z"/><path class="cls-5" d="M58.75,25.1l-4.5.67S55.74,43,59.61,46.57l3.86-.86Z"/><path class="cls-5" d="M87,45.49s5.74-11.59,6.35-17.91l9.51,4.51S99.43,46.5,94.94,51.37Z"/><path class="cls-5" d="M104.73,58.45a70.93,70.93,0,0,0,16.73-9.05s10.31,12.22,12.9,17.54L137,72.26,122.1,86.05S111.17,62.54,104.73,58.45Z"/><path class="cls-5" d="M146.18,90.23s-4.33,8.42-16.2,12.49l12.7,21.63s8.34-3.74,10.08-5.11C152.76,119.24,145.51,104,146.18,90.23Z"/><path class="cls-5" d="M155.4,123.15l-8.07,8.2s5.43,12.24,12.55,19.48l6.79-8.17-7.51-13.25-5.74,1.94,4.54-5.46Z"/><polygon class="cls-5" points="165.91 159.74 172.47 155.82 176.84 167.64 173.15 169.87 165.91 159.74"/><path class="cls-14" d="M395.51,294s-12,13.62,6,30.5,22.11,13.62,22.11,13.62-6.76-5.18-4.68-11.9,4.16-8.24,2.34-18.8S408.69,291.49,403,289C403,289,396.29,288.81,395.51,294Z"/><path class="cls-15" d="M352.8,218.77s34.13,12.44,43.33,34.22,6.52,47.8,6.52,47.8-8.06-5.94-7.67-15.27c.35-8.64-.28-27.22-23.79-41.83-1.89-1.17-3.92-2.31-6.12-3.43Z"/><path class="cls-16" d="M79,155.82c6.12,14,9,28.81,7.33,43.61,0,37.83-7.29,75.3,6.33,113,.92,2.54,4.14,7.06,6,9.83,2.09,3,6,7.27,9.37,8.8,26.51,12.11,45.67,11.48,72,14.77,27.95,1.65,61.27-.29,91.05-19.5l-13.67-18.36S217,339.87,136.3,317.46c0,0-27.48-17.27-30.84-90,0,0-2.63-61.61-11.88-79.52Z"/><path class="cls-4" d="M179.23,284.16s7.69,60-8.85,75.39l-3.55,112s3.18,4.42,2.9,6.77l-16.45-3.87L138.76,339.87l-6.46-58.8Z"/><path class="cls-4" d="M241.33,286.37s28.34,37.91,29.78,39.92,15.19,22.95,70.09,51.4l13.09,97.06-5.22,4.94,17.21,3s6.09-1.35,4.84-6.37a58.23,58.23,0,0,0-4.33-10.84L368.31,384s3-18.3-4-34.11c0,0-8.13-9-8.7-28.5,0,0,7.53-25.37,8.41-32.2s-88-24-88-24Z"/><path class="cls-5" d="M194.79,190.89S207.94,246.1,181,291c0,0,36.41-43.75,31.55-92.9Z"/><path class="cls-5" d="M236.34,203.06s8.71,44.6-12.61,83.29c0,0,24.36-37.5,24-82.23Z"/><path class="cls-5" d="M260.85,204.28s11.44,46.1-2.74,76.79c0,0,13.52-24.5,14.8-51.34s-5.21-25.91-5.21-25.91Z"/><path class="cls-5" d="M183.76,346.25S201.49,328,207,283.2c0,0,4.65,37.79-11.63,63.1Z"/><path class="cls-5" d="M213.37,345.4S246,316,249.76,257.13c0,0,1.21,61.21-22.95,86.38Z"/><path class="cls-5" d="M87,190.89s30.23-6.95,39.34-22.27c0,0-19.55,32.08-40.07,38.79Z"/><path class="cls-5" d="M147.33,131.35s-6.15,17.16-25.87,26.46c0,0,27.4-7.57,31.3-17.56Z"/><path class="cls-5" d="M85.15,175.84s20.32-2.42,25.89-12.22c0,0-9.32,15.62-24.5,21.42Z"/><path class="cls-5" d="M163,153.88s-.32,51.22-60,68.79c0,0,35.8,0,57.51-25.84s10.79-29.38,10.79-29.38Z"/><path class="cls-5" d="M85.15,242.44s17.42,19,59.9-10.64c0,0-20.93,30-60.54,27.67Z"/><path class="cls-5" d="M178.46,176.72s.46,48.74-27.79,70.38c0,0,30.87-21,38-60.08Z"/><path class="cls-5" d="M86.7,286.35s38.1,2.31,62-24.77c0,0-12.48,27.73-59.3,39.69C89.44,301.27,85.76,290.64,86.7,286.35Z"/><path class="cls-5" d="M179.31,338.24s-10.15,19.44-30.57,20.84c0,0,16,1.91,26.31-6.39C175.05,352.69,178.6,343.3,179.31,338.24Z"/><path class="cls-5" d="M186.47,227.25s5.21,46.15-27.41,65.93c0,0,29.84-6.39,32.62-48.48C191.68,244.7,191,226.91,186.47,227.25Z"/><path class="cls-5" d="M99.27,323s24-7.5,30.55-17.88c0,0,8.2,14.61-17.13,27.91C112.69,333,102,329.16,99.27,323Z"/><path class="cls-5" d="M143.84,387s-2.7-7.49,10.18-14.39,15.71,11.8,15.71,11.8S164,372.33,154,377.47,143.84,387,143.84,387Z"/><path class="cls-5" d="M146.15,408.33s1.37-9.71,14.49-9.71c8.5,0,8.1,12.41,8.1,12.41s-4.27-10.48-11.29-7.72A123.11,123.11,0,0,0,146.15,408.33Z"/><path class="cls-5" d="M264.77,317.76s17.93-90.51,91.86-93l7,14.4s-30.84-6.77-60.72,23.11S264.77,317.76,264.77,317.76Z"/><path class="cls-5" d="M282.88,339.21s-2.54-38.54,38.19-70.07c0,0-35.39,50.07-31,76.26Z"/><path class="cls-5" d="M284.93,200.35s12.79,21,9.25,40.6c-.09.5-.19,1-.31,1.49-4.49,20.06,12.06-23.54.92-44.15Z"/><path class="cls-5" d="M306.31,357.29s6.94-67,59.65-56c0,0-46.78,2.35-51.78,61.11Z"/><path class="cls-5" d="M368.06,258.21s-38-.32-53.88,45.54c0,0,23.72-37.87,54.58-40.27Z"/><path class="cls-5" d="M308.41,196.8s16.26,9.68,10.9,26.94c0,0,11.59-16.12,0-26.24l-6.23-.7Z"/><path class="cls-5" d="M136.73,321.4s10.64,13.56,43.51,9.81c0,0-10.7,12-41.93,4.54"/><path class="cls-5" d="M329.55,371.05s3.27-26.24,28.48-32.84l.63-10.8S319.73,341.43,329.55,371.05Z"/><path class="cls-5" d="M343.74,396.5s.12-26.74,24.89-29l.31,6.5S349,381.88,343.74,396.5Z"/><path class="cls-5" d="M347.18,422.07s7.66-12.26,18.78-6c0,0-18.66,6.86-17.73,13.76Z"/><path class="cls-5" d="M367.24,441.23s-4-8.45-12.7-1.71c0,0,13,4.1,12.7,11.84Z"/><path class="cls-5" d="M149.73,441.52s5.21-9.93,18.3-8c0,0-9.74-8.31-19.19-.25Z"/><path class="cls-5" d="M252.1,354.33s16.06,4.36,27.26-8.93c0,0-5.53,16.7-23.23,17l-4-6.64"/><path class="cls-5" d="M263.78,376.6s18-1.11,20-9.14l2.75,9.14S266.57,381.53,263.78,376.6Z"/><path class="cls-5" d="M260.53,402.06s9.44,3.25,20.18-5.56c0,0-5.18,11.32-22.72,14.53Z"/><path class="cls-5" d="M368.76,390.58s-20.07,2.63-21.58,11.48c0,0,16.35-9.61,20.9-5.56Z"/><path class="cls-5" d="M257.44,307.93s-5.16-15.41,8.29-32.34c0,0-6.68,30-4.63,37.25"/><path class="cls-5" d="M112.43,368.91s2.7-12.93,19.87-15c0,0-10.06-8.75-22.15,1.58Z"/><path class="cls-5" d="M121.22,383.81s14.35.14,17.56,6.65l2.09-9.38S134,372.67,121.22,383.81Z"/><path class="cls-5" d="M117.44,409.5s5-12.17,18.58-5.74c0,0-9.26-10.82-18.82-1.7Z"/><path class="cls-5" d="M250.34,438.32s5.58,10.92,13,6.67l-2.4,7.33S249.72,444.79,250.34,438.32Z"/><path class="cls-5" d="M118.18,432s6-7.66,15.2-6.95c0,0-15.17,7.66-15,13.27Z"/><path class="cls-5" d="M134.58,300.05,136,311a61.55,61.55,0,0,0,39.35,6.73S139.29,316.39,134.58,300.05Z"/><path class="cls-5" d="M371.19,243.69s-1.85-10.34,5.46-12.33l-4.45-2.92s-6.64,2.63-6.08,12.22Z"/><path class="cls-5" d="M379.64,249.91s-1.45-9.67,7.23-10.1l3.52,3.88s-8.28,1.65-7.66,9.14Z"/><path class="cls-5" d="M390.39,263.29s.22-7.71,7-7.2l1.53,4.64s-6-1.76-7.27,4.77Z"/><path class="cls-5" d="M394.84,278.57s3.21-3.92,7.25-2.14l-.57-3.95S393.81,273,394.84,278.57Z"/><path class="cls-5" d="M395.85,291.34a6.45,6.45,0,0,1,7.16-3.07v-2.42s-7.68-.07-7.59,4Z"/><path class="cls-17" d="M395.6,293.88S390.48,313.6,407.69,326c0,0,9.76,10.83,16,12,0,0-3.24,3.19-17.49-9.45S387.36,306.51,395.6,293.88Z"/><path class="cls-5" d="M359.93,221.81s-3.52,2-2.89,4.39L361.4,231s.57-6.2,2.83-7.1Z"/><path class="cls-18" d="M86.43,54.39c5-38.67-23.68-48.45-23.68-48.45C51,41.57,68.83,51.13,68.83,51.13"/><path class="cls-19" d="M82.52,52.65S71.87,50,69.7,32s-1.08-17.38-1.08-17.38,12.38,11.73,13.9,19S84,50.26,82.52,52.65Z"/><path class="cls-20" d="M87,45.49s13.71,6.13,21.51,16.75,21.11,40.66,25.29,47.84,29.87,47.56,45.21,67.2,41.67,23.29,59,26.25c0,0,25.54,3.45,49.85-3.8,0,0,34.72-11.1,55.9,9.32,0,0,19.57,16.87,25,48.08,5.11,29.57-5.25,51.81-5.25,51.81s-6.88,18.61-5.48,29.27c0,0,3,7.54,6.31,11.69s5.87,22.44,4,34.11l-1.52,81.51s10.32,15.35-.51,17.21l-17.21-3,5.22-4.94L341.2,377.69S270.38,347.85,249.77,292"/><path class="cls-20" d="M271.11,326.29S240,351.91,176.83,345.67"/><path class="cls-20" d="M244.86,339.29s11.69,28.34,21.69,41.6l-25.22,91.56,11.24,2.46,4.11,7.82S262,478,255.31,470c0,0,25-80.67,32.9-88.54,0,0-11.11-35.29-9.54-46.26"/><path class="cls-20" d="M179.23,291s7.5,50.61-8.85,68.54l-3.55,112s3.33,3.7,2.9,6.77l-16.45-3.87L132.53,283.2"/><path class="cls-20" d="M138.76,339.87s-9.51-1.36-14.06-4.46c-3.48-2.37-18.12,2.85-30-19.17,0,0-12.65-13.38-9.2-77.21S85,160.36,69,138.78c0,0-2.12-3-8.63,3.3"/><path class="cls-20" d="M106,329.81l11,65.37,2.14,64.71-4.28,3.05,17.4,4.58S134,463,131,455.92c0,0,2.59-55,11.63-80.27"/><path class="cls-20" d="M69,138.78s36.55-4.55,37.31-28.51"/><path class="cls-20" d="M32.79,71.6a46.68,46.68,0,0,0-.94,11.22"/><path class="cls-20" d="M30.4,92.21s-4.94,5.73-5.07,10.42"/><path class="cls-21" d="M25.75,149.21c1.55,1.26,2.21,8.6,2.21,8.6s-.77,7.08,11.19,5.81S58,145.2,58,145.2c4.11-3,10.48-12,9.7-17.69s-4.33-8.49-11.81-8.69-9.76-4.47-12.52-9.13c-3.26-5.48-1.47-9.87-8.2-10.49-7.89-.73-16.43,8.54-16.43,8.54-1-1.3-4.74-3.93-11.12,3.65s-1.32,14.5-1.32,14.5-.08,7.15-2,8.94-3.81.57-2.45,3.35S5.7,144.87,15.89,146c0,0,16.73.44,26.44-8.39,8.17-7.42,7-12.51,7-12.51l-2.79-.6,5.57,1.36"/><path class="cls-21" d="M49.64,125.89s3.65.27,3.55,9.7S49,153,42.45,156.78s-11.18.23-11.88-3.59l-.86-4.95"/></g></svg>