<svg id="Layer_1" data-name="Layer 1" xmlns="http://www.w3.org/2000/svg" viewBox="0 0 100 60"><defs><style>.cls-1,.cls-4,.cls-5,.cls-8,.cls-9{fill:#fff;}.cls-1,.cls-8{stroke:#4f2102;}.cls-1,.cls-2,.cls-4,.cls-5,.cls-8,.cls-9{stroke-miterlimit:10;}.cls-1{stroke-width:0.64px;}.cls-2{fill:#4f2305;stroke-width:0.35px;}.cls-2,.cls-4,.cls-5,.cls-9{stroke:#020b3f;}.cls-3{fill:#091204;}.cls-4{stroke-width:0.07px;}.cls-5{stroke-width:0.12px;opacity:0.1;}.cls-6{fill:#160b0c;}.cls-7{fill:#4f2102;}.cls-8{stroke-width:0.61px;}.cls-9{stroke-width:0.07px;}</style></defs><ellipse class="cls-1" cx="82.14" cy="35.05" rx="19.75" ry="15.73" transform="translate(33.25 109.79) rotate(-79.92)"/><ellipse class="cls-2" cx="81.69" cy="37.45" rx="10.87" ry="8.81" transform="translate(30.52 111.32) rotate(-79.92)"/><ellipse class="cls-3" cx="81.79" cy="38.29" rx="6.24" ry="5.29" transform="translate(24.59 108.18) rotate(-75.79)"/><ellipse class="cls-4" cx="76.63" cy="35.46" rx="1.97" ry="1.86" transform="translate(32.92 107.71) rotate(-83.66)"/><circle class="cls-5" cx="84.65" cy="31.68" r="3.27"/><path class="cls-6" d="M67.67,57.53s18.52-1.88,28.93-3.35C96.6,54.18,77.56,53.19,67.67,57.53Z"/><path class="cls-7" d="M97.63,37.81c-1.91,10.74-3.3,4.92-16.94,2.51-14.26-2.52-16,2.72-14-8S77,14.09,85.59,15.61,99.54,27.07,97.63,37.81Z"/><ellipse class="cls-8" cx="20.86" cy="21.18" rx="19.01" ry="14.68" transform="translate(-5.35 35.21) rotate(-73.6)"/><ellipse class="cls-2" cx="22.94" cy="26.52" rx="10.46" ry="8.22" transform="translate(-8.98 41.04) rotate(-73.6)"/><ellipse class="cls-3" cx="23.27" cy="27.27" rx="6.53" ry="4.85" transform="translate(-9.46 41.89) rotate(-73.6)"/><ellipse class="cls-9" cx="19.07" cy="23.76" rx="1.89" ry="1.78" transform="translate(-6.65 40.09) rotate(-83.66)"/><circle class="cls-5" cx="25.72" cy="20.18" r="3.27"/><path class="cls-6" d="M2,33.36S15.89,41,24,44.94C24,44.94,11.35,34.72,2,33.36Z"/><path class="cls-7" d="M34.94,25.32c-3,10.07-2.93,4.28-16.56.73C5.73,22.76,3.81,27.1,6.78,17S18.45.65,26.23,2.94,37.9,15.25,34.94,25.32Z"/></svg>