<svg id="Layer_1" data-name="Layer 1" xmlns="http://www.w3.org/2000/svg" viewBox="0 0 256 270"><defs><style>.cls-1{fill:#eabb26;stroke:#c69406;}.cls-1,.cls-2{stroke-miterlimit:10;}.cls-2,.cls-3{fill:#ff50c5;}.cls-2{stroke:#ed32b8;}.cls-4{fill:#e51cac;}.cls-5{fill:#bdebf9;}.cls-6{fill:#f266de;}.cls-7{fill:#b2088a;}.cls-8{fill:#fff;}</style></defs><path class="cls-1" d="M103.92,147.26a39.72,39.72,0,0,0,12.72,22.36s-2.66,3.52-2.07,10.28c.79,9.42,12.19,13.79,15.17,27.84a47.9,47.9,0,0,1-3,28.38c-10.16,22.84-43.76,18-51.91,19a36.61,36.61,0,0,0-8,1.65c-3.57,1.33-5.06,3.3-1.76,6.17s13.2,1.87,13.2,1.87a22,22,0,0,1-7.18,2.55c-4.16.7-22.1,2.24-19.7-10.38,3.67-19.22,56.06-9.85,55.63-35.78v-.69c-1-18-20.76-22.74-23.16-37.16C82.25,173.62,85,170.1,85,170.1"/><path class="cls-2" d="M229.57,110.47c-11.34,0-19.81,9-29.44,15-12.25,7.62-21.78,13.74-34.08,6.71-.05-.05-.1-.05-.16-.1,2-.7,4.58-1.92,9.69-7.35C179.84,120.21,188,101,188.2,101v.11c1.28,9.11.11,10.38.11,10.38s-3-1.17-6.71,6.71-1.17,12.25,3.25,11.08c1.49-.38,3.56-2.13,5.69-4.64a56.06,56.06,0,0,0,8.15-13.15h0a29.1,29.1,0,0,0,2-6.07c2.13-11,4.47-24.43-7.88-26.46s-18.42,15.66-23.64,24.71c-6.28,10.91-11.34,9.47-11.34,9.47s-4.69.48-7.67-2.71c-12.14-13,15.07-45.68,12.51-73.9C161.21,20.49,142.2,2.81,116,2.17c0,0-33.54-.48-45.57,19s-4.85,37,1.17,55.21S80,111.85,75.06,117c-10.12,10.76-47.71,14.11-48.67-17.09-.47-14.8,24-25.18,18-46.9-2.23-8.1-7-15.13-22-14.54C8.88,39,4.3,50.2,3.13,60.58c-.85,7.29,2.77,12.94,5.21,4.15,3.36-12.24,8-14.37,11.35-14.8h.21c4.58-.27,19.38,7.67-.91,25C4.14,87.52,3.93,109.3,10.63,125s32.91,21.73,32.91,21.73c11.34,2.77,32.32-.43,32.32-.43h0A39.74,39.74,0,0,1,60.2,157.8C40.29,165.63,17.45,178,12.5,202.63a32.12,32.12,0,0,0,12,31.42,26.14,26.14,0,0,0,31.52.69c.48-.32,1-.69,1.39-1a21.54,21.54,0,0,0,8.35-20.45c-2.55-15.92-18.52-20.55-16.23-19.65s12.72,21.25-2.35,28.86C46.15,223,38,227.55,30,219a13.06,13.06,0,0,1-2.61-4h0c-5.49-12.57,5.8-32.85,40.89-39.4,27.26-5.06,33.59-20.61,33.86-21.46-.11.53,1.81.53,7.19,7.67,16,21.3,43.55,31.94,79.22,38.76,10.92,2.08,20.61,6.92,27.58,24,.27.69.54,1.33.75,2h0c0,.06,0,.11,0,.22,5.49,17.3-10.7,26-26,17.67-13.21-7.19-3-32.58-6-29.12h0c-.21.32-11.93,15.6-9.05,27.47,2.34,9.48,16.45,19,27.58,18.48s22.73-6.23,26.19-15.92c8.58-23.86-8.14-46.32-18.31-53.83-8.79-6.44-17.84-8.52-38.92-15-27.26-8.36-37.38-28.8-39.78-34.66-.37-1-.58-1.54-.58-1.59.53.31,49.57,26.88,72.73,4.15,13.15-12.94,34.45-28.7,36.63-10.65,1.28,10.65-6.18,18.53-13.68,19.17a10.62,10.62,0,0,1-4.16-.43,6.34,6.34,0,0,1-1.38-.64h0l-.64-.48a0,0,0,0,1-.05,0c-2.82-2.61-.37-7.29.42-8,5.54-5.32,12.36-5.59,3.25-5.06-19.22,1-18.69,29,7.67,23.54,15.76-3.25,20.28-13.42,20.18-28.38C252.84,118.3,238.52,110.47,229.57,110.47Z"/><path class="cls-1" d="M198.69,111.59h0a52.55,52.55,0,0,1-8.15,13.15c-2.13,2.5-4.2,4.26-5.69,4.63-4.42,1.17-7-3.25-3.25-11.07s6.71-6.71,6.71-6.71,1.17-1.33-.11-10.39a.43.43,0,0,0,.11-.21c4.63-7.4,7.4-9.16,7.4-9.16s4.47-2.45,4.84,4.64S198.69,111.59,198.69,111.59Z"/><path class="cls-3" d="M190.54,124.74c-2.13,2.5-4.2,4.26-5.69,4.63-4.42,1.17-7-3.25-3.25-11.07s6.71-6.71,6.71-6.71C194.27,112.81,192.89,119,190.54,124.74Z"/><path class="cls-1" d="M216.47,247.62c-5.53,7.88-11.71,12.14-26.25,6.93-11.07-4-16.66-19.07-5.32-39.19h0c3-3.46-7.19,21.93,6,29.12,15.33,8.31,31.52-.37,26-17.67h0C217.59,228.51,221.58,240.33,216.47,247.62Z"/><path class="cls-2" d="M95.66,247c-15.6,9.37-23.32,6.17-28.8,9.74-3.57,1.33-5.06,3.3-1.76,6.18s13.21,1.86,13.21,1.86a22.3,22.3,0,0,1-7.19,2.56C67,268.07,49,269.61,51.42,257c3.67-19.22,56.06-9.85,55.64-35.77C107.06,221.16,111.26,237.67,95.66,247Z"/><path class="cls-1" d="M57.44,233.73c-18.43,6-28.54-11.34-30-18.69a14.23,14.23,0,0,0,2.6,4c8,8.52,16.14,4,17.2,3.46,15.07-7.61,4.63-28,2.35-28.85s13.68,3.67,16.23,19.64A21.65,21.65,0,0,1,57.44,233.73Z"/><path class="cls-1" d="M83.84,129.58c-.53,1.44-1,2.93-1.54,4.37a90.46,90.46,0,0,1-4,9,11.08,11.08,0,0,1-2.51,3.56s-21,3.2-32.31.43c0,0-26.2-6-32.91-21.72s-6.49-37.49,8.36-50.1c20.29-17.26,5.48-25.24.91-25,2.82-.26,5.8-.42,8.41,1.07a8.74,8.74,0,0,1,4,6.28c1,5.75-2,11-5.37,15.34C25,75.28,9.3,85.71,11.54,106.64c1.65,15.33,4.53,21.61,18.05,28,11.5,5.43,32,4.31,38.23,2.34a37.49,37.49,0,0,0,15.07-8.46c.26-.27.79-1.07,1.17-.59S84,129.21,83.84,129.58Z"/><path class="cls-1" d="M228.29,154.61a10.23,10.23,0,0,1-6.12-2.72,4.64,4.64,0,0,0,1.38.64,9.6,9.6,0,0,0,4.16.43c7.5-.59,15-8.52,13.68-19.17-2.18-18-23.43-2.29-36.63,10.65-23.16,22.73-72.15-3.84-72.73-4.15a35.55,35.55,0,0,1-.8-10.76c.48-5.91,27.69,18.1,46.59,16,21.19-2.29,44.14-23.32,50.85-24,8.41-.85,18.1-.53,16.55,14.81C243.68,151.89,231.65,155,228.29,154.61Z"/><path class="cls-4" d="M166.1,132.19c.22.16-16.39-13.52-18.2-25.39.63,1,.42,2,2.44,3.78-.58-1.71,5,13.25,16.24,21.24C166.48,131.77,166.21,132,166.1,132.19Z"/><path class="cls-5" d="M182.93,84.59s6.44-6.44,13.1-2.29c8.94,5.54-.11,3-3.09,1.44C190.7,82.46,183.94,84.17,182.93,84.59Z"/><path class="cls-5" d="M212.64,119.15s8.15-4,16-4.42c7.51-.43,14.75,3.62,14.11,2.93-1.17-1.28-8.3-5.17-14.69-5C221,113.5,212.64,119.15,212.64,119.15Z"/><path class="cls-5" d="M155.88,172.5s-14.64-9.11-20.18-17.63c-5.48-8.36-8.78-21.35-8.84-20-.58,14.86,1.12,15.6,6.45,23A53.07,53.07,0,0,0,155.88,172.5Z"/><path class="cls-5" d="M198.05,188.84s12.41,8.63,17.57,14c5.06,5.21,7.51,8.25,7.08,7.4-4.74-10.17-7.4-10.65-12.14-15.18C201.72,188.1,198.05,188.84,198.05,188.84Z"/><path class="cls-5" d="M64.78,247.78s-7,1.23-9.58,4.8a9.25,9.25,0,0,0-1.55,7.4s-.47-2.45,4-7S64.78,247.78,64.78,247.78Z"/><path class="cls-5" d="M75.91,151.09s-4,5.06-32,18.16c-28.59,13.42-25.5,29.87-25.5,29.87s1.7-9.27,13.57-19.54S60.42,165,68,159.72,75.91,151.09,75.91,151.09Z"/><path class="cls-5" d="M27,113.4S37,133.68,66.06,125.75c27.85-7.61-4.68,10.81-24.65,3.57C29.64,125.06,27,113.4,27,113.4Z"/><path class="cls-5" d="M23.41,41.09s14,.64,18,10.44c2.71,6.65-.11,11-.48,11.45C40.88,62.92,43.7,49.19,23.41,41.09Z"/><path class="cls-4" d="M87,12.13s5.8,3-2.66,6.6S79.27,11.44,87,12.13Z"/><path class="cls-4" d="M96.89,15.91s3.3,2.45-3.57,4.2S91.62,14.84,96.89,15.91Z"/><path class="cls-4" d="M172.87,116.49s3.94,1.06-1.33,5S167.76,117.34,172.87,116.49Z"/><path class="cls-4" d="M119.36,139s3.78-3.3,4.1,6.28S116.7,145.45,119.36,139Z"/><path class="cls-4" d="M227.87,235.48s3.94-1.17,1.43,4.9S224,238.89,227.87,235.48Z"/><path class="cls-4" d="M90.77,240.38s2.44,1.81-3.94,3.25S86.35,239.69,90.77,240.38Z"/><path class="cls-4" d="M75.64,245.33s2.29,2.08-3,2.88S71.76,244.16,75.64,245.33Z"/><path class="cls-4" d="M84.7,245.71s1.11.69-2,1.54S82.62,245.55,84.7,245.71Z"/><path class="cls-4" d="M75.91,21.39s3,.27-.9,4.26S72.13,22.88,75.91,21.39Z"/><path class="cls-4" d="M143.37,90.77s-6.76,2.18-3.14-6.87S149.81,85.44,143.37,90.77Z"/><path class="cls-4" d="M149.71,71.87s-2.83,1.06-1.34-3.41S152.37,69.26,149.71,71.87Z"/><path class="cls-4" d="M8.13,56.27S5.31,57.33,6.8,52.86,10.79,53.66,8.13,56.27Z"/><path class="cls-4" d="M5.47,59.89s-1.44.69-.69-2.24S6.8,58.18,5.47,59.89Z"/><path class="cls-4" d="M140.07,122.18s-1.33,2-2.45-1.54S140.6,119.25,140.07,122.18Z"/><path class="cls-4" d="M223,246s-2.23.86-1.06-2.66S225.1,243.9,223,246Z"/><path class="cls-4" d="M229.2,230.37s-1.6,1.76-2.24-2.77S230.1,227.23,229.2,230.37Z"/><path class="cls-4" d="M91.83,146.25s-2.18.85-1.06-2.66S93.91,144.12,91.83,146.25Z"/><path class="cls-4" d="M89.65,134.27s-2.19.85-1.07-2.66S91.72,132.19,89.65,134.27Z"/><path class="cls-4" d="M143.69,76.5s-2,.69-1-2.29S145.61,74.74,143.69,76.5Z"/><path class="cls-4" d="M155,58.34s-2.24.86-1.07-2.71S157.11,56.27,155,58.34Z"/><path class="cls-4" d="M152.58,124.1s-.74,3.46-3.46,0S152,120.11,152.58,124.1Z"/><path class="cls-4" d="M167.17,183.52s.32,3.67-4.63.37S164.83,179.47,167.17,183.52Z"/><path class="cls-4" d="M181.55,184.1s1.06,3.84-4.9,1.28S178.3,180.27,181.55,184.1Z"/><path class="cls-4" d="M121.11,155.09s-2,2.87-3.14-1.44S122.18,151.2,121.11,155.09Z"/><path class="cls-4" d="M156.73,132.19s-.63,2.29-2.82-.74S156.31,129.26,156.73,132.19Z"/><path class="cls-4" d="M128.52,159.51s-1.18,2.07-2.56-1.39S128.83,156.58,128.52,159.51Z"/><path class="cls-4" d="M19.9,115s-1.55,1.81-2.24-1.81S20.7,112.17,19.9,115Z"/><path class="cls-4" d="M251.24,138.69s-1.92,1.38-1.76-2.29S252.73,136.13,251.24,138.69Z"/><path class="cls-4" d="M146.4,117.55s-3,4.15-4.79-2.87S147.84,111.64,146.4,117.55Z"/><path class="cls-4" d="M85.49,148.64s-6.12,1.92-2.82-6.12S91.3,143.85,85.49,148.64Z"/><path class="cls-4" d="M19,97.37s-4.84,1.6-2.23-5.11S23.63,93.38,19,97.37Z"/><path class="cls-4" d="M82,160.68s-5.06.58-1.17-5.49S87.3,157.75,82,160.68Z"/><path class="cls-4" d="M19.63,219s-3.09,4.1-4.79-2.87S21.12,213.12,19.63,219Z"/><path class="cls-4" d="M25.28,226.54s-1.39,2.13-2.77-2S25.65,223.24,25.28,226.54Z"/><path class="cls-4" d="M136.29,113.4s-2.18,3.14-3.57-1.92S137.3,109,136.29,113.4Z"/><path class="cls-4" d="M16.12,106.1s-3.09,2.08-2.61-2.77S18.57,102.59,16.12,106.1Z"/><path class="cls-4" d="M249.86,131.87s-3.09,2.08-2.56-2.77S252.31,128.31,249.86,131.87Z"/><path class="cls-4" d="M141.13,105.62s-5.27,2.93-3.62-5.91C139.06,91.51,147.79,100.51,141.13,105.62Z"/><path class="cls-4" d="M84.22,21.61S88.8,23.2,82.51,27,78.31,22.08,84.22,21.61Z"/><path class="cls-4" d="M110.15,14.15s2.34,2.29-4,2.93S105.78,12.77,110.15,14.15Z"/><path class="cls-4" d="M91.78,23.47s1.54.9-1.55,2S89.38,23.26,91.78,23.47Z"/><path class="cls-4" d="M72.13,32.41s1.76-.32.16,2.51S70.21,33.8,72.13,32.41Z"/><path class="cls-4" d="M115.58,11.49s1.06,1.38-2.19,1.28S113.45,10.42,115.58,11.49Z"/><path class="cls-4" d="M113.55,6.48s.86.91-1.86,1S111.85,5.9,113.55,6.48Z"/><path class="cls-4" d="M101.73,18.73s1,.75-1.65,1.28S99.92,18.41,101.73,18.73Z"/><path class="cls-4" d="M177.39,107.38s1.23.05-.69,2S175.69,108.13,177.39,107.38Z"/><path class="cls-4" d="M178.35,111.85s2.24.27-.27,2.67S175.69,112.6,178.35,111.85Z"/><path class="cls-4" d="M185.54,188.68s.69,2.13-2.5.91S183.68,186.61,185.54,188.68Z"/><path class="cls-4" d="M94.71,11.49s1.75,1-2.4,2.45S91.72,11.38,94.71,11.49Z"/><path class="cls-4" d="M107.22,6.8s5.54,5.65-4.47,6.34S99.07,3,107.22,6.8Z"/><path class="cls-6" d="M98.49,169.68c1.33.79,1.11,8.73-6.29,6.38C85.39,173.93,92.63,162.17,98.49,169.68Z"/><path class="cls-7" d="M94.71,168.82c2.71,0,4.41,6.07-.06,6.13C89.17,175,90.66,168.77,94.71,168.82Z"/><path class="cls-6" d="M111.85,166.85c1.33.8,1.12,8.74-6.18,6.39C99,171.11,106.05,159.35,111.85,166.85Z"/><path class="cls-7" d="M108.12,166c2.67,0,4.37,6.07-.05,6.12C102.69,172.12,104.13,166,108.12,166Z"/><path class="cls-6" d="M96.78,183.15c.59,1.27-3.83,7.34-8.36,1.7C84.32,179.63,96.36,174.25,96.78,183.15Z"/><path class="cls-7" d="M94.39,180.48c2.13,1.39.16,7-3.36,4.69C86.77,182.35,91.24,178.35,94.39,180.48Z"/><path class="cls-6" d="M99.82,196.88c-1,1.07-8.31-.58-4.79-7C98.22,183.94,107.86,192.89,99.82,196.88Z"/><path class="cls-7" d="M101.31,193.58c-.43,2.5-6.44,3-5.65-1.22C96.57,187.3,102.05,189.85,101.31,193.58Z"/><path class="cls-6" d="M110.41,200.45c.59,1.28-3.78,7.35-8.2,1.7C98.17,196.88,109.93,191.56,110.41,200.45Z"/><path class="cls-7" d="M108,197.79c2.07,1.38.16,7-3.3,4.68C100.51,199.65,104.93,195.66,108,197.79Z"/><path class="cls-6" d="M115.84,208.49c.59,1.28-3.78,7.35-8.2,1.7C103.6,205,115.36,199.65,115.84,208.49Z"/><path class="cls-7" d="M113.45,205.88c2.07,1.39.16,7-3.3,4.69C105.94,207.74,110.36,203.75,113.45,205.88Z"/><path class="cls-6" d="M116.16,219.19c-.26,1.12-6.55,2.88-6.76-2.93C109.19,210.94,120.48,213.28,116.16,219.19Z"/><path class="cls-7" d="M115.79,216.32c.8,1.91-3.57,4.58-4.85,1.38C109.45,213.87,114.73,213.44,115.79,216.32Z"/><path class="cls-6" d="M111.1,178.41c1.07,1-.53,8.25-6.81,4.79C98.49,180,107.16,170.47,111.1,178.41Z"/><path class="cls-7" d="M107.86,176.92c2.45.42,2.93,6.39-1.17,5.59C101.73,181.6,104.18,176.17,107.86,176.92Z"/><path class="cls-6" d="M114.41,187.57c1,.9-.48,7.88-6.34,4.57C102.75,189.11,110.73,180,114.41,187.57Z"/><path class="cls-7" d="M111.42,186.18c2.24.43,2.72,6.12-1.06,5.38C105.78,190.65,108,185.44,111.42,186.18Z"/><path class="cls-6" d="M121.22,195.39c1.07,1-.53,8.25-6.81,4.79C108.6,197,117.23,187.41,121.22,195.39Z"/><path class="cls-7" d="M118,193.9c2.45.43,2.93,6.39-1.17,5.59C111.85,198.59,114.3,193.16,118,193.9Z"/><path class="cls-6" d="M126.7,204.18c1.07,1-.53,8.25-6.81,4.79C114.09,205.77,122.76,196.19,126.7,204.18Z"/><path class="cls-7" d="M123.51,202.69c2.45.42,2.93,6.39-1.17,5.59C117.39,207.37,119.84,201.94,123.51,202.69Z"/><path class="cls-6" d="M128.73,214.29c1,.86-.48,7.3-6,4.21C117.6,215.68,125.21,207.27,128.73,214.29Z"/><path class="cls-7" d="M125.85,213c2.19.38,2.61,5.59-1,4.95C120.48,217.12,122.61,212.32,125.85,213Z"/><path class="cls-6" d="M128.2,223.88c1,.9-.48,7.61-6.34,4.42C116.54,225.37,124.58,216.53,128.2,223.88Z"/><path class="cls-7" d="M125.21,222.55c2.24.37,2.72,5.85-1.06,5.16C119.57,226.86,121.81,221.8,125.21,222.55Z"/><path class="cls-6" d="M116.91,224.14c.9.8-.48,7.08-5.86,4.1C106.05,225.58,113.5,217.33,116.91,224.14Z"/><path class="cls-7" d="M114.09,222.92c2.13.37,2.5,5.48-1,4.79C108.87,226.91,110.94,222.28,114.09,222.92Z"/><path class="cls-6" d="M183.25,241.5c-.21.8-3.57.69-3.09-3.67C180.53,233.83,186,238,183.25,241.5Z"/><path class="cls-7" d="M183.36,239.32c.21,1.6-2.24,2.66-2.56,0C180.37,236.07,183.09,236.92,183.36,239.32Z"/><path class="cls-6" d="M210.51,252c-.8.37-3.14-2.34.69-5.27C214.66,244.06,215.25,251.62,210.51,252Z"/><path class="cls-7" d="M212.32,250.39c-1.12,1.33-3.67.16-1.81-2.07C212.8,245.6,214.08,248.42,212.32,250.39Z"/><path class="cls-6" d="M189.11,247.94c.16,1-4.37,3.25-6.29-1.91C181.12,241.34,190.76,242.19,189.11,247.94Z"/><path class="cls-7" d="M188,245.44c1.17,1.6-1.44,4.47-3.41,1.76C182.18,243.9,186.28,242.94,188,245.44Z"/><path class="cls-6" d="M190.33,249.54c-.37-1,4.21-4,7.24.85C200.39,254.86,189.59,255.56,190.33,249.54Z"/><path class="cls-7" d="M192,251.88c-1.59-1.43.75-4.74,3.47-2.34C198.74,252.42,194.43,254.07,192,251.88Z"/><path class="cls-6" d="M207.37,251c.8.64-1.28,5.75-6.12,3.73C196.83,252.79,204.92,245.65,207.37,251Z"/><path class="cls-7" d="M204.81,250.18c2,.16,1.76,4.26-1.54,4C199.33,253.75,201.88,249.81,204.81,250.18Z"/><path class="cls-6" d="M124.89,233.46c.64,1.07-2,7.35-6.33,3.2C114.57,232.82,123.24,225.63,124.89,233.46Z"/><path class="cls-7" d="M122.61,231.6c1.86.8,1.11,6.23-2,4.84C116.85,234.79,119.84,230.32,122.61,231.6Z"/><path class="cls-6" d="M114.67,232.93c.37.9-2.55,5.59-5.32,1.76C106.79,231.17,114.51,226.49,114.67,232.93Z"/><path class="cls-7" d="M113.13,231.17c1.33.85,0,5.11-2.24,3.62C108.23,233,111.21,229.79,113.13,231.17Z"/><path class="cls-6" d="M117.17,244.11c-.53,1-5.69,2.13-4-3C114.62,236.39,122.18,239.16,117.17,244.11Z"/><path class="cls-7" d="M117.81,241.55c0,1.71-4,3.84-4,.91C113.87,239,117.92,239,117.81,241.55Z"/><path class="cls-6" d="M74.53,144.86c-.75,1-8,.86-5.7-5C71,134.64,81.61,140.34,74.53,144.86Z"/><path class="cls-7" d="M75.43,141.94c0,2.07-5.7,3.4-5.59-.11C70,137.57,75.59,138.79,75.43,141.94Z"/><path class="cls-6" d="M64.14,146.57c-.63.9-7.08.74-5-4.37C61,137.57,70.37,142.57,64.14,146.57Z"/><path class="cls-7" d="M64.94,144c0,1.87-5,3-4.9-.1C60.1,140.18,65.05,141.24,64.94,144Z"/><path class="cls-6" d="M54.29,146.57c-.69.85-7.4.69-5.27-4.16C51.05,138,60.79,142.79,54.29,146.57Z"/><path class="cls-7" d="M55.15,144.12c0,1.76-5.22,2.87-5.17-.11C50.09,140.44,55.31,141.46,55.15,144.12Z"/><path class="cls-6" d="M43.06,145.82c-1,.38-6.66-2.45-2.56-5.16C44.28,138.16,50.41,145.61,43.06,145.82Z"/><path class="cls-7" d="M44.92,144.33c-.85,1.28-5.8,0-4.36-2.13C42.31,139.65,46.31,142.41,44.92,144.33Z"/><path class="cls-6" d="M31.83,141.67c-1-.48-2-4.9,3-3.3C39.39,139.86,36.56,146.14,31.83,141.67Z"/><path class="cls-7" d="M34.33,142.31c-1.65-.11-3.68-3.57-.85-3.41C36.88,139.17,36.83,142.52,34.33,142.31Z"/><path class="cls-6" d="M21.55,131.55c.69.8,0,5.27-4,2C13.83,130.44,18.78,125.7,21.55,131.55Z"/><path class="cls-7" d="M19.47,130.06c1.55.69,2.08,4.69-.48,3.46C15.91,132,17.18,128.94,19.47,130.06Z"/><path class="cls-6" d="M28.36,135.92c.91.53,2.08,4.84-2.66,2.93C21.34,137.09,23.68,131.29,28.36,135.92Z"/><path class="cls-7" d="M26,135.12c1.6.21,3.62,3.67,1,3.3C23.73,137.94,23.57,134.69,26,135.12Z"/><path class="cls-6" d="M11.33,125.38c-.54-.8.21-4.79,3.51-1.33C17.82,127.19,13.4,131,11.33,125.38Z"/><path class="cls-7" d="M13,127c-1.28-.79-1.54-4.47.59-3.08C16.17,125.54,14.89,128.25,13,127Z"/><path class="cls-6" d="M9.68,115.47c.32-.64,3.94.64,3,4.48C11.75,123.51,6.32,117.66,9.68,115.47Z"/><path class="cls-7" d="M9.3,117.5c-.05-1.55,2.72-1.6,2.77,1C12.18,121.54,9.36,119.79,9.3,117.5Z"/><path class="cls-6" d="M133.57,138.53c.27,1.22,6.92,3.73,7-2.29C140.6,130.65,128.89,131.82,133.57,138.53Z"/><path class="cls-7" d="M133.84,135.6c-.75,1.92,3.83,5.22,5.06,2C140.44,133.68,134.9,132.67,133.84,135.6Z"/><path class="cls-6" d="M143.26,143.48c.27,1.06,6.13,3.3,6.18-2C149.49,136.56,139.16,137.57,143.26,143.48Z"/><path class="cls-7" d="M143.53,140.87c-.69,1.65,3.35,4.58,4.47,1.76C149.33,139.22,144.43,138.32,143.53,140.87Z"/><path class="cls-6" d="M152.63,147.21c.32,1.06,6.39,3.4,6.29-1.76C158.81,140.66,148.22,141.35,152.63,147.21Z"/><path class="cls-7" d="M152.79,144.65c-.63,1.6,3.62,4.53,4.69,1.86C158.76,143.27,153.7,142.2,152.79,144.65Z"/><path class="cls-6" d="M164,150.93c.74.7,6.92.27,4.26-3.72C165.79,143.59,157.48,148,164,150.93Z"/><path class="cls-7" d="M162.91,148.91c.27,1.49,5.27,2.18,4.74-.27C167.06,145.66,162.38,146.67,162.91,148.91Z"/><path class="cls-6" d="M176.22,151.2c1.07-.11,3.62-3.67-1.49-4.1C170.1,146.73,170.26,153.38,176.22,151.2Z"/><path class="cls-7" d="M173.72,150.83c1.54.53,4.63-1.87,2-2.77C172.6,147,171.38,150.08,173.72,150.83Z"/><path class="cls-6" d="M193.79,148.38c1-.32,2.93-4.85-2.23-4.21C186.76,144.7,188.25,152.05,193.79,148.38Z"/><path class="cls-7" d="M191.24,148.48c1.65.27,4.31-3,1.49-3.46C189.37,144.49,188.73,148.17,191.24,148.48Z"/><path class="cls-6" d="M205.08,136.61c-.85.43-1.86,4.31,2.71,3C212,138.32,209.5,132.78,205.08,136.61Z"/><path class="cls-7" d="M207.37,136.08c-1.55,0-3.41,3.09-.8,3C209.66,139,209.71,135.92,207.37,136.08Z"/><path class="cls-6" d="M181.55,147.74c-1,.27-2.93,4.52,2.13,4.1C188.36,151.41,187,144.38,181.55,147.74Z"/><path class="cls-7" d="M184.05,147.69c-1.6-.32-4.26,2.76-1.49,3.24C185.81,151.57,186.5,148.11,184.05,147.69Z"/><path class="cls-6" d="M197.09,142c-1,.64-2.18,5.06,3.25,2.77C205.35,142.57,202.26,136.93,197.09,142Z"/><path class="cls-7" d="M199.81,141c-1.81.32-4,4-.91,3.4C202.63,143.64,202.58,140.39,199.81,141Z"/><path class="cls-6" d="M215.41,133.52c.74-.48,1.49-4-2.5-2.29C209.23,132.83,211.63,137.46,215.41,133.52Z"/><path class="cls-7" d="M213.39,134.27c1.33-.21,2.87-3.14.63-2.72C211.26,132,211.36,134.64,213.39,134.27Z"/><path class="cls-6" d="M221.16,127.45c0-.53-3-.64-3.46,2.24C217.27,132.3,222.86,129.9,221.16,127.45Z"/><path class="cls-7" d="M220.79,128.89c.48-1-1.44-1.86-2.24-.11C217.54,130.86,220.09,130.44,220.79,128.89Z"/><path class="cls-6" d="M227.55,124.31c0-.53-2.77-1.28-3.84,1.44C222.7,128.2,228.72,127,227.55,124.31Z"/><path class="cls-7" d="M226.86,125.64c.69-.9-1-2.13-2.19-.64C223.29,126.87,225.9,127,226.86,125.64Z"/><path class="cls-6" d="M234.15,122.87c.16-.47-2.45-1.86-4.05.59C228.61,125.7,234.74,125.8,234.15,122.87Z"/><path class="cls-7" d="M233.24,124.05c.86-.75-.53-2.29-2-1.07C229.52,124.47,232,125.16,233.24,124.05Z"/><path class="cls-6" d="M7.76,110c-.11-.74,1.65-3.4,2.87.11C11.7,113.45,7.44,114.78,7.76,110Z"/><path class="cls-7" d="M8.45,111.75c-.64-1,.32-3.73,1.39-2.08C11.06,111.69,9.36,113.24,8.45,111.75Z"/><path class="cls-6" d="M10.69,98.44c0,.79-2.35,3-2.77-.7C7.44,94.28,11.91,93.8,10.69,98.44Z"/><path class="cls-7" d="M10.37,96.63c.42,1.06-1.07,3.62-1.76,1.75C7.76,96.15,9.73,94.92,10.37,96.63Z"/><path class="cls-6" d="M7.49,103.39c-.1-.8,1.87-3.36,2.88.26C11.27,107,6.91,108.13,7.49,103.39Z"/><path class="cls-7" d="M8.08,105.09c-.59-1,.53-3.73,1.49-2C10.69,105.2,8.93,106.69,8.08,105.09Z"/><path class="cls-6" d="M11.54,89.07c.48-.16,1.86,2.12-.48,3.72C8.88,94.23,8.66,88.69,11.54,89.07Z"/><path class="cls-7" d="M10.42,90c.69-.85,2.24.37,1.07,1.76C10.1,93.38,9.36,91.14,10.42,90Z"/><path class="cls-6" d="M14.47,83.05c.48-.16,1.86,2.13-.48,3.73C11.81,88.27,11.59,82.68,14.47,83.05Z"/><path class="cls-7" d="M13.35,84c.69-.85,2.24.38,1.06,1.76C13,87.36,12.28,85.18,13.35,84Z"/><path class="cls-6" d="M18.3,78.15c.43-.05,1,2.4-1.38,3.3C14.79,82.25,16.07,77.14,18.3,78.15Z"/><path class="cls-7" d="M17.13,78.74c.8-.59,1.7.9.43,1.86C16,81.77,16,79.59,17.13,78.74Z"/><path class="cls-6" d="M22.4,74.58c.43,0,.8,2.19-1.49,2.72C18.78,77.78,20.27,73.46,22.4,74.58Z"/><path class="cls-7" d="M21.28,75c.8-.43,1.65,1,.32,1.7C20,77.46,20.06,75.54,21.28,75Z"/><path class="cls-6" d="M112.76,245.81c.53.38-1.28,4.26-4.58,3.14C105.09,247.94,111.32,242.19,112.76,245.81Z"/><path class="cls-7" d="M111,245.44c1.38-.05,1,2.93-1.33,3C106.85,248.42,108.92,245.39,111,245.44Z"/><path class="cls-6" d="M106.15,243.63c.48.53-1.81,4.58-5.11,2.77C98.06,244.8,105.14,239.32,106.15,243.63Z"/><path class="cls-7" d="M104.4,242.89c1.43.15.63,3.46-1.71,3.14C99.76,245.6,102.27,242.57,104.4,242.89Z"/><path class="cls-6" d="M98.06,250.07c-.64.43-4-.32-1.33-3C99.18,244.64,102.53,248.48,98.06,250.07Z"/><path class="cls-7" d="M99.28,248.74c-.58,1.07-3.56,1.17-2.55-.58C97.9,246,100.19,247.14,99.28,248.74Z"/><path class="cls-6" d="M103.44,251.72c-.69.38-4.42-.26-1.49-2.45C104.72,247.25,108.5,250.39,103.44,251.72Z"/><path class="cls-7" d="M104.82,250.61c-.64.85-4,.95-2.87-.48C103.28,248.42,105.83,249.33,104.82,250.61Z"/><path class="cls-6" d="M96.57,253.37c-.59.22-3.3-.69-.75-2.13C98.17,249.91,100.56,252.84,96.57,253.37Z"/><path class="cls-7" d="M97.74,252.58c-.59.63-3.14.37-2.13-.7C96.89,250.66,98.7,251.67,97.74,252.58Z"/><path class="cls-6" d="M92.26,252c-.64.22-3.52-1.06-.64-2.66C94.28,247.94,96.62,251.67,92.26,252Z"/><path class="cls-7" d="M93.64,251.19c-.69.69-3.41.21-2.24-1C92.9,248.8,94.76,250.13,93.64,251.19Z"/><path class="cls-6" d="M63.66,210c.27.69-1.38,4.05-3.24,1C58.71,208.28,63.35,205.19,63.66,210Z"/><path class="cls-7" d="M62.65,208.6c.86.69.16,3.78-1.27,2.55C59.67,209.71,61.38,207.48,62.65,208.6Z"/><path class="cls-6" d="M59.35,209.87c.06.7-2.55,3.09-3.41-.16C55.15,206.73,60.47,205.56,59.35,209.87Z"/><path class="cls-7" d="M58.82,208.33c.59.91-1,3.41-2,1.86C55.68,208.33,58,207,58.82,208.33Z"/><path class="cls-6" d="M61.32,204.18c.32.37.11,3-1.86,1.49C57.7,204.28,59.94,201.14,61.32,204.18Z"/><path class="cls-7" d="M60.31,203.54c.75.26,1.07,2.45-.16,2C58.66,205,59.25,203.11,60.31,203.54Z"/><path class="cls-6" d="M57.7,204.34c.21.42-.85,2.66-2.23.74C54.19,203.33,57.33,201.2,57.7,204.34Z"/><path class="cls-7" d="M57,203.43c.64.43.21,2.45-.8,1.71C54.88,204.23,56.05,202.74,57,203.43Z"/><path class="cls-6" d="M108.6,241.87c-.69.64-4.84-.64-1.91-4.63C109.29,233.57,113.82,239.53,108.6,241.87Z"/><path class="cls-7" d="M109.88,239.8c-.59,1.59-4.15,1.7-3.19-1C107.91,235.64,110.84,237.45,109.88,239.8Z"/><path class="cls-6" d="M56.64,232.18c1.06-.26,3.51-5.27-1.6-4.9C50.3,227.6,50.73,236,56.64,232.18Z"/><path class="cls-7" d="M54.13,232.13c1.6.43,4.58-3.09,2-3.78C52.86,227.5,51.74,231.6,54.13,232.13Z"/><path class="cls-6" d="M49.71,227.82c.86-.06,3.63-4-.47-4.79C45.51,222.28,44.44,230,49.71,227.82Z"/><path class="cls-7" d="M47.74,227.23c1.18.75,4.16-1.81,2.13-3C47.53,222.81,45.93,226.22,47.74,227.23Z"/><path class="cls-6" d="M41.25,230.27c.85.21,4.68-2.67,1-4.69C38.91,223.77,35.55,230.75,41.25,230.27Z"/><path class="cls-7" d="M39.55,229.15c.9,1.06,4.47-.48,3-2.24C40.72,224.84,38.16,227.6,39.55,229.15Z"/><path class="cls-6" d="M46.84,234.26c.85.21,4.69-2.66,1-4.69C44.5,227.71,41.14,234.69,46.84,234.26Z"/><path class="cls-7" d="M45.14,233.14c.9,1.07,4.47-.48,3-2.23C46.25,228.83,43.7,231.6,45.14,233.14Z"/><path class="cls-6" d="M62.6,224.3c.59-.74-.27-5.21-3.89-2.07C55.47,225.05,60.36,230,62.6,224.3Z"/><path class="cls-7" d="M60.79,225.74c1.38-.64,1.65-4.47-.64-3.41C57.33,223.61,58.71,226.7,60.79,225.74Z"/><path class="cls-6" d="M62.92,219.3c.48.26,3-2.5.9-4.69C62,212.64,59.51,219.51,62.92,219.3Z"/><path class="cls-7" d="M62,218.13c.48,1.12,2.72-.27,1.92-2.08C63,213.81,61.27,216.48,62,218.13Z"/><path class="cls-6" d="M57.86,218.39c.59.22,3.09-3,.48-4.95C55.94,211.68,54,219.14,57.86,218.39Z"/><path class="cls-7" d="M56.64,217.33c.64,1.06,3-.69,1.91-2.45C57.22,212.75,55.57,215.78,56.64,217.33Z"/><path class="cls-6" d="M56.74,220.42c.27-.8-2.23-3.52-4.42.1C50.35,223.93,56.74,225.31,56.74,220.42Z"/><path class="cls-7" d="M55.57,222.17c1.07-1-.1-3.83-1.86-2.13C51.53,222.12,54,223.72,55.57,222.17Z"/><path class="cls-6" d="M197,112.33c.59-.58.37-4.74-2.82-2.5C191.29,111.91,194.64,117.07,197,112.33Z"/><path class="cls-7" d="M195.44,113.29c1.17-.32,1.81-3.78-.1-3.19C192.94,110.84,193.69,113.88,195.44,113.29Z"/><path class="cls-6" d="M192.46,109.94c.27-.48-.9-2.88-2.71-.91C188.09,110.84,191.82,113.24,192.46,109.94Z"/><path class="cls-7" d="M191.5,110.84c.8-.42.37-2.61-.9-1.86C189.05,109.88,190.33,111.53,191.5,110.84Z"/><path class="cls-6" d="M199.38,98c.22.85-2.18,4.21-4.1.37C193.58,94.87,199.54,92.58,199.38,98Z"/><path class="cls-7" d="M198.37,96.2c1,1-.21,4.31-1.81,2.61C194.59,96.73,196.93,94.66,198.37,96.2Z"/><path class="cls-6" d="M198.1,102.32c.64,0,2,3.68-1.22,4.9C194,108.39,194.48,100.67,198.1,102.32Z"/><path class="cls-7" d="M196.51,103.12c1-.85,2.82,1.39,1.12,2.82C195.55,107.7,195,104.35,196.51,103.12Z"/><path class="cls-6" d="M192.14,103.6c.48.05,1.28,2.77-1.22,3.3C188.68,107.38,189.64,102.06,192.14,103.6Z"/><path class="cls-7" d="M191,104c.8-.48,2,1.28.64,2.13C190,107.06,189.75,104.67,191,104Z"/><path class="cls-6" d="M192.57,101.42c-.16.64-3,1.28-2.77-2.08C190,96.25,194.75,98.22,192.57,101.42Z"/><path class="cls-7" d="M192.57,99.77c.26,1.12-1.76,2.45-2.13.53C190,98,192.25,98,192.57,99.77Z"/><ellipse class="cls-8" cx="87.78" cy="71.02" rx="6.5" ry="8.73"/><ellipse class="cls-8" cx="135.81" cy="71.02" rx="6.5" ry="8.73"/><circle cx="87.78" cy="71.02" r="5.38"/><path class="cls-8" d="M91.14,69.15a1.23,1.23,0,1,1-1.23-1.22A1.24,1.24,0,0,1,91.14,69.15Z"/><circle cx="135.7" cy="71.07" r="5.38"/><path class="cls-8" d="M139.06,69.15a1.23,1.23,0,1,1-2.45,0,1.2,1.2,0,0,1,1.22-1.22A1.24,1.24,0,0,1,139.06,69.15Z"/><path d="M80.12,61.38a.7.7,0,0,1-.32-.05.62.62,0,0,1-.22-.75c.11-.16,2.61-4.21,9.22-3.3a.57.57,0,0,1-.16,1.12c-5.86-.8-8.1,2.71-8.1,2.77A.65.65,0,0,1,80.12,61.38Z"/><path d="M143.37,61.38a.72.72,0,0,0,.32-.05.6.6,0,0,0,.21-.75c-.1-.16-2.61-4.21-9.21-3.3a.57.57,0,1,0,.16,1.12c5.86-.8,8.09,2.71,8.09,2.77A.51.51,0,0,0,143.37,61.38Z"/><path d="M112.17,89.54c-4.85,0-10.28-2.76-10.92-9a.66.66,0,0,1,.54-.7.64.64,0,0,1,.69.54c.53,5.43,5.38,7.88,9.69,7.88h.16c4.31-.06,8.84-2.51,9.21-7.88a.64.64,0,0,1,.64-.59.63.63,0,0,1,.58.64c-.42,6.12-5.69,8.94-10.43,9C112.33,89.54,112.22,89.54,112.17,89.54Z"/></svg>