<svg id="Layer_1" data-name="Layer 1" xmlns="http://www.w3.org/2000/svg" xmlns:xlink="http://www.w3.org/1999/xlink" viewBox="0 0 100 40"><defs><style>.cls-1{fill:#fff;}.cls-2{fill:url(#linear-gradient);}.cls-3{fill:url(#linear-gradient-2);}.cls-4{fill:#030303;}.cls-5{fill:#fcfdff;}.cls-6{fill:#422f2a;}</style><linearGradient id="linear-gradient" x1="-103.74" y1="167.95" x2="-107.71" y2="204.74" gradientTransform="translate(127.52 -158.97)" gradientUnits="userSpaceOnUse"><stop offset="0" stop-color="#4a240d"/><stop offset="0.64" stop-color="#9b6a33"/></linearGradient><linearGradient id="linear-gradient-2" x1="-47.3" y1="174.3" x2="-51.26" y2="211.09" gradientTransform="translate(127.81 -162.47)" xlink:href="#linear-gradient"/></defs><path class="cls-1" d="M6.55,27.2S6.22,21.8,12.18,13c3-4.36,7.54-6.61,11.84-5.79,5.61,1.06,8.43,8.18,10.27,12.82a12.75,12.75,0,0,1,.83,3.29,11.22,11.22,0,0,1-.36,4.27c-1.47,4.4-10.52,5.21-11.2,5.26C15.45,33.53,9.1,29.19,6.55,27.2Z"/><path class="cls-1" d="M64.83,28.62s-.34-5.39,5.62-14.16c3-4.37,7.54-6.62,11.84-5.8,5.61,1.07,8.43,8.18,10.27,12.83a12,12,0,0,1,.83,3.28A11,11,0,0,1,93,29c-1.47,4.41-10.51,5.21-11.2,5.27C73.73,35,67.38,30.61,64.83,28.62Z"/><ellipse class="cls-2" cx="22.31" cy="22.64" rx="8.26" ry="8.99" transform="translate(-1.36 1.42) rotate(-3.54)"/><ellipse class="cls-3" cx="79.04" cy="25.5" rx="8.26" ry="8.99" transform="translate(-1.43 4.93) rotate(-3.54)"/><ellipse class="cls-4" cx="22.37" cy="23.59" rx="4.93" ry="4.47" transform="translate(-1.42 1.43) rotate(-3.54)"/><ellipse class="cls-4" cx="79.55" cy="26.32" rx="4.93" ry="4.47" transform="translate(-1.47 4.97) rotate(-3.54)"/><ellipse class="cls-1" cx="76.56" cy="22.47" rx="2.28" ry="2.24" transform="translate(-1.24 4.78) rotate(-3.54)"/><ellipse class="cls-5" cx="18.98" cy="20.86" rx="2.17" ry="1.88" transform="translate(-1.25 1.21) rotate(-3.54)"/><path class="cls-6" d="M64.38,26.29a38.62,38.62,0,0,1,4-11.7,22.61,22.61,0,0,1,3.85-5.16,11.47,11.47,0,0,1,6-3.27,9.43,9.43,0,0,1,6.84,1.57,15.63,15.63,0,0,1,4.48,4.85A24.71,24.71,0,0,1,93,24.52,39.31,39.31,0,0,0,87.57,14a15.16,15.16,0,0,0-4-3.73,6.93,6.93,0,0,0-4.76-1,9.29,9.29,0,0,0-4.55,2.37,25.19,25.19,0,0,0-3.79,4.27A100.3,100.3,0,0,0,64.38,26.29Z"/><path class="cls-6" d="M9.26,19.67A19.86,19.86,0,0,1,12.39,9.19a12.15,12.15,0,0,1,4.32-4,10.13,10.13,0,0,1,6-1.15,11.87,11.87,0,0,1,5.56,2.24,15,15,0,0,1,3.92,4.23A19.07,19.07,0,0,1,35.08,21a30.08,30.08,0,0,0-4.85-9.11c-2.13-2.52-4.91-4.46-7.88-4.8A8,8,0,0,0,18,7.82a11.79,11.79,0,0,0-3.71,2.85A32.07,32.07,0,0,0,9.26,19.67Z"/></svg>