<svg id="Layer_1" data-name="Layer 1" xmlns="http://www.w3.org/2000/svg" viewBox="0 0 170 70"><defs><style>.cls-1{fill:#aa9579;}.cls-2{fill:#d3bca3;}.cls-3{fill:#e2cfb7;}.cls-4{fill:#2b2a2a;}.cls-5{fill:#3a3a3a;}.cls-6{fill:#4f4f4f;}</style></defs><path class="cls-1" d="M82.42,63.24h0A15.9,15.9,0,0,0,97.68,65,7.57,7.57,0,0,0,98,63.93a18.75,18.75,0,0,1-1.91.54c-4.15,1-8.77.39-12-2.62a8.59,8.59,0,0,1-1.55-1.94,9.14,9.14,0,0,1-1.74,1.78c-3.49,2.66-8.15,2.78-12.18,1.39-.62-.21-1.24-.45-1.84-.72a7.84,7.84,0,0,0,.23,1.07A15.91,15.91,0,0,0,82.42,63.24Z"/><path class="cls-2" d="M160.71,14.35a25,25,0,0,1-6.34,3.18,11.71,11.71,0,0,0,.67-1.79c.4-1.42-.36-5.22-.65-4.89a16.33,16.33,0,0,1-6.64,4.23l-.6.22c-2.24.79-4.54,1.37-6.81,2,1.07-1.53,2.23-3,3.44-4.43.37-.43-7.49.59-11.17,1.78a2,2,0,0,1-.31.11h0a27.63,27.63,0,0,0-7.92,4c.24-2.66,3.31-2.72,2.7-2.69-6.3.35-14.33,2.71-18.28,4.87-2.78,1.52-4.91,4-6.91,6.44a41.5,41.5,0,0,0-5,8.55A23,23,0,0,1,95,39.15l-.09.14c1.13.41-23.71-.85-22.54-1.14L72.31,38a23.29,23.29,0,0,1-1.47-3.35,41.6,41.6,0,0,0-4.16-9c-1.74-2.64-3.58-5.37-6.22-7.11-3.62-2.37-11-6.26-17.19-7.24-.6-.09,1.93.83,1.9,3.5A27.5,27.5,0,0,0,37.7,10h0a1.78,1.78,0,0,1-.3-.14C33.84,8.32,26.13,6.51,26.45,7c1.06,1.54,2.06,3.13,3,4.76C27.23,10.83,25,10,22.86,9l-.58-.28a16.27,16.27,0,0,1-6.17-4.87c-.26-.36-1.4,3.34-1.15,4.8a10.87,10.87,0,0,0,.49,1.84,24.89,24.89,0,0,1-6-3.8c-.24-.21-.4,3.83-.16,5.62.81,6.07,1.93,14.36,9,13.89a20.2,20.2,0,0,1-4.82-1.89c-.33-.16,1.88,9.69,14.22,12.82-.95.54-5.69.76-5.69.76s3.25,3,9.82,3.63a43.78,43.78,0,0,0,7.15,0c5.38-.33,10.86-.87,15.58,1.68a8.89,8.89,0,0,0-6.87.53,13.72,13.72,0,0,1,8.34,4l-.06.13,0,.06,2.55,3.9c0-.14,0-.28.07-.44.23.38.45.77.66,1.15l-.16.16L64.52,61a13.57,13.57,0,0,0,2.31,1.33c.6.27,1.22.51,1.84.72,4,1.39,8.69,1.27,12.18-1.39a9.14,9.14,0,0,0,1.74-1.78,8.59,8.59,0,0,0,1.55,1.94c3.2,3,7.82,3.6,12,2.62A18.75,18.75,0,0,0,98,63.93a11.33,11.33,0,0,0,3.85-2.08,14.54,14.54,0,0,0,3.26-4.6A32.43,32.43,0,0,1,110,50.68c2.25-2.26,6-3.31,8.91-3.34a8.9,8.9,0,0,0-6.78-1.23,19.23,19.23,0,0,1,9.37-1c4.47.44,9,1.67,13.41,1.66a23.12,23.12,0,0,0,3.61-.28,15.86,15.86,0,0,0,6.52-2.35s-4.69-.69-5.58-1.33c12.59-1.87,15.79-11.44,15.44-11.31a20.61,20.61,0,0,1-5,1.39c5-3,8.95-6.95,10.37-12.91C160.72,18.2,161,14.17,160.71,14.35Z"/><path class="cls-3" d="M96.6,44c-1.74,2.19-6.93,6-7.75,6.39s-1.92,1-2.89,1.43c-.5.22-1,.44-1.5.64a3.4,3.4,0,0,1-1.52.46,3.49,3.49,0,0,1-1.47-.61L80,51.54q-1.38-.81-2.73-1.71c-.77-.51-5.55-4.78-7.06-7.15a2.89,2.89,0,0,1-.44-.92,3.85,3.85,0,0,1-.09-1.27c-.88-1.31-1.67-2.7-2.42-4a40.39,40.39,0,0,0-6.74-8.77,25.77,25.77,0,0,0-4.36-3.37,7,7,0,0,1,1.08,4.47C55.07,25.4,47.2,21.54,47.45,22a9.34,9.34,0,0,1,1.3,4.21,26.84,26.84,0,0,0-5.88-4.5,33.17,33.17,0,0,0-4-1.87c-1.37-.55-7-2.25-6.48-1.91,1.9,1.27,1.95,3.12,2.66,4.28a55.09,55.09,0,0,1-6.71-1.87c-1.42-.49-2.81-1-4.18-1.65a44.53,44.53,0,0,1-4.23-2.05c-.52-.31,4.66,9.12,9.23,10.9-1.38.19-5.48,1-6.85.71-.74-.15,5.57,4.07,11.55,4.88a45.1,45.1,0,0,0,5.56.43c.79,0,1.58,0,2.36.07-1.74.48-5,3.48-4.48,3.44,8.23-.61,17.74-.93,24.19,5.16a13.94,13.94,0,0,1,2.65,3.33,13.54,13.54,0,0,0-7.29-.9c-.55.09,2.34,2.56,7.76,13,1.45,2.8,6.92,3.9,10.05,3.59a9.64,9.64,0,0,0,7.43-4.77,11.06,11.06,0,0,0,.7-1.52l.06-.09.06.1A9.56,9.56,0,0,0,90.35,62c3.08.63,8.64.08,10.36-2.55,6.45-9.86,9.57-12,9-12.16a13.55,13.55,0,0,0-7.34.15,14.5,14.5,0,0,1,3-3c7-5.4,16.47-4.13,24.59-2.69.52.09-2.42-3.23-4.11-3.87.79,0,1.57.08,2.36.16a43.09,43.09,0,0,0,5.57.13c6-.2,12.73-3.76,12-3.68-1.39.14-5.39-1.08-6.74-1.4,4.73-1.32,10.83-10.17,10.28-9.92a45.59,45.59,0,0,1-4.41,1.62c-1.43.47-2.87.87-4.33,1.22a54.62,54.62,0,0,1-6.86,1.18c.82-1.08,1.06-2.92,3.08-4,.54-.29-5.22.84-6.64,1.25A34.43,34.43,0,0,0,126,25.88a27,27,0,0,0-6.31,3.89,9.56,9.56,0,0,1,1.72-4.06c.3-.41-7.92,2.64-10.46,5.79a6.9,6.9,0,0,1,1.52-4.33,25.34,25.34,0,0,0-4.68,2.9,40.53,40.53,0,0,0-7.59,8c-.88,1.25-1.8,2.55-2.81,3.77a4.28,4.28,0,0,1-.22,1.26A3,3,0,0,1,96.6,44Z"/><path class="cls-4" d="M80,51.54l1.43.79a3.49,3.49,0,0,0,1.47.61,3.4,3.4,0,0,0,1.52-.46c.5-.2,1-.42,1.5-.64,1-.44,1.94-.92,2.89-1.43s6-4.2,7.75-6.39l0-.1c1.12-1.2.13-3.21-3.33-2.15a10.94,10.94,0,0,0-5.3,3.5,19.27,19.27,0,0,0-1.72,2.61,4.21,4.21,0,0,1-2.1,2,2.68,2.68,0,0,1-1.1.17A2.73,2.73,0,0,1,82,49.81a4.21,4.21,0,0,1-1.88-2.24,19.74,19.74,0,0,0-1.45-2.77,11,11,0,0,0-4.92-4c-3.34-1.4-4.52.5-3.53,1.8,0,0,0,.07,0,.1,1.51,2.37,6.29,6.64,7.06,7.15S79.12,51,80,51.54Z"/><path class="cls-5" d="M88.65,38.38c-3.06-.23-6.86-.42-9.92-.51a37.92,37.92,0,0,0-5.41.06l-.93.22c-1.17.29-2.5.79-2.67,2.34a3.85,3.85,0,0,0,.09,1.27,2.89,2.89,0,0,0,.44.92s0-.06,0-.1c-1-1.3.19-3.2,3.53-1.8a11,11,0,0,1,4.92,4,19.74,19.74,0,0,1,1.45,2.77A4.21,4.21,0,0,0,82,49.81a2.73,2.73,0,0,0,1.07.28,2.68,2.68,0,0,0,1.1-.17,4.21,4.21,0,0,0,2.1-2A19.27,19.27,0,0,1,88,45.27a10.94,10.94,0,0,1,5.3-3.5c3.46-1.06,4.45.95,3.33,2.15l0,.1a3,3,0,0,0,.53-.87,4.28,4.28,0,0,0,.22-1.26c0-1.56-1.29-2.19-2.42-2.6L94,39A36.23,36.23,0,0,0,88.65,38.38Zm-5.13,3c-4-.2-7.18-.91-7.15-1.57s3.29-1,7.28-.85,7.18.91,7.15,1.58S87.51,41.59,83.52,41.39Z"/><path class="cls-6" d="M83.65,39c-4-.2-7.24.18-7.28.85s3.17,1.37,7.15,1.57,7.24-.18,7.28-.84S87.63,39.17,83.65,39Z"/></svg>