<svg id="Layer_1" data-name="Layer 1" xmlns="http://www.w3.org/2000/svg" viewBox="0 0 256 300"><defs><style>.cls-1{fill:#381500;}.cls-2{fill:#323232;opacity:0.4;}.cls-3{fill:#e56e43;}.cls-3,.cls-5{stroke:#a54325;}.cls-14,.cls-15,.cls-16,.cls-3,.cls-5,.cls-8{stroke-miterlimit:10;}.cls-4,.cls-5{fill:#c9522d;}.cls-6{fill:#ea9962;}.cls-7{fill:#cc5733;}.cls-8{fill:#603e3d;stroke:#311;}.cls-9{fill:#ab362d;}.cls-10{fill:#fff;}.cls-11{fill:#752917;}.cls-12{fill:#261708;}.cls-13{fill:#3c1317;}.cls-14{fill:#ab2522;stroke:#420f0f;}.cls-15,.cls-16{fill:#93312e;}.cls-15{stroke:#541515;}.cls-16{stroke:#4c1212;}.cls-17{fill:#591212;}.cls-18{fill:#e7c298;}</style></defs><path class="cls-1" d="M168.49,267.84c2.16-.5,7.56-2,9.18-4l-1.08-7h-6.14l-1.79,4.4C168.79,262.87,168.49,267.84,168.49,267.84Z"/><path class="cls-1" d="M195.78,276.49c2.16-.5,8.1-3.58,9.72-5.68L203.85,263h-6.14l-1.78,4.4C196.06,269,195.78,276.49,195.78,276.49Z"/><path class="cls-1" d="M115,289.45c2.16-.46,9.45-2.08,11.07-4.05l-1-7.95H118.9l-2.81,4.2C116.22,283.18,115,289.45,115,289.45Z"/><path class="cls-1" d="M88.51,287.83c2.16-.46,8.79-4.18,10.41-6.14l.18-4.24H93l-4.18,3.09C88.91,282.06,88.51,287.83,88.51,287.83Z"/><ellipse class="cls-2" cx="146.87" cy="280.4" rx="68.9" ry="18.24"/><path class="cls-3" d="M186.44,136.63c8.72-2.41,12.18-7.44,13.19-16.23,4.81,5.13,3.84,9.17,1.65,12.86,1-.13,2.89-1.46,3.86-2.25.13,4.56-2.48,6.87-6.16,7.78-3.54,1.39-7.55.9-10.61,1.1Z"/><path class="cls-4" d="M188.33,138.78l-1.89-2.15c8.71-2.41,12.18-7.44,13.19-16.23C204.76,131.32,194.13,139.06,188.33,138.78Z"/><path class="cls-5" d="M179.39,206.43a25.85,25.85,0,0,1-5.95-10.22c-1.3-9.14,2.08-31.8-.06-47.49l-33.91,13.7c1.07,21.28,8.23,34,21.64,42.56l10.79,7.38a3.3,3.3,0,0,1,1.4,3l-2.85,41.49h6.1l4.1-46.81A4.6,4.6,0,0,0,179.39,206.43Z"/><path class="cls-3" d="M192.47,140.51h0c-19.36-17-46.26,9.61-60.58,1.13-12-7.94-18.32-38.4-16.62-57.21l-22.92-2.9a617.68,617.68,0,0,1-8.39,81.54c-5.27,23.33,13.35,44.89,34.95,40.14h0c21.06-4.93,34.35-13.67,62.65-20.94,8.17-2.1,18-11.05,19.27-20.57A23.2,23.2,0,0,0,192.47,140.51Z"/><path class="cls-5" d="M85.82,151c-2.32,14.25-5.45,30.73-1.59,40.52,6.87,12.69,11.41,25.75,11.41,39.84V269.9L93,277.45h6.14l2.69-7.55V231.39a75.31,75.31,0,0,1,11.41-39.84l1.65-2.65Z"/><path class="cls-6" d="M177.81,170.31c-26.28,7.11-41.3,22.8-61,20.54-15.76-9.94-4.7-66.35-5.32-87.39-.15-5-11.39-21.43-14.93.54-1.27,7.91-8.44,44.72-8.95,65.74-.44,20.31,11.9,37.7,31.23,33.45h0c20-4.68,33-12.78,58.44-19.81Z"/><path class="cls-3" d="M166.74,168.54c1.07,21.28,8.23,34,21.64,42.56l10.79,7.38a3.34,3.34,0,0,1,1.4,3L197.71,263h6.11l4.1-46.81a4.6,4.6,0,0,0-1.26-3.6,25.61,25.61,0,0,1-5.95-10.22c-1.3-9.13,2.08-31.8-.07-47.49"/><path class="cls-7" d="M201,216.73c-2.87-2.94-16.69-9.64-24.48-20.94-5.58-8.11-8.61-21.29-9.79-27.25,1.07,21.28,8.23,34,21.64,42.56l10.79,7.38a3.34,3.34,0,0,1,1.4,3L198.19,256c2.79-13.77,4.08-35.65,4.08-35.65A4.63,4.63,0,0,0,201,216.73Z"/><path class="cls-3" d="M114.84,168.31c-1.4,29.36,6.27,32,6.27,48.76l.47,52.83-2.68,7.55H125l2.69-7.55,1.68-55.28c.4-10.3,12.61-25.77,12.61-43.11"/><path class="cls-7" d="M114.84,168.31c-1.4,29.36,6.27,32,6.27,48.76l.41,46.21s3.45-32,1.52-52C119.87,195.94,116,186.79,114.84,168.31Z"/><path class="cls-8" d="M106.13,54.85a10.21,10.21,0,0,1,3.61-7.92s-4.45-6.48-2.89-13.44c0,0-5.76-3.25-6.84-12.73,0,0,4.92,10.2,8,10s.48-11.4-3.6-13.32,10.21-2.64,5.89,15.49c0,0-2.29,7.32,2.16,10.68,0,0,5.76-2.52,9.24-4.32s10.08-6.84,7.92-12.85a14.59,14.59,0,0,0-7.32-8.16s-10-3.48-6.72-16.09c0,0,.36.6,1.32,6.49s7.2,6.84,7.2,6.84.72-8.52-2.52-12.61,6,0,5,13.21c0,0,7.68,5.76,7,13.68,0,0,7.21-1.08,9.61-5.4,0,0-5.4-6.48-1-17.88,0,0,.48-.48.48,6.6s3.48,8.16,3.48,8.16,4.68-7,11.88-6.36c0,0,1.68-.12-4.44,3.24s-4.8,13.21-21,16.33c0,0-2.64,6.24-13.32,10.68s-4.56,19.57-4.56,19.57Z"/><path class="cls-8" d="M89.05,54.49a11.57,11.57,0,0,0-3.31-7.78s3.31-6.65,1.71-13.54c0,0,4.53-3.46,5-13,0,0-3.52,10.39-6.07,10.27S85.4,19.09,88.63,17s-8.43-2.24-4,15.69c0,0,2.2,7.23-1.25,10.76,0,0-4.81-2.29-7.73-4S67.07,33.06,68.55,27a13.58,13.58,0,0,1,5.57-8.44s7.94-3.86,4.7-16.33c0,0-.26.62-.76,6.53a7.78,7.78,0,0,1-5.54,7.11S71.53,7.37,74,3.17s-4.88.23-3.47,13.38c0,0-6,6.06-5,13.94,0,0-5.91-.8-8.07-5,0,0,4.09-6.69-.07-17.9,0,0-.42-.46-.08,6.61s-2.44,8.29-2.44,8.29-4.14-6.77-10-5.89c0,0-1.37-.06,3.77,3.06s4.54,13,17.88,15.49c0,0,2.45,6.13,11.35,10.16s4.65,19.36,4.65,19.36Z"/><path class="cls-3" d="M114.48,57.68s4.23-.64,9.18-9.64,13.42-14,27.55-7.65,5.22,7.65,2.43,10.89S144.91,58.58,140,67s-20.17-1.08-20.17-1.08Z"/><path class="cls-9" d="M121.41,61s2.07-13,10-17.74,19-2.07,23.59.81-15.48-4.32-20.8,3.15-5.85,13.06,1.72,16S125.55,68,121.41,61Z"/><path class="cls-3" d="M83.51,63s-4.12-.63-8.93-9.64-13-14-26.79-7.65-5.08,7.65-2.37,10.89,8.5,7.3,13.31,15.67,19.61-1.08,19.61-1.08Z"/><path class="cls-9" d="M76.76,66.29s-2-13-9.71-17.74-18.47-2.07-22.94.81S59.17,45,64.33,52.51s5.69,13.06-1.66,16S72.74,73.31,76.76,66.29Z"/><path class="cls-3" d="M126.18,82.94c0,6.19-4.8,7.45-8,10a24.13,24.13,0,0,0-6.48,7.44c-2,4.32-7.76,4.53-11.65,1.08-2.9-2.57-6.28-3-9.48-4.2-10.33-3.84-14-7.77-14-17,0-3,1.73-6.89,2.76-9.84C80.83,65.8,81.73,60,84.89,57.86c3.63-2.44,7.5-.85,13.2-.85,4.2,0,4.2-4.32,11.65-3,5.63,1,10.74,7.55,11.88,14.41C122.94,76.34,126.18,79.42,126.18,82.94Z"/><path class="cls-10" d="M120.9,70a7.75,7.75,0,0,1-6.38,7.92c-3,.49-4.87-.23-5.4-3.6-.43-2.76.11-7,4.76-8.64C116.71,64.63,120.9,66.57,120.9,70Z"/><path class="cls-11" d="M121,70a9.41,9.41,0,0,1-1.24,4.7A7.57,7.57,0,0,1,116,78a9.43,9.43,0,0,1-2.49.65,5.11,5.11,0,0,1-2.77-.33,4,4,0,0,1-2-2.16,9,9,0,0,1-.6-2.63,8.6,8.6,0,0,1,1.19-5.15,7.55,7.55,0,0,1,4.18-3.09,6,6,0,0,1,4.94.66A4.71,4.71,0,0,1,121,70Zm-.1,0a4.38,4.38,0,0,0-2.51-3.81,5.56,5.56,0,0,0-4.64-.36,7,7,0,0,0-3.63,3,8.85,8.85,0,0,0-.45,7,3.2,3.2,0,0,0,1.51,1.76,4.58,4.58,0,0,0,2.32.39,9,9,0,0,0,2.36-.46,7.17,7.17,0,0,0,3.71-2.93A8.72,8.72,0,0,0,120.85,70Z"/><ellipse class="cls-12" cx="113.75" cy="71.9" rx="4.34" ry="4.86"/><ellipse class="cls-10" cx="116.45" cy="70.25" rx="1.13" ry="1.44"/><path class="cls-10" d="M81.16,73.1c0,3.42,2.4,7.2,7.46,7.92,3.45.5,5.7-.23,6.31-3.6.51-2.76-.12-7-5.55-8.64C86.06,67.75,81.16,69.69,81.16,73.1Z"/><path class="cls-11" d="M81.21,73.1A7.29,7.29,0,0,0,83,77.85a8,8,0,0,0,4.37,2.43,8.82,8.82,0,0,0,4.78-.18c1.31-.53,1.83-2,2-3.6a6.7,6.7,0,0,0-1.06-4.42,7.93,7.93,0,0,0-3.86-2.85,7.22,7.22,0,0,0-4.93.11,5.58,5.58,0,0,0-2.13,1.42A3.58,3.58,0,0,0,81.21,73.1Zm-.1,0a3.73,3.73,0,0,1,1-2.43,6,6,0,0,1,2.14-1.54,7.7,7.7,0,0,1,5.2-.42,8.64,8.64,0,0,1,4.38,2.84,7.26,7.26,0,0,1,1.36,5,6.89,6.89,0,0,1-.67,2.56,4.07,4.07,0,0,1-.82,1.07,4,4,0,0,1-1.15.69,6.71,6.71,0,0,1-2.63.32,12.15,12.15,0,0,1-2.61-.42A8.52,8.52,0,0,1,82.86,78,7.81,7.81,0,0,1,81.11,73.1Z"/><ellipse class="cls-12" cx="87.76" cy="74.03" rx="4.48" ry="4.86"/><ellipse class="cls-10" cx="90.57" cy="72.56" rx="1.33" ry="1.44"/><path class="cls-13" d="M109.62,64.16s4-4.77,8.1-2.25C117.72,61.91,111,54.88,109.62,64.16Z"/><path class="cls-13" d="M93,67.31s-4.89-4.77-10-2.25C83,65.06,91.29,58,93,67.31Z"/><path class="cls-14" d="M97.82,95.22s3.42,4.77,6.93,5.94,5.41-1.89,5.14-5Z"/><path class="cls-15" d="M104.75,95s-2.88,2.52-9.81-1.53a16.71,16.71,0,0,0,15.49,2.88s4.86-3,6.57-6.57a8.94,8.94,0,0,1-5.76,4.41A23.38,23.38,0,0,1,104.75,95Z"/><path class="cls-16" d="M100.7,95.49s5.85.54,4-2.88-2.16,0-3.87-3.33c0,0-.27-4.68,6.48-4.32s.36.18.36.18,6.94-1,7.12,3.6-2,5.67-2,5.67"/><path class="cls-17" d="M103.13,88.36a2.21,2.21,0,0,1,3.24,1.28C107.27,92.14,103.13,88.36,103.13,88.36Z"/><path class="cls-17" d="M113.94,89s-1.12-1-1.63,1.54S113.94,89,113.94,89Z"/><ellipse class="cls-18" cx="145.02" cy="147.42" rx="5.44" ry="1.62" transform="translate(-15.28 16.78) rotate(-6.29)"/><ellipse class="cls-18" cx="146.73" cy="166.33" rx="5.44" ry="1.62" transform="translate(-17.34 17.08) rotate(-6.29)"/><ellipse class="cls-18" cx="158.26" cy="156.06" rx="5.44" ry="1.62" transform="translate(-16.15 18.28) rotate(-6.29)"/><ellipse class="cls-18" cx="132.95" cy="158.32" rx="5.44" ry="1.62" transform="translate(-16.55 15.52) rotate(-6.29)"/><ellipse class="cls-18" cx="127.82" cy="173.94" rx="5.44" ry="1.62" transform="translate(-18.29 15.05) rotate(-6.29)"/><ellipse class="cls-18" cx="116.83" cy="150.75" rx="1.62" ry="5.44" transform="translate(-73.46 163.66) rotate(-56.11)"/><ellipse class="cls-18" cx="177.35" cy="151.92" rx="5.44" ry="1.62" transform="translate(-15.58 20.35) rotate(-6.29)"/><ellipse class="cls-18" cx="192.12" cy="151.02" rx="5.44" ry="1.62" transform="translate(-15.39 21.96) rotate(-6.29)"/><ellipse class="cls-18" cx="125.83" cy="143.46" rx="1.62" ry="5.44" transform="translate(-63.32 168.68) rotate(-56.34)"/><ellipse class="cls-18" cx="116.83" cy="126.16" rx="1.62" ry="5.44" transform="translate(-49.58 82.87) rotate(-32.62)"/><ellipse class="cls-18" cx="163.93" cy="142.91" rx="5.44" ry="1.62" transform="translate(-14.67 18.82) rotate(-6.29)"/><ellipse class="cls-18" cx="169.7" cy="163.99" rx="5.44" ry="1.62" transform="translate(-16.95 19.58) rotate(-6.29)"/><ellipse class="cls-18" cx="179.51" cy="140.48" rx="5.44" ry="1.62"/><ellipse class="cls-18" cx="188.61" cy="161.56" rx="5.44" ry="1.62"/><path class="cls-3" d="M94.27,90.05s1.44,2.88-2.16,3.78"/><path class="cls-3" d="M116.25,87.07s-.9,4.06,2.34,3.25"/></svg>