<svg xmlns="http://www.w3.org/2000/svg" viewBox="0 0 90 50"><defs><style>.cls-1{isolation:isolate;}.cls-2{fill:#0f3f54;}.cls-3{fill:#cbcbcb;}.cls-4{fill:#d6d6d6;mix-blend-mode:screen;}.cls-5{fill:#01568c;}.cls-6{fill:#1d4959;}</style></defs><g class="cls-1"><g id="Layer_1" data-name="Layer 1"><path class="cls-2" d="M2.75,33.36c9.38,7,26.48,13.39,48.09,10S71.62,23,87.25,16.87C66.62-3.84,6,5.79,2.75,33.36Z"/><path class="cls-3" d="M60.3,28.21c0,7.3-6.7,13.21-15,13.21s-15-5.91-15-13.21S37.06,15,45.33,15,60.3,20.92,60.3,28.21Z"/><path d="M53.8,28c0,4.06-3.88,7.35-8.67,7.35S36.46,32.08,36.46,28s3.88-7.35,8.67-7.35S53.8,24,53.8,28Z"/><ellipse class="cls-4" cx="41.03" cy="24.67" rx="3.26" ry="3.13"/><path class="cls-4" d="M50.84,31.43a1.63,1.63,0,1,1-1.63-1.56A1.6,1.6,0,0,1,50.84,31.43Z"/><path class="cls-5" d="M2.75,34.35c9.38,7,27.07,11.13,48.68,7.72s21.3-22.36,35.82-24.21C66.62-2.85,6,6.79,2.75,34.35Z"/><path class="cls-6" d="M2.75,35.4c9.38,7,25.75,8.49,47.36,5.08S72.73,20.76,87.25,18.91C66.62-1.79,6,7.84,2.75,35.4Z"/></g></g></svg>