<svg id="Layer_1" data-name="Layer 1" xmlns="http://www.w3.org/2000/svg" viewBox="0 0 256 256"><defs><style>.cls-1{fill:#323232;opacity:0.4;}.cls-2{fill:#51290f;}.cls-17,.cls-3{fill:#e5b798;}.cls-3{stroke:#6d1f0c;stroke-miterlimit:10;}.cls-4{fill:#231c1c;}.cls-5{fill:#723a1a;}.cls-6{fill:#3f1e0e;}.cls-7{fill:#bf8e6d;}.cls-8{fill:#3d3232;}.cls-9{fill:#280d02;}.cls-10{fill:#281a10;}.cls-11{fill:#1e130b;}.cls-12{fill:#4f280e;}.cls-13{fill:#fcf9f7;}.cls-14{fill:#3a1e0f;}.cls-15{fill:#2d1c15;}.cls-16{fill:#f9f4f2;}.cls-18{fill:#6d1f0c;}</style></defs><ellipse class="cls-1" cx="122.22" cy="226.91" rx="72.65" ry="19.28"/><path class="cls-2" d="M81.54,28.36S69.09,38.42,68.19,43.3s-5.28,24.6-4.78,29.78,7.73,22.31,9,27.39,6.6,21.57,7.09,25.15c-5.07-1.59-22.15-24.87-22.9-37.1-.63,1.1-1.8,6.82-1.82,9.8-3-2-3.61-23.35-2.77-26.53-.65,1.29-4.47,8.42-5.18,10.26-5-11.86,14.75-46.62,20.12-52.2S81.54,28.36,81.54,28.36Z"/><path class="cls-3" d="M78.85,26.92S77.15,13.12,74.76,10c4-1.54,14,5.52,12.55,12.13C86.1,27.79,78.85,26.92,78.85,26.92Z"/><path class="cls-4" d="M131,196.71s-9.15,13.12-4.74,14.35,13.55-1.35,14.71-4.49,1.42-8.44.53-10.16S131,196.71,131,196.71Z"/><path class="cls-3" d="M153.73,143.63s-4.86,13.07-4.19,17c.5,2.89,2.84,5.38,2.62,8.21-.42,5.3-9,20.7-8.82,22.27s1,7.77-2.39,9.78-14.11,4.5-13.15-.6c1.13-5.9,9-11.05,10.84-18.3,1.53-6.17,2.84-15-.6-18.15-2.19-2-10.38-8.89-13.07-10.09S153.73,143.63,153.73,143.63Z"/><path class="cls-4" d="M80.32,215.57s7.6,8.89,10.42,2.91c1.4-3-1.13-18.35-10.35-16.86C80.09,204.11,80.32,215.57,80.32,215.57Z"/><path class="cls-3" d="M73.87,117.11s-8.67,34.81-9.71,38S52.5,172.54,54.29,176,66,186.29,66.7,189.27,71,210.9,73.27,212.19s7.77,5.17,9.41,5.32,5.08-15.69-2.09-17.33c.45-1.05,1.79-6.8-8.52-11.65,0-2.84-2.78-10.41-5.47-11.76.89-1,.69-1.59.2-2.64,2-.2,19.66-15.68,20.22-22.81C87.39,146.5,73.87,117.11,73.87,117.11Z"/><path class="cls-2" d="M164.48,103.66s11.68-10,21.54-10.28,24.4,11.35,23.91,26.1a4.32,4.32,0,0,0-2.79-2.54c.47,1,2.19,8,1.59,11.9-.39,2.55-2.49,10.51-2.39,11.88-1-2.22-1.59-4.11-3-4.61-.7,3.59-.6,10.76.6,14.44-1.3-.79-2.69-2.29-3.29-2.09.07,6.62,3.79,12.75,7,14.56-2.54.59-11.13-5-12.29-7.32a20.07,20.07,0,0,0,.79,5.67c-3.33,0-10.16-11.76-9.64-17.89a6.68,6.68,0,0,0-2.24,3.29c-2.69-2.54-.25-17.93,2.61-21.74-1,.75-2.31,2.35-2.65,2.54,1.55-5.08,2.8-13.18,2-16.18-.67-2.46-4.33-8-13.15-3.37S164.48,103.66,164.48,103.66Z"/><path class="cls-2" d="M164.48,103.66s11.68-10,21.54-10.28,24.4,11.35,23.91,26.1a4.32,4.32,0,0,0-2.79-2.54c.47,1,2.19,8,1.59,11.9-.39,2.55-2.49,10.51-2.39,11.88-1-2.22-1.59-4.11-3-4.61-.7,3.59-.6,10.76.6,14.44-1.3-.79-2.69-2.29-3.29-2.09.07,6.62,3.79,12.75,7,14.56-2.54.59-11.13-5-12.29-7.32a20.07,20.07,0,0,0,.79,5.67c-3.33,0-10.16-11.76-9.64-17.89a6.68,6.68,0,0,0-2.24,3.29c-2.69-2.54-.25-17.93,2.61-21.74-1,.75-2.31,2.35-2.65,2.54,1.55-5.08,2.8-13.18,2-16.18-.67-2.46-4.33-8-13.15-3.37S164.48,103.66,164.48,103.66Z"/><path class="cls-5" d="M200.89,99.88c-4.64-4.17-10.26-6.64-14.87-6.5-9.86.3-21.54,10.28-21.54,10.28a4.69,4.69,0,0,1,.83,1.42C175.53,95.25,187.92,89.84,200.89,99.88Z"/><path class="cls-6" d="M207.14,107.87c.53,2.38,1.2,4.21.9,7.49a6.11,6.11,0,0,0-3.59-1.19c1.8,6.57,3,12.1.6,19.72a5.2,5.2,0,0,0-2.14-2.89c-1.4,3.59-2.49,7.72-1.89,11.91-1.14-.63-1.2-2.15-1.35-2.44-1.63,2.72-1.84,9.86-.5,12.75-2.44-1.65-5.13-6.23-6.07-9.17a8.69,8.69,0,0,0-1.2,3.59c-3.58-4-3.14-10.29-2.39-17.33-1.12,1.22-1.42,2.32-2,2.92,0-5.38,5-10.69,3.81-16.07,0,.85-1.22,1.66-1.88,2.1.46-5.85.27-13.57-5.88-15.25-5.87-1.6-13.16-.34-17.63,4.2,1.17,1.3,3.29,1.89,7.16-.14,8.82-4.63,12.48.91,13.15,3.37.82,3-.43,11.1-2,16.18.34-.19,1.61-1.79,2.65-2.54-2.86,3.81-5.3,19.2-2.61,21.74a6.68,6.68,0,0,1,2.24-3.29c-.52,6.13,6.31,17.86,9.64,17.89a20.07,20.07,0,0,1-.79-5.67c1.16,2.35,9.75,7.91,12.29,7.32-3.21-1.81-6.93-7.94-7-14.56.6-.2,2,1.3,3.29,2.09-1.2-3.68-1.3-10.85-.6-14.44,1.4.5,2,2.39,3,4.61-.1-1.37,2-9.33,2.39-11.88.6-3.89-1.12-10.93-1.59-11.9a4.32,4.32,0,0,1,2.79,2.54A23.3,23.3,0,0,0,207.14,107.87Z"/><path class="cls-3" d="M86.72,26.92S70.56,31.46,64.31,51.67c-.71,2.28-3.37,17-3.44,21.81-.31,22,8,32.82,8.52,37.05.89,7.28-2.79,27.1,4.28,38.15,4.28,6.07,9.46,6.08,9.46,6.08s8,10.16,20.92,11.21c14.56,1.19,31.87-15.12,42.23-14.7C163.89,152,177,113.38,177,113.38s-3.65-16.74-19.79-16.44-26.47,12-43.39,1.34C99.47,89.22,89.9,65.94,95.68,62.12,91.05,53,86.72,26.92,86.72,26.92Z"/><path class="cls-7" d="M70.58,55.36C69.92,69.79,85.8,72.14,94.9,73.08c-.19-1.67-3.36-8.38.5-11-3-6-5.89-19.31-7.52-27.74C81,40.7,72.27,46.82,70.58,55.36Z"/><path class="cls-7" d="M114.48,158.4c-10.75,6-26.17,2.28-33.35-9.07-1.24,1.82-2.73,2-4.52.85-3.71-2.72-4.74-5.27-6.06-9.2a25.17,25.17,0,0,0,3.12,7.7c4.28,6.07,9.46,6.08,9.46,6.08s8,10.16,20.92,11.21c14.56,1.19,31.87-15.12,42.23-14.7,4.14.17,8-1.83,11.57-5-.21,0-.42.18-.61.12C146,143.18,128.23,151.23,114.48,158.4Z"/><path class="cls-8" d="M173,206.6s-8.93,11.1-5.49,12.41,13.22-.75,14.71-5.12a9.92,9.92,0,0,0-1.3-8.78C180.4,204.44,173,206.6,173,206.6Z"/><path class="cls-4" d="M182.26,213.89a9.92,9.92,0,0,0-1.3-8.78c-.09-.11-.36-.14-.75-.12a3.31,3.31,0,0,1-1.46,4.16c-6.52,1.93-8.21,2.81-7.17,9,.06.56.13.91.2,1.29C175.89,218.92,181.24,216.89,182.26,213.89Z"/><path class="cls-9" d="M170.26,219.69a8.43,8.43,0,0,1-2.82-.4,1.47,1.47,0,0,1-.91-1c-.81-3,6-11.5,6.28-11.86l.05-.08.09,0c2.82-.83,7.64-2.12,8.24-1.4a10.15,10.15,0,0,1,1.36,9.07c-.51,1.49-2,2.84-4.22,3.9A20.49,20.49,0,0,1,170.26,219.69Zm3-12.82c-2,2.44-6.71,9-6.1,11.26a.82.82,0,0,0,.54.6c2.21.84,7.08.19,10.43-1.38,1.46-.69,3.32-1.86,3.9-3.56a9.67,9.67,0,0,0-1.25-8.49C180.27,205.05,176.49,205.91,173.21,206.87Z"/><path class="cls-3" d="M168.24,100.47c13.35,8,11.62,40.42,8.52,50.9-2.59,8.77,3.39,14.6,4.38,20.52.61,3.59-1.45,18.16-.67,21.72,1,4.7,3.16,9.65,2.84,11.87-.19,1.34-1.14,5.25-4.33,6-2.62.6-9.95,1.35-8.83-2.4a14,14,0,0,1,4-6.71c1.68-1.35-.37-13.44-1.32-15.54-1.74-3.85-4.16-11.13-10.31-16-7.6-6-15-25.81-14.56-36.37"/><path class="cls-7" d="M180.47,193.61c-.78-3.56,1.28-18.13.67-21.72-1-5.92-7-11.75-4.38-20.52,3.1-10.48,4.83-42.93-8.52-50.9h0a28.46,28.46,0,0,1,7.55,16.86c3.58,32.22-9.09,35.07,0,49.68,5.43,8.73.57,20,2.37,29.58.82,4.93,5.48,12.8-6.5,15,10.21,1.79,10.81-3.16,11.65-6.13C183.63,203.26,181.5,198.31,180.47,193.61Z"/><path class="cls-8" d="M97.4,227.75s-10.31,9.48-7.67,12.41c4.42,4.91,15.67,2,17.53-.68,2.62-3.81,3.89-9.57,1.87-12.48S97.4,227.75,97.4,227.75Z"/><path class="cls-4" d="M109.13,227a2.08,2.08,0,0,0-.81-.68,18.39,18.39,0,0,1-6.66,9.72,9.65,9.65,0,0,0-2.44,6.66c3.69-.41,7.09-1.84,8-3.22C109.88,235.67,111.15,229.91,109.13,227Z"/><path class="cls-9" d="M97.14,243.12c-3.33,0-6-1-7.63-2.76-2.76-3.06,6.61-11.84,7.69-12.83l.09-.06c.41-.16,10-3.71,12.08-.64s.71,9.07-1.86,12.81c-1.13,1.64-5.24,3.18-9.16,3.44C97.94,243.11,97.54,243.12,97.14,243.12ZM97.56,228c-2.83,2.61-9.6,9.74-7.61,12,2.27,2.52,6.21,2.66,8.36,2.52,4.09-.27,7.8-1.86,8.7-3.17,2.47-3.58,3.88-9.24,1.87-12.14C107.35,225,100.24,227,97.56,228Z"/><path class="cls-3" d="M93,132.12c-3.28,4.18-1.86,14.85-.17,21.59,2,7.84,6.82,18.38,7.77,22,.54,2-3.29,14,1.35,20,3.18,4.09,2.3,24.63-.09,26.62s-9,6.78-7.18,9.64,10.38,4.64,14.86-.59,1.92-8.74,1.72-9.71-1.92-24.73-1.54-26.05,3.18-10.09,3-11.43,1.85-13.11,2.52-14.59c1.72-3.85,2.23-16.37,2.51-18.85a26.34,26.34,0,0,1,2.45-8.47"/><path class="cls-7" d="M107.32,227.06c-.21,2.94-2.17,6.58-4.78,7.54a9.71,9.71,0,0,0,6.58-3.24c4.48-5.23,1.91-8.74,1.72-9.71s-1.92-24.73-1.55-26.05,3.19-10.09,3-11.43,1.85-13.11,2.51-14.59c1.72-3.85,2.23-16.37,2.52-18.85a26.34,26.34,0,0,1,2.45-8.47c-4.09,1.82-6.53,21.86-8.63,31.11-2,8.82-5.15,17.81-5.37,22.64C105.67,198.94,108.29,216.16,107.32,227.06Z"/><path class="cls-3" d="M64.31,51.37S73.05,20,85.37,20.21s15.84,15.62,16.89,17.41,2.68,12.55,10.9,12.48,10,2.34,10.69,3.88c1.12,2.37-1.59,12-.9,13,1.15,1.61.54,3.76-.71,4.08s-2.84-.3-3.33.18c0,1.21-1.06,7.09-7.06,7.26-4.33.12-6.62-4.18-7.6-6a7.81,7.81,0,0,0-7.62-3.63c-6.93,1.44-24.28-.29-26-13.49"/><path class="cls-7" d="M96.74,34.61a43.87,43.87,0,0,0-2.51-4.72c6.49,2.51,7.39,13.86,10.59,14.7-1.57-2.91-2.24-6.07-2.76-7-1-1.79-4.53-17.18-16.78-17.41-5.53-.1-10.34,6.25-13.94,13.25C80.21,25.93,88,35.85,96.74,34.61Z"/><path class="cls-2" d="M67.38,29.33S82.83,7.94,109.83,18.1c-3.39-.4-12.36,0-13.65,2.11,5.88,1.47,14,12.63,13,19.1-2.49-2.39-12.75-11.15-17.83-10.75,2.59,1.49,3.37,4.22,4.28,5.38-2.29.2-12.63-4-14.14-4.29-2.7-.55-3.85,2-6.78,2.22A10.3,10.3,0,0,1,67.38,29.33Z"/><path class="cls-3" d="M74.76,35.83S64.31,33,64,22.78a13.94,13.94,0,0,1,4.57-11.26,8.66,8.66,0,0,1,2,3.47c.2.49.39,1,.59,1.56,2,5.38,4.36,12.92,9.08,15"/><path class="cls-3" d="M74.28,35.43S64.31,33,64,22.78a13.94,13.94,0,0,1,4.57-11.26,8.66,8.66,0,0,1,2,3.47c.2.49.39,1,.59,1.56.79,3.93-1.05,15.54,3.1,18.88Z"/><path class="cls-7" d="M70.79,16.83c-.18-.52-.36-1-.54-1.48a8.13,8.13,0,0,0-1.87-3.3,10.27,10.27,0,0,0-2,2.29c.55-.49,1.1-.77,1.64-.2,3.43,4.69-1.3,8,2.35,19.3,1,.44,3.24,1.37,3.24,1.37C69.83,31.64,71.52,20.57,70.79,16.83Z"/><path class="cls-10" d="M114.62,60.12a2.2,2.2,0,1,1,2-1.94A2,2,0,0,1,114.62,60.12Z"/><path class="cls-11" d="M114.14,59.86a1.79,1.79,0,0,1-1.23-2.15c.13-1.09.9-1.9,1.7-1.8S116,57,115.84,58.06,115,60,114.14,59.86Z"/><path class="cls-9" d="M114.8,60.43h-.21a2.5,2.5,0,1,1,2.37-2.2,2.72,2.72,0,0,1-.8,1.64A2,2,0,0,1,114.8,60.43ZM115,56.1a1.76,1.76,0,0,0-1.56,1.69,1.71,1.71,0,0,0,1.26,2h0a1.31,1.31,0,0,0,1.09-.4,2,2,0,0,0,.61-1.27,1.71,1.71,0,0,0-1.26-2Z"/><path class="cls-9" d="M119.29,56.37a3.66,3.66,0,0,0-2.82-2.71,4.12,4.12,0,0,0-3.69.47,3.79,3.79,0,0,1,3.9-1C119.34,53.83,119.4,55.81,119.29,56.37Z"/><path class="cls-12" d="M78.62,37.39s1.26-3.24,3.73-4.13c6-2.14,6.13,2.26,6.13,2.26-1.89-2.19-4.13-2-6-1.25A9.83,9.83,0,0,0,78.62,37.39Z"/><ellipse class="cls-13" cx="87.53" cy="44" rx="5.03" ry="5.25" transform="translate(-2.07 4.38) rotate(-2.83)"/><path class="cls-14" d="M87.79,49.34a6.22,6.22,0,0,1-3.24-11.62,6,6,0,0,1,5.32-.26A6.29,6.29,0,0,1,92,39a6.26,6.26,0,0,1-4.23,10.3Zm0-.19a4.85,4.85,0,0,0,3.42-1.74,5.27,5.27,0,0,0,1.2-3.65,5.18,5.18,0,0,0-1.59-3.47,4.75,4.75,0,0,0-6.92.34,5.27,5.27,0,0,0,.32,7.13A4.84,4.84,0,0,0,87.78,49.15Z"/><ellipse class="cls-15" cx="85.83" cy="43.35" rx="3.08" ry="3.21" transform="translate(-2.04 4.29) rotate(-2.83)"/><ellipse class="cls-16" cx="84.75" cy="41.4" rx="0.79" ry="0.88" transform="translate(-1.94 4.24) rotate(-2.83)"/><path class="cls-17" d="M119,71.41s-12.15-.58-16.9-11.15"/><path class="cls-18" d="M119,72.9a23.1,23.1,0,0,1-5.46-1.5,22.66,22.66,0,0,1-4.85-2.67,17.85,17.85,0,0,1-3.92-3.79,18.73,18.73,0,0,1-2.6-4.68,18.11,18.11,0,0,0,3.16,4.18,16.58,16.58,0,0,0,4.16,3,20.55,20.55,0,0,0,4.75,1.8,21.16,21.16,0,0,0,4.9.65Z"/><path class="cls-17" d="M103.22,58.22a4.48,4.48,0,0,1-3.34,3.34"/><path class="cls-18" d="M103.26,58.23a2.1,2.1,0,0,1,.13,1.49,2.82,2.82,0,0,1-.72,1.28,2.72,2.72,0,0,1-1.29.75,2.1,2.1,0,0,1-1.49-.14l0-.1a4.24,4.24,0,0,0,2.09-1.2,4.72,4.72,0,0,0,1.21-2.1Z"/><path class="cls-17" d="M67.81,105.63s7.81,12.26,15.48,17.78"/><path class="cls-18" d="M68.23,105.36A102,102,0,0,0,75,115a50.62,50.62,0,0,0,8.25,8.43,51.42,51.42,0,0,1-8.64-8.11,105.43,105.43,0,0,1-7.26-9.4Z"/></svg>