<svg id="Layer_1" data-name="Layer 1" xmlns="http://www.w3.org/2000/svg" viewBox="0 0 465 630"><defs><style>.cls-1{fill:#1e89e2;}.cls-2{fill:#1361bf;}.cls-3,.cls-6{fill:none;stroke-linecap:round;stroke-linejoin:round;}.cls-3{stroke:#1e89e2;stroke-width:7.55px;}.cls-4{fill:#46adf2;}.cls-5{fill:#16b3dc;}.cls-6{stroke:#4bc4d3;stroke-width:1.89px;}</style></defs><path class="cls-1" d="M226.46,175a204.73,204.73,0,0,0-7.52,25.46c-1.88,8.75-3.51,17.61-4.61,26.59a507.14,507.14,0,0,0-3.88,54.42c-.78,36.55.93,73.28,3.46,110s6,73.33,9.67,110,7.46,73.28,10.89,110c-4.67-36.53-9.73-73-14.62-109.52s-9.58-73.06-13.42-109.75-6.76-73.55-7.23-110.67a521.92,521.92,0,0,1,2.08-55.83c.83-9.33,2.21-18.66,3.89-28a218.28,218.28,0,0,1,7.2-27.73Z"/><path class="cls-1" d="M249.69,148.58c8.53,18.49,12.73,37.7,16,56.79,3,19.15,4.76,38.32,5.89,57.47,2.19,38.3,2,76.53,1.17,114.68s-2.56,76.24-4.39,114.31S264.45,568,262.71,606c.49-38.11,1.28-76.21,1.87-114.31s1-76.19.64-114.24-1.49-76.09-4.89-113.79c-1.73-18.84-4.06-37.6-7.59-56l-1.45-6.86-.72-3.43-.84-3.38-1.68-6.77-1.92-6.66a157.52,157.52,0,0,0-9.88-25.34Z"/><path class="cls-1" d="M294.46,144.33A119.4,119.4,0,0,1,315.23,168c1.5,2.17,2.8,4.46,4.16,6.71.65,1.14,1.25,2.31,1.87,3.46l.93,1.74.85,1.77a126.73,126.73,0,0,1,6,14.46c1.69,4.91,3.06,9.9,4.25,14.91s2.09,10.06,2.76,15.12a240.07,240.07,0,0,1,2.21,30.31c.29,20.17-1.32,40.11-3.48,59.88s-5,39.4-7.89,59c-5.82,39.16-11.77,78.23-15.8,117.55a977.21,977.21,0,0,0-5.5,118.41,978.27,978.27,0,0,1,1.77-118.74c2.79-39.54,7.52-78.92,12.09-118.2,2.26-19.64,4.45-39.27,6-58.89s2.46-39.25,1.56-58.65a226.71,226.71,0,0,0-3-28.77c-.78-4.73-1.85-9.38-3-14s-2.64-9.1-4.31-13.49a113.93,113.93,0,0,0-5.75-12.79l-.8-1.55-.87-1.51c-.59-1-1.15-2-1.75-3-1.27-1.94-2.47-3.93-3.85-5.78a104.93,104.93,0,0,0-18.88-20.22Z"/><path class="cls-1" d="M176.18,165.22a98,98,0,0,0-13.58,23.5,120.84,120.84,0,0,0-7.15,26.67l-.52,3.47-.26,1.74-.18,1.76-.7,7-.43,7.11q-.12,1.78-.15,3.57l-.09,3.59c-.19,4.77-.06,9.58-.08,14.38l.18,7.23.09,3.62.16,3.63c.8,19.32,2.28,38.74,3.74,58.17s3,38.89,4.25,58.37c2.58,38.95,4.37,78,5,117s.38,78-.87,117q0-58.49-2.87-116.88c-1.89-38.91-4.92-77.74-8.75-116.5-1.9-19.38-4-38.74-6.11-58.12s-4.19-38.81-5.63-58.41l-.28-3.67-.21-3.69-.43-7.37c-.14-5-.42-9.87-.39-14.85l0-3.73c0-1.24,0-2.48,0-3.73l.21-7.49.5-7.53.13-1.88.22-1.88.44-3.78a134.54,134.54,0,0,1,7-29.91,112.87,112.87,0,0,1,14.72-27.46Z"/><path class="cls-1" d="M136.61,141.18a79.36,79.36,0,0,0-10.79,8.1,70.1,70.1,0,0,0-9,10,71.57,71.57,0,0,0-7,11.71c-1,2-1.89,4.2-2.78,6.33s-1.63,4.36-2.28,6.61-1.3,4.52-1.9,6.8c-.28,1.14-.52,2.31-.79,3.46l-.38,1.74-.33,1.76c-.93,4.66-1.52,9.44-2.07,14.22a281.63,281.63,0,0,0-1.29,29.13c.13,19.59,1.64,39.32,3.47,59s4,39.47,6.12,59.25c4.15,39.55,7.74,79.27,8.73,119.09s-.44,79.69-5.47,119.13c3.78-39.58,4-79.38,1.72-119s-7-79-12.43-118.34c-2.69-19.68-5.51-39.36-8-59.14s-4.63-39.66-5.4-59.82a294.71,294.71,0,0,1,.4-30.43c.42-5.1.89-10.21,1.74-15.32l.3-1.92.36-1.91c.24-1.28.47-2.55.74-3.83.59-2.54,1.13-5.09,1.87-7.62s1.53-5,2.35-7.55,1.84-5,3-7.41a84.83,84.83,0,0,1,18.3-26.59,95.21,95.21,0,0,1,12.7-10.18Z"/><path class="cls-1" d="M324.84,121.21a130,130,0,0,1,23.24,22.39,123.68,123.68,0,0,1,16.56,27.6,146.57,146.57,0,0,1,5.57,15c1.5,5.09,2.89,10.2,3.9,15.36a213.38,213.38,0,0,1,3.94,31.08c1.2,20.75.13,41.34-1.77,61.72s-4.67,40.61-7.61,60.76c-5.91,40.29-12.4,80.39-16.66,120.79s-6.35,81.06-4.16,121.7c-3.44-40.55-2.6-81.42.42-122s8.3-81.06,13-121.42c2.3-20.18,4.43-40.35,5.7-60.52s1.66-40.32-.11-60.16a202.06,202.06,0,0,0-4.62-29.27c-1.08-4.79-2.53-9.46-4-14.09a130,130,0,0,0-5.48-13.44,110,110,0,0,0-15.47-24.11A116.07,116.07,0,0,0,316,133.35Z"/><path class="cls-2" d="M159.88,137.92a4.19,4.19,0,0,0-6.89-1.23c-9.76,10.47-23.13,16.12-37.83,7.83-23.7-13.36-25.61-41.63-16.35-65.45,20.13-51.77,71-66.5,121.79-71.18,49.69-4.58,98,6.42,125,50.54,11.13,18.24,17.28,36.65,13.95,58.13-2.48,16-12.12,27.73-28.64,25.44a4.19,4.19,0,0,0-4.23,2.18c-10.15,19-44,32.66-60.17,15.56a4.26,4.26,0,0,0-5.54-.61c-10.55,7.31-17.65,16.41-32.29,17.7-11.3,1-20.89-1.6-30.66-6.57C183,162.62,166.68,153.64,159.88,137.92Z"/><path class="cls-1" d="M362.3,125.86a73.1,73.1,0,0,0-3.48-36,73,73,0,0,1,.69,26.66c-2.42,15.62-11.72,27.23-27.6,25.57a6,6,0,0,0-5.79,3c-10.78,18.53-44,31.54-59.84,14.41a3.9,3.9,0,0,0-5-.62c-10.73,7.35-17.82,16.62-32.6,17.92-11.3,1-20.88-1.6-30.66-6.57-15.3-7.79-31.95-17-38.49-33.29a3.46,3.46,0,0,0-5.79-1.06c-9.82,11-23.48,17.11-38.54,8.61-19-10.71-24-31-20.45-50.91-6.61,22.31-3,46.94,19.08,59.24,16.6,9.25,31.45,1.39,41.51-11.19a1.36,1.36,0,0,1,2.36.46c5.67,18.46,23.87,28.45,40.51,36.83,10,5,19.73,7.66,31.22,6.71,14.56-1.21,21.75-9.91,32.07-17.1a5.32,5.32,0,0,1,6.78.58c16.41,16.2,49.29,3.51,60.12-14.7a6.3,6.3,0,0,1,6-3.08C350.52,153,359.9,141.46,362.3,125.86Z"/><path class="cls-3" d="M150.53,51.8c5.39,27.87,32.75,37.89,58.57,40.75a45,45,0,0,0,21.37-3c6.49-2.75,10-9.78,16.2-11.69C261,73.52,277.53,91.47,293.09,85c2.87-1.19,4.37-4.64,7.27-5.76,3.77-1.47,7.53,0,11.27-.76,8.23-1.57,20.18-11.06,15.12-20.14"/><path class="cls-1" d="M217.78,64.61c-9.94.67-15.17,6.47-25.58,3.24-4.86-1.5-18.37-7-21.12-11.19-10.87-16.56,21.07-29.52,32.77-30.28,10.43-.68,20.5,2,30.88,2.71,16.2,1.15,32.49-.59,48.73,2.48,8.59,1.62,29.13,3.28,29.54,15.2.23,6.82-11.52,15-16.7,18.06-14,8.19-26.27.63-39.72-5.33C242.33,53.18,229.35,61,217.78,64.61Z"/><path class="cls-4" d="M201.39,36.32a8.28,8.28,0,0,1,3.59.44c8.32,1.83,15.37,4.77,4.5,12.62C205.2,52.46,194.15,54,188.4,51a4.46,4.46,0,0,1-1.54-6.47c4.27-6.3,7.46-7.45,14.53-8.22Z"/><path class="cls-4" d="M274,56.06c7-2.73,10-.14,17.71,2a1.59,1.59,0,0,1,.93,2.37c-3,4.76-10.71.87-15.83,1.52a5.37,5.37,0,0,1-3.88-.92c-.61-.44-1.22-.82-1.79-1.26a1.38,1.38,0,0,1,.15-2.27l1.12-.67A10.75,10.75,0,0,1,274,56.06Z"/><path class="cls-5" d="M275.24,147.36a8.3,8.3,0,0,0,.63,10c4.28,5.11,11.63,6.66,18.17,2.77,4.52-2.69,4.81-8.29,2.66-12.75-2.43-5.05-9.77-6.39-14.92-5A11.88,11.88,0,0,0,275.24,147.36Z"/><path class="cls-5" d="M301.2,141a1.09,1.09,0,0,0-.25.92c.6,4,.57,9.33,4.55,11.39,2.92,1.5,5.92.8,8.58-.73a15.89,15.89,0,0,0,7.66-16.17c-1.26-8.2-6.13-4.43-10.28-.66-2.16,2-3.88,3.48-6.75,4.16C303.4,140.17,301.91,140.18,301.2,141Z"/><path class="cls-6" d="M327.78,126.8a47.23,47.23,0,0,1,1.07,7.14"/><path class="cls-6" d="M324.36,113.59a24.18,24.18,0,0,1,1.78,5.59"/><path class="cls-6" d="M263.85,145.1a42.36,42.36,0,0,1-.16,6.5"/><path class="cls-6" d="M261.87,130.16c.7,2.31,1.59,4.21,1.23,6.49"/><path class="cls-6" d="M260,120.75c.13.93.25,1.91.36,2.84"/><path class="cls-6" d="M258.74,114.26c.07.7.13,1.41.19,2.11"/><path class="cls-6" d="M256.22,107.46l.84,2.27"/><path class="cls-6" d="M322.66,107.67l.74,1.21"/><path class="cls-6" d="M321,101.43l.52,2.19"/><path class="cls-6" d="M319.77,98l.17.73"/><path class="cls-6" d="M158.66,122.29a5.47,5.47,0,0,0-.52,3.66"/><path class="cls-6" d="M160,115l-.54,2.28"/><path class="cls-6" d="M161.81,107.53l-.62,2.61"/><path class="cls-6" d="M163.6,101.4l-.79,1.89"/><path class="cls-6" d="M165.47,95l-.87,2.2"/><ellipse class="cls-5" cx="280.99" cy="135.54" rx="5.2" ry="5.83" transform="translate(84.42 377.79) rotate(-76.69)"/><path class="cls-5" d="M282.35,122.6a3,3,0,1,1-2.24-3.63A3,3,0,0,1,282.35,122.6Z"/><ellipse class="cls-5" cx="299.32" cy="129.54" rx="5.87" ry="5.52" transform="translate(104.37 391.01) rotate(-76.69)"/><ellipse class="cls-5" cx="208.43" cy="162.13" rx="5.87" ry="5.52" transform="translate(2.68 327.66) rotate(-76.69)"/><path class="cls-5" d="M212.8,149.8a3.1,3.1,0,1,1-2.28-3.81A3.15,3.15,0,0,1,212.8,149.8Z"/><ellipse class="cls-5" cx="230.82" cy="154.17" rx="11.76" ry="13.97" transform="translate(27.67 343.31) rotate(-76.69)"/><path class="cls-5" d="M315.34,124.55a3.34,3.34,0,1,1-2.54-3.71A3.18,3.18,0,0,1,315.34,124.55Z"/><path class="cls-5" d="M297.84,115.13c.56,1.76,0,3.53-1.35,4s-2.83-.66-3.4-2.42,0-3.54,1.34-4S297.27,113.36,297.84,115.13Z"/><path class="cls-5" d="M310.07,111.78c.35,1.63-.35,3.17-1.57,3.44s-2.5-.84-2.86-2.47.35-3.16,1.57-3.43S309.71,110.16,310.07,111.78Z"/><path class="cls-5" d="M305.56,103.16a1.39,1.39,0,1,1-1-1.75A1.42,1.42,0,0,1,305.56,103.16Z"/><path class="cls-5" d="M293.88,106.38a1.48,1.48,0,1,1-1.09-1.81A1.5,1.5,0,0,1,293.88,106.38Z"/><path class="cls-5" d="M280.13,113.44a1.57,1.57,0,1,1-1.7-1.71A1.72,1.72,0,0,1,280.13,113.44Z"/><path class="cls-5" d="M277.73,105.93a1.37,1.37,0,0,1-.87,1.68c-.62.11-1.24-.47-1.39-1.29a1.36,1.36,0,0,1,.87-1.68C277,104.53,277.59,105.11,277.73,105.93Z"/><path class="cls-5" d="M251.15,128.87a3,3,0,1,1-2.24-3.63A3,3,0,0,1,251.15,128.87Z"/><path class="cls-5" d="M248.93,119.71a1.56,1.56,0,1,1-1.69-1.71A1.72,1.72,0,0,1,248.93,119.71Z"/><ellipse class="cls-5" cx="245.41" cy="112.39" rx="1.15" ry="1.51" transform="translate(-15.62 43.66) rotate(-9.86)"/><path class="cls-5" d="M189,127.28a5,5,0,1,1-.87-7A5,5,0,0,1,189,127.28Z"/><path class="cls-5" d="M187.58,114.22a2.57,2.57,0,1,1-1.37-3.71A2.82,2.82,0,0,1,187.58,114.22Z"/><ellipse class="cls-5" cx="206.54" cy="120.86" rx="3.04" ry="2.53" transform="translate(23.71 275.26) rotate(-70.51)"/><path class="cls-5" d="M189,105.4a2,2,0,1,1-3.65-1c.35-1.33,1.45-2.19,2.45-1.92A2.24,2.24,0,0,1,189,105.4Z"/><path class="cls-5" d="M208.46,113.09c-.29,1.13-1.23,1.86-2.08,1.63a2.19,2.19,0,1,1,2.08-1.63Z"/><path class="cls-5" d="M208.6,105.53a1.21,1.21,0,0,1-1.32,1,1.4,1.4,0,1,1,1.32-1Z"/><path class="cls-5" d="M244.6,104.74c-.19.72-.78,1.18-1.32,1a1.21,1.21,0,0,1-.65-1.56,1.06,1.06,0,1,1,2,.52Z"/><ellipse class="cls-5" cx="230.18" cy="131.78" rx="8.2" ry="5.61" transform="translate(-8.59 16.28) rotate(-3.98)"/><ellipse class="cls-5" cx="228.52" cy="118.93" rx="5.97" ry="3.43" transform="translate(-9.59 20.61) rotate(-5.06)"/><path class="cls-5" d="M228.73,107c1.39.67,2.11,2.08,1.6,3.14s-2.06,1.37-3.45.69-2.11-2.07-1.6-3.13S227.34,106.3,228.73,107Z"/><path class="cls-5" d="M292.45,102.29a1.28,1.28,0,0,1-1.61.87,1.22,1.22,0,1,1,.56-2.36A1.28,1.28,0,0,1,292.45,102.29Z"/><path class="cls-5" d="M290.83,97.26a1.38,1.38,0,1,1-1.05-1.5A1.3,1.3,0,0,1,290.83,97.26Z"/><path class="cls-5" d="M349.18,83a1.38,1.38,0,0,1-2.66-.63,1.3,1.3,0,0,1,1.61-.87A1.29,1.29,0,0,1,349.18,83Z"/><path class="cls-5" d="M303.08,95.63a1.37,1.37,0,1,1-1-1.66A1.38,1.38,0,0,1,303.08,95.63Z"/><path class="cls-5" d="M140.56,128.74a8.3,8.3,0,0,1-3.71,9.36c-5.65,3.54-13.12,2.74-18.13-3-3.46-4-2-9.37,1.41-13,3.88-4,11.27-3,15.73-.11A11.91,11.91,0,0,1,140.56,128.74Z"/><path class="cls-5" d="M202.53,147.3c.54,3.94-2.46,7-7.15,7.63A25.11,25.11,0,0,1,172,144.72c-3.66-5.25-.44-9.94,5-12.05,6.11-2.39,15.68,1.56,20.9,6.23A13.9,13.9,0,0,1,202.53,147.3Z"/><path class="cls-5" d="M117.86,114.62a1.1,1.1,0,0,1,0,.95c-1.81,3.65-3.43,8.7-7.85,9.42-3.24.53-5.87-1.07-7.93-3.35a15.9,15.9,0,0,1-2.29-17.74c3.74-7.41,7.2-2.31,10,2.55,1.44,2.53,2.6,4.51,5.13,6C116,113.19,117.42,113.67,117.86,114.62Z"/><path class="cls-5" d="M129.82,114.29c-.23,2.86,2.18,5.4,5.39,5.66s6-1.84,6.24-4.7-2.18-5.39-5.39-5.66S130.06,111.43,129.82,114.29Z"/><path class="cls-5" d="M198.34,130.5c-.24,2.86,2.17,5.39,5.38,5.65s6-1.83,6.24-4.69-2.17-5.4-5.38-5.66S198.57,127.64,198.34,130.5Z"/><path class="cls-5" d="M244.36,144.65c-.23,2.86,2.18,5.4,5.39,5.66s6-1.84,6.23-4.7-2.17-5.39-5.38-5.66S244.6,141.79,244.36,144.65Z"/><path class="cls-5" d="M138.45,102.75a3,3,0,1,0,3.26-2.76A3,3,0,0,0,138.45,102.75Z"/><ellipse class="cls-5" cx="119.3" cy="102.64" rx="5.87" ry="5.52" transform="matrix(0.08, -1, 1, 0.08, 7.21, 213.11)"/><ellipse class="cls-5" cx="107.57" cy="88.15" rx="3.02" ry="3.33" transform="translate(10.87 188.11) rotate(-85.29)"/><path class="cls-5" d="M123.6,89.81c-1.09,1.5-1.06,3.37.05,4.18s2.9.25,4-1.25,1.06-3.38-.06-4.18S124.68,88.31,123.6,89.81Z"/><path class="cls-5" d="M111.66,75.9c-.85,1.44-.65,3.12.42,3.75s2.64,0,3.48-1.46.65-3.11-.43-3.75S112.5,74.47,111.66,75.9Z"/><path class="cls-5" d="M118.25,68.88a1.39,1.39,0,1,0,2.76.23,1.39,1.39,0,1,0-2.76-.23Z"/><path class="cls-5" d="M128.92,82.44a1.48,1.48,0,1,0,1.59-1.38A1.49,1.49,0,0,0,128.92,82.44Z"/><path class="cls-5" d="M129.25,87.48a1.48,1.48,0,1,0,1.59-1.38A1.48,1.48,0,0,0,129.25,87.48Z"/><path class="cls-5" d="M125.33,98.09a1.48,1.48,0,1,0,1.6-1.38A1.5,1.5,0,0,0,125.33,98.09Z"/><path class="cls-5" d="M144.61,95.5a1.57,1.57,0,1,0,2.14-1.1A1.71,1.71,0,0,0,144.61,95.5Z"/><path class="cls-5" d="M149.66,89.2a1.19,1.19,0,1,0,1.71-.8A1.35,1.35,0,0,0,149.66,89.2Z"/><path class="cls-5" d="M131.75,77.38a1.37,1.37,0,1,0,1.46-1.1A1.3,1.3,0,0,0,131.75,77.38Z"/><path class="cls-5" d="M135.08,81.09a1.29,1.29,0,0,0,1.26,1.32,1.22,1.22,0,1,0,.2-2.42A1.3,1.3,0,0,0,135.08,81.09Z"/><path class="cls-5" d="M135.87,71.8a1.38,1.38,0,1,0,1.46-1.1A1.31,1.31,0,0,0,135.87,71.8Z"/><path class="cls-5" d="M124.91,61.11a1.37,1.37,0,1,0,1.48-1.26A1.38,1.38,0,0,0,124.91,61.11Z"/><path class="cls-5" d="M128.92,56.08a1.38,1.38,0,0,0,1.25,1.49,1.38,1.38,0,1,0-1.25-1.49Z"/><path class="cls-5" d="M355.6,109.61a3.34,3.34,0,1,1-2.54-3.71A3.18,3.18,0,0,1,355.6,109.61Z"/><ellipse class="cls-5" cx="338.15" cy="131.7" rx="5.36" ry="5.19" transform="translate(132.15 430.46) rotate(-76.69)"/><path class="cls-5" d="M355.23,116.14c2.14,1.64,2.11,5.27-.07,8.12s-5.69,3.82-7.83,2.17-2.1-5.27.08-8.12S353.09,114.49,355.23,116.14Z"/><path class="cls-5" d="M353.56,98.17c.36,1.63-.34,3.16-1.56,3.43s-2.5-.84-2.86-2.47.35-3.16,1.57-3.43S353.21,96.54,353.56,98.17Z"/><path class="cls-5" d="M351.1,90.63a1.62,1.62,0,0,1-.93,2c-.72.16-1.48-.5-1.69-1.46a1.62,1.62,0,0,1,.93-2C350.13,89,350.89,89.67,351.1,90.63Z"/><path class="cls-5" d="M340.1,119.78a3.34,3.34,0,1,1-2.54-3.7A3.17,3.17,0,0,1,340.1,119.78Z"/><path class="cls-5" d="M335.6,100.81a1.61,1.61,0,0,1-.93,2c-.72.16-1.48-.49-1.69-1.46a1.61,1.61,0,0,1,.93-2C334.63,99.19,335.39,99.85,335.6,100.81Z"/><path class="cls-5" d="M333.82,94.62a1.15,1.15,0,0,1-.73,1.44,1.14,1.14,0,0,1-1.27-1,1.15,1.15,0,0,1,.73-1.44A1.16,1.16,0,0,1,333.82,94.62Z"/><path class="cls-5" d="M332.18,89.16a.86.86,0,1,1-1-.73A.9.9,0,0,1,332.18,89.16Z"/><path class="cls-5" d="M347.51,77.79a.86.86,0,1,1-1-.72A.9.9,0,0,1,347.51,77.79Z"/><path class="cls-5" d="M345.74,72.34a.86.86,0,1,1-1-.73A.9.9,0,0,1,345.74,72.34Z"/><path class="cls-5" d="M335.43,109.62a1.62,1.62,0,0,1-.92,2c-.73.16-1.49-.5-1.7-1.46a1.62,1.62,0,0,1,.93-2C334.47,108,335.22,108.66,335.43,109.62Z"/><ellipse class="cls-5" cx="337.99" cy="111.3" rx="1.34" ry="1.79" transform="translate(-15.97 74.73) rotate(-12.33)"/></svg>