<svg id="Layer_1" data-name="Layer 1" xmlns="http://www.w3.org/2000/svg" viewBox="0 0 256 256"><defs><style>.cls-1{opacity:0.3;}.cls-2,.cls-8{fill:#d09a4f;}.cls-3{fill:#edc39a;}.cls-4{fill:#b77e39;}.cls-5{fill:#63330b;}.cls-6{fill:#f99a9a;}.cls-7{fill:#e57676;}.cls-8{stroke:#5b3c16;}.cls-13,.cls-8{stroke-miterlimit:10;}.cls-13,.cls-9{fill:#712703;}.cls-10{fill:#963a15;}.cls-11{fill:#471400;}.cls-12{fill:#2d0b00;}.cls-13{stroke:#491602;}.cls-14{fill:#2b0800;}.cls-15{fill:#631f00;}.cls-16{fill:#3a0202;}.cls-17{fill:#360700;}.cls-18{fill:#c23636;}.cls-19{fill:#fff;}.cls-20{fill:#110502;}</style></defs><ellipse class="cls-1" cx="87.44" cy="211.09" rx="80.09" ry="13.13"/><path class="cls-2" d="M223,37.64c-7.5-3.57-15.33,3.45-18.81,10.87S197.49,56,197.49,56l10.21,3.33C217.38,59.81,227.6,41.51,223,37.64Z"/><path class="cls-3" d="M223,37.64l-.08,0c1.38,8.22-6.26,18.35-15.25,21.54l.28.06C217.67,59.69,227.6,41.51,223,37.64Z"/><path class="cls-4" d="M208.11,47c2.16-4.15,8.87-10.11,14.83-9.38-7.47-3.46-15.24,3.53-18.71,10.91s-6.75,7.31-6.75,7.31S203,56.85,208.11,47Z"/><path class="cls-5" d="M197.48,55.82s3.21-.2,6.58-7.39c2.53-5.39,6.81-9.71,11.17-11.27a10,10,0,0,1,7.89.31l0,0c1.56,1.33,1.59,4.31.06,8.17-2.1,5.31-6.56,10.8-11.27,12.95a6.38,6.38,0,0,1-4.24.53c5.92.29,12.48-6.84,15.16-13.61,1.43-3.61,1.46-6.48.1-7.71l0,0a9.6,9.6,0,0,0-7.59-.29c-4.26,1.53-8.46,5.77-10.95,11.08a20.08,20.08,0,0,1-3.78,5.77C198.85,56.13,197.48,55.82,197.48,55.82Z"/><path class="cls-6" d="M207.27,56.1S211,40.83,218.86,40.24C218.91,43,215.14,55,207.27,56.1Z"/><path class="cls-7" d="M210.87,51.66c-1.08-3.14,3.49-8.42,4.86-10.34C210,44.9,207.27,56.1,207.27,56.1a11.06,11.06,0,0,0,7-4.62C212.66,52.52,211.17,52.65,210.87,51.66Z"/><path class="cls-5" d="M207,56.32l.07-.27c.15-.63,3.81-15.4,11.76-16l.19,0v.2c0,2.74-3.73,14.9-11.76,16Zm11.65-15.87c-7,.76-10.61,13.39-11.15,15.42C215,54.55,218.56,43.43,218.67,40.45Z"/><path class="cls-5" d="M202.34,58.47a3.89,3.89,0,0,0,2.81-.36,5.51,5.51,0,0,0,2.39-3.69l.37.09a5.89,5.89,0,0,1-2.58,3.93l-.08,0A3.18,3.18,0,0,1,202.34,58.47Z"/><path class="cls-2" d="M39.28,86.73s-20.6,11.47-15,39.84-10.45,33.78-6,46.29.74,28.56,5.22,32.67c-3,2.8-5.22,11,6,11s17.55-1.12,17.17-4.11S36,206.27,36,206.27c1.31-1.68.75-5.23-2-6.72S25.26,181.82,27.88,171c4.18-17.3,21.6-31.65,22.35-44.42C50.58,120.57,39.28,86.73,39.28,86.73Z"/><path class="cls-4" d="M26.52,205.29a12.21,12.21,0,0,1-3.08-8.17c1.12-15.21-2.52-21.56-3.08-29.17,1.12-8.78,10-16.36,11.7-32.53C35.48,116.48,43,114.33,48.5,117.16c-3.09-12.07-9.22-30.43-9.22-30.43s-20.6,11.47-15,39.84-10.45,33.78-6,46.29.74,28.56,5.22,32.67c-2.66,2.5-4.73,9.31,2.84,10.74C18.87,210.78,26.94,206.06,26.52,205.29Z"/><path class="cls-8" d="M39.17,87a33.18,33.18,0,0,0-9.35,9.12c-4,5.82-8.24,15.82-5.36,30.4,3.23,16.34-.66,25-3.79,32-2.28,5-4.07,9-2.19,14.3,2.22,6.19,2.43,13.14,2.62,19.27s.34,11.3,2.56,13.33l.15.13-.15.14c-1.71,1.61-3,4.81-2,7.19s3.63,3.5,7.89,3.5c9.61,0,15-.84,16.56-2.57a1.62,1.62,0,0,0,.43-1.32c-.36-2.84-10.41-6-10.51-6l-.26-.08.16-.21a3.81,3.81,0,0,0,.53-3.08,5,5,0,0,0-2.52-3.36C31,198.16,25.08,181.78,27.7,171,29.77,162.37,35,154.68,40,147.24S49.67,133,50,126.56C50.37,120.91,40.14,89.94,39.17,87Z"/><path class="cls-9" d="M40,210.9c.58-1.74,1.84-3.11,4.53-1.47s4.29,3.21,4.06,4.22c-.28,1.25-5,2.95-7.8,1.69C38.75,214.43,40,210.9,40,210.9Z"/><path class="cls-10" d="M48.57,213.31c-.14-1-1.67-2.42-4.07-3.88-2.21-1.35-3.88-.56-4.48,1.28a2.85,2.85,0,0,1,3.73-1.05A14.14,14.14,0,0,1,48.57,213.31Z"/><path class="cls-11" d="M42.89,214.39A3.36,3.36,0,0,1,40,211c-.13.41-1.06,3.54.81,4.39,2.81,1.26,7.52-.44,7.8-1.69a1,1,0,0,0,0-.42A8.9,8.9,0,0,1,42.89,214.39Z"/><path class="cls-12" d="M43.13,215.94a6.06,6.06,0,0,1-2.44-.46c-2.11-.95-.93-4.47-.87-4.63a3.18,3.18,0,0,1,1.76-2.18,3.52,3.52,0,0,1,3,.62c2.87,1.74,4.37,3.34,4.14,4.39-.1.42-.6.88-1.42,1.29A9.7,9.7,0,0,1,43.13,215.94Zm-.77-7.09a1.81,1.81,0,0,0-.67.12,2.87,2.87,0,0,0-1.57,2h0s-1.14,3.4.71,4.23,4.63.36,6.34-.5c.71-.36,1.18-.76,1.25-1.08.2-.88-1.33-2.43-4-4.05A4.16,4.16,0,0,0,42.36,208.85Z"/><path class="cls-9" d="M37.78,211.54c.64-1.91,2-3.41,5-1.62s4.69,3.52,4.44,4.62c-.31,1.37-5.47,3.23-8.54,1.85C36.45,215.4,37.78,211.54,37.78,211.54Z"/><path class="cls-10" d="M47.2,214.17c-.15-1.1-1.82-2.65-4.45-4.25-2.42-1.47-4.25-.6-4.9,1.4a3.11,3.11,0,0,1,4.07-1.14A15.3,15.3,0,0,1,47.2,214.17Z"/><path class="cls-13" d="M41.24,217.05a6.57,6.57,0,0,1-2.66-.5c-2.31-1-1-4.89-1-5.07a3.49,3.49,0,0,1,1.93-2.39,3.87,3.87,0,0,1,3.29.69c3.13,1.9,4.78,3.65,4.52,4.8-.1.46-.65,1-1.55,1.41A10.64,10.64,0,0,1,41.24,217.05Z"/><path class="cls-2" d="M141.17,119.65s-8.8,21.75-5.72,37c1.93,2.52,2.4,10.09-.48,13.35,1.13,3.36,2.86,18.67,6.2,22.12s7.07,5,6.79,8.78c1.21.93,10.27,6.16,7.84,9.61s-10,3.74-16.52,3.18-11-6.16-4.31-10.08c-2.23-.75-4.53-3.27-3-7.47S128.26,172,128.26,172c-2.7-.66-4.57-8.69-2.89-12.23-.47-3-.09-16.43-6.82-24,1-10.36,11.78-25.48,11.78-25.48Z"/><path class="cls-4" d="M134.58,210.12c-2.52-3.34,2.33-6.18,2.37-6.81,0-1-5.39-2.42-2.88-7.65-.77-8.52-1.5-14.78-4.21-24-2.16-1.31-4.26-8.08-2.9-11.57.09-4.45-.4-8.18-.35-13.28.37-3.36,1.65-5.35,3.89-8,2.1-2.33,4.63-4.08,6.6-6.24a105.66,105.66,0,0,1,4.07-13l-10.84-9.33s-10.75,15.12-11.78,25.48c6.73,7.56,6.35,21,6.82,24-1.68,3.54.19,11.57,2.89,12.23,0,0,5.32,19.88,3.75,24.08s.73,6.72,3,7.47c-6.38,3.71-2.67,8.92,3.29,9.94C137,212.44,135.33,211.61,134.58,210.12Z"/><path class="cls-8" d="M118.75,135.74c5.56,6.32,6.26,16.68,6.6,21.67.07,1,.13,1.85.2,2.36v0l0,.05c-1.17,2.47-.57,7,.72,9.73.6,1.27,1.33,2.06,2,2.23l.1,0,0,.11c.22.81,5.32,20,3.74,24.19a6,6,0,0,0,0,4.71,5,5,0,0,0,2.89,2.52l.39.13-.36.21c-2.44,1.42-3.56,3.2-3.16,5,.55,2.42,3.65,4.41,7.39,4.73,5,.43,13.76.6,16.36-3.09a2.07,2.07,0,0,0,.33-1.61c-.5-2.65-5.22-5.8-7.24-7.14-.42-.28-.73-.48-.9-.61l-.08-.07v-.1c.19-2.57-1.6-4.1-3.88-6a37,37,0,0,1-2.86-2.6c-2.37-2.45-3.91-10.61-5-16.57-.47-2.48-.87-4.62-1.21-5.62l0-.1.07-.08c2.85-3.23,2.37-10.64.47-13.11l0,0v0c-2.94-14.5,5-35.14,5.67-36.94l-10.58-9.12C129.19,112.27,119.75,126.13,118.75,135.74Z"/><path class="cls-9" d="M151,207.35c.77-1.79,2.23-3.14,4.94-1.17s4.26,3.79,3.94,4.84c-.41,1.3-5.56,2.69-8.43,1.1C149.4,211,151,207.35,151,207.35Z"/><path class="cls-10" d="M159.92,210.66c-.06-1.08-1.56-2.71-4-4.48-2.22-1.61-4.07-.92-4.86,1a3,3,0,0,1,4-.78A15,15,0,0,1,159.92,210.66Z"/><path class="cls-11" d="M153.8,211.3a3.56,3.56,0,0,1-2.82-3.9c-.18.43-1.44,3.66.47,4.72,2.87,1.59,8,.2,8.43-1.1a1.12,1.12,0,0,0,0-.45A9.31,9.31,0,0,1,153.8,211.3Z"/><path class="cls-13" d="M153.91,213a6.18,6.18,0,0,1-2.54-.7c-2.15-1.19-.6-4.82-.52-5a3.35,3.35,0,0,1,2.06-2.16,3.73,3.73,0,0,1,3.13.92c2.88,2.09,4.34,3.92,4,5-.14.44-.71.88-1.62,1.24A10.33,10.33,0,0,1,153.91,213Z"/><path class="cls-9" d="M148.19,208.94c.66-2,2.08-3.5,5.1-1.66s4.81,3.61,4.55,4.74c-.31,1.4-5.61,3.31-8.76,1.89C146.83,212.9,148.19,208.94,148.19,208.94Z"/><path class="cls-12" d="M151.74,214.59a6.58,6.58,0,0,1-2.73-.52c-2.37-1.06-1-5-1-5.19a3.58,3.58,0,0,1,2-2.45,4,4,0,0,1,3.38.7c3.21,2,4.9,3.75,4.64,4.92-.11.48-.67,1-1.59,1.45A10.9,10.9,0,0,1,151.74,214.59Zm-.86-8a2.27,2.27,0,0,0-.75.13,3.27,3.27,0,0,0-1.77,2.23h0s-1.28,3.82.79,4.76,5.2.4,7.12-.56c.8-.4,1.32-.86,1.4-1.21.22-1-1.49-2.74-4.48-4.55A4.6,4.6,0,0,0,150.88,206.63Z"/><path class="cls-2" d="M41.08,85s-14.21,7.1-21,16c-6.55,8.59-7.11,15.59-6,23.3,1.43,10.15-1.93,15.07-1.93,15.07,2.42,0,5.66-4.76,5.36-10.74-.45-8.71,0-24.73,12.74-28.84C33.52,95.85,41.08,85,41.08,85Z"/><path class="cls-5" d="M12.15,139.53h-.36l.2-.29c0-.05,3.31-5,1.9-14.94-1.11-7.84-.5-14.83,6.07-23.43,6.71-8.79,20.9-15.94,21-16l.65-.32-.42.6c-.07.11-7.6,10.88-10.83,14.76l0,0-.05,0c-9.19,3-13.44,12.61-12.62,28.65a13.35,13.35,0,0,1-3,9.58A3.74,3.74,0,0,1,12.15,139.53Zm28.34-54c-2.9,1.54-14.41,7.93-20.24,15.56-6.49,8.49-7.09,15.4-6,23.15,1.23,8.67-1.07,13.61-1.77,14.87a3.71,3.71,0,0,0,1.91-1.2,13,13,0,0,0,2.92-9.3c-.83-16.2,3.49-26,12.82-29C32.93,96.25,38.84,87.89,40.49,85.54Z"/><path class="cls-14" d="M4.82,178.57l-.64-.6c-3.37-3.12-6.58-9.74-1.63-15.2,2.36-2.6,1.15-5.23-.25-8.29s-2.86-6.24-.9-9.84c4-7.36,10.88-11.42,14.11-11.42a1.21,1.21,0,0,1,1.08.69c1.14,2-.13,8.46-3.54,14-1.87,3.06-1.25,5.83-.58,8.76.74,3.29,1.51,6.7-1.68,10.43C9,169.2,7.54,170.64,6.45,171.7c-2.54,2.47-3.23,3.14-2,6.06Z"/><path class="cls-8" d="M253.71,80.17s3.83-12.23-8.4-16.9a38.16,38.16,0,0,0-22.4-1.68c-.75-2.24-8.59-15.4-27.63-7-5.6-1-15.74,1.9-15.12,20.94s6.85,36-14.06,32.36-21.28-37.46-46.8-35c-6-6.47-25.82-29.77-44.3-18.05a80.66,80.66,0,0,0-22.9,22C46,77,32.18,84.37,28.82,98.06s2.57,21.49,12.82,39.45c7.66,13.41-2.61,24.7,1.87,39.33,4.8,15.66,8.4,18.14,7.37,24.39s1.68,7,1.68,7c-1.86,1.68-5.41,10.36,8.59,10.64s19.51-3.36,19.51-5.41-7.66-9.61-14.56-9.8a15.52,15.52,0,0,0-6.44-8.5c-3.74-2.52-6.94-28.15-4.7-34.38s8.52-19.06,9.46-25.61c17.42,12.17,51.89,12.86,63.1,1.56,1.21,1.31,10.13-1.58,13.56-7,5.94,2.71,29.37,11.76,46,2.24s16.86-27.81,16.86-27.81-.58-7.68,4.61-9.84c4.76-2,15.88-8.89,19.66-3.36,3,4.42,1.62,9.18,6.47,12.57,5.29,3.7,12.45-5.1,11.45-10.45,3.35.44,7.53-1.43,9.09-3.86C256.21,87.65,256.75,83.42,253.71,80.17Z"/><path class="cls-4" d="M55.08,208a5.34,5.34,0,0,1-1.43-2.74c.88-7.08-1.56-12.93-7.53-29-2.87-7.75.38-15.69,2.24-23.9,3-14.56-9-25.39-13.81-38.08-5.19-12.81.84-27.85,11.86-35.93-6.62,2.75-15.06,9.45-17.59,19.75-3.36,13.69,2.57,21.49,12.82,39.45,7.66,13.41-2.61,24.7,1.87,39.33,4.8,15.66,8.4,18.14,7.37,24.39s1.68,7,1.68,7c-1.65,1.49-4.62,8.46,4.44,10.24a10.43,10.43,0,0,1-3.57-3.12C50.19,210.29,55.88,209.64,55.08,208Z"/><path class="cls-4" d="M238.22,102.15c-6.3-1.45-6-9.66-8.78-13.68-1.86-2.75-8.21,0-9.33-2.75a4.39,4.39,0,0,0,.37-1.92c-3,4.8-13.51,9-21,6.42-7.09-2.24-10.92-7.72-11.78-17.83-4.76,14.28,11.78,23.27,8.5,34-7,21.53-25.36,23.39-40.2,21-4.48-.75-9.93-1.8-13.28-6.19-.29,1.35-1.59,2.88-3.09,2.82-2,.06-2.55-4.17-3.73-5.87-.74,2.62-3.69,7.14-10.46,7.55-6.22.37-14.27-2.5-14.94-7.84-.45,1-1.58,3.79-3.54,3.85-1.74-.15-2.18-1.52-2.55-2.57-1,4-6.08,7.17-12.43,8.67-12.32,2.24-19-1.75-22.73-8.15-2.94-5.11-6.7-18-11.87-25.12,6.48,12.7,9,29.23,7,40.64,17.6,11.77,52,12.73,63.1,1.56,1.21,1.31,10.13-1.58,13.56-7,5.94,2.71,29.37,11.76,46,2.24s16.86-27.81,16.86-27.81-.58-7.68,4.61-9.84c4.76-2,15.88-8.89,19.66-3.36,3,4.42,1.62,9.18,6.47,12.57s11.45-3.93,11.54-9.28C245.39,97.24,242,102.46,238.22,102.15Z"/><path class="cls-9" d="M73.55,210.76c.76-1.84,2.24-3.22,5-1.24s4.38,3.82,4.06,4.88c-.41,1.34-5.64,2.8-8.57,1.21C72,214.47,73.55,210.76,73.55,210.76Z"/><path class="cls-10" d="M82.65,214c-.07-1.1-1.61-2.75-4.09-4.52-2.28-1.63-4.15-.91-4.93,1a3.06,3.06,0,0,1,4.1-.83A15.16,15.16,0,0,1,82.65,214Z"/><path class="cls-11" d="M76.43,214.75a3.63,3.63,0,0,1-2.9-3.95c-.18.44-1.44,3.75.52,4.81,2.93,1.59,8.16.13,8.57-1.21a1,1,0,0,0,0-.45A9.53,9.53,0,0,1,76.43,214.75Z"/><path class="cls-12" d="M76.56,216.45a6.58,6.58,0,0,1-2.59-.69c-2.21-1.2-.65-4.9-.58-5.07a3.44,3.44,0,0,1,2.08-2.22,3.81,3.81,0,0,1,3.19.91c3,2.11,4.46,4,4.12,5.07-.14.45-.72.91-1.64,1.29A10.65,10.65,0,0,1,76.56,216.45Zm-.27-7.72a2,2,0,0,0-.73.07,3.16,3.16,0,0,0-1.86,2h0s-1.5,3.59.43,4.64,5,.75,6.88,0c.8-.33,1.34-.73,1.44-1.06.29-.94-1.24-2.74-4-4.7A4.53,4.53,0,0,0,76.29,208.73Z"/><path class="cls-5" d="M139.34,132.12l-.26-.26c5.11-5.07,3.67-10.61,3.66-10.67a7.54,7.54,0,0,1,.28,4.47A13,13,0,0,1,139.34,132.12Z"/><path class="cls-5" d="M62.66,142.19l-.35-.13c7.93-20.82-4.78-47.26-4.91-47.53a52.8,52.8,0,0,1,4.24,10.13C64.65,114.38,67.56,129.34,62.66,142.19Z"/><path class="cls-5" d="M251.66,75.16a9.24,9.24,0,0,0-6.49-6.76c-3.21-.86-4.6.36-5.15,1.17a3.36,3.36,0,0,0,0,3.77,2.2,2.2,0,0,1-1-1.89,3.65,3.65,0,0,1,.64-2.09c1-1.51,3-2,5.55-1.32a9.2,9.2,0,0,1,5.7,4.42A4.91,4.91,0,0,1,251.66,75.16Z"/><path class="cls-15" d="M247.93,76.06s-4.39-5.79-6.16-2.89S247.18,76,247.93,76.06Z"/><path class="cls-16" d="M247.24,75.34c-1.3-1.48-4.13-4.25-5.47-2.06a1.29,1.29,0,0,0-.09.16C241.16,75,245.48,75.26,247.24,75.34Z"/><path class="cls-5" d="M248.34,76.3l-.44,0c-.09,0-.27,0-.53,0-1.55-.07-5.19-.23-5.93-1.64a1.45,1.45,0,0,1,.17-1.5,1.67,1.67,0,0,1,1.39-.9h.09c2.1,0,4.87,3.62,5,3.78Zm-5.25-3.76H243a1.34,1.34,0,0,0-1.09.72,1.1,1.1,0,0,0-.16,1.14c.64,1.22,4.26,1.38,5.62,1.44h.13C246.79,75,244.66,72.54,243.09,72.54Z"/><path class="cls-5" d="M251.71,78.34A8.74,8.74,0,0,0,246,76.13v-.37a9.86,9.86,0,0,1,3.73.82A4.3,4.3,0,0,1,251.71,78.34Z"/><path class="cls-5" d="M204.61,94.76c-5.79,0-10.66-3.33-13.58-7A18.72,18.72,0,0,1,187.21,78a14,14,0,0,1,.51-5.6c0,.09-1.66,8.5,3.6,15.13,4,5,11.72,9.39,20.38,5.14l.17.33A16.32,16.32,0,0,1,204.61,94.76Z"/><path class="cls-5" d="M213.92,92l-.13-.35c6.35-2.41,6.69-7.8,6.69-7.85a5.75,5.75,0,0,1-.82,3.55A10.83,10.83,0,0,1,213.92,92Z"/><path class="cls-5" d="M247.13,93.32c-6.95,0-12.89-7.86-15.65-12.22a10.61,10.61,0,0,1-1.31-3c.08.16,8.26,15.72,17.81,14.79l0,.37A8.64,8.64,0,0,1,247.13,93.32Z"/><path class="cls-9" d="M71.31,212.43c.69-2.05,2.18-3.67,5.35-1.74s5.06,3.8,4.8,5c-.33,1.48-5.9,3.49-9.21,2C69.88,216.6,71.31,212.43,71.31,212.43Z"/><path class="cls-10" d="M81.46,215.27c-.16-1.18-2-2.85-4.8-4.58-2.6-1.58-4.58-.65-5.28,1.51a3.37,3.37,0,0,1,4.4-1.23A16.5,16.5,0,0,1,81.46,215.27Z"/><path class="cls-11" d="M74.77,216.54a4,4,0,0,1-3.48-4c-.15.49-1.25,4.18,1,5.17,3.31,1.5,8.88-.51,9.21-2a1.21,1.21,0,0,0,0-.5A10.37,10.37,0,0,1,74.77,216.54Z"/><path class="cls-13" d="M75,218.38a7.06,7.06,0,0,1-2.87-.55c-2.49-1.12-1.1-5.27-1-5.46a3.73,3.73,0,0,1,2.07-2.57,4.15,4.15,0,0,1,3.55.73c3.38,2.05,5.16,3.94,4.88,5.18-.11.5-.71,1-1.68,1.53A11.6,11.6,0,0,1,75,218.38Z"/><path class="cls-5" d="M123.23,81.07A33.64,33.64,0,0,0,117,70.71l.27-.26a27.21,27.21,0,0,1,3.84,5.31A20.11,20.11,0,0,1,123.23,81.07Z"/><path class="cls-8" d="M105.1,119.09a20.06,20.06,0,0,0,2,12.2c3.24,6.22,5.85,20.28,4.61,25.39-1.58,1.8-2.67,11.88.32,14.43-1.32,5.85-.82,19.17-2.69,24s-1.36,11.58,1.5,13.94c-1.5,1.62-6.35,9.29,6.84,9s18.3-3.15,18.17-5.89-10.2-8-12.07-8.46c.62-1.49-2.86-5.1-4.73-6.47s0-24.89,0-24.89c2.9-.44,4.86-13.13,2.86-15.56.88-1.74,1.52-15.68,7.3-21s9-13,7.76-17.67"/><path class="cls-4" d="M113.55,208.33c-2-.93-3.64-7-1.12-14.94.88-6.37,1.83-18.95,1.87-22.53-1.89-4.82-2.11-11.51-.06-13.62,1-3.05.88-9.28.19-12.59-4.34-13.86-1.53-26.65-2.19-26.8-.59.88-1.82,4.75-3.45,4.83s-2.64-2.45-2.64-3.55c-.2.36-1.43,5.93,1.8,12.16s5.85,20.28,4.61,25.39c-1.58,1.8-2.67,11.88.32,14.43-1.32,5.85-.82,19.17-2.69,24s-1.36,11.58,1.5,13.94c-1.42,1.54-5.88,8.55,5,9C111.44,216.3,111.13,212.58,113.55,208.33Z"/><path class="cls-9" d="M129,210.2c.82-1.92,2.38-3.35,5.26-1.25s4.55,4,4.2,5.15c-.43,1.39-5.93,2.87-9,1.18C127.26,214.07,129,210.2,129,210.2Z"/><path class="cls-11" d="M131.94,214.4a3.79,3.79,0,0,1-3-4.15c-.19.45-1.54,3.9.5,5,3.05,1.69,8.55.21,9-1.18a1.24,1.24,0,0,0,0-.48A9.9,9.9,0,0,1,131.94,214.4Z"/><path class="cls-12" d="M132.06,216.19a6.82,6.82,0,0,1-2.71-.76c-2.29-1.27-.63-5.13-.56-5.31a3.64,3.64,0,0,1,2.2-2.3,4,4,0,0,1,3.34,1c3.07,2.23,4.62,4.18,4.26,5.34-.15.47-.76.94-1.72,1.33A11.23,11.23,0,0,1,132.06,216.19Zm-.21-8.09a2.2,2.2,0,0,0-.77.07,3.26,3.26,0,0,0-2,2.1h0s-1.61,3.74.41,4.85,5.19.83,7.2,0c.84-.34,1.41-.75,1.52-1.1.3-1-1.28-2.88-4.13-5A4.7,4.7,0,0,0,131.85,208.1Z"/><path class="cls-5" d="M109.93,140a38.86,38.86,0,0,1-.53-15.62,23,23,0,0,1,2-6.51c0,.11-4,10.77-1.09,22Z"/><path class="cls-9" d="M127,211.76c.68-2.06,2.17-3.67,5.35-1.74s5.05,3.79,4.79,5c-.33,1.48-5.9,3.49-9.21,2C125.56,215.92,127,211.76,127,211.76Z"/><path class="cls-10" d="M137.15,214.59c-.17-1.18-2-2.85-4.8-4.57-2.61-1.59-4.58-.66-5.28,1.51a3.34,3.34,0,0,1,4.39-1.23A16.6,16.6,0,0,1,137.15,214.59Z"/><path class="cls-11" d="M130.45,215.87a4,4,0,0,1-3.47-4.06c-.16.49-1.26,4.18,1,5.18,3.31,1.49,8.88-.52,9.21-2a1.16,1.16,0,0,0,0-.49A10.4,10.4,0,0,1,130.45,215.87Z"/><path class="cls-13" d="M130.73,217.7a7.11,7.11,0,0,1-2.88-.54c-2.48-1.13-1.1-5.27-1-5.46a3.79,3.79,0,0,1,2.08-2.58,4.14,4.14,0,0,1,3.54.74c3.38,2,5.16,3.94,4.88,5.18-.11.49-.7,1-1.67,1.52A11.6,11.6,0,0,1,130.73,217.7Z"/><path class="cls-2" d="M194,32c-8,2.37-9.09,12.82-6.71,20.66s0,10.08,0,10.08l9.82-4.35C204.6,52.24,200,31.8,194,32Z"/><path class="cls-3" d="M194,32l-.09,0c6.53,5.18,7.62,17.83,3.08,26.21l.25-.14C204.74,52,200,31.8,194,32Z"/><path class="cls-4" d="M189.12,48.9C188,44.37,189,35.45,193.87,32c-7.87,2.43-9,12.82-6.6,20.62s-.13,9.95-.13,9.95S191.9,59.68,189.12,48.9Z"/><path class="cls-5" d="M187.14,62.58s2.25-2.29,0-9.89c-1.73-5.71-1.44-11.78.75-15.85a10,10,0,0,1,6.08-5.05H194c2.05-.05,4.06,2.15,5.51,6,2,5.35,2.35,12.42.29,17.16a6.4,6.4,0,0,1-2.8,3.23c4.6-3.74,4.7-13.43,2.16-20.26-1.35-3.64-3.25-5.79-5.08-5.79H194A9.58,9.58,0,0,0,188.17,37c-2.15,4-2.43,9.95-.72,15.56a20.21,20.21,0,0,1,1.05,6.82C188.36,61.9,187.14,62.58,187.14,62.58Z"/><path class="cls-6" d="M194.6,56.24s-7.47-13.81-2-19.54C194.47,38.69,199.7,50.14,194.6,56.24Z"/><path class="cls-7" d="M194.3,50.53c-2.9-1.61-3-8.59-3.3-10.93-1.88,6.5,3.6,16.64,3.6,16.64a11,11,0,0,0,2.12-8.12C196.22,50,195.19,51.07,194.3,50.53Z"/><path class="cls-5" d="M194.56,56.57l-.13-.24c-.3-.57-7.47-14-2-19.76l.14-.14.13.14c1.87,2,7.2,13.57,2,19.79ZM192.6,37c-4.67,5.22,1.08,17.05,2,18.92C199.28,49.94,194.51,39.27,192.6,37Z"/><path class="cls-5" d="M192.53,61.3a3.92,3.92,0,0,0,1.84-2.15,5.54,5.54,0,0,0-.69-4.34l.33-.17a5.85,5.85,0,0,1,.71,4.63.94.94,0,0,1,0,.09A3.17,3.17,0,0,1,192.53,61.3Z"/><path class="cls-17" d="M231.36,80.54a51.65,51.65,0,0,0,5,16.83c3.28,6.21,7.82-.35,6.78-5.1C237.82,90,233.46,83.92,231.36,80.54Z"/><path class="cls-18" d="M239.38,100.09c-.85,0-2-.48-3.19-2.63a44.91,44.91,0,0,1-3.72-10v0l0-.21h.18A6.87,6.87,0,0,1,237,89.87c2.24,2.59,2.61,7.88,2.67,10v.18h-.28Z"/><path class="cls-5" d="M239.38,100.09c-.89,0-2.07-.51-3.19-2.63a52.13,52.13,0,0,1-5-16.9l-.1-.84.45.72c2.11,3.4,6.44,9.43,11.69,11.66l.09,0,0,.09c.65,3-.92,6.91-3.12,7.71A2.18,2.18,0,0,1,239.38,100.09Zm-7.73-18.74a51.13,51.13,0,0,0,4.87,15.94c1,1.94,2.29,2.76,3.55,2.3,2-.74,3.47-4.34,2.9-7.19C238,90.26,233.91,84.84,231.65,81.35Z"/><path d="M212.37,56.36s-.13-3-2.47-3.54c-6.81-1.57-9.74,5.67-9.74,5.67C203.48,56.07,208.55,52.89,212.37,56.36Z"/><path class="cls-4" d="M206.9,59.1c2.81.18,5.56,3.62,5.38,7.83s-3.21,6.73-6,6.55-5.68-2.34-5.5-6.55S204.09,58.92,206.9,59.1Z"/><path class="cls-5" d="M209.64,60.21s-3.43-2.36-6.25.53C205.2,58,208.11,58.2,209.64,60.21Z"/><path d="M207,60.38c2.64.14,5.48,3.68,5.29,7.3a6.07,6.07,0,0,1-6,5.8c-2.64-.14-5.43-2.93-5.23-6.55S204.37,60.24,207,60.38Z"/><path class="cls-19" d="M207,60.89c2.53.14,4.92,3.32,5.1,6.8.24,4.7-2.28,7.84-6.42,7.18-2.51-.4-4.51-3.24-4.51-6.72C201.15,63.53,204.44,60.76,207,60.89Z"/><path d="M206.73,75.17a7,7,0,0,1-1.1-.09c-2.67-.43-4.69-3.41-4.69-6.93a8,8,0,0,1,2.37-5.92A5.15,5.15,0,0,1,207,60.68h0c2.64.14,5.11,3.41,5.3,7,.13,2.68-.6,4.89-2.07,6.21A5.11,5.11,0,0,1,206.73,75.17Zm.06-14.07a4.81,4.81,0,0,0-3.19,1.44,7.61,7.61,0,0,0-2.24,5.61c0,3.32,1.86,6.12,4.34,6.51a5,5,0,0,0,4.24-1.08c1.37-1.24,2.06-3.33,1.93-5.88-.17-3.38-2.47-6.47-4.9-6.6Z"/><path class="cls-20" d="M204.53,64.37c1.59.09,2.81,1.85,2.7,3.91s-1.49,3.68-3.09,3.58S201.33,70,201.44,68,202.93,64.27,204.53,64.37Z"/><path class="cls-19" d="M202.75,67.88a1,1,0,0,1,.83,1.15,1,1,0,0,1-1.1.84,1,1,0,0,1-.83-1.15A1,1,0,0,1,202.75,67.88Z"/></svg>