<svg id="Layer_1" data-name="Layer 1" xmlns="http://www.w3.org/2000/svg" viewBox="0 0 512 700"><defs><style>.cls-1,.cls-2{fill:#f9dad2;}.cls-1,.cls-19,.cls-5,.cls-6,.cls-9{stroke:#4c2606;stroke-miterlimit:10;}.cls-3{fill:#4c2606;}.cls-4{fill:#323232;opacity:0.4;}.cls-5{fill:#9e3d26;}.cls-17,.cls-6{fill:#d35d3d;}.cls-7{fill:#fff;}.cls-8{fill:#eab6ac;}.cls-9{fill:#aa4027;}.cls-10{fill:#b24a32;}.cls-11{fill:#c14d33;}.cls-12{fill:#2d1c15;}.cls-13{fill:#f58778;}.cls-14{fill:#7a2f2b;}.cls-15{fill:#f9f6f2;}.cls-16{fill:#e3ae9f;}.cls-18{fill:#efa69a;}.cls-19{fill:#9e3a23;}</style></defs><path class="cls-1" d="M107.63,266.47s1.15,8.26,5.09,12.7,14.86,23.51,5,36.59-29.73,1.65-37.6-5.21-13.21-16.89-6.35-17.91c0,0-7-6.1-5-12.7A3.29,3.29,0,0,1,73.08,278s-4.19-6.48-.25-9.53c0,0,3.43-2.28,7.11,1.91a2.6,2.6,0,0,1,1.78-3.81c3.18-.89,5.46,1.65,9.91,6.35a81.56,81.56,0,0,0,9.4,8.38l2.67-.12s.12-2.31-2.54-5.72c-2.29-2.92-1.53-10.67,3.3-10.92C104.46,264.57,107.13,263.8,107.63,266.47Z"/><path class="cls-2" d="M103.57,280.32a5.76,5.76,0,0,1-.38,3.68c-.89,1.65-3.81,8.51-1,13"/><path class="cls-3" d="M104.05,280.2a6.77,6.77,0,0,1,0,2.33,5.16,5.16,0,0,1-.32,1.13,3.65,3.65,0,0,1-.25.53c-.08.16-.17.31-.25.46a22.2,22.2,0,0,0-1.54,4,15.43,15.43,0,0,0-.61,4.22,8.38,8.38,0,0,0,1,4.12,8.5,8.5,0,0,1-1.29-4.11,15.91,15.91,0,0,1,.37-4.35,23.05,23.05,0,0,1,1.35-4.17c.07-.17.16-.34.24-.51a2.49,2.49,0,0,0,.18-.45,3.92,3.92,0,0,0,.21-1,5.89,5.89,0,0,0-.15-2Z"/><path class="cls-2" d="M97,283.11s-8.25,10.42-12.83,20.2"/><path class="cls-3" d="M97,283.11c-2.14,3.4-4.35,6.7-6.51,10.05s-4.25,6.71-6.32,10.15a53.68,53.68,0,0,1,5.48-10.69A67.75,67.75,0,0,1,97,283.11Z"/><path class="cls-1" d="M79.43,269.14s5.59,10.8,14.74,17.78"/><path class="cls-1" d="M72.45,276.89s10.41,13.59,16.76,17.53"/><path class="cls-1" d="M70.54,289.21s9.15,8.64,14.36,12.45"/><path class="cls-1" d="M360.59,457.38s-10.37-1.05-26.18,6.25A77.67,77.67,0,0,0,332,475.54c-.47,5.15,4.09,14.94,4.61,18.94s3.78,4.94,6.38.73-4.78-10,1.68-12.65c0,0,6.75,8.35,6.59,17.72,0,0-.94,5,1.51,5.33,0,0,1.68.25,3-2,0,0,.6,2.22,3.32.62a11.66,11.66,0,0,0,4.1-5.09s3,1.36,4.59-4.62,2.22-11.06,0-19.2S361.21,460,360.59,457.38Z"/><path class="cls-2" d="M354.08,505.11s1.8.28,3.3-6.82.67-11.78-1.62-16.35"/><path class="cls-3" d="M354.16,504.62c-.12,0,0,0,.07-.05a1,1,0,0,0,.22-.15,2.56,2.56,0,0,0,.44-.48,6.37,6.37,0,0,0,.72-1.25,18,18,0,0,0,1-2.84,36,36,0,0,0,1.17-6,22.19,22.19,0,0,0-.14-6.09,21.86,21.86,0,0,0-1.89-5.83,21.94,21.94,0,0,1,2.13,5.78,22.85,22.85,0,0,1,.4,6.18,36.44,36.44,0,0,1-.94,6.14,19.28,19.28,0,0,1-.94,3,7.2,7.2,0,0,1-.76,1.45,3.5,3.5,0,0,1-.57.67,2.58,2.58,0,0,1-.4.29,1.12,1.12,0,0,1-.67.15Z"/><path class="cls-2" d="M361.65,502.09s5.45-6.95,1.21-23.28"/><path class="cls-3" d="M361.25,501.78a11.54,11.54,0,0,0,1.34-2.51,22.1,22.1,0,0,0,.89-2.79,28,28,0,0,0,.73-5.86,42.21,42.21,0,0,0-.29-5.94c-.13-1-.3-2-.45-2.95l-.61-2.92.73,2.9c.2,1,.4,2,.58,2.94a42.73,42.73,0,0,1,.54,6,28.93,28.93,0,0,1-.5,6,20.34,20.34,0,0,1-.81,2.94A11.6,11.6,0,0,1,362,502.4Z"/><path class="cls-3" d="M346.45,486.24a21.5,21.5,0,0,0-2.25-3.79,12.5,12.5,0,0,0-3.17-3.11,13.12,13.12,0,0,1,3.56,2.79,22.16,22.16,0,0,1,2.75,3.66Z"/><ellipse class="cls-4" cx="262.85" cy="621.48" rx="104.74" ry="25.29"/><path class="cls-5" d="M317.92,617.1a23.21,23.21,0,0,1-.13,6.85s-6.58,5.8-24.58,3.9S276,620.48,276,620.48s-3.14-.9-3.8-2.08v-6Z"/><path class="cls-6" d="M272.36,613.39s0,1.49,4.12,3.63a37.56,37.56,0,0,0,11.34,4.91c10.91,2.78,24.39.37,29.7-3.1,0,0,2.53-2.47-4.11-8.9a26.2,26.2,0,0,0-6.38-4.4,42.16,42.16,0,0,0-9-8.57l-3.22-2.36L276,591.46a6.17,6.17,0,0,0-2.83,7.26Z"/><path class="cls-6" d="M298.44,597.4s-1.95-1.87-9.56.33-15.15,7.47-15.94-1.54"/><path class="cls-1" d="M276,591.46v8.91s2.13,1.65,9.57-2.09c0,0,5.75-2.59,9.74-1.27L295,591.3l-19-.17"/><path class="cls-7" d="M289,605.65a7.54,7.54,0,0,1,2.78-3,11,11,0,0,1,3.86-1.52,12.39,12.39,0,0,1,4.12,0c.67.1,1.32.29,2,.45s1.26.48,1.86.8l0,.1-1.92-.38c-.65-.07-1.29-.18-1.94-.2a16.78,16.78,0,0,0-3.88.24,13.21,13.21,0,0,0-3.68,1.24,9.82,9.82,0,0,0-3.07,2.35Z"/><path class="cls-7" d="M291.3,608a7.54,7.54,0,0,1,2.78-3,11.26,11.26,0,0,1,3.87-1.52,12.33,12.33,0,0,1,4.11,0c.67.1,1.33.3,2,.45s1.26.49,1.86.8l0,.1-1.92-.38c-.65-.06-1.3-.18-1.95-.2a17.38,17.38,0,0,0-3.88.24,13.66,13.66,0,0,0-3.68,1.24,10.26,10.26,0,0,0-3.07,2.35Z"/><path class="cls-7" d="M293.72,610a7.52,7.52,0,0,1,2.79-3,11.13,11.13,0,0,1,3.86-1.52,12.6,12.6,0,0,1,4.11,0c.68.1,1.33.3,2,.45s1.27.49,1.86.8l0,.1-1.92-.38c-.65-.06-1.29-.18-1.94-.19a16.89,16.89,0,0,0-3.89.23,13.59,13.59,0,0,0-3.67,1.24,10.17,10.17,0,0,0-3.08,2.36Z"/><path class="cls-5" d="M195.76,619.29a23.93,23.93,0,0,0,.13,6.84s6.34,5.8,23.71,3.9,16.58-7.36,16.58-7.36,3-.91,3.68-2.09v-6Z"/><path class="cls-6" d="M239.73,615.58s0,1.48-4,3.62a35.76,35.76,0,0,1-10.95,4.91c-10.53,2.79-23.54.37-28.67-3.09,0,0-2.43-2.48,4-8.91a25,25,0,0,1,6.15-4.39,41.27,41.27,0,0,1,8.72-8.58l3.1-2.36,18.09-3.14a6.23,6.23,0,0,1,2.74,7.26Z"/><path class="cls-6" d="M214.56,599.58s1.88-1.87,9.23.33,14.61,7.48,15.38-1.54"/><path class="cls-1" d="M236.18,593.64v8.91s-2.05,1.65-9.23-2.09c0,0-5.55-2.58-9.4-1.26l.36-5.72,18.36-.16"/><path class="cls-7" d="M223.6,607.89a17,17,0,0,0-3.25-1.78,18.37,18.37,0,0,0-3.39-1,17.33,17.33,0,0,0-1.76-.25c-.6-.11-1.2-.08-1.81-.15-1.23-.07-2.46,0-3.78-.05l0-.1,1.87-.41c.63-.07,1.26-.19,1.89-.22a15.7,15.7,0,0,1,3.81.2,11.43,11.43,0,0,1,6.53,3.72Z"/><path class="cls-7" d="M221.37,610.2a15.92,15.92,0,0,0-3.24-1.78,17.63,17.63,0,0,0-3.39-1,15.1,15.1,0,0,0-1.77-.26c-.59-.11-1.19-.07-1.8-.15-1.23-.07-2.47,0-3.78,0l0-.1,1.86-.4c.64-.07,1.26-.2,1.9-.22a16.22,16.22,0,0,1,3.81.19,11.36,11.36,0,0,1,6.52,3.73Z"/><path class="cls-7" d="M219,612.26a15.92,15.92,0,0,0-3.24-1.78,17.63,17.63,0,0,0-3.39-1,15.1,15.1,0,0,0-1.77-.26c-.59-.11-1.19-.07-1.8-.15-1.23-.07-2.47,0-3.78,0l0-.09,1.86-.41c.64-.07,1.26-.2,1.9-.22a15.7,15.7,0,0,1,3.81.2,11.29,11.29,0,0,1,6.52,3.72Z"/><path class="cls-6" d="M223.93,306s-.31,0-.91.15c-3.5.69-20.7,5.47-36.55,23.49-7.3,8.31-14.24,11.77-18.91,14.55-7.19,4.28-10.18,5.09-10.18,5.09l-33.1-49.82a148.13,148.13,0,0,1-29.09,25.82s20.36,42.92,55.64,64c0,0,38.19-4.36,51.65-22.91,0,0-4.37,35.28-5.46,71.28s-.73,70.2,18.19,156.39c0,0,12.72,8.73,24,1.09,0,0,11-72.61,7.76-108.62,0,0,9.09,2.06,16.61.61,0,0,10.54,81.83,9.82,103.29,0,0,8.73,9.82,23.64,2.18,0,0,19.27-84.74,20.36-113.48s-7.63-78.92-7.63-78.92,16.36,32,21.82,63.29c0,0,25.09.36,32.37-10.19,0,0-10.55-32.37-23.28-62.92s-26.91-64.74-43.28-76-37.1-6.91-37.1-6.91"/><path class="cls-6" d="M232.18,297s-1-5.33-12.13,7.76c0,0-1.45,7.76,20.37,13.82s36.13-4.6,42-10.42c0,0-1.94-11.4-15.52-8.73S232.18,297,232.18,297Z"/><path class="cls-1" d="M274.61,284.66a30.76,30.76,0,0,0-3.75,11.71,19.34,19.34,0,0,0-.05,2.09,5.34,5.34,0,0,1-2.53,4.73c-14.51,9-29.2,2.27-35.11-1.24a3.71,3.71,0,0,1-1.59-4.38.57.57,0,0,0,0-.14c1.11-3.43.32-5,.32-5S280.19,274,274.61,284.66Z"/><path class="cls-8" d="M273.93,284.66a31.69,31.69,0,0,0-3.62,11.71c-13.37,6-29.38,3.3-37.89,1.06,1.07-3.43.31-5,.31-5S279.32,274,273.93,284.66Z"/><path class="cls-6" d="M212.17,94.24a49,49,0,0,0-32.2-25C154.07,63,128.2,78,122.2,102.84s10.16,50,36.07,56.23a49.41,49.41,0,0,0,14.82,1.32"/><path class="cls-9" d="M192,109.5a23.62,23.62,0,0,0-15.52-12c-12.48-3-24.95,4.22-27.83,16.17s4.89,24.08,17.37,27.1a24.25,24.25,0,0,0,7.14.64"/><path class="cls-6" d="M386.14,173.61a136.2,136.2,0,0,1-1.3,19c-8.06,58.26-53.21,96.92-109.75,96.92-4.22,0-8.39.16-12.51.4q-3.65.22-7.21.48l-.3,0c-26.31,1.88-49.5,4.26-66.78-19.7-5.86-8.12-12.6-45.79-16.79-55.09a144.72,144.72,0,0,1-13-59.1c0-68.71,44.09-103.3,106.56-103.3S386.14,104.91,386.14,173.61Z"/><path class="cls-10" d="M255.37,290.39l.25.61c-.51.07-.77.09-.77.09l.22-.68.15-.42Z"/><path class="cls-10" d="M383.11,196.22c-7.89,55.44-52.09,92.24-107.43,92.24-4.14,0-8.22.15-12.25.38C286.37,283.38,355.23,263.26,383.11,196.22Z"/><path class="cls-11" d="M164.61,142.85s-2-19.16,13.26-22.48,35.1,18.06,59.28,17.69S305,116,325.29,139.17s30.41,102.08-35.88,142.25c0,0-34.32,15.47-60.84,10.32,0,0,5.37-9.19-25.83-33.51S169.68,204.4,167,184.13A312,312,0,0,1,164.61,142.85Z"/><path class="cls-1" d="M334.26,203.18c-2,28.5-14.77,60.06-47.41,81,0,0-32,15.27-56.74,10.18,0,0-11.63,0-40.73-24-26.07-21.51-16.8-54.42-16.43-75.42a47.28,47.28,0,0,0-.29-6.78,325.5,325.5,0,0,1-2.19-40.73s-1.81-18.91,12.37-22.18,32.72,17.82,55.28,17.46,63.28-21.83,82.19,1.09C329.24,154.61,336.06,177.67,334.26,203.18Z"/><path class="cls-12" d="M334.26,203.18c-5.61,4.34-10.29,7.7-28.13-30.66-22.78-49-72.38-25.46-72.38-25.46l-3.27-2.18c-62.31-22.16-50.26,36-57.53,50.05a47.28,47.28,0,0,0-.29-6.78,325.5,325.5,0,0,1-2.19-40.73s-1.81-18.91,12.37-22.18,32.72,17.82,55.28,17.46,63.28-21.83,82.19,1.09C329.24,154.61,336.06,177.67,334.26,203.18Z"/><path class="cls-12" d="M213.05,207.84a12.58,12.58,0,0,0-2.72,3.39,9.45,9.45,0,0,0-1.24,4,15.6,15.6,0,0,0,0,2.05,12.49,12.49,0,0,0,.47,2,14,14,0,0,0,.8,1.91,10.78,10.78,0,0,0,1.17,1.66,8.53,8.53,0,0,0,3.17,2.44,11.39,11.39,0,0,0,4,.81,11.13,11.13,0,0,0,4.17-.68,14.54,14.54,0,0,0,3.87-2l.07.07a12.63,12.63,0,0,1-8.08,3.38,10.78,10.78,0,0,1-4.39-.74,9.48,9.48,0,0,1-3.59-2.64,10.67,10.67,0,0,1-1.26-1.86,13.22,13.22,0,0,1-.82-2.08,12.54,12.54,0,0,1-.46-2.19l0-1.12c0-.38.06-.75.08-1.12a10.85,10.85,0,0,1,4.68-7.35Z"/><path class="cls-13" d="M262.87,239.78s-16.1,24.06-35.35,26.48c-26.08,3.27-26.8-26.51-26.8-26.51l26.61,5.41Z"/><path class="cls-14" d="M262.87,239.78s-18.45,20.83-39.64,20.84c-15.16,0-22.55-22.1-22.55-22.1S225.22,251,262.87,239.78Z"/><path class="cls-15" d="M206.78,241.24h0c.34,5.56,4.26,11.08,16.31,11.59,9.82.42,27.42-2.34,35-10.49,2.21-2.36-1.81-.3-1.81-.3s-35.66,5.92-48-.54"/><path class="cls-13" d="M261.1,240.71S216.2,248.06,196,235C196,235,212.26,256.75,261.1,240.71Z"/><path class="cls-16" d="M262.54,235.71s9.61-.37,4.47,8C267,243.69,269.23,238.82,262.54,235.71Z"/><path class="cls-16" d="M198.93,232.08s-4.39,2.48-.71,8.67C198.22,240.75,190.72,235.24,198.93,232.08Z"/><path class="cls-6" d="M354.46,105.93a52.19,52.19,0,0,1,38.78-16.7c27.81,0,50.37,20.68,50.37,46.19s-22.56,46.19-50.37,46.19a53.85,53.85,0,0,1-15.36-2.2"/><path class="cls-9" d="M371.19,125.5a25.17,25.17,0,0,1,18.69-8c13.4,0,24.27,10,24.27,22.26S403.28,162,389.88,162a26,26,0,0,1-7.4-1.06"/><path class="cls-6" d="M312,411.1s-10.18-52-14.91-74.92"/><path class="cls-6" d="M200.66,385.28s2.91-34.19,5.82-49.46"/><path class="cls-6" d="M157.38,349.27s6.79,7.52,2.54,19.64"/><path class="cls-17" d="M211.57,468.2s45.1,45.1,90.68-1"/><path class="cls-3" d="M211.6,468.17a73.29,73.29,0,0,0,10.22,7.5,80.84,80.84,0,0,0,11.15,5.9,72.16,72.16,0,0,0,11.92,4,57.72,57.72,0,0,0,12.41,1.52,54,54,0,0,0,12.42-1.31,59.22,59.22,0,0,0,11.83-4.11l2.82-1.4c.95-.45,1.82-1.05,2.74-1.56s1.84-1,2.68-1.66l2.6-1.8a29.27,29.27,0,0,0,2.55-1.87l2.51-2c1.62-1.36,3.17-2.8,4.76-4.2l.08.07a77.59,77.59,0,0,1-20.4,15.07,56.35,56.35,0,0,1-12,4.3,54.81,54.81,0,0,1-12.64,1.42,62.55,62.55,0,0,1-24.64-5.78,79.15,79.15,0,0,1-21.12-14Z"/><path class="cls-18" d="M298.86,426.74c0,35.76-22.77,42.92-39.65,42.92s-41.82-15.53-41.82-51.28,21.68-81.47,38.55-81.47S298.86,391,298.86,426.74Z"/><ellipse class="cls-19" cx="347.59" cy="450.38" rx="4.36" ry="4"/><ellipse class="cls-19" cx="110.7" cy="325.76" rx="4.36" ry="4"/><path class="cls-17" d="M301.77,354s5.45-.36,4.36-15.64"/><path class="cls-3" d="M301.73,353.5a1.93,1.93,0,0,0,.78-.29,3.29,3.29,0,0,0,.76-.6,6.82,6.82,0,0,0,1.17-1.65,15.06,15.06,0,0,0,1.25-4,30.3,30.3,0,0,0,.44-4.26c.08-1.44,0-2.88,0-4.32.11,1.44.24,2.88.25,4.32a31.59,31.59,0,0,1-.19,4.34,16.12,16.12,0,0,1-1.07,4.27,7.74,7.74,0,0,1-1.22,1.93,3.26,3.26,0,0,1-.42.41,3.48,3.48,0,0,1-1.68.87Z"/><path class="cls-17" d="M203.45,354.37s-5.84-3.64-3.88-18.92"/><path class="cls-3" d="M203.18,354.79a7.46,7.46,0,0,1-1.77-2,13.12,13.12,0,0,1-1.12-2.33,20.26,20.26,0,0,1-1.11-4.95c-.12-.84-.1-1.68-.16-2.52s0-1.68,0-2.52.1-1.67.19-2.5l.32-2.49-.2,2.5c0,.83,0,1.67-.06,2.5s.05,1.66.08,2.49.13,1.66.29,2.47a18.72,18.72,0,0,0,1.31,4.74,12.84,12.84,0,0,0,1.15,2.13,6.77,6.77,0,0,0,1.57,1.66Z"/><path class="cls-6" d="M282.85,603.86c.73-2.18,10.19-21.46,14.55-15.64a24.46,24.46,0,0,1,4.73,12"/><path class="cls-6" d="M229.6,606c-.7-2.18-9.82-21.45-14-15.63a25,25,0,0,0-4.56,12"/><path class="cls-17" d="M297.89,58.44S261,45.83,241.63,69.59"/><path class="cls-3" d="M297.72,58.91A74.32,74.32,0,0,0,283,55.83a65.09,65.09,0,0,0-15.09.06,44.47,44.47,0,0,0-14.44,4.31,37.46,37.46,0,0,0-11.8,9.39A37.54,37.54,0,0,1,253.31,60a45.25,45.25,0,0,1,14.49-4.59A65.84,65.84,0,0,1,283,55.08a75.79,75.79,0,0,1,15,2.88Z"/></svg>