<svg xmlns="http://www.w3.org/2000/svg" viewBox="0 0 300 256"><defs><style>.cls-1{isolation:isolate;}.cls-2,.cls-20,.cls-4,.cls-7,.cls-9{fill:#365580;}.cls-3{fill:#1d262b;}.cls-4{opacity:0.3;}.cls-14,.cls-4,.cls-9{mix-blend-mode:multiply;}.cls-5{fill:#f2ab95;}.cls-6{fill:#7b7c7f;}.cls-16,.cls-7{opacity:0.5;}.cls-16,.cls-18,.cls-20,.cls-7{mix-blend-mode:screen;}.cls-8{fill:#d6d7d4;}.cls-9{opacity:0.6;}.cls-10{fill:#b4bba7;}.cls-11{fill:#fcfcfc;}.cls-12{fill:#b1b3b6;}.cls-13,.cls-14{fill:#784017;}.cls-14{opacity:0.7;}.cls-15{fill:#19110f;}.cls-17{fill:#a25834;}.cls-18{fill:#d1d1d1;opacity:0.9;}.cls-19{fill:#00000b;}</style></defs><g class="cls-1"><g id="Layer_1" data-name="Layer 1"><path class="cls-2" d="M21,170.45a11.1,11.1,0,0,1,2.68,4.22,37.93,37.93,0,0,0,1.7,4.56c1.44,2.8,3.65,5.4,6.86,6.14,6.63,1.55,12-3.7,17.49-6.46a27.32,27.32,0,0,1,9.82-2.5,74.38,74.38,0,0,1,11.75-.2c3.32.2,6.6.56,9.87,1-9.86-3.35-50.47-16.46-64.89-10.07A23.36,23.36,0,0,1,21,170.45Z"/><path class="cls-3" d="M34.64,185.94h0a11,11,0,0,1-2.48-.29c-3.58-.83-5.81-3.88-7-6.29A23.23,23.23,0,0,1,23.83,176c-.14-.43-.28-.85-.43-1.28a10.88,10.88,0,0,0-2.61-4.1,21.13,21.13,0,0,0-4.19-3l-.47-.28a.26.26,0,0,1-.14-.26.28.28,0,0,1,.17-.25c2.63-1.16,6.28-1.75,10.86-1.75,18.05,0,46,9,54.2,11.81a.28.28,0,0,1,0,.56h0c-3.75-.51-6.88-.83-9.84-1a74.22,74.22,0,0,0-11.71.19,27.25,27.25,0,0,0-9.72,2.48c-1.36.68-2.69,1.51-4.1,2.38C42.28,183.71,38.69,185.94,34.64,185.94ZM16.91,167.19a21.77,21.77,0,0,1,4.29,3.06,11.36,11.36,0,0,1,2.74,4.32l.44,1.29a20.74,20.74,0,0,0,1.25,3.23c1.18,2.31,3.29,5.22,6.66,6a10.41,10.41,0,0,0,2.35.28c3.89,0,7.41-2.19,10.81-4.3,1.36-.84,2.76-1.72,4.14-2.41a27.91,27.91,0,0,1,9.93-2.54,75.22,75.22,0,0,1,11.79-.19c2.18.12,4.45.33,7,.63-10.49-3.44-35-10.86-51.28-10.86A28.28,28.28,0,0,0,16.91,167.19Z"/><path class="cls-4" d="M16.27,167.15a23.36,23.36,0,0,1,4.72,3.3,11.1,11.1,0,0,1,2.68,4.22,39.44,39.44,0,0,0,1.6,4.33,11.82,11.82,0,0,1,2.12,1.5c3.13,2.48,7,2.58,10.76,1.66a23.15,23.15,0,0,0,5.26-2A28.42,28.42,0,0,1,47,178.52a7.77,7.77,0,0,1,4.46-.39,30.75,30.75,0,0,1,8-1.72,74.38,74.38,0,0,1,11.75-.2c3.32.2,6.6.56,9.87,1C71.3,173.87,30.69,160.76,16.27,167.15Z"/><path class="cls-5" d="M23,173.17a17.41,17.41,0,0,1,2.2,2.34c1.84,2.29,3.74,5,6.7,5.85,6.88,2.06,13.11-4.26,18.92-6.87a38,38,0,0,1,11.93-2.9c-16-4.37-37-8.67-46.49-4.44a23.36,23.36,0,0,1,4.72,3.3A11.24,11.24,0,0,1,23,173.17Z"/><path class="cls-6" d="M34.69,182.05h0a9.92,9.92,0,0,1-2.87-.42c-2.77-.83-4.66-3.21-6.33-5.31l-.5-.63a17.08,17.08,0,0,0-2.16-2.3s-.06,0-.07-.09a10.89,10.89,0,0,0-2-2.64,21.13,21.13,0,0,0-4.19-3l-.47-.28a.26.26,0,0,1-.14-.26.28.28,0,0,1,.17-.25c2.62-1.16,6.28-1.75,10.86-1.75,10.91,0,25.49,3.36,35.81,6.18a.29.29,0,0,1,.21.3.28.28,0,0,1-.26.26,37.33,37.33,0,0,0-11.84,2.89,43.4,43.4,0,0,0-5,2.8C42.37,179.77,38.67,182.05,34.69,182.05ZM23.24,173a17.51,17.51,0,0,1,2.19,2.34l.5.63c1.7,2.14,3.46,4.34,6.06,5.12a9.44,9.44,0,0,0,2.7.4h0c3.82,0,7.45-2.24,11-4.41a46.05,46.05,0,0,1,5.06-2.84,37.05,37.05,0,0,1,10.5-2.76C51.05,168.75,37.36,165.7,27,165.7a28.28,28.28,0,0,0-10.11,1.49,21.77,21.77,0,0,1,4.29,3.06A11.7,11.7,0,0,1,23.24,173Z"/><path class="cls-7" d="M28.17,181.78s2.2,4.14,8.8,2.46a27.08,27.08,0,0,0,10.87-5.69s-9.05,5-14.88,4.78C29.47,183.2,28.17,181.78,28.17,181.78Z"/><path class="cls-2" d="M286.28,73.17a76.36,76.36,0,0,0-21.74-2.82A93.57,93.57,0,0,0,237.76,74a133.83,133.83,0,0,0-22.24,9.26c-.49-.44-1.06-.76-1.34-4.45-.39-5-1.85-4-4.38,3-2.36,6.55-10.35,10.11-13.94,12-.94.54-1.81,1-2.61,1.46a296.18,296.18,0,0,1-43.56,18.45l14,18.21c10.65-16.86,46.92-44.15,70.26-52.25,37.29-12.94,57.91-.77,64.75-.5A38.43,38.43,0,0,0,286.28,73.17Z"/><path class="cls-3" d="M163.7,132.27a.31.31,0,0,1-.23-.12l-14-18.2a.31.31,0,0,1-.05-.26.3.3,0,0,1,.19-.19,297.8,297.8,0,0,0,43.52-18.43c.74-.4,1.59-.88,2.6-1.46L197,93c3.92-2,10.48-5.47,12.55-11.23,2-5.61,3-6.33,3.61-6.33s1.14,1,1.32,3.36c.25,3.21.69,3.76,1.1,4.13a132.44,132.44,0,0,1,22.12-9.19,94.38,94.38,0,0,1,26.86-3.63h.06a76.23,76.23,0,0,1,21.76,2.83A39.05,39.05,0,0,1,298.89,79a.29.29,0,0,1-.19.52,32.15,32.15,0,0,1-6.25-1.42,87.81,87.81,0,0,0-25.67-4A100.07,100.07,0,0,0,234.06,80c-22.7,7.87-59.39,35.16-70.12,52.13a.26.26,0,0,1-.23.13Zm-13.54-18.35,13.52,17.56c11-17.08,47.56-44.17,70.19-52a100.65,100.65,0,0,1,32.91-6,88.37,88.37,0,0,1,25.83,4,49.34,49.34,0,0,0,5.07,1.28,39.08,39.08,0,0,0-11.48-5.39,75.51,75.51,0,0,0-21.6-2.81,93.74,93.74,0,0,0-26.76,3.61,132,132,0,0,0-22.19,9.24.29.29,0,0,1-.32,0l-.08-.07c-.5-.45-1.08-1-1.36-4.58-.22-2.8-.73-2.83-.75-2.83-.22,0-1.08.43-3.07,6-2.15,6-8.83,9.46-12.82,11.54l-1.25.66c-1,.58-1.86,1.06-2.61,1.46A299.42,299.42,0,0,1,150.16,113.92Z"/><path class="cls-4" d="M277.49,72.67a135.11,135.11,0,0,0-27.85.88c-9.19,1.14-17.7,4.24-26.11,8-1.39.63-2.64,1.35-4,2.09a5.69,5.69,0,0,1-2.9,1,1.35,1.35,0,0,1-1.3-1.62c-.45-.4-.93-1-1.18-4.31a10,10,0,0,0-.41-2.41,27.89,27.89,0,0,1-5.12,11.42c-3.56,4.87-8.64,8-14,10.47a193.52,193.52,0,0,1-19.8,7.49c-5.81,2-11.6,4.7-17.73,5.47-4.57,1.66-7.39,2.56-7.39,2.56l14,18.21c10.65-16.86,46.92-44.15,70.26-52.25,37.29-12.94,57.91-.77,64.75-.5a32.75,32.75,0,0,0-4.75-3A64.23,64.23,0,0,0,277.49,72.67Z"/><path class="cls-2" d="M189.92,100.31c-4.2,1.76-8.51,3.27-12.69,5.09a102.64,102.64,0,0,1-13.55,4.65,270.31,270.31,0,0,1-28.06,5.72c-4.78.79-9.56,1.68-14.38,2.25a67,67,0,0,1-14-.1q-2.28-.19-4.56-.36c-2.87-.5-5.73-1-8.6-1.49-11.42-1.91-22.81-2.83-34.29-.8a41.65,41.65,0,0,1-5.76,0,18,18,0,0,1-12.11-2c-5-2.88-8.33-7.87-10.86-12.92-1.75-3.49-3.19-7.12-4.59-10.76-1.25-3.25-2.82-7.68-6.72-8.44a9.54,9.54,0,0,0-4,.13c-17,7.68-16.55,39.82-11,57.22.8,2.53,1.78,5.49,2.55,7.81A56.84,56.84,0,0,1,9.51,160c0,4.9-.49,10,3.62,13.49,4.89,4.1,11.09,4.95,17.34,4.61a370.48,370.48,0,0,1,56,1.06c15.19,1.48,30.85,3.13,45.78-1a90.42,90.42,0,0,0,15.37-6.1c4.34-2.11,8.88-3.87,12.94-6.52,3.58-2.34,8.94-6.09,9.15-10.82.16-3.55-4.44-16.65-4.53-20.24-.18-7.35,1.17-14,5.89-19.38a54.46,54.46,0,0,1,8.33-7.36C182.72,105.28,190.71,100,189.92,100.31Z"/><path class="cls-3" d="M110.83,181.07h0c-7.8,0-15.72-.77-23.37-1.52l-1-.09c-11.23-1.1-22.84-1.65-34.5-1.65-7,0-14.25.2-21.51.59-.83,0-1.64.07-2.41.07-6.37,0-11.32-1.56-15.13-4.75S9.18,166,9.22,161.52c0-.51,0-1,0-1.51A54.7,54.7,0,0,0,7,146.4c-.7-2.09-1.72-5.16-2.56-7.8C-1.5,119.81-.94,88.5,15.64,81a9.68,9.68,0,0,1,4.16-.14c3.92.76,5.58,5.1,6.79,8.27l.14.34c1.34,3.49,2.8,7.18,4.58,10.75,3.16,6.33,6.58,10.39,10.74,12.79A18,18,0,0,0,54,115H54c1.12.06,2.46.1,3.6.1a15,15,0,0,0,2.09-.09,77.93,77.93,0,0,1,13.66-1.15,124.29,124.29,0,0,1,20.72,2c2.32.38,4.63.79,7,1.19l1.66.3c1.5.11,3,.22,4.54.36,2.41.21,5.27.42,8.19.42a47.5,47.5,0,0,0,5.76-.32c3.68-.44,7.4-1.07,11-1.69l3.36-.57c10.49-1.73,19.21-3.25,28-5.7a102,102,0,0,0,13.5-4.65c2.32-1,4.72-1.93,7-2.83,1.87-.72,3.79-1.47,5.67-2.26l.16,0a.3.3,0,0,1,.28.2c.08.27.08.27-3.81,3-2.31,1.6-5.18,3.58-6.83,4.83a55.82,55.82,0,0,0-8.28,7.33c-4.17,4.77-6,10.87-5.82,19.19,0,1.65,1.06,5.38,2.15,9.33,1.21,4.42,2.47,9,2.38,10.92-.23,5.14-6.35,9.13-9.28,11.05a69.52,69.52,0,0,1-9.22,4.78c-1.24.57-2.52,1.16-3.76,1.76a87.94,87.94,0,0,1-15.41,6.11A80.25,80.25,0,0,1,110.83,181.07ZM52,177.23c11.68,0,23.31.56,34.55,1.66l1,.09c7.64.75,15.54,1.52,23.31,1.52h0a79.87,79.87,0,0,0,21.38-2.59,88.12,88.12,0,0,0,15.32-6.07c1.25-.61,2.53-1.2,3.77-1.77a69.48,69.48,0,0,0,9.14-4.74c2.86-1.87,8.81-5.75,9-10.59.08-1.84-1.16-6.37-2.37-10.75-1.09-4-2.12-7.75-2.16-9.47-.21-8.47,1.69-14.69,6-19.58a55.75,55.75,0,0,1,8.37-7.4c1.66-1.26,4.53-3.25,6.85-4.85l1.84-1.27-3.61,1.41c-2.31.9-4.7,1.83-7,2.83a102.74,102.74,0,0,1-13.58,4.67c-8.86,2.46-17.59,4-28.09,5.72l-3.36.57c-3.61.61-7.34,1.25-11,1.69a48.62,48.62,0,0,1-5.83.33c-2.94,0-5.82-.22-8.24-.43-1.52-.14-3-.25-4.56-.37l-1.69-.29c-2.31-.41-4.63-.81-6.94-1.2a124.14,124.14,0,0,0-20.63-1.93,76.88,76.88,0,0,0-13.56,1.14,19.06,19.06,0,0,1-2.19.09c-1.13,0-2.48,0-3.6-.1a18.46,18.46,0,0,1-12.27-2c-4.27-2.46-7.75-6.6-11-13-1.8-3.58-3.26-7.3-4.61-10.79l-.13-.35c-1.23-3.21-2.76-7.21-6.37-7.91a9.43,9.43,0,0,0-3.87.12C-.41,88.89-.89,119.84,5,138.42c.83,2.64,1.85,5.71,2.55,7.81A55.93,55.93,0,0,1,9.8,160c0,.5,0,1,0,1.51,0,4.3-.07,8.75,3.52,11.76s8.53,4.62,14.76,4.62c.76,0,1.56,0,2.38-.07C37.72,177.43,45,177.23,52,177.23Z"/><path class="cls-4" d="M189.92,100.31c-4.2,1.76-8.51,3.27-12.69,5.09a102.64,102.64,0,0,1-13.55,4.65,270.31,270.31,0,0,1-28.06,5.72c-4.78.79-9.56,1.68-14.38,2.25a58.19,58.19,0,0,1-10.88.14c.61.23,1.23.47,1.83.72a38.63,38.63,0,0,1,11,6.78c3.1,2.76,6.27,6.08,7.51,10.14A15.83,15.83,0,0,1,126.11,152c-5.18,4.72-12.49,7.21-19.2,8.8A161.21,161.21,0,0,1,84.7,164c-5.31.5-10.81,1.33-16.23,1.35l.54.09a95.63,95.63,0,0,0,12.71,1.63,146.46,146.46,0,0,0,15.68-.39c2.51-.17,5-.51,7.47-.79,2.13-.23,4.22-.89,6.37-.56a.28.28,0,0,1,.21.28c-.49,3.7-4,5.73-7.2,6.83a49.16,49.16,0,0,1-13.85,2.12c-9,.37-18-.57-27-.57-9.32,0-18.65.87-28,.52-5.37-.2-11.38-.49-16.52-2.26-3.84-1.33-7.11-4.08-5.9-8.53,1-3.49,3.55-5.23,6-7.67a55.18,55.18,0,0,0,8.28-10c3.64-6,7.16-12,12.19-16.89,5.38-5.27,11.91-8.74,18.88-11.47a93.72,93.72,0,0,1,10.57-3.43,76.41,76.41,0,0,0-9.12,1,41.65,41.65,0,0,1-5.76,0,18,18,0,0,1-12.11-2c-5-2.88-8.33-7.87-10.86-12.92-1.75-3.49-3.19-7.12-4.59-10.76-1.25-3.25-2.82-7.68-6.72-8.44a9.54,9.54,0,0,0-4,.13c-17,7.68-16.55,39.82-11,57.22.8,2.53,1.78,5.49,2.55,7.81A56.84,56.84,0,0,1,9.51,160c0,4.9-.49,10,3.62,13.49,4.89,4.1,11.09,4.95,17.34,4.61a370.48,370.48,0,0,1,56,1.06c15.19,1.48,30.85,3.13,45.78-1a90.42,90.42,0,0,0,15.37-6.1c4.34-2.11,8.88-3.87,12.94-6.52,3.58-2.34,8.94-6.09,9.15-10.82.16-3.55-4.44-16.65-4.53-20.24-.18-7.35,1.17-14,5.89-19.38a54.46,54.46,0,0,1,8.33-7.36C182.72,105.28,190.71,100,189.92,100.31Z"/><path class="cls-4" d="M21.91,86.05c1.85,3,2.8,6.56,3.92,9.85a70.6,70.6,0,0,0,5.1,12.21c2.52,4.46,9.07,8.94,6.9,14.74-.68,1.8-2.09,3.33-3,5s-2,3.62-2.86,5.5c-.75,1.62-1.46,3.26-2.18,4.9a55.18,55.18,0,0,1,4.93-6.91,36.13,36.13,0,0,1,12.56-9.7,84.43,84.43,0,0,1,16.83-6.15l1.94-.41c1-.29,1.93-.56,2.9-.81a76.41,76.41,0,0,0-9.12,1,41.65,41.65,0,0,1-5.76,0,18,18,0,0,1-12.11-2c-5-2.88-8.33-7.87-10.86-12.92-1.75-3.49-3.19-7.12-4.59-10.76-1.25-3.25-2.82-7.68-6.72-8.44a9.54,9.54,0,0,0-4,.13,17.61,17.61,0,0,0-3.1,1.79C16.05,82,19.82,82.68,21.91,86.05Z"/><path class="cls-8" d="M9.36,151.42a90.09,90.09,0,0,0-1.51-12.25c-1-6-2.14-11.95-2.89-18a66.35,66.35,0,0,1,.39-20.86C6.45,94.57,8.4,88,12.94,84A12.07,12.07,0,0,1,18.77,81a9.85,9.85,0,0,0-3,.26c-17,7.68-16.55,39.82-11,57.22.8,2.53,1.78,5.49,2.55,7.81a70.93,70.93,0,0,1,1.9,9.14A21.32,21.32,0,0,0,9.36,151.42Z"/><path class="cls-6" d="M9.18,155.74h0a.28.28,0,0,1-.28-.24A70.55,70.55,0,0,0,7,146.4c-.7-2.09-1.72-5.16-2.56-7.8C-1.5,119.81-.94,88.5,15.64,81a10.17,10.17,0,0,1,3.15-.27.28.28,0,0,1,.26.27.29.29,0,0,1-.23.3,11.76,11.76,0,0,0-5.69,2.86c-4.75,4.23-6.56,11.28-7.5,16.22a66,66,0,0,0-.38,20.76c.54,4.34,1.29,8.73,2,13,.29,1.66.57,3.33.85,5l.15.92a84.06,84.06,0,0,1,1.37,11.37,22.14,22.14,0,0,1-.19,4.09A.28.28,0,0,1,9.18,155.74Zm7.19-74.29-.55.11C-.41,88.89-.89,119.84,5,138.42c.83,2.64,1.85,5.71,2.55,7.81.67,2.48,1.17,4.71,1.54,6.77,0-.54,0-1.08,0-1.57a85,85,0,0,0-1.36-11.3l-.15-.91c-.28-1.67-.57-3.33-.86-5-.73-4.25-1.49-8.64-2-13a66.87,66.87,0,0,1,.38-20.94c1-5,2.81-12.19,7.69-16.54A12.82,12.82,0,0,1,16.37,81.45Z"/><path class="cls-9" d="M59.81,115.4a25.63,25.63,0,0,0-6.67,1.32,52.41,52.41,0,0,0-6.61,3,41.12,41.12,0,0,0-10.65,8.2c-3.34,3.62-5.64,8.14-8.11,12.36-1.45,2.49-2.71,5.09-4.25,7.52-1.42,2.23-3.68,6.61-6.38,7.36-.07,0-.24.22-.09.19a6.66,6.66,0,0,0,3.39-2.54,58.88,58.88,0,0,0,4.08-5.6c3-4.59,5.64-9.42,8.6-14,6.1-9.5,16-14.41,26.52-17.47C59.71,115.67,60,115.39,59.81,115.4Z"/><path class="cls-9" d="M135.7,149.32c-1.55,5.43-7.45,7.87-12.29,9.61a80.91,80.91,0,0,1-20,4.25c-13.33,1.22-26.74,2.25-40.13,1.9,0,0-.16.11-.09.12a193.15,193.15,0,0,0,22.05.4,208.82,208.82,0,0,0,22.91-1.81,71.58,71.58,0,0,0,18.94-5.31c3.83-1.72,8.85-4.87,9.3-9.49C136.45,148.59,135.76,149.12,135.7,149.32Z"/><path class="cls-8" d="M57.8,177.32s29.11,1.9,40.9,3.61,20.36,1.91,30.82-.57,38.06-16.57,44.33-25.68c8-11.6,7.61-25.11-11-10.65s-31.2,34.62-59,33.48S71.5,175.42,57.8,177.32Z"/><path class="cls-6" d="M113.94,182.51a105.06,105.06,0,0,1-15.28-1.29c-11.65-1.69-40.59-3.6-40.88-3.62a.27.27,0,0,1-.26-.27.29.29,0,0,1,.24-.3A99.07,99.07,0,0,1,72.37,176c4.28,0,9.24.24,16.1.57,4.33.21,9.24.45,15.38.7.75,0,1.5.05,2.23.05,19.57,0,31.31-10.84,43.74-22.31,4.07-3.76,8.28-7.64,12.82-11.16,5.42-4.2,9.64-6.33,12.53-6.33a3.48,3.48,0,0,1,3.33,1.84c1.6,3-.22,9.43-4.42,15.53-6.49,9.43-34.52,23.44-44.49,25.8A66.51,66.51,0,0,1,113.94,182.51Zm-53.23-5.28c7.67.53,28.56,2,38,3.42a103.77,103.77,0,0,0,15.19,1.28,65.41,65.41,0,0,0,15.52-1.85c5.22-1.23,14.72-5.38,23.66-10.32,10.26-5.68,17.73-11.23,20.49-15.24,4-5.84,5.87-12.13,4.38-15a2.93,2.93,0,0,0-2.82-1.53c-1.9,0-5.56,1.08-12.18,6.21-4.51,3.5-8.72,7.38-12.78,11.13-12.52,11.55-24.34,22.46-44.13,22.46-.74,0-1.5,0-2.25-.05-6.15-.25-11.06-.49-15.38-.7-6.86-.33-11.82-.57-16.08-.57A92.06,92.06,0,0,0,60.71,177.23Z"/><path class="cls-10" d="M175.24,142.05c-7-.4-12.15,7.13-16.53,11.53-5.8,5.83-11.45,12.16-18.31,16.78a69.35,69.35,0,0,1-19.12,8.87,88.32,88.32,0,0,1-13,2.78,67.09,67.09,0,0,0,21.23-1.65c10.46-2.47,38.06-16.57,44.33-25.68a30.49,30.49,0,0,0,4.49-9.42C178.12,143.51,177.28,142.17,175.24,142.05Z"/><path class="cls-9" d="M56.94,161.83a5.19,5.19,0,0,0-2.53,2.67.17.17,0,0,0,0,.12,18.79,18.79,0,0,1,11.89-3.84,4.06,4.06,0,0,0-1.65-.61,4.7,4.7,0,0,0-1.35,0c-.76.2-.4.11-.18-.33a4.49,4.49,0,0,0,.45-2.17,1.57,1.57,0,0,0,.24.32c.14.14.42,0,.53-.15a3.88,3.88,0,0,0,.84-2.88,4.17,4.17,0,0,0-3.31-4.15,5.41,5.41,0,0,0-4.22.85,14.49,14.49,0,0,0-1.86,2.82,4.54,4.54,0,0,1,2.7-.69,6.28,6.28,0,0,0-3.6,2.55C53.28,158.6,55.05,160.76,56.94,161.83Z"/><path class="cls-9" d="M27.47,144.32a.13.13,0,0,0,0,.06c-1.06,2.43.44,5.5,3.23,5.59a6.11,6.11,0,0,0,3.32-.8,6.29,6.29,0,0,0,1.63-2.74,4.26,4.26,0,0,0-.62-3.16,2.43,2.43,0,0,0-.93-.77,2.12,2.12,0,0,1,1.08.71c0,.06.17,0,.2-.05.52-.41.28-1.19.21-1.77a3,3,0,0,0-2.82-2.82,5.23,5.23,0,0,0-4.59,2.66,7.8,7.8,0,0,0-.36,1.83,6,6,0,0,1,2.91-1.48A7.11,7.11,0,0,0,27.47,144.32Z"/><path class="cls-11" d="M34.7,145.68a3.28,3.28,0,1,1-3.28-3.29A3.28,3.28,0,0,1,34.7,145.68Z"/><path class="cls-12" d="M31.42,149.25A3.57,3.57,0,1,1,35,145.68,3.58,3.58,0,0,1,31.42,149.25Zm0-6.57a3,3,0,1,0,3,3A3,3,0,0,0,31.42,142.68Z"/><path class="cls-13" d="M33.9,146.12A2.16,2.16,0,1,1,31.74,144,2.16,2.16,0,0,1,33.9,146.12Z"/><path class="cls-14" d="M31.83,145.67A2.68,2.68,0,0,1,33.72,147a2,2,0,0,0,.18-.86,2.16,2.16,0,0,0-4.32,0c0,.07,0,.13,0,.19A2.56,2.56,0,0,1,31.83,145.67Z"/><path class="cls-15" d="M33,146.22a1.41,1.41,0,1,1-1.41-1.41A1.41,1.41,0,0,1,33,146.22Z"/><g class="cls-16"><path class="cls-17" d="M33.48,146.44a1.32,1.32,0,0,0-.66-1.75.42.42,0,0,0-.24-.06.93.93,0,0,0-.29,0c-.49,0-.6.47-.52.86C31.9,146.09,33,147.56,33.48,146.44Z"/></g><path class="cls-18" d="M33.46,146.11a1,1,0,0,0-.5-1.32.33.33,0,0,0-.18,0,.79.79,0,0,0-.22,0c-.37,0-.45.35-.39.64a1.63,1.63,0,0,0,.32.61,1.12,1.12,0,0,0,.33.35l.09,0,.06,0a.2.2,0,0,0,.21,0A.51.51,0,0,0,33.46,146.11Z"/><path class="cls-11" d="M62.37,157.94a3.28,3.28,0,1,1-3.28-3.28A3.28,3.28,0,0,1,62.37,157.94Z"/><path class="cls-12" d="M59.09,161.51a3.57,3.57,0,1,1,3.57-3.57A3.57,3.57,0,0,1,59.09,161.51Zm0-6.56a3,3,0,1,0,3,3A3,3,0,0,0,59.09,155Z"/><path class="cls-13" d="M61.79,158.39a2.16,2.16,0,1,1-2.16-2.17A2.16,2.16,0,0,1,61.79,158.39Z"/><path class="cls-14" d="M59.72,157.94a2.69,2.69,0,0,1,1.89,1.31,2.28,2.28,0,0,0,.18-.86,2.16,2.16,0,1,0-4.32,0,1.21,1.21,0,0,0,0,.19A2.55,2.55,0,0,1,59.72,157.94Z"/><path class="cls-15" d="M60.92,158.49a1.42,1.42,0,1,1-1.42-1.41A1.42,1.42,0,0,1,60.92,158.49Z"/><g class="cls-16"><path class="cls-17" d="M61.36,158.71A1.31,1.31,0,0,0,60.7,157a.6.6,0,0,0-.24-.06,1.38,1.38,0,0,0-.29,0c-.49,0-.6.47-.52.86C59.79,158.36,60.87,159.83,61.36,158.71Z"/></g><path class="cls-18" d="M61.34,158.38a1,1,0,0,0-.5-1.32.35.35,0,0,0-.18-.05h-.21c-.37,0-.46.36-.4.65a1.53,1.53,0,0,0,.33.61,1,1,0,0,0,.32.35l.09,0,.06,0a.18.18,0,0,0,.21,0A.49.49,0,0,0,61.34,158.38Z"/><path class="cls-19" d="M31.64,139.05a3.62,3.62,0,0,0-2,.85c-.39.31-.59.85-.93,1.13,0,0-.16.18,0,.18a.66.66,0,0,0,.43-.16,3.05,3.05,0,0,1,1.57-.62,5.61,5.61,0,0,1,2,.38c.75.26,1.1.83,1.64,1.35.12.12.43-.16.41-.3A3,3,0,0,0,31.64,139.05Z"/><path class="cls-19" d="M56.5,153.31c-.07.1,0,.12.11.07,2.62-1.59,5.38.5,6.77,2.63.13.2.54-.24.57-.36C65,151.43,58.45,150.12,56.5,153.31Z"/><path class="cls-20" d="M212.16,78.15a48.28,48.28,0,0,1-2.54,5.34c-1.56,3-3.87,4.94-6.61,6.85a89.1,89.1,0,0,1-13.87,7.73c-.09,0-.23.27,0,.19a78.92,78.92,0,0,0,8.25-4.07A64,64,0,0,0,205,89.87a18.79,18.79,0,0,0,7.36-11.78C212.34,78,212.17,78.11,212.16,78.15Z"/><path class="cls-20" d="M280.48,72.29A99.22,99.22,0,0,0,264.43,71a88.53,88.53,0,0,0-17,.9,69.1,69.1,0,0,0-14.64,4.23q-3.88,1.55-7.7,3.26c-2.2,1-4.34,2.6-6.6,3.4,0,0-.24.22-.12.21a12.69,12.69,0,0,0,3-1.32c2.4-1,4.82-2.09,7.27-3,5.34-2.07,10.62-4.21,16.26-5.34a105.63,105.63,0,0,1,35.34-.74C280.36,72.53,280.57,72.31,280.48,72.29Z"/><path class="cls-7" d="M78.64,171.92c-5.31-1-11-.75-16.39-.51-6,.27-12,.7-18,.44-5.78-.26-34.29.34-27.73-11.53.08-.14-.19,0-.23,0-7.79,11.41,14,12.75,20.59,13.08s13.5-.13,20.22-.34c7.07-.22,14.22-1.25,21.29-.83C78.47,172.28,78.79,172,78.64,171.92Z"/><path class="cls-7" d="M87.46,117.88c-5-.9-10-1.69-15.15-1.3A55.16,55.16,0,0,0,57.6,120a45.33,45.33,0,0,0-13,7.81c-1.83,1.52-3.61,3.14-5.28,4.83-.87.88-1.6,1.85-2.42,2.78-.52.59-1.19,2.16-1.91,2.45-.11,0-.38.38-.12.32.5-.11.54-.21.87-.61a51.94,51.94,0,0,1,5.71-5.78,54.83,54.83,0,0,1,13.76-9.15c4.6-2,9.87-2.91,14.79-3.86a61,61,0,0,1,17-.4C87.21,118.41,87.67,117.92,87.46,117.88Z"/><path class="cls-7" d="M165,110.61c-7.06,3.08-15,4.77-22.56,6.39-4.3.92-8.65,1.52-13,2.09a65.15,65.15,0,0,1-12.16.6c-.1,0-.43.25-.27.32a19.65,19.65,0,0,0,10.85,1.28c4.54-.55,9.07-1.23,13.54-2.15a101.51,101.51,0,0,0,12.72-3.41A62.42,62.42,0,0,0,165,111C165.15,110.9,165.39,110.43,165,110.61Z"/></g></g></svg>