<svg id="Layer_1" data-name="Layer 1" xmlns="http://www.w3.org/2000/svg" width="410" height="385" viewBox="0 0 410 385">
  <defs>
    <style>
      .cls-1 {
        opacity: 0.2;
      }

      .cls-2 {
        fill: #fcad7a;
      }

      .cls-3 {
        fill: #6b3624;
      }

      .cls-4 {
        fill: #464646;
      }

      .cls-5 {
        fill: #565656;
      }

      .cls-6 {
        fill: #2b2b2b;
      }

      .cls-7 {
        fill: #686767;
      }

      .cls-8 {
        fill: #490303;
      }

      .cls-9 {
        fill: #600404;
      }

      .cls-10 {
        fill: #f5bd91;
      }

      .cls-11 {
        fill: #8c4b2f;
      }

      .cls-12 {
        fill: #a55f41;
      }

      .cls-13 {
        fill: #230f02;
      }

      .cls-14 {
        fill: #f9f9f9;
      }

      .cls-15 {
        fill: #7543ff;
      }

      .cls-16 {
        fill: #9b5735;
      }
    </style>
  </defs>
  <g>
    <ellipse class="cls-1" cx="141.68" cy="364.07" rx="141.13" ry="18.89"/>
    <g>
      <g>
        <g>
          <path class="cls-2" d="M53.85,328.58l.2.51c.91,2.37,4.73,12.26,5.1,12.88,1.74-.49,15.42-.78,28.93,1s18.43,8.74,13.6,10.46c1.32.7,7,6.56-24.33,6.28,4.81,11.43-37.51,8.92-45.09-1.91-5.2-7.43-2.67-12.18-10.9-32.26C19,319.64,12.76,306.23,42,303.9l19,5.72Z"/>
          <path class="cls-3" d="M62.85,367.34c-11.76,0-26.41-3.56-30.57-9.51-2.6-3.71-3.28-6.74-4.32-11.31a117.46,117.46,0,0,0-6.61-21l-.16-.38c-1.33-3.24-3.56-8.64-.72-13.27s10.15-7.42,21.76-8.34h.05l19.3,5.82L54.4,328.49l.16.4c2.12,5.5,4.46,11.5,5,12.66a56.24,56.24,0,0,1,7.39-.33,175.89,175.89,0,0,1,21.43,1.35c9.7,1.26,15.3,5.24,15.63,8.34a2.37,2.37,0,0,1-1.5,2.46,2.21,2.21,0,0,1,.91,2.16c-.7,2.84-8.88,4.34-23.66,4.34H78a3.74,3.74,0,0,1-.35,3.43c-1.71,2.57-7.1,4-14.79,4ZM42.22,304.09c-11.39.91-18.55,3.63-21.28,8.08s-.6,9.42.77,12.75l.16.39a119,119,0,0,1,6.64,21.08c1,4.52,1.69,7.5,4.23,11.12,4,5.8,18.5,9.27,30.11,9.27h0c7.39,0,12.74-1.42,14.32-3.8a3.32,3.32,0,0,0,.16-3.29l-.16-.39h2.57c20,0,22.83-2.74,23.12-3.92.21-.84-.65-1.61-1.07-1.84l-.56-.29.59-.22a2,2,0,0,0,1.61-2.07c-.26-2.48-5.14-6.55-15.14-7.84a174.75,174.75,0,0,0-21.36-1.35,47,47,0,0,0-7.46.36l-.21.06-.11-.18c-.36-.61-3.7-9.24-5.12-12.93l-.24-.6,7.05-18.79Z"/>
        </g>
        <g>
          <path class="cls-4" d="M122.56,258.12a4.54,4.54,0,0,1,.12.53c2.36,13.21-24.24,40.83-49.75,57.29C57.3,326,55.45,333.6,53.4,332.86s-.42-14.61-1.32-13.93a61.88,61.88,0,0,0-9.2,9.35C40.65,325.42,45,311.75,45,311.75c-5.65,3.49-15.69,2.17-15.69,2.17,8.18-4.21,10-8.23,10-8.23A14.94,14.94,0,0,1,25.67,304c8.55,0,19.83-8.46,26.62-18.13,9.86-14,17.65-23.94,17.64-24.47-.1-5.06-29.35-32.61-30.84-71.56,0,0,83.45,61.32,83.56,68.68"/>
          <path class="cls-5" d="M122.68,258.65a4.54,4.54,0,0,0-.12-.53l.09.35c-.07-5.11-40.25-36.17-64.86-54.73-2,14.95,4.49,30.29,19,36.9-2.58.42-7.72-.18-10.5-2.41,3.4,7.71,13.85,12.45,22.21,10.22-11.15,6.13-15.61,19.71-17.85,31.42,0-2.23-.55-6.88-.55-9.11-6.14,6.69-9.21,17.66-16.46,23.8a13.43,13.43,0,0,1,.58-5.94,36.7,36.7,0,0,0-7.55,17.84c3.35.55,6.14-1.12,8.93-1.68-1.12,3.91-5,5-7.26,8.37,4.47.56,9.49-1.68,13.95-1.12-7.81,1.68-7.81,12.83-6.69,19a1.34,1.34,0,0,0,.07.27,66.06,66.06,0,0,1,17.22-15.33C98.44,299.48,125,271.86,122.68,258.65Z"/>
          <path class="cls-6" d="M53.69,333.19a1.06,1.06,0,0,1-.38-.07c-1.32-.48-1.35-4.58-1.24-9.88a39.05,39.05,0,0,0,0-3.92,62.83,62.83,0,0,0-8.94,9.13l-.22.28-.22-.28c-2-2.6,1-13.27,1.83-16.1-5.73,3-14.85,1.89-15.24,1.84l-.89-.11.79-.41c6.14-3.16,8.65-6.23,9.49-7.49a15.08,15.08,0,0,1-13.12-2l-.79-.51h.94c7.84,0,19.18-7.75,26.39-18,5.29-7.53,10-14,13.19-18.21,2.4-3.24,4.29-5.8,4.4-6.15,0-1.22-2.2-4.26-5.21-8.48-8.57-12-24.54-34.41-25.63-63l0-.57.46.34c3.41,2.5,83.48,61.41,83.68,68.88a.77.77,0,0,1,0,.15c2.41,13.43-24.35,41.12-49.87,57.57a65.32,65.32,0,0,0-16.49,14.48C55.25,332.27,54.49,333.19,53.69,333.19Zm-1.55-14.56a.32.32,0,0,1,.16,0c.37.19.4,1,.33,4.58-.07,3.35-.18,9,.87,9.34.58.22,1.32-.68,2.66-2.3A66.15,66.15,0,0,1,72.77,315.7c25.38-16.36,52-43.79,49.64-57,0-.17-.07-.34-.12-.51h0c-1.72-6.67-54.45-46.87-82.94-67.82,1.28,28.16,17,50.24,25.51,62.14,3.18,4.46,5.28,7.4,5.31,8.84,0,.32-.74,1.34-4.51,6.44C62.55,272,57.8,278.46,52.52,286c-6.15,8.76-16.88,17.63-25.91,18.21a14.51,14.51,0,0,0,12.55,1.23l.6-.2-.25.58c-.08.16-1.8,3.89-9.28,7.93,2.58.22,10.08.57,14.59-2.21l.64-.4-.23.72c0,.13-4,12.67-2.33,16a61.3,61.3,0,0,1,9-9.09A.4.4,0,0,1,52.14,318.63Z"/>
        </g>
        <path class="cls-3" d="M77.73,360.08c-2.89-2.23-6.89-2.31-11.12-2.39-3.54-.07-7.18-.14-10.25-1.54a8.51,8.51,0,0,1-2.08-1.94c3.32,2.75,7.9,2.84,12.34,2.92s8.42.17,11.45,2.51Z"/>
        <path class="cls-3" d="M102.15,353.79C87.77,346.24,59.94,347,59.94,347c.28,0,28-1.36,42.47,6.26Z"/>
        <path class="cls-6" d="M70.12,261.55l-.39-.4a104.49,104.49,0,0,1,11.13-8.75S74.63,257.29,70.12,261.55Z"/>
      </g>
      <g>
        <path class="cls-4" d="M241.55,34.09c1.68-1.4-12-.93-12-.93s24.61-6.49,26.15-13.25c.48-2.12-7.53-2.44-7.53-2.44s11.64-10.25,22.52-6.62c-5.3-5.72-5-8.37-5-8.37s7.74,4.32,13.94,4.18c28.79-.64,37.84-4.18,52.85,3.21,20.15,9.92,38.76,24.82,38.76,27.05s-2.42,9.65-.69,12.55a90.27,90.27,0,0,0,21.61,24c5.24,4,5.65,8.07,8.36,10.45,2,1.75,3.19,2.34,6.65,3.82,3.24,1.39,4,6.72-7.71,11.52,2,2,15.47,9.53-10.93,18.83-5.92,10.31-60.51,31.51-95.23,1.16l-10.31.56L208.27,46.54S237.09,37.43,241.55,34.09Z"/>
        <path class="cls-4" d="M241.55,34.09c1.68-1.4-12-.93-12-.93s24.61-6.49,26.15-13.25c.48-2.12-7.53-2.44-7.53-2.44s11.64-10.25,22.52-6.62c-5.3-5.72-5-8.37-5-8.37s7.74,4.32,13.94,4.18c28.79-.64,37.84-4.18,52.85,3.21,20.15,9.92,38.76,24.82,38.76,27.05s-2.42,9.65-.69,12.55a90.27,90.27,0,0,0,21.61,24c5.24,4,5.65,8.07,8.36,10.45,2,1.75,3.19,2.34,6.65,3.82,3.24,1.39,4,6.72-7.71,11.52,2,2,15.47,9.53-10.93,18.83-5.92,10.31-72.17,21.57-94.9-7.07l-10.64,8.79L208.27,46.54S237.09,37.43,241.55,34.09Z"/>
        <path class="cls-5" d="M407.11,87.73c-3.46-1.48-4.66-2.07-6.65-3.82-2.71-2.38-3.12-6.45-8.36-10.45a90.27,90.27,0,0,1-21.61-24c-1.73-2.9.69-10.32.69-12.55S352.57,19.79,332.42,9.87c-15-7.39-24.06-3.85-52.85-3.21-6.2.14-13.94-4.18-13.94-4.18a.67.67,0,0,0,0,.16c2.65,4.27,5.5,9.21,10.87,8.77-6.69,3.9-15.05-.56-21.19,5h10.6c-6.7,1.11-10.6,7.25-14,12.27,1.68-1.68,4.47-2.24,6.7-2.79-3.91,6.13-11.16,4.46-17.29,4.46,3.34,1.67,7.25,3.35,11.15,2.79a21.31,21.31,0,0,0-13.38,7.25c3.9-.56,7.25-1.67,11.15-1.67-1.67,6.69,3.9,12.82,7.81,18.4,3.9,7.25-6.69,7.81-11.16,7.25a95.38,95.38,0,0,1-27-6.4l63,61.81L293.57,111c22.73,28.64,89,17.38,94.9,7.07,26.4-9.3,13-16.88,10.93-18.83C411.07,94.45,410.35,89.12,407.11,87.73ZM299.4,82.12c-15,11.53-21.78-12.71-20.66-24.42,3-18.31,16.59-11.85,17.29-11.16C295.33,45.85,306.55,69.46,299.4,82.12Z"/>
        <path class="cls-7" d="M307.74,6.94c-.56.56-1.67,1.68-1.67,2.79,12.27-2.23,25.65,0,35.13,7.81-3.9-1.11-7.25-2.23-11.15-1.67,20,5.67,26.21,13.38,39.6,21.75a4.87,4.87,0,0,0,1.39.64,10.17,10.17,0,0,0,.14-1.34c0-2.23-18.61-17.13-38.76-27.05-15-7.39-24.06-3.85-52.85-3.21-6.2.14-13.94-4.18-13.94-4.18h0C273.79,10.55,294.28,11.12,307.74,6.94Z"/>
        <path class="cls-6" d="M208.19,46.28c.29-.09,28.76-9.11,33.18-12.4-.8-.5-6.54-.62-11.85-.44l-2.48.08,2.4-.63c.25-.07,24.47-6.52,25.95-13a.54.54,0,0,0-.12-.46c-.88-1.15-5.46-1.57-7.15-1.64l-.7,0,.52-.46c.12-.1,11.22-9.72,21.83-7-4.63-5.24-4.43-7.74-4.42-7.85l0-.42.36.21c.08,0,7.51,4.15,13.52,4.15h.29c7.63-.18,13.78-.54,19.2-.87,14.62-.88,22.67-1.36,33.77,4.1,19.38,9.54,38.92,24.74,38.92,27.3a20.77,20.77,0,0,1-.49,3.24c-.58,3.05-1.39,7.24-.24,9.17a90.11,90.11,0,0,0,21.54,23.9,21.27,21.27,0,0,1,5.81,7,13.45,13.45,0,0,0,2.57,3.52c1.92,1.69,3,2.26,6.57,3.78a3.44,3.44,0,0,1,2.23,3.23c0,1.4-1,5-9.53,8.63l.48.38c1.75,1.4,5,4,4.43,7.41-.65,3.85-6.09,7.61-16.17,11.17-3.1,5.21-17.41,12.63-35.29,15.62a92.78,92.78,0,0,1-15.2,1.27A78.63,78.63,0,0,1,319,132.91l.66-.41c13,3.18,25.47,2.22,33.58.87,17.26-2.89,32-10.31,35-15.43l0-.09.1,0c9.94-3.5,15.29-7.12,15.9-10.77.52-3.09-2.57-5.56-4.23-6.88-.35-.28-.65-.52-.85-.71l-.31-.29.4-.17c8.64-3.55,9.59-7,9.6-8.29A2.91,2.91,0,0,0,407,88c-3.43-1.47-4.7-2.09-6.73-3.87a13.59,13.59,0,0,1-2.68-3.66,20.79,20.79,0,0,0-5.67-6.78,90.94,90.94,0,0,1-21.68-24.07c-1.26-2.11-.43-6.42.18-9.56a22.22,22.22,0,0,0,.47-3.13c0-1.85-17.8-16.56-38.6-26.8-11-5.4-18.5-4.94-33.49-4-5.43.32-11.59.69-19.23.86-5.41.13-11.86-3-13.63-4,.18,1,1,3.49,4.9,7.69l.74.8-1-.35c-9.28-3.09-19.29,4.2-21.7,6.12,1.74.12,5.86.52,6.86,1.82a1.11,1.11,0,0,1,.21.92c-1.29,5.71-18,11.07-24.16,12.85,4.38-.09,9.83,0,10.17.89a.49.49,0,0,1-.21.59c-4.2,3.16-29.1,11.15-32.92,12.37l75.69,71.06-.38.4L207.73,46.42Z"/>
        <path class="cls-2" d="M406.87,87.83c-3.47-1.49-4.67-2.08-6.65-3.82-2.72-2.38-3.13-6.45-8.37-10.46a90.25,90.25,0,0,1-21.61-24c-1.72-2.91.59-10.32.69-12.55.07-1.47-11.19-9-23-11.71-10-2.36-20.2.23-27.61,10.36-7.85,10.73-8,43.23,10.13,53.64-5.48,1-22.59,14.13-6.51,33.28,5.72,6.8,14.66,10.29,23.87,11.88,20.36-2.26,37.26-10.81,40.41-16.3,26.4-9.3,13-16.87,10.93-18.82C410.82,94.55,410.1,89.21,406.87,87.83Z"/>
        <path class="cls-2" d="M356.19,65.27c-1.32,10.88-3.73,15.58-7.71,15.58s-8.11-5.16-9.76-16c-2.41-15.89,5.78-23.69,9.76-23.69S358.09,49.42,356.19,65.27Z"/>
        <path class="cls-3" d="M348.28,134.07c20.35-2.31,37-10.93,40-16.13l0-.09.1,0c9.94-3.5,15.29-7.12,15.9-10.77.52-3.09-2.57-5.56-4.23-6.88-.35-.28-.65-.52-.85-.71l-.31-.29.4-.17c8.64-3.55,9.59-7,9.6-8.29A2.91,2.91,0,0,0,407,88c-3.43-1.47-4.7-2.09-6.73-3.87a13.69,13.69,0,0,1-2.68-3.65,20.71,20.71,0,0,0-5.67-6.79,90.94,90.94,0,0,1-21.68-24.07c-1.31-2.19-.43-6.67.2-9.93.07-.33.13-.64.18-.94.15-.76.27-1.83.27-1.83l.56,0s-.13,1.39-.35,2.52c0,.11-.07.33-.09.44-.58,3-1.49,7.42-.29,9.43a90.11,90.11,0,0,0,21.54,23.9,21.27,21.27,0,0,1,5.81,7,13.45,13.45,0,0,0,2.57,3.52c1.92,1.69,3,2.26,6.57,3.78a3.44,3.44,0,0,1,2.23,3.23c0,1.4-1,5-9.53,8.63l.48.38c1.75,1.4,5,4,4.43,7.41-.65,3.85-6.09,7.61-16.17,11.17-3.12,5.23-19.25,14-40.56,16.35Z"/>
        <path class="cls-3" d="M387.79,118.21a33.47,33.47,0,0,1-8.37-1.31,44.8,44.8,0,0,0,9.57.71l0,.55C388.62,118.19,388.21,118.21,387.79,118.21Z"/>
        <path class="cls-8" d="M377.55,104.16c7.31,3,17.51,6.43,20.06,3,1-1.36,0-4.57-1-7A93.18,93.18,0,0,1,377.55,104.16Z"/>
        <path class="cls-9" d="M389,102.22c2.61-.6,4.55-1.15,7.56-2.07a15.26,15.26,0,0,1,1.44,5.64C397.17,109.11,390.72,105.51,389,102.22Z"/>
        <path class="cls-3" d="M393.61,108.89h0c-4.46,0-11.25-2.43-16.17-4.47l-1-.43,1.12-.1a94,94,0,0,0,19-4l.24-.07.1.23c1.55,3.68,1.88,6.15,1,7.33C397.07,108.38,395.65,108.89,393.61,108.89Zm-14.92-4.56c4.75,1.92,10.85,4,14.92,4h0c1.85,0,3.13-.43,3.78-1.3s.38-3.28-1-6.54A96.56,96.56,0,0,1,378.69,104.33Z"/>
        <g>
          <path class="cls-2" d="M305.88,56.17c0-.77,0-1.56-.05-2.93C305.78,47.49,303,38,293,41c-5.8,1.73-11.16,7.6-10,21.19.88,10.53,4,20.24,10,21.18,4.7.74,10.78-1.58,12.23-7.75a26.4,26.4,0,0,0,.66-4.14C306.09,67.19,306.08,60.08,305.88,56.17Z"/>
          <path class="cls-10" d="M301.35,67.68c1.5-5.42,2.42-15.6-4.74-16.49-7.87-1-8.37,7.39-8.37,7.39s7.13-9.55,11.25-.41c2.3,5.09-5.59,4.55-6,8.65C296.22,63.42,299.45,64.67,301.35,67.68Z"/>
          <path class="cls-3" d="M294.94,83.67a10.71,10.71,0,0,1-1.79-.14c-5.35-.84-9.16-8.85-10.21-21.42-1.31-15.65,5.84-20.18,10.22-21.49,4-1.19,7.19-.55,9.56,1.89,3.89,4,4,11.62,3.24,14,0,0,1-8.27-3.65-13.59-2.09-2.38-5.23-2.87-9-1.74-4.22,1.26-11.1,5.65-9.83,20.9,1,12.3,4.67,20.12,9.74,20.92a11.82,11.82,0,0,0,9.06-2.6c3.36-2.69,3.7-8.76,3.7-8.76.3,4.8-1.64,7.64-3.32,9.17A11.59,11.59,0,0,1,294.94,83.67Z"/>
        </g>
        <g>
          <path class="cls-11" d="M336.71,50.11h0a.38.38,0,0,1-.33-.2.62.62,0,0,1-.06-.29c1.52-12.19,14.32-14.82,17.4-14.82H354c2.18.15,3.11,2.16,3.07,4.1,0,1.53-.66,2.61-1.5,2.62a24.94,24.94,0,0,0-17.5,7.58C337.25,49.87,337,50.11,336.71,50.11Z"/>
          <path class="cls-12" d="M355.7,39.72a1.79,1.79,0,0,0,1.33-.64c0-.06,0-.11,0-.17,0-1.94-.89-3.95-3.07-4.1h-.26a21.24,21.24,0,0,0-12.22,4.94,13.42,13.42,0,0,0-3.64,6.68A38.42,38.42,0,0,1,355.7,39.72Z"/>
          <path class="cls-3" d="M336.71,50.39a.65.65,0,0,1-.58-.35.9.9,0,0,1-.09-.42c1.6-12.82,15.42-15.25,18-15.09,2.36.16,3.37,2.32,3.32,4.39,0,1.68-.76,2.87-1.77,2.89a24.69,24.69,0,0,0-17.31,7.5C337.41,50.09,337.1,50.39,336.71,50.39Zm17-15.31c-3,0-15.63,2.59-17.12,14.58a.27.27,0,0,0,0,.12.08.08,0,0,0,.08,0h0c.16,0,.49-.3,1.14-.92a25.25,25.25,0,0,1,17.69-7.66c.68,0,1.2-1,1.23-2.35,0-1.8-.81-3.68-2.81-3.81Z"/>
        </g>
        <path class="cls-2" d="M377.3,92.38l21.93,6.93-.08,0-2,.65c-36.93,11.64-43.89-3-43.89-3Z"/>
        <path class="cls-3" d="M372.58,104.66a34,34,0,0,1-10.75-1.52c-6.68-2.21-8.53-6-8.61-6.14,0,0,2.36,3.51,8.85,5.63,6,2,17.37,2.94,37.24-3.64l.17.53C387.83,103.38,379.07,104.66,372.58,104.66Z"/>
        <g>
          <g>
            <path class="cls-13" d="M355.77,67c0,6.73-3.24,11.85-7,11.85s-8.22-5-8.22-11.67,4.46-12.68,8.22-12.68S355.77,60.23,355.77,67Z"/>
            <path class="cls-14" d="M355.5,68.57c0,6.73-3.05,12.18-6.8,12.18s-7.87-5.32-7.87-12,4.11-12.31,7.87-12.31S355.5,61.85,355.5,68.57Z"/>
            <g>
              <path class="cls-15" d="M354.71,71.27c0,3.16-1.45,5.72-3.23,5.72s-3.23-2.56-3.23-5.72,1.44-5.73,3.23-5.73S354.71,68.1,354.71,71.27Z"/>
              <path class="cls-13" d="M353.82,71.65c0,2.13-1,3.85-2.17,3.85s-2.17-1.72-2.17-3.85,1-3.85,2.17-3.85S353.82,69.52,353.82,71.65Z"/>
            </g>
            <path class="cls-13" d="M348.7,81c-3.85,0-8.15-5.27-8.15-12.32s4.38-12.59,8.15-12.59,7.07,5.59,7.07,12.46S352.6,81,348.7,81Zm0-24.35c-3.51,0-7.59,5.25-7.59,12,0,6.62,4.08,11.76,7.59,11.76s6.52-5.33,6.52-11.89S352.29,56.68,348.7,56.68Z"/>
          </g>
          <path class="cls-14" d="M353.42,69.92a1,1,0,1,1-1-1A1,1,0,0,1,353.42,69.92Z"/>
        </g>
        <path class="cls-3" d="M359.5,83.26c.06-.11,6.2-11.34,18.56-11.34v.56C366,72.48,359.5,83.26,359.5,83.26Z"/>
        <g>
          <path class="cls-10" d="M386.47,65.05c1.4,3.68-1.16,4.82-4.83,6.22s-8,1.82-9.44-1.86.52-9.66,4.19-11S385.08,61.36,386.47,65.05Z"/>
          <path class="cls-3" d="M386.74,65c-1.28-3.37-5.34-7.14-8.86-7.14a4.54,4.54,0,0,0-1.38.23c.08.07-.18.23-.11.32h0a2.4,2.4,0,0,1,.27.28,6,6,0,0,1,1.22-.27c3.24,0,7.14,3.64,8.33,6.78,1.29,3.4-.93,4.44-4.67,5.86a13.71,13.71,0,0,1-4.7,1c-2.23,0-3.7-.9-4.38-2.69-.37-1-.75-3.44-.93-3.5a8.56,8.56,0,0,0,.41,3.7c.76,2,2.45,3,4.9,3a14.35,14.35,0,0,0,4.9-1C385.11,70.25,388.29,69,386.74,65Z"/>
        </g>
      </g>
      <g>
        <path class="cls-4" d="M208.27,212.38s1.54,2.82.37,3C197,216.94,189.77,302.27,159,346.24c-7,8.09-19.7-30.86-15.24-73.81S151,236.36,151,236.36s12.27-5,9.3-40.71c-1.12-25.29,71.76-78.83,70.64-57.26S208.27,212.38,208.27,212.38Z"/>
        <path class="cls-12" d="M158.38,289.41a5.65,5.65,0,0,0-.68-.8C157.93,288.87,158.16,289.13,158.38,289.41Z"/>
        <path class="cls-5" d="M172.76,238.41c-.55-4.46-2.79-8.92-3.34-13.39-1.68,13.39.55,26.22,1.67,39.6-5.58.56-6.14-6.69-7.25-10.59,2.16,16.78,5.38,34.09-1.58,49.88a11.3,11.3,0,0,1-.65,1.43c.23-.47.44-.95.65-1.43,2-5.29-.58-10.49-3.88-14.5a8.86,8.86,0,0,1,1.55,5.33c1.12,13.39-8.11,53.64,6.66,39,24.49-45.86,31.46-117,42-118.41,1.17-.16-.37-3-.37-3s8.51-20.67,15.11-41.4C197.05,184.78,175.93,208.35,172.76,238.41Z"/>
        <path class="cls-12" d="M162.26,303.91c-.21.48-.42,1-.65,1.43A11.3,11.3,0,0,0,162.26,303.91Z"/>
        <path class="cls-6" d="M157,347.59a4.23,4.23,0,0,1-3-1.71c-6.81-7.54-14.1-39.15-10.54-73.48,2.53-24.36,4.91-36.72,7.05-36.72a.73.73,0,0,1,.59.32c1.59-.91,11.61-7.92,8.91-40.33-.33-7.48,5.82-18.22,17.31-30.23,16.49-17.23,39.38-32.34,49-32.34a5,5,0,0,1,3.76,1.32,5.17,5.17,0,0,1,1.14,4c-1.08,20.87-21.49,71.13-22.65,74,.28.53,1,2.13.68,2.87a.72.72,0,0,1-.58.39c-4.83.66-9.15,17.4-14.62,38.61-7.3,28.33-17.31,67.13-34.83,92.16A2.92,2.92,0,0,1,157,347.59Zm-6.48-111.35c-.45,0-2.91,1.75-6.49,36.22-3.55,34.18,3.66,65.58,10.39,73.05,1.63,1.81,3.1,2,4.36.55,17.44-24.92,27.44-63.67,34.73-92,5.74-22.24,9.89-38.31,15.09-39a.18.18,0,0,0,.15-.09c.2-.41-.31-1.69-.73-2.48l-.07-.11.06-.12c.21-.53,21.56-52.64,22.66-73.91a4.68,4.68,0,0,0-1-3.57,4.45,4.45,0,0,0-3.36-1.14c-9.49,0-32.19,15-48.58,32.16-11.39,11.91-17.49,22.5-17.16,29.82,2.95,35.48-9,40.77-9.47,41l-.26.11-.11-.26C150.72,236.39,150.62,236.24,150.53,236.24Z"/>
      </g>
      <g>
        <path class="cls-4" d="M271.49,68.32c-32.35-49.11-111.9-21.56-142-2.78-18.33,11.43-50.11,30.35-73,47.65-36.27,27.46-21.19,62.29-28,83.39A31.15,31.15,0,0,0,37.42,186c1,17.71,7.76,22.66,8.87,22.94-1.67-11.09.28-12.55.28-12.55s96.52,39.07,102.28,24.19S166.63,201,167.19,201s-1.1,7.74,1,10.53c.6-3.58,12.53-10.53,16.72-20.1a3,3,0,0,1,1.76-1.72s.37,6.46,1.86,6.83c6.69-13.57,23.79-26.22,35.37-40.86,6.91-8.74,36.76,4.23,44.57.89,14.87-22.31,61.26-25,61.26-25Z"/>
        <path class="cls-12" d="M63.77,200.39c2.27.73,4.72,1.5,7.29,2.3q-3.81-5.59-7.62-11.13A35.46,35.46,0,0,0,63.77,200.39Z"/>
        <path class="cls-5" d="M326.65,127.81,271.49,68.32c-32.35-49.11-111.9-21.56-142-2.78-17.58,11-47.4,29-70.09,45.54a93.61,93.61,0,0,0-12.64,44.78c3.91-2.79,5-7.81,8.37-10.59-3.35,11.15-6.7,22.31-4.46,34,1.18,5.93,2.53,12.64,5.2,18.47,2.28.77,5,1.66,8,2.63a35.46,35.46,0,0,1-.33-8.83q3.82,5.52,7.62,11.13a203.19,203.19,0,0,0,44.07,7.85c-10.2-9.2-18.42-21.6-24.36-33.48-1.67-3.35,0-10.6,5-11.16,9.49-1.11,18.41,2.79,26.22,7.25,8.92,5.58,16.73,12.83,27.33,14.5,11.71,2.79,20.63-3.9,25.65-13.94-2,9.67-1.67,17.2.56,21.11,9.76-23.84,8.93-24.92,19-36.63,0,5.58-1.86,13.67-1.86,19.24,5-13.38,27.7-31.23,32-59.49.38-2.47,2.24-4.47,2.24-6.7a242.24,242.24,0,0,0,6.69,27.33,16.57,16.57,0,0,0,2.35,4.17c11.38,1.85,26,7.85,31.17,5.64,12.21-10.18,14.46-15.26,27.48-17.57,3.35-2.57,4.25-7.43-.29-10.64,9.45,6.3,20.38,6.67,31.4,7.62Z"/>
        <path class="cls-7" d="M135.59,61.89c37.46-21.21,102.55-35.06,132.27,1.5-11.92-6.74-29.37-16.1-40-17.4C198.9,42.43,163.58,52.26,135.59,61.89Z"/>
        <path class="cls-6" d="M28.23,196.49c2-6.28,2.09-13.92,2.16-22,.18-18.8.4-42.2,25.91-61.51C75.33,98.57,100.58,83,119,71.66c3.74-2.3,7.2-4.43,10.29-6.35C144,56.17,171.17,44.37,199.61,41.2c20.45-2.29,47.34-.55,65.53,18.66a46.67,46.67,0,0,1,6.11,8.62c-17.61-26.74-48.65-29.29-71.58-26.73-28.35,3.17-55.47,14.92-70.08,24-3.08,1.92-6.55,4.06-10.29,6.36C100.88,83.49,75.65,99,56.64,113.42,31.34,132.56,31.13,154.84,31,174.49c-.07,7.78-.14,15.15-1.94,21.34a31.46,31.46,0,0,0,8.16-10l.47-.94,0,1.05c.89,15.74,6.39,21.41,8.25,22.49-1.52-10.49.25-12.16.46-12.31l.13-.1.15.06c.83.34,83.35,33.58,99.52,26.58a4.13,4.13,0,0,0,2.39-2.23c5.7-14.7,17.71-19.7,18.6-19.7h.12l.12.11c.21.22.18.71.08,2.25-.15,2.22-.38,5.83.63,7.79.66-1.52,2.73-3.46,5.28-5.82,4-3.68,8.87-8.25,11.27-13.73a3.3,3.3,0,0,1,1.94-1.88l.34-.1v.35c.14,2.41.68,5.81,1.46,6.47,4.08-8.1,11.73-15.79,19.82-23.92a202.43,202.43,0,0,0,15.46-16.73c4.18-5.29,16.41-2.86,27.21-.71,7.32,1.45,14.24,2.83,17.4,1.54,10.45-15.59,36.47-21.64,51.07-23.86a9.87,9.87,0,0,0,1.11.4c-14.31,2.08-41.2,8-51.77,23.84l0,.07-.08,0c-3.28,1.41-10.34,0-17.8-1.48-10.64-2.11-22.7-4.51-26.66.52a205.33,205.33,0,0,1-15.5,16.77c-8.15,8.18-15.84,15.91-19.84,24l-.1.2-.22-.05c-1.46-.37-1.93-5-2.05-6.69a3,3,0,0,0-1.25,1.43c-2.44,5.58-7.41,10.19-11.4,13.91-2.71,2.52-5.06,4.7-5.29,6.11l-.11.64-.39-.51c-1.5-2-1.22-6.15-1.06-8.66a15,15,0,0,0,.07-1.73c-1.78.48-12.64,5.72-17.91,19.31a4.71,4.71,0,0,1-2.69,2.55,17.16,17.16,0,0,1-6.58,1c-24.5,0-88.29-25.54-93.19-27.52-.33.51-1.47,3-.08,12.18l.06.41-.4-.1c-1.54-.38-7.86-5.54-9-22.2a31.82,31.82,0,0,1-8.55,9.82l-.68.47Z"/>
      </g>
      <g>
        <g>
          <path class="cls-2" d="M302.47,331.65s5.61,22.72,2.66,28.72c-1.41,2.86-7.47,5.72-11.1,2.93-.83.56-18.63,5.28-24.75-1.46-5.43-6-7.67-20-.28-19.45,4.79.32,4.26,5.29,7.46,10.18,1.89.41,7.16-1.65,7.12-2.31-.46-6.22-12.62-15.91-7.32-36.18C279,303.57,299.49,322.17,302.47,331.65Z"/>
          <path class="cls-3" d="M280.87,365.61c-5.44,0-9.33-1.24-11.54-3.68-4.09-4.51-6.27-13.09-4.39-17.33a4.11,4.11,0,0,1,4.33-2.59c3.31.23,4.21,2.53,5.34,5.45a25.75,25.75,0,0,0,2.27,4.76,2.77,2.77,0,0,0,.42,0c2.12,0,6-1.61,6.25-2.11-.13-1.74-1.27-3.84-2.72-6.5-3.32-6.12-8.35-15.38-4.6-29.73a3.94,3.94,0,0,1,4-3.33c7,0,20.31,13.14,22.74,20.89.24.95,5.61,22.91,2.65,28.93-1,2-4.37,4.22-7.77,4.22a6,6,0,0,1-3.61-1.09A46,46,0,0,1,280.87,365.61Zm-12-23.05a3.5,3.5,0,0,0-3.42,2.27c-1.77,4,.4,12.43,4.29,16.73,2.1,2.32,5.85,3.49,11.13,3.49A44.51,44.51,0,0,0,294.13,363l.16-.1.16.12a5.51,5.51,0,0,0,3.41,1.08c3.15,0,6.36-2.06,7.27-3.91,2.87-5.85-2.63-28.31-2.68-28.54-2.33-7.4-15.55-20.48-22.21-20.48-1.79,0-3,1-3.47,2.92-3.69,14.13,1.07,22.91,4.55,29.32,1.48,2.71,2.64,4.86,2.78,6.77a.53.53,0,0,1-.17.41c-.71.76-4.54,2.24-6.63,2.24h0a3.2,3.2,0,0,1-.65-.06l-.11,0-.06-.1a25,25,0,0,1-2.39-5c-1.1-2.84-1.9-4.89-4.86-5.09Z"/>
        </g>
        <g>
          <path class="cls-4" d="M300.21,308.13c-9-24.54-26.87-79.95-39.51-98.35-8-23.8,39.13-76,22.36-125.54l-57.59,20.14.28,0C220.36,208.48,198.51,217,198.51,217c9.15,1.73,16,16.87,16,16.87-5.55-2.82-11.83-2.47-10.5-1.81,9.06,5.13,12.36,17,24,24,1.12.67-5.39-1.21-10.88-1.67,28.54,17.2,38.26,40.38,46,45.55A29.7,29.7,0,0,1,276.64,322c1-4.14,3.63-10.57,4.88-8.88,3.63,4.88,2.42,18,2.42,18s5.14-8,5.32-8c5.51,5.51,6.28,16.17,15.5,16.73C305.71,340,306.38,324.93,300.21,308.13Z"/>
          <path class="cls-5" d="M300.21,308.13c-9-24.54-26.87-79.95-39.51-98.35-8-23.8,39.13-76,22.36-125.54l-57.59,20.14.28,0c-.18,3.43-.37,6.75-.59,10,3.8,19-4.43,61.57-5,63.8a40,40,0,0,1,8.37-8.92c-8.93,13.94-13.39,31.79-15.06,48,2.23-1.68,2.79-4.47,5-6.14-1.58,17,5.58,31.23,7.81,32.35-.33-4.69-1.12-11.16.56-16.73,6.69,16.73,11.71,35.69,26.21,47.41v-7.26c5,10.6,21.1,35.15,22.22,36.82,0-2.79,1.86-8,2.6-11.71,3.9,8.92,7.34,19.89,8.46,26.58,1.16-1.58,2.51-3.9,4.18-5,4.43,9.35,5.29,22.48,14.83,22A82.74,82.74,0,0,0,300.21,308.13Z"/>
          <path class="cls-6" d="M304.77,340.2h0c-6.15-.37-8.67-5.18-11.11-9.83a30,30,0,0,0-4.36-6.77c-.72,1-3.41,5.1-5.1,7.73l-.62,1,.1-1.13c0-.13,1.16-13.11-2.36-17.85-.14-.19-.25-.16-.3-.15-1.12.23-3.18,5.1-4.08,8.93l-.49,2.05-.07-2.11A29.66,29.66,0,0,0,263,300.18c-2.61-1.75-5.46-5.52-9.07-10.31C246.75,280.4,236,266.09,217,254.64l-1-.62,1.19.1a75.81,75.81,0,0,1,8.58,1.4l1.26.25c-5.64-3.62-9.22-8.33-12.68-12.89-3.18-4.19-6.18-8.14-10.43-10.55a.49.49,0,0,1-.32-.39.4.4,0,0,1,.19-.35c.73-.48,5.58-.39,10.18,1.71-1.5-3-7.68-14.53-15.45-16l-1-.18.9-.35c.05,0,5.49-2.34,11.51-17.31,5.57-13.82,12.78-41.52,15.55-95.08a56.23,56.23,0,0,1,.24,5.8c-3,50-9.94,76.33-15.34,89.67-4.94,12.18-9.42,16-11.08,17.07,8.81,2.34,15.19,16.26,15.47,16.87l.32.72-.7-.36a20.2,20.2,0,0,0-10-2.19c4.25,2.48,7.23,6.42,10.4,10.58,3.6,4.75,7.33,9.66,13.38,13.29.09,0,.34.21.25.46s-.33.28-2.77-.22c-1.9-.4-4.65-1-7.3-1.27,18.45,11.4,29,25.41,36,34.74,3.57,4.74,6.39,8.48,8.93,10.18a30.6,30.6,0,0,1,13.49,20.79c.92-3.15,2.68-7.6,4.13-7.9a.83.83,0,0,1,.86.37c3.07,4.13,2.76,13.83,2.55,17.13,4.64-7.2,4.77-7.2,5-7.2h.12l.08.08a28.76,28.76,0,0,1,4.67,7.12c2.47,4.69,4.8,9.13,10.56,9.53.72-1.2,1.17-15.32-4.74-31.41-1.85-5-4-11.19-6.52-18.34-9.67-27.57-22.92-65.34-33-79.95l0-.07c-3.31-9.83,2.73-24.42,9.71-41.3,10-24.27,22.53-54.46,12.65-83.64A46.35,46.35,0,0,1,285.11,91c6.4,27.38-5.08,55.15-14.44,77.78-6.94,16.76-12.92,31.24-9.72,40.87,10.08,14.7,23.33,52.47,33,80.06,2.5,7.14,4.67,13.31,6.51,18.32,5.87,16,5.62,30.66,4.64,32A.43.43,0,0,1,304.77,340.2Z"/>
        </g>
        <path class="cls-6" d="M263.17,214.27C254.88,202.85,241,201.13,241,201.13c.15,0,14.17,1.19,22.61,12.82Z"/>
        <path class="cls-3" d="M294.52,363.36l-.47-.31c5.2-7.85,2.53-22.35,2.53-22.35C296.71,341.29,299.84,355.31,294.52,363.36Z"/>
      </g>
      <g>
        <g>
          <path class="cls-2" d="M121.57,343.92s-7.78,29.16,22.31,27.79c16.41-.74,27.8-3.06,49-2.6a114.32,114.32,0,0,0,20.43-1.35c3.86-.71,5.21-1.27,4.18-4.18,6.56-.84,16.18-5.44-1.09-10.18-.56-2.69-4.86-7.7-28.44-12.27-13.55-2.62-29,0-29,0L142.58,333Z"/>
          <path class="cls-3" d="M142.13,371.94h0c-8.09,0-14-2.36-17.58-7-6.34-8.26-3-21.05-3-21.18l0-.12,21.25-11.09,16.4,8.21a104.17,104.17,0,0,1,15.42-1.16,72,72,0,0,1,13.6,1.17c22.07,4.28,27.79,9,28.62,12.32,6.65,1.84,9.94,3.85,9.79,6-.18,2.54-5.21,4.17-8.56,4.66a2.87,2.87,0,0,1,0,2.38c-.55,1-1.89,1.36-4.48,1.84a111.13,111.13,0,0,1-18.08,1.38l-2.41,0c-1.84,0-3.68-.07-5.47-.07-10.82,0-19.14.75-27.19,1.47-5.14.46-10.45.93-16.31,1.2C143.46,371.93,142.78,371.94,142.13,371.94ZM122.06,344c-.31,1.3-2.92,13,2.93,20.58,3.47,4.51,9.23,6.8,17.14,6.8h0c.64,0,1.31,0,2-.05,5.84-.26,11.15-.74,16.28-1.2,8.06-.72,16.4-1.46,27.24-1.46,1.79,0,3.64,0,5.49.06.79,0,1.59,0,2.39,0a109.93,109.93,0,0,0,18-1.37c2.37-.43,3.66-.8,4.1-1.56a2.76,2.76,0,0,0-.13-2.25l-.12-.33.35,0c3.93-.5,8.27-2.25,8.4-4.19.08-1-1.07-3.12-9.53-5.44l-.17-.05,0-.17c-.53-2.56-4.9-7.53-28.23-12.05a71.62,71.62,0,0,0-13.49-1.16,103.92,103.92,0,0,0-15.41,1.16l-.09,0-16.31-8.16Z"/>
        </g>
        <g>
          <path class="cls-4" d="M155.84,339.92c11.31-34,11.72-88.24,10.77-97.75-1.39-14-6-15.36-31.22-47.64-33.83-43.5-63.58-28.26-63.58-28.26l-25.24,30.1c27.33,48.59,76.18,69.46,76.18,69.46-5.48,16.08-2.74,32.37-1.3,45.74,2.65,24.59-3.07,38.88-3.07,38.88s10.53-4.81,14.29-11.51l-2.53,13.38a27.92,27.92,0,0,0,8.18-9.61c.19-.37,3.16,11,9.34,12.34,0,0-1.38-16.71.1-13.78a13,13,0,0,0,10.85,7S154.29,344.59,155.84,339.92Z"/>
          <path class="cls-5" d="M155.84,339.92c11.31-34,11.72-88.24,10.77-97.75-1.39-14-6-15.36-31.22-47.64-33.83-43.5-63.58-28.26-63.58-28.26L52.77,189c2.27,8.56,6,17,14,21a35.07,35.07,0,0,1-3.35-18.4c15.19,22,29.88,45.45,51.46,61.16a18.11,18.11,0,0,0,8.21,1.78c-5.58-1.68-1.66-13.3-6.12-17.21,7.25,1.12,11.71,7.63,13.94,13.77,3.91,8.36,3.35,15.79-.56,24.72,4.47-1.67,6.14-6.14,10-7.81-7.25,11.71-15.06,22.87-13.38,37.37,4.46-1.67,6.69-6.69,11.71-6.14,1.12,0-.56,2.24-1.12,2.79-6.13,6.7-11.71,20.08-6.13,27.89,1.12-2.23,3.35-3.35,3.9-5.58v12.27c1.68-1.11,3.91-2.23,5-4.46-.55,4.46.56,10,3.91,11.71.14-2.11-.42-6.57,5-9.48,1.67,5,3.94,10.41,7.76,13.71a10.84,10.84,0,0,0,1.51.17S154.29,344.59,155.84,339.92Z"/>
          <path class="cls-6" d="M148,355.4l-.37-.08c-5.12-1.14-8-8.71-9.11-11.56l-.17-.44a28.59,28.59,0,0,1-8,9.23l-.55.39,2.39-12.61c-4.23,6-13.23,10.19-13.63,10.37l-.63.29.25-.65c.06-.14,5.66-14.52,3-38.74-.15-1.41-.32-2.85-.48-4.32-1.46-12.62-3.11-26.93,1.72-41.29a166.26,166.26,0,0,1-27.66-16.44c-14.29-10.32-34.28-27.9-48.42-53l.39-.38c27,48,75.65,69.24,76.14,69.45l.24.1-.08.24c-4.89,14.33-3.24,28.66-1.78,41.3.17,1.47.34,2.91.49,4.32,2.31,21.47-1.8,35.28-2.85,38.36,2.29-1.14,10.39-5.48,13.55-11.09l.84-1.49-2.73,14.35a27.82,27.82,0,0,0,7.53-9.09l.08-.16h.2c.23,0,.26.1.66,1.14,1,2.7,3.73,9.77,8.34,11.12-.74-9.09-.74-13.81,0-14,.36-.11.58.32.66.48a12.64,12.64,0,0,0,9.85,6.74c-1.14-1.22-3.52-4.32-2.28-8.05,11.46-34.47,11.6-89.1,10.76-97.63-1-10.37-3.83-13.77-15.57-28.1-4.08-5-9.15-11.16-15.6-19.39-17.42-22.4-33.7-28.87-44.3-30.34-11.44-1.6-18.86,2.11-18.93,2.15a11.38,11.38,0,0,1,4.72-2.15A39.2,39.2,0,0,1,91,163.81c10.7,1.49,27.13,8,44.66,30.55,6.45,8.23,11.52,14.42,15.59,19.38,11.83,14.44,14.64,17.87,15.69,28.41.85,8.54.7,63.3-10.78,97.86-1.48,4.44,2.64,8,2.68,8l.59.5h-.77c-.08,0-7.6-.16-11.1-7.11l0,0c-.31,1.34,0,7.75.45,13.67Z"/>
        </g>
        <path class="cls-6" d="M122.82,266.5l-.53-.16a49.84,49.84,0,0,1,3.94-8.36A87.59,87.59,0,0,0,122.82,266.5Z"/>
        <path class="cls-3" d="M217.55,363.69c-7.48-6.68-35.22-6.29-35.22-6.29,1.13,0,27.95-.95,35.59,5.88Z"/>
        <path class="cls-3" d="M216.55,353.57a134.68,134.68,0,0,0-33.75-6,120,120,0,0,1,33.93,5.5Z"/>
      </g>
      <path class="cls-6" d="M293.86,119.64s12.21,9.08,26.65,13l-.66.41A62.17,62.17,0,0,1,293.86,119.64Z"/>
      <path class="cls-16" d="M300.43,69.79c1.91-3.65,3.1-11.33.71-15.57a5.36,5.36,0,0,0-4.57-2.87c-6.86-.42-8,6.31-8.08,6.59,0,0,.74-7.59,8.11-7.15a5.88,5.88,0,0,1,5,3.16c1.94,3.42,1.63,9,.47,13A10.41,10.41,0,0,1,300.43,69.79Z"/>
      <path class="cls-16" d="M301.34,67.59c-1.09-1.65-2.33-2.54-3.67-2.64a5.5,5.5,0,0,0-3.91,1.77s1.53-2.5,3.95-2.33c1.53.12,2.9,1.09,4.09,2.89Z"/>
    </g>
  </g>
</svg>
