<svg id="Layer_1" data-name="Layer 1" xmlns="http://www.w3.org/2000/svg" viewBox="0 0 550 400"><defs><style>.cls-1{opacity:0.3;}.cls-2{fill:#86c440;}.cls-3{fill:#b7d880;}.cls-4{fill:#6da843;}.cls-5{fill:#3b5527;}.cls-6{fill:#f4ecd7;}.cls-7{fill:#d9c8a2;}.cls-8{fill:#726c5b;}.cls-16,.cls-9{opacity:0.58;}.cls-10,.cls-16{fill:#32783b;}.cls-11{fill:#5c8c3e;}.cls-12{fill:#2d5c2d;}.cls-13{fill:#f2ac2e;}.cls-14{fill:#ffd666;}.cls-15{fill:#806126;}.cls-17{fill:#572513;}.cls-18{fill:#3d1d10;}.cls-19{fill:#1c0e0a;}.cls-20{fill:#714c41;}</style></defs><ellipse class="cls-1" cx="302.21" cy="339.49" rx="237.4" ry="54.46"/><path d="M147,291.1c-2.4,0-4.73-2.13-5.53-5.06a7.4,7.4,0,0,1,.21-4.76,4.58,4.58,0,0,1,3-2.83,4.3,4.3,0,0,1,1.07-.14c2.41,0,4.74,2.13,5.54,5.06a7.47,7.47,0,0,1-.21,4.76,4.58,4.58,0,0,1-3,2.83A4.32,4.32,0,0,1,147,291.1Zm-1.26-12a3.56,3.56,0,0,0-.86.11,3.8,3.8,0,0,0-2.45,2.35,6.66,6.66,0,0,0-.18,4.25c.71,2.58,2.71,4.46,4.75,4.46a3.49,3.49,0,0,0,.86-.11,3.79,3.79,0,0,0,2.46-2.35,6.67,6.67,0,0,0,.17-4.25C149.81,281,147.81,279.12,145.76,279.12Z"/><path class="cls-2" d="M130.05,211.84s-34.83,21.51-26.51,86.84c-8.52,4.33-20.7,19.55-11.9,24,9.33,4.06,67,16.91,95.26-3-12.08-18.54-22-81.1-22-81.1C159.54,235,130.05,211.84,130.05,211.84Z"/><path class="cls-3" d="M118.65,302c-3.28-5.82-10.54-4.67-10.54-4.67-3.71-29.25.38-64.8,24.25-83.71l-2.31-1.81s-34.83,21.51-26.51,86.84c-7.07,3.59-16.65,14.68-14.68,20.9.07-.14.13-.27.21-.41C88.59,312.21,106.31,294.42,118.65,302Z"/><path class="cls-4" d="M161.7,267.59c4.06,21.76-14.41,50.22-40.67,61.53,20.64,2.11,50,1.75,65.87-9.4C177.18,304.8,161.7,267.59,161.7,267.59Z"/><path class="cls-5" d="M142.6,330.93h0c-23.52,0-45.79-5.55-51.12-7.87a5.55,5.55,0,0,1-3.29-5.27c0-6.25,8.14-15.76,14.92-19.34-4.23-33.7,3.22-55.51,10.22-67.89,7.63-13.48,16.43-19,16.52-19.07l.24-.15.22.18c.3.23,29.54,23.23,34.87,26.76l.15.1,0,.18c.1.62,10,62.69,21.89,80.93l.21.33-.32.23C176.88,327.27,161.9,330.93,142.6,330.93ZM130,212.34c-1.44,1-9.2,6.58-16,18.67-7,12.3-14.34,34-10.06,67.62l0,.28-.26.13C97.23,302.34,89,311.83,89,317.79a4.78,4.78,0,0,0,2.83,4.54c5.26,2.28,27.37,7.79,50.77,7.79h0c18.93,0,33.64-3.54,43.75-10.51-11.58-18.3-21.18-77.08-21.77-80.75C159.12,235.18,132.78,214.5,130,212.34Z"/><path class="cls-6" d="M92.41,323.25c1.47,6.84,24.23,8.74,25.15,5.63s-2.84-20.84-11.89-22.53C99.43,305.18,91.26,317.93,92.41,323.25Z"/><path class="cls-7" d="M106.89,306.7c3.42,2.5,5.09,9.64,2.13,14.85-1.89,3.33-5.7,5.88-12.18,5.88,6.7,3.1,20.15,3.39,20.72,1.45C118.44,325.91,115.06,309.66,106.89,306.7Z"/><path class="cls-8" d="M111.66,330.73h0c-7.28,0-18.56-2.35-19.65-7.4-.72-3.3,1.84-8.67,4.74-12.26,1.57-1.94,4.7-5.2,8.1-5.2a5.38,5.38,0,0,1,.9.08c2.89.54,5.48,2.65,7.68,6.26,3.7,6,5.16,14.62,4.52,16.78C117.53,330.43,114.3,330.73,111.66,330.73Zm-6.81-24.05c-2.24,0-5,1.79-7.47,4.9-3.18,3.94-5.15,8.93-4.58,11.58.94,4.35,11.75,6.76,18.86,6.76h0c3.55,0,5.35-.6,5.51-1.16.6-2-.91-10.36-4.43-16.13-2.08-3.4-4.49-5.38-7.14-5.88A3.74,3.74,0,0,0,104.85,306.68Z"/><path class="cls-6" d="M119.4,327.13c0,4.13,5.19,5.93,12.5,6.45,6.41.46,13.45-.8,13.41-3.89-.08-7-4-21.27-11.76-21.81C127.66,307.47,119.42,320.57,119.4,327.13Z"/><path class="cls-7" d="M135.13,308.19c3.84,4.16,3.81,11.19.35,16.32-2.7,4-7.47,6.84-14.11,6.29,2.15,1.61,5.92,2.45,10.53,2.78,6.41.46,13.45-.8,13.41-3.89C145.23,323.17,141.86,310.39,135.13,308.19Z"/><path class="cls-8" d="M134.47,334.08h0c-.86,0-1.74,0-2.6-.1-8.55-.61-12.88-2.92-12.87-6.86,0-6.43,8.3-20.11,14.58-19.65,7.9.55,12,14.54,12.14,22.22a2.54,2.54,0,0,1-.8,1.85C143.35,333.13,139.44,334.08,134.47,334.08Zm-1.19-25.81c-5.4,0-13.45,12.36-13.47,18.86,0,3.43,4.07,5.47,12.12,6,.84.06,1.69.09,2.54.09,4.69,0,8.47-.88,9.87-2.29a1.76,1.76,0,0,0,.57-1.27c-.09-7.2-4.08-20.91-11.38-21.42Z"/><path class="cls-5" d="M119.55,303.34c-.2-.37-5.11-9.07-16.23-4.09l-.33-.74c5.84-2.62,10.11-1.59,13,.14A8.32,8.32,0,0,1,119.55,303.34Z"/><path class="cls-5" d="M142.28,305.71a10,10,0,0,0-7.86-5,11.54,11.54,0,0,0-9.81,4.14,10.63,10.63,0,0,1,9.88-4.95A8.66,8.66,0,0,1,142.28,305.71Z"/><g class="cls-9"><path class="cls-10" d="M113.67,285.19c-.89,1.56,1,12.32,5.17,12.93s8.83-3.24,10-5.48-1.72-8.31-6.29-9.48S114.48,283.77,113.67,285.19Z"/></g><g class="cls-9"><path class="cls-10" d="M115.54,253.74c-3.65.72-5.58,20.66-4.29,22.55s15.26,2.78,17.84,0-.2-14.78-2.39-17.53C124.05,255.43,121.23,252.62,115.54,253.74Z"/></g><g class="cls-9"><path class="cls-10" d="M136.54,242.68c-2.58,1.78-4.71,11.92-3.55,13.95s7.76,4.31,9,3.25,6-11.33,5.33-12.67S138.83,241.11,136.54,242.68Z"/></g><g class="cls-9"><path class="cls-10" d="M115.85,243.15c.84,5.27,13.57,3.92,14.67.48,1.7-5.28-.39-16.17-5.74-16.17S115.09,238.42,115.85,243.15Z"/></g><path class="cls-2" d="M69.72,33.87c0-11.2,16.91-35.55,47.07-18.24C112.33,22.13,69.72,33.87,69.72,33.87Z"/><path class="cls-3" d="M116.79,15.63C104.85,8.78,95,8.46,87.43,11.26c-7.3,2.71-14.6,10.54-17,18.31,9.54-16.47,31.28-21,43.69-11.65A9.29,9.29,0,0,0,116.79,15.63Z"/><path class="cls-5" d="M69.32,34.4v-.53C69.32,25.49,79,9.2,96.83,9.2c6.35,0,13.13,2.05,20.17,6.08l.38.22-.25.36c-4.5,6.54-45.55,17.92-47.3,18.4ZM96.83,10c-16.9,0-26.29,15.08-26.69,23.32C75,32,111,21.73,116.19,15.76,109.42,11.94,102.91,10,96.83,10Z"/><path class="cls-2" d="M18.19,47.76C.65,63.39-13.87,107.68,31.27,142.41a101.79,101.79,0,0,1,8-9.84s6.54,9.91,17.65,11.26c10.85,1.32,40-1.82,53.16,14.61,10.54,13.14,4.46,70.92,57,88.84C186.05,234,250.23,183,250.23,183l-38.14-22c-13.19,6.76-30.77-3.86-30.57-21.51s25.63-82.92-29.83-112.95c-21.1-4.32-47.27-8.79-47.27-8.79C71.35,34.17,36.85,31.12,18.19,47.76Z"/><path class="cls-4" d="M106.57,115.37c8.93-2.44,17.39-4,23.08-12.08C99,114.52,82,103.9,57.92,111.88c-13.83,4.58-26.07,14.21-30.25,27.63,1.16,1,2.35,1.94,3.6,2.9a101.79,101.79,0,0,1,8-9.84l0,.07C60.05,110.26,85.87,120.54,106.57,115.37Z"/><path class="cls-4" d="M250.23,183l-38.14-22c-13.19,6.76-30.77-3.86-30.57-21.51s25.63-82.92-29.83-112.95l-.25-.05c30,58,10.5,104.06-15.52,105.15-30.39,1.27-53.35-12.1-81.75,6.57-2.27,1.69-5.71,1.42-9,.55a23.78,23.78,0,0,0,11.74,5.09c10.81,1.32,39.74-1.79,53,14.43,9.63,11.77,17.3,16.75,24.24,30.26-2.36-10.62-2.4-16,2.47-20,7.3-5.68,11.13,30.3,17.62,36.79-.81-9.73-9.47-38.95-3.77-43.42,7.95-4.05,7.15,19.21,18.15,27.47-2.69-12.23-3.48-31.45,2.39-34.26,10.57-5.07,33.2,28.94,29.14,46.8-3.23,13.57-11.68,20.59-23,27.14-3.28,3.92-9.91,5-13.48,7.38a21.37,21.37,0,0,0-5.81,7.08,75.64,75.64,0,0,0,9.19,3.81C186.05,234,250.23,183,250.23,183Z"/><path class="cls-3" d="M23.31,59.56c-7.76-.77-13.13,5.09-11.61,12.64a17,17,0,0,0,1.18,3.25c-1.43-8.18,3.43-12.05,7.81-12.59a11.11,11.11,0,0,1,12.25,8.3C32.94,64.33,27.74,60.83,23.31,59.56Z"/><path class="cls-3" d="M18.05,47.69C4.85,59.45-6.63,87.44,7.72,115.37-.62,85,6.79,55.81,29.82,44,51.16,33.13,100,33.87,101,19.25,68.92,33.91,36.09,31.61,18.05,47.69Z"/><path class="cls-5" d="M167,247.66l-.19-.06c-37.89-12.92-45.55-46.76-50.62-69.16-2-9-3.66-16.16-6.58-19.81-10.44-13-30.9-13.61-44.44-14-3.37-.1-6.27-.19-8.45-.45-9.85-1.2-16.23-9.1-17.65-11a100.81,100.81,0,0,0-7.64,9.42l-.24.36-.34-.26C6.84,124.17,1.21,104.11.72,90.54,0,70.56,9.46,54.81,17.78,47.39c10.15-9,24.68-12.26,41.5-16,13.89-3.08,29.63-6.56,44.82-14.11l.12-.06.13,0c.26,0,26.42,4.52,47.29,8.8l.11,0c45.63,24.71,36.77,73.37,32,99.52-1.08,5.93-1.93,10.61-2,13.79a23.11,23.11,0,0,0,6.58,16.68,21.38,21.38,0,0,0,15,6.47,18.18,18.18,0,0,0,8.39-2l.19-.1,38.85,22.39-.46.37c-.65.51-64.41,51.22-83.14,64.33ZM39.21,131.85l.28.43c.06.1,6.58,9.77,17.36,11.08,2.15.26,5,.35,8.38.45,13.69.4,34.38,1,45.05,14.31,3,3.79,4.68,11,6.75,20.15,5,22.17,12.6,55.67,49.89,68.49C185,234.08,243.53,187.59,249.37,183l-37.43-21.58a19,19,0,0,1-8.56,2,22.2,22.2,0,0,1-15.59-6.71A23.89,23.89,0,0,1,181,139.4c0-3.25.89-8,2-13.93,4.72-25.93,13.52-74.19-31.54-98.63-20.09-4.12-45-8.41-47.08-8.75-15.23,7.55-31,11-44.88,14.11C42.74,35.9,28.31,39.09,18.32,48,10.13,55.3.82,70.81,1.53,90.51c.48,13.33,6,33,29.52,51.25a107.43,107.43,0,0,1,7.8-9.53Z"/><path class="cls-2" d="M130.66,6.91c-30.75-4.7-40,28.2-40,28.2l67.63,15.15C161.1,39.17,158.51,11.17,130.66,6.91Z"/><path class="cls-3" d="M131.37,11.58c14,3.58,24.21,14.58,27.45,36.05,1.77-12.36-2.3-36.76-28.16-40.72s-36.52,18.75-39.23,26C105.4,14.52,118.89,8.39,131.37,11.58Z"/><path class="cls-5" d="M157.93,50.16c1.57-6.29,1.47-19.34-5.27-29.47C147.74,13.3,140.32,8.8,130.6,7.31c-30-4.6-39.43,27.59-39.52,27.91a20.87,20.87,0,0,1,2.32-7.68c4.86-9.49,16-24.29,37.32-21,10,1.52,17.57,6.14,22.61,13.73a40,40,0,0,1,6.22,19.55C159.78,43.74,157.93,50.16,157.93,50.16Z"/><path class="cls-5" d="M193.9,170.93a64.45,64.45,0,0,1-12.49-26.51l.8-.17a61.77,61.77,0,0,0,18.57,32.85A24,24,0,0,1,193.9,170.93Z"/><path class="cls-5" d="M135.56,144.28c-11,0-20.61-2.17-29.11-4.1-7.28-1.65-13.56-3.07-19.19-2.81a77.17,77.17,0,0,0-19.87,3.82c-6.24,1.88-11.17,3.37-17,1.18l.28-.76c5.59,2.09,10.16.71,16.49-1.19a77.43,77.43,0,0,1,20.07-3.86c5.74-.27,12.07,1.17,19.41,2.83,8.74,2,18.64,4.23,30.05,4.08,18.27-.25,25.76-8.72,28.82-15.78,3.89-9,2-18.33.64-19.8,0,0,2.16,2.09,2.46,7.12a29.2,29.2,0,0,1-2.35,13c-3.16,7.27-10.85,16-29.56,16.26Z"/><path class="cls-5" d="M143.47,107.91c-8.11-7.77-22-7.87-22.14-7.87a17.56,17.56,0,0,1,7,0,39.52,39.52,0,0,1,8.45,2.59A17.67,17.67,0,0,1,143.47,107.91Z"/><path class="cls-5" d="M39.46,132.77l-.61-.53c13.09-14.92,28.32-15.12,44.44-15.32,4.58-.06,9.32-.12,14-.54C113,115,124,109.86,130.85,100.81l.64.49c-7,9.24-18.21,14.43-34.14,15.88-4.7.43-9.45.49-14,.55C67.36,117.93,52.31,118.12,39.46,132.77Z"/><path class="cls-5" d="M120.4,171.44c-.09-.11-8.44-11-11.89-14.14l.55-.6a73.68,73.68,0,0,1,5.36,6A67.6,67.6,0,0,1,120.4,171.44Z"/><path class="cls-4" d="M96.19,68.88c-6.72-15.2,1.56-39.57,23.06-42.81C139.88,23,157.44,48.2,142.38,68.88,136.1,77.51,101.77,81.49,96.19,68.88Z"/><path class="cls-4" d="M96.64,76.76S103.57,92.07,119,92.42c15.19.35,20.6-8.61,24.76-16.88C127.62,85.36,107.94,84.33,96.64,76.76Z"/><path class="cls-11" d="M134.17,80c-5.64,9-15.18,12.41-27.6,8.34A22.52,22.52,0,0,0,119,92.42c15.19.35,20.6-8.61,24.76-16.88A48.28,48.28,0,0,1,134.17,80Z"/><path class="cls-5" d="M119.84,92.81H119c-15.5-.36-22.64-15.74-22.71-15.9l-.57-1.24,1.18.79c5.62,3.77,13.2,5.84,21.36,5.84a48.57,48.57,0,0,0,25.29-7.07l1.19-.73-.61,1.21C139.76,84.36,134.3,92.81,119.84,92.81ZM97.68,77.87C99.74,81.51,106.63,91.76,119,92c13.94.32,19.54-7.31,23.78-15.48a49.5,49.5,0,0,1-24.54,6.49A40.42,40.42,0,0,1,97.68,77.87Z"/><path class="cls-5" d="M101.7,35.73a22.94,22.94,0,0,1,6.41-6.51,24.76,24.76,0,0,1,13.71-3.65A28.36,28.36,0,0,1,134,28.43c4.7,2.32,8.56,7.63,8.56,7.63a27.6,27.6,0,0,0-20.74-9.68A25.7,25.7,0,0,0,101.7,35.73Z"/><path class="cls-5" d="M11.78,64.91a10.34,10.34,0,0,1,6.4-5.37c3.26-.86,7-.52,9.65,1.48a12.08,12.08,0,0,1,5.11,10.14c-.77-4.4-2.63-7.58-5.55-9.46a11.62,11.62,0,0,0-9-1.38,9.27,9.27,0,0,0-5.87,4.95c-1,2-1.72,5.47.37,10.18C12.88,75.45,9.12,70.05,11.78,64.91Z"/><path class="cls-10" d="M27.08,77.27c1,3.14.31,6.2-2,6.89S20.62,83,19.67,79.8s-.8-7.78,1.47-8.47S26.13,74.12,27.08,77.27Z"/><path class="cls-12" d="M22.19,71.3a2.2,2.2,0,0,0-1.05,0c-2.27.69-2.42,5.33-1.47,8.47.83,2.75,2.62,4.54,4.57,4.5C26.74,80.52,25.23,74.8,22.19,71.3Z"/><path class="cls-5" d="M24.17,84.71c-2.09,0-4-1.88-4.89-4.79a13.67,13.67,0,0,1-.49-5.32c.25-2,1-3.3,2.24-3.66a2.46,2.46,0,0,1,.72-.1c2.35,0,4.8,3.27,5.72,6.31a8.78,8.78,0,0,1,.23,4.59,3.6,3.6,0,0,1-3.53,3ZM21.75,71.65a1.61,1.61,0,0,0-.49.07c-1.17.35-1.54,2-1.66,3a12.72,12.72,0,0,0,.46,5c.9,3,2.94,4.69,4.93,4.09a2.94,2.94,0,0,0,1.92-2.24,7.87,7.87,0,0,0-.22-4.15C25.87,74.67,23.64,71.65,21.75,71.65Z"/><path class="cls-2" d="M363.93,308l-.07,10.62c-8.37,2.7-12.34,15.13-13.15,20.13,7.71,5.14,43.9,12.25,65.16,8.47,4.46-1.35,18.4-7.57,20.16-18.39-6.09-14.34-20-36.12-20-36.12Z"/><path class="cls-4" d="M416,292.66l-10.23,4.46c1.3,20.82,10.08,44.1-30.4,50.05-1.58,1.57,23.79-.54,22.17,1a89.55,89.55,0,0,0,18.32-1c4.46-1.35,18.4-7.57,20.16-18.39C429.94,314.44,416,292.66,416,292.66Z"/><path class="cls-5" d="M402,348.64h0c-20,0-45-5.28-51.48-9.6l-.22-.15.05-.25c.75-4.68,4.59-17.36,13.15-20.37l.06-10.63.29-.08,52.37-15.37.17.25c.14.22,14,22,20,36.18l0,.11v.11C434.67,339.65,421.08,346,416,347.56A81,81,0,0,1,402,348.64ZM351.15,338.5c6.72,4.24,31.2,9.33,50.81,9.33a79.44,79.44,0,0,0,13.84-1.06c4.89-1.48,18-7.62,19.81-17.94-5.68-13.31-18.21-33.21-19.78-35.69l-51.5,15.11-.07,10.61L364,319C355.77,321.61,352,333.72,351.15,338.5Z"/><path class="cls-5" d="M373.43,326.67a9,9,0,0,0-4.17-6.67,6.48,6.48,0,0,0-5.5-1l-.28-.76a6.94,6.94,0,0,1,6.22,1C374.17,322.45,373.43,326.67,373.43,326.67Z"/><path class="cls-5" d="M396.16,330.12a10,10,0,0,0-7.52-7.41c-3.83-.85-7.57.67-10.27,4.17a8.56,8.56,0,0,1,10.45-5,10.31,10.31,0,0,1,5.14,2.75C395.92,326.67,396.16,330.12,396.16,330.12Z"/><path class="cls-6" d="M348.37,337.84c.44,6.24,24.27,11.22,26,7.81s0-18.66-8.82-21C359.19,323,348,333,348.37,337.84Z"/><path class="cls-7" d="M366.72,325.07c4,6.07,2.66,13.13-2.32,15.65-3.71,1.88-10.27,1.89-13.65.42,6.15,4.5,22.21,7.29,23.62,4.51C376,342.39,374.49,328.38,366.72,325.07Z"/><path class="cls-8" d="M370.37,347.17h0c-7.25,0-22-4-22.4-9.3-.13-1.8,1.19-4.33,3.63-6.94,3.19-3.42,8.26-6.87,12.43-6.87a6.62,6.62,0,0,1,1.63.2c3.15.84,5.76,3.38,7.53,7.35,2.31,5.17,2.73,11.89,1.54,14.22C374.28,346.72,372.82,347.17,370.37,347.17ZM364,324.87c-3.9,0-8.87,3.43-11.84,6.61-2.25,2.41-3.52,4.78-3.41,6.33.3,4.32,13.88,8.54,21.59,8.54h0c2,0,3.36-.33,3.64-.88.95-1.88.81-8.23-1.56-13.53-1.17-2.61-3.33-5.92-7-6.9A5.88,5.88,0,0,0,364,324.87Z"/><path class="cls-6" d="M372.09,345.81c1.56,6.06,25.9,6.64,27,3s-3.41-18.34-12.48-19C380,329.22,370.89,341.15,372.09,345.81Z"/><path class="cls-7" d="M388.33,330.05c3.93,4.09,4.16,8.93,1.7,12.68s-7.78,6.48-14.77,6.07c7.09,2.89,23.06,2.53,23.81,0C400.08,345.35,396.23,332.34,388.33,330.05Z"/><path class="cls-8" d="M393.12,351.31h0c-7,.65-20.18-.59-21.42-5.39-.5-1.94.6-5.1,2.94-8.44,2.48-3.51,6.83-7.76,11-8.14a5,5,0,0,1,1,0c3.26.25,6.28,2.27,8.75,5.85,3.21,4.67,4.83,11.21,4.09,13.72C399,350.44,395.76,351.06,393.12,351.31Zm-7.45-21.17c-3.6.34-7.8,4.17-10.36,7.81-2.18,3.1-3.26,6.08-2.83,7.76,1,3.94,13,5.49,20.56,4.79,3.87-.36,5.45-1.19,5.64-1.83.6-2-.69-8.24-4-13-1.62-2.35-4.35-5.21-8.14-5.5A5.29,5.29,0,0,0,385.67,330.14Z"/><path class="cls-6" d="M399.34,348.47c2,4,19.2,1,19.44-1.76s-5-12.44-11.52-11.64C402.57,335.65,397.83,345.36,399.34,348.47Z"/><path class="cls-7" d="M408.8,335.08c2.52,2.38,3.67,5.64,2.65,8.52s-4.21,5.36-10.37,6.21c4.89,1.82,17.49-.76,17.7-3.1C419,344.19,414.56,335.79,408.8,335.08Z"/><path class="cls-8" d="M409.09,350.62h0c-2.61.3-8.82.69-10.11-2-.89-1.83.17-5.32,1.61-8,1.89-3.49,4.37-5.74,6.62-6h0c2.43-.28,4.88.75,7.15,3,2.91,2.85,5,7.24,4.82,9.12S412.9,350.19,409.09,350.62Zm-1.72-15.16c-2.4.3-4.7,3.09-6.07,5.61-1.59,2.92-2.24,5.89-1.59,7.22s4.36,2.08,9.29,1.52h0c5.17-.58,9.29-2.17,9.37-3.14.13-1.46-1.63-5.58-4.58-8.46C412.33,336.79,410,335.16,407.37,335.46Z"/><path class="cls-13" d="M248.62,287.93s15.35,11.33,34.21,13.39c15.22,7.91,47.08,17.36,67.17,8.88,23.94,6.74,57.62-2.19,66.34-10.71l60-18.19c4.87.68,17.18-2.57,20.57-6.76,8.11-1.63,27.08-12.89,33.54-28.27,7.51-5.08,15.12-14.77,16.62-18.57-12.12,3.92-238,24.41-290.8,4-11.37,7.56-31.12,55.5-31.12,55.5Z"/><path class="cls-14" d="M344.72,290.77c-14.65-6.17-27.19-7.62-42.61-9.87-1.22,0-3.05,4-3.65,5.81-3.25,4.87-6.49,13,.81,15.42,14.61,3.25,28.41,6.49,43,3.25C348.78,304.56,349.59,293.2,344.72,290.77Z"/><path class="cls-14" d="M265.84,263.54c-2.28,7.44-11.5,15.49-11.6,17,.66,4.46,18.65,14,25.55,12.25,3.53-1.9,10.42-13,8-19.52C286.83,269.71,272.47,265.09,265.84,263.54Z"/><path class="cls-15" d="M283.1,301.62l-.55-.6c8.81-7.9,13.54-29.52,9.86-37.13l.73-.35C297.27,272.07,291.44,294.14,283.1,301.62Z"/><path class="cls-15" d="M245.79,275.82l-.17-.8c.17,0,16.67-3.61,19.42-20.6l.8.13C263,272.1,246,275.78,245.79,275.82Z"/><path class="cls-15" d="M350.31,310.46l-.63-.51c6.29-7.62,6-19.6,3.08-24.5l.69-.42C356.52,290.13,356.82,302.57,350.31,310.46Z"/><path class="cls-15" d="M497.27,274.68l-.75-.29c4.24-11-1.68-22.25-1.74-22.36l.72-.38C495.56,251.76,501.65,263.29,497.27,274.68Z"/><path class="cls-15" d="M530.7,246.62l-.81,0c.22-4.32-2.47-8.71-2.5-8.76l.69-.43C528.2,237.58,530.94,242.05,530.7,246.62Z"/><path class="cls-15" d="M331.08,313.94h0c-17.13,0-36.62-6.13-48.37-12.23-17.92-2-32.84-12.39-34.23-13.38l-23.93-.77.22-.54c.81-2,19.93-48.14,31.26-55.69l.18-.11.19.07c15.26,5.91,46.25,8.91,92.12,8.91,85.44,0,190.86-10.44,198.41-12.89l.82-.26-.31.8c-1.61,4.05-9.29,13.66-16.67,18.68-6.55,15.44-25.27,26.61-33.65,28.37-3.34,3.94-13.95,6.89-19.31,6.89a10.48,10.48,0,0,1-1.44-.08l-59.81,18.14C410,306.2,389.3,313,368.92,313a70.59,70.59,0,0,1-18.9-2.35A49.17,49.17,0,0,1,331.08,313.94ZM225.74,286.78l23,.75.1.07c.15.11,15.48,11.29,34,13.32l.14,0c11.66,6.06,31.05,12.17,48.07,12.17h0a48.35,48.35,0,0,0,18.76-3.3l.13-.06.14,0a69.73,69.73,0,0,0,18.81,2.36c20.25,0,40.73-6.71,47.14-13l.07-.07.1,0,60.07-18.22.09,0c4.47.62,16.8-2.41,20.19-6.62l.09-.11.15,0c8-1.59,26.91-12.93,33.25-28l0-.11.1-.07c6.75-4.56,14-13.36,16.13-17.63C533.83,231.1,431.68,241,348.52,241c-45.77,0-76.79-3-92.21-8.88C245.8,239.45,228,281.5,225.74,286.78Z"/><path class="cls-2" d="M418.55,275.73s-10.93,17.68-4,35.46c5.29,13.66,21.37,13,25.36,27.67,0,0-10.14,12.44.51,19.47,8.93,2.24,59.21-1.28,59.21-1.28,23.27-9.61,21.78-36.39,14.34-44.37-6.33-6.78-22.12-17.25-29.62-25.93-7.18-8.3-13.46-21.55-25.16-24.39C427.35,254.64,418.55,275.73,418.55,275.73Z"/><path class="cls-3" d="M436,326.86c-2.24-1.8-13.61-7.58-18.94-19.25-3.2-7-3.11-16.22-.68-27.66-2.78,6.29-6.74,18.73-1.89,31.24,5,13,21.61,13.16,25.56,28.06C440.74,335.73,438.31,328.69,436,326.86Z"/><path class="cls-4" d="M513.94,312.68c-6.33-6.78-22.12-17.25-29.62-25.93-7.18-8.3-13.46-21.55-25.16-24.39-1.24-.3-11.42,1.54-12.58,1.32,21.77,6.94,28.85,29.91,41.27,44.54,5.22,6.13,14.71,11,17.57,19.75,2.3,7-3.78,26.71-23.95,30.16-.22,0,8.94-.59,8.74-.48,5.63-.34,9.39-.6,9.39-.6C522.87,347.44,521.38,320.66,513.94,312.68Z"/><path class="cls-5" d="M452.76,359.48h0c-6.28,0-10.47-.25-12.47-.75l-.13-.06a10.37,10.37,0,0,1-4.93-7.18c-.89-5.82,3.37-11.65,4.2-12.73-2.07-7.35-7.19-10.68-12.61-14.2-5-3.22-10.1-6.56-12.68-13.22-6.89-17.77,3.95-35.64,4.06-35.82s6.61-15.26,27.79-15.26A56.38,56.38,0,0,1,459.25,262c8.84,2.14,14.48,9.92,19.94,17.43,1.85,2.55,3.6,5,5.43,7.08,4.14,4.79,10.71,10,17.06,15.12,5,4,9.72,7.76,12.56,10.8,3.72,4,6.36,13.21,4.21,23.09-2.19,10.07-8.83,17.86-18.7,21.93l-.12,0C499.34,357.47,470.44,359.48,452.76,359.48ZM440.55,358c2,.47,6.07.71,12.21.71,17.24,0,45.19-1.91,46.75-2,9.57-4,16-11.55,18.15-21.34,2.09-9.6-.44-18.51-4-22.35-2.79-3-7.49-6.76-12.46-10.73-6.38-5.1-13-10.37-17.17-15.22-1.85-2.14-3.61-4.57-5.48-7.13-5.37-7.4-10.92-15.05-19.47-17.12A55.83,55.83,0,0,0,446,261.07c-20.65,0-27,14.67-27.07,14.82s-10.77,17.77-4,35.16c2.49,6.42,7.5,9.68,12.36,12.83,5.35,3.48,10.89,7.07,13,14.87l.06.2-.14.16c-.05.06-5.07,6.31-4.15,12.26A9.58,9.58,0,0,0,440.55,358Z"/><path class="cls-6" d="M489.09,341.65c-7.31.52-13.95,14.64-12,19.07S501.5,364,502,360.33,498,341,489.09,341.65Z"/><path class="cls-7" d="M492.29,342.14c3,3.14,3.12,8.7.8,13.06-2,3.71-6.37,6.64-14.65,6.79,5.32,2.86,23.11,1.6,23.52-1.66S499.08,344.81,492.29,342.14Z"/><path class="cls-8" d="M488.41,364h0c-2.43,0-10.46-.22-11.72-3.11-1-2.41.23-7.51,3-12.13s6.16-7.28,9.35-7.51c2.73-.2,5.21,1,7.44,3.52,4.17,4.73,6.19,12.92,5.86,15.62S493.84,364,488.41,364ZM489.62,342h-.5c-2.92.21-6.1,2.81-8.71,7.12s-3.91,9.23-3,11.39c.69,1.59,5,2.62,11,2.62h0c6.81,0,12.95-1.35,13.14-2.9.29-2.29-1.56-10.34-5.66-15C494,343.13,491.87,342,489.62,342Z"/><path class="cls-6" d="M443.13,338.72c-7.31-.61-14.41,13.22-13.19,17.89s23.64,7,24.65,3.45S452.07,339.47,443.13,338.72Z"/><path class="cls-7" d="M445.41,339.3a10.75,10.75,0,0,1,.41,14.37c-2.81,3.36-7.79,5.49-14.33,4.66,6.11,3.45,22.3,4.54,23.1,1.73C455.51,356.83,452.67,342.42,445.41,339.3Z"/><path class="cls-8" d="M447.94,362.18h0c-7.08,0-17.51-2.08-18.39-5.47-.75-2.86,1.38-8.73,4.74-13.08,2.82-3.65,6-5.57,8.87-5.31,2.71.22,5.14,1.86,7.21,4.86,3.87,5.6,5.33,14.49,4.61,17C454.5,361.84,450.89,362.18,447.94,362.18Zm-5.28-23.07c-2.49,0-5.23,1.78-7.73,5-3.17,4.11-5.28,9.78-4.6,12.39s10.21,4.86,17.61,4.86c4.32,0,6.07-.76,6.26-1.42.68-2.38-.75-10.89-4.49-16.31-1.93-2.79-4.16-4.31-6.62-4.52Z"/><path class="cls-6" d="M466.28,342c-8.34,0-15.27,14.29-13.59,18.81s24.23,4.57,24.88.93S475.25,342,466.28,342Z"/><path class="cls-7" d="M467.68,342.18c3.77,2.7,4.62,9.12,1.21,14.05-2.4,3.48-6.91,6.23-14,6.42,6.08,2.63,22.13,2.18,22.68-.88C478.18,358.33,475.56,343.75,467.68,342.18Z"/><path class="cls-8" d="M466.6,364.78h0c-4.78,0-13.17-.8-14.29-3.8-1-2.59.71-8.12,3.81-12.58,1.76-2.53,5.41-6.77,10.16-6.77h0a8.41,8.41,0,0,1,6.57,3.41c4.17,5,5.6,14.11,5.12,16.8S468.41,364.78,466.6,364.78Zm-.32-22.34c-3.2,0-6.66,2.34-9.49,6.42s-4.59,9.51-3.72,11.83c.71,1.9,6.4,3.28,13.53,3.28,6.6,0,10.37-1.17,10.57-2.27.46-2.58-.93-11.35-4.94-16.14a7.66,7.66,0,0,0-6-3.12Z"/><path class="cls-5" d="M454.38,340.48a8.37,8.37,0,0,0-7.24-5.55,7.25,7.25,0,0,0-7.06,4.32l-.73-.36a8.11,8.11,0,0,1,7.84-4.77,9.11,9.11,0,0,1,6.39,3.33A7.13,7.13,0,0,1,454.38,340.48Z"/><path class="cls-5" d="M478.4,340.85a14.36,14.36,0,0,0-10.77-8.59c-5.05-.85-10.25,1.14-14.29,5.45l-.59-.56c4.22-4.51,9.7-6.58,15-5.69a14.73,14.73,0,0,1,8.76,4.93C477.57,337.59,478.4,340.85,478.4,340.85Z"/><path class="cls-5" d="M495.74,337.64c-2.44-4.05-6-6.3-9.58-6a7.16,7.16,0,0,0-6.14,4.72s.31-2.65,1.86-3.87a7.83,7.83,0,0,1,4.22-1.66,8.47,8.47,0,0,1,5.64,1.48C494.18,333.93,495.74,337.64,495.74,337.64Z"/><g class="cls-9"><path class="cls-10" d="M431.46,312.43c-1.54,2.27-.2,10.29,4.67,11.92s10.55,1.62,12.48-1.22-1.73-9.11-5-11S433.49,309.43,431.46,312.43Z"/></g><g class="cls-9"><path class="cls-10" d="M458.08,312.43c-1.54,2.27-.21,10.29,4.66,11.92s10.55,1.62,12.48-1.22-1.72-9.11-5-11S460.11,309.43,458.08,312.43Z"/></g><g class="cls-9"><path class="cls-10" d="M464,292.44c2.28,4.9.83,10.4-3.22,12.28s-9.19-.56-11.46-5.46-.83-10.39,3.22-12.28S461.71,287.54,464,292.44Z"/></g><g class="cls-9"><path class="cls-10" d="M428.32,284c-3.34,0-6.84,16-2,20.9,2.7,2.75,14.84,1.42,15.31-1.42C442.68,296.92,434.13,284,428.32,284Z"/></g><path class="cls-2" d="M240.61,267.37c5.88-4.67,14.84-13.94,13-31s-31.45-44.63-31.45-44.63l-14.34,4.59C196.6,208.69,155.35,216,150.75,254c-3.42,28.18,22.59,59.78,29.42,66.75a21.24,21.24,0,0,0-10.65,14.17c2.23,5.58,7.71,19.17,7.71,19.17,6.29,1.12,70.1,9.44,79.84-4.16S257.25,290.09,240.61,267.37Z"/><path class="cls-3" d="M193.7,330.51c-2.14-5.82-7.31-12.18-13.53-9.78a21.24,21.24,0,0,0-10.65,14.17l1.17,2.94c1.09-2.38-.28-3.46,1.63-5.38C179.15,319.66,188,322.13,193.7,330.51Z"/><path class="cls-3" d="M155.62,253.43c4.91-28.2,33-39.9,46-52.61-4.45,3.21-15.36,8.26-27,16.21-11,7.53-21.65,18.5-23.88,36.95-2,16.59,8.4,46.8,29.17,65.89C167.22,301.86,152.61,270.71,155.62,253.43Z"/><path class="cls-4" d="M240.61,267.37c5.88-4.67,14.84-13.94,13-31-.35-3.22-3.4.13-5.35-3.58-.87,4.8-4.66,9.6-11.77,11.7s-16-3.18-24.49-5.54c16.75,12.54,41.4,76.17,34.79,95.06-3.65,10.43-13.63,16.35-20.9,23.55,14.32-.24,27.21-2.14,31.17-7.67C266.81,336.32,257.25,290.09,240.61,267.37Z"/><path class="cls-5" d="M259.13,312c-3.46-17.14-10.17-33.75-18-44.54,9.89-8,14.21-18.44,12.85-31.09-1.83-17-30.36-43.76-31.58-44.89l-.55.59c.3.28,29.53,27.68,31.32,44.38,1.35,12.49-3,22.79-12.85,30.62l-.31.24.23.32c16.71,22.82,25.94,68.84,16.46,82.07-9.29,12.95-69.57,5.69-79.22,4-.7-1.72-5.49-13.62-7.58-18.85a21,21,0,0,1,10.42-13.77l.48-.25-.38-.39c-.34-.34-33.14-34.8-29.31-66.43,3.21-26.5,24-37.72,40.72-46.74a81.13,81.13,0,0,0,9.72-6.46c-2.91,1.87-6.36,3.73-10.1,5.75-16,8.62-37.88,20.44-41.15,47.36-3.65,30.17,25.53,62.77,29.17,66.69a21.89,21.89,0,0,0-10.39,14.21l0,.11,0,.11c2.23,5.58,7.71,19.17,7.71,19.17l.08.21.22,0a321.41,321.41,0,0,0,45,3.52c15.92,0,30.87-1.79,35.21-7.84C262,343.71,262.66,329.45,259.13,312Z"/><path class="cls-5" d="M241,268.62c-15-20.86-28.86-29.57-29-29.65s5.63,2.57,13,9.71a145.8,145.8,0,0,1,16.67,19.46Z"/><path class="cls-5" d="M194.08,333.18c-1.28-4.54-4.1-10-8.14-11.87a7.36,7.36,0,0,0-6.44.25l-.35-.73a8.1,8.1,0,0,1,7.12-.26c3.44,1.55,5.71,5.2,7.08,8.24A12.15,12.15,0,0,1,194.08,333.18Z"/><path class="cls-5" d="M217.67,336.72c-3.11-7.25-6.68-11.32-10.91-12.44-3.92-1-8.43.43-13.78,4.49l-.49-.64c5.56-4.22,10.3-5.74,14.47-4.64,3.15.84,5.93,3.16,8.42,7.05A32.4,32.4,0,0,1,217.67,336.72Z"/><path class="cls-5" d="M240.37,336c-2-4.37-5.21-7.08-8.91-7.63-3.49-.52-7,1-9.9,4.18a10.4,10.4,0,0,1,4.3-4.2,9.26,9.26,0,0,1,5.72-.78,11.08,11.08,0,0,1,6.19,3.21C239.07,332.05,240.37,336,240.37,336Z"/><path class="cls-6" d="M163.29,346.93c.79,6.95,23.25,11.11,24.48,8.11s-.75-21-9.59-23.6C172.08,329.65,162.68,341.52,163.29,346.93Z"/><path class="cls-7" d="M180,332.24a12,12,0,0,1-.38,13.83c-2.82,3.66-7.86,5.69-13.7,4.11,1.41,3.73,20.69,7.67,21.85,4.86S187.28,336.58,180,332.24Z"/><path class="cls-8" d="M183.44,356.42h0c-6.64-.25-19.91-3.8-20.55-9.45-.32-2.8,1.9-7.39,5.4-11.16s7.24-5.57,10-4.76,5.19,3.17,7,7c3.08,6.38,3.69,15.06,2.83,17.15C187.77,356.1,186.19,356.52,183.44,356.42Zm-6.39-24.76c-2.35-.08-5.32,1.63-8.17,4.7-3.29,3.55-5.47,8-5.18,10.52.56,5,13.12,8.48,19.77,8.72h0c2.64.1,3.76-.32,3.92-.72.79-1.92.13-10.4-2.81-16.49-1.73-3.6-3.92-5.81-6.52-6.57A4.73,4.73,0,0,0,177.05,331.66Z"/><path class="cls-6" d="M189.4,353.23c-.61,5.14,6.09,7.44,13.39,7.94s13.21-1.2,13.56-5.88c.51-7-4.12-19.28-11.9-19.82C198.56,335.06,190.75,341.85,189.4,353.23Z"/><path class="cls-7" d="M206.58,335.93a15.46,15.46,0,0,1,.8,15.42c-2.43,4.37-7.59,7.38-16.29,6.2,2.37,2.18,6.9,3.29,11.7,3.62,7.31.51,13.21-1.2,13.56-5.88C216.81,349,213.06,338.31,206.58,335.93Z"/><path class="cls-8" d="M205.19,361.67h0c-.78,0-1.6,0-2.43-.09-3.55-.25-9.91-1.14-12.59-4.38a5.12,5.12,0,0,1-1.17-4c1.37-11.53,9.26-18.53,15.48-18.11a9.91,9.91,0,0,1,6.79,3.8,25.21,25.21,0,0,1,5.48,16.44C216.46,359.35,212.24,361.67,205.19,361.67Zm-1.25-25.81c-5.83,0-12.9,7-14.14,17.42a4.33,4.33,0,0,0,1,3.4c1.84,2.23,6.11,3.68,12,4.09.81.06,1.61.08,2.37.08,6.57,0,10.49-2,10.75-5.59.32-4.43-1.56-11.57-5.28-15.86a9.12,9.12,0,0,0-6.24-3.52Z"/><g class="cls-9"><path class="cls-10" d="M172.19,238a9.7,9.7,0,0,0,9.11,10c5.25.42,9.89-2.67,10.14-6.55.36-5.79-3.36-14.27-8.94-14.71C178.26,226.45,172.42,232.61,172.19,238Z"/></g><path class="cls-6" d="M218.36,357.6c1,3,18.62,5.55,24.62-1.36,2.81-3.23-1.73-12.9-6-15.73a10.71,10.71,0,0,0-12.42.72C221.1,344,216.92,353.25,218.36,357.6Z"/><path class="cls-7" d="M237,340.51a10.64,10.64,0,0,0-6.93-1.57c4.35,2.81,6.47,8.65,4.5,13.29-1.67,3.92-6.24,7-14.85,6.61,4.44,2.33,18.1,3.33,23.25-2.6C245.79,353,241.25,343.34,237,340.51Z"/><path class="cls-8" d="M229.7,361.07h0c-5.1,0-11-1.28-11.71-3.35-1.55-4.66,2.9-14,6.35-16.81a11.15,11.15,0,0,1,12.91-.74c3.12,2.08,6.35,7.67,6.93,11.95a5.53,5.53,0,0,1-.88,4.39C240.77,359.41,235.81,361.07,229.7,361.07Zm1.58-21.8a10.14,10.14,0,0,0-6.44,2.27c-3.54,2.86-7.42,11.9-6.09,15.93.43,1.29,5.3,2.79,10.94,2.79h0c5.88,0,10.61-1.56,13-4.28a4.75,4.75,0,0,0,.68-3.75c-.53-4-3.67-9.44-6.57-11.38A10.08,10.08,0,0,0,231.28,339.27Z"/><g class="cls-9"><path class="cls-10" d="M161.4,269.87c3.36,2.11,13.8,1.2,15.62-.51s1-17.14-3.24-20.59c-2.86-2.3-9.95-2.71-11.16-1.56s-5.48,8.68-5.28,11.36S158.73,268.19,161.4,269.87Z"/></g><g class="cls-9"><path class="cls-10" d="M188.18,262.46c-2.37,3.12-2.93,10.35,1.69,13.87,2.31,1.76,7,4,10.79.1s1.93-9.39-.25-11.84C197,260.79,190,260.05,188.18,262.46Z"/></g><path class="cls-16" d="M222.13,278.41c-2.17,1.39-5.4.24-7.22-2.59s-1.52-6.24.66-7.64,5.4-.23,7.22,2.59S224.3,277,222.13,278.41Z"/><g class="cls-9"><path class="cls-10" d="M215.51,297.57c-8.27,4.43-8.74-8.84-6.57-10.23S223.08,293.51,215.51,297.57Z"/></g><g class="cls-9"><path class="cls-10" d="M203.1,259.93c-3.61-.81-5.3-14.16,3.34-10.25S207.22,260.86,203.1,259.93Z"/></g><g class="cls-9"><path class="cls-10" d="M233.94,309.23a5.91,5.91,0,1,1-5.91-5.9A5.92,5.92,0,0,1,233.94,309.23Z"/></g><g class="cls-9"><path class="cls-10" d="M194.14,299.7c-3,2,.3,16.92,2.67,18.28s9.06-.47,10.34-1.42-.64-12.29-2.3-13.73C202.89,301.13,196.5,298.13,194.14,299.7Z"/></g><g class="cls-9"><path class="cls-10" d="M168.81,283.26c-2.09.8-2.14,9.64,0,12.48s8.31,10.45,12,8.52,7.1-5.17,7.1-7.61-10-11.36-12-12.58A10.07,10.07,0,0,0,168.81,283.26Z"/></g><path class="cls-17" d="M370.69,81.92c-13-8.12-48.15-26-94.69,5.41-18.26-3.11-47.14,14.13-56.88,28.54-13.89,1.21-17.75-6.6-21.91-4.47s-9.74,41.8,15.22,60.6c-3,14.07,7.77,36.23,34.42,50.16-1.28,22.62,22.39,39.93,45.93,41.55,8.38,11.5,40.31,23.54,60.33,21.24,27.73,3.65,64.05,3.59,82.92-18.33,22.52,1.42,48.29-.81,58.43-14.81,18.46.81,30-2.7,33.28-14.2,11-1.9,18.93-4.6,21.1-14.88-14.61-2.27-27.5-14.41-41.66-20.7-1.36-15.15-6.63-43.76-26.52-58-2.33-15.32-14.2-43.42-49.1-44C417.16,79.75,384.22,74.61,370.69,81.92Z"/><path class="cls-18" d="M548.84,222.73l-.77-.14c-2.19,2.76-4.6,5.29-8.57,5.68-13.14,2.08-18.85-11.41-22.52-21.21-3.59-1.44-7.11-4.21-10-5.36,3.1,14.15,8,33,18,41.67a17.83,17.83,0,0,0,2.78-5.76C538.69,235.71,546.67,233,548.84,222.73Z"/><path class="cls-19" d="M378.61,287.15a197.42,197.42,0,0,1-25.51-1.79,46,46,0,0,1-5.26.28c-19.51,0-47.29-10.84-55.28-21.53-23.27-1.69-47.24-18.79-46.13-41.71C220,208.46,209.09,186.67,212,172.17c-15.77-12-19.94-33.17-18.57-49,.56-6.44,2-11.33,3.62-12.15a3.61,3.61,0,0,1,1.7-.41c1.35,0,2.73.69,4.47,1.56a26.59,26.59,0,0,0,13,3.4c.86,0,1.75,0,2.66-.11,9-13.14,34.34-28.93,52.53-28.93a27.87,27.87,0,0,1,4.48.35c17.6-11.84,35.37-17.84,52.83-17.84,14.62,0,28.74,4.17,42,12.39,3.86-2,9.17-3.09,15.38-3.09,15.16,0,35.13,6.58,45.68,21.28,31.4.65,46.15,24.16,49.27,44.2,19.75,14.22,25.09,42.27,26.52,57.92a134.09,134.09,0,0,1,15.5,8.72c8.28,5.14,16.83,10.45,25.84,11.85l.42.06-.09.42c-2.29,10.92-11.3,13.43-21.17,15.15-2.9,9.8-12,14.37-28.76,14.37h0c-1.46,0-3,0-4.63-.1-9.26,12.53-30.84,15.17-47.35,15.17-3.56,0-7.3-.12-11.11-.36C424.61,280.39,405.23,287.15,378.61,287.15Zm-25.5-2.61h.05a196.42,196.42,0,0,0,25.45,1.79c26.48,0,45.69-6.72,57.11-20l.13-.16.2,0c3.87.24,7.66.37,11.26.37,16.4,0,37.83-2.61,46.82-15l.13-.17h.22c1.67.07,3.29.11,4.81.11,16.67,0,25.32-4.33,28.06-14l.07-.25.25,0c11.74-2,18.55-4.91,20.68-14.15-9-1.52-17.5-6.79-25.71-11.89A132.75,132.75,0,0,0,507,202.4l-.22-.09,0-.24c-1.38-15.5-6.64-43.6-26.34-57.67l-.14-.1,0-.17c-.67-4.39-7.72-43-48.71-43.68h-.2l-.12-.16C420.88,85.7,401.1,79.17,386.09,79.17c-6.19,0-11.45,1.07-15.21,3.1l-.2.11-.2-.12c-13.16-8.22-27.2-12.39-41.74-12.39-17.34,0-35,6-52.51,17.79l-.13.09-.16,0a27,27,0,0,0-4.51-.37c-18,0-43.17,15.72-52,28.74l-.11.16h-.19c-1,.09-2,.13-2.92.13a27.36,27.36,0,0,1-13.4-3.48c-2.31-1.16-4-1.92-5.44-1.16-1.13.58-2.62,5-3.18,11.5-1.35,15.67,2.78,36.61,18.45,48.42l.21.15,0,.26c-2.94,13.89,8,36,34.21,49.71l.23.12,0,.26c-1.28,22.64,22.52,39.54,45.56,41.13H293l.12.16c7.71,10.57,35.33,21.35,54.73,21.35a45.45,45.45,0,0,0,5.22-.28Z"/><path class="cls-18" d="M507.18,202c-.3-3.32-.79-7.28-1.57-11.59l-24.41,14.3s10.69,36.52,13.26,47.07c18.46.81,30-2.7,33.28-14.2Zm-5.52,44.59c-6.41-4.76-11-30.9-9.48-38.36.62-3,5.32-5.43,8.77-5.15,5.23.43,21.57,29.07,20.74,34.28C520.76,243.24,503.29,249.05,501.66,246.62Z"/><path class="cls-19" d="M499.3,252.33h0c-1.53,0-3.16,0-4.85-.11l-.3,0-.07-.29c-2.54-10.42-13.15-46.69-13.25-47.06l-.09-.3,25.18-14.76.1.57c.69,3.78,1.21,7.67,1.56,11.55l20.6,35.64,0,.17C525.31,247.69,516.15,252.33,499.3,252.33Zm-4.52-.91c1.57.06,3.08.1,4.51.1,16.57,0,25.22-4.28,28-13.86l-20.52-35.5v-.09c-.33-3.69-.82-7.39-1.46-11l-23.63,13.85C482.71,208.44,492.25,241.14,494.78,251.42Z"/><path class="cls-18" d="M486.07,207.71c-.54-6.89-25.25-25.1-25.25-25.1l-27.09,12.93s2.4,59.82,2.3,71.08c22.52,1.42,48.29-.81,58.43-14.81C495.41,236.8,486.07,207.71,486.07,207.71Zm-40,46.41c0-15.42-2.4-36.12-2.6-45.86-.09-4.57,11.14-12.35,16.11-12.76,5.66-.46,14.38,5.54,18.82,12.21,5.83,8.77,8.12,28.69,4.67,38.91C480.53,254.06,446,259.8,446,254.12Z"/><path class="cls-19" d="M447.32,267.4h0c-3.62,0-7.43-.13-11.31-.37l-.38,0v-.38c.1-11.12-2.28-70.47-2.3-71.06v-.27l.24-.12,27.32-13,.19.15c1,.74,24.76,18.31,25.41,25.34.42,1.3,9.32,29.56,8.4,44.21V252l-.07.1C485.6,264.73,463.9,267.4,447.32,267.4Zm-10.89-1.16c3.74.23,7.39.35,10.88.35,16.36,0,37.72-2.6,46.75-14.92.88-14.8-8.28-43.54-8.37-43.83l0-.09c-.5-6.32-22.57-22.94-24.89-24.67l-26.64,12.71C434.31,200.11,436.48,254.61,436.43,266.24Z"/><path class="cls-18" d="M477.72,144.16c-3.4.05-7.64,0-7.64,0C467.47,150.7,460,186.51,460,186.51s19.72,12.14,26.07,21.2c3.71-2.24,14.24-10.25,20-14.55-8.21,2.62-17.05,4.54-21.89,2.34C473.91,190.85,474.44,163.16,477.72,144.16Z"/><path class="cls-19" d="M486,208.26l-.22-.31c-6.24-8.9-25.76-21-26-21.09l-.24-.15.06-.28c.3-1.47,7.51-35.92,10.11-42.42l.1-.26h.28s1.94,0,4.25,0c2.9,0,5.08,0,6.3-.11h.14l.12.08c16.52,11.8,23,33.36,25.57,49.36l0,.24-.2.15c-2,1.42-4.35,3.21-6.88,5.11-5,3.78-10.21,7.69-13.15,9.46Zm-25.51-21.94c2.36,1.46,19.51,12.31,25.73,20.85,2.95-1.84,7.94-5.58,12.77-9.21,2.44-1.84,4.75-3.58,6.68-5-2.54-15.79-9-36.9-25.09-48.5-1.27.07-3.35.11-6.2.11l-4,0C467.83,151.3,461.15,183,460.45,186.32Z"/><path class="cls-17" d="M436.43,203.11c-1.08-4.59-26-23.26-26-23.26L364.6,191.76s-8.18,76.89-11.49,93.19c27.73,3.65,64.05,3.59,82.92-18.33C443.74,229.36,436.43,203.11,436.43,203.11Z"/><path class="cls-18" d="M436.43,203.11c-1.08-4.59-26-23.26-26-23.26L364.6,191.76s-8.18,76.89-11.49,93.19c27.73,3.65,64.05,3.59,82.92-18.33C443.74,229.36,436.43,203.11,436.43,203.11Zm-10.14,61c-6.51,7.51-50.17,18.4-55,9.19-5.62-10.62,5.2-58.11,9.05-64,4.86-7.43,15.46-13.17,26.1-14.88,12.11-1.94,22,6.54,24.49,18.72C433.32,228.6,433.32,256,426.29,264.13Z"/><path class="cls-19" d="M378.61,287.15h0a196.37,196.37,0,0,1-25.56-1.8l-.43-.05.09-.43c3.27-16.09,11.41-92.39,11.49-93.16l0-.28,46.31-12,.16.12c1,.76,25,18.8,26.13,23.49.07.25,7.23,26.76-.41,63.69l0,.1-.07.08C424.75,280.34,405.33,287.15,378.61,287.15Zm-25-2.55a194.55,194.55,0,0,0,25,1.74c26.42,0,45.61-6.69,57-19.9,7.56-36.67.46-63,.39-63.22-.86-3.64-18.67-17.67-25.67-22.93L365,192.08C364.44,197.14,356.82,268.13,353.59,284.6Z"/><path class="cls-18" d="M369.61,201S343,177,338.73,173.49c0,0-18.36,9.64-23.33,12.68,0,0-19.22,70.61-22.62,77.54,8.38,11.5,40.31,23.54,60.33,21.24C371.21,256.88,369.61,201,369.61,201Zm-18.86,66c-11.37,9.74-43.09-1.61-40.93-12.57,1.89-13.93,12-56.85,15-60.77,1.89-4.23,7.57-6.66,11.9-7.84,8-1.91,23.93,9.54,26,19.07C366.77,227.6,361,253.79,350.75,267Z"/><path class="cls-19" d="M347.84,285.64h0c-19.6,0-47.55-10.94-55.39-21.69l-.14-.19.1-.22c3.35-6.82,22.41-76.77,22.6-77.47l0-.16.14-.08c4.92-3,23.17-12.6,23.36-12.7l.24-.12.2.17c4.22,3.51,30.62,27.23,30.89,27.47l.13.11v.18c0,.56,1.39,56.38-16.57,84.23l-.11.16-.19,0A47,47,0,0,1,347.84,285.64Zm-54.59-22c7.9,10.51,35.31,21.16,54.59,21.16h0a47.23,47.23,0,0,0,5-.26c17.22-26.92,16.41-80,16.34-83.44-2-1.79-25.91-23.25-30.53-27.15-2.16,1.13-18.16,9.56-22.93,12.45C314.51,191,296.84,255.77,293.25,263.67Z"/><path class="cls-18" d="M317.94,191.75s-27.29-17.65-32.87-18.26c0,0-32.4,41-38.22,48.67-1.28,22.62,22.39,39.93,45.93,41.55C312.63,246,318.75,202.84,317.94,191.75Zm-22.28,55.46c-14.51,10.35-40.58-12.57-36-26,3.25-9.41,19-25.93,26.54-37.57,7.5-.84,20.19,7.43,24.8,12.81C313.68,201.39,308.64,238,295.66,247.21Z"/><path class="cls-19" d="M292.92,264.13h-.17c-23.42-1.62-47.61-18.87-46.31-42V222l.07-.09c5.76-7.6,37.91-48.27,38.23-48.68l.14-.18.22,0c5.61.61,31.93,17.6,33.05,18.32l.17.11v.2c.82,11.24-5.22,54.35-25.29,72.3Zm-45.67-41.82c-1.19,22.51,22.45,39.33,45.38,41,19.65-17.73,25.64-59.9,24.92-71.32-2.29-1.47-26.67-17.09-32.31-18C282.89,176.9,253,214.74,247.25,222.31Z"/><path class="cls-18" d="M268.23,138.32s-53,31.77-55.82,33.8c-2.89,14.08,7.87,36.15,34.44,50,21.27-9.76,38.22-48.67,38.22-48.67C287.23,167.81,272.69,144.07,268.23,138.32Zm11,37.71c-4.87,12.17-14.53,27-26.92,33.05-13.19,6.46-34.21-25.78-27.17-34.3,2.48-3,11.47-7.8,19.65-13.39,5.8-4,15.17-8,20.6-11C274.69,154.62,280.17,170.36,279.23,176Z"/><path class="cls-19" d="M246.84,222.61l-.18-.09C220,208.57,209,186.56,212,172l0-.15.13-.1c2.85-2,53.68-32.52,55.85-33.82l.31-.18.22.28c3.9,5,19.25,29.39,16.9,35.57-.18.4-17.26,39.17-38.43,48.89Zm-34.07-50.24c-2.8,14.19,8,35.62,34.09,49.34,20.81-9.73,37.67-48,37.84-48.38,2-5.17-11.38-27.64-16.58-34.47C263.82,141.44,216.62,169.77,212.77,172.37Z"/><path class="cls-20" d="M197.82,115.46c7.25-.72,13.71,6.24,21.15.83l.15-.42c-13.89,1.21-17.75-6.6-21.91-4.47-.89.46-1.84,2.64-2.55,6A5.83,5.83,0,0,1,197.82,115.46Z"/><path class="cls-18" d="M237.18,133.93c4.87,6.08,6.9,9.94,2.84,16.43-4.87,6.49-16.45,11.19-26.37,6.34-12.06-5.88-17.1-21.23-19.42-36.95-2,13-.25,37.95,17.75,51.9,8.77.42,35.35-13.85,41.64-21.29Z"/><path class="cls-19" d="M212.37,172.07h-.54l-.1-.08C196,159.79,192,138.57,193.45,122.78c.58-6.22,2-10.94,3.58-11.74a3.61,3.61,0,0,1,1.7-.41c1.35,0,2.73.69,4.47,1.56a26.59,26.59,0,0,0,13,3.4c.92,0,1.88,0,2.85-.13h.19l34.89,34.89-.24.28C247.68,158,221.79,172.07,212.37,172.07Zm-.24-.82h.24c8.92,0,34.26-13.7,40.69-20.88L219,116.29c-.93.07-1.85.11-2.73.11a27.36,27.36,0,0,1-13.4-3.48c-2.31-1.16-4-1.92-5.44-1.16-1.08.55-2.54,4.63-3.14,11.09C192.81,138.4,196.75,159.25,212.13,171.25Z"/><path class="cls-20" d="M276,87.33c-17.61-3-46.93,14.1-56.88,28.54,16.56-12,38.11-23.51,57.13-28.16Z"/><path class="cls-18" d="M293.72,115.06c-2.09-3.29-10.85-16.89-15-23.4,1.23,4.13,5.92,19.58,4.43,23.4-2.13,5.45-17.68,26.45-29.52,24.59-9.14-1.44-32.22-22.08-33.84-23,3.32,4,18.89,22.54,33.84,33.69,4.46-1.62,16-7.5,16-7.5C274.11,140.08,294.4,118.3,293.72,115.06Z"/><path class="cls-19" d="M253.55,150.82l-.18-.13c-16.68-12.46-34.38-34.35-34.56-34.57l-.19-.23.17-.25c8.91-13.17,34.37-29.09,52.64-29.09a27.41,27.41,0,0,1,4.64.38l.18,0,17.87,28c.76,3.64-20,25.57-24.26,28.24-.15.07-11.67,5.92-16.1,7.53Zm-33.92-35c2,2.38,18.43,22.33,34.05,34.05,4.54-1.69,15.67-7.34,15.78-7.4,5.09-3.17,24.16-24.28,23.88-27.3L275.76,87.7a27.24,27.24,0,0,0-4.33-.34C253.52,87.36,228.58,102.88,219.63,115.85Z"/><path class="cls-20" d="M370.76,83.09c0-.17-.05-1.18-.07-1.17-13-8.12-48.15-26-94.69,5.41l.3.46C306.57,73.53,335.79,67.65,370.76,83.09Z"/><path class="cls-18" d="M372.09,90.33c-4.16,9.29-24.72,26.22-33.66,27.14-11.61,1.2-37.94-2.83-55.38-19.12l10.67,16.71c6.5,4.46,44.3,19.07,44.3,19.07,5.35-3.38,36.32-26,36.32-26C374.19,104.57,373.05,96.61,372.09,90.33Z"/><path class="cls-19" d="M338.07,134.58l-.19-.07c-1.55-.6-37.93-14.68-44.39-19.12l-.11-.12L275.45,87.21l.33-.22c17.64-11.9,35.46-17.93,53-17.93,14.62,0,28.74,4.17,42,12.39l.3-.17.14.54c.56,3.38,3.36,20.5,3.6,26.29v.21l-.17.13c-.31.23-31.05,22.67-36.34,26ZM294,114.77c6.33,4.27,41.05,17.78,44,18.91,5.5-3.55,33.45-23.93,35.94-25.75-.29-5.81-2.9-21.9-3.54-25.73C357.26,74,343.25,69.87,328.74,69.87c-17.23,0-34.78,5.91-52.18,17.57Z"/><path class="cls-20" d="M432,101.78c-.23-.9-.39-1.53-.45-1.74h0c-14.4-20.29-47.34-25.43-60.87-18.12v1C393.73,79.72,417.05,86.32,432,101.78Z"/><path class="cls-18" d="M413.84,123c-7.3-.61-27.65-14.54-34.09-19.13-2-1.41-7.33-6.66-8.84-11.44l.3,14.41c3.4,2.85,42.14,30.68,42.14,30.68,2.89-2.22,23.08-18.7,23.08-18.7-.4-1.44-2.84-10.79-3.79-14.47C432.85,118.78,421.15,123.57,413.84,123Z"/><path class="cls-19" d="M413.48,137.89h-.13c-.58,0-42-30.47-42.4-30.77l-.14-.12-.53-25.32.22-.12c3.87-2.09,9.26-3.2,15.59-3.2,15.16,0,35.13,6.58,45.68,21.28h.11l.1.3c0,.15,3.9,15.4,4.84,18.73l.07.25-.2.17c-.2.17-20.23,16.51-23.1,18.72Zm-41.87-31.28c4,3.21,38.46,28,41.73,30.37,3.37-2.64,20.54-16.65,22.63-18.35-1-3.65-4.39-16.94-4.75-18.37-10.35-14.57-30.13-21.09-45.13-21.09-6.07,0-11.25,1-15,3Z"/><path class="cls-20" d="M475.28,127.13c-6.6-13.33-19.71-26.76-43.72-27.18l.2.94C448.91,104,464.23,114.22,475.28,127.13Z"/><path class="cls-18" d="M475.47,127.52c.1,4.22-1,7.69-4,9.42-17-18.65-31-17.28-39.48-35.09,1.11,4.49,3.86,15.49,4.4,16.84,6.09,5.88,33.65,25.38,33.65,25.38l10.58-.09A58.7,58.7,0,0,0,475.47,127.52Z"/><path class="cls-19" d="M470,144.48l-.1-.08c-.28-.19-27.66-19.58-33.7-25.42l-.1-.14c-.67-1.7-4.71-18.09-4.88-18.79l-.13-.51h.53c31.63.55,46.43,24.25,49.49,44.37l.07.46Zm-33.17-26c5.93,5.68,31.55,23.87,33.43,25.2l10-.08c-1-6.1-8.77-42.2-48.11-43.21C432.78,103.18,436.11,116.62,436.78,118.46Z"/><path class="cls-18" d="M470.25,144.41c-7.64-11.8-33.82-25.63-33.82-25.63s-20.56,17.11-24.08,19.41c.14,4.46-2,44.09-2,44.09,3.39,2.3,21.17,15.63,26.11,20.83,5.07-3.24,21.71-14,23.94-17C465.24,177.45,473.87,153.1,470.25,144.41Zm-3.92,10.28c.1,7.49-10.42,31.38-26.65,33.82-8.12,1.62-16.23-4.87-18.67-12.18-4.38-15.32-3.53-31.84-.95-36,4.74-7.58,12.87-14.72,19.5-13C444.77,128.73,466.18,144.34,466.33,154.69Z"/><path class="cls-19" d="M436.37,203.64l-.23-.25c-4.92-5.19-22.59-18.42-26-20.77l-.19-.13v-.23c0-.39,2.16-39.67,2-44.06V138l.19-.12c3.46-2.26,23.84-19.22,24-19.39l.21-.17.24.13c1.07.56,26.36,14,34,25.77,3.85,9.22-5.29,34-9.86,42.08-2.22,3-17.58,13-24.08,17.19Zm-25.63-21.56c3.82,2.64,20.59,15.22,25.75,20.51,5.35-3.43,21.43-13.86,23.56-16.76,4.73-8.38,13.38-32.72,9.82-41.27-7.08-10.92-30.74-23.87-33.39-25.3-2.26,1.88-19.93,16.55-23.72,19.14C412.83,143.6,410.93,178.59,410.74,182.08Z"/><path class="cls-18" d="M414,138.46c-12.58-20-42.77-31.66-42.77-31.66L338,130.68v45.25l31.59,25s30.16-6.9,41.53-17.18C415.33,166.05,415.23,145.09,414,138.46Zm-14.06,40.95c-7.56,6.1-19.14,12.25-28.67,11-10.39-1.32-18.63-10.56-23.85-17.39-4-5.2-5.62-33.38-1.46-38.48,3.67-4.51,21.86-18.55,26.1-19.52,4.8-1.1,30.86,17.82,34.9,25.16C410.4,146.49,406.14,174.39,399.92,179.41Z"/><path class="cls-19" d="M369.51,201.39l-31.89-25.27V130.47l33.53-24.12.21.08c.3.11,30.45,11.91,43,31.81l.05.14c1.27,6.68,1.39,27.59-2.84,45.48l0,.13-.09.08C400.1,194.31,370,201.28,369.7,201.35Zm-31.08-25.66,31.28,24.78c2.56-.61,30.3-7.33,41.06-17,4.16-17.68,4.06-38.26,2.82-44.94-11.85-18.78-39.67-30.28-42.32-31.35l-32.84,23.63Z"/><path class="cls-18" d="M293.72,115.06c-10.78,5.68-24.07,27.8-24.07,27.8s11.76,18.19,15.42,30.63c10.35,8.12,30.84,18.47,32.87,18.26,6.49-6.08,20.08-15.82,20.08-15.82V130.68S311.85,116.07,293.72,115.06Zm36.59,57c-7.17,9.63-24.75,7.73-31.53,4-9.58-5.33-17.29-23.37-18-29.9-1.07-9.19,8.39-20.55,15.49-23.19,5.59-2.08,24.21,4.42,33,11.19C332.44,136.64,334,167.08,330.31,172.07Z"/><path class="cls-19" d="M317.87,192.16c-2.58,0-22.92-10.4-33.05-18.35l-.11-.08,0-.12c-3.6-12.25-15.26-30.34-15.37-30.53l-.14-.21.13-.22c.54-.9,13.47-22.28,24.23-27.95l.11-.06h.11c18,1,44.21,15.53,44.47,15.68l.21.11v45.69l-.17.13c-.14.09-13.65,9.79-20.05,15.79l-.1.09Zm-32.45-18.91c10.2,8,29.77,17.84,32.36,18.09,6.09-5.67,18.26-14.48,19.84-15.62v-44.8c-2.5-1.37-26.83-14.45-43.81-15.45-10,5.34-22.28,25.1-23.68,27.39C271.46,144.94,282,161.63,285.42,173.25Z"/><path class="cls-6" d="M156.83,311.16c-5,1.25-11.76,15.41-9.94,19.17s23.12.83,24.6-3.44S166.84,308.66,156.83,311.16Z"/><path class="cls-7" d="M158.7,310.88c5,2.68,6.45,8.43,4.22,12.35-2.62,4.61-9,7.7-12.64,8.63,6.54.93,20-1.6,21.21-5C172.87,322.89,167.59,310.4,158.7,310.88Z"/><path class="cls-8" d="M153.42,332.46c-2.71,0-6.11-.34-6.89-1.95-1-2.08.35-6.52,2-10,1.88-4,5.16-9,8.24-9.76,4.41-1.11,8.77.86,12,5.36,2.62,3.67,4,8.46,3.16,10.89C170.74,330.29,160,332.46,153.42,332.46Zm5.77-21.19a9.32,9.32,0,0,0-2.26.28c-2.61.66-5.75,5.16-7.7,9.33s-2.69,7.79-2,9.27c.45.94,2.76,1.5,6.16,1.5,7.05,0,16.79-2.3,17.68-4.89.66-1.9-.32-6.32-3-10.16C166.63,314.61,163.6,311.27,159.19,311.27Z"/><path class="cls-14" d="M404.33,295.64c.61,4.63-4.73,9.34-15.58,10.77S361,308,360.34,303.33c-.25-1.92-.14-7.27,3.14-9.52,4.66-3.2,18.9-2.34,25.27-3.17C399.6,289.22,403.72,291,404.33,295.64Z"/><path class="cls-14" d="M522.3,252.25c1.28,2.27-1.87,6.49-7,9.43s-10.43,3.49-11.71,1.22,1.87-6.48,7-9.42S521,250,522.3,252.25Z"/><path class="cls-14" d="M495.87,266.39c.84,2.47-3.05,6-8.68,8s-10.89,1.49-11.73-1,3-6,8.68-7.95S495,263.93,495.87,266.39Z"/></svg>