<svg id="Layer_1" data-name="Layer 1" xmlns="http://www.w3.org/2000/svg" viewBox="0 0 120 40"><defs><style>.cls-1{fill:#48474c;}.cls-2{fill:#201e25;}.cls-3{fill:#fff;}.cls-4{fill:#0f0f11;}.cls-5{fill:#a8a7a7;}</style></defs><path class="cls-1" d="M6.08,11.78c-.67-1.58-.28-3.14.72-5.2s6.32-4.53,10.65-1.33c4.89,3.63,7.42,10.61,7.42,13.09s.15,2.75,1.3,3.72a1.52,1.52,0,0,1-1.44,2.62c-1.88-.42-5.42,4.3-11,3.61s-9-5.38-6.89-9.51S7.81,15.9,6.08,11.78Z"/><path class="cls-2" d="M10.48,7.49A9.35,9.35,0,0,1,19.79,11c2.19,2.63,4.83,8,3.51,10.52s-7.13,4.71-11.18,2.63S1.71,13.4,10.48,7.49"/><path class="cls-3" d="M7.89,11.4a5.75,5.75,0,0,1,5.64-2.92,8.66,8.66,0,0,1,7,5.23c1.17,2.77,3.1,6.57.59,8.55S12.35,25.13,9.2,20.51,6.87,14,7.89,11.4Z"/><path class="cls-1" d="M10.93,28.36s1.48,2.54,7.29.68S25,26.57,25,26.57,23.31,31.12,19.37,32,11,32.39,10.93,28.36Z"/><path class="cls-4" d="M18.06,11.44c-2.31-1.1-5.77,1-6.48,3.76a5.94,5.94,0,0,0,3.51,6.7,5.38,5.38,0,0,0,7.1-3.43C23,15.47,20.74,12.73,18.06,11.44Z"/><path class="cls-3" d="M14.39,14.72A1.62,1.62,0,1,1,12.77,13,1.68,1.68,0,0,1,14.39,14.72Z"/><path class="cls-4" d="M7.12,18.79s.36,3.73,3.29,5.48,9.38,1.6,11.93-1.75C22.34,22.52,12.23,28.66,7.12,18.79Z"/><path class="cls-1" d="M111.34,15.7c.66-1.57.28-3.13-.73-5.2S104.3,6,100,9.18c-4.88,3.63-7.42,10.61-7.42,13.09S92.39,25,91.24,26a1.52,1.52,0,0,0,1.44,2.61c1.88-.41,5.42,4.3,11,3.62s9-5.39,6.89-9.51S109.61,19.83,111.34,15.7Z"/><path class="cls-2" d="M106.93,11.41a9.36,9.36,0,0,0-9.31,3.51c-2.19,2.63-4.82,8-3.5,10.52s7.12,4.7,11.17,2.62,10.41-10.73,1.64-16.65"/><path class="cls-3" d="M109.53,15.32a5.77,5.77,0,0,0-5.65-2.91,8.66,8.66,0,0,0-7,5.23c-1.17,2.77-3.1,6.57-.58,8.55s8.75,2.87,11.91-1.76S110.55,17.89,109.53,15.32Z"/><path class="cls-1" d="M106.48,32.28S105,34.83,99.19,33s-6.73-2.46-6.73-2.46S94.1,35.05,98,35.92,106.42,36.31,106.48,32.28Z"/><path class="cls-4" d="M101.52,14.69c2.3-1.1,5.76,1,6.47,3.76a5.93,5.93,0,0,1-3.51,6.7,5.38,5.38,0,0,1-7.1-3.43C96.57,18.72,98.83,16,101.52,14.69Z"/><path class="cls-3" d="M96.23,19.31a1.62,1.62,0,1,0,1.62-1.72A1.68,1.68,0,0,0,96.23,19.31Z"/><path class="cls-4" d="M110.29,22.72s-.36,3.72-3.28,5.48-9.39,1.6-11.93-1.76C95.08,26.44,105.18,32.58,110.29,22.72Z"/><path class="cls-5" d="M96.46,18.17c2.08-4,4.43-5.55,7.42-5.76a5.77,5.77,0,0,1,5.65,2.91c.66,1.65,1.21,3.05.7,5.05,1,.11-10.73-.65-14.76.87C95.63,20.86,96.29,18.51,96.46,18.17Z"/><path class="cls-4" d="M95.06,21.37s4-3.37,11-2.3c4.69.71,10.54,3.94,12.1,4.14,0,0-5.27-1-12.71-1.88S95.06,21.37,95.06,21.37Z"/><path class="cls-5" d="M20.76,13.44C19.4,10.74,16.45,8.2,13.45,8A5.74,5.74,0,0,0,7.81,10.9c-.66,1.65-1.22,3-.7,5-1,.11,10.73-.66,14.76.86A16.15,16.15,0,0,0,20.76,13.44Z"/><path class="cls-4" d="M22.24,17a11.58,11.58,0,0,0-9.57-2.76c-4.15.52-9.45,3.49-10.84,3.62,0,0,4.68-.81,11.27-1.34S22.24,17,22.24,17Z"/></svg>