<svg id="Layer_1" data-name="Layer 1" xmlns="http://www.w3.org/2000/svg" viewBox="0 0 90 50"><defs><style>.cls-1,.cls-4{fill:#fff;}.cls-1{stroke:#663a21;}.cls-1,.cls-6{stroke-miterlimit:10;stroke-width:0.25px;}.cls-2{fill:#191928;}.cls-3{fill:#f9f5f2;}.cls-5{fill:#663a21;}.cls-6{fill:#eee1b7;stroke:#4f4b1e;}</style></defs><path class="cls-1" d="M85.36,25.53a17.66,17.66,0,0,1-.45,3.36C83.19,36.74,76.62,42.48,69,42.23c-8.26-.31-14.77-7.48-15.07-16.38,0-.47,0-.93,0-1.39.35-9.51,7.68-17,16.38-16.69S85.73,16,85.36,25.53Z"/><ellipse class="cls-2" cx="72.2" cy="23.22" rx="10.21" ry="9.6" transform="translate(39.26 91.53) rotate(-82.08)"/><ellipse class="cls-3" cx="79.17" cy="19.31" rx="1.87" ry="2.81" transform="translate(-2.32 19.34) rotate(-13.73)"/><path class="cls-4" d="M28.23,24.67a18.47,18.47,0,0,1-.66,4.4c-1.69,6-6.3,10.27-11.59,10-5.85-.26-10.58-5.89-11.26-13a17.35,17.35,0,0,1-.08-2.4C4.89,15.43,10.36,9,16.89,9.24S28.48,16.42,28.23,24.67Z"/><path class="cls-5" d="M28.24,24.67A17.13,17.13,0,0,1,25,34.53a10.89,10.89,0,0,1-9.06,4.7,10.36,10.36,0,0,1-5-1.65,13.19,13.19,0,0,1-3.71-3.77A17.75,17.75,0,0,1,4.41,23.68a17.53,17.53,0,0,1,3.41-9.92,12.55,12.55,0,0,1,4-3.46A9.8,9.8,0,0,1,17,9.13a10.07,10.07,0,0,1,5,1.7,12.8,12.8,0,0,1,3.66,3.78A17.56,17.56,0,0,1,28.24,24.67Zm0,0a17.67,17.67,0,0,0-2.69-10,12.6,12.6,0,0,0-3.65-3.73A10,10,0,0,0,17,9.27a9.6,9.6,0,0,0-5.06,1.18A12.4,12.4,0,0,0,8,13.87a17.39,17.39,0,0,0-3.31,9.82,17.55,17.55,0,0,0,2.68,10A13,13,0,0,0,11,37.44a10.16,10.16,0,0,0,4.92,1.65,10.75,10.75,0,0,0,9-4.61A17.08,17.08,0,0,0,28.22,24.67Z"/><ellipse class="cls-2" cx="18.15" cy="23.02" rx="7.65" ry="9.06"/><ellipse class="cls-3" cx="23.54" cy="19.95" rx="2.42" ry="2.87"/><path class="cls-6" d="M27.56,19.11C16.39,20.33,9.92,17.87,6.65,15.89c2.2-4.16,6-6.82,10.24-6.65C21.86,9.45,26,13.53,27.56,19.11Z"/><path class="cls-6" d="M84.32,18.6a55.63,55.63,0,0,1-28.24-2.21A15.7,15.7,0,0,1,70.29,7.77C76.73,8,82.12,12.43,84.32,18.6Z"/></svg>