<svg id="Layer_1" data-name="Layer 1" xmlns="http://www.w3.org/2000/svg" viewBox="0 0 256 280"><defs><style>.cls-1,.cls-3{fill:#a8d0ed;}.cls-1,.cls-3,.cls-8{stroke:#397faa;}.cls-1,.cls-3,.cls-6,.cls-8{stroke-miterlimit:10;}.cls-1,.cls-10,.cls-11,.cls-12,.cls-2,.cls-3,.cls-4,.cls-5,.cls-6,.cls-7,.cls-8,.cls-9{fill-rule:evenodd;}.cls-2{fill:#f4fbff;}.cls-3,.cls-6{stroke-width:0.75px;}.cls-4,.cls-6,.cls-8{fill:#fff;}.cls-5{fill:#8bb6d4;}.cls-6{stroke:#0f2938;}.cls-7{fill:#132836;}.cls-9{fill:#355668;}.cls-10{fill:#ff415a;}.cls-11{fill:#4b718c;}.cls-12{fill:#5889d9;opacity:0.2;}</style></defs><path class="cls-1" d="M158.53,107.93c13.47,1.56,39.23-2.17,44.19-1.36a50.31,50.31,0,0,1,16.91,6.1c3.65,2.32-6.5,3.57-9,4.43-6.6,2.28-13.46,7.61-20.17,12.11-5.49,3.68-20.84,12.25-37.7,2.9C153.22,121,150.85,113.74,158.53,107.93Z"/><path class="cls-1" d="M181.52,210.13c20.36,5.15,41.26-25.3,61.48-1-16.16.16-22.6,25-35.66,23.58-1-.1-1.94.63-1.5,1.45,7.65,14.33-10.82,28.38-6,43-30.45-9-14.53-39.39-26.14-51.31Q177.59,218,181.52,210.13Z"/><path class="cls-2" d="M238.52,204.62a33.84,33.84,0,0,1,4.48,4.43c-16.16.16-22.6,24.51-35.66,23.16-1-.1-1.94.62-1.5,1.43,7.65,14.08-10.82,27.87-6,42.26-30.45-8.85-14.53-38.69-26.14-50.4l.68-1.34c12.36,13.32-2.44,38,22.85,49-3.41-12.54,14.79-27.61,7.14-41.68-.44-.81.53-1.53,1.5-1.43,13.06,1.35,20.79-24.14,36.84-21.2A35.14,35.14,0,0,0,238.52,204.62Z"/><path class="cls-1" d="M64.52,69.22C42.27,77,16.11,98.61,13.06,129.46c-.88,8.86,8.47,2.88,11.84.87,13.51-8,34.67-3.47,44.83,0C68.74,111.32,65.51,88.27,64.52,69.22Z"/><path class="cls-2" d="M64.52,69.22C42.27,77,16.11,98.61,13.06,129.46c-.21,2.14.17,3.23.91,3.62,0-.17,0-.34,0-.53C17,102.35,42.7,80,64.65,71.77,64.61,70.92,64.56,70.07,64.52,69.22Z"/><path class="cls-3" d="M179.79,225.76a36.93,36.93,0,0,1-11.31.29c-42.1-6-81.91-33.93-101.07-75-6.15-13.18-9.3-31-10.2-42.71,1.16-5.83-.21-14-.14-18.7.73-4.83,1-10,1.77-14.78C64.9,37.26,90.6,15.57,109.46,8.34c22-8.43,41.72-7.48,58.62,4.76,12.43,9,16.54,22.34,21.58,36.78,1.31,3.76,9.36,8.57,15.75,12.36-13.48,4.14-27,9.56-40.44,14.23l-4.55,27.44c1.08,1.73,1.77,5.1,1.15,10.82,1.6,20.53-.43,46.43-2.33,62.58-.48,4.07,10.6,19.1,16.15,25.43,3.75,4.27,11.08,13,10,15.86C184.92,221.39,182.56,224.12,179.79,225.76Z"/><path class="cls-2" d="M178.81,224.5a36.06,36.06,0,0,1-11,.28c-39.36-5.54-76.66-30.64-96.16-67.68l2.88.39c17.56,32,48.54,54.86,82.4,63.35C163.26,222.44,172.2,224.77,178.81,224.5Z"/><path class="cls-4" d="M115.21,68.29c-12.95,1-13.93,10.33-5.37,23.86,2.28,3.61-13.67,25.14-12.75,34.7,2.29,23.61,13,45.55,33.49,64.47,8.81,8.12,17.35,16,29.61,18.22,10.51,1.89,14.15-5.62,7.5-15.6-.57-.76-1.13-1.54-1.68-2.32h0c-4.23-6-7.94-12.14-7.66-14.54,1.91-16.14,3.89-48.43,2.29-69-10.31-16-19-27.25-29.3-43.19C125.15,65.79,121.4,67.43,115.21,68.29Z"/><path class="cls-5" d="M117,28.41c-6,8.18-.35,21.82,8.9,25.22,4.66,1.72,13-.76,14.66-9,1-4.63.91-12.25-4.24-17.58C131.85,22.42,122.57,20.86,117,28.41Z"/><path class="cls-6" d="M119.12,31.82c-4.61,7.52.59,19,7.55,22.1a8,8,0,0,0,6.35.16c6.77-2.88,9.07-12,6.58-18.5A15.8,15.8,0,0,0,136,30C131.81,25.84,123.22,25.14,119.12,31.82Z"/><path class="cls-7" d="M121.18,46.9c1.85,4.18,6.4,8.42,10.75,6.52,1.61-.7,2.83-2.38,3.71-4.6,1.84-4.63.42-11.43-3.68-14.33a7.16,7.16,0,0,0-9.23.39C119.77,37.83,119.35,42.76,121.18,46.9Z"/><path class="cls-4" d="M124.53,31.55a3.74,3.74,0,0,0-1.09,4.89,3.18,3.18,0,0,0,4.38,1.66,3.74,3.74,0,0,0,1.1-4.88A3.19,3.19,0,0,0,124.53,31.55Z"/><path class="cls-1" d="M77.22,106.44c-12.87,9.25-25.95,19.69-33,32.91S35,172.47,37.18,182s6.76.23,10-4.11,11.33-13.36,20.72-18c3.93-1.95,8.11-7.62,9-13.19,1.37-8.34.53-19.71,6.29-24.57C86.44,116.94,86.73,107.48,77.22,106.44Z"/><path class="cls-2" d="M75.36,108.78l-.09.07,0,0-.85.62,0,0,0,0-.66.48h0l0,0h0l0,0-.18.13c-11.65,8.63-23.19,18.36-29.53,30.53-6.69,12.84-8.85,32.14-6.75,41.4.74,3.26,1.75,4.25,2.9,4a11.58,11.58,0,0,1-.84-2.56c-2.09-9.25.07-28.56,6.76-41.4,3.65-7,9-13.22,15.17-18.87,4.83-4.45,10.09-8.78,15.34-12.73a22.29,22.29,0,0,1,4.23.51h0a18.59,18.59,0,0,1,4.57,1.59c-3.09-2-6.68-3.67-9.92-3.87Z"/><path class="cls-8" d="M171.84,73.1c-5.81,11.66-.29,27,7,34.05,2.57,2.47-6,5.63-14.88,2.84-7.49-2.36-14.52-7.49-22-8.91l-9.33-2.32s-11.3-1.41-7.09-16"/><path class="cls-9" d="M134.51,72.91c7.79,5.18,21.1,29.72,30.24,32.43,7.67,2.28,10.79,2,8.37,0-5-4.18-9.88-21.52-5.59-29C159.65,77.23,142.39,72,134.51,72.91Z"/><path class="cls-10" d="M155.93,76.78c-2.63-.52-12.31-1.79-15-1.59,6,5.3,13.59,18.12,20.65,25C164.23,98.57,162.58,81.27,155.93,76.78Z"/><path class="cls-1" d="M179.56,52.72c2.79-.42,12.39-2.8,17.53-3.37,17.23-1.92,23.33,8.56,19.55,9.5-15.29,3.81-48.47,16.16-58.44,16-8.27-.12-28.4-3.55-27.48-9.08"/><path class="cls-11" d="M131.34,64.93c-4.69,1.57-12.51,3.27-10,3.29,4.8,0,9.84-.06,15-3.83a5.57,5.57,0,0,0,2.39-3.17C138.91,60,135.89,63.4,131.34,64.93Z"/><path class="cls-5" d="M180.69,42.2a13,13,0,0,0-5-.58c-7,.45-13.16,4-20.16,8.56,6-5.75,14.26-10.27,19.71-10.12A8.38,8.38,0,0,1,180.69,42.2Z"/><path class="cls-11" d="M110.75,25.78c-.32,2.44-1.25,1-1.44-2.58-.13-2.46,0-5.41,1.06-7.54,1.67-3.36,9.56-2.55,13-1.34.85.29-3,.73-4.63,1.13a13,13,0,0,0-5,2.39A17.82,17.82,0,0,0,110.75,25.78Z"/><path class="cls-12" d="M243,209.05a34.2,34.2,0,0,0-3.66-3.73c-19.08-16.94-38.69,9.65-57.82,4.81a.3.3,0,0,0,0,.08c-2-2.77-4.42-5.56-6.09-7.47-5.55-6.33-16.63-21.36-16.15-25.43,1.29-11,2.64-26.44,2.87-41.66,13,2.74,23.9-3.46,28.35-6.44,6.71-4.5,13.57-9.83,20.17-12.11,2.5-.86,12.65-2.11,9-4.43a50.31,50.31,0,0,0-16.91-6.1c-2.9-.47-12.92.61-23.44,1.27a1.28,1.28,0,0,0-.4-.69c-7.11-6.84-12.48-21.44-7.52-32.95,11.35-4.08,22.7-8.48,34-12l-.2-.12c4.33-1.33,8.26-2.48,11.43-3.27,3.78-.94-2.32-11.42-19.55-9.5-1.94.21-4.52.69-7.12,1.22a4.19,4.19,0,0,1-.31-.69c-5-14.44-9.15-27.77-21.58-36.78C151.19.86,131.43-.09,109.46,8.34c-18.23,7-42.85,27.49-49.94,62.84-21,9.07-43.64,29.72-46.46,58.28a7.43,7.43,0,0,0-.05.78.41.41,0,0,0,0,.11,5.22,5.22,0,0,0,0,.56c.28,6.7,8.72,1.31,11.89-.58,8.12-4.83,19-5.11,28.6-3.8a63.1,63.1,0,0,0-9.24,12.82c-5.29,10-7.88,23.79-7.88,34.05a40,40,0,0,0,.77,8.73c.66,3,1.56,4,2.57,4,2.3.22,5.19-5.22,7.43-8.24,3.21-4.34,11.33-13.36,20.72-18a12.54,12.54,0,0,0,2.93-2.09c20.2,37.35,57.91,62.62,97.68,68.26a40,40,0,0,0,5.6.29c10.8,12.22-4.33,41.94,25.74,50.84q-.23-.71-.39-1.41l.39.13a16.1,16.1,0,0,1-.79-4.53c.36-10.05,8.72-19.87,8.68-29.75a15.22,15.22,0,0,0-1.87-8,.88.88,0,0,1-.05-.15,1.49,1.49,0,0,1,1.55-.78c13.06,1.37,19.5-23.42,35.66-23.58l-.07-.08Z"/></svg>