<svg id="Layer_1" data-name="Layer 1" xmlns="http://www.w3.org/2000/svg" viewBox="0 0 120 90"><defs><style>.cls-1{fill:#1e130b;}.cls-2{fill:#fcf9f7;stroke:#3a1e0f;}.cls-2,.cls-4{stroke-miterlimit:10;stroke-width:0.75px;}.cls-3{fill:#f9f8f7;}.cls-4{fill:#f9dad2;stroke:#4c2606;}</style></defs><path class="cls-1" d="M9.93,31.42S8.7,23.19,31.65,18.83,2.84,7.69,9.93,31.42Z"/><path class="cls-1" d="M105.22,23.32s0-8.33-16-9.25S107.62-1.2,105.22,23.32Z"/><path class="cls-2" d="M43.24,80.76C33.61,82.18,24.55,74.83,23,64.34a20.27,20.27,0,0,1,1-10A17.38,17.38,0,0,1,37.65,42.8c8.14-1.2,15.87,3.86,19,11.78a21,21,0,0,1,1.23,4.63C59.42,69.69,52.87,79.34,43.24,80.76Z"/><ellipse class="cls-1" cx="34.54" cy="67.37" rx="9.53" ry="10.48" transform="translate(-9.45 5.75) rotate(-8.38)"/><ellipse class="cls-3" cx="40.68" cy="65.62" rx="2.71" ry="2.98" transform="translate(-9.13 6.63) rotate(-8.38)"/><path class="cls-2" d="M100.22,77.24C93,78.3,86,70.66,84.41,60.18a26.5,26.5,0,0,1,.11-8.64C85.73,45,89.52,40,94.63,39.29c5.91-.87,11.74,4.13,14.49,11.76a27.41,27.41,0,0,1,1.33,5.3C112,66.83,107.41,76.19,100.22,77.24Z"/><ellipse class="cls-1" cx="93.19" cy="63.62" rx="7.11" ry="10.48" transform="translate(-8.27 14.26) rotate(-8.38)"/><ellipse class="cls-3" cx="97.74" cy="62.09" rx="2.02" ry="2.98" transform="translate(-8 14.9) rotate(-8.38)"/><path class="cls-4" d="M56.65,54.58c-13.18-3.39-27-1.33-32.64-.22A17.38,17.38,0,0,1,37.65,42.8C45.79,41.6,53.52,46.66,56.65,54.58Z"/><path class="cls-4" d="M109.12,51.05c-8.87-2.67-20.25-.52-24.6.49C85.73,45,89.52,40,94.63,39.29,100.54,38.42,106.37,43.42,109.12,51.05Z"/></svg>