<svg xmlns="http://www.w3.org/2000/svg" xmlns:xlink="http://www.w3.org/1999/xlink" viewBox="0 0 310 256"><defs><style>.cls-1{isolation:isolate;}.cls-2{fill:#919191;}.cls-3{fill:#939393;}.cls-4{fill:url(#linear-gradient);}.cls-5{fill:url(#linear-gradient-2);}.cls-6{fill:url(#linear-gradient-3);}.cls-7{fill:#ef7584;}.cls-8{fill:url(#linear-gradient-4);}.cls-9{fill:url(#linear-gradient-5);}.cls-10{fill:url(#linear-gradient-6);}.cls-11{fill:url(#linear-gradient-7);}.cls-12{fill:url(#linear-gradient-8);}.cls-13{fill:url(#linear-gradient-9);}.cls-14{fill:url(#linear-gradient-10);}.cls-15{fill:url(#linear-gradient-11);}.cls-16{fill:url(#linear-gradient-12);}.cls-17{fill:url(#linear-gradient-13);}.cls-18{fill:url(#linear-gradient-14);}.cls-19{fill:url(#linear-gradient-15);}.cls-20{fill:url(#linear-gradient-16);}.cls-21{fill:url(#linear-gradient-17);}.cls-22{fill:url(#linear-gradient-18);}.cls-23{fill:url(#linear-gradient-19);}.cls-24{fill:url(#linear-gradient-20);}.cls-25,.cls-28{fill:#2b5d72;}.cls-26,.cls-30{fill:#66b2c6;}.cls-26{opacity:0.19;}.cls-27{fill:#1e4756;}.cls-28{stroke:#1c4959;}.cls-28,.cls-31{stroke-miterlimit:10;stroke-width:0.75px;}.cls-29{fill:#0e3f54;}.cls-30{opacity:0.15;}.cls-31{fill:#e5e1e1;stroke:#afafaf;}.cls-32{fill:#c6c6c6;}.cls-33{fill:#545454;}.cls-34{opacity:0.53;}.cls-34,.cls-38{mix-blend-mode:screen;}.cls-35{fill:#fcfafa;}.cls-36{fill:#acacac;opacity:0.22;mix-blend-mode:multiply;}.cls-37{fill:#cbcbcb;}.cls-38{fill:#d6d6d6;}.cls-39{fill:#04568d;}.cls-40{fill:#001d42;}.cls-41{fill:#1c4959;}</style><linearGradient id="linear-gradient" x1="-3554.6" y1="-6601.11" x2="-3547.62" y2="-6601.11" gradientTransform="matrix(0.56, -0.83, -0.83, -0.56, -3439.16, -6460.22)" gradientUnits="userSpaceOnUse"><stop offset="0.09" stop-color="#fff"/><stop offset="1" stop-color="#e2e2e2"/></linearGradient><linearGradient id="linear-gradient-2" x1="-3549.55" y1="-6603.01" x2="-3542.57" y2="-6603.01" xlink:href="#linear-gradient"/><linearGradient id="linear-gradient-3" x1="-3543.65" y1="-6606.03" x2="-3536.67" y2="-6606.03" xlink:href="#linear-gradient"/><linearGradient id="linear-gradient-4" x1="770.03" y1="53.01" x2="777.25" y2="53.01" gradientTransform="translate(-708.62 -18.38) rotate(10.06)" xlink:href="#linear-gradient"/><linearGradient id="linear-gradient-5" x1="776.71" y1="49.73" x2="783.93" y2="49.73" gradientTransform="translate(-708.62 -18.38) rotate(10.06)" gradientUnits="userSpaceOnUse"><stop offset="0.09" stop-color="#fff"/><stop offset="1" stop-color="#919191"/></linearGradient><linearGradient id="linear-gradient-6" x1="776.71" y1="50.27" x2="783.93" y2="50.27" gradientTransform="translate(-708.62 -18.38) rotate(10.06)" xlink:href="#linear-gradient"/><linearGradient id="linear-gradient-7" x1="40.51" y1="177.14" x2="43.95" y2="177.14" gradientTransform="matrix(1, 0, 0, 1, 0, 0)" xlink:href="#linear-gradient"/><linearGradient id="linear-gradient-8" x1="-2896.13" y1="-7277.94" x2="-2889.09" y2="-7277.94" gradientTransform="matrix(0.73, -0.68, -0.68, -0.73, -2815.05, -7112.11)" xlink:href="#linear-gradient"/><linearGradient id="linear-gradient-9" x1="-3310.9" y1="-6888.7" x2="-3303.9" y2="-6888.7" gradientTransform="matrix(0.63, -0.78, -0.78, -0.63, -3212.33, -6730.8)" xlink:href="#linear-gradient"/><linearGradient id="linear-gradient-10" x1="-3303.87" y1="-6893.62" x2="-3296.87" y2="-6893.62" gradientTransform="matrix(0.63, -0.78, -0.78, -0.63, -3212.33, -6730.8)" xlink:href="#linear-gradient"/><linearGradient id="linear-gradient-11" x1="-3663.78" y1="-6445.6" x2="-3656.81" y2="-6445.6" gradientTransform="matrix(0.52, -0.86, -0.86, -0.52, -3557.48, -6289.18)" xlink:href="#linear-gradient"/><linearGradient id="linear-gradient-12" x1="-3657.92" y1="-6449.76" x2="-3650.96" y2="-6449.76" gradientTransform="matrix(0.52, -0.86, -0.86, -0.52, -3557.48, -6289.18)" xlink:href="#linear-gradient"/><linearGradient id="linear-gradient-13" x1="-3652.97" y1="-6453.91" x2="-3646" y2="-6453.91" gradientTransform="matrix(0.52, -0.86, -0.86, -0.52, -3557.48, -6289.18)" xlink:href="#linear-gradient"/><linearGradient id="linear-gradient-14" x1="-3648.02" y1="-6457.11" x2="-3641.05" y2="-6457.11" gradientTransform="matrix(0.52, -0.86, -0.86, -0.52, -3557.48, -6289.18)" xlink:href="#linear-gradient"/><linearGradient id="linear-gradient-15" x1="783.07" y1="47.12" x2="790.29" y2="47.12" gradientTransform="translate(-708.62 -18.38) rotate(10.06)" xlink:href="#linear-gradient"/><linearGradient id="linear-gradient-16" x1="789.99" y1="43.86" x2="797.21" y2="43.86" gradientTransform="translate(-708.62 -18.38) rotate(10.06)" xlink:href="#linear-gradient"/><linearGradient id="linear-gradient-17" x1="796.62" y1="40.89" x2="803.84" y2="40.89" gradientTransform="translate(-708.62 -18.38) rotate(10.06)" xlink:href="#linear-gradient"/><linearGradient id="linear-gradient-18" x1="1499.79" y1="-202.58" x2="1506.96" y2="-202.58" gradientTransform="translate(-1402.65 -167.3) rotate(20.08)" xlink:href="#linear-gradient"/><linearGradient id="linear-gradient-19" x1="2089.39" y1="-522.06" x2="2096.51" y2="-522.06" gradientTransform="matrix(0.87, 0.49, -0.49, 0.87, -1996.85, -405.52)" xlink:href="#linear-gradient"/><linearGradient id="linear-gradient-20" x1="2094.14" y1="-526.89" x2="2101.26" y2="-526.89" gradientTransform="matrix(0.87, 0.49, -0.49, 0.87, -1996.85, -405.52)" xlink:href="#linear-gradient"/></defs><g class="cls-1"><g id="Layer_1" data-name="Layer 1"><path class="cls-2" d="M42,180.89c-2.89-3.08-1.78-6.14,4.69-9,8-3.52,15.55-8.67,19.91-15.91,9.33-4.41,36.23-8.3,36.83-1.53s-13.14,21.63-27.18,24.09S42,180.89,42,180.89Z"/><path class="cls-3" d="M50.58,176.51l.79-7.88,4.91,5S52.57,176.4,50.58,176.51Z"/><path class="cls-4" d="M50.58,176.51l.79-7.88,2.43,6.6A5.43,5.43,0,0,1,50.58,176.51Z"/><path class="cls-3" d="M55,173.37l.79-7.87,4.9,5S57,173.26,55,173.37Z"/><path class="cls-5" d="M55,173.37l.79-7.87,2.43,6.6A5.46,5.46,0,0,1,55,173.37Z"/><path class="cls-3" d="M60.78,170.17l.8-7.88,4.9,5S62.77,170.06,60.78,170.17Z"/><path class="cls-6" d="M60.78,170.17l.8-7.88,2.43,6.6A5.48,5.48,0,0,1,60.78,170.17Z"/><path class="cls-7" d="M51.08,179c-2.28-2.7-1.4-5.38,3.7-7.88,6.28-3.09,12.25-7.59,15.68-13.93,7.35-3.86,28.56-7.26,29-1.34S89.13,174.81,78.07,177,51.08,179,51.08,179Z"/><path class="cls-3" d="M40.46,167.43l6.46,4.93-.31-6.83S41.92,166.14,40.46,167.43Z"/><path class="cls-8" d="M40.46,167.43l6.46,4.93-3.26-6.26A5.5,5.5,0,0,0,40.46,167.43Z"/><path class="cls-9" d="M47.51,165.9,54,170.83,53.66,164S49,164.6,47.51,165.9Z"/><path class="cls-10" d="M47.51,165.9,54,170.83l-3.26-6.26A5.44,5.44,0,0,0,47.51,165.9Z"/><path class="cls-3" d="M40.51,180.86l2.61-7.51,3.62,5.88S42.47,181.18,40.51,180.86Z"/><path class="cls-11" d="M40.51,180.86l2.61-7.51.83,7A5.53,5.53,0,0,1,40.51,180.86Z"/><path class="cls-3" d="M48.17,179.32l2.61-7.51,3.63,5.89S50.14,179.64,48.17,179.32Z"/><path class="cls-12" d="M48.17,179.32l2.61-7.51.83,7A5.54,5.54,0,0,1,48.17,179.32Z"/><path class="cls-3" d="M56.66,178.76,58.18,171l4.43,5.35S58.65,178.82,56.66,178.76Z"/><path class="cls-13" d="M56.66,178.76,58.18,171,60,177.76A5.5,5.5,0,0,1,56.66,178.76Z"/><path class="cls-3" d="M64.91,176.4l1.52-7.79L70.86,174S66.9,176.45,64.91,176.4Z"/><path class="cls-14" d="M64.91,176.4l1.52-7.79,1.81,6.78A5.55,5.55,0,0,1,64.91,176.4Z"/><path class="cls-3" d="M73.07,175.89l.38-7.91,5.16,4.71S75.06,175.68,73.07,175.89Z"/><path class="cls-15" d="M73.07,175.89l.38-7.91,2.78,6.47A5.44,5.44,0,0,1,73.07,175.89Z"/><path class="cls-3" d="M79.66,173l.38-7.91,5.15,4.72S81.64,172.81,79.66,173Z"/><path class="cls-16" d="M79.66,173l.38-7.91,2.77,6.48A5.46,5.46,0,0,1,79.66,173Z"/><path class="cls-3" d="M85.77,170.91l.38-7.91,5.16,4.72S87.75,170.71,85.77,170.91Z"/><path class="cls-17" d="M85.77,170.91l.38-7.91,2.77,6.48A5.39,5.39,0,0,1,85.77,170.91Z"/><path class="cls-3" d="M91.06,168.32l.38-7.9,5.16,4.71S93,168.12,91.06,168.32Z"/><path class="cls-18" d="M91.06,168.32l.38-7.9,2.77,6.47A5.39,5.39,0,0,1,91.06,168.32Z"/><path class="cls-3" d="M54.32,163.91l6.46,4.93L60.47,162S55.79,162.61,54.32,163.91Z"/><path class="cls-19" d="M54.32,163.91l6.46,4.93-3.26-6.27A5.49,5.49,0,0,0,54.32,163.91Z"/><path class="cls-3" d="M61.7,161.91l6.46,4.93L67.85,160S63.17,160.61,61.7,161.91Z"/><path class="cls-20" d="M61.7,161.91l6.46,4.93-3.26-6.26A5.44,5.44,0,0,0,61.7,161.91Z"/><path class="cls-3" d="M68.76,160.14l6.46,4.93-.31-6.83S70.22,158.84,68.76,160.14Z"/><path class="cls-21" d="M68.76,160.14l6.46,4.93L72,158.8A5.47,5.47,0,0,0,68.76,160.14Z"/><path class="cls-3" d="M75.82,156.62l5.47,5.93.93-6.78S77.5,155.59,75.82,156.62Z"/><path class="cls-22" d="M75.82,156.62l5.47,5.93-2.08-6.71A5.55,5.55,0,0,0,75.82,156.62Z"/><path class="cls-3" d="M83,154.55l4.43,6.68,2-6.55S84.78,153.78,83,154.55Z"/><path class="cls-23" d="M83,154.55l4.43,6.68-.95-6.94A5.54,5.54,0,0,0,83,154.55Z"/><path class="cls-3" d="M89.45,152.64l4.43,6.68,2-6.55S91.28,151.88,89.45,152.64Z"/><path class="cls-24" d="M89.45,152.64l4.43,6.68-.95-6.94A5.62,5.62,0,0,0,89.45,152.64Z"/><path class="cls-25" d="M67.63,180.77c-4.73,3.63-20.13,14.08-24.4,16.81,4.27,1.81,27-5.51,37.67-12.07C82.32,181,73.32,179.17,67.63,180.77Z"/><path class="cls-25" d="M147.11,101.42c12.62-13.63,15.11-55,33.76-60,5,1.87-8.17,42.6,12.79,68C185.49,111.64,153.51,108.57,147.11,101.42Z"/><path class="cls-26" d="M153.51,96.48c5.69-11.59,11.55-45.16,26.12-53-4.8,10.4-9.77,38-7.29,56.57C169,102.27,157.41,98.93,153.51,96.48Z"/><path class="cls-25" d="M233.46,123.06c3.68-1.48,9.12-6.48,12.56-7.61.24,2,0,8.52,1.42,12C243.18,127.37,236.19,124.31,233.46,123.06Z"/><path class="cls-25" d="M271.8,130.35c1.78-11.76,21.86-47.54,36.6-52.48a22.39,22.39,0,0,1,.31,8.2,8.29,8.29,0,0,1-2.19,5c-1.34,1.42-2.58,3.85-3.39,7.6-1.19,5.45-5,28-9.24,32.66,4.15,7.38,3.67,24.65,12.91,35.1,3,2.84,1.42,4.65-6.75.57S273,145.06,271.8,130.35Z"/><path class="cls-26" d="M277.11,136c2.67,9.17,10.48,19.89,25.23,30.22C296.83,159.52,285.46,144,284.4,135,283,134.13,277.11,136,277.11,136Z"/><path class="cls-26" d="M276.82,132.09c1.59-13.8,16.52-39.19,30.91-49.25-6,8.53-19.54,32.38-21.32,49.25C285.17,134.64,276.82,132.09,276.82,132.09Z"/><path class="cls-27" d="M308.19,168.58s.25-.76-2.7-3.78c0,0-6.29-7.67-8.13-21.89,0,0-1.39-8.76-3.47-11.59,0,0,4.75-8.43,8.82-30.61a18.63,18.63,0,0,1,3.81-9.65s2.65-2.48,2.41-9l-.53-4.23s.09,10.31-2.82,12.32a16.84,16.84,0,0,0-4.16,11c0,6.74-9.15,30.65-9.15,30.65a40.09,40.09,0,0,1,3.76,11s3.89,17,9,22.69Z"/><path class="cls-28" d="M101.81,155.76c-4.27,9.31-25.77,17.38-40.33,19.55-16.35,2.45-22.69.78-23.28,3.45-.93,4.19,8.73,7,40.35,9.56s69.63-6.1,105.52-15.3,60.41-24.23,75.69-29.34,34.19-6,34.07-9.72-11.51-4.26-27.5-5.45-43.53-12.27-58.81-20.28-30.2-17.38-66.27-14.65-63.43,10.73-94,21.3S.53,138.39,1.07,147.77c0,5.45,27.26,17.21,36.51,17.94C55,167.07,85.34,152.58,101.81,155.76Z"/><path class="cls-29" d="M42,142.54a24.9,24.9,0,0,0,19.07,4.54c8.74-1.37,8.1-7.94,14.41-10.42C69.47,132.12,44.36,135.44,42,142.54Z"/><path class="cls-30" d="M70.77,143.4c13-3.29,24-8.57,36.42-11.2,24.05-5.28,46-7.25,69.4-10.55,15.86-2.37,31-3.72,46.21-4.53-6.9-2.84-13.33-5.84-18.38-8.48-14.77-7.75-29.2-16.81-64.08-14.17S79,104.85,49.47,115.06c-28,9.69-43.52,21.45-44.61,30.36C26.6,146.74,48.35,148.61,70.77,143.4Z"/><path class="cls-31" d="M93.46,141.46c-5-1.36-10-2.58-16.35.68-22.92,11.76-31,3.51-45.48,4.21s-24.77,4-30.37,2.26c2.35,5.91,27.07,18.4,35.87,19.09,17.42,1.36,45.78-14.2,62.25-11C95.12,166,76,173.14,61.48,175.31c-16.35,2.45-24.17.4-24.76,3.07-.93,4.19,8.23,8.92,39.86,11.47s73-5.11,108.91-14.31,59-26.75,74.27-31.86l.31-.1c-15.77,1.88-29.56,11.58-45.08,14.24a181.57,181.57,0,0,1-41.94,3.86C138.94,160.77,135.15,149.87,93.46,141.46Z"/><path class="cls-32" d="M73.08,189.55s94.82,6.85,172.39-39.94l16.73-6.7s-41,14.5-87.38,32c0,0-50.09,19.14-131.59,7.78,0,0-4.65-1.06-6.51-4.27C36.72,178.38,35,186.7,73.08,189.55Z"/><path class="cls-33" d="M37.12,157.1c1.2.38,2,1.22,1.76,1.87s-1.38.88-2.58.49-2-1.22-1.75-1.87S35.93,156.71,37.12,157.1Z"/><g class="cls-34"><path class="cls-35" d="M33.44,157.27a2.71,2.71,0,0,1,2.33-1.64l-.11,0c-1.85-.59-3.69-.1-4.1,1.1s.74,2.65,2.59,3.24l.22.06A2.55,2.55,0,0,1,33.44,157.27Z"/></g><path class="cls-36" d="M86.14,177.6C79.58,182,60,185.93,41.87,183.73,54.89,188.45,74.9,191.52,86.14,177.6Z"/><path class="cls-36" d="M99.38,156.68a36.8,36.8,0,0,1,7.93,2.2A31.91,31.91,0,0,0,96,161.23C96.7,160.26,98.62,158.53,99.38,156.68Z"/><path class="cls-37" d="M64.88,141c0,2.95-2.71,5.34-6,5.34s-6-2.39-6-5.34,2.71-5.34,6-5.34S64.88,138,64.88,141Z"/><path d="M62.26,140.89a3.55,3.55,0,1,1-3.51-3A3.27,3.27,0,0,1,62.26,140.89Z"/><ellipse class="cls-38" cx="57.1" cy="139.54" rx="1.32" ry="1.26"/><path class="cls-38" d="M61.06,142.27a.66.66,0,1,1-.66-.63A.64.64,0,0,1,61.06,142.27Z"/><path class="cls-39" d="M41.62,143.05a23.66,23.66,0,0,0,6.37-.62,29,29,0,0,0,8.56-4.27c2.44-1.62,6.35-2.4,9.49-2.69a33,33,0,0,1,9.73,1c-.88-2.27-12.45-5.85-20.79-3.72S41.14,140.13,41.62,143.05Z"/><path class="cls-25" d="M206.72,174.52c-12.43-9.2-12.88-18.06-12.88-18.06L159.91,158s10.48,14,38.55,27.94,71.43,28.29,86.71,28.63C278.41,209.11,219.16,183.72,206.72,174.52Z"/><path class="cls-26" d="M165.24,160.47c6.75,7.75,18,16.59,33.34,24.56,21.19,11,49.31,20.76,76.9,27.09C249.57,200.76,174.48,162.66,165.24,160.47Z"/><path class="cls-25" d="M229.32,148.59l-18.95,8.75s16.35,13.18,31.27,15A64.49,64.49,0,0,1,229.32,148.59Z"/><path class="cls-26" d="M211.43,156.44c4.74,5,17.65,12.06,27,14.33C234.06,166.11,217.71,156.09,211.43,156.44Z"/><path class="cls-25" d="M251.7,140.54l-11.25,5.19s9.7,7.82,18.56,8.9A38.28,38.28,0,0,1,251.7,140.54Z"/><path class="cls-26" d="M241.82,145.49c2.67,2.86,10,6.92,15.26,8.24C254.61,151.07,245.39,145.32,241.82,145.49Z"/><path class="cls-40" d="M120.84,162s3.2-5.8,3.43-15.21-2.69-15-2.69-15c.18.21,5.34,5.29,5.1,15S121,161.79,120.84,162Z"/><path class="cls-40" d="M128.66,164.49s3.25-6.6,3.56-17.27-2.57-16.94-2.57-16.94c.18.24,5.3,6,5,17S128.84,164.24,128.66,164.49Z"/><path class="cls-40" d="M136.41,164.94s3.26-6.6,3.56-17.27-2.56-16.94-2.56-16.94c.18.24,5.29,6,5,17S136.6,164.69,136.41,164.94Z"/><path class="cls-40" d="M143.4,163.32s3.2-5.8,3.43-15.21-2.69-15-2.69-15c.18.21,5.33,5.3,5.1,15A22.62,22.62,0,0,1,143.4,163.32Z"/><path class="cls-41" d="M42,141.73c3.55,0,7.76-.5,11.31-3a22.9,22.9,0,0,1,21.4-2.82C71.48,131.07,49.33,128.3,42,141.73Z"/></g></g></svg>