<svg id="Layer_1" data-name="Layer 1" xmlns="http://www.w3.org/2000/svg" xmlns:xlink="http://www.w3.org/1999/xlink" viewBox="0 0 256 256"><defs><style>.cls-1{fill:#323232;opacity:0.4;}.cls-2,.cls-23,.cls-6{fill:#8f6f73;}.cls-2,.cls-23,.cls-3,.cls-37,.cls-40{stroke:#262626;}.cls-10,.cls-17,.cls-18,.cls-2,.cls-22,.cls-23,.cls-27,.cls-28,.cls-3,.cls-34,.cls-36,.cls-37,.cls-38,.cls-39,.cls-40,.cls-41,.cls-6,.cls-8,.cls-9{stroke-miterlimit:10;}.cls-10,.cls-17,.cls-18,.cls-2,.cls-22,.cls-27,.cls-28,.cls-3,.cls-36,.cls-40,.cls-41,.cls-6,.cls-9{stroke-width:0.58px;}.cls-3,.cls-7{fill:#f5f2ef;}.cls-4{fill:#bfb19d;}.cls-41,.cls-5{fill:#907175;}.cls-28,.cls-34,.cls-6{stroke:#232323;}.cls-22,.cls-8,.cls-9{fill:#f38590;}.cls-22,.cls-8{stroke:#712313;}.cls-8{stroke-width:0.55px;}.cls-9{stroke:#bc554a;}.cls-10,.cls-18{stroke:#302f2f;}.cls-10{fill:url(#linear-gradient);}.cls-11{fill:#fff;}.cls-12{fill:url(#linear-gradient-2);}.cls-13{fill:url(#linear-gradient-3);}.cls-14{fill:#030303;}.cls-15{fill:#fcfdff;}.cls-16{fill:#ee3e3d;}.cls-17{fill:#f28087;stroke:#922f1e;}.cls-18,.cls-27,.cls-28,.cls-33,.cls-34,.cls-36,.cls-37,.cls-38,.cls-39,.cls-40{fill:none;}.cls-19{fill:#302f2f;}.cls-20{fill:#795961;}.cls-21{fill:#422f2a;}.cls-23,.cls-34{stroke-width:0.39px;}.cls-24{fill:#262626;}.cls-25{fill:#75555c;}.cls-26{fill:#3d2d2b;}.cls-27{stroke:#1b1c1c;}.cls-29{fill:#74545b;}.cls-30{fill:#232323;}.cls-31{fill:#3a2528;}.cls-32{fill:#593f44;}.cls-35{fill:#282827;}.cls-36,.cls-38,.cls-41{stroke:#282827;}.cls-37,.cls-38,.cls-39{stroke-width:0.78px;}.cls-39{stroke:#30302f;}</style><linearGradient id="linear-gradient" x1="-57.88" y1="207.05" x2="-34.9" y2="207.05" gradientTransform="translate(117.78 -110.61) rotate(-3.54)" gradientUnits="userSpaceOnUse"><stop offset="0" stop-color="#4e1211"/><stop offset="0.31" stop-color="#471312"/><stop offset="0.69" stop-color="#200d0c"/><stop offset="0.98" stop-color="#680c0c"/></linearGradient><linearGradient id="linear-gradient-2" x1="-58.39" y1="172.91" x2="-60.67" y2="194.06" gradientTransform="translate(129.07 -107.3)" gradientUnits="userSpaceOnUse"><stop offset="0" stop-color="#4a240d"/><stop offset="0.64" stop-color="#9b6a33"/></linearGradient><linearGradient id="linear-gradient-3" x1="-25.95" y1="176.57" x2="-28.22" y2="197.71" gradientTransform="translate(129.23 -109.31)" xlink:href="#linear-gradient-2"/></defs><ellipse class="cls-1" cx="114.03" cy="212.61" rx="65.55" ry="17.35"/><path class="cls-2" d="M59.26,98c.13,1.36.26,2.75.37,4.16.13,1.56.23,3.1.32,4.62l4.46,1.7a20.92,20.92,0,0,1-1.7,1.68c-1.18,1-1.83,1.35-2.48,1.91a7.74,7.74,0,0,0-2.32,3.85l1.21.1a77.93,77.93,0,0,0-1.87,17.42c.12,20.47,8.57,29.58,9.94,49.94.53,7.83,1,22-1.69,24.23-1.9.85-7.08,2-4.76,9.31.74,1.17,1.27,1.17,2.43,1.7,3,3.7,7.2.53,7.2.53s2.22,2.43,8,0c1.59-1.91,3.6-4.34,4.13-11.86,0,0,1.15-14.94,1.06-15.56l-.08-.63a27.13,27.13,0,0,0,1.71,2.77,28.34,28.34,0,0,0,6.5,6.58c-.34,1.49-.78,3.11-1.35,4.82-.46,1.38-1,2.66-1.46,3.83a8.52,8.52,0,0,0-5.36,2.74c-2.39,2.82-2.51,7.37-1.15,8.09.47.25,1.59.26,4.58-2.76,1.69,2.85,5.42,2.23,6.31,1.78,2.85,1,6.32,1.25,8.19-.89a15.77,15.77,0,0,0,2.58-3.82s.09,1.78,3,2.4c1.07,3.11,4.81,2.22,6.41,1.6,5.87,1.69,9.61,0,11.66-2.4,0,0,9.78,1.07,16.46-2.94,3.91-2.49,5.07-4.27,5.07-4.27s3.82,3.92,18.59,3.38l-4.18-1.69s16.82,1.78,18.68,1.78l-4.53-2.4s16.1,2.85,18.24,4.09l-1.78-3.47a13.92,13.92,0,0,0,8.54,4.54l5.6.8L202,213s7.56,2.85,14.77-.35c0,0-1.51-5.88-6.05-8,0,0,3,.09,3.56.71s-6.77-11.57-19.4-10.94l5.07-.27s-4.71-4.89-14.77-3.38-20.46,4.09-21.17,4.18-9.17-.45-11.57-1.69a108,108,0,0,0-.27-12.46c-.53-4.18-1.95-12.63-6.58-19.39s-14.33-20.91-14.33-20.91L120.8,125l-3.92-6.32a31.05,31.05,0,0,0-2.33-5.09,31.77,31.77,0,0,0-5-6.49Z"/><path class="cls-3" d="M128.69,170.93a20.08,20.08,0,0,0-6.59,3.19c-1.78,1.37-3.46,3.25-3.75,3s.35-.92.08-1.17-1.39.67-1.76.4,1.11-2.41,1.4-5.57a6.14,6.14,0,0,0,0-2.29c-1.13-3.13-8.84-1.13-14.18-4-2.76-1.47-6-4.82-7.57-13.22,4.07-6.61,7.12-20,7.12-20l.89,2.54.51-.51c8.52-14.87,2.42-21.36,2.42-21.36s-4.13-.47-5.41.33c-17.63,7.21-19.8-1.56-21.06-1.64s-10.05-3.59-10.05-3.59L69.52,117l2.14-1.15-1.22,9.4,3.21-2.16s-5.35,8.27.91,18.51,10.7,15.28,12.07,20.47.77,7,.77,7l-2.14-2.9.91,3.51c.92,3.52.31,10.85.31,10.85s-2.14-4.13-2.29-4.58,2,11.76,2,11.76l-2-3.21.9,7.83a11.06,11.06,0,0,0,1.16,2.69,11.64,11.64,0,0,0,3.9,3.84c9,5.8,11.91,10.71,17.26,9.93,2.58-.37,2.47-1.6,6.83-3.49a30.51,30.51,0,0,1,11.58-2.45h.76c-1.29-1.18-5-4.85-5.32-10.35a13.85,13.85,0,0,1,.3-3.72c-.72,1.75-1.43,3.49-2.14,5.24a11,11,0,0,1-.52-5,35.42,35.42,0,0,1,1.13-4.59c.16-.59.31-1.08.41-1.41l-.73.6c-.87.73-1.75,1.46-2.63,2.17a9.83,9.83,0,0,1,1-4.72,11.19,11.19,0,0,1,2.09-2.8,39.29,39.29,0,0,1,3.38-2.89c-.11-.19-3.81,2.22-4.12,1.82s2.42-3.61,6.33-5.41A11,11,0,0,1,128.69,170.93Z"/><path class="cls-4" d="M69.65,112.46l1.83.18A16.45,16.45,0,0,0,92.66,115c.91-.21,1.64-.41,2.15-.56s1.15-.34,2.27-.69l1.65-.51L98.17,112l-5.4.33s-12.72,8-20.74-1.21l-2.07-.8Z"/><path class="cls-5" d="M88.92,209.07c-1,.31-4.91,1.6-6.48,5.22-.1.22-1.66,4,0,5.61a2.48,2.48,0,0,0,2.08.81c.69-.17,1-.85,1.57-.81a1.35,1.35,0,0,1,.92.64l.76.23c.62.19,1.24.36,1.85.52A7.19,7.19,0,0,0,95,222.56a5.26,5.26,0,0,0,1.39-.05,6.71,6.71,0,0,0,2.08-.81c4.35-2.7,8.44-17.91,8.44-17.91.77-2.85,2-7.21,3.56-12.63q.68-4.86,1.36-9.71l1.63,3.78,1.14-11.69s1.48,4.47,1.48,4,1.47-13.75,1.47-13.75l1.31,3.27s2-8.6.82-15.47-1-5.16-1-5.16l-20.08-1.72c-4.47,7.17-5.56,13.07-5.73,17.14,0,1,.26,5.34.84,14,.54,8,.63,8.62.51,10.55,0,0,0,.48-.07,1a85.23,85.23,0,0,1-2.43,13.45A74.08,74.08,0,0,1,88.92,209.07Z"/><path class="cls-2" d="M48,65.92s-.66-10.69-1.44-13.79-1-8.7.62-16.4,2-11.45,9.85-8.9q5.25,3.3,10.73,7,5.3,3.63,10.13,7.22c-18,14.67-23.89,20.35-24.68,22a18.37,18.37,0,0,1-3.05,3.71c-.2.22-.6.64-1,.58C48.38,67.34,48.05,66.09,48,65.92Z"/><path id="f" class="cls-6" d="M71.18,42.25A47.44,47.44,0,0,0,55.39,53.78C49.07,61.45,42.23,68.55,40.2,75s-1.07,10.14-1.07,10.14l3.75-4S40,84.83,42.27,92.7L44.4,88s-2.17,4.13,3.23,11l.77-5.27s1.68,5.6,3.5,7.67c0,0,2.62,5.94,20,10.17A14.45,14.45,0,0,0,79,115.83c7.45,1.82,13.41-3.5,14-4,.92,0,10.86-.21,18.36-6a34.94,34.94,0,0,0,6.26-9.43s.82,4.42.33,5.27c0,0,5.06-5.33,4.64-10.6V91s1.64,1.36,1.39,4.67c0,0,2.32-8.27.55-11.73a15.86,15.86,0,0,1,3,4.29s2.25-4.91-1.13-12.32-3-6.51-3-6.51,2.66-11.12,2.94-17.81,1.27-8.48-.36-15.68-2-8.1-11.72-4.94C109,34,98.45,41.52,98.45,41.52l-.91.88s-5.63-2.48-10.38-2.46S73.67,40.32,71.18,42.25Z"/><path class="cls-7" d="M50.18,95.46c.54-2.79,3.71-5.08,3.89-5.25,7.52-7.55,18.18-7.28,21-7.12,13.2.75,27.5-2.12,36,6.88,1.45,1.52,4.31,4.62,4,8.35-.64,6.73-11.24,10.59-13.31,11.34a29.92,29.92,0,0,1-8.58,1.76l2.92-3.13a19.59,19.59,0,0,1-15.43,6.17l-7.8-3.9A46.1,46.1,0,0,1,63,108.25a39.55,39.55,0,0,1-7.2-3.61,9.66,9.66,0,0,1-2.3-1.9c-.49-.58-1.19-1.56-1.18-1.56h0a8.21,8.21,0,0,1-.88-1,5.55,5.55,0,0,1-1.21-4.69Z"/><path class="cls-8" d="M67.92,43.87A63.56,63.56,0,0,0,53,27.49a32.19,32.19,0,0,0-2.32,9.89,33.07,33.07,0,0,0,3.65,17.38A31.91,31.91,0,0,1,67.92,43.87Z"/><path class="cls-9" d="M85,92s-5.22-3.07-7.57-6.57c-.92-3.33,1.7-4.12,2.92-4.64s8.17-1.91,11.42.15c2.51,1.75,4.66,3.31,1.55,6.27S86.59,93,85,92Z"/><path class="cls-10" d="M72.52,94.93a10.78,10.78,0,0,0,3,.87,9.81,9.81,0,0,0,4.31-.24,17.11,17.11,0,0,0,2.9-1.26c.65-.33.58-.37,1.06-.58a1.52,1.52,0,0,0,.65-.39,1.17,1.17,0,0,0,.22-.78,10.45,10.45,0,0,0,6,3.67,10.18,10.18,0,0,0,5-.27,12.52,12.52,0,0,1-5.17,7.48A11.21,11.21,0,0,1,86.17,105a10,10,0,0,1-6.24-.59c-1.5-.75-2.39-1.9-4.09-4.19A37,37,0,0,1,72.52,94.93Z"/><path class="cls-11" d="M60.78,76.09S60.59,73,64,68c1.71-2.51,4.34-3.8,6.81-3.33,3.22.61,4.84,4.7,5.9,7.37a7.12,7.12,0,0,1,.48,1.89A6.34,6.34,0,0,1,77,76.34c-.84,2.53-6,3-6.43,3A14.45,14.45,0,0,1,60.78,76.09Z"/><path class="cls-11" d="M94.27,76.91s-.19-3.1,3.24-8.14c1.7-2.51,4.33-3.8,6.8-3.33,3.23.61,4.85,4.7,5.91,7.37a6.87,6.87,0,0,1,.47,1.89,6.51,6.51,0,0,1-.2,2.45c-.85,2.53-6,3-6.44,3A14.5,14.5,0,0,1,94.27,76.91Z"/><ellipse class="cls-12" cx="69.84" cy="73.47" rx="4.75" ry="5.17" transform="translate(-4.41 4.46) rotate(-3.54)"/><ellipse class="cls-13" cx="102.44" cy="75.12" rx="4.75" ry="5.17" transform="translate(-4.45 6.48) rotate(-3.54)"/><ellipse class="cls-14" cx="69.87" cy="74.02" rx="2.83" ry="2.57" transform="translate(-4.44 4.46) rotate(-3.54)"/><ellipse class="cls-14" cx="102.74" cy="75.59" rx="2.83" ry="2.57" transform="translate(-4.48 6.49) rotate(-3.54)"/><ellipse class="cls-11" cx="101.02" cy="73.38" rx="1.31" ry="1.29" transform="translate(-4.34 6.38) rotate(-3.54)"/><ellipse class="cls-15" cx="67.92" cy="72.45" rx="1.25" ry="1.08" transform="translate(-4.35 4.34) rotate(-3.54)"/><path class="cls-16" d="M80.69,88.91s5.17,1.89,10.72-5l1-2.7a5.08,5.08,0,0,1,.74.54,4.81,4.81,0,0,1,1.47,2.45c.15,1.12-.58,2-1.61,3.24a16.26,16.26,0,0,1-5.4,4.06c-.6.31-1.1.53-1.46.69a14,14,0,0,1-3.57-1.74A14.22,14.22,0,0,1,80.69,88.91Z"/><path class="cls-17" d="M77.34,101.54S81,97.15,84.47,100c2.67-1.06,4-1.08,6.61,2.14C90.23,102.88,82.41,109.19,77.34,101.54Z"/><path class="cls-16" d="M89.22,100.19s-2.81,6.47-10.18,2.65c4.59,4,9.19,1.54,11.5-.6C90.54,102.24,90.26,100.66,89.22,100.19Z"/><path class="cls-18" d="M66.83,89.06S72.19,101,84.39,93.33l.08-.94s9.15,10.62,17.59-2.31"/><path class="cls-19" d="M64.61,89.19a5.13,5.13,0,0,0,2.25-.87,10.75,10.75,0,0,0,1-.75l.93-.86c-.07.21-.16.4-.25.61s-.22.38-.35.56a4,4,0,0,1-1,.92,3.34,3.34,0,0,1-1.25.51A2.29,2.29,0,0,1,64.61,89.19Z"/><path class="cls-19" d="M100.89,87.57a3.57,3.57,0,0,0,.74,1,8.88,8.88,0,0,0,.92.81c.64.52,1.36,1,2.06,1.58a4.28,4.28,0,0,1-1.34-.29,5.09,5.09,0,0,1-1.2-.68,3.8,3.8,0,0,1-.93-1.06A1.92,1.92,0,0,1,100.89,87.57Z"/><path class="cls-4" d="M62.45,108.11c-.91-.45-1.74-.91-2.5-1.36A7.58,7.58,0,0,0,62.45,108.11Z"/><path class="cls-4" d="M113.24,103.31c.83-1.1,1.41-2.37,2.13-3.54a1.19,1.19,0,0,1,.42-.39c.19-.41.37-.81.52-1.18,0-.17-.08-.34-.13-.5a16.16,16.16,0,0,0-1.11-2.84,29.9,29.9,0,0,1-10.42,9.79,29,29,0,0,1-6.92,2.77l-.21-1.66c-16,12.36-24.91,4.61-28.31,1.24A8.12,8.12,0,0,1,63,108.25c-.18,0-.34-.09-.5-.14a37.08,37.08,0,0,0,9.6,3.29,14.1,14.1,0,0,0,11.88,4.4,17.49,17.49,0,0,0,7.91-3.36,17,17,0,0,0,2.89-2.84l-1.56,2.14h.32l.28,0,1.48-.07a1.13,1.13,0,0,1,.39-.15,71.05,71.05,0,0,0,7.38-1.39,25.83,25.83,0,0,0,4.45-1.91q1.62-.93,3.15-2A27.25,27.25,0,0,0,113.24,103.31Z"/><path class="cls-20" d="M114.63,95l3.1-6.81s1.53,2.36,1.35,3.22c0,0,1.66-4.88,1.18-6.76s1.08,1.41,1.08,1.41,1.09-6,.29-8.07l1.45.61a51.13,51.13,0,0,0-6.88-15.16c-4.8-6.8-17.48-21.42-17.48-21.42s8.4,3.51,19.38,20.66a32,32,0,0,1,4.27,5.46,66.79,66.79,0,0,1,3.75,8.13c1.59,3.75,1.85,4.61,2,5.75a13.41,13.41,0,0,1-.7,5.9,8.32,8.32,0,0,0-.92-2.11,8.07,8.07,0,0,0-2.06-2.22,13.24,13.24,0,0,1,.69,3.23,16.25,16.25,0,0,1-.26,4.41,28,28,0,0,1-.89,4,4.38,4.38,0,0,0-.35-2.81,4.29,4.29,0,0,0-1.07-1.32,15.34,15.34,0,0,1-.65,3.64,15.81,15.81,0,0,1-3.84,6.44c-.24-.62-.26-.86-.22-.94l.07-.17h0l-.13-4.74-2,3.86Z"/><path d="M63.67,61.12a6.07,6.07,0,0,1,2.09-2.6,6,6,0,0,1,3.29-1.18,6.07,6.07,0,0,1,3.38.82,7.92,7.92,0,0,1,1.37,1,11.7,11.7,0,0,1,1.07,1.28c-.54-.18-1-.43-1.49-.64l-.72-.27a5,5,0,0,0-.71-.24,8.17,8.17,0,0,0-2.82-.38A10.63,10.63,0,0,0,63.67,61.12Z"/><path d="M97.46,61.19A5.58,5.58,0,0,1,100,58.92a6.7,6.7,0,0,1,3.51-.61,7.21,7.21,0,0,1,3.31,1.22,8.74,8.74,0,0,1,1.31,1.11,9.51,9.51,0,0,1,1,1.39c-.56-.18-1-.42-1.53-.62s-1-.4-1.45-.54a12.54,12.54,0,0,0-2.81-.65A13,13,0,0,0,97.46,61.19Z"/><path class="cls-21" d="M94,75.57a18.53,18.53,0,0,1,1.85-7,12.58,12.58,0,0,1,2.23-3.15,7,7,0,0,1,3.78-2.07,6,6,0,0,1,4.38,1,9.07,9.07,0,0,1,2.67,3,12.77,12.77,0,0,1,1.52,7.16,27.67,27.67,0,0,0-3.54-5.78,8.46,8.46,0,0,0-2.22-1.9,3.41,3.41,0,0,0-2.3-.45c-1.52.22-3.12,1.75-4.46,3.44S95.38,73.58,94,75.57Z"/><path class="cls-21" d="M62.34,71.76a10.19,10.19,0,0,1,1.38-6.34,7.27,7.27,0,0,1,2.62-2.54,6.25,6.25,0,0,1,3.8-.75,8,8,0,0,1,5.8,4.06,10,10,0,0,1,1.24,6.36A21,21,0,0,0,74,67.63a7.14,7.14,0,0,0-4.18-2.42,5,5,0,0,0-4.13,1.7A22.4,22.4,0,0,0,62.34,71.76Z"/><path class="cls-16" d="M53,27.49c.58,1.73,1.13,3.64,1.61,5.73.34,1.5.6,2.93.81,4.28h0q-.14,4-.28,7.94t-.28,7.83a62.41,62.41,0,0,1,7.46-6.34,60.19,60.19,0,0,1,5.35-3.45c-.48-.74-1.15-1.76-2-2.93A52.39,52.39,0,0,0,61.12,35c-.85-.89-2.08-2-4.55-4.26C55.1,29.36,53.86,28.26,53,27.49Z"/><path class="cls-22" d="M106.74,47.44s5.49-10.79,14.09-15c.55,3.37,4.33,20.3-3,28.59C116.39,59.8,107.51,47.39,106.74,47.44Z"/><path id="f-2" data-name="f" class="cls-16" d="M120.83,32.64c.62.54-2.84,4.19-4.52,9.08-1.63,4.73-1.72,11,1.89,19.33q-2.86-3.21-5.8-6.81t-5.3-6.82a43.32,43.32,0,0,1,6.49-9.08C116.4,35.32,120.21,32.11,120.83,32.64Z"/><path class="cls-23" d="M91.73,200.42c-1-.47-7.11-3.33-8.63-9.48-.77-3.12,0-5.66,1.41-10.48.45-1.52,1.61-5.41,2.91-5.35.47,0,.8.55,1,.82a18.26,18.26,0,0,0,5.8,5.29,65.72,65.72,0,0,1-.54,10A66.24,66.24,0,0,1,91.73,200.42Z"/><path class="cls-24" d="M70,219.54a13.78,13.78,0,0,1,.45-5.57A4.59,4.59,0,0,1,72,211.65a4.05,4.05,0,0,1,2.66-.67,4,4,0,0,0-2.56.78,4.3,4.3,0,0,0-1.35,2.3,13.23,13.23,0,0,0-.15,5.39Z"/><path class="cls-25" d="M120,154.85c0-2.33-1.23-9.56-1.23-9.56l-.74-2.15-1.54,14.68-1-.46-1.27,12.72-2-.93-.69,9.67-1.23-.75s-3.47,25.05-7.48,31.85c-1.24,6.19-4,10.31-5.89,10.85a9.39,9.39,0,0,1-2.2.32,8.32,8.32,0,0,1-2.68-.42,12.45,12.45,0,0,1,.12,1.72c0,.3.35.75.16,1.12,0,.1-.13.19-.1.29s.32.22.55.25a8.9,8.9,0,0,0,1.41.44,9.21,9.21,0,0,0,3.35,0c2-.43,3.22-2.84,4.27-5.2A80.06,80.06,0,0,0,106,207.46c.61-2.13,1.54-5.25,2.88-9,0,0,2.79-11.2,2.71-12.57s0-4.59,0-4.59l1.7,3.88,1.21-12,1.54,4.06,1.55-14.11,1.38,3.35S120,157.18,120,154.85Z"/><path class="cls-26" d="M123.59,203.32a55.25,55.25,0,0,1,12,.7"/><path class="cls-26" d="M76.75,110.47c-.27-.09-4.5-4.55-4.69-5.22"/><path class="cls-27" d="M118.85,144.68a56,56,0,0,1,1,6.32,53.29,53.29,0,0,1,0,10.37c-.31,3.22-.75,5.64-.75,5.64l-1.37-3.27-1.55,13.75-1.55-4-1.2,11.69a36.1,36.1,0,0,0-1.71-3.78c.19,2.56-.66,5.1-.63,7.67,0,2.12-1.67,8.79-7.82,26.29,0,0-2.51,9.38-5.94,9.27"/><path class="cls-28" d="M97.37,146h0c-1.44,3.06-2.55,5.45-2.61,5.58-2.94,6.49-1.48,15.93-1.11,20.28a116.24,116.24,0,0,1,.28,16.21,65.82,65.82,0,0,1-5,20.95,8.54,8.54,0,0,0-5.36,2.74A8.31,8.31,0,0,0,82,214.6a9.43,9.43,0,0,0-.37,4.42"/><path d="M117.57,120.67l-1.4-2.12.65-.26a53.38,53.38,0,0,1,.47,5.64c0,.94,0,1.89-.06,2.83a9.88,9.88,0,0,1-.56,2.82l-.12.31-.25-.26-2.46-2.51.3-.11a28.64,28.64,0,0,1-.55,3.46,22.75,22.75,0,0,1-1,3.36,13.15,13.15,0,0,1-1.62,3.11,7.13,7.13,0,0,1-2.59,2.29,7.07,7.07,0,0,0,2.52-2.34,13.07,13.07,0,0,0,1.52-3.12,25.84,25.84,0,0,0,1.36-6.78l0-.38.27.26,2.55,2.5-.37,0a9.59,9.59,0,0,0,.45-2.69,25.79,25.79,0,0,0,0-2.78,51.43,51.43,0,0,0-.59-5.55l-.25-1.54.9,1.29,1.44,2.09Z"/><path class="cls-29" d="M176.39,210.61l12.47,1.64-.65-3.74s-3.39-3-17.2-1.8l2.08,1.57s-15.76-.67-17.19-.92.26,1.15.26,1.15l-7.43-4.27s3.13-6.39,3.65-11.47a85.82,85.82,0,0,0,.13-11.46c0-.91-1.43-12-4.95-16.94s-13.18-19.15-13.18-19.15l-11.31-17.06-6.49-10.22a13.17,13.17,0,0,0-1.15-2.78,25,25,0,0,0-1.92-2.83c-.36-.49-.66-.89-.88-1.17-.47-.62-.79-1.1-1.46-2-1.23-1.73-1.32-1.84-1.55-1.9-.69-.17-1.19.44-2.54,1.25a14.85,14.85,0,0,1-2.73,1.24,8.05,8.05,0,0,1,2.89,1.82,7.83,7.83,0,0,1,1.78,2.63,27.19,27.19,0,0,1,.7,3.32,11.07,11.07,0,0,0,.49,2.45,7.06,7.06,0,0,0,1.2,2.06l-.06-1.64.21,5.34s12.29,13.94,15.55,19.28c5.86,6.52,15.5,20.33,17.19,25.41s6.91,13.68,0,29.83c-3.38,7.16-7,12-16.8,10.41-.78.92-4.54,6.89-13.54,4.1-.53.6-4.7,2.06-5.74-2.12a5.53,5.53,0,0,1-2.22-.5,5.31,5.31,0,0,1-1.12-.69,1.9,1.9,0,0,0-.71,1.38s0,0,0,.44c.09.93.09.95.1,1a2.24,2.24,0,0,0,.71,1.44,5.15,5.15,0,0,0,1.71.67,1.15,1.15,0,0,1,.56.3c.26.25.25.57.33.7a3.38,3.38,0,0,0,2.37,1.27,5.08,5.08,0,0,0,3.22-.57,18.39,18.39,0,0,0,4.62.59,10.4,10.4,0,0,0,3.58-.43,8.88,8.88,0,0,0,4-2.81c1,.13,2.48.29,4.24.36a36.33,36.33,0,0,0,9.44-.7,30.36,30.36,0,0,0,4.44-1.57c1.53-.62,2.51-1.09,2.56-1.78s-.75-.92-.76-1.66.79-1.36,1.52-1.78a16.84,16.84,0,0,0,3.37,2c1,.47,3.26,1.35,10.91,1.72,1.2.06,2.75.12,4.56.13l-4.32-1.57,17.46,1.29Z"/><polygon class="cls-4" points="106.84 111.76 101.85 112.34 101 112.81 107.07 112.04 106.84 111.76"/><path class="cls-25" d="M82.06,216.17a8.81,8.81,0,0,0-.38,2.2,4.62,4.62,0,0,0,.25,2.32,3.44,3.44,0,0,0,2.51,1.92,3.07,3.07,0,0,0,1.72-.33,9.53,9.53,0,0,0,1.16.89,6,6,0,0,0,2.32,1.07,4.24,4.24,0,0,0,3.47-.87l-.21-2.16c-.94-.16-2-.38-3.1-.68a27.19,27.19,0,0,1-3.56-1.21A12.87,12.87,0,0,1,82.06,216.17Z"/><path class="cls-30" d="M63.2,218.36a12.81,12.81,0,0,1,1.48-6,5.66,5.66,0,0,1,2.15-2.19,5.07,5.07,0,0,1,3-.53,5,5,0,0,0-2.91.66,5.34,5.34,0,0,0-2,2.2,12.33,12.33,0,0,0-1.15,5.83Z"/><path class="cls-29" d="M84.56,158.14a15.57,15.57,0,0,1,2.2,4.42A15.88,15.88,0,0,1,87.4,169l-2.54-3.54c.24.81.56,1.93.91,3.3a26.34,26.34,0,0,1,.72,3.25,27.16,27.16,0,0,1,.14,4c0,1.07,0,2.53-.13,4.27l-2.34-4.9c.42,2.89.88,5.82,1.4,8.79.19,1.14.39,2.26.6,3.38l-2.31-4.13c.19,1.4.38,2.79.56,4.2q.39,2.94.75,5.85l-1.4-2.76c-.74,10.4-1.48,18-1.79,20a22.47,22.47,0,0,1-.86,3.47,17.45,17.45,0,0,1-.69,1.69,7.53,7.53,0,0,1-1.55,2.4,12.89,12.89,0,0,1-.92,1l-.69.21a10.36,10.36,0,0,1-4,.67,5.9,5.9,0,0,1-1.53-.32,5.7,5.7,0,0,1-1.14-.57l.83-2.64s7.65.52,8.09-4,1.32-24.49,1.32-24.49v-2.78l2,2.26-.5-8.07,1.57.69-1.07-8.42,1.5-.78L82.8,160.37l2.26,2.09Z"/><path class="cls-31" d="M125.35,132.58l3.66,6.27s-1.87-.61-5.42,2.89-2.32,3.2-2.32,3.2A12.82,12.82,0,0,1,125.35,132.58Z"/><path class="cls-31" d="M135.64,147.38a7.64,7.64,0,0,0-6,5.54c-1.7,5.1-1.72,8-4.27,10.57s-4.08,7.48-4.08,7.48,5.84-6.57,9.25-7.48,12.23-5.42,12.23-5.42Z"/><path class="cls-31" d="M152.35,181c-.54-.18-16.89-4.81-22.73-4.19,5.78,4.56,9.79,7.3,13.44,9.85s9.29,2.55,9.29,2.55Z"/><path class="cls-31" d="M153.26,195.9a7.81,7.81,0,0,1,4.56,6.16l1.09-7-6.15-1.61Z"/><path class="cls-31" d="M163.5,195.14l3.63-.68s.3,6.61,1.73,9.36A13.4,13.4,0,0,1,163.5,195.14Z"/><path class="cls-31" d="M177.29,191.84s7.13-1.28,7.83-1.48-3,5.72-3.14,7.75.93,6.87,0,8.08c0,0-1.16-3.88-2.53-4.85s-1.56-4.23-1.85-6.86Z"/><path class="cls-31" d="M148.71,203.24c-.8-2.68-5.77-3.31-8.73-3.66-2.25-.26-4.77.41-4.87.14,0-.05,0-.12.06-.14.35-.26,2.72,1.92,10.14,10.49a9,9,0,0,0,2-2.19C147.89,207,149.22,205,148.71,203.24Z"/><path class="cls-31" d="M111.65,183.74s-7.46,1.88-10.47,2.3a44.7,44.7,0,0,0-5.29,1s5.7.52,10.06,1a29.38,29.38,0,0,1,5,1.3h0Z"/><path class="cls-31" d="M93.88,174.16s5.07,2.45,7.91,2.7a3.62,3.62,0,0,0,1.06,0c2.34-.54-6.71,3.62-8.1,3.51Z"/><path class="cls-31" d="M94.28,153.31s.32.32,5.22,1.81l10.12,3.09s-4.69,1.35-7.67,1.1-3.52-.39-4.8,0l-4.26,1.33S92.78,154.38,94.28,153.31Z"/><path class="cls-32" d="M60.25,111.76a6.23,6.23,0,0,1,4.23,2.94c1.92,2.53,3.24,4.24,5,4.81a3.58,3.58,0,0,0,.35.09c-2.66-.14-.12,0-.12,0s-1.52,1.18-5.41-1.87c-2.25-1.64-4.5-2.81-5.05-2.82S59.63,112.17,60.25,111.76Z"/><path class="cls-32" d="M57.15,131.6s1.85.62,7.17,2.48,6.55.86,6.55.86l-12.18,4.85c-.33-1.25-.65-2.6-.92-4S57.29,132.9,57.15,131.6Z"/><path class="cls-31" d="M62.58,156.84s4,.91,9.87,5.55c6.62,4.14,7.5,5,7.5,5s-.69-1.48-6.31-1.48-8.4.83-9.19-.82S62.58,156.84,62.58,156.84Z"/><path class="cls-31" d="M68.13,186.57s2.37-.71,6.71,3.4,5,4.4,5,4.4S70,191,68.13,193Z"/><path class="cls-31" d="M127,76.78a31.32,31.32,0,0,0-13.44,8.33,46,46,0,0,1,10-1.45,46.68,46.68,0,0,1,5.67.16Z"/><path class="cls-24" d="M106.6,216.67a7.36,7.36,0,0,1,1.23-5.27,7.09,7.09,0,0,1,4.41-2.94,7,7,0,0,0-5.07,8.11Z"/><path class="cls-32" d="M100.81,43.82S99.27,48,97,53.26l-2.25,5.32a108.94,108.94,0,0,1,9.14-8.27L107,48.1S102.72,44.11,100.81,43.82Z"/><path class="cls-32" d="M84.26,40.42a34.1,34.1,0,0,1,13.18,1.33,67.93,67.93,0,0,1-8.2,23.17,37.06,37.06,0,0,0,.61-9.45A27.27,27.27,0,0,0,86.23,43.3,25,25,0,0,0,84.26,40.42Z"/><path class="cls-32" d="M71.11,42.27a15.22,15.22,0,0,1,2.76-1.18,16.18,16.18,0,0,1,3.6-.71C79,43.33,79.39,49.09,80,51.15A25.32,25.32,0,0,1,80.69,56c-1.52-1.82-3.07-3.82-4.62-6C74.16,47.31,72.52,44.71,71.11,42.27Z"/><path class="cls-32" d="M41.26,72a22.9,22.9,0,0,1,13,6.31,36.66,36.66,0,0,0-15.15,0Z"/><path class="cls-11" d="M190.29,190.78a12.84,12.84,0,0,1,4.36.45c2.47.68,5.08,2.21,4.88,2.89-.1.35-1,.64-4.62.25l-.2,1a1,1,0,0,1,.16-.79c.24-.31.74-.43,2.87-.15a18.59,18.59,0,0,1,2,.32,20.41,20.41,0,0,1,3.76,1.21A23.64,23.64,0,0,1,209,199.4c2.68,2.19,5,5,4.77,5.22-.05,0-.19,0-.31-.06q-.86-.15-1.86-.24a23.35,23.35,0,0,0-2.46-.06,9.21,9.21,0,0,1,7.07,8.51,12.87,12.87,0,0,1-4.64,1,17.74,17.74,0,0,1-3.11-.3c-1.58-.22-3.87-.5-6.71-.76l4,2.83c-2.26-.39-4.12-.81-5.5-1.16a24.65,24.65,0,0,1-4.93-1.63,16.67,16.67,0,0,1-3.37-2.22l1,2.65-4.05-1.3a20,20,0,0,1-2.1-6.48A21.81,21.81,0,0,1,190.29,190.78Z"/><path class="cls-4" d="M187.13,207c.07.53.17,1.09.3,1.67a20.14,20.14,0,0,0,1.24,3.67l4.61,1c-.42-1-.85-2-1.28-3a17.7,17.7,0,0,0,3.71,2.61,21.81,21.81,0,0,0,5.47,1.88,35.27,35.27,0,0,0,4.63.81l-4-3s8.84,2.76,15.32,0c-.11-.33-2.45-2.6-7.36-3.51s-10.29-1.59-10.29-1.59l-.22,2.95L192.42,208l-1-2.72h-4.63Z"/><path d="M79.45,90.88a7.76,7.76,0,0,0-2.21.3,9.28,9.28,0,0,0-2,.8,12.54,12.54,0,0,0-3.48,2.66,21,21,0,0,0-2.7,3.5l-1.11,2c-.34.66-.66,1.34-1,2,.23-.72.49-1.42.74-2.14s.64-1.37,1-2.06a18.68,18.68,0,0,1,2.67-3.71A12.17,12.17,0,0,1,75,91.52,8,8,0,0,1,79.45,90.88Z"/><path d="M77.38,88a18.76,18.76,0,0,0-3,.88c-1,.34-2,.73-2.93,1.16a35,35,0,0,0-5.49,3,28,28,0,0,0-4.83,4L60,98.21l-1,1.23c-.72.78-1.22,1.71-1.87,2.56a21.87,21.87,0,0,1,3.51-5.33,25.9,25.9,0,0,1,4.83-4.22,31.41,31.41,0,0,1,5.7-3A21.46,21.46,0,0,1,77.38,88Z"/><path d="M74.69,86.33a20.59,20.59,0,0,0-2.59-.23,24.48,24.48,0,0,0-2.57,0,23,23,0,0,0-5,.85,20.72,20.72,0,0,0-2.41.82,22.11,22.11,0,0,0-2.28,1.15,25.29,25.29,0,0,0-4.15,3c.28-.33.57-.66.86-1a8.17,8.17,0,0,1,.91-.95,15.63,15.63,0,0,1,2.07-1.63,17.9,17.9,0,0,1,2.29-1.32,20.67,20.67,0,0,1,2.5-.89,18.52,18.52,0,0,1,5.23-.69A17.09,17.09,0,0,1,74.69,86.33Z"/><path d="M98.9,93.13a11.76,11.76,0,0,1,4,2.25A19,19,0,0,1,106,98.77a23.49,23.49,0,0,1,2.23,4c.3.71.53,1.44.79,2.16s.39,1.49.56,2.23c-.31-.7-.56-1.42-.86-2.12s-.6-1.39-1-2.06a28.09,28.09,0,0,0-2.3-3.88,22.08,22.08,0,0,0-2.94-3.39A15.75,15.75,0,0,0,98.9,93.13Z"/><path d="M103,93.13a14.67,14.67,0,0,1,5.15,1.5,17.31,17.31,0,0,1,4.42,3.13,17,17,0,0,1,3.18,4.37,18.73,18.73,0,0,1,1.07,2.48c.28.86.48,1.74.69,2.6a28.14,28.14,0,0,0-2.2-4.83,18.25,18.25,0,0,0-3.2-4.15,17.92,17.92,0,0,0-4.19-3.15A19.58,19.58,0,0,0,103,93.13Z"/><path class="cls-33" d="M103.17,89.27c.25.13,11-2.55,18.92,8.85"/><path class="cls-29" d="M72.68,112l.07,1.46c-1.82-.38-3.29-.76-4.36-1a21.73,21.73,0,0,1-2.31-.84,5.56,5.56,0,0,1-1.83-1.09,5.16,5.16,0,0,1-.75-.83l-.4-1a37.15,37.15,0,0,0,4.2,1.84A35.1,35.1,0,0,0,72.68,112Z"/><path class="cls-28" d="M152.47,193.21s6.05,3.26,16.95.5,23.7-6,30.56.39l-2.24.34s9.72.7,16.57,10.87l-5.14-1.05s5.6.63,7.93,8.34c0,0-7.67,4-15.32,0l4.6,3s-9.92.11-14.12-4.69l1.23,2.86s-13.63-4-17.1-3.15l3.39,1.46s-16.84-1-17.76-1.41,3.65,1.52,3.65,1.52-13.68.76-19-3.58"/><path class="cls-34" d="M60.1,213.48s-.78,4.09,3.07,5.11c1.36,1.21,3.16,2.77,7.21.61,0,0,3.53,2.8,8.38-.51,1-1.19,3.26-5.18,3.45-8.43.3-2.64,1-10.58,1-10.58l.6-8.91,1.31,2.58-1.2-9.72,2.46,4.55-1.9-12.11,2.07,4.27s.32-7.52,0-9.05-1.42-5.51-1.42-5.51l2.32,3.36a22.14,22.14,0,0,0,0-3.74A46.63,46.63,0,0,0,86,160.26c-.33-.72-1.64-3.28-1.64-3.28"/><path class="cls-28" d="M83.91,192.46a16.35,16.35,0,0,0,7.83,8"/><path class="cls-35" d="M133.57,215.91c-1.37.06-2.74.18-4.13.19a14.22,14.22,0,0,1-4.15-.5l.22-.07a10.65,10.65,0,0,1-6.05,3.31,10.17,10.17,0,0,1-6.76-1.08h0v0a4.24,4.24,0,0,1-.14-3.45,4.08,4.08,0,0,1,2.5-2.34h0a8,8,0,0,1,1.07-.38,2.08,2.08,0,0,0,1-.58,2,2,0,0,1-1,.6,8.51,8.51,0,0,0-1.06.4h0a4,4,0,0,0-2.41,2.34,4.07,4.07,0,0,0,.19,3.33l0,0a10,10,0,0,0,6.63.93,10.31,10.31,0,0,0,5.78-3.29l.09-.1.13,0c2.62.74,5.38.32,8.12.15Z"/><path class="cls-36" d="M109.62,107.21c.83,1.58,2.36,2.34,3.12,3.49,2.29,3.44,3.44,6.49,5.35,9.93,9.94,15.29,19.87,28.66,29.42,43.94,5.73,8.79,5.73,18.73,4.59,28.66a28.33,28.33,0,0,1-6.21,16.23"/><path class="cls-29" d="M105.57,110.62l1.15.45a18.49,18.49,0,0,0,4.45-1l-.19-.71-2.19-.2S106,110.51,105.57,110.62Z"/><path class="cls-31" d="M117.47,119.8a76.43,76.43,0,0,0-8,3.31c-2.67,1.42-3.07,2.46-3.07,2.46s1.46-.14,3.37-.22c2.81-.11,3.25.21,6.08.18,2.57,0,5.3-.28,5.3-.28h0Z"/><path class="cls-24" d="M102.23,218.71a10.54,10.54,0,0,1-1.24,3.21,6.74,6.74,0,0,1-2.42,2.47,5.54,5.54,0,0,1-3.38.62,8.83,8.83,0,0,1-1.68-.36c-.26-.11-.54-.19-.8-.3l-.39-.17-.19-.09c-.21-.13-.14-.23-.18-.3a11.64,11.64,0,0,1,.26-3.39,11.15,11.15,0,0,1,1.17-3.18,6.14,6.14,0,0,1,2.36-2.38,6.2,6.2,0,0,1,3.27-.69,5.71,5.71,0,0,0-5.49,3.15,10.61,10.61,0,0,0-1.07,3.14,11.5,11.5,0,0,0-.19,3.3c0,.06.06.15,0,.06l.19.08.38.16c.26.11.53.18.79.27a8.06,8.06,0,0,0,1.61.32,5.19,5.19,0,0,0,3.12-.63,8,8,0,0,0,3.31-5.39Z"/><path class="cls-37" d="M97.56,224.53a8.35,8.35,0,0,1-5-.58"/><path class="cls-35" d="M82.13,217a8.68,8.68,0,0,0-.16,2.69,3.06,3.06,0,0,0,1.1,2.26,3.33,3.33,0,0,0,2.53.33l.34-.08.08,0s.08-.05,0,.06,0-.05,0-.1l.07-.68c0-.47.08-.94.14-1.4a11.32,11.32,0,0,1,1.85-5.28A5.38,5.38,0,0,1,90.22,213a6.33,6.33,0,0,1,2.75-.45,6.13,6.13,0,0,0-2.71.52,5.21,5.21,0,0,0-2.08,1.78,11.19,11.19,0,0,0-1.66,5.23c0,.46-.08.92-.1,1.38,0,.24,0,.47,0,.71a.58.58,0,0,1-.06.24v0l-.07.06-.07,0h0l-.09,0-.35.09a3.76,3.76,0,0,1-2.87-.34,3.53,3.53,0,0,1-1.36-2.58,9.22,9.22,0,0,1,.11-2.87Z"/><path class="cls-38" d="M86,222.43A8.71,8.71,0,0,0,92.58,224"/><path class="cls-39" d="M129.62,189.17s6.7,12.56,13.13,18c4.56,5,5.9,5.93-5.73,8.39-10.37.78-11.83-.17-11.83-.17"/><path class="cls-40" d="M126.58,202.92a16.06,16.06,0,0,1-5.5-12.5l-1,1.46-.65,2.21-.37-2c-.73-3.67.94-8.47.94-8.47l-2.91,2.25a11.47,11.47,0,0,1,.5-3.38,12.39,12.39,0,0,1,5.39-6.68l-3.55,1.47,1.22-1.47a14.2,14.2,0,0,1,4.6-3.91,10.67,10.67,0,0,1,3.45-1,10.27,10.27,0,0,1,6.95,0"/><path class="cls-41" d="M91.14,202.76s-9.2,2.34-8.39,5.7c.76,2.34,1,1.93,3.6,1.27l2.57-.66Z"/><path class="cls-41" d="M108,201.36s5.85-2.86,7.54-.68a3.45,3.45,0,0,1,.51,4l-5.64,2.85-3,1.34-2-.25Z"/><path class="cls-2" d="M109.76,195.63l0,.05a11.65,11.65,0,0,0,5,4.43,11.33,11.33,0,0,0,8.84-.25l2.6,2.9s-6,.27-10,2L106.86,209a6.23,6.23,0,0,0-2.27,2.66,6,6,0,0,0-.52,2.53"/><line class="cls-40" x1="108.46" y1="199.52" x2="112.29" y2="198.56"/></svg>