<svg id="Layer_1" data-name="Layer 1" xmlns="http://www.w3.org/2000/svg" viewBox="0 0 256 310"><defs><style>.cls-1{fill:#323232;opacity:0.4;}.cls-2{fill:#aa4315;stroke:#543e0d;}.cls-10,.cls-2,.cls-3,.cls-4,.cls-7{stroke-miterlimit:10;}.cls-3{fill:#fca01a;stroke:#705613;}.cls-4{fill:#ffd44a;}.cls-4,.cls-7{stroke:#876a1a;}.cls-5{fill:#e27105;}.cls-6{fill:#60150c;}.cls-7{fill:#ddb136;}.cls-8{fill:#e25d03;}.cls-9{fill:#592400;}.cls-10,.cls-14{fill:#f4691c;}.cls-10{stroke:#af4612;}.cls-11{fill:#8e3b11;}.cls-12{fill:#aa2d0f;}.cls-13{fill:#a83f16;}.cls-15{fill:#ef7320;}.cls-16{fill:#8e2100;}.cls-17{fill:#fff;}.cls-18{fill:#33180a;}.cls-19{fill:#3f1b02;}</style></defs><ellipse class="cls-1" cx="128" cy="287.41" rx="79" ry="18.75"/><path class="cls-2" d="M149.65,39.92s6.47,2.67,4.91,14.5l-3.35-2s6.1,21.77,1.11,14.29c-2.67-4-.44,6.69-.44,6.69l-3.35-4.69s2.46,9.6-1.11,18.08L145,81.65s2.23,8.48-1.12,16.07L141.39,93s.45,10-2.9,17l-2-3.57-2,10-2-2.9-.67,7.14-2.45-1.11-.67,7.81c-4,.89-5.58,6.25-5.58,6.25l-4.91,8.7c-1.78,6.69-.67,9.82-.67,9.82a82.19,82.19,0,0,1,5.13,8.7l-12-6-8.48-13.39L99,132.53l1.78-11.61,32.81-38.16,1.34-10Z"/><path class="cls-3" d="M182.51,171.73c7.47,6.48,3.3,22.11-10.09,19.37-5.55.62,1.16,6.56,1.16,6.56,14.3,2.17,22.55-14.4,12.87-25.93"/><path class="cls-4" d="M142.22,29.16c10.43,7.74,3.59,46.06-9.59,75.22s-17.87,38.67-13.42,50.48c3.36,8.91-39.09,37.51-37.91,14.89,1.82-35.07,38.53-72.32,39.22-105.41S131.62,21.29,142.22,29.16Z"/><path class="cls-5" d="M141.4,67.09c-1.21,9.45-12.72,15.75-21.37,16.64-1.57,4.57-8.4,11.8-8.4,11.8,3.92-7.2,6.67-16.39,7.92-20.9"/><path class="cls-6" d="M125.83,266.21c-4.41.71-9.45,8.85-5.53,11.81,1.19.37,3.84-3,3.84-3s-2.23,4-1.52,4.46c3.65,2.24,21.29-1.92,17.13-14.16"/><path class="cls-7" d="M136.14,215.74c-.82,3.89,9.66,13.26,8.17,18.17S128.7,263.14,125.45,266s10.51,5,14.85,1.19,1.49-4.87,3.61-9.94,9.77-18.35,13.51-20.94,5.14-8.25,1.61-13.25-1.94-15.9-1.94-15.9"/><path class="cls-8" d="M154.22,233.59c-3-8-8.8,1.43-7.43,5.81S155.78,237.71,154.22,233.59Z"/><path class="cls-8" d="M149.93,246.05c-.42-2.33-8.36.74-4.35,7.68C147.86,250,149.93,246.05,149.93,246.05Z"/><path class="cls-8" d="M143.86,222.38c-2.54.54.37,7.66,3.37,6.76S150,221.1,143.86,222.38Z"/><path class="cls-5" d="M136.75,215.59c1.35,5.3,7.9,4.5,12.11,5.85s9,3,12.24,5.93c1.87-10.13-2.34-17.79-7.74-18.84"/><path class="cls-8" d="M149.7,216.91c-2.33,2.09,2.4,12.68,8.21,12s4.38-4.5,2.07-9.28S152.67,214.23,149.7,216.91Z"/><path class="cls-2" d="M115.85,13.1a30.32,30.32,0,0,0-5-6.62,11.34,11.34,0,0,1,12,6c.14-4.39-2-5.75-2-5.75a15,15,0,0,1,14.75,8.92l-.09-2.81c5,1.69,10.77,10.13,11.53,24-3.59-9.93-18.05-21.75-34.11-20.91"/><path class="cls-4" d="M98.61,34c-27.82-.9-25.29-29.56-24-30s3.63.73,6.35.74c11.21.69,21.67,7.17,21.59,20.23C102.56,28.22,101.64,34.07,98.61,34Z"/><path class="cls-5" d="M93.27,28.16c-.44-11.32-7.89-16.64-16.2-19.27C77.43,18.51,81.49,32.05,93.27,28.16Z"/><path class="cls-4" d="M82.14,69.7c2-1.4,3.17-3.54,2-9.74-3.21-16.9-2.51-37.13,22.49-44,14.24-4.73,34,2.71,39.94,20.15s-3.4,36.07-16.16,41.58c-13.15,5.67-26.84,3.61-32.4,5.45-6.62,2.21-7.85-1.31-11.41-4.33C85.59,78,79.69,71.45,82.14,69.7Z"/><path class="cls-8" d="M140.87,39.22c-5.07-1-13.42,8.17-11.68,14.69s14.23,1.64,15.9-1.62S144.07,39.87,140.87,39.22Z"/><path class="cls-9" d="M103.69,35.68c4.4-4.73,14.5-5.1,17.22-3C113.73,27,107.44,28.61,103.69,35.68Z"/><path class="cls-10" d="M96.18,84.12c8.32-12.7-1.57-27.22-12.92-30.26-2.55-.68-6.89,3.69-6.89,3.69-10.45,5.33.12,14.14-.48,22.37C74.61,87.71,83,91.29,88.48,88A39.61,39.61,0,0,1,96.18,84.12Z"/><path class="cls-10" d="M69.16,61.91c-2.13-2.79-7.8,1.69-3.38,5.83"/><path class="cls-11" d="M76.92,78.45c7.1.72,10.54-2.27,16.14-6-5.16,4.31-4.57,16.3-12.22,13.75C77,85,76.92,78.45,76.92,78.45Z"/><path class="cls-12" d="M92.74,73.4c1.71-1.28,3.73.61,4.15-1.28a1.25,1.25,0,0,0-1.32-1.48c-1.06.07-1.93,1-3,1.86-1.88,1.55-8,5.7-13.3,6.07C82.83,78.83,87.24,77.51,92.74,73.4Z"/><path class="cls-10" d="M76.37,57.55c-8.8,2.37-13.11,9.71-10.32,15.62,3.33,7,24.57,8.3,27-.68"/><path class="cls-4" d="M145.81,46.73c21.88,2.65,32.12-20.95,31.13-22-1.16-1.29-4.33-1.37-7.26-3-12.46-5.93-27.55-5.18-35.22,8.9"/><path class="cls-5" d="M139.37,37.57c7.14-11.94,19.47-12.46,31.31-9.47C164.63,38.26,151.71,50.06,139.37,37.57Z"/><path class="cls-2" d="M118.29,14.75c.67,2.82-6.63,5.22-10.77,6.92S93.94,30.27,93,34.29c-1.6-2.73-1.16-10.5,2.48-14.52,0,0-2.91-1.2-5.13,2.65,1.17-5.6,5-11,11-10.06,0,0-4.54-2.53-7.2-1.28,3.19-3.16,13.85-5,20.12-1.85"/><path class="cls-13" d="M85.28,69.56c-1.41-2-5.63,3-4.4,4C82.38,74.9,87.19,72.26,85.28,69.56Z"/><path class="cls-14" d="M92.32,72.1c-1.57-2.44-4.65-.51-5.51,1.22,1.57-2.11,4.87-1.56,5.16-.6"/><path class="cls-6" d="M67.56,275.17c-4.13.07-9,7.74-5.37,11.4,1.11.56,3.64-2.48,3.64-2.48s-2.4,3.79-1.5,4.39c4.24,2.78,19.91,1.21,16.24-12.11"/><path class="cls-7" d="M112.43,208.34c1.21,5.09-11,28.16-15.61,33.32C93,246,96,248.11,92.71,251.38s-8.28,18.92-7.93,21.88-8.63,12.12-17.19,4.37c-1.78-1.6,1.17-3.6,5.73-12s8-14.38,8-17.91,1.42-5.65,3.73-8.35-1.21-16.06,8.5-38.67"/><path class="cls-5" d="M94.69,200.7c.23,5.93,9,13.74,11.24,15.74s0,11-3.47,16.68c5.89-9.26,12.19-25.69,11.83-30.29"/><path class="cls-4" d="M117,140.3c-.46,15,14.06,33.41,32.9,33.93s27.9,11.25,28.25,25.69-25.8,21.52-59.84,15.71C91.94,211.13,66,182.5,90.87,143.7"/><path class="cls-6" d="M114.27,291.2c-3.45,1.65-4.64,10-.2,11.68,1.15.06,2.13-3.49,2.13-3.49s-.83,4.11.41,4.29c6.18.9,17.28-6.56,9.11-16.42"/><path class="cls-4" d="M132.2,214.15c2.6,4.09-2,30.12-4.41,34.94s1.67,6.55-.21,10.41-.9,21.18.52,23.55-2.69,13.5-12.86,10.23c-2.12-.69-.38-3.49.28-12.33s2-18.09,1-21.2-.47-5.38.74-8.44-10.32-28.63-4.22-41.08"/><path class="cls-6" d="M184.72,276.38c-3.46,2-4,10.69.68,12.13,1.2,0,1.95-3.78,1.95-3.78s-.34,4.19.75,4.39c3.39.63,17.4-8.11,8.19-17.69"/><path class="cls-4" d="M150.49,203.65c6.06,28.9,13.55,26,22.61,32.87,7.11,5.37,10.62,29.43,10.62,41.58,2.23,2.46,9.67-.87,11.09-3.18s2.92-5.66-.36-9.76-8.6-27.81-7.74-33.39-3.56-6.5-7.76-10.67c-2.8-2.79,2-17-2.22-28.68"/><path class="cls-8" d="M122.31,164.35c-6-.25-10.22,11.28-2.07,16.75s18.39-.85,17.36-4.5S129.41,164.64,122.31,164.35Z"/><path class="cls-8" d="M152.85,176.52c-4.76.82-5.36,12.87-1.56,15.15s15.36-7.74,15.38-11.07S161.25,175.07,152.85,176.52Z"/><path class="cls-8" d="M143.52,180.63c-3.31-1.54-13.32,3.88-11,10.12s13.53,3.05,14.81,1.47S146.63,182.07,143.52,180.63Z"/><path class="cls-8" d="M121.52,159.73c1.31-3.28-6.18-14.55-9.53-13.88s-8.52,13.21-5.35,16.22S120.18,163.07,121.52,159.73Z"/><path class="cls-8" d="M120.15,133.46c.56-5.41-3.1-11.25-7-10.36s-9.88,13.82-5.74,16.31,11.19-1.18,11.19-1.18Z"/><path class="cls-15" d="M113.66,108.48c6-2.31,4.34,9.34.08,10.36S104,112.23,113.66,108.48Z"/><path class="cls-15" d="M105.23,144.7c1.08-4.07-8.62-8.31-10.67-1s.61,10.34,3.23,9.6S104.39,147.89,105.23,144.7Z"/><path class="cls-8" d="M111.17,166.66c1.94,1.71.35,10.34-4.25,11.07s-11.17-5.86-8.75-8.87S108.87,164.65,111.17,166.66Z"/><path class="cls-8" d="M109.71,180.13c-3.46,1.2-6.33,7.36-3.25,9.46s10.53.45,10.86-3.9S114.07,178.63,109.71,180.13Z"/><path class="cls-8" d="M124.05,188.62c-2.9-.2-10.81,6.18-6.86,9.73s8.86,2.76,10.88.66S127.87,188.88,124.05,188.62Z"/><path class="cls-8" d="M171.86,186.6c-3.19-4-12,.85-5.44,6.43S178.32,194.82,171.86,186.6Z"/><path class="cls-8" d="M158.76,193c2.68.47,8.58,5.58,5.29,8.69s-11.09,3.26-12.89-1S153.16,192,158.76,193Z"/><path class="cls-8" d="M142.8,196.73c-3.94-2.76-9.42,5.51-3.32,8S148.8,200.93,142.8,196.73Z"/><path class="cls-8" d="M169.42,200.7c-3.08,1-7.69,9.85-5.37,13.79s9.34,6.65,11.72,5.65a3.43,3.43,0,0,0,2.25-3.23l.54-11.68C177.17,202.73,172.46,199.67,169.42,200.7Z"/><path class="cls-15" d="M166.07,220.35c-2.17,1.34,1.52,9.26,6.4,9.4,4.29.12,5.89-3.81,4.9-5.81S168.17,219.05,166.07,220.35Z"/><path class="cls-8" d="M183.58,228.85c-2-1.95-6.21,5.9-1,8.1S188,233.05,183.58,228.85Z"/><path class="cls-8" d="M183.48,242.38c-2,1-2.78,5.58-.74,7.78s5.88,3.49,7,1.89l-1.23-5.3C187.28,244.66,185.47,241.36,183.48,242.38Z"/><path class="cls-15" d="M186,258.16c-2.12-1.39-3.4,5.26-1,5.58S189,260.17,186,258.16Z"/><path class="cls-15" d="M189.75,272.73c2.93,0,.31-3.07-1.27-3.43C185.78,268.67,185.92,272.68,189.75,272.73Z"/><path class="cls-8" d="M124.63,204c-4.54.37-4.21,8.25-1.57,10.81s9.15.32,9.33-3.7S128.28,203.71,124.63,204Z"/><path class="cls-15" d="M115.48,213.63c4-1.08,6.67,5.48,6.8,9.42a5.56,5.56,0,0,1-7.13,5.66C111.46,227.63,110.79,214.89,115.48,213.63Z"/><path class="cls-8" d="M119.75,229.74c-1.46,3.9,3.11,10.37,4.89,10.17s3.48-5.54,3.28-8.58S120.51,227.69,119.75,229.74Z"/><path class="cls-15" d="M118.89,242.05c3.11-1.49,4.07,4.65,1.57,5.46S115.23,243.79,118.89,242.05Z"/><path class="cls-8" d="M123.55,253.52a3.2,3.2,0,0,0-3.12,3.77c.53,2.55,2.27,3.2,3.12,3S125.71,253.75,123.55,253.52Z"/><path class="cls-15" d="M119,265.91c1.24-.5,2.4,1.38,1.16,3.35S116.17,267.05,119,265.91Z"/><path class="cls-15" d="M89,156.71c3-.1,5.08,8,4,9.66s-7.48,2.88-8.87,1.87S85.05,156.86,89,156.71Z"/><path class="cls-15" d="M89.79,178.12c-2.5-.05-3.79,7.51,0,8.07S99.43,178.3,89.79,178.12Z"/><path class="cls-15" d="M104.5,194.1c-4.41-3.49-6.27,4.82-2.87,7.3S110.72,199,104.5,194.1Z"/><path class="cls-15" d="M109.25,206.43c3-2.46,6.45,1.53,2.92,4S106.87,208.39,109.25,206.43Z"/><path class="cls-15" d="M92,192.42c-3.09-.28-2.83,3.2,0,4.41S96.38,192.83,92,192.42Z"/><path class="cls-15" d="M90.05,211.14c3.59-2,7.92,3.87,6.27,8.88s-6.89,7.41-9.29,4.87A108.82,108.82,0,0,1,90.05,211.14Z"/><path class="cls-15" d="M95.05,227.37c1.32-.53,4.88,2.64,4.12,5.75s-4.8,6.63-7.32,5.73S90.77,229.11,95.05,227.37Z"/><path class="cls-15" d="M86.13,239.17c2-.56,3,2.68,1.25,5.09s-4.71,1.19-4.42-.68S84.5,239.64,86.13,239.17Z"/><path class="cls-15" d="M86.13,252.05c1.49-.44,3.3,2,.9,3.09S84.65,252.5,86.13,252.05Z"/><path class="cls-8" d="M129.72,110.83c.25-3.87-3.66-5-6.43-4.39s-6.51,12.43-4.48,14.55,5.59,1.75,5.59,1.75Z"/><path class="cls-15" d="M124.78,92.33c1.75.11,4.83,6.49,1.84,8.94s-6.84,1.32-7.41-1.13S119.27,92,124.78,92.33Z"/><path class="cls-8" d="M139.58,86.44c.39-2.7-6.36-4.34-8.38-3.25s-2.36,13.62-.33,15.42a3.68,3.68,0,0,0,4,.81S139.11,89.69,139.58,86.44Z"/><path class="cls-15" d="M103.35,126.24c-1.52-3.22-9.25,5.8-6.26,8.62S105.45,130.65,103.35,126.24Z"/><path class="cls-8" d="M120.72,70.53c-4.45-1-7.33,8.12.16,7.46S129.2,72.46,120.72,70.53Z"/><path class="cls-8" d="M126.79,21.05c-5.05-.05-3.52,5.35-.05,6.91S133.92,21.12,126.79,21.05Z"/><path class="cls-15" d="M89.52,32.93c-2.74-1.21-7.37,5.64-3.66,6.79S94.73,35.22,89.52,32.93Z"/><path class="cls-16" d="M167.27,154c11.13-2.13,26.8,6.59,19,19.48-6.7,4.42-17.2-.63-17.56-13.6a9,9,0,0,1,4.36,5.24C172.29,160.35,170.1,157.44,167.27,154Z"/><circle class="cls-17" cx="112.18" cy="51.33" r="9.46"/><path class="cls-18" d="M113.4,60.8a9.58,9.58,0,0,1-3.73-.19,10.47,10.47,0,0,1-7.81-8,10.36,10.36,0,0,1,4.75-11,10.42,10.42,0,0,1,8.5-1.09,10.45,10.45,0,0,1,3.8,2.08A10.57,10.57,0,0,1,122.5,50a10.43,10.43,0,0,1-9.1,10.8Zm0-.19a9.35,9.35,0,1,0-6.9-1.9A9.39,9.39,0,0,0,113.38,60.61Z"/><circle class="cls-19" cx="113.71" cy="49.94" r="6.7"/><circle class="cls-17" cx="117.96" cy="47.73" r="2.05"/></svg>