<svg id="Layer_1" data-name="Layer 1" xmlns="http://www.w3.org/2000/svg" viewBox="0 0 110 60"><defs><style>.cls-1{fill:#6baa11;}.cls-2{fill:#cecece;}.cls-3{fill:#fff;}.cls-4{fill:#195102;}.cls-5{fill:#00a4ff;}.cls-6{fill:#0456ff;}.cls-7{fill:#66930f;}</style></defs><path class="cls-1" d="M103,23.54c5.66,15.38,3.78,30.23-4.21,33.17s-19-7.14-24.71-22.52S70.3,4,78.28,1,97.33,8.17,103,23.54Z"/><path class="cls-2" d="M102.36,28.49c4.82,13.08,3.22,25.72-3.58,28.22s-16.21-6.08-21-19.16S74.55,11.84,81.34,9.34,97.55,15.41,102.36,28.49Z"/><path class="cls-3" d="M99,45.48a9.06,9.06,0,0,0,5.84-7.08,45.88,45.88,0,0,0-2.47-9.91c-4.81-13.08-14.22-21.65-21-19.15-6.55,2.41-8.26,14.23-4.06,26.79C82.48,43.78,88.31,49.49,99,45.48Z"/><path class="cls-4" d="M96.3,57.45c-6.69,0-14.61-8.33-18.83-19.79-4.86-13.22-3.18-26,3.76-28.61a7.51,7.51,0,0,1,2.59-.45c6.69,0,14.61,8.32,18.83,19.79,4.87,13.22,3.18,26.05-3.76,28.6A7.51,7.51,0,0,1,96.3,57.45ZM83.82,9.21a6.9,6.9,0,0,0-2.37.41C74.82,12.06,73.29,24.55,78,37.45,82.18,48.68,89.86,56.84,96.3,56.84a6.78,6.78,0,0,0,2.38-.42c6.62-2.44,8.15-14.92,3.4-27.82C97.94,17.36,90.26,9.21,83.82,9.21Z"/><path class="cls-1" d="M30.83,36.18C26.45,50.81,17.35,61,10.52,59S1.69,43.39,6.07,28.77,19.54,4,26.38,6,35.21,21.56,30.83,36.18Z"/><path class="cls-2" d="M27.74,39.64C24,52.05,16.31,60.69,10.52,59S3,45.76,6.74,33.35,18.17,12.31,24,14,31.46,27.24,27.74,39.64Z"/><path class="cls-3" d="M24,14C18.17,12.31,10.46,21,6.74,33.35a48.28,48.28,0,0,0-1.48,6.59,13.68,13.68,0,0,0,2.65,8.41c4.81,6.4,10.79,4,15.15,1.95a45.88,45.88,0,0,0,4.68-10.66C31.46,27.24,29.77,15.78,24,14Z"/><path class="cls-4" d="M12.05,59.48a5.82,5.82,0,0,1-1.62-.23c-2.93-.88-4.94-4.09-5.67-9A40.47,40.47,0,0,1,6.45,33.27C9.82,22,16.69,13.52,22.43,13.52a5.94,5.94,0,0,1,1.63.23c5.94,1.78,7.73,13.44,4,26C24.66,51,17.79,59.48,12.05,59.48ZM22.43,14.12C17,14.12,10.33,22.43,7,33.44A39.92,39.92,0,0,0,5.36,50.11c.7,4.71,2.56,7.75,5.24,8.56a5.4,5.4,0,0,0,1.45.2c5.48,0,12.1-8.3,15.4-19.31C31.11,27.33,29.51,16,23.88,14.33A5,5,0,0,0,22.43,14.12Z"/><path class="cls-5" d="M24.48,40.68C22.85,47.88,18.29,53,14.29,52.07S8.36,44.6,10,37.41,16.17,25.12,20.18,26,26.11,33.49,24.48,40.68Z"/><path class="cls-6" d="M15.22,52.61a5.15,5.15,0,0,1-1-.11c-4.23-1-6.31-7.77-4.63-15.19,1.52-6.74,5.68-11.83,9.68-11.83a4.46,4.46,0,0,1,1,.12c4.23.95,6.31,7.76,4.64,15.18C23.38,47.52,19.22,52.61,15.22,52.61Zm4-26.25c-3.6,0-7.39,4.79-8.83,11.15-1.57,6.94.21,13.28,4,14.13a3.84,3.84,0,0,0,.83.09c3.6,0,7.4-4.79,8.83-11.14,1.57-7-.21-13.29-4-14.14A4,4,0,0,0,19.24,26.36Z"/><path d="M23.36,41.79c-.92,4.44-4.14,7.53-7.18,6.9S11.4,44,12.31,39.51s4.13-7.53,7.18-6.9S24.27,37.35,23.36,41.79Z"/><path class="cls-3" d="M21.21,33.57A2.63,2.63,0,1,1,18.58,31,2.63,2.63,0,0,1,21.21,33.57Z"/><path class="cls-5" d="M98.64,32.23c2.49,6.86,1.43,13.54-2.39,14.93s-8.93-3-11.42-9.9S83.4,23.73,87.21,22.34,96.14,25.38,98.64,32.23Z"/><path class="cls-6" d="M94.78,47.84c-3.8,0-8.16-4.38-10.36-10.43a20,20,0,0,1-1.2-9.72c.48-3,1.85-5,3.84-5.75a4.69,4.69,0,0,1,1.62-.29c3.8,0,8.16,4.39,10.36,10.43a20,20,0,0,1,1.2,9.73c-.48,3-1.84,5-3.84,5.75A4.64,4.64,0,0,1,94.78,47.84Zm-6.1-25.32a3.9,3.9,0,0,0-1.32.23c-1.69.61-2.85,2.42-3.28,5.07a19.16,19.16,0,0,0,1.15,9.3c2.08,5.71,6.1,9.86,9.55,9.86a3.86,3.86,0,0,0,1.32-.23c1.69-.62,2.86-2.42,3.28-5.08a19.14,19.14,0,0,0-1.15-9.29C96.15,26.67,92.13,22.52,88.68,22.52Z"/><path d="M87.55,39.48c1.2,4.32,4.58,7.16,7.54,6.33s4.41-5,3.21-9.31-4.57-7.16-7.54-6.33S86.36,35.16,87.55,39.48Z"/><path class="cls-3" d="M89.13,31.23a2.6,2.6,0,1,0,2.42-2.77A2.6,2.6,0,0,0,89.13,31.23Z"/><path class="cls-7" d="M102.36,28.49c2.66,8.21-.12,12.73-6.91,15.23s-14.81,1-17.69-6.17c-4.82-13.08-3.21-25.71,3.58-28.21S97.55,15.41,102.36,28.49Z"/><path class="cls-7" d="M27.74,39.64c-3.08,8-8.45,8.37-14.25,6.64S5.06,39.57,6.74,33.35C10.46,21,18.17,12.31,24,14S31.46,27.24,27.74,39.64Z"/></svg>