<svg id="Layer_1" data-name="Layer 1" xmlns="http://www.w3.org/2000/svg" viewBox="0 0 512 560"><defs><style>.cls-1,.cls-2{fill:#f9dad2;}.cls-1{stroke:#4c2606;}.cls-1,.cls-13,.cls-16,.cls-5,.cls-8,.cls-9{stroke-miterlimit:10;}.cls-3{fill:#4c2606;}.cls-4{fill:#323232;opacity:0.4;}.cls-10,.cls-5{fill:#b28e7f;}.cls-13,.cls-16,.cls-5,.cls-8{stroke:#3a2114;}.cls-6{fill:#e2b2aa;}.cls-7{fill:#1e130b;}.cls-8{fill:none;}.cls-9{fill:#f4efed;stroke:#7f604f;}.cls-11{fill:#3a2114;}.cls-12{fill:#eadcd3;}.cls-13{fill:#e0beb1;}.cls-14{fill:#b59374;}.cls-15{fill:#f58778;}.cls-16{fill:#634439;}.cls-17{fill:#d1aa9d;}.cls-18{fill:#7a2f2b;}.cls-19{fill:#f9f6f2;}.cls-20{fill:#8c574b;}</style></defs><path class="cls-1" d="M398.41,258.92s-.9,6.47-4,10-11.65,18.42-3.88,28.68,23.3,1.3,29.48-4.08,10.36-13.25,5-14c0,0,5.48-4.79,3.88-10a2.56,2.56,0,0,0-3.38-1.5s3.28-5.08.2-7.47c0,0-2.69-1.79-5.58,1.5a2,2,0,0,0-1.39-3c-2.49-.7-4.29,1.29-7.77,5a65.35,65.35,0,0,1-7.37,6.57l-2.1-.1s-.09-1.81,2-4.48c1.79-2.29,1.19-8.37-2.59-8.57A1.91,1.91,0,0,0,398.41,258.92Z"/><path class="cls-2" d="M401.59,269.77a4.6,4.6,0,0,0,.3,2.89c.7,1.3,3,6.68.8,10.16"/><path class="cls-3" d="M402.08,269.9a4.67,4.67,0,0,0-.13,1.5,3.6,3.6,0,0,0,.15.74,3.45,3.45,0,0,0,.14.34l.18.4a17.56,17.56,0,0,1,1,3.3,12.69,12.69,0,0,1,.27,3.42,6.64,6.64,0,0,1-1,3.22,6.65,6.65,0,0,0,.79-3.23,12.2,12.2,0,0,0-.5-3.29,16.59,16.59,0,0,0-1.23-3.09l-.2-.36c-.07-.14-.15-.28-.21-.43a4.16,4.16,0,0,1-.25-.9,5.35,5.35,0,0,1,0-1.87Z"/><path class="cls-2" d="M406.77,272s6.48,8.16,10.06,15.83"/><path class="cls-3" d="M406.77,272a45.87,45.87,0,0,1,5.86,7.39,37.57,37.57,0,0,1,4.2,8.44c-1.69-2.66-3.34-5.29-5-7.9S408.38,274.68,406.77,272Z"/><path class="cls-1" d="M420.52,261S416.14,269.48,409,275"/><path class="cls-1" d="M426,267.08s-8.17,10.66-13.15,13.75"/><path class="cls-1" d="M427.49,276.75s-7.17,6.77-11.25,9.76"/><path class="cls-1" d="M194.73,418.87s7.57-4.6,22.34-4.77a65.75,65.75,0,0,1,6.21,8.24c2.24,3.77,2.32,12.94,3.37,16.19s-1.09,5.17-4.61,2.9,0-9.41-5.91-9.09c0,0-2.12,8.87,1.42,16,0,0,2.53,3.45.78,4.63,0,0-1.19.81-3-.41,0,0,.36,1.93-2.31,1.69a9.85,9.85,0,0,1-5-2.4s-1.83,2.15-5.21-1.87a27.83,27.83,0,0,1-7-14.72C194.58,428.19,195.21,421.08,194.73,418.87Z"/><path class="cls-2" d="M217.13,453.06s-1.27.88-5-4-4.82-8.78-4.73-13.12"/><path class="cls-3" d="M217.41,453.48a.93.93,0,0,1-.61.13,1.84,1.84,0,0,1-.43-.07,2.81,2.81,0,0,1-.7-.32,6,6,0,0,1-1.12-.84,16.77,16.77,0,0,1-1.81-2,30.53,30.53,0,0,1-3-4.38,19,19,0,0,1-1.94-4.9,18.67,18.67,0,0,1-.46-5.21,18.6,18.6,0,0,0,.7,5.15,19,19,0,0,0,2.13,4.71,29.71,29.71,0,0,0,3.09,4.14,16.18,16.18,0,0,0,1.81,1.8,5.7,5.7,0,0,0,1,.68,1.87,1.87,0,0,0,.5.2l.21,0s.15-.05,0,0Z"/><path class="cls-2" d="M210.23,453.51s-6.71-3.33-9.42-17.4"/><path class="cls-3" d="M210,454a10.61,10.61,0,0,1-2.08-1.68,18.51,18.51,0,0,1-1.69-2,24.71,24.71,0,0,1-2.57-4.45,35.65,35.65,0,0,1-1.75-4.79l-.62-2.47-.49-2.49.61,2.46.74,2.42a34.63,34.63,0,0,0,2,4.65,23.8,23.8,0,0,0,2.71,4.21,19.33,19.33,0,0,0,1.7,1.8,10,10,0,0,0,1.93,1.41Z"/><path class="cls-3" d="M215.18,435.8A18.53,18.53,0,0,1,216,432a11,11,0,0,1,1.74-3.43,10.85,10.85,0,0,0-1.26,3.55,18,18,0,0,0-.29,3.72Z"/><ellipse class="cls-4" cx="294.87" cy="529.34" rx="94.07" ry="24.96"/><path class="cls-5" d="M339,521.3c-1.17.62-2.36,1.2-3.56,1.7a46.72,46.72,0,0,1-10,3,53.38,53.38,0,0,1-10.72.84,52.72,52.72,0,0,1-11.44-1.49,28.82,28.82,0,0,1-10.75-4.76,7.12,7.12,0,0,1-2.46-3.17c-2.23-7.27,3.17-10.44,2.8-34.86a67.18,67.18,0,0,0-14.91-40.64l40.64-27.59s10.07,29.45,5.41,55.18,3.17,30.57,3.17,30.57A51.51,51.51,0,0,1,338,511C342.79,517.67,339,521.3,339,521.3Z"/><path class="cls-1" d="M336.49,285.69c-3.1,2.74-4.54,4.93-8.67,7-25.17,12.58-73,8.67-102.06-22.65-18.22-19.63-26-47.26-16.57-72.45,5.63-15,17.38-29.17,36.7-40.23,51.73-29.65,82.77,2.23,82.77,2.23s20.69-1.68,19.85,53.68c0,0-1.4,9.23,4.2,24.33C357.38,250.21,352.29,271.71,336.49,285.69Z"/><path class="cls-6" d="M338.64,285.41a49.91,49.91,0,0,1-10.82,7.27c-25.17,12.58-73,8.67-102.06-22.65-18.22-19.63-26-47.26-16.57-72.45l27.1-28.4c-.08.22,29.37-15.11,26.47-4.48S224.63,212,224.82,221.38c.34,16.44,5.2,35.95,22.1,51.63C273.68,297.86,317.24,290.91,338.64,285.41Z"/><path class="cls-7" d="M302.34,160.59a30.8,30.8,0,0,1,27.12,2.8c17.9,10.9,17.62,26,19.24,36.17,0,0,6-29.45-13.8-50.33s-107-41.75-132,41.39c0,0,12.09,37.17,15.81,50.22,0,0-2.78-24.82,13.71-44.74,4.14-5,14.61-7.85,26.84-15.65,16.22-10.35,23.13-18.13,32.72-19.58Z"/><path class="cls-5" d="M314.93,337.72l-.21,0c14.28,46.6,7.38,66.36,7.38,66.36l-33.38,41c-1.92,2.09-.15.36-3,.66h0c-1.69.18-10.81.35-10.81.35l7.87.08L271.58,490c.63.53-2.43.3-1.95.83,6.17,6.94-5,.84-5,.84-.81,1.4,2.09,4.25.56,5.32-2.76,1.93-1.9,9.41-6.15,10.34-3.94.87-4.4-42.39-14.74-66.44-12.66-29.47-7.07-31.42-4.27-54.63,1.73-14.41,3.18-22.35,1.63-30v0c-1-4.64-1.82-7.36-1.82-7.36l-.25.1c-20.5,8.47-27.16,30.94-27.16,30.94l7.27,34.67c-13.69.28-27.12,5-27.12,5l-7.27-28.8c-3.36-15.94,7.27-37.46,27.68-58.43s34.77-26.2,34.77-26.2-.37,3,63.94,3c54,0,70.73-22.45,74.72-29.67a1,1,0,0,1,1.83.15A64.64,64.64,0,0,0,404.76,305C367.33,343.49,318.47,338.17,314.93,337.72Z"/><path class="cls-5" d="M322.09,403.31s-2.61,30.58-33.37,41.76c0,0-19.57,5.87-35.79-6.43"/><line class="cls-8" x1="316.12" y1="341.05" x2="310.53" y2="325.39"/><path class="cls-5" d="M212.38,379.92s-5.59-6.71-13.7-4.2"/><path class="cls-9" d="M344.68,88.39s7.72-2.25,23.83-10.13S401.68,68,371.9,94.78,336,107.89,336,107.89Z"/><path class="cls-5" d="M294.51,309.91c7.13-3.15,17-5.34,22.65-8.39,16.84-9.13,23-17.79,23-17.79-29.08,18.18-60.11,11.18-85.56-.28s-40.82-39.71-36.91-71.58S252,166.46,252,166.46l22.09-8.66c76.06,2.23,112.72-14.16,112.72-14.16,56.76-33.55,56.48-79.13,50.05-101.5s-31-35.51-49.21-36.35-9.23,4.47-11.19,17.61,8.11,15.38,12.87,9.23S400,28.44,400,28.44c12.86,8.66,21.81,42.5-12.3,57.6S322,77.65,304.05,66.46s-65.43-34.67-109.89-7S164.8,129.1,164.8,129.1s-29.92,0-45.86,41.94,80.5,90.78,80.5,90.78,9.23,29.08,37.75,42.78c0,0,15.69,10.54,27.62,9"/><path class="cls-10" d="M160.05,129.66s13.14-3.08,30.48,9"/><path class="cls-11" d="M159.93,129.17a28.22,28.22,0,0,1,8.26,0,43.19,43.19,0,0,1,7.95,1.89c1.28.46,2.57.91,3.8,1.49s2.47,1.15,3.68,1.76,2.35,1.36,3.53,2,2.25,1.51,3.38,2.26c-1.15-.72-2.29-1.46-3.45-2.15s-2.35-1.34-3.58-1.91-2.43-1.18-3.7-1.65-2.53-.93-3.81-1.36a43.49,43.49,0,0,0-7.89-1.61,27.36,27.36,0,0,0-7.94.22Z"/><path class="cls-10" d="M170.39,129.1s17.9-8.95,28,8.67"/><path class="cls-11" d="M170.17,128.65a26,26,0,0,1,8-2.05,21.36,21.36,0,0,1,8.15.74,18.69,18.69,0,0,1,7.08,4,25.14,25.14,0,0,1,5,6.41,24.66,24.66,0,0,0-5.14-6.22,18.42,18.42,0,0,0-7-3.73,20.64,20.64,0,0,0-7.94-.47,24.85,24.85,0,0,0-7.62,2.2Z"/><path class="cls-10" d="M342.36,86.6s6.15,9.23-1.68,22.09"/><path class="cls-11" d="M342.78,86.32A17,17,0,0,1,344.69,92a21.45,21.45,0,0,1,.1,5.88,24.73,24.73,0,0,1-1.47,5.65c-.31.93-.8,1.78-1.19,2.66s-1,1.69-1.45,2.53c.45-.86.92-1.71,1.34-2.58s.79-1.76,1.06-2.69a24.75,24.75,0,0,0,1.22-5.62,21.35,21.35,0,0,0-.35-5.7,15.88,15.88,0,0,0-2-5.22Z"/><path class="cls-10" d="M358.58,90.23s8.95,5.32,4.47,19.3"/><path class="cls-11" d="M358.83,89.8a12.65,12.65,0,0,1,3.66,4.1,15.27,15.27,0,0,1,1.78,5.1,19.18,19.18,0,0,1,0,5.35c-.1.89-.32,1.75-.48,2.62l-.76,2.56.64-2.58c.11-.88.29-1.75.36-2.62a19.13,19.13,0,0,0-.27-5.24,14.59,14.59,0,0,0-1.93-4.8,11.89,11.89,0,0,0-3.53-3.63Z"/><path class="cls-10" d="M378.71,88.83s6.15.84,7.83,10.91"/><path class="cls-11" d="M378.78,88.34a7.85,7.85,0,0,1,3.32,1.78A11.13,11.13,0,0,1,384.39,93a16,16,0,0,1,1.42,3.3c.16.58.29,1.16.43,1.73l.3,1.76L386.12,98c-.18-.56-.35-1.12-.55-1.68a15.31,15.31,0,0,0-1.6-3.12,10.76,10.76,0,0,0-2.34-2.51,7.17,7.17,0,0,0-3-1.37Z"/><path class="cls-11" d="M302.92,306.32a68.8,68.8,0,0,1-9.79,2.79A85.6,85.6,0,0,1,283,310.49a74.77,74.77,0,0,1-30.28-3.77,71.71,71.71,0,0,1-9.44-4,75,75,0,0,1-8.71-5.31,82.81,82.81,0,0,1-7.84-6.49l.07-.07a79.33,79.33,0,0,0,16.83,11.18,81,81,0,0,0,9.37,3.81,82.36,82.36,0,0,0,9.8,2.52A84.62,84.62,0,0,0,283,309.71,87,87,0,0,0,293,308.59a68.76,68.76,0,0,0,9.84-2.36Z"/><circle class="cls-7" cx="234.01" cy="101.28" r="15.8"/><circle class="cls-12" cx="235.55" cy="91.07" r="4.47"/><ellipse class="cls-7" cx="269.52" cy="66.19" rx="11.46" ry="15.8" transform="translate(117.06 298.09) rotate(-70.48)"/><ellipse class="cls-12" cx="272.27" cy="59.66" rx="2.52" ry="4.47" transform="translate(122.92 295) rotate(-69.96)"/><path class="cls-9" d="M296.78,114.28s-18.17,15.66-4.47,34.95c0,0,58.44,17.06,96.75-21.81,0,0,12.3-11.74-.84-14S365,128.54,296.78,114.28Z"/><path class="cls-13" d="M277,529.24a11.93,11.93,0,0,1-3.56,3.68c-1.23-3.54-4.5-14.82,2.69-16.89C282.27,523,277,529.24,277,529.24Z"/><path class="cls-14" d="M318.54,199.59a47.74,47.74,0,0,0-3.31,8.27,32.08,32.08,0,0,0-1.39,8.64,18.75,18.75,0,0,0,1.65,8.36,19.21,19.21,0,0,0,5.26,6.66l-.45-.18a12.08,12.08,0,0,1,3.29.86,8.22,8.22,0,0,1,2.86,2,5.92,5.92,0,0,1,1.44,3.21,4.19,4.19,0,0,1-1.06,3.42,8.33,8.33,0,0,1-2.75,1.91,20.23,20.23,0,0,1-3,1.09c-2,.59-4.09,1-6.12,1.57l0-.09c2-.69,4-1.21,6-1.89a22.21,22.21,0,0,0,2.91-1.19,7.85,7.85,0,0,0,2.5-1.83,3.46,3.46,0,0,0,.82-2.87,5.22,5.22,0,0,0-1.33-2.76,9,9,0,0,0-5.59-2.47h-.05a18.88,18.88,0,0,1-5.57-7,19.62,19.62,0,0,1-1.63-8.78,31.11,31.11,0,0,1,1.69-8.81,40.63,40.63,0,0,1,3.79-8.13Z"/><path class="cls-15" d="M292.86,249.28a31.23,31.23,0,0,0-3.6,4.36,16.47,16.47,0,0,0-1.33,2.36c-.42.83-.71,1.72-1.14,2.68h-.1a11.51,11.51,0,0,1,.49-2.92,9.86,9.86,0,0,1,1.25-2.67,11.74,11.74,0,0,1,4.38-3.9Z"/><path class="cls-15" d="M333.1,247.54a3.07,3.07,0,0,1,2.19.56,4.2,4.2,0,0,1,1.5,1.83,4.79,4.79,0,0,1,.27,2.3,5,5,0,0,1-.27,1.08,4.74,4.74,0,0,1-.57,1l-.09,0,.13-1c0-.34,0-.67,0-1a5.86,5.86,0,0,0-.42-1.94,4.69,4.69,0,0,0-2.79-2.67Z"/><path class="cls-3" d="M310,263.27c1.45-.26,2.87-.5,4.29-.67s2.81-.37,4.19-.62,2.76-.47,4.1-.8a6.82,6.82,0,0,0,1-.27,7.24,7.24,0,0,0,1-.34,9.1,9.1,0,0,0,1-.37c.31-.16.64-.31,1-.46l.06.07a11.7,11.7,0,0,1-3.78,2.1,22.67,22.67,0,0,1-4.2,1.06,36.75,36.75,0,0,1-4.31.41c-1.45.06-2.89.07-4.34,0Z"/><ellipse class="cls-16" cx="386.59" cy="294.68" rx="3.54" ry="3.68"/><ellipse class="cls-16" cx="201.11" cy="408.76" rx="3.54" ry="3.68"/><path class="cls-17" d="M268,356a25.8,25.8,0,0,1,.7-13.45c1.72-5,5.16-10.45,12-13,14.51-5.47,27.63,6.86,33.8,26.07s16.55,52.38-10.06,74.45-52.7-15.37-42.4-42.16C269.07,369.74,268.89,360.24,268,356Z"/><path class="cls-15" d="M288.78,254.27s9.79,13,24.61,17c12.47,3.38,21.67-22.51,21.67-22.51l-17.34,9.55Z"/><path class="cls-18" d="M288.78,254.27s17.26,14.9,27.68,13.56c7.46-1,17-16.68,17-16.68S313.67,260.56,288.78,254.27Z"/><path class="cls-19" d="M327.72,254.77h0c0,3.26-1.87,6.31-7.69,7.79-9.72,2.47-19.87-1.37-23.84-5.64-1.15-1.23,7.27-.14,7.27-.14S321.09,259.57,327,255Z"/><path class="cls-15" d="M288.78,254.27s34,3.27,45.19-4C334,250.27,321.91,265.45,288.78,254.27Z"/><path class="cls-5" d="M177.63,131.26s-74.94-15.85-105.14,42c0,0-11.18,58.5,118.56,83.48"/><path class="cls-20" d="M186.58,159.47S113.88,139.9,96,179.05c0,0,0,23.49,31.32,32.43,0,0-22.93-6.15-27.4-30.75C99.9,180.73,117.79,145.49,186.58,159.47Z"/><path class="cls-5" d="M205.59,166.19s-33,39.7-6.15,95.63"/><path class="cls-5" d="M287,440.77c.12,1.59.17,3.16.17,4.69v.34A73.85,73.85,0,0,1,277.74,481c-3.63,30.44,5.15,35.93,7.83,39.14a25.34,25.34,0,0,1,1.6,2.16,16.38,16.38,0,0,1,2.86,7.91c.41,2.42,3.91,7.17-4.49,9.68h0a35.6,35.6,0,0,1-6.38,1.18c-1.2.14-2.51.24-3.94.32a82.3,82.3,0,0,1-11.3-.16,65.58,65.58,0,0,1-10.63-1.73c-7.7-1.94-12.81-5-14.27-7.73l0-.05a8.17,8.17,0,0,1,.35-8.06l5.86-9.58s7.36-40.64-3.54-62.45c-6.51-13-6.45-29.31-5.34-40.34h0v0a100.77,100.77,0,0,1,2-12.47"/><path class="cls-13" d="M279.16,541.12c-1.2.14-2.51.24-3.94.32a82.3,82.3,0,0,1-11.3-.16c1-3.8,4.07-13.55,8.6-11.27h0a6.2,6.2,0,0,1,1.85,1.55l.31.36A20.33,20.33,0,0,1,279.16,541.12Z"/><path class="cls-13" d="M285.54,539.93c-.21-1.83-1.75-15.78,1.63-17.59a16.38,16.38,0,0,1,2.86,7.91C290.44,532.67,293.94,537.42,285.54,539.93Z"/><path class="cls-13" d="M253.29,539.55c-7.7-1.94-12.81-5-14.27-7.73l0-.05c1-3.24,3.07-7,7.42-4.69C251.28,529.64,252.81,535.88,253.29,539.55Z"/><path class="cls-13" d="M303.24,525.32a28.82,28.82,0,0,1-10.75-4.76C293.12,514.53,295.45,502.59,303.24,525.32Z"/><path class="cls-13" d="M325.4,526a53.38,53.38,0,0,1-10.72.84C314.9,521.12,316.35,501.06,325.4,526Z"/><path class="cls-13" d="M339,521.3c-1.17.62-2.36,1.2-3.56,1.7-1.8-4.13-4.57-12.2-1-16.38A51.35,51.35,0,0,1,338,511C342.79,517.67,339,521.3,339,521.3Z"/><path class="cls-8" d="M231.88,352.41,251.45,344s22.65-23.2-10.35-33.83"/></svg>