<svg xmlns="http://www.w3.org/2000/svg" xmlns:xlink="http://www.w3.org/1999/xlink" width="256" height="256" viewBox="0 0 256 256">
  <defs>
    <style>
      .cls-1 {
        isolation: isolate;
      }

      .cls-2 {
        opacity: 0.2;
      }

      .cls-3 {
        fill: #52993a;
      }

      .cls-4 {
        fill: #1c0e0d;
        opacity: 0.29;
      }

      .cls-4, .cls-6, .cls-8 {
        mix-blend-mode: multiply;
      }

      .cls-5 {
        fill: #087039;
      }

      .cls-6 {
        fill: url(#linear-gradient);
      }

      .cls-7 {
        fill: #6a9d41;
      }

      .cls-8 {
        fill: url(#linear-gradient-2);
      }

      .cls-14, .cls-9 {
        mix-blend-mode: screen;
      }

      .cls-9 {
        fill: url(#linear-gradient-3);
      }

      .cls-10 {
        fill: #89af35;
      }

      .cls-11 {
        fill: #99ca3c;
      }

      .cls-12 {
        fill: #fff;
      }

      .cls-13 {
        fill: #e6e982;
      }

      .cls-14 {
        fill: url(#linear-gradient-4);
      }

      .cls-15 {
        fill: #756629;
      }

      .cls-16 {
        fill: #400f28;
      }

      .cls-17 {
        fill: #f38183;
      }

      .cls-18 {
        fill: #bf3e3f;
      }

      .cls-19 {
        fill: url(#radial-gradient);
      }

      .cls-20 {
        fill: url(#radial-gradient-2);
      }

      .cls-21 {
        fill: #466d33;
      }
    </style>
    <linearGradient id="linear-gradient" x1="82.19" y1="159.47" x2="41.54" y2="122.79" gradientTransform="translate(7.99 8.49) rotate(0.18)" gradientUnits="userSpaceOnUse">
      <stop offset="0" stop-color="#90ae5c"/>
      <stop offset="0.06" stop-color="#98b565"/>
      <stop offset="0.29" stop-color="#b2ca80"/>
      <stop offset="0.52" stop-color="#c5d993"/>
      <stop offset="0.76" stop-color="#d0e29f"/>
      <stop offset="1" stop-color="#d4e5a3"/>
    </linearGradient>
    <linearGradient id="linear-gradient-2" x1="-5608.19" y1="159.52" x2="-5648.79" y2="122.9" gradientTransform="matrix(-1, 0, 0, 1, -5439.06, -8.42)" xlink:href="#linear-gradient"/>
    <linearGradient id="linear-gradient-3" x1="120.24" y1="95.28" x2="120.09" y2="49.49" gradientTransform="translate(7.99 8.49) rotate(0.18)" gradientUnits="userSpaceOnUse">
      <stop offset="0" stop-color="#fff"/>
      <stop offset="0.1" stop-color="#cfcfcf"/>
      <stop offset="0.23" stop-color="#999"/>
      <stop offset="0.37" stop-color="#6a6a6a"/>
      <stop offset="0.5" stop-color="#444"/>
      <stop offset="0.63" stop-color="#262626"/>
      <stop offset="0.75" stop-color="#111"/>
      <stop offset="0.88" stop-color="#040404"/>
      <stop offset="0.99"/>
    </linearGradient>
    <linearGradient id="linear-gradient-4" x1="120.14" y1="120.75" x2="120.76" y2="75.69" xlink:href="#linear-gradient-3"/>
    <radialGradient id="radial-gradient" cx="2436.92" cy="-45.46" r="6.13" gradientTransform="matrix(0.74, 0, 0, 0.91, -1684.5, 109.71)" gradientUnits="userSpaceOnUse">
      <stop offset="0.33" stop-color="#190c0c"/>
      <stop offset="0.6" stop-color="#37100f"/>
      <stop offset="0.79" stop-color="#481211"/>
      <stop offset="0.8" stop-color="#4a1211"/>
      <stop offset="0.9" stop-color="#5f0e0e"/>
      <stop offset="0.97" stop-color="#660d0d"/>
    </radialGradient>
    <radialGradient id="radial-gradient-2" cx="2426.25" cy="-45.29" r="6.26" xlink:href="#radial-gradient"/>
  </defs>
  <g class="cls-1">
    <g id="Layer_1" data-name="Layer 1">
      <g>
        <g class="cls-2">
          <ellipse cx="128" cy="191.09" rx="91.02" ry="40.44"/>
        </g>
        <g>
          <g>
            <g>
              <path class="cls-3" d="M56.31,172.06c-1.94-3.49-5.07-6.89-8.68-6.53-5,.5-5.15,8-1.84,10.82,3.09,2.63,5.84,1.87,9.93-.13,1.91.12,11.93,2.06,14.07,2.59a89.47,89.47,0,0,0-18.26,2.48c-1.93-2.54-6-4.76-9.07-2-3.2,2.88-2.13,8.84,1.52,10.79,3.47,1.85,7-.53,8.61-3.66,3.28-.74,20.22-1.88,20.22-1.88-10.32,4.59-17.22,7.1-17.22,7.1-3.59-2.18-7.1-1.3-8.75,1.65s-.59,9.63,4.83,9.15c3.33-.3,5-2.76,6-4.72,2.57-1,31.36-14.1,43.14-9.78-5.31-6.49-8.28-9.81-10.81-10.44C83.46,175.86,64.77,172.09,56.31,172.06Z"/>
              <path class="cls-4" d="M55.64,175c-3.48,1.47-12.4,3.53-11.8-6a7.57,7.57,0,0,0,1.95,7.45c3.09,2.63,5.84,1.87,9.93-.13,1.3.08,6.34,1,10.11,1.75,0-.18,6.32,1.25,6.32,1.11A93.38,93.38,0,0,0,55.64,175Z"/>
              <path class="cls-4" d="M56.9,196.46c-1.71,4.19-8.47,7-10.76.91.3,2.74,2,5.38,5.53,5.07,3.33-.3,5-2.76,6-4.72,2.57-1,31.36-14.1,43.14-9.78q-1.66-2-3-3.65C84.14,185.66,70.12,190.82,56.9,196.46Z"/>
              <path class="cls-4" d="M52.31,185.1c-3.38,4.7-10.07,5.61-11.75-1.12a7.07,7.07,0,0,0,3.42,6.1c3.47,1.85,7-.53,8.61-3.66,2.23-.5,16.84-1.92,22.08-2.31A100.82,100.82,0,0,0,52.31,185.1Z"/>
              <path class="cls-5" d="M51.09,202.77a4.83,4.83,0,0,1-4.54-3,7.87,7.87,0,0,1,.08-6.71c1.77-3.16,5.45-3.89,9-1.8.82-.3,6.81-2.54,15.47-6.33-4.35.31-15.54,1.14-18.34,1.72-1.69,3.2-5.34,5.55-8.86,3.67a7.24,7.24,0,0,1-3.54-5.77,6.54,6.54,0,0,1,2-5.56c3.17-2.86,7.32-.63,9.33,1.92l.77-.17a85.91,85.91,0,0,1,14.92-2.2c-3.73-.77-10-1.94-11.55-2.06-4.3,2.1-7.06,2.69-10.13.08a7.9,7.9,0,0,1-2.15-7.38,4.68,4.68,0,0,1,4.11-4c4.37-.44,7.59,4.31,8.84,6.53,8.69.07,27.31,3.86,33.65,5.45,2.52.63,5.29,3.62,10.94,10.52l.71.88-1-.36c-7-2.56-21,.52-41.51,9.17l-1.38.57c-1.54,3-3.57,4.53-6.2,4.77Zm.56-12a5.12,5.12,0,0,0-4.6,2.71,7.11,7.11,0,0,0-.06,6,4.41,4.41,0,0,0,4.66,2.61c3.3-.29,4.92-2.74,5.85-4.56l0-.1.09,0,1.45-.6c19.8-8.33,33.55-11.51,40.91-9.47-5-6.12-7.73-9-10-9.54-6.37-1.59-25.09-5.41-33.69-5.44h-.13l-.08-.14c-1.14-2.06-4.25-6.81-8.44-6.39A4.16,4.16,0,0,0,44,169.39a7.18,7.18,0,0,0,2,6.71c2.91,2.47,5.44,1.91,9.69-.17l0,0h.06c1.89.12,11.93,2.06,14.1,2.6l2.31.57-2.36,0a83.6,83.6,0,0,0-17.3,2.28c-.86.2-.92.21-1,.19l-.08,0-.06-.07c-1.84-2.42-5.77-4.63-8.73-2a5.87,5.87,0,0,0-1.77,5,6.67,6.67,0,0,0,3.24,5.27c3.3,1.76,6.74-.51,8.29-3.55l.06-.11.11,0c3.26-.73,19.57-1.83,20.26-1.88l1.72-.11-1.62.72c-10.21,4.53-17.17,7.08-17.24,7.1l-.09,0-.09-.06A7.61,7.61,0,0,0,51.65,190.75Z"/>
            </g>
            <path class="cls-3" d="M91.41,128.92c-5.53-5.71-12.52-8.91-22.6-8.87a62.19,62.19,0,0,1-11.12-.62c-3.42-.59-10-1.57-12.28,5.61s4.71,16.09,8.5,22.57,7.32,14.54,13.79,21.33c7.37,7.72,17.11,13.44,27,12.39C82.48,161.93,91.41,128.92,91.41,128.92Z"/>
            <path class="cls-6" d="M57.64,132.29c4.76,19.5,20,33.38,25.33,34.85,1.89-10.49.6-8.31.6-8.31C73.58,157.54,63.18,148.33,57.64,132.29Z"/>
            <path class="cls-5" d="M92.33,181.76c-8.19,0-17.1-4.52-24.8-12.59-5-5.22-8.28-11.28-11.18-16.62-.91-1.67-1.77-3.25-2.65-4.76-.67-1.14-1.43-2.34-2.24-3.62-3.69-5.83-8.28-13.08-6.29-19.24,2.44-7.56,9.53-6.33,12.55-5.81a61.83,61.83,0,0,0,11.09.62c9.58,0,16.82,2.8,22.77,8.94l.13.13-.06.2a109,109,0,0,0-2.92,18.88c-.64,9.68-.09,23.31,6.17,33.25l.28.45-.46,0A23.76,23.76,0,0,1,92.33,181.76Zm-38.5-62.44c-3.09,0-6.62,1-8.18,5.84-1.88,5.83,2.42,12.63,6.22,18.63.81,1.28,1.58,2.49,2.25,3.64.88,1.52,1.74,3.1,2.66,4.78,2.88,5.3,6.15,11.32,11.09,16.49,8.2,8.6,17.77,13.08,26.34,12.36-6.09-10.05-6.63-23.58-6-33.24A111,111,0,0,1,91.11,129c-5.75-5.87-12.74-8.63-22-8.66h-.35a61.77,61.77,0,0,1-11.16-.62A22.57,22.57,0,0,0,53.83,119.32Z"/>
            <path class="cls-7" d="M90.28,169.85c-6.87,0-11.56-4.16-17-9.57A53.91,53.91,0,0,1,67,152.63,70,70,0,0,1,62,144a45,45,0,0,1-3.82-11.17c0,.16,4.3,15.88,15.46,27,5.34,5.32,10,9.4,16.65,9.42Z"/>
          </g>
          <g>
            <g>
              <path class="cls-3" d="M202,172.61c1.95-3.48,5.1-6.85,8.71-6.46,5,.54,5.11,8,1.78,10.83-3.1,2.6-5.85,1.83-9.93-.21-1.9.11-11.93,2-14.07,2.49a90.41,90.41,0,0,1,18.24,2.61c1.94-2.52,6.05-4.71,9.08-1.93,3.19,2.91,2.09,8.86-1.57,10.78-3.48,1.83-7-.58-8.59-3.72-3.28-.77-20.22-2-20.22-2,10.3,4.66,17.19,7.23,17.19,7.23,3.6-2.15,7.1-1.26,8.74,1.71s.54,9.63-4.87,9.11c-3.34-.32-5-2.79-6-4.76-2.56-1-31.28-14.33-43.08-10.1,5.34-6.45,8.32-9.75,10.86-10.36C174.82,176.21,193.53,172.58,202,172.61Z"/>
              <path class="cls-4" d="M202.65,175.5c3.46,1.5,12.37,3.63,11.82-5.95a7.53,7.53,0,0,1-2,7.43c-3.1,2.6-5.85,1.83-9.93-.21-1.29.07-6.34,1-10.11,1.68-.05-.18-6.33,1.2-6.33,1.06A94.55,94.55,0,0,1,202.65,175.5Z"/>
              <path class="cls-4" d="M201.27,197c1.69,4.2,8.44,7.09,10.76,1-.32,2.73-2.05,5.36-5.55,5-3.34-.32-5-2.79-6-4.76-2.56-1-31.28-14.33-43.08-10.1q1.66-2,3-3.64C174.09,186,188.08,191.27,201.27,197Z"/>
              <path class="cls-4" d="M205.92,185.68c3.35,4.72,10,5.69,11.75-1a7,7,0,0,1-3.44,6.07c-3.48,1.83-7-.58-8.59-3.72-2.24-.52-16.84-2.05-22.08-2.48A101,101,0,0,1,205.92,185.68Z"/>
              <path class="cls-5" d="M206.46,203.33c-2.63-.25-4.65-1.83-6.18-4.81l-1.38-.58c-20.5-8.81-34.45-12-41.46-9.48l-1,.34.72-.86c5.68-6.87,8.46-9.84,11-10.45,6.35-1.53,25-5.19,33.68-5.19,1.26-2.21,4.5-6.94,8.87-6.46a4.7,4.7,0,0,1,4.09,4,7.85,7.85,0,0,1-2.19,7.37c-3.08,2.59-5.83,2-10.12-.15-1.57.1-7.83,1.23-11.56,2a85.52,85.52,0,0,1,14.9,2.31l.77.18c2-2.54,6.18-4.74,9.34-1.86a6.59,6.59,0,0,1,1.94,5.58,7.25,7.25,0,0,1-3.57,5.74c-3.54,1.86-7.17-.52-8.85-3.73-2.8-.61-14-1.52-18.33-1.87,8.65,3.87,14.62,6.15,15.44,6.46,3.54-2.07,7.22-1.31,9,1.86a7.93,7.93,0,0,1,.05,6.72,4.83,4.83,0,0,1-4.56,2.91A5.83,5.83,0,0,1,206.46,203.33Zm-3.74-10.85-.09.05-.1,0c-.07,0-7-2.63-17.2-7.24l-1.62-.73,1.72.13c.7.05,17,1.27,20.26,2l.11,0,.06.11c1.53,3,4.95,5.35,8.26,3.61a6.62,6.62,0,0,0,3.27-5.25,5.9,5.9,0,0,0-1.74-5c-3-2.69-6.89-.51-8.74,1.89l-.06.08-.08,0c-.09,0-.15,0-1-.2a83.33,83.33,0,0,0-17.28-2.41l-2.36-.06,2.32-.56c2.16-.51,12.22-2.38,14.11-2.49h.06l.05,0c4.24,2.12,6.77,2.69,9.69.25a7.18,7.18,0,0,0,2-6.7,4.16,4.16,0,0,0-3.65-3.57c-4.19-.46-7.32,4.27-8.48,6.32l-.07.14H202c-8.59,0-27.34,3.64-33.71,5.18-2.28.55-5,3.39-10.06,9.47,7.37-2,21.11,1.3,40.86,9.78.7.3,1.2.52,1.45.61l.09,0,0,.1c.92,1.82,2.52,4.29,5.83,4.61a4.39,4.39,0,0,0,4.66-2.58,7.07,7.07,0,0,0,0-6,5.1,5.1,0,0,0-4.58-2.74A7.43,7.43,0,0,0,202.72,192.48Z"/>
            </g>
            <path class="cls-3" d="M167.11,129.2c5.55-5.66,12.57-8.81,22.64-8.7a61.23,61.23,0,0,0,11.13-.53c3.42-.57,10-1.49,12.25,5.71s-4.8,16-8.62,22.5-7.39,14.49-13.9,21.22c-7.41,7.66-17.17,13.31-27.06,12.19C175.86,162.29,167.11,129.2,167.11,129.2Z"/>
            <path class="cls-8" d="M200.86,132.83c-4.86,19.46-20.15,33.22-25.51,34.66-1.83-10.5-.56-8.32-.56-8.32C184.79,158,195.24,148.83,200.86,132.83Z"/>
            <path class="cls-5" d="M163.53,181.9l-.47-.06.29-.44c6.31-9.89,6.93-23.52,6.34-33.21a107.58,107.58,0,0,0-2.83-18.89l-.05-.2.13-.14c6-6.09,13.24-8.88,22.82-8.77a61.5,61.5,0,0,0,11.08-.53c3-.5,10.13-1.67,12.52,5.91,2,6.17-2.67,13.39-6.38,19.19-.82,1.27-1.59,2.47-2.26,3.6-.89,1.51-1.76,3.08-2.67,4.74-2.93,5.32-6.26,11.35-11.27,16.54-7.74,8-16.67,12.43-24.86,12.4A23.59,23.59,0,0,1,163.53,181.9Zm37.38-61.62a61.43,61.43,0,0,1-11.16.54h-.35c-9.21,0-16.22,2.67-22,8.5a110,110,0,0,1,2.8,18.82c.59,9.66,0,23.19-6.16,33.19,8.57.79,18.16-3.62,26.41-12.16,5-5.13,8.26-11.12,11.17-16.41.92-1.66,1.79-3.24,2.68-4.75.68-1.15,1.45-2.35,2.27-3.63,3.83-6,8.17-12.73,6.32-18.58-1.54-4.84-5.06-5.89-8.15-5.9A22.89,22.89,0,0,0,200.91,120.28Z"/>
            <path class="cls-7" d="M168,170.14c6.86,0,11.58-4.07,17-9.43a52.63,52.63,0,0,0,6.35-7.61,68.39,68.39,0,0,0,5-8.62,44.8,44.8,0,0,0,3.87-11.14c0,.16-4.38,15.85-15.59,26.88-5.37,5.28-10,9.32-16.7,9.3Z"/>
          </g>
          <path class="cls-3" d="M173.06,58.29c-.57-1.74,3.92-10.24.54-20.74-3.17-9.88-11.66-14.59-20-12-6.51,2-13.45,10-14.46,11.3s-2.95,3.73-5,2.67c-4-2.11-7.58-2.35-12.32,0-2.16,1-4-1.4-5-2.71s-7.84-9.63-14.4-11.4c-8-2.17-16.72,2-19.94,12.27-3.27,10.48.92,18.6.35,20.33s-9.5,4.73-9.06,17.67,13.43,27.5,17.09,46.93c-2.43,2.42-8.84,15.9-5.5,30.32-1.92,39.51,66.79,68.84,84.61.32,3.42-14.39-2.92-27.92-5.34-30.36C168.45,103.43,181.51,89,182,76S173.62,60,173.06,58.29Z"/>
          <path class="cls-9" d="M90.47,75.05c6.78,9.44,22.27,12.94,37.37,12.89,16.37,0,32.33-4.37,37.54-12.61C149.12,88.66,106.43,88.81,90.47,75.05Z"/>
          <g>
            <ellipse class="cls-10" cx="99.9" cy="49.48" rx="20.98" ry="15.59" transform="translate(50.32 149.33) rotate(-89.94)"/>
            <ellipse class="cls-11" cx="100.29" cy="49.83" rx="13.75" ry="17.05"/>
            <ellipse class="cls-12" cx="99.89" cy="52.04" rx="13.75" ry="16.86"/>
            <path class="cls-7" d="M85.89,52c0-9.46,6.33-17.14,14-17.11s14,7.75,14,17.22-6.33,17.14-14.05,17.11S85.87,61.46,85.89,52Zm.51,0c0,9.13,6,16.57,13.45,16.6s13.51-7.37,13.54-16.49-6-16.57-13.45-16.6S86.43,42.87,86.4,52Z"/>
            <path d="M113.9,52.1c.25-17.75-20.57-25.11-27.22-5.75C94.06,30.81,111.86,35.54,113.9,52.1Z"/>
          </g>
          <ellipse cx="99.88" cy="56.41" rx="6.63" ry="8.13"/>
          <path class="cls-12" d="M93.25,51a2.55,2.55,0,1,0,2.51-3A2.83,2.83,0,0,0,93.25,51Z"/>
          <path class="cls-3" d="M109.29,70.86l-13.07.42L83.88,67.14S93.8,60,109.29,70.86Z"/>
          <path class="cls-7" d="M103.4,67a44,44,0,0,1,5.93,4C94.08,60.72,84,67.07,83.88,67.14a11.88,11.88,0,0,1,6.88-2.6A26.19,26.19,0,0,1,103.4,67Z"/>
          <g>
            <ellipse class="cls-10" cx="155.85" cy="49.69" rx="20.98" ry="15.59" transform="translate(106 205.49) rotate(-89.94)"/>
            <ellipse class="cls-11" cx="155.46" cy="50.04" rx="13.75" ry="17.05"/>
            <ellipse class="cls-12" cx="155.84" cy="52.26" rx="13.75" ry="16.86"/>
            <path class="cls-7" d="M155.8,69.42c-7.72,0-14-7.75-14-17.22s6.33-17.14,14-17.11,14,7.75,14,17.22S163.52,69.45,155.8,69.42Zm.09-33.71c-7.44,0-13.51,7.37-13.54,16.49s6,16.57,13.45,16.6,13.51-7.37,13.54-16.49S163.33,35.74,155.89,35.71Z"/>
            <path d="M141.84,52.2c-.16-17.75,20.7-25,27.24-5.54C161.79,31.06,144,35.67,141.84,52.2Z"/>
          </g>
          <ellipse cx="155.83" cy="56.62" rx="6.63" ry="8.13"/>
          <path class="cls-12" d="M154.81,51.19a2.56,2.56,0,1,1-2.5-3.06A2.82,2.82,0,0,1,154.81,51.19Z"/>
          <path class="cls-3" d="M146.36,71l13.06.52,12.36-4S161.89,60.23,146.36,71Z"/>
          <path class="cls-7" d="M152.26,67.17a44.44,44.44,0,0,0-5.95,4c15.3-10.15,25.37-3.72,25.47-3.65a12,12,0,0,0-6.86-2.65A26.32,26.32,0,0,0,152.26,67.17Z"/>
          <path class="cls-5" d="M127.68,194.57a40,40,0,0,1-8.64-1A45.75,45.75,0,0,1,94.73,179c-6.6-7.63-10-16.89-9.56-26.08C82,139,87.75,125.52,90.64,122.44c-1.84-9.58-6-18.08-9.67-25.58C77.13,89,73.8,82.2,73.58,75.64c-.34-10.07,4.82-14.18,7.59-16.4a5.4,5.4,0,0,0,1.48-1.41A9,9,0,0,0,82.23,55c-.85-3.72-2.27-10,.07-17.46a18.61,18.61,0,0,1,8.3-11A15.61,15.61,0,0,1,102.54,25C109.71,27,117,36.45,117.06,36.54l0,.05c1,1.32,2.7,3.53,4.67,2.58,4.57-2.22,8.19-2.2,12.51,0,1.93,1,3.81-1.43,4.71-2.59.07-.1,7.42-9.18,14.58-11.39,8.61-2.67,17.14,2.46,20.27,12.19,2.44,7.56.87,14-.07,17.85a9,9,0,0,0-.48,2.89,5.62,5.62,0,0,0,1.47,1.42c2.76,2.24,7.91,6.4,7.51,16.46-.25,6.56-3.61,13.33-7.5,21.16-3.71,7.48-7.91,16-9.79,25.51,2.87,3.11,8.6,16.66,5.3,30.55-4.26,16.37-11.56,28.14-21.71,35A36.79,36.79,0,0,1,127.68,194.57ZM98.28,25.08c-7,0-13,4.74-15.5,12.65C80.5,45,81.89,51.15,82.72,54.8c.36,1.6.61,2.66.4,3.26s-.76,1-1.66,1.7c-2.69,2.15-7.7,6.14-7.37,15.85.22,6.41,3.51,13.14,7.32,20.93,3.72,7.59,7.93,16.2,9.76,25.94l0,.19-.13.12c-2,2-8.84,15.22-5.41,30v.11C84.8,171,99.49,188.56,119.13,193c18.4,4.14,41.37-4.17,50.66-39.88,3.5-14.74-3.23-28-5.26-30l-.12-.12,0-.19c1.89-9.73,6.14-18.31,9.89-25.87,3.85-7.76,7.18-14.47,7.43-20.87.38-9.71-4.6-13.74-7.28-15.91-.9-.72-1.5-1.21-1.66-1.71h0c-.2-.6.06-1.67.46-3.3.92-3.77,2.45-10.08.09-17.44-3-9.44-11.32-14.41-19.68-11.82-7,2.18-14.26,11.12-14.33,11.21-.9,1.17-3,3.92-5.28,2.74-4.18-2.18-7.69-2.19-12.12,0-2.3,1.11-4.21-1.39-5.23-2.73l0-.05c-.07-.1-7.25-9.42-14.26-11.32A15.94,15.94,0,0,0,98.28,25.08Z"/>
          <path class="cls-13" d="M165.38,75.33c-8.22,11.24-29.12,13.94-33.54,13.57-1.78-.14-3-.26-3.88-.35h-.14c-.85.08-2.09.19-3.88.32-4.42.33-25.3-2.52-33.47-13.82a8.58,8.58,0,0,1-4.85.77c-.44,6.06,1,16.9,6.07,24.89s14.26,21.56,14.89,32c.83,13.85-7.57,25.34-8.65,36.55a33.71,33.71,0,0,0,1.34,12.46c14.37,21.09,41.68,22.17,55.68.84,1.08-4,2.92-8.34,2.49-13.08-1-11.21-9.25-24.42-8.46-36.61.68-10.39,9.9-23.88,15.06-31.83s6.6-18.79,6.19-24.85A8.61,8.61,0,0,1,165.38,75.33Z"/>
          <path class="cls-14" d="M99.8,89.22c11.88,35.54,43.14,39.52,57.3-1.16C140.51,94.71,99.8,89.22,99.8,89.22Z"/>
          <path class="cls-15" d="M127.82,198.32c-11.19,0-21.64-6-28.75-16.45l0,0v-.06a33.83,33.83,0,0,1-1.35-12.6c.45-4.72,2.17-9.43,4-14.41,2.52-6.92,5.14-14.08,4.65-22.07-.58-9.62-8.52-22-13.78-30.15-.37-.57-.72-1.11-1.05-1.64-4.91-7.67-6.62-18.39-6.12-25.1l0-.33.27,0a8.58,8.58,0,0,0,4.72-.76l.17-.08.11.17c8.22,11.36,29.36,14,33.27,13.71,1.43-.1,2.65-.2,3.64-.3v-.05l.32,0,.33,0v.07c1,.1,2.21.2,3.64.32,3.91.33,25.06-2.16,33.33-13.46l.12-.17.17.08a8.41,8.41,0,0,0,4.71.79l.27,0,0,.33c.45,6.72-1.31,17.43-6.25,25.06l-1.07,1.64c-5.3,8.13-13.31,20.42-13.93,30-.45,6.88,2,14.13,4.42,21.15,1.85,5.42,3.6,10.54,4,15.4.34,3.75-.7,7.17-1.7,10.47-.29.94-.56,1.84-.8,2.73l0,.06,0,0c-6.43,9.81-16.23,15.5-26.86,15.62ZM99.5,181.52c7.11,10.4,17.6,16.29,28.78,16.17,10.47-.11,20.1-5.7,26.44-15.33.24-.89.51-1.78.8-2.71,1-3.23,2-6.58,1.67-10.18-.43-4.78-2.17-9.86-4-15.24-2.42-7.08-4.92-14.4-4.46-21.43.63-9.8,8.7-22.17,14-30.36.38-.57.73-1.12,1.07-1.65,4.79-7.38,6.54-17.68,6.16-24.3a9,9,0,0,1-4.53-.79c-4.48,6-12.36,9.32-18.21,11.07-6.72,2-13.07,2.64-15.43,2.44-1.54-.12-2.85-.24-3.88-.35h-.1c-1,.1-2.34.21-3.88.32-2.36.18-8.7-.5-15.41-2.55-5.84-1.8-13.7-5.19-18.15-11.21a9.08,9.08,0,0,1-4.55.75c-.4,6.61,1.3,16.93,6,24.35.34.52.69,1.07,1,1.64,5.3,8.23,13.3,20.67,13.89,30.48.5,8.15-2.14,15.38-4.7,22.37-1.8,4.94-3.5,9.61-3.94,14.23A33.1,33.1,0,0,0,99.5,181.52Z"/>
          <path class="cls-16" d="M128,87.68h-.14c-7.53.54-25.31-2-32.43-7.47,0,0,7.92,16.65,14.2,23.52,5.37,5.87,10,10.91,18.23,10.64s12.88-4.68,18.28-10.51c6.31-6.82,14.32-23.4,14.32-23.4C153.28,85.92,135.48,88.28,128,87.68Z"/>
          <path class="cls-17" d="M113.36,108c3.9,3.81,8,6.52,14.14,6.32a19.75,19.75,0,0,0,12.9-5.18C132.29,100.48,120.56,102.26,113.36,108Z"/>
          <path class="cls-18" d="M126.8,114.69c-6.2,0-10.2-3.08-13.6-6.41l-.28-.27.3-.23c7.47-6,19.27-7.51,27.35,1.17l.25.26-.27.23a20.13,20.13,0,0,1-13.05,5.24Zm-13-6.63c3.4,3.27,7.43,6.2,13.7,6a19.48,19.48,0,0,0,12.49-4.9C132.21,101.08,121,102.46,113.79,108.06Z"/>
          <path class="cls-15" d="M130.36,87.51c-.8,0-1.53-.05-2.18-.07h-.57c-.65,0-1.38.06-2.17,0-8.2,0-23.38-2.43-29.92-7.5l-.74-.57.44.92c.08.17,8,16.76,14.24,23.58l0,0c5.22,5.71,9.72,10.65,17.63,10.68h.7c8.27-.27,12.85-4.55,18.42-10.57,6.27-6.77,14.28-23.3,14.36-23.47l.45-.92-.75.57C153.75,85.25,138.56,87.54,130.36,87.51ZM146,103.67c-5.5,5.94-10,10.17-18.15,10.44s-12.73-4.73-18-10.53l0,0c-5.35-5.86-12-19-13.73-22.57,6.95,4.76,21.47,7,29.42,7.05.89,0,1.7,0,2.41-.07H128c.71,0,1.52.09,2.41.09,8,0,22.48-2.12,29.45-6.83C158.07,84.71,151.35,97.85,146,103.67Z"/>
          <path class="cls-7" d="M90.39,74.81a8.51,8.51,0,0,1-5.85.53,3.07,3.07,0,0,0,2.19.82,8.34,8.34,0,0,0,3.82-.87,9.13,9.13,0,0,0,1.48-.9,2.45,2.45,0,0,0,1.14-2S92.67,73.68,90.39,74.81Z"/>
          <g>
            <path class="cls-3" d="M101.13,132.9s-10.08.5-15.17,11.41c-4.72,10.13-2.78,31,6.32,46.53-4.69,1.14-12.81,5.29-12.81,5.29a5.58,5.58,0,0,0-7.93,2.1c-1.13,2.51-.41,6.31,2.81,7.55,2.83,1.08,6-1.2,6.15-7,3-.55,13.56-3.59,13.56-3.59-4.29,4.36-10.08,11-10.08,11A7.81,7.81,0,0,0,76,213.63c-.18,5.17,4.51,8.82,8.54,5.32,3.7-3.2,2.57-9,2.36-9.56,1.57-2,9.6-11.41,9.6-11.41a94,94,0,0,0-2.74,14.16c-3.75,1.67-5.2,4.38-5,8,.24,5.45,5.77,6.72,8.65,2.81,2.07-2.83,1.61-7.13.11-10.08,2-8.58,2.62-12.45,3.83-12.88s10.05,3,10.79,3.64c1.34,3.41,3.66,6.09,7.23,5.82,4-.29,5.65-6.21,2.37-9.55-2.27-2.31-6-1.5-7.2-.77-2.85-1.31-10.6-5.89-10.74-7.27s2.43-23.58-4.14-36.08c5.08-4.8,4.42-15.46,4.42-15.46Z"/>
            <path class="cls-4" d="M72.19,203.72c3.57,5.15,8.15.86,8.31-5,2.28-.42,8.94-2.28,12-3.15a11.16,11.16,0,0,0,2.55-1.05c-3,.51-10.33,2.35-15.25,3.41C78.91,205.14,74.11,205.08,72.19,203.72Z"/>
            <path class="cls-4" d="M95,199.76a12.74,12.74,0,0,0,2.09-2.87c-1.42.93-9.25,9.18-11.47,11.71,1.16,8.13-3.85,12-7.93,9.6.34,1.41,3.51,3.69,6.87.75,3.69-3.22,2.57-9,2.36-9.56C88.08,207.92,92.61,202.58,95,199.76Z"/>
            <path class="cls-4" d="M123.22,205c-1.43,3-7.27,4.49-10.41-2.63-4.89-2.14-10.57-4.47-12.12-3.68-1.77.91-2.65,7.15-4.2,14.12,2.18,7.85-.63,12-5,11.7,1.74,1,3.74,1.36,5.89-1.56s1.61-7.13.11-10.08c1.4-5.89,2-11.06,3.85-12.93a52.63,52.63,0,0,1,10.77,3.69c1.34,3.41,3.66,6.09,7.23,5.82,2.35-.17,3.87-2.25,4.09-4.62A1.46,1.46,0,0,1,123.22,205Z"/>
            <path class="cls-4" d="M104.08,140.27c-.42,5.72-3,10.75-6.32,12.57a18.53,18.53,0,0,1,1.9,2.89C101.57,153.5,104.69,149.35,104.08,140.27Z"/>
            <path class="cls-7" d="M93.26,225.48a4.58,4.58,0,0,1-1.74-.35,5.46,5.46,0,0,1-3-5,7.93,7.93,0,0,1,5.06-8.2A97,97,0,0,1,96,199.05c-2,2.3-7.3,8.57-8.76,10.42.34,1.27,1,6.68-2.5,9.73a4.82,4.82,0,0,1-6.06.65,7.09,7.09,0,0,1-2.88-6.23,8,8,0,0,1,8.08-7.77c.64-.73,5.34-6.09,9.2-10.1-2.66.76-9.72,2.74-12.32,3.26-.12,2.85-1,5.09-2.43,6.34a3.91,3.91,0,0,1-4,.73,5.35,5.35,0,0,1-3.17-3.39,6.53,6.53,0,0,1,.22-4.61,5.25,5.25,0,0,1,3.17-2.79,5.83,5.83,0,0,1,5,.5c1-.5,8-4,12.36-5.16a67.56,67.56,0,0,1-8.17-25c-1.05-8.57-.3-16.39,2.06-21.44a21.61,21.61,0,0,1,4.73-6.65,20.09,20.09,0,0,1,3.58-2.71,12.77,12.77,0,0,1,7.08-1.9,19.63,19.63,0,0,0-14.94,11.57c-2.31,4.93-3,12.6-2,21a66.87,66.87,0,0,0,8.3,25.15l.23.39-.39.09c-4.61,1.12-12.68,5.24-12.76,5.28l-.11.06-.11-.07a5.32,5.32,0,0,0-4.72-.52,4.71,4.71,0,0,0-2.86,2.49,5.73,5.73,0,0,0-.19,4.08,4.73,4.73,0,0,0,2.85,3,3.46,3.46,0,0,0,3.59-.64c1.36-1.17,2.15-3.34,2.22-6.11v-.26l.21,0c3-.54,13.43-3.55,13.54-3.58l1-.31-.83.85c-4.23,4.3-10,10.93-10.07,11l-.07.08H84a7.48,7.48,0,0,0-7.68,7.17,6.45,6.45,0,0,0,2.61,5.66,4.42,4.42,0,0,0,5.53-.6c3.47-3,2.49-8.63,2.27-9.17l-.08-.19.12-.16c1.56-2,9.54-11.33,9.62-11.43l.74-.86-.32,1.18a95.92,95.92,0,0,0-2.74,14.1v.19l-.15.07c-3.44,1.54-5,4-4.87,7.64a4.78,4.78,0,0,0,2.67,4.47,4.65,4.65,0,0,0,5.53-1.85c2-2.78,1.47-7,.08-9.71l-.06-.12,0-.13c.45-1.9.83-3.56,1.17-5,1.24-5.43,1.76-7.68,2.84-8.06,1.39-.5,10.36,3.15,11,3.67l0,.05,0,.08c1.08,2.73,3.15,5.93,7,5.64a4.21,4.21,0,0,0,3.68-3.35,5.88,5.88,0,0,0-1.45-5.65c-2.19-2.23-5.79-1.43-6.92-.73l-.1.06-.11,0c-2-.94-10.73-5.78-10.91-7.54,0-.22,0-.76.08-1.94.34-5.8,1.38-23.44-4.18-34l-.12-.24.18-.17c4.91-4.65,4.58-15.12,4.58-15.22a24.7,24.7,0,0,1-.56,8.95A15,15,0,0,1,100,155.8c5.51,10.76,4.47,28.34,4.13,34.14,0,.93-.1,1.65-.08,1.83.1,1,6.94,5.32,10.48,7,1.33-.75,5.07-1.49,7.38.86a6.62,6.62,0,0,1,1.61,6.33,4.75,4.75,0,0,1-4.14,3.77c-4.07.3-6.29-3-7.44-5.91-1.12-.79-9.48-3.92-10.52-3.56-.8.29-1.4,2.9-2.49,7.64-.32,1.43-.69,3-1.14,4.89,1.45,2.92,2,7.36-.19,10.34A5.45,5.45,0,0,1,93.26,225.48Z"/>
          </g>
          <g>
            <path class="cls-3" d="M158.58,133.11s10.08.59,15.11,11.53c4.67,10.16,2.63,31.05-6.56,46.48,4.69,1.17,12.79,5.39,12.79,5.39a5.58,5.58,0,0,1,7.92,2.16c1.12,2.52.38,6.31-2.85,7.53-2.83,1.06-6-1.25-6.11-7.09-3-.57-13.54-3.69-13.54-3.69,4.27,4.39,10,11.09,10,11.09a7.81,7.81,0,0,1,7.9,7.52c.15,5.17-4.56,8.79-8.57,5.26-3.67-3.23-2.52-9.06-2.3-9.57-1.57-2.05-9.55-11.49-9.55-11.49a94.19,94.19,0,0,1,2.67,14.18c3.74,1.7,5.18,4.41,5,8-.27,5.45-5.81,6.67-8.66,2.74-2.07-2.84-1.58-7.14-.06-10.08-2-8.59-2.56-12.46-3.77-12.9s-10.06,3-10.81,3.55c-1.36,3.4-3.68,6.06-7.26,5.77-4-.33-5.61-6.26-2.32-9.57,2.28-2.3,6-1.45,7.2-.71,2.86-1.29,10.64-5.81,10.79-7.2s-2.32-23.6,4.32-36c-5.05-4.84-4.34-15.5-4.34-15.5Z"/>
            <path class="cls-4" d="M187.16,204.15c-3.6,5.13-8.15.8-8.28-5-2.28-.44-8.93-2.35-12-3.23a11.28,11.28,0,0,1-2.55-1.08c3.05.53,10.32,2.43,15.23,3.53C180.44,205.52,185.24,205.5,187.16,204.15Z"/>
            <path class="cls-4" d="M164.35,200a12.63,12.63,0,0,1-2.07-2.89c1.41,1,9.2,9.26,11.41,11.8-1.21,8.13,3.79,12,7.87,9.66-.33,1.41-3.52,3.67-6.87.7-3.67-3.24-2.52-9.06-2.3-9.57C171.25,208.23,166.75,202.86,164.35,200Z"/>
            <path class="cls-4" d="M136.12,205c1.42,3,7.25,4.55,10.43-2.56,4.91-2.1,10.59-4.39,12.14-3.58,1.77.92,2.61,7.17,4.13,14.15-2.23,7.83.57,12,4.91,11.73-1.74,1-3.75,1.34-5.88-1.6s-1.58-7.14-.06-10.08c-1.38-5.89-2-11.07-3.79-13a53.56,53.56,0,0,0-10.79,3.61c-1.36,3.4-3.68,6.06-7.26,5.77-2.34-.19-3.86-2.28-4.07-4.65Z"/>
            <path class="cls-4" d="M155.6,140.46c.39,5.73,2.91,10.77,6.25,12.62a17.94,17.94,0,0,0-1.91,2.88C158,153.71,154.94,149.53,155.6,140.46Z"/>
            <path class="cls-7" d="M166,225.76a4.39,4.39,0,0,0,1.73-.35,5.39,5.39,0,0,0,3-5c.2-3.86-1.45-6.56-5-8.24a97.68,97.68,0,0,0-2.37-12.87c2,2.31,7.27,8.62,8.71,10.48-.34,1.27-1.06,6.67,2.45,9.75a4.83,4.83,0,0,0,6.06.69,7.07,7.07,0,0,0,2.92-6.21,8.07,8.07,0,0,0-8.05-7.82c-.64-.74-5.31-6.14-9.15-10.17,2.66.77,9.71,2.81,12.31,3.35.11,2.85,1,5.1,2.39,6.36a3.92,3.92,0,0,0,4,.75,5.27,5.27,0,0,0,3.18-3.36,6.47,6.47,0,0,0-.19-4.61,5.28,5.28,0,0,0-3.15-2.82,5.85,5.85,0,0,0-5,.47c-1-.5-7.94-4-12.33-5.25a67.28,67.28,0,0,0,8.29-25c1.1-8.56.39-16.39-1.94-21.46a21.68,21.68,0,0,0-4.7-6.68,20,20,0,0,0-3.56-2.73,12.8,12.8,0,0,0-7.08-2,19.74,19.74,0,0,1,14.89,11.69c2.27,4.95,3,12.62,1.89,21.06a66.67,66.67,0,0,1-8.43,25.08l-.24.39.39.1c4.61,1.15,12.66,5.33,12.74,5.37l.11.06.11-.07a5.35,5.35,0,0,1,4.72-.49,4.74,4.74,0,0,1,2.85,2.52,5.78,5.78,0,0,1,.17,4.08,4.75,4.75,0,0,1-2.87,3,3.46,3.46,0,0,1-3.59-.67c-1.35-1.18-2.13-3.36-2.19-6.13v-.26l-.21,0c-2.95-.56-13.41-3.65-13.52-3.68l-1.05-.32.82.86c4.22,4.33,10,11,10,11.07l.07.09h.1a7.5,7.5,0,0,1,7.64,7.23,6.41,6.41,0,0,1-2.64,5.63,4.41,4.41,0,0,1-5.52-.64c-3.46-3-2.45-8.64-2.22-9.18l.08-.2-.13-.16c-1.55-2-9.47-11.4-9.55-11.5l-.74-.87.31,1.19a95.94,95.94,0,0,1,2.67,14.12v.19l.15.07c3.43,1.56,5,4.07,4.83,7.68a4.74,4.74,0,0,1-2.7,4.44,4.63,4.63,0,0,1-5.51-1.88c-2-2.8-1.44-7,0-9.72l.06-.11,0-.14c-.45-1.9-.82-3.56-1.15-5-1.21-5.44-1.72-7.69-2.8-8.08-1.39-.5-10.37,3.07-11,3.59l-.06.05,0,.08c-1.09,2.72-3.18,5.9-7,5.59a4.24,4.24,0,0,1-3.66-3.38,5.87,5.87,0,0,1,1.48-5.64c2.2-2.21,5.8-1.39,6.93-.67l.1.06.1,0c2-.92,10.77-5.7,11-7.45a16.59,16.59,0,0,0-.07-1.94c-.31-5.8-1.26-23.45,4.35-34l.13-.24-.18-.17c-4.89-4.69-4.5-15.15-4.5-15.26a24.75,24.75,0,0,0,.52,9A14.91,14.91,0,0,0,159.6,156c-5.56,10.71-4.62,28.3-4.31,34.11.05.92.09,1.65.07,1.82-.11,1-7,5.27-10.51,6.9-1.33-.75-5.07-1.52-7.38.81a6.57,6.57,0,0,0-1.65,6.31,4.77,4.77,0,0,0,4.12,3.81c4.07.33,6.3-3,7.47-5.86,1.13-.77,9.5-3.85,10.54-3.47.8.29,1.39,2.9,2.45,7.65.32,1.43.68,3,1.11,4.9-1.46,2.91-2,7.34.15,10.34A5.48,5.48,0,0,0,166,225.76Z"/>
          </g>
          <path class="cls-7" d="M94.57,149a56.68,56.68,0,0,1,4,6.16l.38-.24A18.6,18.6,0,0,0,94.57,149Z"/>
          <path class="cls-15" d="M127.18,122.2a15.43,15.43,0,0,1-9.31-3.74,11.7,11.7,0,0,0,9.29,4.46c6.2,0,8.66-3,8.66-3s-2.88,2.31-8.63,2.29Z"/>
          <g>
            <path class="cls-19" d="M130.85,71.56c-.91.32-1.27,2.17-.8,4.13s1.58,3.3,2.49,3,1.27-2.17.8-4.13S131.76,71.24,130.85,71.56Z"/>
            <path class="cls-7" d="M131.13,71.2a1.07,1.07,0,0,0-.35.06,2,2,0,0,0-1.09,1.68,6.74,6.74,0,0,0,.11,2.84c.45,1.88,1.48,3.24,2.46,3.25a1.07,1.07,0,0,0,.35-.06,2,2,0,0,0,1.09-1.68,6.74,6.74,0,0,0-.11-2.84C133.14,72.57,132.11,71.21,131.13,71.2Zm2.07,6c-.13.66-.39,1.1-.73,1.22a.76.76,0,0,1-.21,0c-.74,0-1.59-1.2-2-2.79a6,6,0,0,1-.11-2.53c.12-.66.39-1.1.73-1.22a.76.76,0,0,1,.21,0c.74,0,1.59,1.2,2,2.8A5.9,5.9,0,0,1,133.2,77.15Z"/>
          </g>
          <g>
            <path class="cls-20" d="M122.53,71.53c-.91-.33-2,1-2.5,3s-.13,3.81.78,4.13,2-1,2.5-3S123.44,71.86,122.53,71.53Z"/>
            <path class="cls-7" d="M122.6,71.23a1,1,0,0,0-.35-.06c-1,0-2,1.35-2.47,3.23a6.93,6.93,0,0,0-.13,2.84,2,2,0,0,0,1.09,1.68.84.84,0,0,0,.35.07c1,0,2-1.36,2.47-3.24a6.88,6.88,0,0,0,.13-2.83A2.05,2.05,0,0,0,122.6,71.23Zm.47,4.35c-.39,1.59-1.24,2.78-2,2.78a.52.52,0,0,1-.21,0c-.34-.12-.6-.55-.73-1.22a6.25,6.25,0,0,1,.12-2.52c.39-1.59,1.24-2.79,2-2.79a.78.78,0,0,1,.21,0c.34.12.6.56.73,1.23A6.26,6.26,0,0,1,123.07,75.58Z"/>
          </g>
          <path class="cls-7" d="M165.47,75.09c-2.28-1.14-2.77-2.37-2.77-2.39a2,2,0,0,0,.84,1.73,8.52,8.52,0,0,0,1.76,1.14,8.41,8.41,0,0,0,3.82.9,3.46,3.46,0,0,0,2.2-.8A8.49,8.49,0,0,1,165.47,75.09Z"/>
          <g>
            <path class="cls-21" d="M83.26,70.47c-.67,0-1.23.83-1.23,1.86s.55,1.86,1.23,1.87,1.23-.83,1.23-1.86S83.94,70.48,83.26,70.47Z"/>
            <path class="cls-21" d="M78.37,66.84c-1.06,0-1.93,1.63-1.93,3.66s.85,3.67,1.91,3.68,1.93-1.64,1.94-3.66S79.44,66.84,78.37,66.84Z"/>
            <path class="cls-21" d="M76.85,77.85c-.78.41-.92,2.15-.31,3.89s1.74,2.8,2.53,2.39.93-2.15.32-3.88S77.64,77.44,76.85,77.85Z"/>
          </g>
          <path class="cls-21" d="M172.61,70.81c-.68,0-1.23.83-1.23,1.86s.55,1.86,1.22,1.86,1.24-.82,1.24-1.85S173.29,70.81,172.61,70.81Z"/>
          <path class="cls-21" d="M177.52,67.21c-1.06,0-1.92,1.64-1.93,3.67s.85,3.67,1.92,3.67,1.92-1.63,1.93-3.66S178.59,67.22,177.52,67.21Z"/>
          <path class="cls-21" d="M179,78.24c-.79-.42-1.93.65-2.55,2.37s-.49,3.47.3,3.89,1.92-.65,2.54-2.38S179.77,78.66,179,78.24Z"/>
          <path class="cls-21" d="M201.84,126.82a1.9,1.9,0,1,0,1.5,1.86A1.71,1.71,0,0,0,201.84,126.82Z"/>
          <path class="cls-21" d="M207.83,123.22c-1.29,0-2.35,1.64-2.36,3.66s1.05,3.68,2.34,3.68,2.36-1.63,2.36-3.66S209.13,123.23,207.83,123.22Z"/>
          <path class="cls-21" d="M209.63,134.25c-1-.42-2.35.65-3.11,2.37s-.6,3.47.36,3.89,2.35-.65,3.11-2.37S210.58,134.67,209.63,134.25Z"/>
          <path class="cls-21" d="M58,124.93a1.87,1.87,0,1,1-1.68,1.85A1.77,1.77,0,0,1,58,124.93Z"/>
          <path class="cls-21" d="M51.37,121.28c1.44,0,2.6,1.66,2.6,3.68s-1.18,3.67-2.62,3.66-2.61-1.65-2.6-3.68S49.92,121.28,51.37,121.28Z"/>
          <path class="cls-21" d="M49.32,132.3c1.06-.41,2.6.66,3.43,2.39s.65,3.48-.42,3.89-2.61-.67-3.44-2.4S48.25,132.71,49.32,132.3Z"/>
          <path class="cls-12" d="M103,84.27c.14.27,23.07,8.53,50.56,0C152.18,84.13,128,105.19,103,84.27Z"/>
        </g>
      </g>
    </g>
  </g>
</svg>
