<svg id="Layer_1" data-name="Layer 1" xmlns="http://www.w3.org/2000/svg" width="256" height="256" viewBox="0 0 256 256">
  <defs>
    <style>
      .cls-1 {
        opacity: 0.2;
      }

      .cls-2 {
        fill: #910000;
      }

      .cls-3 {
        fill: #bf0000;
      }

      .cls-4 {
        fill: #f33;
      }

      .cls-10, .cls-5 {
        fill: #d80000;
      }

      .cls-6 {
        fill: #ef0a0a;
      }

      .cls-7 {
        fill: #b7b7b7;
      }

      .cls-8 {
        fill: #fff;
      }

      .cls-9 {
        fill: #191919;
      }

      .cls-10 {
        stroke: #890300;
        stroke-width: 2px;
      }

      .cls-10, .cls-11, .cls-12 {
        stroke-miterlimit: 10;
      }

      .cls-11 {
        fill: none;
        stroke: #9e0000;
      }

      .cls-11, .cls-12 {
        stroke-width: 4px;
      }

      .cls-12 {
        fill: #4f0000;
        stroke: #770101;
      }

      .cls-13 {
        fill: #efefef;
      }

      .cls-14 {
        fill: #ea2458;
      }

      .cls-15 {
        fill: #9e0000;
      }
    </style>
  </defs>
  <g>
    <ellipse class="cls-1" cx="125.56" cy="204.48" rx="124.96" ry="23.26"/>
    <g>
      <g>
        <g>
          <path class="cls-2" d="M27.3,117.51s16,6.57,28.2,1.38c1.72-.73-.62-5.48-2-6.37-3.35-2.09-10.22-4.74-13.93-7.1C36.35,103.4,25.08,113.08,27.3,117.51Z"/>
          <path class="cls-3" d="M54.68,118.37c-17.11,4.29-26.12-1.28-26.89-2a3,3,0,0,1,.17-2.22c1.13-3,4.95-6.47,7.81-7.89,1.29-.64,2.34-.85,2.8-.55,3.4,2.16,12.72,7.61,14.67,8.06C54.47,114.31,55.51,118.09,54.68,118.37Z"/>
          <path class="cls-4" d="M48.59,115.6c.06,1.71-4.32,3.92-9.41,3s-8-4.3-7.12-5.85,4.58-1.13,8.74-.45S48.56,113.85,48.59,115.6Z"/>
        </g>
        <g>
          <path class="cls-2" d="M44.39,122s15.94,6.07,28.14,2.25c1.72-.54-.64-4.58-2-5.37-3.35-1.87-10.21-4.34-13.91-6.44C53.39,110.64,42.17,118.23,44.39,122Z"/>
          <path class="cls-3" d="M71.71,123.79c-17.06,2.88-26.06-2.1-26.83-2.74a2.09,2.09,0,0,1,.16-1.84C46.17,116.8,50,114,52.82,113a4.09,4.09,0,0,1,2.8-.35c3.39,1.93,12.7,6.82,14.64,7.27C71.48,120.4,72.53,123.59,71.71,123.79Z"/>
          <path class="cls-4" d="M65.63,121.25c.06,1.42-4.3,3.08-9.39,2.15s-8-3.89-7.11-5.15,4.57-.75,8.72,0S65.59,119.78,65.63,121.25Z"/>
        </g>
        <g>
          <g>
            <path class="cls-2" d="M20,75.25A38.21,38.21,0,0,1,22.7,71.7c.72-.57.58-2,1.46-3a5,5,0,0,0,1.2-2.58c.28-1.09.08-2,1-2.82s1.36-1.2,1-2.53,1.2-1.47,1.35-2.74-.37-2,.45-2.94,0-2.12.46-3A4.08,4.08,0,0,0,30,49.39a4.75,4.75,0,0,1,.55-3.26c.58-.61.17-3.55-.05-4.29s.17-3.22,2.38-.28a33.24,33.24,0,0,1,4.67,10.3,35,35,0,0,1,.28,18c-3.55,12.65-8.76,17.59-12.6,19.36-2,.93-5-1-6.6-3.83S16.7,78.86,20,75.25Z"/>
            <path class="cls-5" d="M36.39,51.91a32.4,32.4,0,0,0-4.53-10,6.53,6.53,0,0,0-.58-.69.7.7,0,0,0,0,.16,12.52,12.52,0,0,1,.36,2.39c.12,1.83-.21,2.46-.52,2.79a4.25,4.25,0,0,0-.31,2.48,5.1,5.1,0,0,1-.45,3.2,1.91,1.91,0,0,0,0,.74,3.08,3.08,0,0,1-.57,2.44c-.29.34-.28.53-.24,1.15a6.31,6.31,0,0,1,0,1.31,3,3,0,0,1-1,1.8c-.39.38-.39.4-.34.6.52,1.89-.33,2.62-1.31,3.46-.38.34-.44.66-.54,1.35a9.18,9.18,0,0,1-.18,1c0,.14-.07.27-.1.38A5.41,5.41,0,0,1,24.76,69a3.73,3.73,0,0,0-.62,1.41l0,0c2.81.71,7.55,3.07,9.84,6.59a54.54,54.54,0,0,0,2.7-7.6A34.1,34.1,0,0,0,36.39,51.91Z"/>
            <path class="cls-4" d="M36.78,60.56c-.2,7.13-3.54,14-4.19,13.32-4.78-5,.31-6.85.47-13.37s-.53-11.93.48-12.2S37,53.44,36.78,60.56Z"/>
          </g>
          <g>
            <path class="cls-2" d="M22,35.66C11.93,44.36-3.07,56,.55,84,3,95.26,8.84,100.73,14,101s18.54-.8,20-19.82c-.55-6-9-9.93-12.13-10.29-2-.22-.59-3.08-1.2-4.07s.43-2.45.09-3.46a4.84,4.84,0,0,1-.28-3.26,7.8,7.8,0,0,0,.29-3.91A2.81,2.81,0,0,1,21,53.46a5,5,0,0,0,.46-3.7c-.38-.82,0-2.12.76-3.41s.28-1.7-.11-2.76a2.84,2.84,0,0,1,.45-2.69C23,40.35,24.48,33.53,22,35.66Z"/>
            <path class="cls-5" d="M15.21,100.07c-.51,0-1,0-1.53,0-2.41-.12-4.91-1.55-7-4-2.49-2.9-4.39-7.13-5.5-12.22-1.51-11.69.12-21.48,5-29.91,4.18-7.25,9.94-12.19,15-16.55l.82-.7a9.27,9.27,0,0,1-.15,1.57,10.56,10.56,0,0,1-.55,2.19,3.79,3.79,0,0,0-.55,3.52c.08.23.17.43.24.61a1.09,1.09,0,0,1-.06,1.37c-.59,1-1.48,2.83-.82,4.26A4.08,4.08,0,0,1,19.67,53a3.64,3.64,0,0,0-.28,3.42,6.86,6.86,0,0,1-.28,3.37,5.7,5.7,0,0,0,.28,3.84,2.29,2.29,0,0,1-.14,1,3.3,3.3,0,0,0,.13,2.65,3.65,3.65,0,0,1,0,1.11c-.08,1.11-.22,4.93,1.95,5.18,1.46.16,4.17-.55,6.56,1.1,2,1.37,4.37,3.6,4.67,6.51-.57,7.23-2.95,12.49-7.08,15.61a17.66,17.66,0,0,1-10.28,3.26Z"/>
            <path class="cls-4" d="M14.83,72.68c-1.08-1.31-1-3.29-1.05-5.06,0-16.45,5.18-23.87,4.49-24.2C16,42,5.92,51.59,3.82,66,.1,91.52,10.35,95.2,12.53,95.16c3.75-.07,6.76-5.15,6.72-11.35C19.2,77.84,17,75.32,14.83,72.68Z"/>
          </g>
        </g>
        <path class="cls-2" d="M27.9,119.09c-2.71-1.74-6-2.46-8.43-9.6-1.1-3.31-6.56-7.54-5.28-9.29s8.29-8.6,12-4.77c2.18,3.42,3.59,4.35,5.38,4.66s8.82,1.74,9.67,4.12-5.17,4.05-7.72,7.21S30.38,120.69,27.9,119.09Z"/>
        <path class="cls-5" d="M28.64,118.11a.58.58,0,0,1-.26-.12c-.48-.31-1-.59-1.44-.86-2.36-1.36-4.8-2.76-6.75-8.55a12.35,12.35,0,0,0-2.57-4,26,26,0,0,1-1.84-2.47c-1.17-1.86,2.77-4.82,5.29-6,2.89-1.39,4.11-.29,4.56.17,2.13,3.37,3.11,3.83,5.39,4.25a37.37,37.37,0,0,1,5.08,1.32c3.31,1.15,3.88,2.13,4,2.4,0,.12.12.34-.45.9a18.3,18.3,0,0,1-2.5,1.78,18.33,18.33,0,0,0-4.57,3.64,19,19,0,0,0-2.43,4.71C29.72,116.27,29.06,117.9,28.64,118.11Z"/>
        <path class="cls-4" d="M25.4,100.39c-2.58-2-4.4-3.92-6.89-1.66-2.32,2.11-1.25,4.31,1,6.71A11.73,11.73,0,0,1,21,107c.54.87.59,2.07,1.07,3.19,1.5,3.51,5.32,6.73,6.46,5,2.76-4.27,2.15-4.88.65-8.39C28.66,105.63,28.4,102.76,25.4,100.39Z"/>
      </g>
      <g>
        <path class="cls-2" d="M191.23,92.55s-15.29,11.24-18.3,26.06c-.43,2.09,5,2.74,6.67,1.93,3.82-1.94,10.25-6.87,14.51-9C197.77,109.75,196.36,93.13,191.23,92.55Z"/>
        <path class="cls-3" d="M173.87,118.14c6.73-18.92,17-24.13,18-24.42a3,3,0,0,1,1.79,1.5c1.83,2.89,2.51,8.66,2,12.25-.24,1.62-.7,2.74-1.24,3-3.9,1.92-14.21,7.5-15.78,9.08C177.46,120.4,173.6,119.11,173.87,118.14Z"/>
        <path class="cls-4" d="M179.93,114c-1.49-1-.72-6.49,3.12-10.82s8.55-5,9.33-3.24-1.83,5.06-4.93,8.62S181.45,115.06,179.93,114Z"/>
        <g>
          <g>
            <path class="cls-2" d="M228.9,121.8a48.16,48.16,0,0,1,.14,5c-.19,1,.86,2.05.86,3.6a5.58,5.58,0,0,0,.78,3c.5,1.11,1.28,1.71,1,3.1s-.31,2,.88,2.83,0,2.11.74,3.27,1.63,1.32,1.63,2.75,1.39,1.77,1.63,2.8a4.24,4.24,0,0,0,1.49,2.47,5,5,0,0,1,1.75,3.08c-.07.94,2.25,3.05,2.94,3.48s2,2.76-1.77,2a32.33,32.33,0,0,1-10.77-4.93,35.35,35.35,0,0,1-12.4-14.58c-5.62-13-4.68-21-2.72-25.39,1-2.3,4.76-2.91,8-1.84S229.15,116.37,228.9,121.8Z"/>
            <path class="cls-5" d="M231.17,153.34a31.4,31.4,0,0,0,10.46,4.78,6.44,6.44,0,0,0,.94.12.4.4,0,0,0-.12-.11,13,13,0,0,1-1.91-1.68c-1.34-1.42-1.48-2.18-1.45-2.69a4.41,4.41,0,0,0-1.42-2.27,5.26,5.26,0,0,1-1.79-3,1.88,1.88,0,0,0-.48-.62,3.26,3.26,0,0,1-1.18-2.43c0-.5-.12-.65-.58-1.12a6.31,6.31,0,0,1-.89-1.08,3.36,3.36,0,0,1-.36-2.26c.06-.62.05-.63-.13-.75-1.7-1.16-1.5-2.4-1.27-3.83a2,2,0,0,0-.46-1.51,7,7,0,0,1-.52-1l-.18-.39a6.1,6.1,0,0,1-.68-3.06,4.43,4.43,0,0,0-.43-1.63l0,0c-2.78,1.54-8.27,3.18-12.52,2a59.51,59.51,0,0,0,2.92,8.28A34.6,34.6,0,0,0,231.17,153.34Z"/>
            <path class="cls-4" d="M225,146.53c-4.64-6-6.54-14.15-5.55-14.09,7.29.48,4.38,5.86,8.64,11.34s8.48,9.38,7.84,10.37S229.61,152.57,225,146.53Z"/>
          </g>
          <g>
            <path class="cls-2" d="M253.93,155.82c2.41-14.75,6.83-35.66-15-55.82-9.63-7.44-18.12-7.51-22.54-3.81s-14.67,14.65-3,31.34c4.5,4.51,14.05,1.39,16.89-.71,1.76-1.29,2.57,2.08,3.74,2.44s1.29,2.34,2.26,2.91a4.88,4.88,0,0,1,2.43,2.47,7.86,7.86,0,0,0,2.4,3.42,2.9,2.9,0,0,1,1.67,2.38,5.09,5.09,0,0,0,2.12,3.37c.86.39,1.44,1.73,1.68,3.38s.91,1.61,2,2.19a3,3,0,0,1,1.44,2.53C250,152.71,253.34,159.42,253.93,155.82Z"/>
            <path class="cls-5" d="M216.05,97.84c.41-.39.84-.77,1.27-1.14a11,11,0,0,1,8.49-2c4,.5,8.42,2.53,12.75,5.87,9.14,8.46,14.4,17.71,16.1,28.3,1.46,9.11.07,17.51-1.16,24.92-.07.4-.13.8-.2,1.2a10.09,10.09,0,0,1-.93-1.4,12.16,12.16,0,0,1-1-2.22,4,4,0,0,0-1.92-3.31c-.23-.13-.43-.23-.61-.31-.63-.3-.76-.36-.88-1.18-.18-1.24-.7-3.43-2.2-4.11a4.2,4.2,0,0,1-1.59-2.66,3.81,3.81,0,0,0-2.09-3,7.08,7.08,0,0,1-2-3,5.75,5.75,0,0,0-2.83-2.95,2.55,2.55,0,0,1-.54-.9,3.31,3.31,0,0,0-1.9-2.08A4,4,0,0,1,234,127c-.69-1-3.15-4.21-5.11-2.77-1.3,1-3,3.59-6.12,4-2.54.36-6,.34-8.23-1.82-4.41-6.36-6-12.46-4.71-18.14a21.37,21.37,0,0,1,6.24-10.44Z"/>
            <path class="cls-4" d="M234.84,120c1.77.27,3.08,1.92,4.27,3.37,11.15,13.45,11.86,23.49,12.66,23.24,2.83-.57,4.61-16-3.37-29.4-14.2-23.77-25.08-19.06-26.85-17.38-3,2.89-2.06,9.33,2.15,14.38C227.77,119.09,231.28,119.49,234.84,120Z"/>
          </g>
        </g>
        <path class="cls-2" d="M192.81,91.81c3.39-.61,6.6-2.53,13.39,1.53,3.13,1.87,10.46,1.22,10.59,3.63s-1,13.31-6.6,13c-4.09-1.17-5.89-.86-7.55.23s-8.41,5.23-10.72,3.92,1.51-7.23,1.47-11.75S189.69,92.38,192.81,91.81Z"/>
        <path class="cls-5" d="M192.85,93.18a.71.71,0,0,1,.3-.1c.59-.1,1.19-.24,1.76-.37,2.85-.67,5.8-1.36,11.31,1.92,1.53.91,2.67,1,4.83,1.37a28.86,28.86,0,0,1,3.19.64c2.2.65,1,6-.28,8.93-1.43,3.33-3.18,3.35-3.86,3.31-4-1.15-5.13-.79-7.29.59a42.81,42.81,0,0,1-5.06,2.75c-3.48,1.55-4.62,1.18-4.88,1s-.33-.19-.23-1.07a20.27,20.27,0,0,1,.85-3.35,21.63,21.63,0,0,0,1.29-6.43,21.1,21.1,0,0,0-1.18-5.69C193.22,95.5,192.65,93.67,192.85,93.18Z"/>
        <path class="cls-4" d="M207.47,105.27c3.5-.27,6.26-.1,6.77-3.83.48-3.48-1.88-4.48-5.31-4.79a11.59,11.59,0,0,1-2.25-.12c-1-.32-1.88-1.26-3-1.81-3.6-1.75-8.91-1.51-8.65.8.62,5.58,1.53,5.62,5.13,7.37C201.26,103.43,203.41,105.58,207.47,105.27Z"/>
      </g>
      <g>
        <g>
          <g>
            <g>
              <path class="cls-2" d="M191.24,196.65s-2,21.1-16.33,25.88c-6.08,2,2.63-8.12,5.8-18.36C183.39,195.5,192.76,190.22,191.24,196.65Z"/>
              <path class="cls-6" d="M190.56,195.09l.16,0a3.49,3.49,0,0,1-.09,1.63v.06a46.53,46.53,0,0,1-2.77,11.06c-2.06,5.27-6,12.05-13.25,14.46-.21.07-.4.12-.57.16.15-1.16,1.56-3.83,2.82-6.22,1.69-3.22,4-7.14,5.1-11.2C183.7,198.61,188.28,195.52,190.56,195.09Z"/>
            </g>
            <g>
              <path class="cls-2" d="M180.79,181.81c4,8.13,11.05,10.88,10.77,12.29-.22,1.63-5.22,5-7.09,4.94-1.5-.06-5.6-7.69-9.49-15C174.37,182.91,180.31,180.82,180.79,181.81Z"/>
              <path class="cls-6" d="M183.73,196.45c-1.86-2.5-4.51-7.41-7.48-13-.21-.38,1.19-.94,1.46-1,1-.38,2.11-.64,2.29-.41l0,0a24.41,24.41,0,0,0,2.44,4,33.3,33.3,0,0,0,6.26,6.16,12.17,12.17,0,0,1,1.84,1.6c.18.25.18.38.17.43h0c-.09.6-1.16,1.56-2.14,2.26a7.66,7.66,0,0,1-3.34,1.54C185.18,197.93,184.76,197.82,183.73,196.45Z"/>
            </g>
            <g>
              <path class="cls-2" d="M163.5,167.07c9.05,10.38,18.19,13.64,18.71,15.48.7,2.1-2.86,6.48-4.85,6.52-1.57.06-9.76-9-17.67-17.78C158.47,170,162.38,165.77,163.5,167.07Z"/>
              <path class="cls-5" d="M175.54,186.15c-3.28-3-8.71-9-14.95-15.89-.42-.47.46-1.56.64-1.77.62-.72,1.5-1.33,1.82-1l0,0a59.85,59.85,0,0,0,4.92,5,74.13,74.13,0,0,0,10.28,7.66,28.28,28.28,0,0,1,3,2.07c.35.32.43.5.44.56v0c.26.78-.37,2-1.06,3-.9,1.21-2,2.1-2.72,2.12C177.86,187.9,177.35,187.79,175.54,186.15Z"/>
            </g>
            <path class="cls-2" d="M166.32,167.52a14.28,14.28,0,0,0,2.57,3c.86.61-5.6,4.37-6.46,4.67s-2.26-2.47-2.41-3.41S165.88,166.86,166.32,167.52Z"/>
          </g>
          <g>
            <g>
              <path class="cls-2" d="M222.67,168.62s15.62,19.92,8.13,36.62c-3.17,7.07-4.52-9.31-10.35-20.91C215.51,174.52,218.63,161.75,222.67,168.62Z"/>
              <path class="cls-6" d="M220.86,167.87l.11-.16a4.08,4.08,0,0,1,1.25,1.49l0,0,0,0a58.61,58.61,0,0,1,6.81,12c2.66,6.34,5,15.67,1.28,24.07-.11.25-.22.46-.31.64-.83-1.13-1.89-4.66-2.84-7.83-1.28-4.25-2.66-9.64-5.09-14.11C218.29,176.93,219.41,170.25,220.86,167.87Z"/>
            </g>
            <g>
              <path class="cls-2" d="M207,158.54c7.82,7.16,16.45,6.76,16.78,8.48.49,1.94-3.24,8.2-5.23,9-1.6.68-9.3-5.86-16.65-12.19C200.78,162.94,206.07,157.65,207,158.54Z"/>
              <path class="cls-6" d="M216.63,173.53c-3.07-1.89-8-6.1-13.66-10.95-.39-.33.82-1.64,1.06-1.9.84-.91,1.92-1.77,2.22-1.59l0,0a27.84,27.84,0,0,0,4.32,3.24,36,36,0,0,0,9.31,3.82,12.86,12.86,0,0,1,2.64.89c.31.19.37.34.38.39v0c.18.72-.51,2.33-1.23,3.59a9.43,9.43,0,0,1-2.81,3.39C218.81,174.48,218.32,174.56,216.63,173.53Z"/>
            </g>
            <g>
              <path class="cls-2" d="M179.28,155.66c15.25,3.83,25.85.5,27.56,2,2,1.58,1.65,8.52-.17,10-1.4,1.19-15-1.93-28.1-5C176.55,162.15,177.39,155.16,179.28,155.66Z"/>
              <path class="cls-5" d="M203.07,166c-5-.61-14-2.66-24.35-5.09-.71-.16-.61-1.87-.58-2.21.09-1.18.5-2.41,1-2.35h.06a63.74,63.74,0,0,0,7.87,1.46,78.07,78.07,0,0,0,14.59.25,27.25,27.25,0,0,1,4.12-.08,1.42,1.42,0,0,1,.78.23h0c.76.59,1,2.31,1,3.71,0,1.86-.5,3.58-1.11,4.08C206.37,166.09,205.83,166.34,203.07,166Z"/>
            </g>
            <path class="cls-2" d="M178.28,153.76a15.44,15.44,0,0,0,4.24,1.57c1.2.1-3,8.12-3.67,9-.56.7-3.65-1.2-4.33-2.11S177.47,153.34,178.28,153.76Z"/>
          </g>
          <g>
            <g>
              <path class="cls-2" d="M225.55,150.34s17.57,14.82,14,31c-1.51,6.87-5.75-7.44-13.08-16.67C220.28,156.91,220.69,145,225.55,150.34Z"/>
              <path class="cls-6" d="M223.81,150a1.62,1.62,0,0,1,.06-.17,3.74,3.74,0,0,1,1.39,1.09l0,0,0,0a53,53,0,0,1,8.27,9.36c3.54,5.15,7.39,13,5.6,21.17a5.38,5.38,0,0,1-.17.62c-.94-.84-2.54-3.79-4-6.43-1.92-3.55-4.15-8.09-7.13-11.61C223.2,158.53,223,152.39,223.81,150Z"/>
            </g>
            <g>
              <path class="cls-2" d="M209.77,144.27c8.27,4.92,15.87,3,16.48,4.44.8,1.63-1.36,7.89-3,9-1.3.9-9.36-3.49-17.06-7.75C205,149.34,208.76,143.65,209.77,144.27Z"/>
              <path class="cls-6" d="M221.09,155.82c-3.08-1.11-8.27-3.94-14.17-7.21-.4-.22.43-1.61.59-1.89.58-.95,1.38-1.92,1.68-1.82l0,0a25.33,25.33,0,0,0,4.44,2.07,32.72,32.72,0,0,0,9,1.68,12,12,0,0,1,2.51.3c.3.11.39.23.4.28v0c.29.6,0,2.16-.43,3.42a8.53,8.53,0,0,1-1.87,3.53C223.21,156.26,222.78,156.42,221.09,155.82Z"/>
            </g>
            <g>
              <path class="cls-2" d="M184.58,146.84c14.26.59,23.07-4.33,24.86-3.35,2.1,1,3,7.27,1.71,8.91-1,1.32-13.67,1-25.92.75C183.35,153.12,182.81,146.75,184.58,146.84Z"/>
              <path class="cls-5" d="M207.64,151.64c-4.56.39-12.93.22-22.59,0-.66,0-.88-1.55-.92-1.86-.14-1.07,0-2.24.45-2.27h0a58.82,58.82,0,0,0,7.27-.15,70.33,70.33,0,0,0,13-2.49,27,27,0,0,1,3.65-.83,1.47,1.47,0,0,1,.74.06h0c.78.38,1.32,1.86,1.56,3.12.32,1.66.22,3.27-.23,3.83C210.59,151.1,210.16,151.43,207.64,151.64Z"/>
            </g>
            <path class="cls-2" d="M183.34,145.34a14,14,0,0,0,4.06.61c1.08-.13-1.16,7.78-1.61,8.66-.36.73-3.46-.39-4.23-1.07S182.54,145.12,183.34,145.34Z"/>
          </g>
          <g>
            <g>
              <path class="cls-2" d="M210.32,177.87s8,22.73-3.47,35.08c-4.86,5.23-1.29-9.71-3.08-21.89C202.27,180.76,208.75,170.47,210.32,177.87Z"/>
              <path class="cls-6" d="M208.94,176.62l.14-.1a4,4,0,0,1,.68,1.72v.06a56.62,56.62,0,0,1,2.56,12.81c.51,6.48-.11,15.52-5.89,21.73-.17.18-.33.33-.47.46-.4-1.27-.31-4.74-.23-7.86.1-4.18.46-9.41-.39-14.16C204,183.8,207,178.25,208.94,176.62Z"/>
            </g>
            <g>
              <path class="cls-2" d="M194.59,167.8c7.1,7,15.2,6.9,15.45,8.53.41,1.83-3.28,7.57-5.17,8.29-1.52.58-8.54-5.81-15.23-12C188.61,171.71,193.73,166.93,194.59,167.8Z"/>
              <path class="cls-6" d="M203.14,182.17c-2.82-1.87-7.34-6-12.47-10.73-.35-.32.82-1.51,1.06-1.74.81-.82,1.85-1.59,2.12-1.42l0,0a26.75,26.75,0,0,0,4,3.19,33.92,33.92,0,0,0,8.61,3.9,12.33,12.33,0,0,1,2.45.93c.28.18.33.32.34.38v0c.15.67-.55,2.16-1.26,3.32a8.87,8.87,0,0,1-2.73,3.08C205.15,183.14,204.69,183.2,203.14,182.17Z"/>
            </g>
            <g>
              <path class="cls-2" d="M169.55,161.81c13.79,5.35,24,3.49,25.45,5.05,1.73,1.71.65,8.13-1.19,9.28-1.44.94-13.73-3.55-25.65-7.95C166.33,167.54,167.85,161.13,169.55,161.81Z"/>
              <path class="cls-5" d="M190.62,174.23c-4.6-1.15-12.75-4.11-22.14-7.58-.64-.23-.38-1.81-.31-2.13.2-1.08.71-2.19,1.17-2.07h0a60.51,60.51,0,0,0,7.18,2.29,73.84,73.84,0,0,0,13.56,1.93,28.34,28.34,0,0,1,3.84.41,1.42,1.42,0,0,1,.7.31l0,0c.65.64.7,2.26.53,3.57-.22,1.73-.83,3.27-1.46,3.67C193.67,174.69,193.15,174.87,190.62,174.23Z"/>
            </g>
            <path class="cls-2" d="M170.56,160.26a14.26,14.26,0,0,0,3.86,1.78c1.11.19-3.34,7.37-4,8.13s-3.33-1.4-3.9-2.29S169.83,159.81,170.56,160.26Z"/>
          </g>
        </g>
        <g>
          <g>
            <g>
              <path class="cls-2" d="M48.82,196.65s2,21.1,16.34,25.88c6.08,2-2.64-8.12-5.81-18.36C56.67,195.5,47.3,190.22,48.82,196.65Z"/>
              <path class="cls-6" d="M49.5,195.09l-.16,0a3.41,3.41,0,0,0,.1,1.63v.06a45.4,45.4,0,0,0,2.77,11.06c2.05,5.27,6,12.05,13.24,14.46.21.07.4.12.57.16-.15-1.16-1.55-3.83-2.81-6.22-1.7-3.22-4-7.14-5.1-11.2C56.36,198.61,51.78,195.52,49.5,195.09Z"/>
            </g>
            <g>
              <path class="cls-2" d="M59.27,181.81c-4,8.13-11.05,10.88-10.77,12.29.22,1.63,5.22,5,7.09,4.94,1.5-.06,5.61-7.69,9.49-15C65.69,182.91,59.74,180.82,59.27,181.81Z"/>
              <path class="cls-6" d="M56.33,196.45c1.87-2.5,4.51-7.41,7.48-13,.21-.38-1.18-.94-1.46-1-1-.38-2.11-.64-2.29-.41,0,0,0,0,0,0a24.41,24.41,0,0,1-2.44,4,33.3,33.3,0,0,1-6.27,6.16,11.49,11.49,0,0,0-1.83,1.6c-.19.25-.19.38-.18.43h0c.08.6,1.15,1.56,2.13,2.26a7.7,7.7,0,0,0,3.34,1.54C54.88,197.93,55.31,197.82,56.33,196.45Z"/>
            </g>
            <g>
              <path class="cls-2" d="M76.57,167.07c-9.06,10.38-18.19,13.64-18.72,15.48-.7,2.1,2.87,6.48,4.86,6.52,1.56.06,9.75-9,17.66-17.78C81.59,170,77.68,165.77,76.57,167.07Z"/>
              <path class="cls-5" d="M64.52,186.15c3.28-3,8.71-9,15-15.89.43-.47-.45-1.56-.64-1.77-.62-.72-1.5-1.33-1.82-1l0,0a63.11,63.11,0,0,1-4.92,5,74.73,74.73,0,0,1-10.28,7.66,27.24,27.24,0,0,0-3,2.07,1.52,1.52,0,0,0-.45.56v0c-.26.78.37,2,1.06,3,.9,1.21,2,2.1,2.72,2.12C62.2,187.9,62.71,187.79,64.52,186.15Z"/>
            </g>
            <path class="cls-2" d="M73.74,167.52a14,14,0,0,1-2.57,3c-.86.61,5.6,4.37,6.46,4.67s2.26-2.47,2.41-3.41S74.18,166.86,73.74,167.52Z"/>
          </g>
          <g>
            <g>
              <path class="cls-2" d="M17.4,168.62S1.78,188.54,9.26,205.24c3.17,7.07,4.53-9.31,10.36-20.91C24.55,174.52,21.43,161.75,17.4,168.62Z"/>
              <path class="cls-6" d="M19.2,167.87a1.11,1.11,0,0,0-.11-.16,4.08,4.08,0,0,0-1.25,1.49l0,0,0,0a57.83,57.83,0,0,0-6.82,12c-2.66,6.34-5,15.67-1.28,24.07.11.25.22.46.32.64.82-1.13,1.88-4.66,2.84-7.83,1.28-4.25,2.65-9.64,5.08-14.11C21.77,176.93,20.66,170.25,19.2,167.87Z"/>
            </g>
            <g>
              <path class="cls-2" d="M33.05,158.54c-7.82,7.16-16.44,6.76-16.77,8.48-.5,1.94,3.23,8.2,5.22,9,1.6.68,9.31-5.86,16.65-12.19C39.28,162.94,34,157.65,33.05,158.54Z"/>
              <path class="cls-6" d="M23.43,173.53c3.07-1.89,8-6.1,13.66-10.95.39-.33-.82-1.64-1.06-1.9-.84-.91-1.92-1.77-2.22-1.59l0,0a27.84,27.84,0,0,1-4.32,3.24,35.71,35.71,0,0,1-9.31,3.82,12.86,12.86,0,0,0-2.64.89c-.3.19-.36.34-.37.39v0c-.18.72.52,2.33,1.24,3.59a9.33,9.33,0,0,0,2.8,3.39C21.25,174.48,21.74,174.56,23.43,173.53Z"/>
            </g>
            <g>
              <path class="cls-2" d="M60.78,155.66c-15.24,3.83-25.85.5-27.55,2-2,1.58-1.65,8.52.16,10,1.4,1.19,15-1.93,28.1-5C63.51,162.15,62.67,155.16,60.78,155.66Z"/>
              <path class="cls-5" d="M37,166c5-.61,14-2.66,24.35-5.09.71-.16.61-1.87.58-2.21-.09-1.18-.5-2.41-1-2.35h0A64.24,64.24,0,0,1,53,157.83a78,78,0,0,1-14.58.25,27.39,27.39,0,0,0-4.13-.08,1.51,1.51,0,0,0-.78.23h0c-.76.59-1,2.31-1,3.71,0,1.86.49,3.58,1.1,4.08C33.69,166.09,34.24,166.34,37,166Z"/>
            </g>
            <path class="cls-2" d="M61.78,153.76a15.44,15.44,0,0,1-4.24,1.57c-1.2.1,3,8.12,3.68,9,.55.7,3.64-1.2,4.32-2.11S62.59,153.34,61.78,153.76Z"/>
          </g>
          <g>
            <g>
              <path class="cls-2" d="M19.75,147.72S3.34,159.9,5.61,174.5c1,6.19,5.51-6.28,12.52-14.07C24.07,153.85,24.36,143.24,19.75,147.72Z"/>
              <path class="cls-6" d="M21.32,147.53l-.05-.15a3.33,3.33,0,0,0-1.3.89l0,0,0,0a46.81,46.81,0,0,0-7.86,7.85c-3.42,4.37-7.27,11.12-6.13,18.47a5.05,5.05,0,0,0,.11.56c.89-.7,2.47-3.22,3.88-5.48,1.91-3,4.13-7,7-9.91C21.39,155.13,21.94,149.69,21.32,147.53Z"/>
            </g>
            <g>
              <path class="cls-2" d="M34.09,143.21c-7.61,3.91-14.24,1.76-14.87,3-.8,1.4.77,7.07,2.14,8.16,1.1.87,8.5-2.58,15.56-5.94C38,148,35,142.72,34.09,143.21Z"/>
              <path class="cls-6" d="M23.4,152.83c2.8-.81,7.56-3,13-5.61.37-.17-.29-1.45-.43-1.71-.46-.88-1.11-1.78-1.38-1.71h0a21.7,21.7,0,0,1-4.06,1.6,28.64,28.64,0,0,1-8.06,1,10.68,10.68,0,0,0-2.25.14c-.27.08-.35.18-.37.22h0a5.78,5.78,0,0,0,.2,3.06,7.66,7.66,0,0,0,1.46,3.24C21.5,153.11,21.87,153.28,23.4,152.83Z"/>
            </g>
            <g>
              <path class="cls-2" d="M56.3,146.88c-12.69-.27-20.23-5.12-21.88-4.35-1.92.8-3.1,6.29-2,7.82.84,1.22,12.06,1.69,22.95,2.09C57,152.52,57.87,146.9,56.3,146.88Z"/>
              <path class="cls-5" d="M35.57,149.87c4,.59,11.46.91,20,1.23.59,0,.88-1.33.93-1.6.17-.93.12-2-.28-2h0a53.6,53.6,0,0,1-6.45-.54A63.29,63.29,0,0,1,38.37,144a21.72,21.72,0,0,0-3.2-.94,1.22,1.22,0,0,0-.65,0h0c-.72.29-1.28,1.58-1.56,2.68-.38,1.45-.38,2.89,0,3.41C33,149.23,33.35,149.54,35.57,149.87Z"/>
            </g>
            <path class="cls-2" d="M57.48,145.62a12.39,12.39,0,0,1-3.63.32c-1-.18.6,7,.94,7.77s3.09-.16,3.82-.72S58.2,145.47,57.48,145.62Z"/>
          </g>
          <g>
            <g>
              <path class="cls-2" d="M29.74,177.87s-8,22.73,3.47,35.08c4.87,5.23,1.3-9.71,3.08-21.89C37.79,180.76,31.31,170.47,29.74,177.87Z"/>
              <path class="cls-6" d="M31.12,176.62l-.14-.1a4.16,4.16,0,0,0-.68,1.72v.06a56.3,56.3,0,0,0-2.55,12.81c-.51,6.48.1,15.52,5.88,21.73.17.18.33.33.47.46.4-1.27.32-4.74.24-7.86-.11-4.18-.47-9.41.38-14.16C36,183.8,33.1,178.25,31.12,176.62Z"/>
            </g>
            <g>
              <path class="cls-2" d="M45.47,167.8c-7.1,7-15.2,6.9-15.45,8.53-.41,1.83,3.28,7.57,5.17,8.29,1.52.58,8.54-5.81,15.23-12C51.45,171.71,46.33,166.93,45.47,167.8Z"/>
              <path class="cls-6" d="M36.92,182.17c2.82-1.87,7.34-6,12.47-10.73.35-.32-.82-1.51-1-1.74-.82-.82-1.86-1.59-2.13-1.42,0,0,0,0,0,0a27.37,27.37,0,0,1-4,3.19,33.92,33.92,0,0,1-8.61,3.9,11.94,11.94,0,0,0-2.44.93c-.28.18-.34.32-.34.38v0c-.15.67.56,2.16,1.26,3.32a8.77,8.77,0,0,0,2.74,3.08C34.91,183.14,35.37,183.2,36.92,182.17Z"/>
            </g>
            <g>
              <path class="cls-2" d="M70.51,161.81c-13.79,5.35-24,3.49-25.45,5.05-1.73,1.71-.64,8.13,1.2,9.28,1.43.94,13.72-3.55,25.64-7.95C73.73,167.54,72.22,161.13,70.51,161.81Z"/>
              <path class="cls-5" d="M49.45,174.23c4.6-1.15,12.75-4.11,22.14-7.58.64-.23.37-1.81.31-2.13-.21-1.08-.72-2.19-1.18-2.07h0a60.51,60.51,0,0,1-7.18,2.29,73.76,73.76,0,0,1-13.55,1.93,28.34,28.34,0,0,0-3.85.41,1.55,1.55,0,0,0-.7.31l0,0c-.65.64-.7,2.26-.53,3.57.22,1.73.84,3.27,1.46,3.67C46.38,174.69,46.92,174.87,49.45,174.23Z"/>
            </g>
            <path class="cls-2" d="M69.5,160.26A14.26,14.26,0,0,1,65.64,162c-1.11.19,3.35,7.37,4,8.13s3.33-1.4,3.91-2.29S70.24,159.81,69.5,160.26Z"/>
          </g>
        </g>
      </g>
      <g>
        <g>
          <path class="cls-2" d="M86.6,93.56c-2.11-3.74-3-19.25-8-24.66,0-.54,10.73-3.53,12.4-2.26,0,0-4.85,14.59,3.71,23.35a3,3,0,0,1,3,1c.42,1.07-2.15,3.23-5.75,4.84s-6.85,2-7.27,1C84.39,96.18,85.05,94.66,86.6,93.56Z"/>
          <path class="cls-4" d="M96.82,91.11c.05.27-.78,1.54-3.62,3.12h0l-.29.15c-.11.07-.24.13-.36.19h0l-1.12.53c-3.93,1.75-6.27,1.65-6.49,1.32s.27-1.48,1.72-2.51l.47-.33-.29-.52c-.73-1.3-1.29-4-2-7.25a76.25,76.25,0,0,0-3.53-13l.7.1a20.07,20.07,0,0,0,7.06-.43c-.09,1-.17,2.09-.22,3.08-.31,5.94,1.44,11,5.07,14.75l.21.22.3,0A2.64,2.64,0,0,1,96.82,91.11Z"/>
          <path class="cls-5" d="M96.82,91.11c.05.27-.78,1.54-3.62,3.12h0l-.11.05h0l-1.12.53c-3.93,1.75-6.27,1.65-6.5,1.32a3.48,3.48,0,0,1,1.73-2.51l.47-.33-.28-.52c-.73-1.3-1.3-4.05-2-7.25A79.11,79.11,0,0,0,82,72.89a19.82,19.82,0,0,0,7.06-.42c-.09,1-.16,2.08-.22,3.08-.31,5.93,1.45,11,5.07,14.74l.22.22.29-.05A2.66,2.66,0,0,1,96.82,91.11Z"/>
          <g>
            <g>
              <path class="cls-4" d="M97.5,46.51c4,8.27.81,18.36-7,22.53A15.19,15.19,0,0,1,73,66.77a16.48,16.48,0,0,1-3.79-5.14c-4-8.27-.81-18.36,7-22.53a15.21,15.21,0,0,1,18,2.77A16.85,16.85,0,0,1,97.5,46.51Z"/>
              <path class="cls-5" d="M97.5,46.51c4,8.27.81,18.36-7,22.53A15.19,15.19,0,0,1,73,66.77a16.56,16.56,0,0,1-3.28-4.66c-4-8.26-.82-18.35,7-22.52a15.19,15.19,0,0,1,17.53,2.28A16.85,16.85,0,0,1,97.5,46.51Z"/>
              <ellipse class="cls-2" cx="83.39" cy="55.14" rx="14.58" ry="15.41"/>
            </g>
            <g>
              <path class="cls-7" d="M89.85,68.46c6.81-3.7,9.5-12.55,6-19.75a13.8,13.8,0,0,0-11.81-8,13.08,13.08,0,0,0-6.86,1.61c-6.81,3.7-9.5,12.54-6,19.74a14.27,14.27,0,0,0,4.69,5.54A13.21,13.21,0,0,0,89.85,68.46Z"/>
              <path class="cls-8" d="M88.83,67.93c6.69-3.64,9.34-12.34,5.89-19.42A13.65,13.65,0,0,0,84,40.76a13.27,13.27,0,0,0-6.86,1.61c-6.81,3.7-9.5,12.55-6,19.75a14.24,14.24,0,0,0,4.69,5.53A13,13,0,0,0,88.83,67.93Z"/>
              <path class="cls-9" d="M87.45,63.55a9.13,9.13,0,0,0,3.63-12,8.18,8.18,0,0,0-11.32-3.84,9.15,9.15,0,0,0-3.63,12A8.19,8.19,0,0,0,87.45,63.55Z"/>
              <path class="cls-8" d="M79.85,62.36A2.87,2.87,0,0,0,81,58.6a2.56,2.56,0,0,0-3.55-1.2,2.85,2.85,0,0,0-1.14,3.75A2.57,2.57,0,0,0,79.85,62.36Z"/>
              <path class="cls-8" d="M86.46,53.46a1.6,1.6,0,0,0,.64-2.1,1.45,1.45,0,0,0-2-.68,1.61,1.61,0,0,0-.63,2.11A1.43,1.43,0,0,0,86.46,53.46Z"/>
            </g>
          </g>
        </g>
        <g>
          <path class="cls-2" d="M148.25,83.8c1-4.22-2.41-19.34.87-26.07-.14-.51-11.23,0-12.49,1.68,0,0,8.69,12.45,2.93,23.48a3.13,3.13,0,0,0-2.6,1.92c-.11,1.15,2.95,2.42,6.83,2.84s7.12-.17,7.23-1.31C151.08,85.63,150,84.37,148.25,83.8Z"/>
          <path class="cls-4" d="M137.8,84.63c0,.27,1.16,1.22,4.32,1.85h0l.32.06.4.07h0c.4.07.81.12,1.22.17,4.24.46,6.45-.37,6.58-.75s-.68-1.33-2.35-1.86l-.54-.18.13-.58c.34-1.47.12-4.28-.14-7.54a78.86,78.86,0,0,1-.24-13.55c-.21.1-.42.21-.64.3A20.4,20.4,0,0,1,140,64.41c.37,1,.74,1.94,1.06,2.87,1.94,5.58,1.67,11-.77,15.67l-.14.28-.3,0A2.7,2.7,0,0,0,137.8,84.63Z"/>
          <path class="cls-5" d="M137.8,84.63c0,.27,1.16,1.22,4.32,1.85h0l.12,0h0c.39.06.8.12,1.22.16,4.23.46,6.45-.36,6.57-.75s-.68-1.32-2.35-1.86l-.54-.17.14-.59c.34-1.46.11-4.27-.14-7.53a80.1,80.1,0,0,1-.28-13.14A20.21,20.21,0,0,1,140,64.41c.38,1,.74,2,1.06,2.88A19.38,19.38,0,0,1,140.33,83l-.15.27-.29,0A2.68,2.68,0,0,0,137.8,84.63Z"/>
          <g>
            <g>
              <path class="cls-4" d="M124.8,42.19c-1.49,9.13,4.3,17.8,12.94,19.37A15.54,15.54,0,0,0,153.85,54a17.06,17.06,0,0,0,2.2-6.09c1.49-9.12-4.3-17.8-12.93-19.37a15.61,15.61,0,0,0-16.48,8.23A17.45,17.45,0,0,0,124.8,42.19Z"/>
              <path class="cls-5" d="M124.8,42.19c-1.49,9.13,4.3,17.8,12.94,19.37A15.54,15.54,0,0,0,153.85,54a17.33,17.33,0,0,0,1.85-5.47c1.49-9.13-4.3-17.8-12.93-19.37a15.54,15.54,0,0,0-16.13,7.61A17.45,17.45,0,0,0,124.8,42.19Z"/>
              <ellipse class="cls-2" cx="140.67" cy="46.08" rx="14.58" ry="15.42"/>
            </g>
            <g>
              <path class="cls-7" d="M138.19,60.81c-7.54-1.43-12.55-9.05-11.2-17a14.47,14.47,0,0,1,9.09-11.26,13.15,13.15,0,0,1,7-.58c7.54,1.43,12.55,9.05,11.2,17a15,15,0,0,1-2.95,6.75A13.49,13.49,0,0,1,138.19,60.81Z"/>
              <path class="cls-8" d="M139,60c-7.42-1.4-12.35-8.9-11-16.74a14.27,14.27,0,0,1,8.07-10.72,13.06,13.06,0,0,1,7-.59c7.54,1.43,12.56,9.06,11.2,17a14.9,14.9,0,0,1-2.95,6.74A13.17,13.17,0,0,1,139,60Z"/>
              <path class="cls-9" d="M139.13,55.37a8.86,8.86,0,0,1-6.79-10.32,8.45,8.45,0,0,1,9.76-7.17,8.85,8.85,0,0,1,6.79,10.31A8.45,8.45,0,0,1,139.13,55.37Z"/>
              <path class="cls-8" d="M134.46,52.89a2.83,2.83,0,0,1-2.17-3.3,2.71,2.71,0,0,1,3.12-2.3,2.85,2.85,0,0,1,2.17,3.31A2.7,2.7,0,0,1,134.46,52.89Z"/>
              <path class="cls-8" d="M142.11,44.86a1.55,1.55,0,0,1-1.2-1.81,1.5,1.5,0,0,1,1.72-1.27,1.57,1.57,0,0,1,1.19,1.82A1.47,1.47,0,0,1,142.11,44.86Z"/>
            </g>
          </g>
        </g>
        <path class="cls-10" d="M55.63,148.2a22.33,22.33,0,0,0,2.74,7.25c6.71,11.5,18.1,19.4,30.33,23.29s25.3,4,38,2.43c12.88-1.61,25.69-5,37.1-11.57s21.35-16.36,27-28.72c3.16-6.93,4.72-15.75.4-21.93-3.82-5.45-8.38-7.93-13.73-11.67-3.41-2.38-6.13-5.67-9-8.74-7.89-8.46-19.7-14.61-30.32-18.51s-22.56-4.38-33,0C96.5,83.63,89.27,90.29,83.43,97.9c-3.8,4.92-9.3,10.79-11.48,16.71-1,2.79-1.82,5.72-3.41,8.21a29.18,29.18,0,0,1-6.62,7.77A18.16,18.16,0,0,0,55.63,148.2Z"/>
        <path class="cls-4" d="M73.88,118.39c-2-1.54-.82-4.2.09-6.66,1.92-5.21,8.55-11.38,11.89-15.72C91,89.32,99.14,83.62,106.73,80.45c9.21-3.85,20.34-3.52,29.69-.09s19.78,7.53,26.73,15c2.52,2.7,9.6,7,7.25,9.1-6,5.44-15.45,13.86-33.3,27.61-4.47,3.45-11,4.66-16.77,5.57C105.66,139.94,89.52,130.23,73.88,118.39Z"/>
        <path class="cls-11" d="M89.84,128.61s31.72,27,63-10"/>
        <path class="cls-12" d="M97.94,133.88s11.16,32.65,27.71,30.39,19.63-37.7,19.63-37.7S125.56,146.62,97.94,133.88Z"/>
        <path class="cls-13" d="M105.15,137.7s3.25,4.81,4.77,5.88c4.09,2.85,21.62.6,25.88-4.1,1.4-1.55,4-7.45,4-7.45S126.52,142.74,105.15,137.7Z"/>
        <path class="cls-14" d="M134.64,149c7.53,2.11-3.18,13-7.27,13.92-1.63.36-8.36,2.57-15-5.64C110.68,155.15,118,144.3,134.64,149Z"/>
        <path class="cls-15" d="M148.77,114.41a7.86,7.86,0,0,1,3.17,1.26,10,10,0,0,1,2.54,2.45,8.55,8.55,0,0,1,1.47,3.36c.06.31.1.62.13.92s0,.62,0,.93l0,.45c0,.15-.05.3-.09.45a8,8,0,0,1-.25.87,21.69,21.69,0,0,0-1.15-3.12,17.65,17.65,0,0,0-1.56-2.66c-.61-.83-1.26-1.63-2-2.43Z"/>
        <path class="cls-15" d="M94.3,124.08l-2.23,2.48c-.71.8-1.37,1.6-2,2.43a17.07,17.07,0,0,0-1.56,2.65,23.11,23.11,0,0,0-1.15,3.13c-.1-.29-.18-.58-.25-.87l-.09-.45,0-.46c0-.3,0-.62,0-.92s.08-.61.13-.92a8.61,8.61,0,0,1,1.47-3.36,10,10,0,0,1,2.54-2.45A7.8,7.8,0,0,1,94.3,124.08Z"/>
      </g>
    </g>
  </g>
</svg>
