<svg id="Layer_1" data-name="Layer 1" xmlns="http://www.w3.org/2000/svg" viewBox="0 0 301 256"><defs><style>.cls-1{opacity:0.3;}.cls-2{fill:#9e492f;}.cls-3{fill:#931500;}.cls-4{fill:#87331f;}.cls-5{fill:#7f1001;}.cls-6{fill:#83574e;}.cls-7{fill:#66433d;}.cls-8{fill:#fac4a1;}.cls-9{fill:#fbb488;}.cls-10{fill:#fda16c;}.cls-11{fill:#fff;}.cls-12{fill:#212121;}.cls-13{fill:#00aeef;}.cls-14{fill:#771f11;}.cls-15{fill:#595959;}.cls-16{fill:#b57878;}.cls-17{fill:none;stroke:#771f11;stroke-miterlimit:10;}.cls-18{fill:#231f20;}</style></defs><ellipse class="cls-1" cx="110.35" cy="177.48" rx="102.38" ry="17.77"/><path class="cls-2" d="M207.72,168.88A178.29,178.29,0,0,0,279.23,183a79,79,0,0,0,15.2-1.39,4,4,0,0,0,1.93-.79c1.29-1.19.43-3.54-1.12-4.36s-3.41-.64-5.16-.57c-6.82.27-13.52-1.54-20.09-3.33-18.05-4.92-37.13-10.46-49.67-24.34-2.26-2.5-4.26-5.23-6.37-7.86a114.51,114.51,0,0,0-10.9-11.77c-2.81-2.64-5.86-5.19-9.53-6.33-6.06-1.88-12.63.42-18.13,3.59-3.39,1.94-6.65,4.29-8.82,7.53-4.87,7.27-3.26,18.54,3.19,24.38,2.43,2.21,4.77,2.22,7.89,2.24a46.18,46.18,0,0,1,14.12,2.44C197.23,164.19,202.44,166.64,207.72,168.88Z"/><path class="cls-3" d="M279.46,182a115.44,115.44,0,0,1-66.57-26.32c-2.94-2.45-5.82-5.12-7.52-8.55-2.69-5.41-2-11.49-1.31-17.64l-1-1c-2.81-2.64-5.86-5.19-9.53-6.33-6.06-1.88-12.63.42-18.13,3.59-3.39,1.94-6.65,4.29-8.82,7.53-4.87,7.27-3.26,18.54,3.19,24.38,2.43,2.21,4.77,2.22,7.89,2.24a46.18,46.18,0,0,1,14.12,2.44c5.46,1.79,10.67,4.24,15.95,6.48A178.29,178.29,0,0,0,279.23,183a79,79,0,0,0,15.2-1.39,4,4,0,0,0,1.93-.79,1.88,1.88,0,0,0,.27-.36C291.24,182.15,285.18,182.37,279.46,182Z"/><path class="cls-4" d="M52.68,147.51a30.35,30.35,0,0,1-1.76,12.84,16,16,0,0,1-8.8,9.15c-4.33,1.61-9.24.78-13.64,2.2-3.71,1.2-8.62,8.68-3.93,9.54,10.46,1.91,22.45,1.54,26.73.54,2.72-.64,4.42-3.39,6.53-5.22,3.82-3.3,8.36-5.64,12.34-8.75s7.51-7.32,8-12.34a15.6,15.6,0,0,0-1.61-8.14,21.7,21.7,0,0,0-19.47-12.15c-2.33,0-5.16,1-5.42,3.66S52.55,144.77,52.68,147.51Z"/><path class="cls-5" d="M76.56,147.33a21.7,21.7,0,0,0-19.47-12.15c-2.33,0-5.16,1-5.42,3.66s.88,5.93,1,8.67a40.76,40.76,0,0,1-.16,6.25c1.87,2.21,4.2,4.12,5.37,6.76a15.65,15.65,0,0,1,1.1,5.21,55,55,0,0,1-.19,10c3.6-2.88,7.71-5.09,11.35-7.94,4-3.1,7.51-7.32,8-12.34A15.6,15.6,0,0,0,76.56,147.33Z"/><path class="cls-6" d="M176.47,136.27c-.75-3.18-3.33-5.55-5.83-7.65a42.89,42.89,0,0,0-5.84-4.31,37.7,37.7,0,0,0-10.31-3.8,62.25,62.25,0,0,0-23-1.52c-7.5,1-22.31,3.24-25.66,14.14a10.54,10.54,0,0,0-.36,4.18c.62,5.94,4.68,10.95,9.16,14.91s9.55,7.29,13.37,11.88c1.13,1.35,2.09,3.49.82,4.71a3,3,0,0,1-1.5.69c-3.53.75-7.06-1-10.64-1.49a24.13,24.13,0,0,0-10.21,1.4,18.81,18.81,0,0,0-6.65,3.24,7.71,7.71,0,0,0-3,6.5l13.82.49c16.75.58,33.9,1.11,49.88-4,2.51-.8,5.37-2.2,5.67-4.81.39-3.29-3.59-5.58-4-8.86-.32-2.31,1.2-4.48,3-5.95s3.94-2.5,5.63-4.09a19.48,19.48,0,0,0,4.31-7.1C176.21,142.13,177.16,139.14,176.47,136.27Z"/><path class="cls-7" d="M135.38,154a134.56,134.56,0,0,0-14.06.94,24.37,24.37,0,0,0-2.81.52A64.35,64.35,0,0,1,128,164.1c1.13,1.35,2.09,3.49.82,4.71a3,3,0,0,1-1.5.69c-3.53.75-7.06-1-10.64-1.49a19.49,19.49,0,0,0-6.92.5,15.71,15.71,0,0,1,6,1.09,5.46,5.46,0,0,1,3.4,4.72c0,2.07-1.6,3.7-2.7,5.5,14.9.45,30,.35,44.11-4.14,2.51-.8,5.37-2.2,5.67-4.81.39-3.29-3.59-5.58-4-8.86a6.45,6.45,0,0,1,2.3-5.32C155.18,153.86,145.15,153.73,135.38,154Z"/><path class="cls-5" d="M51.28,181.78a5.41,5.41,0,0,0,1.3-.51l-.75,0a59.31,59.31,0,0,1-14.69-1A12.67,12.67,0,0,1,33,179a5.11,5.11,0,0,1-2.57-3.34l-2.92,1.8a4.55,4.55,0,0,1,.44-2.27,5.11,5.11,0,0,0-2.64,1.56,4.33,4.33,0,0,1-.33-2.52c-2.35,2.67-3.67,6.4-.44,7C35,183.15,47,182.78,51.28,181.78Z"/><path class="cls-2" d="M196.22,120.71c-3.2-5.25-9.44-7.72-15.13-10-11.89-4.85-24.09-9.6-36.91-10.31-3.3-.19-9.87.16-9.87.16l-8.48.95s-12.48,2-18.74,2.66c-12.38,1.31-25.84.47-35.75-7.07-3.64-2.76-6.66-6.34-10.57-8.69C52.13,83.17,40.84,85,31.84,89.52c-1.93,1-4,2.68-3.15,5.11s2.84,4.57,3.92,6.81a73.65,73.65,0,0,1,5.7,16.86,73.09,73.09,0,0,1,1.36,10.11c.2,3.32.2,6.72,1.31,9.85,2.13,6,7.89,9.85,13.41,13a50.71,50.71,0,0,0,12,5.44c6.68,1.8,13.73,1.1,20.65,1.21,26.54.41,52,12.9,78.49,12.2,7.37-.19,14.86-1.46,21.33-5s14.4-8.42,16.46-15.5C205.65,141.48,201.87,130,196.22,120.71Z"/><path class="cls-8" d="M199.94,149.35c-5.6,5.51-13.29,9-21.11,10.45-10.67,1.94-21.66.49-32.31-1.53a306.64,306.64,0,0,1-62.8-19c-3.49-1.48-7-3.06-9.88-5.54-5.81-5-8.18-13.11-8-20.77.15-6,1.68-11.79,3.49-17.51C66.55,93,64,90.27,60.77,88.36,52.13,83.17,40.84,85,31.84,89.52c-1.93,1-4,2.68-3.15,5.11s2.84,4.57,3.92,6.81a73.65,73.65,0,0,1,5.7,16.86,73.09,73.09,0,0,1,1.36,10.11c.2,3.32.2,6.72,1.31,9.85,2.13,6,7.89,9.85,13.41,13a50.71,50.71,0,0,0,12,5.44c6.68,1.8,13.73,1.1,20.65,1.21,26.54.41,52,12.9,78.49,12.2,7.37-.19,14.86-1.46,21.33-5C193,161.78,198.16,156.14,199.94,149.35Z"/><path class="cls-2" d="M71.16,61.68a3.65,3.65,0,0,1,1.42-.74,2.83,2.83,0,0,1,1.64.24A6.1,6.1,0,0,1,77.64,66a4.4,4.4,0,0,1-.47,2.92c-.81,1.31-2.45,1.81-4,2.11a34.7,34.7,0,0,1-5.48.62c-2.21.07-4.7-2.19-3.28-4.46a13,13,0,0,1,3.09-2.77Q69.32,63,71.16,61.68Z"/><path class="cls-2" d="M16.56,62.81a3.86,3.86,0,0,0-1.42-.74,2.83,2.83,0,0,0-1.64.24,6.11,6.11,0,0,0-3.42,4.81A4.38,4.38,0,0,0,10.55,70c.81,1.31,2.45,1.82,4,2.12a34.7,34.7,0,0,0,5.48.62c2.21.07,4.7-2.2,3.28-4.46a13,13,0,0,0-3.09-2.78Q18.41,64.13,16.56,62.81Z"/><path class="cls-9" d="M59,146.59a19.25,19.25,0,0,1-1.18-8.27c.35-4.58,2.33-8.85,3.9-13.17a76,76,0,0,0,3.88-15.87,36.22,36.22,0,0,0-.08-12.07A18.9,18.9,0,0,0,61.72,89l-.95-.62C52.13,83.17,40.84,85,31.84,89.52c-1.93,1-4,2.68-3.15,5.11s2.84,4.57,3.92,6.81a73.65,73.65,0,0,1,5.7,16.86,73.09,73.09,0,0,1,1.36,10.11c.2,3.32.2,6.72,1.31,9.85,2.13,6,7.89,9.85,13.41,13a50.72,50.72,0,0,0,11.93,5.43A27.88,27.88,0,0,1,59,146.59Z"/><path class="cls-10" d="M61.72,89l-.95-.62C52.13,83.17,40.84,85,31.84,89.52c-1.93,1-4,2.68-3.15,5.11s2.84,4.57,3.92,6.81a73.65,73.65,0,0,1,5.7,16.86,73.09,73.09,0,0,1,1.36,10.11c.08,1.32.13,2.65.23,4,2.14-6.76,5.5-13,10.68-17.8,4.61-4.27,10.33-7.11,15.5-10.69a28.8,28.8,0,0,0-.53-6.68A18.9,18.9,0,0,0,61.72,89Z"/><path class="cls-2" d="M74.24,73.47a19.57,19.57,0,0,0-4.9-5,38.07,38.07,0,0,0-15.74-7,81.59,81.59,0,0,0-9.18-.76l-2.32.13s-9,1.66-13.15,3.95a32.22,32.22,0,0,0-10.73,8.89,17.66,17.66,0,0,0-3.47,13.21c1.2,6.73,7.37,15,29.49,18,3.75.51,12.48-.91,15.72-2.89,5.14-3.13,11-6.19,13.91-11.44S77.47,78.54,74.24,73.47Z"/><path class="cls-3" d="M69.08,86.26c-3.51-1.14-4.2-5.88-6-9.11a17.21,17.21,0,0,0-4.48-5.51A6.23,6.23,0,0,0,55.36,71a3.18,3.18,0,0,0-2.77,2.46c-.36,1.27-.91,14.08-8,14.81-4.86.49-7.2-10.68-7.58-13-.29-1.81-2.69-5.08-4.52-5.18-3.37-.19-3.91,2.19-4.7,3.91S27,76.76,25.5,77.92a2,2,0,0,1-1.47.49c-1.07-.16-1.49-1.47-1.55-2.55a14.25,14.25,0,0,1,2.19-8.35,28,28,0,0,0-6.45,6.21,17.66,17.66,0,0,0-3.47,13.21c1.2,6.73,7.37,15,29.49,18,3.75.51,12.48-.91,15.72-2.89,5.14-3.13,11-6.19,13.91-11.44a19.75,19.75,0,0,0,2.34-6.89C74.3,85.8,71.65,87.1,69.08,86.26Z"/><path class="cls-11" d="M61,78.66c-.36,2.73-2.34,4.72-4.42,4.44s-3.47-2.71-3.11-5.44,2.34-4.71,4.42-4.43S61.32,75.94,61,78.66Z"/><path class="cls-11" d="M28.28,79.24C28.65,82,30.63,84,32.7,83.67s3.48-2.71,3.11-5.43-2.34-4.72-4.42-4.44S27.92,76.51,28.28,79.24Z"/><path class="cls-8" d="M38,85.09c-3.72-.42-7.46,1-10.59,3a8.82,8.82,0,0,0-3.52,3.72c-1,2.51.06,5.54,2.1,7.33A13,13,0,0,0,33.48,102a14.31,14.31,0,0,0,9-1.67C49.85,95.68,45.8,86,38,85.09Z"/><path class="cls-9" d="M38,85.09a13.79,13.79,0,0,0-6.06.78A5.51,5.51,0,0,0,34,89.63c1.31,1.21,2.86,2.47,3,4.24a4.11,4.11,0,0,1-2,3.63,8.62,8.62,0,0,1-4.14,1.16,8.53,8.53,0,0,1-5.51-1.18,7.94,7.94,0,0,1-1.58-1.59A7.57,7.57,0,0,0,26,99.19,13,13,0,0,0,33.48,102a14.31,14.31,0,0,0,9-1.67C49.85,95.68,45.8,86,38,85.09Z"/><path class="cls-8" d="M52.59,85.09c3.72-.42,7.46,1,10.59,3a8.82,8.82,0,0,1,3.52,3.72c1,2.51-.07,5.54-2.1,7.33A13,13,0,0,1,57.11,102a14.31,14.31,0,0,1-9-1.67C40.74,95.68,44.79,86,52.59,85.09Z"/><path class="cls-9" d="M56.55,98.47c-1.9-1-3.64-2.93-3.33-5.06.26-1.83,1.88-3.11,3.37-4.2l3.69-2.68a14.59,14.59,0,0,0-7.69-1.44c-7.8.87-11.85,10.59-4.43,15.24a14.31,14.31,0,0,0,9,1.67,13.22,13.22,0,0,0,7.32-2.67A11.25,11.25,0,0,1,56.55,98.47Z"/><path class="cls-12" d="M53.14,86.11a1.49,1.49,0,0,0-.25-.73,1.87,1.87,0,0,0-.87-.54,8.55,8.55,0,0,0-2.86-.56c-2.37,0-4.49.55-6.86.18-1.62-.26-4.45-.49-5.53,1.08a2.55,2.55,0,0,0-.17,2.33,6.28,6.28,0,0,0,1.36,2,15,15,0,0,0,6.66,4.59,2.24,2.24,0,0,0,1.28.09,2.72,2.72,0,0,0,.83-.53l3.41-2.9C51.69,89.81,53.39,88.13,53.14,86.11Z"/><path class="cls-13" d="M59.92,79.1c-.27,2-1.69,3.4-3.2,3.2s-2.5-2-2.24-3.93,1.69-3.4,3.19-3.2S60.18,77.13,59.92,79.1Z"/><path class="cls-12" d="M59.26,79.05c-.19,1.46-1.25,2.52-2.36,2.37s-1.85-1.45-1.66-2.9S56.49,76,57.6,76.15,59.45,77.6,59.26,79.05Z"/><path class="cls-11" d="M59.23,77.23c0,.38-.32.65-.59.62s-.46-.37-.41-.75.31-.65.59-.62A.63.63,0,0,1,59.23,77.23Z"/><path class="cls-2" d="M70.31,142.65A10.21,10.21,0,0,0,72,151.09a26.47,26.47,0,0,0,6.44,6.09,43,43,0,0,1,6.85,5.67,12,12,0,0,1,3.39,8,4.54,4.54,0,0,1-1.32,3.37c-1.24,1.06-3.06.93-4.69.89a25.8,25.8,0,0,0-8.23,1.2,14.52,14.52,0,0,0-5.34,2.85c-1.51,1.35-4.1,3.79-2.72,5.28,2.2,2.37,22,1.71,24.31,1.33A16.64,16.64,0,0,0,95.41,184c4.3-2.13,8.81-4.44,11.36-8.5a18.9,18.9,0,0,0,2.49-9.88,29.27,29.27,0,0,0-6.57-19.28c-4.5-5.28-11.83-11.2-19.29-11.19C74.1,135.19,71.32,139.22,70.31,142.65Z"/><path class="cls-3" d="M82.7,175.13c-.88,0-1.75,0-2.63.1a36.31,36.31,0,0,1,11.42,1.89,8.06,8.06,0,0,1-1.41-3.87,14.48,14.48,0,0,1,.69-3.17c.86-3.61-.51-7.44-2.69-10.43a21.11,21.11,0,0,0-3.93-4.08c-2.66-2.1-5.89-3.6-7.87-6.35a16.63,16.63,0,0,1-2.44-6.11,9.84,9.84,0,0,1-.31-3.92,4.22,4.22,0,0,1,1-2.06,9.05,9.05,0,0,0-4.21,5.52A10.21,10.21,0,0,0,72,151.09a26.47,26.47,0,0,0,6.44,6.09,43,43,0,0,1,6.85,5.67,12,12,0,0,1,3.39,8,4.54,4.54,0,0,1-1.32,3.37C86.15,175.3,84.33,175.17,82.7,175.13Z"/><path class="cls-14" d="M79.49,158.39a41,41,0,0,1-5.61-4.69,13.93,13.93,0,0,1-3.65-6.34,9.51,9.51,0,0,1-.17-3.68,10.19,10.19,0,0,1,1.3-3.43,9.13,9.13,0,0,1,2.49-2.65A11.94,11.94,0,0,1,77.11,136a12,12,0,0,0-3.19,1.67,8.68,8.68,0,0,0-2.34,2.67,9.88,9.88,0,0,0-1.15,3.35,9,9,0,0,0,.28,3.5,13.26,13.26,0,0,0,3.71,5.94,39.68,39.68,0,0,0,5.64,4.4Z"/><path class="cls-3" d="M90.72,185.79a14.7,14.7,0,0,0,4.17-1.51,46.88,46.88,0,0,1-12.41.18,17.12,17.12,0,0,1-6.37-1.78,1.62,1.62,0,0,1-.62-.51c-.42-.7.28-1.53.91-2a9.31,9.31,0,0,0-4.09,2.3,5.82,5.82,0,0,1,.93-2.58l-3.59,1.43a1.33,1.33,0,0,1-.61.14c-.66-.07-.79-.93-.6-1.6-1.47,1.39-3.22,3.37-2,4.65C68.61,186.83,88.37,186.17,90.72,185.79Z"/><path class="cls-2" d="M203.7,144.43c-.63-3.2-3.11-5.68-5.53-7.87a41.61,41.61,0,0,0-5.65-4.54,37.45,37.45,0,0,0-10.16-4.22,62.27,62.27,0,0,0-22.93-2.45c-7.53.75-22.42,2.34-26.2,13.1a10.48,10.48,0,0,0-.54,4.16c.39,6,4.25,11.13,8.56,15.27s9.25,7.66,12.88,12.41c1.07,1.4,2,3.57.63,4.74a3,3,0,0,1-1.53.63c-3.55.6-7-1.33-10.57-1.93a24.32,24.32,0,0,0-10.25,1,18.79,18.79,0,0,0-6.78,3,7.71,7.71,0,0,0-3.23,6.37l13.78,1c16.73,1.26,33.84,2.49,50-1.94,2.54-.7,5.45-2,5.86-4.58.52-3.27-3.36-5.72-3.69-9-.22-2.31,1.39-4.43,3.25-5.82s4-2.33,5.8-3.86A19.39,19.39,0,0,0,202,153C203.2,150.28,204.26,147.33,203.7,144.43Z"/><path class="cls-3" d="M148,127.22c-6.26,1.65-12.49,4.8-14.75,11.23a10.48,10.48,0,0,0-.54,4.16c.39,6,4.25,11.13,8.56,15.27s9.25,7.66,12.88,12.41a6.48,6.48,0,0,1,1.24,2.64,4.7,4.7,0,0,0,1.25-2.06,11.71,11.71,0,0,0-.29-6.6,19.32,19.32,0,0,0-2-4.82c-2.81-4.66-8.2-7.3-11-11.94a15.12,15.12,0,0,1-.19-14.71A16.89,16.89,0,0,1,148,127.22Z"/><path class="cls-3" d="M164.71,186.2a81.68,81.68,0,0,1-8.46-.93c-8-1.33-16.12-1.5-24.11-2.81a2.1,2.1,0,0,1-1.63-.82c-.39-.73.18-1.59.73-2.21a6.57,6.57,0,0,0-3.36,1.91,3.49,3.49,0,0,1,.56-2.53,3.87,3.87,0,0,0-3.08,1.85,8.74,8.74,0,0,1,1.44-3.75,11.42,11.42,0,0,0-1.17.79,7.71,7.71,0,0,0-3.23,6.37l13.78,1A261.56,261.56,0,0,0,164.71,186.2Z"/><path class="cls-15" d="M38.7,87.31a1.72,1.72,0,0,0,1.16.29l3.8.05a2,2,0,0,1,1.67.56,2.12,2.12,0,0,1,0,1.82c-.19.6-.29,1.36.2,1.76a1.5,1.5,0,0,0,1.44.08,5.86,5.86,0,0,0,3.76-4.36A1.58,1.58,0,0,0,50.4,86a1.65,1.65,0,0,0-1-.35c-2.44-.29-4.89,0-7.33-.23-.79-.08-2.1-.66-2.86-.31S38.06,86.73,38.7,87.31Z"/><path class="cls-16" d="M69.83,66a7.79,7.79,0,0,1,1.62-1.47,2.39,2.39,0,0,1,3.82,1.95,2.53,2.53,0,0,1-1,2.49,3.23,3.23,0,0,1-1.09.39,31.23,31.23,0,0,1-3.35.57,3.39,3.39,0,0,0,1.22-1.73,2.25,2.25,0,0,1-2,.91l.63-1c-.12.17-1.72.78-1.88.28S69.45,66.38,69.83,66Z"/><path class="cls-3" d="M73.56,64.13a2.73,2.73,0,0,0-2.11.38A7.79,7.79,0,0,0,69.83,66c-.38.4-2.17,1.89-2,2.44s1.76-.11,1.88-.28l-.63,1a2.25,2.25,0,0,0,2-.91,3.39,3.39,0,0,1-1.22,1.73c.92-.11,1.83-.26,2.74-.45l-.19-.13c-1-1-.47-2.85.62-3.81a7.86,7.86,0,0,1,1.33-.88A2.15,2.15,0,0,0,73.56,64.13Z"/><path class="cls-16" d="M17.89,67.11a7.74,7.74,0,0,0-1.62-1.46,2.63,2.63,0,0,0-2.1-.38,2.71,2.71,0,0,0-1.72,2.33,2.53,2.53,0,0,0,1,2.49,3.47,3.47,0,0,0,1.09.39,29.26,29.26,0,0,0,3.35.56,3.36,3.36,0,0,1-1.22-1.72,2.28,2.28,0,0,0,2,.91l-.63-1c.12.18,1.72.79,1.89.29S18.27,67.52,17.89,67.11Z"/><path class="cls-3" d="M17.89,67.11a7.74,7.74,0,0,0-1.62-1.46,2.63,2.63,0,0,0-2.1-.38,2.11,2.11,0,0,0-1,.73,4,4,0,0,1,3.35,1.6,3.28,3.28,0,0,1,.35,1.93,2.23,2.23,0,0,0,1.78.7l-.63-1c.12.18,1.72.79,1.89.29S18.27,67.52,17.89,67.11Z"/><path class="cls-3" d="M17.85,71a3.37,3.37,0,0,1-1-1.27,10.55,10.55,0,0,1-.19,1.1C17,70.93,17.44,71,17.85,71Z"/><path class="cls-12" d="M52.3,72.89a5.45,5.45,0,0,1,2.44-1.8A5.1,5.1,0,0,1,57.88,71a5.78,5.78,0,0,1,2.67,1.62,6.4,6.4,0,0,1,1.54,2.6,14.51,14.51,0,0,0-2.06-2,6.76,6.76,0,0,0-2.41-1.24A6.88,6.88,0,0,0,52.3,72.89Z"/><path class="cls-12" d="M28.14,73.29a4,4,0,0,1,1-2.38,3.51,3.51,0,0,1,1.11-.83,3.94,3.94,0,0,1,1.39-.3,4.72,4.72,0,0,1,2.54.83A6.06,6.06,0,0,1,36,72.42a22.47,22.47,0,0,0-2.16-1.13,5.77,5.77,0,0,0-2.17-.51,3.11,3.11,0,0,0-2,.69A6.91,6.91,0,0,0,28.14,73.29Z"/><path class="cls-17" d="M295.24,176.42c-1.54-.83-3.41-.64-5.16-.57-6.82.27-13.52-1.54-20.09-3.33-18.05-4.92-37.13-10.46-49.67-24.34-2.26-2.5-4.26-5.23-6.37-7.86a113.53,113.53,0,0,0-9.89-10.79h0l-1-1a41.57,41.57,0,0,0-4.57-3.81c-.71-1.38-1.46-2.73-2.26-4-3.2-5.25-9.44-7.72-15.13-10-11.89-4.85-24.09-9.6-36.91-10.31-3.3-.19-9.87.16-9.87.16l-8.48.95s-12.48,2-18.74,2.66c-12.38,1.31-25.84.47-35.75-7.07-.58-.44-1.15-.91-1.71-1.39a18.84,18.84,0,0,0,4.24-5c.27-.48.52-1,.75-1.48l.12-.26c.22-.51.43-1,.61-1.57,0,0,0,0,0-.06,1.55-4.59,1.45-9.77-1.13-13.81a15.11,15.11,0,0,0-1.83-2.31L73.2,71c1.52-.3,3.16-.8,4-2.11A4.4,4.4,0,0,0,77.64,66a6.1,6.1,0,0,0-3.42-4.81,2.83,2.83,0,0,0-1.64-.24,3.65,3.65,0,0,0-1.42.74Q69.32,63,67.53,64.41c-.62.49-1.35,1-2,1.55A38.2,38.2,0,0,0,53.6,61.51a81.59,81.59,0,0,0-9.18-.76l-2.32.13s-9,1.66-13.15,3.95a43.15,43.15,0,0,0-4.28,2.68h0c-.45.32-.88.64-1.3,1l-.09-.17a13,13,0,0,0-3.09-2.78q-1.78-1.41-3.63-2.73a3.86,3.86,0,0,0-1.42-.74,2.83,2.83,0,0,0-1.64.24,6.1,6.1,0,0,0-3.42,4.81A4.38,4.38,0,0,0,10.55,70c.81,1.31,2.45,1.82,4,2.12a35.63,35.63,0,0,0,4.48.57c-.26.32-.53.64-.77,1h0a18.49,18.49,0,0,0-3.69,10.61,14.19,14.19,0,0,0,.22,2.6c1,5.44,5.19,11.89,18.44,15.76a74,74,0,0,1,2.78,7c.41,1.2.78,2.42,1.12,3.64q.69,2.46,1.22,5c.34,1.66.63,3.34.85,5s.4,3.38.51,5.08l.09,1.72c0,.75.08,1.5.14,2.25h0a29,29,0,0,0,.52,3.85,16.55,16.55,0,0,0,.56,2,15.44,15.44,0,0,0,1,2.15,17.5,17.5,0,0,0,1.79,2.64l.28.35a35.18,35.18,0,0,0,8.71,6.91c0,1.15-.08,2.3-.2,3.44a24.5,24.5,0,0,1-1.6,6.6,16,16,0,0,1-8.8,9.15c-4.33,1.61-9.24.78-13.64,2.2a9.27,9.27,0,0,0-3.89,3l-.06.09-.32.42-.06.08c-.12.17-.24.34-.34.51v0c-.1.16-.2.32-.29.48l-.06.11c-.08.15-.16.3-.23.45l0,.06-.21.5,0,.09c-.05.14-.09.27-.13.4l0,.12a4.28,4.28,0,0,0-.14.91.37.37,0,0,0,0,.11c0,.11,0,.22,0,.32a.31.31,0,0,0,0,.1,2.34,2.34,0,0,0,.09.38.14.14,0,0,0,0,.06,2.39,2.39,0,0,0,.13.28l.06.1a2.12,2.12,0,0,0,.2.24l0,.05a2.72,2.72,0,0,0,.32.25l.09,0a1.87,1.87,0,0,0,.32.15l.12.05a3.65,3.65,0,0,0,.5.13q1,.18,2,.33c1.32.2,2.67.37,4,.51l2,.19c8,.66,15.53.26,18.74-.49,2.72-.64,4.42-3.39,6.53-5.22l1-.81h0c2.61-2.09,5.48-3.82,8.25-5.7l0,0c.42-.28.84-.58,1.25-.87l.34-.23q.72-.53,1.44-1.08l0,0a28.9,28.9,0,0,0,3.52-3.22,17.82,17.82,0,0,0,4-6.61h1.91c.84.61,1.68,1.23,2.49,1.87a25.86,25.86,0,0,1,3.27,3,12,12,0,0,1,3.39,8,6.42,6.42,0,0,1-.16,1.3,1.94,1.94,0,0,0,0,.2,3.73,3.73,0,0,1-1.11,1.87,3.53,3.53,0,0,1-1,.59,8.5,8.5,0,0,1-3,.32l-.62,0c-.53,0-1.06,0-1.59,0a25.84,25.84,0,0,0-6.64,1.16,14.52,14.52,0,0,0-5.34,2.85c-.43.38-.94.85-1.43,1.37l-.1.11a1.29,1.29,0,0,0-.16.17l-.14.16-.14.16-.14.17-.12.16-.14.19-.1.14-.14.22-.08.12c-.06.11-.12.23-.17.34l0,0c0,.1-.08.2-.11.3a.45.45,0,0,0,0,.11,1.41,1.41,0,0,0-.06.22.49.49,0,0,0,0,.12,1.36,1.36,0,0,0,0,.2s0,.08,0,.12a.58.58,0,0,0,0,.19.53.53,0,0,0,0,.12,1.54,1.54,0,0,0,.08.19.42.42,0,0,0,0,.1,2.34,2.34,0,0,0,.2.27c.48.52,1.81.89,3.6,1.15l.8.11a95,95,0,0,0,10.77.45h1l1.91,0c.92,0,1.78,0,2.56-.09l1.43-.06,1.61-.12.63-.07a8.89,8.89,0,0,0,1.16-.27l.45-.15.66-.23.6-.25.46-.21,1.36-.65a42.28,42.28,0,0,0,7.85-4.65l7.4.26q3.86.13,7.74.24l1.07,0,1.7,0,1.33,0,1,0a7.12,7.12,0,0,0-1.15,3.17,5.65,5.65,0,0,0,0,.92l13.78,1,3.34.25.86.06,2.54.18,1.06.07,2.38.15,1.11.07,2.34.12,1.12.05,2.4.1,1,0c.87,0,1.73.05,2.6.06l.82,0h3.4c1.18,0,2.36,0,3.54-.07h0a93.29,93.29,0,0,0,21.48-3c2.54-.7,5.45-2,5.86-4.58.52-3.27-3.36-5.72-3.69-9-.22-2.31,1.39-4.43,3.25-5.82q.67-.5,1.38-.93c3.46,1.2,6.82,2.64,10.18,4.09l4.55,2a178.11,178.11,0,0,0,39.54,11.56A177.11,177.11,0,0,0,274.65,183c1.52,0,3.05,0,4.58,0a79,79,0,0,0,15.2-1.39,4,4,0,0,0,1.93-.79C297.65,179.59,296.79,177.24,295.24,176.42Zm-180-8.52q-.48,0-1,0h-.32q-.45,0-.9.06l-.53.05-.51.07c-.43.06-.86.13-1.29.22l-.11,0c-.51.1-1,.21-1.54.34a25.54,25.54,0,0,0,.21-3,31.2,31.2,0,0,0-.34-5.11c6.6,1.31,13.16,2.94,19.73,4.49.77,1.27,1.17,2.81.16,3.78a2.42,2.42,0,0,1-.69.45,4.69,4.69,0,0,1-.81.24,8.52,8.52,0,0,1-1.32.17c-3.09.15-6.19-1.27-9.32-1.66-.38,0-.76-.08-1.14-.1Z"/><path class="cls-18" d="M59.92,94a51.82,51.82,0,0,1,27.28,7.8A51.25,51.25,0,0,0,59.94,95Z"/><path class="cls-18" d="M57.91,92.66A51.67,51.67,0,0,1,86.1,95.87a51.21,51.21,0,0,0-28-2.23Z"/><path class="cls-18" d="M59.8,90.51a51.67,51.67,0,0,1,28.36,1,51.21,51.21,0,0,0-28.1,0Z"/><ellipse class="cls-18" cx="59.93" cy="94.52" rx="0.23" ry="0.42"/><ellipse class="cls-18" cx="57.99" cy="93.15" rx="0.23" ry="0.42" transform="matrix(0.99, -0.16, 0.16, 0.99, -14.48, 10.77)"/><ellipse class="cls-18" cx="59.93" cy="90.99" rx="0.23" ry="0.42" transform="translate(-23.34 20.73) rotate(-16.47)"/><path class="cls-18" d="M32.23,96A51.25,51.25,0,0,0,5,102.84,51.82,51.82,0,0,1,32.25,95Z"/><path class="cls-18" d="M34.08,94.66a51.21,51.21,0,0,0-28,2.23,51.67,51.67,0,0,1,28.19-3.21Z"/><path class="cls-18" d="M32.11,92.49a51.21,51.21,0,0,0-28.1,0,51.67,51.67,0,0,1,28.36-1Z"/><ellipse class="cls-18" cx="32.24" cy="95.54" rx="0.23" ry="0.42"/><ellipse class="cls-18" cx="34.18" cy="94.17" rx="0.42" ry="0.23" transform="translate(-64.32 112.45) rotate(-80.57)"/><ellipse class="cls-18" cx="32.24" cy="92.01" rx="0.42" ry="0.23" transform="translate(-65.14 96.84) rotate(-73.53)"/><path class="cls-17" d="M52.72,150.31A40.2,40.2,0,0,0,77.65,158"/><path class="cls-17" d="M109.05,168.67a15.13,15.13,0,0,1-5.79,10.71"/><path class="cls-17" d="M128.65,165c3.81,1,7.93,2,12.33,2.78s8.71,1.44,12.67,1.87"/><path class="cls-14" d="M152.89,126.17a37.71,37.71,0,0,0-12,3.87,18.1,18.1,0,0,0-4.92,4,13.66,13.66,0,0,0-2.87,5.55,13,13,0,0,0,.34,6.23,20.7,20.7,0,0,0,2.67,5.69,44.69,44.69,0,0,0,8.64,9.22,73.82,73.82,0,0,1,9.21,8.83,8.2,8.2,0,0,1,1.66,2.83,3.51,3.51,0,0,1,.12,1.74,2.32,2.32,0,0,1-1.07,1.47A4.24,4.24,0,0,1,153,176a8.29,8.29,0,0,1-1.65.07,15.6,15.6,0,0,1-3.21-.53A48.08,48.08,0,0,0,142,174a20.23,20.23,0,0,0-6.2.34,42.09,42.09,0,0,0-6.06,1.66,12,12,0,0,0-5.09,3.27l0-.05-.65,1-.84-.54.66-1,0,0,0,0a12.81,12.81,0,0,1,5.52-3.5,42.54,42.54,0,0,1,6.22-1.64,20.89,20.89,0,0,1,6.46-.28,48.67,48.67,0,0,1,6.21,1.61,14.68,14.68,0,0,0,3.05.54,7.81,7.81,0,0,0,1.53-.05,3.41,3.41,0,0,0,1.39-.39,1.63,1.63,0,0,0,.76-1,2.8,2.8,0,0,0-.09-1.4,7.44,7.44,0,0,0-1.52-2.63,72.9,72.9,0,0,0-9.06-8.85,45.73,45.73,0,0,1-8.62-9.38,21.16,21.16,0,0,1-2.66-5.82,13.3,13.3,0,0,1-.29-6.36,14.07,14.07,0,0,1,3-5.62,18.2,18.2,0,0,1,5-3.94A37.84,37.84,0,0,1,152.89,126.17Z"/><path class="cls-17" d="M198.48,124.74c6.59,11.35,7.43,23.79,1.58,32a20.66,20.66,0,0,1-7.07,6.12"/><path class="cls-13" d="M34.55,78.37c.51,1.92-.27,3.79-1.73,4.18s-3.06-.85-3.57-2.77S29.51,76,31,75.6,34,76.45,34.55,78.37Z"/><path class="cls-12" d="M33.92,78.58c.38,1.42-.19,2.8-1.27,3.09s-2.27-.63-2.64-2,.19-2.8,1.27-3.08S33.54,77.16,33.92,78.58Z"/><path class="cls-11" d="M32.25,77.24c0,.41.35.72.67.67a.67.67,0,0,0,.47-.82c0-.42-.35-.72-.67-.68A.69.69,0,0,0,32.25,77.24Z"/></svg>