<svg xmlns="http://www.w3.org/2000/svg" xmlns:xlink="http://www.w3.org/1999/xlink" viewBox="0 0 256 280"><defs><style>.cls-1{isolation:isolate;}.cls-2{opacity:0.3;}.cls-3{fill:#ffbf31;}.cls-4{fill:#914a09;}.cls-5{opacity:0.7;}.cls-6{fill:#6b3207;}.cls-7{opacity:0.66;}.cls-8{fill:#7f6767;}.cls-9{fill:#efb686;}.cls-10{fill:#ffe7b6;}.cls-11{fill:url(#linear-gradient);}.cls-12{fill:#bc8a4d;}.cls-13{fill:#ea7754;}.cls-14{fill:#e24e2b;}.cls-15{fill:#dd7f10;}.cls-16{fill:#622c09;}.cls-17{fill:#49260a;}.cls-18{fill:#fff;}.cls-19{fill:#a86216;}.cls-20{mix-blend-mode:screen;}.cls-21{fill:url(#linear-gradient-2);}.cls-22{fill:#ff929d;}.cls-23{fill:#c23a3a;}.cls-24{fill:#8d8d8d;}.cls-25{fill:#a1a1a1;}.cls-26{fill:url(#radial-gradient);}.cls-27{fill:#892c0b;}.cls-28{fill:#461212;}.cls-29{fill:url(#radial-gradient-2);}.cls-30{fill:url(#radial-gradient-3);}.cls-31{fill:#5d5d5d;}</style><linearGradient id="linear-gradient" x1="96.84" y1="101.29" x2="95.34" y2="72.67" gradientUnits="userSpaceOnUse"><stop offset="0.01" stop-color="#f8d791"/><stop offset="0.36" stop-color="#f2a809"/><stop offset="0.95" stop-color="#d5630e"/></linearGradient><linearGradient id="linear-gradient-2" x1="54.93" y1="82.16" x2="85.43" y2="82.16" gradientUnits="userSpaceOnUse"><stop offset="0.06" stop-color="#520000"/><stop offset="0.97"/></linearGradient><radialGradient id="radial-gradient" cx="70.2" cy="82.82" r="13.11" gradientUnits="userSpaceOnUse"><stop offset="0" stop-color="#090303"/><stop offset="1" stop-color="#2e0303"/></radialGradient><radialGradient id="radial-gradient-2" cx="68.24" cy="63.29" r="7.48" xlink:href="#radial-gradient"/><radialGradient id="radial-gradient-3" cx="58.33" cy="64.86" r="4.57" xlink:href="#radial-gradient"/></defs><g class="cls-1"><g id="Layer_1" data-name="Layer 1"><ellipse class="cls-2" cx="92.93" cy="265.2" rx="71.25" ry="12.71"/><path class="cls-3" d="M39.67,191.23c0,18.85,15,36.88,17.82,50.67,8.07-7.63,0-57.5,0-57.5C51.22,176.1,39.67,178,39.67,191.23Z"/><path class="cls-4" d="M57.92,184.21l-.07-.08C55.37,180.84,52,179,48.56,179c-4.65,0-9.34,3.8-9.34,12.27,0,11.48,5.57,22.75,10.48,32.69,3.22,6.51,6.25,12.66,7.35,18.07l.16.79.59-.56c8.15-7.69.47-55.85.14-57.9Zm-.18,56.73c-1.25-5.3-4.16-11.19-7.24-17.42-4.86-9.85-10.38-21-10.38-32.29,0-8.39,4.54-11.37,8.44-11.37,3.11,0,6.2,1.72,8.51,4.72C57.47,187.14,64.44,232,57.74,240.94Z"/><g class="cls-5"><path class="cls-6" d="M45.05,184.13c-1.61,1.35-2.69,5.09-1.42,5.68s4.29-2.88,4.48-4.59S46.47,182.94,45.05,184.13Z"/></g><g class="cls-5"><path class="cls-6" d="M43.26,197c-1.09.3-1.19,7,1.23,6.76S45.28,196.43,43.26,197Z"/></g><g class="cls-5"><path class="cls-6" d="M51,199c-1.79.08-1.23,3.59,0,3.55S52.79,198.93,51,199Z"/></g><g class="cls-5"><path class="cls-6" d="M47.59,209.35c-1.46.9,1.35,6.46,3.22,4.9C52.86,212.53,49.15,208.39,47.59,209.35Z"/></g><path class="cls-3" d="M229.6,114.29a8.66,8.66,0,0,1,3,0s-3.19-7-9.3-8a10.39,10.39,0,0,1,2.13-1.85,45.16,45.16,0,0,0-8.63-.9,8.2,8.2,0,0,1,1.46-.9c-6.11-1.12-11.77,2.69-19.28-.44-5.94-2.49-25-20.59-40-13.95-19.88,8.82-11.91,47-10.68,60s4,30.93-6.95,39.83c0,0,8.3-1.57,14.13-3.37,6.72-6.87,6.42-26.75,6.27-33.77s-4.07-38.62,4.15-42.56c8-3.81,19.87,10.27,24.32,14.24,6.17,5.49,16.42,11.37,20.63,10.42a21.43,21.43,0,0,0-1.07-2.19s8.63,2.81,12,1.24c0,0-1.24-1.18-2.13-2,0,0,8.07-1.18,10.81-4.77a10.7,10.7,0,0,1-2.07-.78c1.74-.28,3.59-2.47,5.38-2.8A23,23,0,0,0,229.6,114.29Z"/><g class="cls-5"><path class="cls-6" d="M186.82,94.47c-2.55,4-3.09,8.34-1.1,12.1s7.24,7,11.13,7.1c3.5.08,8.31-2.82,8.28-10.17a16.09,16.09,0,0,1-6.18-1.26C196.6,101.26,192.2,97.83,186.82,94.47Z"/></g><g class="cls-5"><path class="cls-6" d="M185.08,117.66c2.11,2,3.9,3.89,5.12,5a58,58,0,0,0,5.54,4.28C198.25,120.67,191.08,117.45,185.08,117.66Z"/></g><g class="cls-5"><path class="cls-6" d="M159.89,87.91c-.43,6.67,11.9,7.16,14,.24C169.2,86.67,164.38,86.24,159.89,87.91Z"/></g><g class="cls-5"><path class="cls-6" d="M151.66,94.21a31.4,31.4,0,0,0-5.13,13.42c2.36,0,5.38-.79,6.8-2.54C155,103,155.11,97,151.66,94.21Z"/></g><g class="cls-7"><path class="cls-6" d="M171.71,97.42c-4.63-.41-9.92,3.51-8,13a5.5,5.5,0,0,1,2.12-2c3.13-1.5,6.88-.23,10.54,2.11C179.48,104.82,177,97.88,171.71,97.42Z"/></g><g class="cls-7"><path class="cls-6" d="M145.86,119.57a157.11,157.11,0,0,0,1.34,19c7.81-4,6-9.61,4.63-11.53C150.27,124.87,151.87,120.5,145.86,119.57Z"/></g><path class="cls-8" d="M145.68,120.21l.18-1.25-.19,0C145.67,119.35,145.68,119.78,145.68,120.21Z"/><g class="cls-5"><path class="cls-6" d="M160.92,137.68c-3.8,3.87-5.87,9-5.13,13,.59,3.2,4,5.31,6,6.28,0-2.43,0-4.53-.05-6C161.68,148.62,161.22,143.54,160.92,137.68Z"/></g><g class="cls-5"><path class="cls-6" d="M149,152.83c.35,3.44.71,7.11.86,10.8C157.31,160.49,152.69,154.88,149,152.83Z"/></g><g class="cls-5"><path class="cls-6" d="M154.67,174.25c1.21,1.24,3.54.94,5.39.41a71,71,0,0,0,1.5-11.31C154.33,166.7,152.76,172.29,154.67,174.25Z"/></g><path class="cls-4" d="M205.38,103.06a16,16,0,0,1-6.26-1.24,44.43,44.43,0,0,1-6-3.73c-6.84-4.66-17.19-11.7-27-11.7a18,18,0,0,0-7.31,1.49C141.11,95.72,145,126,147.11,142.27c.31,2.36.57,4.4.73,6,.09,1,.2,2,.3,3.08,1.28,12.61,2.86,28.3-7.09,36.36l-1.38,1.12,1.75-.33c.08,0,8.38-1.6,14.17-3.38l.11,0,.08-.08c7-7.14,6.54-27.43,6.4-34.1,0-1.19-.15-3-.32-5.37-.76-10.92-2.35-33.63,4.21-36.77a6.23,6.23,0,0,1,2.76-.61c6.09,0,13.75,7.59,18.33,12.13,1.08,1.06,2,2,2.75,2.64a58.39,58.39,0,0,0,8.28,6.06l.75-.58a58,58,0,0,1-8.44-6.15c-.72-.64-1.64-1.55-2.71-2.61-4.67-4.63-12.5-12.39-19-12.39a7.19,7.19,0,0,0-3.14.7c-7.12,3.41-5.56,25.68-4.72,37.64.16,2.33.29,4.16.32,5.33.37,17.54-1.67,28.76-6.08,33.37-4.18,1.28-9.65,2.45-12.34,3,8.94-8.6,7.41-23.76,6.16-36-.1-1.05-.21-2.08-.3-3.08-.16-1.65-.42-3.69-.73-6.06-2.06-16-5.91-45.9,11.14-53.46a17,17,0,0,1,6.94-1.42c9.57,0,19.77,7,26.53,11.55a45.16,45.16,0,0,0,6.16,3.82,16.76,16.76,0,0,0,6.61,1.3c.61,0,1.21,0,1.81-.07L207,103C206.49,103,205.94,103.06,205.38,103.06Z"/><path class="cls-9" d="M229.6,114.29a8.66,8.66,0,0,1,3,0s-3.19-7-9.3-8a10.39,10.39,0,0,1,2.13-1.85,45.16,45.16,0,0,0-8.63-.9,8.2,8.2,0,0,1,1.46-.9c-3.7-.67-7.22.45-11.1.75,3.71,9,1.14,22.37-8.91,25.1,4.92,3,10,5.13,12.61,4.53a21.43,21.43,0,0,0-1.07-2.19s8.63,2.81,12,1.24c0,0-1.24-1.18-2.13-2,0,0,8.07-1.18,10.81-4.77a10.7,10.7,0,0,1-2.07-.78c1.74-.28,3.59-2.47,5.38-2.8A23,23,0,0,0,229.6,114.29Z"/><path class="cls-10" d="M233.57,121.25a23.68,23.68,0,0,0-4-7,8.66,8.66,0,0,1,3,0s-3.19-7-9.3-8a10.39,10.39,0,0,1,2.13-1.85,45.16,45.16,0,0,0-8.63-.9,8.2,8.2,0,0,1,1.46-.9c-3.7-.67-7.22.45-11.1.75,2.39,5.82,2.17,13.44-1,18.85,2.45.88,5,1.63,7.6,2.37v-3.13a7.42,7.42,0,0,0,6.73,2.24c-.45-1.8-2.69-2.69-2.24-4.93C222.88,121.33,228.68,119.55,233.57,121.25Z"/><g class="cls-5"><path class="cls-6" d="M156.43,109.12c-3.55,0-4.26,10-.49,10S159.31,109.12,156.43,109.12Z"/></g><path class="cls-6" d="M154,111.31c-.05.13-.1.26-.14.4C153.94,111.58,154,111.44,154,111.31Z"/><g class="cls-5"><path class="cls-6" d="M155.76,135.75c-2.08-.88-6.75,4.9-3.63,6.65S157.44,136.46,155.76,135.75Z"/></g><path class="cls-3" d="M161.06,181.82c-5.6-4.37-18.83.89-25,11.66-8.32,14.43-31.83,57.91-31.83,57.91s16.73,8.07,27.35,11.65c3.2-13.6,23.51-37.84,28.39-47.07C167.45,201.77,167.21,186.61,161.06,181.82Z"/><path class="cls-4" d="M161.34,181.47a8.68,8.68,0,0,0-5.4-1.64c-6.09,0-15.28,4.7-20.3,13.42-8.23,14.28-31.6,57.49-31.84,57.92l-.22.42.42.2c.17.08,16.89,8.12,27.4,11.68l.47.16.11-.48c2.11-9,11.72-22.59,19.44-33.54a158.23,158.23,0,0,0,8.92-13.43C167.54,202.56,168,186.66,161.34,181.47Zm-1.8,34.29a156.35,156.35,0,0,1-8.85,13.33c-7.63,10.82-17.1,24.25-19.46,33.37-9.54-3.28-23.79-10-26.42-11.27,2.44-4.5,23.82-44,31.61-57.49,4.85-8.43,13.68-13,19.52-13a7.85,7.85,0,0,1,4.85,1.44C166.43,186.58,167.28,201.13,159.54,215.76Z"/><g class="cls-5"><path class="cls-6" d="M158,184.35c-2.46.28-2.46,7.23.51,6.78S160.13,184.11,158,184.35Z"/></g><g class="cls-5"><path class="cls-6" d="M157.86,197.57c-2.14.28-3.19,8.29.57,8S160.2,197.26,157.86,197.57Z"/></g><g class="cls-5"><path class="cls-6" d="M147.39,187.81c-2.81.9-6.34,5.16-4.94,6.67s3.59,0,6.39-1.9S149.28,187.21,147.39,187.81Z"/></g><g class="cls-5"><path class="cls-6" d="M144.42,203c-2,.28-4.32,6.73-.56,6.17S147,202.63,144.42,203Z"/></g><g class="cls-5"><path class="cls-6" d="M152.6,214.16c-3-.4-3.48,7.12-2.13,7.5C152.49,222.23,156.12,214.62,152.6,214.16Z"/></g><path class="cls-6" d="M150.13,216.7l1.89-2.52C151.11,214.4,150.48,215.45,150.13,216.7Z"/><g class="cls-5"><path class="cls-6" d="M139.76,216.17c-1.79.4-1.35,6.6,1,5.78C143.86,220.82,141.9,215.71,139.76,216.17Z"/></g><g class="cls-5"><path class="cls-6" d="M145.29,228.41c-1.68-.79-7.73,4-4.11,5.27S146.68,229.06,145.29,228.41Z"/></g><g class="cls-5"><path class="cls-6" d="M129.68,219.08c-.6,2.79-1,4.93,0,4.66,3-.79,3.66-4.47,3.58-5.82S130.27,216.29,129.68,219.08Z"/></g><g class="cls-5"><path class="cls-6" d="M135,237.74c-1.23-1-5.15,2.36-2.91,4.6S137.68,239.8,135,237.74Z"/></g><g class="cls-5"><path class="cls-6" d="M127,244.36c-2.18-1.34-4.7,4.37-2.69,5.21S128.88,245.5,127,244.36Z"/></g><path class="cls-6" d="M125.42,244.49a11.78,11.78,0,0,0,1.56-.16A1.42,1.42,0,0,0,125.42,244.49Z"/><path class="cls-3" d="M127.06,139a19.25,19.25,0,0,1,2.62,3.66s1.45-6.24-3.59-14.24a21.47,21.47,0,0,1,4.63,3.26,19.26,19.26,0,0,0-7-11.06,29.72,29.72,0,0,1,3.81.56c-2.88-6.73-11-11.13-15.54-18.6-4.6-7.63-8.52-21-7.33-34.72l-18.9,7.92v57.81l33.88,90.17,11.17-9.86c12-18.79,4.38-38.69,1.91-46.77S126.84,145.88,127.06,139Z"/><path class="cls-11" d="M90.57,92.62a21.92,21.92,0,0,1,16.61-1.19,63.8,63.8,0,0,1-2.54-23.57l-18.9,7.92V96.84A16.16,16.16,0,0,1,90.57,92.62Z"/><path class="cls-9" d="M109,254.27c12-.49,18.71-24.37,8.36-41.29C117.34,213,93.14,248.55,109,254.27Z"/><path class="cls-12" d="M117.36,212.15l-.39.58c-.7,1-17,25.19-13.26,36.75a7.93,7.93,0,0,0,5.12,5.21l.08,0H109c4.12-.17,7.83-3,10.44-7.85,4.44-8.31,5.27-22.7-1.72-34.13Zm1.29,34.3c-2.44,4.56-5.85,7.18-9.6,7.37a7.07,7.07,0,0,1-4.49-4.61c-3.3-10.19,10.26-31.57,12.76-35.39C123.74,224.85,122.89,238.51,118.65,246.45Z"/><path class="cls-3" d="M112.78,253.78c.74,1.66,7.21.94,7.21.94l12.31-28.55S118.77,234.11,112.78,253.78Z"/><path class="cls-4" d="M121.26,235.9a58,58,0,0,0-3.52,5.33,58.7,58.7,0,0,0-5.39,12.42l0,.16.07.15c.5,1.11,2.73,1.37,4.7,1.37a25.65,25.65,0,0,0,3-.17l-.1-.89c-2.36.27-6,.26-6.67-.55,5.89-19.14,18.9-27.47,19-27.55S126.59,228.75,121.26,235.9Z"/><path class="cls-3" d="M58.73,89.91c.48,8.55-1.41,18.21-5.16,25.1-4,7.38-9.75,9.76-10.76,14.86,1.75-.89,3.92-2.23,3.92-2.23-4.71,8.33-3,18.48-3,18.48,1.4-2.69,3.08-5.21,3.08-5.21a26.36,26.36,0,0,0,.34,16c1.18-1.84,2.09-3.06,2.09-3.06-.33,9.75,6.24,23.07,6.43,31-3.06,23.95,5.38,39.57-1.84,67.26,7.6,5.6,26.72,8.52,26.72,8.52l11.21-85.36L69.37,85.2Z"/><path class="cls-4" d="M58.26,89.62l0,.31c.49,8.64-1.47,18.17-5.1,24.87a35,35,0,0,1-6.07,7.8c-2.24,2.34-4.18,4.35-4.74,7.18l-.18.9.82-.41c.87-.44,1.84-1,2.6-1.44-3.82,8-2.36,17-2.29,17.36l.22,1.32.62-1.18c.54-1,1.12-2.05,1.63-2.9a26,26,0,0,0,1,13.68l.33.79.46-.72c.48-.76.91-1.4,1.26-1.91.14,5.12,1.86,10.93,3.53,16.57,1.44,4.88,2.81,9.49,2.9,13-1.29,10.16-.52,19,.23,27.5,1,11.68,2.1,23.75-2,39.66l-.08.3.25.18c7.59,5.6,26.13,8.48,26.92,8.6l.45.07,11.27-85.81v-.08L69.68,84.57ZM80.2,260.1c-2.9-.48-18.91-3.3-25.83-8.19,4.1-15.91,3-28,2-39.67-.75-8.49-1.52-17.26-.24-27.34v-.07c-.09-3.61-1.47-8.29-2.94-13.24-1.8-6.1-3.67-12.41-3.49-17.7l.05-1.42-.85,1.13s-.69.91-1.61,2.32a26.62,26.62,0,0,1,0-14.89l.79-2.78-1.6,2.41s-1.22,1.83-2.43,4c-.27-3-.48-10.49,3.08-16.8l.86-1.5-1.48.9s-1.51.92-3,1.73c.71-2.09,2.3-3.74,4.24-5.77a35.36,35.36,0,0,0,6.21-8c3.67-6.76,5.67-16.32,5.23-25l9.88-4.37,22.27,89.47Z"/><path class="cls-9" d="M104,181c-1.19-13.86-7.69-19.5-7.13-32.84a12.85,12.85,0,0,1,2,3.66c2.15-4.67.69-11.39.69-11.39a35.9,35.9,0,0,1,3.59,6.61c1.91-6.33-3.14-13.95-3.14-13.95a11.12,11.12,0,0,1,2.86,2.63c1.32-7.81-5.7-18.14-8.41-28a97.48,97.48,0,0,1-2.91-33.52L64.06,93.2c1.34,11.88-8.41,34.75-10.32,40.35a13.91,13.91,0,0,1,3.17-1.12c-3.5,5.72-4.29,14.46-4.29,14.46a35.06,35.06,0,0,1,4.18-4c-3.28,6.5-.7,16.82-.7,16.82A41.82,41.82,0,0,1,59,154.51c-.62,9.42,6.55,25.09,11.37,32.05,2.47,2.7,5,20.7,6.06,32.85,1.15,13.91-3.81,39.31,8.85,41.55,16.74.75,15.51-12.33,15.51-12.33S104.84,190.36,104,181Z"/><path class="cls-10" d="M96.9,148.12a12.85,12.85,0,0,1,2,3.66c2.15-4.67.69-11.39.69-11.39a35.9,35.9,0,0,1,3.59,6.61c1.91-6.33-3.14-13.95-3.14-13.95a11.12,11.12,0,0,1,2.86,2.63c1.32-7.81-5.7-18.14-8.41-28a93.05,93.05,0,0,1-2.83-15.81c-9.38.28-10,15.05-27.42,8.4-1,12.17-8.74,28-10.55,33.3a13.91,13.91,0,0,1,3.17-1.12c-3.5,5.72-4.29,14.46-4.29,14.46a35.06,35.06,0,0,1,4.18-4c-3.28,6.5-.7,16.82-.7,16.82A41.82,41.82,0,0,1,59,154.51c-.62,9.42,6.55,25.09,11.37,32.05A10.92,10.92,0,0,1,72,190.4c3.36,5.86,4.58,12.57,6.36,19,3.14,11.21,15.24,9.87,22,4.49a21,21,0,0,0,2.78-2.44c.44-8.15,1.08-28.88.94-30.48C102.84,167.1,96.34,161.46,96.9,148.12Z"/><path class="cls-12" d="M104.48,180.92a57.29,57.29,0,0,0-3.8-15.47c-1.76-4.9-3.42-9.55-3.37-16a15.61,15.61,0,0,1,1.22,2.5l.37,1,.46-1c1.46-3.18,1.32-7.21,1-9.61a40.88,40.88,0,0,1,2.42,4.81l.47,1.18.37-1.22c1.35-4.5-.62-9.52-2-12.27.55.57,1,1.08,1,1.09l.62.82.17-1c.86-5.11-1.69-11.13-4.4-17.5a86.09,86.09,0,0,1-4-10.71,97.85,97.85,0,0,1-2.9-33.34l.11-1L63.58,93l0,.27c1.12,9.87-5.61,27.68-8.84,36.24-.64,1.68-1.14,3-1.45,3.92l-.34,1,1-.45a17.22,17.22,0,0,1,2-.82c-3,5.69-3.77,13.37-3.8,13.71l-.13,1.42.92-1.09a29.53,29.53,0,0,1,2.69-2.75c-2.17,6.47-.09,14.95,0,15.35l.33,1.3.52-1.24a34.41,34.41,0,0,1,2-3.71c.21,9.41,6.7,23.78,11.48,30.68l0,.05c2.13,2.33,4.79,18.73,5.94,32.59.29,3.51.19,7.75.08,12.24-.31,13.11-.67,28,9.14,29.71h.06l1.38,0c5.2,0,9.12-1.4,11.64-4.17a12.18,12.18,0,0,0,3-8.64C101.4,245.79,105.28,190.21,104.48,180.92ZM100.3,248.6v.07a11.48,11.48,0,0,1-2.72,8c-2.55,2.79-6.69,4.09-12.29,3.85-9-1.63-8.68-16.07-8.37-28.81a121.46,121.46,0,0,0-.09-12.34c-1-12-3.55-30.17-6.14-33.09-5-7.23-11.88-22.66-11.28-31.74l.11-1.71-.93,1.44c-.07.1-1.37,2.1-2.33,4-.55-2.94-1.55-10.27.94-15.2l.92-1.84-1.6,1.28a36.76,36.76,0,0,0-3.28,3c.38-2.68,1.47-8.65,4-12.87l.52-.85-1,.18a13,13,0,0,0-2.32.73c.29-.79.66-1.77,1.09-2.91,3.23-8.55,9.92-26.26,8.93-36.39L91.09,75.06a100.18,100.18,0,0,0,3,32.72,89.94,89.94,0,0,0,4,10.82c2.48,5.83,4.83,11.35,4.47,16a9,9,0,0,0-2.34-2l-1.5-.75.93,1.4c0,.07,4.24,6.5,3.37,12.28a32.4,32.4,0,0,0-3.09-5.45l-1.24-1.69.45,2c0,.06,1.2,5.71-.27,10.1a10.92,10.92,0,0,0-1.71-2.76l-.73-.8,0,1.08c-.31,7.34,1.48,12.35,3.38,17.65A56.58,56.58,0,0,1,103.59,181C104.39,190.25,100.34,248,100.3,248.6Z"/><path class="cls-4" d="M55.27,184.72l.86.25A21,21,0,0,1,61,176.59,16.12,16.12,0,0,0,55.27,184.72Z"/><g class="cls-5"><path class="cls-6" d="M60.69,99.49c-.81.37-1.07,6.75,1.06,6.28C64.55,105.15,63.1,98.37,60.69,99.49Z"/></g><g class="cls-5"><path class="cls-6" d="M57.83,114.62c-2.35-.56-3.87,6.56-2,6.56S60.93,115.36,57.83,114.62Z"/></g><g class="cls-5"><path class="cls-6" d="M49.48,128.63c-2.3-.73-4.15,5.61-1.91,6.17S51.43,129.25,49.48,128.63Z"/></g><g class="cls-5"><path class="cls-6" d="M52.37,157.23c-1.53.27-.16,5.81,1.76,5C56.56,161.23,53.91,157,52.37,157.23Z"/></g><g class="cls-5"><path class="cls-6" d="M55.7,166.13c-2.21.82.91,6.82,2.47,6.05C60.3,171.13,57.81,165.34,55.7,166.13Z"/></g><g class="cls-5"><path class="cls-6" d="M62.24,183.35C58.46,182.15,58.5,194,60.33,194s1.76-3.74,2.54-5C63.88,187.49,64.54,184.08,62.24,183.35Z"/></g><g class="cls-5"><path class="cls-6" d="M66.85,199c-2.13.1-1.9,4.51,0,4.23S68.48,198.93,66.85,199Z"/></g><g class="cls-5"><path class="cls-6" d="M59.46,201.57c-2.5.12-2.39,6.39.39,6S61.91,201.47,59.46,201.57Z"/></g><g class="cls-5"><path class="cls-6" d="M71.46,212.63c-3,.67-.72,10.34,1.94,9.84S74.42,212,71.46,212.63Z"/></g><g class="cls-5"><path class="cls-6" d="M62.68,218.41c-3,.17-3,7,0,6.5S65.07,218.28,62.68,218.41Z"/></g><g class="cls-5"><path class="cls-6" d="M65.24,231.63c-2.51.23-1.06,6.12,1.27,5.73S67.74,231.41,65.24,231.63Z"/></g><g class="cls-5"><path class="cls-6" d="M72.29,237.38c-.82.05-1.22,4.7.78,4.37S74.42,237.25,72.29,237.38Z"/></g><g class="cls-5"><path class="cls-6" d="M63.56,241.34c-3.7.33-2.47,8.12.7,8.12S66.75,241.05,63.56,241.34Z"/></g><path class="cls-9" d="M48.08,251.8c-2.65,3-3.76,9.17-2.47,12.79.8,2.26,5.18,3.42,7.18,1.18.8-4.18,3.44-13.42,3.44-13.42A4.94,4.94,0,0,0,48.08,251.8Z"/><path class="cls-10" d="M48.08,251.8a12.5,12.5,0,0,0-2.46,5.05c-.14,1.67.18,3.18,1.79,4.1,2.32,1.81,4.49,1.24,6.52-.08,1-4.11,2.3-8.52,2.3-8.52A4.94,4.94,0,0,0,48.08,251.8Z"/><path class="cls-12" d="M52,249.46a5.53,5.53,0,0,0-4.22,2c-2.7,3.08-3.92,9.39-2.55,13.24.54,1.53,2.54,2.69,4.64,2.69h0a4.3,4.3,0,0,0,3.29-1.36l.08-.09,0-.12c.79-4.12,3.41-13.3,3.43-13.39l.05-.16-.08-.16A5.35,5.35,0,0,0,52,249.46Zm.41,16.1a3.47,3.47,0,0,1-2.54,1h0c-1.71,0-3.38-.92-3.8-2.09-1.25-3.52-.09-9.52,2.38-12.35A4.71,4.71,0,0,1,52,250.36a4.46,4.46,0,0,1,3.79,2C55.39,253.68,53.13,261.67,52.37,265.56Z"/><path class="cls-9" d="M53.29,253.27c-3.31,3.31-4.7,10.19-3.36,13.19s7.92,4.9,11,.19a19.78,19.78,0,0,0,.24-11.53C60.63,252.15,56.84,249.73,53.29,253.27Z"/><path class="cls-10" d="M53.29,253.27a13.82,13.82,0,0,0-3.22,6c.07,1.47.37,2.77,1.37,3.52,2.75,3.09,7.08,2.49,10.36,0a20.17,20.17,0,0,0-.63-7.65C60.63,252.15,56.84,249.73,53.29,253.27Z"/><path class="cls-12" d="M57,251.06a5.76,5.76,0,0,0-4,1.9c-3.49,3.49-4.84,10.56-3.45,13.69.84,1.88,3.47,3.3,6.12,3.3a6.57,6.57,0,0,0,5.67-3.05l0-.1A20.06,20.06,0,0,0,61.6,255,4.81,4.81,0,0,0,57,251.06Zm3.54,15.39a5.7,5.7,0,0,1-4.89,2.6c-2.28,0-4.61-1.21-5.3-2.77-1.27-2.85.09-9.51,3.27-12.69A4.84,4.84,0,0,1,57,252a3.89,3.89,0,0,1,3.73,3.24l0,.06A19.48,19.48,0,0,1,60.53,266.45Z"/><path class="cls-9" d="M60.63,253.7c-3,3.61-3.44,10.32-2.35,13.58,1.34,4.06,9.86,5.61,12.21.17a27,27,0,0,0-.06-11.05C68.25,251.51,63,250.9,60.63,253.7Z"/><path class="cls-10" d="M60.63,253.7c-2,2.35-2.83,6-2.89,9.18a6.26,6.26,0,0,0,4.46,3.45A9.15,9.15,0,0,0,70.92,264a24.14,24.14,0,0,0-.49-7.56C68.25,251.51,63,250.9,60.63,253.7Z"/><path class="cls-12" d="M70.84,256.22a7.22,7.22,0,0,0-6.47-4.64,5.28,5.28,0,0,0-4.08,1.83c-3.15,3.75-3.54,10.69-2.44,14,.77,2.3,3.64,4,6.85,4h0a6.4,6.4,0,0,0,6.21-3.78l0-.1a27.22,27.22,0,0,0-.08-11.25Zm-.78,11.1a5.52,5.52,0,0,1-5.36,3.19c-2.78,0-5.36-1.45-6-3.37C57.67,264,58,257.5,61,254a4.38,4.38,0,0,1,3.39-1.51A6.32,6.32,0,0,1,70,256.56,27,27,0,0,1,70.06,267.32Z"/><path class="cls-9" d="M75.54,252c-5.44,0-7.59,10-6.67,15.09.95,5.21,10.26,5.93,11.89-.56a17.9,17.9,0,0,0,.2-7.7C80.38,255.53,79.13,252,75.54,252Z"/><path class="cls-10" d="M75.54,252c-4.39,0-6.64,6.55-6.86,11.74a4.92,4.92,0,0,0,2.94,3.46c4.46,1.27,7.78-1.3,9.66-5a21.51,21.51,0,0,0-.32-3.38C80.38,255.53,79.13,252,75.54,252Z"/><path class="cls-12" d="M75.52,251.58a5.23,5.23,0,0,0-4.07,2.11c-2.69,3.24-3.74,9.6-3,13.51.48,2.63,3,4.48,6.18,4.48a6.6,6.6,0,0,0,6.59-5,18.6,18.6,0,0,0,.2-7.89C81.09,257,80.15,251.6,75.52,251.58Zm4.81,14.87a5.65,5.65,0,0,1-5.72,4.33c-2.22,0-4.83-1.17-5.3-3.74-.66-3.64.34-9.78,2.83-12.77a4.37,4.37,0,0,1,3.4-1.79c2.63,0,4.21,2.06,5,6.46A17.48,17.48,0,0,1,80.33,266.45Z"/><path class="cls-4" d="M133.13,167c-2.68-8.78-5.47-20.15-5.62-26.78a24.28,24.28,0,0,1,1.78,2.67l.57,1,.25-1.11c.06-.24,1.28-5.76-2.77-13.1a21.64,21.64,0,0,1,3.08,2.34l1,.92-.23-1.32a19.53,19.53,0,0,0-6-10.37,21.05,21.05,0,0,1,2.26.39l.86.19-.35-.81c-1.56-3.64-4.58-6.57-7.78-9.67a46,46,0,0,1-7.79-9c-4.13-6.86-8.52-20-7.26-34.45l-.89-.08c-1.28,14.66,3.18,28,7.38,35a46.42,46.42,0,0,0,7.93,9.16c2.9,2.81,5.64,5.47,7.22,8.59-1.52-.28-2.93-.38-3-.39l-1.53-.11,1.23.92a18.87,18.87,0,0,1,6.5,9.41,22.47,22.47,0,0,0-3.64-2.37l-1.43-.71.85,1.35a21.54,21.54,0,0,1,3.68,12.67,17.67,17.67,0,0,0-2-2.64l-.73-.75,0,1.05c-.21,6.49,2.79,18.86,5.66,28.28l.68,2.12c2.86,8.89,8.81,27.37-2.16,44.51,0,0,4-3.46,6.19-12.47a42.67,42.67,0,0,0,1.07-10.5c-.12-9-2.66-16.87-4.25-21.81C133.55,168.34,133.33,167.64,133.13,167Z"/><path class="cls-9" d="M126.24,252.77s-.77,10.76-1.72,15.41c4.84,4.43,11.21-1.62,9.3-10.63C132.89,253.16,128.59,251.42,126.24,252.77Z"/><path class="cls-10" d="M126.24,252.77s-.4,5.61-1,10.48a5.84,5.84,0,0,0,6.43.84,4.49,4.49,0,0,0,2.47-3.12,14.8,14.8,0,0,0-.34-3.42C132.89,253.16,128.59,251.42,126.24,252.77Z"/><path class="cls-12" d="M128,251.88a4,4,0,0,0-2,.5l-.21.12,0,.24c0,.1-.77,10.78-1.71,15.35l0,.25.19.17a5.58,5.58,0,0,0,3.77,1.6,5.72,5.72,0,0,0,4.41-2.32c2-2.48,2.71-6.34,1.86-10.33A6.67,6.67,0,0,0,128,251.88Zm3.66,15.34a4.84,4.84,0,0,1-3.71,2,4.68,4.68,0,0,1-3-1.2c.84-4.34,1.54-13.35,1.66-15a3.35,3.35,0,0,1,1.37-.28,5.86,5.86,0,0,1,5.35,4.87C134.17,261.37,133.54,265,131.7,267.22Z"/><path class="cls-9" d="M119.87,252.5s-2,12.9-1.63,16.41c.83,1.87,5.78,2.32,7.78-.45,2.16-3,4-10.82,1.92-15.41C126.4,249.67,122.09,250.08,119.87,252.5Z"/><path class="cls-10" d="M119.87,252.5s-1.07,6.79-1.5,11.85a6,6,0,0,0,6.6,1.09c2-.87,3.1-2.84,3.74-5.09a14.11,14.11,0,0,0-.77-7.3C126.4,249.67,122.09,250.08,119.87,252.5Z"/><path class="cls-12" d="M124.1,250.15a6.33,6.33,0,0,0-4.56,2l-.09.1,0,.13c-.08.53-2,13-1.63,16.53l0,.13c.47,1.07,2,1.78,3.86,1.78a5.71,5.71,0,0,0,4.69-2.15c2.27-3.14,4.1-11.18,2-15.86A4.51,4.51,0,0,0,124.1,250.15Zm1.55,18a4.82,4.82,0,0,1-4,1.78c-1.4,0-2.65-.5-3-1.19-.34-3.32,1.4-14.7,1.61-16.08a5.48,5.48,0,0,1,3.81-1.66,3.6,3.6,0,0,1,3.43,2.19C129.54,257.63,127.8,265.23,125.65,268.2Z"/><path class="cls-9" d="M112.25,255.13s.33,7.17.89,15.15c8,3.62,9.55-11.91,8.75-16.67C120.93,248,114.25,246.75,112.25,255.13Z"/><path class="cls-10" d="M112.25,255.13s.2,4.23.54,9.81a5.6,5.6,0,0,0,5.9.5c1.63-.66,2.31-2.72,3.08-4.66a26.9,26.9,0,0,0,.12-7.17C120.93,248,114.25,246.75,112.25,255.13Z"/><path class="cls-12" d="M117.53,248.66c-2.63,0-4.77,2.38-5.72,6.37v.12c0,.07.34,7.26.9,15.16l0,.26.24.11a5.93,5.93,0,0,0,2.46.59,4.74,4.74,0,0,0,3.7-1.88c3.17-3.75,3.78-12.44,3.21-15.85C121.85,250.66,119.87,248.66,117.53,248.66Zm.9,20.16a3.89,3.89,0,0,1-4.86,1.15c-.51-7.38-.84-14.08-.87-14.8,1-4.14,3.15-5.62,4.83-5.62,1.9,0,3.51,1.7,3.91,4.13C122,257,121.43,265.27,118.43,268.82Z"/><path class="cls-12" d="M70.42,185.88l-.76.49c1.44,2.22,5.17,3.11,5.17,3.11A13.23,13.23,0,0,1,70.42,185.88Z"/><path class="cls-3" d="M122.18,172.94c-5.41-3.47-11.51-2.41-16.11,1-8.52,15-8.92,30.76-10.24,43.56-1.35,13-4.82,30.92-13.12,37.93l27.13,6.77c.22-13,15.8-50.55,17.07-72.3a80.05,80.05,0,0,0,0-9.31C126.21,177.34,124.64,174.48,122.18,172.94Z"/><path class="cls-4" d="M126.46,153.85a28.65,28.65,0,0,0-1.41,8.73,47.88,47.88,0,0,0,.16,5.15c.15,2.38.39,4.62.61,6.83a87.92,87.92,0,0,1,.64,15.3c-.68,11.79-5.63,28.35-10,43-3.63,12.16-6.78,22.71-7.06,28.8l-25.77-6.44c8.41-7.9,11.52-26.87,12.63-37.65.21-2,.38-4,.56-6.17,1-11.92,2.14-25.44,9.69-38.22a37.91,37.91,0,0,0-6.19,11.68,80.88,80.88,0,0,0-2.19,8.56,163,163,0,0,0-2.2,17.91c-.18,2.14-.36,4.17-.56,6.15-1.13,10.91-4.31,30.32-13,37.63l-.67.57,28.53,7.12v-.57c.1-5.86,3.31-16.64,7-29.11,4.38-14.66,9.34-31.28,10-43.17a91.47,91.47,0,0,0-.64-15.44A85.87,85.87,0,0,1,126.46,153.85Z"/><path class="cls-9" d="M80.49,256.78a16.74,16.74,0,0,0-1.91,10.45,4.25,4.25,0,0,0,7.1,2.58,38.75,38.75,0,0,0,3.7-15.6A6.38,6.38,0,0,0,80.49,256.78Z"/><path class="cls-10" d="M80.49,256.78a17.46,17.46,0,0,0-2.09,7.67c.92,1.72,2.91,2.63,5.32,2.33a8.27,8.27,0,0,0,4-2.44,35.84,35.84,0,0,0,1.64-10.13A6.38,6.38,0,0,0,80.49,256.78Z"/><path class="cls-12" d="M89.82,254l-.22-.12a6.79,6.79,0,0,0-9.5,2.73,17.27,17.27,0,0,0-2,10.75,4.64,4.64,0,0,0,4.57,4.05h0A5.16,5.16,0,0,0,86,270.15l.08-.06,0-.1a38.9,38.9,0,0,0,3.74-15.79Zm-4.5,15.57a4.23,4.23,0,0,1-2.61,1h0A3.78,3.78,0,0,1,79,267.14,16.28,16.28,0,0,1,80.88,257a6.06,6.06,0,0,1,5.27-3.22,6,6,0,0,1,2.78.7A39.22,39.22,0,0,1,85.32,269.52Z"/><path class="cls-9" d="M86.56,255.72c-2.76,3.81-3.51,9.77-2.39,14.7s8.85,5.72,11.77,1.24a63.27,63.27,0,0,0,.33-15.27C94.41,252.36,89.33,251.91,86.56,255.72Z"/><path class="cls-10" d="M86.56,255.72a17.49,17.49,0,0,0-2.89,9.91A5.92,5.92,0,0,0,86.86,269a10.46,10.46,0,0,0,9.56-2.17,57.14,57.14,0,0,0-.15-10.46C94.41,252.36,89.33,251.91,86.56,255.72Z"/><path class="cls-12" d="M96.68,256.21a5.81,5.81,0,0,0-5.32-3.56,6.39,6.39,0,0,0-5.16,2.81c-2.68,3.69-3.68,9.75-2.47,15.06.71,3.12,3.76,4.51,6.47,4.51h0a7.18,7.18,0,0,0,6.11-3.13l.06-.08v-.1a64.36,64.36,0,0,0,.34-15.39Zm-1.17,15.28a6.31,6.31,0,0,1-5.31,2.64h0c-2.35,0-5-1.17-5.59-3.81-1.16-5.07-.23-10.84,2.31-14.34a5.56,5.56,0,0,1,4.44-2.43,4.94,4.94,0,0,1,4.48,3A64.1,64.1,0,0,1,95.51,271.49Z"/><path class="cls-9" d="M95.21,256.58c-3.14,4-2.75,12.92-.56,16.42,1.87,3,8.95,3.53,12-1.77a109,109,0,0,0-1.17-14C103.28,253.89,98.18,252.76,95.21,256.58Z"/><path class="cls-10" d="M95.21,256.58c-1.87,2.41-2.49,6.54-2.21,10.23a4.66,4.66,0,0,0,3.72,4,12.11,12.11,0,0,0,9.76-3.15,96.51,96.51,0,0,0-1-10.42C103.28,253.89,98.18,252.76,95.21,256.58Z"/><path class="cls-12" d="M105.91,257.17l0-.09,0-.07a7.16,7.16,0,0,0-5.92-3.28,6.35,6.35,0,0,0-5.06,2.58c-3.37,4.32-2.75,13.47-.59,16.92a6.39,6.39,0,0,0,5.41,2.45h0a8.37,8.37,0,0,0,7.35-4.23l.07-.11v-.13A110.72,110.72,0,0,0,105.91,257.17Zm-6.23,17.62a5.51,5.51,0,0,1-4.65-2c-2-3.18-2.56-11.92.53-15.9a5.38,5.38,0,0,1,4.36-2.23,6.27,6.27,0,0,1,5.12,2.79,115.11,115.11,0,0,1,1.15,13.69A7.47,7.47,0,0,1,99.68,274.79Z"/><path class="cls-9" d="M109.42,257.09c-2.5-2.19-5.53-1.17-7,3.23-1.44,4.19-1.44,11.45,1.93,13.65a5.3,5.3,0,0,0,8-2.37c8-4.88-.51-18.7-1-20.66Z"/><path class="cls-10" d="M107.65,256.1c-2-.55-4.11.83-5.28,4.22a19.12,19.12,0,0,0-.75,8.32,2.63,2.63,0,0,0,1.38,1.28,4.4,4.4,0,0,0,6.52-2C111,264.28,110.34,257.94,107.65,256.1Z"/><path class="cls-12" d="M110,248.33a17,17,0,0,0,.88,2.18c2.21,5,7.4,16.85,1.11,20.71l-.13.08,0,.14a4.65,4.65,0,0,1-2.93,2.78,5,5,0,0,1-4.35-.63c-3.13-2-3.13-9.13-1.75-13.12.75-2.17,2.17-3.66,3.82-4a3.9,3.9,0,0,1,3.72,1.46s-1.44-2.85-3.9-2.34c-2,.4-3.64,2.1-4.49,4.58-1.47,4.26-1.57,11.77,2.11,14.16a6.07,6.07,0,0,0,3.33,1,5.77,5.77,0,0,0,1.79-.28,5.53,5.53,0,0,0,3.43-3.17c5.07-3.25,3.32-10.92,1.17-16.76A63.13,63.13,0,0,0,110,248.33Z"/><path class="cls-12" d="M111.82,271.46l.85.28c.38-1.13-.37-3.49-.37-3.49A17.72,17.72,0,0,1,111.82,271.46Z"/><g class="cls-5"><path class="cls-6" d="M99,83.8c-2.24.67.45,12.22,3.26,9.58S101,83.2,99,83.8Z"/></g><g class="cls-5"><path class="cls-6" d="M102.33,98.09c-1.4,2.35,2.46,5.94,3.58,4.43S103.49,96.13,102.33,98.09Z"/></g><g class="cls-5"><path class="cls-6" d="M97.06,102.35c-2.35,1.12-.39,7.17,2.07,6.72S99.53,101.17,97.06,102.35Z"/></g><g class="cls-5"><path class="cls-6" d="M104.74,107c-2.75.84-2,9.36,1.73,8.13S108.22,105.93,104.74,107Z"/></g><g class="cls-5"><path class="cls-6" d="M113.31,116c-1.57,1.57,1.63,7.34,2.19,5.15S115,114.25,113.31,116Z"/></g><g class="cls-5"><path class="cls-6" d="M116,125.77c-1.4.4-1.4,13.23.9,10.2S120.67,124.47,116,125.77Z"/></g><g class="cls-5"><path class="cls-6" d="M108.16,130.43c-2.41-.06-2.47,6.22-.68,6.33S110.4,130.48,108.16,130.43Z"/></g><g class="cls-5"><path class="cls-6" d="M113.87,138.72c-3.19-.56-4.14,7.17-.84,7.45S117.43,139.35,113.87,138.72Z"/></g><g class="cls-5"><path class="cls-6" d="M115.25,153.29c-2.48,2.08.36,7.46,2.71,5.72S118.33,150.72,115.25,153.29Z"/></g><g class="cls-5"><path class="cls-6" d="M108.94,162.2c-2.58.51-1.9,7.62.9,6.78S112.14,161.58,108.94,162.2Z"/></g><g class="cls-5"><path class="cls-6" d="M115.17,169.34c-2.26,2.63,1.62,5.78,3.44,4.31C120.06,172.48,117.37,166.77,115.17,169.34Z"/><path class="cls-6" d="M121.13,179c-2.52.54-1.23,5.52,1,4.79S123.13,178.53,121.13,179Z"/><path class="cls-6" d="M119,188.45c-2.39.56-1.42,5.94,1.38,5.49S122,187.75,119,188.45Z"/><path class="cls-6" d="M115.86,202.63c-2.07.05-3.47,5.83-.69,5.72a2,2,0,0,0,1.53-.85c.24-1.05.48-2.11.7-3.17C117.24,203.36,116.73,202.61,115.86,202.63Z"/><path class="cls-6" d="M114.18,215.6c-2.38.58-1.15,4.79.62,4.46C117.46,219.55,116.81,215,114.18,215.6Z"/><path class="cls-6" d="M108.37,226.56c-3.06,0-3.66,5.38-.52,5.25S111.32,226.56,108.37,226.56Z"/><path class="cls-6" d="M97.59,232.78c-2.41-.11-3.64,5.44-1.1,5.59S100.1,232.9,97.59,232.78Z"/><path class="cls-6" d="M100.5,239.62c-2.18-.34-3.83,4.54-.8,5.27S102.36,239.9,100.5,239.62Z"/><path class="cls-6" d="M105.76,205.49c-2.23-1.09-7.47,6.36-3.06,8.24S109,207.07,105.76,205.49Z"/><path class="cls-6" d="M109.41,181.37c-3.29-.77-6,8.39-1.71,8.72S113.61,182.35,109.41,181.37Z"/></g><g class="cls-5"><path class="cls-6" d="M105.59,147.74c-3.55-.67-6.63,9.87-1.39,10.47S107.85,148.17,105.59,147.74Z"/></g><g class="cls-5"><path class="cls-6" d="M129.68,172.68c-2.17.13-2.79,8.91,1,8.17S133.18,172.47,129.68,172.68Z"/></g><g class="cls-5"><path class="cls-6" d="M131.62,184.81c-2.47.3-1.64,5.6,1,4.91S135.51,184.34,131.62,184.81Z"/></g><g class="cls-5"><path class="cls-6" d="M131.17,195.3c-3.54-.5-4.63,8.41-1,8.66S135.61,195.92,131.17,195.3Z"/></g><path class="cls-12" d="M230.46,114.65a6.05,6.05,0,0,1,.63,0,5.84,5.84,0,0,1,1.37.15l.92.26-.4-.88c-.13-.28-3.09-6.59-8.84-8.09a8.46,8.46,0,0,1,1.5-1.2l1-.6-1.11-.22a52.57,52.57,0,0,0-7.16-.91l.09,0,1.27-.59-1.38-.26a14.88,14.88,0,0,0-2.56-.22,33.38,33.38,0,0,0-5,.51c-1.18.18-2.4.36-3.63.46l-.62,0,.24.57A22.12,22.12,0,0,1,206.3,121a12.82,12.82,0,0,1-8.2,7.06l-1,.27.89.54c4.86,3,9.17,4.7,11.83,4.7a5.42,5.42,0,0,0,1.11-.11l.51-.12-.2-.49s-.25-.61-.57-1.27a33.76,33.76,0,0,0,8.27,1.41,7.17,7.17,0,0,0,3-.52l.59-.27-.47-.46s-.72-.68-1.46-1.35c2.24-.43,7.9-1.78,10.19-4.78l.41-.54-.66-.16s-.42-.11-1-.3a16.63,16.63,0,0,0,1.71-1.07,7.48,7.48,0,0,1,2.52-1.34l.48-.09-.13-.47A22.91,22.91,0,0,0,230.46,114.65Zm.34,8.19a7.24,7.24,0,0,1-2.5,1.32l-1.32.21,1.18.62a9.15,9.15,0,0,0,1.49.62c-3,3-10,4.08-10.09,4.09l-1,.14.73.64c.51.45,1.15,1,1.58,1.45a7.92,7.92,0,0,1-2,.21,36.46,36.46,0,0,1-9-1.69l-1.12-.37.6,1a17,17,0,0,1,.8,1.6c-2.29.18-6.27-1.32-10.87-4a13.8,13.8,0,0,0,7.79-7.22,23,23,0,0,0,.67-17.61c1.06-.11,2.09-.26,3.09-.42a33.47,33.47,0,0,1,4.89-.49c.38,0,.75,0,1.11,0a3.45,3.45,0,0,0-.37.27l-1.06.87,1.36-.07a39.27,39.27,0,0,1,7.49.7,10.25,10.25,0,0,0-1.35,1.31l-.51.59.77.14c4.61.8,7.54,5.18,8.56,7l-.66,0a12.17,12.17,0,0,0-1.56.11l-.76.13.48.6a23.85,23.85,0,0,1,3.93,6.91A10.4,10.4,0,0,0,230.8,122.84Z"/><path class="cls-3" d="M129,7.26c-6.7-1-11.15,6.59-21.8,5.7,0,0,8.32,14.81,15.38,20.93,8.76,1.51,12.22-7.19,12.66-12.29S135.46,8.24,129,7.26Z"/><path class="cls-4" d="M129.1,6.89a8.13,8.13,0,0,0-1.3-.1c-2.63,0-5,1.21-7.5,2.5-3.07,1.58-6.56,3.37-11.36,3.37-.55,0-1.11,0-1.67-.07l-.71-.06.35.62c.08.15,8.43,14.94,15.46,21l.08.07.1,0a11.84,11.84,0,0,0,2,.18c7.9,0,10.71-8.38,11.09-12.81C136.42,12.88,134.09,7.65,129.1,6.89Zm5.81,14.67c-.37,4.2-3,12.12-10.34,12.12a11.28,11.28,0,0,1-1.79-.15c-6.1-5.33-13.22-17.31-14.86-20.14l1,0c5,0,8.56-1.83,11.71-3.45,2.52-1.3,4.71-2.42,7.15-2.42a8,8,0,0,1,1.19.09C134.8,8.52,135.41,15.7,134.91,21.56Z"/><path class="cls-13" d="M127.47,12.65c-3.77.32-7.19,6-15.63,6.55,0,0,2.33,7.82,8.32,10.84a9.07,9.07,0,0,0,10.9-5.23C133,20.49,131.88,12.27,127.47,12.65Z"/><path class="cls-14" d="M127.44,12.27c-1.59.14-3.09,1.15-4.82,2.33-2.58,1.75-5.8,3.93-10.8,4.23l-.48,0,.14.46c.09.33,2.45,8,8.51,11.07l.08,0a10.69,10.69,0,0,0,2.62.33A9.31,9.31,0,0,0,131.41,25c1.42-3.26,1.19-8.23-.52-10.83A3.63,3.63,0,0,0,127.44,12.27Zm3.27,12.39a8.56,8.56,0,0,1-8,5.33,10.45,10.45,0,0,1-2.4-.3c-4.93-2.52-7.34-8.46-7.94-10.15,4.93-.41,8.12-2.57,10.69-4.32,1.65-1.11,3.07-2.08,4.46-2.19a2.88,2.88,0,0,1,2.76,1.51C131.81,16.92,132,21.65,130.71,24.66Z"/><path class="cls-3" d="M31.21,6.85c-6.51.42-10.37,8.07-7.41,16.83,2.66,7.86,9.83,11.21,16.29,9.17,6.62-8.7,9.17-20.23,9.17-20.23C38.42,14.22,37.1,6.47,31.21,6.85Z"/><path class="cls-4" d="M46.44,12.46c-4.4,0-6.88-1.84-9.06-3.46-1.87-1.39-3.63-2.69-6.2-2.53a8.67,8.67,0,0,0-6.72,4c-2.3,3.44-2.68,8.43-1,13.35,2.06,6.08,7.11,10,12.88,10h0a12.94,12.94,0,0,0,3.89-.6l.11,0,.07-.09C47,24.41,49.6,12.82,49.63,12.7l.12-.54-.54.08A18.18,18.18,0,0,1,46.44,12.46ZM39.86,32.52a11.93,11.93,0,0,1-3.54.54h0c-5.52,0-10.18-3.64-12.16-9.5-1.59-4.7-1.24-9.45.93-12.68a7.9,7.9,0,0,1,6.14-3.65h.39c2.08,0,3.58,1.1,5.31,2.39,2.28,1.69,4.86,3.61,9.51,3.6a18.73,18.73,0,0,0,2.32-.14C48.17,15.41,45.5,25.06,39.86,32.52Z"/><path class="cls-13" d="M31.17,12.33c-3.47-1-5.32,3.6-4,9.52A12,12,0,0,0,38,31a100.43,100.43,0,0,0,5.86-10.53C36.72,21.22,35.19,13.53,31.17,12.33Z"/><path class="cls-14" d="M42.88,20.14c-3.59,0-5.54-2.36-7.42-4.63-1.3-1.57-2.52-3-4.18-3.54a3.15,3.15,0,0,0-3.52,1.08c-1.42,1.77-1.8,5.17-1,8.88A12.32,12.32,0,0,0,38,31.36l.22,0,.12-.19a100.47,100.47,0,0,0,5.88-10.57l.29-.6-.67.07C43.49,20.12,43.18,20.14,42.88,20.14Zm-5.1,10.45a11.7,11.7,0,0,1-10.27-8.82c-.76-3.49-.44-6.65.84-8.24a2.35,2.35,0,0,1,1.88-1,2.82,2.82,0,0,1,.84.13c1.43.42,2.58,1.81,3.8,3.29,2,2.36,4.21,5.06,8.35,4.9A101.44,101.44,0,0,1,37.78,30.59Z"/><path class="cls-3" d="M93.6,3c-8.37-1.65-14.85,1.25-20.8.94C67.32,3.64,59.43,1.2,51.21,7.17,40.63,14.85,37.6,35.52,33.85,41.92c-1.49,2.56-7.59,6-7.65,11.12A30.93,30.93,0,0,1,29.91,52s-5.23,7.94-1,14.81a12,12,0,0,1,1.7-3.34s-1.2,8.26,4.53,11.72a10.6,10.6,0,0,1,.32-3.9C38.55,76,49.83,78.63,55.63,84.74c4.1,4.34,4,12.92,14.49,13.62S82.94,93,86.44,89.22c4.48-4.79,28.05-11.66,34.75-20a19.64,19.64,0,0,1,.2,3.82,12.29,12.29,0,0,0,5.1-11.34,13.32,13.32,0,0,1,3.17,3.35s2.69-6.46-.52-12.29a12.57,12.57,0,0,1,3.78,2.27c1.67-11.78-10.24-22.94-14.15-28.36S106.07,5.43,93.6,3Z"/><path class="cls-15" d="M53.74,16.23c-7.33,0-10.61,13.86-11.42,20.59,1.47,6.62,17.47,7.74,18,3.39S60.16,16.23,53.74,16.23Z"/><path class="cls-16" d="M44.71,26.29c4.42-8.06,7.73-8.42,12-8.38C56.29,14.3,47.71,13.55,44.71,26.29Z"/><path class="cls-17" d="M61.09,43.42c1.75-5-.49-10.8-5.51-12-7-1.72-11.45,5.31-13.26,5.43,1.35,2.33.39,9.54,6.93,12.06a10.44,10.44,0,0,0,7.29-.46c-1.23,2-5.41,6.88-6.78,9.88-1.51,3.34-2.46,6.62-2,9.52,9.93-1.42,16.54-16.45,16.54-16.45l-7.4-1.79C59.48,48.63,60.14,46.09,61.09,43.42Z"/><path class="cls-4" d="M119.08,26.48c-.55-.76-1.19-1.72-1.94-2.84-4.4-6.6-12.6-18.89-23.47-21a28.41,28.41,0,0,0-5.43-.51,51.74,51.74,0,0,0-8.17.81,36.45,36.45,0,0,1-7.25.64c-1,0-2.06-.17-3.2-.3a51.06,51.06,0,0,0-5.84-.43A20.78,20.78,0,0,0,51,6.86c-7.37,5.36-11.17,17.05-13.94,25.59-1.27,3.93-2.37,7.32-3.52,9.28a15,15,0,0,1-2.44,2.66c-2.33,2.22-5.23,5-5.27,8.65v.55l.51-.19s1.44-.52,2.83-.87C28,54.72,25.05,61.24,28.58,67l.44.71.25-.79a12.12,12.12,0,0,1,.85-2c-.06,2.6.4,7.92,4.83,10.6l.65.39-.08-.76a11.94,11.94,0,0,1,.1-3c1.79,2.14,5.17,3.88,8.74,5.71,3.81,2,8.14,4.17,11,7.18a19.56,19.56,0,0,1,2.94,4.7c2,4,4.31,8.54,11.81,9,.56,0,1.11.06,1.64.06h0c7.58,0,10.53-3.77,13.13-7.09.63-.79,1.22-1.55,1.85-2.22,1.83-2,7-4.3,13-7,8-3.63,17-7.72,21.25-12.35a20.58,20.58,0,0,1,.09,2.92l0,.71.6-.37a12.7,12.7,0,0,0,5.33-10.85,11.83,11.83,0,0,1,2.42,2.74l.39.64.29-.69c.1-.26,2.46-6-.07-11.69a12.74,12.74,0,0,1,2.73,1.8l.53.47.09-.7c1.39-9.75-6.28-19-11.35-25C120.79,28.67,119.8,27.48,119.08,26.48Zm13.55,27.85a13.09,13.09,0,0,0-3.37-1.9l-.92-.31.47.85c2.48,4.51,1.31,9.47.74,11.27a13.89,13.89,0,0,0-2.84-2.82l-.65-.47,0,.8a12.14,12.14,0,0,1-4.33,10.56,19.32,19.32,0,0,0-.22-3.13l-.15-.82-.52.65c-3.83,4.75-13.23,9-21.53,12.78-6,2.74-11.26,5.1-13.19,7.17-.66.7-1.26,1.47-1.89,2.28C81.78,94.42,79,98,71.74,98h0c-.51,0-1,0-1.59,0C63.08,97.51,61,93.36,59,89.36a19.81,19.81,0,0,0-3.06-4.88c-2.94-3.1-7.33-5.35-11.2-7.33s-7.43-3.82-8.92-6.1l-.42-.64-.26.72a9.63,9.63,0,0,0-.38,3.29C30,70.92,31,63.57,31,63.5l.2-1.36-.87,1.06a11,11,0,0,0-1.48,2.68c-3.3-6.41,1.35-13.62,1.4-13.7l.49-.75-.88.17a27,27,0,0,0-3.24.9c.32-3.1,2.91-5.56,5-7.56a15.28,15.28,0,0,0,2.57-2.83c1.19-2,2.3-5.46,3.59-9.42,2.74-8.45,6.49-20,13.67-25.22a20,20,0,0,1,12.34-3.9A50,50,0,0,1,69.53,4c1.15.13,2.24.26,3.25.31a37,37,0,0,0,7.4-.66,52,52,0,0,1,8.06-.8,26.86,26.86,0,0,1,5.28.51c10.57,2.08,18.65,14.2,23,20.71.74,1.12,1.39,2.09,1.94,2.86.74,1,1.74,2.23,2.9,3.62C126.23,36.39,133.52,45.15,132.63,54.33Z"/><path class="cls-18" d="M55,33.15c-5.64-1.58-10.71,4.39-10.71,4.39s.3,8.11,5.58,10.15c4.73,1.83,9.3-.38,10.72-4.39A7.84,7.84,0,0,0,55,33.15Z"/><path d="M55.06,32.79A7.51,7.51,0,0,0,53,32.51c-4.94,0-8.89,4.59-9.06,4.79l-.1.11v.15c0,.34.37,8.37,5.83,10.48a9.68,9.68,0,0,0,3.51.68,8,8,0,0,0,7.7-5.3A8.09,8.09,0,0,0,60.44,37,8.51,8.51,0,0,0,55.06,32.79Zm5.12,10.38a7.25,7.25,0,0,1-7,4.79A9,9,0,0,1,50,47.34c-4.61-1.78-5.26-8.57-5.34-9.66.64-.7,4.21-4.42,8.39-4.42a7.1,7.1,0,0,1,1.84.25,7.84,7.84,0,0,1,4.92,3.87A7.31,7.31,0,0,1,60.18,43.17Z"/><path class="cls-19" d="M53.81,36a5.46,5.46,0,1,0,5.27,5.45A5.36,5.36,0,0,0,53.81,36Z"/><ellipse cx="53.81" cy="41.9" rx="3.67" ry="3.8"/><g class="cls-20"><path class="cls-18" d="M51.56,37.41a2,2,0,1,0,1.9,2A1.93,1.93,0,0,0,51.56,37.41Z"/></g><path class="cls-15" d="M88.47,17.82c-6.42,1.69-6.5,20.26-5.15,27.25,2.54,13.13,20.86-1.59,24.47-8C107.91,30.75,96.34,15.74,88.47,17.82Z"/><path class="cls-10" d="M111.84,69.42C97.28,74,84.74,63,84.74,63l-33.65.51c-10.9,8.94-18,3.84-19.41-3.63C30.63,54.35,32,47.2,33.82,42,32.28,44.52,26.26,47.91,26.2,53A30.93,30.93,0,0,1,29.91,52s-5.23,7.94-1,14.81a12,12,0,0,1,1.7-3.34s-1.2,8.26,4.53,11.72a10.6,10.6,0,0,1,.32-3.9C38.55,76,49.83,78.63,55.63,84.74c4.1,4.34,4,12.92,14.49,13.62S82.94,93,86.44,89.22c4.48-4.79,28.05-11.66,34.75-20a19.64,19.64,0,0,1,.2,3.82,12.29,12.29,0,0,0,5.1-11.34,13.32,13.32,0,0,1,3.17,3.35s2.69-6.46-.52-12.29a12.57,12.57,0,0,1,3.78,2.27c.73-5.14-1.13-10.16-3.78-14.64C130.05,55,121.71,66.34,111.84,69.42Z"/><path class="cls-12" d="M128.67,38.87l.09,1.57c.94,15-7.86,25.75-17,28.61a24,24,0,0,1-7.15,1.09c-11,0-19.51-7.35-19.59-7.42l-.11-.1L51,63.13l-.1.08c-3.78,3.1-7.27,4.67-10.38,4.67-5.08,0-7.68-4.17-8.42-8.07-1-5.53.41-12.78,2.13-17.72l1.18-3.39L33.5,41.77a15.37,15.37,0,0,1-2.41,2.62c-2.33,2.22-5.23,5-5.27,8.65v.55l.51-.19s1.44-.52,2.83-.87C28,54.72,25.05,61.24,28.58,67l.44.71.25-.79a12.12,12.12,0,0,1,.85-2c-.06,2.6.4,7.92,4.83,10.6l.65.39-.08-.76a11.94,11.94,0,0,1,.1-3c1.79,2.14,5.17,3.88,8.74,5.71,3.81,2,8.14,4.17,11,7.18a19.56,19.56,0,0,1,2.94,4.7c2,4,4.31,8.54,11.81,9,.56,0,1.11.06,1.64.06,7.58,0,10.53-3.77,13.13-7.09.63-.79,1.21-1.55,1.85-2.22,1.83-2,7-4.3,13-7,8-3.63,17-7.72,21.25-12.35a20.58,20.58,0,0,1,.09,2.92l0,.71.6-.37a12.7,12.7,0,0,0,5.33-10.85,11.83,11.83,0,0,1,2.42,2.74l.39.64.29-.69c.1-.26,2.46-6-.07-11.69a12.74,12.74,0,0,1,2.73,1.8l.53.47.09-.7c.65-4.57-.6-9.44-3.82-14.88Zm4,15.46a12.74,12.74,0,0,0-3.37-1.9l-.92-.31.47.85c2.48,4.51,1.31,9.47.74,11.27a13.89,13.89,0,0,0-2.84-2.82l-.65-.47,0,.8a12.14,12.14,0,0,1-4.33,10.56,19.32,19.32,0,0,0-.22-3.13l-.15-.82-.52.65c-3.83,4.75-13.23,9-21.53,12.78-6,2.74-11.26,5.1-13.19,7.17-.66.7-1.26,1.47-1.89,2.28C81.78,94.42,79,98,71.74,98c-.51,0-1,0-1.59,0C63.08,97.51,61,93.36,59,89.36a19.81,19.81,0,0,0-3.06-4.88c-2.94-3.1-7.33-5.35-11.2-7.33s-7.43-3.82-8.92-6.1l-.42-.64-.26.72a9.63,9.63,0,0,0-.38,3.29C30,70.92,31,63.57,31,63.5l.2-1.36-.87,1.06a11,11,0,0,0-1.48,2.68c-3.3-6.41,1.35-13.62,1.4-13.7l.49-.75-.88.17a27,27,0,0,0-3.24.9c.32-3.1,2.91-5.56,5-7.56.45-.43.87-.83,1.25-1.22C31.78,47.32,30.2,54.1,31.31,60c1,5.36,4.52,8.69,9.16,8.69,3.26,0,6.88-1.6,10.76-4.76l33.38-.5c1.06.88,9.42,7.51,20,7.51A24.79,24.79,0,0,0,112,69.78c9.13-2.85,17.9-13.24,17.63-27.81C132,46.45,133,50.51,132.63,54.33Z"/><path class="cls-21" d="M54.93,76.55c3.59,4.29,4.48,9.2,6.75,12S72.39,91.3,76.36,89c3.76-2.15,3.72-6.37,9.07-15.38C85.43,73.65,62.75,73.4,54.93,76.55Z"/><path class="cls-22" d="M72.47,80.49c-3.09-1.87-8.71-1-12.19,5.81a12,12,0,0,0,1.4,2.22c2.26,2.77,10.71,2.78,14.68.51,2.54-1.45,3.34-3.85,5.25-8C80,79,75.72,78.7,72.47,80.49Z"/><path class="cls-23" d="M77.14,78.92a10.15,10.15,0,0,0-4.66,1.14,6.65,6.65,0,0,0-3.22-.8c-3.63,0-7.11,2.57-9.32,6.87l-.08.17.08.17a9.66,9.66,0,0,0,1.58,2c1.17,1.43,3.23,2.18,6.72,2.18l.65.16A15.31,15.31,0,0,0,76.36,89c2.33-1.33,3-3.15,4.54-6.52.2-.46.48-1,.71-1.51l.11-.13.19-.1A6,6,0,0,0,77.14,78.92Zm3.6,3.68c-1.45,3.23-2.42,5.28-4.54,6.49a16.21,16.21,0,0,1-7.47,1.5c-3.21,0-6-.83-7.05-2.07a14.7,14.7,0,0,1-1-2.22C62.78,82.36,66,80,69.26,80a5.8,5.8,0,0,1,3,.79l.19.12.19-.11a9.42,9.42,0,0,1,4.49-1.14,5.53,5.53,0,0,1,4,1.39C81,81.5,80.92,82.2,80.74,82.6Z"/><path class="cls-23" d="M70,83.52a8.64,8.64,0,0,1,2.64-2.7l-.35-.66C70.66,81,70,83.52,70,83.52Z"/><path class="cls-18" d="M74.62,83.33c-.56.09-1.56,2.1-1.1,6.78A11.52,11.52,0,0,0,76.36,89,6.74,6.74,0,0,0,78.2,87.5C77.18,86.48,75.4,83.19,74.62,83.33Z"/><path class="cls-24" d="M74.67,82.94h-.12c-1,.18-1.84,2.77-1.4,7.2v.14l.36-.18a12.56,12.56,0,0,0,3-1.25,6.53,6.53,0,0,0,1.89-1.45l0-.21a14.94,14.94,0,0,1-1.3-1.71C76,83.91,75.33,82.94,74.67,82.94Zm1.5,5.76a9.92,9.92,0,0,1-2.31.93c-.36-4.37.63-5.85.8-5.93.35,0,1.29,1.41,1.86,2.22.42.6.82,1.17,1.17,1.58A6.29,6.29,0,0,1,76.17,88.7Z"/><path class="cls-25" d="M78.45,87.08v.12l0,0Z"/><path class="cls-18" d="M64.91,84.44c-.93-.19-2.57,2.81-3.24,4.07h0c1,1.18,3,1.85,5.42,2.07C66.14,87.63,65.49,84.56,64.91,84.44Z"/><path class="cls-24" d="M65,84.07c-.86-.18-1.94,1.06-3.65,4.27l.35.18c1,1.18,2.21,1.53,4.91,1.77l.51.3.36-.12c-.29-.88-.55-1.79-.78-2.59C65.92,85.26,65.59,84.19,65,84.07Zm-2.85,4.39c1.75-3.24,2.46-3.62,2.67-3.65A15.19,15.19,0,0,1,66,88.09c.19.64.39,1.35.61,2.06A7.66,7.66,0,0,1,62.13,88.46Z"/><path class="cls-26" d="M84.24,73.27c-5.2,0-22.7.21-29.45,2.93l-.48.19.33.4A29.54,29.54,0,0,1,58.8,84c.8,1.79,1.51,4.36,2.53,5.62,1.17,1.42,3.69,2.72,7.18,2.72a19.52,19.52,0,0,0,8.42-1.77c2.33-1.33,2.86-4.6,4.36-8a81.61,81.61,0,0,1,4.47-8.78l.33-.56H84.24Zm-3.64,9c-1.44,3.23-2.31,5.18-4.43,6.39a15.64,15.64,0,0,1-7.35,1.59c-3.21,0-5.84-.77-6.85-2a20,20,0,0,1-2.48-4.57,31.3,31.3,0,0,0-3.93-7C62.5,74.22,79.19,74,84.24,74h.54A80.29,80.29,0,0,0,80.6,82.31Z"/><path class="cls-17" d="M90.92,31.23c-6.13,2.08-8.38,10.44-6.85,16.13-3,12,2.37,12.5,2.25,18.54v7.75a8.49,8.49,0,0,0,2.9-11.31c-1.5-2.9-5.13-7-4.12-12.84.25-.82,3.85,3.94,11.84,1.53,7.13-2.15,8.17-10.73,10.85-13.94C104.48,36.77,99.5,28.32,90.92,31.23Z"/><path class="cls-18" d="M91.51,32.45a9.41,9.41,0,0,0-6.64,11.42c1.45,5.33,6.86,7.39,11.95,5.64,5.69-2,8.59-11.53,8.59-11.53S98.54,30.36,91.51,32.45Z"/><path d="M94,31.71a9.24,9.24,0,0,0-2.63.37A9.77,9.77,0,0,0,84.5,44a8.7,8.7,0,0,0,8.75,6.53,11.33,11.33,0,0,0,3.69-.64c5.81-2,8.71-11.37,8.83-11.77l.07-.2-.15-.16C105.47,37.48,100.19,31.71,94,31.71Zm2.66,17.44a10.54,10.54,0,0,1-3.44.59,8,8,0,0,1-8-6,9,9,0,0,1,6.39-11A8.41,8.41,0,0,1,94,32.46c5.28,0,10.06,4.7,11,5.62C104.52,39.47,101.68,47.42,96.69,49.15Z"/><path class="cls-19" d="M95,34.5a6.79,6.79,0,1,0,6.4,6.78A6.59,6.59,0,0,0,95,34.5Z"/><path class="cls-19" d="M95,34.12a7.17,7.17,0,1,0,6.77,7.16A7,7,0,0,0,95,34.12Z"/><path d="M95,37.32a4.61,4.61,0,1,0,4.34,4.6A4.47,4.47,0,0,0,95,37.32Z"/><g class="cls-20"><path class="cls-18" d="M91.84,37.33a2.45,2.45,0,1,0,2.3,2.44A2.38,2.38,0,0,0,91.84,37.33Z"/></g><path class="cls-10" d="M72.47,58.27s-11.87,1-19.33,1.61c-5.52,2.3-6.22,9.54-3.82,13.46,3.06,5,11.19,6.2,16.2,2,0,0,7.62,4.29,16.09,1.89,6.68-1.89,8-8.19,6-13S80.9,56.51,72.47,58.27Z"/><path class="cls-12" d="M77.23,57.36a23.71,23.71,0,0,0-4.82.54c-.58.05-12.08,1.06-19.3,1.61h-.06l-.06,0a8.54,8.54,0,0,0-4.83,5.4,10.77,10.77,0,0,0,.84,8.6,10.73,10.73,0,0,0,9.25,4.73,11.6,11.6,0,0,0,7.32-2.52,24.42,24.42,0,0,0,10.68,2.55,19.78,19.78,0,0,0,5.46-.75,9.42,9.42,0,0,0,6.17-4.86A10.87,10.87,0,0,0,88,64C86.24,59.65,82.52,57.36,77.23,57.36Zm10,15a8.73,8.73,0,0,1-5.69,4.47,19.52,19.52,0,0,1-5.26.71A23.76,23.76,0,0,1,65.71,75l-.23-.13-.2.17a10.86,10.86,0,0,1-7,2.5,10,10,0,0,1-8.6-4.36,10,10,0,0,1-.77-8,7.74,7.74,0,0,1,4.35-4.91c7.39-.56,19.15-1.59,19.27-1.6h0a22.94,22.94,0,0,1,4.68-.52c5,0,8.44,2.13,10.06,6.16A10.09,10.09,0,0,1,87.2,72.35Z"/><polygon class="cls-6" points="35.83 37.3 35.84 37.29 35.84 37.29 35.83 37.3"/><path class="cls-3" d="M64.9,37.41l-4.52-3.17C61.8,47.57,52,52.92,52.08,60.42,60.92,65.4,63,65.27,63,65.27l11.66-4.1A10.94,10.94,0,0,0,72,51.41Z"/><path class="cls-3" d="M68.51,42.8s-6.16-3-8.64,1.61C58.06,47.76,52,56.53,52.46,60.2s11.92,5,11.92,5L75,61.26S76.93,49.47,68.51,42.8Z"/><path class="cls-4" d="M73.9,50.44c.43,2.31,1.57,5,.43,10.45l-11.39,4c-.36,0-2.72-.34-10.48-4.69,0-2.89,1.67-5.47,3.53-8.46.86-1.37,1.75-2.81,2.55-4.36A23.7,23.7,0,0,0,60.64,42a14.8,14.8,0,0,0-.26-7.73c.82,7.72-2.29,12.71-5,17.1-2,3.16-3.68,5.89-3.65,9.08v.22l.19.11c8.42,4.74,10.82,4.9,11.1,4.9h0l12-4.19,0-.2a15.59,15.59,0,0,0,.09-6.51C74.37,52,73.9,50.44,73.9,50.44Z"/><path class="cls-27" d="M72.18,58.7c-4.29.74-7.47,3.78-9.26,3.64s-4.2-1.59-7.75-3.07c-3.78-1.58-4.74,3.1-1.66,5.84,2,1.78,7.72,5.12,10.4,5.12,1.66,0,7-1.89,9.69-4.68C76.55,62.56,76.14,58,72.18,58.7Z"/><path class="cls-28" d="M72.12,58.33A19.76,19.76,0,0,0,66,60.74,8.22,8.22,0,0,1,63,62H63a15.72,15.72,0,0,1-4.51-1.64c-.92-.43-2-.92-3.13-1.4-1.76-.74-3.25-.23-3.8,1.21a5,5,0,0,0,1.75,5.27c2.07,1.83,7.85,5.21,10.65,5.21h0c1.84,0,7.19-2,10-4.79,1.75-1.78,2.48-4.2,1.77-5.9C75.1,58.63,73.81,58,72.12,58.33Zm1.21,7c-2.75,2.79-8,4.56-9.42,4.56-2.59,0-8.21-3.3-10.14-5a4.31,4.31,0,0,1-1.55-4.43,1.56,1.56,0,0,1,1.54-1.07,3.31,3.31,0,0,1,1.26.29c1.15.48,2.19,1,3.11,1.38a16,16,0,0,0,4.76,1.72H63a8.29,8.29,0,0,0,3.35-1.32,19.24,19.24,0,0,1,5.86-2.33c1.33-.23,2.29.18,2.69,1.15C75.44,61.41,75.05,63.54,73.33,65.29Z"/><path class="cls-28" d="M63.29,62.4l-.74-.12c0,.19-.76,4.7,1,8.13l.67-.35C62.58,66.86,63.29,62.45,63.29,62.4Z"/><path class="cls-29" d="M68.45,64.43c-1.34,1.33-1.92,3.93-2.15,5.29a20.84,20.84,0,0,0,6.45-3.4C72.12,63.18,69.72,63.16,68.45,64.43Z"/><path class="cls-30" d="M54.8,66.12a33.11,33.11,0,0,0,6,3.3C59.09,64.57,56.06,63.09,54.8,66.12Z"/><path class="cls-28" d="M70.26,63.27a3,3,0,0,0-2.08.89c-1.4,1.4-2,4-2.25,5.5l-.1.61.59-.19A21,21,0,0,0,73,66.61l.18-.14,0-.22C72.75,64.38,71.68,63.27,70.26,63.27Zm-3.47,5.88a9.23,9.23,0,0,1,1.93-4.45A2.22,2.22,0,0,1,70.26,64c1,0,1.74.78,2.07,2.15A20.44,20.44,0,0,1,66.79,69.15Z"/><path class="cls-28" d="M56.65,64.17a2.49,2.49,0,0,0-2.2,1.8l-.11.28.25.17a32.64,32.64,0,0,0,6,3.35l.77.31-.27-.78C60,66.18,58.29,64.17,56.65,64.17ZM55.28,66a1.63,1.63,0,0,1,1.37-1.07c1,0,2.37,1.19,3.44,3.8A32.94,32.94,0,0,1,55.28,66Z"/><path class="cls-16" d="M85.75,19.88c3.61-1.53,7.87-.93,17,6.31C92.73,14.15,86,16.26,85.75,19.88Z"/><path class="cls-31" d="M79.26,65.61a.35.35,0,0,0-.17.45.46.46,0,0,0,.42.26c9.25-3.12,22.45,3.37,22.58,3.43a31.36,31.36,0,0,0-9.72-4.19C88.21,64.62,83.41,64.21,79.26,65.61Z"/><path class="cls-31" d="M91.52,72.8A31,31,0,0,0,77.3,69s-.23,0-.21.38.22.38.22.38h.13c12.61,0,22.88,10.07,23,10.17A28.89,28.89,0,0,0,91.52,72.8Z"/><path class="cls-31" d="M85.81,76.36A21.7,21.7,0,0,0,75,72.08s-.28.13-.28.37a.48.48,0,0,0,.21.38c10.61,1,16.76,10.6,16.82,10.7A19,19,0,0,0,85.81,76.36Z"/><path class="cls-31" d="M33.6,73.93a36.21,36.21,0,0,0-8.42,5.68c.17-.12,17-11.73,29-9a.34.34,0,0,0,.27-.37c0-.32-.11-.37-.11-.37C47.62,68.33,39.59,71.07,33.6,73.93Z"/><path class="cls-31" d="M35.19,86.11c.1-.13,10-12.71,21.54-12.71a.53.53,0,0,0,0-.76c-5.2,0-10.08,2.48-13.93,5.27A30.06,30.06,0,0,0,35.19,86.11Z"/><path class="cls-31" d="M51.83,79.75a25.65,25.65,0,0,0-4.12,7.92c0-.1,5.2-10.85,10.64-11.73a1.12,1.12,0,0,0,.16-.46c0-.19-.28-.29-.28-.29C55.9,75.57,53.67,77.52,51.83,79.75Z"/><g class="cls-5"><path class="cls-6" d="M113.78,43.92c-2.51,1.4,1.27,8.41,3.28,6.4S116.06,42.65,113.78,43.92Z"/></g><g class="cls-5"><path class="cls-6" d="M110,22.91c-2.51,1.4,1.26,8.41,3.28,6.39S112.28,21.64,110,22.91Z"/></g><g class="cls-5"><path class="cls-6" d="M117,34.64c-1.7,2.27,2.64,5.8,3.53,3.91S118.7,32.39,117,34.64Z"/></g><g class="cls-5"><path class="cls-6" d="M124.44,41.92c-2.58.41-1.7,8.1.82,7S127.43,41.45,124.44,41.92Z"/></g><g class="cls-5"><path class="cls-6" d="M121.86,52.92c-2.52-.63-3.84,4.85-2.4,6.11S124.47,53.57,121.86,52.92Z"/></g><g class="cls-5"><path class="cls-6" d="M116.47,60.1c-1.17-.88-5.7,3.15-2.8,4.67S118.74,61.81,116.47,60.1Z"/></g><path class="cls-6" d="M112.79,62.84a15.92,15.92,0,0,0,2-2.4A4.88,4.88,0,0,0,112.79,62.84Z"/><g class="cls-5"><path class="cls-6" d="M109.58,53.89c-1.63-.76-2.7,2.26-1.4,3.34S111.22,54.64,109.58,53.89Z"/></g><g class="cls-5"><path class="cls-6" d="M107.34,63.54c-1-.31-3.52.7-1.7,2S109.16,64.11,107.34,63.54Z"/></g><g class="cls-5"><path class="cls-6" d="M98.61,60.92c.81,1.14,3.42.64,2.52-1.38C100.37,57.83,97.79,59.79,98.61,60.92Z"/></g><g class="cls-5"><path class="cls-6" d="M96.59,9.43c-1.77,1.58,1.13,6.18,3.09,4.73S98.54,7.69,96.59,9.43Z"/></g><g class="cls-5"><path class="cls-6" d="M78.19,10.63c1,2.84,7.25,1.64,6.42-1.56C84.05,6.88,77.18,7.8,78.19,10.63Z"/></g><g class="cls-5"><path class="cls-6" d="M75.79,21.82c-2.52-1.23-3.21,3.68-1.26,4.37S78.38,23.08,75.79,21.82Z"/></g><g class="cls-5"><path class="cls-6" d="M71.82,33.89c-2.2-1.08-3,2.64-1.26,3.4S74,34.93,71.82,33.89Z"/></g><g class="cls-5"><path class="cls-6" d="M64.9,27.84c-2-.19-2.47,5.1,0,5.1S67.31,28.06,64.9,27.84Z"/></g><g class="cls-5"><path class="cls-6" d="M68.23,16.24c-2.21-.31-3.47,5-1.26,5.58S70.94,16.63,68.23,16.24Z"/></g><g class="cls-5"><path class="cls-6" d="M68.17,9.07c1.51,2.28,6.81.39,5.61-2.23S66.65,6.79,68.17,9.07Z"/></g><g class="cls-5"><path class="cls-6" d="M57.2,7.92c-.19,2.9,6.93,2.7,6.49,0S57.39,5,57.2,7.92Z"/></g><g class="cls-5"><path class="cls-6" d="M38.48,37.29c-1.95.06-2.58,4.73,0,5S41.2,37.2,38.48,37.29Z"/></g><g class="cls-5"><path class="cls-6" d="M39.43,49.39c-1.32,1.2.63,4.35,1.83,3.25S40.81,48.14,39.43,49.39Z"/></g><g class="cls-5"><path class="cls-6" d="M42,59.16c-3-.57-3.34,4.16-.94,5.27S44.78,59.69,42,59.16Z"/></g><g class="cls-5"><path class="cls-6" d="M34.58,57c-2.78.25-1.2,6.18.7,6S37.73,56.67,34.58,57Z"/></g><path class="cls-12" d="M65.24,71a4.68,4.68,0,0,0,0,4.53l.64-.38A5.88,5.88,0,0,1,65.24,71Z"/></g></g></svg>