<svg id="Layer_1" data-name="Layer 1" xmlns="http://www.w3.org/2000/svg" viewBox="0 0 690 320"><defs><style>.cls-1{opacity:0.3;}.cls-2{fill:#9e492f;}.cls-3{fill:#931500;}.cls-4{fill:#87331f;}.cls-5{fill:#7f1001;}.cls-6{fill:#83574e;}.cls-7{fill:#66433d;}.cls-8{fill:#fac4a1;}.cls-9{fill:#fbb488;}.cls-10{fill:#fda16c;}.cls-11{fill:#212121;}.cls-12{fill:#771f11;}.cls-13{fill:#595959;}.cls-14{fill:#b57878;}.cls-15{fill:none;stroke:#771f11;stroke-miterlimit:10;}.cls-16{fill:#231f20;}</style></defs><ellipse class="cls-1" cx="250.76" cy="276.15" rx="240.33" ry="41.72"/><path class="cls-2" d="M479.33,256a418.47,418.47,0,0,0,167.86,33c12-.15,24-.81,35.69-3.25a9.26,9.26,0,0,0,4.51-1.87c3-2.79,1-8.29-2.61-10.23s-8-1.5-12.13-1.34c-16,.65-31.73-3.6-47.16-7.81C583.13,253,538.34,240,508.9,207.38c-5.31-5.88-10-12.28-14.95-18.46a268.77,268.77,0,0,0-25.59-27.64c-6.59-6.18-13.75-12.17-22.38-14.85-14.22-4.41-29.65,1-42.56,8.42-7.94,4.56-15.6,10.09-20.7,17.69-11.42,17.05-7.64,43.51,7.49,57.23,5.7,5.17,11.21,5.21,18.53,5.26a107.7,107.7,0,0,1,33.13,5.72C454.69,245,466.93,250.7,479.33,256Z"/><path class="cls-3" d="M647.73,286.85a270.94,270.94,0,0,1-156.27-61.77c-6.9-5.75-13.66-12-17.66-20.07-6.32-12.72-4.7-27-3.08-41.43-.79-.76-1.56-1.54-2.36-2.3-6.59-6.18-13.75-12.17-22.38-14.85-14.22-4.41-29.65,1-42.56,8.42-7.94,4.56-15.6,10.09-20.7,17.69-11.42,17.05-7.64,43.51,7.49,57.23,5.7,5.17,11.21,5.21,18.53,5.26a107.7,107.7,0,0,1,33.13,5.72c12.82,4.21,25.06,9.95,37.46,15.21a418.47,418.47,0,0,0,167.86,33c12-.15,24-.81,35.69-3.25a9.26,9.26,0,0,0,4.51-1.87,4.24,4.24,0,0,0,.65-.83C675.39,287.11,661.16,287.64,647.73,286.85Z"/><path class="cls-4" d="M115.37,205.79c.47,10.22-.28,20.68-4.12,30.16s-11.09,17.91-20.67,21.47c-10.16,3.78-21.69,1.83-32,5.15C49.85,265.39,38.34,283,49.34,285c24.55,4.47,52.7,3.62,62.74,1.27,6.39-1.5,10.38-8,15.34-12.25,9-7.75,19.63-13.25,29-20.54s17.64-17.19,18.82-29a36.64,36.64,0,0,0-3.76-19.1c-8.1-17.17-26.73-28.8-45.71-28.53-5.47.07-12.12,2.27-12.73,8.6S115.07,199.36,115.37,205.79Z"/><path class="cls-5" d="M171.44,205.39c-8.1-17.17-26.73-28.8-45.71-28.53-5.47.07-12.12,2.27-12.73,8.6s2.07,13.9,2.37,20.33a93.34,93.34,0,0,1-.38,14.67c4.39,5.2,9.86,9.67,12.62,15.87,1.71,3.83,2.25,8.06,2.57,12.24a128.48,128.48,0,0,1-.43,23.53c8.44-6.77,18.09-12,26.63-18.64,9.33-7.29,17.64-17.19,18.82-29A36.64,36.64,0,0,0,171.44,205.39Z"/><path class="cls-6" d="M406,179.4c-1.78-7.45-7.83-13-13.7-17.94a100.06,100.06,0,0,0-13.7-10.12c-7.46-4.35-15.82-6.92-24.21-8.92-17.66-4.22-36-6.08-54-3.58-17.61,2.46-52.37,7.61-60.22,33.21a24.76,24.76,0,0,0-.87,9.8c1.47,13.94,11,25.71,21.5,35s22.44,17.11,31.4,27.89c2.64,3.18,4.91,8.19,1.93,11.06a7.05,7.05,0,0,1-3.52,1.62c-8.29,1.76-16.58-2.44-25-3.51-8.07-1-16.21.86-24,3.29-5.56,1.75-11.15,3.86-15.61,7.61s-7.63,9.48-7,15.27l32.44,1.13c39.34,1.37,79.59,2.63,117.11-9.29,5.88-1.86,12.58-5.16,13.31-11.28.91-7.73-8.44-13.11-9.5-20.81-.75-5.41,2.83-10.52,7.07-14s9.26-5.86,13.23-9.61c4.76-4.49,7.66-10.59,10.1-16.66C405.36,193.17,407.58,186.14,406,179.4Z"/><path class="cls-7" d="M309.5,221a319.3,319.3,0,0,0-33,2.22,53.22,53.22,0,0,0-6.58,1.22c7.86,6.32,15.82,12.54,22.25,20.27,2.64,3.18,4.91,8.19,1.93,11.06a7.05,7.05,0,0,1-3.52,1.62c-8.29,1.76-16.58-2.44-25-3.51a46.37,46.37,0,0,0-16.24,1.18c4.78.24,9.69.53,14,2.55s8.07,6.28,8,11.1-3.76,8.69-6.33,12.92c35,1,70.33.81,103.55-9.74,5.88-1.86,12.58-5.16,13.31-11.28.91-7.73-8.44-13.11-9.5-20.81-.65-4.68,1.95-9.13,5.4-12.48C356,220.69,332.44,220.4,309.5,221Z"/><path class="cls-5" d="M112.08,286.25a12.93,12.93,0,0,0,3.06-1.21l-1.76.14a140.55,140.55,0,0,1-34.5-2.26,30.54,30.54,0,0,1-9.68-3.14c-2.94-1.72-5.43-4.51-6-7.86l-6.85,4.24a10.38,10.38,0,0,1,1-5.34,11.79,11.79,0,0,0-6.19,3.68,9.93,9.93,0,0,1-.78-5.92c-5.52,6.25-8.62,15-1,16.4C73.89,289.45,102,288.6,112.08,286.25Z"/><path class="cls-2" d="M452.33,142.89c-7.53-12.32-22.16-18.14-35.53-23.59-27.89-11.39-56.55-22.55-86.64-24.21-7.74-.43-23.18.38-23.18.38l-19.89,2.22s-29.3,4.7-44,6.26C214,107,182.43,105,159.18,87.35c-8.54-6.49-15.63-14.88-24.82-20.4-20.28-12.18-46.78-7.89-67.91,2.73-4.54,2.27-9.31,6.28-7.4,12,1.82,5.38,6.68,10.74,9.21,16a172.33,172.33,0,0,1,13.37,39.57A169.6,169.6,0,0,1,84.82,161c.49,7.78.48,15.76,3.09,23.11,5,14.1,18.52,23.12,31.48,30.59,8.92,5.15,18.1,10.09,28.05,12.77,15.67,4.22,32.23,2.58,48.47,2.83,62.31,1,122,30.29,184.26,28.65,17.29-.45,34.87-3.44,50.06-11.71s33.81-19.77,38.64-36.38C474.46,191.64,465.59,164.58,452.33,142.89Z"/><path class="cls-8" d="M461.06,210.12c-13.16,12.94-31.2,21.18-49.56,24.52-25.05,4.56-50.84,1.16-75.85-3.58a720.3,720.3,0,0,1-147.42-44.67c-8.19-3.48-16.45-7.19-23.19-13-13.63-11.76-19.19-30.78-18.71-48.78.37-14,3.94-27.66,8.19-41.08-6.6-5.72-12.69-12.09-20.16-16.58-20.28-12.18-46.78-7.89-67.91,2.73-4.54,2.27-9.31,6.28-7.4,12,1.82,5.38,6.68,10.74,9.21,16a172.33,172.33,0,0,1,13.37,39.57A169.6,169.6,0,0,1,84.82,161c.49,7.78.48,15.76,3.09,23.11,5,14.1,18.52,23.12,31.48,30.59,8.92,5.15,18.1,10.09,28.05,12.77,15.67,4.22,32.23,2.58,48.47,2.83,62.31,1,122,30.29,184.26,28.65,17.29-.45,34.87-3.44,50.06-11.71C444.75,239.3,456.87,226.05,461.06,210.12Z"/><path class="cls-2" d="M158.75,4.31a9,9,0,0,1,3.34-1.73,6.55,6.55,0,0,1,3.84.56c4.45,1.88,7.37,6.5,8,11.29a10.31,10.31,0,0,1-1.11,6.85c-1.91,3.08-5.75,4.26-9.31,5a78.4,78.4,0,0,1-12.87,1.46c-5.19.17-11-5.15-7.7-10.46,1.66-2.65,4.84-4.61,7.26-6.52Q154.41,7.42,158.75,4.31Z"/><path class="cls-2" d="M30.59,7a9.12,9.12,0,0,0-3.34-1.73,6.65,6.65,0,0,0-3.84.56C19,7.69,16,12.31,15.37,17.1A10.32,10.32,0,0,0,16.48,24c1.91,3.08,5.75,4.26,9.31,5a80.64,80.64,0,0,0,12.87,1.46c5.19.17,11-5.15,7.7-10.47-1.66-2.64-4.84-4.6-7.26-6.51Q34.93,10.07,30.59,7Z"/><path class="cls-9" d="M130.28,203.64a45.18,45.18,0,0,1-2.78-19.4c.84-10.76,5.49-20.78,9.16-30.93a179.48,179.48,0,0,0,9.12-37.26c1.25-9.4,1.74-19-.2-28.32a44.34,44.34,0,0,0-9-19.32c-.74-.5-1.47-1-2.23-1.46-20.28-12.18-46.78-7.89-67.91,2.73-4.54,2.27-9.31,6.28-7.4,12,1.82,5.38,6.68,10.74,9.21,16a172.33,172.33,0,0,1,13.37,39.57A169.6,169.6,0,0,1,84.82,161c.49,7.78.48,15.76,3.09,23.11,5,14.1,18.52,23.12,31.48,30.59,8.91,5.14,18.07,10.08,28,12.76C140.14,220.54,133.79,212.9,130.28,203.64Z"/><path class="cls-10" d="M136.59,68.41c-.74-.5-1.47-1-2.23-1.46-20.28-12.18-46.78-7.89-67.91,2.73-4.54,2.27-9.31,6.28-7.4,12,1.82,5.38,6.68,10.74,9.21,16a172.33,172.33,0,0,1,13.37,39.57A169.6,169.6,0,0,1,84.82,161c.2,3.09.32,6.21.55,9.32,5-15.88,12.92-30.56,25.06-41.8,10.83-10,24.26-16.68,36.4-25.08a67.52,67.52,0,0,0-1.25-15.68A44.34,44.34,0,0,0,136.59,68.41Z"/><path class="cls-2" d="M166,32a46.15,46.15,0,0,0-11.5-11.74,89.28,89.28,0,0,0-37-16.32C110.32,2.56,96,2.13,96,2.13l-5.44.32S69.45,6.34,59.67,11.72,41,23.69,34.48,32.58s-10.08,20.2-8.15,31C29.16,79.4,43.64,98.83,95.56,106c8.81,1.2,29.31-2.14,36.9-6.77,12.06-7.36,25.73-14.54,32.66-26.86S173.58,43.91,166,32Z"/><path class="cls-3" d="M153.87,62c-8.23-2.68-9.85-13.79-14-21.39a40.39,40.39,0,0,0-10.51-12.91c-1.7-1.34-5.53-1.6-7.7-1.59-3.11,0-5.66,2.78-6.5,5.77S113,65,96.46,66.66C85.05,67.83,79.54,41.59,78.67,36.25,78,32,72.35,24.31,68.05,24.07c-7.9-.44-9.18,5.16-11,9.19s-2,6.45-5.47,9.18a4.69,4.69,0,0,1-3.45,1.16c-2.51-.38-3.49-3.47-3.64-6A33.61,33.61,0,0,1,49.61,18,65.47,65.47,0,0,0,34.48,32.58c-6.46,8.88-10.08,20.2-8.15,31C29.16,79.4,43.64,98.83,95.56,106c8.81,1.2,29.31-2.14,36.9-6.77,12.06-7.36,25.73-14.54,32.66-26.86a46.22,46.22,0,0,0,5.48-16.19C166.12,60.93,159.91,64,153.87,62Z"/><path class="cls-8" d="M80.92,59.26c-8.75-1-17.52,2.32-24.87,7.17-3.4,2.24-6.7,5-8.26,8.74-2.45,5.88.15,13,4.92,17.2S64,98.35,70.3,99c7.22.69,14.87-.06,21-3.91C108.74,84.14,99.22,61.32,80.92,59.26Z"/><path class="cls-9" d="M80.92,59.26a32.3,32.3,0,0,0-14.23,1.85c-.08,3.25,2.31,6.48,4.84,8.83,3.06,2.84,6.71,5.79,7.09,10,.32,3.38-1.79,6.65-4.64,8.51a20.15,20.15,0,0,1-9.7,2.72c-4.5.3-9.29-.16-13-2.77a18,18,0,0,1-3.68-3.72,17.8,17.8,0,0,0,5.07,7.74C57.48,96.59,64,98.35,70.3,99c7.22.69,14.87-.06,21-3.91C108.74,84.14,99.22,61.32,80.92,59.26Z"/><path class="cls-8" d="M115.15,59.26c8.75-1,17.52,2.32,24.87,7.17,3.4,2.24,6.7,5,8.26,8.74,2.45,5.88-.15,13-4.92,17.2s-11.25,6-17.58,6.59c-7.23.69-14.87-.06-21-3.91C87.33,84.14,96.86,61.32,115.15,59.26Z"/><path class="cls-9" d="M124.47,90.69c-4.48-2.37-8.55-6.88-7.84-11.89.61-4.3,4.41-7.31,7.92-9.86l8.67-6.28a34.33,34.33,0,0,0-18.07-3.4c-18.29,2.06-27.82,24.88-10.39,35.79,6.15,3.85,13.79,4.6,21,3.91,6.16-.59,12.46-2.29,17.18-6.27A26.29,26.29,0,0,1,124.47,90.69Z"/><path class="cls-11" d="M116.46,61.68a3.49,3.49,0,0,0-.6-1.72,4.24,4.24,0,0,0-2-1.28,20.43,20.43,0,0,0-6.73-1.32c-5.56-.08-10.53,1.31-16.1.43-3.79-.6-10.44-1.14-13,2.53a6,6,0,0,0-.4,5.48,15.11,15.11,0,0,0,3.19,4.7c4.31,4.74,9.49,9,15.64,10.76a5.15,5.15,0,0,0,3,.21,5.71,5.71,0,0,0,2-1.25l8-6.79C113.05,70.34,117,66.41,116.46,61.68Z"/><path class="cls-2" d="M156.75,194.38c-2,6.69.13,14.06,4.06,19.82s9.5,10.18,15.11,14.31,11.43,8.12,16.08,13.31,8.1,11.84,7.95,18.81c-.07,2.92-.88,6-3.11,7.91-2.91,2.49-7.17,2.18-11,2.1a60.19,60.19,0,0,0-19.31,2.81A34.07,34.07,0,0,0,154,280.13c-3.55,3.19-9.63,8.91-6.38,12.4,5.17,5.56,51.54,4,57.07,3.13,3.89-.62,7.48-2.39,11-4.14,10.08-5,20.66-10.42,26.65-19.95,4.3-6.83,5.75-15.12,5.86-23.19.22-16.28-4.88-32.84-15.44-45.25S205,176.83,187.5,176.85C165.65,176.88,159.12,186.33,156.75,194.38Z"/><path class="cls-3" d="M185.84,270.64a60.3,60.3,0,0,0-6.16.24,84.74,84.74,0,0,1,26.79,4.44c-1.62-2.84-3.29-5.84-3.29-9.1,0-2.55,1-5,1.61-7.44,2-8.47-1.21-17.45-6.33-24.49a49,49,0,0,0-9.22-9.58c-6.24-4.92-13.83-8.44-18.48-14.89-3-4.2-4.53-9.3-5.7-14.35-.71-3-1.31-6.16-.75-9.21a10.05,10.05,0,0,1,2.33-4.84,21.37,21.37,0,0,0-9.89,13c-2,6.69.13,14.06,4.06,19.82s9.5,10.18,15.11,14.31,11.43,8.12,16.08,13.31,8.1,11.84,7.95,18.81c-.07,2.92-.88,6-3.11,7.91C193.93,271,189.67,270.72,185.84,270.64Z"/><path class="cls-12" d="M178.69,230.78A93.37,93.37,0,0,1,165.5,220a38.67,38.67,0,0,1-5.29-6.72,28.69,28.69,0,0,1-3.32-7.89,21.8,21.8,0,0,1-.47-8.51,23.22,23.22,0,0,1,3-8,20.74,20.74,0,0,1,5.74-6.24c.58-.41,1.17-.79,1.78-1.16s1.26-.66,1.88-1a19.81,19.81,0,0,1,3.94-1.59,19,19,0,0,0-3.91,1.65c-.62.34-1.25.67-1.86,1s-1.19.76-1.76,1.19a20.59,20.59,0,0,0-5.6,6.26,23.1,23.1,0,0,0-2.8,7.91,21.54,21.54,0,0,0,.59,8.34,28,28,0,0,0,3.36,7.68,38.63,38.63,0,0,0,5.3,6.53A92.88,92.88,0,0,0,179.27,230Z"/><path class="cls-3" d="M204.68,295.66a35.1,35.1,0,0,0,9.78-3.54,110.13,110.13,0,0,1-29.13.41c-5.17-.61-10.4-1.63-15-4.16a3.76,3.76,0,0,1-1.46-1.21c-1-1.64.65-3.59,2.14-4.8a21.72,21.72,0,0,0-9.6,5.38,13.85,13.85,0,0,1,2.18-6.05l-8.44,3.36a3.23,3.23,0,0,1-1.42.32c-1.56-.15-1.85-2.17-1.4-3.75-3.46,3.27-7.56,7.91-4.77,10.91C152.78,298.09,199.15,296.54,204.68,295.66Z"/><path class="cls-2" d="M469.87,198.57c-1.47-7.52-7.3-13.33-13-18.49a100.59,100.59,0,0,0-13.28-10.65c-7.28-4.65-15.53-7.56-23.84-9.9C402.32,154.61,384,152,366,153.79c-17.69,1.74-52.63,5.49-61.51,30.75a24.64,24.64,0,0,0-1.26,9.75c.9,14,10,26.14,20.08,35.85s21.72,18,30.24,29.13c2.51,3.28,4.58,8.38,1.49,11.12a7.12,7.12,0,0,1-3.59,1.48c-8.36,1.43-16.46-3.1-24.82-4.51-8-1.35-16.23.2-24.08,2.32-5.62,1.52-11.3,3.4-15.9,7s-8,9.16-7.59,15l32.36,2.44c39.26,2.95,79.43,5.83,117.4-4.57,5.94-1.62,12.78-4.65,13.75-10.74,1.22-7.68-7.9-13.43-8.66-21.17-.53-5.43,3.26-10.39,7.63-13.66s9.49-5.48,13.61-9.07c4.93-4.3,8.08-10.27,10.76-16.24C468.71,212.29,471.21,205.36,469.87,198.57Z"/><path class="cls-3" d="M339.08,158.16c-14.69,3.89-29.31,11.28-34.62,26.38a24.64,24.64,0,0,0-1.26,9.75c.9,14,10,26.14,20.08,35.85s21.72,18,30.24,29.13a14.81,14.81,0,0,1,2.9,6.19,10.87,10.87,0,0,0,2.94-4.82c1.6-5,.72-10.45-.68-15.5a45,45,0,0,0-4.61-11.32c-6.6-10.94-19.26-17.12-25.91-28-6.28-10.28-6.13-23.89-.47-34.53A40.14,40.14,0,0,1,339.08,158.16Z"/><path class="cls-3" d="M378.35,296.61a189.9,189.9,0,0,1-19.84-2.18c-18.76-3.11-37.85-3.5-56.61-6.59-1.46-.24-3.12-.62-3.82-1.92-.92-1.72.43-3.73,1.7-5.2a15.42,15.42,0,0,0-7.88,4.49,8.29,8.29,0,0,1,1.31-5.95,9.07,9.07,0,0,0-7.22,4.36,20.53,20.53,0,0,1,3.38-8.81,28.12,28.12,0,0,0-2.75,1.85c-4.6,3.57-8,9.16-7.59,15l32.36,2.44C333.61,295.74,356.11,297.38,378.35,296.61Z"/><path class="cls-13" d="M82.56,64.48a4.13,4.13,0,0,0,2.73.69l8.92.1c1.43,0,3.09.15,3.91,1.32s.34,2.86-.09,4.27-.69,3.2.45,4.15a3.55,3.55,0,0,0,3.4.17A13.74,13.74,0,0,0,110.7,65c.23-1.21.23-2.64-.67-3.48a4.09,4.09,0,0,0-2.34-.82c-5.71-.69-11.48,0-17.19-.54-1.87-.19-4.93-1.54-6.72-.72S81.05,63.13,82.56,64.48Z"/><path class="cls-14" d="M155.63,14.4A18.85,18.85,0,0,1,159.44,11a6.26,6.26,0,0,1,4.94-.88c2.29.68,3.73,3.08,4,5.46.27,2.19-.39,4.67-2.26,5.85a7.91,7.91,0,0,1-2.56.91,71.86,71.86,0,0,1-7.85,1.33,8,8,0,0,0,2.84-4,5.34,5.34,0,0,1-4.67,2.13c.5-.75,1-1.5,1.49-2.24-.28.41-4,1.84-4.43.67S154.75,15.36,155.63,14.4Z"/><path class="cls-3" d="M164.38,10.08a6.26,6.26,0,0,0-4.94.88,18.85,18.85,0,0,0-3.81,3.44c-.88,1-5.1,4.44-4.66,5.75s4.15-.26,4.43-.67c-.5.74-1,1.49-1.49,2.24a5.34,5.34,0,0,0,4.67-2.13,8,8,0,0,1-2.84,4c2.15-.24,4.29-.61,6.41-1-.14-.11-.31-.19-.44-.31-2.44-2.37-1.09-6.71,1.47-8.94a17.2,17.2,0,0,1,3.12-2.06A4.84,4.84,0,0,0,164.38,10.08Z"/><path class="cls-14" d="M33.71,17.07a18.27,18.27,0,0,0-3.81-3.44A6.26,6.26,0,0,0,25,12.75c-2.29.68-3.73,3.08-4,5.45-.27,2.19.39,4.68,2.26,5.86a8.15,8.15,0,0,0,2.56.91A74.35,74.35,0,0,0,33.6,26.3a7.93,7.93,0,0,1-2.84-4.05,5.32,5.32,0,0,0,4.67,2.14l-1.49-2.25c.28.42,4,1.85,4.43.68C38.81,21.5,34.59,18,33.71,17.07Z"/><path class="cls-3" d="M33.71,17.07a18.27,18.27,0,0,0-3.81-3.44A6.26,6.26,0,0,0,25,12.75a5,5,0,0,0-2.41,1.72c3.05.19,6.35,1.12,7.86,3.75a7.59,7.59,0,0,1,.83,4.53,5.3,5.3,0,0,0,4.19,1.64l-1.49-2.25c.28.42,4,1.85,4.43.68C38.81,21.5,34.59,18,33.71,17.07Z"/><path class="cls-3" d="M33.6,26.3a7.9,7.9,0,0,1-2.43-3,25.5,25.5,0,0,1-.45,2.59C31.68,26,32.64,26.19,33.6,26.3Z"/><path class="cls-11" d="M114.49,30.63a14.39,14.39,0,0,1,5.87-3.71,12,12,0,0,1,7-.2,13.86,13.86,0,0,1,6.08,3.55,18.28,18.28,0,0,1,4,5.71,26.67,26.67,0,0,0-2.08-2.74,20.92,20.92,0,0,0-2.4-2.4,15.31,15.31,0,0,0-5.83-3.16,12.73,12.73,0,0,0-6.57,0,15.08,15.08,0,0,0-3.16,1.19A19.63,19.63,0,0,0,114.49,30.63Z"/><path class="cls-11" d="M57.76,31.57a10.71,10.71,0,0,1,2.69-5.21A8,8,0,0,1,63,24.62,8.37,8.37,0,0,1,66,24a11.57,11.57,0,0,1,5.72,1.72,17.87,17.87,0,0,1,4.45,3.8,29,29,0,0,0-4.83-3.11A12.28,12.28,0,0,0,66,25a8,8,0,0,0-2.66.48A8.17,8.17,0,0,0,61,26.92,13.49,13.49,0,0,0,57.76,31.57Z"/><path class="cls-15" d="M684.78,273.66c-3.64-1.94-8-1.5-12.13-1.34-16,.65-31.73-3.6-47.16-7.81C583.13,253,538.34,240,508.9,207.38c-5.31-5.88-10-12.28-14.95-18.46a267.8,267.8,0,0,0-23.23-25.34h0c-.79-.76-1.56-1.54-2.36-2.3a97.21,97.21,0,0,0-10.72-8.93q-2.5-4.86-5.31-9.46c-7.53-12.32-22.16-18.14-35.53-23.59-27.89-11.39-56.55-22.55-86.64-24.21-7.74-.43-23.18.38-23.18.38l-19.89,2.22s-29.3,4.7-44,6.26C214,107,182.43,105,159.18,87.35c-1.38-1-2.7-2.14-4-3.27a44.09,44.09,0,0,0,10-11.75c.64-1.12,1.21-2.29,1.75-3.48l.28-.6c.53-1.21,1-2.44,1.44-3.7,0,0,0-.1,0-.15C172.29,53.63,172,41.48,166,32a35.81,35.81,0,0,0-4.3-5.42c.62-.11,1.24-.21,1.86-.33,3.56-.7,7.4-1.88,9.31-5A10.31,10.31,0,0,0,174,14.43c-.67-4.79-3.59-9.41-8-11.29a6.55,6.55,0,0,0-3.84-.56,9,9,0,0,0-3.34,1.73q-4.33,3.11-8.51,6.41c-1.45,1.15-3.18,2.32-4.68,3.64a89.45,89.45,0,0,0-28-10.43C110.32,2.56,96,2.13,96,2.13l-5.44.32S69.45,6.34,59.67,11.72A102.46,102.46,0,0,0,49.61,18h0c-1,.74-2,1.51-3,2.29-.07-.13-.12-.26-.2-.39-1.66-2.64-4.84-4.6-7.26-6.51Q34.93,10.07,30.59,7a9.12,9.12,0,0,0-3.34-1.73,6.65,6.65,0,0,0-3.84.56C19,7.69,16,12.31,15.37,17.1A10.32,10.32,0,0,0,16.48,24c1.91,3.08,5.75,4.26,9.31,5a80.83,80.83,0,0,0,10.53,1.34c-.62.76-1.25,1.52-1.83,2.31h0c-5.25,7.22-8.62,16-8.67,24.91a33.91,33.91,0,0,0,.52,6.11c2.29,12.77,12.19,27.9,43.29,37A172.24,172.24,0,0,1,76.15,117c.95,2.83,1.82,5.69,2.63,8.57,1.08,3.84,2,7.71,2.85,11.62s1.48,7.86,2,11.82S84.57,157,84.82,161c.09,1.33.16,2.68.23,4,.09,1.77.19,3.53.32,5.29h0a66.09,66.09,0,0,0,1.22,9,37.89,37.89,0,0,0,1.32,4.77,35.42,35.42,0,0,0,2.26,5.06,39.82,39.82,0,0,0,4.19,6.19c.22.28.44.55.67.82,5.52,6.5,12.92,11.68,20.44,16.21,0,2.71-.18,5.41-.48,8.1A58.44,58.44,0,0,1,111.25,236c-3.84,9.48-11.08,17.91-20.67,21.47-10.16,3.78-21.69,1.83-32,5.15-3.07,1-6.48,3.81-9.13,7.14,0,.06-.1.13-.16.19l-.75,1c0,.06-.09.12-.13.19q-.42.59-.81,1.2l0,0c-.24.37-.46.75-.67,1.13a2.15,2.15,0,0,0-.14.26c-.19.35-.37.69-.53,1l-.08.15c-.18.39-.34.78-.49,1.17,0,.07,0,.15-.08.22-.11.31-.22.62-.31.93,0,.09-.05.19-.08.28a10.46,10.46,0,0,0-.34,2.13,2.35,2.35,0,0,0,0,.26,6.23,6.23,0,0,0,0,.76c0,.08,0,.16,0,.24a6.4,6.4,0,0,0,.2.89l.06.13a5.11,5.11,0,0,0,.31.67l.14.22a4.1,4.1,0,0,0,.46.57l.11.13a4.69,4.69,0,0,0,.74.57l.22.13a6.35,6.35,0,0,0,.74.35l.29.11a8.63,8.63,0,0,0,1.17.31c1.53.28,3.08.53,4.64.77,3.11.48,6.26.88,9.41,1.21,1.57.16,3.14.31,4.7.43,18.74,1.54,36.46.63,44-1.14,6.39-1.5,10.38-8,15.34-12.25.76-.66,1.55-1.28,2.33-1.9h0c6.11-4.91,12.85-9,19.35-13.39l.1-.07c1-.67,2-1.35,2.94-2l.78-.55c1.14-.82,2.27-1.66,3.38-2.53l.08-.06a67.89,67.89,0,0,0,8.26-7.57A41.64,41.64,0,0,0,174,230.37h4.48c2,1.44,3.94,2.88,5.85,4.39a61.18,61.18,0,0,1,7.68,7.06c4.65,5.19,8.1,11.84,7.95,18.81a15.81,15.81,0,0,1-.38,3.06l-.12.47a8.64,8.64,0,0,1-2.61,4.38,7.77,7.77,0,0,1-2.41,1.39,19.82,19.82,0,0,1-7.14.75l-1.45,0c-1.25,0-2.49,0-3.73.09a59.72,59.72,0,0,0-15.58,2.72A34.07,34.07,0,0,0,154,280.13c-1,.91-2.21,2-3.35,3.22l-.25.26c-.13.13-.24.26-.36.4s-.23.25-.34.37l-.32.38-.34.41-.28.36-.33.46-.24.33-.32.52-.18.28a8.46,8.46,0,0,0-.41.79l0,.07a7,7,0,0,0-.28.71,2.33,2.33,0,0,0-.07.25,4.94,4.94,0,0,0-.13.52l0,.28a3.83,3.83,0,0,0,0,.47,2.81,2.81,0,0,0,0,.29,2.34,2.34,0,0,0,.07.45,2.44,2.44,0,0,0,.06.26,3.71,3.71,0,0,0,.19.46,1.51,1.51,0,0,0,.11.22,3.09,3.09,0,0,0,.47.64c1.13,1.22,4.23,2.09,8.45,2.71l1.87.25a221.05,221.05,0,0,0,25.29,1.06l2.34,0,4.48-.08c2.16-.05,4.18-.12,6-.2,1.22-.05,2.34-.1,3.36-.16,1.53-.08,2.81-.17,3.78-.26.64-.06,1.15-.11,1.49-.17a22.67,22.67,0,0,0,2.71-.63c.36-.1.71-.23,1.06-.35.52-.18,1-.35,1.55-.55l1.4-.59,1.09-.48c1.08-.5,2.14-1,3.2-1.54,6.37-3.15,12.93-6.49,18.41-10.91l17.37.6q9.06.32,18.18.57l2.51.07,4,.08,3.11.05,2.46,0a16.53,16.53,0,0,0-2.68,7.45,13,13,0,0,0,0,2.16l32.36,2.44,7.83.58,2,.15,6,.42,2.49.16c1.86.13,3.72.24,5.59.36l2.61.15,5.49.29,2.62.12c1.87.09,3.75.16,5.63.22l2.4.09c2,.06,4.07.1,6.1.13l1.92,0q3.79,0,7.58,0h.41c2.77,0,5.53-.08,8.3-.18h0c17.06-.59,33.95-2.59,50.44-7.11,5.94-1.62,12.78-4.65,13.75-10.74,1.22-7.68-7.9-13.43-8.66-21.17-.53-5.43,3.26-10.39,7.63-13.66,1-.78,2.13-1.5,3.23-2.19,8.12,2.82,16,6.19,23.9,9.61,3.56,1.54,7.12,3.09,10.69,4.61a417.43,417.43,0,0,0,92.82,27.14,417.16,417.16,0,0,0,64.28,5.9c3.58.05,7.17.06,10.76,0,12-.15,24-.81,35.69-3.25a9.26,9.26,0,0,0,4.51-1.87C690.42,281.1,688.42,275.6,684.78,273.66Zm-422.63-20c-.74,0-1.49,0-2.24,0l-.76,0c-.7,0-1.41.08-2.11.14l-1.24.13-1.21.16c-1,.15-2,.31-3,.51l-.25,0c-1.21.24-2.42.5-3.62.8a62.41,62.41,0,0,0,.5-7.09,75.27,75.27,0,0,0-.81-12c15.49,3.07,30.9,6.9,46.31,10.53,1.81,3,2.75,6.6.39,8.88a5.49,5.49,0,0,1-1.63,1.05,11.42,11.42,0,0,1-1.89.57,19.62,19.62,0,0,1-3.11.4c-7.26.36-14.52-3-21.87-3.91-.9-.11-1.79-.18-2.68-.22C262.66,253.67,262.41,253.66,262.15,253.66Z"/><path class="cls-16" d="M132.38,80.92a120.88,120.88,0,0,1,64,17.63,120.55,120.55,0,0,0-64-16.63Z"/><path class="cls-16" d="M127.77,77.69a120.91,120.91,0,0,1,66.05,6.88A120.37,120.37,0,0,0,128,78.68Z"/><path class="cls-16" d="M132.26,72.64a121,121,0,0,1,66.39,1.65,120.4,120.4,0,0,0-66.13-.68Z"/><ellipse class="cls-16" cx="132.39" cy="81.42" rx="0.54" ry="0.98"/><ellipse class="cls-16" cx="127.84" cy="78.19" rx="0.54" ry="0.98" transform="matrix(0.99, -0.16, 0.16, 0.99, -11.09, 22.01)"/><ellipse class="cls-16" cx="132.39" cy="73.12" rx="0.54" ry="0.98" transform="matrix(0.96, -0.28, 0.28, 0.96, -15.3, 40.54)"/><path class="cls-16" d="M67.38,84.31a120.55,120.55,0,0,0-64,16.63,121.13,121.13,0,0,1,64-17.63Z"/><path class="cls-16" d="M71.83,81.07A120.62,120.62,0,0,0,6,87,121,121,0,0,1,72,80.09Z"/><path class="cls-16" d="M67.26,76a120.4,120.4,0,0,0-66.13.68A120.82,120.82,0,0,1,67.52,75Z"/><ellipse class="cls-16" cx="67.39" cy="83.81" rx="0.54" ry="0.98"/><ellipse class="cls-16" cx="71.94" cy="80.59" rx="0.98" ry="0.54" transform="translate(-19.35 138.34) rotate(-80.57)"/><ellipse class="cls-16" cx="67.39" cy="75.52" rx="0.98" ry="0.54" transform="translate(-24.14 118.73) rotate(-73.53)"/><path class="cls-15" d="M115.47,212.36a94.25,94.25,0,0,0,58.52,18"/><path class="cls-15" d="M247.7,255.47a35.52,35.52,0,0,1-13.6,25.14"/><path class="cls-15" d="M293.7,246.92c8.95,2.37,18.62,4.6,29,6.53s20.44,3.38,29.74,4.4"/><path class="cls-12" d="M350.61,155.7c-9.8,1.66-19.6,4.18-28.33,9a52.67,52.67,0,0,0-6.22,4.11,41.58,41.58,0,0,0-5.38,5.15,35.58,35.58,0,0,0-4.17,6.15,30.24,30.24,0,0,0-1.52,3.39,21.13,21.13,0,0,0-1.13,3.54c-1.12,4.86-.48,9.94.77,14.71a49.37,49.37,0,0,0,6.26,13.45,78.64,78.64,0,0,0,9.35,11.57c3.45,3.58,7.17,6.89,10.92,10.17,7.49,6.54,15.22,12.95,21.52,20.75a18.6,18.6,0,0,1,3.81,6.51,8,8,0,0,1,.26,3.85,5,5,0,0,1-2.3,3.15,9.3,9.3,0,0,1-3.69,1.09,21.86,21.86,0,0,1-3.79.16,35.76,35.76,0,0,1-7.43-1.27c-4.83-1.27-9.52-3-14.42-3.65a48,48,0,0,0-14.73.75c-2.43.45-4.84,1-7.24,1.68s-4.78,1.34-7.1,2.2c-4.6,1.7-9.07,4.1-12.24,7.83l0-.05-1.54,2.37-.84-.54,1.55-2.37,0,0,0,0c3.34-3.91,8-6.35,12.67-8.06,2.36-.86,4.77-1.56,7.19-2.19s4.85-1.22,7.31-1.67a48.71,48.71,0,0,1,15-.7c5,.65,9.72,2.46,14.5,3.73a35.52,35.52,0,0,0,7.27,1.28,20.42,20.42,0,0,0,3.67-.14,8.63,8.63,0,0,0,3.43-1,4.27,4.27,0,0,0,2-2.71,7.29,7.29,0,0,0-.23-3.52,18.07,18.07,0,0,0-3.67-6.3c-6.22-7.77-13.9-14.19-21.37-20.77-3.73-3.29-7.45-6.63-10.9-10.24a78.94,78.94,0,0,1-9.35-11.67,49.3,49.3,0,0,1-6.24-13.57c-1.25-4.81-1.87-9.93-.72-14.84a21.23,21.23,0,0,1,1.15-3.57,32.69,32.69,0,0,1,1.55-3.41,35.62,35.62,0,0,1,4.22-6.17,41.32,41.32,0,0,1,5.43-5.15,51.72,51.72,0,0,1,6.25-4.1C331,159.8,340.81,157.32,350.61,155.7Z"/><path class="cls-15" d="M457.64,152.35c15.45,26.64,17.44,55.85,3.7,75a48.63,48.63,0,0,1-16.6,14.36"/></svg>