<svg id="Layer_1" data-name="Layer 1" xmlns="http://www.w3.org/2000/svg" viewBox="0 0 256 256"><defs><style>.cls-1{fill:#323232;opacity:0.4;}.cls-2{fill:#e0d0cd;}.cls-3{fill:#fff2ee;}.cls-4{fill:#635957;}.cls-5{fill:#b25c13;}.cls-6{fill:#c56f25;}.cls-7{fill:#472006;}.cls-8{fill:#d10d0d;}.cls-9{fill:#330202;}.cls-10{fill:#680404;}.cls-11{fill:#a00505;}.cls-12{fill:#ba0404;}.cls-13{fill:#9e0404;}.cls-14{fill:#c1c0bf;}.cls-15{fill:#fff;}.cls-16{fill:#4c270c;}.cls-17{fill:#000a19;}.cls-18{fill:#96431a;}.cls-19{fill:#f9c59b;}.cls-20{fill:#490303;}.cls-21{fill:#ed6969;}.cls-22{fill:#f98282;}.cls-23{fill:#bc3939;}.cls-24{fill:#211b1a;}.cls-25{fill:#312927;}.cls-26{fill:#070505;}.cls-27{fill:#0f0c0b;}.cls-28{fill:#1e1817;}.cls-29{fill:#60524f;}</style></defs><ellipse class="cls-1" cx="130.33" cy="216.25" rx="80.4" ry="18.34"/><path class="cls-2" d="M73.81,150.52c-.56,16,3.5,48.84,0,54.18-.79,1.2-7.83,2.22-9.55,6.76-1,2.52-1.24,7,1.47,7.09.78,1.64,3,4.85,9.64,2.28.91.48,4.38,2.18,6.29-.9,1.17-1.28,11.42-.18,12.58-10.67.52-7.17,2.19-27.61-.77-35.58C90.68,166.17,73.81,150.52,73.81,150.52Z"/><path class="cls-3" d="M78,155.5a27.69,27.69,0,0,1-4.14-5c-.56,16,3.5,48.84,0,54.18-.79,1.2-7.83,2.22-9.55,6.76-1,2.52-1.24,7,1.47,7.09.69,1.44,2,4.22,6.94,3.09a5.75,5.75,0,0,0,2.54-.92c.29-.06-1.8-5.28,1.54-7.75C99.1,196.37,83.11,165.37,78,155.5Z"/><path class="cls-4" d="M70.92,222.11a5.69,5.69,0,0,1-5.39-3.25,2.13,2.13,0,0,1-1.61-1c-1-1.5-.74-4.49,0-6.55,1.21-3.2,4.93-4.71,7.39-5.71a6.85,6.85,0,0,0,2.19-1.12c2.12-3.22,1.37-17.33.64-31-.44-8.34-.9-17-.69-23l0-.69.51.47c.7.64,17,15.79,19.75,23.29,2.85,7.69,1.46,26.62.86,34.7l-.07,1c-.91,8.21-7.26,9.54-10.67,10.26a6.09,6.09,0,0,0-2,.59,3.82,3.82,0,0,1-3.39,1.92h0a7.13,7.13,0,0,1-3.18-.87A12.65,12.65,0,0,1,70.92,222.11Zm3.19-70.88c-.16,6,.28,14.27.71,22.28.76,14.38,1.49,28-.75,31.36a6.13,6.13,0,0,1-2.48,1.36c-2.36,1-5.92,2.4-7,5.35-.71,1.89-1,4.71-.1,6a1.49,1.49,0,0,0,1.28.68h.2l.09.18a5,5,0,0,0,4.9,3.07,12.24,12.24,0,0,0,4.33-.95l.14-.05.12.07a6.66,6.66,0,0,0,3,.86h0a3.22,3.22,0,0,0,2.87-1.65l0,0a5,5,0,0,1,2.33-.8c3.48-.73,9.31-1.95,10.16-9.68l.08-1c.59-8,2-26.87-.83-34.43C90.72,167.17,77,153.92,74.11,151.23Z"/><path class="cls-4" d="M75.07,220.94c-1.19-3.17.6-6.94.68-7.09,0,0-1.17,4-.09,6.87Z"/><path class="cls-4" d="M65.42,218.6c-.73-4.23,3.36-7.19,3.53-7.32,0,0-3.57,3.38-2.91,7.21Z"/><path class="cls-5" d="M177.12,193s1,7.13,21.27,7.37c13.45.16,32.47-1.87,32.47,3,0,4.35-30.84,14-58.82,9.24C166.78,212.9,177.12,193,177.12,193Z"/><path class="cls-6" d="M179.2,204.54c16.3,6,35.14,4.76,51.39-2-2.36-3.7-19.69-1.95-32.2-2.1-20.27-.24-21.27-7.37-21.27-7.37s-.9,1.74-2,4.18C175.14,200.45,176.52,203.81,179.2,204.54Z"/><path class="cls-7" d="M188,214.25A97.26,97.26,0,0,1,172,213a1.5,1.5,0,0,1-1.44-.73c-2-3.29,5.41-17.74,6.26-19.37l.46-.89.14,1c0,.07,1.29,6.87,20.95,7.1,3.24,0,6.85-.05,10.35-.14,2.88-.07,5.86-.14,8.57-.14a53,53,0,0,1,9.69.63c2.81.56,4.18,1.54,4.18,3,0,2.38-6.81,5.12-13.19,6.89a117.51,117.51,0,0,1-30,3.94Zm-15.94-1.91h0A96.29,96.29,0,0,0,188,213.62h0a116.63,116.63,0,0,0,29.81-3.93c8.35-2.31,12.72-4.9,12.72-6.27,0-1.1-1.19-1.87-3.66-2.37a52.63,52.63,0,0,0-9.57-.62c-2.7,0-5.68.08-8.56.15-3.5.09-7.12.18-10.37.14-16.57-.2-20.44-5-21.32-6.88-2.43,4.79-7.4,15.67-5.94,18.08a.89.89,0,0,0,.9.42Z"/><path class="cls-2" d="M230.86,203.42c0-3.22-8.26-3.44-17.74-3.26a4.11,4.11,0,0,1-.86,2.68c.73.19,7.91,1.94-1.54,4.88,0,0,4.62,1.34,3.46,2.9,0,.13,0,.21,0,.31C224.18,208.61,230.86,205.45,230.86,203.42Z"/><path class="cls-3" d="M213.12,200.16a4.11,4.11,0,0,1-.86,2.68c.73.19,7.91,1.94-1.54,4.88l.2.06c6.74-.87,21.22-3.08,19.67-5.28S221.6,200,213.12,200.16Z"/><path class="cls-4" d="M227,200.43a53,53,0,0,0-9.69-.63c-1.21,0-2.59,0-4.2,0l0,.64s3.14,0,4.18,0a52.78,52.78,0,0,1,9.57.62c2.47.5,3.67,1.27,3.66,2.37,0,1.65-5.92,4.71-15.89,7.09-.16.05-.47.11-.47.11l-.16.69c10.25-2.34,17.16-5.55,17.16-7.89C231.18,202,229.81,201,227,200.43Z"/><path class="cls-2" d="M108.2,216.8s15-1.33,19.74-3.88,2-23.35,2-23.35S107.88,205.92,108.2,216.8Z"/><path class="cls-4" d="M107.89,217.14v-.33c-.32-10.92,21-26.82,21.87-27.49l.44-.32.07.53c.11.86,2.76,21.05-2.17,23.67s-19.25,3.86-19.87,3.91Zm21.8-27c-3,2.34-21,16.55-21.18,26.29,2.26-.22,15-1.53,19.28-3.81C131.91,210.45,130.09,193.44,129.69,190.16Z"/><path class="cls-8" d="M95.65,99.92c-14.43,3.32-25.21,10-24.08,14.93v0c17.86-2.71,34.52-7.57,52.25-12C122.45,97.78,109.93,96.65,95.65,99.92Z"/><path class="cls-9" d="M110.54,97.78a68.48,68.48,0,0,0-15,1.83,61.24,61.24,0,0,0-18,6.9c-4.67,2.89-6.92,5.88-6.34,8.41l.63-.1s0,0,0,0c-.51-2.21,1.7-5,6.06-7.73a60.78,60.78,0,0,1,17.78-6.82,67.64,67.64,0,0,1,14.82-1.81c7.35,0,12.16,1.63,12.94,4.38l.61-.16C123.25,99.59,118.2,97.78,110.54,97.78Z"/><path class="cls-10" d="M96.72,102.16c-12.79,2.94-22.48,8.29-21.63,12a.82.82,0,0,0,.06.19c5.27,5.06,20.32,2.21,29.36-.11,6.24-1.6,18.2-7,16.85-10.86C120.25,99.8,109.34,99.27,96.72,102.16Z"/><path class="cls-9" d="M111.53,100a68.11,68.11,0,0,0-14.88,1.87,64.25,64.25,0,0,0-16,5.73c-4.22,2.33-6.31,4.68-5.87,6.6,0,.06,0,.12,0,.17l.64-.11a.76.76,0,0,1-.06-.2c-.37-1.6,1.65-3.75,5.55-5.9a63.42,63.42,0,0,1,15.84-5.67,68.65,68.65,0,0,1,14.74-1.86c5.42,0,9,1.07,9.54,2.82.2-.05.4-.13.6-.18C121,101.14,117.44,100,111.53,100Z"/><path class="cls-5" d="M131.72,121.25c-3.78-6.77-6-5.39-9.83-9.9a7.32,7.32,0,0,1-.5-.69c-13.13,9.32-30.74,11.21-46.73,11.12-.91,5.4-4.37,15.75-3.66,26.51,1.22,18.44,22.55,31,28.92,39.8a81,81,0,0,0,48.72,26.16s30.56-23.83,33.11-30.62C180.8,149.56,131.89,121.55,131.72,121.25Z"/><path class="cls-6" d="M132.24,132.79c0-9.76-19.51-24.94-19.82-18.78-12,5.71-24.55,7.84-37.76,7.77-.91,5.4-4.37,15.75-3.66,26.51,1.22,18.44,22.55,31,28.92,39.8a81,81,0,0,0,48.72,26.16s20.25-15.79,29.16-25.33c-.43-4.45-1.9-8.63-3.37-13C164.24,145.47,139.56,132.15,132.24,132.79Z"/><path class="cls-7" d="M148.41,214.58h-.12a72.62,72.62,0,0,1-16.68-4.27,80.75,80.75,0,0,1-32.25-22c-1.85-2.55-4.92-5.38-8.46-8.65-8.76-8.08-19.67-18.14-20.54-31.34-.54-8.14,1.29-16,2.62-21.73.44-1.89.82-3.52,1-4.85l0-.27H75.4c20.4,0,34.85-3.51,45.48-11.06l.27-.19.18.28c.17.26.34.48.48.66a17.11,17.11,0,0,0,4,3.45,15.66,15.66,0,0,1,5.84,6.43l.68.43A164.52,164.52,0,0,1,159,142.05c14.71,14.21,22.36,28.19,22.74,41.57v.06l0,.06c-2.55,6.8-32,29.79-33.22,30.76ZM74.6,122.1c-.23,1.3-.59,2.85-1,4.62-1.32,5.7-3.14,13.51-2.6,21.55.85,12.95,11.65,22.91,20.33,30.91,3.57,3.3,6.66,6.14,8.53,8.72a80.22,80.22,0,0,0,32,21.8,73.31,73.31,0,0,0,16.41,4.22c1.93-1.51,30.33-23.83,32.89-30.35-.84-28.35-34.63-52.5-49.12-61.57-.82-.51-.82-.51-.87-.6a15.06,15.06,0,0,0-5.67-6.27,17.72,17.72,0,0,1-4.12-3.57c-.11-.13-.23-.28-.35-.45-10.71,7.5-25.21,11-45.58,11Z"/><path class="cls-5" d="M121.07,110.66c-2.39-3.66-5.47-13.57-5.47-13.57S73,115.6,74.34,118.49a6.4,6.4,0,0,1,0,3.29C90.33,121.87,107.94,120,121.07,110.66Z"/><path class="cls-6" d="M74.34,118.49a6.4,6.4,0,0,1,0,3.29c14.72.08,30.81-1.51,43.52-9a33.69,33.69,0,0,1-5.18-14.37C103.08,102.61,73.18,116.06,74.34,118.49Z"/><path class="cls-7" d="M75.4,122.1H74l.06-.37a6.5,6.5,0,0,0,0-3.1.74.74,0,0,1,0-.59c1.41-3.79,37.33-19.47,41.42-21.24l.33-.14.1.33c0,.1,3.1,9.91,5.43,13.5l.17.25-.25.18C110.51,118.55,95.94,122.1,75.4,122.1Zm-.69-.64h.69c20.24,0,34.63-3.46,45.23-10.88-2.13-3.47-4.67-11.31-5.23-13.06-11.28,4.91-39.65,17.78-40.76,20.74,0,.06,0,.09,0,.09A5.85,5.85,0,0,1,74.71,121.46Z"/><path class="cls-3" d="M97.58,120a137.44,137.44,0,0,1-2.16-13.74C84.61,111.36,73.63,117,74.34,118.49a6.4,6.4,0,0,1,0,3.29A123.53,123.53,0,0,0,97.58,120Z"/><path class="cls-4" d="M75.4,121.46h-.69a5.85,5.85,0,0,0-.08-3.11s0,0,0-.08c.25-.71,2.56-2.72,14.13-8.46l-.06-.68C74.76,116,74.23,117.52,74,118.05a.79.79,0,0,0,0,.58,6.5,6.5,0,0,1,0,3.1l-.06.37H75.4a133.23,133.23,0,0,0,17-1c-.05-.21-.09-.42-.14-.63A133,133,0,0,1,75.4,121.46Z"/><path class="cls-2" d="M145.56,161.87c-18.83,1.7-17.77-8.81-17.52-16.24.34-9.82-10.84-4.36-12.41-5.09-3.8-1.77-4.21-1.36-9.77-3.72-4-1.69-6.62-9.15-8.28-16.84a123.53,123.53,0,0,1-23.24,1.8c-.91,5.4-4.37,15.75-3.66,26.51,1.22,18.44,22.55,31,28.92,39.8a81,81,0,0,0,48.72,26.16s19.71-15.37,28.79-24.94C177.59,167.76,160.81,160.49,145.56,161.87Z"/><path class="cls-3" d="M140.46,170.36c3.4-10.76,20.39,5.61,29.32-1.25-6.2-6-15.46-8-24.22-7.24-18.83,1.7-17.77-8.81-17.52-16.24.34-9.82-10.84-4.36-12.41-5.09-3.8-1.77-4.21-1.36-9.77-3.72-4-1.69-6.62-9.15-8.28-16.84a123.53,123.53,0,0,1-23.24,1.8c-.91,5.4-4.37,15.75-3.66,26.51.68,10.3,7.64,18.77,14.75,25.77,8.13,7.19,17.28-1.39,26.59-1.36,4.72,0,9.37-1.79,11.83,2.33C126.75,179.91,137.17,180.8,140.46,170.36Z"/><path class="cls-4" d="M176.79,189.06a.48.48,0,0,1,0,.12c-8.66,9.1-27,23.54-28.57,24.74a73.31,73.31,0,0,1-16.41-4.22,80.22,80.22,0,0,1-31.95-21.8c-1.87-2.58-5-5.42-8.53-8.72-8.68-8-19.48-18-20.33-30.91-.54-8,1.28-15.85,2.6-21.55.41-1.77.77-3.32,1-4.62h.8a130.75,130.75,0,0,0,18-1.12c0-.21-.06-.42-.08-.63a129.63,129.63,0,0,1-17.92,1.11H74.07l0,.27c-.22,1.33-.6,3-1,4.85-1.33,5.74-3.16,13.59-2.62,21.73.87,13.2,11.78,23.26,20.54,31.34,3.54,3.27,6.61,6.1,8.46,8.65a80.75,80.75,0,0,0,32.25,22,72.62,72.62,0,0,0,16.68,4.27h.12l.1-.08c.2-.15,19.84-15.49,28.83-25l.09-.09v-.17C177.22,189.19,177,189.12,176.79,189.06Z"/><path class="cls-11" d="M123.83,102.92c1,4.93-9.71,11.57-24.08,14.87s-27,2-28.18-2.94a3.6,3.6,0,0,1,.14-2,10.76,10.76,0,0,0-2.14,7.49c.28,6.49,15,7.36,30.11,3.89,12.82-2.94,22.62-7.47,24.69-12.54A14.35,14.35,0,0,0,123.83,102.92Z"/><path class="cls-12" d="M118.42,115.5c3-1.94,4-3.42,3.08-7.51-5.24,4.93-13,7.78-21.75,9.8-14.43,3.31-27,2-28.18-2.94a3.6,3.6,0,0,1,.14-2,10.76,10.76,0,0,0-2.14,7.49,3.94,3.94,0,0,0,.87,2.32C75.47,127.7,105.13,124.1,118.42,115.5Z"/><path class="cls-9" d="M83.46,126.57h0c-8.86,0-14-2.26-14.21-6.21a11,11,0,0,1,2.22-7.7l1.11-1.36L72,113a3.3,3.3,0,0,0-.13,1.82c.65,2.83,5.5,4.52,13,4.52a67.76,67.76,0,0,0,14.82-1.82c14.15-3.25,24.84-9.75,23.84-14.5l.6-.19a14.53,14.53,0,0,1,.54,9c-2,4.92-11.08,9.56-24.91,12.73A74.29,74.29,0,0,1,83.46,126.57ZM71.17,114.21a11.07,11.07,0,0,0-1.28,6.13c.15,3.55,5.1,5.59,13.57,5.59h0a73.61,73.61,0,0,0,16.15-2c13.42-3.07,22.56-7.69,24.47-12.35a14.45,14.45,0,0,0,0-7c-1.26,4.84-11.16,10.48-24.26,13.48a68.44,68.44,0,0,1-15,1.84c-7.8,0-12.88-1.88-13.6-5A2.82,2.82,0,0,1,71.17,114.21Z"/><path class="cls-13" d="M75.46,114.24l-.64.11v0l.64-.1S75.46,114.25,75.46,114.24Z"/><path class="cls-13" d="M74.83,114.37h0l0,0S74.84,114.39,74.83,114.37Z"/><path class="cls-8" d="M123.82,102.86s0,0,0-.07l-2.42.62c.44,1.92-1.51,3.91-5.67,6.35-12.07,7.06-37.65,11.34-40.86,4.66l0,0-3.25.5c1.16,4.92,13.76,6.23,28.18,2.92S125,107.8,123.82,102.86Z"/><path class="cls-9" d="M84.8,120c-7.5,0-12.77-1.76-13.54-5l-.08-.33.34,0,3.25-.5.22,0,.15.25a5.21,5.21,0,0,0,3.41,2.4c7.88,2.41,26.9-1.29,37-7.2,4.16-2.43,5.9-4.41,5.51-6.07l.62-.16c.46,2-1.31,4.16-5.8,6.78-4.76,2.79-12,5.32-19.37,6.78-7.6,1.5-14.21,1.68-18.14.48a6,6,0,0,1-3.71-2.57l-2.67.41c.75,2,3.9,3.47,8.74,4a60.69,60.69,0,0,0,19-1.62,60.27,60.27,0,0,0,17.77-6.82c4.36-2.7,6.57-5.52,6.06-7.73a.43.43,0,0,1,0-.05l0-.08.62-.17v.05a.35.35,0,0,1,0,.11c1.19,5.18-9.49,11.91-24.31,15.31A68.2,68.2,0,0,1,84.8,120Z"/><path class="cls-9" d="M123.51,102.93c.51,2.21-1.7,5-6.06,7.73a60.27,60.27,0,0,1-17.77,6.82,67.76,67.76,0,0,1-14.82,1.82c-7.45,0-12.29-1.67-13-4.48l-.63.1h0c.72,3.14,5.8,5,13.6,5a68.44,68.44,0,0,0,15-1.84c14.82-3.4,25.5-10.13,24.32-15.31a1.21,1.21,0,0,1,0-.18c-.21.06-.43,0-.64.1C123.46,102.76,123.5,102.89,123.51,102.93Z"/><path class="cls-7" d="M131.12,121.39l.56-.29a43.7,43.7,0,0,1,2.77,7S132.83,124.75,131.12,121.39Z"/><path class="cls-5" d="M178.21,169.08l-16.63-6.69-13.26-1s-20.86,5.85-17.44,28.06c1.92,12.47,14,18.6,14,18.6s-13.18-3.07-20.56,3.71c-5.45,5-6.32,11.37-3.54,12,.29.78.32,4,10.11,2.95,1.6.5,5,3.34,17.28-.35,7.08-2,14.82-3.67,16.47-4.11,2.39-.63,12.74-3.34,11.15-11.54C178.33,208.92,187.4,193.87,178.21,169.08Z"/><path class="cls-6" d="M169.63,164.59l-8-2.2-13.26-1s-20.86,5.85-17.44,28.06c1.92,12.47,14,18.6,14,18.6s-13.18-3.07-20.56,3.71c-5.45,5-6.32,11.37-3.54,12,.29.78.32,4,10.11,2.95,1.6.5,5,3.34,17.28-.35,7.08-2,14.82-3.67,16.47-4.11,2.39-.63,4.7-2.89,3.11-11.09C170.29,209.37,181.75,188.19,169.63,164.59Z"/><path class="cls-2" d="M175.79,210.81a5,5,0,0,1-2.14.73c1.51-6.31-2.28-10-6.21-13.11-1.26-1-2.68-1.9-4.08-2.89-11.06-7.82-10.65-13.12-6-17.8,5.33-5.4,6.07-11.12,3.18-13.85-3.25-3.08-9.33-2.45-13.36-2.13l-2.82,1.34c-5.63,2.73-16,10.05-13.46,26.39,1.92,12.47,14,18.6,14,18.6s-8.67-2-15.89.83a15.3,15.3,0,0,0-4.67,2.88c-5.45,5-6.32,11.37-3.54,12,.29.78.32,4,10.11,2.95,1.6.5,5,3.34,17.28-.35,7.08-2,14.82-3.67,16.47-4.11C167,221.66,177.31,219,175.79,210.81Z"/><path class="cls-3" d="M168.11,211.7a31.87,31.87,0,0,0,4.09-8.54,23.45,23.45,0,0,0-4.76-4.73c-1.26-1-2.68-1.9-4.08-2.89-11.06-7.82-10.65-13.12-6-17.8,5.33-5.4,6.07-11.12,3.18-13.85-3.25-3.08-9.33-2.45-13.36-2.13l-2.82,1.34c-5.63,2.73-16,10.05-13.46,26.39,1.92,12.47,14,18.6,14,18.6s-8.67-2-15.89.83a15.3,15.3,0,0,0-4.67,2.88c-5.45,5-6.32,11.37-3.54,12,.29.78.32,4,10.11,2.95,1.6.5,5,3.34,17.28-.35,7.08-2,14.85-3.58,16.47-4.11,3.91-1.28,5.62-4.32,5.23-6.66C169.5,213.44,167.52,212.45,168.11,211.7Z"/><path class="cls-4" d="M175.43,210.61l0,.2c.69,3.59-.63,8.44-10.92,11.17-.45.12-1.38.34-2.65.64-3.26.76-8.72,2-13.83,3.48-10.63,3.18-14.49,1.47-16.34.65a7.6,7.6,0,0,0-.75-.31l-.06,0h-.07c-8.76,1-9.45-1.55-9.7-2.49a2.5,2.5,0,0,0-.08-.25l-.06-.16-.17,0a1.64,1.64,0,0,1-1.17-1.29c-.59-2.23.91-6.55,4.86-10.17,7.17-6.58,20.13-3.66,20.26-3.63l2.55.6L145,207.81c-.12-.06-11.94-6.21-13.81-18.36-1.4-9.09,1-16.46,7-21.91a26.94,26.94,0,0,1,9.63-5.5,4.14,4.14,0,0,0-2.62.3,27.73,27.73,0,0,0-7.41,4.71c-4.31,3.85-9.06,10.88-7.27,22.49,1.51,9.8,9.3,15.79,12.64,17.94-3.86-.57-13.29-1.26-19.11,4.08-4.13,3.79-5.68,8.39-5,10.8a2.29,2.29,0,0,0,1.47,1.7v.05c.3,1.08,1.08,4,10.32,3,.17.06.38.15.62.26a13.57,13.57,0,0,0,6.1,1.25,37.88,37.88,0,0,0,10.67-1.87c5.1-1.44,10.55-2.71,13.8-3.47,1.28-.3,2.21-.52,2.7-.65,10.56-2.8,12-8,11.38-11.78-.24-.1-.46-.12-.69-.2Z"/><path class="cls-7" d="M178.51,169l-.67,0c4.86,13.13,4.48,23.42,3.24,29.53-1.45,7.15-4.32,11.19-5.49,12l-.16.12c.23.08.46.17.7.28h0C179.39,208.21,187.31,192.71,178.51,169Z"/><path class="cls-4" d="M157.71,211c-.08,0-7.86-.13-13.82-3.05l.28-.57C150,210.2,157.71,211,157.71,211Z"/><path class="cls-4" d="M130.58,226.85c-1-2.9-.83-5.34.48-7.27,2.65-3.9,9-4.26,9.28-4.27,0,0-6.28,1-8.75,4.63-1.19,1.75-1.33,4-.41,6.7Z"/><path class="cls-4" d="M121.09,223.8h-.63c.05-7.43,10-10.12,10.37-10.23C130.83,213.57,121.14,216.86,121.09,223.8Z"/><path class="cls-4" d="M171.5,212.13s3.69-1.16,4.55-2l.08.8C174.72,212.1,171.62,212.12,171.5,212.13Z"/><path class="cls-2" d="M123.8,153.86l-32.8.38s.8,10.34,8.6,17.29c.3,1.59-1.91,31.89-7,37.6-1.27.82-8.45-.52-11.14,5.12-1.6,3.36-2.51,6.33,1.15,7.64.06,1-.31,5.85,8.08,3.94.91.68,5.68,4.61,16.08-.75,5.26-2.82,6.73-5,8-10.11.55-2.26,6-19.47,8.88-28.82C127.62,173.1,129.69,162.24,123.8,153.86Z"/><path class="cls-3" d="M110.11,213c1.91-13.69,8.81-25.58,13.09-39.34,1.83-5.87,3.58-14.05.82-19.54,0,0-.36-.44-.36-.45L91,154.24s.8,10.34,8.6,17.29c.3,1.59-1.91,31.89-7,37.6-1.27.82-8.45-.52-11.14,5.12-1.6,3.36-2.51,6.33,1.15,7.64.06,1-.3,5.69,7.7,4C93.55,226.85,108.83,222.57,110.11,213Z"/><path class="cls-4" d="M97,228.19a10.41,10.41,0,0,1-6.4-2c-3.16.69-5.46.5-6.84-.57a4.34,4.34,0,0,1-1.48-3.49,3.82,3.82,0,0,1-2.31-2c-.64-1.56,0-3.52,1.18-6,2.06-4.3,6.61-4.69,9.33-4.93a6.72,6.72,0,0,0,1.9-.3c2-2.34,4-9.49,5.41-20.13a148.79,148.79,0,0,0,1.5-17.06c-7.73-7-8.29-17.34-8.3-17.45s1.21,10.27,8.81,17l.08.07,0,.11c.17.91-.35,9.05-1.47,17.36-1,7.66-2.86,17.44-5.61,20.51l-.06.06a5.77,5.77,0,0,1-2.22.42c-2.76.23-6.92.59-8.81,4.57-.95,2-1.75,4-1.17,5.46a3.32,3.32,0,0,0,2.14,1.74l.2.07v.21a1.34,1.34,0,0,1,0,.21,3.71,3.71,0,0,0,1.23,3c1.24,1,3.41,1.1,6.45.41l.15,0,.18.14c3.72,2.82,9.14,2.53,15.68-.84,5.32-2.84,6.61-5,7.79-9.9.37-1.51,2.94-9.76,5.44-17.74,1.22-3.93,2.49-8,3.44-11.09,4.22-13.69,5.88-24.44.3-32.39,0,0,2.2,1,3.51,6.27,1.76,7.16,0,15.9-3.2,26.3-1,3.11-2.22,7.17-3.45,11.1-2.48,8-5.06,16.2-5.42,17.7-1.21,5.06-2.62,7.37-8.12,10.32A22.19,22.19,0,0,1,97,228.19Z"/><path class="cls-4" d="M99.31,172c-.24-3.55-1-8.15-1.06-8.19A41.24,41.24,0,0,1,99.94,172Z"/><path class="cls-4" d="M90.38,225.94c-1.47-4.13,2.2-9.12,2.36-9.33,0,0-3.11,5.3-1.76,9.12Z"/><path class="cls-4" d="M82.91,222l-.61-.16c.92-3.7,4.73-7.62,4.89-7.78C87.19,214,83.8,218.43,82.91,222Z"/><path class="cls-5" d="M68.33,34.68S65.55,23.5,45.15,36.82c-5.85,3.82-5.94,3.28-9.32,4.6-8.85,3.46-14.24,9.17-8,23.23,3.95,8.86,9.32,11.07,8.52,19.59-.93,9.65,6.37,19.76,14.25,13,4.93-4.37,12.57-38.52,12.57-38.52Z"/><path class="cls-6" d="M45.15,36.82c-5.85,3.82-5.94,3.28-9.32,4.6-8.85,3.46-14.24,9.17-8,23.23,3.95,8.86,9.4,11.08,8.52,19.59-1,9.37,5.84,15.52,6.79,11.78.51-2-1.26-6-.91-10s2.48-8,2-9.53c-.29-.84-4.36-11.93,0-22.55a19.69,19.69,0,0,0-.9,5.41C42.87,64.17,45,72,46.65,69.68c.53-.74.11-8.73,2-12.76,3.23-6.46,9.84-5.1,16-4.92l3.7-17.32S65.55,23.5,45.15,36.82Z"/><path class="cls-7" d="M45.43,99.76h0A7.58,7.58,0,0,1,39.86,97c-2.77-3-4.26-8.07-3.8-12.79.49-5.3-1.47-8.13-4-11.71a44.87,44.87,0,0,1-4.54-7.72c-2.87-6.44-3.48-11.49-1.86-15.42,1.43-3.51,4.62-6.13,10-8.24.81-.31,1.44-.52,2-.71,1.78-.6,2.85-1,7.28-3.86C51.67,32.18,57.19,30,61.4,30c6,0,7.23,4.58,7.24,4.63l0,.07-5.15,24.1c-.32,1.41-7.73,34.31-12.68,38.7A8.31,8.31,0,0,1,45.43,99.76Zm16-69.15c-4.08,0-9.49,2.17-16.07,6.47C40.83,40,39.73,40.39,37.9,41c-.54.19-1.16.4-2,.71-5.22,2-8.29,4.54-9.65,7.88-1.55,3.76-.94,8.64,1.85,14.92a44.07,44.07,0,0,0,4.49,7.61c2.56,3.69,4.58,6.61,4.06,12.14-.44,4.55,1,9.39,3.64,12.31a6.94,6.94,0,0,0,5.1,2.54h0a7.7,7.7,0,0,0,5-2.13c4.8-4.25,12.4-38,12.47-38.35l5.13-24C67.84,34.13,66.58,30.61,61.4,30.61Z"/><path class="cls-7" d="M36.63,84.84,36,84.59a26.26,26.26,0,0,0,1.63-8.47A19.09,19.09,0,0,1,36.63,84.84Z"/><path class="cls-7" d="M46.19,80l-.59-.24c.85-2,0-5.17-1-8.79-1.43-5.12-3.1-11.23-.72-16.92A9.35,9.35,0,0,1,47,50.2c-5.8,6.46-3.61,14.27-1.85,20.55C46.22,74.49,47.12,77.71,46.19,80Z"/><path class="cls-5" d="M83,30.49S48,24.64,47.76,64.68c0,7.69.56,8.89-1.88,15.15-2.65,6.79-1,20,8.91,24.83,3.93,1.49,5.25.82,5.68,2.34,1.49,5.2-1.94,11.87,8.47,14.27,9.25,2.15,13.72-3.59,16.4-5.41,2.22-1.51,5.48-2.07,9.67-3.18,7.21-1.91,29.59-6.29,29.59-25.21.14-16.24,5.5-41.66-4.74-49C111.21,32.76,103,28.94,88.12,28.1,80.51,27.67,83,30.49,83,30.49Z"/><path class="cls-6" d="M119.86,38.49q-1-.7-2.1-1.35c-3.29.16-4,.71-6.83-.51-2.63-2.44-10.39-7.2-14.45-7.65a80.85,80.85,0,0,0-8.36-.88C80.51,27.67,83,30.49,83,30.49S48,24.64,47.76,64.68c0,7.69.56,8.89-1.88,15.15-2.65,6.79-1,20,8.91,24.83,3.93,1.49,5.25.82,5.68,2.34,1.38,4.83-1.48,10.93,6.46,13.7a30.85,30.85,0,0,0,15-5.32c10.11-6.5,16.42-5.9,26.3-12.66,12-8.25,9.89-21,13.39-30.29,1.11-3,1.09-9.06,4.4-10.16C126.39,51.9,125.46,42.49,119.86,38.49Z"/><path class="cls-7" d="M54.84,64.86l-.62-.16c.84-3.19,2.25-5.21,4.19-6a6,6,0,0,1,4.9.36,8.21,8.21,0,0,0-4.66.23C56.91,60,55.62,61.88,54.84,64.86Z"/><path class="cls-7" d="M72.89,122.06h0a17.76,17.76,0,0,1-4-.48c-7.92-1.83-8.07-6.12-8.22-10.28a17.71,17.71,0,0,0-.48-4.21c-.2-.7-.55-.8-1.86-1.09a21.78,21.78,0,0,1-3.62-1c-9.85-4.87-11.93-18-9.1-25.25,2-5,1.94-6.73,1.88-11.29,0-1.07,0-2.29,0-3.74.17-31.41,21.7-34.8,30.95-34.8a34.66,34.66,0,0,1,4,.21,1.34,1.34,0,0,1,0-1c.48-1,2.38-1.46,5.77-1.27,14.75.83,22.86,4.46,31.9,10.44,7.93,5.67,6.69,22,5.6,36.31-.35,4.65-.69,9-.72,12.94,0,18-19.82,23-28.29,25.12l-1.54.4-2.47.63c-3,.74-5.38,1.34-7.1,2.51-.44.3-.94.71-1.51,1.18C81.75,119.21,78.32,122.06,72.89,122.06Zm5.52-91.55c-9.06,0-30.14,3.33-30.31,34.17,0,1.45,0,2.66,0,3.73.05,4.66.07,6.4-1.93,11.53-2.74,7-.74,19.74,8.76,24.44a23.25,23.25,0,0,0,3.5,1c1.31.29,2,.44,2.34,1.53a18.26,18.26,0,0,1,.51,4.37c.15,4.09.28,8,7.72,9.68a17.11,17.11,0,0,0,3.87.47h0c5.2,0,8.52-2.77,10.72-4.6.59-.49,1.09-.91,1.56-1.23,1.82-1.23,4.24-1.84,7.31-2.6l2.46-.63,1.55-.4c8.32-2.1,27.8-7,27.8-24.5,0-3.93.37-8.33.72-13,1.08-14.19,2.3-30.28-5.32-35.73-8.94-5.92-17-9.51-31.57-10.33-.52,0-1,0-1.45,0-2.85,0-3.55.58-3.71.93s.24,1,.24,1l.58.67-.87-.14A29,29,0,0,0,78.41,30.51Z"/><path class="cls-14" d="M51.63,71.9c-.27,5.78,3.64,8.95,7.45,8.95s5.87-2.06,6.29-7.26c.28-3.46-.84-11.72-4.73-12.19S51.86,66.7,51.63,71.9Z"/><path class="cls-15" d="M64.33,77.93a12,12,0,0,0,1-4.34c.28-3.46-.84-11.72-4.73-12.19s-8.78,5.3-9,10.5a10,10,0,0,0,.44,3.61C55.15,78.11,59.94,78.42,64.33,77.93Z"/><path class="cls-16" d="M65.14,73.85c-.21,3.87-2.45,6.91-4.74,6.8s-4.18-3.25-4-7.12,2.44-6.86,4.73-6.75S65.36,70,65.14,73.85Z"/><path class="cls-17" d="M62.81,73.74c-.1,1.88-1.09,3.37-2.21,3.32s-1.93-1.62-1.82-3.51,1.09-3.37,2.2-3.31S62.91,71.86,62.81,73.74Z"/><path class="cls-15" d="M61.64,71.11a1.44,1.44,0,0,1-1.53,1.32A1.41,1.41,0,0,1,58.73,71a1.43,1.43,0,0,1,1.53-1.32A1.42,1.42,0,0,1,61.64,71.11Z"/><path d="M59.08,81.16a7.56,7.56,0,0,1-5.32-2.24,8.94,8.94,0,0,1-2.45-7c.24-5.26,4.82-11.1,8.89-11.1a4.38,4.38,0,0,1,.51,0c4.24.51,5.26,9.31,5,12.79C65.27,78.83,63.23,81.16,59.08,81.16Zm1.09-19.48c-3.7,0-8,5.36-8.23,10.23a8.38,8.38,0,0,0,2.28,6.59,6.92,6.92,0,0,0,4.86,2c3.79,0,5.58-2.09,6-7,.31-3.81-1-11.45-4.45-11.87Z"/><path class="cls-14" d="M86.17,80s7.35,7.83,17.67,0c-.1-1.42-.35-16.26-9.55-15.92C88.53,64.28,85.32,73,86.17,80Z"/><path class="cls-15" d="M103.64,77.25c-.48-4.68-2.25-13.44-9.35-13.18-5.2.19-8.33,7.35-8.26,13.86C91.32,81.31,99.12,81.63,103.64,77.25Z"/><path class="cls-16" d="M101.43,75.4c0,4.23-2.5,7.65-5.27,7.65s-5.28-3.32-5.28-7.55,2.49-7.6,5.27-7.6S101.43,71.18,101.43,75.4Z"/><path class="cls-17" d="M98.6,75.4c0,2.06-1.09,3.73-2.44,3.73s-2.45-1.67-2.45-3.73,1.1-3.72,2.45-3.72S98.6,73.35,98.6,75.4Z"/><path class="cls-15" d="M97,72.88a1.77,1.77,0,1,1-1.77-1.79A1.78,1.78,0,0,1,97,72.88Z"/><path d="M94.69,83.77h0a12.72,12.72,0,0,1-8.76-3.59l-.07-.08V80c-.6-4.92.76-10.69,3.4-13.78a6.72,6.72,0,0,1,5-2.79l.42,0c5.62,0,9,6,9.52,16.22,0,.15,0,.27,0,.34l0,.18-.14.1A15.54,15.54,0,0,1,94.69,83.77Zm-8.22-4a12.3,12.3,0,0,0,8.22,3.32,14.87,14.87,0,0,0,8.83-3.29,1.15,1.15,0,0,1,0-.19c-.3-5.7-1.86-15.27-8.91-15.27h-.3a6.17,6.17,0,0,0-4.5,2.41C87.29,69.75,85.92,75.09,86.47,79.81Z"/><path class="cls-7" d="M88.51,63.22l.13-.11c.08-.07.2-.18.37-.31a11,11,0,0,1,1.39-1,8.64,8.64,0,0,1,1-.56,8.37,8.37,0,0,1,1.22-.48,6.6,6.6,0,0,1,2.85-.28,6.15,6.15,0,0,1,1.43.38,6.49,6.49,0,0,1,.65.31l.31.18.29.2c.19.13.36.27.53.41a4.91,4.91,0,0,1,.46.45,4.2,4.2,0,0,1,.41.44c.12.16.25.3.35.45a8.74,8.74,0,0,1,.54.81c.14.25.27.47.36.66l.28.59-.39-.52c-.12-.17-.28-.36-.45-.59s-.4-.46-.62-.72-.25-.25-.38-.39l-.2-.2-.22-.19a6,6,0,0,0-.47-.38c-.17-.12-.33-.25-.52-.36a6.52,6.52,0,0,0-1.15-.58,5.54,5.54,0,0,0-1.29-.32,5.92,5.92,0,0,0-1.33,0,7.72,7.72,0,0,0-1.29.22,10.17,10.17,0,0,0-1.18.37c-.37.15-.71.3-1,.45-.62.31-1.14.6-1.49.8Z"/><path class="cls-18" d="M88.14,50.13a12.67,12.67,0,0,1,1.59-3.88c2.11-3.26,7.82-5.87,11.06,7.32C98.29,50,95.46,45,88.14,50.13Z"/><path class="cls-7" d="M101.5,55.15l-1-1.4c-.14-.19-.27-.39-.41-.59-1.59-2.3-3.39-4.91-6.39-4.91a9.75,9.75,0,0,0-5.41,2.14l-.65.46.15-.78a13,13,0,0,1,1.64-4,5.65,5.65,0,0,1,4.42-2.79c2.15,0,5.15,1.77,7.22,10.2Zm-7.77-7.54c2.92,0,4.74,2.12,6.27,4.27-1.52-5.15-3.67-8-6.12-8A5,5,0,0,0,90,46.42a11.52,11.52,0,0,0-1.34,3A9.56,9.56,0,0,1,93.73,47.61Z"/><path class="cls-18" d="M64.93,50.13a12.67,12.67,0,0,0-1.59-3.88c-2.11-3.26-7.82-5.87-11.06,7.32C54.78,50,57.61,45,64.93,50.13Z"/><path class="cls-7" d="M51.57,55.15l.4-1.66C54,45.06,57,43.29,59.19,43.29a5.65,5.65,0,0,1,4.42,2.79,12.54,12.54,0,0,1,1.63,4l.16.78-.65-.46a9.78,9.78,0,0,0-5.41-2.14c-3,0-4.8,2.61-6.39,4.91-.14.2-.27.4-.41.59Zm7.62-11.22c-2.45,0-4.6,2.8-6.12,8,1.53-2.15,3.35-4.27,6.27-4.27a9.56,9.56,0,0,1,5.07,1.79,11.87,11.87,0,0,0-1.34-3A5,5,0,0,0,59.19,43.93Z"/><path class="cls-6" d="M81.77,21.73A14.41,14.41,0,0,1,85,26.34s-9.9-5.59-17.43,2.93a30.44,30.44,0,0,1,5.81.36,17.48,17.48,0,0,1,2.74.62s-5.65,2.06-8.82,5.43c-3.74,4-3.69,8.43-2.81,8.59,1.24.23,3.7-2.5,6.24-3.87a10.35,10.35,0,0,1,3.47-1.27c-1.55,1.51-7.87,9-5.15,10.44,1.28.66,5.26-5.14,5.26-5.14l21-15.53C91.09,27.53,85.83,21.71,81.77,21.73Z"/><path class="cls-19" d="M84.32,23.36l1,.79A1.75,1.75,0,0,0,84.32,23.36Z"/><path class="cls-19" d="M75.06,38.71c-4.22.6-10.3,6.15-10.78,5.45,1.12-7.37,9.77-13.83,15.82-13.83-3.33.06-8.44-1.08-11.62-1.08a18,18,0,0,1,17.15-2.18c-1.64-2.62-3.27-5.18-3.07-4.84,2.8,2.21,8.61,6.33,12.37,6.53-4.17-1.59-9.23-7-13.16-7A14.41,14.41,0,0,1,85,26.34s-9.9-5.59-17.43,2.93a30.44,30.44,0,0,1,5.81.36,17.48,17.48,0,0,1,2.74.62s-5.65,2.06-8.82,5.43c-3.74,4-3.69,8.43-2.81,8.59,1.24.23,3.7-2.5,6.24-3.87a10.35,10.35,0,0,1,3.47-1.27c-1.55,1.51-7.87,9-5.15,10.44C69.31,49.72,68.33,47.8,75.06,38.71Z"/><path class="cls-7" d="M69.26,49.31l-.08,0a.87.87,0,0,1-.49-.7c-.33-2.24,4.22-7.78,5.71-9.24l.66-.64-.91.1a10.67,10.67,0,0,0-3.59,1.31,23.55,23.55,0,0,0-3.07,2.12c-1.16.89-2.25,1.73-2.87,1.73h-.09s-.13-.15-.19-.53c-.23-1.43.43-4.61,3.17-7.53,3.08-3.27,8.64-5.33,8.7-5.35l.72-.26-.7-.33a16.93,16.93,0,0,0-2.81-.65,28.62,28.62,0,0,0-4.9-.37h-.23a12.64,12.64,0,0,1,9.37-4.09,16.32,16.32,0,0,1,7.16,1.76l.81.46-.36-.86a14.45,14.45,0,0,0-2.66-4.08c2,.37,4.41,2,6.71,3.64a32.88,32.88,0,0,0,4.88,3,4.26,4.26,0,0,0,1.46.37l.36-.38-.6-.19a24.89,24.89,0,0,1-5.74-3.34c-2.69-1.89-5.47-3.84-7.91-3.84h-.83l.62.55a14.39,14.39,0,0,1,2.75,3.69,16.65,16.65,0,0,0-6.65-1.44,13.39,13.39,0,0,0-10.35,4.84l-.5.55.75,0s.37,0,1,0a28.09,28.09,0,0,1,4.78.37c.82.15,1.39.27,1.79.37a25.25,25.25,0,0,0-8,5.15c-3,3.24-3.74,7-3.25,8.46.16.49.42.63.61.67h.21c.84,0,1.9-.82,3.26-1.86a22.57,22.57,0,0,1,3-2.06,12.64,12.64,0,0,1,2.36-1c-1.87,2.08-5.5,6.72-5.16,9a1.53,1.53,0,0,0,.83,1.17.87.87,0,0,0,.37.08h0c1.45,0,4.28-3.88,5.14-5.11C74.27,44.65,70.88,49.43,69.26,49.31Z"/><path class="cls-7" d="M75.06,31l-.3-.55c2.07-1.14,5.52-.08,5.67,0C80.43,30.43,76.89,30,75.06,31Z"/><path class="cls-5" d="M132.63,41.75c-11.33-13.5-22.2-8.52-22.2-8.52l1.64,9.47C118.68,47.47,123,55.44,121.89,71,120,97.49,136.38,103.26,142,103c6.53-.34,5.05-6.38,3.84-11.47C144.34,85,151.69,74.79,155,63,158.66,50,141.39,44.46,132.63,41.75Z"/><path class="cls-6" d="M142.35,96.66c.51-3-3-8-1.35-15.91,1.88,2.35,3.71,1.91,4.34,0,3.19-8.6,9.18-21.52,1.07-29-2.09-1.93-9.09-3.9-4.86,2.95-10.45-11.45-21.79-22.1-30.62-18l1.14,6.07C118.68,47.47,123,55.44,121.89,71c-.76,10.54,1.38,17.81,4.58,22.71C132.36,100.29,141.61,100.84,142.35,96.66Z"/><path class="cls-7" d="M141.63,103.29A18.77,18.77,0,0,1,129,97.35c-4-4-8.47-11.91-7.43-26.41,1-13.63-2.18-22.89-9.66-28.29a8.47,8.47,0,0,1,3.76,2.49c5.19,5.75,7.37,14.23,6.54,25.85-1,14.26,3.37,22,7.24,25.91,4.1,4.18,9.39,5.91,12.56,5.75a4.68,4.68,0,0,0,3.75-1.6c1.56-2.08.64-6-.17-9.38l0-.09c-.95-4,1.41-9.4,4.14-15.62a100.55,100.55,0,0,0,5-13c1.54-5.46-.62-10.23-6.4-14.14-4.69-3.18-10.59-5.15-15.76-6.74l-.09,0-.06-.07c-11-13.17-21.86-8.55-22-8.5l-.26-.7a16.59,16.59,0,0,1,7.14-.65c3.82.41,9.61,2.37,15.51,9.37,7.94,2.45,26.28,8.18,22.49,21.64a101.22,101.22,0,0,1-5,13.1c-2.69,6.11-5,11.39-4.11,15.21l0,.09c.84,3.56,1.8,7.59.06,9.91a5.33,5.33,0,0,1-4.23,1.85Z"/><path class="cls-7" d="M142.3,55.36c-.06,0-5.8-4.14-10-13.48l.59-.26C137,50.79,142.3,55.36,142.3,55.36Z"/><path class="cls-7" d="M145.53,91.2C142.62,87.53,141.07,81,141,80.75c0,0,2.2,6.5,5,10Z"/><path class="cls-7" d="M120.51,49.62s.39.52,1,1.46,1.49,2.31,2.43,4a52.9,52.9,0,0,1,2.85,6,32.26,32.26,0,0,1,2,7.34,19,19,0,0,1,.11,3.91c0,.32-.07.64-.12,1,0,.16-.05.32-.08.47l-.12.47-.12.46-.15.45-.16.45-.16.42c-.44,1.13-.84,2.21-1.17,3.26l-.24.77-.2.77c-.14.49-.23,1-.33,1.45a13.71,13.71,0,0,0-.23,2.59,7.73,7.73,0,0,0,.3,2c.16.53.3,1,.38,1.25s.1.45.1.45,0-.15-.13-.44-.28-.69-.46-1.23a7.66,7.66,0,0,1-.43-2,12.35,12.35,0,0,1,.11-2.67c.08-.48.15-1,.28-1.49q.07-.39.18-.78l.22-.8c.3-1.07.67-2.19,1.1-3.32l.15-.43.14-.42.14-.43.1-.44.11-.45c0-.14,0-.3.07-.45,0-.3.09-.61.11-.92a17.61,17.61,0,0,0-.14-3.76,25.87,25.87,0,0,0-.78-3.72c-.34-1.21-.72-2.39-1.15-3.51s-.87-2.2-1.32-3.21-.9-1.94-1.33-2.81c-.87-1.72-1.64-3.13-2.21-4.1S120.51,49.62,120.51,49.62Z"/><path class="cls-2" d="M92.49,94.34C89.35,86,81.29,87.88,75.14,77.09c-3.25-5.69-1.93-10.08,0-12.31,3.21-3.73,2.54-5.28.9-7.91-.67-1.07-3.69-5.62-3.69-5.62S63.25,55.36,66,63.83c1.63,5,1.07,5.22-2,10.13-7.12,11.51-9.22,12.77-11,16.71a16.76,16.76,0,0,0-.41,12.6,15.85,15.85,0,0,0,2.19,1.31c3.93,1.49,5.25.82,5.68,2.34a20.19,20.19,0,0,1,.51,4.76c.15,3.95.57,7.81,8,9.51,6.48,1.5,10.8-.08,15-4.32C87.82,113,95.79,103.09,92.49,94.34Z"/><path class="cls-3" d="M92.49,94.34C89.35,86,81.29,87.88,75.14,77.09c-3.25-5.69-1.93-10.08,0-12.31,3.21-3.73,2.54-5.28.9-7.91-.67-1.07-3.69-5.62-3.69-5.62S63.25,55.36,66,63.83c1.63,5,1.07,5.22-2,10.13-7.12,11.51-9.22,12.77-11,16.71a16.76,16.76,0,0,0-.41,12.6,15.85,15.85,0,0,0,2.19,1.31c3.93,1.49,5.25.82,5.68,2.34a20.19,20.19,0,0,1,.51,4.76c.08,2.06.23,4.09,1.4,5.8C67,123,76,121.58,82.8,114.87c1.44-1.42,3.39-1.93,5.27-2.85C91.47,107.24,94.77,100.38,92.49,94.34Z"/><path class="cls-4" d="M83.73,116.73c-3.28,3.31-6.46,4.78-10.33,4.78A19.21,19.21,0,0,1,69,121c-7.42-1.71-7.57-5.69-7.7-9.21l0-.47a18.26,18.26,0,0,0-.51-4.37c-.28-1-.91-1.21-2-1.46,0,.21-.07.42-.11.63,1,.23,1.34.38,1.52,1a17.71,17.71,0,0,1,.48,4.21l0,.48c.14,3.55.31,8,8.2,9.8a19.82,19.82,0,0,0,4.52.57h0c4,0,7.38-1.54,10.78-5,.42-.42,1.12-1.13,2-2.17-.37.09-.87.39-1.24.51A16.2,16.2,0,0,1,83.73,116.73Z"/><path class="cls-20" d="M64.34,107.66c-.06.42-2.3,8.44,4.78,9.12C80.26,117.84,88,98.4,88,98.4v-.21S64.39,107.24,64.34,107.66Z"/><path class="cls-21" d="M75.74,103c-2.83,2.58-9.65,6.58-10.13,11.2-.19,1.9,2,2.48,3.51,2.63C80.26,117.84,88,98.4,88,98.4v-.21S81.81,100.57,75.74,103Z"/><path class="cls-22" d="M69.93,107.66c-2.18,1.93-4.07,4.13-4.32,6.49-.19,1.9,2,2.48,3.51,2.63,3.32.31,6.34-1.19,8.94-3.46C78.06,110,73.56,108.48,69.93,107.66Z"/><path class="cls-23" d="M70,117.14h0c-.3,0-.61,0-.91,0a5,5,0,0,1-3.33-1.35,2.1,2.1,0,0,1-.46-1.62c.38-3.69,4.48-6.87,7.78-9.42.92-.72,1.8-1.4,2.45-2l0,0,.05,0c6-2.35,12.23-4.73,12.3-4.76l.43-.16v.73l0,.06C88,99.28,80.76,117.14,70,117.14Zm5.91-13.91c-.66.59-1.53,1.26-2.44,2-3,2.35-7.19,5.57-7.54,9a1.5,1.5,0,0,0,.32,1.16,4.59,4.59,0,0,0,2.9,1.12,8.06,8.06,0,0,0,.85,0c9.43,0,16.36-15,17.55-17.79C85.86,99.36,80.82,101.3,75.91,103.23Z"/><path class="cls-4" d="M70,117.14h0c-.3,0-.61,0-.91,0a5.7,5.7,0,0,1-4.29-2.16c-.83-1.14-1.64-3.29-.81-7.15,0-.08,0-.13,0-.16,0-.28.06-.45,12.07-5.15,5.85-2.29,11.77-4.55,11.83-4.58l.43-.16v.73l0,.06C88,99.28,80.76,117.14,70,117.14Zm-5.37-9.3,0,.07c-.78,3.63,0,5.61.7,6.64a5.09,5.09,0,0,0,3.84,1.91,8.06,8.06,0,0,0,.85,0c9.43,0,16.36-15,17.55-17.79C78.66,102.12,65.82,107.13,64.63,107.84Z"/><path class="cls-2" d="M51.59,90.92s-5.3,5.61-1.78,12.52c2.5,4.92,7,5.9,11.22,5C63.56,109.3,76,116,89.65,97.65Z"/><path class="cls-3" d="M51.67,90.92s-5.3,5.61-1.78,12.52c2.5,4.92,5.66,4,9.21.91,2.53.87,13.92,11.67,30.75-7Z"/><path class="cls-4" d="M69.28,110.66A20.45,20.45,0,0,1,61.44,109l-.57-.22c-5.15,1.08-8.9-.6-11.15-5a11.26,11.26,0,0,1,1.35-12.47l.47.43a10.46,10.46,0,0,0-1.25,11.75c2.11,4.14,5.65,5.71,10.53,4.66l.09,0,.08,0,.69.26c3.71,1.47,15,6,27.58-10.92l.51.38c-5.47,7.34-11.4,11.57-17.61,12.58A18.37,18.37,0,0,1,69.28,110.66Z"/><path class="cls-4" d="M60.58,108.52c-.7-2.44-1.55-3.09-1.56-3.1l.36-.52s1,.75,1.82,3.44Z"/><path class="cls-4" d="M90.45,99.12c-.24-1.3-3-2.74-4-3.19a5.35,5.35,0,0,1,2.64.71A2.73,2.73,0,0,1,90.45,99.12Z"/><path class="cls-24" d="M51.1,90.18c3.64-6.11,18.83-3.11,18,3.75-.51,4.07-7.26,11.43-9.87,11.23C56.77,105,48.22,95,51.1,90.18Z"/><path class="cls-24" d="M67.67,90.09a4.21,4.21,0,0,1,.25,2.1c-.51,4.07-7.26,11.43-9.87,11.24-1.11-.09-3.5-2.22-5.49-5,2.12,3.54,5.31,6.6,6.64,6.7,2.61.2,9.36-7.16,9.87-11.23A4.56,4.56,0,0,0,67.67,90.09Z"/><path class="cls-25" d="M57.52,103.74c2.81.28,9.89-7.48,10.4-11.55a4.21,4.21,0,0,0-.25-2.1c-3.75-3.89-13.72-4.7-16.57.09-1.3,2.17-.28,5.38,1.46,8.28C54.55,101.21,56.41,103.62,57.52,103.74Z"/><path class="cls-26" d="M59.31,105.49h-.13c-1.74-.13-5.53-4.14-7.51-8-1.13-2.18-2.2-5.25-.85-7.52s4.16-3.45,7.81-3.45S66.24,88,68.1,90.09A4.85,4.85,0,0,1,69.39,94C68.89,98,62.29,105.49,59.31,105.49Zm-.68-18.3c-3.42,0-6.07,1.15-7.26,3.15s-.19,4.86.86,6.9c2.12,4.07,5.75,7.51,7,7.61h.08c2.41,0,9-7.08,9.45-11a4.17,4.17,0,0,0-1.14-3.38C65.87,88.53,62.26,87.19,58.63,87.19Z"/><path class="cls-26" d="M50.67,92.73l-.34-.54c5.94-3.75,12.17-1,12.23-.94S56.31,89.17,50.67,92.73Z"/><path class="cls-27" d="M65.26,97.28c-1.48-2.16-3.45-2.75-4.49-1.32s-.78,3.3,2.73,3.82a10.28,10.28,0,0,1,2.08.53c.5-.6,1-1.23,1.42-1.85A2.36,2.36,0,0,1,65.26,97.28Z"/><path class="cls-28" d="M60.77,96c-.83,1.43-.78,3.28,2.67,3.81a25.9,25.9,0,0,0,1.94-2.34l-.12-.15C63.78,95.12,62,94.63,60.77,96Z"/><path d="M65.68,100.69l-.21-.08a10,10,0,0,0-2-.51c-2.24-.34-3.05-1.22-3.34-1.91a2.45,2.45,0,0,1,.41-2.41,2.05,2.05,0,0,1,1.71-.92,4.35,4.35,0,0,1,3.29,2.24,2.08,2.08,0,0,0,1.5,1l.55,0-.31.45c-.44.62-.92,1.26-1.44,1.88ZM62.23,95.5a1.44,1.44,0,0,0-1.2.65,1.82,1.82,0,0,0-.33,1.79c.32.77,1.31,1.3,2.85,1.53a10.47,10.47,0,0,1,1.93.47c.34-.42.67-.85,1-1.27A3,3,0,0,1,65,97.46,3.84,3.84,0,0,0,62.23,95.5Z"/><path class="cls-27" d="M56.06,95.89c-1.07-1.2-2.73-.76-4.07,1.2a1.34,1.34,0,0,0-.11.14,19,19,0,0,0,1.29,2.21l.41-.08C56.77,98.89,56.82,97.19,56.06,95.89Z"/><path class="cls-28" d="M55.46,95.36c-1-.52-2.38.13-3.47,1.73a1.34,1.34,0,0,0-.11.14,15.58,15.58,0,0,0,.92,1.64C54.48,98.84,56.26,96.92,55.46,95.36Z"/><path d="M53,99.79l-.11-.18a19.51,19.51,0,0,1-1.32-2.24l-.09-.17.16-.2.06-.09a4,4,0,0,1,3-2,1.9,1.9,0,0,1,1.59.85,2.27,2.27,0,0,1,.37,2.22c-.26.63-1,1.44-3.06,1.75l-.4.07Zm-.77-2.53a19.65,19.65,0,0,0,1.07,1.83l.22,0c1.39-.21,2.28-.68,2.56-1.37a1.63,1.63,0,0,0-.3-1.6,1.27,1.27,0,0,0-1.07-.58A3.47,3.47,0,0,0,52.25,97.26Z"/><ellipse class="cls-29" cx="59.24" cy="88.6" rx="2.89" ry="1.1"/></svg>