<svg id="Layer_1" data-name="Layer 1" xmlns="http://www.w3.org/2000/svg" viewBox="0 0 256 256"><defs><style>.cls-1,.cls-3{fill:#a8d0ed;}.cls-1,.cls-3,.cls-8{stroke:#397faa;}.cls-1,.cls-3,.cls-6,.cls-8{stroke-miterlimit:10;}.cls-1,.cls-10,.cls-11,.cls-12,.cls-2,.cls-3,.cls-4,.cls-5,.cls-6,.cls-7,.cls-8,.cls-9{fill-rule:evenodd;}.cls-2{fill:#f4fbff;}.cls-3,.cls-6{stroke-width:0.75px;}.cls-4,.cls-6,.cls-8{fill:#fff;}.cls-5{fill:#8bb6d4;}.cls-6{stroke:#0f2938;}.cls-7{fill:#132836;}.cls-9{fill:#355668;}.cls-10{fill:#ff415a;}.cls-11{fill:#4b718c;}.cls-12{fill:#5889d9;opacity:0.2;}</style></defs><path class="cls-1" d="M153.38,101.35c11.19,1.29,32.6-1.81,36.73-1.14a42,42,0,0,1,14,5.08c3,1.92-5.41,3-7.48,3.67-5.49,1.9-11.19,6.33-16.76,10.07-4.57,3.06-17.33,10.18-31.34,2.41C149,112.18,147,106.17,153.38,101.35Z"/><path class="cls-1" d="M172.48,186.29c16.93,4.28,34.3-21,51.1-.83-13.43.13-18.78,20.74-29.64,19.59-.8-.08-1.61.53-1.24,1.21,6.35,11.91-9,23.59-5,35.76-25.32-7.49-12.08-32.74-21.73-42.65Z"/><path class="cls-2" d="M219.86,181.71a27.91,27.91,0,0,1,3.72,3.68c-13.43.13-18.78,20.38-29.64,19.25-.8-.08-1.61.52-1.24,1.19,6.35,11.7-9,23.17-5,35.12-25.32-7.35-12.08-32.16-21.73-41.89l.56-1.11c10.27,11.07-2,31.6,19,40.7-2.84-10.43,12.28-23,5.93-34.65-.37-.67.44-1.27,1.24-1.19,10.86,1.12,17.29-20.06,30.63-17.61A29.36,29.36,0,0,0,219.86,181.71Z"/><path class="cls-1" d="M75.24,69.17C56.75,75.63,35,93.6,32.47,119.24c-.73,7.36,7,2.39,9.84.72,11.23-6.68,28.82-2.88,37.26,0C78.75,104.16,76.06,85,75.24,69.17Z"/><path class="cls-2" d="M75.24,69.17C56.75,75.63,35,93.6,32.47,119.24c-.18,1.78.13,2.68.75,3,0-.14,0-.28,0-.44,2.48-25.1,23.85-43.69,42.1-50.52C75.31,70.58,75.27,69.88,75.24,69.17Z"/><path class="cls-3" d="M171.05,199.28a30.52,30.52,0,0,1-9.4.24c-35-5-68.09-28.2-84-62.3-5.11-11-7.73-25.78-8.48-35.5,1-4.84-.17-11.63-.12-15.53.61-4,.83-8.28,1.48-12.29,5-31.29,26.4-49.32,42.07-55.33,18.26-7,34.68-6.22,48.72,4C171.64,30,175.06,41.1,179.25,53.1c1.09,3.12,7.78,7.12,13.09,10.27-11.2,3.44-22.41,7.95-33.61,11.82L154.94,98c.9,1.44,1.48,4.24,1,9,1.33,17.06-.35,38.59-1.94,52-.4,3.39,8.82,15.88,13.43,21.13,3.11,3.56,9.21,10.83,8.31,13.19C175.31,195.65,173.34,197.92,171.05,199.28Z"/><path class="cls-2" d="M170.23,198.23a30,30,0,0,1-9.17.24,108.81,108.81,0,0,1-79.92-56.26l2.39.33A109.11,109.11,0,0,0,152,195.19C157.31,196.52,164.74,198.46,170.23,198.23Z"/><path class="cls-4" d="M117.37,68.4c-10.77.81-11.58,8.58-4.46,19.83,1.89,3-11.37,20.89-10.6,28.84,1.9,19.63,10.78,37.86,27.84,53.58,7.32,6.75,14.41,13.31,24.6,15.15,8.74,1.57,11.77-4.67,6.24-13-.47-.63-.94-1.27-1.4-1.92h0c-3.52-5-6.6-10.09-6.36-12.08,1.58-13.42,3.23-40.26,1.9-57.32-8.57-13.25-15.78-22.65-24.35-35.9C125.63,66.32,122.51,67.68,117.37,68.4Z"/><path class="cls-5" d="M118.87,35.25c-5,6.8-.29,18.13,7.4,21a9.68,9.68,0,0,0,12.19-7.48c.8-3.85.75-10.18-3.53-14.61A10.45,10.45,0,0,0,118.87,35.25Z"/><path class="cls-6" d="M120.62,38.08c-3.83,6.26.49,15.76,6.27,18.37a6.67,6.67,0,0,0,5.28.14c5.63-2.39,7.54-10,5.47-15.38a13,13,0,0,0-3-4.61C131.17,33.12,124,32.53,120.62,38.08Z"/><path class="cls-7" d="M122.33,50.62c1.54,3.47,5.32,7,8.93,5.42a6.56,6.56,0,0,0,3.09-3.83c1.53-3.84.35-9.49-3.06-11.9a5.94,5.94,0,0,0-7.67.32C121.16,43.08,120.81,47.18,122.33,50.62Z"/><path class="cls-4" d="M125.12,37.86a3.09,3.09,0,0,0-.91,4.06,2.64,2.64,0,0,0,3.64,1.39,3.12,3.12,0,0,0,.91-4.06A2.64,2.64,0,0,0,125.12,37.86Z"/><path class="cls-1" d="M85.8,100.11c-10.71,7.69-21.57,16.36-27.4,27.35S50.69,155,52.52,162.91s5.61.19,8.28-3.41,9.42-11.11,17.23-15c3.26-1.61,6.73-6.33,7.49-11,1.14-6.93.44-16.38,5.23-20.42C93.46,108.83,93.7,101,85.8,100.11Z"/><path class="cls-2" d="M84.25,102.05l-.08.06,0,0-.71.51,0,0,0,0-.55.4h0l-.15.11C73,110.4,63.37,118.49,58.1,128.61c-5.56,10.67-7.36,26.71-5.61,34.41.61,2.71,1.46,3.53,2.41,3.31a9.79,9.79,0,0,1-.7-2.13c-1.74-7.7.06-23.74,5.62-34.41A58.6,58.6,0,0,1,72.43,114.1c4-3.69,8.39-7.29,12.75-10.58a17.9,17.9,0,0,1,3.51.43h0a15.51,15.51,0,0,1,3.81,1.32,18.2,18.2,0,0,0-8.25-3.22Z"/><path class="cls-8" d="M164.44,72.4c-4.83,9.69-.25,22.43,5.85,28.29,2.14,2.06-5,4.68-12.36,2.37-6.23-2-12.07-6.23-18.26-7.41l-7.75-1.93s-9.4-1.17-5.9-13.29"/><path class="cls-9" d="M133.41,72.24c6.48,4.3,17.54,24.7,25.13,27,6.38,1.89,9,1.68,7,0-4.15-3.48-8.21-17.88-4.65-24.14C154.3,75.83,140,71.47,133.41,72.24Z"/><path class="cls-10" d="M151.21,75.46C149,75,141,74,138.77,74.13c5,4.41,11.3,15.06,17.16,20.76C158.11,93.57,156.74,79.18,151.21,75.46Z"/><path class="cls-1" d="M170.85,55.46c2.32-.35,10.3-2.33,14.57-2.81,14.32-1.59,19.39,7.12,16.25,7.9C189,63.72,161.39,74,153.11,73.87c-6.89-.1-23.61-3-22.85-7.55"/><path class="cls-11" d="M130.78,65.6c-3.9,1.31-10.4,2.73-8.36,2.74,4,0,8.18,0,12.48-3.18a4.69,4.69,0,0,0,2-2.64C137.07,61.49,134.56,64.33,130.78,65.6Z"/><path class="cls-5" d="M171.79,46.71a10.93,10.93,0,0,0-4.17-.48c-5.87.38-11,3.35-16.76,7.11,5-4.78,11.85-8.53,16.38-8.41A7,7,0,0,1,171.79,46.71Z"/><path class="cls-11" d="M113.66,33.07c-.27,2-1,.8-1.19-2.15a13.26,13.26,0,0,1,.88-6.26c1.38-2.8,8-2.12,10.83-1.12.71.24-2.5.61-3.84.94a11.05,11.05,0,0,0-4.17,2A14.88,14.88,0,0,0,113.66,33.07Z"/><path class="cls-12" d="M223.58,185.39a28,28,0,0,0-3-3.1c-15.85-14.08-32.15,8-48.06,4l0,.06c-1.69-2.29-3.67-4.62-5.06-6.21C162.78,174.89,153.56,162.4,154,159c1.08-9.12,2.2-22,2.39-34.63,10.78,2.28,19.87-2.87,23.57-5.35,5.57-3.74,11.27-8.17,16.76-10.07,2.07-.71,10.51-1.75,7.48-3.67a42,42,0,0,0-14-5.08c-2.42-.39-10.75.51-19.48,1.06a1.26,1.26,0,0,0-.34-.58C164.38,95,159.92,82.88,164,73.31c9.43-3.39,18.87-7,28.3-9.94l-.16-.1c3.59-1.1,6.86-2.07,9.49-2.72,3.14-.78-1.93-9.49-16.25-7.9-1.61.18-3.75.58-5.91,1a2.88,2.88,0,0,1-.26-.57c-4.19-12-7.61-23.09-17.94-30.57-14-10.18-30.46-11-48.72-4C97.44,24.37,77,41.41,71.08,70.8c-17.45,7.54-36.27,24.7-38.61,48.44,0,.23,0,.45,0,.65v.55c.24,5.57,7.26,1.09,9.89-.48,6.75-4,15.79-4.24,23.77-3.15a52.28,52.28,0,0,0-7.68,10.65c-4.4,8.31-6.55,19.77-6.55,28.3a32.5,32.5,0,0,0,.64,7.26c.55,2.45,1.3,3.34,2.14,3.33,1.9.18,4.31-4.34,6.17-6.85,2.67-3.6,9.42-11.11,17.23-15a10.52,10.52,0,0,0,2.43-1.73c16.79,31,48.13,52,81.19,56.73a33.28,33.28,0,0,0,4.65.24c9,10.16-3.6,34.86,21.4,42.26q-.19-.59-.33-1.17l.33.1a12.77,12.77,0,0,1-.66-3.76c.29-8.35,7.24-16.52,7.21-24.73a12.74,12.74,0,0,0-1.55-6.63.61.61,0,0,1,0-.12,1.25,1.25,0,0,1,1.29-.66c10.86,1.15,16.21-19.46,29.64-19.59l-.05-.07Z"/></svg>