<svg id="Layer_1" data-name="Layer 1" xmlns="http://www.w3.org/2000/svg" xmlns:xlink="http://www.w3.org/1999/xlink" viewBox="0 0 100 40"><defs><style>.cls-1{fill:#fff;}.cls-2{fill:url(#linear-gradient);}.cls-3{fill:#030303;}.cls-4{fill:#fcfdff;}.cls-5{fill:#422f2a;}.cls-6{fill:#705257;}.cls-7{fill:url(#linear-gradient-2);}</style><linearGradient id="linear-gradient" x1="-126.04" y1="-136.04" x2="-130" y2="-99.25" gradientTransform="translate(150.29 145.04)" gradientUnits="userSpaceOnUse"><stop offset="0" stop-color="#4a240d"/><stop offset="0.64" stop-color="#9b6a33"/></linearGradient><linearGradient id="linear-gradient-2" x1="-68.92" y1="-131.01" x2="-72.89" y2="-94.22" gradientTransform="translate(157.61 136.93) rotate(-3.54)" xlink:href="#linear-gradient"/></defs><path class="cls-1" d="M7,27.23s-.34-5.4,5.62-14.17c3-4.37,7.54-6.61,11.84-5.8,5.61,1.07,8.43,8.18,10.27,12.83a12.38,12.38,0,0,1,.83,3.28,11.27,11.27,0,0,1-.36,4.28c-1.47,4.4-10.52,5.2-11.2,5.26C15.93,33.55,9.57,29.21,7,27.23Z"/><ellipse class="cls-2" cx="22.78" cy="22.67" rx="8.26" ry="8.99" transform="translate(-1.36 1.45) rotate(-3.54)"/><ellipse class="cls-3" cx="22.84" cy="23.61" rx="4.93" ry="4.47" transform="translate(-1.42 1.46) rotate(-3.54)"/><ellipse class="cls-4" cx="19.45" cy="20.89" rx="2.17" ry="1.88" transform="translate(-1.25 1.24) rotate(-3.54)"/><path class="cls-5" d="M9.73,19.69A19.84,19.84,0,0,1,12.87,9.22a12.15,12.15,0,0,1,4.31-4,10.13,10.13,0,0,1,6-1.14A11.72,11.72,0,0,1,28.74,6.3a15.14,15.14,0,0,1,3.92,4.23,19.09,19.09,0,0,1,2.89,10.53A30,30,0,0,0,30.7,12c-2.13-2.52-4.9-4.46-7.88-4.8a7.78,7.78,0,0,0-4.32.69,11.54,11.54,0,0,0-3.72,2.84A32.07,32.07,0,0,0,9.73,19.69Z"/><path class="cls-6" d="M7,27.23s-.34-5.4,5.62-14.17c3-4.37,7.54-6.61,11.84-5.8,5.61,1.07,8.43,8.18,10.27,12.83a12.38,12.38,0,0,1,.83,3.28,11.27,11.27,0,0,1-.36,4.28,52.46,52.46,0,0,0-13.89-3.6C10.71,23.2,7,27.23,7,27.23Z"/><path class="cls-1" d="M81.35,34.4c-8.11.64-14.46-3.7-17-5.68,0,0-.33-5.4,5.63-14.17,3-4.37,7.54-6.62,11.84-5.8,5.61,1.07,8.43,8.18,10.27,12.83a12.81,12.81,0,0,1,.83,3.28,11.48,11.48,0,0,1-.36,4.28c-1.47,4.4-10.52,5.2-11.2,5.26"/><path class="cls-7" d="M80.66,33.13c-4.56.28-8.5-3.51-8.81-8.46s3.14-9.2,7.69-9.48,8.5,3.5,8.81,8.46-3.14,9.2-7.69,9.48"/><ellipse class="cls-3" cx="80.16" cy="25.1" rx="4.93" ry="4.47" transform="translate(-1.4 5) rotate(-3.54)"/><ellipse class="cls-4" cx="76.77" cy="22.38" rx="2.17" ry="1.88" transform="translate(-1.24 4.79) rotate(-3.54)"/><path class="cls-5" d="M67.05,21.18a19.83,19.83,0,0,1,3.13-10.47,12.18,12.18,0,0,1,4.32-4,10.11,10.11,0,0,1,6-1.14,11.76,11.76,0,0,1,5.56,2.23A15.14,15.14,0,0,1,90,12a19.09,19.09,0,0,1,2.89,10.53A29.83,29.83,0,0,0,88,13.45c-2.12-2.52-4.9-4.46-7.87-4.8a7.9,7.9,0,0,0-4.33.68,11.79,11.79,0,0,0-3.71,2.85A31.58,31.58,0,0,0,67.05,21.18Z"/><path class="cls-6" d="M92.58,29.05s2.26-5.92-4-14.79c-3-4.32-7.28-6.47-12.14-5.51C70.89,9.86,67.94,17,66.06,21.64c-.87,2.11-1.23,3.1-1.34,3.46-.55,1.79-.52,3.8-.33,3.66,0,0,7.2-3.39,14-3.13C88.42,26,92.58,29.05,92.58,29.05Z"/></svg>