<svg xmlns="http://www.w3.org/2000/svg" xmlns:xlink="http://www.w3.org/1999/xlink" viewBox="0 0 765 440"><defs><style>.cls-1{isolation:isolate;}.cls-2{fill:#919191;}.cls-3{fill:#939393;}.cls-4{fill:url(#linear-gradient);}.cls-5{fill:url(#linear-gradient-2);}.cls-6{fill:url(#linear-gradient-3);}.cls-7{fill:#ef7584;}.cls-8{fill:url(#linear-gradient-4);}.cls-9{fill:url(#linear-gradient-5);}.cls-10{fill:url(#linear-gradient-6);}.cls-11{fill:url(#linear-gradient-7);}.cls-12{fill:url(#linear-gradient-8);}.cls-13{fill:url(#linear-gradient-9);}.cls-14{fill:url(#linear-gradient-10);}.cls-15{fill:url(#linear-gradient-11);}.cls-16{fill:url(#linear-gradient-12);}.cls-17{fill:url(#linear-gradient-13);}.cls-18{fill:url(#linear-gradient-14);}.cls-19{fill:url(#linear-gradient-15);}.cls-20{fill:url(#linear-gradient-16);}.cls-21{fill:url(#linear-gradient-17);}.cls-22{fill:url(#linear-gradient-18);}.cls-23{fill:url(#linear-gradient-19);}.cls-24{fill:url(#linear-gradient-20);}.cls-25,.cls-28{fill:#2b5d72;}.cls-26,.cls-30{fill:#66b2c6;}.cls-26{opacity:0.19;}.cls-27{fill:#1e4756;}.cls-28{stroke:#1c4959;}.cls-28,.cls-31{stroke-miterlimit:10;stroke-width:0.75px;}.cls-29{fill:#0e3f54;}.cls-30{opacity:0.15;}.cls-31{fill:#e5e1e1;stroke:#afafaf;}.cls-32{fill:#c6c6c6;}.cls-33{fill:#545454;}.cls-34{opacity:0.53;}.cls-34,.cls-38{mix-blend-mode:screen;}.cls-35{fill:#fcfafa;}.cls-36{fill:#acacac;opacity:0.22;mix-blend-mode:multiply;}.cls-37{fill:#cbcbcb;}.cls-38{fill:#d6d6d6;}.cls-39{fill:#04568d;}.cls-40{fill:#001d42;}.cls-41{fill:#1c4959;}</style><linearGradient id="linear-gradient" x1="-3794.77" y1="-7025.83" x2="-3777.5" y2="-7025.83" gradientTransform="matrix(0.56, -0.83, -0.83, -0.56, -3584.79, -6733.92)" gradientUnits="userSpaceOnUse"><stop offset="0.09" stop-color="#fff"/><stop offset="1" stop-color="#e2e2e2"/></linearGradient><linearGradient id="linear-gradient-2" x1="-3782.26" y1="-7030.52" x2="-3765" y2="-7030.52" xlink:href="#linear-gradient"/><linearGradient id="linear-gradient-3" x1="-3767.66" y1="-7038" x2="-3750.4" y2="-7038" xlink:href="#linear-gradient"/><linearGradient id="linear-gradient-4" x1="848.91" y1="134.32" x2="866.78" y2="134.32" gradientTransform="translate(-713.7 39.27) rotate(10.06)" xlink:href="#linear-gradient"/><linearGradient id="linear-gradient-5" x1="865.44" y1="126.2" x2="883.31" y2="126.2" gradientTransform="translate(-713.7 39.27) rotate(10.06)" gradientUnits="userSpaceOnUse"><stop offset="0.09" stop-color="#fff"/><stop offset="1" stop-color="#919191"/></linearGradient><linearGradient id="linear-gradient-6" x1="865.44" y1="127.53" x2="883.31" y2="127.53" gradientTransform="translate(-713.7 39.27) rotate(10.06)" xlink:href="#linear-gradient"/><linearGradient id="linear-gradient-7" x1="99.21" y1="341.59" x2="107.72" y2="341.59" gradientTransform="matrix(1, 0, 0, 1, 0, 0)" xlink:href="#linear-gradient"/><linearGradient id="linear-gradient-8" x1="-3048.88" y1="-7672.51" x2="-3031.46" y2="-7672.51" gradientTransform="matrix(0.73, -0.68, -0.68, -0.73, -2904.25, -7337.74)" xlink:href="#linear-gradient"/><linearGradient id="linear-gradient-9" x1="-3510.86" y1="-7312.95" x2="-3493.54" y2="-7312.95" gradientTransform="matrix(0.63, -0.78, -0.78, -0.63, -3334.6, -6987.21)" xlink:href="#linear-gradient"/><linearGradient id="linear-gradient-10" x1="-3493.46" y1="-7325.12" x2="-3476.14" y2="-7325.12" gradientTransform="matrix(0.63, -0.78, -0.78, -0.63, -3334.6, -6987.21)" xlink:href="#linear-gradient"/><linearGradient id="linear-gradient-11" x1="-3907.66" y1="-6902.26" x2="-3890.41" y2="-6902.26" gradientTransform="matrix(0.52, -0.86, -0.86, -0.52, -3717.16, -6571.82)" xlink:href="#linear-gradient"/><linearGradient id="linear-gradient-12" x1="-3893.18" y1="-6912.55" x2="-3875.93" y2="-6912.55" gradientTransform="matrix(0.52, -0.86, -0.86, -0.52, -3717.16, -6571.82)" xlink:href="#linear-gradient"/><linearGradient id="linear-gradient-13" x1="-3880.9" y1="-6922.81" x2="-3863.66" y2="-6922.81" gradientTransform="matrix(0.52, -0.86, -0.86, -0.52, -3717.16, -6571.82)" xlink:href="#linear-gradient"/><linearGradient id="linear-gradient-14" x1="-3868.66" y1="-6930.73" x2="-3851.42" y2="-6930.73" gradientTransform="matrix(0.52, -0.86, -0.86, -0.52, -3717.16, -6571.82)" xlink:href="#linear-gradient"/><linearGradient id="linear-gradient-15" x1="881.16" y1="119.74" x2="899.03" y2="119.74" gradientTransform="translate(-713.7 39.27) rotate(10.06)" xlink:href="#linear-gradient"/><linearGradient id="linear-gradient-16" x1="898.29" y1="111.68" x2="916.15" y2="111.68" gradientTransform="translate(-713.7 39.27) rotate(10.06)" xlink:href="#linear-gradient"/><linearGradient id="linear-gradient-17" x1="914.71" y1="104.31" x2="932.58" y2="104.31" gradientTransform="translate(-713.7 39.27) rotate(10.06)" xlink:href="#linear-gradient"/><linearGradient id="linear-gradient-18" x1="1629.82" y1="-226.58" x2="1647.56" y2="-226.58" gradientTransform="translate(-1422.72 -53.98) rotate(20.08)" xlink:href="#linear-gradient"/><linearGradient id="linear-gradient-19" x1="2217.42" y1="-625.82" x2="2235.03" y2="-625.82" gradientTransform="matrix(0.87, 0.49, -0.49, 0.87, -2038.57, -244.91)" xlink:href="#linear-gradient"/><linearGradient id="linear-gradient-20" x1="2229.18" y1="-637.77" x2="2246.79" y2="-637.77" gradientTransform="matrix(0.87, 0.49, -0.49, 0.87, -2038.57, -244.91)" xlink:href="#linear-gradient"/></defs><g class="cls-1"><g id="Layer_1" data-name="Layer 1"><path class="cls-2" d="M102.84,350.88c-7.15-7.63-4.39-15.2,11.61-22.27,19.72-8.72,38.48-21.45,49.25-39.38,23.09-10.9,89.67-20.54,91.14-3.77S222.32,339,187.58,345.05,102.84,350.88,102.84,350.88Z"/><path class="cls-3" d="M124.12,340l2-19.5,12.13,12.27S129.05,339.75,124.12,340Z"/><path class="cls-4" d="M124.12,340l2-19.5,6,16.33A13.52,13.52,0,0,1,124.12,340Z"/><path class="cls-3" d="M135,332.27l2-19.49,12.13,12.27S139.93,332,135,332.27Z"/><path class="cls-5" d="M135,332.27l2-19.49,6,16.33A13.47,13.47,0,0,1,135,332.27Z"/><path class="cls-3" d="M149.37,324.35l2-19.5,12.13,12.27S154.29,324.07,149.37,324.35Z"/><path class="cls-6" d="M149.37,324.35l2-19.5,6,16.33A13.51,13.51,0,0,1,149.37,324.35Z"/><path class="cls-7" d="M125.36,346.23c-5.64-6.67-3.46-13.3,9.14-19.49,15.55-7.63,30.33-18.77,38.82-34.47,18.19-9.54,70.65-18,71.81-3.3s-25.62,46.85-53,52.16S125.36,346.23,125.36,346.23Z"/><path class="cls-3" d="M99.08,317.57l16,12.19-.77-16.89S102.7,314.36,99.08,317.57Z"/><path class="cls-8" d="M99.08,317.57l16,12.19L107,314.27A13.51,13.51,0,0,0,99.08,317.57Z"/><path class="cls-9" d="M116.53,313.77l16,12.2-.77-16.89S120.16,310.57,116.53,313.77Z"/><path class="cls-10" d="M116.53,313.77l16,12.2-8.07-15.49A13.57,13.57,0,0,0,116.53,313.77Z"/><path class="cls-3" d="M99.21,350.79l6.45-18.58,9,14.56S104.07,351.58,99.21,350.79Z"/><path class="cls-11" d="M99.21,350.79l6.45-18.58,2.06,17.2A13.68,13.68,0,0,1,99.21,350.79Z"/><path class="cls-3" d="M118.17,347l6.45-18.58,9,14.55S123,347.79,118.17,347Z"/><path class="cls-12" d="M118.17,347l6.45-18.58,2.06,17.2A13.68,13.68,0,0,1,118.17,347Z"/><path class="cls-3" d="M139.18,345.61l3.74-19.26,11,13.25S144.1,345.75,139.18,345.61Z"/><path class="cls-13" d="M139.18,345.61l3.74-19.26,4.49,16.78A13.62,13.62,0,0,1,139.18,345.61Z"/><path class="cls-3" d="M159.59,339.75l3.75-19.25,10.95,13.24S164.52,339.89,159.59,339.75Z"/><path class="cls-14" d="M159.59,339.75l3.75-19.25,4.48,16.77A13.59,13.59,0,0,1,159.59,339.75Z"/><path class="cls-3" d="M179.78,338.49l.94-19.57,12.76,11.67S184.68,338,179.78,338.49Z"/><path class="cls-15" d="M179.78,338.49l.94-19.57,6.86,16A13.43,13.43,0,0,1,179.78,338.49Z"/><path class="cls-3" d="M196.08,331.4l.93-19.57,12.76,11.67S201,330.89,196.08,331.4Z"/><path class="cls-16" d="M196.08,331.4l.93-19.57,6.86,16A13.38,13.38,0,0,1,196.08,331.4Z"/><path class="cls-3" d="M211.19,326.18l.94-19.56,12.76,11.67S216.1,325.67,211.19,326.18Z"/><path class="cls-17" d="M211.19,326.18l.94-19.56,6.86,16A13.39,13.39,0,0,1,211.19,326.18Z"/><path class="cls-3" d="M224.3,319.78l.93-19.57L238,311.88S229.2,319.27,224.3,319.78Z"/><path class="cls-18" d="M224.3,319.78l.93-19.57,6.86,16A13.38,13.38,0,0,1,224.3,319.78Z"/><path class="cls-3" d="M133.38,308.85l16,12.19-.77-16.89S137,305.65,133.38,308.85Z"/><path class="cls-19" d="M133.38,308.85l16,12.19-8.07-15.49A13.59,13.59,0,0,0,133.38,308.85Z"/><path class="cls-3" d="M151.65,303.9l16,12.2-.77-16.9S155.27,300.7,151.65,303.9Z"/><path class="cls-20" d="M151.65,303.9l16,12.2-8.07-15.49A13.54,13.54,0,0,0,151.65,303.9Z"/><path class="cls-3" d="M169.1,299.52l16,12.2-.77-16.9S172.73,296.32,169.1,299.52Z"/><path class="cls-21" d="M169.1,299.52l16,12.2L177,296.22A13.63,13.63,0,0,0,169.1,299.52Z"/><path class="cls-3" d="M186.58,290.81l13.52,14.67,2.31-16.76S190.72,288.26,186.58,290.81Z"/><path class="cls-22" d="M186.58,290.81l13.52,14.67L195,288.88A13.71,13.71,0,0,0,186.58,290.81Z"/><path class="cls-3" d="M204.22,285.68l11,16.54,5-16.21S208.74,283.79,204.22,285.68Z"/><path class="cls-23" d="M204.22,285.68l11,16.54-2.35-17.17A13.77,13.77,0,0,0,204.22,285.68Z"/><path class="cls-3" d="M220.31,281l10.95,16.53,5-16.2S224.83,279.08,220.31,281Z"/><path class="cls-24" d="M220.31,281l10.95,16.53-2.34-17.17A13.82,13.82,0,0,0,220.31,281Z"/><path class="cls-25" d="M166.32,350.56c-11.72,9-49.82,34.86-60.38,41.6,10.56,4.5,66.83-13.63,93.21-29.86C202.67,351.13,180.39,346.63,166.32,350.56Z"/><path class="cls-25" d="M363,154.22C394.2,120.5,400.36,18,446.52,5.81c12.31,4.64-20.23,105.41,31.65,168.23C458,179.52,378.82,171.93,363,154.22Z"/><path class="cls-26" d="M378.82,142c14.06-28.67,28.57-111.73,64.62-131.13-11.87,25.72-24.18,94-18,140C417.06,156.33,388.47,148.06,378.82,142Z"/><path class="cls-25" d="M576.65,207.77c9.09-3.65,22.57-16,31.07-18.83.59,5.06,0,21.08,3.52,29.79C600.68,218.45,583.39,210.86,576.65,207.77Z"/><path class="cls-25" d="M671.51,225.82c4.4-29.1,54.09-117.64,90.57-129.87,1.85,6.81,1.4,13.36.76,20.3a20.6,20.6,0,0,1-5.41,12.35c-3.33,3.5-6.38,9.52-8.4,18.79-2.93,13.5-12.31,69.29-22.86,80.82,10.26,18.26,9.09,61,32,86.85,7.33,7,3.51,11.52-16.71,1.41S674.59,262.22,671.51,225.82Z"/><path class="cls-26" d="M684.65,239.82c6.6,22.7,25.94,49.22,62.43,74.78-13.62-16.6-41.76-55-44.4-77.31C699.16,235.18,684.65,239.82,684.65,239.82Z"/><path class="cls-26" d="M683.92,230.12c4-34.15,40.89-97,76.5-121.85-14.95,21.08-48.36,80.11-52.76,121.85C704.59,236.44,683.92,230.12,683.92,230.12Z"/><path class="cls-27" d="M761.56,320.42s.62-1.89-6.69-9.36c0,0-15.56-19-20.11-54.18,0,0-3.44-21.66-8.59-28.67,0,0,11.75-20.84,21.83-75.74,0,0,.7-13.12,9.43-23.87,0,0,6.55-6.15,6-22.19L762.08,96s.23,25.51-7,30.48a41.71,41.71,0,0,0-10.29,27.36c.1,16.66-22.63,75.83-22.63,75.83s7.56,14.46,9.3,27.26c0,0,9.61,42.07,22.22,56.17Z"/><path class="cls-28" d="M250.88,288.69c-10.55,23.05-63.77,43-99.8,48.38-40.44,6-56.13,1.92-57.59,8.53-2.3,10.37,21.59,17.33,99.85,23.66s172.28-15.09,261.09-37.86,149.48-60,187.29-72.61,84.61-14.76,84.29-24-28.46-10.55-68-13.5-107.71-30.35-145.52-50.17-74.74-43-164-36.26-157,26.56-232.57,52.71S.29,245.72,1.6,268.91c0,13.49,67.46,42.6,90.35,44.39C135,316.67,210.14,280.82,250.88,288.69Z"/><path class="cls-29" d="M102.87,256c9.38,7,25.57,14.65,47.19,11.24s20-19.66,35.66-25.78C170.87,230.19,108.73,238.41,102.87,256Z"/><path class="cls-30" d="M174.08,258.11c32.3-8.16,59.51-21.2,90.11-27.72,59.51-13,113.92-17.94,171.73-26.09,39.25-5.89,76.73-9.21,114.35-11.23-17.07-7-33-14.43-45.49-21-36.55-19.16-72.26-41.58-158.55-35.06s-151.75,25.68-224.86,51C52,212,13.7,241.05,11,263.11,64.79,266.37,118.6,271,174.08,258.11Z"/><path class="cls-31" d="M230.22,253.31c-12.31-3.38-24.69-6.4-40.45,1.68-56.71,29.1-76.84,8.69-112.55,10.4S16,275.38,2.09,271c5.8,14.61,67,45.53,88.76,47.24,43.09,3.37,113.28-35.14,154-27.27-10.55,23-57.76,40.72-93.79,46.1-40.44,6-59.79,1-61.25,7.59-2.3,10.36,20.37,22.07,98.62,28.39S369.14,360.4,458,337.63s146-66.19,183.77-78.84l.76-.25c-39,4.65-73.15,28.67-111.55,35.24-28.47,5.59-61,10.7-103.76,9.56C342.76,301.09,333.38,274.11,230.22,253.31Z"/><path class="cls-32" d="M179.8,372.31s234.62,16.95,426.55-98.84l41.4-16.59S546.27,292.77,431.53,336c0,0-123.92,47.34-325.59,19.25,0,0-11.5-2.63-16.11-10.58C89.83,344.66,85.5,365.25,179.8,372.31Z"/><path class="cls-33" d="M90.82,292c3,.94,4.9,3,4.34,4.63s-3.41,2.17-6.37,1.23-4.9-3-4.34-4.64S87.87,291.05,90.82,292Z"/><g class="cls-34"><path class="cls-35" d="M81.71,292.43c.78-2.24,3-3.71,5.76-4.05l-.27-.1c-4.57-1.45-9.12-.23-10.14,2.74s1.84,6.56,6.41,8l.53.15C81.88,297.32,80.9,294.76,81.71,292.43Z"/></g><path class="cls-36" d="M212.12,342.74c-16.23,10.95-64.64,20.6-109.56,15.15C134.79,369.58,184.3,377.17,212.12,342.74Z"/><path class="cls-36" d="M244.87,291a91.18,91.18,0,0,1,19.64,5.45c-4.73-.53-21.39,2.42-27.95,5.8C238.24,299.83,243,295.54,244.87,291Z"/><path class="cls-37" d="M159.52,252.1c0,7.29-6.71,13.21-15,13.21s-15-5.92-15-13.21,6.7-13.22,15-13.22S159.52,244.8,159.52,252.1Z"/><path d="M153,251.9c0,4.06-3.88,7.35-8.67,7.35s-8.67-3.29-8.67-7.35,3.88-7.35,8.67-7.35S153,247.85,153,251.9Z"/><ellipse class="cls-38" cx="140.25" cy="248.55" rx="3.26" ry="3.13"/><path class="cls-38" d="M150.06,255.32a1.64,1.64,0,0,1-3.27,0,1.64,1.64,0,0,1,3.27,0Z"/><path class="cls-39" d="M102,257.24a58.13,58.13,0,0,0,15.75-1.55c8-2,15.17-6.56,21.2-10.56s15.69-5.93,23.46-6.64,19.83,1.2,24.09,2.53c-2.19-5.63-30.82-14.48-51.45-9.22S100.77,250,102,257.24Z"/><path class="cls-25" d="M510.49,335.1c-30.78-22.77-31.88-44.69-31.88-44.69l-84,3.8s25.94,34.57,95.4,69.14,176.74,70,214.55,70.84C687.88,420.69,541.26,357.87,510.49,335.1Z"/><path class="cls-26" d="M407.83,300.33c16.72,19.19,44.63,41.06,82.51,60.77,52.42,27.28,122,51.38,190.29,67C616.51,400,430.69,305.76,407.83,300.33Z"/><path class="cls-25" d="M566.41,271l-46.9,21.64s40.45,32.61,77.38,37.11C573.44,301.32,566.41,271,566.41,271Z"/><path class="cls-26" d="M522.14,290.38c11.72,12.4,43.67,29.84,66.82,35.46C578.12,314.3,537.67,289.5,522.14,290.38Z"/><path class="cls-25" d="M621.78,251l-27.84,12.85s24,19.36,45.93,22A94.67,94.67,0,0,1,621.78,251Z"/><path class="cls-26" d="M597.34,263.28c6.59,7.08,24.63,17.11,37.74,20.4C629,277.09,606.16,262.85,597.34,263.28Z"/><path class="cls-40" d="M298,304.16s7.93-14.36,8.49-37.64-6.65-37-6.65-37c.43.52,13.2,13.1,12.62,37.17S298.44,303.61,298,304.16Z"/><path class="cls-40" d="M317.32,310.3s8-16.34,8.81-42.74-6.35-41.91-6.35-41.91c.43.58,13.1,14.76,12.31,42S317.78,309.68,317.32,310.3Z"/><path class="cls-40" d="M336.51,311.41s8.05-16.34,8.81-42.74S339,226.76,339,226.76c.43.58,13.09,14.76,12.31,42.05S337,310.79,336.51,311.41Z"/><path class="cls-40" d="M353.79,307.39s7.92-14.36,8.49-37.63-6.65-37-6.65-37c.43.52,13.19,13.1,12.61,37.17S354.25,306.84,353.79,307.39Z"/><path class="cls-41" d="M102.87,254c8.79,0,19.2-1.22,28-7.54s27.61-15.75,52.93-7C175.85,227.59,121,220.74,102.87,254Z"/></g></g></svg>