<svg id="Layer_1" data-name="Layer 1" xmlns="http://www.w3.org/2000/svg" viewBox="0 0 160 130"><defs><style>.cls-1{fill:#910000;}.cls-2{fill:#f33;}.cls-3{fill:#d80000;}.cls-4{fill:#b7b7b7;}.cls-5{fill:#fff;}.cls-6{fill:#191919;}</style></defs><path class="cls-1" d="M36.74,117.29c-3.59-6.36-5.2-32.76-13.71-42,0-.91,18.27-6,21.12-3.85,0,0-8.27,24.84,6.32,39.77,2.5-.41,4.74.78,5.13,1.75.72,1.82-3.66,5.49-9.78,8.23s-11.67,3.47-12.39,1.67C33,121.76,34.1,119.17,36.74,117.29Z"/><path class="cls-2" d="M54.14,113.13c.08.46-1.32,2.61-6.17,5.3l0,0-.49.26-.62.33h0c-.62.32-1.26.63-1.91.92-6.68,3-10.67,2.8-11.06,2.24-.14-.4.48-2.52,2.94-4.27l.81-.57-.5-.88c-1.24-2.2-2.21-6.9-3.32-12.34-1.33-6.51-3.2-15.4-6-22.18l1.18.16a33.88,33.88,0,0,0,12-.72c-.15,1.75-.28,3.55-.37,5.24-.53,10.1,2.46,18.78,8.63,25.11l.37.37.5-.08A4.49,4.49,0,0,1,54.14,113.13Z"/><path class="cls-3" d="M54.14,113.13c.08.46-1.32,2.61-6.17,5.3l0,0-.18.09h0c-.62.32-1.26.62-1.91.91-6.69,3-10.67,2.8-11.06,2.24-.14-.4.48-2.51,2.94-4.26l.81-.58L38,116c-1.24-2.21-2.21-6.9-3.32-12.34-1.3-6.31-3.09-14.84-5.74-21.54a33.88,33.88,0,0,0,12-.72c-.15,1.75-.28,3.55-.37,5.24-.53,10.1,2.46,18.78,8.63,25.11l.36.37.51-.08A4.51,4.51,0,0,1,54.14,113.13Z"/><path class="cls-3" d="M55.3,37.2C62,51.28,56.67,68.45,43.37,75.56a25.86,25.86,0,0,1-29.82-3.88A28.33,28.33,0,0,1,8,63.76C1.24,49.69,6.57,32.52,19.89,25.41A25.85,25.85,0,0,1,49.73,29.3,28.59,28.59,0,0,1,55.3,37.2Z"/><path class="cls-2" d="M55.73,37.62C62.45,51.69,57.1,68.87,43.8,76A25.84,25.84,0,0,1,14,72.09a28.07,28.07,0,0,1-6.45-8.74C.8,49.27,6.15,32.1,19.46,25a25.91,25.91,0,0,1,30.7,4.7A28.84,28.84,0,0,1,55.73,37.62Z"/><path class="cls-4" d="M42.28,74.56c11.59-6.3,16.17-21.36,10.21-33.62A23.52,23.52,0,0,0,32.39,27.4,22.49,22.49,0,0,0,20.7,30.14C9.1,36.44,4.53,51.5,10.49,63.76a24.31,24.31,0,0,0,8,9.42A22.49,22.49,0,0,0,42.28,74.56Z"/><path class="cls-5" d="M40.53,73.67c11.4-6.2,15.9-21,10-33.07A23.23,23.23,0,0,0,32.39,27.41,22.49,22.49,0,0,0,20.7,30.15C9.1,36.45,4.53,51.51,10.49,63.77a24.31,24.31,0,0,0,8,9.42A22.11,22.11,0,0,0,40.53,73.67Z"/><path class="cls-6" d="M38.19,66.21c7-3.83,9.8-12.95,6.18-20.38S32.13,35.47,25.1,39.29s-9.8,12.94-6.18,20.38S31.16,70,38.19,66.21Z"/><path class="cls-5" d="M25.25,64.18a4.9,4.9,0,0,0,1.94-6.4,4.38,4.38,0,0,0-6.05-2.05,4.88,4.88,0,0,0-1.94,6.4A4.38,4.38,0,0,0,25.25,64.18Z"/><path class="cls-5" d="M36.5,49a2.73,2.73,0,0,0,1.09-3.58,2.45,2.45,0,0,0-3.4-1.15,2.72,2.72,0,0,0-1.08,3.58A2.45,2.45,0,0,0,36.5,49Z"/><path class="cls-1" d="M141.7,100.69c1.67-7.2-4.1-32.93,1.49-44.39-.25-.87-19.14-.08-21.27,2.86,0,0,14.78,21.19,5,40-2.52.38-4.32,2.22-4.42,3.27-.2,2,5,4.12,11.62,4.83s12.12-.29,12.31-2.24C146.52,103.79,144.73,101.66,141.7,100.69Z"/><path class="cls-2" d="M123.9,102.09c0,.46,2,2.09,7.36,3.15h0l.53.1c.23,0,.45.09.69.12h0c.68.11,1.38.21,2.08.28,7.21.79,11-.62,11.19-1.28,0-.42-1.15-2.25-4-3.16l-.93-.3.23-1c.58-2.49.21-7.28-.24-12.82-.53-6.64-1.2-15.72-.4-23.08-.36.18-.72.36-1.1.52a34.34,34.34,0,0,1-11.68,3c.64,1.63,1.26,3.31,1.8,4.9,3.31,9.49,2.86,18.72-1.3,26.68l-.24.47-.51.07A4.67,4.67,0,0,0,123.9,102.09Z"/><path class="cls-3" d="M123.9,102.09c0,.46,2,2.09,7.36,3.15h0a1.2,1.2,0,0,0,.2,0h0c.67.11,1.37.21,2.07.28,7.22.79,11-.62,11.2-1.27,0-.43-1.16-2.26-4-3.17l-.92-.3.23-1c.58-2.49.19-7.28-.24-12.82-.51-6.43-1.16-15.15-.48-22.37a34.34,34.34,0,0,1-11.68,3c.64,1.63,1.26,3.31,1.8,4.9,3.3,9.49,2.85,18.71-1.3,26.68l-.24.46-.51.08A4.64,4.64,0,0,0,123.9,102.09Z"/><path class="cls-2" d="M101.77,29.84c-2.52,15.55,7.33,30.31,22,33,11.1,2,21.78-3.44,27.44-12.94A29.45,29.45,0,0,0,155,39.54c2.53-15.55-7.33-30.31-22-33-11.52-2.1-22.58,3.85-28.05,14A29.83,29.83,0,0,0,101.77,29.84Z"/><path class="cls-3" d="M101.77,29.84c-2.52,15.55,7.33,30.31,22,33,11.1,2,21.78-3.44,27.44-12.94a29.68,29.68,0,0,0,3.15-9.31c2.52-15.54-7.33-30.3-22-33-11.11-2-21.8,3.45-27.45,13A29.83,29.83,0,0,0,101.77,29.84Z"/><ellipse class="cls-1" cx="128.79" cy="36.47" rx="24.82" ry="26.24"/><path class="cls-4" d="M124.57,61.54c-12.84-2.44-21.37-15.41-19.07-29A24.59,24.59,0,0,1,121,13.38a22.26,22.26,0,0,1,11.94-1c12.84,2.43,21.37,15.41,19.07,29a25.38,25.38,0,0,1-5,11.48A22.92,22.92,0,0,1,124.57,61.54Z"/><path class="cls-5" d="M126,60.13C113.38,57.74,105,45,107.24,31.62A24.31,24.31,0,0,1,121,13.38a22.36,22.36,0,0,1,11.94-1c12.83,2.44,21.37,15.41,19.07,29a25.47,25.47,0,0,1-5,11.48A22.43,22.43,0,0,1,126,60.13Z"/><path class="cls-6" d="M126.17,52.28c-7.78-1.47-13-9.34-11.55-17.56S123.45,21,131.23,22.5s13,9.34,11.55,17.56S134,53.76,126.17,52.28Z"/><path class="cls-5" d="M118.22,48.06a4.83,4.83,0,0,1-3.69-5.62,4.6,4.6,0,0,1,5.31-3.91,4.83,4.83,0,0,1,3.7,5.62A4.62,4.62,0,0,1,118.22,48.06Z"/><path class="cls-5" d="M131.24,34.39a2.65,2.65,0,0,1-2-3.09,2.53,2.53,0,0,1,2.92-2.15,2.66,2.66,0,0,1,2,3.09A2.52,2.52,0,0,1,131.24,34.39Z"/><path class="cls-2" d="M103.54,45.41c-6.72-14.07-.42-28.72,12.89-35.82a25.89,25.89,0,0,1,30.7,4.71,28.64,28.64,0,0,1,5.57,7.91c10.06,35.5-9.33.76-26,2.12-15.15,2.21-15.08,21.86-19.62,22.32"/><path class="cls-2" d="M55.52,37.84c9.09,38.78-5.94,1.55-25.77,2.91-12.09,1.65-19,19.45-19.41,23.83-1.78.64-1.38,2.44-3-1C.6,49.5,5.94,32.33,19.25,25.22A25.92,25.92,0,0,1,50,29.93,28.94,28.94,0,0,1,55.52,37.84Z"/></svg>