<svg id="Layer_1" data-name="Layer 1" xmlns="http://www.w3.org/2000/svg" viewBox="0 0 670 256"><defs><style>.cls-1{fill:#31698e;}.cls-2,.cls-6{fill:none;stroke-miterlimit:10;}.cls-2{stroke:#1c4860;}.cls-3{fill:#edf2f6;}.cls-4{fill:#225c84;}.cls-5{fill:#adcada;}.cls-6{stroke:#adcada;stroke-width:2px;}.cls-7{fill:#1c4860;}.cls-8{fill:#225a7f;}.cls-9{fill:#fff;}.cls-10{fill:#00aeef;}.cls-11{fill:#353535;}</style></defs><path class="cls-1" d="M174.07,175.89s2.7,6.44,1.38,8.31c-1.88,2.67-10.24,10.33-11.39,22a1.6,1.6,0,0,1-.16,1,1.94,1.94,0,0,1-1.5.62c-2.2.07-5-5.72-5-5.72-2.06-4.75-10-12.08-12.59-22.38a41.91,41.91,0,0,1-1.18-7.7"/><path class="cls-2" d="M174.07,175.89s2.7,6.44,1.38,8.31c-1.88,2.67-10.24,10.33-11.39,22a1.6,1.6,0,0,1-.16,1,1.94,1.94,0,0,1-1.5.62c-2.2.07-5-5.72-5-5.72-2.06-4.75-10-12.08-12.59-22.38a41.91,41.91,0,0,1-1.18-7.7"/><path class="cls-2" d="M156.12,199.82s-.44-5.5.47-7"/><path class="cls-3" d="M205.69,176.21l-2.83.17c-10.7.61-18.78,1.08-28.16,1.19-2,0-4,0-6.07,0-6.55,0-14.79-.11-24.41-.66A310.17,310.17,0,0,1,79.7,166.49c-34.06-9.33-52.56-20.82-58.79-24.88-5.15-3.36-9.27-6.43-12.08-8.62-2-1.34-2.17-2.57-2.19-2.94a2.4,2.4,0,0,1,.11-.87,11,11,0,0,0,1,.83c4.86,3.31,10.89,1.24,18.84,0,6.54-1,3,.28,24.9-.53,25-.91,37.54-1.38,45.34-3.46s15.47-5.14,28.46-6c3.72-.25,6.89-.25,9.24-.19a72.24,72.24,0,0,0,53.56,33.95C189.89,158,194.56,163.26,205.69,176.21Z"/><path class="cls-3" d="M560.41,154.3a236.63,236.63,0,0,0-195.78-3.59A887.3,887.3,0,0,1,272,169.25c-5.3.77-10.39,1.45-15.26,2.07-1.55-2.63-3.11-5.07-4.65-7.33-2.39-3.94-10.46-12.52-17.47-16.66,8.61-.19,21-.68,35.83-2a548.2,548.2,0,0,0,65.29-10c41.35-8.48,82.68-16.94,119.06-15.94,24.41.66,59.83,6,102.61,28.36A43.77,43.77,0,0,0,560.41,154.3Z"/><path class="cls-2" d="M256.62,171.35c4.86-.61,10-1.3,15.26-2.07a887.18,887.18,0,0,0,92.65-18.54,236.76,236.76,0,0,1,195.79,3.59"/><path class="cls-4" d="M412.42,53.58c15.75-1.83,50.67-5.47,53.41-1.34a3.21,3.21,0,0,1,.53,1.22c.4,3.3-6.89,4.3-8.78,9.94-.11.34-1.34,4.14.56,6.3a4.12,4.12,0,0,0,.78.67"/><path class="cls-2" d="M412.42,53.58c15.75-1.83,50.67-5.47,53.41-1.34a3.21,3.21,0,0,1,.53,1.22c.4,3.3-6.89,4.3-8.78,9.94-.11.34-1.34,4.14.56,6.3a4.12,4.12,0,0,0,.78.67"/><path class="cls-5" d="M29.84,127.15q4.57,3.75,9.45,7.13c1.63,1.12,3.27,2.22,4.94,3.28s3.41,2,5.11,3l5.14,3c.84.52,1.75.93,2.63,1.38l2.66,1.33L65.11,149c.87.47,1.8.83,2.71,1.23l2.74,1.17A263.22,263.22,0,0,0,116.05,166a381.84,381.84,0,0,0,47.37,7.66c8,.84,16,1.37,24,1.81s16,.58,24.05.61c-8,.18-16.05.16-24.08,0s-16-.55-24.06-1.18a385.6,385.6,0,0,1-47.81-6.47,266.37,266.37,0,0,1-46.39-13.65l-2.83-1.12c-.94-.38-1.89-.73-2.79-1.18L58,150l-2.76-1.29c-.91-.44-1.85-.83-2.73-1.35l-5.34-2.93c-1.77-1-3.57-1.93-5.32-3s-3.47-2.13-5.17-3.25c-3.4-2.23-6.73-4.6-10-7.11Z"/><path class="cls-5" d="M51.15,124.92q4.38,3.7,9.05,7,2.34,1.68,4.74,3.26c1.6,1.06,3.28,2,4.91,3l4.94,3c.81.52,1.67.94,2.53,1.38l2.57,1.32L85,146.55c.85.46,1.73.85,2.62,1.23L90.28,149a247.6,247.6,0,0,0,44,14.61,356.78,356.78,0,0,0,45.91,7.6c7.73.83,15.49,1.34,23.26,1.77s15.55.55,23.34.56c-7.79.2-15.57.2-23.36.06s-15.58-.52-23.35-1.14A359.21,359.21,0,0,1,133.7,166a249.53,249.53,0,0,1-44.9-13.61l-2.73-1.11c-.91-.37-1.82-.74-2.7-1.19l-5.32-2.55-2.66-1.28c-.88-.43-1.78-.84-2.62-1.35L67.62,142c-1.71-1-3.45-1.91-5.13-2.95s-3.33-2.12-5-3.23q-4.91-3.33-9.55-7Z"/><path class="cls-5" d="M85.48,123A130.16,130.16,0,0,0,116.82,146a178.42,178.42,0,0,0,36.57,14.36,251.44,251.44,0,0,0,38.84,7.34,325.45,325.45,0,0,0,39.62,1.9,327.21,327.21,0,0,1-39.73-.66,252.53,252.53,0,0,1-39.36-6.16,181.39,181.39,0,0,1-37.65-13.45A134.56,134.56,0,0,1,82,126.55Z"/><path class="cls-5" d="M109,119.56a102.1,102.1,0,0,0,11.66,12A111.91,111.91,0,0,0,134,141.59a131.88,131.88,0,0,0,30.52,14.24,178.58,178.58,0,0,0,33.16,7.23,231.77,231.77,0,0,0,34.05,1.58,232.18,232.18,0,0,1-34.18-.34,180.64,180.64,0,0,1-33.76-6.08,135,135,0,0,1-31.76-13.44,115.22,115.22,0,0,1-14.25-9.92,105.5,105.5,0,0,1-12.62-12Z"/><path class="cls-1" d="M134.58,119.81c-2.35-.06-5.52-.06-9.24.19-13,.87-20.66,3.92-28.46,6s-20.32,2.55-45.34,3.46c-21.94.81-18.36-.5-24.9.53-7.95,1.25-14,3.32-18.84,0a11,11,0,0,1-1-.83c.6-2.1,3.73-4.34,8.52-5.09,15.44-1.6,28-2.1,36.47-2.26,19.39-.36,33.05-1.23,38-2,3.15-.46,6-1,8.64-1.48a142.69,142.69,0,0,0,21.9-2.13c2.94-.52,6.63-1.29,10.9-2.46C132.06,115.51,133.17,117.55,134.58,119.81Z"/><path class="cls-2" d="M134.58,119.81c-2.35-.06-5.52-.06-9.24.19-13,.87-20.66,3.92-28.46,6s-20.32,2.55-45.34,3.46c-21.94.81-18.36-.5-24.9.53-7.95,1.25-14,3.32-18.84,0a11,11,0,0,1-1-.83c.6-2.1,3.73-4.34,8.52-5.09,15.44-1.6,28-2.1,36.47-2.26,19.39-.36,33.05-1.23,38-2,3.15-.46,6-1,8.64-1.48a142.69,142.69,0,0,0,21.9-2.13c2.94-.52,6.63-1.29,10.9-2.46C132.06,115.51,133.17,117.55,134.58,119.81Z"/><path class="cls-6" d="M250.37,162a598.83,598.83,0,0,0,80.7-11.49c37.15-7.88,57.32-15.86,73.51-20.11,33-8.69,83.09-10.76,155.9,21.09"/><path class="cls-1" d="M669.2,182.31c-.28.89-1.48,3.52-7.54,2.6-1.1-.16-9.36-1-16-1.4-1-.06-39.92-1-66.51-15.59a101.15,101.15,0,0,1-18.74-13.33,44.39,44.39,0,0,1-3-6.61c-42.77-22.41-78.19-27.7-102.61-28.36-36.38-1-77.71,7.46-119.06,15.94a548.28,548.28,0,0,1-65.28,10c-14.83,1.34-27.23,1.83-35.83,2a20.6,20.6,0,0,0-3.63-1.75c-9.85-3.48-22.62-2.65-25.79-2.43H205c-7.3.48-18.38,4-17.66,8.1a12.08,12.08,0,0,0,.75,2.51,72.29,72.29,0,0,1-53.56-34c-1.41-2.26-2.52-4.3-3.38-6-4.26,1.17-8,1.94-10.89,2.46a141.69,141.69,0,0,1-21.91,2.13c-14.3.34-26.95-1.24-35.86-2.35-2.49-.3-4.86-.64-8.82-1a217.13,217.13,0,0,0-28.19-.75c-5.54.43-14.94.63-17.4.33-3.18-.4-6-1.55-7-3.83-.62-1.32-.63-3.09.37-5.46,2.87-6.8,5-8.5,6.67-10.72s33.35-20.41,48-25.64,28.64-10.6,30.6-13.34,43.43-4.19,53.11-4.71,42.39-.35,55.65,0S225,53.88,253.81,48.4s71.92-6.63,87.34-7.21S413.5,53.88,421.86,56,491.34,79.33,511,86c4.92,1.68,41.34,17.77,59,29.16,5,3.23,5.06-.11,16.61-.88s55.65-3.08,61.25,5.38c3.08,5.07-11.43,2.86-12.53,6.38s2.31,9-2.31,11.11a56.72,56.72,0,0,1-7.92,3c-.33.11,12.87,2.31,16.28,8.58s5.17,18.26,24.19,27C668.88,178.3,669.72,180.61,669.2,182.31Z"/><path class="cls-2" d="M188.14,153.92h0a72.35,72.35,0,0,1-53.54-34c-1.41-2.25-2.52-4.3-3.37-6-4.27,1.16-8,1.93-10.9,2.46a142.81,142.81,0,0,1-21.9,2.13c-14.3.33-26.95-1.24-35.87-2.35-2.48-.31-4.86-.65-8.81-1a215.79,215.79,0,0,0-28.19-.76c-5.54.43-14.95.64-17.41.33-3.18-.4-6-1.55-7-3.82-.62-1.33-.63-3.09.37-5.47,2.88-6.8,5-8.5,6.67-10.72s33.35-20.4,48-25.64S84.78,58.53,86.74,55.78s43.42-4.18,53.1-4.7,42.39-.36,55.65,0,29.54,2.66,58.37-2.82,71.92-6.63,87.33-7.21S413.54,53.74,421.9,55.9s69.48,23.29,89.17,30c4.93,1.68,41.35,17.78,59,29.16,5,3.23,5.06-.11,16.61-.88s55.65-3.08,61.26,5.39c3.08,5.06-11.44,2.86-12.54,6.38s2.31,9-2.31,11.11a56.72,56.72,0,0,1-7.92,3c-.33.11,12.87,2.31,16.28,8.57s5.17,18.26,24.19,26.95c3.27,2.63,4.1,4.93,3.58,6.63-.28.89-1.48,3.52-7.53,2.61-1.1-.17-9.37-1-16-1.41-1-.05-39.92-1-66.5-15.59a100.66,100.66,0,0,1-18.75-13.33,43.77,43.77,0,0,1-3-6.61c-42.78-22.41-78.2-27.7-102.61-28.36-36.38-1-77.71,7.47-119.07,15.94a545.79,545.79,0,0,1-65.28,10c-14.8,1.34-27.18,1.83-35.79,2h0"/><path class="cls-7" d="M573.26,115.92a71.78,71.78,0,0,0,10.7,3.66q2.74.72,5.54,1.21c1.87.34,3.75.54,5.64.7a56.75,56.75,0,0,1-5.67-.46q-2.84-.36-5.63-1c-1.86-.4-3.71-.86-5.54-1.4s-3.63-1.13-5.43-1.83Z"/><path class="cls-7" d="M556.91,147.85a18.09,18.09,0,0,1-.56-4.67,17.7,17.7,0,0,0,1.5,4.34Z"/><polygon class="cls-7" points="625.22 140.36 604.71 140.97 625.15 139.36 625.22 140.36"/><path class="cls-7" d="M138.29,105.58a7.55,7.55,0,0,0,3,2,14.9,14.9,0,0,0,1.71.57,11,11,0,0,1,1.85.6,5.28,5.28,0,0,1,1.64,1.22,4.72,4.72,0,0,1,1,1.78,4.17,4.17,0,0,1-.61,3.75,4.86,4.86,0,0,0-.12-3.49,4.6,4.6,0,0,0-2.32-2.36,10.87,10.87,0,0,0-1.7-.59,12.06,12.06,0,0,1-1.77-.78A5.66,5.66,0,0,1,138.29,105.58Z"/><path class="cls-7" d="M124.81,111.23a47.14,47.14,0,0,1,5.89-4.64,38.85,38.85,0,0,1,6.61-3.62,16.68,16.68,0,0,1,7.45-1.53,7,7,0,0,1,3.63,1.3,6.73,6.73,0,0,1,2.17,3.08,7.11,7.11,0,0,0-2.44-2.68,6.44,6.44,0,0,0-3.4-.93,18.34,18.34,0,0,0-7,1.68,56.67,56.67,0,0,0-6.59,3.35c-1.07.62-2.13,1.27-3.17,2S125.85,110.54,124.81,111.23Z"/><path class="cls-7" d="M130.7,85a11.07,11.07,0,0,1,5.44-5,8.16,8.16,0,0,1,3.82-.5,10.88,10.88,0,0,1,3.66,1.16,14.43,14.43,0,0,1,5.45,5.18,18.4,18.4,0,0,1,1.64,3.37,19,19,0,0,1,.89,3.61c-.21-.58-.39-1.17-.61-1.74s-.44-1.14-.73-1.68a18.44,18.44,0,0,0-1.83-3.13,15.49,15.49,0,0,0-5.27-4.73,10.33,10.33,0,0,0-3.31-1.1,8.06,8.06,0,0,0-3.45.28,9.52,9.52,0,0,0-3.12,1.7A16.21,16.21,0,0,0,130.7,85Z"/><path class="cls-8" d="M57.06,100.59c-4.6,1.48-8.8,1.18-9.4-.67s3.3-5.47,7.25-6c.38-.05.23,0,5.16.19,3.54.13,4.06.12,4.23.48C64.83,95.7,61.36,99.21,57.06,100.59Z"/><path class="cls-8" d="M32.05,93.93c-2.22.71-4.26.57-4.54-.32S29.1,91,31,90.7a23.74,23.74,0,0,1,2.5.08c1.71.07,2,.06,2.05.24C35.81,91.56,34.13,93.26,32.05,93.93Z"/><path class="cls-8" d="M69.6,90c-2.22.72-4.26.57-4.54-.33s1.59-2.64,3.5-2.91c.19,0,.11,0,2.5.1,1.71.06,2,0,2,.23C73.36,87.62,71.69,89.31,69.6,90Z"/><path class="cls-8" d="M16.57,108.15c-3.15.84-6,.55-6.3-.66s2-2.89,5.13-3.73,6-.56,6.3.66S19.73,107.3,16.57,108.15Z"/><path class="cls-8" d="M27.86,106.52c-2.06.56-3.9.36-4.1-.43s1.28-1.88,3.33-2.42,3.9-.37,4.12.42S29.92,106,27.86,106.52Z"/><path class="cls-8" d="M19,100.27c-1.69.45-3.2.3-3.37-.35s1-1.54,2.74-2,3.2-.3,3.37.35S20.72,99.82,19,100.27Z"/><path class="cls-8" d="M40,102.5c-1.4.37-2.64.24-2.79-.29s.88-1.27,2.27-1.65,2.64-.24,2.79.29S41.39,102.12,40,102.5Z"/><path class="cls-8" d="M41.39,88.88c-1.4.38-2.64.25-2.79-.29s.87-1.27,2.27-1.64,2.64-.25,2.78.29S42.78,88.51,41.39,88.88Z"/><path class="cls-8" d="M41.73,82c-1.4.38-2.64.24-2.79-.29s.87-1.27,2.27-1.65,2.64-.24,2.78.29S43.12,81.66,41.73,82Z"/><path class="cls-7" d="M131,113.35q2.44-.82,4.89-1.69l2.42-.89c.8-.31,1.61-.62,2.38-1a25.14,25.14,0,0,1-2.28,1.24l-2.33,1.13q-2.35,1.09-4.72,2.15Z"/><path class="cls-1" d="M276.08,214c-.7,1.43-4.69,1.1-7.13.41a13,13,0,0,1-4.09-2c-2.09-1.94-4.2-3.87-6.3-5.81.85.81,4.75,4.66,3.79,6.49-.86,1.63-5.47,1.33-11.47-.72a62,62,0,0,1-21.19-9c-9.28-6.23-9.82-10.44-24.29-27.25-11.13-12.94-15.8-18.24-17.55-22.44a12,12,0,0,1-.75-2.5c-.72-4.14,10.36-7.63,17.66-8.11h.13c3.16-.21,15.94-1,25.79,2.43a21.7,21.7,0,0,1,3.63,1.75c7,4.15,15.07,12.73,17.46,16.66,1.54,2.27,3.11,4.71,4.65,7.33s3.07,5.4,4.55,8.37a135,135,0,0,1,10.27,28C274.65,210,276.7,212.67,276.08,214Z"/><path class="cls-2" d="M234.12,147c7,4.14,15.08,12.72,17.47,16.65,1.54,2.27,3.1,4.71,4.65,7.33s3.07,5.4,4.55,8.37a135.15,135.15,0,0,1,10.27,28c3.41,2.43,5.45,5.06,4.83,6.35-.69,1.44-4.69,1.11-7.13.41a13.08,13.08,0,0,1-4.08-2l-6.3-5.81c.84.82,4.75,4.66,3.78,6.49-.85,1.63-5.46,1.33-11.47-.72a62.07,62.07,0,0,1-21.18-9c-9.28-6.22-9.82-10.44-24.29-27.25-11.13-12.94-15.8-18.23-17.56-22.44v0"/><path class="cls-8" d="M218.25,177.64s1.22,8,5.86,4.85.26-7.28-4.59-6.54"/><path class="cls-8" d="M224.8,160.89s.7,4.61,3.38,2.81.15-4.21-2.65-3.78"/><path class="cls-8" d="M229.41,169.55s.7,4.6,3.38,2.81.16-4.21-2.65-3.79"/><path class="cls-8" d="M227.8,179.86s-1.37,8.65,6.65,9.6c4.06-1.69-3.64-8.07-3.64-8.07"/><path class="cls-8" d="M232.65,194.84s1.9,5.38,5.81,4.48c2.21-1.16-2.43-4.48-2.43-4.48"/><path class="cls-8" d="M219.68,166.46s2.38,6.75,7.28,5.62c2.78-1.45-3.05-5.62-3.05-5.62"/><path class="cls-8" d="M241.62,194.84a6.65,6.65,0,0,0,7.33,5.33c3.91-2.06-1.53-5.33-1.53-5.33"/><path class="cls-8" d="M244.68,185.66s.95,5.75,4,5.43c2.27-1.32-.37-3.37-.37-3.37"/><path class="cls-8" d="M237.52,176.24s.95,5.75,3.95,5.44c2.27-1.32-.37-3.38-.37-3.38"/><path class="cls-2" d="M205.69,176.19l-2.83.17c-10.7.62-18.78,1.09-28.16,1.19-2,0-4,0-6.07,0-6.55,0-14.79-.12-24.41-.67A310.07,310.07,0,0,1,79.7,166.48c-34.06-9.33-52.56-20.83-58.79-24.89-5.15-3.36-9.27-6.43-12.08-8.62-2-1.33-2.17-2.57-2.19-2.93a2.45,2.45,0,0,1,.11-.88"/><ellipse class="cls-9" cx="140.65" cy="94.76" rx="6.58" ry="7.35"/><ellipse class="cls-2" cx="140.77" cy="94.76" rx="6.58" ry="7.35"/><ellipse class="cls-10" cx="140.65" cy="96.99" rx="4.12" ry="4.6"/><ellipse class="cls-11" cx="140.77" cy="98.3" rx="2.94" ry="3.29"/><ellipse class="cls-9" cx="139.23" cy="95.63" rx="0.82" ry="0.79"/></svg>