<svg id="Layer_1" data-name="Layer 1" xmlns="http://www.w3.org/2000/svg" viewBox="0 0 256 256"><defs><style>.cls-1{opacity:0.3;}.cls-2{fill:#e8e8e8;}.cls-10,.cls-19,.cls-2,.cls-20,.cls-23,.cls-24,.cls-3{stroke:#161616;}.cls-10,.cls-13,.cls-14,.cls-19,.cls-2,.cls-20,.cls-23,.cls-24,.cls-25,.cls-26,.cls-3,.cls-6{stroke-miterlimit:10;}.cls-19,.cls-2,.cls-20,.cls-25,.cls-26,.cls-3{stroke-width:0.78px;}.cls-10,.cls-24,.cls-3{fill:#6b1230;}.cls-13,.cls-20,.cls-4,.cls-6{fill:#fff;}.cls-5{fill:#020206;}.cls-13,.cls-26,.cls-6{stroke:#111;}.cls-6{stroke-width:0.96px;}.cls-7{fill:#8e8e8d;}.cls-8{fill:#282828;}.cls-9{fill:#5b031e;}.cls-10{stroke-width:0.92px;}.cls-11{fill:#726f70;opacity:0.53;}.cls-12{fill:#bfbfbf;}.cls-13,.cls-14{stroke-width:0.86px;}.cls-14,.cls-17{fill:#519fe2;}.cls-14{stroke:#030d54;}.cls-15{fill:#00001e;}.cls-16{fill:#fafaff;}.cls-18{fill:#ededed;}.cls-19{fill:#181818;}.cls-21{fill:#918e8f;opacity:0.68;}.cls-22{fill:#383838;}.cls-23{fill:#efefef;}.cls-23,.cls-24{stroke-width:1.16px;}.cls-25,.cls-26{fill:none;}.cls-25{stroke:#232323;}</style></defs><ellipse class="cls-1" cx="140.09" cy="242.06" rx="78.13" ry="13.94"/><g id="z"><path class="cls-2" d="M41.82,18.93s-9.3-6.69-16.71-2.42c0,0,2,9.68,12.18,11.31L45,24.65Z"/><path class="cls-3" d="M28.66,18.45s4.93,5.08,11.66,6.2l-3.53,1.5S30.44,24.79,28.66,18.45Z"/><path class="cls-4" d="M49.38,70.86a13,13,0,0,1,8-4.89l12,3.6,8.21-6.38,4.1-11.38L66.08,22.49l-1-1.82s-16.15-7.78-27.75,9.56a61.82,61.82,0,0,0-1.21,8.89l-.33,4.3s-2.91,3.93-3,5.78Z"/><path class="cls-5" d="M41.81,32.45s.64,7.85-1.49,11a20.91,20.91,0,0,0,5.3-13.93S42.67,27.6,41.81,32.45Z"/><path class="cls-6" d="M41.69,35s-2-1.06-1.37-5.2a11,11,0,0,0-3.67,3.93s-1.47-4.57,0-8a20.91,20.91,0,0,1,6.1-2l-6-1.33s.2-6.09,5-9.14L45,16.35l-2.21-4a12.44,12.44,0,0,1,7-2.57l12-.45s7.11,1.52,11.68,4.79c0,0-.38,3.87-1.52,4.84,0,0,2.79-1.82,3.3-3.09,0,0,10.41,8.51,14.35,17.91l-4.19,3.82,5.2-2.3L93,40.66a46.33,46.33,0,0,1-4.82,4.23,12.07,12.07,0,0,0,6.09-2s-.2,12.54,6,18.14l-2.31,2.78,2.92-1s10.21,17.24,10.21,26.07c0,0-9-11.61-11-16-1.87-4.14-14-11.5-14-11.5L78,38.44,68.18,23.11l-8-6.43-8,3.69s-3.83,0-6.24,8.3C46,28.67,43.47,33.75,41.69,35Z"/><path class="cls-7" d="M143.93,168.47s8.36,18,11.57,22.31c0,0-12.13,42.41-12.83,46.59,0,0,1.4.42,5.72,1.26a21.43,21.43,0,0,1,2.09,4s2.09-3.55-.7-6.48c0,0,12.42-39.9,16.74-45.06,0,0-5.72-14.92-4.74-26.78L158,160.51Z"/><path class="cls-7" d="M78.3,232.53,80.48,231l-1.09-32.92s-5.9-33.77-6.21-37.55l17.55,5.09,3,16.15s-5.28,21.9-5.59,27L86.53,229s1.4,4,.63,5.9C87.16,234.86,79.86,232.69,78.3,232.53Z"/><path d="M78.3,232.53s-7.18,3.74-6.62,10.07a21.84,21.84,0,0,0,12.83-1s3-1.59,2.65-6.77Z"/><path d="M97.87,238.37s-6.61,1.23-7.62,9.45c0,0,9.67,2.47,14.51-2a19.13,19.13,0,0,0,1.48-5.45Z"/><path d="M142.67,237.37s-6.18,1.22-8,9.43a18.77,18.77,0,0,0,13.28,0s2.55-1.64,2.51-4.2l-2.09-4Z"/><path d="M197.49,241.06s-6.09,3.16-6.88,8.78c0,0,9.34,2.6,15.31-1.34,0,0,2.13-3.34.33-5.9Z"/><path class="cls-4" d="M54.65,51.34,54.31,26.8l9.84-7.31S77.28,24.65,84.3,46.4c0,0,19.91,34.31,29.25,43.75s35.28,12.82,47.64,9.67,23.49-5.34,34.07,3.91S212,135.88,204.53,155c-4.64,11.85-1.35,23.51-1.35,23.51s4.36,7,4.1,13.86l-.77,41.48s5.15,7.47-.26,8.75l-8.76-1.54,2.66-2.51-6.66-49.39S164.78,173.57,157.82,163c0,0-16.45,12.33-48,9.87,0,0-.33,4.43-3.28,7l-1.81,57a12.13,12.13,0,0,1,1.48,3.45l-8.37-2-7.39-68.46s-4.81-.7-7.16-2.27c0,0-11.58.39-16.56-12.93S63.21,122.09,64.15,100c.81-19-7.09-29.86-9.29-32.49a1.58,1.58,0,0,1-.29-1.48l1-3.1-.9-11.61"/><path class="cls-8" d="M34.81,79.23a8.82,8.82,0,0,0,8.18,0c4.48-2.24,4.88-7.78,8.44-10.81s3.3-8.44,1.19-9.89-6.34-1.06-6.34-1.06-4-2-6.06-7.91S29.4,51.8,29.4,51.8,26.7,49,23.07,54.7a5.89,5.89,0,0,0,0,6.33s-.27,4.49-2,5.81,4,5.27,9.63,4.35a4.42,4.42,0,0,1,3,3.82A9.78,9.78,0,0,0,34.81,79.23Z"/><path class="cls-9" d="M33.71,71.08s8.77-1.88,11.42-10h.78S50.56,72,40.81,76.92c0,0-5.62,2.12-5.41-3.93A3.12,3.12,0,0,0,33.71,71.08Z"/><path class="cls-10" d="M35.76,60.25s1.79-1.58,3-.88S40.45,57,38,57.1,35.76,60.25,35.76,60.25Z"/><path class="cls-11" d="M27.51,54.2s5-4.35,10-4.14c0,0,1,.42,1.85,2.79s3.14,5.37,8.16,5A8,8,0,0,1,42.53,54c-1.87-3.3-1.54-6.1-5.06-6.58s-7.11,3.69-8.07,4.4c0,0-1.86-1.94-4.93,1.05S21.74,59,23.07,61c0,0-1-4.9,2.31-7.41S27.51,54.2,27.51,54.2Z"/><path class="cls-12" d="M52.73,59s10.77,3,16-.37a13.15,13.15,0,0,0,5.58-9.43s3.58,9.22-4.09,14.57-14.29,5-14.29,5L55,67.59a1.23,1.23,0,0,0-1.5-.4A10.25,10.25,0,0,0,50.2,70l2.69-6.45Z"/><path class="cls-5" d="M50.67,58.25s3.92,4.07-1.2,9.89-3.84,10-9.67,10.48-4.7-2.55-5-3.49S33.88,71.38,32.6,71c0,0-2.59-.49-.48.91,0,0,1.78,1,2,5.33s7.27,3,8.89,2,3.65-2.92,6.39-8.37c0,0,3.41-3.15,4.39-6S54.23,58.73,50.67,58.25Z"/><path class="cls-5" d="M22.09,65.92s.11,4,9.83,3.35S45,61.4,45,61.4,43.5,70,30.72,71.19c0,0-7.87,1-9.94-3.9C20.78,67.29,19.77,65.75,22.09,65.92Z"/><path class="cls-5" d="M32.76,61.86s-.27-6.78,4.9-7.21a3.43,3.43,0,0,1,2.9,2.45s-2.11-2.45-4.81-.87A6.51,6.51,0,0,0,32.76,61.86Z"/><ellipse class="cls-13" cx="55.74" cy="41.33" rx="6.32" ry="5.14" transform="translate(-0.53 81.94) rotate(-72.38)"/><ellipse class="cls-14" cx="55.74" cy="41.33" rx="3.63" ry="2.95" transform="matrix(0.3, -0.95, 0.95, 0.3, -0.53, 81.94)"/><ellipse class="cls-15" cx="55.59" cy="41.88" rx="2.49" ry="2.03" transform="translate(8.57 93.2) rotate(-84.5)"/><ellipse class="cls-16" cx="55.09" cy="39.91" rx="0.79" ry="0.74"/><ellipse class="cls-16" cx="55.55" cy="43.9" rx="0.5" ry="0.47"/><path class="cls-13" d="M38.75,37.69s-2.27-1.06-3.29,3.18c0,0-.77,3.37.84,5.75a8.71,8.71,0,0,0,2.92-5.29S39.59,38.42,38.75,37.69Z"/><path class="cls-17" d="M36.85,41.49a4.15,4.15,0,0,0,.85,3.14c.2.27,1.38-3.22,1.38-3.22l0-2.29S37.37,38.91,36.85,41.49Z"/><path class="cls-15" d="M39,39.91a1.82,1.82,0,0,0-1.57,2c0,1.81.79,2.32.79,2.32a8.49,8.49,0,0,0,1-2.87c.08-1.25.08-1.43.08-1.43"/><ellipse class="cls-16" cx="38.24" cy="40.39" rx="0.57" ry="0.71"/><path class="cls-5" d="M47.48,52S58.11,53.57,63,44.65,65.19,28,65.19,28s6.88,10.8-1,21.27C57.36,58.25,47.48,52,47.48,52Z"/><path class="cls-5" d="M52.73,31.57s6.48-3.55,8.55,2.68c0,0,.06-4.71-3.92-6.23C54.16,26.8,52.73,31.57,52.73,31.57Z"/><path class="cls-5" d="M36.22,36.88s1.23-2.51,3.08.3c0,0-.22-3.29-1.85-2.81C36.06,34.79,36.22,36.88,36.22,36.88Z"/><path class="cls-5" d="M54.65,57.65S65,55.7,68,49.83a31.46,31.46,0,0,0,2.71-17.38s3.15,3.8.76,16.29S54.65,57.65,54.65,57.65Z"/><path class="cls-5" d="M49.05,21.68s2,9.86-2.12,15.5c0,0,5.79-8.49,5.24-16.95C52.17,20.23,48.75,19.52,49.05,21.68Z"/><path class="cls-5" d="M55.88,68.84s4.72-.9,10.25-2.57c2.3-.69,4.74-1.51,7-2.46,0,0,.32,7.06-13.1,12.45C60.07,76.26,57.06,70,55.88,68.84Z"/><path class="cls-5" d="M85,47.4s-5.69,19.5-18.2,29.88c0,0,6.51-.31,14.34-8.55S90.46,57.1,90.46,57.1Z"/><path class="cls-18" d="M27.5,71.21s1.45,3.34,9.42.62,8.7-7.77,8.7-7.77L44.45,63s-1.65,4.44-5.74,6S31,71.43,27.5,71.21Z"/><path class="cls-18" d="M35.43,74s1.34,2.37,5.13.69A9.64,9.64,0,0,0,46,67.15c.08-1.89.17-2.84.17-2.84l.68.21s.6,5-1.76,8.38-3.27,3.95-5.31,4.38S35.43,76.72,35.43,74Z"/><path class="cls-5" d="M41.82,13.3l8.38,9a39.28,39.28,0,0,0-3.26,4.8L39.08,15.91S40.42,13.45,41.82,13.3Z"/><path class="cls-5" d="M49.77,9.75l-2.29.34s.76,8.74,2.72,10.58l2-.44Z"/><path class="cls-5" d="M64.14,20.12s2.93-5.9,3.24-9.11l4.84,2.29s-1.76,7.34-4,9.81Z"/><path class="cls-5" d="M73.17,26.72a36.08,36.08,0,0,0,8.5-4.61s5.25,6.22,6.57,8.93l1.32,2.71-7.56,7S76.44,28.8,73.17,26.72Z"/><path class="cls-5" d="M94.25,42.89A14.83,14.83,0,0,1,86,49.24l6.46,11a47.71,47.71,0,0,0,5.13-2.6S93.91,49.9,94.25,42.89Z"/><path class="cls-5" d="M99,59.64l-4.11,4.17s2.76,6.23,6.38,9.91l3.46-4.15-3.82-6.75-2.92,1L100.25,61Z"/><polygon class="cls-5" points="104.29 78.25 107.63 76.26 109.86 82.28 107.98 83.41 104.29 78.25"/><path class="cls-19" d="M221.12,146.57s-6.08,6.93,3,15.52S235.41,169,235.41,169,232,166.38,233,163s2.12-4.19,1.19-9.56-6.39-8.1-9.28-9.37C224.94,144,221.52,143.93,221.12,146.57Z"/><path class="cls-20" d="M199.39,108.29s17.36,6.33,22.05,17.42S224.75,150,224.75,150s-4.09-3-3.9-7.77c.18-4.4-.14-13.85-12.11-21.28-1-.6-2-1.18-3.11-1.75Z"/><path class="cls-21" d="M60.07,76.26A43.44,43.44,0,0,1,63.8,98.45c0,19.25-3.71,38.32,3.21,57.48a31.06,31.06,0,0,0,3.09,5,14.54,14.54,0,0,0,4.76,4.48c13.49,6.16,23.24,5.84,36.63,7.52,14.23.83,31.18-.15,46.33-9.93l-6.95-9.34s-20.58,16.25-61.64,4.85c0,0-14-8.79-15.69-45.79,0,0-1.34-31.35-6.05-40.46Z"/><path class="cls-4" d="M111.07,141.57s3.91,30.54-4.5,38.35l-1.81,57s1.62,2.25,1.48,3.45l-8.37-2-7.39-68.46L87.19,140Z"/><path class="cls-4" d="M142.67,142.69S157.09,162,157.82,163s7.73,11.68,35.67,26.16l6.66,49.39-2.66,2.51,8.76,1.54s3.1-.68,2.46-3.23a29,29,0,0,0-2.2-5.52l.77-41.48s1.52-9.31-2-17.35c0,0-4.13-4.6-4.43-14.51,0,0,3.83-12.9,4.29-16.38s-44.78-12.22-44.78-12.22Z"/><path class="cls-5" d="M119,94.11s6.69,28.09-7,50.94c0,0,18.53-22.26,16.06-47.27Z"/><path class="cls-5" d="M140.13,100.3s4.43,22.69-6.41,42.38c0,0,12.39-19.08,12.22-41.84Z"/><path class="cls-5" d="M152.6,100.92s5.82,23.45-1.39,39.08c0,0,6.88-12.48,7.53-26.13s-2.65-13.18-2.65-13.18Z"/><path class="cls-5" d="M113.37,173.16s9-9.3,11.84-32.08c0,0,2.37,19.23-5.92,32.1Z"/><path class="cls-5" d="M128.44,172.73s16.6-15,18.52-44.92c0,0,.62,31.15-11.68,44Z"/><path class="cls-5" d="M64.12,94.11s15.39-3.54,20-11.34c0,0-10,16.33-20.39,19.74Z"/><path class="cls-5" d="M94.84,63.81A26.37,26.37,0,0,1,81.67,77.28s14-3.86,15.93-8.94Z"/><path class="cls-5" d="M63.2,86.45s10.34-1.23,13.17-6.22c0,0-4.74,8-12.46,10.9Z"/><path class="cls-5" d="M102.83,75.28s-.16,26.06-30.51,35c0,0,18.22,0,29.27-13.15s5.48-14.95,5.48-14.95Z"/><path class="cls-5" d="M63.2,120.34s8.86,9.67,30.48-5.42c0,0-10.65,15.26-30.81,14.08Z"/><path class="cls-5" d="M110.68,86.9s.23,24.8-14.14,35.81c0,0,15.71-10.67,19.34-30.57Z"/><path class="cls-5" d="M64,142.68s19.39,1.18,31.57-12.6c0,0-6.35,14.1-30.18,20.19C65.38,150.27,63.51,144.87,64,142.68Z"/><path class="cls-5" d="M111.11,169.08S106,179,95.56,179.68c0,0,8.15,1,13.38-3.25A47.67,47.67,0,0,0,111.11,169.08Z"/><path class="cls-5" d="M114.76,112.61s2.65,23.48-14,33.55c0,0,15.18-3.26,16.6-24.67C117.41,121.49,117.05,112.43,114.76,112.61Z"/><path class="cls-5" d="M70.39,161.34s12.21-3.82,15.54-9.11c0,0,4.17,7.44-8.72,14.21C77.21,166.44,71.79,164.46,70.39,161.34Z"/><path class="cls-5" d="M93.06,193.88s-1.37-3.81,5.18-7.32,8,6,8,6-2.91-6.13-8-3.52S93.06,193.88,93.06,193.88Z"/><path class="cls-5" d="M94.24,204.75s.69-4.94,7.37-4.94c4.33,0,4.13,6.31,4.13,6.31s-2.18-5.33-5.75-3.93A62.17,62.17,0,0,0,94.24,204.75Z"/><path class="cls-5" d="M154.6,158.66s9.12-46,46.74-47.3l3.54,7.33s-15.69-3.45-30.9,11.76S154.6,158.66,154.6,158.66Z"/><path class="cls-5" d="M163.81,169.58s-1.29-19.62,19.43-35.66c0,0-18,25.48-15.76,38.81Z"/><path class="cls-5" d="M164.85,98.92s6.51,10.67,4.71,20.66l-.15.76c-2.29,10.21,6.13-12,.46-22.47Z"/><path class="cls-5" d="M175.73,178.78s3.53-34.09,30.36-28.51c0,0-23.81,1.2-26.35,31.09Z"/><path class="cls-5" d="M207.15,128.36s-19.33-.16-27.41,23.17c0,0,12.07-19.26,27.77-20.49Z"/><path class="cls-5" d="M176.8,97.12s8.28,4.92,5.55,13.7c0,0,5.9-8.2,0-13.35l-3.17-.35Z"/><path class="cls-5" d="M89.45,160.51s5.41,6.9,22.13,5c0,0-5.44,6.12-21.33,2.31"/><path class="cls-5" d="M187.56,185.78s1.66-13.36,14.49-16.71l.32-5.5S182.56,170.71,187.56,185.78Z"/><path class="cls-5" d="M194.78,198.73s.06-13.61,12.67-14.78l.15,3.31S197.45,191.29,194.78,198.73Z"/><path class="cls-5" d="M196.53,211.74s3.9-6.24,9.56-3c0,0-9.5,3.49-9,7Z"/><path class="cls-5" d="M206.74,221.49s-2-4.3-6.47-.87c0,0,6.64,2.09,6.47,6Z"/><path class="cls-5" d="M96.06,221.63a8.85,8.85,0,0,1,9.31-4.06s-5-4.23-9.76-.13Z"/><path class="cls-5" d="M148.15,177.27s8.17,2.22,13.87-4.54c0,0-2.81,8.49-11.82,8.63l-2-3.37"/><path class="cls-5" d="M154.09,188.6s9.18-.56,10.18-4.65l1.39,4.65S155.51,191.11,154.09,188.6Z"/><path class="cls-5" d="M152.44,201.56s4.8,1.65,10.27-2.83c0,0-2.64,5.76-11.56,7.39Z"/><path class="cls-5" d="M207.51,195.72s-10.21,1.33-11,5.84c0,0,8.32-4.89,10.63-2.83Z"/><path class="cls-5" d="M150.87,153.66s-2.63-7.84,4.21-16.45c0,0-3.4,15.24-2.35,18.95"/><path class="cls-5" d="M77.08,184.69s1.38-6.58,10.11-7.64c0,0-5.12-4.45-11.27.8Z"/><path class="cls-5" d="M81.56,192.27s7.3.07,8.93,3.38l1.06-4.77S88.07,186.6,81.56,192.27Z"/><path class="cls-5" d="M79.63,205.34s2.53-6.19,9.46-2.92c0,0-4.72-5.5-9.58-.86Z"/><path class="cls-5" d="M147.25,220s2.84,5.55,6.63,3.39l-1.22,3.73S146.94,223.3,147.25,220Z"/><path class="cls-5" d="M80,216.79s3-3.9,7.73-3.54c0,0-7.72,3.9-7.62,6.76Z"/><path class="cls-5" d="M88.35,149.65l.74,5.59a31.34,31.34,0,0,0,20,3.42S90.75,158,88.35,149.65Z"/><path class="cls-5" d="M208.74,121s-.93-5.27,2.79-6.28l-2.27-1.49s-3.38,1.34-3.09,6.22Z"/><path class="cls-5" d="M213,124.14s-.73-4.92,3.68-5.14l1.8,2s-4.21.83-3.9,4.64Z"/><path class="cls-5" d="M218.52,131s.11-3.93,3.54-3.67l.78,2.36a2.86,2.86,0,0,0-3.7,2.43Z"/><path class="cls-5" d="M220.78,138.72s1.63-2,3.69-1.09l-.29-2S220.26,135.88,220.78,138.72Z"/><path class="cls-5" d="M221.29,145.22a3.29,3.29,0,0,1,3.65-1.56v-1.23s-3.91,0-3.86,2Z"/><path class="cls-22" d="M221.17,146.51s-2.61,10,6.15,16.34c0,0,5,5.51,8.14,6.11,0,0-1.65,1.62-8.9-4.81S217,152.94,221.17,146.51Z"/><path class="cls-5" d="M203,109.84s-1.79,1-1.47,2.23l2.22,2.46s.29-3.16,1.43-3.61Z"/><path class="cls-23" d="M63.85,24.65C66.39,5,51.8,0,51.8,0c-6,18.13,3.1,23,3.1,23"/><path class="cls-24" d="M61.86,23.77s-5.41-1.33-6.52-10.51-.55-8.84-.55-8.84,6.3,6,7.07,9.67S62.64,22.55,61.86,23.77Z"/><path class="cls-25" d="M64.14,20.12s7,3.12,11,8.52S85.83,49.34,88,53s15.2,24.2,23,34.19S132.17,99,141,100.54c0,0,13,1.75,25.36-1.93,0,0,17.67-5.66,28.45,4.74a44.14,44.14,0,0,1,12.7,24.46,48.22,48.22,0,0,1-2.67,26.36s-3.5,9.47-2.79,14.9a28.24,28.24,0,0,0,3.21,6c1.7,2.11,3,11.41,2,17.35l-.77,41.48s5.25,7.81-.26,8.75l-8.76-1.54,2.66-2.51-6.66-49.39S157.45,174,147,145.53"/><path class="cls-25" d="M157.82,163s-15.83,13-48,9.87"/><path class="cls-25" d="M144.47,169.62s5.94,14.42,11,21.16l-12.83,46.59,5.72,1.26,2.09,4s2.73-2.4-.7-6.48c0,0,12.74-41.05,16.74-45.06,0,0-5.65-17.95-4.85-23.53"/><path class="cls-25" d="M111.07,145.05s3.82,25.75-4.5,34.87l-1.81,57s1.69,1.88,1.48,3.45l-8.37-2L87.31,141.08"/><path class="cls-25" d="M90.48,169.91s-4.84-.69-7.16-2.27c-1.76-1.2-9.22,1.45-15.27-9.75,0,0-6.44-6.81-4.68-39.29s-.27-40-8.41-51c0,0-1.08-1.51-4.4,1.68"/><path class="cls-25" d="M73.81,164.79l5.58,33.27L80.48,231l-2.18,1.55,8.86,2.33s.88-2.3-.63-5.9c0,0,1.32-28,5.92-40.84"/><path class="cls-25" d="M55,67.59s18.6-2.31,19-14.51"/><path class="cls-25" d="M36.56,33.41a23.36,23.36,0,0,0-.48,5.71"/><path class="cls-25" d="M35.34,43.9s-2.51,2.91-2.58,5.3"/><path class="cls-26" d="M33,72.9c.78.64,1.12,4.38,1.12,4.38s-.39,3.6,5.7,3,9.58-9.37,9.58-9.37c2.09-1.52,5.33-6.09,4.93-9s-2.2-4.32-6-4.42-5-2.28-6.37-4.65c-1.66-2.79-.75-5-4.17-5.34-4-.37-8.36,4.35-8.36,4.35-.53-.67-2.41-2-5.66,1.86A6,6,0,0,0,23.07,61s0,3.64-1,4.55-1.94.29-1.25,1.71,2,3.4,7.18,4c0,0,8.51.23,13.45-4.27C45.57,63.23,45,60.64,45,60.64l-1.42-.3,2.83.69"/><path class="cls-26" d="M45.13,61S47,61.17,46.94,66s-2.16,8.86-5.47,10.78-5.68.12-6-1.82L35,72.4"/></g></svg>