<svg id="Layer_1" data-name="Layer 1" xmlns="http://www.w3.org/2000/svg" viewBox="0 0 120 40"><defs><style>.cls-1{fill:#48474c;}.cls-2{fill:#201e25;}.cls-3{fill:#fff;}.cls-4{fill:#0f0f11;}.cls-5{fill:#a8a7a7;}.cls-6{fill:#b5b5b5;}</style></defs><path class="cls-1" d="M7.35,11.78c-.66-1.58-.28-3.14.73-5.2s6.31-4.53,10.65-1.33c4.88,3.63,7.42,10.61,7.42,13.09s.14,2.75,1.3,3.72A1.52,1.52,0,0,1,26,24.68c-1.87-.42-5.41,4.3-11,3.61s-9-5.38-6.89-9.51S9.09,15.9,7.35,11.78Z"/><path class="cls-2" d="M11.75,7.49A9.36,9.36,0,0,1,21.07,11c2.19,2.63,4.82,8,3.5,10.52s-7.12,4.71-11.17,2.63S3,13.4,11.75,7.49"/><path class="cls-3" d="M9.16,11.4a5.76,5.76,0,0,1,5.65-2.92,8.68,8.68,0,0,1,7,5.23c1.17,2.77,3.1,6.57.59,8.55s-8.76,2.87-11.91-1.75S8.14,14,9.16,11.4Z"/><path class="cls-1" d="M12.21,28.36s1.48,2.54,7.29.68,6.74-2.47,6.74-2.47S24.59,31.12,20.65,32,12.26,32.39,12.21,28.36Z"/><path class="cls-4" d="M19.33,11.44c-2.3-1.1-5.76,1-6.47,3.76a5.92,5.92,0,0,0,3.51,6.7,5.38,5.38,0,0,0,7.1-3.43C24.29,15.47,22,12.73,19.33,11.44Z"/><path class="cls-3" d="M15.66,14.72A1.62,1.62,0,1,1,14,13,1.68,1.68,0,0,1,15.66,14.72Z"/><path class="cls-4" d="M8.4,18.79s.36,3.73,3.28,5.48,9.39,1.6,11.93-1.75C23.61,22.52,13.51,28.66,8.4,18.79Z"/><path class="cls-1" d="M112.62,15.7c.65-1.57.28-3.13-.74-5.2S105.58,6,101.24,9.18c-4.88,3.63-7.42,10.61-7.42,13.09S93.67,25,92.52,26A1.52,1.52,0,0,0,94,28.6c1.88-.41,5.41,4.3,11,3.62s9-5.39,6.88-9.51S110.89,19.83,112.62,15.7Z"/><path class="cls-2" d="M108.21,11.41a9.36,9.36,0,0,0-9.31,3.51c-2.2,2.63-4.82,8-3.51,10.52s7.12,4.7,11.18,2.62S117,17.33,108.21,11.41"/><path class="cls-3" d="M110.8,15.32a5.75,5.75,0,0,0-5.64-2.91,8.65,8.65,0,0,0-7,5.23c-1.17,2.77-3.11,6.57-.58,8.55s8.75,2.87,11.9-1.76S111.83,17.89,110.8,15.32Z"/><path class="cls-1" d="M107.76,32.28s-1.48,2.55-7.29.68-6.74-2.46-6.74-2.46,1.65,4.55,5.59,5.42S107.7,36.31,107.76,32.28Z"/><path class="cls-4" d="M102.8,14.69c2.3-1.1,5.76,1,6.47,3.76a5.94,5.94,0,0,1-3.51,6.7,5.38,5.38,0,0,1-7.1-3.43C97.85,18.72,100.11,16,102.8,14.69Z"/><path class="cls-3" d="M97.75,19.31a1.62,1.62,0,1,0,1.61-1.72A1.67,1.67,0,0,0,97.75,19.31Z"/><path class="cls-4" d="M111.57,22.72s-.37,3.72-3.28,5.48-9.39,1.6-11.93-1.76C96.36,26.44,106.45,32.58,111.57,22.72Z"/><path class="cls-5" d="M98.17,17.64a8.65,8.65,0,0,1,7-5.23,5.75,5.75,0,0,1,5.64,2.91c.66,1.65,1.22,3.05.7,5.05,0-.13-.33-2.28-3.74-3.46-3.07-1.06-7.83.06-10.2,2C97.73,18.5,98,18,98.17,17.64Z"/><path class="cls-6" d="M21.8,13.71a8.68,8.68,0,0,0-7-5.23A5.76,5.76,0,0,0,9.16,11.4c-.65,1.65-1.21,3-.7,5,0-.14.34-2.28,3.75-3.47a12,12,0,0,1,10.06,1.83Z"/><path class="cls-4" d="M97.56,18.88a9.9,9.9,0,0,1,8.81-2.3c3.75.71,8.43,3.94,9.68,4.14,0,0-4.22-1-10.17-1.88S97.56,18.88,97.56,18.88Z"/><path class="cls-4" d="M22.44,15a9.9,9.9,0,0,0-8.81-2.3C9.88,13.38,5.2,16.61,4,16.8c0,0,4.22-1,10.17-1.88S22.44,15,22.44,15Z"/></svg>