<svg id="Layer_1" data-name="Layer 1" xmlns="http://www.w3.org/2000/svg" viewBox="0 0 256 256"><defs><style>.cls-1{opacity:0.3;}.cls-10,.cls-2,.cls-27,.cls-4,.cls-5{fill:#ff8a00;}.cls-2,.cls-27,.cls-29,.cls-3,.cls-4,.cls-5{stroke:#5b1b02;}.cls-14,.cls-18,.cls-19,.cls-2,.cls-20,.cls-21,.cls-22,.cls-23,.cls-27,.cls-29,.cls-3,.cls-4,.cls-5{stroke-miterlimit:10;}.cls-2{stroke-width:0.71px;}.cls-3{fill:#c66c0a;}.cls-29,.cls-3,.cls-4{stroke-width:0.75px;}.cls-5{stroke-width:0.48px;}.cls-6{fill:#ff7a75;}.cls-7{fill:#ba6304;}.cls-8{fill:#6d1f0d;}.cls-9{fill:#590e0e;}.cls-11,.cls-15{fill:#ffde8c;}.cls-12{fill:#fbffff;}.cls-13{fill:#130d14;}.cls-14{fill:#6b0a0a;stroke:#2d0901;stroke-width:0.5px;}.cls-15{opacity:0.76;}.cls-16{fill:#091204;}.cls-17{fill:#b70f0f;}.cls-18,.cls-19,.cls-21,.cls-22,.cls-23{fill:#fff;}.cls-18,.cls-19{stroke:#4f2102;}.cls-18{stroke-width:0.64px;}.cls-19{stroke-width:0.61px;}.cls-20{fill:#4f2305;stroke-width:0.35px;}.cls-20,.cls-21,.cls-22,.cls-23{stroke:#020b3f;}.cls-21{stroke-width:0.07px;}.cls-22{stroke-width:0.12px;opacity:0.1;}.cls-23{stroke-width:0.07px;}.cls-24{fill:#160b0c;}.cls-25{fill:#60110e;}.cls-26{fill:#f5a954;}.cls-27{stroke-width:0.51px;}.cls-28{fill:#ddb966;}.cls-29{fill:none;}.cls-30{fill:#471201;}</style></defs><ellipse class="cls-1" cx="118.29" cy="194.57" rx="78.51" ry="11.23"/><path class="cls-2" d="M133.82,153.56S148.2,136,171.81,141s23.35,22,50.78,23.16l-.62,2.27a35,35,0,0,1-31.65-10.95c-10.07-11-35.75-17-52.07,4l-3.32.61-3-4.63Z"/><path class="cls-3" d="M115.84,163.91s3.23,13.18,17.08,16.42c0,0,7,1.67,8.94,3.12v2.24a38.27,38.27,0,0,0-4.05,1.07c-2.19.71-9.24.35-10,6.81,0,0-.47,4.68,5.09,4.5,0,0,1.9,1.48,5.69-.35,0,0,4.86,1.89,10.07-3.62s5.27-9.77,5.27-9.77.35-1.89-2.31-3.43-4.56-9.78-2.25-13.63-1.23-7.49-1.23-7.49l-15.59-2.9-10.94,1.49Z"/><path class="cls-3" d="M74.5,160.89l1.61,31.83s.11,4.2-4.75,5.19a26.92,26.92,0,0,1-7.4.73s-.57.39-2.93,0c0,0-3.11,1-4.29-1.93,0,0-1.63-5.32,2.71-7.14s5-1.88,4.83-5.13-7.64-20.21-8.08-30Z"/><path class="cls-4" d="M47.72,138.35s-.51,14.19,14.41,22.21,44.36,6.08,44.36,6.08,27.81-3.57,32-2.51a70.28,70.28,0,0,0,16.22,4.44c8.59,1.16,16.8,4.83,19.69,10a14.42,14.42,0,0,1,0,9.95s-5.58,7.65.91,9.75h1.62a.71.71,0,0,1,.32.07,7.74,7.74,0,0,0,7.19-.65s5.8,1.44,7.25-3.48-3.29-13.61-3.29-13.61l-6.18-14.77s.49-3.67-4.53-4.93-12.36-2-15.55-8.4-2.67-10.8-12.16-16.12c-7.82-4.38-27.32-8.52-27.32-8.52s-22.86-8.62-30.26-19.55C92.36,108.35,47.55,130.36,47.72,138.35Z"/><path class="cls-5" d="M22,82.24s4.61-3.76,6.62-7.21c0,0,.62-5.73-4.4-7.46-3.9-1.34-7.82,2.63-7.63,6C16.54,73.53,16.9,81.15,22,82.24Z"/><path class="cls-6" d="M21,70.51s3.92-1.63,6.6,5.72a11,11,0,0,1-5.11,2.58S17.07,72.88,21,70.51Z"/><path class="cls-7" d="M20.71,70.67s4.15-.92,5.67,5.53a4.88,4.88,0,0,0,.9-.71,31.82,31.82,0,0,0-1.61-3.18C25.15,71.49,23.18,69,20.71,70.67Z"/><path class="cls-7" d="M17.2,71.32a17.11,17.11,0,0,0,1.69,7.3l-.71.42a14,14,0,0,1-1.07-2.89S16.07,72.75,17.2,71.32Z"/><path class="cls-8" d="M57.77,59.49s2.21-8.64,14-6.93c0,0,5.6,1.32,9.08,8.07a6.93,6.93,0,0,0,8,2.56s-.92,2.38-4.86,2.28c0,0,5.41,3.88,6,9.54s3.15,19.58,6,26.69,3.5,27-12.69,34.22c0,0-2.3,4.56-7.1,5.72,0,0-14.29,3.12-18.34,9.75,0,0-.74-3,1.12-4.64,0,0-2.46,1.92-7.87,2.48s-10.6,6.07-9.62,11.42c0,0-2.77-5.09-5.89-6.53s-7.18-10.74-7-16.45,1.14,5.44-2.92,6.49c0,0,.76-9-1.9-11.4s-7.73-3.84-7.35-13.26c0,0,0,4.29-2.41,5.43a14.79,14.79,0,0,0-1-9.4c-2.28-4.4-5.95-10.78-4.18-16.63a63.07,63.07,0,0,1,4.43-10.72,18.15,18.15,0,0,1-3.8,0A21.17,21.17,0,0,0,16,83C18.57,79.8,22,70,24,66.3s5.8-8.92,12.34-11.67c0,0-2.88-1.05-3.35-3.28,0,0,4.86,2,8.39,0S53.63,48.75,57.77,59.49Z"/><path class="cls-9" d="M53.66,68.31s-9.85-10.14-17.74-.85-4.22,16.05-13.23,22a8.05,8.05,0,0,0,5.21-1.69S18.75,93,25.36,111.67c0,0,2-3.66,2-6.62a8.41,8.41,0,0,0,3.52,6.62c3.66,2.68,3.24,8.87,2.4,11a4.83,4.83,0,0,0,2.67-3.52l15.35,3.52,8.45-.7s-3.1,5.49-2,8.87c0,0,3.09-5.77,5.91-6.62a37.88,37.88,0,0,0,7-3.52s-1.41,6.76-3.52,8.59c0,0,8.87-5.07,10.42-13.37l1.55-8.31h0a5.53,5.53,0,0,1,1,3.24c-.14,1.69,1.41-6.2-1.27-10a12.18,12.18,0,0,1-2-8.17s1.83,7.47,5.78,9l-.85-2.4s5.07,5.77,8.87,6.48c0,0,.42-2-3-4.79s-7.46-6.33-7.88-11.68a10.11,10.11,0,0,0,1,6.75s-4.79-5.06-4.79-11,1.41-14.22-4.37-19-11.4,1.12-11.4,1.12a4,4,0,0,1,2-2.53l-1.83.14s1.37-2,2.43-3.19a13.5,13.5,0,0,0-4.08,4.59s2.53-3,.56-4.74a17.51,17.51,0,0,1-1.56,3.79L56.93,61s.65,3.72-.84,4.15c0,0-1.7-3.87-2.82-4.71,0,0,1.8,1.72,1.38,5.81a10.62,10.62,0,0,1-1.55-2.68A9.61,9.61,0,0,0,53.66,68.31Z"/><path class="cls-10" d="M34.25,87.81s-1.18-17.74,16-19.07a6.38,6.38,0,0,1,3.34.72c.75.44,2,1.56,3.24,1.66a25,25,0,0,0,5.56-.37s9.27-1.52,11.72,10.44c1.77,8.65-2.93,17.34-2.93,17.34s9.67,12-6.15,20.4c0,0-8.8,2.23-10.85,7.52L39,124.12l-2-6.23a6.35,6.35,0,0,0-2.76-6.08c-3.47-2.49-8.61-9.81-6.43-15.73A16.1,16.1,0,0,1,34.25,87.81Z"/><path class="cls-11" d="M38.22,114.69s-.48,5,3.69,5.6,7.68.64,10.73-3.52,6.72-10.57,6.72-10.57-3.52,9-3.68,15-3.52,10.09-12,9.93c0,0-6.82-.43-8.58-5.55a10.93,10.93,0,0,1,1.14-7.28A18.48,18.48,0,0,0,38.22,114.69Z"/><path class="cls-12" d="M39.77,111.47s2.7,2,9.21,1.18S55,108.43,55,108.43H43.46l-4.14.32Z"/><path class="cls-13" d="M38.1,111.47l.51,4.67,2.13,3.14h5.87l4.43-1,2.87-3.64s4.35-6.77,4.88-8.15l-2.06-.34-11,.34S37.09,107.55,38.1,111.47Z"/><path class="cls-11" d="M37.34,99.05s-5.1,2.18-3.18,7.15,7.6,4.39,8.76,2.76v-2s-.58,4,2.69,4.42,7.79-.12,13.18-5.16c0,0-1.85-4.26-8.09-3.59l-8.84-1Z"/><path class="cls-14" d="M38.42,96.91s3.66,4,13.44,2.9c0,0,1,2.77-4.32,4.87l-2.8,1.83c-2.43,1.61-3.62-.31-3.62-.31a11.71,11.71,0,0,0-1.74-3C38.61,102.51,36.37,98.86,38.42,96.91Z"/><path class="cls-15" d="M56.7,97.77s-7.16-8.49,2.66-16.28c0,0,4.82-1.67,5.51,2.9C66.64,96,62.39,95.26,61.06,97.26Z"/><path class="cls-16" d="M59.36,81.49s4.21-.79,5.79,5c0,0,1.32-5.27-2.11-7.25S59.36,81.49,59.36,81.49Z"/><path class="cls-15" d="M34.89,88.51a16.34,16.34,0,0,1,4-10.44c4.19-4.72,7.39.13,7.39.13s.18,11.26-4,13.18Z"/><path class="cls-11" d="M61.65,146.52s.49,7.39,29.84,10.36,41.55,3,41.55,3l5.41,4.3a101.22,101.22,0,0,0-15,.6c-9.06,1-20.94,2.47-25.31,2.11s-20.11-.57-25.6-2.55c0,0-12.18-2.38-19.78-11.14A10.34,10.34,0,0,1,50,148l5.06-.5Z"/><path class="cls-16" d="M46.26,78.2s.89-2.25,0-3.83-6.57,0-7.62,3.83C38.64,78.2,44.38,74.9,46.26,78.2Z"/><path class="cls-17" d="M40.74,116.24a12.72,12.72,0,0,1,11.2-3s1.83.22,1,2.13-7.58,3.3-7.58,3.3l-4.61-.36Z"/><path class="cls-16" d="M37.18,109.56a15.89,15.89,0,0,1,1,5.89s-.68,4.87,5,5,7.33-.57,9.9-4.43,6.21-9.85,6.21-9.85h-.57s-4.53,8.62-7.57,10.76-8.07,3.06-11.45.19a35.76,35.76,0,0,1-.59-4.38C39.18,111.46,37.18,109.56,37.18,109.56Z"/><path class="cls-12" d="M37.18,109.56l2.08,4.29s1,1.62.76-3.73A7.27,7.27,0,0,1,37.18,109.56Z"/><path class="cls-12" d="M47.72,111.46l1,3.71s.73,1.66,1.53-4C50.24,111.14,48.27,111.47,47.72,111.46Z"/><path class="cls-12" d="M39.77,117.15s.3-2.66,1-3.33.91,4.51.91,4.51S39.87,117.69,39.77,117.15Z"/><path class="cls-12" d="M47.27,118.69s.26-3.23.45-3.9,1.33,2.13,1.64,3.22A6.51,6.51,0,0,1,47.27,118.69Z"/><path class="cls-12" d="M39.47,115.39s4.18,4.09,12.47,0a5.9,5.9,0,0,0,1.73-2l.24.73s-1.83,3-4.55,3.93c-2.09.68-4.77,1.52-7.65.32C41.71,118.33,38.61,117.57,39.47,115.39Z"/><ellipse class="cls-18" cx="59.88" cy="91.01" rx="6.26" ry="4.99" transform="translate(-40.21 134.04) rotate(-79.92)"/><ellipse class="cls-19" cx="39.68" cy="86.5" rx="6.02" ry="4.65" transform="translate(-54.51 100.14) rotate(-73.6)"/><ellipse class="cls-20" cx="59.74" cy="91.77" rx="3.44" ry="2.79" transform="translate(-41.07 134.53) rotate(-79.92)"/><ellipse class="cls-16" cx="59.77" cy="92.04" rx="1.98" ry="1.68" transform="translate(-44.12 127.39) rotate(-75.79)"/><ellipse class="cls-21" cx="58.14" cy="91.14" rx="0.62" ry="0.59" transform="translate(-38.87 138.86) rotate(-83.66)"/><circle class="cls-22" cx="60.68" cy="89.95" r="1.04"/><ellipse class="cls-20" cx="40.34" cy="88.2" rx="3.32" ry="2.61" transform="translate(-55.66 101.99) rotate(-73.6)"/><ellipse class="cls-16" cx="40.44" cy="88.43" rx="2.07" ry="1.54" transform="translate(-55.81 102.26) rotate(-73.6)"/><ellipse class="cls-23" cx="39.11" cy="87.32" rx="0.6" ry="0.56" transform="translate(-52 116.55) rotate(-83.66)"/><circle class="cls-22" cx="41.22" cy="86.19" r="1.04"/><path class="cls-7" d="M47.44,99.85s4.42-1.6,5-4.19c0,0,.32,2.9-.42,4A44,44,0,0,1,47.44,99.85Z"/><path class="cls-7" d="M55.74,120.19a20.07,20.07,0,0,1,6.81-3.74c4.06-1.26,10.71-5,11-13.26,0,0,2.21,6.17-2,10.57s-5.5,4.79-9.51,6.18-6.55,4-7,5.16C55,125.1,55.94,121.31,55.74,120.19Z"/><path class="cls-7" d="M36.87,117.35a11.07,11.07,0,0,0,1.35-2.66,17.88,17.88,0,0,0-1-5.13c-.31-.59-.73.34-2.72-2.87-.45-.73-6.12-3.5-7.12-6.69A13.43,13.43,0,0,0,29,105.46a22.29,22.29,0,0,0,6.28,7.28C37.18,114.15,36.87,117.35,36.87,117.35Z"/><path class="cls-11" d="M38.5,96.66a8.7,8.7,0,0,1,5.87-5.48S39.33,94.85,38.5,96.66Z"/><path class="cls-24" d="M55.3,98.14s5.87-.6,9.17-1.07C64.47,97.07,58.43,96.76,55.3,98.14Z"/><path class="cls-24" d="M33.7,90.36s4.4,2.42,7,3.67C40.66,94,36.66,90.79,33.7,90.36Z"/><path class="cls-25" d="M9.79,88s5.61-1.12,7.51-3.2A6.71,6.71,0,0,1,13.05,88S10.19,88.43,9.79,88Z"/><path class="cls-9" d="M13.88,124.93s2.95-3.92,1.54-11.25c0,0,1.15,3.26,2.66,9.68s6.36,7.37,6.36,7.37,1.71.54,1.94,6.25-.84,7.18-.84,7.18.43-6.68-.71-9.4a8.25,8.25,0,0,0-3.76-3.93s-3.11-2.07-3.84-4.71a38.65,38.65,0,0,1-.94-6.62S16.38,123.6,13.88,124.93Z"/><path class="cls-9" d="M22,124.62a11.55,11.55,0,0,0,1.43,6.18l1.31,1.64.59,4.34.2,7.38s2.28-.21,2.95-5.2c0,0,.29,10.23,6.56,14.9s6.35,6.79,6.35,6.79-1.64-6.87,7.62-11c0,0,6.38-.7,9.87-2.91,0,0-2,1.24-1.12,4.64,0,0,3.25-4.94,12.18-7.93s10.91-2.67,13.26-7.54c0,0,9.68-1.82,13.16-15.81,0,0-4.81,9-9.54,10.16,0,0,4.59-7.36,4.07-11.45,0,0-3.12,10.66-8.22,12.05,0,0,.95-.7,1.28-3.6s-.66,6.73-7.09,9.24a7,7,0,0,0,1.07-2.22c.14-.91-1.93,4.25-6.19,5.45a50,50,0,0,0-11,4.42s2.2-2,2.4-3.86c0,0-3.76,5.16-9.71,6s-9,1.85-11.56,6.33c0,0,.74-4.3,2.76-5.9,0,0-3.58,1.86-3.76,4.81,0,0-.65-6-3.7-7.8,0,0,2,4.48,1.13,8.09A16.67,16.67,0,0,1,31,143.45s-2.45-5.26-2.33-7-2.42-6.05-1.79-10.34a12.24,12.24,0,0,0-.27,7.39c0,.1.05.2.08.31C27.94,138.08,22.29,126.25,22,124.62Z"/><path class="cls-26" d="M34.89,107.36s5,2.68,8,0c0,0,2.88,4,11.33,2.3A14.22,14.22,0,0,1,47,111.79c-3.41,0-3.61-1.13-4-3.12,0,0-.09,2-4.36,1.35A4.46,4.46,0,0,1,34.89,107.36Z"/><path class="cls-26" d="M36.18,127.64s12.42,2.88,15.76-2,3.69-12.31,6-15.3c0,0-1.93,6.5-2.1,9.06s0,7.5-3.87,9.8S40.14,132.87,36.18,127.64Z"/><path class="cls-27" d="M82.35,84s-.1,6.77,3.24,9.41a9.62,9.62,0,0,0,8.26-4.71c1.91-3.35-.39-8.83-3.65-9C90.2,79.66,83.79,79.26,82.35,84Z"/><path class="cls-6" d="M91.61,85s1.18,5.47-7,7.18a11.72,11.72,0,0,1-2-5.77S89.71,80.47,91.61,85Z"/><path class="cls-7" d="M83.18,89a5.1,5.1,0,0,1,2.72-1.79,2.5,2.5,0,0,0-2.21,0s5.21-5.32,8-2.36c0,0-.62-2.74-4.08-1.41,0,0-3.77,1.31-4.86,2.82A6.14,6.14,0,0,0,83.18,89Z"/><path class="cls-7" d="M85.34,92.67c0,.09-.21.07.09.28l.27.26c1.77-.12,1.6,0,4.2-1.08S93.54,88,93.54,88C91,92.06,86.33,92.57,85.34,92.67Z"/><path class="cls-28" d="M50.64,149.44s10.65,10.28,32,11.74,53.19.56,53.19.56l2.61,2.39s-8.79.08-13.25.63-23.6,2.88-27,2.08l-16.35-.56s-18.38-1.95-26.4-10.49C55.43,155.79,51.79,152.87,50.64,149.44Z"/><path class="cls-4" d="M75.77,144.16s8.72,33.29,12.11,40.75c0,0,.93,3.27-.83,4.24,0,0-6.57,1-4.82,7.36,0,0,.44,2.36,5.09,2.54h2.89s7.44,1,9.55-3.33c0,0-1.4-27.6-1.49-29.7s.52-26.11-2.63-30.14"/><path class="cls-29" d="M181.51,190.34s-2.12,6.77,5.14,7.57"/><path class="cls-29" d="M176,191s-2.71,6.78,3.56,7.94"/><path class="cls-29" d="M90.26,191.43s-4.89,3.6-.43,7.54"/><path class="cls-29" d="M87.13,191s-5.17,3.29-1,8"/><path class="cls-29" d="M65,191.43s-4.69,2.7-1,7.21"/><path class="cls-29" d="M62.56,189.91s-3.56,1.52-3.23,4.75,1.7,4,1.7,4"/><path class="cls-29" d="M140.15,189.61s-5.63,2-1.57,8.11"/><path class="cls-29" d="M135.25,188.65s-3.51,1.36-3.44,5,1.08,4.41,1.08,4.41"/><path class="cls-4" d="M130,156.3s5.91,7.12,10.72,8.7"/><path class="cls-29" d="M50.64,149.44s1.06,6.77,15.52,13c0,0,11.47,3.94,15.67,3.85"/><path class="cls-29" d="M98.18,166.84a207.19,207.19,0,0,0,24-1.69c11.52-1.72,16.26-1,16.26-1"/><path class="cls-30" d="M214.81,163.8s7.78-8.55,18.64-3c0,0,9.58,6.16,14.33,7,0,0-4.88,7.25-17.48,5.67S212.83,167.14,214.81,163.8Z"/><path class="cls-24" d="M214.52,164.43s2.53,4.93,15.19,6.78,18.07-3.43,18.07-3.43-2.81,5.12-10.87,5.69-16.8-1.38-20-4.33S214.24,165.06,214.52,164.43Z"/><path class="cls-24" d="M215.25,163.37s5.49,2.25,8.86,2c0,0-3.2,2.8-9.73-.64A2.33,2.33,0,0,1,215.25,163.37Z"/></svg>