<svg id="Layer_1" data-name="Layer 1" xmlns="http://www.w3.org/2000/svg" viewBox="0 0 60 30"><defs><style>.cls-1{fill:#fff;stroke:#111;}.cls-1,.cls-2{stroke-miterlimit:10;stroke-width:0.86px;}.cls-2,.cls-5{fill:#519fe2;}.cls-2{stroke:#030d54;}.cls-3{fill:#00001e;}.cls-4{fill:#fafaff;}.cls-6{fill:#282828;}</style></defs><path class="cls-1" d="M54.78,17.33c-.06.23-.13.46-.2.69-2,6.24-7.56,10.22-12.8,9-4.61-1.1-7.46-5.9-7.13-11.38a14.81,14.81,0,0,1,.47-3C36.87,6,42.69,1.7,48.12,3S56.53,10.7,54.78,17.33Z"/><ellipse class="cls-2" cx="44.94" cy="15" rx="7.13" ry="5.79" transform="translate(17.04 53.29) rotate(-72.38)"/><ellipse class="cls-3" cx="44.66" cy="16.09" rx="4.88" ry="3.98" transform="translate(24.36 59) rotate(-84.5)"/><ellipse class="cls-4" cx="43.68" cy="12.22" rx="1.54" ry="1.46"/><ellipse class="cls-4" cx="44.57" cy="20.04" rx="0.98" ry="0.93"/><path class="cls-1" d="M12.65,12.19v.1a22.41,22.41,0,0,1-.14,2.49,1.5,1.5,0,0,0,0,.22,16.07,16.07,0,0,1-.6,2.65,1.83,1.83,0,0,1-.08.25,15.45,15.45,0,0,1-.94,2.21c-.06.13-.13.26-.2.39l-.08.14a16.49,16.49,0,0,1-3.85,4.75C4.6,22.24,4.6,18.19,4.82,15.9a16.12,16.12,0,0,1,.27-1.8c2-8.34,6.47-6.26,6.47-6.26C12.42,8.59,12.64,10.52,12.65,12.19Z"/><path class="cls-5" d="M7.82,15.32A8.19,8.19,0,0,0,9.5,21.49c.39.52,2.7-6.33,2.7-6.33l0-4.5S8.84,10.24,7.82,15.32Z"/><path class="cls-3" d="M12.65,12.19v.1c0,.21-.05.83-.14,2.49a1.5,1.5,0,0,0,0,.22,10.65,10.65,0,0,1-.6,2.65,1.83,1.83,0,0,1-.08.25c-.33.91-.7,1.71-.94,2.21-.09.16-.16.3-.2.39l-.08.14a1.57,1.57,0,0,1-.32-.31,5.39,5.39,0,0,1-1.11-2.8,11.75,11.75,0,0,1-.11-1.44,4.12,4.12,0,0,1,.54-2.23,3.44,3.44,0,0,1,1.89-1.48,3.38,3.38,0,0,1,.65-.16h0Z"/><ellipse class="cls-4" cx="10.55" cy="13.15" rx="1.12" ry="1.4"/><path class="cls-6" d="M12.64,12.19v.1c0,.2,0,.4,0,.59,0,0,0,0,0,0a2.36,2.36,0,0,0-.45-.33,3.34,3.34,0,0,0-.4-.25,6.54,6.54,0,0,0-.59-.3,4.53,4.53,0,0,0-.57-.23c-.27-.11-.55-.2-.82-.28h0A14.43,14.43,0,0,0,6.12,11c2.2-4.68,5.43-3.18,5.43-3.18C12.41,8.59,12.63,10.52,12.64,12.19Z"/><path class="cls-6" d="M55.26,13.18a47.36,47.36,0,0,0-5.17-2.35,38.12,38.12,0,0,0-7.31-2,26.44,26.44,0,0,0-5.85-.34C39.54,4.33,43.94,2,48.11,3S55.14,8.2,55.26,13.18Z"/></svg>