<svg id="Layer_1" data-name="Layer 1" xmlns="http://www.w3.org/2000/svg" viewBox="0 0 410 210"><defs><style>.cls-1{fill:#98675a;}.cls-2{fill:#84574e;}.cls-3{fill:#63413b;}.cls-4,.cls-8{fill:#bfaaa3;}.cls-5{fill:#68504a;}.cls-6{fill:#d8c9c3;}.cls-7{fill:#ad857b;}.cls-8{stroke:#705e5a;}.cls-13,.cls-16,.cls-19,.cls-8,.cls-9{stroke-miterlimit:10;}.cls-13,.cls-8{stroke-width:0.5px;}.cls-9{fill:#3f2920;stroke:#19100d;}.cls-19,.cls-9{stroke-width:0.25px;}.cls-10{fill:#281913;}.cls-11{fill:#fff;}.cls-12{fill:#dbd8d2;}.cls-13,.cls-16{fill:#342d2b;}.cls-13,.cls-16,.cls-19{stroke:#110d0b;}.cls-14{fill:#515151;opacity:0.44;}.cls-15{fill:#f4f0ef;}.cls-16{stroke-width:0.75px;}.cls-17{fill:#6d625f;}.cls-18{fill:#282220;}.cls-19{fill:#302220;}.cls-20{fill:#160c09;}</style></defs><path class="cls-1" d="M310,130.19c3.95,11.56,15.07,22.08,20.44,23.23s12.84-.67,19.32,1.42c6.06,2,10.28,7,10.45,12.29,1.45,4.27.78,6.59-.2,6.88-1.18.34-3.91-4.59-6.27-5.91,1.34,2.71,1.48,6,.26,7.09s-6.47-4.59-8.49-4.59-7.89,2.26-12.34-.93c-4.25,4.09-36.62,6.9-54.42-16C283,139.5,310,130.19,310,130.19Z"/><path class="cls-2" d="M344.92,161.49c6.11,0,9.74,3.93,14.27,7.65.36.29,1.55,1.09,1.66.17.59,2.88,0,4.46-.8,4.7-1.18.34-3.91-4.59-6.27-5.91a10.73,10.73,0,0,1,.84,2.38C352.48,166.19,350.07,163.09,344.92,161.49Z"/><path class="cls-2" d="M287.94,141.9c.5,7.65,5.15,14.76,11.66,19,9.06,5.83,19.85,7.65,28.06,6.14,1.59-.47,3-.84,3.69-2.47.22-.23.8.06,1.3.77,3.62,4.89,9.59,2,14.12,3.21,3,.73,5.49,5.44,8,5.16a2.56,2.56,0,0,1-.73,1.45c-1.21,1-6.47-4.59-8.49-4.59s-7.89,2.26-12.34-.93c-4.25,4.09-36.62,6.9-54.42-16C280.1,149.22,283.66,145.25,287.94,141.9Z"/><path class="cls-3" d="M349.61,173.26c-1.5-1.11-3.2-2.38-4.06-2.38a13.2,13.2,0,0,0-1.92.26,25,25,0,0,1-4.53.51,10,10,0,0,1-5.87-1.64c-1.92,1.61-7.42,2.72-13.57,2.72h0c-7.94,0-27.84-1.85-41.08-18.9l-.09-.11,0-.14c4.17-14.14,30.32-23.27,31.43-23.65l.25-.09.09.26c3.93,11.52,15,21.92,20.23,23.05a26,26,0,0,0,5.15.41c.85,0,1.73,0,2.62,0s1.86,0,2.8,0a28.67,28.67,0,0,1,8.78,1.09c6.07,2,10.44,7.09,10.64,12.5.93,2.77,1.1,5.1.45,6.39a1.46,1.46,0,0,1-.85.8c-.73.21-1.63-.8-3.1-2.56a22.33,22.33,0,0,0-2.6-2.82c1,2.63,1,5.51-.2,6.51a.84.84,0,0,1-.57.19C352.74,175.59,351.22,174.46,349.61,173.26Zm4.29-5.4a15.46,15.46,0,0,1,3.53,3.49c.93,1.12,2,2.39,2.54,2.39h0a.94.94,0,0,0,.52-.52c.22-.43.82-2.13-.49-6l0-.08c-.16-5.19-4.39-10.14-10.26-12A28.42,28.42,0,0,0,341.1,154c-.94,0-1.87,0-2.79,0l-2.63,0a26.51,26.51,0,0,1-5.26-.42c-5.33-1.14-16.48-11.56-20.54-23.15-2.73,1-26.79,10-30.8,23.06,13.11,16.76,32.74,18.57,40.58,18.57h0c6.93,0,12-1.36,13.36-2.71l.16-.15.18.13a9.48,9.48,0,0,0,5.74,1.66,25.22,25.22,0,0,0,4.44-.5,13.37,13.37,0,0,1,2-.27c1,0,2.66,1.2,4.38,2.48,1.47,1.1,3,2.23,3.72,2.23a.29.29,0,0,0,.22-.07c1.11-.95.95-4.16-.33-6.74l-.4-.8Z"/><path class="cls-3" d="M360.4,168.58l.52-.16c-1.71-5.51-9.87-9.41-9.87-9.41S358.76,163.29,360.4,168.58Z"/><path class="cls-3" d="M353.94,169.14l.48-.23c-2.48-5.44-9.73-7.31-9.73-7.31S351.55,163.92,353.94,169.14Z"/><path class="cls-3" d="M333.57,170.23l.24-.49a4,4,0,0,1-1.66-2.36S332.13,169.51,333.57,170.23Z"/><path class="cls-4" d="M223.35,177a21.81,21.81,0,0,0-10.52,8.06c-6.81-5-15.85-9.45-11-12.23S221.53,169.77,223.35,177Z"/><path class="cls-5" d="M212.68,185.27c-1.44-1.05-3-2.08-4.46-3.08-4.34-2.91-8.1-5.43-8-7.6a2.49,2.49,0,0,1,1.51-2c2-1.14,5.52-1.85,9.21-1.85,2.61,0,11.24.45,12.69,6.19l.07.26-.25.08a21.53,21.53,0,0,0-10.37,7.93l-.15.25Zm-1.76-14c-3.55,0-7.06.7-8.95,1.78-.81.46-1.22,1-1.24,1.54-.06,1.86,3.75,4.42,7.79,7.12,1.41,1,2.86,1.92,4.24,2.92A22.48,22.48,0,0,1,223,176.81C221.78,172.74,216,171.29,210.92,171.29Z"/><path class="cls-1" d="M209.59,165.81c8,2.08,12.45,5.63,14,9.17,1.47,3.27-.72,4.17-4,2-3.67-2.43-11.26-3.54-12.07-2.71,4.12,2.16,7.28,8.2,5.94,10.9s-6.28-2.84-10-4.23-8.9,1.84-15.92,1.21-20-3.64-22.15-8.12,2.22-11.14,0-16.14C184.81,161.33,203.73,159.56,209.59,165.81Z"/><path class="cls-2" d="M219.7,174.92c1.22.53,4.38,2.06,3.91,0v0c1.47,3.27-.72,4.17-4,2-3.56-2.36-10.81-3.47-12-2.78-.13-.07-.41.23-.54.15C208.58,171.86,215.6,173.13,219.7,174.92Z"/><path class="cls-2" d="M165.39,157.9c4.33.76,8.64,1.27,12.79,1.67.08,6-3.73,13.18,2.37,15.81,9.95,4.43,18.95-1.69,28,6.7,3.35,2.64,4.5,2.16,5.17,2.44a2.69,2.69,0,0,1-.22.66c-1.35,2.71-6.28-2.84-10-4.23s-8.9,1.84-15.92,1.21-20-3.64-22.15-8.12S167.61,162.9,165.39,157.9Z"/><path class="cls-3" d="M207.71,183.79a21.76,21.76,0,0,0-4.34-2.58,5.88,5.88,0,0,0-2.09-.33,23.07,23.07,0,0,0-4.59.68,34.55,34.55,0,0,1-7.3,1c-.63,0-1.26,0-1.87-.08-6-.54-20-3.37-22.37-8.28-1.09-2.29-.57-5,0-7.91s1.1-5.78,0-8.24l-.22-.48.51.09c7,1.25,14.09,1.82,20.32,2.32,11.24.9,20.14,1.62,24,5.62,7.29,1.91,12.3,5.21,14.14,9.3.55,1.25.64,2.25.24,2.89a1.6,1.6,0,0,1-1.43.69h0a6.14,6.14,0,0,1-3.18-1.22c-2.86-1.89-8-2.93-10.5-2.93a6.91,6.91,0,0,0-.78,0,13.9,13.9,0,0,1,5.5,7.15,5.23,5.23,0,0,1,0,3.83,1.47,1.47,0,0,1-1.38.89C211.17,186.2,209.49,185,207.71,183.79Zm12.08-7c1.78,1.17,3.39,1.45,3.86.69a2.71,2.71,0,0,0-.27-2.36c-1-2.29-4.19-6.5-13.85-9l-.08,0,0-.06c-3.67-3.9-12.5-4.61-23.68-5.51-6.1-.49-13-1.05-19.9-2.24.91,2.51.37,5.35-.16,8.11s-1,5.44,0,7.56c2.11,4.44,15.33,7.38,21.94,8,.59.05,1.21.08,1.82.08a33.83,33.83,0,0,0,7.2-1,24.4,24.4,0,0,1,4.69-.69,6.4,6.4,0,0,1,2.27.37,21.77,21.77,0,0,1,4.46,2.64c1.71,1.19,3.32,2.31,4.36,2.31a.93.93,0,0,0,.9-.58,4.76,4.76,0,0,0-.07-3.41,13,13,0,0,0-5.75-7.12l-.33-.17.26-.27c.15-.16.48-.36,1.62-.36C211.54,173.73,216.84,174.81,219.79,176.76Z"/><path class="cls-6" d="M344.21,106.44c-30.53,13.86-27.39,33.12-57.33,48.12s-107.83,23.75-138.38,0c2.83-15,6.27-38.12,32-36.24s89.63,23.12,105.2,9.16,38.39-29.63,48-27.62S344.21,106.44,344.21,106.44Z"/><path class="cls-4" d="M177.66,131.91c4.43,2,8.25,4,9.83,4.73,12.73,6.08,26.3,11.21,40.47,12.87,11.12,1.31,21.42.85,32-2.46,9.91-3.11,20.94-5.74,27-15.25a1.43,1.43,0,0,1,1.36,0c4.48,5.94,6.94,13.83,19.13,7.61a70,70,0,0,1-20.54,15.15c-29.94,15-107.83,23.75-138.38,0,1.53-8.14,3.25-18.68,8.62-26.32C159.62,124.68,169.65,128.31,177.66,131.91Z"/><path class="cls-5" d="M148.33,154.78l-.13-.1.31-1.66c1.33-7.11,3-16,7.09-22.92,5.28-8.95,13.42-12.89,24.88-12.06,8,.59,20,3.09,32.57,5.75,18.13,3.81,38.69,8.14,53.77,8.14,9.07,0,15.17-1.52,18.67-4.66,15-13.42,35.88-27.86,46.37-27.86a9.16,9.16,0,0,1,1.88.18c9.7,2,10.7,6.61,10.73,6.8l0,.22-.2.09c-15.51,7-22.16,15.31-29.2,24.06-6.59,8.2-13.4,16.68-28.12,24.05-17.33,8.68-49.36,14.74-77.9,14.74C182.16,169.55,160.58,164.31,148.33,154.78Zm185.3-54.65a8.79,8.79,0,0,0-1.77-.17c-10.35,0-31.11,14.38-46,27.73-3.6,3.22-9.82,4.79-19,4.79-15.14,0-35.72-4.33-53.88-8.15-12.6-2.65-24.51-5.15-32.5-5.74-1-.07-1.93-.1-2.85-.1-22.08,0-25.82,20-28.55,34.63l-.25,1.33C161,163.83,182.38,169,209.1,169c28.46,0,60.4-6,77.66-14.69,14.62-7.32,21.39-15.75,27.95-23.9,6.73-8.38,13.7-17,29.17-24.12C343.56,105.39,341.77,101.82,333.63,100.13Z"/><path class="cls-1" d="M326.33,104.67c-10.72,9.27-34,23-39.86,35.52s-26.5,21.66-51.38,6-69.8-22.88-75.47-11.75-26.7,23.62-41.27,16.75-28.32-14.79-47.74-4-22.06,16.92-37.63,22S-.2,166.64,2.23,161s14.56,1.46,26.9-7.5,15.78-18.33,35.81-31.87,35.61-15,45.32-30.2,18.41-42.72,58.35-44.37c39.15-1.63,56.16,27.7,80.5,33.34C278.64,87.26,284,51,292.61,43,314.39,35.79,332.87,87.48,326.33,104.67Z"/><path class="cls-7" d="M248.59,82.55c-24.34-5.64-42.7-33.15-81.85-31.62-37.8,1.48-57.42,43-60.73,55.71a36.47,36.47,0,0,1,.87-7c-3.93,8.05-24.67,13-40.53,23.66-20,13.54-24.36,22.86-36.7,31.82-9.59,7-19.95,2.82-26.5,4.64,3.77-3.17,14.8,1.89,26-6.23,12.34-9,15.78-18.33,35.81-31.87s35.61-15,45.32-30.2,18.41-42.72,58.35-44.37c39.15-1.63,56.16,27.7,80.5,33.34,16.79,3.89,25.77-6.15,32-17C274.37,76.33,264.38,86.21,248.59,82.55Z"/><path class="cls-2" d="M27.23,166c12.91-2.33,21.36-10.26,31.32-19.12,6.56-5.83,14.26-8.53,23.08-10.63,8.38-2.1,17-5.36,21.28-13.29,5-.93,8.83,2.57,12.9,5.6,6.11,4.89,10.19,10.72,15.17,16.54a45.4,45.4,0,0,1,4.7,7c-5.93,1.61-12.05,1.66-17.33-.83-14.56-6.87-28.32-14.79-47.74-4s-22.06,16.92-37.63,22S-.2,166.65,2.23,161v0C2,165.13,19.89,167.46,27.23,166Z"/><path class="cls-3" d="M2.38,164.14a3.39,3.39,0,0,1-.4-3.23c1.14-2.65,4.16-2.66,8.34-2.66,5,0,11.84,0,18.66-4.95a87.68,87.68,0,0,0,12.77-11.84,122.5,122.5,0,0,1,23-20A165.1,165.1,0,0,1,85.3,110C95.74,104.82,104,100.76,110,91.29c1.43-2.23,2.84-4.74,4.33-7.39,8.46-15.06,20-35.68,54.24-37.1,1.05,0,2.1-.07,3.12-.07,22.47,0,37.67,10.41,51.09,19.59,8.78,6,17.07,11.68,26.36,13.83a31.31,31.31,0,0,0,7,.85c16.24,0,23.48-14.78,29.3-26.65,2.45-5,4.56-9.32,7-11.55l.1-.06a13.61,13.61,0,0,1,4.25-.7c8,0,14.43,7.2,18.43,13.23,10,15.16,15.46,38.75,11.37,49.5l0,.07-.05,0c-3.13,2.71-7.37,5.83-11.85,9.12-11.16,8.21-23.81,17.52-27.94,26.31s-14.28,14.45-25.89,14.45c-8.41,0-17.11-2.79-25.87-8.29-15.52-9.74-40.8-17.09-58.81-17.09-8.78,0-14.56,1.86-16.28,5.23-4.54,8.92-18.9,18.86-32.24,18.86a21.84,21.84,0,0,1-9.38-2l-2.72-1.29c-8.58-4.1-16.68-8-26-8-6.21,0-12.34,1.73-18.74,5.3a172.68,172.68,0,0,0-17.54,11.24c-6.36,4.52-10.95,7.78-20.13,10.78a35.2,35.2,0,0,1-10.85,1.67C12.59,171.21,4.58,167.61,2.38,164.14Zm113.37-14.46,2.71,1.3a21.26,21.26,0,0,0,9.16,1.94c13.15,0,27.29-9.79,31.77-18.57,2.32-4.56,10.39-5.52,16.75-5.52,18.1,0,43.5,7.38,59.09,17.16,8.67,5.45,17.28,8.21,25.59,8.21,11.41,0,21.38-5.54,25.41-14.13,4.19-8.92,16.9-18.27,28.11-26.52,4.45-3.27,8.65-6.36,11.76-9,3.92-10.45-1.57-34.19-11.33-48.92-3.93-5.92-10.24-13-18-13a13.07,13.07,0,0,0-4,.65c-2.31,2.17-4.39,6.43-6.8,11.35C280.37,66,272.74,81.55,256.17,81.55a31.78,31.78,0,0,1-7.12-.86c-9.39-2.17-17.72-7.88-26.54-13.91C209.16,57.64,194,47.29,171.72,47.29c-1,0-2.06,0-3.09.06-33.91,1.41-45.41,21.88-53.8,36.82-1.5,2.66-2.91,5.18-4.35,7.43-6.13,9.6-14.43,13.68-24.94,18.85a163.17,163.17,0,0,0-20.45,11.43,122.51,122.51,0,0,0-23,20,88.24,88.24,0,0,1-12.85,11.91c-7,5-13.9,5.05-19,5.05-4,0-6.85,0-7.85,2.33a2.83,2.83,0,0,0,.36,2.71c2.12,3.35,10,6.81,19.38,6.81A34.46,34.46,0,0,0,32.9,169c9.1-3,13.66-6.21,20-10.7A171.57,171.57,0,0,1,70.48,147c6.47-3.61,12.69-5.37,19-5.37C99,141.66,107.12,145.56,115.75,149.68Z"/><path class="cls-8" d="M307.21,194.61a11.56,11.56,0,0,0-4.5,7.34c-3.69.16-9.66,2.19-11,4-2-4.48-6.27-10.05-11.23-12.08s2.59-10.15,9.62-9.11S305.39,188.41,307.21,194.61Z"/><path class="cls-1" d="M288.86,118.64s5.2,11.66-.47,23.63-13.15,13.44-15.57,23.85c2.53,8,2.48,15.31,4.14,16.36s6.4-1.93,15.62-.78,13.87,7.13,15,10.72-.65,4-2.78,2a21.13,21.13,0,0,0-6.84-3.8c3.94,3.59,6.52,9.09,5.82,11.9s-9.74-7.08-14.26-7.29c2.58,2.55,4.71,8.1,3.19,10.86s-5.1-4.22-7.08-5.21-11.38-1.51-16.23-7.24a50,50,0,0,1-17.5-19.06,66.31,66.31,0,0,1-6.38-20.21c-1.31-7.7.26-11.36.26-11.36Z"/><path class="cls-2" d="M303.45,199.15h0a6.7,6.7,0,0,1,.27,3.35c-.71,2.8-9.63-7-14.18-7.28a38.77,38.77,0,0,0-4.29-2.59,17.4,17.4,0,0,1,7.38,1.69C298.24,197.44,303.81,201.32,303.45,199.15Z"/><path class="cls-2" d="M292.61,187.2c5.75.8,9.48,3.55,12.06,4.79.92.44,2.83,1.23,2.72-.07.06.17.12.34.17.5,1.12,3.6-.65,4-2.78,2a21.13,21.13,0,0,0-6.84-3.8,20.84,20.84,0,0,1,3.14,3.64A25.22,25.22,0,0,0,292.61,187.2Z"/><path class="cls-2" d="M245.76,143c-.25,16.89,17.19,45,25.69,47,1.68,4.14,11,8.47,14.46,9.31,2.3.58,4.77,6.52,6.76,6.77-1.53,2.66-5.09-4.26-7.06-5.24s-11.38-1.51-16.23-7.24a50,50,0,0,1-17.5-19.06,66.31,66.31,0,0,1-6.38-20.21C244.19,146.65,245.76,143,245.76,143Z"/><path class="cls-3" d="M291.8,207h.11a1.32,1.32,0,0,0,1-.78c1.43-2.59-.25-7.72-2.7-10.6,2.11.51,5,2.62,7.53,4.51,2.93,2.16,4.77,3.47,5.72,3.11a.84.84,0,0,0,.54-.65c.69-2.74-1.52-7.65-4.93-11.22a18.43,18.43,0,0,1,5.51,3.26c1.21,1.12,2.33,1.53,3,1.08.48-.31.9-1.15.22-3.35-1-3.25-5.48-9.71-15.21-10.92a35,35,0,0,0-12.08.62c-1.65.33-2.84.57-3.43.2-.78-.49-1.2-2.9-1.72-6a77.82,77.82,0,0,0-2.28-10.17c1.29-5.46,4-8.42,7.12-11.83a44.7,44.7,0,0,0,8.42-11.89,29,29,0,0,0,2.71-11.72,26.8,26.8,0,0,0-2.49-12c.05.11,4.84,11.79-.71,23.51a43.86,43.86,0,0,1-8.32,11.75c-3.19,3.49-6,6.5-7.27,12.16l0,.08,0,.07a76.05,76.05,0,0,1,2.29,10.17c.59,3.44,1,5.71,2,6.33.77.48,2,.24,3.81-.13a34.64,34.64,0,0,1,11.91-.61c9.47,1.18,13.8,7.41,14.77,10.54.44,1.41.44,2.43,0,2.72s-1.36-.11-2.35-1a21.28,21.28,0,0,0-6.93-3.86l-1.35-.52,1.08,1c3.75,3.42,6.43,8.85,5.74,11.62-.05.2-.14.25-.2.27-.74.28-3-1.41-5.23-3-2.93-2.16-6.26-4.62-8.56-4.73l-.71,0,.51.51c2.61,2.58,4.57,7.94,3.15,10.52a.82.82,0,0,1-.6.5c-.86.08-2.25-1.61-3.47-3.11a11.35,11.35,0,0,0-2.66-2.71,15.2,15.2,0,0,0-2.83-.78c-3.65-.82-9.76-2.2-13.32-6.39l-.06-.06a49.94,49.94,0,0,1-17.41-18.95c-3-5.87-4.94-11.89-6.34-20.12-1.28-7.53,0-11.28,0-11.32s-1.83,3.72-.52,11.41c1.42,8.29,3.33,14.36,6.4,20.29a50.53,50.53,0,0,0,17.56,19.15c3.68,4.3,9.88,5.7,13.59,6.53a15.67,15.67,0,0,1,2.71.74,11.55,11.55,0,0,1,2.47,2.57C289.36,205.38,290.67,207,291.8,207Z"/><path class="cls-3" d="M298.61,191.64l.39-.39c-2.11-2.22-6.39-4.05-6.39-4.05A32.54,32.54,0,0,1,298.61,191.64Z"/><path class="cls-3" d="M289.87,196l.4-.38a10.36,10.36,0,0,0-5-3A14.63,14.63,0,0,1,289.87,196Z"/><path class="cls-3" d="M106,106.64a37.62,37.62,0,0,1,4.63-15.29l-.46-.29A33.5,33.5,0,0,0,106,106.64Z"/><path class="cls-4" d="M170.45,193.2c-2.68.58-5.26,3.86-6,6.83-6.12.36-9.56.41-11,2.65-7-5.62-13.2-11.55-10.47-13.74S161.65,181.23,170.45,193.2Z"/><path class="cls-5" d="M153.24,202.9c-7.67-6.18-11.24-10.18-11.23-12.59a1.93,1.93,0,0,1,.76-1.59c1.41-1.13,6.48-3.25,12.35-3.25A18.58,18.58,0,0,1,170.66,193l.26.35-.42.09c-2.69.57-5.11,3.88-5.81,6.62l-.05.19-1.34.08c-5.4.31-8.38.48-9.67,2.47l-.17.24ZM170,193a18.09,18.09,0,0,0-14.86-7c-5.74,0-10.66,2-12,3.14a1.4,1.4,0,0,0-.56,1.15c0,2.18,3.54,6.1,10.81,12,1.51-2,4.56-2.16,9.92-2.47l.95-.06C165,197,167.32,193.86,170,193Z"/><path class="cls-1" d="M166.64,125.62s.87,11.16-8.23,27.13-21.65,18.37-21.24,22.75,6.67,6.25,11.33,6.14,11.33-2.64,17.73,2.09,5.87,10.9,3.44,10.13-4.18-3.88-10-4.23c4.25,3.63,7.09,9,5.57,11.18s-9.23-6-13.76-6.1c2.88,3,4.62,8.53,2.06,9.15s-6.54-6.94-10.86-7.29-14.26-.24-19.73-3.78S110.26,180.5,110.46,175s3.54-5.35,2.63-10.23-6.37-13.21-8.39-22.37-1.35-19.89-1.35-19.89Z"/><path class="cls-2" d="M152.78,187.75c3.58-.83,9.66.22,14,1.85,1.28.56,4.61,2.1,3.94-.62,1.33,3,.55,5.37-1,4.88-2.34-.73-4.06-3.67-9.46-4.19A30.57,30.57,0,0,0,152.78,187.75Z"/><path class="cls-2" d="M146.93,192.47c5.44-.46,9.56,1.68,13.17,4,2.64,1.67,5,1.26,4.49-.63,1,2.06,1.36,3.94.6,5-1.39,2-8-4.73-12.57-5.92C151,194.8,149.6,192.92,146.93,192.47Z"/><path class="cls-2" d="M104.7,142.38c-2-9.17-1.35-19.89-1.35-19.89,1.14,21.2,17.33,38.33,15.06,45.08-2.64,7.89-.49,14.43,4.72,18.63a37.4,37.4,0,0,0,17.73,7.2c5.88.94,8,4.37,11.81,9,.53.64,1.13.64,2,.11a1.58,1.58,0,0,1-1.17,1.31c-2.57.63-6.54-6.94-10.86-7.29s-14.26-.24-19.73-3.78S110.26,180.5,110.46,175s3.54-5.35,2.63-10.23S106.72,151.54,104.7,142.38Z"/><path class="cls-3" d="M153.17,204.18a1.58,1.58,0,0,0,.38-.05,1.82,1.82,0,0,0,1.34-1.37c.51-1.88-.76-5.32-2.78-7.7,2.06.37,4.69,2.11,7,3.67,3,2,5.34,3.55,6.27,2.24,1.62-2.29-1.23-7.51-5-11a13.24,13.24,0,0,1,6.72,2.76,9.33,9.33,0,0,0,2.45,1.4,1.39,1.39,0,0,0,1.75-.81c.88-1.84-.08-6.23-5-9.82s-10.22-3-14.41-2.47c-1.25.16-2.43.31-3.49.34-4.37.1-10.66-1.67-11.06-5.9-.15-1.64,1.84-3.08,4.86-5.25,4.37-3.14,11-7.9,16.35-17.33a70.12,70.12,0,0,0,6.87-16.28c1.85-6.78,1.13-11,1.13-11s.49,11.29-8.46,27c-5.32,9.33-11.86,14-16.2,17.16-3.17,2.28-5.26,3.79-5.08,5.75.45,4.84,7.35,6.48,11.6,6.4a34.66,34.66,0,0,0,3.55-.34c4.09-.54,9.18-1.2,14,2.37s5.47,7.68,4.78,9.12a.87.87,0,0,1-1.11.53,8.9,8.9,0,0,1-2.31-1.32,13.56,13.56,0,0,0-7.8-2.93l-.82,0,.63.54c4.22,3.6,6.9,8.85,5.52,10.8-.62.89-3.12-.77-5.54-2.38-2.67-1.77-5.7-3.78-8-3.82h-.66l.47.48c2.14,2.2,3.63,5.87,3.13,7.7a1.24,1.24,0,0,1-1,1c-1.06.26-2.59-1.27-4.21-2.9-2-2-4.19-4.2-6.56-4.39-.7-.06-1.54-.1-2.5-.15-5-.27-12.58-.67-17.1-3.6-5.74-3.71-12.51-12.38-12.32-17.56a9.31,9.31,0,0,1,1.57-5,6.45,6.45,0,0,0,1.06-5.27,42.35,42.35,0,0,0-3.17-8.25A71.82,71.82,0,0,1,105,142.32a92,92,0,0,1-1.61-19.83,53.61,53.61,0,0,0-.23,10.8,72.25,72.25,0,0,0,1.31,9.15,73.27,73.27,0,0,0,5.27,14.24,41.26,41.26,0,0,1,3.13,8.13,5.9,5.9,0,0,1-1,4.87,9.78,9.78,0,0,0-1.66,5.29c-.21,5.81,7.43,14.72,12.57,18.05,4.64,3,12.3,3.41,17.37,3.68.94.05,1.78.09,2.48.15,2.18.17,4.33,2.33,6.22,4.24C150.47,202.73,151.91,204.18,153.17,204.18Z"/><path class="cls-3" d="M160.28,190.59l.4-.38c-2.3-2.55-7.9-2.46-7.9-2.46S158.13,188.2,160.28,190.59Z"/><path class="cls-3" d="M152.26,196.13l.41-.35a9.84,9.84,0,0,0-4.81-3.13A13.5,13.5,0,0,1,152.26,196.13Z"/><path class="cls-1" d="M398.81,43.56c5.22-4.62,7.42-17.18,2.18-25.29-4.83-7.47-11.37,2.69-9.74,9.33S398.81,43.56,398.81,43.56Z"/><path class="cls-7" d="M400.78,20.41c-4.19-6.54-9.72.94-9.53,7.15-1.61-6.63,4.92-16.75,9.74-9.29,3.21,5,3.63,11.59,2.27,17C404.14,30.38,403.55,24.74,400.78,20.41Z"/><path class="cls-3" d="M398.58,43.73c-.06-.09-6-9.44-7.59-16A12.68,12.68,0,0,1,393.05,18c1.23-1.72,2.71-2.68,4.17-2.68s2.84,1,4,2.76c5.25,8.13,3.16,20.92-2.23,25.69l-.24.21Zm-5.09-25.34a12,12,0,0,0-2,9.13c1.45,5.88,6.36,14,7.35,15.6,5-4.77,6.91-16.91,1.9-24.68-1.08-1.66-2.27-2.5-3.55-2.5S394.61,16.81,393.49,18.39Z"/><path class="cls-9" d="M398,35.27c1.56-2.68,2.07-8,0-10s-3.43,3.42-2.76,5.83A9.51,9.51,0,0,0,398,35.27Z"/><path class="cls-10" d="M395.56,32a7.26,7.26,0,0,1-.31-.86c-.67-2.41.68-7.79,2.76-5.83a3.78,3.78,0,0,1,.83,1.27C396.72,25.16,396.06,29.74,395.56,32Z"/><path class="cls-1" d="M407.36,83.17c1.4-6.38.65-14.42-4.11-25.28-3.81-8.69.15-19.52-12.35-37.17C377.77,2.18,336-3.86,308.49,14.07c-25.07,16.37-29.92,44.05-26.37,62.33a44.2,44.2,0,0,0,11.16,22.09C299.54,105,406.32,87.93,407.36,83.17Z"/><path class="cls-2" d="M297.7,22.89c-12.78,17.77-12.62,38.86-5.7,56.93a30.48,30.48,0,0,0,9.72,12.9c-1.34,3.13-2.62,6.29-3.77,9.5a44.62,44.62,0,0,1-15.73-26.29C279.27,60.76,282.15,39.08,297.7,22.89Z"/><path class="cls-7" d="M388,19.37C370,3,328-.4,299.62,21.84c2.79-3.44,7.41-6.41,9.61-7.84C336.51-3.81,378,2.19,391,20.59c6.75,9.54,8.67,17.07,9.62,23.34C398.38,37.33,398.32,30.67,388,19.37Z"/><path class="cls-3" d="M293.09,98.71a44.58,44.58,0,0,1-11.24-22.25,62.77,62.77,0,0,1,2.46-32,59.66,59.66,0,0,1,24-30.59C319,6.85,332.78,3,347.06,3c19.23,0,36.52,6.88,44.06,17.52,8.3,11.73,9.39,20.49,10.26,27.54.46,3.64.85,6.78,2.12,9.69,4.36,9.94,5.71,18.28,4.13,25.48-1,4.45-78.36,17-104.81,17C297.27,100.25,294.09,99.75,293.09,98.71Zm15.55-84.38c-25.09,16.37-29.82,43.64-26.25,62a43.94,43.94,0,0,0,11.09,21.94c.6.63,2.71,1.37,9.34,1.37,14.88,0,42.83-3.7,62.23-6.88,27.19-4.45,41.73-8.23,42-9.67C408.64,76,407.3,67.83,403,58c-1.31-3-1.71-6.18-2.17-9.87-.86-7-1.94-15.66-10.16-27.25-7.43-10.5-24.55-17.29-43.61-17.29C332.88,3.61,319.23,7.42,308.64,14.33Z"/><path class="cls-9" d="M393.29,30.08c-2.21-5.72-5.16-9.91-8.77-10.8-3.08-.76-4.69,2.2-5,4.56.9-1.39,3.55-2.41,6.13-1.27C387,23.16,390,25,393.29,30.08Z"/><path class="cls-10" d="M393.29,30.08c-2-4.11-5.2-8.3-8.81-9.19a4.13,4.13,0,0,0-5,2.95c.9-1.39,3.55-2.41,6.13-1.27C387,23.16,390,25,393.29,30.08Z"/><path class="cls-9" d="M325.8,26.57c2.7-5.93,6.68-9.25,10.36-9.72,3.14-.39,4.45,2.74,4.57,5.13-.76-1.49-3.29-2.81-6-2C333.36,20.43,329.58,21.93,325.8,26.57Z"/><path class="cls-10" d="M325.8,26.57c2.64-4.45,6.51-7.61,10.19-8.07A4.38,4.38,0,0,1,340.73,22c-.76-1.49-3.29-2.81-6-2C333.36,20.43,329.58,21.93,325.8,26.57Z"/><path class="cls-2" d="M385.15,63.49c-6.85-6.31-6.12-30.65,0-31.13,7.36-.57,14.56,14.71,13.69,24.24C398,65.44,388.94,67,385.15,63.49Z"/><path class="cls-11" d="M385.54,63.67c-6.76-5.61-6-27.3,0-27.72,7.26-.51,14.36,13.1,13.49,21.59C398.23,65.41,389.28,66.78,385.54,63.67Z"/><path class="cls-12" d="M385.54,63.67a11.8,11.8,0,0,1-3.29-5.3c4.26,3.31,13.85,2.28,16.14-7.54a19.63,19.63,0,0,1,.64,6.71C398.23,65.41,389.28,66.78,385.54,63.67Z"/><path class="cls-2" d="M343.3,58.47c2.55-5.57-.2-30.12-8.84-30.12-9,0-16,23.93-12.22,29.78C326.17,64.24,340.09,65.45,343.3,58.47Z"/><path class="cls-11" d="M342.92,59c2.49-5-.63-26.15-9-26.15-8.78,0-15.11,20.6-11.46,25.84C326.25,64.14,339.8,65.22,342.92,59Z"/><path class="cls-12" d="M342.92,59a11.85,11.85,0,0,0,.82-4.47c-4.8,5.23-20.58,2.79-21-8.67-1.86,6.3-1.63,11-.35,12.83C326.25,64.14,339.8,65.22,342.92,59Z"/><ellipse class="cls-13" cx="330.41" cy="50.92" rx="6.14" ry="8.81"/><path class="cls-14" d="M336.55,50.92c0,4.86-2.75,8.81-6.14,8.81s-6.14-3.95-6.14-8.81C325.54,55.32,333.62,57.68,336.55,50.92Z"/><path class="cls-11" d="M329.87,46.34a1.75,1.75,0,1,0,1.69-2.2A2,2,0,0,0,329.87,46.34Z"/><path class="cls-11" d="M327.6,55.43a.71.71,0,1,0,1.37,0c0-.5-.3-.9-.68-.9A.82.82,0,0,0,327.6,55.43Z"/><path class="cls-13" d="M394.13,53.2c.22,4.54-2.13,8.35-5.23,8.51s-5.78-3.37-6-7.9,2.13-8.34,5.23-8.51S393.92,48.67,394.13,53.2Z"/><path class="cls-14" d="M394.13,53.2c.22,4.54-2.13,8.35-5.23,8.51s-5.78-3.37-6-7.9C384.26,57.85,391.75,59.64,394.13,53.2Z"/><path class="cls-11" d="M388,49.29c.05,1.13.78,2,1.63,2a1.85,1.85,0,0,0,1.45-2.13c-.05-1.13-.78-2-1.64-2A1.86,1.86,0,0,0,388,49.29Z"/><path class="cls-11" d="M386.3,57.87c0,.46.32.82.67.8a.77.77,0,0,0,.59-.87c0-.46-.32-.82-.67-.8A.76.76,0,0,0,386.3,57.87Z"/><path class="cls-3" d="M392.41,36.58s-2.77-4.62-6.21-4.71a3.71,3.71,0,0,0-4,3.15,3.94,3.94,0,0,1,4-2.55C389.37,32.55,392.39,36.54,392.41,36.58Z"/><path class="cls-3" d="M328.26,32.12a9,9,0,0,1,5.62-3.57,5.33,5.33,0,0,1,5.37,2.79s-1.4-3.91-5.44-3.38C330.07,28.44,328.26,32.12,328.26,32.12Z"/><path class="cls-6" d="M308.81,64.22c18.1-5.08,29.11,5.07,41,4.33,18.65,3.11,24.3,9.55,39.84.29,3.87-3.38,8.82-5.26,13.38-2.59a10.37,10.37,0,0,1,4.68,6.59c1.29,10-1.93,16.78-6.29,22.29-7.53,9.54-13.08,12.45-23.44,13.55-5.32,5.15-10.73,6.57-17.11,6.08s-9.29-3.06-16.32-4.55c-8.22-1.73-15.55.55-27.21-1.27-13.19-2.06-20-5.1-26.35-13.14C288.13,78.32,298.89,67,308.81,64.22Z"/><path class="cls-4" d="M319.48,103.08c8,2.09,17.49.4,25.49,2,5.54,1.19,11,4.32,16.68,5.19,7.18,1.09,13.61.91,18.9-5.7.62-.81,0,1.49,1.37,1.15,12.28-2.86,20.27-10.62,25.21-21.65a29.38,29.38,0,0,1-5.72,11c-7.53,9.54-13.08,12.45-23.44,13.55-5.32,5.15-10.73,6.57-17.11,6.08s-9.29-3.06-16.32-4.55c-8.22-1.73-15.55.55-27.21-1.27-13.19-2.06-20-5.1-26.35-13.14a33.09,33.09,0,0,1,1.18-15.67C298.12,93.92,307.11,99.85,319.48,103.08Z"/><path class="cls-5" d="M360.84,115.06a29.9,29.9,0,0,1-8.92-2.26,47.25,47.25,0,0,0-7.43-2.29,36.11,36.11,0,0,0-7.68-.7c-1.4,0-2.8,0-4.29.09s-3.21.09-4.93.09h0a65.9,65.9,0,0,1-10.3-.75c-13.7-2.14-20.39-5.48-26.52-13.25l0-.06v-.08c-3.07-18.85,9.1-29.42,18-31.92A37.18,37.18,0,0,1,319,62.49c6.38,0,11.74,1.63,16.91,3.21,4.38,1.33,8.51,2.59,12.67,2.59.42,0,.84,0,1.26,0h0a129.86,129.86,0,0,1,12.73,2.88c4.66,1.23,8.35,2.21,12.23,2.21,4.64,0,9.18-1.47,14.67-4.73,2-1.79,5.26-3.93,9-3.93a9.27,9.27,0,0,1,4.72,1.3A10.62,10.62,0,0,1,408,72.8a28.06,28.06,0,0,1-6.35,22.53c-7.34,9.29-12.85,12.49-23.53,13.64a20.43,20.43,0,0,1-14.95,6.18C362.41,115.15,361.63,115.12,360.84,115.06Zm28.93-46c-5.61,3.35-10.23,4.84-15,4.84-3.95,0-7.66-1-12.37-2.23a129.34,129.34,0,0,0-12.64-2.86c-.42,0-.84,0-1.26,0-4.24,0-8.41-1.27-12.82-2.62-5.14-1.56-10.45-3.18-16.76-3.18a36.55,36.55,0,0,0-10.07,1.42c-8.72,2.44-20.6,12.76-17.64,31.16,6.09,7.69,12.45,10.84,26.13,13a64.86,64.86,0,0,0,10.22.75h0c1.71,0,3.34-.05,4.91-.1s2.9-.08,4.31-.08a36.38,36.38,0,0,1,7.78.7,48.38,48.38,0,0,1,7.51,2.31,29,29,0,0,0,8.78,2.23c.78.06,1.54.09,2.26.09a19.76,19.76,0,0,0,14.65-6.09l.06-.06h.09c10.57-1.13,16-4.27,23.26-13.45a27.47,27.47,0,0,0,6.23-22,10,10,0,0,0-4.54-6.41,8.72,8.72,0,0,0-4.46-1.23C394.89,65.28,391.79,67.34,389.77,69.1Z"/><path class="cls-1" d="M303.7,25.4S292.49,16,285.63,21c-7.64,5.59,3,21.76,3,21.76Z"/><path class="cls-7" d="M282.87,26.92A7.1,7.1,0,0,1,285.63,21c6.86-5,18.07,4.36,18.07,4.36l-.06.07C298.77,22.85,285.74,17.73,282.87,26.92Z"/><path class="cls-3" d="M288.59,42.8c-.07-.1-6.54-10.42-5.34-17.25a6.46,6.46,0,0,1,2.54-4.26c6.61-4.84,17.8,4,17.91,4.11a20,20,0,0,0-5.47-4.1c-3.88-1.89-9-3.29-12.75-.5a7,7,0,0,0-2.77,4.63c-.57,3.22.44,7.08,1.74,10.38A27.83,27.83,0,0,0,288.59,42.8Z"/><path class="cls-9" d="M299.76,36.92C299.76,31,292,24,288.54,26.28s3,13.55,8.21,13.61A3.18,3.18,0,0,0,299.76,36.92Z"/><path class="cls-10" d="M287.58,29a2.73,2.73,0,0,1,1-2.7C292,24,299.76,31,299.76,36.92a3,3,0,0,1-.42,1.37C297.73,30.35,289,26.39,287.58,29Z"/><path class="cls-5" d="M377.65,109.39a13.65,13.65,0,0,0,2.75-4.31,20.06,20.06,0,0,1-3.1,3.84Z"/><path class="cls-6" d="M341.65,74.22c6.17-.55,10-8.11,19.79-10.8,8.43-2.32,18.51-2,26.22,4.29,11.11,9,9.24,25.54,1.57,30.82-9.06,6.24-14.7-2.67-18.34-2.39-2.52,1.48-4.66,3.74-7.14,4.68a18,18,0,0,1-14.63-.74c-7.79-4-16.78-17-16.78-17Z"/><path class="cls-15" d="M389.18,71.72c-10.43-11.44-28.6-8.36-38-1.48-3.25,2.83-6.29,4-8.29,3.76,5.48-1.37,9.44-8.08,18.53-10.58,8.43-2.32,18.51-2,26.22,4.29A21.57,21.57,0,0,1,394.44,91C396.24,82.56,393.81,77.07,389.18,71.72Z"/><path class="cls-4" d="M355.61,97.06c8.5,1.08,14-5.9,22-1.58a11.64,11.64,0,0,0-1.77-.11c3,2.7,8.92,3.12,12.42,1.5a12.81,12.81,0,0,0,6.17-5.68,14.43,14.43,0,0,1-5.16,7.34c-9.06,6.24-14.7-2.67-18.34-2.39-2.52,1.48-4.66,3.74-7.14,4.68a18,18,0,0,1-14.63-.74c-7.79-4-16.78-17-16.78-17l1.42-1.35C338.29,88.52,347.07,95.68,355.61,97.06Z"/><path class="cls-5" d="M357.25,102.32a18.56,18.56,0,0,0,6.59-1.21,18.36,18.36,0,0,0,4.29-2.68,29.5,29.5,0,0,1,2.84-2c1.07,0,2.36.75,3.87,1.68,3.46,2.12,8.2,5,14.54.67,3.72-2.57,6.16-7.78,6.37-13.61a21.56,21.56,0,0,0-7.93-17.71c-6.79-5.52-16.44-7.1-26.45-4.34-5.26,1.45-8.8,4.24-11.93,6.71-2.69,2.12-5,4-7.79,4.38,0,0,3.26.43,8.12-3.9,3.09-2.44,6.58-5.19,11.73-6.61,9.86-2.72,19.33-1.17,26,4.23a21,21,0,0,1,7.71,17.22c-.2,5.63-2.55,10.66-6.12,13.12-6.06,4.17-10.44,1.48-14-.68-1.62-1-3-1.85-4.25-1.76l-.11,0a29.3,29.3,0,0,0-2.95,2.06,17.37,17.37,0,0,1-4.15,2.6,17.8,17.8,0,0,1-14.42-.73c-7.64-3.9-16.59-16.81-16.68-16.93l-.44.35c.09.13,9.11,13.16,16.88,17.12A18.1,18.1,0,0,0,357.25,102.32Z"/><path class="cls-5" d="M370,97.06c2.83-2.28,7.53-1.59,7.58-1.58s-4.9-1.32-7.91,1.1Z"/><path class="cls-5" d="M329.86,86.27a20.41,20.41,0,0,0,2.46-2.46c1.12-1.25,2.08-2.34,3.08-2.42,0,0-1.6-.55-3.48,2-1.41,1.58-3,3.37-5.21,3.75A4.87,4.87,0,0,0,329.86,86.27Z"/><path class="cls-16" d="M387.11,79.55c.34-4.39-3.49-12.35-13.39-12.35-9.54,0-13.85,7.38-13.59,11.76s6.25,11.34,14.59,11.82C381,91.15,386.81,83.49,387.11,79.55Z"/><ellipse class="cls-17" cx="376.02" cy="70.55" rx="1.33" ry="3.55" transform="translate(266.04 436.99) rotate(-83.92)"/><path class="cls-18" d="M360.94,74.93c3,8.38,17.11,13.67,23.74,5.95.61-.71,1.64-.76,2.42-1.21-.41,4-6.13,11.48-12.38,11.11-8.34-.48-14.33-7.5-14.59-11.82A9.17,9.17,0,0,1,360.94,74.93Z"/><path class="cls-19" d="M382.83,78.68c1.19-.94,2.71,0,4.15,1.68-.64,2.84-3.46,6.94-7.11,9C379.49,86.35,381.54,79.7,382.83,78.68Z"/><path class="cls-20" d="M379.84,88.08c.16-3.34,1.87-8.51,3-9.4.79-.62,1.73-.41,2.69.3C385.24,82.67,382.24,86.84,379.84,88.08Z"/><path class="cls-19" d="M360.9,81.69c1.5-2.71,4.85-5.4,7.12-3.38,2.77,2.47,3.91,8,2.35,11.59A16.83,16.83,0,0,1,360.9,81.69Z"/><path class="cls-20" d="M364,78.34c1.36-.85,2.84-1.09,4,0,2.32,2.07,3.65,6,2.79,10.54-1.91-1-5.07-2.58-6.74-5.36A4.9,4.9,0,0,1,364,78.34Z"/></svg>