<svg xmlns="http://www.w3.org/2000/svg" xmlns:xlink="http://www.w3.org/1999/xlink" viewBox="0 0 290 256"><defs><style>.cls-1{isolation:isolate;}.cls-2{opacity:0.3;}.cls-3{fill:#64497c;}.cls-4{fill:#322643;}.cls-5{fill:#f9c1be;}.cls-16,.cls-22,.cls-6{fill:#f7f6fa;}.cls-6{opacity:0.33;}.cls-23,.cls-26,.cls-27,.cls-28,.cls-6{mix-blend-mode:screen;}.cls-20,.cls-7{fill:none;}.cls-7{stroke:#000;}.cls-21,.cls-7{stroke-miterlimit:10;}.cls-8{fill:url(#radial-gradient);}.cls-9{fill:url(#radial-gradient-2);}.cls-10{fill:#c16799;}.cls-11{fill:#6e2f58;}.cls-12{fill:#745c89;}.cls-13{fill:url(#linear-gradient);}.cls-14{fill:url(#linear-gradient-2);}.cls-15{fill:#070404;}.cls-17{fill:#3b65ae;}.cls-18{fill:#060203;}.cls-19{fill:#fff;}.cls-21{fill:#e5e4e2;stroke:#a2a2a3;}.cls-22{opacity:0.15;}.cls-23{fill:url(#linear-gradient-3);}.cls-24{fill:#3e1910;}.cls-25{fill:#42315b;}.cls-26{fill:url(#linear-gradient-4);}.cls-27{fill:url(#linear-gradient-5);}.cls-28{fill:url(#linear-gradient-6);}</style><radialGradient id="radial-gradient" cx="160.75" cy="34.79" r="189.07" gradientUnits="userSpaceOnUse"><stop offset="0" stop-color="#baa2cd"/><stop offset="0.44" stop-color="#9977b4"/><stop offset="0.74" stop-color="#63487b"/><stop offset="0.99" stop-color="#463258"/></radialGradient><radialGradient id="radial-gradient-2" cx="215.87" cy="158.12" r="5.43" gradientUnits="userSpaceOnUse"><stop offset="0" stop-color="#d0b2d5"/><stop offset="1" stop-color="#a56cac"/></radialGradient><linearGradient id="linear-gradient" x1="94.23" y1="58.52" x2="89.35" y2="112.59" gradientUnits="userSpaceOnUse"><stop offset="0" stop-color="#9875b3"/><stop offset="1" stop-color="#77499c"/></linearGradient><linearGradient id="linear-gradient-2" x1="55.74" y1="51.26" x2="50.63" y2="97.06" gradientUnits="userSpaceOnUse"><stop offset="0" stop-color="#a484bc"/><stop offset="0.24" stop-color="#9975b4"/><stop offset="0.71" stop-color="#885ea7"/><stop offset="1" stop-color="#8155a2"/></linearGradient><linearGradient id="linear-gradient-3" x1="87.23" y1="107.69" x2="92.82" y2="117.37" gradientUnits="userSpaceOnUse"><stop offset="0" stop-color="#fff"/><stop offset="0.09" stop-color="#cdcdcd"/><stop offset="0.18" stop-color="#a09f9f"/><stop offset="0.28" stop-color="#797777"/><stop offset="0.38" stop-color="#5a5757"/><stop offset="0.48" stop-color="#413f3f"/><stop offset="0.58" stop-color="#302d2d"/><stop offset="0.7" stop-color="#252222"/><stop offset="0.83" stop-color="#221f1f"/></linearGradient><linearGradient id="linear-gradient-4" x1="12.11" y1="102.43" x2="16.72" y2="110.42" xlink:href="#linear-gradient-3"/><linearGradient id="linear-gradient-5" x1="15.37" y1="92.63" x2="14.29" y2="107.91" xlink:href="#linear-gradient-3"/><linearGradient id="linear-gradient-6" x1="87.11" y1="101.36" x2="88.27" y2="112.36" xlink:href="#linear-gradient-3"/></defs><g class="cls-1"><g id="Layer_1" data-name="Layer 1"><ellipse class="cls-2" cx="149.86" cy="213.78" rx="113.73" ry="21.64"/><path class="cls-3" d="M105.07,26.25c-18-7.1-17.13,22.63-12.08,27.43.79.75,2.33,2.67,2.57,1.82C121.66,41.37,112.22,29.07,105.07,26.25Z"/><path class="cls-4" d="M105.23,25.85A14.51,14.51,0,0,0,100,24.73c-4,0-7.11,2.37-8.9,6.86C88.09,39.09,89.5,51,92.7,54l.57.6c.93,1,1.53,1.56,2,1.56a.62.62,0,0,0,.57-.34c14.79-8,17.57-15.2,17.3-19.79C112.89,31.05,109,27.33,105.23,25.85ZM95.36,55.13l-.17.09h0A9.84,9.84,0,0,1,93.89,54c-.23-.23-.43-.45-.61-.62-2.72-2.58-4.42-13.94-1.41-21.47C93,29,95.36,25.58,100,25.58a13.75,13.75,0,0,1,4.94,1.06c3.49,1.38,7.14,4.83,7.42,9.42C112.6,40.42,109.87,47.27,95.36,55.13Z"/><path class="cls-5" d="M102.1,33c-9.18-3.53-5.41,10.28-5.74,17.53C99,49.41,108.92,35.65,102.1,33Z"/><path class="cls-4" d="M100.8,32.25a4,4,0,0,0-3.68,1c-2,2.12-1.68,6.91-1.38,11.54a52.53,52.53,0,0,1,.19,5.7l0,.68.63-.27c2-.88,8.91-9.92,8.21-15.11C104.55,34.44,103.72,32.69,100.8,32.25Zm-4,17.5c0-1.51-.09-3.19-.21-5-.29-4.45-.59-9.06,1.15-10.92A2.81,2.81,0,0,1,99.89,33a5.67,5.67,0,0,1,.79.06c1.94.29,3,1.23,3.22,2.86C104.48,40.27,99.15,47.8,96.8,49.75Z"/><path class="cls-3" d="M50.32,21.41c-10.64,1.94-8.42,12.23-4.24,19.38A39.14,39.14,0,0,0,57,52.57l2.87-1.06c.91-10.17.34-8.06,2.26-14.62C66.06,23.39,55.33,20.49,50.32,21.41Z"/><path class="cls-6" d="M54.65,23.65c0-2.4-6.31-2.49-9.32.87S42.44,36,50.85,45.89c-5.28-8.28-5.8-14.89-3.94-18C49.29,24,54.64,24.44,54.65,23.65Z"/><path class="cls-4" d="M55.05,42.56l-.62.58,0-.06a12.56,12.56,0,0,1,.37,1.21,40.81,40.81,0,0,0,1.85,5.39l.86-.17a39.73,39.73,0,0,1-1.89-5.46C55.23,42.87,55.17,42.69,55.05,42.56Z"/><path class="cls-4" d="M52.14,20.58a10.47,10.47,0,0,0-1.91.16c-3.61.66-6,2.31-7.24,4.9-1.68,3.67-.67,9.32,2.71,15.12a40.26,40.26,0,0,0,11,11.92l.18.11,3.32-1.22,0-.27c.2-2.25.33-3.87.43-5.17a29.55,29.55,0,0,1,1.67-8.87l.15-.5c1.46-5,1.09-9-1.11-11.95C59.08,21.69,55.09,20.58,52.14,20.58Zm9.56,16-.14.49a29.69,29.69,0,0,0-1.7,9c-.1,1.25-.22,2.79-.41,4.9L57,51.85a39.18,39.18,0,0,1-10.6-11.52C43.19,34.77,42.19,29.41,43.76,26c1.07-2.32,3.3-3.8,6.63-4.41a9.51,9.51,0,0,1,1.75-.15c2.74,0,6.45,1,8.6,3.89C62.76,28,63.09,31.79,61.7,36.53Z"/><path class="cls-3" d="M204.42,183.43c-10.81.53-28.4,0-28.4,0s1.69,15.27-5.62,22c-2.44,3.6,4.66,11.55,24.38,9.33,11.87-1.8,18.44-2.41,16-8.15C209.13,202.77,203.61,194.09,204.42,183.43Z"/><path class="cls-4" d="M210,204.06c-2.18-4.44-5.84-11.88-5.18-20.59l0-.48-.48,0c-3.18.16-7.27.23-12.15.23-8.31,0-16.14-.23-16.22-.23h-.49l.05.48c0,.15,1.6,15.13-5.48,21.69l-.06.07a3.57,3.57,0,0,0,0,3.77c1.69,3.2,7.36,6.61,18.18,6.61a59.24,59.24,0,0,0,6.6-.39l2-.31c7.82-1.17,13-1.94,14.42-4.52a4.28,4.28,0,0,0-.13-3.9C210.88,205.82,210.48,205,210,204.06Zm.54,5.92c-1.24,2.22-6.51,3-13.8,4.1l-2,.31a59.37,59.37,0,0,1-6.49.38c-10.46,0-15.93-3.32-17.44-6.15a2.75,2.75,0,0,1-.08-2.86c6.7-6.26,6-19.18,5.76-21.89,1.83,0,8.63.22,15.77.22,4.66,0,8.59-.07,11.72-.21-.52,8.74,3.11,16.11,5.29,20.56.46.93.85,1.73,1.13,2.39A3.51,3.51,0,0,1,210.56,210Z"/><path class="cls-3" d="M103.94,174c-9.54-6.57-32.58-17.1-32.58-17.1s11,24.91,5.87,35.63c-3.6,7.12-8.76,14-5.87,17.55s31.52,9.17,37.88,0C105.77,204.26,98.21,185,103.94,174Z"/><path class="cls-4" d="M104.32,174.2l.17-.34-.31-.21c-9.46-6.52-32.41-17-32.64-17.13l-1-.47.45,1c.11.25,10.81,24.85,5.87,35.27-.77,1.52-1.61,3-2.43,4.5-3.13,5.63-5.84,10.49-3.38,13.51,1.84,2.27,13,5.14,22.84,5.14h0c5.53,0,12.75-.9,15.71-5.16l.15-.23-.14-.23C106.21,204.17,98.64,185.13,104.32,174.2ZM93.88,214.64h0c-10.08,0-20.63-2.92-22.19-4.82-2.09-2.58.61-7.43,3.48-12.57.82-1.47,1.66-3,2.44-4.54,4.59-9.66-3.4-30.1-5.42-35,4.47,2.07,22.79,10.69,31.21,16.39-5.45,11.15,1.85,29.9,5.33,35.92C105.88,213.84,99.11,214.64,93.88,214.64Z"/><path class="cls-3" d="M260.58,134s13.56,10.07,26.07,2.81c-8.69-4.93-23.53-14.95-23.53-14.95Z"/><path class="cls-4" d="M263.17,121.65l-.53-.35-2.73,13,.22.16c.31.22,7.55,5.52,16.44,5.52h0a19.78,19.78,0,0,0,10.1-2.69l.64-.37-.64-.36C278.09,131.72,263.31,121.75,263.17,121.65Zm13.4,17.51h0c-7.77,0-14.44-4.32-15.71-5.2l2.35-11.25c2.65,1.77,14.66,9.79,22.39,14.24A19.06,19.06,0,0,1,276.57,139.16Z"/><line class="cls-7" x1="263.59" y1="122.06" x2="261.11" y2="133.87"/><path class="cls-8" d="M110.35,70.12c-17.17,4.45-39,86.78-39,86.78s16,29.18,52.08,19c13.57,10.17,36.89,8.48,36.89,8.48,23.32,6.57,57.23-.43,79.9-9.76,22.42-9.51,41.6-67.15,10.44-97.68C220,43.7,181,53.73,110.35,70.12Z"/><path class="cls-3" d="M110.35,70.12c-17.17,4.45-39,86.78-39,86.78s16,29.18,52.08,19c13.57,10.17,36.89,8.48,36.89,8.48,23.32,6.57,57.23-.43,79.9-9.76,22.42-9.51,41.6-67.15,10.44-97.68C220,43.7,181,53.73,110.35,70.12Z"/><path class="cls-9" d="M213.75,150.89c-1.59,2.1-3.22,4.05-4.87,5.85a56.31,56.31,0,0,1,12,5.18C218.49,158.17,216.08,154.39,213.75,150.89Z"/><path class="cls-4" d="M197.6,54.48c-21.83,0-48.59,6.22-82.48,14.1l-4.87,1.13C93,74.17,71.85,153.42,71,156.79l0,.17.08.15a44.43,44.43,0,0,0,9.13,10.69,43.18,43.18,0,0,0,28.58,10.69h0a54.86,54.86,0,0,0,14.66-2.12c10.06,7.43,25,8.55,33.11,8.55,2.09,0,3.48-.08,3.81-.11a78.53,78.53,0,0,0,21.08,2.58c18.16,0,40.23-4.62,59-12.37,11.36-4.82,21.88-21.85,25.58-41.4,4.29-22.66-1.19-43.42-15-56.95C236.81,61.32,220.35,54.48,197.6,54.48Zm67.55,79c-3.65,19.28-14,36.05-25.08,40.77-18.71,7.7-40.66,12.3-58.71,12.3A77.69,77.69,0,0,1,160.44,184l-.07,0h-.07s-1.47.11-3.83.11c-6.44,0-22.54-.83-32.77-8.5l-.17-.13-.2.06a54,54,0,0,1-14.63,2.14h0c-24,0-35.79-18.94-36.88-20.8,1.12-4.18,22.27-82.07,38.63-86.31l4.86-1.13c33.84-7.86,60.56-14.08,82.29-14.08,22.49,0,38.76,6.76,52.77,21.94C264,90.6,269.38,111.09,265.15,133.47Z"/><path class="cls-3" d="M107.09,156.15s-4,8.1-.39,29.09a38.49,38.49,0,0,1-6.57,28.4c-3.18,4.45,2.12,12.09,26.07,11.45,9.11-.85,17.59-1.82,11.23-15-4.2-9.6-2.28-23.34,4-37.35a25.91,25.91,0,0,0,2.07-19.29s-4.09-12.6-17.73-11.8C113.88,142.34,107.09,156.15,107.09,156.15Z"/><path class="cls-4" d="M141.08,172.55c-7.18,13.22-8.09,28.44-4,37.72,2.26,4.68,2.75,8,1.51,10.21-1.81,3.2-7.19,3.7-12.37,4.18-20.54.55-25.08-5-26-6.66a3.73,3.73,0,0,1,.25-4.1,38.63,38.63,0,0,0,6.65-28.74c-3.53-20.57-.06-28.93,0-29s-1.53,1.59-2.17,6.4c0,.07,0,.13,0,.2-.44,4.72-.43,12,1.38,22.55a37.78,37.78,0,0,1-6.5,28.09,4.57,4.57,0,0,0-.32,5c1.17,2.21,5.82,7.15,23.93,7.15.92,0,1.86,0,2.85,0,5.42-.5,11-1,13.06-4.61,1.39-2.46.9-6.05-1.48-11-4-9-3-22.77,4-37,5.42-11,1.69-19.48,1.69-19.48A25.92,25.92,0,0,1,141.08,172.55Z"/><path class="cls-4" d="M136.6,158.39s5.62,6.68,4.73,13.69l.84.1C143.12,164.75,136.86,158.64,136.6,158.39Z"/><path class="cls-10" d="M106.06,209.3c-4.45-2.44-10.37,7.75-10.37,7.75-1.25,3.18,12.6,10.26,13.55,6.65C110.09,220.72,110.3,211.63,106.06,209.3Z"/><path class="cls-11" d="M106.26,208.92a3.49,3.49,0,0,0-1.67-.43c-4.37,0-9.07,8-9.27,8.34l0,.06a2.25,2.25,0,0,0,.44,2.1c1.87,2.75,8.31,6.14,11.68,6.14,1.56,0,2.07-.72,2.23-1.32C110.42,221.1,110.87,211.46,106.26,208.92Zm2.57,14.67c0,.17-.18.69-1.41.69-3,0-9.29-3.29-11-5.77a1.55,1.55,0,0,1-.36-1.28c.31-.53,4.75-7.89,8.51-7.89a2.59,2.59,0,0,1,1.27.33C109.75,211.81,109.71,220.5,108.83,223.59Z"/><path class="cls-10" d="M119,212.79c-5.09-.84-9.25,11-9.25,11-1,2.49,14.13,4.45,14.34,1.3S124.08,213.64,119,212.79Z"/><path class="cls-11" d="M119.06,212.38a2.88,2.88,0,0,0-.59,0c-5.09,0-9,10.88-9.13,11.33a1.07,1.07,0,0,0,.13,1c1.07,1.59,6.5,2.47,9.83,2.47,2.31,0,5.09-.35,5.2-2C124.58,224,125.12,213.39,119.06,212.38Zm4.6,12.72c0,.74-1.76,1.23-4.36,1.23-3.89,0-8.41-1.05-9.13-2.11a.23.23,0,0,1,0-.26c0-.11,3.84-10.79,8.33-10.79a3.42,3.42,0,0,1,.45,0C124.24,214.1,123.73,224,123.66,225.1Z"/><path class="cls-10" d="M131.29,215.07c-3.5,0-5.09,10-5.09,10-.52,2.49,11,.32,10.71-2.38S134.78,215,131.29,215.07Z"/><path class="cls-11" d="M131.34,214.64h-.06c-3.75.05-5.33,9.33-5.5,10.36a1.06,1.06,0,0,0,.21.9,3.21,3.21,0,0,0,2.49.71c2.83,0,7-1.14,8.38-2.66a1.66,1.66,0,0,0,.48-1.29C137,220.05,135.18,214.64,131.34,214.64Zm4.88,8.75c-1.17,1.31-5.19,2.37-7.74,2.37-1.11,0-1.67-.2-1.83-.39a.23.23,0,0,1,0-.22c.42-2.67,2.1-9.62,4.67-9.66h.05c3.23,0,4.89,5,5.15,7.27A.82.82,0,0,1,136.22,223.39Z"/><path class="cls-3" d="M105.8,60.25C82,74.35,67.34,146,92,152.3c37.93,7.76,43.34-31.78,43.34-31.78L136.6,93l26.31-17.13C157.12,62.88,125.56,48.57,105.8,60.25Z"/><path class="cls-6" d="M107.69,62.27c.52-7.79,39.52-9.7,53.83,14.11C134.61,52.18,107.29,68.4,107.69,62.27Z"/><path class="cls-4" d="M158.18,68.46A53.33,53.33,0,0,0,139.3,58.12c-12.69-4-25-3.4-33.71,1.77C88.14,70.21,76,110.37,79.38,134c1.5,10.54,5.82,17,12.52,18.75a47.44,47.44,0,0,0,9.52,1A31.63,31.63,0,0,0,120,148.15c8-5.59,12.19-14.32,14.28-20.44a18,18,0,0,0,1-7.19c0,.18-2.78,17.84-15.78,26.94-7.36,5.16-16.6,6.65-27.45,4.43-8-2.06-10.86-10.95-11.87-18-3.31-23.35,8.6-63,25.8-73.22,8.53-5,20.57-5.66,33-1.69,11.37,3.62,21,10.44,23.87,16.95C162.91,75.88,163.11,72.88,158.18,68.46Z"/><path class="cls-12" d="M91.06,51.53c-5.57-5.69-17.64-8.76-28.88-2.75C53.1,48,44.46,54.72,42.62,64.19,38.37,69,26.92,81,33.14,105.08c.57,19.6-12.51,56.62,19.18,62.84,15,3.11,50.73-14.28,62.86-32.13,0,0,13.58-33.93-7.48-62.84C107.76,58,102.89,52.9,91.06,51.53Z"/><path class="cls-3" d="M81.8,56c-4,5.09-8.48,26.8,7.63,29s18.26-9.19,18.26-12.51C107.71,50.73,89.11,46.54,81.8,56Z"/><path class="cls-13" d="M95.52,56.17c-5.35-1-17.48,7.9-12.46,34.36,6.25,2.36,7.09,7.28,11.71,5.9C104.45,93.54,107.67,58.42,95.52,56.17Z"/><path class="cls-3" d="M42.61,63.69c-.29,3.1-1.83,22.08,14.85,19.24S71.87,57.5,70,53.14C66.66,45.51,46.34,46.12,42.61,63.69Z"/><path class="cls-14" d="M55.92,53.18c8.07.47,11.22,19.22,1.38,33.9-6.51,1.49-7.29-.23-10.48-3.87C40.12,75.57,45.27,52.57,55.92,53.18Z"/><path class="cls-4" d="M91.25,50.91c-3.78-3.78-9.82-6-16.2-6a27.5,27.5,0,0,0-13,3.26c-.46,0-.92-.05-1.39-.05C52,48.08,44,54.82,42.22,63.79l-.3.34c-4.58,5.14-15.27,17.18-9.2,40.8a124.3,124.3,0,0,1-1,14.95c-2,19.31-4.54,43.33,20.51,48.25a20.5,20.5,0,0,0,4,.37h0c8.07,0,19.92-3.79,31.7-10.13,12.3-6.63,22.35-14.85,27.58-22.55l0-.08A74.51,74.51,0,0,0,119.75,115c.7-11.07-.75-27.41-11.63-42.41C108.15,58.1,103.72,52.4,91.25,50.91Zm27.66,64a74.34,74.34,0,0,1-4.11,20.44C103.47,152,72.23,167.65,56.24,167.65a18.78,18.78,0,0,1-3.84-.36c-10.8-2.12-17.27-8-19.77-18.1-2.2-8.84-1.07-19.67-.07-29.22a120.78,120.78,0,0,0,1-15.11v-.1c-6-23.21,4.52-35,9-40.07l.46-.52,0-.11c1.68-8.63,9.28-15.14,17.67-15.14.48,0,1,0,1.44.07h.13l.11-.06a26.6,26.6,0,0,1,12.67-3.22c6.12,0,12.14,2.26,15.7,5.89l.11.11.15,0c12.06,1.4,16.32,6.9,16.26,21v.14l.08.11C118.15,87.81,119.6,104,118.91,114.94Z"/><path class="cls-15" d="M94.22,60.41c-3.57-.47-6,3.52-6,3.52s2.75-3.06,5.88-2.67c2,.24,3.79,1.83,5.3,4.72C99.42,66,98.41,61,94.22,60.41Z"/><path class="cls-15" d="M97,68.11l-.06.84c.09,0,.93.54,1,.54,2.46,0,3.78-2.87,3.87-3S99.12,68.26,97,68.11Z"/><path class="cls-15" d="M98.32,70.12l-.2.83c.7.16,1.33.77,1.93.77a5.55,5.55,0,0,0,3.71-1.53A12.43,12.43,0,0,1,98.32,70.12Z"/><path class="cls-15" d="M99.6,73.31l-.31.79c.76,1.7,1.72,1.28,2.51,1.28a4.62,4.62,0,0,0,2.89-1.33A10.33,10.33,0,0,1,99.6,73.31Z"/><path class="cls-16" d="M93.27,66C88.55,65.43,84,70.53,83.2,77.39s2.31,12.89,7,13.47,9.23-4.52,10.07-11.38S98,66.59,93.27,66Z"/><path class="cls-4" d="M93.32,65.6a6.81,6.81,0,0,0-.78,0c-4.74,0-8.93,5.07-9.75,11.79a16.07,16.07,0,0,0,1.47,9.33c1.4,2.67,3.5,4.3,5.93,4.6a6.81,6.81,0,0,0,.78,0c4.74,0,8.93-5.07,9.75-11.79a16.14,16.14,0,0,0-1.47-9.33C97.85,67.53,95.75,65.9,93.32,65.6ZM99.9,79.43c-.76,6.2-4.68,11.06-8.93,11.06a5.06,5.06,0,0,1-.68,0A7.09,7.09,0,0,1,85,86.29a15.34,15.34,0,0,1-1.39-8.85c.76-6.2,4.68-11.06,8.93-11.06a5.06,5.06,0,0,1,.68.05c2.15.26,4,1.73,5.29,4.15A15.34,15.34,0,0,1,99.9,79.43Z"/><path class="cls-17" d="M92.33,73.71c-2.61-.32-5.09,2.49-5.56,6.28s1.28,7.11,3.89,7.43,5.09-2.49,5.56-6.28S94.94,74,92.33,73.71Z"/><path class="cls-18" d="M91.9,77.21c-1.46-.17-2.85,1.4-3.11,3.52s.71,4,2.17,4.17,2.86-1.4,3.12-3.52S93.37,77.39,91.9,77.21Z"/><path class="cls-19" d="M91.14,77.64a1.44,1.44,0,1,0,1.44,1.44A1.43,1.43,0,0,0,91.14,77.64Z"/><path class="cls-15" d="M56.66,57.79c-3.65-1.31-6.58,2.33-6.58,2.33,2.44-1.71,4.56-2.25,6.3-1.6,2.71,1,3.65,4.62,3.66,4.66S59.77,58.91,56.66,57.79Z"/><path class="cls-15" d="M49.24,64c.08,0,.94-.3,1-.29l.11-.77c-2-.28-4-2.34-4-2.34S47,63.51,49.24,64Z"/><path class="cls-15" d="M43.88,63.51a5.19,5.19,0,0,0,3,2.06c.54.11,1.22-.31,1.88-.32l0-.78A11.7,11.7,0,0,1,43.88,63.51Z"/><path class="cls-15" d="M42.32,66.79a4.27,4.27,0,0,0,2.34,1.74c.71.14,1.49.71,2.49-.68L47,67.08A9.39,9.39,0,0,1,42.32,66.79Z"/><path class="cls-16" d="M54.18,61.73c-4.34-.37-8.31,4.44-8.85,10.75s2.54,11.74,6.88,12.11,8.32-4.44,8.86-10.75S58.53,62.11,54.18,61.73Z"/><path class="cls-4" d="M54.82,61.46a5.52,5.52,0,0,0-.71-.11,7.27,7.27,0,0,0-6.18,3,14.79,14.79,0,0,0-3.09,8.09c-.53,6.18,2.27,11.52,6.52,12.42.24,0,.48.08.71.1a7.27,7.27,0,0,0,6.19-3,14.81,14.81,0,0,0,3.08-8.1C61.88,67.69,59.07,62.35,54.82,61.46Zm5.76,12.35a14,14,0,0,1-2.91,7.67,6.54,6.54,0,0,1-5.53,2.73,6.17,6.17,0,0,1-.62-.09c-3.81-.8-6.41-5.9-5.92-11.6a14,14,0,0,1,2.92-7.68,6.53,6.53,0,0,1,5.53-2.73c.2,0,.41,0,.61.09C58.48,63,61.08,68.1,60.58,73.81Z"/><path class="cls-17" d="M53.47,68.82c-2.4-.21-4.59,2.45-4.89,5.93s1.4,6.47,3.8,6.68S57,79,57.27,75.5,55.87,69,53.47,68.82Z"/><path class="cls-18" d="M53.19,72c-1.35-.12-2.57,1.37-2.74,3.32s.79,3.63,2.13,3.75,2.57-1.37,2.74-3.33S54.53,72.15,53.19,72Z"/><path class="cls-19" d="M52.74,72.43a1.25,1.25,0,1,0,1,1.49A1.26,1.26,0,0,0,52.74,72.43Z"/><path class="cls-4" d="M62.2,48.14l0,.85A11.33,11.33,0,0,1,70,53.14,9.49,9.49,0,0,0,62.2,48.14Z"/><path class="cls-4" d="M81.8,56s2.87-3.85,9.28-4.21l0-.85C84.13,51.28,81.89,55.76,81.8,56Z"/><path class="cls-3" d="M250.58,159.44c4.47-8-1.37-24.23-15.38-27.9-15.21-4-26.55,6.26-30.11,13-15.68,29.82,12.67,48.18,12.69,48.21,4.87,12.74-10,22.86-10.6,23.29,3.93,3.62,9.53,6.44,14.57,6.8,2.61.19,21.78,2.47,32.59-4,6.38-3.81,1.4-15-.88-19.66C245.9,181,245.55,168.47,250.58,159.44Z"/><path class="cls-4" d="M250.58,159.44a10.09,10.09,0,0,0-2.68,5.07c-1.63,6.63-2.6,18.9,5.18,34.9,4.93,10.15,5.28,16.58,1,19.11-4.53,2.71-13.66,5.6-31.52,4l-.83-.07c-4.57-.33-9.86-2.75-13.92-6.34,2.59-1.86,14.9-11.48,10.31-23.48l-.19-.23a42.48,42.48,0,0,1-12.29-12.91c-6.46-10.67-6.66-22.42-.6-34.92,0,0-1.8,1.6-3.51,6.57,0,.12-.07.25-.1.37A34.51,34.51,0,0,0,205,179.93a43.54,43.54,0,0,0,12.47,13.14c4.62,12.4-9.87,22.24-10.49,22.66l-.45.3.4.36c4.25,3.91,9.93,6.56,14.83,6.91l.81.07q5.28.47,9.88.47c9.62,0,17.05-1.54,22.15-4.59,4.68-2.8,4.44-9.6-.72-20.21C242.16,175,250.49,159.59,250.58,159.44Z"/><path class="cls-10" d="M246.29,208.52c-3.07.42-4.4,11.69-2.83,14.76.75,1.48,11.68-1.19,13.11-5.15C256.64,217.08,250.14,208,246.29,208.52Z"/><path class="cls-10" d="M233.53,209.26c-3.67-.42-8.56,3.07-10.93,14.16-.47,2.18,16.16,5.2,18.12-.46C240.92,222.37,238.11,209.79,233.53,209.26Z"/><path class="cls-10" d="M219.15,206.86c-5-1.57-13.46,6.73-12.61,9.24,2,6,15.08,8.94,15.58,7.32C225.67,212,220.82,207.38,219.15,206.86Z"/><path class="cls-11" d="M246.62,208.07l-.39,0c-.79.11-1.49.75-2.09,1.9-1.76,3.38-2.36,10.93-1.06,13.48.22.43.8.64,1.78.64h0c3.42,0,10.89-2.47,12.11-5.85l0-.11c.06-.88-2.25-4.09-4.2-6.18C251.12,210.2,248.69,208.07,246.62,208.07Zm-1.76,15.2c-.86,0-1-.18-1-.18-1.19-2.32-.59-9.56,1-12.7.46-.88,1-1.38,1.46-1.45l.27,0c3.52,0,9.3,8,9.52,9.14C255,220.92,248,223.27,244.86,223.27Z"/><path class="cls-11" d="M233.58,208.84a4.49,4.49,0,0,0-.64,0c-1.79,0-7.88,1-10.75,14.53a1,1,0,0,0,.23.84c1,1.28,6,2.46,10.29,2.46h0c4.64,0,7.62-1.26,8.41-3.53.25-.72-1.32-7.34-3.73-11.17C236.19,210,234.91,209,233.58,208.84Zm-.87,16.94h0c-4.37,0-8.84-1.17-9.63-2.15a.25.25,0,0,1-.07-.12c2.19-10.22,6.56-13.86,9.93-13.86a5.07,5.07,0,0,1,.55,0c4.11.48,6.85,12.13,6.82,13.17C239.64,224.71,236.87,225.78,232.71,225.78Z"/><path class="cls-11" d="M219.28,206.45a5,5,0,0,0-1.47-.21c-3.56,0-8.24,3.45-10.54,6.65-.7,1-1.47,2.35-1.13,3.34,1.77,5.23,11.16,8.05,14.61,8.05,1,0,1.62-.24,1.78-.73C226.26,211.49,220.83,206.93,219.28,206.45Zm2.45,16.82a1.83,1.83,0,0,1-1,.16c-3.44,0-12.23-2.82-13.81-7.47-.16-.49.22-1.46,1-2.58,2.18-3,6.66-6.29,9.85-6.29a4.39,4.39,0,0,1,1.22.17C220.41,207.69,225.24,211.9,221.73,223.27Z"/><path class="cls-4" d="M217.22,192.87c3.44,2.66,13.86,6.25,14.3,6.4,0,0-10.45-4.5-13.78-7.08Z"/><path class="cls-10" d="M173.77,200.62c-2.63-.33-9.48,9.06-8,11.86,1.57,3,13.49,4.2,13.49,1.71C179.2,209.08,178,200.87,173.77,200.62Z"/><path class="cls-11" d="M173.83,200.2l-.2,0c-1.82,0-4.77,3.23-6.61,6.27-1,1.62-2.51,4.58-1.66,6.22,1.16,2.25,6.68,3.29,10,3.29h0a10.06,10.06,0,0,0,2.86-.34c1.15-.37,1.39-1,1.39-1.43C179.61,207.9,178.07,200.45,173.83,200.2ZM178,214.81a9,9,0,0,1-2.6.3h0c-3.68,0-8.44-1.21-9.28-2.83-.47-.9.16-3,1.63-5.39,1.93-3.18,4.63-5.86,5.89-5.86h.12c3.94.24,5,8.38,5,13.15C178.79,214.51,178.29,214.71,178,214.81Z"/><path class="cls-10" d="M189,203.89c-4.88-.21-6.81,10.88-6.81,10.88-.5,2.2,13.38,1.84,13.38-.07C195.09,211.19,193.82,204.1,189,203.89Z"/><path class="cls-11" d="M189,203.47c-5.2-.23-7.15,10.76-7.23,11.21a.91.91,0,0,0,.19.8c.89,1.11,4.62,1.23,6.18,1.23a28.67,28.67,0,0,0,5.13-.43c1.85-.35,2.71-.86,2.71-1.58v-.06C194.84,205.61,191.54,203.58,189,203.47Zm-.86,12.39c-3.29,0-5.17-.47-5.51-.91,0,0,0-.07,0-.11s1.88-10.53,6.25-10.53h.12c3.22.14,5.35,3.73,6.16,10.39C194.93,215.11,192.43,215.86,188.1,215.86Z"/><path class="cls-10" d="M203,204.74c-3.28.42-4.56,9.51-4.56,9.51-.27,1.52,9.39,0,9.39-1.94C207.76,208.66,205.48,204.53,203,204.74Z"/><path class="cls-11" d="M203.22,204.31H203c-3.51.45-4.79,8.91-4.93,9.86a.73.73,0,0,0,.17.6c.18.22.59.52,2,.52,2.34,0,8-1.05,8-3C208.18,208.6,206,204.31,203.22,204.31Zm-3,10.14a2.75,2.75,0,0,1-1.33-.19c.35-2.47,1.77-8.79,4.17-9.1,2-.18,4.26,3.53,4.36,7.15C207.44,213.19,203.2,214.45,200.24,214.45Z"/><path class="cls-10" d="M75.64,198.59c-4.77-.53-7.19,10.33-7.19,10.33-.9,3.13,11.19,6.61,11.75,4C80.87,208.37,80.41,199.12,75.64,198.59Z"/><path class="cls-10" d="M89.78,202.76C84.9,202.9,82.49,214,82.49,214c-1.17,3.92,13,3.17,13,1.19S94.65,202.62,89.78,202.76Z"/><path class="cls-11" d="M75.69,198.17c-5.09-.57-7.55,10.21-7.65,10.63a1.92,1.92,0,0,0,.42,1.73c1.51,2,6.53,3.72,9.58,3.72,1.9,0,2.45-.69,2.58-1.29.5-3.39.41-9.93-2-13A4.27,4.27,0,0,0,75.69,198.17Zm4.1,14.64c-.08.37-.74.59-1.75.59-2.78,0-7.59-1.64-8.9-3.38a1.11,1.11,0,0,1-.28-1c.63-2.78,3-10,6.44-10h.29A3.39,3.39,0,0,1,78,200.44C80.19,203.34,80.26,209.59,79.79,212.81Z"/><path class="cls-11" d="M90,202.33h-.1c-5.15.14-7.6,11.1-7.69,11.54a1.75,1.75,0,0,0,.27,1.6c1.18,1.59,5,1.76,6.6,1.76,2.41,0,7-.43,7-2.05C96,215.06,95.71,202.33,90,202.33Zm-.92,14.06c-3,0-5.27-.54-5.92-1.42a.93.93,0,0,1-.13-.88c0-.11,2.4-10.78,6.89-10.91H90c4.06,0,5.15,8.9,5.21,12C95.11,215.61,92.73,216.39,89.05,216.39Z"/><path class="cls-4" d="M94.77,51.56l.58.62c1.31-1.23,2.68-2.44,3.2-3l-.52-.6A30.72,30.72,0,0,1,94.77,51.56Z"/><path class="cls-20" d="M95.64,217.24a1.8,1.8,0,0,0,0-.19.24.24,0,0,0-.09.12Z"/><path class="cls-5" d="M53.42,28.79c-2.76-1-7.94,1.94-3.54,8,1.87,2.57,2.27,2.67,5.16,6.91C55,43.7,59.14,30.92,53.42,28.79Z"/><path class="cls-4" d="M53.57,28.4a3.83,3.83,0,0,0-1.33-.23,4.59,4.59,0,0,0-4,2.38c-.63,1.24-.92,3.38,1.34,6.49.73,1,1.24,1.64,1.74,2.26.81,1,1.64,2,3.41,4.64l.49.72.27-.83C55.62,43.29,59.6,30.64,53.57,28.4Zm1.31,14.32c-1.45-2.09-2.2-3-2.94-3.95-.51-.64-1-1.25-1.71-2.23-2-2.76-1.8-4.57-1.27-5.61A3.73,3.73,0,0,1,52.24,29a3,3,0,0,1,1,.17C57.73,30.85,55.66,39.89,54.88,42.72Z"/><path class="cls-21" d="M33.16,163A17,17,0,0,1,32,165.25a3.15,3.15,0,0,1-1,.14c-2.94,0-8.33-2.07-8.76-2.39l-.05-.05c-.71-.56-.75-7-.38-12.86,1.5.42,7,2.62,10.73,4.13,2.09.84,3.88,1.56,4.93,2C35.82,157.46,34.31,160.61,33.16,163Z"/><path class="cls-21" d="M71.79,161.07c-.07,1.62,1.84,8.41,3.25,9.54,3.78,1.34,8.11-.52,9.75-1.77,2.31-1.76,4.17-9.68,4.17-9.68S71.79,160.57,71.79,161.07Z"/><path class="cls-12" d="M70.24,82.21c-7.09-1.81-46-10.6-59.57,22.9,0,0-12.86,16.67-5.08,35.46,4.07,9.81,19.54,20.79,43.72,21.46,38,10.88,75.24-9.72,64.81-42.4C111.74,111.83,102.15,90.37,70.24,82.21Z"/><path class="cls-22" d="M52.55,109.43c-9.66,24.22-6,42.59-2.84,51,11.24,1.94,42.29-4,43-12.49.38-4.5-5.8-33.92-15.41-43.31C68.74,96.25,54.2,105.29,52.55,109.43Z"/><path class="cls-6" d="M20,93c17.22-21.33,61-9.7,60-4.37S48.58,74.75,20,93Z"/><path class="cls-22" d="M52.55,109.43C49.49,103.5,38.7,93.88,32.22,98.2s-22.06,34.9-17.45,43,20.06,15.69,33.12,17.48C46.35,151.46,41.85,132.17,52.55,109.43Z"/><path class="cls-4" d="M70.35,81.8a78.33,78.33,0,0,0-18.84-2.4c-14.08,0-32.65,4.42-41.21,25.49-.75,1-12.68,17.54-5.1,35.84,4.14,10,19.68,21,44,21.72a74.93,74.93,0,0,0,20.59,2.93c17.59,0,32.82-6.48,40.76-17.35,5.94-8.13,7.3-18,3.94-28.53C112.47,112.78,103.21,90.21,70.35,81.8Zm39.56,65.73c-7.78,10.65-22.76,17-40.08,17a73.91,73.91,0,0,1-20.4-2.92h-.11c-24-.67-39.3-11.46-43.34-21.2-7.59-18.34,4.9-34.88,5-35l.06-.1c8.37-20.67,26.61-25,40.44-25a78.07,78.07,0,0,1,18.63,2.37c32.44,8.3,41.56,30.52,43.58,37.13C117,130,115.68,139.63,109.91,147.53Z"/><path class="cls-4" d="M49,162.36l.81-.27c-9.33-27.5,2.73-52.66,2.73-52.66C52.42,109.68,39.57,134.5,49,162.36Z"/><path class="cls-3" d="M90.44,102.46c-4.56,0-8.26,4.05-8.26,9.06s3.91,9.63,8.48,9.41c3.38-.16,5.17-1.92,7-4.29,1.12-1.48,1.37-3,1.37-5.43A8.64,8.64,0,0,0,90.44,102.46Z"/><path class="cls-23" d="M90.23,107.4c-1.78,0-3.7,2.46-4.06,4.95-.45,3.12,1.34,6.75,4.06,6.75,3,0,4.47-3.12,4.47-5.79C94.7,109.82,93,107.4,90.23,107.4Z"/><path class="cls-4" d="M90.44,102c-4.79,0-8.69,4.26-8.69,9.49s3.9,9.48,8.69,9.48a3.31,3.31,0,0,0,3.09-1.54,7.16,7.16,0,0,1-3.09.7c-4.32,0-7.84-3.88-7.84-8.64s3.52-8.64,7.84-8.64,7.85,3.87,7.85,8.64a9.09,9.09,0,0,1-2.24,6s3.06-1.2,3.09-6C99.17,106.17,95.24,102,90.44,102Z"/><path class="cls-24" d="M90.23,107.83c-2,0-3.64,2.12-3.64,4.73s1.63,4.73,3.64,4.73,3.64-2.12,3.64-4.73S92.24,107.83,90.23,107.83Z"/><path class="cls-25" d="M90.23,107.4c-2.24,0-4.06,2.32-4.06,5.16s1.82,5.16,4.06,5.16,4.07-2.32,4.07-5.16S92.47,107.4,90.23,107.4Zm0,9.47c-1.77,0-3.21-1.93-3.21-4.31s1.44-4.31,3.21-4.31,3.22,1.93,3.22,4.31S92,116.87,90.23,116.87Z"/><path class="cls-3" d="M16.53,95c-4.1,0-7.63,4.52-7.63,9.4,0,3.15.19,5.21,1.5,7.46,1.66,2.85,7.33,2.2,9.66.55C23.4,110,24,108.71,24,103.83S20.63,95,16.53,95Z"/><path class="cls-26" d="M14.94,102c-1.78,0-3.8,2.65-3.8,5.16s1.36,4.47,3.47,4.57c2.3.12,4-2.27,3.83-4.78C18.3,104.16,16.73,102,14.94,102Z"/><path class="cls-27" d="M9.66,107.31C8,97.84,16.11,93,20.15,97.12,15.25,96.11,10.1,99.6,9.66,107.31Z"/><path class="cls-4" d="M16.53,94.58c-4.29,0-8,4.59-8,9.82,0,3,.19,6.26,2.53,8,0,0-1.79-2.08-1.68-8,.08-4.7,3.43-9,7.2-9s7,3.78,7,8.41-2.67,7.56-7,8.41a6.08,6.08,0,0,0,5.13-1.41,9.41,9.41,0,0,0,2.72-7C24.38,98.73,20.86,94.58,16.53,94.58Z"/><path class="cls-24" d="M14.77,102.07c-1.64,0-3,1.85-3,4.13s1.33,4.13,3,4.13,3-1.85,3-4.13S16.41,102.07,14.77,102.07Z"/><path class="cls-25" d="M14.77,101.64c-1.87,0-3.4,2-3.4,4.56s1.53,4.56,3.4,4.56,3.39-2.05,3.39-4.56S16.64,101.64,14.77,101.64Zm0,8.27c-1.41,0-2.55-1.66-2.55-3.71s1.14-3.71,2.55-3.71,2.54,1.66,2.54,3.71S16.17,109.91,14.77,109.91Z"/><path class="cls-4" d="M97,139.61a1.61,1.61,0,1,0,1.6,1.6A1.61,1.61,0,0,0,97,139.61Z"/><path class="cls-4" d="M78.66,135.58a1.38,1.38,0,0,0,0,2.75,1.38,1.38,0,0,0,0-2.75Z"/><path class="cls-4" d="M63.87,131.82a.92.92,0,1,0,.92.91A.92.92,0,0,0,63.87,131.82Z"/><path class="cls-4" d="M66.61,147.93A1.27,1.27,0,1,0,68,149.2,1.32,1.32,0,0,0,66.61,147.93Z"/><path class="cls-4" d="M81.64,147.93a1.27,1.27,0,1,0,1.27,1.27A1.27,1.27,0,0,0,81.64,147.93Z"/><path class="cls-4" d="M31.25,130.69a1.48,1.48,0,1,0,1.46,1.48A1.47,1.47,0,0,0,31.25,130.69Z"/><path class="cls-4" d="M18.44,130.36a.73.73,0,1,0,.71.73A.72.72,0,0,0,18.44,130.36Z"/><path class="cls-4" d="M11,133.65a.78.78,0,1,0,.78.78A.78.78,0,0,0,11,133.65Z"/><path class="cls-4" d="M23.9,141.19A.87.87,0,0,0,23,142a.86.86,0,0,0,.8.94.88.88,0,0,0,.94-.81A.89.89,0,0,0,23.9,141.19Z"/><path class="cls-4" d="M31.48,149.2a1.34,1.34,0,1,0,1.23,1.34A1.29,1.29,0,0,0,31.48,149.2Z"/><path class="cls-18" d="M93.38,64.72c-4.9-.6-9.57,4.68-10.44,11.8,4-13.34,17.13-12,17.74,2.17C101.55,71.57,98.29,65.32,93.38,64.72Z"/><path class="cls-18" d="M54.22,60.55c-4.51-.39-8.62,4.6-9.18,11.15,3.51-11.89,14.47-11.36,16.32,1.41C61.93,66.56,58.73,60.94,54.22,60.55Z"/><path class="cls-19" d="M24.42,161.43c0,.7-.39,1.27-.87,1.27s-.86-.57-.86-1.27.39-1.27.86-1.27S24.42,160.73,24.42,161.43Z"/><path class="cls-19" d="M77.94,167.82c.19.71,0,1.38-.46,1.51s-1-.35-1.17-1.06,0-1.39.46-1.51S77.74,167.11,77.94,167.82Z"/><path class="cls-6" d="M90.65,43.66C89.85,29,97.06,22.47,106,27.81,97.14,26.08,91.08,35.88,90.65,43.66Z"/><path class="cls-6" d="M156.14,64.34c3.08,6.54,47-11.82,74.36-.58C216.8,49.06,153.38,58.48,156.14,64.34Z"/><path class="cls-28" d="M84.79,117c-5.77-8.65,2.47-15.78,7.95-13C85.63,104.61,82.42,110.89,84.79,117Z"/></g></g></svg>