<svg id="Layer_1" data-name="Layer 1" xmlns="http://www.w3.org/2000/svg" viewBox="0 0 30 30"><defs><style>.cls-1{fill:#fcf9f7;stroke:#3a1e0f;}.cls-1,.cls-4{stroke-miterlimit:10;stroke-width:0.5px;}.cls-2{fill:#2d1c15;}.cls-3{fill:#f9f4f2;}.cls-4{fill:#e5b798;stroke:#6d1f0c;}</style></defs><path class="cls-1" d="M25.8,14.47A11.32,11.32,0,0,1,25.64,17a10.93,10.93,0,0,1-10.09,9.25A11,11,0,0,1,4.25,16.15c0-.2,0-.4,0-.61a11.51,11.51,0,0,1,1.35-6,10.69,10.69,0,0,1,8.89-5.75,10.76,10.76,0,0,1,9.78,5.41A11.61,11.61,0,0,1,25.8,14.47Z"/><ellipse class="cls-2" cx="11.34" cy="13.6" rx="6.62" ry="6.9" transform="translate(-0.66 0.58) rotate(-2.83)"/><ellipse class="cls-3" cx="9.01" cy="9.4" rx="1.69" ry="1.89" transform="translate(-0.45 0.46) rotate(-2.83)"/><path class="cls-4" d="M25.8,14.47A11.32,11.32,0,0,1,25.64,17a47.7,47.7,0,0,1-9.32,1.14A31.13,31.13,0,0,1,5.38,16.57c-.41-.14-.78-.28-1.13-.42,0-.2,0-.4,0-.61a11.51,11.51,0,0,1,1.35-6,10.69,10.69,0,0,1,8.89-5.75,10.76,10.76,0,0,1,9.78,5.41A11.61,11.61,0,0,1,25.8,14.47Z"/></svg>