<svg id="Layer_1" data-name="Layer 1" xmlns="http://www.w3.org/2000/svg" viewBox="0 0 120 90"><defs><style>.cls-1{fill:#1e130b;}.cls-2{fill:#fcf9f7;stroke:#3a1e0f;}.cls-2,.cls-4{stroke-miterlimit:10;stroke-width:0.75px;}.cls-3{fill:#f9f8f7;}.cls-4{fill:#f9dad2;stroke:#4c2606;}</style></defs><path class="cls-1" d="M9.93,31.92S8.7,23.69,31.65,19.32,2.85,8.19,9.93,31.92Z"/><path class="cls-1" d="M105.22,23.82s0-8.33-16-9.25S107.62-.7,105.22,23.82Z"/><path class="cls-2" d="M57.74,65.57c-1.43,7.54-7,13.59-14.5,14.69-8.26,1.22-16.1-4-19.14-12.14A21.14,21.14,0,0,1,23,63.84C21.46,53.36,28,43.72,37.65,42.3s18.68,5.93,20.23,16.41A20.43,20.43,0,0,1,57.74,65.57Z"/><ellipse class="cls-1" cx="34.54" cy="66.87" rx="9.53" ry="10.48" transform="translate(-9.37 5.75) rotate(-8.38)"/><ellipse class="cls-3" cx="40.68" cy="65.12" rx="2.71" ry="2.98" transform="translate(-9.05 6.62) rotate(-8.38)"/><path class="cls-2" d="M110.67,61.73c-.54,7.9-4.64,14.16-10.45,15s-11.7-4.1-14.46-11.68a26.66,26.66,0,0,1-1.36-5.38c-1.54-10.48,3-19.84,10.23-20.89s14.27,6.58,15.81,17.06A26.63,26.63,0,0,1,110.67,61.73Z"/><ellipse class="cls-1" cx="93.19" cy="63.12" rx="7.11" ry="10.48" transform="translate(-8.2 14.25) rotate(-8.38)"/><ellipse class="cls-3" cx="97.75" cy="61.59" rx="2.02" ry="2.98" transform="translate(-7.93 14.9) rotate(-8.38)"/><path class="cls-4" d="M57.74,65.57A70.34,70.34,0,0,1,44,68.62a66.93,66.93,0,0,1-18.87-.33l-1-.17A21.14,21.14,0,0,1,23,63.84C21.46,53.36,28,43.72,37.65,42.3s18.68,5.93,20.23,16.41A20.43,20.43,0,0,1,57.74,65.57Z"/><path class="cls-4" d="M110.67,61.73a38,38,0,0,1-10.34,3.88,28.77,28.77,0,0,1-14-.37l-.59-.18a26.66,26.66,0,0,1-1.36-5.38c-1.54-10.48,3-19.84,10.23-20.89s14.27,6.58,15.81,17.06A26.63,26.63,0,0,1,110.67,61.73Z"/></svg>