<svg id="Layer_1" data-name="Layer 1" xmlns="http://www.w3.org/2000/svg" viewBox="0 0 360 325"><defs><style>.cls-1{fill:#e5428c;stroke:#c42694;stroke-miterlimit:10;}.cls-1,.cls-2,.cls-3,.cls-4,.cls-5,.cls-6,.cls-7,.cls-8{fill-rule:evenodd;}.cls-2{fill:#ff8aa9;}.cls-3{fill:#ffd4df;}.cls-4{fill:#ce1974;}.cls-5{fill:#fc4e6e;}.cls-6{fill:#c4103f;}.cls-7{fill:#fc708e;}.cls-8{fill:#5889d9;opacity:0.2;}</style></defs><path id="color_1" data-name="color 1" class="cls-1" d="M200.11,51.49c-10.37,30.48-4.46,47.14,4.35,60.66,10.9,16.71,41.13,7.61,48.56,5.09,26.4-9,51.39-15.51,72.41-17.19,18.16-1.46,28.33,4.93,28.33,15,0,4.36-11.14,12.11-20.58,17.92-15.06,9.27-25.91,17.44-43.59,29.54-7.58,5.2-19.74,16.84-27.28,26.66-4.12,5.37-6.95,13.39-6.28,23.3.08,1.15.19,2.29.34,3.42.9,7,3,13.63,5.06,20.06.7,2.22,1.43,4.51,2.1,6.8a206,206,0,0,0,10.35,26.6c3.95,8.62,7.69,16.75,12.94,23.2,2.64,3.24,5.36,6.58,7.91,9.79.57.71,1.18,1.41,1.83,2.15,2.33,2.66,4.73,5.42,5.21,9.13,0,.05,0,.09,0,.14v.12l-.07.09c-3.43,4.27-10.49,5-15.5,4.28-9.66-1.34-16.05-4.71-22.81-8.27-1.61-.85-3.26-1.72-5-2.58a139.29,139.29,0,0,1-12.56-7c-1.82-1.15-3.79-2.21-5.69-3.24-2.3-1.24-4.68-2.52-6.89-4A126,126,0,0,1,211.7,274.3c-2.79-3.06-6.44-7-9.95-10.62l-.51-.52c-3.5-3.56-6.8-6.92-10.55-8.5-3.46-1.47-9.26-2.48-13.83-1.23-2.08.57-4.5,2.55-6.44,4.15l-.36.29c-7.73,6.32-13.9,11.2-18.86,14.91l-4.46,3.41c-2.69,2.09-5.48,4.26-8.43,6.29-3.44,2.37-6.75,4.73-10,7-5.67,4-11,7.87-17,11.7-1,.62-1.89,1.35-2.78,2.05a25.67,25.67,0,0,1-3.83,2.68l-5.33,2.93c-5.34,2.95-10.37,5.73-17.54,8.9-5.94,2.62-16.81,6.62-22.83,3.88a7,7,0,0,1-3.92-4.52c-1.48-4.78,1.77-10.52,4.78-15,5.7-8.48,11.76-16.52,17.62-24.31,4.42-5.86,8.59-11.4,12.51-17a101.23,101.23,0,0,0,6.26-10.65c1.52-2.85,3.1-5.79,4.84-8.51l1-1.55c5.88-9.11,12.36-19.41,11-31.95-2-17.57-17.23-31.38-37.21-44.45C54.61,149.82,36.28,143.39,13,134c-13.73-5.58-4.36-18.53,8-22.89,4.84-1.7,21-6,54.13-.72C98,114,117.09,124.65,126.4,120.88c5.21-2.1,8.54-9.92,9.89-15.51C147,61.3,152.81,47.22,160,33.69,171.65,11.9,188.26,2.88,197.2,2.45,212.46,1.72,206.28,33.33,200.11,51.49Z"/><g id="light_1" data-name="light 1"><path class="cls-2" d="M196.11,8.26C184.82,7.46,162,36.6,142.05,112.05c-3.52,13.35-17.24,14.6-26.1,14.63s-45.53-11.86-64.66-12.59c-25.68-1-36.57,8.48-36.57,8.48s37.18,3,116,49.52c8,4.72,37.06-.73,42-18C175.54,144,178,86.16,180.49,68.2,183.88,44.23,206.28,9,196.11,8.26Z"/><path class="cls-2" d="M345.29,111.43s-21.68-18.89-123.75,21.43c-10.87,4.29-29.16,21.46-24,29.1s26.36,7.77,44.36,1.29,40.93-33.42,63.21-41.65C328.55,112.93,345.29,111.43,345.29,111.43Z"/><path class="cls-2" d="M169,188.08c-14.92.26-47.56,1.14-47.3,6.93,1.12,25.9-10.23,41.05-15.85,51.08-6.53,11.65-41,55.56-40.93,60.69.1,7.19,35.18-22.92,51.47-41.27s39.12-46.28,45.75-55.49C169,200.55,182,187.85,169,188.08Z"/><path class="cls-2" d="M194.47,187.66c5.35-2.91,34.52,10,36.08,19.17a160.75,160.75,0,0,0,12.24,37.57c15.6,32.15,25.36,40.84,23.53,45-3.29,7.44-36.46-22.07-48.32-33.84S195.73,236.07,192.8,232,189.11,190.57,194.47,187.66Z"/></g><path class="cls-3" d="M176.14,25.74c-14.09,26.77-34.82,73.49-23.27,98.65C148.69,84.18,180,31.17,176.14,25.74Z"/><path class="cls-3" d="M14.12,123.05c33.42-24,97.71,4,100.92,12.12C39.91,102.35,20.67,126.53,14.12,123.05Z"/><path class="cls-3" d="M124.5,199.36c10,23.92-21.51,65.11-56.76,105.4C72.23,294.48,124.12,239.31,124.5,199.36Z"/><path class="cls-3" d="M198.08,192.09c4.85,9.62,36.86,64.5,63.77,94.82C224.24,248.82,209,221.14,198.08,192.09Z"/><path class="cls-3" d="M344.67,111.41C310,106.3,240.22,157.74,230.23,182.6,252.44,153.21,307.85,115.17,344.67,111.41Z"/><path class="cls-3" d="M157.42,149.63C170.15,71.9,172.91,63,191.47,12.52,169.54,51.48,164.17,84.21,157.42,149.63Z"/><path class="cls-3" d="M81,134.2c29.9,12.76,48.22,14.58,76,28.38C152.14,156.11,106,140.1,81,134.2Z"/><path class="cls-3" d="M75,301.05c34.08-23.52,87.68-93.32,94.18-105.24C140.37,230,127.52,246.35,75,301.05Z"/><path class="cls-4" d="M273.13,272.87c1,2,2,3.94,3,5.83,1.08,2.17,1.85,4.49,3,6.63.71,1.32,1.49,2.62,2.21,3.95a56.47,56.47,0,0,0,10.52,13.15c3.49,3.43,6.67,6.62,6.79,9.65s-3.43,3.49-9.57,3.18S274.86,313,261.82,306c-14.27-7.58-21.68-11.33-31.84-19.16-2.28-1.76-4.5-3.63-6.61-5.59-3.07-2.87-6.51-5.21-9.43-8.27-3.12-3.27-5.95-6.79-9-10.1-4.81-5.18-11.65-12.74-19.1-13.59-8.4-.95-16.27,3.89-22.06,9.53-4.92,4.79-33.33,25.07-42.71,31.83s-38.37,26.83-51.48,28.25-11.9-2.07-12-5.37c0,.83,4.19,2.19,5,2.31a8.58,8.58,0,0,0,4.67-1c4.8-2.09,10-3.4,14.55-6a120.31,120.31,0,0,0,12.12-7.83c1.61-1.16,3.32-2,5-3A96.92,96.92,0,0,0,109,291c7.89-6.4,16.81-12.29,23.51-20a293.53,293.53,0,0,1,22.19-23c6.72-6.25,18.3-11.65,27.52-8.21a32.94,32.94,0,0,1,10,6.52c2.73,2.41,5.24,5.05,7.8,7.65,3.4,3.44,6.76,6.59,9.85,10.39a49.89,49.89,0,0,0,11.63,10.2c4.3,2.73,8,6.36,12.4,8.88,4.11,2.35,7.81,5.41,11.9,7.88,7.17,4.34,14.56,8.46,22.6,10.94,2.35.73,16.72,7.26,15.44.95-.92-4.55-3.51-8.06-5.87-11.92-2.23-3.66-4-8-6-11.85a188.78,188.78,0,0,1-9.64-23c-.94-2.75-1.43-5.48-2.71-8.09-2.06-4.24-3.26-8.84-4.93-13.22-1.42-3.7-1.85-7.63-3-11.37-2.67-8.37-5.42-16.94-6.91-25.63-.8-4.71-.65-12.27,1.71-15.32,7.84-10.13,24.79-23.14,35.13-30.72,13-9.56,52.09-23.43,64.53-37.32,3.53-3.94-.54-11.26-.54-11.26s9.08,3.81,7.45,11.8c-1.7,8.3-28.06,22.32-36.81,27.82C275.78,168.58,272.63,173.91,263,186c-2.23,2.78-6.6,6.39-8.5,11.46-2.33,6.22-1.27,14.05-.14,20.39.85,4.81,2.45,9.49,3.32,14.34,1.15,6.35,3.68,12.82,6.12,18.75,1.37,3.32,2.83,6.7,4.41,9.91,1.45,3,2.2,6.17,3.56,9.14C272.17,270.94,272.65,271.91,273.13,272.87Z"/><path class="cls-4" d="M14.85,133.59s17.26,6.51,35.23,14.89c18.71,8.72,32.07,16.79,44.32,27.79,17.8,16,16.53,23.93,19.61,28.51s-4.9-27.24-20.7-39.05C81,156.56,66,147.5,51.9,142.49A186.52,186.52,0,0,0,14.85,133.59Z"/><path class="cls-4" d="M195.46,117.35s-6.53-12-7.44-29.75c-.39-7.72,2.25-18.79,3.14-24.38.75-4.65,6-26.56,6-26.56a119.36,119.36,0,0,0-8.85,23.54c-4.26,15.92-4.38,19.92-3.61,28.89C186.3,107.57,195.46,117.35,195.46,117.35Z"/><path class="cls-4" d="M162.85,129.44c7.41,5.55,14.54-2.4,16.12-6.07s-12.23-11.86-14.89-9.84S156.39,124.61,162.85,129.44Z"/><path class="cls-5" d="M165.19,113.25h0a8,8,0,0,0-2.47,7.38,9,9,0,0,0,5.23,6.72,8.13,8.13,0,0,0,7.71-.76,8.41,8.41,0,0,0,3.64-7.22,7,7,0,0,0-1.28-3.65,12.92,12.92,0,0,1-1.27-2.58l0-.09-.08,0C172.81,110.56,168,110.66,165.19,113.25Z"/><path class="cls-6" d="M167.6,122a19.35,19.35,0,0,0,3.87,2,6,6,0,0,0,1.9.51c.36,0,1.13-.15,1.42.13s-.42,1-.77,1.22a7.39,7.39,0,0,1-4.8.5,6.33,6.33,0,0,1-4.87-4.5c-.28-1-.75-3.24,0-4.15s.83.76,1,1.13a8.35,8.35,0,0,0,1.46,2.47A5.09,5.09,0,0,0,167.6,122Z"/><path class="cls-7" d="M165.68,113.72a11.9,11.9,0,0,0,2.16,5.58,9,9,0,0,0,2.55,2.22,12.69,12.69,0,0,0,4.75,1.75c.91.13,2.68.58,3.49,0s1.15-2.57,1.25-3.49a12.5,12.5,0,0,0-.75-3.75,7.66,7.66,0,0,0-1.42-2.41,7.45,7.45,0,0,0-5.28-2.65c-1.86-.12-3.7-.33-5.38.72-.68.42-1.32.81-1.38,1.64A3.27,3.27,0,0,0,165.68,113.72Z"/><path class="cls-3" d="M171.86,113.19c-1.53-.36-2.52.08-2.66,1.74-.11,1.27,0,3.32.73,4.39.92,1.26,2.92,1.31,4.3,1,1.62-.34,3-.71,2.84-2.56-.2-2-1.9-3.35-3.71-4.11A11,11,0,0,0,171.86,113.19Z"/><path class="cls-4" d="M165.83,98c5.56,4.16,10.9-1.8,12.09-4.56s-9.17-8.89-11.17-7.37S161,94.37,165.83,98Z"/><path class="cls-5" d="M172.71,83.67C168.23,85,165.92,87,165.64,90a5.53,5.53,0,0,0,3.82,5.82,7,7,0,0,0,8.15-2.21l0,0v-.05c1.38-5.63-1.46-8-4.73-9.76l-.1-.06Z"/><path class="cls-6" d="M169.58,91.75a13.91,13.91,0,0,0,2.9,1.48,4.47,4.47,0,0,0,1.43.39c.27,0,.85-.12,1.06.1s-.31.77-.57.91a5.5,5.5,0,0,1-3.6.38,4.76,4.76,0,0,1-3.66-3.38c-.21-.77-.56-2.42,0-3.11s.62.57.72.85A6.54,6.54,0,0,0,169,91.22,4.46,4.46,0,0,0,169.58,91.75Z"/><path class="cls-7" d="M168.14,85.54a9,9,0,0,0,1.62,4.19,6.79,6.79,0,0,0,1.92,1.66,9.45,9.45,0,0,0,3.56,1.31c.79.11,2.44.27,3.1-.27s.85-2.34.73-3.25a5.37,5.37,0,0,0-1.49-3.05,7.6,7.6,0,0,0-1.24-1c-2-1.35-4.87-2.57-7.17-1.14-.51.31-1,.61-1,1.23A1.82,1.82,0,0,0,168.14,85.54Z"/><path class="cls-3" d="M172.77,85.15c-1.14-.28-1.88,0-2,1.3a5.54,5.54,0,0,0,.55,3.29c.69.94,2.19,1,3.22.77,1.22-.25,2.26-.53,2.13-1.91a4,4,0,0,0-2.78-3.09A8,8,0,0,0,172.77,85.15Z"/><path class="cls-4" d="M168.69,71.78c4.17,3.12,8.34-.5,9.23-2.57s-7-7.52-8.54-6.38S165.05,69.06,168.69,71.78Z"/><path class="cls-5" d="M174,61.11c-2.88,0-4.6,1.12-5.12,3.47a4.22,4.22,0,0,0,3.22,5.18c2.13.57,4.81-.14,5.58-2.59a4.78,4.78,0,0,0-.55-4.34A4.07,4.07,0,0,0,174,61.11Z"/><path class="cls-6" d="M171.64,66.59a9.53,9.53,0,0,0,2,1,3,3,0,0,0,1,.26c.19,0,.57-.07.72.07s-.21.52-.39.62a3.75,3.75,0,0,1-2.43.25A3.21,3.21,0,0,1,170,66.51c-.15-.52-.39-1.64,0-2.1s.41.38.48.57a4.17,4.17,0,0,0,.74,1.25A2.86,2.86,0,0,0,171.64,66.59Z"/><path class="cls-7" d="M170.67,62.4a6.08,6.08,0,0,0,1.09,2.83,4.83,4.83,0,0,0,1.3,1.12,6.45,6.45,0,0,0,2.4.89,3.49,3.49,0,0,0,2.1-.19c.54-.43.56-1.58.48-2.19a3.58,3.58,0,0,0-1-2.06,5,5,0,0,0-.84-.68c-1.37-.91-3.28-1.74-4.84-.78-.34.22-.66.42-.69.84A.81.81,0,0,0,170.67,62.4Z"/><path class="cls-3" d="M173.8,62.13c-.78-.18-1.28,0-1.35.89a3.7,3.7,0,0,0,.37,2.22,2.24,2.24,0,0,0,2.18.52c.82-.17,1.52-.36,1.43-1.3a2.69,2.69,0,0,0-1.88-2.08A5,5,0,0,0,173.8,62.13Z"/><path class="cls-4" d="M174.19,50.24c3.54,2.65,7.09-.42,7.84-2.18s-6-6.39-7.26-5.42S171.09,47.93,174.19,50.24Z"/><path class="cls-5" d="M179.94,41.37a3.78,3.78,0,0,0-4.24,3.55c-.2,1.8.66,3.75,2.72,4h0c1.87.23,3.18-1.37,3.59-3a3.69,3.69,0,0,0-2-4.58l0,0Z"/><path class="cls-6" d="M177.62,45.84a7.27,7.27,0,0,0,1.47.75,2.26,2.26,0,0,0,.72.19c.14,0,.43-.05.54,0s-.16.39-.29.47a2.84,2.84,0,0,1-1.82.19,2.42,2.42,0,0,1-1.85-1.71c-.11-.39-.29-1.23,0-1.58s.31.29.36.43a3.41,3.41,0,0,0,.55.94A2.73,2.73,0,0,0,177.62,45.84Z"/><path class="cls-7" d="M176.89,42.7a4.6,4.6,0,0,0,.82,2.11,3.74,3.74,0,0,0,1,.85,4.88,4.88,0,0,0,1.81.66,2.54,2.54,0,0,0,1.57-.14c.4-.32.43-1.18.37-1.64a2.78,2.78,0,0,0-.76-1.55,4.31,4.31,0,0,0-.62-.51c-1-.68-2.47-1.3-3.64-.58-.25.16-.49.31-.52.63Z"/><path class="cls-3" d="M179.24,42.49c-.58-.13-1,0-1,.67a2.8,2.8,0,0,0,.28,1.66,1.64,1.64,0,0,0,1.63.39c.62-.13,1.14-.27,1.08-1a2,2,0,0,0-1.41-1.56A5.36,5.36,0,0,0,179.24,42.49Z"/><path class="cls-4" d="M181.51,31.88c2.66,2,5.32-.31,5.88-1.63s-4.49-4.8-5.44-4.07S179.19,30.15,181.51,31.88Z"/><path class="cls-5" d="M182.34,27.19l-.07.14.09.13a3.41,3.41,0,0,1,.46,1.1c.17.63.35,1.27,1.35,1.44a1.78,1.78,0,0,0,2.27-1.28c.33-1.21-.25-3.06-1.41-3.5C184.48,25,183.41,25,182.34,27.19Z"/><path class="cls-7" d="M183,26a3.12,3.12,0,0,0,.56,1.43,2.33,2.33,0,0,0,.65.56,3.16,3.16,0,0,0,1.22.45,1.74,1.74,0,0,0,1.06-.09,1.4,1.4,0,0,0,.25-1.11,1.8,1.8,0,0,0-.51-1,2.79,2.79,0,0,0-.42-.35,2.34,2.34,0,0,0-2.45-.39c-.18.11-.34.21-.36.42Z"/><path class="cls-3" d="M184.57,25.87c-.39-.09-.65,0-.68.45a1.87,1.87,0,0,0,.18,1.12,1.12,1.12,0,0,0,1.11.26c.41-.08.77-.18.72-.65A1.35,1.35,0,0,0,185,26,2.74,2.74,0,0,0,184.57,25.87Z"/><path class="cls-4" d="M133.19,167.26c-7.41,5.54-14.53-2.41-16.11-6.08s12.23-11.86,14.89-9.83S139.66,162.42,133.19,167.26Z"/><path class="cls-5" d="M128.87,148.69h0l.05,0c2.5,1.83,3.9,5.27,4.17,10.2V159a7.71,7.71,0,0,1-8.15,5.85,9.09,9.09,0,0,1-8.65-7.38v0a8.65,8.65,0,0,1,3.23-7A10.85,10.85,0,0,1,128.87,148.69Z"/><path class="cls-6" d="M128.37,159a18.84,18.84,0,0,1-3.87,2,6,6,0,0,1-1.9.51c-.36,0-1.13-.15-1.42.13s.43,1,.77,1.23a7.39,7.39,0,0,0,4.8.49,6.32,6.32,0,0,0,4.87-4.5c.28-1,.75-3.23,0-4.15s-.83.76-1,1.13a8.35,8.35,0,0,1-1.46,2.47A5.09,5.09,0,0,1,128.37,159Z"/><path class="cls-7" d="M130.29,150.72a11.86,11.86,0,0,1-2.16,5.58,9,9,0,0,1-2.55,2.22,12.69,12.69,0,0,1-4.75,1.75c-1,.15-3.25.35-4.14-.36-1.07-.85-1.13-3.13-1-4.34a7.19,7.19,0,0,1,2-4.06,9.8,9.8,0,0,1,1.66-1.35c2.7-1.8,6.49-3.43,9.56-1.52.68.42,1.32.81,1.38,1.64A3.27,3.27,0,0,1,130.29,150.72Z"/><path class="cls-3" d="M124.11,150.19c1.53-.36,2.52.08,2.66,1.75.11,1.26,0,3.31-.73,4.38-.92,1.26-2.92,1.31-4.3,1-1.62-.34-3-.71-2.84-2.56.2-2,1.9-3.35,3.72-4.11A10,10,0,0,1,124.11,150.19Z"/><path class="cls-4" d="M104,147.44c-5.56,4.16-10.9-1.8-12.09-4.56s9.18-8.9,11.17-7.38S108.89,143.81,104,147.44Z"/><path class="cls-5" d="M100.19,134.07h0a5.29,5.29,0,0,1,2.61,3.3,7.29,7.29,0,0,1,0,5.35c-1,1.78-4.12,3.37-5.92,3.37a5.32,5.32,0,0,1-4.19-2.18,8.45,8.45,0,0,1-1.39-7.17v-.08l.06,0C93.58,134.5,97.3,132.81,100.19,134.07Z"/><path class="cls-6" d="M99.43,141.24a14.45,14.45,0,0,1-2.9,1.49,4.73,4.73,0,0,1-1.43.38c-.27,0-.84-.11-1.06.1s.32.77.57.92a5.57,5.57,0,0,0,3.6.37,4.76,4.76,0,0,0,3.66-3.38c.21-.76.56-2.42,0-3.11s-.62.57-.72.85a6.18,6.18,0,0,1-1.09,1.85A3.94,3.94,0,0,1,99.43,141.24Z"/><path class="cls-7" d="M100.87,135a9,9,0,0,1-1.62,4.18,6.64,6.64,0,0,1-1.92,1.66,9.47,9.47,0,0,1-3.56,1.32c-.78.1-2.43.26-3.1-.27s-.84-2.35-.73-3.26a5.4,5.4,0,0,1,1.49-3,8,8,0,0,1,1.24-1c2-1.35,4.87-2.57,7.17-1.14.51.32,1,.61,1,1.23A1.93,1.93,0,0,1,100.87,135Z"/><path class="cls-3" d="M96.24,134.64c1.14-.27,1.88.05,2,1.3a5.54,5.54,0,0,1-.55,3.29c-.69,1-2.19,1-3.22.77-1.22-.25-2.26-.53-2.13-1.91A4,4,0,0,1,95.11,135,8,8,0,0,1,96.24,134.64Z"/><path class="cls-4" d="M79.61,138.28c-4.16,3.11-8.34-.5-9.23-2.57s7.05-7.52,8.54-6.38S83.25,135.55,79.61,138.28Z"/><path class="cls-5" d="M73.44,127.8c2.25-.25,4.66.79,5,3.65h0a4.17,4.17,0,0,1-1,3.29,6.54,6.54,0,0,1-5,1.91H72.3l-.08-.09a15.42,15.42,0,0,0-1.3-1.17c-1-.84-1.92-1.62-2.07-3C68.58,129.76,71,128.06,73.44,127.8Z"/><path class="cls-6" d="M74.83,133.13a9.53,9.53,0,0,1-2,1,3.26,3.26,0,0,1-1,.26c-.18,0-.57-.08-.72.07s.21.51.39.62a3.82,3.82,0,0,0,2.43.25,3.21,3.21,0,0,0,2.46-2.28c.15-.52.39-1.64,0-2.1s-.41.38-.48.57a4.17,4.17,0,0,1-.74,1.25A2.86,2.86,0,0,1,74.83,133.13Z"/><path class="cls-7" d="M75.8,128.94a6,6,0,0,1-1.09,2.82,4.59,4.59,0,0,1-1.29,1.12,6.39,6.39,0,0,1-2.41.89,3.42,3.42,0,0,1-2.1-.18c-.53-.43-.56-1.58-.48-2.2a3.62,3.62,0,0,1,1-2,5.06,5.06,0,0,1,.84-.69c1.37-.91,3.28-1.73,4.84-.77.34.21.66.42.7.83A1.77,1.77,0,0,1,75.8,128.94Z"/><path class="cls-3" d="M72.68,128.67c.77-.18,1.27,0,1.34.88a3.68,3.68,0,0,1-.37,2.22,2.19,2.19,0,0,1-2.18.52c-.82-.17-1.52-.36-1.43-1.29a2.67,2.67,0,0,1,1.88-2.08A4.81,4.81,0,0,1,72.68,128.67Z"/><path class="cls-4" d="M59.85,131.22c-3.54,2.65-7.09-.42-7.85-2.18s6-6.39,7.26-5.42S62.94,128.91,59.85,131.22Z"/><path class="cls-5" d="M56.38,123.1a3.38,3.38,0,0,1,2.21,3.36h0a2.81,2.81,0,0,1-1.71,2.45,4.36,4.36,0,0,1-4.31-.32,4.05,4.05,0,0,1-1.41-4.06v-.09l0-.06A4.65,4.65,0,0,1,56.38,123.1Z"/><path class="cls-6" d="M55.92,126.55a7.27,7.27,0,0,1-1.47.75,2.26,2.26,0,0,1-.72.19c-.14,0-.43-.06-.54.05s.16.39.29.46a2.8,2.8,0,0,0,1.83.19,2.42,2.42,0,0,0,1.85-1.71c.1-.38.28-1.22,0-1.57s-.32.29-.37.43a3.09,3.09,0,0,1-.55.94A2.86,2.86,0,0,1,55.92,126.55Z"/><path class="cls-7" d="M56.65,123.4a4.43,4.43,0,0,1-.82,2.12,3.25,3.25,0,0,1-1,.84,4.68,4.68,0,0,1-1.8.67,2.65,2.65,0,0,1-1.58-.14c-.4-.32-.42-1.19-.36-1.65a2.67,2.67,0,0,1,.75-1.54,3.9,3.9,0,0,1,.63-.51c1-.68,2.46-1.3,3.63-.58.26.16.5.31.52.62A1,1,0,0,1,56.65,123.4Z"/><path class="cls-3" d="M54.3,123.2c.59-.13,1,0,1,.66a2.82,2.82,0,0,1-.27,1.67,1.65,1.65,0,0,1-1.64.39c-.61-.13-1.14-.27-1.07-1a2,2,0,0,1,1.41-1.56A2.77,2.77,0,0,1,54.3,123.2Z"/><path class="cls-4" d="M39.71,126c-2.66,2-5.32-.32-5.88-1.63s4.49-4.8,5.44-4.07S42,124.3,39.71,126Z"/><path class="cls-5" d="M36.38,120.41a2.54,2.54,0,0,1,1.43,2.52V123l-.06.07a2.67,2.67,0,0,1-3,1,2.78,2.78,0,0,1-1.85-2.77v-.12l.09-.08A3.17,3.17,0,0,1,36.38,120.41Z"/><path class="cls-7" d="M36.59,120.59A3.1,3.1,0,0,1,36,122a2.4,2.4,0,0,1-.66.57,3.1,3.1,0,0,1-1.21.44c-.27,0-.84.1-1.07-.09s-.28-.8-.24-1.11a1.85,1.85,0,0,1,.5-1,2.86,2.86,0,0,1,.43-.35,2.33,2.33,0,0,1,2.45-.39c.17.11.34.21.35.42Z"/><path class="cls-3" d="M35,120.45c.39-.09.64,0,.68.45A1.87,1.87,0,0,1,35.5,122a1.1,1.1,0,0,1-1.1.27c-.42-.09-.77-.19-.73-.66a1.37,1.37,0,0,1,.95-1A2.94,2.94,0,0,1,35,120.45Z"/><path class="cls-4" d="M151.25,240.64a8.75,8.75,0,0,1-9.4.88,14.19,14.19,0,0,1-3.65-2.69c-1.22-1.22-1.53-2.87-1.91-4.49-.24-1-.66-2.06,0-2.93a9.48,9.48,0,0,1,1.68-1.67,26.84,26.84,0,0,1,4.44-3,17.67,17.67,0,0,1,4.84-2.22c.71-.14,1.38-.16,2.09-.31a1.44,1.44,0,0,1,1.56.62,15.74,15.74,0,0,1,2.39,4.46,13.65,13.65,0,0,1,1.1,3.86A8,8,0,0,1,151.25,240.64Z"/><path class="cls-5" d="M148.75,223.59h0a7.44,7.44,0,0,1,3.83,6.83,8.48,8.48,0,0,1-4.25,7.56,7.5,7.5,0,0,1-3,.63,15.19,15.19,0,0,0-2.76.4l-.08,0-.07,0a9,9,0,0,1-6.61-9.14c.07-1.49,1.06-4.54,1.9-5.4C140.49,221.6,146.46,222.38,148.75,223.59Z"/><path class="cls-6" d="M147.38,233a18.84,18.84,0,0,1-3.87,2,6,6,0,0,1-1.89.51c-.37,0-1.14-.15-1.43.13s.43,1,.77,1.23a7.46,7.46,0,0,0,4.8.49,6.32,6.32,0,0,0,4.87-4.5c.28-1,.75-3.23,0-4.15s-.82.76-1,1.13a8.5,8.5,0,0,1-1.45,2.48A6.28,6.28,0,0,1,147.38,233Z"/><path class="cls-7" d="M149.31,224.73a11.87,11.87,0,0,1-2.17,5.58,9,9,0,0,1-2.55,2.22,12.69,12.69,0,0,1-4.75,1.75c-1.81.25-3.6.52-4.37-1.41a7.62,7.62,0,0,1-.1-5c.84-2.23,1.95-4.6,4.54-5.12s5.44-1.71,8-.12c.68.43,1.32.82,1.38,1.65A3.23,3.23,0,0,1,149.31,224.73Z"/><path class="cls-3" d="M143.13,224.2c1.53-.36,2.51.08,2.66,1.74.11,1.27,0,3.32-.74,4.39-.92,1.26-2.92,1.31-4.3,1-1.62-.34-3-.71-2.83-2.56.19-2,1.89-3.35,3.71-4.11A10.15,10.15,0,0,1,143.13,224.2Z"/><path class="cls-4" d="M131.19,265.69c-5.56,4.16-10.9-1.8-12.09-4.55s9.17-8.9,11.17-7.38S136,262.07,131.19,265.69Z"/><path class="cls-5" d="M127.72,252c2.54,1,3.95,3.67,3.87,7.27v.07a5.84,5.84,0,0,1-4,3.7,8,8,0,0,1-7.15-.78l-.05,0,0-.06c-1.67-3.29-1.51-6.4.44-8.52A6.35,6.35,0,0,1,127.72,252Z"/><path class="cls-6" d="M127.51,258.88a14.53,14.53,0,0,1-2.91,1.49,4.67,4.67,0,0,1-1.42.38c-.27,0-.85-.11-1.07.1s.32.77.58.92a5.56,5.56,0,0,0,3.6.37,4.75,4.75,0,0,0,3.65-3.37c.21-.77.57-2.43,0-3.12s-.61.57-.72.85a6.15,6.15,0,0,1-1.08,1.85A4.46,4.46,0,0,1,127.51,258.88Z"/><path class="cls-7" d="M125.41,258.52c-1.66,1-7.19,2.68-7-.76.32-4.41,4.66-8.19,9.23-6.81,2.51.75.66,4.62-.37,5.91A6.47,6.47,0,0,1,125.41,258.52Z"/><path class="cls-3" d="M124.31,252.28c1.15-.27,1.89.05,2,1.3a5.62,5.62,0,0,1-.55,3.29c-.69.95-2.19,1-3.23.78-1.21-.26-2.26-.54-2.13-1.92a4,4,0,0,1,2.79-3.08A6.64,6.64,0,0,1,124.31,252.28Z"/><path class="cls-4" d="M112.52,282.24c-4.17,3.11-8.34-.5-9.23-2.57s7-7.52,8.54-6.38S116.16,279.51,112.52,282.24Z"/><path class="cls-5" d="M109.46,271.31h0a4.61,4.61,0,0,1,2.33,5.61A4.92,4.92,0,0,1,106,280.3h-.06l0,0a5.17,5.17,0,0,1-2.1-7A4.3,4.3,0,0,1,109.46,271.31Z"/><path class="cls-6" d="M108.83,276.73a9.53,9.53,0,0,1-2,1,3.1,3.1,0,0,1-1,.26c-.18,0-.57-.08-.72.07s.22.52.39.62a3.82,3.82,0,0,0,2.43.25,3.21,3.21,0,0,0,2.47-2.28c.14-.52.38-1.64,0-2.1s-.42.38-.49.57a4.36,4.36,0,0,1-.73,1.25A2.94,2.94,0,0,1,108.83,276.73Z"/><path class="cls-7" d="M109.81,272.54a6,6,0,0,1-1.1,2.82,4.33,4.33,0,0,1-1.29,1.12,6.18,6.18,0,0,1-2.4.89,3.4,3.4,0,0,1-2.1-.18c-.54-.43-.57-1.58-.49-2.2a3.62,3.62,0,0,1,1-2.05,5.5,5.5,0,0,1,.84-.69c1.37-.91,3.29-1.73,4.84-.77.35.22.67.42.7.83Z"/><path class="cls-3" d="M106.68,272.27c.77-.18,1.27,0,1.34.88a3.68,3.68,0,0,1-.37,2.22,2.17,2.17,0,0,1-2.17.52c-.83-.17-1.53-.36-1.44-1.29a2.7,2.7,0,0,1,1.88-2.08A5.19,5.19,0,0,1,106.68,272.27Z"/><path class="cls-4" d="M97.82,294.58c-3.54,2.65-7.09-.43-7.85-2.18s6-6.4,7.27-5.43S100.91,292.27,97.82,294.58Z"/><path class="cls-5" d="M94.92,285.78a2.61,2.61,0,0,1,2.34,1.68h0a4.06,4.06,0,0,1-1.21,4.67,3.8,3.8,0,0,1-4.73,0l0,0,0-.05a3.83,3.83,0,0,1-.25-4.17A4.46,4.46,0,0,1,94.92,285.78Z"/><path class="cls-6" d="M94.81,289.79a7.27,7.27,0,0,1-1.47.75,2.27,2.27,0,0,1-.72.2c-.14,0-.43-.06-.54.05s.16.39.29.46a2.8,2.8,0,0,0,1.83.19A2.38,2.38,0,0,0,96,289.73c.11-.39.29-1.23,0-1.57s-.31.28-.37.42a3.06,3.06,0,0,1-.55.94A1.63,1.63,0,0,1,94.81,289.79Z"/><path class="cls-7" d="M95.54,286.65a4.47,4.47,0,0,1-.82,2.12,3.57,3.57,0,0,1-1,.84,4.66,4.66,0,0,1-1.8.66,2.53,2.53,0,0,1-1.57-.13C90,289.81,90,289,90,288.49a2.7,2.7,0,0,1,.75-1.54,3.06,3.06,0,0,1,.63-.51c1-.69,2.46-1.31,3.63-.58.26.16.5.31.52.62A.49.49,0,0,1,95.54,286.65Z"/><path class="cls-3" d="M93.14,286.5c.58-.13,1,0,1,.67a2.8,2.8,0,0,1-.28,1.66,1.64,1.64,0,0,1-1.63.39c-.62-.13-1.15-.27-1.08-1a2,2,0,0,1,1.41-1.56A5.36,5.36,0,0,1,93.14,286.5Z"/><path class="cls-4" d="M83.87,306.44c-2.66,2-5.32-.32-5.88-1.64s4.49-4.79,5.44-4.07S86.19,304.7,83.87,306.44Z"/><path class="cls-5" d="M82,300.52a2.32,2.32,0,0,1,.44,2.64,2.73,2.73,0,0,1-2.92,1.61h-.1l-.07-.07c-1-1.07-.82-2.59-.53-3.8l0-.11.1-.06C80.61,299.71,81.56,300.16,82,300.52Z"/><path class="cls-7" d="M81.85,300.63a3.07,3.07,0,0,1-.56,1.43,2.36,2.36,0,0,1-.65.57,3.33,3.33,0,0,1-1.22.45,1.74,1.74,0,0,1-1.06-.09,1.42,1.42,0,0,1-.25-1.12,1.93,1.93,0,0,1,.51-1,2.38,2.38,0,0,1,.43-.34,2.33,2.33,0,0,1,2.45-.39c.17.1.34.21.35.42Z"/><path class="cls-3" d="M80.27,300.5c.39-.1.64,0,.68.44a1.91,1.91,0,0,1-.19,1.13,1.13,1.13,0,0,1-1.1.26c-.42-.09-.77-.18-.73-.65a1.38,1.38,0,0,1,.95-1.06A1.82,1.82,0,0,1,80.27,300.5Z"/><path class="cls-4" d="M246.68,169.37c-7.41,5.54-14.53-2.4-16.11-6.08s12.23-11.86,14.89-9.83S253.15,164.53,246.68,169.37Z"/><path class="cls-5" d="M238.21,151.32h0c3.8,0,6.87,2,7.81,5,1.46,4.76-1.12,9.54-4.34,10.85-3.43,1.39-8.58-.79-10.38-2.94a7.52,7.52,0,0,1-1.22-8.15A8.74,8.74,0,0,1,238.21,151.32Z"/><path class="cls-6" d="M241.39,161.8a19,19,0,0,1-3.86,2,5.78,5.78,0,0,1-1.9.52c-.36,0-1.13-.16-1.42.13s.42,1,.76,1.22a7.4,7.4,0,0,0,4.8.5,6.33,6.33,0,0,0,4.87-4.5c.28-1,.76-3.24,0-4.15s-.82.76-1,1.13a8.45,8.45,0,0,1-1.45,2.47A5.73,5.73,0,0,1,241.39,161.8Z"/><path class="cls-7" d="M243.32,153.52a12,12,0,0,1-2.17,5.58,8.85,8.85,0,0,1-2.55,2.21,12.54,12.54,0,0,1-4.75,1.76c-1,.14-3.25.35-4.14-.36-1.06-.85-1.12-3.13-1-4.34a7,7,0,0,1,2-4.06,10.14,10.14,0,0,1,1.65-1.35c2.71-1.8,6.49-3.43,9.57-1.53.68.42,1.31.82,1.37,1.64A3.38,3.38,0,0,1,243.32,153.52Z"/><path class="cls-3" d="M237.14,153c1.53-.36,2.51.07,2.66,1.74.11,1.26,0,3.32-.74,4.39-.92,1.25-2.92,1.31-4.29,1-1.63-.34-3-.71-2.84-2.56.19-2,1.89-3.35,3.71-4.11A10.15,10.15,0,0,1,237.14,153Z"/><path class="cls-4" d="M270.36,152.06c-5.55,4.15-10.9-1.81-12.08-4.56s9.17-8.9,11.17-7.38S275.21,148.43,270.36,152.06Z"/><path class="cls-5" d="M265,138.57h0c2.58.3,4.65,2,5.09,3.44a7,7,0,0,1-3.86,8.3,5.7,5.7,0,0,1-6.46-1.68,6.92,6.92,0,0,1-1.06-7.45C259.36,140,261,138.11,265,138.57Z"/><path class="cls-6" d="M266.61,146a14,14,0,0,1-2.91,1.48,4.41,4.41,0,0,1-1.42.39c-.27,0-.85-.12-1.07.1s.32.76.58.91a5.56,5.56,0,0,0,3.6.38,4.75,4.75,0,0,0,3.65-3.38c.21-.77.57-2.43,0-3.11s-.62.57-.72.85a6.54,6.54,0,0,1-1.09,1.85A4.46,4.46,0,0,1,266.61,146Z"/><path class="cls-7" d="M268.05,139.82a9,9,0,0,1-1.62,4.19,7,7,0,0,1-1.92,1.66A9.52,9.52,0,0,1,261,147c-.79.11-2.44.27-3.11-.27s-.84-2.34-.72-3.25a5.37,5.37,0,0,1,1.49-3.05,7.11,7.11,0,0,1,1.24-1c2-1.35,4.86-2.57,7.17-1.14.51.31,1,.61,1,1.23A1.82,1.82,0,0,1,268.05,139.82Z"/><path class="cls-3" d="M263.41,139.42c1.15-.27,1.89.06,2,1.31a5.54,5.54,0,0,1-.55,3.29c-.69.94-2.19,1-3.23.77-1.21-.25-2.26-.53-2.12-1.92a4,4,0,0,1,2.78-3.08A9.14,9.14,0,0,1,263.41,139.42Z"/><path class="cls-4" d="M292.32,137.62c-4.17,3.12-8.34-.49-9.23-2.56s7.05-7.53,8.54-6.38S296,134.9,292.32,137.62Z"/><path class="cls-5" d="M290.05,128.46c1.23,1.91.7,5.22-1.11,7-1.42,1.37-3.29,1.41-5.13.12h0a4.41,4.41,0,0,1-1.74-3.58,5.33,5.33,0,0,1,1.86-4.35l0,0h0C287.8,126.06,289.42,127.48,290.05,128.46Z"/><path class="cls-6" d="M287.81,132.44a9.06,9.06,0,0,1-2,1,2.93,2.93,0,0,1-1,.27c-.18,0-.57-.08-.72.06s.22.52.39.62a3.76,3.76,0,0,0,2.43.25,3.21,3.21,0,0,0,2.47-2.28c.14-.52.38-1.64,0-2.1s-.41.39-.48.57a4.35,4.35,0,0,1-.74,1.26A3.58,3.58,0,0,1,287.81,132.44Z"/><path class="cls-7" d="M288.78,128.25a6,6,0,0,1-1.09,2.83,4.76,4.76,0,0,1-1.29,1.12,6.57,6.57,0,0,1-2.41.89,3.45,3.45,0,0,1-2.09-.19c-.54-.43-.57-1.58-.49-2.19a3.65,3.65,0,0,1,1-2.06,5,5,0,0,1,.84-.68c1.37-.91,3.28-1.74,4.84-.77.34.21.67.41.7.83A1.62,1.62,0,0,1,288.78,128.25Z"/><path class="cls-3" d="M285.66,128c.77-.18,1.27,0,1.34.89a3.69,3.69,0,0,1-.37,2.22,2.22,2.22,0,0,1-2.17.52c-.83-.17-1.53-.36-1.44-1.3a2.72,2.72,0,0,1,1.88-2.08A6.77,6.77,0,0,1,285.66,128Z"/><path class="cls-4" d="M311.28,127.1c-3.55,2.65-7.1-.42-7.85-2.18s6-6.39,7.26-5.42S314.37,124.79,311.28,127.1Z"/><path class="cls-5" d="M307.81,118.76a2.79,2.79,0,0,1,2.17,1.89h0a3.64,3.64,0,0,1-1.68,4.28,4,4,0,0,1-5-.71l0,0,0-.06a3.93,3.93,0,0,1,.64-4A4.25,4.25,0,0,1,307.81,118.76Z"/><path class="cls-6" d="M307.8,122.43a7.27,7.27,0,0,1-1.47.75,2.26,2.26,0,0,1-.72.19c-.14,0-.43-.06-.54,0s.16.39.29.47a2.87,2.87,0,0,0,1.83.18,2.39,2.39,0,0,0,1.84-1.71c.11-.38.29-1.22,0-1.57s-.32.29-.37.43a3.31,3.31,0,0,1-.55.94A2.86,2.86,0,0,1,307.8,122.43Z"/><path class="cls-7" d="M308.53,119.28a4.43,4.43,0,0,1-.82,2.12,3.25,3.25,0,0,1-1,.84,4.85,4.85,0,0,1-1.8.67,2.61,2.61,0,0,1-1.57-.14c-.41-.32-.43-1.19-.37-1.65a2.67,2.67,0,0,1,.75-1.54,3.9,3.9,0,0,1,.63-.51c1-.68,2.46-1.3,3.63-.58.26.16.5.31.52.62A.48.48,0,0,1,308.53,119.28Z"/><path class="cls-3" d="M306.18,119.08c.59-.14,1,0,1,.66a2.9,2.9,0,0,1-.28,1.67,1.65,1.65,0,0,1-1.64.39c-.61-.13-1.14-.27-1.07-1a2,2,0,0,1,1.41-1.56A3,3,0,0,1,306.18,119.08Z"/><path class="cls-4" d="M330,117c-2.66,2-5.32-.32-5.88-1.64s4.49-4.8,5.44-4.07S332.28,115.3,330,117Z"/><path class="cls-5" d="M328.51,112.14c.23.4.6,1.48-1,2.8l-.08.06-.72,0a3.91,3.91,0,0,1-2.38-.51l-.08-.06,0-.1c-.45-2.2.72-2.91,1.25-3.11A2.6,2.6,0,0,1,328.51,112.14Z"/><path class="cls-7" d="M327.81,111.65a3,3,0,0,1-.56,1.43,2.36,2.36,0,0,1-.65.57,3.31,3.31,0,0,1-1.22.44,1.74,1.74,0,0,1-1.06-.09,1.4,1.4,0,0,1-.25-1.11,1.86,1.86,0,0,1,.51-1,2.44,2.44,0,0,1,.43-.35,2.33,2.33,0,0,1,2.45-.39c.17.11.33.21.35.42Z"/><path class="cls-3" d="M326.22,111.51c.4-.09.65,0,.69.45a2,2,0,0,1-.19,1.12,1.13,1.13,0,0,1-1.1.27c-.42-.09-.77-.19-.73-.66a1.35,1.35,0,0,1,.95-1A2.74,2.74,0,0,1,326.22,111.51Z"/><path class="cls-4" d="M230.52,240.93c-7.41,5.55-14.53-2.4-16.11-6.07S226.64,223,229.3,225,237,236.1,230.52,240.93Z"/><path class="cls-5" d="M226.45,223.37a9.31,9.31,0,0,1,4.64,10.7l0,.09-.07.06a7.78,7.78,0,0,0-1.47,1.77,6.44,6.44,0,0,1-2.74,2.68c-4.17,1.67-10.37-.58-11.58-3.41-1.43-3.35.09-8.2,1.81-10.21A7.39,7.39,0,0,1,226.45,223.37Z"/><path class="cls-6" d="M226.38,233.34a18.84,18.84,0,0,1-3.87,2,6,6,0,0,1-1.9.51c-.36,0-1.13-.15-1.42.14s.42,1,.77,1.22a7.3,7.3,0,0,0,4.79.49,6.33,6.33,0,0,0,4.88-4.5c.28-1,.75-3.23,0-4.15s-.82.76-.95,1.14a8.85,8.85,0,0,1-1.46,2.47A5,5,0,0,1,226.38,233.34Z"/><path class="cls-7" d="M228.3,225.07a12,12,0,0,1-2.16,5.58,9,9,0,0,1-2.56,2.21,12.41,12.41,0,0,1-4.74,1.75c-1.05.15-3.25.36-4.15-.36-1.32-1.06-.87-3.21-.52-4.61a10.16,10.16,0,0,1,1.45-3.11c2.15-3.42,7.52-5.9,11.31-3.55.68.42,1.31.82,1.37,1.64A3.38,3.38,0,0,1,228.3,225.07Z"/><path class="cls-3" d="M222.12,224.53c1.53-.35,2.51.08,2.66,1.75.11,1.26.05,3.31-.73,4.38-.92,1.26-2.92,1.32-4.3,1-1.62-.33-3-.71-2.84-2.55.19-2,1.89-3.36,3.71-4.11A10.42,10.42,0,0,1,222.12,224.53Z"/><path class="cls-4" d="M243.05,263.17c-5.55,4.16-10.89-1.8-12.08-4.56s9.17-8.89,11.17-7.37S247.91,259.54,243.05,263.17Z"/><path class="cls-5" d="M238.07,248.86c3.06.29,4.53,3.06,4.86,5.35s-.38,5.31-2.8,6.28a6.19,6.19,0,0,1-7.2-1.36,6.88,6.88,0,0,1-1.32-7.42C232.22,250.47,233.87,248.46,238.07,248.86Z"/><path class="cls-6" d="M239.35,256.29a15,15,0,0,1-2.91,1.48,4.59,4.59,0,0,1-1.42.38c-.27,0-.85-.11-1.06.1s.31.77.57.92a5.56,5.56,0,0,0,3.6.37,4.75,4.75,0,0,0,3.65-3.37c.21-.77.57-2.43,0-3.12s-.62.57-.72.85a6.59,6.59,0,0,1-1.09,1.86A6.45,6.45,0,0,1,239.35,256.29Z"/><path class="cls-7" d="M240.79,250.08a9,9,0,0,1-1.62,4.18,6.64,6.64,0,0,1-1.92,1.66,9.47,9.47,0,0,1-3.56,1.32c-.79.11-2.44.26-3.11-.27s-.84-2.35-.72-3.26a5.35,5.35,0,0,1,1.49-3,7.16,7.16,0,0,1,1.24-1c2-1.34,4.86-2.57,7.17-1.14.51.32,1,.61,1,1.23A1.93,1.93,0,0,1,240.79,250.08Z"/><path class="cls-3" d="M236.15,249.68c1.15-.27,1.89,0,2,1.31a5.52,5.52,0,0,1-.55,3.28c-.69.95-2.19,1-3.23.78-1.21-.26-2.25-.54-2.12-1.92a4,4,0,0,1,2.78-3.08A7,7,0,0,1,236.15,249.68Z"/><path class="cls-4" d="M257,281.32c-4.17,3.12-8.34-.5-9.23-2.57s7-7.52,8.54-6.38S260.64,278.6,257,281.32Z"/><path class="cls-5" d="M252.51,270.55h0a4.91,4.91,0,0,1,3.47,3.13,4.08,4.08,0,0,1-.47,4.15c-1.46,1.85-5.22,1.92-6.95.62a4.22,4.22,0,0,1-1.48-5.1A4.86,4.86,0,0,1,252.51,270.55Z"/><path class="cls-6" d="M253.05,275.85a9.53,9.53,0,0,1-2,1,3.26,3.26,0,0,1-1,.26c-.18,0-.57-.08-.72.07s.22.51.39.62a3.82,3.82,0,0,0,2.43.25,3.21,3.21,0,0,0,2.46-2.28c.15-.52.39-1.64,0-2.1s-.41.38-.48.57a4.17,4.17,0,0,1-.74,1.25A2.86,2.86,0,0,1,253.05,275.85Z"/><path class="cls-7" d="M254,271.66a6,6,0,0,1-1.09,2.82,4.59,4.59,0,0,1-1.29,1.12,6.39,6.39,0,0,1-2.41.89,3.42,3.42,0,0,1-2.1-.18c-.53-.43-.56-1.59-.48-2.2a3.62,3.62,0,0,1,1-2.05,5.06,5.06,0,0,1,.84-.69c1.37-.91,3.28-1.73,4.84-.77.34.21.67.42.7.83A1.77,1.77,0,0,1,254,271.66Z"/><path class="cls-3" d="M250.89,271.39c.78-.18,1.28,0,1.35.88a3.68,3.68,0,0,1-.37,2.22,2.19,2.19,0,0,1-2.18.52c-.82-.17-1.52-.36-1.43-1.29a2.67,2.67,0,0,1,1.88-2.08A5,5,0,0,1,250.89,271.39Z"/><path class="cls-4" d="M270.05,294c-3.54,2.65-7.09-.42-7.85-2.18s6-6.39,7.27-5.43S273.14,291.65,270.05,294Z"/><path class="cls-5" d="M266.34,285.47a3.54,3.54,0,0,1,2.53,2.89,3.06,3.06,0,0,1-.43,2.47,6.44,6.44,0,0,0-.52,1.11l-.06.16-.16,0c-2.94.48-4.78-.1-5.48-1.71a3.44,3.44,0,0,1,.38-3.8A3.77,3.77,0,0,1,266.34,285.47Z"/><path class="cls-6" d="M266.32,289.46a7.27,7.27,0,0,1-1.47.75,2.55,2.55,0,0,1-.72.19c-.14,0-.43-.06-.54.05s.16.39.29.47a2.87,2.87,0,0,0,1.83.18,2.42,2.42,0,0,0,1.85-1.71c.1-.38.28-1.22,0-1.57s-.31.29-.37.43a3.31,3.31,0,0,1-.55.94A2.86,2.86,0,0,1,266.32,289.46Z"/><path class="cls-7" d="M267.05,286.31a4.43,4.43,0,0,1-.82,2.12,3.25,3.25,0,0,1-1,.84,4.85,4.85,0,0,1-1.8.67,2.61,2.61,0,0,1-1.57-.14c-.41-.32-.43-1.19-.37-1.65a2.74,2.74,0,0,1,.75-1.54,4.39,4.39,0,0,1,.63-.51c1-.68,2.46-1.31,3.63-.58.26.16.5.31.52.62A.49.49,0,0,1,267.05,286.31Z"/><path class="cls-3" d="M264.71,286.11c.58-.14,1,0,1,.66a2.9,2.9,0,0,1-.28,1.67,1.66,1.66,0,0,1-1.63.39c-.62-.13-1.15-.27-1.08-1a2,2,0,0,1,1.41-1.56A2.9,2.9,0,0,1,264.71,286.11Z"/><path class="cls-4" d="M279.43,298.81a3.07,3.07,0,0,1,.9,3.44l-.05.14-.14,0a4.59,4.59,0,0,1-3.28-.3l-.41-.16,0-.15a6.91,6.91,0,0,1-.07-2.88l0-.1.09-.06A2.47,2.47,0,0,1,279.43,298.81Z"/><path class="cls-7" d="M279.41,298.82a3.06,3.06,0,0,1-.55,1.43,2.4,2.4,0,0,1-.66.57,3.28,3.28,0,0,1-1.21.45,1.77,1.77,0,0,1-1.07-.09c-.27-.22-.28-.81-.24-1.12a1.83,1.83,0,0,1,.51-1,3,3,0,0,1,2.87-.73c.17.1.34.21.35.42Z"/><path class="cls-3" d="M277.83,298.69c.39-.1.64,0,.68.44a1.91,1.91,0,0,1-.19,1.13,1.12,1.12,0,0,1-1.1.26c-.42-.09-.77-.18-.73-.66a1.39,1.39,0,0,1,.95-1.05A2,2,0,0,1,277.83,298.69Z"/><path class="cls-4" d="M192.09,192.69c-9.26,6.93-18.16-3-20.14-7.6s15.28-14.82,18.61-12.29S200.18,186.64,192.09,192.69Z"/><path class="cls-5" d="M186.68,170.66h.07l.06.05c3.12,2.29,4.87,6.59,5.21,12.76v.05l0,.06a9.62,9.62,0,0,1-10.18,7.3c-4.5-.22-9.8-3.21-10.82-9.21v-.06a10.84,10.84,0,0,1,4-8.72A13.6,13.6,0,0,1,186.68,170.66Z"/><path class="cls-6" d="M186,183.94a23.66,23.66,0,0,1-4.83,2.47,7.6,7.6,0,0,1-2.37.65c-.46,0-1.42-.2-1.78.16-.53.52.53,1.28,1,1.53a9.26,9.26,0,0,0,6,.62,8,8,0,0,0,6.1-5.63c.35-1.28.94-4,0-5.19s-1,.95-1.2,1.42a10.53,10.53,0,0,1-1.82,3.09A6.8,6.8,0,0,1,186,183.94Z"/><path class="cls-7" d="M185.71,180.57a15.83,15.83,0,0,1-6.93,4.77c-2,.67-6.3,1.53-7.47-.88a8.84,8.84,0,0,1,1.37-9.88,12.43,12.43,0,0,1,2.07-1.69,16.31,16.31,0,0,1,7.36-2.94c2-.19,4-.69,5.62.89C190,173.06,187.25,178.63,185.71,180.57Z"/><path class="cls-3" d="M180.69,172.93c1.92-.45,3.14.09,3.33,2.18.13,1.57.06,4.14-.92,5.48-1.15,1.57-3.65,1.64-5.37,1.29-2-.42-3.77-.89-3.55-3.2.24-2.55,2.37-4.19,4.64-5.14A14.71,14.71,0,0,1,180.69,172.93Z"/><path class="cls-8" d="M325.43,100.05c-21,1.68-46,8.23-72.41,17.19-7.43,2.52-37.66,11.62-48.56-5.09-8.81-13.52-14.72-30.18-4.35-60.66,6.17-18.16,12.35-49.77-2.91-49-8.94.43-25.55,9.45-37.17,31.24C152.81,47.22,147,61.3,136.29,105.37c-1.35,5.59-4.68,13.41-9.89,15.51C117.09,124.65,98,114,75.15,110.34c-33.15-5.26-49.29-1-54.13.72C8.67,115.42-.7,128.37,13,134c23.25,9.44,41.58,15.87,62.84,29.79,20,13.07,35.24,26.88,37.21,44.45,1.41,12.54-5.07,22.84-11,31.95l-1,1.55c-1.74,2.72-3.32,5.66-4.84,8.51A101.23,101.23,0,0,1,90,260.85c-3.92,5.58-8.09,11.12-12.51,17-5.86,7.79-11.92,15.83-17.62,24.31-3,4.46-6.26,10.2-4.78,15A7,7,0,0,0,59,321.64c6,2.74,16.89-1.26,22.83-3.88,7.17-3.17,12.2-5.95,17.54-8.9l5.33-2.93a25.67,25.67,0,0,0,3.83-2.68c.89-.7,1.81-1.43,2.78-2.05,6-3.83,11.33-7.66,17-11.7,3.21-2.29,6.52-4.65,10-7,2.95-2,5.74-4.2,8.43-6.29l4.46-3.41c5-3.71,11.13-8.59,18.86-14.91l.36-.29c1.94-1.6,4.36-3.58,6.44-4.15,4.57-1.25,10.37-.24,13.83,1.23,3.75,1.58,7.05,4.94,10.55,8.5l.51.52c3.51,3.58,7.16,7.56,9.95,10.62a126,126,0,0,0,21.59,18.87c2.21,1.49,4.59,2.77,6.89,4,1.9,1,3.87,2.09,5.69,3.24a139.29,139.29,0,0,0,12.56,7c1.73.86,3.38,1.73,5,2.58,6.76,3.56,13.15,6.93,22.81,8.27,5,.69,12.07,0,15.5-4.28l.07-.09v-.12s0-.09,0-.14c-.48-3.71-2.88-6.47-5.21-9.13-.65-.74-1.26-1.44-1.83-2.15-2.55-3.21-5.27-6.55-7.91-9.79-5.25-6.45-9-14.58-12.94-23.2a206,206,0,0,1-10.35-26.6c-.67-2.29-1.4-4.58-2.1-6.8-2.05-6.43-4.16-13.05-5.06-20.06-.15-1.13-.26-2.27-.34-3.42-.67-9.91,2.16-17.93,6.28-23.3,7.54-9.82,19.7-21.46,27.28-26.66,17.67-12.1,28.53-20.27,43.59-29.54,9.44-5.81,20.58-13.56,20.58-17.92C353.76,105,343.59,98.59,325.43,100.05Z"/></svg>