<svg id="Layer_1" data-name="Layer 1" xmlns="http://www.w3.org/2000/svg" viewBox="0 0 110 80"><defs><style>.cls-1{fill:#fcf9f7;stroke:#3a1e0f;}.cls-1,.cls-4{stroke-miterlimit:10;stroke-width:0.75px;}.cls-2{fill:#2d1c15;}.cls-3{fill:#f9f4f2;}.cls-4{fill:#f9dad2;stroke:#4c2606;}</style></defs><path class="cls-1" d="M101.27,58.78a18.48,18.48,0,0,1-17,15.06c-9.94.49-18.44-7.37-19.24-17.65,0-.19,0-.38,0-.57-.52-10.57,7.26-19.54,17.39-20s18.76,7.66,19.28,18.22A19.54,19.54,0,0,1,101.27,58.78Z"/><ellipse class="cls-2" cx="90.37" cy="54.02" rx="11.23" ry="11.72" transform="translate(-2.56 4.53) rotate(-2.83)"/><ellipse class="cls-3" cx="84.41" cy="48.44" rx="2.87" ry="3.21" transform="translate(-2.29 4.23) rotate(-2.83)"/><path class="cls-1" d="M34.91,55.2c-2.14,7-7.66,12-14.38,12.38-8.36.41-15.61-6.69-17-16.22-.1-.69-.16-1.39-.2-2.11C2.82,38.69,9.67,29.76,18.64,29.32s16.67,7.76,17.19,18.33A22,22,0,0,1,34.91,55.2Z"/><ellipse class="cls-2" cx="25.83" cy="47.8" rx="9.95" ry="11.72" transform="translate(-2.33 1.33) rotate(-2.83)"/><ellipse class="cls-3" cx="20.51" cy="42.19" rx="2.55" ry="3.21" transform="translate(-2.06 1.06) rotate(-2.83)"/><path class="cls-2" d="M84.13,15.41s14-2.55,22.55,10c0,0-.19-15.28-19.64-16.55C87,8.86,80.67,10.5,84.13,15.41Z"/><path class="cls-2" d="M26.84,12.68s-12-2.55-19.36,10c0,0,.15-15.27,16.86-16.55C24.34,6.13,29.81,7.77,26.84,12.68Z"/><path class="cls-4" d="M34.91,55.2c-.46.07-.93.13-1.4.18A59.71,59.71,0,0,1,18,54.93,84.79,84.79,0,0,1,3.55,51.36c-.1-.69-.16-1.39-.2-2.11C2.82,38.69,9.67,29.76,18.64,29.32s16.67,7.76,17.19,18.33A22,22,0,0,1,34.91,55.2Z"/><path class="cls-4" d="M101.27,58.78c-.23.08-.47.15-.71.21-6.14,1.72-13.4,1.52-20,.6A107.35,107.35,0,0,1,65,56.19c0-.19,0-.38,0-.57-.52-10.57,7.26-19.54,17.39-20s18.76,7.66,19.28,18.22A19.54,19.54,0,0,1,101.27,58.78Z"/></svg>