<svg id="Layer_1" data-name="Layer 1" xmlns="http://www.w3.org/2000/svg" viewBox="0 0 110 80"><defs><style>.cls-1{fill:#fcf9f7;stroke:#3a1e0f;stroke-miterlimit:10;stroke-width:0.75px;}.cls-2{fill:#2d1c15;}.cls-3{fill:#f9f4f2;}</style></defs><ellipse class="cls-1" cx="83.33" cy="55.71" rx="18.36" ry="19.15" transform="translate(-2.65 4.18) rotate(-2.83)"/><ellipse class="cls-2" cx="90.37" cy="55.02" rx="11.23" ry="11.72" transform="translate(-2.61 4.53) rotate(-2.83)"/><ellipse class="cls-3" cx="84.41" cy="49.44" rx="2.87" ry="3.21" transform="translate(-2.34 4.23) rotate(-2.83)"/><ellipse class="cls-1" cx="19.59" cy="49.45" rx="16.26" ry="19.15" transform="translate(-2.42 1.03) rotate(-2.83)"/><ellipse class="cls-2" cx="25.83" cy="48.8" rx="9.95" ry="11.72" transform="translate(-2.38 1.34) rotate(-2.83)"/><ellipse class="cls-3" cx="20.52" cy="43.19" rx="2.55" ry="3.21" transform="translate(-2.11 1.07) rotate(-2.83)"/><path class="cls-2" d="M84.13,14.41s14-2.55,22.55,10c0,0-.18-15.28-19.64-16.55C87,7.86,80.67,9.5,84.13,14.41Z"/><path class="cls-2" d="M26.84,11.68s-12-2.55-19.36,10c0,0,.15-15.27,16.87-16.55C24.35,5.13,29.81,6.77,26.84,11.68Z"/></svg>