<svg id="Layer_1" data-name="Layer 1" xmlns="http://www.w3.org/2000/svg" viewBox="0 0 270 256"><defs><style>.cls-1{opacity:0.3;}.cls-2{fill:#86c440;}.cls-3{fill:#b7d880;}.cls-4{fill:#6da843;}.cls-5{fill:#3b5527;}.cls-6{fill:#f4ecd7;}.cls-7{fill:#d9c8a2;}.cls-8{fill:#726c5b;}.cls-21,.cls-9{opacity:0.58;}.cls-10,.cls-21{fill:#32783b;}.cls-11{fill:#fff;}.cls-12{fill:#dbdada;}.cls-13{fill:#4787c7;}.cls-14{fill:#3161ac;}.cls-15{fill:#253a7d;}.cls-16{fill:#5c8c3e;}.cls-17{fill:#2d5c2d;}.cls-18{fill:#f2ac2e;}.cls-19{fill:#ffd666;}.cls-20{fill:#806126;}.cls-22{fill:#572513;}.cls-23{fill:#3d1d10;}.cls-24{fill:#1c0e0a;}.cls-25{fill:#714c41;}</style></defs><ellipse class="cls-1" cx="148.31" cy="196.21" rx="116.1" ry="26.63"/><path d="M72.42,172.55a3.1,3.1,0,0,1-2.71-2.47,3.68,3.68,0,0,1,.1-2.33,2.2,2.2,0,0,1,1.46-1.38,1.89,1.89,0,0,1,.53-.08,3.13,3.13,0,0,1,2.71,2.48,3.62,3.62,0,0,1-.11,2.33,2.24,2.24,0,0,1-1.46,1.38A1.86,1.86,0,0,1,72.42,172.55Zm-.62-5.86a1.47,1.47,0,0,0-.42.06,1.82,1.82,0,0,0-1.2,1.15,3.3,3.3,0,0,0-.09,2.07,2.7,2.7,0,0,0,2.33,2.18,1.51,1.51,0,0,0,.42-.05A1.87,1.87,0,0,0,74,171a3.26,3.26,0,0,0,.08-2.08A2.71,2.71,0,0,0,71.8,166.69Z"/><path class="cls-2" d="M64.12,133.79s-17,10.52-13,42.47C47,178.37,41,185.82,45.33,188c4.56,2,32.78,8.27,46.59-1.46-5.91-9.06-10.74-39.65-10.74-39.65C78.54,145.13,64.12,133.79,64.12,133.79Z"/><path class="cls-3" d="M58.54,177.9c-1.6-2.85-5.15-2.29-5.15-2.29-1.82-14.3.18-31.69,11.85-40.93l-1.12-.89s-17,10.52-13,42.47C47.69,178,43,183.44,44,186.48l.1-.2C43.84,182.87,52.51,174.17,58.54,177.9Z"/><path class="cls-4" d="M79.6,161.05c2,10.64-7.06,24.56-19.9,30.09,10.1,1,24.47.86,32.22-4.6C87.16,179.25,79.6,161.05,79.6,161.05Z"/><path class="cls-5" d="M70.25,192h0c-11.5,0-22.39-2.72-25-3.85a2.72,2.72,0,0,1-1.61-2.58c0-3.06,4-7.71,7.3-9.45-2.07-16.49,1.57-27.15,5-33.21,3.73-6.59,8-9.29,8.07-9.32l.12-.07.11.08c.14.12,14.44,11.36,17.05,13.09l.08.05v.09c.05.3,4.89,30.65,10.7,39.58l.11.16-.16.11C87,190.24,79.69,192,70.25,192Zm-6.14-58a27.54,27.54,0,0,0-7.84,9.13c-3.4,6-7,16.64-4.92,33.07l0,.14-.13.06c-3.17,1.62-7.2,6.26-7.2,9.17a2.33,2.33,0,0,0,1.38,2.22c2.57,1.12,13.39,3.81,24.83,3.81h0c9.26,0,16.45-1.73,21.4-5.14C86,177.54,81.29,148.8,81,147,78.33,145.21,65.45,135.09,64.11,134Z"/><path class="cls-6" d="M45.71,188.27c.72,3.35,11.85,4.27,12.3,2.75s-1.39-10.18-5.82-11C49.14,179.44,45.14,185.67,45.71,188.27Z"/><path class="cls-7" d="M52.79,180.18c1.67,1.22,2.49,4.71,1,7.26-.92,1.63-2.79,2.87-5.95,2.87,3.27,1.52,9.85,1.67,10.13.71C58.44,189.58,56.78,181.63,52.79,180.18Z"/><path class="cls-8" d="M55.12,191.93h0c-3.56,0-9.07-1.15-9.61-3.62-.35-1.61.9-4.24,2.32-6,.77-.95,2.3-2.55,4-2.55a3.13,3.13,0,0,1,.44,0A5.92,5.92,0,0,1,56,182.87c1.81,3,2.52,7.15,2.21,8.21C58,191.78,56.41,191.93,55.12,191.93Zm-3.33-11.76c-1.09,0-2.42.87-3.65,2.39-1.56,1.93-2.52,4.37-2.24,5.67.46,2.13,5.75,3.31,9.22,3.31h0c1.74,0,2.62-.3,2.7-.57.29-1-.45-5.07-2.17-7.89a5.53,5.53,0,0,0-3.49-2.88A2.22,2.22,0,0,0,51.79,180.17Z"/><path class="cls-6" d="M58.91,190.17c0,2,2.54,2.9,6.11,3.15,3.14.23,6.58-.39,6.56-1.9,0-3.43-2-10.4-5.75-10.66C63,180.55,58.92,187,58.91,190.17Z"/><path class="cls-7" d="M66.6,180.91c1.88,2,1.86,5.47.17,8a7.24,7.24,0,0,1-6.9,3.07A10.27,10.27,0,0,0,65,193.32c3.14.23,6.58-.39,6.56-1.9C71.54,188.23,69.89,182,66.6,180.91Z"/><path class="cls-8" d="M66.28,193.57h0c-.43,0-.85,0-1.28,0-4.18-.3-6.29-1.43-6.29-3.35,0-3.15,4.06-9.84,7.13-9.61,3.87.27,5.89,7.11,5.94,10.86a1.25,1.25,0,0,1-.39.9C70.62,193.1,68.71,193.57,66.28,193.57ZM65.7,181c-2.64,0-6.58,6-6.59,9.22,0,1.68,2,2.67,5.92,3,.41,0,.83,0,1.25,0,2.29,0,4.14-.43,4.82-1.12a.88.88,0,0,0,.28-.62c0-3.53-2-10.23-5.56-10.48Z"/><path class="cls-5" d="M59,178.54c-.1-.19-2.5-4.44-7.94-2l-.16-.36c2.86-1.29,4.95-.78,6.33.06A4.08,4.08,0,0,1,59,178.54Z"/><path class="cls-5" d="M70.1,179.7a4.88,4.88,0,0,0-3.85-2.46,5.65,5.65,0,0,0-4.79,2,5.21,5.21,0,0,1,4.83-2.42A4.26,4.26,0,0,1,70.1,179.7Z"/><g class="cls-9"><path class="cls-10" d="M56.1,169.66c-.43.76.5,6,2.53,6.32s4.32-1.58,4.89-2.67-.84-4.07-3.08-4.64S56.5,169,56.1,169.66Z"/></g><g class="cls-9"><path class="cls-10" d="M57,154.28c-1.79.35-2.73,10.1-2.1,11s7.47,1.36,8.73,0-.1-7.23-1.17-8.57C61.18,155.11,59.8,153.73,57,154.28Z"/></g><g class="cls-9"><path class="cls-10" d="M67.29,148.87c-1.26.87-2.31,5.83-1.74,6.82s3.8,2.11,4.4,1.59,3-5.54,2.6-6.19S68.41,148.11,67.29,148.87Z"/></g><g class="cls-9"><path class="cls-10" d="M57.17,149.1c.41,2.58,6.64,1.92,7.18.23.82-2.57-.2-7.9-2.81-7.9S56.8,146.79,57.17,149.1Z"/></g><path class="cls-2" d="M34.61,46.76c0-5.48,8.27-17.39,23-8.92C55.45,41,34.61,46.76,34.61,46.76Z"/><path class="cls-3" d="M57.63,37.84C51.79,34.49,47,34.33,43.27,35.7a15.21,15.21,0,0,0-8.33,9C39.61,36.6,50.24,34.37,56.3,39A4.41,4.41,0,0,0,57.63,37.84Z"/><path class="cls-5" d="M34.42,47v-.26c0-4.1,4.74-12.07,13.45-12.07a19.94,19.94,0,0,1,9.86,3l.19.11L57.8,38c-2.2,3.2-22.28,8.76-23.13,9ZM47.87,35.09c-8.27,0-12.86,7.38-13,11.4,2.35-.66,20-5.67,22.52-8.59A19.42,19.42,0,0,0,47.87,35.09Z"/><path class="cls-2" d="M9.41,53.55C.83,61.2-6.27,82.85,15.81,99.84A49.6,49.6,0,0,1,19.73,95s3.2,4.84,8.63,5.5,19.55-.89,26,7.15c5.15,6.42,2.18,34.68,27.88,43.44,9.26-6.48,40.65-31.45,40.65-31.45l-18.66-10.75c-6.44,3.31-15-1.89-14.94-10.52S101.82,57.85,74.7,43.17c-10.32-2.12-23.12-4.3-23.12-4.3C35.41,46.9,18.54,45.41,9.41,53.55Z"/><path class="cls-4" d="M52.63,86.61c4.37-1.19,8.51-1.94,11.29-5.9-15,5.49-23.28.29-35.08,4.2-6.76,2.24-12.75,6.94-14.79,13.51.57.48,1.15,1,1.76,1.42A49.6,49.6,0,0,1,19.73,95l0,0C29.88,84.11,42.51,89.14,52.63,86.61Z"/><path class="cls-4" d="M122.89,119.67l-18.66-10.75c-6.44,3.31-15-1.89-14.94-10.52S101.82,57.85,74.7,43.17l-.12,0C89.23,71.49,79.71,94,67,94.56c-14.87.62-26.09-5.92-40,3.21-1.11.83-2.8.7-4.39.27a11.56,11.56,0,0,0,5.74,2.49c5.29.65,19.44-.87,25.92,7.06,4.71,5.75,8.46,8.19,11.86,14.8-1.16-5.2-1.18-7.81,1.2-9.8,3.57-2.78,5.45,14.82,8.62,18-.4-4.76-4.63-19.05-1.84-21.23,3.88-2,3.49,9.39,8.87,13.43-1.31-6-1.7-15.38,1.17-16.75,5.17-2.48,16.24,14.15,14.25,22.88-1.58,6.64-5.71,10.07-11.23,13.28-1.61,1.92-4.85,2.44-6.59,3.61a10.29,10.29,0,0,0-2.85,3.46,37.73,37.73,0,0,0,4.5,1.86C91.5,144.64,122.89,119.67,122.89,119.67Z"/><path class="cls-3" d="M11.92,59.32A5,5,0,0,0,6.24,65.5a8.31,8.31,0,0,0,.57,1.59c-.7-4,1.68-5.89,3.82-6.16a5.43,5.43,0,0,1,6,4.07C16.62,61.65,14.08,59.94,11.92,59.32Z"/><path class="cls-3" d="M9.34,53.52C2.89,59.27-2.72,73,4.29,86.61.22,71.78,3.84,57.49,15.1,51.73c10.44-5.33,34.33-5,34.79-12.12C34.22,46.78,18.17,45.65,9.34,53.52Z"/><path class="cls-5" d="M82.21,151.31l-.1,0C63.58,145,59.84,128.41,57.36,117.46c-1-4.42-1.79-7.91-3.22-9.69C49,101.41,39,101.11,32.41,100.92c-1.65,0-3.07-.09-4.14-.22-4.81-.59-7.93-4.45-8.63-5.39a49.53,49.53,0,0,0-3.73,4.61l-.12.17-.17-.13C3.86,90.92,1.11,81.11.87,74.47.51,64.7,5.14,57,9.21,53.37c5-4.42,12.07-6,20.3-7.82,6.79-1.5,14.49-3.2,21.92-6.9l0,0h.07c.13,0,12.92,2.2,23.12,4.3l.06,0C97,55,92.71,78.84,90.38,91.63a48,48,0,0,0-1,6.74,11.31,11.31,0,0,0,3.22,8.16,10.44,10.44,0,0,0,7.34,3.16,9,9,0,0,0,4.1-1l.09,0,19,11-.23.18c-.31.25-31.49,25-40.65,31.46ZM19.69,94.67l.14.21c0,.05,3.22,4.78,8.49,5.42,1.05.13,2.46.17,4.1.22,6.69.2,16.81.5,22,7,1.49,1.86,2.29,5.38,3.3,9.85,2.45,10.85,6.16,27.23,24.39,33.5,8.84-6.2,37.47-28.94,40.33-31.21l-18.31-10.55a9.27,9.27,0,0,1-4.18,1,10.87,10.87,0,0,1-7.63-3.29A11.69,11.69,0,0,1,89,98.36a48.82,48.82,0,0,1,1-6.81C92.3,78.87,96.6,55.27,74.57,43.32c-9.83-2-22-4.11-23-4.28-7.46,3.69-15.16,5.4-22,6.9-8.17,1.81-15.23,3.37-20.11,7.73-4,3.57-8.56,11.15-8.22,20.79C1.5,81,4.2,90.6,15.7,99.52a49.65,49.65,0,0,1,3.82-4.66Z"/><path class="cls-2" d="M64.41,33.57c-15-2.3-19.54,13.8-19.54,13.8l33.07,7.4C79.3,49.35,78,35.66,64.41,33.57Z"/><path class="cls-3" d="M64.76,35.86C71.61,37.61,76.6,43,78.19,53.49c.86-6.05-1.13-18-13.78-19.92S46.55,42.74,45.23,46.3C52.06,37.29,58.66,34.3,64.76,35.86Z"/><path class="cls-5" d="M77.75,54.73a19.84,19.84,0,0,0-2.58-14.42,15.07,15.07,0,0,0-10.79-6.54C49.69,31.52,45.1,47.26,45.06,47.42a10.21,10.21,0,0,1,1.13-3.76C48.57,39,54,31.78,64.44,33.38A15.44,15.44,0,0,1,75.5,40.09a19.51,19.51,0,0,1,3,9.56A19.61,19.61,0,0,1,77.75,54.73Z"/><path class="cls-5" d="M95.34,113.78a31.42,31.42,0,0,1-6.11-13l.39-.08a30.18,30.18,0,0,0,9.09,16.06A11.58,11.58,0,0,1,95.34,113.78Z"/><path class="cls-5" d="M66.81,100.75a62.56,62.56,0,0,1-14.24-2c-3.56-.81-6.63-1.51-9.38-1.38a37.89,37.89,0,0,0-9.72,1.87c-3,.92-5.46,1.65-8.32.58l.14-.37c2.74,1,5,.34,8.07-.59A37.94,37.94,0,0,1,43.17,97c2.81-.13,5.9.57,9.49,1.38a60.4,60.4,0,0,0,14.7,2c8.93-.12,12.59-4.26,14.09-7.71,1.9-4.38,1-9,.31-9.68A5.41,5.41,0,0,1,83,86.44a14.3,14.3,0,0,1-1.15,6.36c-1.55,3.56-5.31,7.83-14.46,8Z"/><path class="cls-5" d="M70.68,83c-4-3.81-10.76-3.85-10.83-3.85a8.53,8.53,0,0,1,3.45,0,18.74,18.74,0,0,1,4.13,1.27A8.66,8.66,0,0,1,70.68,83Z"/><path class="cls-5" d="M19.81,95.12l-.3-.26c6.41-7.29,13.85-7.39,21.74-7.49,2.24,0,4.55-.06,6.84-.26,7.67-.7,13-3.19,16.41-7.62l.32.24c-3.44,4.52-8.91,7.06-16.69,7.77-2.3.21-4.63.24-6.88.27C33.46,87.87,26.1,88,19.81,95.12Z"/><path class="cls-5" d="M59.39,114a88.28,88.28,0,0,0-5.81-6.91l.27-.29a33.52,33.52,0,0,1,2.62,2.91A32.41,32.41,0,0,1,59.39,114Z"/><path class="cls-4" d="M47.56,63.88c-3.29-7.44.76-19.35,11.28-20.94,10.08-1.52,18.67,10.83,11.31,20.94C67.07,68.1,50.28,70,47.56,63.88Z"/><path d="M47.54,66.85c-2.95-5.42.74-19.79,11-21.06,9.86-1.23,17.27,13.44,11.06,21.82C66.55,71.76,50.84,72.94,47.54,66.85Z"/><path class="cls-11" d="M47.75,67.74c-2.94-5.42.74-19.79,11-21.07,9.87-1.22,17.27,13.45,11.06,21.83C66.76,72.65,51.06,73.83,47.75,67.74Z"/><path class="cls-12" d="M47,65.59a7.66,7.66,0,0,0,.74,2.15c3.31,6.09,19,4.91,22.09.76a12.35,12.35,0,0,0,2.21-8.64C68.26,67.23,50.17,67.82,47,65.59Z"/><path d="M57.72,72.15c-5-.17-8.74-1.74-10.14-4.31-1.62-3-1.25-8.47.89-13.05,1.3-2.79,4.36-7.58,10.28-8.32a9.54,9.54,0,0,1,1.51-.06c4.24.14,8.26,3.2,10.49,8,2.34,5,2,10.47-.75,14.24C68.37,70.82,63.09,72.33,57.72,72.15Zm2.54-25.34a10.06,10.06,0,0,0-1.45.07c-5.74.71-8.73,5.38-10,8.1-2.08,4.47-2.46,9.79-.9,12.67,1.32,2.43,4.89,3.93,9.8,4.09,5.26.18,10.41-1.27,12-3.37,2.71-3.66,3-9,.71-13.82C68.24,49.92,64.35,47,60.26,46.81Z"/><path class="cls-13" d="M61.49,53.4c-3.1,0-5.67,3.47-5.73,7.83s2.4,7.93,5.5,8,5.67-3.46,5.73-7.82S64.59,53.45,61.49,53.4Z"/><path class="cls-14" d="M59.93,64.38a8.19,8.19,0,0,1-4.15-2.52c.17,4.07,2.54,7.3,5.49,7.34s5.6-3.38,5.72-7.67A7.48,7.48,0,0,1,59.93,64.38Z"/><path d="M62.2,57.53c-2,0-3.71,2.39-3.75,5.4s1.57,5.46,3.6,5.49S65.76,66,65.8,63,64.23,57.56,62.2,57.53Z"/><path class="cls-11" d="M61.87,57.6a2.13,2.13,0,0,0-2.34,1.95A2.22,2.22,0,0,0,61.43,62a2.14,2.14,0,0,0,2.34-2A2.2,2.2,0,0,0,61.87,57.6Z"/><path class="cls-11" d="M60.23,65.09a1,1,0,0,0-1.08.9A1,1,0,0,0,60,67.11a1,1,0,0,0,1.08-.9A1,1,0,0,0,60.23,65.09Z"/><path class="cls-15" d="M61.49,53.23c-3.21,0-5.87,3.55-5.93,8-.07,4.21,2.25,7.78,5.27,8.12.14,0,.28,0,.43,0,3.21,0,5.87-3.55,5.93-8S64.71,53.28,61.49,53.23Zm-.22,15.58c-2.92,0-5.21-3.47-5.15-7.57s2.47-7.48,5.36-7.44l.37,0c2.74.31,4.83,3.63,4.78,7.55C66.57,65.51,64.16,68.85,61.27,68.81Z"/><path class="cls-4" d="M47.78,67.73s3.39,7.49,10.93,7.66,10.07-4.21,12.1-8.26C62.93,71.94,53.3,71.44,47.78,67.73Z"/><path class="cls-16" d="M66.13,69.32c-2.76,4.4-7.42,6.07-13.5,4.08a11.09,11.09,0,0,0,6.08,2c7.42.17,10.07-4.21,12.1-8.26A23.35,23.35,0,0,1,66.13,69.32Z"/><path class="cls-5" d="M59.12,75.58H58.7c-7.58-.18-11.07-7.7-11.11-7.78l-.27-.61.57.39a19,19,0,0,0,10.45,2.86A23.8,23.8,0,0,0,70.71,67l.58-.36-.3.59C68.87,71.45,66.2,75.58,59.12,75.58Zm-10.83-7.3c1,1.78,4.37,6.79,10.42,6.92,6.82.16,9.56-3.57,11.63-7.57a24.2,24.2,0,0,1-12,3.18A19.8,19.8,0,0,1,48.29,68.28Z"/><path class="cls-5" d="M50.25,47.67a11.05,11.05,0,0,1,3.14-3.18,12.1,12.1,0,0,1,6.7-1.79,13.87,13.87,0,0,1,6,1.4,13.8,13.8,0,0,1,4.19,3.73A13.46,13.46,0,0,0,60.09,43.1,12.54,12.54,0,0,0,50.25,47.67Z"/><path class="cls-5" d="M6.28,61.94a5.06,5.06,0,0,1,3.13-2.63,5.62,5.62,0,0,1,4.72.72,5.91,5.91,0,0,1,2.49,5,6.48,6.48,0,0,0-2.71-4.63,5.69,5.69,0,0,0-4.4-.68,4.55,4.55,0,0,0-2.88,2.42,5.76,5.76,0,0,0,.18,5S5,64.45,6.28,61.94Z"/><path class="cls-10" d="M13.76,68c.47,1.54.15,3-1,3.37s-2.2-.59-2.66-2.13-.4-3.81.72-4.14S13.3,66.44,13.76,68Z"/><path class="cls-17" d="M11.37,65.06a1.1,1.1,0,0,0-.51,0c-1.12.33-1.19,2.6-.72,4.14.4,1.34,1.28,2.22,2.23,2.2C13.59,69.57,12.86,66.77,11.37,65.06Z"/><path class="cls-5" d="M12.34,71.62c-1,0-2-.92-2.39-2.34a6.67,6.67,0,0,1-.24-2.61c.12-1,.51-1.61,1.09-1.78a1,1,0,0,1,.35,0c1.15,0,2.35,1.6,2.8,3.08a4.27,4.27,0,0,1,.11,2.25,1.76,1.76,0,0,1-1.72,1.45Zm-1.19-6.39a.59.59,0,0,0-.23,0c-.58.17-.76,1-.82,1.45a6.17,6.17,0,0,0,.23,2.44c.44,1.45,1.44,2.29,2.41,2a1.47,1.47,0,0,0,.94-1.09,3.87,3.87,0,0,0-.11-2C13.17,66.71,12.08,65.23,11.15,65.23Z"/><path class="cls-2" d="M178.49,180.79l0,5.19c-4.09,1.32-6,7.4-6.43,9.85,3.77,2.51,21.47,6,31.87,4.14,2.18-.66,9-3.7,9.86-9-3-7-9.79-17.67-9.79-17.67Z"/><path class="cls-4" d="M204,173.31l-5,2.19c.63,10.18,4.93,21.56-14.87,24.47-.77.77,11.63-.26,10.84.48a43.26,43.26,0,0,0,9-.48c2.18-.66,9-3.7,9.86-9C210.77,184,204,173.31,204,173.31Z"/><path class="cls-5" d="M197.09,200.69h0c-9.77,0-22-2.58-25.18-4.7l-.1-.07,0-.12c.37-2.29,2.24-8.49,6.43-10l0-5.2.14,0L204,173.08l.08.13c.07.1,6.86,10.74,9.81,17.69l0,0V191c-.86,5.28-7.5,8.4-10,9.15A39.85,39.85,0,0,1,197.09,200.69Zm-24.85-5c3.29,2.07,15.26,4.56,24.85,4.56a39.54,39.54,0,0,0,6.76-.51c2.4-.73,8.83-3.73,9.69-8.78-2.77-6.51-8.9-16.24-9.67-17.45l-25.18,7.39,0,5.19-.13,0C174.5,187.47,172.65,193.39,172.24,195.73Z"/><path class="cls-5" d="M183.14,189.94a4.4,4.4,0,0,0-2-3.26,3.17,3.17,0,0,0-2.7-.47l-.13-.37a3.37,3.37,0,0,1,3,.51A3.82,3.82,0,0,1,183.14,189.94Z"/><path class="cls-5" d="M194.25,191.63a4.82,4.82,0,0,0-8.7-1.58,4.67,4.67,0,0,1,1.49-1.86,4.81,4.81,0,0,1,3.62-.57,5.08,5.08,0,0,1,2.52,1.35A4.83,4.83,0,0,1,194.25,191.63Z"/><path class="cls-6" d="M170.88,195.41c.22,3.05,11.87,5.48,12.71,3.82s0-9.13-4.31-10.27C176.17,188.13,170.72,193.06,170.88,195.41Z"/><path class="cls-7" d="M179.85,189.16c2,3,1.3,6.42-1.13,7.65A9.41,9.41,0,0,1,172,197c3,2.2,10.86,3.57,11.55,2.21C184.4,197.63,183.65,190.78,179.85,189.16Z"/><path class="cls-8" d="M181.64,200h0c-3.55,0-10.78-2-11-4.55-.06-.88.59-2.11,1.78-3.39,1.56-1.67,4-3.36,6.08-3.36a2.85,2.85,0,0,1,.79.1,5.88,5.88,0,0,1,3.69,3.59c1.13,2.53,1.33,5.81.75,7C183.55,199.75,182.83,200,181.64,200Zm-3.1-10.91c-1.91,0-4.34,1.68-5.79,3.24a5,5,0,0,0-1.67,3.09c.15,2.12,6.79,4.18,10.56,4.18h0c1,0,1.64-.16,1.78-.43.46-.92.4-4-.76-6.62a5.66,5.66,0,0,0-3.43-3.37A2.56,2.56,0,0,0,178.54,189.06Z"/><path class="cls-6" d="M182.48,199.31c.76,3,12.66,3.24,13.19,1.45s-1.67-9-6.1-9.32C186.36,191.19,181.89,197,182.48,199.31Z"/><path class="cls-7" d="M190.42,191.6a4.79,4.79,0,0,1,.83,6.2c-1.22,1.86-3.8,3.17-7.22,3,3.47,1.41,11.28,1.23,11.64,0C196.17,199.08,194.28,192.72,190.42,191.6Z"/><path class="cls-8" d="M192.76,202h0c-3.43.32-9.87-.28-10.47-2.63-.25-1,.29-2.49,1.44-4.13s3.34-3.79,5.36-4a2.8,2.8,0,0,1,.5,0,5.9,5.9,0,0,1,4.27,2.87c1.57,2.28,2.37,5.48,2,6.7C195.64,201.57,194.05,201.87,192.76,202Zm-3.64-10.35c-1.76.17-3.81,2-5.07,3.82-1.06,1.52-1.59,3-1.38,3.8.5,1.92,6.38,2.68,10.06,2.34,1.89-.18,2.66-.58,2.75-.9.3-1-.33-4-1.95-6.37a5.61,5.61,0,0,0-4-2.69Z"/><path class="cls-6" d="M195.81,200.61c1,2,9.38.47,9.5-.87s-2.46-6.08-5.63-5.69C197.38,194.33,195.07,199.08,195.81,200.61Z"/><path class="cls-7" d="M200.43,194.06a4,4,0,0,1,1.3,4.16c-.5,1.41-2.06,2.63-5.08,3,2.4.89,8.56-.37,8.66-1.52S203.25,194.4,200.43,194.06Z"/><path class="cls-8" d="M200.57,201.66h0c-1.27.14-4.31.34-4.94-1-.44-.89.08-2.6.79-3.89.92-1.71,2.13-2.81,3.24-2.94h0a4.31,4.31,0,0,1,3.49,1.44c1.43,1.4,2.44,3.54,2.36,4.46S202.44,201.45,200.57,201.66Zm-.84-7.41c-1.17.14-2.3,1.51-3,2.74-.77,1.42-1.09,2.88-.78,3.53s2.14,1,4.55.74h0c2.53-.28,4.54-1.06,4.58-1.53.07-.72-.8-2.73-2.24-4.14A4,4,0,0,0,199.73,194.25Z"/><path class="cls-18" d="M122.1,171s7.5,5.54,16.73,6.55c7.44,3.87,23,8.49,32.84,4.34,11.71,3.3,28.18-1.07,32.45-5.24l29.34-8.89c2.38.33,8.4-1.26,10-3.31,4-.79,13.25-6.3,16.41-13.83,3.67-2.48,7.39-7.22,8.12-9.08-5.92,1.92-116.41,11.94-142.21,2-5.55,3.7-15.21,27.14-15.21,27.14Z"/><path class="cls-19" d="M169.09,172.39c-7.16-3-13.29-3.73-20.83-4.83-.6,0-1.49,1.95-1.79,2.84-1.59,2.38-3.17,6.35.4,7.54,7.14,1.59,13.89,3.18,21,1.59C171.08,179.14,171.48,173.58,169.09,172.39Z"/><path class="cls-19" d="M130.52,159.07c-1.11,3.64-5.62,7.58-5.67,8.33.32,2.18,9.12,6.84,12.49,6,1.73-.93,5.1-6.37,3.91-9.55C140.78,162.09,133.76,159.83,130.52,159.07Z"/><path class="cls-20" d="M139,177.7l-.27-.3c4.31-3.86,6.62-14.43,4.83-18.16l.35-.17C145.89,163.24,143,174,139,177.7Z"/><path class="cls-20" d="M120.71,165.08l-.08-.39c.08,0,8.16-1.77,9.5-10.08l.39.07C129.13,163.26,120.8,165.06,120.71,165.08Z"/><path class="cls-20" d="M171.83,182l-.31-.25c3.08-3.73,2.95-9.59,1.51-12l.34-.21C174.87,172.08,175,178.16,171.83,182Z"/><path class="cls-20" d="M243.7,164.52l-.37-.14c2.07-5.4-.82-10.88-.85-10.94l.35-.18C242.86,153.31,245.84,159,243.7,164.52Z"/><path class="cls-20" d="M260.05,150.8l-.4,0a8.69,8.69,0,0,0-1.22-4.28l.33-.21A8.88,8.88,0,0,1,260.05,150.8Z"/><path class="cls-20" d="M162.43,183.72h0c-8.38,0-17.91-3-23.66-6-8.76-1-16.06-6.06-16.74-6.54l-11.7-.38.11-.27c.39-1,9.74-23.54,15.28-27.23l.09,0,.1,0c7.45,2.89,22.61,4.36,45,4.36,41.78,0,93.34-5.11,97-6.3l.4-.13-.15.39c-.78,2-4.54,6.68-8.15,9.14-3.2,7.55-12.36,13-16.46,13.87-1.63,1.93-6.82,3.37-9.44,3.37a5.14,5.14,0,0,1-.71,0l-29.25,8.87c-3.23,3.11-13.33,6.42-23.29,6.42a34.62,34.62,0,0,1-9.24-1.15A24,24,0,0,1,162.43,183.72Zm-51.52-13.28,11.26.36,0,0c.07,0,7.57,5.52,16.63,6.51l.07,0c5.7,3,15.18,5.95,23.51,5.95h0a23.69,23.69,0,0,0,9.17-1.61l.06,0,.07,0a34.26,34.26,0,0,0,9.2,1.15c9.9,0,19.92-3.28,23-6.34l0,0,0,0,29.38-8.91h.05c2.18.3,8.21-1.18,9.87-3.23l0-.06h.07c3.9-.78,13.16-6.33,16.26-13.71l0-.06.05,0a28.88,28.88,0,0,0,7.88-8.62c-6.11,1.37-56.07,6.21-96.74,6.22-22.38,0-37.55-1.47-45.09-4.35C120.72,147.29,112,167.86,110.91,170.44Z"/><path class="cls-2" d="M205.2,165s-5.35,8.65-2,17.35c2.59,6.68,10.45,6.35,12.4,13.52,0,0-5,6.09.25,9.53,4.36,1.09,29-.63,29-.63,11.37-4.7,10.65-17.79,7-21.7-3.1-3.31-10.82-8.43-14.49-12.68-3.51-4.06-6.58-10.53-12.3-11.92C209.5,154.72,205.2,165,205.2,165Z"/><path class="cls-3" d="M213.75,190c-1.1-.88-6.66-3.71-9.27-9.41-1.56-3.43-1.51-7.94-.33-13.53-1.36,3.07-3.29,9.16-.92,15.28,2.47,6.36,10.57,6.43,12.5,13.72C216.05,194.38,214.86,190.93,213.75,190Z"/><path class="cls-4" d="M251.85,183.1c-3.1-3.31-10.82-8.43-14.49-12.68-3.51-4.06-6.58-10.53-12.3-11.92-.61-.15-5.58.75-6.15.64,10.65,3.39,14.1,14.63,20.18,21.78,2.55,3,7.19,5.39,8.59,9.66,1.12,3.43-1.85,13.07-11.71,14.75-.11,0,4.37-.29,4.27-.24,2.76-.16,4.6-.29,4.6-.29C256.21,200.1,255.49,187,251.85,183.1Z"/><path class="cls-5" d="M221.93,206h0a31,31,0,0,1-6.1-.37l-.06,0a5,5,0,0,1-2.41-3.51c-.44-2.84,1.65-5.7,2-6.22-1-3.6-3.52-5.23-6.17-7-2.42-1.57-4.93-3.2-6.2-6.46-3.37-8.69,1.94-17.43,2-17.52s3.23-7.46,13.59-7.46a27.88,27.88,0,0,1,6.48.83c4.33,1,7.09,4.85,9.75,8.53.91,1.25,1.77,2.43,2.66,3.46a67.47,67.47,0,0,0,8.34,7.39A63.34,63.34,0,0,1,252,183c1.82,1.95,3.12,6.46,2.07,11.29A14.84,14.84,0,0,1,244.91,205l-.06,0C244.71,205,230.57,206,221.93,206Zm-6-.75a31.15,31.15,0,0,0,6,.35c8.43,0,22.1-.93,22.86-1a14.46,14.46,0,0,0,8.88-10.44c1-4.69-.22-9-2-10.93a63.67,63.67,0,0,0-6.09-5.25,67.62,67.62,0,0,1-8.4-7.44c-.91-1.05-1.77-2.23-2.68-3.49-2.62-3.62-5.34-7.36-9.52-8.37a27.22,27.22,0,0,0-6.39-.83c-10.1,0-13.21,7.18-13.24,7.25s-5.26,8.69-2,17.19c1.22,3.14,3.67,4.74,6.05,6.28,2.62,1.7,5.33,3.46,6.36,7.27l0,.1-.07.08s-2.48,3.09-2,6A4.66,4.66,0,0,0,216,205.24Z"/><path class="cls-6" d="M239.7,197.27c-3.58.26-6.82,7.16-5.88,9.32s11.94,1.61,12.17-.18S244.07,197,239.7,197.27Z"/><path class="cls-7" d="M241.26,197.51c1.46,1.54,1.52,4.25.39,6.39-1,1.81-3.11,3.24-7.16,3.32,2.6,1.4,11.3.78,11.5-.81S244.58,198.82,241.26,197.51Z"/><path class="cls-8" d="M239.36,208.2h0c-1.19,0-5.11-.11-5.73-1.53-.51-1.18.11-3.67,1.48-5.93s3-3.56,4.57-3.67a4.36,4.36,0,0,1,3.64,1.72,12.9,12.9,0,0,1,2.86,7.64C246,207.73,242,208.2,239.36,208.2Zm.6-10.74h-.25c-1.43.1-3,1.37-4.26,3.48s-1.91,4.51-1.45,5.57c.34.77,2.44,1.28,5.36,1.28h0c3.33,0,6.34-.66,6.43-1.42a12.7,12.7,0,0,0-2.77-7.33A4.11,4.11,0,0,0,240,197.46Z"/><path class="cls-6" d="M217.22,195.84c-3.57-.3-7.05,6.46-6.45,8.75s11.56,3.42,12,1.68S221.59,196.2,217.22,195.84Z"/><path class="cls-7" d="M218.33,196.12a5.25,5.25,0,0,1,.2,7c-1.37,1.64-3.81,2.69-7,2.28,3,1.68,10.9,2.22,11.29.84C223.28,204.69,221.88,197.65,218.33,196.12Z"/><path class="cls-8" d="M219.57,207.31h0c-3.46,0-8.56-1-9-2.67-.37-1.4.67-4.28,2.32-6.4,1.37-1.79,2.91-2.72,4.34-2.6a4.84,4.84,0,0,1,3.52,2.38c1.89,2.74,2.6,7.08,2.26,8.31C222.78,207.14,221,207.31,219.57,207.31ZM217,196c-1.22,0-2.56.87-3.78,2.45-1.55,2-2.58,4.78-2.25,6.06s5,2.38,8.61,2.38c2.12,0,3-.38,3.06-.7.34-1.16-.36-5.33-2.19-8a4.51,4.51,0,0,0-3.24-2.2Z"/><path class="cls-6" d="M228.54,197.46c-4.08,0-7.47,7-6.64,9.19s11.84,2.24,12.16.46S232.93,197.46,228.54,197.46Z"/><path class="cls-7" d="M229.23,197.53c1.84,1.32,2.25,4.46.59,6.87-1.18,1.7-3.38,3-6.85,3.14,3,1.29,10.82,1.07,11.09-.43C234.36,205.43,233.08,198.3,229.23,197.53Z"/><path class="cls-8" d="M228.7,208.58h0c-2.34,0-6.44-.39-7-1.86-.47-1.26.35-4,1.86-6.15.86-1.24,2.65-3.31,5-3.31h0a4.13,4.13,0,0,1,3.22,1.67,13.44,13.44,0,0,1,2.5,8.22C234,208.51,229.58,208.58,228.7,208.58Zm-.16-10.92c-1.56,0-3.25,1.14-4.64,3.14s-2.24,4.65-1.82,5.78c.35.93,3.13,1.6,6.62,1.6,3.22,0,5.07-.57,5.17-1.1a12.9,12.9,0,0,0-2.42-7.9,3.76,3.76,0,0,0-2.91-1.52Z"/><path class="cls-5" d="M222.72,196.7a4.06,4.06,0,0,0-3.54-2.71,3.51,3.51,0,0,0-3.45,2.11l-.36-.18a4,4,0,0,1,3.84-2.33,4.4,4.4,0,0,1,3.12,1.63A3.42,3.42,0,0,1,222.72,196.7Z"/><path class="cls-5" d="M234.47,196.88a7.06,7.06,0,0,0-5.27-4.2,7.86,7.86,0,0,0-7,2.66l-.29-.27a8.23,8.23,0,0,1,7.35-2.78,7.2,7.2,0,0,1,4.28,2.41A7.38,7.38,0,0,1,234.47,196.88Z"/><path class="cls-5" d="M243,195.31c-1.2-2-2.95-3.08-4.68-2.95a3.52,3.52,0,0,0-3,2.31,3.19,3.19,0,0,1,.91-1.89,3.66,3.66,0,0,1,2.06-.81,4.07,4.07,0,0,1,2.76.72A6.8,6.8,0,0,1,243,195.31Z"/><g class="cls-9"><path class="cls-10" d="M211.51,183c-.75,1.11-.1,5,2.29,5.83s5.15.79,6.1-.6-.85-4.45-2.43-5.38S212.51,181.52,211.51,183Z"/></g><g class="cls-9"><path class="cls-10" d="M224.53,183c-.75,1.11-.1,5,2.28,5.83s5.16.79,6.1-.6-.84-4.45-2.43-5.38S225.52,181.52,224.53,183Z"/></g><g class="cls-9"><path class="cls-10" d="M227.42,173.21c1.11,2.39.4,5.08-1.58,6s-4.49-.27-5.6-2.67-.41-5.08,1.57-6S226.3,170.81,227.42,173.21Z"/></g><g class="cls-9"><path class="cls-10" d="M210,169.08c-1.64,0-3.35,7.84-1,10.22,1.33,1.34,7.26.69,7.49-.69C217,175.4,212.82,169.08,210,169.08Z"/></g><path class="cls-2" d="M118.18,160.94a16,16,0,0,0,6.36-15.14c-.89-8.34-15.38-21.83-15.38-21.83l-7,2.25c-5.49,6-25.66,9.61-27.91,28.18-1.67,13.78,11,29.23,14.38,32.64a10.4,10.4,0,0,0-5.2,6.93c1.09,2.73,3.77,9.38,3.77,9.38,3.07.54,34.28,4.61,39-2S126.32,172.06,118.18,160.94Z"/><path class="cls-3" d="M95.24,191.83c-1-2.86-3.57-6-6.62-4.79a10.4,10.4,0,0,0-5.2,6.93l.57,1.44c.53-1.17-.14-1.7.8-2.63C88.13,186.52,92.44,187.72,95.24,191.83Z"/><path class="cls-3" d="M76.62,154.13C79,140.34,92.76,134.62,99.1,128.4c-2.18,1.57-7.51,4-13.18,7.93-5.36,3.68-10.59,9-11.68,18.07-1,8.11,4.11,22.88,14.26,32.22C82.29,177.81,75.15,162.58,76.62,154.13Z"/><path class="cls-4" d="M118.18,160.94a16,16,0,0,0,6.36-15.14c-.17-1.58-1.66.06-2.61-1.76-.43,2.35-2.28,4.7-5.76,5.72s-7.8-1.55-12-2.7c8.19,6.13,20.24,37.24,17,46.48-1.79,5.11-6.67,8-10.22,11.52,7-.12,13.3-1.05,15.24-3.75C131,194.66,126.32,172.06,118.18,160.94Z"/><path class="cls-5" d="M127.24,182.76c-1.7-8.38-5-16.5-8.79-21.78a16.25,16.25,0,0,0,6.29-15.21c-.89-8.31-14.85-21.39-15.44-22l-.27.29c.14.14,14.44,13.54,15.32,21.71a15.93,15.93,0,0,1-6.29,15l-.15.12.11.15c8.17,11.16,12.68,33.67,8,40.14s-34,2.78-38.74,2c-.34-.84-2.69-6.66-3.71-9.22a10.24,10.24,0,0,1,5.1-6.73l.23-.13-.18-.19c-.17-.16-16.21-17-14.34-32.48,1.58-13,11.75-18.45,19.92-22.86a39.56,39.56,0,0,0,4.75-3.16c-1.42.91-3.11,1.83-4.94,2.81-7.82,4.22-18.52,10-20.12,23.16C72.25,169.12,86.52,185.07,88.3,187a10.75,10.75,0,0,0-5.08,6.95V194l0,0c1.09,2.73,3.77,9.38,3.77,9.38l0,.1.11,0a157.33,157.33,0,0,0,22,1.72c7.78,0,15.09-.88,17.21-3.83C128.65,198.28,129,191.3,127.24,182.76Z"/><path class="cls-5" d="M118.38,161.56c-7.33-10.21-14.11-14.46-14.18-14.5a25.43,25.43,0,0,1,6.35,4.75,70.71,70.71,0,0,1,8.15,9.51Z"/><path class="cls-5" d="M95.43,193.13c-.63-2.22-2-4.91-4-5.81a3.61,3.61,0,0,0-3.15.13l-.17-.36a4,4,0,0,1,3.48-.13,7.8,7.8,0,0,1,3.46,4A5.9,5.9,0,0,1,95.43,193.13Z"/><path class="cls-5" d="M107,194.86c-1.52-3.55-3.26-5.54-5.33-6.08-1.92-.51-4.12.21-6.74,2.19l-.24-.31c2.72-2.07,5-2.81,7.08-2.27a7.29,7.29,0,0,1,4.12,3.45A15.79,15.79,0,0,1,107,194.86Z"/><path class="cls-5" d="M118.06,194.5a5.94,5.94,0,0,0-4.35-3.73,5.42,5.42,0,0,0-4.84,2,5.07,5.07,0,0,1,2.1-2.05,4.49,4.49,0,0,1,2.79-.39,5.39,5.39,0,0,1,3,1.58A8.86,8.86,0,0,1,118.06,194.5Z"/><path class="cls-6" d="M80.37,199.85c.39,3.4,11.37,5.43,12,4s-.37-10.28-4.69-11.54C84.67,191.4,80.07,197.21,80.37,199.85Z"/><path class="cls-7" d="M88.54,192.67a5.87,5.87,0,0,1-.18,6.76,6.17,6.17,0,0,1-6.7,2c.69,1.83,10.12,3.75,10.68,2.38S92.1,194.79,88.54,192.67Z"/><path class="cls-8" d="M90.23,204.49h0c-3.25-.12-9.74-1.86-10.06-4.62-.15-1.37.93-3.61,2.64-5.46s3.55-2.72,4.9-2.33a5.92,5.92,0,0,1,3.43,3.42c1.51,3.12,1.8,7.37,1.38,8.39C92.34,204.34,91.57,204.54,90.23,204.49Zm-3.13-12.1c-1.15,0-2.6.79-4,2.29-1.62,1.74-2.68,3.91-2.54,5.15.28,2.43,6.42,4.14,9.67,4.26h0c1.29,0,1.84-.16,1.92-.35.38-.94.06-5.09-1.38-8.06a5.51,5.51,0,0,0-3.18-3.21A1.69,1.69,0,0,0,87.1,192.39Z"/><path class="cls-6" d="M93.14,202.93c-.3,2.52,3,3.64,6.55,3.89s6.46-.59,6.63-2.88c.25-3.42-2-9.43-5.82-9.69C97.62,194.05,93.8,197.37,93.14,202.93Z"/><path class="cls-7" d="M101.54,194.48a7.53,7.53,0,0,1,.39,7.53c-1.19,2.14-3.71,3.62-8,3,1.17,1.06,3.38,1.61,5.73,1.77,3.57.25,6.46-.59,6.63-2.88C106.54,200.84,104.71,195.64,101.54,194.48Z"/><path class="cls-8" d="M100.86,207.06h0c-.38,0-.78,0-1.19,0-1.73-.12-4.84-.56-6.15-2.15a2.48,2.48,0,0,1-.58-2c.67-5.64,4.53-9.06,7.57-8.86a4.85,4.85,0,0,1,3.32,1.86,12.27,12.27,0,0,1,2.68,8C106.37,205.93,104.31,207.06,100.86,207.06Zm-.61-12.62c-2.85,0-6.31,3.42-6.91,8.52a2.12,2.12,0,0,0,.48,1.66c.9,1.09,3,1.8,5.88,2,.4,0,.79,0,1.16,0,3.22,0,5.13-1,5.26-2.74a12.06,12.06,0,0,0-2.59-7.75,4.42,4.42,0,0,0-3-1.72Z"/><g class="cls-9"><path class="cls-10" d="M84.73,146.6a4.73,4.73,0,0,0,4.45,4.9c2.57.2,4.83-1.31,4.95-3.2.18-2.84-1.63-7-4.37-7.2C87.69,140.93,84.83,144,84.73,146.6Z"/></g><path class="cls-6" d="M107.3,205.07c.5,1.49,9.11,2.71,12-.66,1.38-1.59-.84-6.31-2.92-7.7a5.24,5.24,0,0,0-6.07.35C108.64,198.44,106.6,202.94,107.3,205.07Z"/><path class="cls-7" d="M116.42,196.71a5.26,5.26,0,0,0-3.39-.77,5.49,5.49,0,0,1,2.2,6.51c-.81,1.91-3,3.4-7.26,3.23,2.17,1.14,8.85,1.62,11.37-1.27C120.72,202.82,118.5,198.1,116.42,196.71Z"/><path class="cls-8" d="M112.84,206.77h0c-2.49,0-5.39-.63-5.73-1.64-.75-2.28,1.42-6.86,3.11-8.22a5.44,5.44,0,0,1,6.31-.36,9.69,9.69,0,0,1,3.39,5.84,2.66,2.66,0,0,1-.43,2.15C118.26,206,115.84,206.77,112.84,206.77Zm.78-10.66a5,5,0,0,0-3.15,1.11c-1.73,1.4-3.63,5.82-3,7.79.21.63,2.59,1.36,5.35,1.36h0c2.88,0,5.19-.76,6.35-2.09a2.33,2.33,0,0,0,.34-1.84,9.39,9.39,0,0,0-3.22-5.56A4.93,4.93,0,0,0,113.62,196.11Z"/><g class="cls-9"><path class="cls-10" d="M79.45,162.17c1.64,1,6.74.59,7.64-.25s.51-8.38-1.59-10.07c-1.4-1.12-4.86-1.32-5.46-.76s-2.68,4.24-2.58,5.55S78.14,161.35,79.45,162.17Z"/></g><g class="cls-9"><path class="cls-10" d="M92.54,158.55c-1.16,1.52-1.43,5,.83,6.78,1.13.86,3.44,1.94,5.28,0s.94-4.6-.13-5.79C96.86,157.73,93.44,157.37,92.54,158.55Z"/></g><path class="cls-21" d="M109.15,166.34c-1.07.69-2.65.12-3.53-1.26s-.75-3.05.32-3.74,2.64-.11,3.53,1.27S110.21,165.66,109.15,166.34Z"/><g class="cls-9"><path class="cls-10" d="M105.91,175.71c-4,2.17-4.28-4.32-3.21-5S109.61,173.73,105.91,175.71Z"/></g><g class="cls-9"><path class="cls-10" d="M99.84,157.31c-1.76-.4-2.59-6.92,1.63-5S101.85,157.76,99.84,157.31Z"/></g><g class="cls-9"><path class="cls-10" d="M114.92,181.42a2.89,2.89,0,1,1-2.89-2.89A2.88,2.88,0,0,1,114.92,181.42Z"/></g><g class="cls-9"><path class="cls-10" d="M95.46,176.76c-1.48,1,.14,8.27,1.3,8.94s4.43-.24,5.06-.7-.31-6-1.12-6.71C99.74,177.45,96.61,176,95.46,176.76Z"/></g><g class="cls-9"><path class="cls-10" d="M83.07,168.72c-1,.39-1,4.71,0,6.1s4.07,5.11,5.85,4.17,3.48-2.53,3.48-3.72-4.92-5.56-5.86-6.16A4.91,4.91,0,0,0,83.07,168.72Z"/></g><path class="cls-22" d="M181.8,70.25c-6.35-4-23.55-12.7-46.31,2.65-8.93-1.52-23.05,6.91-27.81,14-6.8.59-8.69-3.23-10.72-2.19s-4.76,20.44,7.44,29.64c-1.45,6.88,3.8,17.71,16.83,24.53-.62,11.06,11,19.52,22.46,20.32,4.1,5.62,19.72,11.51,29.51,10.38,13.56,1.79,31.32,1.76,40.55-9,11,.69,23.61-.4,28.57-7.24,9,.39,14.69-1.33,16.27-7,5.36-.92,9.27-2.25,10.32-7.28-7.14-1.1-13.44-7-20.37-10.12-.66-7.4-3.24-21.4-13-28.34-1.14-7.49-6.94-21.23-24-21.53C204.52,69.2,188.41,66.68,181.8,70.25Z"/><path class="cls-23" d="M268.91,139.11l-.37-.06c-1.07,1.35-2.25,2.58-4.19,2.78-6.43,1-9.22-5.59-11-10.38-1.76-.7-3.48-2.06-4.9-2.62,1.51,6.92,3.92,16.16,8.79,20.38a8.5,8.5,0,0,0,1.36-2.82C264,145.47,267.86,144.14,268.91,139.11Z"/><path class="cls-24" d="M185.67,170.62a95.23,95.23,0,0,1-12.48-.88,23.17,23.17,0,0,1-2.57.14c-9.54,0-23.13-5.3-27-10.53-11.38-.83-23.1-9.19-22.56-20.4-13-6.81-18.26-17.47-16.85-24.56-7.71-5.88-9.75-16.22-9.08-24,.27-3.15,1-5.54,1.77-5.94a1.76,1.76,0,0,1,.83-.21,5.25,5.25,0,0,1,2.19.77,13,13,0,0,0,6.37,1.66c.42,0,.86,0,1.3,0,4.41-6.43,16.8-14.15,25.69-14.15a14,14,0,0,1,2.2.17c8.6-5.79,17.29-8.72,25.83-8.72a38.5,38.5,0,0,1,20.52,6,16.64,16.64,0,0,1,7.52-1.51c7.42,0,17.19,3.22,22.35,10.41,15.35.32,22.56,11.81,24.09,21.62,9.66,6.95,12.27,20.67,13,28.32a66,66,0,0,1,7.58,4.26c4.05,2.52,8.23,5.12,12.63,5.8l.21,0,0,.21c-1.13,5.34-5.53,6.56-10.36,7.41-1.41,4.79-5.89,7-14.06,7h0c-.72,0-1.48,0-2.27-.05-4.53,6.13-15.08,7.42-23.15,7.42-1.75,0-3.57-.06-5.44-.18C208.16,167.31,198.69,170.62,185.67,170.62Zm-12.47-1.28h0a96.44,96.44,0,0,0,12.45.87c13,0,22.34-3.28,27.93-9.77l.06-.07h.1c1.89.12,3.74.18,5.51.18,8,0,18.49-1.27,22.89-7.34l.06-.09h.11c.82,0,1.61.05,2.36.05,8.14,0,12.37-2.11,13.71-6.85l0-.12.12,0c5.74-1,9.08-2.4,10.12-6.92-4.41-.75-8.56-3.32-12.58-5.82a62.63,62.63,0,0,0-7.64-4.28l-.11-.05V129c-.67-7.58-3.25-21.32-12.88-28.2l-.07,0v-.08c-.33-2.15-3.78-21-23.82-21.36h-.1l-.06-.08c-5.06-7.13-14.73-10.32-22.08-10.32a16,16,0,0,0-7.43,1.52l-.1,0-.1-.06a38.08,38.08,0,0,0-20.41-6.06c-8.48,0-17.12,2.93-25.68,8.7l-.06,0h-.08a12.93,12.93,0,0,0-2.21-.18c-8.81,0-21.11,7.68-25.41,14l0,.08h-.1a13.83,13.83,0,0,1-1.43.07,13.49,13.49,0,0,1-6.55-1.7c-1.13-.57-1.93-.94-2.66-.57-.55.28-1.28,2.46-1.55,5.62-.67,7.66,1.36,17.91,9,23.68l.1.08,0,.12c-1.44,6.79,3.93,17.62,16.72,24.31l.12.06v.13c-.62,11.07,11,19.33,22.28,20.11h.09l0,.07c3.78,5.17,17.29,10.44,26.77,10.44a22.76,22.76,0,0,0,2.55-.13Z"/><path class="cls-23" d="M248.54,129c-.14-1.62-.38-3.56-.77-5.67l-11.93,7s5.23,17.86,6.48,23c9,.39,14.69-1.33,16.27-7Zm-2.7,21.81c-3.13-2.33-5.38-15.11-4.63-18.76.3-1.48,2.6-2.65,4.29-2.52,2.55.21,10.54,14.21,10.14,16.77C255.18,149.14,246.64,152,245.84,150.8Z"/><path class="cls-24" d="M244.69,153.59h0c-.75,0-1.55,0-2.38-.05h-.15l0-.15c-1.24-5.09-6.43-22.83-6.48-23l0-.15L247.92,123l.05.28c.34,1.85.59,3.74.76,5.64l10.08,17.43,0,.09C257.41,151.32,252.93,153.59,244.69,153.59Zm-2.21-.44c.76,0,1.51,0,2.21,0,8.1,0,12.33-2.09,13.69-6.77l-10-17.36V129c-.16-1.8-.4-3.61-.71-5.37l-11.56,6.77C236.58,132.13,241.24,148.12,242.48,153.15Z"/><path class="cls-23" d="M238.22,131.77c-.26-3.37-12.35-12.27-12.35-12.27l-13.25,6.32s1.18,29.25,1.13,34.76c11,.69,23.61-.4,28.57-7.24C242.79,146,238.22,131.77,238.22,131.77Zm-19.58,22.69c0-7.54-1.17-17.66-1.27-22.42-.05-2.24,5.44-6,7.88-6.24,2.76-.23,7,2.71,9.2,6,2.85,4.29,4,14,2.28,19C235.51,154.43,218.64,157.24,218.64,154.46Z"/><path class="cls-24" d="M219.27,161h0c-1.78,0-3.64-.06-5.54-.18h-.18v-.19c0-5.44-1.12-34.46-1.13-34.75v-.13l.12-.06,13.35-6.37.1.07c.49.36,12.11,8.95,12.43,12.39.2.64,4.55,14.46,4.1,21.62v.06l0,0C238,159.66,227.38,161,219.27,161Zm-5.32-.57c1.82.12,3.61.17,5.32.17,8,0,18.44-1.27,22.86-7.29.43-7.24-4-21.3-4.1-21.44v0c-.24-3.09-11-11.22-12.17-12.06l-13,6.21C212.91,128.05,214,154.7,214,160.39Z"/><path class="cls-23" d="M234.14,100.69c-1.67,0-3.74,0-3.74,0-1.27,3.2-4.93,20.71-4.93,20.71s9.64,5.94,12.75,10.37c1.81-1.1,7-5,9.78-7.11-4,1.28-8.34,2.21-10.71,1.14C232.27,123.53,232.53,110,234.14,100.69Z"/><path class="cls-24" d="M238.17,132l-.11-.15c-3.05-4.35-12.6-10.26-12.7-10.32l-.11-.07,0-.14c.15-.71,3.68-17.56,4.95-20.74l.05-.13h.13s.95,0,2.08,0c1.42,0,2.49,0,3.08-.06h.07l.06,0c8.08,5.77,11.26,16.31,12.51,24.13l0,.12-.1.08c-1,.69-2.13,1.57-3.37,2.5-2.45,1.84-5,3.75-6.43,4.62Zm-12.48-10.73c1.15.72,9.54,6,12.58,10.2,1.45-.9,3.88-2.73,6.25-4.51,1.19-.9,2.32-1.75,3.27-2.43-1.25-7.72-4.39-18-12.27-23.72-.62,0-1.64.05-3,.05h-1.94C229.3,104.18,226,119.69,225.69,121.31Z"/><path class="cls-22" d="M213.94,129.52c-.53-2.25-12.7-11.37-12.7-11.37L178.82,124s-4,37.6-5.62,45.57c13.56,1.79,31.32,1.76,40.55-9C217.52,142.36,213.94,129.52,213.94,129.52Z"/><path class="cls-23" d="M213.94,129.52c-.53-2.25-12.7-11.37-12.7-11.37L178.82,124s-4,37.6-5.62,45.57c13.56,1.79,31.32,1.76,40.55-9C217.52,142.36,213.94,129.52,213.94,129.52Zm-5,29.84c-3.18,3.67-24.53,9-26.91,4.5-2.75-5.2,2.54-28.42,4.42-31.29,2.38-3.63,7.56-6.44,12.77-7.28,5.92-1,10.73,3.2,12,9.16C212.42,142,212.42,155.39,209,159.36Z"/><path class="cls-24" d="M185.67,170.62h0a97.29,97.29,0,0,1-12.5-.88l-.21,0,0-.21c1.6-7.87,5.58-45.18,5.62-45.55l0-.14,22.64-5.88.08.06c.5.37,12.24,9.19,12.78,11.49,0,.12,3.54,13.08-.2,31.14v0l0,0C208.23,167.29,198.74,170.62,185.67,170.62Zm-12.24-1.25a94.68,94.68,0,0,0,12.24.85c12.92,0,22.3-3.27,27.89-9.73,3.7-17.93.23-30.79.19-30.91-.42-1.79-9.13-8.64-12.55-11.22L179,124.13C178.74,126.6,175,161.32,173.43,169.37Z"/><path class="cls-23" d="M181.27,128.46s-13-11.69-15.1-13.42c0,0-9,4.71-11.41,6.2,0,0-9.4,34.53-11.07,37.92,4.1,5.62,19.72,11.51,29.51,10.38C182.05,155.82,181.27,128.46,181.27,128.46ZM172,160.76c-5.55,4.76-21.07-.79-20-6.15.92-6.81,5.89-27.8,7.34-29.71.93-2.07,3.71-3.26,5.82-3.84,3.91-.93,11.7,4.67,12.7,9.33C179.88,141.5,177.05,154.3,172,160.76Z"/><path class="cls-24" d="M170.62,169.88h0c-9.58,0-23.25-5.35-27.09-10.6l-.07-.1.06-.11c1.63-3.33,10.95-37.54,11-37.88l0-.08.06,0c2.41-1.48,11.34-6.16,11.43-6.21l.11-.06.1.08c2.07,1.72,15,13.32,15.11,13.44l.06.05v.09c0,.27.69,27.57-8.1,41.19l-.05.08h-.09A23.73,23.73,0,0,1,170.62,169.88Zm-26.7-10.74c3.87,5.14,17.27,10.34,26.7,10.34h0a24,24,0,0,0,2.46-.12c8.42-13.17,8-39.11,8-40.8-1-.88-12.67-11.38-14.93-13.29-1,.56-8.88,4.68-11.21,6.1C154.32,123.59,145.68,155.27,143.92,159.14Z"/><path class="cls-23" d="M156,124s-13.35-8.64-16.08-8.93c0,0-15.84,20-18.69,23.8-.62,11.06,11,19.52,22.46,20.32C153.4,150.47,156.39,129.39,156,124Zm-10.9,27.12c-7.09,5.06-19.84-6.15-17.58-12.7,1.59-4.6,9.28-12.68,13-18.37,3.66-.41,9.87,3.63,12.12,6.26C153.91,128.68,151.45,146.56,145.1,151.09Z"/><path class="cls-24" d="M143.76,159.36h-.08c-11.45-.79-23.28-9.23-22.65-20.53v-.06l0-.05c2.82-3.72,18.54-23.61,18.7-23.81l.07-.08h.1c2.75.3,15.62,8.61,16.17,9l.08,0v.1c.4,5.5-2.56,26.58-12.37,35.36Zm-22.33-20.45c-.58,11,11,19.23,22.19,20,9.61-8.66,12.54-29.29,12.19-34.87-1.12-.72-13-8.36-15.8-8.83C138.86,116.7,124.24,135.21,121.43,138.91Z"/><path class="cls-23" d="M131.69,97.84s-25.9,15.53-27.3,16.53c-1.41,6.88,3.85,17.67,16.84,24.47,10.41-4.78,18.69-23.8,18.69-23.8C141,112.26,133.87,100.65,131.69,97.84Zm5.38,18.44c-2.38,6-7.11,13.19-13.17,16.16-6.45,3.16-16.72-12.61-13.28-16.77,1.21-1.47,5.61-3.82,9.61-6.55,2.83-1.94,7.42-3.9,10.07-5.39C134.85,105.81,137.53,113.5,137.07,116.28Z"/><path class="cls-24" d="M121.23,139.06l-.09-.05c-13-6.82-18.4-17.58-16.94-24.68v-.08l.07,0c1.39-1,26.25-15.91,27.31-16.54l.15-.09.1.14c1.91,2.45,9.42,14.37,8.27,17.39-.09.2-8.44,19.16-18.79,23.91Zm-16.66-24.57c-1.37,6.94,3.9,17.42,16.67,24.13,10.18-4.76,18.42-23.47,18.5-23.66,1-2.53-5.56-13.52-8.1-16.86C129.53,99.36,106.45,113.22,104.57,114.49Z"/><path class="cls-25" d="M97.26,86.66c3.54-.36,6.7,3,10.34.4l.08-.2c-6.8.59-8.69-3.23-10.72-2.19-.44.23-.9,1.29-1.25,2.92A2.83,2.83,0,0,1,97.26,86.66Z"/><path class="cls-23" d="M116.51,95.69c2.38,3,3.37,4.86,1.39,8-2.39,3.17-8.05,5.47-12.9,3.1-5.9-2.88-8.37-10.39-9.5-18.07-1,6.36-.12,18.56,8.68,25.38,4.29.2,17.29-6.78,20.36-10.41Z"/><path class="cls-24" d="M104.37,114.34h-.26l0,0c-7.69-6-9.66-16.33-8.94-24.05.28-3,1-5.35,1.75-5.74a1.76,1.76,0,0,1,.83-.21,5.25,5.25,0,0,1,2.19.77,13,13,0,0,0,6.37,1.66c.45,0,.92,0,1.4-.06h.09l17.06,17.06-.12.14C121.64,107.46,109,114.34,104.37,114.34Zm-.12-.4h.12c4.37,0,16.76-6.69,19.9-10.21L107.6,87.06c-.45,0-.9.06-1.34.06a13.49,13.49,0,0,1-6.55-1.7c-1.13-.57-1.93-.94-2.66-.57-.52.27-1.24,2.26-1.54,5.42C94.81,97.87,96.73,108.07,104.25,113.94Z"/><path class="cls-25" d="M135.49,72.9c-8.61-1.47-23,6.9-27.81,14,8.09-5.86,18.63-11.5,27.93-13.78Z"/><path class="cls-23" d="M144.16,86.46,136.81,75c.6,2,2.9,9.57,2.17,11.44-1,2.67-8.65,12.94-14.44,12-4.47-.71-15.75-10.8-16.54-11.24,1.62,2,9.24,11,16.54,16.48,2.19-.8,7.84-3.67,7.84-3.67C134.56,98.7,144.49,88.05,144.16,86.46Z"/><path class="cls-24" d="M124.51,104l-.09-.07c-8.16-6.09-16.81-16.79-16.9-16.9l-.09-.11.08-.12c4.36-6.45,16.81-14.23,25.74-14.23a13.65,13.65,0,0,1,2.27.18l.09,0,8.74,13.7c.37,1.78-9.77,12.5-11.86,13.81-.07,0-5.71,2.89-7.88,3.68Zm-16.59-17.1c1,1.16,9,10.92,16.66,16.65,2.21-.83,7.66-3.59,7.71-3.62C134.78,98.33,144.1,88,144,86.53l-8.6-13.45a13,13,0,0,0-2.12-.16C124.49,72.92,112.3,80.51,107.92,86.85Z"/><path class="cls-25" d="M181.83,70.83c0-.09,0-.58,0-.58-6.35-4-23.55-12.7-46.31,2.65l.15.23C150.44,66.15,164.73,63.28,181.83,70.83Z"/><path class="cls-23" d="M182.48,74.37c-2,4.54-12.09,12.82-16.46,13.27-5.68.59-18.56-1.38-27.08-9.35l5.22,8.17c3.17,2.18,21.66,9.33,21.66,9.33,2.61-1.66,17.76-12.72,17.76-12.72C183.51,81.33,183,77.44,182.48,74.37Z"/><path class="cls-24" d="M165.84,96l-.09,0c-.76-.29-18.55-7.18-21.71-9.35l0-.05-8.77-13.73.16-.1C144,66.92,152.72,64,161.28,64a38.43,38.43,0,0,1,20.52,6L182,70l.07.26c.27,1.65,1.64,10,1.76,12.85v.11l-.08.06c-.16.11-15.18,11.09-17.77,12.72ZM144.3,86.32c3.1,2.09,20.08,8.69,21.5,9.25,2.69-1.74,16.35-11.71,17.57-12.6-.14-2.84-1.42-10.7-1.72-12.58a38.09,38.09,0,0,0-20.37-6c-8.43,0-17,2.89-25.52,8.6Z"/><path class="cls-25" d="M211.79,80c-.11-.44-.19-.75-.22-.85h0c-7-9.92-23.15-12.44-29.76-8.87v.47C193.06,69.18,204.47,72.41,211.79,80Z"/><path class="cls-23" d="M202.9,90.33c-3.57-.3-13.53-7.11-16.67-9.36-1-.69-3.59-3.26-4.33-5.59l.15,7c1.66,1.39,20.61,15,20.61,15,1.41-1.09,11.28-9.15,11.28-9.15-.19-.7-1.38-5.27-1.85-7.08C212.19,88.28,206.47,90.62,202.9,90.33Z"/><path class="cls-24" d="M202.72,97.63h-.06c-.29,0-20.56-14.9-20.74-15l-.07-.06-.26-12.38.11-.06a16.38,16.38,0,0,1,7.62-1.57c7.42,0,17.18,3.22,22.34,10.41h.06l.05.15c0,.07,1.91,7.53,2.37,9.16l0,.12-.1.08c-.1.08-9.89,8.08-11.29,9.16Zm-20.47-15.3c1.94,1.57,18.81,13.7,20.4,14.85,1.65-1.29,10-8.14,11.07-9-.5-1.79-2.15-8.29-2.32-9-5.07-7.13-14.74-10.32-22.08-10.32A16.19,16.19,0,0,0,182,70.37Z"/><path class="cls-25" d="M232.94,92.36c-3.23-6.51-9.64-13.08-21.38-13.29l.1.46C220.05,81,227.54,86.05,232.94,92.36Z"/><path class="cls-23" d="M233,92.55c.06,2.07-.5,3.77-1.93,4.61C222.77,88,215.94,88.71,211.79,80c.55,2.2,1.89,7.58,2.15,8.24,3,2.87,16.46,12.41,16.46,12.41l5.17,0A28.41,28.41,0,0,0,233,92.55Z"/><path class="cls-24" d="M230.34,100.85l-.05,0c-.14-.09-13.53-9.58-16.48-12.43l-.05-.07c-.33-.83-2.31-8.85-2.39-9.19l-.06-.25h.26c15.46.27,22.7,11.85,24.2,21.7l0,.22ZM214.11,88.12c2.9,2.78,15.43,11.68,16.35,12.33l4.88,0c-.5-3-4.28-20.64-23.52-21.13C212.16,80.65,213.79,87.23,214.11,88.12Z"/><path class="cls-23" d="M230.48,100.81c-3.74-5.77-16.54-12.53-16.54-12.53s-10.05,8.37-11.77,9.49c.07,2.18-1,21.57-1,21.57,1.65,1.12,10.35,7.64,12.76,10.18,2.48-1.58,10.62-6.84,11.71-8.33C228,117,232.25,105.06,230.48,100.81Zm-1.92,5c.05,3.66-5.09,15.35-13,16.54-4,.79-7.94-2.38-9.13-5.95-2.14-7.5-1.72-15.58-.46-17.6,2.32-3.7,6.29-7.19,9.53-6.35C218,93.15,228.49,100.78,228.56,105.84Z"/><path class="cls-24" d="M213.91,129.78l-.11-.12c-2.41-2.54-11.05-9-12.73-10.16l-.1-.06v-.11c0-.2,1.06-19.4,1-21.55v-.11l.09-.06c1.69-1.11,11.66-9.4,11.76-9.48l.1-.09.12.06c.52.28,12.89,6.86,16.61,12.61,1.88,4.51-2.59,16.61-4.82,20.58-1.09,1.47-8.6,6.37-11.78,8.4Zm-12.53-10.54c1.87,1.29,10.07,7.44,12.59,10,2.62-1.68,10.48-6.78,11.52-8.2,2.32-4.1,6.55-16,4.81-20.18-3.46-5.34-15-11.68-16.33-12.37-1.11.92-9.75,8.09-11.6,9.36C202.4,100.42,201.47,117.53,201.38,119.24Z"/><path class="cls-23" d="M203,97.9c-6.15-9.79-20.91-15.48-20.91-15.48L165.82,94.1v22.13l15.45,12.23s14.75-3.37,20.3-8.4C203.62,111.4,203.58,101.15,203,97.9Zm-6.87,20c-3.7,3-9.36,6-14,5.4-5.08-.64-9.11-5.17-11.66-8.5-1.95-2.55-2.75-16.33-.72-18.82,1.8-2.21,10.69-9.08,12.77-9.55,2.34-.54,15.09,8.72,17.06,12.31C201.21,101.83,199.13,115.48,196.09,117.93Z"/><path class="cls-24" d="M181.22,128.68l-15.6-12.36V94L182,82.2l.1,0c.15.06,14.89,5.82,21,15.56l0,.07c.62,3.26.68,13.49-1.39,22.24l0,.06,0,0c-5.53,5-20.25,8.41-20.4,8.45ZM166,116.13l15.29,12.12c1.26-.3,14.82-3.59,20.08-8.29,2-8.65,2-18.71,1.39-22-5.8-9.19-19.4-14.81-20.7-15.33L166,94.2Z"/><path class="cls-23" d="M144.16,86.46c-5.28,2.78-11.78,13.6-11.78,13.6s5.76,8.89,7.54,15c5.06,4,15.09,9,16.08,8.93,3.17-3,9.82-7.74,9.82-7.74V94.1S153,87,144.16,86.46Zm17.89,27.88c-3.51,4.71-12.11,3.78-15.42,1.94-4.68-2.61-8.45-11.43-8.82-14.62-.53-4.5,4.1-10,7.57-11.34,2.74-1,11.84,2.16,16.12,5.47C163.09,97,163.87,111.9,162.05,114.34Z"/><path class="cls-24" d="M156,124.17c-1.27,0-11.21-5.09-16.17-9l-.05,0,0-.06c-1.75-6-7.46-14.83-7.51-14.92l-.07-.11.06-.1c.27-.45,6.59-10.9,11.85-13.68l.05,0h.06c8.81.49,21.62,7.6,21.75,7.67l.1,0v22.35l-.08.06c-.07,0-6.68,4.79-9.81,7.72l0,0Zm-15.87-9.25c5,3.89,14.56,8.72,15.82,8.85,3-2.78,8.93-7.09,9.7-7.64V94.22c-1.22-.67-13.12-7.07-21.42-7.56-4.88,2.62-10.9,12.28-11.58,13.4C133.27,101.08,138.41,109.23,140.1,114.92Z"/><path class="cls-6" d="M77.21,182.36c-2.44.61-5.75,7.54-4.86,9.37s11.31.41,12-1.68S82.11,181.14,77.21,182.36Z"/><path class="cls-7" d="M78.13,182.22a4.47,4.47,0,0,1,2.06,6c-1.28,2.26-4.38,3.77-6.18,4.22,3.2.46,9.8-.78,10.37-2.43C85.06,188.1,82.47,182,78.13,182.22Z"/><path class="cls-8" d="M75.54,192.78c-1.32,0-3-.17-3.37-1-.49-1,.18-3.19,1-4.88.92-2,2.52-4.4,4-4.77,2.16-.54,4.29.42,5.85,2.62,1.28,1.8,2,4.14,1.55,5.33C84,191.72,78.77,192.78,75.54,192.78Zm2.83-10.37a4.69,4.69,0,0,0-1.11.14c-1.28.32-2.81,2.52-3.76,4.56s-1.32,3.81-1,4.54c.22.46,1.35.73,3,.73,3.45,0,8.21-1.13,8.65-2.39.32-.93-.16-3.09-1.49-5A5.62,5.62,0,0,0,78.37,182.41Z"/><path class="cls-19" d="M198.25,174.77c.29,2.26-2.32,4.57-7.62,5.27s-13.6.75-13.89-1.51c-.13-.94-.08-3.55,1.53-4.65,2.28-1.57,9.24-1.15,12.36-1.56C195.93,171.63,198,172.5,198.25,174.77Z"/><path class="cls-19" d="M255.93,153.55c.63,1.11-.91,3.17-3.44,4.61s-5.1,1.71-5.73.6.92-3.17,3.45-4.61S255.31,152.45,255.93,153.55Z"/><path class="cls-19" d="M243,160.47c.41,1.2-1.49,2.94-4.24,3.89s-5.33.73-5.74-.48,1.49-2.94,4.24-3.89S242.6,159.26,243,160.47Z"/></svg>