<svg id="Layer_1" data-name="Layer 1" xmlns="http://www.w3.org/2000/svg" viewBox="0 0 50 50"><defs><style>.cls-1{fill:#b77e39;}.cls-2{fill:#63330b;}.cls-3{fill:#fff;}.cls-4{fill:#110502;}.cls-5{fill:#a56e32;}</style></defs><path class="cls-1" d="M26.12,2.33c8.25.53,16.35,10.63,15.82,23S32.48,45.09,24.23,44.55,7.52,37.7,8.05,25.33,17.86,1.8,26.12,2.33Z"/><path class="cls-2" d="M34.17,5.59S24.1-1.33,15.82,7.15C21.14-1,29.68-.31,34.17,5.59Z"/><path d="M26.43,6.1C34.18,6.51,42.51,16.91,42,27.53S32.13,45,24.38,44.56,8.45,36,9,25.33,18.68,5.69,26.43,6.1Z"/><path class="cls-3" d="M25.63,48.4a19,19,0,0,1-3.06-.25C15.26,47,9.74,38.72,9.74,28.92c0-13.41,9.51-20.83,16.09-20.83h.5c7.21.38,14,9.49,14.5,19.48.36,7-1.39,12.88-4.92,16.59A13.79,13.79,0,0,1,25.63,48.4Z"/><path d="M25.83,7.59v1h.47c7,.37,13.54,9.25,14,19,.35,6.84-1.35,12.6-4.79,16.22a13.31,13.31,0,0,1-9.91,4.07,19.29,19.29,0,0,1-3-.24c-7.07-1.13-12.41-9.18-12.41-18.74,0-13.09,9.22-20.33,15.59-20.33v-1m0,0c-7.37,0-16.59,8.06-16.59,21.33,0,10.22,5.89,18.55,13.25,19.73a20.3,20.3,0,0,0,3.14.25c10.26,0,16.34-8.76,15.7-21.34-.52-10.21-7.53-19.56-15-20Z"/><path class="cls-4" d="M19.15,17.8c4.7.28,8.26,5.43,8,11.5S22.73,40.09,18,39.81s-8.25-5.42-8-11.5S14.46,17.53,19.15,17.8Z"/><path class="cls-3" d="M14,28.11a3,3,0,0,1,2.44,3.38A2.85,2.85,0,0,1,13.14,34a3,3,0,0,1-2.45-3.38A2.85,2.85,0,0,1,14,28.11Z"/><path class="cls-5" d="M26.35,7.6c7.45.4,14.46,9.75,15,20,.07,0-3.12-8.38-16.59-8.72C14.59,18.58,9.36,28.92,9.24,28.92,9.24,15.34,18.9,7.21,26.35,7.6Z"/></svg>