<svg id="Layer_1" data-name="Layer 1" xmlns="http://www.w3.org/2000/svg" viewBox="0 0 40 50"><defs><style>.cls-1{fill:#e23703;}.cls-2{fill:#fff;}.cls-3{fill:#d6d6d6;}.cls-4{fill:#542416;}.cls-5{fill:#200705;}</style></defs><path class="cls-1" d="M19.25,3.4c15-1.13,19.66,25.13,17,33.6C32.87,47.53,10.13,49,5.47,42.29S1.65,4.74,19.25,3.4Z"/><path d="M9.86,8.1a13.77,13.77,0,0,1,9.39-4.7,11.71,11.71,0,0,1,9.24,3.49,13.88,13.88,0,0,0-9.31-2.74C15.89,4.32,13.3,5.74,9.86,8.1Z"/><path d="M19.25,7.82c15-1,19.66,22.54,17,30.14-3.35,9.45-26.09,10.73-30.75,4.75S1.65,9,19.25,7.82Z"/><path class="cls-2" d="M19.26,9.41C33.9,8.44,38.51,31,35.87,38.31c-3.27,9-25.53,10.28-30.09,4.55S2,10.56,19.26,9.41Z"/><path class="cls-3" d="M36.36,29.77a20,20,0,0,1-.49,8.54c-3.27,9-25.53,10.28-30.09,4.55C4.1,40.75,3.16,35.8,3.49,30.33,6.53,44.79,31.92,43.63,36.36,29.77Z"/><path d="M12.68,46.27C10.29,45.88,7.11,45,5.55,43s-2.34-5.53-2.41-10A33,33,0,0,1,5.72,19.41C7.67,15,11.6,9.63,19.24,9.12c4.66-.31,8.8,1.75,12,6a30.15,30.15,0,0,1,5.12,12.49c.79,4.31.73,8.37-.17,10.85a10,10,0,0,1-4.87,5.12,25.56,25.56,0,0,1-8.13,2.64,35.18,35.18,0,0,1-5.68.46A30.54,30.54,0,0,1,12.68,46.27ZM19.28,9.7c-7.35.49-11.14,5.68-13,10-3.84,8.7-2.81,19.8-.24,23,1.7,2.14,6.18,3.38,11.41,3.38a34.52,34.52,0,0,0,5.64-.47c6.57-1.07,11.26-3.84,12.54-7.38.85-2.35.91-6.4.15-10.55a29.5,29.5,0,0,0-5-12.23c-2.87-3.82-6.42-5.76-10.54-5.76Z"/><ellipse class="cls-4" cx="18.46" cy="32" rx="8.26" ry="10.51" transform="translate(-4.49 3.05) rotate(-8.43)"/><ellipse cx="18.55" cy="33.93" rx="5.94" ry="6.34" transform="translate(-3.77 2.35) rotate(-6.58)"/><path class="cls-2" d="M18.39,27.68A2.62,2.62,0,0,0,21.21,30a2.58,2.58,0,0,0,2.49-2.67A2.61,2.61,0,0,0,20.88,25,2.56,2.56,0,0,0,18.39,27.68Z"/><path class="cls-5" d="M13.38,40.22A12.43,12.43,0,0,1,10,33a12.16,12.16,0,0,1,1.51-7.81,7.63,7.63,0,0,1,5.64-3.85c4.68-.52,9.1,3.84,9.85,9.74S24.5,42.17,19.81,42.7a6.79,6.79,0,0,1-.78,0A8,8,0,0,1,13.38,40.22Zm3.8-18.37A7.06,7.06,0,0,0,12,25.42a11.67,11.67,0,0,0-1.44,7.47,11.94,11.94,0,0,0,3.26,7,7.26,7.26,0,0,0,5.94,2.31c4.37-.49,7.34-5.45,6.64-11-.67-5.3-4.4-9.3-8.5-9.3C17.65,21.81,17.41,21.83,17.18,21.85Z"/></svg>