<svg id="Layer_1" data-name="Layer 1" xmlns="http://www.w3.org/2000/svg" viewBox="0 0 256 256"><defs><style>.cls-1{opacity:0.2;}.cls-2{fill:#161616;}.cls-3{fill:#ff9f2c;stroke:#b5650d;}.cls-14,.cls-3,.cls-6,.cls-9{stroke-miterlimit:10;}.cls-4{fill:#b5650d;}.cls-5{fill:#35374c;}.cls-6{fill:#35467a;stroke:#1d2c54;}.cls-7{fill:#233559;}.cls-8{fill:#2b3245;}.cls-17,.cls-9{fill:#eee1b7;}.cls-9{stroke:#3d3c21;}.cls-10{fill:#fff;}.cls-11{fill:#1b1b26;}.cls-12{fill:#191928;}.cls-13{fill:#f9f5f2;}.cls-14{fill:#faa02c;stroke:#af6617;}.cls-15{fill:#c7323e;}.cls-16{fill:#ad886f;}.cls-18{fill:#3d3c21;}</style></defs><g class="cls-1"><ellipse class="cls-2" cx="128.18" cy="232.25" rx="64.43" ry="16.52"/></g><path class="cls-3" d="M166.1,211.68s-2,7.31,1.72,13.1c2.42,3.83-4.34,6.72-4.34,6.72l-15.2,10.85a2.31,2.31,0,0,1-3.17-.47c-1.18-1.52-3.61-2.93-8.27-.16,0,0-.71-6.46-7.58-2.57,0,0,3.32-5.16-3.89-3.24l7.74-5.44a21.73,21.73,0,0,1,2-1.28A73.09,73.09,0,0,1,148.38,224l4.76-1.52.51-8S161.6,204.39,166.1,211.68Z"/><path class="cls-4" d="M136.66,241.63a9.52,9.52,0,0,1,1.48-6,14.25,14.25,0,0,1,4.05-4.27A14.86,14.86,0,0,1,147.5,229a13.88,13.88,0,0,1,3-.27,11.74,11.74,0,0,1,3.12.56l.13.38c-1.61.69-3.22,1.39-4.77,2.19a38.37,38.37,0,0,0-4.48,2.71,32.66,32.66,0,0,0-4.07,3.26,22.88,22.88,0,0,0-1.79,1.9,15.72,15.72,0,0,0-1.59,2.06Z"/><path class="cls-4" d="M129.57,238.22a10,10,0,0,1,2-5.49,15.63,15.63,0,0,1,4.06-3.93,16.43,16.43,0,0,1,5.08-2.3,17.14,17.14,0,0,1,2.78-.45,12.7,12.7,0,0,1,2.93.19l.1.28c-1.61.67-3.2,1.35-4.75,2.13a38.49,38.49,0,0,0-4.47,2.63,32.11,32.11,0,0,0-4.07,3.19,22.58,22.58,0,0,0-1.8,1.86,14.57,14.57,0,0,0-1.58,2Z"/><path class="cls-4" d="M152.31,222.62a5.61,5.61,0,0,1,3.67-3.29,7.92,7.92,0,0,1,4.39-.11,8.15,8.15,0,0,1,3.66,2,8.65,8.65,0,0,1,1.34,1.74,8.23,8.23,0,0,1,.83,2.35l-.2.35c-1.08-.53-2.15-1-3.25-1.49a25.41,25.41,0,0,0-3.36-1.11,15.68,15.68,0,0,0-3.46-.54,10.21,10.21,0,0,0-1.75.06,6.2,6.2,0,0,0-1.68.35Z"/><path class="cls-3" d="M124.2,211.42s-1.8,1.56,1.26,7.71c2,4.06-4.29,6.23-4.29,6.23l-16.25,9.21a2.31,2.31,0,0,1-3.1-.79c-1-1.64-3.28-3.29-8.21-1,0,0,0-6.51-7.28-3.35,0,0,3.85-4.78-3.53-3.62l8.27-4.61a24.08,24.08,0,0,1,2.16-1.07,73.32,73.32,0,0,1,13.7-3.77l4.89-1-.73-6.6S120.48,203.7,124.2,211.42Z"/><path class="cls-4" d="M93.44,232.65a9.6,9.6,0,0,1,2.1-5.87A14.21,14.21,0,0,1,100,223a14.88,14.88,0,0,1,5.53-1.72,14,14,0,0,1,3,0,11.93,11.93,0,0,1,3,.88l.09.39c-1.68.52-3.35,1-5,1.68a39.3,39.3,0,0,0-4.73,2.24,32.12,32.12,0,0,0-4.39,2.82,21.38,21.38,0,0,0-2,1.7,15.88,15.88,0,0,0-1.79,1.88Z"/><path class="cls-4" d="M86.74,228.52a10,10,0,0,1,2.54-5.25,15.56,15.56,0,0,1,4.44-3.49,16,16,0,0,1,8.11-1.92,12.76,12.76,0,0,1,2.89.49l.07.3c-1.66.49-3.32,1-4.94,1.61a39.36,39.36,0,0,0-4.71,2.16,32.63,32.63,0,0,0-4.39,2.75,24.16,24.16,0,0,0-2,1.66A14.86,14.86,0,0,0,87,228.69Z"/><path class="cls-4" d="M111,215.36a5.61,5.61,0,0,1,4-2.88,7.79,7.79,0,0,1,4.38.35,8.2,8.2,0,0,1,3.43,2.4,8.76,8.76,0,0,1,1.15,1.87,8,8,0,0,1,.58,2.42l-.23.33c-1-.64-2-1.25-3.08-1.82a24.53,24.53,0,0,0-3.23-1.45,15.85,15.85,0,0,0-3.39-.9,10.11,10.11,0,0,0-1.74-.12,6.41,6.41,0,0,0-1.71.17Z"/><path class="cls-5" d="M131.69,22.77s5.93-14.48-.56-15.49-1,15.89-1,15.89Z"/><path class="cls-5" d="M128.87,19.51s-3.91-7.72-6.35-4.36,6,5.39,6,5.39Z"/><path class="cls-5" d="M133.1,19.67c-.42,0-.27-5.76,9.94-5.36C149.23,14.54,133.1,19.67,133.1,19.67Z"/><path class="cls-6" d="M91.24,140.14s-27.69,32.61,7,61.93C98.19,202.07,120.66,172.42,91.24,140.14Z"/><path class="cls-7" d="M111.32,209.33c0-1.2,1.69-4.69,1.09-7.91-11-20.85-20.31-48.8,10.63-74.07,20.46-16.72,29.61-12.79,34.84,36.46-6.06,39.57-30.37,44.92-31.35,48l-.71,1.43c-.95,1.07.36,4-1,4.22-3.19.6-11.31-1.19-12.91-4A36.85,36.85,0,0,1,111.32,209.33Z"/><path class="cls-8" d="M105.7,77.67c-.6,1.6-4.75,30.21-39.59,33.07,0,0-17.43-1.5-5.43,12s40,15.17,55.41-4.82S105.7,77.67,105.7,77.67Z"/><path class="cls-5" d="M108.11,69.23c-1.82-1.29-15.46-12.77-4.45-34.76s50.91-20.57,64.23-5.72,11.6,34.56,15.89,54,15.14,53.41,15.71,78.26-9.14,43.54-32.56,51.9-62,6.76-75.69-20.71,3.71-80,9.71-96.43S111,71.24,108.11,69.23Z"/><path class="cls-9" d="M98.09,200.12c33.64,26.32,66.15-5.13,69.22-36,2.51-25.31-3.84-52.53-6.2-78.83-.52-5.77,2.33-13.39,2.33-19,0,0,8.52-23.77-10.89-30.9-13.05-4.79-28.13,2.38-24.37,26.94.63,4.09-7.63-4.23-5.91.71,0,0,6.18,2.5-1-4.87,0,0-3.49,7.24-2.38,2.77.9-3.56.67-17.65-2.77-21.59C108,30,96.57,41.84,100.51,55v0c.52,1.74-.17,1.69.92,3.47,0,0-4.77,4.49-.39,15,5.61,13.42-5.72,36-9.52,53.12S80,186,98.09,200.12Z"/><ellipse class="cls-10" cx="138.99" cy="51.88" rx="9.1" ry="8.31" transform="translate(79.13 187.63) rotate(-86.67)"/><path class="cls-11" d="M130.73,51.6a9.49,9.49,0,0,0,2.13,6.28,7.45,7.45,0,0,0,11.47.07,9,9,0,0,0,2.29-5.82,8.94,8.94,0,0,0-1.85-6,7.52,7.52,0,0,0-5.47-3,7.68,7.68,0,0,0-6,2.36A9.53,9.53,0,0,0,130.73,51.6Zm-.08,0a9.68,9.68,0,0,1,2.54-6.22,8.08,8.08,0,0,1,6.13-2.65,8,8,0,0,1,6,3,9.73,9.73,0,0,1-.47,12.64A8.08,8.08,0,0,1,138.66,61a8,8,0,0,1-5.94-3A9.64,9.64,0,0,1,130.65,51.6Z"/><ellipse class="cls-12" cx="140.35" cy="50.94" rx="5.39" ry="5.07" transform="translate(70.56 182.93) rotate(-82.08)"/><ellipse class="cls-13" cx="144.03" cy="48.88" rx="0.99" ry="1.49" transform="translate(-7.49 35.58) rotate(-13.73)"/><ellipse class="cls-10" cx="110.91" cy="51.45" rx="7.89" ry="6.23" transform="translate(58.22 161.78) rotate(-89.36)"/><path class="cls-11" d="M104.72,51.19a9.31,9.31,0,0,0,1.49,5.22A5.59,5.59,0,0,0,110.65,59a5.3,5.3,0,0,0,4.27-2.43,9.36,9.36,0,0,0,.31-9.8,5.45,5.45,0,0,0-4.06-2.81,5.39,5.39,0,0,0-4.63,2.15A9.09,9.09,0,0,0,104.72,51.19Zm-.07,0A9.16,9.16,0,0,1,106.4,46a5.75,5.75,0,0,1,4.79-2.45,6,6,0,0,1,4.59,2.86,9.44,9.44,0,0,1,1.43,5.33,9.29,9.29,0,0,1-1.77,5.23,5.77,5.77,0,0,1-4.81,2.44,5.94,5.94,0,0,1-4.57-2.87A9.34,9.34,0,0,1,104.65,51.19Z"/><ellipse class="cls-12" cx="111.82" cy="50.84" rx="4.04" ry="4.78"/><ellipse class="cls-13" cx="114.66" cy="49.22" rx="1.28" ry="1.51"/><path class="cls-14" d="M121,75.67c3.15.21,14.89-7.76,14.81-10h0a.09.09,0,0,0,0-.09c0-.08-.24,0-.61.12l-.28.07a4.81,4.81,0,0,1-2.14.18c-2.24-.41-5.73-4.85-10.36-8.14a1.57,1.57,0,0,0-.36-.19.66.66,0,0,0-.28-.11,1.18,1.18,0,0,0-.31,0,.65.65,0,0,0-.24,0,1.17,1.17,0,0,0-.26,0l-.27.09,0,0a1,1,0,0,0-.26.12l-.28.17c-2.4,1.61-4.66,7.06-6.33,6.8a0,0,0,0,0,0,0l-.21,0c-.4,0-1.19,0-1.34.53a2.15,2.15,0,0,0,0,.43.31.31,0,0,1,0,.11C112.22,67.83,119.26,75.55,121,75.67Z"/><path class="cls-15" d="M118.49,71.16c3.91,0,7.22-1.71,8.85-2.38s7.9-3.11,7.9-3.11-10.49,3-12,3c-2.76,0-5.45-2.34-5.45-2.34s-1.59,1.53-2.69,1.14a2.89,2.89,0,0,1-1-.39C114.62,68.17,115.92,71.13,118.49,71.16Z"/><path class="cls-14" d="M113.44,66.57a7,7,0,0,0,1.19.72c1.72.73,3.13-1,3.13-1a9.85,9.85,0,0,0,5.45,2.34c1.25.14,5.89-1,7.71-1.47,2.55-.68,4.93-1.55,4.93-1.55h0c-.05-.06-.26,0-.6,0l-.28.07a4.81,4.81,0,0,1-2.14.18c-2.24-.41-5.73-4.85-10.36-8.14a1.57,1.57,0,0,0-.36-.19.66.66,0,0,0-.28-.11,1.18,1.18,0,0,0-.31,0,.65.65,0,0,0-.24,0,1.17,1.17,0,0,0-.26,0l-.27.09,0,0a1,1,0,0,0-.26.12l-.28.17c-2.4,1.61-4.66,7.06-6.33,6.8a0,0,0,0,0,0,0l-.21,0c-.4,0-1.19,0-1.34.53A6.4,6.4,0,0,0,113.44,66.57Z"/><path class="cls-5" d="M160.32,72.35c.19,1.53-.12,26.45-16.24,35.25-32.93,18-33.8,37.38-24.86,40.92,10.58,4.19,63.44-22.75,66.87-51.88"/><path class="cls-16" d="M135.14,64.34a3.91,3.91,0,0,1,1.62.14.92.92,0,0,1,.51.45,1.27,1.27,0,0,1,.09.71,6.08,6.08,0,0,1-.46,1.55c-.21.51-.45,1-.68,1.55a8.11,8.11,0,0,0,1-1.4,4.63,4.63,0,0,0,.59-1.66,1.65,1.65,0,0,0-.16-.94,1.21,1.21,0,0,0-.78-.59,2.44,2.44,0,0,0-.89,0A3.08,3.08,0,0,0,135.14,64.34Z"/><path class="cls-16" d="M113.28,63.24a2.77,2.77,0,0,0-.76-.22,1.79,1.79,0,0,0-.82.08,1.06,1.06,0,0,0-.39.24,1,1,0,0,0-.25.38,2,2,0,0,0-.09.86,4.64,4.64,0,0,0,.52,1.52,7.51,7.51,0,0,0,.86,1.3c-.18-.49-.38-1-.56-1.44a6.24,6.24,0,0,1-.4-1.43,1,1,0,0,1,.44-1.13,1.71,1.71,0,0,1,.69-.17A4.85,4.85,0,0,1,113.28,63.24Z"/><path class="cls-5" d="M199.53,169.05c-6.06,39.57-27.43,46.25-32.8,50.31h0a6.59,6.59,0,0,1-3.73,2.12c-3.19.56-7.84.14-9.91-2.1,0,0-2.89-4.43-2.86-5.4,0-1.2,4.43-4.11,3.83-7.32-11-20.85-18.12-48.52,12.81-73.8"/><path class="cls-5" d="M145.69,111.68c-.86-2.1-21.93-1.64-22.32,4.24s10.72-1,6.5,10.07S152.38,128.22,145.69,111.68Z"/><path class="cls-8" d="M86.15,104.33c1.5,1-2.35,11.36-7,10s2.54-5.09-6.79-5.85S74.32,96.7,86.15,104.33Z"/><path class="cls-17" d="M157.7,38.73s5.17,2.66,7.72,14.26c3.05,13.84,1.39,28.92-19.8,33.67"/><path class="cls-18" d="M157.74,38.64a10,10,0,0,1,3.12,2.4,22.49,22.49,0,0,1,2.39,3.17,30.49,30.49,0,0,1,3.14,7.25c.38,1.27.72,2.53,1,3.81a39.38,39.38,0,0,1,.66,3.91,31.8,31.8,0,0,1,0,8,23.33,23.33,0,0,1-2.44,7.86,20.41,20.41,0,0,1-5.29,6.3,24.62,24.62,0,0,1-7.06,3.82c-.63.22-1.27.37-1.9.56l-1.91.45-1.92.35-1.93.2,0-.19a31.2,31.2,0,0,0,13.7-6.41,22,22,0,0,0,2.62-2.75,21.4,21.4,0,0,0,2-3.2A23.29,23.29,0,0,0,166.13,67,41.21,41.21,0,0,0,165,51.81a33.72,33.72,0,0,0-2.58-7.17,15.05,15.05,0,0,0-4.76-5.82Z"/><path class="cls-17" d="M100.22,70.15s1.66,10.32,13.51,13.51"/><path class="cls-18" d="M100.22,70.15a21.52,21.52,0,0,0,2.13,4.49,20.09,20.09,0,0,0,3.05,3.81,19.84,19.84,0,0,0,3.87,3c.68.46,1.44.78,2.17,1.18s1.53.65,2.29,1c-.82-.16-1.65-.33-2.47-.57a17.29,17.29,0,0,1-2.37-1A15.86,15.86,0,0,1,101.67,75,13.43,13.43,0,0,1,100.22,70.15Z"/></svg>