<svg id="Layer_1" data-name="Layer 1" xmlns="http://www.w3.org/2000/svg" viewBox="0 0 512 560"><defs><style>.cls-1,.cls-2{fill:#f9dad2;}.cls-1,.cls-19,.cls-5,.cls-6,.cls-9{stroke:#4c2606;stroke-miterlimit:10;}.cls-3{fill:#4c2606;}.cls-4{fill:#323232;opacity:0.4;}.cls-5{fill:#9e3d26;}.cls-17,.cls-6{fill:#d35d3d;}.cls-7{fill:#fff;}.cls-8{fill:#eab6ac;}.cls-9{fill:#aa4027;}.cls-10{fill:#b24a32;}.cls-11{fill:#c14d33;}.cls-12{fill:#2d1c15;}.cls-13{fill:#f58778;}.cls-14{fill:#7a2f2b;}.cls-15{fill:#f9f6f2;}.cls-16{fill:#e3ae9f;}.cls-18{fill:#efa69a;}.cls-19{fill:#9e3a23;}</style></defs><path class="cls-1" d="M145.79,218s.85,6.14,3.78,9.44,11,17.46,3.68,27.18-22.08,1.22-27.93-3.87-9.82-12.55-4.72-13.31c0,0-5.19-4.53-3.68-9.43a2.44,2.44,0,0,1,3.21-1.42s-3.12-4.81-.19-7.08c0,0,2.55-1.69,5.28,1.42a1.93,1.93,0,0,1,1.32-2.83c2.36-.66,4.06,1.23,7.36,4.72a61.92,61.92,0,0,0,7,6.23l2-.1s.09-1.71-1.89-4.25c-1.7-2.17-1.13-7.92,2.45-8.11A1.8,1.8,0,0,1,145.79,218Z"/><path class="cls-2" d="M142.77,228.24a4.3,4.3,0,0,1-.28,2.74c-.66,1.22-2.83,6.32-.75,9.62"/><path class="cls-3" d="M143.26,228.12a5.27,5.27,0,0,1,0,1.77,3.77,3.77,0,0,1-.25.87,3.86,3.86,0,0,1-.2.41l-.18.33a15.09,15.09,0,0,0-1.17,2.92,11.4,11.4,0,0,0-.48,3.12,6.1,6.1,0,0,0,.74,3.06,6.2,6.2,0,0,1-1-3,11.45,11.45,0,0,1,.24-3.25,17.36,17.36,0,0,1,1-3.12l.17-.38a1.89,1.89,0,0,0,.13-.33,3.13,3.13,0,0,0,.14-.69,4.46,4.46,0,0,0-.12-1.42Z"/><path class="cls-2" d="M137.87,230.32a90.3,90.3,0,0,0-9.53,15"/><path class="cls-3" d="M137.87,230.32c-1.51,2.58-3.14,5-4.73,7.53l-4.8,7.47a34.35,34.35,0,0,1,4-8A41.71,41.71,0,0,1,137.87,230.32Z"/><path class="cls-1" d="M124.85,219.94s4.15,8,10.94,13.21"/><path class="cls-1" d="M119.66,225.69s7.73,10.1,12.45,13"/><path class="cls-1" d="M118.24,234.85s6.79,6.41,10.66,9.24"/><path class="cls-1" d="M333.69,359.77s-7.71-.79-19.45,4.64a58,58,0,0,0-1.8,8.84c-.35,3.83,3,11.1,3.43,14.07s2.8,3.67,4.73.55-3.55-7.43,1.25-9.41c0,0,5,6.21,4.89,13.17,0,0-.69,3.68,1.13,4,0,0,1.24.19,2.23-1.46,0,0,.45,1.65,2.46.46a8.58,8.58,0,0,0,3.05-3.78s2.26,1,3.41-3.43a24.27,24.27,0,0,0,0-14.26C337.32,367.07,334.15,361.7,333.69,359.77Z"/><path class="cls-2" d="M328.86,395.22s1.33.21,2.44-5.07.51-8.75-1.2-12.15"/><path class="cls-3" d="M328.94,394.72c-.16,0-.05,0,0,0l.14-.09a2,2,0,0,0,.31-.33,4.72,4.72,0,0,0,.53-.91,13.22,13.22,0,0,0,.76-2.08,26.88,26.88,0,0,0,.9-4.44A15.79,15.79,0,0,0,330.1,378a16.35,16.35,0,0,1,1.62,4.29,16.59,16.59,0,0,1,.32,4.61,27.07,27.07,0,0,1-.66,4.57,14.65,14.65,0,0,1-.69,2.26,5.17,5.17,0,0,1-.57,1.09,2.63,2.63,0,0,1-.44.53,1.74,1.74,0,0,1-.33.23,1,1,0,0,1-.57.13Z"/><path class="cls-2" d="M334.47,393s4.06-5.16.9-17.29"/><path class="cls-3" d="M334.08,392.66a11.43,11.43,0,0,0,1.66-3.87,20.32,20.32,0,0,0,.57-4.33,29.58,29.58,0,0,0-.18-4.41l-.32-2.2-.44-2.17.57,2.15.44,2.18a31.48,31.48,0,0,1,.43,4.45,21.24,21.24,0,0,1-.34,4.49,15.54,15.54,0,0,1-.59,2.2,8.6,8.6,0,0,1-1,2.13Z"/><path class="cls-3" d="M323.07,381.26a16,16,0,0,0-1.6-2.84,9.55,9.55,0,0,0-2.31-2.35,9.83,9.83,0,0,1,2.69,2,16.53,16.53,0,0,1,2.11,2.71Z"/><ellipse class="cls-4" cx="261.09" cy="481.66" rx="77.8" ry="18.79"/><path class="cls-5" d="M302,478.41a17.25,17.25,0,0,1-.1,5.08s-4.89,4.31-18.26,2.9-12.76-5.47-12.76-5.47-2.33-.68-2.83-1.56v-4.45Z"/><path class="cls-6" d="M268.15,475.65s0,1.1,3.06,2.69a27.89,27.89,0,0,0,8.43,3.65c8.1,2.07,18.11.27,22.06-2.3,0,0,1.87-1.84-3.06-6.61a19.15,19.15,0,0,0-4.73-3.27,31.4,31.4,0,0,0-6.71-6.37l-2.39-1.75-13.93-2.33a4.57,4.57,0,0,0-2.1,5.39Z"/><path class="cls-6" d="M287.52,463.77s-1.44-1.39-7.1.24-11.25,5.56-11.84-1.14"/><path class="cls-1" d="M270.88,459.36V466s1.58,1.23,7.11-1.55c0,0,4.27-1.92,7.23-.94l-.28-4.24-14.12-.13"/><path class="cls-7" d="M280.5,469.89a5.24,5.24,0,0,1,2-2.38,7.73,7.73,0,0,1,2.91-1.19,9,9,0,0,1,3.11,0,10.43,10.43,0,0,1,1.48.41,8.84,8.84,0,0,1,1.37.7l0,.1-1.42-.28c-.48-.05-1-.13-1.44-.14a12.58,12.58,0,0,0-2.88.18,10.08,10.08,0,0,0-2.73.91,7.48,7.48,0,0,0-2.28,1.74Z"/><path class="cls-7" d="M282.21,471.6a5.24,5.24,0,0,1,2-2.38,8.12,8.12,0,0,1,2.92-1.19,9,9,0,0,1,3.1,0,10.43,10.43,0,0,1,1.48.41,8.84,8.84,0,0,1,1.37.7l0,.1-1.42-.28c-.48,0-1-.13-1.44-.14a12.58,12.58,0,0,0-2.88.18,10.08,10.08,0,0,0-2.73.91,7.48,7.48,0,0,0-2.28,1.74Z"/><path class="cls-7" d="M284,473.13a5.24,5.24,0,0,1,2-2.38,8.12,8.12,0,0,1,2.92-1.19,8.72,8.72,0,0,1,3.1,0,7.38,7.38,0,0,1,2.85,1.1l0,.1-1.43-.28c-.48,0-1-.13-1.44-.14a12.61,12.61,0,0,0-2.88.18,10.08,10.08,0,0,0-2.73.91,7.48,7.48,0,0,0-2.28,1.74Z"/><path class="cls-5" d="M211.25,480a17.64,17.64,0,0,0,.1,5.08s4.71,4.31,17.61,2.9,12.32-5.47,12.32-5.47,2.25-.68,2.73-1.55v-4.45Z"/><path class="cls-6" d="M243.91,477.27s0,1.1-2.95,2.7a26.56,26.56,0,0,1-8.13,3.64c-7.82,2.07-17.48.27-21.29-2.3,0,0-1.81-1.83,3-6.61a18.53,18.53,0,0,1,4.57-3.27,30.62,30.62,0,0,1,6.48-6.37l2.3-1.75L241.28,461a4.63,4.63,0,0,1,2,5.39Z"/><path class="cls-6" d="M225.22,465.39s1.4-1.39,6.85.24,10.86,5.56,11.43-1.14"/><path class="cls-1" d="M241.28,461v6.61s-1.52,1.23-6.86-1.55c0,0-4.12-1.92-7-.94l.27-4.24,13.63-.12"/><path class="cls-7" d="M231.92,471.57a15.95,15.95,0,0,0-5-1.86c-.43-.08-.85-.16-1.28-.2s-.87-.07-1.32-.14l-1.37-.09c-.47,0-.94,0-1.45-.12l0-.1,1.38-.3c.47-.06.94-.15,1.41-.17a11.75,11.75,0,0,1,2.84.14,8.48,8.48,0,0,1,4.85,2.78Z"/><path class="cls-7" d="M230.27,473.28a17.3,17.3,0,0,0-2.49-1.17,16.81,16.81,0,0,0-2.47-.69c-.43-.08-.85-.16-1.28-.2s-.87-.07-1.32-.14l-1.37-.09c-.47,0-.94,0-1.45-.12l0-.1,1.38-.3c.47-.06.94-.15,1.41-.17a11.75,11.75,0,0,1,2.84.14,8.53,8.53,0,0,1,4.85,2.78Z"/><path class="cls-7" d="M228.53,474.81a16.38,16.38,0,0,0-5-1.86,11,11,0,0,0-1.28-.19c-.43-.09-.87-.08-1.32-.15l-1.37-.09a12.15,12.15,0,0,1-1.44-.12l0-.1,1.38-.3c.47-.06.94-.15,1.41-.17a11.75,11.75,0,0,1,2.84.14,8.53,8.53,0,0,1,4.85,2.78Z"/><path class="cls-6" d="M232.18,247.31l-.68.11c-2.6.52-15.37,4.06-27.14,17.45-5.43,6.17-10.59,8.74-14.05,10.81-5.34,3.18-7.57,3.78-7.57,3.78l-24.58-37a109.9,109.9,0,0,1-21.61,19.18s15.12,31.88,41.33,47.55c0,0,28.37-3.24,38.36-17,0,0-3.24,26.2-4.05,52.95s-.54,52.14,13.51,116.17c0,0,9.45,6.48,17.83.81,0,0,8.19-53.95,5.76-80.69,0,0,6.75,1.53,12.34.45,0,0,7.83,60.78,7.29,76.72,0,0,6.49,7.3,17.56,1.62,0,0,14.32-62.94,15.13-84.28s-5.67-58.63-5.67-58.63,12.15,23.78,16.21,47c0,0,18.64.27,24-7.56,0,0-7.83-24.05-17.29-46.74s-20-48.09-32.15-56.46-27.55-5.14-27.55-5.14"/><path class="cls-6" d="M238.3,240.65s-.72-4-9,5.76c0,0-1.08,5.77,15.13,10.27s26.83-3.42,31.16-7.75c0,0-1.44-8.46-11.53-6.48S238.3,240.65,238.3,240.65Z"/><path class="cls-1" d="M269.82,231.46a22.92,22.92,0,0,0-2.78,8.71,12,12,0,0,0,0,1.55,4,4,0,0,1-1.88,3.51c-10.77,6.7-21.69,1.69-26.07-.92a2.76,2.76,0,0,1-1.19-3.26l0-.1c.83-2.55.24-3.72.24-3.72S274,223.54,269.82,231.46Z"/><path class="cls-8" d="M269.32,231.46a23.53,23.53,0,0,0-2.69,8.71c-9.93,4.48-21.83,2.44-28.15.78.8-2.55.23-3.72.23-3.72S273.32,223.54,269.32,231.46Z"/><path class="cls-6" d="M223.44,90a36.43,36.43,0,0,0-23.91-18.54c-19.25-4.65-38.46,6.5-42.92,24.93s7.55,37.12,26.8,41.77a37.27,37.27,0,0,0,11,1"/><path class="cls-9" d="M208.45,101.36a17.54,17.54,0,0,0-11.52-8.94c-9.28-2.24-18.53,3.14-20.68,12s3.64,17.89,12.91,20.13a17.81,17.81,0,0,0,5.3.47"/><path class="cls-6" d="M352.67,149a101.13,101.13,0,0,1-1,14.1c-6,43.27-39.52,72-81.52,72-3.13,0-6.23.12-9.29.3-1.81.1-3.59.23-5.36.35h-.22c-19.54,1.4-36.77,3.17-49.61-14.62-4.34-6-9.35-34-12.47-40.92a107.55,107.55,0,0,1-9.68-43.91c0-51,32.75-76.73,79.16-76.73S352.67,98,352.67,149Z"/><path class="cls-10" d="M255.53,235.72l.19.46-.58.06.17-.51.11-.3Z"/><path class="cls-10" d="M350.42,165.77c-5.86,41.18-38.69,68.52-79.8,68.52-3.07,0-6.11.11-9.1.28C278.56,230.52,329.71,215.57,350.42,165.77Z"/><path class="cls-11" d="M188.12,126.13s-1.45-14.23,9.85-16.7,26.07,13.42,44,13.14,50.4-16.42,65.47.82,22.59,75.83-26.66,105.67c0,0-25.49,11.49-45.19,7.66,0,0,4-6.82-19.18-24.89s-24.56-40-26.59-55A232.5,232.5,0,0,1,188.12,126.13Z"/><path class="cls-1" d="M314.14,170.94c-1.5,21.17-11,44.62-35.22,60.16,0,0-23.78,11.35-42.15,7.57,0,0-8.64,0-30.26-17.83-19.36-16-12.47-40.43-12.2-56a35.11,35.11,0,0,0-.22-5,242.06,242.06,0,0,1-1.62-30.26s-1.35-14.05,9.18-16.47,24.31,13.23,41.07,13,47-16.22,61,.81C310.4,134.86,315.47,152,314.14,170.94Z"/><path class="cls-12" d="M314.14,170.94c-4.18,3.23-7.65,5.72-20.9-22.77-16.93-36.42-53.76-18.92-53.76-18.92L237,127.63c-46.28-16.45-37.33,26.74-42.73,37.19a35.11,35.11,0,0,0-.22-5,242.06,242.06,0,0,1-1.62-30.26s-1.35-14.05,9.18-16.47,24.31,13.23,41.07,13,47-16.22,61,.81C310.4,134.86,315.47,152,314.14,170.94Z"/><path class="cls-12" d="M224.1,174.41a9.81,9.81,0,0,0-1.92,2.57,6.71,6.71,0,0,0-.84,2.91,14.54,14.54,0,0,0,0,1.48,8.41,8.41,0,0,0,.36,1.46,8.28,8.28,0,0,0,.58,1.37,7.78,7.78,0,0,0,.85,1.19,6,6,0,0,0,2.26,1.76,8.31,8.31,0,0,0,2.9.62,8.2,8.2,0,0,0,3-.43,11,11,0,0,0,2.92-1.39l.07.07a9.46,9.46,0,0,1-6,2.53,8.07,8.07,0,0,1-3.26-.56,7,7,0,0,1-2.68-2,9.32,9.32,0,0,1-.94-1.38,9.84,9.84,0,0,1-.6-1.56,7.38,7.38,0,0,1-.31-3.3,8,8,0,0,1,3.48-5.46Z"/><path class="cls-13" d="M261.1,198.13s-12,17.87-26.25,19.66c-19.37,2.44-19.91-19.68-19.91-19.68l19.77,4Z"/><path class="cls-14" d="M261.1,198.13s-13.7,15.47-29.44,15.48c-11.26,0-16.75-16.42-16.75-16.42S233.14,206.49,261.1,198.13Z"/><path class="cls-15" d="M219.44,199.21h0c.25,4.13,3.17,8.23,12.12,8.61,7.29.31,20.36-1.74,26-7.79,1.64-1.75-1.34-.23-1.34-.23s-26.49,4.4-35.63-.39"/><path class="cls-13" d="M259.78,198.82s-33.34,5.46-48.33-4.21C211.45,194.61,223.51,210.74,259.78,198.82Z"/><path class="cls-16" d="M260.86,195.11s7.13-.28,3.32,5.92C264.18,201,265.83,197.41,260.86,195.11Z"/><path class="cls-16" d="M213.61,192.41s-3.26,1.84-.53,6.44C213.08,198.85,207.51,194.76,213.61,192.41Z"/><path class="cls-6" d="M329.14,98.7a38.76,38.76,0,0,1,28.8-12.4c20.66,0,37.42,15.36,37.42,34.31s-16.76,34.31-37.42,34.31a40.22,40.22,0,0,1-11.4-1.63"/><path class="cls-9" d="M341.57,113.24a18.66,18.66,0,0,1,13.87-6c10,0,18,7.41,18,16.54s-8.07,16.53-18,16.53a19.08,19.08,0,0,1-5.49-.79"/><path class="cls-6" d="M297.56,325.39s-7.57-38.63-11.08-55.65"/><path class="cls-6" d="M214.89,306.21s2.16-25.4,4.32-36.74"/><path class="cls-6" d="M182.74,279.46s5,5.58,1.89,14.59"/><path class="cls-17" d="M223,367.8s33.5,33.5,67.35-.72"/><path class="cls-3" d="M223,367.77a55.54,55.54,0,0,0,7.65,5.48,59.25,59.25,0,0,0,8.29,4.31,46.88,46.88,0,0,0,18,4,40,40,0,0,0,9.18-.95,44.81,44.81,0,0,0,8.75-3l2.1-1c.7-.33,1.35-.77,2-1.15a45.25,45.25,0,0,0,3.93-2.53,21.43,21.43,0,0,0,1.91-1.37l1.87-1.42c1.22-1,2.38-2.06,3.58-3.08l.07.07a57.66,57.66,0,0,1-15.15,11.2A40.65,40.65,0,0,1,257,382.57a46.22,46.22,0,0,1-18.31-4.3A58.74,58.74,0,0,1,223,367.84Z"/><path class="cls-18" d="M287.83,337c0,26.56-16.91,31.88-29.44,31.88s-31.07-11.53-31.07-38.09,16.1-60.51,28.63-60.51S287.83,310.45,287.83,337Z"/><ellipse class="cls-19" cx="324.03" cy="354.56" rx="3.24" ry="2.97"/><ellipse class="cls-19" cx="148.07" cy="261.99" rx="3.24" ry="2.97"/><path class="cls-17" d="M290,283s4.06-.27,3.25-11.61"/><path class="cls-3" d="M290,282.47a2,2,0,0,0,1.07-.61,4.77,4.77,0,0,0,.86-1.19,10.86,10.86,0,0,0,1-2.95,23.88,23.88,0,0,0,.36-3.16c.06-1.06,0-2.13,0-3.2.09,1.06.2,2.13.22,3.2a23.4,23.4,0,0,1-.12,3.24,11.76,11.76,0,0,1-.77,3.2,5.69,5.69,0,0,1-.91,1.47,2.89,2.89,0,0,1-1.63,1Z"/><path class="cls-17" d="M217,283.24s-4.33-2.7-2.88-14.05"/><path class="cls-3" d="M216.7,283.67a5.24,5.24,0,0,1-1.34-1.56,9.31,9.31,0,0,1-.83-1.75,15,15,0,0,1-.8-3.71c-.08-.62-.07-1.25-.11-1.88s0-1.25,0-1.87.09-1.24.16-1.86l.25-1.85-.13,1.86c0,.62,0,1.24,0,1.86s.05,1.23.08,1.85.1,1.22.23,1.82a13.92,13.92,0,0,0,1,3.5,8.65,8.65,0,0,0,.86,1.55,4.65,4.65,0,0,0,1.14,1.19Z"/><path class="cls-6" d="M276,468.57c.54-1.62,7.56-15.94,10.8-11.62a18.23,18.23,0,0,1,3.51,8.92"/><path class="cls-6" d="M236.39,470.19c-.52-1.62-7.3-15.94-10.43-11.62a18.76,18.76,0,0,0-3.39,8.92"/><path class="cls-17" d="M287.11,63.43s-27.37-9.37-41.78,8.28"/><path class="cls-3" d="M287,63.9A55.22,55.22,0,0,0,276,61.58a47.68,47.68,0,0,0-11.2,0,33.29,33.29,0,0,0-10.72,3.16,27.78,27.78,0,0,0-8.77,6.95A27.92,27.92,0,0,1,254,64.54a33.62,33.62,0,0,1,10.76-3.44,48.89,48.89,0,0,1,11.34-.26A55.54,55.54,0,0,1,287.27,63Z"/></svg>