<svg id="Layer_1" data-name="Layer 1" xmlns="http://www.w3.org/2000/svg" viewBox="0 0 256 256"><defs><style>.cls-1{opacity:0.3;}.cls-2{fill:#6baa11;}.cls-3{fill:#195102;}.cls-4{fill:#e8d0b1;}.cls-5{fill:#f9ebd7;}.cls-6{fill:#c6b099;}.cls-7{fill:#b24b04;}.cls-8{fill:#cc5700;}.cls-9{fill:#dd7314;}.cls-10{fill:#b53d00;}.cls-11{fill:#823907;}.cls-12{fill:#e8b974;}.cls-13{fill:#f4ca8e;}.cls-14{fill:#fad496;}.cls-15{fill:#7ac222;}.cls-16{fill:#87c928;}.cls-17{fill:#94cc32;}.cls-18{fill:#cecece;}.cls-19{fill:#fff;}.cls-20{fill:#4c0000;}.cls-21{fill:#820000;}.cls-22{fill:#e85885;}.cls-23{fill:#f96e92;}.cls-24{fill:#dd2260;}.cls-25{fill:#00a4ff;}.cls-26{fill:#0456ff;}.cls-27{fill:#256805;}.cls-28{fill:#c6934f;}.cls-29{fill:#f6b954;}.cls-30{fill:#c60;}.cls-31{fill:#680303;}.cls-32{fill:#380005;}</style></defs><ellipse class="cls-1" cx="139.13" cy="219.27" rx="97.91" ry="22.88"/><path class="cls-2" d="M185.38,205.69s3,12.89-14.14,12.37c-6.32-.35-9.86-7-9.86-7A184.57,184.57,0,0,0,185.38,205.69Z"/><path class="cls-3" d="M172.25,218.26l-1,0c-6.36-.34-10-7.07-10-7.14l-.13-.23.27,0a185.6,185.6,0,0,0,24-5.32l.19-.06.05.19c0,.05,1.06,4.8-1.83,8.43C181.52,216.85,177.66,218.26,172.25,218.26Zm-10.57-7.1c.7,1.18,4.1,6.41,9.57,6.71,5.82.17,9.92-1.18,12.19-4a10.43,10.43,0,0,0,1.79-7.93A185,185,0,0,1,161.68,211.16Z"/><path class="cls-4" d="M167,220.5A40.69,40.69,0,0,0,174.5,217c1.76-.91-2.79-4.07-5.21-1.47C168.54,216.78,167,220.5,167,220.5Z"/><path class="cls-5" d="M167,220.5s2-1.7,4.73-3.55c1.76-.91,0-4.07-2.43-1.47C168.54,216.78,167,220.5,167,220.5Z"/><path class="cls-6" d="M166.66,220.82l.16-.39c.06-.15,1.57-3.75,2.31-5l0,0a3.34,3.34,0,0,1,2.49-1.06c1.64,0,3.2,1,3.41,1.89a.8.8,0,0,1-.47.94,42,42,0,0,1-7.53,3.56Zm2.78-5.23c-.59,1-1.69,3.61-2.11,4.59a38.75,38.75,0,0,0,7.06-3.38c.26-.14.36-.31.3-.53-.16-.65-1.51-1.61-3.05-1.61A2.93,2.93,0,0,0,169.44,215.59Z"/><path class="cls-4" d="M167.69,216.22s-4.73,2.59-5.94,2.41c-.27-1.66,1-5,3.63-5.66A11.9,11.9,0,0,1,167.69,216.22Z"/><path class="cls-5" d="M165.66,215.65a7.5,7.5,0,0,0-3.91,3c-.27-1.66,1-5,3.63-5.66A1.93,1.93,0,0,1,165.66,215.65Z"/><path class="cls-6" d="M161.89,218.83h-.16l-.14,0,0-.14c-.31-1.86,1.17-5.22,3.77-5.87l.1,0,.07.07a11.61,11.61,0,0,1,2.35,3.32l.08.15-.16.09C167.6,216.49,163.3,218.83,161.89,218.83Zm3.44-5.66c-2.43.68-3.57,3.74-3.41,5.29,1.21,0,4.74-1.89,5.53-2.31A11.73,11.73,0,0,0,165.33,213.17Z"/><path class="cls-7" d="M157.13,106.66s26.51-10.14,39,20.45C191,137.49,188,142.2,188,142.2l-22.5-4.46Z"/><path class="cls-8" d="M157.13,106.66l8.35,31.08.22,0c5.12-5.61,13.66-8.37,19.5-3.23.14-.23,6.14-9.72,11-7.36C183.64,96.52,157.13,106.66,157.13,106.66Z"/><path class="cls-9" d="M158,107.79l6.76,27.15c5.12-5.61,12.94-8.39,18.79-3.25.14-.23,5.11-5.58,10-6.23C185.66,101.94,158,107.79,158,107.79Z"/><path class="cls-8" d="M184.26,128.44a34,34,0,0,0,9.28-6.81c-8.43-15.16-20.88-17.09-28.81-16.49,1.47,4.31,5.48,15.89,6.88,18.49A82.41,82.41,0,0,0,184.26,128.44Z"/><path class="cls-10" d="M183.52,126.3c2.78.46,6.37-1.92,8.41-4.28-8.43-15.16-17.5-15.67-25.43-15.07a164.75,164.75,0,0,0,7.16,16.28C179.61,126.19,183.52,126.3,183.52,126.3Z"/><path class="cls-8" d="M186.74,122.89c1.55-1.58,3.22-2.69,4.21-5.35-6.37-8.82-14.27-11.74-20.84-12.35,1.41,3.22,4.13,9.47,5.47,13A93.62,93.62,0,0,0,186.74,122.89Z"/><path class="cls-9" d="M186.4,121c1.55-1.57,1.59-1,2.58-3.63-6.37-8.82-11-9.83-17.55-10.45,1.41,3.22,3.87,6.06,5.21,9.55A104,104,0,0,0,186.4,121Z"/><path class="cls-10" d="M185.75,116.74c.59,0,.84,0,1.36-1.57-3.79-5-9.64-7.56-11.06-7.06a24,24,0,0,1,1.93,5.2C180.54,115.79,184.38,116.46,185.75,116.74Z"/><path class="cls-11" d="M188.07,142.41l-.13,0-22.61-4.48,0-.11-8.4-31.25.16-.06a31.65,31.65,0,0,1,10.13-1.62c9.16,0,21.64,3.85,29.15,22.18l0,.08,0,.08c-5.15,10.26-8.17,15-8.19,15.1Zm-22.44-4.83L187.89,142c.47-.76,3.37-5.53,8.07-14.88-7.43-18.08-19.74-21.88-28.77-21.88a31.81,31.81,0,0,0-9.84,1.54Z"/><path class="cls-7" d="M183.52,143.32s5.82-15.87,11.9-17.86c5.08,3.35,25.67,21.58,15.75,49.91-6,4.65-19.89,10.22-19.89,10.22Z"/><path class="cls-8" d="M195.42,125.46c-6.08,2-11.9,17.86-11.9,17.86l6.6,36c6.65-4.29,14.4-7.4,22.24-7.8C219.2,145.38,200.27,128.66,195.42,125.46Z"/><path class="cls-9" d="M195.14,128c-6.08,2-9.48,17.39-9.48,17.39l5.62,31.06c6.65-4.28,11.55-5.46,19.39-5.85C217.52,144.46,200,131.16,195.14,128Z"/><path class="cls-8" d="M194.55,139.1c1.61,7.19,5.83,25.3,7.07,30.19.56,1.41,7,1.28,11.06,0,4.87-18.16-6.27-33.93-12.93-40.27C198.45,132.07,195.83,138,194.55,139.1Z"/><path class="cls-10" d="M196.16,140c1.62,7.19,5.27,22.44,6.51,27.34.56,1.4,4.48,2.18,8.56.91,3.26-18.82-5-30.18-11.63-36.53C198.31,134.75,197.44,138.87,196.16,140Z"/><path class="cls-8" d="M205.83,163.92a30.23,30.23,0,0,0,8-2.21,42.24,42.24,0,0,0-9.68-27.91c-1.09,2.65-2.72,6.6-3.5,8.4C201.62,149.39,205.83,163.92,205.83,163.92Z"/><path class="cls-9" d="M206.67,162.57a11.35,11.35,0,0,0,4.84-1.4c.39-12.11-2.4-18.11-7.44-24.42-1.1,2.65-1.63,4.76-2.42,6.57C202.64,150.51,206.67,162.57,206.67,162.57Z"/><path class="cls-10" d="M205.71,145.05c0,.87,1.74,7.94,2.48,13.46a9,9,0,0,0,3.35-.74c-.47-5.69-.52-11.52-3.72-15.33C206.07,142.43,205.71,143.32,205.71,145.05Z"/><path class="cls-11" d="M191.14,185.85l-7.82-42.55,0-.05c.24-.65,5.93-16,12-18l.09,0,.07,0A45.74,45.74,0,0,1,209.08,141c5.74,10.76,6.5,22.36,2.26,34.47l0,0,0,0c-5.9,4.61-19.79,10.19-19.93,10.25Zm-7.43-42.52,7.71,42c1.77-.71,14.1-5.81,19.59-10.07,9.11-26.13-8.11-44.6-15.62-49.59C189.66,127.67,184.07,142.38,183.71,143.33Z"/><path class="cls-7" d="M119.44,112s15.72-22.82,41.26-6.08c2.48,6.45,10.44,23.92,8.51,31.5-5.66,5.58-15.7,8.68-15.7,8.68C137.89,137.86,119.44,112,119.44,112Z"/><path class="cls-8" d="M157.85,137.37c2.06-3.24,5.74-4.15,9.21-4.94-.8-9.08-4.47-21.66-6.36-26.56C135.16,89.13,119.44,112,119.44,112a194.69,194.69,0,0,0,18.07,21.39C144.27,130.42,152.44,133,157.85,137.37Z"/><path class="cls-9" d="M157.13,135.25c2.05-3.23,5.06-2.77,8.53-3.56A102.91,102.91,0,0,0,160,107.42C134.45,90.68,121.4,113,121.4,113a117.65,117.65,0,0,0,16.11,20.34C144.27,130.42,151.72,130.85,157.13,135.25Z"/><path class="cls-8" d="M143,127.11c5.57,2.07,14.62,3.68,16.73,6.16a27.34,27.34,0,0,1,5-4.25c-1.31-5.59-5-18.17-9.53-26.26-12.85-6-22.76-2-28.84,2.46C130.23,107.41,139.17,113.7,143,127.11Z"/><path class="cls-10" d="M143.66,125.88c5.57,2.07,13.2,2.61,15.31,5.09,2.35-2.6,4-2.95,4-2.95-1.3-5.58-3-15.17-7.57-23.25-11-5.53-20.75-3.71-26.83.73C132.53,107.7,139.85,112.47,143.66,125.88Z"/><path class="cls-8" d="M148.43,121.45c2.73.42,8.68,2.15,9.54,4,0-3.72-2.35-14.33-2.35-14.33-2.86-3.33-4.25-7.83-9.44-11.11a25.84,25.84,0,0,0-14.4,2A41,41,0,0,1,148.43,121.45Z"/><path class="cls-9" d="M148.83,119.42c2.73.41,7.2,2,8.07,3.81,0-3.72-2.52-12.1-2.52-12.1-2.86-3.33-3-6.17-8.24-9.45-4.92-.34-6.65-.86-10.61.91C139.2,104.76,144.19,108.11,148.83,119.42Z"/><path class="cls-8" d="M153.63,114.43l-3.34,1.45A79.8,79.8,0,0,0,143,105.5a23,23,0,0,1,7.06,1.24A32.44,32.44,0,0,1,153.63,114.43Z"/><path class="cls-10" d="M152.27,113.35l-1.77.69a38.48,38.48,0,0,0-5.62-7.85c3.21.12,3.86,1.36,5,1.86C152.58,112.51,152.27,113.35,152.27,113.35Z"/><path class="cls-11" d="M153.49,146.25l-.07,0c-15.48-8.11-33.94-33.89-34.13-34.15l-.08-.11.08-.11c.08-.12,8.64-12.29,23.08-12.29,6,0,12.19,2.08,18.43,6.17l0,0,0,.06c.36.93.83,2.09,1.38,3.43,3.29,8.09,8.81,21.63,7.14,28.17v.05l0,0c-5.62,5.55-15.68,8.69-15.78,8.72ZM119.67,112c1.32,1.83,19,26.05,33.86,33.9.92-.3,10.2-3.37,15.52-8.58,1.58-6.44-3.88-19.86-7.14-27.89-.54-1.32-1-2.46-1.36-3.38-6.16-4-12.28-6.08-18.18-6.08C128.84,99.92,120.54,110.75,119.67,112Z"/><path class="cls-7" d="M155.62,142.2S168.51,130.3,177,133s16,7.06,19.21,20.33c2.48,10.79.85,26.19-3.35,32-6.32,1.12-27.65,3-34.22-2.48C158,171.84,155.62,142.2,155.62,142.2Z"/><path class="cls-8" d="M193.41,177.31c1.59-7.11,1.9-17.68.23-24.94-3.23-13.26-8.26-16.61-16.69-19.34s-21.33,9.17-21.33,9.17,1.63,24.62,2.51,37.76C166.35,176.42,184.62,177.24,193.41,177.31Z"/><path class="cls-9" d="M191.28,175c1.58-7.11,2.46-15.49.79-22.75-3.22-13.27-7-14.53-15.43-17.26s-20.87,9.49-20.87,9.49,1.9,20.36,2.78,33.49C166.77,174.39,182.49,174.88,191.28,175Z"/><path class="cls-11" d="M176.81,186.77c-6.3,0-14.6-.65-18.33-3.76l-.07,0v-.08c-.62-10.9-2.95-40.37-3-40.66v-.09l.06-.06c.11-.1,10.53-9.64,18.73-9.64a9.15,9.15,0,0,1,2.78.42c8.1,2.62,16.05,6.91,19.34,20.47,2.51,10.91.9,26.22-3.37,32.14l-.05.06h-.07A103.85,103.85,0,0,1,176.81,186.77Zm-18-4c3.69,3,11.83,3.61,18,3.61a104.46,104.46,0,0,0,15.9-1.21c4.11-5.79,5.71-21.19,3.27-31.78-3.25-13.37-11.1-17.61-19.09-20.2a8.79,8.79,0,0,0-2.67-.39c-7.71,0-17.51,8.66-18.41,9.47C156,144.1,158.16,172.11,158.77,182.78Z"/><path class="cls-7" d="M96.1,123.23s10.17-18.85,26.54-14.13c11.28,4.09,15.92,15.16,15.93,29.28-5.64,8.16-19.13,22.16-19.13,22.16C106.64,153.73,97.34,141.71,96.1,123.23Z"/><path class="cls-8" d="M96.1,123.23s10.17-18.85,26.54-14.13c11.28,4.09,13.37,17,13.39,31.13-5.65,8.16-16.59,20.31-16.59,20.31C106.64,153.73,97.34,141.71,96.1,123.23Z"/><path class="cls-9" d="M97.22,125.46S105,106,121.4,110.69c11.28,4.09,12.17,15.26,12.18,29.37l-14.14,20.48C106.64,153.73,98.46,143.94,97.22,125.46Z"/><path class="cls-11" d="M119.48,160.77l-.12-.07c-14.2-7.54-22.3-20.5-23.44-37.46v0l0,0c.08-.15,8.24-15,21.48-15a19,19,0,0,1,5.27.77c10.5,3.81,16.05,14,16.07,29.46v.05l0,0c-5.58,8.09-19,22.05-19.14,22.19Zm-23.19-37.5c1.14,16.75,9.13,29.55,23.12,37,1.22-1.28,13.64-14.29,19-22,0-15.26-5.49-25.31-15.81-29a18.75,18.75,0,0,0-5.15-.74C104.76,108.53,96.8,122.36,96.29,123.27Z"/><path class="cls-12" d="M73.78,193.68S61.32,191.79,59.46,190c6.33-8.51,22.76-27.38,23.75-27.34,5.45,4.5,4.71,17.12,4.71,17.12Z"/><path class="cls-13" d="M69.32,189.16c-1.39,1.31-9.86.8-7.44-2.34,6.32-8.52,20.34-24.24,21.33-24.2,5.45,4.5-5.51,16-7.29,19.68S70.72,187.86,69.32,189.16Z"/><path class="cls-14" d="M74.53,177.91c-3.54,3.28-4,8.28-9.83,10.78a4.58,4.58,0,0,0,4.43-.78c1.4-1.3,4.15-3.06,5.93-6.74.87-1.8,4.16-5.14,6.66-8.63a5.52,5.52,0,0,0-.81-1.95A42,42,0,0,1,74.53,177.91Z"/><path class="cls-6" d="M73.85,193.87h-.09c-.51-.08-12.55-1.92-14.43-3.76l-.11-.12.09-.13c5.92-8,22.68-27.42,23.9-27.42h.06l.06,0c5.46,4.51,4.81,16.75,4.77,17.27v.07l0,.05Zm-14.14-3.93c2.07,1.65,12.9,3.36,14,3.54l14-13.82c0-1,.46-12.57-4.58-16.84C81.72,163.49,66.19,181.24,59.71,189.94Z"/><path class="cls-7" d="M68.58,173.07s-2.85-26.22,15.13-39a147.35,147.35,0,0,1-.9,27.31Z"/><path class="cls-9" d="M83.58,153.52a131.6,131.6,0,0,0,.13-19.5c-11.9,8.49-14.68,22.85-15.19,31.59C74.31,162.52,80.26,158.94,83.58,153.52Z"/><path class="cls-8" d="M81.08,136.12c-8.75,7.77-11.56,19-12.37,27C73.24,161.8,83.34,156.48,81.08,136.12Z"/><path class="cls-10" d="M81.08,136.12c-7.87,10.82-10.2,16.89-11,24.93C74.59,159.7,80.92,153.56,81.08,136.12Z"/><path class="cls-8" d="M78.3,138.92a39.9,39.9,0,0,0-8.61,18C72.94,155.18,77.45,150.65,78.3,138.92Z"/><path class="cls-9" d="M78.17,140.44c-4.8,5.48-5.52,9.45-6.8,15.38C73.08,153.55,76.27,149.48,78.17,140.44Z"/><path class="cls-11" d="M68.43,173.44l0-.34a56.58,56.58,0,0,1,.83-14.77c1.4-7.48,5-17.8,14.38-24.46l.26-.19,0,.32c1,12.89-.88,27.21-.9,27.35v.08l0,0Zm15.12-39.08c-16.29,11.89-15.06,35.22-14.82,38.35l13.9-11.48A148.17,148.17,0,0,0,83.55,134.36Z"/><path class="cls-7" d="M71.92,166.17l-.21.21C61.08,173.63,57.79,189.44,59.46,190c4.65.34,11.72-9.63,13.39-13.72l.12-.07C71.13,173.87,71.45,169.25,71.92,166.17Z"/><path class="cls-8" d="M71.71,166.38C61.08,173.63,57.79,189.44,59.46,190c4.65.34,11-10.71,10.79-14.59S71.78,166.31,71.71,166.38Z"/><path class="cls-9" d="M70.68,168.36c-7.62,5.93-11.56,19-9.89,19.55,4.65.34,7.63-8.66,7.44-12.54A11.56,11.56,0,0,1,70.68,168.36Z"/><path class="cls-11" d="M59.7,190.16h-.29c-.26-.08-.43-.37-.5-.85-.49-3.26,3.24-16.61,12.7-23.06l.58-.58-.08.55c-.42,2.69-.84,7.54,1,9.86l.14.18-.26.13C71.27,180.52,64.36,190.16,59.7,190.16Zm-.2-.38h.2c4.53,0,11.33-9.58,13-13.62l0,0c-1.62-2.23-1.49-6.28-1-9.49-9.23,6.43-12.87,19.43-12.39,22.6C59.33,189.58,59.43,189.74,59.5,189.78Z"/><path class="cls-7" d="M84,165.08s-1.06-3.53-1.62-5.21c-3.29.18-6.23,2.17-10.42,6.3-.47,3.08-.79,7.7,1,10C77.79,173.68,84,165.08,84,165.08Z"/><path class="cls-8" d="M82.73,163.14a8.64,8.64,0,0,0-.39-3.27c-3.29.18-6.23,2.17-10.42,6.3A8.82,8.82,0,0,0,74,172.6C78.81,170.1,82.73,163.14,82.73,163.14Z"/><path class="cls-9" d="M79.4,166s-.7-1.74-1.26-3.42c-1.62,1.3-.9-.19-5.09,3.94-.07,2.2-.39,2.12,1.45,4.42C79.32,168.49,79.4,166,79.4,166Z"/><path class="cls-11" d="M72.92,176.41l-.1-.12c-1.83-2.3-1.6-6.79-1.08-10.15v-.06l0,0c4.52-4.46,7.38-6.18,10.54-6.36h.14l0,.13c.55,1.66,1.61,5.18,1.62,5.21l0,.09,0,.08c-.25.35-6.25,8.66-11,11.15Zm-.82-10.15c-.41,2.65-.8,7.33.92,9.68,4.47-2.41,10.13-10.06,10.74-10.9-.17-.54-1-3.43-1.55-5C79.21,160.28,76.45,162,72.1,166.26Z"/><path class="cls-2" d="M93.87,195.58c4.46,10.79-4.28,23.43-1,25.85,2.69,1.68,4.38,5.77,3.26,7.81-2.79,3.91-13.57,4.84-23.13,3-16.25-4.65-8.86-23.62-7-28.92,1.9-11.07,5.17-14.42,10.94-19.71a14.91,14.91,0,0,1,13-10.52Z"/><path class="cls-15" d="M87.36,197.53c5.33,10.91-2.62,20.36.63,22.78,2.69,1.68,2.35,4,.76,5.5-2.61,2.15-8.28,3.69-16,2.6C57.79,224.13,64.11,208.6,66,203.3c1.9-11.07,5.17-14.42,10.94-19.71a14.91,14.91,0,0,1,13-10.52S75.06,172.33,87.36,197.53Z"/><path class="cls-16" d="M85.41,196.79c4.55,11.26-3.25,20.09,0,22.5,2.69,1.68,3.54,4.55,2,6.05-2.6,2.15-7,1.75-14.75.66-13.56-3.73-7-16.84-5.15-22.14,1.9-11.07,5-15.7,10.77-21,.72-3.13,4-5,4-5S78.51,179.74,85.41,196.79Z"/><path class="cls-3" d="M82.49,233.33a50.42,50.42,0,0,1-9.55-.93c-4.21-1.2-7.18-3.45-8.84-6.7-3.74-7.31,0-17.58,1.56-22l.18-.5c1.87-11,5-14.33,10.94-19.75a15.18,15.18,0,0,1,13.14-10.6h.17l4,22.65c2.6,6.29.73,13.26-.64,18.35-1,3.61-1.73,6.46-.46,7.4,2.74,1.71,4.48,5.92,3.32,8.05C94.48,231.84,89.33,233.33,82.49,233.33Zm7.29-60.06a14.81,14.81,0,0,0-12.66,10.38v0l0,0c-5.86,5.38-9,8.7-10.88,19.6l-.18.53c-1.57,4.34-5.24,14.5-1.58,21.67,1.62,3.15,4.51,5.34,8.59,6.51a50.4,50.4,0,0,0,9.47.92c6.72,0,11.75-1.43,13.46-3.83,1.07-2-.6-5.92-3.21-7.54-1.48-1.1-.73-3.91.31-7.8,1.36-5,3.21-11.95.65-18.14v0Z"/><path class="cls-3" d="M75.24,185.4l-.3-.23a8.61,8.61,0,0,1,5.53-2.87C78.2,182.61,75.26,185.37,75.24,185.4Z"/><path class="cls-2" d="M72.85,109.1s6.28,5,6.7,17.66c.44,13.4-5.39,37.39,7.72,52.27,12.37,5.2,44,16.36,54.68,7.81-7.89-7.84-27.81-25.34-37.48-43.52-8.68-16.33-6.14-36.39,11.53-43C105,95.89,77.88,100.54,72.85,109.1Z"/><path class="cls-15" d="M106.15,166.17c.37,0,6.93,1.85,3.72-1.65C95,149.27,89.41,128.07,96.47,108.35c-6.63,0-15.46-.24-20.55,4.62a28.7,28.7,0,0,1,3.63,13.79c.37,11.17-3.62,29.68,2.63,44.16C84.8,167.86,88.14,159,106.15,166.17Z"/><path class="cls-16" d="M103,163.58c.37,0,5.39,2.59,2.17-.92-14.88-15.25-18.88-31.82-11.82-51.53-6.63,0-10.07.6-13.77,3.34,1.66,2.83,2.08,6.59,2.29,13.08.37,11.16-4.14,23.49,2.11,38C86.58,162.46,91.08,157.68,103,163.58Z"/><path class="cls-3" d="M130,190.15h0c-16,0-38.44-9.12-42.78-11l-.07,0C77,167.69,78.1,151,79,137.62c.25-4,.5-7.73.39-10.85-.4-12.42-6.56-17.48-6.62-17.53l-.13-.1.08-.14c3.72-6.33,19.56-10.58,32-10.58a31.82,31.82,0,0,1,11.36,1.69l.45.18-.45.17a23.9,23.9,0,0,0-14.46,14.14c-3.17,8.4-2,19.1,3,28.63,8.19,15.41,23.79,30.36,33.11,39.29,1.68,1.61,3.13,3,4.33,4.19l.14.14-.16.13C139.43,189.09,135.37,190.15,130,190.15Zm-42.6-11.28c4.43,1.86,26.75,10.91,42.6,10.91h0c5.19,0,9.12-1,11.68-3-1.16-1.15-2.56-2.49-4.17-4-9.33-8.95-25-23.92-33.18-39.39-5.12-9.62-6.26-20.43-3-28.93a24.16,24.16,0,0,1,14.22-14.18,32.38,32.38,0,0,0-10.77-1.5c-12.27,0-27.82,4.12-31.62,10.27.89.8,6.26,6.1,6.65,17.7.1,3.14-.14,6.9-.4,10.88C78.48,151,77.41,167.53,87.38,178.87Z"/><path class="cls-2" d="M50.91,109.1S.69,97.19,26.54,63.34C24.68,54,29.33,14.62,62.63,18.89c6.88.93,11.34-2,18.41-3.9,4.65-.93,36.64-8.19,52.26,38.5,8.37,8,13.39,24.73,2,38.12C120.09,107.42,88.66,102.77,82,109.1,77.69,112.82,63.74,122.3,50.91,109.1Z"/><path class="cls-15" d="M48.53,105.19s-43-9.72-22-41.85C24.68,54,29.33,14.62,62.63,18.89c6.88.93,11.34-2,18.41-3.9,4.65-.93,31.66-5.83,47.29,40.86,8.36,8,8.21,22.43-.35,31.83-15.25,15.81-33.58,9.13-40.27,15.45C83.43,106.85,60,122.89,48.53,105.19Z"/><path class="cls-16" d="M48.3,101.68s-39-6.21-20.09-38.56c-1.86-9.3,1.87-46.64,35.16-42.37,6.88.93,11.42-1.86,18.48-3.72,4.65-.93,26.34-6.88,40.66,37.2A23,23,0,0,1,123.44,86c-15.25,15.81-30.31,7.54-37,13.87C82.15,103.56,59.79,119.39,48.3,101.68Z"/><path class="cls-17" d="M49.7,61.55S57,31,65.12,30.5c6.56-.36,15.43,31.05,15.43,31.05C71,58.87,58,56.76,49.7,61.55Z"/><path class="cls-2" d="M95.62,44.6c3.47,9.42,2.32,18.51-2.57,20.31S81.38,60.54,77.91,51.12s-2.31-18.5,2.58-20.3S92.16,35.19,95.62,44.6Z"/><path class="cls-18" d="M95.24,47.63c3,8,2,15.75-2.19,17.28s-9.93-3.72-12.88-11.73-2-15.74,2.2-17.28S92.29,39.62,95.24,47.63Z"/><path class="cls-19" d="M93.17,58a5.57,5.57,0,0,0,3.58-4.34,28.34,28.34,0,0,0-1.51-6.07c-2.95-8-8.71-13.26-12.87-11.73s-5.06,8.72-2.49,16.41C83.07,57,86.63,60.49,93.17,58Z"/><path class="cls-3" d="M91.53,65.36c-4.1,0-9-5.09-11.53-12.12-3-8.09-2-16,2.3-17.51a4.65,4.65,0,0,1,1.58-.28c4.1,0,9,5.1,11.53,12.12,3,8.09,2,16-2.3,17.51A4.42,4.42,0,0,1,91.53,65.36ZM83.88,35.82a4.18,4.18,0,0,0-1.45.26c-4.06,1.49-5,9.14-2.08,17C82.88,60,87.58,65,91.53,65A4.42,4.42,0,0,0,93,64.74c4.06-1.5,5-9.14,2.08-17C92.53,40.82,87.83,35.82,83.88,35.82Z"/><path class="cls-2" d="M83.08,63.82a35.82,35.82,0,0,1,27.83-4.44L91.27,66.46Z"/><path class="cls-16" d="M85.18,65a34.66,34.66,0,0,1,25.73-5.58L91.27,66.46Z"/><path class="cls-3" d="M83.19,64l-.21-.3a32.81,32.81,0,0,1,13.85-5.16c9.36-1.3,14.29.92,14.29.92A36.78,36.78,0,0,0,83.19,64Z"/><path class="cls-3" d="M65.54,116.07c-5.37,0-10.32-2.29-14.73-6.81-1.3-.32-25.39-6.49-30.77-21.56-2.6-7.28-.48-15.49,6.31-24.4C25.28,57.72,26.5,40,35.9,28.56A27,27,0,0,1,57.74,18.38a38,38,0,0,1,4.91.33,18.31,18.31,0,0,0,2.55.17c3.58,0,6.56-1,10-2.24C77,16,78.87,15.37,81,14.81l.24-.05a42,42,0,0,1,8.57-.91,37.62,37.62,0,0,1,22,6.94c9.32,6.53,16.6,17.5,21.66,32.59,7.92,7.6,13.77,24.49,2,38.35-9.42,9.77-24.74,11.74-37.05,13.33-7.41,1-13.81,1.77-16.34,4.17C80.25,110.84,73.61,116.07,65.54,116.07Zm-7.8-97.31a26.64,26.64,0,0,0-21.55,10c-9.37,11.43-10.55,29.07-9.46,34.51v.08l0,.07C20,72.29,17.83,80.4,20.39,87.58,25.82,102.8,50.7,108.86,51,108.92h0l0,0c4.34,4.46,9.22,6.73,14.5,6.73,7.94,0,14.49-5.16,16.31-6.74,2.62-2.48,8.76-3.27,16.54-4.27,12.25-1.58,27.5-3.54,36.82-13.21,11.6-13.68,5.79-30.38-2-37.86l0,0,0,0c-10.87-32.5-29.56-39.33-43.32-39.33a41.46,41.46,0,0,0-8.49.9l-.24.05c-2.09.55-3.95,1.2-5.74,1.83-3.48,1.21-6.48,2.26-10.13,2.26a19,19,0,0,1-2.6-.18A37.16,37.16,0,0,0,57.74,18.76Z"/><path class="cls-3" d="M52.73,111.06c-2.38-1.8-5.38-8.19-5.38-8.19s3.29,6.15,5.6,7.89Z"/><path class="cls-3" d="M82.08,109.24l-.23-.29c8.16-6.18,10.77-5.81,10.77-5.81C88.61,104.23,82.15,109.19,82.08,109.24Z"/><path class="cls-20" d="M48.3,95.52s7.82,18.69,16.56,15.39S79.74,98.12,84.2,86.22C70.25,88.82,48.3,95.52,48.3,95.52Z"/><path class="cls-21" d="M61.64,91.48c-8,2.18-13.34,4-13.34,4S53.41,107.73,60,110.67C58.51,104,56.74,99.55,61.64,91.48Z"/><path class="cls-22" d="M66.25,101.47c-6.53-.73-9.29,3.06-10.44,6,2.65,2.78,5.78,4.62,9,3.39,4.64-1.76,8.56-5.26,11.87-9.94C73.87,100.06,70.06,98.76,66.25,101.47Z"/><path class="cls-23" d="M63.43,106.19c-.06-4.93-6.47-1.66-7.62,1.33,2.65,2.78,5.78,4.62,9,3.39,4.64-1.76,6.51-4,9.55-7C74.72,101.47,68.3,99.55,63.43,106.19Z"/><path class="cls-24" d="M62.75,111.48h0c-2.27,0-4.65-1.29-7.07-3.83l-.08-.08,0-.11a9.1,9.1,0,0,1,9-6.27,13.78,13.78,0,0,1,1.54.09,8.61,8.61,0,0,1,5.09-1.62,17.39,17.39,0,0,1,5.31,1.07l.43.14-.15.2c-3.52,5-7.54,8.34-12,10A6,6,0,0,1,62.75,111.48Zm-6.72-4c2.32,2.41,4.58,3.63,6.72,3.63h0a5.55,5.55,0,0,0,2-.38c4.29-1.61,8.2-4.87,11.64-9.66a16.88,16.88,0,0,0-5.14-1,8.26,8.26,0,0,0-4.93,1.59l-.06,0h-.07a14.39,14.39,0,0,0-1.57-.1A8.71,8.71,0,0,0,56,107.48Z"/><path class="cls-24" d="M69.87,99.77l.11.36c-.07,0-5.12.09-6.61,6.79C63.37,106.92,63.37,100.63,69.87,99.77Z"/><path class="cls-3" d="M62.75,111.48h0c-7.88,0-14.35-15.24-14.62-15.89l-.08-.19.2-.06c.22-.06,22.12-6.73,35.92-9.3l.32-.06-.12.31C79.24,100,72.88,108.08,64.92,111.08A6.08,6.08,0,0,1,62.75,111.48ZM48.56,95.64c.78,1.78,7,15.47,14.19,15.47h0a5.55,5.55,0,0,0,2-.38c7.68-2.9,14.12-11.06,19.12-24.27C70.82,88.94,50.77,95,48.56,95.64Z"/><path class="cls-2" d="M51.44,52.34c-2.69,9-8.25,15.2-12.44,14s-5.41-9.53-2.72-18.49,8.25-15.2,12.43-13.94S54.12,43.39,51.44,52.34Z"/><path class="cls-18" d="M49.55,54.46c-2.28,7.6-7,12.89-10.55,11.83s-4.59-8.09-2.31-15.68,7-12.89,10.55-11.82S51.82,46.87,49.55,54.46Z"/><path class="cls-19" d="M47.24,38.79C43.69,37.72,39,43,36.69,50.61a30.06,30.06,0,0,0-.91,4,8.41,8.41,0,0,0,1.62,5.15c3,3.92,6.61,2.46,9.28,1.19a27.76,27.76,0,0,0,2.87-6.52C51.82,46.87,50.79,39.85,47.24,38.79Z"/><path class="cls-3" d="M39.94,66.61a3.25,3.25,0,0,1-1-.15c-1.79-.53-3-2.5-3.47-5.54a24.74,24.74,0,0,1,1-10.36c2.07-6.9,6.27-12.1,9.79-12.1a3.3,3.3,0,0,1,1,.15c3.64,1.09,4.73,8.22,2.43,15.9C47.66,61.41,43.45,66.61,39.94,66.61ZM46.3,38.84c-3.36,0-7.41,5.08-9.43,11.82a24.38,24.38,0,0,0-1,10.21c.43,2.88,1.57,4.75,3.21,5.24a3.36,3.36,0,0,0,.89.13c3.35,0,7.41-5.09,9.43-11.83C51.61,46.92,50.63,40,47.18,39A3.22,3.22,0,0,0,46.3,38.84Z"/><path class="cls-2" d="M26.53,66.42s12-5.85,23.84,0Z"/><path class="cls-16" d="M26.53,66.42s13.58-3.3,23.84,0Z"/><path class="cls-3" d="M26.25,66.59a26.08,26.08,0,0,1,10.19-2.86A26.44,26.44,0,0,1,50.1,66.25l-.17.34C38.29,60.85,26.37,66.53,26.25,66.59Z"/><path class="cls-25" d="M47.55,55.1c-1,4.4-3.79,7.52-6.24,7s-3.63-4.57-2.64-9,3.79-7.52,6.24-7S48.55,50.69,47.55,55.1Z"/><path class="cls-26" d="M41.88,62.4a2.7,2.7,0,0,1-.63-.07c-2.59-.59-3.86-4.76-2.84-9.3.94-4.13,3.49-7.24,5.93-7.24a2.65,2.65,0,0,1,.63.07c2.59.59,3.87,4.76,2.84,9.3C46.88,59.29,44.33,62.4,41.88,62.4Zm2.46-16.07c-2.2,0-4.52,2.93-5.4,6.82-1,4.25.13,8.14,2.43,8.66a2.21,2.21,0,0,0,.51,0c2.21,0,4.53-2.93,5.41-6.82,1-4.25-.13-8.14-2.43-8.66A2.29,2.29,0,0,0,44.34,46.33Z"/><path class="cls-25" d="M93,49.92c1.53,4.2.87,8.29-1.46,9.14S86,57.2,84.5,53s-.87-8.28,1.46-9.13S91.43,45.73,93,49.92Z"/><path class="cls-26" d="M90.6,59.48c-2.33,0-5-2.68-6.35-6.39a12.3,12.3,0,0,1-.73-6c.29-1.83,1.13-3.08,2.35-3.52a2.75,2.75,0,0,1,1-.17c2.33,0,5,2.68,6.35,6.38a12.34,12.34,0,0,1,.73,6c-.29,1.82-1.13,3.07-2.35,3.52A3,3,0,0,1,90.6,59.48ZM86.86,44a2.23,2.23,0,0,0-.81.14c-1,.37-1.75,1.48-2,3.1a11.62,11.62,0,0,0,.71,5.69c1.27,3.5,3.73,6,5.85,6a2.46,2.46,0,0,0,.81-.14c1-.38,1.74-1.48,2-3.11a11.74,11.74,0,0,0-.7-5.69C91.43,46.52,89,44,86.86,44Z"/><path class="cls-3" d="M38.45,34s9.86-6.7,15.71-7.44C52.21,23.36,46.82,21.13,38.45,34Z"/><path class="cls-3" d="M100.57,35.64S93.82,25,87.71,24.07C91.08,21.5,98,21.88,100.57,35.64Z"/><path class="cls-27" d="M131.25,71.33c0,3.39-1.54,6.15-3.44,6.15s-3.44-2.76-3.44-6.15,1.54-6.15,3.44-6.15S131.25,67.93,131.25,71.33Z"/><path class="cls-27" d="M135.69,62.82c.25,1.83-.53,3.45-1.75,3.62s-2.41-1.18-2.66-3S131.81,60,133,59.8,135.44,61,135.69,62.82Z"/><path class="cls-27" d="M137.58,72.74a1.91,1.91,0,1,1-1.86-2.33A2.13,2.13,0,0,1,137.58,72.74Z"/><path class="cls-27" d="M134.79,80.23c0,1.53-.79,2.76-1.77,2.76s-1.77-1.23-1.77-2.76.8-2.75,1.77-2.75S134.79,78.71,134.79,80.23Z"/><path class="cls-12" d="M202.67,190s-9.86,25-40.36,24.4c-18.22,2.42-21.39,6.33-39,1.12-4.28-.19-21.76-2-29.95-16.92-6.88-5.77-12.09-18-8.37-25.11,2.24-4.28,23.25-11,44.64,14C140.18,196.51,202.67,190,202.67,190Z"/><path class="cls-13" d="M202.67,190s-11.39,22.8-36.32,20.3c-18.23,2.42-33,5.78-50.63.57-4.28-.19-9.79-1.12-16.89-10.41-6.89-5.77-15-19.28-11.28-26.35,2.32-5,22.32-9.55,42,13.33C140.18,196.51,202.67,190,202.67,190Z"/><path class="cls-14" d="M158.19,208.59c2.28-.34,4.55-.68,6.81-1a21.14,21.14,0,0,0,4.53-5.39c-4.9-1.1-10-1.4-14.85-2.55A44.39,44.39,0,0,1,158.19,208.59Z"/><path class="cls-14" d="M185.75,202c-4.42,0-7.41,1.57-11.77.81a37.23,37.23,0,0,1-2.26,4.73,29.35,29.35,0,0,0,16.19-3.78A1.87,1.87,0,0,0,185.75,202Z"/><path class="cls-28" d="M138.14,218.24a52.05,52.05,0,0,1-14.91-2.58c-3.6-.15-21.65-1.72-30.06-17-7-5.86-12.15-18.18-8.39-25.32,1.09-2.09,5.92-4.25,12.12-4.25,6.43,0,19.26,2.36,32.82,18.16,3.68,3.17,14.2,4.78,31.23,4.78h0c19.77,0,41.49-2.25,41.7-2.27l.31,0-.12.28a40.52,40.52,0,0,1-8.57,12.27c-5.62,5.59-15.54,12.26-31,12.26h-1c-4.93.66-8.74,1.42-12.1,2.09A59.84,59.84,0,0,1,138.14,218.24ZM96.9,169.48c-6.68,0-10.91,2.37-11.79,4.05-3.68,7,1.45,19.12,8.32,24.88l0,.06c8.33,15.14,26.27,16.67,29.78,16.82h0a51.92,51.92,0,0,0,14.83,2.57,59.86,59.86,0,0,0,12-1.59c3.37-.68,7.19-1.44,12.16-2.1h1c15.28,0,25.12-6.61,30.68-12.15a41.23,41.23,0,0,0,8.38-11.86c-2.75.28-22.94,2.25-41.43,2.25h0c-17.12,0-27.72-1.65-31.49-4.89C116,171.82,103.27,169.48,96.9,169.48Z"/><path class="cls-29" d="M121,182c7.75,7.63,12.26,8.54,14.6,8.09a15.41,15.41,0,0,1-6-2.69c-21.39-24.93-42.4-18.23-44.64-14a10.38,10.38,0,0,0-1,2.84C97.63,166.07,113.64,176,121,182Z"/><path class="cls-28" d="M134.59,190.37c-2.44,0-6.79-1.43-13.69-8.23-4.64-3.76-13.92-10.07-23.83-10.07a21.29,21.29,0,0,0-13,4.37l-.39.29.1-.48a10.61,10.61,0,0,1,1-2.89c1.09-2.09,5.92-4.25,12.12-4.25,6.43,0,19.26,2.36,32.82,18.16a15.25,15.25,0,0,0,5.95,2.64l.8.2-.81.16A6.17,6.17,0,0,1,134.59,190.37ZM97.07,171.7c10,0,19.39,6.36,24.08,10.16,6.83,6.73,11.07,8.13,13.44,8.13h0a14,14,0,0,1-5.13-2.45C116,171.82,103.27,169.48,96.9,169.48c-6.68,0-10.91,2.37-11.79,4.05a10,10,0,0,0-.86,2.32A21.54,21.54,0,0,1,97.07,171.7Z"/><path class="cls-28" d="M118.49,202.13a30.3,30.3,0,0,1-11.09-2.07c-7.1,3.28-14.59-1.71-14.67-1.76l.21-.31c.08,0,7.44,5,14.38,1.7l.07,0,.08,0a30.16,30.16,0,0,0,14,1.91,22,22,0,0,0,16.94-11l.32.2A22.34,22.34,0,0,1,121.55,202,28.78,28.78,0,0,1,118.49,202.13Z"/><path class="cls-28" d="M160.6,214.78l-.16-.33A25.87,25.87,0,0,0,173.28,192h.37A26.21,26.21,0,0,1,160.6,214.78Z"/><path class="cls-28" d="M123.18,215.65C107,208.58,103,187.91,103,187.91c0,.21,5,20.64,20.35,27.4Z"/><path class="cls-7" d="M120.84,159.87s-4.4-10.85,2.42-16.55,13.76-11.41,17-12.15c6.95,2.72,18.85,6,21.33,16.75s6.28,22.64,1.9,38.9C154.13,186.47,120.84,159.87,120.84,159.87Z"/><path class="cls-8" d="M162.6,176.69c1.31-11.92-.79-19.8-2.8-28.54-2.48-10.77-12.61-14.26-19.56-17-3.22.74-10.16,6.45-17,12.15s-2.42,16.55-2.42,16.55,10.24,8.18,20.95,15.53C149.65,173.87,155.37,172.61,162.6,176.69Z"/><path class="cls-9" d="M159.8,174.07c1.32-11.93.18-17.28-1.83-26-2.48-10.77-10.69-12.06-17.64-14.79-3.22.75-8.58,5.31-15.4,11s-4.09,15.59-4.09,15.59,8.35,6.64,19.06,14C147.76,172.32,152.58,170,159.8,174.07Z"/><path class="cls-11" d="M163.61,187h-.14c-9.3-.36-41.38-25.91-42.74-27l0,0,0-.05c0-.11-4.38-11,2.47-16.77,7.45-6.23,13.88-11.45,17.06-12.18l.06,0,.05,0c.75.3,1.55.6,2.39.91,7.09,2.64,16.81,6.26,19.05,16,.26,1.11.53,2.23.8,3.37,2.36,9.84,5,21,1.1,35.62ZM121,159.76c1.3,1,33.1,26.26,42.33,26.87,3.86-14.47,1.21-25.53-1.14-35.3-.28-1.13-.55-2.26-.8-3.37-2.19-9.52-11.8-13.1-18.82-15.71-.83-.31-1.61-.6-2.34-.89-3.12.77-9.75,6.16-16.85,12.1C117,148.83,120.7,159,121,159.76Z"/><path class="cls-8" d="M128.09,157s-.25-10.53,0-11c3.23-2.11,12.15-8.92,12.9-9.17,3.22,1.24,14.13,6.07,15.87,8.68.87,5.33,1.11,24.4,1.11,28C154.87,173,137.14,168.23,128.09,157Z"/><path class="cls-10" d="M129.39,155.28s-.24-7.56,0-8.06c3.23-2.1,11.09-8.65,11.83-8.9,3.23,1.24,12.47,5.32,14.21,7.93.86,5.33,1.47,22.13,1.47,25.74C153.8,171.5,136.47,167,129.39,155.28Z"/><path class="cls-8" d="M154.38,168.36s-23.81-3.1-21.33-19.46c2.11-2.23,5.95-5.83,7.94-6.7,2.48.87,11.28,4.59,11.41,7.44S153.63,165.76,154.38,168.36Z"/><path class="cls-9" d="M152.73,166s-19.86-2.09-18-16.35c2.11-2.23,4.55-5.41,6.53-6.28,2.48.87,10.27,4.67,10.4,7.53S152,163.4,152.73,166Z"/><path class="cls-8" d="M138.61,151.75,142,148.9a40.28,40.28,0,0,1,6.48,5c-.5,3.1-1.37,8.37-1.37,8.37-2.11-.44-6.07-.93-7.44-2.67S138.61,151.75,138.61,151.75Z"/><path class="cls-10" d="M139.62,152.37l2.6-2.28a16.43,16.43,0,0,1,4.75,3.84c-.5,3.1-1.11,6.84-1.11,6.84-2.11-.44-4.16-.53-5.53-2.26S139.62,152.37,139.62,152.37Z"/><path class="cls-8" d="M164.67,147.66s7.56-8.06,9.3-8.56c3,.25,13.27,1.24,15.5,8.56s2.35,24.64.62,25.89c-2.61.52-16.62.52-18.35.52C168.26,173.43,164.67,147.66,164.67,147.66Z"/><path class="cls-10" d="M166.6,148.34s6-6.76,7.77-7.25c3,.25,11.29-.35,13.52,7s1.76,23,0,24.27c-2.6.52-13.91.12-15.65.12C168.79,171.82,166.6,148.34,166.6,148.34Z"/><path class="cls-8" d="M173.46,171l13.28-.87c-.25-5.45-1.51-18.29-4.1-19.93a81.21,81.21,0,0,0-8.42-4.12c-3.23,2.85-5.33,4.58-5,7.19S170.72,170.22,173.46,171Z"/><path class="cls-9" d="M174,169.29l11.25-.93c-.24-5.45,0-15.13-2.64-16.77s-8.27-4.37-8.27-4.37c-3.23,2.85-4.25,4.11-3.87,6.71S171.29,168.55,174,169.29Z"/><path class="cls-8" d="M174.84,156.58s-.13,8.93,2.6,8.93,4.46,0,4.46-1-.12-9-3-9S174.82,155.59,174.84,156.58Z"/><path class="cls-10" d="M175.8,158.26s-.67,6,2,6,3.06.25,3.06-.74.9-6.69-1.95-6.66S175.79,157.26,175.8,158.26Z"/><path class="cls-8" d="M114.7,110.91s-9.42,3-13.27,12.45c-.12,5.33,1.55,12.15,3.13,14.75,4.07,2.73,10.51,5.08,12,5.21,3-3.84,14.29-15.87,14.52-18.85C128.71,120.26,122.64,114.21,114.7,110.91Z"/><path class="cls-10" d="M114.76,112.6s-7.84,1.55-11.68,11c-.13,5.32,1.21,10.51,2.79,13.12,4.06,2.73,8.71,4.58,10.19,4.71,3-3.84,13-14.41,13.22-17.38C126.91,119.86,122.7,115.9,114.76,112.6Z"/><path class="cls-8" d="M113.58,115.88s9.68,4.87,10.79,7.35c-2.23,4.59-7.05,12.9-8.42,13.52-3.48-.38-8.55-2.73-8.55-2.73-1.63-4.22-2.12-10.42-2.25-10.79C107,121,113.58,115.88,113.58,115.88Z"/><path class="cls-9" d="M113.83,117.19s7.57,3.56,8.68,6c-2.23,4.59-5.19,11.4-6.56,12a21.63,21.63,0,0,1-7.29-2.63,56.62,56.62,0,0,1-2.43-9C108.08,121.39,113.83,117.19,113.83,117.19Z"/><path class="cls-8" d="M114.21,121.5l-4.42,1.86a62.64,62.64,0,0,0,.47,6.94c2.46-1,3-1.61,6-1.74C116.68,124.84,116,121,114.21,121.5Z"/><path class="cls-10" d="M114.37,122.3l-3.62,1.33c.2,5.45,0,4.81,0,4.81,2.46-1,1.62-.81,4.65-.93C115.83,123.79,116.11,121.81,114.37,122.3Z"/><path class="cls-2" d="M183.52,196.35s9.11,8.53,11.9,19.13c-1.49,2.79-6.32,9.86,11.81,7.44,7.37-1.53,17.07-3.21,16.09-13-.75-7-8.93-21.07-17.61-21.92C194.49,191.67,183.52,196.35,183.52,196.35Z"/><path class="cls-15" d="M212.53,209c-.67-4.66-.93-7.38-3.6-10.21-2.54-1.79-4.85-1.36-10.91,0-1.48.38-3.34,1.49-4.83,1.86a10.87,10.87,0,0,1-5.73.11c2.82,3.5,6.39,8.81,8,14.77-1.49,2.79,1.61,3.35,10.34,2.59C213.13,216.55,213.37,214.78,212.53,209Z"/><path class="cls-16" d="M210.78,209c-.68-4.66-.3-6.5-3-9.32-2.55-1.79-3.09-1.42-9.15-.08-1.49.37-3.54,1.31-5,1.68-1.68.48-1.8,1.06-3.71.52a30.66,30.66,0,0,1,6.7,12.7c-1.49,2.79.1,2.09,8.83,1.34C212.84,214.28,211.61,214.78,210.78,209Z"/><path class="cls-3" d="M200.82,223.6h0c-3.79,0-6-.71-6.92-2.17-1-1.73.25-4,1.1-5.57.07-.14.15-.27.22-.4-2.76-10.4-11.74-18.9-11.83-19l-.21-.19.26-.12c.11,0,11.11-4.71,22.21-8.39h.08c8.86.88,17.05,15.24,17.77,22.09,1,9.7-8.19,11.59-15.56,13.1l-.67.14A50.44,50.44,0,0,1,200.82,223.6Zm-17-27.19c1.37,1.34,9.21,9.37,11.75,19l0,.07,0,.07c-.08.15-.16.3-.26.47-.8,1.46-2,3.65-1.1,5.2.78,1.32,3,2,6.6,2h0a50.69,50.69,0,0,0,6.38-.49l.67-.14c7.22-1.49,16.2-3.33,15.26-12.7-.71-6.74-8.73-20.86-17.4-21.76C195.6,191.5,185.57,195.68,183.85,196.41Z"/><path class="cls-2" d="M127.74,185.06s-9.13,5.68,2.4,34.88c-1.68,4.1-7.63,12.65,11,13.21,9.11-.19,16.55-2.23,17.67-8.18a52.3,52.3,0,0,0-18.6-42.41Z"/><path class="cls-15" d="M140.37,192c-9.41-1.43-12.63-6.92-12.63-6.92s-9.13,5.68,2.4,34.88c-1.68,4.1.94,6.06,11.8,6.68C152.83,226.62,151.82,206,140.37,192Z"/><path class="cls-16" d="M139.25,193.68c-9.41-1.43-11.44-6.81-11.44-6.81s-7,5.11,4,32.8c-1.67,4.09,1.05,5,9.78,5C150.6,224.69,150.71,207.73,139.25,193.68Z"/><path class="cls-3" d="M141.11,233.34c-7-.21-11.15-1.54-12.71-4.06s-.09-5.77,1-8.12c.2-.43.39-.85.55-1.22-6-15.08-6.21-23.9-5.39-28.65.91-5.2,3.53-6.53,3.53-6.53s-9.09,6.44,2.23,35.12l0,.06,0,.07c-.16.4-.36.84-.58,1.3-1,2.28-2.49,5.4-1,7.77s5.64,3.68,12.4,3.88c10.63-.21,16.52-2.92,17.48-8,.43-17-5.81-31.25-18.54-42.23l.24-.28C153.13,193.48,159.41,207.79,159,225,158,230.31,152,233.11,141.11,233.34Z"/><path class="cls-3" d="M94.18,222.81c-3.73-2.94-6.17-2.5-6.19-2.5s2.54-.85,6.42,2.21Z"/><path class="cls-27" d="M81.3,199.69c-.62,2.36-2.5,3.91-4.19,3.47s-2.57-2.73-2-5.08,2.5-3.92,4.19-3.47S81.92,197.33,81.3,199.69Z"/><path class="cls-27" d="M86.06,205.28c0,2-1,3.69-2.33,3.69s-2.33-1.65-2.33-3.69,1-3.69,2.33-3.69S86.06,203.24,86.06,205.28Z"/><path class="cls-27" d="M77.76,208.58a3.11,3.11,0,1,1-3.1-3.3A3.21,3.21,0,0,1,77.76,208.58Z"/><path class="cls-27" d="M81.4,215a2.63,2.63,0,1,1-2.59-3.09A2.88,2.88,0,0,1,81.4,215Z"/><path class="cls-27" d="M84.39,223.28c0,1.75-.79,3.17-1.77,3.17s-1.77-1.42-1.77-3.17.79-3.18,1.77-3.18S84.39,221.52,84.39,223.28Z"/><path class="cls-27" d="M74.66,217c0,1.74-.86,3.15-1.93,3.15s-1.92-1.41-1.92-3.15.86-3.14,1.92-3.14S74.66,215.22,74.66,217Z"/><path class="cls-27" d="M79.57,223.28c0,1.75-1,3.17-2.26,3.17s-2.25-1.42-2.25-3.17,1-3.18,2.25-3.18S79.57,221.52,79.57,223.28Z"/><path class="cls-27" d="M131.08,196.2c0,2.33-1,4.22-2.24,4.22s-2.24-1.89-2.24-4.22,1-4.22,2.24-4.22S131.08,193.87,131.08,196.2Z"/><path class="cls-27" d="M135.63,202c0,1.8-.62,3.27-1.38,3.27s-1.38-1.47-1.38-3.27.62-3.28,1.38-3.28S135.63,200.2,135.63,202Z"/><path class="cls-27" d="M138.61,210.83c0,1.64-1,3-2.18,3s-2.18-1.34-2.18-3,1-3,2.18-3S138.61,209.19,138.61,210.83Z"/><path class="cls-27" d="M136.74,219.17c0,1.22-.56,2.21-1.25,2.21s-1.24-1-1.24-2.21.56-2.22,1.24-2.22S136.74,218,136.74,219.17Z"/><path class="cls-27" d="M133.88,213c0,1.8-.93,3.25-2.06,3.25s-2-1.45-2-3.25.92-3.26,2-3.26S133.88,211.17,133.88,213Z"/><path class="cls-27" d="M131.82,205.83c0,2.15-1.17,3.88-2.61,3.88s-2.61-1.73-2.61-3.88,1.17-3.88,2.61-3.88S131.82,203.69,131.82,205.83Z"/><path class="cls-27" d="M211.57,203.78c.41,3-.75,5.64-2.58,5.89s-3.65-2-4.06-5,.75-5.64,2.59-5.89S211.16,200.77,211.57,203.78Z"/><path class="cls-27" d="M215.13,199.57a1.8,1.8,0,1,1-1.76-2.14A2,2,0,0,1,215.13,199.57Z"/><path class="cls-27" d="M216.43,207.11c0,1.44-.68,2.6-1.53,2.6s-1.53-1.16-1.53-2.6.68-2.6,1.53-2.6S216.43,205.67,216.43,207.11Z"/><path class="cls-27" d="M204.9,209c0,1-.5,1.86-1.11,1.86s-1.12-.83-1.12-1.86.5-1.86,1.12-1.86S204.9,207.94,204.9,209Z"/><path class="cls-4" d="M193.64,225.06s7.54-.84,6.71-3.81S195.39,216,193.64,225.06Z"/><path class="cls-5" d="M193.64,225.06s5.3-2.42,5.22-4.24C198.73,217.73,195.23,218.07,193.64,225.06Z"/><path class="cls-6" d="M193.41,225.27l.05-.25c1.11-5.72,3.08-6.57,4.15-6.57,1.41,0,2.53,1.38,2.92,2.74a1.76,1.76,0,0,1-.25,1.49c-1.31,1.95-6.4,2.54-6.62,2.56Zm4.2-6.45c-1.6,0-3,2.19-3.74,6,1-.14,5-.79,6.11-2.36a1.35,1.35,0,0,0,.19-1.18A3.11,3.11,0,0,0,197.61,218.82Z"/><path class="cls-4" d="M203.45,227.38s7.22-4.27,4.8-7.34S201,219.11,203.45,227.38Z"/><path class="cls-5" d="M203.45,227.38s4.49-4.42,3.13-6.88C204.68,217.08,201.74,220.5,203.45,227.38Z"/><path class="cls-6" d="M203.34,227.66l-.07-.22c-1.36-4.57-.41-6.8.27-7.72a2.78,2.78,0,0,1,2.26-1.2,3.4,3.4,0,0,1,2.6,1.4,2.4,2.4,0,0,1,.49,2c-.52,2.75-5.15,5.53-5.34,5.64Zm2.46-8.77a2.43,2.43,0,0,0-2,1.05c-1.07,1.44-1.17,4-.28,7.16.91-.58,4.54-3,5-5.27a2,2,0,0,0-.41-1.68A3,3,0,0,0,205.8,218.89Z"/><path class="cls-4" d="M212.72,225.06s5.09-6.19,2.41-7.35S208.34,218.73,212.72,225.06Z"/><path class="cls-5" d="M212.72,225.06s2.95-5.53,1.32-6.23C211.25,217.63,208.93,219.29,212.72,225.06Z"/><path class="cls-6" d="M212.7,225.37l-.14-.21c-1.84-2.65-2.41-4.95-1.62-6.46a2.94,2.94,0,0,1,2.69-1.49,4.14,4.14,0,0,1,1.58.33,1.4,1.4,0,0,1,.84,1c.51,2.13-3,6.47-3.19,6.66Zm.93-7.79a2.56,2.56,0,0,0-2.36,1.3c-.41.78-.76,2.57,1.46,5.86.68-.86,3.37-4.42,3-6.13a1,1,0,0,0-.62-.73A3.74,3.74,0,0,0,213.63,217.58Z"/><path class="cls-4" d="M143.81,235s6-2.42,5.67-5-3.63-2.7-4.56-2.05S143.81,235,143.81,235Z"/><path class="cls-5" d="M143.92,232.84s4.57-.25,4.2-2.85-2.27-2.7-3.2-2.05S143.92,232.84,143.92,232.84Z"/><path class="cls-6" d="M143.61,235.29V235c0-.66.22-6.53,1.2-7.21s4.45-.57,4.84,2.17-5.53,5.12-5.78,5.22Zm2.74-7.5a2.48,2.48,0,0,0-1.32.3c-.6.42-.94,4.17-1,6.63,1.15-.49,5.6-2.58,5.3-4.71A2.71,2.71,0,0,0,146.35,227.79Z"/><path class="cls-4" d="M133.88,235.75s8.53-1.45,8.35-4.44-2.77-5.42-5.8-3.93S133.62,234.92,133.88,235.75Z"/><path class="cls-5" d="M133.88,233.38s7.23.22,7-2.77-2.15-4.61-4.49-3.23S133.62,232.54,133.88,233.38Z"/><path class="cls-6" d="M133.75,236l-.05-.15c-.24-.76-.55-7,2.65-8.59a4.17,4.17,0,0,1,1.91-.47c2.21,0,4,1.95,4.15,4.54.2,3.13-8.15,4.58-8.5,4.65Zm4.51-8.84a3.92,3.92,0,0,0-1.75.43c-2.78,1.36-2.69,6.81-2.49,8-2.57.48,8.22-1.07,8-4.22C141.89,228.92,140.26,227.12,138.26,227.12Z"/><path class="cls-4" d="M124.39,233.15s11.74-2.11,9.35-6.22S125.05,224.87,124.39,233.15Z"/><path class="cls-5" d="M124.81,230.61s8.34-.53,7.56-3.23C131.05,222.82,126.14,225.27,124.81,230.61Z"/><path class="cls-6" d="M124.18,233.38l0-.25c.45-5.54,3.46-8.44,6.2-8.44a4.05,4.05,0,0,1,3.5,2.15,2.15,2.15,0,0,1,.15,2c-1.36,2.92-9.29,4.38-9.63,4.44Zm6.22-8.32c-2.53,0-5.31,2.7-5.81,7.86,1.35-.27,8-1.71,9.12-4.19a1.74,1.74,0,0,0-.14-1.7A3.61,3.61,0,0,0,130.4,225.06Z"/><path class="cls-4" d="M73.32,230.27l5.49,6.13c1.76-1.48,2.91-6,.76-7.72S74.08,228.44,73.32,230.27Z"/><path class="cls-5" d="M73.32,230.27,77.76,235c1.76-1.49,1.32-5,.47-6C76.41,227,74,229,73.32,230.27Z"/><path class="cls-6" d="M78.79,236.66,73.1,230.3l.05-.11a4.66,4.66,0,0,1,4.16-2.43,3.83,3.83,0,0,1,2.37.78,3.62,3.62,0,0,1,1.25,2.91,7.11,7.11,0,0,1-2,5.1Zm-5.25-6.43,5.28,5.91a6.85,6.85,0,0,0,1.73-4.68,3.31,3.31,0,0,0-1.1-2.63,3.44,3.44,0,0,0-2.14-.7A4.4,4.4,0,0,0,73.54,230.23Z"/><path class="cls-4" d="M81.5,229l5.21,7.39c1.67-2.14,2.49-6.32,1.24-7.81S84.1,226.74,81.5,229Z"/><path class="cls-5" d="M81.5,229l3.86,5.15c1.85-.27,2.5-3.64,1.26-5.13S84.1,226.74,81.5,229Z"/><path class="cls-6" d="M86.7,236.72,81.25,229l.13-.12a6,6,0,0,1,3.88-1.66,3.69,3.69,0,0,1,2.84,1.26c1.34,1.61.44,5.9-1.24,8.05Zm-5-7.68,5,7.05c1.6-2.23,2.2-6.07,1.1-7.38a3.28,3.28,0,0,0-2.55-1.13A5.59,5.59,0,0,0,81.75,229Z"/><path class="cls-4" d="M89.87,227.94,95,233.89c1.11-1,2.23-5.86,0-7.44S89.87,227.94,89.87,227.94Z"/><path class="cls-5" d="M89.87,227.94l4,4.69c1.12-1,2.2-3.39.51-5.24C92.56,225.37,89.87,227.94,89.87,227.94Z"/><path class="cls-6" d="M95,234.16l-5.35-6.22.12-.13c.07-.08,1.9-2,3.82-2a2.61,2.61,0,0,1,1.53.49,3.72,3.72,0,0,1,1.36,2.92c.12,2-.61,4.14-1.34,4.81ZM90.13,228,95,233.61a7.39,7.39,0,0,0,1.09-4.36,3.45,3.45,0,0,0-1.2-2.64,2.23,2.23,0,0,0-1.32-.42A5.81,5.81,0,0,0,90.13,228Z"/><path class="cls-10" d="M104.47,143.32s21.2,14,26.78,20.83c2.61.37,9.12,1.09,16.37,10.77,4.28.76,13.26,2.25,19.37,7.83,2.76-2.42,17.08-5.4,26.57-1.12,2-3.48,12.46-7.63,16.62-8.16,4.95-.58,14,6,12,9.28-2.79,4.09-17.32,13.8-23.16,13.6-7.9,2.77-17,7.79-33.38,3.69-7.81-.55-17.33-2.57-23.71-11-7.53-3.35-15.9-9.7-17.21-14.15-3.34-1.29-14.84-11.14-14.95-16C107.45,154.1,104.47,143.32,104.47,143.32Z"/><path class="cls-11" d="M177.45,201.77a48,48,0,0,1-11.83-1.55c-7-.49-17.06-2.18-23.79-11-7.21-3.21-15.79-9.51-17.24-14.16-3.69-1.5-14.81-11.2-15-16.07-2.32-4.82-5.29-15.52-5.32-15.62l-.13-.48.41.27c.22.14,21.18,14,26.78,20.81l.11,0c2.74.39,9.15,1.29,16.27,10.76l.2,0c4.25.75,13,2.3,19.07,7.71,2-1.58,8.35-3.22,14.95-3.22a29,29,0,0,1,11.54,2.12c2.27-3.53,12.49-7.59,16.67-8.11a4.78,4.78,0,0,1,.66,0c4,0,9.58,3.66,11.28,6.66a2.86,2.86,0,0,1,.26,2.93c-3,4.34-17.47,13.86-23.3,13.69-1,.36-2.05.75-3.14,1.17C190.9,199.61,185.2,201.77,177.45,201.77Zm-72.66-58c.6,2.15,3.14,10.92,5.17,15.11l0,.08c.11,4.65,11.37,14.48,14.83,15.81l.09,0,0,.09c1.34,4.56,9.92,10.84,17.1,14l0,0,0,0c6.65,8.73,16.64,10.4,23.58,10.9a48.29,48.29,0,0,0,11.78,1.54c7.68,0,13.35-2.15,18.34-4.05,1.1-.42,2.15-.82,3.18-1.18H199c5.58.21,20.16-9.34,23-13.52a2.48,2.48,0,0,0-.27-2.54c-1.62-2.86-7.1-6.48-11-6.48a4,4,0,0,0-.61,0c-4.07.51-14.49,4.66-16.49,8.06l-.08.15-.16-.07A28.52,28.52,0,0,0,182,179.65c-6.66,0-13,1.67-14.84,3.24L167,183l-.12-.12c-5.94-5.42-14.76-7-19-7.73l-.35-.06-.05-.06c-7-9.4-13.36-10.29-16.06-10.67l-.25,0,0,0C126,158,107.79,145.74,104.79,143.75Z"/><path class="cls-7" d="M116,150.91a47.89,47.89,0,0,1-5.35,6c4.65,8.52,12,15.76,15.07,16.59h0a24.81,24.81,0,0,0,5.4-9.63C128,159.89,121.68,154.94,116,150.91Z"/><path class="cls-8" d="M126.94,172a23.49,23.49,0,0,0,4.14-8.07c-3.05-4-9.4-9-15.13-13a55.58,55.58,0,0,1-3.94,4.66C116.24,161.75,120.26,168.84,126.94,172Z"/><path class="cls-9" d="M126.6,169.29c2.57-3.41,2.32-3.55,2.79-5.37-3-4-7.4-7.08-13.13-11.12a19.25,19.25,0,0,1-2.4,2.82C118.09,161.8,119.93,166.15,126.6,169.29Z"/><path class="cls-11" d="M125.67,173.85l-.11-.15c-3.33-1-10.62-8.4-15.12-16.66l-.07-.13.11-.09a47.73,47.73,0,0,0,5.32-6l.11-.14.14.1c7.52,5.3,12.63,9.69,15.18,13.06l.05.07,0,.09a25.06,25.06,0,0,1-5.43,9.7ZM110.84,157c4.37,8,11.59,15.37,14.79,16.34a24.72,24.72,0,0,0,5.25-9.37c-2.53-3.31-7.54-7.61-14.89-12.8A47.25,47.25,0,0,1,110.84,157Z"/><path class="cls-7" d="M147.8,175l-.18,0c-7.25-9.68-13.76-10.4-16.37-10.77-.05-.08-.11-.15-.17-.23a24.81,24.81,0,0,1-5.4,9.63c1.69,2.34,9.55,11.11,16.59,13.27C145.92,183.33,147.29,178.05,147.8,175Z"/><path class="cls-8" d="M147.62,174.92c-7.25-9.68-13.76-10.4-16.37-10.77-.05-.08-.11-.15-.17-.23a23.28,23.28,0,0,1-4.14,8.06c3.42,4.41,10.82,9.22,16.58,13.47A23.24,23.24,0,0,0,147.8,175Z"/><path class="cls-9" d="M145.85,175.73c-7.25-9.69-14-9.65-14-9.72-.47,1.82-.41,2.57-3,6,3.42,4.41,7.86,6.32,13.63,10.57A16.34,16.34,0,0,0,145.85,175.73Z"/><path class="cls-11" d="M142.32,187l-.11,0c-7.48-2.3-15.42-11.6-16.68-13.34l-.08-.12.09-.11a24.64,24.64,0,0,0,5.36-9.56l.1-.37.36.48h.1c2.74.39,9.15,1.29,16.27,10.76l.28.05,0,.18c-.48,2.94-1.84,8.4-5.58,12Zm-16.4-13.47c2.06,2.79,9.68,11,16.3,13.05,3.53-3.43,4.87-8.6,5.36-11.51h-.06l-.05-.06c-7-9.4-13.36-10.29-16.06-10.67l-.24,0A25.62,25.62,0,0,1,125.92,173.56Z"/><path class="cls-7" d="M116,150.91c-5.63-4-10.65-7-11.39-7.53a104.85,104.85,0,0,0,6,13.53l0,0A47.89,47.89,0,0,0,116,150.91Z"/><path class="cls-8" d="M116,150.91c-5.63-4-10.65-7-11.39-7.53a64.22,64.22,0,0,0,7.66,12.24C113.61,153.55,114.69,152.56,116,150.91Z"/><path class="cls-9" d="M113.86,150.65c-5.62-4-6.9-4.8-7.63-5.29A36.36,36.36,0,0,0,112,152.8C113.39,150.73,112.61,152.31,113.86,150.65Z"/><path class="cls-11" d="M110.55,157.25l-.11-.21.16-.09-.17.07a104.08,104.08,0,0,1-6-13.58l-.18-.52.46.3.83.53c1.79,1.13,6,3.78,10.55,7l.16.11-.11.16a47.77,47.77,0,0,1-5.37,6.07Zm-5.63-13.42a105.33,105.33,0,0,0,5.73,12.82,45.9,45.9,0,0,0,5-5.7c-4.5-3.17-8.61-5.77-10.38-6.88Z"/><path class="cls-7" d="M222,180.1c-1.77-3.26-8-7.08-11.81-6.63-4.11.52-14.33,4.58-16.54,8,1.9,2.48,5,7.25,5,12.24l.19-.07C208.26,190.23,213,188.37,222,180.1Z"/><path class="cls-8" d="M218.67,179.46c-1.77-3.26-5.3-6.57-8.49-6-4.08.74-14.33,4.58-16.54,8,1.9,2.48,4.19,6.26,4.78,9.82A60.67,60.67,0,0,0,218.67,179.46Z"/><path class="cls-9" d="M216.53,179.46c-1.77-3.26-4.54-5.09-7.72-4.51-4.08.75-11.28,5-13.21,7,1.91,2.48,3.22,3.56,3.82,7.13A76.87,76.87,0,0,0,216.53,179.46Z"/><path class="cls-11" d="M198.49,194v-.27c-.06-5-3.16-9.73-5-12.13l-.08-.1.07-.11c2.25-3.51,12.57-7.6,16.68-8.12a4.78,4.78,0,0,1,.66,0c3.73,0,9.55,3.47,11.33,6.76l.07.13-.11.1c-8.83,8.14-13.49,10-23.19,13.61Zm-4.62-12.52c1.84,2.43,4.82,7.08,5,12,9.57-3.51,14.21-5.42,22.9-13.42-1.65-2.87-7.05-6.44-10.93-6.44a4,4,0,0,0-.61,0C206.19,174.16,196.21,178.09,193.87,181.5Z"/><path class="cls-30" d="M193.56,181.63c-9.49-4.28-23.81-1.3-26.57,1.12l0,0c.7,3.59,1.34,9.44-.37,14.7H167c6.92,1.11,13.69,3.52,31.68-3.69,0-5-3.13-9.76-5-12.24Z"/><path class="cls-7" d="M193.56,181.63c-9.49-4.28-23.81-1.3-26.57,1.12l0,0c.7,3.59,1.34,9.44-.37,14.7H167c6.92,1.11,13.69,3.52,31.68-3.69,0-5-3.13-9.76-5-12.24Z"/><path class="cls-8" d="M198.31,190.84a25.21,25.21,0,0,0-4.67-9.33l-.08.12c-9.49-4.28-23.81-1.3-26.57,1.12l0,0a32.74,32.74,0,0,1,.21,12.47C177.77,196.37,189.08,195.93,198.31,190.84Z"/><path class="cls-9" d="M195.23,190.28a30.74,30.74,0,0,0-2.6-7.16c-9.49-4.28-20.65-1.9-23.42.51a38.69,38.69,0,0,1-.39,10.05C179.41,194.84,186,195.37,195.23,190.28Z"/><path class="cls-11" d="M177.53,198.92a44.51,44.51,0,0,1-8.45-.93l-2.12-.37h-.61l.08-.24c1.66-5.11,1.11-10.77.36-14.61l-.12-.57.33.31c2-1.58,8.35-3.22,14.95-3.22a28.93,28.93,0,0,1,11.54,2.12l.14-.21.16.21c1.87,2.43,5,7.27,5.07,12.35v.12l-.12,0C190.23,197.33,183.49,198.92,177.53,198.92Zm-10.68-1.67H167c.74.12,1.44.25,2.16.38a44.79,44.79,0,0,0,8.38.92c5.88,0,12.55-1.57,21-4.93-.11-4.77-3-9.35-4.84-11.78v0l-.16-.07A28.52,28.52,0,0,0,182,179.65c-6.59,0-12.9,1.63-14.77,3.18C167.91,186.65,168.43,192.19,166.85,197.25Z"/><path class="cls-7" d="M167,182.73c-6-5.49-14.84-7-19.17-7.78-.51,3.1-1.88,8.38-5.53,11.87l0,0c1.75,2.67,8.5,10.19,24.28,10.59C168.31,192.17,167.67,186.32,167,182.73Z"/><path class="cls-8" d="M167,182.73c-6-5.49-14.84-7-19.17-7.78-.45,2.77-1.6,7.28-4.44,10.69A37.81,37.81,0,0,0,167.22,195,33.19,33.19,0,0,0,167,182.73Z"/><path class="cls-9" d="M165.66,183.63c-6-5.48-12.4-6.44-16.74-7.21-.45,2.77-.87,4.58-3.72,8,6.69,5.74,11.23,8.39,20.28,8.65C166.38,188.5,166.26,186.69,165.66,183.63Z"/><path class="cls-11" d="M166.74,197.62h-.14c-16.71-.42-23.19-8.79-24.4-10.62l-.26-.09.2-.21c3.66-3.5,5-8.88,5.47-11.77l0-.18.3,0c4.26.75,13.13,2.32,19.15,7.8l0,0v.06c.76,3.88,1.32,9.6-.37,14.79Zm-24.21-10.8c1.25,1.86,7.62,10,23.94,10.42,1.6-5.05,1.07-10.61.33-14.42-5.9-5.34-14.6-6.9-18.85-7.65C147.45,178.11,146.1,183.32,142.53,186.82Z"/><path class="cls-2" d="M31.38,87.15A50.83,50.83,0,0,0,50,98.5c2.94,1.11,8.71,3,8.71,3,3.16-3,9.11-5.39,14.69-7.16s17.86-6,24.92-12.93Z"/><path class="cls-15" d="M31.38,87.15a60.92,60.92,0,0,0,18.13,9.49,66.48,66.48,0,0,0,9.27,2.12c3.16-3,7.47-4.45,13-6.22S92,86.42,98.33,81.38Z"/><path class="cls-16" d="M31.38,87.15a132.56,132.56,0,0,0,18,7.35,44.35,44.35,0,0,0,8.46,1.67c3.16-3,7.81-3.53,13.39-5.3S92,86.42,98.33,81.38Z"/><path class="cls-2" d="M33.57,70.53S50.76,48.35,90.38,64Z"/><path class="cls-16" d="M33.57,70.53S48.3,52.54,90.38,64L54.8,70.41Z"/><path class="cls-17" d="M96.94,73.2c.82,7.56-23.22,17.71-39.53,19.47s-26.15-3.86-27-11.42,7.81-17.28,29-19.41C75.79,60.2,96.12,65.64,96.94,73.2Z"/><path class="cls-3" d="M58.77,101.68l-.11,0c-.06,0-5.8-1.88-8.71-3a51.41,51.41,0,0,1-18.7-11.39l.26-.26a51.2,51.2,0,0,0,18.56,11.3c2.7,1,7.81,2.68,8.6,2.94,2.71-2.5,7.64-4.9,14.69-7.13,11.26-3.56,19.85-8,24.84-12.88l.26.27c-5,4.9-13.67,9.38-25,13-7.06,2.23-12,4.63-14.62,7.12Z"/><path class="cls-3" d="M104.32,87.81c-5.81-8.53-11.67-7.92-11.73-7.92a8.47,8.47,0,0,1,5.81,1.4C102,83.44,104.32,87.81,104.32,87.81Z"/><path class="cls-3" d="M28.21,91.48a12.06,12.06,0,0,1,3-4.58c2-2,5.67-3,5.67-3C29.77,86.88,28.22,91.44,28.21,91.48Z"/><path class="cls-3" d="M72.62,73.06A8.48,8.48,0,0,1,79.2,70.6c-9.2,1.08-9,8.78-9,9.1A9.13,9.13,0,0,1,72.62,73.06Z"/><path class="cls-3" d="M37.78,76.12c2.34-2.36,5.84-.88,5.84-.88-2.56-.43-4.43,0-5.57,1.14-1.86,2-1.1,5.49-1.1,5.52S35.75,78.19,37.78,76.12Z"/><ellipse class="cls-31" cx="41.05" cy="82.99" rx="2.6" ry="4.58"/><path class="cls-32" d="M41.05,78.41c-1,0-1.82,1-2.27,2.34,0,3,1.27,5.4,3.71,6A6,6,0,0,0,43.65,83C43.65,80.46,42.49,78.41,41.05,78.41Z"/><path class="cls-3" d="M41.05,87.75c-1.54,0-2.79-2.13-2.79-4.76s1.25-4.76,2.79-4.76,2.79,2.13,2.79,4.76S42.59,87.75,41.05,87.75Zm0-9.15c-1.33,0-2.42,2-2.42,4.39s1.09,4.39,2.42,4.39,2.42-2,2.42-4.39S42.38,78.6,41.05,78.6Z"/><path class="cls-31" d="M78.88,79.63c-.65,2.44-2.3,4.13-3.69,3.76s-2-2.64-1.35-5.09,2.29-4.13,3.68-3.76S79.52,77.18,78.88,79.63Z"/><path class="cls-32" d="M78.16,74.89a1.49,1.49,0,0,0-.64-.35c-1.39-.37-3,1.32-3.68,3.76a5.56,5.56,0,0,0,.36,4.33C77.38,82.1,78.25,78.2,78.16,74.89Z"/><path class="cls-3" d="M75.58,83.63a1.54,1.54,0,0,1-.43-.06,2.43,2.43,0,0,1-1.58-1.89,6.89,6.89,0,0,1,.09-3.42c.6-2.29,2.07-4,3.48-4a1.59,1.59,0,0,1,.43.06,2.42,2.42,0,0,1,1.57,1.9,6.77,6.77,0,0,1-.08,3.42C78.45,82,77,83.63,75.58,83.63Zm1.56-8.95c-1.23,0-2.57,1.58-3.12,3.67a6.6,6.6,0,0,0-.09,3.23,2.09,2.09,0,0,0,1.31,1.63,1.33,1.33,0,0,0,.34.05c1.23,0,2.56-1.58,3.12-3.68a6.48,6.48,0,0,0,.08-3.23,2.06,2.06,0,0,0-1.3-1.63A1.32,1.32,0,0,0,77.14,74.68Z"/><path class="cls-3" d="M33.57,70.53a25.07,25.07,0,0,1,7.92-6.73,40.36,40.36,0,0,1,5.65-2.68c7.51-2.86,19.56-4.91,36.19,0,2.39.71,7.31,2.92,7.31,2.92-20.41-8-34.85-5.85-43.36-2.6C38.06,65,33.62,70.47,33.57,70.53Z"/><path class="cls-3" d="M54,77.71C53.65,69.8,55.91,66,55.91,66s-4.3,9.55,1.5,29.44A60.23,60.23,0,0,1,54,77.71Z"/><path d="M46.86,55.77c-.56,2.72-2.53,4.61-4.39,4.23s-2.93-2.9-2.37-5.62,2.53-4.61,4.4-4.22S47.42,53.06,46.86,55.77Z"/><path class="cls-19" d="M45.55,50.74a1.61,1.61,0,1,1-1.61-1.6A1.61,1.61,0,0,1,45.55,50.74Z"/><path d="M86.17,54.36c.73,2.64,2.8,4.38,4.62,3.88s2.69-3.06,2-5.7-2.8-4.39-4.62-3.88S85.44,51.71,86.17,54.36Z"/><path class="cls-19" d="M87.13,49.31a1.59,1.59,0,1,0,1.49-1.7A1.59,1.59,0,0,0,87.13,49.31Z"/><path class="cls-14" d="M88.66,175.27S85,185.2,100.1,199.65c.75.67,5-.24,5.77-.73-1.3-2.41-4-8.69-2.89-12.34,1.4,2.58,3.82,11.4,5.77,12.15,2.23.85,9.17,2.66,14.58.92-1.19-5-.29-10,1.06-11.88C120.65,183.77,103.54,168,88.66,175.27Z"/><path class="cls-14" d="M101.78,202a18,18,0,0,0,11.37,7.76c-3-3-5.6-6.6-6.17-8.12C106.05,201.9,103.24,202.85,101.78,202Z"/><path class="cls-14" d="M110.08,202a20,20,0,0,0,13.25.45c.85,3,1.34,6.51,2.35,9.35A18.77,18.77,0,0,1,110.08,202Z"/></svg>