<svg id="Layer_1" data-name="Layer 1" xmlns="http://www.w3.org/2000/svg" viewBox="0 0 256 256"><defs><style>.cls-1{opacity:0.3;}.cls-2{fill:#e8e8e8;}.cls-10,.cls-19,.cls-2,.cls-20,.cls-23,.cls-24,.cls-3{stroke:#161616;}.cls-10,.cls-13,.cls-14,.cls-19,.cls-2,.cls-20,.cls-23,.cls-24,.cls-25,.cls-26,.cls-3,.cls-6{stroke-miterlimit:10;}.cls-19,.cls-2,.cls-20,.cls-25,.cls-26,.cls-3{stroke-width:0.78px;}.cls-10,.cls-24,.cls-3{fill:#6b1230;}.cls-13,.cls-20,.cls-4,.cls-6{fill:#fff;}.cls-5{fill:#020206;}.cls-13,.cls-26,.cls-6{stroke:#111;}.cls-6{stroke-width:0.96px;}.cls-7{fill:#8e8e8d;}.cls-8{fill:#282828;}.cls-9{fill:#5b031e;}.cls-10{stroke-width:0.92px;}.cls-11{fill:#726f70;opacity:0.53;}.cls-12{fill:#bfbfbf;}.cls-13,.cls-14{stroke-width:0.86px;}.cls-14,.cls-17{fill:#519fe2;}.cls-14{stroke:#030d54;}.cls-15{fill:#00001e;}.cls-16{fill:#fafaff;}.cls-18{fill:#ededed;}.cls-19{fill:#181818;}.cls-21{fill:#918e8f;opacity:0.68;}.cls-22{fill:#383838;}.cls-23{fill:#efefef;}.cls-23,.cls-24{stroke-width:1.16px;}.cls-25,.cls-26{fill:none;}.cls-25{stroke:#232323;}</style></defs><ellipse class="cls-1" cx="138.39" cy="225.99" rx="67.12" ry="11.97"/><g id="z"><path class="cls-2" d="M54,34.3s-8-5.75-14.36-2.08c0,0,1.72,8.31,10.47,9.72l6.59-2.73Z"/><path class="cls-3" d="M42.66,33.88a20.36,20.36,0,0,0,10,5.33l-3,1.29A9.8,9.8,0,0,1,42.66,33.88Z"/><path class="cls-4" d="M60.46,78.91a11.14,11.14,0,0,1,6.86-4.2L77.63,77.8l7.05-5.48,3.52-9.78L74.8,37.35l-.89-1.55S60,29.11,50.07,44a53.15,53.15,0,0,0-1,7.63l-.28,3.7s-2.5,3.37-2.57,5Z"/><path class="cls-5" d="M54,45.91s.55,6.75-1.28,9.43a18,18,0,0,0,4.56-12S54.69,41.74,54,45.91Z"/><path class="cls-6" d="M53.85,48.12s-1.73-.92-1.18-4.47A9.43,9.43,0,0,0,49.53,47s-1.27-3.92,0-6.87a18.3,18.3,0,0,1,5.23-1.7l-5.11-1.13s.17-5.24,4.31-7.85l2.7,2.61-1.9-3.46a10.73,10.73,0,0,1,6-2.21L71.09,26s6.1,1.3,10,4.11c0,0-.33,3.32-1.31,4.16,0,0,2.4-1.56,2.84-2.65,0,0,8.94,7.3,12.32,15.38l-3.6,3.28,4.48-2L97.92,53a39.39,39.39,0,0,1-4.15,3.64A10.39,10.39,0,0,0,99,54.88s-.17,10.78,5.15,15.59l-2,2.39,2.51-.85s8.78,14.8,8.78,22.39c0,0-7.71-10-9.42-13.74-1.61-3.56-12-9.87-12-9.87l-7-19.73L76.61,37.89l-6.86-5.52-6.82,3.16s-3.3,0-5.37,7.13C57.56,42.66,55.38,47,53.85,48.12Z"/><path class="cls-7" d="M141.68,162.76s7.19,15.46,9.95,19.18c0,0-10.43,36.43-11,40,0,0,1.2.36,4.92,1.08a18.56,18.56,0,0,1,1.79,3.41,4.78,4.78,0,0,0-.6-5.57s10.67-34.27,14.38-38.7c0,0-4.91-12.83-4.07-23l-3.24-3.24Z"/><path class="cls-7" d="M85.31,217.8l1.86-1.33-.93-28.29s-5.07-29-5.34-32.25L96,160.3l2.54,13.87S94,193,93.71,197.39l-1.33,17.35s1.2,3.46.53,5.07C92.91,219.81,86.64,217.94,85.31,217.8Z"/><path d="M85.31,217.8s-6.18,3.21-5.69,8.65a18.74,18.74,0,0,0,11-.83s2.61-1.37,2.27-5.81Z"/><path d="M102.11,222.81s-5.67,1.07-6.54,8.12c0,0,8.31,2.13,12.47-1.74a16.39,16.39,0,0,0,1.26-4.68Z"/><path d="M140.6,222s-5.3,1-6.85,8.1a16.09,16.09,0,0,0,11.4,0s2.2-1.41,2.16-3.61L145.52,223Z"/><path d="M187.7,225.13s-5.23,2.71-5.91,7.54c0,0,8,2.23,13.15-1.15,0,0,1.83-2.87.28-5.07Z"/><path class="cls-4" d="M65,62.14l-.3-21.08,8.46-6.28S84.43,39.21,90.46,57.9c0,0,17.1,29.47,25.13,37.59s30.3,11,40.93,8.3,20.17-4.59,29.26,3.36,14.39,27.62,8,44a35,35,0,0,0-1.15,20.19s3.74,6,3.52,11.91l-.66,35.63s4.42,6.42-.23,7.52l-7.52-1.32L190,223l-5.72-42.43s-24.67-13.39-30.64-22.47c0,0-14.14,10.59-41.21,8.47a10.09,10.09,0,0,1-2.82,6.07L108,221.55a10.27,10.27,0,0,1,1.27,3l-7.19-1.7L95.77,164s-4.13-.6-6.15-1.94c0,0-10,.33-14.23-11.11s-3-28-2.24-47c.69-16.35-6.09-25.66-8-27.92a1.33,1.33,0,0,1-.25-1.27l.84-2.66-.77-10"/><path class="cls-8" d="M47.94,86.11a7.62,7.62,0,0,0,7,0c3.85-1.93,4.19-6.69,7.25-9.3s2.83-7.25,1-8.49-5.44-.91-5.44-.91-3.4-1.7-5.21-6.8-9.3,1.93-9.3,1.93S41,60.15,37.85,65a5.07,5.07,0,0,0,0,5.44s-.22,3.85-1.69,5,3.39,4.54,8.27,3.74A3.8,3.8,0,0,1,47,82.48,8.43,8.43,0,0,0,47.94,86.11Z"/><path class="cls-9" d="M47,79.1s7.54-1.62,9.82-8.63h.67s4,9.4-4.38,13.64c0,0-4.83,1.83-4.65-3.37A2.69,2.69,0,0,0,47,79.1Z"/><path class="cls-10" d="M48.75,69.79s1.55-1.35,2.62-.75,1.41-2-.67-2S48.75,69.79,48.75,69.79Z"/><path class="cls-11" d="M41.67,64.6s4.27-3.73,8.56-3.56c0,0,.87.36,1.59,2.4s2.69,4.61,7,4.31a6.86,6.86,0,0,1-4.25-3.34c-1.6-2.83-1.32-5.24-4.34-5.65s-6.12,3.17-6.94,3.78c0,0-1.6-1.67-4.23.9s-2.35,5.31-1.21,7c0,0-.83-4.21,2-6.37S41.67,64.6,41.67,64.6Z"/><path class="cls-12" d="M63.33,68.76s9.26,2.56,13.71-.32a11.28,11.28,0,0,0,4.79-8.1s3.08,7.92-3.51,12.52S66,77.18,66,77.18l-.79-1.08A1.06,1.06,0,0,0,64,75.76a8.7,8.7,0,0,0-2.79,2.44l2.3-5.54Z"/><path class="cls-5" d="M61.56,68.08s3.37,3.49-1,8.49-3.3,8.57-8.32,9-4-2.2-4.3-3-.78-3.22-1.88-3.52c0,0-2.22-.42-.41.79,0,0,1.53.86,1.7,4.57S53.58,87,55,86.11s3.13-2.52,5.49-7.2c0,0,2.93-2.7,3.77-5.15S64.62,68.49,61.56,68.08Z"/><path class="cls-5" d="M37,74.67s.09,3.41,8.44,2.88,11.2-6.76,11.2-6.76-1.25,7.36-12.23,8.4c0,0-6.76.9-8.54-3.35C35.89,75.84,35,74.52,37,74.67Z"/><path class="cls-5" d="M46.18,71.18S46,65.35,50.39,65a2.93,2.93,0,0,1,2.49,2.1,3.33,3.33,0,0,0-4.13-.74A5.59,5.59,0,0,0,46.18,71.18Z"/><ellipse class="cls-13" cx="65.92" cy="53.54" rx="5.43" ry="4.41" transform="translate(-5.07 100.16) rotate(-72.38)"/><ellipse class="cls-14" cx="65.92" cy="53.54" rx="3.12" ry="2.53" transform="translate(-5.07 100.16) rotate(-72.38)"/><ellipse class="cls-15" cx="65.8" cy="54.02" rx="2.13" ry="1.74" transform="translate(5.72 114.33) rotate(-84.5)"/><ellipse class="cls-16" cx="65.37" cy="52.33" rx="0.68" ry="0.64"/><ellipse class="cls-16" cx="65.76" cy="55.75" rx="0.43" ry="0.41"/><path class="cls-13" d="M51.32,50.42s-1.94-.92-2.82,2.73a7.14,7.14,0,0,0,.72,4.94,7.52,7.52,0,0,0,2.51-4.55S52.05,51,51.32,50.42Z"/><path class="cls-17" d="M49.69,53.68a3.56,3.56,0,0,0,.74,2.7c.17.23,1.18-2.77,1.18-2.77l0-2S50.14,51.46,49.69,53.68Z"/><path class="cls-15" d="M51.58,52.33A1.55,1.55,0,0,0,50.23,54c0,1.55.67,2,.67,2a7.24,7.24,0,0,0,.83-2.47c.07-1.07.07-1.22.07-1.22"/><ellipse class="cls-16" cx="50.88" cy="52.74" rx="0.49" ry="0.61"/><path class="cls-5" d="M58.82,62.69s9.13,1.37,13.33-6.3A18.8,18.8,0,0,0,74,42.11s5.91,9.28-.89,18.27C67.32,68.08,58.82,62.69,58.82,62.69Z"/><path class="cls-5" d="M63.33,45.15s5.57-3,7.35,2.31c0,0,0-4.05-3.36-5.35C64.57,41.06,63.33,45.15,63.33,45.15Z"/><path class="cls-5" d="M49.15,49.72s1.06-2.15,2.65.26c0,0-.19-2.83-1.59-2.41C49,47.93,49.15,49.72,49.15,49.72Z"/><path class="cls-5" d="M65,67.56s8.93-1.68,11.43-6.72a26.87,26.87,0,0,0,2.32-14.93s2.71,3.27.66,14S65,67.56,65,67.56Z"/><path class="cls-5" d="M60.17,36.66S61.85,45.13,58.35,50c0,0,5-7.3,4.5-14.56C62.85,35.42,59.91,34.81,60.17,36.66Z"/><path class="cls-5" d="M66,77.18S70.1,76.4,74.85,75c2-.6,4.07-1.3,6-2.11,0,0,.28,6.06-11.25,10.69C69.64,83.55,67.06,78.16,66,77.18Z"/><path class="cls-5" d="M91,58.75S86.14,75.51,75.39,84.42c0,0,5.59-.26,12.32-7.33s8-10,8-10Z"/><path class="cls-18" d="M41.66,79.21s1.25,2.87,8.1.53,7.46-6.67,7.46-6.67l-1-.95s-1.42,3.81-4.93,5.15A23,23,0,0,1,41.66,79.21Z"/><path class="cls-18" d="M48.47,81.61s1.16,2,4.41.59a8.25,8.25,0,0,0,4.69-6.47c.07-1.63.15-2.44.15-2.44l.58.18s.52,4.24-1.51,7.19-2.81,3.4-4.57,3.76S48.48,84,48.47,81.61Z"/><path class="cls-5" d="M54,29.47l7.21,7.72a32.53,32.53,0,0,0-2.81,4.13L51.61,31.7S52.77,29.59,54,29.47Z"/><path class="cls-5" d="M60.79,26.41l-2,.29s.66,7.52,2.35,9.1l1.68-.38Z"/><path class="cls-5" d="M73.14,35.32s2.51-5.06,2.78-7.83l4.16,2s-1.51,6.29-3.47,8.42Z"/><path class="cls-5" d="M80.89,41a30.87,30.87,0,0,0,7.31-4s4.51,5.35,5.64,7.67L95,47l-6.49,6S83.71,42.78,80.89,41Z"/><path class="cls-5" d="M99,54.88a12.74,12.74,0,0,1-7.08,5.46l5.55,9.45a42.43,42.43,0,0,0,4.41-2.23S98.72,60.9,99,54.88Z"/><path class="cls-5" d="M103,69.27l-3.53,3.59A34.44,34.44,0,0,0,105,81.37l3-3.57L104.68,72l-2.51.85,2-2.39Z"/><polygon class="cls-5" points="107.63 85.27 110.5 83.55 112.41 88.72 110.8 89.69 107.63 85.27"/><path class="cls-19" d="M208,144s-5.23,6,2.62,13.33,9.66,6,9.66,6-3-2.27-2.05-5.2,1.82-3.61,1-8.22-5.5-7-8-8C211.28,141.77,208.34,141.68,208,144Z"/><path class="cls-20" d="M189.33,111.07s14.92,5.44,18.94,15,2.85,20.89,2.85,20.89-3.52-2.59-3.35-6.67c.15-3.78-.12-11.9-10.4-18.28-.83-.52-1.72-1-2.68-1.5Z"/><path class="cls-21" d="M69.64,83.55a37.3,37.3,0,0,1,3.2,19.07c0,16.53-3.18,32.91,2.77,49.37a26.58,26.58,0,0,0,2.64,4.3,12.55,12.55,0,0,0,4.1,3.85c11.59,5.29,20,5,31.47,6.45,12.22.72,26.78-.12,39.8-8.52l-6-8S130,164,94.69,154.21c0,0-12-7.55-13.48-39.34,0,0-1.15-26.93-5.19-34.76Z"/><path class="cls-4" d="M113.46,139.65s3.36,26.24-3.87,33L108,221.55s1.4,1.93,1.27,3l-7.19-1.7L95.77,164l-2.83-25.69Z"/><path class="cls-4" d="M140.6,140.62s12.39,16.57,13,17.45,6.64,10,30.64,22.47L190,223l-2.28,2.16,7.52,1.32s2.67-.59,2.12-2.78a25.85,25.85,0,0,0-1.89-4.74l.66-35.63s1.3-8-1.74-14.91c0,0-3.55-3.95-3.8-12.46,0,0,3.29-11.09,3.68-14.07s-38.47-10.5-38.47-10.5Z"/><path class="cls-5" d="M120.26,98.88s5.75,24.14-6,43.77c0,0,15.92-19.13,13.79-40.61Z"/><path class="cls-5" d="M138.42,104.2s3.81,19.5-5.51,36.41c0,0,10.65-16.39,10.5-35.94Z"/><path class="cls-5" d="M149.14,104.74s5,20.15-1.2,33.57c0,0,5.91-10.72,6.47-22.45s-2.28-11.33-2.28-11.33Z"/><path class="cls-5" d="M115.44,166.8s7.75-8,10.16-27.57c0,0,2,16.53-5.08,27.59Z"/><path class="cls-5" d="M128.38,166.42s14.26-12.86,15.91-38.58c0,0,.53,26.76-10,37.76Z"/><path class="cls-5" d="M73.12,98.88s13.22-3,17.2-9.73c0,0-8.55,14-17.52,16.95Z"/><path class="cls-5" d="M99.51,72.86A22.61,22.61,0,0,1,88.2,84.42s12-3.31,13.69-7.68Z"/><path class="cls-5" d="M72.33,92.3s8.88-1,11.32-5.34c0,0-4.07,6.83-10.71,9.37Z"/><path class="cls-5" d="M106.38,82.71s-.14,22.38-26.21,30.07c0,0,15.65,0,25.14-11.3S110,88.64,110,88.64Z"/><path class="cls-5" d="M72.33,121.42s7.62,8.3,26.19-4.66c0,0-9.15,13.11-26.47,12.1Z"/><path class="cls-5" d="M113.12,92.69s.2,21.3-12.15,30.76c0,0,13.5-9.16,16.62-26.26Z"/><path class="cls-5" d="M73,140.61s16.66,1,27.12-10.83c0,0-5.46,12.12-25.92,17.35C74.21,147.13,72.6,142.49,73,140.61Z"/><path class="cls-5" d="M113.49,163.29s-4.43,8.5-13.36,9.11c0,0,7,.84,11.5-2.79A41.57,41.57,0,0,0,113.49,163.29Z"/><path class="cls-5" d="M116.62,114.78s2.28,20.17-12,28.82c0,0,13-2.8,14.26-21.19C118.9,122.41,118.6,114.63,116.62,114.78Z"/><path class="cls-5" d="M78.5,156.64s10.49-3.28,13.36-7.82c0,0,3.58,6.39-7.49,12.2C84.37,161,79.71,159.32,78.5,156.64Z"/><path class="cls-5" d="M98,184.6s-1.18-3.28,4.45-6.3,6.86,5.16,6.86,5.16-2.5-5.26-6.86-3S98,184.6,98,184.6Z"/><path class="cls-5" d="M99,193.93s.6-4.24,6.34-4.24c3.71,0,3.54,5.42,3.54,5.42s-1.87-4.58-4.94-3.37S99,193.93,99,193.93Z"/><path class="cls-5" d="M150.85,154.34s7.84-39.56,40.16-40.63l3,6.29s-13.48-3-26.55,10.1S150.85,154.34,150.85,154.34Z"/><path class="cls-5" d="M158.76,163.72s-1.11-16.85,16.7-30.63c0,0-15.47,21.88-13.55,33.33Z"/><path class="cls-5" d="M159.66,103s5.59,9.16,4,17.75c0,.21-.08.43-.13.65-2,8.77,5.27-10.29.4-19.3Z"/><path class="cls-5" d="M169,171.62s3-29.28,26.07-24.49c0,0-20.45,1-22.63,26.71Z"/><path class="cls-5" d="M196,128.31s-16.61-.14-23.55,19.91c0,0,10.36-16.56,23.86-17.6Z"/><path class="cls-5" d="M169.92,101.47s7.11,4.23,4.77,11.77c0,0,5.07-7,0-11.47l-2.73-.3Z"/><path class="cls-5" d="M94.88,155.93s4.65,5.93,19,4.29c0,0-4.68,5.26-18.33,2"/><path class="cls-5" d="M179.17,177.64s1.42-11.48,12.45-14.36l.27-4.72S174.87,164.69,179.17,177.64Z"/><path class="cls-5" d="M185.37,188.76s0-11.69,10.88-12.69l.14,2.84S187.67,182.37,185.37,188.76Z"/><path class="cls-5" d="M186.88,199.94s3.34-5.36,8.2-2.62c0,0-8.15,3-7.75,6Z"/><path class="cls-5" d="M195.64,208.32s-1.73-3.7-5.55-.75c0,0,5.7,1.79,5.55,5.17Z"/><path class="cls-5" d="M100.56,208.44a7.61,7.61,0,0,1,8-3.49s-4.26-3.63-8.39-.11Z"/><path class="cls-5" d="M145.31,170.33a12.17,12.17,0,0,0,11.92-3.91s-2.42,7.3-10.16,7.42l-1.76-2.9"/><path class="cls-5" d="M150.42,180.06s7.88-.48,8.74-4l1.2,4S151.64,182.22,150.42,180.06Z"/><path class="cls-5" d="M149,191.19s4.13,1.42,8.83-2.43c0,0-2.27,5-9.94,6.35Z"/><path class="cls-5" d="M196.31,186.18s-8.78,1.14-9.43,5c0,0,7.14-4.2,9.13-2.43Z"/><path class="cls-5" d="M147.64,150s-2.25-6.73,3.63-14.13c0,0-2.92,13.1-2,16.28"/><path class="cls-5" d="M84.26,176.7s1.18-5.65,8.68-6.57c0,0-4.4-3.82-9.68.7Z"/><path class="cls-5" d="M88.1,183.21s6.27.06,7.68,2.91l.91-4.1S93.7,178.34,88.1,183.21Z"/><path class="cls-5" d="M86.45,194.44s2.17-5.32,8.12-2.5c0,0-4-4.74-8.23-.75Z"/><path class="cls-5" d="M144.54,207s2.44,4.78,5.69,2.92l-1,3.2S144.27,209.87,144.54,207Z"/><path class="cls-5" d="M86.77,204.28s2.61-3.35,6.65-3c0,0-6.64,3.35-6.56,5.8Z"/><path class="cls-5" d="M93.94,146.6l.63,4.8a27,27,0,0,0,17.2,2.94S96,153.74,93.94,146.6Z"/><path class="cls-5" d="M197.37,122s-.81-4.53,2.39-5.4l-1.95-1.27s-2.9,1.15-2.66,5.34Z"/><path class="cls-5" d="M201.06,124.68s-.63-4.22,3.16-4.41l1.54,1.7s-3.62.72-3.35,4Z"/><path class="cls-5" d="M205.76,130.53s.1-3.37,3-3.15l.67,2a2.45,2.45,0,0,0-3.18,2.09Z"/><path class="cls-5" d="M207.71,137.21s1.4-1.71,3.16-.94l-.24-1.72S207.26,134.77,207.71,137.21Z"/><path class="cls-5" d="M208.15,142.79a2.83,2.83,0,0,1,3.13-1.34v-1.06s-3.36,0-3.32,1.77Z"/><path class="cls-22" d="M208,143.9s-2.24,8.62,5.28,14c0,0,4.27,4.73,7,5.25,0,0-1.42,1.39-7.65-4.13S204.44,149.43,208,143.9Z"/><path class="cls-5" d="M192.45,112.4s-1.54.88-1.26,1.92l1.9,2.11s.25-2.71,1.23-3.1Z"/><path class="cls-23" d="M72.89,39.21C75.07,22.31,62.54,18,62.54,18,57.41,33.61,65.2,37.79,65.2,37.79"/><path class="cls-24" d="M71.18,38.45s-4.65-1.14-5.6-9-.48-7.59-.48-7.59,5.42,5.12,6.08,8.3S71.85,37.41,71.18,38.45Z"/><path class="cls-25" d="M73.14,35.32s6,2.68,9.41,7.32,9.22,17.78,11,20.92,13.06,20.79,19.76,29.38,18.22,10.17,25.81,11.47c0,0,11.16,1.51,21.79-1.66,0,0,15.17-4.86,24.43,4.07a37.88,37.88,0,0,1,10.92,21,41.48,41.48,0,0,1-2.3,22.65s-3,8.13-2.39,12.79a24.55,24.55,0,0,0,2.75,5.11c1.46,1.82,2.57,9.81,1.74,14.91l-.66,35.63s4.5,6.71-.23,7.52l-7.52-1.32L190,223l-5.72-42.43s-31-13-40-37.48"/><path class="cls-25" d="M153.62,158.07s-13.6,11.2-41.21,8.47"/><path class="cls-25" d="M142.15,163.75s5.11,12.39,9.48,18.19l-11,40,4.92,1.08,1.79,3.41s2.35-2.06-.6-5.57c0,0,10.94-35.26,14.38-38.7,0,0-4.85-15.43-4.16-20.22"/><path class="cls-25" d="M113.46,142.65s3.28,22.12-3.87,30L108,221.55s1.46,1.61,1.27,3l-7.19-1.7L93,139.23"/><path class="cls-25" d="M95.77,164s-4.16-.59-6.15-1.94c-1.52-1-7.92,1.24-13.12-8.38,0,0-5.53-5.85-4-33.75s-.23-34.39-7.23-43.83c0,0-.93-1.3-3.77,1.45"/><path class="cls-25" d="M81.45,159.61l4.79,28.57.93,28.29-1.86,1.33,7.6,2a7.28,7.28,0,0,0-.53-5.07s1.13-24,5.08-35.09"/><path class="cls-25" d="M65.25,76.1s16-2,16.31-12.46"/><path class="cls-25" d="M49.44,46.74a20.6,20.6,0,0,0-.41,4.9"/><path class="cls-25" d="M48.4,55.75s-2.16,2.5-2.22,4.55"/><path class="cls-26" d="M46.37,80.66c.67.55,1,3.76,1,3.76S47,87.52,52.22,87s8.24-8,8.24-8c1.79-1.31,4.57-5.23,4.23-7.73s-1.89-3.72-5.16-3.8-4.26-1.95-5.47-4c-1.43-2.4-.64-4.32-3.59-4.59-3.44-.32-7.18,3.74-7.18,3.74-.45-.57-2.07-1.72-4.86,1.59a5.14,5.14,0,0,0-.58,6.34s0,3.12-.89,3.91-1.67.25-1.07,1.46,1.71,2.92,6.16,3.43c0,0,7.32.2,11.56-3.66,3.57-3.25,3-5.48,3-5.48l-1.22-.26,2.44.6"/><path class="cls-26" d="M56.81,70.47s1.6.11,1.55,4.24-1.85,7.62-4.7,9.26-4.88.1-5.19-1.57l-.37-2.16"/></g></svg>