<svg id="Layer_1" data-name="Layer 1" xmlns="http://www.w3.org/2000/svg" viewBox="0 0 515 410"><defs><style>.cls-1{opacity:0.3;}.cls-2{fill:#71697e;}.cls-3{fill:#fcfcfc;opacity:0.79;}.cls-4{fill:#5e576d;}.cls-5{fill:#2b2735;}.cls-6{fill:#ededed;}.cls-7{fill:#d2d1d3;}.cls-8{fill:#3e3949;}.cls-9{fill:#330202;}.cls-10{fill:#f99595;}.cls-11{fill:#ed7e7e;}.cls-12{fill:#d65050;}.cls-13{fill:#d87171;}</style></defs><ellipse class="cls-1" cx="257.5" cy="345.74" rx="255.67" ry="58.42" transform="translate(-25.04 20.14) rotate(-4.27)"/><path class="cls-2" d="M84.93,272.19S78.27,310.83,53,334C24.09,331.29,6.33,335.78,5,346s25.36,16,56.39,15.94,45.49-9.14,58.91-28.16S84.93,272.19,84.93,272.19Z"/><path class="cls-3" d="M43.64,341.85c23-10.45,33.88-37.49,46.08-65.26-5.12-5.12-4.79-4.4-4.79-4.4S78.27,310.83,53,334c-21.89-2.07-37.39,0-44.18,5.59,14-6.55,30-4.41,42.86-4.33C49.92,337.29,48,338.53,43.64,341.85Z"/><path class="cls-4" d="M103.44,295.25c-7.38,15.39-17.09,28.23-27.06,43.15-16.24,23.14-77.62,16.47-66.29.24-3,1.95-4.71,4.41-5.09,7.33-1.32,10.19,25.36,16,56.39,15.94s45.49-9.14,58.91-28.16C126.69,324.69,113.27,307.83,103.44,295.25Z"/><path class="cls-5" d="M50.36,362.28c-22.06-1-38.84-5.08-44.11-11a6.6,6.6,0,0,1-1.83-5.33c1.37-10.52,19.43-15.18,48.33-12.49,24.72-22.81,31.54-60.94,31.61-61.32l.18-1,.78.69c2,1.75,49,43.1,35.46,62.34-12.64,17.9-26.4,28.29-59.39,28.4C57.6,362.51,53.91,362.43,50.36,362.28ZM43.76,334c-23-1-37,3.35-38.18,12.09a5.53,5.53,0,0,0,1.55,4.41c5.9,6.69,27.2,11,54.26,10.86,32.48-.11,46-10.32,58.43-27.91,12.06-17.09-28.38-54.58-34.51-60.1-1.28,6.29-9.09,40.19-32,61.14l-.19.18-.26,0Q48.12,334.15,43.76,334Z"/><path class="cls-5" d="M43.64,341.85a87.5,87.5,0,0,0,10-9.32l.85.81A64.43,64.43,0,0,1,43.64,341.85Z"/><path class="cls-2" d="M162.82,164.84s82.56,0,116.18,43.24c46.07,59.23,76,83.34,98.6,83.94,9.87-11.66,38.73-28.75,58.41-32.57s29.95,2.48,27.62,11-31,14.06-30.88,21.09c15.06,3.78,68.59,1.39,68.85,21.17.28,21.52-82.63-2.84-111.92,15.39S273.24,384.26,223.21,377,65.07,351.53,59.34,228.32c-.81-35.16,29.53-99.41,21.13-134.91s74.45-15.47,74.45-15.47Z"/><path class="cls-3" d="M370.49,291.09c-21.73-4.92-50.08-29.77-91.49-83-31-39.85-103.54-43-114.73-43.22-.77,3-1.81,6.11-1.25,8.87,33.13-7.92,88.74,5.83,111,33.16,19.36,23.79,47,56,72.26,74.76,8.67,6,16.1,9.52,24.48,11.34,14.53,2.59,28.43,1.44,33.59-2.94C395.24,293.62,383.6,293.54,370.49,291.09Z"/><path class="cls-3" d="M436,259.45c-19,3.69-47.6,21-58.41,32.57,0,0,1.41.08,3,.11,30-28.67,69.83-36.24,78.63-31.23C454.58,258.29,446.68,257.38,436,259.45Z"/><path class="cls-3" d="M436.36,293.82c22.33,2.63,50.79,3.49,62.26,11.79-11.49-12.16-52.91-10.84-65.87-14.1-5.34-1.31-9.75-3.55-12.51-8.58C422.4,290.55,428.59,292.92,436.36,293.82Z"/><path class="cls-4" d="M496.25,303.58c12.53,19-36.78,12.46-54.82,10.44-21-2.36-39.53-2-57.61,5.21-96.36,34.42-243.47,51.4-291.51-54.92-9.5-20.4-10.62-45.34-5.79-70.09,2.24-11.51,7.74-38.14,26.76-54.55,17-14.48,35.52-15.75,40.11-40.14C129.48,107.46,107.3,125.12,81,121.4c-4.33,35.22-22.28,79.75-21.66,106.92C65.07,351.53,173.17,369.73,223.21,377s137.18-30.68,166.47-48.92,112.2,6.13,111.92-15.39C501.55,308.9,499.55,305.93,496.25,303.58Z"/><path class="cls-4" d="M424.35,287.57a13.37,13.37,0,0,0,8.4,3.94,4.31,4.31,0,0,1,1.21-2.57c5.45-5.9,27.64-11.09,29.67-18.52,1.23-4.47-1-8.32-6.33-10.42,10.8,8.76-7.45,16.39-14,18.12C435.34,280.21,425,284.55,424.35,287.57Z"/><path class="cls-6" d="M216.26,339.64c-33-21.35-44.61-33.21-52.51-75.71-7.05-26.07-9.23-56.61-31.89-74-13.61-10-34.7-9.72-46.8-.88C47.13,213.93,66.19,274.22,73.6,290c32.09,68.33,109.5,81.18,149.61,87,13.8,2,30.44.57,47.9-2.95C253,373.36,232.55,350.42,216.26,339.64Z"/><path class="cls-7" d="M83.44,276.32a91.58,91.58,0,0,1,4.34-89.08,24.7,24.7,0,0,0-2.72,1.81C47.13,213.93,66.19,274.22,73.6,290c32.09,68.33,109.5,81.18,149.61,87,13.8,2,30.44.57,47.9-2.95-15.55-.58-32.85-17.61-47.76-29.23C150.68,359.16,109.61,329.38,83.44,276.32Z"/><path class="cls-5" d="M232.05,378.39a87.07,87.07,0,0,1-8.93-.82c-22.13-3.21-63.33-9.19-98.77-30.94-41-25.18-63.12-65-65.6-118.28-.34-15.2,5-35.51,10.69-57C76.92,143,84.65,113.65,79.9,93.55c-1.44-6.07-.34-11,3.26-14.56,15.18-15.11,69.59-2.18,71.89-1.62l.41.1,7.89,86.79c7.19.12,84.11,2.31,116.12,43.46,44.18,56.82,74.32,82.68,97.58,83.7h.28c9.92-11.51,38.71-28.7,58.57-32.55,12.2-2.37,22.08-1,26.42,3.69a8.12,8.12,0,0,1,1.88,8c-1.25,4.57-9.24,8.15-17,11.61-6.53,2.92-13.26,5.94-13.86,8.88,3.94.91,10.25,1.45,17.51,2.08,21.57,1.86,51.1,4.4,51.29,19.53A7,7,0,0,1,500,318c-6.09,5.89-24.12,5.06-45,4.09-23.84-1.1-50.85-2.35-65,6.46C363.5,345.06,283.73,380.65,232.05,378.39ZM116.48,73c-13.29-.58-26.39.71-32.49,6.78-3.3,3.28-4.29,7.81-3,13.46,4.83,20.39-2.94,49.85-10.46,78.35-5.65,21.42-11,41.66-10.65,56.68,5.83,125.23,120.28,141.85,163.37,148.1,50.6,7.33,138.11-31.43,166.08-48.83,14.46-9,41.67-7.74,65.67-6.64,19.76.91,38.41,1.78,44.14-3.76a5.82,5.82,0,0,0,1.83-4.5c-.18-14.06-29.1-16.55-50.22-18.38-7.61-.65-14.19-1.22-18.18-2.22l-.44-.11v-.45c-.05-3.85,6.74-6.89,14.59-10.41,7.13-3.19,15.21-6.81,16.31-10.84a7,7,0,0,0-1.61-6.91c-4.06-4.38-13.54-5.62-25.34-3.33-19.76,3.83-48.45,21-58.08,32.37l-.18.22h-.28l-.58,0c-23.63-1-54-27-98.46-84.15-33.07-42.52-114.9-43-115.72-43h-.54l-.05-.53-7.86-86.49A232.41,232.41,0,0,0,116.48,73Z"/><path class="cls-5" d="M384.32,293.14A123.24,123.24,0,0,1,372,292l.19-1.16c3.79.63,24.68,3,32.51-1.08,0,0-4.55,3.43-14.11,3.46C388.5,293.27,386.36,293.23,384.32,293.14Z"/><path class="cls-5" d="M434.74,292.5a22,22,0,0,1-6.63-1.7,15.14,15.14,0,0,1-7.87-7.87,20.23,20.23,0,0,0,14.61,8.4Z"/><path class="cls-2" d="M210.45,106.72c-1.61-70.42-28.59-106.06-79-103C82.9,6.67,76.07,55.55,76.07,55.55l-9.58,6.12c-9.12,48.19,3.29,68.51,31.17,68.8L164.85,181l47.24,5C207.26,180.34,211.52,153.55,210.45,106.72Z"/><path class="cls-3" d="M210.45,106.72c-1.61-70.42-28.59-106.06-79-103-17.1,1-29,7.78-37.28,16.07,22.42-21.26,76.78-20,97.73,16.34C223.6,85.31,198.45,175.67,212.09,186,206.05,180.39,211.52,153.55,210.45,106.72Z"/><path class="cls-4" d="M145.12,101.59c-22.38,21.19-42.33,26.57-62.92,20.52-9.35-3-18.09-14-16.61-42.57-.33-1.34-.92-1.84-1.07-2.67-1.2,3.74-1,10.73-1,12.71.06,28.27,12.39,40.67,34.12,40.89l13.74,10.89C129,130.28,134.71,124.87,145.12,101.59Z"/><path class="cls-8" d="M208.84,172.66c0-4.64.19-10.31.44-17,.46-12.93,1-29,.58-48.91-.93-41.11-10.51-70.32-28.45-86.82C168.79,8.31,152,3.06,131.46,4.31,84,7.19,76.72,55.15,76.65,55.64l0,.26L67,62c-5.17,27.51-3.37,46.86,5.37,57.52,5.53,6.74,14,10.22,25.27,10.33,0,0-5.3,1.2-9.38.19-7.08-1.52-12.7-4.79-16.79-9.78-9-11-10.87-30.73-5.57-58.73l0-.24,9.58-6.12c.66-4,9.29-49.23,55.85-52.06,20.86-1.27,38,4.08,50.81,15.91C200.39,35.78,210.09,65.27,211,106.7c.46,19.94-.12,36-.59,49-.59,16.41-1,27.25,1.65,30.34C212.09,186,209,184.74,208.84,172.66Z"/><path class="cls-5" d="M195.63,264.81a19.36,19.36,0,0,1-7-7,10.14,10.14,0,0,1-.64-9c-.08.36-1.77,8.82,8.27,15Z"/><path class="cls-2" d="M193.76,251.63s1.62,21.1-9,49.52-20.58,69,10.12,89.83,84.05,15,106.33-12.52c4.47-4.1-29-23.52-60.24-23.72-23.07-17-10.05-90.13-25.16-101.72S193.76,251.63,193.76,251.63Z"/><path class="cls-3" d="M215.81,253c13.57,18.66-.89,81.49,21.53,101.7a15.43,15.43,0,0,1,2.79.12,6.25,6.25,0,0,0-.78-1.45C218.53,334.19,230.55,264.33,215.81,253Z"/><path class="cls-3" d="M241.89,354.76a47.09,47.09,0,0,0-6.64.05c-10.25,1.31-18.18,1.84-27.89,7.56,30-10.12,62.41-4.69,87.07,11.13,1.41.91,2.71,3.57-4.06,9.65a45.9,45.9,0,0,1-.79,6,56.17,56.17,0,0,0,11.63-10.66C305.64,374.4,272.84,355.33,241.89,354.76Z"/><path class="cls-4" d="M297.48,372.59c6.4,16.13-74.3,34.39-100.12,6.39C181,361.21,184.7,338.5,189,320c8-22.37,15.36-54.76,4.73-68.32,0,0,1.62,21.1-9,49.52s-20.58,69,10.12,89.83,84.05,15,106.33-12.52C302.4,377.37,300.89,375.2,297.48,372.59Z"/><path class="cls-5" d="M235.47,404c-15.44-.67-29.83-5-40.92-12.55-23.69-16.1-27.07-45.7-10.34-90.52,10.45-28,9.56-49.1,9.55-49.31A26.82,26.82,0,0,1,194.5,262a153.81,153.81,0,0,1-9.19,39.37c-16.52,44.24-13.28,73.39,9.9,89.14,14.58,9.91,35,14.2,55.93,11.79s39.13-11.24,49.62-24.19c.16-.16.41-.39.16-1-2.26-5.86-31.73-21.55-60-21.71h-.19l-.15-.12c-13-9.57-14.61-36.62-16.05-60.5-1.14-18.85-2.22-36.67-8.76-41.69,0,0,4,1.8,6,8.39,2.38,8.17,3.1,20.11,3.89,33.23,1.43,23.52,3,50.17,15.43,59.52,28.61.27,58.52,16.41,60.85,22.47a1.92,1.92,0,0,1-.4,2.26C291,392,272.62,401,251.27,403.44A100,100,0,0,1,235.47,404Z"/><path class="cls-5" d="M207.36,362.37s5.45-4.12,15.06-6.21a85.21,85.21,0,0,1,23.66-1.8l-.07,1.16C223.58,354.09,207.52,362.28,207.36,362.37Z"/><path class="cls-9" d="M68.53,71.81s-10.65,42.72,20.93,43.51,55.8-37.44,55.8-37.44l-35.45-9.53Z"/><path class="cls-10" d="M90.66,103.62c-8.64-9.21-16.25-3.15-20,1.28,3.23,5.84,9,10.18,18.83,10.42a45.43,45.43,0,0,0,22.4-5.71C105.87,100.89,96.45,99.39,90.66,103.62Z"/><path class="cls-11" d="M90.66,103.62c-8.64-9.21-16.25-3.15-20,1.28a21.91,21.91,0,0,0,1.22,1.95c4.58-6.11,14.16-4.34,12.66,4.5,6.49-7.26,13-3.1,16.8,2.48a52.12,52.12,0,0,0,10.55-4.22C105.87,100.89,96.45,99.39,90.66,103.62Z"/><path class="cls-12" d="M88.8,115.89c-8.67-.38-15-4-18.69-10.7l-.19-.36.26-.3c2.4-2.82,6.24-6.19,10.93-6.31,3.31-.08,6.54,1.48,9.62,4.63a13.09,13.09,0,0,1,9.53-1.88c4.65.79,8.94,3.75,12.08,8.31l.37.55-.58.3c-7.64,4-15.27,6-22.68,5.78ZM71.34,105c3.63,6.26,9.74,9.56,18.13,9.76A44.69,44.69,0,0,0,111,109.41a17.38,17.38,0,0,0-10.93-7.29,11.85,11.85,0,0,0-9.06,2l-.42.31-.35-.38c-3-3.14-6-4.7-9.09-4.63C77,99.49,73.59,102.41,71.34,105Z"/><path class="cls-12" d="M85.7,109.36a10.34,10.34,0,0,1,4.09-5.8,24.65,24.65,0,0,1,2.59-1.63l.56,1A20.19,20.19,0,0,0,85.7,109.36Z"/><path class="cls-5" d="M88.81,115.89c-7.45-.33-13.15-3-17-8C62.24,95.22,67.72,72.63,68,71.67l.1-.4,41.81-3.51.09,0,36.22,9.73-.43.67c-.24.39-24.76,38.52-56.3,37.72ZM69,72.36c-.7,3.13-4.81,23.5,3.77,34.77,3.7,4.86,9.34,7.44,16.7,7.61,28.6.72,51.43-31.43,54.85-36.51l-34.56-9.29Z"/><path class="cls-2" d="M189.82,45.47c5,5.1,29.22,5.56,29,23.12s-27.39,2.8-27.39,2.8S184.77,40.38,189.82,45.47Z"/><path class="cls-3" d="M191.76,47.05c2.83,4,13.76,5.73,20,10.15,3.91,2.76,9,10.35,3.66,18.94.89-1.31,3.38-5.16,3.4-7.55C219,52.72,199.28,51,191.76,47.05Z"/><path class="cls-5" d="M208.87,77.92a33.61,33.61,0,0,1-8-1.49,30.54,30.54,0,0,1-9.44-5c.16.09,16.47,8.44,23.56,4.17,2.12-1.27,3.21-3.62,3.25-7,.12-11.72-11.11-15.32-20.13-18.21-7-2.47-8.32-4.9-8.32-4.9,1.45,1.47,4.8,2.54,8.67,3.78,8.9,2.85,21.08,6.76,20.95,19.34,0,3.8-1.33,6.48-3.82,8A12,12,0,0,1,208.87,77.92Z"/><path class="cls-4" d="M189.53,52.08c-2.44,1.28-6.83,12.61,4.05,18.62,10.57,5.84,20.23,4.29,21.61-.86s-2.37-12.77-13.64-16.08C196.78,52,192,50.8,189.53,52.08Z"/><path class="cls-11" d="M191.52,54.36c-2.17,1.08-4.76,8.43,3.9,14.52s16.08,3.78,17.3-.56S208.41,58,202.05,56.21C197.8,54.71,193.69,53.29,191.52,54.36Z"/><path class="cls-13" d="M202.05,56.21c-4.25-1.5-8.36-2.92-10.53-1.85-.91.46-1.89,2-2.08,4.13,2.7-6.59,17.12,1.83,19.93,5.24,1.93,2.55,1.76,5.62-1.18,8.52a6,6,0,0,0,4.53-3.93C213.93,64,208.41,58,202.05,56.21Z"/><path class="cls-8" d="M143.35,24s25.07-7,32.32,13.38C174,19.68,151.49,15.08,143.35,24Z"/><path class="cls-8" d="M111,21.22s-13.15-5.95-18.84,4.6C94.55,16.27,107.26,15.65,111,21.22Z"/></svg>