<svg id="Layer_1" data-name="Layer 1" xmlns="http://www.w3.org/2000/svg" viewBox="0 0 256 256"><defs><style>.cls-1{fill:#323232;opacity:0.4;}.cls-2{fill:#aa4315;stroke:#543e0d;}.cls-10,.cls-2,.cls-3,.cls-4,.cls-7{stroke-miterlimit:10;}.cls-3{fill:#fca01a;stroke:#705613;}.cls-4{fill:#ffd44a;}.cls-4,.cls-7{stroke:#876a1a;}.cls-5{fill:#e27105;}.cls-6{fill:#60150c;}.cls-7{fill:#ddb136;}.cls-8{fill:#e25d03;}.cls-9{fill:#592400;}.cls-10,.cls-14{fill:#f4691c;}.cls-10{stroke:#af4612;}.cls-11{fill:#8e3b11;}.cls-12{fill:#aa2d0f;}.cls-13{fill:#a83f16;}.cls-15{fill:#ef7320;}.cls-16{fill:#8e2100;}.cls-17{fill:#fff;}.cls-18{fill:#33180a;}.cls-19{fill:#3f1b02;}</style></defs><ellipse class="cls-1" cx="128" cy="235" rx="63.84" ry="15.15"/><path class="cls-2" d="M145.49,35s5.23,2.16,4,11.72l-2.7-1.62s4.93,17.59.9,11.54c-2.17-3.25-.36,5.41-.36,5.41l-2.71-3.79s2,7.76-.9,14.61l-2-4.15s1.8,6.85-.91,13l-2-3.79s.36,8.11-2.34,13.71l-1.63-2.89-1.62,8.12-1.62-2.35-.54,5.77-2-.9-.54,6.31c-3.25.72-4.51,5-4.51,5l-4,7c-1.44,5.41-.54,7.93-.54,7.93a66.87,66.87,0,0,1,4.15,7l-9.74-4.86-6.85-10.83-2.53-7.21,1.45-9.38,26.51-30.84,1.08-8.11Z"/><path class="cls-3" d="M172.05,141.52c6,5.24,2.67,17.87-8.15,15.66-4.49.5.93,5.3.93,5.3,11.56,1.75,18.23-11.65,10.41-21"/><path class="cls-4" d="M139.49,26.31c8.43,6.25,2.91,37.22-7.75,60.78s-14.44,31.26-10.84,40.8c2.71,7.19-31.59,30.31-30.64,12,1.47-28.34,31.13-58.44,31.69-85.18S130.92,19.94,139.49,26.31Z"/><path class="cls-5" d="M138.83,57c-1,7.63-10.28,12.73-17.27,13.44-1.27,3.7-6.79,9.54-6.79,9.54a86.24,86.24,0,0,0,6.4-16.89"/><path class="cls-6" d="M126.25,217.87c-3.57.58-7.64,7.16-4.47,9.54,1,.31,3.1-2.39,3.1-2.39s-1.8,3.26-1.23,3.61c2.95,1.81,17.21-1.55,13.84-11.45"/><path class="cls-7" d="M134.58,177.08c-.67,3.15,7.8,10.72,6.6,14.69s-12.62,23.62-15.24,26,8.5,4.07,12,1,1.2-3.93,2.91-8,7.91-14.83,10.92-16.92,4.16-6.66,1.31-10.7-1.57-12.86-1.57-12.86"/><path class="cls-8" d="M149.19,191.52c-2.44-6.49-7.11,1.14-6,4.69S150.45,194.84,149.19,191.52Z"/><path class="cls-8" d="M145.72,201.58c-.34-1.88-6.76.6-3.51,6.21C144.05,204.76,145.72,201.58,145.72,201.58Z"/><path class="cls-8" d="M140.82,182.45c-2.06.44.3,6.19,2.72,5.46S145.73,181.42,140.82,182.45Z"/><path class="cls-5" d="M135.07,177c1.09,4.29,6.39,3.64,9.78,4.73s7.25,2.45,9.9,4.8c1.51-8.19-1.89-14.38-6.26-15.23"/><path class="cls-8" d="M145.53,178c-1.88,1.69,1.95,10.25,6.65,9.69s3.53-3.64,1.66-7.5S147.94,175.87,145.53,178Z"/><path class="cls-2" d="M118.18,13.33A24.42,24.42,0,0,0,114.11,8a9.16,9.16,0,0,1,9.66,4.85c.11-3.56-1.58-4.66-1.58-4.66a12.19,12.19,0,0,1,11.92,7.21L134,13.11c4,1.37,8.7,8.19,9.32,19.38-2.91-8-14.59-17.57-27.57-16.89"/><path class="cls-4" d="M104.25,30.19C81.77,29.45,83.81,6.29,84.89,5.93s2.93.59,5.13.6c9.06.55,17.51,5.79,17.44,16.35C107.44,25.55,106.7,30.27,104.25,30.19Z"/><path class="cls-5" d="M99.93,25.49c-.35-9.14-6.37-13.44-13.09-15.56C87.13,17.7,90.42,28.64,99.93,25.49Z"/><path class="cls-4" d="M90.94,59.07c1.58-1.13,2.56-2.86,1.61-7.88-2.6-13.65-2-30,18.17-35.54,11.51-3.83,27.48,2.18,32.28,16.28s-2.75,29.15-13.06,33.6c-10.63,4.59-21.69,2.91-26.18,4.41-5.35,1.78-6.35-1.07-9.23-3.5C93.72,65.75,89,60.48,90.94,59.07Z"/><path class="cls-8" d="M138.4,34.43c-4.1-.84-10.84,6.61-9.44,11.88s11.5,1.32,12.85-1.31S141,35,138.4,34.43Z"/><path class="cls-9" d="M108.35,31.57c3.56-3.82,11.72-4.12,13.92-2.44C116.47,24.52,111.39,25.86,108.35,31.57Z"/><path class="cls-10" d="M102.28,70.72c6.73-10.26-1.27-22-10.44-24.45-2-.55-5.57,3-5.57,3-8.44,4.3.11,11.42-.39,18.07-1,6.3,5.77,9.19,10.18,6.52A32.15,32.15,0,0,1,102.28,70.72Z"/><path class="cls-10" d="M80.45,52.77c-1.72-2.26-6.3,1.37-2.73,4.71"/><path class="cls-11" d="M86.72,66.13c5.74.59,8.52-1.83,13-4.81-4.17,3.48-3.69,13.17-9.87,11.11C86.8,71.4,86.72,66.13,86.72,66.13Z"/><path class="cls-12" d="M99.51,62.06c1.38-1,3,.49,3.35-1a1,1,0,0,0-1.07-1.19c-.85.06-1.56.81-2.39,1.5-1.52,1.25-6.44,4.61-10.75,4.9C91.5,66.45,95.06,65.38,99.51,62.06Z"/><path class="cls-10" d="M86.27,49.25c-7.1,1.91-10.59,7.85-8.34,12.62,2.7,5.7,19.86,6.71,21.83-.55"/><path class="cls-4" d="M142.39,40.5c17.69,2.15,26-16.93,25.16-17.8-.94-1-3.5-1.11-5.87-2.41-10.06-4.79-22.26-4.18-28.46,7.2"/><path class="cls-5" d="M137.19,33.1c5.77-9.65,15.73-10.07,25.3-7.65C157.61,33.66,147.16,43.19,137.19,33.1Z"/><path class="cls-2" d="M120.15,14.66c.54,2.27-5.36,4.21-8.7,5.59s-11,7-11.75,10.2c-1.29-2.21-.93-8.49,2-11.74,0,0-2.35-1-4.14,2.14.94-4.52,4-8.86,8.91-8.12,0,0-3.67-2.05-5.82-1,2.58-2.57,11.19-4,16.26-1.5"/><path class="cls-13" d="M93.48,59c-1.14-1.62-4.55,2.38-3.56,3.26C91.14,63.27,95,61.14,93.48,59Z"/><path class="cls-14" d="M99.16,61c-1.26-2-3.75-.42-4.45,1,1.27-1.7,3.94-1.26,4.17-.49"/><path class="cls-6" d="M79.15,225.11c-3.33.06-7.25,6.26-4.34,9.22.9.45,3-2,3-2s-1.94,3.07-1.21,3.55c3.42,2.24,16.09,1,13.12-9.79"/><path class="cls-7" d="M115.42,171.11c1,4.11-8.91,22.76-12.62,26.92-3.11,3.51-.67,5.22-3.32,7.86s-6.69,15.29-6.41,17.68-7,9.79-13.89,3.53c-1.43-1.29.95-2.9,4.63-9.7s6.44-11.61,6.49-14.47,1.15-4.57,3-6.74-1-13,6.87-31.26"/><path class="cls-5" d="M101.08,164.93c.19,4.8,7.3,11.1,9.08,12.72s0,8.92-2.8,13.48c4.76-7.48,9.85-20.76,9.56-24.48"/><path class="cls-4" d="M119.1,116.12c-.37,12.11,11.37,27,26.59,27.42s22.55,9.09,22.83,20.76-20.85,17.39-48.36,12.7C98.85,173.36,77.87,150.22,98,118.87"/><path class="cls-6" d="M116.91,238.07c-2.8,1.33-3.76,8.05-.17,9.44.93.05,1.72-2.82,1.72-2.82s-.67,3.32.33,3.46c5,.73,14-5.29,7.37-13.26"/><path class="cls-4" d="M131.39,175.8c2.1,3.31-1.62,24.34-3.56,28.24s1.35,5.29-.17,8.41-.73,17.11.42,19-2.17,10.92-10.39,8.27c-1.71-.56-.31-2.82.22-10s1.64-14.62.82-17.13-.39-4.35.59-6.81-8.34-23.14-3.41-33.21"/><path class="cls-6" d="M173.84,226.09c-2.8,1.6-3.27,8.64.55,9.8,1,0,1.57-3,1.57-3s-.27,3.39.61,3.55c2.74.51,14.06-6.55,6.62-14.3"/><path class="cls-4" d="M146.17,167.31c4.9,23.36,11,21.05,18.28,26.57,5.75,4.34,8.58,23.78,8.58,33.6,1.8,2,7.82-.7,9-2.57s2.35-4.57-.3-7.89-6.95-22.47-6.26-27-2.87-5.25-6.26-8.62c-2.27-2.26,1.62-13.78-1.8-23.18"/><path class="cls-8" d="M123.4,135.56c-4.87-.2-8.26,9.12-1.67,13.53s14.86-.69,14-3.64S129.14,135.79,123.4,135.56Z"/><path class="cls-8" d="M148.08,145.39c-3.84.66-4.33,10.4-1.26,12.24s12.42-6.25,12.43-8.94S154.87,144.22,148.08,145.39Z"/><path class="cls-8" d="M140.54,148.71c-2.67-1.24-10.76,3.14-8.89,8.18s10.94,2.47,12,1.19S143.05,149.87,140.54,148.71Z"/><path class="cls-8" d="M122.76,131.82c1.06-2.65-5-11.75-7.7-11.21s-6.89,10.67-4.32,13.1S121.68,134.52,122.76,131.82Z"/><path class="cls-8" d="M121.66,110.59c.45-4.37-2.51-9.09-5.69-8.37s-8,11.17-4.63,13.18,9-1,9-1Z"/><path class="cls-15" d="M116.41,90.41c4.83-1.87,3.51,7.54.07,8.36S108.6,93.44,116.41,90.41Z"/><path class="cls-15" d="M109.6,119.67c.87-3.28-7-6.71-8.63-.81s.5,8.36,2.61,7.76S108.92,122.25,109.6,119.67Z"/><path class="cls-8" d="M114.4,137.42c1.57,1.38.28,8.36-3.43,9s-9-4.74-7.08-7.17S112.54,135.8,114.4,137.42Z"/><path class="cls-8" d="M113.22,148.31c-2.8,1-5.12,5.95-2.62,7.64s8.51.37,8.77-3.15S116.74,147.1,113.22,148.31Z"/><path class="cls-8" d="M124.81,155.17c-2.34-.16-8.74,5-5.54,7.86s7.15,2.23,8.78.53S127.9,155.38,124.81,155.17Z"/><path class="cls-8" d="M163.44,153.54c-2.57-3.28-9.69.68-4.39,5.19S168.66,160.18,163.44,153.54Z"/><path class="cls-8" d="M152.86,158.73c2.17.39,6.93,4.52,4.27,7s-9,2.63-10.42-.83S148.33,157.92,152.86,158.73Z"/><path class="cls-8" d="M140,161.72c-3.19-2.23-7.61,4.46-2.69,6.43S144.81,165.12,140,161.72Z"/><path class="cls-8" d="M161.47,164.93c-2.49.84-6.21,8-4.34,11.15s7.55,5.37,9.48,4.56a2.77,2.77,0,0,0,1.81-2.61l.44-9.44C167.74,166.57,163.93,164.1,161.47,164.93Z"/><path class="cls-15" d="M158.76,180.81c-1.75,1.08,1.24,7.48,5.18,7.6,3.47.1,4.76-3.08,4-4.69S160.46,179.76,158.76,180.81Z"/><path class="cls-8" d="M172.91,187.68c-1.64-1.57-5,4.77-.8,6.55S176.47,191.07,172.91,187.68Z"/><path class="cls-8" d="M172.84,198.61c-1.61.82-2.25,4.51-.6,6.29s4.75,2.82,5.67,1.53l-1-4.29C175.91,200.45,174.45,197.79,172.84,198.61Z"/><path class="cls-15" d="M174.88,211.37c-1.71-1.13-2.74,4.25-.82,4.51S177.33,213,174.88,211.37Z"/><path class="cls-15" d="M177.91,223.14c2.36,0,.25-2.48-1-2.77C174.69,219.86,174.81,223.1,177.91,223.14Z"/><path class="cls-8" d="M125.28,167.61c-3.68.29-3.41,6.67-1.27,8.73s7.39.26,7.54-3S128.23,167.37,125.28,167.61Z"/><path class="cls-15" d="M117.88,175.38c3.23-.87,5.39,4.43,5.5,7.61a4.49,4.49,0,0,1-5.76,4.58C114.63,186.69,114.09,176.4,117.88,175.38Z"/><path class="cls-8" d="M121.33,188.4c-1.17,3.16,2.51,8.38,4,8.22s2.82-4.48,2.66-6.93S122,186.74,121.33,188.4Z"/><path class="cls-15" d="M120.64,198.34c2.51-1.19,3.28,3.77,1.26,4.42S117.68,199.75,120.64,198.34Z"/><path class="cls-8" d="M124.4,207.61a2.61,2.61,0,0,0-2.52,3.06c.43,2.06,1.84,2.58,2.52,2.39S126.15,207.81,124.4,207.61Z"/><path class="cls-15" d="M120.71,217.63c1-.4,1.94,1.12.94,2.71S118.44,218.55,120.71,217.63Z"/><path class="cls-15" d="M96.45,129.39c2.41-.09,4.11,6.42,3.26,7.8s-6,2.33-7.17,1.51S93.29,129.5,96.45,129.39Z"/><path class="cls-15" d="M97.12,146.68c-2,0-3.06,6.07,0,6.52S104.91,146.83,97.12,146.68Z"/><path class="cls-15" d="M109,159.6c-3.57-2.82-5.07,3.9-2.32,5.9S114,163.58,109,159.6Z"/><path class="cls-15" d="M112.85,169.57c2.43-2,5.21,1.23,2.36,3.22S110.92,171.15,112.85,169.57Z"/><path class="cls-15" d="M98.9,158.24c-2.49-.22-2.28,2.59,0,3.56S102.44,158.57,98.9,158.24Z"/><path class="cls-15" d="M97.33,173.37c2.9-1.64,6.4,3.12,5.07,7.18s-5.57,6-7.51,3.93A87.73,87.73,0,0,1,97.33,173.37Z"/><path class="cls-15" d="M101.37,186.49c1.07-.43,3.94,2.13,3.34,4.64s-3.89,5.36-5.92,4.63S97.91,187.89,101.37,186.49Z"/><path class="cls-15" d="M94.17,196c1.58-.45,2.39,2.17,1,4.11s-3.82,1-3.57-.55S92.84,196.4,94.17,196Z"/><path class="cls-15" d="M94.17,206.43a1.3,1.3,0,0,1,.72,2.5C92.94,209.8,93,206.79,94.17,206.43Z"/><path class="cls-8" d="M129.39,92.3c.21-3.12-2.95-4.07-5.2-3.55s-5.26,10-3.62,11.76,4.52,1.42,4.52,1.42Z"/><path class="cls-15" d="M125.4,77.36c1.42.08,3.9,5.24,1.48,7.22s-5.53,1.06-6-.91S120.94,77.1,125.4,77.36Z"/><path class="cls-8" d="M137.36,72.6c.31-2.19-5.14-3.52-6.77-2.63s-1.91,11-.27,12.46a3,3,0,0,0,3.24.65S137,75.22,137.36,72.6Z"/><path class="cls-15" d="M108.08,104.75c-1.23-2.59-7.48,4.69-5.06,7S109.78,108.32,108.08,104.75Z"/><path class="cls-8" d="M122.12,59.74c-3.6-.82-5.92,6.56.12,6S129,61.29,122.12,59.74Z"/><path class="cls-8" d="M127,19.75c-4.08,0-2.84,4.32,0,5.58S132.78,19.8,127,19.75Z"/><path class="cls-15" d="M96.9,29.35c-2.21-1-6,4.56-3,5.49S101.11,31.2,96.9,29.35Z"/><path class="cls-16" d="M159.73,127.21c9-1.72,21.66,5.33,15.36,15.74-5.42,3.57-13.9-.51-14.19-11a7.22,7.22,0,0,1,3.52,4.24C163.79,132.32,162,130,159.73,127.21Z"/><circle class="cls-17" cx="115.22" cy="44.22" r="7.64"/><path class="cls-18" d="M116.21,51.9a7.93,7.93,0,0,1-3-.15,8.21,8.21,0,0,1-2.84-1.22,8.4,8.4,0,0,1-3.65-5.22,8.75,8.75,0,0,1,1.24-6.72,8.84,8.84,0,0,1,2.62-2.51,8.63,8.63,0,0,1,7.12-.91,8.54,8.54,0,0,1,6.07,7.95,8.4,8.4,0,0,1-2.21,6A8.26,8.26,0,0,1,119.1,51,7.81,7.81,0,0,1,116.21,51.9Zm0-.2a7.52,7.52,0,0,0,6.47-8.44,7.49,7.49,0,1,0-12,6.91A7.61,7.61,0,0,0,116.18,51.7Z"/><circle class="cls-19" cx="116.45" cy="43.1" r="5.42"/><circle class="cls-17" cx="119.88" cy="41.31" r="1.66"/></svg>