<svg id="Layer_1" data-name="Layer 1" xmlns="http://www.w3.org/2000/svg" viewBox="0 0 60 30"><defs><style>.cls-1{fill:#fff;stroke:#111;stroke-width:0.5px;}.cls-1,.cls-2{stroke-miterlimit:10;}.cls-2,.cls-5{fill:#519fe2;}.cls-2{stroke:#030d54;stroke-width:0.86px;}.cls-3{fill:#00001e;}.cls-4{fill:#fafaff;}</style></defs><path class="cls-1" d="M55.27,13.18a14.66,14.66,0,0,1-.49,4.15C53,24,47.21,28.29,41.78,27s-8.41-7.71-6.66-14.34a15.13,15.13,0,0,1,1.82-4.2C39.55,4.33,44,2,48.12,3S55.15,8.2,55.27,13.18Z"/><ellipse class="cls-2" cx="44.95" cy="15" rx="7.13" ry="5.79" transform="translate(17.04 53.3) rotate(-72.38)"/><ellipse class="cls-3" cx="44.66" cy="16.09" rx="4.88" ry="3.98" transform="translate(24.37 59) rotate(-84.5)"/><ellipse class="cls-4" cx="43.68" cy="12.22" rx="1.54" ry="1.46"/><ellipse class="cls-4" cx="44.57" cy="20.04" rx="0.98" ry="0.93"/><path class="cls-1" d="M12.65,12.19v.1c0,.2,0,.4,0,.59a19.32,19.32,0,0,1-.14,2s0,.08,0,.12a16.42,16.42,0,0,1-.69,2.9,2.86,2.86,0,0,1-.15.41c-.08.2-.15.38-.23.56-.17.43-.36.85-.55,1.24l-.28.53a16.49,16.49,0,0,1-3.85,4.75C3.58,20.72,5.09,14.1,5.09,14.1a16.42,16.42,0,0,1,1-3.08c2.2-4.68,5.43-3.18,5.43-3.18C12.42,8.59,12.64,10.52,12.65,12.19Z"/><path class="cls-5" d="M7.82,15.32a8.16,8.16,0,0,0,1.69,6.17c.38.52,2.69-6.33,2.69-6.33l0-4.5S8.84,10.23,7.82,15.32Z"/><path class="cls-3" d="M12.65,12.19v.1c0,.1,0,.27,0,.58s-.06,1-.12,2c0,0,0,.08,0,.12a10.2,10.2,0,0,1-.69,2.9,2.86,2.86,0,0,1-.15.41c-.28.74-.58,1.37-.78,1.8l-.28.53a2,2,0,0,1-.32-.31,6.53,6.53,0,0,1-1.22-4.24,4.12,4.12,0,0,1,.54-2.23,3.44,3.44,0,0,1,1.89-1.48l.29-.09a2.08,2.08,0,0,1,.36-.07h0Z"/><ellipse class="cls-4" cx="10.55" cy="13.15" rx="1.12" ry="1.4"/></svg>