<svg id="Layer_1" data-name="Layer 1" xmlns="http://www.w3.org/2000/svg" viewBox="0 0 120 40"><defs><style>.cls-1{fill:#48474c;}.cls-2{fill:#201e25;}.cls-3{fill:#fff;}.cls-4{fill:#b5b5b5;}.cls-5{fill:#0f0f11;}</style></defs><path class="cls-1" d="M7.37,11.78c-.66-1.58-.28-3.14.73-5.2s6.31-4.53,10.65-1.33c4.88,3.63,7.42,10.61,7.42,13.09s.14,2.75,1.29,3.72A1.52,1.52,0,0,1,26,24.68c-1.87-.42-5.41,4.3-11,3.61S6,22.91,8.1,18.78,9.1,15.9,7.37,11.78Z"/><path class="cls-2" d="M11.77,7.49A9.36,9.36,0,0,1,21.09,11c2.19,2.63,4.82,8,3.5,10.52s-7.12,4.71-11.18,2.63S3,13.4,11.77,7.49"/><path class="cls-3" d="M9.18,11.4a5.75,5.75,0,0,1,5.64-2.92,8.68,8.68,0,0,1,7,5.23c1.16,2.77,3.1,6.57.58,8.55s-8.75,2.87-11.91-1.75S8.16,14,9.18,11.4Z"/><path class="cls-1" d="M12.23,28.36s1.48,2.54,7.29.68,6.74-2.47,6.74-2.47S24.61,31.12,20.67,32,12.28,32.39,12.23,28.36Z"/><path class="cls-4" d="M21.82,13.71a8.68,8.68,0,0,0-7-5.23A5.75,5.75,0,0,0,9.18,11.4c-.66,1.65-1.21,3-.7,5,0-.14.34-2.28,3.75-3.47a12,12,0,0,1,10.06,1.83Z"/><path class="cls-5" d="M24.21,16.45s-2.66-6.92-6.68-8.8c-2.94-1.39-7.22-.47-9,.57s-5.75,3.22-5.75,3.22,4-.53,7.23-1C16.68,9.53,20.84,11.67,24.21,16.45Z"/><path class="cls-5" d="M19.35,11.44c-2.3-1.1-5.76,1-6.47,3.76a5.92,5.92,0,0,0,3.51,6.7,5.37,5.37,0,0,0,7.09-3.43C24.31,15.47,22,12.73,19.35,11.44Z"/><path class="cls-3" d="M15.68,14.72a1.62,1.62,0,1,1-3.23,0,1.62,1.62,0,1,1,3.23,0Z"/><path class="cls-5" d="M8.42,18.79s.36,3.73,3.28,5.48,9.39,1.6,11.93-1.75C23.63,22.52,13.53,28.66,8.42,18.79Z"/><path class="cls-1" d="M112.63,15.7c.66-1.57.29-3.13-.73-5.2S105.59,6,101.26,9.18c-4.89,3.63-7.43,10.61-7.43,13.09S93.69,25,92.54,26A1.52,1.52,0,0,0,94,28.6c1.88-.41,5.41,4.3,11,3.62s9-5.39,6.88-9.51S110.91,19.83,112.63,15.7Z"/><path class="cls-2" d="M108.23,11.41a9.35,9.35,0,0,0-9.31,3.51c-2.2,2.63-4.83,8-3.51,10.52s7.12,4.7,11.18,2.62S117,17.33,108.23,11.41"/><path class="cls-3" d="M110.82,15.32a5.75,5.75,0,0,0-5.64-2.91,8.66,8.66,0,0,0-7,5.23c-1.17,2.77-3.1,6.57-.58,8.55s8.76,2.87,11.91-1.76S111.85,17.89,110.82,15.32Z"/><path class="cls-1" d="M107.77,32.28s-1.47,2.55-7.28.68-6.74-2.46-6.74-2.46,1.65,4.55,5.59,5.42S107.72,36.31,107.77,32.28Z"/><path class="cls-4" d="M98.18,17.64a8.66,8.66,0,0,1,7-5.23,5.75,5.75,0,0,1,5.64,2.91c.66,1.65,1.22,3.05.7,5.05,0-.13-.33-2.28-3.75-3.46a12,12,0,0,0-10.06,1.83C97.88,18.36,98,18,98.18,17.64Z"/><path class="cls-5" d="M95.79,20.37s2.66-6.91,6.69-8.8c2.93-1.39,7.21-.46,9,.58s5.75,3.22,5.75,3.22-4-.53-7.23-1C103.33,13.46,99.17,15.59,95.79,20.37Z"/><path class="cls-5" d="M102.81,14.69c2.31-1.1,5.76,1,6.48,3.76a5.94,5.94,0,0,1-3.51,6.7,5.38,5.38,0,0,1-7.1-3.43C97.86,18.72,100.13,16,102.81,14.69Z"/><path class="cls-3" d="M97.53,19.31a1.62,1.62,0,1,0,1.62-1.72A1.67,1.67,0,0,0,97.53,19.31Z"/><path class="cls-5" d="M111.59,22.72s-.37,3.72-3.29,5.48-9.38,1.6-11.93-1.76C96.37,26.44,106.47,32.58,111.59,22.72Z"/></svg>