<svg id="Layer_1" data-name="Layer 1" xmlns="http://www.w3.org/2000/svg" viewBox="0 0 70 60"><defs><style>.cls-1{fill:#3f6875;}.cls-2{fill:#3d3d3d;}.cls-3{fill:#b2b1b1;}.cls-4{fill:#fff;}.cls-5{fill:#9bbec9;}.cls-6{fill:#648c9b;}.cls-7{fill:#233e44;}</style></defs><path class="cls-1" d="M44.65,2.68c-9.42,0-27.64,12.89-28.2,26.48C15.81,44.8,26.78,52,36.19,52s21.67-8.21,21.27-23.14C57.09,15.28,54.06,2.68,44.65,2.68Z"/><path class="cls-2" d="M44.12,6.22C35.35,6.22,18.38,17.78,17.86,30c-.6,14,9.8,22,18.57,22s20-8.85,19.62-22.26C55.71,17.53,52.89,6.22,44.12,6.22Z"/><path class="cls-3" d="M44.12,10.94c-8.77,0-25.76,10-25.76,20.56s9.3,19.22,18.07,19.22,18.48-8.6,18.48-19.22S52.89,10.94,44.12,10.94Z"/><path class="cls-4" d="M44.12,10.94c-5.79,0-15.18,4.35-20.88,10.36-5.68,9.53-3.19,15.94.21,21.08,1.8,2.44,4.89,2.78,9.09,3.79a21.88,21.88,0,0,0,20.81-7.42,17.87,17.87,0,0,0,1.56-7.25C54.91,20.89,52.89,10.94,44.12,10.94Z"/><path class="cls-2" d="M35.84,20.94c-7.09.06-12.76,6.9-12.66,15.27a16.1,16.1,0,0,0,6,12.63,15.91,15.91,0,0,0,7.29,1.88,15.42,15.42,0,0,0,5.33-1C46,47.24,49,42,48.88,36,48.78,27.61,42.94,20.87,35.84,20.94Z"/><path class="cls-4" d="M28.84,35.08a1.54,1.54,0,0,0-1.35,1.82A1.83,1.83,0,0,0,29.64,38,1.54,1.54,0,0,0,31,36.23,1.84,1.84,0,0,0,28.84,35.08Z"/><path class="cls-4" d="M26.16,26.93a2.63,2.63,0,0,0-2.33,3.13,3.13,3.13,0,0,0,3.7,2,2.63,2.63,0,0,0,2.33-3.13A3.14,3.14,0,0,0,26.16,26.93Z"/><path class="cls-5" d="M2,57.32l33-4.16,33,1.08C44.17,37.19,13.13,40.28,2,57.32Z"/><path class="cls-6" d="M2,57.32,68,54.24C48.8,43.85,14.88,44.38,2,57.32Z"/><path class="cls-7" d="M59.07,47.58l-.31-.14c-11-5.08-23.41-6.85-34.71-4.72a41.3,41.3,0,0,0-13.43,4.89l-.37.22C3.56,52.07,2,57.32,2,57.32,6.4,50.56,14.32,45.8,24.28,43.93,38.83,41.21,55.18,45.06,68,54.24,68,54.24,66.25,50.61,59.07,47.58Z"/></svg>