<svg id="Layer_1" data-name="Layer 1" xmlns="http://www.w3.org/2000/svg" viewBox="0 0 163.87 83.83"><defs><style>.cls-1{fill:#89af35;}.cls-2{fill:#99ca3c;}.cls-3{fill:#fff;}.cls-4{fill:#6a9d41;}.cls-5{fill:#52993a;}</style></defs><ellipse class="cls-1" cx="31.51" cy="40.96" rx="37.88" ry="28.15" transform="translate(-9.48 72.42) rotate(-89.94)"/><ellipse class="cls-2" cx="32.21" cy="41.59" rx="24.82" ry="30.78"/><ellipse class="cls-3" cx="31.5" cy="45.59" rx="24.82" ry="30.43"/><path class="cls-4" d="M6.21,45.5c0-17.09,11.43-31,25.37-30.9s25.25,14,25.2,31.09-11.42,31-25.36,30.9S6.17,62.59,6.21,45.5Zm.93,0C7.1,62,18,75.41,31.42,75.46s24.4-13.3,24.44-29.78S45,15.77,31.58,15.72,7.18,29,7.14,45.5Z"/><path d="M56.78,45.69C57.24,13.64,19.64.36,7.65,35.3,21,7.25,53.09,15.8,56.78,45.69Z"/><ellipse cx="31.48" cy="53.47" rx="11.97" ry="14.68"/><path class="cls-3" d="M19.5,43.63c0,3,2,5.51,4.51,5.52s4.54-2.44,4.54-5.48-2-5.51-4.51-5.52S19.51,40.59,19.5,43.63Z"/><path class="cls-5" d="M48.45,79.57l-23.59.76L2.59,72.84S20.5,59.9,48.45,79.57Z"/><path class="cls-4" d="M37.82,72.57c3.51,1.55,10.72,7.21,10.72,7.21C21,61.25,2.77,72.72,2.59,72.84c0,0,4.32-4,12.41-4.68C20.44,67.74,28.28,68.36,37.82,72.57Z"/><ellipse class="cls-1" cx="132.52" cy="41.34" rx="37.88" ry="28.15" transform="translate(91.05 173.82) rotate(-89.94)"/><ellipse class="cls-2" cx="131.82" cy="41.97" rx="24.82" ry="30.78"/><ellipse class="cls-3" cx="132.51" cy="45.97" rx="24.82" ry="30.43"/><path class="cls-4" d="M132.43,77c-13.94,0-25.25-14-25.2-31.09S118.65,14.93,132.59,15s25.25,14,25.21,31.09S146.38,77,132.43,77Zm.16-60.87c-13.43-.05-24.39,13.31-24.44,29.78s10.85,29.91,24.29,30,24.39-13.3,24.43-29.77S146,16.15,132.59,16.1Z"/><path d="M107.23,45.88c-.29-32.05,37.37-45.05,49.19-10C143.25,7.71,111.07,16,107.23,45.88Z"/><ellipse cx="132.49" cy="53.85" rx="11.97" ry="14.68"/><path class="cls-3" d="M130.64,44.05c0,3-2,5.5-4.54,5.49s-4.52-2.48-4.51-5.52,2-5.5,4.54-5.49S130.65,41,130.64,44.05Z"/><path class="cls-5" d="M115.39,79.82l23.58.94,22.31-7.32S143.43,60.37,115.39,79.82Z"/><path class="cls-4" d="M126.05,72.91C122.54,74.43,115.3,80,115.3,80c27.63-18.32,45.8-6.71,46-6.59,0,0-4.29-4.09-12.38-4.77C143.46,68.2,135.61,68.76,126.05,72.91Z"/></svg>