<svg id="Layer_1" data-name="Layer 1" xmlns="http://www.w3.org/2000/svg" viewBox="0 0 256 256"><defs><style>.cls-1{opacity:0.3;}.cls-2{fill:none;stroke:#542c00;stroke-width:2px;}.cls-14,.cls-2{stroke-miterlimit:10;}.cls-3{fill:#dd6d22;}.cls-4{fill:#e2cfb7;}.cls-5{fill:#ede0cd;}.cls-6{fill:#f2e9dd;}.cls-7{fill:#e87f31;}.cls-8{fill:#ce6117;}.cls-9{fill:#d3bca3;}.cls-10{fill:#aa9579;}.cls-11{fill:#f49a9a;}.cls-12{fill:#fca7a7;}.cls-13{fill:#fc9149;}.cls-14{fill:#fff;stroke:#000;stroke-width:0.25px;}.cls-15{fill:#2b2a2a;}.cls-16{fill:#fcfcfc;}.cls-17{fill:#323232;}.cls-18{fill:#3a3a3a;}.cls-19{fill:#4f4f4f;}</style></defs><ellipse class="cls-1" cx="95.99" cy="207.19" rx="71.8" ry="9.2"/><path class="cls-2" d="M239.33,94.46l-2.44.69c-.13,0-.07.11-.22.13.88-2.77,1.49-7.73.25-10.45A9.35,9.35,0,0,0,235.44,87c0-8.69-2.95-18.24-10.63-23,.43,1.3.83,2.65,1.37,3.91-3.29-4.34-6.56-6-11.91-6.62-.11,0,6.83,9.39,6.71,16.26a6.12,6.12,0,0,1-2.45-1.06,2.28,2.28,0,0,0-.39-.27c0,.18.08.38.13.6.32,1.42,1.1,5.13,1.55,9h0c-.61-.57-2.26-2.39-3.27-2.54.74,2.16-.1,8,0,8.59a6.87,6.87,0,0,0-.56-1.71c-.23-.48-1.75-2.76-1.78-2.18-.17,3.64-6.8,4.2-8.87,5.37,0-1.71.67-3.33-.28-4.79a27.31,27.31,0,0,0-2.64,1.37,19.13,19.13,0,0,1-5.37,1.34c-2.45.09-5-.27-7.16.15.73-1.36,1.45-3.33.59-4.85-.06-.09-.67,1.43-3.62,1.3-2.53-.12-7-.71-10-.56.65-1.85,3.72-2.22,4.46-2.59,0,0-7.07-3.57-18.9,2.95A6.38,6.38,0,0,1,163.89,85c.16-.22-4.63.91-6.43,1.56-1,.5-4.58,1.62-6.17,2.6l-.33.21a29.13,29.13,0,0,0-13.53,26.81,28,28,0,0,0-11.53-1.67,67.32,67.32,0,0,0-24.42,5.21,40,40,0,0,1-8.56,1.6c-.39-.31-.78-.61-1.19-.9a20.39,20.39,0,0,0-5.45-2.8,22.57,22.57,0,0,0-6.93-1c-1.33,0-2.66.06-4,.18l-1.48.14h0a16.41,16.41,0,0,1-5.78-4.84,12.89,12.89,0,0,1-1-1.79s-.23-.93-.3-1.33a25,25,0,0,0-1-4,41.82,41.82,0,0,1-2.2-6.82q.33,0,.66,0A9.13,9.13,0,0,0,65.55,98,6,6,0,0,0,68,97.14a10,10,0,0,1-2.11-.5c4.76-.7,6-4.32,5.84-4.27a7.93,7.93,0,0,1-1.89.52A7.71,7.71,0,0,0,73.78,88a6.79,6.79,0,0,0,.15-2.12,9.09,9.09,0,0,1-2.39,1.2,3.84,3.84,0,0,0,.25-.67c.15-.54-.13-2-.25-1.85a10.3,10.3,0,0,1-2.5,1.6c1.75-2.84,3.59-6.63,3.77-10.25a12.11,12.11,0,0,0-1.79-7c1.55-18.54-8-28-9.88-28-.23,0-.3.15-.33.42-.71,6.08-4.52,18-5.13,19.86a161.3,161.3,0,0,0-18.25-.93c-.42-1.94-3-14.15-3.11-20.27,0-.27,0-.42-.28-.45-1.9-.23-12.33,8.22-12.65,26.82A12.09,12.09,0,0,0,18.9,73.2c-.19,3.62,1.26,7.57,2.72,10.57a6.26,6.26,0,0,1-2.33-1.84c-.1-.14-.53,1.26-.43,1.81a4.23,4.23,0,0,0,.18.7A9.23,9.23,0,0,1,16.78,83a7,7,0,0,0-.06,2.13c.3,2.29,2.08,4.77,1.58,4.53-.12-.06.71,3.66,5.38,4.84a9.74,9.74,0,0,1-2.16.29,6.83,6.83,0,0,0,3.71,1.38,16.36,16.36,0,0,0,2.71,0l.36,0a49.38,49.38,0,0,0-2.6,6.27A51.11,51.11,0,0,0,24,109c-2.34,12.16-1,28.18,8.53,48.72,1.16,3.41,2.3,6.46,3.18,9,.65,1.84,1.2,3.65,1.67,5.42,4.4,16.56,1.55,29.54,1.55,29.54a6.68,6.68,0,0,0-2.22-1.08,4.73,4.73,0,0,0-1-.15,5.24,5.24,0,0,0-3.17.88h0a3.07,3.07,0,0,0-1.39,2.41c-.09,2,.36,3.14,1.18,3.79,1.52,1.19,4.32.7,7.45.42a5.33,5.33,0,0,0,3.93-1.76s0,.05,0,.07c-.36,1.94-.07,3.15.66,3.91,1.34,1.39,4.19,1.27,7.33,1.42,4.86.21,5.37-3,6.89-6.55,1.1-2.56,3.9-20.78,3.9-20.78a81.49,81.49,0,0,0,.61-11.81q-.09-2.08-.15-4a35.84,35.84,0,0,0,27.63-2.26c4.93-2.56,9.79-5.41,14.84-7.76.11.33.21.66.31,1s.46,1.46,1.08,2.94a40.34,40.34,0,0,0,10.54,14.46,41.14,41.14,0,0,1,3,3.29c.93,1,1.9,2,2.76,3.06a6.1,6.1,0,0,1,1.5,3.19,16.4,16.4,0,0,1-.6,4.34c-.55,2.93-.9,4.56-1.47,7.49a19.59,19.59,0,0,0-.35,2.45,8,8,0,0,0-3.12.76,4.86,4.86,0,0,0-2.45,2.44,3,3,0,0,0-.2,1.25,3.43,3.43,0,0,0,.76,1.91c1.76,2.19,4.91,1.73,7.37,1.58l2.28-.14a2.67,2.67,0,0,0,1.75-.57c.87-.82.75-2.32.84-3.41a50,50,0,0,1,3.67-15.07,18.08,18.08,0,0,0,1.33-3.87,7.41,7.41,0,0,0-.6-3.86c-.5-1.21-1.16-2.34-1.77-3.49a32.37,32.37,0,0,1-3.69-13.2l.22.21c8.71,9.77,21.59,18.85,24.36,23.26,2.9,4.62,2.83,8.92,1.87,11.74a8.28,8.28,0,0,1-1.08,2.15l-.93.27c-.31.09-1.41.52-1.48.56-3.63,1.64-3.34,4.66-2.83,6.43a2,2,0,0,0,2,1.47h6.23a3.49,3.49,0,0,0,3.42-2.76,84.47,84.47,0,0,0,2-13.53c.09-5.67-.69-12-6-23.24s-4.77-25.82-7.7-40.61c-1-4.85-2.37-8.2-4.33-10.54a18.94,18.94,0,0,1,20.83-1.78,7,7,0,0,0,1.88.89,7.73,7.73,0,0,1-.15-3.68c.85,1.19,1.6,2.59,2.5,3.73,2.49,3.18,8.34,4.64,12.15,4.79,2.88.12,5.34.18,5.34.18-1.11-.23-2.33-1.94-2.94-3a44.75,44.75,0,0,0,5.18,2.13c7.6,2.08,21.34.11,24.34-2.05.32-.23-2.67-.54-3.59-1.77a13.17,13.17,0,0,1,2.68-.25c8.52.49,15.42-7.25,16.18-7.78a23.93,23.93,0,0,0,4.09-5.1c.15-.25-1.88.32-3.74.74-.1,0-.49.16-.37.1C238.82,102,239.33,94.46,239.33,94.46ZM51.86,164.14c.47,2.24.92,4.27,1.29,6.05s.7,3.77.93,5.59c2.14,17-2.43,29.48-2.43,29.48a6.62,6.62,0,0,0-2.06-1.37,5,5,0,0,0-1-.28,5.2,5.2,0,0,0-3.27.44h0a3.87,3.87,0,0,0-.78.54c.46-1.17.72-2.57,1.13-4.05.74-2.69,1.46-11.13,1.08-21.11h0c-.15-3.78-.45-7.79-1-11.78-.29-2.22-.65-4.44-1.09-6.62,0-.2-.57-1-.11-.58,1.89,1.77,5.54,2,7.26,3.7"/><path class="cls-3" d="M239.33,94.46l-2.44.69c-.13,0-.07.11-.22.13.88-2.77,1.49-7.73.25-10.45A9.35,9.35,0,0,0,235.44,87c0-8.69-2.95-18.24-10.63-23,.43,1.3.83,2.65,1.37,3.91-3.29-4.34-6.56-6-11.91-6.62-.11,0,6.83,9.39,6.71,16.26a6.12,6.12,0,0,1-2.45-1.06,2.28,2.28,0,0,0-.39-.27c0,.18.08.38.13.6.32,1.42,1.1,5.13,1.55,9h0c-.61-.57-2.26-2.39-3.27-2.54.74,2.16-.1,8,0,8.59a6.87,6.87,0,0,0-.56-1.71c-.23-.48-1.75-2.76-1.78-2.18-.17,3.64-6.8,4.2-8.87,5.37,0-1.71.67-3.33-.28-4.79a27.31,27.31,0,0,0-2.64,1.37,19.13,19.13,0,0,1-5.37,1.34c-2.45.09-5-.27-7.16.15.73-1.36,1.45-3.33.59-4.85-.06-.09-.67,1.43-3.62,1.3-2.53-.12-7-.71-10-.56.65-1.85,3.72-2.22,4.46-2.59,0,0-7.07-3.57-18.9,2.95A6.38,6.38,0,0,1,163.89,85c.16-.22-4.63.91-6.43,1.56-1,.5-4.58,1.62-6.17,2.6l-.33.21a29.13,29.13,0,0,0-13.53,26.81,28,28,0,0,0-11.53-1.67,67.32,67.32,0,0,0-24.42,5.21,40,40,0,0,1-8.56,1.6c-.39-.31-.78-.61-1.19-.9a20.39,20.39,0,0,0-5.45-2.8,22.57,22.57,0,0,0-6.93-1c-1.33,0-2.66.06-4,.18l-1.48.14h0a16.41,16.41,0,0,1-5.78-4.84,12.89,12.89,0,0,1-1-1.79s-.23-.93-.3-1.33a25,25,0,0,0-1-4,41.82,41.82,0,0,1-2.2-6.82q.33,0,.66,0A9.13,9.13,0,0,0,65.55,98,6,6,0,0,0,68,97.14a10,10,0,0,1-2.11-.5c4.76-.7,6-4.32,5.84-4.27a7.93,7.93,0,0,1-1.89.52A7.71,7.71,0,0,0,73.78,88a6.79,6.79,0,0,0,.15-2.12,9.09,9.09,0,0,1-2.39,1.2,3.84,3.84,0,0,0,.25-.67c.15-.54-.13-2-.25-1.85a10.3,10.3,0,0,1-2.5,1.6c1.75-2.84,3.59-6.63,3.77-10.25a12.11,12.11,0,0,0-1.79-7c1.55-18.54-8-28-9.88-28-.23,0-.3.15-.33.42-.71,6.08-4.52,18-5.13,19.86a161.3,161.3,0,0,0-18.25-.93c-.42-1.94-3-14.15-3.11-20.27,0-.27,0-.42-.28-.45-1.9-.23-12.33,8.22-12.65,26.82A12.09,12.09,0,0,0,18.9,73.2c-.19,3.62,1.26,7.57,2.72,10.57a6.26,6.26,0,0,1-2.33-1.84c-.1-.14-.53,1.26-.43,1.81a4.23,4.23,0,0,0,.18.7A9.23,9.23,0,0,1,16.78,83a7,7,0,0,0-.06,2.13c.3,2.29,2.08,4.77,1.58,4.53-.12-.06.71,3.66,5.38,4.84a9.74,9.74,0,0,1-2.16.29,6.83,6.83,0,0,0,3.71,1.38,16.36,16.36,0,0,0,2.71,0l.36,0a49.38,49.38,0,0,0-2.6,6.27A51.11,51.11,0,0,0,24,109c-2.34,12.16-1,28.18,8.53,48.72,1.16,3.41,2.3,6.46,3.18,9,.65,1.84,1.2,3.65,1.67,5.42,4.4,16.56,1.55,29.54,1.55,29.54a6.68,6.68,0,0,0-2.22-1.08,4.73,4.73,0,0,0-1-.15,5.24,5.24,0,0,0-3.17.88h0a3.07,3.07,0,0,0-1.39,2.41c-.09,2,.36,3.14,1.18,3.79,1.52,1.19,4.32.7,7.45.42a5.33,5.33,0,0,0,3.93-1.76s0,.05,0,.07c-.36,1.94-.07,3.15.66,3.91,1.34,1.39,4.19,1.27,7.33,1.42,4.86.21,5.37-3,6.89-6.55,1.1-2.56,3.9-20.78,3.9-20.78a81.49,81.49,0,0,0,.61-11.81q-.09-2.08-.15-4a35.84,35.84,0,0,0,27.63-2.26c4.93-2.56,9.79-5.41,14.84-7.76.11.33.21.66.31,1s.46,1.46,1.08,2.94a40.34,40.34,0,0,0,10.54,14.46,41.14,41.14,0,0,1,3,3.29c.93,1,1.9,2,2.76,3.06a6.1,6.1,0,0,1,1.5,3.19,16.4,16.4,0,0,1-.6,4.34c-.55,2.93-.9,4.56-1.47,7.49a19.59,19.59,0,0,0-.35,2.45,8,8,0,0,0-3.12.76,4.86,4.86,0,0,0-2.45,2.44,3,3,0,0,0-.2,1.25,3.43,3.43,0,0,0,.76,1.91c1.76,2.19,4.91,1.73,7.37,1.58l2.28-.14a2.67,2.67,0,0,0,1.75-.57c.87-.82.75-2.32.84-3.41a50,50,0,0,1,3.67-15.07,18.08,18.08,0,0,0,1.33-3.87,7.41,7.41,0,0,0-.6-3.86c-.5-1.21-1.16-2.34-1.77-3.49a32.37,32.37,0,0,1-3.69-13.2l.22.21c8.71,9.77,21.59,18.85,24.36,23.26,2.9,4.62,2.83,8.92,1.87,11.74a8.28,8.28,0,0,1-1.08,2.15l-.93.27c-.31.09-1.41.52-1.48.56-3.63,1.64-3.34,4.66-2.83,6.43a2,2,0,0,0,2,1.47h6.23a3.49,3.49,0,0,0,3.42-2.76,84.47,84.47,0,0,0,2-13.53c.09-5.67-.69-12-6-23.24s-4.77-25.82-7.7-40.61c-1-4.85-2.37-8.2-4.33-10.54a18.94,18.94,0,0,1,20.83-1.78,7,7,0,0,0,1.88.89,7.73,7.73,0,0,1-.15-3.68c.85,1.19,1.6,2.59,2.5,3.73,2.49,3.18,8.34,4.64,12.15,4.79,2.88.12,5.34.18,5.34.18-1.11-.23-2.33-1.94-2.94-3a44.75,44.75,0,0,0,5.18,2.13c7.6,2.08,21.34.11,24.34-2.05.32-.23-2.67-.54-3.59-1.77a13.17,13.17,0,0,1,2.68-.25c8.52.49,15.42-7.25,16.18-7.78a23.93,23.93,0,0,0,4.09-5.1c.15-.25-1.88.32-3.74.74-.1,0-.49.16-.37.1C238.82,102,239.33,94.46,239.33,94.46ZM51.86,164.14c.47,2.24.92,4.27,1.29,6.05s.7,3.77.93,5.59c2.14,17-2.43,29.48-2.43,29.48a6.62,6.62,0,0,0-2.06-1.37,5,5,0,0,0-1-.28,5.2,5.2,0,0,0-3.27.44h0a3.87,3.87,0,0,0-.78.54c.46-1.17.72-2.57,1.13-4.05.74-2.69,1.46-11.13,1.08-21.11h0c-.15-3.78-.45-7.79-1-11.78-.29-2.22-.65-4.44-1.09-6.62,0-.2-.57-1-.11-.58,1.89,1.77,5.54,2,7.26,3.7"/><path class="cls-4" d="M236.89,95.15c-.13,0-.07.11-.22.13.88-2.77,1.49-7.73.25-10.45A9.35,9.35,0,0,0,235.44,87c0-8.69-2.95-18.24-10.63-23,.43,1.3.83,2.65,1.37,3.91-3.29-4.34-6.56-6-11.91-6.62-.11,0,6.51,8.82,6.71,16.26a6.12,6.12,0,0,1-2.45-1.06,2.28,2.28,0,0,0-.39-.27s.05.21.13.6c.32,1.42,1.1,5.13,1.55,9h0c-.61-.57-2.26-2.39-3.27-2.54.13,2.39.42,4.89-.43,7-2.72,1.16-5.42,2.57-6,2.8-13.93,5.74,0,27.88,16.4,18.86.3-.16,1.44-4.27,1.82-4.35,10.48-4.67,11-13.06,11-13.06Zm-11,5.5Z"/><path class="cls-5" d="M216.58,96.4a7.57,7.57,0,0,1-1.22,3.32,4.64,4.64,0,0,1-.31.4l.1,0a8.14,8.14,0,0,0,.89-.29c.86-.31,2-.78,3-1.19a11.55,11.55,0,0,1,2.21-.82s0,0,0,0a.44.44,0,0,1,0,.1,6.07,6.07,0,0,1-.87,2.13,15.72,15.72,0,0,1-1.5,2.22,8.66,8.66,0,0,0-.71,1.3c.5-.68.16-.13-.6,1,7.27-4.11,9-9.61,9-10.11h0v0h0a12.76,12.76,0,0,1-.6,6.16h0c.51-.42,1-.86,1.53-1.3A27,27,0,0,0,230,96.87a15.42,15.42,0,0,0,1.75-2.33l.06-.1a12.91,12.91,0,0,0,1.09-2.25,12.3,12.3,0,0,0,.48-1.76l0-.19a6.32,6.32,0,0,1-.72.3l-.29.11c-.9.35-2.22.84-3.14,1.15l-.46.15-.16,0-.13,0-.11,0h-.09c-.07,0-.11,0-.09,0,.15-.27.29-.55.43-.83a20.6,20.6,0,0,0,.92-2.16l.15-.45c.1-.29.19-.59.28-.89s.16-.61.23-.91.14-.62.2-.93.16-.92.21-1.39a20.69,20.69,0,0,0-.33-7,.29.29,0,0,1,0-.09c0-.09-.05-.19-.07-.29A13.07,13.07,0,0,0,229,73.9a0,0,0,0,0,0,0s0,0,0,.06a7,7,0,0,1-1,2.52,11.87,11.87,0,0,1-1.47,2.39h0c0-.46,0-.91-.07-1.35a18.88,18.88,0,0,0-1.32-5.71c-.13-.32-.27-.64-.43-1a16.77,16.77,0,0,0-4.63-5.72A22.82,22.82,0,0,0,217,63c-.44-.26-.77-.44-1.06-.6l-.87-.46c-.19-.11-.41-.22-.67-.35C218,66.92,220,70.88,221,77.5a6.12,6.12,0,0,1-2.45-1.06c1.87,1.52,2.52,5.9,3,7.26,1.6-6,1.3-10.92-2.47-18.36-.25-.5,7,6,6.12,18.58,4-2.37,3.75-7.07,3.81-6.8,1.61,7.89-4.26,16.84-4.1,16.31,1.11-3.79-.09-8.08-1.2-12.4-.16,3.68-3.6,11.06-3.59,10.74a41.61,41.61,0,0,0-.32-6h0c-.61-.57-2.26-2.39-3.27-2.54a10.51,10.51,0,0,1-.43,7,7.73,7.73,0,0,1,.43,1.62A13,13,0,0,1,216.58,96.4Zm1.15-.75a39.11,39.11,0,0,0,.43-9.36,9.16,9.16,0,0,1,.52,1.44c.22.72.3,1.49.47,2.22a40.84,40.84,0,0,1,.4,4.6,11.55,11.55,0,0,0,2.35-2.63.83.83,0,0,1,0-.15.83.83,0,0,0,0,.15,7.32,7.32,0,0,1-.6,1.54,13.06,13.06,0,0,1-2.77,3.66,16.3,16.3,0,0,1-1.35,1C217.38,97.31,217.58,96.47,217.73,95.65Z"/><path class="cls-6" d="M220.14,91.77c0,.32,3.43-7.06,3.59-10.74,1.11,4.32,2.31,8.61,1.2,12.4-.16.53,5.71-8.42,4.1-16.31-.06-.27.21,4.43-3.81,6.8.91-12.61-6.37-19.08-6.12-18.58,3.77,7.44,4.07,12.39,2.47,18.36-.52-1.36-1.17-5.74-3-7.26a2.28,2.28,0,0,0-.39-.27s.05.21.13.6c.32,1.42,1.1,5.13,1.55,9A41.61,41.61,0,0,1,220.14,91.77Z"/><path class="cls-6" d="M221.3,93.46a7.32,7.32,0,0,0,.6-1.54,11.55,11.55,0,0,1-2.35,2.63,40.84,40.84,0,0,0-.4-4.6c-.17-.73-.25-1.5-.47-2.22a9.16,9.16,0,0,0-.52-1.44,39.11,39.11,0,0,1-.43,9.36c-.15.82-.35,1.66-.55,2.47a16.3,16.3,0,0,0,1.35-1A13.06,13.06,0,0,0,221.3,93.46Z"/><path class="cls-7" d="M223.55,108.1h-.13q.38-.15.75-.33c5.64-2.7,9.66-9.9,9.23-10,0,0,0,0,0,0h0s-2.9,2.06-4.32,3l-.18.12a31.31,31.31,0,0,1-5,2.85,22.51,22.51,0,0,1-5.21,1.56c-.57.1-1.17.19-1.79.27l-1.67.17a20.64,20.64,0,0,0,2.69-2.41c.32-.35.64-.72.95-1.11a15.72,15.72,0,0,0,1.5-2.22,9.46,9.46,0,0,0,.87-2.13.44.44,0,0,0,0-.1s0,0,0,0a14.19,14.19,0,0,0-2.21.82c-1,.41-2.12.88-3,1.19-.35.14-.66.24-.89.31l-.13,0,0,0a4.64,4.64,0,0,0,.31-.4,8.48,8.48,0,0,0,1.22-3.32,13,13,0,0,0,0-4.57,6.87,6.87,0,0,0-.56-1.71c-.23-.48-1.75-2.76-1.78-2.18-.17,3.64-6.8,4.2-8.87,5.37,0-1.71.67-3.33-.28-4.79a27.31,27.31,0,0,0-2.64,1.37,19.13,19.13,0,0,1-5.37,1.34c-2.45.09-5-.27-7.16.15.73-1.36,1.45-3.33.59-4.85-.06-.09-.67,1.43-3.62,1.3-2.53-.12-7-.71-10-.56.65-1.85,3.72-2.22,4.46-2.59,0,0-7.07-3.57-18.9,2.95A6.38,6.38,0,0,1,163.89,85c.16-.22-4.63.91-6.43,1.56-1,.5-2,1-3,1.57a33.27,33.27,0,0,0-4.84,3.34A28.73,28.73,0,0,0,146,95.12l-.48.58a16.35,16.35,0,0,0-1.36,2.15,9.16,9.16,0,0,1-1.08,1.55l-.05.06h0c3.57-3,6.88-4.62,14.43-4.66.47,0-12.8,2.94-15.48,12.87,1.83-1.94,4.7-2.83,7.31-3.24l.87-.13a8.47,8.47,0,0,0-3.82,4.54c-.1.29,5.85-3.5,11.46-.59a7.73,7.73,0,0,1,1.15.92,11.73,11.73,0,0,0-6.81.29,14.3,14.3,0,0,0-6.55,4.88,16.6,16.6,0,0,0-1.39,2.1l.05.18c9.37-5.73,19.08-1.57,20-1.16-.38-.17-.77-.38-1.16-.6h0c.41.23.82.44,1.23.64l.26.13h0a.72.72,0,0,0-.08-.22c-.19-.4-.65-1.23-.92-1.82a14.47,14.47,0,0,1-1.49-4.7c2.09,3.57,6.34,6.93,9.52,9.14a45.92,45.92,0,0,0,7.57,3.38,15.22,15.22,0,0,1-2.24-4.46,11.37,11.37,0,0,1-.52-3h0l.16.15a12.74,12.74,0,0,0,1.89,1.45c.9.59,1.87,1.14,2.74,1.78a11.17,11.17,0,0,0,1.77,1,34,34,0,0,0,6.44,2.11c2,.46,3.84.8,5.28,1,.59.09,1.11.15,1.52.18a76.29,76.29,0,0,0,8,0h.05l-.58-.35c-1-.62-2.18-1.28-3.31-2a21.34,21.34,0,0,1-3.5-2.7,12.6,12.6,0,0,1-1.54-1.81h0l.39.15a27.53,27.53,0,0,0,3.24,1,37.82,37.82,0,0,0,4.35.77,55.76,55.76,0,0,0,6.24.46,36.41,36.41,0,0,0,8.57-.87,29.75,29.75,0,0,0,8-3.09c.78-.44,1.55-.92,2.31-1.45a23.93,23.93,0,0,0,4.09-5.1c.15-.25-1.88.32-3.74.74a3.29,3.29,0,0,1-.37.1l-1.14.16c-.58.08-1.1.13-1.72.19Z"/><path class="cls-3" d="M119.83,202.08l.52-.08-.2.1a2.59,2.59,0,0,0-1.43,2.77l0,.16v.05l0,.11v.05l0,.15h0s0,.09.05.13l0,0a.37.37,0,0,0,0,.11v0a.61.61,0,0,0,.07.14h0a.75.75,0,0,1,.07.12l0,0,.07.11v0l.09.12h0l.09.11,0,0,.09.1h0l.11.11h0l.11.1h0l.38.29h0a2.36,2.36,0,0,0,.44.11l.31,0a2.22,2.22,0,0,1-.4-.61,3.26,3.26,0,0,1,.09-2.65,2.17,2.17,0,0,1,1.68-1.41,2,2,0,0,0-1,1.17c-.3,1.12.07,2.92,1.1,3,.45,0,.91.09,1.36.1s1.09.14,1.64.19a3.09,3.09,0,0,0,1.45-.05,2.53,2.53,0,0,0,.54-.28h0l.08-.12v0a.61.61,0,0,0,.07-.1v0l.06-.13v0a.37.37,0,0,0,.05-.11l0,0,0-.12v0a1.21,1.21,0,0,0,0-.14v0l0-.11v0a.83.83,0,0,0,0-.15,13.78,13.78,0,0,0,.17-2c.05-.79.11-1.59.2-2.39a29.88,29.88,0,0,1,1.93-7.81c1-2.86,2.24-5.89,1.22-8.94a20.39,20.39,0,0,0-2-3.88q-1.22-2-2.32-4.09c-1.43-2.69-2.59-5.51-4-8.2a17.79,17.79,0,0,0-5.32-6.41,8.73,8.73,0,0,0-7.29-1.58,7.47,7.47,0,0,0-3.62,2.36,40.34,40.34,0,0,0,10.54,14.46,41.14,41.14,0,0,1,3,3.29c.93,1,1.9,2,2.76,3.06a6.1,6.1,0,0,1,1.5,3.19,16.4,16.4,0,0,1-.6,4.34c-.55,2.93-.9,4.56-1.47,7.49a19.59,19.59,0,0,0-.35,2.45,8,8,0,0,0-3.12.76,4.86,4.86,0,0,0-2.45,2.44,3,3,0,0,0-.2,1.25A4.64,4.64,0,0,1,119.83,202.08Z"/><path class="cls-8" d="M127.71,164.26c-3-3.51-5.42-7.09-6.58-10.56-.66.06-1.31.15-1.95.25-1.19.2-2.36.44-3.51.73a56.11,56.11,0,0,0-9.16,3.27l-1.14.52c.11.33.21.66.31,1s.46,1.46,1.08,2.94a7.47,7.47,0,0,1,3.62-2.36,8.73,8.73,0,0,1,7.29,1.58A17.79,17.79,0,0,1,123,168c1.44,2.69,2.6,5.51,4,8.2q1.11,2.08,2.32,4.09a20.39,20.39,0,0,1,2,3.88c1,3-.2,6.08-1.22,8.94A29.88,29.88,0,0,0,128.2,201c-.09.8-.15,1.6-.2,2.39a13.78,13.78,0,0,1-.17,2,.83.83,0,0,1,0,.15v0l0,.11v0a1.21,1.21,0,0,1,0,.14v0l0,.12,0,0a.37.37,0,0,1-.05.11v0l-.06.13v0a.61.61,0,0,1-.07.1v0l-.08.12h0a2.53,2.53,0,0,1-.54.28,3.09,3.09,0,0,1-1.45.05c-.55-.05-1.09-.17-1.64-.19s-.91-.09-1.36-.1c-1,0-1.4-1.83-1.1-3a2,2,0,0,1,1-1.17,2.17,2.17,0,0,0-1.68,1.41,3.26,3.26,0,0,0-.09,2.65,2.22,2.22,0,0,0,.4.61l-.31,0a2.36,2.36,0,0,1-.44-.11h0l-.38-.29h0l-.11-.1h0l-.11-.11h0l-.09-.1,0,0-.09-.11h0l-.09-.12v0l-.07-.11,0,0a.75.75,0,0,0-.07-.12h0a.61.61,0,0,1-.07-.14v0a.37.37,0,0,1,0-.11l0,0s0-.09-.05-.13h0l0-.15v-.05l0-.11V205l0-.16a2.59,2.59,0,0,1,1.43-2.77l.2-.1-.52.08a4.64,4.64,0,0,0-3.43,3.06,3.43,3.43,0,0,0,.76,1.91c1.76,2.19,4.91,1.73,7.37,1.58l2.28-.14a2.67,2.67,0,0,0,1.75-.57c.87-.82.75-2.32.84-3.41a50,50,0,0,1,3.67-15.07,18.08,18.08,0,0,0,1.33-3.87,7.41,7.41,0,0,0-.6-3.86c-.5-1.21-1.16-2.34-1.77-3.49a32.37,32.37,0,0,1-3.69-13.2l0,0A5.33,5.33,0,0,1,127.71,164.26Zm3.68,15.18.21.1-.2-.1-.3-.13Z"/><path class="cls-4" d="M96.16,157.79c-2.47,1-4.85,2.44-7.38,3.28s-4.8,1.8-7.38,2.46A53.45,53.45,0,0,1,74,165.17a25,25,0,0,1-7.38,0c-.82-.14-2.45-1.37-3.28-1.64l-.52,2.09c0,.45.06,2.81.06,2.87a35.84,35.84,0,0,0,27.63-2.26c4.93-2.56,9.79-5.41,14.84-7.76l1.14-.52C106,154.51,98.49,156.82,96.16,157.79Z"/><path class="cls-9" d="M73.19,166.34a60.24,60.24,0,0,0,7.88-1.53q3.87-1,7.67-2.25t7.49-2.78c2.33-1,4.7-2.21,7.26-2.42a4.59,4.59,0,0,1,3,.59,56.11,56.11,0,0,1,9.16-3.27c1.15-.29,2.32-.53,3.51-.73.64-.1,1.29-.19,1.95-.25l-.07-.19c-.49-1.52-.89-2.92-1.22-4.21-.73-.08-1.46-.15-2.2-.19h-5l-.37,0h-.13l-.38,0h-.12l-.19,0-.2,0h-.1l-.4,0h-.1l-.2,0-.21,0h-.08l-.21,0-.21,0h-.08l-.22,0-.2,0h-.07l-.43.07h-.06l-.44.08h0l-.21,0-.24,0h0l-.45.09h0l-.45.1h0l-.46.11h0l-.24.06-.22,0h0l-.47.12h0l-.22.06-.25.07h0l-.48.13h0l-.22.07-.26.07h0l-.26.08-.21.07h0l-.47.15h0l-.47.16h0l-.47.17h0l-.13,0-.11,0a70.84,70.84,0,0,0-8.29,3.86l-1.77.92-.79.42c-1.86,1-3.73,1.92-5.63,2.82-2.79,1.32-5.63,2.57-8.51,3.71-.72.28-1.45.55-2.19.8a17,17,0,0,1-6.18,1c-.3,0-.6,0-.9-.08a10,10,0,0,1-3.66-1.19,6.11,6.11,0,0,1-1-.63v1.56c0,.33,0,.65,0,1h0a17.22,17.22,0,0,0,2.51.59A27.82,27.82,0,0,0,73.19,166.34Z"/><path class="cls-7" d="M94.25,123.45c-2,1.41-3.59,2-5.4,3.68-.94-3.14-2.33-5.3-5.29-6.67a15.06,15.06,0,0,0-11.56-.3c-1.71.76-3.79,2.82-5.09,4.16a9.92,9.92,0,0,0-.44-4.73c-2-4.26-5.73-5.1-9.18-4.72-.15.4-.29.81-.41,1.22a16.81,16.81,0,0,0-.27,4.27,13.37,13.37,0,0,1-1.53-3.88,26.55,26.55,0,0,1-1,2.48c-2.45,4.54-2.87,13.24-2.87,13.24a19.65,19.65,0,0,1-1.33-3.1h0c0,.09-.07.4-.08.46s-.1.61-.11.69-.1.64-.11.69l0,.2a2.51,2.51,0,0,0,0,.27c0,.07-.06.43-.07.47s-.06.4-.07.49-.07.53-.07.6l0,.17c0,.12,0,.43,0,.46s-.09.82-.1.87-.08.81-.08.86-.09,1.09-.1,1.14a.76.76,0,0,1,0,.15v.11s0,.2,0,.25v.64c0,.07,0,.14,0,.22s0,.2,0,.3v.09s0,.42,0,.58,0,.11,0,.16,0,.23,0,.34,0,.15,0,.22V140a2.81,2.81,0,0,1,0,.29v.51a1.55,1.55,0,0,1,0,.22v.5c0,.11,0,.21,0,.32v.49a1.85,1.85,0,0,0,0,.23V143c0,.16,0,.31,0,.47v.17c0,.11,0,.22,0,.32s0,.22,0,.32h0l0,.63v.19l0,.45v.22c0,.08,0,.15,0,.23s0,.15,0,.22v.2c0,.21,0,.43,0,.64,0,.4.08.8.13,1.21.07.6.14,1.2.23,1.81s.19,1.22.3,1.83h0c0,.33.09.67.14,1,.14,1,.3,2,.46,3,.07.43.14.86.22,1.28.1.62.38,2.12.41,2.26.31,1.63.62,3.2.93,4.67h0c.47,2.24.92,4.27,1.29,6.05s.7,3.77.93,5.59c2.14,17-2.43,29.48-2.43,29.48a6.62,6.62,0,0,0-2.06-1.37,5,5,0,0,0-1-.28,5.2,5.2,0,0,0-3.27.44h0a4.07,4.07,0,0,0-.27,3.9l0,.05.06.11,0,0a3.17,3.17,0,0,1,.66-2.9l.13-.16a2.64,2.64,0,0,1,1.47-.68h.09a2,2,0,0,1,.34-.06H48l.21,0h.11a2.1,2.1,0,0,1,.74.13l.16.08.08,0c.08,0-4.07-.3-2.68,3.5l.06.12a2.13,2.13,0,0,0,.47.53l.19.15s0-.06,0-.1a3.08,3.08,0,0,1-.06-.61c0-.12,0-.25,0-.37a4.05,4.05,0,0,1,.47-1.63.45.45,0,0,1,.11-.13,1,1,0,0,1,.25-.2l.05,0,.13-.07.32-.14h0l.13,0h0a2.85,2.85,0,0,0-.54,1.07,4.56,4.56,0,0,0,0,1.33,2.07,2.07,0,0,0,.11.46,2.61,2.61,0,0,0,1.21,1.27l.22.12h0a2.22,2.22,0,0,0,.32.14,2.91,2.91,0,0,0,.72.17H51l.43,0h.38a4.29,4.29,0,0,0,1.14-.14l.3-.09.05,0a2.78,2.78,0,0,0,.72-.44,3.15,3.15,0,0,0,.58-.67,12.71,12.71,0,0,0,1.14-2.45c.37-.88.71-1.77,1-2.67.64-1.81,1.19-3.64,1.67-5.49a88.41,88.41,0,0,0,1.75-21.25c-.06-1.08-.12-2.17-.2-3.26-.29-4.44-.84-8.86-1.26-13.29a46.23,46.23,0,0,1,.11-12.6c.1-.58.22-1.15.36-1.73a19.94,19.94,0,0,1,4.17-8.5l.15-.17c.23-.26.47-.51.72-.76l.24-.23a16,16,0,0,1,1.81-1.48l.37-.25-.12.25s-.38.82-.38.83-.4,1-.41,1-.13.37-.16.47-.14.41-.15.43l-.11.35c0,.07-.17.55-.17.57l-.18.63s-.06.21-.08.31h0l0,.05c0,.1,0,.21-.08.32h0c0,.23-.11.46-.16.7v.05c0,.11,0,.22-.08.33v0c-.06.25-.11.5-.16.76v0c0,.12-.05.25-.07.37v0l-.15.82h0l-.06.4v.11l-.09.58-.09.67v0c0,.13,0,.26,0,.39v.06h0c0,.05,0,.1,0,.16v0c0,.05,0,.11,0,.16v0c0,.05,0,.11,0,.16v0c0,.06,0,.12,0,.19h0c0,.06,0,.13,0,.19h0c0,.07,0,.13,0,.2h0c0,.14,0,.27,0,.41h0a9.47,9.47,0,0,0,3.9,7.8c6,4.13,21.13-4.72,33.78-6.15,8.09-.91,12.84-2.12,15.22-4.4a12.72,12.72,0,0,0,1.76-4.13c.09-.58.17-.93.17-.93h0q0,.5,0,1.08c.51,3.08,4.06,20.3,20.11,31.09,4.42,3,8,6.89,10.64,8.64,7.84,5.24,4.63-4.71,2.73-11.08-.08-.2-.17-.39-.26-.59l0-.08c-.09-.19-.17-.38-.25-.56l0-.11c-.09-.18-.17-.37-.25-.56l0-.09-.24-.58,0,0-.24-.58,0,0c-.08-.19-.16-.39-.23-.58l0-.1-.23-.56,0-.11c-.08-.19-.15-.38-.22-.57l0-.08c-.08-.2-.16-.4-.23-.61h0c-.08-.2-.15-.4-.22-.61l0-.08-.21-.58,0-.1c-.07-.19-.13-.39-.2-.58l0-.1c-.07-.2-.13-.4-.19-.6l0,0-.18-.59,0-.06c-.06-.2-.12-.4-.17-.6l0-.1c-.06-.2-.11-.39-.16-.59l0-.11-.15-.59,0-.09c-.05-.21-.11-.42-.15-.63A44.43,44.43,0,0,1,147,144.4,64.73,64.73,0,0,0,147,132c-.51-3.72-1.61-8.56-4-11.49a24.89,24.89,0,0,0-4.41-3.84c-.39-.16-.78-.3-1.17-.44a28,28,0,0,0-11.53-1.67,67.32,67.32,0,0,0-24.42,5.21c-1.64.74-3.07,1.45-4.21,2A19.82,19.82,0,0,0,94.25,123.45ZM118.61,138Z"/><path class="cls-3" d="M24.56,107.52l.34-.84,0-.07.33-.8s3.22-5.42,6.79-7.07a34.38,34.38,0,0,0-5.19,21.55h0c0-.07,0-.16,0-.26h0a.34.34,0,0,1,0-.1h0v-.11h0s0-.08,0-.12h0c0-.05,0-.09,0-.14h0c0-.05,0-.09,0-.14h0s0-.09,0-.14v0l0-.15v0s0-.1,0-.15v0a.88.88,0,0,1,0-.16h0l0-.17v0l0-.17v0a1.16,1.16,0,0,0,0-.18v0a1.16,1.16,0,0,0,0-.18v0a1.29,1.29,0,0,1,0-.19h0c0-.07,0-.14,0-.2v0c0-.07,0-.13,0-.2v0a1.94,1.94,0,0,1,0-.2v0a1.46,1.46,0,0,1,.05-.2v0l.06-.22h0l.06-.22v0l.06-.22v0l.06-.21v0c0-.08.05-.15.07-.22v0c0-.08.05-.15.07-.23v0c0-.08.05-.15.07-.23v0c0-.08.05-.16.07-.24l0,0c0-.07.05-.15.08-.23l0,0a2.25,2.25,0,0,1,.08-.24v-.05l.09-.24v0l.09-.24v0a2.77,2.77,0,0,1,.1-.26v0l.1-.25,0-.05c0-.08.07-.16.1-.25l0,0c0-.08.07-.17.11-.25v0a2.72,2.72,0,0,0,.11-.25v0l.12-.26,0,0a1.89,1.89,0,0,0,.11-.25l0-.05.12-.25,0,0c.05-.08.09-.17.13-.25l0,0,.14-.27h0l.14-.26,0,0,.14-.25,0,0,.14-.25,0,0,.15-.25,0,0,.16-.26,0,0c0-.08.1-.17.16-.25l0,0,.16-.25,0,0,.17-.24,0,0,.17-.24,0,0,.19-.25,0,0,.18-.24,0,0,.19-.24,0,0,.2-.23,0,0,.19-.23,0,0,.21-.22,0,0c.07-.07.38-.39.46-.46l0,0,.53-.49.23-.2,0,0,.26-.2h0l-4.43,1.91s0,0,0-.05.15-.55.17-.6a35.16,35.16,0,0,1,1.5-3.43l.05-.11a2.12,2.12,0,0,0,.11-.21c.2-.38.4-.72.57-1l.16-.23.15-.23.07-.1c.1-.16.2-.31.31-.46v0l0,0,.29-.41.07-.1.16-.22.16-.22,0-.07.15-.2.15-.2.06-.07c.11-.15.22-.3.34-.44l0,0,0,0c.11-.14.22-.28.34-.41l0,0,.36-.44,0,0,0,0c.13-.14.25-.29.37-.43l0,0A5.18,5.18,0,0,0,33,94.68a3.4,3.4,0,0,1,2.56.51C34.05,93.78,32,93.42,30,93a48.59,48.59,0,0,0-4.31,9.42A51.11,51.11,0,0,0,24,109l.42-1.08C24.45,107.81,24.51,107.66,24.56,107.52Z"/><path class="cls-9" d="M60.72,104.35a8.51,8.51,0,0,0-.94-1.73c-.73-2.85-2.81-6-4-5.94-.45,0-21.9.43-21.9.43-.49-.13.06.44.68,1.16l-.13.15,0,0,0,0c-.12.14-.23.29-.34.44l-.06.07-.15.2-.15.2,0,.07-.16.22-.16.22-.07.1-.29.41,0,0v0c-.11.15-.21.3-.31.46l-.07.1-.15.23-.16.23c-.17.28-.37.62-.57,1a2.12,2.12,0,0,1-.11.21l-.05.11a35.16,35.16,0,0,0-1.5,3.43s-.17.55-.17.6,0,.05,0,.05L34.24,105h0l-.26.2,0,0-.23.2,0,0-.23.2,0,0-.22.21,0,0-.23.22h0l-.22.23,0,0-.21.22,0,0-.19.23,0,0-.2.23,0,0-.19.24,0,0-.18.24,0,0-.19.25,0,0-.17.24,0,0-.17.24,0,0-.16.25,0,0c-.06.08-.11.17-.16.25l0,0-.16.26,0,0-.15.25,0,0-.14.25,0,0-.14.25,0,0-.14.26h0l-.14.27,0,0c0,.08-.08.17-.13.25l0,0-.12.25,0,.05a1.89,1.89,0,0,1-.11.25l0,0-.12.26v0a2.72,2.72,0,0,1-.11.25v0c0,.08-.07.17-.11.25l0,0c0,.09-.07.17-.1.25l0,.05-.1.25v0a2.77,2.77,0,0,0-.1.26v0l-.09.24v0l-.09.24v.05a2.25,2.25,0,0,0-.08.24l0,0c0,.08-.05.16-.08.23l0,0c0,.08-.05.16-.07.24v0c0,.08-.05.15-.07.23v0c0,.08-.05.15-.07.23v0c0,.07-.05.14-.07.22v0l-.06.21v0l-.06.22v0l-.06.22h0l-.06.22v0a1.46,1.46,0,0,0-.05.2v0a1.94,1.94,0,0,0,0,.2v0c0,.07,0,.13,0,.2v0c0,.06,0,.13,0,.2h0a1.29,1.29,0,0,0,0,.19v0a1.16,1.16,0,0,1,0,.18v0a1.16,1.16,0,0,1,0,.18v0l0,.17v0l0,.17h0a.88.88,0,0,0,0,.16v0s0,.1,0,.15v0l0,.15v0s0,.09,0,.14h0s0,.09,0,.14h0s0,.09,0,.14h0s0,.08,0,.12h0v.11h0a.34.34,0,0,0,0,.1h0c0,.1,0,.19,0,.26h0v.06h0v.08h0v0h0v0h0a19.36,19.36,0,0,1,3.6-3.23l0,0-.17.3h0l-.21.39,0,0v0l-.1.19-.09.18,0,0,0,0-.09.19-.09.19v0l0,0c-.31.67-.6,1.35-.86,2-.07.19-.13.37-.2.55l0,.06-.13.4v.07a1.18,1.18,0,0,0-.07.2l-.06.21v0c-.12.37-.23.75-.32,1.14s-.19.76-.27,1.15h0a26.08,26.08,0,0,0-.28,9h0c0,.15.05.29.07.44.06.36,1.31-2.47,2.19-3.34-.67,5.75-.64,15.31,2.91,18.73,0,0,.29-3.32.46-4.09,1.22,5.27,6.49,13.12,6.43,12.87a7.42,7.42,0,0,1,.11-3.7l.12-.38a23.63,23.63,0,0,0,5,6.05c1.89,1.77,5.54,2,7.26,3.7-.31-1.47-.62-3-.93-4.67,0-.14-.56-3.11-.63-3.54-.16-1-.32-2-.46-3-.05-.33-.09-.67-.14-1h0q-.16-.91-.3-1.83c-.08-.55-.17-1.23-.21-1.64-.16-1.74-.41-7-.41-7v-.43a1.55,1.55,0,0,0,0-.22v-.51a2.81,2.81,0,0,0,0-.29v-.51c0-.07,0-.15,0-.22s0-.22,0-.34v-.16c0-.16,0-.54,0-.58a3.68,3.68,0,0,0,0-.39c0-.08.1-1.47.11-1.52s.12-1.45.13-1.5.11-1,.12-1.12,0-.44.06-.56.07-.51.08-.58,0-.38.06-.47l.1-.68c0-.09.23-1.49.24-1.54l0-.16a.77.77,0,0,1,0-.15l0-.19c0-.09,0-.18,0-.27h0a19.65,19.65,0,0,0,1.33,3.1s.42-8.7,2.87-13.24a26.55,26.55,0,0,0,1-2.48,13.37,13.37,0,0,0,1.53,3.88,16.81,16.81,0,0,1,.27-4.27c.12-.41.26-.82.41-1.22.8-2.14,1.84-4.12,1.45-6.13.88,1.07,2.49,3.82,2.57,3.58A11,11,0,0,0,60.72,104.35Z"/><path class="cls-4" d="M49,146.36v-.1c0-.07,0-.15,0-.22s0-.15,0-.23v-.22l0-.45V145l0-.63h0c0-.1,0-.21,0-.32s0-.21,0-.32v-.17c0-.16,0-.31,0-.47v-.43a1.85,1.85,0,0,1,0-.23v-.49c0-.11,0-.21,0-.32-.62-1.59-1.25-3.2-1.8-4.82-1.77-5.15-2.9-10.82-1.44-16.15a20.52,20.52,0,0,0-3.46,7.46,20.31,20.31,0,0,1-.51-4.75,63.81,63.81,0,0,1,.49-7.32,13.81,13.81,0,0,1,1.71-5.1,12.66,12.66,0,0,0-4.35,5,12.13,12.13,0,0,1,0-3.87c.29-1.4.31-4,.75-5.34a7.37,7.37,0,0,0,3.65.56c5.41.55,5.51-1.09,6.71-2.68a23.37,23.37,0,0,1-6.18-.15h0s-3.73,1.89-6.36-.55a2.83,2.83,0,0,1,0-.41,5.16,5.16,0,0,1-.76-.79,47.16,47.16,0,0,0-2.34,6.48L39.54,107l0,0c-3.25,3.72-4.51,8.77-4.91,13.61a23.27,23.27,0,0,0,.29,5.25,9,9,0,0,1,3.47-3.88c-1.58,5-.81,10.38.46,15.42A20.22,20.22,0,0,0,40.68,142a16.48,16.48,0,0,1,2.16-6.46,26,26,0,0,0,2.46,11.87,11.43,11.43,0,0,0,2.37,3,7.38,7.38,0,0,1,.34-5.52c.34.75.69,1.49,1,2.23,0-.21,0-.43,0-.64Z"/><path class="cls-7" d="M32.22,202.18c0,.08,0,.16,0,.25l0,.25c0,.13,0,.25,0,.38a4.44,4.44,0,0,0,0,.63c0,.09,0,.17,0,.25l.06.25a3,3,0,0,0,.12.32l0,.09a3.51,3.51,0,0,0,.34.63h0l0,0,.07.11h0l0,0a.36.36,0,0,1,0-.09c0-.12-.09-.24-.13-.37l-.06-.29a1,1,0,0,0,0-.17c0-.1,0-.2,0-.3a1.28,1.28,0,0,1,0-.19,1.23,1.23,0,0,1,0-.19,2.74,2.74,0,0,1,0-.28,2.29,2.29,0,0,1,.07-.28,3.66,3.66,0,0,1,.18-.46c.06-.11.12-.23.19-.34l.11-.18a2.68,2.68,0,0,1,.28-.3,3.09,3.09,0,0,1,1.08-.56l.09,0,.33-.11.3-.07.12,0h.19a1.86,1.86,0,0,1,.57,0l.17.05.08,0s-.36,0-.85.18a4.48,4.48,0,0,0-.54.2l-.15.08a.8.8,0,0,0-.16.08l-.07.05a1.7,1.7,0,0,0-.22.15l-.1.09-.16.16a.18.18,0,0,0,0,.07.76.76,0,0,0-.11.14l-.09.16a1.34,1.34,0,0,0-.07.18,1.38,1.38,0,0,0-.08.29l0,.21c0,.11,0,.23,0,.35a3.07,3.07,0,0,0,.15.66,3.25,3.25,0,0,0,.17.46l.16.32,0,.06,0,.05a2.08,2.08,0,0,0,.6.5l.15.09,0-.1-.06-.17-.06-.29s0-.09,0-.14,0-.12,0-.18a1.28,1.28,0,0,0,0-.19v-.19a1.41,1.41,0,0,1,0-.2,1.48,1.48,0,0,1,0-.21.34.34,0,0,1,0-.1,1.64,1.64,0,0,1,0-.22s0-.07,0-.11,0-.16.05-.24.08-.27.13-.41l.05-.08,0-.06,0-.06.11-.11.06-.06a.1.1,0,0,0,.05,0l.13-.09h0l.2-.12.06,0h0l.07,0,0,0h0s0,0,0,0h0l-.2.41-.06.14s0,.09-.05.13a.83.83,0,0,0,0,.15.64.64,0,0,0,0,.07.77.77,0,0,0,0,.15s0,.05,0,.08v.17a1.84,1.84,0,0,0,0,.33,3.07,3.07,0,0,0,.07.42c0,.13.06.27.09.4a.56.56,0,0,0,0,.12,1.36,1.36,0,0,0,.14.33,2.25,2.25,0,0,0,.55.64l.1.07.16.1a1.71,1.71,0,0,0,.23.13l.32.15.23.09h0l.2.06.13,0,.15,0a.76.76,0,0,0,.21,0h.52l.42,0h0a6.42,6.42,0,0,0,.75-.1,3.23,3.23,0,0,0,.51-.14l.22-.08.07,0,.21-.1a.1.1,0,0,0,0,0h0a2,2,0,0,0,.33-.24,2.78,2.78,0,0,0,.56-.62,3.44,3.44,0,0,0,.22-.38v0a2.56,2.56,0,0,0,.11-.24.5.5,0,0,0,0-.13,7,7,0,0,0,.24-.69l0-.09c0-.08,0-.16.07-.24l0-.09c.1-.37.19-.74.28-1.1s.22-.84.32-1.26.15-.63.22-1l.12-.57c0-.24.1-.47.14-.71.14-.7.27-1.4.38-2.11,0-.24.08-.48.11-.71s.07-.47.11-.71l.18-1.42c.05-.71.1-1.41.13-2.1l0-.7,0-.78a1.27,1.27,0,0,1,0-.2v-.2c0-.39,0-.78,0-1.16v-1.16c0-.51,0-1,0-1.51,0-.12,0-.25,0-.37,0-.5,0-1-.05-1.47v0h0c0-.28-.07-.56-.12-.83s-.07-.4-.1-.6c-.11-.66-.23-1.33-.37-2,0-.2-.09-.4-.13-.6-.13-.52-.28-1-.43-1.56s-.32-1-.49-1.56c-.3-.9-.64-1.8-1-2.68-.11-.26-.21-.51-.32-.76-.38-.88-.79-1.75-1.21-2.61-.27-.56-.71-1.37-1.27-2.41l-1-1.9a148.08,148.08,0,0,1-7.29-15.73c-.08-.19-.15-.39-.22-.58l-.44-1.17c-.78-2.15-1.51-4.37-2.13-6.62A53.28,53.28,0,0,1,26.84,133c0-.26,0-.52,0-.76s0-.75,0-1.09a25.21,25.21,0,0,1,.39-4.59c.05-.19.09-.37.14-.55a1.74,1.74,0,0,1,.05-.22l.06-.23c.06-.23.13-.48.21-.74h0c.08-.39.17-.77.27-1.15s.2-.77.32-1.14v0l.06-.21a1.18,1.18,0,0,1,.07-.2V122l.13-.4,0-.06.2-.54c.26-.7.55-1.38.86-2l0,0v0l.09-.19.09-.19,0,0,0,0,.09-.18.1-.19v0l0,0,.21-.39h0v0h0l.16-.29,0,0a19.36,19.36,0,0,0-3.6,3.23h0v0h0v0h0v-.08h0v-.06h0a34.38,34.38,0,0,1,5.19-21.55c-3.57,1.65-6.76,7-6.79,7.07l-.33.8,0,.07-.34.84c0,.14-.11.29-.17.43L24,109c-2.34,12.16-1,28.18,8.53,48.72,1.16,3.41,2.3,6.46,3.18,9,.65,1.84,1.2,3.65,1.67,5.42,4.4,16.56,1.55,29.54,1.55,29.54a6.68,6.68,0,0,0-2.22-1.08,4.73,4.73,0,0,0-1-.15,5.18,5.18,0,0,0-3.17.88h0a4.37,4.37,0,0,0-.25.72Z"/><path class="cls-10" d="M44.35,104.37h0a6,6,0,0,0,5.77.66,3,3,0,0,0,.12-.4,5.9,5.9,0,0,1-.72.2,4.89,4.89,0,0,1-4.52-1,3.38,3.38,0,0,1-.59-.73,3.22,3.22,0,0,1-.66.67,4.92,4.92,0,0,1-4.6.53,5.86,5.86,0,0,1-.69-.28c0,.14,0,.28.08.41A6,6,0,0,0,44.35,104.37Z"/><path class="cls-11" d="M64,63.18a16.1,16.1,0,0,1,3.79,2.16,29.72,29.72,0,0,0-4-13.45A.42.42,0,0,0,63,52c-1.17,4-5.11,9.34-5.11,9.34s.09.17.14.27A28.17,28.17,0,0,1,64,63.18Z"/><path class="cls-12" d="M63,52a.42.42,0,0,1,.76-.1,29.72,29.72,0,0,1,4,13.45c.25.2.49.39.72.6a45.38,45.38,0,0,0-.62-6.9,35.23,35.23,0,0,0-2.1-7.45,29.12,29.12,0,0,0-1.69-3.46l-.5-.82c-.17-.27-.35-.53-.53-.79l-.27-.39-.18.68c-.1.36-.19.71-.29,1.06L62,48.92l-.31,1c-.1.35-.21.69-.32,1l-.33,1-.33,1c-.45,1.38-.9,2.76-1.37,4.13l-.72,2.06c-.25.69-.5,1.37-.77,2C57.86,61.33,61.8,56,63,52Z"/><path class="cls-13" d="M59.35,57.22c.47-1.37.92-2.75,1.37-4.13l.33-1,.33-1c.11-.35.22-.69.32-1l.31-1,.3-1.05c.1-.35.19-.7.29-1.06l.18-.68.27.39c.18.26.36.52.53.79l.5.82a29.12,29.12,0,0,1,1.69,3.46A35.23,35.23,0,0,1,67.87,59a45.38,45.38,0,0,1,.62,6.9q.49.44.93.9a37.65,37.65,0,0,0-.17-8,33.52,33.52,0,0,0-.77-4c-.16-.66-.35-1.31-.56-2s-.45-1.28-.7-1.91a27.59,27.59,0,0,0-1.82-3.65c-.35-.58-.72-1.16-1.13-1.71q-.3-.42-.63-.81l-.16-.2c-.06-.07-.12-.13-.17-.2l-.18-.19L63,44,62,43l-.28,1.4-.21,1c-.08.36-.15.71-.23,1.06l-.24,1-.25,1.06-.5,2.11-.51,2.11c-.34,1.41-.67,2.83-1,4.25s-.63,2.83-.93,4.26c.27-.68.52-1.36.77-2Z"/><ellipse class="cls-14" cx="57.57" cy="83.43" rx="5.05" ry="6.34"/><path class="cls-15" d="M58.56,80.74a1.92,1.92,0,0,0-3.18.49,3.67,3.67,0,0,0,.37,4.19,1.91,1.91,0,0,0,3.17-.49A3.65,3.65,0,0,0,58.56,80.74Zm.29,3.66a1.38,1.38,0,0,1-2.28.34,2.63,2.63,0,0,1-.26-3,1.38,1.38,0,0,1,2.28-.34A2.63,2.63,0,0,1,58.85,84.4Z"/><path class="cls-15" d="M58.59,81.39a1.38,1.38,0,0,0-2.28.34,2.63,2.63,0,0,0,.26,3,1.38,1.38,0,0,0,2.28-.34A2.63,2.63,0,0,0,58.59,81.39Zm.06,2.46a.63.63,0,0,1-1,.16,1.2,1.2,0,0,1-.12-1.37.63.63,0,0,1,1.05-.16A1.2,1.2,0,0,1,58.65,83.85Z"/><path class="cls-15" d="M57.48,82.64A1.2,1.2,0,0,0,57.6,84a.63.63,0,0,0,1-.16,1.2,1.2,0,0,0-.12-1.37A.63.63,0,0,0,57.48,82.64Z"/><circle class="cls-16" cx="56.36" cy="81.47" r="0.67"/><path class="cls-11" d="M31.11,50.38a.42.42,0,0,0-.75-.18,29.77,29.77,0,0,0-5.38,13,16.54,16.54,0,0,1,4-1.78,29.74,29.74,0,0,1,6.11-1c.06-.09.11-.18.17-.26S31.87,54.43,31.11,50.38Z"/><path class="cls-12" d="M34.18,56c-.33-1.41-.64-2.83-1-4.25L33,50.63l-.22-1.06c-.07-.36-.15-.72-.21-1.07l-.21-1.08c-.06-.36-.13-.71-.19-1.07L32,45.27c0-.23-.07-.47-.11-.7l-.31.35-.61.74c-.2.25-.39.51-.58.77a26.66,26.66,0,0,0-2,3.27,34.83,34.83,0,0,0-2.84,7.19,45.75,45.75,0,0,0-1.31,6.81c.25-.18.5-.35.77-.52a29.77,29.77,0,0,1,5.38-13,.42.42,0,0,1,.75.18c.76,4,4.14,9.8,4.14,9.8-.2-.7-.38-1.4-.56-2.11Z"/><path class="cls-13" d="M25.52,56.89a34.83,34.83,0,0,1,2.84-7.19,26.66,26.66,0,0,1,2-3.27c.19-.26.38-.52.58-.77l.61-.74.31-.35c0,.23.07.47.11.7l.18,1.08c.06.36.13.71.19,1.07l.21,1.08c.06.35.14.71.21,1.07L33,50.63l.22,1.07c.31,1.42.62,2.84,1,4.25l.51,2.12c.18.71.36,1.41.56,2.11-.16-1.44-.32-2.89-.49-4.33S34.4,53,34.2,51.53l-.29-2.15-.28-2.15-.14-1.08c-.05-.36-.09-.72-.13-1.07s-.09-.72-.12-1.08-.08-.71-.11-1.07L33,41.51l-1.07,1-.19.18-.2.17-.18.18-.19.18c-.24.25-.48.49-.71.75-.46.51-.89,1-1.3,1.59A28,28,0,0,0,27,49c-.32.6-.61,1.21-.89,1.83s-.53,1.25-.76,1.88a35.26,35.26,0,0,0-1.16,3.88,37.51,37.51,0,0,0-1,8,11.61,11.61,0,0,1,1-.8A45.75,45.75,0,0,1,25.52,56.89Z"/><path class="cls-7" d="M24.32,84.9c-.34-.61-.72-1.22-1.12-1.8a15.71,15.71,0,0,1,4.13,1.1l.11,0h0C23.82,78.67,24.59,73,30.86,71.63c10.59-2.27,10.76,13.6,10.76,14.75a72.85,72.85,0,0,1-1,8.29l-.1.16,0,.06.35-.08a12.34,12.34,0,0,1,2,0,5.77,5.77,0,0,1,0-1.1c.06-.89.11-1.78.16-2.67.09-1.78.16-3.57.13-5.36A30.16,30.16,0,0,0,41.5,75.21c-.16-.4-.32-.79-.5-1.18a7.78,7.78,0,0,1,1.83,1.49,23.41,23.41,0,0,0-.12-7.7,11.73,11.73,0,0,1,2.1,1.93,43.54,43.54,0,0,1,1.56-5v.11a47.84,47.84,0,0,1,1,5,12.2,12.2,0,0,1,2.28-1.71,23.3,23.3,0,0,0-.9,7.65,7.58,7.58,0,0,1,2-1.3c-.22.37-.43.75-.63,1.13a30.39,30.39,0,0,0-2.78,10.21c-.21,1.78-.32,3.56-.41,5.35,0,.89-.08,1.77-.11,2.66A6,6,0,0,1,46.7,95a15.15,15.15,0,0,1,2,.23l.35.12,0,0L49,95.1a73.5,73.5,0,0,1-.16-8.35c.12-1.14,1.89-16.92,12.2-13.59,6.1,2,6.29,7.71,2.12,12.9h0a.3.3,0,0,0,.11,0,15.63,15.63,0,0,1,4.23-.67c-.46.53-.9,1.09-1.31,1.67.86-.25,1.73-.47,2.58-.77l.23-.08c1.75-2.84,3.59-6.63,3.77-10.25a12.11,12.11,0,0,0-1.79-7c1.55-18.54-8-28-9.88-28-.23,0-.3.15-.33.42-.71,6.08-4.52,18-5.13,19.86a161.3,161.3,0,0,0-18.25-.93c-.42-1.94-3-14.15-3.11-20.27,0-.27,0-.42-.28-.45-1.9-.23-12.33,8.22-12.65,26.82A12.09,12.09,0,0,0,18.9,73.2c-.19,3.62,1.26,7.57,2.72,10.57l.22.11C22.65,84.26,23.49,84.56,24.32,84.9ZM58.79,57.07c.31-1.42.64-2.84,1-4.25l.51-2.11.5-2.11L61,47.54l.24-1c.08-.35.15-.7.23-1.06l.21-1L62,43,63,44l.17.2.18.19c0,.07.11.13.17.2l.16.2q.33.39.63.81c.41.55.78,1.13,1.13,1.71A27.59,27.59,0,0,1,67.22,51c.25.63.48,1.27.7,1.91s.4,1.29.56,2a33.52,33.52,0,0,1,.77,4,37.65,37.65,0,0,1,.17,8q-.44-.47-.93-.9c-.23-.21-.47-.4-.72-.6A16.1,16.1,0,0,0,64,63.18a28.17,28.17,0,0,0-6-1.58c0-.1-.09-.19-.14-.27Q58.31,59.19,58.79,57.07Zm-34.62-.52a35.26,35.26,0,0,1,1.16-3.88c.23-.63.49-1.26.76-1.88s.57-1.23.89-1.83a28,28,0,0,1,2.17-3.44c.41-.55.84-1.08,1.3-1.59.23-.26.47-.5.71-.75l.19-.18.18-.18.2-.17.19-.18,1.07-1,.14,1.42c0,.36.07.72.11,1.07s.07.72.12,1.08.08.71.13,1.07l.14,1.08.28,2.15.29,2.15c.2,1.44.38,2.88.56,4.32s.33,2.89.49,4.33c-.06.08-.11.17-.17.26a29.74,29.74,0,0,0-6.11,1,16.54,16.54,0,0,0-4,1.78c-.27.17-.52.34-.77.52a11.61,11.61,0,0,0-1,.8A37.51,37.51,0,0,1,24.17,56.55Z"/><path class="cls-13" d="M46.82,93.87c0-.89.07-1.77.11-2.66.09-1.79.2-3.57.41-5.35a30.39,30.39,0,0,1,2.78-10.21c.2-.38.41-.76.63-1.13a7.58,7.58,0,0,0-2,1.3,23.3,23.3,0,0,1,.9-7.65,12.2,12.2,0,0,0-2.28,1.71,47.84,47.84,0,0,0-1-5v-.11a43.54,43.54,0,0,0-1.56,5,11.73,11.73,0,0,0-2.1-1.93,23.41,23.41,0,0,1,.12,7.7A7.78,7.78,0,0,0,41,74c.18.39.34.78.5,1.18a30.16,30.16,0,0,1,1.74,10.44c0,1.79,0,3.58-.13,5.36,0,.89-.1,1.78-.16,2.67a5.77,5.77,0,0,0,0,1.1c1.16,0,2.6.11,3.75.19A6,6,0,0,0,46.82,93.87Z"/><ellipse class="cls-14" cx="33.65" cy="82.22" rx="5.05" ry="6.34"/><path class="cls-15" d="M34.64,79.54a1.92,1.92,0,0,0-3.18.48,3.67,3.67,0,0,0,.37,4.19A1.91,1.91,0,0,0,35,83.73,3.67,3.67,0,0,0,34.64,79.54Zm.29,3.65a1.38,1.38,0,0,1-2.28.35,2.63,2.63,0,0,1-.27-3,1.37,1.37,0,0,1,2.28-.35A2.63,2.63,0,0,1,34.93,83.19Z"/><path class="cls-15" d="M34.66,80.18a1.37,1.37,0,0,0-2.28.35,2.63,2.63,0,0,0,.27,3,1.38,1.38,0,0,0,2.28-.35A2.63,2.63,0,0,0,34.66,80.18Zm.06,2.47a.63.63,0,0,1-1,.16,1.2,1.2,0,0,1-.12-1.38.62.62,0,0,1,1-.16A1.2,1.2,0,0,1,34.72,82.65Z"/><path class="cls-15" d="M33.56,81.43a1.2,1.2,0,0,0,.12,1.38.63.63,0,0,0,1-.16,1.2,1.2,0,0,0-.12-1.38A.62.62,0,0,0,33.56,81.43Z"/><circle class="cls-16" cx="32.44" cy="80.26" r="0.67"/><path class="cls-13" d="M36.77,69.62a5.94,5.94,0,0,0-3-3.26c-8.71-3.64-12.73,4.69-11.36,9.07C23,69.11,29.44,65.29,36.77,69.62Z"/><path class="cls-15" d="M34.1,75a6.39,6.39,0,0,1,1,0,9.38,9.38,0,0,1,1.06.18.55.55,0,0,0,.23-1.07A5.79,5.79,0,0,0,34,73.92a6,6,0,0,0-5.07,3.87.16.16,0,0,0,.28.15,6.24,6.24,0,0,1,2.95-2.42A6.61,6.61,0,0,1,34.1,75Z"/><path class="cls-15" d="M62.38,79.49A6.41,6.41,0,0,0,59.93,76a6.48,6.48,0,0,0-2.21-.9,5.78,5.78,0,0,0-2.38-.06.57.57,0,0,0-.48.6.55.55,0,0,0,.6.48,9.64,9.64,0,0,1,1.08-.06,6.4,6.4,0,0,1,1,.11,6.66,6.66,0,0,1,1.88.7,6.28,6.28,0,0,1,2.69,2.71A.16.16,0,0,0,62.38,79.49Z"/><path class="cls-17" d="M62.23,79.72a.19.19,0,0,1-.17-.11,6.8,6.8,0,0,0-4.56-3.39,5.48,5.48,0,0,0-1-.12,6.51,6.51,0,0,0-.77,0l-.31,0h0a.59.59,0,0,1-.59-.51.58.58,0,0,1,.51-.62,5.73,5.73,0,0,1,2.39.06,6.31,6.31,0,0,1,2.21.9,6.48,6.48,0,0,1,2.47,3.48.19.19,0,0,1-.11.23Zm-5.81-3.67h.12a5.59,5.59,0,0,1,1,.12,6.54,6.54,0,0,1,1.89.7,6.29,6.29,0,0,1,2.71,2.72.12.12,0,0,0,.17.07.13.13,0,0,0,.08-.17h0a6.35,6.35,0,0,0-2.45-3.44,6,6,0,0,0-2.19-.9,5.79,5.79,0,0,0-2.37-.07.55.55,0,0,0-.47.58.54.54,0,0,0,.54.46h0l.32,0C56,76.07,56.2,76.05,56.42,76.05Z"/><path class="cls-9" d="M73.93,85.89a9.09,9.09,0,0,1-2.39,1.2,3.84,3.84,0,0,0,.25-.67c.15-.54-.13-2-.25-1.85a6.07,6.07,0,0,1-2.5,1.6l-.23.08c-.85.3-1.72.52-2.58.77.41-.58.85-1.14,1.31-1.67a15.63,15.63,0,0,0-4.23.67.3.3,0,0,1-.11,0h0a10.42,10.42,0,0,0-3,1.52c.09-1,1.25-1,1-1a19.3,19.3,0,0,0-6.91,1.84,9.33,9.33,0,0,0-2.61,2.44,15.88,15.88,0,0,0-1.91,3.23,9.48,9.48,0,0,1-.68,1.2l0,0c.42.15-9-.32-8.52-.43l0-.06A8.93,8.93,0,0,1,40,93.57a16,16,0,0,0-1.57-3.41,8.92,8.92,0,0,0-2.35-2.68,19.06,19.06,0,0,0-6.5-2.74c-.22,0,.73.32.72,1.32a10.42,10.42,0,0,0-2.82-1.8h0l-.11,0a15.71,15.71,0,0,0-4.13-1.1c.4.59.78,1.19,1.12,1.8-.83-.34-1.67-.64-2.48-1l-.22-.11a6.26,6.26,0,0,1-2.33-1.84c-.1-.14-.53,1.26-.43,1.81a4.23,4.23,0,0,0,.18.7A9.23,9.23,0,0,1,16.78,83a7,7,0,0,0-.06,2.13c.3,2.29.73,5.42,3.4,5.25a7.84,7.84,0,0,1-1.82-.72c-.12-.06.71,3.66,5.38,4.84a9.74,9.74,0,0,1-2.16.29,6.83,6.83,0,0,0,3.71,1.38,16.36,16.36,0,0,0,2.71,0c2-.12,4.1-.33,5.88.63a3.35,3.35,0,0,0-2.59.21,5.19,5.19,0,0,1,3.15,1.51l0,0v0l1,1.47,0-.16.25.43-.07.06,2.07,3.15a4.18,4.18,0,0,0,.87.5,5.86,5.86,0,0,0,.69.28,4.92,4.92,0,0,0,4.6-.53,3.22,3.22,0,0,0,.66-.67,3.38,3.38,0,0,0,.59.73,4.89,4.89,0,0,0,4.52,1,5.9,5.9,0,0,0,.72-.2,4.23,4.23,0,0,0,1.46-.79,5.5,5.5,0,0,0,1.23-1.74,12.61,12.61,0,0,1,1.85-2.48,5.08,5.08,0,0,1,3.37-1.26,3.39,3.39,0,0,0-2.57-.46,7.23,7.23,0,0,1,3.54-.39c1.69.16,3.42.63,5.07.63A9.13,9.13,0,0,0,65.55,98,6,6,0,0,0,68,97.14a10,10,0,0,1-2.11-.5c4.76-.7,6-4.32,5.84-4.27a7.93,7.93,0,0,1-1.89.52A7.71,7.71,0,0,0,73.78,88,6.79,6.79,0,0,0,73.93,85.89Z"/><path class="cls-4" d="M49.71,97.1a16.14,16.14,0,0,1-2.93,2.42c-.36.19-.73.37-1.09.54l-.57.24a1.36,1.36,0,0,1-.58.18,1.54,1.54,0,0,1-.55-.23l-.54-.3c-.35-.21-.69-.42-1-.65a16.15,16.15,0,0,1-2.67-2.7,1,1,0,0,1-.17-.35,1.35,1.35,0,0,1,0-.48c-.33-.5-.63-1-.92-1.52a15,15,0,0,0-2.54-3.32,9.85,9.85,0,0,0-1.65-1.27,2.65,2.65,0,0,1,.41,1.69,10,10,0,0,0-3.71-2.58,3.78,3.78,0,0,1,.49,1.59,10.28,10.28,0,0,0-2.23-1.7,13,13,0,0,0-1.51-.7,16.8,16.8,0,0,0-2.45-.73c.71.48.74,1.18,1,1.62a22,22,0,0,1-2.53-.7c-.54-.19-1.06-.4-1.58-.63s-1.09-.48-1.6-.77c-.2-.12,1.76,3.44,3.49,4.12a13.4,13.4,0,0,1-2.59.27A9.92,9.92,0,0,0,26,93a16.63,16.63,0,0,0,2.1.16c.3,0,.6,0,.9,0-.66.18-1.89,1.31-1.7,1.3,3.11-.23,6.71-.35,9.15,2a5.73,5.73,0,0,1,1,1.25,5.2,5.2,0,0,0-2.76-.33c-.21,0,.89,1,2.93,4.91.55,1.06,2.62,1.48,3.8,1.36a3.64,3.64,0,0,0,2.81-1.81,3.3,3.3,0,0,0,.26-.57l0,0,0,0a3.84,3.84,0,0,0,.2.6,3.66,3.66,0,0,0,2.61,2.08c1.17.24,3.27,0,3.92-1,2.44-3.72,3.62-4.54,3.41-4.59a5,5,0,0,0-2.77.06A5.59,5.59,0,0,1,53,97.25c2.66-2,6.22-1.55,9.29-1,.2,0-.91-1.22-1.55-1.46a8.67,8.67,0,0,1,.89.06,16.48,16.48,0,0,0,2.11,0,10,10,0,0,0,4.53-1.39A13.29,13.29,0,0,1,65.74,93c1.79-.5,4.09-3.85,3.88-3.75a16.5,16.5,0,0,1-1.66.61c-.54.18-1.09.33-1.64.46a22.61,22.61,0,0,1-2.59.45c.31-.41.4-1.1,1.16-1.51a17.29,17.29,0,0,0-2.51.47,14,14,0,0,0-1.58.55,10.05,10.05,0,0,0-2.38,1.47,3.47,3.47,0,0,1,.65-1.53,9.65,9.65,0,0,0-4,2.18,2.62,2.62,0,0,1,.58-1.63,9.45,9.45,0,0,0-1.77,1.09,15.34,15.34,0,0,0-2.87,3c-.33.47-.68,1-1.06,1.42a1.45,1.45,0,0,1-.08.47A1,1,0,0,1,49.71,97.1Z"/><path class="cls-15" d="M43.45,100l.54.3a1.54,1.54,0,0,0,.55.23,1.36,1.36,0,0,0,.58-.18l.57-.24c.36-.17.73-.35,1.09-.54a16.14,16.14,0,0,0,2.93-2.42v0c.42-.46.05-1.22-1.26-.82a4.19,4.19,0,0,0-2,1.33,6.17,6.17,0,0,0-.65,1,1.54,1.54,0,0,1-.8.77.93.93,0,0,1-.41.07,1,1,0,0,1-.41-.11,1.58,1.58,0,0,1-.71-.84,8,8,0,0,0-.54-1,4.19,4.19,0,0,0-1.87-1.52c-1.26-.53-1.7.19-1.33.68v0a16.15,16.15,0,0,0,2.67,2.7C42.76,99.53,43.1,99.74,43.45,100Z"/><path class="cls-18" d="M46.7,95c-1.15-.08-2.59-.15-3.75-.19a12.34,12.34,0,0,0-2,0l-.35.08c-.44.11-1,.29-1,.88a1.35,1.35,0,0,0,0,.48,1,1,0,0,0,.17.35v0c-.37-.49.07-1.21,1.33-.68a4.19,4.19,0,0,1,1.87,1.52,8,8,0,0,1,.54,1,1.58,1.58,0,0,0,.71.84,1,1,0,0,0,.41.11.93.93,0,0,0,.41-.07,1.54,1.54,0,0,0,.8-.77,6.17,6.17,0,0,1,.65-1,4.19,4.19,0,0,1,2-1.33c1.31-.4,1.68.36,1.26.82v0a1,1,0,0,0,.2-.33A1.45,1.45,0,0,0,50,96.3c0-.59-.49-.83-.91-1l-.35-.12A15.15,15.15,0,0,0,46.7,95Zm-1.93,1.14c-1.51-.07-2.72-.34-2.71-.59s1.25-.4,2.75-.32,2.72.34,2.7.59S46.27,96.19,44.77,96.11Z"/><path class="cls-19" d="M44.81,95.2c-1.5-.08-2.73.06-2.75.32s1.2.52,2.71.59,2.73-.07,2.74-.32S46.32,95.27,44.81,95.2Z"/><path class="cls-7" d="M149.63,204.57l0,.07a5.3,5.3,0,0,0-.88,2.39,3.45,3.45,0,0,0,.72,2.3,2.5,2.5,0,0,0,.23.23,3.48,3.48,0,0,1-.26-1.1,4.57,4.57,0,0,1,.62-2.71,4,4,0,0,1,3.32-1.69,2.75,2.75,0,0,0-2.2,1.89,2.92,2.92,0,0,0,2.07,3.29,4.12,4.12,0,0,0,4.23-1.81c1.16-1.59,1.37-3.68,1.61-5.57l.09-.76v0l.09-.76h0c.05-.52.1-1,.14-1.55h0a4,4,0,0,0-4.57,1.47,8.28,8.28,0,0,1-1.08,2.15l-.93.27c-.31.09-.61.2-.91.32h0l-.11,0a8,8,0,0,0-1.27.72A3.23,3.23,0,0,0,149.63,204.57Z"/><path class="cls-13" d="M69.08,77.8c1.81-4.23-1.35-12.92-10.39-10.18a6,6,0,0,0-3.3,2.95C63.12,67,69.11,71.44,69.08,77.8Z"/></svg>