<svg id="Layer_1" data-name="Layer 1" xmlns="http://www.w3.org/2000/svg" viewBox="0 0 256 256"><defs><style>.cls-1{fill:#eabb26;stroke:#c69406;}.cls-1,.cls-2{stroke-miterlimit:10;}.cls-2,.cls-3{fill:#ff50c5;}.cls-2{stroke:#ed32b8;}.cls-4{fill:#e51cac;}.cls-5{fill:#bdebf9;}.cls-6{fill:#f266de;}.cls-7{fill:#b2088a;}.cls-8{fill:#fff;}</style></defs><path class="cls-1" d="M108.27,138a32.51,32.51,0,0,0,10.43,18.32s-2.19,2.88-1.71,8.42c.66,7.72,10,11.3,12.44,22.81a39.28,39.28,0,0,1-2.49,23.25c-8.33,18.72-35.86,14.75-42.53,15.53a30,30,0,0,0-6.54,1.35c-2.92,1.09-4.15,2.71-1.44,5.06s10.82,1.53,10.82,1.53a18,18,0,0,1-5.89,2.09c-3.4.57-18.1,1.84-16.14-8.5,3-15.75,45.93-8.07,45.58-29.31V198c-.79-14.74-17-18.63-19-30.45-1.31-7.94,1-10.81,1-10.81"/><path class="cls-2" d="M211.21,107.9c-9.29,0-16.23,7.37-24.12,12.3-10,6.24-17.84,11.26-27.92,5.5,0,0-.08,0-.13-.09,1.66-.56,3.75-1.57,7.94-6,3.49-3.7,10.21-19.41,10.34-19.41v.09c1.05,7.46.09,8.51.09,8.51s-2.49-1-5.5,5.49-1,10,2.66,9.07c1.22-.3,2.92-1.74,4.67-3.79a46.14,46.14,0,0,0,6.67-10.77h0a25,25,0,0,0,1.62-5c1.74-9,3.66-20-6.46-21.68S166,95,161.7,102.36c-5.14,9-9.29,7.77-9.29,7.77s-3.84.39-6.28-2.23c-9.94-10.64,12.35-37.42,10.25-60.54-1.18-13.17-16.75-27.65-38.21-28.18,0,0-27.48-.39-37.34,15.53s-4,30.27,1,45.23,6.85,29.1,2.84,33.28c-8.29,8.82-39.08,11.56-39.87-14C44.37,87.1,64.43,78.59,59.55,60.8c-1.83-6.63-5.76-12.39-18-11.91C30.41,49.32,26.66,58.53,25.7,67,25,73,28,77.63,30,70.43c2.75-10,6.59-11.77,9.3-12.12h.17c3.75-.22,15.88,6.28-.74,20.46-12.17,10.33-12.35,28.17-6.85,41s27,17.8,27,17.8c9.29,2.27,26.47-.35,26.47-.35h0a32.5,32.5,0,0,1-12.82,9.42c-16.31,6.41-35,16.58-39.08,36.73a26.31,26.31,0,0,0,9.85,25.73,21.43,21.43,0,0,0,25.83.57c.39-.26.78-.57,1.13-.83A17.65,17.65,0,0,0,77,192.13c-2.09-13-15.18-16.84-13.3-16.09s10.42,17.4-1.92,23.64c-.88.43-7.55,4.14-14.09-2.84a10.76,10.76,0,0,1-2.14-3.27h0c-4.49-10.29,4.75-26.91,33.5-32.28,22.33-4.14,27.52-16.88,27.74-17.58-.09.44,1.48.44,5.89,6.29,13.08,17.44,35.68,26.17,64.9,31.75,8.95,1.7,16.88,5.67,22.6,19.67.22.57.43,1.09.61,1.62h0s0,.08,0,.17c4.5,14.18-8.76,21.29-21.33,14.48-10.81-5.89-2.48-26.69-4.93-23.86h0c-.17.26-9.77,12.78-7.41,22.51,1.92,7.76,13.48,15.53,22.59,15.13s18.63-5.1,21.46-13c7-19.54-6.67-38-15-44.1-7.2-5.27-14.61-7-31.89-12.3-22.33-6.84-30.62-23.59-32.58-28.39-.3-.79-.48-1.27-.48-1.31.44.26,40.61,22,59.58,3.4,10.78-10.6,28.23-23.51,30-8.72,1.05,8.72-5.06,15.18-11.21,15.7a8.54,8.54,0,0,1-3.4-.35,5.68,5.68,0,0,1-1.13-.52h0l-.53-.39s0,0,0,0c-2.31-2.13-.31-6,.35-6.58,4.54-4.37,10.12-4.58,2.66-4.15-15.75.83-15.31,23.73,6.28,19.28,12.91-2.66,16.62-11,16.53-23.25S218.54,107.9,211.21,107.9Z"/><path class="cls-1" d="M185.91,108.82h0a43.25,43.25,0,0,1-6.67,10.77c-1.75,2-3.45,3.49-4.67,3.8-3.62,1-5.71-2.66-2.66-9.07s5.5-5.5,5.5-5.5,1-1.09-.09-8.51a.35.35,0,0,0,.09-.17c3.79-6.06,6.06-7.5,6.06-7.5s3.66-2,4,3.79A42.28,42.28,0,0,1,185.91,108.82Z"/><path class="cls-3" d="M179.24,119.59c-1.75,2-3.45,3.49-4.67,3.8-3.62,1-5.71-2.66-2.66-9.07s5.5-5.5,5.5-5.5C182.29,109.82,181.16,114.93,179.24,119.59Z"/><path class="cls-1" d="M200.48,220.26c-4.54,6.46-9.6,10-21.5,5.68-9.08-3.28-13.66-15.62-4.37-32.11h0c2.49-2.83-5.88,18,4.93,23.86,12.57,6.81,25.83-.3,21.33-14.48h0C201.4,204.61,204.67,214.29,200.48,220.26Z"/><path class="cls-2" d="M101.51,219.79c-12.78,7.67-19.11,5.05-23.6,8-2.92,1.09-4.14,2.7-1.44,5.06s10.82,1.52,10.82,1.52a18.13,18.13,0,0,1-5.89,2.1c-3.4.56-18.1,1.83-16.14-8.51,3-15.74,45.93-8.07,45.58-29.31C110.84,198.59,114.29,212.11,101.51,219.79Z"/><path class="cls-1" d="M70.19,208.88c-15.09,4.89-23.38-9.29-24.6-15.31a11.78,11.78,0,0,0,2.14,3.27c6.54,7,13.21,3.27,14.09,2.84,12.34-6.24,3.79-22.9,1.92-23.64s11.21,3,13.3,16.09A17.76,17.76,0,0,1,70.19,208.88Z"/><path class="cls-1" d="M91.83,123.56c-.44,1.18-.79,2.4-1.27,3.58a74.68,74.68,0,0,1-3.27,7.37,9,9,0,0,1-2.05,2.92s-17.19,2.62-26.48.35c0,0-21.46-4.93-26.95-17.79s-5.32-30.71,6.84-41c16.62-14.13,4.5-20.67.75-20.46,2.31-.21,4.75-.35,6.89.88A7.19,7.19,0,0,1,49.6,64.5c.83,4.71-1.61,9-4.4,12.57-1.57,2-14.44,10.55-12.61,27.69,1.35,12.56,3.71,17.71,14.79,22.95,9.42,4.45,26.17,3.53,31.32,1.92A30.68,30.68,0,0,0,91,122.69c.22-.22.66-.87,1-.48S92,123.26,91.83,123.56Z"/><path class="cls-1" d="M210.16,144.06a8.33,8.33,0,0,1-5-2.22,3.81,3.81,0,0,0,1.13.52,7.87,7.87,0,0,0,3.4.35c6.15-.48,12.26-7,11.21-15.7-1.78-14.79-19.19-1.88-30,8.72-19,18.63-59.1-3.14-59.58-3.4a28.93,28.93,0,0,1-.65-8.81c.39-4.84,22.68,14.83,38.16,13.13,17.36-1.88,36.16-19.11,41.66-19.67,6.89-.7,14.83-.44,13.56,12.12C222.77,141.84,212.91,144.37,210.16,144.06Z"/><path class="cls-4" d="M159.22,125.7c.17.13-13.44-11.08-14.92-20.81.52.83.35,1.66,2,3.1-.48-1.4,4.05,10.86,13.3,17.4C159.52,125.35,159.3,125.57,159.22,125.7Z"/><path class="cls-5" d="M173,86.7s5.28-5.27,10.73-1.87c7.33,4.54-.09,2.44-2.53,1.18C179.37,85,173.83,86.36,173,86.7Z"/><path class="cls-5" d="M197.34,115s6.67-3.27,13.09-3.62c6.15-.35,12.08,3,11.55,2.4-1-1-6.8-4.23-12-4.05C204.19,110.39,197.34,115,197.34,115Z"/><path class="cls-5" d="M150.84,158.72s-12-7.46-16.53-14.44-7.2-17.49-7.24-16.4c-.48,12.17.92,12.78,5.28,18.84A43.39,43.39,0,0,0,150.84,158.72Z"/><path class="cls-5" d="M185.39,172.11s10.16,7.07,14.39,11.47,6.15,6.76,5.8,6.06c-3.88-8.33-6.06-8.72-9.94-12.43C188.4,171.5,185.39,172.11,185.39,172.11Z"/><path class="cls-5" d="M76.21,220.4s-5.71,1-7.85,3.92a7.56,7.56,0,0,0-1.27,6.06s-.39-2,3.28-5.75S76.21,220.4,76.21,220.4Z"/><path class="cls-5" d="M85.33,141.18s-3.27,4.15-26.22,14.88c-23.42,11-20.89,24.47-20.89,24.47s1.39-7.59,11.12-16,23.29-11.91,29.49-16.27S85.33,141.18,85.33,141.18Z"/><path class="cls-5" d="M45.24,110.3s8.25,16.62,32,10.12c22.81-6.24-3.84,8.86-20.2,2.92C47.42,119.85,45.24,110.3,45.24,110.3Z"/><path class="cls-5" d="M42.32,51.07s11.43.52,14.7,8.55c2.22,5.45-.09,9-.39,9.38C56.63,69,58.94,57.7,42.32,51.07Z"/><path class="cls-4" d="M94.44,27.34s4.76,2.49-2.18,5.41S88.07,26.77,94.44,27.34Z"/><path class="cls-4" d="M102.51,30.44s2.71,2-2.92,3.44S98.19,29.56,102.51,30.44Z"/><path class="cls-4" d="M164.76,112.83s3.22.87-1.09,4.06S160.57,113.53,164.76,112.83Z"/><path class="cls-4" d="M120.92,131.28s3.1-2.7,3.36,5.15S118.74,136.56,120.92,131.28Z"/><path class="cls-4" d="M209.81,210.32s3.23-1,1.18,4S206.63,213.11,209.81,210.32Z"/><path class="cls-4" d="M97.5,214.33s2,1.49-3.23,2.66S93.88,213.77,97.5,214.33Z"/><path class="cls-4" d="M85.11,218.39s1.87,1.7-2.49,2.35S81.92,217.43,85.11,218.39Z"/><path class="cls-4" d="M92.52,218.69s.92.57-1.61,1.27S90.82,218.56,92.52,218.69Z"/><path class="cls-4" d="M85.33,34.93s2.44.22-.74,3.49S82.23,36.15,85.33,34.93Z"/><path class="cls-4" d="M140.59,91.76s-5.54,1.79-2.57-5.62S145.87,87.4,140.59,91.76Z"/><path class="cls-4" d="M145.78,76.28s-2.31.87-1.09-2.79S148,74.14,145.78,76.28Z"/><path class="cls-4" d="M29.8,63.5s-2.31.87-1.09-2.79S32,61.36,29.8,63.5Z"/><path class="cls-4" d="M27.62,66.47s-1.18.56-.57-1.84S28.71,65.07,27.62,66.47Z"/><path class="cls-4" d="M137.89,117.5s-1.09,1.61-2-1.27S138.32,115.1,137.89,117.5Z"/><path class="cls-4" d="M205.85,218.91s-1.84.7-.88-2.18S207.55,217.21,205.85,218.91Z"/><path class="cls-4" d="M210.9,206.13s-1.3,1.44-1.83-2.27S211.65,203.56,210.9,206.13Z"/><path class="cls-4" d="M98.37,137.22s-1.79.69-.87-2.19S100.07,135.47,98.37,137.22Z"/><path class="cls-4" d="M96.58,127.4s-1.79.7-.87-2.18S98.28,125.7,96.58,127.4Z"/><path class="cls-4" d="M140.85,80.07s-1.65.57-.78-1.87S142.42,78.64,140.85,80.07Z"/><path class="cls-4" d="M150.1,65.2s-1.83.7-.87-2.22S151.85,63.5,150.1,65.2Z"/><path class="cls-4" d="M148.14,119.07s-.61,2.83-2.84,0S147.66,115.8,148.14,119.07Z"/><path class="cls-4" d="M160.09,167.75s.26,3-3.8.3S158.17,164.43,160.09,167.75Z"/><path class="cls-4" d="M171.87,168.23s.87,3.14-4,1S169.21,165.09,171.87,168.23Z"/><path class="cls-4" d="M122.36,144.46s-1.66,2.35-2.57-1.18S123.23,141.27,122.36,144.46Z"/><path class="cls-4" d="M151.54,125.7s-.52,1.88-2.31-.61S151.19,123.3,151.54,125.7Z"/><path class="cls-4" d="M128.42,148.08s-1,1.7-2.09-1.14S128.68,145.68,128.42,148.08Z"/><path class="cls-4" d="M39.44,111.61s-1.26,1.48-1.83-1.48S40.09,109.3,39.44,111.61Z"/><path class="cls-4" d="M229,131s-1.57,1.14-1.44-1.87S230.18,128.93,229,131Z"/><path class="cls-4" d="M143.08,113.7s-2.49,3.41-3.93-2.35S144.26,108.86,143.08,113.7Z"/><path class="cls-4" d="M93.18,139.18s-5,1.57-2.31-5S97.93,135.25,93.18,139.18Z"/><path class="cls-4" d="M38.7,97.17s-4,1.31-1.83-4.18S42.49,93.9,38.7,97.17Z"/><path class="cls-4" d="M90.3,149s-4.14.48-1-4.5S94.66,146.64,90.3,149Z"/><path class="cls-4" d="M39.22,196.84s-2.53,3.36-3.92-2.35S40.44,192,39.22,196.84Z"/><path class="cls-4" d="M43.85,203s-1.14,1.75-2.27-1.61S44.15,200.29,43.85,203Z"/><path class="cls-4" d="M134.79,110.3s-1.79,2.58-2.92-1.57S135.62,106.73,134.79,110.3Z"/><path class="cls-4" d="M36.34,104.33s-2.53,1.7-2.13-2.27S38.35,101.45,36.34,104.33Z"/><path class="cls-4" d="M227.83,125.44s-2.53,1.7-2.09-2.27S229.84,122.52,227.83,125.44Z"/><path class="cls-4" d="M138.76,103.93s-4.32,2.4-3-4.84C137.06,92.38,144.21,99.75,138.76,103.93Z"/><path class="cls-4" d="M92.13,35.1s3.75,1.31-1.39,4.45S87.29,35.5,92.13,35.1Z"/><path class="cls-4" d="M113.37,29s1.92,1.87-3.27,2.4S109.8,27.86,113.37,29Z"/><path class="cls-4" d="M98.33,36.63s1.26.74-1.27,1.66S96.36,36.46,98.33,36.63Z"/><path class="cls-4" d="M82.23,44s1.44-.26.13,2S80.66,45.09,82.23,44Z"/><path class="cls-4" d="M117.82,26.82s.88,1.13-1.79,1S116.08,25.94,117.82,26.82Z"/><path class="cls-4" d="M116.17,22.72s.69.74-1.53.78S114.77,22.24,116.17,22.72Z"/><path class="cls-4" d="M106.48,32.75s.79.61-1.35,1S105,32.49,106.48,32.75Z"/><path class="cls-4" d="M168.46,105.37s1,0-.56,1.66S167.07,106,168.46,105.37Z"/><path class="cls-4" d="M169.25,109s1.83.22-.22,2.18S167.07,109.65,169.25,109Z"/><path class="cls-4" d="M175.14,172s.56,1.74-2,.74S173.61,170.28,175.14,172Z"/><path class="cls-4" d="M100.72,26.82s1.44.83-2,2S98.28,26.73,100.72,26.82Z"/><path class="cls-4" d="M111,23s4.54,4.62-3.66,5.19S104.3,19.84,111,23Z"/><path class="cls-6" d="M103.82,156.41c1.09.65.92,7.15-5.15,5.23C93.09,159.9,99,150.26,103.82,156.41Z"/><path class="cls-7" d="M100.72,155.71c2.23,0,3.62,5,0,5C96.19,160.73,97.41,155.67,100.72,155.71Z"/><path class="cls-6" d="M114.77,154.1c1.09.65.92,7.15-5.06,5.23C104.21,157.58,110,148,114.77,154.1Z"/><path class="cls-7" d="M111.72,153.35c2.18,0,3.57,5,0,5C107.27,158.41,108.44,153.35,111.72,153.35Z"/><path class="cls-6" d="M102.43,167.44c.48,1.05-3.15,6-6.85,1.4C92.22,164.56,102.08,160.16,102.43,167.44Z"/><path class="cls-7" d="M100.46,165.26c1.75,1.14.13,5.76-2.75,3.84C94.23,166.79,97.89,163.52,100.46,165.26Z"/><path class="cls-6" d="M104.91,178.7c-.78.87-6.8-.48-3.92-5.76C103.6,168.1,111.5,175.42,104.91,178.7Z"/><path class="cls-7" d="M106.13,176c-.35,2-5.27,2.44-4.62-1C102.25,170.85,106.74,172.94,106.13,176Z"/><path class="cls-6" d="M113.59,181.62c.48,1-3.1,6-6.72,1.39C103.56,178.7,113.2,174.33,113.59,181.62Z"/><path class="cls-7" d="M111.63,179.44c1.7,1.13.13,5.76-2.71,3.84C105.48,181,109.1,177.69,111.63,179.44Z"/><path class="cls-6" d="M118,188.21c.48,1-3.1,6-6.72,1.39C108,185.33,117.65,181,118,188.21Z"/><path class="cls-7" d="M116.08,186.07c1.7,1.13.13,5.76-2.71,3.84C109.93,187.59,113.55,184.32,116.08,186.07Z"/><path class="cls-6" d="M118.3,197c-.22.92-5.36,2.36-5.54-2.4C112.59,190.21,121.84,192.13,118.3,197Z"/><path class="cls-7" d="M118,194.62c.65,1.57-2.93,3.75-4,1.13C112.81,192.61,117.12,192.26,118,194.62Z"/><path class="cls-6" d="M114.16,163.56c.87.79-.44,6.76-5.58,3.93C103.82,164.87,110.93,157.06,114.16,163.56Z"/><path class="cls-7" d="M111.5,162.34c2,.35,2.4,5.23-1,4.58C106.48,166.18,108.49,161.73,111.5,162.34Z"/><path class="cls-6" d="M116.86,171.06c.79.74-.39,6.46-5.19,3.75C107.31,172.33,113.85,164.83,116.86,171.06Z"/><path class="cls-7" d="M114.42,169.93c1.83.35,2.23,5-.87,4.4C109.8,173.59,111.63,169.32,114.42,169.93Z"/><path class="cls-6" d="M122.45,177.48c.87.78-.44,6.76-5.59,3.92C112.11,178.78,119.17,170.93,122.45,177.48Z"/><path class="cls-7" d="M119.79,176.25c2,.35,2.39,5.24-1,4.58C114.77,180.09,116.78,175.64,119.79,176.25Z"/><path class="cls-6" d="M126.94,184.67c.87.79-.44,6.76-5.58,3.93C116.6,186,123.71,178.13,126.94,184.67Z"/><path class="cls-7" d="M124.32,183.45c2,.35,2.4,5.24-1,4.58C119.31,187.29,121.31,182.84,124.32,183.45Z"/><path class="cls-6" d="M128.6,193c.78.7-.4,6-4.93,3.45C119.48,194.09,125.72,187.2,128.6,193Z"/><path class="cls-7" d="M126.24,191.87c1.79.3,2.14,4.58-.83,4.06C121.84,195.27,123.58,191.35,126.24,191.87Z"/><path class="cls-6" d="M128.16,200.81c.79.74-.39,6.24-5.19,3.62C118.61,202,125.19,194.79,128.16,200.81Z"/><path class="cls-7" d="M125.72,199.72c1.83.31,2.22,4.8-.87,4.23C121.09,203.25,122.93,199.11,125.72,199.72Z"/><path class="cls-6" d="M118.91,201c.74.65-.39,5.8-4.79,3.36C110,202.21,116.12,195.45,118.91,201Z"/><path class="cls-7" d="M116.6,200c1.75.3,2.05,4.49-.83,3.92C112.33,203.3,114,199.5,116.6,200Z"/><path class="cls-6" d="M173.26,215.25c-.17.65-2.92.57-2.53-3C171,209,175.49,212.41,173.26,215.25Z"/><path class="cls-7" d="M173.35,213.46c.17,1.31-1.83,2.18-2.09,0C170.91,210.8,173.13,211.5,173.35,213.46Z"/><path class="cls-6" d="M195.59,223.84c-.65.31-2.57-1.92.57-4.32C199,217.34,199.48,223.54,195.59,223.84Z"/><path class="cls-7" d="M197.08,222.53c-.92,1.09-3,.13-1.49-1.7C197.47,218.61,198.52,220.92,197.08,222.53Z"/><path class="cls-6" d="M178.06,220.53c.13.83-3.58,2.66-5.15-1.57C171.52,215.12,179.41,215.82,178.06,220.53Z"/><path class="cls-7" d="M177.14,218.48c1,1.31-1.17,3.66-2.79,1.44C172.39,217.21,175.75,216.43,177.14,218.48Z"/><path class="cls-6" d="M179.06,221.84c-.3-.83,3.45-3.28,5.94.69C187.31,226.2,178.45,226.76,179.06,221.84Z"/><path class="cls-7" d="M180.46,223.75c-1.31-1.17.61-3.88,2.83-1.91C186,224.19,182.42,225.54,180.46,223.75Z"/><path class="cls-6" d="M193,223.06c.66.52-1.05,4.71-5,3.05C184.38,224.5,191,218.65,193,223.06Z"/><path class="cls-7" d="M190.93,222.36c1.61.13,1.44,3.49-1.27,3.27C186.43,225.28,188.53,222.05,190.93,222.36Z"/><path class="cls-6" d="M125.46,208.66c.52.87-1.66,6-5.19,2.62C117,208.14,124.1,202.25,125.46,208.66Z"/><path class="cls-7" d="M123.58,207.14c1.53.65.92,5.1-1.66,4C118.87,209.75,121.31,206.09,123.58,207.14Z"/><path class="cls-6" d="M117.08,208.23c.31.74-2.09,4.58-4.36,1.44C110.63,206.79,117,203,117.08,208.23Z"/><path class="cls-7" d="M115.82,206.79c1.09.69,0,4.18-1.84,3C111.8,208.31,114.25,205.65,115.82,206.79Z"/><path class="cls-6" d="M119.13,217.39c-.43.78-4.67,1.74-3.31-2.49C117,211.06,123.23,213.33,119.13,217.39Z"/><path class="cls-7" d="M119.65,215.29c0,1.4-3.27,3.14-3.27.74C116.43,213.2,119.74,213.16,119.65,215.29Z"/><path class="cls-6" d="M84.19,136.08c-.61.83-6.58.7-4.66-4.06C81.31,127.71,90,132.37,84.19,136.08Z"/><path class="cls-7" d="M84.93,133.68c0,1.7-4.66,2.79-4.58-.09C80.49,130.11,85.07,131.11,84.93,133.68Z"/><path class="cls-6" d="M75.69,137.48c-.53.74-5.8.61-4.1-3.58C73.11,130.11,80.79,134.21,75.69,137.48Z"/><path class="cls-7" d="M76.34,135.38c0,1.53-4.1,2.49-4-.08C72.37,132.24,76.43,133.11,76.34,135.38Z"/><path class="cls-6" d="M67.62,137.48c-.57.69-6.07.56-4.32-3.41C65,130.45,72.94,134.38,67.62,137.48Z"/><path class="cls-7" d="M68.32,135.47c0,1.44-4.28,2.36-4.24-.09C64.17,132.46,68.45,133.29,68.32,135.47Z"/><path class="cls-6" d="M58.41,136.87c-.82.3-5.45-2-2.09-4.23C59.42,130.59,64.43,136.69,58.41,136.87Z"/><path class="cls-7" d="M59.94,135.64c-.7,1.05-4.75,0-3.58-1.74C57.8,131.81,61.07,134.07,59.94,135.64Z"/><path class="cls-6" d="M49.21,133.46c-.78-.39-1.61-4,2.44-2.7C55.4,132,53.09,137.13,49.21,133.46Z"/><path class="cls-7" d="M51.26,134c-1.35-.09-3-2.93-.7-2.79C53.35,131.41,53.31,134.16,51.26,134Z"/><path class="cls-6" d="M40.79,125.18c.57.65,0,4.31-3.27,1.61C34.47,124.26,38.52,120.38,40.79,125.18Z"/><path class="cls-7" d="M39.09,124c1.27.57,1.7,3.84-.39,2.84C36.17,125.57,37.22,123,39.09,124Z"/><path class="cls-6" d="M46.38,128.75c.74.44,1.7,4-2.19,2.4C40.62,129.71,42.54,125,46.38,128.75Z"/><path class="cls-7" d="M44.41,128.1c1.31.17,3,3,.79,2.7C42.58,130.41,42.45,127.75,44.41,128.1Z"/><path class="cls-6" d="M32.42,120.12c-.44-.66.17-3.93,2.88-1.09C37.74,121.6,34.12,124.74,32.42,120.12Z"/><path class="cls-7" d="M33.81,121.43c-1-.66-1.26-3.67.48-2.53C36.39,120.25,35.34,122.47,33.81,121.43Z"/><path class="cls-6" d="M31.07,112c.26-.52,3.22.53,2.44,3.67C32.77,118.59,28.32,113.79,31.07,112Z"/><path class="cls-7" d="M30.76,113.66c0-1.26,2.22-1.31,2.27.79C33.12,117,30.8,115.54,30.76,113.66Z"/><path class="cls-6" d="M132.57,130.89c.21,1,5.67,3.05,5.71-1.88C138.32,124.43,128.73,125.39,132.57,130.89Z"/><path class="cls-7" d="M132.78,128.49c-.61,1.57,3.14,4.28,4.15,1.66C138.19,126.92,133.66,126.09,132.78,128.49Z"/><path class="cls-6" d="M140.5,135c.22.87,5,2.7,5.06-1.66C145.61,129.28,137.15,130.11,140.5,135Z"/><path class="cls-7" d="M140.72,132.81c-.56,1.35,2.75,3.75,3.67,1.44C145.48,131.46,141.46,130.72,140.72,132.81Z"/><path class="cls-6" d="M148.18,138c.26.87,5.24,2.79,5.15-1.44C153.24,132.64,144.56,133.2,148.18,138Z"/><path class="cls-7" d="M148.31,135.91c-.52,1.31,3,3.7,3.84,1.52C153.2,134.77,149.05,133.9,148.31,135.91Z"/><path class="cls-6" d="M157.52,141.05c.61.57,5.67.22,3.49-3.05C159,135,152.15,138.65,157.52,141.05Z"/><path class="cls-7" d="M156.6,139.4c.22,1.22,4.32,1.78,3.88-.22C160,136.74,156.16,137.56,156.6,139.4Z"/><path class="cls-6" d="M167.5,141.27c.88-.09,3-3-1.22-3.36C162.49,137.61,162.62,143.06,167.5,141.27Z"/><path class="cls-7" d="M165.45,141c1.27.43,3.8-1.53,1.66-2.27C164.54,137.83,163.54,140.36,165.45,141Z"/><path class="cls-6" d="M181.9,139c.83-.26,2.4-4-1.83-3.45C176.14,136,177.36,142,181.9,139Z"/><path class="cls-7" d="M179.8,139.05c1.36.22,3.54-2.49,1.23-2.84C178.28,135.78,177.75,138.79,179.8,139.05Z"/><path class="cls-6" d="M191.15,129.32c-.7.35-1.53,3.53,2.22,2.44C196.82,130.72,194.77,126.18,191.15,129.32Z"/><path class="cls-7" d="M193,128.88c-1.26.05-2.79,2.53-.65,2.45C194.9,131.24,194.94,128.75,193,128.88Z"/><path class="cls-6" d="M171.87,138.44c-.83.21-2.4,3.7,1.74,3.36C177.45,141.45,176.36,135.69,171.87,138.44Z"/><path class="cls-7" d="M173.92,138.39c-1.31-.26-3.49,2.27-1.23,2.66C175.36,141.58,175.92,138.74,173.92,138.39Z"/><path class="cls-6" d="M184.6,133.73c-.83.52-1.79,4.14,2.66,2.26C191.36,134.21,188.83,129.58,184.6,133.73Z"/><path class="cls-7" d="M186.83,132.9c-1.49.26-3.27,3.27-.74,2.79C189.14,135.08,189.1,132.42,186.83,132.9Z"/><path class="cls-6" d="M199.61,126.79c.61-.39,1.22-3.27-2.05-1.88C194.55,126.22,196.51,130,199.61,126.79Z"/><path class="cls-7" d="M198,127.4c1.09-.17,2.36-2.57.52-2.22C196.21,125.57,196.29,127.71,198,127.4Z"/><path class="cls-6" d="M204.32,121.82c0-.44-2.49-.53-2.84,1.83C201.13,125.79,205.71,123.82,204.32,121.82Z"/><path class="cls-7" d="M204,123c.4-.83-1.17-1.53-1.83-.09C201.35,124.61,203.45,124.26,204,123Z"/><path class="cls-6" d="M209.55,119.24c0-.43-2.27-1-3.14,1.18C205.58,122.43,210.51,121.47,209.55,119.24Z"/><path class="cls-7" d="M209,120.33c.56-.74-.83-1.74-1.79-.52C206.06,121.34,208.2,121.43,209,120.33Z"/><path class="cls-6" d="M215,118.07c.13-.4-2-1.53-3.31.48C210.43,120.38,215.44,120.47,215,118.07Z"/><path class="cls-7" d="M214.22,119c.7-.61-.44-1.88-1.66-.88C211.17,119.38,213.17,119.94,214.22,119Z"/><path class="cls-6" d="M29.5,107.55c-.09-.61,1.35-2.79,2.35.09C32.72,110.35,29.23,111.44,29.5,107.55Z"/><path class="cls-7" d="M30.06,109c-.52-.83.26-3,1.14-1.7C32.2,108.91,30.8,110.17,30.06,109Z"/><path class="cls-6" d="M31.89,98.05c0,.65-1.92,2.48-2.26-.57C29.23,94.64,32.9,94.25,31.89,98.05Z"/><path class="cls-7" d="M31.63,96.56c.35.87-.87,3-1.44,1.44C29.5,96.17,31.11,95.17,31.63,96.56Z"/><path class="cls-6" d="M29.28,102.1c-.09-.65,1.52-2.75,2.35.22C32.37,105.07,28.8,106,29.28,102.1Z"/><path class="cls-7" d="M29.76,103.5c-.48-.83.43-3.06,1.22-1.66C31.89,103.59,30.45,104.81,29.76,103.5Z"/><path class="cls-6" d="M32.59,90.37c.39-.13,1.53,1.74-.39,3S30.24,90.06,32.59,90.37Z"/><path class="cls-7" d="M31.68,91.11c.56-.7,1.83.31.87,1.44C31.41,93.9,30.8,92.07,31.68,91.11Z"/><path class="cls-6" d="M35,85.44c.39-.13,1.53,1.74-.39,3S32.64,85.13,35,85.44Z"/><path class="cls-7" d="M34.07,86.18c.57-.7,1.84.31.88,1.44C33.81,89,33.2,87.18,34.07,86.18Z"/><path class="cls-6" d="M38.13,81.43c.35-.05.79,2-1.13,2.7C35.25,84.79,36.3,80.6,38.13,81.43Z"/><path class="cls-7" d="M37.17,81.91c.66-.48,1.4.74.35,1.52C36.21,84.39,36.21,82.6,37.17,81.91Z"/><path class="cls-6" d="M41.49,78.5c.35,0,.65,1.79-1.22,2.23S39.75,77.59,41.49,78.5Z"/><path class="cls-7" d="M40.57,78.81c.66-.35,1.36.78.27,1.4C39.48,80.86,39.57,79.29,40.57,78.81Z"/><path class="cls-6" d="M115.51,218.78c.44.31-1.05,3.49-3.75,2.58C109.23,220.53,114.33,215.82,115.51,218.78Z"/><path class="cls-7" d="M114.07,218.48c1.14,0,.83,2.4-1.09,2.44C110.67,220.92,112.37,218.43,114.07,218.48Z"/><path class="cls-6" d="M110.1,217c.39.44-1.48,3.75-4.19,2.27C103.47,218,109.27,213.46,110.1,217Z"/><path class="cls-7" d="M108.66,216.38c1.18.13.53,2.84-1.39,2.58C104.87,218.61,106.92,216.12,108.66,216.38Z"/><path class="cls-6" d="M103.47,222.27c-.52.35-3.27-.26-1.09-2.48C104.39,217.82,107.14,221,103.47,222.27Z"/><path class="cls-7" d="M104.48,221.18c-.48.87-2.93,1-2.1-.48C103.34,219,105.22,219.87,104.48,221.18Z"/><path class="cls-6" d="M107.88,223.62c-.57.31-3.62-.21-1.22-2S112,222.53,107.88,223.62Z"/><path class="cls-7" d="M109,222.71c-.52.7-3.27.78-2.35-.4C107.75,220.92,109.84,221.66,109,222.71Z"/><path class="cls-6" d="M102.25,225c-.48.17-2.7-.57-.61-1.75C103.56,222.14,105.52,224.54,102.25,225Z"/><path class="cls-7" d="M103.21,224.32c-.48.52-2.57.31-1.74-.57C102.51,222.75,104,223.58,103.21,224.32Z"/><path class="cls-6" d="M98.72,223.89c-.53.17-2.88-.88-.53-2.19C100.38,220.53,102.29,223.58,98.72,223.89Z"/><path class="cls-7" d="M99.85,223.19c-.57.56-2.79.17-1.83-.79C99.24,221.22,100.77,222.31,99.85,223.19Z"/><path class="cls-6" d="M75.29,189.43c.22.56-1.13,3.31-2.66.83C71.24,188,75,185.5,75.29,189.43Z"/><path class="cls-7" d="M74.47,188.29c.69.57.13,3.1-1,2.1C72,189.21,73.42,187.38,74.47,188.29Z"/><path class="cls-6" d="M71.76,189.34c0,.57-2.09,2.53-2.79-.13C68.32,186.77,72.68,185.81,71.76,189.34Z"/><path class="cls-7" d="M71.33,188.07c.48.75-.79,2.8-1.62,1.53C68.75,188.07,70.63,186.94,71.33,188.07Z"/><path class="cls-6" d="M73.38,184.67c.26.31.08,2.44-1.53,1.22C70.41,184.76,72.24,182.19,73.38,184.67Z"/><path class="cls-7" d="M72.55,184.15c.61.22.87,2-.13,1.66C71.19,185.33,71.67,183.8,72.55,184.15Z"/><path class="cls-6" d="M70.41,184.8c.17.35-.7,2.18-1.83.61S70.1,182.23,70.41,184.8Z"/><path class="cls-7" d="M69.8,184.06c.52.35.17,2-.66,1.4C68.1,184.72,69.06,183.49,69.8,184.06Z"/><path class="cls-6" d="M112.11,215.55c-.57.53-4-.52-1.57-3.79C112.68,208.75,116.38,213.63,112.11,215.55Z"/><path class="cls-7" d="M113.16,213.85c-.48,1.31-3.41,1.4-2.62-.78C111.54,210.45,113.94,211.93,113.16,213.85Z"/><path class="cls-6" d="M69.54,207.62c.87-.22,2.88-4.32-1.31-4C64.35,203.86,64.7,210.71,69.54,207.62Z"/><path class="cls-7" d="M67.49,207.57c1.31.35,3.75-2.53,1.61-3.1C66.44,203.78,65.52,207.14,67.49,207.57Z"/><path class="cls-6" d="M63.87,204c.69,0,3-3.27-.4-3.93C60.42,199.5,59.55,205.78,63.87,204Z"/><path class="cls-7" d="M62.25,203.56c1,.61,3.4-1.48,1.75-2.49C62.08,199.94,60.77,202.73,62.25,203.56Z"/><path class="cls-6" d="M56.93,206.05c.7.17,3.84-2.19.83-3.84C55,200.72,52.26,206.44,56.93,206.05Z"/><path class="cls-7" d="M55.54,205.13c.74.87,3.66-.39,2.44-1.83A1.53,1.53,0,0,0,55.54,205.13Z"/><path class="cls-6" d="M61.51,209.32c.7.17,3.84-2.18.83-3.84C59.59,204,56.84,209.67,61.51,209.32Z"/><path class="cls-7" d="M60.12,208.4c.74.87,3.66-.39,2.44-1.83C61,204.87,58.94,207.14,60.12,208.4Z"/><path class="cls-6" d="M74.42,201.16c.48-.61-.22-4.27-3.18-1.7C68.58,201.77,72.59,205.78,74.42,201.16Z"/><path class="cls-7" d="M72.94,202.34c1.13-.53,1.35-3.67-.52-2.79C70.1,200.59,71.24,203.12,72.94,202.34Z"/><path class="cls-6" d="M74.68,197.06c.4.22,2.45-2.05.75-3.84C73.9,191.61,71.89,197.23,74.68,197.06Z"/><path class="cls-7" d="M73.94,196.1c.39.92,2.23-.22,1.57-1.7C74.73,192.57,73.33,194.75,73.94,196.1Z"/><path class="cls-6" d="M70.54,196.32c.48.17,2.53-2.49.39-4.06C69,190.82,67.36,196.93,70.54,196.32Z"/><path class="cls-7" d="M69.54,195.45c.52.87,2.48-.57,1.57-2C70,191.69,68.66,194.18,69.54,195.45Z"/><path class="cls-6" d="M69.62,198c.22-.66-1.83-2.88-3.62.08C64.39,200.85,69.62,202,69.62,198Z"/><path class="cls-7" d="M68.66,199.42c.88-.83-.08-3.15-1.52-1.75C65.35,199.37,67.36,200.68,68.66,199.42Z"/><path class="cls-6" d="M184.56,109.43c.48-.48.3-3.88-2.31-2.05C179.85,109.08,182.6,113.31,184.56,109.43Z"/><path class="cls-7" d="M183.25,110.22c1-.27,1.48-3.1-.09-2.62C181.2,108.21,181.81,110.69,183.25,110.22Z"/><path class="cls-6" d="M180.81,107.47c.22-.4-.74-2.36-2.23-.74S180.28,110.17,180.81,107.47Z"/><path class="cls-7" d="M180,108.21c.66-.35.31-2.14-.74-1.53C178,107.42,179.06,108.78,180,108.21Z"/><path class="cls-6" d="M186.48,97.7c.17.69-1.79,3.44-3.36.3C181.72,95.12,186.61,93.25,186.48,97.7Z"/><path class="cls-7" d="M185.65,96.21c.78.83-.17,3.54-1.48,2.14C182.55,96.65,184.47,95,185.65,96.21Z"/><path class="cls-6" d="M185.43,101.23c.52,0,1.66,3-1,4C182,106.2,182.47,99.88,185.43,101.23Z"/><path class="cls-7" d="M184.12,101.88c.83-.69,2.31,1.14.92,2.32C183.34,105.64,182.86,102.89,184.12,101.88Z"/><path class="cls-6" d="M180.55,102.28a1.63,1.63,0,0,1-1,2.7C177.71,105.37,178.5,101,180.55,102.28Z"/><path class="cls-7" d="M179.59,102.58c.65-.39,1.61,1,.52,1.75C178.76,105.11,178.58,103.15,179.59,102.58Z"/><path class="cls-6" d="M180.9,100.49c-.14.52-2.45,1.05-2.27-1.7C178.8,96.26,182.68,97.87,180.9,100.49Z"/><path class="cls-7" d="M180.9,99.14c.21.91-1.44,2-1.75.43C178.76,97.65,180.63,97.7,180.9,99.14Z"/><ellipse class="cls-8" cx="95.05" cy="75.58" rx="5.32" ry="7.15"/><ellipse class="cls-8" cx="134.4" cy="75.58" rx="5.32" ry="7.15"/><circle cx="95.05" cy="75.58" r="4.41"/><path class="cls-8" d="M97.8,74.06a1,1,0,1,1-1-1A1,1,0,0,1,97.8,74.06Z"/><circle cx="134.31" cy="75.63" r="4.41"/><path class="cls-8" d="M137.06,74.06a1,1,0,1,1-1-1A1,1,0,0,1,137.06,74.06Z"/><path d="M88.77,67.69a.5.5,0,0,1-.26,0,.49.49,0,0,1-.17-.61c.08-.13,2.13-3.44,7.54-2.7a.46.46,0,1,1-.13.91c-4.8-.65-6.63,2.23-6.63,2.27A.54.54,0,0,1,88.77,67.69Z"/><path d="M140.59,67.69a.47.47,0,0,0,.26,0A.49.49,0,0,0,141,67c-.09-.13-2.14-3.44-7.55-2.7a.45.45,0,0,0-.39.52.44.44,0,0,0,.52.39c4.8-.65,6.63,2.23,6.63,2.27A.4.4,0,0,0,140.59,67.69Z"/><path d="M115,90.76c-4,0-8.42-2.27-8.94-7.37a.53.53,0,0,1,.44-.57.52.52,0,0,1,.56.44c.44,4.45,4.41,6.45,7.94,6.45h.13c3.54,0,7.24-2,7.55-6.45a.5.5,0,0,1,1,0c-.35,5-4.67,7.33-8.55,7.42C115.16,90.76,115.07,90.76,115,90.76Z"/></svg>