<svg id="Layer_1" data-name="Layer 1" xmlns="http://www.w3.org/2000/svg" viewBox="0 0 256 256"><defs><style>.cls-1{fill:#381500;}.cls-2{fill:#323232;opacity:0.4;}.cls-3{fill:#e56e43;}.cls-3,.cls-5{stroke:#a54325;}.cls-14,.cls-15,.cls-16,.cls-3,.cls-5,.cls-8{stroke-miterlimit:10;}.cls-4,.cls-5{fill:#c9522d;}.cls-6{fill:#ea9962;}.cls-7{fill:#cc5733;}.cls-8{fill:#603e3d;stroke:#311;}.cls-9{fill:#ab362d;}.cls-10{fill:#fff;}.cls-11{fill:#752917;}.cls-12{fill:#261708;}.cls-13{fill:#3c1317;}.cls-14{fill:#ab2522;stroke:#420f0f;}.cls-15,.cls-16{fill:#93312e;}.cls-15{stroke:#541515;}.cls-16{stroke:#4c1212;}.cls-17{fill:#591212;}.cls-18{fill:#e7c298;}</style></defs><path class="cls-1" d="M161,224.1c1.76-.41,6.16-1.6,7.49-3.31l-.89-5.67h-5l-1.45,3.59C161.27,220,161,224.1,161,224.1Z"/><path class="cls-1" d="M183.27,231.15c1.77-.41,6.61-2.92,7.93-4.63l-1.34-6.4h-5l-1.45,3.59C183.5,225,183.27,231.15,183.27,231.15Z"/><path class="cls-1" d="M117.39,241.72c1.76-.38,7.71-1.7,9-3.3l-.83-6.48h-5l-2.29,3.42A49.2,49.2,0,0,1,117.39,241.72Z"/><path class="cls-1" d="M95.79,240.4c1.77-.38,7.17-3.41,8.5-5l.14-3.45h-5L96,234.45C96.12,235.7,95.79,240.4,95.79,240.4Z"/><ellipse class="cls-2" cx="143.39" cy="234.34" rx="56.19" ry="14.87"/><path class="cls-3" d="M175.66,117.1c7.1-2,9.93-6.07,10.76-13.24,3.91,4.19,3.12,7.48,1.34,10.49a9.19,9.19,0,0,0,3.14-1.83c.12,3.71-2,5.59-5,6.34-2.88,1.13-6.16.73-8.65.89Z"/><path class="cls-4" d="M177.2,118.85l-1.54-1.75c7.1-2,9.93-6.07,10.76-13.24C190.59,112.76,181.93,119.08,177.2,118.85Z"/><path class="cls-5" d="M169.91,174a21,21,0,0,1-4.86-8.34c-1.05-7.45,1.7-25.93-.05-38.72l-27.65,11.17c.88,17.35,6.71,27.74,17.65,34.7l8.8,6a2.73,2.73,0,0,1,1.14,2.44l-2.33,33.83h5L170.93,177A3.74,3.74,0,0,0,169.91,174Z"/><path class="cls-3" d="M180.57,120.26h0c-15.79-13.83-37.73,7.85-49.4.93-9.75-6.48-15-31.32-13.55-46.66L98.9,72.15a503.27,503.27,0,0,1-6.84,66.49c-4.3,19,10.89,36.61,28.5,32.73h0c17.18-4,28-11.15,51.09-17.08,6.66-1.71,14.7-9,15.72-16.78A18.92,18.92,0,0,0,180.57,120.26Z"/><path class="cls-5" d="M93.6,128.79c-1.89,11.62-4.44,25.06-1.3,33,5.61,10.35,9.31,21,9.31,32.5v31.44l-2.19,6.17h5l2.19-6.17v-31.4a61.33,61.33,0,0,1,9.31-32.49l1.34-2.16Z"/><path class="cls-6" d="M168.62,144.56c-21.43,5.8-33.68,18.6-49.71,16.75-12.85-8.1-3.83-54.1-4.34-71.26-.13-4.11-9.29-17.48-12.17.43-1,6.46-6.89,36.48-7.31,53.62-.35,16.56,9.71,30.74,25.47,27.27h0c16.3-3.82,26.9-10.43,47.66-16.16Z"/><path class="cls-3" d="M159.59,143.12c.88,17.36,6.71,27.74,17.65,34.71l8.8,6a2.74,2.74,0,0,1,1.14,2.45l-2.33,33.83h5L193.17,182a3.74,3.74,0,0,0-1-2.94,21,21,0,0,1-4.86-8.34c-1.06-7.44,1.7-25.93,0-38.72"/><path class="cls-7" d="M187.54,182.42c-2.34-2.4-13.61-7.87-20-17.08-4.56-6.61-7-17.36-8-22.22.88,17.36,6.71,27.74,17.65,34.71l8.8,6a2.74,2.74,0,0,1,1.14,2.45l-1.94,28.13c2.27-11.22,3.32-29.06,3.32-29.06A3.74,3.74,0,0,0,187.54,182.42Z"/><path class="cls-3" d="M117.27,142.93c-1.15,23.94,5.11,26.07,5.11,39.77l.39,43.07-2.2,6.17h5l2.19-6.17,1.37-45.08c.33-8.4,10.28-21,10.28-35.15"/><path class="cls-7" d="M117.27,142.93c-1.15,23.94,5.11,26.07,5.11,39.77l.34,37.68s2.81-26.12,1.23-42.4C121.37,165.46,118.24,158,117.27,142.93Z"/><path class="cls-8" d="M110.17,50.41A8.31,8.31,0,0,1,113.11,44s-3.63-5.29-2.35-11c0,0-4.7-2.64-5.58-10.37,0,0,4,8.32,6.55,8.12s.4-9.3-2.93-10.86,8.32-2.16,4.79,12.62c0,0-1.86,6,1.77,8.72,0,0,4.7-2.06,7.53-3.53s8.23-5.58,6.47-10.47a11.92,11.92,0,0,0-6-6.66s-8.12-2.84-5.48-13.12c0,0,.3.49,1.08,5.29s5.87,5.58,5.87,5.58.59-7-2-10.28,4.89,0,4.11,10.77c0,0,6.26,4.7,5.68,11.16,0,0,5.87-.88,7.83-4.41,0,0-4.41-5.28-.78-14.58,0,0,.39-.39.39,5.38S142.87,23,142.87,23s3.81-5.68,9.69-5.19c0,0,1.37-.1-3.62,2.64S145,31.22,131.8,33.77c0,0-2.15,5.09-10.86,8.71s-3.72,16-3.72,16Z"/><path class="cls-8" d="M96.24,50.11a9.46,9.46,0,0,0-2.7-6.34s2.7-5.42,1.39-11c0,0,3.7-2.83,4-10.59,0,0-2.87,8.47-5,8.37s-.77-9.27,1.87-11S89,17.72,92.6,32.35c0,0,1.79,5.89-1,8.77,0,0-3.93-1.87-6.31-3.23s-7-5.25-5.75-10.21a11.06,11.06,0,0,1,4.54-6.88s6.48-3.15,3.83-13.32a34.44,34.44,0,0,0-.62,5.32,6.34,6.34,0,0,1-4.51,5.81S82,11.69,83.94,8.26s-4,.19-2.83,10.91c0,0-4.88,4.94-4.09,11.37,0,0-4.82-.65-6.59-4.09,0,0,3.34-5.45-.05-14.6,0,0-.34-.38-.07,5.39s-2,6.76-2,6.76-3.38-5.52-8.13-4.81c0,0-1.12,0,3.07,2.5S67,32.3,77.84,34.33c0,0,2,5,9.26,8.28S90.89,58.4,90.89,58.4Z"/><path class="cls-3" d="M117,52.71s3.45-.51,7.49-7.86,10.94-11.45,22.47-6.24,4.26,6.24,2,8.89-7.12,5.94-11.16,12.77-16.45-.88-16.45-.88Z"/><path class="cls-9" d="M122.63,55.43s1.68-10.58,8.15-14.47,15.49-1.69,19.23.66-12.63-3.52-17,2.57-4.77,10.65,1.4,13.07S126,61.15,122.63,55.43Z"/><path class="cls-3" d="M91.71,57s-3.35-.52-7.28-7.86S73.8,37.71,62.59,42.92s-4.14,6.24-1.93,8.88,6.93,6,10.85,12.78,16-.88,16-.88Z"/><path class="cls-9" d="M86.22,59.73s-1.64-10.57-7.93-14.46-15.06-1.69-18.7.66,12.28-3.52,16.49,2.57,4.64,10.65-1.36,13.07S82.93,65.46,86.22,59.73Z"/><path class="cls-3" d="M126.52,73.32c0,5-3.92,6.07-6.56,8.12a19.85,19.85,0,0,0-5.29,6.07c-1.66,3.53-6.32,3.7-9.49.88-2.37-2.09-5.13-2.45-7.74-3.42C89,81.83,86,78.63,86,71.07c0-2.44,1.41-5.62,2.25-8,1.29-3.71,2-8.45,4.6-10.18,3-2,6.12-.69,10.77-.69,3.42,0,3.43-3.52,9.5-2.45,4.59.82,8.76,6.16,9.69,11.75C123.87,67.93,126.52,70.44,126.52,73.32Z"/><path class="cls-10" d="M122.21,62.74a6.33,6.33,0,0,1-5.2,6.47c-2.41.4-4-.2-4.41-2.94-.35-2.25.09-5.68,3.88-7C118.8,58.38,122.21,60,122.21,62.74Z"/><path class="cls-11" d="M122.26,62.74a7.84,7.84,0,0,1-1,3.86,6.27,6.27,0,0,1-3,2.78,8.17,8.17,0,0,1-2.06.56,4.26,4.26,0,0,1-2.33-.25,3.48,3.48,0,0,1-1.71-1.84,7.39,7.39,0,0,1-.51-2.19,7.06,7.06,0,0,1,1-4.28,6.24,6.24,0,0,1,3.5-2.53,4.91,4.91,0,0,1,4.08.59A3.88,3.88,0,0,1,122.26,62.74Zm-.1,0a3.57,3.57,0,0,0-2-3.1,4.53,4.53,0,0,0-3.77-.28,5.61,5.61,0,0,0-3,2.45,6.57,6.57,0,0,0-.76,3.77,6.51,6.51,0,0,0,.4,1.91,2.59,2.59,0,0,0,1.22,1.42,5.44,5.44,0,0,0,3.81,0,5.78,5.78,0,0,0,3-2.39A7,7,0,0,0,122.16,62.74Z"/><ellipse class="cls-12" cx="116.38" cy="64.31" rx="3.54" ry="3.96"/><ellipse class="cls-10" cx="118.58" cy="62.97" rx="0.93" ry="1.17"/><path class="cls-10" d="M89.81,65.29a6.62,6.62,0,0,0,6.07,6.46c2.82.4,4.65-.19,5.16-2.94.41-2.25-.11-5.67-4.54-7C93.8,60.93,89.81,62.51,89.81,65.29Z"/><path class="cls-11" d="M89.86,65.29a5.81,5.81,0,0,0,1.5,3.86,6.47,6.47,0,0,0,3.56,1.91,7.08,7.08,0,0,0,3.83-.2,2.13,2.13,0,0,0,1.06-1.07,4.79,4.79,0,0,0,.42-1.74,5.36,5.36,0,0,0-.81-3.51,6.4,6.4,0,0,0-3.06-2.32,5.82,5.82,0,0,0-4,0,4.66,4.66,0,0,0-1.73,1.14A2.87,2.87,0,0,0,89.86,65.29Zm-.1,0a3,3,0,0,1,.77-2A5.09,5.09,0,0,1,92.28,62a6.32,6.32,0,0,1,4.24-.35A7.09,7.09,0,0,1,100.11,64a5.92,5.92,0,0,1,1.11,4.11,5.5,5.5,0,0,1-.55,2.1,3,3,0,0,1-1.61,1.44,5.28,5.28,0,0,1-2.15.26,9.74,9.74,0,0,1-2.14-.34,7,7,0,0,1-3.59-2.3A6.35,6.35,0,0,1,89.76,65.29Z"/><ellipse class="cls-12" cx="95.18" cy="66.05" rx="3.66" ry="3.96"/><ellipse class="cls-10" cx="97.48" cy="64.85" rx="1.08" ry="1.17"/><path class="cls-13" d="M113,58s3.23-3.9,6.61-1.84C119.62,56.16,114.11,50.43,113,58Z"/><path class="cls-13" d="M99.42,60.57s-4-3.9-8.15-1.84C91.27,58.73,98.07,53,99.42,60.57Z"/><path class="cls-14" d="M103.39,83.33s2.79,3.89,5.65,4.84,4.41-1.54,4.19-4Z"/><path class="cls-15" d="M109,83.11s-2.35,2-8-1.25a13.63,13.63,0,0,0,12.63,2.35s4-2.42,5.36-5.36a7.3,7.3,0,0,1-4.7,3.6A19.39,19.39,0,0,1,109,83.11Z"/><path class="cls-16" d="M105.74,83.55s4.77.44,3.23-2.35-1.76,0-3.16-2.72c0,0-.22-3.82,5.29-3.52s.29.14.29.14,5.66-.8,5.8,2.94-1.61,4.63-1.61,4.63"/><path class="cls-17" d="M107.72,77.73a1.8,1.8,0,0,1,2.64,1C111.1,80.82,107.72,77.73,107.72,77.73Z"/><path class="cls-17" d="M116.53,78.25s-.91-.79-1.33,1.25S116.53,78.25,116.53,78.25Z"/><ellipse class="cls-18" cx="141.88" cy="125.89" rx="4.44" ry="1.32" transform="translate(-12.94 16.31) rotate(-6.29)"/><ellipse class="cls-18" cx="143.27" cy="141.32" rx="4.44" ry="1.32" transform="translate(-14.62 16.55) rotate(-6.29)"/><ellipse class="cls-18" cx="152.67" cy="132.95" rx="4.44" ry="1.32" transform="translate(-13.65 17.53) rotate(-6.29)"/><ellipse class="cls-18" cx="132.03" cy="134.78" rx="4.44" ry="1.32" transform="translate(-13.97 15.28) rotate(-6.29)"/><ellipse class="cls-18" cx="127.85" cy="147.53" rx="4.44" ry="1.32" transform="translate(-15.4 14.9) rotate(-6.29)"/><ellipse class="cls-18" cx="118.89" cy="128.61" rx="1.32" ry="4.44" transform="translate(-54.17 155.58) rotate(-56.11)"/><ellipse class="cls-18" cx="168.25" cy="129.57" rx="4.44" ry="1.32" transform="matrix(0.99, -0.11, 0.11, 0.99, -13.18, 19.22)"/><ellipse class="cls-18" cx="180.29" cy="128.83" rx="4.44" ry="1.32" transform="translate(-13.03 20.53) rotate(-6.29)"/><ellipse class="cls-18" cx="126.23" cy="122.66" rx="1.32" ry="4.44" transform="translate(-45.83 159.75) rotate(-56.34)"/><ellipse class="cls-18" cx="118.89" cy="108.56" rx="1.32" ry="4.44" transform="translate(-39.77 81.21) rotate(-32.62)"/><ellipse class="cls-18" cx="157.3" cy="122.22" rx="4.44" ry="1.32" transform="translate(-12.45 17.97) rotate(-6.29)"/><ellipse class="cls-18" cx="162" cy="139.41" rx="4.44" ry="1.32" transform="translate(-14.3 18.59) rotate(-6.29)"/><ellipse class="cls-18" cx="170.01" cy="120.24" rx="4.44" ry="1.32"/><ellipse class="cls-18" cx="177.43" cy="137.43" rx="4.44" ry="1.32"/><path class="cls-3" d="M100.49,79.11s1.18,2.35-1.76,3.08"/><path class="cls-3" d="M118.42,76.68s-.74,3.31,1.9,2.65"/></svg>