<svg id="Layer_1" data-name="Layer 1" xmlns="http://www.w3.org/2000/svg" viewBox="0 0 90 60"><defs><style>.cls-1{fill:#fcf9f7;stroke:#3a1e0f;stroke-miterlimit:10;stroke-width:0.75px;}.cls-2{fill:#2d1c15;}.cls-3{fill:#f9f4f2;}</style></defs><ellipse class="cls-1" cx="65.92" cy="41.6" rx="13.55" ry="14.14" transform="translate(-1.97 3.31) rotate(-2.83)"/><ellipse class="cls-2" cx="71.12" cy="41.09" rx="8.29" ry="8.65" transform="translate(-1.94 3.56) rotate(-2.83)"/><ellipse class="cls-3" cx="66.72" cy="36.97" rx="2.12" ry="2.37" transform="translate(-1.74 3.34) rotate(-2.83)"/><ellipse class="cls-1" cx="18.86" cy="36.98" rx="12.01" ry="14.14" transform="matrix(1, -0.05, 0.05, 1, -1.8, 0.98)"/><ellipse class="cls-2" cx="23.46" cy="36.5" rx="7.35" ry="8.65" transform="translate(-1.77 1.2) rotate(-2.83)"/><ellipse class="cls-3" cx="19.54" cy="32.35" rx="1.88" ry="2.37" transform="translate(-1.57 1) rotate(-2.83)"/><path class="cls-2" d="M66.51,11.1a17.31,17.31,0,0,1,16.65,7.39S83,7.21,68.66,6.27C68.66,6.27,64,7.48,66.51,11.1Z"/><path class="cls-2" d="M24.21,9.09s-8.88-1.88-14.3,7.38c0,0,.12-11.27,12.46-12.21C22.37,4.26,26.4,5.46,24.21,9.09Z"/></svg>