<svg id="Layer_1" data-name="Layer 1" xmlns="http://www.w3.org/2000/svg" viewBox="0 0 720 512"><defs><style>.cls-1{opacity:0.3;}.cls-2{fill:#edece6;}.cls-3{fill:#d1cbb4;}.cls-4{fill:#967c5f;}.cls-5{fill:#63503d;}.cls-6{fill:#201e25;}.cls-7{fill:#c1b99f;}.cls-8{fill:#d39788;}.cls-9{fill:#bf7c6f;}.cls-10{fill:#f3c1a7;}.cls-11{fill:#e0dbca;}.cls-12{fill:#2c2b30;}.cls-13{fill:#7a5f43;}.cls-14{opacity:0.2;}.cls-15{fill:#aa865b;}.cls-16{fill:#d8b993;}.cls-17{fill:#c1b19a;}.cls-18{fill:#3d3b42;}.cls-19{fill:#c17e67;}.cls-20{fill:#271c27;}.cls-21{fill:#f7f7f7;}</style></defs><ellipse class="cls-1" cx="417.48" cy="477.15" rx="260.62" ry="29.46"/><path class="cls-2" d="M558.42,307.7c4.94,15,20.05,26.29,20.37,31.55s-2.17,40.29-4.25,55.59-2,32.83,0,40.33S576,450.1,572.5,450s-7.09,3.81-7.19,8.19,3.62,15.86.89,19.76-31.67,5.45-39.42-.85-7.39-3.81-4.61-10.47a72.85,72.85,0,0,1,11.22-19.06c6-7.76,11.75-16.4,15-31.53s1.25-31.55-2.58-44.19-24.63-51.08-31.38-63.5"/><path class="cls-3" d="M547.37,303.16c.12,11.89,10.91,31.28,18.33,40.2s6.13,30.53,3.37,42.16-6,54.81-6.13,60.66c-.09,3.84.52,7.82,2.51,10.75.68-3.82,3.89-7,7-6.91,3.5.08,4.1-7.35,2.06-14.85s-2.1-25,0-40.33,4.58-50.32,4.25-55.59-15.43-16.54-20.37-31.55"/><path class="cls-3" d="M533.39,447.59a72.85,72.85,0,0,0-11.22,19.06c-1.85,4.43-2.62,4.82-.64,6.43l8.74-4.75a117.3,117.3,0,0,1,9.43-22.06c3.69-6.49,6.24-17,7.95-27.1C544.31,432.39,539,440.38,533.39,447.59Z"/><path class="cls-3" d="M537.72,353.08c3.79,7.81,6.84,14.67,8.08,18.79a98.73,98.73,0,0,1,4.19,29h0c1.17-12.86,3.62-31.93.18-35.08S537.74,353.09,537.72,353.08Z"/><path class="cls-4" d="M529.43,453a69.22,69.22,0,0,0-7.26,13.66c-2.78,6.66-3.16,4.17,4.61,10.47s36.72,4.72,39.42.85c1.51-2.16,1-6.65.34-11-3.72-.07-7.63-.17-11.5-.24C543.56,466.52,534,458,529.43,453Z"/><path class="cls-5" d="M546,471.75c-13.11-1.24-19.74-4.82-22.9-7.36-.32.73-.64,1.48-1,2.26-2.78,6.66-3.16,4.17,4.61,10.47s36.72,4.72,39.42.85c.81-1.16,1-3,1-5.11C561.76,472.81,554.66,472.56,546,471.75Z"/><path class="cls-6" d="M578.79,339.25c-.24-3.94-8.82-11.29-15.16-21.07-8.65-2.38-19.85-5.51-19.85-5.51l-12.4,9.9c8.76,2.66,16.2,9.06,22.27,13.64S566,341.3,571,341.3h7.78C578.83,340.41,578.83,339.71,578.79,339.25Z"/><path class="cls-3" d="M533.39,447.59a72.85,72.85,0,0,0-11.22,19.06c-1.85,4.43-2.62,4.82-.64,6.43l8.74-4.75a117.3,117.3,0,0,1,9.43-22.06c3.69-6.49,6.24-17,7.95-27.1C544.31,432.39,539,440.38,533.39,447.59Z"/><path class="cls-3" d="M537.72,353.08c3.79,7.81,6.84,14.67,8.08,18.79a98.73,98.73,0,0,1,4.19,29h0c1.17-12.86,3.62-31.93.18-35.08S537.74,353.09,537.72,353.08Z"/><path class="cls-4" d="M529.43,453a69.22,69.22,0,0,0-7.26,13.66c-2.78,6.66-3.16,4.17,4.61,10.47s36.72,4.72,39.42.85c1.51-2.16,1-6.65.34-11-3.72-.07-7.63-.17-11.5-.24C543.56,466.52,534,458,529.43,453Z"/><path class="cls-5" d="M546,471.75c-13.11-1.24-19.74-4.82-22.9-7.36-.32.73-.64,1.48-1,2.26-2.78,6.66-3.16,4.17,4.61,10.47s36.72,4.72,39.42.85c.81-1.16,1-3,1-5.11C561.76,472.81,554.66,472.56,546,471.75Z"/><path class="cls-2" d="M249.34,300.67s0,18.85,2.19,33.75S249.77,359,248,366s-5.26,35.06-2.19,44.26,10.08,38.14,7,41.65-6.57.44-6.57,6.56.87,19.49-.44,20.49-23.23,4.26-35.06,0-5.26-8.65-.88-22.23S222.6,433,223.48,416.81s-1.76-25.85-2.63-28.48-8.33-11.84-9.21-23.24-7.11-25.4-8.86-35.48-17.31-24.55-17.31-24.55"/><path class="cls-7" d="M209.89,456.7c-1.76,5.44-3.87,9.4-5,12.49,2,.09,3.25.12,3.25.12s4-10,6.57-18.39,14.9-25.77,14.9-34.2-3.51-29.27-6.13-34.09-6.58-10.08-9.65-18.12c-1.06-2.77-5.3-11.37-6.8-19.3.77,6.2,4.17,14.18,4.61,19.88.88,11.4,8.33,20.61,9.21,23.24s3.5,12.27,2.63,28.48S214.27,443.11,209.89,456.7Z"/><path class="cls-3" d="M190.56,311.64s13.33,2.69,13,4.41c.5,1.3-4.6-1.22-4,.94C198.83,312.25,190.56,311.64,190.56,311.64Z"/><path class="cls-7" d="M237.94,308.55s2.51,37.57,0,52.61,0,16.65,0,32.43,6.13,45.58,4.82,50.4c-1.13,4.17-.77,10.28,3.64,12.72.66-3.76,3.72-1.73,6.44-4.83,3.07-3.51-3.94-32.44-7-41.65S246.27,373,248,366s5.7-16.65,3.51-31.55c-1-6.77-1.54-14.35-1.84-20.61l-11.75-5.26"/><path class="cls-4" d="M225.23,465.47a49.83,49.83,0,0,1-15.64-7.91c-4.37,12.91-10.4,17.2,1.18,21.37,11.83,4.26,33.74,1,35.06,0,.87-.66.78-6.72.62-12.52C239.85,467.28,232.21,467.43,225.23,465.47Z"/><path class="cls-5" d="M246.55,473.56c-4.46,0-11.27,0-21.24-.2a30,30,0,0,1-19.21-7.11c-2.84,6.5-3.81,9.63,4.67,12.68,11.83,4.26,33.74,1,35.06,0C246.33,478.55,246.51,476.4,246.55,473.56Z"/><path class="cls-7" d="M251.53,334.42c-1.94-13.18-2.16-29.43-2.19-33l-1.29-.65-62.58,4.3s15.56,14.47,17.31,24.55c.13.75.29,1.53.47,2.32,0,0,31.67,22.28,47.08,16.34a10.72,10.72,0,0,0,1.66-.83A57.53,57.53,0,0,0,251.53,334.42Z"/><path class="cls-8" d="M498.87,314.11s4.86,21.47,4.86,26.15,4,7.3,8.17,1.61,5-13.15,5-13.15Z"/><path class="cls-9" d="M532.85,319.59s4.85,21.48,4.85,26.15,4,7.3,8.18,1.6,5-13.15,5-13.15Z"/><path class="cls-8" d="M477.62,289.87s6.43,22.66,12.85,27.12,17.82,7.21,19.28,10.2,6.14,20.24,9.35,20.83,6.51-1.76,8.52-7.6,4-13.44,11.06-10.81,7.51,11.69,7.86,17.24,4.13,10.81,8.5,10.22,3.8-15.5,5.56-20.75,16.26-7.55,21.13-12.82-3.89-36.92-26.39-48.43S472.05,265.32,477.62,289.87Z"/><path class="cls-10" d="M565.35,311.64c-8.87-16.49-40.33-26.51-51.72-22.85-8,2.57-19.26,13.9-26.45,24.45a13.42,13.42,0,0,0,3.29,3.75c6.42,4.44,17.82,7.21,19.28,10.2s6.14,20.24,9.35,20.83,6.51-1.76,8.52-7.6,4-13.44,11.06-10.81,7.51,11.69,7.86,17.24,4.13,10.81,8.5,10.22,3.8-15.5,5.56-20.75c1.1-3.29,7.21-5.42,12.82-7.85C571.57,324.05,569,318.35,565.35,311.64Z"/><path class="cls-2" d="M161.89,46.47s11.4,31.56,50,38.13,69.25,14,99.49,12.71,67.09,3.51,78.25,5.7,63.76-1.31,78.66-6.14,52.59-16.21,89.41-9.2,59.61,35.5,69.26,56.1,11.83,68.82,4.82,93.36S616,306.38,621.22,321.28s20.61,25.86,21,31.12-1.31,40.32-3.07,55.66-1.33,32.87.87,40.33,1.76,14.89-1.75,14.89-7,4-7,8.33,3.94,15.78,1.31,19.73-31.56,6.14-39.44,0-7.46-3.65-4.83-10.37,5-11.39,10.82-19.28,11.39-16.66,14.32-31.86.58-31.56-3.51-44.13-25.71-50.54-32.73-62.81-15.5-29.52-20.16-32.14l-4.67-2.64s-14-17.67-30.24-10.66S474,305.06,452.47,309.89s-63.54,6.57-78.88,3.5-40.76-3.5-60.48.44-30.69,3.07-30.69,3.07,0,18.85,2.19,33.75-1.75,24.53-3.5,31.55-5.26,35.07-2.19,44.26,10.08,38.14,7,41.65-6.57.42-6.57,6.57.88,19.49-.44,20.47-23.23,4.28-35.07,0-5.25-8.63-.87-22.22,12.71-23.66,13.58-39.89-1.75-25.85-2.63-28.5-8.32-11.82-9.2-23.22-2.63-25.41-4.38-35.49a63.79,63.79,0,0,0-4.83-16.22S193,316.9,182.93,312.08s-16.22-11.39-26.3-21.48-22.79-16.22-29.8-33.74-9.65-37.7-10.52-51.29S125.52,58.3,131.65,54.36,153.58,32.51,161.89,46.47Z"/><path class="cls-8" d="M571,315.58,567.32,317c-3.73,1.39-19.51,12.4-34.41,10.2-8.93-1.3-15.57-5.63-20.21-8.49.43.32,1.55,1.62,2.08,2,6.35,4.38,7.62,9.15,10.68,17.7a18.93,18.93,0,0,1,1,4.72,19.25,19.25,0,0,0,1.16-2.68c2-5.84,4-13.44,11.06-10.81s7.51,11.69,7.86,17.24a9.64,9.64,0,0,0,.16,1.42c.79-5.94,3-12.45,5.06-15.59C554.61,328.29,571,315.58,571,315.58Z"/><path class="cls-3" d="M243,472.93c-1.76,5.44-3.86,9.41-5,12.48,2,.1,3.24.14,3.24.14s4-10,6.58-18.4,14.9-25.77,14.9-34.19-3.51-29.28-6.14-34.1-6.57-10.09-9.63-18.12c-1.07-2.78-2.56-9.76-4.06-17.69.76,6.2,1.43,12.57,1.86,18.27.88,11.4,8.33,20.61,9.2,23.22s3.51,12.29,2.63,28.5S247.36,459.34,243,472.93Z"/><path class="cls-3" d="M237.16,329.61s-.18,1-.49,2.67c.5,1.31,1.12,3.05,1.75,5.21C237.65,332.76,237.16,329.61,237.16,329.61Z"/><path class="cls-4" d="M688,296s.1.48.21,1.33A34.41,34.41,0,0,1,685.07,317c-5.25,10.28-12.85,13.21-10.81,22.26s5,8.18,5,11.4-2.93,7.3-7.3,9.06-5.56,0-5.56,0,2.93,4.38,9,2,11.7-15.19,11.7-15.19S685.66,361,681,367.08l-4.68,6.06s10.52-5.85,15.5-14.6c0,0-1.17,10.51-9.93,16.35l-8.77,5.85s11.68,0,20.16-8.48,9.64-11.39,9.64-11.39-.3,5.55-2,8.76l-1.76,3.21S713.12,362,715,348s0-36-10.37-50.56c0,0-13.23-7.59-13.62-7.59"/><path class="cls-3" d="M623.42,230.11s4.82,28.93,26.74,41.65,30.46,14.68,33.3,20.38S687,309.67,687,309.67s3.29-7.67,3.07-11l-.22-3.29a131.9,131.9,0,0,1,4.83,12.71c2,6.36,4.81,15.12,7.88,17.1l3.08,2a45.62,45.62,0,0,1-5.92-16.87l-1.11-9.2s2.63,9,8.33,13.37,7,4.6,7,4.6-7.23-7.89-10.09-16.44L701,294.11s4.81,9.64,7.45,11.62,6.57,4.59,6.57,4.59-5.92-8.54-10.08-16-12.27-14.24-24.54-17.76-28.49-8.11-35.5-18.95-9-30.79-10.74-41.1l-1.76-10.29Z"/><path class="cls-3" d="M271,377.39c-2.51,15,0,16.64,0,32.41s6.13,45.61,4.82,50.42c-1.14,4.15-.77,10.28,3.64,12.71.66-3.75,3.72-1.72,6.44-4.82,3.07-3.51-3.94-32.44-7-41.65s.44-37.25,2.19-44.26,5.69-16.66,3.5-31.55c-1-6.77-1.53-14.35-1.83-20.61L271,324.79S273.53,362.34,271,377.39Z"/><path class="cls-11" d="M282.54,323.5h0c-.12-4-.12-6.6-.12-6.6s11,.87,30.69-3.07,45.14-3.51,60.48-.44,57.41,1.32,78.88-3.5,53.49-25.42,69.71-32.44,30.24,10.66,30.24,10.66l4.67,2.64c1.65.93,3.79,3.7,6.15,7.41,0,0,0,0,0,0-14-24.77-38.84-43.91-63.39-40.51s-124.48,27.29-154.28,22.86-122.66,9.77-179.73-16.61c-25.67-11.88-40-28.85-48.09-43.93,1.54,11.55,4.28,24.85,9.11,36.92,7,17.52,19.72,23.66,29.8,33.74s16.22,16.65,26.3,21.48,52.59,17.53,52.59,17.53l-3.06-15.78Z"/><path class="cls-6" d="M557.67,87.67a135.54,135.54,0,0,0-30-2.12c7.82,11.36,20.49,22.85,27.42,26.66,8.78,4.82,30.68,12.72,32,23.23s-4.83,25,0,32,17.54,5.26,16.66,19.72-12.27,18-18,30.69-15.33,43.83-1.31,58.72,18,11.84,16.65,28.49,13.15,30.69,23.67,31.13a32.77,32.77,0,0,0,5.1-.22,52.59,52.59,0,0,1-8.61-14.69c-5.26-14.9,3.51-59.6,10.53-84.15s4.82-72.76-4.82-93.36S594.49,94.68,557.67,87.67Z"/><path class="cls-6" d="M550.37,137.76c-8.19-10.06-34.48-24.67-50.85-24.67-10.53,0-18.89-9.6-26.79-17.63-1.65.51-3.15,1-4.47,1.41-12.39,4-50.85,7.11-69.87,6.78-5.22,8.86-28,14.7-50.81,12.36s-31-7.6-43.83-2.92-28.05-2.33-31.55-12.85a37.31,37.31,0,0,0-2.44-5.58c-11.82-1.69-24.15-4-37.37-6.4,0,1.29.07,2.58.07,3.8,0,7,1.75,11.68-9.35,13.44s-18.7-5.42-25.13,1.16-15.2-4.67-31-7.6-31.65.39-38.56,12.86a133.85,133.85,0,0,0-7.38,17.7c-1.94,22.11-3.51,44.29-4.29,59.15,7.64,6.61,19,14,19.7,22.06.88,9.64,0,18.41,10.52,18.41s13.59-10.52,22.35-7,20.6,19.72,20.6,28.48-1.75,14,5.26,14,7.45-7.88,10.52-4.38,3.95,12.71,11.84,15.34,4.82,16.36,4.82,22.43,7,20.52,16.22,24.47,21,11.83,20.16,18.84-6.14,18,2.63,25,17.09,10.52,12.71,18.86-12.28,10.51-12.28,18,5.7,13.59,2.2,20.16c-1.53,2.85-4.47,4.89-7.33,6.82,0,.91-.07,1.85-.13,2.82a50.5,50.5,0,0,1-2.06,11.77c6.23,3.08,16.21,4.13,20.8.06a45.72,45.72,0,0,0,6.61-7.82c-1.1-4.34-2.19-8.15-3-10.59-3.07-9.19.44-37.25,2.19-44.26s5.69-16.66,3.5-31.55a249.66,249.66,0,0,1-2.07-27.12h0v0c-.12-4-.12-6.6-.12-6.6h.1c.28-7.1,2-15.93,10.13-18.77,11.1-3.88,15.78-26.08,15.2-34.85s13.44-7,24-18.12.58-21-11.11-22.2-16.95-18.12-9.93-21.63,14.61-12.85,17-24.54,39.15-14,40.32,0,7.32,23.38,11.26,26.88,9.19,18.58,2.76,30.62-17.23,19.64-2.76,31.33,20.3,19.42,21.46,32.51c.62,7,5.67,13.1,14.14,16.26,13.82-.76,27.83-2.31,37.57-4.5a91.79,91.79,0,0,0,14.39-4.76c7.73-6,10.46-14.51,10.46-27.82,0-22.22,1.17-42.8,18.7-43s29.29-6.07,31.6-15.43-17-18.11-7.06-21.62,14,6.43,21.62-4.09S558.55,147.81,550.37,137.76Z"/><path class="cls-4" d="M258.32,481.7a49.93,49.93,0,0,1-15.64-7.91c-4.37,12.92-10.4,17.2,1.17,21.36,11.84,4.28,33.75,1,35.07,0,.87-.65.78-6.7.62-12.5C272.94,483.51,265.3,483.66,258.32,481.7Z"/><path class="cls-3" d="M119.67,197.83s.22,1.47.66,4c1.09-5.25,1.8-8.63,1.8-8.63Z"/><path class="cls-3" d="M238.07,336.32c-1-7.88-5.19-18.78-11.59-26.14-9.62-11.07-25.58-8.33-33.63-14.17s-31.69-15.78-48-28.11c-13.76-10.36-22.15-52.83-24.47-66.09-.83,4-1.89,9.17-3,14.75,1.43,12.28,4.23,27,9.53,40.3,7,17.52,19.72,23.66,29.8,33.74s16.22,16.65,26.3,21.48,52.59,17.53,52.59,17.53A47.84,47.84,0,0,1,238.07,336.32Z"/><path class="cls-3" d="M546.54,282.41h0Z"/><path class="cls-3" d="M503.62,277.89c-12.87,4.68-47.91,24.55-75.39,26.89s-54.34-4.09-85.32-6.65-45,3.72-54.35,6.06-6.14,12.71-6.14,12.71,11,.87,30.69-3.07,45.14-3.51,60.48-.44,57.41,1.32,78.88-3.5,53.49-25.42,69.71-32.44a19.3,19.3,0,0,1,8-1.63A54.76,54.76,0,0,0,503.62,277.89Z"/><path class="cls-12" d="M527.62,134.72c-18.67-7.6-59.65-1.17-73.68,3s-61.36,7.47-83.56,0-79.48-4.8-115.13-7.14c-30.09-2-79.17-12.34-113.15-30.12a25.38,25.38,0,0,0-13.66,11.42,133.85,133.85,0,0,0-7.38,17.7c-1.69,19.25-3.1,38.55-4,53,28.08,9.26,55.37-5.8,75.74,10.53,21.16,17,36.68,47.9,86.36,60.18a144.55,144.55,0,0,0,31.57,4.26c4.58-3.2,13.66-4.67,21-12.46,10.51-11.1.58-21-11.11-22.2s-16.95-18.12-9.93-21.63,14.61-12.85,17-24.54,39.15-14,40.32,0,7.32,23.38,11.26,26.88,9.19,18.58,2.76,30.62c-2.53,4.73-5.72,8.78-7.8,12.66,8.83-2.64,17.41-5.36,25.92-7.63,35.07-9.35,59,2.92,73.63,9.35,1.8.79,3.6,1.51,5.42,2.13,2.2-9.75,6.88-16.38,16.79-16.51,17.53-.23,29.29-6.07,31.6-15.43s-17-18.11-7.06-21.62,14,6.43,21.62-4.09,16.37-45.34,8.19-55.39a33.43,33.43,0,0,0-3.85-3.93C538.88,135.85,532.36,136.65,527.62,134.72Z"/><path class="cls-12" d="M618.15,162.18c-4.9-21.58-19.95-28.33-32.26-30.11a9.38,9.38,0,0,1,1.15,3.37c1.31,10.52-4.83,25,0,32s17.54,5.26,16.66,19.72-12.27,18-18,30.69-15.33,43.83-1.31,58.72c1.38,1.47,2.65,2.75,3.85,3.91a35.12,35.12,0,0,0,15.87-19.24C609.39,245.45,626.93,200.75,618.15,162.18Z"/><path class="cls-3" d="M640.07,448.39c-2.2-7.46-2.63-25-.87-40.33s3.51-50.4,3.07-55.66-15.79-16.21-21-31.12c-2.3-6.52-1.91-18.74-.17-32.49h0s-11.34,16.31-11,28.2,11.59,31,19.18,39.79,6.78,30.38,4.27,42.08-4.85,54.94-4.85,60.77c0,3.84.68,7.82,2.75,10.7.6-3.83,3.73-7.05,6.89-7.05C641.83,463.28,642.27,455.83,640.07,448.39Z"/><path class="cls-5" d="M279.63,489.77c-4.46.07-11.26.05-21.23-.18a30.12,30.12,0,0,1-19.21-7.11c-2.84,6.51-3.81,9.64,4.66,12.67,11.84,4.28,33.75,1,35.07,0C279.41,494.77,279.6,492.63,279.63,489.77Z"/><path class="cls-3" d="M599.17,461.69c-5.84,7.89-8.19,12.55-10.82,19.28-1.75,4.47-2.51,4.87-.51,6.44l8.65-4.93a116.59,116.59,0,0,1,9-22.26c3.55-6.57,5.88-17.11,7.37-27.26C609.77,446.26,604.6,454.36,599.17,461.69Z"/><path class="cls-3" d="M601.49,367.08c4,7.73,7.15,14.53,8.49,18.62a98.43,98.43,0,0,1,4.79,28.94h0c.9-12.88,3-32-.56-35.08S601.51,367.11,601.49,367.08Z"/><path class="cls-4" d="M595.33,467.15a69.55,69.55,0,0,0-7,13.82c-2.63,6.72-3.06,4.23,4.83,10.37s36.81,4,39.44,0c1.46-2.19.89-6.66.11-11H621.22C609.73,480.38,600,472,595.33,467.15Z"/><path class="cls-5" d="M612.31,485.55c-13.12-1-19.83-4.38-23-6.86-.3.73-.6,1.49-.92,2.28-2.63,6.72-3.06,4.23,4.83,10.37s36.81,4,39.44,0c.79-1.17,1-3,.87-5.14C628.08,486.29,621,486.19,612.31,485.55Z"/><path class="cls-13" d="M702.6,358.26a36.29,36.29,0,0,1-1.92,5.87,16,16,0,0,0,2.22-3.26s-.3,5.55-2,8.76l-1.76,3.21a45.46,45.46,0,0,0,4.06-3.68c1-2.76,2.1-5.74,3.23-8.87,5.56-15.19,2.06-25,2.06-25S705.81,344.22,702.6,358.26Z"/><path class="cls-13" d="M681.52,356.31a56.23,56.23,0,0,0,5.6-9.75S685.66,361,681,367.08l-1.26,1.64c3.3-3.57,6.53-8.05,7.69-12.81C690.12,344.79,691,317,691,317s-4.79,7.95-8.29,15.25S683.32,345.68,681.52,356.31Z"/><path class="cls-13" d="M697.93,342.17a97.54,97.54,0,0,1-6.81,19.45,25.17,25.17,0,0,1-5.31,9.82.1.1,0,0,0,0,0,6.15,6.15,0,0,1-1,1,21.68,21.68,0,0,1-2.92,2.37l-8.77,5.85a29.14,29.14,0,0,0,6.74-1c10.95-6.23,14.64-14.47,17.22-22.93,2.92-9.64,4-33.08,4-33.08S700.27,331.07,697.93,342.17Z"/><path class="cls-6" d="M614.75,416.94a6.53,6.53,0,0,0,1.44-.84c5.63-4.38,5.77-12,4.38-17.24s.81-9.05,2.85-18.12-13.15-24.25-21.93-30.15-21.78-23.4-21.78-23.4h0c8.63,15.18,26.57,47.18,30.27,58.5A97.58,97.58,0,0,1,614.75,416.94Z"/><path class="cls-14" d="M156.63,209.08c6.58-12.28,9.21-27.62,10.08-34.19S177.23,153,183.8,140.27s10.09-37.26,8.77-46.46c-.57-4-3.62-11.63-7-19.34a62.85,62.85,0,0,1-23.65-28c-8.31-14-24.1,3.94-30.24,7.89S115.43,192,116.31,205.57a204.88,204.88,0,0,0,3.87,28.72c5.28-2.16,8.4-4.78,11-5C135.59,228.8,150.06,221.35,156.63,209.08Z"/><path class="cls-2" d="M82.44,40.63c-4.62,2.19-4.39,3.5-6.44,8.76s-5,4.68-6.72,8.77.88,12.57,0,16.65-5.55,10.52-8.47,14.32-6.14,13.73-3.8,21.33,7.89,17,9.06,21.62,3.28,26.31,3.25,34.19a75.51,75.51,0,0,1-3.83,22.79c-2,5.56,4.67,18.71,9.93,22.21s12.56,3.21,19.87,2,17.24-.17,21.62.79,15.78,1.25,21.92-1.38,12.85-12.86,12.85-18.11-.58-26.88,4.09-37.11,15.49-24.84,16.07-31.85,2.93-14.32,1.47-26.31-2.92-22.2-5.55-29.64S161.84,57.43,161.4,52s-1.54-10.3-5.48-10.3-7.45.44-9.86,0l-2.41-.44a20.93,20.93,0,0,0,3.4-5.59,6.89,6.89,0,0,0,.32-4.16s-3.83,3.73-5.15,5a20.73,20.73,0,0,0-.11-6.14c-.55-3.72-2.08-5.8-2.19-4.05s-.76,8.44-1.42,9.75a9.4,9.4,0,0,0-1.42-3.94c-1.1-1.32-2.31-1.32-2.31,1.32a24,24,0,0,1-1.09,6s-9.43-.54-14.36-.32-7.56,1.32-8.77.55-3.39-4.72-2.63-7.89l.77-3.18s-2.74,3.62-3.28,6.24l-.55,2.64s-3.51-3-3.73-5.59l-.22-2.63s-1.53,3.07-.65,5.69a27.14,27.14,0,0,0,3.28,5.92,12.5,12.5,0,0,1-7.12-1.09C93,38,91.16,35.52,90.72,34l-.43-1.53s.43,7.12,2.3,8.87c0,0-3.51-.22-4.82-1.42S83.54,40.1,82.44,40.63Z"/><path class="cls-11" d="M135.32,123.32c-1.17,7-4.38,20.16-4.38,25.42s4.8,25,5.61,30.32,5,18.64,0,24.11-13.8,9.35-17.78,8.61a2.94,2.94,0,0,0-3.62,2c.66.11,1.25.22,1.76.33,4.39,1,15.78,1.25,21.92-1.38s12.85-12.86,12.85-18.11-.58-26.88,4.09-37.11,15.49-24.84,16.07-31.85c.48-5.65,2.08-11.49,1.92-19.82l-34-2.53S136.49,116.3,135.32,123.32Z"/><path class="cls-11" d="M166,65.3c-2.17-5.1-4.28-9-4.63-13.35-.44-5.48-1.54-10.3-5.48-10.3s-7.45.44-9.86,0l-2.41-.44a20.93,20.93,0,0,0,3.4-5.59,6.89,6.89,0,0,0,.32-4.16s-3.83,3.73-5.15,5a20.73,20.73,0,0,0-.11-6.14c-.55-3.72-2.08-5.8-2.19-4.05s-.76,8.44-1.42,9.75a9.4,9.4,0,0,0-1.42-3.94c-1.1-1.32-2.31-1.32-2.31,1.32a24,24,0,0,1-1.09,6s-9.43-.54-14.36-.32-7.56,1.32-8.77.55-3.39-4.72-2.63-7.89l.77-3.18s-2.74,3.62-3.28,6.24l-.55,2.64s-3.51-3-3.73-5.59l-.22-2.63s-1.53,3.07-.65,5.69a27.14,27.14,0,0,0,3.28,5.92,12.5,12.5,0,0,1-7.12-1.09C93,38,91.16,35.52,90.72,34l-.43-1.53s.43,7.12,2.3,8.87c0,0-3.51-.22-4.82-1.42s-4.23.2-5.33.73c-4.62,2.19-4.39,3.5-6.44,8.76s-5,4.68-6.72,8.77c-1,2.42-.54,6.36-.14,10A23.46,23.46,0,0,1,77,62.38S89.3,57,95,60.06s12.27,11.1,21.47,10.23,14.9-10.64,24.4-10.58C150.18,59.76,155.16,65.23,166,65.3Z"/><path class="cls-15" d="M72.93,60.06S57.31,57.72,49.12,49.83s-8.51-20-7.61-29.21S45.18,2.5,46.64,6.29s3.94,20.57,9.57,25,23.7,6.83,25.4,9.78S79.07,57.57,72.93,60.06Z"/><path class="cls-16" d="M56.21,31.26c-5.63-4.4-8.11-21.17-9.57-25C46,4.65,45.12,5.4,44.26,7.51c-.17,7.26.6,18.28,2.67,23.75,2.78,7.32,15.58,15,24.84,16.09a82.83,82.83,0,0,1,9,1.72c1.17-3.49,1.54-6.76.81-8C79.91,38.09,61.83,35.66,56.21,31.26Z"/><path class="cls-15" d="M81.61,41c-1-1.73-7.63-3.29-14.08-5.16A76.54,76.54,0,0,1,63.66,44c-2.2,3.83-4.5,6.92-2.08,5a32.6,32.6,0,0,0,7.08-8.55c1.13-2.31,2.77-2.52,3.11-1.1s-1.82,7.8-3.11,9.65.36,2,3.11-3.51,6-6.2,5.59-4.09S73,50.38,71.77,52.35s3.94,2.63,6.13,0a40.09,40.09,0,0,0,3.89-7.22A7.09,7.09,0,0,0,81.61,41Z"/><path class="cls-3" d="M84.91,212.37c.51,3.84,8.77,12.92,13.37,14.25s10.08-2.86,15.56-1.76,12.36-.12,19.51-6.58,9.2-9,5.26-9.64S83.82,204,84.91,212.37Z"/><path class="cls-17" d="M95.22,210.17c-4.44.58-7.45,6.14,0,7.68s23.45.87,27.82-3.84S107.05,208.64,95.22,210.17Z"/><path class="cls-3" d="M171.33,128.07l-17.6-10.59s-15.49,16.94-17.18,26,.23,19.58,4,28.93.57,28.05-5.56,32.14-33.9,1.46-43,0-12.86.29-16.19-3.22-6.3-11.68-2-17.8A41.89,41.89,0,0,0,82,160.72c.42-9.35,4.45-34.14,4.45-34.14l-21.5,2.28a25.37,25.37,0,0,1,1.13,3.22c1.17,4.68,3.28,26.31,3.25,34.19a75.51,75.51,0,0,1-3.83,22.79c-2,5.56,4.67,18.71,9.93,22.21s12.56,3.21,19.87,2,17.24-.17,21.62.79,15.78,1.25,21.92-1.38,12.85-12.86,12.85-18.11-.58-26.88,4.09-37.11C160,148.33,169.08,135.64,171.33,128.07Z"/><path class="cls-10" d="M131.59,184.1c-2-4.6-9.2-2-12.49.21s-3.29-1.53-7.66-3.94-7.24,3.29-9,4.78-8.77.91-11.76-2.5-7.75-4.69-8.85-2.5-2.53,5-2.53,5h0c-1.14.2-2.09,1.34-2.85,3.32-1.46,3.8.06,7.37,2.77,10.65,2.52,3.05,8.19-.57,9.5,1.18s.59,5.12-.79,10.53a4.23,4.23,0,0,0,.27,3.22,60.46,60.46,0,0,0,7.1-.74c7.3-1.17,17.24-.17,21.62.79a38.94,38.94,0,0,0,6.74.66c.13-2.46-5.42-6.28-4.55-8.76s2.63-3.8,7.46-4.38,6-4.09,6-7.75C134.59,190.08,133.57,188.7,131.59,184.1Z"/><path class="cls-6" d="M178.16,72.33c2.92-.47,9.1-5.37,14.91-6.35s17.31-1.1,23.34,1.31,9.86,2.74,11.72,2.42,3.07.75,1.42,3.93S222.1,85,217.83,87.89s-19.61,9-25.64,7-9.86-5.26-14-5S173.08,91,172.5,93s-3.1-8.07-4.2-12.12-4-17.71-2.05-15S170,73.64,178.16,72.33Z"/><path class="cls-18" d="M230.19,72a55,55,0,0,0-9.4-.53c-7.45.1-20-1.46-25.72.78S186.6,77,180.75,78s-11.11.54-12.93.92c.18.76.35,1.42.48,1.93.43,1.59,1.08,4.11,1.75,6.46,4.07.26,10.34-1.6,14.06.48,5,2.77,8.9,4.18,16.81,4.24s14.81-5.86,21.21-8.12h0a59,59,0,0,0,7.42-10.29A7.84,7.84,0,0,0,230.19,72Z"/><path class="cls-6" d="M86.89,102.79c-.66-7.89-8.55-11.39-11.66-15.12-2.29-2.73-5-6.75-7.11-9.7a71.26,71.26,0,0,1-7.31,11.16c-2.92,3.8-6.14,13.73-3.8,21.33s7.89,17,9.06,21.62,3.28,26.31,3.25,34.19a70.8,70.8,0,0,1-.66,8.94c3.6-5.57,3-14.5,4.2-18.07,1.32-3.94,3.29-6.14,6.79-10.74s.44-5.47,4.39-12.05S87.54,110.68,86.89,102.79Z"/><path class="cls-19" d="M126.56,201.63c4.81-.59,6-4.09,6-7.75,2-3.8,1-5.18-1-9.78a4.37,4.37,0,0,0-.3-.57c.36,1.33.7,3.21-.57,4.69-2,2.34-2.74,3-2.74,3-1,2.92-12,6.79-16.44,7.64a42.74,42.74,0,0,1-14.14,0c-4.6-.73-9.74-3.65-13.47-6.88a15.67,15.67,0,0,1-4.34-7.43c-.18.34-.28.57-.28.57h0c-1.14.2-2.09,1.34-2.85,3.32-1.46,3.8.06,7.37,2.77,10.65,2.52,3.05,8.19-.57,9.5,1.18s.59,5.12-.79,10.53a4.23,4.23,0,0,0,.27,3.22,60.46,60.46,0,0,0,7.1-.74c7.3-1.17,17.24-.17,21.62.79a38.94,38.94,0,0,0,6.74.66c.13-2.46-5.42-6.28-4.55-8.76S121.73,202.21,126.56,201.63Z"/><path class="cls-3" d="M167.76,69.71c-2.63-7.46-5.92-12.28-6.36-17.76s-1.54-10.3-5.48-10.3-7.45.44-9.86,0l-2.41-.44a20.93,20.93,0,0,0,3.4-5.59,6.89,6.89,0,0,0,.32-4.16s-3.83,3.73-5.15,5a20.73,20.73,0,0,0-.11-6.14c-.55-3.72-2.08-5.8-2.19-4.05s-.76,8.44-1.42,9.75a9.4,9.4,0,0,0-1.42-3.94c-1.1-1.32-2.31-1.32-2.31,1.32a24,24,0,0,1-1.09,6s-9.43-.54-14.36-.32-7.56,1.32-8.77.55-3.39-4.72-2.63-7.89l.77-3.18s-2.74,3.62-3.28,6.24l-.55,2.64s-3.51-3-3.73-5.59l-.22-2.63s-1.53,3.07-.65,5.69a27.14,27.14,0,0,0,3.28,5.92,12.5,12.5,0,0,1-7.12-1.09C93,38,91.16,35.52,90.72,34l-.43-1.53s.43,7.12,2.3,8.87c0,0-3.51-.22-4.82-1.42s-4.23.2-5.33.73c-4.62,2.19-4.39,3.5-6.44,8.76s-5,4.68-6.72,8.77a11.87,11.87,0,0,0-.59,4.9c1.79,3.3,3.08,5.62,3.08,5.62V68c3.07,0,9-13.59,13.14-16s11.62-4.58,18-3,20.15.78,26.08,0,17.09-2.09,20.59,3,8.71,17.82,9.3,21.54c.38,2.38,5.78,1.13,10-.24C168.52,72.06,168.15,70.84,167.76,69.71Z"/><path class="cls-6" d="M167.76,69.71c-.25-.71-.51-1.37-.77-2a7,7,0,0,0-5.81-.83c-5.91,1.76-2.19,5.48-2,8.11s1.23,7.45-1.36,10.08-10.26,3.84-14.64,10.25-4.6,14.3-4.6,21.53,4.6,12.27,1.53,18-5.48,9.86-1.53,12.71,10.52,7.45,10.73,11.83c.13,2.5,2,6.28,3.59,9.07a42.55,42.55,0,0,1,2.84-10.89c4.68-10.24,15.49-24.84,16.07-31.85s2.93-14.32,1.47-26.31S170.39,77.15,167.76,69.71Z"/><path class="cls-18" d="M67.42,62.78c-2.23-.26-7.73,1-13.73,0S36.75,58.55,29,60.15s-9.93,5.7-14.46,7S3.29,67.9,4.46,70.23s13.29,9.52,17.39,12.94,17.09,9.27,27.46,3.28,15.92-10.66,18.85-11S74.88,63.66,67.42,62.78Z"/><path class="cls-6" d="M68.66,74.37c-4.41-1-11.65,5.41-24.42,9.21-7.53,2.24-18.69-.7-26.59-3.49,1.69,1.17,3.19,2.24,4.2,3.08,4.08,3.43,17.09,9.27,27.46,3.28s15.92-10.66,18.85-11a2,2,0,0,0,1.15-.63A.83.83,0,0,0,68.66,74.37Z"/><path class="cls-6" d="M29,60.15c7.75-1.6,18.7,1.61,24.69,2.63s11.5-.26,13.73,0a4.74,4.74,0,0,1,3,1.4l1.18,2.38-1.19-4.43L64.36,60.3s-13-3.51-20.6-3.51-14.95.58-20.84,5.55h0A22,22,0,0,1,29,60.15Z"/><path class="cls-15" d="M156.63,44.84s11-4.75,14.06-6.65S181.18,32,181.33,26.31s-.59-19.24,2-17.49,11.19,15.49,11.51,25.86-3.77,17.1-9.61,20.89-18.11,9.94-21.33,7.6S153.27,55.15,156.63,44.84Z"/><path class="cls-16" d="M187.08,13.42a18.55,18.55,0,0,0-3.71-4.6c-2.63-1.75-1.9,11.84-2,17.49s-7.6,10-10.64,11.88-14.06,6.65-14.06,6.65A14.2,14.2,0,0,0,156.81,55c2.67.54,6.38-1.51,10.93-3.24,6.86-2.64,17.67-10.53,20.16-19.72C189.37,26.59,188.73,19.54,187.08,13.42Z"/><path class="cls-4" d="M138.17,210.14c-8.62,4.41-17.42,2.08-28.94-.22s-18.07,1.53-27.6,1.53C72.5,211.45,67,199.06,66.49,198c2,5.41,5.72,11.14,8.93,13.28,5.26,3.5,12.56,3.21,19.87,2s17.24-.17,21.62.79,15.78,1.25,21.92-1.38c5.15-2.2,10.69-9.75,12.35-15.24C148.54,201.31,143.79,207.26,138.17,210.14Z"/><path class="cls-20" d="M109.68,199.18a20.41,20.41,0,0,0,6.69-3c2.57-2,4.21-4.82,6-6.47s4.45-1.79,5.26-1.26a1.92,1.92,0,0,1,.89,2.19S126.23,196.11,109.68,199.18Z"/><path class="cls-20" d="M81.78,189.51s-.59-2.72,1.49-3.47,5.15,2.62,5.48,4.27,4.8,8.12,8.65,8.58C97.4,198.89,85.34,196.05,81.78,189.51Z"/><path class="cls-15" d="M159.17,58.87c2.74-.56,11.85-2.41,12.16-2.08s5.34-4.62,1.78-7.72c-2.13-1.85-4-6.2-5.14-9.41l-1.45.71a16.88,16.88,0,0,0,.36,2.45c.88,4,4.67,9.79,4.45,10.22s-3.87.73-5.72-1.45-1.36-6.15-2.24-9.75h0l-1,.47a42.37,42.37,0,0,0-.15,5.45c.15,4.22,2.19,5.37.88,7.35s-4.38-1.92-4.68-6a11.34,11.34,0,0,1,1.11-5.49c-1.69.75-2.88,1.26-2.88,1.26A14,14,0,0,0,159.17,58.87Z"/><path class="cls-6" d="M66.21,95.29a9.33,9.33,0,0,1,9.31,3.5c2.19,2.62,4.83,8,3.51,10.52S71.9,114,67.85,111.93,57.44,101.2,66.21,95.29"/><path class="cls-21" d="M107.74,83.14c-3.14-3.41-2.42,11.6-4.44,19.06s-2.42,11.12-3.23,21.89.2,28.48-.81,35-.2,17,4.24,13.5,8.07-12.1,10.69-13.5,6.76-10.6,5.91-21.12-4.28-24.55-2.47-31.34,3.54-19.72,2.58-27.18-4-6.13-6,0S111.38,87.09,107.74,83.14Z"/><path class="cls-6" d="M222.88,422.24a5.06,5.06,0,0,0,3.74-1.47c4.34-4.58,4.67-9.93,3-17.24s.8-8.77,4.6-15.49-1.46-17.81-7.59-20.46c-4-1.71-10.28-2.93-15.31-5.36.14,1,.26,1.92.33,2.87.88,11.4,8.33,20.61,9.21,23.24s3.5,12.27,2.63,28.48A54.31,54.31,0,0,1,222.88,422.24Z"/></svg>