<svg id="Layer_1" data-name="Layer 1" xmlns="http://www.w3.org/2000/svg" viewBox="0 0 256 256"><defs><style>.cls-1{opacity:0.3;}.cls-2{fill:#c3beb0;}.cls-3{fill:#9c9a98;}.cls-4{fill:#d2cfc5;}.cls-5{fill:#b1ada5;}.cls-6{fill:#716e69;}.cls-7{fill:#80807f;}.cls-8{fill:#d4d1c9;}.cls-9{fill:#faf31e;}.cls-10{fill:#fff5d0;}.cls-11{fill:#f5dc00;}.cls-12{fill:#d6cc31;}.cls-13{fill:#fdf74a;}.cls-14{fill:#f8a736;}.cls-15{fill:#302e2a;}.cls-16{fill:#98938d;}.cls-17{fill:#fff;}.cls-18{fill:#49433a;}.cls-19{fill:#5f5b52;}</style></defs><ellipse class="cls-1" cx="117.15" cy="226.15" rx="71.89" ry="10.28"/><path class="cls-2" d="M101.44,219.4A38.58,38.58,0,0,0,104,206.61c-.08-2.9.9-4,.9-4s4.12,1.37,4.42,2.13,0,.78,0,.78-2.25,8.63-3.12,11.49S101.44,219.4,101.44,219.4Z"/><path class="cls-2" d="M111.05,223.22c-4.48.85-6.31,1.61-6.57.52a7.2,7.2,0,0,1,.61-3.17l-7,5.31A21.15,21.15,0,0,0,101,226c1.31-.08,4.6,1.6,8.5,1.36S113.13,222.83,111.05,223.22Z"/><path class="cls-3" d="M76.37,228.35a6.37,6.37,0,0,1,2.89-3.55c2.46-1.6,4.23-.48,4.49-.22s.31,2.72-.64,3.11-1.52-.62-3.42-.66a3.1,3.1,0,0,0-2.78,1.07A3.65,3.65,0,0,1,76.37,228.35Z"/><path class="cls-3" d="M117.15,226.43a5.08,5.08,0,0,0-2.29-2.82c-2-1.27-3.36-.38-3.56-.17s-.27,1.94.48,2.25,1-.43,2.74-.31a4.1,4.1,0,0,1,2.2.85A3.4,3.4,0,0,0,117.15,226.43Z"/><path class="cls-4" d="M134.36,219.4a38.58,38.58,0,0,0,2.56-12.79c-.07-2.9.9-4,.9-4s4.12,1.37,4.42,2.13,0,.78,0,.78S140,214.17,139.12,217,134.36,219.4,134.36,219.4Z"/><path class="cls-4" d="M135.2,217.31c-1.27,3.69-2.24,5.32-9.89,6s-9.33,1.08-9.66,2.06a4.2,4.2,0,0,0,.49,2.93c.27.21,2.89,0,9.22-.79s8.36-1.11,10.31-2.68,3.58-8.27,3.58-8.27Z"/><path class="cls-4" d="M144,223.22c-4.47.85-6.31,1.61-6.57.52a7.35,7.35,0,0,1,.61-3.17l-7,5.31a21.15,21.15,0,0,0,2.89.08c1.32-.08,4.6,1.6,8.5,1.36S146.06,222.83,144,223.22Z"/><path class="cls-5" d="M109.29,228.35a6.37,6.37,0,0,1,2.9-3.55c2.46-1.6,4.23-.48,4.49-.22s.3,2.72-.65,3.11-1.52-.62-3.42-.66a3.1,3.1,0,0,0-2.78,1.07A3.65,3.65,0,0,1,109.29,228.35Z"/><path class="cls-5" d="M150.07,226.43a5.08,5.08,0,0,0-2.29-2.82c-1.95-1.27-3.36-.38-3.56-.17s-.27,1.94.48,2.25,1-.43,2.74-.31a4.17,4.17,0,0,1,2.21.85A2.85,2.85,0,0,0,150.07,226.43Z"/><path class="cls-2" d="M102.28,217.31c-1.27,3.69-2.25,5.32-9.9,6s-9.33,1.08-9.65,2.06a4.14,4.14,0,0,0,.49,2.93c.27.21,2.89,0,9.22-.79s8.35-1.11,10.31-2.68,3.58-8.27,3.58-8.27Z"/><path class="cls-6" d="M108.36,208.85c2.35-4.91,4.35-8.87,19.87-11.68l-41-4.16s2.77.58,6.15,4.39c3.71,4.19,5,9.25,7.48,11.94S106.88,211.93,108.36,208.85Z"/><path class="cls-7" d="M110.66,198.5c13.13.2,19.16,5.56,23.22,7.31,4.64,2,8.24,1.82,8.92-1.74.64-3.36-1.54-8.42,3-11.06S110.66,198.5,110.66,198.5Z"/><path class="cls-3" d="M67.45,135.37c-3.36-.42-7.29,3.38-9.75,8.7-3,6.48-4.48,19.44-2.47,24.12s19.41,19.25,26.42,22.23A28.36,28.36,0,0,0,93.86,193Z"/><path class="cls-5" d="M132.15,195.73c-27.34,5.91-41.75,0-48.45-4.89S59.54,168,61.29,145.16c1-12.51,10.83-19.87,13-21.88a8.33,8.33,0,0,0,2.41-4.65s2.26-3.11,18.41-1.2,20.66,9.33,20.66,9.33a40.68,40.68,0,0,0,4.09,8.73c3.08,4.78,17.21,25.29,23.9,32.51s18,9.14,18,9.14S148.82,192.11,132.15,195.73Z"/><path class="cls-3" d="M63.7,163.57s9.15,19.92,23.81,25.76,28.73,4.34,28.57,3.15-4.28-8-4.28-8,2.88,1.44,2.88.45-7.11-10.22-9.09-21.77c0,0,7.32,16,16.56,22.51s10.79,6.77,10.79,6.77.8,6.23-21.52,4.58-27.11-7-27.11-7-6.73-4-10.86-9.7S63.7,163.57,63.7,163.57Z"/><path class="cls-8" d="M68.94,134.75c-6.35,3.76-7.17,17.73-1.76,30.16,4.69,10.75,12,19.77,21.2,24.34s19.54,3.61,20.08,3.18-1.6-8.81-4.89-17.1c0,0,5.1,6.27,5.63,6.27s.74-7.12-1.06-19.76-3.19-19.66-7-21.67S77,130,68.94,134.75Z"/><path class="cls-7" d="M134.38,189.67c33.14-13.92,50.39-22.52,61.9-31.34S210,140.49,210,140.49s1.92,5.09-1.17,11.68a24.16,24.16,0,0,1-8.81,9.88s.95,2.66-3.3,5.95-11.15,4.46-11.15,4.46a14.58,14.58,0,0,1-6.8,6.69c-5.1,2.55-11.58,5.32-11.58,5.32s1.06,2.86-29.21,10.62-46.85.53-52.94-3.33c-9.4-5.94-15.73-17-15.73-17A47.54,47.54,0,0,0,91.9,193.63c12.39,4.9,34.55,2.13,35.5,1.6s-9.38-7.9-9.38-7.9l6.94,3.4s-23-16.93-21.27-43.51Z"/><path class="cls-5" d="M115.25,81.63c-14.83-3.95-23.9,3.08-28.78,8.18s-5.53,8.39-7.55,16.36a103.52,103.52,0,0,0-2.55,15.09c-.1.63,1.81,13.49,18.17,14.66s20.71-7.76,21.35-9.56S121.2,114,123,108.51a45.19,45.19,0,0,0,1.91-17.1C124.5,86.09,118.44,82.48,115.25,81.63Z"/><path class="cls-9" d="M106.84,80.47c-11.66,0-25.69,20.71-23.14,34s20.19,22.41,32.19,11.9c0,0,2.43-5.77,4-9.74a78.69,78.69,0,0,0,3.76-10.43c1.24-4.48,2-11.1,1-16.13s-6.43-7.5-9.69-8.49A36.92,36.92,0,0,0,106.84,80.47Z"/><path class="cls-10" d="M99.74,83.44C93,87.58,86.25,94.17,83.39,109.36s10.41,22.52,17.31,23.16,13.7-3.61,15.19-6.16l2.33-5.59s-6.9,5.37-15.18,3.25-17.53-7.33-14.56-21.67S99.74,83.44,99.74,83.44Z"/><path class="cls-11" d="M109.19,80.92c1-3.83-4.15-7.86-8.72-19.66S99.2,37,99.2,37s-.21.32-.21,5.85a34.79,34.79,0,0,0,6,20.07c5.1,7.86,9.34,14.24,9.24,19.44,0,0-.06.17-2.16-.18A4.59,4.59,0,0,1,109.19,80.92Z"/><path class="cls-12" d="M113.05,81.59s3-10.31-.28-20.65c-5.86-18.69-3.09-22-3.09-24.87,0,0,5.88,19,7.58,28.06s.72,13.56-1,18.41c0,0-.52.5-2.11,0S113.05,81.59,113.05,81.59Z"/><path class="cls-12" d="M101.65,40.38s-2.76,10.7,1,20.58,11,20.54,11,20.54.11-3.29.42-9.13-3.45-9.09-6-15.46-2.55-7.76-2.55-7.76-1.27,1.38.11,8.18c0,0-1.78-2-2.53-9.38A48.2,48.2,0,0,0,101.65,40.38Z"/><path class="cls-13" d="M122.69,86.85c-.76-2.11,5-9.55.94-26.54s-7.54-18-5.63-28.79,11.9-14.77,15.51-14.66c0,0-15.93-1-20.18,17.42a18.12,18.12,0,0,1,2.87-9.88s-4.15,3-4.46,13.92,4.35,19.12,5.63,29.21-2,14.68-2,14.68a22.66,22.66,0,0,0,3.91,3.27A11.58,11.58,0,0,0,122.69,86.85Z"/><path class="cls-11" d="M115.13,20.26s-6.42,3.47-6.79,18.06C108,50.85,113.59,57.25,115,68.25S114.82,82,114.82,82s-1.75,1.33-5.6-.93c0,0,2.94-4,.92-16.39S105,47.35,107,35.77,115.13,20.26,115.13,20.26Z"/><path class="cls-12" d="M106.12,81.71C100.66,77.27,96.23,68.28,94.21,54c0,0,3,10.3,8.81,17.74s10,9.77,10,9.77.53,1.17-2.34.85A44.46,44.46,0,0,1,106.12,81.71Z"/><path class="cls-11" d="M105,81.45s-4.25-2-9.13-10.2-5.53-11.47-5.53-11.47a56.65,56.65,0,0,0,8.18,12.74c5.31,6.17,9.46,8.4,9.46,8.4a3,3,0,0,1-1.9.67C105,81.59,105,81.45,105,81.45Z"/><path class="cls-11" d="M90.6,83a11.85,11.85,0,0,1,9.45-1.27c5.21,1.59,4.84-.4,4.84-.4S102,78.79,97.61,75.5s-6-4.78-6-4.78a18,18,0,0,0,.85,1.91,15.2,15.2,0,0,0,3.4,3.72c2.33,2,3.5,2.87,3.5,2.87A48.65,48.65,0,0,1,95,75.92c-2.44-2-2.55-2.12-2.55-2.12s-.21.11,1.49,2.12a28.32,28.32,0,0,0,5.2,4.25,9.56,9.56,0,0,0-4.25,0c-2.33.53-3,1.49-3,1.49l.74-.11A14,14,0,0,0,90.6,83Z"/><path class="cls-14" d="M105.69,99.8c-7-4.43-21.67,4.14-17.1,14.13s14.55,5.49,18,0C109.84,108.62,109.2,102,105.69,99.8Z"/><path class="cls-2" d="M100.28,92c-.12-1,2.61-5.1,7.83-4.78s7.41,6.06,7.41,6.59-2.19,5.1-8.35,4.78A7,7,0,0,1,100.28,92Z"/><path class="cls-15" d="M103.32,92.36a4.43,4.43,0,0,1,4.62-3.11c2.43.27,4,3.56,4,3.91a4.41,4.41,0,0,1-4.62,3.56C103.64,96.54,103.24,92.72,103.32,92.36Z"/><path class="cls-6" d="M122.72,109.4c-1.52-.47-3.43-6.1-3.64-9.5s9,.54,9,.54.95.21,0,3.82S122.72,109.4,122.72,109.4Z"/><path class="cls-16" d="M119.08,96.29c2.65-2.23,4.14-3,5.63-6.26A13.37,13.37,0,0,1,132,96.29a12,12,0,0,1-1,12c-1.59,2.23-2.33,2.23-2.33,2.23a1.29,1.29,0,0,1-.22-.53c0-.22,0-6.91-2.65-9.35a2.16,2.16,0,0,0-1.12.23,7,7,0,0,1-2.39.51,9.44,9.44,0,0,1-3.29-1.49C119,99.69,119.08,96.29,119.08,96.29Z"/><path class="cls-17" d="M106.86,91.19c-.88-1.32-2.65-.21-2.12,1.28S108.14,93.11,106.86,91.19Z"/><path class="cls-3" d="M210,140.45s-6.67,4.66-14.34,9c-7.44,4.18-22,9-36.65,10.13-20,1.59-26.86-1.9-26.86-1.9l7.14,34.1s19.06-5.71,25.69-9,7.05-5.11,7.05-5.11,10.64-2,13-8.74c0,0,11-3.29,12.5-9.27,0,0,6.83-4.4,10.29-9S210,140.45,210,140.45Z"/><path class="cls-7" d="M142.24,164.39a130.92,130.92,0,0,0,34.73-3.3c21.93-5.09,30.48-9.59,33-15.79,0,0,.52,3.56-3,7.68s-9.53,6.63-9.53,6.63l-.6,1.51s1.77-3.43-1.31-2.68-7,3-27.52,6.27-26.13,1.06-26.13,1.06Z"/><path class="cls-7" d="M194.92,163.57c-2.86,2.73-17.63,7.19-49.5,7.51l2.13,1.38a169.92,169.92,0,0,0,22-1.17c10.2-1.38,12.32-1.7,13.07-.64s-.8,2.61-.8,2.61a8.6,8.6,0,0,0,3.5-4.39,33.17,33.17,0,0,0,7.58-3.69Z"/><path class="cls-7" d="M179.88,174.63c-4.39,2.29-24.47,4.1-24.47,4.1l2.55.74s9.77-.85,10.73-.85,1.71.34.64,1.66c0,0,2.12-1.23,2.65-2.61a34.9,34.9,0,0,0,3.59-1A19,19,0,0,0,179.88,174.63Z"/><path class="cls-7" d="M124.39,142c-5.91-7.74-15.93-2.62-18.59,1s-1.06,29.62,17.63,43.78,37.29-.55,37.4-1.2-.22-.67-.22-.67,4.6.09,7.26-2.53c0,0,1.39-1.2.88-1.66-.23-.2,3.92-.4,3.48-4.75,0,0-.21-.43-4.83-.76-2.42-.17-8.48.35-17.62-4.88S126.3,144.47,124.39,142Z"/><path class="cls-3" d="M106.23,141.33c-4,3.25-3.09,12.33.42,20.61,3.13,7.41,13.92,20.51,23.58,23.91s13.71,0,13.71,0,4.25.1,6.05-1.07,2.13-2,2.13-2,5.2-1.28,6.69-3.3,1.48-2.63,1.48-2.63,3.08-.94,3.62-1.86c0,0-13.16-3.13-18.9-9.2s-19.13-22.11-23-27C120.39,136.66,114.69,134.39,106.23,141.33Z"/><path class="cls-7" d="M119.19,161.63c7.11,14.23,20,22.2,22.09,24,.85.72-.33,1.44-.33,1.44a11.36,11.36,0,0,0,3-1.22,27.55,27.55,0,0,0,4.64-.48,34.9,34.9,0,0,1-6.66-2.92C129.38,175.65,119.19,161.63,119.19,161.63Z"/><path class="cls-7" d="M150.39,184.52c1.2-1,1.2-1.44-4.43-5.26s-14.66-11.58-17.11-16.57a110.1,110.1,0,0,0,14.56,12.53c8.92,6.48,11.8,6.14,13.33,5.83a8.9,8.9,0,0,1-4.52,1.61,3.18,3.18,0,0,1-.48.66A6.86,6.86,0,0,1,150.39,184.52Z"/><path class="cls-7" d="M139.05,164.92s3.4,3.61,12.32,8.71c6.72,3.84,7.69,5.5,7.69,5.5a7.06,7.06,0,0,0,1.24-2.31,13.42,13.42,0,0,0,3-1.27s-1.72.95-5,0S144.57,169.06,139.05,164.92Z"/><path class="cls-2" d="M126.58,90.85c-1.27-.84-1.45-.9-1.72-1.26s-.73-1.24-.73-1.24a4.75,4.75,0,0,0-2.89,2c-.74,1.47.32,3.28,1.6,2.64S126.58,90.85,126.58,90.85Z"/><path class="cls-18" d="M123.19,90.56c-1.37,0-1.23.93-1,1.12s.75-.11.9-.56S123.19,90.56,123.19,90.56Z"/><path class="cls-19" d="M119.08,99.9a6.78,6.78,0,0,0,1.45.85,5.34,5.34,0,0,0,1.84.64,7.43,7.43,0,0,0,2-.38c.9-.3,1.38-.45,1.48-.36a5.43,5.43,0,0,1,1.36,2,8.67,8.67,0,0,1,.69,2.12,11.9,11.9,0,0,1-.75,1.37,22.93,22.93,0,0,0-1.73-3.14c-.36-.24-1.71.38-3,.41s-3.14-1.54-3.14-1.54Z"/><path class="cls-6" d="M133.05,99.24a13.54,13.54,0,0,1-1.2,7.79c-1,2.14-2.14,3.12-3.1,3.5a.85.85,0,0,1-.22-.53,22.64,22.64,0,0,0-.68-5.52,9.14,9.14,0,0,1,.82,2.29s.94,0,1.87-3.15a68.38,68.38,0,0,0,1.37-6.79C132,96.72,132.85,97.75,133.05,99.24Z"/><path class="cls-18" d="M119.08,99.9a12.33,12.33,0,0,0,3.12,1.48,5.94,5.94,0,0,0,2.2-.37c.46-.18,1.36-.47,1.48-.36a4.45,4.45,0,0,1,1.36,2,19.91,19.91,0,0,1,.69,2.12l-.26.52s-1.09-3.33-1.8-3.87a.64.64,0,0,0-.47,0,8.84,8.84,0,0,1-3.11.68,6.79,6.79,0,0,1-3.17-1.74Z"/><path class="cls-6" d="M106.15,211c2.29-.9,2.72-1.94,2.72-1.94a1.15,1.15,0,0,0,1.25.49c.81-.21-.11-1.57,2.06-5a12.52,12.52,0,0,1,6-4.75s-6,1.33-8.58,3.88S106.15,211,106.15,211Z"/><path class="cls-7" d="M146.66,192.77c-2.55,1.65-2.83,4.6-2.69,6.51s.56,2.39.4,3.17-1.14,0-1.14,0,.56,4.23-3.58,4.59-.27-9,2-11.28a11.46,11.46,0,0,1,4.66-3C146.74,192.65,146.66,192.77,146.66,192.77Z"/><path class="cls-5" d="M63.94,153.38c.35,2.13,3.58,2.67,4.68,1.44a3.17,3.17,0,0,0,2.93,1.5c2.24,0,2.54-1,2.54-1s.66,1.62,3.36,1.83a3,3,0,0,0,3.18-1.52c.38-.91,0-2.17-.33-1.79a3.15,3.15,0,0,1-2.6,1.41c-2.48-.22-2.91-2.06-3.25-2.09s-1.14.9-3,.87-2.15-1.31-2.55-1.34-.82,1-2.55.77-2.6-2.35-2.6-2.35Z"/><path class="cls-5" d="M87.55,154c-.16.22,0,3.56,4.1,3.56s3.58-3.34,3.58-3.34A.21.21,0,0,0,95,154a5.82,5.82,0,0,1-3.61,1.48A4.51,4.51,0,0,1,88,153.86C87.64,153.63,87.55,154,87.55,154Z"/><path class="cls-5" d="M85.28,168.47c-.17.21,0,3.55,4.09,3.55S93,168.69,93,168.69a.21.21,0,0,0-.24-.22A5.94,5.94,0,0,1,89.1,170a4.59,4.59,0,0,1-3.39-1.57C85.37,168.14,85.28,168.47,85.28,168.47Z"/><path class="cls-5" d="M85.28,182.05c-.17.22,0,3.56,4.09,3.56S93,182.28,93,182.28a.22.22,0,0,0-.24-.23,5.87,5.87,0,0,1-3.61,1.49A4.55,4.55,0,0,1,85.71,182C85.37,181.73,85.28,182.05,85.28,182.05Z"/><path class="cls-5" d="M73.22,173.73c-.16.21,0,3.55,4.1,3.55S80.9,174,80.9,174a.21.21,0,0,0-.24-.22,5.82,5.82,0,0,1-3.61,1.48,4.59,4.59,0,0,1-3.39-1.57C73.31,173.4,73.22,173.73,73.22,173.73Z"/><path class="cls-5" d="M80.48,174c-.16.22,0,3.56,4.1,3.56s3.58-3.34,3.58-3.34a.21.21,0,0,0-.24-.22,5.82,5.82,0,0,1-3.61,1.48,4.51,4.51,0,0,1-3.39-1.57C80.57,173.65,80.48,174,80.48,174Z"/><path class="cls-5" d="M93.9,162.48c-.16.22,0,3.56,4.1,3.56s3.58-3.33,3.58-3.33a.22.22,0,0,0-.24-.23A5.87,5.87,0,0,1,97.73,164a4.55,4.55,0,0,1-3.39-1.58C94,162.16,93.9,162.48,93.9,162.48Z"/><path class="cls-5" d="M69.36,161.35c-.16.22,0,3.56,4.09,3.56S77,161.58,77,161.58s0-.25-.24-.23a5.83,5.83,0,0,1-3.61,1.49,4.59,4.59,0,0,1-3.39-1.58C69.45,161,69.36,161.35,69.36,161.35Z"/><path class="cls-5" d="M76.62,161.51c-.16.22,0,3.56,4.09,3.56s3.58-3.34,3.58-3.34a.21.21,0,0,0-.24-.22,5.75,5.75,0,0,1-3.6,1.48,4.57,4.57,0,0,1-3.4-1.57C76.71,161.19,76.62,161.51,76.62,161.51Z"/><path class="cls-5" d="M67.26,142.43c-.19.19-.41,3.53,3.69,4s3.92-2.93,3.92-2.93a.22.22,0,0,0-.22-.25,5.78,5.78,0,0,1-3.74,1.09,4.57,4.57,0,0,1-3.21-1.93C67.38,142.11,67.26,142.43,67.26,142.43Z"/><path class="cls-5" d="M74.42,143.44c-.19.2-.41,3.53,3.69,4S82,144.48,82,144.48a.21.21,0,0,0-.22-.24,5.8,5.8,0,0,1-3.74,1.08,4.57,4.57,0,0,1-3.21-1.92C74.54,143.12,74.42,143.44,74.42,143.44Z"/><path class="cls-7" d="M57,170.79A65.3,65.3,0,0,0,70.32,183c5.75,4.21,7.8,5.75,11.11,7.35s4.14,1.59,4.14,1.59A52.3,52.3,0,0,1,73.88,181c-4.56-6.26-7.61-10.68-10.28-18.2a43.62,43.62,0,0,1-2.15-19.13,18.83,18.83,0,0,1,2.15-7.14A16.15,16.15,0,0,0,61,138.9L60.06,140a40.26,40.26,0,0,0-1.47,20.69c2.33,10.8,9.71,18.82,9.87,19.1s-2.91-1.25-6.56-4.41A53.22,53.22,0,0,1,57,170.79Z"/><path class="cls-8" d="M81,107.3c-1.87,8-1,13.42-4.09,16.55s-9.72,9.57-12.16,16.64-.31-.51,10.71-1,28.8,4.47,28.8,4.47-.09-.47-1.61-4.31-13.54-6.72-18.6-13.37S81,107.3,81,107.3Z"/><path class="cls-10" d="M111.62,170.16c11.12,13.49,16.9,15.47,21.62,16.58s8.78.75,8.68-.26-3.91-3-9.88-8.25c0,0,4,3.94-.86,3.94s-10.51-3.64-14.4-7.07A54.6,54.6,0,0,1,111.62,170.16Z"/><path class="cls-10" d="M134.31,177.33c7.63,5.87,12.37,8.22,14.57,7.95s3.35-1.13,1.82-2.82-9.37-6.64-9.37-6.64,3.21,2.57.2,3.48S134.31,177.33,134.31,177.33Z"/><path class="cls-10" d="M143.41,175.22s5.9,5.35,9.93,5.93,6-.38,5.72-2-8.47-5.95-8.47-5.95,3.65,2.09.11,3.4S143.41,175.22,143.41,175.22Z"/><path class="cls-19" d="M185.75,172.67s-.81,2.44-4.57,5.4-13.81,6.32-13.81,6.32.28,1.76-8.1,4.6-12.79,3.9-12.79,3.9-3.63,1.93-9.74,1.49-15.79-4.9-24-16.7a52.26,52.26,0,0,1-9-23.66s2,13.71,9.33,22.77,20.79,15,26.86,14.76,5.46-4.13,5.46-4.13,4.9,2.12,8.45-.35.22-3.94.22-3.94,5,1.47,9.2-.16,2.88-4.18,2.88-4.18,5.74-.56,6.06-2.87c0,0,2.17,2,6.21,1s6-6.12,6-6.12,6.38-.25,10.52-3.27,3.62-6.69,3.62-6.69,3.74-1.14,7.92-6.46,4.1-8.62,4.1-8.62a19.54,19.54,0,0,1-3.83,10.38c-3.71,4.89-6.65,6.2-6.65,6.2s1.2,3.05-4.17,6.71A19.78,19.78,0,0,1,185.75,172.67Z"/><path class="cls-19" d="M63.6,136.5s-3.58,6.36-1.79,18.81S71.28,178,76,183.1a106.92,106.92,0,0,0,9.32,8.82,37.43,37.43,0,0,1-9.08-4.64c-4.26-3.06-4.62-3.36-4.62-3.36s3.83,2.55,3.91,1.85-9.1-8.92-13.37-21.56-2.27-22.75-.28-26.28Z"/><path class="cls-7" d="M139.27,159.39a30.8,30.8,0,0,0,8.58,8.8c5.5,3.66,10.12,5.9,16.06,6.79a76.45,76.45,0,0,0,8.32.94s1.53,1.78,5.42,1.12a5.31,5.31,0,0,0,4.47-4.07s-.36,2.21-7.59,1.38-15-2.39-23-7.53-8.63-7.06-8.63-7.06Z"/><path class="cls-19" d="M98.32,197c9.78,2.05,15.14.72,20.74,2.44a9.09,9.09,0,0,0-3.84,1.74s-.24-.69-7.5-1.63S98.32,197,98.32,197Z"/></svg>