<svg xmlns="http://www.w3.org/2000/svg" viewBox="0 0 110 40"><defs><style>.cls-1{isolation:isolate;}.cls-2{fill:#fff;}.cls-3{fill:#a86216;}.cls-4{mix-blend-mode:screen;}.cls-5{fill:#d88d44;}</style></defs><g class="cls-1"><g id="Layer_1" data-name="Layer 1"><path class="cls-2" d="M22.36,7C13.09,4.36,4.77,14.16,4.77,14.16s.49,13.3,9.17,16.65c7.76,3,15.26-.62,17.59-7.21S30.39,9.19,22.36,7Z"/><path d="M22.53,6.35a12.69,12.69,0,0,0-3.37-.46c-8.09,0-14.59,7.54-14.86,7.87l-.16.18v.24c0,.56.61,13.75,9.56,17.21a16.13,16.13,0,0,0,5.77,1.1,13.13,13.13,0,0,0,12.63-8.68,13.28,13.28,0,0,0-.75-10.49A14,14,0,0,0,22.53,6.35Zm8.41,17a11.9,11.9,0,0,1-11.46,7.86,14.73,14.73,0,0,1-5.32-1C6.6,27.31,5.53,16.17,5.41,14.38c1-1.14,6.91-7.24,13.75-7.24a11,11,0,0,1,3,.41,12.77,12.77,0,0,1,8.07,6.35A12,12,0,0,1,30.94,23.39Z"/><path class="cls-3" d="M20.48,11.56a8.8,8.8,0,0,0-8.65,9,8.8,8.8,0,0,0,8.65,9,8.8,8.8,0,0,0,8.65-8.95A8.8,8.8,0,0,0,20.48,11.56Z"/><ellipse cx="20.48" cy="21.3" rx="6.03" ry="6.24"/><g class="cls-4"><path class="cls-2" d="M16.79,13.94a3.23,3.23,0,1,0,3.12,3.23A3.18,3.18,0,0,0,16.79,13.94Z"/></g><path class="cls-2" d="M82.35,5.8A15.47,15.47,0,0,0,71.44,24.54c2.39,8.75,11.28,12.13,19.62,9.25,9.34-3.23,14.1-18.91,14.1-18.91S93.89,2.38,82.35,5.8Z"/><path d="M86.48,4.58a15.12,15.12,0,0,0-4.31.62C73.54,7.76,68.56,16.32,70.85,24.7c1.79,6.61,7.3,10.72,14.35,10.72a18.52,18.52,0,0,0,6.06-1c9.54-3.3,14.3-18.67,14.49-19.32l.11-.33-.24-.26C105.26,14.06,96.6,4.58,86.48,4.58ZM90.85,33.2a17.1,17.1,0,0,1-5.65,1c-6.47,0-11.51-3.76-13.16-9.8-2.1-7.73,2.5-15.63,10.48-18a13.79,13.79,0,0,1,4-.57c8.66,0,16.51,7.7,18,9.22C103.7,17.32,99,30.37,90.85,33.2Z"/><path class="cls-3" d="M88.1,9.16c-5.8,0-10.49,5-10.49,11.13S82.3,31.42,88.1,31.42s10.49-5,10.49-11.13S93.89,9.16,88.1,9.16Z"/><path class="cls-3" d="M88.1,8.54C82,8.54,77,13.81,77,20.29S82,32,88.1,32s11.11-5.27,11.11-11.75S94.22,8.54,88.1,8.54Z"/><path d="M88.1,13.8A7.34,7.34,0,0,0,81,21.34a7.12,7.12,0,1,0,14.22,0A7.34,7.34,0,0,0,88.1,13.8Z"/><g class="cls-4"><path class="cls-2" d="M82.89,13.81a3.9,3.9,0,0,0-3.78,4,3.78,3.78,0,1,0,7.55,0A3.9,3.9,0,0,0,82.89,13.81Z"/></g><path class="cls-5" d="M104.46,15c-7,25.67-30.9,23.37-32.76,7.7S89-2,104.46,15Z"/><path class="cls-5" d="M5.41,14.38C17.48.12,34.07,8.92,31.34,23.15,23.88,38.62,4.77,31,5.41,14.38Z"/></g></g></svg>