<svg xmlns="http://www.w3.org/2000/svg" viewBox="0 0 256 330"><defs><style>.cls-1{isolation:isolate;}.cls-10,.cls-16,.cls-17,.cls-2,.cls-5{opacity:0.3;}.cls-3{fill:#773b2c;}.cls-15,.cls-3,.cls-8{stroke:#64332c;}.cls-11,.cls-15,.cls-3,.cls-6,.cls-8{stroke-miterlimit:10;}.cls-4{fill:#552c1f;}.cls-14,.cls-5{fill:#6a3626;}.cls-10,.cls-16,.cls-19,.cls-26,.cls-5{mix-blend-mode:multiply;}.cls-10,.cls-11,.cls-26,.cls-6{fill:#7b6566;}.cls-11,.cls-6{stroke:#4c3f41;}.cls-7{fill:#524445;}.cls-15,.cls-8,.cls-9{fill:#974c38;}.cls-11,.cls-15{stroke-width:0.75px;}.cls-12{fill:#493c3c;}.cls-13{opacity:0.5;}.cls-13,.cls-27{mix-blend-mode:screen;}.cls-16{fill:#3a1d14;}.cls-17{fill:#ec3a94;}.cls-18,.cls-19,.cls-27{fill:#af908f;}.cls-19{opacity:0.4;}.cls-20{fill:#f6f5f4;}.cls-21{fill:#17130f;}.cls-22{fill:#fff;}.cls-23{fill:#685657;}.cls-24{fill:#3e2b1d;}.cls-25{fill:#26191a;}.cls-26{opacity:0.8;}</style></defs><g class="cls-1"><g id="Layer_1" data-name="Layer 1"><ellipse class="cls-2" cx="125.51" cy="264.15" rx="112.43" ry="16.08"/><path class="cls-3" d="M192.63,153.19c-1.84-28.61-16.45-56.29-36.37-72.51a65.83,65.83,0,0,0-35.07-14.46,71.41,71.41,0,0,0-20.59.53,18.79,18.79,0,0,0-13.35,9.16,48.45,48.45,0,0,0-3.71,7.78,311.9,311.9,0,0,0-15.82,36.8c-5.52,15.32-10.22,31.63-10.43,48.43C56.93,198,71.1,240.28,93,253.7c11.13,6.84,22.44,16.63,34.69,13.51s28.25-14.75,38-23.87c9.21-8.65,16.39-8.51,22-20.75C193.28,210.1,193.54,167.27,192.63,153.19Z"/><path class="cls-4" d="M168.32,156.89c-7.33,4.27-16.06,3.48-24,1.67-8.43-1.92-15.77-6.64-24.5-7.57a32.84,32.84,0,0,0-10.56.48c-4.39,1-8.42,2.92-12.66,4.4a60.38,60.38,0,0,1-13.27,2.9c-4,.41-9.16.84-12.52-1.8-.13-.11-.38.2-.25.31,5.19,5.14,15.06,2.8,21.24,1.33,4.33-1,8.31-2.74,12.51-4.21A38,38,0,0,1,120,152.59,50.16,50.16,0,0,1,133.37,156a78,78,0,0,0,13,3.88c7.38,1.42,15.41,1.55,22-2.54C168.62,157.21,168.7,156.67,168.32,156.89Z"/><path class="cls-4" d="M180.51,164.27c-.08-.17-.35.12-.3.27,1.73,5.14.74,10.8-.7,15.89-.16.55.49.28.61-.05C182,175.47,182.79,169.16,180.51,164.27Z"/><path class="cls-4" d="M178.53,171.21c-.05-.24-.37,0-.35.21.75,5.2-.93,10.25-2.84,15-.18.43.4.32.53,0C178.1,181.74,179.71,176.45,178.53,171.21Z"/><path class="cls-4" d="M178.72,193c-.59,7.07-4.74,12.69-9.75,17.35-.22.2-.26.8.14.52,5.56-3.81,10.08-11.21,10-18C179.08,192.62,178.73,192.88,178.72,193Z"/><path class="cls-4" d="M174.57,195a13.92,13.92,0,0,1-1.76,4.42c-.26.43.23.59.48.24a10.94,10.94,0,0,0,1.59-4.77C174.92,194.67,174.6,194.87,174.57,195Z"/><path class="cls-4" d="M183.09,185.57c0-.24-.36,0-.37.18a16.47,16.47,0,0,1-.69,3.6c-.17.57.56.33.66-.06A12.28,12.28,0,0,0,183.09,185.57Z"/><path class="cls-4" d="M165.28,215.11c-2.43,5-8.16,8.73-13.07,11-.18.08-.59.76-.17.68,3-.55,5.54-2.58,7.8-4.53a20.28,20.28,0,0,0,5.8-7.11C165.76,214.85,165.37,214.92,165.28,215.11Z"/><path class="cls-4" d="M166.42,218c-1.68,2.37-4.36,3.83-6.83,5.24-.32.18-.42.87.08.61,2.64-1.44,5.36-3.13,7-5.73C166.83,217.86,166.55,217.78,166.42,218Z"/><path class="cls-4" d="M108.61,204c-3.06-5.35-5.61-10.65-5.75-17,0-.21-.32,0-.34.17-.59,5.5,1.22,13.57,5.58,17.33C108.33,204.72,108.74,204.21,108.61,204Z"/><path class="cls-4" d="M109.8,203.52a46.79,46.79,0,0,1-2.41-7.38c0-.2-.33,0-.3.18a31.53,31.53,0,0,0,2.33,7.54C109.52,204.07,109.88,203.7,109.8,203.52Z"/><path class="cls-4" d="M113.26,215.51c-.93-1.79-2-3.54-2.81-5.38-.06-.13-.27.1-.23.21a60.73,60.73,0,0,0,2.63,5.53C113,216.09,113.36,215.71,113.26,215.51Z"/><path class="cls-4" d="M170.91,140.82c-.25,3.32-2,6-4.15,8.38-.2.21,0,.5.22.27a12.45,12.45,0,0,0,4.28-8.78C171.26,140.42,170.92,140.65,170.91,140.82Z"/><path class="cls-4" d="M171.49,148.41c-1.51,3.73-5.5,6-9.1,7.34-.25.09-.48.71-.08.57,3.87-1.29,8-3.92,9.45-7.94C171.85,148.15,171.55,148.26,171.49,148.41Z"/><path class="cls-4" d="M169.7,152.68a9.63,9.63,0,0,1-3.31,2.37c-.22.1-.41.67-.07.51a9.71,9.71,0,0,0,3.59-2.72C170.08,152.64,169.88,152.49,169.7,152.68Z"/><path class="cls-4" d="M174.53,150.28a.64.64,0,0,1-.25.5c-.08.08-.18.22-.12.34s.26,0,.33-.07a1.37,1.37,0,0,0,.42-1C174.91,149.87,174.54,150.13,174.53,150.28Z"/><path class="cls-4" d="M69.19,127.06c0-.22-.28,0-.29.11-.12,1.54-.52,3-.59,4.55a22.61,22.61,0,0,0,.24,4.5c.06.41.68-.08.63-.39a23.3,23.3,0,0,1-.34-3.73C68.81,130.39,69.17,128.76,69.19,127.06Z"/><path class="cls-5" d="M192.63,153.19c-1.69-26.09-14-51.41-31.25-68a121.77,121.77,0,0,1,11,30.77c1.34,6,2.55,12.07,2.38,18.22-.13,5.42-1.18,11.39-5.39,15.2-.19.17-.54,0-.45-.26a37,37,0,0,0,1.34-5.11,16.73,16.73,0,0,1-5.25,8.37.27.27,0,0,1-.43-.33c.19-.36.37-.71.54-1.08-5,6-13.7,5.9-20.86,4.76-8.88-1.4-17.28-4.63-26-6.59-7.37-1.65-15.11-1.39-22.62-1.39-4.4,0-8.82,0-13.21-.43a24,24,0,0,1-8.29-2c-6-2.86-9-8.15-10-14.06-3.8,12.11-6.63,24.74-6.79,37.66C56.93,198,71.1,240.28,93,253.7c11.13,6.84,22.44,16.63,34.69,13.51s28.25-14.75,38-23.87c9.21-8.65,16.39-8.51,22-20.75C193.28,210.1,193.54,167.27,192.63,153.19Zm-17.74,32.65c0,.29-.45.25-.53,0a35.43,35.43,0,0,0-2.64-6.81,22.63,22.63,0,0,1,.45,6.19c0,.25-.38.42-.51.14q-1-2.19-2.14-4.29c3.18,10.8-5.12,20.66-12.74,27.9-4.81,4.56-9.79,9.1-15.67,12.24A39.71,39.71,0,0,1,121.49,226c-13.07-.29-24.53-7.4-32.9-17.09a72,72,0,0,1-10.72-16.05c-2.53-5.36-4.32-12.16-1.18-17.67s9.48-9.12,15.28-11.42c1.42-.56,2.86-1.07,4.31-1.54A49.4,49.4,0,0,1,114.65,156c8-.92,15.62,1.28,23.19,3.76,4,1.3,7.94,2.67,12,3.58a57.69,57.69,0,0,0,10.42.84c3,.1,6.22.21,9,1.47a9.14,9.14,0,0,1,4.55,4.94C175.77,175.3,175.59,180.84,174.89,185.84Z"/><path class="cls-6" d="M116.34,268.42a18,18,0,0,0-2.37-6.78,5.4,5.4,0,0,0-1.49-3.72c-2.1-2.17-5.34-1.73-8-1.06-7.63,1.95-15.16,4.32-22.06,8.16a77.67,77.67,0,0,0-21.9,17.82c-5.69,5.43-10.17,12.5-11.85,20a31.39,31.39,0,0,0-.52,7.18c0,1.59.23,4.91,1.73,6,1.11.82,2.26.16,3.27-1,.05.25.1.51.16.77.43,1.76,1.54,4.61,3.35,5.43a2.66,2.66,0,0,0,3.37-.6c.86,2.64,2.43,6.24,4.81,5.75,1.7-.36,2.26-2.41,2.35-3.87a13.6,13.6,0,0,0-.22-2.9c1.26,2.14,3.2,3.61,5.72,1.92,1.76-1.18,1.61-3.73,1.78-5.55.43-4.7.06-9.42,1.22-14,2-7.72,10.6-14,17.58-16.9,2.29-.95,9.65-3,9.38,1.54-.09,1.53-1.09,3-1.77,4.35-1.09,2.12-2.33,4.16-3.52,6.21-.72,1.25-7.1,10.69-3.73,12,4.73,1.84,9.34-6.06,11.2-9.17,2-3.39,4.83-6.21,6.89-9.59a32.19,32.19,0,0,0,3.76-9.52A37.39,37.39,0,0,0,116.34,268.42Z"/><path class="cls-7" d="M85,278.53A56.25,56.25,0,0,0,74.3,286.6a49.67,49.67,0,0,0-7.11,9.91c-1.88,3.12-2.3,7.93-2.29,11.47a51.39,51.39,0,0,0,.87,8.2,7.72,7.72,0,0,0,2,4.69c.13.12.41-.21.32-.34-2.14-2.8-2.22-7.49-2.44-10.92-.29-4.41.27-9.91,2.58-13.77a50,50,0,0,1,7-9.4c3-3,6.43-5.14,9.83-7.63C85.2,278.72,85.26,278.39,85,278.53Z"/><path class="cls-7" d="M70.25,283.38a28.39,28.39,0,0,1-3.3,3.47,37.73,37.73,0,0,0-3.68,4.57,36.35,36.35,0,0,0-4.93,10c-2,6.89-.18,15,2.17,21.6.07.19.39-.11.34-.25-1.72-6.69-3.19-13.69-2-20.61.65-3.8,2.88-7.4,4.94-10.6a47.4,47.4,0,0,1,4.11-5.24,14.82,14.82,0,0,0,2.49-2.89C70.47,283.28,70.31,283.28,70.25,283.38Z"/><path class="cls-7" d="M58.25,289.89c-3,4-5.5,8.25-6.28,13.28-.57,3.71-1,9.12,1.3,12.37.11.16.32-.12.27-.25-2.73-8.87-.42-17.85,4.84-25.29C58.49,289.86,58.35,289.75,58.25,289.89Z"/><path class="cls-8" d="M124.7,253c-.33-2.09-.44-4.19-.87-6.28-.85-4.1-3.2-8-5.13-11.71-1.35-2.56-2.84-5-4.28-7.54a227.78,227.78,0,0,0-14.84-34.84c-7-12.89-16.87-25-29.7-32.37-6-3.42-12.38-4.58-19-2.29-6,2.1-11.14,7.19-14.88,12.18a37.38,37.38,0,0,0-2.79,4.36,30.12,30.12,0,0,0-1.59,2.6,43,43,0,0,0-3.57,10.47c-1,4.07-1.65,8.27-2.79,12.29-.21.73-2.61,4.12-1.55,4.9a.21.21,0,0,0,.23,0c1.64-.73,2.69-3,3.5-4.45l.3-.6v.08A56.83,56.83,0,0,1,24.44,213c-.29.81.62.73,1,.26a28.43,28.43,0,0,0,2-3c0,.29-.08.59-.13.87a42,42,0,0,0-.06,5.94c0,1.27-.34,3.21.26,4.43.21.41.73-.2.81-.4a12.18,12.18,0,0,0,.7-2.64c.06.75.12,1.49.12,2.23a13.32,13.32,0,0,0,.4,4c.22.62,1-.33,1.13-.55a9.57,9.57,0,0,0,.66-2.4c.24,4.87,1.34,9.7,2,14.5.07.48.64,0,.72-.26a18.11,18.11,0,0,0,.78-3.67,60.94,60.94,0,0,0,.69,7c.06.47.7-.07.72-.35.07-1.21.18-2.41.3-3.61.21,1.76.45,3.53.76,5.29.5,2.87.47,5.82,1.28,8.63.23.76,1.07-.15,1.16-.56a41.2,41.2,0,0,0,.55-7.14c.31,1.59.68,3.15,1.11,4.65,1.14,3.92,2.64,9.37,5.62,12.36.28.28.78-.37.72-.63-.32-1.37-1.16-2.62-1.55-4-.53-1.84-1-3.69-1.34-5.56a67.89,67.89,0,0,0,5.79,9.79c2.11,3,5.11,5.54,6.91,8.67.34.61,1.24-.44,1.06-.93-.6-1.62-1.53-3.06-2.19-4.66-.86-2.08-1.68-4.17-2.55-6.25l-.36-.93c1.19,2.07,2.43,4.09,3.6,6.12,2.92,5.53,4.76,11.4,1.11,17.36-.24.4,0,.83.46.57a10,10,0,0,0,4.26-5.1,16.77,16.77,0,0,1-7.1,11.11c-.21.14-.74,1-.13.95a22.16,22.16,0,0,0,8-2.43,3.5,3.5,0,0,0,.67-.54c-.09.11-.19.26-.33.45a29.56,29.56,0,0,1-2,2.53c-.19.21-.26.8.19.64A16.06,16.06,0,0,0,67,282.91a20.92,20.92,0,0,0,2.83-3.36c-1,1.86-2.36,3.64-3.21,5.47-.15.36.18.6.49.39,2.72-1.88,4.58-4.72,7.52-6.45a36.72,36.72,0,0,1,4.61-2.42l-1.09,1a15.84,15.84,0,0,0-3.67,4.08c-.14.26-.14.86.32.64,2.71-1.31,4.94-3.37,7.76-4.53A29.54,29.54,0,0,1,89,276.25c1-.16,2.25-.51,3.43-.63-3,1.35-6.21,2.73-8.4,5.11-.26.26-.33,1,.24.81,4.63-1.75,9.08-3.45,14.12-3.42,2.54,0,5.08.19,7.61.43a18.78,18.78,0,0,1,3.62.89,10.75,10.75,0,0,0,.72,1.68c.19.32.57.1.78-.06a3.21,3.21,0,0,0,1-1.26,1.09,1.09,0,0,0,.37-.43,6.53,6.53,0,0,1-.3,2c-.2.6.35.73.76.38,5.18-4.5,8.71-12.38,7.94-19.49a9.78,9.78,0,0,0,1.18,3.3c.19.25.46.1.67,0,1.7-1.31.8-5.39.68-7.14a26.5,26.5,0,0,0-.74-4.48,29.85,29.85,0,0,0,1,3.11c.21.5.84-.24.93-.46A6.72,6.72,0,0,0,124.7,253Z"/><path class="cls-5" d="M124.7,253c-.33-2.09-.44-4.19-.87-6.28-.85-4.1-3.2-8-5.13-11.71-1.35-2.56-2.84-5-4.28-7.54a227.78,227.78,0,0,0-14.84-34.84q-1.1-2-2.27-4c.39.9.79,1.8,1.16,2.69a195.86,195.86,0,0,1,6.69,18.83c2.58,8.35,5,16.73,7.25,25.17a.27.27,0,0,1-.49.21c-2.5-3.51-5.91-6.21-8.69-9.49-.16-.19,0-.56.26-.45a13.5,13.5,0,0,0,4,.77A128.92,128.92,0,0,1,98.3,214.1c-2.6-4.08-4.68-8.44-7.1-12.63-4.2-7.25-9.59-13.94-17.8-16.36a33.42,33.42,0,0,1,8.52,9A51.89,51.89,0,0,1,88.41,207a.28.28,0,0,1-.46.26A23.91,23.91,0,0,0,82,203.44c7,6.22,11,14.89,15.58,23,5.37,9.5,12.09,18.41,14,29.41.05.29-.34.49-.5.21-1.66-2.84-3.44-5.83-6.19-7.71,2.21,3.25,4.26,6.59,5,10.49a.27.27,0,0,1-.5.21,40.56,40.56,0,0,0-9.08-9.27,16.22,16.22,0,0,1,3.11,11.8c-.61,5-3.3,9.51-6.7,13.08-.19.21-.5,0-.45-.26.52-2.66,1.88-5.63,1.1-8.35-1.74,5.09-7.2,7.16-11.81,9.15a27.37,27.37,0,0,0-7.72,4.36,10.89,10.89,0,0,0-1.72,2c2.12-1.25,4-2.81,6.36-3.77A29.54,29.54,0,0,1,89,276.25c1-.16,2.25-.51,3.43-.63-3,1.35-6.21,2.73-8.4,5.11-.26.26-.33,1,.24.81,4.63-1.75,9.08-3.45,14.12-3.42,2.54,0,5.08.19,7.61.43a18.78,18.78,0,0,1,3.62.89,10.75,10.75,0,0,0,.72,1.68c.19.32.57.1.78-.06a3.21,3.21,0,0,0,1-1.26,1.09,1.09,0,0,0,.37-.43,6.53,6.53,0,0,1-.3,2c-.2.6.35.73.76.38,5.18-4.5,8.71-12.38,7.94-19.49a9.78,9.78,0,0,0,1.18,3.3c.19.25.46.1.67,0,1.7-1.31.8-5.39.68-7.14a26.5,26.5,0,0,0-.74-4.48,29.85,29.85,0,0,0,1,3.11c.21.5.84-.24.93-.46A6.72,6.72,0,0,0,124.7,253Z"/><path class="cls-5" d="M118.47,254.32a.59.59,0,0,0,.23-.47,37.71,37.71,0,0,0-8.15-17.12c-2.22-2.64-4.53-5.19-6.74-7.84-1.54-1.84-2.9-3.81-4.36-5.7a7.19,7.19,0,0,0,2.87,1.39c.25,0,.73-.47.45-.65l-.67-.44c0-.1.05-.19,0-.25a26.26,26.26,0,0,0-1.8-2.15c-1.23-1.34-1.8-2.93-2.85-4.36a26.44,26.44,0,0,1-1.63-3.49c-.68-1.29-1.42-2.56-2.06-3.86-.18-.36-.37-.71-.55-1.06a.27.27,0,0,0,0-.12A28.81,28.81,0,0,0,88,195.61a47.55,47.55,0,0,0-4-4.83c-1.66-1.73-3.78-2.34-5.51-3.81-.14-.11-.39.2-.27.33,1,1.2,2.63,1.92,3.81,3a37.2,37.2,0,0,1,5,6.18,36.62,36.62,0,0,1,4,7.9,58.24,58.24,0,0,0-6.52-8.68c-.12-.12-.37.18-.26.32a69.3,69.3,0,0,1,9.11,14.88c1,2.18,2,4.56,3.26,6.61a31.67,31.67,0,0,0,2.84,4.07C96.2,219.2,93,216.3,91.24,213c-.11-.2-.45.16-.37.33a23.87,23.87,0,0,0,4.77,6.31c.46.48,1,1,1.54,1.59,1.56,2.34,2.89,4.82,4.52,7.11,1.85,2.62,3.94,5.05,6,7.48a50.64,50.64,0,0,1,9.74,16.74c-1.91-3.06-4.38-5.74-6.19-8.84-.13-.21-.5.18-.4.36,1.74,3.26,3.93,6.3,5.77,9.51a32.4,32.4,0,0,1,3.69,11.17c.05.25.38,0,.39-.19A19.36,19.36,0,0,0,118.47,254.32Z"/><path class="cls-9" d="M239.83,203.92s-.08-14.6-28-12.69S131.28,229.64,129,252.56s111.89-48,111.89-48Z"/><path class="cls-5" d="M239.83,203.92s-.08-14.6-28-12.69S131.28,229.64,129,252.56s111.89-48,111.89-48Z"/><path class="cls-6" d="M146.32,265.51a48.41,48.41,0,0,0-4.22-6.86c-1.45-2-3.37-2.47-5.75-2.23-1.9.2-4.29.23-6.06,1.08-2.76,1.31-5.25,3.71-7.48,5.76a13.46,13.46,0,0,0-3.9,6.87c-1.84,4.22-2.64,9.15-3.38,13.34a45.38,45.38,0,0,1-3.84,12.15c-.54,1.15-2.54,4.38-1,5.54,3.22,2.47,7.59-3.93,8.44-6.18,1.28-3.38,2.11-6.93,3.24-10.36.61-1.84,5.68-14.73,8.86-11,2.44,2.84,1.56,8.64.75,11.89-1,4.2-2.27,8.76-4.7,12.38-3.54,5.27-10.43,8.05-11.27,15-.64,5.4,6.29,1.33,9.58-1.14-.86.93-1.75,1.85-2.68,2.78-2.51,2.5-5,9.09,1,7.9a11.63,11.63,0,0,0,5.42-2.89c-.42,1.65-.11,2.93,2.2,2.43,3.78-.8,6.79-4.42,8.93-7.87l-.15,1c-.15,1.19-.73,3.13.77,3.73,1.05.41,2.38-1.3,2.92-1.93a30.75,30.75,0,0,0,6.37-13.12c1.46-6.4,4-19.54,3.62-26C153.61,271,149.31,271.63,146.32,265.51Z"/><path class="cls-10" d="M122.33,284.62c.54-1.64,4.65-12.09,7.78-11.67a2.79,2.79,0,0,0-.5-.56,3.08,3.08,0,0,0-3.93-.19,11.7,11.7,0,0,0-4.18,6.09c-1.6,4.55-2.18,9.34-3.46,14a18.5,18.5,0,0,1-4.8,8.8c-.2.2-.42.42-.66.64,2.82-.35,5.82-4.9,6.51-6.72C120.37,291.6,121.2,288.05,122.33,284.62Z"/><path class="cls-10" d="M132.79,259c.72,2,1.33,4,1.94,6,1.14,3.83,2.12,7.64,3,11.53A55.47,55.47,0,0,0,147,297.26c.35-2.1.36-4.41,1.47-6.23.71-1.16,2.06-1.93,3.06-.65a6,6,0,0,1,1,2.41c.94-5.53,1.67-11.38,1.46-15.08-.37-6.74-4.67-6.08-7.66-12.2a48.41,48.41,0,0,0-4.22-6.86c-1.45-2-3.37-2.47-5.75-2.23a39.81,39.81,0,0,0-4.46.54A21.6,21.6,0,0,1,132.79,259Z"/><path class="cls-8" d="M238.73,199.31c-7-5.53-16.19-5.23-24.46-3.47A84.15,84.15,0,0,0,187.42,207a141.05,141.05,0,0,0-22.61,17.53c-2.5,1.91-5,3.79-7.6,5.59-2.85,2-5.81,3.86-8.74,5.73-2.75,1.76-5.73,3.63-9,4.11-.31,0-.78.94-.35,1.05a.32.32,0,0,0,.09,0h0a9.72,9.72,0,0,0,6.45-.55c-1.18.65-2.39,1.28-3.58,1.94a90.17,90.17,0,0,0-8.91,5.56c-1.45,1.06-3.55,2.25-4.34,3.91-.08.17-.18.78.22.64a24.85,24.85,0,0,0,3.22-2l.59-.34c-3.78,2.91-7,6.22-8.28,11.21-.07.24,0,.65.35.44a7.43,7.43,0,0,0,2-2.3,21.45,21.45,0,0,1,3.55-3.71,17.57,17.57,0,0,0-1.49,4.12c-.45,1.69-.93,5,.5,6.43.21.19.44-.07.54-.25a12.75,12.75,0,0,0,1-3.08,18.33,18.33,0,0,1,.83-2.2A20.71,20.71,0,0,0,135,275.44c-.18,3.46-.4,7.18.74,10.35.23.63.88-.14,1-.44a20.79,20.79,0,0,0,.9-4.61c0,.58,0,1.14-.06,1.71-.07,2.68-.74,5.44-.58,8.1,0,.48.52.33.71.06a15.75,15.75,0,0,0,2.05-4.43,18.36,18.36,0,0,0,3.7,8.7c.41.51.94-.59.85-.94-.77-3.06-.21-5.58.54-8.23a29.08,29.08,0,0,0,1.44,9c.16.5.68-.21.71-.43a20.69,20.69,0,0,1,6.4-12.59c3.78-3.6,8.48-5.54,13.33-7.26l3-1.06c2.72-.8,5.4-1.68,8.1-2.6l2.08-.67c-3.7,1.84-7.86,3-11.26,5.35-.27.19-.72,1.25,0,1.1a123.39,123.39,0,0,0,36.3-14.43c2.62-1.54,5.21-3.23,7.66-5a39.42,39.42,0,0,0,6.08-6.17,37.86,37.86,0,0,0,2.55-3.22l.19-.22c2.33-2.76,3.58-5.9,5.19-9a20.15,20.15,0,0,1-1.87,5.71,6.77,6.77,0,0,0-.77,1.22c-.3.59.18,1.21.65.55a9.43,9.43,0,0,0,.64-1c1-1.4,2.57-2.66,3.66-3.91a24.84,24.84,0,0,0,4.27-5.88c.63-1.38,1.44-2.73,2.09-4.12-.06.52-.12,1-.19,1.55-.1.75.64.5.88,0,1.3-2.43,3.06-5.27,3.55-8a42,42,0,0,0,.59-4.82,17.77,17.77,0,0,0,1,2.61c.27.53.83-.18.85-.51.37-4.44.88-8.87,1.16-13.32C243.35,204.63,241.78,201.73,238.73,199.31Z"/><path class="cls-5" d="M240.94,201.48c1.09,4.22.4,9.25-.66,13a.28.28,0,0,1-.53,0,12.71,12.71,0,0,0-1-2c-.42,9-3.44,18.3-10.54,24.29-.19.17-.54,0-.45-.26.31-1,.57-2,.8-3a37.49,37.49,0,0,1-6.35,6.95.27.27,0,0,1-.45-.27c0-.18.1-.36.15-.54-.45.59-.91,1.17-1.36,1.75-4,5.1-8.52,10.71-14.58,13.48-.22.09-.54-.14-.38-.39,1.11-1.58,2.21-3.16,3.27-4.78-8.41,6.75-18.83,10.75-28.95,14.39-6,2.14-12.15,3.81-17.94,6.35s-11.08,6.13-13.93,12c-.13.3-.55.08-.49-.2a40.27,40.27,0,0,1,4.84-11.84,26.29,26.29,0,0,0-9.77,17.73c0,.29-.45.39-.52.07a25.73,25.73,0,0,1-.66-8.07c-.48,1.72-.93,3.44-1.37,5.17a.28.28,0,0,1-.53,0,24.64,24.64,0,0,1,.29-10.15,34.13,34.13,0,0,0-3.39,7.42.28.28,0,0,1-.53,0,20,20,0,0,1-.58-7.06c-.13.37-.25.75-.37,1.13-.15,3.12-.21,6.37.8,9.2.23.63.88-.14,1-.44a20.79,20.79,0,0,0,.9-4.61c0,.58,0,1.14-.06,1.71-.07,2.68-.74,5.44-.58,8.1,0,.48.52.33.71.06a15.75,15.75,0,0,0,2.05-4.43,18.36,18.36,0,0,0,3.7,8.7c.41.51.94-.59.85-.94-.77-3.06-.21-5.58.54-8.23a29.08,29.08,0,0,0,1.44,9c.16.5.68-.21.71-.43a20.69,20.69,0,0,1,6.4-12.59c3.78-3.6,8.48-5.54,13.33-7.26l3-1.06c2.72-.8,5.4-1.68,8.1-2.6l2.08-.67c-3.7,1.84-7.86,3-11.26,5.35-.27.19-.72,1.25,0,1.1a123.39,123.39,0,0,0,36.3-14.43c2.62-1.54,5.21-3.23,7.66-5a39.42,39.42,0,0,0,6.08-6.17,37.86,37.86,0,0,0,2.55-3.22l.19-.22c2.33-2.76,3.58-5.9,5.19-9a20.15,20.15,0,0,1-1.87,5.71,6.77,6.77,0,0,0-.77,1.22c-.3.59.18,1.21.65.55a9.43,9.43,0,0,0,.64-1c1-1.4,2.57-2.66,3.66-3.91a24.84,24.84,0,0,0,4.27-5.88c.63-1.38,1.44-2.73,2.09-4.12-.06.52-.12,1-.19,1.55-.1.75.64.5.88,0,1.3-2.43,3.06-5.27,3.55-8a42,42,0,0,0,.59-4.82,17.77,17.77,0,0,0,1,2.61c.27.53.83-.18.85-.51.37-4.44.88-8.87,1.16-13.32A9.79,9.79,0,0,0,240.94,201.48Z"/><path class="cls-10" d="M136.65,292A33.08,33.08,0,0,1,131.82,305c-1.89,3-4.65,5-7.17,7.38-.11.1-.13.39.07.26A26.22,26.22,0,0,0,136.77,292C136.77,291.88,136.66,292,136.65,292Z"/><path class="cls-10" d="M142.3,291.4a56.38,56.38,0,0,1-3.89,14.6,35.69,35.69,0,0,1-4.72,8.28c-1.37,1.75-3.31,3.09-4.46,5-.11.19.08.22.2.1,1.71-1.82,3.53-3.38,5.09-5.38a32.77,32.77,0,0,0,4-7.13,45.14,45.14,0,0,0,4-15.52C142.59,291.09,142.32,291.27,142.3,291.4Z"/><path class="cls-10" d="M148,288.85c0-.11-.18,0-.18.08a52.63,52.63,0,0,1-7.09,25c-.08.15.07.2.16.09C146,307.2,148.27,297.33,148,288.85Z"/><path class="cls-11" d="M206.44,260a29,29,0,0,0-5.71-7.24c-3.3-2.95-9.28-3.53-13.38-2.53a15.84,15.84,0,0,0-9.76,6.53,37.85,37.85,0,0,0-3.24,6.34,33,33,0,0,0-1.24,3.5c-.08.33-.15.65-.22,1a2,2,0,0,0,0,.55c-.32,1.21-.58,2.47-.79,3.76a107.86,107.86,0,0,0-.92,11.78c-.2,3.62-.74,7.27-.3,10.89.18,1.5.39,3.73,2.08,4.25s3-2.93,3.38-3.94c1.21-3.39,1.17-7.21,1.31-10.75.07-1.84.06-3.68.17-5.5.06-1,.25-3.67,2.1-3.3,1.22.24,2.14,1.9,2.75,2.86,4.73,7.42.73,17.51-3.11,24.25-1.14,2-4.06,7.3-1.95,9.42s4.65.48,6.85-1.65c0,.07-.05.14-.08.22-.47,1.58-1.8,7.3,1.88,6.13,2.56-.82,4.31-3.19,5.59-5.42.26-.44.51-.9.76-1.35.19,1.36.91,2.29,2.74,1.69,3-1,5.13-4.51,6.46-7.11.34-.67.65-1.37,1-2.07,2.79-.88,4.34-4.29,5.56-6.73,2-4.07,2.84-8.6,3.55-13.05C213.13,274.73,211.6,266,206.44,260Z"/><path class="cls-10" d="M194.37,270.31a.44.44,0,0,1,.75.31,14.74,14.74,0,0,1-1.47,6.47c2.25-.73,4.28-2.76,5.77-4.33a.45.45,0,0,1,.69.09c.75,1.73,1.49,3.46,2.34,5.14a27.54,27.54,0,0,1,2.36-7.73.44.44,0,0,1,.75,0c1.14,2.51,1.78,5.43,4,7.24.39-2,.55-4.06,1.1-6a.44.44,0,0,1,.73-.2c.17.21.32.42.46.63A24.65,24.65,0,0,0,206.44,260a29,29,0,0,0-5.71-7.24c-3.3-2.95-9.28-3.53-13.38-2.53a15.84,15.84,0,0,0-9.76,6.53c-.46.68-.87,1.42-1.27,2.15,1.29,6.57,6.08,12.37,9.77,17.85A36.5,36.5,0,0,0,194.37,270.31Z"/><path class="cls-12" d="M192.93,281.56c0-.14-.22,0-.22.1-.64,9.66-2.46,20.89-8.9,28.55-.3.37.05.63.37.3,3.46-3.66,5.39-9,6.75-13.74A48.29,48.29,0,0,0,192.93,281.56Z"/><path class="cls-12" d="M198.73,289.29A71.21,71.21,0,0,1,192,309.86c-.17.33.2.33.33.09a50.42,50.42,0,0,0,6.56-20.72C198.92,289.1,198.74,289.21,198.73,289.29Z"/><path class="cls-12" d="M206.07,278.81c0-.21-.33,0-.31.18.77,8.2-1.21,17.21-4.07,24.84-.12.34.29.22.41,0,2.08-3.59,2.94-7.83,3.51-11.9A48.72,48.72,0,0,0,206.07,278.81Z"/><path class="cls-8" d="M224,208.57a77,77,0,0,1-1.46-13c0-.46,0-.91,0-1.37,1.13-5.94,1.84-12,2.57-18,1.19-9.8,0-19.46-1.57-29.14a162.41,162.41,0,0,0-6.77-28.28,56.33,56.33,0,0,0-6.36-13c-1.1-1.63-2.35-3.16-3.59-4.69-.3-.35-.62-.76-1-1.19-1-1.6-2.11-3.18-3.24-4.72-2.63-3.61-6.1-6.76-9.32-9.84a33.71,33.71,0,0,0-3-2.55l.23.07c.39.08.76-.46.65-.8-.31-.94-1.29-1.57-2-2.25a42.86,42.86,0,0,0-4.77-4.15A26.86,26.86,0,0,0,177.71,72h0c1.46-.11,2.66-1,4.11-1.2.3,0,.76-.76.27-.77-4.67-.06-9.17-1.91-13.22-4.11a52.73,52.73,0,0,1-5.61-3.64c-1.55-1.1-2.77-2.57-4.25-3.76a6.25,6.25,0,0,0-.11-1c0-.18-.25,0-.27.14s-.06.35-.09.51l-.21-.16c-.12-.08-.34.19-.22.28s.24.2.36.3c-2,11.63-1.81,24.39,2.14,35.68a64,64,0,0,0,4.41,9.37c.48,1.27.95,2.54,1.39,3.82,1,2.86,2.17,5.66,3.27,8.46a94.37,94.37,0,0,1,2.65,9.12,79.28,79.28,0,0,1,1.9,8.75c.5,2.9.09,5.78.45,8.67.07.6.79-.08.88-.32a24.2,24.2,0,0,0,1.51-6.11c.16,1,.34,1.94.53,2.9.47,2.28,1.16,4.53,1.77,6.77a18.77,18.77,0,0,0,1.65,4.74c.24.4.78-.22.8-.5a30.85,30.85,0,0,0,0-4.9c1.09,4.67,2.38,9.28,3,14.05,1,7.42,1.45,14.59,0,22,0,.21,0,.29.16.28a10.75,10.75,0,0,1-.93,3c-.24.37,0,.78.43.53,1.68-1,2.49-3,3.38-4.65-.15,1.37-.33,2.73-.5,4-.3,2.23-.46,4.5-.9,6.71-.31,1.58-.92,3.07-1.21,4.64a.33.33,0,0,0,.47.37,3.82,3.82,0,0,0,1.85-1.46c-.23,1.61-.42,3.24-.76,4.77-.64,3-1.19,6.08-1.73,9.14q-.76,2.24-1.53,4.44c-1.87,5.4-4.14,10.9-7.69,15.41-.17.2-.37.79.1.77a8.46,8.46,0,0,0,4.5-2.22c0,.19-.09.37-.13.56-2.59,5-4.66,10.3-4.85,16,0,.74.82.17.95-.21s.35-.89.54-1.31c-.52,1.7-1,3.41-1.37,5-.56,2.21-1.19,4.36-1.91,6.53-.51,1.53-2.08,3.07-2.17,4.7,0,.19.06.36.27.35a3.26,3.26,0,0,0,2.06-1.25h0c-.19.44-.37.88-.54,1.33-.83,2.17-1.62,6.46-.82,8.67.15.41.69-.21.76-.37a20.92,20.92,0,0,0,.8-2.55,18.51,18.51,0,0,0,2.3,9.25c.24.4.71-.28.71-.52a36.1,36.1,0,0,1,1.21-10.11c.24,2.73.71,5.48,1,8.07.07.61.95-.08,1-.46,0-1.2.12-2.38.25-3.55,0,.52.09,1,.16,1.56.22,1.81.57,3.44.93,5.22a5.07,5.07,0,0,0,1.07,2.87c.37.38.87-.49.87-.77a23.85,23.85,0,0,1,2.53-9.54c-.48,2.95-1.2,5.75-1.08,8.79,0,.62.82,0,.94-.21,1.16-2,2.2-4,3.24-6.08-.45,1.45-1.16,2.78-1.48,4.26a.37.37,0,0,0,.1.36c1.7.89,4.09-2.19,5.07-3.19a33.84,33.84,0,0,0,4.55-5.78c-.2,1.1-.38,2.21-.51,3.32-.2,1.71-.94,4.12-.1,5.76.13.25.48.1.62-.05,1.41-1.43,1.75-4,2.42-5.81s1.39-3.51,2.19-5.23c-.31,1.7-.51,3.41-.67,5.16s-.77,4.29,0,6c.21.44.8-.12.93-.33a29,29,0,0,0,2-5.45,31,31,0,0,1,2.1-4.82A61.72,61.72,0,0,0,207.6,274c.16.78,1.12-.14,1.17-.57a49.85,49.85,0,0,1,.95-6.86c.56-2.17,1.11-4.37,1.75-6.52,1.49-5,3.16-9.92,4.68-14.9a62.66,62.66,0,0,0,2.6-19.95c0,.18.07.36.09.54.39,2.23.48,4.5.93,6.69.11.59.78-.14.84-.41a57.87,57.87,0,0,0,1.21-15.48c-.1-2.27-.37-4.53-.61-6.79a21.2,21.2,0,0,0,1.29,2.79c.62,1.12.94,2.41,1.85,3.31.34.34.94-.35,1-.64a2.57,2.57,0,0,0-.13-1.66C224.75,211.87,224.34,210.27,224,208.57Z"/><path class="cls-5" d="M224,208.57a77,77,0,0,1-1.46-13c0-.46,0-.91,0-1.37,1.13-5.94,1.84-12,2.57-18a85.27,85.27,0,0,0-.38-20.82c0,3.31-.23,6.62-.47,9.89-.5,6.72-1.85,13.29-2.59,20a107.21,107.21,0,0,0-.42,19.54.27.27,0,0,1-.51.13,26.58,26.58,0,0,1-2.52-6.31,68.85,68.85,0,0,0-.44,7.85c.06,4.66.54,9.31.57,14a.28.28,0,0,1-.54.07c-.69-1.93-1.36-3.87-2-5.82,0,9.74-.12,19.54-2.95,28.92-.07.24-.47.28-.52,0-.42-2.28-.65-4.6-1.23-6.85.15,8.47-1,17.42-6.1,24.38a.28.28,0,0,1-.5-.21,44.12,44.12,0,0,0,.67-8.73c-1.28,4.14-3.94,8.11-5.8,11.66-.16.3-.55.08-.5-.2a54.6,54.6,0,0,0,.59-6.63c-2,4.47-5.67,8.33-8.87,11.8a.27.27,0,0,1-.46-.19c.29-2.66.83-5.29,1.32-7.93a63.35,63.35,0,0,1-3.54,7.89.28.28,0,0,1-.51-.14,49.44,49.44,0,0,1,1.12-9.07c-2.94,5.4-5.55,11.12-5.22,17.05a1.29,1.29,0,0,0,.31-.64,23.85,23.85,0,0,1,2.53-9.54c-.48,2.95-1.2,5.75-1.08,8.79,0,.62.82,0,.94-.21,1.16-2,2.2-4,3.24-6.08-.45,1.45-1.16,2.78-1.48,4.26a.37.37,0,0,0,.1.36c1.7.89,4.09-2.19,5.07-3.19a33.84,33.84,0,0,0,4.55-5.78c-.2,1.1-.38,2.21-.51,3.32-.2,1.71-.94,4.12-.1,5.76.13.25.48.1.62-.05,1.41-1.43,1.75-4,2.42-5.81s1.39-3.51,2.19-5.23c-.31,1.7-.51,3.41-.67,5.16s-.77,4.29,0,6c.21.44.8-.12.93-.33a29,29,0,0,0,2-5.45,31,31,0,0,1,2.1-4.82A61.72,61.72,0,0,0,207.6,274c.16.78,1.12-.14,1.17-.57a49.85,49.85,0,0,1,.95-6.86c.56-2.17,1.11-4.37,1.75-6.52,1.49-5,3.16-9.92,4.68-14.9a62.66,62.66,0,0,0,2.6-19.95c0,.18.07.36.09.54.39,2.23.48,4.5.93,6.69.11.59.78-.14.84-.41a57.87,57.87,0,0,0,1.21-15.48c-.1-2.27-.37-4.53-.61-6.79a21.2,21.2,0,0,0,1.29,2.79c.62,1.12.94,2.41,1.85,3.31.34.34.94-.35,1-.64a2.57,2.57,0,0,0-.13-1.66C224.75,211.87,224.34,210.27,224,208.57Z"/><path class="cls-5" d="M164.69,101.91c-1.15-4.39-1.82-8.93-.24-13.3,1.42-3.93,3.42-7.49,2.36-11.8-.05-.25.28-.49.47-.27a16.28,16.28,0,0,1,2,3,13.06,13.06,0,0,0-1.92-6.64c-.18-.27.21-.51.43-.33a38.58,38.58,0,0,1,4.2,4.28c-.66-2.73-1.31-5.48-3.13-7.71a.28.28,0,0,1,.33-.44c3.14,1.59,7.53,2.42,11.05,1.19a31.86,31.86,0,0,1-11.36-4,52.73,52.73,0,0,1-5.61-3.64c-1.55-1.1-2.77-2.57-4.25-3.76a6.25,6.25,0,0,0-.11-1c0-.18-.25,0-.27.14s-.06.35-.09.51l-.21-.16c-.12-.08-.34.19-.22.28s.24.2.36.3c-2,11.63-1.81,24.39,2.14,35.68a64,64,0,0,0,4.41,9.37c.09.22.16.44.24.66C165.1,103.46,164.89,102.69,164.69,101.91Z"/><g class="cls-13"><path class="cls-9" d="M170.13,93.88c-.07-.15-.32.11-.29.23,2.26,8.88,6.79,17.2,8.41,26.27.08.4.58-.1.58-.34C178.59,110.5,174,102.31,170.13,93.88Z"/><path class="cls-9" d="M181.81,116.52c-.38-3.08-1.67-5.63-2.67-8.52-.09-.27-.51.17-.49.35.42,2.74,1.19,5.37,1.51,8.13a42.8,42.8,0,0,1,0,9.33c-.06.63.73.15.82-.19A21.4,21.4,0,0,0,181.81,116.52Z"/><path class="cls-9" d="M183.18,118.65a7.7,7.7,0,0,1-.09,1.58,11.39,11.39,0,0,1-.16,2c-.24,1.1-.37,2.25-.57,3.35-.08.51.53.14.65,0a8.83,8.83,0,0,0,.78-3.61,7.82,7.82,0,0,0,.05-1.18C183.62,120.06,183.41,119.35,183.18,118.65Z"/><path class="cls-9" d="M189.45,137.56A36.72,36.72,0,0,0,188,132a15.48,15.48,0,0,0-1.1-1.55,45.77,45.77,0,0,0,1.07,5.93,60.62,60.62,0,0,1,.67,7.74,125.17,125.17,0,0,1,.49,16.2c0,.52.6.14.68-.15,1.28-4.95,1.08-10,.57-15C190.09,142.61,189.82,140.08,189.45,137.56Z"/><path class="cls-9" d="M192.09,156.68a17.28,17.28,0,0,1-1,3.45,13.5,13.5,0,0,1-1.3,3.08c-.45.74.45.76.8.2a11.52,11.52,0,0,0,1.36-3.35,13,13,0,0,0,.7-3.64C192.63,156.06,192.11,156.47,192.09,156.68Z"/></g><path class="cls-11" d="M121.44,164.83a50.93,50.93,0,0,1-5-7.66c-2.36-4.67-3.91-10-8.25-13.24-.07-.06-.16,0-.18.12a9.94,9.94,0,0,0-1-.56c-1.62-.75-4.15.27-5.63.92-3.59,1.6-7.23,5-9.8,7.89-2.72,3.08-5.35,6.81-6,11a19,19,0,0,0,.37,8.37c-.27-.43-.55-.86-.8-1.29-.11-.18-.42.15-.34.3,3.37,6.26,7.69,12.17,6.83,19.62-.27,2.34-4.86,12.77-.68,14,3.32,1,6-9.24,6.46-11a21.84,21.84,0,0,0,.79-6.08,26.88,26.88,0,0,1,.86,8.2c-.06,1.07.16,12.61,3.46,10.63,3.5-2.1,3.54-11,3.49-14.68a27.36,27.36,0,0,0-1.66-8.9,40.65,40.65,0,0,1,3.11,9.79c.2,1,1,14.61,3.56,11.06,2.24-3.15,3.17-12.3,2.36-15.91a35,35,0,0,0-5.09-11.27,25.34,25.34,0,0,1,5.23,8.26c.85,2.14,1.39,15.94,4.15,12.24,5.22-7,1.85-15.25.7-18s-2.67-5.21-4.07-7.76c-.5-.9-1-1.81-1.47-2.72a14.74,14.74,0,0,1-.46-1.47c-.72-3,2-.66,2.52-.16,1.84,1.74,3.26,3.79,5.45,5.12,1.27.78,5.05,1.46,4.84-1.19C124.91,168.3,122.7,166.51,121.44,164.83Z"/><path class="cls-10" d="M96.78,182.34A68.75,68.75,0,0,1,95.19,192a31,31,0,0,1-3,8.37c-.69,1.15-1.88,2.19-3,1.44a2.59,2.59,0,0,0,1.7,2.49c3.32,1,6-9.24,6.46-11a21.84,21.84,0,0,0,.79-6.08c.07.28.13.56.2.83A16.15,16.15,0,0,0,96.78,182.34Z"/><path class="cls-10" d="M104.25,182.52c.45.94.86,1.92,1.23,2.91a16.81,16.81,0,0,0-3.4-7c1.69,6,3,12.62,1.6,18.74-.38,1.76-1.17,4.5-3.31,4.89a2,2,0,0,1-.92,0c.46,2.72,1.34,5,3,4.06,3.5-2.1,3.54-11,3.49-14.68A27.36,27.36,0,0,0,104.25,182.52Z"/><path class="cls-10" d="M108.63,176.89l-.37-.47a32.09,32.09,0,0,1,3.18,14.72c0,2.48.18,5.4-.93,7.69-.43.9-1.26,1.93-2,1.88.56,2.5,1.33,4.2,2.43,2.66,2.24-3.15,3.17-12.3,2.36-15.91A34.27,34.27,0,0,0,108.63,176.89Z"/><path class="cls-10" d="M114.2,171c-.5-.9-1-1.81-1.47-2.72a14.74,14.74,0,0,1-.46-1.47c-.7-2.91,1.89-.75,2.49-.19a13.78,13.78,0,0,0-.92-1.79c-.55-.92-3.17-3.62-3.54-1a8,8,0,0,0,.6,4c1,2.42,2.45,4.57,3.52,6.94a34.46,34.46,0,0,1,2.37,7.35,30.16,30.16,0,0,1,.59,8.26c-.12,1.5-.42,4.15-2.17,4.45.55,2.14,1.28,3.37,2.36,1.93,5.22-7,1.85-15.25.7-18S115.6,173.51,114.2,171Z"/><path class="cls-10" d="M121.44,164.83c-1.12-1.48-2.23-3-3.24-4.54.18.67.37,1.34.59,2,.66,1.91,1.62,3.64,1.78,5.68a7.21,7.21,0,0,1-.55,3.62,1.64,1.64,0,0,0,.22.14c1.27.78,5.05,1.46,4.84-1.19C124.91,168.3,122.7,166.51,121.44,164.83Z"/><path class="cls-14" d="M116.93,168.35c0,.16.06.32.08.48.24,1.71-.26,3.47-.32,5.16,0,.34.22.3.41.18,1.65-11.23-.95-22.94-9-31.44a49.09,49.09,0,0,0-14.65-10.29,95.84,95.84,0,0,0-10.27-3.95c-.64-.22-1.29-.43-1.93-.62q-3.18-.48-6.37-.67c-6.24-.4-3.34-.8-9.38.67,2.29-5.51,12-32.39,16.62-35.88,1.19-.9,7.54,5.62,9.37,1.84,4-8.32,2.95-11.06,1.4-20-.57-3.24-1-7.7-3.32-10.25-2-2.23-4.33-2.43-6.89-1.92l-.16-.13c-.1-.09-.27.08-.28.22-.23,0-.46.1-.7.17a1.23,1.23,0,0,0-.38,0,4.47,4.47,0,0,0-1,.37,22.38,22.38,0,0,0-6,3.33q-.7.43-1.41.9A78.92,78.92,0,0,0,61.17,75.9C57.84,79.16,55,83,52,86.55A35.88,35.88,0,0,1,46.46,92c-1.16.86-2.76,1.48-3.6,2.67-.09.15-.34.64,0,.7a6.51,6.51,0,0,0,3.41-.52c-.79.63-1.55,1.28-2.34,2-1.14,1-2.67,2.37-3.11,3.84-.06.23,0,.43.23.45a2.91,2.91,0,0,0,1.28-.26c-3.46,3.46-5.86,8.11-8.29,12.24a27.85,27.85,0,0,0-1.5,3.4,50.72,50.72,0,0,1-2.93,5.11,53.64,53.64,0,0,1-5.31,8c-.19.22-.33.72.09.74,1.2,0,2-.78,2.88-1.54l.94-.8c-.65,1.07-1.27,2.16-2,3.19-1.58,2.29-3.16,4.62-4.79,6.87s-3.14,4.46-4.73,6.68a17,17,0,0,0-3,5.44c-.08.34.31.44.53.28,2.29-1.66,3.54-4.31,5.62-6.17-.72,1.12-1.67,2.18-2.34,3.26a44,44,0,0,0-2.46,4.84c-1.13,2.46-2.44,5.79-2.16,8.55.05.44.61.14.76-.06.56-.8,1.05-1.63,1.53-2.48-.56,1.73-1,3.53-1.4,5.29a40.08,40.08,0,0,0-.71,12.6A32.32,32.32,0,0,0,15,185c1.48,5.56,3.42,11.07,2.67,16.86a.28.28,0,0,0,.4.32c2.34-.78,3.33-3.89,4-6.52.05,1.36.05,2.73.05,4.08,0,.49.65-.08.72-.26a24.7,24.7,0,0,0,1-3.65.38.38,0,0,0,0-.1,28.4,28.4,0,0,0,.5-3.65,6.51,6.51,0,0,0,1.09,2.19c.28.32.73-.41.71-.63A34.42,34.42,0,0,1,27.58,182c-.08,2.93-.78,5.89-.26,8.85.11.59.82-.13.87-.42.84-5,3.4-8.14,6.89-11q-1,1.53-2,3c-.23.34,0,.65.38.47,5.6-2.76,10.29-7.95,14.45-12.79-1.25,1.66-2.93,3.06-3.63,5-.1.27,0,.5.34.41,2.45-.68,4.54-2.88,6.5-4.37s4.12-3.29,6.23-4.87a14.55,14.55,0,0,0-2.79,5c-.12.44.3.35.51.13a27.6,27.6,0,0,1,4.57-4.4,44.49,44.49,0,0,1,6.07-3.76,17.64,17.64,0,0,1,2.46-.9s-.87,1.24-1,1.39A12.3,12.3,0,0,0,65,167.88c-.09.34.26.34.43.11a8.61,8.61,0,0,1,9.09-3.43c2.51.57,5,4.51,6.39,6.43,2.64,3.73,4.85,7.61,9.09,9.72.17.09.36-.14.43-.33a1.33,1.33,0,0,0,.21.09c.42,1.37.77,2.78,1.13,4.19.11.45.6.05.73-.16.86-1.44.76-3.22.76-4.86.23.89.45,1.78.7,2.65.1.34.49.17.64,0a8.51,8.51,0,0,0,1.48-4.05,18.6,18.6,0,0,0,.53,2.11c.11.32.54-.16.59-.28a15,15,0,0,0,.75-3.31,30.69,30.69,0,0,1-.12,8.8c-.1.65.63.31.85.07,2-2.18,2.95-6.2,2.67-9.88.35.27.7.54,1.06.78a4,4,0,0,0,2.24,1.47.72.72,0,0,0,.67-.55,40.39,40.39,0,0,1,3.6,7c.17.42.74-.29.73-.55a33.18,33.18,0,0,0-1.48-7.43l-.06-.19c.56,1.41,1,2.88,1.37,4.33.12.37.62-.2.67-.33.72-1.66.35-3.66.14-5.41l-.12-1a65.7,65.7,0,0,1,3.07,9.06c.11.53.76-.11.8-.39.28-2.1,1.06-4.12,1.47-6.2a14.79,14.79,0,0,0,.25-2.89C116.73,172.7,117,170.5,116.93,168.35ZM22.84,197c0-.36,0-.71,0-1.06l.19.15C23,196.39,22.91,196.69,22.84,197Z"/><path class="cls-15" d="M116.93,168.35c0,.16.06.32.08.48.24,1.71-.26,3.47-.32,5.16,0,.34.22.3.41.18,1.65-11.23-.95-22.94-9-31.44a49.09,49.09,0,0,0-14.65-10.29,95.84,95.84,0,0,0-10.27-3.95c-.64-.22-1.29-.43-1.93-.62q-3.18-.48-6.37-.67c-6.24-.4-3.34-.8-9.38.67,2.29-5.51,12-32.39,16.62-35.88,1.19-.9,7.54,5.62,9.37,1.84,4-8.32,2.95-11.06,1.4-20-.57-3.24-1-7.7-3.32-10.25-2-2.23-4.33-2.43-6.89-1.92l-.16-.13c-.1-.09-.27.08-.28.22-.23,0-.46.1-.7.17a1.23,1.23,0,0,0-.38,0,4.47,4.47,0,0,0-1,.37,22.38,22.38,0,0,0-6,3.33q-.7.43-1.41.9A78.92,78.92,0,0,0,61.17,75.9C57.84,79.16,55,83,52,86.55A35.88,35.88,0,0,1,46.46,92c-1.16.86-2.76,1.48-3.6,2.67-.09.15-.34.64,0,.7a6.51,6.51,0,0,0,3.41-.52c-.79.63-1.55,1.28-2.34,2-1.14,1-2.67,2.37-3.11,3.84-.06.23,0,.43.23.45a2.91,2.91,0,0,0,1.28-.26c-3.46,3.46-5.86,8.11-8.29,12.24a27.85,27.85,0,0,0-1.5,3.4,50.72,50.72,0,0,1-2.93,5.11,53.64,53.64,0,0,1-5.31,8c-.19.22-.33.72.09.74,1.2,0,2-.78,2.88-1.54l.94-.8c-.65,1.07-1.27,2.16-2,3.19-1.58,2.29-3.16,4.62-4.79,6.87s-3.14,4.46-4.73,6.68a17,17,0,0,0-3,5.44c-.08.34.31.44.53.28,2.29-1.66,3.54-4.31,5.62-6.17-.72,1.12-1.67,2.18-2.34,3.26a44,44,0,0,0-2.46,4.84c-1.13,2.46-2.44,5.79-2.16,8.55.05.44.61.14.76-.06.56-.8,1.05-1.63,1.53-2.48-.56,1.73-1,3.53-1.4,5.29a40.08,40.08,0,0,0-.71,12.6A32.32,32.32,0,0,0,15,185c1.48,5.56,3.42,11.07,2.67,16.86a.28.28,0,0,0,.4.32c2.34-.78,3.33-3.89,4-6.52.05,1.36.05,2.73.05,4.08,0,.49.65-.08.72-.26a24.7,24.7,0,0,0,1-3.65.38.38,0,0,0,0-.1,28.4,28.4,0,0,0,.5-3.65,6.51,6.51,0,0,0,1.09,2.19c.28.32.73-.41.71-.63A34.42,34.42,0,0,1,27.58,182c-.08,2.93-.78,5.89-.26,8.85.11.59.82-.13.87-.42.84-5,3.4-8.14,6.89-11q-1,1.53-2,3c-.23.34,0,.65.38.47,5.6-2.76,10.29-7.95,14.45-12.79-1.25,1.66-2.93,3.06-3.63,5-.1.27,0,.5.34.41,2.45-.68,4.54-2.88,6.5-4.37s4.12-3.29,6.23-4.87a14.55,14.55,0,0,0-2.79,5c-.12.44.3.35.51.13a27.6,27.6,0,0,1,4.57-4.4,44.49,44.49,0,0,1,6.07-3.76,17.64,17.64,0,0,1,2.46-.9s-.87,1.24-1,1.39A12.3,12.3,0,0,0,65,167.88c-.09.34.26.34.43.11a8.61,8.61,0,0,1,9.09-3.43c2.51.57,5,4.51,6.39,6.43,2.64,3.73,4.85,7.61,9.09,9.72.17.09.36-.14.43-.33a1.33,1.33,0,0,0,.21.09c.42,1.37.77,2.78,1.13,4.19.11.45.6.05.73-.16.86-1.44.76-3.22.76-4.86.23.89.45,1.78.7,2.65.1.34.49.17.64,0a8.51,8.51,0,0,0,1.48-4.05,18.6,18.6,0,0,0,.53,2.11c.11.32.54-.16.59-.28a15,15,0,0,0,.75-3.31,30.69,30.69,0,0,1-.12,8.8c-.1.65.63.31.85.07,2-2.18,2.95-6.2,2.67-9.88.35.27.7.54,1.06.78a4,4,0,0,0,2.24,1.47.72.72,0,0,0,.67-.55,40.39,40.39,0,0,1,3.6,7c.17.42.74-.29.73-.55a33.18,33.18,0,0,0-1.48-7.43l-.06-.19c.56,1.41,1,2.88,1.37,4.33.12.37.62-.2.67-.33.72-1.66.35-3.66.14-5.41l-.12-1a65.7,65.7,0,0,1,3.07,9.06c.11.53.76-.11.8-.39.28-2.1,1.06-4.12,1.47-6.2a14.79,14.79,0,0,0,.25-2.89C116.73,172.7,117,170.5,116.93,168.35ZM22.84,197c0-.36,0-.71,0-1.06l.19.15C23,196.39,22.91,196.69,22.84,197Z"/><path class="cls-5" d="M67.53,127.05c-19.91,2.53-43,12.59-47.65,34.24-.05.26.33.07.37-.08A40.59,40.59,0,0,1,38.14,138c8.89-5.32,19.15-8.16,29.15-10.23C67.56,127.67,68,127,67.53,127.05Z"/><path class="cls-5" d="M92.91,73.78c-.57-3.24-1-7.7-3.32-10.25-2-2.23-4.33-2.43-6.89-1.92l-.16-.13c-.1-.09-.27.08-.28.22-.23,0-.46.1-.7.17a1.23,1.23,0,0,0-.38,0,4.47,4.47,0,0,0-1,.37,22.38,22.38,0,0,0-6,3.33q-.7.43-1.41.9A76,76,0,0,0,65,72.38a19.71,19.71,0,0,1,4.86-1.73.28.28,0,0,1,.27.46,14,14,0,0,0-2.8,3.79,27.22,27.22,0,0,1,3.56-3.31.28.28,0,0,1,.42.24c-.34,3.22.41,6.34.83,9.53A22.85,22.85,0,0,1,71.72,90c-1.23,4.93-3.6,9.42-6,13.87,3-3.21,4.8-7.33,7.06-11.09a.28.28,0,0,1,.5.07,15.07,15.07,0,0,1-.56,7.14,76.3,76.3,0,0,1-2.8,8c-2.27,5.72-3.45,12.53-8.27,16.82-4.36,3.89-10.2,5.61-15.15,8.62-1,.59-2,1.23-2.89,1.9A152.23,152.23,0,0,1,66,126.78C68.86,119.5,77.81,95.29,82.14,92c1.19-.9,7.54,5.62,9.37,1.84C95.54,85.51,94.46,82.77,92.91,73.78Z"/><path class="cls-16" d="M108.12,142.73a43.15,43.15,0,0,0-5.26-4.67,35.43,35.43,0,0,1,6.39,8.5,33.78,33.78,0,0,1,3.46,10.65,82.55,82.55,0,0,1,.44,11,.27.27,0,0,1-.53.08c-1.46-4.4-2.8-9.71-6.17-13.13a29.5,29.5,0,0,1,3.07,12.14c0,.3-.48.38-.54.08a28.59,28.59,0,0,0-2.7-7.6c-1.14-2.19-2.88-5.16-5.56-5.61.84,2.78,2.09,5.45,2.73,8.28a14.68,14.68,0,0,1-.31,8,.27.27,0,0,1-.52,0,32.51,32.51,0,0,0-5.1-10.17c0,.8,0,1.43-.06,1.69a71.51,71.51,0,0,1-.67,7.74,17.68,17.68,0,0,1-1.14,5,.27.27,0,0,1-.49-.06,29.36,29.36,0,0,0-1.59-4.38,23.33,23.33,0,0,1-.25,5.65.27.27,0,0,1-.5.07,23.92,23.92,0,0,0-5.08-7.82,39.59,39.59,0,0,0,2.64,6.09.27.27,0,0,1-.37.37c-3.54-1.79-5.78-5-8.33-7.92-2.85-3.25-6.07-5.37-10.56-4.6a.27.27,0,0,1-.26-.46c.72-.72,1.48-1.45,2.28-2.15-2,.31-3.91.68-5.84,1.16-.25.06-.49-.28-.27-.46l.82-.7A30.31,30.31,0,0,1,58,163.94a.27.27,0,0,1-.26-.46c1.12-1,2.27-2.08,3.36-3.16-2.2,1.05-4.45,2-6.63,3.08-6.12,3-11.06,7.54-16.35,11.74-.23.19-.6,0-.43-.32,1.13-1.92,2.3-3.82,3.34-5.77-4.92,4-9.72,8.07-12.51,13.86-.13.26-.49.12-.51-.14a22.32,22.32,0,0,1,.44-5.25A28.31,28.31,0,0,0,27,180.34a.3.3,0,0,1,.08.44c-.2.23-.38.47-.57.7a27.31,27.31,0,0,0-1.89,7.66c0,.28-.47.39-.54.07a16.39,16.39,0,0,1-.33-3.37c-1.66,3.24-2.85,6.73-4.23,10.1a.28.28,0,0,1-.53,0c-1.94-6.67-4.46-13.23-5.87-20,0,.13,0,.26,0,.39A32.32,32.32,0,0,0,15,185c1.48,5.56,3.42,11.07,2.67,16.86a.28.28,0,0,0,.4.32c2.34-.78,3.33-3.89,4-6.52.05,1.36.05,2.73.05,4.08,0,.49.65-.08.72-.26a24.7,24.7,0,0,0,1-3.65.38.38,0,0,0,0-.1,28.4,28.4,0,0,0,.5-3.65,6.51,6.51,0,0,0,1.09,2.19c.28.32.73-.41.71-.63A34.42,34.42,0,0,1,27.58,182c-.08,2.93-.78,5.89-.26,8.85.11.59.82-.13.87-.42.84-5,3.4-8.14,6.89-11q-1,1.53-2,3c-.23.34,0,.65.38.47,5.6-2.76,10.29-7.95,14.45-12.79-1.25,1.66-2.93,3.06-3.63,5-.1.27,0,.5.34.41,2.45-.68,4.54-2.88,6.5-4.37s4.12-3.29,6.23-4.87a14.55,14.55,0,0,0-2.79,5c-.12.44.3.35.51.13a27.6,27.6,0,0,1,4.57-4.4,44.49,44.49,0,0,1,6.07-3.76,17.64,17.64,0,0,1,2.46-.9s-.87,1.24-1,1.39A12.3,12.3,0,0,0,65,167.88c-.09.34.26.34.43.11a8.61,8.61,0,0,1,9.09-3.43c2.51.57,5,4.51,6.39,6.43,2.64,3.73,4.85,7.61,9.09,9.72.17.09.36-.14.43-.33a1.33,1.33,0,0,0,.21.09c.42,1.37.77,2.78,1.13,4.19.11.45.6.05.73-.16.86-1.44.76-3.22.76-4.86.23.89.45,1.78.7,2.65.1.34.49.17.64,0a8.51,8.51,0,0,0,1.48-4.05,18.6,18.6,0,0,0,.53,2.11c.11.32.54-.16.59-.28a15,15,0,0,0,.75-3.31,30.69,30.69,0,0,1-.12,8.8c-.1.65.63.31.85.07,2-2.18,2.95-6.2,2.67-9.88.35.27.7.54,1.06.78a4,4,0,0,0,2.24,1.47.72.72,0,0,0,.67-.55,40.39,40.39,0,0,1,3.6,7c.17.42.74-.29.73-.55a33.18,33.18,0,0,0-1.48-7.43l-.06-.19c.56,1.41,1,2.88,1.37,4.33.12.37.62-.2.67-.33.72-1.66.35-3.66.14-5.41l-.12-1a65.7,65.7,0,0,1,3.07,9.06c.11.53.76-.11.8-.39.28-2.1,1.06-4.12,1.47-6.2a14.79,14.79,0,0,0,.25-2.89c1-.66,1.25-2.86,1.2-5,0,.16.06.32.08.48.24,1.71-.26,3.47-.32,5.16,0,.34.22.3.41.18C118.75,162.94,116.15,151.23,108.12,142.73ZM22.84,197c0-.36,0-.71,0-1.06l.19.15C23,196.39,22.91,196.69,22.84,197Z"/><g class="cls-13"><path class="cls-9" d="M55.43,86.57a28.51,28.51,0,0,1-7.63,5.52,4.54,4.54,0,0,0,1.9-.15,18.34,18.34,0,0,0,2.38-1.6,17.94,17.94,0,0,0,3.22-3C55.35,87.08,55.39,86.83,55.43,86.57Z"/><path class="cls-9" d="M54.7,89.94a30.68,30.68,0,0,1-10.14,7.65.84.84,0,0,0-.34.32,5.47,5.47,0,0,0,3.12-.26,34.59,34.59,0,0,0,3-1.94,15.5,15.5,0,0,0,3.87-4.29A8.7,8.7,0,0,0,54.7,89.94Z"/><path class="cls-9" d="M49,100.37c.51-.6,1-1.18,1.57-1.75a33.11,33.11,0,0,0-10.89,10.91c-3.26,5.56-6,11.12-10.45,15.81a20.93,20.93,0,0,0,2.47-1.41s0,0,0,0a38.61,38.61,0,0,0,6.39-9.07C41.1,109.24,44.32,104.34,49,100.37Z"/><path class="cls-9" d="M29.79,129.88c-1.25,1.92-2.6,3.77-4,5.63-1.18,1.62-2.73,2.91-3.95,4.49a14.77,14.77,0,0,0,3.26-2.16,30.41,30.41,0,0,0,4.7-7.15A7.19,7.19,0,0,0,29.79,129.88Z"/><path class="cls-9" d="M16.53,154.17c.57-.86,1.2-1.68,1.79-2.52.15-.2.29-.39.43-.6a65.11,65.11,0,0,1,8.84-11.42,9.88,9.88,0,0,0,.75-1.44C23.27,142.77,18.56,147.51,16.53,154.17Z"/><path class="cls-9" d="M20.13,151.88l.56-1.13c.15-.3.3-.61.43-.91-1.39,2.27-3,4.18-3.73,6.93-.33,1.28-.65,2.56-.85,3.86a12.42,12.42,0,0,0,1.16,4.3v-.23a18.31,18.31,0,0,1,.05-7A24.12,24.12,0,0,1,20.13,151.88Z"/><path class="cls-9" d="M65.64,130.39c-1,0-2,0-3.06.05A51.75,51.75,0,0,0,43.33,138c-6.45,4.06-12.78,9.43-16.69,16.09.4-.31.79-.63,1.16-1,9.35-12.2,24.67-19.93,39.51-22.5A16.49,16.49,0,0,0,65.64,130.39Z"/></g><path class="cls-8" d="M166.81,58.56a3.57,3.57,0,0,0-1.1-2.48A21.48,21.48,0,0,1,162,49.89c-.35-.88-.7-1.82-1.08-2.77.82,1.11,1.59,2.25,2.43,3.35.27.35.76-.27.66-.58-1.22-3.61-1.92-7.48-3.77-10.83-.55-1-1.15-2.19-1.86-3.38l.54.53a39.54,39.54,0,0,1,2.57,3.2c.45.57.33,1.05.95,1.53.35.27.83-.42.7-.73-1.58-4-2.81-8.21-5.13-11.7a2.41,2.41,0,0,0,2.36,0c.19-.16.38-.51.19-.72-3.28-3.53-5.87-7.52-8.87-11.26s-6.88-6.45-10.95-9c-3.76-2.4-8-2.94-12.39-2.84a14.26,14.26,0,0,0-4.52.91,8.09,8.09,0,0,0,1.47-1.18c.15-.15.44-.68,0-.67-3.29,0-7.14,1-9.42,3.5.43-1.11,1-2.14,1.43-3.26.11-.31-.12-.46-.38-.32a10.85,10.85,0,0,0-4.21,4.75c-1-1.66-2.38-3.35-4.14-3.68-.28,0-.66.37-.52.65.48,1,1,2,1.55,3-2.69-1.12-7.16-.31-9,1.3-.13.11-.31.43-.07.52,1.37.55,3.15.31,4.64.53.73.11-1.13.62-.74.52-.81.2-1.61.41-2.4.65-2.89.88-5.46,3.12-7.82,4.91a43.19,43.19,0,0,0-7.34,7.4c-1.16,1.42-2.27,2.9-3.39,4.35-1,1.25-2.2,2.18-3.19,3.38-.16.2-.23.71.17.57a33.25,33.25,0,0,0,5-2c-1.36,2-2.69,4-4,6a36,36,0,0,0-4,7c-.71,2-2.2,4.42-2.29,6.51,0,.34.31.32.51.14,1.53-1.31,2.56-3.19,3.77-4.88l-.2.31c-1.06,1.64-1.87,3.48-2.77,5.21-1.47,2.84-2.72,5.79-4.14,8.67-.9,1.8-2.84,3.84-3.23,5.81,0,.23.18.25.33.16a15.6,15.6,0,0,0,4-3.13l1.49-1.56c-1.32,2.47-3.59,6.35-2.91,9a.17.17,0,0,0,.25.12c1.09-.39,1.69-2.33,2.16-3.25.16-.31.34-.6.52-.9a28.47,28.47,0,0,0-1.13,3.72c-1.54,6.41,0,13.26,3,19,.14.59.28,1.18.44,1.76.34,1.26.66,3.33,1.69,4.24.23.2.6-.25.6-.46a40,40,0,0,0-.08-4.24,30.38,30.38,0,0,0,1.87,4.88c.95,2,3.56,5.62,5.73,6.23.25.07.55-.3.51-.53a9.56,9.56,0,0,0-.94-2.51,15.13,15.13,0,0,1,1.84,2.41c1.63,3.32,7.38,5.36,10.6,6.4,10.11,3.28,21.15,3.31,31.54,1.37a76.2,76.2,0,0,0,12.55-4c3.1-1.13,6.42-2.12,8.93-4.39A15.1,15.1,0,0,0,156.08,93c0,.11,0,.22.07.31.29,1.35.07,2.88.55,4.14.1.24.46,0,.54-.13a20.85,20.85,0,0,0,3.12-7.58C161,86.91,160,84.43,159,82a27.63,27.63,0,0,1,2.14,3.4c.59,1.08.93,3,1.81,3.79.16.16.41-.19.42-.31.5-3-.6-5.9-1.88-8.6,1.38,1.64,3.21,3.34,4.49,2.08.09-.1.26-.32.16-.47-.65-1-1.77-1.56-2.44-2.71-.43-.74-.85-1.49-1.23-2.26A23.83,23.83,0,0,0,165.9,80c.29.22.61-.3.6-.53-.07-2.18-2.19-4.59-3.13-6.46-.24-.48-.44-1-.64-1.47a14.48,14.48,0,0,0,3.2,3.34c.23.17.6-.26.55-.48-.83-3.15-2.27-6-2.94-9.26-.06-.29-.14-.56-.21-.83.68,1.13,1.35,2.27,2,3.45.2.37.71-.26.62-.54a72.88,72.88,0,0,0-2.41-7.78,26.29,26.29,0,0,0-1.47-2.9c1.32,1.07,3,2.33,4.31,2.52C166.61,59.07,166.81,58.78,166.81,58.56Zm-53.88,50.16,3.65-.08A34.27,34.27,0,0,1,112.93,108.72Z"/><path class="cls-11" d="M151.88,56.65c-3.63-2.73-5-7.06-6.1-11.28a48.16,48.16,0,0,0-4.86-13,32.84,32.84,0,0,0-8.44-9.59,12.73,12.73,0,0,0-4.29-2c-.56-.2-1.13-.38-1.69-.54a22.43,22.43,0,0,0-10.08-.39c-6.33,1.18-12.59,4.94-17.17,9.38s-6.88,10.49-7.57,16.84c-.38,3.59,0,7.24-1.1,10.74a21.11,21.11,0,0,1-5.93,8.9c-.09.08-.26.41,0,.41a2.29,2.29,0,0,0,1.26-.77c.59-.55,1.24-1.07,1.9-1.58-.32.59-.54,1.24-.85,1.89s-.8,1.4-.68,2c0,.17.22.12.31,0a13.3,13.3,0,0,0,1.18-1.83,14.62,14.62,0,0,1,1.7-2c-.39.64-.69,1.34-1,2a23.55,23.55,0,0,0-1.67,4.64,21.32,21.32,0,0,0-.54,4.79,12.86,12.86,0,0,0,.48,4.45c.07.24.42-.15.43-.27a21.66,21.66,0,0,1,1.73-7.15c-1.67,6.91-1.2,14.07,2.66,20.28,5,8,15,10.52,23.89,10.4,7-.1,14.46-1.29,20.63-4.72,8.79-4.88,15.11-13.08,14-23.53-.26-2.43-1-4.79-1.19-7.21a18.94,18.94,0,0,0-.78-3.49c-.19-.61-.4-1.22-.61-1.83a6.73,6.73,0,0,0-.54-1,7.9,7.9,0,0,1,2.84,4.35c0,.19.3,0,.28-.17a22.44,22.44,0,0,0-1.73-6.58,8.38,8.38,0,0,1,2,3c.05.19.38-.11.35-.26a25.59,25.59,0,0,0-1.84-5.21c.9.39,1.84.44,2.75.77C151.76,57.16,152.05,56.78,151.88,56.65Z"/><path class="cls-10" d="M151.88,56.65c-3.63-2.73-5-7.06-6.1-11.28a48.16,48.16,0,0,0-4.86-13,32.84,32.84,0,0,0-8.44-9.59,12.73,12.73,0,0,0-4.29-2c-.56-.2-1.13-.38-1.69-.54a22.43,22.43,0,0,0-10.08-.39c-6.33,1.18-12.59,4.94-17.17,9.38s-6.88,10.49-7.57,16.84c-.38,3.59,0,7.24-1.1,10.74a21.11,21.11,0,0,1-5.93,8.9c-.09.08-.26.41,0,.41a2.29,2.29,0,0,0,1.26-.77c.59-.55,1.24-1.07,1.9-1.58-.32.59-.54,1.24-.85,1.89s-.8,1.4-.68,2c0,.17.22.12.31,0a13.3,13.3,0,0,0,1.18-1.83,14.62,14.62,0,0,1,1.7-2c-.39.64-.69,1.34-1,2a23.55,23.55,0,0,0-1.67,4.64,21.32,21.32,0,0,0-.54,4.79,12.86,12.86,0,0,0,.48,4.45c.07.24.42-.15.43-.27a21.66,21.66,0,0,1,1.73-7.15c-1.67,6.91-1.2,14.07,2.66,20.28,5,8,15,10.52,23.89,10.4,7-.1,14.46-1.29,20.63-4.72,8.79-4.88,15.11-13.08,14-23.53-.26-2.43-1-4.79-1.19-7.21a18.94,18.94,0,0,0-.78-3.49c-.19-.61-.4-1.22-.61-1.83a6.73,6.73,0,0,0-.54-1,7.9,7.9,0,0,1,2.84,4.35c0,.19.3,0,.28-.17a22.44,22.44,0,0,0-1.73-6.58,8.38,8.38,0,0,1,2,3c.05.19.38-.11.35-.26a25.59,25.59,0,0,0-1.84-5.21c.9.39,1.84.44,2.75.77C151.76,57.16,152.05,56.78,151.88,56.65ZM138.47,49.3c-1.37,3.63-1.1,7.72-.27,11.44a.28.28,0,0,1-.53.15c-1.7-5-6.65-6.13-11.39-6.72a25,25,0,0,1-4.93-.79,34.43,34.43,0,0,0-5.43.47,35.18,35.18,0,0,0-5.74,1.25l-1.31.4a44.38,44.38,0,0,0-9.19,6c-3.57,3-6.86,6.63-8.41,11.11a.27.27,0,0,1-.53-.07,9.79,9.79,0,0,1,2.07-6.93C95,63.17,98.07,62,99.2,58.7l0,0a5.47,5.47,0,0,0,.22-1.22A9,9,0,0,0,97.73,52a.28.28,0,0,1,.37-.38,10.5,10.5,0,0,1,2.76,1.92,10.18,10.18,0,0,1-.71-3.87.28.28,0,0,1,.47-.19c1.48,1.44,3.29,1.52,5.14,1.36,1.32-.19,2.64-.54,4-.79a68.3,68.3,0,0,1,7.79-1.13,46.21,46.21,0,0,1,8.4.12c1.26.14,2.53.25,3.78.46a9.91,9.91,0,0,0,2.75.21,13.88,13.88,0,0,0,3.67-2.13.27.27,0,0,1,.43.32A11.85,11.85,0,0,1,134.17,51a21.61,21.61,0,0,1,4-2A.27.27,0,0,1,138.47,49.3Zm4.5,3.41a.28.28,0,0,1-.5.06,24.16,24.16,0,0,1-3-7.48,47.1,47.1,0,0,0-1.64-6.44,8.59,8.59,0,0,0-5.05-5.41,9.42,9.42,0,0,0-7.32.54c-2.22,1.05-4.27,2.55-6.62,3.31-2.58.83-4.71.31-7.11-.8C108.27,34.9,104.5,33.85,101,36a9.27,9.27,0,0,0-4.46,6.77c-.27,3.82,0,7.64-.53,11.44-.34,2.38-1.11,7.06-4.51,6.35a.28.28,0,0,1-.19-.34c2.74-8.18.46-17.69,5-25.3a27.53,27.53,0,0,1,12-10.42,14.2,14.2,0,0,1,3.63-1.82c2.75-.85,5.68-.26,8.52-.39a23.85,23.85,0,0,1,7.35.38,14.93,14.93,0,0,1,6.48,3.88,18.94,18.94,0,0,1,4.22,6.22,58.86,58.86,0,0,1,2,7.5c.61,2.26,1.54,4.42,2.16,6.67C143.16,48.75,143.69,50.87,143,52.71Z"/><path class="cls-17" d="M82.88,84.52s-.06.07,0,.07S82.92,84.52,82.88,84.52Z"/><path class="cls-17" d="M114.8,65.52a10.19,10.19,0,0,0-2.11-2.75,7.18,7.18,0,0,0-2.63-2.33,2.73,2.73,0,0,0-.75-.19,9.93,9.93,0,0,1,1.22,0c1,.09,1.91.8,2.88,1,.16,0,.4-.3.21-.37a11.84,11.84,0,0,0-3.25-1.13,8.1,8.1,0,0,0-2,.15.37.37,0,0,0-.23-.13.28.28,0,0,0-.29.24,3.49,3.49,0,0,0-2.57,1.81c-.86,1.56,1.87,2.82,1.7.85,0-.06-.1,0-.1,0,.09,1.67-1.26.28-1.38-.25-.28-1.25,1.26-1.8,2.32-2,0,.14,0,.28,0,.42s.07.2.19.16.36-.06.38.06a4.7,4.7,0,0,0,0,.67c0,.28.44-.07.44-.27v-.67c.16-.3,1.25.24,1.2.22a3.61,3.61,0,0,1,.6.39l-.22-.09c-.22-.07-.57.36-.38.53-.06.11-.06.24.06.29a3.39,3.39,0,0,1,.66.33,17.57,17.57,0,0,1,1.45,1.41l.55.75s0,0,0,.06a12.52,12.52,0,0,0,.47,2.12C113.74,67.86,115.1,66.31,114.8,65.52Zm-1.23.5c0-.14-.07-.29-.09-.44l.11.13c.15.17.48-.19.45-.39,0,0,0,0,.06.07C114.39,65.75,114.21,66,113.57,66Z"/><path class="cls-17" d="M123.39,59.59h-.09c0-.16-.13-.26-.33-.06l-.17.15c-1.12.35-2.08,1.58-2.82,2.33l-.21.22c-.12-.15-.32,0-.41.09a2.92,2.92,0,0,0-.62,1,3.7,3.7,0,0,0-.88,1.85c-.11,1.06,1.16,1.1,2,.72,0,0,0,0,0,.06s.48-.21.43-.39a.46.46,0,0,1,.07-.07,2.7,2.7,0,0,0,.26-2.11,1.72,1.72,0,0,1,.05-.64c.79-1,1.62-1.93,2.48-2.82a.14.14,0,0,1,.08.12c0,.13.19,0,.19-.09s0-.19,0-.29A.07.07,0,0,0,123.39,59.59Zm-3.13,2.65.72-.76c-.13.17-.27.33-.39.51a2.41,2.41,0,0,0-.27.53l-.31.39a1.36,1.36,0,0,0-.07-.35Zm-.14,1.82a1.21,1.21,0,0,1-.17.76,2.57,2.57,0,0,1,0-1.14l.13-.16C120.06,63.71,120.11,63.92,120.12,64.06Zm-1.68,1.17c-.2-.31,0-.74.22-1.18,0,.07,0,.14,0,.21s.07.16.16.14a2.37,2.37,0,0,0,.4-.15.86.86,0,0,0,0,.28,2.65,2.65,0,0,0,.23.87A.64.64,0,0,1,118.44,65.23Z"/><path class="cls-17" d="M127,58a2.32,2.32,0,0,0-3.45,1c0,.14.13.07.16,0,.39-1.12,2.24-1.37,3.1-.7C126.89,58.29,127.07,58.06,127,58Z"/><path class="cls-18" d="M139.07,64.38c-4.69-5.29-11.48-10.71-19.89-10.18-11,.68-19.82,9-23.82,17.12a34.71,34.71,0,0,0-2.85,8.2c-1,4.81-1.76,10.5.28,15.18,4,9.26,15.07,11.28,25.55,10.79,7.74-.36,16.38-.68,22.41-5,7.89-5.62,7.14-17.08,4.71-24.83A31.09,31.09,0,0,0,139.07,64.38Z"/><path class="cls-19" d="M111.56,60.67a6.89,6.89,0,0,0,.9,2.72,3.87,3.87,0,0,1,.09-3.13c.8-1.37,2.75-.67,4.1-.3C115.35,57.9,111.29,57.53,111.56,60.67Z"/><path class="cls-19" d="M122.4,57.62a7.09,7.09,0,0,0-1.79,2.11c1.16-.56,2.47-.72,3.37.48a6.43,6.43,0,0,1,1,4.55c1-1.62,1.85-3.84,1.35-5.59A2.49,2.49,0,0,0,122.4,57.62Z"/><path class="cls-19" d="M126.41,71.92a38,38,0,0,0,3.24,7.62A35.36,35.36,0,0,0,126.41,71.92Z"/><path class="cls-19" d="M131.64,68.6c2.53,2.9,3.75,6.84,5.84,10.11C136.69,74.89,134.91,70.73,131.64,68.6Z"/><path class="cls-19" d="M119.12,69.68c-.28,2.86-.73,5.79-.08,8.61C120.09,75.72,119.82,72.33,119.12,69.68Z"/><path class="cls-19" d="M111.19,72.09A23.62,23.62,0,0,0,108.87,85,74.4,74.4,0,0,0,111.19,72.09Z"/><path class="cls-19" d="M102.86,80c1.54-3.14,2.71-6.45,4-9.72A21.27,21.27,0,0,0,102.86,80Z"/><path class="cls-19" d="M145.46,75.67a31.09,31.09,0,0,0-6.39-11.29c-.12-.15-.26-.29-.39-.43,4.23,6.27,6.81,13.69,5.73,21a18.13,18.13,0,0,1-7.75,12.71,31.71,31.71,0,0,1-14.42,4.92,41.76,41.76,0,0,1-16.48-1.51c-5.28-1.61-10.3-4.8-11.75-10.47C92.13,83.2,95.16,75.39,98.86,69A48.36,48.36,0,0,1,108,57.69,33,33,0,0,0,95.36,71.32a34.71,34.71,0,0,0-2.85,8.2c-1,4.81-1.76,10.5.28,15.18,4,9.26,15.07,11.28,25.55,10.79,7.74-.36,16.38-.68,22.41-5C148.64,94.88,147.89,83.42,145.46,75.67Z"/><path class="cls-20" d="M133.76,45a3.18,3.18,0,1,1-3.18-3.33A3.26,3.26,0,0,1,133.76,45Z"/><path class="cls-21" d="M133.07,44.78a2.5,2.5,0,1,1-2.49-2.6A2.56,2.56,0,0,1,133.07,44.78Z"/><path class="cls-22" d="M130,43.89a.88.88,0,0,1-.86.89.86.86,0,0,1-.84-.89.85.85,0,0,1,.84-.88A.87.87,0,0,1,130,43.89Z"/><path class="cls-20" d="M109.89,45a3.18,3.18,0,1,1-3.18-3.33A3.25,3.25,0,0,1,109.89,45Z"/><path class="cls-21" d="M109.2,44.78a2.49,2.49,0,1,1-2.49-2.6A2.56,2.56,0,0,1,109.2,44.78Z"/><path class="cls-22" d="M106.08,43.89a.85.85,0,1,1-1.7,0,.85.85,0,1,1,1.7,0Z"/><path class="cls-23" d="M97.92,54.06c-.08-.14-.3.1-.28.21a8.93,8.93,0,0,1-.36,4.32,6.17,6.17,0,0,1-1,2.57,3.58,3.58,0,0,1-2.75.92c-.31,0-.9.8-.42.93C97.81,64.2,99.69,57.3,97.92,54.06Z"/><path class="cls-23" d="M146.64,66a21.69,21.69,0,0,1-2.55-1.28c-1.2-.82-2.09-3.06-2.84-4.29-1.32-2.17-1.68-6-2-8.55,0-.22-.33,0-.33.17-.21,5,.85,14.16,7.21,14.7C146.39,66.78,147,66.2,146.64,66Z"/><path class="cls-24" d="M117.37,66.5a1.79,1.79,0,0,0,.25-.31c.1-.61.17-1.21.23-1.81a6.54,6.54,0,0,0-1.2-2.18,1.42,1.42,0,0,0-1.85,0c-.71.62-.44,1.41.1,2a5.88,5.88,0,0,0,1.17.88A3.5,3.5,0,0,1,117.37,66.5Z"/><path class="cls-24" d="M122.35,62c-1.33-1.18-2.5.17-3.33,1.83a8.52,8.52,0,0,0-.11,2.72c.68-1.06,1.84-1.13,2.88-1.85C122.57,64.13,123.2,62.7,122.35,62Z"/><path class="cls-23" d="M140.12,90.1c-.08-.34-.53.08-.55.28-.29,2.48-4.83,2-7.93,1.5a5.9,5.9,0,0,0-1.2-.2l-1.1-.18c-3-.38-5.91-.81-8.9-1A31.53,31.53,0,0,0,111,91.66c-1.56.39-11.65,3.76-10.89.22,0-.17-.19-.07-.23,0-1.14,2.3,1.15,2.93,3.06,2.58s4-.92,5.9-1.46c3-.1,6.09.92,9.17.47,4.62-.69,9.34-1.4,14-1a.28.28,0,0,0,.2-.13c1,.14,2,.26,3,.37a6.66,6.66,0,0,0,4-.68,1.61,1.61,0,0,0,.5-.6c.07-.13.11-.22.16-.3l0,0,.43-.37C140.91,90.31,140.58,89.73,140.12,90.1Z"/><path class="cls-25" d="M126.55,91.78a61,61,0,0,0-7.45,1,37.13,37.13,0,0,1-7.38-.12c-.4,0-.79,0-1.19-.05a35,35,0,0,1,8.65-1.48,61.25,61.25,0,0,1,8.5.64C127.3,91.76,126.92,91.78,126.55,91.78Z"/><path class="cls-23" d="M125,96.58c-4.22,2.67-9.69,2.19-13.78-.34-.11-.06-.32.15-.24.25,3.33,4.2,10.33,4.06,14.11.38C125.16,96.76,125.19,96.43,125,96.58Z"/><path class="cls-23" d="M116.2,59.46a3.08,3.08,0,0,0-3.74.52c-1.13,1.31-.26,3.65.39,4.94.07.13.27-.08.25-.17a9.84,9.84,0,0,1-.7-3.46c.13-2,2.17-1.77,3.56-1.46C116.09,59.86,116.36,59.55,116.2,59.46Z"/><path class="cls-23" d="M125.09,59.82a2.88,2.88,0,0,0-3.64-.83h0a.6.6,0,0,0-.11.06c-.07.06-.2.33,0,.26a3,3,0,0,1,3.4,1.24,3.91,3.91,0,0,1,0,3.45c-.08.22.18.14.25,0A3.71,3.71,0,0,0,125.09,59.82Z"/><path class="cls-21" d="M109.67,41.72c-1.14-1.91-3.19-2.19-5.07-1.09s-2.34,2.93-2.1,4.95c0,.08.12,0,.12-.06.22-2,.7-3.79,2.75-4.69,1.66-.73,2.85.09,4,1.19C109.5,42.13,109.74,41.85,109.67,41.72Z"/><path class="cls-21" d="M132.17,40.28a4.16,4.16,0,0,0-4.79,1.33c-.07.08,0,.18.08.1,1.4-1.19,3.33-1.79,5-.58.63.47,1.25.61,1.48,1.54a9.47,9.47,0,0,1,.26,1.68c0,.23.3-.07.32-.16A3.37,3.37,0,0,0,132.17,40.28Z"/><path class="cls-26" d="M101,36a9.27,9.27,0,0,0-4.46,6.77c0,.52-.06,1-.08,1.56.28-.78.25-1.67.55-2.44a5.84,5.84,0,0,1,1-1.73,12.67,12.67,0,0,1,4.53-3.23c2.66-1.16,5.34-1.07,8.08-.9C107.49,34.71,104.13,34.07,101,36Z"/><path class="cls-26" d="M132.78,33.44a9.42,9.42,0,0,0-7.32.54c-.81.38-1.59.82-2.37,1.26l.29-.1a24.74,24.74,0,0,1,3.43-.79,13.05,13.05,0,0,1,7,1.23,15.58,15.58,0,0,1,3.45,2A8.06,8.06,0,0,0,132.78,33.44Z"/><path class="cls-27" d="M112.64,88.6a21.38,21.38,0,0,0-7.4,2.24c-1,.52-1.9,1.08-2.86,1.61a9.78,9.78,0,0,0,3.23-.71c1.58-.55,3.07-1.3,4.65-1.83,4.63-1.53,9.79-1.12,14.61-.77-1.29-.92-3.39-.9-4.85-1A36.52,36.52,0,0,0,112.64,88.6Z"/><path class="cls-27" d="M92.93,94.17c-2.9-12.6,4.57-26.36,14.38-34a23.75,23.75,0,0,1,17.41-5,21.45,21.45,0,0,1,3.68.76,19.05,19.05,0,0,0-9.22-1.81c-11,.68-19.82,9-23.82,17.12a34.71,34.71,0,0,0-2.85,8.2c-1,4.81-1.76,10.5.28,15.18.22.51.47,1,.73,1.46A19,19,0,0,1,92.93,94.17Z"/></g></g></svg>