<svg id="Layer_1" data-name="Layer 1" xmlns="http://www.w3.org/2000/svg" viewBox="0 0 256 290"><defs><style>.cls-1{fill:#323232;opacity:0.4;}.cls-2{fill:#51290f;}.cls-17,.cls-3{fill:#e5b798;}.cls-3{stroke:#6d1f0c;stroke-miterlimit:10;}.cls-4{fill:#231c1c;}.cls-5{fill:#723a1a;}.cls-6{fill:#3f1e0e;}.cls-7{fill:#bf8e6d;}.cls-8{fill:#3d3232;}.cls-9{fill:#280d02;}.cls-10{fill:#281a10;}.cls-11{fill:#1e130b;}.cls-12{fill:#4f280e;}.cls-13{fill:#fcf9f7;}.cls-14{fill:#3a1e0f;}.cls-15{fill:#2d1c15;}.cls-16{fill:#f9f4f2;}.cls-18{fill:#6d1f0c;}</style></defs><ellipse class="cls-1" cx="120.95" cy="265.71" rx="88.67" ry="23.53"/><path class="cls-2" d="M71.3,23.39S56.1,35.67,55,41.63s-6.45,30-5.84,36.35,9.43,27.23,11,33.43,8.05,26.31,8.65,30.69c-6.2-1.95-27-30.36-28-45.28-.76,1.34-2.18,8.33-2.21,12C35,106.3,34.28,80.29,35.31,76.4,34.52,78,29.85,86.68,29,88.92,22.85,74.45,47,32,53.55,25.22S71.3,23.39,71.3,23.39Z"/><path class="cls-3" d="M68,21.63S66,4.79,63,1c4.92-1.89,17,6.73,15.32,14.8C76.87,22.7,68,21.63,68,21.63Z"/><path class="cls-4" d="M131.64,228.85s-11.17,16-5.79,17.52,16.54-1.65,18-5.48,1.73-10.31.64-12.4S131.64,228.85,131.64,228.85Z"/><path class="cls-3" d="M159.4,164.07s-5.93,16-5.11,20.7c.61,3.53,3.47,6.57,3.19,10-.51,6.46-11,25.25-10.75,27.17s1.18,9.48-2.92,11.94-17.23,5.49-16-.73c1.37-7.2,11-13.49,13.22-22.34,1.87-7.53,3.47-18.32-.73-22.15-2.67-2.44-12.67-10.85-16-12.31S159.4,164.07,159.4,164.07Z"/><path class="cls-4" d="M69.81,251.87s9.27,10.85,12.72,3.56c1.71-3.61-1.39-22.4-12.63-20.58C69.53,237.89,69.81,251.87,69.81,251.87Z"/><path class="cls-3" d="M61.93,131.71S51.36,174.19,50.08,178s-14.22,21.34-12,25.53,14.22,12.58,15.13,16.23,5.29,26.39,8,28,9.48,6.31,11.48,6.49,6.2-19.14-2.55-21.15c.55-1.28,2.19-8.3-10.39-14.22,0-3.47-3.41-12.71-6.69-14.35,1.09-1.27.85-1.94.24-3.22,2.5-.24,24-19.14,24.68-27.84C78.44,167.57,61.93,131.71,61.93,131.71Z"/><path class="cls-2" d="M172.52,115.3s14.25-12.19,26.29-12.55S228.59,116.61,228,134.6a5.28,5.28,0,0,0-3.4-3.1c.58,1.18,2.68,9.78,1.95,14.52-.48,3.12-3,12.83-2.92,14.5-1.22-2.7-2-5-3.65-5.62-.85,4.37-.73,13.13.73,17.62-1.58-1-3.28-2.79-4-2.55.08,8.08,4.62,15.56,8.54,17.76-3.1.73-13.59-6.06-15-8.93a24.57,24.57,0,0,0,1,6.93c-4.06,0-12.4-14.36-11.76-21.84a8.31,8.31,0,0,0-2.74,4c-3.28-3.09-.3-21.88,3.19-26.53-1.27.92-2.82,2.88-3.23,3.1,1.89-6.19,3.41-16.08,2.41-19.74-.82-3-5.29-9.77-16-4.11S172.52,115.3,172.52,115.3Z"/><path class="cls-2" d="M172.52,115.3s14.25-12.19,26.29-12.55S228.59,116.61,228,134.6a5.28,5.28,0,0,0-3.4-3.1c.58,1.18,2.68,9.78,1.95,14.52-.48,3.12-3,12.83-2.92,14.5-1.22-2.7-2-5-3.65-5.62-.85,4.37-.73,13.13.73,17.62-1.58-1-3.28-2.79-4-2.55.08,8.08,4.62,15.56,8.54,17.76-3.1.73-13.59-6.06-15-8.93a24.57,24.57,0,0,0,1,6.93c-4.06,0-12.4-14.36-11.76-21.84a8.31,8.31,0,0,0-2.74,4c-3.28-3.09-.3-21.88,3.19-26.53-1.27.92-2.82,2.88-3.23,3.1,1.89-6.19,3.41-16.08,2.41-19.74-.82-3-5.29-9.77-16-4.11S172.52,115.3,172.52,115.3Z"/><path class="cls-5" d="M217,110.68c-5.66-5.09-12.53-8.1-18.15-7.93-12,.36-26.29,12.55-26.29,12.55a5.69,5.69,0,0,1,1,1.73C186,105,201.13,98.43,217,110.68Z"/><path class="cls-6" d="M224.58,120.43c.65,2.91,1.47,5.14,1.1,9.15a7.44,7.44,0,0,0-4.38-1.46c2.19,8,3.71,14.77.73,24.07a6.26,6.26,0,0,0-2.61-3.52c-1.7,4.37-3,9.42-2.31,14.52-1.39-.76-1.45-2.62-1.64-3-2,3.33-2.25,12-.61,15.56-3-2-6.26-7.59-7.41-11.18-.79,1.7-1.46,2.92-1.46,4.38-4.38-4.9-3.83-12.56-2.92-21.16-1.37,1.49-1.73,2.84-2.46,3.57,0-6.56,6.11-13,4.65-19.61,0,1-1.49,2-2.3,2.56.57-7.13.33-16.56-7.18-18.61-7.16-2-16.06-.41-21.52,5.13,1.43,1.59,4,2.31,8.75-.17,10.75-5.66,15.22,1.11,16,4.12,1,3.65-.52,13.54-2.41,19.73.41-.22,2-2.18,3.23-3.1-3.49,4.65-6.47,23.44-3.19,26.54a8.28,8.28,0,0,1,2.74-4c-.64,7.48,7.7,21.79,11.76,21.84a24.57,24.57,0,0,1-1-6.93c1.41,2.87,11.9,9.67,15,8.94-3.92-2.21-8.46-9.69-8.54-17.77.73-.24,2.43,1.58,4,2.56-1.46-4.5-1.58-13.26-.73-17.63,1.7.61,2.43,2.92,3.65,5.62-.12-1.67,2.44-11.38,2.92-14.5.73-4.74-1.37-13.34-1.95-14.52a5.28,5.28,0,0,1,3.4,3.1A28.31,28.31,0,0,0,224.58,120.43Z"/><path class="cls-3" d="M77.62,21.63S57.89,27.18,50.26,51.84c-.86,2.79-4.11,20.82-4.19,26.62-.38,26.83,9.76,40.06,10.39,45.22,1.1,8.88-3.4,33.07,5.23,46.56,5.23,7.41,11.55,7.42,11.55,7.42s9.73,12.4,25.53,13.68c17.77,1.45,38.9-18.46,51.54-17.94,21.49.88,37.52-46.24,37.52-46.24s-4.45-20.43-24.15-20.07-32.3,14.65-52.95,1.64C93.18,97.67,81.5,69.26,88.56,64.6,82.9,53.48,77.62,21.63,77.62,21.63Z"/><path class="cls-7" d="M57.92,56.35C57.12,74,76.49,76.82,87.6,78c-.23-2-4.1-10.24.61-13.38C84.54,57.29,81,41,79,30.74,70.69,38.45,60,45.93,57.92,56.35Z"/><path class="cls-7" d="M111.51,182.1C98.38,189.4,79.56,184.89,70.8,171c-1.51,2.22-3.33,2.49-5.52,1-4.53-3.32-5.78-6.43-7.39-11.23a31,31,0,0,0,3.8,9.4c5.23,7.41,11.55,7.42,11.55,7.42s9.73,12.4,25.53,13.68c17.77,1.45,38.9-18.46,51.54-17.94,5.05.21,9.8-2.24,14.11-6.1-.24,0-.5.22-.74.15C150,163.53,128.28,173.35,111.51,182.1Z"/><path class="cls-8" d="M183,240.93s-10.9,13.54-6.7,15.14,16.13-.92,18-6.25a12.11,12.11,0,0,0-1.6-10.71C192,238.29,183,240.93,183,240.93Z"/><path class="cls-4" d="M194.23,249.82a12.11,12.11,0,0,0-1.6-10.71c-.11-.13-.44-.18-.91-.15a4,4,0,0,1-1.78,5.07c-8,2.37-10,3.43-8.75,10.94.08.69.16,1.12.24,1.57C186.45,256,193,253.49,194.23,249.82Z"/><path class="cls-9" d="M179.58,256.91a10,10,0,0,1-3.44-.5,1.76,1.76,0,0,1-1.11-1.23c-1-3.67,7.3-14,7.65-14.48l.07-.09.11,0c3.44-1,9.32-2.58,10-1.71a12.39,12.39,0,0,1,1.66,11.07c-.62,1.83-2.4,3.47-5.14,4.76A25,25,0,0,1,179.58,256.91Zm3.6-15.66c-2.39,3-8.19,11-7.45,13.74a1,1,0,0,0,.67.74c2.68,1,8.63.23,12.72-1.69,1.78-.84,4.06-2.27,4.76-4.34a11.78,11.78,0,0,0-1.53-10.36C191.8,239,187.18,240.08,183.18,241.25Z"/><path class="cls-3" d="M177.11,111.4c16.29,9.72,14.19,49.33,10.4,62.12-3.17,10.7,4.13,17.82,5.35,25,.74,4.37-1.77,22.15-.82,26.5,1.25,5.74,3.86,11.78,3.46,14.49-.23,1.64-1.39,6.41-5.28,7.3-3.2.73-12.15,1.65-10.78-2.93,1-3.29,2.76-6.47,4.9-8.19s-.44-16.41-1.6-19c-2.12-4.69-5.08-13.58-12.58-19.51-9.29-7.33-18.3-31.5-17.78-44.39"/><path class="cls-7" d="M192,225.07c-.95-4.35,1.56-22.13.82-26.5-1.22-7.23-8.52-14.35-5.35-25,3.79-12.79,5.89-52.4-10.4-62.12h0A34.64,34.64,0,0,1,186.32,132c4.38,39.32-11.09,42.8,0,60.63,6.63,10.66.7,24.43,2.89,36.1,1,6,6.7,15.63-7.93,18.33,12.46,2.19,13.2-3.86,14.22-7.48C195.9,236.85,193.29,230.81,192,225.07Z"/><path class="cls-8" d="M90.65,266.73s-12.58,11.58-9.36,15.16c5.39,6,19.13,2.46,21.4-.84,3.19-4.64,4.74-11.67,2.28-15.23S90.65,266.73,90.65,266.73Z"/><path class="cls-4" d="M105,265.82a2.54,2.54,0,0,0-1-.82c-1.47,4.41-3.7,8.68-8.14,11.85a11.81,11.81,0,0,0-3,8.13c4.5-.5,8.65-2.24,9.81-3.93C105.88,276.41,107.43,269.38,105,265.82Z"/><path class="cls-9" d="M90.34,285.49c-4.07,0-7.34-1.17-9.32-3.36-3.36-3.73,8.07-14.45,9.39-15.66l.12-.08c.49-.18,12.14-4.52,14.74-.78s.86,11.08-2.28,15.64c-1.37,2-6.39,3.88-11.17,4.19C91.31,285.48,90.82,285.49,90.34,285.49Zm.51-18.44c-3.46,3.19-11.72,11.9-9.29,14.59,2.78,3.08,7.59,3.25,10.21,3.08,5-.33,9.51-2.27,10.62-3.88,3-4.37,4.73-11.27,2.28-14.81C102.8,263.33,94.12,265.83,90.85,267.05Z"/><path class="cls-3" d="M85.3,150c-4,5.1-2.27,18.12-.21,26.35,2.4,9.57,8.33,22.43,9.48,26.81.67,2.49-4,17.14,1.65,24.42,3.88,5,2.8,30.06-.11,32.49s-10.93,8.28-8.77,11.77c2.06,3.33,12.67,5.65,18.15-.73s2.34-10.67,2.09-11.85-2.34-30.18-1.88-31.79,3.89-12.31,3.71-13.95,2.25-16,3.06-17.81c2.1-4.69,2.72-20,3.07-23a32.21,32.21,0,0,1,3-10.32"/><path class="cls-7" d="M102.76,265.89c-.25,3.59-2.65,8-5.83,9.21a11.87,11.87,0,0,0,8-4c5.47-6.38,2.34-10.67,2.09-11.85s-2.34-30.18-1.88-31.79,3.89-12.31,3.71-13.95,2.25-16,3.06-17.81c2.1-4.69,2.72-20,3.07-23a32.21,32.21,0,0,1,3-10.32c-5,2.21-8,26.67-10.53,38-2.45,10.75-6.28,21.73-6.56,27.63C100.75,231.58,103.94,252.6,102.76,265.89Z"/><path class="cls-3" d="M50.26,51.47S60.93,13.18,76,13.46s19.32,19,20.6,21.24S99.86,50,109.89,49.92s12.15,2.86,13,4.75c1.37,2.88-1.94,14.64-1.09,15.81,1.4,2,.66,4.59-.87,5s-3.47-.38-4.06.21c0,1.48-1.3,8.65-8.62,8.86-5.29.15-8.08-5.11-9.28-7.29-1.65-3-6-5.12-9.3-4.44-8.45,1.76-29.62-.35-31.79-16.46"/><path class="cls-7" d="M89.85,31a53.66,53.66,0,0,0-3.07-5.76c7.93,3.07,9,16.92,12.94,18C97.8,39.65,97,35.8,96.34,34.7c-1.27-2.19-5.52-21-20.47-21.24-6.76-.13-12.62,7.62-17,16.15C69.67,20.43,79.16,32.54,89.85,31Z"/><path class="cls-2" d="M54,24.58s18.86-26.11,51.8-13.71c-4.13-.48-15.07.06-16.65,2.58,7.17,1.8,17.14,15.41,15.92,23.32-3-2.92-15.56-13.62-21.76-13.13,3.16,1.82,4.11,5.15,5.23,6.56-2.8.24-15.42-4.85-17.26-5.23-3.3-.66-4.7,2.4-8.27,2.71A12.53,12.53,0,0,1,54,24.58Z"/><path class="cls-3" d="M63,32.51S50.26,29.05,49.87,16.59C49.66,9.8,52.77,5,55.46,2.85c.88.66,1.67,2.21,2.48,4.23.24.6.48,1.24.72,1.9C61.05,15.55,64,24.75,69.74,27.32"/><path class="cls-3" d="M62.43,32s-12.17-3-12.56-15.43C49.66,9.8,52.77,5,55.46,2.85c.88.66,1.67,2.21,2.48,4.23.24.6.48,1.24.72,1.9,1,4.79-1.28,19,3.77,23Z"/><path class="cls-7" d="M58.18,9.33c-.22-.64-.44-1.24-.66-1.81-.74-1.93-1.47-3.4-2.28-4a12.53,12.53,0,0,0-2.41,2.8c.66-.6,1.33-1,2-.25,4.18,5.73-1.59,9.72,2.87,23.55,1.2.54,3.95,1.68,3.95,1.68C57,27.39,59.06,13.89,58.18,9.33Z"/><path class="cls-10" d="M111.67,62.16a2.69,2.69,0,1,1,2.49-2.37A2.45,2.45,0,0,1,111.67,62.16Z"/><path class="cls-11" d="M111.09,61.84c-1-.12-1.66-1.29-1.5-2.63s1.09-2.31,2.07-2.19,1.66,1.29,1.5,2.62S112.07,62,111.09,61.84Z"/><path class="cls-9" d="M111.9,62.53h-.27a3.05,3.05,0,1,1,2.89-2.69,3.25,3.25,0,0,1-1,2A2.38,2.38,0,0,1,111.9,62.53Zm.19-5.27a2.15,2.15,0,0,0-1.91,2.05,2.09,2.09,0,0,0,1.54,2.48h0a1.62,1.62,0,0,0,1.33-.48,2.56,2.56,0,0,0,.75-1.56,2.09,2.09,0,0,0-1.54-2.48Z"/><path class="cls-9" d="M117.37,57.58c0-.89-1.23-2.72-3.44-3.3-2.86-.76-4.45.48-4.5.57a4.6,4.6,0,0,1,4.75-1.18C117.43,54.48,117.5,56.89,117.37,57.58Z"/><path class="cls-12" d="M67.73,34.41s1.54-3.95,4.56-5c7.28-2.61,7.48,2.77,7.48,2.77-2.3-2.68-5-2.38-7.31-1.53A12,12,0,0,0,67.73,34.41Z"/><ellipse class="cls-13" cx="78.61" cy="42.49" rx="6.14" ry="6.4" transform="translate(-2 3.93) rotate(-2.83)"/><path class="cls-14" d="M78.93,49a5.81,5.81,0,0,1-2.48-.33,6.93,6.93,0,0,1-2.24-1.23,7.37,7.37,0,0,1-2.69-4.58,7.66,7.66,0,0,1,1.29-5.62,7.26,7.26,0,0,1,2.34-2.06,7.54,7.54,0,0,1,3-.86,7.76,7.76,0,0,1,3.13.56,7.28,7.28,0,0,1,4.35,7.28A7.33,7.33,0,0,1,83.46,47,6.74,6.74,0,0,1,78.93,49Zm0-.2a5.86,5.86,0,0,0,4.19-2.12,6.42,6.42,0,0,0-.47-8.73,5.81,5.81,0,0,0-8.5.42,6.45,6.45,0,0,0,.4,8.74A5.85,5.85,0,0,0,78.92,48.78Z"/><ellipse class="cls-15" cx="76.53" cy="41.7" rx="3.75" ry="3.92" transform="translate(-1.97 3.83) rotate(-2.83)"/><ellipse class="cls-16" cx="75.21" cy="39.31" rx="0.96" ry="1.07" transform="translate(-1.85 3.76) rotate(-2.83)"/><path class="cls-17" d="M117.07,75.93s-14.83-.7-20.63-13.61"/><path class="cls-18" d="M117,77.43a23,23,0,0,1-3.4-.69,31.68,31.68,0,0,1-3.21-1,28.12,28.12,0,0,1-5.9-3.16A21.94,21.94,0,0,1,99.67,68a22.58,22.58,0,0,1-3.23-5.66,22.41,22.41,0,0,0,3.8,5.17,20.56,20.56,0,0,0,5,3.77,26.81,26.81,0,0,0,11.86,3.17Z"/><path class="cls-17" d="M97.75,59.84a5.45,5.45,0,0,1-4.07,4.07"/><path class="cls-18" d="M97.8,59.85a2.69,2.69,0,0,1,0,1.75A3.82,3.82,0,0,1,97,63.1a3.45,3.45,0,0,1-1.51.91A2.63,2.63,0,0,1,93.69,64l0-.1a5.08,5.08,0,0,0,2.56-1.46,5.58,5.58,0,0,0,1.47-2.57Z"/><path class="cls-17" d="M54.54,117.69s9.54,15,18.89,21.7"/><path class="cls-18" d="M55,117.43a127.35,127.35,0,0,0,8.36,11.72,61.6,61.6,0,0,0,10.11,10.24,62,62,0,0,1-10.49-9.92A126.58,126.58,0,0,1,54.12,118Z"/></svg>