<svg id="Layer_1" data-name="Layer 1" xmlns="http://www.w3.org/2000/svg" viewBox="0 0 370 390"><defs><style>.cls-1{fill:#eabb26;stroke:#c69406;}.cls-1,.cls-2{stroke-miterlimit:10;}.cls-2,.cls-3{fill:#ff50c5;}.cls-2{stroke:#ed32b8;}.cls-4{fill:#e51cac;}.cls-5{fill:#bdebf9;}.cls-6{fill:#f266de;}.cls-7{fill:#b2088a;}</style></defs><path class="cls-1" d="M150.08,212.78a57.57,57.57,0,0,0,18.45,32.42s-3.86,5.1-3,14.9c1.16,13.67,17.68,20,22,40.38,1.78,8.18,2.94,24.86-4.4,41.15-14.74,33.12-63.46,26.09-75.27,27.48a53.28,53.28,0,0,0-11.58,2.4c-5.17,1.93-7.33,4.78-2.55,8.95s19.15,2.7,19.15,2.7a32.13,32.13,0,0,1-10.42,3.71c-6,1-32,3.24-28.57-15.06,5.33-27.87,81.29-14.28,80.68-51.88v-1C153.17,292.84,124.45,286,121,265c-2.31-14.05,1.7-19.14,1.7-19.14"/><path class="cls-2" d="M332.28,159.43c-16.45,0-28.72,13-42.7,21.77-17.75,11-31.57,19.92-49.41,9.73-.07-.08-.15-.08-.23-.16,2.94-1,6.64-2.78,14.05-10.65,6.18-6.56,18.07-34.35,18.3-34.35v.15c1.85,13.2.16,15.05.16,15.05s-4.41-1.69-9.73,9.73-1.7,17.76,4.71,16.06c2.16-.54,5.17-3.09,8.26-6.72A81.64,81.64,0,0,0,287.5,161h0a43.23,43.23,0,0,0,2.86-8.8c3.08-16,6.48-35.43-11.43-38.37s-26.71,22.7-34.28,35.83c-9.11,15.82-16.44,13.74-16.44,13.74s-6.8.69-11.12-3.94c-17.6-18.84,21.85-66.24,18.14-107.16C233.15,29,205.59,3.33,167.6,2.4c0,0-48.63-.69-66.08,27.48s-7,53.58,1.7,80.06,12.12,51.5,5,58.91c-14.67,15.59-69.18,20.46-70.57-24.78-.69-21.47,34.82-36.52,26.17-68C60.6,64.32,53.65,54.13,32,55,12.27,55.75,5.63,72,3.94,87.09c-1.24,10.58,4,18.76,7.56,6C16.36,75.36,23.16,72.27,28,71.65h.3c6.64-.39,28.11,11.12-1.31,36.21C5.4,126.16,5.09,157.73,14.82,180.51S62.53,212,62.53,212c16.45,4,46.86-.61,46.86-.61h0A57.56,57.56,0,0,1,86.7,228.06c-28.88,11.35-62,29.34-69.18,65A46.58,46.58,0,0,0,35,338.62c15.44,11.73,33.27,9.72,45.7,1,.7-.46,1.39-1,2-1.47,10.81-8.57,13.59-20.22,12.12-29.64-3.7-23.09-26.86-29.8-23.54-28.49s18.45,30.8-3.4,41.84c-1.55.78-13.36,7.34-24.94-5a19.37,19.37,0,0,1-3.78-5.79h0c-7.95-18.22,8.41-47.64,59.29-57.13,39.53-7.34,48.72-29.88,49.1-31.12-.15.78,2.63.78,10.42,11.12,23.16,30.88,63.16,46.32,114.88,56.2,15.83,3,29.88,10,40,34.82.39,1,.77,1.93,1.08,2.86h0c0,.08.08.15.08.31,7.95,25.09-15.52,37.67-37.75,25.63-19.15-10.42-4.4-47.25-8.73-42.23h0c-.3.46-17.29,22.62-13.12,39.84,3.4,13.74,23.86,27.48,40,26.78s33-9,38-23.08c12.43-34.59-11.81-67.17-26.55-78.05-12.74-9.34-25.87-12.35-56.44-21.77-39.53-12.12-54.19-41.77-57.67-50.26-.54-1.39-.85-2.24-.85-2.32.77.47,71.88,39,105.46,6,19.07-18.76,49.95-41.62,53.12-15.45,1.85,15.45-9,26.87-19.84,27.8a15.33,15.33,0,0,1-6-.62,9.56,9.56,0,0,1-2-.93h0l-.93-.69a.08.08,0,0,1-.08-.08c-4.09-3.78-.54-10.58.62-11.66,8-7.72,17.91-8.1,4.71-7.33-27.87,1.47-27.1,42,11.12,34.12,22.85-4.71,29.41-19.45,29.26-41.15C366,170.78,345.25,159.43,332.28,159.43Z"/><path class="cls-1" d="M287.5,161.05h0a76.65,76.65,0,0,1-11.81,19.07c-3.09,3.63-6.1,6.18-8.26,6.72-6.41,1.7-10.12-4.71-4.71-16.06s9.73-9.73,9.73-9.73,1.69-1.93-.16-15.05a.58.58,0,0,0,.16-.31c6.71-10.73,10.73-13.28,10.73-13.28s6.48-3.55,7,6.72C290.9,149.32,287.5,161.05,287.5,161.05Z"/><path class="cls-3" d="M275.69,180.12c-3.09,3.63-6.1,6.18-8.26,6.72-6.41,1.7-10.12-4.71-4.71-16.06s9.73-9.73,9.73-9.73C281.09,162.83,279.08,171.86,275.69,180.12Z"/><path class="cls-1" d="M313.29,358.3c-8,11.43-17,17.61-38.07,10-16.05-5.79-24.16-27.64-7.72-56.82h0c4.41-5-10.42,31.81,8.73,42.23,22.23,12,45.7-.54,37.75-25.63h0C314.91,330.59,320.7,347.73,313.29,358.3Z"/><path class="cls-2" d="M138.11,357.45c-22.62,13.59-33.81,9-41.76,14.13-5.18,1.93-7.34,4.79-2.55,9s19.15,2.7,19.15,2.7A32.25,32.25,0,0,1,102.52,387c-6,1-32,3.24-28.56-15.06C79.28,344,155.25,357.61,154.63,320,154.63,319.93,160.73,343.87,138.11,357.45Z"/><path class="cls-1" d="M82.68,338.15C56,346.8,41.3,321.71,39.14,311.06a21.05,21.05,0,0,0,3.78,5.79c11.58,12.35,23.39,5.79,24.94,5,21.85-11,6.72-40.53,3.4-41.84s19.84,5.33,23.54,28.49C96.27,317.93,93.41,329.58,82.68,338.15Z"/><path class="cls-1" d="M121,187.15c-.77,2.08-1.39,4.24-2.23,6.33a132.17,132.17,0,0,1-5.79,13,16.24,16.24,0,0,1-3.63,5.18s-30.42,4.63-46.87.61c0,0-38-8.72-47.71-31.49s-9.42-54.36,12.12-72.65c29.42-25,8-36.6,1.32-36.21,4.09-.39,8.41-.62,12.19,1.54a12.73,12.73,0,0,1,5.87,9.11c1.47,8.34-2.85,15.91-7.8,22.24-2.77,3.55-25.55,18.68-22.31,49,2.4,22.24,6.57,31.35,26.17,40.61,16.68,7.87,46.33,6.25,55.44,3.4,8-2.47,15.75-6.41,21.84-12.28.39-.38,1.16-1.54,1.7-.85C121.75,185.29,121.21,186.61,121,187.15Z"/><path class="cls-1" d="M330.42,223.43c-5.17-.54-7.1-2.62-8.87-3.94a6.73,6.73,0,0,0,2,.93,14,14,0,0,0,6,.62c10.88-.85,21.69-12.35,19.84-27.8-3.17-26.17-34-3.31-53.12,15.45-33.58,33-104.61-5.56-105.46-6a51.66,51.66,0,0,1-1.16-15.59c.7-8.57,40.15,26.25,67.56,23.24,30.72-3.32,64-33.82,73.72-34.82,12.2-1.24,26.25-.77,24,21.46C352.74,219.49,335.29,224,330.42,223.43Z"/><path class="cls-4" d="M240.25,190.93c.31.23-23.78-19.61-26.4-36.83.93,1.47.62,2.94,3.55,5.48-.85-2.47,7.18,19.23,23.55,30.81C240.79,190.31,240.41,190.7,240.25,190.93Z"/><path class="cls-5" d="M264.65,121.91s9.34-9.34,19-3.32c13,8-.15,4.32-4.48,2.08C275.92,118.82,266.11,121.29,264.65,121.91Z"/><path class="cls-5" d="M307.73,172s11.81-5.79,23.16-6.4c10.88-.62,21.38,5.25,20.46,4.24-1.7-1.85-12.05-7.49-21.31-7.18C319.85,163.83,307.73,172,307.73,172Z"/><path class="cls-5" d="M225.43,249.37s-21.23-13.2-29.26-25.55c-7.95-12.12-12.74-31-12.82-29-.85,21.54,1.62,22.62,9.35,33.35C208,244.66,225.43,249.37,225.43,249.37Z"/><path class="cls-5" d="M286.57,273.07s18,12.51,25.48,20.31c7.33,7.56,10.89,12,10.27,10.73-6.87-14.75-10.73-15.44-17.6-22C291.9,272,286.57,273.07,286.57,273.07Z"/><path class="cls-5" d="M93.34,358.54s-10.12,1.77-13.9,6.94a13.41,13.41,0,0,0-2.24,10.73S76.51,372.66,83,366,93.34,358.54,93.34,358.54Z"/><path class="cls-5" d="M109.47,218.34s-5.79,7.33-46.4,26.32c-41.46,19.46-37,43.31-37,43.31s2.47-13.43,19.69-28.33S87,238.56,98,230.84,109.47,218.34,109.47,218.34Z"/><path class="cls-5" d="M38.52,163.68s14.59,29.41,56.67,17.91c40.38-11-6.8,15.67-35.75,5.17C42.38,180.58,38.52,163.68,38.52,163.68Z"/><path class="cls-5" d="M33.35,58.84s20.23.92,26,15.13c3.93,9.65-.16,16-.7,16.6C58.67,90.49,62.76,70.57,33.35,58.84Z"/><path class="cls-4" d="M125.61,16.84s8.41,4.4-3.86,9.57S114.33,15.83,125.61,16.84Z"/><path class="cls-4" d="M139.89,22.32s4.79,3.55-5.17,6.1S132.25,20.77,139.89,22.32Z"/><path class="cls-4" d="M250.06,168.15s5.71,1.55-1.93,7.18C240.33,181,242.65,169.39,250.06,168.15Z"/><path class="cls-4" d="M172.47,200.81s5.48-4.79,5.94,9.11S168.61,210.15,172.47,200.81Z"/><path class="cls-4" d="M329.81,340.7s5.71-1.7,2.08,7.1S324.17,345.64,329.81,340.7Z"/><path class="cls-4" d="M131,347.8s3.55,2.63-5.71,4.71S124.6,346.8,131,347.8Z"/><path class="cls-4" d="M109.08,355s3.32,3-4.4,4.17S103.45,353.29,109.08,355Z"/><path class="cls-4" d="M122.21,355.52s1.62,1-2.86,2.24S119.2,355.29,122.21,355.52Z"/><path class="cls-4" d="M109.47,30.27s4.32.39-1.31,6.18S104,32.43,109.47,30.27Z"/><path class="cls-4" d="M207.29,130.87s-9.81,3.16-4.56-10S216.63,123.14,207.29,130.87Z"/><path class="cls-4" d="M216.47,103.46s-4.09,1.54-1.93-4.94S220.33,99.68,216.47,103.46Z"/><path class="cls-4" d="M11.19,80.84S7.1,82.38,9.26,75.9,15.05,77.05,11.19,80.84Z"/><path class="cls-4" d="M7.33,86.09s-2.08,1-1-3.24S9.26,83.62,7.33,86.09Z"/><path class="cls-4" d="M202.5,176.41s-1.93,2.86-3.55-2.23S203.27,172.17,202.5,176.41Z"/><path class="cls-4" d="M322.78,355.91s-3.24,1.24-1.54-3.86S325.79,352.9,322.78,355.91Z"/><path class="cls-4" d="M331.74,333.29s-2.32,2.55-3.25-4S333.05,328.74,331.74,333.29Z"/><path class="cls-4" d="M132.55,211.31s-3.16,1.24-1.54-3.86S135.57,208.22,132.55,211.31Z"/><path class="cls-4" d="M129.39,193.94s-3.17,1.23-1.54-3.86S132.4,190.93,129.39,193.94Z"/><path class="cls-4" d="M207.75,110.17s-2.93,1-1.39-3.31S210.53,107.63,207.75,110.17Z"/><path class="cls-4" d="M224.12,83.85s-3.25,1.23-1.55-3.94S227.2,80.84,224.12,83.85Z"/><path class="cls-4" d="M220.64,179.19s-1.08,5-5-.07S219.79,173.4,220.64,179.19Z"/><path class="cls-4" d="M241.8,265.35s.46,5.33-6.72.54S238.4,259.48,241.8,265.35Z"/><path class="cls-4" d="M262.64,266.2s1.54,5.56-7.1,1.85S257.93,260.64,262.64,266.2Z"/><path class="cls-4" d="M175,224.13s-2.94,4.16-4.56-2.09S176.56,218.49,175,224.13Z"/><path class="cls-4" d="M226.66,190.93s-.92,3.32-4.09-1.08S226.05,186.68,226.66,190.93Z"/><path class="cls-4" d="M185.75,230.53s-1.7,3-3.71-2S186.21,226.29,185.75,230.53Z"/><path class="cls-4" d="M28.25,166S26,168.62,25,163.37,29.41,161.9,28.25,166Z"/><path class="cls-4" d="M363.7,200.35s-2.78,2-2.55-3.32S365.86,196.64,363.7,200.35Z"/><path class="cls-4" d="M211.69,169.7s-4.4,6-6.95-4.17S213.77,161.13,211.69,169.7Z"/><path class="cls-4" d="M123.37,214.78s-8.88,2.78-4.09-8.87S131.78,207.84,123.37,214.78Z"/><path class="cls-4" d="M26.94,140.44s-7,2.31-3.24-7.41S33.66,134.65,26.94,140.44Z"/><path class="cls-4" d="M118.27,232.23s-7.33.85-1.7-7.95S126,228,118.27,232.23Z"/><path class="cls-4" d="M27.87,316.85s-4.48,5.94-6.95-4.17S30,308.28,27.87,316.85Z"/><path class="cls-4" d="M36.05,327.73s-2,3.09-4-2.85S36.59,322.94,36.05,327.73Z"/><path class="cls-4" d="M197,163.68s-3.17,4.55-5.17-2.78S198.49,157.35,197,163.68Z"/><path class="cls-4" d="M22.77,153.1s-4.48,3-3.78-4S26.32,148,22.77,153.1Z"/><path class="cls-4" d="M361.69,190.47s-4.48,3-3.7-4S365.24,185.29,361.69,190.47Z"/><path class="cls-4" d="M204,152.4s-7.64,4.25-5.25-8.56C201,132,213.69,145,204,152.4Z"/><path class="cls-4" d="M121.51,30.58s6.64,2.32-2.47,7.87C109.93,44.17,113,31.27,121.51,30.58Z"/><path class="cls-4" d="M159.11,19.77s3.4,3.32-5.79,4.25S152.78,17.76,159.11,19.77Z"/><path class="cls-4" d="M132.48,33.28s2.24,1.31-2.24,2.93S129,33,132.48,33.28Z"/><path class="cls-4" d="M104,46.25s2.55-.46.23,3.63S101.21,48.26,104,46.25Z"/><path class="cls-4" d="M167,15.91s1.54,2-3.17,1.85S163.9,14.37,167,15.91Z"/><path class="cls-4" d="M164.05,8.65s1.24,1.32-2.7,1.39S161.58,7.8,164.05,8.65Z"/><path class="cls-4" d="M146.91,26.41s1.39,1.08-2.39,1.85S144.29,26,146.91,26.41Z"/><path class="cls-4" d="M256.62,155s1.77.08-1,2.94S254.15,156,256.62,155Z"/><path class="cls-4" d="M258,161.44s3.24.38-.39,3.86S254.15,162.52,258,161.44Z"/><path class="cls-4" d="M268.43,272.84s1,3.09-3.63,1.31S265.73,269.83,268.43,272.84Z"/><path class="cls-4" d="M136.72,15.91s2.55,1.47-3.47,3.55S132.4,15.76,136.72,15.91Z"/><path class="cls-4" d="M154.87,9.12s8,8.18-6.49,9.18S143.05,3.56,154.87,9.12Z"/><path class="cls-6" d="M142.2,245.28c1.93,1.16,1.63,12.66-9.11,9.26C123.21,251.46,133.71,234.39,142.2,245.28Z"/><path class="cls-7" d="M136.72,244c3.94-.07,6.41,8.81-.07,8.88C128.69,252.92,130.86,244,136.72,244Z"/><path class="cls-6" d="M161.58,241.19c1.93,1.16,1.62,12.66-9,9.26C142.9,247.36,153.17,230.3,161.58,241.19Z"/><path class="cls-7" d="M156.18,239.88c3.86-.08,6.33,8.8-.08,8.87C148.3,248.83,150.39,239.88,156.18,239.88Z"/><path class="cls-6" d="M139.73,264.81c.85,1.85-5.55,10.66-12.12,2.47C121.67,259.72,139.12,251.92,139.73,264.81Z"/><path class="cls-7" d="M136.26,261c3.09,2,.23,10.19-4.86,6.8C125.22,263.65,131.71,257.86,136.26,261Z"/><path class="cls-6" d="M144.13,284.73c-1.38,1.54-12-.85-6.94-10.19C141.82,266,155.79,278.94,144.13,284.73Z"/><path class="cls-7" d="M146.3,279.94c-.62,3.63-9.35,4.33-8.19-1.77C139.43,270.83,147.38,274.54,146.3,279.94Z"/><path class="cls-6" d="M159.5,289.9c.85,1.86-5.48,10.66-11.89,2.47C141.74,284.73,158.8,277,159.5,289.9Z"/><path class="cls-7" d="M156,286c3,2,.24,10.19-4.78,6.8C145.14,288.74,151.55,283,156,286Z"/><path class="cls-6" d="M167.37,301.56c.85,1.85-5.48,10.65-11.89,2.47C149.62,296.46,166.68,288.74,167.37,301.56Z"/><path class="cls-7" d="M163.9,297.78c3,2,.23,10.19-4.79,6.79C153,300.48,159.42,294.69,163.9,297.78Z"/><path class="cls-6" d="M167.84,317.08c-.39,1.62-9.5,4.17-9.81-4.25C157.72,305.11,174.09,308.51,167.84,317.08Z"/><path class="cls-7" d="M167.3,312.91c1.15,2.78-5.18,6.64-7,2C158.11,309.36,165.75,308.74,167.3,312.91Z"/><path class="cls-6" d="M160.5,257.94c1.55,1.39-.77,12-9.88,6.95C142.2,260.26,154.79,246.44,160.5,257.94Z"/><path class="cls-7" d="M155.79,255.78c3.55.62,4.25,9.26-1.7,8.11C146.91,262.57,150.47,254.7,155.79,255.78Z"/><path class="cls-6" d="M165.29,271.22c1.39,1.31-.7,11.43-9.19,6.64C148.38,273.46,160,260.18,165.29,271.22Z"/><path class="cls-7" d="M161,269.21c3.25.62,3.94,8.88-1.54,7.8C152.78,275.7,156,268.13,161,269.21Z"/><path class="cls-6" d="M175.17,282.57c1.54,1.39-.77,12-9.88,6.95C156.87,284.88,169.38,271,175.17,282.57Z"/><path class="cls-7" d="M170.46,280.41c3.55.61,4.25,9.26-1.7,8.1C161.58,287.2,165.13,279.33,170.46,280.41Z"/><path class="cls-6" d="M183.12,295.31c1.55,1.39-.77,12-9.88,6.94C164.83,297.62,177.41,283.73,183.12,295.31Z"/><path class="cls-7" d="M178.49,293.14c3.55.62,4.25,9.27-1.7,8.11C169.61,299.94,173.16,292.06,178.49,293.14Z"/><path class="cls-6" d="M186.06,310c1.39,1.24-.7,10.58-8.73,6.1C169.92,312,181,299.78,186.06,310Z"/><path class="cls-7" d="M181.89,308c3.16.55,3.78,8.11-1.47,7.18C174.09,314.07,177.18,307.12,181.89,308Z"/><path class="cls-6" d="M185.28,323.87c1.39,1.31-.69,11-9.18,6.41C168.38,326,180,313.22,185.28,323.87Z"/><path class="cls-7" d="M181,321.94c3.24.54,3.94,8.49-1.54,7.49C172.78,328.19,176,320.86,181,321.94Z"/><path class="cls-6" d="M168.92,324.26c1.31,1.16-.7,10.27-8.5,5.94C153.17,326.34,164,314.38,168.92,324.26Z"/><path class="cls-7" d="M164.83,322.48c3.08.54,3.62,7.95-1.47,6.95C157.26,328.27,160.27,321.56,164.83,322.48Z"/><path class="cls-6" d="M265.11,349.43c-.31,1.15-5.17,1-4.48-5.33C261.17,338.31,269.05,344.41,265.11,349.43Z"/><path class="cls-7" d="M265.27,346.26c.3,2.32-3.25,3.86-3.71,0C260.94,341.55,264.88,342.79,265.27,346.26Z"/><path class="cls-6" d="M304.64,364.63c-1.16.54-4.56-3.39,1-7.64C310.66,353.13,311.51,364.09,304.64,364.63Z"/><path class="cls-7" d="M307.26,362.32c-1.62,1.93-5.32.23-2.62-3C308,355.37,309.81,359.46,307.26,362.32Z"/><path class="cls-6" d="M273.6,358.77c.24,1.46-6.33,4.71-9.11-2.78C262,349.19,276,350.43,273.6,358.77Z"/><path class="cls-7" d="M272,355.14c1.7,2.31-2.08,6.48-4.94,2.55C263.57,352.9,269.51,351.51,272,355.14Z"/><path class="cls-6" d="M275.38,361.08c-.54-1.46,6.1-5.79,10.5,1.24C290,368.8,274.3,369.81,275.38,361.08Z"/><path class="cls-7" d="M277.85,364.48c-2.32-2.08,1.08-6.87,5-3.4C287.58,365.25,281.32,367.65,277.85,364.48Z"/><path class="cls-6" d="M300.08,363.24c1.16.93-1.85,8.34-8.87,5.41C284.8,365.79,296.53,355.45,300.08,363.24Z"/><path class="cls-7" d="M296.38,362c2.85.23,2.55,6.18-2.24,5.79C288.43,367.18,292.13,361.47,296.38,362Z"/><path class="cls-6" d="M180.5,337.77c.92,1.54-2.94,10.65-9.19,4.63C165.52,336.84,178.1,326.42,180.5,337.77Z"/><path class="cls-7" d="M177.18,335.07c2.7,1.15,1.62,9-2.94,7C168.84,339.7,173.16,333.21,177.18,335.07Z"/><path class="cls-6" d="M165.67,337c.54,1.31-3.7,8.1-7.72,2.54C154.25,334.45,165.44,327.65,165.67,337Z"/><path class="cls-7" d="M163.44,334.45c1.93,1.23,0,7.41-3.25,5.25C156.33,337.15,160.66,332.44,163.44,334.45Z"/><path class="cls-6" d="M169.3,353.21c-.77,1.39-8.26,3.09-5.86-4.4C165.6,342,176.56,346,169.3,353.21Z"/><path class="cls-7" d="M170.23,349.5c0,2.47-5.79,5.56-5.79,1.32C164.52,345.8,170.38,345.72,170.23,349.5Z"/><path class="cls-6" d="M107.46,209.3c-1.08,1.47-11.65,1.24-8.26-7.18C102.37,194.48,117.73,202.74,107.46,209.3Z"/><path class="cls-7" d="M108.78,205.06c0,3-8.26,4.94-8.11-.16C100.9,198.73,109,200.5,108.78,205.06Z"/><path class="cls-6" d="M92.41,211.77c-.93,1.32-10.27,1.08-7.26-6.33C87.85,198.73,101.44,206,92.41,211.77Z"/><path class="cls-7" d="M93.57,208.07c0,2.7-7.26,4.4-7.11-.16C86.54,202.51,93.72,204.05,93.57,208.07Z"/><path class="cls-6" d="M78.13,211.77c-1,1.24-10.73,1-7.65-6C73.42,199.34,87.55,206.29,78.13,211.77Z"/><path class="cls-7" d="M79.36,208.22c0,2.55-7.56,4.17-7.49-.15C72,202.9,79.59,204.36,79.36,208.22Z"/><path class="cls-6" d="M61.84,210.69c-1.47.54-9.65-3.55-3.71-7.49C63.61,199.58,72.49,210.38,61.84,210.69Z"/><path class="cls-7" d="M64.54,208.53c-1.24,1.85-8.42,0-6.33-3.09C60.76,201.74,66.55,205.75,64.54,208.53Z"/><path class="cls-6" d="M45.55,204.67c-1.39-.69-2.86-7.1,4.32-4.79C56.51,202.05,52.42,211.16,45.55,204.67Z"/><path class="cls-7" d="M49.18,205.6c-2.4-.16-5.33-5.18-1.24-4.94C52.88,201,52.8,205.91,49.18,205.6Z"/><path class="cls-6" d="M30.65,190c1,1.16,0,7.65-5.79,2.86C19.45,188.38,26.63,181.51,30.65,190Z"/><path class="cls-7" d="M27.64,187.84c2.24,1,3,6.79-.7,5C22.46,190.7,24.32,186.22,27.64,187.84Z"/><path class="cls-6" d="M40.53,196.33c1.31.77,3,7-3.86,4.25C30.34,198,33.74,189.62,40.53,196.33Z"/><path class="cls-7" d="M37.05,195.17c2.32.31,5.25,5.33,1.39,4.79C33.81,199.27,33.58,194.56,37.05,195.17Z"/><path class="cls-6" d="M15.82,181.05c-.77-1.16.31-7,5.1-1.93C25.24,183.67,18.84,189.23,15.82,181.05Z"/><path class="cls-7" d="M18.29,183.36c-1.85-1.16-2.23-6.48.85-4.47C22.85,181.28,21,185.22,18.29,183.36Z"/><path class="cls-6" d="M13.43,166.69c.46-.93,5.71.92,4.32,6.48C16.44,178.34,8.57,169.85,13.43,166.69Z"/><path class="cls-7" d="M12.89,169.62c-.08-2.24,3.94-2.32,4,1.39C17.06,175.49,13,172.94,12.89,169.62Z"/><path class="cls-6" d="M193.08,200.12c.39,1.77,10,5.4,10.11-3.32C203.27,188.69,186.29,190.39,193.08,200.12Z"/><path class="cls-7" d="M193.47,195.87c-1.08,2.78,5.56,7.57,7.33,2.93C203,193.09,195,191.62,193.47,195.87Z"/><path class="cls-6" d="M207.13,207.3c.39,1.54,8.88,4.78,9-2.94C216.16,197.26,201.19,198.73,207.13,207.3Z"/><path class="cls-7" d="M207.52,203.51c-1,2.4,4.86,6.64,6.48,2.55C215.93,201.12,208.83,199.81,207.52,203.51Z"/><path class="cls-6" d="M220.72,212.7c.46,1.54,9.26,4.94,9.11-2.55C229.68,203.2,214.31,204.21,220.72,212.7Z"/><path class="cls-7" d="M221,209c-.93,2.32,5.25,6.57,6.8,2.71C229.6,207,222.26,205.44,221,209Z"/><path class="cls-6" d="M237.24,218.1c1.08,1,10,.39,6.18-5.4C239.79,207.45,227.75,213.86,237.24,218.1Z"/><path class="cls-7" d="M235.62,215.17c.39,2.16,7.64,3.17,6.87-.39C241.64,210.46,234.85,211.93,235.62,215.17Z"/><path class="cls-6" d="M254.92,218.49c1.54-.15,5.25-5.33-2.16-5.94C246,212,246.27,221.66,254.92,218.49Z"/><path class="cls-7" d="M251.29,218c2.24.77,6.72-2.7,2.94-4C249.67,212.39,247.9,216.87,251.29,218Z"/><path class="cls-6" d="M280.4,214.4c1.46-.46,4.24-7-3.25-6.1C270.21,209.07,272.37,219.73,280.4,214.4Z"/><path class="cls-7" d="M276.69,214.55c2.39.39,6.25-4.4,2.16-5C274,208.76,273.06,214.09,276.69,214.55Z"/><path class="cls-6" d="M296.76,197.34c-1.23.61-2.7,6.25,3.94,4.32C306.8,199.81,303.17,191.78,296.76,197.34Z"/><path class="cls-7" d="M300.08,196.56c-2.23.08-4.94,4.48-1.15,4.33C303.4,200.73,303.48,196.33,300.08,196.56Z"/><path class="cls-6" d="M262.64,213.47c-1.47.39-4.25,6.56,3.09,5.95C272.52,218.8,270.59,208.61,262.64,213.47Z"/><path class="cls-7" d="M266.27,213.39c-2.32-.46-6.18,4-2.16,4.71C268.82,219,269.82,214,266.27,213.39Z"/><path class="cls-6" d="M285.18,205.13c-1.46.93-3.16,7.34,4.71,4C297.15,206,292.67,197.8,285.18,205.13Z"/><path class="cls-7" d="M289.12,203.67c-2.62.46-5.79,5.79-1.31,4.94C293.21,207.53,293.14,202.82,289.12,203.67Z"/><path class="cls-6" d="M311.74,192.86c1.08-.7,2.16-5.79-3.63-3.32C302.79,191.86,306.26,198.57,311.74,192.86Z"/><path class="cls-7" d="M308.81,193.94c1.93-.31,4.17-4.56.92-3.94C305.72,190.7,305.87,194.48,308.81,193.94Z"/><path class="cls-6" d="M320.08,184.06c-.08-.77-4.4-.93-5,3.24C314.44,191.08,322.55,187.61,320.08,184.06Z"/><path class="cls-7" d="M319.54,186.14c.69-1.46-2.09-2.7-3.24-.15C314.83,189,318.54,188.38,319.54,186.14Z"/><path class="cls-6" d="M329.34,179.5c.08-.77-4-1.85-5.55,2.09C322.32,185.14,331,183.44,329.34,179.5Z"/><path class="cls-7" d="M328.34,181.43c1-1.31-1.47-3.09-3.17-.92C323.17,183.21,327,183.36,328.34,181.43Z"/><path class="cls-6" d="M338.92,177.42c.23-.7-3.55-2.7-5.87.85C330.89,181.51,339.77,181.66,338.92,177.42Z"/><path class="cls-7" d="M337.6,179.12c1.24-1.08-.77-3.32-2.93-1.55C332.2,179.73,335.75,180.74,337.6,179.12Z"/><path class="cls-6" d="M10.65,158.81c-.15-1.08,2.39-4.94,4.17.16C16.36,163.75,10.19,165.68,10.65,158.81Z"/><path class="cls-7" d="M11.66,161.28c-.93-1.46.46-5.4,2-3C15.44,161.21,13,163.44,11.66,161.28Z"/><path class="cls-6" d="M14.9,142c0,1.16-3.4,4.4-4-1C10.19,136,16.67,135.27,14.9,142Z"/><path class="cls-7" d="M14.43,139.36c.62,1.54-1.54,5.25-2.54,2.55C10.65,138.66,13.51,136.89,14.43,139.36Z"/><path class="cls-6" d="M10.27,149.16c-.16-1.16,2.7-4.86,4.16.39C15.75,154.41,9.42,156,10.27,149.16Z"/><path class="cls-7" d="M11.11,151.63c-.84-1.46.78-5.4,2.17-2.93C14.9,151.79,12.35,154,11.11,151.63Z"/><path class="cls-6" d="M16.13,128.39c.7-.23,2.71,3.09-.69,5.41C12.27,135.88,12,127.85,16.13,128.39Z"/><path class="cls-7" d="M14.51,129.71c1-1.24,3.24.54,1.55,2.54C14.05,134.65,13,131.41,14.51,129.71Z"/><path class="cls-6" d="M20.38,119.67c.69-.23,2.7,3.09-.7,5.4C16.52,127.24,16.21,119.13,20.38,119.67Z"/><path class="cls-7" d="M18.76,121c1-1.23,3.24.54,1.54,2.55C18.29,125.92,17.21,122.76,18.76,121Z"/><path class="cls-6" d="M25.94,112.57c.62-.08,1.39,3.47-2,4.78C20.84,118.51,22.7,111.1,25.94,112.57Z"/><path class="cls-7" d="M24.24,113.42c1.16-.85,2.47,1.31.62,2.7C22.54,117.82,22.54,114.65,24.24,113.42Z"/><path class="cls-6" d="M31.88,107.4c.62,0,1.16,3.16-2.16,3.93C26.63,112,28.79,105.77,31.88,107.4Z"/><path class="cls-7" d="M30.26,107.94c1.16-.62,2.39,1.39.46,2.47C28.33,111.56,28.49,108.79,30.26,107.94Z"/><path class="cls-6" d="M162.9,355.68c.77.54-1.86,6.18-6.64,4.55C151.78,358.77,160.81,350.43,162.9,355.68Z"/><path class="cls-7" d="M160.35,355.14c2-.08,1.46,4.24-1.93,4.32C154.33,359.46,157.34,355.06,160.35,355.14Z"/><path class="cls-6" d="M153.32,352.51c.7.78-2.62,6.64-7.41,4C141.59,354.21,151.86,346.26,153.32,352.51Z"/><path class="cls-7" d="M150.77,351.43c2.09.23.93,5-2.47,4.56C144.06,355.37,147.69,351,150.77,351.43Z"/><path class="cls-6" d="M141.59,361.86c-.93.61-5.79-.47-1.93-4.41C143.21,354,148.07,359.54,141.59,361.86Z"/><path class="cls-7" d="M143.36,359.92c-.85,1.55-5.17,1.7-3.7-.84C141.36,356,144.68,357.61,143.36,359.92Z"/><path class="cls-6" d="M149.38,364.25c-1,.54-6.4-.39-2.16-3.55C151.24,357.76,156.72,362.32,149.38,364.25Z"/><path class="cls-7" d="M151.39,362.63c-.92,1.23-5.79,1.39-4.17-.7C149.15,359.46,152.86,360.77,151.39,362.63Z"/><path class="cls-6" d="M139.43,366.64c-.85.31-4.79-1-1.09-3.09C141.74,361.62,145.22,365.87,139.43,366.64Z"/><path class="cls-7" d="M141.12,365.48c-.85.93-4.55.54-3.08-1C139.89,362.7,142.51,364.17,141.12,365.48Z"/><path class="cls-6" d="M133.17,364.71c-.92.31-5.09-1.54-.92-3.86C136.11,358.77,139.5,364.17,133.17,364.71Z"/><path class="cls-7" d="M135.18,363.48c-1,1-4.94.31-3.24-1.39C134.1,360,136.8,361.93,135.18,363.48Z"/><path class="cls-6" d="M91.71,303.72c.39,1-2,5.87-4.71,1.47C84.53,301.25,91.25,296.77,91.71,303.72Z"/><path class="cls-7" d="M90.25,301.71c1.23,1,.23,5.49-1.86,3.71C85.92,303.34,88.39,300.09,90.25,301.71Z"/><path class="cls-6" d="M85.46,303.57c.08,1-3.7,4.47-4.94-.23C79.36,299,87.08,297.31,85.46,303.57Z"/><path class="cls-7" d="M84.69,301.33c.85,1.31-1.39,4.94-2.86,2.7C80.13,301.33,83.45,299.32,84.69,301.33Z"/><path class="cls-6" d="M88.32,295.31c.46.54.15,4.32-2.7,2.16C83.07,295.46,86.31,290.91,88.32,295.31Z"/><path class="cls-7" d="M86.85,294.38c1.08.39,1.54,3.55-.23,2.93C84.46,296.46,85.31,293.76,86.85,294.38Z"/><path class="cls-6" d="M83.07,295.54c.31.62-1.24,3.86-3.24,1.08C78,294.07,82.53,291,83.07,295.54Z"/><path class="cls-7" d="M82,294.23c.92.61.31,3.55-1.16,2.47C79,295.38,80.67,293.22,82,294.23Z"/><path class="cls-6" d="M156.87,350c-1,.92-7-.93-2.78-6.72C157.88,337.92,164.44,346.57,156.87,350Z"/><path class="cls-7" d="M158.73,347c-.85,2.32-6,2.48-4.64-1.38C155.87,340.93,160.12,343.56,158.73,347Z"/><path class="cls-6" d="M81.52,335.91c1.55-.38,5.1-7.64-2.31-7.1C72.34,329.28,73,341.4,81.52,335.91Z"/><path class="cls-7" d="M77.9,335.84c2.31.62,6.63-4.48,2.85-5.48C76,329.12,74.42,335.07,77.9,335.84Z"/><path class="cls-6" d="M71.49,329.58c1.23-.07,5.25-5.79-.7-6.94C65.39,321.56,63.84,332.67,71.49,329.58Z"/><path class="cls-7" d="M68.63,328.74c1.7,1.08,6-2.63,3.09-4.41C68.32,322.33,66,327.27,68.63,328.74Z"/><path class="cls-6" d="M59.21,333.14c1.24.3,6.8-3.86,1.47-6.8C55.82,323.72,51,333.83,59.21,333.14Z"/><path class="cls-7" d="M56.74,331.51c1.31,1.55,6.49-.69,4.32-3.24C58.44,325.26,54.73,329.28,56.74,331.51Z"/><path class="cls-6" d="M67.32,338.93c1.23.3,6.79-3.86,1.47-6.8C63.92,329.43,59.06,339.54,67.32,338.93Z"/><path class="cls-7" d="M64.85,337.3c1.31,1.55,6.48-.69,4.32-3.24C66.47,331.05,62.76,335.07,64.85,337.3Z"/><path class="cls-6" d="M90.17,324.49c.85-1.08-.39-7.57-5.64-3C79.83,325.57,86.93,332.67,90.17,324.49Z"/><path class="cls-7" d="M87.55,326.57c2-.92,2.39-6.48-.93-4.94C82.53,323.49,84.53,328,87.55,326.57Z"/><path class="cls-6" d="M90.63,317.23c.7.39,4.33-3.63,1.32-6.79C89.24,307.58,85.69,317.54,90.63,317.23Z"/><path class="cls-7" d="M89.32,315.53c.7,1.62,3.94-.38,2.78-3C90.71,309.28,88.24,313.14,89.32,315.53Z"/><path class="cls-6" d="M83.3,315.92c.85.31,4.48-4.4.69-7.18C80.52,306.19,77.66,317,83.3,315.92Z"/><path class="cls-7" d="M81.52,314.38c.93,1.54,4.4-1,2.78-3.56C82.37,307.74,80,312.14,81.52,314.38Z"/><path class="cls-6" d="M81.68,318.85c.38-1.15-3.24-5.09-6.41.16C72.41,324,81.68,326,81.68,318.85Z"/><path class="cls-7" d="M80,321.4c1.54-1.47-.15-5.56-2.7-3.09C74.11,321.32,77.66,323.64,80,321.4Z"/><path class="cls-6" d="M285.11,162.13c.85-.85.54-6.87-4.1-3.63C276.77,161.51,281.63,169,285.11,162.13Z"/><path class="cls-7" d="M282.79,163.52c1.7-.46,2.63-5.48-.15-4.63C279.16,160,280.24,164.37,282.79,163.52Z"/><path class="cls-6" d="M278.47,158.66c.38-.7-1.32-4.17-3.94-1.31C272.14,160,277.54,163.44,278.47,158.66Z"/><path class="cls-7" d="M277.08,160c1.16-.62.54-3.78-1.31-2.7C273.53,158.58,275.38,161,277.08,160Z"/><path class="cls-6" d="M288.5,141.36c.31,1.24-3.16,6.1-5.94.55C280.09,136.81,288.74,133.49,288.5,141.36Z"/><path class="cls-7" d="M287,138.74c1.39,1.47-.31,6.25-2.63,3.78C281.56,139.51,285,136.5,287,138.74Z"/><path class="cls-6" d="M286.65,147.62c.93-.08,2.93,5.33-1.77,7.1C280.63,156.42,281.4,145.22,286.65,147.62Z"/><path class="cls-7" d="M284.33,148.78c1.47-1.24,4.1,2,1.63,4.09C282.94,155.42,282.1,150.55,284.33,148.78Z"/><path class="cls-6" d="M278,149.47c.7.08,1.86,4-1.77,4.79C273,155,274.38,147.23,278,149.47Z"/><path class="cls-7" d="M276.31,150c1.15-.69,2.85,1.85.92,3.09C274.84,154.49,274.53,151,276.31,150Z"/><path class="cls-6" d="M278.62,146.31c-.23.92-4.32,1.85-4-3C274.92,138.82,281.79,141.67,278.62,146.31Z"/><path class="cls-7" d="M278.62,143.91c.39,1.62-2.55,3.55-3.09.77C274.84,141.29,278.16,141.36,278.62,143.91Z"/><path d="M115.57,88.25a.94.94,0,0,1-.46-.08.87.87,0,0,1-.31-1.08c.15-.23,3.78-6.1,13.35-4.79a.8.8,0,0,1,.7.93.81.81,0,0,1-.93.7c-8.49-1.16-11.73,3.93-11.73,4A1,1,0,0,1,115.57,88.25Z"/><path d="M207.29,88.25a.94.94,0,0,0,.46-.08.88.88,0,0,0,.31-1.08c-.16-.23-3.78-6.1-13.36-4.79a.82.82,0,0,0,.23,1.63c8.5-1.16,11.74,3.93,11.74,4A.71.71,0,0,0,207.29,88.25Z"/><path d="M162.05,129.09c-7,0-14.9-4-15.83-13a.89.89,0,0,1,1.77-.23c.78,7.88,7.8,11.43,14.06,11.43h.23c6.25-.08,12.81-3.63,13.35-11.43a.89.89,0,0,1,1.78.08c-.62,8.88-8.26,13-15.13,13.12C162.28,129.09,162.12,129.09,162.05,129.09Z"/></svg>