<svg xmlns="http://www.w3.org/2000/svg" viewBox="0 0 90 50"><defs><style>.cls-1{isolation:isolate;}.cls-2{fill:#0f3f54;}.cls-3{fill:#cbcbcb;}.cls-4{fill:#d6d6d6;mix-blend-mode:screen;}.cls-5{fill:#01568c;}.cls-6{fill:#1d4959;}</style></defs><g class="cls-1"><g id="Layer_1" data-name="Layer 1"><path class="cls-2" d="M2.79,33.39c9.38,7,26.48,13.39,48.09,10S71.66,23,87.28,16.9C66.66-3.81,6.07,5.82,2.79,33.39Z"/><path class="cls-3" d="M60.34,28.24c0,7.3-6.7,13.21-15,13.21s-15-5.91-15-13.21S37.1,15,45.37,15,60.34,20.94,60.34,28.24Z"/><path d="M53.84,28.05c0,4.06-3.89,7.35-8.68,7.35s-8.66-3.29-8.66-7.35,3.88-7.35,8.66-7.35S53.84,24,53.84,28.05Z"/><ellipse class="cls-4" cx="41.07" cy="24.7" rx="3.26" ry="3.13"/><path class="cls-4" d="M50.88,31.46a1.63,1.63,0,1,1-1.63-1.56A1.6,1.6,0,0,1,50.88,31.46Z"/><path class="cls-5" d="M2.79,33.39a28.87,28.87,0,0,1,12.9-7.29c8-2,15.17-6.57,21.19-10.56S52.57,9.61,60.34,8.9,83,15.83,87.28,17.16C85.1,11.54,56.47,2.68,35.83,8S1.59,26.15,2.79,33.39Z"/><path class="cls-6" d="M2.72,32.54c6.76-8.73,17.38-7.88,26.18-14.2s30-19.5,58.38-1.44C78.22,2.1,12.48-2.84,2.72,32.54Z"/></g></g></svg>