<svg id="Layer_1" data-name="Layer 1" xmlns="http://www.w3.org/2000/svg" viewBox="0 0 256 256"><defs><style>.cls-1{opacity:0.3;}.cls-2{fill:#86c440;}.cls-3{fill:#b7d880;}.cls-4{fill:#6da843;}.cls-5{fill:#3b5527;}.cls-6{fill:#f4ecd7;}.cls-7{fill:#d9c8a2;}.cls-8{fill:#726c5b;}.cls-21,.cls-9{opacity:0.58;}.cls-10,.cls-21{fill:#32783b;}.cls-11{fill:#fff;}.cls-12{fill:#dbdada;}.cls-13{fill:#4787c7;}.cls-14{fill:#3161ac;}.cls-15{fill:#253a7d;}.cls-16{fill:#5c8c3e;}.cls-17{fill:#2d5c2d;}.cls-18{fill:#f2ac2e;}.cls-19{fill:#ffd666;}.cls-20{fill:#806126;}.cls-22{fill:#572513;}.cls-23{fill:#3d1d10;}.cls-24{fill:#1c0e0a;}.cls-25{fill:#714c41;}</style></defs><ellipse class="cls-1" cx="139" cy="184.4" rx="96" ry="22.02"/><path d="M76.25,164.84A2.58,2.58,0,0,1,74,162.79a3,3,0,0,1,.09-1.92,1.86,1.86,0,0,1,1.21-1.15,1.54,1.54,0,0,1,.43-.05,2.57,2.57,0,0,1,2.24,2,3,3,0,0,1-.09,1.93,1.85,1.85,0,0,1-1.2,1.14A1.67,1.67,0,0,1,76.25,164.84ZM75.74,160a1.41,1.41,0,0,0-.35,0,1.55,1.55,0,0,0-1,1,2.71,2.71,0,0,0-.07,1.72,2.23,2.23,0,0,0,1.92,1.8,1.34,1.34,0,0,0,.35,0,1.5,1.5,0,0,0,1-1,2.61,2.61,0,0,0,.07-1.71A2.23,2.23,0,0,0,75.74,160Z"/><path class="cls-2" d="M69.39,132.79S55.3,141.48,58.67,167.9c-3.45,1.75-8.37,7.91-4.82,9.71,3.78,1.64,27.11,6.84,38.53-1.2-4.89-7.5-8.88-32.79-8.88-32.79C81.31,142.17,69.39,132.79,69.39,132.79Z"/><path class="cls-3" d="M64.78,169.26c-1.33-2.36-4.27-1.89-4.27-1.89-1.49-11.83.16-26.2,9.81-33.85l-.93-.73S55.3,141.48,58.67,167.9c-2.86,1.46-6.73,5.94-5.94,8.45a1.19,1.19,0,0,0,.08-.16C52.62,173.37,59.79,166.18,64.78,169.26Z"/><path class="cls-4" d="M82.19,155.33c1.64,8.8-5.83,20.31-16.45,24.88,8.35.86,20.23.71,26.64-3.8C88.44,170.38,82.19,155.33,82.19,155.33Z"/><path class="cls-5" d="M74.46,180.94h0c-9.51,0-18.52-2.24-20.67-3.18a2.23,2.23,0,0,1-1.33-2.13c0-2.53,3.29-6.37,6-7.82-1.71-13.63,1.3-22.45,4.13-27.45a22.63,22.63,0,0,1,6.68-7.71l.1-.06.09.07c.12.09,11.94,9.39,14.1,10.82l.06,0v.07c0,.25,4,25.35,8.85,32.73l.09.13-.13.09C88.32,179.46,82.26,180.94,74.46,180.94ZM69.38,133a22.73,22.73,0,0,0-6.48,7.55c-2.81,5-5.8,13.75-4.07,27.34V168l-.1.05c-2.62,1.33-6,5.17-6,7.58a1.94,1.94,0,0,0,1.14,1.84c2.12.92,11.07,3.15,20.53,3.15h0c7.66,0,13.6-1.43,17.69-4.26-4.68-7.39-8.56-31.16-8.8-32.65C81.14,142.23,70.49,133.86,69.38,133Z"/><path class="cls-6" d="M54.17,177.84c.59,2.76,9.8,3.53,10.17,2.27s-1.15-8.42-4.81-9.11C57,170.53,53.7,175.69,54.17,177.84Z"/><path class="cls-7" d="M60,171.14c1.38,1,2.06,3.9.87,6-.77,1.35-2.31,2.38-4.93,2.38,2.71,1.25,8.15,1.37,8.38.58C64.69,178.92,63.33,172.34,60,171.14Z"/><path class="cls-8" d="M62,180.86h0c-2.94,0-7.5-1-8-3-.28-1.34.75-3.51,1.92-5,.64-.78,1.9-2.1,3.28-2.1a2.19,2.19,0,0,1,.36,0,4.87,4.87,0,0,1,3.11,2.53c1.49,2.45,2.09,5.92,1.83,6.79C64.32,180.74,63,180.86,62,180.86Zm-2.75-9.72a4.44,4.44,0,0,0-3,2c-1.29,1.59-2.09,3.61-1.85,4.68.38,1.76,4.75,2.74,7.62,2.74h0c1.44,0,2.16-.25,2.23-.47.24-.81-.37-4.19-1.79-6.53a4.58,4.58,0,0,0-2.89-2.37Z"/><path class="cls-6" d="M65.08,179.4c0,1.68,2.1,2.4,5,2.61,2.6.19,5.45-.32,5.43-1.57,0-2.83-1.61-8.6-4.76-8.82C68.42,171.46,65.09,176.75,65.08,179.4Z"/><path class="cls-7" d="M71.44,171.75a5.45,5.45,0,0,1,.14,6.6,6,6,0,0,1-5.7,2.54A8.51,8.51,0,0,0,70.13,182c2.6.19,5.45-.32,5.43-1.57C75.53,177.81,74.16,172.64,71.44,171.75Z"/><path class="cls-8" d="M71.18,182.22h0c-.36,0-.71,0-1.06,0-3.46-.25-5.21-1.18-5.2-2.78,0-2.6,3.36-8.13,5.9-7.94,3.19.22,4.86,5.88,4.9,9a1,1,0,0,1-.32.75C74.76,181.83,73.19,182.22,71.18,182.22Zm-.49-10.44c-2.18,0-5.44,5-5.44,7.63,0,1.39,1.64,2.21,4.9,2.44.34,0,.68,0,1,0,1.89,0,3.42-.36,4-.93a.74.74,0,0,0,.23-.51c0-2.92-1.65-8.46-4.61-8.66Z"/><path class="cls-5" d="M65.14,169.79c-.08-.15-2.07-3.67-6.56-1.66l-.14-.29a5.36,5.36,0,0,1,5.24,0A3.38,3.38,0,0,1,65.14,169.79Z"/><path class="cls-5" d="M74.33,170.75a4,4,0,0,0-3.17-2,4.67,4.67,0,0,0-4,1.68,4.28,4.28,0,0,1,4-2A3.49,3.49,0,0,1,74.33,170.75Z"/><g class="cls-9"><path class="cls-10" d="M62.76,162.45c-.36.63.41,5,2.09,5.23s3.57-1.32,4.05-2.22-.7-3.36-2.55-3.83A3.38,3.38,0,0,0,62.76,162.45Z"/></g><g class="cls-9"><path class="cls-10" d="M63.52,149.73c-1.48.29-2.25,8.35-1.73,9.12S68,160,69,158.85s-.08-6-1-7.09C67,150.42,65.82,149.28,63.52,149.73Z"/></g><g class="cls-9"><path class="cls-10" d="M72,145.26c-1,.72-1.9,4.82-1.43,5.64s3.14,1.74,3.63,1.31,2.44-4.58,2.15-5.12S72.94,144.62,72,145.26Z"/></g><g class="cls-9"><path class="cls-10" d="M63.64,145.45c.35,2.13,5.49,1.58,5.94.19.68-2.13-.16-6.54-2.33-6.53S63.34,143.54,63.64,145.45Z"/></g><path class="cls-2" d="M45,60.82c0-4.53,6.84-14.37,19-7.37C62.22,56.07,45,60.82,45,60.82Z"/><path class="cls-3" d="M64,53.45c-4.83-2.77-8.82-2.9-11.88-1.77a12.59,12.59,0,0,0-6.89,7.4c3.86-6.66,12.65-8.5,17.67-4.7A3.89,3.89,0,0,0,64,53.45Z"/><path class="cls-5" d="M44.83,61v-.22c0-3.38,3.93-10,11.12-10a16.47,16.47,0,0,1,8.16,2.46l.15.09-.1.14C62.34,56.19,45.74,60.78,45,61ZM56,51.17c-6.83,0-10.63,6.1-10.79,9.43,2-.54,16.51-4.69,18.62-7.1A16.1,16.1,0,0,0,56,51.17Z"/><path class="cls-2" d="M24.15,66.44c-7.09,6.32-13,24.23,5.3,38.27a40.68,40.68,0,0,1,3.24-4s2.64,4,7.13,4.56,16.17-.74,21.5,5.91c4.26,5.31,1.81,28.67,23.05,35.92,7.66-5.36,33.61-26,33.61-26l-15.42-8.89c-5.33,2.74-12.44-1.56-12.36-8.7S100.57,70,78.14,57.85C69.61,56.1,59,54.3,59,54.3,45.65,60.94,31.7,59.71,24.15,66.44Z"/><path class="cls-4" d="M59.89,93.78c3.61-1,7-1.61,9.33-4.89-12.38,4.55-19.25.25-29,3.48C34.63,94.22,29.68,98.11,28,103.54c.47.39,1,.79,1.46,1.17a40.68,40.68,0,0,1,3.24-4v0C41.08,91.71,51.52,95.87,59.89,93.78Z"/><path class="cls-4" d="M118,121.11l-15.42-8.89c-5.33,2.74-12.44-1.56-12.36-8.7S100.57,70,78.14,57.85l-.1,0c12.12,23.44,4.24,42.08-6.28,42.52-12.29.51-21.57-4.89-33.06,2.65-.91.69-2.31.58-3.62.23a9.66,9.66,0,0,0,4.74,2.06c4.38.53,16.07-.73,21.44,5.83,3.89,4.76,7,6.77,9.8,12.24-1-4.3-1-6.46,1-8.1,3-2.3,4.51,12.25,7.13,14.88-.33-3.94-3.83-15.76-1.52-17.56,3.21-1.64,2.89,7.77,7.33,11.1-1.08-4.94-1.4-12.71,1-13.85,4.28-2,13.43,11.71,11.79,18.93-1.31,5.48-4.73,8.32-9.29,11-1.33,1.59-4,2-5.45,3a8.45,8.45,0,0,0-2.35,2.86,31.54,31.54,0,0,0,3.71,1.54C92,141.76,118,121.11,118,121.11Z"/><path class="cls-3" d="M26.23,71.21a4.14,4.14,0,0,0-4.7,5.11A6,6,0,0,0,22,77.63c-.58-3.3,1.38-4.87,3.16-5.08a4.48,4.48,0,0,1,4.95,3.35A4.91,4.91,0,0,0,26.23,71.21Z"/><path class="cls-3" d="M24.1,66.41c-5.34,4.76-10,16.07-4.18,27.37-3.37-12.27-.37-24.09,8.94-28.84,8.63-4.42,28.39-4.12,28.76-10C44.67,60.84,31.39,59.91,24.1,66.41Z"/><path class="cls-5" d="M84.35,147.27l-.08,0C69,142,65.85,128.34,63.8,119.28c-.83-3.65-1.48-6.53-2.66-8-4.22-5.26-12.5-5.5-18-5.66-1.36,0-2.54-.08-3.42-.19-4-.48-6.56-3.67-7.13-4.45a38.94,38.94,0,0,0-3.09,3.81l-.1.14-.14-.1c-9.72-7.48-12-15.6-12.2-21.08A22.88,22.88,0,0,1,24,66.29c4.1-3.66,10-5,16.78-6.46,5.62-1.25,12-2.66,18.13-5.71l0,0H59c.1,0,10.68,1.82,19.12,3.55l0,0c18.45,10,14.87,29.67,13,40.24a38.62,38.62,0,0,0-.8,5.58A9.31,9.31,0,0,0,93,110.24,8.63,8.63,0,0,0,99,112.86a7.33,7.33,0,0,0,3.39-.81l.08,0,15.71,9-.19.15c-.26.21-26,20.71-33.62,26Zm-51.7-46.83.12.18s2.66,3.95,7,4.48c.87.1,2,.14,3.39.18,5.53.16,13.9.41,18.21,5.79,1.23,1.53,1.89,4.45,2.73,8.14,2,9,5.1,22.51,20.17,27.7,7.31-5.13,31-23.93,33.35-25.81l-15.14-8.72a7.65,7.65,0,0,1-3.46.81,8.94,8.94,0,0,1-6.3-2.72,9.64,9.64,0,0,1-2.76-7,40.49,40.49,0,0,1,.8-5.64C92.69,87.38,96.25,67.86,78,58c-8.12-1.66-18.22-3.4-19-3.54-6.16,3.05-12.53,4.46-18.15,5.71-6.76,1.49-12.59,2.78-16.63,6.38a22.57,22.57,0,0,0-6.79,17.2c.19,5.39,2.43,13.35,11.93,20.72a43,43,0,0,1,3.16-3.85Z"/><path class="cls-2" d="M69.63,49.92C57.2,48,53.47,61.33,53.47,61.33l27.35,6.12C81.94,63,80.9,51.64,69.63,49.92Z"/><path class="cls-3" d="M69.92,51.81c5.66,1.45,9.79,5.89,11.1,14.58.72-5-.93-14.87-11.39-16.47S54.87,57.5,53.77,60.44C59.42,53,64.88,50.52,69.92,51.81Z"/><path class="cls-5" d="M80.66,67.41a16.42,16.42,0,0,0-2.13-11.92,12.46,12.46,0,0,0-8.92-5.41c-12.15-1.86-15.94,11.16-16,11.29a8.47,8.47,0,0,1,.94-3.11c2-3.84,6.47-9.82,15.09-8.5a12.76,12.76,0,0,1,9.14,5.55,16.26,16.26,0,0,1,2.52,7.91A16.46,16.46,0,0,1,80.66,67.41Z"/><path class="cls-5" d="M95.2,116.24a26.12,26.12,0,0,1-5-10.72l.32-.06A25,25,0,0,0,98,118.74,9.78,9.78,0,0,1,95.2,116.24Z"/><path class="cls-5" d="M71.62,105.47a51.58,51.58,0,0,1-11.78-1.66,30.7,30.7,0,0,0-7.76-1.13,31.18,31.18,0,0,0-8,1.54c-2.52.76-4.52,1.36-6.88.48l.12-.31c2.26.84,4.1.29,6.66-.48a31.19,31.19,0,0,1,8.12-1.56,30.88,30.88,0,0,1,7.85,1.14,50.19,50.19,0,0,0,12.15,1.65c7.39-.1,10.41-3.52,11.65-6.38,1.57-3.62.8-7.41.26-8a4.54,4.54,0,0,1,1,2.88,11.77,11.77,0,0,1-1,5.26c-1.27,3-4.38,6.47-12,6.58Z"/><path class="cls-5" d="M74.81,90.76c-3.27-3.14-8.89-3.18-9-3.18a7.11,7.11,0,0,1,2.85,0,15.56,15.56,0,0,1,3.42,1.05A7.12,7.12,0,0,1,74.81,90.76Z"/><path class="cls-5" d="M32.75,100.82l-.24-.22c5.29-6,11.45-6.11,18-6.19,1.85,0,3.77,0,5.66-.22,6.34-.58,10.78-2.64,13.57-6.3l.26.2c-2.85,3.73-7.36,5.84-13.8,6.42-1.91.18-3.83.2-5.69.22C44,94.82,38,94.89,32.75,100.82Z"/><path class="cls-5" d="M65.48,116.45s-3.41-4.43-4.8-5.72l.22-.24a28.66,28.66,0,0,1,2.17,2.41A27.74,27.74,0,0,1,65.48,116.45Z"/><path class="cls-4" d="M55.7,75C53,68.83,56.33,59,65,57.67c8.34-1.26,15.44,9,9.36,17.31C71.83,78.47,58,80.08,55.7,75Z"/><path d="M55.68,77.44C53.24,73,56.29,61.07,64.8,60c8.16-1,14.28,11.12,9.14,18C71.4,81.5,58.41,82.47,55.68,77.44Z"/><path class="cls-11" d="M55.86,78.17c-2.44-4.48.61-16.36,9.12-17.42,8.15-1,14.28,11.12,9.14,18C71.57,82.23,58.59,83.21,55.86,78.17Z"/><path class="cls-12" d="M55.24,76.39a6.32,6.32,0,0,0,.62,1.78c2.73,5,15.71,4.06,18.26.63A10.25,10.25,0,0,0,76,71.65C72.81,77.75,57.86,78.24,55.24,76.39Z"/><path d="M64.1,81.82c-4.17-.14-7.23-1.44-8.38-3.57-1.34-2.46-1-7,.73-10.78,1.07-2.31,3.61-6.28,8.5-6.88a8.72,8.72,0,0,1,1.25-.06c3.5.12,6.83,2.65,8.67,6.6,1.93,4.14,1.7,8.65-.62,11.77C72.91,80.72,68.54,82,64.1,81.82Zm2.1-20.95a6.89,6.89,0,0,0-1.2.05c-4.75.59-7.21,4.45-8.26,6.7-1.72,3.69-2,8.1-.75,10.47,1.1,2,4,3.25,8.11,3.39,4.35.15,8.6-1,9.89-2.79,2.25-3,2.47-7.4.59-11.42C72.79,63.43,69.58,61,66.2,60.87Z"/><path class="cls-13" d="M67.22,66.32c-2.57,0-4.69,2.86-4.74,6.47s2,6.56,4.55,6.59,4.68-2.86,4.73-6.47S69.78,66.35,67.22,66.32Z"/><path class="cls-14" d="M65.93,75.4a6.82,6.82,0,0,1-3.44-2.09c.14,3.37,2.1,6,4.54,6.07s4.63-2.79,4.73-6.34A6.18,6.18,0,0,1,65.93,75.4Z"/><path d="M67.81,69.73c-1.68,0-3.07,2-3.11,4.46s1.3,4.52,3,4.54,3.07-2,3.1-4.46S69.49,69.75,67.81,69.73Z"/><path class="cls-11" d="M67.53,69.79a1.77,1.77,0,0,0-1.94,1.61,1.84,1.84,0,0,0,1.57,2A1.77,1.77,0,0,0,69.1,71.8,1.82,1.82,0,0,0,67.53,69.79Z"/><path class="cls-11" d="M66.17,76a.82.82,0,0,0-.89.74.84.84,0,0,0,.72.93.81.81,0,0,0,.89-.74A.83.83,0,0,0,66.17,76Z"/><path class="cls-15" d="M67.22,66.18c-2.66,0-4.86,2.93-4.91,6.61-.05,3.48,1.87,6.43,4.36,6.71l.35,0c2.66,0,4.86-2.94,4.91-6.62S69.88,66.22,67.22,66.18ZM67,79.06c-2.41,0-4.3-2.88-4.25-6.27s2-6.18,4.43-6.15l.31,0c2.26.26,4,3,3.94,6.25C71.41,76.33,69.43,79.09,67,79.06Z"/><path class="cls-4" d="M55.88,78.16s2.8,6.2,9,6.34,8.32-3.48,10-6.83C68.4,81.64,60.45,81.23,55.88,78.16Z"/><path class="cls-16" d="M71.06,79.48c-2.29,3.64-6.14,5-11.17,3.37a9.16,9.16,0,0,0,5,1.65c6.14.14,8.32-3.48,10-6.83A19.65,19.65,0,0,1,71.06,79.48Z"/><path class="cls-5" d="M65.26,84.66h-.35c-6.27-.14-9.15-6.36-9.18-6.43l-.23-.5L56,78a15.7,15.7,0,0,0,8.64,2.36,19.69,19.69,0,0,0,10.23-2.86l.48-.29-.25.49C73.32,81.24,71.11,84.66,65.26,84.66Zm-9-6c.83,1.47,3.62,5.61,8.62,5.73,5.64.12,7.9-3,9.61-6.26a20.06,20.06,0,0,1-9.92,2.62A16.37,16.37,0,0,1,56.3,78.62Z"/><path class="cls-5" d="M57.92,61.58a9.34,9.34,0,0,1,2.6-2.64,10,10,0,0,1,5.54-1.47A11.43,11.43,0,0,1,71,58.62a11.45,11.45,0,0,1,3.46,3.09,11.13,11.13,0,0,0-8.38-3.92A10.43,10.43,0,0,0,57.92,61.58Z"/><path class="cls-5" d="M21.56,73.38a4.23,4.23,0,0,1,2.59-2.18,4.63,4.63,0,0,1,3.9.6,4.89,4.89,0,0,1,2.07,4.1,5.38,5.38,0,0,0-2.25-3.82,4.69,4.69,0,0,0-3.64-.56,3.71,3.71,0,0,0-2.37,2A4.71,4.71,0,0,0,22,77.63S20.49,75.45,21.56,73.38Z"/><path class="cls-10" d="M27.75,78.37c.38,1.27.12,2.51-.8,2.79s-1.81-.49-2.19-1.76-.33-3.15.59-3.43S27.37,77.1,27.75,78.37Z"/><path class="cls-17" d="M25.77,76a.85.85,0,0,0-.42,0c-.92.28-1,2.15-.59,3.43.33,1.11,1,1.83,1.84,1.81C27.61,79.68,27,77.37,25.77,76Z"/><path class="cls-5" d="M26.57,81.38c-.84,0-1.62-.76-2-1.94a5.45,5.45,0,0,1-.2-2.15c.1-.81.42-1.33.9-1.48a1.45,1.45,0,0,1,.29,0c1,0,1.95,1.33,2.32,2.55A3.52,3.52,0,0,1,28,80.18a1.52,1.52,0,0,1-1,1.14A1.54,1.54,0,0,1,26.57,81.38Zm-1-5.28a.63.63,0,0,0-.19,0c-.48.14-.63.81-.67,1.2a5.18,5.18,0,0,0,.18,2c.36,1.2,1.19,1.89,2,1.65a1.18,1.18,0,0,0,.78-.9,3.06,3.06,0,0,0-.09-1.68C27.26,77.32,26.36,76.1,25.59,76.1Z"/><path class="cls-2" d="M164,171.65l0,4.29c-3.38,1.1-5,6.12-5.32,8.15,3.12,2.07,17.76,4.95,26.35,3.42,1.81-.55,7.44-3.06,8.15-7.44-2.46-5.79-8.09-14.6-8.09-14.6Z"/><path class="cls-4" d="M185,165.47l-4.14,1.8c.53,8.42,4.08,17.84-12.29,20.24-.64.63,9.62-.22,9,.4a36.27,36.27,0,0,0,7.41-.4c1.81-.55,7.44-3.06,8.15-7.44C190.65,174.28,185,165.47,185,165.47Z"/><path class="cls-5" d="M179.34,188.11h0c-8.08,0-18.2-2.14-20.82-3.89l-.09-.06,0-.1c.31-1.89,1.86-7,5.32-8.23l0-4.3.11,0,21.18-6.21.07.1c.05.09,5.67,8.89,8.1,14.63l0,0v0c-.71,4.37-6.2,7-8.26,7.57A32.82,32.82,0,0,1,179.34,188.11ZM158.79,184c2.72,1.71,12.62,3.77,20.55,3.77a32.67,32.67,0,0,0,5.59-.43c2-.6,7.3-3.08,8-7.26-2.29-5.38-7.36-13.42-8-14.43l-20.83,6.11,0,4.29-.12,0C160.66,177.17,159.13,182.07,158.79,184Z"/><path class="cls-5" d="M167.8,179.22a3.6,3.6,0,0,0-1.68-2.7,2.62,2.62,0,0,0-2.23-.39l-.11-.31a2.82,2.82,0,0,1,2.51.43A3.16,3.16,0,0,1,167.8,179.22Z"/><path class="cls-5" d="M177,180.61a4,4,0,0,0-7.19-1.3,3.83,3.83,0,0,1,1.23-1.54,4,4,0,0,1,3-.47,4.13,4.13,0,0,1,2.08,1.11A3.92,3.92,0,0,1,177,180.61Z"/><path class="cls-6" d="M157.67,183.74c.18,2.52,9.81,4.53,10.51,3.16s0-7.55-3.56-8.5C162,177.72,157.53,181.8,157.67,183.74Z"/><path class="cls-7" d="M165.09,178.57c1.63,2.46,1.07,5.31-.94,6.33a7.75,7.75,0,0,1-5.52.17c2.49,1.82,9,3,9.55,1.83C168.85,185.58,168.23,179.91,165.09,178.57Z"/><path class="cls-8" d="M166.56,187.51h0c-2.93,0-8.9-1.63-9.05-3.76a4.35,4.35,0,0,1,1.46-2.81c1.29-1.38,3.35-2.78,5-2.78a2.39,2.39,0,0,1,.66.09,4.85,4.85,0,0,1,3,3c.94,2.09,1.11,4.81.63,5.75C168.15,187.33,167.55,187.51,166.56,187.51Zm-2.56-9c-1.58,0-3.59,1.39-4.79,2.68a4.16,4.16,0,0,0-1.38,2.56c.13,1.74,5.62,3.45,8.73,3.45h0c.81,0,1.36-.13,1.47-.36.39-.76.33-3.32-.63-5.47a4.68,4.68,0,0,0-2.83-2.79A2.54,2.54,0,0,0,164,178.49Z"/><path class="cls-6" d="M167.26,187c.63,2.45,10.47,2.69,10.91,1.2s-1.38-7.42-5-7.7C170.47,180.25,166.77,185.08,167.26,187Z"/><path class="cls-7" d="M173.83,180.59a4,4,0,0,1,.68,5.12c-1,1.54-3.14,2.63-6,2.46,2.87,1.17,9.33,1,9.63,0C178.58,186.78,177,181.51,173.83,180.59Z"/><path class="cls-8" d="M175.76,189.18h0c-2.84.27-8.16-.23-8.66-2.18-.2-.78.24-2.06,1.19-3.41s2.76-3.14,4.43-3.29a3,3,0,0,1,.42,0,4.91,4.91,0,0,1,3.53,2.37c1.3,1.89,2,4.53,1.66,5.55C178.14,188.83,176.83,189.08,175.76,189.18Zm-3-8.55c-1.46.13-3.15,1.68-4.19,3.15a4.63,4.63,0,0,0-1.14,3.14c.41,1.59,5.27,2.22,8.31,1.94,1.57-.15,2.21-.48,2.28-.74.24-.82-.28-3.33-1.61-5.27a4.67,4.67,0,0,0-3.29-2.23A1.47,1.47,0,0,0,172.75,180.63Z"/><path class="cls-6" d="M178.28,188c.79,1.63,7.76.39,7.86-.72s-2-5-4.66-4.7C179.58,182.85,177.67,186.78,178.28,188Z"/><path class="cls-7" d="M182.1,182.62a3.32,3.32,0,0,1,1.08,3.45c-.42,1.16-1.71,2.16-4.2,2.51,2,.73,7.07-.31,7.16-1.26S184.43,182.91,182.1,182.62Z"/><path class="cls-8" d="M182.22,188.91h0c-1.05.11-3.56.28-4.09-.8-.36-.74.07-2.15.65-3.22a4.28,4.28,0,0,1,2.68-2.44h0a3.61,3.61,0,0,1,2.89,1.2,6.3,6.3,0,0,1,2,3.69C186.23,188.15,183.76,188.73,182.22,188.91Zm-.7-6.13c-1,.12-1.9,1.25-2.45,2.26-.64,1.18-.91,2.39-.64,2.92s1.76.84,3.75.62h0c2.1-.24,3.76-.88,3.79-1.27a6,6,0,0,0-1.85-3.42A3.34,3.34,0,0,0,181.52,182.78Z"/><path class="cls-18" d="M117.33,163.55A32,32,0,0,0,131.16,169c6.16,3.2,19,7,27.17,3.59,9.68,2.73,23.3-.89,26.82-4.33l24.26-7.36c2,.28,7-1,8.32-2.73,3.28-.66,11-5.21,13.56-11.43A22.79,22.79,0,0,0,238,139.2c-4.9,1.59-96.26,9.87-117.59,1.61-4.59,3.05-12.58,22.44-12.58,22.44Z"/><path class="cls-19" d="M156.19,164.7c-5.92-2.49-11-3.08-17.23-4-.49,0-1.23,1.62-1.47,2.35-1.32,2-2.63,5.25.32,6.24,5.91,1.31,11.49,2.62,17.4,1.31C157.83,170.28,158.16,165.69,156.19,164.7Z"/><path class="cls-19" d="M124.3,153.69c-.92,3-4.65,6.27-4.69,6.89.26,1.8,7.54,5.66,10.33,4.95,1.43-.76,4.21-5.27,3.22-7.89C132.78,156.19,127,154.32,124.3,153.69Z"/><path class="cls-20" d="M131.27,169.09l-.22-.24c3.57-3.19,5.48-11.94,4-15l.3-.15C137,157.14,134.65,166.07,131.27,169.09Z"/><path class="cls-20" d="M116.19,158.66l-.07-.32c.07,0,6.74-1.46,7.85-8.33l.33.05C123.15,157.16,116.26,158.64,116.19,158.66Z"/><path class="cls-20" d="M158.45,172.67l-.25-.21c2.54-3.08,2.44-7.93,1.24-9.91l.28-.17C161,164.44,161.09,169.48,158.45,172.67Z"/><path class="cls-20" d="M217.88,158.2l-.31-.12c1.72-4.46-.67-9-.7-9l.29-.16C217.19,148.93,219.65,153.59,217.88,158.2Z"/><path class="cls-20" d="M231.4,146.85l-.33,0a7.21,7.21,0,0,0-1-3.54l.28-.17A7.52,7.52,0,0,1,231.4,146.85Z"/><path class="cls-20" d="M150.68,174.07h0a46.88,46.88,0,0,1-19.56-4.94,32.46,32.46,0,0,1-13.84-5.41l-9.68-.32.09-.21c.33-.8,8.06-19.47,12.64-22.52l.07,0,.08,0c6.17,2.39,18.7,3.61,37.25,3.61,34.55,0,77.17-4.23,80.23-5.22l.33-.1-.13.32c-.64,1.64-3.75,5.52-6.74,7.56-2.64,6.24-10.21,10.76-13.6,11.47-1.35,1.59-5.65,2.78-7.81,2.78a5,5,0,0,1-.58,0l-24.19,7.34c-2.67,2.57-11,5.3-19.26,5.3a28.9,28.9,0,0,1-7.64-.94A20.11,20.11,0,0,1,150.68,174.07Zm-42.6-11,9.31.3,0,0a32.06,32.06,0,0,0,13.75,5.39h.06a46.46,46.46,0,0,0,19.44,4.93h0a19.46,19.46,0,0,0,7.58-1.34l.05,0h.06a27.84,27.84,0,0,0,7.61,1c8.19,0,16.47-2.71,19.06-5.25l0,0,0,0,24.29-7.36h0c1.8.25,6.79-1,8.16-2.67l0,0h.05c3.22-.65,10.89-5.23,13.45-11.34l0,0,0,0a23.82,23.82,0,0,0,6.52-7.13c-5.06,1.14-46.36,5.14-80,5.14-18.51,0-31-1.21-37.29-3.59C116.19,144,109,161,108.08,163.09Z"/><path class="cls-2" d="M186.05,158.62s-4.42,7.15-1.63,14.34c2.14,5.53,8.64,5.25,10.25,11.19,0,0-4.1,5,.21,7.87,3.61.91,23.94-.52,23.94-.52,9.41-3.88,8.81-14.71,5.8-17.94-2.56-2.74-8.94-7-12-10.48s-5.44-8.71-10.17-9.86C189.6,150.09,186.05,158.62,186.05,158.62Z"/><path class="cls-3" d="M193.11,179.3c-.9-.73-5.5-3.07-7.65-7.78-1.3-2.83-1.26-6.56-.28-11.19-1.12,2.54-2.73,7.57-.76,12.63,2,5.26,8.73,5.32,10.33,11.35A7.1,7.1,0,0,0,193.11,179.3Z"/><path class="cls-4" d="M224.62,173.56c-2.56-2.74-8.94-7-12-10.48s-5.44-8.71-10.17-9.86c-.5-.12-4.62.62-5.09.53,8.81,2.8,11.66,12.1,16.69,18,2.11,2.48,6,4.45,7.1,8,.93,2.84-1.53,10.81-9.68,12.2-.09,0,3.61-.24,3.53-.19,2.28-.14,3.8-.25,3.8-.25C228.23,187.62,227.63,176.79,224.62,173.56Z"/><path class="cls-5" d="M199.88,192.49h0a25.24,25.24,0,0,1-5-.31l-.05,0a4.18,4.18,0,0,1-2-2.9c-.36-2.36,1.37-4.71,1.7-5.15-.84-3-2.91-4.32-5.1-5.74-2-1.31-4.08-2.65-5.13-5.35-2.78-7.18,1.6-14.41,1.65-14.48s2.67-6.17,11.23-6.17a22.79,22.79,0,0,1,5.36.69c3.58.87,5.86,4,8.07,7.05.75,1,1.45,2,2.19,2.86a55.67,55.67,0,0,0,6.9,6.11,54.56,54.56,0,0,1,5.08,4.37c1.5,1.62,2.57,5.34,1.7,9.34a12.24,12.24,0,0,1-7.56,8.87h0C218.71,191.68,207,192.49,199.88,192.49Zm-4.94-.62a26.58,26.58,0,0,0,4.94.29c7,0,18.27-.77,18.9-.82a11.91,11.91,0,0,0,7.34-8.62c.85-3.89-.17-7.49-1.62-9a52.39,52.39,0,0,0-5-4.34,55.51,55.51,0,0,1-6.94-6.15c-.75-.87-1.47-1.85-2.22-2.89-2.17-3-4.41-6.08-7.87-6.92a22.29,22.29,0,0,0-5.29-.69c-8.35,0-10.92,5.94-10.94,6s-4.36,7.18-1.63,14.21c1,2.6,3,3.92,5,5.19,2.16,1.41,4.4,2.86,5.26,6l0,.08,0,.06s-2.05,2.55-1.68,5A3.84,3.84,0,0,0,194.94,191.87Z"/><path class="cls-6" d="M214.57,185.28c-3,.21-5.64,5.92-4.86,7.71s9.88,1.32,10.06-.16S218.19,185,214.57,185.28Z"/><path class="cls-7" d="M215.87,185.48a4.72,4.72,0,0,1,.32,5.28c-.8,1.5-2.58,2.68-5.93,2.74,2.15,1.16,9.35.65,9.51-.67S218.61,186.56,215.87,185.48Z"/><path class="cls-8" d="M214.29,194.31h0c-1,0-4.23-.09-4.73-1.26-.43-1,.09-3,1.22-4.9s2.49-2.94,3.78-3a3.61,3.61,0,0,1,3,1.42,10.79,10.79,0,0,1,2.38,6.32C219.8,193.92,216.49,194.31,214.29,194.31Zm.5-8.88h-.21c-1.18.09-2.46,1.14-3.52,2.88s-1.58,3.73-1.2,4.6c.28.65,2,1.06,4.43,1.06h0c2.76,0,5.24-.54,5.32-1.17a10.46,10.46,0,0,0-2.29-6.06A3.4,3.4,0,0,0,214.79,185.43Z"/><path class="cls-6" d="M196,184.09c-2.95-.24-5.82,5.35-5.33,7.24s9.56,2.83,10,1.39S199.6,184.39,196,184.09Z"/><path class="cls-7" d="M196.91,184.33a4.34,4.34,0,0,1,.16,5.81,6.25,6.25,0,0,1-5.79,1.88c2.47,1.4,9,1.84,9.34.7C201,191.42,199.84,185.59,196.91,184.33Z"/><path class="cls-8" d="M197.93,193.58h0c-2.86,0-7.08-.84-7.44-2.21-.3-1.16.56-3.53,1.92-5.29,1.14-1.48,2.41-2.25,3.59-2.15a4,4,0,0,1,2.92,2c1.56,2.26,2.15,5.86,1.86,6.87C200.59,193.44,199.12,193.58,197.93,193.58Zm-2.14-9.33a4.35,4.35,0,0,0-3.12,2c-1.28,1.66-2.13,3.95-1.86,5s4.13,2,7.12,2c1.75,0,2.46-.31,2.53-.57.28-1-.3-4.41-1.81-6.6a3.7,3.7,0,0,0-2.68-1.82Z"/><path class="cls-6" d="M205.35,185.43c-3.38,0-6.18,5.78-5.5,7.61s9.8,1.84,10.06.37S209,185.43,205.35,185.43Z"/><path class="cls-7" d="M205.91,185.49c1.53,1.09,1.87,3.69.49,5.69-1,1.4-2.79,2.51-5.66,2.59,2.46,1.06,8.95.88,9.17-.36S209.1,186.13,205.91,185.49Z"/><path class="cls-8" d="M205.47,194.63h0c-1.93,0-5.32-.32-5.77-1.54-.39-1,.29-3.28,1.54-5.08.71-1,2.19-2.74,4.11-2.74h0a3.42,3.42,0,0,1,2.66,1.38,11,11,0,0,1,2.06,6.79C209.87,194.57,206.21,194.63,205.47,194.63Zm-.12-9c-1.3,0-2.69.94-3.84,2.59S199.66,192,200,193c.28.77,2.58,1.32,5.46,1.32,2.67,0,4.2-.47,4.28-.91a10.56,10.56,0,0,0-2-6.53,3.09,3.09,0,0,0-2.4-1.26Z"/><path class="cls-5" d="M200.53,184.8a3.37,3.37,0,0,0-2.92-2.24,2.92,2.92,0,0,0-2.86,1.75l-.29-.15a3.28,3.28,0,0,1,3.17-1.93,3.68,3.68,0,0,1,2.58,1.35A2.87,2.87,0,0,1,200.53,184.8Z"/><path class="cls-5" d="M210.25,185a5.84,5.84,0,0,0-4.36-3.47,6.49,6.49,0,0,0-5.78,2.2l-.24-.22a6.82,6.82,0,0,1,6.08-2.3,5.94,5.94,0,0,1,3.54,2A6.16,6.16,0,0,1,210.25,185Z"/><path class="cls-5" d="M217.26,183.66a4.35,4.35,0,0,0-3.87-2.44,2.89,2.89,0,0,0-2.49,1.9,2.68,2.68,0,0,1,.76-1.56,3.11,3.11,0,0,1,1.7-.67,3.42,3.42,0,0,1,2.28.6A5.71,5.71,0,0,1,217.26,183.66Z"/><g class="cls-9"><path class="cls-10" d="M191.27,173.46c-.63.92-.09,4.17,1.88,4.82s4.27.66,5-.49-.7-3.69-2-4.45S192.09,172.25,191.27,173.46Z"/></g><g class="cls-9"><path class="cls-10" d="M202,173.46c-.62.92-.08,4.17,1.89,4.82s4.26.66,5-.49-.69-3.69-2-4.45S202.85,172.25,202,173.46Z"/></g><g class="cls-9"><path class="cls-10" d="M204.42,165.38c.92,2,.33,4.2-1.31,5s-3.71-.23-4.63-2.21-.34-4.21,1.3-5S203.5,163.4,204.42,165.38Z"/></g><g class="cls-9"><path class="cls-10" d="M190,162c-1.35,0-2.77,6.48-.83,8.45,1.1,1.11,6,.57,6.2-.58C195.8,167.19,192.35,162,190,162Z"/></g><path class="cls-2" d="M114.09,155.24a13.29,13.29,0,0,0,5.26-12.52c-.74-6.9-12.71-18-12.71-18l-5.8,1.85c-4.54,5-21.22,8-23.08,23.31-1.39,11.39,9.13,24.17,11.89,27a8.59,8.59,0,0,0-4.3,5.73l3.11,7.75c2.55.45,28.35,3.82,32.29-1.68S120.82,164.43,114.09,155.24Z"/><path class="cls-3" d="M95.13,180.78c-.87-2.36-3-4.93-5.48-4a8.59,8.59,0,0,0-4.3,5.73l.47,1.19c.44-1-.11-1.4.66-2.18C89.24,176.39,92.81,177.38,95.13,180.78Z"/><path class="cls-3" d="M79.73,149.61c2-11.41,13.34-16.14,18.58-21.28-1.8,1.3-6.21,3.34-10.89,6.56-4.44,3-8.76,7.48-9.66,14.94-.82,6.71,3.39,18.92,11.79,26.64C84.42,169.19,78.51,156.59,79.73,149.61Z"/><path class="cls-4" d="M114.09,155.24a13.29,13.29,0,0,0,5.26-12.52c-.14-1.31-1.37.05-2.16-1.45a6.29,6.29,0,0,1-4.76,4.73c-2.92.86-6.45-1.29-9.9-2.24,6.77,5.07,16.74,30.8,14.07,38.44-1.48,4.22-5.51,6.61-8.46,9.52,5.8-.1,11-.87,12.61-3.1C124.69,183.12,120.82,164.43,114.09,155.24Z"/><path class="cls-5" d="M121.58,173.28c-1.4-6.93-4.11-13.65-7.26-18a13.45,13.45,0,0,0,5.2-12.57c-.74-6.88-12.28-17.7-12.77-18.15l-.23.24c.12.11,11.94,11.19,12.67,17.94a13.16,13.16,0,0,1-5.2,12.38l-.12.1.09.13c6.76,9.22,10.49,27.83,6.66,33.18s-28.13,2.31-32,1.64c-.28-.7-2.22-5.51-3.06-7.63A8.49,8.49,0,0,1,89.73,177l.2-.1-.16-.16c-.13-.13-13.4-14.07-11.85-26.85,1.3-10.72,9.71-15.26,16.47-18.9a32.63,32.63,0,0,0,3.92-2.62c-1.17.76-2.57,1.51-4.08,2.33-6.46,3.48-15.32,8.26-16.64,19.15-1.48,12.2,10.33,25.38,11.8,27a8.89,8.89,0,0,0-4.21,5.74v.09l3.12,7.75,0,.09h.08a129.23,129.23,0,0,0,18.22,1.43c6.43,0,12.48-.73,14.23-3.17C122.75,186.11,123,180.34,121.58,173.28Z"/><path class="cls-5" d="M114.25,155.75c-6.06-8.44-11.66-12-11.72-12a21.17,21.17,0,0,1,5.25,3.92,58.65,58.65,0,0,1,6.74,7.88Z"/><path class="cls-5" d="M95.28,181.85c-.52-1.83-1.66-4.06-3.29-4.8a3,3,0,0,0-2.6.1l-.15-.29a3.29,3.29,0,0,1,2.88-.11A6.46,6.46,0,0,1,95,180.09,4.92,4.92,0,0,1,95.28,181.85Z"/><path class="cls-5" d="M104.82,183.28c-1.26-2.93-2.7-4.57-4.42-5s-3.4.18-5.57,1.82l-.19-.26c2.24-1.71,4.16-2.32,5.85-1.87a6,6,0,0,1,3.4,2.85A13.35,13.35,0,0,1,104.82,183.28Z"/><path class="cls-5" d="M114,183a4.94,4.94,0,0,0-3.61-3.09,4.5,4.5,0,0,0-4,1.69,4.26,4.26,0,0,1,1.74-1.7,3.84,3.84,0,0,1,2.31-.32,4.46,4.46,0,0,1,2.5,1.31A7.4,7.4,0,0,1,114,183Z"/><path class="cls-6" d="M82.83,187.41c.32,2.81,9.4,4.49,9.9,3.28s-.31-8.5-3.88-9.54C86.38,180.43,82.58,185.23,82.83,187.41Z"/><path class="cls-7" d="M89.59,181.48a4.86,4.86,0,0,1-.16,5.59,5.11,5.11,0,0,1-5.54,1.66c.57,1.51,8.37,3.1,8.84,2S92.53,183.23,89.59,181.48Z"/><path class="cls-8" d="M91,191.25h0c-2.69-.1-8-1.54-8.31-3.82-.13-1.13.77-3,2.18-4.51s2.93-2.26,4-1.93a4.84,4.84,0,0,1,2.84,2.83c1.25,2.58,1.49,6.09,1.15,6.93C92.73,191.12,92.09,191.29,91,191.25Zm-2.59-10a4.9,4.9,0,0,0-3.3,1.9c-1.33,1.44-2.21,3.23-2.1,4.25.23,2,5.31,3.43,8,3.53h0c1.06,0,1.52-.13,1.58-.29.32-.78.05-4.21-1.13-6.67a4.6,4.6,0,0,0-2.64-2.66A2.7,2.7,0,0,0,88.39,181.24Z"/><path class="cls-6" d="M93.39,190c-.25,2.08,2.46,3,5.41,3.21s5.34-.48,5.48-2.38c.21-2.83-1.66-7.79-4.81-8C97.09,182.61,93.93,185.36,93.39,190Z"/><path class="cls-7" d="M100.33,183a6.24,6.24,0,0,1,.33,6.23c-1,1.77-3.07,3-6.59,2.51,1,.88,2.79,1.33,4.73,1.46,3,.21,5.34-.48,5.48-2.38C104.47,188.23,103,183.93,100.33,183Z"/><path class="cls-8" d="M99.77,193.37h0l-1,0c-1.44-.1-4-.47-5.09-1.78a2.06,2.06,0,0,1-.48-1.62c.56-4.66,3.75-7.49,6.26-7.32a4,4,0,0,1,2.75,1.53,10.22,10.22,0,0,1,2.22,6.65C104.33,192.44,102.62,193.37,99.77,193.37Zm-.5-10.43c-2.36,0-5.22,2.83-5.72,7a1.76,1.76,0,0,0,.4,1.38c.75.9,2.47,1.48,4.86,1.65l1,0c2.66,0,4.24-.82,4.35-2.26a9.94,9.94,0,0,0-2.14-6.41,3.72,3.72,0,0,0-2.52-1.43Z"/><g class="cls-9"><path class="cls-10" d="M86.43,143.38a3.91,3.91,0,0,0,3.68,4.05c2.12.17,4-1.08,4.1-2.65.15-2.34-1.36-5.77-3.62-5.95C88.88,138.69,86.52,141.19,86.43,143.38Z"/></g><path class="cls-6" d="M105.1,191.73c.41,1.23,7.53,2.24,10-.55,1.14-1.31-.7-5.22-2.41-6.36a4.33,4.33,0,0,0-5,.29C106.21,186.25,104.52,190,105.1,191.73Z"/><path class="cls-7" d="M112.64,184.82a4.29,4.29,0,0,0-2.8-.64,4.55,4.55,0,0,1,1.81,5.38c-.67,1.58-2.52,2.81-6,2.67,1.79.94,7.32,1.34,9.4-1C116.19,189.87,114.35,186,112.64,184.82Z"/><path class="cls-8" d="M109.68,193.13h0c-2.06,0-4.46-.52-4.74-1.35-.62-1.89,1.17-5.67,2.57-6.8a4.51,4.51,0,0,1,5.22-.3,8,8,0,0,1,2.8,4.83,2.23,2.23,0,0,1-.35,1.78C114.16,192.46,112.15,193.13,109.68,193.13Zm.64-8.82a4.09,4.09,0,0,0-2.6.92c-1.43,1.16-3,4.82-2.47,6.44.18.53,2.15,1.13,4.43,1.13h0c2.38,0,4.29-.63,5.25-1.73a1.92,1.92,0,0,0,.28-1.51,7.82,7.82,0,0,0-2.66-4.61A4.16,4.16,0,0,0,110.32,184.31Z"/><g class="cls-9"><path class="cls-10" d="M82.06,156.25c1.36.86,5.58.49,6.32-.2s.43-6.94-1.31-8.33c-1.16-.93-4-1.09-4.51-.63s-2.22,3.51-2.14,4.59S81,155.57,82.06,156.25Z"/></g><g class="cls-9"><path class="cls-10" d="M92.89,153.26c-1,1.26-1.18,4.18.69,5.61.93.71,2.84,1.61,4.36,0a3.54,3.54,0,0,0-.1-4.79C96.46,152.58,93.64,152.28,92.89,153.26Z"/></g><path class="cls-21" d="M106.62,159.71a2.54,2.54,0,1,1,.27-3.09A2.24,2.24,0,0,1,106.62,159.71Z"/><g class="cls-9"><path class="cls-10" d="M103.94,167.45c-3.34,1.79-3.53-3.57-2.65-4.13S107,165.81,103.94,167.45Z"/></g><g class="cls-9"><path class="cls-10" d="M98.92,152.23c-1.45-.33-2.14-5.72,1.36-4.14S100.59,152.61,98.92,152.23Z"/></g><g class="cls-9"><path class="cls-10" d="M111.4,172.17a2.39,2.39,0,1,1-2.39-2.39A2.39,2.39,0,0,1,111.4,172.17Z"/></g><g class="cls-9"><path class="cls-10" d="M95.3,168.32c-1.22.81.12,6.84,1.08,7.39s3.67-.19,4.19-.58-.26-5-.93-5.55S96.26,167.68,95.3,168.32Z"/></g><g class="cls-9"><path class="cls-10" d="M85.06,161.67c-.84.32-.86,3.89,0,5s3.36,4.23,4.84,3.45,2.87-2.09,2.87-3.08-4.06-4.59-4.84-5.08A4,4,0,0,0,85.06,161.67Z"/></g><path class="cls-22" d="M166.69,80.25c-5.25-3.28-19.47-10.5-38.28,2.19-7.39-1.26-19.07,5.71-23,11.54-5.62.49-7.18-2.67-8.86-1.81s-3.94,16.91,6.15,24.51c-1.2,5.69,3.14,14.65,13.92,20.28-.52,9.15,9,16.15,18.57,16.8,3.39,4.65,16.3,9.52,24.39,8.59,11.22,1.48,25.9,1.45,33.53-7.41,9.11.57,19.53-.33,23.63-6,7.47.33,12.14-1.09,13.46-5.74,4.43-.77,7.66-1.86,8.53-6-5.91-.92-11.12-5.82-16.85-8.37-.54-6.12-2.68-17.69-10.72-23.44-.94-6.19-5.74-17.55-19.85-17.8C185.48,79.38,172.16,77.3,166.69,80.25Z"/><path class="cls-23" d="M238.73,137.19l-.31-.05a5.07,5.07,0,0,1-3.46,2.29c-5.32.84-7.63-4.61-9.11-8.57-1.45-.59-2.88-1.71-4-2.17,1.25,5.72,3.24,13.35,7.27,16.85a7,7,0,0,0,1.13-2.33C234.63,142.44,237.86,141.35,238.73,137.19Z"/><path class="cls-24" d="M169.9,163.24a79.94,79.94,0,0,1-10.32-.72,20.34,20.34,0,0,1-2.13.11c-7.88,0-19.12-4.38-22.35-8.71-9.41-.68-19.1-7.6-18.65-16.86-10.71-5.64-15.1-14.45-13.93-20.31-6.38-4.87-8.06-13.41-7.51-19.81.22-2.6.81-4.58,1.46-4.91a1.53,1.53,0,0,1,.69-.17,4.41,4.41,0,0,1,1.81.63,10.75,10.75,0,0,0,5.27,1.38c.35,0,.71,0,1.07-.05,3.65-5.31,13.89-11.69,21.25-11.69a10.54,10.54,0,0,1,1.81.14c7.11-4.79,14.3-7.22,21.36-7.22a31.84,31.84,0,0,1,17,5,13.61,13.61,0,0,1,6.22-1.25c6.13,0,14.21,2.66,18.47,8.61,12.7.26,18.66,9.77,19.92,17.87,8,5.75,10.15,17.09,10.73,23.42a54.78,54.78,0,0,1,6.27,3.53c3.34,2.07,6.8,4.22,10.45,4.79l.17,0,0,.16c-.93,4.42-4.57,5.44-8.56,6.13-1.17,4-4.87,5.81-11.63,5.81h0c-.6,0-1.23,0-1.88,0-3.74,5.07-12.47,6.13-19.14,6.13-1.44,0-3-.05-4.5-.14C188.49,160.51,180.66,163.24,169.9,163.24Zm-10.32-1.05h0a79.77,79.77,0,0,0,10.3.72c10.7,0,18.47-2.72,23.09-8.08l0-.06h.08c1.57.09,3.1.14,4.56.14,6.63,0,15.29-1,18.93-6.07l0-.07h.09c.68,0,1.33,0,1.95,0,6.73,0,10.23-1.75,11.34-5.67l0-.1h.1c4.75-.83,7.5-2,8.36-5.73-3.64-.61-7.07-2.74-10.4-4.81a53.88,53.88,0,0,0-6.31-3.54l-.09,0v-.09c-.56-6.27-2.69-17.63-10.65-23.32l-.06,0v-.07c-.27-1.78-3.12-17.38-19.7-17.67h-.08l-.05-.06c-4.18-5.9-12.18-8.54-18.25-8.54a13.08,13.08,0,0,0-6.15,1.26l-.08,0-.08,0a31.54,31.54,0,0,0-16.88-5c-7,0-14.15,2.42-21.23,7.19l-.06,0h-.06a10.56,10.56,0,0,0-1.82-.15c-7.29,0-17.46,6.36-21,11.62l0,.07h-.08c-.4,0-.8.06-1.18.06a11.14,11.14,0,0,1-5.42-1.41c-.93-.47-1.6-.78-2.2-.47s-1.06,2-1.28,4.65c-.55,6.33,1.12,14.8,7.46,19.58l.08.06,0,.1c-1.19,5.62,3.26,14.58,13.83,20.11l.1,0V137c-.52,9.15,9.11,16,18.42,16.63h.08l0,.06c3.12,4.27,14.29,8.63,22.13,8.63a19.8,19.8,0,0,0,2.11-.11Z"/><path class="cls-23" d="M221.88,128.82c-.12-1.34-.31-2.94-.63-4.69l-9.87,5.79s4.32,14.76,5.36,19c7.47.33,12.14-1.09,13.46-5.74Zm-2.23,18c-2.59-1.92-4.45-12.49-3.83-15.51.25-1.23,2.15-2.19,3.55-2.08,2.11.17,8.72,11.75,8.38,13.86C227.37,145.48,220.31,147.84,219.65,146.85Z"/><path class="cls-24" d="M218.7,149.16h0c-.62,0-1.28,0-2,0h-.12l0-.12c-1-4.21-5.31-18.88-5.36-19l0-.12,10.18-6,0,.23c.28,1.53.49,3.1.63,4.67l8.33,14.42v.06C229.22,147.28,225.51,149.16,218.7,149.16Zm-1.83-.37c.64,0,1.25,0,1.83,0,6.7,0,10.19-1.73,11.32-5.6l-8.3-14.36v0c-.13-1.5-.33-3-.59-4.45l-9.55,5.6C212,131.41,215.85,144.64,216.87,148.79Z"/><path class="cls-23" d="M213.35,131.12c-.22-2.79-10.21-10.15-10.21-10.15l-11,5.23s1,24.19.93,28.74c9.11.57,19.53-.33,23.63-6C217.12,142.88,213.35,131.12,213.35,131.12Zm-16.19,18.76c0-6.23-1-14.6-1-18.54,0-1.85,4.5-5,6.51-5.16,2.29-.19,5.82,2.24,7.61,4.94,2.36,3.54,3.28,11.6,1.89,15.73C211.11,149.86,197.16,152.18,197.16,149.88Z"/><path class="cls-24" d="M197.68,155.25h0c-1.47,0-3-.05-4.58-.15H193v-.15c0-4.5-.92-28.5-.93-28.74v-.11l.1,0,11-5.27.08.06c.41.3,10,7.4,10.27,10.25.17.52,3.77,11.95,3.4,17.87v0l0,0C213.16,154.18,204.38,155.25,197.68,155.25Zm-4.4-.46c1.51.09,3,.13,4.4.13,6.61,0,15.25-1,18.9-6,.36-6-3.35-17.6-3.39-17.72v0c-.2-2.55-9.13-9.27-10.07-10l-10.77,5.14C192.42,128,193.3,150.08,193.28,154.79Z"/><path class="cls-23" d="M210,105.42c-1.37,0-3.09,0-3.09,0-1,2.64-4.07,17.13-4.07,17.13s8,4.9,10.54,8.57c1.5-.91,5.76-4.15,8.09-5.89-3.32,1.06-6.9,1.84-8.86,1C208.43,124.3,208.64,113.1,210,105.42Z"/><path class="cls-24" d="M213.3,131.34l-.08-.13c-2.53-3.59-10.42-8.48-10.5-8.52l-.1-.06,0-.12c.12-.59,3-14.52,4.08-17.15l0-.11h1.84c1.17,0,2,0,2.54,0h.06l0,0c6.68,4.77,9.31,13.49,10.34,20l0,.1-.09.06c-.79.57-1.76,1.3-2.78,2.07-2,1.52-4.13,3.1-5.31,3.82ZM203,122.47c.95.59,7.89,5,10.41,8.43,1.19-.74,3.2-2.26,5.16-3.73,1-.74,1.92-1.44,2.7-2-1-6.38-3.63-14.92-10.15-19.61-.51,0-1.35,0-2.5,0H207C206,108.31,203.27,121.13,203,122.47Z"/><path class="cls-22" d="M193.28,129.26c-.44-1.86-10.51-9.41-10.51-9.41l-18.54,4.82s-3.31,31.09-4.65,37.68c11.22,1.48,25.9,1.45,33.53-7.41C196.23,139.87,193.28,129.26,193.28,129.26Z"/><path class="cls-23" d="M193.28,129.26c-.44-1.86-10.51-9.41-10.51-9.41l-18.54,4.82s-3.31,31.09-4.65,37.68c11.22,1.48,25.9,1.45,33.53-7.41C196.23,139.87,193.28,129.26,193.28,129.26Zm-4.11,24.67c-2.63,3-20.28,7.44-22.25,3.72-2.27-4.3,2.1-23.5,3.66-25.87,2-3,6.25-5.33,10.55-6,4.9-.78,8.88,2.64,9.9,7.57C192,139.57,192,150.65,189.17,153.93Z"/><path class="cls-24" d="M169.9,163.24h0a78.7,78.7,0,0,1-10.34-.73l-.17,0,0-.17c1.33-6.51,4.62-37.36,4.65-37.67v-.11l18.73-4.87.06,0c.41.31,10.12,7.61,10.57,9.5,0,.1,2.92,10.82-.17,25.75v0l0,0C188.55,160.48,180.7,163.24,169.9,163.24Zm-10.12-1a78.45,78.45,0,0,0,10.12.7c10.68,0,18.44-2.7,23.06-8,3.06-14.82.19-25.45.16-25.56-.35-1.47-7.55-7.14-10.38-9.27l-18.36,4.77C164.16,126.84,161.09,155.55,159.78,162.21Z"/><path class="cls-23" d="M166.26,128.38s-10.77-9.66-12.49-11.1c0,0-7.42,3.9-9.43,5.13,0,0-7.78,28.55-9.15,31.35,3.39,4.65,16.3,9.52,24.39,8.59C166.9,151,166.26,128.38,166.26,128.38Zm-7.63,26.71c-4.6,3.94-17.42-.65-16.55-5.08.77-5.64,4.87-23,6.07-24.58.77-1.71,3.07-2.69,4.82-3.17,3.22-.77,9.67,3.86,10.5,7.71C165.11,139.16,162.77,149.75,158.63,155.09Z"/><path class="cls-24" d="M157.45,162.63h0c-7.92,0-19.23-4.43-22.39-8.77l-.06-.08,0-.09c1.35-2.76,9.06-31,9.14-31.32l0-.07.05,0c2-1.22,9.37-5.1,9.45-5.13l.09-.06.09.07c1.7,1.43,12.38,11,12.49,11.11l0,.05v.07c0,.23.57,22.8-6.7,34.06l0,.07h-.08A18.21,18.21,0,0,1,157.45,162.63Zm-22.07-8.88c3.2,4.25,14.28,8.55,22.07,8.55h0a18.83,18.83,0,0,0,2-.1c7-10.89,6.63-32.34,6.6-33.74-.8-.73-10.47-9.41-12.34-11-.87.46-7.34,3.86-9.27,5C144,124.35,136.83,150.55,135.38,153.75Z"/><path class="cls-23" d="M145.36,124.67s-11-7.14-13.29-7.39c0,0-13.1,16.57-15.45,19.68-.52,9.15,9,16.15,18.57,16.8C143.22,146.58,145.69,129.15,145.36,124.67Zm-9,22.42c-5.86,4.18-16.4-5.08-14.53-10.5,1.31-3.8,7.67-10.48,10.72-15.19,3-.34,8.17,3,10,5.18C143.64,128.56,141.6,143.35,136.35,147.09Z"/><path class="cls-24" d="M135.25,153.93h-.07c-9.47-.66-19.26-7.63-18.73-17v0l0,0c2.32-3.07,15.32-19.52,15.45-19.68l.06-.07h.09c2.27.25,12.91,7.11,13.36,7.41l.07,0v.08c.33,4.55-2.12,22-10.23,29.24ZM116.78,137c-.48,9.1,9.08,15.9,18.35,16.58,7.94-7.17,10.37-24.22,10.07-28.84-.92-.6-10.78-6.92-13.06-7.3C131.19,118.66,119.1,134,116.78,137Z"/><path class="cls-23" d="M125.26,103.06s-21.41,12.84-22.57,13.67c-1.17,5.69,3.18,14.61,13.93,20.23,8.6-4,15.45-19.68,15.45-19.68C133,115,127.07,105.38,125.26,103.06Zm4.45,15.25c-2,4.92-5.88,10.91-10.89,13.36-5.33,2.61-13.83-10.42-11-13.87,1-1.21,4.64-3.15,7.94-5.41,2.35-1.6,6.14-3.22,8.33-4.46C127.88,109.65,130.09,116,129.71,118.31Z"/><path class="cls-24" d="M116.61,137.14l-.07,0c-10.79-5.65-15.22-14.54-14-20.41v-.07l0,0c1.16-.81,21.71-13.15,22.59-13.67l.12-.08.09.12c1.58,2,7.78,11.88,6.83,14.38-.07.16-7,15.84-15.54,19.77Zm-13.77-20.31c-1.14,5.73,3.22,14.4,13.78,20,8.42-3.93,15.23-19.41,15.3-19.56.8-2.1-4.6-11.18-6.7-13.94C123.48,104.32,104.39,115.78,102.84,116.83Z"/><path class="cls-25" d="M96.79,93.82c2.93-.3,5.55,2.52,8.55.33l.07-.17c-5.62.49-7.18-2.67-8.86-1.81-.37.19-.75,1.07-1,2.41A2.34,2.34,0,0,1,96.79,93.82Z"/><path class="cls-23" d="M112.71,101.28c2,2.46,2.79,4,1.15,6.65a9,9,0,0,1-10.67,2.56c-4.88-2.38-6.91-8.58-7.85-14.94-.8,5.26-.1,15.35,7.18,21,3.54.17,14.29-5.6,16.83-8.61Z"/><path class="cls-24" d="M102.67,116.71h-.21l0,0c-6.36-4.93-8-13.51-7.4-19.9.24-2.51.82-4.42,1.45-4.74a1.53,1.53,0,0,1,.69-.17,4.41,4.41,0,0,1,1.81.63,10.75,10.75,0,0,0,5.27,1.38c.37,0,.76,0,1.15-.05h.08l14.11,14.11-.1.11C117,111,106.48,116.71,102.67,116.71Zm-.09-.33h.09c3.61,0,13.86-5.54,16.46-8.44L105.34,94.15c-.37,0-.74,0-1.1,0a11.14,11.14,0,0,1-5.42-1.41c-.93-.47-1.6-.78-2.2-.47-.43.22-1,1.87-1.27,4.48C94.76,103.09,96.36,111.52,102.58,116.38Z"/><path class="cls-25" d="M128.41,82.44c-7.13-1.21-19,5.7-23,11.54,6.69-4.85,15.4-9.5,23.09-11.39Z"/><path class="cls-23" d="M135.57,93.65c-.85-1.33-4.39-6.83-6.07-9.46.5,1.67,2.39,7.92,1.79,9.46-.86,2.21-7.15,10.7-11.94,9.95-3.69-.58-13-8.93-13.68-9.3,1.35,1.64,7.64,9.12,13.68,13.63,1.81-.66,6.49-3,6.49-3C127.64,103.77,135.84,95,135.57,93.65Z"/><path class="cls-24" d="M119.33,108.11l-.07,0c-6.75-5-13.91-13.89-14-14L105.2,94l.07-.1c3.6-5.33,13.9-11.76,21.29-11.76a11.16,11.16,0,0,1,1.87.15h.08l7.22,11.33c.31,1.47-8.08,10.34-9.81,11.42-.06,0-4.72,2.39-6.51,3ZM105.61,94c.79,1,7.45,9,13.77,13.77,1.83-.68,6.33-3,6.38-3,2.06-1.28,9.77-9.82,9.65-11l-7.1-11.12a10.88,10.88,0,0,0-1.75-.14C119.31,82.45,109.23,88.73,105.61,94Z"/><path class="cls-25" d="M166.72,80.72c0-.06,0-.47,0-.47-5.25-3.28-19.47-10.5-38.28,2.19l.12.19C140.77,76.86,152.58,74.48,166.72,80.72Z"/><path class="cls-23" d="M167.26,83.65c-1.68,3.76-10,10.61-13.61,11-4.69.49-15.34-1.14-22.4-7.73l4.32,6.75c2.63,1.81,17.91,7.71,17.91,7.71,2.17-1.36,14.69-10.51,14.69-10.51C168.11,89.41,167.65,86.19,167.26,83.65Z"/><path class="cls-24" d="M153.5,101.55l-.07,0c-.63-.24-15.34-5.94-18-7.73l0-.05-7.25-11.35.13-.09c7.14-4.81,14.34-7.25,21.42-7.25a31.84,31.84,0,0,1,17,5l.12-.06.06.21c.22,1.37,1.35,8.29,1.45,10.63v.09l-.08,0c-.12.09-12.55,9.17-14.69,10.52Zm-17.81-8c2.56,1.72,16.6,7.18,17.78,7.64C155.69,99.75,167,91.51,168,90.77c-.12-2.35-1.17-8.85-1.43-10.4a31.47,31.47,0,0,0-16.84-5c-7,0-14.06,2.39-21.1,7.11Z"/><path class="cls-25" d="M191.5,88.28c-.1-.36-.16-.61-.18-.7h0c-5.83-8.2-19.15-10.28-24.62-7.33v.39C176,79.36,185.44,82,191.5,88.28Z"/><path class="cls-23" d="M184.14,96.85C181.19,96.6,173,91,170.36,89.11a11.6,11.6,0,0,1-3.58-4.62l.12,5.83c1.38,1.14,17,12.4,17,12.4,1.17-.9,9.34-7.56,9.34-7.56-.17-.59-1.15-4.36-1.53-5.85A7,7,0,0,1,184.14,96.85Z"/><path class="cls-24" d="M184,102.88h-.06c-.23,0-17-12.31-17.14-12.44l-.06,0-.21-10.24.09,0a13.41,13.41,0,0,1,6.3-1.3c6.13,0,14.21,2.66,18.47,8.61h.05l0,.12c0,.06,1.58,6.23,2,7.57l0,.11-.08.06c-.08.07-8.18,6.68-9.34,7.57ZM167.07,90.24c1.6,1.29,15.55,11.33,16.87,12.28,1.36-1.07,8.31-6.74,9.15-7.42-.41-1.48-1.77-6.85-1.92-7.43C187,81.78,179,79.14,172.92,79.14a13.34,13.34,0,0,0-6.06,1.21Z"/><path class="cls-25" d="M209,98.53c-2.67-5.39-8-10.82-17.68-11,0,0,.06.31.08.38C198.32,89.17,204.52,93.31,209,98.53Z"/><path class="cls-23" d="M209.06,98.69c0,1.71-.42,3.11-1.6,3.81-6.88-7.54-12.53-7-16-14.19.45,1.82,1.56,6.27,1.78,6.81,2.46,2.38,13.6,10.26,13.6,10.26l4.28,0A23.91,23.91,0,0,0,209.06,98.69Z"/><path class="cls-24" d="M206.83,105.55l0,0c-.11-.08-11.19-7.92-13.63-10.28l0-.06c-.27-.69-1.9-7.31-2-7.6l-.05-.2h.21c12.79.22,18.78,9.81,20,17.94l0,.19ZM193.42,95c2.39,2.29,12.76,9.65,13.52,10.19l4,0c-.41-2.47-3.54-17.07-19.45-17.48C191.8,88.85,193.15,94.29,193.42,95Z"/><path class="cls-23" d="M207,105.52c-3.09-4.77-13.67-10.36-13.67-10.36s-8.32,6.92-9.74,7.84c.06,1.81-.82,17.84-.82,17.84,1.37.93,8.56,6.31,10.56,8.42,2.05-1.31,8.78-5.66,9.68-6.89C204.93,118.88,208.41,109,207,105.52Zm-1.59,4.16c0,3-4.21,12.69-10.77,13.67-3.28.66-6.56-2-7.55-4.92-1.77-6.2-1.43-12.88-.38-14.55,1.91-3.06,5.2-5.95,7.88-5.25C196.65,99.18,205.31,105.49,205.36,109.68Z"/><path class="cls-24" d="M193.25,129.47l-.09-.1c-2-2.1-9.14-7.45-10.53-8.4l-.08,0v-.09c0-.16.87-16,.82-17.82v-.09l.08,0c1.4-.92,9.64-7.77,9.72-7.84l.09-.07.09.05c.44.23,10.66,5.67,13.74,10.42,1.55,3.73-2.14,13.74-4,17-.89,1.22-7.11,5.26-9.73,7Zm-10.36-8.72a119.3,119.3,0,0,1,10.41,8.3c2.17-1.39,8.67-5.61,9.53-6.78,1.91-3.39,5.41-13.23,4-16.69-2.86-4.41-12.43-9.65-13.5-10.23-.92.76-8.06,6.7-9.59,7.74C183.73,105.19,183,119.34,182.89,120.75Z"/><path class="cls-23" d="M184.2,103.11c-5.09-8.09-17.3-12.79-17.3-12.79L153.48,100v18.3l12.78,10.11s12.19-2.79,16.79-6.94C184.74,114.27,184.7,105.79,184.2,103.11Zm-5.69,16.56c-3,2.47-7.74,5-11.59,4.47-4.2-.53-7.53-4.27-9.64-7-1.61-2.11-2.28-13.5-.6-15.56,1.49-1.83,8.84-7.51,10.56-7.9,1.94-.44,12.48,7.21,14.11,10.18C182.75,106.36,181,117.64,178.51,119.67Z"/><path class="cls-24" d="M166.22,128.56l-12.9-10.22V99.89l13.56-9.76.08,0c.13,0,12.32,4.82,17.38,12.87l0,0c.51,2.71.56,11.16-1.15,18.4v0l0,0c-4.58,4.14-16.74,7-16.87,7Zm-12.57-10.37,12.65,10c1-.25,12.25-3,16.6-6.86,1.68-7.15,1.64-15.47,1.14-18.17-4.79-7.6-16-12.25-17.11-12.68l-13.28,9.55Z"/><path class="cls-23" d="M135.57,93.65c-4.36,2.3-9.73,11.25-9.73,11.25s4.75,7.35,6.23,12.38c4.19,3.28,12.47,7.47,13.29,7.39,2.63-2.47,8.12-6.4,8.12-6.4V100S142.9,94.06,135.57,93.65Zm14.8,23.06c-2.9,3.89-10,3.12-12.75,1.6-3.88-2.16-7-9.45-7.3-12.09-.43-3.72,3.39-8.31,6.26-9.38,2.27-.84,9.79,1.79,13.34,4.52C151.23,102.38,151.87,114.69,150.37,116.71Z"/><path class="cls-24" d="M145.34,124.83c-1.05,0-9.27-4.21-13.37-7.42l0,0,0,0c-1.45-5-6.17-12.27-6.21-12.34l-.06-.09,0-.09c.23-.37,5.45-9,9.8-11.3l0,0h0c7.28.41,17.88,6.28,18,6.34l.09,0v18.48l-.07.05c-.05,0-5.52,4-8.11,6.38l0,0Zm-13.13-7.65c4.13,3.22,12,7.22,13.09,7.32,2.46-2.29,7.38-5.86,8-6.32V100.07c-1-.56-10.85-5.85-17.71-6.25-4,2.16-9,10.15-9.58,11.07C126.57,105.74,130.82,112.48,132.21,117.18Z"/><path class="cls-6" d="M80.22,173c-2,.5-4.76,6.23-4,7.75s9.34.34,9.94-1.39S84.26,171.94,80.22,173Z"/><path class="cls-7" d="M81,172.83a3.7,3.7,0,0,1,1.71,5c-1.06,1.86-3.62,3.11-5.11,3.49,2.64.38,8.1-.65,8.57-2C86.7,177.69,84.57,172.64,81,172.83Z"/><path class="cls-8" d="M78.84,181.56c-1.1,0-2.47-.13-2.79-.79-.41-.84.14-2.63.8-4,.76-1.63,2.09-3.64,3.33-4,1.78-.45,3.55.35,4.84,2.17,1.06,1.48,1.62,3.42,1.28,4.4C85.84,180.69,81.5,181.56,78.84,181.56ZM81.17,173a3.56,3.56,0,0,0-.91.12c-1.06.26-2.33,2.08-3.12,3.77s-1.09,3.15-.79,3.75c.18.38,1.11.61,2.49.61,2.85,0,6.78-.94,7.15-2,.26-.77-.13-2.56-1.24-4.11A4.62,4.62,0,0,0,81.17,173Z"/><path class="cls-19" d="M180.3,166.67c.24,1.88-1.92,3.78-6.3,4.36s-11.24.62-11.49-1.25c-.1-.77-.06-2.94,1.27-3.85,1.88-1.29,7.64-.94,10.22-1.28C178.38,164.08,180.05,164.8,180.3,166.67Z"/><path class="cls-19" d="M228,149.13c.52.91-.76,2.62-2.85,3.81s-4.22,1.41-4.74.5.76-2.63,2.85-3.82S227.48,148.21,228,149.13Z"/><path class="cls-19" d="M217.31,154.85c.34,1-1.23,2.43-3.51,3.21s-4.4.61-4.74-.39,1.23-2.44,3.51-3.22S217,153.85,217.31,154.85Z"/></svg>