<svg id="Layer_1" data-name="Layer 1" xmlns="http://www.w3.org/2000/svg" viewBox="0 0 256 280"><defs><style>.cls-1,.cls-11{fill:#f58d3c;}.cls-1,.cls-13{stroke:#96400f;}.cls-1,.cls-13,.cls-4{stroke-miterlimit:10;}.cls-2{fill:#ffd1ad;}.cls-3{opacity:0.3;}.cls-4{fill:#d17127;stroke:#994811;}.cls-5{fill:#96400f;}.cls-6{fill:#c66422;}.cls-7{fill:#fff;}.cls-8{fill:#210e04;}.cls-9{fill:#231007;}.cls-10{fill:#301209;}.cls-12{fill:#4f180b;}.cls-13{fill:none;}</style></defs><path class="cls-1" d="M251.5,215.44a3.71,3.71,0,0,1-.78,2c-13.05-11.86-37.95-9.49-73.53,14.23-27.93,18.62-49.5,2.36-57.49-5.5a39.64,39.64,0,0,1-3.35-3.66l18.74-35.91c22.53,33.8,67-1.77,94.87,10.68C249.39,206,251.82,212.37,251.5,215.44Z"/><path class="cls-2" d="M251.5,215.44a3.71,3.71,0,0,1-.78,2c-13.05-11.86-37.95-9.49-73.53,14.23-27.93,18.62-49.5,2.36-57.49-5.5l4.59-10.46s21.54,17.76,40.44,10.58C183.18,219.32,228,191.4,251.5,215.44Z"/><path class="cls-1" d="M68.9,133.38s-12.57,6.71-18.53,10.4c0,0-.66,1.51-4.73-3s-11-14.19-11-14.19.19-6.43.57-9.36c0,0,2-4.07.19-4.16s-3.78-.28-5.39,4l-1.42,1.42s-4.07-3.5-6.62-5.86-5.29-.85-3.5,2.46l.85,1.22s-3.87-3-6.52-.85,4,5.87,4,5.87l-5,.19s-2.46,1.22,2.65,4.53,13.9,3.31,13.9,3.31,4.25,19.2,14.56,28.18c0,0,11.25,3.12,20.33-1.23"/><path class="cls-1" d="M29.09,118.44s-4.44.38-2.93,4.82"/><path class="cls-1" d="M49.52,143.69a7.45,7.45,0,0,1,1.32,7.94"/><ellipse class="cls-3" cx="91.04" cy="262.28" rx="86.57" ry="15.05"/><path class="cls-4" d="M62.81,173.2s-7.09,31.27,18.55,59.4c0,0,12.82,13.15,5.49,17.48S48.11,247,38.79,247.53s-13,13.21-11.53,16.87a5.29,5.29,0,0,0,5,1.5,11.87,11.87,0,0,0,9.66.12c1.16-.46,42.61-6.78,52.1-8.78s4.16-9.65,2.33-14.32a37.56,37.56,0,0,1,.81-32c7.35-15.48,8.51-35.12-1.47-44.78"/><path class="cls-5" d="M32.55,266a14.67,14.67,0,0,1-.3-6.19,12.42,12.42,0,0,1,.93-3,9.52,9.52,0,0,1,1.76-2.67,11.52,11.52,0,0,1,5.57-3,17.51,17.51,0,0,1,6.24-.33v.1a35.56,35.56,0,0,0-6,1.18,13.53,13.53,0,0,0-5.25,2.66,8.54,8.54,0,0,0-1.74,2.37,11.43,11.43,0,0,0-1,2.83,14.23,14.23,0,0,0-.1,6.06Z"/><path class="cls-1" d="M115.06,235.4a26.37,26.37,0,0,1-2.65-1.72c-19.37,2.2-33.88-9-33.88-9-10.12-7.1-15.05-18.56-17-31h0c-4-25.12,4.11-54.21,5.89-59.41,2.66-7.77,7.14-48.16,7.33-48.64s.29-.7.44-1c7.53-17.34,23.42-4.53,23.42-4.53s-.47,7.12-1.13,29.48,7.46,31.61,27,48.48,15.12,40.42,15.12,40.42c2,4.9-15.65,7.86-15.65,7.86"/><path class="cls-1" d="M250.08,202.26a1.82,1.82,0,0,1,.87.37"/><path class="cls-2" d="M91.75,203.08c-4,2.94-20.12,9.87-29.78-9.4h0c-4-25.12,4.11-54.21,5.9-59.41,2.66-7.77,7.13-48.16,7.32-48.64s.29-.7.44-1c6.49-2,15.91-3.26,14,6.91-2.88,15.25-15,55-10.6,75.62S96.33,199.75,91.75,203.08Z"/><path class="cls-1" d="M97.19,182.27s-4.66,30.3,21,58.43c0,0,12.81,13.15,5.49,17.48S84,254.52,74.72,255,62.56,268.83,64.06,272.5a5.3,5.3,0,0,0,5,1.5,11.89,11.89,0,0,0,9.65.12C79.88,273.66,86,274,90.2,272s31.13-4.66,40.62-6.66,4.16-9.66,2.33-14.32a37.58,37.58,0,0,1,.8-32c7.36-15.48,8.52-35.13-1.47-44.78"/><path class="cls-5" d="M78.66,274.13a21,21,0,0,1-.14-5.82,14.42,14.42,0,0,1,.64-2.88,10.25,10.25,0,0,1,1.31-2.68,7.79,7.79,0,0,1,2.14-2.18,7.09,7.09,0,0,1,2.86-1.09,10.09,10.09,0,0,1,5.83.9l0,.1a14.91,14.91,0,0,0-5.61,0,7.45,7.45,0,0,0-4.53,2.75A11.86,11.86,0,0,0,79,268.39a21.12,21.12,0,0,0-.25,5.73Z"/><path class="cls-5" d="M69.36,274.12a36.69,36.69,0,0,1,.31-6.19,21.68,21.68,0,0,1,1.67-6,9.07,9.07,0,0,1,4.39-4.6A9.71,9.71,0,0,1,82,256.8v.1a12.84,12.84,0,0,0-5.8,1.32,9.59,9.59,0,0,0-4.11,4,21.08,21.08,0,0,0-1.9,5.76,36.65,36.65,0,0,0-.7,6.1Z"/><path class="cls-1" d="M72.07,52.29A84,84,0,0,1,69.5,38.2c-1.12-9.55-2-14.71-9.45-21.75s-9-10.75-9-10.75-4.32,8.68-1.84,24.24S64,55.73,64,55.73"/><path class="cls-6" d="M67.1,50.14S69.9,30.37,55,17.3C55,17.3,56.69,46.36,67.1,50.14Z"/><path class="cls-1" d="M92.52,98a30.12,30.12,0,0,1-8.14,4.51s-4.54,1.56-11.22,8-17.91,10.94-21.89-6.4c0,0-12.8,1-12.09-14.36,0,0-3.55-4.12,2.42-6.39s12.22-4,12.22-4-3.69-10.52,4.55-23.17S87.51,49.9,87.51,49.9,102.58,52.61,99,85.72a12.38,12.38,0,0,1-1.32,5.87"/><ellipse class="cls-7" cx="78.84" cy="71.51" rx="7.53" ry="6.68" transform="matrix(0.15, -0.99, 0.99, 0.15, -3.7, 138.72)"/><path class="cls-8" d="M85.49,72.52a8.58,8.58,0,0,1-2.51,5,6.71,6.71,0,0,1-5.34,2,6.93,6.93,0,0,1-5-3.14,8.63,8.63,0,0,1,1.71-11.2A6.94,6.94,0,0,1,80,63.59a6.73,6.73,0,0,1,4.52,3.46A8.55,8.55,0,0,1,85.49,72.52Zm-.09,0a8,8,0,0,0-1-5.34,6.09,6.09,0,0,0-9.49-1.43,8.16,8.16,0,0,0-1.53,10.1,6.09,6.09,0,0,0,9.49,1.45A8.07,8.07,0,0,0,85.4,72.51Z"/><ellipse class="cls-9" cx="80.69" cy="73.53" rx="4.73" ry="4.19" transform="translate(-4.12 142.26) rotate(-81.36)"/><ellipse class="cls-7" cx="83.29" cy="71.71" rx="1.08" ry="0.96" transform="translate(-0.11 143.3) rotate(-81.36)"/><ellipse class="cls-7" cx="59.97" cy="70.48" rx="7.13" ry="5.8" transform="translate(-18.72 119.19) rotate(-81.36)"/><path class="cls-8" d="M65.75,71.36A8.79,8.79,0,0,1,63.62,76a5.79,5.79,0,0,1-4.79,2,6,6,0,0,1-4.52-3.08,8.63,8.63,0,0,1,1.58-10.35A6,6,0,0,1,61.11,63a5.75,5.75,0,0,1,4,3.36A8.73,8.73,0,0,1,65.75,71.36Zm-.1,0a8.07,8.07,0,0,0-.77-4.91,5,5,0,0,0-8.38-1.26,8.28,8.28,0,0,0-1.42,9.33,5,5,0,0,0,8.38,1.29A8.06,8.06,0,0,0,65.65,71.35Z"/><ellipse class="cls-9" cx="61.55" cy="72.36" rx="4.47" ry="3.64" transform="translate(-19.24 122.35) rotate(-81.36)"/><ellipse class="cls-7" cx="63.84" cy="70.62" rx="1.02" ry="0.83" transform="translate(-15.57 123.13) rotate(-81.36)"/><path class="cls-10" d="M75.92,56.68s3.93-.92,8.29,3c0,0,.58,1.93-1.34,2s-1.34-1.84-7-2.76C75.92,58.94,72.9,58.19,75.92,56.68Z"/><path class="cls-10" d="M56.35,58.9s2.5-2.36,7.39-1.34c0,0,1.26,1.17-.13,2.06s-1.77-.78-6.29,1C57.32,60.57,54.78,61.3,56.35,58.9Z"/><path class="cls-11" d="M52.73,104.15s-5.3-.28-7.86-6.91"/><path class="cls-5" d="M52.73,104.2a5.06,5.06,0,0,1-2.93-.2,7.59,7.59,0,0,1-2.56-1.53A8.08,8.08,0,0,1,45,98.7a8.88,8.88,0,0,1-.19-1.44l.1,0c.19.42.36.84.56,1.25s.42.81.69,1.18a11.29,11.29,0,0,0,1.75,2.08,8.81,8.81,0,0,0,4.82,2.37Z"/><path class="cls-10" d="M79.74,93.54s3.32,1.42,2.94,4C82.68,97.52,84.38,94.2,79.74,93.54Z"/><path class="cls-12" d="M53.49,104.82s.57,7.67,7.49,6.63S81.64,95.91,81.64,95.91,65.34,109.56,53.49,104.82Z"/><path class="cls-1" d="M82.49,54s1.7-5,3-15.54,2.37-16.21,11.18-24S107.32,2.67,107.32,2.67s5.11,9.57,2.18,26.72S92.06,57.82,92.06,57.82"/><path class="cls-6" d="M88.36,51.66s-3.31-21.8,14.31-36.2C102.67,15.46,100.68,47.49,88.36,51.66Z"/><path class="cls-13" d="M39.37,88s-3.12,15.26,11.47,15.73A20.27,20.27,0,0,0,70.17,103c10.33-5.88,11.66-7.68,11.66-7.68"/><path class="cls-10" d="M38.24,87.38s-.29-2.27,6.44-1.7,7,2,4.74,4.83-4.83,5.68-4.83,5.68S37.48,93.92,38.24,87.38Z"/><path class="cls-1" d="M46.48,81.7a118.28,118.28,0,0,1,19.14-4.93"/><path class="cls-1" d="M81.07,141.54s1.44,16.94-1.08,20.18S62.15,165,48.45,165c0,0-2.16-.55-7.57,5.58S31,178.3,36.2,181.36c0,0,.72,4.51,4.86,3.25,0,0,2.35,3.78,4.69-.54l-.36-3.43s5.68.06,6.58-8.23c0,0,26,7.15,39,2.47,0,0,7-6.49,6.85-27"/><path class="cls-1" d="M77.28,163.16s4-2.16,7.57-.54"/><path class="cls-1" d="M41.06,184.61s-1.8-1.44-.9-4.69"/><path class="cls-1" d="M36.92,182.81s-1.62-2.35.72-5.05"/></svg>