<svg id="Layer_1" data-name="Layer 1" xmlns="http://www.w3.org/2000/svg" xmlns:xlink="http://www.w3.org/1999/xlink" viewBox="0 0 310 360"><defs><style>.cls-1{fill:#323232;opacity:0.4;}.cls-17,.cls-2,.cls-6{fill:#8f6f73;}.cls-17,.cls-2,.cls-3,.cls-32,.cls-35{stroke:#262626;}.cls-10,.cls-12,.cls-13,.cls-16,.cls-17,.cls-2,.cls-21,.cls-22,.cls-29,.cls-3,.cls-31,.cls-32,.cls-33,.cls-34,.cls-35,.cls-36,.cls-6,.cls-8,.cls-9{stroke-miterlimit:10;}.cls-10,.cls-12,.cls-13,.cls-16,.cls-2,.cls-21,.cls-22,.cls-3,.cls-31,.cls-35,.cls-36,.cls-6,.cls-9{stroke-width:0.58px;}.cls-3,.cls-7{fill:#f5f2ef;}.cls-4{fill:#bfb19d;}.cls-36,.cls-5{fill:#907175;}.cls-22,.cls-29,.cls-6{stroke:#232323;}.cls-16,.cls-8,.cls-9{fill:#f38590;}.cls-16,.cls-8{stroke:#712313;}.cls-8{stroke-width:0.55px;}.cls-9{stroke:#bc554a;}.cls-10,.cls-13{stroke:#302f2f;}.cls-10{fill:url(#linear-gradient);}.cls-11{fill:#ee3e3d;}.cls-12{fill:#f28087;stroke:#922f1e;}.cls-13,.cls-21,.cls-22,.cls-28,.cls-29,.cls-31,.cls-32,.cls-33,.cls-34,.cls-35{fill:none;}.cls-14{fill:#302f2f;}.cls-15{fill:#795961;}.cls-17,.cls-29{stroke-width:0.39px;}.cls-18{fill:#262626;}.cls-19{fill:#75555c;}.cls-20{fill:#3d2d2b;}.cls-21{stroke:#1b1c1c;}.cls-23{fill:#74545b;}.cls-24{fill:#232323;}.cls-25{fill:#3a2528;}.cls-26{fill:#593f44;}.cls-27{fill:#fff;}.cls-30{fill:#282827;}.cls-31,.cls-33,.cls-36{stroke:#282827;}.cls-32,.cls-33,.cls-34{stroke-width:0.78px;}.cls-34{stroke:#30302f;}</style><linearGradient id="linear-gradient" x1="-74.65" y1="271.25" x2="-34.67" y2="271.25" gradientTransform="translate(116.73 -144.73) rotate(-3.54)" gradientUnits="userSpaceOnUse"><stop offset="0" stop-color="#4e1211"/><stop offset="0.31" stop-color="#471312"/><stop offset="0.69" stop-color="#200d0c"/><stop offset="0.98" stop-color="#680c0c"/></linearGradient></defs><ellipse class="cls-1" cx="130.7" cy="327.21" rx="114.04" ry="30.19"/><path class="cls-2" d="M35.4,127.75q.36,3.56.66,7.24c.21,2.72.4,5.4.55,8l7.75,3a32.81,32.81,0,0,1-3,2.93c-2,1.79-3.17,2.35-4.31,3.33a13.46,13.46,0,0,0-4,6.69l2.1.18a135.41,135.41,0,0,0-3.25,30.3c.22,35.61,14.91,51.46,17.3,86.89.92,13.62,1.66,38.29-3,42.16C43,319.93,34,322,38,334.66c1.28,2,2.2,2,4.22,2.94,5.16,6.44,12.52.92,12.52.92s3.87,4.23,14,0C71.48,335.21,75,331,75.9,317.9c0,0,2-26,1.86-27.08l-.15-1.09a45.23,45.23,0,0,0,3,4.82A49,49,0,0,0,91.89,306c-.59,2.6-1.35,5.41-2.34,8.38-.81,2.41-1.67,4.64-2.54,6.68a14.73,14.73,0,0,0-9.33,4.77c-4.16,4.9-4.37,12.81-2,14.07.82.43,2.77.44,8-4.8,3,5,9.45,3.87,11,3.1,5,1.7,11,2.16,14.25-1.55a27.54,27.54,0,0,0,4.48-6.66s.16,3.1,5.27,4.18c1.86,5.42,8.36,3.87,11.14,2.79,10.22,2.94,16.72,0,20.28-4.18,0,0,17,1.86,28.64-5.11,6.81-4.33,8.82-7.43,8.82-7.43s6.66,6.81,32.35,5.88l-7.27-2.94s29.25,3.1,32.5,3.1l-7.89-4.18s28,5,31.73,7.12l-3.09-6a24.28,24.28,0,0,0,14.86,7.89l9.75,1.4-6.66-4.65s13.16,5,25.7-.62c0,0-2.63-10.21-10.53-13.93,0,0,5.27.16,6.19,1.24s-11.76-20.12-33.74-19l8.82-.46s-8.2-8.52-25.69-5.88-35.61,7.12-36.84,7.27-15.95-.77-20.13-2.94c0,0,.47-14.4-.46-21.67s-3.41-22-11.46-33.75-24.92-36.37-24.92-36.37l-18.26-26.94-6.82-11a53,53,0,0,0-4.06-8.85A53.82,53.82,0,0,0,123,143.59Z"/><path class="cls-3" d="M156.19,254.68a35.51,35.51,0,0,0-11.45,5.56c-3.09,2.38-6,5.66-6.52,5.24-.31-.25.59-1.58.13-2s-2.43,1.17-3,.69c-.85-.64,1.92-4.2,2.42-9.69.19-2.11.29-3.17,0-4-2-5.45-15.37-2-24.67-7-4.8-2.57-10.4-8.39-13.16-23,7.07-11.5,12.38-34.72,12.38-34.72l1.55,4.42.89-.89c14.82-25.88,4.2-37.16,4.2-37.16s-7.18-.81-9.4.58C78.84,165.31,75.05,150,72.87,149.9s-17.49-6.24-17.49-6.24l-2.12,17.28,3.72-2-2.13,16.37,5.58-3.76s-9.3,14.39,1.6,32.2,18.6,26.58,21,35.62,1.33,12.23,1.33,12.23l-3.73-5.05,1.6,6.11c1.59,6.11.53,18.87.53,18.87s-3.72-7.18-4-8S82.23,284,82.23,284l-3.46-5.58L80.35,292a18.94,18.94,0,0,0,2,4.68,20.55,20.55,0,0,0,6.78,6.69c15.68,10.09,20.72,18.63,30,17.28,4.48-.66,4.3-2.79,11.87-6.07a53,53,0,0,1,20.15-4.28h1.33c-2.24-2-8.67-8.44-9.25-18a23.59,23.59,0,0,1,.51-6.46l-3.72,9.1a19.27,19.27,0,0,1-.91-8.6,64.3,64.3,0,0,1,2-8c.29-1,.54-1.89.72-2.46L140.58,277q-2.28,1.9-4.58,3.77a16.88,16.88,0,0,1,1.73-8.21,19.87,19.87,0,0,1,3.62-4.88c3.11-3.28,6-4.82,5.9-5s-6.63,3.87-7.18,3.16,4.21-6.27,11-9.41A19.21,19.21,0,0,1,156.19,254.68Z"/><path class="cls-4" d="M53.49,153l3.18.31a28.59,28.59,0,0,0,36.85,4.1c1.57-.37,2.85-.71,3.74-1s2-.6,3.94-1.2l2.88-.91-1-2.11-9.41.58s-22.12,13.89-36.07-2.1l-3.6-1.4Z"/><path class="cls-5" d="M87,321.05c-1.79.53-8.55,2.78-11.28,9.08-.16.38-2.89,6.87,0,9.76.59.6,2.17,1.78,3.63,1.41C80.5,341,81,339.82,82,339.89A2.39,2.39,0,0,1,83.64,341l1.31.4c1.09.33,2.17.63,3.22.91a12.8,12.8,0,0,0,4.33,2,12.64,12.64,0,0,0,5.14.2,9.58,9.58,0,0,0,2.42-.1,11.38,11.38,0,0,0,3.62-1.41c7.57-4.69,14.68-31.15,14.68-31.15,1.33-4.95,3.42-12.55,6.19-22q1.19-8.44,2.36-16.89l2.84,6.58,2-20.34s2.57,7.78,2.57,6.88,2.57-23.92,2.57-23.92l2.28,5.68s3.42-15,1.42-26.92-1.71-9-1.71-9l-34.93-3c-7.77,12.48-9.67,22.74-10,29.82-.08,1.75.43,9.29,1.45,24.31.95,13.84,1.09,15,.89,18.35,0,0,0,.85-.13,1.72A148.71,148.71,0,0,1,92,306.58,130.29,130.29,0,0,1,87,321.05Z"/><path class="cls-2" d="M15.81,72s-1.15-18.59-2.5-24-1.75-15.13,1.08-28.51S17.83-.45,31.52,4q9.14,5.73,18.67,12.25,9.21,6.3,17.62,12.56C36.52,54.32,26.26,64.2,24.88,67.16c-.69,1.48-2.23,3.14-5.3,6.46-.36.38-1,1.11-1.84,1C16.48,74.46,15.9,72.3,15.81,72Z"/><path id="f" class="cls-6" d="M56.15,30.81c-.6.28-16.25,6.91-27.47,20.07-11,13.34-22.9,25.69-26.43,36.89S.39,105.41.39,105.41l6.53-7s-5.09,6.54-1.07,20.22l3.71-8.25s-3.78,7.2,5.61,19.08l1.34-9.16s2.92,9.74,6.1,13.34c0,0,4.56,10.33,34.73,17.68a25,25,0,0,0,12.44,7.55c13,3.18,23.33-6.07,24.3-7,1.59.06,18.88-.38,31.93-10.4,8.16-9.25,10.9-16.41,10.9-16.41s1.43,7.7.57,9.18c0,0,8.8-9.28,8.07-18.45v-.16s2.85,2.36,2.41,8.11c0,0,4-14.39,1-20.4a27.37,27.37,0,0,1,5.23,7.47s3.92-8.55-2-21.44S146.87,78,146.87,78s4.63-19.36,5.13-31,2.21-14.75-.64-27.29S147.79,5.68,131,11.17c-9,5.33-27.38,18.38-27.38,18.38L102,31.08S92.21,26.76,84,26.79,60.47,27.45,56.15,30.81Z"/><path class="cls-7" d="M19.61,123.39c.94-4.85,6.46-8.84,6.77-9.14C39.46,101.12,58,101.59,63,101.87c23,1.31,47.85-3.68,62.67,12,2.52,2.65,7.48,8,6.87,14.54-1.11,11.7-19.56,18.41-23.15,19.72a52.7,52.7,0,0,1-14.94,3.07l5.08-5.46a34,34,0,0,1-26.84,10.74l-13.56-6.78a80.68,80.68,0,0,1-17.26-4,69.63,69.63,0,0,1-12.52-6.28,17,17,0,0,1-4-3.3c-.87-1-2.08-2.71-2.07-2.72h0a13.49,13.49,0,0,1-1.54-1.8,11.18,11.18,0,0,1-2.2-4.95A10.86,10.86,0,0,1,19.61,123.39Z"/><path class="cls-8" d="M50.48,33.64A110.78,110.78,0,0,0,38.64,18.13a110.55,110.55,0,0,0-14.13-13,56.2,56.2,0,0,0-4,17.2,57.59,57.59,0,0,0,6.34,30.25,55.46,55.46,0,0,1,23.65-19Z"/><path class="cls-9" d="M80.18,117.37S71.1,112,67,105.93c-1.6-5.79,3-7.16,5.08-8.07S86.3,94.55,92,98.13c4.37,3,8.11,5.75,2.69,10.9S83,119.15,80.18,117.37Z"/><path class="cls-10" d="M58.48,122.47A19,19,0,0,0,63.61,124a17.24,17.24,0,0,0,7.49-.42,29.57,29.57,0,0,0,5-2.2c1.14-.58,1-.64,1.86-1a2.51,2.51,0,0,0,1.12-.68,2,2,0,0,0,.39-1.36,18.22,18.22,0,0,0,10.43,6.4,17.77,17.77,0,0,0,8.71-.48c-.49,2-2.46,8.87-9,13a19.45,19.45,0,0,1-7.43,2.81c-4.88.76-8.25.29-10.87-1s-4.14-3.32-7.11-7.29A66.69,66.69,0,0,1,58.48,122.47Z"/><path class="cls-11" d="M72.69,112s9,3.28,18.65-8.71L93,98.6a7.6,7.6,0,0,1,1.28.93c.1.09,2.27,2,2.56,4.27.26,2-1,3.48-2.8,5.63a28.45,28.45,0,0,1-9.4,7.08c-1,.52-1.91.92-2.53,1.18a23.81,23.81,0,0,1-6.21-3A24.29,24.29,0,0,1,72.69,112Z"/><path class="cls-12" d="M66.85,134s6.33-7.63,12.42-2.63c4.63-1.84,6.91-1.87,11.49,3.74C89.29,136.29,75.68,147.27,66.85,134Z"/><path class="cls-11" d="M87.53,131.61s-4.88,11.26-17.7,4.61c8,6.95,16,2.68,20-1C89.82,135.19,89.34,132.43,87.53,131.61Z"/><path class="cls-13" d="M48.58,112.25s9.32,20.7,30.54,7.43l.15-1.63s15.92,18.47,30.59-4"/><path class="cls-14" d="M44.72,112.49a7.59,7.59,0,0,0,4-1.35,13.24,13.24,0,0,0,1.65-1.36c.52-.5,1-1.06,1.5-1.62-.16.34-.34.67-.51,1s-.42.63-.66.92a7.36,7.36,0,0,1-1.66,1.54,6.24,6.24,0,0,1-2.1.91A4.4,4.4,0,0,1,44.72,112.49Z"/><path class="cls-14" d="M107.84,109.66a5,5,0,0,0,1.11,1.91,10.34,10.34,0,0,0,1.6,1.5,21.9,21.9,0,0,0,1.82,1.28c.64.4,1.28.81,1.93,1.24-.39-.07-.75-.19-1.13-.28s-.73-.27-1.09-.42-.7-.36-1-.54a11.11,11.11,0,0,1-1-.67,6.71,6.71,0,0,1-1.61-1.75A3.44,3.44,0,0,1,107.84,109.66Z"/><path class="cls-4" d="M41,145.4c-1.57-.79-3-1.59-4.34-2.38A13.17,13.17,0,0,0,41,145.4Z"/><path class="cls-4" d="M129.32,137c1.45-1.92,2.45-4.12,3.71-6.15a1.88,1.88,0,0,1,.73-.68c.33-.71.65-1.41.91-2.06-.07-.29-.15-.58-.23-.87a26.94,26.94,0,0,0-1.94-4.93,52.21,52.21,0,0,1-18.12,17,50.57,50.57,0,0,1-12,4.82l-.35-2.89c-27.78,21.51-43.35,8-49.25,2.16a14.28,14.28,0,0,1-10.91,2.17q-.45-.1-.87-.24a65.53,65.53,0,0,0,16.71,5.72,24.54,24.54,0,0,0,20.68,7.66,30.33,30.33,0,0,0,13.74-5.84,29.68,29.68,0,0,0,5-4.95l-2.72,3.72.56,0a2.41,2.41,0,0,1,.48-.08c.86,0,1.72-.08,2.58-.14a2,2,0,0,1,.68-.25,120.87,120.87,0,0,0,12.83-2.43,44.44,44.44,0,0,0,7.75-3.32,64.3,64.3,0,0,0,5.48-3.5A45.61,45.61,0,0,0,129.32,137Z"/><path class="cls-15" d="M131.74,122.65l5.4-11.84s2.65,4.1,2.35,5.61c0,0,2.88-8.51,2-11.77s1.87,2.45,1.87,2.45,1.89-10.5.5-14l2.53,1.05s-3.61-14.55-12-26.38-30.42-37.25-30.42-37.25,14.62,6.09,33.72,35.93a56.43,56.43,0,0,1,7.44,9.5c1.64,2.65,3.27,6.48,6.52,14.15,2.77,6.52,3.22,8,3.44,10A23.38,23.38,0,0,1,154,110.34a13.86,13.86,0,0,0-1.61-3.67,14.15,14.15,0,0,0-3.58-3.87,23.68,23.68,0,0,1,1.21,5.62,29.52,29.52,0,0,1-.45,7.68A51.52,51.52,0,0,1,148,123a7.53,7.53,0,0,0-.61-4.89,7.06,7.06,0,0,0-1.86-2.3,26.52,26.52,0,0,1-1.13,6.33,27.55,27.55,0,0,1-6.69,11.2c-.41-1.08-.45-1.49-.38-1.64s.13-.29.13-.29h0l-.23-8.24-3.44,6.72C133.09,127.49,132.41,125.07,131.74,122.65Z"/><path d="M43.07,63.63A12.15,12.15,0,0,1,47,59.5a10.84,10.84,0,0,1,5.51-1.86,11,11,0,0,1,5.68,1.26,5.9,5.9,0,0,1,1.24.72l1.17.82a27,27,0,0,1,2,2c-.85-.42-1.63-.92-2.43-1.35l-1.23-.56A6.61,6.61,0,0,0,57.66,60c-.43-.13-.84-.27-1.26-.42s-.86-.16-1.28-.25a5.55,5.55,0,0,0-1.29-.15,6.08,6.08,0,0,0-1.28,0,12.26,12.26,0,0,0-5,1.36A21.55,21.55,0,0,0,43.07,63.63Z"/><path d="M101.86,63.77a11,11,0,0,1,4.63-3.43,12.15,12.15,0,0,1,5.85-.88,13.59,13.59,0,0,1,5.58,1.91,18.93,18.93,0,0,1,2.33,1.72,24,24,0,0,1,1.92,2.13c-.87-.42-1.65-.92-2.46-1.36l-1.24-.6a9.69,9.69,0,0,0-1.23-.56c-.42-.15-.84-.31-1.24-.48s-.86-.24-1.28-.37l-.63-.18-.64-.1c-.43-.06-.86-.18-1.29-.2a15.32,15.32,0,0,0-5.21.39A21,21,0,0,0,101.86,63.77Z"/><path class="cls-11" d="M24.51,5.14c1,3,2,6.33,2.81,10,.59,2.61,1.05,5.1,1.4,7.46h0q-.22,6.9-.48,13.81T27.75,50a106.74,106.74,0,0,1,13-11A108.35,108.35,0,0,1,50,33c-.83-1.29-2-3.05-3.48-5.09a90.51,90.51,0,0,0-7.92-9.73c-1.48-1.56-3.62-3.51-7.92-7.42C28.16,8.39,26,6.47,24.51,5.14Z"/><path class="cls-16" d="M118,39.84s9.55-18.77,24.52-26c1,5.87,7.52,35.32-5.22,49.74C134.8,61.34,119.34,39.76,118,39.84Z"/><path id="f-2" data-name="f" class="cls-11" d="M142.52,14.1c1.09.94-4.93,7.29-7.86,15.79-2.84,8.22-3,19.1,3.28,33.63-3.31-3.72-6.69-7.67-10.09-11.85s-6.34-8-9.21-11.87A75.62,75.62,0,0,1,129.93,24C134.82,18.76,141.45,13.17,142.52,14.1Z"/><path class="cls-17" d="M91.89,306c-1.78-.81-12.36-5.79-15-16.49-1.33-5.42,0-9.84,2.46-18.23.79-2.64,2.79-9.41,5.06-9.31.82,0,1.39,1,1.68,1.42,1.49,2.33,4.29,5.49,10.09,9.2a111.32,111.32,0,0,1-.94,17.33A111.78,111.78,0,0,1,91.89,306Z"/><path class="cls-18" d="M54.38,339.23a29.29,29.29,0,0,1-.16-4.86,19.45,19.45,0,0,1,.81-4.78,8,8,0,0,1,2.61-4,5.8,5.8,0,0,1,2.19-1,8.05,8.05,0,0,1,2.4-.15,8.33,8.33,0,0,0-2.39.22,5.78,5.78,0,0,0-2.11,1.07,7.89,7.89,0,0,0-2.42,4,19.11,19.11,0,0,0-.65,4.71,28.94,28.94,0,0,0,.3,4.75Z"/><path class="cls-19" d="M141.06,226.71c-.09-4.05-2.14-16.63-2.14-16.63l-1.29-3.74L135,231.88l-1.73-.81L131,253.22l-3.44-1.62-1.21,16.81-2.13-1.29s-6,43.57-13,55.4c-2.15,10.78-7,17.94-10.24,18.88a16.42,16.42,0,0,1-3.83.56,14.33,14.33,0,0,1-4.66-.73,21.92,21.92,0,0,1,.2,3c0,.52.62,1.3.29,1.95-.09.17-.23.33-.18.5s.55.38,1,.43a14.86,14.86,0,0,0,2.46.77,15.84,15.84,0,0,0,5.83.07c3.44-.75,5.61-4.95,7.44-9a141.25,141.25,0,0,0,7.18-20.65c1-3.71,2.68-9.14,5-15.71,0,0,4.87-19.49,4.71-21.88s0-8,0-8l3,6.75,2.09-20.86,2.69,7.06,2.69-24.55,2.39,5.83S141.16,230.76,141.06,226.71Z"/><path class="cls-20" d="M147.33,311c.37,0,12.35-.66,21,1.21"/><path class="cls-20" d="M65.84,149.5c-.47-.16-7.84-7.92-8.17-9.08"/><path class="cls-21" d="M139.08,209a95.2,95.2,0,0,1,1.7,11,92.18,92.18,0,0,1,0,18.05c-.55,5.59-1.31,9.81-1.31,9.81l-2.39-5.68-2.69,23.92-2.69-6.88-2.1,20.34s-3-7.37-3-6.58c.33,4.45-1.15,8.88-1.09,13.34,0,3.69-2.91,15.3-13.62,45.75,0,0-4.36,16.31-10.33,16.12"/><path class="cls-22" d="M101.71,211.39v0l-4.55,9.7c-5.12,11.3-2.57,27.72-1.93,35.28a202.84,202.84,0,0,1,.49,28.2A114.49,114.49,0,0,1,87,321.05a14.82,14.82,0,0,0-9.33,4.77A14.17,14.17,0,0,0,75,330.66a16.16,16.16,0,0,0-.64,7.7"/><path d="M137.09,167.09l-2.45-3.68.65-.26a91.57,91.57,0,0,1,.86,9.77,47.51,47.51,0,0,1-.08,4.92,16.93,16.93,0,0,1-.93,4.85L135,183l-.24-.29c-.31-.35-.69-.73-1-1.09l-1.09-1.1-2.18-2.17.3-.11a50.86,50.86,0,0,1-.92,6,42.36,42.36,0,0,1-1.69,5.84,24.24,24.24,0,0,1-2.77,5.41,12,12,0,0,1-4.5,4,12,12,0,0,0,4.43-4,24.21,24.21,0,0,0,2.68-5.42,40.3,40.3,0,0,0,1.59-5.84,48.2,48.2,0,0,0,.83-6l0-.37.26.26,2.22,2.14,1.1,1.08c.37.37.72.71,1.09,1.13l-.37.05a16.65,16.65,0,0,0,.82-4.73,43.77,43.77,0,0,0,0-4.86,89.65,89.65,0,0,0-1-9.68l-.24-1.55.89,1.3,2.5,3.64Z"/><path class="cls-23" d="M239.18,323.73l21.7,2.85-1.14-6.51s-5.89-5.17-29.91-3.13l3.62,2.72s-27.42-1.16-29.91-1.6.45,2,.45,2l-12.92-7.43s5.44-11.11,6.35-19.95a149.77,149.77,0,0,0,.22-19.94c0-1.59-2.49-20.85-8.61-29.47S166.09,210,166.09,210l-19.67-29.69-11.29-17.79a23,23,0,0,0-2-4.83,44.08,44.08,0,0,0-3.34-4.92c-.62-.86-1.16-1.56-1.53-2-.82-1.07-1.37-1.91-2.55-3.57-2.13-3-2.28-3.2-2.69-3.3-1.19-.3-2.07.77-4.42,2.17a23.92,23.92,0,0,1-4.75,2.16,13.83,13.83,0,0,1,5,3.16,14.11,14.11,0,0,1,3.1,4.58,49.41,49.41,0,0,1,1.22,5.79,18.79,18.79,0,0,0,.86,4.26,12.3,12.3,0,0,0,2.08,3.58l-.12-2.85.38,9.29s21.38,24.25,27,33.54c10.2,11.34,27,35.36,29.92,44.2s12,23.8,0,51.9c-5.9,12.47-12.24,20.83-29.24,18.12-1.36,1.6-7.9,12-23.56,7.13-.92,1-8.17,3.59-10-3.69a9.76,9.76,0,0,1-3.86-.87,9,9,0,0,1-2-1.21,3.4,3.4,0,0,0-1.24,2.41c0,.05,0,.05.07.76.15,1.62.15,1.66.17,1.81a3.82,3.82,0,0,0,1.23,2.51,9,9,0,0,0,3,1.17,2.1,2.1,0,0,1,1,.51c.44.44.43,1,.57,1.23,1,1.67,3.27,2.06,4.12,2.2a8.84,8.84,0,0,0,5.61-1,31.59,31.59,0,0,0,8,1,18.19,18.19,0,0,0,6.22-.74,15.49,15.49,0,0,0,6.94-4.9c1.77.23,4.32.51,7.39.63a64.09,64.09,0,0,0,16.42-1.22,51.89,51.89,0,0,0,7.73-2.74c2.66-1.07,4.36-1.89,4.45-3.08s-1.31-1.61-1.32-2.89,1.38-2.37,2.65-3.11a28.24,28.24,0,0,0,5.86,3.56c1.78.81,5.67,2.35,19,3,2.1.1,4.79.19,7.94.22L213,323.73,243.4,326Z"/><polygon class="cls-4" points="118.18 151.75 109.51 152.76 108.03 153.58 118.59 152.23 118.18 151.75"/><path class="cls-19" d="M75.07,333.4a16.15,16.15,0,0,0-.66,3.83,8.06,8.06,0,0,0,.44,4,6,6,0,0,0,4.36,3.34,5.38,5.38,0,0,0,3-.58,16.54,16.54,0,0,0,2,1.56,10.59,10.59,0,0,0,4,1.85,7.46,7.46,0,0,0,6-1.5c-.13-1.26-.26-2.51-.38-3.77A53.22,53.22,0,0,1,88.55,341a45.42,45.42,0,0,1-6.2-2.11A22.17,22.17,0,0,1,75.07,333.4Z"/><path class="cls-24" d="M42.48,337.21a27.19,27.19,0,0,1,.6-5.32,18.31,18.31,0,0,1,1.85-5,9.66,9.66,0,0,1,3.68-3.82,8.81,8.81,0,0,1,5.16-1,8.8,8.8,0,0,0-5.09,1.09A9.37,9.37,0,0,0,45.19,327a17.72,17.72,0,0,0-1.68,5,25.49,25.49,0,0,0-.44,5.23Z"/><path class="cls-23" d="M79.42,232.43a27.56,27.56,0,0,1,5,18.92l-4.43-6.16c.42,1.4,1,3.37,1.59,5.74a52.19,52.19,0,0,1,1.26,5.66,46.53,46.53,0,0,1,.23,7c0,1.86-.07,4.4-.22,7.44l-4.08-8.53q1.09,7.53,2.44,15.29c.34,2,.69,3.93,1,5.88l-4-7.18c.33,2.42.66,4.86,1,7.3q.66,5.12,1.29,10.17L78,289.2c-1.29,18.1-2.58,31.4-3.12,34.82a39,39,0,0,1-1.48,6c-.47,1.35-1,2.44-1.2,2.95a16.06,16.06,0,0,1-1.2,2.29,15.79,15.79,0,0,1-1.5,1.89c-.62.7-1.19,1.26-1.61,1.65l-1.2.39a18.16,18.16,0,0,1-7,1.15,10.56,10.56,0,0,1-2.66-.55,9.38,9.38,0,0,1-2-1l1.44-4.6s13.3.91,14.08-7,2.28-42.61,2.28-42.61v-4.83l3.43,3.93-.86-14.06,2.72,1.21-1.86-14.65,2.62-1.36-2.57-18.59L80.3,240C80,237.44,79.71,234.94,79.42,232.43Z"/><path class="cls-25" d="M150.4,188l6.36,10.89s-3.25-1.05-9.43,5-4,5.57-4,5.57A22.23,22.23,0,0,1,150.4,188Z"/><path class="cls-25" d="M168.29,213.71s-7.52.76-10.48,9.64-3,14-7.41,18.4-7.1,13-7.1,13,10.15-11.42,16.09-13,21.28-9.43,21.28-9.43Z"/><path class="cls-25" d="M197.37,272.14c-1-.31-29.38-8.37-39.56-7.29,10.06,7.93,17,12.69,23.38,17.13s16.18,4.44,16.18,4.44Z"/><path class="cls-25" d="M199,298.14a13.56,13.56,0,0,1,7.93,10.71l1.9-12.15-10.7-2.8Z"/><path class="cls-25" d="M216.76,296.8l6.33-1.17s.51,11.5,3,16.28A23.3,23.3,0,0,1,216.76,296.8Z"/><path class="cls-25" d="M240.76,291.07s12.39-2.23,13.62-2.57-5.23,9.95-5.47,13.48,1.63,11.95,0,14c0,0-2-6.75-4.4-8.43s-2.7-7.36-3.21-11.94Z"/><path class="cls-25" d="M191,310.9c-1.37-4.65-10-5.76-15.18-6.36-3.92-.46-8.3.71-8.48.23,0-.09.07-.19.11-.23.61-.45,4.74,3.34,17.65,18.25a15.76,15.76,0,0,0,3.51-3.82C189.6,317.47,191.91,313.9,191,310.9Z"/><path class="cls-25" d="M126.55,277s-13,3.27-18.21,4a80.74,80.74,0,0,0-9.2,1.82s9.92.91,17.49,1.82c3,.36,11.59,3,8.7,2.26h0Z"/><path class="cls-25" d="M95.64,260.31s8.82,4.26,13.76,4.7a6.06,6.06,0,0,0,1.84-.06c4.08-.93-11.67,6.3-14.08,6.11Z"/><path class="cls-25" d="M96.33,224s.55.55,9.08,3.15S123,232.56,123,232.56s-8.16,2.35-13.35,1.92-6.11-.68-8.34,0-7.41,2.31-7.41,2.31S93.73,225.89,96.33,224Z"/><path class="cls-26" d="M37.12,151.75s4,.3,7.37,5.11c3.34,4.4,5.64,7.38,8.76,8.37l.62.16c-4.63-.26-.21,0-.21,0S51,167.4,44.25,162.1c-3.92-2.86-7.84-4.89-8.79-4.9S36.05,152.46,37.12,151.75Z"/><path class="cls-26" d="M31.73,186.27s3.22,1.07,12.48,4.3,11.4,1.51,11.4,1.51l-21.2,8.43c-.58-2.17-1.12-4.52-1.59-7S32,188.53,31.73,186.27Z"/><path class="cls-25" d="M41.18,230.17s6.87,1.58,17.18,9.65c11.51,7.22,13,8.76,13,8.76s-1.2-2.57-11-2.57-14.6,1.45-16-1.43S41.18,230.17,41.18,230.17Z"/><path class="cls-25" d="M50.84,281.91s4.12-1.24,11.68,5.91,8.76,7.65,8.76,7.65S54.1,289.54,50.84,293Z"/><path class="cls-25" d="M153.18,90.89a54.32,54.32,0,0,0-9.42,3.92,55.1,55.1,0,0,0-13.95,10.57,79.3,79.3,0,0,1,27.3-2.24Z"/><path class="cls-18" d="M118,334.23a12.71,12.71,0,0,1,2-9.07,12.28,12.28,0,0,1,7.58-5.18,12.13,12.13,0,0,0-7.34,5.34,12.27,12.27,0,0,0-1.69,8.81Z"/><path class="cls-26" d="M107.69,33.54S105,40.73,101.1,50l-3.92,9.25s10.5-10.53,15.9-14.38L118.49,41S111,34.05,107.69,33.54Z"/><path class="cls-26" d="M78.9,27.62a59.35,59.35,0,0,1,22.94,2.32A118.57,118.57,0,0,1,97,49.48a119.12,119.12,0,0,1-9.4,20.78,65.34,65.34,0,0,0,1.06-16.44,47.59,47.59,0,0,0-6.3-21.18A44.52,44.52,0,0,0,78.9,27.62Z"/><path class="cls-26" d="M56,30.84a28.07,28.07,0,0,1,4.8-2.05,28.42,28.42,0,0,1,6.28-1.23c2.56,5.14,3.33,15.15,4.36,18.75a43.35,43.35,0,0,1,1.23,8.44c-2.64-3.16-5.34-6.64-8-10.45C61.33,39.62,58.47,35.1,56,30.84Z"/><path class="cls-26" d="M4.09,82.51a39.75,39.75,0,0,1,22.63,11c-10.4-2.5-20.78-1.1-26.36,0Z"/><path class="cls-27" d="M263.38,289.22A22.62,22.62,0,0,1,271,290c4.29,1.19,8.83,3.85,8.49,5-.17.61-1.72,1.1-8,.42-.12.59-.23,1.18-.35,1.77a1.83,1.83,0,0,1,.27-1.38c.42-.54,1.3-.74,5-.26,1.64.21,2.46.32,3.5.55a37.29,37.29,0,0,1,6.54,2.11,41.45,41.45,0,0,1,9.61,6c4.66,3.8,8.7,8.62,8.3,9.07-.09.09-.34,0-.55-.1-1-.17-2.07-.32-3.23-.42a35.09,35.09,0,0,0-4.28-.1,16.18,16.18,0,0,1,7.95,4.59,16.45,16.45,0,0,1,4.36,10.22,22.67,22.67,0,0,1-8.08,1.71,30.37,30.37,0,0,1-5.41-.52c-2.76-.37-6.73-.86-11.68-1.32l7,4.92c-3.93-.67-7.17-1.41-9.57-2-5.76-1.47-7.85-2.46-8.59-2.83a28.22,28.22,0,0,1-5.85-3.87q.88,2.31,1.78,4.62l-7.05-2.26a34.85,34.85,0,0,1-3.67-11.28C255.64,302.21,261.28,292.47,263.38,289.22Z"/><path class="cls-4" d="M257.87,317.47c.12.91.3,1.88.53,2.89a34.53,34.53,0,0,0,2.15,6.39l8,1.69q-1.11-2.64-2.23-5.28a30.68,30.68,0,0,0,6.45,4.55,38,38,0,0,0,9.52,3.27,63.36,63.36,0,0,0,8,1.41l-7-5.2s15.37,4.79,26.64,0c-.18-.59-4.26-4.53-12.81-6.11s-17.88-2.76-17.88-2.76l-.4,5.13-11.84-4.21-1.71-4.74h-8.05Z"/><path d="M70.53,115.41a13.15,13.15,0,0,0-3.86.42A17.15,17.15,0,0,0,63,117.16a21.42,21.42,0,0,0-6.14,4.63A34.86,34.86,0,0,0,52.21,128c-.63,1.14-1.27,2.27-1.88,3.43s-1.1,2.36-1.67,3.54c.44-1.23.92-2.45,1.38-3.68s1.15-2.36,1.73-3.54a32.68,32.68,0,0,1,4.65-6.38,21.23,21.23,0,0,1,6.4-4.63A14.4,14.4,0,0,1,70.53,115.41Z"/><path d="M66.94,110.43a29.85,29.85,0,0,0-5.33,1.39c-1.74.56-3.45,1.23-5.14,2A58.24,58.24,0,0,0,46.85,119a47.44,47.44,0,0,0-8.41,7l-1.88,2-1.69,2.16c-.29.36-.58.71-.86,1.08l-.75,1.16-1.52,2.3A41.16,41.16,0,0,1,38,125.64a45.82,45.82,0,0,1,8.41-7.25,52.51,52.51,0,0,1,15.09-6.93c.89-.25,1.8-.46,2.7-.65A14.94,14.94,0,0,1,66.94,110.43Z"/><path d="M62.24,107.5a32,32,0,0,0-4.48-.54c-.74-.07-1.49-.07-2.24-.1l-2.25,0a37.07,37.07,0,0,0-8.83,1.41,37.63,37.63,0,0,0-4.23,1.44,41.33,41.33,0,0,0-4,2.07,39.18,39.18,0,0,0-7.1,5.51l1.54-1.66a15.3,15.3,0,0,1,1.62-1.6l1.75-1.45a21.54,21.54,0,0,1,1.87-1.3,28.83,28.83,0,0,1,4-2.21,36.75,36.75,0,0,1,4.3-1.55,34.46,34.46,0,0,1,9-1.25A32,32,0,0,1,62.24,107.5Z"/><path d="M104.37,119.33a21.58,21.58,0,0,1,6.84,4,34,34,0,0,1,5.39,5.91,37.21,37.21,0,0,1,2.11,3.41,34,34,0,0,1,1.79,3.57c.55,1.22,1,2.49,1.44,3.73s.74,2.55,1.08,3.83l-1.38-3.72c-.54-1.21-1-2.45-1.6-3.63a45.89,45.89,0,0,0-4-6.81,36.4,36.4,0,0,0-5.18-5.91c-.49-.44-1-.89-1.5-1.28s-1-.81-1.58-1.18A19.79,19.79,0,0,0,104.37,119.33Z"/><path d="M111.48,119.33a27.11,27.11,0,0,1,8.88,2.78,30.09,30.09,0,0,1,7.61,5.45,18.63,18.63,0,0,1,1.59,1.73,17.2,17.2,0,0,1,1.47,1.82l1.34,1.93c.42.66.77,1.36,1.14,2.05a35.29,35.29,0,0,1,1.91,4.26,22.08,22.08,0,0,1,.69,2.23l.61,2.25c-.56-1.45-1-2.94-1.6-4.36a34.63,34.63,0,0,0-2.05-4.14,31.46,31.46,0,0,0-5.57-7.3,30.89,30.89,0,0,0-7.37-5.47A31.54,31.54,0,0,0,111.48,119.33Z"/><path class="cls-28" d="M111.81,112.61c.42.23,19.2-4.42,32.91,15.4"/><path class="cls-23" d="M58.75,152.18l.13,2.55c-3.18-.66-5.73-1.32-7.59-1.84a36.66,36.66,0,0,1-4-1.46,9.79,9.79,0,0,1-3.2-1.89,10.21,10.21,0,0,1-1.3-1.46l-.7-1.72a63.35,63.35,0,0,0,7.32,3.21A60.11,60.11,0,0,0,58.75,152.18Z"/><path class="cls-22" d="M197.57,293.45s10.53,5.67,29.48.88S268.3,284,280.23,295l-3.9.59s16.92,1.22,28.82,18.91l-8.93-1.82s9.74,1.1,13.79,14.51c0,0-13.33,6.89-26.64,0l8,5.2s-17.26.19-24.57-8.17l2.13,5s-23.71-7-29.75-5.48l5.91,2.54s-29.3-1.81-30.9-2.45,6.35,2.64,6.35,2.64-23.8,1.31-33-6.23"/><path class="cls-29" d="M36.87,328.73s-1.36,7.1,5.34,8.87c2.37,2.11,5.5,4.83,12.54,1.08,0,0,6.14,4.85,14.58-.89,1.7-2.08,5.67-9,6-14.68.52-4.59,1.65-18.4,1.65-18.4l1-15.51,2.27,4.5-2.08-16.92,4.28,7.91-3.31-21.05,3.61,7.43s.56-13.09,0-15.76-2.47-9.59-2.47-9.59l4,5.86a39.19,39.19,0,0,0,0-6.52,83.44,83.44,0,0,0-2.4-8.93c-.56-1.26-2.84-5.72-2.84-5.72"/><path class="cls-22" d="M78.29,292.14A28.36,28.36,0,0,0,91.92,306"/><path class="cls-30" d="M164.67,332.73c-2.38.11-4.76.33-7.17.36a24.49,24.49,0,0,1-7.17-.84l.22-.07a18.4,18.4,0,0,1-10.43,5.75,17.7,17.7,0,0,1-11.71-1.82l0,0v0a7.29,7.29,0,0,1-.25-6,7,7,0,0,1,4.31-4.07h0a15.46,15.46,0,0,1,1.87-.68,3.41,3.41,0,0,0,1.66-1,3.4,3.4,0,0,1-1.66,1,15.28,15.28,0,0,0-1.85.7h0a6.89,6.89,0,0,0-4.22,4.07,7.21,7.21,0,0,0,.3,5.84l0,0a17.46,17.46,0,0,0,11.57,1.69,18.19,18.19,0,0,0,10.16-5.74l.09-.1.13,0a23.81,23.81,0,0,0,7,.74c2.38-.05,4.76-.29,7.15-.43Z"/><path class="cls-31" d="M123,143.83c1.45,2.75,4.11,4.07,5.43,6.07,4,6,6,11.3,9.31,17.28C155.05,193.77,172.33,217,189,243.63c10,15.29,10,32.57,8,49.86a49.17,49.17,0,0,1-10.79,28.23"/><path class="cls-23" d="M116,149.77l2,.77s5.61-.66,7.74-1.82c-.26-1-.32-1.23-.32-1.23l-3.8-.36S116.68,149.58,116,149.77Z"/><path class="cls-25" d="M136.68,165.74a135.13,135.13,0,0,0-13.94,5.75c-4.63,2.48-5.33,4.29-5.33,4.29s2.53-.25,5.86-.39c4.88-.19,5.64.36,10.58.31,4.46,0,9.22-.48,9.22-.48h0Z"/><path class="cls-18" d="M110,337.77a18.54,18.54,0,0,1-2.12,5.54,11.4,11.4,0,0,1-4.12,4.24,9.57,9.57,0,0,1-5.79,1.09A14.87,14.87,0,0,1,95,348c-.46-.17-.94-.31-1.39-.51l-.68-.29-.34-.15,0,0s-.09-.06-.1-.09a.51.51,0,0,1,0-.12,1.77,1.77,0,0,1,0-.2,20.59,20.59,0,0,1,.42-5.87,18.6,18.6,0,0,1,2-5.51,10.06,10.06,0,0,1,9.73-5.38,10,10,0,0,0-9.6,5.45,18.68,18.68,0,0,0-1.9,5.48,20.1,20.1,0,0,0-.35,5.78c0,.1.06.26.06.19l.33.14.67.28c.45.19.92.32,1.37.48a14.51,14.51,0,0,0,2.83.58,9.11,9.11,0,0,0,5.52-1.1,10.92,10.92,0,0,0,3.9-4.11,17.63,17.63,0,0,0,2-5.38Z"/><path class="cls-32" d="M102,347.94a14.6,14.6,0,0,1-8.66-1"/><path class="cls-30" d="M75,334.75a15.39,15.39,0,0,0-.26,4.74,5.49,5.49,0,0,0,2,4.05,6,6,0,0,0,4.53.57l.58-.13.15,0s.13-.06,0,0a1.26,1.26,0,0,0,0-.22c0-.39.08-.8.11-1.21q.09-1.21.24-2.43A19.72,19.72,0,0,1,85.54,331a9.26,9.26,0,0,1,3.75-3.07,10.66,10.66,0,0,1,4.77-.8,10.67,10.67,0,0,0-4.74.88,9.09,9.09,0,0,0-3.65,3.08,19.52,19.52,0,0,0-3,9.11c-.09.8-.15,1.61-.2,2.42,0,.4,0,.81-.09,1.22a1.24,1.24,0,0,1-.08.37l0,0a.27.27,0,0,1-.08.07c-.08.05,0,0-.08,0l-.07,0-.15,0-.6.14a9.35,9.35,0,0,1-2.48.2,4.55,4.55,0,0,1-4-2.73,8.55,8.55,0,0,1-.66-2.41,16.37,16.37,0,0,1,.21-4.94Z"/><path class="cls-33" d="M82,344.29s5.1,4,11.43,2.71"/><path class="cls-34" d="M157.81,286.42s11.66,21.86,22.86,31.27c7.93,8.7,10.25,10.31-10,14.59-18,1.37-20.58-.29-20.58-.29"/><path class="cls-35" d="M152.53,310.34A28,28,0,0,1,143,288.59l-1.75,2.55L140.07,295l-.64-3.4c-1.28-6.39,1.64-14.73,1.64-14.73L136,280.75a19.85,19.85,0,0,1,.87-5.87,21.58,21.58,0,0,1,9.37-11.63l-6.17,2.55,2.13-2.55a24.56,24.56,0,0,1,8-6.8,18.53,18.53,0,0,1,6-1.77s4.86-2.21,12.1.08"/><path class="cls-36" d="M90.87,310.06s-16,4.08-14.6,9.92c1.33,4.08,1.79,3.35,6.27,2.21L87,321.05Z"/><path class="cls-36" d="M120.16,307.63s10.18-5,13.13-1.18.89,6.93.89,6.93l-9.82,5-5.18,2.34-3.39-.45Z"/><path class="cls-2" d="M123.27,297.66l0,.09a20.25,20.25,0,0,0,8.63,7.7c7.27,3.19,14.44,0,15.38-.42l4.53,5s-10.48.47-17.35,3.55S118.22,321,118.22,321a10.62,10.62,0,0,0-4.86,9"/><line class="cls-35" x1="121" y1="304.43" x2="127.67" y2="302.76"/></svg>