<svg id="Layer_1" data-name="Layer 1" xmlns="http://www.w3.org/2000/svg" viewBox="0 0 290 256"><defs><style>.cls-1{fill:#fd5001;}.cls-2{fill:#e23703;}.cls-3{fill:#841900;}.cls-4{fill:#212121;}.cls-5{fill:#070707;}.cls-6{fill:#424242;}.cls-7{fill:#161616;}.cls-8{fill:#ff966c;}.cls-9{fill:#f2a668;}.cls-10{fill:#fff;}.cls-11{fill:#d6d6d6;}.cls-12{fill:#282828;}.cls-13{fill:#720000;}.cls-14{fill:#ffa4a4;}.cls-15{fill:#e58888;}.cls-16{fill:#ad4040;}.cls-17{fill:#542416;}.cls-18{fill:#200705;}</style></defs><path class="cls-1" d="M83,155.37c-5.55-1-12.34,3.08-10.18,8.87-2.47,1.23-3.4,7.48,1.31,8.72-1.24,1.77-.54,8.41,9.33,8.74.23,2.14,5.73,6,17.21,5.39,17.28-.86,29.72-6.65,36.23-9.35C127.25,175,83,155.37,83,155.37Z"/><path class="cls-2" d="M108.11,166.51l-1.72-2.78c-.22,0-21.73-1.14-34-1l.42,1.71C85.06,164.3,107.89,166.49,108.11,166.51Z"/><path class="cls-2" d="M78.94,173.36c12,0,39.82-1.71,41.21-1.8l-4.17-2.3c-.4,0-38.23,3.4-43.61,2.85l1.7,1A37.36,37.36,0,0,0,78.94,173.36Z"/><path class="cls-2" d="M87.08,182c9,0,19-1.65,26.19-3.13,8.87-1.83,15.51-3.81,15.57-3.83l-3.67-1.62c-.06,0-7.21,1.74-13.33,3.13-8.4,1.91-23.36,3.69-33,4.37l4.66.93C84.65,181.91,85.84,182,87.08,182Z"/><path class="cls-2" d="M99.92,185c14.79-1.5,24.74-6.09,31.4-9.15,2.34.88,4.26,1.55,5.55,1.91-6.51,2.7-19,8.49-36.23,9.35-10.8.54-16.31-2.82-17.11-5C85.35,184.11,89.91,186,99.92,185Z"/><path class="cls-3" d="M87.75,185.59c-2.49-1-4.22-2.44-4.48-3.7-6.14-.25-8.39-2.95-9.19-4.54a5,5,0,0,1-.28-4.28,4.48,4.48,0,0,1-3.21-4c-.21-2,.64-4.13,2-4.91a5.82,5.82,0,0,1,1.06-5.85,9.23,9.23,0,0,1,4.18-2.71,10.69,10.69,0,0,1,5.21-.41h0c.44.2,44.38,19.7,53.87,22.36l.54.16-.52.21-1.6.67c-7,2.95-18.71,7.89-34.69,8.69-.8,0-1.56.06-2.29.06A28.23,28.23,0,0,1,87.75,185.59Zm-4.84-30a10.06,10.06,0,0,0-9,3,5.41,5.41,0,0,0-.93,5.62l.06.16-.16.08c-1.24.63-2.1,2.69-1.9,4.61a4.11,4.11,0,0,0,3.18,3.75l.26.07-.15.23a4.39,4.39,0,0,0,.16,4.11c.77,1.53,3,4.12,9,4.33h.17v.16c.11.95,1.47,2.41,4.27,3.55,2.31.94,6.38,2,12.74,1.67,15.91-.8,27.58-5.72,34.56-8.66l1.1-.47C125.88,174.61,84.07,156.07,82.91,155.55Z"/><path class="cls-3" d="M108.11,166.51l0-.38c-.23,0-23.07-2.21-35.37-2.08v.38C85.06,164.3,107.89,166.49,108.11,166.51Z"/><path class="cls-3" d="M78.94,173.36c12,0,39.82-1.71,41.21-1.8l0-.38c-.41,0-40.68,2.5-46,1.59l-.06.38A37.36,37.36,0,0,0,78.94,173.36Z"/><path class="cls-3" d="M87.08,182c9,0,19-1.65,26.19-3.13,8.87-1.83,15.51-3.81,15.57-3.83l-.11-.37c-.07,0-6.69,2-15.55,3.82-8.16,1.69-20,3.58-29.74,3l0,.39C84.61,182,85.84,182,87.08,182Z"/><path class="cls-4" d="M83.43,181.7c-9.87-.33-10.57-7-9.33-8.74-4.71-1.24-3.78-7.49-1.31-8.72-2.16-5.79,4.63-9.88,10.18-8.87-2.74.65-6.44,4.2-3.42,9-2.06,1.83-2.1,6,2.63,8.79-2.22,2.8,2.72,7.66,10.64,8.52-1.36,1.26,1.41,3.15,5.77,4.08,2.12.44,4.43.81,6.18,1.05-1.35.14-2.72.24-4.13.31C89.16,187.66,83.66,183.84,83.43,181.7Z"/><path class="cls-5" d="M72.79,164.43l0-.17,0,0a6,6,0,0,1-.22-.68l0-.18q-.07-.33-.12-.66c1.94,0,4.09,0,6.36,0a8.09,8.09,0,0,0,.78,1.6l-.19.19C77,164.45,74.75,164.41,72.79,164.43Z"/><path class="cls-5" d="M80.54,172a10.33,10.33,0,0,0,1.64,1.18.9.9,0,0,0-.14.2l-3.1,0a37.36,37.36,0,0,1-4.87-.21l-.07,0,.1-.15a5.61,5.61,0,0,1-.82-.29l-.89-.54,0,0A75.32,75.32,0,0,0,80.54,172Z"/><path class="cls-5" d="M87.13,180.19a19.74,19.74,0,0,0,5.69,1.46.7.7,0,0,0-.14.16c-1.89.12-3.77.19-5.6.19-1.24,0-2.43-.09-3.62-.15l0-.15-1,0-3.65-.73C81.29,180.75,84.14,180.5,87.13,180.19Z"/><path class="cls-5" d="M96.64,185.21c.6.19,1.26.37,2,.52,2.12.44,4.42.81,6.17,1.05l-.71.07a53.26,53.26,0,0,1-8.84.18,23.92,23.92,0,0,1-8.29-2c-1.17-.55-2.94-1.49-3.35-2.83a12,12,0,0,0,3.82,2.16,25.06,25.06,0,0,0,7.61.93C95.54,185.25,96.09,185.24,96.64,185.21Z"/><path d="M87.75,185.59c-2.49-1-4.22-2.44-4.48-3.7-6.14-.25-8.39-2.95-9.19-4.54a5,5,0,0,1-.28-4.28,4.48,4.48,0,0,1-3.21-4c-.21-2,.64-4.13,2-4.91a5.82,5.82,0,0,1,1.06-5.85,9.23,9.23,0,0,1,4.18-2.71,10.69,10.69,0,0,1,5.21-.41l.91.16-.9.22A6.16,6.16,0,0,0,79,159a5.61,5.61,0,0,0,.75,5.23l.09.14-.13.11a4,4,0,0,0-1.24,3.37c.19,1.94,1.55,3.75,3.83,5.1l.19.12-.13.17a2.35,2.35,0,0,0-.25,2.5c1,2.36,5,5.08,10.76,5.71l.42,0-.31.29a.71.71,0,0,0-.26.76c.25.91,2.37,2.23,5.94,3,2.17.46,4.55.83,6.17,1.05l1.59.23-1.6.16c-1.38.13-2.78.24-4.14.3-.8,0-1.56.06-2.29.06A28.23,28.23,0,0,1,87.75,185.59Zm10.8.32c-3.39-.72-5.89-2-6.23-3.26a1.06,1.06,0,0,1,.12-.85,19,19,0,0,1-6.92-2.19,8.51,8.51,0,0,1-3.79-3.71,2.75,2.75,0,0,1,.17-2.72c-2.29-1.4-3.65-3.27-3.84-5.29a4.37,4.37,0,0,1,1.25-3.58,5.84,5.84,0,0,1-.69-5.45,6.45,6.45,0,0,1,3.49-3.41,10,10,0,0,0-8.21,3.1,5.41,5.41,0,0,0-.93,5.62l.06.16-.16.08c-1.24.63-2.1,2.69-1.9,4.61a4.11,4.11,0,0,0,3.18,3.75l.26.07-.15.23a4.39,4.39,0,0,0,.16,4.11c.77,1.53,3,4.12,9,4.33h.17v.16c.11.95,1.47,2.41,4.27,3.55,2.31.94,6.39,2,12.74,1.67.82,0,1.66-.1,2.5-.16C101.73,186.52,100.09,186.24,98.55,185.91Z"/><path d="M79.46,164.15v.38c-2.41-.08-4.68-.12-6.67-.1v-.38C74.78,164,77.06,164.07,79.46,164.15Z"/><path d="M74.13,172.77a60.77,60.77,0,0,0,8,.17c0,.13.07.26.11.38-1.17,0-2.27,0-3.26,0a37.36,37.36,0,0,1-4.87-.21Z"/><path d="M83.44,181.51a76.6,76.6,0,0,0,9.07-.08,2.5,2.5,0,0,1,.15.38c-1.88.12-3.75.19-5.58.19-1.24,0-2.47,0-3.66-.1Z"/><path class="cls-1" d="M76.49,115.62c-3.09-3.07-12.73-17.54-17.24-24.2s-10.79-14-15.91-16.18c-6.68-2.83-13.83-1.34-15.07,3.6-3.55-1-9.51,3-8.71,8.56-4,0-10.26,5.94-7.56,13.66-4.3,1-7.49,10.28-3.78,13.79-5.35.5-9.57,10.84-5.25,16.53C-.53,133.66-2,143,6.29,145a8.21,8.21,0,0,0,3.57,11.21c6.43,3.24,19.36.78,25.9-.64,7.18-1.56,24.3-7.25,33.56-8.41C72.63,142.18,76.49,115.62,76.49,115.62Z"/><rect class="cls-3" x="40.96" y="89.8" width="0.39" height="68.37" transform="translate(-89.31 130.52) rotate(-74.5)"/><path class="cls-4" d="M.5,139c.3,1.72,1.45,4.77,5.83,5.83l.26.06-.14.23a8.29,8.29,0,0,0-.58,6.17A7.66,7.66,0,0,0,10,156.07c2.76,1.39,7.07,1.87,12.8,1.41a101.44,101.44,0,0,0,13-2.07c2.6-.56,6.44-1.65,10.88-2.91,7.83-2.22,16.69-4.74,22.6-5.49,3.15-4.95,6.82-29.58,7.08-31.32-2.84-2.89-10.85-14.76-15.65-21.88l-1.54-2.28c-2.1-3.1-9.43-13.41-15.82-16.11-4.1-1.74-8.53-1.88-11.56-.37a5.87,5.87,0,0,0-3.25,3.84l-.05.19L28.22,79c-1.7-.48-4.06.27-5.88,1.86a7.2,7.2,0,0,0-2.59,6.49l0,.22h-.22c-2.06,0-4.53,1.57-6.15,3.86A10.24,10.24,0,0,0,12.18,101l.07.2-.21,0c-2,.49-4,3.05-4.86,6.23s-.38,5.77,1.17,7.24l.31.29-.43,0c-2.19.21-4.38,2.22-5.71,5.25s-1.93,7.64.6,11l.13.16-.18.12C1.16,132.79,0,136.14.5,139Zm7.84-7.18.17-.11-.13-.16c-1.56-2.06-1.84-5-.77-8.1,1.18-3.43,3.71-6.19,6.29-6.86l.37-.1-.29-.24c-1.64-1.36-2.32-3.94-1.81-6.9s2.1-5.4,4-6.1l.18-.07-.06-.17a8.81,8.81,0,0,1,1.22-8.17c1.84-2.62,4.54-4,6.24-4H24l0-.22a6.06,6.06,0,0,1,2.29-5.29c1.94-1.7,4.69-2.61,6.4-2.12l.23.06,0-.23a4.67,4.67,0,0,1,2.09-3.81c1.72-1,4.41-.8,7.78.63,3.84,1.62,9.1,7,14.08,14.34.42.61.88,1.3,1.38,2,4.27,6.33,11.4,16.89,13.93,19.48-.24,1.63-3.5,23.46-6.29,27.88-5.27.67-13.16,2.91-20.13,4.88-3.95,1.12-7.37,2.09-9.69,2.6a86.12,86.12,0,0,1-11.48,1.7c-5.05.35-8.91,0-11.47-1.12a3.83,3.83,0,0,1-2.41-2.72,5,5,0,0,1,1.21-4.26l.21-.24-.31-.08a6.9,6.9,0,0,1-5.46-5.78C5.82,135.85,6.72,132.89,8.34,131.83Z"/><path class="cls-6" d="M58.26,92.15c-4.51-6.67-11.51-14-16.62-16.18-3.92-1.66-7.41-2.08-9.87-1.16,3-1.42,7.37-1.35,11.57.43,5.12,2.16,11.39,9.51,15.91,16.18s14.15,21.13,17.24,24.2C71,111.75,62.77,98.82,58.26,92.15Z"/><path class="cls-2" d="M75.1,125l1.27-2.89c-7.6-8-40.5-39.71-47.51-44.79L28.14,79C29.8,80.55,69.14,117.38,75.1,125Z"/><path class="cls-3" d="M74.79,125.26l.31-.24c-6-7.67-45-44.75-46.69-46.32l-.27.28C29.8,80.55,68.84,117.61,74.79,125.26Z"/><path class="cls-2" d="M74.05,129l1-2.76c-.45-.33-44-33.68-55.54-41l-.12,2.34C29.43,95.41,73.61,128.62,74.05,129Z"/><path class="cls-3" d="M74,129.14l.23-.31c-.44-.34-44.55-33.73-54.54-41.58l-.23.3C29.43,95.41,73.54,128.8,74,129.14Z"/><path class="cls-2" d="M73.57,131.63l.89-1.74c-18-9.5-42.73-22.95-62.86-30.45l.31,1.79Z"/><rect class="cls-3" x="42.67" y="81.91" width="0.39" height="68.91" transform="translate(-80.43 103.07) rotate(-63.63)"/><path class="cls-2" d="M74.05,133.3l.41-2c-25.21-7.92-59.08-17-67.41-18.33L8.16,115Z"/><path class="cls-2" d="M73,135.38,73,133c-25.26-1.84-56-4.11-71.12-3.53L3,131.57Z"/><rect class="cls-3" x="37.78" y="98.3" width="0.39" height="70.11" transform="translate(-97.32 163.74) rotate(-86.76)"/><path class="cls-2" d="M6.29,145.11l65.84-5.86-.88-2.59C46.33,138.94,18.76,139.6,2,142.6A7,7,0,0,0,6.29,145.11Z"/><rect class="cls-3" x="6.15" y="141.85" width="66.09" height="0.39" transform="translate(-12.68 4.13) rotate(-5.19)"/><path class="cls-2" d="M35.76,155.6c-6.54,1.42-19.47,3.88-25.9.64A8.21,8.21,0,0,1,6.1,145.39c2,4.7,5,6.44,14.85,6.66,13.27.3,32.21-7.06,50.74-11.37a25.69,25.69,0,0,1-2.37,6.51C60.06,148.35,42.94,154,35.76,155.6Z"/><path d="M9.77,156.41a8,8,0,0,1-4.27-5,8.71,8.71,0,0,1,.5-6.25,7.45,7.45,0,0,1-5.88-6.08c-.51-3,.62-6.33,2.58-7.75A9.5,9.5,0,0,1,1,126a13.74,13.74,0,0,1,1.17-5.82c1.31-3,3.44-5,5.64-5.42-1.43-1.61-1.81-4.32-1-7.34.73-2.72,2.53-5.73,4.94-6.45a10.63,10.63,0,0,1,1.34-9.69c1.63-2.31,4.12-3.9,6.25-4a7.6,7.6,0,0,1,2.75-6.63,7.37,7.37,0,0,1,6.05-2,6.28,6.28,0,0,1,3.4-3.9c3.12-1.55,7.68-1.42,11.88.36,2.39,1,5.16,3.18,8.24,6.45a79.64,79.64,0,0,1,7.74,9.8c.47.68,1,1.45,1.55,2.28,4.83,7.17,12.92,19.15,15.67,21.89l.07.07v.1c-.16,1.08-3.9,26.65-7.2,31.65l0,.07h-.09c-5.88.74-14.78,3.26-22.63,5.49-4.45,1.26-8.3,2.35-10.91,2.92a100.33,100.33,0,0,1-13,2.07c-1.42.11-2.75.17-4,.17C14.93,158,11.91,157.49,9.77,156.41Zm66.51-40.72c-2.84-2.89-10.85-14.77-15.65-21.88l-1.54-2.28c-2.1-3.1-9.43-13.41-15.82-16.11-4.1-1.74-8.53-1.88-11.56-.37a5.87,5.87,0,0,0-3.25,3.84l-.05.19L28.22,79c-1.7-.48-4.06.27-5.88,1.86a7.2,7.2,0,0,0-2.59,6.49l0,.22h-.22c-2.06,0-4.53,1.57-6.15,3.86A10.24,10.24,0,0,0,12.18,101l.07.2-.21,0c-2,.49-4,3.05-4.86,6.23s-.38,5.77,1.17,7.24l.31.29-.43,0c-2.19.21-4.38,2.22-5.71,5.25s-1.93,7.64.6,11l.13.16-.18.12C1.16,132.79,0,136.14.5,139c.3,1.72,1.45,4.77,5.83,5.83l.26.06-.14.23a8.29,8.29,0,0,0-.58,6.17A7.66,7.66,0,0,0,10,156.07c2.76,1.39,7.07,1.87,12.8,1.41a101.44,101.44,0,0,0,13-2.07c2.6-.56,6.44-1.65,10.88-2.91,7.83-2.22,16.69-4.74,22.6-5.49C72.35,142.06,76,117.43,76.28,115.69Z"/><path class="cls-5" d="M32.66,83l-.37-.08-4.15-4,.07-.16.06,0c.05-.18.1-.35.16-.53l.36-.79.09-.17c1,.72,2.47,2,4.32,3.56A6.73,6.73,0,0,0,32.66,83Z"/><path class="cls-5" d="M23.72,90.64h-.29c-1.63-1.25-3-2.3-4-3.1V87.4h.12a5.07,5.07,0,0,1-.07-.86l.05-1c0-.11,0-.21.05-.32C20.75,86,22.24,87,24,88.17A5.23,5.23,0,0,0,23.72,90.64Z"/><path class="cls-5" d="M15.6,101a8.8,8.8,0,0,0,.48,2.1l-.24.1-3.93-2,0-.14.12,0c-.11-.29-.19-.58-.27-.87l-.13-.75C12.91,99.93,14.25,100.44,15.6,101Z"/><path class="cls-5" d="M12.26,114a5.37,5.37,0,0,0,1.59,2.4l-.34.11L8.16,115l-.09-.16.15,0a4.27,4.27,0,0,1-.36-.38L7.05,113C8.27,113.15,10,113.51,12.26,114Z"/><path class="cls-5" d="M8.23,131.67l-.24.18-5-.28-.07-.14.08-.05a8.52,8.52,0,0,1-.53-.8l-.36-.67-.18-.43c1.57-.06,3.31-.09,5.19-.09A7,7,0,0,0,8.23,131.67Z"/><path class="cls-5" d="M2,142.6c1.7-.31,3.51-.59,5.41-.85a7.23,7.23,0,0,0,4.32,2.79l-.09.1-5.33.47h0a.25.25,0,0,1,0-.07A8.17,8.17,0,0,1,2,142.6Z"/><path class="cls-7" d="M6.1,145.39a8.76,8.76,0,0,0,5.29,5.35A4.44,4.44,0,0,0,13,151.83c5.9,2.51,17.24.69,23.07-.57,6.4-1.39,21.65-6.46,29.89-7.49a10.3,10.3,0,0,0,.91-1.9q2.43-.62,4.85-1.19a37.39,37.39,0,0,1-2.13,6.16.67.67,0,0,1-.19.28.76.76,0,0,1-.34.11c-.51.07-1,.14-1.54.23s-1.3.23-2,.36l-.52.1-1.59.34-1.1.25-1.12.26-1.14.28-1.75.44-3.55.93-1.19.33-1.2.33-1.77.49L46,152.88c-4.09,1.16-7.73,2.18-10.2,2.72l-1.3.28c-.91.19-1.91.39-3,.58l-1.63.29-1.71.28-1.88.27-1.58.19c-1,.1-1.92.19-2.88.25a36.28,36.28,0,0,1-7.73-.23l-.78-.14a10.45,10.45,0,0,1-5.73-2.82A8.32,8.32,0,0,1,6.1,145.39Z"/><path d="M9.77,156.41a8,8,0,0,1-4.27-5,8.71,8.71,0,0,1,.5-6.25,7.45,7.45,0,0,1-5.88-6.08c-.51-3,.62-6.33,2.58-7.75A9.5,9.5,0,0,1,1,126a13.74,13.74,0,0,1,1.17-5.82c1.31-3,3.44-5,5.64-5.42-1.43-1.61-1.81-4.32-1-7.34.73-2.72,2.53-5.73,4.94-6.45a10.63,10.63,0,0,1,1.34-9.69c1.63-2.31,4.12-3.9,6.25-4a7.6,7.6,0,0,1,2.75-6.63,7.37,7.37,0,0,1,6.05-2,6.28,6.28,0,0,1,3.4-3.9c3.12-1.55,7.68-1.42,11.88.36,2.39,1,5.16,3.18,8.24,6.45a79.64,79.64,0,0,1,7.74,9.8L61,93.59c4.83,7.17,12.92,19.15,15.67,21.89l.07.07v.1c-.16,1.08-3.9,26.65-7.2,31.65l0,.07h-.09c-5.88.74-14.78,3.26-22.63,5.49-4.45,1.26-8.3,2.35-10.91,2.92a100.33,100.33,0,0,1-13,2.07c-1.42.11-2.75.17-4,.17C14.93,158,11.91,157.49,9.77,156.41Zm66.51-40.72c-2.84-2.89-10.85-14.76-15.65-21.88l-1.54-2.28c-2.1-3.1-9.43-13.41-15.82-16.11-4.1-1.74-8.53-1.88-11.56-.37a5.87,5.87,0,0,0-3.25,3.84l-.05.19L28.22,79c-1.7-.48-4.06.27-5.88,1.86a7.2,7.2,0,0,0-2.59,6.49l0,.22h-.22c-2.06,0-4.53,1.57-6.15,3.86A10.24,10.24,0,0,0,12.18,101l.07.2-.21,0c-2,.49-4,3.05-4.86,6.23s-.38,5.77,1.17,7.24l.31.29-.43,0c-2.19.21-4.38,2.22-5.71,5.25s-1.93,7.64.6,11l.13.16-.18.12C1.16,132.79,0,136.14.5,139c.3,1.72,1.45,4.77,5.83,5.83l.26.06-.14.23a8.29,8.29,0,0,0-.58,6.17A7.66,7.66,0,0,0,10,156.07c2.76,1.39,7.07,1.87,12.8,1.41a101.44,101.44,0,0,0,13-2.07c2.6-.56,6.44-1.65,10.88-2.91,7.83-2.22,16.69-4.74,22.6-5.49C72.35,142.06,76,117.43,76.28,115.69ZM12.9,152a4.18,4.18,0,0,1-2.63-3,5.31,5.31,0,0,1,1.09-4.36,7.49,7.49,0,0,1-3.75-2.3,7.74,7.74,0,0,1-1.7-3.71c-.47-2.77.42-5.79,2.05-7-1.54-2.15-1.8-5.16-.72-8.29,1.18-3.41,3.65-6.17,6.23-7-1.56-1.5-2.18-4.09-1.68-7s2.1-5.5,4-6.33a9.23,9.23,0,0,1,1.33-8.35c1.64-2.32,4.27-4,6.35-4.17A6.3,6.3,0,0,1,26,85c2-1.73,4.68-2.66,6.54-2.26a4.94,4.94,0,0,1,2.25-3.88c1.84-1.08,4.65-.87,8.13.6C48.66,81.94,55.24,91.2,57.12,94l1.38,2c4.3,6.38,11.51,17.06,14,19.49l.06.07v.1c-.14,1-3.47,23.75-6.42,28.2l0,.08H66c-5.24.65-13.17,2.9-20.16,4.88-4,1.13-7.39,2.1-9.72,2.6a84.91,84.91,0,0,1-11.53,1.71c-1.23.09-2.39.13-3.48.13A21.55,21.55,0,0,1,12.9,152Zm59.21-36.3c-2.53-2.59-9.66-13.15-13.93-19.48-.5-.74-1-1.43-1.38-2-5-7.36-10.24-12.72-14.08-14.34-3.37-1.43-6.06-1.64-7.78-.63A4.67,4.67,0,0,0,32.85,83l0,.23-.23-.06c-1.71-.49-4.46.42-6.4,2.12a6.06,6.06,0,0,0-2.29,5.29l0,.22h-.23c-1.7,0-4.4,1.4-6.24,4A8.81,8.81,0,0,0,16.26,103l.06.17-.18.07c-1.87.7-3.47,3.15-4,6.1s.17,5.54,1.81,6.9l.29.24-.37.1c-2.58.67-5.11,3.43-6.29,6.86-1.07,3.09-.79,6,.77,8.1l.13.16-.17.11c-1.62,1.06-2.52,4-2,6.74a6.9,6.9,0,0,0,5.46,5.78l.31.08-.21.24a5,5,0,0,0-1.21,4.26,3.83,3.83,0,0,0,2.41,2.72c2.56,1.09,6.42,1.47,11.47,1.12A86.12,86.12,0,0,0,36,151.07c2.32-.51,5.74-1.48,9.69-2.6,7-2,14.86-4.21,20.13-4.88C68.61,139.17,71.87,117.34,72.11,115.71Z"/><path d="M32.22,82.86,28.14,79l.27-.28,4.36,4.16Z"/><path d="M23.29,90.55l-3.85-3,.23-.3c1.07.83,2.51,2,4.25,3.3Z"/><path d="M16,103.23l-4-2,.17-.35,4.11,2A3.65,3.65,0,0,1,16,103.23Z"/><path d="M13.66,116.56,8.16,115l.11-.37,5.44,1.51A1.31,1.31,0,0,1,13.66,116.56Z"/><path d="M8.21,131.65a1.13,1.13,0,0,1-.12.21L3,131.57l0-.39,5.23.3A.33.33,0,0,1,8.21,131.65Z"/><path d="M11.48,144.36l.11.19a.25.25,0,0,1,0,.19l-5.29.48,0-.38Z"/><path class="cls-1" d="M133.19,94.27c-1.69-1.16-7.53-6.5-13-9.57-6-3.39-14.27-4.94-15.81-1.23C100.71,82,89.91,83.68,89.6,88c-4.16-.16-9.1,4.4-7.25,8.18-2.54,1.23-3.7,6.86-.85,9.49-2,1,2.63,8.24,9.72,10.67C101.33,116.4,133.19,94.27,133.19,94.27Z"/><path class="cls-2" d="M128,97.71s-15.1-11.24-22.4-13.61c4.19,2.53,19.55,14.74,19.55,14.74Z"/><path class="cls-2" d="M120.24,102c-6.1-3.86-23.57-12.09-29.76-13.46C95.31,91.3,118,103.85,118,103.85Z"/><path class="cls-2" d="M110.51,108.39,83.19,96.54c6.72.77,30.78,10.17,30.78,10.17Z"/><path class="cls-3" d="M85.21,97.43c14.41,5.86,30.28,12.49,34.69,15l-.19.33c-4.4-2.54-20.26-9.17-34.66-15C85.1,97.67,85.15,97.55,85.21,97.43Z"/><path class="cls-2" d="M102.37,112.62l-20.43-6.7c5,.16,24.57,5.27,24.57,5.27Z"/><path class="cls-2" d="M95.69,115.29c-6.35-1-13.67-6.26-14.57-8,1.61,4.18,5.06,6.55,8.92,8.87A11.54,11.54,0,0,0,95.69,115.29Z"/><path class="cls-3" d="M91.22,116.56h-.06a19,19,0,0,1-7.3-4.74c-1.77-1.84-2.93-3.78-3-5.07a1.24,1.24,0,0,1,.35-1.08,6.32,6.32,0,0,1-1.47-5.38,5.78,5.78,0,0,1,2.37-4.17,4.66,4.66,0,0,1,.58-4.48,8.6,8.6,0,0,1,6.72-3.81h0A4.18,4.18,0,0,1,91.61,85c3.44-2.16,9.86-2.77,12.71-1.77a3.4,3.4,0,0,1,2.1-1.71c3.48-1.2,9.63.61,13.91,3A81.23,81.23,0,0,1,130.9,92.2c1.07.88,1.91,1.58,2.4,1.91l.23.16-.23.16c-.08,0-8.07,5.6-17.2,11.06-5.37,3.22-10.07,5.78-14,7.61-4.89,2.29-8.55,3.46-10.88,3.46ZM130.65,92.5a80.74,80.74,0,0,0-10.51-7.63c-4.9-2.76-10.62-4-13.6-3a3,3,0,0,0-1.94,1.67l-.08.18-.17-.07c-2.65-1.05-9.2-.43-12.54,1.67a3.67,3.67,0,0,0-2,2.71l0,.19H89.6A8.1,8.1,0,0,0,83,91.84a4.22,4.22,0,0,0-.48,4.27l.08.18-.17.08a5.21,5.21,0,0,0-2.33,4,5.84,5.84,0,0,0,1.52,5.2l.21.19-.25.13c-.27.13-.39.42-.36.85.08,1.19,1.22,3.08,2.9,4.83a18.5,18.5,0,0,0,7.13,4.63c4.11,0,12.62-3.81,24.64-11,8.26-4.94,15.59-10,17-10.89C132.34,93.89,131.58,93.27,130.65,92.5Zm-26.32-8.86.18-.34c6.65,3.44,21.13,15.72,21.28,15.84l-.25.3C125.39,99.31,110.94,87.06,104.33,83.64ZM89.5,88.18l.21-.32c4.19,2.66,28.46,15.76,28.7,15.89l-.18.34C118,104,93.7,90.85,89.5,88.18Zm-8.06,17.69.13-.37,20.8,7.12-.13.37Z"/><path class="cls-4" d="M81.5,105.69c-2.85-2.63-1.69-8.26.85-9.49C80.5,92.42,85.44,87.86,89.6,88c.31-4.34,11.11-6,14.82-4.55,1.54-3.71,9.79-2.16,15.81,1.23a56.47,56.47,0,0,1,6.41,4.35c-5.41-2-14.57-4.15-15.5-1.23-2.85-1.7-15.21-1.4-14.75,4.11-3.31-.13-8.61,2.49-6.42,7.62-3.45.12-5.51,5.67-2,8.33-1.32,1,.45,6,3.3,8.48C84.13,113.93,79.5,106.69,81.5,105.69Z"/><path class="cls-6" d="M122.39,86.73a35.7,35.7,0,0,0-10-4.4c-3.08-.69-6.29-.31-7.07.8C109.33,82.19,115.13,83.3,122.39,86.73Z"/><path class="cls-6" d="M105.49,84.86c-2.19-1.15-5.73-1.35-9.1-.76-3.86.68-5.64,2.87-5.78,3.51C93.53,84.91,100.16,83.6,105.49,84.86Z"/><path class="cls-6" d="M89.5,88.52a9.05,9.05,0,0,0-5.19,2.63c-1.55,1.76-1.71,3.36-1.12,4.63C83.37,92.49,85.85,89.89,89.5,88.52Z"/><path class="cls-6" d="M82.49,96.94a6,6,0,0,0-.35,8.44A9,9,0,0,1,82.49,96.94Z"/><path class="cls-5" d="M111.78,87a1.56,1.56,0,0,0-.64.82,3.48,3.48,0,0,0-.64-.3c-2.06-1.52-3.83-2.78-4.89-3.42A36.82,36.82,0,0,1,111.78,87Z"/><path class="cls-5" d="M96.57,90.54a3.11,3.11,0,0,0-.18,1.31c-2.61-1.46-4.76-2.67-5.91-3.33A45.16,45.16,0,0,1,96.57,90.54Z"/><path class="cls-5" d="M89.52,98.06a6.42,6.42,0,0,0,.41,1.4l-6.74-2.92A41.31,41.31,0,0,1,89.52,98.06Z"/><path class="cls-5" d="M86.77,106.59a4.63,4.63,0,0,0,1.15,1.29l-6-2A36.73,36.73,0,0,1,86.77,106.59Z"/><path class="cls-5" d="M88.57,112.82a12.25,12.25,0,0,0,2.48,3.39l-.29,0a16.34,16.34,0,0,1-2.63-1.26A23,23,0,0,1,84,111.68c-.25-.25-.48-.5-.7-.76l-.07-.08-.14-.18a12.33,12.33,0,0,1-1.94-3.31s0,0,0-.06C81.77,108.43,84.82,110.89,88.57,112.82Z"/><path d="M91.16,116.55a19,19,0,0,1-7.3-4.74c-1.77-1.84-2.93-3.78-3-5.07a1.24,1.24,0,0,1,.35-1.08,6.32,6.32,0,0,1-1.47-5.38,5.78,5.78,0,0,1,2.37-4.17,4.66,4.66,0,0,1,.58-4.48,8.6,8.6,0,0,1,6.72-3.81h0A4.18,4.18,0,0,1,91.61,85c3.44-2.16,9.86-2.77,12.71-1.77a3.4,3.4,0,0,1,2.1-1.71c3.48-1.2,9.63.61,13.91,3a56.1,56.1,0,0,1,6.42,4.36l1,.79-1.21-.45c-5.2-2-12-3.4-14.41-2.23a1.47,1.47,0,0,0-.83.87l-.08.24L111,88c-2.09-1.24-9.27-1.33-12.64.78a3.31,3.31,0,0,0-1.82,3.15l0,.22h-.22a7.34,7.34,0,0,0-6,2.74,4.55,4.55,0,0,0-.25,4.61l.11.26H90a3.9,3.9,0,0,0-3.39,3,4.47,4.47,0,0,0,1.46,5l.2.16L88,108a1.24,1.24,0,0,0-.37.94c-.08,1.81,1.47,5.3,3.68,7.24l.73.64Zm-5-14a4.34,4.34,0,0,1,3.48-3.2,4.9,4.9,0,0,1,.38-4.74,7.73,7.73,0,0,1,6.08-2.91h0a3.68,3.68,0,0,1,2-3.3,14.77,14.77,0,0,1,7-1.71,13.94,13.94,0,0,1,5.8.82,2,2,0,0,1,.95-.89c2.58-1.25,9.08.27,13.52,1.79a50.57,50.57,0,0,0-5.37-3.57c-4.9-2.76-10.62-4-13.6-3a3,3,0,0,0-1.94,1.67l-.08.18-.17-.07c-2.65-1.05-9.2-.43-12.54,1.67a3.67,3.67,0,0,0-2,2.71l0,.19H89.6A8.1,8.1,0,0,0,83,91.84a4.22,4.22,0,0,0-.48,4.27l.08.18-.17.08a5.21,5.21,0,0,0-2.33,4,5.84,5.84,0,0,0,1.52,5.2l.21.19-.25.13c-.27.13-.39.42-.36.85.08,1.19,1.22,3.08,2.9,4.83a18.92,18.92,0,0,0,6.3,4.32c-2-2.11-3.22-5.18-3.14-6.9a1.75,1.75,0,0,1,.34-1.07A4.86,4.86,0,0,1,86.21,102.58Z"/><path d="M111.33,87.78h-.56a57.41,57.41,0,0,0-6.44-4.15l.18-.34a59.49,59.49,0,0,1,6.82,4.42Z"/><path d="M96.06,92c-3-1.69-5.47-3.08-6.56-3.78l.21-.32c1.1.7,3.6,2.13,6.69,3.85A.74.74,0,0,1,96.06,92Z"/><path d="M89.71,99.65l-7.43-3.28.15-.35L90,99.35C89.94,99.48,89.81,99.56,89.71,99.65Z"/><path d="M87.91,107.81s0,.13,0,.15-.07,0-.08,0l-.1,0-6.3-2.15.13-.37,6.27,2.15A1.11,1.11,0,0,1,87.91,107.81Z"/><path class="cls-1" d="M215.81,72.83c-2.9-3.24-10.19-11.57-19.56-18.28s-16.25-9.3-17.8-7.39c-4.11-2.47-11.88-2.83-13,1-4-1.41-9.36,2.57-7.71,8.22-2.88.47-5.09,4.53-3.6,8.34-2.68,1.08-3,5,.1,10.49s7.07,7.3,7.07,7.3C178.43,76.11,196.17,73.39,215.81,72.83Z"/><path class="cls-2" d="M179.55,48.11c8.29,4.15,21.81,18.44,27.13,25.15-1.84.12-2.8.19-4.61.36-1.86-3.4-7.92-10.81-13.49-16.71C184.67,52.78,181.22,49.79,179.55,48.11Z"/><path class="cls-2" d="M194.55,74.44c-1.63.21-1.49.25-3.09.5a184.35,184.35,0,0,0-14-16.39c-3.51-3.66-6.84-7.2-11.23-10C175.16,51,195.17,74.36,194.55,74.44Z"/><path class="cls-2" d="M163.46,81.77l-2.11.77s-3.95-1.86-7.07-7.3c-2.15-3.75-2.66-6.8-1.89-8.69C153,72.16,157.35,78.19,163.46,81.77Z"/><path class="cls-2" d="M154.69,65.43c5.82,4.25,12.11,9.51,17.61,13.7-.8.23-2,.29-2.75.53C164.9,75.06,159.77,71.12,154.69,65.43Z"/><path class="cls-2" d="M182,76.55a27.47,27.47,0,0,1-3.66.62c-6.78-6.53-13.87-13.78-20.13-20.34C163.12,59.87,176.85,72.51,182,76.55Z"/><path class="cls-3" d="M161.27,82.72a18.68,18.68,0,0,1-7.16-7.39c-2-3.48-2.7-6.55-2-8.64a3.43,3.43,0,0,1,1.8-2,7.09,7.09,0,0,1,.48-5.87,5,5,0,0,1,3.13-2.51,6.6,6.6,0,0,1,1.81-6.71,6.26,6.26,0,0,1,6-1.61,3.82,3.82,0,0,1,2.38-2.26c2.81-1.12,7.56-.56,10.67,1.23,1.89-1.86,9,1.11,17.94,7.48A120.64,120.64,0,0,1,215.6,72.31l.63.7h-.42c-21.12.6-38.4,3.68-54.39,9.7l-.08,0Zm54-10.15c-3-3.42-10.17-11.42-19.17-17.87a60.84,60.84,0,0,0-11.8-6.9c-3-1.21-5-1.39-5.74-.52l-.1.13-.15-.09c-3-1.8-7.7-2.38-10.46-1.28a3.36,3.36,0,0,0-2.21,2.2l-.06.2-.19-.07a5.81,5.81,0,0,0-5.81,1.46A6.28,6.28,0,0,0,158,56.36l.06.21-.21,0A4.56,4.56,0,0,0,154.74,59a6.7,6.7,0,0,0-.38,5.72l.07.17-.18.08a3,3,0,0,0-1.75,1.88c-.68,2,0,5,1.95,8.33a18.5,18.5,0,0,0,6.91,7.19c15.9-6,33.08-9,54-9.68Z"/><path class="cls-3" d="M202.78,73.66l.3-.23C203,73.25,189.45,56,178.58,47l-.25.3C189.17,56.27,202.64,73.49,202.78,73.66Z"/><path class="cls-3" d="M191.36,75l.3-.24c0-.06-4.6-5.83-10-12-7.35-8.26-12.74-13.22-16-14.75l-.16.35C173.17,52,191.18,74.75,191.36,75Z"/><path class="cls-3" d="M177.92,77.56l.29-.25c-1.94-2.3-10.84-11.37-16.15-16.79-2-2-3.56-3.63-4.14-4.24l-.28.27c.58.61,2.15,2.21,4.14,4.24C167.09,66.2,176,75.27,177.92,77.56Z"/><path class="cls-3" d="M169.27,79.92l.28-.26c-.79-.88-3-3-5.63-5.44-3.93-3.71-8.83-8.33-9.58-9.57l-.33.2c.77,1.28,5.49,5.73,9.65,9.65C166.24,76.94,168.48,79,169.27,79.92Z"/><path class="cls-4" d="M154.28,75.24c-3.13-5.45-2.78-9.41-.1-10.49-1.49-3.81.72-7.87,3.6-8.34-1.65-5.65,3.73-9.63,7.71-8.22,1.08-3.86,8.85-3.5,13-1,1.53-1.89,8.31.63,17.56,7.22-3.93-2-10.21-4.14-11.53-1.73-3.51-2.25-11.4-2.73-10.75,2.06-4.43-1.69-10.79,2.15-9.77,8-2.94-.45-5.14,3.92-3,8.85-3-.65-3.46,5-1.77,9.49A20.66,20.66,0,0,1,154.28,75.24Z"/><path class="cls-6" d="M190.71,51.44c-1.08-.64-9.39-5.44-11.16-3.95C182.18,47.2,190.71,51.44,190.71,51.44Z"/><path class="cls-6" d="M179.77,49.14a11.54,11.54,0,0,0-6.08-2.88c-2.86-.46-5.91.15-6.78,1.21C169.06,46.68,175.44,46.11,179.77,49.14Z"/><path class="cls-6" d="M168.32,50.77c-.93-.76-4.08-3.43-7.41-1.25-2.82,1.84-2.59,6.24-2.59,6.24.71-3.15,1.51-5.16,3.8-6S166.67,49.82,168.32,50.77Z"/><path class="cls-6" d="M157.64,57.63a5.11,5.11,0,0,0-1.71,7.8A8.21,8.21,0,0,1,157.64,57.63Z"/><path class="cls-5" d="M185.33,51.89a1.76,1.76,0,0,0-.85.76l-.37-.22c-2-1.88-3.57-3.33-4.56-4.32A37.3,37.3,0,0,1,185.33,51.89Z"/><path class="cls-5" d="M173.88,53.11a3.29,3.29,0,0,0-.15,1.6l0,0a46,46,0,0,0-7.47-6.16C168.3,49.11,171,50.82,173.88,53.11Z"/><path class="cls-5" d="M153.61,74a20.68,20.68,0,0,1-.85-2c-.61-1.68-1.07-3.69-.37-5.41a19.78,19.78,0,0,0,5.94,11.25,15.85,15.85,0,0,0,.83,3.27l-.06,0a21,21,0,0,1-5.47-7Z"/><path class="cls-5" d="M154.69,65.43c1.84,1.35,3.73,2.8,5.63,4.28a11.3,11.3,0,0,0,.61,1.87l-.17,0C158.75,69.69,156.71,67.7,154.69,65.43Z"/><path class="cls-5" d="M163.86,61.11a6.92,6.92,0,0,0,.1,1.62h-.08c-1.95-2-3.85-4-5.68-5.89A61.18,61.18,0,0,1,163.86,61.11Z"/><path d="M159,81.22a20.92,20.92,0,0,1-4.93-5.89c-2-3.48-2.7-6.55-2-8.64a3.43,3.43,0,0,1,1.8-2,7.09,7.09,0,0,1,.48-5.87,5,5,0,0,1,3.13-2.51,6.6,6.6,0,0,1,1.81-6.71,6.26,6.26,0,0,1,6-1.61,3.82,3.82,0,0,1,2.38-2.26c2.81-1.12,7.56-.56,10.67,1.23.89-.88,3-.71,6,.5a60.49,60.49,0,0,1,11.71,6.81l-.2.33c-4.64-2.32-10.14-3.87-11.28-1.8l-.09.18-.18-.11c-2.39-1.55-7.06-2.27-9.28-.86a2.57,2.57,0,0,0-1.17,2.72L174,55l-.31-.11a7.41,7.41,0,0,0-7.09,1.42,6.64,6.64,0,0,0-2.42,6.39l0,.26-.26,0a2.68,2.68,0,0,0-2.56,1.14c-1,1.32-1.71,4.06-.27,7.44l.15.34-.36-.08a1.59,1.59,0,0,0-1.61.52c-1.23,1.43-1.2,5.35.06,8.73l.25.66Zm1.58-9.88c-1.1-2.82-.93-5.74.45-7.52a3.08,3.08,0,0,1,2.66-1.31,7,7,0,0,1,2.6-6.5,7.75,7.75,0,0,1,7.18-1.58,2.9,2.9,0,0,1,1.38-2.8c2.31-1.47,7-.8,9.52.76.71-1,2.36-1.26,4.89-.71a29,29,0,0,1,4.8,1.6c-9-6.12-14.32-7.45-15.5-6l-.1.13-.15-.09c-3-1.8-7.7-2.38-10.46-1.28a3.36,3.36,0,0,0-2.21,2.2l-.06.2-.19-.07a5.81,5.81,0,0,0-5.81,1.46A6.28,6.28,0,0,0,158,56.36l.06.21-.21,0A4.56,4.56,0,0,0,154.74,59a6.7,6.7,0,0,0-.38,5.72l.07.17-.18.08a3,3,0,0,0-1.75,1.88c-.68,2,0,5,1.95,8.33l-.17.1.17-.1a20.58,20.58,0,0,0,4.3,5.33c-1.1-3.37-1-7,.24-8.44a1.91,1.91,0,0,1,1.48-.7Z"/><path d="M184.1,52.56c-1.95-1.91-3.9-3.71-5.77-5.25l.25-.3c2,1.63,4,3.53,6.07,5.55Z"/><path d="M173.5,54.58h-.19c-3-2.92-5.82-5.26-7.9-6.22l.16-.35c2,.93,4.79,3.13,8.31,6.57Z"/><path d="M163.55,62.59l-1.77-1.8c-2-2-3.56-3.63-4.14-4.24l.28-.27c.58.61,2.15,2.21,4.14,4.24l2,2.06Z"/><path d="M154.34,64.65c.57.94,3.55,3.85,6.67,6.82a.73.73,0,0,0-.32,0l-.08.09c-3.16-3-6-5.79-6.6-6.76Z"/><path class="cls-1" d="M279.23,138.47c1.08,3,6.73,6.65,6.79,10.65.05,3-4,7.17-10.26,7.48-4.94,1.62-18.76,13.31-31.95,12.62-5.44,4.28-23,9.37-49.83,12.51-29,.08-50.49,2.53-77.22-7.69-21-8-37.4-18.79-46.56-25.11-3.72-2.58-6.18-3.53-6.56-4.36-1.29-2.83-2.4-11.16,0-18.29,1.74-5.16,6.72-10.68,9.49-11a46.43,46.43,0,0,0,27.19-4.4c15.16-7.41,42.36-26.66,67.9-33.91,20.05-5.7,37.29-8.9,56.47-4.79,11.09,2.39,25.23,5.4,39,21.91,9.09,10.86,13.43,20.22,16.21,24.54s5,5.55,5,5.55Z"/><path class="cls-8" d="M279,119.22c-2.93-4.08-7.63-12.38-16.71-23.23-13.81-16.51-26.88-18.67-38-21-19.18-4.12-35.64-1-55.69,4.72-25.54,7.26-52.32,26.5-67.48,33.91-14.5,7.09-26.92,1.61-28,1.73a46.43,46.43,0,0,0,27.19-4.4c15.16-7.41,42.36-26.66,67.9-33.91,20.05-5.7,37.29-8.9,56.47-4.79,11.09,2.39,25.23,5.4,39,21.91,9.09,10.86,13.43,20.22,16.21,24.54s5,5.55,5,5.55S282,123.39,279,119.22Z"/><path class="cls-9" d="M137.49,171.28a27,27,0,0,1-3.12-1,16.83,16.83,0,0,1,2.9.92Z"/><path class="cls-9" d="M137.49,171.28l.72.17A3.44,3.44,0,0,1,137.49,171.28Z"/><path class="cls-2" d="M71.25,142.57c9.32,6.4,36.45,21.58,64.12,27.42,23.94,5.06,46.5,1.19,55.06.78,13.87-.66,32.58-3.44,35.81-12.81,8.19,3.07,17.68,5.58,27.25,3.75a52.57,52.57,0,0,0,15.24-5.91c-2.08-1-4.73-3.33-4.73-3.86,1.51,1.25,8.65,3.13,14.62,2,3.69-.67,6.71-2,7.39-5a.49.49,0,0,1,0,.12c.05,3-4,7.17-10.26,7.48-4.94,1.62-18.76,13.31-31.95,12.62-5.44,4.28-23,9.37-49.83,12.51-29,.08-50.49,2.53-77.22-7.69-21-8-37.4-18.79-46.56-25.11-3.72-2.58-6.18-3.53-6.56-4.36-1-2.18-1.88-7.66-1.13-13.33C63.52,137.83,66.89,139.57,71.25,142.57Z"/><path class="cls-10" d="M190.48,126.07a28.93,28.93,0,0,1,2.63-17.21,130.47,130.47,0,0,1,11.77-19.49c.7-1.23,1.05-2.64,1.75-3.69,2.81-4.56,7.2-7,10.54-11.41.79-1.19,2.27-1.78,3.11-2.89,1.46.23,2.93.51,4.41.82a83.68,83.68,0,0,1,17.81,5.35c-4.05,2.7-6.56,7.77-9.71,11.82-.87,1.23-1.75,2.28-2.63,3.69-9.48,14.39-15.63,29.67-12.82,47.05a54.14,54.14,0,0,0,2.46,8.08,44.21,44.21,0,0,0,8.43,14.75c3.22,3.67,7.29,6.21,11.4,8.69a89,89,0,0,1-15.7,5c-5-2.57-10.18-4.71-14.66-8.27C196.45,158.2,192.94,141.69,190.48,126.07Z"/><path class="cls-10" d="M74.34,115.41a44.73,44.73,0,0,0,13.21-.33C91.2,120,91,127.22,90,133.27a39.68,39.68,0,0,1-6.85,16.15A27.54,27.54,0,0,1,79,154.78c-3.42-2.17-6.37-4.17-8.81-5.85-1.7-1.18-3.13-2-4.23-2.65C71.72,137.31,73.87,126,74.34,115.41Z"/><path class="cls-10" d="M135,172.07c1.58-5.44,2.64-10.89,4.39-16.5,3.69-11.42,3.16-23.36,2.46-35.3a42.89,42.89,0,0,0-2.46-10.18c-1.4-3.87-2.63-7.55-3.86-11.42-.75-2.12-2-4-2.91-6,6.58-3.62,13.51-7.17,20.51-10.19A81.09,81.09,0,0,1,165,106.93c2.46,8.25,1.58,16.5,1.23,24.93,0,.18.7.35.7.53-1.23,6.85-1.23,13.34-3.16,19.84-2.46,9.13-4.92,17.73-9.13,26.16-.62,1.15-1.2,2.22-1.82,3.26a127.68,127.68,0,0,1-20-2.75,43,43,0,0,0,2.66-6.3C135.52,172.42,134.82,172.25,135,172.07Z"/><path class="cls-11" d="M239.63,171.63a89,89,0,0,1-15.7,5c-4.94-2.57-10.16-4.7-14.63-8.24,7.35-1.7,13.69-4.46,16.23-8.9a39.44,39.44,0,0,0,2.7,3.43C231.45,166.61,235.52,169.15,239.63,171.63Z"/><path class="cls-11" d="M71.25,142.57c2.63,1.81,6.69,4.32,11.77,7.11a26.17,26.17,0,0,1-4,5.1c-4.37-2.78-8.64-5.77-13-8.52,1-1.77,2-3.47,2.88-5.32C69.62,141.47,70.42,142,71.25,142.57Z"/><path class="cls-11" d="M135,172.07q.3-1,.57-2a123.53,123.53,0,0,0,21.76,2.47c-.81,2-1.69,3.94-2.66,5.89-.62,1.15-1.2,2.22-1.82,3.26l-1.24-.08h0l-1.24-.1h0c-3.31-.26-6.61-.63-9.94-1.14h0l-1.19-.19-.13,0-1.09-.19-.19,0-1-.19-.22,0-1-.2-.24,0-1-.21-.25-.05-1-.22-.16,0a43,43,0,0,0,2.66-6.3C135.52,172.42,134.82,172.25,135,172.07Z"/><path class="cls-3" d="M148.46,181.51a116.51,116.51,0,0,1-31.77-7.29A202.86,202.86,0,0,1,89,161c-8.12-4.63-14.65-9-18.86-11.93-1.65-1.13-3-1.94-4.13-2.59-1.41-.82-2.26-1.32-2.49-1.84a22.14,22.14,0,0,1-1.4-7.6,30.47,30.47,0,0,1,1.39-10.83,23,23,0,0,1,4.39-7.38c1.92-2.19,3.89-3.58,5.26-3.73a6.82,6.82,0,0,1,1.11.09,45.31,45.31,0,0,0,26-4.47c4.59-2.25,10.2-5.53,16.7-9.33,14.89-8.71,33.4-19.54,51.22-24.6,11.73-3.33,20.55-5.2,28.6-6.08a86.65,86.65,0,0,1,28,1.3h0c5.56,1.2,11.86,2.55,18.52,5.68A59.54,59.54,0,0,1,263.87,94a130.05,130.05,0,0,1,13.8,20.43c.93,1.64,1.73,3,2.42,4.12C282.8,122.76,285,124,285,124l.15.08-5.74,14.37a14.6,14.6,0,0,0,2.81,3.8c1.84,2.06,3.93,4.38,4,6.84a6.68,6.68,0,0,1-2.84,4.9,13,13,0,0,1-7.57,2.77,38.64,38.64,0,0,0-6.05,3.27c-6.29,3.76-15.65,9.38-24.81,9.38l-1.07,0c-2.87,2.22-8.71,4.53-16.9,6.67a249.32,249.32,0,0,1-33,5.83h0c-4.74,0-9.28.09-13.68.16s-8.8.15-13.09.15C160.84,182.23,154.62,182.07,148.46,181.51Zm78.42-5.79c8.07-2.11,14-4.47,16.81-6.65l.06,0h.07c.37,0,.75,0,1.12,0,9.05,0,18.36-5.59,24.61-9.34a38.5,38.5,0,0,1,6.15-3.3h.05a12.7,12.7,0,0,0,7.38-2.69,6.37,6.37,0,0,0,2.7-4.6c0-2.31-2.07-4.58-3.87-6.58a14.67,14.67,0,0,1-2.91-4l0-.07,5.67-14.19c-.55-.35-2.53-1.79-4.94-5.53-.69-1.08-1.5-2.5-2.43-4.14a130,130,0,0,0-13.75-20.37C249.83,77.8,235.89,74.8,224.69,72.4h0c-18.76-4-35.48-1.15-56.38,4.78C150.5,82.22,132,93,117.14,101.73c-6.51,3.81-12.13,7.09-16.73,9.34a45.64,45.64,0,0,1-26.24,4.51,8.69,8.69,0,0,0-1-.09c-1.28.14-3.15,1.49-5,3.6a22.62,22.62,0,0,0-4.32,7.26c-2.45,7.28-1.19,15.54,0,18.14.18.41,1,.91,2.33,1.67,1.12.65,2.5,1.46,4.16,2.61,10.18,7,26.07,17.26,46.52,25.09,22.31,8.54,41.38,8.21,63.46,7.84,4.4-.08,8.94-.15,13.68-.17A250.07,250.07,0,0,0,226.88,175.72Z"/><path class="cls-12" d="M219.52,153.27a48.36,48.36,0,0,1-5.17-20.49A61,61,0,0,1,217.21,112a74.51,74.51,0,0,1,8-17.19A82,82,0,0,1,235,82.13a59.85,59.85,0,0,1,5.71-5.36c1.56.65,3.14,1.38,4.74,2.22C242,81.4,235.21,87.57,229.13,97.3c-4.95,7.91-10.73,20.46-10.15,35.3.48,12.37,5,22.41,13.55,29.82a41.28,41.28,0,0,0,11.14,6.91,24.49,24.49,0,0,1-5.07,2.76,46.38,46.38,0,0,1-8.94-6A43,43,0,0,1,219.52,153.27Z"/><path class="cls-12" d="M194.6,154.13c-4.71-8.86-6.73-15.94-7.17-25-.68-14,3.78-27.93,12.11-39.8a98.7,98.7,0,0,1,17-18.47q3,.34,6.13.93c-19.9,16.16-29.46,35.37-28.4,57.14.73,15.12,6.46,27.56,17,37a51,51,0,0,0,15.87,9.76l0,.15c-2.19.58-4.58,1.15-7.13,1.7a73.9,73.9,0,0,1-11.62-8C202.7,164.9,197.72,160,194.6,154.13Z"/><path class="cls-12" d="M164.46,133.58c.85-19.65-3.9-36.86-13.78-50.05,1.45-.66,2.9-1.28,4.36-1.89a70.12,70.12,0,0,1,8.52,15.67c4.25,10.84,6.1,23.11,5.52,36.47a94.28,94.28,0,0,1-3.67,22.1,101.19,101.19,0,0,1-6.69,17.05,99.67,99.67,0,0,1-5,8.77c-1.77-.1-3.53-.23-5.3-.39a90.19,90.19,0,0,0,6.18-10.58A93.58,93.58,0,0,0,164.46,133.58Z"/><path class="cls-12" d="M130.94,93.8,135,91.57A77.9,77.9,0,0,1,141.17,109a113.33,113.33,0,0,1,2.86,24.1,115,115,0,0,1-2.51,25.77,92.37,92.37,0,0,1-6.92,20.52c-1.54-.31-3.08-.67-4.63-1.06C143.29,151.49,141.38,114.26,130.94,93.8Z"/><path class="cls-12" d="M87.27,135.59c2.1-9.72-.42-17.34-4-19.83l.1-.15a46.07,46.07,0,0,0,5.43-.76,19.54,19.54,0,0,1,3,6.63,33.09,33.09,0,0,1,0,15.09,41.38,41.38,0,0,1-8.17,16.36c-.94,1.18-1.84,2.21-2.66,3.09-1.39-.87-2.72-1.72-4-2.54.89-.92,2-2.11,3.07-3.51A36.81,36.81,0,0,0,87.27,135.59Z"/><path class="cls-12" d="M63.64,144.57a7.17,7.17,0,0,1-.33-.88,39.92,39.92,0,0,0,7.53-16.14,41.68,41.68,0,0,0,1-11.83,3.82,3.82,0,0,1,1.28-.42c.31,0,1.49.17,3.36.32a46.55,46.55,0,0,1-1.14,12.95,44.35,44.35,0,0,1-8.56,18.18C65,145.7,63.89,145.11,63.64,144.57Z"/><path class="cls-3" d="M274.87,156.82q.47,0,.9,0l0-.38c-4,.19-9.25-.89-11.75-4.47a5.62,5.62,0,0,0,2.37,2.72A16.41,16.41,0,0,0,274.87,156.82Z"/><path class="cls-13" d="M272.93,140.71a11,11,0,0,1,6.56,4.5c1.51,2.4,1.24,3.85-.49,4.76s-6.58.73-11.42-1.91a29.17,29.17,0,0,1-8.74-7.56Z"/><path class="cls-14" d="M267.58,148.06a29.17,29.17,0,0,1-8.74-7.56l11.87.18c3.65,2,9.27,6.61,7.88,9.46C276.66,150.79,272.07,150.51,267.58,148.06Z"/><path class="cls-15" d="M270.71,140.68h0c-2,.33-4.22,1.95-3.35,4,2.1,4.94,10.25,5.76,11.42,4.62a2.28,2.28,0,0,1-.22.84c-1.93.65-6.52.37-11-2.08a29.17,29.17,0,0,1-8.74-7.56Z"/><path class="cls-16" d="M274,150.45a20,20,0,0,1-6.53-2.22,29.92,29.92,0,0,1-8.81-7.61l-.22-.31,12.3.18.05,0a25.43,25.43,0,0,1,5.87,4.43c2,2.11,2.74,3.94,2.09,5.28l0,.07-.07,0a7.65,7.65,0,0,1-2.37.31A15.47,15.47,0,0,1,274,150.45Zm2.38-5.24a25,25,0,0,0-5.74-4.34l-11.43-.17a29.6,29.6,0,0,0,8.44,7.2h0c4.41,2.39,8.92,2.66,10.79,2.08C279.1,148.49,277.7,146.57,276.4,145.21Z"/><path class="cls-3" d="M274.48,150.51a19.64,19.64,0,0,1-7-2.28,29.92,29.92,0,0,1-8.81-7.61l-.22-.31,14.47.21h0a11.17,11.17,0,0,1,6.69,4.59c.87,1.38,1.18,2.49.94,3.37a2.7,2.7,0,0,1-1.5,1.66,6.48,6.48,0,0,1-2.8.49A14.59,14.59,0,0,1,274.48,150.51Zm-15.25-9.81a29.6,29.6,0,0,0,8.44,7.2c4.7,2.55,9.63,2.74,11.24,1.9a2.33,2.33,0,0,0,1.31-1.42,4.1,4.1,0,0,0-.89-3.07,10.76,10.76,0,0,0-6.42-4.41Z"/><path class="cls-1" d="M258.84,140.5c2.42,1.29,10.31,3.38,18.73.83,7.76-2.36,12-7.69,12.23-12.06s-4.45-6.48-6.05-6c-2.4.76-2.9,7.57-8,11.4-5.32,4-13.68,4.32-15.58,3.29l-2.06.47Z"/><path class="cls-2" d="M288.37,125.29a5.43,5.43,0,0,1,1.43,4c-.21,4.37-4.47,9.7-12.23,12.06-8.42,2.55-16.31.46-18.73-.83l-.72-2.05.31-.07c3.31,1.25,12.29,3.31,20.19.09C284.28,136.17,289.81,129.87,288.37,125.29Z"/><path class="cls-3" d="M258.75,140.67l-.07,0-.81-2.33,2.33-.53.07,0c.85.46,3.32.69,6.39.23a20.65,20.65,0,0,0,9-3.5c2.82-2.12,4.2-5.15,5.32-7.59.89-1.94,1.6-3.48,2.73-3.84.94-.3,2.63.23,3.93,1.22a5.83,5.83,0,0,1,2.37,5,11.19,11.19,0,0,1-3.33,6.91,20.69,20.69,0,0,1-9,5.32,28.84,28.84,0,0,1-8.36,1.21A25,25,0,0,1,258.75,140.67Zm25.06-17.19c-1,.31-1.65,1.77-2.5,3.63-1.13,2.48-2.54,5.56-5.43,7.74a21,21,0,0,1-9.17,3.57c-2.77.42-5.44.32-6.56-.23l-1.78.4.63,1.78c2.58,1.34,10.38,3.24,18.52.77s11.9-7.87,12.09-11.88a5.85,5.85,0,0,0-5.32-5.85A1.39,1.39,0,0,0,283.81,123.48Z"/><path class="cls-1" d="M262.64,137.73c-2,.57-5.34,4.55-6.11,7C254.34,137.7,256.76,135.8,262.64,137.73Z"/><path class="cls-3" d="M256.53,144.72c1.12-2.53,4.43-6.32,6.11-7a3.75,3.75,0,0,0-2,1,22.43,22.43,0,0,0-3.13,3.63A4.45,4.45,0,0,0,256.53,144.72Z"/><path class="cls-2" d="M255.64,102.45c9.86-.74,13,16.58,11.19,22.17-2.21,6.94-17.21,7.88-20.28,3.49S244,103.33,255.64,102.45Z"/><path d="M249.45,105.56a9.06,9.06,0,0,1,6.19-3.11,7.74,7.74,0,0,1,6.09,2.31,9.12,9.12,0,0,0-6.14-1.81C253.42,103.06,251.71,104,249.45,105.56Z"/><path d="M255.64,105.37c9.86-.67,13,14.87,11.19,19.88-2.21,6.23-17.21,7.08-20.28,3.13S244,106.16,255.64,105.37Z"/><path class="cls-10" d="M255.65,106.42c9.65-.64,12.69,14.26,11,19.06-2.16,6-16.84,6.78-19.85,3S244.28,107.18,255.65,106.42Z"/><path class="cls-11" d="M266.93,119.85a13.11,13.11,0,0,1-.33,5.63c-2.16,6-16.84,6.78-19.85,3-1.1-1.39-1.73-4.66-1.51-8.26C247.25,129.75,264,129,266.93,119.85Z"/><path d="M251.3,130.73c-1.57-.26-3.67-.83-4.7-2.13S245.06,125,245,122a21.92,21.92,0,0,1,1.7-9c1.29-2.91,3.88-6.46,8.92-6.79a8.89,8.89,0,0,1,7.89,3.92,19.85,19.85,0,0,1,3.38,8.24,15.13,15.13,0,0,1-.11,7.16,6.6,6.6,0,0,1-3.22,3.38,16.89,16.89,0,0,1-5.36,1.74,23.7,23.7,0,0,1-3.75.3A20.15,20.15,0,0,1,251.3,130.73Zm4.36-24.12c-4.85.33-7.35,3.75-8.6,6.56-2.53,5.74-1.85,13.06-.16,15.19,1.13,1.41,4.08,2.23,7.53,2.23a23.9,23.9,0,0,0,3.72-.3c4.33-.72,7.43-2.54,8.27-4.87a14.84,14.84,0,0,0,.1-7,19.44,19.44,0,0,0-3.31-8.07,8.49,8.49,0,0,0-6.95-3.8Z"/><ellipse class="cls-17" cx="255.12" cy="120.91" rx="5.45" ry="7.32" transform="translate(-12.54 31.12) rotate(-6.81)"/><ellipse cx="255.18" cy="122.25" rx="3.92" ry="4.42" transform="translate(-7.05 15.96) rotate(-3.53)"/><path class="cls-10" d="M255.07,117.9a1.75,1.75,0,1,0,1.64-1.86A1.76,1.76,0,0,0,255.07,117.9Z"/><path class="cls-18" d="M251.76,126.64a9.37,9.37,0,0,1-1.25-10.51,5,5,0,0,1,3.72-2.69c3.09-.36,6,2.68,6.49,6.8S259.1,128,256,128.37a4.53,4.53,0,0,1-.52,0A5.17,5.17,0,0,1,251.76,126.64Zm2.51-12.81a4.65,4.65,0,0,0-3.43,2.49,9.05,9.05,0,0,0,1.2,10.06A4.66,4.66,0,0,0,256,128c2.88-.34,4.85-3.8,4.38-7.7-.44-3.7-2.9-6.49-5.6-6.49A3.71,3.71,0,0,0,254.27,113.83Z"/><path class="cls-4" d="M261.26,97.25c-.26-1.59-1.91-6.27-6.38-6.53-3.7-.21-8.51,3.7-9.16,10.54C247.7,97.35,255.12,91.64,261.26,97.25Z"/><path class="cls-5" d="M261.26,97.25c-4.15-8.1-13.8-3-15.54,4C247.7,97.35,255.12,91.64,261.26,97.25Z"/><path d="M245.53,101.24a13.34,13.34,0,0,1,3.49-8,7.9,7.9,0,0,1,5.87-2.68c4.54.26,6.27,4.92,6.56,6.69l.08.55-.4-.38a7.93,7.93,0,0,0-7-2.15,12.56,12.56,0,0,0-8.18,6.11l-.46.91ZM261,96.73c-.49-1.94-2.21-5.6-6.08-5.82a7.6,7.6,0,0,0-5.58,2.57,12.78,12.78,0,0,0-3.26,6.87,13.1,13.1,0,0,1,8-5.49,8.09,8.09,0,0,1,1.54-.14A8.42,8.42,0,0,1,261,96.73Z"/><path class="cls-1" d="M199.49,177.28c-2.06,7.66-12.54,22-19,27.7-5.85,5.19-11.88,5.62-12.91,4.29-2.28,2.14-8.79,2-9.1-1.29-3,.93-8.59-3.7-6.84-8.43-2.16,0-4.22-5.25-.77-8.13-1.29-1.7.82-8.43,9.2-10.8s20.93-3.08,30.76-6.84A54.72,54.72,0,0,1,199.49,177.28Z"/><path class="cls-2" d="M179.39,204.17c5.64-4.94,16.71-19.71,18.58-27.63.93.43,1.52.74,1.52.74-2.06,7.66-12.54,22-19,27.7-5.5,4.88-11.16,5.55-12.67,4.51C170.05,209.9,173.87,209,179.39,204.17Z"/><path class="cls-2" d="M151,191.6l3.14-1.19c9.29-3.49,31-11.67,38.06-16.11l-2.94-.13c-7.56,3.57-25.85,11.49-35.12,15-1.38.51-2.91,1.13-3.59,1.39Z"/><path class="cls-2" d="M151.8,199.68c1.77-1.85,8.67-5.53,16.66-9.79,9.4-5,20.06-10.7,25.57-15.11l-1.4-.8c-5,4.37-15.4,9.66-24.79,14.67-8,4.28-15.75,8.32-17.57,10.21Z"/><path class="cls-2" d="M158.6,208.14c3.22-2,28.44-23.73,37.25-32.47l-1.77-.6c-8.79,8.74-34.22,30.9-37.42,32.93Z"/><path class="cls-2" d="M167.72,209.42c1.18-.94,7.15-6.69,13.34-13.28,5.63-6,13-14.3,16.15-19.93l-1.51-.67c-3.13,5.6-10,13.59-15.64,19.56-6.58,7-13.62,14.5-14.61,15.28Z"/><path class="cls-3" d="M160.48,210.46a3.07,3.07,0,0,1-2.14-2.24c-1.51.33-3.61-.55-5.19-2.21a6.37,6.37,0,0,1-1.76-6.29,3.29,3.29,0,0,1-2.19-2.33,5.49,5.49,0,0,1,1.43-6,4.08,4.08,0,0,1,.05-3.14,10.83,10.83,0,0,1,2.93-4.34,15.6,15.6,0,0,1,6.43-3.48c3.38-1,7.42-1.63,11.7-2.36,6.48-1.09,13.18-2.23,19-4.47l.06,0h.06a54.17,54.17,0,0,1,8.68,3.52l.14.07,0,.15c-1,3.51-3.82,8.85-7.88,14.64a82.62,82.62,0,0,1-11.16,13.15c-4.25,3.78-8.84,5.21-11.5,5a2.79,2.79,0,0,1-1.55-.54,7.29,7.29,0,0,1-4.49,1.36A7.47,7.47,0,0,1,160.48,210.46Zm7.27-1.31a2.08,2.08,0,0,0,1.43.54c2.57.25,7-1.16,11.21-4.86a82.27,82.27,0,0,0,11.09-13.08c4-5.68,6.81-10.9,7.78-14.37a54,54,0,0,0-8.4-3.4c-5.88,2.24-12.58,3.38-19.06,4.47a118.82,118.82,0,0,0-11.66,2.36c-5.34,1.5-8.2,4.89-9.09,7.57a3.41,3.41,0,0,0,0,2.92l.11.15-.14.12a5.07,5.07,0,0,0-1.44,5.69c.45,1.25,1.29,2.09,2.09,2.09h.27l-.09.26a5.91,5.91,0,0,0,1.59,6.13c1.56,1.64,3.62,2.49,5,2.06l.23-.07,0,.23a2.66,2.66,0,0,0,1.93,2.14c2.17.82,5.44.36,6.85-1l.15-.15Z"/><path class="cls-3" d="M151,191.6l3.14-1.19c9.29-3.49,31-11.67,38.06-16.11L192,174c-7,4.43-28.72,12.59-38,16.08l-3.14,1.19Z"/><path class="cls-3" d="M151.8,199.68c1.77-1.85,8.67-5.53,16.66-9.79,9.4-5,20.06-10.7,25.57-15.11l-.24-.3c-5.48,4.39-16.12,10.06-25.51,15.07-8,4.28-14.94,8-16.76,9.86Z"/><path class="cls-3" d="M158.6,208.14c3.22-2,28.44-23.73,37.25-32.47l-.27-.28c-8.8,8.74-34,30.39-37.19,32.43Z"/><path class="cls-3" d="M167.72,209.42c1.18-.94,7.15-6.69,13.34-13.28,5.63-6,13-14.3,16.15-19.93l-.33-.19c-3.13,5.6-10.48,13.89-16.1,19.86-6.58,7-12.3,12.45-13.3,13.24Z"/><path class="cls-4" d="M167.6,209.27c-2.28,2.14-8.79,2-9.1-1.29-3,.93-8.59-3.7-6.84-8.43-2.16,0-4.22-5.25-.77-8.13-1.29-1.7.82-8.43,9.2-10.8l.82-.22c-4.56,3.28-7.19,7-5.84,9.44a4,4,0,0,0,1.1,6.58c-.53,2,1,7.4,7.42,7.56.1,1.43,4.86,3,8.93.64,1,1.19,4.34,1.48,9.33-.9-.46.45-.91.88-1.34,1.26C174.66,210.17,168.63,210.6,167.6,209.27Z"/><path class="cls-5" d="M178.34,205.06a21.29,21.29,0,0,0,3.51-1.34c-.11.12-.23.23-.34.34a20.26,20.26,0,0,1-10.27,5.71c-1,.17-2.52.38-3.35-.25.44,0,.89.07,1.34,0a8.46,8.46,0,0,0,1.66-.27,15.78,15.78,0,0,0,4.24-1.93A29.34,29.34,0,0,0,178.34,205.06Z"/><path class="cls-5" d="M151,191.6l-.07-.17h0l0,0-.25-.6a2.33,2.33,0,0,1-.05-.28c.7-.27,2.19-.86,3.53-1.36l.66-.26a2.88,2.88,0,0,0,.32,1,2.5,2.5,0,0,0-.32.33l-.66.24Z"/><path class="cls-5" d="M151.53,199.54l-1.19-.64-.05-.05a25.56,25.56,0,0,1,4.68-3.19,3.24,3.24,0,0,0,1.2.76,1.84,1.84,0,0,0,0,.25,23.48,23.48,0,0,0-4.32,3l-.16-.08s0,0,0,0Z"/><path class="cls-5" d="M163.59,204a1.94,1.94,0,0,0,0,.2c-2.49,2.06-4.32,3.51-5,4h-.08a.78.78,0,0,1,0-.16,2.36,2.36,0,0,1-.6.11l-1-.07-.19-.05c.76-.49,2.66-2,5.23-4.17A10.55,10.55,0,0,0,163.59,204Z"/><path class="cls-5" d="M170.2,205.56a8.91,8.91,0,0,0,2.32-.94l.13.14c-2.46,2.43-4.3,4.15-4.91,4.65a.92.92,0,0,1-.14-.14,3.7,3.7,0,0,1-.62.46l-1.52.65h0C165.92,210,167.73,208.15,170.2,205.56Z"/><path d="M160.48,210.46a3.07,3.07,0,0,1-2.14-2.24c-1.51.33-3.61-.55-5.19-2.21a6.37,6.37,0,0,1-1.76-6.29,3.29,3.29,0,0,1-2.19-2.33,5.49,5.49,0,0,1,1.43-6,4.08,4.08,0,0,1,.05-3.14,10.83,10.83,0,0,1,2.93-4.34,15.6,15.6,0,0,1,6.43-3.48l.82-.22,1-.26-.84.61a19.56,19.56,0,0,0-5.08,5c-1.07,1.65-1.31,3.11-.7,4.22l.07.13-.11.1a3.78,3.78,0,0,0-1.12,3.58,3.47,3.47,0,0,0,2.15,2.68l.17.06-.05.17A5.93,5.93,0,0,0,157.6,201a7.33,7.33,0,0,0,6,2.77h.17V204c0,.32.37.67.93,1a8.48,8.48,0,0,0,7.71-.49l.14-.08.11.13c1,1.2,4.46,1.26,9.1-.95l1-.5-.82.81c-.47.46-.93.89-1.35,1.26-4.26,3.78-8.84,5.21-11.5,5a2.79,2.79,0,0,1-1.55-.54,7.29,7.29,0,0,1-4.49,1.36A7.47,7.47,0,0,1,160.48,210.46Zm7.27-1.31a2.08,2.08,0,0,0,1.43.54c2.57.25,7-1.16,11.21-4.86l.52-.47c-4.33,1.83-7.33,1.59-8.43.5a8.9,8.9,0,0,1-7.95.42,2.06,2.06,0,0,1-1.1-1.12,7.67,7.67,0,0,1-6.14-2.92,6.51,6.51,0,0,1-1.35-4.7,3.87,3.87,0,0,1-2.24-2.91,4.15,4.15,0,0,1,1.13-3.83c-1.1-2.27.84-5.64,5.14-8.94-5.23,1.53-8,4.87-8.92,7.51a3.43,3.43,0,0,0,0,2.93l.11.15-.14.12a5.07,5.07,0,0,0-1.44,5.69c.45,1.25,1.29,2.09,2.09,2.09h.27l-.09.26a5.91,5.91,0,0,0,1.59,6.13c1.56,1.64,3.62,2.49,5,2.06l.23-.07,0,.23a2.66,2.66,0,0,0,1.93,2.14c2.17.82,5.44.36,6.85-1l.15-.15Z"/><path d="M154,190.05l1-.38c0,.14,0,.28,0,.41l-.88.33L151,191.6l-.13-.36Z"/><path d="M156,196.28a1.52,1.52,0,0,0,.11.38,24.08,24.08,0,0,0-4.33,3l-.28-.27A24.74,24.74,0,0,1,156,196.28Z"/><path d="M163.36,203.92l.28.27c-2.5,2.06-4.32,3.5-5,3.95l-.21-.32C159.11,207.37,160.9,206,163.36,203.92Z"/><path d="M172.71,204.7c-2.51,2.49-4.38,4.24-5,4.72l-.24-.3c.51-.4,2.24-2,4.68-4.41Z"/><path class="cls-2" d="M202.29,177.38a10.83,10.83,0,0,1-9.85.16c-5-2.2-2.68-6.42-2.68-6.42Z"/><path class="cls-3" d="M197.65,178.87a9.94,9.94,0,0,0,1.09-.05,10.61,10.61,0,0,0,1.07-.15,4.13,4.13,0,0,0,2.48-1.29c-1.39.86-5.22,2-9.77,0a5.08,5.08,0,0,1-3-2.8,4.82,4.82,0,0,1,.22-3.44,3,3,0,0,0-.84,1.95,4.51,4.51,0,0,0,.26,1.61,5.4,5.4,0,0,0,3.18,3A13.15,13.15,0,0,0,197.65,178.87Z"/><path class="cls-1" d="M182.32,127.1s-10.86-9.23-18.58-13.24-17.28-4.93-18.74,0c-5.71-1-13.12,6.25-11.11,11.81-3.17,1.62-6.33,8.56-3.55,13.27-2.08,2.16-2.39,10.64,3.7,14.34-1.46,2.47,1,8.26,6.24,10.07-.22,2.66,4.75,10,13.49,9.09,1.41,2.52,8.72,4.81,17.3-1.07,10.19-7,15.51-21.33,15.51-21.33Z"/><path class="cls-2" d="M168.44,171.12c9.22-6.18,16-18.72,17.57-24.12l.57,3s-5.32,14.35-15.51,21.33c-5.44,3.73-10.37,4.17-13.61,3.35C159.79,175,163.66,174.32,168.44,171.12Z"/><path class="cls-2" d="M183,131.55l-.17-2.21c-1.61-1-30.85-14.45-37.08-17l-.88,1.67C150.17,116.49,182.71,131.4,183,131.55Z"/><path class="cls-2" d="M184.09,137l.08-2.74c-9.24-1.93-50.17-10.59-50.58-10.68l.25,2.24C134.25,126,174.85,135.1,184.09,137Z"/><path class="cls-2" d="M185,141.74l0-.38c-.83,0-3.14-2-6.25-2.08-13-.47-44.27-1.16-49.21-2l.76,1.83c4.95.82,35.47,1.91,48.5,2.38Z"/><path class="cls-2" d="M134,153.48c9.77,0,51.16-8.56,51.58-8.65l-2.81-2c-.41.08-41.19,8.76-50.92,8.8Z"/><path class="cls-2" d="M140.31,163.54c11.08-1.75,45.39-16.46,45.73-16.61l-1.24-2.25c-.34.15-35.14,16.09-46.18,17.84Z"/><path class="cls-2" d="M153.84,172.62c5.34-2.09,13.9-8.57,20.15-13.63,6.76-5.48,12.33-10.53,12.39-10.58l-2.21-1.1c-.22.2-23,20.63-32.39,25.2Z"/><path class="cls-3" d="M157.59,175a6.24,6.24,0,0,1-3.93-2.31A13.24,13.24,0,0,1,143,168.9c-2.07-2-3-4.2-2.95-5.41a10.57,10.57,0,0,1-6.2-6.12,5.25,5.25,0,0,1-.1-4,11,11,0,0,1-4.88-8c-.34-2.6.16-5.2,1.2-6.41a9.5,9.5,0,0,1-.55-7.35c.77-2.66,2.41-5,4.1-6a6.5,6.5,0,0,1,0-3.88,10.71,10.71,0,0,1,2.12-3.82c2.5-3,6.13-4.66,9.08-4.22a4.43,4.43,0,0,1,2.62-2.66c3.62-1.53,10.34-.42,16.35,2.7,7.65,4,18.51,13.17,18.62,13.26l.05,0,4.28,23.06,0,.05a57.62,57.62,0,0,1-3.95,8.08c-2.39,4.08-6.34,9.72-11.63,13.34a21.08,21.08,0,0,1-7.58,3.38,14.94,14.94,0,0,1-3.21.35A12.08,12.08,0,0,1,157.59,175Zm24.56-47.75c-.83-.69-11.16-9.35-18.5-13.17-5.91-3.07-12.5-4.17-16-2.68a4,4,0,0,0-2.45,2.57l-.05.16-.17,0c-2.85-.5-6.42,1.14-8.89,4.07-2.06,2.45-2.81,5.25-2,7.48l.06.16-.15.08c-1.66.85-3.29,3.19-4.06,5.83a9.09,9.09,0,0,0,.58,7.17l.08.12-.1.11c-1,1.08-1.53,3.63-1.2,6.2a10.61,10.61,0,0,0,4.86,7.85l.16.1-.09.16a4.64,4.64,0,0,0,0,3.86,10.11,10.11,0,0,0,6.09,5.93l.14.05v.15c-.09,1.13.85,3.3,2.83,5.25a12.86,12.86,0,0,0,10.45,3.63l.12,0,.07.11a5.73,5.73,0,0,0,3.73,2.24c1.88.44,6.93,1,13.29-3.37,5.23-3.58,9.15-9.16,11.51-13.21a58,58,0,0,0,3.91-8Z"/><path class="cls-3" d="M183,131.55l.16-.35c-.33-.15-32.87-15.06-38.12-17.51l-.17.35C150.17,116.49,182.71,131.4,183,131.55Z"/><path class="cls-3" d="M184.09,137l.08-.38c-9.24-1.93-49.83-11.08-50.24-11.17l-.09.37C134.25,126,174.85,135.1,184.09,137Z"/><path class="cls-3" d="M185,141.74l0-.38-6.18-.23c-13-.47-43.53-1.57-48.46-2.38l-.06.38c4.95.82,35.47,1.91,48.5,2.38Z"/><path class="cls-3" d="M134,153.48c9.77,0,51.16-8.56,51.58-8.65l-.08-.37c-.42.08-41.77,8.59-51.5,8.63Z"/><path class="cls-3" d="M140.31,163.54c11.08-1.75,45.39-16.46,45.73-16.61l-.15-.35c-.34.14-34.6,14.84-45.64,16.58Z"/><path class="cls-3" d="M153.84,172.62c5.34-2.09,13.9-8.57,20.15-13.63,6.76-5.48,12.33-10.53,12.39-10.58l-.26-.29c-.22.2-22.29,20.17-32.42,24.14Z"/><path class="cls-4" d="M153.77,172.44c-8.74.87-13.71-6.43-13.49-9.09-5.26-1.81-7.7-7.6-6.24-10.07-6.09-3.7-5.78-12.18-3.7-14.34-2.78-4.71.38-11.65,3.55-13.27-2-5.56,5.4-12.81,11.11-11.81,1.46-4.93,11-4,18.74,0,1.37.71,2.83,1.59,4.32,2.54-6.72-1.64-13-1.13-13.28,2-5.7-.73-13.85,1.81-12.86,9.1-5.41,1.21-6.26,9.05-3.25,12.15-3.68,2.89-4.78,10,2,13.09-1.79,3.12,1.37,8.21,6.33,9-.1,4,5.53,7.27,13.33,7.2,1,1.81,5.14,3.5,11.08,2.25l-.36.25C162.49,177.25,155.18,175,153.77,172.44Z"/><path class="cls-5" d="M167.78,171.55a19.92,19.92,0,0,0,3.65-.43,22.28,22.28,0,0,1-6.89,3.36,13.56,13.56,0,0,1-7,.25c3.26.29,6.57-1,9.33-2.63C167.17,171.92,167.48,171.74,167.78,171.55Z"/><path class="cls-5" d="M145.74,112.47l.08-.09c1.81.73,5.52,2.37,9.92,4.35a2.37,2.37,0,0,0-1,1.64l-.6-.06L144.91,114Z"/><path class="cls-5" d="M133.83,125.7l.06,0a2.81,2.81,0,0,1-.1-.31l-.2-1.75,8.3,1.76a8.26,8.26,0,0,0,0,2.1l-.4.11-7.68-1.73Z"/><path class="cls-5" d="M130.26,139l.08-.08a6.79,6.79,0,0,1-.7-1.62c1.28.2,4.14.39,7.92.58a5.78,5.78,0,0,0,1.11,1.72l-.22.18c-3.91-.23-6.87-.46-8.14-.67Z"/><path class="cls-5" d="M133,152.54l-.6-.54a4.16,4.16,0,0,1-.42-.42,56,56,0,0,0,6.15-.53,9.79,9.79,0,0,0,2.59,1.66l-.1.2a61.28,61.28,0,0,1-6.55.57l-.07-.06a.91.91,0,0,0,.07-.14A11.9,11.9,0,0,1,133,152.54Z"/><path class="cls-5" d="M144.71,161a8,8,0,0,0,2.31.71v.2a54,54,0,0,1-6.71,1.67l0,0a1,1,0,0,1,0-.17,8.76,8.76,0,0,1-.82-.33l-.84-.5A46.39,46.39,0,0,0,144.71,161Z"/><path class="cls-5" d="M160.35,168.87l.09.16a39.32,39.32,0,0,1-6.57,3.57,1.4,1.4,0,0,1-.1-.16,14.65,14.65,0,0,1-2,.06,49.58,49.58,0,0,0,6-3.73C158.66,168.84,159.49,168.87,160.35,168.87Z"/><path d="M157.59,175a6.24,6.24,0,0,1-3.93-2.31A13.24,13.24,0,0,1,143,168.9c-2.07-2-3-4.2-2.95-5.41a10.57,10.57,0,0,1-6.2-6.12,5.25,5.25,0,0,1-.1-4,11,11,0,0,1-4.88-8c-.34-2.6.16-5.2,1.2-6.41a9.5,9.5,0,0,1-.55-7.35c.77-2.66,2.41-5,4.1-6a6.5,6.5,0,0,1,0-3.88,10.71,10.71,0,0,1,2.12-3.82c2.5-3,6.13-4.66,9.08-4.22a4.43,4.43,0,0,1,2.62-2.66c3.62-1.53,10.34-.42,16.35,2.7,1.28.67,2.74,1.53,4.33,2.55l1,.63-1.12-.28c-5.29-1.3-10-1.22-12,.21a2.18,2.18,0,0,0-1,1.59l0,.2-.2,0c-3.45-.44-8.13.31-10.79,3a6.68,6.68,0,0,0-1.85,5.9l0,.17-.18,0a6.1,6.1,0,0,0-4.45,4.47c-.81,2.71-.27,5.74,1.3,7.35l.15.16-.17.13a7.8,7.8,0,0,0-2.8,6.87,7.49,7.49,0,0,0,4.78,5.89l.19.09-.1.18a4.53,4.53,0,0,0,.11,4.27,8.25,8.25,0,0,0,6.08,4.41l.16,0v.17a4.66,4.66,0,0,0,1.51,3.39c2.28,2.31,6.62,3.66,11.62,3.61h.12l.06.1c.91,1.65,4.89,3.42,10.87,2.16l.91-.19-.76.54-.36.25a21.08,21.08,0,0,1-7.58,3.38,14.94,14.94,0,0,1-3.21.35A12.08,12.08,0,0,1,157.59,175Zm6.4-3.62a6.19,6.19,0,0,1-3.75-2.27h-.15c-5,0-9.34-1.39-11.65-3.73a5.13,5.13,0,0,1-1.62-3.5,8.52,8.52,0,0,1-6.2-4.59,5,5,0,0,1-.2-4.44,7.82,7.82,0,0,1-4.81-6.11,8.21,8.21,0,0,1,2.78-7.09c-1.56-1.75-2.07-4.82-1.25-7.58a6.51,6.51,0,0,1,4.57-4.69,7,7,0,0,1,2-6c2.7-2.72,7.39-3.53,10.92-3.12a2.6,2.6,0,0,1,1.15-1.68c2-1.38,6.3-1.57,11.25-.51-1.22-.76-2.34-1.41-3.36-1.94-5.91-3.07-12.5-4.17-16-2.68a4,4,0,0,0-2.45,2.57l-.05.16-.17,0c-2.85-.5-6.42,1.14-8.89,4.07-2.06,2.45-2.81,5.25-2,7.48l.06.16-.15.08c-1.66.85-3.29,3.19-4.06,5.83a9.09,9.09,0,0,0,.58,7.17l.08.12-.1.11c-1,1.08-1.53,3.63-1.2,6.2a10.61,10.61,0,0,0,4.86,7.85l.16.1-.09.16a4.64,4.64,0,0,0,0,3.86,10.11,10.11,0,0,0,6.09,5.93l.14.05v.15c-.09,1.13.85,3.3,2.83,5.25a12.82,12.82,0,0,0,9,3.7c.45,0,.92,0,1.41-.07l.12,0,.07.11a5.73,5.73,0,0,0,3.73,2.24c1.84.43,6.72,1,12.89-3.1A16.06,16.06,0,0,1,164,171.33Z"/><path d="M154.05,118.25,144.91,114l.17-.35,9.89,4.56Z"/><path d="M141.75,127.63l-7.91-1.78.09-.37,7.86,1.77A.4.4,0,0,1,141.75,127.63Z"/><path d="M138.58,139.66l0,0a.44.44,0,0,1-.08.11c-4-.23-6.95-.46-8.23-.67l.06-.38c1.25.2,4.16.43,8,.66A1.16,1.16,0,0,0,138.58,139.66Z"/><path d="M140.51,152.53a.43.43,0,0,0,0,.11c0,.1.05.18.07.27a61.21,61.21,0,0,1-6.56.57v-.39A56.77,56.77,0,0,0,140.51,152.53Z"/><path d="M146.65,161.58a2.32,2.32,0,0,0,.45.26,55.07,55.07,0,0,1-6.79,1.7l-.06-.38A51.74,51.74,0,0,0,146.65,161.58Z"/><path d="M160.46,168.56a.86.86,0,0,0,.18.34,41.06,41.06,0,0,1-6.8,3.72l-.14-.36A41.11,41.11,0,0,0,160.46,168.56Z"/><path class="cls-1" d="M182.47,124.1c-2.29,2.58-7.39,8.9-5.89,17.45,1.67,9.5,11.75,12.6,11.75,12.6Z"/><path class="cls-3" d="M188.33,154.15a20.22,20.22,0,0,1-5.18-2.81,15.74,15.74,0,0,1-6.38-9.83c-1.46-8.31,3.3-14.36,5.59-17.26l.11-.15a6.58,6.58,0,0,0-1.76,1.67c-2.42,3.32-5.56,8.75-4.32,15.81a16.1,16.1,0,0,0,6.54,10.08,22.08,22.08,0,0,0,2.31,1.49A7.7,7.7,0,0,0,188.33,154.15Z"/></svg>