<svg id="Layer_1" data-name="Layer 1" xmlns="http://www.w3.org/2000/svg" viewBox="0 0 256 256"><defs><style>.cls-1{opacity:0.3;}.cls-2{fill:#6baa11;}.cls-3{fill:#195102;}.cls-4{fill:#e8d0b1;}.cls-5{fill:#f9ebd7;}.cls-6{fill:#c6b099;}.cls-7{fill:#b24b04;}.cls-8{fill:#cc5700;}.cls-9{fill:#dd7314;}.cls-10{fill:#b53d00;}.cls-11{fill:#823907;}.cls-12{fill:#e8b974;}.cls-13{fill:#f4ca8e;}.cls-14{fill:#fad496;}.cls-15{fill:#7ac222;}.cls-16{fill:#87c928;}.cls-17{fill:#94cc32;}.cls-18{fill:#cecece;}.cls-19{fill:#fff;}.cls-20{fill:#4c0000;}.cls-21{fill:#820000;}.cls-22{fill:#e85885;}.cls-23{fill:#f96e92;}.cls-24{fill:#dd2260;}.cls-25{fill:#00a4ff;}.cls-26{fill:#0456ff;}.cls-27{fill:#256805;}.cls-28{fill:#c6934f;}.cls-29{fill:#f6b954;}.cls-30{fill:#c60;}.cls-31{fill:#680303;}.cls-32{fill:#380005;}</style></defs><ellipse class="cls-1" cx="136.51" cy="197.84" rx="74.92" ry="17.51"/><path class="cls-2" d="M171.91,187.45s2.27,9.87-10.82,9.46c-4.84-.26-7.54-5.38-7.54-5.38A140.9,140.9,0,0,0,171.91,187.45Z"/><path class="cls-3" d="M161.86,197.07h-.77c-4.87-.27-7.64-5.42-7.67-5.47l-.1-.18.21,0a141.55,141.55,0,0,0,18.33-4.08l.15,0,0,.15a8.33,8.33,0,0,1-1.39,6.45C169,196,166,197.07,161.86,197.07Zm-8.09-5.43c.54.9,3.14,4.9,7.33,5.13,4.45.14,7.59-.9,9.32-3.08a7.9,7.9,0,0,0,1.37-6.06A142,142,0,0,1,153.77,191.64Z"/><path class="cls-4" d="M157.84,198.79a31.48,31.48,0,0,0,5.74-2.72c1.35-.7-2.13-3.12-4-1.13C159,195.94,157.84,198.79,157.84,198.79Z"/><path class="cls-5" d="M157.84,198.79s1.55-1.31,3.61-2.72c1.36-.7,0-3.12-1.86-1.13C159,195.94,157.84,198.79,157.84,198.79Z"/><path class="cls-6" d="M157.58,199l.13-.3c0-.12,1.19-2.87,1.76-3.86l0,0a2.53,2.53,0,0,1,1.9-.82,2.84,2.84,0,0,1,2.62,1.45.62.62,0,0,1-.36.72,32,32,0,0,1-5.77,2.72Zm2.13-4c-.45.79-1.3,2.76-1.61,3.51a30,30,0,0,0,5.4-2.59c.2-.1.27-.23.23-.4a2.57,2.57,0,0,0-2.34-1.24A2.24,2.24,0,0,0,159.71,195Z"/><path class="cls-4" d="M158.38,195.51s-3.62,2-4.55,1.85c-.21-1.28.78-3.84,2.78-4.34A9.21,9.21,0,0,1,158.38,195.51Z"/><path class="cls-5" d="M156.82,195.07a5.75,5.75,0,0,0-3,2.29c-.21-1.28.78-3.84,2.78-4.34A1.48,1.48,0,0,1,156.82,195.07Z"/><path class="cls-6" d="M153.93,197.51h-.12l-.1,0,0-.1c-.24-1.43.89-4,2.88-4.5l.08,0,0,.06a8.89,8.89,0,0,1,1.8,2.53l.06.12-.12.07C158.3,195.71,155,197.51,153.93,197.51Zm2.64-4.33c-1.87.52-2.73,2.86-2.61,4,.92,0,3.63-1.45,4.23-1.77A9.26,9.26,0,0,0,156.57,193.18Z"/><path class="cls-7" d="M150.29,111.67s20.29-7.76,29.87,15.65c-4,7.94-6.26,11.55-6.26,11.55l-17.22-3.42Z"/><path class="cls-8" d="M150.29,111.67l6.39,23.78.17,0c3.91-4.29,10.45-6.4,14.92-2.47.11-.18,4.7-7.44,8.39-5.63C170.58,103.91,150.29,111.67,150.29,111.67Z"/><path class="cls-9" d="M150.94,112.54l5.16,20.77c3.92-4.29,9.91-6.42,14.38-2.48.11-.18,3.91-4.28,7.67-4.77C172.12,108.05,150.94,112.54,150.94,112.54Z"/><path class="cls-8" d="M171.05,128.34a25.94,25.94,0,0,0,7.1-5.21c-6.45-11.6-16-13.08-22.05-12.62,1.13,3.3,4.2,12.16,5.27,14.14A63.63,63.63,0,0,0,171.05,128.34Z"/><path class="cls-10" d="M170.48,126.7c2.14.35,4.88-1.47,6.44-3.27-6.45-11.6-13.39-12-19.46-11.54a126.68,126.68,0,0,0,5.48,12.46A20.24,20.24,0,0,0,170.48,126.7Z"/><path class="cls-8" d="M173,124.09c1.18-1.21,2.46-2.06,3.22-4.1a21.66,21.66,0,0,0-15.94-9.45c1.08,2.47,3.15,7.25,4.18,9.92A72.92,72.92,0,0,0,173,124.09Z"/><path class="cls-9" d="M172.69,122.68c1.18-1.21,1.21-.74,2-2.78-4.87-6.75-8.4-7.53-13.43-8,1.08,2.46,3,4.64,4,7.31A79.52,79.52,0,0,0,172.69,122.68Z"/><path class="cls-10" d="M172.19,119.39c.46,0,.65,0,1.05-1.21-2.9-3.84-7.38-5.78-8.47-5.4a17.58,17.58,0,0,1,1.47,4C168.21,118.66,171.15,119.17,172.19,119.39Z"/><path class="cls-11" d="M174,139l-.1,0-17.3-3.43,0-.09-6.42-23.91.12,0a24.14,24.14,0,0,1,7.75-1.24c7,0,16.56,2.95,22.3,17l0,.06,0,.06c-3.94,7.85-6.25,11.52-6.27,11.55Zm-17.18-3.7,17,3.38c.36-.58,2.58-4.24,6.17-11.39-5.68-13.84-15.1-16.74-22-16.74a24.08,24.08,0,0,0-7.53,1.18Z"/><path class="cls-7" d="M170.48,139.72s4.46-12.14,9.11-13.66c3.89,2.56,19.64,16.51,12,38.19-4.55,3.56-15.22,7.82-15.22,7.82Z"/><path class="cls-8" d="M179.59,126.06c-4.65,1.52-9.11,13.66-9.11,13.66l5.06,27.52a35.48,35.48,0,0,1,17-6C197.79,141.3,183.3,128.5,179.59,126.06Z"/><path class="cls-9" d="M179.38,128c-4.65,1.52-7.26,13.31-7.26,13.31l4.3,23.77c5.09-3.28,8.84-4.18,14.84-4.49C196.5,140.59,183.09,130.42,179.38,128Z"/><path class="cls-8" d="M178.93,136.5c1.23,5.5,4.46,19.35,5.41,23.1.42,1.07,5.34,1,8.46,0,3.73-13.9-4.8-26-9.9-30.82C181.91,131.11,179.91,135.66,178.93,136.5Z"/><path class="cls-10" d="M180.16,137.16c1.24,5.5,4,17.17,5,20.92.43,1.07,3.43,1.67,6.55.7,2.5-14.41-3.8-23.1-8.9-27.95C181.8,133.16,181.14,136.32,180.16,137.16Z"/><path class="cls-8" d="M187.56,155.49a23.36,23.36,0,0,0,6.1-1.69,32.33,32.33,0,0,0-7.4-21.36c-.84,2-2.08,5.05-2.68,6.43C184.34,144.37,187.56,155.49,187.56,155.49Z"/><path class="cls-9" d="M188.2,154.45a8.46,8.46,0,0,0,3.7-1.07c.3-9.26-1.83-13.86-5.69-18.69-.84,2-1.25,3.65-1.85,5C185.12,145.23,188.2,154.45,188.2,154.45Z"/><path class="cls-10" d="M187.47,141.05c0,.66,1.33,6.07,1.89,10.29a6.67,6.67,0,0,0,2.57-.56c-.36-4.35-.4-8.82-2.85-11.73C187.74,139,187.47,139.72,187.47,141.05Z"/><path class="cls-11" d="M176.31,172.27l-6-32.56v0c.18-.5,4.54-12.22,9.2-13.75l.06,0,.06,0a35.15,35.15,0,0,1,10.38,12c4.39,8.23,5,17.11,1.73,26.38l0,0,0,0c-4.52,3.53-15.15,7.8-15.25,7.84Zm-5.68-32.54,5.9,32.14c1.35-.54,10.79-4.45,15-7.71,7-20-6.2-34.12-12-37.94C175.19,127.74,170.9,139,170.63,139.73Z"/><path class="cls-7" d="M121.45,115.72s12-17.46,31.57-4.65c1.9,4.93,8,18.3,6.52,24.1-4.33,4.27-12,6.64-12,6.64C135.57,135.55,121.45,115.72,121.45,115.72Z"/><path class="cls-8" d="M150.84,135.17c1.58-2.48,4.39-3.17,7-3.78A93,93,0,0,0,153,111.07c-19.54-12.81-31.57,4.65-31.57,4.65a149.12,149.12,0,0,0,13.83,16.37C140.45,129.85,146.7,131.8,150.84,135.17Z"/><path class="cls-9" d="M150.29,133.55c1.57-2.48,3.87-2.12,6.53-2.72a78.74,78.74,0,0,0-4.34-18.58C132.93,99.44,123,116.52,123,116.52a90,90,0,0,0,12.33,15.57C140.45,129.85,146.15,130.18,150.29,133.55Z"/><path class="cls-8" d="M139.46,127.32c4.27,1.59,11.19,2.82,12.81,4.72a20.51,20.51,0,0,1,3.79-3.26c-1-4.27-3.8-13.91-7.29-20.1-9.83-4.56-17.42-1.51-22.07,1.88A27.54,27.54,0,0,1,139.46,127.32Z"/><path class="cls-10" d="M140,126.37c4.26,1.59,10.1,2,11.72,3.91a6.67,6.67,0,0,1,3.09-2.26c-1-4.27-2.31-11.61-5.8-17.8-8.4-4.23-15.88-2.83-20.53.56C131.47,112.46,137.07,116.11,140,126.37Z"/><path class="cls-8" d="M143.63,123c2.09.32,6.64,1.65,7.31,3.07,0-2.85-1.8-11-1.8-11-2.19-2.55-3.26-6-7.23-8.5a19.74,19.74,0,0,0-11,1.53A31.31,31.31,0,0,1,143.63,123Z"/><path class="cls-9" d="M143.94,121.43c2.09.32,5.51,1.5,6.18,2.92,0-2.85-1.94-9.26-1.94-9.26-2.18-2.55-2.33-4.72-6.3-7.23-3.76-.26-5.09-.66-8.12.69C136.57,110.22,140.39,112.78,143.94,121.43Z"/><path class="cls-8" d="M147.62,117.62l-2.57,1.11a60.17,60.17,0,0,0-5.59-8,17.38,17.38,0,0,1,5.4,1A25.34,25.34,0,0,1,147.62,117.62Z"/><path class="cls-10" d="M146.57,116.79l-1.35.53a29.81,29.81,0,0,0-4.31-6c2.47.09,3,1,3.81,1.42C146.81,116.15,146.57,116.79,146.57,116.79Z"/><path class="cls-11" d="M147.51,142l0,0c-11.85-6.21-26-25.94-26.12-26.14l-.06-.08,0-.08c.07-.1,6.61-9.41,17.67-9.41,4.58,0,9.33,1.59,14.1,4.72l0,0,0,0c.27.71.63,1.6,1.05,2.62,2.52,6.19,6.74,16.56,5.47,21.56v0l0,0c-4.31,4.24-12,6.65-12.08,6.67Zm-25.88-26.24c1,1.4,14.52,19.94,25.9,25.94.71-.23,7.81-2.58,11.88-6.57,1.22-4.92-3-15.2-5.46-21.34-.41-1-.77-1.88-1-2.59-4.72-3.08-9.4-4.65-13.91-4.65C128.65,106.51,122.29,114.8,121.63,115.72Z"/><path class="cls-7" d="M149.14,138.87s9.86-9.11,16.32-7,12.23,5.4,14.7,15.56c1.9,8.25.65,20-2.56,24.48-4.84.85-21.16,2.27-26.19-1.9C150.93,161.55,149.14,138.87,149.14,138.87Z"/><path class="cls-8" d="M178.06,165.73a49.19,49.19,0,0,0,.17-19.08c-2.47-10.15-6.32-12.72-12.77-14.8s-16.32,7-16.32,7,1.24,18.84,1.92,28.89C157.35,165.06,171.33,165.68,178.06,165.73Z"/><path class="cls-9" d="M176.42,163.93c1.22-5.44,1.89-11.86.61-17.41-2.47-10.15-5.35-11.12-11.81-13.21s-16,7.27-16,7.27,1.46,15.57,2.13,25.62C157.67,163.5,169.7,163.88,176.42,163.93Z"/><path class="cls-11" d="M165.35,173c-4.82,0-11.17-.5-14-2.87l0,0V170c-.48-8.35-2.26-30.89-2.28-31.12v-.07l0-.05c.08-.07,8.05-7.37,14.33-7.37a6.94,6.94,0,0,1,2.13.32c6.2,2,12.28,5.29,14.8,15.66,1.92,8.35.69,20.07-2.59,24.6l0,.05h-.06A80.66,80.66,0,0,1,165.35,173Zm-13.8-3.05c2.82,2.28,9,2.77,13.8,2.77a80.05,80.05,0,0,0,12.17-.93c3.15-4.43,4.37-16.22,2.5-24.32C177.53,137.2,171.53,134,165.41,132a6.66,6.66,0,0,0-2-.3c-5.9,0-13.4,6.62-14.09,7.25C149.39,140.32,151.08,161.75,151.55,169.92Z"/><path class="cls-7" d="M103.59,124.35s7.78-14.42,20.31-10.82c8.63,3.14,12.18,11.61,12.19,22.41-4.32,6.25-14.64,17-14.64,17C111.66,147.69,104.54,138.49,103.59,124.35Z"/><path class="cls-8" d="M103.59,124.35s7.78-14.42,20.31-10.82c8.63,3.14,10.23,13,10.24,23.83-4.32,6.25-12.69,15.54-12.69,15.54C111.66,147.69,104.54,138.49,103.59,124.35Z"/><path class="cls-9" d="M104.45,126.06s6-14.91,18.5-11.31c8.63,3.14,9.31,11.68,9.32,22.48L121.45,152.9C111.66,147.69,105.39,140.2,104.45,126.06Z"/><path class="cls-11" d="M121.48,153.08l-.1-.05c-10.86-5.78-17.06-15.69-17.93-28.67v0l0,0c.06-.11,6.3-11.47,16.43-11.47a14.58,14.58,0,0,1,4,.59c8,2.91,12.28,10.71,12.29,22.54V136l0,0c-4.27,6.19-14.54,16.87-14.65,17Zm-17.74-28.7c.87,12.82,7,22.62,17.68,28.34.94-1,10.44-10.93,14.53-16.82,0-11.68-4.21-19.37-12.1-22.23a14.29,14.29,0,0,0-3.95-.57C110.22,113.1,104.13,123.68,103.74,124.38Z"/><path class="cls-12" d="M86.51,178.26s-9.53-1.45-11-2.84c4.84-6.52,17.42-21,18.18-20.93,4.17,3.45,3.6,13.1,3.6,13.1Z"/><path class="cls-13" d="M83.1,174.8c-1.07,1-7.55.62-5.7-1.79,4.84-6.52,15.57-18.55,16.33-18.52,4.17,3.45-4.22,12.25-5.58,15.07S84.16,173.81,83.1,174.8Z"/><path class="cls-14" d="M87.08,166.19c-2.71,2.51-3.06,6.34-7.52,8.25a3.52,3.52,0,0,0,3.39-.59c1.07-1,3.18-2.35,4.54-5.17.66-1.37,3.18-3.92,5.09-6.6a4.16,4.16,0,0,0-.61-1.49A32.06,32.06,0,0,1,87.08,166.19Z"/><path class="cls-6" d="M86.56,178.41h-.07c-.39-.06-9.6-1.47-11-2.88l-.08-.09.07-.1c4.52-6.1,17.35-21,18.28-21h0l0,0c4.18,3.46,3.67,12.82,3.65,13.22v.05l0,0Zm-10.81-3c1.57,1.26,9.86,2.57,10.71,2.71l10.73-10.58c0-.78.35-9.62-3.5-12.88C92.58,155.16,80.7,168.74,75.75,175.4Z"/><path class="cls-7" d="M82.53,162.49s-2.18-20.06,11.57-29.88a112.43,112.43,0,0,1-.68,20.89Z"/><path class="cls-9" d="M94,147.53a100.39,100.39,0,0,0,.09-14.92c-9.1,6.5-11.22,17.48-11.62,24.17C86.92,154.42,91.47,151.68,94,147.53Z"/><path class="cls-8" d="M92.09,134.21c-6.69,5.95-8.84,14.54-9.46,20.68C86.09,153.86,93.82,149.8,92.09,134.21Z"/><path class="cls-10" d="M92.09,134.21c-6,8.28-7.8,12.93-8.42,19.08C87.13,152.26,92,147.56,92.09,134.21Z"/><path class="cls-8" d="M90,136.35a30.5,30.5,0,0,0-6.59,13.78C85.87,148.8,89.31,145.34,90,136.35Z"/><path class="cls-9" d="M89.87,137.52c-3.68,4.19-4.22,7.23-5.21,11.77C86,147.55,88.41,144.44,89.87,137.52Z"/><path class="cls-11" d="M82.41,162.77l0-.26a42.66,42.66,0,0,1,.63-11.3c1.07-5.73,3.86-13.62,11-18.72l.21-.15,0,.25a114.82,114.82,0,0,1-.69,20.93v.06l0,0ZM94,132.87c-12.46,9.1-11.52,26.95-11.33,29.34l10.63-8.78A113,113,0,0,0,94,132.87Z"/><path class="cls-7" d="M85.09,157.21c-.06,0-.11.11-.16.16-8.14,5.55-10.66,17.65-9.38,18,3.56.26,9-7.38,10.25-10.51l.09,0C84.48,163.1,84.72,159.56,85.09,157.21Z"/><path class="cls-8" d="M84.93,157.37c-8.14,5.55-10.66,17.65-9.38,18,3.56.26,8.4-8.2,8.26-11.17A25.47,25.47,0,0,1,84.93,157.37Z"/><path class="cls-9" d="M84.14,158.89c-5.84,4.53-8.85,14.56-7.57,15,3.56.25,5.83-6.63,5.69-9.6A8.78,8.78,0,0,1,84.14,158.89Z"/><path class="cls-11" d="M75.73,175.57h-.22c-.2-.06-.33-.28-.38-.65-.37-2.49,2.48-12.71,9.72-17.65l.44-.44-.06.42c-.32,2.06-.64,5.77.77,7.55l.11.13-.2.1C84.59,168.19,79.3,175.57,75.73,175.57Zm-.15-.29h.15c3.47,0,8.67-7.33,9.94-10.42v0c-1.24-1.71-1.14-4.81-.79-7.27-7.06,4.93-9.84,14.87-9.48,17.3C75.45,175.12,75.52,175.25,75.58,175.28Z"/><path class="cls-7" d="M94.3,156.37s-.81-2.7-1.24-4c-2.52.14-4.77,1.66-8,4.82-.37,2.35-.61,5.89.8,7.66C89.58,163,94.3,156.37,94.3,156.37Z"/><path class="cls-8" d="M93.36,154.89a6.58,6.58,0,0,0-.3-2.5c-2.52.14-4.77,1.66-8,4.82a6.74,6.74,0,0,0,1.58,4.92C90.36,160.22,93.36,154.89,93.36,154.89Z"/><path class="cls-9" d="M90.81,157.11s-.53-1.34-1-2.62c-1.25,1-.69-.14-3.9,3-.06,1.68-.29,1.62,1.11,3.38C90.75,159,90.81,157.11,90.81,157.11Z"/><path class="cls-11" d="M85.85,165.05l-.07-.1c-1.41-1.76-1.23-5.19-.83-7.76v-.05l0,0c3.46-3.41,5.64-4.73,8.06-4.86h.11l0,.1c.43,1.27,1.24,4,1.24,4l0,.07,0,.06c-.19.27-4.78,6.63-8.45,8.53Zm-.63-7.77c-.31,2-.61,5.61.71,7.4,3.42-1.84,7.75-7.69,8.21-8.33-.12-.42-.79-2.63-1.18-3.81C90.67,152.7,88.55,154,85.22,157.28Z"/><path class="cls-2" d="M101.88,179.71c3.42,8.26-3.27,17.94-.79,19.79,2.06,1.28,3.36,4.41,2.5,6-2.13,3-10.39,3.71-17.7,2.28-12.44-3.56-6.78-18.07-5.33-22.13,1.46-8.47,4-11,8.37-15.08a11.4,11.4,0,0,1,9.94-8Z"/><path class="cls-15" d="M96.9,181.21c4.08,8.35-2,15.58.48,17.43,2.06,1.28,1.8,3.06.58,4.21-2,1.65-6.33,2.82-12.25,2-11.44-3.27-6.6-15.15-5.15-19.21,1.46-8.47,4-11,8.37-15.08a11.4,11.4,0,0,1,9.94-8S87.49,161.92,96.9,181.21Z"/><path class="cls-16" d="M95.41,180.64c3.48,8.61-2.49,15.37,0,17.22,2,1.28,2.71,3.48,1.49,4.63-2,1.64-5.36,1.34-11.28.5-10.38-2.85-5.4-12.89-4-16.94,1.45-8.47,3.83-12,8.24-16.06a6.81,6.81,0,0,1,3.08-3.8S90.13,167.59,95.41,180.64Z"/><path class="cls-3" d="M93.18,208.6a39.22,39.22,0,0,1-7.32-.71,10.31,10.31,0,0,1-6.76-5.13c-2.86-5.59,0-13.45,1.19-16.8l.14-.39c1.44-8.39,3.86-11,8.38-15.11a11.61,11.61,0,0,1,10-8.11H99l3,17.32c2,4.82.56,10.16-.49,14.05-.74,2.76-1.32,4.94-.35,5.66,2.09,1.31,3.42,4.53,2.54,6.16C102.35,207.46,98.41,208.6,93.18,208.6Zm5.57-46a11.33,11.33,0,0,0-9.68,7.94v0l0,0c-4.49,4.12-6.9,6.66-8.33,15l-.14.4c-1.2,3.32-4,11.1-1.2,16.58a10.06,10.06,0,0,0,6.57,5,39.23,39.23,0,0,0,7.25.7c5.14,0,9-1.1,10.29-2.93.82-1.5-.46-4.53-2.45-5.77-1.14-.85-.56-3,.24-6,1-3.86,2.45-9.15.49-13.88v0Z"/><path class="cls-3" d="M87.63,171.92l-.23-.17a6.52,6.52,0,0,1,4.23-2.19C89.89,169.79,87.64,171.9,87.63,171.92Z"/><path class="cls-2" d="M85.8,113.53s4.81,3.85,5.12,13.52c.34,10.26-4.12,28.61,5.91,40,9.47,4,33.65,12.52,41.84,6-6-6-21.27-19.38-28.67-33.3-6.65-12.5-4.7-27.84,8.82-32.93C110.42,103.43,89.64,107,85.8,113.53Z"/><path class="cls-15" d="M111.28,157.21c.28,0,5.31,1.42,2.84-1.26-11.38-11.67-15.65-27.9-10.24-43-5.08,0-11.84-.19-15.73,3.53a22,22,0,0,1,2.77,10.55c.28,8.55-2.77,22.72,2,33.79C94.94,158.5,97.5,151.72,111.28,157.21Z"/><path class="cls-16" d="M108.85,155.23c.29,0,4.13,2,1.67-.71-11.39-11.66-14.46-24.35-9-39.43-5.07,0-7.71.46-10.54,2.56,1.27,2.16,1.59,5,1.76,10,.28,8.54-3.17,18,1.61,29.06C96.3,154.37,99.75,150.72,108.85,155.23Z"/><path class="cls-3" d="M129.52,175.56h0c-12.21,0-29.41-7-32.73-8.38l-.06,0c-7.73-8.77-6.9-21.53-6.24-31.78.2-3,.38-5.91.3-8.3-.31-9.5-5-13.38-5.07-13.41l-.09-.08.06-.11c2.84-4.84,15-8.1,24.5-8.1a24.33,24.33,0,0,1,8.69,1.3l.34.14-.34.12a18.31,18.31,0,0,0-11.06,10.82c-2.43,6.43-1.57,14.62,2.31,21.92,6.27,11.79,18.21,23.23,25.34,30.06,1.29,1.23,2.4,2.3,3.31,3.2l.11.12-.12.1C136.75,174.74,133.64,175.56,129.52,175.56Zm-32.6-8.63c3.38,1.42,20.47,8.34,32.59,8.35h0c4,0,7-.77,8.94-2.27-.89-.88-2-1.9-3.19-3.08-7.15-6.85-19.11-18.31-25.4-30.14-3.92-7.36-4.79-15.64-2.33-22.15a18.5,18.5,0,0,1,10.88-10.85,25,25,0,0,0-8.24-1.14c-9.39,0-21.29,3.15-24.2,7.85.68.62,4.8,4.67,5.09,13.55.08,2.4-.11,5.28-.31,8.33C90.1,145.57,89.29,158.25,96.92,166.93Z"/><path class="cls-2" d="M69,113.53s-38.43-9.1-18.65-35c-1.42-7.11,2.14-37.29,27.61-34,5.27.71,8.68-1.57,14.09-3,3.56-.71,28-6.26,40,29.46,6.4,6.12,10.24,18.93,1.56,29.18C122,112.25,97.9,108.7,92.77,113.53,89.5,116.38,78.83,123.64,69,113.53Z"/><path class="cls-15" d="M67.19,110.54s-32.91-7.44-16.83-32c-1.42-7.11,2.14-37.29,27.61-34,5.27.71,8.68-1.57,14.09-3,3.56-.71,24.23-4.46,36.19,31.26,6.4,6.12,6.28,17.18-.26,24.37-11.67,12.1-25.7,7-30.83,11.82C93.89,111.82,76,124.09,67.19,110.54Z"/><path class="cls-16" d="M67,107.86S37.13,103.1,51.64,78.35c-1.43-7.11,1.43-35.69,26.9-32.42,5.27.71,8.74-1.42,14.15-2.85,3.56-.71,20.15-5.26,31.11,28.47a17.59,17.59,0,0,1,.71,24.29c-11.67,12.1-23.2,5.78-28.32,10.61C92.92,109.3,75.81,121.41,67,107.86Z"/><path class="cls-17" d="M68.08,77.15s5.59-23.41,11.8-23.76c5-.28,11.81,23.76,11.81,23.76C84.36,75.1,74.45,73.49,68.08,77.15Z"/><path class="cls-2" d="M103.22,64.18c2.66,7.21,1.77,14.16-2,15.54s-8.92-3.34-11.58-10.55S87.9,55,91.65,53.63,100.57,57,103.22,64.18Z"/><path class="cls-18" d="M102.93,66.5c2.26,6.13,1.5,12-1.68,13.22s-7.59-2.85-9.85-9-1.5-12,1.68-13.23S100.67,60.37,102.93,66.5Z"/><path class="cls-19" d="M101.35,74.46a4.23,4.23,0,0,0,2.73-3.32,21.68,21.68,0,0,0-1.15-4.64c-2.26-6.13-6.67-10.15-9.85-9s-3.87,6.67-1.91,12.56C93.62,73.66,96.34,76.34,101.35,74.46Z"/><path class="cls-3" d="M100.09,80.07c-3.13,0-6.85-3.9-8.82-9.28C89,64.6,89.78,58.59,93,57.39a3.5,3.5,0,0,1,1.21-.21c3.13,0,6.85,3.9,8.82,9.27,2.28,6.19,1.49,12.21-1.76,13.4A3.51,3.51,0,0,1,100.09,80.07ZM94.24,57.46a3.17,3.17,0,0,0-1.11.2c-3.11,1.14-3.82,7-1.6,13,1.94,5.26,5.54,9.08,8.56,9.08a3.16,3.16,0,0,0,1.11-.19c3.11-1.15,3.82-7,1.6-13C100.86,61.28,97.26,57.46,94.24,57.46Z"/><path class="cls-2" d="M93.63,78.89a27.37,27.37,0,0,1,21.29-3.4l-15,5.41Z"/><path class="cls-16" d="M95.24,79.76a26.5,26.5,0,0,1,19.68-4.27l-15,5.41Z"/><path class="cls-3" d="M93.71,79l-.16-.23a25.25,25.25,0,0,1,10.6-4c7.16-1,10.94.71,10.94.71A28.15,28.15,0,0,0,93.71,79Z"/><path class="cls-3" d="M80.2,118.87c-4.11,0-7.9-1.75-11.27-5.21-1-.24-19.43-5-23.55-16.5-2-5.57-.36-11.85,4.83-18.67-.82-4.27.12-17.81,7.31-26.58a20.66,20.66,0,0,1,16.71-7.79,28.71,28.71,0,0,1,3.76.25,14.41,14.41,0,0,0,2,.13,22.44,22.44,0,0,0,7.66-1.71c1.38-.48,2.8-1,4.43-1.41l.18,0a32.82,32.82,0,0,1,6.56-.69A28.81,28.81,0,0,1,115.61,46c7.12,5,12.7,13.39,16.57,24.94,6.06,5.81,10.54,18.74,1.55,29.35-7.21,7.47-18.93,9-28.35,10.19-5.67.73-10.57,1.36-12.51,3.2C91.46,114.87,86.38,118.87,80.2,118.87Zm-6-74.47a20.39,20.39,0,0,0-16.49,7.69c-7.17,8.74-8.07,22.25-7.24,26.41v.06l0,0c-5.17,6.76-6.79,13-4.83,18.46,4.16,11.64,23.2,16.28,23.39,16.33h0l0,0c3.32,3.41,7,5.15,11.09,5.15,6.08,0,11.09-4,12.48-5.16,2-1.9,6.71-2.5,12.66-3.27,9.38-1.21,21-2.71,28.18-10.1,8.87-10.48,4.43-23.25-1.56-29l0,0v0c-8.32-24.88-22.62-30.1-33.15-30.1a32.24,32.24,0,0,0-6.5.69l-.18,0c-1.6.42-3,.92-4.4,1.4a22.85,22.85,0,0,1-7.75,1.72,15,15,0,0,1-2-.13A29.93,29.93,0,0,0,74.23,44.4Z"/><path class="cls-3" d="M70.4,115c-1.82-1.37-4.11-6.26-4.11-6.26s2.51,4.7,4.28,6Z"/><path class="cls-3" d="M92.86,113.65l-.17-.23c6.24-4.72,8.23-4.45,8.23-4.45C97.86,109.81,92.91,113.61,92.86,113.65Z"/><path class="cls-20" d="M67,103.14s6,14.3,12.67,11.78S91.07,105.14,94.48,96C83.81,98,67,103.14,67,103.14Z"/><path class="cls-21" d="M77.22,100.06C71.13,101.72,67,103.14,67,103.14s3.91,9.35,8.94,11.59C74.82,109.67,73.47,106.23,77.22,100.06Z"/><path class="cls-22" d="M80.75,107.7c-5-.56-7.11,2.34-8,4.63,2,2.13,4.42,3.53,6.92,2.59,3.56-1.34,6.55-4,9.09-7.61C86.58,106.62,83.67,105.62,80.75,107.7Z"/><path class="cls-23" d="M78.59,111.31c0-3.77-5-1.27-5.83,1,2,2.13,4.42,3.53,6.92,2.59,3.56-1.34,5-3,7.31-5.34C87.23,107.7,82.31,106.23,78.59,111.31Z"/><path class="cls-24" d="M78.07,115.36h0c-1.74,0-3.56-1-5.41-2.93l-.07-.07,0-.08a7,7,0,0,1,6.9-4.79c.38,0,.78,0,1.18.06a6.6,6.6,0,0,1,3.9-1.24,13.43,13.43,0,0,1,4.06.82l.33.11-.12.16c-2.69,3.8-5.77,6.38-9.15,7.65A4.56,4.56,0,0,1,78.07,115.36Zm-5.15-3.06c1.78,1.84,3.51,2.78,5.15,2.78h0a4.44,4.44,0,0,0,1.56-.29,19.91,19.91,0,0,0,8.91-7.4,12.83,12.83,0,0,0-3.93-.79,6.38,6.38,0,0,0-3.78,1.21l0,0h-.06a10,10,0,0,0-1.2-.07A6.69,6.69,0,0,0,72.92,112.3Z"/><path class="cls-24" d="M83.52,106.4l.08.27s-3.92.07-5.06,5.2A5.58,5.58,0,0,1,83.52,106.4Z"/><path class="cls-3" d="M78.07,115.36h0c-6,0-11-11.66-11.19-12.16l-.06-.15.15,0c.17-.05,16.93-5.15,27.49-7.12l.24,0-.08.24c-3.93,10.47-8.8,16.68-14.89,19A4.56,4.56,0,0,1,78.07,115.36ZM67.21,103.23c.6,1.37,5.37,11.85,10.86,11.85h0a4.44,4.44,0,0,0,1.56-.29c5.88-2.22,10.8-8.47,14.63-18.57C84.25,98.11,68.9,102.72,67.21,103.23Z"/><path class="cls-2" d="M69.41,70.1c-2,6.86-6.31,11.63-9.52,10.67s-4.13-7.29-2.08-14.14S64.12,55,67.33,56,71.46,63.25,69.41,70.1Z"/><path class="cls-18" d="M68,71.72c-1.74,5.82-5.35,9.87-8.07,9s-3.51-6.18-1.76-12,5.35-9.86,8.07-9.05S69.71,65.91,68,71.72Z"/><path class="cls-19" d="M66.2,59.73c-2.72-.81-6.33,3.24-8.07,9.05a21.52,21.52,0,0,0-.7,3.08,6.39,6.39,0,0,0,1.24,3.94c2.26,3,5.06,1.89,7.1.92a20.89,20.89,0,0,0,2.19-5C69.71,65.91,68.91,60.54,66.2,59.73Z"/><path class="cls-3" d="M60.61,81a2.79,2.79,0,0,1-.76-.11c-1.37-.41-2.31-1.92-2.65-4.24A18.87,18.87,0,0,1,58,68.74c1.58-5.28,4.8-9.26,7.49-9.26a2.79,2.79,0,0,1,.76.11c2.79.84,3.62,6.3,1.86,12.18C66.52,77,63.3,81,60.61,81Zm4.87-21.25c-2.57,0-5.67,3.89-7.22,9a18.79,18.79,0,0,0-.78,7.81c.32,2.21,1.2,3.63,2.45,4a2.6,2.6,0,0,0,.68.1c2.57,0,5.67-3.9,7.22-9.06,1.71-5.72,1-11-1.67-11.81A2.24,2.24,0,0,0,65.48,59.77Z"/><path class="cls-2" d="M50.35,80.88s9.16-4.48,18.24,0Z"/><path class="cls-16" d="M50.35,80.88s10.39-2.53,18.24,0Z"/><path class="cls-3" d="M50.14,81a20,20,0,0,1,7.8-2.19,20.19,20.19,0,0,1,10.44,1.93l-.12.26C59.35,76.61,50.23,81,50.14,81Z"/><path class="cls-25" d="M66.44,72.21c-.76,3.37-2.9,5.76-4.78,5.34s-2.78-3.5-2-6.87,2.9-5.76,4.78-5.34S67.2,68.84,66.44,72.21Z"/><path class="cls-26" d="M62.1,77.8a2.61,2.61,0,0,1-.48,0c-2-.45-3-3.64-2.18-7.12.72-3.16,2.67-5.54,4.54-5.54a2.72,2.72,0,0,1,.49,0c2,.45,3,3.64,2.17,7.12C65.92,75.42,64,77.8,62.1,77.8ZM64,65.5c-1.68,0-3.46,2.25-4.14,5.22-.73,3.26.1,6.23,1.87,6.63a1.72,1.72,0,0,0,.39,0c1.69,0,3.46-2.24,4.14-5.22.73-3.26-.1-6.23-1.87-6.63A1.67,1.67,0,0,0,64,65.5Z"/><path class="cls-25" d="M101.18,68.25c1.17,3.21.67,6.34-1.11,7s-4.19-1.42-5.36-4.63-.67-6.34,1.12-7S100,65,101.18,68.25Z"/><path class="cls-26" d="M99.38,75.57c-1.79,0-3.83-2.06-4.86-4.89A9.41,9.41,0,0,1,94,66.12a3.16,3.16,0,0,1,1.8-2.69,2.17,2.17,0,0,1,.76-.13c1.78,0,3.82,2,4.85,4.88a9.32,9.32,0,0,1,.56,4.56,3.16,3.16,0,0,1-1.8,2.7A2.32,2.32,0,0,1,99.38,75.57ZM96.52,63.7a1.8,1.8,0,0,0-.62.11,2.79,2.79,0,0,0-1.54,2.38,9.07,9.07,0,0,0,.54,4.35c1,2.68,2.86,4.62,4.48,4.62a1.66,1.66,0,0,0,.62-.11,2.76,2.76,0,0,0,1.53-2.37,8.86,8.86,0,0,0-.54-4.36C100,65.64,98.14,63.7,96.52,63.7Z"/><path class="cls-3" d="M59.47,56s7.54-5.13,12-5.7C70,47.92,65.88,46.22,59.47,56Z"/><path class="cls-3" d="M107,57.32s-5.17-8.16-9.85-8.85C99.75,46.5,105,46.79,107,57.32Z"/><path class="cls-27" d="M130.49,84.63c0,2.6-1.18,4.71-2.63,4.71s-2.64-2.11-2.64-4.71,1.18-4.71,2.64-4.71S130.49,82,130.49,84.63Z"/><path class="cls-27" d="M133.89,78.12c.19,1.4-.41,2.64-1.34,2.77s-1.85-.9-2-2.3.4-2.65,1.34-2.78S133.69,76.72,133.89,78.12Z"/><path class="cls-27" d="M135.33,85.71a1.46,1.46,0,1,1-1.42-1.78A1.64,1.64,0,0,1,135.33,85.71Z"/><path class="cls-27" d="M133.19,91.45c0,1.16-.6,2.11-1.35,2.11s-1.35-1-1.35-2.11.61-2.11,1.35-2.11S133.19,90.28,133.19,91.45Z"/><path class="cls-12" d="M185.14,175.42s-7.54,19.1-30.88,18.67c-13.95,1.85-16.37,4.84-29.89.85-3.27-.14-16.65-1.56-22.91-12.95-5.27-4.41-9.25-13.8-6.41-19.21,1.71-3.28,17.79-8.4,34.16,10.67C137.32,180.43,185.14,175.42,185.14,175.42Z"/><path class="cls-13" d="M185.14,175.42s-8.72,17.44-27.79,15.53c-13.95,1.85-25.23,4.42-38.75.44-3.27-.15-7.49-.86-12.93-8-5.26-4.41-11.47-14.75-8.62-20.16,1.77-3.82,17.07-7.3,32.16,10.2C137.32,180.43,185.14,175.42,185.14,175.42Z"/><path class="cls-14" d="M151.11,189.67c1.73-.26,3.47-.52,5.21-.76a16.47,16.47,0,0,0,3.46-4.13c-3.75-.84-7.62-1.07-11.37-1.95A33.68,33.68,0,0,1,151.11,189.67Z"/><path class="cls-14" d="M172.19,184.59c-3.38,0-5.67,1.2-9,.62a26.65,26.65,0,0,1-1.73,3.62,22.54,22.54,0,0,0,12.4-2.9A1.44,1.44,0,0,0,172.19,184.59Z"/><path class="cls-28" d="M135.76,197.06a39.86,39.86,0,0,1-11.41-2c-2.76-.12-16.57-1.32-23-13-5.33-4.48-9.29-13.91-6.41-19.37.83-1.6,4.53-3.25,9.27-3.25,4.92,0,14.74,1.8,25.12,13.9,2.82,2.42,10.86,3.66,23.89,3.66h0c15.12,0,31.74-1.73,31.91-1.74l.23,0-.09.22a31,31,0,0,1-6.56,9.39c-4.3,4.28-11.89,9.38-23.68,9.38h-.77c-3.78.5-6.69,1.09-9.27,1.6A45.11,45.11,0,0,1,135.76,197.06ZM104.2,159.74c-5.11,0-8.35,1.82-9,3.1-2.82,5.36,1.11,14.64,6.37,19l0,0c6.38,11.59,20.11,12.76,22.8,12.88h0a40.09,40.09,0,0,0,11.35,2,45.49,45.49,0,0,0,9.18-1.22c2.57-.51,5.49-1.1,9.3-1.6H155c11.69,0,19.22-5,23.48-9.3a31.44,31.44,0,0,0,6.41-9.07c-2.1.21-17.56,1.72-31.7,1.72h0c-13.1,0-21.21-1.26-24.09-3.74C118.79,161.54,109.07,159.74,104.2,159.74Z"/><path class="cls-29" d="M122.67,169.32c5.92,5.84,9.38,6.53,11.16,6.19a11.8,11.8,0,0,1-4.62-2.06c-16.37-19.07-32.45-13.95-34.16-10.67A8,8,0,0,0,94.3,165C104.76,157.13,117,164.75,122.67,169.32Z"/><path class="cls-28" d="M133,175.73c-1.86,0-5.19-1.1-10.47-6.3-3.55-2.88-10.66-7.71-18.24-7.71a16.31,16.31,0,0,0-10,3.35l-.29.22.07-.36a8.09,8.09,0,0,1,.77-2.22c.83-1.6,4.53-3.25,9.27-3.25,4.92,0,14.74,1.8,25.12,13.9a11.57,11.57,0,0,0,4.55,2l.61.16-.62.12A4.3,4.3,0,0,1,133,175.73Zm-28.71-14.29c7.67,0,14.84,4.87,18.42,7.77,5.23,5.15,8.48,6.23,10.29,6.23h0a10.73,10.73,0,0,1-3.93-1.88c-10.33-12-20.05-13.82-24.92-13.82-5.11,0-8.35,1.82-9,3.1a7.26,7.26,0,0,0-.66,1.78A16.52,16.52,0,0,1,104.33,161.44Z"/><path class="cls-28" d="M120.72,184.73a23.2,23.2,0,0,1-8.48-1.59c-5.44,2.52-11.17-1.31-11.23-1.35l.16-.23c.06,0,5.7,3.79,11,1.3l0,0,.06,0A23,23,0,0,0,123,184.32a16.81,16.81,0,0,0,13-8.38l.24.14a17.08,17.08,0,0,1-13.18,8.52A20.52,20.52,0,0,1,120.72,184.73Z"/><path class="cls-28" d="M153,194.41l-.13-.26A19.78,19.78,0,0,0,162.65,177h.28A20.06,20.06,0,0,1,153,194.41Z"/><path class="cls-28" d="M124.31,195.07c-12.37-5.41-15.46-21.22-15.46-21.22,0,.15,3.83,15.79,15.58,21Z"/><path class="cls-7" d="M122.52,152.39s-3.37-8.3,1.85-12.67,10.53-8.73,13-9.3c5.31,2.09,14.42,4.58,16.32,12.82s4.81,17.33,1.46,29.77C148,172.74,122.52,152.39,122.52,152.39Z"/><path class="cls-8" d="M154.47,165.26c1-9.12-.6-15.16-2.13-21.84-1.9-8.24-9.66-10.91-15-13-2.47.57-7.78,4.94-13,9.3s-1.85,12.67-1.85,12.67,7.84,6.26,16,11.88C144.57,163.1,149,162.14,154.47,165.26Z"/><path class="cls-9" d="M152.34,163.25c1-9.12.14-13.22-1.4-19.9-1.9-8.24-8.19-9.23-13.5-11.31-2.47.57-6.57,4.06-11.79,8.42s-3.13,11.93-3.13,11.93,6.39,5.08,14.59,10.7C143.12,161.92,146.81,160.13,152.34,163.25Z"/><path class="cls-11" d="M155.25,173.16h-.11c-7.12-.27-31.66-19.82-32.71-20.65l0,0v0c0-.08-3.35-8.45,1.89-12.83,5.7-4.77,10.63-8.76,13.06-9.32h.08l1.83.69c5.43,2,12.87,4.8,14.58,12.23.19.85.4,1.71.61,2.58,1.81,7.53,3.86,16.06.84,27.26ZM122.64,152.3c1,.8,25.33,20.1,32.4,20.56,3-11.07.92-19.53-.88-27-.21-.87-.41-1.74-.61-2.59-1.68-7.28-9-10-14.4-12l-1.79-.68c-2.39.59-7.46,4.71-12.9,9.26C119.55,143.94,122.42,151.72,122.64,152.3Z"/><path class="cls-8" d="M128.07,150.15s-.19-8.06,0-8.44c2.47-1.61,9.3-6.83,9.87-7,2.47.95,10.82,4.65,12.14,6.64.67,4.09.86,18.68.86,21.44C148.57,162.4,135,158.79,128.07,150.15Z"/><path class="cls-10" d="M129.07,148.88s-.19-5.79,0-6.17c2.46-1.61,8.48-6.62,9.05-6.81,2.47.95,9.54,4.07,10.87,6.06.66,4.08,1.13,16.94,1.13,19.7C147.75,161.29,134.48,157.87,129.07,148.88Z"/><path class="cls-8" d="M148.18,158.89S130,156.52,131.87,144c1.61-1.71,4.55-4.46,6.07-5.12,1.9.66,8.63,3.51,8.73,5.69S147.62,156.9,148.18,158.89Z"/><path class="cls-9" d="M146.93,157.08s-15.2-1.59-13.81-12.51c1.62-1.7,3.48-4.14,5-4.8,1.9.66,7.86,3.58,7.95,5.76S146.36,155.09,146.93,157.08Z"/><path class="cls-8" d="M136.12,146.17l2.55-2.18a30.88,30.88,0,0,1,5,3.8c-.38,2.37-1,6.4-1,6.4-1.62-.33-4.65-.71-5.7-2S136.12,146.17,136.12,146.17Z"/><path class="cls-10" d="M136.89,146.65l2-1.75a12.82,12.82,0,0,1,3.64,2.94c-.38,2.37-.86,5.24-.86,5.24-1.61-.34-3.18-.41-4.22-1.74S136.89,146.65,136.89,146.65Z"/><path class="cls-8" d="M156.06,143s5.79-6.16,7.12-6.54c2.28.19,10.15.94,11.86,6.54s1.8,18.86.47,19.82c-2,.39-12.71.39-14,.39C158.81,162.77,156.06,143,156.06,143Z"/><path class="cls-10" d="M157.54,143.56s4.61-5.17,5.94-5.55c2.28.19,8.64-.26,10.35,5.34s1.34,17.61,0,18.57c-2,.4-10.65.1-12,.1C159.21,161.53,157.54,143.56,157.54,143.56Z"/><path class="cls-8" d="M162.79,160.88l10.16-.66c-.19-4.18-1.16-14-3.14-15.26a63.78,63.78,0,0,0-6.44-3.15c-2.47,2.18-4.08,3.51-3.8,5.5S160.69,160.31,162.79,160.88Z"/><path class="cls-9" d="M163.22,159.6l8.61-.71c-.18-4.18,0-11.58-2-12.84s-6.33-3.34-6.33-3.34c-2.46,2.18-3.25,3.14-3,5.13S161.13,159,163.22,159.6Z"/><path class="cls-8" d="M163.84,149.87s-.09,6.84,2,6.84,3.42,0,3.42-.76-.09-6.88-2.28-6.86S163.83,149.11,163.84,149.87Z"/><path class="cls-10" d="M164.58,151.15s-.52,4.58,1.57,4.58,2.34.19,2.34-.57.69-5.11-1.49-5.09S164.57,150.39,164.58,151.15Z"/><path class="cls-8" d="M117.82,114.92a17.66,17.66,0,0,0-10.15,9.53c-.09,4.08,1.19,9.29,2.4,11.29a30.91,30.91,0,0,0,9.18,4c2.27-2.94,10.93-12.14,11.11-14.42C128.54,122.07,123.9,117.44,117.82,114.92Z"/><path class="cls-10" d="M117.87,116.22s-6,1.18-8.94,8.43c-.1,4.08.92,8,2.13,10,3.11,2.09,6.67,3.51,7.81,3.61,2.27-2.94,9.93-11,10.11-13.3C127.17,121.77,123.94,118.74,117.87,116.22Z"/><path class="cls-8" d="M117,118.73s7.4,3.72,8.25,5.62c-1.7,3.51-5.39,9.87-6.44,10.34a26.84,26.84,0,0,1-6.54-2.08,41,41,0,0,1-1.72-8.26A66,66,0,0,1,117,118.73Z"/><path class="cls-9" d="M117.16,119.72s5.79,2.73,6.64,4.63c-1.71,3.51-4,8.72-5,9.2a16.78,16.78,0,0,1-5.58-2,42.86,42.86,0,0,1-1.86-6.89A47.87,47.87,0,0,1,117.16,119.72Z"/><path class="cls-8" d="M117.44,123l-3.37,1.43a49.63,49.63,0,0,0,.35,5.31c1.89-.76,2.27-1.23,4.59-1.33C119.34,125.58,118.78,122.64,117.44,123Z"/><path class="cls-10" d="M117.57,123.64l-2.77,1c.15,4.17,0,3.69,0,3.69,1.88-.76,1.24-.62,3.56-.72C118.69,124.78,118.9,123.26,117.57,123.64Z"/><path class="cls-2" d="M170.48,180.3s7,6.53,9.11,14.64c-1.14,2.14-4.84,7.55,9,5.7,5.64-1.17,13.06-2.46,12.31-10-.57-5.4-6.83-16.12-13.47-16.78C178.88,176.72,170.48,180.3,170.48,180.3Z"/><path class="cls-15" d="M192.69,190c-.52-3.57-.72-5.65-2.76-7.81-1.94-1.37-3.71-1.05-8.35,0-1.13.29-2.56,1.14-3.7,1.43a8.41,8.41,0,0,1-4.38.08,31.79,31.79,0,0,1,6.09,11.3c-1.14,2.14,1.23,2.57,7.91,2C193.15,195.76,193.33,194.41,192.69,190Z"/><path class="cls-16" d="M191.34,190c-.51-3.57-.22-5-2.26-7.13-2-1.37-2.36-1.09-7-.06-1.14.28-2.71,1-3.85,1.28s-1.38.82-2.84.4a23.55,23.55,0,0,1,5.13,9.72c-1.14,2.14.08,1.6,6.76,1C192.92,194,192,194.41,191.34,190Z"/><path class="cls-3" d="M183.72,201.16h0c-2.9,0-4.63-.55-5.29-1.66-.78-1.33.19-3.1.84-4.26l.17-.31c-2.12-8-9-14.46-9.06-14.53l-.15-.15.2-.08c.08,0,8.5-3.61,17-6.43h.06c6.78.67,13.05,11.66,13.6,16.9.75,7.43-6.27,8.87-11.91,10l-.51.11A39,39,0,0,1,183.72,201.16Zm-13-20.81c1,1,7,7.17,9,14.56V195l0,0-.2.36c-.62,1.12-1.54,2.8-.84,4,.59,1,2.29,1.52,5,1.52h0a36.42,36.42,0,0,0,4.89-.38l.51-.1c5.52-1.14,12.4-2.55,11.68-9.72-.55-5.16-6.68-16-13.32-16.65C179.73,176.59,172.05,179.79,170.74,180.35Z"/><path class="cls-2" d="M127.8,171.66s-7,4.35,1.84,26.7c-1.29,3.13-5.84,9.68,8.39,10.1,7-.14,12.67-1.7,13.52-6.26a40,40,0,0,0-14.23-32.45Z"/><path class="cls-15" d="M137.46,177c-7.2-1.09-9.66-5.3-9.66-5.3s-7,4.35,1.84,26.7c-1.29,3.13.72,4.63,9,5.11C147,203.47,146.23,187.72,137.46,177Z"/><path class="cls-16" d="M136.61,178.26c-7.2-1.1-8.75-5.21-8.75-5.21s-5.34,3.91,3.06,25.1c-1.28,3.13.81,3.84,7.49,3.84C145.29,202,145.38,189,136.61,178.26Z"/><path class="cls-3" d="M138,208.61c-5.36-.16-8.54-1.18-9.73-3.11s-.07-4.41.76-6.21c.15-.33.29-.65.41-.93-4.55-11.54-4.75-18.29-4.12-21.93.7-4,2.7-5,2.7-5s-7,4.93,1.71,26.87l0,.05,0,0c-.13.31-.28.64-.45,1-.8,1.74-1.9,4.12-.77,5.94s4.31,2.82,9.49,3c8.14-.17,12.64-2.23,13.37-6.14.34-13-4.44-23.92-14.18-32.32l.18-.22c9.82,8.47,14.62,19.42,14.29,32.57C150.93,206.29,146.34,208.44,138,208.61Z"/><path class="cls-3" d="M102.12,200.55c-2.85-2.25-4.72-1.91-4.74-1.91s2-.65,4.92,1.69Z"/><path class="cls-27" d="M92.26,182.86c-.47,1.8-1.91,3-3.2,2.65s-2-2.08-1.49-3.89,1.91-3,3.2-2.65S92.74,181.05,92.26,182.86Z"/><path class="cls-27" d="M95.91,187.14c0,1.56-.8,2.82-1.79,2.82s-1.78-1.26-1.78-2.82.8-2.83,1.78-2.83S95.91,185.58,95.91,187.14Z"/><path class="cls-27" d="M89.55,189.66a2.37,2.37,0,1,1-2.37-2.52A2.45,2.45,0,0,1,89.55,189.66Z"/><path class="cls-27" d="M92.34,194.56a2,2,0,1,1-2-2.37A2.21,2.21,0,0,1,92.34,194.56Z"/><path class="cls-27" d="M94.63,200.91c0,1.34-.61,2.43-1.36,2.43s-1.35-1.09-1.35-2.43.61-2.43,1.35-2.43S94.63,199.57,94.63,200.91Z"/><path class="cls-27" d="M87.18,196.07c0,1.33-.66,2.41-1.47,2.41s-1.47-1.08-1.47-2.41.65-2.41,1.47-2.41S87.18,194.74,87.18,196.07Z"/><path class="cls-27" d="M90.94,200.91c0,1.34-.77,2.43-1.73,2.43s-1.72-1.09-1.72-2.43.77-2.43,1.72-2.43S90.94,199.57,90.94,200.91Z"/><path class="cls-27" d="M130.36,180.19c0,1.78-.77,3.22-1.71,3.22s-1.72-1.44-1.72-3.22.77-3.23,1.72-3.23S130.36,178.41,130.36,180.19Z"/><path class="cls-27" d="M133.83,184.63c0,1.39-.47,2.51-1.05,2.51s-1.05-1.12-1.05-2.51.47-2.5,1.05-2.5S133.83,183.25,133.83,184.63Z"/><path class="cls-27" d="M136.12,191.39c0,1.25-.75,2.27-1.67,2.27s-1.67-1-1.67-2.27.75-2.28,1.67-2.28S136.12,190.13,136.12,191.39Z"/><path class="cls-27" d="M134.69,197.76c0,.94-.43,1.7-1,1.7s-.95-.76-.95-1.7.43-1.69.95-1.69S134.69,196.83,134.69,197.76Z"/><path class="cls-27" d="M132.5,193c0,1.38-.71,2.49-1.58,2.49s-1.57-1.11-1.57-2.49.71-2.49,1.57-2.49S132.5,191.65,132.5,193Z"/><path class="cls-27" d="M130.92,187.56c0,1.64-.89,3-2,3s-2-1.33-2-3,.9-3,2-3S130.92,185.92,130.92,187.56Z"/><path class="cls-27" d="M192,186c.31,2.29-.57,4.31-2,4.5s-2.79-1.52-3.1-3.82.58-4.31,2-4.5S191.64,183.69,192,186Z"/><path class="cls-27" d="M194.68,182.77a1.38,1.38,0,1,1-1.35-1.64A1.52,1.52,0,0,1,194.68,182.77Z"/><path class="cls-27" d="M195.67,188.54c0,1.1-.52,2-1.17,2s-1.17-.89-1.17-2,.52-2,1.17-2S195.67,187.44,195.67,188.54Z"/><path class="cls-27" d="M186.85,190c0,.79-.38,1.43-.85,1.43s-.86-.64-.86-1.43.38-1.42.86-1.42S186.85,189.18,186.85,190Z"/><path class="cls-4" d="M178.23,202.27s5.77-.64,5.13-2.92S179.57,195.37,178.23,202.27Z"/><path class="cls-5" d="M178.23,202.27s4.06-1.85,4-3.24C182.12,196.66,179.45,196.93,178.23,202.27Z"/><path class="cls-6" d="M178.05,202.44l0-.2c.85-4.37,2.36-5,3.18-5a2.65,2.65,0,0,1,2.23,2.11,1.3,1.3,0,0,1-.19,1.13c-1,1.5-4.9,2-5.06,2Zm3.22-4.94c-1.22,0-2.26,1.67-2.86,4.61.8-.11,3.86-.61,4.67-1.81a1.06,1.06,0,0,0,.15-.91A2.39,2.39,0,0,0,181.27,197.5Z"/><path class="cls-4" d="M185.74,204.05s5.52-3.27,3.67-5.62S183.84,197.72,185.74,204.05Z"/><path class="cls-5" d="M185.74,204.05s3.43-3.38,2.39-5.26C186.68,196.17,184.43,198.79,185.74,204.05Z"/><path class="cls-6" d="M185.65,204.27l-.05-.18c-1-3.49-.32-5.2.21-5.91a2.12,2.12,0,0,1,1.72-.91,2.59,2.59,0,0,1,2,1.07,1.82,1.82,0,0,1,.38,1.52c-.39,2.1-3.94,4.22-4.09,4.31Zm1.88-6.72a1.85,1.85,0,0,0-1.49.8c-.82,1.11-.9,3.1-.22,5.48.7-.44,3.47-2.29,3.8-4a1.53,1.53,0,0,0-.32-1.29A2.3,2.3,0,0,0,187.53,197.55Z"/><path class="cls-4" d="M192.83,202.27s3.9-4.73,1.85-5.62S189.48,197.43,192.83,202.27Z"/><path class="cls-5" d="M192.83,202.27s2.26-4.23,1-4.76C191.7,196.58,189.93,197.86,192.83,202.27Z"/><path class="cls-6" d="M192.82,202.51l-.11-.16c-1.41-2-1.85-3.79-1.24-4.94a2.23,2.23,0,0,1,2.06-1.14,2.93,2.93,0,0,1,1.2.25,1.06,1.06,0,0,1,.65.75c.39,1.63-2.33,4.95-2.44,5.09Zm.71-6a2,2,0,0,0-1.81,1c-.31.6-.58,2,1.12,4.49.52-.66,2.58-3.38,2.26-4.69a.77.77,0,0,0-.48-.56A2.77,2.77,0,0,0,193.53,196.55Z"/><path class="cls-4" d="M140.1,209.89s4.62-1.85,4.34-3.85-2.78-2.06-3.49-1.56S140.1,209.89,140.1,209.89Z"/><path class="cls-5" d="M140.19,208.23s3.49-.19,3.21-2.19-1.74-2.06-2.45-1.56S140.19,208.23,140.19,208.23Z"/><path class="cls-6" d="M140,210.1v-.22c0-.51.17-5,.92-5.52s3.41-.43,3.71,1.66-4.24,3.92-4.43,4Zm2.09-5.74a1.86,1.86,0,0,0-1,.24c-.45.32-.72,3.18-.78,5.07.87-.38,4.28-2,4.05-3.61A2.08,2.08,0,0,0,142,204.36Z"/><path class="cls-4" d="M132.5,210.46s6.53-1.12,6.39-3.41-2.12-4.14-4.44-3S132.3,209.82,132.5,210.46Z"/><path class="cls-5" d="M132.5,208.64s5.53.17,5.39-2.12-1.65-3.53-3.44-2.47S132.3,208,132.5,208.64Z"/><path class="cls-6" d="M132.4,210.62l0-.12c-.18-.59-.42-5.38,2-6.58a3.28,3.28,0,0,1,1.46-.36A3.43,3.43,0,0,1,139,207c.15,2.39-6.24,3.51-6.51,3.56Zm3.45-6.77a3,3,0,0,0-1.34.33c-2.13,1-2.06,5.21-1.9,6.11-2,.37,6.28-.81,6.13-3.23A3.15,3.15,0,0,0,135.85,203.85Z"/><path class="cls-4" d="M125.24,208.46s9-1.61,7.15-4.75S125.74,202.13,125.24,208.46Z"/><path class="cls-5" d="M125.56,206.52s6.38-.41,5.78-2.47C130.33,200.56,126.58,202.44,125.56,206.52Z"/><path class="cls-6" d="M125.08,208.64v-.19c.34-4.24,2.65-6.46,4.75-6.46a3.08,3.08,0,0,1,2.67,1.64,1.64,1.64,0,0,1,.12,1.57c-1,2.24-7.11,3.36-7.37,3.4Zm4.76-6.36c-1.94,0-4.07,2.06-4.45,6,1-.21,6.1-1.31,7-3.21a1.35,1.35,0,0,0-.1-1.3A2.78,2.78,0,0,0,129.84,202.28Z"/><path class="cls-4" d="M86.16,206.26l4.2,4.69c1.35-1.13,2.23-4.62.58-5.9A3.36,3.36,0,0,0,86.16,206.26Z"/><path class="cls-5" d="M86.16,206.26l3.39,3.63c1.35-1.14,1-3.85.36-4.57C88.52,203.76,86.67,205.32,86.16,206.26Z"/><path class="cls-6" d="M90.34,211.15,86,206.29l0-.09a3.57,3.57,0,0,1,3.18-1.86,2.86,2.86,0,0,1,1.81.6,2.74,2.74,0,0,1,1,2.23,5.39,5.39,0,0,1-1.53,3.89Zm-4-4.92,4.05,4.52a5.29,5.29,0,0,0,1.32-3.58,2.54,2.54,0,0,0-.84-2,2.65,2.65,0,0,0-1.64-.54A3.39,3.39,0,0,0,86.32,206.23Z"/><path class="cls-4" d="M92.41,205.3l4,5.65c1.28-1.63,1.91-4.83.95-6S94.4,203.56,92.41,205.3Z"/><path class="cls-5" d="M92.41,205.3l3,3.94c1.42-.21,1.91-2.79,1-3.92S94.4,203.56,92.41,205.3Z"/><path class="cls-6" d="M96.4,211.19l-4.18-5.91.1-.09a4.61,4.61,0,0,1,3-1.27,2.77,2.77,0,0,1,2.17,1c1,1.23.34,4.51-.94,6.15Zm-3.79-5.87,3.8,5.39c1.22-1.7,1.67-4.64.84-5.64a2.54,2.54,0,0,0-2-.87A4.26,4.26,0,0,0,92.61,205.32Z"/><path class="cls-4" d="M98.82,204.48l3.92,4.55c.85-.78,1.71-4.48,0-5.69S98.82,204.48,98.82,204.48Z"/><path class="cls-5" d="M98.82,204.48l3.09,3.59a2.87,2.87,0,0,0,.39-4C100.88,202.51,98.82,204.48,98.82,204.48Z"/><path class="cls-6" d="M102.73,209.24l-4.1-4.77.09-.09a4.88,4.88,0,0,1,2.93-1.53,2,2,0,0,1,1.17.37,2.83,2.83,0,0,1,1,2.24,5.41,5.41,0,0,1-1,3.68ZM99,204.49l3.72,4.33a5.63,5.63,0,0,0,.83-3.34,2.59,2.59,0,0,0-.92-2,1.61,1.61,0,0,0-1-.32A4.42,4.42,0,0,0,99,204.49Z"/><path class="cls-10" d="M110,139.72s16.22,10.68,20.49,15.94c2,.29,7,.83,12.53,8.25,3.27.58,10.14,1.71,14.82,6,2.11-1.85,13.07-4.12,20.33-.85,1.56-2.67,9.53-5.84,12.72-6.24,3.79-.45,10.69,4.6,9.19,7.09C198,173,186.83,180.46,182.36,180.3c-6,2.12-13,6-25.54,2.83-6-.43-13.26-2-18.15-8.4-5.76-2.56-12.16-7.42-13.16-10.82-2.56-1-11.36-8.53-11.44-12.23C112.27,148,110,139.72,110,139.72Z"/><path class="cls-11" d="M165.84,184.45a36.84,36.84,0,0,1-9.05-1.18c-5.34-.38-13.06-1.67-18.21-8.42-5.51-2.46-12.08-7.28-13.19-10.84-2.82-1.15-11.33-8.57-11.46-12.3-1.78-3.68-4.05-11.87-4.07-12l-.1-.37.31.21c.17.11,16.21,10.69,20.49,15.93h.09c2.1.3,7,1,12.44,8.24l.16,0c3.25.58,10,1.77,14.59,5.91,1.53-1.21,6.39-2.47,11.45-2.47a22.15,22.15,0,0,1,8.82,1.62c1.74-2.7,9.56-5.8,12.76-6.21a4.26,4.26,0,0,1,.51,0c3.09,0,7.33,2.8,8.63,5.1a2.18,2.18,0,0,1,.2,2.24c-2.27,3.32-13.37,10.61-17.83,10.47-.78.28-1.57.58-2.4.9C176.13,182.8,171.77,184.45,165.84,184.45Zm-55.6-44.4a93.3,93.3,0,0,0,4,11.56l0,.06c.08,3.57,8.7,11.09,11.35,12.1l.06,0,0,.07c1,3.49,7.58,8.29,13.08,10.73l0,0,0,0c5.09,6.68,12.74,8,18.05,8.34a37.14,37.14,0,0,0,9,1.18c5.88,0,10.22-1.65,14-3.1.84-.32,1.64-.63,2.43-.9h.05c4.28.16,15.43-7.15,17.61-10.35a1.88,1.88,0,0,0-.21-1.94c-1.24-2.19-5.43-5-8.38-5a3.59,3.59,0,0,0-.47,0c-3.12.39-11.09,3.57-12.62,6.17l-.06.11-.12-.05a21.73,21.73,0,0,0-8.82-1.64c-5.1,0-10,1.28-11.36,2.47l-.1.09-.09-.09c-4.54-4.15-11.29-5.34-14.53-5.92l-.28,0,0,0c-5.39-7.19-10.22-7.88-12.29-8.17l-.19,0,0-.05C126.5,151,112.53,141.58,110.24,140.05Z"/><path class="cls-7" d="M118.78,145.53a36.2,36.2,0,0,1-4.09,4.62c3.55,6.52,9.18,12.06,11.53,12.7h0a19.12,19.12,0,0,0,4.13-7.37C128,152.4,123.16,148.62,118.78,145.53Z"/><path class="cls-8" d="M127.19,161.66a18,18,0,0,0,3.17-6.17c-2.34-3.09-7.2-6.87-11.58-10a43.15,43.15,0,0,1-3,3.57C119,153.83,122.08,159.25,127.19,161.66Z"/><path class="cls-9" d="M126.93,159.6c2-2.61,1.78-2.72,2.14-4.11-2.34-3.09-5.67-5.42-10.06-8.51a15.13,15.13,0,0,1-1.83,2.16C120.42,153.86,121.83,157.19,126.93,159.6Z"/><path class="cls-11" d="M126.22,163.09l-.08-.12c-2.55-.74-8.13-6.43-11.58-12.75l0-.09.08-.08a35.14,35.14,0,0,0,4.07-4.61l.09-.11.11.08c5.75,4.05,9.66,7.41,11.61,10l0,.06v.06a19.15,19.15,0,0,1-4.16,7.43Zm-11.36-12.91c3.36,6.1,8.88,11.77,11.32,12.51a18.83,18.83,0,0,0,4-7.17c-1.93-2.53-5.76-5.83-11.39-9.8A35.45,35.45,0,0,1,114.86,150.18Z"/><path class="cls-7" d="M143.15,163.93l-.13,0c-5.56-7.42-10.54-8-12.53-8.25l-.13-.17a19.12,19.12,0,0,1-4.13,7.37c1.29,1.79,7.3,8.5,12.69,10.15C141.71,170.34,142.76,166.3,143.15,163.93Z"/><path class="cls-8" d="M143,163.91c-5.56-7.42-10.54-8-12.53-8.25l-.13-.17a17.88,17.88,0,0,1-3.17,6.16c2.62,3.38,8.28,7.06,12.69,10.31a17.76,17.76,0,0,0,3.27-8Z"/><path class="cls-9" d="M141.66,164.52c-5.55-7.41-10.69-7.38-10.74-7.44-.36,1.4-.31,2-2.27,4.58,2.61,3.38,6,4.84,10.42,8.09A12.46,12.46,0,0,0,141.66,164.52Z"/><path class="cls-11" d="M139,173.17l-.08,0c-5.73-1.76-11.81-8.88-12.77-10.21l-.06-.09.07-.08a18.91,18.91,0,0,0,4.1-7.32l.07-.28.28.36h.08c2.1.3,7,1,12.44,8.24l.22,0,0,.14c-.37,2.25-1.41,6.43-4.27,9.17Zm-12.55-10.3c1.57,2.13,7.41,8.38,12.47,10,2.7-2.62,3.73-6.58,4.11-8.8h-.06l0,0c-5.39-7.19-10.22-7.88-12.29-8.17l-.19,0A19.51,19.51,0,0,1,126.41,162.87Z"/><path class="cls-7" d="M118.78,145.53c-4.31-3-8.15-5.39-8.71-5.76a79.89,79.89,0,0,0,4.6,10.36l0,0A36.2,36.2,0,0,0,118.78,145.53Z"/><path class="cls-8" d="M118.78,145.53c-4.31-3-8.15-5.39-8.71-5.76a49.18,49.18,0,0,0,5.86,9.37C117,147.55,117.81,146.8,118.78,145.53Z"/><path class="cls-9" d="M117.18,145.33c-4.3-3-5.28-3.67-5.84-4a28.83,28.83,0,0,0,4.42,5.69C116.82,145.39,116.22,146.6,117.18,145.33Z"/><path class="cls-11" d="M114.65,150.38l-.09-.16.13-.07-.14.06a81.71,81.71,0,0,1-4.62-10.4l-.14-.39.35.23.64.41c1.37.86,4.58,2.89,8.08,5.35l.12.09-.09.11a35.72,35.72,0,0,1-4.11,4.65Zm-4.31-10.27a81.72,81.72,0,0,0,4.38,9.82,36,36,0,0,0,3.85-4.37c-3.44-2.42-6.59-4.41-7.94-5.26Z"/><path class="cls-7" d="M199.92,167.87c-1.35-2.5-6.11-5.42-9-5.07-3.15.39-11,3.5-12.66,6.15,1.46,1.89,3.81,5.55,3.85,9.36l.14-.05C189.42,175.62,193.05,174.2,199.92,167.87Z"/><path class="cls-8" d="M197.38,167.38c-1.35-2.49-4-5-6.49-4.58-3.12.56-11,3.5-12.66,6.15a18.63,18.63,0,0,1,3.66,7.52A47,47,0,0,0,197.38,167.38Z"/><path class="cls-9" d="M195.74,167.38c-1.35-2.49-3.47-3.89-5.9-3.45-3.13.57-8.63,3.79-10.11,5.37,1.46,1.9,2.46,2.73,2.92,5.46A59.15,59.15,0,0,0,195.74,167.38Z"/><path class="cls-11" d="M181.94,178.52v-.21c0-3.79-2.41-7.44-3.82-9.28l-.06-.08.05-.08c1.72-2.69,9.61-5.82,12.76-6.22a4.26,4.26,0,0,1,.51,0c2.85,0,7.3,2.65,8.67,5.17l0,.1L200,168c-6.76,6.23-10.33,7.7-17.75,10.42Zm-3.53-9.58c1.41,1.86,3.69,5.42,3.81,9.17,7.32-2.69,10.87-4.15,17.52-10.27-1.26-2.2-5.39-4.93-8.36-4.93a3.59,3.59,0,0,0-.47,0C187.84,163.33,180.19,166.33,178.41,168.94Z"/><path class="cls-30" d="M178.17,169c-7.26-3.27-18.22-1-20.33.85h0a23.39,23.39,0,0,1-.28,11.25h.3c5.29.85,10.47,2.69,24.24-2.83,0-3.81-2.39-7.47-3.85-9.36Z"/><path class="cls-7" d="M178.17,169c-7.26-3.27-18.22-1-20.33.85h0a23.39,23.39,0,0,1-.28,11.25h.3c5.29.85,10.47,2.69,24.24-2.83,0-3.81-2.39-7.47-3.85-9.36Z"/><path class="cls-8" d="M181.81,176.09a19.48,19.48,0,0,0-3.58-7.14l-.06.09c-7.26-3.27-18.22-1-20.33.85h0a25.12,25.12,0,0,1,.16,9.54C166.08,180.32,174.74,180,181.81,176.09Z"/><path class="cls-9" d="M179.45,175.66a24.09,24.09,0,0,0-2-5.48c-7.26-3.27-15.81-1.46-17.92.39a30.51,30.51,0,0,1-.3,7.69C167.34,179.15,172.38,179.56,179.45,175.66Z"/><path class="cls-11" d="M165.9,182.27a34.18,34.18,0,0,1-6.46-.71c-.55-.1-1.09-.2-1.63-.28h-.46l.05-.19a22.92,22.92,0,0,0,.28-11.17l-.09-.44.25.23c1.53-1.2,6.4-2.46,11.45-2.46a22.24,22.24,0,0,1,8.83,1.62l.1-.16.12.16c1.43,1.86,3.84,5.57,3.88,9.45v.1l-.09,0C175.62,181.05,170.46,182.27,165.9,182.27ZM157.73,181h.11c.56.08,1.1.18,1.65.28a33.71,33.71,0,0,0,6.41.71c4.5,0,9.6-1.2,16-3.77-.08-3.66-2.29-7.16-3.7-9v0l-.12-.05a21.73,21.73,0,0,0-8.82-1.64c-5,0-9.88,1.25-11.31,2.43A23.44,23.44,0,0,1,157.73,181Z"/><path class="cls-7" d="M157.82,169.88c-4.61-4.2-11.35-5.36-14.67-5.95-.39,2.37-1.44,6.41-4.23,9.08h0c1.34,2,6.5,7.8,18.58,8.11A23.39,23.39,0,0,0,157.82,169.88Z"/><path class="cls-8" d="M157.82,169.88c-4.61-4.2-11.35-5.36-14.67-5.95a17.64,17.64,0,0,1-3.4,8.18A29,29,0,0,0,158,179.29,25.19,25.19,0,0,0,157.82,169.88Z"/><path class="cls-9" d="M156.82,170.57c-4.61-4.2-9.49-4.93-12.81-5.51a10.54,10.54,0,0,1-2.85,6.12c5.12,4.39,8.6,6.42,15.52,6.61A15.41,15.41,0,0,0,156.82,170.57Z"/><path class="cls-11" d="M157.64,181.27h-.1c-12.79-.32-17.74-6.73-18.67-8.13l-.2-.06.15-.17c2.8-2.68,3.83-6.79,4.19-9l0-.15.23,0c3.26.58,10.05,1.78,14.66,6l0,0v0a23.3,23.3,0,0,1-.29,11.32ZM139.12,173c1,1.42,5.83,7.62,18.32,8a23.18,23.18,0,0,0,.25-11c-4.52-4.08-11.17-5.28-14.42-5.85C142.88,166.34,141.85,170.34,139.12,173Z"/><path class="cls-2" d="M54.06,96.74a39,39,0,0,0,14.26,8.68c2.25.86,6.66,2.28,6.66,2.28,2.42-2.28,7-4.13,11.25-5.48s13.66-4.63,19.07-9.89Z"/><path class="cls-15" d="M54.06,96.74A46.56,46.56,0,0,0,67.94,104,50.66,50.66,0,0,0,75,105.62c2.42-2.27,5.72-3.4,10-4.75s15.43-4.69,20.28-8.54Z"/><path class="cls-16" d="M54.06,96.74a101.79,101.79,0,0,0,13.74,5.62,33.12,33.12,0,0,0,6.47,1.28c2.42-2.27,6-2.7,10.25-4s15.93-3.41,20.78-7.26Z"/><path class="cls-2" d="M55.74,84s13.16-17,43.47-5Z"/><path class="cls-16" d="M55.74,84S67,70.25,99.21,79L72,83.93Z"/><path class="cls-17" d="M104.23,86.07C104.86,91.85,86.46,99.62,74,101S54,98,53.35,92.23s6-13.23,22.21-14.86C88,76.12,103.61,80.28,104.23,86.07Z"/><path class="cls-3" d="M75,107.86l-.08,0s-4.44-1.43-6.67-2.28A39.26,39.26,0,0,1,54,96.84l.21-.2a39,39,0,0,0,14.2,8.65c2.06.78,6,2,6.58,2.25,2.07-1.91,5.85-3.75,11.23-5.46,8.62-2.73,15.2-6.13,19-9.85l.2.2c-3.85,3.75-10.47,7.18-19.13,9.93-5.4,1.71-9.16,3.54-11.19,5.44Z"/><path class="cls-3" d="M109.88,97.25c-4.45-6.53-8.93-6.07-9-6.06a6.48,6.48,0,0,1,4.45,1.06A14.51,14.51,0,0,1,109.88,97.25Z"/><path class="cls-3" d="M51.64,100.06a9.19,9.19,0,0,1,2.27-3.51,11.1,11.1,0,0,1,4.34-2.31C52.83,96.53,51.65,100,51.64,100.06Z"/><path class="cls-3" d="M85.62,86a6.5,6.5,0,0,1,5-1.89c-7,.83-6.86,6.72-6.85,7A7,7,0,0,1,85.62,86Z"/><path class="cls-3" d="M59,88.3c1.79-1.81,4.47-.67,4.47-.67-2-.33-3.39,0-4.26.87-1.42,1.5-.85,4.2-.84,4.22S57.4,89.88,59,88.3Z"/><ellipse class="cls-31" cx="61.46" cy="93.56" rx="1.99" ry="3.5"/><path class="cls-32" d="M61.46,90.05c-.74,0-1.39.73-1.73,1.79,0,2.26,1,4.13,2.84,4.63a4.63,4.63,0,0,0,.89-2.91C63.46,91.62,62.56,90.05,61.46,90.05Z"/><path class="cls-3" d="M61.46,97.2c-1.17,0-2.13-1.63-2.13-3.64s1-3.65,2.13-3.65,2.14,1.64,2.14,3.65S62.64,97.2,61.46,97.2Zm0-7c-1,0-1.85,1.5-1.85,3.36s.83,3.36,1.85,3.36,1.85-1.51,1.85-3.36S62.48,90.2,61.46,90.2Z"/><path class="cls-31" d="M90.41,91c-.49,1.87-1.76,3.16-2.82,2.88s-1.53-2-1-3.9,1.75-3.16,2.81-2.88S90.9,89.11,90.41,91Z"/><path class="cls-32" d="M89.86,87.36a1.18,1.18,0,0,0-.49-.27c-1.06-.28-2.32,1-2.81,2.88a4.26,4.26,0,0,0,.27,3.31C89.27,92.87,89.93,89.89,89.86,87.36Z"/><path class="cls-3" d="M87.89,94.05a1.27,1.27,0,0,1-.34,0,1.85,1.85,0,0,1-1.2-1.45,5.21,5.21,0,0,1,.07-2.62c.46-1.75,1.58-3,2.66-3a1.24,1.24,0,0,1,.33,0,1.85,1.85,0,0,1,1.2,1.45A5.32,5.32,0,0,1,90.55,91C90.09,92.77,89,94.05,87.89,94.05Zm1.19-6.86c-.94,0-2,1.21-2.39,2.82a5,5,0,0,0-.06,2.47,1.57,1.57,0,0,0,1,1.25,1.09,1.09,0,0,0,.26,0c.93,0,2-1.21,2.38-2.81a5,5,0,0,0,.07-2.47,1.57,1.57,0,0,0-1-1.25A1.17,1.17,0,0,0,89.08,87.19Z"/><path class="cls-3" d="M55.74,84a19.3,19.3,0,0,1,6.06-5.15,32,32,0,0,1,4.33-2.05c5.74-2.19,15-3.76,27.69,0,1.83.55,5.59,2.24,5.59,2.24-15.62-6.16-26.66-4.48-33.18-2A26.17,26.17,0,0,0,55.74,84Z"/><path class="cls-3" d="M71.38,89.51c-.27-6.05,1.46-8.93,1.46-8.93S69.55,87.89,74,103.1A46.16,46.16,0,0,1,71.38,89.51Z"/><path d="M65.91,72.73C65.48,74.81,64,76.26,62.55,76s-2.24-2.22-1.81-4.3,1.93-3.52,3.36-3.23S66.34,70.65,65.91,72.73Z"/><path class="cls-19" d="M64.9,68.88a1.23,1.23,0,1,1-1.23-1.23A1.23,1.23,0,0,1,64.9,68.88Z"/><path d="M96,71.65c.56,2,2.14,3.35,3.53,3s2.07-2.34,1.5-4.37-2.14-3.35-3.53-3S95.43,69.62,96,71.65Z"/><path class="cls-19" d="M96.73,67.78A1.22,1.22,0,0,0,98,68.92a1.23,1.23,0,0,0,1.14-1.3,1.22,1.22,0,0,0-1.3-1.13A1.2,1.2,0,0,0,96.73,67.78Z"/><path class="cls-14" d="M97.9,164.17s-2.83,7.61,8.75,18.66c.57.51,3.79-.19,4.41-.56-1-1.84-3.06-6.65-2.21-9.44,1.07,2,2.92,8.72,4.42,9.3,1.71.64,7,2,11.16.7-.91-3.83-.22-7.68.81-9.09C122.38,170.68,109.28,158.59,97.9,164.17Z"/><path class="cls-14" d="M107.93,184.59a13.83,13.83,0,0,0,8.71,5.94,24.23,24.23,0,0,1-4.72-6.22C111.21,184.55,109.05,185.28,107.93,184.59Z"/><path class="cls-14" d="M114.28,184.63a15.35,15.35,0,0,0,10.15.35c.65,2.29,1,5,1.8,7.15A14.34,14.34,0,0,1,114.28,184.63Z"/></svg>