<svg id="Layer_1" data-name="Layer 1" xmlns="http://www.w3.org/2000/svg" viewBox="0 0 256 256"><defs><style>.cls-1{opacity:0.3;}.cls-2{fill:#f5c6bf;}.cls-3{fill:#fff1f0;}.cls-4{fill:#f1a9a6;}.cls-5{fill:#a52020;}.cls-6{fill:#7d0800;}.cls-7{fill:#cc3d3a;}.cls-8{fill:#600200;}.cls-9{fill:#280100;}.cls-10{fill:#ffaad8;}.cls-11{fill:#ef81c3;}.cls-12{fill:#4c0000;}.cls-13{fill:#280000;}.cls-14{fill:#ff8f8f;}.cls-15{fill:#ffdcdc;}.cls-16{fill:#f96969;}.cls-17{fill:#d83030;}.cls-18{fill:#fff;}.cls-19{fill:#d8d8d8;}.cls-20{fill:#0e3eaa;}.cls-21{fill:#003dc6;}.cls-22{fill:#002066;}.cls-23{fill:#f88092;}.cls-24{fill:#ffc7d4;}.cls-25{fill:#e8627f;}.cls-26{fill:#72081d;}.cls-27{fill:#592525;}.cls-28{fill:#381212;}.cls-29{fill:#1e0707;}</style></defs><ellipse class="cls-1" cx="136.06" cy="208.39" rx="87.72" ry="14.06"/><path class="cls-2" d="M209.12,95.42c-.6-3.51,0-9.28,5.71-12,5.11-2.46,9-.8,9,.73,0,2.21-8.83,2-8.55,7.61C214.67,92.43,209.12,95.42,209.12,95.42Z"/><path class="cls-3" d="M222.21,82.52c-1.6-.61-4.26-.65-7.38.86-5.72,2.76-6.31,8.53-5.71,12l1-.54C209.46,87.68,214.26,82.78,222.21,82.52Z"/><path class="cls-4" d="M221.84,82.39c1.21,1,1,1.86-1.11,2.32-2.56.55-9.64,2.72-8.39,8.92a19.3,19.3,0,0,0,2.93-1.91c-.28-5.6,8.55-5.4,8.55-7.61C223.82,83.45,223.08,82.76,221.84,82.39Z"/><path class="cls-5" d="M208.88,95.91l-.07-.43c-.73-4.27.43-9.76,5.88-12.39a12.1,12.1,0,0,1,5.15-1.28c2.69,0,4.3,1.17,4.3,2.3s-1.37,1.58-3.09,2.24c-2.51,1-5.62,2.13-5.46,5.35v.12l-.08.1c-.61.74-5.66,3.47-6.24,3.78Zm11-13.47A11.4,11.4,0,0,0,215,83.66c-4.95,2.39-6.14,7.3-5.6,11.27A54.28,54.28,0,0,0,215,91.59c-.09-3.57,3.35-4.88,5.87-5.84,1.38-.52,2.68-1,2.68-1.64S222.2,82.44,219.84,82.44Z"/><path class="cls-2" d="M223.82,90.09C215,88,210.4,92.68,208.81,96c0,0,8.1,13.34,11.24,15.88,1.87.53,8.89.6,11.79-4.77A11.67,11.67,0,0,0,223.82,90.09Zm.58,16.36c-3.77.35-4.69-4-4.42-6.15,1.16-3.2,5.56-2.85,7.1-.09C228.29,102.37,227.88,106.12,224.4,106.45Z"/><path class="cls-3" d="M225.59,92.63c4.11,1.61,6.46,5,7.65,9.16a11.65,11.65,0,0,0-9.42-11.7C215,88,210.4,92.68,208.81,96c0,0,.44.73,1.16,1.88C213.12,92.65,218.7,89.93,225.59,92.63Z"/><path class="cls-4" d="M221.46,98.35a4,4,0,0,1,4,.26,4.38,4.38,0,0,1,1.34,1.2c-1-3.68-5.86-5.12-8.39-4.2a8.69,8.69,0,0,0-6.19,6.11c1.24,1.88,3.87,5.35,5.12,7C218.06,105,218.07,100.61,221.46,98.35Z"/><path class="cls-4" d="M233.23,101.07c-.65,4.55-4.5,6.43-8.13,5.25a4.83,4.83,0,0,1-.7.13c-3.77.35-4.69-4-4.42-6.15.87-2.4,3.57-2.8,5.51-1.69a4,4,0,0,0-4-.26c-3.39,2.26-3.88,6.12-4.57,9.88a22.92,22.92,0,0,0,3.16,3.67c1.87.53,8.89.6,11.79-4.77A11.85,11.85,0,0,0,233.23,101.07Z"/><path class="cls-5" d="M218.47,105.78h-.63c0-.25,0-6.16,4-7.81l.24.58C218.51,100.05,218.47,105.73,218.47,105.78Z"/><path class="cls-5" d="M222.24,112.45h0a8.88,8.88,0,0,1-2.28-.25h-.06l-.05,0c-3.15-2.54-11-15.41-11.31-16l-.09-.15.07-.15a12,12,0,0,1,11.15-6.62,18.72,18.72,0,0,1,4.22.52,12,12,0,0,1,8.23,17.5C229.53,112.08,223.9,112.45,222.24,112.45Zm-2-.84a8.76,8.76,0,0,0,2,.2h0c1.57,0,6.9-.35,9.32-4.83a11.36,11.36,0,0,0-7.82-16.58,17.41,17.41,0,0,0-4.07-.5,11.43,11.43,0,0,0-10.5,6.1C210.06,97.46,217.28,109.18,220.2,111.61Zm3.77-4.83a3.7,3.7,0,0,1-2.88-1.28,7.2,7.2,0,0,1-1.43-5.23l0-.07a3.7,3.7,0,0,1,3.62-2.5,4.7,4.7,0,0,1,4.06,2.35,5.21,5.21,0,0,1,.16,4.76,3.69,3.69,0,0,1-3.09,2A3.62,3.62,0,0,1,224,106.78Zm-3.68-6.4a6.63,6.63,0,0,0,1.28,4.7,3.14,3.14,0,0,0,2.8,1,3.05,3.05,0,0,0,2.58-1.62,4.61,4.61,0,0,0-.14-4.15,4.07,4.07,0,0,0-3.51-2A3.08,3.08,0,0,0,220.29,100.38Z"/><path class="cls-2" d="M106.09,177.91c-1.83,5.87-10.09,20.87-13.42,23.33s-16.52-2.13-17.23-3.72,3.89-9.13,5.56-13.1.31-9.77-.32-14.61-1.27-15.64,2.54-18.42C87.11,152,106.09,177.91,106.09,177.91Z"/><path class="cls-3" d="M82.9,172.59c-1.11-7.62-1.56-12.92,1.74-20.43a3.73,3.73,0,0,0-1.42-.77C79.41,154.17,80,165,80.68,169.81s2,10.64.32,14.61-6.28,11.51-5.56,13.1a5,5,0,0,0,2.06,1.39c0-3.94,3.47-9.14,5.21-13.83C84.15,182.22,84.14,180.11,82.9,172.59Z"/><path class="cls-4" d="M83.22,151.39a4.26,4.26,0,0,0-1,1c6.55,17.7,8.66,18.36,12.63,27.5,1.59,3.65-3.75,15.65-9.65,21.56,3.1.65,6.08.82,7.43-.19,3.33-2.46,11.59-17.46,13.42-23.33C106.09,177.91,87.11,152,83.22,151.39Z"/><path class="cls-5" d="M89.58,202.28c-4.84,0-13.73-3.08-14.43-4.63-.51-1.12,1-4.15,3.27-8.65.89-1.76,1.74-3.41,2.28-4.7,1.35-3.21.68-7.61,0-11.87-.14-.9-.27-1.74-.38-2.58-.33-2.56-1.78-15.47,2.67-18.72l.11-.08.13,0c4,.65,22.3,25.59,23.07,26.65l.1.13,0,.15c-1.75,5.64-10,20.87-13.53,23.5A5.54,5.54,0,0,1,89.58,202.28ZM83.3,151.73c-4.11,3.25-2.5,16.52-2.31,18,.11.83.24,1.67.38,2.56.65,4.35,1.33,8.84-.08,12.21-.55,1.32-1.4,3-2.31,4.75-1.63,3.19-3.67,7.17-3.25,8.1s8.54,4.25,13.85,4.25a5,5,0,0,0,2.9-.65c3.16-2.34,11.31-17,13.26-23C100.47,170.8,86.61,152.68,83.3,151.73Z"/><path class="cls-6" d="M92.46,201.38c1,1.59.29,6-2.49,7.89s-10.08,3-13.58,2.86-7.42-.95-7-2.94c-1.82-.12-4.08-.87-4.08-2.18s7.38-10.59,10.18-10.93S90.34,199.36,92.46,201.38Z"/><path class="cls-7" d="M75.54,196.08c-2.8.34-10.18,9.62-10.18,10.93a1.24,1.24,0,0,0,.31.8c2.78-4.28,8.1-9.88,9.89-10.47,1.71-.42,7.16.66,11.16,1.32C82.47,197.16,77.26,195.87,75.54,196.08Z"/><path class="cls-7" d="M69.39,209.39a1.71,1.71,0,0,0,1,1.49c-1-1.13,2.7-6.6,5.17-9.38A13.82,13.82,0,0,0,69.39,209.39Z"/><path class="cls-8" d="M75.56,201.5c-4.12.29-6.21,4.19-8.27,7.27a11,11,0,0,0,2.1.62C70.32,206.28,72.32,203.79,75.56,201.5Z"/><path class="cls-8" d="M92.46,201.38a17.47,17.47,0,0,0-4.85-2.4,6.82,6.82,0,0,1-2.4,7.35c-4.42,3.54-9.92,4.61-15.25,4.24,1.14,1,3.9,1.45,6.43,1.56,3.5.16,10.8-.95,13.58-2.86S93.44,203,92.46,201.38Z"/><path class="cls-9" d="M69.72,209.55l-.63-.08c.57-4.26,6.47-8,6.47-8S70.26,205.56,69.72,209.55Z"/><path class="cls-9" d="M77.1,212.46h-.72c-1.71-.08-5.79-.43-7-2a1.55,1.55,0,0,1-.33-1c-1.74-.18-4-.95-4-2.47,0-.84,2.12-3.74,4.12-6,1.3-1.49,4.51-5,6.34-5.21,2.88-.36,15,3.28,17.18,5.39l0,.07c1.07,1.73.3,6.34-2.58,8.31S80.69,212.46,77.1,212.46ZM76,196.37l-.39,0c-2.68.33-9.91,9.63-9.91,10.62s2,1.75,3.79,1.87l.38,0-.09.37a.94.94,0,0,0,.18.82c.69.93,3.12,1.57,6.48,1.72l.69,0c3.58,0,10.14-1.07,12.69-2.82s3.24-6,2.42-7.42C90.14,199.68,79.29,196.37,76,196.37Z"/><path class="cls-2" d="M73.53,145.91A61.11,61.11,0,0,1,87.75,161c5,7.54,8.15,12.83,18.84,19.71a50.45,50.45,0,0,0,31.23,8.47c10.91,5.51,18.53,6.14,32.72,5s23.08-5.4,28.58-12,25.2-22.34,28.38-34.41.42-28.91-7-40.5-22.66-26.41-50.4-23.55-40.23,3-40.23,3Z"/><path class="cls-3" d="M161.12,89.14c20.51-6,43.91.62,56.51,14-8.21-10.67-23-22-47.52-19.45-7.19.74-13.36,1.3-18.55,1.72C154.72,88.2,158.4,90,161.12,89.14Z"/><path class="cls-4" d="M220.51,107.29c-.86-1.34-1.82-2.72-2.89-4.11,3.83,8.34,6.7,16.83,6.7,26.29a63.14,63.14,0,0,1-5.4,27.63,79.3,79.3,0,0,1-4.83,10.05c6-6.3,11.81-13.3,13.41-19.36C230.67,135.72,227.92,118.88,220.51,107.29Z"/><path class="cls-4" d="M203.78,132.59c-14.61,9.53-15,26.42-17.8,42.46-1,5.75-16.92,7.15-19.15,1.75-3.81-8.9-4.13-22.24-15.88-23.51,4.77,8.26,9.53,23.82-.95,27-14,4.13-24.25-10.26-32.51-20.42-1.9,6,2,11.84,3.92,17.56.72,2.15.56,3.24-.12,4.31-1.86,2.88-13.9-2-20.5-5.17a67.61,67.61,0,0,0,5.8,4.14,50.45,50.45,0,0,0,31.23,8.47c10.91,5.51,18.53,6.14,32.72,5s23.08-5.4,28.58-12c1.45-1.73,3.88-4.09,6.73-6.86-2.77-4.68-5.14-9.46-5.35-15.06C199.86,151.07,201.87,141.48,203.78,132.59Z"/><path class="cls-5" d="M160.49,195a45.83,45.83,0,0,1-22.74-5.47c-.88,0-1.76.05-2.61.05A50.27,50.27,0,0,1,106.42,181c-10.18-6.55-13.52-11.61-18.15-18.62l-.79-1.19a61.39,61.39,0,0,0-14.14-15l-.28-.21,56.69-59.49h.13c.12,0,12.8-.21,40.2-3a66.79,66.79,0,0,1,6.85-.36,50.63,50.63,0,0,1,28.22,8,53.2,53.2,0,0,1,15.63,16c7.4,11.58,10.29,28.34,7,40.75-2.34,8.9-13.42,19.64-21.51,27.49-2.92,2.83-5.45,5.28-6.92,7-5.89,7-15.31,11-28.81,12.08C166.49,194.81,163.29,195,160.49,195Zm-22.6-6.11.08,0a45.21,45.21,0,0,0,22.52,5.43c2.78,0,6-.15,10-.49,13.32-1.09,22.6-5,28.37-11.85,1.5-1.78,4-4.24,7-7.09,8-7.79,19-18.46,21.34-27.19,3.22-12.26.37-28.81-6.95-40.25-6.93-10.84-20.07-23.76-43.31-23.76-2.2,0-4.49.12-6.78.35-25.94,2.67-38.7,3-40.13,3L74,145.87a62,62,0,0,1,14,14.95L88.8,162c4.59,6.94,7.9,12,18,18.44a49.71,49.71,0,0,0,28.38,8.47c.87,0,1.77,0,2.67,0Z"/><path class="cls-2" d="M203.83,132.51s-14.66,21-7.25,46.19c-.47,6.55-7.73,17.84-10.21,20.54.84,1.7,19.74,8.37,21.33,7.57s3.6-4.76,5.19-9.69,3.81-13.92,1.9-20c4.92-4,16.28-24.69,13.7-45.93Z"/><path class="cls-3" d="M197.86,181.25a26.6,26.6,0,0,0,2.6,3.75c-5.73-15.52-4.07-37,3.23-52.31-3.3,4.65-13.79,23.3-7.11,46-.47,6.55-7.73,17.84-10.21,20.54a4.16,4.16,0,0,0,1.54,1.09C192.25,195.23,197,187.33,197.86,181.25Z"/><path class="cls-4" d="M228.49,131.18l-4.14.09c.29,24.71-10.26,41.24-20.67,53.47a18.34,18.34,0,0,0,7.62-3.81c-1.91,7.94-4.13,16.57-10.09,24.21,3.69,1.18,5.88,2,6.49,1.67,1.59-.79,3.6-4.76,5.19-9.69s3.81-13.92,1.9-20C219.71,173.14,231.07,152.42,228.49,131.18Z"/><path class="cls-5" d="M210.26,180a29.66,29.66,0,0,0,5.33-4.07l.45.45A18.73,18.73,0,0,1,210.26,180Z"/><path class="cls-5" d="M195.9,177.45l.62-.15a28,28,0,0,0,3.29,6.89S196.73,180.7,195.9,177.45Z"/><path class="cls-5" d="M207.35,207.17c-3.47,0-20.42-6.09-21.27-7.79l-.1-.19.15-.16c2.34-2.54,9.62-13.74,10.13-20.29A56.42,56.42,0,0,1,197,146a43.65,43.65,0,0,1,6.84-13.46,58.23,58.23,0,0,0-6.24,13.67,55.74,55.74,0,0,0-.7,32.43v.11c-.47,6.53-7.57,17.61-10.12,20.54,1.8,1.73,19.41,8,20.78,7.27s3.39-4.44,5-9.5c1.24-3.84,3.9-13.45,1.91-19.82l-.07-.21.17-.13c2.44-2,6.51-8.22,9.57-16.36,2.61-6.95,5.46-17.71,4.05-29.33l.62-.08c2.53,20.87-8.32,41.56-13.67,46.12,1.93,6.55-.73,16.15-2,20-1.34,4.15-3.45,8.92-5.35,9.87A1,1,0,0,1,207.35,207.17Z"/><path class="cls-2" d="M151.05,153.28a23.23,23.23,0,0,1,9.11,24.09c-3.33,16.1-11,18.72-17.39,33.65-6.51-.48-17.26-7.86-17.12-8.66,1.16-4.05,7.75-15.64,7.75-20.8-14.53-8.68-15.91-21.69-15.91-21.69Z"/><path class="cls-3" d="M135,184.1a48,48,0,0,0,8.37-1.11c-9.93-1.43-21.87-12.76-25.84-23.12,1,5.93,4.6,14.93,15.91,21.69,0,5.16-6.59,16.75-7.75,20.8,0,.18.46.67,1.31,1.33C129.12,198.66,133.75,191.57,135,184.1Z"/><path class="cls-4" d="M151.29,153.44c8.07,9.8,5.66,22.44.51,31.72-4.86,8.86-12.53,15.14-15.58,24a21.18,21.18,0,0,0,6.55,1.91c6.43-14.93,14.06-17.55,17.39-33.65A23.26,23.26,0,0,0,151.29,153.44Z"/><path class="cls-5" d="M132.23,181.21l.34-.54a20.31,20.31,0,0,0,5.12,2.14A13,13,0,0,1,132.23,181.21Z"/><path class="cls-5" d="M143,211.35h-.23c-6.16-.45-16-7-17.23-8.53a.64.64,0,0,1-.19-.5v0a60.34,60.34,0,0,1,2.73-6.49c2.19-4.79,4.92-10.73,5-14a36.84,36.84,0,0,1-9.92-8.63,25.3,25.3,0,0,1-5.67-13.29,29.62,29.62,0,0,0,6.28,13,36.56,36.56,0,0,0,9.8,8.43l.15.09v.18c0,3.42-2.81,9.56-5.07,14.5a59.69,59.69,0,0,0-2.67,6.31c.6,1,10.29,7.71,16.59,8.31a72.26,72.26,0,0,1,8.22-14c3.83-5.4,7.13-10.08,9.06-19.39a23.94,23.94,0,0,0-.57-12.47,24.18,24.18,0,0,0-8.29-11.6,21.74,21.74,0,0,1,8.87,11.34,24.41,24.41,0,0,1,.61,12.86c-1.95,9.44-5.45,14.39-9.16,19.63a72,72,0,0,0-8.25,14.07Z"/><path class="cls-10" d="M134.75,92c3.21,2.75,11.76,3.34,14.08,2.78.11-2.46-3.07-22.26-3.07-22.26-4.76,1.27-12.17,3.42-14.39,6.9S134.75,92,134.75,92Z"/><path class="cls-11" d="M131.59,84.27c1.14,3.38,3.16,7.72,3.16,7.72,3.21,2.75,11.76,3.34,14.08,2.78.07-1.42-1-8.63-1.86-14.47C142.63,84,137.93,87,131.59,84.27Z"/><path class="cls-5" d="M146.5,95.28h0c-2.91,0-9.14-.64-11.95-3l-.07-.07c-.23-.38-5.69-9.32-3.38-12.92,2.13-3.33,8.56-5.43,14.57-7l.34-.09.06.35c.13.81,3.19,19.86,3.08,22.33V95l-.23.06A11.31,11.31,0,0,1,146.5,95.28ZM135,91.78c2.49,2.1,8.23,2.86,11.5,2.86h0a12.23,12.23,0,0,0,2-.13c-.07-3-2.61-19-3-21.6-3.73,1-11.65,3.21-13.87,6.67C129.62,82.74,134.59,91.11,135,91.78Z"/><path class="cls-4" d="M132.9,88.53c.95,2,1.85,3.46,1.85,3.46,3.21,2.75,11.76,3.34,14.08,2.78a46.5,46.5,0,0,0-.5-5C144.2,90.46,138.06,90.87,132.9,88.53Z"/><path class="cls-5" d="M146.5,95.28c-2.91,0-9.14-.64-11.95-3l-.07-.07s-.92-1.51-1.86-3.49l-.37-.79.79.36a21.7,21.7,0,0,0,9,1.74,36.41,36.41,0,0,0,6.19-.56l.33-.06,0,.33a43.15,43.15,0,0,1,.51,5.1V95l-.23.06A11.31,11.31,0,0,1,146.5,95.28ZM135,91.78c2.49,2.1,8.23,2.86,11.5,2.86a12.23,12.23,0,0,0,2-.13c0-.7-.17-2.18-.46-4.41a36.91,36.91,0,0,1-6,.52,23.19,23.19,0,0,1-8.52-1.46C134.26,90.54,134.87,91.57,135,91.78Z"/><path class="cls-2" d="M125.65,65.71c3.47-3.18,8.47-3.73,15.38-7.3s10.08-2.39,13.18,0,5.79,6.19,6.91,15.16c2.06,2.7,4,4.21,7.38,6.91,3.76,3,6.11,4.84,6.35,9.61s-2.83,8.84-8,12.33c-3.77,2.57-6.55,3.77-11.41,8.23-4.19,3.85-5.48,6.36-7.39,5.24s-1.66-3.81-2.46-9.44-2.58-8.49-4.1-17.31c-1.11-6.46.46-14.69.46-14.69-1.36.71-4.93,4.2-6.52,8.65C133.09,81,125.65,65.71,125.65,65.71Z"/><path class="cls-3" d="M174.85,90.09c-.24-4.77-2.59-6.59-6.35-9.61-3.37-2.7-5.32-4.21-7.38-6.91-1.12-9-3.82-12.78-6.91-15.16s-6.28-3.58-13.18,0-11.91,4.12-15.38,7.3l.85,1.73c4.68-2.72,10.8-4.82,15.49-7.17,5.63-2.82,9.93-.85,11.3.28,4.49,3.69,4.42,8.31,6.19,14.82,1.85,6.82,4.55,8.77,7.09,11a34.07,34.07,0,0,1-2.89-7.91c4.13,4.76,11.25,8.54,8.39,15.53-2.22,4.76-6.27,7.9-11.59,12a11.65,11.65,0,0,0-2.18,2.26c3.25-2.61,5.61-3.78,8.59-5.81C172,98.93,175.09,94.85,174.85,90.09Z"/><path class="cls-4" d="M149.15,112.13c-.7-.69-.56-3-1.1-7.11s-2.37-7.87-3.13-15.13c-1.22-11.55-1-19.64,5.09-26.53-6,2.58-14.09,8.74-18.61,13.45,1.63,2.93,3.19,5.5,4.07,6.29,1.59-4.45,5.16-7.94,6.52-8.65,0,0-1.57,8.23-.46,14.69,1.52,8.82,3.31,11.67,4.1,17.31s.56,8.33,2.46,9.44,3.2-1.39,7.39-5.24a51.11,51.11,0,0,1,4-3.34C156.4,108.75,150.19,113.19,149.15,112.13Z"/><path class="cls-5" d="M142,76.51l-.63-.07c.94-8.79,8.65-13.08,8.65-13.08S142.9,68,142,76.51Z"/><path class="cls-5" d="M160.61,72.27l.64-.08c1.26,10.21,5.28,14.13,5.32,14.17S161.91,82.74,160.61,72.27Z"/><path class="cls-5" d="M149,116.48a2.05,2.05,0,0,1-1.06-.31c-1.6-.93-1.81-2.81-2.19-6.22-.11-1-.24-2.15-.42-3.46a46.71,46.71,0,0,0-1.65-7,80.77,80.77,0,0,1-2.45-10.29c-.92-5.33,0-11.92.33-14.08a19.09,19.09,0,0,0-5.78,8.1l-.16.44-.35-.31c-2.4-2.16-9.59-16.86-9.9-17.49l-.1-.21.17-.16c2.07-1.89,4.6-2.85,7.8-4.06a68.11,68.11,0,0,0,7.65-3.3,17,17,0,0,1,7.56-2.29,9.41,9.41,0,0,1,6,2.32c2.79,2.15,5.81,5.65,7,15.3a35.73,35.73,0,0,0,6.7,6.32l.75.6c3.65,2.93,6.06,4.87,6.3,9.7.23,4.56-2.5,8.8-8.11,12.61-1,.71-2,1.32-2.95,1.91a50.11,50.11,0,0,0-8.42,6.3c-1.15,1.06-2.07,2-2.88,2.83C151.14,115.44,150.13,116.48,149,116.48Zm-6.56-42.62-.13.65c0,.08-1.55,8.25-.46,14.57a82.54,82.54,0,0,0,2.44,10.22,47.33,47.33,0,0,1,1.67,7.1c.18,1.32.31,2.47.42,3.48.37,3.31.56,5,1.88,5.74a1.46,1.46,0,0,0,.74.22c.87,0,1.86-1,3.37-2.56.77-.8,1.73-1.79,2.9-2.86a50.93,50.93,0,0,1,8.51-6.37c.94-.58,1.91-1.19,2.94-1.89,5.41-3.68,8-7.74,7.82-12.06-.22-4.55-2.42-6.31-6.06-9.24l-.75-.59a35.92,35.92,0,0,1-6.86-6.5l-.05-.07v-.09c-1.17-9.48-4.09-12.88-6.79-15a8.76,8.76,0,0,0-5.57-2.19,16.36,16.36,0,0,0-7.27,2.22A68.05,68.05,0,0,1,133.45,62c-3,1.15-5.47,2.07-7.41,3.78.87,1.77,6.88,13.91,9.31,16.73,1.64-4.15,5-7.57,6.49-8.36Z"/><path class="cls-4" d="M44.2,77.62c2.79,4.13,8.35,6.86,12.87,3.89s5-16.09,5-16.09-1.88-15.14-6-15.88S44.2,77.62,44.2,77.62Z"/><path class="cls-5" d="M52.93,83.08h0c-3.3,0-6.83-2.07-9-5.28l-.08-.12,0-.14c0-.07,1.9-7.11,4.27-14.07,4.85-14.26,7-14.26,7.7-14.26a.75.75,0,0,1,.21,0c4.35.77,6.23,15.52,6.31,16.15v.05c0,.54-.53,13.33-5.13,16.35A7.79,7.79,0,0,1,52.93,83.08Zm-8.39-5.52a10.8,10.8,0,0,0,8.39,4.88h0a7.16,7.16,0,0,0,4-1.19c4.24-2.78,4.82-15.18,4.84-15.82-.52-4.16-2.56-15-5.78-15.58h-.1C53,49.84,47.53,66.37,44.54,77.56Z"/><path class="cls-10" d="M46.22,74.52a9.12,9.12,0,0,0,7.47,4.93c2.06-1.83,5.84-11.41,6.09-13.31s-.63-11.47-3.76-13C54.08,55.23,46.22,74.52,46.22,74.52Z"/><path class="cls-11" d="M46.22,74.52a9.12,9.12,0,0,0,7.47,4.93c1.26-1.12,3.18-5.16,4.52-8.56-4.09,3.16-7.54.3-9.1-3.29C47.48,71.44,46.22,74.52,46.22,74.52Z"/><path class="cls-5" d="M53.79,79.78l-.14,0a9.49,9.49,0,0,1-7.71-5.09l-.07-.13.05-.13c.33-.79,7.91-19.38,9.86-21.54l.16-.18.22.11c3.39,1.72,4.14,11.71,3.93,13.38-.24,1.88-4,11.59-6.19,13.51Zm-7.22-5.27a8.76,8.76,0,0,0,7,4.6c2-2,5.66-11.25,5.88-13s-.61-10.77-3.37-12.6C54.07,56.24,47.26,72.82,46.57,74.51Z"/><path class="cls-2" d="M56.57,54.62c1.11.9,2.59,9.11,2,14.66,2.7-.63,16.51-12.49,15.56-14.66s-2.62-6-4.45-10.9-3.87-8.35-10.4-9.61c-5.32-1-13.82,1-20.49,11.43-4,3.26-6.45,3.47-9.89,4.9s-6.57,3.23-6.15,9.16c.44,6.1,4.13,10.24,8.26,14.61s5,6.63,5.76,8.65.4,3.3,2.14,3.42,4.89-2,6.87-6.67,2.26-7.43,4.77-11.6C53.84,62.59,55.88,60.22,56.57,54.62Z"/><path class="cls-3" d="M34.07,50.7a11.44,11.44,0,0,1-2.81,4.82c4.35-1.11,6.1-4.35,9.69-9.69,5.45-8.08,12.15-10.91,17.72-9.92,8.7,1.56,7.85,6.48,13.09,13.05-.63-1.55-1.32-3.31-2-5.24-1.82-4.93-3.87-8.35-10.4-9.61-5.32-1-13.82,1-20.49,11.43-4,3.26-6.45,3.47-9.89,4.9s-6.57,3.23-6.15,9.16a18,18,0,0,0,4.14,9.92C23.61,63.61,19.94,53.09,34.07,50.7Z"/><path class="cls-4" d="M55.35,40.22c0,8.22-2.7,16.72-8.58,25.41-3.57,6.88-2.22,10.8-5.08,15.56-1.27,2.23-2.34,1.57-3.49-.59-3.38-6-7.39-7.35-12.08-12.17a54.22,54.22,0,0,0,4.93,5.78c4.13,4.36,5,6.63,5.76,8.65s.4,3.3,2.14,3.42,4.89-2,6.87-6.67,2.26-7.43,4.77-11.6c3.25-5.42,5.29-7.79,6-13.39,1.11.9,2.59,9.11,2,14.66,1.24-.29,4.86-3,8.29-6a11.25,11.25,0,0,1-2-4C63,52,59.16,42.85,55.35,40.22Z"/><path class="cls-5" d="M34.43,52.45c.15-.27,3.74-6.6,4.76-8l.51.37C38,47.69,34.43,52.45,34.43,52.45Z"/><path class="cls-5" d="M56.33,57.61l-.62-.12a69.72,69.72,0,0,0,1-14.16A50.92,50.92,0,0,1,56.33,57.61Z"/><path class="cls-5" d="M39.1,86.6h-.17c-1.49-.1-1.71-1-2-2.14A10.93,10.93,0,0,0,36.51,83c-.73-2-1.55-4.17-5.69-8.54-4.46-4.73-7.91-8.82-8.34-14.81s2.89-8,6.33-9.47c.9-.38,1.73-.67,2.53-.95a21,21,0,0,0,7.25-3.87C45.38,34.7,53.53,33.55,56.72,33.55a13.56,13.56,0,0,1,2.66.25c7,1.35,8.95,5.24,10.64,9.81,1.85,5,3.54,8.83,4.44,10.88a1.61,1.61,0,0,1-.21,1.34c-1.8,3.6-13,13.15-15.57,13.76l-.43.11,0-.45c.49-4.91-.62-11.56-1.53-13.73-.66,4.18-2.16,6.6-4.36,10.14-.49.79-1,1.6-1.54,2.52a31.15,31.15,0,0,0-3,6.89c-.49,1.42-1,2.89-1.74,4.66C44.2,84.24,41.14,86.6,39.1,86.6ZM56.72,34.18c-3.09,0-11,1.13-17.62,11.53l0,0,0,0a21.35,21.35,0,0,1-7.48,4c-.79.28-1.61.57-2.49.93-3.37,1.4-6.36,3.13-5.95,8.84s3.8,9.79,8.17,14.42c4.23,4.47,5.08,6.75,5.83,8.76a15.16,15.16,0,0,1,.45,1.55C37.84,85.42,38,85.89,39,86h.13c1.42,0,4.43-1.76,6.43-6.48.74-1.75,1.24-3.2,1.71-4.61a32.28,32.28,0,0,1,3.07-7c.55-.92,1.06-1.73,1.55-2.52,2.39-3.84,3.83-6.16,4.39-10.75l.07-.57.45.36c1.24,1,2.6,9.05,2.2,14.45C61.91,67.47,72,59,73.68,55.55c.27-.54.22-.75.2-.8-.91-2.06-2.59-5.91-4.46-10.92-2-5.32-4.08-8.23-10.16-9.41A13.11,13.11,0,0,0,56.72,34.18Z"/><path class="cls-2" d="M92.26,150.24a78.89,78.89,0,0,0,18.62-.64c7.33-1.35,18.74-3.71,26.68-16.83,8.72-14.43,2.33-29.54.63-37.27s1.38-22.76-15.14-34S87.37,50.24,76.36,52.73C69.9,54.19,62.9,56.26,56.67,70.36c-7.41,16.78-12,16.14-17.15,25.41-4.34,7.74-4.92,21.28,3.49,33s23.86,17.59,32.08,20.8a52.21,52.21,0,0,1,16.2,9.87Z"/><path class="cls-3" d="M48.66,88.23c4.55-4.36,7.57-10.57,10.07-16.12,2.81-6.24,5.24-12.85,17.9-16.28,16.54-4.48,35.89.28,48.91,7.9l.22,0c-.86-.7-1.77-1.38-2.76-2.06-16.51-11.22-35.68-11.27-46.69-8.78-6.46,1.46-13.46,3.53-19.69,17.63C49.21,87.34,44.66,86.7,39.47,96c-3.86,6.9-4.74,18.38,1,29.1C37.05,112.36,37.42,99,48.66,88.23Z"/><path class="cls-4" d="M37.42,117.2A35.67,35.67,0,0,0,43,129c5.39,7.51,13.65,12.61,21.05,16.15-.47-2.79-1.15-4.52-1.59-7.31C52.11,134.89,40.42,128.6,37.42,117.2Z"/><path class="cls-4" d="M138.14,95.7c-1.64-7.5,1.2-21.88-13.72-33,10.28,11,8.83,22.63,8.48,33.19-.37,11.38,3.76,15.17,1.22,28.23-3.28,10.89-9.49,21.3-41.91,26.3l2.63.17a74.3,74.3,0,0,0,16-.81c7.33-1.35,18.74-3.71,26.68-16.83C146.23,118.54,139.84,103.43,138.14,95.7Z"/><path class="cls-5" d="M91.24,159.67a54.44,54.44,0,0,0-10-6.65,59.24,59.24,0,0,0-6.35-2.92l-.54-.21c-8.17-3.19-23.39-9.13-31.68-20.71-8.57-12-7.83-25.68-3.52-33.37a39.24,39.24,0,0,1,6.06-8c3.24-3.54,6.59-7.19,11.08-17.35,6-13.67,12.59-16.16,19.91-17.81,12.31-2.79,31.1-1.93,46.94,8.83,13.16,8.94,14,20.23,14.61,28.47a44.47,44.47,0,0,0,.66,5.71c.26,1.17.63,2.55,1,4,2.3,8.42,5.76,21.15-1.7,33.49-8.19,13.54-20.36,15.78-26.9,17-8.56,1.58-18.67.33-18.67.33a90.35,90.35,0,0,0,18.56-.95c6.89-1.27,18.42-3.39,26.46-16.69,7.33-12.1,3.9-24.67,1.64-33-.4-1.47-.78-2.85-1-4a44.5,44.5,0,0,1-.67-5.81c-.6-8.11-1.43-19.21-14.34-28-15.67-10.65-34.26-11.5-46.44-8.74-7.15,1.62-13.55,4-19.47,17.44C52.38,80.94,48.84,84.8,45.72,88.21a38.18,38.18,0,0,0-6,7.91c-4.22,7.52-4.93,21,3.47,32.69,8.18,11.43,23.29,17.32,31.4,20.49l.54.2a62.13,62.13,0,0,1,6.24,2.86A36.76,36.76,0,0,1,91.24,159.67Z"/><path class="cls-2" d="M62.45,136.38S60,144.84,66,148.29s17.1-2.15,17.1-2.15Z"/><path class="cls-4" d="M62.3,137.14c-1,2.91-.39,8.78,3.69,11.15,5.62,3.26,15.85-1.55,17-2.1C70.28,148.9,62.39,147.1,62.3,137.14Z"/><path class="cls-5" d="M71.11,149.78a10.55,10.55,0,0,1-5.28-1.21,8.28,8.28,0,0,1-3.77-4.84,12,12,0,0,1,.39-7.35,14.86,14.86,0,0,0,.26,7.31A7.66,7.66,0,0,0,66.15,148a9.82,9.82,0,0,0,4.92,1.12c5.58,0,11.93-3,12-3S76.76,149.78,71.11,149.78Z"/><path class="cls-12" d="M68.45,127.21a16.34,16.34,0,0,1-1.71,8c-1.54,3.33-2.18,6.39,1.08,8.42s7.8.26,11.77-3,8-8.52,13.34-10.64C89.28,128.78,68.45,127.21,68.45,127.21Z"/><path class="cls-13" d="M73.31,127.6c-.48,2.77-.19,5.8,2.37,7.59A12.43,12.43,0,0,0,84,136.53c2.67-2.59,5.55-5.23,9-6.58C90.41,129.14,79.7,128.14,73.31,127.6Z"/><path class="cls-14" d="M78.91,133C71.12,131.5,67.3,136,65.48,139.8a4.41,4.41,0,0,0,2.34,3.81c3.25,2,7.8.26,11.77-3,1.93-1.59,3.87-3.65,6-5.59C84.19,132.37,80.33,132.67,78.91,133Z"/><path class="cls-15" d="M76.64,133.83a12.56,12.56,0,0,0-4.27,5.51c3.31-4.85,6.92-6.16,11.7-5.84a7.82,7.82,0,0,0-5.16-.48C71.12,131.5,67.3,136,65.48,139.8a4.62,4.62,0,0,0,.12,1C68.27,136,72.52,133.5,76.64,133.83Z"/><path class="cls-16" d="M83.8,133.36c-.18,1.19-3,4.63-6.32,6.8-4.08,2.74-8.15,3.9-11.69,1.22a4.89,4.89,0,0,0,2,2.23c3.25,2,7.8.26,11.77-3,1.93-1.59,3.87-3.65,6-5.59A3.72,3.72,0,0,0,83.8,133.36Z"/><path class="cls-17" d="M72.37,139.34s2-6.17,7.34-6.79l.07.63C74.79,133.76,72.39,139.28,72.37,139.34Z"/><path class="cls-17" d="M71,144.79h0a6.22,6.22,0,0,1-3.32-.91,4.71,4.71,0,0,1-2.49-4.07v-.07l0-.07c1.57-3.32,4.71-7.27,10.72-7.27a16.61,16.61,0,0,1,3,.29,9.94,9.94,0,0,1,2-.21c2.36,0,4.1.84,4.9,2.38l.12.21-.18.17c-.79.73-1.57,1.48-2.32,2.21-1.26,1.22-2.45,2.38-3.66,3.38C76.71,143.38,73.58,144.79,71,144.79Zm-5.17-4.92A4.11,4.11,0,0,0,68,143.34a5.58,5.58,0,0,0,3,.81c2.46,0,5.45-1.35,8.42-3.81,1.19-1,2.38-2.13,3.63-3.35.69-.67,1.41-1.37,2.14-2.05-.93-1.5-2.79-1.83-4.22-1.83a8.58,8.58,0,0,0-2,.22h-.13a15.36,15.36,0,0,0-2.94-.3C70.27,133,67.3,136.73,65.8,139.87Z"/><path class="cls-5" d="M71,144.79h0a6.22,6.22,0,0,1-3.32-.91c-3.62-2.25-2.63-5.72-1.19-8.82a16,16,0,0,0,1.68-7.82l0-.38.38,0c.85.07,20.9,1.59,24.55,2.76l.85.27-.83.32c-3.67,1.46-6.68,4.38-9.59,7.21-1.26,1.22-2.45,2.38-3.66,3.38C76.71,143.38,73.58,144.79,71,144.79Zm-2.18-17.24A16.69,16.69,0,0,1,67,135.32c-1.39,3-2.23,6,1,8a5.58,5.58,0,0,0,3,.81c2.46,0,5.45-1.35,8.42-3.81,1.19-1,2.38-2.13,3.63-3.35,2.72-2.65,5.53-5.38,8.93-7C87.12,129,71.4,127.76,68.79,127.55Z"/><path class="cls-4" d="M69.8,88.42c-2.92,5.09-7.67,7.85-10.61,6.16s-2.95-7.18,0-12.26S66.68,74,69.62,75.68,72.72,83.33,69.8,88.42Z"/><path d="M69.3,89.31c-2.64,4.6-7.17,7-10.11,5.27S56,87.8,58.65,83.2s7.16-7,10.1-5.28S71.94,84.7,69.3,89.31Z"/><path class="cls-18" d="M69,89.75c-2.5,4.36-6.85,6.55-9.71,4.91s-3.17-6.51-.67-10.87,6.85-6.55,9.72-4.91S71.54,85.39,69,89.75Z"/><path class="cls-19" d="M58.73,83.69l-.07.1c-2.5,4.36-2.2,9.23.67,10.87s7.21-.55,9.71-4.91a14.41,14.41,0,0,0,.82-1.68C65.34,89,60.41,88.18,58.73,83.69Z"/><path d="M61.45,95.52a4.52,4.52,0,0,1-2.28-.58,5.49,5.49,0,0,1-2.5-4.68,12.1,12.1,0,0,1,1.72-6.62c2-3.42,5-5.62,7.87-5.62a4.53,4.53,0,0,1,2.28.59c3,1.73,3.36,6.8.78,11.3C67.36,93.32,64.27,95.52,61.45,95.52Zm4.81-16.86c-2.56,0-5.5,2.12-7.32,5.29a11.51,11.51,0,0,0-1.64,6.28,4.87,4.87,0,0,0,2.19,4.15,3.82,3.82,0,0,0,2,.51c2.56,0,5.5-2.13,7.32-5.3,2.41-4.2,2.16-8.88-.55-10.43A3.91,3.91,0,0,0,66.26,78.66Z"/><path class="cls-20" d="M68.11,89.81c-1.26,2.44-3.65,3.7-5.34,2.83s-2.05-3.56-.8-6,3.65-3.7,5.35-2.83S69.37,87.37,68.11,89.81Z"/><path class="cls-21" d="M61.7,87.24c-.91,2.26-.49,4.6,1.07,5.4s4.08-.39,5.34-2.83a7.44,7.44,0,0,0,.58-1.54A6.93,6.93,0,0,1,61.7,87.24Z"/><path d="M67.76,89.4c-.43,1.45-1.65,2.35-2.72,2s-1.59-1.75-1.16-3.19,1.65-2.35,2.73-2S68.2,88,67.76,89.4Z"/><path class="cls-18" d="M66.57,87.21a.79.79,0,1,1-.48-1.1A.86.86,0,0,1,66.57,87.21Z"/><path class="cls-22" d="M63.93,93.23a2.78,2.78,0,0,1-1.31-.31c-1.85-1-2.27-3.83-.93-6.42,1-2,2.8-3.28,4.46-3.28a2.78,2.78,0,0,1,1.31.31,3.32,3.32,0,0,1,1.68,2.65A6.46,6.46,0,0,1,68.39,90C67.38,91.92,65.59,93.23,63.93,93.23Zm2.22-9.38c-1.42,0-3,1.18-3.9,2.94-1.17,2.28-.88,4.77.66,5.57a2.22,2.22,0,0,0,1,.24c1.43,0,3-1.18,3.9-2.94a5.86,5.86,0,0,0,.68-3.39,2.74,2.74,0,0,0-1.34-2.18A2.19,2.19,0,0,0,66.15,83.85Z"/><path class="cls-2" d="M70.89,76.52c1.53,3.4-.06,10.15-2,13.57-1.71,0-4.13.34-5.56,1.51-1.8-.48-3.67-.16-4.47,1S47.3,113.08,46.67,115.41,48,122.72,57.1,126c6.19,2.23,12.07,1.75,24.4,4.5a26.07,26.07,0,0,0,26.18-8.79S84.11,70.41,70.89,76.52Z"/><path class="cls-3" d="M71.36,77.41c1,2.49,1.37,6.46-.62,11.65,1.6.35,5.69,1.66,7.36,4.68-2.18-1.11-6.67-3.29-12.11-2.18,1.55.63,7.42,5.31,7.82,9.64-2-2.26-7.59-8.47-12.59-8.28-1.19-.37-1-1.29-1-1.29a4.06,4.06,0,0,1,3,0c.95-1.07,3.83-1.88,5.65-1.65C70.21,88.19,72.12,80.4,71.36,77.41Z"/><path class="cls-4" d="M103.41,80.26c8.56-.63,14.36,10.77,11.64,20.17-1.62,5.13-18,7.58-21.43.94C92.21,96.11,93.68,80.76,103.41,80.26Z"/><path d="M103.26,82.8c7.91-.56,13.27,9.69,10.75,18.14-1.49,4.6-16.65,6.81-19.79.84C92.92,97.05,94.27,83.25,103.26,82.8Z"/><path class="cls-18" d="M103.2,84.16c7.73-.53,13,9.1,10.51,17-1.45,4.33-16.28,6.41-19.35.8C93.09,97.55,94.42,84.58,103.2,84.16Z"/><path class="cls-19" d="M94.58,93.07a19.74,19.74,0,0,0-.22,8.93c3.07,5.61,17.9,3.53,19.35-.8a14.63,14.63,0,0,0-.06-8.57C112.08,100.37,97,101.76,94.58,93.07Z"/><path class="cls-20" d="M110.58,96.76c0,3.95-2.4,7.15-5.35,7.15s-5.36-3.2-5.36-7.15,2.4-7.15,5.36-7.15S110.58,92.81,110.58,96.76Z"/><path class="cls-21" d="M99.88,96.32c0,.14,0,.29,0,.44,0,3.95,2.4,7.15,5.36,7.15s5.35-3.2,5.35-7.15a9.67,9.67,0,0,0-.17-1.81C109.34,99.26,102.08,101.44,99.88,96.32Z"/><path d="M109.34,98c0,2.56-1.56,4.64-3.48,4.64s-3.48-2.08-3.48-4.64,1.56-4.64,3.48-4.64S109.34,95.39,109.34,98Z"/><path class="cls-18" d="M106.46,95.23A1.49,1.49,0,1,1,105,93.52,1.61,1.61,0,0,1,106.46,95.23Z"/><path class="cls-22" d="M105.23,104.23c-3.13,0-5.68-3.35-5.68-7.47s2.55-7.47,5.68-7.47,5.67,3.35,5.67,7.47S108.35,104.23,105.23,104.23Zm0-14.3c-2.78,0-5,3.06-5,6.83s2.26,6.83,5,6.83,5-3.06,5-6.83S108,89.93,105.23,89.93Z"/><path d="M102.86,105.72c-4.34,0-7.53-1.3-8.78-3.57l0-.06c-.92-3.2-.52-10.22,2.59-14.55a8.24,8.24,0,0,1,6.54-3.7l.62,0a9.9,9.9,0,0,1,8,4.37A15.19,15.19,0,0,1,114,101.3C113.08,104.07,107.61,105.72,102.86,105.72Zm-8.2-3.84c1.14,2,4.12,3.21,8.2,3.21,5,0,9.82-1.83,10.55-4a14.56,14.56,0,0,0-2.13-12.54,9.27,9.27,0,0,0-7.47-4.1,5.62,5.62,0,0,0-.58,0,7.67,7.67,0,0,0-6.07,3.43C94.3,91.91,93.78,98.72,94.66,101.88Z"/><path class="cls-5" d="M112.9,85.64c-.08-.2-2.58-5-8-5.08s-7.31,3.58-7.37,3.73c0,0,1.57-4.47,7.39-4.37S112.9,85.64,112.9,85.64Z"/><path class="cls-4" d="M104.78,118.32A23.28,23.28,0,0,1,81.71,125c-11.53-3-21.7-2.56-32.39-8.9-1.81,3.4-2.43-1.53-2.65-.72C46,117.73,48,122.72,57.1,126c6.19,2.23,12.07,1.75,24.4,4.5a26.07,26.07,0,0,0,26.18-8.79A6.44,6.44,0,0,1,104.78,118.32Z"/><path class="cls-5" d="M87.67,131.49a28.74,28.74,0,0,1-6.24-.7c-5.8-1.3-10.25-1.89-13.82-2.36A49.35,49.35,0,0,1,57,126.28c-9.1-3.27-11.34-8.35-10.63-11,.65-2.39,11.51-21.83,12.2-22.87.8-1.2,2.66-1.68,4.66-1.2,1.62-1.23,4.21-1.45,5.44-1.48A21.13,21.13,0,0,0,70.92,78l.62-.12c.55,3-.31,8.75-2.42,12.37L69,90.4h-.18c-1.1,0-3.82.17-5.36,1.43l-.12.11-.16,0c-1.79-.47-3.45-.11-4.12.91S47.62,113.12,47,115.49s1.6,7.09,10.23,10.19a48.63,48.63,0,0,0,10.49,2.12c3.59.48,8,1.07,13.88,2.37a25.92,25.92,0,0,0,25.85-8.67l.51.38A26.68,26.68,0,0,1,87.67,131.49Z"/><path class="cls-5" d="M107.4,122.09a6.37,6.37,0,0,1-2.84-4.43,8.21,8.21,0,0,0,3.19,3.9,26.85,26.85,0,0,0,5.63,2.58A16.11,16.11,0,0,1,107.4,122.09Z"/><path class="cls-5" d="M73.58,100.62c0-.06-3.13-5.23-7.89-7.7A11.25,11.25,0,0,0,62,91.71l.08-.63a12,12,0,0,1,4,1.34C70.94,95,73.58,100.62,73.58,100.62Z"/><path class="cls-5" d="M77.28,92.93a16.12,16.12,0,0,0-9.68-2.46l0-.63A14,14,0,0,1,77.28,92.93Z"/><path class="cls-5" d="M71,78.46c-.28-2.21-1.11-3.1-3.07-3.25s-4.11,2.21-4.13,2.23,2-3,4.18-2.86,3.33,1.28,3.65,3.8Z"/><path class="cls-23" d="M54.72,89.87c4.76-.42,7.7,2.47,13.41,9.88s9.45,15.43,5.72,21-8.59,4-10.77,3.23-5-2.11-7.73-2.37c-3-.28-7.41.2-9.58-3.67s-1.91-10.16-.32-15.77S50,90.5,54.72,89.87Z"/><path class="cls-24" d="M54.93,91.36c6.42-.28,11.18,8.61,16.58,13.7.28.22.29.37.59.55a51.72,51.72,0,0,0-4-5.86c-5.71-7.41-8.65-10.3-13.41-9.88C50,90.5,47,96.55,45.45,102.16c-.07.25-.13.5-.2.75C46.79,99.44,51.09,91.53,54.93,91.36Z"/><path class="cls-25" d="M71.18,104.08c1.44,3.51,1.46,7.76-1.54,9.83-2.54,1.59-6.51,1-8.73-1.24-3.73-2.58-5.56-2-8.1,0-2.86,2.23-8,1.55-8.51-4.29-.31,3.64.08,7.11,1.47,9.58,2.17,3.87,6.62,3.39,9.58,3.67,2.74.26,5.52,1.64,7.73,2.37s7,2.33,10.77-3.23C76.86,116.25,75,110.16,71.18,104.08Z"/><path class="cls-26" d="M67.06,125.07a12.7,12.7,0,0,1-4.07-.8c-.64-.21-1.3-.46-2-.73a21.89,21.89,0,0,0-5.66-1.62c-.46,0-1-.07-1.48-.1-2.87-.14-6.43-.32-8.35-3.73-2.39-4.26-1.75-11.07-.34-16,1.51-5.33,4.38-11.83,9.52-12.51.32,0,.63,0,.92,0,4.35,0,7.33,3,12.8,10,7,9.11,9,16.49,5.72,21.36C72.27,123.67,69.89,125.07,67.06,125.07ZM55.59,90.15a8.32,8.32,0,0,0-.85,0c-5,.67-7.79,7.84-9,12-1.75,6.16-1.64,12.12.29,15.54,1.74,3.1,5,3.26,7.82,3.41.53,0,1,0,1.51.1a23.13,23.13,0,0,1,5.83,1.65c.7.27,1.35.52,2,.73a12.48,12.48,0,0,0,3.88.76c2.61,0,4.8-1.3,6.53-3.87,3.92-5.84-.94-14.44-5.71-20.62C62.55,93,59.67,90.15,55.59,90.15Z"/><path class="cls-12" d="M65.72,110c.91,2.76.26,5.46-1.46,6s-3.85-1.2-4.77-4-.27-5.46,1.45-6S64.8,107.23,65.72,110Z"/><path class="cls-13" d="M65.72,110a6.38,6.38,0,0,0-2.95-3.79c1.45,1.63,2,3.78,1.34,5.36-1.21,2.46-4,1.62-5-1.47a8.41,8.41,0,0,0,.4,2c.92,2.76,3,4.53,4.77,4S66.63,112.75,65.72,110Z"/><path class="cls-26" d="M58.9,111.08c-.69-3.91.89-9.88.89-9.88s-.93,6-.26,9.77Z"/><path class="cls-26" d="M63.59,116.45c-1.75,0-3.56-1.77-4.4-4.29a7.35,7.35,0,0,1-.27-4,3.12,3.12,0,0,1,1.92-2.42,2.27,2.27,0,0,1,.77-.13c1.76,0,3.57,1.76,4.41,4.29,1,2.92.23,5.81-1.66,6.43A2.44,2.44,0,0,1,63.59,116.45Zm-2-10.21a1.79,1.79,0,0,0-.57.09,2.54,2.54,0,0,0-1.51,2,6.77,6.77,0,0,0,.26,3.66c.74,2.23,2.34,3.85,3.8,3.85a1.79,1.79,0,0,0,.57-.09c1.55-.52,2.12-3,1.26-5.63C64.67,107.86,63.07,106.24,61.61,106.24Z"/><path class="cls-12" d="M54.59,110.3c-.2,2.91-1.69,5.16-3.33,5s-2.79-2.57-2.58-5.47,1.7-5.16,3.33-5S54.8,107.4,54.59,110.3Z"/><path class="cls-13" d="M53.67,106c1.65,6.65-4.51,8.15-4.8,2.63a8.7,8.7,0,0,0-.19,1.29c-.21,2.9,1,5.35,2.58,5.47s3.13-2.14,3.33-5A7.11,7.11,0,0,0,53.67,106Z"/><path class="cls-26" d="M54.3,109.34a23.76,23.76,0,0,0-2-8,18,18,0,0,1,2.65,8Z"/><path class="cls-26" d="M51.38,115.67h-.14A2.81,2.81,0,0,1,49,113.8a8,8,0,0,1-.64-3.94c.22-3.08,1.85-5.47,3.68-5.34a2.87,2.87,0,0,1,2.24,1.87,8,8,0,0,1,.63,3.94C54.7,113.32,53.15,115.67,51.38,115.67Zm.51-10.52c-1.41,0-2.7,2.13-2.89,4.76a7.4,7.4,0,0,0,.57,3.61A2.27,2.27,0,0,0,51.29,115c1.44.1,2.8-2.07,3-4.75a7.56,7.56,0,0,0-.57-3.62c-.44-.92-1.05-1.46-1.72-1.5Z"/><path class="cls-27" d="M99.13,72c.84-3.86,3.92-6.4,7.83-4.92,4.85,1.83,6.83,9.53,6.2,11.33C110.32,74.76,104.84,68.7,99.13,72Z"/><path class="cls-28" d="M100.72,68.6A8,8,0,0,0,99.13,72c5.71-3.28,11.19,2.78,14,6.41a3.19,3.19,0,0,0,.1-1.11C111.71,71.74,106.7,66.31,100.72,68.6Z"/><path class="cls-29" d="M113.26,79l-.35-.46c-3.8-4.86-7.19-7.22-10.38-7.22a6.42,6.42,0,0,0-3.24.9l-.63.36.16-.7c.74-3.41,3.07-5.61,5.93-5.61a6.68,6.68,0,0,1,2.32.45c5,1.9,7.07,9.78,6.39,11.73Zm-10.73-8.32c3.27,0,6.68,2.27,10.43,6.91.1-2.48-2-8.7-6.11-10.27a5.93,5.93,0,0,0-2.1-.41c-2.36,0-4.32,1.71-5.14,4.43A6.87,6.87,0,0,1,102.53,70.72Z"/><path class="cls-27" d="M63.85,69.28c1.45-4.87,5.53-9.89,10.19-8.94s2.85,6.3,2.8,6.67C74.78,63,69.5,63.94,63.85,69.28Z"/><path class="cls-28" d="M65.61,65.35a16.8,16.8,0,0,0-1.76,3.93C69.5,63.94,74.78,63,76.84,67a10.32,10.32,0,0,0,.39-2.64C74.53,59.08,68.36,62.31,65.61,65.35Z"/><path class="cls-29" d="M63.21,70.33l.34-1.14c1.37-4.61,5-9.29,9.34-9.29A6.22,6.22,0,0,1,74.1,60a4,4,0,0,1,2.78,1.77c.76,1.21.86,2.92.31,5.09,0,.08,0,.14,0,.16L77,68l-.44-.84a4,4,0,0,0-3.75-2.28c-2.47,0-5.58,1.65-8.74,4.64Zm9.68-9.79c-3.66,0-6.82,3.7-8.34,7.68,3-2.58,5.87-4,8.26-4a4.56,4.56,0,0,1,3.9,2,5.5,5.5,0,0,0-.37-4A3.42,3.42,0,0,0,74,60.65,5.65,5.65,0,0,0,72.89,60.54Z"/><path class="cls-6" d="M187.49,197.87c-1.87.58-7.58,5.92-9.33,11.38-.37,1.32,3,2.64,5.51,2.54-.06,1.85,4.18,2.86,10.9,2.59s10.16-2.12,11.59-3,2.33-3.75,2.07-5-4.08-4-7.84-5.66S190.62,197.51,187.49,197.87Z"/><path class="cls-7" d="M190.64,201.76c-4.18,4.79-7.11,9.5-5.43,11.66a1.74,1.74,0,0,1-1.56-1.73C183.6,210.43,185,206.16,190.64,201.76Z"/><path class="cls-7" d="M188.11,199.35c2.15-.48,8.53.66,14.49,2.66-.62-.34-1.56-.95-2.21-1.23-3.75-1.64-9.77-3.27-12.9-2.91-1.87.58-7.58,5.92-9.33,11.38a1.08,1.08,0,0,0,.46,1.07C181.2,204.75,186,200.17,188.11,199.35Z"/><path class="cls-8" d="M208.23,206.44c-.22-1-2.83-3.07-5.84-4.69a6.26,6.26,0,0,1-.3,4.27c-3.25,6.19-10.87,7.45-17.53,7.09,1.57,1,5.14,1.46,10,1.27,6.72-.26,10.16-2.12,11.59-3S208.49,207.67,208.23,206.44Z"/><path class="cls-8" d="M190.6,201.79a16.67,16.67,0,0,0-9.76,9.63,9.33,9.33,0,0,0,2.66.37C184.42,207.63,186.48,205.05,190.6,201.79Z"/><path class="cls-9" d="M183.43,212.26c-.41-5.12,7.21-10.5,7.21-10.5s-7,5.66-6.58,10.45Z"/><path class="cls-9" d="M192.52,214.74h0c-4.48,0-7.56-.64-8.68-1.79a1.68,1.68,0,0,1-.46-.84h0c-2.13,0-4.49-.84-5.27-1.87a1.22,1.22,0,0,1-.26-1.08c1.78-5.55,7.61-11,9.54-11.59h.06a7.84,7.84,0,0,1,1-.06c3.4,0,8.75,1.54,12.06,3s7.7,4.4,8,5.89c.28,1.34-.63,4.37-2.21,5.31-1.14.67-4.61,2.73-11.75,3C193.87,214.73,193.18,214.74,192.52,214.74ZM184,211.46v.34a1,1,0,0,0,.32.71c1,1,4,1.59,8.22,1.59h0c.65,0,1.34,0,2,0,7-.27,10.34-2.26,11.44-2.92,1.28-.75,2.15-3.52,1.91-4.63s-3.86-3.79-7.64-5.44c-3.26-1.42-8.5-2.93-11.81-2.93a8.59,8.59,0,0,0-.91,0c-1.81.6-7.41,5.93-9.09,11.16a.61.61,0,0,0,.15.51c.69.91,3.11,1.7,5,1.62Z"/><path class="cls-6" d="M126,201.25c3.09.6,12.36,4.16,17.41,8.28.84,1.17-1.3,4.82-2.49,5.78-2.19,1.74-6,2.34-10.72,2.74s-9.57.27-9.25-2c-2.42-.79-4.69-1.15-5-2.54S122.9,200.86,126,201.25Z"/><path class="cls-7" d="M127.6,207c-1,1.31-7.48,9.08-5.13,10.75A1.4,1.4,0,0,1,121,216.1C121.31,214,123.75,210.23,127.6,207Z"/><path class="cls-7" d="M125.65,202.58c1.64-.29,8.71,2.43,13,3.79A54.76,54.76,0,0,0,126,201.25c-3.13-.39-10.29,10.92-10,12.31a1.45,1.45,0,0,0,.31.62C118.33,210.36,123.15,203,125.65,202.58Z"/><path class="cls-8" d="M119.14,215.54c.54.16,1.12.33,1.71.52.66-2.88,3.35-6.2,6.75-9.09A12.77,12.77,0,0,0,119.14,215.54Z"/><path class="cls-8" d="M143.44,209.53a33.8,33.8,0,0,0-5.1-3.33c-.39,7.47-8.72,11.49-16.27,11.43,1.65.72,4.93.69,8.16.42,4.72-.4,8.53-1,10.72-2.74C142.14,214.35,144.28,210.7,143.44,209.53Z"/><path class="cls-9" d="M120.66,216.47c0-4.22,6.94-9.5,6.94-9.5s-6.31,5.56-6.31,9.5Z"/><path class="cls-9" d="M126.46,218.54c-2.93,0-4.71-.41-5.44-1.25a1.45,1.45,0,0,1-.38-1c-.38-.13-.76-.24-1.13-.35-1.9-.56-3.55-1-3.81-2.36-.22-1.09,2.68-5.83,5.12-8.8,1.45-1.78,3.51-3.89,5-3.89h.21c3.39.65,12.62,4.31,17.57,8.34l.06.06c1,1.39-1.31,5.22-2.55,6.22-2.2,1.75-6,2.39-10.9,2.8C128.84,218.48,127.57,218.54,126.46,218.54Zm-.6-17c-1,0-2.61,1.3-4.55,3.66-2.92,3.57-5.1,7.68-5,8.28.18.93,1.66,1.37,3.36,1.87.45.14.91.27,1.39.43l.25.08,0,.27a.88.88,0,0,0,.21.73c.4.47,1.6,1,5,1,1.09,0,2.35-.06,3.74-.18,4.84-.41,8.48-1,10.55-2.67,1.2-1,3-4.37,2.45-5.32-5.18-4.2-14.42-7.63-17.23-8.17Z"/></svg>