<svg xmlns="http://www.w3.org/2000/svg" xmlns:xlink="http://www.w3.org/1999/xlink" viewBox="0 0 256 256"><defs><style>.cls-1{isolation:isolate;}.cls-2{opacity:0.3;}.cls-3{fill:#ffbf31;}.cls-4{fill:#914a09;}.cls-5{opacity:0.7;}.cls-6{fill:#6b3207;}.cls-7{opacity:0.66;}.cls-8{fill:#7f6767;}.cls-9{fill:#efb686;}.cls-10{fill:#ffe7b6;}.cls-11{fill:url(#linear-gradient);}.cls-12{fill:#bc8a4d;}.cls-13{fill:#ea7754;}.cls-14{fill:#e24e2b;}.cls-15{fill:#dd7f10;}.cls-16{fill:#622c09;}.cls-17{fill:#49260a;}.cls-18{fill:#fff;}.cls-19{fill:#a86216;}.cls-20{mix-blend-mode:screen;}.cls-21{fill:url(#linear-gradient-2);}.cls-22{fill:#ff929d;}.cls-23{fill:#c23a3a;}.cls-24{fill:#8d8d8d;}.cls-25{fill:#a1a1a1;}.cls-26{fill:url(#radial-gradient);}.cls-27{fill:#892c0b;}.cls-28{fill:#461212;}.cls-29{fill:url(#radial-gradient-2);}.cls-30{fill:url(#radial-gradient-3);}.cls-31{fill:#5d5d5d;}</style><linearGradient id="linear-gradient" x1="100.74" y1="94.15" x2="99.44" y2="69.11" gradientUnits="userSpaceOnUse"><stop offset="0.01" stop-color="#f8d791"/><stop offset="0.36" stop-color="#f2a809"/><stop offset="0.95" stop-color="#d5630e"/></linearGradient><linearGradient id="linear-gradient-2" x1="64.1" y1="77.41" x2="90.77" y2="77.41" gradientUnits="userSpaceOnUse"><stop offset="0.06" stop-color="#520000"/><stop offset="0.97"/></linearGradient><radialGradient id="radial-gradient" cx="77.45" cy="77.99" r="11.47" gradientUnits="userSpaceOnUse"><stop offset="0" stop-color="#090303"/><stop offset="1" stop-color="#2e0303"/></radialGradient><radialGradient id="radial-gradient-2" cx="75.73" cy="60.91" r="6.54" xlink:href="#radial-gradient"/><radialGradient id="radial-gradient-3" cx="67.07" cy="62.29" r="3.99" xlink:href="#radial-gradient"/></defs><g class="cls-1"><g id="Layer_1" data-name="Layer 1"><ellipse class="cls-2" cx="97.33" cy="237.5" rx="62.31" ry="11.11"/><path class="cls-3" d="M50.75,172.81c0,16.48,13.13,32.25,15.58,44.31,7.06-6.67,0-50.29,0-50.29C60.84,159.57,50.75,161.24,50.75,172.81Z"/><path class="cls-4" d="M66.71,166.67l-.06-.08a10.43,10.43,0,0,0-8.13-4.51c-4.06,0-8.16,3.31-8.16,10.73,0,10,4.86,19.89,9.16,28.59,2.81,5.69,5.47,11.07,6.43,15.8l.14.69.51-.49c7.13-6.73.41-48.84.12-50.63Zm-.16,49.61c-1.09-4.63-3.64-9.79-6.33-15.23-4.25-8.62-9.08-18.38-9.08-28.24,0-7.34,4-9.95,7.38-9.95A9.6,9.6,0,0,1,66,167C66.32,169.23,72.41,208.45,66.55,216.28Z"/><g class="cls-5"><path class="cls-6" d="M55.45,166.6c-1.4,1.18-2.35,4.44-1.24,5s3.75-2.53,3.92-4S56.7,165.56,55.45,166.6Z"/></g><g class="cls-5"><path class="cls-6" d="M53.88,177.84c-.94.26-1,6.1,1.08,5.92S55.65,177.35,53.88,177.84Z"/></g><g class="cls-5"><path class="cls-6" d="M60.65,179.61c-1.57.06-1.08,3.13,0,3.1S62.22,179.54,60.65,179.61Z"/></g><g class="cls-5"><path class="cls-6" d="M57.68,188.66c-1.28.78,1.17,5.64,2.81,4.28S59,187.82,57.68,188.66Z"/></g><path class="cls-3" d="M216.86,105.51a7.61,7.61,0,0,1,2.6,0s-2.79-6.08-8.14-7a9.46,9.46,0,0,1,1.86-1.62,39.55,39.55,0,0,0-7.54-.78,7.09,7.09,0,0,1,1.27-.79c-5.34-1-10.29,2.36-16.86-.39-5.2-2.17-21.87-18-35-12.19-17.38,7.71-10.41,41.08-9.33,52.45s3.53,27.06-6.08,34.83c0,0,7.26-1.37,12.35-2.94,5.89-6,5.62-23.39,5.49-29.54s-3.56-33.77,3.63-37.22c7-3.33,17.38,9,21.27,12.45,5.4,4.81,14.36,10,18,9.12a17.26,17.26,0,0,0-.93-1.91s7.55,2.45,10.49,1.08c0,0-1.08-1-1.86-1.72,0,0,7.05-1,9.46-4.16a9.68,9.68,0,0,1-1.82-.69c1.52-.25,3.14-2.16,4.71-2.45A20.06,20.06,0,0,0,216.86,105.51Z"/><g class="cls-5"><path class="cls-6" d="M179.44,88.18c-2.23,3.55-2.7,7.29-1,10.58s6.33,6.13,9.74,6.21c3.06.07,7.27-2.47,7.24-8.89A14,14,0,0,1,190.05,95C188,94.11,184.15,91.12,179.44,88.18Z"/></g><g class="cls-5"><path class="cls-6" d="M177.92,108.46c1.85,1.78,3.41,3.4,4.48,4.35a46.2,46.2,0,0,0,4.85,3.75C189.44,111.09,183.17,108.27,177.92,108.46Z"/></g><g class="cls-5"><path class="cls-6" d="M155.89,82.45c-.37,5.82,10.4,6.25,12.26.21C164,81.36,159.82,81,155.89,82.45Z"/></g><g class="cls-5"><path class="cls-6" d="M148.7,88a27.36,27.36,0,0,0-4.49,11.74c2.06,0,4.7-.69,5.94-2.22C151.61,95.67,151.71,90.42,148.7,88Z"/></g><g class="cls-7"><path class="cls-6" d="M166.23,90.76c-4-.36-8.68,3.07-6.95,11.32a4.79,4.79,0,0,1,1.85-1.72c2.74-1.31,6-.2,9.22,1.85C173,97.23,170.84,91.16,166.23,90.76Z"/></g><g class="cls-7"><path class="cls-6" d="M143.62,110.13a133.91,133.91,0,0,0,1.18,16.62c6.83-3.51,5.26-8.41,4-10.09C147.47,114.76,148.87,110.94,143.62,110.13Z"/></g><path class="cls-8" d="M143.47,110.69c0-.36.09-.73.15-1.1l-.17,0C143.45,109.94,143.46,110.32,143.47,110.69Z"/><g class="cls-5"><path class="cls-6" d="M156.79,126c-3.32,3.38-5.13,7.89-4.48,11.4.51,2.79,3.5,4.64,5.23,5.49,0-2.13,0-4,0-5.28C157.46,135.54,157.05,131.1,156.79,126Z"/></g><g class="cls-5"><path class="cls-6" d="M146.38,139.22c.3,3,.62,6.22.75,9.44C153.63,145.92,149.6,141,146.38,139.22Z"/></g><g class="cls-5"><path class="cls-6" d="M151.33,158c1,1.08,3.09.82,4.71.35a62.55,62.55,0,0,0,1.31-9.89C151,151.35,149.65,156.24,151.33,158Z"/></g><path class="cls-4" d="M195.68,95.69a13.88,13.88,0,0,1-5.48-1.08A38.82,38.82,0,0,1,185,91.34c-6-4.07-15-10.23-23.65-10.23a15.64,15.64,0,0,0-6.39,1.31c-15.44,6.85-12,33.34-10.19,47.57.26,2.06.49,3.84.63,5.28.08.87.17,1.77.27,2.69,1.11,11,2.5,24.75-6.2,31.8l-1.21,1,1.52-.29c.08,0,7.34-1.4,12.4-2.95l.09,0,.07-.07c6.11-6.24,5.73-24,5.61-29.83,0-1-.14-2.65-.28-4.69-.67-9.55-2.07-29.41,3.68-32.16a5.53,5.53,0,0,1,2.41-.53c5.33,0,12,6.64,16,10.6.95.94,1.76,1.74,2.4,2.32a50.42,50.42,0,0,0,7.24,5.29c.22-.16.45-.33.66-.5a52.13,52.13,0,0,1-7.38-5.38c-.62-.56-1.43-1.36-2.36-2.28-4.09-4-10.94-10.84-16.59-10.84A6.33,6.33,0,0,0,161,100c-6.22,3-4.86,22.46-4.13,32.92.15,2,.26,3.64.28,4.66.33,15.34-1.46,25.16-5.31,29.19-3.66,1.12-8.45,2.14-10.79,2.62,7.81-7.53,6.47-20.78,5.39-31.52-.1-.92-.19-1.81-.27-2.69-.14-1.45-.37-3.23-.63-5.3-1.81-14-5.18-40.14,9.73-46.76a14.94,14.94,0,0,1,6.07-1.24c8.37,0,17.3,6.08,23.21,10.1a38,38,0,0,0,5.39,3.34,14.65,14.65,0,0,0,5.78,1.14c.53,0,1.06,0,1.58-.06,0-.27-.09-.53-.13-.78C196.65,95.66,196.17,95.69,195.68,95.69Z"/><path class="cls-9" d="M216.86,105.51a7.61,7.61,0,0,1,2.6,0s-2.79-6.08-8.14-7a9.46,9.46,0,0,1,1.86-1.62,39.55,39.55,0,0,0-7.54-.78,7.09,7.09,0,0,1,1.27-.79c-3.23-.59-6.31.39-9.7.66,3.24,7.88,1,19.56-7.79,22,4.29,2.64,8.71,4.49,11,4a17.26,17.26,0,0,0-.93-1.91s7.55,2.45,10.49,1.08c0,0-1.08-1-1.86-1.72,0,0,7.05-1,9.46-4.16a9.68,9.68,0,0,1-1.82-.69c1.52-.25,3.14-2.16,4.71-2.45A20.06,20.06,0,0,0,216.86,105.51Z"/><path class="cls-10" d="M220.33,111.6a20.94,20.94,0,0,0-3.47-6.09,7.61,7.61,0,0,1,2.6,0s-2.79-6.08-8.14-7a9.46,9.46,0,0,1,1.86-1.62,39.55,39.55,0,0,0-7.54-.78,7.09,7.09,0,0,1,1.27-.79c-3.23-.59-6.31.39-9.7.66,2.09,5.09,1.89,11.75-.87,16.48,2.15.77,4.36,1.43,6.65,2.08v-2.75a6.45,6.45,0,0,0,5.88,2c-.39-1.56-2.35-2.35-2-4.31C211,111.67,216.06,110.12,220.33,111.6Z"/><g class="cls-5"><path class="cls-6" d="M152.86,101c-3.1,0-3.72,8.75-.42,8.78S155.38,101,152.86,101Z"/></g><path class="cls-6" d="M150.77,102.91a3.62,3.62,0,0,0-.13.35C150.68,103.14,150.72,103,150.77,102.91Z"/><g class="cls-5"><path class="cls-6" d="M152.28,124.28c-1.82-.76-5.9,4.29-3.17,5.82S153.75,124.9,152.28,124.28Z"/></g><path class="cls-3" d="M156.92,164.57c-4.91-3.82-16.47.79-21.9,10.2-7.27,12.62-27.84,50.65-27.84,50.65s14.64,7.06,23.92,10.19c2.8-11.89,20.57-33.1,24.83-41.17C162.5,182,162.29,168.77,156.92,164.57Z"/><path class="cls-4" d="M157.16,164.27a7.58,7.58,0,0,0-4.73-1.43c-5.32,0-13.35,4.11-17.75,11.73-7.19,12.49-27.64,50.28-27.84,50.66l-.2.36.37.18c.15.07,14.77,7.11,24,10.22l.41.13.1-.42c1.85-7.83,10.25-19.75,17-29.33a136.67,136.67,0,0,0,7.8-11.75C162.58,182.71,163,168.81,157.16,164.27Zm-1.57,30a137.44,137.44,0,0,1-7.75,11.66c-6.67,9.46-15,21.21-17,29.18-8.33-2.87-20.8-8.76-23.1-9.86,2.13-3.93,20.83-38.46,27.64-50.28,4.25-7.36,12-11.34,17.07-11.34a6.85,6.85,0,0,1,4.24,1.26C161.62,168.74,162.36,181.46,155.59,194.26Z"/><g class="cls-5"><path class="cls-6" d="M154.25,166.79c-2.16.24-2.16,6.32.44,5.93S156.1,166.58,154.25,166.79Z"/></g><g class="cls-5"><path class="cls-6" d="M154.11,178.35c-1.87.24-2.78,7.25.5,7S156.16,178.08,154.11,178.35Z"/></g><g class="cls-5"><path class="cls-6" d="M145,169.82c-2.46.78-5.54,4.51-4.32,5.83s3.14-.05,5.59-1.66S146.61,169.29,145,169.82Z"/></g><g class="cls-5"><path class="cls-6" d="M142.36,183.1c-1.72.25-3.78,5.88-.49,5.39S144.62,182.78,142.36,183.1Z"/></g><g class="cls-5"><path class="cls-6" d="M149.51,192.86c-2.59-.35-3,6.23-1.86,6.56C149.42,199.91,152.59,193.26,149.51,192.86Z"/></g><path class="cls-6" d="M147.35,195.08l1.66-2.2C148.21,193.07,147.66,194,147.35,195.08Z"/><g class="cls-5"><path class="cls-6" d="M138.29,194.62c-1.57.34-1.18,5.77.83,5C141.87,198.69,140.16,194.21,138.29,194.62Z"/></g><g class="cls-5"><path class="cls-6" d="M143.13,205.32c-1.47-.68-6.77,3.47-3.6,4.61S144.34,205.89,143.13,205.32Z"/></g><g class="cls-5"><path class="cls-6" d="M129.47,197.16c-.53,2.44-.88,4.31,0,4.08,2.6-.69,3.2-3.91,3.13-5.1S130,194.73,129.47,197.16Z"/></g><g class="cls-5"><path class="cls-6" d="M134.14,213.48c-1.08-.83-4.51,2.06-2.55,4S136.47,215.28,134.14,213.48Z"/></g><g class="cls-5"><path class="cls-6" d="M127.16,219.28c-1.91-1.18-4.11,3.82-2.35,4.55S128.77,220.27,127.16,219.28Z"/></g><path class="cls-6" d="M125.74,219.39a10.1,10.1,0,0,0,1.36-.15A1.24,1.24,0,0,0,125.74,219.39Z"/><path class="cls-3" d="M127.18,127.13a16.94,16.94,0,0,1,2.29,3.2s1.27-5.46-3.14-12.46a18.94,18.94,0,0,1,4,2.85,16.8,16.8,0,0,0-6.14-9.67,25.84,25.84,0,0,1,3.33.49c-2.51-5.88-9.65-9.73-13.59-16.27s-7.45-18.34-6.41-30.36L91,71.84V122.4l29.63,78.86,9.77-8.63c10.52-16.43,3.83-33.84,1.67-40.9S127,133.14,127.18,127.13Z"/><path class="cls-11" d="M95.26,86.56a19.2,19.2,0,0,1,14.53-1,55.74,55.74,0,0,1-2.22-20.61L91,71.84V90.25A14.09,14.09,0,0,1,95.26,86.56Z"/><path class="cls-9" d="M111.36,227.94c10.54-.43,16.37-21.32,7.32-36.11C118.68,191.83,97.51,222.94,111.36,227.94Z"/><path class="cls-12" d="M118.69,191.1l-.34.51c-.61.89-14.87,22-11.59,32.14a7,7,0,0,0,4.47,4.56l.07,0h.08c3.6-.15,6.85-2.58,9.13-6.86,3.89-7.27,4.61-19.86-1.5-29.85Zm1.13,30c-2.13,4-5.11,6.28-8.4,6.44a6.18,6.18,0,0,1-3.92-4c-2.89-8.9,9-27.61,11.16-30.95C124.28,202.21,123.53,214.15,119.82,221.1Z"/><path class="cls-3" d="M114.69,227.51c.65,1.45,6.31.82,6.31.82l10.76-25S119.93,210.3,114.69,227.51Z"/><path class="cls-4" d="M122.11,211.88a45.93,45.93,0,0,0-3.08,4.66,51.58,51.58,0,0,0-4.72,10.85l0,.14.06.14c.43,1,2.39,1.2,4.11,1.2a23.18,23.18,0,0,0,2.6-.15l-.09-.78c-2.07.23-5.24.22-5.84-.48,5.16-16.74,16.54-24,16.65-24.1A28,28,0,0,0,122.11,211.88Z"/><path class="cls-3" d="M67.41,84.19c.43,7.48-1.23,15.93-4.51,22-3.5,6.45-8.53,8.53-9.41,13,1.53-.78,3.43-2,3.43-2-4.11,7.29-2.59,16.16-2.59,16.16C55.55,131,57,128.79,57,128.79a23,23,0,0,0,.3,14c1-1.62,1.83-2.68,1.83-2.68-.3,8.53,5.45,20.18,5.62,27.09-2.68,20.95,4.7,34.61-1.61,58.82,6.64,4.9,23.37,7.45,23.37,7.45l9.8-74.65L76.73,80.07Z"/><path class="cls-4" d="M67,83.94v.27c.43,7.56-1.28,15.89-4.46,21.75a30.49,30.49,0,0,1-5.31,6.82c-2,2-3.65,3.81-4.14,6.28l-.16.79.72-.36c.76-.39,1.6-.87,2.27-1.26-3.34,7-2.06,14.84-2,15.19l.2,1.14.53-1c.47-.9,1-1.78,1.43-2.53A22.84,22.84,0,0,0,57,143l.29.7.41-.64c.41-.66.8-1.22,1.1-1.66.12,4.47,1.63,9.56,3.09,14.49,1.26,4.27,2.45,8.3,2.53,11.35-1.13,8.88-.45,16.59.21,24.05.9,10.22,1.83,20.78-1.8,34.69l-.07.26.22.16c6.64,4.9,22.85,7.41,23.54,7.52l.4.06,9.85-75.05v-.07L77,79.52ZM86.19,233c-2.53-.42-16.53-2.88-22.58-7.16,3.58-13.92,2.65-24.48,1.75-34.7-.66-7.42-1.33-15.1-.21-23.91v-.06c-.08-3.16-1.29-7.25-2.57-11.58-1.58-5.34-3.21-10.85-3.05-15.48l0-1.25-.75,1s-.6.79-1.41,2a23.35,23.35,0,0,1,0-13l.7-2.43-1.4,2.11s-1.07,1.6-2.13,3.5c-.24-2.65-.42-9.18,2.7-14.69l.74-1.32-1.29.79s-1.32.81-2.62,1.51c.63-1.83,2-3.27,3.72-5a31.5,31.5,0,0,0,5.43-7c3.21-5.9,5-14.27,4.57-21.89l8.64-3.82,19.47,78.24Z"/><path class="cls-9" d="M107,163.83c-1.05-12.13-6.73-17.06-6.24-28.73a11.21,11.21,0,0,1,1.8,3.21c1.87-4.09.6-10,.6-10a32,32,0,0,1,3.14,5.78c1.66-5.54-2.75-12.2-2.75-12.2a9.8,9.8,0,0,1,2.5,2.3c1.15-6.83-5-15.86-7.35-24.51A85.17,85.17,0,0,1,96.19,70.4L72.07,87.07c1.18,10.39-7.35,30.39-9,35.29a12.5,12.5,0,0,1,2.76-1c-3.06,5-3.74,12.64-3.74,12.64a29.57,29.57,0,0,1,3.64-3.52c-2.86,5.68-.6,14.7-.6,14.7a37,37,0,0,1,2.5-4.51c-.54,8.24,5.73,21.94,9.94,28,2.16,2.36,4.42,18.1,5.3,28.73,1,12.16-3.33,34.38,7.74,36.34,14.64.66,13.56-10.78,13.56-10.78S107.75,172,107,163.83Z"/><path class="cls-10" d="M100.8,135.1a11.21,11.21,0,0,1,1.8,3.21c1.87-4.09.6-10,.6-10a32,32,0,0,1,3.14,5.78c1.66-5.54-2.75-12.2-2.75-12.2a9.8,9.8,0,0,1,2.5,2.3c1.15-6.83-5-15.86-7.35-24.51a82,82,0,0,1-2.48-13.82c-8.2.24-8.72,13.16-24,7.35-.88,10.64-7.65,24.49-9.22,29.12a12.5,12.5,0,0,1,2.76-1c-3.06,5-3.74,12.64-3.74,12.64a29.57,29.57,0,0,1,3.64-3.52c-2.86,5.68-.6,14.7-.6,14.7a37,37,0,0,1,2.5-4.51c-.54,8.24,5.73,21.94,9.94,28A9.46,9.46,0,0,1,79,172.08c2.94,5.13,4,11,5.57,16.61,2.74,9.8,13.33,8.63,19.21,3.92a18.44,18.44,0,0,0,2.43-2.13c.39-7.12,1-25.26.83-26.65C106,151.7,100.31,146.77,100.8,135.1Z"/><path class="cls-12" d="M107.43,163.79a50,50,0,0,0-3.33-13.53c-1.53-4.29-3-8.35-2.94-14a13.37,13.37,0,0,1,1.07,2.2l.32.91.4-.88c1.28-2.78,1.15-6.31.91-8.41a34.28,34.28,0,0,1,2.11,4.21l.42,1,.32-1.06c1.19-3.94-.54-8.33-1.76-10.73.48.5.82.94.83.95l.55.71.15-.88c.75-4.47-1.48-9.74-3.85-15.31a76.3,76.3,0,0,1-3.51-9.37,85.44,85.44,0,0,1-2.54-29.16l.1-.86-25,17.29,0,.23c1,8.64-4.91,24.21-7.74,31.7-.56,1.47-1,2.63-1.27,3.42l-.29.88.83-.4A15.8,15.8,0,0,1,65,122c-2.67,5-3.3,11.69-3.32,12l-.12,1.24.81-.95a25.91,25.91,0,0,1,2.35-2.41c-1.89,5.66-.08,13.08,0,13.43l.29,1.14.46-1.09a27.77,27.77,0,0,1,1.72-3.24c.19,8.22,5.86,20.8,10,26.83l0,0c1.86,2,4.18,16.39,5.19,28.5.25,3.08.16,6.79.07,10.71-.28,11.47-.59,24.47,8,26h0l1.2,0c4.55,0,8-1.22,10.18-3.64a10.7,10.7,0,0,0,2.59-7.56C104.73,220.52,108.13,171.91,107.43,163.79ZM103.77,223v.07a9.94,9.94,0,0,1-2.38,7c-2.22,2.44-5.85,3.58-10.74,3.36-7.9-1.42-7.59-14.05-7.33-25.19a106,106,0,0,0-.07-10.79c-.87-10.5-3.11-26.39-5.38-28.94-4.37-6.32-10.38-19.83-9.86-27.76l.1-1.5-.82,1.26c-.06.09-1.19,1.83-2,3.49-.48-2.57-1.36-9,.82-13.3l.81-1.61-1.41,1.13a32.12,32.12,0,0,0-2.86,2.65c.33-2.35,1.28-7.57,3.54-11.26l.45-.74-.86.15a11.43,11.43,0,0,0-2,.65c.25-.7.57-1.55,1-2.56,2.83-7.47,8.68-23,7.81-31.82L95.72,71.2a87.47,87.47,0,0,0,2.64,28.62,78.38,78.38,0,0,0,3.55,9.47c2.16,5.09,4.21,9.92,3.9,14a7.9,7.9,0,0,0-2-1.71l-1.31-.66.81,1.22c0,.06,3.71,5.69,3,10.74a29.27,29.27,0,0,0-2.7-4.76l-1.09-1.48.39,1.79c0,.06,1.05,5-.23,8.84a9.78,9.78,0,0,0-1.5-2.42l-.64-.7,0,1c-.27,6.41,1.3,10.79,3,15.43a49.48,49.48,0,0,1,3.28,13.34C107.35,172,103.81,222.47,103.77,223Z"/><path class="cls-4" d="M64.39,167.11l.75.22A18.67,18.67,0,0,1,69.35,160,14.18,14.18,0,0,0,64.39,167.11Z"/><g class="cls-5"><path class="cls-6" d="M69.13,92.57c-.7.33-.93,5.9.93,5.49C72.51,97.52,71.24,91.59,69.13,92.57Z"/></g><g class="cls-5"><path class="cls-6" d="M66.63,105.8c-2.06-.49-3.38,5.74-1.72,5.74S69.34,106.45,66.63,105.8Z"/></g><g class="cls-5"><path class="cls-6" d="M59.33,118.06c-2-.64-3.63,4.9-1.67,5.39S61,118.6,59.33,118.06Z"/></g><g class="cls-5"><path class="cls-6" d="M61.86,143.07c-1.34.23-.15,5.08,1.53,4.38C65.52,146.57,63.2,142.84,61.86,143.07Z"/></g><g class="cls-5"><path class="cls-6" d="M64.77,150.85c-1.93.72.79,6,2.15,5.29C68.79,155.23,66.61,150.16,64.77,150.85Z"/></g><g class="cls-5"><path class="cls-6" d="M70.48,165.91c-3.3-1-3.26,9.32-1.66,9.35S70.35,172,71,170.91C71.92,169.53,72.49,166.55,70.48,165.91Z"/></g><g class="cls-5"><path class="cls-6" d="M74.52,179.6c-1.86.09-1.67,3.94,0,3.7S75.94,179.54,74.52,179.6Z"/></g><g class="cls-5"><path class="cls-6" d="M68.05,181.85c-2.18.1-2.09,5.59.34,5.25S70.2,181.76,68.05,181.85Z"/></g><g class="cls-5"><path class="cls-6" d="M78.55,191.52c-2.63.59-.63,9,1.7,8.6S81.14,191,78.55,191.52Z"/></g><g class="cls-5"><path class="cls-6" d="M70.87,196.58c-2.62.14-2.57,6.12,0,5.68S73,196.46,70.87,196.58Z"/></g><g class="cls-5"><path class="cls-6" d="M73.11,208.14c-2.19.2-.93,5.35,1.11,5S75.29,208,73.11,208.14Z"/></g><g class="cls-5"><path class="cls-6" d="M79.28,213.16c-.72.05-1.07,4.12.68,3.83S81.14,213.05,79.28,213.16Z"/></g><g class="cls-5"><path class="cls-6" d="M71.64,216.63c-3.23.29-2.16,7.11.61,7.11S74.43,216.38,71.64,216.63Z"/></g><path class="cls-9" d="M58.1,225.78c-2.32,2.63-3.28,8-2.16,11.19.7,2,4.53,3,6.28,1,.7-3.66,3-11.74,3-11.74A4.33,4.33,0,0,0,58.1,225.78Z"/><path class="cls-10" d="M58.1,225.78A11,11,0,0,0,56,230.2a3.38,3.38,0,0,0,1.56,3.58c2,1.58,3.93,1.08,5.7-.07.92-3.59,2-7.45,2-7.45A4.33,4.33,0,0,0,58.1,225.78Z"/><path class="cls-12" d="M61.5,223.74a4.82,4.82,0,0,0-3.69,1.78c-2.37,2.69-3.43,8.21-2.24,11.58a4.31,4.31,0,0,0,4.06,2.35h0a3.77,3.77,0,0,0,2.88-1.19l.07-.08,0-.11c.69-3.6,3-11.62,3-11.7l0-.15-.07-.13A4.68,4.68,0,0,0,61.5,223.74Zm.35,14.07a3,3,0,0,1-2.22.85h0a3.57,3.57,0,0,1-3.32-1.82c-1.09-3.09-.08-8.34,2.08-10.8a4.13,4.13,0,0,1,3.11-1.52,3.91,3.91,0,0,1,3.31,1.78C64.49,227.42,62.52,234.41,61.85,237.81Z"/><path class="cls-9" d="M62.66,227.07c-2.89,2.89-4.11,8.9-2.94,11.53s6.93,4.29,9.62.17a17.27,17.27,0,0,0,.21-10.08C69.08,226.09,65.76,224,62.66,227.07Z"/><path class="cls-10" d="M62.66,227.07a12.18,12.18,0,0,0-2.82,5.21,3.85,3.85,0,0,0,1.2,3.07c2.41,2.71,6.19,2.18,9.07,0a17.77,17.77,0,0,0-.56-6.69C69.08,226.09,65.76,224,62.66,227.07Z"/><path class="cls-12" d="M65.9,225.13a5,5,0,0,0-3.52,1.66c-3.06,3.06-4.23,9.24-3,12,.74,1.65,3,2.89,5.35,2.89a5.73,5.73,0,0,0,5-2.67l0-.08a17.56,17.56,0,0,0,.22-10.31A4.22,4.22,0,0,0,65.9,225.13ZM69,238.59a5,5,0,0,1-4.28,2.28c-2,0-4-1.07-4.63-2.43-1.11-2.48.08-8.31,2.86-11.09a4.23,4.23,0,0,1,3-1.43,3.41,3.41,0,0,1,3.26,2.84v.05A17,17,0,0,1,69,238.59Z"/><path class="cls-9" d="M69.08,227.44c-2.65,3.16-3,9-2.06,11.88,1.18,3.55,8.63,4.9,10.69.15a23.73,23.73,0,0,0-.06-9.66C75.75,225.53,71.14,225,69.08,227.44Z"/><path class="cls-10" d="M69.08,227.44c-1.72,2.06-2.47,5.26-2.53,8a5.51,5.51,0,0,0,3.9,3,8,8,0,0,0,7.63-2.07,21,21,0,0,0-.43-6.61C75.75,225.53,71.14,225,69.08,227.44Z"/><path class="cls-12" d="M78,229.65a6.32,6.32,0,0,0-5.66-4.06,4.6,4.6,0,0,0-3.57,1.6c-2.75,3.28-3.1,9.35-2.13,12.26.67,2,3.18,3.48,6,3.48h0a5.6,5.6,0,0,0,5.43-3.3l0-.09A23.69,23.69,0,0,0,78,229.7Zm-.68,9.71a4.84,4.84,0,0,1-4.69,2.78c-2.44,0-4.69-1.26-5.25-2.94-.9-2.74-.58-8.44,2-11.51a3.84,3.84,0,0,1,3-1.32,5.54,5.54,0,0,1,4.93,3.57A23.93,23.93,0,0,1,77.33,239.36Z"/><path class="cls-9" d="M82.12,226c-4.76,0-6.64,8.78-5.84,13.2s9,5.19,10.41-.49a15.79,15.79,0,0,0,.17-6.74C86.35,229,85.26,226,82.12,226Z"/><path class="cls-10" d="M82.12,226c-3.84,0-5.81,5.73-6,10.26a4.28,4.28,0,0,0,2.57,3c3.9,1.12,6.81-1.13,8.45-4.36a19.56,19.56,0,0,0-.28-3C86.35,229,85.26,226,82.12,226Z"/><path class="cls-12" d="M82.1,225.59a4.55,4.55,0,0,0-3.55,1.85c-2.36,2.82-3.28,8.39-2.65,11.81.42,2.3,2.65,3.91,5.41,3.91a5.77,5.77,0,0,0,5.76-4.38,16.05,16.05,0,0,0,.17-6.89C87,230.33,86.15,225.6,82.1,225.59Zm4.21,13a5,5,0,0,1-5,3.79c-2,0-4.23-1-4.64-3.27-.58-3.18.29-8.55,2.48-11.17a3.81,3.81,0,0,1,3-1.57c2.3,0,3.68,1.81,4.35,5.65A15.53,15.53,0,0,1,86.31,238.59Z"/><path class="cls-4" d="M132.49,151.62c-2.35-7.69-4.79-17.63-4.92-23.43a21.39,21.39,0,0,1,1.56,2.33l.49.86.23-1c.05-.22,1.11-5-2.43-11.47a17.78,17.78,0,0,1,2.69,2.06l.86.8-.2-1.16a17.21,17.21,0,0,0-5.26-9.07c.59.08,1.3.19,2,.34l.76.17-.31-.71c-1.36-3.18-4-5.74-6.81-8.45a40.48,40.48,0,0,1-6.81-7.86c-3.61-6-7.45-17.49-6.35-30.13l-.78-.06c-1.11,12.82,2.79,24.49,6.46,30.59a40.67,40.67,0,0,0,6.94,8c2.53,2.45,4.93,4.78,6.31,7.51-1.33-.24-2.56-.34-2.62-.34l-1.35-.1,1.08.8a16.53,16.53,0,0,1,5.69,8.24,19.5,19.5,0,0,0-3.19-2.08l-1.24-.62.74,1.18a18.83,18.83,0,0,1,3.21,11.08,15.18,15.18,0,0,0-1.75-2.31l-.64-.65,0,.91c-.19,5.69,2.43,16.51,5,24.74.17.55.37,1.17.59,1.86,2.5,7.77,7.7,23.94-1.89,38.92,0,0,3.52-3,5.41-10.91a37.59,37.59,0,0,0,.94-9.18c-.11-7.86-2.32-14.75-3.72-19.07C132.86,152.79,132.66,152.17,132.49,151.62Z"/><path class="cls-9" d="M126.46,226.63s-.67,9.41-1.5,13.48c4.23,3.87,9.8-1.42,8.13-9.3C132.28,227,128.52,225.45,126.46,226.63Z"/><path class="cls-10" d="M126.46,226.63s-.35,4.91-.86,9.17a5.14,5.14,0,0,0,5.63.73,3.92,3.92,0,0,0,2.16-2.73,12.69,12.69,0,0,0-.3-3C132.28,227,128.52,225.45,126.46,226.63Z"/><path class="cls-12" d="M128,225.85a3.51,3.51,0,0,0-1.76.44l-.19.1v.21c0,.09-.68,9.43-1.5,13.43l0,.22.16.15a4.94,4.94,0,0,0,3.3,1.4,5,5,0,0,0,3.86-2c1.76-2.17,2.37-5.54,1.63-9A5.84,5.84,0,0,0,128,225.85Zm3.21,13.42A4.26,4.26,0,0,1,128,241a4,4,0,0,1-2.6-1c.73-3.79,1.34-11.67,1.45-13.08a2.7,2.7,0,0,1,1.19-.25,5.12,5.12,0,0,1,4.68,4.26C133.4,234.15,132.85,237.28,131.24,239.27Z"/><path class="cls-9" d="M120.89,226.39s-1.78,11.28-1.42,14.35c.72,1.64,5,2,6.79-.39,1.89-2.61,3.52-9.46,1.69-13.48C126.6,223.92,122.83,224.27,120.89,226.39Z"/><path class="cls-10" d="M120.89,226.39s-.94,5.94-1.31,10.37a5.22,5.22,0,0,0,5.77.94c1.76-.75,2.71-2.48,3.27-4.44a12.41,12.41,0,0,0-.67-6.39C126.6,223.92,122.83,224.27,120.89,226.39Z"/><path class="cls-12" d="M124.59,224.34a5.53,5.53,0,0,0-4,1.79l-.08.09,0,.11c-.07.46-1.78,11.37-1.42,14.46l0,.11c.41.93,1.76,1.56,3.37,1.56a5,5,0,0,0,4.1-1.88c2-2.75,3.59-9.78,1.72-13.87A3.92,3.92,0,0,0,124.59,224.34ZM126,240.12a4.25,4.25,0,0,1-3.47,1.56,3.07,3.07,0,0,1-2.63-1c-.3-2.91,1.22-12.86,1.41-14.07a4.82,4.82,0,0,1,3.33-1.45,3.15,3.15,0,0,1,3,1.92C129.34,230.88,127.83,237.52,126,240.12Z"/><path class="cls-9" d="M114.22,228.69s.3,6.27.79,13.25c7,3.17,8.34-10.41,7.64-14.58C121.82,222.41,116,221.37,114.22,228.69Z"/><path class="cls-10" d="M114.22,228.69s.18,3.7.48,8.58a4.87,4.87,0,0,0,5.16.43c1.42-.56,2-2.37,2.69-4.07a23,23,0,0,0,.1-6.27C121.82,222.41,116,221.37,114.22,228.69Z"/><path class="cls-12" d="M118.84,223c-2.3,0-4.17,2.08-5,5.57v.11c0,.06.3,6.35.79,13.26v.23l.22.1a5.32,5.32,0,0,0,2.14.5,4.17,4.17,0,0,0,3.24-1.63c2.78-3.28,3.31-10.89,2.81-13.87C122.62,224.79,120.89,223,118.84,223Zm.79,17.63a3.4,3.4,0,0,1-4.25,1c-.45-6.45-.73-12.31-.76-12.94.88-3.62,2.75-4.91,4.22-4.91,1.66,0,3.07,1.48,3.43,3.61C122.75,230.29,122.26,237.56,119.63,240.66Z"/><path class="cls-12" d="M77.64,168.13l-.66.43c1.26,1.93,4.52,2.72,4.52,2.72A11.83,11.83,0,0,1,77.64,168.13Z"/><path class="cls-3" d="M122.91,156.81c-4.73-3-10.07-2.11-14.09.86-7.45,13.08-7.8,26.9-9,38.1-1.18,11.39-4.21,27-11.47,33.17l23.73,5.92c.19-11.37,13.82-44.21,14.93-63.23a71.21,71.21,0,0,0,0-8.15A10.2,10.2,0,0,0,122.91,156.81Z"/><path class="cls-4" d="M126.65,140.11a25.17,25.17,0,0,0-1.23,7.64,41.06,41.06,0,0,0,.14,4.5c.13,2.08.34,4,.54,6a78.15,78.15,0,0,1,.56,13.37c-.6,10.32-4.93,24.8-8.74,37.58-3.18,10.63-5.93,19.86-6.18,25.18l-22.53-5.62c7.35-6.91,10.07-23.5,11-32.93.18-1.74.33-3.52.49-5.4.88-10.43,1.87-22.24,8.48-33.43a32.94,32.94,0,0,0-5.42,10.22,70.18,70.18,0,0,0-1.91,7.48A140,140,0,0,0,100,190.35c-.16,1.87-.31,3.65-.49,5.38-1,9.54-3.77,26.51-11.33,32.91l-.59.5,25,6.22v-.49c.09-5.13,2.9-14.55,6.16-25.47,3.83-12.82,8.16-27.35,8.77-37.75a79.66,79.66,0,0,0-.56-13.5A75,75,0,0,1,126.65,140.11Z"/><path class="cls-9" d="M86.45,230.14a14.69,14.69,0,0,0-1.68,9.13A3.72,3.72,0,0,0,91,241.53a33.83,33.83,0,0,0,3.23-13.64A5.57,5.57,0,0,0,86.45,230.14Z"/><path class="cls-10" d="M86.45,230.14a15.06,15.06,0,0,0-1.83,6.71,4.42,4.42,0,0,0,4.65,2,7.28,7.28,0,0,0,3.52-2.13,31.27,31.27,0,0,0,1.43-8.86A5.57,5.57,0,0,0,86.45,230.14Z"/><path class="cls-12" d="M94.61,227.66l-.19-.11a6,6,0,0,0-8.31,2.39,15.14,15.14,0,0,0-1.72,9.41,4.05,4.05,0,0,0,4,3.54h0a4.53,4.53,0,0,0,2.85-1.06l.07-.06,0-.08a34.26,34.26,0,0,0,3.27-13.81Zm-3.94,13.62a3.72,3.72,0,0,1-2.28.83h0a3.3,3.3,0,0,1-3.23-2.91,14.22,14.22,0,0,1,1.63-8.87,5.3,5.3,0,0,1,4.61-2.82,5.24,5.24,0,0,1,2.43.61A34.36,34.36,0,0,1,90.67,241.28Z"/><path class="cls-9" d="M91.76,229.21c-2.42,3.33-3.07,8.54-2.09,12.86s7.74,5,10.29,1.08a54.77,54.77,0,0,0,.29-13.35C98.62,226.27,94.18,225.88,91.76,229.21Z"/><path class="cls-10" d="M91.76,229.21a15.26,15.26,0,0,0-2.53,8.67,5.15,5.15,0,0,0,2.79,3,9.16,9.16,0,0,0,8.36-1.9,50.77,50.77,0,0,0-.13-9.14C98.62,226.27,94.18,225.88,91.76,229.21Z"/><path class="cls-12" d="M100.61,229.63A5.1,5.1,0,0,0,96,226.52,5.62,5.62,0,0,0,91.44,229c-2.35,3.23-3.21,8.53-2.16,13.17.62,2.73,3.29,3.95,5.66,3.95h0a6.32,6.32,0,0,0,5.35-2.74l0-.07v-.09a56,56,0,0,0,.29-13.46Zm-1,13.37a5.51,5.51,0,0,1-4.64,2.31h0c-2.06,0-4.37-1-4.89-3.33-1-4.44-.2-9.48,2-12.54A4.86,4.86,0,0,1,96,227.31a4.3,4.3,0,0,1,3.92,2.6A55,55,0,0,1,99.58,243Z"/><path class="cls-9" d="M99.32,230c-2.74,3.53-2.4,11.3-.48,14.36,1.63,2.6,7.82,3.09,10.48-1.55a94.3,94.3,0,0,0-1-12.22C106.38,227.61,101.92,226.62,99.32,230Z"/><path class="cls-10" d="M99.32,230c-1.64,2.11-2.17,5.72-1.93,8.95a4.07,4.07,0,0,0,3.26,3.5,10.58,10.58,0,0,0,8.53-2.75,82.29,82.29,0,0,0-.89-9.11C106.38,227.61,101.92,226.62,99.32,230Z"/><path class="cls-12" d="M108.68,230.48l0-.08,0-.06a6.26,6.26,0,0,0-5.18-2.87A5.57,5.57,0,0,0,99,229.72c-2.94,3.78-2.4,11.78-.51,14.8a5.56,5.56,0,0,0,4.73,2.15h0a7.33,7.33,0,0,0,6.43-3.7l.06-.1v-.11A97,97,0,0,0,108.68,230.48Zm-5.45,15.4a4.78,4.78,0,0,1-4.06-1.77c-1.74-2.78-2.25-10.43.46-13.91a4.71,4.71,0,0,1,3.81-1.95,5.47,5.47,0,0,1,4.48,2.45,98.44,98.44,0,0,1,1,12A6.56,6.56,0,0,1,103.23,245.88Z"/><path class="cls-9" d="M111.75,230.4c-2.18-1.91-4.84-1-6.16,2.83-1.27,3.67-1.27,10,1.68,11.94a4.63,4.63,0,0,0,7-2.07c7-4.27-.44-16.36-.83-18.07Z"/><path class="cls-10" d="M110.2,229.54c-1.78-.48-3.59.72-4.61,3.69a16.55,16.55,0,0,0-.66,7.27,2.29,2.29,0,0,0,1.21,1.13,3.85,3.85,0,0,0,5.7-1.72C113.15,236.69,112.56,231.15,110.2,229.54Z"/><path class="cls-12" d="M112.27,222.74a15.84,15.84,0,0,0,.77,1.91c1.94,4.41,6.48,14.74,1,18.11l-.12.07,0,.13a4.07,4.07,0,0,1-2.57,2.42,4.38,4.38,0,0,1-3.8-.54c-2.74-1.79-2.74-8-1.53-11.48a4.9,4.9,0,0,1,3.34-3.49,3.43,3.43,0,0,1,3.26,1.28s-1.26-2.5-3.41-2.05a5.68,5.68,0,0,0-3.93,4c-1.29,3.74-1.38,10.3,1.84,12.4a5.38,5.38,0,0,0,2.91.88,5,5,0,0,0,1.57-.25,4.83,4.83,0,0,0,3-2.77c4.43-2.84,2.91-9.55,1-14.66A55,55,0,0,0,112.27,222.74Z"/><path class="cls-12" d="M113.85,243l.74.25a6.86,6.86,0,0,0-.32-3.06A15.13,15.13,0,0,1,113.85,243Z"/><g class="cls-5"><path class="cls-6" d="M102.61,78.85c-2,.58.39,10.68,2.84,8.38S104.35,78.32,102.61,78.85Z"/></g><g class="cls-5"><path class="cls-6" d="M105.55,91.35c-1.23,2.05,2.15,5.19,3.13,3.87S106.57,89.63,105.55,91.35Z"/></g><g class="cls-5"><path class="cls-6" d="M100.94,95.07c-2.06,1-.34,6.27,1.81,5.88S103.1,94,100.94,95.07Z"/></g><g class="cls-5"><path class="cls-6" d="M107.65,99.14c-2.4.73-1.71,8.18,1.52,7.11S110.7,98.21,107.65,99.14Z"/></g><g class="cls-5"><path class="cls-6" d="M115.15,107c-1.37,1.37,1.43,6.42,1.92,4.51S116.66,105.48,115.15,107Z"/></g><g class="cls-5"><path class="cls-6" d="M117.51,115.56c-1.23.34-1.23,11.57.78,8.92S121.59,114.42,117.51,115.56Z"/></g><g class="cls-5"><path class="cls-6" d="M110.64,119.63c-2.1,0-2.15,5.44-.58,5.54S112.6,119.67,110.64,119.63Z"/></g><g class="cls-5"><path class="cls-6" d="M115.64,126.88c-2.79-.49-3.62,6.28-.73,6.52S118.76,127.43,115.64,126.88Z"/></g><g class="cls-5"><path class="cls-6" d="M116.85,139.63c-2.17,1.81.31,6.51,2.37,5S119.55,137.38,116.85,139.63Z"/></g><g class="cls-5"><path class="cls-6" d="M111.33,147.42c-2.25.44-1.67,6.66.79,5.93S114.13,146.87,111.33,147.42Z"/></g><g class="cls-5"><path class="cls-6" d="M116.78,153.66c-2,2.3,1.42,5.06,3,3.77C121.06,156.4,118.7,151.42,116.78,153.66Z"/><path class="cls-6" d="M122,162.07c-2.21.47-1.08,4.82.83,4.19S123.74,161.7,122,162.07Z"/><path class="cls-6" d="M120.15,170.37c-2.09.49-1.25,5.2,1.2,4.81S122.75,169.76,120.15,170.37Z"/><path class="cls-6" d="M117.38,182.78c-1.81,0-3,5.09-.6,5a1.77,1.77,0,0,0,1.34-.73c.21-.93.41-1.85.61-2.78C118.59,183.42,118.15,182.75,117.38,182.78Z"/><path class="cls-6" d="M115.91,194.12c-2.08.51-1,4.19.54,3.9C118.78,197.58,118.22,193.56,115.91,194.12Z"/><path class="cls-6" d="M110.83,203.7c-2.68,0-3.2,4.71-.46,4.59S113.41,203.7,110.83,203.7Z"/><path class="cls-6" d="M101.4,209.15c-2.1-.1-3.18,4.75-1,4.89S103.6,209.25,101.4,209.15Z"/><path class="cls-6" d="M104,215.13c-1.91-.3-3.36,4-.7,4.6S105.58,215.37,104,215.13Z"/><path class="cls-6" d="M108.55,185.28c-2-.95-6.53,5.56-2.68,7.2S111.4,186.66,108.55,185.28Z"/><path class="cls-6" d="M111.74,164.18c-2.87-.67-5.22,7.34-1.5,7.63S115.41,165,111.74,164.18Z"/></g><g class="cls-5"><path class="cls-6" d="M108.4,134.77c-3.1-.59-5.79,8.63-1.22,9.15S110.37,135.15,108.4,134.77Z"/></g><g class="cls-5"><path class="cls-6" d="M129.47,156.58c-1.9.12-2.44,7.8.91,7.14S132.53,156.4,129.47,156.58Z"/></g><g class="cls-5"><path class="cls-6" d="M131.17,167.19c-2.16.26-1.44,4.9.91,4.29S134.57,166.78,131.17,167.19Z"/></g><g class="cls-5"><path class="cls-6" d="M130.77,176.36c-3.09-.43-4.05,7.36-.91,7.57S134.66,176.91,130.77,176.36Z"/></g><path class="cls-12" d="M217.61,105.83a4.87,4.87,0,0,1,.55,0,4.53,4.53,0,0,1,1.2.13l.81.22-.36-.76c-.11-.25-2.7-5.77-7.72-7.08a7.31,7.31,0,0,1,1.3-1l.85-.53-1-.19a47,47,0,0,0-6.26-.8l.08,0,1.11-.52L207,95a12.27,12.27,0,0,0-2.23-.19,28.77,28.77,0,0,0-4.39.44c-1,.15-2.1.31-3.18.4l-.54,0,.21.5a19.35,19.35,0,0,1-.37,15.25,11.23,11.23,0,0,1-7.17,6.17l-.87.24.77.47c4.25,2.61,8,4.11,10.35,4.11a4.19,4.19,0,0,0,1-.1l.45-.1-.18-.43s-.21-.53-.5-1.11a29.92,29.92,0,0,0,7.23,1.24,6.33,6.33,0,0,0,2.63-.46l.52-.24-.41-.4s-.63-.6-1.27-1.18c2-.38,6.9-1.56,8.91-4.18l.36-.47-.58-.14s-.37-.1-.83-.27a12.61,12.61,0,0,0,1.49-.93,6.65,6.65,0,0,1,2.21-1.18l.42-.07-.11-.42A20.22,20.22,0,0,0,217.61,105.83Zm.3,7.16a6.37,6.37,0,0,1-2.19,1.15l-1.15.19,1,.55a9.29,9.29,0,0,0,1.3.54c-2.57,2.63-8.75,3.56-8.82,3.57l-.84.13.64.56c.45.39,1,.9,1.38,1.26a7.12,7.12,0,0,1-1.73.18,32.47,32.47,0,0,1-7.9-1.47l-1-.32.52.89a13.23,13.23,0,0,1,.71,1.4c-2,.15-5.49-1.16-9.52-3.54a12,12,0,0,0,6.82-6.31,20.18,20.18,0,0,0,.59-15.41c.92-.09,1.82-.23,2.7-.36a29.14,29.14,0,0,1,4.28-.43q.5,0,1,0l-.32.25-.93.75,1.2-.06a35,35,0,0,1,6.55.61A11.1,11.1,0,0,0,211,98.3l-.44.52.67.12c4,.7,6.6,4.53,7.49,6.11a5.22,5.22,0,0,0-.58,0,10.11,10.11,0,0,0-1.36.1l-.67.11.43.53a20.74,20.74,0,0,1,3.43,6A9.07,9.07,0,0,0,217.91,113Z"/><path class="cls-3" d="M128.91,11.91c-5.86-.9-9.75,5.76-19.07,5,0,0,7.28,13,13.45,18.3C131,36.52,134,28.91,134.37,24.45S134.52,12.76,128.91,11.91Z"/><path class="cls-4" d="M129,11.58a7.2,7.2,0,0,0-1.14-.09c-2.29,0-4.36,1.07-6.55,2.19-2.69,1.38-5.74,2.95-9.94,2.95-.48,0-1,0-1.46-.06l-.62-.06.3.55c.08.13,7.38,13.06,13.52,18.38l.07.06.09,0a11,11,0,0,0,1.77.16c6.91,0,9.36-7.33,9.7-11.21C135.36,16.82,133.32,12.24,129,11.58ZM134,24.42c-.32,3.66-2.61,10.6-9,10.6a9.42,9.42,0,0,1-1.56-.14c-5.34-4.66-11.57-15.14-13-17.61l.89,0c4.36,0,7.48-1.61,10.24-3,2.21-1.14,4.12-2.12,6.25-2.12a7.17,7.17,0,0,1,1,.08C134,13,134.48,19.29,134,24.42Z"/><path class="cls-13" d="M127.53,16.62c-3.29.28-6.28,5.29-13.66,5.73,0,0,2,6.84,7.27,9.48a8,8,0,0,0,9.54-4.57C132.33,23.48,131.39,16.29,127.53,16.62Z"/><path class="cls-14" d="M127.51,16.29c-1.39.12-2.7,1-4.21,2-2.27,1.53-5.08,3.44-9.45,3.7l-.42,0,.12.4c.08.28,2.14,7,7.44,9.68l.07,0a9.06,9.06,0,0,0,2.3.29,8.14,8.14,0,0,0,7.62-5c1.25-2.86,1-7.2-.45-9.48A3.19,3.19,0,0,0,127.51,16.29Zm2.86,10.83a7.48,7.48,0,0,1-7,4.66,8.88,8.88,0,0,1-2.1-.26c-4.31-2.2-6.42-7.4-6.94-8.87a18.52,18.52,0,0,0,9.35-3.78A9.11,9.11,0,0,1,127.56,17,2.53,2.53,0,0,1,130,18.27C131.34,20.36,131.52,24.49,130.37,27.12Z"/><path class="cls-3" d="M43.34,11.55c-5.69.36-9.06,7.05-6.47,14.71,2.32,6.88,8.6,9.82,14.25,8,5.78-7.6,8-17.69,8-17.69C49.65,18,48.5,11.22,43.34,11.55Z"/><path class="cls-4" d="M56.67,16.45c-3.85,0-6-1.6-7.93-3-1.63-1.22-3.17-2.36-5.42-2.21a7.58,7.58,0,0,0-5.88,3.48c-2,3-2.34,7.37-.89,11.67,1.8,5.32,6.22,8.76,11.26,8.76h0a11.34,11.34,0,0,0,3.41-.53l.1,0,.06-.09c5.76-7.57,8.06-17.72,8.08-17.82l.1-.47-.47.07A16,16,0,0,1,56.67,16.45ZM50.92,34a10.66,10.66,0,0,1-3.11.47h0c-4.82,0-8.9-3.19-10.63-8.31-1.39-4.11-1.09-8.26.81-11.09a6.94,6.94,0,0,1,5.38-3.19h.34c1.82,0,3.12,1,4.64,2.09,2,1.48,4.25,3.15,8.32,3.15a15.93,15.93,0,0,0,2-.13C58.18,19,55.85,27.47,50.92,34Z"/><path class="cls-13" d="M43.32,16.34c-3-.9-4.66,3.15-3.53,8.33a10.53,10.53,0,0,0,9.48,8,88.32,88.32,0,0,0,5.13-9.21C48.17,24.12,46.83,17.39,43.32,16.34Z"/><path class="cls-14" d="M53.55,23.17c-3.13,0-4.84-2.06-6.49-4.05-1.13-1.37-2.2-2.66-3.65-3.09a2.76,2.76,0,0,0-3.08.94c-1.24,1.55-1.57,4.52-.86,7.77A10.79,10.79,0,0,0,49.25,33h.19l.11-.16a89.49,89.49,0,0,0,5.14-9.25l.25-.53-.58.06A7.49,7.49,0,0,1,53.55,23.17ZM49.1,32.31a10.23,10.23,0,0,1-9-7.71c-.66-3.06-.38-5.82.74-7.21a2,2,0,0,1,1.64-.84,2.75,2.75,0,0,1,.73.11c1.26.37,2.27,1.59,3.33,2.88,1.72,2.07,3.68,4.42,7.3,4.28A89.34,89.34,0,0,1,49.1,32.31Z"/><path class="cls-3" d="M97.91,8.16c-7.32-1.44-13,1.09-18.19.83C74.93,8.74,68,6.6,60.84,11.82c-9.26,6.73-11.9,24.81-15.18,30.4C44.35,44.45,39,47.43,39,52A26.68,26.68,0,0,1,42.21,51s-4.57,7-.88,13A10.34,10.34,0,0,1,42.82,61s-1,7.22,4,10.25a9.37,9.37,0,0,1,.27-3.41C49.77,72,59.63,74.33,64.7,79.67c3.6,3.79,3.53,11.3,12.68,11.91s11.21-4.72,14.27-8c3.92-4.19,24.53-10.2,30.39-17.47a16.84,16.84,0,0,1,.18,3.34,10.75,10.75,0,0,0,4.46-9.92,11.52,11.52,0,0,1,2.77,2.94s2.36-5.65-.45-10.75a10.88,10.88,0,0,1,3.3,2c1.46-10.3-9-20.06-12.37-24.8S108.82,10.31,97.91,8.16Z"/><path class="cls-15" d="M63.05,19.75c-6.4,0-9.27,12.12-10,18,1.29,5.78,15.29,6.77,15.75,3S68.67,19.75,63.05,19.75Z"/><path class="cls-16" d="M55.15,28.55c3.87-7,6.76-7.36,10.47-7.33C65.29,18.07,57.78,17.41,55.15,28.55Z"/><path class="cls-17" d="M69.48,43.53C71,39.18,69.05,34.09,64.66,33c-6.17-1.51-10,4.65-11.6,4.75,1.18,2,.35,8.34,6.07,10.55a9.14,9.14,0,0,0,6.37-.4c-1.08,1.79-4.73,6-5.92,8.64-1.33,2.92-2.16,5.79-1.8,8.33,8.69-1.25,14.46-14.4,14.46-14.4l-6.46-1.56C68.07,48.09,68.65,45.86,69.48,43.53Z"/><path class="cls-4" d="M120.2,28.72c-.48-.67-1-1.51-1.69-2.49-3.86-5.77-11-16.52-20.54-18.4a24.51,24.51,0,0,0-4.74-.45,45.21,45.21,0,0,0-7.15.71,31.64,31.64,0,0,1-6.34.57c-.87-.05-1.81-.16-2.8-.27A43.5,43.5,0,0,0,71.84,8a18.13,18.13,0,0,0-11.19,3.55c-6.45,4.68-9.77,14.91-12.19,22.38a48.37,48.37,0,0,1-3.09,8.11,12.43,12.43,0,0,1-2.13,2.33c-2,1.94-4.57,4.35-4.61,7.56v.48l.45-.16a24.64,24.64,0,0,1,2.47-.76c-1,1.92-3.59,7.62-.5,12.64l.38.62.22-.7a10.43,10.43,0,0,1,.75-1.75c-.06,2.27.34,6.92,4.22,9.27l.57.34-.07-.66a10.36,10.36,0,0,1,.09-2.64c1.56,1.88,4.52,3.4,7.64,5,3.33,1.71,7.12,3.65,9.61,6.28A17.22,17.22,0,0,1,67,84c1.77,3.51,3.77,7.47,10.33,7.91.49,0,1,0,1.44,0h0c6.63,0,9.21-3.3,11.48-6.2.55-.7,1.06-1.35,1.62-2,1.59-1.71,6.1-3.75,11.32-6.12,7-3.17,14.89-6.75,18.59-10.79a18.65,18.65,0,0,1,.08,2.55l0,.62.53-.33A11.11,11.11,0,0,0,127,60.25a10.58,10.58,0,0,1,2.13,2.4l.33.56.26-.61a14,14,0,0,0-.07-10.21A10.25,10.25,0,0,1,132.08,54l.46.41.09-.61c1.21-8.53-5.49-16.59-9.93-21.92C121.7,30.63,120.83,29.59,120.2,28.72Zm11.85,24.35a10.87,10.87,0,0,0-3-1.65l-.81-.28.42.75c2.17,3.94,1.14,8.28.65,9.85a12.49,12.49,0,0,0-2.49-2.47l-.57-.41,0,.71a10.65,10.65,0,0,1-3.79,9.23,16.69,16.69,0,0,0-.19-2.74l-.13-.71-.46.56c-3.35,4.16-11.57,7.89-18.83,11.18-5.29,2.39-9.85,4.46-11.54,6.27-.57.61-1.1,1.28-1.65,2-2.18,2.79-4.65,6-11,6h0c-.45,0-.92,0-1.4,0-6.18-.41-8-4-9.78-7.54a17.23,17.23,0,0,0-2.68-4.26c-2.57-2.72-6.41-4.69-9.79-6.42s-6.51-3.34-7.81-5.33L47,67.14l-.23.63a8.37,8.37,0,0,0-.33,2.88c-4.15-3.06-3.28-9.49-3.27-9.56l.17-1.19-.76.94a9.22,9.22,0,0,0-1.29,2.34c-2.89-5.62,1.18-11.92,1.22-12l.43-.65-.77.15a24.25,24.25,0,0,0-2.83.78c.27-2.7,2.54-4.86,4.38-6.61a13.21,13.21,0,0,0,2.24-2.47,48.41,48.41,0,0,0,3.15-8.25c2.39-7.38,5.67-17.49,11.95-22a17.52,17.52,0,0,1,10.8-3.41,42.5,42.5,0,0,1,5,.37c1,.11,2,.22,2.84.27a32.84,32.84,0,0,0,6.48-.58,45.63,45.63,0,0,1,7-.7,24.21,24.21,0,0,1,4.62.44C107.08,10.3,114.16,20.91,118,26.6c.65,1,1.21,1.83,1.7,2.5.64.9,1.52,1.95,2.53,3.17C126.45,37.38,132.83,45,132.05,53.07Z"/><path class="cls-18" d="M64.12,34.55c-5-1.38-9.38,3.84-9.38,3.84s.26,7.09,4.89,8.87c4.13,1.6,8.13-.33,9.37-3.84A6.85,6.85,0,0,0,64.12,34.55Z"/><path d="M64.2,34.23A6.72,6.72,0,0,0,62.41,34c-4.31,0-7.77,4-7.92,4.19l-.08.09v.13c0,.3.33,7.33,5.1,9.17a8.53,8.53,0,0,0,3.07.59A7,7,0,0,0,68.91,38,7.44,7.44,0,0,0,64.2,34.23Zm4.49,9.08a6.34,6.34,0,0,1-6.11,4.19A7.85,7.85,0,0,1,59.75,47c-4-1.56-4.6-7.5-4.67-8.45.55-.61,3.68-3.86,7.33-3.86a5.92,5.92,0,0,1,1.62.22,6.76,6.76,0,0,1,4.29,3.38A6.38,6.38,0,0,1,68.69,43.31Z"/><path class="cls-19" d="M63.11,37a4.77,4.77,0,1,0,4.62,4.77A4.69,4.69,0,0,0,63.11,37Z"/><ellipse cx="63.11" cy="42.2" rx="3.21" ry="3.32"/><g class="cls-20"><path class="cls-18" d="M61.15,38.27A1.73,1.73,0,1,0,62.81,40,1.7,1.7,0,0,0,61.15,38.27Z"/></g><path class="cls-15" d="M93.43,21.14C87.81,22.62,87.74,38.86,88.92,45c2.22,11.48,18.25-1.39,21.4-7C110.43,32.45,100.31,19.32,93.43,21.14Z"/><path class="cls-10" d="M113.87,66.27c-12.74,4-23.7-5.61-23.7-5.61l-29.44.44c-9.53,7.82-15.73,3.36-17-3.17-.92-4.84.28-11.09,1.87-15.67C44.28,44.49,39,47.46,39,52A26.68,26.68,0,0,1,42.21,51s-4.57,7-.88,13A10.34,10.34,0,0,1,42.82,61s-1,7.22,4,10.25a9.37,9.37,0,0,1,.27-3.41C49.77,72,59.63,74.33,64.7,79.67c3.6,3.79,3.53,11.3,12.68,11.91s11.21-4.72,14.27-8c3.92-4.19,24.53-10.2,30.39-17.47a16.84,16.84,0,0,1,.18,3.34,10.75,10.75,0,0,0,4.46-9.92,11.52,11.52,0,0,1,2.77,2.94s2.36-5.65-.45-10.75a10.88,10.88,0,0,1,3.3,2c.64-4.49-1-8.89-3.3-12.8C129.79,53.68,122.5,63.58,113.87,66.27Z"/><path class="cls-12" d="M128.58,39.56l.09,1.37c.82,13.12-6.88,22.52-14.9,25a21,21,0,0,1-6.26,1c-9.57,0-17.05-6.43-17.13-6.49l-.09-.09-29.68.45-.09.07c-3.3,2.71-6.35,4.09-9.08,4.09-4.44,0-6.71-3.65-7.36-7.06-.92-4.84.36-11.18,1.86-15.5l1-3-1.63,2.68a13,13,0,0,1-2.11,2.29c-2,1.94-4.57,4.35-4.61,7.56v.48l.45-.16a24.64,24.64,0,0,1,2.47-.76c-1,1.92-3.59,7.62-.5,12.64l.38.62.22-.7a10.43,10.43,0,0,1,.75-1.75c-.06,2.27.34,6.92,4.22,9.27l.57.34-.07-.66a10.36,10.36,0,0,1,.09-2.64c1.56,1.88,4.52,3.4,7.64,5,3.33,1.71,7.12,3.65,9.61,6.28A17.22,17.22,0,0,1,67,84c1.77,3.51,3.77,7.47,10.33,7.91.49,0,1,0,1.44,0,6.63,0,9.21-3.3,11.48-6.2.55-.7,1.06-1.35,1.62-2,1.59-1.71,6.1-3.75,11.32-6.12,7-3.17,14.89-6.75,18.59-10.79a18.65,18.65,0,0,1,.08,2.55l0,.62.53-.33A11.11,11.11,0,0,0,127,60.25a10.58,10.58,0,0,1,2.13,2.4l.33.56.26-.61a14,14,0,0,0-.07-10.21A10.25,10.25,0,0,1,132.08,54l.46.41.09-.61c.57-4-.53-8.26-3.35-13Zm3.47,13.51a10.87,10.87,0,0,0-3-1.65l-.81-.28.42.75c2.17,3.94,1.14,8.28.65,9.85a12.49,12.49,0,0,0-2.49-2.47l-.57-.41,0,.71a10.65,10.65,0,0,1-3.79,9.23,16.69,16.69,0,0,0-.19-2.74l-.13-.71-.46.56c-3.35,4.16-11.57,7.89-18.83,11.18-5.29,2.39-9.85,4.46-11.54,6.27-.57.61-1.1,1.28-1.65,2-2.18,2.79-4.65,6-11,6-.45,0-.92,0-1.4,0-6.18-.41-8-4-9.78-7.54a17.23,17.23,0,0,0-2.68-4.26c-2.57-2.72-6.41-4.69-9.79-6.42s-6.51-3.34-7.81-5.33L47,67.14l-.23.63a8.37,8.37,0,0,0-.33,2.88c-4.15-3.06-3.28-9.49-3.27-9.56l.17-1.19-.76.94a9.22,9.22,0,0,0-1.29,2.34c-2.89-5.62,1.18-11.92,1.22-12l.43-.65-.77.15a24.25,24.25,0,0,0-2.83.78c.27-2.7,2.54-4.86,4.38-6.61l1.09-1.06C43.85,47,42.46,52.87,43.43,58c.89,4.69,4,7.6,8,7.6,2.86,0,6-1.4,9.41-4.16L90.05,61c.93.77,8.24,6.57,17.46,6.57a21.6,21.6,0,0,0,6.45-1c8-2.49,15.66-11.57,15.42-24.32C131.5,46.18,132.37,49.73,132.05,53.07Z"/><path class="cls-21" d="M64.1,72.51C67.24,76.26,68,80.55,70,83s9.37,2.42,12.85.44c3.28-1.88,3.25-5.57,7.93-13.45C90.77,70,70.93,69.75,64.1,72.51Z"/><path class="cls-22" d="M79.43,76c-2.7-1.63-7.62-.84-10.66,5.08A11.18,11.18,0,0,0,70,83c2,2.41,9.37,2.42,12.85.44,2.21-1.27,2.92-3.36,4.59-7C86,74.63,82.28,74.39,79.43,76Z"/><path class="cls-23" d="M83.51,74.58a9,9,0,0,0-4.07,1,5.86,5.86,0,0,0-2.82-.69c-3.17,0-6.21,2.24-8.14,6L68.4,81l.08.15A8.25,8.25,0,0,0,69.86,83c1,1.25,2.82,1.9,5.87,1.9l.57.15a13.4,13.4,0,0,0,6.54-1.58c2-1.16,2.65-2.76,4-5.7.18-.41.42-.87.63-1.32l.09-.12.17-.08A5.25,5.25,0,0,0,83.51,74.58Zm3.16,3.22c-1.27,2.82-2.12,4.62-4,5.68a14.25,14.25,0,0,1-6.53,1.31c-2.82,0-5.29-.73-6.18-1.81a14.69,14.69,0,0,1-.84-2c1.81-3.44,4.6-5.49,7.47-5.49a5,5,0,0,1,2.64.7l.16.09.17-.09a8.33,8.33,0,0,1,3.92-1A4.83,4.83,0,0,1,87,76.46C86.87,76.84,86.82,77.45,86.67,77.8Z"/><path class="cls-23" d="M77.28,78.61a7.59,7.59,0,0,1,2.31-2.37l-.31-.58A5.25,5.25,0,0,0,77.28,78.61Z"/><path class="cls-18" d="M81.31,78.43c-.48.09-1.36,1.85-1,5.94a10.09,10.09,0,0,0,2.49-1,6,6,0,0,0,1.61-1.34C83.55,81.2,82,78.31,81.31,78.43Z"/><path class="cls-24" d="M81.36,78.1h-.11c-.88.16-1.61,2.41-1.22,6.29v.13l.31-.16A10.59,10.59,0,0,0,83,83.27,5.49,5.49,0,0,0,84.64,82v-.19a12.85,12.85,0,0,1-1.13-1.5C82.55,78.94,81.94,78.1,81.36,78.1Zm1.31,5a9,9,0,0,1-2,.82c-.32-3.83.55-5.12.7-5.19.3,0,1.13,1.23,1.62,1.94.37.53.72,1,1,1.39A5.37,5.37,0,0,1,82.67,83.13Z"/><path class="cls-25" d="M84.66,81.72v.1l0,0Z"/><path class="cls-18" d="M72.82,79.4C72,79.24,70.58,81.87,70,83h0c.84,1,2.66,1.62,4.75,1.81C73.9,82.2,73.33,79.51,72.82,79.4Z"/><path class="cls-24" d="M72.88,79.08c-.75-.16-1.69.94-3.19,3.73L70,83c.84,1,1.94,1.33,4.3,1.55l.45.26.31-.11c-.25-.77-.48-1.56-.68-2.27C73.7,80.12,73.41,79.19,72.88,79.08Zm-2.49,3.84c1.53-2.83,2.15-3.17,2.34-3.19a13.49,13.49,0,0,1,1,2.87c.16.56.34,1.18.54,1.8A6.68,6.68,0,0,1,70.39,82.92Z"/><path class="cls-26" d="M89.73,69.64c-4.55,0-19.86.18-25.76,2.56l-.42.17.29.35A25.78,25.78,0,0,1,67.47,79c.71,1.57,1.32,3.81,2.22,4.91s3.23,2.39,6.28,2.39a17.15,17.15,0,0,0,7.36-1.55c2-1.17,2.5-4,3.82-7a68.45,68.45,0,0,1,3.91-7.68l.29-.49H89.73Zm-3.18,7.91c-1.26,2.82-2,4.53-3.88,5.58a13.71,13.71,0,0,1-6.43,1.39c-2.81,0-5.11-.67-6-1.75a18.08,18.08,0,0,1-2.17-4,27.65,27.65,0,0,0-3.44-6.12c6.07-2.18,20.67-2.35,25.09-2.35h.47A68,68,0,0,0,86.55,77.55Z"/><path class="cls-17" d="M95.57,32.87c-5.36,1.82-7.33,9.13-6,14.11-2.59,10.49,2.08,10.93,2,16.21V70a7.42,7.42,0,0,0,2.53-9.89c-1.3-2.54-4.48-6.13-3.6-11.23.21-.72,3.37,3.45,10.35,1.34,6.24-1.89,7.15-9.39,9.49-12.2C107.43,37.72,103.08,30.33,95.57,32.87Z"/><path class="cls-18" d="M96.08,33.93a8.26,8.26,0,0,0-5.81,10c1.27,4.67,6,6.47,10.46,4.93,5-1.72,7.51-10.07,7.51-10.07S102.24,32.11,96.08,33.93Z"/><path d="M98.29,33.29a8,8,0,0,0-2.3.33A8.53,8.53,0,0,0,90,44a7.59,7.59,0,0,0,7.65,5.71,10,10,0,0,0,3.22-.55c5.09-1.76,7.62-10,7.73-10.3l0-.18-.12-.14C108.3,38.34,103.68,33.29,98.29,33.29Zm2.33,15.25a9.08,9.08,0,0,1-3,.52,7,7,0,0,1-7-5.22,7.89,7.89,0,0,1,5.59-9.59,7.37,7.37,0,0,1,2.11-.3c4.61,0,8.8,4.1,9.58,4.91C107.47,40.08,105,47,100.62,48.54Z"/><path class="cls-19" d="M99.15,35.73a5.94,5.94,0,1,0,5.59,5.93A5.76,5.76,0,0,0,99.15,35.73Z"/><path class="cls-19" d="M99.15,35.4a6.27,6.27,0,1,0,5.92,6.26A6.1,6.1,0,0,0,99.15,35.4Z"/><path d="M99.15,38.2a4,4,0,1,0,3.79,4A3.91,3.91,0,0,0,99.15,38.2Z"/><g class="cls-20"><path class="cls-18" d="M96.37,38.21a2.14,2.14,0,1,0,2,2.13A2.07,2.07,0,0,0,96.37,38.21Z"/></g><path class="cls-10" d="M79.43,56.52s-10.37.91-16.91,1.41c-4.82,2-5.43,8.34-3.33,11.77,2.67,4.35,9.78,5.43,14.17,1.71,0,0,6.66,3.75,14.07,1.65,5.84-1.65,7-7.17,5.27-11.41S86.8,55,79.43,56.52Z"/><path class="cls-12" d="M83.6,55.72a20.38,20.38,0,0,0-4.22.48c-.51,0-10.56.92-16.88,1.4h0l-.05,0a7.49,7.49,0,0,0-4.23,4.72A8.69,8.69,0,0,0,67,74a10.12,10.12,0,0,0,6.39-2.2A21.31,21.31,0,0,0,82.74,74a17.57,17.57,0,0,0,4.78-.65,8.27,8.27,0,0,0,5.39-4.26,9.47,9.47,0,0,0,.1-7.59C91.48,57.73,88.23,55.72,83.6,55.72Zm8.72,13.11a7.62,7.62,0,0,1-5,3.91,17.08,17.08,0,0,1-4.6.62,20.82,20.82,0,0,1-9.22-2.24l-.2-.12-.18.15A9.47,9.47,0,0,1,67,73.34a8.73,8.73,0,0,1-7.53-3.82,8.72,8.72,0,0,1-.67-7,6.8,6.8,0,0,1,3.8-4.3c6.47-.49,16.76-1.39,16.86-1.4h0a19.87,19.87,0,0,1,4.1-.46c4.33,0,7.38,1.86,8.79,5.38A8.82,8.82,0,0,1,92.32,68.83Z"/><polygon class="cls-6" points="47.39 38.17 47.4 38.17 47.39 38.17 47.39 38.17"/><path class="cls-3" d="M72.81,38.27l-4-2.77c1.25,11.66-7.32,16.34-7.26,22.9,7.73,4.35,9.55,4.24,9.55,4.24l10.2-3.58A9.58,9.58,0,0,0,79,50.52Z"/><path class="cls-3" d="M76,43s-5.39-2.63-7.56,1.4C66.83,47.33,61.55,55,61.93,58.2s10.43,4.36,10.43,4.36l9.31-3.43S83.33,48.82,76,43Z"/><path class="cls-4" d="M80.68,49.67c.38,2,1.38,4.33.38,9.14l-10,3.5c-.31,0-2.38-.3-9.17-4.11,0-2.52,1.46-4.78,3.09-7.39.75-1.2,1.53-2.46,2.23-3.81a20.23,20.23,0,0,0,1.83-4.73,12.84,12.84,0,0,0-.22-6.77c.72,6.76-2,11.12-4.4,15-1.73,2.76-3.22,5.15-3.19,7.94v.19l.17.09C68.8,62.83,70.9,63,71.15,63h0l10.46-3.66,0-.18a13.53,13.53,0,0,0,.08-5.69C81.1,51,80.68,49.67,80.68,49.67Z"/><path class="cls-27" d="M79.18,56.9c-3.75.64-6.53,3.3-8.1,3.18s-3.67-1.39-6.78-2.69C61,56,60.15,60.11,62.86,62.5,64.61,64.06,69.61,67,72,67a16.49,16.49,0,0,0,8.47-4.09C83,60.27,82.64,56.3,79.18,56.9Z"/><path class="cls-28" d="M79.13,56.57a17.35,17.35,0,0,0-5.33,2.11,7.3,7.3,0,0,1-2.61,1.07h-.08a13.77,13.77,0,0,1-3.94-1.44c-.81-.38-1.73-.8-2.74-1.22-1.54-.65-2.85-.2-3.33,1.06a4.38,4.38,0,0,0,1.54,4.6c1.8,1.6,6.86,4.56,9.31,4.56h0c1.61,0,6.29-1.73,8.71-4.19,1.53-1.55,2.17-3.67,1.55-5.15A2.58,2.58,0,0,0,79.13,56.57Zm1.06,6.09a16.26,16.26,0,0,1-8.24,4c-2.27,0-7.18-2.89-8.87-4.39a3.78,3.78,0,0,1-1.36-3.88,1.38,1.38,0,0,1,1.35-.94,2.87,2.87,0,0,1,1.1.26c1,.42,1.92.84,2.72,1.21a14,14,0,0,0,4.17,1.5h.13a7.25,7.25,0,0,0,2.92-1.15,16.77,16.77,0,0,1,5.13-2,2,2,0,0,1,2.36,1A4.48,4.48,0,0,1,80.19,62.66Z"/><path class="cls-28" d="M71.41,60.13,70.76,60c0,.17-.67,4.12.9,7.11l.58-.3C70.78,64,71.4,60.17,71.41,60.13Z"/><path class="cls-29" d="M75.92,61.91c-1.17,1.16-1.68,3.44-1.88,4.62a18.19,18.19,0,0,0,5.64-3C79.13,60.81,77,60.8,75.92,61.91Z"/><path class="cls-30" d="M64,63.38a28.46,28.46,0,0,0,5.21,2.89C67.73,62,65.08,60.74,64,63.38Z"/><path class="cls-28" d="M77.5,60.89a2.63,2.63,0,0,0-1.82.78c-1.22,1.23-1.76,3.54-2,4.81l-.09.54.52-.17a18.46,18.46,0,0,0,5.75-3l.15-.13,0-.19C79.68,61.86,78.74,60.89,77.5,60.89Zm-3,5.15a8.08,8.08,0,0,1,1.68-3.9,2,2,0,0,1,1.35-.59c.87,0,1.52.68,1.81,1.88A18.23,18.23,0,0,1,74.47,66Z"/><path class="cls-28" d="M65.6,61.68a2.16,2.16,0,0,0-1.92,1.57l-.1.25.21.15a29.05,29.05,0,0,0,5.27,2.93l.68.27-.24-.69C68.57,63.44,67,61.68,65.6,61.68Zm-1.2,1.59a1.42,1.42,0,0,1,1.2-.93c.85,0,2.07,1,3,3.32A29.34,29.34,0,0,1,64.4,63.27Z"/><path class="cls-16" d="M91.05,22.94c3.16-1.33,6.88-.81,14.84,5.53C97.15,17.93,91.3,19.77,91.05,22.94Z"/><path class="cls-31" d="M85.38,62.93a.32.32,0,0,0-.15.4.38.38,0,0,0,.36.23c8.09-2.73,19.64,3,19.75,3a27.71,27.71,0,0,0-8.5-3.66C93.2,62.07,89,61.71,85.38,62.93Z"/><path class="cls-31" d="M96.09,69.23a27,27,0,0,0-12.43-3.29s-.21,0-.19.33.19.33.19.33h.12c11,0,20,8.81,20.1,8.9A25.31,25.31,0,0,0,96.09,69.23Z"/><path class="cls-31" d="M91.1,72.34a18.92,18.92,0,0,0-9.47-3.74s-.25.11-.25.32a.41.41,0,0,0,.19.33c9.28.86,14.66,9.27,14.71,9.36A16.62,16.62,0,0,0,91.1,72.34Z"/><path class="cls-31" d="M45.44,70.22a31.24,31.24,0,0,0-7.36,5c.14-.1,14.88-10.25,25.36-7.88a.29.29,0,0,0,.24-.32c0-.28-.09-.32-.09-.32C57.7,65.32,50.68,67.71,45.44,70.22Z"/><path class="cls-31" d="M46.83,80.87c.09-.11,8.78-11.12,18.84-11.12a.41.41,0,0,0,.14-.33.39.39,0,0,0-.14-.33c-4.55,0-8.82,2.17-12.18,4.61A26.19,26.19,0,0,0,46.83,80.87Z"/><path class="cls-31" d="M61.38,75.31a22.34,22.34,0,0,0-3.6,6.93c0-.1,4.54-9.5,9.31-10.27a1,1,0,0,0,.13-.4c0-.16-.24-.25-.24-.25C64.94,71.65,63,73.35,61.38,75.31Z"/><g class="cls-5"><path class="cls-6" d="M115.57,44c-2.2,1.23,1.1,7.36,2.86,5.59S117.56,42.86,115.57,44Z"/></g><g class="cls-5"><path class="cls-6" d="M112.26,25.59c-2.2,1.23,1.1,7.36,2.87,5.59S114.25,24.48,112.26,25.59Z"/></g><g class="cls-5"><path class="cls-6" d="M118.39,35.85c-1.49,2,2.31,5.08,3.08,3.42S119.86,33.88,118.39,35.85Z"/></g><g class="cls-5"><path class="cls-6" d="M124.89,42.22c-2.26.36-1.49,7.08.72,6.09S127.5,41.81,124.89,42.22Z"/></g><g class="cls-5"><path class="cls-6" d="M122.63,51.84c-2.21-.55-3.36,4.24-2.09,5.35S124.91,52.41,122.63,51.84Z"/></g><g class="cls-5"><path class="cls-6" d="M117.91,58.12c-1-.77-5,2.76-2.45,4.08S119.9,59.62,117.91,58.12Z"/></g><path class="cls-6" d="M114.7,60.52a13.48,13.48,0,0,0,1.74-2.1A4.21,4.21,0,0,0,114.7,60.52Z"/><g class="cls-5"><path class="cls-6" d="M111.89,52.68c-1.43-.66-2.37,2-1.23,2.93S113.33,53.35,111.89,52.68Z"/></g><g class="cls-5"><path class="cls-6" d="M109.94,61.13c-.89-.27-3.09.61-1.49,1.77S111.53,61.63,109.94,61.13Z"/></g><g class="cls-5"><path class="cls-6" d="M102.29,58.84c.72,1,3,.56,2.21-1.21C103.83,56.14,101.57,57.85,102.29,58.84Z"/></g><g class="cls-5"><path class="cls-6" d="M100.53,13.81c-1.55,1.38,1,5.4,2.7,4.13S102.24,12.28,100.53,13.81Z"/></g><g class="cls-5"><path class="cls-6" d="M84.43,14.86c.89,2.48,6.35,1.43,5.63-1.37C89.56,11.57,83.55,12.38,84.43,14.86Z"/></g><g class="cls-5"><path class="cls-6" d="M82.34,24.64c-2.21-1.08-2.81,3.22-1.1,3.83S84.6,25.74,82.34,24.64Z"/></g><g class="cls-5"><path class="cls-6" d="M78.87,35.19c-1.93-.93-2.65,2.32-1.11,3S80.74,36.1,78.87,35.19Z"/></g><g class="cls-5"><path class="cls-6" d="M72.81,29.9c-1.76-.16-2.16,4.47,0,4.47S74.92,30.1,72.81,29.9Z"/></g><g class="cls-5"><path class="cls-6" d="M75.72,19.76c-1.93-.27-3,4.36-1.1,4.88S78.09,20.1,75.72,19.76Z"/></g><g class="cls-5"><path class="cls-6" d="M75.67,13.49c1.32,2,6,.34,4.91-2S74.35,11.49,75.67,13.49Z"/></g><g class="cls-5"><path class="cls-6" d="M66.08,12.48c-.17,2.54,6.06,2.37,5.68,0S66.25,9.94,66.08,12.48Z"/></g><g class="cls-5"><path class="cls-6" d="M49.71,38.17c-1.71,0-2.26,4.13,0,4.41S52.08,38.09,49.71,38.17Z"/></g><g class="cls-5"><path class="cls-6" d="M50.54,48.75c-1.16,1,.55,3.81,1.6,2.85S51.74,47.66,50.54,48.75Z"/></g><g class="cls-5"><path class="cls-6" d="M52.74,57.3c-2.64-.5-2.92,3.63-.83,4.61S55.22,57.76,52.74,57.3Z"/></g><g class="cls-5"><path class="cls-6" d="M46.29,55.36c-2.42.22-1,5.41.62,5.3S49.05,55.12,46.29,55.36Z"/></g><path class="cls-12" d="M73.11,67.6a4.11,4.11,0,0,0,0,4l.57-.33A5.2,5.2,0,0,1,73.11,67.6Z"/></g></g></svg>