<svg xmlns="http://www.w3.org/2000/svg" viewBox="0 0 90 50"><defs><style>.cls-1{isolation:isolate;}.cls-2{fill:#0f3f54;}.cls-3{fill:#cbcbcb;}.cls-4{fill:#d6d6d6;mix-blend-mode:screen;}.cls-5{fill:#01568c;}.cls-6{fill:#1d4959;}</style></defs><g class="cls-1"><g id="Layer_1" data-name="Layer 1"><path class="cls-2" d="M2.79,33.36c9.38,7,26.48,13.39,48.09,10S71.66,23,87.28,16.87C66.66-3.84,6.07,5.79,2.79,33.36Z"/><path class="cls-3" d="M60.34,28.21c0,7.3-6.7,13.21-15,13.21s-15-5.91-15-13.21S37.1,15,45.37,15,60.34,20.92,60.34,28.21Z"/><path d="M53.84,28c0,4.06-3.89,7.35-8.68,7.35S36.5,32.08,36.5,28s3.88-7.35,8.66-7.35S53.84,24,53.84,28Z"/><ellipse class="cls-4" cx="41.07" cy="24.67" rx="3.26" ry="3.13"/><path class="cls-4" d="M50.88,31.43a1.63,1.63,0,1,1-1.63-1.56A1.6,1.6,0,0,1,50.88,31.43Z"/><path class="cls-5" d="M2.79,33.36s9.28,4.46,17.4,3.13a60.11,60.11,0,0,0,23.73-9.62c6-4,14.81-5.55,22.24-7.94C74.1,16.37,83,15.8,87.28,17.13,85.1,11.51,56.47,2.65,35.83,7.92S1.59,26.12,2.79,33.36Z"/><path class="cls-6" d="M2.72,33.17c11.27,3.84,24.2,2.32,33-4s39.7-17.91,51.19-12C74.8.48,9.69.93,2.72,33.17Z"/></g></g></svg>