<svg id="Layer_1" data-name="Layer 1" xmlns="http://www.w3.org/2000/svg" viewBox="0 0 300 256"><defs><style>.cls-1{opacity:0.3;}.cls-2{fill:#29292b;}.cls-3{fill:#e3e3e3;}.cls-4{fill:#f4f4f6;}.cls-5{fill:#bcbcbc;}.cls-6{fill:#2e2e2e;}.cls-7{fill:#222;}.cls-8{fill:#121212;}.cls-9{fill:#3b3b3b;}.cls-10{fill:#fff;}.cls-11{fill:#171718;}.cls-12{fill:#19191b;}.cls-13{fill:#3d3d3d;}</style></defs><ellipse class="cls-1" cx="150" cy="227.45" rx="150" ry="21.45"/><path class="cls-2" d="M36.52,82.68a22.61,22.61,0,0,0-1.62,4.43s0,0-.08,0a30.45,30.45,0,0,0-1.25,9c.15,6.15,4.24,14,8.25,16a3.66,3.66,0,0,0,1.54.32,4.26,4.26,0,0,0,3.25-1.46,25.65,25.65,0,0,1,1.58-4.66,22.69,22.69,0,0,0,.9-15c-2.06-6-4.87-13.22-8.36-12.94-.95.08-1.63.57-2.82,2A17.16,17.16,0,0,0,36.52,82.68Zm3.31,9.57c.7-2.19,1.94-3.61,3.16-3.61h.12c3.83.29,6,5.52,5.94,8.16a2.9,2.9,0,0,1-1.73,2.28,6.37,6.37,0,0,1-3,.7A6.48,6.48,0,0,1,41,98.86C39.1,97.73,39.07,94.64,39.83,92.25Z"/><path class="cls-3" d="M135.73,85.46c-1.11-8.61-5.7-21.33-13.45-30.34-7.48-8.69-17.08-17.19-24.47-21.66a16.09,16.09,0,0,1-1.33-1c-4-1.1-11,0-12.34-5.3l-.28.11-.37-.07a53.13,53.13,0,0,0-10.18-1,41.45,41.45,0,0,0-12.6,1.8c-10.7,3.43-18.94,8.72-27,24.51-5.89,11.6-8.52,19.81-6.57,32.52,2.06,13.43,1.93,15.09,1.65,18.41-.08,1-.17,2.07-.22,3.67-.29,9.61,2.37,17.88,7.29,22.7,3.7,3.62,14.91,8,19.56,9.67l.16-.32a42.82,42.82,0,0,1-4.43-3.53c-2.91-2.74-5-11.47-5.53-14.31a28,28,0,0,1,.75-9.59l.1-.48-.39.29a4.35,4.35,0,0,1-2.49,1h-.14a4.07,4.07,0,0,1-1.7-.45c-4.12-1.94-8.15-9.73-8.31-16a29.34,29.34,0,0,1,1.32-9h0a26.07,26.07,0,0,1,1.78-4.58,20.11,20.11,0,0,1,1.9-2.86h0A2.94,2.94,0,0,1,41,78.27c2.67.21,5.48,4.54,8.36,12.91a22.71,22.71,0,0,1-.91,15.22c-1.87,3.9-3.14,11.43-2.51,14.93s2.8,11.66,5.44,14.14c2.83,2.66,8.1,6.22,9.71,6.22h0c1.18-.12,4.44-3.63,6-5.47l.1-.11-.09-.11a4.57,4.57,0,0,1-.65-1.18l-.06-.17-.16.06a7.89,7.89,0,0,1-2.41.33,28.76,28.76,0,0,1-12.61-3.81,6,6,0,0,1-1.76-3.84,5.43,5.43,0,0,1,.78-4c.7-.88,2.13-1,3.78-1h1.68a20.4,20.4,0,0,0,5.75-.67,21.46,21.46,0,0,0,6.61-3.35c1.4-1,2.61-1.81,4-1.81a4.71,4.71,0,0,1,3.52,1.84,5.47,5.47,0,0,1,1.2,4.39c-.58,3-6.7,10.12-10.08,11.65l-.15.07.06.16a4.61,4.61,0,0,0,.69,1.25l0,.06h.06a62.74,62.74,0,0,0,10.32,1.31,9.21,9.21,0,0,0,2.55-.28c3.34-1.06,6.53-5.82,7.76-8.57a18.62,18.62,0,0,0,1-3.36,22.66,22.66,0,0,1,4.42-10l.21-.25-.33,0a16.81,16.81,0,0,0-2.13-.14h-.14a8.58,8.58,0,0,1,1.66-.17,6.8,6.8,0,0,1,3.7,1,17.88,17.88,0,0,0-2-.53l-.11,0-.06.08a26,26,0,0,0-4.91,10.1,19.92,19.92,0,0,1-1,3.43c-1.25,2.79-4.52,7.64-8,8.73a9.62,9.62,0,0,1-2.67.29,61.43,61.43,0,0,1-10.23-1.28l-.1,0-.07.08a34,34,0,0,1-5.19,5.1l-.16.11.11.15a10.52,10.52,0,0,0,3.58,2.62,9.13,9.13,0,0,0,3.63.63c3.61,0,9-1.42,12.28-4.54,4-3.81,6.35-4.56,11.23-5.89a34.16,34.16,0,0,1,6.3-.9,29.65,29.65,0,0,0,9.46-1.84c5.79-2.37,16.57-11.77,19.52-16.35C131.24,110.64,136.78,93.6,135.73,85.46Z"/><path class="cls-4" d="M66.33,28.25S26.79,38.83,28.92,85.06C28.92,85.06,33.23,44.16,66.33,28.25Z"/><path class="cls-5" d="M109.41,42.18a86.59,86.59,0,0,0-11.6-8.72,16.09,16.09,0,0,1-1.33-1c-3.72-1-12.37-.2-14.36-4.24C84.17,35,97,42.34,109.41,42.18Z"/><path class="cls-5" d="M67.11,136.22l.1-.11-.09-.11a4.57,4.57,0,0,1-.65-1.18l-.06-.17-.16.06a7.89,7.89,0,0,1-2.41.33,29.11,29.11,0,0,1-12.37-3.65c3,3.18,7.92,4.32,12.1,4.64-1.6,4.84-7.09,3-10.78.65,2.91,2.41,7,5,8.33,5h0C62.3,141.57,65.56,138.06,67.11,136.22Z"/><path class="cls-5" d="M47.75,129.12c-8.57-1.56-15.18-5.9-18.83-15.14.84,6.66,3.26,12.27,7,15.9s14.91,8,19.56,9.67l.16-.32a42.82,42.82,0,0,1-4.43-3.53C50,134.58,48.62,131.43,47.75,129.12Z"/><path class="cls-5" d="M135.73,85.46c-1.11-8.61-5.7-21.33-13.45-30.34q-1.92-2.22-4-4.4C129,67.42,130.12,76.93,130,85.06c-.15,10.23-4,18.21-12.25,27.32-9.62,10.57-15.56,9.61-17.71,6s-3.53-6.07-7.83-5.3a5.86,5.86,0,0,0-4.14,2.68s3.59-.4,2.86,1.14c-1.44,3-3.5,6.83-3.88,8.73a13.44,13.44,0,0,1-6,8.61c-2.79,1.86-7.75.75-10.58-.63,2.32-2.32,6.17-7.29,6.27-10.65,0-.1-.15-.12-.17,0-.74,3.74-4.53,7.11-6.3,9a14.75,14.75,0,0,1-3.57,2.63l-.15.07.06.16a4.61,4.61,0,0,0,.69,1.25l0,.06h.06a62.74,62.74,0,0,0,10.32,1.31,9.21,9.21,0,0,0,2.55-.28c3.34-1.06,6.53-5.82,7.76-8.57a18.62,18.62,0,0,0,1-3.36,22.66,22.66,0,0,1,4.42-10l.21-.25-.33,0a16.81,16.81,0,0,0-2.13-.14h-.14a8.58,8.58,0,0,1,1.66-.17,6.8,6.8,0,0,1,3.7,1,17.88,17.88,0,0,0-2-.53l-.11,0-.06.08a26,26,0,0,0-4.91,10.1,19.92,19.92,0,0,1-1,3.43c-1.25,2.79-4.52,7.64-8,8.73a9.62,9.62,0,0,1-2.67.29,61.43,61.43,0,0,1-10.23-1.28l-.1,0-.07.08a34,34,0,0,1-5.19,5.1l-.16.11.11.15a10.52,10.52,0,0,0,3.58,2.62,9.13,9.13,0,0,0,3.63.63c3.61,0,9-1.42,12.28-4.54,4-3.81,6.35-4.56,11.23-5.89a34.16,34.16,0,0,1,6.3-.9,29.65,29.65,0,0,0,9.46-1.84c5.79-2.37,16.57-11.77,19.52-16.35C131.24,110.64,136.78,93.6,135.73,85.46Z"/><path class="cls-6" d="M96.7,32.59c3.09-4.54,3.23-11.07,2.77-15.66h0l.24.06c4.12,1,7,3,8.55,6,1.75,3.4,1.24,10.57-3.57,14.51l-.18.15.18.14c.88.67,1.82,1.44,2.81,2.26l.13-.12.05.12c4.45-2,7.32-4.89,8.54-8.65,1.37-4.23.54-9.43-2.28-14.28-3.58-6.14-8.2-9.38-13.74-9.63l-.74,0c-4.41,0-7.32,1.78-9.74,5.93a14.61,14.61,0,0,0-1.92,7.23v.19a10.8,10.8,0,0,1-.33,2.5c-.57,1.91-2.74,3.66-5.34,4.91.92,4.48,8.42,3.66,12.52,4.06C95.42,32.39,96.06,32.47,96.7,32.59Z"/><path class="cls-3" d="M36,83.94a1.42,1.42,0,0,0-.08.18A1.42,1.42,0,0,1,36,83.94Z"/><path class="cls-3" d="M39.53,78.74l.13-.08A1.48,1.48,0,0,0,39.53,78.74Z"/><path class="cls-7" d="M108.15,23.2a12,12,0,0,0-8.38-5.93l-.25-.05,0,.26c.71,4.36.43,10.58-2.46,15l-.11.17.17.09a60.47,60.47,0,0,1,7.11,4.77l.12.09.11-.09C109.25,33.68,109.84,26.37,108.15,23.2Z"/><path class="cls-8" d="M76.49,122.81a5.14,5.14,0,0,0-1.13-4.12A4.41,4.41,0,0,0,72.08,117H72c-1.2,0-2.25.73-3.59,1.65l-.14.1a21.91,21.91,0,0,1-6.7,3.4,20.56,20.56,0,0,1-5.8.68H54c-1.49,0-2.87.06-3.49.83a5.11,5.11,0,0,0-.71,3.74A5.85,5.85,0,0,0,51.42,131a28.36,28.36,0,0,0,12.41,3.75h0a6.82,6.82,0,0,0,2.67-.45C70,132.78,76,125.57,76.49,122.81Z"/><path class="cls-7" d="M30.06,39.21a38.52,38.52,0,0,1-.74-4.83l-.22.38c-4,4.64-3.83,10.52-3.68,12.2C25.74,50.5,29,53.71,32,55.05l.16.07.07-.15c.4-.83.82-1.67,1.26-2.53.64-1.27,1.32-2.53,2-3.74l.07-.12-.09-.09A20.7,20.7,0,0,1,30.06,39.21Z"/><path class="cls-6" d="M42.94,38.18a20.73,20.73,0,0,1-4.4-5.82L38.39,32c-1.21-2.77-2.71-6.21-6.55-6.21a7.51,7.51,0,0,0-1.31.12c-5.09.92-12.26,7.74-11.93,16.34.36,9.31,4.29,14.88,11.66,16.58l.15,0,.06-.14c.4-.93.87-2,1.46-3.19l.08-.17-.17-.07c-2.9-1.26-6.22-4.73-6.52-8.15-.44-4.91,1.45-10.27,4-12.78a26.5,26.5,0,0,0,.93,4.77c1,3.37,2.85,5.81,5.5,8.65l.16.17.13-.2A52,52,0,0,1,43,38.44l.12-.14Z"/><path class="cls-8" d="M84.14,27h.08l.07-.05a8.41,8.41,0,0,0,2.87-3.74,10.38,10.38,0,0,0,.28-1.9l0-.35-2.95,1.85L79.5,26l-.45.28.52.06C81.9,26.6,83.54,26.91,84.14,27Z"/><path class="cls-3" d="M263.91,130.89c-.83-16.15,7.47-34.89,14-36.57a3.52,3.52,0,0,1,3.72,1.28l.31-.18c-2.09-6.72-7.85-23.78-16.12-36.94-8.07-12.83-16.46-19.5-30.08-28-13-8.15-24.25-8.63-44.62-8.83-9.31-.1-25.34-1.3-30-1.67l-.64-.05.52.38c9.25,6.68,24.25,21.93,28.64,34.91s15.58,58.68,16.86,67c.16,1,.36,2.14.59,3.38,1.56,8.59,4.19,23-1.88,45.32-1,3.51-2,7.31-3.24,11.61l-.06.23h.24c3.61,0,22.08-.45,31.55-5.36C244.61,171.68,264.85,149.2,263.91,130.89Z"/><path class="cls-5" d="M209,144.37a101.21,101.21,0,0,1-3.8,26.48c-1,3.51-2,7.31-3.24,11.61l-.06.23h.24c3.61,0,22.08-.45,31.55-5.36,10.9-5.65,31.14-28.13,30.2-46.44a56.29,56.29,0,0,1,2.57-18.95C252.66,142.61,226.49,149.87,209,144.37Z"/><path class="cls-3" d="M41,98.79a6.57,6.57,0,0,0,3.34.91h0A6.38,6.38,0,0,0,47.28,99,2.82,2.82,0,0,0,49,96.81c.11-2.67-2.22-7.79-5.86-8.08H43c-1.18,0-2.38,1.39-3.07,3.55C39.16,94.64,39.18,97.68,41,98.79Z"/><path class="cls-5" d="M40.14,96.44a6.23,6.23,0,0,1,.52-5.29c1-1.48,3.45-2.44,6.68.59a5.87,5.87,0,0,0-4.24-3H43c-1.1,0-2.21,1.22-2.92,3.13a6.37,6.37,0,0,0-.38,5.24c1.05,2.18,3.42,2.87,5.68,2.52A5.06,5.06,0,0,1,40.14,96.44Z"/><path class="cls-6" d="M291.06,212.51c-.1-.57-.19-1.13-.26-1.66-1.43-9.83-2-17.1-1.59-21.62.09-1,.22-2.47.39-4.23.85-9.18,2.45-26.27,2.06-39.19-.41-13.82-3.71-27.26-6.36-38.07l-.92-3.75c-.45-1.86-1-4-1.71-6.28l-.08-.2,0,0c-1-2-2.23-3-3.68-3a3.61,3.61,0,0,0-.85.11c-6.39,1.63-14.61,20.65-13.81,36.24.93,18.08-18.79,40.35-29.84,46.45l-.14.08.06.15c1.76,4.61,6,15.81,7,20.2a34.75,34.75,0,0,1,.79,9.34v.22l.22,0a62.14,62.14,0,0,1,10.26-.81,60,60,0,0,1,16.31,2.07,69.57,69.57,0,0,0-16.27-1.87,50.45,50.45,0,0,0-15.79,2.19c-4.37,1.48-7.64,3.3-9.72,5.4-2.43,2.47-3,6.73-2.78,9a6.61,6.61,0,0,0,6.45,6.26l.5,0-.37-.34a7.35,7.35,0,0,1-2.29-5.17,10.86,10.86,0,0,1,2.71-7.39,10.61,10.61,0,0,0-2.47,7.4A7.1,7.1,0,0,0,232,229.8a11.48,11.48,0,0,0,6,1.31,22.57,22.57,0,0,0,2.82-.17l.42-.05-.32-.27a7.31,7.31,0,0,1-2.64-5.46,10.75,10.75,0,0,1,3-7.7,10.53,10.53,0,0,0-2.75,7.72,7.2,7.2,0,0,0,3.38,5.89,12.85,12.85,0,0,0,6.53,1.38,24.78,24.78,0,0,0,3.31-.23l.5-.06-.43-.27-.1-.06-.11-.06a7.45,7.45,0,0,1-3.22-6.13,11.27,11.27,0,0,1,2.82-7.53,10.92,10.92,0,0,0-2.58,7.55,7.26,7.26,0,0,0,3.1,5.91c1.23.84,3.6,1.33,6.49,1.33a26.45,26.45,0,0,0,4.3-.35l.51-.08-.45-.26a6.68,6.68,0,0,1-3.1-4.16c-.95-3.09.36-7.21,2.64-9.55-2.27,2.77-3.19,7-2.24,9.59,1.51,4,4.51,4.87,8.54,4.87h.14c3.63,0,14.68-2.17,20.42-7.42,3.61-3.3,2.73-8.64,2-12.93Z"/><path class="cls-2" d="M89.86,103.15a22.13,22.13,0,0,1-11.92-3.56,11.65,11.65,0,0,1-5.52-8.75A38.36,38.36,0,0,1,74,76c1.65-4.89,4.29-8,7.65-8.85h0c4.45-1.19,12.11,5.54,15.18,13.34,2.12,5.37,2.89,13.85.52,18.76a6.1,6.1,0,0,1-3.67,3.46A13.31,13.31,0,0,1,89.86,103.15Z"/><path class="cls-3" d="M82.06,80.55c-1.53.55-3.55,1.54-4.31,5.26s-.13,5,.51,5.77,3.26,1.89,6.25.89a8.2,8.2,0,0,0,4.69-3.36,4.18,4.18,0,0,0,.36-3.43,7.84,7.84,0,0,0-3.2-4.21C84.56,80.5,83,80.22,82.06,80.55Z"/><path class="cls-5" d="M77.53,87.13c-.37,2.73.17,3.83.73,4.45a6.22,6.22,0,0,0,4.9,1.2C78.61,92.27,77.75,89.54,77.53,87.13Z"/><path class="cls-5" d="M83.66,81.62A7.94,7.94,0,0,1,89,84.35a6.57,6.57,0,0,0-2.6-2.88c-1.8-1-3.36-1.25-4.3-.92a6.19,6.19,0,0,0-4,4A5.38,5.38,0,0,1,83.66,81.62Z"/><path class="cls-6" d="M206.79,125.58c-.23-1.23-.43-2.36-.59-3.38-1.28-8.26-12.44-53.84-16.85-66.9C184.79,41.81,169,26.16,159.82,19.83c-5-3.45-11.14-5.06-19.21-5.06-2.91,0-5.7.2-8.16.38-2,.14-3.85.28-5.42.28a16.21,16.21,0,0,1-2.26-.13l-5.54-.79c-2.74-.4-5-.73-7-1l-.44-.05.27.34A28.62,28.62,0,0,1,114.21,17c2.87,4.92,3.71,10.22,2.32,14.53-1.22,3.77-4.07,6.7-8.45,8.71l-.26.12.22.18a130.12,130.12,0,0,1,14.47,14.39c7.8,9.06,12.42,21.85,13.54,30.51,1,8.2-4.52,25.36-7.71,30.31-3,4.72-13.71,14-19.66,16.48a30.1,30.1,0,0,1-9.56,1.86,33.17,33.17,0,0,0-6.23.88c-5,1.35-7.12,2.05-11.1,5.82a20.23,20.23,0,0,1-12.31,4.71,9.9,9.9,0,0,1-4-.74,9.64,9.64,0,0,1-3.74-2.8l-.09-.12-.14.06a1.25,1.25,0,0,1-.41.13h-.1a7.55,7.55,0,0,1-3-1.2c-1.09-.31-3.07-1-5.17-1.79l-.25-.1v.27c0,2.41.19,15.08-.85,28.37C50.22,188,47,200.94,42.42,205.09l-.37.34.5,0c1.2-.06,2.44-.09,3.67-.09A59.63,59.63,0,0,1,64.84,208a70.75,70.75,0,0,0-18.59-2.4,52,52,0,0,0-17.12,2.51c-4.74,1.71-8.28,3.8-10.53,6.21-2.64,2.83-3.25,7.7-3,10.29.59,6.48,5.92,7.11,7,7.17l.48,0-.34-.34a8.66,8.66,0,0,1-2.5-6,12.81,12.81,0,0,1,3.4-9,12.6,12.6,0,0,0-3.11,9,8.26,8.26,0,0,0,3.43,6.6,11.82,11.82,0,0,0,6.53,1.51,24.84,24.84,0,0,0,3.07-.2l.39,0-.3-.26a8.67,8.67,0,0,1-2.87-6.3,12.7,12.7,0,0,1,3.73-9.3,12.54,12.54,0,0,0-3.4,9.31,8.38,8.38,0,0,0,3.66,6.75,13.31,13.31,0,0,0,7.1,1.59,25.45,25.45,0,0,0,3.58-.25l.49-.07-.41-.27-.11-.06-.13-.08a8.76,8.76,0,0,1-3.51-7.07,13.18,13.18,0,0,1,3.53-9.16A13,13,0,0,0,42,227.37a8.44,8.44,0,0,0,3.36,6.77c1.47,1.07,3.89,1.66,6.82,1.66a22.43,22.43,0,0,0,4.54-.47l.41-.08-.35-.24a7.8,7.8,0,0,1-2.6-3.76c-1.76-6.5,1.37-10.19,3.9-12a11.25,11.25,0,0,0-3.6,11.95,7.15,7.15,0,0,0,2.76,3.76A14.09,14.09,0,0,0,64,236.24a63.85,63.85,0,0,0,14.48-1.87c7.33-2.24,11.11-5.73,12.26-11.33l.21-1c1-5.12,2-10,4.9-20.21s20.64-38,22.65-41.11l.08-.12-.39-.41c-.2-.21-.4-.41-.59-.63-4.22-4.76-10.92-11.23-17.1-15.22,5,2.56,10.77,7.6,17.34,15,4.48,5.06,10.58,9.32,15.47,12.75.68.46,2.34,1.64,2.34,1.64l-.11-.47c-.29-1.25-.59-2.44-.89-3.53-1.05-3.85-2.09-7.15-2.89-9.57a89.08,89.08,0,0,1,3.23,9.63c4,14.87,6.47,35.66,2.74,48.55l-.08.27.28,0a68.91,68.91,0,0,1,8.16-.47,59.7,59.7,0,0,1,18.63,2.68,70.47,70.47,0,0,0-18.6-2.4A51.88,51.88,0,0,0,129,220.88c-4.75,1.7-8.29,3.79-10.54,6.21-2.64,2.82-3.25,7.7-3,10.29.59,6.48,5.92,7.11,7,7.17l.48,0-.34-.33a8.68,8.68,0,0,1-2.5-6,12.79,12.79,0,0,1,3.4-9,12.59,12.59,0,0,0-3.11,9,8.26,8.26,0,0,0,3.43,6.61,11.9,11.9,0,0,0,6.53,1.51,24.84,24.84,0,0,0,3.07-.2l.39,0-.3-.27a8.63,8.63,0,0,1-2.87-6.29,12.69,12.69,0,0,1,3.73-9.3,12.58,12.58,0,0,0-3.4,9.31,8.41,8.41,0,0,0,3.66,6.75,13.44,13.44,0,0,0,7.11,1.59,26.38,26.38,0,0,0,3.3-.22l.5-.07-.54-.33a.81.81,0,0,1-.18-.12,8.73,8.73,0,0,1-3.51-7.06,13.2,13.2,0,0,1,3.53-9.17,13,13,0,0,0-3.24,9.18,8.48,8.48,0,0,0,3.35,6.77c1.47,1.07,3.9,1.66,6.83,1.66a22.66,22.66,0,0,0,4.57-.48l.45-.09-.39-.24c-2.08-1.27-3.2-2.55-3.59-6-.41-3.73.92-8,4.16-10.09a12,12,0,0,0-3.84,10.14c.32,3.33,1.69,4.63,3.64,5.56a11,11,0,0,0,4.88,1h0a29.29,29.29,0,0,0,6.39-.89l1.94-.42c11.7-2.36,17.81-5.74,18.73-17.67.26-3.34,3.56-14.65,7.74-29,2.68-9.18,5.71-19.58,8.44-29.64C211,148.5,208.35,134.15,206.79,125.58Z"/><path class="cls-9" d="M52.81,98.59a17.75,17.75,0,0,1,12-2.69A26.06,26.06,0,0,0,52.81,98.59Z"/><path class="cls-9" d="M91.22,110.24a10.74,10.74,0,0,1,7.25,1.26C96.85,109.73,93.61,109.24,91.22,110.24Z"/><path class="cls-9" d="M81.81,93c-1.89,0-3.42-.56-3.92-1.5-.94-1.74-.78-6,.82-8.66a4.76,4.76,0,0,1,4.16-2.56h0A7,7,0,0,1,88.4,83,6.2,6.2,0,0,1,90,87.56c-.73,3.36-3.94,5-6.7,5.36A10.4,10.4,0,0,1,81.81,93Zm1.06-12.27A4.26,4.26,0,0,0,79.1,83.1c-1.52,2.55-1.69,6.57-.82,8.2.53,1,2.65,1.49,4.92,1.17,2.61-.36,5.63-1.87,6.32-5A5.85,5.85,0,0,0,88,83.27a6.47,6.47,0,0,0-5.17-2.52Z"/><path class="cls-9" d="M89.86,103.15a22.13,22.13,0,0,1-11.92-3.56,11.65,11.65,0,0,1-5.52-8.75A38.36,38.36,0,0,1,74,76c1.65-4.89,4.29-8,7.65-8.85h0c4.45-1.19,12.11,5.54,15.18,13.34,2.12,5.37,2.89,13.85.52,18.76a6.1,6.1,0,0,1-3.67,3.46A13.31,13.31,0,0,1,89.86,103.15ZM82.71,67.42a3.93,3.93,0,0,0-1,.12C74.85,69.38,72,80.9,72.87,90.8a11.25,11.25,0,0,0,5.32,8.42c4.84,3.27,11.73,4.11,15.33,3A5.72,5.72,0,0,0,96.92,99c2.31-4.8,1.54-13.12-.54-18.39C93.66,73.69,87,67.42,82.71,67.42Z"/><path class="cls-9" d="M30.4,72.1s2.31-7.24,9.23-7.61C31.82,62.58,30.4,72.1,30.4,72.1Z"/><path class="cls-9" d="M76,58.81a13.05,13.05,0,0,1,14.88,2.83C84.42,52.32,76,58.81,76,58.81Z"/><path class="cls-3" d="M52,124.55a27.73,27.73,0,0,0,9.07-.47,27.64,27.64,0,0,0,10.66-5.54,21.15,21.15,0,0,1-10.44,6.2A19.44,19.44,0,0,1,52,124.55Z"/><path class="cls-3" d="M68.93,131s3.76-1.4,2.84-5.11A5.43,5.43,0,0,1,68.93,131Z"/><path class="cls-3" d="M55.62,131.43s2.19,2.95,5.24,1.9C58,133.86,55.62,131.43,55.62,131.43Z"/><path class="cls-6" d="M85.17,84.62a3.45,3.45,0,0,0-4.59,2.25A3.3,3.3,0,0,0,82,90.73a3.4,3.4,0,0,0,4.85-1.31A3.61,3.61,0,0,0,85.17,84.62Z"/><path class="cls-10" d="M83.47,85.56a1,1,0,1,1-1-1A1,1,0,0,1,83.47,85.56Z"/><path class="cls-10" d="M85.23,89.38a.5.5,0,0,1-1,0,.5.5,0,1,1,1,0Z"/><path class="cls-6" d="M48.68,94.59A9.81,9.81,0,0,0,48.11,93,3.57,3.57,0,0,0,47,92.15a3.45,3.45,0,0,0-4.59,2.26,3.29,3.29,0,0,0,1.46,3.85A3.39,3.39,0,0,0,48.74,97a2.65,2.65,0,0,0,.11-.3A10.29,10.29,0,0,0,48.68,94.59Z"/><path class="cls-10" d="M45.31,93.09a1,1,0,1,1-1-1A1,1,0,0,1,45.31,93.09Z"/><path class="cls-10" d="M47.07,96.91a.49.49,0,1,1-.49-.49A.49.49,0,0,1,47.07,96.91Z"/><path class="cls-11" d="M291.29,210.78c-1.42-9.79-2-17-1.58-21.51.08-1,.22-2.47.38-4.21.86-9.19,2.46-26.31,2.07-39.27-.42-13.86-3.72-27.34-6.38-38.17-.31-1.28-.62-2.53-.91-3.75-2.54-10.51-9.59-31.34-18.59-45.65C258.17,45.3,249.73,38.6,236.05,30c-13.11-8.2-25-8.71-44.88-8.9-10.07-.1-28.57-1.66-31.37-1.9-8.87-5.91-19.56-5.15-27.39-4.58a40.62,40.62,0,0,1-7.57.16L119.3,14c-3-.44-5.52-.8-7.68-1-3.2-3.76-7-5.76-11.4-6-6.34-.29-9.17,3.15-10.93,6.16a15,15,0,0,0-2,7.35l-3.07,1.92c-1.73,1.1-3.64,2.3-5.75,3.62-4.74-.43-11.6-.49-17.93,1.53s-12,4.84-17.27,10.23A20,20,0,0,1,39,32.16l-.15-.34c-1.35-3.09-3.21-7.33-8.41-6.38-2.74.5-5.92,2.58-8.28,5.44A17,17,0,0,0,18.1,42.29c.37,9.52,4.39,15.23,11.94,17C26.47,67.7,25.12,75,26.69,85.17c2,13.38,1.92,15,1.64,18.29-.08,1-.17,2.09-.22,3.71-.29,9.74,2.42,18.15,7.44,23.07,3,2.95,10.86,6.46,16.6,8.68.06,4.49.38,56.71-10.56,66.35a47.68,47.68,0,0,0-12.65,2.36c-5.05,1.82-8.46,4-10.65,6.33-2.68,2.87-3.5,7.78-3.2,10.72.67,6.62,5.58,7.49,8.29,7.6l.31.25c1.7,1.19,4.49,1.4,7.69,1.51a26.84,26.84,0,0,0,3-.13l.11.09c1.82,1.21,4.8,1.45,8.22,1.57a33.64,33.64,0,0,0,4-.21,22.64,22.64,0,0,0,6.09.86,30.81,30.81,0,0,0,5.25-.39,17.07,17.07,0,0,0,6,.92,63.6,63.6,0,0,0,14.59-1.91c7.52-2.29,11.41-5.9,12.6-11.7l.21-1c1-5.11,2-9.94,4.89-20.18s20.34-37.47,22.5-40.83c4.34,4.47,9.75,8.27,14.2,11.37l2.56,1.81c3,13.2,4.76,31.91,1.12,44.25a41,41,0,0,0-7.9,1.87c-5,1.82-8.46,4-10.64,6.33-2.69,2.87-3.51,7.78-3.21,10.71.67,6.63,5.58,7.5,8.29,7.61l.31.25c1.7,1.18,4.49,1.4,7.69,1.51a29.54,29.54,0,0,0,3-.13l.12.09c1.81,1.21,4.79,1.45,8.21,1.57a33.3,33.3,0,0,0,3.78-.19,22.68,22.68,0,0,0,6,.83,29.56,29.56,0,0,0,5.45-.42,12.75,12.75,0,0,0,3.54.41,32.13,32.13,0,0,0,6.8-1l1.92-.42c11.69-2.36,18.2-5.95,19.14-18.12.26-3.29,3.55-14.59,7.72-28.89,1.59-5.45,3.31-11.35,5-17.34,2.51,0,22-.3,31.91-5.38,1.81,4.76,5.93,15.73,6.95,20.05a34.49,34.49,0,0,1,.77,9.36,36,36,0,0,0-4.94,1.25c-4.66,1.58-7.81,3.48-9.82,5.51-2.47,2.5-3.23,6.77-3,9.33.62,5.76,5.15,6.52,7.65,6.62a2.92,2.92,0,0,0,.28.21c1.57,1,4.14,1.22,7.09,1.32a27.45,27.45,0,0,0,2.75-.12l.11.08c1.67,1.05,4.42,1.27,7.57,1.37a34.18,34.18,0,0,0,3.72-.18,22.53,22.53,0,0,0,5.62.74,41.94,41.94,0,0,0,5.23-.41,15.45,15.45,0,0,0,4.85.51c3.9-.06,14.84-2.23,20.65-7.54,3.82-3.48,2.91-9,2.18-13.38C291.47,211.92,291.37,211.34,291.29,210.78ZM84.6,23l2.66-1.67A9.43,9.43,0,0,1,87,23.21a8.09,8.09,0,0,1-2.81,3.65c-.59-.12-2.25-.44-4.58-.69ZM18.78,42.27C18.45,33.76,25.54,27,30.56,26.11c4.68-.85,6.34,2.94,7.67,6l.15.34a20.62,20.62,0,0,0,4.43,5.88,53,53,0,0,0-6.93,9.37c-2.58-2.77-4.45-5.2-5.45-8.59a25.62,25.62,0,0,1-1.1-7,13.93,13.93,0,0,0-.11,2,16.85,16.85,0,0,0-4.08,13c.32,3.61,3.77,7.06,6.63,8.3-.52,1.08-1,2.15-1.47,3.19C23,57,19.14,51.49,18.78,42.27Zm16.55,6.34c-.68,1.18-1.35,2.43-2,3.75-.43.86-.85,1.7-1.25,2.53C29,53.53,25.9,50.34,25.6,47a16.53,16.53,0,0,1,3.64-12.07,21.48,21.48,0,0,0,.65,4.38A21.34,21.34,0,0,0,35.33,48.61ZM36,129.75c-4.88-4.78-7.52-13-7.23-22.56.05-1.6.14-2.7.22-3.68.28-3.32.42-5-1.65-18.44-1.95-12.66.68-20.84,6.55-32.4,8-15.74,16.2-21,26.86-24.43,9.93-3.18,20.81-1.22,22.69-.83a12.58,12.58,0,0,1-1.34.84s4.46-1.32,5.52-4.86A12.9,12.9,0,0,0,88,20.66a14.46,14.46,0,0,1,1.9-7.15c2.5-4.29,5.58-6,10.31-5.82,5.48.24,10,3.45,13.59,9.54,2.8,4.8,3.63,10,2.27,14.13-1.2,3.72-4,6.59-8.45,8.54l0,0c-1-.79-1.89-1.55-2.82-2.26,4.78-3.92,5.43-11.23,3.62-14.75-2.46-4.77-7.66-5.86-8.79-6.13A15.37,15.37,0,0,0,99,14.32c.71,4.44,1.34,12.71-2.47,18.17l-1.84-.18a18.48,18.48,0,0,1,3.08,1.31c7.15,4.32,16.63,12.56,24.42,21.62s12.3,21.66,13.41,30.24c1,8.11-4.47,25.08-7.62,30C125,120,114.25,129.39,108.5,131.75a29.87,29.87,0,0,1-9.41,1.82,34.49,34.49,0,0,0-6.33.9c-4.92,1.34-7.26,2.1-11.31,5.94s-12.24,5.44-15.71,3.88a10.46,10.46,0,0,1-3.51-2.57,34.09,34.09,0,0,0,5.23-5.13c1.44.3,9.9,2,13,1,3.49-1.11,6.8-6,8.06-8.83a19.36,19.36,0,0,0,1-3.46,25.59,25.59,0,0,1,4.87-10,16.69,16.69,0,0,1,3.06.93,7.61,7.61,0,0,0-8-1.16,16.46,16.46,0,0,1,3.84,0,23,23,0,0,0-4.46,10,19.12,19.12,0,0,1-1,3.33c-1.21,2.72-4.37,7.42-7.64,8.46-3,1-12-.85-12.78-1a4.66,4.66,0,0,1-.66-1.21C70.25,133.12,76.38,126,77,122.9a5.61,5.61,0,0,0-1.24-4.53,4.9,4.9,0,0,0-3.66-1.91c-1.42,0-2.61.8-4.11,1.84a21.24,21.24,0,0,1-6.56,3.33,22.36,22.36,0,0,1-6.6.65c-2.16,0-3.86,0-4.7,1a5.62,5.62,0,0,0-.82,4.11,6.27,6.27,0,0,0,1.83,4,28.74,28.74,0,0,0,12.72,3.84,8.08,8.08,0,0,0,2.46-.34A4.43,4.43,0,0,0,67,136.1c-1.77,2.09-4.84,5.31-5.88,5.41-1.36.12-6.7-3.48-9.57-6.18-2.6-2.44-4.75-10.51-5.38-14s.63-11,2.49-14.82a22.94,22.94,0,0,0,.92-15.36C47.09,83.94,44,78,40.75,78.07s-7.65,9.61-7.45,18c.16,6.36,4.24,14.23,8.41,16.19a4.15,4.15,0,0,0,1.93.47,4.58,4.58,0,0,0,2.59-1c-.8,3.55-1.15,7.41-.75,9.66.51,2.86,2.64,11.64,5.59,14.41a43.65,43.65,0,0,0,4.45,3.55C51,137.73,39.72,133.37,36,129.75ZM99.74,17.45A11.91,11.91,0,0,1,108,23.29c1.75,3.27,1,10.38-3.61,14.06a60.54,60.54,0,0,0-7.13-4.79C100.15,28.15,100.45,21.82,99.74,17.45ZM66.43,134.12c-3.85,1.65-12.89-1.81-14.9-3.29A5.65,5.65,0,0,1,50,127.32a4.81,4.81,0,0,1,.68-3.59c.63-.8,2.19-.79,4.17-.77a22.83,22.83,0,0,0,6.79-.68,22,22,0,0,0,6.76-3.42c1.4-1,2.49-1.76,3.71-1.72a4.24,4.24,0,0,1,3.15,1.66,5,5,0,0,1,1.09,4C75.79,125.5,69.9,132.63,66.43,134.12Zm-20-23.24a4.12,4.12,0,0,1-4.54,1c-4-1.87-8-9.69-8.15-15.79-.2-8.28,3.94-17.67,7-17.58s5.71,5.76,8.15,12.82A22.53,22.53,0,0,1,48,106.18,25.25,25.25,0,0,0,46.44,110.88ZM196.3,200.34c-4.18,14.34-7.48,25.67-7.75,29-.91,11.81-7,15.16-18.59,17.51-.62.12-1.27.27-1.94.42-3.76.84-7.77,1.51-11.15-.1-2-.94-3.23-2.24-3.54-5.42-.41-4.25,1.42-9.11,5.69-11.24-4.84,1.4-6.87,6.7-6.37,11.23.4,3.57,1.61,4.9,3.67,6.15-4.18.88-8.91.55-11.25-1.14a8.31,8.31,0,0,1-3.28-6.64,12.68,12.68,0,0,1,5.54-11.09c-4.44,2-6.28,7.38-6.19,11.09a8.93,8.93,0,0,0,3.58,7.21,2.32,2.32,0,0,0,.31.19c-4,.52-8.09.12-10.28-1.34a8.18,8.18,0,0,1-3.59-6.61,12.41,12.41,0,0,1,5.73-11.14c-4.72,2-6.57,7.43-6.42,11.15A8.88,8.88,0,0,0,133.4,246c-3.66.47-7.44.13-9.47-1.28a8.06,8.06,0,0,1-3.35-6.46A12.37,12.37,0,0,1,126,227.33c-4.42,2-6.21,7.31-6.07,10.95a8.88,8.88,0,0,0,2.55,6.09c-2.23-.13-6.32-1.51-6.81-7-.26-2.84.5-7.51,3-10.15,2.1-2.26,5.45-4.36,10.47-6.16,11.44-4.11,29.84-2.74,39.3,1.17-6.06-3.59-19.37-5.19-30.47-3.84,4-13.92.85-35.51-2.73-48.65a81.28,81.28,0,0,0-5.1-13.87c.05.14,2.18,5.76,4.4,13.91.31,1.11.61,2.29.9,3.53l-2-1.37c-4.89-3.42-11-7.67-15.45-12.72-5.3-6-13.08-13.75-20.08-16.23,6.4,3.45,14.28,10.7,19.58,16.68.28.32.59.63.88.94-1.68,2.6-19.76,30.77-22.67,41.16S91.85,216.86,90.8,222l-.21,1c-1.13,5.53-4.88,9-12.13,11.2A63.56,63.56,0,0,1,64,236.06a14,14,0,0,1-6.6-1.29,7,7,0,0,1-2.67-3.65c-2.1-7.74,3.48-11.85,5.47-13.31C57.6,219,51.77,222.93,54,231.3a7.87,7.87,0,0,0,2.68,3.85c-4.18.87-8.89.54-11.22-1.15a8.3,8.3,0,0,1-3.28-6.63,12.68,12.68,0,0,1,5.54-11.1c-4.44,2-6.28,7.38-6.19,11.09a8.93,8.93,0,0,0,3.58,7.21l.25.16c-4,.57-8.31.18-10.56-1.31a8.16,8.16,0,0,1-3.58-6.6A12.41,12.41,0,0,1,37,215.67c-4.72,2-6.57,7.43-6.42,11.15a8.86,8.86,0,0,0,2.93,6.42c-3.66.47-7.44.13-9.47-1.28a8.06,8.06,0,0,1-3.35-6.46,12.35,12.35,0,0,1,5.42-10.94c-4.42,2-6.21,7.3-6.07,10.94a8.86,8.86,0,0,0,2.55,6.09c-2.23-.13-6.32-1.5-6.81-7-.26-2.85.5-7.52,3-10.16,2.1-2.25,5.45-4.35,10.47-6.16,11.44-4.11,29.84-2.74,39.3,1.18-5.26-3.12-16-4.74-26-4.23,4.82-4.39,7.94-18.22,9.45-37.65,1-13.16.9-25.58.85-28.38,2.3.87,4.19,1.51,5.18,1.79a7.49,7.49,0,0,0,3,1.21h.12a1.69,1.69,0,0,0,.47-.15,9.83,9.83,0,0,0,3.82,2.87c5.15,2.22,13.18-.91,16.45-4,4-3.73,6.1-4.43,11-5.77a33.08,33.08,0,0,1,6.21-.88,30.25,30.25,0,0,0,9.61-1.87c6-2.45,16.7-11.81,19.75-16.55,3.19-5,8.79-22.2,7.72-30.43-1.12-8.69-5.75-21.52-13.57-30.61a131.21,131.21,0,0,0-14.49-14.41c4.42-2,7.3-5,8.54-8.81,1.41-4.36.56-9.71-2.33-14.68a26.37,26.37,0,0,0-2.13-3.16c2,.24,4.26.56,7,1l5.54.79a41.07,41.07,0,0,0,7.71-.15C140.28,14.76,151,14,159.72,20c9.19,6.31,24.91,21.92,29.46,35.38C193.59,68.42,204.74,114,206,122.23c.16,1,.36,2.15.59,3.39,1.56,8.55,4.17,22.87-1.87,45.1C202,180.74,199,191.16,196.3,200.34Zm37.32-23.17c-9.5,4.93-28.3,5.31-31.46,5.34,1.1-3.87,2.19-7.77,3.23-11.62,6.08-22.37,3.46-36.78,1.89-45.4-.23-1.22-.43-2.35-.59-3.37-1.28-8.27-12.45-53.9-16.87-67s-19.34-28.24-28.7-35c4.55.36,20.71,1.58,30,1.67,20.33.2,31.55.68,44.53,8.8,13.59,8.51,22,15.17,30,28,6.91,11,12.67,25.87,16.1,36.9a3.74,3.74,0,0,0-3.9-1.33c-6.63,1.69-15,20.52-14.18,36.75C264.67,149.14,244.49,171.54,233.62,177.17Zm55.32,48.24c-5.67,5.17-16.47,7.35-20.3,7.37s-7-.67-8.51-4.75c-1.18-3.18.65-9.19,4.38-11.28-3.88,1.34-6.35,7.34-5.12,11.35a6.83,6.83,0,0,0,3.18,4.27c-3.82.63-8.62.44-10.66-1a7.08,7.08,0,0,1-3-5.77A10.88,10.88,0,0,1,254,216c-4.1,1.74-5.8,6.42-5.71,9.66a7.62,7.62,0,0,0,3.3,6.27,1.43,1.43,0,0,0,.21.12c-3.73.5-7.65.17-9.71-1.12a7,7,0,0,1-3.3-5.75,10.64,10.64,0,0,1,5.28-9.7c-4.35,1.78-6.06,6.47-5.92,9.7a7.5,7.5,0,0,0,2.7,5.59c-3.38.41-6.86.11-8.73-1.11A6.93,6.93,0,0,1,229,224a10.59,10.59,0,0,1,5-9.52c-4.07,1.74-5.72,6.36-5.6,9.52a7.51,7.51,0,0,0,2.35,5.3,6.41,6.41,0,0,1-6.28-6.09c-.24-2.48.46-6.54,2.73-8.84,1.94-2,5-3.79,9.65-5.36,10.55-3.58,27.52-2.39,36.24,1-6.1-3.41-20.16-4.76-30.84-3a35.08,35.08,0,0,0-.8-9.39c-1-4.39-5.21-15.5-7-20.23,11.11-6.13,30.87-28.4,29.94-46.62-.8-15.52,7.34-34.44,13.67-36.05,1.76-.46,3.24.54,4.4,3h0c.69,2.34,1.27,4.46,1.71,6.27.29,1.22.6,2.48.91,3.75,2.65,10.8,5.95,24.24,6.36,38,.39,12.92-1.21,30-2.07,39.19-.16,1.74-.29,3.17-.38,4.21-.37,4.54.16,11.83,1.59,21.67.08.56.18,1.15.28,1.76C291.6,216.89,292.48,222.18,288.94,225.41Z"/><path class="cls-9" d="M43.13,88.46c-1.35-.1-2.71,1.36-3.47,3.74s-.74,5.63,1.22,6.82a6.8,6.8,0,0,0,3.48,1,6.62,6.62,0,0,0,3-.72,3.07,3.07,0,0,0,1.83-2.43C49.35,94.12,47.06,88.77,43.13,88.46Zm4.06,10.39a6.36,6.36,0,0,1-6.07-.22c-1.76-1.06-1.76-4-1-6.3.66-2.06,1.82-3.42,2.9-3.42h.1c3.53.27,5.8,5.27,5.69,7.88A2.65,2.65,0,0,1,47.19,98.85Z"/><path class="cls-12" d="M144.61,14.7s12.46-2.65,32.1,20.18c0,0,13.09,14.59,15.44,28.54,0,0,15.2,57.55,15.71,66.49,0,0,6.88,20.43-9.37,62.89l-9.94,36.57s.55,17.19-18.59,17.51c0,0,15.3-9.43,15.13-20.35L196,190.75s12.26-38.87,6.89-60.84l-16-65.67a45,45,0,0,0-14.11-26.66S169.92,26.57,144.61,14.7Z"/><path class="cls-12" d="M281.81,96.27s13,40.07,9.7,56.86c0,0-2.23,37-2.21,42,0,0,1.37,16.46,2.76,24.41,0,0,1.83,7.51-15.53,12.21,0,0,12.21-7.06,12.21-11.31s-2.35-19.49-1.9-24.75,1-36.17,2.46-42.78S281.81,96.27,281.81,96.27Z"/><path class="cls-4" d="M178.09,22.77s79.91,7.72,100,66.85C278.1,89.62,263.54,21.65,178.09,22.77Z"/><path class="cls-13" d="M132.35,156.65s11.25,23.35,7.72,60C140.07,216.62,149,183.86,132.35,156.65Z"/><path class="cls-13" d="M53.78,141.14s3.14,40.2-8.4,62.94C45.38,204.08,62.2,182.65,53.78,141.14Z"/><path class="cls-13" d="M243.38,206.21s-.3-13-7.91-28.23C235.47,178,245.92,191,243.38,206.21Z"/><path class="cls-13" d="M270.78,210.24s-24.86-6.72-41.81,3.51C229,213.75,245.55,206.35,270.78,210.24Z"/><path class="cls-13" d="M163.05,220.91s-29.27-5.6-42.26,5.23C120.79,226.14,134.08,217.11,163.05,220.91Z"/><path class="cls-13" d="M16.86,219.94s1.65-10.38,21.73-13c0,0,19.34-.6,28.07,3.14C66.66,210.09,29.48,201.43,16.86,219.94Z"/><path class="cls-12" d="M116.7,158.77S97.35,188.06,94,199.6c0,0-4.71,16.8-4.71,22.06s-12.9,13.24-12.9,13.24,11.47-.76,14.88-11.76l5.28-22.76s10.23-25.12,22.32-39.27Z"/></svg>