<svg id="Layer_1" data-name="Layer 1" xmlns="http://www.w3.org/2000/svg" viewBox="0 0 100 40"><defs><style>.cls-1{fill:#fff;stroke:#000;stroke-miterlimit:10;stroke-width:0.25px;}.cls-2{fill:#2b2a2a;}.cls-3{fill:#fcfcfc;}.cls-4{fill:#cc651f;}</style></defs><ellipse class="cls-1" cx="81.65" cy="21.6" rx="13.38" ry="16.77"/><path class="cls-2" d="M84.26,14.49c-2.59-2.71-6.35-2.14-8.4,1.28s-1.62,8.38,1,11.09,6.35,2.13,8.4-1.28S86.84,17.2,84.26,14.49ZM85,24.16c-1.47,2.45-4.18,2.86-6,.92a7,7,0,0,1-.7-8c1.47-2.45,4.17-2.86,6-.92A7,7,0,0,1,85,24.16Z"/><path class="cls-2" d="M84.33,16.19c-1.86-1.94-4.56-1.53-6,.92a7,7,0,0,0,.7,8c1.85,1.94,4.56,1.53,6-.92A7,7,0,0,0,84.33,16.19Zm.16,6.53a1.66,1.66,0,0,1-2.76.43,3.19,3.19,0,0,1-.32-3.65,1.66,1.66,0,0,1,2.76-.42A3.17,3.17,0,0,1,84.49,22.72Z"/><path class="cls-2" d="M81.41,19.5a3.19,3.19,0,0,0,.32,3.65,1.66,1.66,0,0,0,2.76-.43,3.17,3.17,0,0,0-.32-3.64A1.66,1.66,0,0,0,81.41,19.5Z"/><circle class="cls-3" cx="78.44" cy="16.41" r="1.76"/><path class="cls-4" d="M94.55,25.45s-5.38,6.44-12.76,6.44-12.94-5.61-13-5.8C66.53,13.83,74.26,4.83,81.65,4.83S97,13.45,94.55,25.45Z"/><ellipse class="cls-1" cx="18.35" cy="18.4" rx="13.38" ry="16.77"/><path class="cls-2" d="M21,11.3c-2.58-2.71-6.34-2.14-8.39,1.28s-1.62,8.38,1,11.09,6.34,2.13,8.39-1.29S23.54,14,21,11.3ZM21.72,21c-1.47,2.45-4.17,2.86-6,.92a7,7,0,0,1-.7-8c1.48-2.45,4.18-2.87,6-.92A7,7,0,0,1,21.72,21Z"/><path class="cls-2" d="M21,13c-1.86-1.95-4.56-1.53-6,.92a7,7,0,0,0,.7,8c1.86,1.94,4.56,1.53,6-.92A7,7,0,0,0,21,13Zm.16,6.53a1.67,1.67,0,0,1-2.77.42,3.19,3.19,0,0,1-.32-3.64,1.67,1.67,0,0,1,2.77-.43A3.2,3.2,0,0,1,21.19,19.53Z"/><path class="cls-2" d="M18.1,16.31A3.19,3.19,0,0,0,18.42,20a1.67,1.67,0,0,0,2.77-.42,3.2,3.2,0,0,0-.32-3.65A1.67,1.67,0,0,0,18.1,16.31Z"/><circle class="cls-3" cx="15.14" cy="13.22" r="1.76"/><path class="cls-4" d="M31.45,21.53c-.3-.1-5.59,6.34-13,6.34s-13-5.06-13.07-5.15C3.19,10.3,11,1.63,18.35,1.63S32.77,9.79,31.45,21.53Z"/></svg>