<svg id="Layer_1" data-name="Layer 1" xmlns="http://www.w3.org/2000/svg" xmlns:xlink="http://www.w3.org/1999/xlink" viewBox="0 0 100 40"><defs><style>.cls-1{fill:#fff;}.cls-2{fill:url(#linear-gradient);}.cls-3{fill:url(#linear-gradient-2);}.cls-4{fill:#030303;}.cls-5{fill:#fcfdff;}.cls-6{fill:#422f2a;}.cls-7{fill:#705257;}</style><linearGradient id="linear-gradient" x1="-127.81" y1="-128.75" x2="-131.77" y2="-91.96" gradientTransform="translate(150.52 137.72)" gradientUnits="userSpaceOnUse"><stop offset="0" stop-color="#4a240d"/><stop offset="0.64" stop-color="#9b6a33"/></linearGradient><linearGradient id="linear-gradient-2" x1="-71.37" y1="-122.39" x2="-75.33" y2="-85.6" gradientTransform="translate(150.8 134.22)" xlink:href="#linear-gradient"/></defs><path class="cls-1" d="M5.48,27.2S5.14,21.8,11.1,13c3-4.36,7.54-6.61,11.85-5.79,5.61,1.06,8.42,8.18,10.27,12.82A12.16,12.16,0,0,1,34,23.35a11,11,0,0,1-.36,4.27c-1.47,4.4-10.51,5.21-11.2,5.26C14.38,33.53,8,29.19,5.48,27.2Z"/><path class="cls-1" d="M63.75,28.62s-.33-5.39,5.63-14.16c3-4.37,7.54-6.62,11.84-5.8,5.61,1.07,8.42,8.18,10.27,12.83a12.81,12.81,0,0,1,.83,3.28A11.4,11.4,0,0,1,92,29c-1.47,4.41-10.52,5.21-11.2,5.27C72.65,35,66.3,30.61,63.75,28.62Z"/><ellipse class="cls-2" cx="21.24" cy="22.64" rx="8.26" ry="8.99" transform="translate(-1.36 1.36) rotate(-3.54)"/><ellipse class="cls-3" cx="77.96" cy="25.5" rx="8.26" ry="8.99" transform="translate(-1.43 4.87) rotate(-3.54)"/><ellipse class="cls-4" cx="21.29" cy="23.59" rx="4.93" ry="4.47" transform="translate(-1.42 1.36) rotate(-3.54)"/><ellipse class="cls-4" cx="78.48" cy="26.32" rx="4.93" ry="4.47" transform="translate(-1.48 4.9) rotate(-3.54)"/><ellipse class="cls-1" cx="75.49" cy="22.47" rx="2.28" ry="2.24" transform="translate(-1.24 4.71) rotate(-3.54)"/><ellipse class="cls-5" cx="17.91" cy="20.86" rx="2.17" ry="1.88" transform="translate(-1.26 1.15) rotate(-3.54)"/><path class="cls-6" d="M63.3,26.29a38.64,38.64,0,0,1,4-11.7,22.32,22.32,0,0,1,3.85-5.16,11.44,11.44,0,0,1,6-3.27A9.47,9.47,0,0,1,84,7.73a15.6,15.6,0,0,1,4.47,4.85,24.49,24.49,0,0,1,3.4,11.94A39,39,0,0,0,86.49,14a15.28,15.28,0,0,0-4-3.73,6.94,6.94,0,0,0-4.76-1,9.28,9.28,0,0,0-4.56,2.37,25.14,25.14,0,0,0-3.78,4.27A100.35,100.35,0,0,0,63.3,26.29Z"/><path class="cls-6" d="M8.18,19.67A19.87,19.87,0,0,1,11.32,9.19a12.12,12.12,0,0,1,4.31-4,10.13,10.13,0,0,1,6-1.15A11.87,11.87,0,0,1,27.2,6.28a15.15,15.15,0,0,1,3.92,4.23A19.06,19.06,0,0,1,34,21a29.86,29.86,0,0,0-4.85-9.11c-2.12-2.52-4.9-4.46-7.87-4.8A8,8,0,0,0,17,7.82a11.72,11.72,0,0,0-3.72,2.85A32.07,32.07,0,0,0,8.18,19.67Z"/><path class="cls-7" d="M5.48,27.2S5.14,21.8,11.1,13c3-4.36,7.54-6.61,11.85-5.79,5.61,1.06,8.42,8.18,10.27,12.82A12.16,12.16,0,0,1,34,23.35a11,11,0,0,1-.36,4.27c-1.47,4.4-10.51,5.21-11.2,5.26C14.38,33.53,8,29.19,5.48,27.2Z"/><path class="cls-7" d="M63.75,28.62s-.33-5.39,5.63-14.16c3-4.37,7.54-6.62,11.84-5.8,5.61,1.07,8.42,8.18,10.27,12.83a12.81,12.81,0,0,1,.83,3.28A11.4,11.4,0,0,1,92,29c-1.47,4.41-10.52,5.21-11.2,5.27C72.65,35,66.3,30.61,63.75,28.62Z"/></svg>