<svg id="Layer_1" data-name="Layer 1" xmlns="http://www.w3.org/2000/svg" viewBox="0 0 310 256"><defs><style>.cls-1{opacity:0.3;}.cls-2{fill:#4a7d43;}.cls-3{fill:#2f5129;}.cls-4{fill:#3f6e37;}.cls-5{fill:#2a4924;}.cls-6{fill:#3d6734;}.cls-7{fill:#53a947;}.cls-8{fill:#589a51;}.cls-9{fill:#7fc071;}.cls-10{fill:#80c374;}.cls-11{fill:#fff;stroke:#020202;}.cls-11,.cls-14{stroke-miterlimit:10;stroke-width:0.25px;}.cls-12{fill:#702b2e;}.cls-13{fill:#9e3034;}.cls-14{fill:#ee8483;stroke:#471e1e;}.cls-15{fill:#a1d087;}.cls-16{fill:#4c1e20;}.cls-17{fill:#efeeee;}.cls-18{fill:#232323;}</style></defs><ellipse class="cls-1" cx="172.01" cy="174.52" rx="122.46" ry="41.78" transform="translate(-24.02 27.49) rotate(-8.54)"/><path class="cls-2" d="M109.78,167.37s-.16,4.55-2,6.57-3.46,3.25-5.1,3.65a12.38,12.38,0,0,1-2.12.41,21.08,21.08,0,0,1-3.69,2.67c-1.59.77-4.37,2.3-7.23,2.06a2.22,2.22,0,0,1-1.37-.51c-.26-.45-.31-.52.55-2.62,0,0-.65.24-1.66.53a21,21,0,0,1-4.9.85c-1.52,0-2.09-.33-2.39-.76-.47-.65,1-3.13,1-3.13a16.74,16.74,0,0,1-4,.81,9.92,9.92,0,0,1-4-.39c-.47-.27-.8-.56-.44-1.11S74,174,74,174s-.94,0-2-.13a8.69,8.69,0,0,1-3.36-.95c-.43-.43-.4-.69-.07-1.08a32.79,32.79,0,0,1,2.77-3.41A21.08,21.08,0,0,1,76,165a22.81,22.81,0,0,1,8.49-2.63C85.72,162.31,103,161.39,109.78,167.37Z"/><path class="cls-3" d="M100.33,178.25c2.74-.18,9.32-2.23,9.32-9.86,0,0-.13,7.81-9,9.44Z"/><path class="cls-3" d="M93.35,173.33c-2.06,1.45-4.3,5.79-5,8.07-.27.82.58,1.5,2.9,1.14,5.64-.86,10.07-5.31,10.07-5.31-1.93,2.93-6.92,5.16-10,5.53-2.83.34-3.57-.28-3.15-1.52C88.83,179.05,90.66,174.74,93.35,173.33Z"/><path class="cls-3" d="M79.76,179.21c1-2.28,3.5-7.72,7.65-8.65C83.81,171.78,81,177,80,179.4c-.35.85.53,1.64,3.12,1.44a18.88,18.88,0,0,0,5.93-1.57,1,1,0,0,0-.15.35v.09a18.9,18.9,0,0,1-5.76,1.36C80,181.22,79.21,180.51,79.76,179.21Z"/><path class="cls-3" d="M72.2,176.51c1.08-2.19,5.66-8.52,9.68-9.06-3.53.87-8.14,6.92-9.41,9.11-.78,1.33,4.21,1.89,8.6.28a3.07,3.07,0,0,0-.17.42C75.89,178.75,71.41,178.12,72.2,176.51Z"/><path class="cls-3" d="M68.33,172A19,19,0,0,1,76,164.92a21.9,21.9,0,0,1,12.6-2.56,23.72,23.72,0,0,0-12.49,2.83,20.41,20.41,0,0,0-7.48,6.94c-.7.93,2.14,1.81,5.56,1.78a.76.76,0,0,0-.29.27C70.23,174.13,67.55,173.18,68.33,172Z"/><path class="cls-3" d="M89.7,179.55c2.22.13,3,2.61,1.54,3.1a8.89,8.89,0,0,1-3.14.53C87.31,183.19,88,179.45,89.7,179.55Z"/><path class="cls-3" d="M81.34,177.66c2.31.14,3.09,2.71,1.6,3.22a9.24,9.24,0,0,1-3.26.55C78.87,181.43,79.56,177.56,81.34,177.66Z"/><path class="cls-3" d="M74.27,174.81c2.15.5,2.47,3.06,1,3.3a9.13,9.13,0,0,1-3.17,0C71.31,178,72.6,174.41,74.27,174.81Z"/><path class="cls-3" d="M70.28,170.6c1.86.77,1.44,3.23.06,3.23a8.14,8.14,0,0,1-2.85-.47C66.82,173.13,68.83,170,70.28,170.6Z"/><path class="cls-4" d="M124.61,101.06c-.44-2.22.28-3.89.09-4.44-.36-1.09-6.43,1-8.82,2.16C113.86,99.79,124.92,102.68,124.61,101.06Z"/><path class="cls-5" d="M120,101.06h0c-2.09-.51-4.37-1.34-4.44-2,0-.14.07-.27.27-.36,2.12-1.06,7.06-2.78,8.49-2.43a.53.53,0,0,1,.4.3,2.67,2.67,0,0,1-.06,1,9.37,9.37,0,0,0,0,3.39.34.34,0,0,1-.1.32C124.07,101.84,121.81,101.5,120,101.06Zm4.3-4.65c-1.39-.34-6.37,1.39-8.43,2.41-.15.08-.23.17-.22.27.06.48,1.93,1.28,4.37,1.88,2.28.55,4.06.69,4.44.32a.21.21,0,0,0,.07-.22,9.26,9.26,0,0,1,0-3.42,2.9,2.9,0,0,0,.06-1A.41.41,0,0,0,124.33,96.41Z"/><path class="cls-4" d="M280,46.81a17.9,17.9,0,0,0,.7-3.22c.38-.61,3.36,3.67,4.47,5.63C286.14,50.88,279.59,47.82,280,46.81Z"/><path class="cls-5" d="M280,47a.29.29,0,0,1,0-.26,8.47,8.47,0,0,0,.55-2.44,2.16,2.16,0,0,1,.15-.78c0-.09.14-.1.26,0,.85.41,3.26,3.93,4.25,5.67a.47.47,0,0,1,.08.39c-.14.41-1.53-.05-2.76-.66h0C281.5,48.41,280.2,47.61,280,47Zm.74-3.42a2.24,2.24,0,0,0-.13.75,8.25,8.25,0,0,1-.56,2.46.25.25,0,0,0,0,.19,5.73,5.73,0,0,0,2.49,1.83c1.44.71,2.6,1,2.71.69a.35.35,0,0,0-.07-.29c-1-1.7-3.39-5.24-4.21-5.64C280.87,43.55,280.8,43.56,280.76,43.62Z"/><path class="cls-4" d="M264.57,41.94a.35.35,0,0,1,0-.26,8.06,8.06,0,0,0,.11-2.54,2.76,2.76,0,0,1,0-.8c0-.09.13-.12.27-.08.92.27,3.95,3.35,5.25,4.92a.51.51,0,0,1,.15.37c-.07.44-1.54.22-2.88-.17h0C266.3,43.05,264.86,42.48,264.57,41.94Z"/><path class="cls-4" d="M244.55,39.94a.3.3,0,0,1-.1-.24,8.32,8.32,0,0,0-.45-2.46,2.59,2.59,0,0,1-.17-.78c0-.09.09-.14.24-.13.94.05,4.53,2.35,6.12,3.57a.49.49,0,0,1,.23.32c0,.43-1.43.55-2.8.47h0C246.45,40.63,245,40.39,244.55,39.94Z"/><path class="cls-4" d="M231,39.73a.5.5,0,0,1,.26.3c.06.43-1.39.65-2.76.68h0c-1.18,0-2.69-.1-3.12-.52a.31.31,0,0,1-.12-.23,8.06,8.06,0,0,0-.63-2.42,2.61,2.61,0,0,1-.23-.77c0-.09.09-.14.23-.14"/><path class="cls-4" d="M204.5,42.16a18.17,18.17,0,0,0-1.2-3.07c0-.72,4.83,1.2,6.84,2.23C211.83,42.18,204.68,43.25,204.5,42.16Z"/><path class="cls-5" d="M204.61,42.37a.36.36,0,0,1-.15-.23,8.12,8.12,0,0,0-.89-2.34,2.43,2.43,0,0,1-.3-.73c0-.09.06-.15.21-.17.93-.12,4.88,1.48,6.66,2.39.17.09.27.18.29.27.11.43-1.31.81-2.67,1h0C206.6,42.69,205.08,42.73,204.61,42.37Zm-1.27-3.27a2.36,2.36,0,0,0,.3.7,8.16,8.16,0,0,1,.89,2.36.27.27,0,0,0,.1.16,5.86,5.86,0,0,0,3.09.16c1.59-.21,2.72-.6,2.64-.93,0-.07-.09-.13-.22-.2-1.73-.89-5.72-2.5-6.63-2.38C203.4,39,203.34,39,203.34,39.1Z"/><path class="cls-4" d="M185.05,46.1a17.93,17.93,0,0,0-1.43-3c-.07-.71,4.91.83,7,1.69C192.37,45.55,185.32,47.17,185.05,46.1Z"/><path class="cls-4" d="M168.34,50.12a17.68,17.68,0,0,0-1.43-3c-.07-.72,4.91.82,7,1.69C175.66,49.58,168.61,51.19,168.34,50.12Z"/><path class="cls-5" d="M168.47,50.32a.33.33,0,0,1-.16-.21,8.37,8.37,0,0,0-1.07-2.26,2.25,2.25,0,0,1-.36-.7c0-.1.05-.16.19-.19.92-.2,5,1.09,6.84,1.86.17.07.27.15.3.25.14.41-1.24.9-2.58,1.18h0C170.48,50.49,169,50.65,168.47,50.32ZM167,47.17a2.35,2.35,0,0,0,.36.67,8.17,8.17,0,0,1,1.07,2.29.25.25,0,0,0,.12.15,5.78,5.78,0,0,0,3.08-.09c1.57-.33,2.67-.81,2.56-1.13q0-.11-.24-.18c-1.79-.75-5.89-2.05-6.79-1.86C167,47.05,166.94,47.1,167,47.17Z"/><path class="cls-4" d="M156.22,52.79A15.38,15.38,0,0,0,155,50.35c-.06-.59,4.05.68,5.77,1.39C162.25,52.34,156.44,53.68,156.22,52.79Z"/><path class="cls-4" d="M145.71,54.25a15.54,15.54,0,0,0-1.08-2.5c0-.59,4,.85,5.7,1.63C151.75,54,145.89,55.14,145.71,54.25Z"/><path class="cls-5" d="M145.81,54.41a.24.24,0,0,1-.13-.17,6.82,6.82,0,0,0-.8-1.9,2,2,0,0,1-.28-.6c0-.07.05-.13.17-.14.76-.13,4.07,1.06,5.57,1.76a.44.44,0,0,1,.24.22c.1.34-1.05.7-2.17.88h0A4.87,4.87,0,0,1,145.81,54.41Zm-1.15-2.65a2,2,0,0,0,.27.57,6.67,6.67,0,0,1,.81,1.92.22.22,0,0,0,.09.13,4.73,4.73,0,0,0,2.54,0c1.31-.22,2.23-.58,2.15-.84,0-.06-.08-.11-.19-.16-1.45-.68-4.78-1.88-5.53-1.76C144.7,51.67,144.66,51.7,144.66,51.76Z"/><path class="cls-2" d="M275.24,45.1s-4.86-1.61-8.26-2.3-8.32-1.65-12.4-2.15a132.89,132.89,0,0,0-13.42-1.09c-4.16-.05-9.89-.07-14.72.29s-11.16,1-16.19,1.72-9.74,1.49-14,2.3-11.4,2.41-15.56,3.39-11.22,2.83-15.2,3.62S156.15,52.65,152,53.2s-9.29,1.13-10.33,1.2-1.46.49-.27,1.19a32.49,32.49,0,0,0,6.87,2.85,82.28,82.28,0,0,0,13,2.33c4.85.48,9.46.72,14.26.91s17,.45,20.61.83S209.65,63.6,216,64.93s12.45,2.51,18.86,4.83a113.68,113.68,0,0,1,17.63,8,117.09,117.09,0,0,1,12.44,8.64s18.77,2.73,21.78-12.64S283.94,48.27,275.24,45.1Z"/><path class="cls-6" d="M265.29,85.63S232.87,60.91,189.56,62.4c0,0-43-.5-48.93-7.44,0,0,18.42,5.94,48.36,5C189,60,240.46,57.3,265.29,85.63Z"/><path class="cls-7" d="M280.05,47.82S255.83,29.59,182.63,47C182.63,47,243.65,36.29,280.05,47.82Z"/><path class="cls-8" d="M124.61,101.39c.79-.43,4.61-2.25,5.69-2.75s5.38-2.77,7.19-3.6,6-3,8.18-3.88,7.2-3,9.49-3.77,6.54-2.09,10.34-2.92,9.16-1.67,12.82-2.11a112.36,112.36,0,0,1,13.52-.66c4.55,0,10,.09,14.38.42s10.09.74,14,1.26,11.17,1.3,15.73,2S247.76,87,250.4,87.12a60.32,60.32,0,0,0,13.33-.49,33.12,33.12,0,0,0,12.06-4.51,21.19,21.19,0,0,0,6.56-7.19,22.53,22.53,0,0,0,2.41-8.06,30.07,30.07,0,0,0-.83-8.61A29.35,29.35,0,0,0,280.78,51a19.46,19.46,0,0,0-6-6s5.55,1.64,7.93,2.68,5.22,1.83,9,4.38a37,37,0,0,1,8.14,7.57,40.24,40.24,0,0,1,5.66,10.34A45.18,45.18,0,0,1,308,81a51,51,0,0,1-.19,11.21,52.44,52.44,0,0,1-1.41,6.29c-1.71,5.63-7.06,20.21-21.56,29.44a53,53,0,0,1-18.38,6.89S245.75,149.9,245,152s-3.77,6.2-6.32,8.66a28.55,28.55,0,0,1-10.92,7A32.18,32.18,0,0,1,214,169.54c-4.75-.35-49.54,2-61.29-2.55S111.17,108.72,124.61,101.39Z"/><path class="cls-9" d="M123.55,102.78S155.31,78.88,201,82.41c0,0,4.84-1.33,47.7,4.59,0,0,28.32,5.29,35.27-15.46,0,0,6.21-16.1-9.24-26.58,0,0,16.35,10.47,9.75,31.11,0,0-6,15.07-37.37,13.66C247.12,89.73,179.43,73.67,123.55,102.78Z"/><path class="cls-2" d="M187.18,160.7c7.24-2.28,14.5-6,22.06-5.48,10.62.8,26.49-6.2,30.62-17.42,1-2.73,25.08-11.89,29.14-12.85,16.33-3.87,30.75-10.59,39-35.3-.06.91-.16,1.78-.28,2.56a52.44,52.44,0,0,1-1.41,6.29c-1.71,5.63-7.06,20.21-21.56,29.44a53,53,0,0,1-18.38,6.89S245.75,149.9,245,152s-3.77,6.2-6.32,8.66a28.55,28.55,0,0,1-10.92,7A32.18,32.18,0,0,1,214,169.54c-4-.3-36.48,1.33-53.61-.88C169.59,166.85,178.27,163.49,187.18,160.7Z"/><path class="cls-10" d="M252,144.13c-3.71,3.77-6.73,7.08-7,7.9-.76,2.13-3.77,6.2-6.32,8.66a28.55,28.55,0,0,1-10.92,7A32.18,32.18,0,0,1,214,169.54c-1.32-.1-5.75,0-11.7.13C225.67,163.5,235,160,252,144.13Z"/><path class="cls-8" d="M252.63,113.44a17.25,17.25,0,0,1,6.8,2,14.23,14.23,0,0,1,4.49,4.09,16.94,16.94,0,0,1,2.35,5.21,26.12,26.12,0,0,1,.89,5.4c.13,1.56.3,4,.4,4.46a1.55,1.55,0,0,0,.87,1.18c.69.45,2.78,1.51,4.55,2.74a72,72,0,0,1,8,6.07,29.37,29.37,0,0,1,5.27,6.08,17.65,17.65,0,0,1,2.49,7.24,10.06,10.06,0,0,1-2.46,7.63,44.67,44.67,0,0,1-7.06,6.44c-1.89,1.33-4.08,2.68-5.26,3.56a18.94,18.94,0,0,1-5.07,3.32,18.37,18.37,0,0,1-6.36,1.54c-1.17,0-2.18-.43-1.85-1.46a15.63,15.63,0,0,1,.73-1.9,17.53,17.53,0,0,1-2.75,1,13.19,13.19,0,0,1-4.5.47c-.9-.21-1.61-.51-1.07-1.84s.62-1.53.62-1.53a12.54,12.54,0,0,1-2.21.53,7.93,7.93,0,0,1-3.42-.21c-.5-.31-1-.6-.48-1.66l.87-1.8a8.35,8.35,0,0,1-1.64.23,3.73,3.73,0,0,1-2.41-.5c-.37-.43-.48-.69-.15-1.46a22.57,22.57,0,0,1,3-4.38,25.68,25.68,0,0,1,4.9-4.72,18.39,18.39,0,0,1,3.86-2.12s-2.78-1-5.17-2.2a40.87,40.87,0,0,1-6.38-3.85,19.39,19.39,0,0,1-4.6-5.22,26.41,26.41,0,0,1-2.47-10.1,48.38,48.38,0,0,1-.31-7.33c.09-1.69.4-7.18,2.28-10.16s3-4.31,6-5.6A15.8,15.8,0,0,1,252.63,113.44Z"/><path class="cls-2" d="M272.25,173.58c1.28-1.8,2.93-2,6.8-4.44,3-1.95,7-4.69,8.24-8.3a13.54,13.54,0,0,0,.28-7.49,17,17,0,0,1,1.16,4.58,10.06,10.06,0,0,1-2.46,7.63,44.67,44.67,0,0,1-7.06,6.44c-1.89,1.33-4.08,2.68-5.26,3.56a18.94,18.94,0,0,1-5.07,3.32,18.37,18.37,0,0,1-6.36,1.54,3,3,0,0,1-1.46-.35C265.58,179.28,269.7,177.16,272.25,173.58Z"/><path class="cls-4" d="M137.78,105.9c-.05-2.27.94-3.79.86-4.35-.17-1.14-6.5-.16-9.07.61C127.41,102.81,137.82,107.55,137.78,105.9Z"/><path class="cls-5" d="M133.27,105.12h0c-2-.86-4.08-2.07-4-2.69,0-.15.12-.25.33-.32,2.27-.68,7.43-1.52,8.78-.93a.52.52,0,0,1,.35.36,2.81,2.81,0,0,1-.24,1,9.34,9.34,0,0,0-.62,3.33.33.33,0,0,1-.15.29C137.11,106.57,135,105.85,133.27,105.12Zm5-3.85c-1.31-.57-6.51.28-8.71.94-.17.05-.26.12-.26.22,0,.48,1.68,1.6,4,2.6,2.15.94,3.88,1.37,4.32,1.08a.22.22,0,0,0,.1-.21,9.43,9.43,0,0,1,.62-3.36,2.83,2.83,0,0,0,.24-1C138.57,101.44,138.48,101.34,138.3,101.27Z"/><path class="cls-4" d="M110.91,97.86c-.76-2.14-.29-3.89-.55-4.41-.52-1-6.23,1.89-8.42,3.42C100.09,98.16,111.46,99.42,110.91,97.86Z"/><path class="cls-5" d="M106.38,98.53h0c-2.14-.21-4.52-.7-4.68-1.3,0-.14,0-.27.21-.4,2-1.36,6.58-3.77,8.06-3.63a.48.48,0,0,1,.43.23,2.83,2.83,0,0,1,.1,1,9.37,9.37,0,0,0,.45,3.36.31.31,0,0,1,0,.33C110.48,98.7,108.2,98.7,106.38,98.53ZM110,93.29c-1.43-.13-6.1,2.3-8,3.62-.14.1-.21.2-.18.29.12.47,2.1,1,4.59,1.23s4.13.09,4.45-.33a.22.22,0,0,0,0-.22,9.44,9.44,0,0,1-.46-3.4,3,3,0,0,0-.08-1A.45.45,0,0,0,110,93.29Z"/><path class="cls-2" d="M237.05,130.35c.09-1.69.4-7.18,2.28-10.16s3-4.31,6-5.6a13.85,13.85,0,0,1,3.25-1c-6.22,5-5.24,27.69-1.21,32.63a41.15,41.15,0,0,0,26.79,14.8s-8.73,3.71-22.7.57c.21-.15.41-.31.64-.46a18.39,18.39,0,0,1,3.86-2.12s-2.78-1-5.17-2.2a40.87,40.87,0,0,1-6.38-3.85,19.39,19.39,0,0,1-4.6-5.22,26.41,26.41,0,0,1-2.47-10.1A48.38,48.38,0,0,1,237.05,130.35Z"/><path class="cls-8" d="M198.11,195.17s-.18,5-2.18,7.19-3.79,3.57-5.58,4a13.25,13.25,0,0,1-2.33.45,22.4,22.4,0,0,1-4,2.93c-1.73.84-4.78,2.52-7.91,2.25a2.38,2.38,0,0,1-1.5-.56c-.29-.49-.34-.57.6-2.86,0,0-.71.26-1.81.57a22.46,22.46,0,0,1-5.37.93c-1.67,0-2.29-.36-2.62-.82-.51-.71,1.1-3.43,1.1-3.43a18.79,18.79,0,0,1-4.4.89,11.13,11.13,0,0,1-4.43-.43c-.52-.29-.87-.62-.49-1.22s1.74-2.59,1.74-2.59-1,0-2.16-.14a9.5,9.5,0,0,1-3.68-1c-.47-.47-.44-.75-.07-1.18a37.12,37.12,0,0,1,3-3.73,23.34,23.34,0,0,1,5.11-3.76,25,25,0,0,1,9.3-2.88C171.76,189.63,190.67,188.62,198.11,195.17Z"/><path class="cls-8" d="M106.82,97.64s2,.07,4.08.34,5.87.87,9.63,1.63a89.16,89.16,0,0,1,12.79,3.55,48.62,48.62,0,0,1,10.27,5.49,74.17,74.17,0,0,1,8.68,8.11c1.42,1.75,15.07,59,5.72,61.42s-15.8,3.52-24.24,3.31-14.61-1-20.27-2.91a129.9,129.9,0,0,1-17.06-7.36c-4.49-2.36-12.82-6.66-17.7-7.67S56.36,94.83,106.82,97.64Z"/><path class="cls-2" d="M78.29,109.38c5.13.4,10.11,1.77,15.18,2.65,5.9,1,11.92,1.27,17.7,3,4.52,1.36,10.7,2.55,13.88,6.33,3.73,4.44,4.61,11,7,16.2,3.7,8.07,6.91,15.07,14,20.45,4.16,3.14,11.06.27,15.16-2.41.16,6.59-.7,21.92-3.25,22.57-9.35,2.39-15.8,3.52-24.24,3.31s-14.61-1-20.27-2.91a129.9,129.9,0,0,1-17.06-7.36c-4.49-2.36-12.82-6.66-17.7-7.67C75.24,162.83,65.35,128.17,78.29,109.38Z"/><path class="cls-10" d="M107,146.26c23,3.58,18,24,51,31.92-9.35,2.39-15.8,3.52-24.24,3.31s-14.61-1-20.27-2.91a129.9,129.9,0,0,1-17.06-7.36c-4.49-2.36-12.82-6.66-17.7-7.67-2.47-.51-8.17-18.13-6.64-35C77.17,129.9,82.81,142.5,107,146.26Z"/><path class="cls-8" d="M162.5,145.07c2.16-.92,9.25-3.34,16.16.24,0,0,2.45-.69,4.56-1s8.87-1.64,12.78-1.24,8.06.63,13.53,3.58a14.63,14.63,0,0,1,6.59,7.08,23,23,0,0,1,1.2,6.69,34.37,34.37,0,0,1-.78,7.59,60.28,60.28,0,0,1-4.37,12.36c-2,3.82-4.85,9-7.61,12a30.46,30.46,0,0,1-7,6.14c-1.9,1.05-28.35-5.73-27.55-7.77s2.21-5,2.93-6.32,2.26-4.11,2.26-4.11a18.08,18.08,0,0,1-6.52.69c-3.21-.35-7.09-1-9.43-2.33s-4.61-2.53-5.64-7.09C151.64,162.73,153.05,149.1,162.5,145.07Z"/><path class="cls-2" d="M183.22,164.19c2.5-1.26,12.15-7.55,12.15-7.55l-5.17,4.61a65.79,65.79,0,0,0-7.26,8c-2.29,3-3.3,4.46-5.07,7-1.13,1.66-1.56,2.57-2.56,4.27a28,28,0,0,1-6.6.42c-3.21-.35-7.09-1-9.43-2.33s-5.27-2.86-6.38-7.4c-.68-2.75-.06-6.89,0-9.88C159.77,167.44,172.49,169.6,183.22,164.19Z"/><path class="cls-3" d="M134.14,181.8a104.5,104.5,0,0,0,24.73-3.32l-.79-.47c-32.48,8-48.09-.09-62.36-7.39-8.76-4.48-17-8.72-28-8.72v.33c10.92,0,19.16,4.21,27.89,8.68C105.74,176.11,116.87,181.8,134.14,181.8Z"/><path class="cls-3" d="M148.65,113.05c-11.42-12.53-30.45-14.57-50.6-16.72L95.35,96l0,.32,2.71.29c15.71,1.68,29.74,3.35,40.68,9.09A53.47,53.47,0,0,1,148.65,113.05Z"/><path class="cls-4" d="M159.64,106c-1.95-1.66-2.49-3.64-3-4-1.08-.7-5,5.38-6.27,8.11C149.26,112.44,161.06,107.22,159.64,106Z"/><path class="cls-5" d="M155.6,109.23h0c-2.21,1-4.81,1.89-5.31,1.39-.11-.11-.12-.28,0-.51,1.13-2.43,4.28-7.41,5.79-8.12a.56.56,0,0,1,.56,0,3,3,0,0,1,.69,1,10.53,10.53,0,0,0,2.36,3,.36.36,0,0,1,.13.34C159.71,107.07,157.47,108.36,155.6,109.23Zm.52-7.14c-1.47.69-4.65,5.71-5.74,8.07-.09.18-.09.31,0,.38.39.39,2.61-.22,5.18-1.41,2.4-1.11,4.07-2.25,4.15-2.84a.26.26,0,0,0-.1-.24,10.48,10.48,0,0,1-2.37-3,3.13,3.13,0,0,0-.66-.93A.48.48,0,0,0,156.12,102.09Z"/><path class="cls-4" d="M189.44,96.59c-1.76-2.2-1.93-4.45-2.45-4.94-1-1-6.52,4.76-8.46,7.45C176.89,101.37,190.72,98.19,189.44,96.59Z"/><path class="cls-5" d="M184.4,99.23h0c-2.59.64-5.58,1-6,.39-.1-.14-.07-.33.09-.55,1.72-2.39,6.16-7.12,8-7.56a.6.6,0,0,1,.6.1,3.39,3.39,0,0,1,.55,1.19,11.5,11.5,0,0,0,1.91,3.75.41.41,0,0,1,.07.4C189.29,97.75,186.61,98.68,184.4,99.23Zm2.06-7.6c-1.73.43-6.21,5.19-7.88,7.51q-.2.26-.09.42c.33.49,2.86.3,5.89-.45,2.82-.7,4.86-1.59,5.07-2.2a.27.27,0,0,0-.06-.28,12,12,0,0,1-1.93-3.79,3.51,3.51,0,0,0-.51-1.15A.49.49,0,0,0,186.46,91.63Z"/><path class="cls-4" d="M221.37,94.83c-1.27-2.67-.9-5-1.3-5.64-.81-1.26-7.82,3.28-10.46,5.55C207.38,96.66,222.29,96.77,221.37,94.83Z"/><path class="cls-5" d="M215.58,96.3h0c-2.8,0-6-.3-6.24-1.06-.06-.18,0-.36.23-.55,2.34-2,8-5.76,10-5.78a.66.66,0,0,1,.6.25,3.51,3.51,0,0,1,.26,1.35,12.33,12.33,0,0,0,1,4.29.44.44,0,0,1,0,.43C220.93,96,218,96.27,215.58,96.3ZM219.52,89c-1.87,0-7.6,3.79-9.87,5.75-.17.15-.24.28-.19.41.22.58,2.85,1,6.12,1,3.06,0,5.35-.44,5.71-1,.06-.1-1.09-3.06-1-4.64C220.28,89.92,220.11,88.91,219.52,89Z"/><path class="cls-4" d="M252,98.15c-1-2.7-.46-4.94-.8-5.59-.68-1.29-7.86,2.54-10.61,4.54C238.24,98.77,252.7,100.11,252,98.15Z"/><path class="cls-4" d="M177.53,114.82c-1.72-1.55-2.17-3.36-2.65-3.7-1-.67-4.69,4.75-5.91,7.21C167.93,120.4,178.79,116,177.53,114.82Z"/><path class="cls-5" d="M173.78,117.65h0c-2,.87-4.42,1.59-4.86,1.12-.1-.11-.1-.26,0-.46,1.09-2.18,4.09-6.63,5.48-7.23a.51.51,0,0,1,.51,0,2.78,2.78,0,0,1,.6.9,9.62,9.62,0,0,0,2.06,2.81.33.33,0,0,1,.11.31C177.57,115.79,175.51,116.91,173.78,117.65Zm.66-6.47c-1.35.58-4.37,5.06-5.43,7.17-.08.16-.08.28,0,.35.33.36,2.37-.13,4.74-1.14,2.21-1,3.75-2,3.84-2.47a.23.23,0,0,0-.08-.23,9.74,9.74,0,0,1-2.08-2.83,2.85,2.85,0,0,0-.57-.87A.43.43,0,0,0,174.44,111.18Z"/><path class="cls-4" d="M198.38,108.49c-1.68-1.88-1.94-3.88-2.42-4.3-1-.84-5.61,4.56-7.22,7C187.38,113.35,199.6,109.86,198.38,108.49Z"/><path class="cls-5" d="M194,111.08h0c-2.29.7-4.94,1.19-5.36.63-.1-.12-.08-.29.05-.5,1.44-2.21,5.19-6.64,6.76-7.12a.56.56,0,0,1,.55.06,3.08,3.08,0,0,1,.54,1,10.56,10.56,0,0,0,1.88,3.27.35.35,0,0,1,.08.35C198.3,109.54,196,110.49,194,111.08Zm1.48-6.88c-1.52.46-5.31,4.92-6.69,7.07-.11.16-.13.29-.06.38.32.43,2.57.14,5.23-.67,2.5-.76,4.28-1.64,4.44-2.2a.26.26,0,0,0-.06-.25,10.37,10.37,0,0,1-1.9-3.3,3.08,3.08,0,0,0-.51-1A.45.45,0,0,0,195.48,104.2Z"/><path class="cls-4" d="M219.82,107.61c-1.25-2.33-1-4.43-1.42-5-.78-1.09-6.84,3.29-9.1,5.45C207.4,109.89,220.73,109.31,219.82,107.61Z"/><path class="cls-5" d="M214.71,109.19h0c-2.5.15-5.33,0-5.62-.66-.07-.15,0-.32.18-.5,2-1.91,6.91-5.52,8.63-5.62a.57.57,0,0,1,.55.19,3.17,3.17,0,0,1,.29,1.2,11.08,11.08,0,0,0,1.13,3.79.37.37,0,0,1,0,.38C219.48,108.66,216.85,109.06,214.71,109.19Zm3.2-6.67c-1.67.1-6.62,3.74-8.56,5.6-.15.14-.2.26-.16.37.23.51,2.6.76,5.52.59,2.73-.17,4.76-.64,5.06-1.17a.26.26,0,0,0,0-.27,11,11,0,0,1-1.14-3.83,3.26,3.26,0,0,0-.28-1.15A.5.5,0,0,0,217.91,102.52Z"/><path class="cls-4" d="M267.13,100.05h0c-2.27.27-4.85.25-5.14-.4a.47.47,0,0,1,.14-.5c1.75-2,6.06-5.8,7.62-6a.48.48,0,0,1,.5.17,3.26,3.26,0,0,1,.33,1.17,11.63,11.63,0,0,0,1.17,3.72.38.38,0,0,1,0,.37C271.45,99.32,269.07,99.83,267.13,100.05Z"/><path class="cls-4" d="M287.67,92.7h0c-1.28,1-2.84,1.8-3.23,1.36a.52.52,0,0,1-.09-.46c.38-2.22,1.7-6.78,2.58-7.45a.28.28,0,0,1,.36,0,3.35,3.35,0,0,1,.59.87,11.92,11.92,0,0,0,2,2.68.47.47,0,0,1,.14.3C290,90.67,288.76,91.87,287.67,92.7Z"/><path class="cls-4" d="M296.25,79.84h0c-.42,1.24-1,2.48-1.3,2.25a.61.61,0,0,1-.15-.36c-.29-2-.65-6.19-.36-7q.07-.19.18-.15a2.18,2.18,0,0,1,.48.51,6.91,6.91,0,0,0,1.56,1.54.31.31,0,0,1,.13.2A7.11,7.11,0,0,1,296.25,79.84Z"/><path class="cls-4" d="M298.13,65.1a13.5,13.5,0,0,0,2.26-1.45c.53-.08-1,4.82-1.85,6.87C297.85,72.24,297.34,65.38,298.13,65.1Z"/><path class="cls-11" d="M6.49,132.16c0,1.63,1.22,5.51,2.67,5.56.92,0,1.8-4.09,2.19-5.47S6.53,130.53,6.49,132.16Z"/><path class="cls-11" d="M23.38,138c0,1.64,1.28,5.51,2.74,5.54.91,0,1.75-4.11,2.13-5.49S23.41,136.42,23.38,138Z"/><path class="cls-12" d="M51.94,137.74a48.88,48.88,0,0,1-5.65,5.86,90.27,90.27,0,0,1-8.46,6.72,71.22,71.22,0,0,1-6.19,3.93c-2.43,1.27-4.32,2.63-5.72,3.52s-2.81,1.94-2.72,2.82,1.84,2.66,6.09,3.47a32.91,32.91,0,0,0,9.39.77,27.28,27.28,0,0,0,8.82-2.23,67.64,67.64,0,0,0,8.73-5.07c3.26-2.22,5.93-4.29,8.86-6.13a35.33,35.33,0,0,1,11.16-4.79c4.78-1.14,9.12-1.89,12.29-2.87s6.28-2.47,7.23-3.49a18.27,18.27,0,0,1-2.71,1.06,12.2,12.2,0,0,1-5.31.54c-2.39-.34-3.38-1-6.19-1.57a32.18,32.18,0,0,0-8-.94,70.75,70.75,0,0,0-9,.55c-3.59.34-4.43.86-7,.15A34.35,34.35,0,0,1,51.94,137.74Z"/><path class="cls-13" d="M34.45,155.09c4.09-2.38,18-9.93,22.62-15.2a35.81,35.81,0,0,1-5.13-2.15,48.88,48.88,0,0,1-5.65,5.86,90.27,90.27,0,0,1-8.46,6.72,71.22,71.22,0,0,1-6.19,3.93c-2.43,1.27-4.32,2.63-5.72,3.52s-2.81,1.94-2.72,2.82,1.53,2.32,4.93,3.21C21.62,160,27.49,159.15,34.45,155.09Z"/><path class="cls-14" d="M85.92,144.38a59.08,59.08,0,0,0-6.3-1.06,30.24,30.24,0,0,0-4.47-.07,29,29,0,0,0-4.3-1.05c-1.84-.23-9-1.15-14.53,1.76-2.67,1.42-8.78,6.09-10.71,8.47s-5.84,6.43-2.31,9.29c1.12.91,4.14.91,4.14.91s2.53-1.17,4.3-2.25,5.17-3.33,7.64-5,4.3-3.09,6.78-4.66a28.86,28.86,0,0,1,8.55-3.6C78.1,146.2,85.92,144.38,85.92,144.38Z"/><path class="cls-8" d="M51.61,114.64s.53-2.14.84-4c1.41-8.38,5-9.3,6.79-9.48A11.26,11.26,0,0,1,65,102.41a22.7,22.7,0,0,0,1.16-3.11c.28-1.18,1-3.6,1.67-5.48s1.1-2.78,2-3.34,4.65,5,3.08,10.19S69.9,114.56,64,115.79,51.61,114.64,51.61,114.64Z"/><path class="cls-8" d="M112.68,101.67c-1.53-1.15-4.75-4.08-6.26-5.38s-9-7.32-15.79-3.79A17.82,17.82,0,0,0,86,96.16a9.33,9.33,0,0,1-1.87-1.1c-1.11-.81-4-3.11-5.45-4.28A7.81,7.81,0,0,0,73,89a5.84,5.84,0,0,0-4.35,2.78s1.66.55,2.15,3.27a14.2,14.2,0,0,1-.56,7.39,28.5,28.5,0,0,1-4.5,6.3,18.38,18.38,0,0,0-7.76,3.9,38.2,38.2,0,0,0-6.21.2,52.21,52.21,0,0,0-10.18,2.75,35.44,35.44,0,0,0-11.1.28,34.6,34.6,0,0,0-7.57-3.07c-3.86-1-7.48-1.56-11-.56a13.69,13.69,0,0,0-7.35,4.46,14.59,14.59,0,0,0-2.92,7.54c-.16,1.94.21,5.41,1.24,7.21s1.87,2.29,3.85,2,4-1.36,6-1a19.08,19.08,0,0,1,7,3.58c2.41,1.82,4.55,3,7.74,2.34a40.93,40.93,0,0,0,8.68-2.84,12.43,12.43,0,0,1,6.6-1.46c2.18.2,4.21.87,8.31,3.17s6.42,3.28,9.82,3.1,8.26-1.13,12.43-.94a45.93,45.93,0,0,1,10.75,1.52c2.7.83,4.76,1.32,7.37.82a27,27,0,0,0,4.28-1.15,39.41,39.41,0,0,1-5,2.47c-1.68.55-7.33,2-10.35,2.62a47.27,47.27,0,0,0-9.94,2.81,45.81,45.81,0,0,0-8.18,4.83c-3.22,2.27-5.31,3.87-8.54,5.84a42.5,42.5,0,0,1-10,4.79,25.62,25.62,0,0,1-9.49.83,33.53,33.53,0,0,1-7.52-1.43c-2.05-.76-3.44-2-3.49-2.7s.54-1.67,3.95-3.69,6.05-3.56,8.17-4.91a91.4,91.4,0,0,0,8.42-6.13,60.28,60.28,0,0,0,8.86-9s-4.11-3.34-4.68-1.92a17.77,17.77,0,0,1-3.39,5.77c-1.75,1.78-3.46,4.16-6.26,6.23a72.83,72.83,0,0,1-7.43,5.36c-3.7,2.25-4.58,2.31-7.12,4.14s-4.5,3.39-4.12,5.69,3,5.19,6.74,6.68,6.37,1.86,11,2.21a66.74,66.74,0,0,0,12.86-.33A59.57,59.57,0,0,0,62,168c4.22-1.55,9.23-3.36,12.88-3.81a57.82,57.82,0,0,1,12.71-.58c4.61.43,7.73.91,10.5.71A40.66,40.66,0,0,0,108.6,162a33.59,33.59,0,0,0,9.4-5.15c2.74-2.23,6.11-5.22,7.71-7.82a23,23,0,0,0,3.66-9.4c.38-2.09,2.73-18-1.9-26.86S112.68,101.67,112.68,101.67Z"/><path class="cls-2" d="M129.32,119.67a166.27,166.27,0,0,1-5,16.34,37.79,37.79,0,0,1-6.41,10.88c-2.85,3.17-6.5,5-10.42,6.5a64.07,64.07,0,0,1-13.61,3.71c-8.33,1.3-16.44,3.08-23.92,7.12-1.37.74-2.7,1.54-4,2.38a47.76,47.76,0,0,1,8.9-2.38,57.82,57.82,0,0,1,12.71-.58c4.61.43,7.73.91,10.5.71A40.66,40.66,0,0,0,108.6,162a33.59,33.59,0,0,0,9.4-5.15c2.74-2.23,6.11-5.22,7.71-7.82a23,23,0,0,0,3.66-9.4C129.67,137.92,131.08,128.34,129.32,119.67Z"/><path class="cls-2" d="M123.74,130.1s-1.69-6-4.78-8.39-10.07-1.88-16.25,1.88c0,0,4.83-.46,4,1.4a45.29,45.29,0,0,1-4.89,8c-1.79,2.17-4,5.18-7.63,6.46s-6.61,1.17-10.75-.44-7.26-2.12-13.56-1.36-10.23,1.75-15.39-1.16-8.92-6.11-15.68-3.87-9.13,4.42-13.24,3.7-7.23-5.47-11.63-5.84S5.58,132.73,4,131.55s-1.59-1.3-1.59-1.3.91,2.6,2,2.95a4.94,4.94,0,0,0,3.75,0c1.87-.61,3.06-1,4.63-.71a11.52,11.52,0,0,1,5.89,2.74c2.72,2.15,3.64,3.12,6.62,3.23a16.67,16.67,0,0,0,7.63-1.56c2.47-1,6.28-2.83,8.36-2.83a17.18,17.18,0,0,1,9,2.73c3.9,2.31,6.67,3.51,9.46,3.58a47,47,0,0,0,7-.57c2.72-.27,8.15-.88,12.29,0s7.53,2,10,2.18,5.35-.92,7.29-1.65a15.12,15.12,0,0,0,7.75-6.42c1.89-2.76,5.5-7.85,10.88-8.64C118.62,124.69,123.53,129.91,123.74,130.1Z"/><path class="cls-15" d="M125.35,132.28c-1.46-2.94-4.14-6.34-6.86-7.93a13.12,13.12,0,0,0-8.35-2.17s-5.69,9.41-7.28,11.4c-1.41,1.78-4.59,5.53-7.69,7.35a27.41,27.41,0,0,1-4.44,2.13c-1.68.55-7.33,2-10.35,2.62a47.27,47.27,0,0,0-9.94,2.81,45.81,45.81,0,0,0-8.18,4.83c-3.22,2.27-5.31,3.87-8.54,5.84a42.5,42.5,0,0,1-10,4.79,25.62,25.62,0,0,1-9.49.83,33.53,33.53,0,0,1-7.52-1.43c-2.05-.76-3.44-2-3.49-2.7s.54-1.67,3.95-3.69,6.05-3.56,8.17-4.91a91.4,91.4,0,0,0,8.42-6.13,68.31,68.31,0,0,0,8.18-8.12,20.44,20.44,0,0,0-4.26-2.19,16.83,16.83,0,0,1-3.13,5.13c-1.75,1.78-3.46,4.16-6.26,6.23a72.83,72.83,0,0,1-7.43,5.36c-3.7,2.25-4.58,2.31-7.12,4.14s-4.5,3.39-4.12,5.69,3,5.19,6.74,6.68,6.37,1.86,11,2.21a66.74,66.74,0,0,0,12.86-.33A59.57,59.57,0,0,0,62,168c4.22-1.55,9.23-3.36,12.88-3.81a57.82,57.82,0,0,1,12.71-.58c4.61.43,7.73.91,10.5.71A40.66,40.66,0,0,0,108.6,162a33.59,33.59,0,0,0,9.4-5.15c2.74-2.23,6.11-5.22,7.71-7.82a30.89,30.89,0,0,0,1.78-3.17c.07-1,.09-2,.07-3A25.94,25.94,0,0,0,125.35,132.28Z"/><path class="cls-10" d="M127.56,142.86a26.45,26.45,0,0,0-2-10.18,32.11,32.11,0,0,1-8.78,14.54c-10.48,10-23,8.4-40.5,11.76-8.65,1.66-14.3,4.21-26.13,8.43-4.4,1.56-10.47,1.91-15.18,1.8a24.71,24.71,0,0,1-12.52-3.52,11.54,11.54,0,0,1-2.29-1.95,12.09,12.09,0,0,0,6.17,5.1c3.75,1.49,6.37,1.86,11,2.21a66.74,66.74,0,0,0,12.86-.33A59.57,59.57,0,0,0,62,168c4.22-1.55,9.23-3.36,12.88-3.81a57.82,57.82,0,0,1,12.71-.58c4.61.43,7.73.91,10.5.71A40.66,40.66,0,0,0,108.6,162a33.59,33.59,0,0,0,9.4-5.15c2.74-2.23,6.11-5.22,7.71-7.82a30.89,30.89,0,0,0,1.78-3.17C127.56,144.83,127.58,143.85,127.56,142.86Z"/><path class="cls-10" d="M118.49,124.35a13.12,13.12,0,0,0-8.35-2.17s-5.69,9.41-7.28,11.4c-1.41,1.78-4.59,5.53-7.69,7.35l-.47.27a19.62,19.62,0,0,0,1.94-.61c3.57-1.35,5.21-3.56,7.35-6.71,1.89-2.76,5.5-7.85,10.88-8.64,3.72-.54,8.4,3.81,8.68,4.06A17.83,17.83,0,0,0,118.49,124.35Z"/><path class="cls-3" d="M107.91,97.13c-3.61-3.41-8.51-6.74-14.45-5.78-6.95,1.12-9.34,8.24-14.91,10.91,6.17-2.36,9.4-9.49,15-10.39,5-.8,10.33,2.2,13.89,5.56,1.65,1.56,5.19,4.18,5.19,4.18S109.55,98.69,107.91,97.13Z"/><path class="cls-3" d="M65.32,115.13c-9-4-17.4-1.34-22.26.2-.4.12-.64.16-1,.27l-1-.22s1.36-.31,1.75-.43c5.8-1.84,17-6,28.28,3.16C71.1,118.11,67,115.86,65.32,115.13Z"/><path class="cls-3" d="M30.11,116.11l-.07-.33c8.78-1.72,16.89-.43,21.69,3.47a23.61,23.61,0,0,0-5-2.14A37.78,37.78,0,0,0,30.11,116.11Z"/><path class="cls-3" d="M109.55,122.15c-7.7,13.3-14.09,22.69-25,18.78-6.75-2.43-14.61-2-19.12-1.38-4.16.55-6.55.59-7.6.34a25.76,25.76,0,0,1-7.11-3c-2.62-1.55-5.09-3-8.47-3.15H42.2c-2-.07-4.41.93-6.93,2-3.27,1.37-6.94,2.91-10.6,2.44a5.46,5.46,0,0,1-1.89-.54,30.62,30.62,0,0,1-3.41-2.15c-1-.67-1.84-1.43-2.87-2-2.67-1.55-4.73-1.9-7.57-.81-2,.79-4.27,1.5-5.69-.82-2-3.28-1.84-8.86.07-12.69a12.78,12.78,0,0,1,8.09-6.57,24.41,24.41,0,0,1,2.46-.5c5.67-.68,11.79,1.67,16.59,4.27,2,1.09,5.9,3.46,5.9,3.46-4.63-4.48-14.42-9.18-22.68-8a19.28,19.28,0,0,0-2.29.48A13.28,13.28,0,0,0,3,119a14.93,14.93,0,0,0-.43,12.1,4.48,4.48,0,0,0,1.58,2.15,3.11,3.11,0,0,0,1.57.46A8.79,8.79,0,0,0,9,133c2.42-.94,5.72.05,7.2.88,1,.56,2,1.22,2.94,1.89a26.11,26.11,0,0,0,3.38,2.3,6.15,6.15,0,0,0,2,.6c3.79.52,7.52-1.21,10.87-2.61a17.72,17.72,0,0,1,6.85-1.77c3.34.11,5.74,1.37,8.33,2.91a25,25,0,0,0,7.63,3.27,12.86,12.86,0,0,0,3.84.07c1.08-.08,2.25-.2,3.51-.34,5.29-.57,11.88-1.28,18.92,1.06a15.39,15.39,0,0,0,4.27.83c8.68.35,15.52-8.42,22.25-20Z"/><path class="cls-3" d="M58.08,113l-.74-.18c3.32-3.3,10.39-5.81,17.2-4.78C67.88,107.66,61.33,109.79,58.08,113Z"/><path class="cls-3" d="M86.33,95.77a16.21,16.21,0,0,1-4.45-2.66c-2.47-2.23-4.87-4.49-8.61-4.41-5,.11-5.77,5.21-6.77,8.61-.28.92-1.32,4.39-2,6.48a32.06,32.06,0,0,0,2.37-6.39c1-3.36,2.07-8,6.54-8.1,3-.09,5.86,2.09,8.28,4.22a27.65,27.65,0,0,0,4,3C85.91,96.36,86,96,86.33,95.77Z"/><path class="cls-3" d="M52,112.92l-1,.16c1.24-1.52,1.84-10.28,7-11.82a10.51,10.51,0,0,1,7.08.94l-.18.49c-2.39-1.17-5.06-1.78-6.78-1.12C53.32,103.43,52.84,111.82,52,112.92Z"/><path class="cls-3" d="M122.15,127.16c-6.76-8.84-16.22-5.28-21.12-2.84C101,124.32,113.84,118.51,122.15,127.16Z"/><path class="cls-11" d="M47.5,162.51c.62-.27,1.2-.6,1.8-.9l0,0c-.67-1.07-2.49-4-3.24-3.72-1.16.45-1.14,4.08-.64,5.48C46.1,163.05,46.81,162.81,47.5,162.51Z"/><path class="cls-16" d="M53.41,152.82s9.49-9.07,21.2-9.7a54.13,54.13,0,0,1,12.33,1.1l-1.24.35a33.9,33.9,0,0,0-10.81-1.13C63.75,144.35,53.41,152.82,53.41,152.82Z"/><path class="cls-3" d="M130.41,125.15c-.18-5.4-1.88-9.33-6-12.09s-9.22-3-14.53-1.58a58.07,58.07,0,0,0-7.2,3,70,70,0,0,1,7.55-2.4c7.46-2,12.11.41,13.52,1.38,3.86,2.65,5.84,6.54,6,11.94.27,9.76-.64,17.71-3.09,21.8C120.13,158.1,105,165.67,92.94,164c-14.69-2-22.4.75-29.21,3.17A53.58,53.58,0,0,1,53.84,170l-1.15.18c-3.09.48-25.2,3.56-32.14-6.3a3.45,3.45,0,0,1-.54-3.11c.9-2.89,5.54-5.41,8.93-7.19,7.72-4.06,17.45-13,19-18.11l-.32-.09c-1.51,5-11,13.85-18.78,17.88-3.26,1.68-8.38,4.4-9.37,7.59a3.74,3.74,0,0,0,.58,3.4c2.91,4.13,8.88,6.36,17.31,7,.61,0,1.22.08,1.82.1a71.34,71.34,0,0,0,13.53-.81l1.22-.19a54.36,54.36,0,0,0,9.91-2.82C71,165,78.29,162.38,92.9,164.37c5.64.77,12.45-.52,18.7-3.53A36.06,36.06,0,0,0,127,147.32C129.46,143.18,130.74,135,130.41,125.15Z"/><path class="cls-3" d="M22.9,126.82l1.2-.84c2.18-1.54,6.48-3.09,8.76-1.51,0,0-1.19-.3-1.33-.14.93.33,1.43,1.47-.6,2.27a10.4,10.4,0,0,1-6.67-.33Z"/><path class="cls-3" d="M26.83,122s3.85-2,6.08.64C30.45,120.81,26.83,122,26.83,122Z"/><path class="cls-2" d="M88.83,111.75c4.75,3.08,9.54.66,12.31-.49.64-5.52-1.48-10.75-6-13.52-1.23-.74-4.81,2.74-6.55,6S86.61,110.33,88.83,111.75Z"/><path class="cls-3" d="M89.7,112.12c3.76,2.41,8.67.29,11.44-.86.64-5.52-1.53-10.43-4.56-12.55-1.18-.82-4.19,1.46-5.93,4.74S88.13,111.11,89.7,112.12Z"/><path class="cls-17" d="M90,111.94a10.67,10.67,0,0,0,10.94-.76c.64-5.46-1.41-10-4.4-12.1-1.17-.82-4.11,1.38-5.69,4.38C89,107,88.48,110.94,90,111.94Z"/><path class="cls-18" d="M92.74,107.6A3.54,3.54,0,1,0,97,105,3.54,3.54,0,0,0,92.74,107.6Z"/><path class="cls-17" d="M93.1,107.24a1.07,1.07,0,1,0,1.29-.78A1.07,1.07,0,0,0,93.1,107.24Z"/><path class="cls-3" d="M106.33,109.58c-3.9.34-6.47,3.39-9.86,4a10.75,10.75,0,0,1-8.64-2.47A12.79,12.79,0,0,0,96,112.87C100,112.54,101.86,109.37,106.33,109.58Z"/><path class="cls-3" d="M101.58,111.1a14.73,14.73,0,0,0-.8-6.85A11.48,11.48,0,0,0,93.49,97a13.85,13.85,0,0,1,6.68,7.32c1.53,4.24.58,7,.58,7Z"/><path class="cls-3" d="M65.14,104.39c0,3.49,1.36,4.92,2.66,2.74,2.39-4,3.72-9.8,2.7-12.63C70.5,94.5,65.2,99.64,65.14,104.39Z"/><path class="cls-17" d="M65.36,104.21c0,3.1,1.45,4.46,2.74,2.28,2.39-4,3.47-9,2.45-11.78C70.55,94.71,65.34,99.43,65.36,104.21Z"/><path class="cls-18" d="M67,102.87c-.79,1.54-.87,3.53-.19,4.25s2.59-1.71,3.35-4.83a2.22,2.22,0,0,0-.48-.9C69,100.67,67.84,101.33,67,102.87Z"/><path class="cls-17" d="M67.24,102.6a1.19,1.19,0,0,0,.05,1.26c.25.26.63.13.86-.3a1.2,1.2,0,0,0-.06-1.25C67.84,102,67.46,102.17,67.24,102.6Z"/><path class="cls-3" d="M66.25,108.57l-1.44.56c4.83-3.24,7.45-11,5.06-16.36C72.68,96.6,71.17,105.27,66.25,108.57Z"/><path class="cls-3" d="M95.92,140.16a7.45,7.45,0,0,1-2.12,1c-3.56,2.24-9.38,3.41-13.4,4.31-4.77,1.07-9.7,2.17-14.32,5.09-2,1.29-4.09,2.75-6.08,4.16-6.26,4.43-12.73,9-20.22,9.87-5.53.63-15.5-.92-16.44-3.88-.45-1.43,4.86-4.14,10.48-7.51,4.27-2.54,14.1-9.5,18.22-15.34l-.24-.24c-3.64,5.13-13.46,12.49-18.13,15.29-6.83,4.07-11.16,6.28-10.65,7.9.78,2.48,7.13,4,12.61,4.23a27,27,0,0,0,4.19-.12C47.4,164,53.9,159.43,60.19,155c2-1.41,4-2.87,6.07-4.15,4.57-2.89,9.47-4,14.22-5.05,3.35-.75,11.34-1.77,16.36-5.33a21.28,21.28,0,0,0,7.23-8.43S100.07,137.59,95.92,140.16Z"/><path class="cls-11" d="M26.1,156.94c-.53-1.33-.58-5.12.61-5.58.75-.28,2.57,2.65,3.24,3.72C31,156.71,26.8,158.64,26.1,156.94Z"/><path class="cls-3" d="M115.56,158.42s11.56-13.63-1.49-29.71c13.5,15.65,2.27,29.19,2.27,29.19Z"/><path class="cls-3" d="M100.52,164.06s10.75-8.88,3.55-22.89c8,14.05-2.93,22.83-2.93,22.83Z"/><path class="cls-3" d="M86.41,163.56s7.79-5.34,1.66-17.3c6.5,11.19-.93,17.25-.93,17.25Z"/><path class="cls-3" d="M71.37,165A13.08,13.08,0,0,0,71,151.05c4.86,5.67,1.08,13.7,1.08,13.7Z"/><path class="cls-3" d="M54,170.18s4.84-3.18,1-9.73c4.27,6.51-.5,9.58-.5,9.58Z"/><path class="cls-2" d="M198,196.29s0,4.4-2.55,6.88a10.87,10.87,0,0,1-7.39,3.64,16.68,16.68,0,0,1-4.44,3.2c-2.29,1-5.69,2.56-8.41,1.77A24.21,24.21,0,0,0,183,209.1c3-1.71,4.5-3.74,5.65-4.29S193.71,203,198,196.29Z"/><path class="cls-3" d="M171.33,147.34s3.65-1.29,5.41-1.74c12.69-3.26,21.51-3.59,28.7-1,8,2.85,11,6.76,11.88,14,1.6,13.6-10.45,35.16-19.81,40.33l.13-.59c9.28-5.13,20.94-26.21,19.35-39.71-.83-7.07-4.56-11.21-11.66-13.71C197.31,142.06,187.57,142.74,171.33,147.34Z"/><path class="cls-3" d="M170.72,189.71c9.31-20.41,22.83-31.42,22.83-31.42S179.93,168.17,170,189.8Z"/><path class="cls-3" d="M217,170c18.76,0,27.7-16.57,27.79-16.74l-.28-.15c-.1.17-9.31,16.82-28.36,16.38V170Z"/><path class="cls-3" d="M141.17,54.29A226.43,226.43,0,0,0,172,49.23c17.41-4.38,38-9,58.79-9.73,20.35-.75,38.29,2.23,54.69,9.13a40.71,40.71,0,0,1,4.52,2.1c11.44,6.68,15.56,18.79,16.43,21.4a43.7,43.7,0,0,1,.78,23.93c-6.3,26.67-36.75,37.68-39.68,38.69v-.52c4.75-1,19.25-4.81,29.8-18.33s12.88-31.05,8.79-43.68a42.56,42.56,0,0,0-9.62-16.08A35.61,35.61,0,0,0,289.79,51a37.58,37.58,0,0,0-4.46-2.08c-38.21-16-78.42-8.14-113.28.62a199,199,0,0,1-30.85,5.07.34.34,0,0,0-.17.62c9.2,5.41,23.88,5.93,40.76,6.53,12.75.44,54.39-.12,83.37,24.61l-.5.12C238.37,65.27,208.36,63,181.78,62.08c-17-.59-31.74-1.11-41-6.61C140,55,140.27,54.39,141.17,54.29Z"/><path class="cls-3" d="M133.61,96.81c7.21-3.58,14.67-7.28,22.45-9.87,15.48-5.15,50-7.85,83.39-1.23,0,0,21.15,4.2,33.34-2.07a24.12,24.12,0,0,0,8.84-7.82,19.27,19.27,0,0,0,2.15-4.88c3.06-10.72-2.65-22.79-9.6-26l.14-.3A24.46,24.46,0,0,1,283,55c.36.84,4.8,11.59-1.14,21.07a22.63,22.63,0,0,1-8.95,7.88c-1.45.79-6.57,3.42-18,3.53A75.1,75.1,0,0,1,239.41,86c-17.53-3.73-60-6.53-83.24,1.21-7.76,2.58-15.21,6.27-22.41,9.85-2.49,1.23-5,2.49-7.59,3.71a4.7,4.7,0,0,0-.51-.12C128.33,99.42,131,98.09,133.61,96.81Z"/><path class="cls-3" d="M170.29,181.42a16.67,16.67,0,0,0,4.85-.66l.36-.82c-5.31,1.64-13,.39-17.14-1.92a10.09,10.09,0,0,1-4.13-4c.33,1.51,1.71,3,4,4.32A25.68,25.68,0,0,0,170.29,181.42Z"/><path class="cls-3" d="M178.21,145.42l.86-.21A18.12,18.12,0,0,0,165.81,144C173.76,142.5,177.79,145.33,178.21,145.42Z"/><path class="cls-3" d="M187.75,207.08c3-.19,10.21-2.44,10.21-10.79,0,0-.14,8.56-9.86,10.33Z"/><path class="cls-3" d="M180.12,201.69c-2.26,1.59-4.72,6.35-5.53,8.85-.29.89.64,1.63,3.17,1.24,6.19-.94,11-5.81,11-5.81-2.11,3.21-7.58,5.65-11,6.06-3.1.36-3.91-.31-3.45-1.67C175.16,208,177.17,203.24,180.12,201.69Z"/><path class="cls-3" d="M165.23,208.14c1.07-2.5,3.83-8.45,8.37-9.47-3.93,1.33-7,7.08-8.11,9.68-.39.93.59,1.79,3.41,1.57a20.51,20.51,0,0,0,6.5-1.72,1.14,1.14,0,0,0-.16.39v.09a21.36,21.36,0,0,1-6.31,1.5C165.48,210.34,164.63,209.56,165.23,208.14Z"/><path class="cls-3" d="M157,205.18c1.18-2.4,6.19-9.33,10.61-9.92-3.87,1-8.92,7.58-10.31,10-.86,1.47,4.6,2.07,9.42.31a3.05,3.05,0,0,0-.2.46C161,207.63,156.09,206.94,157,205.18Z"/><path class="cls-3" d="M152.72,200.29a20.67,20.67,0,0,1,8.35-7.8,24,24,0,0,1,13.8-2.81,26,26,0,0,0-13.68,3.11,22.31,22.31,0,0,0-8.19,7.59c-.77,1,2.34,2,6.08,2a.89.89,0,0,0-.31.3C154.79,202.57,151.86,201.53,152.72,200.29Z"/><path class="cls-3" d="M153.18,168s-1.83-12.64,6.34-16.91C159.52,151.1,150.66,154,153.18,168Z"/><path class="cls-3" d="M241.34,117.07c3.16-3.27,9-4.58,14.22-3.24,10.4,2.68,11.46,12.1,11.9,18,.08,1,.14,1.92.25,2.72a1.52,1.52,0,0,0,.72,1.09c.63.38,1.37.77,2.15,1.24,6.13,3.66,15.74,10.47,17.76,18.16.82,3.1,1,6.1-.76,8.92-2.34,3.75-7.11,7.64-11,10a29.52,29.52,0,0,0-3.56,2.52,18.43,18.43,0,0,1-9,3.94c-3.11.37-3.92-.31-3.46-1.67.81-2.4,2.82-7.12,5.77-8.66-2.26,1.58-4.71,6.34-5.52,8.84-.3.89.63,1.63,3.17,1.25a18.22,18.22,0,0,0,8.79-3.94,25.42,25.42,0,0,1,3.61-2.55c4-2.68,8.91-6.75,10.89-9.91,1.71-2.74,1.52-5.65.73-8.67-2-7.61-11.61-14.39-17.7-18-.78-.47-1.53-.86-2.16-1.25a1.29,1.29,0,0,1-.74-1c-.13-.88-.21-1.89-.29-3-.44-5.8-1.3-15.14-11.68-17.79-5.4-1.39-10.81.06-13.88,3.25-6.65,6.87-4.08,21.88-3.14,26.31,1.52,7.13,7.73,10.87,13.59,13.7a39.45,39.45,0,0,0,17,3.4,30.22,30.22,0,0,1-3.24.17,31.9,31.9,0,0,1-13.89-3.29c-5.93-2.8-12.19-6.65-13.74-13.91C237.17,139.21,234.58,124.06,241.34,117.07Z"/><path class="cls-3" d="M252.89,176.82c.87-2.59,3-7.68,6.21-9.34-2.43,1.71-5.08,6.84-6,9.53-.32,1,.68,1.76,3.42,1.35a18.93,18.93,0,0,0,4.93-1.54l-.12.29a.11.11,0,0,0,0,.14,18.83,18.83,0,0,1-4.8,1.37C253.26,179,252.39,178.29,252.89,176.82Z"/><path class="cls-3" d="M247.38,173.91c1-2.43,3.38-7.19,6.53-8.6-2.44,1.5-5.28,6.27-6.29,8.8-.36.9.56,1.73,3.21,1.49a16.55,16.55,0,0,0,2.92-.55.88.88,0,0,0-.13.36,15.47,15.47,0,0,1-2.77.44C247.62,176,246.82,175.29,247.38,173.91Z"/><path class="cls-3" d="M244.05,170.38c.95-2.32,5.65-9.12,11.64-11.33l.25.11.15.05c-6,2.24-10.84,8.94-11.8,11.37-.36.91.55,1.74,3.2,1.5l.84-.11a1.42,1.42,0,0,0-.1.29c-.25,0-.48.06-.71.07C244.28,172.51,243.49,171.76,244.05,170.38Z"/><path class="cls-3" d="M176.11,208.51c2.43.14,3.26,2.86,1.69,3.39a9.62,9.62,0,0,1-3.44.59C173.5,212.49,174.23,208.4,176.11,208.51Z"/><path class="cls-3" d="M262,177.42c2.25.07,3.09,2.55,1.65,3.09a9,9,0,0,1-3.16.64C259.71,181.17,260.28,177.37,262,177.42Z"/><path class="cls-3" d="M254.33,175.56c2.25.06,3.09,2.55,1.65,3.09a8.93,8.93,0,0,1-3.16.63C252,179.31,252.59,175.51,254.33,175.56Z"/><path class="cls-3" d="M248.88,172.64c2.25.17,3,2.68,1.52,3.16a8.89,8.89,0,0,1-3.19.5C246.41,176.29,247.14,172.52,248.88,172.64Z"/><path class="cls-3" d="M245.31,169.17c2.16.26,2.75,2.72,1.32,3.11a8.62,8.62,0,0,1-3.09.34C242.76,172.57,243.64,169,245.31,169.17Z"/><path class="cls-3" d="M167,206.44c2.52.15,3.38,3,1.75,3.52a10,10,0,0,1-3.56.61C164.25,210.57,165,206.33,167,206.44Z"/><path class="cls-3" d="M159.21,203.31c2.36.56,2.71,3.36,1.08,3.62a10.05,10.05,0,0,1-3.47,0C156,206.77,157.39,202.89,159.21,203.31Z"/><path class="cls-3" d="M154.84,198.71c2,.84,1.58,3.54.07,3.54a8.9,8.9,0,0,1-3.11-.52C151.06,201.48,153.26,198.06,154.84,198.71Z"/><path class="cls-4" d="M150.41,88.44c-2-1.61-2.58-3.58-3.13-3.92-1.11-.68-4.88,5.49-6.09,8.26C140.18,95.11,151.85,89.61,150.41,88.44Z"/><path class="cls-5" d="M146.44,91.76h0c-2.18,1.07-4.76,2-5.27,1.51-.12-.11-.12-.29,0-.51,1.07-2.46,4.11-7.51,5.61-8.25a.57.57,0,0,1,.56,0,3.25,3.25,0,0,1,.71,1,10.56,10.56,0,0,0,2.42,3,.35.35,0,0,1,.14.34C150.5,89.5,148.3,90.84,146.44,91.76Zm.36-7.15c-1.45.71-4.52,5.81-5.55,8.19q-.13.27,0,.39c.39.38,2.6-.28,5.14-1.53,2.38-1.17,4-2.35,4.08-2.94a.26.26,0,0,0-.1-.24,10.93,10.93,0,0,1-2.45-3,3,3,0,0,0-.67-.92A.47.47,0,0,0,146.8,84.61Z"/><path class="cls-4" d="M178.71,82.76c-1.81-2.15-2-4.4-2.56-4.88-1.05-1-6.41,4.91-8.29,7.65C166.27,87.84,180,84.33,178.71,82.76Z"/><path class="cls-5" d="M173.74,85.52h0c-2.58.7-5.56,1.17-6,.53-.1-.14-.07-.33.08-.55,1.67-2.43,6-7.26,7.77-7.74a.6.6,0,0,1,.61.08,3.45,3.45,0,0,1,.57,1.18,11.49,11.49,0,0,0,2,3.7.41.41,0,0,1,.08.4C178.59,83.93,175.93,84.92,173.74,85.52Zm1.87-7.65c-1.72.47-6.08,5.34-7.7,7.69-.12.18-.15.32-.08.42.35.49,2.87.24,5.87-.58,2.81-.77,4.83-1.7,5-2.32a.25.25,0,0,0-.06-.28,11.83,11.83,0,0,1-2-3.74,3.29,3.29,0,0,0-.53-1.13A.52.52,0,0,0,175.61,77.87Z"/><path class="cls-4" d="M207.79,81.4c-1.32-2.64-1-5-1.42-5.61-.84-1.24-7.74,3.46-10.33,5.8C193.86,83.55,208.76,83.32,207.79,81.4Z"/><path class="cls-5" d="M202.05,83h0c-2.81.09-6-.15-6.27-.91-.07-.18,0-.36.22-.55,2.3-2.08,7.89-6,9.81-6a.65.65,0,0,1,.61.23,3.52,3.52,0,0,1,.29,1.34,12.26,12.26,0,0,0,1.14,4.27.44.44,0,0,1,0,.43C207.38,82.56,204.43,82.92,202.05,83Zm3.77-7.35c-1.87.06-7.51,4-9.74,6-.17.15-.23.29-.18.41.23.58,2.87.94,6.14.83,3.06-.1,5.34-.55,5.69-1.14a.29.29,0,0,0,0-.3,12.37,12.37,0,0,1-1.16-4.31,3.53,3.53,0,0,0-.27-1.29A.51.51,0,0,0,205.82,75.65Z"/><path class="cls-4" d="M231,84.41c-1.07-2.68-.57-4.93-.93-5.56-.71-1.28-7.8,2.71-10.5,4.77C217.3,85.35,231.79,86.35,231,84.41Z"/><path class="cls-5" d="M225.29,85.49h0c-2.73-.14-5.77-.64-6-1.4-.06-.18,0-.35.25-.52,2.4-1.83,8.15-5.13,10-5a.66.66,0,0,1,.57.27,3.53,3.53,0,0,1,.17,1.34,12,12,0,0,0,.76,4.24.39.39,0,0,1,0,.4C230.51,85.5,227.62,85.61,225.29,85.49Zm4.28-6.83c-1.82-.09-7.62,3.24-9.95,5-.18.13-.25.26-.21.38.18.58,2.71,1.15,5.89,1.31,3,.16,5.23-.1,5.62-.64a.3.3,0,0,0,0-.29,11.93,11.93,0,0,1-.76-4.28,3.62,3.62,0,0,0-.16-1.27A.54.54,0,0,0,229.57,78.66Z"/><path class="cls-4" d="M252.81,88.22h0c-2.28-.24-4.79-.82-4.93-1.52,0-.16.05-.31.25-.46,2.14-1.56,7.18-4.32,8.74-4.16a.52.52,0,0,1,.46.28,3.28,3.28,0,0,1,.05,1.21,11.82,11.82,0,0,0,.33,3.89.38.38,0,0,1-.06.37C257.18,88.45,254.75,88.43,252.81,88.22Z"/><path class="cls-4" d="M277.51,81.29c-1.65-1.89-2-3.93-2.48-4.34-.93-.84-4.81,4.73-6.11,7.3C267.81,86.42,278.7,82.67,277.51,81.29Z"/><path class="cls-4" d="M285.82,64.15c-2.08-.29-3.64-1.35-4.15-1.37-1,0,.92,5.46,2,7.73C284.66,72.43,287.33,64.37,285.82,64.15Z"/><path class="cls-4" d="M276.65,45.77a.39.39,0,0,1,.07-.25,7.39,7.39,0,0,0,1-2.08,2.34,2.34,0,0,1,.31-.67c.07-.06.14,0,.23.07.6.68,1.72,4.79,2.11,6.75,0,.19,0,.32,0,.39-.21.34-1.24-.58-2.11-1.57h0A6.62,6.62,0,0,1,276.65,45.77Z"/><path class="cls-4" d="M292.81,53.41a.35.35,0,0,1,.13-.24,7.82,7.82,0,0,0,1.66-1.87,2.24,2.24,0,0,1,.5-.61c.09,0,.17,0,.25.1.55.78,1,5,1,7a.48.48,0,0,1-.11.38c-.32.29-1.32-.78-2.1-1.91h0C293.45,55.32,292.71,54,292.81,53.41Z"/><path class="cls-3" d="M86.49,167.5c6.43,1.85,27.4,5,39.69-6.71-12.44,13.3-35.23,8.3-38.42,7.28C87.87,168.06,86.39,167.52,86.49,167.5Z"/><path class="cls-3" d="M104.19,175.06s14.23,7.85,33.25-2.44c-18.86,10.86-31.55,3.32-31.55,3.32Z"/><path class="cls-3" d="M224.78,167.92s4.69.05,6.87-5.74c-1.77,5.88-5.77,5.74-5.77,5.74Z"/><path class="cls-9" d="M81.26,101.5,88.83,95s6-5.69,14.81,0c0,0-9.79-3.9-14.51.6Z"/><path class="cls-9" d="M83.26,95.29S76,88,71.82,89.89c0,0-2.92.68-4.28,6,0,0,3-6.12,4.73-5.47C72.27,90.44,75.26,89.33,83.26,95.29Z"/><path class="cls-9" d="M2.93,129.49s-3.45-10.06,6-15.32c0,0,6.25-4.07,17.44.86C26.37,115,1.46,106.44,2.93,129.49Z"/><path class="cls-9" d="M262.53,118s4.83,11.15,3.1,17.61c0,0,16.38,9.89,21.94,17.73,0,0-7.29-12.27-20.28-18C267.29,135.35,267.15,122.59,262.53,118Z"/><path class="cls-9" d="M181.79,144.73s21.29-5.79,31.72,5.27c0,0,9.29,9.18-2.24,31.8,0,0,10.46-27.13-1.63-33.53C209.64,148.27,203.78,142.84,181.79,144.73Z"/></svg>