<svg id="Layer_1" data-name="Layer 1" xmlns="http://www.w3.org/2000/svg" viewBox="0 0 275 465"><defs><style>.cls-1{opacity:0.2;}.cls-2{fill:#161616;}.cls-3{fill:#ff9f2c;stroke:#b5650d;}.cls-10,.cls-3,.cls-6,.cls-9{stroke-miterlimit:10;}.cls-4{fill:#b5650d;}.cls-5{fill:#35374c;}.cls-6{fill:#35467a;stroke:#1d2c54;}.cls-7{fill:#233559;}.cls-8{fill:#2b3245;}.cls-13,.cls-9{fill:#eee1b7;}.cls-9{stroke:#3d3c21;}.cls-10{fill:#faa02c;stroke:#af6617;}.cls-11{fill:#c7323e;}.cls-12{fill:#ad886f;}.cls-14{fill:#3d3c21;}</style></defs><g class="cls-1"><ellipse class="cls-2" cx="137.84" cy="430.4" rx="122.32" ry="31.36"/></g><path class="cls-3" d="M209.83,391.36s-3.71,13.87,3.26,24.87c4.61,7.28-8.23,12.76-8.23,12.76L176,449.58a4.39,4.39,0,0,1-6-.88c-2.24-2.9-6.85-5.57-15.7-.31,0,0-1.34-12.27-14.4-4.88,0,0,6.32-9.79-7.38-6.15L147.2,427a43.34,43.34,0,0,1,3.87-2.44c7.83-4.33,16.61-7.1,25.12-9.82l9-2.89,1-15.13S201.3,377.52,209.83,391.36Z"/><path class="cls-4" d="M154.1,448.3a21.54,21.54,0,0,1,4.46-9.74,35.21,35.21,0,0,1,7.71-7.27l2.23-1.42c.75-.47,1.54-.86,2.32-1.25a33.21,33.21,0,0,1,4.86-2,39.33,39.33,0,0,1,5.11-1.27,29.53,29.53,0,0,1,5.33-.31l.14.37c-1.55.65-3.1,1.26-4.63,1.92s-3,1.35-4.51,2.14-3,1.54-4.37,2.42-2.82,1.78-4.2,2.71a61.31,61.31,0,0,0-7.74,6.27,44.93,44.93,0,0,0-3.4,3.64,30.16,30.16,0,0,0-3,4Z"/><path class="cls-4" d="M140.59,441.81a22.88,22.88,0,0,1,5-9.08,19.81,19.81,0,0,1,1.75-1.91c.59-.63,1.24-1.2,1.87-1.79a24.24,24.24,0,0,1,2-1.63c.69-.51,1.36-1.06,2.08-1.54a43.94,43.94,0,0,1,9.15-4.63,46.06,46.06,0,0,1,4.91-1.44,38,38,0,0,1,5.11-.66l.1.28c-1.53.63-3.07,1.23-4.58,1.87s-3,1.33-4.49,2.09-2.94,1.49-4.34,2.35-2.81,1.72-4.19,2.63a62.42,62.42,0,0,0-7.74,6.11,47.69,47.69,0,0,0-3.41,3.56,28.67,28.67,0,0,0-3,3.93Z"/><path class="cls-4" d="M183.74,412.28a8.33,8.33,0,0,1,3.1-2.57,13.87,13.87,0,0,1,3.73-1.24,17.77,17.77,0,0,1,7.59.35,20.77,20.77,0,0,1,6.72,3.08,24,24,0,0,1,2.8,2.44,17.08,17.08,0,0,1,2.25,3.13l-.2.34-3-1.55-3.08-1.42a43.33,43.33,0,0,0-6.43-2.15,28.86,28.86,0,0,0-6.66-1,21,21,0,0,0-3.36.19,12.17,12.17,0,0,0-3.24.77Z"/><path class="cls-3" d="M130.28,390.86s-3.4,3,2.39,14.63c3.83,7.72-8.14,11.84-8.14,11.84L93.69,434.81a4.39,4.39,0,0,1-5.89-1.5c-1.93-3.11-6.24-6.25-15.59-1.93,0,0,0-12.35-13.81-6.35,0,0,7.3-9.09-6.71-6.89l15.7-8.75a44.52,44.52,0,0,1,4.1-2c8.24-3.49,17.26-5.34,26-7.16l9.29-1.94-1.39-12.52S123.23,376.21,130.28,390.86Z"/><path class="cls-4" d="M72,431.27a21.52,21.52,0,0,1,5.45-9.22,34.88,34.88,0,0,1,8.43-6.44l2.36-1.18c.8-.39,1.62-.69,2.44-1a33.94,33.94,0,0,1,5-1.5,38.19,38.19,0,0,1,5.21-.73,29.94,29.94,0,0,1,5.34.24l.09.39c-1.6.48-3.2.92-4.79,1.43s-3.18,1-4.72,1.66-3.1,1.22-4.6,1.95-3,1.48-4.45,2.25a62,62,0,0,0-8.35,5.45,44.8,44.8,0,0,0-3.76,3.26,29.75,29.75,0,0,0-3.35,3.67Z"/><path class="cls-4" d="M59.28,423.4a22.88,22.88,0,0,1,5.91-8.5,21.1,21.1,0,0,1,1.94-1.72c.66-.57,1.36-1.07,2.05-1.59a23.68,23.68,0,0,1,2.17-1.41c.74-.43,1.46-.92,2.22-1.31a43.21,43.21,0,0,1,9.59-3.66,42.78,42.78,0,0,1,5-.92,36.84,36.84,0,0,1,5.15-.13l.07.29c-1.58.46-3.17.9-4.75,1.39s-3.14,1-4.68,1.61-3.08,1.17-4.56,1.89-3,1.41-4.44,2.17a63.29,63.29,0,0,0-8.33,5.28A47.77,47.77,0,0,0,62.88,420a29.13,29.13,0,0,0-3.35,3.59Z"/><path class="cls-4" d="M105.26,398.51a8.24,8.24,0,0,1,3.35-2.22,13.87,13.87,0,0,1,3.84-.86,17.81,17.81,0,0,1,7.52,1.14,20.72,20.72,0,0,1,6.36,3.77,24.08,24.08,0,0,1,2.53,2.71,17.35,17.35,0,0,1,1.91,3.34l-.23.33-2.86-1.86-2.92-1.74a44.41,44.41,0,0,0-6.17-2.8,29,29,0,0,0-6.52-1.7,21,21,0,0,0-3.36-.17,12.18,12.18,0,0,0-3.31.44Z"/><path class="cls-5" d="M144.51,32.72s11.25-27.48-1.07-29.4-2,30.18-2,30.18Z"/><path class="cls-5" d="M139.16,26.54s-7.43-14.65-12.06-8.27,11.41,10.22,11.41,10.22Z"/><path class="cls-5" d="M147.19,26.84c-.81-.07-.53-10.93,18.85-10.18C177.81,17.12,147.19,26.84,147.19,26.84Z"/><path class="cls-6" d="M67.72,255.55S15.14,317.46,80.91,373.11C80.91,373.11,123.57,316.82,67.72,255.55Z"/><path class="cls-7" d="M105.83,386.89c.06-2.27,3.21-8.9,2.07-15C87,332.3,69.35,279.24,128.08,231.26c38.84-31.74,56.21-24.27,66.14,69.23-11.51,75.12-57.64,85.27-59.51,91.12l-1.35,2.7c-1.8,2,.68,7.53-2,8-6.05,1.14-21.47-2.26-24.52-7.54A72,72,0,0,1,105.83,386.89Z"/><path class="cls-8" d="M95.16,137c-1.12,3-9,57.36-75.16,62.78,0,0-33.07-2.84-10.3,22.71s75.91,28.8,105.19-9.16S95.16,137,95.16,137Z"/><path class="cls-5" d="M99.73,120.92c-3.45-2.45-29.34-24.24-8.45-66s96.65-39,121.94-10.84,22,65.61,30.17,102.48S272.13,248,273.21,295.13s-17.35,82.66-61.81,98.53S93.74,406.48,67.71,354.33s7.05-151.85,18.44-183.06S105.15,124.76,99.73,120.92Z"/><path class="cls-9" d="M80.73,369.41c63.86,50,125.58-9.74,131.39-68.31,4.78-48.06-7.28-99.73-11.77-149.67-1-10.94,4.44-25.42,4.44-36.14,0,0,16.17-45.12-20.69-58.66-24.77-9.1-53.4,4.51-46.25,51.14,1.19,7.77-14.5-8-11.22,1.35,0,0,11.72,4.74-1.94-9.24,0,0-6.63,13.74-4.51,5.26,1.69-6.77,1.26-33.5-5.27-41C99.49,46.48,77.84,68.94,85.31,94l0,.06c1,3.3-.33,3.2,1.75,6.58,0,0-9.06,8.52-.75,28.41C97,154.51,75.49,197.35,68.26,229.89S46.43,342.58,80.73,369.41Z"/><path class="cls-10" d="M124.28,133.15c6,.4,28.27-14.73,28.13-19l0,0a.23.23,0,0,0,0-.16c0-.16-.46,0-1.17.22-.15,0-.33.1-.53.14a9.28,9.28,0,0,1-4.06.34c-4.25-.78-10.87-9.21-19.67-15.46a2.53,2.53,0,0,0-.69-.36,1.15,1.15,0,0,0-.52-.2,1.84,1.84,0,0,0-.6-.1,1.09,1.09,0,0,0-.44,0,2.17,2.17,0,0,0-.5.08,1.4,1.4,0,0,0-.51.17s-.06,0-.09,0a2.34,2.34,0,0,0-.49.23,3.07,3.07,0,0,0-.53.33c-4.58,3-8.87,13.39-12,12.91a0,0,0,0,0,0,0,1.8,1.8,0,0,0-.39,0c-.76-.06-2.26,0-2.55,1a5.94,5.94,0,0,0,0,.81.84.84,0,0,1,0,.21C107.55,118.28,120.9,132.93,124.28,133.15Z"/><path class="cls-11" d="M119.46,124.6c7.42.09,13.69-3.26,16.78-4.53,2.84-1.17,15-5.9,15-5.9s-19.91,5.63-22.83,5.69c-5.24.11-10.35-4.43-10.35-4.43s-3,2.9-5.1,2.16a5.08,5.08,0,0,1-1.85-.75C112.1,118.92,114.58,124.54,119.46,124.6Z"/><path class="cls-10" d="M109.86,115.88a12.12,12.12,0,0,0,2.27,1.36c3.26,1.39,5.93-1.81,5.93-1.81a18.64,18.64,0,0,0,10.35,4.43c2.37.28,11.18-1.9,14.64-2.79,4.84-1.28,9.36-2.93,9.36-2.93l0,0c-.09-.12-.5-.06-1.15.06-.15,0-.33.1-.53.14a9.28,9.28,0,0,1-4.06.34c-4.25-.78-10.87-9.21-19.67-15.46a2.53,2.53,0,0,0-.69-.36,1.15,1.15,0,0,0-.52-.2,1.84,1.84,0,0,0-.6-.1,1.09,1.09,0,0,0-.44,0,2.17,2.17,0,0,0-.5.08,1.4,1.4,0,0,0-.51.17s-.06,0-.09,0a2.34,2.34,0,0,0-.49.23,3.07,3.07,0,0,0-.53.33c-4.58,3-8.87,13.39-12,12.91a0,0,0,0,0,0,0,1.8,1.8,0,0,0-.39,0c-.76-.06-2.26,0-2.55,1A12.9,12.9,0,0,0,109.86,115.88Z"/><path class="cls-5" d="M198.86,126.86c.36,2.89-.23,50.2-30.84,66.91-62.5,34.13-64.16,71-47.19,77.68,20.08,8,120.43-43.18,126.94-98.49"/><path class="cls-12" d="M151.06,111.64a7.38,7.38,0,0,1,3.07.28,1.73,1.73,0,0,1,1,.85,2.57,2.57,0,0,1,.16,1.34,11.2,11.2,0,0,1-.87,2.94c-.4,1-.86,1.94-1.29,3a15.09,15.09,0,0,0,1.89-2.66,8.76,8.76,0,0,0,1.11-3.15,3.16,3.16,0,0,0-.29-1.79,2.34,2.34,0,0,0-1.48-1.11,4.45,4.45,0,0,0-1.7-.08A6.06,6.06,0,0,0,151.06,111.64Z"/><path class="cls-12" d="M109.56,109.56a4.48,4.48,0,0,0-1.45-.41,3.35,3.35,0,0,0-1.56.14,2,2,0,0,0-.73.46,2.06,2.06,0,0,0-.48.73,3.49,3.49,0,0,0-.16,1.62,8.68,8.68,0,0,0,1,2.88,15.16,15.16,0,0,0,1.63,2.48c-.34-.94-.72-1.83-1.06-2.73A12.71,12.71,0,0,1,106,112a1.92,1.92,0,0,1,.83-2.15,3.41,3.41,0,0,1,1.3-.32A7.14,7.14,0,0,1,109.56,109.56Z"/><path class="cls-5" d="M273.3,310.43c-11.51,75.12-52.07,87.8-62.28,95.51h0a12.41,12.41,0,0,1-7.08,4c-6.05,1.07-14.88.26-18.8-4,0,0-5.49-8.4-5.44-10.24.06-2.28,8.42-7.8,7.27-13.9-20.85-39.59-34.4-92.12,24.33-140.11"/><path class="cls-5" d="M171.07,201.52c-1.62-4-41.63-3.11-42.35,8s20.34-1.86,12.34,19.11S183.79,232.92,171.07,201.52Z"/><path class="cls-8" d="M58,187.56c2.86,1.84-4.45,21.57-13.3,19s4.83-9.66-12.9-11.11S35.6,173.08,58,187.56Z"/><path class="cls-13" d="M193.88,63s9.83,5.06,14.67,27.08c5.77,26.28,2.63,54.9-37.61,63.93"/><path class="cls-14" d="M193.93,62.94a19.82,19.82,0,0,1,5.61,4.75,42.44,42.44,0,0,1,4.22,6.07,61.33,61.33,0,0,1,5.45,13.73c.68,2.38,1.25,4.76,1.76,7.17s.85,4.86,1.12,7.32A62.59,62.59,0,0,1,212,116.9a43.89,43.89,0,0,1-4.43,14.42,41.16,41.16,0,0,1-4.19,6.34,37.5,37.5,0,0,1-5.35,5.34,50.37,50.37,0,0,1-12.88,7.45c-1.15.46-2.33.81-3.49,1.22l-3.54,1-3.57.83-3.61.61,0-.19a74.24,74.24,0,0,0,13.81-4.48A48.9,48.9,0,0,0,197,141.79a37.32,37.32,0,0,0,8.89-11.34,41.86,41.86,0,0,0,2.66-6.73,48.73,48.73,0,0,0,1.51-7.08,65,65,0,0,0,.23-14.49,95.24,95.24,0,0,0-2.45-14.32,64.77,64.77,0,0,0-4.91-13.64,41.09,41.09,0,0,0-3.87-6.13,20.67,20.67,0,0,0-5.23-5Z"/><path class="cls-13" d="M84.77,122.68s3.14,19.6,25.65,25.64"/><path class="cls-14" d="M84.77,122.68a30.94,30.94,0,0,0,1.58,4.48,36.24,36.24,0,0,0,2.15,4.21,34.87,34.87,0,0,0,5.79,7.39A18.63,18.63,0,0,0,96,140.35a17.29,17.29,0,0,0,1.82,1.48l1.91,1.39c.66.42,1.35.8,2,1.21a35.45,35.45,0,0,0,4.21,2.15c1.44.67,3,1.12,4.44,1.74-.78-.19-1.55-.39-2.32-.6a20.86,20.86,0,0,1-2.3-.68,37.37,37.37,0,0,1-4.4-1.93,31.22,31.22,0,0,1-7.82-5.64,30.46,30.46,0,0,1-5.75-7.73A27.75,27.75,0,0,1,84.77,122.68Z"/></svg>