<svg xmlns="http://www.w3.org/2000/svg" viewBox="0 0 110 70"><defs><style>.cls-1{isolation:isolate;}.cls-2{fill:#fcfcfc;}.cls-3{fill:#b1b3b6;}.cls-4,.cls-5{fill:#784017;}.cls-5{opacity:0.7;mix-blend-mode:multiply;}.cls-6{fill:#19110f;}.cls-7{opacity:0.5;}.cls-7,.cls-9{mix-blend-mode:screen;}.cls-8{fill:#a25834;}.cls-9{fill:#d1d1d1;opacity:0.9;}.cls-10{fill:#365580;}</style></defs><g class="cls-1"><g id="Layer_1" data-name="Layer 1"><path class="cls-2" d="M25.24,17.7A9.26,9.26,0,1,1,16,8.45,9.25,9.25,0,0,1,25.24,17.7Z"/><path class="cls-3" d="M16,27.77A10.07,10.07,0,1,1,26.05,17.7,10.08,10.08,0,0,1,16,27.77ZM16,9.26a8.45,8.45,0,1,0,8.44,8.44A8.46,8.46,0,0,0,16,9.26Z"/><path class="cls-4" d="M23,19a6.1,6.1,0,1,1-6.09-6.09A6.1,6.1,0,0,1,23,19Z"/><path class="cls-5" d="M17.15,17.69a7.6,7.6,0,0,1,5.34,3.7A6.19,6.19,0,0,0,23,19a6.1,6.1,0,0,0-12.19,0,5.25,5.25,0,0,0,0,.56A7.19,7.19,0,0,1,17.15,17.69Z"/><path class="cls-6" d="M20.54,19.24a4,4,0,1,1-4-4A4,4,0,0,1,20.54,19.24Z"/><g class="cls-7"><path class="cls-8" d="M21.8,19.86a3.7,3.7,0,0,0-1.87-4.94,1.41,1.41,0,0,0-.68-.18,4.23,4.23,0,0,0-.81,0c-1.38.07-1.69,1.34-1.46,2.42C17.36,18.87,20.4,23,21.8,19.86Z"/></g><path class="cls-9" d="M21.73,18.92a2.78,2.78,0,0,0-1.41-3.71,1.2,1.2,0,0,0-.5-.13,4,4,0,0,0-.61,0c-1,.06-1.27,1-1.1,1.82A4.3,4.3,0,0,0,19,18.6a2.72,2.72,0,0,0,.93,1l.25.11.17.11a.51.51,0,0,0,.59-.08A1.35,1.35,0,0,0,21.73,18.92Z"/><path class="cls-10" d="M25.24,17.7a8.53,8.53,0,0,1-7,8.21C21,19.46,14,11.66,7.43,16.38A8.37,8.37,0,0,1,16,8.45,9.25,9.25,0,0,1,25.24,17.7Z"/><path class="cls-2" d="M103.27,52.3A9.26,9.26,0,1,1,94,43,9.25,9.25,0,0,1,103.27,52.3Z"/><path class="cls-3" d="M94,62.36A10.06,10.06,0,1,1,104.08,52.3,10.08,10.08,0,0,1,94,62.36Zm0-18.51a8.45,8.45,0,1,0,8.44,8.45A8.46,8.46,0,0,0,94,43.85Z"/><path class="cls-4" d="M101.63,53.55a6.09,6.09,0,1,1-6.09-6.1A6.09,6.09,0,0,1,101.63,53.55Z"/><path class="cls-5" d="M95.79,52.28a7.6,7.6,0,0,1,5.33,3.7,6,6,0,0,0,.51-2.43,6.09,6.09,0,1,0-12.18,0c0,.18,0,.36,0,.55A7.22,7.22,0,0,1,95.79,52.28Z"/><path class="cls-6" d="M99.17,53.84a4,4,0,1,1-4-4A4,4,0,0,1,99.17,53.84Z"/><g class="cls-7"><path class="cls-8" d="M100.43,54.45a3.7,3.7,0,0,0-1.87-4.94,1.36,1.36,0,0,0-.68-.17,3.53,3.53,0,0,0-.81-.05c-1.38.07-1.68,1.34-1.45,2.42C96,53.47,99,57.63,100.43,54.45Z"/></g><path class="cls-9" d="M100.37,53.52A2.79,2.79,0,0,0,99,49.81a1,1,0,0,0-.51-.13,2.37,2.37,0,0,0-.6,0c-1,.05-1.28,1-1.11,1.81a4.14,4.14,0,0,0,.91,1.73,2.6,2.6,0,0,0,.93,1l.25.1a1.77,1.77,0,0,1,.17.12.53.53,0,0,0,.59-.09A1.36,1.36,0,0,0,100.37,53.52Z"/><path class="cls-10" d="M103.27,52.3a8.37,8.37,0,0,1-7.12,8.34c1.91-7.66-3.77-13.15-10.72-9.38C85.17,47.74,88.9,43,94,43A9.26,9.26,0,0,1,103.27,52.3Z"/></g></g></svg>