<svg id="Layer_1" data-name="Layer 1" xmlns="http://www.w3.org/2000/svg" viewBox="0 0 110 80"><defs><style>.cls-1{fill:#1e130b;}.cls-2{fill:#fcf9f7;stroke:#3a1e0f;}.cls-2,.cls-4{stroke-miterlimit:10;stroke-width:0.75px;}.cls-3{fill:#f9f8f7;}.cls-4{fill:#f9dad2;stroke:#4c2606;}</style></defs><path class="cls-1" d="M14.75,29.09s-1-6.62,17.46-10.13S9.06,10,14.75,29.09Z"/><path class="cls-1" d="M91.35,22.57s0-6.69-12.84-7.43S93.27,2.87,91.35,22.57Z"/><path class="cls-2" d="M41.53,68.74c-7.74,1.15-15-4.76-16.26-13.19a16.31,16.31,0,0,1,.8-8,14,14,0,0,1,11-9.29c6.55-1,12.76,3.11,15.28,9.47a17.23,17.23,0,0,1,1,3.72C54.53,59.85,49.27,67.6,41.53,68.74Z"/><ellipse class="cls-1" cx="34.54" cy="57.98" rx="7.66" ry="8.42" transform="translate(-8.08 5.65) rotate(-8.38)"/><ellipse class="cls-3" cx="39.47" cy="56.57" rx="2.17" ry="2.39" transform="matrix(0.99, -0.15, 0.15, 0.99, -7.82, 6.35)"/><path class="cls-2" d="M87.33,65.91c-5.78.86-11.47-5.28-12.71-13.71a21.15,21.15,0,0,1,.09-6.94c1-5.28,4-9.25,8.12-9.85,4.75-.7,9.44,3.32,11.65,9.45a22.7,22.7,0,0,1,1.07,4.26C96.79,57.55,93.11,65.07,87.33,65.91Z"/><ellipse class="cls-1" cx="81.68" cy="54.96" rx="5.72" ry="8.42" transform="translate(-7.14 12.49) rotate(-8.38)"/><ellipse class="cls-3" cx="85.34" cy="53.74" rx="1.62" ry="2.39" transform="translate(-6.92 13.01) rotate(-8.38)"/><path class="cls-4" d="M52.31,47.7c-10.6-2.72-21.73-1.07-26.24-.18a14,14,0,0,1,11-9.29C43.58,37.27,49.79,41.34,52.31,47.7Z"/><path class="cls-4" d="M94.48,44.86c-7.13-2.14-16.28-.41-19.77.4,1-5.28,4-9.25,8.12-9.85C87.58,34.71,92.27,38.73,94.48,44.86Z"/></svg>