<svg id="Layer_1" data-name="Layer 1" xmlns="http://www.w3.org/2000/svg" viewBox="0 0 256 256"><defs><style>.cls-1{opacity:0.3;}.cls-2,.cls-8{fill:#d09a4f;}.cls-3{fill:#edc39a;}.cls-4{fill:#b77e39;}.cls-5{fill:#63330b;}.cls-6{fill:#f99a9a;}.cls-7{fill:#e57676;}.cls-8{stroke:#5b3c16;}.cls-13,.cls-8{stroke-miterlimit:10;}.cls-13,.cls-9{fill:#712703;}.cls-10{fill:#963a15;}.cls-11{fill:#471400;}.cls-12{fill:#2d0b00;}.cls-13{stroke:#491602;}.cls-14{fill:#2b0800;}.cls-15{fill:#631f00;}.cls-16{fill:#3a0202;}.cls-17{fill:#360700;}.cls-18{fill:#c23636;}.cls-19{fill:#fff;}.cls-20{fill:#110502;}</style></defs><ellipse class="cls-1" cx="92.15" cy="201.44" rx="70.79" ry="11.6"/><path class="cls-2" d="M212,48.14c-6.63-3.16-13.55,3-16.62,9.6s-6,6.62-6,6.62l9,3C207,67.73,216,51.56,212,48.14Z"/><path class="cls-3" d="M212,48.14l-.07,0c1.22,7.26-5.53,16.22-13.48,19l.25,0C207.26,67.63,216,51.56,212,48.14Z"/><path class="cls-4" d="M198.81,56.39c1.91-3.67,7.84-8.94,13.1-8.29-6.6-3.06-13.47,3.12-16.53,9.64s-6,6.46-6,6.46S194.25,65.12,198.81,56.39Z"/><path class="cls-5" d="M189.41,64.2s2.84-.17,5.82-6.53c2.24-4.77,6-8.58,9.87-10a8.78,8.78,0,0,1,7,.28l0,0c1.38,1.18,1.4,3.81,0,7.22-1.86,4.69-5.8,9.55-10,11.45a5.67,5.67,0,0,1-3.75.47c5.24.25,11-6.05,13.4-12,1.26-3.19,1.3-5.72.09-6.81l0,0a8.46,8.46,0,0,0-6.7-.26c-3.77,1.35-7.48,5.1-9.68,9.79a17.82,17.82,0,0,1-3.34,5.1C190.62,64.47,189.41,64.2,189.41,64.2Z"/><path class="cls-6" d="M198.06,64.45s3.26-13.49,10.25-14C208.36,52.85,205,63.46,198.06,64.45Z"/><path class="cls-7" d="M201.24,60.52c-1-2.77,3.09-7.43,4.3-9.13-5.08,3.16-7.48,13.06-7.48,13.06a9.79,9.79,0,0,0,6.2-4.08C202.83,61.29,201.51,61.4,201.24,60.52Z"/><path class="cls-5" d="M197.84,64.65l.06-.24c.13-.56,3.37-13.61,10.39-14.14h.18v.17c.05,2.42-3.29,13.17-10.39,14.18Zm10.3-14c-6.16.67-9.38,11.83-9.86,13.63C204.86,63.08,208,53.25,208.14,50.62Z"/><path class="cls-5" d="M193.71,66.55a3.48,3.48,0,0,0,2.48-.32A4.92,4.92,0,0,0,198.31,63l.32.08a5.23,5.23,0,0,1-2.28,3.47l-.07,0A2.83,2.83,0,0,1,193.71,66.55Z"/><path class="cls-2" d="M49.58,91.53s-18.2,10.13-13.25,35.2-9.24,29.86-5.28,40.92.66,25.24,4.62,28.87C33,199,31.05,206.26,41,206.26s15.51-1,15.18-3.63-9.41-5.45-9.41-5.45c1.16-1.48.66-4.62-1.81-5.94s-7.72-15.67-5.4-25.24c3.69-15.29,19.09-28,19.75-39.27C59.57,121.43,49.58,91.53,49.58,91.53Z"/><path class="cls-4" d="M38.31,196.31a10.77,10.77,0,0,1-2.73-7.21c1-13.45-2.22-19.06-2.72-25.79,1-7.76,8.8-14.46,10.34-28.75,3-16.74,9.63-18.64,14.53-16.14C55,107.75,49.58,91.53,49.58,91.53s-18.2,10.13-13.25,35.2-9.24,29.86-5.28,40.92.66,25.24,4.62,28.87c-2.36,2.21-4.19,8.23,2.5,9.5C31.54,201.16,38.68,197,38.31,196.31Z"/><path class="cls-8" d="M49.49,91.77a29.25,29.25,0,0,0-8.27,8.06c-3.56,5.15-7.28,14-4.73,26.87,2.85,14.45-.59,22.1-3.36,28.25-2,4.47-3.59,8-1.93,12.64,2,5.47,2.15,11.61,2.31,17s.31,10,2.27,11.78l.13.12-.13.12c-1.52,1.42-2.64,4.26-1.81,6.35s3.21,3.1,7,3.1c8.5,0,13.29-.74,14.64-2.27a1.42,1.42,0,0,0,.37-1.17c-.31-2.51-9.2-5.28-9.29-5.31l-.23-.07.15-.19a3.33,3.33,0,0,0,.46-2.72,4.38,4.38,0,0,0-2.22-3C42.25,190,37,175.53,39.35,166c1.83-7.59,6.43-14.38,10.88-21s8.54-12.62,8.87-18.29C59.39,121.74,50.35,94.36,49.49,91.77Z"/><path class="cls-9" d="M50.19,201.28c.51-1.54,1.63-2.76,4-1.31s3.79,2.84,3.59,3.73c-.25,1.11-4.42,2.61-6.9,1.49C49.12,204.39,50.19,201.28,50.19,201.28Z"/><path class="cls-10" d="M57.79,203.4c-.12-.89-1.47-2.14-3.59-3.43-2-1.19-3.43-.49-4,1.13a2.52,2.52,0,0,1,3.3-.92A12.42,12.42,0,0,1,57.79,203.4Z"/><path class="cls-11" d="M52.78,204.35a3,3,0,0,1-2.6-3c-.12.36-.94,3.13.71,3.87,2.48,1.12,6.65-.38,6.9-1.49a.92.92,0,0,0,0-.37A7.82,7.82,0,0,1,52.78,204.35Z"/><path class="cls-12" d="M53,205.73a5.23,5.23,0,0,1-2.16-.41c-1.86-.84-.82-3.95-.77-4.09a2.79,2.79,0,0,1,1.55-1.93,3.11,3.11,0,0,1,2.66.55c2.53,1.54,3.86,3,3.66,3.88-.09.37-.53.78-1.26,1.14A8.56,8.56,0,0,1,53,205.73Zm-.69-6.27a1.87,1.87,0,0,0-.59.1,2.6,2.6,0,0,0-1.39,1.76h0s-1,3,.63,3.74a7.33,7.33,0,0,0,5.6-.44c.63-.31,1-.67,1.1-1,.18-.78-1.17-2.15-3.52-3.58A3.64,3.64,0,0,0,52.3,199.46Z"/><path class="cls-9" d="M48.26,201.84c.56-1.69,1.79-3,4.39-1.43s4.14,3.11,3.93,4.08c-.27,1.21-4.84,2.86-7.55,1.63C47.09,205.25,48.26,201.84,48.26,201.84Z"/><path class="cls-10" d="M56.58,204.16c-.13-1-1.61-2.34-3.93-3.75-2.14-1.3-3.76-.54-4.33,1.24a2.74,2.74,0,0,1,3.6-1A13.51,13.51,0,0,1,56.58,204.16Z"/><path class="cls-13" d="M51.32,206.71a5.71,5.71,0,0,1-2.36-.45c-2-.92-.9-4.32-.84-4.47a3,3,0,0,1,1.7-2.11,3.39,3.39,0,0,1,2.91.6c2.77,1.68,4.22,3.23,4,4.24-.1.41-.58.86-1.38,1.25A9.31,9.31,0,0,1,51.32,206.71Z"/><path class="cls-2" d="M139.64,120.62s-7.78,19.22-5.06,32.67c1.71,2.23,2.13,8.91-.42,11.8,1,3,2.53,16.5,5.48,19.55s6.25,4.46,6,7.76c1.07.82,9.07,5.44,6.93,8.49s-8.83,3.3-14.6,2.81-9.76-5.45-3.81-8.91c-2-.66-4-2.89-2.62-6.6s-3.31-21.29-3.31-21.29c-2.39-.57-4-7.67-2.56-10.8-.41-2.64-.08-14.52-6-21.21.91-9.15,10.41-22.52,10.41-22.52Z"/><path class="cls-4" d="M133.81,200.58c-2.22-3,2.07-5.46,2.1-6,0-.84-4.76-2.14-2.55-6.76a96.62,96.62,0,0,0-3.72-21.19c-1.9-1.15-3.76-7.13-2.56-10.22.08-3.93-.35-7.23-.31-11.74.33-3,1.46-4.72,3.44-7,1.85-2.06,4.09-3.61,5.83-5.52a93.88,93.88,0,0,1,3.6-11.48l-9.58-8.25s-9.5,13.37-10.41,22.52c5.94,6.69,5.61,18.57,6,21.21-1.48,3.13.17,10.23,2.56,10.8,0,0,4.7,17.58,3.31,21.29s.65,5.94,2.62,6.6c-5.64,3.28-2.36,7.89,2.91,8.79C135.91,202.63,134.47,201.9,133.81,200.58Z"/><path class="cls-8" d="M119.82,134.84c4.92,5.58,5.54,14.75,5.84,19.15.06.92.11,1.64.18,2.09v0l0,0c-1,2.18-.5,6.2.64,8.6.53,1.12,1.18,1.82,1.81,2l.1,0,0,.09c.19.72,4.7,17.67,3.31,21.39a5.31,5.31,0,0,0,0,4.16,4.41,4.41,0,0,0,2.55,2.22l.35.12-.32.18c-2.16,1.26-3.15,2.83-2.79,4.43.48,2.13,3.23,3.89,6.53,4.17,4.42.38,12.16.53,14.45-2.73a1.78,1.78,0,0,0,.3-1.42c-.44-2.34-4.62-5.12-6.4-6.31l-.79-.54-.07-.06v-.09c.18-2.27-1.41-3.62-3.43-5.33-.82-.7-1.68-1.42-2.52-2.29-2.1-2.17-3.46-9.39-4.45-14.66a50.32,50.32,0,0,0-1.07-5l0-.09L134,165c2.51-2.85,2.09-9.4.41-11.59l0,0v0c-2.59-12.81,4.4-31.06,5-32.65l-9.35-8.06C129.05,114.1,120.7,126.35,119.82,134.84Z"/><path class="cls-9" d="M148.33,198.14c.68-1.59,2-2.78,4.37-1s3.76,3.35,3.48,4.28c-.36,1.15-4.92,2.38-7.45,1C146.92,201.35,148.33,198.14,148.33,198.14Z"/><path class="cls-10" d="M156.21,201.06c-.05-.95-1.37-2.4-3.51-4-2-1.43-3.6-.82-4.3.86a2.66,2.66,0,0,1,3.57-.69A13.11,13.11,0,0,1,156.21,201.06Z"/><path class="cls-11" d="M150.8,201.63a3.15,3.15,0,0,1-2.49-3.45c-.16.38-1.27,3.24.42,4.17,2.53,1.41,7.09.18,7.45-1a1.06,1.06,0,0,0,0-.4A8.26,8.26,0,0,1,150.8,201.63Z"/><path class="cls-13" d="M150.9,203.11a5.7,5.7,0,0,1-2.25-.63c-1.9-1-.52-4.26-.46-4.4a3,3,0,0,1,1.82-1.91,3.29,3.29,0,0,1,2.77.81c2.55,1.86,3.84,3.47,3.54,4.44-.12.39-.63.78-1.43,1.1A9.24,9.24,0,0,1,150.9,203.11Z"/><path class="cls-9" d="M145.85,199.54c.57-1.73,1.83-3.09,4.5-1.47s4.25,3.19,4,4.19c-.28,1.24-5,2.93-7.75,1.67C144.65,203,145.85,199.54,145.85,199.54Z"/><path class="cls-12" d="M149,204.53a5.93,5.93,0,0,1-2.42-.45c-2.09-1-.92-4.44-.87-4.59a3.12,3.12,0,0,1,1.75-2.17,3.48,3.48,0,0,1,3,.62c2.84,1.72,4.33,3.31,4.1,4.35-.09.42-.59.88-1.41,1.28A9.62,9.62,0,0,1,149,204.53Zm-.77-7a1.76,1.76,0,0,0-.66.12,2.82,2.82,0,0,0-1.56,2h0s-1.14,3.37.7,4.2,4.59.35,6.28-.5c.71-.35,1.17-.75,1.25-1.07.19-.87-1.33-2.41-4-4A4.1,4.1,0,0,0,148.22,197.5Z"/><path class="cls-2" d="M51.18,90s-12.56,6.28-18.54,14.11c-5.8,7.59-6.3,13.78-5.33,20.59,1.27,9-1.71,13.32-1.71,13.32,2.15,0,5-4.2,4.74-9.49-.39-7.7.05-21.86,11.27-25.49C44.49,99.58,51.18,90,51.18,90Z"/><path class="cls-5" d="M25.6,138.19h-.31l.17-.25c0-.05,2.93-4.41,1.68-13.21-1-6.93-.44-13.11,5.36-20.71C38.44,96.25,51,89.93,51.1,89.87l.58-.3-.37.54c-.07.09-6.72,9.61-9.58,13l0,0h0c-8.13,2.63-11.88,11.15-11.16,25.33A11.73,11.73,0,0,1,27.83,137,3.24,3.24,0,0,1,25.6,138.19Zm25-47.72c-2.56,1.36-12.74,7-17.88,13.75-5.74,7.51-6.27,13.61-5.3,20.47,1.08,7.65-.94,12-1.56,13.14a3.36,3.36,0,0,0,1.69-1.06,11.45,11.45,0,0,0,2.57-8.22c-.73-14.32,3.09-23,11.34-25.64C44,99.94,49.19,92.55,50.65,90.47Z"/><path class="cls-14" d="M19.13,172.69l-.57-.52c-3-2.76-5.82-8.61-1.44-13.44,2.09-2.3,1-4.62-.22-7.32s-2.53-5.52-.79-8.7c3.53-6.5,9.61-10.1,12.46-10.1a1.07,1.07,0,0,1,1,.62c1,1.79-.12,7.47-3.13,12.39-1.65,2.71-1.1,5.16-.52,7.75.66,2.91,1.34,5.92-1.47,9.21a54.89,54.89,0,0,1-3.84,4c-2.25,2.19-2.85,2.78-1.75,5.36Z"/><path class="cls-8" d="M239.11,85.72s3.39-10.8-7.42-14.93a33.69,33.69,0,0,0-19.8-1.48c-.66-2-7.59-13.62-24.42-6.19-4.95-.91-13.92,1.67-13.37,18.51s6.05,31.79-12.43,28.6-18.81-33.11-41.36-30.91C115,73.6,97.49,53,81.15,63.36A71.53,71.53,0,0,0,60.91,82.84c-5.39.11-17.6,6.6-20.57,18.7s2.27,19,11.33,34.87c6.77,11.85-2.31,21.83,1.65,34.76,4.24,13.83,7.43,16,6.52,21.56s1.48,6.18,1.48,6.18c-1.65,1.49-4.78,9.16,7.59,9.41s17.25-3,17.25-4.79-6.77-8.49-12.87-8.66a13.77,13.77,0,0,0-5.7-7.51c-3.3-2.22-6.13-24.88-4.15-30.38S71,140.13,71.8,134.33c15.4,10.77,45.87,11.37,55.77,1.39,1.07,1.15,9-1.4,12-6.19,5.25,2.39,26,10.4,40.65,2s14.9-24.58,14.9-24.58-.51-6.79,4.07-8.69c4.21-1.75,14-7.86,17.38-3,2.67,3.9,1.43,8.11,5.72,11.11,4.68,3.26,11-4.51,10.12-9.24,3,.38,6.66-1.27,8-3.41A7.1,7.1,0,0,0,239.11,85.72Z"/><path class="cls-4" d="M63.55,198.67a4.75,4.75,0,0,1-1.26-2.42c.77-6.26-1.39-11.43-6.66-25.63-2.54-6.85.33-13.86,2-21.12,2.64-12.87-7.92-22.44-12.21-33.66-4.59-11.32.75-24.61,10.49-31.76C50,86.51,42.57,92.44,40.34,101.54c-3,12.1,2.27,19,11.33,34.87,6.77,11.85-2.31,21.83,1.65,34.76,4.24,13.83,7.43,16,6.52,21.56s1.48,6.18,1.48,6.18c-1.46,1.32-4.08,7.48,3.92,9.05a9.22,9.22,0,0,1-3.15-2.76C59.23,200.73,64.25,200.16,63.55,198.67Z"/><path class="cls-4" d="M225.42,105.15c-5.57-1.28-5.28-8.54-7.76-12.08-1.65-2.44-7.26,0-8.25-2.44a3.83,3.83,0,0,0,.33-1.7c-2.64,4.25-11.94,8-18.54,5.68-6.27-2-9.65-6.83-10.42-15.76-4.2,12.62,10.42,20.57,7.51,30.06-6.16,19-22.41,20.68-35.52,18.54-4-.66-8.78-1.59-11.74-5.47a3.07,3.07,0,0,1-2.73,2.49c-1.76.06-2.26-3.68-3.3-5.18-.66,2.31-3.26,6.31-9.24,6.67-5.5.33-12.62-2.21-13.21-6.93-.4.86-1.4,3.35-3.13,3.41-1.54-.14-1.92-1.35-2.26-2.28-.85,3.51-5.37,6.34-11,7.66-10.89,2-16.83-1.54-20.09-7.2-2.6-4.52-5.92-15.86-10.49-22.2,5.73,11.22,7.93,25.83,6.2,35.91,15.56,10.41,46,11.25,55.77,1.39,1.07,1.15,9-1.4,12-6.19,5.25,2.39,26,10.4,40.65,2s14.9-24.58,14.9-24.58-.51-6.79,4.07-8.69c4.21-1.75,14-7.86,17.38-3,2.67,3.9,1.43,8.11,5.72,11.11s10.12-3.48,10.2-8.21C231.75,100.81,228.71,105.43,225.42,105.15Z"/><path class="cls-9" d="M79.87,201.14c.68-1.62,2-2.84,4.44-1.09s3.86,3.38,3.58,4.32c-.36,1.18-5,2.47-7.58,1.06C78.46,204.43,79.87,201.14,79.87,201.14Z"/><path class="cls-10" d="M87.92,204c-.06-1-1.42-2.42-3.61-4-2-1.44-3.67-.8-4.37.91a2.71,2.71,0,0,1,3.63-.73A13.43,13.43,0,0,1,87.92,204Z"/><path class="cls-11" d="M82.42,204.67a3.2,3.2,0,0,1-2.57-3.48c-.15.38-1.26,3.3.46,4.24,2.6,1.41,7.22.12,7.58-1.06a1.06,1.06,0,0,0,0-.4A8.44,8.44,0,0,1,82.42,204.67Z"/><path class="cls-12" d="M82.54,206.18a5.68,5.68,0,0,1-2.3-.62c-1.95-1.05-.57-4.33-.51-4.48a3.05,3.05,0,0,1,1.84-2,3.38,3.38,0,0,1,2.82.81c2.61,1.86,3.94,3.5,3.64,4.48-.12.4-.63.8-1.44,1.14A9.54,9.54,0,0,1,82.54,206.18Zm-.24-6.83a2,2,0,0,0-.65.07A2.76,2.76,0,0,0,80,201.2h0s-1.33,3.17.38,4.1,4.39.66,6.08,0c.71-.29,1.18-.64,1.27-.94.25-.83-1.1-2.42-3.52-4.15A4,4,0,0,0,82.3,199.35Z"/><path class="cls-5" d="M138,131.65l-.23-.24C142.31,126.93,141,122,141,122a6.67,6.67,0,0,1,.25,4A11.5,11.5,0,0,1,138,131.65Z"/><path class="cls-5" d="M70.25,140.55l-.31-.12c7-18.41-4.22-41.78-4.34-42a47.17,47.17,0,0,1,3.75,9C72,116,74.58,129.19,70.25,140.55Z"/><path class="cls-5" d="M237.3,81.3a8.19,8.19,0,0,0-5.74-6c-2.83-.75-4.06.32-4.55,1a3,3,0,0,0,0,3.33,1.93,1.93,0,0,1-.86-1.66,3.3,3.3,0,0,1,.56-1.85c.9-1.33,2.69-1.76,4.91-1.17a8.14,8.14,0,0,1,5,3.91A4.39,4.39,0,0,1,237.3,81.3Z"/><path class="cls-15" d="M234,82.09s-3.88-5.11-5.45-2.55S233.34,82,234,82.09Z"/><path class="cls-16" d="M233.39,81.46c-1.15-1.31-3.65-3.76-4.84-1.83l-.08.15C228,81.15,231.84,81.38,233.39,81.46Z"/><path class="cls-5" d="M234.37,82.3l-.39,0-.47,0c-1.37-.06-4.59-.21-5.25-1.45a1.31,1.31,0,0,1,.15-1.33,1.48,1.48,0,0,1,1.23-.79h.08c1.86,0,4.3,3.2,4.41,3.34ZM229.72,79h-.06a1.16,1.16,0,0,0-1,.63,1,1,0,0,0-.14,1c.58,1.08,3.77,1.22,5,1.28h.12C233,81.12,231.11,79,229.72,79Z"/><path class="cls-5" d="M237.34,84.1a7.76,7.76,0,0,0-5.08-1.95v-.33a8.74,8.74,0,0,1,3.29.74A3.76,3.76,0,0,1,237.34,84.1Z"/><path class="cls-5" d="M195.71,98.62a15.75,15.75,0,0,1-12-6.19,16.55,16.55,0,0,1-3.37-8.63,12.36,12.36,0,0,1,.44-5c0,.08-1.46,7.51,3.19,13.37,3.52,4.45,10.36,8.3,18,4.54l.15.3A14.53,14.53,0,0,1,195.71,98.62Z"/><path class="cls-5" d="M203.94,96.18l-.12-.31c5.62-2.13,5.92-6.89,5.92-6.94a5.17,5.17,0,0,1-.72,3.14A9.59,9.59,0,0,1,203.94,96.18Z"/><path class="cls-5" d="M233.29,97.35c-6.14,0-11.39-6.95-13.83-10.8a9.62,9.62,0,0,1-1.16-2.64c.08.14,7.31,13.9,15.74,13.07l0,.33A7.09,7.09,0,0,1,233.29,97.35Z"/><path class="cls-9" d="M77.9,202.63c.6-1.82,1.92-3.25,4.73-1.54s4.47,3.35,4.23,4.4c-.29,1.31-5.21,3.08-8.14,1.76C76.63,206.31,77.9,202.63,77.9,202.63Z"/><path class="cls-10" d="M86.87,205.13c-.15-1-1.74-2.52-4.24-4-2.31-1.4-4-.58-4.67,1.33a3,3,0,0,1,3.88-1.08A14.61,14.61,0,0,1,86.87,205.13Z"/><path class="cls-11" d="M81,206.26a3.49,3.49,0,0,1-3.07-3.58c-.14.43-1.11,3.69.84,4.57,2.93,1.32,7.85-.45,8.14-1.76a1.09,1.09,0,0,0,0-.44A9.22,9.22,0,0,1,81,206.26Z"/><path class="cls-13" d="M81.2,207.88a6.2,6.2,0,0,1-2.55-.48c-2.19-1-1-4.66-.91-4.82a3.29,3.29,0,0,1,1.84-2.28,3.63,3.63,0,0,1,3.13.65c3,1.81,4.56,3.48,4.31,4.57-.1.45-.62.92-1.48,1.35A10.12,10.12,0,0,1,81.2,207.88Z"/><path class="cls-5" d="M123.79,86.52a29.62,29.62,0,0,0-5.49-9.15l.24-.23a24.13,24.13,0,0,1,3.4,4.69A18,18,0,0,1,123.79,86.52Z"/><path class="cls-8" d="M107.76,120.13a17.68,17.68,0,0,0,1.76,10.78c2.86,5.5,5.17,17.93,4.07,22.44-1.4,1.59-2.36,10.5.28,12.76-1.16,5.17-.72,16.94-2.37,21.23s-1.21,10.23,1.32,12.32c-1.32,1.43-5.61,8.2,6.05,8s16.17-2.78,16.06-5.2-9-7-10.67-7.48c.55-1.32-2.53-4.51-4.18-5.72s0-22,0-22c2.56-.39,4.29-11.61,2.53-13.75.77-1.54,1.34-13.86,6.45-18.59s8-11.44,6.86-15.62"/><path class="cls-4" d="M115.23,199c-1.76-.82-3.21-6.19-1-13.2.78-5.63,1.62-16.76,1.65-19.91-1.67-4.27-1.87-10.18,0-12,.88-2.69.77-8.2.16-11.12-3.83-12.25-1.35-23.56-1.93-23.69-.52.78-1.61,4.2-3,4.27s-2.34-2.16-2.34-3.14a15.58,15.58,0,0,0,1.6,10.75c2.86,5.5,5.17,17.93,4.07,22.44-1.4,1.59-2.36,10.5.28,12.76-1.16,5.17-.72,16.94-2.37,21.23s-1.21,10.23,1.32,12.32c-1.25,1.36-5.2,7.55,4.46,7.94C113.36,206.05,113.09,202.76,115.23,199Z"/><path class="cls-9" d="M128.85,200.65c.72-1.69,2.1-3,4.65-1.1s4,3.57,3.71,4.55c-.38,1.23-5.24,2.54-7.94,1C127.34,204.07,128.85,200.65,128.85,200.65Z"/><path class="cls-11" d="M131.48,204.37a3.35,3.35,0,0,1-2.65-3.68c-.17.41-1.36,3.45.44,4.45,2.7,1.5,7.56.19,7.94-1a1,1,0,0,0,0-.42A8.8,8.8,0,0,1,131.48,204.37Z"/><path class="cls-12" d="M131.59,205.94a6.06,6.06,0,0,1-2.4-.66c-2-1.12-.56-4.54-.49-4.69a3.2,3.2,0,0,1,1.94-2,3.53,3.53,0,0,1,3,.87c2.72,2,4.09,3.7,3.77,4.73-.13.41-.67.83-1.52,1.17A9.66,9.66,0,0,1,131.59,205.94Zm-.19-7.14a1.87,1.87,0,0,0-.67.06,2.91,2.91,0,0,0-1.74,1.85h0s-1.42,3.31.36,4.29,4.59.74,6.37,0c.74-.3,1.24-.66,1.34-1,.27-.86-1.13-2.54-3.65-4.37A4.11,4.11,0,0,0,131.4,198.8Z"/><path class="cls-5" d="M112,138.59a34.17,34.17,0,0,1-.47-13.81,20.36,20.36,0,0,1,1.75-5.75c0,.09-3.53,9.52-1,19.47Z"/><path class="cls-9" d="M127.11,202c.61-1.81,1.93-3.24,4.73-1.54s4.47,3.36,4.24,4.4c-.29,1.31-5.21,3.08-8.14,1.76C125.85,205.71,127.11,202,127.11,202Z"/><path class="cls-10" d="M136.08,204.53c-.14-1-1.73-2.52-4.24-4-2.3-1.4-4-.58-4.67,1.33a3,3,0,0,1,3.89-1.08A14.7,14.7,0,0,1,136.08,204.53Z"/><path class="cls-11" d="M130.17,205.66a3.49,3.49,0,0,1-3.07-3.58c-.14.43-1.11,3.69.84,4.57,2.93,1.32,7.85-.45,8.14-1.76a1.09,1.09,0,0,0,0-.44A9.18,9.18,0,0,1,130.17,205.66Z"/><path class="cls-13" d="M130.41,207.28a6.19,6.19,0,0,1-2.54-.48c-2.2-1-1-4.66-.91-4.82a3.33,3.33,0,0,1,1.83-2.28,3.72,3.72,0,0,1,3.14.65c3,1.81,4.55,3.48,4.31,4.58-.1.44-.63.92-1.48,1.34A10.13,10.13,0,0,1,130.41,207.28Z"/><path class="cls-2" d="M186.31,43.12c-7,2.09-8,11.33-5.93,18.26s0,8.92,0,8.92l8.68-3.86C195.71,61,191.59,43,186.31,43.12Z"/><path class="cls-3" d="M186.31,43.12l-.07,0C192,47.73,193,58.91,189,66.32l.22-.13C195.83,60.78,191.59,43,186.31,43.12Z"/><path class="cls-4" d="M182,58.08c-1-4-.14-11.88,4.2-14.92-6.95,2.14-7.93,11.33-5.84,18.22s-.11,8.8-.11,8.8S184.48,67.62,182,58.08Z"/><path class="cls-5" d="M180.27,70.18s2-2,0-8.75c-1.53-5-1.28-10.4.66-14A8.76,8.76,0,0,1,186.27,43h0c1.81-.05,3.59,1.89,4.87,5.33,1.75,4.73,2.07,11,.25,15.17A5.64,5.64,0,0,1,189,66.32c4.06-3.31,4.15-11.87,1.91-17.91-1.2-3.21-2.87-5.12-4.49-5.12h0a8.48,8.48,0,0,0-5.16,4.29c-1.9,3.53-2.14,8.8-.64,13.76a17.48,17.48,0,0,1,.93,6C181.35,69.57,180.27,70.18,180.27,70.18Z"/><path class="cls-6" d="M186.86,64.57s-6.6-12.21-1.76-17.27C186.75,49.06,191.37,59.18,186.86,64.57Z"/><path class="cls-7" d="M186.6,59.53c-2.56-1.43-2.68-7.59-2.92-9.67-1.66,5.75,3.18,14.71,3.18,14.71a9.76,9.76,0,0,0,1.88-7.17C188.29,59,187.39,60,186.6,59.53Z"/><path class="cls-5" d="M186.83,64.87l-.11-.22c-.27-.5-6.6-12.37-1.74-17.46l.12-.13.12.13c1.66,1.77,6.37,12,1.77,17.49ZM185.1,47.55c-4.13,4.62,1,15.07,1.79,16.73C191,59,186.79,49.58,185.1,47.55Z"/><path class="cls-5" d="M185,69.05a3.47,3.47,0,0,0,1.63-1.9,4.87,4.87,0,0,0-.61-3.84l.3-.15a5.19,5.19,0,0,1,.62,4.1.31.31,0,0,1,0,.08A2.86,2.86,0,0,1,185,69.05Z"/><path class="cls-17" d="M219.35,86.05a45.84,45.84,0,0,0,4.42,14.88c2.9,5.48,6.91-.31,6-4.51C225.07,94.43,221.21,89,219.35,86.05Z"/><path class="cls-18" d="M226.44,103.33c-.74,0-1.81-.42-2.82-2.32a39.52,39.52,0,0,1-3.28-8.83v0l0-.19h.16a6.08,6.08,0,0,1,3.81,2.35c2,2.29,2.31,7,2.36,8.86v.16h-.25Z"/><path class="cls-5" d="M226.44,103.33c-.78,0-1.83-.45-2.82-2.32a46.12,46.12,0,0,1-4.43-14.94l-.09-.74.39.63c1.87,3,5.7,8.34,10.34,10.31l.07,0,0,.09c.58,2.66-.81,6.1-2.75,6.81A2.22,2.22,0,0,1,226.44,103.33Zm-6.83-16.56a45.36,45.36,0,0,0,4.3,14.08c.92,1.73,2,2.45,3.15,2,1.79-.65,3.06-3.84,2.56-6.35C225.24,94.64,221.61,89.86,219.61,86.77Z"/><path d="M202.57,64.68s-.12-2.65-2.18-3.13c-6-1.39-8.61,5-8.61,5C194.72,64.43,199.2,61.61,202.57,64.68Z"/><path class="cls-4" d="M197.73,67.1c2.49.16,4.92,3.2,4.77,6.92s-2.85,6-5.33,5.79A5.19,5.19,0,0,1,192.3,74C192.46,70.3,195.25,66.94,197.73,67.1Z"/><path class="cls-5" d="M200.16,68.08s-3-2.08-5.52.47C196.24,66.1,198.81,66.31,200.16,68.08Z"/><path d="M197.83,68.24c2.33.12,4.84,3.25,4.67,6.44a5.37,5.37,0,0,1-5.29,5.13c-2.33-.12-4.79-2.59-4.62-5.79S195.5,68.11,197.83,68.24Z"/><path class="cls-19" d="M197.8,68.69c2.25.12,4.36,2.93,4.51,6,.21,4.16-2,6.93-5.67,6.35-2.21-.35-4-2.86-4-5.94C192.65,71,195.56,68.57,197.8,68.69Z"/><path d="M197.59,81.3a5.55,5.55,0,0,1-1-.08c-2.36-.37-4.14-3-4.14-6.12a7.07,7.07,0,0,1,2.1-5.23,4.53,4.53,0,0,1,3.24-1.37h0c2.34.13,4.53,3,4.69,6.18a6.72,6.72,0,0,1-1.83,5.49A4.49,4.49,0,0,1,197.59,81.3Zm0-12.43a4.26,4.26,0,0,0-2.82,1.27,6.72,6.72,0,0,0-2,5c0,2.94,1.65,5.41,3.83,5.76a4.42,4.42,0,0,0,3.75-1,6.39,6.39,0,0,0,1.71-5.2c-.16-3-2.18-5.71-4.34-5.83Z"/><path class="cls-20" d="M195.64,71.76c1.41.08,2.48,1.63,2.39,3.46s-1.32,3.24-2.73,3.16-2.48-1.63-2.39-3.46S194.22,71.68,195.64,71.76Z"/><path class="cls-19" d="M194.07,74.86a.92.92,0,0,1,.74,1,.86.86,0,0,1-1,.74.89.89,0,0,1-.74-1A.86.86,0,0,1,194.07,74.86Z"/></svg>