<svg id="Layer_1" data-name="Layer 1" xmlns="http://www.w3.org/2000/svg" viewBox="0 0 90 40"><defs><style>.cls-1,.cls-4{fill:#fff;}.cls-1{stroke:#939292;}.cls-1,.cls-5{stroke-miterlimit:10;stroke-width:0.25px;}.cls-2{fill:#29aae1;}.cls-3{fill:#212120;}.cls-5{fill:#9d492f;stroke:#6e3121;}</style></defs><path class="cls-1" d="M83.36,20.5c-.85,6.4-5.5,11.07-10.38,10.42s-8.15-6.36-7.3-12.76S71.17,7.09,76.06,7.74,84.21,14.1,83.36,20.5Z"/><path class="cls-2" d="M80.9,21.52c-.62,4.62-4,8-7.49,7.52s-5.89-4.6-5.27-9.22,4-8,7.49-7.51S81.51,16.9,80.9,21.52Z"/><path class="cls-3" d="M79.36,21.42c-.46,3.41-2.94,5.9-5.54,5.55s-4.35-3.39-3.89-6.81,2.93-5.9,5.53-5.55S79.81,18,79.36,21.42Z"/><path class="cls-4" d="M79.28,17.14c-.12.88-.74,1.53-1.38,1.45a1.45,1.45,0,0,1-1-1.76c.12-.89.73-1.53,1.38-1.45A1.45,1.45,0,0,1,79.28,17.14Z"/><path class="cls-1" d="M6.64,21.84c.85,6.4,5.5,11.07,10.38,10.42s8.15-6.36,7.3-12.76S18.83,8.43,13.94,9.08,5.79,15.44,6.64,21.84Z"/><path class="cls-2" d="M21.34,19.82c1.2,4.5-.62,8.89-4.05,9.81s-7.19-2-8.39-6.5.62-8.9,4-9.81S20.15,15.31,21.34,19.82Z"/><path class="cls-3" d="M19.88,20.31c.88,3.33-.46,6.58-3,7.25s-5.31-1.48-6.2-4.8.46-6.58,3-7.25S19,17,19.88,20.31Z"/><path class="cls-4" d="M16,17.16c.13,1,.83,1.68,1.58,1.58a1.6,1.6,0,0,0,1.11-1.93c-.13-1-.84-1.68-1.58-1.59A1.61,1.61,0,0,0,16,17.16Z"/><path class="cls-5" d="M83.36,20.5c-.85,6.4-5.5,11.07-10.38,10.42s-8.15-6.36-7.3-12.76S71.17,7.09,76.06,7.74,84.21,14.1,83.36,20.5Z"/><path class="cls-5" d="M6.64,21.84c.85,6.4,5.5,11.07,10.38,10.42s8.15-6.36,7.3-12.76S18.83,8.43,13.94,9.08,5.79,15.44,6.64,21.84Z"/></svg>