<svg id="Layer_1" data-name="Layer 1" xmlns="http://www.w3.org/2000/svg" viewBox="0 0 275 256"><defs><style>.cls-1{opacity:0.19;}.cls-2{fill:#ffe7d3;}.cls-3{fill:#d3b498;}.cls-4{fill:#6b5e55;}.cls-5{fill:#313131;}.cls-6{fill:#1d1d1d;}.cls-7{fill:#5b5b5b;}.cls-8{fill:#f2d9bd;}.cls-9{fill:#fcefe3;}.cls-10{fill:#6a5a4c;}.cls-11{fill:#d6bbaa;}.cls-12{fill:#fffaf6;}.cls-13{fill:#ffa88f;}.cls-14{fill:#dd846f;}.cls-15{fill:#fff;}.cls-16{fill:#ccc;}.cls-17{fill:#0092ff;}.cls-18{fill:#005dcc;}.cls-19{fill:#003084;}.cls-20{fill:#9b7757;}.cls-21{fill:#896446;}.cls-22{fill:#bfad9e;}.cls-23{fill:#97816f;}.cls-24{fill:#726153;}</style></defs><ellipse class="cls-1" cx="175.98" cy="227.82" rx="96.2" ry="17.17"/><path class="cls-2" d="M252.86,172.87c-3.79,4.85.88,20,.82,24.82-.11,8.27-1.13,18.08-9.92,23.82,2.36,1,10.64,6.6,12.28,7.42,1.87-6.15,7.38-4.92,9.12-9.13s-1-12.75-1.09-20.81,3.76-22.05-2.09-27.83C259.83,171.81,254.29,171,252.86,172.87Z"/><path class="cls-3" d="M264.07,199c-.14-8.07,3.76-22.05-2.09-27.83a12.07,12.07,0,0,1-2.6.31c3.57,10.5.55,25,.87,29.64.34,4.93,3.61,13.19.81,17.57-1.32,2-6.81,5-8.48,8.38a38.93,38.93,0,0,0,3.46,1.87c1.87-6.15,7.38-4.92,9.12-9.13S264.2,207.05,264.07,199Z"/><path class="cls-4" d="M256.17,229.22l-.22-.11c-.67-.33-2.43-1.45-4.46-2.73-2.86-1.82-6.42-4.08-7.81-4.68l-.35-.15.32-.21c8.44-5.52,9.71-14.63,9.82-23.65a45.59,45.59,0,0,0-.89-6.72c-1.15-6.59-2.57-14.79.11-18.22,1-1.25,3.64-1.36,6-1.46a15.79,15.79,0,0,0,3.24-.32l.12,0,.09.09c4.29,4.24,3.43,12.71,2.67,20.19a70.22,70.22,0,0,0-.53,7.77,79.62,79.62,0,0,0,.93,9.44c.66,4.76,1.23,8.86.15,11.46-.8,1.94-2.35,2.75-4,3.61-2,1.06-4.1,2.16-5.12,5.5Zm-12-7.74c1.57.77,4.72,2.77,7.53,4.55,1.83,1.16,3.44,2.18,4.21,2.6,1.1-3.32,3.3-4.48,5.25-5.5,1.57-.83,3.06-1.61,3.8-3.4,1-2.5.47-6.56-.18-11.25a80.46,80.46,0,0,1-.93-9.49,70.74,70.74,0,0,1,.53-7.82c.74-7.34,1.59-15.65-2.47-19.78a17.22,17.22,0,0,1-3.23.31c-2.26.1-4.82.2-5.67,1.3-2.58,3.29-1.11,11.74,0,17.9a46.42,46.42,0,0,1,.9,6.79C253.77,206.29,252.53,215.82,244.18,221.48Z"/><path class="cls-5" d="M244.91,220.57c-3.47.71-11.22,8-10.52,10.16.47,1.48,3.49,2.37,5.44,1.82-.55,2.88,12.87,2.64,16.07.58C262.34,229,251,219.34,244.91,220.57Z"/><path class="cls-6" d="M254.75,224.25c.66,2.52,0,5.77-2.17,6.8-4.16,2-11.7,3.28-12.68,1.88.58,3.16,13.18,2,16,.2C259.16,231,257.62,227,254.75,224.25Z"/><path class="cls-6" d="M238.71,230.83a4.77,4.77,0,0,1-4.32-.1c.7,1.51,3.54,2.28,4.46,2.14a5.15,5.15,0,0,0,1-.13c1.84-2.56,2.69-4.75,5-7.29C241.27,226.93,240.61,229.5,238.71,230.83Z"/><path class="cls-7" d="M254.83,224.53c-2.62-2.64-7.51-4.45-9.92-4-2.25.46-10.14,6.45-10.57,9.68,2.79-3.4,8.61-7.39,10.51-7.67C247.8,222.14,250.88,222.89,254.83,224.53Z"/><path d="M246.84,234.9h0c-1.72,0-5.86-.15-7-1.48a1.06,1.06,0,0,1-.27-.6c-1.9.4-4.91-.41-5.42-2a2.74,2.74,0,0,1,.53-2c1.75-3,7.29-7.82,10.15-8.4a6.09,6.09,0,0,1,1.16-.11c4.45,0,10.62,4.39,11.79,8.39A3.86,3.86,0,0,1,256,233.3C254.31,234.4,250.07,234.9,246.84,234.9Zm-6.74-2.63-.07.32a.68.68,0,0,0,.16.57c.68.82,3.23,1.33,6.65,1.33h0c3.87,0,7.55-.63,8.95-1.53a3.46,3.46,0,0,0,1.64-4.2c-1.14-3.85-7.1-8.09-11.4-8.09a6.19,6.19,0,0,0-1.08.1c-2.77.57-8.17,5.3-9.87,8.2-.56.95-.58,1.44-.5,1.69.35,1.11,2.33,1.85,4,1.85a4.71,4.71,0,0,0,1.23-.15Z"/><path class="cls-2" d="M208.83,165.9c-1.51,10-6.43,30.11-19.14,40.33.82,1.64,7.55,6.19,8.58,7.28,2.35-1.7,10.42-3.11,11.72-5.43s.41-15.55,5.23-21.4,13.54-14.05,8.82-20.78C220.55,165.86,209.39,162.14,208.83,165.9Z"/><path class="cls-3" d="M224,165.9a31.29,31.29,0,0,1-4.39-.66c3.47,10.3-6.38,15.94-8.22,20.21-3,6.88-2.35,17.83-5.39,21.27-2.39,2.7-6.83,2.77-9.93,4.15a14.6,14.6,0,0,1,2.16,2.64c2.35-1.7,10.42-3.11,11.72-5.43s.41-15.55,5.23-21.4S228.76,172.63,224,165.9Z"/><path class="cls-4" d="M198.24,213.79l-.12-.13a34.2,34.2,0,0,0-2.74-2.19c-2.37-1.8-5.33-4.05-5.88-5.14l-.07-.15.13-.11c13.75-11,18.07-33.56,19.07-40.2.18-1.25,1.38-1.86,3.64-1.86a42.48,42.48,0,0,1,7.3,1,31.19,31.19,0,0,0,4.47.68h.11l.06.09c4.18,6-1.88,13-6.76,18.6-.74.85-1.44,1.66-2.07,2.43-3.17,3.84-3.83,10.86-4.32,16-.24,2.56-.43,4.57-.89,5.39-.81,1.44-3.91,2.48-6.91,3.49a22.58,22.58,0,0,0-4.87,2ZM190,206.28c.69,1.08,3.56,3.25,5.68,4.86,1.22.93,2.2,1.68,2.66,2.11a23.83,23.83,0,0,1,4.84-2c2.79-.94,6-2,6.68-3.31.41-.74.6-2.72.84-5.23.49-5.17,1.16-12.26,4.41-16.2.64-.77,1.34-1.58,2.08-2.44,4.76-5.49,10.67-12.31,6.79-18a33.47,33.47,0,0,1-4.43-.68,42,42,0,0,0-7.23-1c-2,0-3.09.5-3.24,1.51C208,172.58,203.71,195.1,190,206.28Z"/><path class="cls-8" d="M206.66,159.4c-1,2.55,1.23,11.23,5.54,8.72-.23,2.67,6.84,5.26,7.05,0,6.12,1.41,8-5.54,3.46-7.92,1.89-1.84,3.53-9.33-1.85-8.61S208.28,155.25,206.66,159.4Z"/><path class="cls-9" d="M206.55,159.75c-.65,2.67.55,6,2,7.81,1.83,1.78,3.58.69,3.91.18C208,167,208,162.65,206.55,159.75Z"/><path class="cls-3" d="M222.71,160.17c1.89-1.84,3.53-9.33-1.85-8.61-1.44.19-4,2.12-5.54,2.62-.15,2.15,1.75,4.27,4.72,3.79a8.15,8.15,0,0,0,.82,4.51c4.38,1.74.52,5.77-2.46,3.28-.13,3.63-5.36,4.86-6.09,2.06-.14,3.5,6.76,4.66,6.94.27C225.37,169.5,227.29,162.55,222.71,160.17Z"/><path class="cls-10" d="M216.35,171.37a5.27,5.27,0,0,1-3.67-1.58,2.34,2.34,0,0,1-.68-1.33,3.08,3.08,0,0,1-1.31.32h0A3.41,3.41,0,0,1,208,167c-1.54-2.26-2.11-6.13-1.49-7.7,1.62-4.15,8.61-7.21,14.36-8,1.77-.24,3,.37,3.56,1.74.88,2.15-.16,5.62-1.35,7a4.58,4.58,0,0,1,2.28,5,4.43,4.43,0,0,1-4.52,3.31,6.41,6.41,0,0,1-1.36-.14A2.93,2.93,0,0,1,216.35,171.37Zm-3.92-3.63,0,.4a1.91,1.91,0,0,0,.58,1.38,5,5,0,0,0,3.37,1.44c1,0,2.59-.38,2.69-2.87v-.25l.24,0a6.75,6.75,0,0,0,1.51.18,4,4,0,0,0,4.12-3,4.2,4.2,0,0,0-2.31-4.72l-.25-.13.2-.19c1.16-1.13,2.3-4.69,1.45-6.77-.48-1.2-1.54-1.71-3.12-1.5-5.72.76-12.53,3.86-14,7.72-.57,1.45,0,5.19,1.45,7.32a3.12,3.12,0,0,0,2.39,1.57h0a2.8,2.8,0,0,0,1.4-.43Z"/><path class="cls-5" d="M192.15,205.21c-4.41.2-13.84,10.48-13,12.49.56,1.39,3.83,2.21,7,1.05-2.36,4.32,15.84,3.16,16.44-1C203.16,213.5,196.22,205,192.15,205.21Z"/><path class="cls-6" d="M185,216.89c-1.59.85-4.15,1.77-6,.79.76,1.49,4.17,2,6.8,1.17,2.75-2.63,3.69-6,6.32-9.08C187.17,212.25,186.84,215.93,185,216.89Z"/><path class="cls-7" d="M192,207.41c1.78-.38,4.48.69,7.12,2.24-2.2-3-5.39-4.51-6.94-4.44-4.17.19-12.8,9.35-13.07,12.07C182.35,212.49,188.91,208.06,192,207.41Z"/><path class="cls-6" d="M197.48,218.05c-1.5.79-9.61,3.43-11.58,1.57.42,3.26,16.08,2,16.64-1.83.28-2-1.68-5.64-3.58-8.14C199.58,213.74,200.4,216.51,197.48,218.05Z"/><path d="M191.63,221.69h0c-1.45,0-4.92-.15-5.76-1.56a1.26,1.26,0,0,1-.12-1,9.35,9.35,0,0,1-2.72.42c-2,0-3.69-.71-4.1-1.73-.2-.52.11-1.43.93-2.71,2.48-3.85,8.88-9.91,12.29-10.07,1.85-.09,4.4,1.53,6.78,4.28,2.63,3.05,4.13,6.4,3.82,8.54C202.36,220.46,195.88,221.69,191.63,221.69Zm-5.09-3.32-.26.48a1,1,0,0,0-.07,1.07c.51.85,2.53,1.36,5.41,1.36h0c4.82,0,10.4-1.45,10.71-3.52s-1.21-5.3-3.73-8.21c-2.26-2.61-4.74-4.2-6.45-4.14-3.29.15-9.53,6.1-12,9.88-1,1.58-1,2.16-.9,2.34.35.85,1.91,1.47,3.72,1.47a8.89,8.89,0,0,0,3-.54Z"/><path class="cls-2" d="M114.14,183.09c-3.33,5.34-.83,20.39-1.93,24.87-.62,2.51-3.2,9.69-4.77,11.2a35.3,35.3,0,0,0,5.4,7.17c.75-.78,7-3.45,8.65-6.53,1.33-2.49.16-8.58.21-16.93a66.44,66.44,0,0,1,5-23.46C122.05,179.71,115.76,180.5,114.14,183.09Z"/><path class="cls-3" d="M126.67,179.41c-1.35.09-2.84.22-4.32.42-6.31,11.85-2.8,36-4.45,38.85-1.57,2.7-4.41,3.59-7.15,5.31.21.22,1.94,2.2,2.09,2.34.75-.78,7-3.45,8.65-6.53,1.33-2.49.16-8.58.21-16.93A66.44,66.44,0,0,1,126.67,179.41Z"/><path class="cls-4" d="M112.85,226.62l-.15-.14a35.3,35.3,0,0,1-5.45-7.25l0-.13.1-.09c1.5-1.44,4.08-8.53,4.71-11.1.4-1.64.31-4.72.21-8.29-.17-5.9-.38-13.23,1.75-16.64,1.29-2.07,5.44-3.31,12.69-3.77l.34,0-.14.31a66,66,0,0,0-5,23.37c0,3,.13,5.78.26,8.19.22,4.18.38,7.21-.49,8.84-1.19,2.24-4.64,4.19-6.92,5.49a11.6,11.6,0,0,0-1.76,1.09Zm-5.16-7.42a36.57,36.57,0,0,0,5.16,6.86,15.3,15.3,0,0,1,1.69-1c2.11-1.19,5.64-3.19,6.77-5.32.81-1.53.66-4.51.44-8.63-.13-2.41-.28-5.15-.26-8.21a66.91,66.91,0,0,1,4.86-23.23c-6.81.47-10.85,1.66-12,3.56-2,3.3-1.85,10.57-1.68,16.41.1,3.6.19,6.71-.22,8.4C111.81,210.47,109.31,217.46,107.69,219.2Z"/><path class="cls-5" d="M108.12,218.27c-3.69.36-12.06,8.15-11.45,9.69s5.23,1.87,7,1.38c-3.64,4.69,10.64,3,12.25,0C117.39,226.68,109.72,218.11,108.12,218.27Z"/><path class="cls-6" d="M111.8,229.38c-1.46,1-6.65,2.55-8.69,1.36.15,2.87,11.42,1.24,12.84-1.4.63-1.16-1.17-4.69-2.75-6.89C114.24,226.57,113.07,228.5,111.8,229.38Z"/><path class="cls-7" d="M107.73,220.14c1.45-.13,4.6,2.33,5.8,3.09-1.9-2.35-4.64-5-5.41-5-3.34.33-10.81,6.85-11.47,9.49C99.11,224.84,105,220.4,107.73,220.14Z"/><path class="cls-6" d="M96.67,228c1.17,2,6.61,1.57,7,1.51a38.17,38.17,0,0,1,4.72-5.48c-2.41,0-4.74,3.17-6,3.76A6.81,6.81,0,0,1,96.67,228Z"/><path d="M106.82,232.46h0c-1.46,0-3.3-.21-3.8-1.23a1.65,1.65,0,0,1,.22-1.58,10.26,10.26,0,0,1-1.55.1c-1.68,0-4.66-.36-5.21-1.72-.12-.31,0-.76.38-1.37,1.69-2.79,8.13-8.29,11.24-8.6h.07c1.23,0,5,3.81,6.89,7,.82,1.37,1.67,3.24,1.07,4.35C115.2,231.17,110.45,232.46,106.82,232.46ZM104.24,229l-.38.49c-.5.65-.66,1.18-.47,1.58.32.64,1.57,1,3.43,1,3.37,0,8.11-1.25,9-2.81.4-.73,0-2.13-1.06-3.94-1.93-3.23-5.55-6.83-6.54-6.83-2.94.29-9.32,5.69-11,8.4-.41.67-.38.93-.35,1,.39,1,2.72,1.46,4.83,1.46a7.89,7.89,0,0,0,2-.2Z"/><path class="cls-8" d="M109.77,149.22s-6.57,5.06-1,10.05c-1.64,1.36-3.76,4.3.2,7.24-1.12,1.24-2.25,5,.76,5.81-.65,1.3-3.35,6.7,3.14,6.29-3.06,3-2.22,10.16,4.41,5.13,0,2.3,4.89,5.2,6.32-1.21,2.33,2.1,7-4.1,6.52-7.23-.67-2.77-4.67-26.08-4.67-26.08C123.34,150.17,109.77,149.22,109.77,149.22Z"/><path class="cls-9" d="M113.56,171.92c-5.73-1.33-4-4.41-.58-5.75-4.14-1.33-3.64-3.37-1.33-6.7-4.35-3.21-3.51-6.93-2.43-9.33a5.59,5.59,0,0,0-.41,9.13c-1.64,1.36-3.76,4.3.2,7.24-1.12,1.24-2.25,5,.76,5.81-1.1,2.49-2.93,6.57,3.56,6.16C109,178.17,111.2,173.39,113.56,171.92Z"/><path class="cls-3" d="M130.16,175.3c-.52-2.15-3-16.62-4.14-23-2.63.23-4.22-.78-5.69,1.43-1.64,2.87-1.6,7.29,1.28,8.11-3.61,1.63-2,7.52,1.12,8.28-1.64,2-2.47,6.48,2.08,8.4-.09.7-1.09,1.47-2.45,1.77-.74,4.77-3.15,5.07-4,.79-3.33,2.95-6.2,3.34-6.91-.55-1.21,5.47,2.11,6.09,5.87,3.24,0,2.3,4.89,5.2,6.32-1.21C126,184.63,130.62,178.43,130.16,175.3Z"/><path class="cls-10" d="M120.32,186.64a3.37,3.37,0,0,1-2.35-1,2.84,2.84,0,0,1-.82-1.47,6.74,6.74,0,0,1-3.73,1.57,2.19,2.19,0,0,1-2.14-1.44,5.78,5.78,0,0,1,1.15-5.41c-1.82,0-3-.42-3.59-1.36-1-1.56.12-4,.64-5a2.6,2.6,0,0,1-1.72-1.78,5.16,5.16,0,0,1,1-4.12,4.73,4.73,0,0,1-2.17-3.54,5.21,5.21,0,0,1,2-3.75,5.86,5.86,0,0,1-2.16-4.53c.11-3.18,3.17-5.57,3.3-5.68l.06,0h.08c.06,0,6.08.43,10.68.43,3.33,0,4.53-.22,5-.41l.24-.11,0,.26c0,.24,4,23.34,4.67,26.07.26,1.77-1,4.31-2.39,5.91-1.51,1.76-3.11,2.41-4.2,1.72C123,186.14,121.27,186.64,120.32,186.64Zm-2.79-3.32v.42a2.28,2.28,0,0,0,.73,1.56,3,3,0,0,0,2.06.93c1.47,0,2.58-1.33,3.12-3.75l.08-.34.26.24a1.44,1.44,0,0,0,1,.37,4.5,4.5,0,0,0,2.92-1.86c1.54-1.78,2.51-4.12,2.29-5.56-.62-2.58-4.19-23.35-4.62-25.84a20.49,20.49,0,0,1-4.87.36c-4.33,0-9.89-.37-10.63-.42-.42.35-3,2.56-3.08,5.31a5.6,5.6,0,0,0,2.2,4.37l.17.16-.18.15a5,5,0,0,0-2,3.58,4.5,4.5,0,0,0,2.18,3.35l.18.13-.15.17a4.77,4.77,0,0,0-1,3.9,2.22,2.22,0,0,0,1.67,1.58l.24.06-.11.23c-.42.83-1.68,3.36-.76,4.85.47.77,1.5,1.16,3,1.16l.66,0,.54,0-.38.38a5.38,5.38,0,0,0-1.4,5.33,1.8,1.8,0,0,0,1.76,1.19,7,7,0,0,0,3.78-1.7Z"/><path class="cls-2" d="M133.83,188.32c-3.6,6.36-.14,27.74-1.06,30.43s-5.08,7.16-6.1,7.57c1.08,1.18,5.13,7.07,6,8.1,1.43,0,8.44-2.33,10.1-4.67,2.56-3.59-4.84-30.38,1.23-44.19C141.57,185.42,135.28,185.77,133.83,188.32Z"/><path class="cls-3" d="M144,185.56a12.11,12.11,0,0,0-3.71.13c-6.07,7.55.91,33.47-1.21,39-.95,2.48-2.94,5.26-7.75,7.88.61.86,1.1,1.55,1.34,1.84,1.43,0,8.44-2.33,10.1-4.67C145.28,226.16,137.88,199.37,144,185.56Z"/><path class="cls-4" d="M132.62,234.62h-.1l-.06-.07c-.32-.4-1.11-1.5-2-2.78-1.45-2.05-3.26-4.6-3.92-5.32l-.2-.21.27-.11c1-.38,5.07-4.77,6-7.44.3-.89.09-4.15-.15-7.93-.5-7.73-1.17-18.31,1.23-22.54,1.2-2.13,5.77-2.89,9.31-2.89q.54,0,1,0h.3l-.12.27c-3.72,8.45-2.35,21.89-1.35,31.7.66,6.44,1.13,11.09.1,12.53C141.18,232.26,134.12,234.62,132.62,234.62ZM127,226.38c.78.92,2.44,3.25,3.79,5.15.85,1.19,1.59,2.24,1.93,2.68,1.61-.1,8.28-2.37,9.85-4.58.94-1.32.45-6.14-.18-12.24-1-9.76-2.35-23.08,1.26-31.64H143c-3.43,0-7.84.7-9,2.68-2.34,4.13-1.66,14.64-1.17,22.31.26,4.14.46,7.13.13,8.09C132.1,221.33,128.39,225.49,127,226.38Z"/><path class="cls-5" d="M127.83,225.43c-3.43.46-9,6.4-9.38,10.06-.06.66,1.37,1.75,4.41,1.06-1.68,4.46,10.87,3.87,13.5,1.13C138.78,235.17,131.8,224.9,127.83,225.43Z"/><path class="cls-6" d="M132.72,236.45c-1.55.77-8.12,2.84-10,1.31.89,3.1,11.23,2.38,13.59-.08,1.28-1.32-.06-4.8-2.19-7.72C135.18,233.58,134.44,235.61,132.72,236.45Z"/><path class="cls-6" d="M120.55,236.75a13.2,13.2,0,0,0,2.31-.2c1.86-2.85,2.75-4.43,4.46-6.88-2.91,1.09-3.81,3.93-4.89,4.82s-2.36,1.71-4,1.17A2.4,2.4,0,0,0,120.55,236.75Z"/><path class="cls-7" d="M127.93,227.1c2.28-.19,3.73.86,6.5,3.17-1.76-2.62-5-5.05-6.6-4.84-3,.41-8.24,5.36-9.38,9.95C120.52,231.63,125.59,227.29,127.93,227.1Z"/><path d="M128.37,240h0c-2.79,0-4.82-.61-5.55-1.67a1.82,1.82,0,0,1-.26-1.52,8.21,8.21,0,0,1-1.51.15,3.3,3.3,0,0,1-2.53-.82.92.92,0,0,1-.28-.68c.35-3.74,6-9.78,9.56-10.25,2.74-.36,6.86,4.11,8.56,8.1.88,2.08.94,3.68.15,4.49C135.12,239.27,131.36,240,128.37,240Zm-5.19-3.75-.13.36a1.52,1.52,0,0,0,.11,1.49c.64.93,2.59,1.49,5.21,1.49,3.33,0,6.71-.89,7.84-2.07.66-.68.57-2.16-.23-4-1.61-3.78-5.59-8.19-8.12-7.86-3.37.45-8.88,6.36-9.21,9.88a.52.52,0,0,0,.17.37,2.93,2.93,0,0,0,2.23.69,7.63,7.63,0,0,0,1.76-.22Z"/><path class="cls-8" d="M260.91,83.93s7.74-5.33.9-8.48c2-2.24,3.21-9.72-2.39-8,1.54-6.29-8-8.9-6.51,0-6-3.18-8.46,2.66-4.16,6.77-4.46-.72-7.69,3.12-2.53,6.06-5.36,0-6.17,5.82-7.06,9,1.16,3.76,3,13.18,7.41,12.84s16.49-4.54,10.29-9.57C260.29,92.23,267.84,87,260.91,83.93Z"/><path class="cls-9" d="M248.63,81c-4.9-4.62-4-6,1.78-6-4.81-5.48-1.62-8.83,3-6.27.46-3.63,1.61-4.48,2.45-4.79s2.7-.48,3.28,3.8a4.06,4.06,0,0,0,.45-1.56c.1-5.33-8-7-6.67,1.28-6-3.18-8.46,2.66-4.16,6.77-4.46-.72-7.69,3.12-2.53,6.06-3.81,0-5.32,3-6.19,5.77C242.53,81.92,243.81,81.82,248.63,81Z"/><path class="cls-3" d="M260.91,83.93s7.74-5.33.9-8.48c1.86-2.12,2.4-7.28.69-7.74a3,3,0,0,0-3.37,0c3.21-.14,4.24,3.32-.16,7C263,78,262.36,80.51,258,84c2.11,1.8,4.72,5.7-4.15,6.77.52,4-2.48,6.87-5.59,5.88,2-3.79.45-8.65-5.87-8.06.09-2-1-2.93-2.58-3.55-.56,1.48-.3,3.09-.63,4.27,1.16,3.76,3,13.18,7.41,12.84s16.49-4.54,10.29-9.57C260.29,92.23,267.84,87,260.91,83.93Z"/><path class="cls-10" d="M246.33,102.33h0c-3.79,0-5.61-6.64-6.81-11-.21-.76-.39-1.41-.56-2v-.12c.1-.35.2-.73.3-1.13.77-3,1.92-7.51,6.29-8-1.68-1.11-2.44-2.45-2.1-3.73.41-1.56,2.43-2.61,4.75-2.44-1.63-1.77-2.25-3.94-1.57-5.63a3.15,3.15,0,0,1,3.11-2,6.89,6.89,0,0,1,2.91.76c-.34-2.55.28-3.91.87-4.6a2.8,2.8,0,0,1,2.18-1,4,4,0,0,1,3.1,1.61,4.94,4.94,0,0,1,.89,4c1.77-.45,3,0,3.62,1.32.86,1.89.08,5.26-1.17,6.9,1.67.82,2.58,1.87,2.69,3.11.2,2.38-2.6,4.7-3.52,5.4,2.44,1.19,2.77,2.6,2.6,3.6-.4,2.39-4.13,4.74-6.58,5.19,1.27,1.15,1.72,2.33,1.34,3.53-1.09,3.5-9,5.87-12.09,6.11Zm-7-13.06c.17.54.35,1.18.55,1.91,1.09,4,2.93,10.74,6.41,10.74h.22c3.49-.27,10.77-2.75,11.73-5.82.35-1.13-.17-2.27-1.55-3.39l-.4-.32.51,0c2.23-.2,6.27-2.58,6.66-4.92.22-1.3-.68-2.41-2.68-3.31l-.33-.14.3-.21s3.85-2.69,3.63-5.24c-.1-1.14-1-2.11-2.69-2.88l-.25-.12.18-.21c1.25-1.42,2.1-4.85,1.28-6.66-.54-1.2-1.73-1.54-3.46-1l-.35.1.09-.35a4.6,4.6,0,0,0-.75-4,3.65,3.65,0,0,0-2.77-1.46,2.41,2.41,0,0,0-1.87.85c-.56.67-1.15,2-.72,4.67l.06.4-.36-.19a6.72,6.72,0,0,0-3.07-.89A2.76,2.76,0,0,0,247,68.48c-.55,1.37-.18,3.64,1.89,5.61l.47.45-.65-.1a6.18,6.18,0,0,0-1-.09c-1.92,0-3.5.89-3.84,2.16s.58,2.54,2.48,3.62l.66.37h-.76c-4.6,0-5.73,4.45-6.56,7.67C239.56,88.56,239.47,88.93,239.37,89.27Z"/><path class="cls-8" d="M248.54,108.74s6.15-9.29-4.58-9.91c4-3.76,2.41-8.78-3.33-9.06,1.33-3.07-.84-7.76-6.58-5.64,2.12-2.87-1.78-9.84-8.62-4.1.21-4.44-5.36-10.36-11.93-4.2-.41-2.22-4.25-6-9.69-1.64-1.69-3.49-7.79-4.36-9,.15-1.18-2.2-7.27-3-8.19,1.45-2.46-1.64-9.11-2.9-11.06,5.2-2.78-4.41-6.39-4.19-8.49.17-1-3.54-6.92-5.49-9.54.67-.92-2.4-7-7.71-12.22-.6-.68-1.74-5.28-2.84-6.41.37-.41-3.21-3.18-7.07-6.84-2.59-.3-4.38-4-7.61-9.24-2.8-1.08-1.72-3.88-1.34-6,.09.55-2.63,1.71-8.64-7.25-10.69C106.78,70.4,85.23,105,84.7,107.51c-.72,1.34,0,8.67,3.74,9.9-2.1,3.28-.1,14.25,6.16,12.66-2,4-.87,8,3.18,8.31-2.65,2.5-1,9.47,6.1,5.59-.72,2.27.68,8.22,5.84,5.9,0,2.71,3.28,8.41,7.9,4.82,1.95,1.12,26.46,3.41,29,2.46,1.65,1.23,6.07,7.84,11.56,1.33.82,2.46,2.77,5.74,7.69.72.82,2,2.56,9.84,10.67,3.28,1.33,1.74,4.51,4.92,7.69-.41.71,1.64,5,5.64,8.41,0,1.89,3.64,8.71,3.28,10-1.13,2.41,2.26,5,1.85,6.47-2.36,2.46,1.85,7.89,4.46,6-4.71a4.24,4.24,0,0,0,6.7,1.91c-1,4.65.1,8.15,6,4.19-1.06,4,1.67,9.82,7.28,5.07-1.44,4.36,2.19,8.11,7.52,5-1.67,2.67,0,7.45,4.65,5.61-.24,2.63,3.83,6.7,6.43.68.95,2.05,8.54,5.23,8.1-2.63,3.69-1.1,6.9-9.33-.31-9,1.4-2,3.14-6-2.29-5.74.82-2-.05-6-5.28-5.09,1.64-2.61,2.41-6-4.36-5,4-3.25,4.41-6.55-.89-7.05,4.33-1.86,7.15-8,.17-9.3,2.87-2.05,6.36-7.89.1-12.2C251.55,118,256.09,110.59,248.54,108.74Z"/><path class="cls-9" d="M243.36,169.39c-6.55,2.87-7.12-3-6.76-7.33-5.33,3.58-6.51,1.95-6.31-4.91-5.36,2.22-6.9.31-5.67-4.82-4.72.92-7.18-1-6.9-5.5-4.31,1.09-9.64.9-5.47-5.27-6.22-1-7.86-3.14-2.53-7.65-8.41.2-8.07-3.49-4.75-7.83-5.13-.24-8.71-.62-7.1-5.29-1.32.63-1.3,2.45-1.83,3.76-.82,2.46.62,2.65,3.49,3.47-.82,1.23-1.64,3.29-.41,4.52,2.46,3.69,2.46,5.74,3.69,9.84.41,1.23,2.46,2.05,4.1,2.87a7.06,7.06,0,0,0-.82,4.92c.41.82.41,2.06,1.23,2.47,2.05.41,4.11-.41,6.16-.41-.6,2.07.74,3.07,2.14,4.09a17.65,17.65,0,0,0-.37-2.45,4.25,4.25,0,0,0,6.7,1.91c-.95,4.65.11,8.15,6,4.19-1.06,4,1.67,9.82,7.28,5.07-1.24,3.77,1.3,7.08,5.46,5.87A11.9,11.9,0,0,0,243.36,169.39Z"/><path class="cls-9" d="M232.16,78.12c-1.77-.76-4.11-.23-6.65,1.91.2-4.44-5.37-10.36-11.93-4.2-.41-2.22-4.26-6-9.69-1.64-1.69-3.49-7.8-4.36-9,.15-1.17-2.2-7.26-3-8.18,1.45-2.46-1.64-9.11-2.9-11.06,5.2-2.79-4.41-6.39-4.19-8.5.17-1-3.54-6.92-5.49-9.53.67-.93-2.4-7-7.71-12.22-.6-.68-1.74-5.28-2.84-6.41.37-.41-3.21-3.18-7.07-6.84-2.59-.31-4.38-4-7.61-9.24-2.8-1.08-1.72-3.88-1.34-6,.09.2-1,1.61-6.81-3.68-9.47,4.15,3.77,2.58,7.43,2.82,10.3,4.69-1.07,7.42-.29,5.4,6,4.92,1,6.87,4.1,5.89,9.74,2.54-3,3.12-10.18-3.45-10.91.82-1.24.46-4.44-.36-5.4,3.23-2.08,6.66,0,7.84,4.37,3.28-3.28,5.81-1.9,7.07,3.57,2.43-3.73,6.15-3.63,5.85,1.09,5-.44,7.52,2.5,5.19,7.62,6.94,0,8,2.76,3.69,6,4.38,1.85,7.8,3.69,4.08,8.05,3.13-1.47,4.81-5.73-.62-8.93,2.69-4.22-.13-7.79-4.72-6.37,2.72-3.57-.83-8.62-4.85-8.39.26-3.78,6.69-4.58,10.9,1.11,1.94-6.17,5.95-6.77,9.37-.89,1.23-5.2,5.15-6.07,7.84,0,3-2.73,6.5-.91,6.09,5.91,6.84-3.72,8.17.48,7.8,3.4,3.18-5.33-2.38-6.87-5.68-5.77a5.92,5.92,0,0,0-5-7c2.15-6.36,8.32-1.59,9.67-1,1.13-5.37,4-5.78,7.59-1.64,1.7-5.44,5-5.64,8.36-.82,3.89-4.33,7.37-2.64,8.8,1.88,2.53-3.18,4.88.34,1.34,4.65,6.39,0,7.07,1.94,4.37,6.66,3.56.72,5.95,1.54,4.17,5,3-2,1.3-5.52-1.77-6.31,2.19-5.15-.47-6.62-4-6.59.37-1.54,1.14-2.84.8-5-.29-1.84,7.34-3.24,7,4.79,3.42-3.35,9.77-2.5,8.79,2.64C235.9,82.36,234.36,79.07,232.16,78.12Z"/><path class="cls-3" d="M261.61,164.63c1.4-2,3.14-6-2.29-5.74.82-2-.06-6-5.29-5.09,1.65-2.61,2.41-6-4.35-5,4-3.25,4.41-6.55-.89-7.05,4.32-1.86,7.14-8,.17-9.3,2.87-2.05,6.36-7.89.1-12.2,2.56-2.26,7.11-9.64-.44-11.49,0,0,6.15-9.29-4.58-9.91,4-3.76,2.41-8.78-3.34-9.06,1.34-3.07-1-8.27-7.06-5.33,5.76,0,5.34,2,3.63,6.4,2.7,0,4.44,4.17.82,8.75,5.26,2,5.67,6.7,1.64,10.39,7,.54,8.41,8.2,1.71,10.12,4.37,3.48,6.77,8-1,10.8,5.81,2.34,6.74,7-1.46,10.39,6.15,2.46,8,5.06,3.38,9.3,5.21.36,10.25,1.88,7.71,5.06,3.33.37,7.43,2.76,2.41,6.42,7.28,3,5.17,7.16-.83,6.56,2.06,5.58-2.89,5.55-4,2.94-2.62,2.78-5.6,1.89-4.45-2.07-2.82,4.16.73,7.48,4.21,6.11-.24,2.63,3.82,6.7,6.42.68,1,2.05,8.55,5.23,8.1-2.63C265.61,172.56,268.82,164.33,261.61,164.63Z"/><path class="cls-3" d="M205.69,135.29c.23,0,.45-.09.67-.15A4.68,4.68,0,0,0,205.69,135.29Z"/><path class="cls-3" d="M215.25,153.87c.11.32-.49-2.76-.08-4.41-2.36,1-5.86,1.14-7.09-1.73a3.56,3.56,0,0,1,1-4.77,4.81,4.81,0,0,1-4.62-1c-2.39-1.36-1.67-5.73,1.24-6.68a6.36,6.36,0,0,1-5.34-1.11c-.82-2.05-1.26-5.09,1.85-6.35-4.34.23-7.42-3.12-4.42-7-2.86,1.16-3.16,6.34-1.52,8.39-5.21-.41-5.28,4-3.7,8.2-3.69-4.44-6.16,2-5.75,3.69-3.28-.82-2.82-4.27-4-6.36-1.73,2.73-3.93,4.94-5.47,5.61-2.16-3.73-5.06-2-5.57.48-1.37-3-4-2.87-5.44-.34.28-1.92-2.73-3.84-3.78-1.69-.18-1.35-1.62-2-3.05-1.15.2-2-1.72-3.33-3.29-1.67A5.67,5.67,0,0,0,151,131.1a9.13,9.13,0,0,1,1.78,7.18c-.41,1.23-1.64,1.64-2.46,2.05,2.05,2,.82,4.1-2.05,5.33-1.64.82,1.23,3.69.82,5.74-.82,1.24-2.05,1.65-3.7,2.06a11.82,11.82,0,0,0,1.84,4.1c1.92,1.83,6.06,6.89,11.09.92.82,2.46,2.76,5.74,7.69.72.82,2,2.56,9.84,10.66,3.28,1.33,1.74,4.51,4.92,7.69-.41.72,1.64,5,5.64,8.41,0,1.9,3.64,8.72,3.28,10.05-1.13,2.41,2.26,5,1.85,6.46-2.36C211.73,160.43,217.17,163,215.25,153.87Z"/><path class="cls-3" d="M110.7,131.16c.74-1.89-.59-2.82-2.64-2.13,1.79-2.33.25-3.56-1.55-3.67,2.06-.5,2.8-3.35,1.14-3.93a11.55,11.55,0,0,0,4-7c-5.06,3.07-6.32,1.88-8.85,1.11-1.49-4-4.9-4.36-8.14-1.48,1.78-2.93,2.19-5.34.19-5.6,14.92-6.1,27.53-23.53,15.9-42.51-3.44,5.85-25.49,39.09-26,41.6-.72,1.34,0,8.67,3.74,9.9-2.1,3.28-.1,14.25,6.15,12.66-2,4-.87,8,3.18,8.31-2.65,2.5-1,9.47,6.1,5.59-.71,2.27.69,8.22,5.85,5.9,0,2.71,3.28,8.41,7.9,4.82.6.35,3.36.81,7,1.25,1.78-12-8.17-16.63-9.52-26.09C113.1,131.08,111.67,131.32,110.7,131.16Z"/><path class="cls-10" d="M250.52,179.62a3,3,0,0,1-2.22-1.1,4.3,4.3,0,0,1-1.13-2.62c-2.09.73-3.86.17-4.74-1.43a4.71,4.71,0,0,1-.18-4,7.14,7.14,0,0,1-3.25.87,4.11,4.11,0,0,1-3.46-1.68,5,5,0,0,1-.69-4.09,5.94,5.94,0,0,1-3.49,1.43,3.3,3.3,0,0,1-2.67-1.38,6.83,6.83,0,0,1-1.06-5.23c-2.65,1.68-4.51,1.91-5.48.73s-.8-3.21-.49-4.93a4.63,4.63,0,0,1-2.44.75,4.52,4.52,0,0,1-3.54-1.89c.35,2.3.18,3.91-.53,4.77a2,2,0,0,1-1.69.75,8.31,8.31,0,0,1-4.09-1.69c-1.08,3-2.61,3.59-3.72,3.59a4.27,4.27,0,0,1-2.74-1.2,5.7,5.7,0,0,1-5.5,3.46,5.39,5.39,0,0,1-4.65-2.29c-1.16,1.8-2.53,2.72-4.06,2.72a5.63,5.63,0,0,1-4.36-2.71c-1.16,1.82-2.43,2.75-3.79,2.75-1.61,0-3-1.3-3.92-2.46-2.07,1.64-3.9,2.48-5.45,2.48-3.21,0-4.45-3.43-5.11-5.28,0-.14-.1-.28-.15-.4-3.57,3.52-6.25,3.22-7.69-.69-1.55,1.75-3.17,2.63-4.82,2.63-2.51,0-4.52-2-5.84-3.32-.34-.33-.63-.63-.86-.81a13.12,13.12,0,0,1-2.86.2c-6.73,0-23.79-1.64-26.13-2.65a4.91,4.91,0,0,1-2.94,1.11c-3,0-5-3.65-5.17-5.87-2,.83-3.78.43-4.89-1.09a6.69,6.69,0,0,1-1.07-4.72,7.85,7.85,0,0,1-3.46,1,3.5,3.5,0,0,1-3.42-2.26,4.6,4.6,0,0,1,.65-4.53,4.3,4.3,0,0,1-3.29-2.12,6.79,6.79,0,0,1,.18-6.06c-2.17.38-4-.69-5.3-3-1.62-3-2-7.61-.79-9.8a5.79,5.79,0,0,1-3-3.45c-1-2.59-1.12-5.73-.67-6.63.49-2,11.51-20,18.81-32,3-4.81,5.27-8.61,6.06-10l.08-.13.15,0c8.68,2,8,7.77,7.49,10.46a6.82,6.82,0,0,1,3.34-1,2.88,2.88,0,0,1,2.4,1,7.61,7.61,0,0,1,4.86-2.29c2.33,0,4.14,2,4.51,4.9a4.3,4.3,0,0,1,3.08-1.74c1.88,0,3.23,2,3.69,4.15a3.29,3.29,0,0,1,3-1.58,4.15,4.15,0,0,1,3.36,1.51c1.73-2.25,3.68-3.39,5.82-3.39a7.92,7.92,0,0,1,6.36,3.88c1.13-2.36,2.94-3.7,5-3.7a5,5,0,0,1,4.57,3c1.07-2,2.5-3,4.06-3s3,1,4.32,2.91c1.45-5.31,4.93-6.12,6.91-6.12a8.32,8.32,0,0,1,4.1,1.1,4.21,4.21,0,0,1,4.41-3.1,5.09,5.09,0,0,1,3.84,1.5A4.2,4.2,0,0,1,199,71.05a5.86,5.86,0,0,1,5,2.82A7.94,7.94,0,0,1,208.74,72a5.28,5.28,0,0,1,4.95,3.46A8.4,8.4,0,0,1,219.23,73a6.15,6.15,0,0,1,4.46,2,7.3,7.3,0,0,1,2,4.63,7.79,7.79,0,0,1,4.72-2,4.38,4.38,0,0,1,3.95,2.48,4.27,4.27,0,0,1,.19,3.66,7.7,7.7,0,0,1,2.23-.37,4.29,4.29,0,0,1,3.72,1.89,5,5,0,0,1,.47,4.31c2.59.2,4.52,1.41,5.21,3.28s0,4-1.7,5.79c2.91.24,4.8,1.19,5.62,2.82,1.32,2.64-.61,6.18-1.19,7.14,2.2.59,3.51,1.72,3.91,3.36.7,2.81-1.59,6.48-3.46,8.23,2.22,1.59,3.35,3.51,3.37,5.68a8.8,8.8,0,0,1-3.32,6.44c2.35.55,3.74,1.76,3.93,3.44.22,2.08-1.44,4.54-3.87,5.84,2.31.36,3.09,1.3,3.32,2.06.4,1.31-.5,3-2.49,4.82,2.59-.29,4.19.12,4.78,1.2s0,2.63-.67,3.84a7.86,7.86,0,0,1,1.06-.07,4.07,4.07,0,0,1,3.62,1.66,4.28,4.28,0,0,1,.49,3.55c1.78,0,2.9.38,3.38,1.28.73,1.38-.32,3.4-1,4.47,3.21,0,3.94,1.76,4.09,2.81a6.83,6.83,0,0,1-3.95,6.57,5.48,5.48,0,0,1-1.11,4.12,3.29,3.29,0,0,1-2.47,1,6.59,6.59,0,0,1-4.71-2.17C252.72,179.1,251.42,179.62,250.52,179.62Zm-2.9-4.33,0,.33a3.63,3.63,0,0,0,1,2.62,2.68,2.68,0,0,0,1.92,1c1.18,0,2.26-1,3.1-3l.19-.42.19.41c.43.92,2.53,2.29,4.55,2.29a2.9,2.9,0,0,0,2.18-.85,5.3,5.3,0,0,0,1-4v-.16l.16,0c2.15-.64,4.15-3.87,3.82-6.17-.25-1.7-1.63-2.56-4.06-2.45l-.41,0,.23-.34c.46-.68,1.91-3,1.19-4.37-.42-.8-1.51-1.15-3.3-1.05H259l.12-.3a3.9,3.9,0,0,0-.35-3.46c-.85-1.26-2.51-1.74-4.71-1.35l-.45.08.24-.39c.6-.95,1.5-2.7.89-3.8s-2.27-1.31-5-.91l-.73.1.57-.46c2.18-1.79,3.25-3.59,2.88-4.83-.31-1-1.58-1.66-3.66-1.85l-.8-.08.74-.32c2.57-1.1,4.47-3.67,4.25-5.72-.18-1.61-1.57-2.71-4-3.19l-.47-.09.39-.27a8.43,8.43,0,0,0,3.51-6.37c0-2.11-1.16-4-3.4-5.5l-.22-.15.2-.17c1.57-1.39,4.23-5.16,3.53-8-.38-1.54-1.69-2.6-3.89-3.14l-.28-.07.16-.24s2.71-4.17,1.31-7C249,100.09,247,99.21,244,99l-.47,0,.35-.33c1.87-1.74,2.59-3.86,1.93-5.66s-2.58-2.92-5.14-3l-.29,0,.12-.27a4.54,4.54,0,0,0-.33-4.18,3.87,3.87,0,0,0-3.38-1.7,7.56,7.56,0,0,0-2.62.52l-.64.23L234,84a3.67,3.67,0,0,0,.06-3.72A4,4,0,0,0,230.44,78a7.75,7.75,0,0,0-4.8,2.16l-.36.3,0-.47a6.71,6.71,0,0,0-1.91-4.77,5.78,5.78,0,0,0-4.16-1.87,8.21,8.21,0,0,0-5.51,2.6l-.27.25-.07-.37a4.79,4.79,0,0,0-4.64-3.47,7.68,7.68,0,0,0-4.72,2l-.2.16-.12-.23A5.37,5.37,0,0,0,199,71.46a3.79,3.79,0,0,0-3.89,2.93l-.13.5-.25-.45c-.51-1-2.07-1.66-3.72-1.66a3.83,3.83,0,0,0-4.08,3l-.06.3-.26-.17a7.75,7.75,0,0,0-4.11-1.18c-1.92,0-5.32.82-6.63,6.26l-.12.47-.25-.41c-1.27-2-2.77-3.11-4.23-3.11s-2.9,1.16-3.91,3.26l-.24.49-.14-.53a4.56,4.56,0,0,0-4.34-3.16c-1.18,0-3.39.5-4.81,3.86l-.2.46-.18-.47a7.38,7.38,0,0,0-6.18-4c-2.08,0-4,1.17-5.68,3.49l-.22.3-.14-.35c-.34-.86-1.75-1.56-3.14-1.56a2.87,2.87,0,0,0-2.89,1.92l-.29.82-.11-.86c-.27-2.19-1.62-4.45-3.39-4.45-1,0-2,.66-3.08,2l-.33.4,0-.52c-.21-2.94-1.91-5-4.15-5A7.53,7.53,0,0,0,123,76.36l-.18.17-.13-.21a2.48,2.48,0,0,0-2.19-1,6.58,6.58,0,0,0-3.52,1.2l-.42.29.11-.5c.52-2.51,1.73-8.36-7-10.42-.86,1.48-3.13,5.19-6,9.86C96.86,86.94,85.35,105.76,85,107.56l0,0c-.42.78-.32,3.84.67,6.31a5.36,5.36,0,0,0,3,3.29l.26.09-.15.22c-1.27,2-.94,6.65.68,9.61a4.85,4.85,0,0,0,4.11,2.9,4.58,4.58,0,0,0,1.14-.15l.44-.11-.2.4c-1.12,2.22-1.25,4.49-.37,6.05a4,4,0,0,0,3.38,2l.46,0-.34.32a4.18,4.18,0,0,0-.84,4.38,3.06,3.06,0,0,0,3,2,7.9,7.9,0,0,0,3.67-1.13l.44-.24-.15.48a6.21,6.21,0,0,0,.9,4.81c1.06,1.44,2.67,1.74,4.67.84l.28-.13v.31c0,2,1.92,5.77,4.77,5.77a4.57,4.57,0,0,0,2.79-1.11l.11-.08.12.07c1.55.89,18.83,2.66,26.05,2.66a10.74,10.74,0,0,0,2.83-.21l.11,0,.08.06a10.45,10.45,0,0,1,1,.92c1.28,1.27,3.21,3.2,5.55,3.2,1.61,0,3.2-.92,4.74-2.75l.23-.28.12.35c.71,2.12,1.73,3.2,3.05,3.2s2.63-.86,4.3-2.56l.22-.23.12.29c.08.19.16.43.27.71.63,1.75,1.8,5,4.72,5,1.49,0,3.29-.85,5.35-2.52l.17-.13.12.17c.86,1.12,2.21,2.46,3.73,2.46,1.28,0,2.5-1,3.63-2.86l.2-.34.16.37a5.25,5.25,0,0,0,4.16,2.79c1.46,0,2.77-.95,3.89-2.82l.18-.31.17.32a4.91,4.91,0,0,0,4.47,2.38,5.23,5.23,0,0,0,5.21-3.47l.09-.31.24.22a4.12,4.12,0,0,0,2.7,1.3c1.44,0,2.63-1.23,3.43-3.57l.09-.27.23.17c.55.42,2.48,1.77,4.06,1.77a1.69,1.69,0,0,0,1.38-.6c.74-.91.81-2.82.21-5.68l.4-.11a4.29,4.29,0,0,0,3.77,2.76,4.46,4.46,0,0,0,2.61-.95l.43-.3-.1.51c-.5,2.41-.39,4.21.31,5.07.88,1.08,2.71.69,5.35-1.09l.45-.31-.14.53a6.6,6.6,0,0,0,.89,5.38,2.88,2.88,0,0,0,2.34,1.22,6,6,0,0,0,3.72-1.74l.56-.47-.23.69a4.82,4.82,0,0,0,.46,4.35A3.73,3.73,0,0,0,239,171a7.19,7.19,0,0,0,3.63-1.14l.73-.43-.45.72a4.25,4.25,0,0,0-.12,4.16c.82,1.49,2.51,1.94,4.52,1.15Z"/><path class="cls-3" d="M228.47,119.57c4.28-.25,7.06-4.7,2.82-8.47,3.27-.82,4.52-4.78.09-6.74,3.28-1.17,4-2.4,4.24-4.23.58-3.32-3-7.73-6.89-6.41a3.15,3.15,0,0,0,.77-4.54c-.41-.65-1.93-1.53-2.84-1,.33-1.49-2.65-3.15-3.51-2.47,1.68.76,2.83,2.82,1.1,4.13.58-.49,1.41,0,1.83.25,1.82,1.67,1.24,3.58.24,5.24,2.41,1.17,5.31,2.92,4.65,5.91-.09,1.08-1.66,1.82-3,2.15,3.07,2.42,3.07,6.66-1.34,7.4,1.33,1.08,3.15,4.75-.88,7.23,1.38,5.54-2.28,7-3.61,7.31C230.15,124.92,228.89,120.82,228.47,119.57Z"/><path class="cls-3" d="M149.1,106.75c3.24-2.14.33-3.8.33-3.8,1.2-.53,1.43-1.67,1.79-2.56.52-1.16-.68-3.63-2.92-3.79a4.46,4.46,0,0,0,2-3.39c-.31-3.07-3.64-6.18-6.93-4,1.75-3.19-1.58-6.44-7-3.53-.37-.57-.15-1.53-.64-1.62a5.29,5.29,0,0,0-3.43,1,3.57,3.57,0,0,1,3.26,2c-.11.49,0,1.25-.15,1.73.6-.39,1-1.07,1.79-1.18,3,0,5.77,3.56,3.65,6.18a3.93,3.93,0,0,1,2.57-1.28,3.86,3.86,0,0,1,1.18,7,2.06,2.06,0,0,1,2.25,3.41c2.13,1.53,2.22,2.49.15,3.8,1.4.66.39,2.16,0,2.68C148.17,108.61,149.17,107.44,149.1,106.75Z"/><path class="cls-3" d="M188.56,119.11c2.24,3.21-.22,7.84-4.44,6.47.51,2.79-2.38,4.92-5.56,2.4.75,2.46-.65,3.23-3.42,3.5.05,0,3.23,2.11,5.57-.4,4.52,2.28,5.9-2.82,5.9-2.82,3.73.61,7.46-3.15,4.61-8.17,4-.7,3-5.2.34-7.8C193.4,115,192.19,119.09,188.56,119.11Z"/><path class="cls-10" d="M103,122.3a5.63,5.63,0,0,1-3.89-1.72,4.87,4.87,0,0,1-4.74,1c-.92-.41-2-1.49-2-4.2a6.49,6.49,0,0,1-3.92.28l.08-.4a5.76,5.76,0,0,0,4-.39l.31-.15V117c-.06,2.16.54,3.6,1.75,4.15a4.52,4.52,0,0,0,4.44-1l.14-.13.14.14a4.93,4.93,0,0,0,5.1,1.51,4.46,4.46,0,0,0,3-3.55,4.19,4.19,0,0,1-2.87,3.94A5.52,5.52,0,0,1,103,122.3Z"/><path class="cls-10" d="M168.65,160.07a5.49,5.49,0,0,1-2.76-.84l.21-.35a4.31,4.31,0,0,0,4.21.39,7,7,0,0,0,3.31-4.78l0-.23.22.05a6.52,6.52,0,0,0,6.31-2.58,7.54,7.54,0,0,0,1.28-7.78,4.86,4.86,0,0,1,1,2.35,8.42,8.42,0,0,1-1.94,5.69,7,7,0,0,1-6.5,2.77,7.46,7.46,0,0,1-3.5,4.88A4.28,4.28,0,0,1,168.65,160.07Z"/><path class="cls-8" d="M152.63,139.71c.82-1.5,2-5.78-1.73-8.65l-35.75-1.21s-3.88,8.09,4,9.86c-2.26,3-2.26,7.25,1.71,7.93-1.64,1.92-2.87,6.7,1.5,8.35-1.57,1.09-1.57,5.12,1.3,5.81-.41,1.5-1.64,7.31,1.78,7.58-.89,1.78-4.39,7.17,2.31,8.34-1,2.32-2.58,8.07,2.48,8.62-.41,1.5-.5,6.65,3.89,6.9s6.7-2.39,6.43-5.94c1.76,1.74,7.91,1.95,3.62-5.81,2.53-.76,5.06-5.32-.48-8.55,4.41.15,4.45-3.83,1.92-7.66,3.55.28,5.31-4.78,1.39-7,3-.75,5.17-6.7,2.71-9C153.59,149.46,154.41,141.51,152.63,139.71Z"/><path class="cls-9" d="M128.45,167.82c-3.57-.83-3.57-4.24-1.84-7.34-2.25.26-5-2.12-1.81-5-2.82-3-4.11-4.94-1.09-8.73-3.42-1.18-4.89-5.32-1.64-7.8-6.46-1.39-7.48-4.41-6.92-9.11-2,5.05-.73,8.79,4,9.86-2.26,3-2.26,7.25,1.71,7.93-1.64,1.92-2.87,6.7,1.5,8.35-1.57,1.09-1.57,5.12,1.3,5.81-.41,1.5-1.64,7.31,1.78,7.58-.89,1.78-4.39,7.17,2.31,8.34-.9,2.19-2.73,8.4,2.67,8.47-4.57-2.7-1.73-6.78-.36-9.83C126.05,176.51,124.76,172.72,128.45,167.82Z"/><path class="cls-3" d="M152.63,139.71c.79-1.44,2-6.09-1.63-8.68,1.53,2.47,1.29,6.84-3,7.9,2.49,2.77,4.93,7.53-2.26,8.75,1.64,4.1,1.2,7.76-2.53,10.53,2.56,2.36,2.77,5.37-2.43,6.32,4.07,3,2.86,7.25-.49,7.73,2.63,2.77,5.48,6.25.56,8.56,3.08,3.39.32,4.84-2.46,3.13-2.38,9-7.75,7.39-8.11,2.19-.41,1.5-.52,6.85,3.87,7.1s6.7-2.39,6.43-5.94c1.76,1.74,7.91,1.95,3.62-5.81,2.53-.76,5.06-5.32-.48-8.55,4.41.15,4.45-3.83,1.92-7.66,3.55.28,5.31-4.78,1.39-7,3-.75,5.17-6.7,2.71-9C153.59,149.46,154.41,141.51,152.63,139.71Z"/><path class="cls-10" d="M134.75,193.47l-.59,0a4,4,0,0,1-3.22-1.68,7.33,7.33,0,0,1-.92-5.26,3.74,3.74,0,0,1-2.86-1.72c-1.28-2.15-.16-5.59.36-6.92-1.86-.36-3.07-1.11-3.61-2.21-1-1.94.41-4.5,1.14-5.88a1.71,1.71,0,0,0,.12-.23,2.3,2.3,0,0,1-1.52-1c-1.28-1.83-.48-5.51-.19-6.64a3.23,3.23,0,0,1-2.23-2.63,3.77,3.77,0,0,1,.79-3.26,4.46,4.46,0,0,1-2.67-3,6.7,6.7,0,0,1,1.19-5.29,3.71,3.71,0,0,1-2.77-2.25,6.33,6.33,0,0,1,1.08-5.69,6.22,6.22,0,0,1-4.29-3.11c-1.79-3.47.66-7,.66-7s-1.74,3.9-.29,6.8a5.89,5.89,0,0,0,4.32,3l.3.07-.19.26a6,6,0,0,0-1.21,5.54,3.41,3.41,0,0,0,2.79,2.06l.36.06-.23.28a6.33,6.33,0,0,0-1.32,5.19,4.05,4.05,0,0,0,2.74,2.82l.36.14-.32.22a3.22,3.22,0,0,0-.9,3.08,2.84,2.84,0,0,0,2.13,2.37l.21.05-.06.2c-.13.47-1.22,4.65.08,6.5a1.94,1.94,0,0,0,1.52.83l.3,0-.14.28-.25.49c-.7,1.32-2,3.76-1.14,5.51.5,1,1.7,1.71,3.56,2l.25.05-.1.23c-.43,1.06-1.75,4.66-.48,6.79a3.48,3.48,0,0,0,2.79,1.56l.24,0-.07.23a7,7,0,0,0,.8,5.14,3.64,3.64,0,0,0,2.91,1.51,6.1,6.1,0,0,0,4.87-1.54,5.31,5.31,0,0,0,1.34-4.19l0-.55.39.39a3.51,3.51,0,0,0,4,.5c1.19-.9.94-3.06-.73-6.07l-.12-.22.24-.07a4.07,4.07,0,0,0,2.66-3.31c.22-1.81-.91-3.54-3.18-4.86l-.7-.41.81,0a3.1,3.1,0,0,0,3.05-1.28c.76-1.36.26-3.68-1.31-6l-.23-.35.41,0a3.11,3.11,0,0,0,3.24-2.27,3.73,3.73,0,0,0-2-4.39l-.45-.26.5-.12c1.46-.36,2.87-2.11,3.41-4.25.47-1.84.18-3.47-.79-4.35l-.41-.38.56,0a3.12,3.12,0,0,0,2.8-2.21c1-2.33,1-5.93-.08-7l-.11-.11.07-.13c.78-1.44,2-5.78-1.55-8.56a5.73,5.73,0,0,1,1.95,1.59,7.62,7.62,0,0,1,0,7c1.11,1.33,1.16,4.89.06,7.36a3.65,3.65,0,0,1-2.72,2.43,5.06,5.06,0,0,1,.59,4.42c-.45,1.78-1.63,3.75-3.28,4.41a4.09,4.09,0,0,1,1.78,4.63A3.54,3.54,0,0,1,146,165.5c1.49,2.39,1.92,4.72,1.12,6.15a3.12,3.12,0,0,1-2.72,1.48c2.7,1.82,2.92,3.82,2.79,4.9a4.47,4.47,0,0,1-2.71,3.57c2.24,4.17,1.28,5.78.5,6.38a3.89,3.89,0,0,1-4.2-.23,5.51,5.51,0,0,1-1.48,4A6.25,6.25,0,0,1,134.75,193.47Z"/><path class="cls-8" d="M43.86,23.37c-3.16.6-11.5,3.68-8,10.45-5.06,1.16-4.94,10,2.4,8.9C40.37,39.32,53.44,21.55,43.86,23.37Z"/><path class="cls-9" d="M47.33,25.33c0-1.58-1-2.43-3.47-2-3.14.6-11.18,3.75-8.51,9.47.22.41.53,1,1,1.19C35,28.32,41.73,24,47.33,25.33Z"/><path class="cls-11" d="M34.62,34.31c-3.74,2.19-3,9.46,3.64,8.41.78-1.25,1.1-3.39,3.17-6.85C36.65,41.34,31.9,39.08,34.62,34.31Z"/><path class="cls-10" d="M37,43h0a4.49,4.49,0,0,1-4.82-4,4.93,4.93,0,0,1,3.38-5.35,5.8,5.8,0,0,1-.23-5.25c1.55-3.17,6.06-4.8,8.48-5.26,1.78-.34,2.93,0,3.44.91C48.9,27.16,42.65,36.5,39.65,41c-.53.8-1,1.43-1.21,1.84l0,.08-.1,0A8.16,8.16,0,0,1,37,43ZM45.1,23.45a6.85,6.85,0,0,0-1.2.12c-2.19.42-6.71,2-8.19,5A5.51,5.51,0,0,0,36,33.72l.13.24-.26.06a4.48,4.48,0,0,0-3.31,5A4,4,0,0,0,37,42.62h0a7.47,7.47,0,0,0,1.13-.09c.26-.42.67-1,1.17-1.77,2.73-4.08,9.11-13.62,7.58-16.49A1.82,1.82,0,0,0,45.1,23.45Z"/><path class="cls-2" d="M38.86,49.06c-3.87-2.69-14.46,1.86-20.64,7-3,2.51-7,8.12-10.46,12.55-2.45,3.2-6.5,5.44-3.89,6.68C8.38,77.43,27.25,78.46,37,66.22,37.5,63.62,42.61,51.66,38.86,49.06Z"/><path class="cls-12" d="M22.35,55.1c4.61-3.48,10-5.25,15.69-6.47C33.66,47,24,51.25,18.22,56.06c-3,2.51-7,8.12-10.46,12.55q-.33.44-.69.84C12.58,64.84,16.61,59.44,22.35,55.1Z"/><path class="cls-11" d="M4.69,73.88c.93-1.79,2.62-4.36,3.48-5.74-2.65,3.21-6.62,6-4.3,7.15C8.38,77.43,27.25,78.46,37,66.22c.08-.41-1.2-1-.94-1.86C30.63,71.05,13.3,75.93,4.69,73.88Z"/><path class="cls-4" d="M12.46,76.82h0c-3.61,0-6.94-.52-8.68-1.35a1.44,1.44,0,0,1-.95-1c-.15-.9.92-1.95,2.27-3.27a27.16,27.16,0,0,0,2.5-2.7l1.73-2.28c3.06-4,6.23-8.2,8.76-10.31,4.64-3.85,12.5-7.84,17.64-7.84a5.67,5.67,0,0,1,3.25.83c3.11,2.16.52,10.06-1,14.78-.38,1.16-.68,2.07-.79,2.59v0l0,0C29.62,75.8,17.37,76.82,12.46,76.82ZM35.73,48.47c-5,0-12.79,3.94-17.37,7.75-2.5,2.08-5.79,6.42-8.7,10.24L7.93,68.74a28.16,28.16,0,0,1-2.54,2.74c-1.22,1.19-2.27,2.22-2.15,2.91,0,.27.28.51.72.71,1.66.79,5,1.31,8.5,1.31,4.85,0,16.92-1,24.31-10.28.12-.55.41-1.45.79-2.59,1.41-4.31,4-12.33,1.19-14.31A5.23,5.23,0,0,0,35.73,48.47Z"/><path class="cls-13" d="M38.15,55.58c-6,.3-16.64,11.25-23.78,15.2C22.19,71.08,36.64,67,38.15,55.58Z"/><path class="cls-14" d="M37.48,58.35a13.84,13.84,0,0,0,.67-2.77c-5.77.29-16.43,10.9-23.55,15.16C18.22,70.74,31.45,60.55,37.48,58.35Z"/><path class="cls-4" d="M15.19,71c-.28,0-.56,0-.83,0l-.73,0,.64-.36a79.88,79.88,0,0,0,9.16-6.52c5.37-4.19,10.93-8.52,14.71-8.71h.25l0,.24C37,66.22,24,71,15.19,71Zm-.07-.41h.07c8.55,0,21.18-4.59,22.73-14.79-3.66.36-9,4.55-14.24,8.6A90.76,90.76,0,0,1,15.12,70.59Z"/><path class="cls-4" d="M11,71.9c3.08-.55,7.62-4.08,12.42-7.82,6-4.68,12.21-9.52,16-8.6l-.1.39c-3.56-.87-9.69,3.91-15.62,8.53-3.57,2.79-6.94,5.58-9.83,6.89A7.78,7.78,0,0,1,11,71.9Z"/><path class="cls-2" d="M39.57,37.37c-5.6,6.07-9,19.59-3.49,32.82C34.13,75,31.4,85.48,38.34,94.75a66.11,66.11,0,0,0,.82,8.46c-3,4.71-1.06,22,12.54,20.75,1.27,1.15,3.83.74,4.86.35,2.35,1.46,9.6,2.14,15.59-1.62,4.64-2.91,4.09-8.32,8.3-11,3.16-2,27.28-7.38,31.45-28.37,3.69-18.59-14-50.93-19.69-53.6-7-1.43-18-4.84-27-3.41C56.46,27.68,42.69,34,39.57,37.37Z"/><path class="cls-11" d="M70.21,101.38C69,116,59.89,120.82,55.45,120.8c-3.33,0-5.92-3-6.71-7.55-1.84,2-.45,5.69-1.8,7.19-.93,1-3.11,1.09-5.94-1.19A11.17,11.17,0,0,0,51.69,124c1.27,1.15,3.83.74,4.86.35,11.26-2,13.53-12.28,15.59-23.17A6.51,6.51,0,0,0,70.21,101.38Z"/><path class="cls-11" d="M42.73,87.5c-1.64,2-6.11,5-8.78-4.31a21.93,21.93,0,0,0,4.29,11.44C41.75,91.83,43.26,92.23,42.73,87.5Z"/><path class="cls-11" d="M92.2,29.71c-.75-.15-1.54-.33-2.37-.52,9,17.48,22.13,36.91,14.54,56.58-4.93,12.76-18.71,18.76-23.91,16.55-.45,3.92-5.88,9.25-9.32,4.94,0,0-8.72,17.92-14.31,17.13,4.44,2.29,11.59.64,15.31-1.7,4.63-2.91,4.09-8.32,8.3-11,3.16-2,27.28-7.38,31.45-28.37C115.58,64.72,97.94,32.38,92.2,29.71Z"/><path class="cls-4" d="M62.2,125.68a12.24,12.24,0,0,1-5.68-1.15,7.38,7.38,0,0,1-2.36.38,4.05,4.05,0,0,1-2.54-.74c-.44,0-.87,0-1.29,0h0a11.37,11.37,0,0,1-10.39-6.28c-2.74-5-2.79-11.89-1-14.78a72.1,72.1,0,0,1-.82-8.36c-7.1-9.54-4-20.33-2.26-24.61-5.42-13-2.22-26.7,3.55-33,3.15-3.42,17-9.75,25.76-11.14a30,30,0,0,1,4.69-.34c6.14,0,12.72,1.54,18,2.78,1.57.36,3,.71,4.38,1l0,0c5.59,2.59,23.59,34.76,19.81,53.82-3.49,17.56-20.94,24.29-28.39,27.16a22.83,22.83,0,0,0-3.15,1.35c-2,1.27-2.9,3.17-3.84,5.17s-2,4.31-4.47,5.83A19.18,19.18,0,0,1,62.2,125.68Zm-5.63-1.6.08,0a11.62,11.62,0,0,0,5.55,1.14A18.85,18.85,0,0,0,72,122.52c2.33-1.46,3.33-3.6,4.31-5.66s1.89-4,4-5.35a23.78,23.78,0,0,1,3.22-1.38c7.39-2.85,24.69-9.52,28.13-26.86,2.16-10.84-3-25.11-6.29-32.65-4.88-11.23-10.67-19.48-13.26-20.71-1.32-.27-2.8-.62-4.36-1-5.27-1.23-11.83-2.76-17.92-2.76a29.37,29.37,0,0,0-4.63.34c-8.68,1.37-22.4,7.63-25.51,11-5.7,6.18-8.85,19.71-3.45,32.6l0,.07,0,.08c-1.69,4.18-4.85,14.91,2.23,24.36l0,.07v.09a66.55,66.55,0,0,0,.82,8.4v.07l0,.07c-1.76,2.75-1.71,9.51,1,14.42a11,11,0,0,0,10,6.07h0c.44,0,.89,0,1.34-.06h.09l.07.06a3.53,3.53,0,0,0,2.33.7,7,7,0,0,0,2.31-.38Z"/><path class="cls-8" d="M93.7,24.45c.55-3.32-1.37-9-8.27-5.33.27-7.44-8-9.28-10.94-4.31-2.27-4.41-8.43-5.18-11,0-4.12-5.59-14-1.14-13.43,4.87-5.8-.61-9.37,3.76-5.34,7.59-3.95.05-6.47,5.74-.87,7.93-3.35,2.67-2.87,9,3.49,8.89-4.79,7.25,8.13,12.58,7.52,2.53,2,3.14,10.39-1.64,6.42-5.61,5.75,1.66,9.85-3.89,8.78-8.41,3.87,2.33,8.45,1.1,10.3-2.25,1.43,2.25,4.31,3.69,9.95.51C98.52,39.58,103.54,25.32,93.7,24.45Z"/><path class="cls-11" d="M93.36,24.62c5.9,2.34,3.7,10.29-2.58,3.55-3.69,3.69-7.47,2.64-10.48-1.46-2.94,5.46-6.77,5-11.9,2.46.6,7.62-2.39,12-9.64,9.67C61.5,43.13,56.45,45,54,43c-1.28,6.21-6.26,2.67-4.36-1.23-3.45.21-7-2.53-3.64-7.45-3-.88-6.52-4.53-.73-6.91-6,.18-5.72,6.14-1.45,7.81-3.35,2.67-2.87,9,3.49,8.89-4.79,7.25,8.13,12.58,7.52,2.53,2,3.14,10.39-1.64,6.42-5.61,5.75,1.66,9.85-3.89,8.78-8.41,3.87,2.33,8.45,1.1,10.3-2.25,1.43,2.25,4.31,3.69,9.95.51C98.16,39.19,103.84,25,93.36,24.62Z"/><path class="cls-9" d="M52.27,23c.41-2.46,2.19-11.34,11.62-5.47,2.31-4.35,6-6.24,10.45.62C79,12.34,82.88,14.71,84,22.09c3.58-2.26,7.68-1.74,9.7,2.67.78-4.89-2.7-8.55-8.24-5.64.27-7.44-8-9.28-10.94-4.31-2.27-4.41-8.43-5.18-11,0-4.12-5.59-14-1.14-13.43,4.87-5.2-.55-8.6,2.91-6.35,6.39a2.07,2.07,0,0,0,1.77,1.5C41.43,22.3,47.64,20.08,52.27,23Z"/><path class="cls-10" d="M51.19,52.41a5.33,5.33,0,0,1-4.54-2.79A5.18,5.18,0,0,1,47,44.34c-2.56,0-4.41-1.2-5.1-3.17a5.66,5.66,0,0,1,1.59-5.86c-2.24-1-3.36-2.69-3-4.62a4.44,4.44,0,0,1,3.81-3.54,4.27,4.27,0,0,1-1.21-4.54c.84-2.1,3.58-3.37,6.78-3.1a6.22,6.22,0,0,1,1.75-4.46,9.31,9.31,0,0,1,6.68-3,6.51,6.51,0,0,1,5.19,2.38A6.1,6.1,0,0,1,68.86,11a6.54,6.54,0,0,1,5.64,3.4,5.82,5.82,0,0,1,4.86-2.59,6.17,6.17,0,0,1,4.41,1.87,7,7,0,0,1,1.87,5.09c3.06-1.52,5.5-1.35,7,.41a6.84,6.84,0,0,1,1.29,5.08c4.14.45,5.5,3.17,5.4,5.4a4.18,4.18,0,0,1-4,4.23h0c-1.6,0-3.35-.95-5.08-2.73-4.55,2.52-8,2.35-9.9-.39a7.11,7.11,0,0,1-6.11,3.27,8.34,8.34,0,0,1-3.92-1,7.51,7.51,0,0,1-1.58,5.82,6.86,6.86,0,0,1-6.89,2.55,3,3,0,0,1,.42,3.09A6.21,6.21,0,0,1,57,47.89a2.76,2.76,0,0,1-1.9-.64,5.68,5.68,0,0,1-1.26,4.06A3.53,3.53,0,0,1,51.19,52.41Zm-3.46-8.48-.21.32A4.92,4.92,0,0,0,47,49.43,5,5,0,0,0,51.19,52a3.11,3.11,0,0,0,2.34-1,5.74,5.74,0,0,0,1.13-4.35l0-.8.43.68a2.21,2.21,0,0,0,2,.92,5.86,5.86,0,0,0,4.93-3.12,2.74,2.74,0,0,0-.77-3.15l-.56-.57.76.23a6.5,6.5,0,0,0,7.1-2.26,7.15,7.15,0,0,0,1.42-5.91l-.12-.47.42.25a8,8,0,0,0,4.1,1.16,6.7,6.7,0,0,0,5.92-3.34l.17-.3.18.29c1.81,2.84,5.14,3,9.68.44l.13-.08.11.12c1.69,1.78,3.38,2.72,4.9,2.72h0a3.77,3.77,0,0,0,3.56-3.84c.09-2.08-1.23-4.64-5.24-5l-.22,0,0-.21a6.53,6.53,0,0,0-1.17-5c-1.42-1.67-3.8-1.73-6.81-.15l-.31.16v-.35A6.82,6.82,0,0,0,83.47,14a5.74,5.74,0,0,0-4.11-1.75,5.35,5.35,0,0,0-4.69,2.68l-.19.32-.17-.33a6.22,6.22,0,0,0-5.45-3.48A5.77,5.77,0,0,0,63.68,15l-.15.3-.2-.27a6.06,6.06,0,0,0-5.06-2.47,8.89,8.89,0,0,0-6.37,2.81,5.74,5.74,0,0,0-1.63,4.39l0,.25-.25,0A9.42,9.42,0,0,0,49,19.88c-2.67,0-4.84,1.13-5.54,2.88-.57,1.43-.06,3,1.43,4.41l.37.35h-.5a4,4,0,0,0-3.88,3.23c-.32,1.81.82,3.42,3.08,4.3l.33.13-.28.22A5.21,5.21,0,0,0,42.27,41c.66,1.9,2.5,3,5.07,2.9Z"/><path class="cls-11" d="M52.54,26.84s3.3-8.86,10.94-4.71c.74-2.35,6.43-4.5,9.35-1.32C75.91,18.55,81,19.25,82.16,24c-2.92-3-5.74-3-9.07.63C71.6,21.68,66.68,20,63.81,26,60.37,21.83,55.71,22.35,52.54,26.84Z"/><path class="cls-2" d="M116.9,40c-4.51-2.9-19.3-7.76-22.28-5.3s6.46,23.8,13.85,28.72,25.62,10.79,28.2,6.8c1-1.54-4-3.32-7.28-11S125.68,45.66,116.9,40Z"/><path class="cls-12" d="M126.3,51.49A25.25,25.25,0,0,0,116.9,40c-4.51-2.9-19.3-7.76-22.28-5.3l-.25.51a49.23,49.23,0,0,1,22.76,7.55A46,46,0,0,1,126.3,51.49Z"/><path class="cls-11" d="M129.39,59.21c-1.27-3-2.11-5.66-3.17-8.18,1.6,9.39,4.05,13.79,6.07,16.87-8.21,1.56-17.15-2.68-22.87-6.41-6.59-4.28-8.49-9.08-12-13.8,2.91,6.39,7.23,13.21,11,15.73,7.38,4.92,25.62,10.79,28.2,6.79C137.66,68.68,132.67,66.9,129.39,59.21Z"/><path class="cls-4" d="M132.68,71.74h0c-6.7,0-18.79-4.46-24.33-8.15C102,59.33,94.18,43.05,93.87,36.93a2.82,2.82,0,0,1,.62-2.38,4.76,4.76,0,0,1,3-.72c5.53,0,15.93,3.68,19.53,6,7,4.53,8.78,9.28,10.81,14.78.53,1.45,1.08,3,1.76,4.52a25.49,25.49,0,0,0,5.78,8.35c1.25,1.27,2,2,1.48,2.85S134.83,71.74,132.68,71.74Zm-35.2-37.5a4.49,4.49,0,0,0-2.73.62,2.57,2.57,0,0,0-.47,2c.31,6.05,8,22.13,14.3,26.34,5.49,3.66,17.47,8.08,24.1,8.08,2,0,3.29-.41,3.82-1.23.32-.5-.24-1.11-1.44-2.34a25.72,25.72,0,0,1-5.86-8.47c-.68-1.58-1.23-3.08-1.77-4.54-2.08-5.65-3.72-10.12-10.64-14.58C113.23,37.88,103,34.24,97.48,34.24Z"/><path class="cls-13" d="M114.91,54.44c-7-4.6-9.52-6-12.72-10-.14,10.51,11.3,21.76,27.66,22.17C127.92,64,123.27,59.92,114.91,54.44Z"/><path class="cls-14" d="M114.91,54.44c-6.55-4.29-9.7-6.4-12.62-9.83C106.59,54.7,119,57,126.11,64.85c-2.6,0-4.92-.28-7.43-.37a34.39,34.39,0,0,0,11.17,2.14C127.92,64,123.27,59.92,114.91,54.44Z"/><path class="cls-4" d="M130.27,66.83h-.42C113,66.4,101.85,54.91,102,44.45v-.57l.36.44c2.83,3.54,5.07,5,10.5,8.53L115,54.27c9.58,6.27,13.44,10.11,15,12.22ZM102.4,45c.13,5,2.87,10.12,7.57,14.13a31.74,31.74,0,0,0,19.46,7.24c-1.69-2.15-5.6-5.87-14.63-11.79l-2.18-1.41C107.4,49.8,105.1,48.3,102.4,45Z"/><path class="cls-4" d="M130.42,67.9C129,65,123.3,60.18,114.8,54.61l-2.19-1.42c-6.08-4-8.24-5.37-11.72-10.1A44.94,44.94,0,0,1,98.59,39c5.29,8,6.83,9,14.25,13.8L115,54.27c7.7,5,13,9.37,15.1,12.36A3.07,3.07,0,0,1,130.42,67.9Z"/><path class="cls-11" d="M34.63,74c-.3-1.92-2.75-16.73,2.87-17.68,6-1,9.74,15.1,8.48,17.33S35.34,78.47,34.63,74Z"/><path d="M34.93,74.37c-1.41-4.5-.58-16.67,5.19-16.93,6.1-.27,9.2,15.1,8,17.33S36.3,78.74,34.93,74.37Z"/><path class="cls-15" d="M34.94,75.25c-1.41-4.5.18-17.27,6-17.53,6.1-.27,9.06,15.8,7.8,18S36.31,79.62,34.94,75.25Z"/><path class="cls-16" d="M34.47,72a13,13,0,0,0,.47,3.22c1.37,4.37,12.5,2.72,13.75.5.38-.67.37-2.58,0-4.93C44.08,73.22,39.06,74.4,34.47,72Z"/><path class="cls-17" d="M46.77,70.66c.07,3.29-1.88,6-4.36,6.09s-4.54-2.53-4.61-5.82,1.87-6,4.35-6.09S46.7,67.37,46.77,70.66Z"/><path class="cls-18" d="M41.22,73.16a6.59,6.59,0,0,1-3.39-1.75c.25,3.06,2.23,5.41,4.59,5.34s4.38-2.74,4.35-6A6.14,6.14,0,0,1,41.22,73.16Z"/><path d="M45.87,71.94c.05,2.27-1.23,4.15-2.85,4.2s-3-1.75-3-4,1.23-4.15,2.85-4.2S45.82,69.67,45.87,71.94Z"/><path class="cls-15" d="M44.16,69.76a1.71,1.71,0,0,1-1.82,1.55,1.67,1.67,0,1,1,1.82-1.55Z"/><path class="cls-15" d="M42.2,74.5a.78.78,0,1,1-.73-.81A.77.77,0,0,1,42.2,74.5Z"/><path class="cls-19" d="M42.07,77c-2.49-.16-4.49-2.84-4.56-6.1-.08-3.45,2-6.32,4.63-6.4s4.84,2.7,4.92,6.11-2,6.32-4.64,6.4Zm.39-11.9h-.3c-2.32.07-4.14,2.67-4.07,5.79s2,5.61,4.32,5.54,4.14-2.67,4.07-5.79C46.41,67.71,44.65,65.28,42.46,65.14Z"/><path d="M41.08,78.19c-3.45,0-5.76-1-6.34-2.88-1-3.27-.48-11.36,2.36-15.4a4.87,4.87,0,0,1,3.78-2.39c1.81-.09,3.45,1.14,4.91,3.63,2.81,4.81,4,13,3.08,14.7C48.15,77.12,44.59,78.19,41.08,78.19Zm0-20.27H40.9a4.52,4.52,0,0,0-3.47,2.21c-2.76,4-3.3,11.85-2.29,15,.73,2.35,4.4,2.6,5.94,2.6,3.26,0,6.8-1,7.43-2.13.82-1.45-.25-9.46-3.08-14.29C44.1,59.08,42.62,57.92,41,57.92Z"/><path class="cls-2" d="M41,57.57c10.57,9.3-3.49,34.81-3.47,41.33,0,5.79,11.08,23.53,21.69,1.28,0,0,5.39-27.66.55-34.92-1.8-2.71-7.56-7.46-12.54-8.78C44.43,55.73,40.41,57,41,57.57Z"/><path class="cls-12" d="M46.39,76c1.34-5.94,1-15.54-5.33-18.38,4.41,4.41,4.31,10.16,3.19,16.85-1.66,10-6.53,20.56-6.51,24.4a15.23,15.23,0,0,0,1,4.82C38.44,95.08,44.91,82.58,46.39,76Z"/><path class="cls-4" d="M47.86,110.6a9.38,9.38,0,0,1-6.57-3c-2.86-2.84-3.91-5.5-3.66-9.18.19-2.59,1.4-6.29,2.8-10.57,3.44-10.47,7.72-23.5.32-30l.27-.31c7.6,6.69,3.28,19.87-.2,30.45C39.43,92.28,38.22,96,38,98.49c-.29,4.14,1.2,6.53,3.54,8.86a8.75,8.75,0,0,0,7.07,2.8c3-.32,5.94-2.52,8.43-6.36l.34.22c-2.56,3.95-5.58,6.21-8.72,6.55A7.87,7.87,0,0,1,47.86,110.6Z"/><path class="cls-20" d="M54.86,103.88c-1.3,2.82-2.49,5-4,6,2.92-1,5.58-3.52,6.29-5.84C57.53,102.83,55.73,102,54.86,103.88Z"/><path class="cls-21" d="M56.33,102.78c-.49,0-1.08.24-1.47,1.1-1.14,2.48-2.19,4.45-3.46,5.58A8.9,8.9,0,0,0,56.33,102.78Z"/><path class="cls-4" d="M50.75,109.71c1.44-1,2.61-3.06,3.92-5.92a1.81,1.81,0,0,1,1.56-1.22,1.16,1.16,0,0,1,1.12,1.54c-.74,2.41-3.5,5-6.42,6ZM56.23,103c-.46,0-.89.36-1.18,1a20.63,20.63,0,0,1-3.1,5.24A9.79,9.79,0,0,0,57,104a.74.74,0,0,0-.73-1Z"/><path class="cls-20" d="M44.19,109.5c-1.52-2.31-1.45-3.07-2.76-5.19-.75-1.22-2-1.4-2.73-.64C39,105.38,43.4,109.61,44.19,109.5Z"/><path class="cls-4" d="M44.16,109.71c-1,0-5.32-4.29-5.66-6l0-.1.07-.08a1.55,1.55,0,0,1,1.18-.52,2.29,2.29,0,0,1,1.87,1.19,17.73,17.73,0,0,1,1.23,2.37,17.91,17.91,0,0,0,1.54,2.82l.18.27Zm-5.24-6c.41,1.42,3.46,4.53,4.77,5.36a17.69,17.69,0,0,1-1.23-2.35,17.74,17.74,0,0,0-1.21-2.33,1.87,1.87,0,0,0-1.52-1A1.19,1.19,0,0,0,38.92,103.73Z"/><path class="cls-11" d="M71.92,75.71C68.67,74,69.6,52.53,79.74,52.53c7.6,0,10.84,12.84,9.46,21.23C88.5,78,75.68,77.69,71.92,75.71Z"/><path d="M71.3,73.69C69.57,69,72.67,55.62,79.74,55.35c7.49-.28,10.56,16.38,9,18.69S73,78.22,71.3,73.69Z"/><path class="cls-15" d="M71.14,74.63C69.41,70.07,72.51,57,79.58,56.72c7.49-.28,10.55,16,9,18.26S72.82,79.06,71.14,74.63Z"/><path class="cls-16" d="M70.72,72.57a7.35,7.35,0,0,0,.42,2.06c1.68,4.43,15.92,2.6,17.45.35.6-.88.39-5.73-.63-8.6C86.4,71.86,76.53,75.14,70.72,72.57Z"/><path class="cls-17" d="M86.34,69.77c0,3.48-2.08,6.34-4.7,6.38s-4.77-2.75-4.8-6.23,2.08-6.34,4.7-6.38S86.31,66.28,86.34,69.77Z"/><path class="cls-18" d="M80.43,72.33a6.88,6.88,0,0,1-3.56-1.91c.22,3.25,2.28,5.77,4.77,5.73s4.67-2.84,4.7-6.26A6.53,6.53,0,0,1,80.43,72.33Z"/><path d="M85.36,71.11c0,2.4-1.36,4.37-3.07,4.39s-3.13-1.89-3.15-4.29,1.36-4.37,3.08-4.4S85.34,68.71,85.36,71.11Z"/><path class="cls-15" d="M83.59,68.77a1.8,1.8,0,0,1-2,1.62A1.78,1.78,0,0,1,80,68.49a1.8,1.8,0,0,1,2-1.62A1.78,1.78,0,0,1,83.59,68.77Z"/><path class="cls-15" d="M81.45,73.76a.84.84,0,0,1-.9.75.82.82,0,0,1-.76-.88.83.83,0,0,1,1.66.13Z"/><path class="cls-19" d="M81.27,76.45c-2.63-.21-4.71-3.07-4.74-6.53,0-3.65,2.22-6.65,5-6.7s5.09,2.93,5.11,6.54-2.21,6.66-5,6.7Zm.59-12.59h-.32c-2.45,0-4.42,2.76-4.39,6.06s2,6,4.48,5.93,4.42-2.76,4.4-6.07C86,66.64,84.17,64,81.86,63.86Z"/><path d="M78.67,77.54c-2.48,0-6.78-.37-7.72-2.84-1.14-3-.21-9.89,2.69-14.27,1.65-2.48,3.7-3.83,5.93-3.91,2.59-.09,4.91,1.69,6.74,5.17,2.51,4.75,3.54,11.8,2.45,13.4C87.87,76.4,83.15,77.54,78.67,77.54Zm1.1-20.62h-.18C76.93,57,75.08,59,74,60.65c-2.85,4.29-3.77,11-2.66,13.91.62,1.63,3.3,2.57,7.34,2.57,4.22,0,9-1.1,9.75-2.27.93-1.36.08-8.15-2.47-13C84.75,59.62,82.71,56.92,79.77,56.92Z"/><path class="cls-22" d="M69.7,43.52c3.83-1.81,14.46-1.12,17.44,8.24-5.06-4-13.8-6.66-17.69-2.93C69.11,47.6,68.53,44.08,69.7,43.52Z"/><path class="cls-23" d="M69,45.94a8.45,8.45,0,0,0,.45,2.89c3.65-3.49,12.34-.91,17.48,2.66A15.66,15.66,0,0,0,69,45.94Z"/><path class="cls-24" d="M87.54,52.34,87,51.92c-3.54-2.79-8.48-4.67-12.31-4.67A7.12,7.12,0,0,0,69.59,49l-.25.24-.09-.33c-.28-1-1-4.89.37-5.55A10.86,10.86,0,0,1,74,42.52c5,0,11.14,2.41,13.29,9.18ZM74.7,46.84a22,22,0,0,1,12,4.35c-2.25-6.08-8-8.26-12.68-8.26a10.41,10.41,0,0,0-4.25.78c-.85.4-.62,3.1-.23,4.74A7.72,7.72,0,0,1,74.7,46.84Z"/><path class="cls-22" d="M44.44,46.38c-3.28-.1-9.18,1-10.6,8.81,3.43-3.63,7.23-6.22,11-4C45,50.13,45.42,46.41,44.44,46.38Z"/><path class="cls-23" d="M34,55.07c3.4-3.57,7.16-6.08,10.91-3.92a19.73,19.73,0,0,0,.22-2.72C39.48,47.8,35.81,50.63,34,55.07Z"/><path class="cls-24" d="M33.51,55.83l.13-.68c1.52-8.36,8.06-9.06,10.81-9h0a.59.59,0,0,1,.41.25c.7.91.22,4.36.16,4.75l0,.3-.26-.15a5.63,5.63,0,0,0-2.15-.74c-2.54-.3-5.28,1.2-8.62,4.74Zm10.94-9.24c-2.58-.09-8.58.55-10.27,7.95,3.22-3.28,5.93-4.66,8.48-4.35a5.7,5.7,0,0,1,2,.64c.19-1.47.31-3.6-.11-4.15C44.53,46.6,44.48,46.59,44.45,46.59Z"/><path class="cls-4" d="M41.66,96.68a4.25,4.25,0,0,1,1.91-1.79,9.82,9.82,0,0,1,6.28-.33,5.94,5.94,0,0,1,2.33,1.52C48.91,93.77,43.48,94.46,41.66,96.68Z"/><path class="cls-4" d="M78.27,114.12l-.32-.26c1-1.28,3.25-7.72,3.28-7.79A11,11,0,0,1,80.6,109,27.89,27.89,0,0,1,78.27,114.12Z"/><path class="cls-4" d="M74.15,102.32a5.66,5.66,0,0,0-4.17-.91,2,2,0,0,1,1.33-.48,6.41,6.41,0,0,1,1.59.26A3,3,0,0,1,74.15,102.32Z"/><path class="cls-4" d="M56.49,124.54l-.05-.41c13.74-1.45,15.28-22.8,15.29-23l.41,0C72.12,101.36,70.56,123.06,56.49,124.54Z"/><path class="cls-4" d="M51.52,124.07a18.72,18.72,0,0,1-3.08-9.32,2.86,2.86,0,0,1,.47-1.79c0,.05-.79,5.05,3,10.88Z"/><path class="cls-11" d="M49.43,34.81s-2.1-4.58,4.72-3.05c.31-4.37,5.85-4.92,8.41-1-3.87-2.53-6.91.38-7.73,2.46C53,32.38,50.25,31.9,49.43,34.81Z"/><path class="cls-10" d="M215.13,154.25a10.34,10.34,0,0,1-.3-4.35c-3.53,1.22-5.85-.12-6.86-1.82a4.13,4.13,0,0,1,.13-4.63c-3.14.11-4.71-1.62-5.15-3.35a4.26,4.26,0,0,1,1.35-4.41h-.1c-3.19,0-4.17-1.65-4.48-2.69a5.29,5.29,0,0,1,1.31-4.94c-3-.44-4.12-1.75-4.53-2.81a3.7,3.7,0,0,1-.21-1.81,4.52,4.52,0,0,1,1.58-2.65,4.53,4.53,0,0,0-1,4.31c.56,1.45,2.19,2.35,4.72,2.62l.68.07-.61.31c-1.13.59-2.09,3-1.56,4.78.37,1.25,1.53,2.67,5,2.36l1.35-.13-1.26.52a3.72,3.72,0,0,0-1.86,4.37c.54,2.16,2.5,3.28,5.25,3l.66-.07-.5.43a3.57,3.57,0,0,0-.43,4.51c.46.78,2.3,3.19,6.66,1.53l.32-.12,0,.34a10.65,10.65,0,0,0,.24,4.48Z"/><path class="cls-10" d="M222.67,95a3.27,3.27,0,0,0,1.24-3.56,3.57,3.57,0,0,0-3.47-2.38l-.52,0,.4-.33a4.47,4.47,0,0,0,1-4.52c-.62-1.41-2.3-2-4.84-1.61l-.51.07.32-.41c1.32-1.62,1.75-3.66,1.06-4.94-.59-1.1-1.92-1.58-3.84-1.38l0-.41c2.65-.27,3.77.72,4.24,1.6.73,1.34.4,3.3-.8,5,3.11-.3,4.32.85,4.78,1.91a4.93,4.93,0,0,1-.79,4.68,3.86,3.86,0,0,1,3.4,2.63,3.4,3.4,0,0,1,.15,1A3.45,3.45,0,0,1,222.67,95Z"/><path class="cls-10" d="M189,93.06c.81-1.49.92-3.82-.3-5.13-.78-.84-2.38-1.54-5.63-.09l-.43.2.16-.45a5.14,5.14,0,0,0-7.13-6.41l-.16-.38a5.68,5.68,0,0,1,6.25.9,5.52,5.52,0,0,1,1.56,5.59c3.19-1.31,4.85-.54,5.69.37a4.13,4.13,0,0,1,1,2.46A5.28,5.28,0,0,1,189,93.06Z"/><path class="cls-10" d="M157.22,107.26a5.69,5.69,0,0,0,2.71-5c-.13-1.75-1.45-3-3.8-3.64l-.38-.1.3-.25a3.89,3.89,0,0,0,1.22-4.47c-.74-1.61-2.7-2.28-5.39-1.84l-.58.1.39-.44a4.56,4.56,0,0,0,.09-5.48,4.91,4.91,0,0,0-6-1.85l-.3.1,0-.31c.18-2.2-.14-3.17-1.23-3.73l.19-.36c1.19.61,1.6,1.66,1.47,3.81a5.35,5.35,0,0,1,6.2,2.11,5,5,0,0,1,.2,5.57c3.7-.44,5,1.34,5.32,2.15a4.26,4.26,0,0,1-1,4.7c2.9.89,3.64,2.6,3.74,3.9a5.61,5.61,0,0,1-.31,2.11A5.14,5.14,0,0,1,157.22,107.26Z"/><path class="cls-10" d="M127.31,92.85s2.45-4.35,1-7.48c-.75-1.61-2.39-2.65-4.87-3.1l-.38-.07.27-.28a3.09,3.09,0,0,0,.89-2.58,5.4,5.4,0,0,0-2.11-3.64l.24-.34a5.89,5.89,0,0,1,2.28,3.94,3.57,3.57,0,0,1-.76,2.64c2.42.51,4,1.61,4.81,3.25C130.39,88.84,127.31,92.85,127.31,92.85Z"/><path d="M240,232.66l-.4-.08a23.35,23.35,0,0,1,2.55-4.17,22.65,22.65,0,0,1,2.68-3C243.57,227.13,240.21,231.79,240,232.66Z"/><path d="M186.28,218.85l-.37-.19c.21-.39,1.75-2.78,3.21-5a36,36,0,0,1,3.1-4C192.16,209.71,186.67,218.11,186.28,218.85Z"/><path d="M123,236.79l-.35-.22c.19-.29,1.19-1.94,2.19-3.58a25.61,25.61,0,0,1,2.49-3.32C127.16,229.94,123.37,236.19,123,236.79Z"/><path d="M103.7,229.69l-.33-.24c.26-.37,1.28-1.61,2.31-2.84a20.66,20.66,0,0,1,2.74-2.62S104.25,228.91,103.7,229.69Z"/></svg>