<svg id="Layer_1" data-name="Layer 1" xmlns="http://www.w3.org/2000/svg" viewBox="0 0 70 60"><defs><style>.cls-1{fill:#fff;}.cls-2{fill:#dad9d8;}.cls-3{fill:#4686c6;}.cls-4{fill:#3262ab;}.cls-5{fill:#263b7d;}.cls-6{fill:#6ca743;stroke:#345528;stroke-miterlimit:10;stroke-width:0.5px;}</style></defs><path d="M10.66,46.18C4.64,35.1,12.18,5.71,33.22,3.1,53.39.6,68.54,30.6,55.84,47.73,49.54,56.22,17.42,58.63,10.66,46.18Z"/><path class="cls-1" d="M11.1,48c-6-11.08,1.52-40.48,22.56-43.08C53.83,2.42,69,32.41,56.28,49.54,50,58,17.86,60.45,11.1,48Z"/><path class="cls-2" d="M9.59,43.59A15.78,15.78,0,0,0,11.1,48C17.86,60.45,50,58,56.28,49.54A25.29,25.29,0,0,0,60.8,31.88C53,47,16.05,48.17,9.59,43.59Z"/><path d="M31.49,57c-10.32-.35-17.88-3.56-20.73-8.82-3.31-6.1-2.55-17.31,1.81-26.67,2.66-5.71,8.93-15.52,21-17a18.69,18.69,0,0,1,3.08-.14c8.67.29,16.89,6.54,21.45,16.31,4.78,10.24,4.19,21.4-1.54,29.12C53.27,54.29,42.47,57.39,31.49,57ZM36.68,5.2a18.34,18.34,0,0,0-3,.13C22,6.79,15.88,16.34,13.28,21.9c-4.25,9.13-5,20-1.83,25.9,2.7,5,10,8,20,8.38,10.76.37,21.28-2.6,24.47-6.9C61.51,41.8,62.06,31,57.42,21,53,11.55,45,5.48,36.68,5.2Z"/><path class="cls-3" d="M39.2,18.68c-6.35-.08-11.59,7.08-11.72,16S32.39,50.9,38.73,51s11.59-7.08,11.72-16S45.54,18.76,39.2,18.68Z"/><path class="cls-4" d="M36,41.13A16.84,16.84,0,0,1,27.52,36c.35,8.32,5.19,14.93,11.22,15,6.27.08,11.45-6.92,11.7-15.7C47,40,41.58,41.71,36,41.13Z"/><path d="M40.66,27.12c-4.15-.06-7.59,4.88-7.68,11s3.21,11.18,7.36,11.24,7.59-4.89,7.67-11S44.81,27.17,40.66,27.12Z"/><path class="cls-1" d="M40,27.25a4.37,4.37,0,0,0-4.78,4,4.51,4.51,0,0,0,3.88,5,4.38,4.38,0,0,0,4.79-4A4.52,4.52,0,0,0,40,27.25Z"/><path class="cls-1" d="M36.61,42.58a2,2,0,0,0-2.2,1.83,2.08,2.08,0,0,0,1.79,2.3,2,2,0,0,0,2.2-1.84A2.06,2.06,0,0,0,36.61,42.58Z"/><path class="cls-5" d="M39.2,18.33c-6.56-.09-12,7.25-12.14,16.35-.12,8.61,4.62,15.9,10.79,16.6a8.48,8.48,0,0,0,.87.06c6.56.09,12-7.25,12.14-16.35S45.78,18.43,39.2,18.33Zm-.46,31.86c-6-.07-10.64-7.11-10.52-15.5s5-15.28,11-15.21c.26,0,.51,0,.76.05C45.53,20.17,49.82,27,49.7,35,49.58,43.44,44.66,50.27,38.74,50.19Z"/><path class="cls-6" d="M11.1,48c-6-11.08,1.52-40.48,22.56-43.08C53.83,2.42,69,32.41,56.28,49.54,50,58,17.86,60.45,11.1,48Z"/></svg>