<svg id="Layer_1" data-name="Layer 1" xmlns="http://www.w3.org/2000/svg" viewBox="0 0 120 40"><defs><style>.cls-1{fill:#48474c;}.cls-2{fill:#201e25;}.cls-3{fill:#fff;}.cls-4{fill:#0f0f11;}.cls-5{fill:#a8a7a7;}</style></defs><path class="cls-1" d="M7.32,11.78c-.66-1.58-.27-3.14.73-5.2S14.36,2.05,18.7,5.25c4.88,3.63,7.42,10.61,7.42,13.09s.14,2.75,1.3,3.72A1.52,1.52,0,0,1,26,24.68c-1.87-.42-5.41,4.3-11,3.61s-9-5.38-6.89-9.51S9.06,15.9,7.32,11.78Z"/><path class="cls-2" d="M11.72,7.49A9.36,9.36,0,0,1,21,11c2.19,2.63,4.82,8,3.5,10.52s-7.12,4.71-11.17,2.63S3,13.4,11.72,7.49"/><path class="cls-3" d="M9.14,11.4a5.74,5.74,0,0,1,5.64-2.92,8.68,8.68,0,0,1,7,5.23c1.17,2.77,3.1,6.57.59,8.55s-8.76,2.87-11.91-1.75S8.11,14,9.14,11.4Z"/><path class="cls-1" d="M12.18,28.36s1.48,2.54,7.29.68,6.74-2.47,6.74-2.47S24.56,31.12,20.62,32,12.23,32.39,12.18,28.36Z"/><path class="cls-4" d="M19.3,11.44c-2.3-1.1-5.76,1-6.47,3.76a5.92,5.92,0,0,0,3.51,6.7,5.38,5.38,0,0,0,7.1-3.43C24.26,15.47,22,12.73,19.3,11.44Z"/><path class="cls-3" d="M15.63,14.72A1.62,1.62,0,1,1,14,13,1.68,1.68,0,0,1,15.63,14.72Z"/><path class="cls-4" d="M8.37,18.79s.36,3.73,3.28,5.48,9.39,1.6,11.93-1.75C23.58,22.52,13.48,28.66,8.37,18.79Z"/><path class="cls-1" d="M112.59,15.7c.65-1.57.28-3.13-.74-5.2S105.55,6,101.21,9.18c-4.88,3.63-7.42,10.61-7.42,13.09S93.64,25,92.49,26a1.52,1.52,0,0,0,1.44,2.61c1.88-.41,5.41,4.3,11,3.62s9-5.39,6.88-9.51S110.86,19.83,112.59,15.7Z"/><path class="cls-2" d="M108.18,11.41a9.36,9.36,0,0,0-9.31,3.51c-2.2,2.63-4.82,8-3.51,10.52s7.12,4.7,11.18,2.62S117,17.33,108.18,11.41"/><path class="cls-3" d="M110.77,15.32a5.75,5.75,0,0,0-5.64-2.91,8.65,8.65,0,0,0-7,5.23C97,20.41,95,24.21,97.56,26.19s8.75,2.87,11.9-1.76S111.8,17.89,110.77,15.32Z"/><path class="cls-1" d="M107.73,32.28s-1.48,2.55-7.29.68S93.7,30.5,93.7,30.5s1.65,4.55,5.59,5.42S107.67,36.31,107.73,32.28Z"/><path class="cls-4" d="M102.77,14.69c2.3-1.1,5.76,1,6.47,3.76a5.94,5.94,0,0,1-3.51,6.7,5.38,5.38,0,0,1-7.1-3.43C97.82,18.72,100.08,16,102.77,14.69Z"/><path class="cls-3" d="M97.48,19.31a1.62,1.62,0,1,0,1.62-1.72A1.67,1.67,0,0,0,97.48,19.31Z"/><path class="cls-4" d="M111.54,22.72s-.37,3.72-3.28,5.48-9.39,1.6-11.93-1.76C96.33,26.44,106.42,32.58,111.54,22.72Z"/><path class="cls-5" d="M97.71,18.17c2.07-4,4.42-5.55,7.42-5.76a5.75,5.75,0,0,1,5.64,2.91c.66,1.65,1.22,3.05.7,5.05-.1,6.3-9,11.38-14.12,5.64C94.34,24.17,97.53,18.51,97.71,18.17Z"/><path class="cls-4" d="M96.07,24.79a9.43,9.43,0,0,0,10.23,3.84c4.69-1,6.47-3.51,6.94-6.53,0,0-.16,3.67-7.61,4.9S96.07,24.79,96.07,24.79Z"/><path class="cls-5" d="M22.14,14.25c-2.08-4-4.43-5.55-7.42-5.77A5.76,5.76,0,0,0,9.07,11.4C5.84,15.32,11.7,28.94,22.56,22.27,25.28,19.14,22.31,14.58,22.14,14.25Z"/><path class="cls-4" d="M23.73,21.33a9.47,9.47,0,0,1-10.47,3.18c-4.61-1.35-6.22-3.93-6.5-7,0,0-.08,3.68,7.27,5.38S23.73,21.33,23.73,21.33Z"/></svg>