<svg id="Layer_1" data-name="Layer 1" xmlns="http://www.w3.org/2000/svg" viewBox="0 0 256 325"><defs><style>.cls-1{opacity:0.2;}.cls-2{fill:#161616;}.cls-3{fill:#ff9f2c;stroke:#b5650d;}.cls-14,.cls-3,.cls-6,.cls-9{stroke-miterlimit:10;}.cls-4{fill:#b5650d;}.cls-5{fill:#35374c;}.cls-6{fill:#35467a;stroke:#1d2c54;}.cls-7{fill:#233559;}.cls-8{fill:#2b3245;}.cls-17,.cls-9{fill:#eee1b7;}.cls-9{stroke:#3d3c21;}.cls-10{fill:#fff;}.cls-11{fill:#1b1b26;}.cls-12{fill:#191928;}.cls-13{fill:#f9f5f2;}.cls-14{fill:#faa02c;stroke:#af6617;}.cls-15{fill:#c7323e;}.cls-16{fill:#ad886f;}.cls-18{fill:#3d3c21;}</style></defs><g class="cls-1"><ellipse class="cls-2" cx="128.24" cy="300.94" rx="85.57" ry="21.94"/></g><path class="cls-3" d="M178.6,273.63s-2.6,9.7,2.28,17.4c3.22,5.09-5.76,8.92-5.76,8.92l-20.19,14.41a3.07,3.07,0,0,1-4.21-.62c-1.57-2-4.79-3.89-11-.21,0,0-.94-8.59-10.07-3.42,0,0,4.41-6.85-5.17-4.3l10.28-7.23a29.43,29.43,0,0,1,2.72-1.7c5.47-3,11.62-5,17.56-6.88l6.33-2,.67-10.58S172.63,264,178.6,273.63Z"/><path class="cls-4" d="M139.56,313.43a13.49,13.49,0,0,1,2.57-7.39,21.28,21.28,0,0,1,5.38-5.37,22.48,22.48,0,0,1,6.81-3.16,20.44,20.44,0,0,1,3.74-.63,16.36,16.36,0,0,1,3.93.24l.14.37c-2.16.9-4.3,1.82-6.37,2.88a48.68,48.68,0,0,0-6,3.59,42.82,42.82,0,0,0-5.41,4.36,30.05,30.05,0,0,0-2.38,2.54,21.29,21.29,0,0,0-2.09,2.76Z"/><path class="cls-4" d="M130.12,308.9a14.29,14.29,0,0,1,3.09-6.79,22.94,22.94,0,0,1,5.39-5,25,25,0,0,1,10.12-4,21,21,0,0,1,3.73-.12l.1.29-3.2,1.32c-1,.5-2.11.93-3.13,1.47a52.9,52.9,0,0,0-5.95,3.49,43.5,43.5,0,0,0-5.41,4.26,33,33,0,0,0-2.39,2.48,19.4,19.4,0,0,0-2.08,2.72Z"/><path class="cls-4" d="M160.32,288.21a5.88,5.88,0,0,1,2.11-2.3,9.16,9.16,0,0,1,2.71-1.18,11.36,11.36,0,0,1,5.56.06,12.3,12.3,0,0,1,4.78,2.42,13.18,13.18,0,0,1,1.87,2,10.85,10.85,0,0,1,1.35,2.63l-.2.35-2.14-1.06-2.15-1a29.82,29.82,0,0,0-4.49-1.47,20.22,20.22,0,0,0-4.63-.73,15.29,15.29,0,0,0-2.34.12,8.1,8.1,0,0,0-2.25.51Z"/><path class="cls-3" d="M123,273.28s-2.38,2.08,1.67,10.24c2.68,5.39-5.69,8.27-5.69,8.27L97.35,304a3.07,3.07,0,0,1-4.12-1c-1.35-2.18-4.36-4.37-10.9-1.36,0,0,0-8.64-9.66-4.44,0,0,5.1-6.35-4.7-4.81l11-6.12a30.76,30.76,0,0,1,2.88-1.42c5.75-2.44,12.07-3.74,18.18-5l6.5-1.36-1-8.76S118,263,123,273.28Z"/><path class="cls-4" d="M82.16,301.51a13.46,13.46,0,0,1,3.33-7.09,21.14,21.14,0,0,1,5.9-4.77,22.3,22.3,0,0,1,7.11-2.44,19.85,19.85,0,0,1,3.78-.24,17.17,17.17,0,0,1,3.89.64l.09.39c-2.24.66-4.46,1.36-6.63,2.2a50.29,50.29,0,0,0-6.31,2.95,42.22,42.22,0,0,0-5.84,3.78,31.46,31.46,0,0,0-2.63,2.27,22.52,22.52,0,0,0-2.36,2.53Z"/><path class="cls-4" d="M73.25,296A14.19,14.19,0,0,1,77,289.59a23,23,0,0,1,5.88-4.43,25.2,25.2,0,0,1,6.86-2.44,24.53,24.53,0,0,1,3.62-.45,19.47,19.47,0,0,1,3.72.27l.07.29-3.32,1c-1.08.38-2.19.7-3.26,1.13a53,53,0,0,0-6.28,2.86,43.58,43.58,0,0,0-5.83,3.67,32.82,32.82,0,0,0-2.63,2.22,20.57,20.57,0,0,0-2.36,2.49Z"/><path class="cls-4" d="M105.42,278.58a6,6,0,0,1,2.34-2.07,9.44,9.44,0,0,1,2.82-.89,11.3,11.3,0,0,1,5.53.64,12.32,12.32,0,0,1,4.5,2.9,13.28,13.28,0,0,1,1.65,2.18,10.94,10.94,0,0,1,1.07,2.76l-.24.32-2-1.27-2-1.21a31.33,31.33,0,0,0-4.31-1.93,20.35,20.35,0,0,0-4.53-1.21,15.29,15.29,0,0,0-2.34-.12,8.71,8.71,0,0,0-2.29.27Z"/><path class="cls-5" d="M132.9,22.75s7.88-19.23-.74-20.57-1.38,21.11-1.38,21.11Z"/><path class="cls-5" d="M129.16,18.42s-5.2-10.25-8.43-5.78,8,7.15,8,7.15Z"/><path class="cls-5" d="M134.78,18.63c-.57-.05-.37-7.64,13.19-7.12C156.2,11.83,134.78,18.63,134.78,18.63Z"/><path class="cls-6" d="M79.19,178.62s-36.79,43.31,9.22,82.24C88.41,260.86,118.26,221.49,79.19,178.62Z"/><path class="cls-7" d="M105.85,270.51c0-1.6,2.24-6.23,1.44-10.5-14.59-27.69-27-64.81,14.12-98.38,27.17-22.2,39.32-17,46.27,48.43-8.05,52.55-40.33,59.65-41.63,63.75l-1,1.89c-1.25,1.42.48,5.26-1.39,5.61-4.23.8-15-1.58-17.15-5.28A49.1,49.1,0,0,1,105.85,270.51Z"/><path class="cls-8" d="M98.38,95.66c-.79,2.12-6.3,40.12-52.58,43.91,0,0-23.13-2-7.2,15.89s53.1,20.15,73.58-6.4S98.38,95.66,98.38,95.66Z"/><path class="cls-5" d="M101.58,84.45c-2.41-1.72-20.52-17-5.91-46.17S163.28,11,181,30.7s15.42,45.89,21.1,71.69,20.11,70.92,20.87,103.92-12.14,57.83-43.24,68.93-82.31,9-100.52-27.51,4.93-106.23,12.9-128.06S105.37,87.13,101.58,84.45Z"/><path class="cls-9" d="M88.28,258.28c44.68,35,87.85-6.82,91.92-47.79,3.34-33.62-5.1-69.77-8.23-104.7-.69-7.66,3.1-17.78,3.1-25.28,0,0,11.31-31.57-14.47-41-17.33-6.36-37.35,3.16-32.36,35.78.84,5.43-10.14-5.62-7.85.94,0,0,8.21,3.32-1.35-6.47,0,0-4.64,9.62-3.16,3.69,1.19-4.74.89-23.44-3.68-28.68-10.79-12.36-25.94,3.35-20.71,20.88v0c.69,2.31-.22,2.24,1.23,4.6,0,0-6.34,6-.53,19.87,7.46,17.82-7.58,47.79-12.64,70.55S64.29,239.5,88.28,258.28Z"/><ellipse class="cls-10" cx="142.6" cy="61.41" rx="12.08" ry="11.03" transform="translate(73.01 200.2) rotate(-86.67)"/><path class="cls-11" d="M131.61,61a12.6,12.6,0,0,0,2.81,8.36,10,10,0,0,0,15.41.21,12.62,12.62,0,0,0,.59-15.91,10.14,10.14,0,0,0-7.4-4,10.35,10.35,0,0,0-8,3.21A12.74,12.74,0,0,0,131.61,61Zm-.08,0a12.91,12.91,0,0,1,3.37-8.26,10.7,10.7,0,0,1,8.13-3.5,10.59,10.59,0,0,1,7.89,4,12.92,12.92,0,0,1-.62,16.76,10.72,10.72,0,0,1-8.14,3.49,10.57,10.57,0,0,1-7.87-4A12.77,12.77,0,0,1,131.53,61Z"/><ellipse class="cls-12" cx="144.4" cy="60.17" rx="7.15" ry="6.73" transform="translate(64.92 194.9) rotate(-82.08)"/><ellipse class="cls-13" cx="149.28" cy="57.43" rx="1.31" ry="1.97" transform="translate(-9.36 37.07) rotate(-13.73)"/><ellipse class="cls-10" cx="105.3" cy="60.84" rx="10.47" ry="8.27" transform="translate(43.29 165.46) rotate(-89.36)"/><path class="cls-11" d="M97.07,60.49a12.43,12.43,0,0,0,2,7A7.52,7.52,0,0,0,105,70.94a7.16,7.16,0,0,0,5.83-3.22,11.57,11.57,0,0,0,2.12-6.55,11.76,11.76,0,0,0-1.69-6.69,7.4,7.4,0,0,0-5.55-3.75,7.28,7.28,0,0,0-6.19,3A12.09,12.09,0,0,0,97.07,60.49Zm-.07,0a12.18,12.18,0,0,1,2.33-6.91,7.61,7.61,0,0,1,6.35-3.26,7.87,7.87,0,0,1,6.07,3.8,12.51,12.51,0,0,1,1.9,7.07,12.21,12.21,0,0,1-2.35,6.92,7.65,7.65,0,0,1-6.37,3.25,7.87,7.87,0,0,1-6.05-3.82A12.43,12.43,0,0,1,97,60.49Z"/><ellipse class="cls-12" cx="106.51" cy="60.03" rx="5.36" ry="6.35"/><ellipse class="cls-13" cx="110.29" cy="57.88" rx="1.7" ry="2.01"/><path class="cls-14" d="M118.75,93c4.19.28,19.78-10.3,19.68-13.3l0,0a.15.15,0,0,0,0-.11c0-.11-.32,0-.82.15a2.8,2.8,0,0,1-.37.1,6.51,6.51,0,0,1-2.84.24c-3-.54-7.6-6.44-13.76-10.81a1.74,1.74,0,0,0-.48-.26,1,1,0,0,0-.37-.14,1.23,1.23,0,0,0-.42-.07.81.81,0,0,0-.31,0,2,2,0,0,0-.34.06,1,1,0,0,0-.36.12s0,0-.06,0a1.76,1.76,0,0,0-.35.16,3.13,3.13,0,0,0-.37.23c-3.2,2.13-6.2,9.37-8.41,9,0,0,0,0,0,0l-.28,0c-.53,0-1.58,0-1.78.71a3.65,3.65,0,0,0,0,.56.43.43,0,0,1,0,.15C107.05,82.59,116.39,92.84,118.75,93Z"/><path class="cls-15" d="M115.38,87c5.19.06,9.58-2.28,11.74-3.17,2-.82,10.49-4.13,10.49-4.13s-13.93,3.94-16,4c-3.66.07-7.24-3.1-7.24-3.1s-2.11,2-3.57,1.5a3.46,3.46,0,0,1-1.29-.52C110.23,83.05,112,87,115.38,87Z"/><path class="cls-14" d="M108.66,80.92a8.73,8.73,0,0,0,1.59,1c2.28,1,4.15-1.26,4.15-1.26a13,13,0,0,0,7.24,3.1c1.66.19,7.82-1.34,10.24-2,3.39-.89,6.55-2,6.55-2l0,0c-.06-.08-.34,0-.8,0a2.8,2.8,0,0,1-.37.1,6.51,6.51,0,0,1-2.84.24c-3-.54-7.6-6.44-13.76-10.81a1.74,1.74,0,0,0-.48-.26,1,1,0,0,0-.37-.14,1.23,1.23,0,0,0-.42-.07.81.81,0,0,0-.31,0,2,2,0,0,0-.34.06,1,1,0,0,0-.36.12s0,0-.06,0a1.76,1.76,0,0,0-.35.16,3.13,3.13,0,0,0-.37.23c-3.2,2.13-6.2,9.37-8.41,9,0,0,0,0,0,0l-.28,0c-.53,0-1.58,0-1.78.71A8.84,8.84,0,0,0,108.66,80.92Z"/><path class="cls-5" d="M170.92,88.6c.26,2-.15,35.12-21.57,46.81-43.72,23.87-44.89,49.64-33,54.34,14,5.56,84.25-30.21,88.8-68.9"/><path class="cls-16" d="M137.49,78a5.1,5.1,0,0,1,2.15.2,1.21,1.21,0,0,1,.68.59,1.72,1.72,0,0,1,.11.94,8.06,8.06,0,0,1-.61,2.06c-.28.68-.6,1.36-.9,2.06a10.11,10.11,0,0,0,1.32-1.86,6.08,6.08,0,0,0,.78-2.2,2.18,2.18,0,0,0-.21-1.26,1.59,1.59,0,0,0-1-.77,3.2,3.2,0,0,0-1.19-.06A4.47,4.47,0,0,0,137.49,78Z"/><path class="cls-16" d="M108.45,76.49a3.68,3.68,0,0,0-1-.28,2.28,2.28,0,0,0-1.09.1,1.46,1.46,0,0,0-.51.32,1.35,1.35,0,0,0-.34.51,2.63,2.63,0,0,0-.11,1.14,6.2,6.2,0,0,0,.68,2A9.58,9.58,0,0,0,107.21,82c-.24-.65-.5-1.28-.74-1.91a8.41,8.41,0,0,1-.52-1.9,1.33,1.33,0,0,1,.57-1.5,2.49,2.49,0,0,1,.92-.23A6.82,6.82,0,0,1,108.45,76.49Z"/><path class="cls-5" d="M223,217c-8.05,52.55-36.43,61.43-43.57,66.82h0a8.64,8.64,0,0,1-5,2.81c-4.23.75-10.4.18-13.15-2.79,0,0-3.83-5.87-3.8-7.17,0-1.59,5.89-5.45,5.09-9.72-14.59-27.69-24.07-64.44,17-98"/><path class="cls-5" d="M151.49,140.83c-1.14-2.8-29.13-2.18-29.63,5.63s14.22-1.3,8.63,13.37S160.38,162.79,151.49,140.83Z"/><path class="cls-8" d="M72.42,131.06c2,1.29-3.12,15.09-9.31,13.32s3.38-6.76-9-7.78S56.72,120.93,72.42,131.06Z"/><path class="cls-17" d="M167.44,43.94s6.87,3.54,10.26,18.94c4,18.39,1.84,38.41-26.31,44.72"/><path class="cls-18" d="M167.49,43.85a13.64,13.64,0,0,1,4,3.27,29.46,29.46,0,0,1,3.06,4.22,42.16,42.16,0,0,1,4,9.62c.49,1.67.9,3.34,1.27,5s.63,3.42.83,5.15a42.89,42.89,0,0,1,0,10.56A30.76,30.76,0,0,1,177.49,92a27.09,27.09,0,0,1-6.84,8.27,32.69,32.69,0,0,1-9.19,5.14c-.81.3-1.65.53-2.47.8l-2.51.65-2.52.53-2.54.35,0-.19c6.59-1.5,13.09-4.05,18.22-8.5a28.09,28.09,0,0,0,3.49-3.66,29.21,29.21,0,0,0,2.71-4.26,30.79,30.79,0,0,0,2.91-9.65,54.93,54.93,0,0,0-1.53-20.13,45.45,45.45,0,0,0-3.43-9.54,28.82,28.82,0,0,0-2.7-4.28A14.58,14.58,0,0,0,167.4,44Z"/><path class="cls-17" d="M91.11,85.67s2.2,13.71,17.94,18"/><path class="cls-18" d="M91.11,85.67a22.37,22.37,0,0,0,1.18,3.11,24.56,24.56,0,0,0,1.53,2.92,26.57,26.57,0,0,0,9.24,9.09,39.11,39.11,0,0,0,6,2.83c-1.08-.25-2.18-.49-3.25-.84a25,25,0,0,1-3.11-1.31,21.24,21.24,0,0,1-5.52-3.94,20.9,20.9,0,0,1-4-5.46A18.72,18.72,0,0,1,91.11,85.67Z"/></svg>