<svg id="Layer_1" data-name="Layer 1" xmlns="http://www.w3.org/2000/svg" viewBox="0 0 512 700"><defs><style>.cls-1,.cls-2{fill:#f9dad2;}.cls-1{stroke:#4c2606;}.cls-1,.cls-13,.cls-16,.cls-5,.cls-8,.cls-9{stroke-miterlimit:10;}.cls-3{fill:#4c2606;}.cls-4{fill:#323232;opacity:0.4;}.cls-10,.cls-5{fill:#b28e7f;}.cls-13,.cls-16,.cls-5,.cls-8{stroke:#3a2114;}.cls-6{fill:#e2b2aa;}.cls-7{fill:#1e130b;}.cls-8{fill:none;}.cls-9{fill:#f4efed;stroke:#7f604f;}.cls-11{fill:#3a2114;}.cls-12{fill:#eadcd3;}.cls-13{fill:#e0beb1;}.cls-14{fill:#b59374;}.cls-15{fill:#f58778;}.cls-16{fill:#634439;}.cls-17{fill:#d1aa9d;}.cls-18{fill:#7a2f2b;}.cls-19{fill:#f9f6f2;}.cls-20{fill:#8c574b;}</style></defs><path class="cls-1" d="M432.66,323.85s-1.11,8-4.94,12.35-14.46,22.86-4.82,35.59,28.91,1.6,36.57-5.07,12.85-16.43,6.18-17.42c0,0,6.8-5.93,4.82-12.36a3.19,3.19,0,0,0-4.2-1.85s4.08-6.3.25-9.27c0,0-3.34-2.22-6.92,1.86a2.54,2.54,0,0,0-1.73-3.71c-3.09-.86-5.32,1.61-9.64,6.18a80.65,80.65,0,0,1-9.14,8.15l-2.6-.12s-.12-2.25,2.47-5.56c2.23-2.84,1.49-10.38-3.21-10.63A2.37,2.37,0,0,0,432.66,323.85Z"/><path class="cls-2" d="M436.62,337.31a5.6,5.6,0,0,0,.37,3.59c.86,1.6,3.7,8.28,1,12.6"/><path class="cls-3" d="M437.1,337.44a5.78,5.78,0,0,0-.14,1.91,4.17,4.17,0,0,0,.2.93,4,4,0,0,0,.17.44c.08.16.16.33.23.49a21.87,21.87,0,0,1,1.32,4.06,15.46,15.46,0,0,1,.35,4.23,8.27,8.27,0,0,1-1.26,4,8.07,8.07,0,0,0,1-4,15,15,0,0,0-.59-4.1,21.64,21.64,0,0,0-1.5-3.85c-.08-.16-.17-.3-.24-.45a3.54,3.54,0,0,1-.25-.52,4.83,4.83,0,0,1-.31-1.11,6.67,6.67,0,0,1,0-2.27Z"/><path class="cls-2" d="M443,340s8,10.13,12.48,19.65"/><path class="cls-3" d="M443,340a64.64,64.64,0,0,1,7.16,9.24,51.35,51.35,0,0,1,5.32,10.41c-2-3.34-4-6.62-6.16-9.87S445.11,343.34,443,340Z"/><path class="cls-1" d="M460.09,326.44s-5.44,10.5-14.33,17.3"/><path class="cls-1" d="M466.89,334s-10.14,13.22-16.31,17"/><path class="cls-1" d="M468.74,346s-8.9,8.41-14,12.11"/><path class="cls-1" d="M180,522.27s9.39-5.7,27.72-5.91a82.06,82.06,0,0,1,7.7,10.21c2.77,4.69,2.88,16.06,4.19,20.1s-1.36,6.41-5.73,3.58,0-11.66-7.33-11.27c0,0-2.64,11,1.76,19.84,0,0,3.14,4.28,1,5.74,0,0-1.47,1-3.74-.5,0,0,.43,2.39-2.87,2.1s-6.21-3-6.21-3-2.27,2.67-6.46-2.31-7.11-9.51-8.65-18.27S180.58,525,180,522.27Z"/><path class="cls-2" d="M207.78,564.69s-1.57,1.08-6.22-5-6-10.89-5.86-16.28"/><path class="cls-3" d="M208.07,565.11a1.22,1.22,0,0,1-.69.15,2.55,2.55,0,0,1-.52-.09,4,4,0,0,1-.84-.38,7.79,7.79,0,0,1-1.37-1,20.49,20.49,0,0,1-2.25-2.42,39,39,0,0,1-3.68-5.41,23.64,23.64,0,0,1-2.42-6,23,23,0,0,1-.6-6.46,22.64,22.64,0,0,0,.84,6.4,23.35,23.35,0,0,0,2.62,5.86,37.84,37.84,0,0,0,3.81,5.17,19.92,19.92,0,0,0,2.25,2.25,7.81,7.81,0,0,0,1.25.87,3.15,3.15,0,0,0,.65.26,1,1,0,0,0,.28,0c.07,0,.21,0,.1,0Z"/><path class="cls-2" d="M199.23,565.24s-8.33-4.13-11.69-21.58"/><path class="cls-3" d="M199,565.69a12.66,12.66,0,0,1-2.56-2.05,22.9,22.9,0,0,1-2.1-2.42,30.49,30.49,0,0,1-3.2-5.49,43.54,43.54,0,0,1-2.2-5.93c-.28-1-.53-2-.79-3l-.61-3.09.73,3.06c.3,1,.59,2,.91,3a43,43,0,0,0,2.41,5.78,29.92,29.92,0,0,0,3.34,5.25A23.68,23.68,0,0,0,197,563a11.44,11.44,0,0,0,2.41,1.78Z"/><path class="cls-3" d="M205.48,543.28a23.18,23.18,0,0,1,.94-4.73,13.63,13.63,0,0,1,2.11-4.27,13.62,13.62,0,0,0-1.63,4.39,23.46,23.46,0,0,0-.42,4.63Z"/><ellipse class="cls-4" cx="304.22" cy="659.31" rx="116.69" ry="30.96"/><path class="cls-5" d="M358.93,649.34c-1.45.78-2.93,1.48-4.42,2.11a57.79,57.79,0,0,1-12.42,3.68,66.7,66.7,0,0,1-27.49-.81c-5.74-1.43-10.43-3.55-13.33-5.89a8.8,8.8,0,0,1-3-3.94c-2.77-9,3.93-13,3.47-43.25a83.32,83.32,0,0,0-18.5-50.41l50.41-34.22s12.49,36.53,6.72,68.44S344.25,623,344.25,623a63.88,63.88,0,0,1,9,8.15,62.87,62.87,0,0,1,4.4,5.38C363.67,644.84,358.93,649.34,358.93,649.34Z"/><path class="cls-1" d="M355.85,357.06c-3.84,3.4-5.63,6.11-10.75,8.67-31.23,15.61-90.54,10.75-126.61-28.1-22.61-24.35-32.28-58.63-20.56-89.88,7-18.62,21.56-36.18,45.53-49.91,64.17-36.78,102.68,2.77,102.68,2.77s25.67-2.08,24.63,66.6c0,0-1.74,11.45,5.2,30.18C381.77,313.05,375.45,339.72,355.85,357.06Z"/><path class="cls-6" d="M358.51,356.72a61.87,61.87,0,0,1-13.41,9c-31.23,15.61-90.54,10.75-126.61-28.1-22.61-24.35-32.28-58.63-20.56-89.88l33.62-35.23c-.1.28,36.43-18.75,32.84-5.55s-47.31,58.62-47.07,70.31c.43,20.4,6.46,44.6,27.41,64.05C277.93,372.16,332,363.54,358.51,356.72Z"/><path class="cls-7" d="M313.49,201.87a38.22,38.22,0,0,1,33.65,3.47C369.34,218.87,369,237.6,371,250.22c0,0,7.4-36.54-17.12-62.44S221.14,136,190.16,239.12c0,0,15,46.12,19.61,62.31,0,0-3.45-30.8,17-55.51,5.14-6.21,18.13-9.74,33.3-19.42,20.12-12.84,28.69-22.48,40.58-24.28Z"/><path class="cls-5" d="M329.11,421.6l-.26,0c17.71,57.8,9.15,82.32,9.15,82.32l-41.41,50.89c-2.38,2.59-.18.45-3.67.82h0c-2.09.22-13.42.43-13.42.43l9.77.1-13.93,54.36c.78.67-3,.39-2.43,1,7.66,8.6-6.24,1-6.24,1-1,1.73,2.59,5.26.69,6.59-3.43,2.39-2.35,11.68-7.63,12.83-4.88,1.07-5.46-52.59-18.28-82.42-15.71-36.56-8.78-39-5.31-67.78,2.16-17.88,4-27.72,2-37.18v0a92.79,92.79,0,0,0-2.26-9.13l-.31.13C210.14,446.08,201.89,474,201.89,474l9,43c-17,.34-33.65,6.24-33.65,6.24l-9-35.73c-4.17-19.77,9-46.48,34.34-72.49s43.13-32.5,43.13-32.5-.47,3.7,79.32,3.7c67,0,87.73-27.85,92.69-36.81a1.25,1.25,0,0,1,2.27.19A80.23,80.23,0,0,0,440.55,381C394.11,428.77,333.5,422.16,329.11,421.6Z"/><path class="cls-5" d="M338,503s-3.23,37.92-41.39,51.8c0,0-24.28,7.28-44.4-8"/><line class="cls-8" x1="330.58" y1="425.74" x2="323.65" y2="406.31"/><path class="cls-5" d="M201.89,474s-6.94-8.32-17-5.2"/><path class="cls-9" d="M366,112.31s9.59-2.8,29.57-12.57,41.16-12.78,4.21,20.48-44.49,16.28-44.49,16.28Z"/><path class="cls-5" d="M303.78,387.1c8.84-3.9,21.13-6.63,28.09-10.4,20.89-11.33,28.49-22.07,28.49-22.07-36.08,22.54-74.58,13.87-106.15-.35s-50.64-49.26-45.78-88.8,42.62-56.32,42.62-56.32l27.4-10.76c94.35,2.78,139.84-17.56,139.84-17.56,70.41-41.63,70.07-98.17,62.09-125.92s-38.5-44.05-61.05-45.09-11.45,5.55-13.88,21.85,10.06,19.08,16,11.45,13.18-5.2,13.18-5.2c16,10.75,27.06,52.72-15.26,71.45S337.81,99,315.61,85.1s-81.17-43-136.32-8.67-36.42,86.37-36.42,86.37-37.12,0-56.89,52,99.86,112.61,99.86,112.61,11.44,36.08,46.83,53.07c0,0,19.46,13.08,34.26,11.23"/><path class="cls-10" d="M137,163.5s16.3-3.82,37.81,11.1"/><path class="cls-11" d="M136.85,163a35.29,35.29,0,0,1,10.21,0,54.54,54.54,0,0,1,9.86,2.31c1.59.58,3.18,1.12,4.71,1.83s3.06,1.42,4.56,2.18,2.92,1.67,4.39,2.5,2.8,1.86,4.2,2.79c-1.43-.9-2.83-1.82-4.27-2.68s-2.91-1.68-4.43-2.39-3-1.46-4.59-2.05-3.14-1.17-4.73-1.7a52.91,52.91,0,0,0-9.79-2,34.42,34.42,0,0,0-9.89.24Z"/><path class="cls-10" d="M149.8,162.8s22.2-11.1,34.69,10.76"/><path class="cls-11" d="M149.58,162.36a32.14,32.14,0,0,1,9.86-2.57,26.71,26.71,0,0,1,10.1.88,23.3,23.3,0,0,1,8.77,5,30.89,30.89,0,0,1,6.18,7.93,30.41,30.41,0,0,0-6.35-7.74,23,23,0,0,0-8.74-4.67,25.92,25.92,0,0,0-9.88-.61,31.26,31.26,0,0,0-9.49,2.71Z"/><path class="cls-10" d="M363.13,110.08s7.64,11.44-2.08,27.4"/><path class="cls-11" d="M363.55,109.8a20.76,20.76,0,0,1,2.38,7,26.43,26.43,0,0,1,.16,7.27,28.71,28.71,0,0,1-.7,3.56c-.16.58-.28,1.18-.48,1.75l-.61,1.7a15.13,15.13,0,0,1-.7,1.67l-.77,1.63c-.56,1.07-1.19,2.1-1.78,3.14.56-1.07,1.15-2.11,1.67-3.19l.7-1.66a12.63,12.63,0,0,0,.64-1.68l.55-1.7c.18-.57.28-1.17.42-1.75a28,28,0,0,0,.56-3.52,25.89,25.89,0,0,0-.4-7.09,20,20,0,0,0-2.47-6.54Z"/><path class="cls-10" d="M383.25,114.59s11.1,6.59,5.55,23.93"/><path class="cls-11" d="M383.51,114.16a15.54,15.54,0,0,1,4.51,5,19,19,0,0,1,2.23,6.29l.2,1.66c.08.55,0,1.11.06,1.66a24.41,24.41,0,0,1-.2,3.31c-.12,1.09-.39,2.17-.58,3.25l-.93,3.17.8-3.19c.15-1.09.38-2.17.46-3.26a22.32,22.32,0,0,0,.07-3.27c0-.54,0-1.09-.11-1.63l-.26-1.61a18.33,18.33,0,0,0-2.38-6A14.66,14.66,0,0,0,383,115Z"/><path class="cls-10" d="M408.23,112.85s7.63,1,9.71,13.53"/><path class="cls-11" d="M408.3,112.36a9.73,9.73,0,0,1,4.07,2.15,13.59,13.59,0,0,1,2.85,3.48,19.34,19.34,0,0,1,1.78,4.07c.2.71.38,1.43.56,2.14l.38,2.18-.5-2.15c-.22-.7-.44-1.4-.68-2.09a18.67,18.67,0,0,0-2-3.89,12.81,12.81,0,0,0-2.9-3.15,8.89,8.89,0,0,0-3.74-1.75Z"/><path class="cls-11" d="M314.2,382.64A85.06,85.06,0,0,1,302.05,386a105.83,105.83,0,0,1-12.53,1.65,102.3,102.3,0,0,1-25.25-1.44A103.89,103.89,0,0,1,252,383a89.24,89.24,0,0,1-11.68-4.9,92.07,92.07,0,0,1-10.83-6.53,102.6,102.6,0,0,1-9.78-8l.07-.08a99.16,99.16,0,0,0,20.88,13.88,100.42,100.42,0,0,0,11.63,4.73,101.82,101.82,0,0,0,12.16,3.13,104.34,104.34,0,0,0,25,1.64A106.74,106.74,0,0,0,302,385.48a85.42,85.42,0,0,0,12.21-2.93Z"/><circle class="cls-7" cx="228.72" cy="128.29" r="19.6"/><circle class="cls-12" cx="230.63" cy="115.63" r="5.55"/><ellipse class="cls-7" cx="272.77" cy="84.75" rx="14.22" ry="19.6" transform="translate(101.73 313.52) rotate(-70.48)"/><ellipse class="cls-12" cx="276.18" cy="76.66" rx="3.12" ry="5.55" transform="translate(109.52 309.85) rotate(-69.96)"/><path class="cls-9" d="M306.59,144.42s-22.54,19.42-5.55,43.36c0,0,72.5,21.16,120-27.06,0,0,15.27-14.57-1-17.34S391.23,162.11,306.59,144.42Z"/><path class="cls-13" d="M282,659.19a15,15,0,0,1-4.42,4.57c-1.53-4.39-5.59-18.39,3.34-21C288.59,651.42,282,659.19,282,659.19Z"/><path class="cls-14" d="M333.58,250.24a53.56,53.56,0,0,0-4.23,10.23,39.23,39.23,0,0,0-1.79,10.76A22.48,22.48,0,0,0,336.21,290l-.46-.18a14.34,14.34,0,0,1,4,1,9.78,9.78,0,0,1,3.49,2.38,7.28,7.28,0,0,1,1.77,3.89,5.2,5.2,0,0,1-.18,2.21,5.06,5.06,0,0,1-1.09,1.9,10.53,10.53,0,0,1-3.36,2.36,25.6,25.6,0,0,1-3.72,1.37c-2.52.75-5.07,1.28-7.57,2l0-.09c2.47-.86,5-1.5,7.46-2.34a29.1,29.1,0,0,0,3.61-1.48,9.86,9.86,0,0,0,3.11-2.27,4.37,4.37,0,0,0,1-3.58,6.58,6.58,0,0,0-1.66-3.43,8.81,8.81,0,0,0-3.2-2.13,13.5,13.5,0,0,0-3.75-.94h0l0,0a23.12,23.12,0,0,1-6.91-8.65,24.39,24.39,0,0,1-2-10.89,38.41,38.41,0,0,1,2.1-10.92,50.57,50.57,0,0,1,4.69-10.09Z"/><path class="cls-15" d="M301.72,311.88a29.25,29.25,0,0,0-4.64,5.3,17.73,17.73,0,0,0-1.64,3c-.49,1.05-.81,2.18-1.26,3.37h-.1a14.23,14.23,0,0,1,.62-3.61,12.56,12.56,0,0,1,1.55-3.32,14.64,14.64,0,0,1,5.42-4.83Z"/><path class="cls-15" d="M351.64,309.75a4,4,0,0,1,2.61.8,5.32,5.32,0,0,1,1.77,2.23,6,6,0,0,1,.37,2.77,7.31,7.31,0,0,1-.28,1.33,6.81,6.81,0,0,1-.6,1.21l-.1,0,.18-1.24c0-.42,0-.84,0-1.25a7.69,7.69,0,0,0-.51-2.42,5.89,5.89,0,0,0-3.49-3.32Z"/><path class="cls-3" d="M323,329.25c1.8-.23,3.57-.48,5.33-.67s3.51-.42,5.23-.72a48.16,48.16,0,0,0,5.11-1,19.85,19.85,0,0,0,2.47-.82c.4-.17.83-.3,1.22-.51s.77-.42,1.19-.62l.07.08a15.1,15.1,0,0,1-4.69,2.6,29.2,29.2,0,0,1-5.21,1.3,45.69,45.69,0,0,1-5.35.52c-1.79.07-3.58.08-5.37,0Z"/><ellipse class="cls-16" cx="418" cy="368.21" rx="4.39" ry="4.57"/><ellipse class="cls-16" cx="187.9" cy="509.74" rx="4.39" ry="4.57"/><path class="cls-17" d="M270.93,444.24a32,32,0,0,1,.88-16.68c2.13-6.21,6.4-13,14.94-16.19,18-6.78,34.27,8.5,41.92,32.34s20.53,65-12.47,92.36-65.39-19.07-52.61-52.3C272.22,461.33,272,449.54,270.93,444.24Z"/><path class="cls-15" d="M296.66,318.08s12.15,16.18,30.53,21.15c15.48,4.19,26.88-27.92,26.88-27.92l-21.5,11.84Z"/><path class="cls-18" d="M296.66,318.08S318.07,336.56,331,334.9c9.25-1.19,21-20.68,21-20.68S327.54,325.88,296.66,318.08Z"/><path class="cls-19" d="M345,318.7h0c0,4-2.32,7.83-9.54,9.67-12.06,3.06-24.65-1.71-29.57-7-1.43-1.53,9-.17,9-.17S336.75,324.65,344,319Z"/><path class="cls-15" d="M296.66,318.08s42.19,4.06,56.07-5C352.73,313.12,337.77,332,296.66,318.08Z"/><path class="cls-5" d="M158.78,165.48s-93-19.65-130.43,52.16c0,0-13.87,72.56,147.08,103.56"/><path class="cls-20" d="M169.88,200.48S79.69,176.2,57.49,224.76c0,0,0,29.14,38.85,40.24,0,0-28.44-7.63-34-38.15C62.35,226.85,84.55,183.14,169.88,200.48Z"/><path class="cls-5" d="M193.47,208.81s-40.93,49.26-7.63,118.63"/><path class="cls-5" d="M294.41,549.45c.14,2,.21,3.91.21,5.8v.43A91.62,91.62,0,0,1,283,599.39c-4.5,37.77,6.39,44.58,9.71,48.56a30.75,30.75,0,0,1,2,2.69,20.35,20.35,0,0,1,3.55,9.81c.5,3,4.85,8.89-5.57,12h0a44.37,44.37,0,0,1-7.92,1.46c-1.49.17-3.11.3-4.89.39a100.9,100.9,0,0,1-14-.19A80.4,80.4,0,0,1,252.64,672c-9.56-2.4-15.89-6.18-17.7-9.59l0-.06a10.17,10.17,0,0,1,.43-10l7.27-11.88S251.74,590,238.22,563c-8.07-16.14-8-36.35-6.62-50v0a125.66,125.66,0,0,1,2.45-15.47"/><path class="cls-13" d="M284.73,673.93c-1.49.17-3.11.3-4.89.39a100.9,100.9,0,0,1-14-.19c1.24-4.71,5-16.81,10.66-14h0a7.69,7.69,0,0,1,2.3,1.93l.38.45A25.3,25.3,0,0,1,284.73,673.93Z"/><path class="cls-13" d="M292.65,672.46c-.27-2.27-2.17-19.58,2-21.82a20.35,20.35,0,0,1,3.55,9.81C298.72,663.44,303.07,669.34,292.65,672.46Z"/><path class="cls-13" d="M252.64,672c-9.56-2.4-15.89-6.18-17.7-9.59l0-.06c1.21-4,3.81-8.66,9.21-5.81C250.15,659.69,252,667.43,252.64,672Z"/><path class="cls-13" d="M314.6,654.32c-5.74-1.43-10.43-3.55-13.33-5.89C302.05,641,304.94,626.13,314.6,654.32Z"/><path class="cls-13" d="M342.09,655.13a65.25,65.25,0,0,1-13.29,1C329.07,649.11,330.87,624.23,342.09,655.13Z"/><path class="cls-13" d="M358.93,649.34c-1.45.78-2.93,1.48-4.42,2.11-2.23-5.13-5.66-15.13-1.25-20.32a62.87,62.87,0,0,1,4.4,5.38C363.67,644.84,358.93,649.34,358.93,649.34Z"/><path class="cls-8" d="M226.07,439.83l24.29-10.41s28.09-28.79-12.84-42"/></svg>