<svg xmlns="http://www.w3.org/2000/svg" xmlns:xlink="http://www.w3.org/1999/xlink" viewBox="0 0 330 380"><defs><style>.cls-1{isolation:isolate;}.cls-2{opacity:0.2;}.cls-3{fill:#52993a;}.cls-4{fill:#1c0e0d;opacity:0.29;}.cls-4,.cls-6,.cls-8{mix-blend-mode:multiply;}.cls-5{fill:#087039;}.cls-6{fill:url(#linear-gradient);}.cls-7{fill:#6a9d41;}.cls-8{fill:url(#linear-gradient-2);}.cls-11,.cls-9{mix-blend-mode:screen;}.cls-9{fill:url(#linear-gradient-3);}.cls-10{fill:#e6e982;}.cls-11{fill:url(#linear-gradient-4);}.cls-12{fill:#756629;}.cls-13{fill:#400f28;}.cls-14{fill:#f38183;}.cls-15{fill:#bf3e3f;}.cls-16{fill:url(#radial-gradient);}.cls-17{fill:url(#radial-gradient-2);}.cls-18{fill:#466d33;}.cls-19{fill:#fff;}</style><linearGradient id="linear-gradient" x1="90.81" y1="265.91" x2="17.42" y2="199.7" gradientTransform="translate(5.84 -3.59) rotate(0.18)" gradientUnits="userSpaceOnUse"><stop offset="0" stop-color="#90ae5c"/><stop offset="0.06" stop-color="#98b565"/><stop offset="0.29" stop-color="#b2ca80"/><stop offset="0.52" stop-color="#c5d993"/><stop offset="0.76" stop-color="#d0e29f"/><stop offset="1" stop-color="#d4e5a3"/></linearGradient><linearGradient id="linear-gradient-2" x1="2105.61" y1="266.02" x2="2032.3" y2="199.89" gradientTransform="matrix(-1, 0, 0, 1, 2344.79, 3.67)" xlink:href="#linear-gradient"/><linearGradient id="linear-gradient-3" x1="159.51" y1="150.03" x2="159.23" y2="67.36" gradientTransform="translate(5.84 -3.59) rotate(0.18)" gradientUnits="userSpaceOnUse"><stop offset="0" stop-color="#fff"/><stop offset="0.1" stop-color="#cfcfcf"/><stop offset="0.23" stop-color="#999"/><stop offset="0.37" stop-color="#6a6a6a"/><stop offset="0.5" stop-color="#444"/><stop offset="0.63" stop-color="#262626"/><stop offset="0.75" stop-color="#111"/><stop offset="0.88" stop-color="#040404"/><stop offset="0.99"/></linearGradient><linearGradient id="linear-gradient-4" x1="159.32" y1="196.01" x2="160.45" y2="114.67" xlink:href="#linear-gradient-3"/><radialGradient id="radial-gradient" cx="1158.36" cy="64.47" r="11.07" gradientTransform="matrix(0.74, 0, 0, 0.91, -692.75, 33.39)" gradientUnits="userSpaceOnUse"><stop offset="0.33" stop-color="#190c0c"/><stop offset="0.6" stop-color="#37100f"/><stop offset="0.79" stop-color="#481211"/><stop offset="0.8" stop-color="#4a1211"/><stop offset="0.9" stop-color="#5f0e0e"/><stop offset="0.97" stop-color="#660d0d"/></radialGradient><radialGradient id="radial-gradient-2" cx="1139.1" cy="64.78" r="11.3" xlink:href="#radial-gradient"/></defs><g class="cls-1"><g id="Layer_1" data-name="Layer 1"><g class="cls-2"><ellipse cx="165" cy="303.9" rx="164.33" ry="73.01"/></g><path class="cls-3" d="M35.56,269.55c-3.49-6.3-9.14-12.45-15.67-11.79-8.94.91-9.29,14.46-3.31,19.54,5.57,4.74,10.54,3.38,17.93-.25,3.43.22,21.53,3.74,25.39,4.69-18.11.35-32.54,4.57-33,4.46-3.49-4.57-10.87-8.58-16.38-3.6-5.78,5.21-3.85,16,2.74,19.48,6.26,3.35,12.65-1,15.54-6.61,5.93-1.33,36.52-3.38,36.52-3.38-18.64,8.27-31.09,12.82-31.09,12.82-6.49-3.94-12.82-2.37-15.8,3-3.13,5.59-1.06,17.38,8.71,16.52,6-.54,9.12-5,10.92-8.52,4.64-1.75,56.62-25.44,77.88-17.65-9.58-11.72-14.94-17.7-19.52-18.85C84.59,276.41,50.83,269.6,35.56,269.55Z"/><path class="cls-4" d="M34.35,274.76c-6.27,2.65-22.38,6.38-21.29-10.91-1.32,4.55,0,10.46,3.52,13.45,5.57,4.74,10.54,3.38,17.93-.25,2.33.15,11.43,1.82,18.24,3.18.09-.34,11.42,2.25,11.42,2A169.81,169.81,0,0,0,34.35,274.76Z"/><path class="cls-4" d="M36.64,313.6c-3.09,7.57-15.3,12.7-19.43,1.65.54,4.94,3.63,9.7,10,9.14,6-.54,9.12-5,10.92-8.52,4.64-1.75,56.62-25.44,77.88-17.65-2-2.44-3.82-4.64-5.49-6.6C85.81,294.11,60.5,303.42,36.64,313.6Z"/><path class="cls-4" d="M28.35,293.09c-6.1,8.48-18.19,10.14-21.22-2,.07,4.44,2.33,9,6.17,11,6.26,3.35,12.65-1,15.54-6.61,4-.91,30.42-3.47,39.88-4.17C58.72,290.25,38.65,291.13,28.35,293.09Z"/><path class="cls-5" d="M26.15,325a8.76,8.76,0,0,1-8.21-5.33,14.2,14.2,0,0,1,.15-12.11c3.19-5.71,9.84-7,16.22-3.26,1.48-.54,12.28-4.57,27.93-11.43-7.86.56-28.06,2.06-33.11,3.11-3.06,5.77-9.65,10-16,6.62a13.1,13.1,0,0,1-6.39-10.41,11.85,11.85,0,0,1,3.55-10.05C16,277,23.49,281,27.12,285.62c.27-.05.79-.18,1.39-.31a153.5,153.5,0,0,1,26.93-4c-6.73-1.38-18-3.5-20.85-3.72-7.77,3.8-12.74,4.85-18.28.14-3.34-2.84-5-8.44-3.89-13.33.94-4.21,3.64-6.84,7.43-7.23,7.88-.8,13.69,7.78,16,11.78,15.68.13,49.29,7,60.74,9.84,4.56,1.14,9.56,6.54,19.76,19l1.29,1.58-1.76-.65c-12.63-4.63-37.84.94-74.94,16.55l-2.5,1c-2.77,5.36-6.44,8.18-11.18,8.6C26.85,325,26.5,325,26.15,325Zm1-21.71a9.23,9.23,0,0,0-8.31,4.9,12.82,12.82,0,0,0-.1,10.92,8,8,0,0,0,8.4,4.72c6-.53,8.89-5,10.56-8.25l.09-.18.16-.06c.45-.17,1.37-.56,2.64-1.09,35.73-15,60.55-20.79,73.85-17.1-9.09-11-14-16.2-18.08-17.23-11.49-2.86-45.3-9.75-60.81-9.81h-.25l-.13-.25c-2.07-3.72-7.69-12.3-15.25-11.54-3.38.34-5.79,2.68-6.61,6.41-1,4.44.49,9.53,3.52,12.11,5.25,4.46,9.83,3.45,17.5-.31l.09,0h.11c3.41.22,21.54,3.73,25.45,4.7l4.18,1-4.26.08a150.76,150.76,0,0,0-31.23,4.11c-1.56.36-1.68.39-1.84.35l-.14,0-.1-.13c-3.33-4.38-10.43-8.36-15.77-3.54a10.57,10.57,0,0,0-3.18,9,11.94,11.94,0,0,0,5.84,9.51c6,3.18,12.16-.92,15-6.4l.11-.21.2,0c5.88-1.33,35.33-3.31,36.58-3.39l3.11-.21-2.93,1.3c-18.44,8.18-31,12.78-31.12,12.83l-.17.06-.17-.1A13.56,13.56,0,0,0,27.16,303.29Z"/><path class="cls-3" d="M98.94,191.65c-10-10.29-22.61-16.07-40.81-16-8.24,0-13.9,0-20.07-1.12s-18-2.82-22.17,10.14c-4.24,13.16,8.51,29,15.34,40.75s13.21,26.25,24.9,38.5c13.3,13.94,30.89,24.26,48.74,22.37C82.83,251.27,98.94,191.65,98.94,191.65Z"/><path class="cls-6" d="M38,197.74C46.57,233,74,258,83.71,260.66c3.4-18.93,1.08-15,1.08-15C66.75,243.34,48,226.7,38,197.74Z"/><path class="cls-5" d="M100.6,287.06c-14.79-.06-30.87-8.16-44.77-22.73-9-9.43-14.95-20.36-20.19-30-1.64-3-3.19-5.86-4.78-8.59-1.21-2.06-2.58-4.23-4-6.54-6.66-10.51-14.95-23.6-11.36-34.73C19.86,170.81,32.66,173,38.12,174c6.26,1.08,12,1.14,20,1.11,17.29-.07,30.37,5.07,41.11,16.15l.24.24-.1.36a195.73,195.73,0,0,0-5.28,34.08C93,243.39,94,268,105.24,285.94l.51.81-.83.09A41.38,41.38,0,0,1,100.6,287.06ZM31.09,174.33c-5.58,0-12,1.83-14.77,10.54-3.4,10.53,4.37,22.81,11.23,33.64,1.46,2.31,2.85,4.5,4.06,6.57,1.6,2.75,3.15,5.6,4.8,8.62,5.21,9.59,11.11,20.45,20,29.78C71.24,279,88.52,287.1,104,285.8c-11-18.15-12-42.58-10.82-60a200.57,200.57,0,0,1,5.22-33.95c-10.38-10.59-23-15.57-39.63-15.63h-.64c-8.06,0-13.82,0-20.14-1.13A41.41,41.41,0,0,0,31.09,174.33Z"/><path class="cls-7" d="M96.89,265.55C84.5,265.5,76,258,66.25,248.29a95.94,95.94,0,0,1-11.39-13.83,123.05,123.05,0,0,1-9-15.63,81,81,0,0,1-6.89-20.16c.08.29,7.77,28.67,27.9,48.75,9.65,9.61,18,17,30.07,17Z"/><path class="cls-3" d="M298.59,270.54c3.52-6.27,9.2-12.38,15.73-11.67,8.93,1,9.21,14.53,3.21,19.56-5.6,4.7-10.56,3.3-17.93-.38-3.44.2-21.55,3.57-25.41,4.5,18.1.48,32.51,4.81,32.93,4.71,3.51-4.55,10.92-8.5,16.4-3.48,5.75,5.25,3.77,16-2.85,19.46-6.27,3.3-12.64-1.06-15.5-6.73-5.92-1.37-36.5-3.66-36.5-3.66,18.6,8.42,31,13.06,31,13.06,6.51-3.89,12.82-2.27,15.78,3.08,3.1,5.62,1,17.39-8.8,16.45-6-.58-9.09-5-10.87-8.59-4.63-1.79-56.49-25.88-77.79-18.24,9.64-11.65,15-17.6,19.62-18.7C249.52,277,283.31,270.48,298.59,270.54Z"/><path class="cls-4" d="M299.77,275.76c6.26,2.7,22.35,6.55,21.35-10.75,1.29,4.56-.06,10.47-3.59,13.42-5.6,4.7-10.56,3.3-17.93-.38-2.34.14-11.44,1.74-18.26,3-.09-.33-11.43,2.16-11.43,1.91A169.73,169.73,0,0,1,299.77,275.76Z"/><path class="cls-4" d="M297.28,314.58c3.05,7.6,15.24,12.82,19.42,1.8-.56,4.94-3.68,9.67-10,9.06-6-.58-9.09-5-10.87-8.59-4.63-1.79-56.49-25.88-77.79-18.24,2-2.43,3.85-4.62,5.52-6.56C248.21,294.72,273.48,304.22,297.28,314.58Z"/><path class="cls-4" d="M305.68,294.14c6.05,8.52,18.13,10.27,21.22-1.86-.09,4.44-2.37,8.94-6.23,11-6.27,3.3-12.64-1.06-15.5-6.73-4-.93-30.4-3.7-39.85-4.47C275.32,291.07,295.39,292.1,305.68,294.14Z"/><path class="cls-5" d="M306.65,326c-4.75-.45-8.4-3.29-11.15-8.68L293,316.26c-37-15.89-62.2-21.65-74.86-17.11l-1.75.63,1.3-1.57C228,285.82,233,280.46,237.55,279.35,249,276.58,282.66,270,298.34,270c2.29-4,8.14-12.53,16-11.67,3.78.42,6.48,3.07,7.39,7.29,1.06,4.89-.61,10.49-4,13.3-5.57,4.67-10.53,3.58-18.27-.28-2.82.2-14.14,2.23-20.87,3.56a154.46,154.46,0,0,1,26.91,4.17c.59.14,1.12.27,1.39.32,3.65-4.57,11.16-8.55,16.85-3.34a11.83,11.83,0,0,1,3.5,10.06,13,13,0,0,1-6.44,10.37c-6.38,3.35-12.95-.94-16-6.74-5.05-1.09-25.24-2.74-33.1-3.36,15.61,7,26.39,11.09,27.87,11.65,6.4-3.73,13-2.36,16.2,3.37a14.19,14.19,0,0,1,.08,12.12,8.71,8.71,0,0,1-8.23,5.26A9.69,9.69,0,0,1,306.65,326Zm-6.75-19.59-.16.1-.18-.06c-.12-.05-12.66-4.74-31.05-13.07l-2.92-1.32,3.11.23c1.25.1,30.68,2.3,36.56,3.67l.2.05.1.21c2.78,5.5,8.95,9.65,14.93,6.51a11.91,11.91,0,0,0,5.89-9.47,10.61,10.61,0,0,0-3.13-9c-5.32-4.87-12.44-.93-15.79,3.42l-.1.13-.15,0c-.15,0-.28,0-1.83-.35a150.3,150.3,0,0,0-31.21-4.35l-4.26-.11,4.19-1c3.91-.94,22.06-4.31,25.48-4.51h.1l.09,0c7.66,3.82,12.22,4.86,17.5.44,3-2.55,4.55-7.63,3.58-12.08-.8-3.74-3.2-6.09-6.58-6.46-7.55-.82-13.22,7.72-15.3,11.43l-.14.24h-.25c-15.51-.06-49.35,6.58-60.85,9.36-4.13,1-9,6.11-18.17,17.09,13.31-3.59,38.11,2.34,73.76,17.65,1.27.55,2.18.94,2.63,1.11l.16.06.09.18c1.66,3.3,4.55,7.76,10.52,8.33a7.94,7.94,0,0,0,8.43-4.65,12.79,12.79,0,0,0-.06-10.92,9.22,9.22,0,0,0-8.28-5A13.52,13.52,0,0,0,299.9,306.41Z"/><path class="cls-3" d="M235.61,192.17c10-10.22,22.69-15.91,40.88-15.7,8.24.09,13.9.05,20.09-1s18-2.69,22.11,10.31c4.17,13.18-8.66,29-15.55,40.63s-13.35,26.15-25.1,38.31c-13.37,13.83-31,24-48.85,22C251.41,251.9,235.61,192.17,235.61,192.17Z"/><path class="cls-8" d="M296.55,198.72c-8.79,35.14-36.38,60-46.07,62.57-3.3-19-1-15-1-15C267.53,244.1,286.39,227.6,296.55,198.72Z"/><path class="cls-5" d="M229.14,287.31l-.83-.1.51-.81c11.39-17.85,12.51-42.45,11.45-59.94a195.88,195.88,0,0,0-5.1-34.12l-.1-.36.24-.24c10.79-11,23.89-16,41.19-15.83,8,.08,13.75.07,20-1,5.47-.9,18.28-3,22.61,10.67,3.53,11.15-4.82,24.18-11.53,34.64-1.47,2.3-2.86,4.46-4.08,6.51-1.6,2.72-3.17,5.56-4.82,8.56-5.29,9.6-11.29,20.49-20.35,29.85-14,14.46-30.09,22.44-44.88,22.39A41.39,41.39,0,0,1,229.14,287.31Zm67.5-111.25c-6.33,1-12.09,1.06-20.15,1h-.63c-16.64-.07-29.28,4.82-39.72,15.33a199.28,199.28,0,0,1,5.05,34c1.06,17.43,0,41.86-11.12,59.92,15.46,1.42,32.78-6.55,47.67-21.95,9-9.27,14.92-20.09,20.18-29.63,1.66-3,3.23-5.85,4.84-8.58,1.23-2.07,2.62-4.25,4.1-6.55,6.91-10.78,14.74-23,11.4-33.55-2.77-8.74-9.13-10.63-14.72-10.65A41,41,0,0,0,296.64,176.06Z"/><path class="cls-7" d="M237.27,266.08c12.39.05,20.9-7.35,30.74-17a96,96,0,0,0,11.46-13.74,123,123,0,0,0,9.12-15.57,80.64,80.64,0,0,0,7-20.1c-.07.28-7.9,28.61-28.15,48.53-9.68,9.54-18.06,16.83-30.14,16.79Z"/><path class="cls-3" d="M246.35,64.14c-1-3.13,7.09-18.49,1-37.45C241.6,8.86,226.27.36,211.27,5,199.51,8.66,187,23.07,185.18,25.41s-5.33,6.75-9,4.82c-7.29-3.8-13.68-4.23-22.23-.08-3.9,1.89-7.21-2.53-9-4.89s-14.15-17.39-26-20.6c-14.47-3.91-30.2,3.57-36,22.16C77,45.74,84.59,60.4,83.55,63.53S66.41,72.07,67.21,95.44s24.24,49.64,30.85,84.72c-4.39,4.37-16,28.71-9.93,54.74-3.48,71.33,120.57,124.28,152.76.57,6.18-26-5.28-50.41-9.64-54.81,6.78-35,30.36-61.12,31.28-84.48S247.37,67.27,246.35,64.14Z"/><path class="cls-9" d="M97.24,94.4c12.25,17,40.21,23.36,67.47,23.28,29.55-.09,58.37-7.89,67.78-22.76C203.13,119,126.06,119.24,97.24,94.4Z"/><path class="cls-5" d="M164.43,310.2a72.11,72.11,0,0,1-15.61-1.79A82.4,82.4,0,0,1,104.94,282C93,268.26,86.88,251.55,87.67,235c-5.79-25.09,4.67-49.44,9.87-55-3.31-17.29-10.82-32.63-17.44-46.18-6.95-14.2-12.95-26.47-13.35-38.32-.62-18.17,8.7-25.6,13.71-29.6,1.33-1.06,2.47-2,2.66-2.55.25-.73-.22-2.79-.76-5.16-1.53-6.72-4.1-18,.13-31.53,2.8-8.95,8-15.81,15-19.83A28.26,28.26,0,0,1,119,4.11c12.94,3.51,26.1,20.6,26.23,20.77l.07.09c1.82,2.39,4.86,6.38,8.41,4.65,8.26-4,14.8-4,22.6.09,3.48,1.82,6.87-2.57,8.5-4.68.12-.17,13.4-16.56,26.32-20.56,15.55-4.82,31,4.44,36.61,22,4.39,13.64,1.56,25.27-.14,32.22-.58,2.41-1.09,4.49-.85,5.22s1.32,1.5,2.65,2.57c5,4,14.27,11.54,13.56,29.7-.47,11.85-6.53,24.07-13.55,38.22-6.69,13.49-14.28,28.78-17.68,46,5.18,5.62,15.54,30.09,9.57,55.17-7.68,29.54-20.87,50.8-39.2,63.18A66.45,66.45,0,0,1,164.43,310.2Zm-53.09-306c-12.57,0-23.52,8.56-28,22.84-4.13,13.21-1.61,24.24-.11,30.83.66,2.89,1.09,4.79.73,5.89-.3.9-1.38,1.76-3,3.06-4.86,3.88-13.9,11.09-13.3,28.62C68.07,107,74,119.13,80.89,133.2c6.71,13.71,14.3,29.24,17.62,46.84l.06.34-.22.22c-3.7,3.67-16,27.48-9.77,54.14l0,.09v.1c-1.6,32.61,24.93,64.4,60.39,72.38,33.21,7.46,74.68-7.53,91.46-72,6.32-26.6-5.82-50.5-9.5-54.2l-.22-.22.07-.34c3.4-17.57,11.08-33,17.85-46.71,6.95-14,13-26.12,13.41-37.68.69-17.53-8.31-24.8-13.15-28.71-1.62-1.32-2.7-2.19-3-3.09h0c-.36-1.09.11-3,.83-6,1.66-6.81,4.43-18.21.16-31.49-5.49-17-20.43-26-35.52-21.34-12.67,3.92-25.75,20.08-25.88,20.24-1.63,2.12-5.46,7.07-9.54,4.95-7.54-3.94-13.88-4-21.88-.08-4.15,2-7.59-2.51-9.44-4.93l-.07-.1c-.13-.17-13.09-17-25.75-20.43A29.3,29.3,0,0,0,111.34,4.18Z"/><path class="cls-10" d="M232.49,94.92c-14.85,20.28-52.58,25.15-60.55,24.49-3.22-.26-5.46-.47-7-.63v0h-.25v0c-1.54.15-3.79.34-7,.58-8,.59-45.68-4.56-60.44-25a15.58,15.58,0,0,1-8.75,1.4c-.8,10.93,1.72,30.5,11,44.93s25.76,38.92,26.89,57.69c1.5,25-13.68,45.75-15.62,66-.82,8.55.52,15.2,2.42,22.51,25.94,38.07,75.25,40,100.53,1.5,1.94-7.29,5.28-15.05,4.5-23.6-1.84-20.25-16.71-44.09-15.28-66.1,1.22-18.76,17.88-43.12,27.18-57.48S242,107.31,241.24,96.38A15.74,15.74,0,0,1,232.49,94.92Z"/><path class="cls-11" d="M114.09,120c21.44,64.18,77.88,71.36,103.44-2.1C187.59,129.89,114.09,120,114.09,120Z"/><path class="cls-12" d="M164.67,317c-20.19-.07-39.07-10.85-51.89-29.68l-.06-.09,0-.1c-1.78-6.84-3.3-13.73-2.44-22.74.82-8.53,3.92-17,7.21-26,4.56-12.5,9.27-25.42,8.4-39.85-1-17.37-15.39-39.67-24.88-54.42l-1.9-3c-8.86-13.85-11.94-33.21-11-45.33l0-.6.49.09a15.35,15.35,0,0,0,8.52-1.36l.3-.14.21.29c14.84,20.52,53,25.3,60.06,24.77,2.57-.2,4.78-.38,6.57-.54v-.09l.59,0,.59-.06v.11c1.79.18,4,.38,6.57.59,7.05.59,45.24-3.9,60.18-24.31l.21-.29.31.14a15.31,15.31,0,0,0,8.51,1.43l.49-.09,0,.6c.82,12.13-2.36,31.46-11.29,45.24l-1.93,3c-9.57,14.67-24,36.85-25.15,54.2-.8,12.42,3.67,25.52,8,38.18,3.34,9.79,6.49,19,7.29,27.81.61,6.78-1.26,12.94-3.08,18.9-.52,1.71-1,3.32-1.44,4.94l0,.1-.06.08c-11.62,17.7-29.3,28-48.5,28.19Zm-51.12-30.32c12.82,18.78,31.77,29.41,52,29.2,18.9-.21,36.29-10.3,47.74-27.69.43-1.61.91-3.2,1.43-4.89,1.77-5.84,3.61-11.87,3-18.38-.78-8.62-3.91-17.79-7.23-27.51-4.36-12.78-8.87-26-8.05-38.69,1.15-17.7,15.71-40,25.34-54.82.68-1,1.32-2,1.94-3C238.33,127.55,241.49,109,240.82,97a16.37,16.37,0,0,1-8.2-1.42c-8.08,10.81-22.31,16.83-32.87,20-12.13,3.63-23.59,4.76-27.85,4.41-2.78-.23-5.14-.44-7-.63h-.18c-1.87.18-4.23.37-7,.58-4.26.32-15.71-.91-27.82-4.62-10.55-3.23-24.75-9.36-32.78-20.23a16.2,16.2,0,0,1-8.2,1.35c-.73,12,2.33,30.58,10.9,44l1.9,3c9.56,14.87,24,37.33,25.08,55,.88,14.71-3.88,27.76-8.49,40.39-3.25,8.92-6.33,17.34-7.13,25.69C110.33,273.22,111.81,280,113.55,286.63Z"/><path class="cls-13" d="M164.94,117.21v0h-.25v0c-13.58,1-45.69-3.53-58.54-13.49,0,0,14.29,30.05,25.63,42.46,9.69,10.59,18,19.69,32.91,19.21s23.26-8.44,33-19c11.4-12.32,25.85-42.25,25.85-42.25C210.64,114,178.51,118.29,164.94,117.21Z"/><path class="cls-14" d="M138.56,154c7,6.88,14.45,11.78,25.53,11.42,9.89-.32,16.88-3.91,23.3-9.35C172.75,140.31,151.57,143.53,138.56,154Z"/><path class="cls-15" d="M162.84,166c-11.2,0-18.42-5.56-24.57-11.56l-.49-.49.53-.42c13.49-10.82,34.79-13.56,49.39,2.12l.44.47-.48.41c-7.38,6.25-14.64,9.17-23.56,9.46Zm-23.49-12c6.13,5.9,13.42,11.18,24.73,10.81,8.53-.28,15.51-3,22.56-8.84C172.59,141.4,152.43,143.89,139.35,154Z"/><path class="cls-12" d="M169.25,116.9c-1.43,0-2.74-.09-3.92-.13h-1c-1.18,0-2.5.1-3.93.1-14.8-.06-42.21-4.4-54-13.54l-1.33-1,.79,1.66c.14.3,14.46,30.25,25.71,42.56l.08.08c9.42,10.32,17.56,19.22,31.82,19.27.42,0,.85,0,1.28,0,14.92-.48,23.2-8.21,33.25-19.07,11.32-12.23,25.78-42.08,25.93-42.38l.8-1.65-1.34,1C211.48,112.82,184.06,117,169.25,116.9Zm28.19,29.17c-9.93,10.74-18.1,18.37-32.76,18.85s-23-8.53-32.57-19l-.07-.08c-9.68-10.59-21.67-34.4-24.79-40.76,12.55,8.6,38.75,12.68,53.12,12.74,1.59,0,3-.09,4.34-.13h.2c1.29,0,2.75.16,4.34.16,14.37.06,40.6-3.84,53.19-12.33C219.28,111.84,207.17,135.56,197.44,146.07Z"/><path class="cls-7" d="M97.1,94a15.44,15.44,0,0,1-10.57,1,5.63,5.63,0,0,0,4,1.48,15.25,15.25,0,0,0,6.89-1.57,16.71,16.71,0,0,0,2.67-1.62,4.45,4.45,0,0,0,2.06-3.53S101.21,91.93,97.1,94Z"/><path class="cls-3" d="M116.49,198.84s-18.2.92-27.38,20.61c-8.53,18.28-5,56,11.41,84C92,305.51,77.39,313,77.39,313,73,310,65.5,311.43,63.07,316.79c-2,4.53-.75,11.4,5.07,13.64,5.1,1.95,10.82-2.17,11.1-12.72,5.41-1,24.48-6.47,24.48-6.47-7.75,7.87-18.2,19.88-18.2,19.88A14.07,14.07,0,0,0,71.19,344.6c-.32,9.33,8.15,15.92,15.43,9.6,6.66-5.78,4.63-16.31,4.24-17.25,2.84-3.67,17.35-20.61,17.35-20.61a168.56,168.56,0,0,0-5,25.56c-6.76,3-9.38,7.91-9.1,14.36.44,9.85,10.42,12.13,15.62,5.07,3.75-5.09,2.91-12.88.19-18.2,3.71-15.48,4.74-22.46,6.93-23.24s18.13,5.47,19.48,6.57c2.42,6.16,6.6,11,13,10.51,7.27-.54,10.2-11.22,4.28-17.25-4.1-4.18-10.87-2.7-13-1.38-5.14-2.37-19.15-10.64-19.4-13.14s4.4-42.57-7.47-65.13c9.17-8.68,8-27.92,8-27.92Z"/><path class="cls-4" d="M64.25,326.7c6.44,9.31,14.71,1.56,15-9,4.12-.75,16.15-4.11,21.66-5.67a21,21,0,0,0,4.61-1.9c-5.51.91-18.65,4.23-27.53,6.16C76.36,329.27,67.7,329.16,64.25,326.7Z"/><path class="cls-4" d="M105.46,319.56c1.13-1.61,2.83-2.83,3.76-5.19-2.55,1.69-16.7,16.58-20.7,21.14,2.1,14.69-7,21.68-14.31,17.34.6,2.54,6.33,6.66,12.41,1.35,6.64-5.8,4.63-16.31,4.24-17.25C92.92,334.29,101.11,324.66,105.46,319.56Z"/><path class="cls-4" d="M156.38,328.93c-2.59,5.43-13.13,8.11-18.8-4.76-8.84-3.85-19.09-8.07-21.89-6.63-3.19,1.64-4.77,12.91-7.58,25.48,3.94,14.18-1.14,21.62-9,21.13,3.13,1.85,6.74,2.46,10.63-2.82,3.75-5.09,2.91-12.88.19-18.2,2.55-10.62,3.68-20,7-23.34,4.46.55,18.24,5.69,19.44,6.67,2.42,6.16,6.6,11,13,10.51,4.23-.31,7-4.07,7.39-8.35Z"/><path class="cls-4" d="M121.81,212.15c-.75,10.33-5.35,19.4-11.4,22.7a32.54,32.54,0,0,1,3.42,5.22C117.29,236,122.92,228.54,121.81,212.15Z"/><path class="cls-7" d="M102.27,366a7.76,7.76,0,0,1-3.12-.65c-3.23-1.37-5.27-4.76-5.46-9.06-.31-7,2.68-11.81,9.14-14.79a171.86,171.86,0,0,1,4.38-23.22c-3.54,4.15-13.19,15.47-15.81,18.8.61,2.31,1.85,12.06-4.52,17.58-3.44,3-7.53,3.42-10.95,1.17s-5.36-6.54-5.2-11.25a14.5,14.5,0,0,1,14.6-14c1.16-1.33,9.64-11,16.61-18.24-4.81,1.37-17.55,4.95-22.25,5.88-.22,5.14-1.77,9.2-4.39,11.45A7,7,0,0,1,68,331a9.59,9.59,0,0,1-5.72-6.11,11.76,11.76,0,0,1,.39-8.33,9.51,9.51,0,0,1,5.72-5,10.57,10.57,0,0,1,9,.91c1.76-.89,14.37-7.2,22.31-9.31A122.22,122.22,0,0,1,85,257.89c-1.9-15.48-.54-29.59,3.71-38.71a39.11,39.11,0,0,1,8.54-12,35.84,35.84,0,0,1,6.46-4.88,23.07,23.07,0,0,1,12.79-3.45c-.18,0-18,1.7-27,20.89-4.16,8.91-5.47,22.76-3.6,38a120.27,120.27,0,0,0,15,45.39l.42.71-.7.17c-8.34,2-22.9,9.46-23,9.53l-.21.11-.2-.14a9.71,9.71,0,0,0-8.52-.94,8.56,8.56,0,0,0-5.16,4.5,10.41,10.41,0,0,0-.34,7.38,8.6,8.6,0,0,0,5.14,5.45,6.26,6.26,0,0,0,6.49-1.16c2.45-2.11,3.87-6,4-11v-.47l.38-.07c5.33-1,24.25-6.42,24.44-6.47l1.9-.55-1.5,1.53c-7.64,7.77-18.07,19.74-18.18,19.86l-.13.15h-.18c-7.65.05-13.61,5.61-13.86,12.94-.15,4.29,1.65,8.2,4.71,10.22s6.83,1.63,10-1.09c6.27-5.44,4.5-15.57,4.1-16.55l-.14-.35.22-.29c2.81-3.63,17.21-20.46,17.36-20.63l1.33-1.56-.57,2.14A170.86,170.86,0,0,0,103.71,342l0,.34-.27.12c-6.21,2.78-9.08,7.29-8.79,13.8.17,3.89,1.93,6.82,4.83,8.06,3.42,1.46,7.43.12,10-3.33,3.69-5,2.67-12.61.15-17.53l-.11-.22.06-.24c.82-3.43,1.51-6.42,2.11-9.06,2.25-9.81,3.18-13.87,5.13-14.56,2.51-.89,18.71,5.69,19.87,6.64l.1.09.06.14c1.93,4.93,5.69,10.7,12.6,10.19,3.15-.23,5.69-2.55,6.64-6.06a10.61,10.61,0,0,0-2.63-10.2c-3.94-4-10.44-2.58-12.49-1.31l-.18.11-.19-.09c-3.67-1.68-19.38-10.43-19.7-13.59,0-.41,0-1.37.14-3.51.62-10.47,2.49-42.33-7.54-61.38l-.23-.44.34-.31c8.87-8.4,8.26-27.29,8.26-27.48a44.71,44.71,0,0,1-1,16.17c-1.22,4.35-3.19,8.72-6.36,11.88,10,19.41,8.08,51.15,7.46,61.64-.09,1.66-.17,3-.14,3.29.19,1.86,12.53,9.61,18.92,12.6,2.4-1.34,9.16-2.68,13.32,1.56a11.89,11.89,0,0,1,2.91,11.42c-1.07,4-3.93,6.56-7.46,6.82-7.36.54-11.36-5.47-13.44-10.68-2-1.42-17.11-7.08-19-6.42-1.46.52-2.54,5.23-4.5,13.78-.59,2.58-1.26,5.5-2.06,8.84,2.62,5.27,3.61,13.28-.35,18.66A9.87,9.87,0,0,1,102.27,366Z"/><path class="cls-3" d="M220.22,199.23s18.19,1.06,27.27,20.82c8.44,18.34,4.75,56-11.84,83.91,8.47,2.12,23.08,9.74,23.08,9.74,4.45-3,11.9-1.5,14.3,3.89,2,4.54.7,11.4-5.14,13.59-5.11,1.92-10.8-2.24-11-12.79-5.41-1-24.44-6.67-24.44-6.67,7.7,7.93,18.09,20,18.09,20a14.12,14.12,0,0,1,14.26,13.59c.28,9.33-8.23,15.86-15.47,9.49-6.64-5.83-4.55-16.35-4.16-17.29-2.82-3.69-17.24-20.74-17.24-20.74a168.61,168.61,0,0,1,4.82,25.6c6.75,3.08,9.35,8,9,14.43-.49,9.84-10.48,12.05-15.64,4.95-3.72-5.12-2.85-12.9-.1-18.2-3.63-15.51-4.62-22.5-6.81-23.29s-18.16,5.33-19.52,6.42c-2.44,6.14-6.65,10.93-13.1,10.41-7.26-.59-10.14-11.3-4.19-17.28,4.12-4.15,10.88-2.62,13-1.29,5.16-2.32,19.21-10.49,19.47-13s-4.18-42.6,7.81-65.07c-9.13-8.75-7.84-28-7.84-28Z"/><path class="cls-4" d="M271.81,327.49c-6.49,9.26-14.72,1.45-14.95-9.1-4.12-.79-16.13-4.24-21.63-5.85a20.16,20.16,0,0,1-4.61-1.93c5.51.95,18.64,4.38,27.5,6.36C259.68,330,268.34,329.92,271.81,327.49Z"/><path class="cls-4" d="M230.63,320c-1.12-1.62-2.82-2.85-3.74-5.21,2.54,1.7,16.62,16.7,20.6,21.29-2.18,14.67,6.84,21.73,14.22,17.45-.61,2.54-6.36,6.61-12.41,1.26-6.62-5.86-4.55-16.35-4.16-17.29C243.09,334.86,235,325.16,230.63,320Z"/><path class="cls-4" d="M179.66,329c2.56,5.44,13.09,8.21,18.83-4.62,8.86-3.79,19.13-7.92,21.92-6.47,3.19,1.67,4.71,12.95,7.45,25.55-4,14.14,1,21.62,8.86,21.19-3.14,1.83-6.75,2.41-10.61-2.9-3.72-5.12-2.85-12.9-.1-18.2-2.49-10.64-3.58-20-6.85-23.4-4.46.52-18.27,5.56-19.48,6.53-2.44,6.14-6.65,10.93-13.1,10.41-4.23-.35-7-4.13-7.35-8.41C179.37,328.81,179.51,328.92,179.66,329Z"/><path class="cls-4" d="M214.83,212.5c.7,10.33,5.25,19.44,11.28,22.78a32.81,32.81,0,0,0-3.44,5.2C219.23,236.42,213.64,228.88,214.83,212.5Z"/><path class="cls-7" d="M233.58,366.5a8,8,0,0,0,3.13-.63c3.23-1.35,5.29-4.72,5.5-9,.34-7-2.62-11.83-9.06-14.86a174.34,174.34,0,0,0-4.27-23.25c3.53,4.18,13.11,15.57,15.72,18.92-.62,2.3-1.91,12,4.43,17.61,3.42,3,7.51,3.48,10.94,1.25s5.4-6.49,5.26-11.21a14.54,14.54,0,0,0-14.53-14.13c-1.15-1.33-9.58-11.08-16.52-18.36,4.81,1.4,17.53,5.08,22.23,6.05.19,5.14,1.72,9.21,4.32,11.48a7.08,7.08,0,0,0,7.3,1.37,9.57,9.57,0,0,0,5.75-6.07,11.76,11.76,0,0,0-.34-8.33,9.58,9.58,0,0,0-5.7-5.09,10.57,10.57,0,0,0-9,.84c-1.76-.9-14.34-7.31-22.27-9.48a121.71,121.71,0,0,0,15-45.07c2-15.47.7-29.59-3.51-38.74a39.32,39.32,0,0,0-8.47-12.07,36.71,36.71,0,0,0-6.44-4.94,23.17,23.17,0,0,0-12.77-3.54c.18,0,18,1.83,26.87,21.1,4.11,8.94,5.35,22.79,3.41,38a120.18,120.18,0,0,1-15.22,45.28l-.42.71.7.17c8.33,2.08,22.85,9.63,23,9.7l.21.11.2-.13a9.68,9.68,0,0,1,8.52-.88,8.63,8.63,0,0,1,5.15,4.54,10.46,10.46,0,0,1,.3,7.38,8.56,8.56,0,0,1-5.17,5.41,6.27,6.27,0,0,1-6.49-1.21c-2.44-2.13-3.84-6.05-3.95-11.06v-.47l-.38-.07c-5.33-1-24.21-6.6-24.4-6.66l-1.91-.56,1.5,1.54c7.6,7.83,18,19.88,18.07,20l.14.15h.18c7.64.11,13.58,5.72,13.79,13.05.13,4.29-1.69,8.19-4.76,10.18s-6.84,1.58-10-1.17c-6.25-5.49-4.42-15.6-4-16.57l.15-.35-.22-.29c-2.8-3.66-17.12-20.59-17.26-20.76l-1.33-1.57.57,2.14a171.17,171.17,0,0,1,4.8,25.49l0,.35.27.12c6.19,2.82,9.05,7.36,8.73,13.86-.2,3.89-2,6.81-4.88,8-3.43,1.43-7.43.06-9.95-3.41-3.67-5-2.6-12.62-.06-17.53l.11-.21-.06-.25c-.8-3.43-1.47-6.43-2.06-9.08-2.2-9.82-3.11-13.89-5.06-14.59-2.51-.91-18.73,5.55-19.9,6.49l-.11.08,0,.14c-2,4.92-5.75,10.66-12.66,10.1-3.14-.26-5.67-2.6-6.61-6.1a10.65,10.65,0,0,1,2.68-10.19c4-4,10.46-2.5,12.5-1.22l.18.12.19-.09c3.68-1.66,19.44-10.28,19.77-13.45,0-.4,0-1.37-.12-3.51-.56-10.47-2.28-42.34,7.85-61.32l.23-.43L223,240c-8.83-8.46-8.13-27.35-8.12-27.54a44.51,44.51,0,0,0,.93,16.18c1.2,4.36,3.14,8.74,6.29,11.92-10,19.34-8.34,51.1-7.77,61.58.09,1.67.16,3,.12,3.3-.19,1.86-12.57,9.52-19,12.45-2.39-1.35-9.14-2.74-13.33,1.46a11.9,11.9,0,0,0-3,11.4c1,4,3.9,6.59,7.43,6.88,7.36.6,11.39-5.38,13.49-10.58,2-1.4,17.15-6.94,19-6.27,1.45.52,2.51,5.24,4.42,13.81.58,2.59,1.23,5.51,2,8.85-2.64,5.26-3.67,13.26.25,18.66A9.9,9.9,0,0,0,233.58,366.5Z"/><path class="cls-7" d="M104.64,227.84c.06.08,5.94,8.16,7.2,11.12l.69-.43A33.49,33.49,0,0,0,104.64,227.84Z"/><path class="cls-12" d="M163.51,179.52c-9.47,0-16.73-6.68-16.8-6.75a21.15,21.15,0,0,0,16.78,8.06c11.19,0,15.62-5.44,15.62-5.44s-5.2,4.17-15.57,4.13Z"/><path class="cls-16" d="M170.15,88.1c-1.64.58-2.29,3.92-1.45,7.46s2.85,6,4.49,5.38,2.29-3.92,1.45-7.46S171.79,87.53,170.15,88.1Z"/><path class="cls-7" d="M170.66,87.45a2,2,0,0,0-.64.11c-1,.34-1.66,1.41-2,3a12.54,12.54,0,0,0,.21,5.13c.81,3.39,2.67,5.86,4.43,5.86a1.75,1.75,0,0,0,.64-.1c1-.34,1.66-1.41,2-3a12.54,12.54,0,0,0-.21-5.13C174.29,89.93,172.42,87.46,170.66,87.45Zm3.74,10.74c-.24,1.2-.71,2-1.34,2.2a.94.94,0,0,1-.37.07c-1.34,0-2.87-2.18-3.55-5.06a11.12,11.12,0,0,1-.19-4.55c.23-1.2.7-2,1.33-2.2a1,1,0,0,1,.37-.07c1.34,0,2.87,2.18,3.55,5A11.36,11.36,0,0,1,174.4,98.19Z"/><path class="cls-17" d="M155.12,88.05c-1.64-.59-3.66,1.8-4.52,5.34s-.22,6.88,1.42,7.47,3.66-1.81,4.52-5.35S156.76,88.63,155.12,88.05Z"/><path class="cls-7" d="M155.25,87.51a1.68,1.68,0,0,0-.63-.12c-1.76,0-3.64,2.45-4.46,5.84a12.52,12.52,0,0,0-.24,5.12c.31,1.62,1,2.7,2,3.05a1.94,1.94,0,0,0,.63.11c1.77,0,3.64-2.45,4.46-5.84a12.52,12.52,0,0,0,.24-5.12C156.91,88.93,156.22,87.85,155.25,87.51Zm.84,7.85c-.69,2.86-2.23,5-3.56,5a1,1,0,0,1-.38-.07c-.62-.22-1.09-1-1.32-2.21a11.16,11.16,0,0,1,.22-4.55c.69-2.87,2.23-5,3.57-5a1.16,1.16,0,0,1,.37.07c.63.22,1.1,1,1.33,2.21A11.22,11.22,0,0,1,156.09,95.36Z"/><path class="cls-7" d="M232.64,94.48c-4.1-2.07-5-4.29-5-4.32a3.72,3.72,0,0,0,1.51,3.13,16.19,16.19,0,0,0,3.19,2.06A15.44,15.44,0,0,0,239.23,97a6.3,6.3,0,0,0,4-1.45A15.32,15.32,0,0,1,232.64,94.48Z"/><path class="cls-18" d="M84.23,86.14C83,86.14,82,87.64,82,89.49s1,3.37,2.22,3.37,2.22-1.49,2.23-3.35S85.46,86.15,84.23,86.14Z"/><path class="cls-18" d="M75.4,79.58c-1.92,0-3.48,3-3.49,6.61s1.54,6.63,3.46,6.64,3.48-3,3.49-6.61S77.32,79.58,75.4,79.58Z"/><path class="cls-18" d="M72.66,99.46c-1.42.74-1.68,3.88-.57,7s3.15,5.07,4.57,4.33,1.68-3.88.57-7S74.08,98.72,72.66,99.46Z"/><path class="cls-18" d="M245.55,86.75c-1.23,0-2.23,1.5-2.23,3.35s1,3.37,2.21,3.37,2.22-1.5,2.23-3.35S246.77,86.75,245.55,86.75Z"/><path class="cls-18" d="M254.41,80.25c-1.92,0-3.48,3-3.49,6.62s1.54,6.63,3.46,6.63,3.48-3,3.49-6.61S256.33,80.26,254.41,80.25Z"/><path class="cls-18" d="M257.05,100.16c-1.41-.75-3.47,1.17-4.59,4.29s-.88,6.26.53,7,3.48-1.16,4.6-4.29S258.47,100.91,257.05,100.16Z"/><path class="cls-18" d="M298.31,187.87c-1.49,0-2.71,1.49-2.72,3.35s1.21,3.36,2.71,3.37,2.71-1.5,2.72-3.35S299.81,187.87,298.31,187.87Z"/><path class="cls-18" d="M309.13,181.38c-2.34,0-4.25,3-4.26,6.61s1.89,6.63,4.23,6.64,4.25-2.95,4.26-6.61S311.48,181.39,309.13,181.38Z"/><path class="cls-18" d="M312.37,201.28c-1.73-.75-4.24,1.17-5.61,4.29s-1.07,6.26.66,7,4.24-1.17,5.61-4.29S314.1,202,312.37,201.28Z"/><path class="cls-18" d="M38.63,184.45a3.38,3.38,0,1,1-3,3.35A3.21,3.21,0,0,1,38.63,184.45Z"/><path class="cls-18" d="M26.64,177.87c2.61,0,4.71,3,4.7,6.65s-2.13,6.62-4.73,6.61-4.71-3-4.7-6.65S24,177.86,26.64,177.87Z"/><path class="cls-18" d="M22.94,197.76c1.93-.74,4.71,1.2,6.21,4.33s1.16,6.27-.77,7-4.7-1.2-6.21-4.33S21,198.5,22.94,197.76Z"/><path class="cls-19" d="M119.86,111c.26.5,41.65,15.41,91.28.09C208.66,110.79,165,148.82,119.86,111Z"/></g></g></svg>