<svg id="Layer_1" data-name="Layer 1" xmlns="http://www.w3.org/2000/svg" viewBox="0 0 745 485"><defs><style>.cls-1{opacity:0.3;}.cls-10,.cls-2,.cls-20,.cls-4,.cls-5{fill:#ff8a00;}.cls-2,.cls-20,.cls-22,.cls-3,.cls-4,.cls-5{stroke:#5b1b02;}.cls-14,.cls-2,.cls-20,.cls-22,.cls-3,.cls-4,.cls-5{stroke-miterlimit:10;}.cls-2{stroke-width:0.71px;}.cls-3{fill:#c66c0a;}.cls-22,.cls-3,.cls-4{stroke-width:0.75px;}.cls-5{stroke-width:0.48px;}.cls-6{fill:#ff7a75;}.cls-7{fill:#ba6304;}.cls-8{fill:#6d1f0d;}.cls-9{fill:#590e0e;}.cls-11,.cls-15{fill:#ffde8c;}.cls-12{fill:#fbffff;}.cls-13{fill:#130d14;}.cls-14{fill:#6b0a0a;stroke:#2d0901;stroke-width:0.5px;}.cls-15{opacity:0.76;}.cls-16{fill:#091204;}.cls-17{fill:#b70f0f;}.cls-18{fill:#60110e;}.cls-19{fill:#f5a954;}.cls-20{stroke-width:0.51px;}.cls-21{fill:#ddb966;}.cls-22{fill:none;}.cls-23{fill:#471201;}.cls-24{fill:#160b0c;}</style></defs><ellipse class="cls-1" cx="342.47" cy="448.35" rx="242.77" ry="34.72"/><path class="cls-2" d="M390.51,321.52S435,267.08,508,282.66s72.2,68,157,71.61l-1.9,7s-55.46,12.39-97.87-33.86c-31.13-33.95-110.56-52.67-161,12.43l-10.24,1.88-9.24-14.31Z"/><path class="cls-3" d="M334.89,353.54s10,40.74,52.83,50.75c0,0,21.75,5.18,27.62,9.67v6.91a119.77,119.77,0,0,0-12.51,3.32c-6.77,2.2-28.56,1.1-30.94,21.06,0,0-1.47,14.47,15.74,13.92,0,0,5.86,4.58,17.58-1.1,0,0,15,5.86,31.14-11.17s16.29-30.22,16.29-30.22,1.1-5.86-7.14-10.62-14.1-30.22-7-42.12-3.81-23.18-3.81-23.18l-48.19-9-33.83,4.61Z"/><path class="cls-3" d="M207.06,344.19l5,98.42s.34,13-14.69,16.06-22.9,2.24-22.9,2.24-1.74,1.22-9.05,0c0,0-9.6,3-13.26-5.94,0,0-5-16.46,8.38-22.1s15.39-5.79,14.94-15.85-23.62-62.48-25-92.65Z"/><path class="cls-4" d="M124.26,274.51s-1.57,43.88,44.56,68.66S306,362,306,362s86-11.05,98.81-7.76c0,0,23.59,10.15,50.15,13.73s52,14.92,60.9,31c0,0,6.27,15.23,0,30.75,0,0-17.25,23.68,2.79,30.15h5a2.5,2.5,0,0,1,1,.22,23.87,23.87,0,0,0,22.23-2s17.91,4.48,22.39-10.74-10.15-42.1-10.15-42.1L540,359.59s1.49-11.34-14-15.22-38.21-6.27-48.06-26-8.27-33.39-37.61-49.85C416.16,255,355.85,242.2,355.85,242.2s-70.68-26.66-93.55-60.47C262.3,181.73,123.75,249.79,124.26,274.51Z"/><path class="cls-5" d="M44.59,101S58.84,89.38,65.05,78.72c0,0,1.93-17.72-13.59-23.06-12.07-4.16-24.2,8.13-23.61,18.4C27.85,74.06,29,97.65,44.59,101Z"/><path class="cls-6" d="M41.66,64.74s12.15-5,20.42,17.68c0,0-7.36,6.82-15.78,8C46.3,90.4,29.51,72.06,41.66,64.74Z"/><path class="cls-7" d="M40.73,65.22s12.85-2.83,17.55,17.12a15.22,15.22,0,0,0,2.77-2.19,96.62,96.62,0,0,0-5-9.85C54.47,67.76,48.39,59.91,40.73,65.22Z"/><path class="cls-7" d="M29.9,67.25a52.6,52.6,0,0,0,5.22,22.56l-2.21,1.31a44,44,0,0,1-3.28-8.93S26.41,71.65,29.9,67.25Z"/><path class="cls-8" d="M155.35,30.65S162.16,3.93,198.5,9.22c0,0,17.31,4.11,28.1,25,0,0,8.51,13.21,24.69,7.93,0,0-2.83,7.34-15,7,0,0,16.75,12,18.45,29.49s9.72,60.56,18.56,82.53S284.06,244.73,234,267c0,0-7.09,14.08-22,17.66,0,0-44.17,9.66-56.69,30.15,0,0-2.29-9.38,3.45-14.32,0,0-7.62,5.93-24.32,7.65s-32.77,18.77-29.76,35.31c0,0-8.56-15.72-18.21-20.18s-22.2-33.22-21.81-50.86,3.53,16.81-9,20.06c0,0,2.35-28-5.87-35.27s-23.91-11.84-22.73-41c0,0,0,13.26-7.44,16.79,0,0,3.91-15.43-3.14-29.06S-1.9,170.62,3.58,152.5a195.61,195.61,0,0,1,13.71-33.12s-9.4.79-11.75,0c0,0,12.93-6,20.77-16S44.72,63.05,51,51.7,68.91,24.14,89.14,15.63c0,0-8.91-3.24-10.37-10.13,0,0,15,6.08,26,0S142.55-2.56,155.35,30.65Z"/><path class="cls-9" d="M142.64,57.93s-30.47-31.35-54.85-2.62-13.06,49.63-40.92,67.92c0,0,7.83.87,16.1-5.23,0,0-28.29,16.11-7.83,74,0,0,6.09-11.32,6.09-20.46A26,26,0,0,0,72.12,192c11.32,8.27,10,27.43,7.4,34,0,0,6.09-2.18,8.27-10.89L135.24,226l26.12-2.18s-9.58,17-6.09,27.43c0,0,9.57-17.85,18.28-20.46s21.77-10.89,21.77-10.89-4.36,20.9-10.89,26.56c0,0,27.43-15.67,32.22-41.36l4.79-25.68h0s3.48,4.78,3,10,4.36-19.16-3.91-30.91-6.1-25.25-6.1-25.25,5.66,23.07,17.85,27.86l-2.61-7.4s15.67,17.85,27.43,20c0,0,1.3-6.1-9.15-14.8s-23.07-19.59-24.38-36.14c0,0-2.61,11.76,3,20.9,0,0-14.8-15.67-14.8-34s4.35-44-13.5-58.77-35.26,3.48-35.26,3.48,1.31-5.66,6.1-7.83l-5.66.43s4.22-6.1,7.51-9.86c0,0-8.71,5.93-12.63,14.2,0,0,7.85-9.43,1.76-14.65,0,0-2.23,7.8-4.85,11.72l-2.59-13.29s2,11.53-2.59,12.84c0,0-5.25-12-8.73-14.56,0,0,5.57,5.33,4.27,18a33.34,33.34,0,0,1-4.79-8.27S139.59,51,142.64,57.93Z"/><path class="cls-10" d="M82.6,118.22s-3.64-54.86,49.45-59a19.9,19.9,0,0,1,10.32,2.23c2.34,1.37,6.25,4.82,10,5.13,7.84.64,17.18-1.13,17.18-1.13s28.66-4.7,36.24,32.29c5.48,26.75-9.05,53.62-9.05,53.62s29.9,37-19,63.07c0,0-27.19,6.88-33.54,23.26l-46.79-7.23-6.26-19.26s2.15-11.08-8.56-18.78S56,162.11,62.74,143.81,82.6,118.22,82.6,118.22Z"/><path class="cls-11" d="M94.91,201.34s-1.49,15.35,11.38,17.33,23.77,2,33.18-10.89,20.79-32.68,20.79-32.68-10.89,27.73-11.38,46.54-10.9,31.2-37.14,30.7c0,0-21.09-1.33-26.54-17.17a33.78,33.78,0,0,1,3.53-22.51S94.21,204.55,94.91,201.34Z"/><path class="cls-12" d="M99.7,191.37s8.34,6.22,28.45,3.66S146.85,182,146.85,182H111.08l-12.79,1Z"/><path class="cls-13" d="M94.52,191.37l1.59,14.47,6.57,9.7h18.16l13.7-2.94,8.86-11.25s13.45-20.95,15.1-25.22l-6.38-1-33.89,1S91.4,179.25,94.52,191.37Z"/><path class="cls-11" d="M92.16,153s-15.77,6.75-9.82,22.12,23.5,13.58,27.07,8.52v-6.24s-1.78,12.49,8.33,13.68,24.1-.39,40.76-16c0,0-5.72-13.19-25-11.11l-27.34-3Z"/><path class="cls-14" d="M95.52,146.37s11.3,12.3,41.55,9c0,0,3.23,8.55-13.35,15,0,0-5.59,3.62-8.68,5.67-7.5,5-11.19-1-11.19-1s-3-7.35-5.37-9.38S89.18,152.38,95.52,146.37Z"/><path class="cls-15" d="M152,149s-22.13-26.27,8.23-50.35c0,0,14.91-5.17,17.05,9,5.46,36-7.67,33.6-11.8,39.79Z"/><path class="cls-16" d="M160.26,98.69s13-2.44,17.89,15.5c0,0,4.08-16.31-6.52-22.43S160.26,98.69,160.26,98.69Z"/><path class="cls-15" d="M84.6,120.38A50.38,50.38,0,0,1,96.9,88.11c12.94-14.59,22.85.39,22.85.39s.57,34.82-12.32,40.76Z"/><path class="cls-11" d="M167.34,299.77s1.5,22.86,92.26,32,128.5,9.12,128.5,9.12l16.71,13.31s-18.21-1.1-46.24,1.86-64.76,7.64-78.27,6.53-62.19-1.77-79.18-7.89c0,0-37.64-7.38-61.14-34.44,0,0-6.13-5.24-8.75-16l15.65-1.55Z"/><path class="cls-16" d="M119.75,88.5s2.77-6.93,0-11.83-20.3,0-23.56,11.83C96.19,88.5,114,78.3,119.75,88.5Z"/><path class="cls-17" d="M102.68,206.13s12.57-13.21,34.64-9.2c0,0,5.65.67,3.07,6.59s-23.45,10.21-23.45,10.21l-14.26-1.13Z"/><path class="cls-16" d="M91.66,185.48s3.94,10.2,3.21,18.21c0,0-2.12,15.06,15.59,15.54s22.65-1.74,30.61-13.69,19.19-30.44,19.19-30.44H158.5s-14,26.64-23.42,33.28-24.94,9.43-35.38.56c0,0-1.83-9.52-1.83-13.55S91.66,185.48,91.66,185.48Z"/><path class="cls-12" d="M91.66,185.48l6.44,13.28s3,5,2.37-11.54C100.47,187.22,94.51,187.17,91.66,185.48Z"/><path class="cls-12" d="M124.26,191.35l3.08,11.46s2.24,5.15,4.71-12.46C132.05,190.35,126,191.37,124.26,191.35Z"/><path class="cls-12" d="M99.7,208.94s.92-8.21,3.18-10.27,2.79,13.93,2.79,13.93S100,210.61,99.7,208.94Z"/><path class="cls-12" d="M122.87,213.73s.81-10,1.39-12.06,4.13,6.56,5.07,9.94A20.43,20.43,0,0,1,122.87,213.73Z"/><path class="cls-12" d="M98.76,203.52s12.92,12.64,38.56,0c0,0,4.08-3,5.35-6.32l.73,2.27s-5.66,9.37-14.07,12.14c-6.46,2.12-14.75,4.7-23.66,1C105.67,212.6,96.11,210.26,98.76,203.52Z"/><path class="cls-7" d="M123.39,155.46s13.68-5,15.46-13c0,0,1,9-1.27,12.49C137.58,155,125.12,155.88,123.39,155.46Z"/><path class="cls-7" d="M149.06,218.35a62.21,62.21,0,0,1,21.06-11.58c12.54-3.89,33.11-15.58,34-41,0,0,6.83,19.08-6,32.69s-17,14.79-29.41,19.09-20.24,12.39-21.75,16C146.88,233.54,149.69,221.81,149.06,218.35Z"/><path class="cls-7" d="M90.73,209.55s3.83-5.77,4.18-8.21S93,188,91.66,185.48c-.94-1.81-2.25,1.05-8.41-8.88-1.38-2.23-18.91-10.81-22-20.69,0,0,.12,7.22,5.23,16.88A68.43,68.43,0,0,0,85.9,195.32C91.66,199.67,90.73,209.55,90.73,209.55Z"/><path class="cls-11" d="M95.77,145.59s3.17-12.08,18.14-17C113.91,128.64,98.34,140,95.77,145.59Z"/><path class="cls-18" d="M7,118.86S24.32,115.39,30.2,109a20.78,20.78,0,0,1-13.14,9.91S8.21,120.14,7,118.86Z"/><path class="cls-9" d="M19.65,233s9.11-12.12,4.73-34.77c0,0,3.58,10.07,8.25,29.92S52.28,251,52.28,251s5.3,1.67,6,19.32-2.59,22.2-2.59,22.2,1.32-20.65-2.2-29.06-11.63-12.16-11.63-12.16S32.24,244.86,30,236.68s-2.9-20.46-2.9-20.46S27.36,228.9,19.65,233Z"/><path class="cls-9" d="M44.78,232.06a35.76,35.76,0,0,0,4.4,19.1l4.07,5.08,1.82,13.42.62,22.81s7-.64,9.13-16.08c0,0,.88,31.64,20.28,46.06s19.62,21,19.62,21-5.07-21.23,23.55-34c0,0,19.75-2.15,30.53-9,0,0-6.12,3.82-3.45,14.32,0,0,10-15.27,37.67-24.5S226.73,282,234,267c0,0,29.94-5.65,40.7-48.91,0,0-14.88,27.76-29.48,31.43,0,0,14.18-22.75,12.58-35.39,0,0-9.65,32.93-25.41,37.26,0,0,2.92-2.18,3.93-11.15s-2,20.82-21.9,28.58c0,0,2.88-4.05,3.31-6.86s-6,13.13-19.16,16.83-28.53,10-34.07,13.68c0,0,6.81-6.13,7.41-11.92,0,0-11.6,15.93-30,18.62s-27.77,5.73-35.77,19.59c0,0,2.31-13.3,8.54-18.26,0,0-11,5.75-11.62,14.89,0,0-2-18.49-11.42-24.13,0,0,6.09,13.84,3.48,25,0,0-14.85-7.11-22.61-26,0,0-7.57-16.27-7.18-21.63s-7.5-18.69-5.54-32a38,38,0,0,0-.86,22.87c.09.31.17.62.27.93C63.11,273.66,45.65,237.08,44.78,232.06Z"/><path class="cls-19" d="M84.6,178.68s15.45,8.28,24.63-.15c0,0,8.92,12.51,35,7.1,0,0-10.17,6.87-22.4,6.73-10.53-.12-11.16-3.46-12.3-9.63,0,0-.28,6.2-13.46,4.18C86.82,185.48,84.6,178.68,84.6,178.68Z"/><path class="cls-19" d="M88.6,241.37s38.4,8.91,48.72-6.08,11.4-38,18.46-47.31c0,0-6,20.1-6.49,28s-.13,23.19-12,30.32S100.82,257.55,88.6,241.37Z"/><path class="cls-20" d="M231.34,106.28s-.31,20.94,10,29.11c0,0,16.9.64,25.56-14.56,5.91-10.35-1.21-27.3-11.29-27.81C255.62,93,235.81,91.8,231.34,106.28Z"/><path class="cls-6" d="M260,109.47s3.64,16.92-21.59,22.22c0,0-6.09-8.8-6-17.86C232.35,113.83,254.1,95.53,260,109.47Z"/><path class="cls-7" d="M233.93,122s2.34-3.64,8.4-5.52a7.7,7.7,0,0,0-6.85,0s16.11-16.47,24.6-7.31c0,0-1.91-8.46-12.64-4.37,0,0-11.63,4.06-15,8.73C232.44,113.5,232.19,119.18,233.93,122Z"/><path class="cls-7" d="M240.6,133.27c.11.28-.65.2.27.85l.85.82c5.46-.37,4.93-.06,13-3.37,7.6-3.11,11.24-12.88,11.24-12.88C258,131.38,243.65,132.94,240.6,133.27Z"/><path class="cls-21" d="M133.3,308.79s32.92,31.78,99,36.3,164.45,1.74,164.45,1.74l8.08,7.39s-27.19.25-41,1.94-73,8.9-83.55,6.45l-50.56-1.74s-56.83-6-81.63-32.43C148.11,328.44,136.84,319.39,133.3,308.79Z"/><path class="cls-4" d="M211,292.47s27,102.93,37.45,126c0,0,2.87,10.13-2.55,13.11,0,0-20.32,3.25-14.9,22.76,0,0,1.35,7.31,15.71,7.85h8.94s23,3.25,29.53-10.29c0,0-4.33-85.34-4.6-91.84s1.62-80.73-8.13-93.2"/><path class="cls-22" d="M538,435.27s-6.55,20.92,15.89,23.41"/><path class="cls-22" d="M520.83,437.31s-8.37,21,11,24.55"/><path class="cls-22" d="M255.79,438.64s-15.11,11.11-1.32,23.32"/><path class="cls-22" d="M246.12,437.16s-16,10.17-3,24.72"/><path class="cls-22" d="M177.64,438.64s-14.5,8.33-3.17,22.27"/><path class="cls-22" d="M170.14,433.92s-11,4.72-10,14.71c1,9.5,5.26,12.28,5.26,12.28"/><path class="cls-22" d="M410.07,433s-17.4,6.16-4.86,25.07"/><path class="cls-22" d="M394.91,430.05s-10.84,4.19-10.64,15.49,3.36,13.63,3.36,13.63"/><path class="cls-4" d="M378.53,330s18.27,22,33.16,26.89"/><path class="cls-22" d="M133.3,308.79s3.26,20.93,48,40.18c0,0,35.47,12.17,48.47,11.9"/><path class="cls-22" d="M280.3,362.61s41.94-.39,74.23-5.23c35.63-5.33,50.28-3.16,50.28-3.16"/><path class="cls-23" d="M640.92,353.19s24.06-26.44,57.64-9.38c0,0,29.63,19,44.31,21.68,0,0-15.09,22.43-54,17.54S634.81,363.53,640.92,353.19Z"/><path class="cls-24" d="M640,355.14s7.81,15.25,47,20.95,55.87-10.6,55.87-10.6-8.7,15.84-33.61,17.61-52-4.27-61.88-13.39S639.15,357.1,640,355.14Z"/><path class="cls-24" d="M642.27,351.86s17,6.95,27.4,6.34c0,0-9.87,8.66-30.06-2A7.11,7.11,0,0,1,642.27,351.86Z"/></svg>