<svg id="Layer_1" data-name="Layer 1" xmlns="http://www.w3.org/2000/svg" viewBox="0 0 310 590"><defs><style>.cls-1{fill:#323232;opacity:0.4;}.cls-2{fill:#aa4315;stroke:#543e0d;}.cls-10,.cls-2,.cls-3,.cls-4,.cls-7{stroke-miterlimit:10;}.cls-3{fill:#fca01a;stroke:#705613;}.cls-4{fill:#ffd44a;}.cls-4,.cls-7{stroke:#876a1a;}.cls-5{fill:#e27105;}.cls-6{fill:#60150c;}.cls-7{fill:#ddb136;}.cls-8{fill:#e25d03;}.cls-9{fill:#592400;}.cls-10,.cls-14{fill:#f4691c;}.cls-10{stroke:#af4612;}.cls-11{fill:#8e3b11;}.cls-12{fill:#aa2d0f;}.cls-13{fill:#a83f16;}.cls-15{fill:#ef7320;}.cls-16{fill:#8e2100;}</style></defs><ellipse class="cls-1" cx="155" cy="549.01" rx="151.56" ry="35.96"/><path class="cls-2" d="M196.53,74.22s12.41,5.14,9.42,27.83l-6.42-3.86s11.71,41.76,2.14,27.4c-5.14-7.7-.86,12.85-.86,12.85l-6.42-9s4.71,18.41-2.14,34.68l-4.71-9.85s4.28,16.27-2.14,30.82l-4.71-9s.85,19.27-5.57,32.54l-3.85-6.85-3.85,19.27-3.86-5.57-1.28,13.7-4.71-2.14-1.29,15c-7.7,1.72-10.7,12-10.7,12l-9.42,16.7c-3.42,12.84-1.28,18.84-1.28,18.84,7.7,12,9.84,16.69,9.84,16.69L121.61,294.7,105.34,269l-6-17.13,3.43-22.26,62.93-73.21,2.57-19.27Z"/><path class="cls-3" d="M259.58,327.09c14.33,12.44,6.33,42.42-19.37,37.18-10.65,1.18,2.23,12.58,2.23,12.58,27.44,4.15,43.26-27.64,24.69-49.76"/><path class="cls-4" d="M182.28,53.59c20,14.85,6.9,88.36-18.41,144.29s-34.27,74.2-25.73,96.86c6.44,17.08-75,72-72.74,28.57,3.49-67.29,73.92-138.75,75.25-202.23S161.94,38.48,182.28,53.59Z"/><path class="cls-5" d="M180.7,126.35c-2.31,18.13-24.39,30.22-41,31.92-3,8.77-16.1,22.64-16.1,22.64,7.52-13.82,12.8-31.45,15.19-40.09"/><path class="cls-6" d="M150.84,508.34c-8.46,1.38-18.13,17-10.61,22.66,2.29.72,7.36-5.67,7.36-5.67s-4.27,7.72-2.91,8.56c7,4.3,40.84-3.68,32.86-27.18"/><path class="cls-7" d="M170.61,411.52C169,419,189.15,437,186.28,446.39S156.34,502.46,150.11,508s20.17,9.67,28.49,2.29,2.85-9.34,6.92-19.08S204.27,456,211.44,451s9.86-15.81,3.09-25.41-3.72-30.51-3.72-30.51"/><path class="cls-8" d="M205.31,445.78c-5.81-15.4-16.9,2.72-14.26,11.14S208.29,453.68,205.31,445.78Z"/><path class="cls-8" d="M197.07,469.67c-.8-4.47-16,1.42-8.34,14.74C193.1,477.21,197.07,469.67,197.07,469.67Z"/><path class="cls-8" d="M185.43,424.27c-4.88,1,.71,14.69,6.47,13S197.1,421.8,185.43,424.27Z"/><path class="cls-5" d="M171.78,411.23c2.59,10.18,15.17,8.64,23.23,11.23s17.21,5.81,23.49,11.39c3.58-19.45-4.48-34.13-14.85-36.15"/><path class="cls-8" d="M196.62,413.77c-4.46,4,4.62,24.33,15.77,23s8.4-8.63,4-17.8S202.33,408.64,196.62,413.77Z"/><path class="cls-2" d="M131.7,22.78A58.17,58.17,0,0,0,122,10.08c9.64-1.35,18.89,3.19,22.93,11.51.26-8.44-3.75-11-3.75-11,9.25-.54,21.65,3.22,28.31,17.12l-.17-5.39c9.57,3.24,20.65,19.44,22.11,46C184.56,49.23,156.82,26.55,126,28.17"/><path class="cls-4" d="M98.63,62.8C45.25,61.06,50.1,6.08,52.65,5.23s7,1.39,12.18,1.41C86.34,8,106.41,20.39,106.24,45.44,106.2,51.79,104.43,63,98.63,62.8Z"/><path class="cls-5" d="M88.37,51.66c-.85-21.72-15.13-31.92-31.07-37C58,33.16,65.78,59.13,88.37,51.66Z"/><path class="cls-4" d="M67,131.36c3.78-2.68,6.1-6.79,3.83-18.69C64.68,80.26,66,41.43,114,28.28c27.31-9.08,65.23,5.2,76.62,38.66s-6.52,69.2-31,79.76c-25.22,10.89-51.49,6.92-62.14,10.47-12.71,4.22-15.08-2.53-21.91-8.32C73.63,147.22,62.31,134.71,67,131.36Z"/><path class="cls-8" d="M179.69,72.88c-9.73-2-25.74,15.68-22.41,28.19s27.31,3.15,30.5-3.11S185.83,74.13,179.69,72.88Z"/><path class="cls-9" d="M108.36,66.09c8.45-9.08,27.81-9.79,33-5.79C127.62,49.35,115.56,52.54,108.36,66.09Z"/><path class="cls-10" d="M94,159c16-24.37-3-52.22-24.79-58-4.88-1.31-13.22,7.07-13.22,7.07-20,10.22.25,27.12-.92,42.91-2.45,14.95,13.7,21.81,24.17,15.47C85,162.89,90.14,160.2,94,159Z"/><path class="cls-10" d="M42.12,116.41c-4.09-5.35-15,3.25-6.48,11.18"/><path class="cls-11" d="M57,148.13c13.62,1.39,20.21-4.34,30.95-11.42C78.06,145,79.2,168,64.53,163.08,57.2,160.63,57,148.13,57,148.13Z"/><path class="cls-12" d="M87.36,138.46c3.29-2.45,7.15,1.16,8-2.46a2.4,2.4,0,0,0-2.53-2.84c-2,.14-3.71,1.94-5.68,3.57-3.6,3-15.29,10.93-25.52,11.63C68.35,148.88,76.8,146.35,87.36,138.46Z"/><path class="cls-10" d="M55.94,108.05c-16.86,4.54-25.14,18.63-19.79,30,6.4,13.54,47.14,15.92,51.81-1.3"/><path class="cls-4" d="M189.17,87.28c42,5.1,61.63-40.18,59.72-42.25-2.22-2.47-8.31-2.63-13.93-5.72-23.9-11.38-52.85-9.94-67.57,17.08"/><path class="cls-5" d="M176.82,69.72c13.69-22.9,37.35-23.91,60.07-18.17C225.28,71,200.48,93.68,176.82,69.72Z"/><path class="cls-2" d="M136.38,26c1.28,5.39-12.73,10-20.68,13.26-8.2,3.37-26,16.5-27.88,24.22-3.07-5.25-2.22-20.15,4.74-27.87,0,0-5.56-2.29-9.82,5.09,2.23-10.74,9.49-21,21.16-19.3,0,0-8.71-4.85-13.82-2.45,6.12-6.07,26.56-9.53,38.59-3.55"/><path class="cls-13" d="M73.05,131.08c-2.71-3.84-10.81,5.66-8.44,7.73C67.49,141.34,76.71,136.27,73.05,131.08Z"/><path class="cls-14" d="M86.54,136c-3-4.7-8.91-1-10.56,2.33,3-4,9.35-3,9.9-1.15"/><path class="cls-6" d="M39,525.54c-7.92.14-17.22,14.85-10.3,21.88,2.13,1.06,7-4.77,7-4.77s-4.6,7.28-2.87,8.42C41,556.4,71.05,553.39,64,527.84"/><path class="cls-7" d="M125.13,397.34c2.32,9.76-21.15,54-29.94,63.91-7.4,8.32-1.6,12.38-7.89,18.65s-15.89,36.29-15.21,42-16.56,23.25-33,8.38c-3.4-3.07,2.26-6.89,11-23s15.27-27.57,15.4-34.35,2.72-10.84,7.15-16S70.35,426.06,89,382.68"/><path class="cls-5" d="M91.09,382.68c.45,11.37,17.35,26.35,21.57,30.19s0,21.16-6.65,32c11.29-17.76,23.38-49.27,22.69-58.1"/><path class="cls-4" d="M133.88,266.81c-.89,28.75,27,64.09,63.11,65.08s53.52,21.58,54.21,49.28-49.51,41.29-114.8,30.15c-50.59-8.63-100.4-63.56-52.64-138"/><path class="cls-6" d="M128.67,556.3c-6.63,3.15-8.91,19.12-.4,22.41,2.21.11,4.08-6.7,4.08-6.7s-1.58,7.88.79,8.22C145,582,166.3,567.66,150.63,548.74"/><path class="cls-4" d="M163.06,408.47c5,7.86-3.87,57.79-8.46,67s3.19,12.57-.4,20-1.74,40.61,1,45.17-5.16,25.91-24.67,19.63c-4.07-1.33-.73-6.7.53-23.66S134.93,501.92,133,496s-.9-10.32,1.41-16.18-19.8-54.93-8.08-78.82"/><path class="cls-6" d="M263.81,527.86c-6.63,3.78-7.75,20.5,1.31,23.26,2.3-.07,3.74-7.25,3.74-7.25s-.65,8,1.43,8.43c6.52,1.22,33.4-15.55,15.73-33.94"/><path class="cls-4" d="M198.14,388.33c11.63,55.45,26,50,43.39,63.07,13.64,10.29,20.37,56.45,20.36,79.76,4.27,4.72,18.56-1.67,21.29-6.11s5.6-10.85-.7-18.72S266,453,267.62,442.28s-6.81-12.47-14.87-20.47c-5.37-5.36,3.86-32.71-4.26-55"/><path class="cls-8" d="M144.08,312.94c-11.56-.48-19.6,21.65-4,32.13s35.28-1.63,33.31-8.63S157.71,313.5,144.08,312.94Z"/><path class="cls-8" d="M202.67,336.29c-9.12,1.57-10.29,24.68-3,29.06s29.46-14.86,29.49-21.24S218.79,333.51,202.67,336.29Z"/><path class="cls-8" d="M184.78,344.16c-6.35-2.94-25.57,7.45-21.11,19.43s26,5.85,28.42,2.82S190.74,346.92,184.78,344.16Z"/><path class="cls-8" d="M142.57,304.07c2.51-6.29-11.86-27.9-18.28-26.62S107.94,302.78,114,308.56,140,310.48,142.57,304.07Z"/><path class="cls-8" d="M140,253.68c1.07-10.38-5.95-21.59-13.5-19.88s-19,26.51-11,31.3,21.46-2.28,21.46-2.28Z"/><path class="cls-15" d="M127.49,205.76c11.46-4.44,8.32,17.9.16,19.86S109,213,127.49,205.76Z"/><path class="cls-15" d="M111.32,275.23c2.07-7.8-16.54-15.93-20.48-1.92S92,293.14,97,291.73,109.7,281.36,111.32,275.23Z"/><path class="cls-8" d="M122.7,317.37c3.74,3.27.68,19.83-8.13,21.24s-21.43-11.25-16.8-17S118.3,313.51,122.7,317.37Z"/><path class="cls-8" d="M119.91,343.22c-6.64,2.29-12.15,14.11-6.23,18.14s20.21.86,20.84-7.49S128.28,340.34,119.91,343.22Z"/><path class="cls-8" d="M147.42,359.5c-5.55-.38-20.74,11.85-13.15,18.66s17,5.3,20.86,1.26S154.75,360,147.42,359.5Z"/><path class="cls-8" d="M239.14,355.62c-6.11-7.78-23,1.62-10.44,12.33S251.53,371.39,239.14,355.62Z"/><path class="cls-8" d="M214,368c5.14.92,16.45,10.72,10.14,16.68s-21.28,6.25-24.73-1.95S203.27,366,214,368Z"/><path class="cls-8" d="M183.38,375.05c-7.55-5.29-18.06,10.57-6.36,15.26S194.9,383.11,183.38,375.05Z"/><path class="cls-8" d="M234.45,382.68c-5.91,2-14.73,18.89-10.29,26.46s17.92,12.74,22.49,10.83a6.61,6.61,0,0,0,4.31-6.2l1-22.4C249.34,386.57,240.3,380.7,234.45,382.68Z"/><path class="cls-15" d="M228,420.37c-4.16,2.57,2.93,17.76,12.28,18,8.23.23,11.3-7.3,9.41-11.14S232.06,417.87,228,420.37Z"/><path class="cls-8" d="M261.62,436.67c-3.91-3.73-11.9,11.33-1.92,15.55S270.07,444.73,261.62,436.67Z"/><path class="cls-8" d="M261.44,462.63c-3.82,1.94-5.34,10.7-1.43,14.93s11.3,6.69,13.46,3.63L271.11,471C268.73,467,265.26,460.69,261.44,462.63Z"/><path class="cls-15" d="M266.29,492.91c-4.06-2.67-6.51,10.08-1.94,10.71S272.11,496.75,266.29,492.91Z"/><path class="cls-15" d="M273.47,520.86c5.62.06.6-5.89-2.44-6.59C265.85,513.07,266.12,520.77,273.47,520.86Z"/><path class="cls-8" d="M148.53,389c-8.71.71-8.08,15.84-3,20.73s17.56.63,17.91-7.08S155.54,388.45,148.53,389Z"/><path class="cls-15" d="M131,407.47c7.66-2.06,12.78,10.52,13,18.08a10.67,10.67,0,0,1-13.68,10.86C123.26,434.34,122,409.89,131,407.47Z"/><path class="cls-8" d="M139.17,438.38c-2.79,7.5,6,19.89,9.38,19.51s6.68-10.63,6.3-16.45S140.64,434.44,139.17,438.38Z"/><path class="cls-15" d="M137.53,462c6-2.84,7.79,8.94,3,10.48S130.5,465.34,137.53,462Z"/><path class="cls-8" d="M146.45,484c-2.12-.24-7,2.34-6,7.24s4.35,6.13,6,5.69S150.6,484.45,146.45,484Z"/><path class="cls-15" d="M137.69,507.78c2.39-1,4.62,2.64,2.24,6.42S132.3,510,137.69,507.78Z"/><path class="cls-15" d="M80.1,298.29c5.73-.21,9.75,15.26,7.74,18.53s-14.36,5.52-17,3.58S72.6,298.56,80.1,298.29Z"/><path class="cls-15" d="M81.7,339.35c-4.8-.09-7.27,14.41,0,15.48S100.19,339.7,81.7,339.35Z"/><path class="cls-15" d="M109.91,370c-8.46-6.7-12,9.26-5.5,14S121.85,379.46,109.91,370Z"/><path class="cls-15" d="M119,393.67c5.76-4.72,12.36,2.93,5.6,7.66S114.46,397.42,119,393.67Z"/><path class="cls-15" d="M85.93,366.8c-5.92-.55-5.42,6.14,0,8.44S94.33,367.57,85.93,366.8Z"/><path class="cls-15" d="M82.19,402.71c6.89-3.9,15.21,7.41,12,17S81,434,76.39,429.07A209.2,209.2,0,0,1,82.19,402.71Z"/><path class="cls-15" d="M91.78,433.85c2.54-1,9.36,5,7.92,11s-9.23,12.73-14,11S83.58,437.17,91.78,433.85Z"/><path class="cls-15" d="M74.68,456.48c3.75-1.08,5.69,5.14,2.4,9.75s-9,2.28-8.48-1.3S71.54,457.38,74.68,456.48Z"/><path class="cls-15" d="M74.68,481.19c2.85-.85,6.32,3.85,1.71,5.92S71.83,482,74.68,481.19Z"/><path class="cls-8" d="M158.3,210.26c.49-7.41-7-9.66-12.33-8.43s-12.5,23.86-8.6,27.92,10.71,3.36,10.71,3.36Z"/><path class="cls-15" d="M148.82,174.78c3.37.2,9.27,12.44,3.53,17.13s-13.13,2.54-14.21-2.15S138.25,174.16,148.82,174.78Z"/><path class="cls-8" d="M177.21,163.47c.75-5.18-12.2-8.33-16.06-6.24s-4.54,26.14-.64,29.59a7.08,7.08,0,0,0,7.68,1.55S176.31,169.71,177.21,163.47Z"/><path class="cls-15" d="M107.72,239.82c-2.92-6.17-17.76,11.13-12,16.55S111.74,248.29,107.72,239.82Z"/><path class="cls-8" d="M141,133c-8.54-1.95-14.06,15.59.3,14.31S157.3,136.65,141,133Z"/><path class="cls-8" d="M152.67,38c-9.69-.09-6.74,10.25-.08,13.24S166.35,38.16,152.67,38Z"/><path class="cls-15" d="M81.17,60.81c-5.25-2.32-14.13,10.82-7,13S91.17,65.21,81.17,60.81Z"/><path class="cls-16" d="M230.34,293.13c21.35-4.09,51.4,12.64,36.44,37.36-12.85,8.48-33-1.2-33.68-26.09,6.45,3.09,8.36,10.06,8.36,10.06C240,305.27,235.76,299.69,230.34,293.13Z"/></svg>