<svg id="Layer_1" data-name="Layer 1" xmlns="http://www.w3.org/2000/svg" viewBox="0 0 660 400"><defs><style>.cls-1{opacity:0.3;}.cls-2{fill:#4a7d43;}.cls-3{fill:#2f5129;}.cls-4{fill:#3f6e37;}.cls-5{fill:#2a4924;}.cls-6{fill:#3d6734;}.cls-7{fill:#53a947;}.cls-8{fill:#589a51;}.cls-9{fill:#7fc071;}.cls-10{fill:#80c374;}.cls-11{fill:#fff;stroke:#020202;}.cls-11,.cls-14{stroke-miterlimit:10;stroke-width:0.25px;}.cls-12{fill:#702b2e;}.cls-13{fill:#9e3034;}.cls-14{fill:#ee8483;stroke:#471e1e;}.cls-15{fill:#a1d087;}.cls-16{fill:#4c1e20;}</style></defs><ellipse class="cls-1" cx="366.28" cy="299.24" rx="261.26" ry="89.13" transform="translate(-40.39 57.73) rotate(-8.54)"/><path class="cls-2" d="M233.54,284s-.35,9.71-4.24,14c-4.11,4.54-7.38,6.94-10.87,7.79a27.85,27.85,0,0,1-4.54.87s-4.49,4.06-7.87,5.7-9.31,4.91-15.42,4.38a4.7,4.7,0,0,1-2.93-1.08c-.55-.95-.65-1.1,1.19-5.58,0,0-1.39.51-3.55,1.13s-7.21,1.86-10.45,1.8-4.47-.7-5.11-1.61c-1-1.38,2.16-6.67,2.16-6.67a36.4,36.4,0,0,1-8.58,1.72c-4.22.22-7.62-.26-8.63-.83s-1.7-1.21-.95-2.37,3.39-5.05,3.39-5.05-2,0-4.22-.26-6.25-1.14-7.17-2-.85-1.47-.14-2.3,3.61-5.11,5.9-7.27a46.07,46.07,0,0,1,9.94-7.32c3.66-1.78,9.86-4.93,18.12-5.61C182.21,273.2,219,271.23,233.54,284Z"/><path class="cls-3" d="M213.36,307.2c5.84-.38,19.88-4.76,19.88-21,0,0-.26,16.66-19.21,20.13Z"/><path class="cls-3" d="M198.48,296.7c-4.39,3.09-9.17,12.37-10.76,17.23-.56,1.74,1.24,3.19,6.18,2.43,12-1.84,21.49-11.33,21.49-11.33-4.12,6.25-14.77,11-21.41,11.8-6,.72-7.63-.59-6.73-3.25C188.83,308.91,192.74,299.71,198.48,296.7Z"/><path class="cls-3" d="M169.49,309.26c2.08-4.87,7.45-16.47,16.3-18.45-7.67,2.59-13.7,13.78-15.8,18.86-.75,1.81,1.14,3.49,6.65,3.05a39.89,39.89,0,0,0,12.66-3.34,2.2,2.2,0,0,0-.31.75,1.09,1.09,0,0,0,0,.18,40.92,40.92,0,0,1-12.28,2.92C170,313.54,168.3,312,169.49,309.26Z"/><path class="cls-3" d="M153.36,303.49c2.29-4.67,12.06-18.18,20.65-19.33-7.53,1.86-17.37,14.76-20.08,19.43-1.67,2.85,9,4,18.35.61a5.49,5.49,0,0,0-.37.9C161.23,308.26,151.67,306.92,153.36,303.49Z"/><path class="cls-3" d="M145.1,294c1.84-2.64,6.05-10,16.27-15.2,6.3-3.19,15.59-6.78,26.88-5.46a50.49,50.49,0,0,0-26.64,6.05c-9.24,4.79-13.32,11.28-16,14.79-1.51,2,4.56,3.87,11.84,3.81a1.58,1.58,0,0,0-.6.57C149.14,298.41,143.42,296.38,145.1,294Z"/><path class="cls-3" d="M190.68,310c4.75.28,6.36,5.56,3.29,6.61a18.87,18.87,0,0,1-6.7,1.14C185.58,317.74,187,309.76,190.68,310Z"/><path class="cls-3" d="M172.85,306c4.92.29,6.59,5.78,3.41,6.86a19.57,19.57,0,0,1-6.94,1.18C167.57,314,169.05,305.73,172.85,306Z"/><path class="cls-3" d="M157.76,299.86c4.6,1.07,5.28,6.53,2.1,7a19.09,19.09,0,0,1-6.76,0C151.45,306.59,154.2,299,157.76,299.86Z"/><path class="cls-3" d="M149.25,290.88c4,1.64,3.07,6.9.13,6.9a17.51,17.51,0,0,1-6.07-1C141.87,296.28,146.16,289.61,149.25,290.88Z"/><path class="cls-4" d="M265.16,142.53c-.93-4.75.6-8.31.21-9.47-.78-2.32-13.72,2.05-18.83,4.6C242.24,139.81,265.84,146,265.16,142.53Z"/><path class="cls-5" d="M255.39,142.53h0c-4.46-1.09-9.33-2.86-9.48-4.19,0-.3.17-.56.58-.77,4.54-2.27,15.06-5.92,18.13-5.17a1.09,1.09,0,0,1,.85.63,6.17,6.17,0,0,1-.13,2.25,20.21,20.21,0,0,0-.08,7.23.72.72,0,0,1-.2.67C264,144.19,259.19,143.46,255.39,142.53Zm9.18-9.93c-3-.72-13.59,3-18,5.15-.34.17-.49.36-.47.57.12,1,4.12,2.74,9.32,4,4.86,1.18,8.67,1.47,9.47.69a.48.48,0,0,0,.15-.47,20.16,20.16,0,0,1,.07-7.3,6.17,6.17,0,0,0,.14-2.15C265.19,132.86,265,132.7,264.57,132.6Z"/><path class="cls-4" d="M596.76,26.78c1.32-3,1.09-6.22,1.49-6.87.82-1.3,7.17,7.83,9.54,12C609.79,35.47,595.81,28.93,596.76,26.78Z"/><path class="cls-5" d="M596.71,27.28a.8.8,0,0,1,0-.57,17,17,0,0,0,1.18-5.2,4.93,4.93,0,0,1,.32-1.67c.1-.17.3-.19.57-.06,1.81.89,7,8.39,9.05,12.11a1,1,0,0,1,.19.82c-.31.89-3.27-.11-5.9-1.4h0C599.88,30.21,597.12,28.5,596.71,27.28Zm1.58-7.3a6,6,0,0,0-.27,1.6,17.89,17.89,0,0,1-1.2,5.26.5.5,0,0,0,0,.4c.31.93,2.45,2.49,5.32,3.91,3.06,1.5,5.54,2.13,5.78,1.45a.84.84,0,0,0-.16-.62c-2-3.61-7.23-11.17-9-12C598.54,19.84,598.39,19.85,598.29,20Z"/><path class="cls-4" d="M563.77,16.41a.71.71,0,0,1-.1-.57,17.75,17.75,0,0,0,.25-5.41,5,5,0,0,1,0-1.72c.07-.19.26-.25.56-.16,2,.56,8.44,7.14,11.2,10.49a1.06,1.06,0,0,1,.33.79c-.15.93-3.29.47-6.15-.35h0C567.45,18.77,564.39,17.55,563.77,16.41Z"/><path class="cls-4" d="M521,12.14a.74.74,0,0,1-.21-.53,17.17,17.17,0,0,0-1-5.24,5.3,5.3,0,0,1-.37-1.66c0-.2.2-.3.51-.28,2,.11,9.67,5,13.06,7.61.32.24.48.46.49.68.07.93-3,1.17-6,1h0C525.1,13.6,521.89,13.09,521,12.14Z"/><path class="cls-4" d="M492.06,11.67a1.07,1.07,0,0,1,.54.65c.14.92-3,1.39-5.89,1.45h0c-2.5.05-5.73-.21-6.65-1.1a.73.73,0,0,1-.25-.51A17.41,17.41,0,0,0,478.46,7,5.6,5.6,0,0,1,478,5.38c0-.21.18-.32.48-.32"/><path class="cls-4" d="M435.6,16.86c-.54-3.2-2.53-5.79-2.55-6.55,0-1.54,10.31,2.57,14.59,4.76C451.25,16.92,436,19.18,435.6,16.86Z"/><path class="cls-5" d="M435.83,17.3a.74.74,0,0,1-.31-.47,17.25,17.25,0,0,0-1.89-5,5.35,5.35,0,0,1-.66-1.56c0-.21.15-.33.45-.37,2-.26,10.43,3.16,14.23,5.1a1.09,1.09,0,0,1,.61.59c.23.9-2.79,1.71-5.7,2.08h0C440.09,18,436.84,18.09,435.83,17.3Zm-2.7-7a5.8,5.8,0,0,0,.64,1.49,17.38,17.38,0,0,1,1.9,5,.61.61,0,0,0,.22.34c.77.6,3.42.73,6.59.33,3.38-.43,5.81-1.28,5.62-2,0-.15-.19-.29-.47-.44-3.69-1.88-12.19-5.32-14.13-5.07C433.25,10.09,433.12,10.18,433.13,10.34Z"/><path class="cls-4" d="M394.12,25.27c-.8-3.15-3-5.56-3.05-6.33-.16-1.52,10.47,1.76,14.91,3.61C409.73,24.11,394.69,27.56,394.12,25.27Z"/><path class="cls-4" d="M358.46,33.85c-.78-3.14-3-5.56-3-6.33-.17-1.52,10.47,1.77,14.92,3.61C374.08,32.69,359,36.14,358.46,33.85Z"/><path class="cls-5" d="M358.74,34.28a.69.69,0,0,1-.35-.45A17.21,17.21,0,0,0,356.11,29a4.83,4.83,0,0,1-.77-1.51c0-.2.11-.34.41-.4,2-.41,10.64,2.33,14.59,4a1,1,0,0,1,.65.54c.3.88-2.65,1.92-5.52,2.52h0C363,34.64,359.81,35,358.74,34.28Zm-3.25-6.73a5.59,5.59,0,0,0,.76,1.44,17.24,17.24,0,0,1,2.29,4.88.63.63,0,0,0,.25.32c.82.53,3.46.46,6.59-.2,3.34-.69,5.69-1.73,5.46-2.4,0-.15-.22-.28-.51-.4-3.83-1.59-12.57-4.35-14.49-4C355.6,27.29,355.48,27.4,355.49,27.55Z"/><path class="cls-4" d="M332.6,39.55C332,37,330.15,35,330.08,34.33c-.13-1.25,8.64,1.45,12.31,3C345.47,38.59,333.07,41.44,332.6,39.55Z"/><path class="cls-4" d="M310.18,42.65c-.55-2.62-2.26-4.69-2.3-5.32-.08-1.26,8.57,1.81,12.16,3.48C323.08,42.22,310.57,44.55,310.18,42.65Z"/><path class="cls-5" d="M310.39,43a.6.6,0,0,1-.28-.38,14,14,0,0,0-1.71-4.05,4.34,4.34,0,0,1-.59-1.27c0-.17.11-.27.36-.31,1.63-.28,8.68,2.28,11.88,3.76a.89.89,0,0,1,.52.46c.22.74-2.24,1.5-4.63,1.89h0C313.91,43.45,311.24,43.63,310.39,43Zm-2.45-5.65a4.41,4.41,0,0,0,.58,1.21,14.07,14.07,0,0,1,1.72,4.09.52.52,0,0,0,.19.28c.66.47,2.84.49,5.44.06,2.77-.46,4.74-1.23,4.57-1.8,0-.12-.17-.23-.41-.34-3.09-1.44-10.2-4-11.79-3.75C308,37.15,307.93,37.23,307.94,37.36Z"/><path class="cls-2" d="M586.52,23.15s-10.36-3.44-17.62-4.92-17.75-3.52-26.46-4.59a286,286,0,0,0-28.62-2.32c-8.88-.11-21.1-.14-31.4.61S458.6,14,447.87,15.6,427.09,18.78,418,20.52s-24.31,5.14-33.19,7.23-23.94,6-32.44,7.72-19.92,3.78-28.88,4.94-19.81,2.42-22,2.57-3.12,1-.58,2.55a70.91,70.91,0,0,0,14.65,6.07,175.44,175.44,0,0,0,27.82,5c10.35,1,20.18,1.54,30.42,1.94s36.2,1,44,1.76,28.86,2.34,42.39,5.18,26.54,5.35,40.22,10.29A243.67,243.67,0,0,1,538,92.92c11.83,6.67,26.54,18.44,26.54,18.44s40,5.81,46.47-27S605.09,29.91,586.52,23.15Z"/><path class="cls-6" d="M565.3,109.6S496.14,56.87,403.73,60.06c0,0-91.76-1.08-104.39-15.89,0,0,39.3,12.68,103.18,10.76C402.52,54.93,512.33,49.18,565.3,109.6Z"/><path class="cls-7" d="M596.78,28.94S545.12-9.94,389,27.13C389,27.13,519.12,4.34,596.78,28.94Z"/><path class="cls-8" d="M265.17,143.22c1.68-.91,9.83-4.8,12.14-5.87s11.48-5.89,15.32-7.66,12.9-6.32,17.47-8.29,15.35-6.45,20.24-8,14-4.45,22.06-6.22,19.55-3.56,27.35-4.51a241.27,241.27,0,0,1,28.85-1.42c9.69.12,21.31.21,30.68.9s21.51,1.59,29.84,2.69,23.83,2.77,33.57,4.31,25.21,3.44,30.85,3.67,17.32,1,28.42-1,19.92-5.76,25.73-9.63a45,45,0,0,0,14-15.32,48,48,0,0,0,5.14-17.21c.39-5.38-.49-14.22-1.76-18.36s-3.59-11-6.74-15.61a41.5,41.5,0,0,0-12.87-12.78s11.83,3.5,16.92,5.73,11.13,3.9,19.25,9.33A78.65,78.65,0,0,1,639,54.06c3.73,4.57,8.79,13.21,12.06,22.06a96,96,0,0,1,5.23,23.62,107.53,107.53,0,0,1-.4,23.91,109.43,109.43,0,0,1-3,13.42c-3.64,12-15.07,43.11-46,62.81-10.55,6.72-23.81,11.7-39.21,14.7,0,0-44.08,32.15-45.71,36.69s-8.06,13.22-13.48,18.48-12.55,11.28-23.29,15a68.49,68.49,0,0,1-29.28,3.9c-10.14-.74-105.7,4.3-130.76-5.42S236.49,158.87,265.17,143.22Z"/><path class="cls-9" d="M262.9,146.2s67.75-51,165.25-43.47c0,0,10.34-2.84,101.77,9.8,0,0,60.43,11.28,75.24-33,0,0,13.26-34.36-19.7-56.72,0,0,34.89,22.35,20.79,66.39,0,0-12.75,32.13-79.71,29.14C526.54,118.36,382.11,84.1,262.9,146.2Z"/><path class="cls-2" d="M398.65,269.75c15.45-4.85,30.94-12.88,47.07-11.67,22.66,1.69,56.52-13.23,65.32-37.17,2.15-5.84,53.52-25.37,62.16-27.42,34.85-8.26,65.62-22.59,83.31-75.3-.15,1.94-.34,3.8-.61,5.46a109.43,109.43,0,0,1-3,13.42c-3.64,12-15.07,43.11-46,62.81-10.55,6.72-23.81,11.7-39.21,14.7,0,0-44.08,32.15-45.71,36.69s-8.06,13.22-13.48,18.48-12.55,11.28-23.29,15a68.49,68.49,0,0,1-29.28,3.9c-8.56-.62-77.84,2.86-114.38-1.86C361.12,282.88,379.64,275.72,398.65,269.75Z"/><path class="cls-10" d="M537,234.41c-7.91,8.05-14.37,15.11-15,16.86-1.63,4.55-8.06,13.22-13.48,18.48s-12.55,11.28-23.29,15a68.49,68.49,0,0,1-29.28,3.9c-2.82-.2-12.27,0-25,.28C480.78,275.75,500.59,268.35,537,234.41Z"/><path class="cls-8" d="M538.28,168.93a36.56,36.56,0,0,1,14.51,4.32,30.22,30.22,0,0,1,9.58,8.72,36,36,0,0,1,5,11.12,56.83,56.83,0,0,1,1.91,11.52c.28,3.34.63,8.56.84,9.52a3.35,3.35,0,0,0,1.87,2.51c1.48,1,5.92,3.21,9.69,5.86s11.19,7.46,17.07,12.94,8.71,9,11.23,13a37.67,37.67,0,0,1,5.31,15.44,21.43,21.43,0,0,1-5.24,16.28A96.84,96.84,0,0,1,595,293.88c-4,2.82-8.71,5.7-11.23,7.59s-5.12,4.72-10.82,7.07-11.09,3.38-13.57,3.3-4.64-.91-4-3.13a35.56,35.56,0,0,1,1.57-4,39.64,39.64,0,0,1-5.86,2.09c-3,.76-7.68,1.45-9.61,1s-3.44-1.08-2.28-3.93,1.33-3.26,1.33-3.26a27,27,0,0,1-4.73,1.14c-2.25.28-6.2.22-7.29-.46s-2.14-1.27-1-3.53,1.87-3.86,1.87-3.86a17.19,17.19,0,0,1-3.49.5c-1.87.06-4.34-.15-5.14-1.06s-1-1.48-.33-3.12a48.24,48.24,0,0,1,6.31-9.35c2.48-2.73,5.45-6.64,10.46-10.07a39,39,0,0,1,8.24-4.53s-5.94-2.16-11-4.68a87.79,87.79,0,0,1-13.6-8.22A41.42,41.42,0,0,1,511,242.21c-1.85-3.41-4.42-10.52-5.27-21.56-.46-6.07-1-10-.67-15.63.21-3.61.87-15.33,4.88-21.69s6.44-9.19,12.83-11.94A33.61,33.61,0,0,1,538.28,168.93Z"/><path class="cls-2" d="M580.15,297.24c2.73-3.83,6.24-4.16,14.51-9.48,6.46-4.16,15-10,17.58-17.69,1.45-4.35,2-9.14.6-16a36.07,36.07,0,0,1,2.46,9.76,21.43,21.43,0,0,1-5.24,16.28A96.84,96.84,0,0,1,595,293.88c-4,2.82-8.71,5.7-11.23,7.59s-5.12,4.72-10.82,7.07-11.09,3.38-13.57,3.3a6.62,6.62,0,0,1-3.12-.74C565.92,309.41,574.71,304.88,580.15,297.24Z"/><path class="cls-4" d="M293.27,152.86c-.11-4.84,2-8.09,1.82-9.3-.36-2.42-13.87-.33-19.34,1.31C271.15,146.25,293.34,156.37,293.27,152.86Z"/><path class="cls-5" d="M283.64,151.18h0c-4.21-1.83-8.7-4.41-8.62-5.74,0-.31.25-.53.7-.67,4.86-1.45,15.85-3.25,18.75-2a1.07,1.07,0,0,1,.72.77,5.85,5.85,0,0,1-.51,2.19,20,20,0,0,0-1.31,7.11.68.68,0,0,1-.31.62C291.84,154.29,287.23,152.75,283.64,151.18ZM294.38,143c-2.8-1.22-13.89.59-18.6,2-.35.11-.54.27-.55.48-.06,1,3.59,3.41,8.49,5.54,4.59,2,8.29,2.93,9.22,2.31a.48.48,0,0,0,.22-.44,20.51,20.51,0,0,1,1.32-7.19,5.78,5.78,0,0,0,.51-2.1C295,143.33,294.75,143.13,294.38,143Z"/><path class="cls-4" d="M235.93,135.7c-1.61-4.57-.61-8.31-1.17-9.4-1.1-2.19-13.28,4-18,7.28C212.86,136.33,237.1,139,235.93,135.7Z"/><path class="cls-5" d="M226.27,137.12h0c-4.57-.43-9.65-1.48-10-2.77-.08-.3.08-.58.46-.85,4.16-2.9,14-8,17.18-7.75a1.1,1.1,0,0,1,.94.5,5.83,5.83,0,0,1,.19,2.25,20.41,20.41,0,0,0,1,7.16.68.68,0,0,1-.11.69C235,137.5,230.16,137.48,226.27,137.12ZM233.91,126c-3-.29-13,4.9-17,7.71-.3.21-.43.42-.37.63.25,1,4.47,2.11,9.79,2.61,5,.47,8.8.19,9.48-.69a.46.46,0,0,0,.07-.49,20.17,20.17,0,0,1-1-7.24,5.82,5.82,0,0,0-.18-2.15A.88.88,0,0,0,233.91,126Z"/><path class="cls-2" d="M505,205c.21-3.61.87-15.33,4.88-21.69s6.44-9.19,12.83-11.94a30,30,0,0,1,6.94-2C516.42,180,518.5,228.42,527.11,239c24,29.39,57.14,31.58,57.14,31.58s-18.62,7.92-48.41,1.23c.44-.33.88-.67,1.36-1a39,39,0,0,1,8.24-4.53s-5.94-2.16-11-4.68a87.79,87.79,0,0,1-13.6-8.22A41.42,41.42,0,0,1,511,242.21c-1.85-3.41-4.42-10.52-5.27-21.56C505.25,214.58,504.71,210.68,505,205Z"/><path class="cls-8" d="M422,343.3s-.38,10.64-4.64,15.35c-4.49,5-8.08,7.61-11.89,8.53a30,30,0,0,1-5,1s-4.91,4.45-8.61,6.24-10.2,5.37-16.89,4.8a5.1,5.1,0,0,1-3.2-1.18c-.62-1.05-.73-1.22,1.29-6.12,0,0-1.52.57-3.88,1.24s-7.89,2-11.45,2-4.89-.77-5.59-1.75c-1.09-1.52,2.36-7.31,2.36-7.31a39.26,39.26,0,0,1-9.39,1.88c-4.62.24-8.35-.28-9.45-.91s-1.87-1.32-1-2.6,3.71-5.52,3.71-5.52-2.17,0-4.62-.29-6.85-1.25-7.85-2.23-.94-1.61-.16-2.52,3.95-5.59,6.46-8,6.88-6.07,10.89-8,10.8-5.4,19.85-6.14C365.75,331.49,406.09,329.34,422,343.3Z"/><path class="cls-8" d="M227.21,135.23c.07,0,4.23.16,8.7.72s12.53,1.87,20.56,3.47A190.28,190.28,0,0,1,283.74,147a102.76,102.76,0,0,1,21.91,11.71c5.09,3.76,15.48,13.58,18.52,17.31s32.15,125.92,12.21,131-33.7,7.52-51.72,7.06-31.16-2.17-43.24-6.2A275.07,275.07,0,0,1,205,292.2c-9.58-5-27.36-14.2-37.77-16.36S119.57,129.24,227.21,135.23Z"/><path class="cls-2" d="M166.34,160.27c10.95.86,21.58,3.78,32.39,5.65,12.6,2.19,25.43,2.73,37.75,6.43,9.65,2.9,22.84,5.44,29.62,13.51,8,9.47,9.83,23.47,14.91,34.56,7.9,17.21,14.75,32.14,30,43.63,8.87,6.7,23.59.57,32.34-5.14.34,14-1.48,46.75-6.93,48.14-19.94,5.1-33.7,7.52-51.72,7.06s-31.16-2.17-43.24-6.2A275.07,275.07,0,0,1,205,292.2c-9.58-5-27.36-14.2-37.77-16.36C159.83,274.31,138.74,200.35,166.34,160.27Z"/><path class="cls-10" d="M227.63,239c49.09,7.63,38.4,51.11,108.75,68.09-19.94,5.1-33.7,7.52-51.72,7.06s-31.16-2.17-43.24-6.2A275.07,275.07,0,0,1,205,292.2c-9.58-5-27.36-14.2-37.77-16.36-5.27-1.09-17.43-38.68-14.17-74.75C164,204.06,176,230.93,227.63,239Z"/><path class="cls-8" d="M346,236.41c4.59-2,19.72-7.12,34.46.52,0,0,5.24-1.47,9.75-2.23s18.91-3.5,27.26-2.63,17.19,1.34,28.86,7.64a31.23,31.23,0,0,1,14.05,15.09A48.68,48.68,0,0,1,463,269.08a73,73,0,0,1-1.68,16.19c-1.32,5.64-4.94,18.22-9.3,26.37s-10.36,19.2-16.25,25.68-10.82,10.86-14.87,13.09-60.49-12.23-58.77-16.59a148.26,148.26,0,0,1,6.24-13.47c1.53-2.84,4.83-8.77,4.83-8.77a38.93,38.93,0,0,1-13.91,1.48c-6.85-.75-15.12-2.05-20.12-5s-9.82-5.39-12-15.12C322.82,274.08,325.83,245,346,236.41Z"/><path class="cls-2" d="M390.22,277.21c5.32-2.69,25.9-16.11,25.9-16.11s-10.33,9.21-11,9.83a137.54,137.54,0,0,0-15.5,17.12c-4.89,6.3-7.05,9.52-10.82,15-2.41,3.53-3.34,5.48-5.46,9.11a61.09,61.09,0,0,1-14.08.9c-6.85-.75-15.12-2.05-20.12-5S327.9,302,325.51,292.3c-1.45-5.87-.12-14.71,0-21.08C340.17,284.14,367.32,288.74,390.22,277.21Z"/><path class="cls-3" d="M285.5,314.79c15,0,32.6-2.15,52.76-7.09l-1.69-1c-69.29,17-102.6-.21-133-15.77-18.69-9.56-36.35-18.6-59.81-18.6v.7c23.29,0,40.88,9,59.49,18.51C224.91,302.64,248.66,314.79,285.5,314.79Z"/><path class="cls-3" d="M316.46,168.1c-24.38-26.73-65-31.07-107.95-35.66l-5.78-.62-.07.69,5.78.62c33.52,3.58,63.45,7.13,86.79,19.38C305.85,158.08,316.46,168.1,316.46,168.1Z"/><path class="cls-4" d="M339.9,153.09c-4.17-3.54-5.32-7.76-6.48-8.51C331.1,143.07,322.74,156,320,161.89,317.74,166.81,342.93,155.66,339.9,153.09Z"/><path class="cls-5" d="M331.27,160h0c-4.7,2.18-10.24,4-11.31,3a.92.92,0,0,1,0-1.09c2.42-5.19,9.14-15.82,12.37-17.32a1.2,1.2,0,0,1,1.2,0,6.91,6.91,0,0,1,1.47,2.08,22.48,22.48,0,0,0,5,6.44.78.78,0,0,1,.28.72C340,155.36,335.28,158.11,331.27,160Zm1.12-15.23c-3.13,1.45-9.91,12.18-12.25,17.2-.18.38-.18.66,0,.83.81.82,5.56-.48,11-3,5.13-2.38,8.69-4.81,8.85-6.06a.5.5,0,0,0-.2-.51,22.77,22.77,0,0,1-5.07-6.51,6.71,6.71,0,0,0-1.4-2A1,1,0,0,0,332.39,144.73Z"/><path class="cls-4" d="M403.48,133c-3.76-4.69-4.13-9.49-5.23-10.54-2.18-2.11-13.91,10.16-18.05,15.9C376.7,143.19,406.21,136.39,403.48,133Z"/><path class="cls-5" d="M392.73,138.61h0c-5.53,1.37-11.9,2.23-12.82.85-.22-.31-.16-.71.18-1.18,3.68-5.1,13.15-15.18,17-16.13a1.31,1.31,0,0,1,1.29.21,7.1,7.1,0,0,1,1.16,2.55,24.76,24.76,0,0,0,4.08,8,.88.88,0,0,1,.16.85C403.16,135.47,397.45,137.44,392.73,138.61Zm4.38-16.21c-3.69.92-13.24,11.08-16.8,16-.28.37-.34.67-.19.89.71,1.05,6.1.64,12.55-1,6-1.5,10.38-3.38,10.82-4.69a.58.58,0,0,0-.11-.6,25.14,25.14,0,0,1-4.13-8.08,7.68,7.68,0,0,0-1.08-2.45A1.11,1.11,0,0,0,397.11,122.4Z"/><path class="cls-4" d="M471.59,129.23c-2.7-5.7-1.92-10.68-2.77-12-1.73-2.69-16.68,7-22.31,11.84C441.76,133.14,473.55,133.38,471.59,129.23Z"/><path class="cls-5" d="M459.24,132.36h0c-6,.06-12.69-.62-13.3-2.25-.15-.38,0-.77.48-1.17,5-4.31,17.12-12.3,21.23-12.34a1.41,1.41,0,0,1,1.28.53,7.74,7.74,0,0,1,.56,2.88,25.92,25.92,0,0,0,2.22,9.16.92.92,0,0,1,0,.91C470.65,131.69,464.34,132.31,459.24,132.36Zm8.42-15.48c-4,0-16.22,8.09-21.06,12.27-.37.31-.51.6-.41.86.47,1.25,6.08,2.15,13.05,2.08,6.52-.06,11.42-.93,12.19-2.16.13-.2-2.33-6.52-2.21-9.89C469.26,118.75,468.9,116.6,467.66,116.88Z"/><path class="cls-4" d="M536.87,136.31c-2.15-5.76-1-10.53-1.7-11.91-1.45-2.75-16.77,5.42-22.64,9.67C507.59,137.65,538.44,140.5,536.87,136.31Z"/><path class="cls-4" d="M378.08,171.89c-3.69-3.32-4.63-7.18-5.67-7.9-2.07-1.43-10,10.14-12.62,15.38C357.59,183.78,380.76,174.31,378.08,171.89Z"/><path class="cls-5" d="M370.06,177.91h0c-4.33,1.86-9.42,3.4-10.36,2.4q-.33-.34,0-1c2.33-4.65,8.71-14.13,11.69-15.41a1.08,1.08,0,0,1,1.08,0,5.89,5.89,0,0,1,1.28,1.92,20.55,20.55,0,0,0,4.4,6,.72.72,0,0,1,.24.67C378.14,174,373.75,176.33,370.06,177.91Zm1.41-13.8c-2.89,1.23-9.33,10.8-11.58,15.3q-.25.53,0,.75c.72.77,5.07-.28,10.11-2.44,4.72-2,8-4.14,8.21-5.27A.5.5,0,0,0,378,172a20.76,20.76,0,0,1-4.43-6,6.28,6.28,0,0,0-1.22-1.85A.92.92,0,0,0,371.47,164.11Z"/><path class="cls-4" d="M422.55,158.38c-3.58-4-4.14-8.29-5.16-9.18-2.06-1.79-12,9.72-15.41,15.05C399.07,168.74,425.14,161.3,422.55,158.38Z"/><path class="cls-5" d="M413.2,163.91h0c-4.89,1.48-10.54,2.53-11.43,1.34-.21-.27-.17-.63.11-1.06,3.06-4.73,11.06-14.18,14.42-15.2a1.21,1.21,0,0,1,1.17.12,6.69,6.69,0,0,1,1.15,2.23,22.2,22.2,0,0,0,4,7,.76.76,0,0,1,.17.75C422.37,160.62,417.36,162.64,413.2,163.91Zm3.17-14.69c-3.26,1-11.33,10.51-14.29,15.09-.23.35-.27.62-.13.81.69.91,5.49.29,11.18-1.43,5.32-1.62,9.13-3.51,9.46-4.7a.55.55,0,0,0-.13-.53,22.73,22.73,0,0,1-4.06-7,6.49,6.49,0,0,0-1.09-2.14A.93.93,0,0,0,416.37,149.22Z"/><path class="cls-4" d="M468.29,156.51c-2.67-5-2.2-9.47-3-10.63-1.66-2.33-14.59,7-19.4,11.61C441.8,161.37,470.23,160.12,468.29,156.51Z"/><path class="cls-5" d="M457.39,159.87h0c-5.34.33-11.37,0-12-1.4-.15-.33,0-.69.38-1.07,4.27-4.08,14.74-11.78,18.41-12a1.23,1.23,0,0,1,1.17.41,6.94,6.94,0,0,1,.63,2.55,23.54,23.54,0,0,0,2.4,8.09.79.79,0,0,1,0,.81C467.57,158.74,462,159.6,457.39,159.87Zm6.82-14.23c-3.56.22-14.12,8-18.27,11.94-.31.3-.42.56-.32.79.47,1.1,5.53,1.64,11.76,1.26,5.83-.35,10.17-1.35,10.81-2.49a.57.57,0,0,0,0-.58,23.52,23.52,0,0,1-2.43-8.16,6.77,6.77,0,0,0-.59-2.45A1,1,0,0,0,464.21,145.64Z"/><path class="cls-4" d="M569.23,140.38h0c-4.85.56-10.35.53-11-.86a1,1,0,0,1,.3-1.08c3.72-4.25,12.92-12.37,16.25-12.75a1.08,1.08,0,0,1,1.08.35,7.38,7.38,0,0,1,.68,2.52,24.81,24.81,0,0,0,2.52,7.93.84.84,0,0,1,0,.8C578.43,138.8,573.36,139.9,569.23,140.38Z"/><path class="cls-4" d="M613.05,124.68h0c-2.74,2.07-6.06,3.85-6.91,2.91a1.18,1.18,0,0,1-.18-1c.81-4.73,3.62-14.46,5.5-15.88a.58.58,0,0,1,.77-.06,7.71,7.71,0,0,1,1.26,1.84,25.27,25.27,0,0,0,4.18,5.72.92.92,0,0,1,.29.65C618.06,120.35,615.37,122.93,613.05,124.68Z"/><path class="cls-4" d="M631.34,97.26h0c-.9,2.65-2.15,5.28-2.78,4.79a1.26,1.26,0,0,1-.3-.76c-.64-4.19-1.39-13.21-.77-15,.1-.28.22-.39.37-.32a4.54,4.54,0,0,1,1,1.09,14.62,14.62,0,0,0,3.33,3.28.73.73,0,0,1,.29.45C632.88,92,632.11,95,631.34,97.26Z"/><path class="cls-4" d="M635.36,65.82c2.34-.83,4.27-3,4.83-3.1,1.11-.18-2.23,10.27-4,14.64C634.76,81.05,633.67,66.42,635.36,65.82Z"/><path class="cls-11" d="M13.16,208.88c-.09,3.48,2.61,11.76,5.71,11.86,1.95.07,3.83-8.72,4.66-11.67S13.25,205.4,13.16,208.88Z"/><path class="cls-11" d="M49.21,221.43c-.06,3.49,2.72,11.74,5.83,11.81,2,0,3.74-8.76,4.54-11.71S49.26,218,49.21,221.43Z"/><path class="cls-12" d="M110.13,220.77a104.91,104.91,0,0,1-12,12.51c-6.3,5.33-12.38,10.67-18,14.34S72,253.3,66.81,256s-9.21,5.61-12.2,7.51-6,4.15-5.8,6,3.94,5.66,13,7.39,14.35,2.08,20,1.64a58.4,58.4,0,0,0,18.82-4.75A142.46,142.46,0,0,0,119.28,263c7-4.74,12.65-9.15,18.91-13.08A75.76,75.76,0,0,1,162,239.7c10.21-2.42,19.47-4,26.22-6.12s13.39-5.28,15.43-7.44a41,41,0,0,1-5.78,2.25,26,26,0,0,1-11.33,1.16c-5.1-.72-7.22-2.05-13.2-3.36a69.66,69.66,0,0,0-17-2c-7.77-.09-11.48.46-19.15,1.18s-9.46,1.82-15,.31A72.48,72.48,0,0,1,110.13,220.77Z"/><path class="cls-13" d="M72.83,257.79c8.71-5.07,38.49-21.17,48.25-32.43a75.66,75.66,0,0,1-11-4.59,104.91,104.91,0,0,1-12,12.51c-6.3,5.33-12.38,10.67-18,14.34S72,253.3,66.81,256s-9.21,5.61-12.2,7.51-6,4.15-5.8,6c.17,1.69,3.26,4.94,10.52,6.83C45.44,268.16,58,266.45,72.83,257.79Z"/><path class="cls-14" d="M182.61,235a125.72,125.72,0,0,0-13.42-2.26,62.83,62.83,0,0,0-9.54-.15,60.07,60.07,0,0,0-9.17-2.24c-3.92-.5-19.3-2.46-31,3.76-5.69,3-18.73,13-22.85,18.05s-12.46,13.74-4.93,19.83c2.4,1.94,8.83,1.93,8.83,1.93s5.4-2.48,9.19-4.8,11-7.1,16.29-10.73,9.17-6.61,14.46-9.95a62.07,62.07,0,0,1,18.24-7.69C165.94,238.84,182.61,235,182.61,235Z"/><path class="cls-8" d="M109.43,171.49s1.13-4.56,1.79-8.53c3-17.87,10.76-19.83,14.48-20.23s7.9.64,12.28,2.67a49.19,49.19,0,0,0,2.46-6.63c.61-2.52,2.13-7.69,3.57-11.68s2.35-5.94,4.15-7.13,9.92,10.76,6.59,21.73-6.3,29.63-18.91,32.27S109.43,171.49,109.43,171.49Z"/><path class="cls-8" d="M239.71,143.83c-3.26-2.45-10.14-8.7-13.36-11.49s-19.12-15.61-33.68-8.09a38.34,38.34,0,0,0-9.93,7.82,19.77,19.77,0,0,1-4-2.35c-2.37-1.72-8.64-6.63-11.62-9.13s-8-4.37-12.1-3.73-8,3-9.29,5.93c0,0,3.56,1.17,4.59,7s.36,12.51-1.18,15.78-7.33,11.69-9.6,13.44A39.22,39.22,0,0,0,123,167.3a79.91,79.91,0,0,0-13.24.42c-6.81.83-14.58,3.37-21.71,5.87a76,76,0,0,0-23.7.59,74,74,0,0,0-16.15-6.54c-8.23-2-16-3.32-23.38-1.19S13.14,171.31,9.13,176,3.25,187.89,2.9,192s.46,11.55,2.65,15.39,4,4.88,8.2,4.15,8.62-2.89,12.76-2.09,9.86,3.75,15,7.64,9.72,6.4,16.53,5a87,87,0,0,0,18.51-6.07c5.27-2.43,9.44-3.55,14.08-3.11s9,1.86,17.72,6.76,13.71,7,21,6.62,17.61-2.41,26.51-2,17.18,1.48,22.94,3.24,10.15,2.82,15.72,1.76a58.47,58.47,0,0,0,9.14-2.45s-7.14,4.09-10.73,5.26-15.64,4.29-22.09,5.59-14.86,3.06-21.21,6A98.9,98.9,0,0,0,132.15,254c-6.86,4.86-11.33,8.28-18.23,12.47s-14.57,8.34-21.44,10.21a54.72,54.72,0,0,1-20.25,1.79c-6.28-.75-11.66-1.44-16-3.06s-7.34-4.38-7.44-5.77,1.16-3.55,8.42-7.86,12.92-7.61,17.43-10.49a193,193,0,0,0,18-13.08C99,232.9,108.31,223.64,111.47,219c0,0-8.77-7.11-10-4.1s-3.49,8.52-7.23,12.32-7.39,8.87-13.37,13.3-8,6.62-15.84,11.42-9.77,4.93-15.19,8.85-9.6,7.23-8.79,12.13S47.44,284,55.45,287.13s13.59,4,23.53,4.71a140.32,140.32,0,0,0,27.44-.71c6.5-.93,16.11-2.44,25.11-5.73s19.69-7.16,27.48-8.13,17.26-2.15,27.11-1.24,16.49,1.94,22.4,1.52A87,87,0,0,0,231,272.46c7.31-2.83,14.22-6.2,20.06-11s13-11.14,16.45-16.68a49.44,49.44,0,0,0,7.81-20.07c.8-4.46,5.81-38.48-4.06-57.31S239.71,143.83,239.71,143.83Z"/><path class="cls-2" d="M275.21,182.24c-.34,2-6.64,24.7-10.74,34.85-3.24,8-7.83,16.71-13.67,23.22-6.07,6.76-13.86,10.58-22.22,13.85a136.42,136.42,0,0,1-29.05,7.93c-17.75,2.77-35.06,6.57-51,15.19q-4.38,2.36-8.48,5.08c6.7-2.33,13.55-4.41,19-5.09,7.79-1,17.26-2.15,27.11-1.24s16.49,1.94,22.4,1.52A87,87,0,0,0,231,272.46c7.31-2.83,14.22-6.2,20.06-11s13-11.14,16.45-16.68a49.44,49.44,0,0,0,7.81-20.07C276,221.15,279,200.72,275.21,182.24Z"/><path class="cls-2" d="M263.32,204.48s-3.62-12.85-10.22-17.89-21.47-4-34.66,4c0,0,10.31-1,8.48,3s-6.59,12.48-10.43,17.1-8.52,11-16.29,13.77-14.11,2.5-22.93-.94-15.49-4.52-28.94-2.91-21.82,3.75-32.83-2.47-19-13-33.45-8.25-19.48,9.43-28.25,7.9S38.38,206.11,29,205.32s-17.76,4.78-21.17,2.25-3.4-2.77-3.4-2.77,1.94,5.55,4.21,6.3,4,1.21,8-.09,6.54-2.17,9.88-1.52,6.79,1.27,12.58,5.86,7.76,6.65,14.11,6.88,11-1.11,16.29-3.33,13.4-6,17.84-6,10.79.91,19.11,5.83,14.23,7.49,20.17,7.63,9.25-.64,15-1.21,17.38-1.88,26.22,0,16.07,4.38,21.23,4.65,11.42-2,15.55-3.53c7.61-2.87,12-7,16.54-13.69,4-5.88,11.73-16.74,23.21-18.43C252.38,192.94,262.85,204.07,263.32,204.48Z"/><path class="cls-15" d="M266.75,209.14c-3.11-6.28-8.84-13.53-14.64-16.93-5.55-3.25-9.1-4.81-17.81-4.63,0,0-12.14,20.07-15.53,24.33-3,3.79-9.8,11.78-16.42,15.67a57.06,57.06,0,0,1-9.46,4.55c-3.59,1.18-15.64,4.29-22.09,5.59s-14.86,3.06-21.21,6A98.9,98.9,0,0,0,132.15,254c-6.86,4.86-11.33,8.28-18.23,12.47s-14.57,8.34-21.44,10.21a54.72,54.72,0,0,1-20.25,1.79c-6.28-.75-11.66-1.44-16-3.06s-7.34-4.38-7.44-5.77,1.16-3.55,8.42-7.86,12.92-7.61,17.43-10.49a193,193,0,0,0,18-13.08A144.31,144.31,0,0,0,110,220.9a43.13,43.13,0,0,0-9.09-4.66c-1.31,3.12-3.45,7.65-6.67,10.94-3.73,3.8-7.39,8.87-13.37,13.3s-8,6.62-15.84,11.42-9.77,4.93-15.19,8.85-9.6,7.23-8.79,12.13S47.44,284,55.45,287.13s13.59,4,23.53,4.71a140.32,140.32,0,0,0,27.44-.71c6.5-.93,16.11-2.44,25.11-5.73s19.69-7.16,27.48-8.13,17.26-2.15,27.11-1.24,16.49,1.94,22.4,1.52A87,87,0,0,0,231,272.46c7.31-2.83,14.22-6.2,20.06-11s13-11.14,16.45-16.68a70.34,70.34,0,0,0,3.79-6.77q.22-3.15.15-6.32C271.25,224.24,270.13,216,266.75,209.14Z"/><path class="cls-10" d="M271.46,231.7c-.2-7.16-1.25-15-4.32-21.72-1.21,5.16-6.19,19-18.73,31-22.35,21.4-49.1,17.93-86.39,25.09-18.45,3.54-30.52,9-55.75,18-9.39,3.34-22.33,4.09-32.4,3.85-9-.21-19.05-2.54-26.7-7.51a24.39,24.39,0,0,1-4.89-4.16c2.18,4.09,6.92,8.4,13.17,10.88,8,3.18,13.59,4,23.53,4.71a140.32,140.32,0,0,0,27.44-.71c6.5-.93,16.11-2.44,25.11-5.73s19.69-7.16,27.48-8.13,17.26-2.15,27.11-1.24,16.49,1.94,22.4,1.52A87,87,0,0,0,231,272.46c7.31-2.83,14.22-6.2,20.06-11s13-11.14,16.45-16.68a70.34,70.34,0,0,0,3.79-6.77Q271.53,234.87,271.46,231.7Z"/><path class="cls-10" d="M252.11,192.21c-5.55-3.25-9.1-4.81-17.81-4.63,0,0-12.14,20.07-15.53,24.33-3,3.79-9.8,11.78-16.42,15.67l-1,.58a43,43,0,0,0,4.15-1.31c7.61-2.87,11.11-7.6,15.68-14.31,4-5.88,11.73-16.74,23.21-18.43,7.94-1.16,17.93,8.14,18.51,8.66C259.85,198.49,256,194.49,252.11,192.21Z"/><path class="cls-3" d="M229.53,134.14c-7.69-7.27-18.15-14.37-30.82-12.32-14.83,2.39-19.93,17.57-31.81,23.27,13.17-5.05,20-20.25,31.89-22.17,10.61-1.72,22,4.69,29.63,11.87,3.53,3.33,11.09,8.9,11.09,8.9S233.05,137.46,229.53,134.14Z"/><path class="cls-3" d="M138.68,172.55c-19.19-8.55-37.13-2.87-47.5.41-.84.27-1.35.36-2.09.58l-2.16-.46s2.9-.66,3.74-.93C103,168.23,127,159.29,151,178.89,151,178.89,142.16,174.09,138.68,172.55Z"/><path class="cls-3" d="M63.55,174.64l-.14-.7c18.72-3.69,36-.92,46.28,7.38A51.23,51.23,0,0,0,99,176.77C89.41,173.71,74.57,172.48,63.55,174.64Z"/><path class="cls-3" d="M233.05,187.52c-16.43,28.37-30.07,48.4-53.27,40.06-14.39-5.18-31.17-4.22-40.79-2.94-8.88,1.18-14,1.27-16.21.72a54,54,0,0,1-15.17-6.4c-5.59-3.3-10.86-6.42-18.07-6.71h-.18c-4.34-.14-9.42,2-14.8,4.25-7,2.93-14.79,6.21-22.62,5.21a12,12,0,0,1-4-1.15,69.11,69.11,0,0,1-7.27-4.6c-2.08-1.43-3.93-3-6.12-4.31-5.69-3.3-10.08-4-16.16-1.71-4.37,1.68-9.1,3.19-12.12-1.76-4.26-7-3.93-18.9.14-27.07,2.45-4.93,7.46-11.08,17.26-14A45.23,45.23,0,0,1,28.89,166c12.08-1.45,25.15,3.57,35.4,9.11,4.29,2.33,12.57,7.37,12.57,7.37C67,173,46.11,162.93,28.48,165.33a42.88,42.88,0,0,0-4.88,1c-10.14,3.06-15.34,9.34-17.87,14.43a31.86,31.86,0,0,0-.93,25.81,9.67,9.67,0,0,0,3.38,4.59,6.75,6.75,0,0,0,3.34,1,18.54,18.54,0,0,0,7.08-1.56c5.16-2,12.2.12,15.37,1.9,2.11,1.19,4.17,2.59,6.26,4,2.44,1.68,4.52,3.57,7.23,4.9a12.9,12.9,0,0,0,4.19,1.28c8.08,1.12,16.06-2.58,23.2-5.57,5.29-2.23,10.43-3.91,14.6-3.77,7.12.24,12.24,2.92,17.79,6.2,4.81,2.85,9.82,5.59,16.26,7a27.3,27.3,0,0,0,8.21.15c2.29-.16,4.78-.42,7.47-.71,11.3-1.21,25.35-2.73,40.37,2.27a33.16,33.16,0,0,0,9.11,1.76c18.52.75,33.11-18,47.48-42.78Z"/><path class="cls-3" d="M123.22,168l-1.57-.4c7.08-7,22.16-12.4,36.69-10.18C144.14,156.6,130.15,161.14,123.22,168Z"/><path class="cls-3" d="M183.49,131.24a34.32,34.32,0,0,1-9.48-5.68c-5.28-4.76-10.39-9.57-18.37-9.4-10.58.23-12.31,11.11-14.46,18.36-.58,2-2.82,9.36-4.37,13.82,2.44-4,4.48-11.64,5.06-13.62,2.13-7.17,4.43-17,14-17.29,6.35-.19,12.5,4.47,17.65,9a61,61,0,0,0,8.51,6.46C182.6,132.49,182.88,131.63,183.49,131.24Z"/><path class="cls-3" d="M110.24,167.84l-2.12.33c2.65-3.25,3.92-21.94,15-25.23,3.92-1.16,9.88-.53,15.1,2l-.38,1c-5.1-2.5-10.79-3.81-14.47-2.39C113.07,147.58,112.05,165.48,110.24,167.84Z"/><path class="cls-3" d="M259.92,198.2c-14.42-18.85-34.61-11.26-45.07-6C214.85,192.15,242.18,179.76,259.92,198.2Z"/><path class="cls-11" d="M100.65,273.62c1.33-.57,2.57-1.27,3.84-1.93a.25.25,0,0,0,0-.07c-1.42-2.28-5.3-8.54-6.9-7.93-2.49.95-2.45,8.7-1.37,11.69C97.66,274.79,99.18,274.26,100.65,273.62Z"/><path class="cls-16" d="M113.27,253s20.25-19.36,45.22-20.7c13.37-.73,25,2.35,26.3,2.35l-2.64.75s-11.5-3.38-23.06-2.43C135.32,234.89,113.27,253,113.27,253Z"/><path class="cls-3" d="M277.54,193.91c-.39-11.51-4-19.9-12.72-25.78-8.4-5.67-19.66-6.49-31-3.37-5.52,1.52-15.38,6.28-15.38,6.28a150,150,0,0,1,16.12-5.11c15.92-4.21,25.84.88,28.85,2.95,8.23,5.65,12.45,13.94,12.77,25.46.59,20.84-1.36,37.78-6.58,46.51-14,23.36-46.3,39.52-72,36-31.33-4.26-47.79,1.6-62.31,6.77-6.9,2.46-13.44,4.78-21.11,6l-2.46.37c-6.58,1-53.76,7.59-68.56-13.45A7.3,7.3,0,0,1,42,270c1.91-6.17,11.82-11.54,19-15.33C77.52,245.94,98.29,226.9,101.6,216l-.69-.21c-3.22,10.63-23.42,29.55-40.06,38.15-7,3.59-17.88,9.38-20,16.21a8,8,0,0,0,1.25,7.25C48.3,286.2,61,290.94,79,292.27c1.31.1,2.6.17,3.89.22a153.12,153.12,0,0,0,28.87-1.73l2.59-.41c7.71-1.23,14.25-3.56,21.15-6,15.16-5.4,30.83-11,62-6.74,12,1.64,26.58-1.1,39.91-7.52,14.07-6.77,25.72-17,32.8-28.85C275.51,232.39,278.24,214.87,277.54,193.91Z"/><path class="cls-3" d="M48.18,197.48l2.55-1.8c4.66-3.28,13.83-6.58,18.69-3.2,0,0-2.54-.65-2.84-.3,2,.68,3,3.14-1.28,4.83-3.19,1.25-8.22,1.26-14.23-.7Z"/><path class="cls-3" d="M56.55,187.29s8.23-4.35,13,1.37C64.28,184.66,56.55,187.29,56.55,187.29Z"/><path class="cls-2" d="M188.83,165.33c10.12,6.57,20.35,1.4,26.26-1,1.38-11.79-3.15-22.94-12.91-28.84-2.63-1.59-10.26,5.83-14,12.84C184.35,155.57,184.09,162.31,188.83,165.33Z"/><path class="cls-3" d="M190.69,166.13c8,5.14,18.49.6,24.4-1.84,1.38-11.79-3.26-22.26-9.73-26.77-2.51-1.76-8.94,3.1-12.65,10.11C188.86,154.91,187.33,164,190.69,166.13Z"/><path class="cls-3" d="M226.17,160.71c-8.32.72-13.81,7.23-21,8.41a22.94,22.94,0,0,1-18.43-5.25s6.48,4.75,17.44,3.85C212.69,167,216.64,160.24,226.17,160.71Z"/><path class="cls-3" d="M216,164a31.51,31.51,0,0,0-1.72-14.61c-4.85-12.92-15.54-15.52-15.54-15.52s10.31,4.65,14.25,15.63c3.25,9,1.23,14.81,1.23,14.81Z"/><path class="cls-3" d="M138.29,149.64c-.09,7.44,2.91,10.49,5.67,5.83,5.11-8.61,7.94-20.91,5.76-26.93C149.72,128.54,138.42,139.5,138.29,149.64Z"/><path class="cls-3" d="M140.65,158.56l-3.07,1.18c10.3-6.91,15.9-23.38,10.8-34.89C154.39,133,151.15,151.5,140.65,158.56Z"/><path class="cls-3" d="M204,226a15.86,15.86,0,0,1-4.52,2.08c-7.59,4.78-20,7.28-28.58,9.2-10.18,2.28-20.7,4.64-30.55,10.87-4.34,2.74-8.73,5.86-13,8.86C114,266.42,100.17,276.19,84.19,278c-11.8,1.35-33.08-2-35.08-8.29-1-3.05,10.36-8.82,22.37-16,9.1-5.44,30.08-20.28,38.86-32.74l-.5-.51c-7.78,11-28.72,26.66-38.7,32.61C56.58,261.78,47.33,266.51,48.42,270c1.67,5.29,15.22,8.56,26.91,9a58.29,58.29,0,0,0,8.93-.26c16.18-1.85,30.06-11.67,43.48-21.18,4.24-3,8.63-6.11,12.94-8.84,9.74-6.17,20.21-8.51,30.34-10.78,7.14-1.6,24.18-3.77,34.91-11.38a45.45,45.45,0,0,0,15.42-18S212.82,220.46,204,226Z"/><path class="cls-11" d="M55,261.74c-1.15-2.84-1.25-10.92,1.3-11.9,1.6-.61,5.48,5.66,6.9,7.93C65.39,261.26,56.49,265.37,55,261.74Z"/><path class="cls-3" d="M245.85,264.9s24.68-29.09-3.18-63.38c28.8,33.38,4.85,62.27,4.85,62.27Z"/><path class="cls-3" d="M213.77,276.92s22.94-18.92,7.58-48.82c17.15,30-6.25,48.7-6.25,48.7Z"/><path class="cls-3" d="M183.66,275.87s16.62-11.39,3.55-36.91c13.86,23.87-2,36.8-2,36.8Z"/><path class="cls-3" d="M151.58,279a27.86,27.86,0,0,0-.79-29.76c10.38,12.07,2.31,29.22,2.31,29.22Z"/><path class="cls-3" d="M114.43,290s10.34-6.79,2.23-20.75c9.1,13.88-1.07,20.44-1.07,20.44Z"/><path class="cls-2" d="M421.64,345.7s0,9.37-5.43,14.66c-3.74,3.64-7.17,6.82-15.76,7.78,0,0-4.6,4.71-9.48,6.82s-12.14,5.47-17.93,3.79A51.58,51.58,0,0,0,389.81,373c6.5-3.64,9.6-8,12.06-9.16C404.09,362.78,412.59,360,421.64,345.7Z"/><path class="cls-3" d="M364.83,241.25s7.79-2.73,11.54-3.7c27.08-7,45.9-7.66,61.23-2.2,17.12,6.09,23.54,14.42,25.35,29.82,3.41,29-22.28,75-42.26,86.05L421,350c19.8-10.94,44.67-55.9,41.29-84.7-1.77-15.1-9.73-23.93-24.89-29.25C420.26,230,399.48,231.45,364.83,241.25Z"/><path class="cls-3" d="M363.53,331.65c19.88-43.55,48.71-67,48.71-67-.29.22-29.05,21.09-50.15,67.23Z"/><path class="cls-3" d="M462.23,289.53c40,0,59.1-35.34,59.29-35.7l-.61-.32c-.19.36-19.86,35.89-60.5,34.95l0,1.07C460.92,289.54,461.7,289.53,462.23,289.53Z"/><path class="cls-3" d="M300.5,42.75c23.79-2.56,45.36-5.69,65.72-10.81,37.15-9.33,81.1-19.1,125.43-20.75,43.42-1.6,81.69,4.76,116.69,19.47A92.35,92.35,0,0,1,618,35.15c24.4,14.25,33.21,40.08,35,45.66,7.85,23.71,3.3,44.16,1.67,51-13.45,56.91-78.42,80.4-84.67,82.56v-1.13c10.15-2.19,41.08-10.26,63.59-39.1,22.33-28.61,27.49-66.24,18.75-93.18-4-12.31-12-26-20.53-34.32a76.91,76.91,0,0,0-14.27-11,78.31,78.31,0,0,0-9.51-4.42c-81.52-34.24-167.3-17.37-241.66,1.32a424.89,424.89,0,0,1-65.83,10.81.71.71,0,0,0-.36,1.31c19.62,11.55,50.93,12.67,87,13.93,27.2,1,116-.25,177.85,52.52l-1,.26C507.87,66.17,443.85,61.36,387.14,59.37,350.9,58.1,319.41,57,299.65,45.26,298,44.26,298.56,43,300.5,42.75Z"/><path class="cls-3" d="M284.37,133.45c15.39-7.64,31.3-15.53,47.9-21.06,33-11,106.75-16.73,177.91-2.6,0,0,45.11,8.95,71.12-4.44a51.41,51.41,0,0,0,18.86-16.67,41.44,41.44,0,0,0,4.57-10.42c6.53-22.85-5.64-48.61-20.47-55.51l.29-.63a51.87,51.87,0,0,1,18.56,22.1c.78,1.79,10.26,24.72-2.42,44.94-6.11,9.73-14.53,14.33-19.08,16.82-3.11,1.7-14,7.29-38.41,7.52a159.16,159.16,0,0,1-33.11-3c-37.4-7.94-128-13.92-177.6,2.58-16.55,5.51-32.45,13.4-47.81,21-5.3,2.63-10.75,5.32-16.19,7.91-.36-.1-.73-.18-1.09-.25C273.1,139,278.82,136.2,284.37,133.45Z"/><path class="cls-3" d="M362.61,314A35.3,35.3,0,0,0,373,312.55l.77-1.73c-11.33,3.49-27.66.82-36.57-4.11a21.54,21.54,0,0,1-8.82-8.62c.72,3.23,3.65,6.41,8.47,9.22A54.9,54.9,0,0,0,362.61,314Z"/><path class="cls-3" d="M379.52,237.16l1.83-.44a38.54,38.54,0,0,0-28.28-2.59C370,230.93,378.63,237,379.52,237.16Z"/><path class="cls-3" d="M399.87,368.72c6.4-.42,21.77-5.21,21.77-23,0,0-.29,18.24-21,22Z"/><path class="cls-3" d="M383.58,357.22c-4.81,3.38-10.05,13.55-11.78,18.87-.63,1.9,1.35,3.49,6.77,2.66,13.19-2,23.53-12.4,23.53-12.4-4.51,6.84-16.19,12-23.45,12.91-6.62.79-8.35-.64-7.37-3.55C373,370.6,377.3,360.52,383.58,357.22Z"/><path class="cls-3" d="M351.83,371c2.28-5.33,8.16-18,17.86-20.2-8.4,2.84-15,15.1-17.31,20.65-.82,2,1.25,3.82,7.28,3.34a43.6,43.6,0,0,0,13.86-3.65,2.53,2.53,0,0,0-.34.82,1.2,1.2,0,0,0,0,.19,44.77,44.77,0,0,1-13.46,3.2C352.35,375.67,350.54,374,351.83,371Z"/><path class="cls-3" d="M334.16,364.66c2.52-5.12,13.21-19.91,22.63-21.17-8.25,2-19,16.17-22,21.28-1.82,3.12,9.83,4.41,20.1.66a6,6,0,0,0-.41,1C342.79,369.88,332.32,368.41,334.16,364.66Z"/><path class="cls-3" d="M325.13,354.22c2-2.89,6.63-11,17.81-16.64,6.9-3.49,17.08-7.43,29.44-6a55.32,55.32,0,0,0-29.17,6.62c-10.12,5.25-14.59,12.35-17.48,16.2-1.64,2.19,5,4.23,13,4.17a1.7,1.7,0,0,0-.65.62C329.55,359.09,323.29,356.87,325.13,354.22Z"/><path class="cls-3" d="M326.12,285.36s-3.9-27,13.53-36.08C339.65,249.28,320.74,255.43,326.12,285.36Z"/><path class="cls-3" d="M514.21,176.68c6.73-7,19.26-9.76,30.33-6.91,22.18,5.72,24.44,25.81,25.38,38.38.17,2.16.31,4.1.55,5.8a3.14,3.14,0,0,0,1.53,2.32c1.34.81,2.92,1.65,4.58,2.64,13.09,7.82,33.58,22.35,37.9,38.76,1.74,6.62,2.11,13-1.64,19-5,8-15.17,16.3-23.38,21.37a63.4,63.4,0,0,0-7.59,5.36c-5.37,4.72-13.66,7.75-19.22,8.41-6.63.79-8.36-.65-7.38-3.56,1.73-5.11,6-15.19,12.31-18.48-4.82,3.38-10.05,13.54-11.79,18.86-.62,1.91,1.36,3.49,6.77,2.66a38.56,38.56,0,0,0,18.76-8.4,57.06,57.06,0,0,1,7.69-5.44c8.55-5.71,19-14.39,23.25-21.15,3.63-5.83,3.24-12.05,1.55-18.47-4.28-16.25-24.77-30.71-37.76-38.44-1.67-1-3.26-1.83-4.61-2.65a2.74,2.74,0,0,1-1.57-2.09c-.29-1.87-.46-4-.63-6.47-.93-12.37-2.76-32.3-24.92-38-11.52-2.95-23.05.15-29.61,6.94-14.18,14.66-8.71,46.68-6.7,56.14,3.24,15.2,16.49,23.18,29,29.23,17,8.2,36.19,7.24,36.19,7.24a63.85,63.85,0,0,1-6.92.38,67.9,67.9,0,0,1-29.63-7c-12.65-6-26-14.18-29.32-29.67C505.3,223.91,499.79,191.6,514.21,176.68Z"/><path class="cls-3" d="M538.83,304.15c1.86-5.51,6.48-16.37,13.27-19.92-5.2,3.64-10.84,14.6-12.71,20.33-.67,2.05,1.46,3.76,7.29,2.87a39.71,39.71,0,0,0,10.53-3.27c-.09.2-.18.41-.26.62a.26.26,0,0,0,.06.3,39.67,39.67,0,0,1-10.23,2.9C539.64,308.83,537.77,307.29,538.83,304.15Z"/><path class="cls-3" d="M527.09,297.94c2.12-5.18,7.21-15.33,13.93-18.34-5.2,3.19-11.27,13.37-13.42,18.76-.76,1.94,1.18,3.7,6.84,3.2a35.3,35.3,0,0,0,6.24-1.18,1.86,1.86,0,0,0-.29.76,33.28,33.28,0,0,1-5.9.95C527.59,302.48,525.89,300.88,527.09,297.94Z"/><path class="cls-3" d="M520,290.42c2-4.95,12-19.46,24.83-24.19l.53.25.33.1c-12.8,4.79-23.12,19.08-25.18,24.26-.76,1.94,1.18,3.7,6.83,3.2.61-.06,1.21-.15,1.8-.24a2.77,2.77,0,0,0-.22.63c-.52.07-1,.12-1.52.14C520.48,295,518.78,293.36,520,290.42Z"/><path class="cls-3" d="M375,371.76c5.19.31,7,6.1,3.59,7.24a20.59,20.59,0,0,1-7.32,1.25C369.46,380.26,371,371.52,375,371.76Z"/><path class="cls-3" d="M558.32,305.44c4.8.13,6.59,5.43,3.52,6.59a19.36,19.36,0,0,1-6.73,1.36C553.4,313.44,554.6,305.32,558.32,305.44Z"/><path class="cls-3" d="M541.91,301.46c4.81.14,6.6,5.44,3.53,6.59a19.44,19.44,0,0,1-6.74,1.36C537,309.46,538.2,301.35,541.91,301.46Z"/><path class="cls-3" d="M530.28,295.24c4.8.35,6.36,5.72,3.24,6.74a19.18,19.18,0,0,1-6.79,1.07C525,303,526.57,295,530.28,295.24Z"/><path class="cls-3" d="M522.67,287.83c4.61.56,5.86,5.81,2.81,6.65a18.46,18.46,0,0,1-6.6.7C517.23,295.09,519.11,287.39,522.67,287.83Z"/><path class="cls-3" d="M355.52,367.35c5.38.33,7.21,6.32,3.73,7.52a21.53,21.53,0,0,1-7.6,1.29C349.73,376.16,351.36,367.1,355.52,367.35Z"/><path class="cls-3" d="M339,360.68c5,1.18,5.78,7.15,2.29,7.71a20.87,20.87,0,0,1-7.39,0C332.08,368.05,335.09,359.76,339,360.68Z"/><path class="cls-3" d="M329.66,350.85c4.36,1.79,3.38,7.55.16,7.55a19.14,19.14,0,0,1-6.65-1.09C321.59,356.76,326.29,349.46,329.66,350.85Z"/><path class="cls-4" d="M320.2,115.6c-4.25-3.44-5.5-7.63-6.67-8.35-2.36-1.46-10.41,11.71-13,17.61C298.37,129.84,323.29,118.1,320.2,115.6Z"/><path class="cls-5" d="M311.74,122.68h0c-4.65,2.28-10.15,4.27-11.24,3.22-.25-.24-.27-.6-.06-1.09,2.28-5.24,8.76-16,12-17.6a1.25,1.25,0,0,1,1.19-.07,6.7,6.7,0,0,1,1.52,2,22.49,22.49,0,0,0,5.16,6.32.78.78,0,0,1,.31.72C320.39,117.87,315.7,120.73,311.74,122.68Zm.76-15.25c-3.1,1.52-9.63,12.4-11.84,17.48-.18.38-.18.66,0,.82.83.81,5.55-.6,11-3.26,5.07-2.5,8.57-5,8.71-6.26a.53.53,0,0,0-.21-.52,22.84,22.84,0,0,1-5.23-6.38,6.55,6.55,0,0,0-1.43-2A1,1,0,0,0,312.5,107.43Z"/><path class="cls-4" d="M380.59,103.49c-3.87-4.6-4.36-9.38-5.47-10.41-2.24-2.06-13.67,10.48-17.69,16.32C354.05,114.32,383.39,106.83,380.59,103.49Z"/><path class="cls-5" d="M370,109.37h0c-5.5,1.49-11.84,2.5-12.8,1.14-.23-.31-.17-.71.16-1.19,3.56-5.18,12.79-15.48,16.57-16.51a1.31,1.31,0,0,1,1.3.17,7.18,7.18,0,0,1,1.22,2.52,25,25,0,0,0,4.26,7.91.86.86,0,0,1,.18.84C380.32,106,374.66,108.08,370,109.37Zm4-16.31c-3.66,1-13,11.38-16.43,16.41-.26.38-.32.68-.17.89.74,1,6.13.5,12.53-1.24,6-1.64,10.3-3.63,10.71-5a.59.59,0,0,0-.13-.6,25,25,0,0,1-4.3-8A7.63,7.63,0,0,0,375,93.17,1.11,1.11,0,0,0,374,93.06Z"/><path class="cls-4" d="M442.63,100.58c-2.82-5.63-2.15-10.64-3.05-12C437.8,86,423.08,96,417.55,101,412.9,105.18,444.69,104.68,442.63,100.58Z"/><path class="cls-5" d="M430.37,104h0c-6,.19-12.71-.33-13.36-2q-.22-.55.45-1.17c4.91-4.43,16.84-12.7,21-12.83a1.39,1.39,0,0,1,1.28.49,7.45,7.45,0,0,1,.63,2.88,26.25,26.25,0,0,0,2.43,9.1.9.9,0,0,1,0,.91C441.76,103.06,435.46,103.83,430.37,104Zm8.05-15.68c-4,.13-16,8.47-20.77,12.76q-.54.48-.39.87c.5,1.24,6.13,2,13.09,1.78,6.53-.22,11.4-1.19,12.15-2.44a.63.63,0,0,0,0-.65,26.24,26.24,0,0,1-2.46-9.19,7.75,7.75,0,0,0-.58-2.75A1.12,1.12,0,0,0,438.42,88.32Z"/><path class="cls-4" d="M492.16,107c-2.29-5.71-1.22-10.51-2-11.87-1.51-2.72-16.63,5.8-22.41,10.19C462.91,109,493.82,111.15,492.16,107Z"/><path class="cls-5" d="M480,109.31h0c-5.83-.31-12.32-1.37-12.81-3-.12-.37.06-.74.53-1.1,5.13-3.89,17.4-10.94,21.4-10.73a1.35,1.35,0,0,1,1.21.59,7.44,7.44,0,0,1,.37,2.84,25.73,25.73,0,0,0,1.61,9,.85.85,0,0,1-.09.87C491.1,109.33,484.93,109.56,480,109.31Zm9.11-14.56c-3.88-.21-16.25,6.9-21.22,10.67-.38.28-.54.56-.45.82.38,1.24,5.78,2.45,12.57,2.8,6.34.33,11.17-.22,12-1.37a.6.6,0,0,0,.07-.62,25.7,25.7,0,0,1-1.63-9.14,7.86,7.86,0,0,0-.34-2.71A1.09,1.09,0,0,0,489.08,94.75Z"/><path class="cls-4" d="M538.66,115.14h0c-4.84-.51-10.2-1.75-10.5-3.24-.08-.35.1-.68.53-1,4.55-3.33,15.32-9.23,18.65-8.87a1.06,1.06,0,0,1,1,.58,7.19,7.19,0,0,1,.12,2.6,24.75,24.75,0,0,0,.7,8.29.8.8,0,0,1-.14.79C548,115.63,542.8,115.58,538.66,115.14Z"/><path class="cls-4" d="M591.36,100.36c-3.52-4-4.3-8.39-5.29-9.28-2-1.79-10.25,10.1-13,15.58C570.68,111.28,593.91,103.29,591.36,100.36Z"/><path class="cls-4" d="M609.08,63.79c-4.42-.63-7.75-2.9-8.83-2.92-2.17-.06,2,11.64,4.35,16.49C606.61,81.45,612.31,64.24,609.08,63.79Z"/><path class="cls-4" d="M589.54,24.57a.78.78,0,0,1,.14-.53,16.68,16.68,0,0,0,2.25-4.43,5,5,0,0,1,.66-1.45c.13-.12.3-.07.49.15,1.27,1.46,3.67,10.22,4.49,14.42a1.14,1.14,0,0,1-.05.83c-.46.71-2.66-1.24-4.51-3.36h0C591.43,28.39,589.58,25.84,589.54,24.57Z"/><path class="cls-4" d="M624,40.86a.76.76,0,0,1,.28-.5,16.91,16.91,0,0,0,3.53-4,5.23,5.23,0,0,1,1.08-1.31c.18-.1.36,0,.53.22,1.16,1.65,2.06,10.7,2.11,15a1,1,0,0,1-.24.8c-.69.63-2.81-1.67-4.49-4.06h0C625.37,45,623.79,42.12,624,40.86Z"/><path class="cls-3" d="M183.84,284.27c13.71,3.94,58.45,10.6,84.67-14.31-26.53,28.37-75.16,17.7-82,15.52C186.77,285.46,183.62,284.31,183.84,284.27Z"/><path class="cls-3" d="M221.59,300.41s30.36,16.74,71-5.21c-40.25,23.16-67.31,7.07-67.31,7.07Z"/><path class="cls-3" d="M478.87,285.16s10,.11,14.65-12.23c-3.77,12.54-12.31,12.23-12.31,12.23Z"/><path class="cls-9" d="M172.68,143.46l16.16-13.93s12.82-12.15,31.58,0c0,0-20.87-8.31-30.95,1.28Z"/><path class="cls-9" d="M176.94,130.21s-15.49-15.56-24.4-11.51c0,0-6.22,1.45-9.14,12.84,0,0,6.33-13,10.09-11.67C153.49,119.87,159.89,117.49,176.94,130.21Z"/><path class="cls-9" d="M5.57,203.18s-7.37-21.46,12.8-32.69c0,0,13.34-8.67,37.21,1.85C55.58,172.34,2.44,154,5.57,203.18Z"/><path class="cls-9" d="M559.4,178.7s10.31,23.77,6.61,37.55c0,0,35,21.11,46.83,37.84,0,0-15.57-26.19-43.28-38.41C569.56,215.68,569.27,188.46,559.4,178.7Z"/><path class="cls-9" d="M387.16,235.7s45.42-12.36,67.66,11.24c0,0,19.82,19.59-4.77,67.85,0,0,22.32-57.9-3.47-71.54C446.58,243.25,434.08,231.66,387.16,235.7Z"/></svg>