<svg id="Layer_1" data-name="Layer 1" xmlns="http://www.w3.org/2000/svg" viewBox="0 0 425 256"><defs><style>.cls-1{fill:#ffdea9;}.cls-2{fill:#b8765b;}.cls-3{fill:#7b523f;}.cls-4{fill:#e2b066;}.cls-5{fill:#dfc7a4;opacity:0.6;}.cls-13,.cls-16,.cls-5,.cls-8{isolation:isolate;}.cls-6{fill:#dd9c6e;}.cls-7{fill:#dee3d2;}.cls-17,.cls-8{fill:#ab745b;}.cls-13,.cls-8,.cls-9{opacity:0.4;}.cls-10{fill:#e17f3d;}.cls-11{fill:#fff;}.cls-12,.cls-13{fill:#abadb0;}.cls-14{fill:#412206;}.cls-15{fill:#8c4734;stroke:#5e312a;stroke-miterlimit:10;}.cls-16{fill:#422a26;opacity:0.5;}.cls-18{fill:#985a4d;}</style></defs><g id="fe600c76-b29e-4c29-a758-ec31c17c5712"><path class="cls-1" d="M171.61,111.51a39.39,39.39,0,0,0-16.9-3.8,26.12,26.12,0,0,0-6.8,1.1c-1.5,0-3,.1-4.5.2a102.75,102.75,0,0,0-17.2,4.2,166.44,166.44,0,0,0-30.3,13.2c-17.4,9.5-35.9,24.1-43.3,43.2-2.2,5.5-6,19,1.3,22.4,5,2.4,12.3-4.1,16-6.6,10-6.7,19.8-13.8,30.9-18.5,12.2-5.2,26.1-7,39.1-9,14.5-2.2,44-2.2,47.3-21.6C189.11,125.31,180.81,115.91,171.61,111.51Z"/><path class="cls-2" d="M56.41,193h0a5.83,5.83,0,0,1-2.6-.6c-8.7-4.1-2.4-21.1-1.6-23,8.5-21.7,31-36.5,43.6-43.4a170.45,170.45,0,0,1,30.4-13.2,101.53,101.53,0,0,1,17.3-4.2,31.08,31.08,0,0,1,4.3-.3h.2a31.14,31.14,0,0,1,6.8-1.1,39.47,39.47,0,0,1,17.2,3.7c9.2,4.5,17.7,14,15.9,25.2-2.8,16.9-24.5,19.3-40.3,21.1-2.7.3-5.2.6-7.4.9l-3,.5c-12.2,1.8-24.8,3.8-36,8.5-9.8,4.2-18.8,10.3-27.5,16.2l-3.3,2.3c-.6.4-1.3.9-2,1.4C64.91,189.61,60.41,193,56.41,193Zm91.3-83.7c-1.4,0-2.8.1-4.1.2a99.31,99.31,0,0,0-17.1,4.2,165.52,165.52,0,0,0-30.2,13.2c-12.5,6.8-34.7,21.5-43.1,42.9-.7,1.8-6.8,18.1,1.1,21.8a5.45,5.45,0,0,0,2.2.5c3.7,0,8.1-3.2,11.3-5.6.8-.6,1.4-1.1,2-1.5l3.3-2.2c8.7-5.9,17.7-12.1,27.6-16.3,11.3-4.8,24-6.7,36.2-8.6l3-.5c2.2-.3,4.7-.6,7.4-.9,15.5-1.7,36.8-4.1,39.4-20.3,1.8-10.7-6.4-19.8-15.3-24.2a36.93,36.93,0,0,0-16.6-3.7,29.26,29.26,0,0,0-6.6,1h-.5Z"/><path class="cls-3" d="M137.31,126.61a8.6,8.6,0,0,0,3.9-6,2.74,2.74,0,0,0-.6-2.1c-.8-1.5-2.6-1.8-4.1-2.3-1.9-.6-4.2-1.3-6.1-.3s-2.8,4-2.9,6a6.5,6.5,0,0,0,2.4,5.6C131.91,129.11,135.31,127.71,137.31,126.61Z"/><path class="cls-3" d="M95.91,141c1.4,1.4,3.3.1,4.6-.7a19.82,19.82,0,0,0,7.6-7.6c1.4-2.6,1.3-9.6-3.3-7.9-1.4.5-2.6,2.2-3.6,3.3a37.35,37.35,0,0,0-5.4,7.6C95.31,137,94.71,139.71,95.91,141Z"/><path class="cls-3" d="M62.91,186a9.36,9.36,0,0,0,5.6-1.8c.2-.1.3-.1.4-.2a4.1,4.1,0,0,0,1.8-3.7,1.08,1.08,0,0,0-.3-.7l-.1-.1h0c-.8-1-2.6-.2-3.6.2-1.4.6-2.8,1.3-4.2,1.9a3.85,3.85,0,0,0-2.3,2.2C59.71,185.71,61.51,186,62.91,186Z"/><path class="cls-3" d="M94.61,159a3.21,3.21,0,0,0,2.8-3.1v-.1c0-.2,0-.5-.2-.6-.7-.2-1.5.5-2,.9a2.71,2.71,0,0,0-1.1,2.5A.46.46,0,0,0,94.61,159Z"/><path class="cls-3" d="M59.91,169.41c2.2,0,6.2-1.4,7.3-3.8a3.19,3.19,0,0,0,.7-2.8c-.4-1.3-2.1-1.9-3.3-2.2-2.5-.7-6.7-.5-8,2.2S56.41,169.41,59.91,169.41Z"/><path class="cls-3" d="M54.41,182.81a2.23,2.23,0,0,0,2.5-.9,2.09,2.09,0,0,0,.6-.4,1.61,1.61,0,0,0,.2-2.3l-.1-.1c-1-1-3-.6-4.1,0a2,2,0,0,0-1,2.2A3.09,3.09,0,0,0,54.41,182.81Z"/><path class="cls-3" d="M69.71,159.91a4.46,4.46,0,0,0,3.8-2.8c.1-.1.2-.1.2-.2.5-.4,1-1.9,0-2.2a4.92,4.92,0,0,0-2.4.2,9.06,9.06,0,0,0-2.6,1.3C67.31,157.41,67.41,160,69.71,159.91Z"/><path class="cls-3" d="M59.81,190a1.59,1.59,0,0,0,.9-.9V189c.9-1.1-.7-2.4-1.5-2.9a9.39,9.39,0,0,0-4.7-1.2c-1.5.2-2,1.9-1.6,3.2C53.81,191.11,57.61,190.71,59.81,190Z"/><path class="cls-3" d="M120.31,122c1.6-.3,3.7-.8,4.5-2.3a2.27,2.27,0,0,0-.1-2.5,3.36,3.36,0,0,0-2.9-.8h-.4a4.66,4.66,0,0,0-4.8,3,2.24,2.24,0,0,0,.9,2.4A3.89,3.89,0,0,0,120.31,122Z"/><path class="cls-3" d="M144.51,117c2.5.4,5.2,1.4,7.7,1.2,1.7-.2,1.5-2.4,1.3-3.5-.4-1.9-2.9-3-4.5-3.7a12.62,12.62,0,0,0-4.6-1.6c-2.9-.4-7.2,2-5.4,5.5C140,116.81,142.81,116.71,144.51,117Z"/><path class="cls-3" d="M158.21,121.71c1.8,0,1.8-2.7,1.4-3.8a6.11,6.11,0,0,0-1.3-2.2,4.26,4.26,0,0,0-1.1-1.2c-.8-.7-1.7-.1-1.9.9a6.65,6.65,0,0,0,.7,3.7C156.41,120,157,121.61,158.21,121.71Z"/><path class="cls-3" d="M132.81,114c1.3-.2,3-.3,3.8-1.6a1.68,1.68,0,0,0-.2-1.8,1.55,1.55,0,0,0-1.4-.5,10.72,10.72,0,0,0-4.6,1.4c-.1.1-.2.2-.2.3a1.47,1.47,0,0,0-.6.5,1.21,1.21,0,0,0,.1,1.5C130.31,114.71,131.71,114.21,132.81,114Z"/><path class="cls-3" d="M111.21,142.41c1.9-.9,6.2-2.6,5.4-5.4-.5-1.9-2.8-1.4-4.3-1.1l-.9.2a6.5,6.5,0,0,0-3.1.4,11.88,11.88,0,0,0-3.6,3.1c-.8.9-2,1.9-2.2,3.2a1.77,1.77,0,0,0,.5,1.7C105.21,145.71,109.31,143.21,111.21,142.41Z"/><path class="cls-3" d="M124.61,131.21a2.87,2.87,0,0,0,1.9-1.1,1.75,1.75,0,0,0,.3-1.7c-.3-1.2-2.2-1.2-3.2-.8a2.23,2.23,0,0,0-.9,2.5A1.48,1.48,0,0,0,124.61,131.21Z"/><path class="cls-3" d="M89.71,136.41a5.42,5.42,0,0,0,2.5-.6c2.2-.9,4.6-2.4,5-4.6.1-.4,0-1.4-.6-1.5-1.7-.2-3.1,1.1-4.4,2s-3.1,1.8-3.2,3.6C88.91,135.71,89.11,136.41,89.71,136.41Z"/><path class="cls-3" d="M93.21,149.51a6.44,6.44,0,0,0,2.5-1.5c.7-.6,1.3-2,.5-2.8a2.11,2.11,0,0,0-2.3-.2h0a3,3,0,0,0-3.3,1.8,2.44,2.44,0,0,0,.4,2.8C91.61,150.11,92.61,149.71,93.21,149.51Z"/><path class="cls-3" d="M64.71,156a28.2,28.2,0,0,0,7.2-4c1.6-1.1,4-2.7,4-4.9,0-1.2-1-1.2-2.2-.6-1.8.3-3.1,1.5-4.4,2.6-1.7,1.5-4.3,3-5.2,5.1C63.91,154.71,63.91,156.21,64.71,156Z"/><path class="cls-3" d="M53.61,175.11c1.3.7,6.7-.9,6.2-2.9h0a.54.54,0,0,0-.2-.8h-.4c-.1-.1-.2-.1-.3-.2a.82.82,0,0,0-.6-.4c-1.5-.4-3.4.7-4.3,1.7C53.41,173.21,52.51,174.51,53.61,175.11Z"/><path class="cls-3" d="M73.21,171.41c.4-.1.4-.6.2-1a1990328647665,1990328647665,0,0,0-.2-.2c-.2-.2-.5-.2-.6,0h0c-.3,0-.6.1-.8.1s-.3.6-.1.8A1.63,1.63,0,0,0,73.21,171.41Z"/><path class="cls-4" d="M171.61,111.51a39.39,39.39,0,0,0-16.9-3.8,26.12,26.12,0,0,0-6.8,1.1c-1.5,0-3,.1-4.5.2a102.75,102.75,0,0,0-17.2,4.2,140.58,140.58,0,0,0-14.1,5.3,33.93,33.93,0,0,0,5.1,11.3,70.63,70.63,0,0,0,5.7,7.8c1.8,1.9,3.7,3.6,5.4,5.6,2.5,3,3.2,6.4-.7,8.4-2.1,1.1-4.7,1.2-6.9,1.9a92.5,92.5,0,0,0-12.1,4.4c-14.7,6.4-27.7,14.9-40.3,24.8-2.6,2.1-5.1,4.3-7.7,6.4-1.7,1.4-3.7,3-5.9,3.1h-.1c5,1.6,11.9-4.4,15.4-6.9,10-6.7,19.8-13.8,30.9-18.5,12.2-5.2,26.1-7,39.1-9,14.5-2.2,44-2.2,47.3-21.6C189.11,125.31,180.81,115.91,171.61,111.51Z"/><path class="cls-5" d="M93.71,132.11c-9.2,4.9-19.1,9.9-26.3,17.8-6.9,7.5-13.7,16.8-13.8,27.4,0,.7,1,0,1-.4,3.5-20.6,22.8-34,39.3-44.2C94.31,132.41,94.31,131.81,93.71,132.11Z"/><path class="cls-6" d="M115.91,105.91s-6.9,6-1.4,16.2,20.6,36,85.7,36.8,134.2-3.4,158.5-49.5Z"/><path class="cls-2" d="M213.21,159.51h0c-4.1,0-8.3,0-13-.1-66.5-.8-81.3-28.1-86.1-37.1-5.6-10.4,1.4-16.7,1.5-16.8a.37.37,0,0,1,.3-.1l242.8,3.5a.52.52,0,0,1,.4.2.45.45,0,0,1,0,.5C336,153.61,272.41,159.51,213.21,159.51Zm-97.1-53.1c-.9.9-6,6.5-1.1,15.5,4.8,8.8,19.3,35.7,85.2,36.5,4.6.1,8.9.1,13,.1,58.6,0,121.5-5.8,144.7-48.6Z"/><path class="cls-6" d="M176.51,154.41c-25.2-6-50.8-20.7-63.3-44.1-1,2.8-1.3,6.8,1.4,11.7,5.5,10.2,20.6,36,85.7,36.8,4.2.1,8.4.1,12.5.1C200.61,158.31,188.41,157.31,176.51,154.41Z"/><path class="cls-7" d="M228.21,158c1-1.2,10.4-13.4,5.5-14.2-2.3-.4-5,1.6-6.8,2.7-2.8,1.9-5.6,3.9-8.2,6s-5.1,4.4-7.7,6.5c5.5,0,11,0,16.5-.1A5.5,5.5,0,0,0,228.21,158Z"/><path class="cls-7" d="M256.71,143.71c-5.6-1-11.4,5-14.9,8.6a81.43,81.43,0,0,0-5.4,6.3c6.3-.2,12.6-.6,18.7-1C257.81,151.51,260.31,144.31,256.71,143.71Z"/><path class="cls-8" d="M374.71,111.61c-5.3-1.7-9.1-4.9-12.7-8.6-12.4,19.3-35,30.3-56.6,36.8-17,5.1-34.7,8.1-52.3,10l-1.2.1c4.5.2,9,.2,13.5.3a234.94,234.94,0,0,0,23.7-1.1c26.7-2.6,51.3-13.2,74.3-26.6C363.51,122.41,377.81,112.51,374.71,111.61Z"/><path class="cls-8" d="M273.81,90.71a43.76,43.76,0,0,1,1.9-7.1,12.54,12.54,0,0,1-5.5,2.5,15.62,15.62,0,0,1-7.4-.9c7.4,8.9,9,20.7,12.2,31.9C273.61,108.31,272.21,99.31,273.81,90.71Z"/><path class="cls-8" d="M167.51,77.21c2.5-2.4,5.1-4.6,7.6-6.9-8.3,4.7-16.2,13.7-25.2,15.1,6.7,4,12.3,10.4,18.4,15.3a36.36,36.36,0,0,0-6.9-9.2c-1.9-1.7-2.6-3.7-1.4-6.2C161.51,81.81,164.81,79.71,167.51,77.21Z"/><path class="cls-8" d="M225.51,86.31c2.5-2,5.2-3.7,7.7-5.7-4.2.7-8.5,1.3-12.5-.4a17,17,0,0,1-5.5-4,25.33,25.33,0,0,1,.5,17.6c-3.1,8.9-7.1,17.5-8.2,26.8,3.8-7.9,6.3-16.4,10.2-24.2A26.5,26.5,0,0,1,225.51,86.31Z"/><path class="cls-1" d="M127.71,79.41c-6.1-1.8-9.4,6.8-13.4,9.3-8.2,5.2-13.3-3.7-17.6-9.2-6.1-7.9-14.8-12.6-24.7-14.3-11.1-1.9-22.7-.3-33.6,2.2-5.3,1.2-10.4,3.9-15.8,4.1C13,71.81,7.91,87.21,7,92c-.6,3.1-2.5,13.7-3.9,14.5v.2a29,29,0,0,0,10.8,3.4,92.57,92.57,0,0,0,12.9-.1c9.2-.4,18.5-1.1,27.7-1.1.5,0-27.5,7.9-32.1,8.7-4.7,5.2,10.7,21.2,70.6,2.2,0,0,94.1,39.3,155.3-8C248.51,102.11,142.61,83.81,127.71,79.41Z"/><path class="cls-2" d="M172.11,135.51h0c-40.6,0-76.4-14.2-79.2-15.3-18.9,6-35,9-47.8,9-14.9,0-22-4.1-23.6-7.9a3.62,3.62,0,0,1,.5-4.1c.1-.1.2-.1.3-.2,3.5-.5,21.3-5.5,28.8-7.6-5.8.1-11.6.4-17.3.7l-7,.3-2.1.1c-2.2.1-4.4.2-6.6.2-1.5,0-2.9-.1-4.2-.2A27.93,27.93,0,0,1,3,107a.52.52,0,0,1-.2-.4v-.2a.76.76,0,0,1,.2-.5c.6-.4,2-5,3.6-14.2.7-4.1,5.9-20.6,16.1-20.9a34.08,34.08,0,0,0,9.8-2.3,57.57,57.57,0,0,1,5.9-1.8,108.83,108.83,0,0,1,23.4-3.1,72.84,72.84,0,0,1,10.4.8c10.4,1.8,19.1,6.8,25.1,14.5a22,22,0,0,0,1.4,1.8c3,4.1,6.5,8.7,11,8.7a9.64,9.64,0,0,0,4.6-1.5,20.1,20.1,0,0,0,3.8-3.9c2.2-2.7,4.8-5.8,8.2-5.8a5.66,5.66,0,0,1,1.8.3c4,1.2,14.9,3.5,28.7,6.3,48.7,10.1,92.4,19.7,92.1,26.5a.76.76,0,0,1-.2.4C228.41,127.71,202.71,135.51,172.11,135.51Zm-79.2-16.3h.2c.4.2,37.1,15.3,79,15.3h0c30.3,0,55.7-7.8,75.6-23-1.1-6.6-59.7-18.7-91.3-25.3-13.8-2.8-24.7-5.1-28.8-6.3a7.72,7.72,0,0,0-1.5-.2c-2.9,0-5.2,2.8-7.4,5.4a17.73,17.73,0,0,1-4.1,4.1,9.32,9.32,0,0,1-5.1,1.6c-5,0-8.6-4.8-11.8-9.1-.5-.6-.9-1.2-1.4-1.8-5.7-7.6-14.2-12.5-24.4-14.2a58.45,58.45,0,0,0-10.2-.8,101.08,101.08,0,0,0-23.2,3,55.75,55.75,0,0,0-5.8,1.8A34.53,34.53,0,0,1,22.61,72c-9.5.3-14.4,16.2-15.1,20.1-1,5.7-2.4,12.5-3.7,14.4a27.61,27.61,0,0,0,10.1,3.1c1.3.1,2.6.2,4.2.2,2.2,0,4.4-.1,6.5-.2l2.1-.1,7-.3c6.8-.4,13.8-.7,20.8-.7h0a.47.47,0,0,1,.5.5c0,.2,0,.3-.5.5h0c-1.1.5-4.4,1.4-14.2,4.1-5.4,1.5-14.8,4-17.7,4.5a2.58,2.58,0,0,0-.3,2.9c1.5,3.4,8.3,7.3,22.7,7.3,12.9-.1,29-3.1,47.9-9.1Z"/><path class="cls-3" d="M33.51,75.11c-.5-2.2-3.1-2-4.9-2a23.91,23.91,0,0,0-11.8,2.8c-2.9,1.7-7,8.5-1.5,9.5,1.7.3,3.8-.6,5.4-1.1a37.07,37.07,0,0,0,9.6-4.1C31.71,79.31,33.91,77.11,33.51,75.11Z"/><path class="cls-3" d="M55.71,70.51c-.2-1.5-2.6-1.5-3.6-1.5a18.35,18.35,0,0,0-4.7.6,21.36,21.36,0,0,0-3.5.6c-1.4.3-4.2.8-4.9,2.4-1.3,3.1,5.1,4.2,7.2,4.4C49.21,77.21,56.21,74.61,55.71,70.51Z"/><path class="cls-3" d="M34.91,78a8.56,8.56,0,0,0-4.1,3.2c-.2.2-.3.4-.5.6-.5.6-1.3,1.8-1.1,2.6.6,2.2,4,.8,5.2.2,1.8-.8,4.6-2.7,4.7-4.9C39.31,77.21,36.51,77.41,34.91,78Z"/><path class="cls-3" d="M62.91,74.21c-1,.3-3.7,1.2-4.6,2.5-1.6.7-2.9,1.8-1.8,3.4s5.4.1,6.6-.3c1.9-.6,5-1.7,5.5-4C69.21,72.91,64.41,73.81,62.91,74.21Z"/><path class="cls-3" d="M69,67.81a10.54,10.54,0,0,0-6.5-1.6h-.6a4.4,4.4,0,0,0-3.9,2.6,2.77,2.77,0,0,0-.1.9v.1h0c.2,1.5,2.4,1.7,3.6,1.9,1.7.3,3.5.4,5.2.7a4.06,4.06,0,0,0,3.5-.8C71.91,70.11,70.31,68.71,69,67.81Z"/><path class="cls-3" d="M38.61,68.91a3.9,3.9,0,0,0-4.6,1.3h0c-.1.2-.3.6-.1.8.6.6,1.7.4,2.5.3a3.13,3.13,0,0,0,2.5-1.8A.71.71,0,0,0,38.61,68.91Z"/><path class="cls-3" d="M79.91,79.31c-2.1-1.3-6.8-2.4-9.3-.7a3.67,3.67,0,0,0-2.4,2.3c-.4,1.5.9,3.1,1.8,4.1,2,2.1,6.2,4.5,9,2.6S83.21,81.41,79.91,79.31Z"/><path class="cls-3" d="M79.11,69.81a2.62,2.62,0,0,0-3-.6h-.8a1.81,1.81,0,0,0-1.5,2.1v.1c.3,1.6,2.5,2.4,3.9,2.4a2.37,2.37,0,0,0,2.3-1.5A2.91,2.91,0,0,0,79.11,69.81Z"/><path class="cls-3" d="M86,73.21a2.16,2.16,0,0,0-1.9.5H84c-2,.8-1.1,3.6-.3,4.9,1.2,2,2.9,4.3,5.1,5.2s4.1-.9,4.6-2.8C94.61,76.71,89.51,74.11,86,73.21Z"/><path class="cls-3" d="M29.11,86.61a1.14,1.14,0,0,0-1.5-.6c-.1,0-.2.1-.3.2a3.9,3.9,0,0,0-1.8,2.7,2,2,0,0,0,.1.8,1.79,1.79,0,0,0,.4,1.4c.6.6,1.5-.1,2-.6a3.09,3.09,0,0,0,1.1-2A2.12,2.12,0,0,0,29.11,86.61Z"/><path class="cls-3" d="M63.11,91.91c-.8-2.1-3.2-2.8-5.2-3.3a5.21,5.21,0,0,0-5.2,1.1,8.21,8.21,0,0,0-1.6,2.5,19.65,19.65,0,0,0-1.3,2.5c-.3,1.2-.5,2.3-.7,3.5a5.34,5.34,0,0,0-.2,2.2c.4,1.8,2,1,3.1.3,2.7-1.8,5.7-2.8,8.4-4.5C61.41,95.41,63.71,93.51,63.11,91.91Z"/><path class="cls-3" d="M70,87.21a4.68,4.68,0,0,0-2.8-.9,2.21,2.21,0,0,0-1.9,2.4,4.14,4.14,0,0,0,1.7,2.2,2.7,2.7,0,0,1,.8.7l.6.6a2.24,2.24,0,0,0,3.2-.3h0C73.21,90.11,71.61,88.11,70,87.21Z"/><g class="cls-9"><path class="cls-4" d="M52.41,108.91a15.46,15.46,0,0,0,7.3-2.1c-.7-.2-1.3-.4-2-.6a23.18,23.18,0,0,0-5.9-.2c-3.9.4-7.8.9-11.7,1.2-8.1.6-16.4,1.3-24.5-.2-5.1-1-8.5-3.8-8.6-9.2a43.18,43.18,0,0,1,1-9.5c-.4,1.2-.7,2.5-1,3.8-.6,3.1-2.5,13.7-3.9,14.5v.2a28.56,28.56,0,0,0,10.7,3.4,92.57,92.57,0,0,0,12.9-.1C35.31,109.61,43.81,109,52.41,108.91Z"/><path class="cls-10" d="M127.71,79.41c-6.1-1.8-9.4,6.8-13.4,9.3-8.2,5.2-13.3-3.7-17.6-9.2-6.1-7.9-14.8-12.6-24.7-14.3a55.94,55.94,0,0,0-9.1-.8c2.5.4,5.1.9,7.6,1.5a49.05,49.05,0,0,1,19,8.3,28.74,28.74,0,0,1,11,15.9c1.7,7.1-.1,13.5-1.1,20.4a62.14,62.14,0,0,0,4.2-8.1c.9-2,1.9-5.4,4-6.6,2.4-1.3,5.2-.9,7.8-.8a29.76,29.76,0,0,1,7.8,1.4,25.68,25.68,0,0,1,12.3,8.5c2.8,3.7,5.2,9.3,3.6,13.9-1.4,4.1-7.2,4.4-10.7,4.3a92.66,92.66,0,0,1-21-2.4c-2.6-.7-5.2-1.2-7.7-2-1.3-.4-3.6-.9-4.4-2.2-1-1.8.3-4.6.3-6.5a32.87,32.87,0,0,0-1.1-9.3c-.8,3.8-1.8,7.8-3.9,11-2.5,3.9-6.2,6.7-10,9.2a71.36,71.36,0,0,1-7.1,4c5.9-1.3,12.3-3.1,19.3-5.3,0,0,94.1,39.3,155.3-8C248.51,102.11,142.61,83.81,127.71,79.41Z"/></g><path class="cls-11" d="M45.41,92.51c0,4.3-2.8,7.8-6.3,7.8s-6.3-3.5-6.3-7.8,2.8-7.8,6.3-7.8S45.41,88.21,45.41,92.51Z"/><path class="cls-12" d="M39.11,100.81c-3.8,0-6.8-3.7-6.8-8.2s3.1-8.2,6.8-8.2,6.8,3.6,6.8,8.1S42.91,100.81,39.11,100.81Zm0-15.5c-3.2,0-5.8,3.3-5.8,7.3s2.6,7.3,5.8,7.3,5.8-3.3,5.8-7.3S42.31,85.31,39.11,85.31Z"/><path class="cls-13" d="M39.11,84.81c-3.5,0-6.3,3.5-6.3,7.8s2.8,7.8,6.3,7.8,6.3-3.5,6.3-7.8S42.61,84.81,39.11,84.81Zm0,14c-2.9,0-5.3-2.9-5.3-6.5s2.4-6.5,5.3-6.5,5.3,2.9,5.3,6.5-2.4,6.5-5.3,6.5Z"/><path class="cls-14" d="M43.51,94c.3,2.4-.8,4.6-2.5,4.8s-3.4-1.6-3.7-4,.8-4.6,2.5-4.8S43.21,91.61,43.51,94Z"/><path class="cls-11" d="M38.71,91.91a.89.89,0,0,1-.6,1.1c-.4.1-.8-.3-.9-.9a.89.89,0,0,1,.6-1.1C38.21,90.91,38.61,91.41,38.71,91.91Z"/><path class="cls-5" d="M45.61,114.31a49.79,49.79,0,0,0,11.8-4,.19.19,0,0,0-.3,0c-4.5,1.3-9.1,2.4-13.6,3.6-3.2.9-7,2.6-10.5,3.1C37.11,117.11,41.91,115.21,45.61,114.31Z"/><path class="cls-3" d="M158,120a2.3,2.3,0,0,0-3,.5c-.1,0-.2.1-.3.2a2.82,2.82,0,0,0-.9,3.5,3.11,3.11,0,0,0,2,2.3,3.15,3.15,0,0,0,2.8-1.3,3,3,0,0,0,.8-2.2A4.47,4.47,0,0,0,158,120Z"/><path class="cls-3" d="M117.41,99.11a4.29,4.29,0,0,0-2.1-2.3,3.82,3.82,0,0,0-4.1,2,4.14,4.14,0,0,0-.5,1.9v.6h0c.2,2,1.7,4.2,3.6,4.2a4,4,0,0,0,3.4-2.4A4.08,4.08,0,0,0,117.41,99.11Z"/><path class="cls-3" d="M122.61,99.81l-.1-.2c-.2-.6-1.1-.2-1.4.1s-.9,1.1-.2,1.4l.2.1C121.81,101.31,122.81,100.51,122.61,99.81Z"/><path class="cls-1" d="M350,214.31c-9.1-10.3-22-16.6-34.1-23.6-10.5-6.1-21.2-11.9-32.2-17.2-5.5-2.7-11-5.4-15.9-9.1s-7.9-8.4-11.5-12.8c-6.3-7.8-15.6-13.5-25.2-17.5-4-1.7-9.3-3.4-13.5-3.6-3.9-.2-7.2,1.3-10.5,2.6a34.26,34.26,0,0,0-4.8,1.9,71.78,71.78,0,0,0-15.1,9c-8.8,6.8-11.9,15.1-6.4,25.6s17.6,18.7,28.6,24.8c13.9,7.8,29.3,13.6,44.6,18.5,28.6,9.3,58.7,14.7,88.1,13.6,3.8-.1,7.7-.8,10.3-3.2S352.11,216.71,350,214.31Z"/><path class="cls-2" d="M334.31,227.11c-25.2,0-52.4-4.6-80.6-13.8-18.4-6-32.6-11.9-44.6-18.6-9.5-5.3-22.7-13.6-28.8-25-5.3-10-3.1-18.8,6.6-26.2a75.13,75.13,0,0,1,15.2-9l.4-.2a34.72,34.72,0,0,1,4.5-1.7l.6-.2c3.1-1.3,6.3-2.6,10-2.4,5.1.3,11.3,2.6,13.7,3.7,11.1,4.7,19.7,10.6,25.4,17.7.8,1,1.6,2,2.4,3.1a48,48,0,0,0,9,9.6,91.83,91.83,0,0,0,15.8,9c10.2,5,20.8,10.6,32.3,17.2,1.9,1.1,3.8,2.1,5.7,3.2,10.2,5.8,20.8,11.7,28.5,20.5,3.8,4.4,4.6,7.6,2.3,9.7-2.9,2.7-7.2,3.2-10.6,3.3C339.51,227.11,336.91,227.11,334.31,227.11Zm-117.5-96.2c-3.3,0-6,1.1-8.9,2.4l-.7.3a33.36,33.36,0,0,0-4.4,1.7l-.4.2a78.05,78.05,0,0,0-15,8.9c-9.3,7.1-11.4,15.3-6.3,24.9,5.9,11.2,19,19.4,28.4,24.6,12,6.7,26.1,12.5,44.5,18.5,31,10,60.7,14.6,88,13.6,4.8-.2,7.9-1.1,10-3,1.9-1.7,1.1-4.5-2.4-8.3-7.6-8.6-18.1-14.5-28.3-20.3-1.9-1.1-3.8-2.1-5.7-3.2-11.5-6.6-22-12.3-32.2-17.2-5.9-2.9-11.2-5.5-15.9-9.1-3.7-2.8-6.5-6.4-9.2-9.8-.8-1-1.6-2.1-2.4-3.1-5.6-6.9-14-12.7-25-17.4-2.4-1-8.4-3.3-13.4-3.6Z"/><path class="cls-3" d="M204.51,167.81a9.71,9.71,0,0,0-8,.2,3.33,3.33,0,0,0-1.6,1.9c-.9,1.7,0,3.6.5,5.3.7,2.2,1.4,4.8,3.6,5.9s5.4.1,7.4-1.1a7.29,7.29,0,0,0,3.7-5.8C210.21,171.21,206.71,169,204.51,167.81Z"/><path class="cls-3" d="M241.71,196.91c.4-2.2-2-3.1-3.6-3.9a22.25,22.25,0,0,0-11.9-2.2c-3.3.4-9.8,4.9-5.2,8.1,1.4,1,3.7,1,5.4,1.2a37,37,0,0,0,10.5.2C238.41,200,241.41,198.91,241.71,196.91Z"/><path class="cls-3" d="M276.81,195.51c.5-1.4-1.8-2.4-2.7-2.9a18.79,18.79,0,0,0-4.6-1.4,18.87,18.87,0,0,0-3.4-.9c-1.4-.3-4.2-1-5.5.2-2.5,2.3,2.9,6,4.7,6.9C268.21,198.91,275.61,199.41,276.81,195.51Z"/><path class="cls-3" d="M264.21,208.41c.5-1.4-1.8-2.4-2.7-2.9a18.79,18.79,0,0,0-4.6-1.4,18.87,18.87,0,0,0-3.4-.9c-1.4-.3-4.2-1-5.5.2-2.5,2.3,2.9,6,4.7,6.9C255.51,211.81,263,212.31,264.21,208.41Z"/><path class="cls-3" d="M254.71,193.81a8.65,8.65,0,0,0-5,1.2l-.7.3c-.7.4-1.9,1.1-2,1.9-.4,2.2,3.3,2.4,4.7,2.4,2,0,5.3-.6,6.3-2.6S256.51,193.91,254.71,193.81Z"/><path class="cls-3" d="M281.91,201.81c-1.1-.1-3.8-.4-5.2.4-1.8,0-3.4.4-3.1,2.3s4.9,2.3,6.2,2.5c1.9.3,5.3.5,6.6-1.4C288.21,203.11,283.41,202,281.91,201.81Z"/><path class="cls-3" d="M302.11,200.41a10.8,10.8,0,0,0-5.3-4.1l-.5-.2a4.54,4.54,0,0,0-4.6.7,1.79,1.79,0,0,0-.5.7v.1h0c-.4,1.4,1.5,2.5,2.5,3.2,1.5,1,3,1.8,4.5,2.7a4,4,0,0,0,3.5.7C303.81,203.61,303,201.71,302.11,200.41Z"/><path class="cls-3" d="M261.91,187a3.66,3.66,0,0,0-4.7-.6h0c-.2.1-.5.3-.4.6.3.8,1.4,1.1,2.1,1.3a3.25,3.25,0,0,0,3-.6A.85.85,0,0,0,261.91,187Z"/><path class="cls-3" d="M295.31,213.41c-1.4-2.1-5.2-4.9-8.2-4.4a3.62,3.62,0,0,0-3.1,1.2c-1,1.2-.4,3.2,0,4.4.9,2.8,3.8,6.6,7.2,6S297.51,216.71,295.31,213.41Z"/><path class="cls-3" d="M343.11,216.11c-2.1-1.4-6.7-2.6-9.2-.9a3.67,3.67,0,0,0-2.4,2.3c-.5,1.5.8,3.1,1.7,4.1,1.9,2.2,6.1,4.6,8.9,2.8S346.51,218.41,343.11,216.11Z"/><path class="cls-3" d="M309.71,209.31a2.55,2.55,0,0,0-2.4-1.8,1.91,1.91,0,0,0-.8-.3,1.85,1.85,0,0,0-2.3,1.3v.1c-.3,1.6,1.3,3.2,2.6,3.8a2.27,2.27,0,0,0,2.7-.4A2.87,2.87,0,0,0,309.71,209.31Z"/><path class="cls-3" d="M278.61,209.61a5,5,0,0,0-5-1.7l-.3-.1c-.7-.2-2.4.3-2,1.4a5,5,0,0,0,1.7,2.1,9,9,0,0,0,2.9,1.6C277.91,213.51,280.21,211.71,278.61,209.61Z"/><path class="cls-3" d="M190.81,167.11c-1.2-2.6-2-5.7-3.8-8-1.2-1.5-3.2.1-4,1-1.5,1.6-1,4.6-.6,6.6a12.84,12.84,0,0,0,1.5,5.3c1.5,2.9,6.5,5.4,8.6,1.5C193.51,171.51,191.71,168.91,190.81,167.11Z"/><path class="cls-3" d="M186.51,151.41c-1.1-1.7-3.7,0-4.5,1.1a9.06,9.06,0,0,0-1.3,2.6,5.84,5.84,0,0,0-.4,1.8c-.1,1.2,1,1.7,2.1,1.2a7.23,7.23,0,0,0,3-3C186,154.11,187.21,152.61,186.51,151.41Z"/><path class="cls-3" d="M230.81,181c-2-1.2-6.4-4.2-8.6-1.6-1.5,1.7.5,3.5,1.8,4.7.3.2.5.5.8.7a6.71,6.71,0,0,0,2.4,2.6c1.3.9,3.6,1.2,5.1,1.4s3,.6,4.4,0c.6-.2,1.4-.9,1.3-1.6C237.71,184.41,232.81,182.21,230.81,181Z"/><path class="cls-3" d="M246,188.11a8.26,8.26,0,0,0-3-1.4,2.27,2.27,0,0,0-2.9,1.4,2.47,2.47,0,0,0,1.2,2.3v.1c.4,1.4,2.4,2.2,3.8,1.9a2.78,2.78,0,0,0,2.3-2.1C247.61,189.21,246.71,188.61,246,188.11Z"/><path class="cls-3" d="M310.91,221.31c-.3-3-8.8-9.9-11.5-6.8h-.1c-.5-.1-1.2.6-1,1.1a4.35,4.35,0,0,0,.4.7v.7a2,2,0,0,0,0,1.5c1,2.8,4.9,4.6,7.6,5.1C307.91,223.91,311.11,223.81,310.91,221.31Z"/><path class="cls-4" d="M350,214.31c-9.1-10.3-22-16.6-34.1-23.6-10.5-6.1-21.2-11.9-32.2-17.2-5.5-2.7-11-5.4-15.9-9.1s-7.9-8.4-11.5-12.8c-6.3-7.8-15.6-13.5-25.2-17.5-4-1.7-9.3-3.4-13.5-3.6-3.9-.2-7.2,1.3-10.5,2.6a34.26,34.26,0,0,0-4.8,1.9,78.64,78.64,0,0,0-9.9,5.3,12.14,12.14,0,0,1,4.7,2.3,32.16,32.16,0,0,1,8.6,11.4c.7-2.6,1.4-5.4,4.8-5.3,3.7.2,7.2,1.7,10.8,2.8,10.3,3.1,18.6,9.5,26.9,16.2-1.2-2.6-3-5-4.1-7.6a.74.74,0,0,1,.4-.9.47.47,0,0,1,.6.1,154.13,154.13,0,0,0,42,25.9c9.5,3.8,19.1,7.1,28.4,11.4,9.6,4.4,19.4,9.7,26.6,17.6a33.85,33.85,0,0,1,7.1,11.2,11.22,11.22,0,0,0,3.3-2C355.11,220.81,352.11,216.71,350,214.31Z"/><path class="cls-1" d="M417.71,120c-3.9-1.2-8-.1-11.9.8a117.31,117.31,0,0,1-19.6,2.9,57,57,0,0,1-20.5-2.2c-5.2-1.5-10.5-3.2-16-2.8-8.9.8-16.7,5-20.3,13.6a20.92,20.92,0,0,0-1.6,5.4c0,.2,0,.4.2.4-1.1,2.5-1.9,5.2-1.5,7.6,1.7,10.4,14.9,11.9,23.3,12.1,22.2.6,46-8.5,63.4-22C417.11,132.71,427.21,122.81,417.71,120Z"/><path class="cls-2" d="M351.81,158.31h-2c-14.7-.4-22.5-4.5-23.8-12.5a14.2,14.2,0,0,1,1.4-7.6,1.27,1.27,0,0,1-.1-.6,20.68,20.68,0,0,1,1.7-5.5c3.4-8.1,10.8-13,20.7-13.9.6,0,1.2-.1,1.9-.1,4.6,0,9.1,1.3,13.5,2.7l.8.2a58.18,58.18,0,0,0,20.3,2.2,116.15,116.15,0,0,0,19.5-2.9l.4-.1A35.11,35.11,0,0,1,414,119a17.37,17.37,0,0,1,3.9.5c2.5.7,3.9,2,4.2,3.8.8,4.3-5.3,10.3-8.6,12.9C395.61,150,372.51,158.31,351.81,158.31Zm-23.5-20.6.1.1a.3.3,0,0,1,0,.4c-1.3,3-1.8,5.4-1.5,7.3,1.2,7.5,8.7,11.3,22.8,11.7h2c20.5,0,43.3-8.2,61-21.9,3.5-2.7,8.9-8.4,8.2-11.9-.2-1.4-1.4-2.4-3.5-3a14.87,14.87,0,0,0-3.6-.5,32.56,32.56,0,0,0-7.6,1.2l-.4.1a120,120,0,0,1-19.7,2.9,57.53,57.53,0,0,1-20.6-2.2l-.8-.2c-4.3-1.3-8.7-2.6-13.2-2.6a10.87,10.87,0,0,0-1.8.1c-9.6.8-16.6,5.5-19.9,13.3a44.44,44.44,0,0,0-1.5,5.2Z"/><path class="cls-3" d="M359.21,148.61c-.5-1.6-2.3-1.4-3.6-1.3a17.43,17.43,0,0,0-8.4,2.4c-2,1.3-4.8,6.4-.8,6.9,1.2.2,2.7-.6,3.9-1a28.52,28.52,0,0,0,6.8-3.3C358.11,151.71,359.61,150,359.21,148.61Z"/><path class="cls-3" d="M368.91,140.71a6,6,0,0,0-2.8,2.4c-.1.1-.2.3-.3.4-.3.4-.9,1.3-.7,1.9.5,1.5,2.9.5,3.8,0,1.3-.6,3.2-2.1,3.2-3.7S370,140.21,368.91,140.71Z"/><path class="cls-3" d="M371.31,134a2.55,2.55,0,0,0-3.2,1.1h0c-.1.1-.2.4-.1.5a1.9,1.9,0,0,0,1.8.1,2,2,0,0,0,1.7-1.4A1.44,1.44,0,0,0,371.31,134Z"/><path class="cls-3" d="M401,136.71c-1.6-.9-5-1.5-6.7-.2a2.62,2.62,0,0,0-1.6,1.8c-.3,1.1.8,2.2,1.5,2.9,1.5,1.5,4.6,3,6.6,1.6S403.51,138.11,401,136.71Z"/><path class="cls-3" d="M408.81,133.51a1.86,1.86,0,0,0-2.1-.4h-.6a1.2,1.2,0,0,0-1,1.5v.1c.3,1.1,1.9,1.6,2.9,1.6a1.71,1.71,0,0,0,1.6-1.2A2.25,2.25,0,0,0,408.81,133.51Z"/><path class="cls-3" d="M389.41,143.21a3.52,3.52,0,0,0-3.8.5h-.2c-.5.1-1.5,1-.9,1.6a3.7,3.7,0,0,0,1.8.8,6.47,6.47,0,0,0,2.4.1C390.21,145.91,391.11,144,389.41,143.21Z"/><path class="cls-3" d="M382.91,143.21c-.2-.7-.8-2-1.7-1.8-.1,0-.3.1-.4.1h-.3a1.3,1.3,0,0,0-.8,1.2c.1.8,1.3,1.4,2,1.6A1,1,0,0,0,382.91,143.21Z"/><path class="cls-3" d="M410.51,128.21a.81.81,0,0,0-.9.3h-.1c-1,.4-.4,1.9,0,2.5a6.52,6.52,0,0,0,2.7,2.5,1.83,1.83,0,0,0,2.2-1.3V132C414.81,129.81,412.31,128.61,410.51,128.21Z"/><path class="cls-3" d="M339.31,151.11c-1.2-.4-2.9-.9-4.1-.1a2,2,0,0,0-.9,1.9c.2.9.9,1.3,1.7,1.7l.3.1a3.63,3.63,0,0,0,4.6-.3,1.83,1.83,0,0,0,.3-2.1A3.87,3.87,0,0,0,339.31,151.11Z"/><path class="cls-3" d="M349.21,140.21c-1.7-.1-5.5-.6-6,1.7-.4,1.6,1.5,2.1,2.6,2.5.2.1.5.1.8.2a5,5,0,0,0,2.4.9,8.38,8.38,0,0,0,3.8-.8,6.19,6.19,0,0,0,2.8-1.4c.3-.3.6-1,.3-1.4C354.81,140.21,351,140.41,349.21,140.21Z"/><path class="cls-3" d="M365.81,152.11a4.55,4.55,0,0,0-2-.5c-1.9-.2-4.2-.1-5.4,1.3-.2.3-.6,1-.2,1.3,1.1.9,2.7.4,3.9.4s2.9,0,3.7-1.3C366.11,152.91,366.21,152.31,365.81,152.11Z"/><path class="cls-3" d="M386.21,147.61a24.06,24.06,0,0,0-6.5,1.2c-1.5.4-3.8,1.1-4.4,2.8-.3.9.5,1.2,1.6,1.1a7.28,7.28,0,0,0,4.1-.9c1.7-.7,4.1-1.2,5.3-2.7C386.51,148.81,386.81,147.61,386.21,147.61Z"/><path class="cls-3" d="M390.91,134.21v.2a.55.55,0,0,0,.5.3h0a1.45,1.45,0,0,0,.7.2c.2.1.4-.3.4-.5"/><path class="cls-4" d="M326.51,145.41c3.5-4.7,9.3-7.9,14.9-9.8,8.7-3,17.2-3.4,26.3-3.3,15.7.3,38,.9,48.2-12.7-3.3-.4-6.8.4-10,1.2a117.31,117.31,0,0,1-19.6,2.9,57,57,0,0,1-20.5-2.2c-5.2-1.5-10.5-3.2-16-2.8-8.9.8-16.7,5-20.3,13.6a20.92,20.92,0,0,0-1.6,5.4c0,.2,0,.4.2.4A12.29,12.29,0,0,0,326.51,145.41Z"/><path class="cls-5" d="M400.41,141.81c-10.2,3-20,6.6-30.5,8.4a145.89,145.89,0,0,1-17.5,1.6c-5.7.2-11.2-.1-15.8-3.8-.3-.3-1.1.3-.8.7,7.4,8.4,19.8,6.4,29.7,5.3,11.9-1.2,24.5-5.8,35.1-11.2C401.11,142.51,401.31,141.61,400.41,141.81Z"/><path class="cls-15" d="M374.71,111.61c-9.3-2.9-14.1-10.7-20.9-17.7-7.2-7.5-48.3-44.2-64.2-51.7a146.44,146.44,0,0,0-35.9-11.1c-25.3-4.6-102.8-8-138.7,54.2a11.45,11.45,0,0,0-1.5,3.6,38.94,38.94,0,0,1,10.7,1.5c8.1,2.4,14.7,7.4,20.6,13.3,12.9,12.8,23.8,27.1,41.2,34.1,25.1,10.1,52.6,12.4,79.5,12.4a234.94,234.94,0,0,0,23.7-1.1c26.7-2.6,51.3-13.2,74.3-26.6C363.51,122.41,377.81,112.51,374.71,111.61Z"/><path class="cls-16" d="M374.71,111.61c-9.3-2.9-14.1-10.7-20.9-17.7-7.2-7.5-48.3-44.2-64.2-51.7a124.39,124.39,0,0,0-15.7-6.1c2.2,1.1,4.4,2.2,6.5,3.5,11.2,6.8,24.6,18.8,25.8,32.9,1.3,15.6-15.5,22.8-28.1,26.3-16.4,4.5-34.1,5.4-51,4.3a141.19,141.19,0,0,1-51.7-13.7c-10.5-4.9-37.3-18.7-35.4-33.3a104.22,104.22,0,0,0-24.9,29.2,11.45,11.45,0,0,0-1.5,3.6,38.94,38.94,0,0,1,10.7,1.5c8.1,2.4,14.7,7.4,20.6,13.3,12.9,12.8,23.8,27.1,41.2,34.1,25.1,10.1,52.6,12.4,79.5,12.4a234.94,234.94,0,0,0,23.7-1.1c26.7-2.6,51.3-13.2,74.3-26.6C363.51,122.41,377.81,112.51,374.71,111.61Z"/><path class="cls-17" d="M364.41,118.61a134.39,134.39,0,0,1-15.4-2.8c-4.1-.9-8.7-1.8-12.6-3.6a34.57,34.57,0,0,0,3.1-2.2,1.37,1.37,0,0,0,1-.8l.7-.6c1.8-1.5,3.8-2.8,5.6-4.2,1-1.2,2.1-2.4,3.1-3.7-1.8,1.5-3.6,2.8-5.5,4.1-1.5,1.1-2.9,2.3-4.4,3.4a161.36,161.36,0,0,1-17.4-23.6,66,66,0,0,0-7.2-10.1l-.2-.2c0-.1,0-.1-.1-.1h0c.4-.9.8-1.8,1.1-2.7.6-.9,1.2-1.8,1.8-2.6.4-1.2.8-2.4,1.3-3.6l-3.7,4.3c-.9,1.3-1.9,2.7-1.9,4.1l-1.2-.3a54.11,54.11,0,0,1-8.7-3.4c-4-1.7-8-3.7-12.3-4.4a3.67,3.67,0,0,0-1.8.1c-1.6-6.3-2.9-12.9-5.3-19-.5-.9-.9-1.8-1.4-2.7-.4-.7-.8-1.4-1.2-2s-.7-1-1-1.5c-.5-.7-1.2-1.5-1.8-2.4,1.2,4.9,3.3,9.6,5.1,14.3,1.6,4.4,2.8,9.2,4.7,13.5-2.1.9-3.7,3.1-5,4.7-.9,1-10.5,14.2-12.8,19.3a10.89,10.89,0,0,0-2.3-1.4c-2.3-1.3-4.3-2.9-6.5-4.3-2-1.4-4.2-2.7-6.3-3.9a27.71,27.71,0,0,1-7-4.2,4.1,4.1,0,0,0-2.3-1.3c.5-2.8-.1-9.1-.1-10.8,0-4.8-.1-9.5-.4-14.2-.3-4.4-.2-8.8-.6-13.1a24.39,24.39,0,0,1-.1-2.8c-.1-.4-.3-.8-.4-1.3-.2,2-.4,3.9-.5,5.9-.2,3.8-.3,7.7-.3,11.5,0,.7.1,1.4.1,2.1.5,7.5.2,15.2,1.1,22.7a8,8,0,0,0-2.5,1.1c-4.7,2.8-10.1,4.5-14.8,7.2-2,1.2-4.2,2-6.2,3.1-.2.1-.5.3-.7.4.1-1.9-1.1-3.5-2-5-1.4-2.8-2.9-5.4-4.5-8.1-1.4-2.2-2.5-5.1-4.5-6.8l-.9-.6c.5-3.7,1.5-7.5,2.2-11.2s1-7.7,1.7-11.5c.6-3.2,1.2-6.4,2-9.5a25.28,25.28,0,0,0,.1-2.8,39.74,39.74,0,0,0-2,5.8c-.9,3.3-1.6,6.7-2.7,10-.7,4.2-1.1,8.4-1.9,12.6a18.4,18.4,0,0,0-.5,6.2c-3.5-1.1-8.8-.5-11.7-.5a75,75,0,0,1-8.2-.4,9.65,9.65,0,0,0-6.3.6l-.1-.1c-.3,0-1.8-14-2-15.1-.4-2.2-.6-6.9-2.7-8.4a13.49,13.49,0,0,0,.3-1.8c.1-.7.3-1.5.4-2.2v-.1a11.63,11.63,0,0,1-.4-1.8,3.33,3.33,0,0,0-1.1,2.1c-.1,1-.2,2-.2,3v.3c-.9-.2-2.3.5-3.1.8a73.17,73.17,0,0,1-9.2,2.4h-.1c-4.3,1.5-8.8,2.5-13,4.1h.2c7.1-1.5,14.3-2.3,21.3-4.5,5.2-1.6,5.3,4.9,5.9,8.6a115.71,115.71,0,0,0,2.8,13c-4.5,2.4-8.7,6-12.7,9-2.8,2.2-5.5,4.4-8.1,6.8-1.3,1.2-5.5,4.7-5.8,5.4.1-.3-.2-.2-.3,0l-.1.2c-4-2.6-8.3-5-12.7-7.3a43.54,43.54,0,0,0-7.4-3.2c-1.8.1-3.6.1-5.5.1-2.5.1-5,.6-7.5.6,1.3.7,4.4.1,5.8,0a16.78,16.78,0,0,1,5.9.7,26.81,26.81,0,0,0-5.1,5,23.82,23.82,0,0,0-3.4,4.9,35.06,35.06,0,0,1,3.6-2.9c.3-.5.7-.9,1-1.4,1.4-1.9,3.9-3.1,5-5.2a43,43,0,0,1,7.6,3.4,159.72,159.72,0,0,1,14.5,8.3c4.9,3.2,9.1,7.4,13.5,11.3a44.44,44.44,0,0,0-4.5,8.3,51.44,51.44,0,0,0-2,5.5,24.33,24.33,0,0,1,2-2.5c.2-.6.5-1.2.7-1.8,1.3-3,3.2-5.9,4.5-8.9l.5.5c8.5,7.2,16.9,14.9,26.8,20.2.1,1.8-.3,3.5-.3,5.3a32,32,0,0,0,.9,7.5c.2-1.9.4-3.9.5-5.8-.1-1.1-.3-2.2-.4-3.2s.2-2.2.1-3.3a115.39,115.39,0,0,0,31.7,11.3l3.4.6a17.55,17.55,0,0,0,1.2,3.2c.7,1,1.4,2.1,2.1,2.9l3.4,4c-.9-1.6-2-3.1-2.8-4.7a27.31,27.31,0,0,0-2.9-5.3,128.94,128.94,0,0,0,36.7.2c.7,2.3,2.9,4.2,4.4,6a14.63,14.63,0,0,1,.9,1.3l4.2,3c-1-1.2-2-2.4-2.9-3.6-1.8-2.3-4.3-4.3-5.9-6.8,2.3-.3,4.6-.7,6.8-1.1l.1.4c.2.8,1.4-.1,1.5-.7a136.72,136.72,0,0,0,16.7-4.4c2.4-.8,4.8-1.7,7.1-2.6,3.6,3.1,8.5,4.9,13.4,6l5.5.3a85.68,85.68,0,0,1-10.2-3c-1.8-.6-5.4-3.2-7.6-3.6,8.1-3.1,16-6.8,24-10.5a57.64,57.64,0,0,0,6.9-3.8c2.2,2.3,6.9,2.8,9.7,3.5a116.24,116.24,0,0,0,12,2.7c2.3.1,4.6.1,6.9.2C364.61,118.71,364.61,118.61,364.41,118.61Zm-171.2-.2c-5.1-3.1-9.5-7.3-14-11.1-4.3-3.7-8.7-7.3-13-11a98.53,98.53,0,0,0-11.7-8.7c3.3-1.4,6-4.9,8.6-7.1,4.5-3.8,9.3-7.3,14.1-10.6,2.7-1.8,5.4-4.2,8.9-3.7a55.2,55.2,0,0,0,8.1.6c2.8,0,5.5.2,8.3.2,2.5,0,5.9.1,7.6,2.2,3.3,4.2,5.8,9.7,8.2,14.4,1.5,3,1.5,4.7,0,7.7-1,2.2-1.8,4.4-2.7,6.7-2,5-3.9,10.1-5.6,15.2-1.3,4-3.3,7.7-4.6,11.7a109.49,109.49,0,0,1-12.2-6.5Zm77.8,15.7h0c-4.6.5-9.2.8-13.8,1a114.4,114.4,0,0,1-33.5-3.5,118.87,118.87,0,0,1-17.3-6.2c0-.1-.1-.2-.3-.2.5.1,5-11.8,5.6-13.6,2.1-6.1,4.7-12.1,7-18.1a42.38,42.38,0,0,0,2.3-5.9,21.27,21.27,0,0,0,6.3-2.5c4.5-2.3,9-4.4,13.6-6.5,1.5-.7,3.5-2.1,5.3-1.6.1-.2.3-.2.5-.1,3.9,2.1,7.5,4.5,11.3,6.8a31.7,31.7,0,0,1,7.3,5.3c.7.4,1.4.9,2.1,1.3,2.8,1.7,2.7,3.3,3.1,6.2.5,3.7,1.9,7.3,2.8,11,2.1,8.4,3.1,17.2,5,25.7-2.5.4-4.9.7-7.3.9Zm51.7-16.3c-5,1.9-9.6,4.8-14.6,6.7s-10.2,3.6-15.4,5.2a113.57,113.57,0,0,1-12.8,3.1c-2.1-9.7-3.2-19.7-5.7-29.3-.6-2.2-1.2-4.4-1.7-6.6-.4-2-.1-4-.8-5.8a171.48,171.48,0,0,1,11.8-17.4,55.85,55.85,0,0,1,3.9-4.6c2.6-3,6.5-.9,9.4.2,4.2,1.6,8.6,2.9,12.9,4.4,1.4.5,2.9.7,4.3,1.3h.1a.1.1,0,0,0,.1.1.37.37,0,0,0,.3.1c1,.8,1.9,2.7,2.6,3.7,2.6,3.2,4.4,7.2,6.5,10.8a108.5,108.5,0,0,0,15.2,19.8l-1.3,1a81.4,81.4,0,0,1-14.8,7.3Z"/><path class="cls-16" d="M374.71,111.61c-9.3-2.9-14.1-10.7-20.9-17.7-5-5.2-26.1-24.2-43.9-38,.1,1.2.2,2.4.4,3.6.2,1.5.9,4.6-1.2,5.4-2.7,1-6.9-.7-9.7-1.2-3-.6-6.9-1.3-9-3.8-2.6-2.9-3.9-6.4-5.6-9.8a37.12,37.12,0,0,0-4.3-6.8l-2-2.8c.4,1.3.8,2.6,1.2,4,1.7,5.7,3.9,11.5,1.8,17.3-2.2,6-7.4,10.3-10.4,15.9-1.3,2.5-2.8,5.9-6.2,4.6-3.8-1.4-7.1-5.6-10.2-8s-5.8-5.4-6.9-9.3c-1.8-6.2-1.9-13-2.3-19.5-.1-2.3-.4-4.6-.6-6.9-.2,1.2-.4,2.5-.6,3.7-.9,6.4-1.1,13-2.4,19.3-1,4.6-3.1,6.9-6.8,9.8-3.3,2.6-7.1,6.8-11.5,7.3-4.2.5-5.2-3-7.3-5.8-2.5-3.3-4.7-6.8-5.2-11-.7-5.8.4-11.9,1.1-17.7.1-1,.3-1.9.4-2.9-.9,2.1-1.8,4.1-2.6,6.2-1.6,4.1-2.6,14.2-8.8,13.8-1.8-.1-11.4.7-14.1.5-2.9-.3-4.9-1.4-6.1-4.2-1.4-3.2-1.7-7.3-2.4-10.7a95.77,95.77,0,0,0-2.4-10.3,117.5,117.5,0,0,0-25.7,11.9,75,75,0,0,1,14.2-1.2c2.4,0,7.4-.5,8.8,2.2a14.09,14.09,0,0,1,1.1,4.6c.2,2.3.7,4.7.8,7,.1,4.9-2.3,7.2-6.2,9.9-4.3,3-7.7,7.2-12.5,9.4s-9.8,0-14.5-1.1c-2.2-.5-4.5-.9-6.7-1.2,1.8,1,3.5,2,5.1,3.1,10.3,6.7,19.2,15.2,27.9,24,5.7,5.8,11.4,11.9,17.9,16.7a78.67,78.67,0,0,0,19.9,10.4,143.32,143.32,0,0,0,22.3,5.8,105.5,105.5,0,0,0,12.4,1.7,14.44,14.44,0,0,1,6.2,1.4.65.65,0,0,1,.2.9,1.38,1.38,0,0,1-.4.3c-11.2,3.6-23.7,2.6-35-.1a81,81,0,0,1-32.5-15.9c-11.2-9-21.3-19.1-33.1-27.4-6.2-4.4-13-8.9-20.6-10.3a31.75,31.75,0,0,0-10.2-.2l-2.4.3a38.94,38.94,0,0,1,10.7,1.5c8.1,2.4,14.7,7.4,20.6,13.3,12.9,12.8,23.8,27.1,41.2,34,25.1,10.1,52.6,12.4,79.5,12.4a234.94,234.94,0,0,0,23.7-1.1c26.7-2.6,51.3-13.2,74.3-26.6C363.51,122.41,377.81,112.51,374.71,111.61Zm-164.1-22.3c-1.9,4.5-4.9,8.6-7.8,12.5-2,2.8-4,6.8-6.8,9-5,4-9.9-2.7-13.5-5.7-4.1-3.4-8.3-6.8-12.6-10-2-1.4-6.6-3.6-7.2-6.3-.7-3.1,2.2-5.8,4.3-7.8,3.1-2.9,6.3-5.8,9.7-8.6a17.68,17.68,0,0,1,2.2-1.6,24,24,0,0,1,9.2-3.8c5.1-.9,13.7-.5,17.9,3C211,74.31,213.11,83.31,210.61,89.31Zm45.7,8.5c-.1,4.4-.8,8.8-.6,13.2.2,3.2,1,6.8,0,9.9-.9,2.9-3.2,3.9-6.1,4.5a66.09,66.09,0,0,1-12.6,1.9,109.48,109.48,0,0,1-12.8-.4,25.65,25.65,0,0,1-7.7-1.5c-5.5-2.5-2.4-8.4-1.3-12.8a128.15,128.15,0,0,1,4.2-15c1.1-2.8,2.3-5.5,4.5-7.6-.1-.2,0-.4.2-.6a24.9,24.9,0,0,1,5.8-3.7c3.8-1.8,7.3-4.2,11.1-5.9,2.6-1.1,5-1.6,7.6-.5C256.31,82.61,256.51,90.71,256.31,97.81Zm21.2-6.9c.4-6.1,4.7-10.3,7.5-15.4,1-1.7,8.8-1.9,10.3-.8a26.64,26.64,0,0,1,7.1,7.1c4.6,7,6.8,14.9,10.6,22.3,1.2,2.3,2.6,4.7,2.7,7.4,0,2-2.7,3.3-4.1,4.2-6.9,3.9-14.1,9.5-22.4,9.8-6,.2-5.9-5.9-7.3-10.5C279.61,107.31,276.91,99,277.51,90.91Zm78.3,12.6c-7,13.4-22.4,21.8-35.8,27.4a147.61,147.61,0,0,1-27.7,8.4c-5.5,1.1-13.1,3.9-18.2.4a.65.65,0,0,1-.2-.9c.1-.1.1-.2.2-.2a23.48,23.48,0,0,1,8.1-2.7,79,79,0,0,0,9.5-2.7c7.9-2.9,15.6-6.2,23.3-9.5,6.7-2.9,13.5-5.6,20.1-8.8a144.33,144.33,0,0,1,19.8-12.2.65.65,0,0,1,.9.2C356,103,356,103.31,355.81,103.51Z"/><path class="cls-8" d="M316.81,62.51c-.3,1.7-.5,4.7-2.4,5.5-1.6.7-3.3.4-5,.2l-7.3-.3a33.09,33.09,0,0,1-5.5-.7c1.9,1,3.8,2.2,5.4,3.1,4.2,2.4,9.9,3.9,12.9,7.8a48.8,48.8,0,0,1,4.6,8c1.9,3.6,3.8,7.2,5.5,10.8s5,8.8,1.2,12.3c-9.1,8.4-20.9,12.9-32.4,17-7.2,2.6-14.5,5.3-21.9,7.3-5.6,1.5-11.4,2-17,3.2,4.4.2,8.7-.7,13-1.6,5.6-1.2,11.2-2.2,16.8-3.7a231.12,231.12,0,0,0,31.6-10.9,191.64,191.64,0,0,0,40.3-23.6l-.3-.3a.68.68,0,0,1-.8.4.22.22,0,0,1-.2-.2l-.2-.2a.63.63,0,0,1,0-.9c.1-.1.2-.1.3-.2-.5-.6-1-1.1-1.5-1.7-4.3-4.5-20.9-19.5-36.8-32.4A6.15,6.15,0,0,0,316.81,62.51Z"/><path class="cls-18" d="M270.21,38c-14.2-6.8-40.7-6.5-46.2-6.5a117.88,117.88,0,0,0-17.8,1.7c-11.3,1.8-22.7,3.8-33.4,7.7a79,79,0,0,0-13.8,6.5,33.42,33.42,0,0,0-5.3,3.7c-1,.9-2.5,3.2-3.8,3.4-.5.1-1.4,1.1-.6,1.3,1.4.3,3-1,4.1-1.7a72.76,72.76,0,0,1,12.6-6c10.6-4.1,21.9-5.8,32.9-8.5C230.31,32,271,38.31,270.21,38Z"/><path class="cls-18" d="M271.71,139.51c-7.2,2.2-13.8,1.1-21,1.4s-14.5-1.1-21.5-2.4c-14.6-2.9-28.3-7.3-41-15.3-11.8-7.5-21.3-18.1-31.7-27.3A71.4,71.4,0,0,0,141,85.21c-5.7-2.7-11.3-2.9-17.5-2.6-.4,0-1,.8-.4.9,27.8,6.2,43.8,34,68.4,46.5,12.4,6.4,25.9,9.7,39.6,12.1,7.2,1.3,14.4,1.4,21.6,1.7a43.53,43.53,0,0,0,18.9-3.1C272.31,140.41,272.81,139.11,271.71,139.51Z"/></g></svg>