<svg id="Layer_1" data-name="Layer 1" xmlns="http://www.w3.org/2000/svg" viewBox="0 0 256 256"><defs><style>.cls-1{fill:#323232;opacity:0.4;}.cls-2{fill:#e0d0cd;}.cls-3{fill:#fff2ee;}.cls-4{fill:#635957;}.cls-5{fill:#b25c13;}.cls-6{fill:#c56f25;}.cls-7{fill:#472006;}.cls-8{fill:#d10d0d;}.cls-9{fill:#330202;}.cls-10{fill:#680404;}.cls-11{fill:#a00505;}.cls-12{fill:#ba0404;}.cls-13{fill:#9e0404;}.cls-14{fill:#c1c0bf;}.cls-15{fill:#fff;}.cls-16{fill:#4c270c;}.cls-17{fill:#000a19;}.cls-18{fill:#96431a;}.cls-19{fill:#f9c59b;}.cls-20{fill:#490303;}.cls-21{fill:#ed6969;}.cls-22{fill:#f98282;}.cls-23{fill:#bc3939;}.cls-24{fill:#211b1a;}.cls-25{fill:#312927;}.cls-26{fill:#070505;}.cls-27{fill:#0f0c0b;}.cls-28{fill:#1e1817;}.cls-29{fill:#60524f;}</style></defs><ellipse class="cls-1" cx="130.74" cy="231.49" rx="94.3" ry="21.51"/><path class="cls-2" d="M64.45,154.41c-.66,18.73,4.1,57.28,0,63.54-.93,1.4-9.19,2.61-11.21,7.93-1.12,3-1.44,8.27,1.73,8.31.92,1.93,3.5,5.7,11.3,2.68,1.07.57,5.15,2.55,7.39-1.06C75,234.32,87,235.6,88.41,223.3c.61-8.41,2.57-32.38-.9-41.73C84.24,172.76,64.45,154.41,64.45,154.41Z"/><path class="cls-3" d="M69.3,160.26a32.24,32.24,0,0,1-4.85-5.85c-.66,18.73,4.1,57.28,0,63.54-.93,1.4-9.19,2.61-11.21,7.93-1.12,3-1.44,8.27,1.73,8.31.81,1.7,2.34,4.95,8.14,3.63a6.82,6.82,0,0,0,3-1.08c.34-.07-2.11-6.19,1.81-9.1C94.1,208.18,75.36,171.83,69.3,160.26Z"/><path class="cls-4" d="M61.05,238.37a6.68,6.68,0,0,1-6.32-3.82,2.48,2.48,0,0,1-1.88-1.11c-1.2-1.76-.87-5.28,0-7.69,1.43-3.75,5.79-5.53,8.68-6.7a8,8,0,0,0,2.56-1.31c2.49-3.78,1.61-20.33.75-36.33-.52-9.78-1.06-19.91-.81-27l0-.81.6.55c.81.75,19.89,18.52,23.16,27.31,3.34,9,1.71,31.22,1,40.7l-.09,1.19c-1.07,9.62-8.51,11.18-12.51,12A7.24,7.24,0,0,0,74,236a4.47,4.47,0,0,1-4,2.26h0a8.29,8.29,0,0,1-3.72-1A15.1,15.1,0,0,1,61.05,238.37Zm3.74-83.13c-.18,7,.34,16.74.84,26.13.9,16.87,1.75,32.8-.87,36.78-.36.55-1.43,1-2.91,1.59-2.77,1.13-7,2.83-8.26,6.28-.84,2.21-1.12,5.52-.12,7a1.73,1.73,0,0,0,1.51.8h.23l.1.21a5.92,5.92,0,0,0,5.74,3.6,14.53,14.53,0,0,0,5.09-1.11l.16-.06.15.08a7.71,7.71,0,0,0,3.52,1h0a3.78,3.78,0,0,0,3.37-1.94l0-.05c.41-.45,1.34-.64,2.74-.94C80.2,233.76,87,232.33,88,223.26l.08-1.18c.7-9.43,2.33-31.52-1-40.38C84.27,173.93,68.13,158.4,64.79,155.24Z"/><path class="cls-4" d="M65.92,237c-1.39-3.72.71-8.14.8-8.32,0,0-1.37,4.64-.1,8.06Z"/><path class="cls-4" d="M54.6,234.26c-.85-5,3.95-8.44,4.15-8.59,0,0-4.19,4-3.41,8.46Z"/><path class="cls-5" d="M185.61,204.26s1.17,8.37,24.94,8.65c15.77.18,38.09-2.2,38.08,3.54,0,5.1-36.16,16.38-69,10.83C173.48,227.56,185.61,204.26,185.61,204.26Z"/><path class="cls-6" d="M188.05,217.76c19.11,7,41.2,5.59,60.26-2.39-2.77-4.34-23.09-2.29-37.76-2.46-23.77-.28-24.94-8.65-24.94-8.65s-1.06,2-2.4,4.9C183.29,213,184.9,216.9,188.05,217.76Z"/><path class="cls-7" d="M198.37,229.15a113.62,113.62,0,0,1-18.75-1.49,1.77,1.77,0,0,1-1.69-.85c-2.34-3.87,6.35-20.8,7.35-22.72l.54-1,.16,1.16c0,.08,1.51,8,24.57,8.32,3.8.05,8-.06,12.14-.16,3.38-.08,6.87-.17,10.05-.17a62.44,62.44,0,0,1,11.36.74c3.3.66,4.91,1.81,4.91,3.51,0,2.8-8,6-15.47,8.08a137.49,137.49,0,0,1-35.16,4.62Zm-18.7-2.24h0a113.42,113.42,0,0,0,18.66,1.49h0a136.82,136.82,0,0,0,35-4.6c9.79-2.72,14.92-5.76,14.92-7.36,0-1.29-1.41-2.2-4.3-2.77a61,61,0,0,0-11.22-.73c-3.17,0-6.66.08-10,.17-4.1.1-8.35.2-12.16.16-19.44-.23-24-5.82-25-8.06-2.86,5.62-8.68,18.38-7,21.2a1,1,0,0,0,1.06.49Z"/><path class="cls-2" d="M248.63,216.45c0-3.78-9.68-4-20.81-3.82a4.74,4.74,0,0,1-1,3.14c.86.22,9.27,2.27-1.8,5.73,0,0,5.41,1.56,4,3.4a3.29,3.29,0,0,0,.07.36C240.8,222.53,248.63,218.83,248.63,216.45Z"/><path class="cls-3" d="M227.82,212.63a4.74,4.74,0,0,1-1,3.14c.86.22,9.27,2.27-1.8,5.73l.22.07c7.91-1,24.89-3.62,23.07-6.2C246.56,212.62,237.77,212.44,227.82,212.63Z"/><path class="cls-4" d="M244.1,212.94a62.59,62.59,0,0,0-11.36-.74c-1.42,0-3,0-4.92.05l0,.75s3.69-.05,4.9-.05a61,61,0,0,1,11.22.73c2.89.57,4.3,1.48,4.3,2.77,0,1.94-6.95,5.52-18.64,8.31a4.3,4.3,0,0,1-.56.14l-.18.8c12-2.74,20.13-6.5,20.13-9.25C249,214.75,247.4,213.6,244.1,212.94Z"/><path class="cls-2" d="M104.78,232.14s17.53-1.56,23.15-4.55,2.35-27.38,2.35-27.38S104.4,219.38,104.78,232.14Z"/><path class="cls-4" d="M104.41,232.55v-.4C104,219.34,129,200.7,130.06,199.91l.5-.38.09.63c.13,1,3.24,24.69-2.55,27.76-5.62,3-22.57,4.53-23.29,4.59ZM130,200.9c-3.59,2.75-24.68,19.4-24.84,30.83,2.65-.26,17.58-1.8,22.6-4.46C132.59,224.69,130.45,204.75,130,200.9Z"/><path class="cls-8" d="M90.06,95.07C73.13,99,60.49,106.8,61.82,112.58v0c20.95-3.18,40.49-8.87,61.28-14.08C121.49,92.56,106.81,91.23,90.06,95.07Z"/><path class="cls-9" d="M107.52,92.56A80.06,80.06,0,0,0,90,94.71c-8.22,1.89-15.71,4.76-21.07,8.09s-8.12,6.89-7.45,9.86l.74-.12a.06.06,0,0,0,0,0c-.59-2.59,2-5.9,7.11-9.07,5.3-3.28,12.7-6.12,20.85-8a79.17,79.17,0,0,1,17.38-2.14c8.62,0,14.27,1.92,15.17,5.14l.73-.18C122.42,94.69,116.51,92.56,107.52,92.56Z"/><path class="cls-10" d="M91.32,97.7c-15,3.44-26.36,9.71-25.38,14l.07.22c6.18,5.94,23.84,2.6,34.44-.13,7.32-1.88,21.35-8.24,19.76-12.73C118.91,94.93,106.11,94.3,91.32,97.7Z"/><path class="cls-9" d="M108.68,95.13a79.94,79.94,0,0,0-17.44,2.2,75.07,75.07,0,0,0-18.78,6.73c-5,2.73-7.4,5.48-6.88,7.73a1.17,1.17,0,0,0,.06.2l.74-.13a1.55,1.55,0,0,1-.07-.23c-.43-1.88,1.94-4.4,6.51-6.92A74.41,74.41,0,0,1,91.4,98.06a80.32,80.32,0,0,1,17.28-2.18c6.36,0,10.52,1.25,11.19,3.31.24-.06.47-.15.71-.21C119.83,96.5,115.62,95.13,108.68,95.13Z"/><path class="cls-5" d="M132.36,120.08c-4.43-7.94-7.05-6.32-11.53-11.61a8.34,8.34,0,0,1-.59-.8c-15.4,10.93-36,13.14-54.8,13-1.06,6.34-5.13,18.47-4.29,31.09,1.43,21.63,26.45,36.38,33.92,46.68,24.27,27.63,57.13,30.68,57.13,30.68s35.85-27.94,38.84-35.91C189.92,153.28,132.57,120.44,132.36,120.08Z"/><path class="cls-6" d="M133,133.62c0-11.45-22.88-29.25-23.24-22-14,6.69-28.79,9.19-44.29,9.1-1.06,6.34-5.13,18.47-4.29,31.09,1.43,21.63,26.45,36.38,33.92,46.68,24.27,27.63,57.13,30.68,57.13,30.68s23.76-18.52,34.2-29.7c-.5-5.23-2.22-10.12-4-15.3C170.5,148.49,141.56,132.87,133,133.62Z"/><path class="cls-7" d="M151.94,229.54l-.15,0a84,84,0,0,1-19.56-5,94.76,94.76,0,0,1-37.82-25.81c-2.17-3-5.76-6.3-9.92-10.14C74.21,179.1,61.43,167.3,60.4,151.82c-.63-9.54,1.51-18.76,3.08-25.48.51-2.22,1-4.13,1.22-5.7l0-.31h1.57c23.92,0,40.87-4.12,53.33-13l.32-.22.21.32a7.43,7.43,0,0,0,.56.77,20,20,0,0,0,4.69,4c2.15,1.44,4.18,2.8,6.85,7.55l.79.51a191.55,191.55,0,0,1,31.3,24.14c17.25,16.66,26.22,33.06,26.66,48.75v.07l0,.07c-3,8-37.49,34.93-38.95,36.08ZM65.38,121.08c-.27,1.52-.69,3.34-1.18,5.42-1.55,6.69-3.68,15.84-3.05,25.27C62.15,167,74.82,178.64,85,188c4.19,3.87,7.81,7.2,10,10.23a93.92,93.92,0,0,0,37.47,25.56,84.56,84.56,0,0,0,19.24,4.95c2.27-1.77,35.57-27.94,38.58-35.58-1-33.26-40.61-61.58-57.61-72.21-1-.6-1-.6-1-.71-2.6-4.65-4.56-6-6.64-7.36a20.29,20.29,0,0,1-4.85-4.18c-.12-.16-.26-.33-.4-.53C107.2,117,90.2,121.08,66.32,121.08Z"/><path class="cls-5" d="M119.87,107.67c-2.8-4.3-6.41-15.92-6.41-15.92s-50,21.7-48.39,25.1a7.45,7.45,0,0,1,0,3.85C83.82,120.81,104.47,118.6,119.87,107.67Z"/><path class="cls-6" d="M65.07,116.85a7.45,7.45,0,0,1,0,3.85c17.27.1,36.14-1.77,51-10.6A39.61,39.61,0,0,1,110,93.25C98.78,98.22,63.71,114,65.07,116.85Z"/><path class="cls-7" d="M66.32,121.08h-1.7l.08-.44c.19-1.18.41-2.84,0-3.63a.85.85,0,0,1,0-.69c1.66-4.44,43.78-22.83,48.58-24.91l.38-.17.12.4c0,.11,3.63,11.62,6.37,15.82l.2.3-.3.21C107.49,116.91,90.4,121.08,66.32,121.08Zm-.82-.75h.82c23.73,0,40.6-4,53-12.77-2.5-4.06-5.48-13.25-6.13-15.3C100,98,66.72,113.11,65.42,116.58c0,.07,0,.1,0,.1A6.87,6.87,0,0,1,65.5,120.33Z"/><path class="cls-3" d="M92.32,118.6c-1.26-5.86-2.06-11.82-2.53-16.11-12.68,6-25.56,12.61-24.72,14.36a7.45,7.45,0,0,1,0,3.85A145.29,145.29,0,0,0,92.32,118.6Z"/><path class="cls-4" d="M66.31,120.33H65.5a6.87,6.87,0,0,0-.09-3.65s0,0,0-.09c.3-.83,3-3.19,16.57-9.92,0-.26,0-.53-.07-.8-16.35,8.09-17,9.84-17.2,10.47a.88.88,0,0,0,0,.67c.38.79.16,2.45,0,3.63l-.08.44h1.69a157,157,0,0,0,19.94-1.15c-.06-.25-.11-.49-.16-.73A156.55,156.55,0,0,1,66.31,120.33Z"/><path class="cls-2" d="M148.59,167.72c-22.08,2-20.84-10.33-20.54-19,.39-11.52-12.71-5.11-14.56-6-4.46-2.07-4.94-1.59-11.45-4.35-4.7-2-7.77-10.74-9.72-19.75a145.29,145.29,0,0,1-27.26,2.1C64,127,59.94,139.17,60.77,151.79c1.44,21.63,26.45,36.38,33.92,46.68,24.27,27.63,57.14,30.68,57.14,30.68s23.11-18,33.76-29.24C186.16,174.62,166.48,166.11,148.59,167.72Z"/><path class="cls-3" d="M142.61,177.68c4-12.63,23.92,6.58,34.39-1.46-7.28-7-18.14-9.42-28.41-8.5-22.08,2-20.84-10.33-20.54-19,.39-11.52-12.71-5.11-14.56-6-4.46-2.07-4.94-1.59-11.45-4.35-4.7-2-7.77-10.74-9.72-19.75a145.29,145.29,0,0,1-27.26,2.1C64,127,59.94,139.17,60.77,151.79c.8,12.08,9,22,17.31,30.23,9.53,8.43,20.27-1.63,31.18-1.6,5.54,0,11-2.1,13.87,2.74C126.53,188.88,138.76,189.92,142.61,177.68Z"/><path class="cls-4" d="M185.22,199.6a.75.75,0,0,1,0,.15c-10.16,10.67-31.7,27.6-33.51,29a84.56,84.56,0,0,1-19.24-4.95A93.92,93.92,0,0,1,95,198.25c-2.2-3-5.82-6.36-10-10.23C74.82,178.64,62.15,167,61.15,151.77c-.63-9.43,1.5-18.58,3.05-25.27.49-2.08.91-3.9,1.18-5.42h.93a153.21,153.21,0,0,0,21.11-1.31l-.09-.74a153.63,153.63,0,0,1-21,1.3H64.75l0,.31c-.27,1.57-.71,3.48-1.22,5.7-1.57,6.72-3.71,15.94-3.08,25.48,1,15.48,13.81,27.28,24.09,36.75,4.16,3.84,7.75,7.15,9.92,10.14a94.76,94.76,0,0,0,37.82,25.81,84,84,0,0,0,19.56,5l.15,0,.12-.09c.23-.19,23.26-18.17,33.81-29.29l.09-.1v-.2C185.72,199.77,185.48,199.68,185.22,199.6Z"/><path class="cls-11" d="M123.11,98.58c1.22,5.78-11.38,13.58-28.24,17.45s-31.72,2.34-33.05-3.45a4.21,4.21,0,0,1,.17-2.34A12.59,12.59,0,0,0,59.48,119c.33,7.61,17.58,8.63,35.31,4.57,15-3.45,26.53-8.77,28.95-14.72A16.76,16.76,0,0,0,123.11,98.58Z"/><path class="cls-12" d="M116.77,113.34c3.52-2.28,4.67-4,3.61-8.81-6.14,5.78-15.2,9.13-25.51,11.5-16.93,3.88-31.72,2.34-33.05-3.45a4.21,4.21,0,0,1,.17-2.34A12.59,12.59,0,0,0,59.48,119a4.6,4.6,0,0,0,1,2.72C66.4,127.64,101.18,123.43,116.77,113.34Z"/><path class="cls-9" d="M75.76,126.32h0c-10.38,0-16.46-2.65-16.66-7.28a12.92,12.92,0,0,1,2.6-9l1.31-1.6-.67,2a3.89,3.89,0,0,0-.16,2.14c.76,3.32,6.45,5.3,15.22,5.3a79.17,79.17,0,0,0,17.38-2.14c16.6-3.8,29.14-11.43,28-17l.7-.23a17.16,17.16,0,0,1,.64,10.59c-2.36,5.78-13,11.22-29.22,14.94A87.55,87.55,0,0,1,75.76,126.32Zm-14.41-14.5a13.16,13.16,0,0,0-1.5,7.19c.18,4.17,6,6.56,15.91,6.56h0a86.84,86.84,0,0,0,18.95-2.34c15.73-3.61,26.46-9,28.69-14.49a16.88,16.88,0,0,0,0-8.16c-1.48,5.68-13.1,12.29-28.46,15.81a80.06,80.06,0,0,1-17.55,2.15c-9.14,0-15.1-2.19-16-5.87A4.81,4.81,0,0,1,61.35,111.82Z"/><path class="cls-13" d="M66.38,111.86l-.74.13v0l.75-.12S66.39,111.88,66.38,111.86Z"/><path class="cls-13" d="M65.65,112h0l0,.06A.14.14,0,0,1,65.65,112Z"/><path class="cls-8" d="M123.1,98.52c0-.06,0,0,0-.09l-2.84.73c.52,2.25-1.78,4.59-6.66,7.45-14.15,8.28-44.15,13.3-47.91,5.47l0-.06-3.81.58c1.36,5.77,16.14,7.31,33.05,3.43S124.43,104.31,123.1,98.52Z"/><path class="cls-9" d="M77.34,118.57c-8.8,0-15-2.06-15.88-5.88l-.09-.4.4-.06,3.81-.58.26,0,.17.3c.59,1.24,1.93,2.18,4,2.81,9.25,2.83,31.55-1.51,43.39-8.43,4.87-2.85,6.91-5.18,6.46-7.13l.73-.18c.54,2.35-1.55,4.87-6.81,8-5.58,3.26-14.06,6.23-22.71,7.94-8.92,1.77-16.67,2-21.27.57a7,7,0,0,1-4.36-3l-3.13.48c.89,2.38,4.58,4.06,10.25,4.65,6.2.65,14.1,0,22.23-1.9s15.55-4.7,20.85-8c5.11-3.17,7.7-6.47,7.11-9.07a.14.14,0,0,0,0-.06l0-.09.72-.2,0,0s0,.09,0,.13c1.39,6.08-11.13,14-28.52,18A80.43,80.43,0,0,1,77.34,118.57Z"/><path class="cls-9" d="M122.74,98.6c.59,2.6-2,5.9-7.11,9.07-5.3,3.29-12.7,6.12-20.85,8A79.17,79.17,0,0,1,77.4,117.8c-8.73,0-14.4-2-15.21-5.26l-.74.12h0c.85,3.68,6.81,5.87,16,5.87A80.06,80.06,0,0,0,95,116.39c17.39-4,29.91-11.88,28.52-18,0-.06,0-.15-.06-.21-.24.06-.5,0-.74.11C122.68,98.4,122.73,98.55,122.74,98.6Z"/><path class="cls-7" d="M131.66,120.25l.66-.34a51.19,51.19,0,0,1,3.25,8.22S133.67,124.19,131.66,120.25Z"/><path class="cls-5" d="M186.89,176.18l-19.51-7.84-15.55-1.14s-24.46,6.87-20.45,32.92c2.25,14.61,16.4,21.81,16.4,21.81s-15.45-3.6-24.11,4.34c-6.39,5.87-7.41,13.34-4.14,14.08.33.92.37,4.72,11.85,3.46,1.87.59,5.82,3.92,20.26-.41,8.31-2.34,17.39-4.31,19.32-4.82,2.8-.74,14.94-3.92,13.07-13.54C187,222.9,197.66,205.25,186.89,176.18Z"/><path class="cls-6" d="M176.83,170.91l-9.45-2.57-15.55-1.14s-24.46,6.87-20.45,32.92c2.25,14.61,16.4,21.81,16.4,21.81s-15.45-3.6-24.11,4.34c-6.39,5.87-7.41,13.34-4.14,14.08.33.92.37,4.72,11.85,3.46,1.87.59,5.82,3.92,20.26-.41,8.31-2.34,17.39-4.31,19.32-4.82,2.8-.74,5.51-3.39,3.64-13C177.59,223.43,191,198.59,176.83,170.91Z"/><path class="cls-2" d="M184,225.12a5.63,5.63,0,0,1-2.5.85c1.77-7.39-2.67-11.76-7.28-15.37-1.48-1.17-3.15-2.23-4.79-3.39-13-9.18-12.49-15.39-7.06-20.88,6.25-6.33,7.12-13,3.73-16.24-3.82-3.61-10.95-2.88-15.67-2.5l-3.3,1.57c-6.61,3.2-18.74,11.79-15.79,31,2.25,14.61,16.4,21.81,16.4,21.81s-10.17-2.37-18.63,1a17.48,17.48,0,0,0-5.48,3.36c-6.39,5.87-7.41,13.34-4.14,14.08.33.92.37,4.72,11.85,3.46,1.87.59,5.82,3.92,20.26-.41,8.31-2.34,17.39-4.31,19.32-4.82C173.75,237.84,185.83,234.67,184,225.12Z"/><path class="cls-3" d="M175,226.16a37,37,0,0,0,4.79-10,27.38,27.38,0,0,0-5.57-5.55c-1.48-1.17-3.15-2.23-4.79-3.39-13-9.18-12.49-15.39-7.06-20.88,6.25-6.33,7.12-13,3.73-16.24-3.82-3.61-10.95-2.88-15.67-2.5l-3.3,1.57c-6.61,3.2-18.74,11.79-15.79,31,2.25,14.61,16.4,21.81,16.4,21.81s-10.17-2.37-18.63,1a17.48,17.48,0,0,0-5.48,3.36c-6.39,5.87-7.41,13.34-4.14,14.08.33.92.37,4.72,11.85,3.46,1.87.59,5.82,3.92,20.26-.41,8.31-2.34,17.42-4.2,19.32-4.82,4.59-1.5,6.58-5.07,6.13-7.81C176.67,228.2,174.35,227,175,226.16Z"/><path class="cls-4" d="M183.62,224.88l0,.23c.81,4.22-.74,9.91-12.8,13.11-.54.14-1.62.39-3.11.74-3.83.9-10.23,2.39-16.23,4.09-12.45,3.72-17,1.72-19.16.76a7.84,7.84,0,0,0-.88-.36l-.07,0h-.08c-10.27,1.13-11.08-1.82-11.38-2.92,0-.12-.06-.22-.08-.29l-.07-.2-.2,0a1.94,1.94,0,0,1-1.38-1.52c-.69-2.61,1.07-7.68,5.7-11.92,8.41-7.72,23.61-4.29,23.77-4.25l3,.69L148,221.6c-.14-.07-14-7.29-16.2-21.54-1.64-10.66,1.14-19.3,8.26-25.69a31.56,31.56,0,0,1,11.29-6.45,4.84,4.84,0,0,0-3.07.35,32.87,32.87,0,0,0-8.69,5.52c-5,4.52-10.63,12.76-8.53,26.38,1.77,11.5,10.91,18.52,14.82,21-4.52-.66-15.58-1.48-22.41,4.79-4.84,4.44-6.66,9.84-5.91,12.66a2.68,2.68,0,0,0,1.72,2v.05c.35,1.27,1.27,4.65,12.1,3.48.21.07.45.18.73.3a15.92,15.92,0,0,0,7.16,1.47,44.3,44.3,0,0,0,12.51-2.2c6-1.69,12.37-3.18,16.18-4.07,1.51-.35,2.59-.6,3.17-.76,12.38-3.28,14.12-9.32,13.34-13.82a7.49,7.49,0,0,0-.81-.23Z"/><path class="cls-7" d="M187.24,176.05l-.79-.05c5.7,15.4,5.26,27.47,3.81,34.63-1.71,8.39-5.08,13.13-6.45,14.11l-.19.14c.28.09.55.21.82.32h0C188.27,222.07,197.56,203.89,187.24,176.05Z"/><path class="cls-4" d="M162.84,225.29c-.09,0-9.22-.15-16.2-3.58L147,221C153.8,224.4,162.84,225.29,162.84,225.29Z"/><path class="cls-4" d="M131,243.93c-1.16-3.4-1-6.27.56-8.52,3.11-4.58,10.57-5,10.88-5,0,0-7.37,1.16-10.27,5.43-1.39,2-1.55,4.69-.47,7.86Z"/><path class="cls-4" d="M119.9,240.36h-.75c.07-8.71,11.67-11.87,12.17-12C131.32,228.35,120,232.22,119.9,240.36Z"/><path class="cls-4" d="M179,226.66s4.33-1.36,5.34-2.4l.09.94C182.79,226.63,179.16,226.65,179,226.66Z"/><path class="cls-2" d="M123.07,158.33l-38.46.45s.93,12.12,10.08,20.27c.36,1.87-2.24,37.4-8.21,44.1-1.5,1-9.92-.61-13.07,6-1.88,3.95-2.94,7.42,1.35,9,.07,1.13-.37,6.86,9.48,4.62,1.06.8,6.66,5.4,18.85-.88,6.17-3.3,7.89-5.84,9.34-11.86.64-2.65,7-22.83,10.41-33.79C127.55,180.89,130,168.16,123.07,158.33Z"/><path class="cls-3" d="M107,227.72c2.24-16.06,10.33-30,15.35-46.13,2.15-6.9,4.2-16.48,1-22.92l-.43-.52-38.3.63s.93,12.12,10.08,20.27c.36,1.87-2.24,37.4-8.21,44.1-1.5,1-9.92-.61-13.07,6-1.88,3.95-2.94,7.42,1.35,9,.06,1.11-.35,6.68,9,4.72C87.6,243.93,105.52,238.91,107,227.72Z"/><path class="cls-4" d="M91.65,245.5a12.24,12.24,0,0,1-7.5-2.36c-3.71.81-6.41.59-8-.66a5.06,5.06,0,0,1-1.73-4.11A4.42,4.42,0,0,1,71.69,236c-.76-1.83,0-4.12,1.38-7,2.41-5.05,7.75-5.51,10.94-5.78a8.11,8.11,0,0,0,2.23-.35c2.4-2.75,4.65-11.14,6.35-23.62a174.42,174.42,0,0,0,1.75-20c-9.06-8.16-9.72-20.33-9.73-20.45s1.41,12,10.33,20l.1.09,0,.12c.2,1.06-.41,10.61-1.73,20.36-1.22,9-3.35,20.45-6.57,24.06l-.08.06a6.56,6.56,0,0,1-2.6.49c-3.23.28-8.11.7-10.33,5.36-1.12,2.34-2.06,4.74-1.37,6.41a3.87,3.87,0,0,0,2.51,2l.23.08v.25a1.77,1.77,0,0,1,0,.24,4.39,4.39,0,0,0,1.44,3.56c1.46,1.13,4,1.29,7.57.48l.17,0,.22.16c4.36,3.32,10.71,3,18.38-1,6.24-3.34,7.76-5.83,9.15-11.62.42-1.78,3.45-11.45,6.37-20.81,1.43-4.6,2.92-9.36,4-13,5-16.06,6.9-28.66.35-38,0,0,2.58,1.12,4.11,7.35,2.07,8.4,0,18.65-3.74,30.85-1.13,3.64-2.61,8.4-4,13-2.92,9.34-5.94,19-6.36,20.76-1.42,5.93-3.07,8.65-9.52,12.1C99,244.39,95.06,245.5,91.65,245.5Z"/><path class="cls-4" d="M94.35,179.64c-.27-4.16-1.23-9.56-1.24-9.61a49.16,49.16,0,0,1,2,9.56Z"/><path class="cls-4" d="M83.89,242.86c-1.73-4.85,2.57-10.7,2.76-11,0,0-3.65,6.23-2.06,10.7Z"/><path class="cls-4" d="M75.12,238.2,74.4,238c1.09-4.34,5.55-8.94,5.74-9.13C80.14,228.89,76.16,234.06,75.12,238.2Z"/><path class="cls-5" d="M58,18.56s-3.26-13.12-27.18,2.5c-6.86,4.49-7,3.85-10.94,5.4C9.52,30.52,3.21,37.21,10.55,53.71c4.63,10.39,10.93,13,10,23C19.45,88,28,99.86,37.25,91.92,43,86.79,52,46.74,52,46.74Z"/><path class="cls-6" d="M30.84,21.06c-6.86,4.49-7,3.85-10.94,5.4C9.52,30.52,3.21,37.21,10.55,53.71c4.63,10.39,11,13,10,23-1.14,11,6.84,18.21,8,13.83.61-2.35-1.48-7.07-1.07-11.74s2.91-9.34,2.29-11.18c-.34-1-5.11-14,0-26.44a23.18,23.18,0,0,0-1.06,6.33c-.5,5.67,2,14.84,3.94,12.13.62-.86.13-10.24,2.33-15,3.79-7.57,11.54-6,18.75-5.77L58,18.56S54.76,5.44,30.84,21.06Z"/><path class="cls-7" d="M31.17,94.88h0a8.87,8.87,0,0,1-6.54-3.23c-3.24-3.57-5-9.47-4.46-15,.58-6.21-1.72-9.53-4.63-13.73a52.64,52.64,0,0,1-5.33-9C6.84,46.3,6.13,40.38,8,35.77c1.69-4.11,5.42-7.18,11.74-9.65,1-.38,1.69-.62,2.34-.84,2.08-.71,3.34-1.14,8.53-4.53C38.48,15.63,45,13,49.9,13c7.05,0,8.47,5.38,8.49,5.43l0,.09-6,28.26C52,48.46,43.31,87,37.5,92.2A9.74,9.74,0,0,1,31.17,94.88ZM49.9,13.78c-4.79,0-11.14,2.56-18.86,7.6-5.27,3.44-6.56,3.88-8.7,4.6-.64.22-1.37.47-2.3.83-6.12,2.4-9.72,5.33-11.33,9.24-1.81,4.42-1.1,10.14,2.18,17.51a52,52,0,0,0,5.26,8.92c3,4.33,5.37,7.74,4.76,14.23-.51,5.35,1.16,11,4.28,14.44a8.11,8.11,0,0,0,6,3h0A9,9,0,0,0,37,91.64c5.62-5,14.53-44.59,14.62-45l6-28.08C57.45,17.92,56,13.78,49.9,13.78Z"/><path class="cls-7" d="M20.84,77.38l-.69-.28a30.65,30.65,0,0,0,1.91-9.94A22.19,22.19,0,0,1,20.84,77.38Z"/><path class="cls-7" d="M32.05,71.65l-.68-.29c1-2.38,0-6-1.22-10.3-1.68-6-3.64-13.17-.85-19.85A11,11,0,0,1,33,36.76c-6.8,7.58-4.23,16.74-2.17,24.1C32.09,65.24,33.15,69,32.05,71.65Z"/><path class="cls-5" d="M75.16,13.65s-41-6.86-41.26,40.09c0,9,.66,10.42-2.21,17.77-3.1,8-1.12,23.4,10.46,29.12,4.6,1.75,6.15,1,6.66,2.74,1.74,6.1-2.28,13.92,9.92,16.74,10.86,2.51,16.1-4.22,19.23-6.35,2.62-1.77,6.44-2.43,11.35-3.73,8.46-2.24,34.7-7.37,34.7-29.56.17-19,6.45-48.86-5.56-57.45C108.3,16.3,98.72,11.82,81.23,10.84,72.3,10.34,75.16,13.65,75.16,13.65Z"/><path class="cls-6" d="M118.45,23c-.82-.54-1.64-1.07-2.46-1.58-3.86.19-4.74.84-8-.59-3.08-2.87-12.19-8.45-17-9a94.75,94.75,0,0,0-9.8-1c-8.93-.5-6.07,2.81-6.07,2.81s-41-6.86-41.26,40.09c0,9,.66,10.42-2.21,17.77-3.1,8-1.12,23.4,10.46,29.12,4.6,1.75,6.15,1,6.66,2.74,1.62,5.67-1.74,12.82,7.57,16.07A36.19,36.19,0,0,0,74,113.2c11.86-7.62,19.25-6.93,30.84-14.85,14.13-9.67,11.6-24.69,15.71-35.52,1.3-3.57,1.28-10.63,5.15-11.92C126.11,38.76,125,27.72,118.45,23Z"/><path class="cls-7" d="M42.2,54l-.72-.19c1-3.73,2.63-6.11,4.9-7.06a7,7,0,0,1,5.75.42,9.6,9.6,0,0,0-5.46.28C44.62,48.25,43.12,50.46,42.2,54Z"/><path class="cls-7" d="M63.37,121h0a21.06,21.06,0,0,1-4.7-.56c-9.29-2.15-9.47-7.19-9.64-12.07a21.26,21.26,0,0,0-.56-4.94c-.24-.81-.65-.93-2.19-1.27A26.69,26.69,0,0,1,42,101C30.48,95.27,28,79.89,31.36,71.37c2.3-5.89,2.27-7.89,2.21-13.24,0-1.26,0-2.69,0-4.39C33.75,16.9,59,12.92,69.84,12.92a38.83,38.83,0,0,1,4.65.26,1.59,1.59,0,0,1,0-1.23c.56-1.22,2.78-1.7,6.77-1.48,17.29,1,26.81,5.22,37.4,12.24,9.3,6.65,7.85,25.74,6.57,42.58-.41,5.46-.8,10.6-.84,15.18,0,21.07-23.25,27-33.18,29.46l-1.8.46c-1,.27-2,.51-2.9.74-3.52.88-6.31,1.57-8.33,2.94-.52.36-1.1.84-1.77,1.4C73.76,117.69,69.73,121,63.37,121ZM69.84,13.67c-10.62,0-35.35,3.9-35.55,40.07,0,1.7,0,3.12,0,4.38.06,5.46.09,7.5-2.26,13.52-3.22,8.25-.87,23.15,10.27,28.66a26.93,26.93,0,0,0,4.11,1.17c1.53.34,2.38.52,2.74,1.8a21.4,21.4,0,0,1,.6,5.12c.17,4.8.33,9.34,9.06,11.36a20.13,20.13,0,0,0,4.53.54h0c6.09,0,10-3.25,12.57-5.4.69-.57,1.28-1.06,1.83-1.43,2.13-1.45,5-2.16,8.57-3,.92-.23,1.88-.47,2.89-.74.54-.14,1.14-.3,1.81-.46,9.76-2.47,32.61-8.25,32.61-28.74,0-4.61.43-9.77.85-15.23,1.26-16.65,2.69-35.52-6.25-41.91-10.48-6.94-19.9-11.16-37-12.12-.6,0-1.17-.05-1.7-.05-3.35,0-4.16.69-4.35,1.1s.28,1.14.28,1.14l.68.79-1-.17A34.33,34.33,0,0,0,69.84,13.67Z"/><path class="cls-14" d="M38.43,62.21C38.12,69,42.7,72.7,47.18,72.7s6.88-2.42,7.37-8.51c.33-4-1-13.74-5.54-14.29S38.71,56.11,38.43,62.21Z"/><path class="cls-15" d="M53.33,69.28a14,14,0,0,0,1.22-5.09c.33-4-1-13.74-5.54-14.29s-10.3,6.21-10.58,12.31A12.22,12.22,0,0,0,39,66.44C42.57,69.49,48.18,69.85,53.33,69.28Z"/><path class="cls-16" d="M54.28,64.49c-.25,4.54-2.87,8.11-5.56,8s-4.9-3.81-4.64-8.35,2.86-8.05,5.54-7.92S54.53,60,54.28,64.49Z"/><path class="cls-17" d="M51.55,64.37c-.13,2.21-1.28,3.95-2.59,3.89s-2.27-1.91-2.14-4.11,1.28-4,2.58-3.89S51.67,62.16,51.55,64.37Z"/><path class="cls-15" d="M50.17,61.29a1.69,1.69,0,0,1-1.79,1.54,1.65,1.65,0,0,1-1.62-1.7,1.7,1.7,0,0,1,1.8-1.55A1.65,1.65,0,0,1,50.17,61.29Z"/><path d="M47.18,73.06a8.88,8.88,0,0,1-6.25-2.62,10.47,10.47,0,0,1-2.87-8.25c.28-6.16,5.66-13,10.42-13a4.07,4.07,0,0,1,.61,0c5,.6,6.16,10.92,5.83,15C54.43,70.34,52,73.06,47.18,73.06Zm1.27-22.84c-4.34,0-9.38,6.28-9.65,12A9.84,9.84,0,0,0,41.47,70a8.15,8.15,0,0,0,5.71,2.4c4.44,0,6.54-2.45,7-8.18C54.54,59.7,53,50.74,49,50.25A4.36,4.36,0,0,0,48.45,50.22Z"/><path class="cls-14" d="M78.94,71.66s8.63,9.18,20.73,0C99.55,70,99.26,52.62,88.47,53,81.72,53.27,77.94,63.51,78.94,71.66Z"/><path class="cls-15" d="M99.44,68.48C98.87,63,96.79,52.72,88.47,53c-6.11.23-9.78,8.62-9.69,16.26C85,73.25,94.13,73.62,99.44,68.48Z"/><path class="cls-16" d="M96.84,66.32c0,5-2.93,9-6.18,9s-6.19-3.9-6.19-8.86,2.92-8.91,6.18-8.91S96.84,61.36,96.84,66.32Z"/><path class="cls-17" d="M93.52,66.32c0,2.41-1.28,4.37-2.86,4.37s-2.87-2-2.87-4.37S89.07,62,90.66,62,93.52,63.91,93.52,66.32Z"/><path class="cls-15" d="M91.65,63.36a2.07,2.07,0,1,1-2.06-2.1A2.08,2.08,0,0,1,91.65,63.36Z"/><path d="M88.94,76.12h0a14.91,14.91,0,0,1-10.27-4.2l-.09-.09v-.12c-.71-5.77.89-12.53,4-16.17,1.65-1.94,3.28-3.09,5.8-3.26.15,0,.37,0,.5,0,6.58,0,10.53,7,11.16,19,0,.18,0,.32,0,.41l0,.2L99.9,72A18.23,18.23,0,0,1,88.94,76.12Zm-9.65-4.63a14.49,14.49,0,0,0,9.65,3.89,17.42,17.42,0,0,0,10.35-3.86,1.55,1.55,0,0,1,0-.22c-.36-6.69-2.18-17.91-10.45-17.91h-.35a7.23,7.23,0,0,0-5.28,2.82C80.25,59.68,78.65,65.94,79.29,71.49Z"/><path class="cls-7" d="M81.69,52l.15-.13.43-.37a15.28,15.28,0,0,1,1.63-1.19,13,13,0,0,1,1.19-.66,9.25,9.25,0,0,1,1.43-.56,7.78,7.78,0,0,1,3.35-.33,7.22,7.22,0,0,1,1.67.45,4.54,4.54,0,0,1,.77.37l.36.2.33.24a4.26,4.26,0,0,1,.62.48c.2.17.38.35.55.52a5.89,5.89,0,0,1,.48.53c.14.18.29.34.41.51.24.35.46.66.63,1s.32.55.42.77l.33.7L96,53.9c-.13-.2-.32-.42-.53-.68s-.46-.54-.73-.85a6.2,6.2,0,0,0-.44-.45L94,51.68l-.25-.22a6,6,0,0,0-.55-.45c-.2-.14-.39-.29-.61-.42a7.75,7.75,0,0,0-1.35-.68,6.56,6.56,0,0,0-1.51-.38,6.28,6.28,0,0,0-1.56,0,8.21,8.21,0,0,0-1.51.25,11.3,11.3,0,0,0-1.39.44c-.43.17-.83.35-1.2.52-.74.36-1.34.7-1.76.95Z"/><path class="cls-18" d="M81.25,36.68a14.71,14.71,0,0,1,1.87-4.55c2.47-3.83,9.17-6.89,13,8.58C93.15,36.51,89.84,30.66,81.25,36.68Z"/><path class="cls-7" d="M96.93,42.56l-1.15-1.63-.48-.7c-1.86-2.7-4-5.76-7.49-5.76-1.86,0-3.94.82-6.35,2.51l-.76.54.18-.92a15,15,0,0,1,1.92-4.68c1-1.58,2.92-3.27,5.18-3.27,2.53,0,6,2.08,8.47,12Zm-9.12-8.83c3.42,0,5.56,2.47,7.36,5-1.79-6-4.31-9.33-7.19-9.33-2,0-3.63,1.51-4.55,2.93a14,14,0,0,0-1.57,3.49A11.19,11.19,0,0,1,87.81,33.73Z"/><path class="cls-18" d="M54,36.68a14.71,14.71,0,0,0-1.87-4.55c-2.47-3.83-9.17-6.89-13,8.58C42.13,36.51,45.45,30.66,54,36.68Z"/><path class="cls-7" d="M38.36,42.56l.48-1.94c2.43-9.89,5.94-12,8.46-12,2.26,0,4.16,1.69,5.18,3.27A15,15,0,0,1,54.4,36.6l.19.92L53.82,37c-2.41-1.69-4.48-2.51-6.35-2.51-3.51,0-5.62,3.06-7.49,5.76l-.47.7ZM47.3,29.4c-2.87,0-5.39,3.29-7.18,9.33,1.8-2.53,3.93-5,7.35-5a11.21,11.21,0,0,1,6,2.09,14.22,14.22,0,0,0-1.57-3.49C50.94,30.91,49.26,29.4,47.3,29.4Z"/><path class="cls-6" d="M73.78,3.37a16.89,16.89,0,0,1,3.77,5.4S65.94,2.22,57.1,12.21a37,37,0,0,1,6.82.42,20.39,20.39,0,0,1,3.21.73s-6.63,2.42-10.34,6.37c-4.39,4.66-4.32,9.89-3.3,10.08,1.46.26,4.35-2.94,7.33-4.55a12.22,12.22,0,0,1,4.06-1.49c-1.82,1.78-9.23,10.61-6,12.25,1.5.77,6.17-6,6.17-6L89.68,11.78C84.72,10.18,78.54,3.35,73.78,3.37Z"/><path class="cls-19" d="M76.77,5.29l1.15.91A2,2,0,0,0,76.77,5.29Z"/><path class="cls-19" d="M65.91,23.29C61,24,53.83,30.49,53.27,29.67,54.59,21,64.73,13.46,71.82,13.46c-3.9.07-9.89-1.27-13.63-1.27,7.37-5.32,14.89-4.43,20.12-2.56C76.39,6.56,74.48,3.55,74.72,4,78,6.55,84.8,11.38,89.21,11.61,84.33,9.76,78.39,3.35,73.78,3.37a16.89,16.89,0,0,1,3.77,5.4S65.94,2.22,57.1,12.21a37,37,0,0,1,6.82.42,20.39,20.39,0,0,1,3.21.73s-6.63,2.42-10.34,6.37c-4.39,4.66-4.32,9.89-3.3,10.08,1.46.26,4.35-2.94,7.33-4.55a12.22,12.22,0,0,1,4.06-1.49c-1.82,1.78-9.23,10.61-6,12.25C59.17,36.19,58,34,65.91,23.29Z"/><path class="cls-7" d="M59.11,35.71l-.09,0a1,1,0,0,1-.57-.82c-.4-2.63,4.94-9.13,6.69-10.83l.77-.75-1.07.11a12.54,12.54,0,0,0-4.2,1.53A27.82,27.82,0,0,0,57,27.42c-1.35,1-2.63,2-3.36,2h-.1s-.16-.18-.23-.62c-.27-1.67.5-5.41,3.72-8.84,3.61-3.83,10.13-6.24,10.2-6.27l.84-.31L67.29,13a21.33,21.33,0,0,0-3.3-.76,34.39,34.39,0,0,0-5.75-.44H58A14.82,14.82,0,0,1,69,7a19,19,0,0,1,8.4,2.06l1,.53-.42-1a16.78,16.78,0,0,0-3.12-4.79c2.4.44,5.17,2.38,7.87,4.26a39,39,0,0,0,5.72,3.55,5,5,0,0,0,1.71.44l.42-.45-.69-.22a28.9,28.9,0,0,1-6.73-3.93C79.91,5.28,76.64,3,73.78,3h-1l.72.65A16.62,16.62,0,0,1,76.76,8,19.84,19.84,0,0,0,69,6.29,15.72,15.72,0,0,0,56.82,12l-.58.66.88,0h1.12a32.52,32.52,0,0,1,5.61.43c1,.18,1.63.32,2.1.43-2,.86-6.55,3-9.43,6-3.58,3.81-4.39,8.17-3.81,9.93.18.57.49.73.72.78l.24,0c1,0,2.23-1,3.82-2.19A27.94,27.94,0,0,1,61,25.59a14.35,14.35,0,0,1,2.77-1.17c-2.2,2.44-6.45,7.88-6,10.56a1.8,1.8,0,0,0,1,1.38,1.09,1.09,0,0,0,.44.1h0c1.7,0,5-4.56,6-6C65,30.25,61,35.86,59.11,35.71Z"/><path class="cls-7" d="M65.92,14.26l-.36-.66c2.42-1.33,6.48-.08,6.65,0C72.21,13.57,68.07,13.08,65.92,14.26Z"/><path class="cls-5" d="M133.43,26.85c-13.28-15.84-26-10-26-10L109.32,28c7.75,5.6,12.82,14.95,11.51,33.15-2.23,31.11,17,37.87,23.62,37.53,7.66-.39,5.93-7.47,4.51-13.44-1.8-7.59,6.82-19.6,10.71-33.39C164,36.56,143.7,30,133.43,26.85Z"/><path class="cls-6" d="M144.82,91.24c.61-3.47-3.57-9.41-1.57-18.65,2.2,2.75,4.34,2.24,5.09,0,3.73-10.08,10.77-25.25,1.25-34.07-2.45-2.27-10.66-4.57-5.7,3.46C131.63,28.55,118.34,16.07,108,20.85L109.32,28c7.75,5.6,12.82,14.95,11.51,33.15-.89,12.37,1.62,20.89,5.38,26.64C133.11,95.51,144,96.15,144.82,91.24Z"/><path class="cls-7" d="M144,99c-3.18,0-9.4-1.45-14.82-7-4.65-4.74-9.93-14-8.71-31,1.15-16-2.56-26.85-11.33-33.19a9.94,9.94,0,0,1,4.41,2.93c6.09,6.74,8.64,16.68,7.66,30.31-1.2,16.72,4,25.76,8.5,30.39,4.81,4.9,11,6.93,14.73,6.74,2.1-.11,3.53-.72,4.4-1.87,1.83-2.45.75-7-.21-11l0-.11c-1.12-4.72,1.65-11,4.85-18.31a118.83,118.83,0,0,0,5.86-15.26c1.8-6.42-.72-12-7.51-16.6-5.49-3.72-12.41-6-18.48-7.9l-.1,0-.07-.09c-13-15.44-25.64-10-25.76-10l-.3-.82a19.51,19.51,0,0,1,8.38-.75c4.48.47,11.26,2.77,18.18,11C143,29.41,164.47,36.12,160,51.91a118.68,118.68,0,0,1-5.89,15.36c-3.16,7.17-5.88,13.36-4.81,17.84l0,.11c1,4.17,2.12,8.9.08,11.62-1,1.33-2.66,2.06-5,2.17Z"/><path class="cls-7" d="M144.77,42.81C144.7,42.76,138,38,133.09,27l.69-.3C138.56,37.45,144.77,42.81,144.77,42.81Z"/><path class="cls-7" d="M148.55,84.84c-3.41-4.3-5.23-11.93-5.3-12.25,0,0,2.58,7.62,5.89,11.78Z"/><path class="cls-7" d="M119.21,36.08s.46.61,1.19,1.71,1.75,2.7,2.85,4.7a61.78,61.78,0,0,1,3.35,7A38.13,38.13,0,0,1,129,58.12a20.65,20.65,0,0,1,.13,4.58,8.36,8.36,0,0,1-.14,1.12c0,.19,0,.38-.09.56l-.14.55-.14.54-.18.53-.18.52-.19.49c-.52,1.33-1,2.6-1.37,3.83-.1.31-.19.61-.28.91l-.24.89c-.17.58-.27,1.16-.39,1.71a16.13,16.13,0,0,0-.27,3,9.12,9.12,0,0,0,.36,2.32c.19.63.35,1.13.44,1.47s.12.53.12.53-.05-.18-.16-.52-.32-.8-.54-1.43a9.61,9.61,0,0,1-.5-2.36,14.7,14.7,0,0,1,.13-3.12c.1-.56.18-1.16.33-1.75.06-.3.13-.61.21-.92l.25-.93c.36-1.26.8-2.58,1.3-3.9l.18-.5c.05-.17.11-.33.16-.5l.17-.5.12-.52.12-.52c0-.17.05-.35.08-.53a9.39,9.39,0,0,0,.12-1.08,19.78,19.78,0,0,0-.15-4.41,31.85,31.85,0,0,0-.92-4.36c-.4-1.42-.84-2.81-1.34-4.12s-1-2.58-1.55-3.76-1.06-2.28-1.57-3.3c-1-2-1.92-3.67-2.59-4.81S119.21,36.08,119.21,36.08Z"/><path class="cls-2" d="M86.35,88.53C82.68,78.78,73.22,81,66,68.3c-3.81-6.67-2.25-11.83,0-14.44,3.77-4.37,3-6.19,1.06-9.27-.79-1.26-4.33-6.6-4.33-6.6S52.07,42.81,55.3,52.74c1.91,5.88,1.26,6.13-2.31,11.89-8.35,13.5-10.81,15-12.91,19.59A19.59,19.59,0,0,0,39.6,99a19.25,19.25,0,0,0,2.57,1.55c4.6,1.74,6.15,1,6.65,2.74a23.4,23.4,0,0,1,.6,5.58c.18,4.64.67,9.15,9.33,11.16,7.6,1.75,12.67-.1,17.6-5.07C80.88,110.38,90.23,98.79,86.35,88.53Z"/><path class="cls-3" d="M86.35,88.53C82.68,78.78,73.22,81,66,68.3c-3.81-6.67-2.25-11.83,0-14.44,3.77-4.37,3-6.19,1.06-9.27-.79-1.26-4.33-6.6-4.33-6.6S52.07,42.81,55.3,52.74c1.91,5.88,1.26,6.13-2.31,11.89-8.35,13.5-10.81,15-12.91,19.59A19.59,19.59,0,0,0,39.6,99a19.25,19.25,0,0,0,2.57,1.55c4.6,1.74,6.15,1,6.65,2.74a23.4,23.4,0,0,1,.6,5.58c.1,2.42.28,4.8,1.65,6.81,5.39,6.45,15.95,4.8,23.92-3.07,1.69-1.67,4-2.26,6.18-3.34C85.16,103.66,89,95.61,86.35,88.53Z"/><path class="cls-4" d="M76.08,114.78c-3.84,3.88-7.58,5.61-12.11,5.61a22.61,22.61,0,0,1-5.13-.64c-8.71-2-8.88-6.68-9-10.8l0-.56a21.4,21.4,0,0,0-.6-5.12c-.33-1.17-1.07-1.42-2.37-1.71,0,.24-.08.49-.13.73,1.21.28,1.57.44,1.79,1.18a21.26,21.26,0,0,1,.56,4.94l0,.56c.16,4.17.36,9.37,9.62,11.51a23.54,23.54,0,0,0,5.3.66h0c4.75,0,8.65-1.8,12.64-5.83.49-.5,1.32-1.32,2.36-2.55-.44.11-1,.46-1.46.6A19.88,19.88,0,0,1,76.08,114.78Z"/><path class="cls-20" d="M53.34,104.15c-.07.49-2.69,9.9,5.61,10.69C72,116.08,81.13,93.29,81.13,93.29V93S53.4,103.66,53.34,104.15Z"/><path class="cls-21" d="M66.71,98.62c-3.32,3-11.32,7.72-11.87,13.14-.23,2.22,2.32,2.91,4.11,3.08C72,116.08,81.13,93.29,81.13,93.29V93S73.83,95.83,66.71,98.62Z"/><path class="cls-22" d="M59.9,104.15c-2.55,2.26-4.78,4.84-5.06,7.61-.23,2.22,2.32,2.91,4.11,3.08,3.89.37,7.43-1.39,10.48-4C69.43,106.87,64.15,105.11,59.9,104.15Z"/><path class="cls-23" d="M60,115.26h0c-.36,0-.72,0-1.07-.05a5.87,5.87,0,0,1-3.9-1.58,2.53,2.53,0,0,1-.55-1.91c.45-4.33,5.26-8,9.13-11,1.09-.84,2.11-1.64,2.87-2.32l.05,0,.06,0c7-2.75,14.35-5.55,14.42-5.58l.51-.19v.86l0,.07C81.12,94.32,72.6,115.26,60,115.26ZM66.91,99c-.77.69-1.79,1.48-2.87,2.31-3.55,2.76-8.42,6.53-8.83,10.54a1.73,1.73,0,0,0,.38,1.35c.76.94,2.45,1.23,3.39,1.32.33,0,.67,0,1,0,11.06,0,19.19-17.62,20.59-20.86C78.58,94.42,72.66,96.69,66.91,99Z"/><path class="cls-4" d="M60,115.26h0c-.36,0-.72,0-1.07-.05a6.68,6.68,0,0,1-5-2.54c-1-1.33-1.92-3.86-1-8.39,0-.09,0-.15,0-.18,0-.33.06-.53,14.15-6C74,95.38,80.92,92.72,81,92.69l.51-.19v.86l0,.07C81.12,94.32,72.6,115.26,60,115.26Zm-6.3-10.91,0,.09c-.92,4.26-.06,6.58.82,7.79a6,6,0,0,0,4.5,2.24c.33,0,.67,0,1,0,11.06,0,19.19-17.62,20.59-20.86C70.14,97.65,55.08,103.53,53.68,104.35Z"/><path class="cls-2" d="M38.39,84.51S32.17,91.09,36.3,99.2c2.94,5.77,8.19,6.91,13.16,5.84,3,1,17.51,8.9,33.57-12.63Z"/><path class="cls-3" d="M38.48,84.51s-6.21,6.58-2.09,14.69C39.33,105,43,104,47.19,100.26c3,1,16.33,13.69,36.07-8.21Z"/><path class="cls-4" d="M59.13,107.67a24.06,24.06,0,0,1-9.18-2l-.68-.27c-6,1.28-10.44-.7-13.07-5.87a13.22,13.22,0,0,1,1.58-14.62l.55.51a12.24,12.24,0,0,0-1.46,13.77c2.47,4.86,6.62,6.7,12.35,5.46l.1,0,.1,0,.8.31c4.35,1.73,17.58,7,32.35-12.81l.6.45c-6.42,8.61-13.37,13.57-20.65,14.75A21.5,21.5,0,0,1,59.13,107.67Z"/><path class="cls-4" d="M48.94,105.15c-.83-2.86-1.83-3.62-1.84-3.63l.43-.61s1.22.87,2.13,4Z"/><path class="cls-4" d="M84,94.13c-.27-1.53-3.5-3.22-4.72-3.74a6.29,6.29,0,0,1,3.09.83A3.19,3.19,0,0,1,84,94.13Z"/><path class="cls-24" d="M37.81,83.64C42.08,76.49,59.9,80,58.89,88.05c-.59,4.77-8.51,13.4-11.57,13.17C44.47,101,34.43,89.3,37.81,83.64Z"/><path class="cls-24" d="M57.24,83.54A5,5,0,0,1,57.55,86C57,90.78,49,99.41,46,99.18c-1.3-.1-4.11-2.6-6.45-5.83,2.49,4.16,6.23,7.75,7.8,7.87,3.06.23,11-8.4,11.57-13.17A5.37,5.37,0,0,0,57.24,83.54Z"/><path class="cls-25" d="M45.34,99.54C48.64,99.88,57,90.78,57.55,86a5,5,0,0,0-.31-2.47c-4.4-4.56-16.08-5.51-19.43.1-1.52,2.55-.32,6.32,1.71,9.71C41.86,96.58,44,99.41,45.34,99.54Z"/><path class="cls-26" d="M47.44,101.6h-.15c-2-.15-6.48-4.86-8.81-9.32-1.33-2.56-2.58-6.16-1-8.82s4.87-4,9.16-4c4.46,0,8.92,1.66,11.1,4.14a5.63,5.63,0,0,1,1.51,4.55C58.68,92.76,50.94,101.6,47.44,101.6Zm-.79-21.46c-4,0-7.12,1.35-8.52,3.69s-.23,5.71,1,8.09c2.48,4.78,6.73,8.82,8.19,8.93h.1c2.83,0,10.51-8.3,11.08-12.85a4.89,4.89,0,0,0-1.33-4C55.14,81.71,50.9,80.14,46.65,80.14Z"/><path class="cls-26" d="M37.31,86.63l-.4-.63c7-4.4,14.27-1.13,14.34-1.09S43.92,82.46,37.31,86.63Z"/><path class="cls-27" d="M54.42,92c-1.74-2.53-4-3.23-5.26-1.54s-.92,3.86,3.2,4.48a11.23,11.23,0,0,1,2.44.62c.59-.71,1.15-1.44,1.66-2.18A2.75,2.75,0,0,1,54.42,92Z"/><path class="cls-28" d="M49.16,90.43c-1,1.67-.92,3.84,3.13,4.47a31.56,31.56,0,0,0,2.27-2.75L54.42,92C52.68,89.44,50.54,88.87,49.16,90.43Z"/><path d="M54.91,96l-.25-.09a11,11,0,0,0-2.36-.6c-2.63-.4-3.58-1.44-3.92-2.24a2.88,2.88,0,0,1,.48-2.83,2.43,2.43,0,0,1,2-1.08c1.31,0,2.71,1,3.86,2.63A2.45,2.45,0,0,0,56.49,93l.64,0-.37.53a27.45,27.45,0,0,1-1.68,2.21Zm-4-6.09a1.68,1.68,0,0,0-1.41.77,2.18,2.18,0,0,0-.39,2.1c.38.9,1.53,1.52,3.34,1.79a12,12,0,0,1,2.27.55c.4-.49.79-1,1.15-1.49a3.51,3.51,0,0,1-1.72-1.42C53.13,90.74,51.91,89.88,50.87,89.88Z"/><path class="cls-27" d="M43.63,90.35c-1.25-1.42-3.2-.9-4.78,1.4l-.12.17a21.7,21.7,0,0,0,1.51,2.58l.49-.08C44.47,93.86,44.52,91.87,43.63,90.35Z"/><path class="cls-28" d="M42.93,89.72c-1.16-.61-2.79.15-4.08,2l-.12.17a20.35,20.35,0,0,0,1.08,1.92C41.78,93.81,43.86,91.55,42.93,89.72Z"/><path d="M40.07,94.91l-.14-.2a23.29,23.29,0,0,1-1.54-2.63l-.1-.2.18-.24.07-.1c1.05-1.53,2.34-2.4,3.54-2.4a2.24,2.24,0,0,1,1.86,1,2.66,2.66,0,0,1,.43,2.6c-.31.74-1.18,1.7-3.59,2.06l-.47.08Zm-.91-3a20.91,20.91,0,0,0,1.26,2.14l.25,0c1.63-.25,2.67-.8,3-1.6a1.92,1.92,0,0,0-.35-1.88,1.49,1.49,0,0,0-1.25-.69A4.07,4.07,0,0,0,39.16,92Z"/><ellipse class="cls-29" cx="47.36" cy="81.79" rx="3.38" ry="1.28"/></svg>