<svg id="Layer_1" data-name="Layer 1" xmlns="http://www.w3.org/2000/svg" viewBox="0 0 300 310"><defs><style>.cls-1{fill:#323232;opacity:0.4;}.cls-2{fill:#e0d0cd;}.cls-3{fill:#fff2ee;}.cls-4{fill:#635957;}.cls-5{fill:#b25c13;}.cls-6{fill:#c56f25;}.cls-7{fill:#472006;}.cls-8{fill:#d10d0d;}.cls-9{fill:#330202;}.cls-10{fill:#680404;}.cls-11{fill:#a00505;}.cls-12{fill:#ba0404;}.cls-13{fill:#9e0404;}.cls-14{fill:#96431a;}.cls-15{fill:#f9c59b;}</style></defs><ellipse class="cls-1" cx="153.34" cy="281.3" rx="115.07" ry="26.25"/><path class="cls-2" d="M72.44,187.22c-.8,22.86,5,69.92,0,77.55-1.12,1.71-11.21,3.18-13.67,9.68-1.37,3.61-1.76,10.08,2.11,10.14,1.12,2.36,4.27,7,13.79,3.27,1.3.69,6.28,3.11,9-1.29,1.67-1.83,16.34-.26,18-15.27.75-10.27,3.14-39.52-1.1-50.93C96.59,209.62,72.44,187.22,72.44,187.22Z"/><path class="cls-3" d="M78.37,194.36a39.49,39.49,0,0,1-5.93-7.14c-.8,22.86,5,69.92,0,77.55-1.12,1.71-11.21,3.18-13.67,9.68-1.37,3.61-1.76,10.08,2.11,10.14,1,2.07,2.86,6,9.93,4.42a8.05,8.05,0,0,0,3.63-1.31c.42-.09-2.56-7.55,2.21-11.1C108.64,252.84,85.76,208.49,78.37,194.36Z"/><path class="cls-4" d="M68.3,289.69A8.14,8.14,0,0,1,60.59,285a3,3,0,0,1-2.3-1.36c-1.46-2.15-1.06-6.44.06-9.38,1.73-4.58,7.06-6.75,10.58-8.18a10,10,0,0,0,3.13-1.59c3-4.62,2-24.81.92-44.34-.64-11.94-1.3-24.29-1-33l0-1,.73.68c1,.92,24.28,22.6,28.26,33.32,4.08,11,2.09,38.1,1.23,49.67l-.1,1.45C100.84,283.08,91.76,285,86.88,286a8.89,8.89,0,0,0-2.84.84,5.45,5.45,0,0,1-4.86,2.75h0a10.23,10.23,0,0,1-4.54-1.24A18.34,18.34,0,0,1,68.3,289.69Zm4.57-101.44c-.22,8.57.41,20.42,1,31.88C75,240.71,76,260.15,72.82,265c-.44.67-1.74,1.2-3.55,1.94-3.37,1.37-8.48,3.44-10.07,7.65-1,2.71-1.38,6.75-.15,8.55a2.16,2.16,0,0,0,1.84,1h.28l.12.26a7.22,7.22,0,0,0,7,4.38,17.53,17.53,0,0,0,6.21-1.35l.19-.07.18.09a9.43,9.43,0,0,0,4.3,1.24h0a4.64,4.64,0,0,0,4.12-2.36l0-.07c.5-.55,1.63-.79,3.34-1.15,5-1,13.31-2.79,14.54-13.86l.1-1.43c.85-11.51,2.84-38.47-1.17-49.29C96.64,211.06,76.94,192.1,72.87,188.25Z"/><path class="cls-4" d="M74.24,288c-1.69-4.54.87-9.93,1-10.16,0,0-1.68,5.67-.12,9.84Z"/><path class="cls-4" d="M60.43,284.67c-1-6.06,4.82-10.3,5.07-10.48,0,0-5.12,4.83-4.17,10.32Z"/><path class="cls-5" d="M220.3,248.06s1.43,10.21,30.43,10.56c19.26.22,46.49-2.68,46.49,4.33,0,6.22-44.14,20-84.19,13.21C205.51,276.5,220.3,248.06,220.3,248.06Z"/><path class="cls-6" d="M223.28,264.54c23.32,8.55,50.28,6.82,73.54-2.92-3.38-5.29-28.18-2.79-46.09-3-29-.35-30.43-10.56-30.43-10.56s-1.29,2.49-2.92,6C217.47,258.7,219.44,263.49,223.28,264.54Z"/><path class="cls-7" d="M235.88,278.44A138.3,138.3,0,0,1,213,276.62a2.14,2.14,0,0,1-2.06-1c-2.86-4.71,7.74-25.39,9-27.73l.65-1.26.2,1.41c0,.1,1.85,9.83,30,10.16,4.64,0,9.81-.07,14.81-.2,4.12-.1,8.39-.21,12.27-.21a75.38,75.38,0,0,1,13.87.91c4,.8,6,2.2,6,4.29,0,3.4-9.75,7.32-18.88,9.85a168.08,168.08,0,0,1-42.91,5.64Zm-22.83-2.74h0a137.08,137.08,0,0,0,22.78,1.82h0a167.09,167.09,0,0,0,42.67-5.61c11.95-3.32,18.21-7,18.21-9,0-1.58-1.72-2.69-5.25-3.4a75.35,75.35,0,0,0-13.69-.89c-3.87,0-8.13.11-12.25.21-5,.13-10.19.26-14.84.2-23.72-.28-29.25-7.1-30.52-9.84-3.48,6.86-10.59,22.43-8.49,25.88a1.28,1.28,0,0,0,1.28.6Z"/><path class="cls-2" d="M297.22,263c0-4.62-11.83-4.93-25.4-4.68a5.8,5.8,0,0,1-1.23,3.84c1.05.27,11.32,2.77-2.2,7,0,0,6.61,1.91,4.94,4.15,0,.18.08.29.08.44C287.66,270.36,297.21,265.84,297.22,263Z"/><path class="cls-3" d="M271.82,258.27a5.8,5.8,0,0,1-1.23,3.84c1.05.27,11.32,2.77-2.2,7l.28.08c9.66-1.24,30.37-4.41,28.15-7.56C294.68,258.27,284,258,271.82,258.27Z"/><path class="cls-4" d="M291.69,258.66a75.46,75.46,0,0,0-13.87-.91c-1.74,0-3.71,0-6,.07l0,.91s4.5-.07,6-.07a75.35,75.35,0,0,1,13.69.89c3.53.71,5.25,1.82,5.25,3.4,0,2.35-8.48,6.72-22.75,10.14-.22.07-.68.16-.68.16l-.22,1c14.66-3.34,24.56-7.94,24.56-11.28C297.67,260.86,295.71,259.46,291.69,258.66Z"/><path class="cls-2" d="M121.66,282.08s21.39-1.89,28.25-5.54,2.87-33.42,2.87-33.42S121.2,266.51,121.66,282.08Z"/><path class="cls-4" d="M121.22,282.58l0-.48c-.46-15.63,30-38.38,31.31-39.34l.62-.46.1.76c.17,1.23,4,30.13-3.11,33.88-6.86,3.65-27.54,5.52-28.42,5.6ZM152.43,244c-4.38,3.36-30.12,23.68-30.32,37.62,3.23-.31,21.46-2.19,27.59-5.44C155.6,273,153,248.66,152.43,244Z"/><path class="cls-8" d="M103.7,114.82c-20.66,4.74-36.09,14.3-34.47,21.37v0c25.57-3.88,49.4-10.83,74.78-17.19C142.05,111.75,124.14,110.13,103.7,114.82Z"/><path class="cls-9" d="M125,111.75a98.32,98.32,0,0,0-21.41,2.62c-10,2.31-19.17,5.81-25.72,9.87s-9.9,8.42-9.08,12l.9-.14s0,0,0-.06c-.73-3.16,2.43-7.19,8.67-11.06,6.47-4,15.51-7.48,25.45-9.76a97,97,0,0,1,21.2-2.6c10.53,0,17.42,2.34,18.53,6.27l.88-.23C143.2,114.34,136,111.75,125,111.75Z"/><path class="cls-10" d="M105.24,118c-18.31,4.2-32.17,11.86-31,17.1,0,.09.06.18.09.27,7.54,7.25,29.09,3.17,42-.15,8.93-2.3,26.05-10.06,24.11-15.55C138.91,114.64,123.29,113.88,105.24,118Z"/><path class="cls-9" d="M126.42,114.89a97.41,97.41,0,0,0-21.28,2.69c-8.9,2-17,5-22.92,8.2-6,3.34-9,6.69-8.39,9.44a2.27,2.27,0,0,0,.06.25l.91-.16-.09-.29c-.52-2.29,2.37-5.37,8-8.44,5.81-3.21,13.87-6.09,22.68-8.12a98.5,98.5,0,0,1,21.08-2.66c7.76,0,12.84,1.53,13.66,4,.29-.07.57-.19.86-.26C140,116.55,134.89,114.89,126.42,114.89Z"/><path class="cls-5" d="M155.32,145.33c-5.41-9.68-8.6-7.7-14.07-14.16a10.26,10.26,0,0,1-.72-1c-18.79,13.35-44,16-66.87,15.92-1.3,7.73-6.26,22.53-5.24,37.93,1.75,26.4,32.28,44.4,41.39,57,29.62,33.72,69.72,37.44,69.72,37.44s43.75-34.1,47.4-43.82C225.56,185.86,155.57,145.78,155.32,145.33Z"/><path class="cls-6" d="M156.06,161.86c0-14-27.91-35.69-28.35-26.88-17.16,8.17-35.14,11.22-54,11.12-1.3,7.73-6.26,22.53-5.24,37.93,1.75,26.4,32.28,44.4,41.39,57,29.62,33.72,69.72,37.44,69.72,37.44s29-22.6,41.74-36.25c-.62-6.37-2.71-12.35-4.83-18.66C201.86,180,166.54,161,156.06,161.86Z"/><path class="cls-7" d="M179.21,278.91l-.18,0a103.25,103.25,0,0,1-23.87-6.1A115.67,115.67,0,0,1,109,241.3c-2.65-3.65-7-7.7-12.11-12.38-12.54-11.57-28.14-26-29.39-44.86-.77-11.64,1.84-22.88,3.75-31.09.63-2.71,1.17-5,1.49-6.95l.06-.38h1.91c29.2,0,49.88-5,65.09-15.84l.39-.27.26.4a9.7,9.7,0,0,0,.68.94,24.48,24.48,0,0,0,5.72,4.94c2.63,1.75,5.11,3.41,8.36,9.21.14.1.53.34,1,.62a234.3,234.3,0,0,1,38.19,29.46c21.06,20.33,32,40.35,32.54,59.49v.09l0,.09c-3.64,9.73-45.74,42.62-47.53,44ZM73.58,146.55c-.33,1.86-.84,4.08-1.43,6.62-1.9,8.16-4.5,19.33-3.73,30.83,1.22,18.54,16.68,32.79,29.1,44.25,5.11,4.71,9.53,8.79,12.2,12.48a114.9,114.9,0,0,0,45.73,31.2,104.82,104.82,0,0,0,23.49,6c2.76-2.17,43.4-34.11,47.07-43.43-1.21-40.59-49.56-75.14-70.3-88.12-1.17-.73-1.17-.73-1.24-.86-3.17-5.68-5.57-7.28-8.11-9a24.81,24.81,0,0,1-5.91-5.1,7.84,7.84,0,0,1-.49-.65c-15.34,10.74-36.08,15.74-65.24,15.74Z"/><path class="cls-5" d="M140.08,130.18c-3.42-5.24-7.83-19.42-7.83-19.42s-61,26.49-59,30.63c.44.91.36,2.53,0,4.71C96.08,146.23,121.28,143.53,140.08,130.18Z"/><path class="cls-6" d="M73.2,141.39c.44.91.36,2.53,0,4.71,21.07.12,44.1-2.17,62.28-12.94a48.53,48.53,0,0,1-7.41-20.56C114.34,118.66,71.54,137.91,73.2,141.39Z"/><path class="cls-7" d="M74.73,146.56H72.66l.09-.53c.24-1.44.5-3.46,0-4.44a1.07,1.07,0,0,1,0-.84c2-5.41,53.44-27.86,59.29-30.4l.47-.2.15.49c0,.14,4.42,14.18,7.77,19.31l.24.36-.36.26C125,141.47,104.12,146.56,74.73,146.56Zm-1-.92h1c29,0,49.56-5,64.74-15.59-3.05-5-6.69-16.17-7.49-18.68-16.14,7-56.75,25.45-58.33,29.68a.37.37,0,0,0,0,.13C74,142.05,74.06,143.44,73.73,145.64Z"/><path class="cls-3" d="M106.46,143.53a198.62,198.62,0,0,1-3.09-19.67c-15.47,7.32-31.19,15.39-30.17,17.53.44.91.36,2.53,0,4.71A177.49,177.49,0,0,0,106.46,143.53Z"/><path class="cls-4" d="M74.72,145.65h-1c.33-2.2.29-3.59-.12-4.45a.48.48,0,0,1,0-.12c.36-1,3.66-3.89,20.22-12.1,0-.32,0-.65-.09-1-20,9.86-20.71,12-21,12.77a1,1,0,0,0,0,.81c.46,1,.2,3,0,4.44l-.09.53h2.06a191.34,191.34,0,0,0,24.33-1.41c-.07-.3-.13-.59-.2-.89A190.35,190.35,0,0,1,74.72,145.65Z"/><path class="cls-2" d="M175.13,203.48c-26.95,2.43-25.43-12.62-25.07-23.24.48-14.06-15.51-6.24-17.77-7.3-5.43-2.52-6-1.94-14-5.31-5.74-2.43-9.48-13.11-11.86-24.1A177.49,177.49,0,0,1,73.2,146.1C71.9,153.83,66.94,168.63,68,184c1.75,26.4,32.28,44.4,41.39,57,29.62,33.72,69.73,37.44,69.73,37.44s28.21-22,41.21-35.69C221,211.9,197,201.5,175.13,203.48Z"/><path class="cls-3" d="M167.84,215.63c4.85-15.41,29.18,8,42-1.79-8.89-8.55-22.14-11.5-34.67-10.36-26.95,2.43-25.43-12.62-25.07-23.24.48-14.06-15.51-6.24-17.77-7.3-5.43-2.52-6-1.94-14-5.31-5.74-2.43-9.48-13.11-11.86-24.1A177.49,177.49,0,0,1,73.2,146.1C71.9,153.83,66.94,168.63,68,184c1,14.74,10.93,26.87,21.12,36.89,11.63,10.29,24.73-2,38.05-1.95,6.76,0,13.41-2.56,16.92,3.34C148.21,229.3,163.13,230.57,167.84,215.63Z"/><path class="cls-4" d="M219.83,242.38v.18c-12.4,13-38.69,33.69-40.89,35.41a104.82,104.82,0,0,1-23.49-6,115,115,0,0,1-45.73-31.2c-2.67-3.69-7.09-7.77-12.2-12.48C85.1,216.79,69.64,202.54,68.42,184c-.77-11.5,1.83-22.67,3.73-30.83.59-2.54,1.1-4.76,1.43-6.62h1.14a187.68,187.68,0,0,0,25.76-1.6l-.12-.91a185.86,185.86,0,0,1-25.64,1.6H72.81l-.06.38c-.32,1.91-.86,4.24-1.49,6.95-1.91,8.21-4.52,19.45-3.75,31.09,1.25,18.9,16.85,33.29,29.39,44.86,5.08,4.68,9.46,8.73,12.11,12.38a115.67,115.67,0,0,0,46.15,31.49,103.25,103.25,0,0,0,23.87,6.1l.18,0,.15-.11c.28-.22,28.38-22.17,41.26-35.74l.12-.12v-.25Z"/><path class="cls-11" d="M144,119.1c1.48,7.06-13.9,16.57-34.48,21.29s-38.7,2.86-40.33-4.2a5.32,5.32,0,0,1,.21-2.86c-2.47,3-3.23,6.8-3.06,10.72.4,9.29,21.45,10.54,43.09,5.58,18.34-4.21,32.37-10.71,35.33-18A20.55,20.55,0,0,0,144,119.1Z"/><path class="cls-12" d="M136.29,137.11c4.3-2.78,5.7-4.89,4.41-10.75-7.5,7-18.55,11.14-31.14,14-20.65,4.74-38.7,2.86-40.33-4.2a5.32,5.32,0,0,1,.21-2.86c-2.47,3-3.23,6.8-3.06,10.72a5.67,5.67,0,0,0,1.24,3.32C74.83,154.56,117.27,149.42,136.29,137.11Z"/><path class="cls-9" d="M86.25,153h0c-12.67,0-20.08-3.24-20.33-8.88-.19-4.52.87-8.23,3.17-11l1.6-1.95-.82,2.39a4.71,4.71,0,0,0-.19,2.6c.93,4,7.87,6.47,18.57,6.47a97,97,0,0,0,21.21-2.6c20.25-4.65,35.56-14,34.13-20.75l.86-.29c2.11,4.62,1.5,11.16.78,12.93-2.88,7-15.87,13.69-35.66,18.23A106.82,106.82,0,0,1,86.25,153ZM68.67,135.26A15.94,15.94,0,0,0,66.83,144c.22,5.09,7.3,8,19.42,8h0a105.69,105.69,0,0,0,23.12-2.86c19.2-4.41,32.29-11,35-17.68.55-1.35,1-6,0-10-1.81,6.93-16,15-34.73,19.29a97.77,97.77,0,0,1-21.42,2.63c-11.15,0-18.43-2.68-19.46-7.17A4.46,4.46,0,0,1,68.67,135.26Z"/><path class="cls-13" d="M74.8,135.31l-.91.16,0,0,.92-.14Z"/><path class="cls-13" d="M73.91,135.5h0l0,.07S73.91,135.52,73.91,135.5Z"/><path class="cls-8" d="M144,119a.45.45,0,0,0,0-.11l-3.46.9c.63,2.75-2.17,5.6-8.13,9.08-17.26,10.11-53.87,16.24-58.47,6.68l0-.07-4.65.71c1.66,7,19.69,8.91,40.32,4.18S145.64,126.08,144,119Z"/><path class="cls-9" d="M88.18,143.49c-10.74,0-18.29-2.51-19.38-7.18l-.11-.48.48-.07,4.65-.71.32-.05.2.37c.73,1.5,2.37,2.66,4.88,3.43,11.29,3.45,38.51-1.85,52.95-10.3,6-3.48,8.44-6.31,7.89-8.7l.88-.22c.66,2.87-1.88,6-8.31,9.71-6.8,4-17.16,7.6-27.71,9.69-10.88,2.15-20.35,2.41-26,.69-2.65-.81-4.43-2-5.32-3.67l-3.81.58c1.07,2.91,5.58,5,12.5,5.68,7.57.79,17.2,0,27.13-2.31s19-5.75,25.45-9.76c6.23-3.87,9.4-7.9,8.67-11.07a.25.25,0,0,0,0-.07.49.49,0,0,1,0-.11l.88-.24,0,.06a.75.75,0,0,1,.05.16c1.7,7.42-13.59,17-34.8,21.91A97.8,97.8,0,0,1,88.18,143.49Z"/><path class="cls-9" d="M143.58,119.12c.73,3.17-2.44,7.2-8.67,11.07-6.47,4-15.51,7.47-25.45,9.76a97,97,0,0,1-21.21,2.6c-10.65,0-17.58-2.4-18.56-6.41l-.9.14h0c1,4.49,8.31,7.17,19.46,7.17a97.77,97.77,0,0,0,21.42-2.63c21.21-4.86,36.5-14.49,34.8-21.91l-.07-.25c-.3.07-.61.06-.91.14C143.51,118.87,143.57,119.06,143.58,119.12Z"/><path class="cls-7" d="M154.46,145.54l.81-.41a63.59,63.59,0,0,1,4,10S156.92,150.35,154.46,145.54Z"/><path class="cls-5" d="M221.86,213.8l-23.8-9.58-19-1.38s-29.85,8.38-25,40.17c2.74,17.83,20,26.62,20,26.62s-18.86-4.4-29.42,5.3c-7.8,7.15-9.05,16.27-5.06,17.18.4,1.11.45,5.75,14.47,4.22,2.28.72,7.1,4.78,24.72-.5C189,293,200.07,290.57,202.43,290c3.41-.91,18.23-4.79,15.95-16.52C222,270.81,235,249.27,221.86,213.8Z"/><path class="cls-6" d="M209.58,207.37l-11.52-3.15-19-1.38s-29.85,8.38-25,40.17c2.74,17.83,20,26.62,20,26.62s-18.86-4.4-29.42,5.3c-7.8,7.15-9.05,16.27-5.06,17.18.4,1.11.45,5.75,14.47,4.22,2.28.72,7.1,4.78,24.72-.5C189,293,200.07,290.57,202.43,290c3.41-.91,6.72-4.14,4.44-15.88C210.52,271.45,226.93,241.15,209.58,207.37Z"/><path class="cls-2" d="M218.39,273.52c-1.52.74-2.65,1.16-3.06,1,2.17-9-3.25-14.35-8.88-18.76-1.81-1.42-3.84-2.72-5.84-4.13-15.84-11.21-15.25-18.79-8.62-25.48,7.63-7.73,8.69-15.92,4.55-19.83-4.65-4.4-13.35-3.51-19.12-3l-4,1.91c-8.07,3.91-22.87,14.39-19.26,37.78,2.74,17.83,20,26.62,20,26.62s-12.41-2.9-22.73,1.19a21.6,21.6,0,0,0-6.69,4.11c-7.8,7.15-9.05,16.27-5.06,17.18.4,1.11.45,5.75,14.47,4.22,2.28.72,7.1,4.78,24.72-.5C189,293,200.07,290.57,202.43,290,205.83,289,220.57,285.18,218.39,273.52Z"/><path class="cls-3" d="M207.4,274.79a45.38,45.38,0,0,0,5.86-12.22,33.36,33.36,0,0,0-6.81-6.77c-1.81-1.42-3.84-2.72-5.84-4.13-15.84-11.21-15.25-18.79-8.62-25.48,7.63-7.73,8.69-15.92,4.55-19.83-4.65-4.4-13.35-3.51-19.12-3l-4,1.91c-8.07,3.91-22.87,14.39-19.26,37.78,2.74,17.83,20,26.62,20,26.62s-12.41-2.9-22.73,1.19a21.6,21.6,0,0,0-6.69,4.11c-7.8,7.15-9.05,16.27-5.06,17.18.4,1.11.45,5.75,14.47,4.22,2.28.72,7.1,4.78,24.72-.5C189,293,200.11,290.7,202.43,290c5.59-1.83,8-6.19,7.48-9.54C209.4,277.28,206.56,275.86,207.4,274.79Z"/><path class="cls-4" d="M217.88,273.23l.05.28c1,5.14-.89,12.09-15.62,16-.65.18-2,.49-3.8.91-4.66,1.09-12.47,2.92-19.79,5-15.2,4.56-20.73,2.11-23.39.94a10.2,10.2,0,0,0-1.07-.44l-.09,0h-.09c-12.54,1.38-13.52-2.21-13.89-3.56l-.1-.36-.09-.23-.24-.05a2.35,2.35,0,0,1-1.68-1.86c-.85-3.18,1.3-9.37,6.95-14.55,10.26-9.42,28.82-5.23,29-5.19l3.64.85-3.33-1.7c-.17-.08-17.09-8.89-19.77-26.28-2-13,1.38-23.55,10.08-31.35a38.46,38.46,0,0,1,13.77-7.87,5.89,5.89,0,0,0-3.74.42,40.38,40.38,0,0,0-10.61,6.74c-6.16,5.52-13,15.58-10.4,32.2,2.16,14,13.31,22.59,18.08,25.67-5.52-.81-19-1.8-27.35,5.84-5.91,5.43-8.13,12-7.21,15.46a3.27,3.27,0,0,0,2.09,2.43l0,.07c.43,1.55,1.54,5.67,14.77,4.24.25.09.55.22.88.37A19.43,19.43,0,0,0,163.7,299,54.18,54.18,0,0,0,179,296.27c7.3-2.06,15.09-3.88,19.75-5,1.84-.43,3.16-.74,3.87-.93,15.1-4,17.22-11.37,16.27-16.86-.33-.14-.65-.17-1-.29Z"/><path class="cls-7" d="M222.29,213.64l-1-.06c7,18.79,6.42,33.52,4.64,42.26-2.07,10.23-6.19,16-7.86,17.22l-.23.16c.33.12.67.26,1,.4h0C223.56,269.8,234.88,247.61,222.29,213.64Z"/><path class="cls-4" d="M192.51,273.73c-.11,0-11.24-.18-19.76-4.37l.4-.81C181.48,272.64,192.51,273.73,192.51,273.73Z"/><path class="cls-4" d="M153.69,296.47c-1.41-4.14-1.18-7.64.69-10.4,3.79-5.59,12.9-6.09,13.28-6.11,0,0-9,1.41-12.53,6.63-1.7,2.5-1.89,5.73-.57,9.59Z"/><path class="cls-4" d="M140.11,292.11h-.91c.08-10.63,14.24-14.49,14.85-14.64C154.05,277.47,140.19,282.18,140.11,292.11Z"/><path class="cls-4" d="M212.25,275.4s5.29-1.66,6.52-2.93l.11,1.15C216.86,275.36,212.43,275.39,212.25,275.4Z"/><path class="cls-2" d="M144,192l-46.94.55s1.14,14.79,12.3,24.74c.43,2.28-2.73,45.65-10,53.81-1.82,1.18-12.1-.74-16,7.33-2.3,4.81-3.59,9.06,1.65,10.94.08,1.37-.45,8.37,11.56,5.63,1.3,1,8.13,6.59,23-1.08,7.52-4,9.62-7.12,11.39-14.47.78-3.23,8.58-27.86,12.7-41.24C149.46,219.54,152.42,204,144,192Z"/><path class="cls-3" d="M124.39,276.69c2.74-19.59,12.61-36.61,18.74-56.3,2.62-8.41,5.12-20.1,1.18-28l-.53-.64-46.73.77s1.14,14.79,12.3,24.74c.43,2.28-2.73,45.65-10,53.81-1.82,1.18-12.1-.74-16,7.33-2.3,4.81-3.59,9.06,1.65,10.94.08,1.35-.43,8.14,11,5.75C100.7,296.47,122.57,290.35,124.39,276.69Z"/><path class="cls-4" d="M105.64,298.39a14.88,14.88,0,0,1-9.15-2.88c-4.53,1-7.82.72-9.79-.81a6.15,6.15,0,0,1-2.11-5,5.45,5.45,0,0,1-3.31-2.9c-.92-2.23,0-5,1.69-8.56,2.94-6.16,9.46-6.72,13.35-7.05a9.81,9.81,0,0,0,2.71-.43c2.94-3.36,5.69-13.59,7.75-28.82,1.66-12.19,2.26-22.81,2.14-24.42-11-10-11.86-24.81-11.87-25,0,0,1.72,14.7,12.61,24.4l.11.1,0,.15c.25,1.3-.5,12.95-2.11,24.85-1.49,11-4.09,24.95-8,29.36l-.1.08a8.22,8.22,0,0,1-3.17.59c-3.94.34-9.9.85-12.61,6.55-1.36,2.85-2.51,5.78-1.67,7.82A4.76,4.76,0,0,0,85.18,289l.29.1,0,.3c0,.08,0,.18,0,.29A5.29,5.29,0,0,0,87.26,294c1.77,1.38,4.88,1.58,9.23.59l.21-.05.26.2c5.32,4,13.08,3.63,22.44-1.19,7.61-4.08,9.46-7.11,11.16-14.17.52-2.17,4.2-14,7.77-25.4,1.75-5.61,3.57-11.42,4.94-15.87,6-19.59,8.41-35,.42-46.35,0,0,3.14,1.37,5,9,2.52,10.24,0,22.75-4.57,37.64-1.37,4.45-3.19,10.26-4.94,15.87-3.56,11.41-7.24,23.2-7.76,25.34-1.74,7.24-3.75,10.55-11.62,14.76C114.58,297,109.81,298.39,105.64,298.39Z"/><path class="cls-4" d="M108.94,218c-.34-5.08-1.5-11.66-1.52-11.73A59.8,59.8,0,0,1,109.85,218Z"/><path class="cls-4" d="M96.16,295.17c-2.1-5.92,3.15-13.06,3.37-13.36,0,0-4.45,7.6-2.51,13.05Z"/><path class="cls-4" d="M85.47,289.49l-.88-.22c1.32-5.3,6.78-10.91,7-11.15C91.6,278.12,86.74,284.43,85.47,289.49Z"/><path class="cls-5" d="M64.61,21.44s-4-16-33.18,3.06c-8.37,5.47-8.5,4.69-13.35,6.59C5.42,36.05-2.29,44.21,6.67,64.34,12.32,77,20,80.18,18.86,92.37,17.53,106.18,28,120.65,39.25,111c7.07-6.27,18-55.14,18-55.14Z"/><path class="cls-6" d="M31.43,24.5c-8.37,5.47-8.5,4.69-13.35,6.59C5.42,36.05-2.29,44.21,6.67,64.34c5.65,12.68,13.46,15.85,12.19,28-1.39,13.42,8.35,22.21,9.72,16.86.74-2.87-1.81-8.62-1.31-14.32s3.55-11.39,2.79-13.65c-.4-1.2-6.23-17.08,0-32.27a28.24,28.24,0,0,0-1.29,7.74c-.6,6.91,2.4,18.1,4.8,14.8.77-1,.16-12.49,2.85-18.26C41,44,50.51,46,59.31,46.22l5.3-24.78S60.62,5.44,31.43,24.5Z"/><path class="cls-7" d="M31.83,114.58h0a10.79,10.79,0,0,1-8-3.94c-4-4.36-6.1-11.55-5.45-18.32.71-7.58-2.1-11.63-5.66-16.76a64.93,64.93,0,0,1-6.5-11c-4.1-9.22-5-16.44-2.66-22.07,2.05-5,6.61-8.76,14.33-11.78,1.16-.46,2-.76,2.84-1,2.55-.86,4.08-1.38,10.42-5.52,9.57-6.25,17.48-9.42,23.51-9.42,8.6,0,10.34,6.56,10.36,6.63l0,.1L57.7,55.93c-.45,2-11.05,49.09-18.15,55.38A11.87,11.87,0,0,1,31.83,114.58Zm22.86-99c-5.85,0-13.59,3.12-23,9.27-6.44,4.21-8,4.74-10.63,5.62-.78.27-1.66.57-2.8,1C10.78,34.44,6.39,38,4.43,42.79,2.22,48.18,3.09,55.17,7.09,64.15A63.43,63.43,0,0,0,13.5,75c3.67,5.28,6.56,9.45,5.82,17.37-.63,6.52,1.41,13.44,5.21,17.62a10,10,0,0,0,7.3,3.64h0a11,11,0,0,0,7.13-3c6.86-6.09,17.74-54.4,17.85-54.89l7.33-34.28C63.9,20.66,62.1,15.61,54.69,15.61Z"/><path class="cls-7" d="M19.23,93.23l-.84-.35a37.33,37.33,0,0,0,2.33-12.12C20.75,81,21.59,87.57,19.23,93.23Z"/><path class="cls-7" d="M32.91,86.23l-.84-.35c1.22-2.91,0-7.38-1.48-12.57-2.06-7.33-4.44-16.07-1-24.22a13.39,13.39,0,0,1,4.57-5.43C25.82,52.9,29,64.08,31.46,73.07,33,78.41,34.25,83,32.91,86.23Z"/><path class="cls-5" d="M85.52,15.45s-50-8.37-50.35,48.92c-.06,11,.79,12.73-2.7,21.69-3.79,9.71-1.37,28.56,12.76,35.54,5.62,2.13,7.51,1.18,8.13,3.34,2.12,7.45-2.78,17,12.11,20.44,13.25,3.06,19.64-5.15,23.47-7.75,3.19-2.17,7.85-3,13.84-4.56,10.33-2.73,42.35-9,42.35-36.07.2-23.25,7.87-59.63-6.79-70.11C126,18.69,114.27,13.22,92.93,12,82,11.42,85.52,15.45,85.52,15.45Z"/><path class="cls-6" d="M138.34,26.89c-1-.66-2-1.3-3-1.93-4.71.23-5.79,1-9.78-.72-3.76-3.5-14.87-10.32-20.68-10.95a114,114,0,0,0-12-1.26c-10.9-.61-7.41,3.42-7.41,3.42s-50-8.37-50.35,48.92c-.06,11,.79,12.73-2.7,21.69-3.79,9.71-1.37,28.56,12.76,35.54,5.62,2.13,7.51,1.18,8.13,3.34,2,6.92-2.12,15.65,9.24,19.61a44.13,44.13,0,0,0,21.54-7.61c14.47-9.3,23.49-8.45,37.63-18.12C139,107,135.93,88.69,140.94,75.47c1.59-4.36,1.56-13,6.29-14.54C147.7,46.09,146.36,32.62,138.34,26.89Z"/><path class="cls-7" d="M45.29,64.64l-.88-.23c1.2-4.56,3.22-7.46,6-8.62a8.58,8.58,0,0,1,7,.51,11.71,11.71,0,0,0-6.68.34C48.25,57.68,46.42,60.37,45.29,64.64Z"/><path class="cls-7" d="M71.13,146.51h0a25.88,25.88,0,0,1-5.73-.69c-11.33-2.62-11.55-8.77-11.76-14.72a25.58,25.58,0,0,0-.69-6c-.28-1-.79-1.14-2.67-1.55A33.59,33.59,0,0,1,45.09,122c-14.1-7-17.07-25.74-13-36.14,2.8-7.19,2.77-9.63,2.69-16.16,0-1.53,0-3.27,0-5.36C35,19.42,65.79,14.57,79,14.57a52,52,0,0,1,5.68.3,1.92,1.92,0,0,1,0-1.49c.69-1.49,3.4-2.08,8.26-1.81,21.1,1.18,32.72,6.38,45.65,14.94,11.34,8.12,9.58,31.41,8,52-.51,6.65-1,12.93-1,18.52,0,25.71-28.37,32.89-40.48,35.95l-2.2.56c-1.24.33-2.42.62-3.54.9-4.3,1.08-7.7,1.92-10.16,3.6a24.82,24.82,0,0,0-2.16,1.7C83.81,142.41,78.9,146.51,71.13,146.51ZM79,15.48c-13,0-43.13,4.76-43.38,48.9,0,2.07,0,3.81,0,5.34.08,6.66.11,9.15-2.75,16.5-3.93,10.07-1.06,28.25,12.53,35a32,32,0,0,0,5,1.44c1.87.4,2.9.63,3.35,2.19a26.09,26.09,0,0,1,.72,6.24c.21,5.87.41,11.41,11.06,13.87a24.58,24.58,0,0,0,5.52.66h0c7.44,0,12.19-4,15.34-6.58.84-.7,1.57-1.3,2.24-1.76,2.59-1.76,6.06-2.63,10.45-3.72,1.12-.28,2.29-.57,3.53-.9l2.21-.57c11.91-3,39.79-10.06,39.79-35.06.05-5.63.53-11.92,1-18.59,1.54-20.32,3.29-43.34-7.63-51.15-12.79-8.47-24.28-13.61-45.18-14.78-.73,0-1.43-.06-2.06-.06-4.09,0-5.09.84-5.32,1.34s.34,1.38.35,1.39l.83,1-1.25-.21A43,43,0,0,0,79,15.48Z"/><path class="cls-7" d="M93.48,62.29l.19-.16c.12-.1.29-.26.52-.44a17.61,17.61,0,0,1,2-1.46,14.07,14.07,0,0,1,1.46-.81,11.46,11.46,0,0,1,1.74-.68,9.54,9.54,0,0,1,4.08-.4,8.84,8.84,0,0,1,2.05.54,7.26,7.26,0,0,1,.93.45l.44.25.41.29a6.41,6.41,0,0,1,.76.59,8.14,8.14,0,0,1,.67.64,6.84,6.84,0,0,1,.58.64c.17.22.35.41.5.63a13.69,13.69,0,0,1,.77,1.17,10.46,10.46,0,0,1,.51.94l.4.84-.55-.74c-.17-.25-.4-.52-.65-.84s-.56-.66-.89-1c-.16-.19-.35-.36-.54-.55l-.29-.29-.31-.27a5.86,5.86,0,0,0-.67-.54,8.12,8.12,0,0,0-.74-.52,9.1,9.1,0,0,0-1.65-.83,8.27,8.27,0,0,0-1.84-.46,7.64,7.64,0,0,0-1.91,0,10.1,10.1,0,0,0-1.84.31,13.38,13.38,0,0,0-1.69.54c-.53.2-1,.42-1.47.64-.9.43-1.63.85-2.15,1.14S93.48,62.29,93.48,62.29Z"/><path class="cls-14" d="M93,43.56A17.89,17.89,0,0,1,95.23,38c3-4.67,11.19-8.4,15.83,10.48C107.47,43.36,103.43,36.21,93,43.56Z"/><path class="cls-7" d="M112.08,50.74l-1.4-2-.58-.84c-2.27-3.3-4.85-7-9.14-7-2.27,0-4.81,1-7.75,3.07l-.93.65.22-1.11a18.4,18.4,0,0,1,2.34-5.72c1.25-1.93,3.57-4,6.33-4,3.07,0,7.36,2.54,10.33,14.61ZM101,40c4.17,0,6.78,3,9,6.11-2.18-7.37-5.26-11.38-8.76-11.38-2.4,0-4.44,1.84-5.56,3.57a17.5,17.5,0,0,0-1.92,4.26A13.71,13.71,0,0,1,101,40Z"/><path class="cls-14" d="M59.74,43.56A18.18,18.18,0,0,0,57.46,38c-3-4.67-11.19-8.4-15.83,10.48C45.21,43.36,49.26,36.21,59.74,43.56Z"/><path class="cls-7" d="M40.61,50.74l.58-2.37c3-12.07,7.25-14.61,10.33-14.61,2.76,0,5.08,2.06,6.32,4a18.56,18.56,0,0,1,2.35,5.72l.22,1.11-.93-.65c-2.94-2.06-5.48-3.07-7.75-3.07-4.29,0-6.87,3.74-9.14,7l-.58.84ZM51.52,34.68c-3.51,0-6.58,4-8.76,11.38C45,43,47.55,40,51.73,40A13.68,13.68,0,0,1,59,42.51a17,17,0,0,0-1.91-4.26C56,36.52,53.92,34.68,51.52,34.68Z"/><path class="cls-6" d="M83.83,2.91a20.33,20.33,0,0,1,4.6,6.59s-14.16-8-25,4.2a44.43,44.43,0,0,1,8.32.51,26.14,26.14,0,0,1,3.92.89s-8.09,3-12.62,7.77c-5.35,5.69-5.28,12.07-4,12.3,1.77.32,5.3-3.58,8.93-5.54a15,15,0,0,1,5-1.83c-2.22,2.17-11.27,13-7.36,15,1.82.94,7.52-7.36,7.52-7.36l30.11-22.23C97.18,11.21,89.64,2.88,83.83,2.91Z"/><path class="cls-15" d="M87.48,5.25l1.4,1.12A2.44,2.44,0,0,0,87.48,5.25Z"/><path class="cls-15" d="M74.23,27.21c-6,.85-14.74,8.8-15.43,7.79,1.61-10.54,14-19.78,22.65-19.78-4.76.08-12.08-1.54-16.64-1.54,9-6.5,18.17-5.41,24.55-3.13C87,6.81,84.68,3.13,85,3.62c4,3.17,12.31,9.07,17.7,9.34-6-2.26-13.21-10.08-18.84-10a20.33,20.33,0,0,1,4.6,6.59s-14.16-8-25,4.2a44.43,44.43,0,0,1,8.32.51,26.14,26.14,0,0,1,3.92.89s-8.09,3-12.62,7.77c-5.35,5.69-5.28,12.07-4,12.3,1.77.32,5.3-3.58,8.93-5.54a15,15,0,0,1,5-1.83c-2.22,2.17-11.27,13-7.36,15C66,43,64.61,40.22,74.23,27.21Z"/><path class="cls-7" d="M65.93,42.38a.29.29,0,0,1-.11,0,1.21,1.21,0,0,1-.7-1c-.48-3.21,6-11.14,8.17-13.22l.94-.92-1.3.14a15.43,15.43,0,0,0-5.13,1.87,33.33,33.33,0,0,0-4.4,3c-1.66,1.27-3.22,2.47-4.11,2.47h-.12c-.05,0-.2-.22-.28-.76-.33-2,.61-6.61,4.54-10.79,4.4-4.68,12.36-7.62,12.44-7.65l1-.38-1-.46a24.18,24.18,0,0,0-4-.93,41.19,41.19,0,0,0-7-.54h-.33A18.08,18.08,0,0,1,78,7.38,23.18,23.18,0,0,1,88.21,9.9l1.15.65-.51-1.22A20.86,20.86,0,0,0,85,3.48C88,4,91.35,6.39,94.64,8.69a48.73,48.73,0,0,0,7,4.33,6.27,6.27,0,0,0,2.08.53l.51-.55-.84-.27c-2.53-.81-5.42-2.83-8.22-4.79-3.85-2.7-7.83-5.48-11.33-5.48H82.65l.88.79a20,20,0,0,1,3.94,5.28A24,24,0,0,0,78,6.47,19.15,19.15,0,0,0,63.14,13.4l-.71.79,1.07,0s.53,0,1.37,0a40,40,0,0,1,6.84.53c1.17.22,2,.39,2.57.52-2.49,1.05-8,3.64-11.51,7.38-4.37,4.64-5.36,10-4.65,12.11.23.7.6.9.87.95a1.53,1.53,0,0,0,.3,0c1.2,0,2.73-1.18,4.66-2.67A33.88,33.88,0,0,1,68.23,30a18.75,18.75,0,0,1,3.37-1.44c-2.68,3-7.87,9.63-7.38,12.9a2.14,2.14,0,0,0,1.18,1.67,1.07,1.07,0,0,0,.53.13h0c2.08,0,6.12-5.56,7.36-7.32C73.1,35.71,68.26,42.56,65.93,42.38Z"/><path class="cls-7" d="M74.24,16.2l-.44-.8c3-1.63,7.91-.11,8.12,0C81.92,15.36,76.86,14.75,74.24,16.2Z"/><path class="cls-5" d="M156.63,31.56c-16.21-19.32-31.78-12.19-31.78-12.19l2.35,13.54c9.46,6.84,15.65,18.25,14,40.46-2.72,38,20.74,46.22,28.83,45.8,9.34-.48,7.23-9.12,5.5-16.4-2.2-9.27,8.33-23.92,13.07-40.75C193.89,43.41,169.16,35.44,156.63,31.56Z"/><path class="cls-6" d="M170.53,110.14c.74-4.23-4.36-11.49-1.92-22.76,2.69,3.36,5.3,2.73,6.21,0,4.56-12.31,13.14-30.81,1.52-41.57-3-2.78-13-5.59-7,4.21-15-16.38-31.18-31.62-43.82-25.78l1.63,8.67c9.46,6.84,15.65,18.25,14,40.46-1.08,15.1,2,25.49,6.56,32.52C156.23,115.35,169.48,116.13,170.53,110.14Z"/><path class="cls-7" d="M169.51,119.64c-3.88,0-11.47-1.76-18.08-8.51-5.68-5.79-12.12-17-10.63-37.79,1.4-19.51-3.12-32.76-13.83-40.49a12.09,12.09,0,0,1,5.38,3.56c7.43,8.23,10.55,20.36,9.36,37-1.47,20.41,4.83,31.43,10.37,37.08,5.86,6,13.43,8.46,18,8.23,2.56-.13,4.31-.88,5.37-2.29,2.23-3,.91-8.53-.25-13.43l0-.13c-1.37-5.76,2-13.45,5.92-22.35a142.81,142.81,0,0,0,7.15-18.63c2.2-7.82-.88-14.64-9.16-20.25-6.7-4.53-15.16-7.35-22.55-9.64l-.13,0-.09-.1C140.47,13,125,19.62,124.85,19.69l-.36-1a23.87,23.87,0,0,1,10.22-.92c5.46.58,13.74,3.38,22.19,13.4,11.37,3.51,37.61,11.7,32.18,31a143,143,0,0,1-7.19,18.75c-3.84,8.75-7.16,16.31-5.86,21.77l0,.13c1.21,5.09,2.58,10.86.09,14.19-1.21,1.61-3.25,2.5-6.05,2.65Z"/><path class="cls-7" d="M170.46,51c-.08-.06-8.3-5.92-14.24-19.29l.83-.37C162.88,44.5,170.46,51,170.46,51Z"/><path class="cls-7" d="M175.08,102.33c-4.16-5.25-6.38-14.56-6.47-15,0,0,3.15,9.3,7.19,14.38Z"/><path class="cls-7" d="M139.28,42.83s.55.74,1.45,2.09,2.13,3.29,3.47,5.72a75,75,0,0,1,4.09,8.56,46.83,46.83,0,0,1,2.92,10.52,25.51,25.51,0,0,1,.16,5.59,12.5,12.5,0,0,1-.17,1.37c0,.23-.07.46-.12.68l-.16.67-.17.66-.22.64-.22.64-.24.6c-.63,1.62-1.2,3.17-1.67,4.67-.12.38-.23.75-.34,1.11s-.2.74-.29,1.09c-.21.72-.33,1.42-.48,2.09a19.44,19.44,0,0,0-.33,3.71,10.92,10.92,0,0,0,.44,2.83c.23.77.43,1.38.54,1.8s.15.64.15.64-.06-.22-.2-.63-.39-1-.66-1.75a11.85,11.85,0,0,1-.61-2.88,18,18,0,0,1,.16-3.81c.12-.68.22-1.41.4-2.14.08-.36.16-.74.25-1.12l.32-1.13c.43-1.54,1-3.15,1.57-4.76l.23-.61c.06-.21.13-.41.2-.61l.2-.61.14-.63.15-.64c0-.21.06-.43.1-.64a11.59,11.59,0,0,0,.15-1.32,25,25,0,0,0-.18-5.39,39.57,39.57,0,0,0-1.12-5.32c-.49-1.73-1-3.42-1.65-5s-1.24-3.14-1.89-4.58-1.29-2.79-1.91-4c-1.24-2.47-2.35-4.49-3.16-5.88S139.28,42.83,139.28,42.83Z"/></svg>