<svg id="Layer_1" data-name="Layer 1" xmlns="http://www.w3.org/2000/svg" viewBox="0 0 120 60"><defs><style>.cls-1{fill:#e5e5e4;}.cls-2{fill:#232323;}.cls-3{fill:#efeded;}.cls-4{fill:#eae7e7;}.cls-5{fill:#579951;stroke:#458040;stroke-miterlimit:10;stroke-width:0.5px;}</style></defs><path class="cls-1" d="M74.53,47.15a22.74,22.74,0,0,0,23.33-1.62c1.36-11.66-3-21.36-9.4-25.83C86,18,79.7,22.66,76.32,29.07,72.38,36.54,71.21,45,74.53,47.15Z"/><path class="cls-2" d="M80.3,37.89a7.56,7.56,0,1,0,9.14-5.54A7.56,7.56,0,0,0,80.3,37.89Z"/><path class="cls-3" d="M81.06,37.12a2.27,2.27,0,1,0,2.75-1.66A2.27,2.27,0,0,0,81.06,37.12Z"/><path class="cls-4" d="M21.89,30.66c0,6.62,2.33,9,5.84,4.85,5.49-6.44,7.4-19.1,5.22-25.12C33,10.39,21.85,20.47,21.89,30.66Z"/><path class="cls-2" d="M25.48,27.8c-1.7,3.28-1.86,7.54-.41,9.07s5.51-3.65,7.14-10.3a4.75,4.75,0,0,0-1-1.93C29.72,23.11,27.17,24.52,25.48,27.8Z"/><path class="cls-3" d="M25.89,27.23A2.52,2.52,0,0,0,26,29.91c.53.57,1.34.28,1.82-.63a2.52,2.52,0,0,0-.11-2.68C27.17,26,26.36,26.32,25.89,27.23Z"/><path class="cls-5" d="M88.46,19.7C86,18,79.7,22.66,76.32,29.07c-3.94,7.47-5.11,16-1.79,18.08a22.74,22.74,0,0,0,23.33-1.62C99.22,33.87,94.85,24.17,88.46,19.7Z"/><path class="cls-5" d="M33,10.39S21.85,20.47,21.89,30.66c0,5.46,1.59,8,4.11,6.42,1.64-.43,4.25-4.11,5.75-8.88C34,21.93,34.46,14.56,33,10.39Z"/></svg>