<svg id="Layer_1" data-name="Layer 1" xmlns="http://www.w3.org/2000/svg" viewBox="0 0 470 440"><defs><style>.cls-1{opacity:0.3;}.cls-12,.cls-2,.cls-5,.cls-6{fill:#f5c6bf;}.cls-2{stroke:#a51f22;}.cls-12,.cls-15,.cls-16,.cls-18,.cls-2,.cls-22,.cls-5{stroke-miterlimit:10;}.cls-12,.cls-16,.cls-18,.cls-2,.cls-5{stroke-width:2px;}.cls-3{fill:#fff1f0;}.cls-15,.cls-4{fill:#f1a9a6;}.cls-15,.cls-16,.cls-5{stroke:#a51f23;}.cls-7{fill:#a52020;}.cls-8{fill:#7d0800;}.cls-9{fill:#cc3d3a;}.cls-10{fill:#600200;}.cls-11{fill:#280100;}.cls-12{stroke:#a52020;}.cls-13{fill:#ffaad8;}.cls-14{fill:#ef81c3;}.cls-16{fill:#4c0000;}.cls-17{fill:#280000;}.cls-18{fill:#ff8f8f;stroke:#d83030;}.cls-19{fill:#ffdcdc;}.cls-20{fill:#f96969;}.cls-21{fill:#d83030;}.cls-22{fill:#592525;stroke:#191818;}.cls-23{fill:#381212;}</style></defs><ellipse class="cls-1" cx="252.96" cy="399.14" rx="195.48" ry="31.33"/><path class="cls-2" d="M415.77,147.4c-1.34-7.81,0-20.69,12.73-26.84,11.37-5.48,20-1.76,20,1.63,0,4.92-19.67,4.48-19,16.95C428.14,140.74,415.77,147.4,415.77,147.4Z"/><path class="cls-3" d="M444.55,119.6c-3.56-1.35-8.88-2.08-15.83,1.27C416,127,415,139.52,416.3,147.34a7.05,7.05,0,0,0,2.3-.85C417.15,130.43,426.85,120.19,444.55,119.6Z"/><path class="cls-4" d="M444.3,119.51c2.7,2.2,2.16,3-2.67,4-5.7,1.24-21.47,6.07-18.69,19.87a25.62,25.62,0,0,0,5.95-4.83c-.62-12.47,18.56-11.33,18.56-16.25C447.45,120.84,447.08,120.33,444.3,119.51Z"/><path class="cls-5" d="M448.52,135.52c-19.58-4.6-29.9,5.78-33.44,13.21,0,0,18.05,29.72,25.05,35.39,4.17,1.18,19.8,1.33,26.26-10.62C473.94,159.52,467.82,140.05,448.52,135.52Zm1.3,36.45c-8.41.79-10.44-8.91-9.85-13.69,2.59-7.13,12.4-6.37,15.83-.21C458.49,162.89,457.57,171.23,449.82,172Z"/><path class="cls-3" d="M452.47,141.18c9.16,3.58,13.35,10.58,16,19.78.23-11.35-5.66-20.84-19.83-24.17-19.58-4.6-30,4.51-33.56,11.94,0,0,1,1.62,2.59,4.19C424.68,141.22,437.11,135.16,452.47,141.18Z"/><path class="cls-4" d="M443.27,153.92c2.52-1.51,6.15-2.43,9-.62a9.06,9.06,0,0,1,3.15,2.3c-2.26-8.21-13.28-9.82-18.9-7.79-8.26,2.63-11.49,7.17-13.8,13.63,2.76,4.19,8.62,11.91,11.41,15.66C435.7,168.72,435.72,159,443.27,153.92Z"/><path class="cls-4" d="M468.47,159.85c-1.46,10.15-7.49,15-15.58,12.34-.48.13-2.85.63-3.4.68-8.41.8-11-9.43-10.38-14.21,1.94-5.36,8.78-7.51,13.1-5a8.63,8.63,0,0,0-8.94.28c-7.55,5-8.66,13.65-10.19,22a39.07,39.07,0,0,0,7.13,7.39c4.17,1.18,19.08,1.15,25.53-10.81A23,23,0,0,0,468.47,159.85Z"/><path class="cls-6" d="M186.17,331.22c-4.07,13.09-22.47,46.5-29.9,52s-36.8-4.76-38.4-8.3,8.67-20.35,12.39-29.2.71-21.76-.71-32.55-2.83-34.86,5.66-41.05C143.88,273.53,186.17,331.22,186.17,331.22Z"/><path class="cls-3" d="M134.51,319.36c-2.48-17-3.48-28.79,3.87-45.53a8.31,8.31,0,0,0-3.17-1.71c-8.49,6.19-7.07,30.25-5.66,41.05s4.42,23.71.71,32.55-14,25.66-12.39,29.2c.35.78,2.06,1.89,4.59,3.09,0-8.78,7.74-20.37,11.62-30.82C137.28,340.83,137.25,336.12,134.51,319.36Z"/><path class="cls-4" d="M135.21,272.12a10.13,10.13,0,0,0-2.14,2.19c14.59,39.45,19.3,40.9,28.15,61.27,3.54,8.14-8.36,34.89-21.5,48.05,6.91,1.46,13.54,1.82,16.55-.41,7.43-5.5,25.83-38.91,29.9-52C186.17,331.22,143.88,273.53,135.21,272.12Z"/><path class="cls-7" d="M149.39,385.52c-10.8,0-30.61-6.85-32.16-10.31-1.13-2.5,2.15-9.26,7.28-19.28,2-3.91,3.89-7.6,5.1-10.48,3-7.14,1.51-16.95.07-26.44-.3-2-.59-3.88-.83-5.75-.75-5.7-4-34.48,6-41.72l.24-.17.29.05c8.85,1.44,49.68,57,51.41,59.38l.21.28-.1.35c-3.91,12.56-22.23,46.49-30.16,52.36C155.14,384.94,152.68,385.52,149.39,385.52Zm-14-112.64c-9.15,7.25-5.57,36.82-5.13,40.2.25,1.85.53,3.73.83,5.72,1.47,9.68,3,19.69-.17,27.2-1.23,2.93-3.13,6.64-5.14,10.58-3.65,7.12-8.18,16-7.25,18.05s19,9.47,30.87,9.47c3,0,5.16-.49,6.46-1.45,7-5.21,25.21-37.81,29.54-51.31C173.66,315.37,142.76,275,135.38,272.88Z"/><path class="cls-8" d="M155.8,383.53c2.18,3.54.65,13.33-5.55,17.58s-22.47,6.72-30.25,6.37-16.55-2.13-15.49-6.55c-4.07-.26-9.11-1.94-9.11-4.87s16.46-23.6,22.7-24.36S151.08,379,155.8,383.53Z"/><path class="cls-9" d="M118.1,371.7c-6.24.76-22.7,21.45-22.7,24.36a2.79,2.79,0,0,0,.71,1.79c6.18-9.54,18-22,22-23.34,3.81-.92,16,1.47,24.88,2.95C133.54,374.12,121.94,371.23,118.1,371.7Z"/><path class="cls-9" d="M104.4,401.37a3.8,3.8,0,0,0,2.23,3.33c-2.14-2.53,6-14.72,11.5-20.92C111.72,387.86,106.29,394,104.4,401.37Z"/><path class="cls-10" d="M118.13,383.78c-9.16.66-13.82,9.34-18.42,16.22a24.71,24.71,0,0,0,4.69,1.37C106.47,394.45,110.93,388.9,118.13,383.78Z"/><path class="cls-10" d="M155.8,383.53c-1.61-1.53-5.78-3.48-10.81-5.36,1.53,6.29-.24,12.81-5.35,16.39-9.84,7.87-22.11,10.26-34,9.45,2.56,2.21,8.71,3.21,14.35,3.47,7.78.35,24.06-2.13,30.25-6.37S158,387.07,155.8,383.53Z"/><path class="cls-11" d="M105.13,401.73l-1.4-.19c1.27-9.48,14.4-17.76,14.4-17.76S106.32,392.83,105.13,401.73Z"/><path class="cls-11" d="M121.57,408.22c-.57,0-1.1,0-1.61,0-3.79-.17-12.9-.94-15.5-4.41a3.42,3.42,0,0,1-.74-2.2c-3.88-.41-9-2.11-9-5.51,0-1.87,4.74-8.33,9.19-13.45,2.89-3.33,10.05-11.11,14.13-11.61,6.41-.8,33.33,7.3,38.28,12l.11.14c2.38,3.86.68,14.12-5.75,18.53C144.52,405.89,129.57,408.22,121.57,408.22Zm-2.52-35.86a7.49,7.49,0,0,0-.87,0c-6,.73-22.07,21.47-22.07,23.66s4.39,3.9,8.45,4.17l.84,0-.2.82a2.07,2.07,0,0,0,.39,1.82c1.55,2.07,7,3.51,14.44,3.85.48,0,1,0,1.54,0,8,0,22.61-2.39,28.28-6.28,6-4.07,7.22-13.39,5.39-16.54C150.63,379.74,126.45,372.36,119.05,372.36Z"/><path class="cls-12" d="M113.63,259.91a136.42,136.42,0,0,1,31.67,33.62c11.15,16.81,18.16,28.6,42,43.94s45.54,19.81,69.6,18.87c24.3,12.27,41.29,13.68,72.9,11.09s51.43-12,63.7-26.66,56.15-49.78,63.23-76.68.94-64.41-15.57-90.24S390.66,115,328.85,121.36s-89.65,6.77-89.65,6.77Z"/><path class="cls-3" d="M308.79,133.39c45.73-13.31,97.85,1.39,126,31.33-18.29-23.78-51.19-49-105.89-43.36-16,1.65-29.78,2.9-41.35,3.85C294.53,131.32,302.74,135.41,308.79,133.39Z"/><path class="cls-4" d="M441.15,173.85c-1.91-3-4-6.06-6.44-9.16,8.52,18.58,14.93,37.52,14.93,58.59a140.84,140.84,0,0,1-12,61.58,177,177,0,0,1-10.76,22.38c13.46-14,26.31-29.63,29.87-43.15C463.8,237.2,457.66,199.68,441.15,173.85Z"/><path class="cls-4" d="M403.87,230.23c-32.56,21.23-33.5,58.87-39.66,94.62-2.21,12.82-37.72,15.92-42.68,3.89-8.49-19.82-9.2-49.55-35.38-52.38,10.61,18.41,21.23,53.09-2.13,60.16-31.14,9.2-54-22.85-72.43-45.5-4.25,13.45,4.49,26.39,8.73,39.13,1.6,4.78,1.24,7.23-.26,9.61-4.16,6.41-31-4.42-45.69-11.52a152.77,152.77,0,0,0,12.92,9.23c23.83,15.33,45.54,19.81,69.6,18.87,24.3,12.27,41.29,13.68,72.9,11.09s51.43-12,63.7-26.66c3.23-3.85,8.64-9.11,15-15.27-6.17-10.43-11.46-21.09-11.92-33.57C395.14,271.41,399.62,250,403.87,230.23Z"/><path class="cls-6" d="M404,230.05S371.31,276.84,387.83,333c-1.05,14.59-17.22,39.76-22.77,45.77,1.89,3.78,44,18.64,47.54,16.87s8-10.61,11.56-21.58,8.49-31,4.25-44.59c11-8.85,36.27-55,30.53-102.36Z"/><path class="cls-3" d="M390.67,338.67a60.18,60.18,0,0,0,5.8,8.36c-12.78-34.6-9.07-82.47,7.2-116.58-7.36,10.37-30.73,51.92-15.84,102.53-1.05,14.59-17.22,39.76-22.77,45.77.29.58,1.54,1.43,3.44,2.43C378.19,369.81,388.77,352.21,390.67,338.67Z"/><path class="cls-4" d="M458.94,227.09l-9.22.2c.63,55.07-22.87,91.89-46.08,119.14,6.19-1.68,11.67-3.89,17-8.49-4.24,17.69-9.2,36.94-22.47,54,8.21,2.63,13.1,4.39,14.45,3.71,3.54-1.77,8-10.61,11.56-21.58s8.49-31,4.25-44.59C439.38,320.6,464.68,274.42,458.94,227.09Z"/><path class="cls-7" d="M418.32,335.85a67.16,67.16,0,0,0,11.86-9.05l1,1C426.13,332.9,418.32,335.85,418.32,335.85Z"/><path class="cls-7" d="M386.31,330.2l1.38-.35c1.78,7,7.28,15.28,7.33,15.36S388.15,337.44,386.31,330.2Z"/><path class="cls-7" d="M411.82,396.43c-7.73,0-45.5-13.57-47.39-17.36l-.22-.44.33-.36c5.2-5.64,21.44-30.61,22.57-45.21-8.53-29.13-3.82-55.78,1.64-73,5.92-18.7,15.24-30,15.24-30s-8.05,12-13.91,30.47c-5.39,17.06-10.05,43.45-1.57,72.27l0,.12V333c-1.05,14.54-16.88,39.24-22.56,45.75,4,3.87,43.26,17.72,46.3,16.2s7.57-9.89,11.21-21.17c2.75-8.55,8.69-30,4.24-44.16l-.14-.46.37-.3c5.43-4.38,14.5-18.31,21.32-36.45,5.82-15.49,12.16-39.47,9-65.36l1.4-.17c5.64,46.49-18.55,92.61-30.48,102.77,4.31,14.58-1.62,36-4.38,44.56-3,9.25-7.69,19.89-11.92,22A2.74,2.74,0,0,1,411.82,396.43Z"/><path class="cls-6" d="M286.35,276.33S314.1,294.15,306.67,330s-24.42,41.72-38.75,75c-14.51-1.06-38.46-17.52-38.16-19.29,2.6-9,17.28-34.85,17.28-46.35C214.66,320,211.59,291,211.59,291Z"/><path class="cls-3" d="M250.51,345c9.6-.36,14.4-1.77,18.65-2.48C247,339.36,220.43,314.09,211.59,291c2.19,13.21,10.24,33.27,35.45,48.34,0,11.5-14.68,37.33-17.28,46.35-.07.39,1,1.48,2.92,3C237.49,377.46,247.82,361.65,250.51,345Z"/><path class="cls-4" d="M286.89,276.7c18,21.82,12.63,50,1.14,70.68-10.82,19.74-27.92,33.73-34.7,53.36,5.11,2.26,10.27,3.94,14.59,4.26,14.33-33.26,31.32-39.1,38.75-75C313.49,297.12,290.71,279.4,286.89,276.7Z"/><path class="cls-7" d="M244.44,338.58l.75-1.2a46.59,46.59,0,0,0,11.4,4.77S249.56,341.8,244.44,338.58Z"/><path class="cls-7" d="M268.37,405.74l-.5,0c-13.72-1-35.76-15.64-38.4-19a1.48,1.48,0,0,1-.41-1.11l0-.08c.92-3.22,3.31-8.43,6.07-14.46,4.9-10.67,11-23.91,11.18-31.31a82.28,82.28,0,0,1-22.12-19.23c-12-15.09-12.62-29.62-12.62-29.62,0,.2,2,14.19,14,29.06a81.3,81.3,0,0,0,21.83,18.79l.35.2v.41c0,7.62-6.27,21.3-11.31,32.29-2.68,5.86-5,10.94-5.95,14.07,1.34,2.14,22.95,17.19,37,18.53,5.95-13.68,12.24-22.56,18.31-31.15,8.53-12.05,15.9-22.46,20.2-43.22a53.37,53.37,0,0,0-1.27-27.78,54,54,0,0,0-18.48-25.86A48.43,48.43,0,0,1,306,301.51a54.58,54.58,0,0,1,1.36,28.66c-4.36,21.05-12.16,32.07-20.42,43.75-6.11,8.63-12.42,17.55-18.37,31.36Z"/><path class="cls-13" d="M250.05,139.76c7.15,6.13,26.19,7.43,31.38,6.19.23-5.48-6.86-49.6-6.86-49.6C264,99.19,247.45,104,242.5,111.72S250.05,139.76,250.05,139.76Z"/><path class="cls-14" d="M243,122.55c2.53,7.53,7.05,17.21,7.05,17.21,7.15,6.13,26.19,7.43,31.38,6.19.13-3.16-2.18-19.23-4.15-32.24C267.61,122,257.13,128.62,243,122.55Z"/><path class="cls-15" d="M245.93,132.05c2.1,4.43,4.12,7.71,4.12,7.71,7.15,6.13,26.19,7.43,31.38,6.19a104.91,104.91,0,0,0-1.13-11.23C271.1,136.34,257.42,137.27,245.93,132.05Z"/><path class="cls-12" d="M229.76,81.19c7.73-7.07,18.87-8.31,34.27-16.27s22.47-5.31,29.37,0,12.92,13.8,15.39,33.79c4.6,6,9,9.37,16.46,15.4,8.38,6.73,13.62,10.79,14.16,21.41s-6.32,19.7-17.76,27.48c-8.39,5.71-14.58,8.39-25.42,18.34C286.9,189.92,284,195.5,279.78,193s-3.72-8.49-5.49-21.05-5.76-18.91-9.14-38.58c-2.48-14.39,1-32.73,1-32.73-3,1.59-11,9.38-14.54,19.29C246.33,115.17,229.76,81.19,229.76,81.19Z"/><path class="cls-3" d="M338.85,135.68c-.53-10.62-5.22-14.84-13.6-21.57-7.5-6-11.86-9.38-16.46-15.4-2.47-20-8.49-28.49-15.39-33.79s-14-8-29.37,0-26.54,9.2-34.27,16.27c0,0,.72,1.48,1.9,3.86,10.43-6.06,24.06-10.74,34.52-16,12.53-6.29,22.13-1.9,25.19.61,10,8.23,9.83,18.52,13.77,33,4.13,15.19,10.16,19.54,15.82,24.5-3.41-6.39-4.42-10.46-6.44-17.64,9.2,10.61,25.06,19,18.69,34.61-4.95,10.61-14.7,17.18-26.55,26.3a25,25,0,0,0-4.79,4.79c7.25-5.81,12-8.19,18.64-12.71C332,154.79,339.38,146.3,338.85,135.68Z"/><path class="cls-4" d="M282.14,184.64c-1.56-1.54-1.26-6.67-2.45-15.86s-5.28-17.52-7-33.71C270,109.35,270.52,91.32,284.05,76c-13.43,5.76-31.4,19.48-41.47,30,3.62,6.53,7.11,12.26,9.06,14,3.54-9.91,11.5-17.7,14.54-19.29,0,0-3.51,18.34-1,32.73,3.38,19.67,7.37,26,9.14,38.58s1.24,18.58,5.49,21.05,6.46-3.87,15.79-12.45a110.77,110.77,0,0,1,8.6-7.27C297.32,176.51,284.44,187,282.14,184.64Z"/><path class="cls-7" d="M266.17,105.25l-1.41-.15C266.87,85.52,284.05,76,284.05,76,283.89,76.05,268.21,86.36,266.17,105.25Z"/><path class="cls-7" d="M307.68,95.8l1.4-.17c2.82,22.76,11.79,31.5,11.88,31.59S310.57,119.13,307.68,95.8Z"/><path class="cls-15" d="M48.26,107.74c6.21,9.2,18.6,15.27,28.68,8.67S88.06,80.55,88.06,80.55,83.87,46.81,74.59,45.16,48.26,107.74,48.26,107.74Z"/><path class="cls-13" d="M52.76,100.84c2.83,5.48,8,9.91,16.64,11C74,107.74,82.43,86.39,83,82.16s-1.4-25.56-8.38-29.1C70.28,57.84,52.76,100.84,52.76,100.84Z"/><path class="cls-14" d="M52.76,100.84c2.83,5.48,8,9.91,16.64,11,2.82-2.5,7.08-11.51,10.08-19.07-9.12,7-16.81.67-20.28-7.34C55.56,94,52.76,100.84,52.76,100.84Z"/><path class="cls-12" d="M75.82,56.48c2.48,2,5.78,20.29,4.54,32.68,6-1.42,36.81-27.84,34.68-32.68s-5.84-13.33-9.91-24.3S96.5,13.59,82,10.77C70.1,8.47,51.17,12.9,36.3,36.25,27.37,43.51,21.91,44,14.24,47.16S-.38,54.36.56,67.57c1,13.6,9.2,22.83,18.4,32.56s11.15,14.77,12.83,19.29.89,7.34,4.78,7.6,10.88-4.42,15.3-14.86,5.05-16.54,10.62-25.83C69.74,74.25,74.29,69,75.82,56.48Z"/><path class="cls-3" d="M25.69,47.75c-1.73,5-3.43,7.91-6.26,10.74C29.11,56,33,48.78,41,36.9c12.15-18,27.08-24.33,39.49-22.11C99.88,18.26,97,29.3,108.68,43.94c-1.41-3.47-2.32-7.4-3.91-11.71C100.7,21.26,96.5,13.59,82,10.77,70.1,8.47,51.17,12.9,36.3,36.25,27.37,43.51,21.91,44,14.24,47.16S-.38,54.36.56,67.57c.62,8.74,5.08,15.39,10,21.81C3.2,76.23-5.81,53.06,25.69,47.75Z"/><path class="cls-4" d="M73.11,24.4c0,18.31-6,37.26-19.11,56.62-8,15.33-5,24.06-11.33,34.68-2.83,5-5.22,3.49-7.78-1.33-7.52-13.43-15.67-16.74-26.12-27.5A110.89,110.89,0,0,0,19,100.13c9.2,9.73,11.15,14.77,12.83,19.29s.89,7.34,4.78,7.6,10.88-4.42,15.3-14.86,5.05-16.54,10.62-25.83C69.74,74.25,74.29,69,75.82,56.48c2.48,2,5.78,20.29,4.54,32.68,2.78-.66,10.83-6.64,18.49-13.37a24.8,24.8,0,0,1-4.51-8.93C90.09,50.58,81.6,30.26,73.11,24.4Z"/><path class="cls-7" d="M25.21,53.4c.34-.6,8.34-14.72,10.6-17.88l.49.76C32.48,42.71,25.21,53.4,25.21,53.4Z"/><path class="cls-7" d="M75.83,62.16l-.94-.25a137.13,137.13,0,0,0,1.8-31.57S78.84,46.4,75.83,62.16Z"/><path class="cls-2" d="M153.19,290.13s-13.44-13.15-36.09-22C98.78,261,64.37,248,45.61,221.78s-17.45-56.35-7.78-73.61c11.56-20.65,21.7-19.23,38.22-56.62,13.87-31.42,29.48-36,43.88-39.29,24.54-5.55,67.24-5.42,104,19.59s30,58.51,33.74,75.73,18,50.9-1.42,83c-17.69,29.26-43.22,34-59.45,37.51-12.8,2.78-42.07,1.34-42.07,1.34"/><path class="cls-3" d="M58.19,131.37c10.14-9.72,16.88-23.54,22.44-35.91,6.26-13.91,11.68-28.63,39.9-36.28,36.86-10,80,.62,109,17.59l.48.09c-1.9-1.55-3.94-3.08-6.14-4.57-36.8-25-79.5-25.13-104-19.58C105.42,56,89.81,60.57,75.94,92c-16.52,37.39-26.66,36-38.22,56.62C29.12,164,27.15,189.55,40,213.45,32.32,185.15,33.16,155.33,58.19,131.37Z"/><path class="cls-4" d="M33.16,195.92a78.81,78.81,0,0,0,12.34,26.3c12,16.75,30.4,28.11,46.9,36-1.05-6.21-2.56-10.07-3.55-16.29C65.9,235.36,39.84,221.33,33.16,195.92Z"/><path class="cls-4" d="M256.58,148c-3.67-16.71,2.67-48.75-30.59-73.49,22.92,24.4,19.69,50.43,18.92,74-.84,25.36,8.36,33.8,2.7,62.91-7.29,24.27-20.94,45.74-93.18,56.88.83.05,5.08.71,6.21.76,7.88.39,22.84.38,36-2,16.34-3,40.94-7.77,58.64-37C274.72,197.83,260.35,165.24,256.58,148Z"/><path class="cls-6" d="M88.92,238.67s-5.37,18.85,7.9,26.55,38.09-4.8,38.09-4.8Z"/><path class="cls-4" d="M88.6,240.37c-2.27,6.49-.88,19.57,8.22,24.85,12.52,7.26,35.31-3.45,37.85-4.68C106.37,266.57,88.8,262.56,88.6,240.37Z"/><path class="cls-7" d="M108.23,268.54a23.4,23.4,0,0,1-11.77-2.71,18.51,18.51,0,0,1-8.41-10.77c-2.56-8.05.87-16.39.87-16.39s-2,8.57.58,16.3a17.11,17.11,0,0,0,7.67,9.63,21.81,21.81,0,0,0,11,2.5c12.43,0,26.59-6.59,26.78-6.68C134.91,260.42,120.82,268.54,108.23,268.54Z"/><path class="cls-16" d="M102.3,218.24c.36,3.89-.35,10.35-3.8,17.78s-4.87,14.24,2.39,18.76,17.4.59,26.24-6.73,17.82-19,29.73-23.71C148.72,221.75,102.3,218.24,102.3,218.24Z"/><path class="cls-17" d="M113.13,219.11c-1.08,6.18-.43,12.92,5.27,16.91,5.88,3.53,12.19,3.8,18.45,3,6-5.76,12.38-11.64,20-14.66C151.24,222.55,127.36,220.32,113.13,219.11Z"/><path class="cls-18" d="M125.6,231.18c-17.36-3.39-25.86,6.55-29.92,15.12.07,3.28,1.51,6.18,5.21,8.48,7.25,4.51,17.4.59,26.24-6.73,4.3-3.55,8.62-8.13,13.3-12.44C137.38,229.74,128.78,230.41,125.6,231.18Z"/><path class="cls-19" d="M120.56,233c-3.68,3.24-7.36,5.4-10.3,12.38,7.36-10.79,15.28-13.15,25.94-12.45a15.92,15.92,0,0,0-10.6-1.73c-17.36-3.39-25,6.89-29,15.46a4.86,4.86,0,0,0,.29,1.47C102.78,237.32,111.38,232.25,120.56,233Z"/><path class="cls-20" d="M136.17,232.91c-.41,2.67-6.32,9.36-13.76,14.2-9.08,6.08-17.75,7-25.62,1a12,12,0,0,0,4.43,5.71c7.26,4.51,17.07,1.55,25.91-5.77,4.3-3.55,7.34-8.27,12-12.58A6,6,0,0,0,136.17,232.91Z"/><path class="cls-21" d="M110.21,245.33s4.42-13.75,16.35-15.12l.1.76C116.29,232.56,110.26,245.2,110.21,245.33Z"/><path class="cls-22" d="M170.66,95.17c1.89-8.61,8.73-14.27,17.46-11,10.8,4.09,15.22,21.24,13.8,25.25C195.61,101.36,183.4,87.86,170.66,95.17Z"/><path class="cls-23" d="M174.21,87.63a17.66,17.66,0,0,0-3.55,7.54c12.74-7.31,25,6.19,31.26,14.28a7.17,7.17,0,0,0,.24-2.47C198.69,94.64,187.54,82.54,174.21,87.63Z"/><path class="cls-22" d="M92.05,89.16c3.23-10.86,12.32-22.06,22.7-19.94s6.37,14,6.25,14.86C116.4,75.24,104.63,77.24,92.05,89.16Z"/><path class="cls-23" d="M96,80.39a37.47,37.47,0,0,0-3.92,8.77c12.58-11.92,24.35-13.92,29-5.08a23.93,23.93,0,0,0,.86-5.87C115.85,66.41,102.1,73.61,96,80.39Z"/><path class="cls-8" d="M367.56,375.7c-4.15,1.29-16.89,13.2-20.78,25.35-.83,2.95,6.6,5.9,12.27,5.66-.12,4.13,9.32,6.37,24.3,5.78s22.64-4.72,25.83-6.6,5.18-8.36,4.59-11.08-9.07-9-17.45-12.63S374.53,374.89,367.56,375.7Z"/><path class="cls-9" d="M374.58,384.37c-9.3,10.68-15.84,21.16-12.08,26a3.89,3.89,0,0,1-3.5-3.85C358.9,403.69,362,394.18,374.58,384.37Z"/><path class="cls-9" d="M369,379c4.77-1.06,19,1.47,32.29,5.93-1.4-.75-3.5-2.12-4.93-2.74-8.37-3.66-21.79-7.29-28.76-6.48-4.15,1.29-16.89,13.2-20.78,25.35a2.41,2.41,0,0,0,1,2.39C353.56,391,364.21,380.82,369,379Z"/><path class="cls-10" d="M413.77,394.81c-.48-2.24-6.29-6.85-13-10.46a14,14,0,0,1-.68,9.5c-7.23,13.8-24.21,16.62-39.06,15.82,3.5,2.19,11.45,3.25,22.31,2.82,15-.59,22.64-4.72,25.83-6.6S414.36,397.53,413.77,394.81Z"/><path class="cls-10" d="M374.5,384.44c-9.91,3.3-17.84,11.74-21.75,21.45a20.76,20.76,0,0,0,5.93.83C360.73,397.45,365.33,391.71,374.5,384.44Z"/><path class="cls-11" d="M358.52,407.77c-.9-11.41,16.06-23.4,16.06-23.4S359.09,397,359.93,407.66Z"/><path class="cls-11" d="M378.77,413.29h0c-10,0-16.83-1.41-19.33-4a3.7,3.7,0,0,1-1-1.88h0c-4.73,0-10-1.87-11.74-4.17a2.63,2.63,0,0,1-.56-2.4c4-12.36,16.95-24.5,21.25-25.84l.13,0a19.48,19.48,0,0,1,2.25-.12c7.57,0,19.49,3.42,26.88,6.65,7.67,3.35,17.15,9.82,17.86,13.13.64,3-1.4,9.74-4.93,11.83-2.54,1.51-10.25,6.08-26.17,6.71C381.79,413.26,380.24,413.29,378.77,413.29Zm-19-7.32,0,.76a2.19,2.19,0,0,0,.7,1.59c2.2,2.26,8.88,3.56,18.32,3.56h0c1.46,0,3,0,4.55-.1,15.55-.61,23-5,25.5-6.5,2.85-1.69,4.79-7.85,4.26-10.32-.49-2.29-8.61-8.45-17-12.14-7.25-3.16-18.93-6.53-26.31-6.53a17.83,17.83,0,0,0-2,.11c-4,1.33-16.52,13.21-20.26,24.86a1.35,1.35,0,0,0,.34,1.15c1.53,2,6.91,3.77,11.23,3.59Z"/><path class="cls-8" d="M230.6,383.24c6.89,1.32,27.55,9.26,38.81,18.43,1.87,2.62-2.9,10.76-5.56,12.89-4.86,3.89-13.36,5.22-23.89,6.1s-21.32.62-20.61-4.33c-5.4-1.77-10.44-2.57-11.06-5.67S223.62,382.36,230.6,383.24Z"/><path class="cls-9" d="M234.12,396c-2.19,2.92-16.69,20.23-11.44,23.94a3.11,3.11,0,0,1-3.33-3.59C220.09,411.65,225.53,403.24,234.12,396Z"/><path class="cls-9" d="M229.76,386.19c3.65-.65,19.4,5.42,29,8.46-10.7-5.94-23.1-10.44-28.13-11.41-7-.88-22.93,24.33-22.31,27.42A3,3,0,0,0,209,412C213.45,403.53,224.19,387.17,229.76,386.19Z"/><path class="cls-10" d="M215.26,415.08c1.2.36,2.49.73,3.8,1.15,1.47-6.42,7.48-13.82,15.06-20.25A28.39,28.39,0,0,0,215.26,415.08Z"/><path class="cls-10" d="M269.41,401.67a75.18,75.18,0,0,0-11.37-7.4c-.86,16.64-19.43,25.6-36.26,25.47,3.69,1.59,11,1.52,18.18.92,10.53-.88,19-2.21,23.89-6.1C266.51,412.43,271.28,404.29,269.41,401.67Z"/><path class="cls-11" d="M218.64,417.15c0-9.41,15.48-21.17,15.48-21.17s-14.07,12.4-14.07,21.17Z"/><path class="cls-11" d="M231.57,421.76c-6.54,0-10.51-.91-12.13-2.78a3.27,3.27,0,0,1-.83-2.15l-2.53-.77c-4.24-1.26-7.9-2.34-8.48-5.26-.49-2.43,6-13,11.4-19.61,3.24-4,7.82-8.68,11.23-8.68a3.44,3.44,0,0,1,.46,0c7.57,1.45,28.14,9.6,39.16,18.58l.13.14c2.22,3.1-2.91,11.62-5.69,13.85-4.89,3.91-13.24,5.33-24.27,6.25C236.88,421.63,234,421.76,231.57,421.76Zm-1.34-37.83c-2.23,0-5.83,2.89-10.14,8.15-6.51,7.94-11.37,17.12-11.1,18.44.41,2.08,3.69,3.06,7.49,4.18,1,.3,2,.61,3.09.95l.56.19-.08.58a2,2,0,0,0,.46,1.64c.91,1,3.56,2.29,11.06,2.29,2.43,0,5.23-.13,8.33-.4,10.78-.9,18.9-2.26,23.51-5.95,2.68-2.14,6.77-9.72,5.47-11.85-11.56-9.37-32.15-17-38.41-18.21Z"/></svg>