<svg id="Layer_1" data-name="Layer 1" xmlns="http://www.w3.org/2000/svg" viewBox="0 0 475 420"><defs><style>.cls-1{opacity:0.19;}.cls-2{fill:#ffe7d3;}.cls-3{fill:#d3b498;}.cls-4{fill:#6b5e55;}.cls-5{fill:#313131;}.cls-6{fill:#1d1d1d;}.cls-7{fill:#5b5b5b;}.cls-8{fill:#f2d9bd;}.cls-9{fill:#fcefe3;}.cls-10{fill:#6a5a4c;}.cls-11{fill:#d6bbaa;}.cls-12{fill:#fffaf6;}.cls-13{fill:#ffa88f;}.cls-14{fill:#dd846f;}.cls-15{fill:#bfad9e;}.cls-16{fill:#97816f;}.cls-17{fill:#726153;}</style></defs><ellipse class="cls-1" cx="305.37" cy="386.04" rx="169.64" ry="30.27"/><path class="cls-2" d="M440.93,289.13c-6.68,8.55,1.55,35.22,1.45,43.77-.18,14.58-2,31.88-17.49,42,4.16,1.81,18.77,11.63,21.66,13.08,3.3-10.85,13-8.68,16.08-16.09s-1.69-22.49-1.93-36.71,6.63-38.89-3.68-49.07C453.23,287.26,443.45,285.91,440.93,289.13Z"/><path class="cls-3" d="M460.7,335.19c-.24-14.23,6.63-38.89-3.68-49.07a21.85,21.85,0,0,1-4.58.54c6.29,18.51,1,44.07,1.54,52.28.6,8.69,6.36,23.26,1.42,31-2.32,3.62-12,8.77-15,14.79,2.42,1.52,5.24,2.85,6.11,3.29,3.3-10.85,13-8.68,16.08-16.09S460.94,349.41,460.7,335.19Z"/><path class="cls-4" d="M446.77,388.51l-.38-.2c-1.19-.59-4.28-2.55-7.87-4.82-5-3.2-11.33-7.18-13.77-8.25l-.61-.26.56-.37c14.88-9.73,17.12-25.8,17.31-41.72,0-2.58-.71-6.87-1.57-11.84-2-11.62-4.53-26.08.21-32.14,1.71-2.2,6.4-2.39,10.54-2.56a27.05,27.05,0,0,0,5.73-.58l.21-.06.15.15c7.56,7.48,6.05,22.42,4.71,35.61a126.63,126.63,0,0,0-.93,13.71,141,141,0,0,0,1.63,16.64c1.17,8.39,2.18,15.63.28,20.22-1.42,3.41-4.15,4.84-7,6.36-3.56,1.87-7.24,3.81-9,9.7Zm-21.14-13.65c2.77,1.35,8.33,4.88,13.28,8,3.23,2,6.06,3.84,7.43,4.59,1.93-5.86,5.81-7.9,9.25-9.71,2.77-1.46,5.39-2.83,6.71-6,1.82-4.4.83-11.56-.32-19.84a139.79,139.79,0,0,1-1.64-16.73,125.48,125.48,0,0,1,.93-13.8c1.31-12.93,2.8-27.58-4.35-34.87a29.76,29.76,0,0,1-5.7.55c-4,.17-8.5.35-10,2.28-4.53,5.81-1.95,20.7-.06,31.58.87,5,1.62,9.32,1.59,12C442.55,348.06,440.36,364.87,425.63,374.86Z"/><path class="cls-5" d="M426.91,373.25c-6.1,1.25-19.77,14.07-18.55,17.91.83,2.62,6.17,4.19,9.6,3.22-1,5.07,22.7,4.64,28.34,1C457.65,388.11,437.58,371.08,426.91,373.25Z"/><path class="cls-6" d="M444.28,379.73c1.15,4.46,0,10.18-3.84,12-7.33,3.51-20.62,5.77-22.36,3.31,1,5.56,23.25,3.55,28.22.35C452,391.71,449.33,384.65,444.28,379.73Z"/><path class="cls-6" d="M416,391.34c-1.29.91-4.52,1.31-7.63-.18,1.24,2.66,6.25,4,7.87,3.77a8.11,8.11,0,0,0,1.73-.22c3.24-4.51,4.73-8.38,8.85-12.86C420.49,384.47,419.33,389,416,391.34Z"/><path class="cls-7" d="M444.41,380.24c-4.61-4.66-13.24-7.85-17.5-7-4,.81-17.88,11.37-18.63,17.07,4.92-6,15.18-13,18.53-13.53C432,376,437.45,377.34,444.41,380.24Z"/><path d="M430.33,398.51h0c-3.05,0-10.35-.25-12.29-2.6a1.9,1.9,0,0,1-.46-1.06c-3.35.7-8.66-.73-9.57-3.58-.27-.85.05-2,.94-3.57,3.08-5.24,12.85-13.77,17.89-14.8a10.43,10.43,0,0,1,2.06-.2c7.84,0,18.71,7.74,20.78,14.79,1,3.4-.1,6.23-3.18,8.21S436,398.51,430.33,398.51Zm-11.9-4.63-.11.57a1.15,1.15,0,0,0,.28,1c1.19,1.44,5.69,2.34,11.73,2.34h0c6.82,0,13.3-1.11,15.78-2.7,2.82-1.81,3.79-4.3,2.88-7.39-2-6.81-12.51-14.27-20.09-14.27a9.61,9.61,0,0,0-1.91.18c-4.89,1-14.4,9.34-17.41,14.46-1,1.66-1,2.54-.88,3,.62,1.95,4.12,3.26,7,3.26a7.78,7.78,0,0,0,2.18-.28Z"/><path class="cls-2" d="M363.29,276.83C360.63,294.5,352,329.94,329.53,348c1.45,2.89,13.32,10.91,15.13,12.84,4.16-3,18.39-5.49,20.68-9.59s.72-27.43,9.22-37.74,23.87-24.77,15.55-36.65C384,276.77,364.28,270.2,363.29,276.83Z"/><path class="cls-3" d="M390.11,276.83a52.68,52.68,0,0,1-7.74-1.16c6.11,18.17-11.25,28.11-14.5,35.64-5.25,12.14-4.14,31.45-9.5,37.5-4.22,4.78-12.05,4.9-17.51,7.33,1.8,1.37,3.26,4.09,3.8,4.67,4.16-3,18.39-5.49,20.68-9.59s.72-27.43,9.22-37.74S398.43,288.71,390.11,276.83Z"/><path class="cls-4" d="M344.61,361.29l-.21-.24c-.63-.66-2.57-2.14-4.82-3.85-4.19-3.18-9.41-7.14-10.37-9.07l-.13-.26.22-.19c24.25-19.49,31.87-59.19,33.63-70.9.33-2.2,2.43-3.27,6.43-3.27,3.76,0,8.61.94,12.88,1.76a54.36,54.36,0,0,0,7.88,1.2h.18l.11.16c7.38,10.53-3.32,22.88-11.91,32.8-1.31,1.5-2.54,2.93-3.66,4.29-5.59,6.77-6.76,19.14-7.62,28.17-.43,4.51-.76,8.07-1.57,9.51-1.42,2.54-6.89,4.38-12.18,6.16-3.57,1.2-6.93,2.33-8.6,3.54ZM330,348.05c1.21,1.9,6.28,5.74,10,8.58,2.15,1.62,3.89,2.94,4.69,3.71,1.82-1.2,5.09-2.3,8.54-3.47,4.92-1.65,10.5-3.53,11.78-5.83.73-1.3,1.06-4.79,1.48-9.22.87-9.12,2.05-21.62,7.78-28.57,1.13-1.36,2.36-2.79,3.67-4.29,8.39-9.69,18.82-21.72,12-31.77A58.43,58.43,0,0,1,382.1,276c-4.24-.82-9.05-1.75-12.74-1.75s-5.45.87-5.72,2.66C361.88,288.62,354.26,328.33,330,348.05Z"/><path class="cls-8" d="M359.46,265.38c-1.76,4.48,2.17,19.8,9.76,15.37-.39,4.7,12.08,9.27,12.44,0,10.8,2.47,14.18-9.78,6.1-14,3.35-3.26,6.24-16.46-3.25-15.19S362.33,258.06,359.46,265.38Z"/><path class="cls-9" d="M359.28,266c-1.15,4.7,1,10.58,3.46,13.77,3.23,3.14,6.31,1.21,6.9.33C361.75,278.83,361.9,271.1,359.28,266Z"/><path class="cls-3" d="M387.76,266.74c3.35-3.26,6.24-16.46-3.25-15.19-2.54.33-7,3.74-9.78,4.61-.26,3.8,3.08,7.54,8.33,6.69,0,2.89-.18,4.77,1.45,8,7.72,3.06.91,10.17-4.34,5.78-.23,6.4-9.45,8.57-10.75,3.63-.25,6.18,11.94,8.22,12.24.49C392.46,283.18,395.84,270.93,387.76,266.74Z"/><path class="cls-10" d="M376.56,286.48a9.29,9.29,0,0,1-6.48-2.78,4.22,4.22,0,0,1-1.2-2.35,5.4,5.4,0,0,1-2.31.56h0c-1.78,0-3.44-1.07-4.82-3.08-2.72-4-3.72-10.8-2.63-13.58,2.87-7.32,15.2-12.71,25.34-14.06,3.11-.42,5.3.66,6.28,3.08,1.54,3.79-.29,9.91-2.4,12.37a8.07,8.07,0,0,1,4,8.91c-.87,3.55-4,5.85-8,5.85a12.82,12.82,0,0,1-2.41-.25C381.61,286,378.09,286.48,376.56,286.48Zm-6.92-6.39-.06.69a3.36,3.36,0,0,0,1,2.43,8.65,8.65,0,0,0,5.95,2.54c1.69,0,4.57-.65,4.74-5.06v-.43l.43.09a12,12,0,0,0,2.66.32c3.63,0,6.48-2.08,7.27-5.29a7.38,7.38,0,0,0-4.08-8.32l-.44-.23.36-.35c2.05-2,4.05-8.27,2.56-11.94-.86-2.11-2.73-3-5.52-2.64-10.07,1.35-22.09,6.8-24.75,13.61-1,2.57,0,9.16,2.55,12.91.86,1.26,2.29,2.76,4.22,2.77h0a5,5,0,0,0,2.47-.75Z"/><path class="cls-5" d="M333.87,346.16c-7.78.35-24.41,18.48-23,22,1,2.44,6.75,3.89,12.31,1.85-4.16,7.62,27.94,5.57,29-1.7C353.29,360.77,341.06,345.83,333.87,346.16Z"/><path class="cls-6" d="M321.3,366.76c-2.81,1.49-7.32,3.12-10.62,1.39,1.34,2.63,7.36,3.58,12,2.07,4.86-4.64,6.52-10.51,11.16-16C325.1,358.58,324.51,365.07,321.3,366.76Z"/><path class="cls-7" d="M333.55,350c3.15-.68,7.92,1.22,12.57,3.95-3.89-5.22-9.51-8-12.25-7.83-7.34.33-22.56,16.49-23.05,21.29C316.6,359,328.15,351.19,333.55,350Z"/><path class="cls-6" d="M343.28,368.8c-2.66,1.4-17,6.06-20.43,2.76.74,5.77,28.37,3.51,29.35-3.22.5-3.48-3-9.95-6.31-14.35C347,361.19,348.43,366.09,343.28,368.8Z"/><path d="M333,375.22h0c-2.57,0-8.69-.27-10.17-2.76a2.25,2.25,0,0,1-.22-1.82,16.26,16.26,0,0,1-4.78.73c-3.53,0-6.51-1.25-7.23-3-.37-.92.19-2.53,1.64-4.79,4.37-6.79,15.65-17.47,21.66-17.74,3.26-.17,7.77,2.69,12,7.54,4.65,5.37,7.29,11.28,6.74,15.05C351.88,373.05,340.46,375.22,333,375.22Zm-9-5.85-.46.85a1.79,1.79,0,0,0-.12,1.88c.9,1.5,4.46,2.4,9.55,2.4h0c8.51,0,18.36-2.55,18.89-6.21s-2.13-9.34-6.57-14.47c-4-4.62-8.37-7.42-11.38-7.3-5.81.26-16.8,10.74-21.09,17.42-1.8,2.78-1.7,3.81-1.58,4.12.61,1.5,3.36,2.59,6.56,2.59a15.55,15.55,0,0,0,5.3-.95Z"/><path class="cls-2" d="M196.3,307.16c-5.87,9.41-1.47,36-3.4,43.85-1.08,4.43-5.64,17.09-8.41,19.74,1.21,2.9,7.12,10.43,9.53,12.66,1.32-1.39,12.36-6.08,15.25-11.51,2.34-4.4.28-15.14.36-29.86.08-15.44,5-32.87,8.77-41.37C210.26,301.19,199.15,302.59,196.3,307.16Z"/><path class="cls-3" d="M218.4,300.67c-2.38.15-5,.38-7.62.74-11.13,20.89-4.93,63.48-7.84,68.5-2.77,4.77-7.77,6.34-12.61,9.37.36.38,3.41,3.88,3.69,4.13,1.32-1.39,12.36-6.08,15.25-11.51,2.34-4.4.28-15.14.36-29.86C209.71,326.6,214.6,309.17,218.4,300.67Z"/><path class="cls-4" d="M194,383.92l-.26-.24c-2.42-2.24-8.37-9.81-9.61-12.79l-.1-.23.18-.17c2.65-2.54,7.2-15,8.31-19.57.71-2.89.55-8.33.37-14.62-.3-10.4-.67-23.33,3.08-29.34,2.28-3.66,9.6-5.84,22.38-6.66l.59,0-.24.54C215.26,308.58,210.08,326,210,342c0,5.38.23,10.19.45,14.43.39,7.38.68,12.72-.85,15.6-2.1,3.94-8.19,7.39-12.22,9.67a22.61,22.61,0,0,0-3.09,1.92Zm-9.11-13.09c1.34,2.9,6.7,9.75,9.11,12.09a30.11,30.11,0,0,1,3-1.81c3.71-2.1,9.93-5.62,11.93-9.38,1.43-2.7,1.16-8,.77-15.22-.23-4.25-.48-9.07-.45-14.47.08-15.82,5.07-32.9,8.56-41-12,.82-19.13,2.93-21.22,6.28-3.63,5.81-3.26,18.63-3,28.93.19,6.35.34,11.83-.39,14.82C192.19,355.44,187.78,367.76,184.92,370.83Z"/><path class="cls-5" d="M185.69,369.19c-6.51.64-21.27,14.37-20.19,17.09s9.23,3.3,12.39,2.44c-6.42,8.27,18.77,5.27,21.61,0C202,384,188.52,368.91,185.69,369.19Z"/><path class="cls-6" d="M192.18,388.78c-2.58,1.8-11.73,4.5-15.33,2.41.26,5.06,20.15,2.18,22.65-2.47,1.11-2.06-2.07-8.28-4.85-12.15C196.49,383.83,194.41,387.22,192.18,388.78Z"/><path class="cls-7" d="M185,372.5c2.56-.24,8.12,4.09,10.22,5.43-3.34-4.13-8.17-8.87-9.53-8.74-5.89.58-19.07,12.09-20.23,16.74C169.8,380.78,180.12,373,185,372.5Z"/><path class="cls-6" d="M165.5,386.28c2.05,3.5,11.64,2.77,12.39,2.66,3.17-4.61,5.52-6.69,8.32-9.66-4.25,0-8.35,5.58-10.52,6.64S169.11,388.11,165.5,386.28Z"/><path d="M183.4,394.22h0c-2.57,0-5.82-.38-6.7-2.18a2.87,2.87,0,0,1,.38-2.79,17.1,17.1,0,0,1-2.73.19c-3,0-8.22-.63-9.18-3-.22-.55,0-1.34.66-2.43,3-4.91,14.34-14.61,19.82-15.15h.12c2.18,0,8.77,6.73,12.16,12.41,1.44,2.41,2.94,5.7,1.89,7.66C198.18,391.94,189.79,394.22,183.4,394.22Zm-4.56-6.14-.66.86c-.89,1.15-1.17,2.08-.83,2.78.55,1.13,2.76,1.78,6.05,1.78,5.94,0,14.31-2.21,15.78-5,.7-1.29,0-3.76-1.87-6.94-3.41-5.71-9.79-12.05-11.54-12.05-5.18.5-16.42,10-19.33,14.81-.71,1.18-.66,1.64-.6,1.78.68,1.69,4.79,2.58,8.51,2.58a14,14,0,0,0,3.45-.35Z"/><path class="cls-8" d="M188.59,247.42s-11.57,8.92-1.69,17.72c-2.89,2.41-6.63,7.59.36,12.78-2,2.17-4,8.74,1.33,10.25-1.14,2.29-5.91,11.81,5.55,11.09-5.4,5.36-3.92,17.9,7.77,9-.06,4.06,8.62,9.16,11.16-2.14,4.09,3.71,12.29-7.23,11.48-12.75-1.18-4.88-8.23-46-8.23-46C212.52,249.1,188.59,247.42,188.59,247.42Z"/><path class="cls-9" d="M195.28,287.45c-10.09-2.34-7.11-7.78-1-10.13-7.3-2.35-6.42-6-2.34-11.81-7.67-5.67-6.2-12.24-4.29-16.46-4.36,2.59-7.26,10.28-.73,16.09-2.89,2.41-6.63,7.59.36,12.78-2,2.17-4,8.74,1.33,10.25-1.93,4.37-5.16,11.58,6.29,10.86C187.2,298.48,191.12,290,195.28,287.45Z"/><path class="cls-3" d="M224.55,293.41c-.91-3.78-5.35-29.3-7.3-40.61-4.64.4-7.44-1.37-10,2.52-2.9,5.06-2.81,12.86,2.25,14.31-6.35,2.87-3.52,13.26,2,14.6-2.9,3.61-4.36,11.42,3.65,14.81-.15,1.23-1.91,2.59-4.3,3.12-1.32,8.41-5.57,8.94-7.06,1.4-5.88,5.2-10.94,5.89-12.18-1-2.13,9.63,3.71,10.74,10.34,5.71-.06,4.06,8.62,9.16,11.16-2.14C217.16,309.87,225.36,298.93,224.55,293.41Z"/><path class="cls-10" d="M207.21,313.4a6,6,0,0,1-4.16-1.84,5.16,5.16,0,0,1-1.44-2.59c-2.54,1.84-4.75,2.77-6.57,2.77a3.88,3.88,0,0,1-3.78-2.55c-1.13-2.73-.22-6.83,2-9.53-3.21.06-5.32-.75-6.34-2.4-1.7-2.75.22-7,1.13-8.88a4.62,4.62,0,0,1-3-3.14c-.71-2.53.47-5.69,1.7-7.26-2.47-1.93-3.76-4-3.82-6.24-.09-3,2.17-5.48,3.44-6.61-2.63-2.45-3.91-5.13-3.81-8,.2-5.6,5.59-9.82,5.82-10l.11-.08h.14c.1,0,10.71.75,18.82.75,5.88,0,8-.4,8.73-.72l.43-.19.08.46c.07.41,7.06,41.15,8.22,46,.46,3.12-1.76,7.59-4.2,10.41-2.68,3.11-5.5,4.26-7.41,3.05C211.84,312.53,208.88,313.4,207.21,313.4Zm-4.92-5.84v.75a4,4,0,0,0,1.29,2.74,5.26,5.26,0,0,0,3.64,1.63c2.59,0,4.55-2.34,5.5-6.6l.14-.6.46.41a2.43,2.43,0,0,0,1.68.66c1.48,0,3.36-1.2,5.16-3.28,2.72-3.14,4.42-7.27,4-9.81-1.09-4.54-7.4-41.17-8.15-45.56-1.4.42-4.22.63-8.6.63-7.62,0-17.44-.65-18.73-.74-.75.61-5.27,4.52-5.44,9.37-.09,2.75,1.21,5.34,3.87,7.71l.32.28-.32.27c-1.08.9-3.59,3.31-3.5,6.3.06,2.07,1.35,4.06,3.84,5.91l.32.24-.27.29c-1.17,1.28-2.48,4.46-1.79,6.88a3.94,3.94,0,0,0,2.95,2.78l.42.12-.2.39c-.73,1.47-3,5.93-1.34,8.55.84,1.36,2.65,2.06,5.38,2.06.37,0,.76,0,1.16,0l1-.06-.68.67c-2.48,2.47-3.59,6.69-2.47,9.4A3.19,3.19,0,0,0,195,311c1.76,0,4.06-1,6.66-3Z"/><path class="cls-2" d="M231,316.38c-6.36,11.22-.24,48.92-1.87,53.66s-8.95,12.62-10.76,13.34c1.9,2.08,9,12.48,10.49,14.29,2.53,0,14.89-4.11,17.82-8.23,4.51-6.33-8.54-53.58,2.16-77.93C244.68,311.27,233.58,311.89,231,316.38Z"/><path class="cls-3" d="M248.87,311.51a20.74,20.74,0,0,0-6.53.22c-10.71,13.33,1.59,59-2.15,68.79-1.68,4.39-5.18,9.29-13.66,13.91,1.08,1.52,1.95,2.72,2.36,3.24,2.53,0,14.89-4.11,17.82-8.23C251.22,383.11,238.17,335.86,248.87,311.51Z"/><path class="cls-4" d="M228.89,398h-.17l-.11-.14c-.56-.69-2-2.64-3.55-4.9-2.57-3.6-5.77-8.09-6.93-9.36l-.35-.39.49-.19c1.66-.67,8.93-8.41,10.55-13.12.53-1.56.16-7.32-.26-14-.88-13.62-2.07-32.28,2.16-39.74,2.13-3.76,10.18-5.1,16.43-5.1.63,0,1.22,0,1.74,0l.52,0-.21.48c-6.54,14.89-4.13,38.59-2.37,55.9,1.16,11.35,2,19.54.18,22.09C244,393.87,231.53,398,228.89,398ZM219,383.49c1.37,1.63,4.29,5.73,6.68,9.08,1.5,2.11,2.8,3.95,3.41,4.73,2.83-.17,14.59-4.18,17.36-8.07,1.65-2.32.79-10.83-.31-21.6-1.75-17.2-4.14-40.69,2.22-55.78-.37,0-.76,0-1.18,0-6.05,0-13.82,1.24-15.8,4.73-4.13,7.27-2.94,25.8-2.07,39.33.47,7.3.8,12.57.22,14.27C228,374.59,221.44,381.92,219,383.49Z"/><path class="cls-5" d="M220.44,381.82c-6.05.8-15.93,11.29-16.54,17.75-.11,1.16,2.41,3.07,7.78,1.87-3,7.85,19.17,6.81,23.81,2C239.76,399,227.45,380.89,220.44,381.82Z"/><path class="cls-6" d="M229.07,401.26c-2.74,1.34-14.33,5-17.54,2.31,1.56,5.46,19.79,4.18,24-.15,2.25-2.33-.11-8.47-3.86-13.61C233.41,396.2,232.11,399.77,229.07,401.26Z"/><path class="cls-6" d="M207.62,401.78a24.73,24.73,0,0,0,4.06-.34c3.28-5,4.85-7.82,7.87-12.14-5.13,1.92-6.73,6.93-8.62,8.49s-4.16,3-7,2.07C204.12,400.64,206,401.85,207.62,401.78Z"/><path class="cls-7" d="M220.62,384.76c4-.33,6.59,1.51,11.46,5.59-3.1-4.61-8.82-8.9-11.64-8.53-5.38.71-14.52,9.45-16.54,17.54C207.55,392.76,216.49,385.09,220.62,384.76Z"/><path d="M221.39,407.55h0c-4.92,0-8.48-1.07-9.78-2.94a3.29,3.29,0,0,1-.46-2.7,14.2,14.2,0,0,1-2.66.27c-2.84,0-4.07-1-4.46-1.44a1.65,1.65,0,0,1-.49-1.21c.62-6.59,10.54-17.23,16.86-18.07,4.82-.63,12.09,7.25,15.08,14.29,1.56,3.67,1.66,6.48.27,7.93C233.3,406.22,226.67,407.55,221.39,407.55Zm-9.14-6.61-.23.62a2.68,2.68,0,0,0,.19,2.64c1.14,1.64,4.57,2.63,9.18,2.63,5.89,0,11.83-1.57,13.84-3.66,1.16-1.2,1-3.8-.41-7.14-2.84-6.66-9.86-14.45-14.33-13.85-5.94.79-15.65,11.21-16.23,17.42a1,1,0,0,0,.3.65c.26.28,1.31,1.21,3.93,1.21a14.32,14.32,0,0,0,3.11-.38Z"/><path class="cls-8" d="M455.13,132.28s13.65-9.41,1.59-15c3.47-4,5.67-17.15-4.22-14.11,2.72-11.09-14-15.7-11.48,0-10.67-5.6-14.92,4.7-7.32,11.94-7.87-1.27-13.57,5.51-4.48,10.7-9.45.06-10.87,10.26-12.44,15.81,2.05,6.63,5.22,23.25,13.06,22.65s29.08-8,18.14-16.88C454,146.93,467.36,137.76,455.13,132.28Z"/><path class="cls-9" d="M433.48,127.11c-8.64-8.14-7-10.65,3.13-10.56-8.48-9.66-2.85-15.57,5.28-11,.81-6.4,2.84-7.91,4.32-8.45s4.76-.84,5.79,6.71a7.34,7.34,0,0,0,.79-2.76c.18-9.41-14.13-12.38-11.77,2.25-10.67-5.6-14.92,4.7-7.32,11.94-7.87-1.27-13.57,5.51-4.48,10.7-6.71,0-9.37,5.2-10.91,10.17C422.73,128.73,425,128.55,433.48,127.11Z"/><path class="cls-3" d="M455.13,132.28s13.65-9.41,1.59-15c3.28-3.73,4.24-12.84,1.21-13.64a5.14,5.14,0,0,0-5.93.07c5.65-.26,7.47,5.84-.28,12.43,7.17,5.6,6,10.07-1.75,16.15,3.71,3.17,8.32,10-7.32,11.94.92,7.11-4.37,12.12-9.86,10.37,3.56-6.69.79-15.25-10.35-14.23.16-3.56-1.84-5.16-4.56-6.25-1,2.6-.51,5.45-1.1,7.53,2.05,6.63,5.22,23.25,13.06,22.65s29.08-8,18.14-16.88C454,146.93,467.36,137.76,455.13,132.28Z"/><path class="cls-10" d="M429.43,164.73h0c-6.69,0-9.9-11.72-12-19.46-.36-1.34-.68-2.5-1-3.46l0-.11,0-.1c.18-.62.35-1.29.53-2,1.36-5.32,3.38-13.24,11.09-14-3-2-4.31-4.33-3.71-6.58.73-2.76,4.29-4.61,8.38-4.3-2.88-3.14-4-6.95-2.77-9.94a5.54,5.54,0,0,1,5.48-3.48,11.89,11.89,0,0,1,5.13,1.33c-.59-4.5.5-6.89,1.54-8.12A5,5,0,0,1,446,92.74a7.12,7.12,0,0,1,5.46,2.85,8.71,8.71,0,0,1,1.57,7.12c3.13-.8,5.35,0,6.39,2.32,1.51,3.35.14,9.28-2.07,12.17,3,1.46,4.55,3.3,4.74,5.49.36,4.2-4.58,8.29-6.21,9.52,4.3,2.1,4.89,4.6,4.59,6.35-.71,4.22-7.27,8.35-11.59,9.16,2.22,2,3,4.1,2.36,6.22-1.92,6.17-15.82,10.35-21.32,10.77Zm-12.27-23c.29,1,.6,2.09.95,3.38,1.94,7.08,5.18,18.93,11.32,18.93h.38c6.15-.48,19-4.84,20.69-10.27.62-2-.31-4-2.74-6l-.7-.56.89-.08c3.94-.35,11.07-4.55,11.76-8.67.38-2.29-1.21-4.25-4.73-5.83l-.59-.26.53-.37c.07,0,6.79-4.73,6.4-9.23-.17-2-1.77-3.72-4.75-5.09l-.44-.21.32-.36c2.21-2.51,3.71-8.55,2.26-11.76-.95-2.1-3-2.7-6.1-1.76l-.61.19.15-.62a8.13,8.13,0,0,0-1.31-7.1A6.47,6.47,0,0,0,446,93.47a4.22,4.22,0,0,0-3.3,1.5c-1,1.17-2,3.55-1.27,8.23l.11.71-.64-.34a12,12,0,0,0-5.42-1.56,4.87,4.87,0,0,0-4.81,3c-1,2.43-.32,6.43,3.33,9.9l.84.8-1.15-.18a11.63,11.63,0,0,0-1.85-.15c-3.38,0-6.16,1.56-6.75,3.79s1,4.48,4.36,6.38l1.17.67h-1.35c-8.11,0-10.1,7.84-11.56,13.53C417.49,140.46,417.32,141.1,417.16,141.69Z"/><path class="cls-8" d="M433.32,176s10.85-16.39-8.08-17.48c7.11-6.63,4.25-15.49-5.88-16,2.35-5.43-1.47-13.69-11.6-10,3.74-5.06-3.13-17.36-15.19-7.23.36-7.84-9.47-18.27-21-7.42-.72-3.91-7.5-10.55-17.09-2.89-3-6.15-13.74-7.69-15.91.27-2.08-3.88-12.81-5.21-14.44,2.56-4.34-2.89-16.07-5.12-19.5,9.16-4.92-7.77-11.27-7.38-15,.31-1.72-6.24-12.21-9.68-16.82,1.17-1.63-4.22-12.38-13.58-21.54-1-1.21-3.08-9.32-5-11.31.65-.73-5.67-5.61-12.48-12.06-4.58-.54-7.72-7-13.41-16.31-4.93-1.9-3-6.84-2.37-10.58.16,1-4.64,3-15.25-12.78-18.86-4.88,8.46-42.89,69.38-43.82,73.9-1.27,2.35-.09,15.28,6.6,17.45-3.71,5.79-.18,25.14,10.85,22.34-3.53,7.05-1.54,14.1,5.61,14.65-4.67,4.4-1.78,16.69,10.76,9.85-1.27,4,1.2,14.5,10.31,10.4.09,4.79,5.78,14.83,13.92,8.5,3.44,2,46.66,6,51.24,4.34,2.89,2.17,10.7,13.84,20.38,2.35,1.44,4.34,4.88,10.13,13.56,1.27,1.45,3.43,4.52,17.36,18.81,5.79,2.35,3.07,7.95,8.68,13.56-.73,1.27,2.9,8.86,9.95,14.83,0,3.34,6.42,15.37,5.79,17.72-2,4.25,4,8.86,3.26,11.39-4.16,4.35,3.26,13.93,7.87,10.55-8.32,1,2.9,5.79,7.72,11.82,3.38-1.69,8.2.18,14.38,10.55,7.38-1.87,7.09,2.95,17.32,12.84,8.95-2.53,7.69,3.86,14.29,13.26,8.75-2.95,4.7-.06,13.14,8.2,9.88-.42,4.65,6.75,11.82,11.33,1.21,1.69,3.62,15.07,9.22,14.29-4.64,6.51-1.93,12.18-16.46-.54-15.92,2.47-3.61,5.54-10.67-4-10.12,1.44-3.62-.09-10.61-9.32-9,2.9-4.61,4.25-10.58-7.68-8.86,7-5.73,7.77-11.55-1.57-12.43,7.63-3.28,12.6-14,.3-16.39,5.07-3.62,11.21-13.93.18-21.52C438.62,192.32,446.64,179.3,433.32,176Z"/><path class="cls-9" d="M424.18,283c-11.55,5.05-12.55-5.26-11.91-12.94-9.41,6.32-11.49,3.45-11.13-8.66-9.46,3.92-12.17.55-10-8.49-8.32,1.62-12.66-1.81-12.18-9.71-7.6,1.93-17,1.6-9.64-9.29-11-1.8-13.85-5.53-4.47-13.5-14.82.37-14.22-6.14-8.37-13.8-9.05-.42-15.36-1.08-12.51-9.32-2.34,1.1-2.31,4.32-3.23,6.62-1.45,4.34,1.09,4.68,6.15,6.13-1.45,2.17-2.89,5.79-.72,8,4.34,6.51,4.34,10.13,6.51,17.36.72,2.17,4.34,3.62,7.23,5.06-1.45,2.9-2.17,5.79-1.45,8.68.73,1.45.73,3.62,2.17,4.34,3.62.73,7.24-.72,10.86-.72-1.05,3.65,1.3,5.43,3.77,7.21a34.05,34.05,0,0,0-.64-4.32c1,2.9,5.79,7.72,11.82,3.38-1.69,8.2.18,14.38,10.54,7.38-1.86,7.09,3,17.32,12.84,8.95-2.19,6.65,2.3,12.48,9.64,10.35A21.39,21.39,0,0,0,424.18,283Z"/><path class="cls-9" d="M404.43,122c-3.12-1.34-7.24-.4-11.73,3.37.37-7.84-9.46-18.27-21-7.42-.73-3.91-7.51-10.55-17.09-2.89-3-6.15-13.75-7.69-15.92.27-2.08-3.88-12.81-5.22-14.44,2.56-4.34-2.89-16.06-5.12-19.5,9.16-4.91-7.77-11.27-7.38-15,.31-1.71-6.24-12.2-9.68-16.82,1.17-1.62-4.22-12.38-13.58-21.54-1-1.2-3.08-9.31-5-11.31.65-.72-5.67-5.6-12.48-12-4.58-.55-7.72-7-13.41-16.31-4.93-1.9-3-6.84-2.37-10.58.16.35-1.69,2.85-12-6.48-16.7,7.32,6.64,4.54,13.09,5,18.16,8.27-1.89,13.08-.52,9.53,10.55,8.68,1.75,12.11,7.23,10.38,17.17,4.49-5.22,5.5-17.95-6.09-19.25,1.45-2.17.82-7.82-.63-9.52,5.7-3.66,11.74,0,13.82,7.72,5.79-5.78,10.25-3.36,12.48,6.29,4.28-6.57,10.85-6.39,10.31,1.93,8.86-.79,13.26,4.4,9.16,13.44,12.24-.06,14.13,4.87,6.51,10.61,7.71,3.25,13.74,6.51,7.18,14.19,5.53-2.58,8.49-10.09-1.09-15.75,4.74-7.44-.22-13.73-8.32-11.23,4.8-6.29-1.47-15.2-8.55-14.79.45-6.67,11.79-8.08,19.22,2C277,122.73,284,121.67,290.05,132c2.17-9.16,9.09-10.7,13.84-.06,5.24-4.82,11.44-1.62,10.72,10.41,12.07-6.56,14.42.86,13.76,6,5.62-9.4-4.19-12.12-10-10.18.77-5.74-1.82-10.92-8.78-12.41,3.8-11.23,14.67-2.8,17.07-1.78,2-9.46,7.05-10.18,13.38-2.89,3-9.58,8.77-9.95,14.74-1.43,6.86-7.64,13-4.66,15.52,3.3,4.46-5.61,8.6.6,2.35,8.2,11.28,0,12.48,3.42,7.72,11.75,6.27,1.27,10.48,2.72,7.35,8.91,5.36-3.47,2.3-9.74-3.13-11.12,3.87-9.09-.83-11.69-7-11.63.66-2.72,2-5,1.42-8.82-.51-3.24,12.95-5.7,12.43,8.45,6-5.91,17.24-4.41,15.51,4.66C411,129.51,408.32,123.71,404.43,122Z"/><path class="cls-3" d="M456.36,274.6c2.47-3.61,5.55-10.67-4-10.12,1.45-3.62-.09-10.61-9.31-9,2.89-4.61,4.25-10.58-7.69-8.86,7-5.73,7.78-11.55-1.56-12.43,7.62-3.28,12.6-14,.3-16.39,5.06-3.62,11.21-13.93.18-21.52,4.52-4,12.54-17-.79-20.26,0,0,10.86-16.39-8.07-17.48,7.11-6.63,4.25-15.49-5.88-16,2.35-5.43-1.7-14.59-12.46-9.4,10.15,0,9.42,3.49,6.4,11.27,4.76-.06,7.84,7.35,1.45,15.43,9.28,3.5,10,11.82,2.89,18.33,12.42,1,14.83,14.47,3,17.84,7.71,6.15,11.93,14.14-1.81,19.05,10.25,4.14,11.88,12.42-2.59,18.33,10.85,4.34,14.16,8.92,6,16.39,9.2.64,18.08,3.32,13.6,8.92,5.88.67,13.11,4.89,4.25,11.33,12.84,5.24,9.13,12.64-1.45,11.58,3.62,9.83-5.11,9.78-7.05,5.17-4.61,4.9-9.86,3.33-7.84-3.65-5,7.33,1.28,13.19,7.41,10.77-.42,4.65,6.76,11.82,11.34,1.21,1.69,3.62,15.07,9.22,14.28-4.64C463.41,288.59,469.08,274.06,456.36,274.6Z"/><path class="cls-3" d="M357.76,222.86c.39-.07.79-.16,1.18-.26A6.16,6.16,0,0,0,357.76,222.86Z"/><path class="cls-3" d="M374.62,255.61c.19.58-.87-4.86-.15-7.77-4.16,1.81-10.34,2-12.51-3-1.45-2.89-1.39-5.62,1.75-8.42-2.89.72-6,.36-8.14-1.74-4.21-2.41-2.95-10.11,2.19-11.78a11.21,11.21,0,0,1-9.42-2c-1.45-3.61-2.22-9,3.26-11.19-7.66.41-13.09-5.5-7.8-12.27-5.05,2-5.57,11.17-2.68,14.79-9.18-.73-9.3,7.11-6.53,14.46-6.51-7.83-10.85,3.62-10.12,6.51-5.79-1.45-5-7.53-7-11.21-3,4.81-6.93,8.71-9.64,9.89-3.8-6.57-8.92-3.44-9.83.84-2.41-5.24-7.11-5.06-9.58-.6.48-3.38-4.83-6.77-6.67-3-.33-2.4-2.86-3.57-5.39-2,.36-3.62-3-5.88-5.79-2.94a10,10,0,0,0-9.28-8.69,16.08,16.08,0,0,1,3.14,12.65c-.73,2.17-2.9,2.89-4.35,3.61,3.62,3.62,1.45,7.24-3.61,9.41-2.9,1.44,2.17,6.51,1.44,10.12-1.44,2.17-3.61,2.9-6.51,3.62a20.92,20.92,0,0,0,3.24,7.24c3.39,3.23,10.68,12.15,19.55,1.62,1.45,4.34,4.88,10.13,13.56,1.27,1.45,3.43,4.53,17.36,18.81,5.79,2.35,3.07,8,8.68,13.57-.73,1.26,2.9,8.86,9.95,14.82,0,3.35,6.42,15.38,5.79,17.73-2,4.25,4,8.86,3.26,11.39-4.16C368.41,267.19,378,271.8,374.62,255.61Z"/><path class="cls-3" d="M190.23,215.58c1.31-3.35-1-5-4.65-3.76,3.16-4.11.45-6.28-2.74-6.48,3.64-.88,4.95-5.91,2-6.93,4-3.8,6.27-7.17,7.12-12.42-8.93,5.43-11.16,3.32-15.62,2-2.62-7-8.64-7.68-14.35-2.61,3.14-5.16,3.86-9.41.34-9.86,26.31-10.76,48.56-41.51,28-75-6.06,10.32-44.95,68.94-45.85,73.37-1.27,2.35-.1,15.28,6.6,17.45-3.71,5.79-.18,25.14,10.85,22.34-3.53,7.05-1.54,14.1,5.6,14.65-4.67,4.4-1.78,16.69,10.76,9.85-1.26,4,1.21,14.5,10.31,10.4.09,4.79,5.79,14.83,13.93,8.5,1.06.62,5.93,1.43,12.29,2.21,3.14-21.15-14.4-29.33-16.78-46C194.47,215.44,192,215.85,190.23,215.58Z"/><path class="cls-10" d="M436.81,301a5.39,5.39,0,0,1-3.92-1.94,7.49,7.49,0,0,1-2-4.61c-3.69,1.27-6.81.29-8.37-2.53a8.35,8.35,0,0,1-.32-7,12.64,12.64,0,0,1-5.73,1.54,7.33,7.33,0,0,1-6.1-3,8.83,8.83,0,0,1-1.21-7.22,10.48,10.48,0,0,1-6.15,2.51,5.82,5.82,0,0,1-4.71-2.42,12.05,12.05,0,0,1-1.88-9.23c-4.67,3-8,3.38-9.66,1.29s-1.4-5.66-.86-8.69a8.17,8.17,0,0,1-4.31,1.32,8,8,0,0,1-6.24-3.34c.62,4.07.31,6.9-.93,8.42a3.65,3.65,0,0,1-3,1.33c-2.69,0-5.84-2-7.2-3-1.91,5.22-4.61,6.34-6.57,6.34a7.59,7.59,0,0,1-4.83-2.12c-1.66,4.48-6.2,6.09-9.69,6.09a9.55,9.55,0,0,1-8.22-4c-2,3.18-4.44,4.79-7.14,4.79-3.56,0-6.56-2.88-7.7-4.77-2,3.21-4.29,4.84-6.69,4.84-2.84,0-5.29-2.29-6.91-4.33-3.64,2.89-6.88,4.36-9.61,4.36-5.65,0-7.83-6.05-9-9.3-.09-.26-.18-.5-.26-.71-6.29,6.21-11,5.69-13.56-1.21-2.74,3.08-5.59,4.64-8.49,4.64-4.43,0-8-3.53-10.32-5.87-.58-.58-1.1-1.09-1.51-1.43a21.55,21.55,0,0,1-5.05.37c-11.85,0-41.95-2.89-46.07-4.68a8.71,8.71,0,0,1-5.18,2c-5.3,0-8.76-6.44-9.12-10.36-3.61,1.46-6.66.76-8.62-1.92a11.81,11.81,0,0,1-1.89-8.33,13.89,13.89,0,0,1-6.11,1.7,6.18,6.18,0,0,1-6-4,8.17,8.17,0,0,1,1.16-8,7.56,7.56,0,0,1-5.79-3.75c-1.59-2.8-1.47-6.75.3-10.67-3.82.65-7.09-1.23-9.35-5.36-2.85-5.23-3.48-13.43-1.39-17.29-2.18-.88-4-3-5.23-6.08-1.83-4.57-2-10.1-1.18-11.69.86-3.56,20.29-35.32,33.17-56.36,5.19-8.48,9.29-15.19,10.69-17.6l.13-.23.26,0c15.32,3.51,14.15,13.72,13.22,18.46a12,12,0,0,1,5.88-1.78,5.07,5.07,0,0,1,4.24,1.84c3-2.68,5.9-4,8.57-4,4.11,0,7.3,3.51,7.95,8.63,1.83-2,3.66-3.07,5.44-3.07,3.31,0,5.69,3.59,6.5,7.32a5.81,5.81,0,0,1,5.27-2.77c2.49,0,4.95,1.13,5.94,2.65,3-4,6.49-6,10.26-6,5.27,0,9.7,4.07,11.22,6.84,2-4.16,5.17-6.52,8.83-6.52a8.89,8.89,0,0,1,8.06,5.28c1.88-3.48,4.4-5.39,7.15-5.39s5.34,1.82,7.62,5.13c2.56-9.36,8.69-10.78,12.19-10.78a14.68,14.68,0,0,1,7.22,1.93c.93-3.43,3.81-5.46,7.79-5.46,2.83,0,5.47,1.06,6.76,2.65a7.43,7.43,0,0,1,7.33-5,10.34,10.34,0,0,1,8.83,5,14,14,0,0,1,8.43-3.34,9.33,9.33,0,0,1,8.74,6.11c3.23-2.89,6.51-4.36,9.75-4.36a10.86,10.86,0,0,1,7.87,3.52,12.86,12.86,0,0,1,3.58,8.16c2.92-2.31,5.72-3.48,8.33-3.48a7.71,7.71,0,0,1,7,4.38,7.46,7.46,0,0,1,.35,6.44,13.52,13.52,0,0,1,3.92-.64,7.53,7.53,0,0,1,6.56,3.33,8.7,8.7,0,0,1,.83,7.59c4.56.35,8,2.49,9.19,5.8s.07,7-3,10.2c5.14.43,8.47,2.1,9.91,5,2.33,4.65-1.08,10.9-2.1,12.59,3.88,1.05,6.2,3,6.91,5.92,1.22,5-2.82,11.43-6.11,14.52,3.91,2.81,5.91,6.18,5.94,10,0,4.58-2.9,8.95-5.86,11.35,4.16,1,6.61,3.12,6.93,6.08.4,3.66-2.53,8-6.81,10.3,4.07.63,5.44,2.29,5.85,3.62.7,2.32-.89,5.37-4.39,8.5,4.57-.5,7.38.22,8.43,2.12s0,4.64-1.19,6.77a15.41,15.41,0,0,1,1.87-.12c3.63,0,5.48,1.59,6.38,2.93a7.58,7.58,0,0,1,.87,6.26c3.15-.09,5.12.67,6,2.26,1.28,2.43-.56,6-1.76,7.88,5.65,0,6.95,3.1,7.22,4.95.63,4.35-2.92,10.19-7,11.6.14,3.3-.51,5.74-1.94,7.26a5.87,5.87,0,0,1-4.37,1.72,11.59,11.59,0,0,1-8.3-3.83C440.69,300.12,438.41,301,436.81,301Zm-5.11-7.63-.05.59a6.43,6.43,0,0,0,1.77,4.61,4.7,4.7,0,0,0,3.39,1.7c2.09,0,4-1.82,5.48-5.28l.31-.74.35.73c.75,1.62,4.46,4,8,4a5.07,5.07,0,0,0,3.84-1.5c1.33-1.41,1.92-3.77,1.73-7v-.29l.27-.08c3.8-1.13,7.33-6.82,6.74-10.89-.43-3-2.88-4.5-7.16-4.32l-.72,0,.4-.6c.82-1.2,3.38-5.28,2.1-7.71-.74-1.4-2.66-2-5.82-1.85l-.56,0,.21-.53a6.83,6.83,0,0,0-.62-6.11c-1.5-2.22-4.42-3.06-8.3-2.38l-.8.15.43-.69c1.05-1.68,2.65-4.77,1.58-6.71-1-1.76-4-2.31-8.9-1.6l-1.29.18,1-.82c3.85-3.15,5.75-6.34,5.08-8.52-.54-1.79-2.78-2.92-6.45-3.26l-1.41-.14,1.3-.56c4.53-1.95,7.9-6.48,7.5-10.09-.31-2.84-2.77-4.79-7.12-5.62l-.83-.16.69-.49c3-2.15,6.23-6.58,6.19-11.23,0-3.71-2.05-7-6-9.69l-.38-.27.35-.3c2.78-2.45,7.46-9.1,6.23-14.11-.67-2.72-3-4.58-6.86-5.53l-.5-.12.28-.43c.05-.07,4.8-7.35,2.32-12.29-1.39-2.77-4.79-4.32-10.11-4.63l-.85,0,.62-.57c3.3-3.08,4.57-6.81,3.4-10s-4.53-5.15-9-5.36l-.52,0,.21-.48a8,8,0,0,0-.58-7.37,6.84,6.84,0,0,0-6-3A13.42,13.42,0,0,0,408,133l-1.13.42.71-1a6.47,6.47,0,0,0,.12-6.57,7,7,0,0,0-6.32-4c-2.62,0-5.46,1.28-8.46,3.8l-.63.53,0-.82A11.93,11.93,0,0,0,389,117a10.17,10.17,0,0,0-7.35-3.28c-3.2,0-6.47,1.53-9.71,4.57l-.48.45-.12-.65c-.47-2.57-3.58-6.12-8.18-6.12-2.67,0-5.47,1.16-8.33,3.44l-.35.28-.2-.4a9.49,9.49,0,0,0-8.38-5,6.68,6.68,0,0,0-6.86,5.16l-.24.88-.43-.8c-.9-1.69-3.66-2.91-6.56-2.91-3.8,0-6.5,2-7.2,5.38l-.11.52-.45-.3a13.78,13.78,0,0,0-7.25-2.08c-3.38,0-9.39,1.44-11.69,11l-.21.83-.45-.72c-2.24-3.54-4.88-5.48-7.46-5.48s-5.1,2-6.89,5.74l-.42.87-.26-.93a8,8,0,0,0-7.64-5.58c-2.09,0-6,.88-8.49,6.8l-.35.82-.32-.83c-1-2.55-5.46-7.1-10.89-7.1-3.67,0-7,2.06-10,6.14l-.38.53-.25-.61c-.59-1.51-3.08-2.74-5.54-2.74a5.05,5.05,0,0,0-5.09,3.38l-.5,1.44-.2-1.51c-.49-3.86-2.86-7.85-6-7.85-1.74,0-3.57,1.16-5.43,3.45l-.58.7-.07-.91c-.36-5.18-3.37-8.81-7.31-8.81-2.53,0-5.43,1.43-8.39,4.13l-.32.29-.23-.37a4.35,4.35,0,0,0-3.87-1.84,11.59,11.59,0,0,0-6.2,2.11l-.74.5.19-.87c.92-4.42,3.06-14.75-12.25-18.38C187,103,183,109.54,178,117.76c-12.13,19.83-32.44,53-33.09,56.19l0,.09c-.73,1.38-.56,6.77,1.19,11.13.87,2.16,2.48,4.92,5.21,5.81l.44.14-.25.4c-2.24,3.5-1.66,11.73,1.19,16.94,1.27,2.33,3.57,5.11,7.24,5.11a8.5,8.5,0,0,0,2-.26l.76-.2-.35.71c-2,3.93-2.21,7.92-.65,10.67a7.1,7.1,0,0,0,6,3.46l.82.06-.6.56a7.37,7.37,0,0,0-1.49,7.73,5.4,5.4,0,0,0,5.36,3.53,14,14,0,0,0,6.47-2l.79-.44-.27.86a10.9,10.9,0,0,0,1.59,8.48c1.86,2.54,4.71,3.06,8.22,1.48l.5-.22v.54c.07,3.5,3.4,10.18,8.43,10.18a8.13,8.13,0,0,0,4.91-2l.2-.15.21.12c2.73,1.58,33.21,4.69,45.93,4.69,3.28,0,4.53-.2,5-.38l.18-.07.16.12a18.76,18.76,0,0,1,1.73,1.61c2.26,2.25,5.67,5.65,9.81,5.65,2.82,0,5.63-1.63,8.34-4.85l.42-.49.2.61c1.26,3.75,3.06,5.66,5.37,5.66,2.1,0,4.65-1.53,7.6-4.53l.38-.39.21.5c.14.33.29.76.47,1.26,1.12,3.08,3.19,8.82,8.33,8.82,2.63,0,5.81-1.49,9.44-4.44l.29-.23.23.3c1.51,2,3.88,4.34,6.56,4.34,2.26,0,4.42-1.7,6.4-5l.36-.61.29.65c.77,1.76,3.88,4.92,7.34,4.92,2.57,0,4.87-1.67,6.84-5l.34-.56.3.57c1.34,2.58,4.36,4.18,7.88,4.18s7.81-1.59,9.17-6.1l.17-.56.42.4a7.28,7.28,0,0,0,4.76,2.29c2.55,0,4.64-2.18,6.05-6.3l.16-.48.4.3c1,.74,4.38,3.13,7.16,3.13a3,3,0,0,0,2.43-1.06c1.31-1.6,1.44-5,.39-10l.69-.19a7.58,7.58,0,0,0,6.65,4.86,7.9,7.9,0,0,0,4.61-1.66l.76-.54-.19.9c-.88,4.26-.68,7.43.55,8.94,1.55,1.9,4.78,1.22,9.44-1.92l.8-.54-.25.93a11.65,11.65,0,0,0,1.56,9.48A5.1,5.1,0,0,0,403,278.1c2,0,4.17-1,6.56-3.06l1-.82-.4,1.21a8.45,8.45,0,0,0,.81,7.67,6.57,6.57,0,0,0,5.51,2.66,12.77,12.77,0,0,0,6.41-2l1.28-.76-.79,1.26a7.53,7.53,0,0,0-.22,7.34c1.46,2.63,4.43,3.41,8,2Z"/><path class="cls-3" d="M397.92,195.13c7.56-.43,12.45-8.29,5-14.94,5.75-1.44,8-8.42.15-11.87,5.79-2.07,7-4.24,7.47-7.47,1-5.86-5.26-13.64-12.14-11.3,3.07-2.63,3-5.42,1.36-8-.74-1.14-3.4-2.69-5-1.67.59-2.63-4.67-5.55-6.18-4.35,3,1.32,5,5,1.94,7.28,1-.88,2.49,0,3.22.44,3.22,2.94,2.19,6.31.43,9.24,4.24,2.05,9.37,5.14,8.19,10.41-.15,1.91-2.93,3.22-5.27,3.81,5.41,4.25,5.41,11.73-2.35,13,2.34,1.91,5.54,8.37-1.56,12.74,2.44,9.77-4,12.31-6.37,12.9C400.89,204.56,398.67,197.33,397.92,195.13Z"/><path class="cls-3" d="M258,172.52c5.73-3.77.59-6.69.59-6.69,2.12-.94,2.52-3,3.16-4.52.92-2-1.2-6.41-5.16-6.68a7.91,7.91,0,0,0,3.61-6c-.55-5.41-6.43-10.9-12.22-7.09,3.08-5.63-2.8-11.37-12.42-6.23-.66-1-.27-2.7-1.12-2.86a9.5,9.5,0,0,0-6.07,1.69,6.28,6.28,0,0,1,5.75,3.56c-.19.85-.06,2.2-.25,3.05,1.05-.69,1.77-1.89,3.16-2.08,5.34.09,10.17,6.27,6.42,10.9a7,7,0,0,1,4.55-2.27A6.81,6.81,0,0,1,250,159.64a3.62,3.62,0,0,1,4,6c3.75,2.69,3.92,4.38.26,6.7,2.47,1.17.7,3.82,0,4.73C256.31,175.81,258.08,173.73,258,172.52Z"/><path class="cls-3" d="M327.54,194.32c4,5.66-.39,13.82-7.82,11.41.9,4.92-4.2,8.69-9.81,4.24,1.31,4.34-1.15,5.69-6,6.17.08,0,5.69,3.71,9.81-.7,8,4,10.41-5,10.41-5,6.58,1.07,13.15-5.56,8.13-14.42,7.07-1.23,5.26-9.16.59-13.74C336.08,187.13,333.94,194.29,327.54,194.32Z"/><path class="cls-10" d="M176.7,200a10,10,0,0,1-6.87-3c-2.13,1.78-5.73,2.87-8.36,1.68-1.61-.74-3.5-2.63-3.51-7.42a11.37,11.37,0,0,1-6.91.5l.15-.71a10.05,10.05,0,0,0,7-.69l.54-.27,0,.61c-.11,3.82,1,6.35,3.08,7.32,2.44,1.11,6-.06,7.83-1.78l.26-.24.24.25c2.68,2.7,6,3.68,9,2.67a7.81,7.81,0,0,0,5.28-6.27s0,5.51-5.05,7A9.49,9.49,0,0,1,176.7,200Z"/><path class="cls-10" d="M292.44,266.55a9.68,9.68,0,0,1-4.87-1.47l.37-.63c2.66,1.56,5.16,1.79,7.42.69,3.41-1.66,5.5-6,5.83-8.43l.06-.39.38.08c3.85.86,8.12-.89,11.13-4.55A13.27,13.27,0,0,0,315,238.12a8.65,8.65,0,0,1,1.72,4.15,14.9,14.9,0,0,1-3.42,10c-3.09,3.75-7.46,5.6-11.47,4.87-.51,2.63-2.7,6.92-6.18,8.61A7.26,7.26,0,0,1,292.44,266.55Z"/><path class="cls-8" d="M264.18,230.66c1.45-2.65,3.46-10.21-3.05-15.27l-63-2.12s-6.85,14.25,7.14,17.39c-4,5.3-4,12.78,3,14-2.89,3.38-5.06,11.82,2.66,14.71-2.78,1.93-2.78,9,2.29,10.25-.73,2.65-2.9,12.9,3.13,13.38-1.57,3.14-7.73,12.65,4.08,14.69-1.69,4.1-4.56,14.25,4.36,15.21-.72,2.65-.88,11.73,6.87,12.18s11.82-4.22,11.33-10.49c3.11,3.07,14,3.44,6.39-10.25,4.47-1.32,8.93-9.37-.84-15.07,7.78.27,7.84-6.75,3.38-13.5,6.27.48,9.36-8.44,2.45-12.42,5.38-1.33,9.12-11.81,4.78-15.79C265.87,247.84,267.32,233.82,264.18,230.66Z"/><path class="cls-9" d="M221.54,280.23c-6.3-1.46-6.3-7.49-3.25-13-4,.46-8.88-3.74-3.19-8.8-5-5.27-7.25-8.72-1.91-15.4-6-2.08-8.62-9.37-2.9-13.74-11.39-2.46-13.18-7.79-12.2-16.07-3.47,8.89-1.29,15.5,7.14,17.39-4,5.3-4,12.78,3,14-2.89,3.38-5.06,11.82,2.66,14.71-2.78,1.93-2.78,9,2.29,10.25-.73,2.65-2.9,12.9,3.13,13.38-1.57,3.14-7.73,12.65,4.08,14.69-1.59,3.87-4.83,14.82,4.71,14.95-8.07-4.77-3.06-11.95-.64-17.34C217.32,295.56,215,288.86,221.54,280.23Z"/><path class="cls-3" d="M264.18,230.66c1.39-2.55,3.5-10.74-2.87-15.31,2.69,4.34,2.27,12.06-5.26,13.93,4.4,4.88,8.7,13.27-4,15.43,2.89,7.23,2.11,13.68-4.46,18.56,4.52,4.16,4.88,9.47-4.28,11.16,7.17,5.3,5,12.78-.88,13.62,4.64,4.88,9.68,11,1,15.1,5.42,6,.56,8.53-4.34,5.52-4.21,15.85-13.67,13-14.31,3.85-.72,2.66-.92,12.09,6.83,12.54s11.82-4.22,11.33-10.49c3.11,3.07,14,3.44,6.39-10.25,4.47-1.32,8.93-9.37-.84-15.07,7.78.27,7.84-6.75,3.38-13.5,6.27.48,9.36-8.44,2.45-12.42,5.38-1.33,9.12-11.81,4.78-15.79C265.87,247.84,267.32,233.82,264.18,230.66Z"/><path class="cls-10" d="M232.65,325.45l-1,0a7.13,7.13,0,0,1-5.68-2.95c-2.13-3-2-7.26-1.61-9.28a6.61,6.61,0,0,1-5.06-3c-2.25-3.8-.27-9.86.64-12.2-3.28-.64-5.42-2-6.37-3.9-1.67-3.42.73-7.94,2-10.37.07-.14.15-.28.21-.41a4,4,0,0,1-2.68-1.7c-2.26-3.23-.85-9.73-.34-11.72a5.68,5.68,0,0,1-3.93-4.64,6.65,6.65,0,0,1,1.4-5.75,7.8,7.8,0,0,1-4.71-5.25,11.79,11.79,0,0,1,2.09-9.33,6.55,6.55,0,0,1-4.89-4c-1.13-2.85-.37-6.74,1.92-10-3.68-.93-6.2-2.79-7.58-5.48-3.14-6.12,1.16-12.31,1.16-12.31s-3.06,6.87-.51,12c1.31,2.63,3.87,4.39,7.62,5.22l.54.13-.33.44c-2.4,3.2-3.24,7-2.15,9.78a6,6,0,0,0,4.93,3.64l.63.11-.41.48A11.18,11.18,0,0,0,206.2,254a7.15,7.15,0,0,0,4.82,5l.65.25-.57.39c-1.31.91-2,3.25-1.58,5.43a5,5,0,0,0,3.75,4.17l.36.08-.1.36c-.22.83-2.14,8.21.15,11.46a3.36,3.36,0,0,0,2.67,1.47l.53,0-.24.48c-.12.26-.28.55-.45.88-1.23,2.31-3.52,6.63-2,9.71.89,1.81,3,3,6.28,3.59l.45.08-.17.41c-.77,1.86-3.09,8.21-.86,12a6.09,6.09,0,0,0,4.92,2.74l.42.05-.11.41c-.44,1.61-.7,6.14,1.4,9.06a6.47,6.47,0,0,0,5.14,2.66c3.66.21,6.62-.73,8.58-2.72a9.29,9.29,0,0,0,2.37-7.38l-.07-1,.69.68c1.61,1.6,5.21,2.32,7.1.88,2.11-1.59,1.65-5.39-1.28-10.69l-.22-.4.43-.12a7.2,7.2,0,0,0,4.69-5.84c.39-3.2-1.61-6.24-5.61-8.58l-1.24-.72,1.43.05c2.64.09,4.5-.69,5.39-2.27,1.33-2.39.45-6.48-2.32-10.67l-.41-.62.73.06a5.51,5.51,0,0,0,5.72-4c.69-2.25.2-5.63-3.47-7.75l-.78-.44.87-.22c2.58-.64,5.06-3.72,6-7.49.83-3.25.31-6.12-1.39-7.69l-.74-.67,1,.05c2.61.11,4.12-2.06,4.93-3.9,1.82-4.1,1.75-10.46-.14-12.37l-.19-.19.13-.24c1.38-2.53,3.58-10.17-2.74-15.09a10.2,10.2,0,0,1,3.45,2.81c2.8,4.69,1.21,10.1,0,12.4,2,2.34,2.05,8.61.11,13-1.13,2.55-2.82,4.05-4.81,4.3,1.46,1.81,1.86,4.65,1.05,7.8s-2.87,6.6-5.78,7.77a7.2,7.2,0,0,1,3.13,8.17,6.22,6.22,0,0,1-5.76,4.52c2.62,4.22,3.38,8.33,2,10.84-.63,1.13-2,2.42-4.8,2.62,4.77,3.2,5.15,6.74,4.92,8.63a7.93,7.93,0,0,1-4.78,6.31c4,7.35,2.26,10.19.88,11.24-2,1.5-5.39,1-7.4-.4a9.75,9.75,0,0,1-2.62,7.12A11,11,0,0,1,232.65,325.45Z"/><path class="cls-8" d="M72.37,25.49C66.79,26.55,52.09,32,58.26,43.91c-8.92,2.05-8.72,17.73,4.23,15.7C66.22,53.61,89.26,22.28,72.37,25.49Z"/><path class="cls-9" d="M78.48,28.94c0-2.78-1.72-4.29-6.11-3.45-5.55,1.05-19.71,6.6-15,16.7.39.72.93,1.83,1.71,2.09C56.77,34.22,68.6,26.53,78.48,28.94Z"/><path class="cls-11" d="M56.08,44.77c-6.6,3.87-5.37,16.69,6.41,14.84,1.38-2.21,1.94-6,5.6-12.09C59.65,57.17,51.27,53.19,56.08,44.77Z"/><path class="cls-10" d="M60.29,60.16h0c-5.69,0-8.13-3.81-8.5-7.06-.42-3.7,1.53-8.17,6-9.43-1.62-3.35-1.75-6.46-.4-9.26C60.07,28.82,68,26,72.3,25.13c3.14-.59,5.17-.05,6,1.61,2.9,5.43-8.12,21.9-13.41,29.82C64,58,63.26,59.07,62.8,59.81l-.09.14-.16,0A15,15,0,0,1,60.29,60.16ZM74.55,25.62a12.21,12.21,0,0,0-2.11.22c-3.86.74-11.84,3.54-14.44,8.89-1.31,2.69-1.12,5.72.58,9l.22.41-.46.11c-4.32,1-6.23,5.25-5.83,8.75.35,3.11,2.58,6.42,7.78,6.42h0a13.71,13.71,0,0,0,2-.15c.47-.74,1.18-1.8,2.07-3.13,4.81-7.18,16.07-24,13.38-29.07C77.19,26.1,76.16,25.62,74.55,25.62Z"/><path class="cls-2" d="M63.55,70.79c-6.82-4.74-25.5,3.28-36.39,12.35-5.32,4.42-12.44,14.32-18.45,22.13-4.33,5.64-11.47,9.59-6.87,11.78,8,3.77,41.23,5.58,58.35-16C61.16,96.47,70.17,75.38,63.55,70.79Z"/><path class="cls-12" d="M34.44,81.44C42.56,75.3,52.05,72.19,62.11,70c-7.74-3-24.75,4.61-34.95,13.1-5.32,4.42-12.44,14.32-18.45,22.13-.39.51-.8,1-1.23,1.49C17.2,98.62,24.32,89.09,34.44,81.44Z"/><path class="cls-11" d="M3.29,114.56c1.63-3.16,4.63-7.7,6.14-10.13C4.75,110.1-2.25,115.1,1.84,117.05c8,3.77,41.23,5.58,58.35-16,.15-.72-2.12-1.86-1.66-3.28C49,109.56,18.48,118.17,3.29,114.56Z"/><path class="cls-4" d="M17,119.74h0c-6.36,0-12.23-.91-15.3-2.37A2.54,2.54,0,0,1,0,115.58c-.27-1.59,1.61-3.44,4-5.77a46.14,46.14,0,0,0,4.41-4.76c1-1.29,2-2.64,3.06-4,5.4-7.11,11-14.46,15.45-18.18C35.1,76.06,49,69,58,69a10,10,0,0,1,5.73,1.47c5.48,3.81.91,17.74-1.82,26.07-.67,2-1.2,3.65-1.39,4.57l0,.08-.06.07C47.26,117.94,25.66,119.74,17,119.74ZM58,69.75c-8.89,0-22.56,7-30.64,13.67C23,87.08,17.18,94.73,12.06,101.48l-3.06,4a45.58,45.58,0,0,1-4.48,4.83c-2.14,2.11-4,3.92-3.79,5.14.08.48.49.89,1.26,1.26,2.94,1.39,8.82,2.29,15,2.29,8.56,0,29.85-1.76,42.88-18.12.21-1,.73-2.56,1.39-4.56,2.49-7.6,7.13-21.74,2.1-25.24A9.26,9.26,0,0,0,58,69.75Z"/><path class="cls-13" d="M62.3,82.28c-10.55.53-29.34,19.86-41.94,26.81C34.15,109.63,59.64,102.35,62.3,82.28Z"/><path class="cls-14" d="M61.12,87.17a23.3,23.3,0,0,0,1.18-4.89c-10.18.51-29,19.22-41.53,26.73C27.16,109,50.49,91.05,61.12,87.17Z"/><path class="cls-4" d="M21.8,109.48c-.49,0-1,0-1.45,0l-1.3,0,1.14-.62c4.74-2.62,10.28-6.94,16.14-11.5,9.48-7.39,19.28-15,26-15.36l.43,0-.06.43C60.18,101.06,37.27,109.48,21.8,109.48Zm-.13-.72h.13c15.09,0,37.36-8.1,40.08-26.09-6.44.64-15.92,8-25.11,15.18A158.57,158.57,0,0,1,21.67,108.76Z"/><path class="cls-4" d="M14.43,111.07c5.44-1,13.44-7.2,21.9-13.8C46.93,89,57.88,80.49,64.5,82.1l-.17.71c-6.29-1.54-17.1,6.89-27.55,15-6.3,4.9-12.24,9.83-17.33,12.14A13.76,13.76,0,0,1,14.43,111.07Z"/><path class="cls-2" d="M64.79,50.17c-9.86,10.7-15.91,34.55-6.14,57.88-3.44,8.49-8.26,27,4,43.31-.23,1.33.73,10,1.45,14.92-5.3,8.32-1.87,38.76,22.12,36.59,2.25,2,6.76,1.31,8.57.62,4.15,2.57,16.93,3.78,27.49-2.85,8.18-5.14,7.21-14.68,14.64-19.41,5.58-3.56,48.11-13,55.46-50,6.51-32.78-24.59-89.82-34.72-94.52-12.3-2.53-31.71-8.54-47.62-6C94.58,33.08,70.3,44.2,64.79,50.17Z"/><path class="cls-11" d="M118.83,163.05c-2.11,25.69-18.2,34.28-26,34.25C86.93,197.28,82.36,192,81,184c-3.25,3.46-.79,10.05-3.19,12.68-1.63,1.81-5.48,1.93-10.47-2.1,3.84,5.41,9.92,9.12,18.85,8.31,2.25,2,6.76,1.31,8.57.62,19.86-3.54,23.86-21.66,27.5-40.86A11.63,11.63,0,0,0,118.83,163.05Z"/><path class="cls-11" d="M70.38,138.58c-2.89,3.62-10.78,8.88-15.5-7.6a38.88,38.88,0,0,0,7.57,20.17C68.64,146.22,71.31,146.92,70.38,138.58Z"/><path class="cls-11" d="M157.61,36.67c-1.32-.27-2.71-.58-4.18-.91,15.78,30.82,39,65.08,25.64,99.77-8.68,22.49-33,33.08-42.15,29.19-.8,6.91-10.37,16.31-16.45,8.7,0,0-15.37,31.61-25.22,30.22,7.82,4,20.43,1.11,27-3,8.18-5.14,7.21-14.68,14.64-19.41,5.58-3.56,48.1-13,55.46-50C198.84,98.41,167.73,41.37,157.61,36.67Z"/><path class="cls-4" d="M104.71,205.9c-4.07,0-7.88-.77-10-2a13.5,13.5,0,0,1-4.17.67,7.07,7.07,0,0,1-4.48-1.32c-.77.07-1.53.1-2.27.1h0c-10.13,0-15.55-6-18.32-11.08-4.84-8.81-4.92-21-1.79-26.06-.64-4.36-1.62-12.87-1.44-14.74-12.52-16.83-7-35.86-4-43.41-9.55-23-3.91-47.08,6.28-58.12,5.55-6,30-17.21,45.42-19.64a52.45,52.45,0,0,1,8.28-.61c10.82,0,22.42,2.71,31.75,4.9,2.77.64,5.38,1.26,7.72,1.74l.08,0c9.86,4.58,41.6,61.3,34.92,94.92-6.15,31-36.91,42.83-50.05,47.9a41.81,41.81,0,0,0-5.57,2.37c-3.53,2.25-5.1,5.59-6.77,9.13-1.76,3.73-3.58,7.59-7.87,10.28A33.83,33.83,0,0,1,104.71,205.9Zm-9.93-2.81.15.09c2,1.24,5.74,2,9.78,2A33.16,33.16,0,0,0,122,200.33c4.1-2.58,5.88-6.34,7.6-10,1.64-3.47,3.33-7.06,7-9.43a42.45,42.45,0,0,1,5.7-2.44c13-5,43.53-16.78,49.6-47.36,3.8-19.12-5.32-44.28-11.09-57.57C172.27,53.74,162.06,39.19,157.49,37c-2.34-.48-4.94-1.09-7.7-1.74-9.28-2.17-20.84-4.88-31.58-4.88A52.26,52.26,0,0,0,110,31C94.73,33.42,70.53,44.47,65,50.42,55,61.32,49.44,85.17,59,107.91l0,.13,0,.14c-3,7.36-8.55,26.29,3.93,43l.1.13,0,.15c-.23,1.26.71,9.86,1.45,14.8l0,.14-.08.11c-3.1,4.86-3,16.78,1.74,25.44,2.68,4.89,7.92,10.71,17.69,10.71h0c.77,0,1.56,0,2.36-.11l.16,0,.12.11a6.26,6.26,0,0,0,4.11,1.24,12.27,12.27,0,0,0,4.08-.69Z"/><path class="cls-8" d="M160.26,27.39c1-5.85-2.41-15.8-14.59-9.41.48-13.11-14.08-16.36-19.29-7.59-4-7.78-14.86-9.13-19.38.09-7.26-9.86-24.66-2-23.69,8.59C73.09,18,66.79,25.7,73.91,32.45c-7,.09-11.43,10.13-1.54,14-5.91,4.7-5.07,15.91,6.15,15.67-8.44,12.78,14.34,22.18,13.26,4.46,3.5,5.55,18.32-2.89,11.33-9.88,10.13,2.92,17.37-6.88,15.47-14.83,6.84,4.1,14.91,1.93,18.17-4,2.53,4,7.59,6.51,17.54.9C168.76,54.06,177.62,28.93,160.26,27.39Z"/><path class="cls-11" d="M159.66,27.7c10.41,4.12,6.52,18.13-4.56,6.24-6.51,6.51-13.17,4.66-18.47-2.57-5.19,9.64-11.94,8.82-21,4.34,1.07,13.44-4.21,21.16-17,17.06,4.82,7.57-4.08,10.89-8.33,7.39-2.26,10.94-11,4.71-7.69-2.17-6.09.36-12.3-4.47-6.42-13.15-5.34-1.54-11.5-8-1.29-12.17C64.41,33,64.83,43.5,72.37,46.44c-5.91,4.7-5.07,15.91,6.15,15.67-8.44,12.78,14.34,22.18,13.26,4.46,3.5,5.55,18.32-2.89,11.33-9.88,10.13,2.92,17.37-6.88,15.47-14.83,6.84,4.1,14.91,1.93,18.17-4,2.53,4,7.59,6.51,17.54.9C168.12,53.39,178.15,28.34,159.66,27.7Z"/><path class="cls-9" d="M87.2,24.86c.72-4.34,3.86-20,20.49-9.65,4.07-7.68,10.54-11,18.44,1.09,8.26-10.26,15.05-6.09,17,6.93,6.3-4,13.53-3.08,17.1,4.7,1.37-8.62-4.76-15.08-14.54-9.95.48-13.11-14.08-16.36-19.29-7.59-4-7.78-14.86-9.13-19.38.09-7.26-9.86-24.66-2-23.69,8.59-9.16-1-15.17,5.13-11.18,11.27,0,.18,1,2.64,3.12,2.64C68.09,23.59,79,19.69,87.2,24.86Z"/><path class="cls-10" d="M85.29,76.7a9.4,9.4,0,0,1-8-4.92c-1.53-2.84-1.32-6.12.57-9.31-4.5-.08-7.77-2.11-9-5.6a9.93,9.93,0,0,1,2.81-10.32c-4-1.74-5.93-4.75-5.31-8.16a7.85,7.85,0,0,1,6.72-6.25c-2.38-2.54-3.17-5.42-2.14-8,1.48-3.7,6.32-5.95,12-5.48A11,11,0,0,1,86,10.81,16.43,16.43,0,0,1,97.77,5.6a11.53,11.53,0,0,1,9.17,4.21c2.1-3.9,5.54-6.12,9.52-6.12a11.56,11.56,0,0,1,9.94,6A10.27,10.27,0,0,1,135,5.12a10.83,10.83,0,0,1,7.77,3.3,12.36,12.36,0,0,1,3.3,9c5.39-2.67,9.71-2.39,12.35.72,2.08,2.45,2.64,6.19,2.28,9,7.29.8,9.69,5.6,9.51,9.52-.16,3.62-2.67,7.46-7,7.46h0c-2.82,0-5.91-1.66-9-4.82-8,4.45-14,4.16-17.45-.67A12.59,12.59,0,0,1,126,44.33a14.66,14.66,0,0,1-6.9-1.77,13.23,13.23,0,0,1-2.8,10.25,12.05,12.05,0,0,1-12.15,4.5,5.28,5.28,0,0,1,.74,5.46c-1.33,3.23-5.62,6-9.36,6a4.84,4.84,0,0,1-3.34-1.13c0,3.11-.74,5.57-2.23,7.16A6.24,6.24,0,0,1,85.29,76.7Zm-6.09-15-.38.58c-2.06,3.12-2.38,6.37-.89,9.13A8.76,8.76,0,0,0,85.29,76a5.51,5.51,0,0,0,4.13-1.72c1.52-1.61,2.21-4.26,2-7.67l-.09-1.41.75,1.2A3.9,3.9,0,0,0,95.52,68c3.42,0,7.48-2.58,8.7-5.51a4.87,4.87,0,0,0-1.36-5.56l-1-1,1.35.39a11.44,11.44,0,0,0,12.52-4,12.57,12.57,0,0,0,2.5-10.42l-.2-.84.73.45A14.18,14.18,0,0,0,126,43.6a11.79,11.79,0,0,0,10.44-5.9l.3-.53.32.51c3.2,5,9.07,5.29,17.06.79l.25-.14.19.2c3,3.14,6,4.8,8.63,4.8h0c3.88,0,6.13-3.49,6.28-6.77.16-3.67-2.16-8.18-9.23-8.81l-.39,0,.06-.38c.44-2.63,0-6.36-2.06-8.75-2.5-2.95-6.7-3.06-12-.28l-.55.29,0-.62a12,12,0,0,0-3.09-9A10.1,10.1,0,0,0,135,5.84a9.46,9.46,0,0,0-8.28,4.73l-.33.56-.3-.58a10.93,10.93,0,0,0-9.6-6.14c-3.87,0-7.2,2.27-9.14,6.23l-.26.53-.35-.48a10.7,10.7,0,0,0-8.94-4.36,15.65,15.65,0,0,0-11.23,5A10.07,10.07,0,0,0,83.67,19l0,.44-.44-.05a17,17,0,0,0-1.87-.1c-4.71,0-8.54,2-9.78,5.08-1,2.52-.1,5.28,2.53,7.78l.65.61h-.89a7.12,7.12,0,0,0-6.83,5.71c-.58,3.19,1.45,6,5.42,7.58l.59.23-.5.39a9.23,9.23,0,0,0-3,9.91c1.17,3.34,4.42,5.22,9,5.12Z"/><path class="cls-11" d="M87.68,31.61S93.5,16,107,23.29c1.3-4.13,11.33-7.93,16.49-2.32,5.42-4,14.4-2.75,16.45,5.6-5.15-5.24-10.13-5.26-16,1.13-2.62-5.19-11.3-8.09-16.37,2.34C101.48,22.78,93.26,23.68,87.68,31.61Z"/><path class="cls-2" d="M201.17,54.81c-7.95-5.12-34-13.68-39.28-9.34s11.39,42,24.41,50.64,45.18,19,49.73,12c1.75-2.71-7.05-5.84-12.84-19.41S216.66,64.79,201.17,54.81Z"/><path class="cls-12" d="M217.75,75.08a44.61,44.61,0,0,0-16.58-20.27c-7.95-5.12-34-13.68-39.28-9.34l-.45.9c8.39.32,25.18,3.67,40.13,13.31A80.57,80.57,0,0,1,217.75,75.08Z"/><path class="cls-11" d="M223.19,88.69c-2.23-5.23-3.72-10-5.59-14.43,2.84,16.56,7.15,24.32,10.7,29.75-14.47,2.76-30.22-4.72-40.32-11.3-11.62-7.56-15-16-21.1-24.33C172,79.64,179.64,91.67,186.3,96.11c13,8.68,45.18,19,49.73,12C237.78,105.39,229,102.26,223.19,88.69Z"/><path class="cls-4" d="M229,110.79h0c-11.81,0-33.12-7.87-42.89-14.38-11.26-7.51-25-36.22-25.55-47-.11-2.09.26-3.5,1.11-4.2,1-.84,2.79-1.27,5.26-1.27,9.76,0,28.1,6.5,34.44,10.59,12.41,8,15.5,16.37,19.07,26.07.94,2.55,1.91,5.19,3.1,8a44.86,44.86,0,0,0,10.19,14.72c2.2,2.25,3.53,3.61,2.62,5C235.27,110,232.79,110.79,229,110.79ZM166.92,44.65c-2.3,0-3.92.37-4.8,1.1-.65.54-.94,1.78-.85,3.6C161.83,60,175.38,88.4,186.5,95.81c9.69,6.46,30.8,14.25,42.49,14.25,3.54,0,5.81-.72,6.74-2.16.57-.89-.42-2-2.53-4.13a45.45,45.45,0,0,1-10.34-14.93c-1.19-2.8-2.17-5.45-3.11-8-3.67-10-6.58-17.85-18.78-25.71C194.7,51.08,176.57,44.65,166.92,44.65Z"/><path class="cls-13" d="M197.66,80.28c-12.39-8.11-16.78-10.55-22.44-17.62C175,81.19,195.16,101,224,101.75,220.6,97.1,212.41,89.94,197.66,80.28Z"/><path class="cls-14" d="M197.66,80.28C186.11,72.72,180.55,69,175.4,62.94c7.58,17.8,29.47,21.78,42,35.7-4.59,0-8.67-.5-13.1-.65A60.33,60.33,0,0,0,224,101.75C220.6,97.1,212.41,89.94,197.66,80.28Z"/><path class="cls-4" d="M224.75,102.13l-.74,0c-29.69-.74-49.38-21-49.15-39.45l0-1,.63.79c5,6.24,9,8.81,18.51,15L197.86,80C214.75,91,221.57,97.8,224.31,101.53ZM175.59,63.69c.25,8.81,5.07,17.84,13.35,24.92,9.08,7.76,21.25,12.27,34.33,12.75-3-3.79-9.88-10.35-25.81-20.78l-3.83-2.5C184.41,72.09,180.36,69.45,175.59,63.69Z"/><path class="cls-4" d="M225,104c-2.51-5.07-12.55-13.61-27.55-23.43l-3.85-2.51c-10.73-7-14.54-9.46-20.68-17.82a79,79,0,0,1-4.05-7.14C178.21,67.19,180.93,69,194,77.46L197.86,80c13.58,8.9,22.88,16.52,26.63,21.8A5.33,5.33,0,0,1,225,104Z"/><path class="cls-15" d="M117.94,61c6.75-3.2,25.5-2,30.74,14.52-8.92-7-24.32-11.74-31.19-5.17C116.89,68.21,115.88,62,117.94,61Z"/><path class="cls-16" d="M116.71,65.28a15.12,15.12,0,0,0,.78,5.1c6.44-6.15,21.76-1.6,30.83,4.7C142,65.76,128.43,60.91,116.71,65.28Z"/><path class="cls-17" d="M149.39,76.57l-.93-.73c-6.23-4.93-15-8.24-21.71-8.24-3.86,0-6.9,1-9,3.05l-.44.41-.16-.58c-.49-1.77-1.82-8.61.65-9.78a19.11,19.11,0,0,1,7.8-1.45c8.84,0,19.65,4.26,23.44,16.19Zm-22.64-9.7c6.56,0,14.94,3,21.2,7.67C144,63.83,133.89,60,125.59,60a18.46,18.46,0,0,0-7.49,1.37c-1.51.72-1.1,5.47-.41,8.37C119.91,67.83,123,66.87,126.75,66.87Z"/><path class="cls-15" d="M73.39,66.06c-5.78-.18-16.19,1.77-18.7,15.54,6.05-6.41,12.76-11,19.45-7.13C74.4,72.67,75.12,66.12,73.39,66.06Z"/><path class="cls-16" d="M54.88,81.39c6-6.29,12.64-10.72,19.26-6.92a37,37,0,0,0,.37-4.8C64.65,68.57,58.17,73.55,54.88,81.39Z"/><path class="cls-17" d="M54.12,82.73l.21-1.2C57,66.79,68.56,65.55,73.4,65.7h.09a1,1,0,0,1,.73.44c1.23,1.61.38,7.69.28,8.37l-.08.53L74,74.78a10.17,10.17,0,0,0-3.79-1.29C65.68,73,60.85,75.61,55,81.84ZM73.4,66.43c-4.54-.15-15.13,1-18.11,14,5.69-5.77,10.46-8.22,15-7.68a10.64,10.64,0,0,1,3.59,1.13c.34-2.59.54-6.34-.2-7.31C73.54,66.46,73.46,66.43,73.4,66.43Z"/><path class="cls-4" d="M133.05,185.52l-.57-.45c1.78-2.27,5.74-13.62,5.78-13.74a19.05,19.05,0,0,1-1.1,5.13C135.85,179.92,134.12,184.16,133.05,185.52Z"/><path class="cls-4" d="M125.78,164.72c-2.84-2.42-7.3-1.62-7.35-1.61a3.54,3.54,0,0,1,2.34-.86,12.21,12.21,0,0,1,2.81.47A5.19,5.19,0,0,1,125.78,164.72Z"/><path class="cls-4" d="M94.63,203.9l-.07-.72c24.22-2.55,26.93-40.21,27-40.59l.73,0C122.21,163,119.45,201.28,94.63,203.9Z"/><path class="cls-4" d="M85.87,203.06a32.92,32.92,0,0,1-5.43-16.43,5,5,0,0,1,.84-3.15c0,.09-1.41,8.91,5.2,19.19Z"/><path class="cls-11" d="M82.19,45.65s-3.7-8.07,8.32-5.37c.55-7.71,10.31-8.67,14.83-1.8-6.83-4.45-12.17.66-13.62,4.34C88.46,41.37,83.64,40.53,82.19,45.65Z"/><path class="cls-10" d="M374.39,256.29c0-.11-1-2.65-.52-7.67-6.22,2.15-10.31-.21-12.09-3.22a7.27,7.27,0,0,1,.22-8.16c-5.54.2-8.31-2.84-9.08-5.91a7.51,7.51,0,0,1,2.38-7.77h-.17c-5.62,0-7.36-2.9-7.9-4.75a9.31,9.31,0,0,1,2.3-8.71c-5.28-.77-7.26-3.09-8-4.95a6.63,6.63,0,0,1-.38-3.18,8,8,0,0,1,2.8-4.68c-1.63,1.82-2.75,5-1.75,7.6s3.86,4.15,8.32,4.61l1.2.13-1.07.55c-2,1-3.69,5.21-2.75,8.43.64,2.2,2.7,4.71,8.82,4.15l2.4-.22-2.23.92c-2.65,1.09-4.1,4.47-3.29,7.7,1,3.81,4.42,5.78,9.27,5.29l1.16-.12-.89.76c-2.07,1.76-2.4,5.17-.76,7.95.82,1.37,4.07,5.63,11.76,2.71l.55-.21-.06.58c-.57,5.21.41,7.88.42,7.91Z"/><path class="cls-10" d="M387.7,151.86a5.75,5.75,0,0,0,2.18-6.28c-.73-2.45-3-4-6.12-4.2l-.91,0,.7-.58c1.56-1.29,3-5.21,1.76-8-1.09-2.48-4.05-3.46-8.53-2.84l-.91.12.58-.71c2.32-2.87,3.09-6.45,1.87-8.71-1.05-1.94-3.39-2.78-6.77-2.44l-.07-.71c4.66-.48,6.64,1.26,7.47,2.81,1.28,2.36.7,5.83-1.42,8.82,5.49-.53,7.62,1.51,8.44,3.37,1.24,2.82.07,6.49-1.4,8.26,3,.4,5.24,2.09,6,4.64a6,6,0,0,1,.26,1.73C390.83,150.17,387.7,151.86,387.7,151.86Z"/><path class="cls-10" d="M328.37,148.39c1.42-2.64,1.62-6.74-.52-9-1.37-1.48-4.21-2.71-9.93-.16l-.76.35.27-.8a9.1,9.1,0,0,0-2.31-9.86,9.22,9.22,0,0,0-10.25-1.45l-.29-.66a10,10,0,0,1,11,1.58,9.76,9.76,0,0,1,2.74,9.87c5.63-2.3,8.56-1,10,.64a7.13,7.13,0,0,1,1.75,4.34C330.33,145.7,328.37,148.39,328.37,148.39Z"/><path class="cls-10" d="M272.27,173.42c2.1-.92,5.08-4.9,4.78-8.8-.23-3.1-2.55-5.32-6.69-6.43l-.67-.18.53-.44a6.86,6.86,0,0,0,2.14-7.89c-1.3-2.83-4.76-4-9.5-3.24l-1,.17.69-.76c2.18-2.43,2.25-6.5.15-9.67-2.33-3.52-6.3-4.75-10.62-3.27l-.52.18.05-.55c.31-3.86-.25-5.58-2.17-6.57l.34-.64c2.1,1.08,2.82,2.93,2.59,6.73a9.38,9.38,0,0,1,10.93,3.72,8.86,8.86,0,0,1,.36,9.82c6.52-.77,8.72,2.35,9.38,3.78a7.5,7.5,0,0,1-1.84,8.29c5.12,1.57,6.42,4.59,6.6,6.89a9.84,9.84,0,0,1-.55,3.72A9,9,0,0,1,272.27,173.42Z"/><path class="cls-10" d="M219.53,148c0-.08,4.31-7.67,1.74-13.2-1.32-2.82-4.2-4.66-8.59-5.46l-.67-.12.48-.49a5.47,5.47,0,0,0,1.58-4.55,9.59,9.59,0,0,0-3.72-6.42l.41-.59a10.38,10.38,0,0,1,4,6.94,6.24,6.24,0,0,1-1.35,4.64c4.28.91,7.12,2.85,8.49,5.75C225,140.93,219.53,148,219.53,148Z"/><path d="M418.3,394.58l-.71-.15c.22-1.05,2.39-4.33,4.5-7.36a38.56,38.56,0,0,1,4.72-5.3C424.55,384.81,418.62,393,418.3,394.58Z"/><path d="M323.52,370.21l-.64-.33c.36-.7,3.08-4.91,5.66-8.89a62.34,62.34,0,0,1,5.45-7.05C333.89,354.09,324.2,368.91,323.52,370.21Z"/><path d="M211.91,401.85l-.61-.39c.32-.51,2.1-3.42,3.86-6.31a44,44,0,0,1,4.39-5.85C219.27,389.77,212.58,400.8,211.91,401.85Z"/><path d="M177.9,389.32l-.59-.42c.46-.65,2.26-2.83,4.07-5a36.54,36.54,0,0,1,4.83-4.63C186.14,379.37,178.87,388,177.9,389.32Z"/></svg>