<svg id="Layer_1" data-name="Layer 1" xmlns="http://www.w3.org/2000/svg" viewBox="0 0 256 256"><defs><style>.cls-1{opacity:0.3;}.cls-2{fill:#71697e;}.cls-3{fill:#fcfcfc;opacity:0.79;}.cls-4{fill:#5e576d;}.cls-5{fill:#2b2735;}.cls-6{fill:#ededed;}.cls-7{fill:#d2d1d3;}.cls-8{fill:#3e3949;}.cls-12,.cls-9{fill:#fff;}.cls-10{fill:#e8e8e8;}.cls-11{fill:#323232;}.cls-12{opacity:0.71;}.cls-13{fill:#330202;}.cls-14{fill:#f99595;}.cls-15{fill:#ed7e7e;}.cls-16{fill:#d65050;}.cls-17{fill:#5b5b5b;}.cls-18{fill:#333;}.cls-19{fill:#212020;}.cls-20{fill:#d87171;}</style></defs><ellipse class="cls-1" cx="128" cy="189.92" rx="112.48" ry="25.7" transform="translate(-13.79 10.06) rotate(-4.27)"/><path class="cls-2" d="M52.08,157.56s-2.93,17-14.07,27.2c-12.7-1.2-20.51.78-21.1,5.26s11.16,7.06,24.81,7,20-4,25.92-12.39S52.08,157.56,52.08,157.56Z"/><path class="cls-3" d="M33.91,188.21c10.14-4.6,14.91-16.5,20.28-28.71-2.26-2.25-2.11-1.94-2.11-1.94s-2.93,17-14.07,27.2c-9.63-.91-16.45,0-19.44,2.46,6.16-2.88,13.2-1.94,18.86-1.9A23,23,0,0,1,33.91,188.21Z"/><path class="cls-4" d="M60.22,167.7c-3.25,6.77-7.52,12.42-11.91,19-7.14,10.18-34.14,7.25-29.16.11A4.56,4.56,0,0,0,16.91,190c-.58,4.48,11.16,7.06,24.81,7s20-4,25.92-12.39C70.45,180.66,64.55,173.24,60.22,167.7Z"/><path class="cls-5" d="M36.87,197.19c-9.71-.42-17.09-2.23-19.41-4.86a2.87,2.87,0,0,1-.8-2.34c.6-4.63,8.55-6.68,21.26-5.49,10.88-10,13.88-26.82,13.91-27l.07-.45.35.3c.88.77,21.57,19,15.6,27.43-5.56,7.88-11.62,12.45-26.13,12.5C40.05,197.29,38.43,197.26,36.87,197.19ZM34,184.74c-10.1-.45-16.29,1.47-16.79,5.31a2.39,2.39,0,0,0,.68,1.94c2.6,2.95,12,4.82,23.87,4.78,14.29,0,20.25-4.54,25.71-12.28,5.3-7.52-12.49-24-15.18-26.44-.57,2.77-4,17.68-14.07,26.9l-.08.08H38C36.58,184.89,35.24,184.79,34,184.74Z"/><path class="cls-5" d="M33.91,188.21a39.19,39.19,0,0,0,4.43-4.11l.37.36A28.48,28.48,0,0,1,33.91,188.21Z"/><path class="cls-2" d="M86.34,110.33s36.33,0,51.12,19c20.27,26,33.43,36.66,43.38,36.93,4.34-5.14,17-12.65,25.7-14.33s13.17,1.09,12.15,4.82-13.62,6.19-13.59,9.28c6.63,1.66,30.18.61,30.29,9.31.12,9.47-36.35-1.25-49.24,6.78s-51.22,24.71-73.24,21.52-69.57-11.2-72.09-65.41c-.35-15.47,13-43.74,9.29-59.35S82.87,72.1,82.87,72.1Z"/><path class="cls-3" d="M177.71,165.88c-9.56-2.17-22-13.1-40.25-36.52-13.63-17.54-45.55-18.91-50.47-19a9.22,9.22,0,0,0-.56,3.9c14.58-3.48,39,2.57,48.82,14.59,8.52,10.47,20.66,24.62,31.79,32.89a29.62,29.62,0,0,0,10.77,5c6.39,1.14,12.51.64,14.78-1.29C188.6,167,183.48,167,177.71,165.88Z"/><path class="cls-3" d="M206.54,152c-8.35,1.62-20.95,9.22-25.7,14.33,0,0,.62,0,1.31,0,13.19-12.61,30.72-15.94,34.59-13.74C214.7,151.44,211.23,151,206.54,152Z"/><path class="cls-3" d="M206.69,167.07c9.82,1.16,22.34,1.54,27.39,5.19-5.06-5.35-23.28-4.77-29-6.2-2.35-.57-4.29-1.56-5.5-3.78C200.55,165.64,203.27,166.68,206.69,167.07Z"/><path class="cls-4" d="M233,171.37c5.51,8.35-16.18,5.48-24.12,4.59-9.23-1-17.39-.86-25.35,2.3C141.18,193.4,76.46,200.87,55.32,154.09c-4.18-9-4.67-19.94-2.54-30.83,1-5.07,3.4-16.78,11.77-24C72,92.89,80.18,92.33,82.19,81.6c-10.51,3.49-20.27,11.26-31.84,9.62-1.9,15.5-9.8,35.09-9.53,47,2.52,54.21,50.08,62.21,72.09,65.41s60.35-13.5,73.24-21.52,49.36,2.69,49.24-6.78A4.92,4.92,0,0,0,233,171.37Z"/><path class="cls-4" d="M201.41,164.33a5.86,5.86,0,0,0,3.69,1.73,2,2,0,0,1,.53-1.13c2.4-2.59,12.16-4.88,13.06-8.15.54-2-.46-3.66-2.79-4.58,4.75,3.85-3.28,7.21-6.16,8C206.24,161.09,201.71,163,201.41,164.33Z"/><path class="cls-6" d="M109.85,187.24c-14.52-9.4-19.62-14.62-23.09-33.32-3.11-11.46-4.07-24.9-14-32.55-6-4.38-15.27-4.28-20.59-.39-16.69,11-8.31,37.48-5,44.41,14.12,30.06,48.18,35.72,65.82,38.28,6.08.88,13.39.25,21.08-1.3C126,202.07,117,192,109.85,187.24Z"/><path class="cls-7" d="M51.42,159.38a40.3,40.3,0,0,1,1.91-39.19,9.82,9.82,0,0,0-1.19.79c-16.69,11-8.31,37.48-5,44.41,14.12,30.06,48.18,35.72,65.82,38.28,6.08.88,13.39.25,21.08-1.3-6.84-.26-14.46-7.75-21-12.86C81,195.82,62.94,182.72,51.42,159.38Z"/><path class="cls-5" d="M116.8,204.28a37.53,37.53,0,0,1-3.92-.36c-9.74-1.41-27.87-4-43.46-13.61-18.06-11.08-27.77-28.59-28.86-52-.15-6.69,2.21-15.62,4.7-25.08C48.55,100.71,52,87.81,49.86,79c-.63-2.67-.15-4.83,1.44-6.41,6.68-6.65,30.61-1,31.63-.71l.18,0,3.47,38.19c3.16,0,37,1,51.08,19.12,19.44,25,32.7,36.37,42.93,36.82h.13c4.37-5.07,17-12.63,25.77-14.33,5.36-1,9.71-.43,11.62,1.63a3.58,3.58,0,0,1,.83,3.52c-.55,2-4.07,3.58-7.46,5.1-2.87,1.29-5.84,2.62-6.1,3.91a67.3,67.3,0,0,0,7.7.92c9.49.81,22.48,1.93,22.57,8.59a3.07,3.07,0,0,1-1,2.35c-2.67,2.59-10.61,2.23-19.8,1.8-10.48-.48-22.37-1-28.59,2.84C174.63,189.62,139.54,205.28,116.8,204.28ZM66,70c-5.85-.26-11.61.31-14.3,3-1.45,1.44-1.88,3.43-1.3,5.92,2.13,9-1.29,21.93-4.6,34.47-2.49,9.42-4.84,18.33-4.68,24.94C43.64,193.35,94,200.66,113,203.41c22.26,3.23,60.76-13.82,73.07-21.48,6.36-4,18.33-3.41,28.89-2.92,8.69.4,16.9.78,19.42-1.66a2.56,2.56,0,0,0,.8-2c-.08-6.19-12.8-7.29-22.09-8.09a61.77,61.77,0,0,1-8-1l-.19-.05v-.2c0-1.69,3-3,6.41-4.58,3.14-1.4,6.69-3,7.18-4.77a3.07,3.07,0,0,0-.71-3c-1.79-1.93-5.95-2.48-11.15-1.47-8.69,1.69-21.31,9.24-25.55,14.24l-.08.1h-.38c-10.39-.45-23.77-11.89-43.31-37-14.55-18.7-50.56-18.92-50.92-18.92h-.23l0-.23-3.46-38A101.19,101.19,0,0,0,66,70Z"/><path class="cls-5" d="M183.79,166.78a53,53,0,0,1-5.4-.5l.08-.5c1.67.27,10.86,1.3,14.3-.48,0,0-2,1.51-6.2,1.52C185.63,166.84,184.69,166.82,183.79,166.78Z"/><path class="cls-5" d="M206,166.49a9.39,9.39,0,0,1-2.92-.74,6.64,6.64,0,0,1-3.46-3.47A8.84,8.84,0,0,0,206,166Z"/><path class="cls-2" d="M107.3,84.76c-.71-31-12.58-46.66-34.77-45.31-21.35,1.3-24.35,22.8-24.35,22.8L44,64.94c-4,21.21,1.44,30.15,13.71,30.27l29.56,22.24,20.78,2.2C105.9,117.15,107.77,105.36,107.3,84.76Z"/><path class="cls-3" d="M107.3,84.76c-.71-31-12.58-46.66-34.77-45.31a24.39,24.39,0,0,0-16.4,7.07c9.87-9.35,33.78-8.8,43,7.19,14,21.63,2.89,61.39,8.89,65.94C105.37,117.17,107.77,105.36,107.3,84.76Z"/><path class="cls-4" d="M78.56,82.5c-9.85,9.33-18.62,11.69-27.68,9-4.12-1.32-8-6.14-7.31-18.73-.15-.59-.41-.81-.47-1.17a21.28,21.28,0,0,0-.43,5.59c0,12.44,5.45,17.89,15,18l6,4.79C71.46,95.13,74,92.75,78.56,82.5Z"/><path class="cls-8" d="M106.59,113.77c0-2,.09-4.54.19-7.49.21-5.68.46-12.76.26-21.51-.41-18.09-4.62-30.94-12.52-38.2-5.55-5.11-12.94-7.41-22-6.87C51.65,41,48.47,62.07,48.44,62.29l0,.11L44.2,65.1c-2.28,12.1-1.48,20.62,2.36,25.3,2.44,3,6.17,4.5,11.12,4.55a10.6,10.6,0,0,1-4.13.08,12.66,12.66,0,0,1-7.39-4.3c-3.95-4.82-4.78-13.52-2.45-25.83l0-.11L48,62.1c.29-1.74,4.08-21.66,24.57-22.91,9.17-.56,16.69,1.8,22.35,7,8,7.36,12.27,20.33,12.69,38.56.2,8.77-.06,15.86-.26,21.55-.26,7.22-.43,12,.72,13.35C108,119.65,106.67,119.09,106.59,113.77Z"/><path class="cls-9" d="M65.22,55a5.06,5.06,0,1,1-4.81-5.6A5.23,5.23,0,0,1,65.22,55Z"/><path class="cls-10" d="M56.32,51.32a5.58,5.58,0,0,0-1.19,3.22,5.22,5.22,0,0,0,4.81,5.6,5,5,0,0,0,4.47-2.48C60.52,57.16,56.8,55.32,56.32,51.32Z"/><path class="cls-11" d="M62.58,55.72a2.73,2.73,0,1,1-2.59-3A2.81,2.81,0,0,1,62.58,55.72Z"/><path class="cls-12" d="M62.12,54a.83.83,0,1,1-1.66-.07.83.83,0,0,1,1.66.07Z"/><path class="cls-12" d="M59,56.62a.39.39,0,0,1-.78,0,.39.39,0,1,1,.78,0Z"/><path class="cls-2" d="M64.59,47.83l4.59,3.58-1.74,9.32-9.16-2.54s5.07-3,6.33-5.31S64.59,47.83,64.59,47.83Z"/><path class="cls-5" d="M58.41,58.41,58.14,58s5-3,6.24-5.21a6.78,6.78,0,0,0,.21-4.93A5.21,5.21,0,0,1,64.83,53C63.55,55.3,58.62,58.28,58.41,58.41Z"/><path class="cls-5" d="M100.78,154.31a8.44,8.44,0,0,1-3.09-3.08,4.45,4.45,0,0,1-.28-3.94c0,.15-.78,3.88,3.64,6.58Z"/><path class="cls-2" d="M100,148.52s.71,9.28-4,21.78-9.06,30.34,4.45,39.52,37,6.6,46.78-5.51c2-1.8-12.77-10.35-26.5-10.43-10.15-7.49-4.43-39.65-11.07-44.75S100,148.52,100,148.52Z"/><path class="cls-3" d="M109.66,149.13c6,8.21-.39,35.85,9.47,44.74a7.67,7.67,0,0,1,1.23,0,2.87,2.87,0,0,0-.35-.64C110.85,184.84,116.14,154.1,109.66,149.13Z"/><path class="cls-3" d="M121.13,193.89a18.84,18.84,0,0,0-2.92,0c-4.51.57-8,.81-12.27,3.32a45,45,0,0,1,38.31,4.9c.62.4,1.19,1.57-1.79,4.25a20.37,20.37,0,0,1-.35,2.62,24.69,24.69,0,0,0,5.12-4.69C149.18,202.53,134.75,194.14,121.13,193.89Z"/><path class="cls-4" d="M145.59,201.73c2.82,7.1-32.69,15.13-44,2.81-7.21-7.82-5.57-17.81-3.66-26,3.53-9.84,6.75-24.09,2.08-30,0,0,.71,9.28-4,21.78s-9.06,30.34,4.45,39.52,37,6.6,46.78-5.51C147.75,203.83,147.09,202.88,145.59,201.73Z"/><path class="cls-5" d="M118.31,215.55a34.75,34.75,0,0,1-18-5.52c-10.43-7.08-11.91-20.1-4.55-39.82,4.6-12.31,4.2-21.6,4.2-21.69a11.69,11.69,0,0,1,.32,4.55,67.59,67.59,0,0,1-4,17.32c-7.27,19.46-5.84,32.29,4.36,39.22,6.41,4.35,15.37,6.24,24.6,5.18s17.22-4.94,21.83-10.64c.07-.07.18-.17.07-.46-1-2.58-14-9.48-26.38-9.55h-.08l-.07,0c-5.7-4.21-6.42-16.12-7.06-26.62-.5-8.3-1-16.13-3.85-18.34,0,0,1.74.79,2.65,3.69,1,3.59,1.37,8.85,1.71,14.62.63,10.35,1.34,22.07,6.79,26.18,12.59.12,25.75,7.22,26.77,9.89a.82.82,0,0,1-.18,1c-4.67,5.77-12.75,9.72-22.14,10.8A44,44,0,0,1,118.31,215.55Z"/><path class="cls-5" d="M105.94,197.23a18.28,18.28,0,0,1,6.63-2.73,37.49,37.49,0,0,1,10.41-.79l0,.51A35.56,35.56,0,0,0,105.94,197.23Z"/><path class="cls-13" d="M44.86,69.4s-4.68,18.8,9.21,19.15S78.62,72.07,78.62,72.07L63,67.88Z"/><path class="cls-14" d="M54.6,83.4c-3.8-4.05-7.15-1.39-8.81.56,1.42,2.57,4,4.48,8.28,4.59A20.13,20.13,0,0,0,63.93,86C61.29,82.2,57.14,81.54,54.6,83.4Z"/><path class="cls-15" d="M54.6,83.4c-3.8-4.05-7.15-1.39-8.81.56a9.45,9.45,0,0,0,.53.86c2-2.69,6.23-1.91,5.57,2,2.86-3.19,5.71-1.37,7.39,1.09A23.36,23.36,0,0,0,63.93,86C61.29,82.2,57.14,81.54,54.6,83.4Z"/><path class="cls-16" d="M53.78,88.79c-3.82-.16-6.58-1.74-8.22-4.7l-.09-.16.12-.13c1-1.24,2.74-2.73,4.81-2.78a5.77,5.77,0,0,1,4.23,2,5.76,5.76,0,0,1,4.19-.83,8.27,8.27,0,0,1,5.32,3.66l.16.24-.25.13a20.22,20.22,0,0,1-10,2.54ZM46.1,84c1.59,2.76,4.29,4.21,8,4.3a19.53,19.53,0,0,0,9.46-2.35,7.67,7.67,0,0,0-4.8-3.2,5.19,5.19,0,0,0-4,.87l-.19.13-.15-.17a5.42,5.42,0,0,0-4-2A6.37,6.37,0,0,0,46.1,84Z"/><path class="cls-16" d="M52.42,85.93a4.54,4.54,0,0,1,1.8-2.56,9.79,9.79,0,0,1,1.14-.72l.24.46A8.8,8.8,0,0,0,52.42,85.93Z"/><path class="cls-5" d="M53.78,88.79a9.37,9.37,0,0,1-7.46-3.54c-4.23-5.55-1.81-15.49-1.71-15.91l0-.18,18.39-1.54h0L79,71.92l-.18.29c-.11.17-10.9,16.94-24.78,16.59ZM45.07,69.65C44.76,71,43,80,46.73,84.94a9,9,0,0,0,7.35,3.35c12.58.32,22.62-13.83,24.13-16.06L63,68.14Z"/><path class="cls-2" d="M68.36,59.94S44,48.42,40.57,65.52c-1,7.6,5.23,9.85,9.14,7,3.07,5.34,11.35,10.25,18.11,6.94s10.73-5.81,10.73-5.81Z"/><path class="cls-3" d="M68.37,60h0S47.5,49.65,41.58,62.32C47.74,52.7,61.48,57.61,68.37,60Z"/><path class="cls-4" d="M61.85,77.53c-5.53-.45-10.3-5-12.89-7.66-4.86,3.29-9.11-1.61-8.16-5.33-.08.32-.16.64-.23,1-1,7.6,5.23,9.85,9.14,7,3.07,5.34,11.35,10.25,18.11,6.94s10.73-5.81,10.73-5.81l-.22-.29C72.63,74.87,68,77.55,61.85,77.53Z"/><path class="cls-5" d="M62.61,80.79c-5.37-.24-10.64-4-13-7.88a6.05,6.05,0,0,1-6.45.26c-2.3-1.36-3.34-4.16-2.87-7.68.78-3.92,2.72-6.68,5.75-8.23,4.91-2.5,11.65-1.38,16.48,0a22.3,22.3,0,0,1,5.82,2.66c-.14-.06-14-6.35-22.06-2.22-2.89,1.47-4.73,4.11-5.48,7.85-.44,3.29.51,5.9,2.62,7.16a5.55,5.55,0,0,0,6.11-.4l.24-.17.14.25C52.84,77.47,61,82.52,67.71,79.25s10.66-5.77,10.7-5.8l.28.44s-4.07,2.54-10.76,5.82A11,11,0,0,1,62.61,80.79Z"/><path class="cls-5" d="M50,73.46a6.82,6.82,0,0,1-1-2.83l1.49,2.57Z"/><path class="cls-17" d="M45.39,60.57c-1.79,2.3,1.47,6.9,4.51,7.45s8.23-2.16,8.77-4.46C59.42,60.42,48,57.22,45.39,60.57Z"/><path class="cls-3" d="M45.78,60.17C43,62.37,47.12,67.52,49.9,68c3,.55,8.23-2.16,8.77-4.46a1,1,0,0,0,0-.39C57.58,64.29,44.36,62.71,45.78,60.17Z"/><path class="cls-18" d="M45.78,60.17C43,62.37,47.12,67.52,49.9,68c3,.55,8.23-2.16,8.77-4.46a1,1,0,0,0,0-.39C57.85,64.74,43.8,62.77,45.78,60.17Z"/><path class="cls-19" d="M49.91,68.28h-.06A7.45,7.45,0,0,1,45,63.8a3.41,3.41,0,0,1,.24-3.39h0c1.85-2.39,7.65-1.63,11,0,2,1,3,2.12,2.75,3.24C58.34,66.09,53.06,68.81,49.91,68.28Zm-4.32-7.56a3,3,0,0,0-.16,2.89,6.9,6.9,0,0,0,4.51,4.16c2.8.49,8-2.08,8.48-4.27.2-.83-.72-1.82-2.46-2.65-3.53-1.69-8.82-2.11-10.37-.13Z"/><path class="cls-2" d="M72.73,72.75s5.93-5.42,8.67-2.5S80,79.15,80,79.15C77.42,72.33,72.73,72.75,72.73,72.75Z"/><path class="cls-5" d="M80,79.15c-2.25-6.09-7.26-6.4-7.3-6.4a6.14,6.14,0,0,1,5,1.74A6.87,6.87,0,0,1,80,79.15Z"/><path class="cls-8" d="M36.48,80a8.86,8.86,0,0,1,1.27-4.69,13.07,13.07,0,0,1,7.53-4.9c.16,0,.28.47.09.51S37.55,72.42,36.48,80Z"/><path class="cls-8" d="M31.23,70.58s1.05-2.5,4.91-3.52a17,17,0,0,1,8.88.65c.28.08.06.55-.19.48C44.75,68.16,36.14,64.89,31.23,70.58Z"/><path class="cls-8" d="M43.83,64.48c-.16-.27-4.15-6.67-12.79-4,0,0,1.36-1.13,4.71-1.13a11.25,11.25,0,0,1,8.52,4.86C44.37,64.39,43.91,64.6,43.83,64.48Z"/><path class="cls-8" d="M79.4,73.54C72.15,65.75,60.37,68,60.25,68a.3.3,0,0,1-.1-.5,25.59,25.59,0,0,1,14.23,1.77A11.91,11.91,0,0,1,79.4,73.54Z"/><path class="cls-8" d="M79.35,80.2c-6.52-10.39-19.54-8.75-19.67-8.73s-.26-.44-.07-.52,8.13-1,14.85,3.48A16.36,16.36,0,0,1,79.35,80.2Z"/><path class="cls-8" d="M68.28,87.51C67.9,79.23,58.59,74,58.49,73.93s.14-.52.25-.45a24.19,24.19,0,0,1,8.33,8.21A10.84,10.84,0,0,1,68.28,87.51Z"/><path class="cls-2" d="M98.22,57.82C100.44,60.06,111.08,60.26,111,68s-12.06,1.23-12.06,1.23S96,55.57,98.22,57.82Z"/><path class="cls-3" d="M99.08,58.51c1.24,1.77,6,2.52,8.81,4.47a6.12,6.12,0,0,1,1.61,8.33A8.27,8.27,0,0,0,111,68C111.07,61,102.39,60.26,99.08,58.51Z"/><path class="cls-5" d="M106.61,72.09a14.76,14.76,0,0,1-3.51-.65,13.41,13.41,0,0,1-4.16-2.22c.08,0,7.25,3.71,10.37,1.84A3.38,3.38,0,0,0,110.74,68c.05-5.16-4.89-6.74-8.86-8-3.09-1.08-3.66-2.15-3.66-2.15A11.13,11.13,0,0,0,102,59.48c3.91,1.25,9.27,3,9.21,8.51a3.82,3.82,0,0,1-1.67,3.51A5.31,5.31,0,0,1,106.61,72.09Z"/><path class="cls-4" d="M98.09,60.72c-1.07.57-3,5.55,1.79,8.2s8.9,1.88,9.5-.38-1-5.62-6-7.08C101.29,60.68,99.17,60.16,98.09,60.72Z"/><path class="cls-15" d="M99,61.73c-1,.47-2.09,3.71,1.72,6.38s7.07,1.67,7.61-.24-1.9-4.53-4.7-5.33C101.73,61.88,99.93,61.25,99,61.73Z"/><path class="cls-20" d="M103.6,62.54c-1.87-.66-3.67-1.29-4.63-.81a2.29,2.29,0,0,0-.91,1.81c1.18-2.9,7.53.81,8.76,2.31.86,1.12.78,2.47-.51,3.75a2.65,2.65,0,0,0,2-1.73C108.83,66,106.4,63.34,103.6,62.54Z"/><ellipse class="cls-9" cx="82.28" cy="59" rx="7.01" ry="6.56" transform="translate(19.74 138.63) rotate(-87.5)"/><path class="cls-10" d="M77.42,54.32a7.25,7.25,0,0,0-1.69,4.39A6.81,6.81,0,0,0,82,66a6.44,6.44,0,0,0,5.39-2.62C82.38,64.05,77.28,59.52,77.42,54.32Z"/><path class="cls-11" d="M85.68,60.94a3.94,3.94,0,1,1-3.74-4.37A4.08,4.08,0,0,1,85.68,60.94Z"/><path class="cls-2" d="M75.54,64l5.54,3.31L89,66.53A17,17,0,0,0,75.54,64Z"/><path class="cls-5" d="M89,66.53A17.5,17.5,0,0,0,75.54,64a8.48,8.48,0,0,1,4.89-.88,18,18,0,0,1,5,1.06A8.61,8.61,0,0,1,89,66.53Z"/><path class="cls-12" d="M85.29,58.56a1.24,1.24,0,1,1-1.18-1.29A1.23,1.23,0,0,1,85.29,58.56Z"/><path class="cls-12" d="M82.12,59.43a.58.58,0,1,1-.55-.61A.59.59,0,0,1,82.12,59.43Z"/><path class="cls-8" d="M77.78,48.36s11-3.07,14.22,5.89C91.26,46.47,81.36,44.44,77.78,48.36Z"/><path class="cls-8" d="M63.53,47.15s-5.78-2.62-8.29,2C56.31,45,61.9,44.7,63.53,47.15Z"/></svg>