<svg id="Layer_1" data-name="Layer 1" xmlns="http://www.w3.org/2000/svg" viewBox="0 0 755 565"><defs><style>.cls-1{opacity:0.3;}.cls-2,.cls-8{fill:#d09a4f;}.cls-3{fill:#edc39a;}.cls-4{fill:#b77e39;}.cls-5{fill:#63330b;}.cls-6{fill:#f99a9a;}.cls-7{fill:#e57676;}.cls-8{stroke:#5b3c16;}.cls-13,.cls-8{stroke-miterlimit:10;}.cls-13,.cls-9{fill:#712703;}.cls-10{fill:#963a15;}.cls-11{fill:#471400;}.cls-12{fill:#2d0b00;}.cls-13{stroke:#491602;}.cls-14{fill:#2b0800;}.cls-15{fill:#631f00;}.cls-16{fill:#3a0202;}.cls-17{fill:#360700;}.cls-18{fill:#c23636;}</style></defs><ellipse class="cls-1" cx="258.38" cy="526.53" rx="235.22" ry="38.55"/><path class="cls-2" d="M656.63,17.13c-22-10.49-45,10.12-55.23,31.91s-19.81,22-19.81,22l30,9.79C640,82.24,670,28.49,656.63,17.13Z"/><path class="cls-3" d="M656.63,17.13,656.4,17c4.05,24.14-18.39,53.89-44.79,63.26l.83.2C640.87,81.89,670,28.49,656.63,17.13Z"/><path class="cls-4" d="M612.78,44.53c6.35-12.17,26.06-29.68,43.54-27.54C634.38,6.84,611.57,27.36,601.4,49S581.57,70.5,581.57,70.5,597.65,73.54,612.78,44.53Z"/><path class="cls-5" d="M581.57,70.5c.09,0,9.42-.57,19.33-21.69,7.43-15.84,20-28.53,32.78-33.11a29.24,29.24,0,0,1,23.19.93l.12.08c4.59,3.91,4.66,12.65.17,24-6.17,15.57-19.28,31.72-33.1,38C617,82,611.61,80.28,611.61,80.28c17.39.87,36.65-20.08,44.53-40,4.19-10.59,4.29-19,.29-22.63l-.1-.08a28.17,28.17,0,0,0-22.28-.86c-12.53,4.49-24.85,17-32.16,32.54-4,8.44-7.82,13.69-11.11,17C585.58,71.41,581.57,70.5,581.57,70.5Z"/><path class="cls-6" d="M610.3,71.32s10.85-44.83,34.05-46.56C644.51,32.77,633.43,68,610.3,71.32Z"/><path class="cls-7" d="M620.88,58.28c-3.17-9.22,10.25-24.71,14.27-30.36-16.88,10.52-24.85,43.4-24.85,43.4,8.47-1.2,15.31-6.69,20.59-13.56C626.16,60.82,621.77,61.2,620.88,58.28Z"/><path class="cls-5" d="M609.58,72l.19-.79c.45-1.84,11.21-45.23,34.54-47l.58,0v.58c.16,8-10.94,43.76-34.52,47.12ZM643.8,25.36C623.34,27.59,612.64,64.69,611,70.65,632.9,66.78,643.46,34.12,643.8,25.36Z"/><path class="cls-5" d="M595.85,78.29a11.45,11.45,0,0,0,8.24-1.06c3.32-1.87,5.69-5.52,7-10.83l1.06.27c-1.42,5.62-4,9.5-7.56,11.52l-.25.14A9.32,9.32,0,0,1,595.85,78.29Z"/><path class="cls-2" d="M116.92,161.3s-60.49,33.68-44,117-30.71,99.21-17.55,136,2.19,83.89,15.35,95.95c-8.77,8.22-15.35,32.35,17.55,32.35s51.54-3.29,50.44-12.06-31.25-18.1-31.25-18.1c3.84-4.93,2.19-15.35-6-19.74s-25.63-52.07-17.94-83.88c12.27-50.81,63.44-92.95,65.64-130.47C150.12,260.67,116.92,161.3,116.92,161.3Z"/><path class="cls-4" d="M79.46,509.5c-4.12-4.61-8.64-11.78-9-24,3.29-44.69-7.4-63.33-9-85.68,3.29-25.81,29.24-48,34.36-95.55,10.06-55.63,32-61.94,48.29-53.64-9.08-35.44-27.09-89.35-27.09-89.35s-60.49,33.68-44,117-30.71,99.21-17.55,136,2.19,83.89,15.35,95.95c-7.83,7.34-13.89,27.36,8.33,31.56C57,525.61,80.69,511.77,79.46,509.5Z"/><path class="cls-8" d="M116.62,162.12a97.14,97.14,0,0,0-27.47,26.79C77.31,206,65,235.37,73.41,278.19c9.48,48-2,73.42-11.14,93.86-6.68,14.84-12,26.57-6.42,42,6.51,18.18,7.13,38.58,7.68,56.58.54,17.81,1,33.19,7.52,39.16l.44.4-.43.4c-5,4.72-8.77,14.13-6,21.11C67.71,538.43,75.73,542,88.23,542c28.24,0,44.16-2.47,48.65-7.56a4.73,4.73,0,0,0,1.25-3.88c-1-8.33-30.58-17.55-30.87-17.64l-.76-.24.49-.62c1.7-2.19,2.28-5.57,1.54-9a14.61,14.61,0,0,0-7.4-9.88c-8.57-4.57-25.9-52.69-18.22-84.5,6.09-25.2,21.38-47.78,36.16-69.62,14.59-21.56,28.37-41.92,29.47-60.75C149.51,261.68,119.47,170.71,116.62,162.12Z"/><path class="cls-9" d="M118.94,526c1.71-5.12,5.43-9.14,13.33-4.34S144.85,531.1,144.2,534c-.83,3.69-14.68,8.68-22.93,5C115.38,536.35,118.94,526,118.94,526Z"/><path class="cls-10" d="M144.21,533c-.4-2.94-4.88-7.1-11.94-11.39-6.49-3.95-11.41-1.63-13.15,3.76,2.67-3.88,7-5,10.94-3.06C135,524.76,140.69,528.47,144.21,533Z"/><path class="cls-11" d="M127.54,536.21c-5.2-.65-9-5.39-8.64-10.09-.39,1.22-3.13,10.41,2.37,12.88,8.25,3.72,22.1-1.27,22.93-5a3,3,0,0,0,0-1.23A25.86,25.86,0,0,1,127.54,536.21Z"/><path class="cls-12" d="M128.23,540.78a17.53,17.53,0,0,1-7.15-1.35c-6.2-2.8-2.74-13.12-2.58-13.59,1.14-3.41,2.88-5.57,5.18-6.41s5.38-.27,8.83,1.82c8.4,5.11,12.83,9.81,12.14,12.9-.28,1.24-1.76,2.59-4.17,3.79A28.69,28.69,0,0,1,128.23,540.78ZM126,520a5.72,5.72,0,0,0-2,.34c-2,.74-3.57,2.7-4.62,5.83h0c0,.1-3.35,10,2.08,12.44s13.58,1,18.61-1.47c2.09-1.05,3.46-2.23,3.67-3.17.58-2.59-3.91-7.15-11.71-11.89A12.13,12.13,0,0,0,126,520Z"/><path class="cls-9" d="M112.53,527.85c1.87-5.59,5.94-10,14.58-4.74s13.78,10.34,13.06,13.56c-.9,4-16.07,9.49-25.09,5.43C108.63,539.19,112.53,527.85,112.53,527.85Z"/><path class="cls-10" d="M140.19,535.57c-.45-3.21-5.35-7.77-13.08-12.46-7.1-4.32-12.48-1.78-14.39,4.11,2.93-4.24,7.64-5.48,12-3.35C130.09,526.51,136.33,530.57,140.19,535.57Z"/><path class="cls-13" d="M122.7,544.05a19.18,19.18,0,0,1-7.83-1.49c-6.78-3.06-3-14.36-2.82-14.87,1.25-3.73,3.15-6.09,5.66-7s5.89-.29,9.67,2c9.2,5.59,14,10.74,13.28,14.11-.3,1.36-1.92,2.84-4.56,4.15A31.36,31.36,0,0,1,122.7,544.05Z"/><path class="cls-2" d="M416.17,258s-25.84,63.87-16.79,108.56c5.68,7.4,7.05,29.61-1.41,39.2,3.33,9.87,8.4,54.83,18.2,65s20.77,14.81,19.95,25.77c3.56,2.74,30.15,18.1,23,28.24s-29.33,11-48.52,9.32S378.2,516,398,504.43c-6.54-2.19-13.32-9.59-8.69-21.93s-11-70.73-11-70.73c-7.95-1.92-13.43-25.49-8.5-35.89-1.37-8.77-.27-48.27-20-70.47,3-30.43,34.57-74.85,34.57-74.85Z"/><path class="cls-4" d="M396.82,523.68c-7.39-9.8,6.85-18.15,7-20,0-2.82-15.82-7.12-8.46-22.47-2.25-25-4.4-43.4-12.35-70.41-6.34-3.83-12.51-23.71-8.52-34,.27-13.05-1.17-24-1-39,1.09-9.87,4.85-15.71,11.43-23.39,6.16-6.84,13.59-12,19.38-18.33A309.63,309.63,0,0,1,416.17,258l-31.84-27.42S352.78,275,349.76,305.41c19.74,22.2,18.64,61.7,20,70.47-4.93,10.4.55,34,8.5,35.89,0,0,15.63,58.4,11,70.73s2.15,19.74,8.69,21.93c-18.73,10.91-7.85,26.23,9.66,29.22C403.78,530.49,399,528.07,396.82,523.68Z"/><path class="cls-8" d="M350.33,305.22c16.34,18.56,18.4,49,19.39,63.66.2,3,.36,5.44.6,6.91l0,.17-.07.15c-3.44,7.24-1.68,20.61,2.11,28.56,1.78,3.73,3.92,6.06,6,6.57l.32.08.08.31c.64,2.39,15.62,58.71,11,71.06-1.93,5.16-2,9.94-.12,13.83a14.45,14.45,0,0,0,8.48,7.39l1.14.39-1,.61c-7.18,4.17-10.47,9.4-9.28,14.7,1.59,7.1,10.72,12.94,21.7,13.88,14.67,1.26,40.41,1.75,48-9.09a5.9,5.9,0,0,0,1-4.72c-1.46-7.78-15.35-17-21.28-21-1.23-.82-2.12-1.41-2.62-1.79l-.23-.18,0-.3c.57-7.57-4.72-12.05-11.41-17.72a108.13,108.13,0,0,1-8.38-7.63c-7-7.2-11.48-31.18-14.78-48.68-1.37-7.27-2.56-13.56-3.55-16.49l-.1-.3.21-.24c8.36-9.49,6.95-31.25,1.39-38.51l-.08-.1,0-.12c-8.62-42.59,14.6-103.22,16.68-108.51l-31.08-26.76C381,236.31,353.26,277,350.33,305.22Z"/><path class="cls-9" d="M445.05,515.56c2.26-5.27,6.55-9.22,14.51-3.43s12.52,11.13,11.57,14.19c-1.2,3.83-16.33,7.91-24.76,3.24C440.36,526.23,445.05,515.56,445.05,515.56Z"/><path class="cls-10" d="M471.23,525.26c-.17-3.15-4.56-8-11.67-13.13-6.53-4.76-11.95-2.73-14.27,2.83,3.18-3.87,7.84-4.7,11.87-2.29C462.17,515.67,467.9,520.1,471.23,525.26Z"/><path class="cls-11" d="M453.27,527.16c-5.45-1.15-9.1-6.51-8.28-11.46-.52,1.25-4.23,10.76,1.38,13.86,8.43,4.67,23.56.59,24.76-3.24a3.15,3.15,0,0,0,.09-1.31A27.6,27.6,0,0,1,453.27,527.16Z"/><path class="cls-13" d="M453.61,532.07a18.87,18.87,0,0,1-7.48-2.07c-6.32-3.51-1.74-14.16-1.53-14.64,1.5-3.52,3.54-5.65,6-6.34s5.73.18,9.2,2.71c8.47,6.15,12.75,11.53,11.75,14.74-.4,1.29-2.09,2.59-4.75,3.66A30.67,30.67,0,0,1,453.61,532.07Z"/><path class="cls-9" d="M436.81,520.21c1.91-5.74,6.08-10.26,14.95-4.87s14.13,10.61,13.39,13.91c-.92,4.13-16.47,9.74-25.73,5.57C432.81,531.84,436.81,520.21,436.81,520.21Z"/><path class="cls-12" d="M447.24,536.82a19.68,19.68,0,0,1-8-1.53c-6.95-3.13-3.07-14.72-2.89-15.25,1.28-3.83,3.24-6.25,5.81-7.2s6-.3,9.91,2c9.44,5.74,14.41,11,13.63,14.48-.31,1.39-2,2.9-4.68,4.25A32.13,32.13,0,0,1,447.24,536.82Zm-2.55-23.37a6.41,6.41,0,0,0-2.21.37c-2.26.83-4,3-5.18,6.55h0c0,.11-3.76,11.21,2.33,14s15.25,1.17,20.89-1.65c2.35-1.17,3.89-2.5,4.12-3.55.65-2.91-4.39-8-13.15-13.35A13.55,13.55,0,0,0,444.69,513.45Z"/><path class="cls-2" d="M122.22,156.27s-41.73,20.86-61.61,46.88c-19.26,25.22-20.91,45.78-17.7,68.42,4.21,29.81-5.67,44.25-5.67,44.25,7.13,0,16.64-14,15.74-31.52-1.3-25.59.16-72.65,37.44-84.71C100,188.07,122.22,156.27,122.22,156.27Z"/><path class="cls-5" d="M37.24,316.37h-1l.58-.86c.1-.14,9.72-14.64,5.58-43.86-3.26-23-1.47-43.57,17.82-68.83C79.9,177,121.56,156,122,155.78l1.93-1-1.24,1.77c-.22.31-22.33,31.95-31.83,43.35l-.1.12-.15.05c-27,8.73-39.47,37-37.06,84.16.67,13.16-4.36,23.37-8.87,28.12C42.22,315,39.58,316.37,37.24,316.37Zm83.25-158.58c-8.52,4.51-42.34,23.3-59.44,45.69-19.06,25-20.82,45.24-17.6,68,3.6,25.45-3.13,40-5.19,43.68a11.18,11.18,0,0,0,5.61-3.54c4.36-4.59,9.22-14.49,8.56-27.31C50,236.74,62.68,208.08,90.1,199.11,98.29,189.26,115.63,164.7,120.49,157.79Z"/><path class="cls-14" d="M15.73,431l-1.89-1.76C4,420.11-5.49,400.66,9.05,384.63c6.93-7.64,3.39-15.38-.72-24.35C4.39,351.69-.07,342,5.69,331.37c11.74-21.6,31.94-33.55,41.42-33.55a3.59,3.59,0,0,1,3.19,2c3.34,5.95-.4,24.83-10.4,41.2-5.5,9-3.67,17.13-1.72,25.73,2.18,9.68,4.44,19.68-4.91,30.63-5.21,6.09-9.57,10.33-12.75,13.42-7.47,7.27-9.48,9.22-5.81,17.8Z"/><path class="cls-8" d="M746.72,142S758,106.1,722.05,92.4s-65.8-4.94-65.8-4.94C654.06,80.88,631,42.23,575.11,66.9c-16.45-3-46.24,5.58-44.42,61.5s20.11,105.64-41.3,95-62.5-110-137.44-102.72c-17.54-19-75.84-87.41-130.12-53-43.68,27.69-67.26,64.7-67.26,64.7-17.91.37-58.48,21.93-68.35,62.14s7.53,63.11,37.65,115.87c22.48,39.39-7.68,72.56,5.48,115.51,14.09,46,24.67,53.27,21.66,71.64s4.93,20.56,4.93,20.56c-5.48,4.93-15.9,30.43,25.22,31.25s57.3-9.87,57.3-15.9S216,505.26,195.69,504.71c-1.64-7.13-7.95-17.55-18.91-24.95s-20.38-82.7-13.8-101,25-56,27.78-75.23c51.17,35.76,152.42,37.77,185.32,4.6,3.56,3.83,29.76-4.66,39.83-20.56,17.46,8,86.27,34.54,135.07,6.58s49.53-81.7,49.53-81.7-1.72-22.55,13.52-28.88c14-5.8,46.66-26.11,57.76-9.86,8.86,13,4.75,27,19,36.91,15.54,10.86,36.56-15,33.63-30.7,9.83,1.28,22.12-4.2,26.69-11.33C754.06,164,755.65,151.58,746.72,142Z"/><path class="cls-4" d="M163.34,517.32c-1.09-1.1-4-4.8-4.2-8,2.59-20.8-4.6-38-22.11-85.17-8.45-22.76,1.09-46.06,6.57-70.18,8.78-42.77-26.31-74.57-40.57-111.85-15.24-37.6,2.49-81.78,34.84-105.51-19.45,8.07-44.23,27.76-51.65,58-9.87,40.21,7.53,63.11,37.65,115.87,22.48,39.39-7.68,72.56,5.48,115.51,14.09,46,24.67,53.27,21.66,71.64s4.93,20.56,4.93,20.56c-4.85,4.37-13.57,24.84,13,30.06A30.62,30.62,0,0,1,158.48,539C149,524.17,165.67,522.28,163.34,517.32Z"/><path class="cls-4" d="M701.21,206.58c-18.5-4.26-17.54-28.38-25.77-40.17-5.48-8.08-24.12,0-27.41-8.08a13.31,13.31,0,0,0,1.1-5.65c-8.78,14.1-39.7,26.54-61.63,18.87-20.84-6.58-32.07-22.69-34.61-52.36-14,41.92,34.61,68.33,25,99.86-20.47,63.24-74.47,68.72-118,61.63-13.15-2.19-29.17-5.29-39-18.17-.84,4-4.66,8.44-9.06,8.26-5.85.18-7.5-12.24-11-17.22-2.19,7.68-10.83,21-30.72,22.16-18.28,1.09-41.91-7.35-43.9-23-1.3,2.87-4.63,11.14-10.38,11.32-5.12-.46-6.4-4.48-7.51-7.56-2.82,11.67-17.85,21.06-36.49,25.45-36.19,6.58-55.93-5.12-66.76-23.92-8.65-15-19.67-52.72-34.85-73.78,19,37.3,26.35,85.84,20.6,119.35,51.71,34.57,152.8,37.38,185.32,4.6,3.56,3.83,29.76-4.66,39.83-20.56,17.46,8,86.27,34.54,135.07,6.58s49.53-81.7,49.53-81.7-1.72-22.55,13.52-28.88c14-5.8,46.66-26.11,57.76-9.86,8.86,13,4.75,27,19,36.91,14.46,10.1,33.64-11.55,33.89-27.27C722.27,192.16,712.16,207.49,701.21,206.58Z"/><path class="cls-9" d="M217.57,525.55c2.25-5.39,6.59-9.44,14.74-3.62s12.85,11.21,11.9,14.34c-1.18,3.91-16.55,8.2-25.17,3.53C212.89,536.46,217.57,525.55,217.57,525.55Z"/><path class="cls-10" d="M244.31,535.19c-.21-3.21-4.72-8.07-12-13.26-6.7-4.78-12.19-2.67-14.51,3,3.2-4,7.94-4.85,12.07-2.44C235,525.51,240.87,530,244.31,535.19Z"/><path class="cls-11" d="M226,537.28c-5.56-1.11-9.32-6.54-8.53-11.59-.52,1.29-4.21,11,1.53,14.11,8.62,4.67,24,.38,25.17-3.53a3.13,3.13,0,0,0,.08-1.34A28,28,0,0,1,226,537.28Z"/><path class="cls-12" d="M226.43,542.28a19.24,19.24,0,0,1-7.63-2c-6.47-3.51-1.91-14.39-1.7-14.89,1.51-3.59,3.56-5.78,6.11-6.51s5.83.14,9.39,2.68c8.68,6.19,13.08,11.62,12.09,14.9-.4,1.32-2.1,2.65-4.8,3.76A31.15,31.15,0,0,1,226.43,542.28Zm-.8-22.68a6.13,6.13,0,0,0-2.15.21c-2.24.64-4.07,2.63-5.45,5.93h0c0,.1-4.42,10.53,1.25,13.6s14.59,2.21,20.22-.1c2.35-1,3.93-2.13,4.23-3.13.83-2.75-3.66-8-11.71-13.78A13.13,13.13,0,0,0,225.63,519.6Z"/><path class="cls-5" d="M410.8,294.61l-.77-.78c15-14.89,10.8-31.16,10.75-31.32a22,22,0,0,1,.84,13.13A38.19,38.19,0,0,1,410.8,294.61Z"/><path class="cls-5" d="M185.6,324.19l-1-.39c23.29-61.16-14-138.82-14.42-139.6A156,156,0,0,1,182.6,214C191.45,242.5,200,286.44,185.6,324.19Z"/><path class="cls-5" d="M740.7,127.31c0-.15-3.16-15.61-19.07-19.85-9.42-2.52-13.52,1.06-15.12,3.42a9.83,9.83,0,0,0,.08,11.07,6.43,6.43,0,0,1-2.84-5.53,11,11,0,0,1,1.85-6.16c3-4.42,8.95-5.83,16.31-3.86a26.92,26.92,0,0,1,16.75,13A14.62,14.62,0,0,1,740.7,127.31Z"/><path class="cls-15" d="M729.72,130s-12.88-17-18.09-8.49S727.53,129.68,729.72,130Z"/><path class="cls-16" d="M727.71,127.85c-3.83-4.36-12.14-12.5-16.08-6.07-.1.16-.18.32-.26.48C709.85,126.83,722.54,127.6,727.71,127.85Z"/><path class="cls-5" d="M730.94,130.66l-1.29-.16c-.26,0-.81-.06-1.55-.09-4.56-.21-15.24-.7-17.44-4.83-.68-1.28-.51-2.77.5-4.41a5,5,0,0,1,4.09-2.64h.26c6.17,0,14.3,10.63,14.65,11.09Zm-15.42-11h-.22a3.88,3.88,0,0,0-3.2,2.11c-.81,1.31-1,2.4-.47,3.32,1.9,3.59,12.52,4.07,16.52,4.25l.37,0C726.37,126.71,720.12,119.62,715.52,119.62Z"/><path class="cls-5" d="M740.84,136.64c-.06-.06-6-6.15-16.9-6.48l0-1.1a29.13,29.13,0,0,1,10.94,2.43A12.56,12.56,0,0,1,740.84,136.64Z"/><path class="cls-5" d="M602.5,184.87c-17,0-31.32-9.78-39.89-20.58-7.48-9.44-10.3-20.07-11.2-28.66a40.87,40.87,0,0,1,1.48-16.44c0,.24-4.86,24.95,10.58,44.42,11.72,14.77,34.43,27.59,59.87,15.1l.48,1A48.07,48.07,0,0,1,602.5,184.87Z"/><path class="cls-5" d="M629.85,176.78l-.39-1c18.66-7.1,19.66-22.91,19.67-23.07a17,17,0,0,1-2.42,10.42C643.9,167.93,638.86,173.34,629.85,176.78Z"/><path class="cls-5" d="M727.37,180.66c-20.41,0-37.86-23.1-46-35.9a31.74,31.74,0,0,1-3.84-8.75c.24.46,24.26,46.16,52.3,43.43l.11,1.09A25.34,25.34,0,0,1,727.37,180.66Z"/><path class="cls-9" d="M211,530.48c2-6,6.4-10.78,15.72-5.11S241.58,536.51,240.8,540c-1,4.34-17.32,10.23-27.05,5.84C206.81,542.71,211,530.48,211,530.48Z"/><path class="cls-10" d="M240.82,538.8c-.48-3.46-5.77-8.37-14.09-13.43-7.66-4.66-13.46-1.92-15.51,4.43,3.15-4.57,8.23-5.9,12.9-3.61C229.93,529,236.67,533.41,240.82,538.8Z"/><path class="cls-11" d="M221.15,542.55c-6.13-.77-10.65-6.36-10.19-11.91-.46,1.44-3.69,12.27,2.79,15.19,9.73,4.39,26.08-1.5,27.05-5.84a3.43,3.43,0,0,0,0-1.46A30.56,30.56,0,0,1,221.15,542.55Z"/><path class="cls-13" d="M222,547.94a20.72,20.72,0,0,1-8.44-1.6c-7.31-3.3-3.23-15.48-3-16,1.34-4,3.4-6.57,6.1-7.57s6.36-.32,10.42,2.16c9.92,6,15.14,11.57,14.33,15.21-.33,1.46-2.08,3-4.92,4.47A33.89,33.89,0,0,1,222,547.94Z"/><path class="cls-5" d="M363.5,144.67c-.07-.18-6.62-18.33-18.22-30.42l.79-.76a79,79,0,0,1,11.28,15.59A59.06,59.06,0,0,1,363.5,144.67Z"/><path class="cls-8" d="M310.25,256.33a58.79,58.79,0,0,0,5.85,35.82c9.5,18.28,17.18,59.59,13.52,74.57-4.65,5.3-7.83,34.91.93,42.4-3.85,17.18-2.39,56.29-7.87,70.55s-4,34,4.39,40.94c-4.39,4.75-18.65,27.27,20.1,26.42s53.73-9.24,53.37-17.28-30-23.4-35.46-24.86c1.83-4.39-8.41-15-13.89-19s0-73.1,0-73.1c8.5-1.28,14.26-38.56,8.41-45.69C362.16,362,364.05,321,381,305.31s26.47-38,22.82-51.9"/><path class="cls-4" d="M335.07,518.41c-5.84-2.71-10.69-20.56-3.28-43.86,2.57-18.71,5.36-55.66,5.48-66.16-5.57-14.16-6.22-33.81-.18-40,2.92-9,2.58-27.26.54-37-12.74-40.72-4.48-78.27-6.43-78.72-1.71,2.58-5.34,14-10.11,14.2s-7.78-7.2-7.78-10.44c-.58,1.05-4.19,17.43,5.32,35.7s17.18,59.59,13.52,74.57c-4.65,5.3-7.84,34.91.93,42.4-3.85,17.18-2.39,56.29-7.87,70.55s-4,34,4.38,40.94c-4.17,4.52-17.27,25.11,14.82,26.38C328.86,541.84,328,530.92,335.07,518.41Z"/><path class="cls-9" d="M380.31,523.91c2.41-5.62,7-9.82,15.47-3.66s13.34,11.86,12.32,15.12c-1.27,4.09-17.4,8.44-26.38,3.46C375.32,535.28,380.31,523.91,380.31,523.91Z"/><path class="cls-11" d="M389.08,536.27c-5.82-1.22-9.7-6.94-8.83-12.21-.55,1.34-4.5,11.46,1.47,14.77,9,5,25.11.63,26.38-3.46a3.35,3.35,0,0,0,.1-1.39A29.36,29.36,0,0,1,389.08,536.27Z"/><path class="cls-12" d="M389.43,541.5a19.73,19.73,0,0,1-8-2.21c-6.74-3.73-1.86-15.08-1.64-15.59,1.61-3.75,3.78-6,6.45-6.76s6.11.19,9.81,2.88c9,6.57,13.58,12.29,12.51,15.71-.43,1.38-2.22,2.77-5.06,3.9A32.71,32.71,0,0,1,389.43,541.5Zm-.62-23.74a6.44,6.44,0,0,0-2.25.19c-2.35.65-4.29,2.72-5.76,6.17h0c-.05.11-4.73,11,1.18,14.25s15.25,2.45,21.17.08c2.46-1,4.12-2.19,4.45-3.23.9-2.88-3.75-8.45-12.13-14.54A13.69,13.69,0,0,0,388.81,517.76Z"/><path class="cls-5" d="M324.43,317.67c-4.41-17.06-3.51-33.66-1.55-45.86a67.18,67.18,0,0,1,5.8-19.12c-.12.31-11.73,31.63-3.19,64.71Z"/><path class="cls-9" d="M374.55,528.5c2-6,6.4-10.79,15.72-5.12s14.85,11.15,14.07,14.62c-1,4.34-17.32,10.23-27,5.85C370.35,540.72,374.55,528.5,374.55,528.5Z"/><path class="cls-10" d="M404.36,536.82c-.48-3.47-5.77-8.38-14.09-13.44-7.66-4.65-13.46-1.92-15.51,4.43,3.15-4.57,8.23-5.9,12.9-3.61C393.47,527.05,400.21,531.42,404.36,536.82Z"/><path class="cls-11" d="M384.69,540.56c-6.13-.77-10.65-6.36-10.19-11.9-.46,1.43-3.69,12.27,2.79,15.19,9.73,4.38,26.08-1.51,27-5.85a3.43,3.43,0,0,0,0-1.46A30.5,30.5,0,0,1,384.69,540.56Z"/><path class="cls-13" d="M385.51,546a20.72,20.72,0,0,1-8.44-1.6c-7.31-3.29-3.23-15.48-3-16,1.34-4,3.4-6.57,6.1-7.56,2.85-1,6.36-.32,10.42,2.15,9.92,6,15.14,11.57,14.33,15.21-.33,1.47-2.08,3.06-4.92,4.48A33.88,33.88,0,0,1,385.51,546Z"/><path class="cls-2" d="M571.27.47c-23.4,6.94-26.69,37.65-19.7,60.67s0,29.61,0,29.61L580.41,78C602.48,60,588.81,0,571.27.47Z"/><path class="cls-3" d="M571.27.47,571,.55c19.16,15.22,22.39,52.36,9,77l.75-.41C602.88,59.14,588.81,0,571.27.47Z"/><path class="cls-4" d="M557,50.18c-3.42-13.3-.48-39.5,13.94-49.6-23.1,7.13-26.33,37.64-19.38,60.56s-.38,29.21-.38,29.21S565.18,81.86,557,50.18Z"/><path class="cls-5" d="M551.19,90.35c.07-.06,6.62-6.72-.15-29-5.08-16.74-4.23-34.57,2.21-46.54A29.26,29.26,0,0,1,571.11-.06l.14,0c6-.17,11.93,6.28,16.18,17.72,5.84,15.7,6.9,36.48.84,50.41-3.11,7.17-8.21,9.48-8.21,9.48,13.5-11,13.81-39.45,6.34-59.5-4-10.68-9.53-17-14.92-17h-.13a28.19,28.19,0,0,0-17.13,14.27C547.91,27,547.1,44.51,552.09,61c2.71,8.92,3.34,15.41,3.09,20C554.77,88.35,551.19,90.35,551.19,90.35Z"/><path class="cls-6" d="M573.1,71.74s-21.94-40.57-5.85-57.38C572.73,20.21,588.08,53.83,573.1,71.74Z"/><path class="cls-7" d="M572.23,55c-8.53-4.74-8.91-25.23-9.71-32.12C557,42,573.1,71.74,573.1,71.74c5.48-6.55,6.89-15.21,6.22-23.85C577.85,53.33,574.85,56.55,572.23,55Z"/><path class="cls-5" d="M573,72.72l-.39-.72c-.9-1.67-21.93-41.11-5.76-58l.4-.42.4.42c5.49,5.87,21.15,39.85,5.87,58.12Zm-5.76-57.54c-13.72,15.34,3.15,50.07,6,55.57C586.85,53.25,572.84,21.91,567.24,15.18Z"/><path class="cls-5" d="M567,86.6a11.55,11.55,0,0,0,5.41-6.31c1.21-3.61.53-7.9-2-12.75l1-.51c2.7,5.13,3.41,9.71,2.09,13.63,0,.08-.06.17-.1.26A9.33,9.33,0,0,1,567,86.6Z"/><path class="cls-17" d="M681.06,143.1c1.06,8.66,4.6,30.41,14.67,49.45,9.64,18.22,23-1,19.91-15C700.05,171,687.23,153,681.06,143.1Z"/><path class="cls-18" d="M704.61,200.53c-2.48,0-6-1.4-9.37-7.72a132,132,0,0,1-10.91-29.35l0-.12.11-.62.52,0c4.33.47,8.6,3.1,12.68,7.82,6.58,7.6,7.67,23.12,7.83,29.44v.54l-.53,0Z"/><path class="cls-5" d="M704.62,200.53c-2.6,0-6.08-1.5-9.38-7.72-10.13-19.16-13.67-41.1-14.73-49.64l-.3-2.47,1.31,2.11c6.21,10,18.93,27.71,34.34,34.25l.26.11.06.28c1.93,8.85-2.69,20.28-9.15,22.65A7.06,7.06,0,0,1,704.62,200.53Zm-22.69-55c1.37,9.73,5.09,29.43,14.28,46.79,3,5.73,6.74,8.14,10.44,6.78,6-2.18,10.2-12.76,8.52-21.11C700.63,171.66,688.55,155.75,681.93,145.5Z"/><path d="M625.3,72.1s-.4-8.82-7.25-10.4c-20-4.61-28.63,16.64-28.63,16.64C599.19,71.25,614.09,61.9,625.3,72.1Z"/></svg>