<svg id="Layer_1" data-name="Layer 1" xmlns="http://www.w3.org/2000/svg" viewBox="0 0 160 130"><defs><style>.cls-1{fill:#910000;}.cls-2{fill:#f33;}.cls-3{fill:#d80000;}</style></defs><path class="cls-1" d="M37,117.29c-3.59-6.36-5.19-32.76-13.7-42,0-.91,18.27-6,21.12-3.85,0,0-8.27,24.84,6.31,39.77,2.51-.41,4.74.78,5.13,1.75.72,1.82-3.66,5.49-9.78,8.23s-11.66,3.47-12.39,1.67C33.19,121.76,34.32,119.17,37,117.29Z"/><path class="cls-2" d="M54.35,113.13c.08.46-1.32,2.61-6.17,5.3l0,0-.48.26-.62.33h0c-.62.32-1.25.63-1.91.92-6.68,3-10.66,2.8-11,2.24-.15-.4.47-2.52,2.94-4.27l.8-.57-.5-.88c-1.24-2.2-2.2-6.9-3.31-12.34-1.33-6.51-3.21-15.4-6-22.18l1.18.16a33.93,33.93,0,0,0,12-.72c-.16,1.75-.28,3.55-.37,5.24-.53,10.1,2.45,18.78,8.63,25.11l.36.37.51-.08C52.48,111.68,54.17,112.72,54.35,113.13Z"/><path class="cls-3" d="M54.35,113.13c.08.46-1.32,2.61-6.17,5.3l0,0-.17.09h0c-.62.32-1.25.62-1.91.91-6.68,3-10.67,2.8-11,2.24-.15-.4.47-2.51,2.94-4.26l.8-.58-.49-.87c-1.24-2.21-2.21-6.9-3.32-12.34-1.29-6.31-3.08-14.84-5.74-21.54a34,34,0,0,0,12-.72c-.16,1.75-.29,3.55-.37,5.24-.54,10.1,2.45,18.78,8.63,25.11l.36.37.51-.08C52.48,111.68,54.17,112.72,54.35,113.13Z"/><path class="cls-2" d="M55.51,37.2c6.73,14.08,1.38,31.25-11.92,38.36a25.87,25.87,0,0,1-29.83-3.88,28.51,28.51,0,0,1-6.45-8.74C.59,48.86,5.94,31.68,19.25,24.58a25.9,25.9,0,0,1,30.69,4.71A28.79,28.79,0,0,1,55.51,37.2Z"/><path class="cls-3" d="M55.51,37.2c6.73,14.08,1.38,31.25-11.92,38.36a25.87,25.87,0,0,1-29.83-3.88,28.54,28.54,0,0,1-5.59-7.92C1.45,49.69,6.79,32.52,20.11,25.41A25.86,25.86,0,0,1,50,29.3,28.77,28.77,0,0,1,55.51,37.2Z"/><ellipse class="cls-3" cx="31.49" cy="51.89" rx="24.82" ry="26.24"/><path class="cls-1" d="M141.91,100.69c1.68-7.2-4.1-32.93,1.49-44.39-.25-.87-19.13-.08-21.27,2.86,0,0,14.79,21.19,5,40-2.51.38-4.31,2.22-4.42,3.27-.19,2,5,4.12,11.63,4.83s12.12-.29,12.31-2.24C146.73,103.79,145,101.66,141.91,100.69Z"/><path class="cls-2" d="M124.12,102.09c0,.46,2,2.09,7.36,3.15h0l.53.1c.22,0,.45.09.68.12h0c.67.11,1.37.21,2.07.28,7.22.79,11-.62,11.2-1.28,0-.42-1.16-2.25-4-3.16l-.92-.3.23-1c.58-2.49.2-7.28-.24-12.82-.53-6.64-1.2-15.72-.41-23.08-.36.18-.72.36-1.09.52a34.4,34.4,0,0,1-11.68,3c.63,1.63,1.25,3.31,1.8,4.9,3.3,9.49,2.85,18.72-1.3,26.68l-.25.47-.5.07A4.64,4.64,0,0,0,124.12,102.09Z"/><path class="cls-3" d="M124.12,102.09c0,.46,2,2.09,7.36,3.15h0a1.06,1.06,0,0,0,.2,0h0c.68.11,1.38.21,2.08.28,7.21.79,11-.62,11.19-1.27,0-.43-1.15-2.26-4-3.17l-.93-.3.23-1c.58-2.49.2-7.28-.24-12.82-.5-6.43-1.16-15.15-.47-22.37a34.39,34.39,0,0,1-11.69,3c.64,1.63,1.26,3.31,1.81,4.9,3.3,9.49,2.85,18.71-1.31,26.68l-.24.46-.51.08A4.62,4.62,0,0,0,124.12,102.09Z"/><path class="cls-2" d="M102,29.84c-2.53,15.55,7.33,30.31,22,33,11.1,2,21.79-3.44,27.44-12.94a29.46,29.46,0,0,0,3.75-10.35c2.52-15.55-7.33-30.31-22-33-11.51-2.1-22.57,3.85-28,14A29.58,29.58,0,0,0,102,29.84Z"/><path class="cls-3" d="M102,29.84c-2.53,15.55,7.33,30.31,22,33,11.1,2,21.79-3.44,27.44-12.94a29.43,29.43,0,0,0,3.15-9.31c2.53-15.54-7.33-30.3-22-33-11.11-2-21.81,3.45-27.46,13A29.82,29.82,0,0,0,102,29.84Z"/></svg>