<svg id="Layer_1" data-name="Layer 1" xmlns="http://www.w3.org/2000/svg" viewBox="0 0 40 30"><defs><style>.cls-1{fill:#efdbce;stroke:#773c15;stroke-miterlimit:10;stroke-width:0.25px;}.cls-2{fill:#47170a;}.cls-3{fill:#fff;}</style></defs><path class="cls-1" d="M33.27,9.42c7.28-1.38-6.66,11-14.6,13.82C12.51,25.47,5.45,22.87,4.86,21s0-9.86,6.5-13.12C22.81,2.13,26,10.79,33.27,9.42Z"/><path class="cls-2" d="M22.55,15.13a6.89,6.89,0,1,1-6.89-6.89A6.9,6.9,0,0,1,22.55,15.13Z"/><path class="cls-3" d="M12.79,14.92c-.42.9-1.22,1.42-1.79,1.15s-.71-1.21-.29-2.12,1.23-1.42,1.8-1.15S13.21,14,12.79,14.92Z"/><path class="cls-3" d="M14.8,11.44a.67.67,0,1,1-.67-.68A.68.68,0,0,1,14.8,11.44Z"/></svg>