<svg id="Layer_1" data-name="Layer 1" xmlns="http://www.w3.org/2000/svg" viewBox="0 0 90 60"><defs><style>.cls-1{fill:#fcf9f7;stroke:#3a1e0f;}.cls-1,.cls-4{stroke-miterlimit:10;stroke-width:0.75px;}.cls-2{fill:#2d1c15;}.cls-3{fill:#f9f4f2;}.cls-4{fill:#f9dad2;stroke:#4c2606;}</style></defs><path class="cls-1" d="M66.62,55c-7.48.37-13.85-5.66-14.24-13.45a14.57,14.57,0,0,1,2-8.15,13.38,13.38,0,0,1,10.84-6.65A13.83,13.83,0,0,1,79.39,39.35c0,.28,0,.56.06.84C79.84,48,74.09,54.62,66.62,55Z"/><ellipse class="cls-2" cx="71.12" cy="40.35" rx="8.29" ry="8.65" transform="translate(-1.91 3.56) rotate(-2.83)"/><ellipse class="cls-3" cx="66.72" cy="36.23" rx="2.12" ry="2.37" transform="translate(-1.71 3.34) rotate(-2.83)"/><path class="cls-1" d="M19.56,50.37c-6.63.32-12.31-5.73-12.7-13.54a15.69,15.69,0,0,1,2.52-9.46,11.29,11.29,0,0,1,8.78-5.25c5.46-.28,10.26,3.79,12,9.59a15.77,15.77,0,0,1,.68,3.94C31.24,43.45,26.18,50,19.56,50.37Z"/><ellipse class="cls-2" cx="23.46" cy="35.76" rx="7.35" ry="8.65" transform="translate(-1.74 1.2) rotate(-2.83)"/><ellipse class="cls-3" cx="19.54" cy="31.62" rx="1.88" ry="2.37" transform="translate(-1.54 1) rotate(-2.83)"/><path class="cls-2" d="M66.51,11.84a17.31,17.31,0,0,1,16.65,7.39S83,8,68.66,7C68.66,7,64,8.22,66.51,11.84Z"/><path class="cls-2" d="M24.21,9.83S15.33,8,9.91,17.21c0,0,.12-11.28,12.46-12.22C22.37,5,26.4,6.2,24.21,9.83Z"/><path class="cls-4" d="M30.17,31.71l-.34-.16a50.53,50.53,0,0,0-10.42-3.08,65.1,65.1,0,0,0-10-1.1,11.29,11.29,0,0,1,8.78-5.25C23.62,21.84,28.42,25.91,30.17,31.71Z"/><path class="cls-4" d="M79.39,39.35l0,0a36.16,36.16,0,0,0-10.87-4.39c-1-.24-2-.45-3-.62l-.26,0a64.65,64.65,0,0,0-10.82-.88,13.38,13.38,0,0,1,10.84-6.65A13.83,13.83,0,0,1,79.39,39.35Z"/></svg>