<svg id="Layer_1" data-name="Layer 1" xmlns="http://www.w3.org/2000/svg" viewBox="0 0 100 30"><defs><style>.cls-1{fill:#f7f0f0;}.cls-2{fill:#fff;}.cls-3{fill:#cc1ba2;}</style></defs><ellipse class="cls-1" cx="14.86" cy="15" rx="9.51" ry="12.78"/><circle cx="14.86" cy="15" r="7.87"/><path class="cls-2" d="M19.76,12.27A1.79,1.79,0,1,1,18,10.48,1.81,1.81,0,0,1,19.76,12.27Z"/><path class="cls-3" d="M14.86,2.22c5.25,0,9.5,5.72,9.5,12.78s-.09,4.25-9.63,4.68S5.35,22.06,5.35,15,9.6,2.22,14.86,2.22Z"/><ellipse class="cls-1" cx="85.15" cy="15" rx="9.51" ry="12.78"/><circle cx="84.99" cy="15.08" r="7.87"/><path class="cls-2" d="M89.9,12.27a1.8,1.8,0,1,1-1.79-1.79A1.81,1.81,0,0,1,89.9,12.27Z"/><path class="cls-3" d="M85.15,2.22c5.25,0,9.5,5.72,9.5,12.78s-.22,4.1-9.63,4.68c-8.71.53-9.38,2.38-9.38-4.68S79.89,2.22,85.15,2.22Z"/></svg>