<svg id="Layer_1" data-name="Layer 1" xmlns="http://www.w3.org/2000/svg" viewBox="0 0 465 460"><defs><style>.cls-1{fill:#1e89e2;}.cls-2{fill:#1361bf;}.cls-3,.cls-6{fill:none;stroke-linecap:round;stroke-linejoin:round;}.cls-3{stroke:#1e89e2;stroke-width:7.55px;}.cls-4{fill:#46adf2;}.cls-5{fill:#16b3dc;}.cls-6{stroke:#4bc4d3;stroke-width:1.89px;}</style></defs><path class="cls-1" d="M316.23,121.12l-.56.92-.7,1.12-.9,1.5c-1.35,2.28-3.32,5.71-5.7,10.18s-5.2,10-8.6,16.36c-1.71,3.17-3.58,6.55-5.69,10.07s-4.46,7.16-7.17,10.82c-1.34,1.84-2.8,3.66-4.32,5.49s-3.16,3.62-4.91,5.37c-.86.89-1.78,1.74-2.68,2.61-.46.43-.94.85-1.41,1.27s-.94.85-1.43,1.26l-1.48,1.23c-.49.42-1,.8-1.52,1.21l-.77.6-.19.15-.14.11-.1.07-.37.27-1.52,1.11c-2,1.49-4.22,3-6.41,4.48l-3.36,2.14-.84.54-.87.52-1.73,1c-4.64,2.75-9.51,5.35-14.56,7.74a219.21,219.21,0,0,1-32.18,11.93c-11.19,3.25-22.72,5.79-34.24,8.06s-23.06,4.27-34.37,6.4l-8.42,1.63-4.18.85-2.07.42-2,.46-2.06.46-2,.52-2,.52-2,.59-2,.58-1.94.65L107,243l-1.91.7a147,147,0,0,0-27.87,14c-8.36,5.38-16.09,11-22.12,17.13a108.69,108.69,0,0,0-8.25,9.31l-.93,1.15L45,286.48l-1.72,2.28c-1.09,1.54-2.18,3-3.18,4.48-4,5.84-7.39,11.08-10.23,15.35-1.41,2.14-2.71,4-3.83,5.68s-2.11,3-2.91,4.15l-2.5,3.41a.71.71,0,0,1-1,.15.72.72,0,0,1-.17-1h0l2.41-3.44c.77-1.13,1.7-2.53,2.81-4.18s2.33-3.57,3.69-5.74c2.74-4.31,6-9.62,9.93-15.6,1-1.5,2-3,3.11-4.59l1.7-2.35.87-1.21c.31-.39.61-.79.92-1.19a110.73,110.73,0,0,1,8.24-9.7l2.37-2.41c.82-.79,1.68-1.56,2.53-2.36.44-.39.86-.81,1.3-1.18l1.34-1.11L62,264.8l.68-.57.11-.09.09-.07.18-.14.35-.27c3.74-3,7.73-5.86,12-8.68A150.18,150.18,0,0,1,103.65,240l1.95-.77,2-.71,2-.7,2-.65,2-.65,2.07-.59,2.08-.59,2-.51,2.1-.52,2.08-.47,4.18-.93c2.8-.62,5.61-1.22,8.43-1.82,11.3-2.38,22.79-4.63,34.18-7.12s22.7-5.24,33.58-8.65a212.41,212.41,0,0,0,31-12.22q7.22-3.62,13.81-7.72l1.64-1,.81-.51.8-.54,3.16-2.11c2-1.46,4-2.83,6-4.41l1.49-1.14.37-.28.1-.07c-.07,0,0,0,0,0l.17-.14.69-.56c.45-.38.92-.74,1.36-1.13l1.32-1.15c.45-.38.86-.78,1.29-1.18s.84-.78,1.25-1.18c.81-.82,1.64-1.6,2.4-2.44,1.57-1.63,3-3.33,4.39-5s2.68-3.42,3.89-5.16c2.44-3.45,4.58-6.93,6.52-10.31s3.67-6.69,5.28-9.83c3.19-6.29,5.89-11.91,8.24-16.52s4.3-8.22,5.7-10.69c.35-.62.67-1.16.93-1.63l.67-1.13.55-.93a4.67,4.67,0,1,1,8,4.74Z"/><path class="cls-1" d="M337.59,106.68s.42,1.7,1.2,4.89c.11.38.19.85.28,1.34s.19,1,.29,1.54c.19,1.07.41,2.25.64,3.51s.32,2.59.49,4c0,.35.09.71.13,1.08l.07.56,0,.57q.07,1.14.15,2.34a103.09,103.09,0,0,1-1.18,23.11l-.27,1.67c-.05.28-.09.56-.14.84l-.18.85c-.24,1.12-.49,2.26-.74,3.42s-.57,2.32-.88,3.5-.62,2.37-1,3.56c-.79,2.37-1.51,4.84-2.51,7.27-.24.61-.48,1.22-.71,1.84l-.36.93c-.13.31-.27.61-.4.92l-1.66,3.71A111.7,111.7,0,0,1,322.38,193l-.15.23-.22.31-.31.43-.63.86-1.27,1.74-.64.88c-.21.29-.42.58-.67.88L317,200.1l-1.46,1.81c-.25.29-.49.61-.74.9l-.77.85L311,207.12a160.19,160.19,0,0,1-13.92,13l-3.82,3c-1.29,1-2.63,2-3.95,3s-2.69,1.91-4.05,2.86l-2.06,1.42c-.7.47-1.41.91-2.11,1.37L279,233.12l-1.06.68-1.08.65-4.36,2.61L268,239.55c-1.5.83-3,1.6-4.55,2.4-6.13,3.14-12.43,6-19,8.64-.81.31-1.6.63-2.46.93s-1.7.63-2.53.91l-2.52.85-2.54.8c-3.38,1-6.8,2-10.22,2.82-6.85,1.73-13.74,3.18-20.57,4.69l-2.55.57-1.28.29-1.25.3-2.55.61-2.49.64c-3.33.88-6.67,1.83-10,2.86-6.61,2-13.15,4.32-19.66,6.6s-13,4.57-19.47,6.66l-4.77,1.6c-1.55.56-3.11,1.1-4.65,1.68s-3.09,1.16-4.6,1.78-3,1.22-4.53,1.88a203.37,203.37,0,0,0-33,17.74,155.1,155.1,0,0,0-13.89,10.41l-.78.65-.79.7L75.81,318l-1.55,1.39c-.5.46-1,.94-1.44,1.41-.95,1-1.91,1.87-2.83,2.82l-2.67,2.9a145.8,145.8,0,0,0-9.38,11.63l-1.06,1.43-1,1.44-2,2.82-1.85,2.78c-.61.91-1.21,1.81-1.78,2.71-4.6,7.16-8.41,13.56-11.64,18.79-1.6,2.62-3.07,4.94-4.34,7L31,380.14l-2.82,4.19a.72.72,0,0,1-1,.2.71.71,0,0,1-.2-1h0s.94-1.47,2.72-4.22l3.18-5.13c1.23-2,2.64-4.38,4.19-7,3.12-5.27,6.81-11.74,11.31-19,.55-.92,1.14-1.84,1.73-2.77s1.2-1.88,1.81-2.84l1.93-2.89,1-1.47,1-1.47a148.82,148.82,0,0,1,9.32-12l2.68-3c.92-1,1.9-2,2.87-3,.49-.49,1-1,1.47-1.49l1.52-1.42,1.53-1.43.77-.72.84-.73a158.18,158.18,0,0,1,14-10.9,208.09,208.09,0,0,1,33.3-18.72c1.51-.7,3-1.33,4.58-2s3.1-1.27,4.66-1.91,3.17-1.21,4.77-1.82L143,275.8c6.35-2.19,12.75-4.57,19.22-7s13-4.84,19.71-7c3.35-1.12,6.72-2.15,10.15-3.13l2.58-.72,2.55-.66,1.3-.33,1.28-.32,2.56-.62c6.84-1.66,13.65-3.23,20.31-5,3.33-.91,6.62-1.87,9.86-2.93l2.42-.82c.8-.27,1.59-.57,2.39-.85s1.56-.6,2.34-.89,1.57-.62,2.37-1c6.22-2.64,12.33-5.57,18.18-8.71,1.46-.81,2.93-1.57,4.36-2.4l4.26-2.49,4.15-2.6,1-.65,1-.67,2-1.35c.67-.45,1.35-.89,2-1.35l2-1.4c1.29-.93,2.6-1.83,3.83-2.82s2.51-1.91,3.72-2.89l3.58-3a148.29,148.29,0,0,0,12.94-12.54l2.83-3.29.7-.81c.23-.28.43-.55.65-.83.43-.55.85-1.1,1.28-1.64l1.27-1.63c.22-.26.42-.56.63-.86l.62-.89,1.24-1.76.61-.88.31-.43.07-.11s.12-.16,0,0l.13-.22a103.87,103.87,0,0,0,7.53-13.77l1.45-3.44c.12-.29.25-.57.36-.85l.31-.87c.21-.57.42-1.14.62-1.7.88-2.25,1.49-4.53,2.18-6.71.32-1.1.56-2.21.84-3.29s.57-2.14.75-3.21.41-2.12.61-3.15l.15-.77c.05-.26.08-.52.11-.77.08-.52.15-1,.22-1.53a93.6,93.6,0,0,0,.67-21c-.06-.72-.12-1.43-.17-2.12l-.05-.51-.07-.5c0-.33-.09-.65-.14-1l-.51-3.6q-.31-1.61-.6-3c-.09-.46-.18-.89-.26-1.3s-.15-.8-.27-1.21c-.85-3.17-1.3-4.87-1.3-4.87a5,5,0,1,1,9.72-2.6Z"/><path class="cls-1" d="M361.43,102s.06.53.16,1.56c.05.51.12,1.15.19,1.91s.16,1.65.25,2.67l.28,3.42c.08,1.25.18,2.61.28,4.08s.16,3,.25,4.74.12,3.49.19,5.39c.07,3.8.14,8,0,12.6s-.34,9.56-.84,14.86-1.22,10.93-2.35,16.84l-.45,2.22c-.07.37-.15.75-.22,1.12s-.18.75-.26,1.13l-.54,2.27c-.09.38-.17.76-.26,1.15l-.06.22,0,.14-.07.28-.16.55c-.2.74-.4,1.48-.61,2.23l-.15.56-.19.6c-.12.39-.25.79-.37,1.19-.26.79-.5,1.61-.78,2.39l-.84,2.35c-.28.8-.6,1.57-.92,2.36s-.63,1.57-1,2.36c-.71,1.55-1.39,3.14-2.19,4.69-.4.77-.76,1.57-1.2,2.33l-1.28,2.32c-.42.78-.9,1.53-1.36,2.3l-.69,1.15-.73,1.13a99.83,99.83,0,0,1-6.43,8.88c-1.15,1.45-2.38,2.84-3.61,4.26s-2.53,2.78-3.86,4.12a165.88,165.88,0,0,1-17.37,15.23c-6.21,4.77-12.74,9.3-19.43,13.76q-5,3.34-10.11,6.68l-5.12,3.36-5.2,3.36c-6.95,4.44-14,8.84-20.71,13.64a131.22,131.22,0,0,0-18.93,15.9,67.08,67.08,0,0,0-13.68,20.15,57.1,57.1,0,0,0-3.54,11.62c-.35,1.95-.59,4-.76,6.07s-.31,4.21-.54,6.41a27.41,27.41,0,0,1-1.45,6.88,14.74,14.74,0,0,1-1.81,3.41,13.43,13.43,0,0,1-2.74,2.79,19.28,19.28,0,0,1-6.55,3.09c-.56.18-1.11.28-1.67.42l-.21.05-.26.06-.39.07-.77.14c-.5.11-1.09.18-1.66.26l-.86.12-.84.07a49.05,49.05,0,0,1-13.13-.71c-4.24-.74-8.31-1.86-12.29-3s-7.87-2.26-11.74-3.15c-1.94-.44-3.87-.82-5.8-1.1a46.73,46.73,0,0,0-5.75-.53,47.44,47.44,0,0,0-21.88,4.71,56,56,0,0,0-9.36,5.84q-2.19,1.68-4.26,3.47c-1.38,1.2-2.73,2.43-4.06,3.67-5.31,5-10.27,10.13-15.56,14.71l-1,.85-1,.83c-.69.54-1.36,1.11-2.06,1.61L87,386.67l-2.1,1.44c-2.81,1.88-5.62,3.62-8.45,5.18s-5.63,3-8.4,4.37-5.49,2.62-8.16,3.82c-5.33,2.4-10.42,4.57-15.18,6.66s-9.17,4.09-13.19,6.07-7.64,3.91-10.83,5.8-5.95,3.72-8.29,5.39c-.58.42-1.13.84-1.66,1.24s-1,.77-1.52,1.16c-.93.77-1.81,1.45-2.55,2.1l-2,1.74c-.55.51-1,1-1.37,1.31L2.24,434l0,0a.72.72,0,0,1-1-1l1.12-1.11c.38-.37.83-.83,1.38-1.36l2-1.8c.74-.68,1.63-1.38,2.57-2.19.47-.41,1-.79,1.52-1.21s1.09-.85,1.68-1.29c2.35-1.73,5.12-3.63,8.33-5.6s6.84-4,10.86-6,8.44-4.15,13.18-6.32,9.78-4.42,15.05-6.88c2.63-1.24,5.32-2.53,8-3.91s5.45-2.85,8.19-4.44,5.47-3.31,8.17-5.18c.66-.48,1.34-.95,2-1.43l2-1.51c.67-.5,1.28-1.05,1.93-1.57l1-.79,1-.86c5.07-4.53,9.93-9.74,15.24-14.88,1.34-1.28,2.7-2.56,4.1-3.82s2.87-2.49,4.38-3.69a59.88,59.88,0,0,1,9.88-6.38,51.47,51.47,0,0,1,23.67-5.48,52.1,52.1,0,0,1,6.24.48c2.06.27,4.11.63,6.15,1.06,4.05.87,8,2,12,3s7.91,2.05,11.88,2.68a44.62,44.62,0,0,0,11.86.47l.73-.08.7-.1c.47-.08.92-.13,1.45-.25l.78-.16.38-.07.13,0,.17-.05c.46-.13.95-.22,1.39-.37a14.45,14.45,0,0,0,4.81-2.32,8.58,8.58,0,0,0,1.67-1.74,9.6,9.6,0,0,0,1.11-2.22,22.05,22.05,0,0,0,1-5.57c.18-2,.27-4.14.43-6.31s.36-4.37.73-6.62a62.41,62.41,0,0,1,3.69-12.86A67.22,67.22,0,0,1,222,302.45a81.38,81.38,0,0,1,8.24-10.37,138,138,0,0,1,19.57-17c6.87-5,13.91-9.62,20.76-14.15l5.09-3.39,5.05-3.43c3.36-2.29,6.69-4.55,10-6.82,6.55-4.52,12.88-9.06,18.81-13.76a157.52,157.52,0,0,0,16.3-14.76c1.24-1.27,2.39-2.6,3.55-3.9s2.25-2.65,3.28-4a87.05,87.05,0,0,0,5.78-8.24l.66-1.05.61-1.06c.41-.71.83-1.4,1.21-2.12s.76-1.42,1.13-2.13.71-1.43,1.06-2.14c.71-1.42,1.3-2.88,1.93-4.3.3-.72.56-1.45.85-2.16s.56-1.43.79-2.16.5-1.44.74-2.15.43-1.41.65-2.11c.1-.35.21-.7.31-1.05l.16-.52.14-.56c.2-.75.39-1.49.58-2.23l.14-.56.07-.28,0-.14c0,.13,0,0,0-.05.07-.36.15-.71.23-1.07.16-.72.31-1.43.46-2.13.08-.36.16-.71.23-1.06l.19-1.06.39-2.09c1-5.58,1.58-10.94,2-16s.55-9.82.59-14.23-.07-8.46-.2-12.12c-.09-1.83-.18-3.56-.26-5.19s-.22-3.16-.32-4.58-.23-2.73-.33-3.94-.23-2.27-.32-3.25-.18-1.82-.28-2.58-.16-1.4-.22-1.91c-.12-1-.18-1.56-.18-1.56a5,5,0,1,1,10-1.16Z"/><path class="cls-1" d="M351.33,93.21c2.12,4.28,4.25,8.49,6.4,12.76s4.31,8.52,6.42,12.82,4.18,8.64,6.17,13,3.87,8.84,5.62,13.36a153.89,153.89,0,0,1,8.14,28,104.05,104.05,0,0,1,1.26,29.38l-.45,3.67-.6,3.64-.16.91-.19.91-.39,1.8c-.13.6-.25,1.2-.39,1.8l-.48,1.78-.47,1.79-.24.88-.27.88-1.11,3.51-1.28,3.44-.16.42-.19.44-.39.87-.78,1.75A67.65,67.65,0,0,1,370,243.8a82,82,0,0,1-10.12,10.77c-7.31,6.55-15.43,11.9-23.59,16.92s-16.45,9.7-24.35,14.86c-3.95,2.57-7.8,5.27-11.46,8.18-.89.74-1.81,1.47-2.7,2.23s-1.75,1.53-2.61,2.31l-1.26,1.2-.64.6-.31.3-.08.08s-.08.08-.05,0l-.15.16-.62.64c-.22.22-.37.41-.56.62-.36.39-.72.83-1.08,1.26a46,46,0,0,0-6.76,11.82,44.69,44.69,0,0,0-3.14,13.26,31.37,31.37,0,0,0,.23,6.72,23.1,23.1,0,0,0,.72,3.22c.15.54.34,1.05.53,1.56.09.26.21.5.31.75l.17.37.08.19,0,.05.05.1.41.79.21.4.2.34.41.69c.13.23.3.46.45.69a27.6,27.6,0,0,0,2,2.67,43.85,43.85,0,0,0,4.95,4.76c1.79,1.5,3.67,2.95,5.53,4.52a39.12,39.12,0,0,1,5.3,5.24,25.56,25.56,0,0,1,2.18,3.15l.46.85.22.42.2.44.39.88.34.9c.24.6.39,1.22.57,1.84s.29,1.24.42,1.86.21,1.25.27,1.88.13,1.25.14,1.88,0,1.24,0,1.88l0,.9-.05.95a29.83,29.83,0,0,1-.46,3.74,18.44,18.44,0,0,1-2.91,7.13,14.61,14.61,0,0,1-6.05,4.92,23.41,23.41,0,0,1-7.34,1.79,45.13,45.13,0,0,1-7.35,0c-2.42-.15-4.82-.43-7.2-.76-4.75-.65-9.44-1.51-14.12-2.06l-1.75-.18-.89-.07-.91-.1c-1.25-.15-2.41-.35-3.6-.55-2.35-.41-4.69-.83-7-1.18s-4.68-.65-7-.82a37.57,37.57,0,0,0-7,.1,15.91,15.91,0,0,0-3.27.77,7.2,7.2,0,0,0-2.71,1.63,4.58,4.58,0,0,0-1.37,2.64,8.8,8.8,0,0,0,.19,3.25,42.86,42.86,0,0,0,2.31,6.6c.45,1.11.91,2.22,1.3,3.38a13,13,0,0,1,.79,3.7h0a.69.69,0,0,1-.54.72h0a28.31,28.31,0,0,1-6.6.55c-2.19-.05-4.36-.27-6.51-.49s-4.27-.46-6.39-.56c-1.06,0-2.12-.05-3.16,0a18.48,18.48,0,0,0-3.07.45,10.57,10.57,0,0,0-5.22,2.92,12.87,12.87,0,0,0-1.84,2.45,30.25,30.25,0,0,0-1.53,2.76,31.34,31.34,0,0,0-1.2,2.92,11.81,11.81,0,0,1-1.43,3.11,9.22,9.22,0,0,1-2.64,2.29,30.46,30.46,0,0,1-2.94,1.53l-1.49.67-1.51.62-3,1.25c-1,.42-1.95.88-2.92,1.32l-2.89,1.4-2.86,1.48-2.83,1.54c-1.88,1-3.74,2.11-5.6,3.2-3.71,2.17-7.4,4.4-11.14,6.57q-2.81,1.63-5.65,3.19c-1,.52-1.91,1-2.86,1.53l-2.9,1.47a.72.72,0,1,1-.65-1.28h0l2.86-1.45c.95-.51,1.9-1,2.84-1.52q2.83-1.55,5.62-3.17c3.72-2.16,7.41-4.39,11.14-6.57q2.79-1.63,5.62-3.21c.95-.53,1.91-1,2.86-1.55l2.88-1.5,2.93-1.42c1-.45,2-.92,3-1.34l3-1.26,1.48-.61,1.46-.66a29.41,29.41,0,0,0,2.79-1.45,8,8,0,0,0,2.23-1.9,11.23,11.23,0,0,0,1.24-2.75,29,29,0,0,1,1.26-3.06,27.57,27.57,0,0,1,1.6-2.89,14.52,14.52,0,0,1,2-2.71,12.07,12.07,0,0,1,5.91-3.31,19.83,19.83,0,0,1,3.32-.48c1.11-.06,2.21-.06,3.31,0,2.19.1,4.34.34,6.48.57s4.27.43,6.39.48a27.16,27.16,0,0,0,6.26-.51l-.56.73h0a12,12,0,0,0-.77-3.25c-.38-1.1-.84-2.18-1.31-3.28a43.68,43.68,0,0,1-2.49-6.84,10.48,10.48,0,0,1-.26-3.85,4.71,4.71,0,0,1,.08-.5l.13-.49a6,6,0,0,1,.39-1,6.91,6.91,0,0,1,1.2-1.66,8.85,8.85,0,0,1,3.32-2.09,17.11,17.11,0,0,1,3.65-.91,37.46,37.46,0,0,1,7.32-.21c2.42.13,4.82.4,7.2.73s4.74.71,7.08,1.08c1.17.18,2.35.36,3.48.49l.87.08.88.06,1.81.16c4.8.49,9.5,1.29,14.2,1.87,2.35.28,4.69.52,7,.64a45.68,45.68,0,0,0,6.93-.13,21,21,0,0,0,6.47-1.66,11.86,11.86,0,0,0,4.86-4.05,15.71,15.71,0,0,0,2.33-6.05,26.61,26.61,0,0,0,.37-3.35l0-.83v-.9c0-.55,0-1.13-.05-1.69a19.89,19.89,0,0,0-4.65-12.18c-2.87-3.44-6.77-6.1-10.53-9.17a47.68,47.68,0,0,1-5.41-5.07,29.64,29.64,0,0,1-2.34-3c-.18-.26-.37-.51-.54-.79l-.51-.85-.26-.42-.21-.39-.42-.79a29.41,29.41,0,0,1-2.73-14.89,48.73,48.73,0,0,1,3.21-14.5,49.94,49.94,0,0,1,7.21-13c.4-.5.78-1,1.22-1.48.21-.24.44-.51.64-.72l.61-.65.15-.16.2-.19.32-.32.66-.64,1.31-1.29c.89-.83,1.8-1.64,2.7-2.46l2.78-2.36c3.76-3.08,7.69-5.91,11.68-8.6,8-5.38,16.25-10.2,24.26-15.27s15.77-10.38,22.58-16.66a76.92,76.92,0,0,0,9.29-10.17,62.59,62.59,0,0,0,7-11.7l.65-1.52.33-.77.17-.38.15-.41,1.17-3.28,1-3.32.25-.83.21-.84.42-1.68.42-1.68c.13-.56.23-1.13.35-1.7l.34-1.69.17-.85.13-.85.52-3.42.37-3.43a97.62,97.62,0,0,0-1.58-27.54,146.61,146.61,0,0,0-8.17-26.68q-2.62-6.51-5.64-12.91c-2-4.27-4.11-8.5-6.25-12.73-4.3-8.43-8.81-16.86-13.16-25.36v0a4,4,0,0,1,7-3.6Z"/><path class="cls-1" d="M290.67,97.2l0,1.11,0,1.37c0,.55,0,1.17-.05,1.92-.11,3-.34,7.24-1,12.68a142.65,142.65,0,0,1-3.53,19.42,116.71,116.71,0,0,1-3.6,11.66A102.79,102.79,0,0,1,277,157.79a81.11,81.11,0,0,1-8.08,12.51,66.49,66.49,0,0,1-11.35,11.33,61.39,61.39,0,0,1-14.69,8.49c-.68.27-1.34.56-2,.81l-2.07.69-1,.35c-.35.12-.7.23-1.06.32l-2.13.56-1.07.28-.53.13-.55.11-2.17.43-1.09.21-.28.06-.13,0-.22,0-.53.07-2.12.28c-.68.11-1.47.16-2.22.23l-2.29.19-2.24.08c-.75,0-1.5.06-2.25.05-1.49,0-3,0-4.5-.08l-2.25-.1-2.24-.17c-3-.21-6-.58-9-1s-6-.91-8.94-1.46c-5.95-1.09-11.88-2.38-17.8-3.66-1.48-.32-3-.65-4.39-.92s-2.93-.54-4.41-.77q-4.42-.7-8.9-1.17a151.08,151.08,0,0,0-17.9-.78A96,96,0,0,0,119,186.79a55.36,55.36,0,0,0-8.27,2.38,35.84,35.84,0,0,0-7.47,3.77,24.71,24.71,0,0,0-5.91,5.47c-.2.27-.4.53-.58.81a9.07,9.07,0,0,0-.54.83l-.26.42-.11.19-.13.23-.52,1c-.19.32-.34.62-.49.92l-.46.91c-.29.62-.59,1.24-.86,1.88-.56,1.26-1.06,2.54-1.53,3.84s-.89,2.61-1.3,3.93c-.83,2.65-1.57,5.36-2.68,8a24.81,24.81,0,0,1-2,3.9,18.84,18.84,0,0,1-2.8,3.42,21,21,0,0,1-3.41,2.65c-.59.39-1.21.71-1.82,1s-1.24.62-1.86.9a51.25,51.25,0,0,1-7.54,2.57c-2.46.65-4.83,1.32-7.18,2-4.69,1.39-9.17,2.88-13.4,4.5a108.33,108.33,0,0,0-22,11A59,59,0,0,0,12,266.09c-.83,1-1.49,2.06-2.17,3-.3.49-.6,1-.88,1.44l-.42.68-.37.68-.69,1.3c-.22.41-.39.83-.58,1.21l-.51,1.12c-.17.35-.28.71-.42,1-.25.66-.48,1.23-.66,1.73s-.29.94-.4,1.28l-.33,1.05,0,0a.72.72,0,0,1-1.37-.42l.32-1.09.4-1.33c.17-.53.4-1.13.65-1.81.13-.34.24-.71.41-1.07l.51-1.17c.19-.41.35-.85.58-1.28l.69-1.35.37-.72.42-.72c.29-.48.58-1,.89-1.51.68-1,1.35-2.09,2.19-3.16a51.81,51.81,0,0,1,5.94-6.7,70.31,70.31,0,0,1,8.15-6.66A110.65,110.65,0,0,1,46.93,240q6.41-2.57,13.5-4.81c2.35-.74,4.78-1.47,7.22-2.17a48.38,48.38,0,0,0,7-2.53c.56-.27,1.11-.56,1.66-.84s1.09-.61,1.59-1a17.24,17.24,0,0,0,2.85-2.31,17.43,17.43,0,0,0,3.94-6.27c1-2.41,1.63-5.07,2.42-7.78.4-1.36.82-2.73,1.28-4.11s1-2.74,1.54-4.1c.28-.69.6-1.35.89-2l.5-1c.16-.35.33-.69.5-1l.5-.95.12-.24.16-.28.3-.51c.19-.34.41-.66.62-1s.44-.65.67-1a28.45,28.45,0,0,1,6.74-6.49,40.2,40.2,0,0,1,8.22-4.35,60,60,0,0,1,8.86-2.73,99.13,99.13,0,0,1,18.33-2.28,154.51,154.51,0,0,1,18.51.46q4.62.39,9.21,1c1.53.22,3.05.46,4.58.72s3,.57,4.53.86c5.95,1.17,11.84,2.34,17.68,3.3,2.93.49,5.84.9,8.73,1.27s5.78.62,8.64.78l2.14.12,2.13.05c1.41.06,2.82,0,4.22,0,.7,0,1.39-.05,2.08-.09l2.08-.11,2-.2c.67-.07,1.31-.12,2-.24l2.11-.33.53-.08s.17,0,0,0l.13,0,.24-.06,1-.21,2-.42.49-.11.48-.13,1-.27,1.91-.54c.32-.09.63-.2.94-.31l.93-.33,1.85-.65c.61-.23,1.2-.51,1.8-.76a54.38,54.38,0,0,0,12.92-7.79,59.45,59.45,0,0,0,10-10.32,72.91,72.91,0,0,0,7.13-11.51,95.37,95.37,0,0,0,4.87-11.59,111.06,111.06,0,0,0,3.16-11,135.46,135.46,0,0,0,3-18.39c.49-5.15.64-9.25.68-12,0-.67,0-1.31,0-1.85V97.1a4.32,4.32,0,0,1,8.63,0Z"/><path class="cls-1" d="M373.8,87.21l1.26,2.45c.2.35.42.75.67,1.18s.48.89.82,1.41l1,1.67,1.23,1.85a102,102,0,0,0,7.16,9.08l4.91,5.57c1.75,2,3.59,4.15,5.44,6.49l.7.88.17.22.09.11.12.15,0,.06.32.44.65.9c.1.14.23.32.35.51l.36.55c.24.36.47.73.72,1.11s.41.72.62,1.08c.44.72.82,1.47,1.2,2.22a63.58,63.58,0,0,1,3.83,9.49c1.06,3.28,1.94,6.66,2.75,10.09s1.55,6.87,2.28,10.45a193.12,193.12,0,0,1,3.27,22.33,121.59,121.59,0,0,1-.21,23.43A89.61,89.61,0,0,1,408,223.78a86,86,0,0,1-11,19.84l-.87,1.1c-.28.35-.53.69-.85,1.05l-.93,1.07c-.31.36-.62.71-.94,1-.64.65-1.25,1.33-1.92,1.94s-1.29,1.25-2,1.83a90,90,0,0,1-8.14,6.37c-5.47,3.83-10.82,7-15.64,10.14a119.07,119.07,0,0,0-12.62,9,51,51,0,0,0-8.23,8.52,38.66,38.66,0,0,0-3.95,6.5c-.38.8-.61,1.43-.8,1.85l-.26.63,0,.05a.73.73,0,0,1-.94.38.72.72,0,0,1-.39-.92l.25-.67c.18-.44.4-1.11.76-1.95a40.59,40.59,0,0,1,3.88-6.93,53.48,53.48,0,0,1,8.23-9.14,121.88,121.88,0,0,1,12.55-9.67c4.74-3.29,10-6.68,15.16-10.6a86.64,86.64,0,0,0,7.59-6.38c.62-.57,1.2-1.18,1.79-1.79s1.15-1.24,1.72-1.87c.29-.31.56-.63.81-.95l.79-1c.27-.31.53-.71.8-1.06l.76-1a81.22,81.22,0,0,0,9.79-19.13,85,85,0,0,0,4.46-21.66,116.38,116.38,0,0,0-.59-22.25,187.55,187.55,0,0,0-3.91-21.38c-.83-3.44-1.71-6.87-2.59-10.15s-1.84-6.42-2.91-9.38a55.29,55.29,0,0,0-3.63-8.17c-.34-.62-.68-1.23-1.05-1.8l-.55-.87-.53-.76-.26-.38a4.16,4.16,0,0,0-.3-.4l-.68-.88-.34-.43-.26-.31c-.23-.26-.45-.53-.67-.79-3.59-4.22-7.26-7.91-10.51-11.39a110.94,110.94,0,0,1-8.15-9.64l-1.48-2.06-1.24-1.87c-.39-.56-.73-1.16-1.05-1.67l-.86-1.42L364.94,92a5,5,0,0,1,8.77-4.93S373.77,87.17,373.8,87.21Z"/><path class="cls-2" d="M269.64,153.88a4.2,4.2,0,0,0-7,.39c-7.09,12.43-18.79,21-35,16.33-26.13-7.55-34.5-34.62-31-59.93,7.67-55,53.79-81.06,102.13-97.3C346.1-2.52,395.69-2.95,432,33.79,447.07,49,457.29,65.48,459,87.15c1.27,16.1-5.41,29.78-22,31.35a4.18,4.18,0,0,0-3.62,3.1c-5.51,20.78-35.26,41.89-55,29a4.26,4.26,0,0,0-5.53.69c-8.59,9.54-13.4,20-27.35,24.66-10.76,3.57-20.69,3.24-31.35.65C297.8,172.61,279.88,167.61,269.64,153.88Z"/><path class="cls-1" d="M463.85,95.56a72.94,72.94,0,0,0-11.67-34.2A72.81,72.81,0,0,1,459,87.15c1.24,15.76-5.13,29.2-21,31.24a6,6,0,0,0-4.95,4.24c-6.22,20.52-35.53,40.81-54.91,27.8a3.89,3.89,0,0,0-5.05.56c-8.75,9.62-13.51,20.27-27.6,24.94-10.76,3.57-20.69,3.24-31.35.65-16.68-4.05-35-9.17-45.12-23.53a3.46,3.46,0,0,0-5.88.3c-7,12.93-18.91,22.05-35.52,17.25-20.95-6-30.48-24.66-31.61-44.84-1.3,23.23,7.91,46.37,32.2,53.25,18.28,5.19,30.92-5.88,37.81-20.43a1.36,1.36,0,0,1,2.41-.1c9.76,16.66,29.77,22.19,47.89,26.52,10.86,2.59,21,2.91,31.93-.66,13.89-4.52,18.88-14.65,27.27-24a5.33,5.33,0,0,1,6.73-1c19.7,12,48.78-7.93,55.13-28.14a6.3,6.3,0,0,1,5.17-4.39C458.64,124.72,465.1,111.3,463.85,95.56Z"/><path class="cls-3" d="M240.72,72.23c11.66,25.87,40.59,29.33,66.38,26.17a44.82,44.82,0,0,0,20.11-7.79c5.68-4.16,7.45-11.81,13.08-15.11,12.93-7.56,33.16,6.1,46.8-3.77,2.52-1.82,3.19-5.53,5.75-7.29,3.34-2.29,7.32-1.78,10.8-3.33C411.28,57.7,420.73,45.7,413.71,38"/><path class="cls-1" d="M309.11,69.21C299.59,72.15,295.84,79,285,78.26c-5.08-.35-19.49-2.59-23.13-6-14.39-13.62,13.71-33.58,24.92-37,10-3.07,20.4-2.8,30.68-4.47,16-2.61,31.48-8,48-8.81,8.74-.39,29.11-3.5,32.25,8,1.8,6.58-7.75,17.28-12.09,21.41-11.76,11.2-25.42,6.67-39.88,4C330.38,52.44,319.55,63.07,309.11,69.21Z"/><path class="cls-4" d="M286.65,45.46a8.28,8.28,0,0,1,3.6-.4c8.52-.13,16.05,1.11,7.28,11.24-3.45,4-13.86,8-20.14,6.44a4.46,4.46,0,0,1-3-5.94c2.71-7.12,5.55-9,12.25-11.34Z"/><path class="cls-4" d="M361.89,48c6.21-4.28,9.71-2.44,17.7-2.1A1.6,1.6,0,0,1,381,47.94c-1.79,5.32-10.22,3.31-15.05,5.12a5.42,5.42,0,0,1-4,0c-.69-.28-1.37-.51-2-.81a1.38,1.38,0,0,1-.38-2.24l.93-.92A11.5,11.5,0,0,1,361.89,48Z"/><path class="cls-5" d="M384.07,136.52a8.33,8.33,0,0,0,2.93,9.63c5.34,4,12.86,3.81,18.32-1.49,3.78-3.65,2.77-9.17-.34-13-3.53-4.36-11-4-15.67-1.41A12,12,0,0,0,384.07,136.52Z"/><path class="cls-5" d="M407.86,124.31a1.12,1.12,0,0,0,0,1c1.51,3.78,2.71,9,7.05,10,3.18.79,5.94-.58,8.18-2.68a15.9,15.9,0,0,0,3.74-17.5c-3.12-7.69-7-2.89-10.16,1.73-1.65,2.4-3,4.28-5.61,5.59C409.82,123,408.38,123.4,407.86,124.31Z"/><path class="cls-6" d="M430.47,104.42a46.18,46.18,0,0,1,2.69,6.7"/><path class="cls-6" d="M424.1,92.35a23.81,23.81,0,0,1,3,5"/><path class="cls-6" d="M372.47,136.94a43.63,43.63,0,0,1,1.35,6.37"/><path class="cls-6" d="M367.11,122.86c1.21,2.08,2.51,3.73,2.68,6"/><path class="cls-6" d="M363.09,114.14c.34.87.69,1.8,1,2.68"/><path class="cls-6" d="M360.41,108.1c.22.67.44,1.35.67,2"/><path class="cls-6" d="M356.38,102.07l1.34,2"/><path class="cls-6" d="M421.09,87l1,1"/><path class="cls-6" d="M418.07,81.28l1,2"/><path class="cls-6" d="M416.06,78.27l.33.67"/><path class="cls-6" d="M264.86,139a5.53,5.53,0,0,0,.33,3.69"/><path class="cls-6" d="M264.52,131.57v2.35"/><path class="cls-6" d="M264.52,123.86v2.68"/><path class="cls-6" d="M264.86,117.49l-.34,2"/><path class="cls-6" d="M265.19,110.79l-.33,2.34"/><ellipse class="cls-5" cx="386.95" cy="123.69" rx="5.83" ry="5.2"/><path class="cls-5" d="M385.3,110.79a3,3,0,1,1-3-3A3,3,0,0,1,385.3,110.79Z"/><ellipse class="cls-5" cx="403.41" cy="113.64" rx="5.52" ry="5.87"/><ellipse class="cls-5" cx="322.46" cy="166.27" rx="5.52" ry="5.87"/><path class="cls-5" d="M323.88,153.27a3.1,3.1,0,1,1-3.1-3.19A3.15,3.15,0,0,1,323.88,153.27Z"/><ellipse class="cls-5" cx="342.41" cy="153.36" rx="13.97" ry="11.76"/><path class="cls-5" d="M417.85,105.09a3.34,3.34,0,1,1-3.32-3A3.18,3.18,0,0,1,417.85,105.09Z"/><path class="cls-5" d="M398.65,100c1,1.58.78,3.45-.4,4.16s-2.91,0-3.87-1.58-.78-3.45.4-4.16S397.69,98.37,398.65,100Z"/><path class="cls-5" d="M409.78,93.88c.72,1.5.39,3.16-.73,3.7s-2.63-.24-3.35-1.74-.39-3.16.73-3.7S409.06,92.38,409.78,93.88Z"/><path class="cls-5" d="M403.41,86.52A1.39,1.39,0,1,1,402,85.06,1.43,1.43,0,0,1,403.41,86.52Z"/><path class="cls-5" d="M392.78,92.35a1.48,1.48,0,1,1-1.48-1.51A1.5,1.5,0,0,1,392.78,92.35Z"/><path class="cls-5" d="M381,102.38a1.56,1.56,0,1,1-2-1.27A1.72,1.72,0,0,1,381,102.38Z"/><path class="cls-5" d="M377,95.62a1.19,1.19,0,1,1-1.64-.93A1.36,1.36,0,0,1,377,95.62Z"/><path class="cls-5" d="M356.38,124.07a3,3,0,1,1-3-3A3,3,0,0,1,356.38,124.07Z"/><path class="cls-5" d="M352.11,115.66a1.56,1.56,0,1,1-2-1.26A1.71,1.71,0,0,1,352.11,115.66Z"/><ellipse class="cls-5" cx="347" cy="109.36" rx="1.15" ry="1.51" transform="translate(-15.04 145.3) rotate(-23.16)"/><path class="cls-5" d="M295.57,136.81a5,5,0,1,1-2.46-6.57A5,5,0,0,1,295.57,136.81Z"/><path class="cls-5" d="M291.14,124.45a2.57,2.57,0,1,1-2.19-3.3A2.81,2.81,0,0,1,291.14,124.45Z"/><ellipse class="cls-5" cx="311.12" cy="126.54" rx="3.04" ry="2.53" transform="translate(151.83 422.24) rotate(-83.82)"/><path class="cls-5" d="M290.51,115.53c0,1.37-.9,2.46-1.94,2.43s-1.86-1.16-1.83-2.53.9-2.46,1.95-2.43S290.54,114.15,290.51,115.53Z"/><path class="cls-5" d="M311.21,118.54a1.67,1.67,0,1,1-3.21-.08c0-1.17.77-2.09,1.65-2.07A1.92,1.92,0,0,1,311.21,118.54Z"/><path class="cls-5" d="M309.6,111.15c0,.74-.49,1.33-1.05,1.31a1.39,1.39,0,0,1,.07-2.68C309.18,109.79,309.62,110.41,309.6,111.15Z"/><path class="cls-5" d="M344.45,102.09a1.22,1.22,0,0,1-1.05,1.32c-.56,0-1-.62-1-1.37s.49-1.33,1.06-1.31A1.2,1.2,0,0,1,344.45,102.09Z"/><ellipse class="cls-5" cx="336.64" cy="131.72" rx="8.2" ry="5.61" transform="translate(-23.93 105.97) rotate(-17.28)"/><ellipse class="cls-5" cx="332.06" cy="119.6" rx="5.97" ry="3.43" transform="translate(-20.77 110.7) rotate(-18.36)"/><path class="cls-5" d="M329.52,107.92c1.51.33,2.53,1.53,2.28,2.68s-1.69,1.81-3.2,1.47-2.53-1.53-2.28-2.68S328,107.58,329.52,107.92Z"/><path class="cls-5" d="M390.46,88.7a1.38,1.38,0,0,1-2.74,0,1.38,1.38,0,0,1,2.74,0Z"/><path class="cls-5" d="M387.72,84.18A1.38,1.38,0,1,1,386.35,83,1.29,1.29,0,0,1,387.72,84.18Z"/><path class="cls-5" d="M441.23,56.89a1.38,1.38,0,1,1-1.37-1.21A1.3,1.3,0,0,1,441.23,56.89Z"/><path class="cls-5" d="M399.26,79.77a1.37,1.37,0,1,1-1.37-1.38A1.38,1.38,0,0,1,399.26,79.77Z"/><path class="cls-5" d="M248.73,149.4a8.31,8.31,0,0,1-1.46,10c-4.68,4.75-12.14,5.68-18.33,1.27-4.28-3-4.11-8.66-1.6-12.93,2.83-4.83,10.25-5.56,15.27-3.72A11.94,11.94,0,0,1,248.73,149.4Z"/><path class="cls-5" d="M313.31,153.2c1.42,3.71-.79,7.34-5.21,9.07A25.16,25.16,0,0,1,283,157.71c-4.77-4.27-2.71-9.57,2.05-12.87,5.4-3.73,15.62-2.09,21.78,1.25A14,14,0,0,1,313.31,153.2Z"/><path class="cls-5" d="M223.39,140.88a1.09,1.09,0,0,1,.16.93c-.92,4-1.33,9.26-5.47,11-3,1.26-6,.31-8.49-1.44a15.89,15.89,0,0,1-6.3-16.74c1.93-8.06,6.47-3.9,10.3.19,2,2.13,3.58,3.79,6.38,4.7C221.25,139.91,222.74,140.05,223.39,140.88Z"/><path class="cls-5" d="M235,137.81c.43,2.84,3.36,4.75,6.54,4.26s5.42-3.17,5-6-3.35-4.74-6.54-4.26S234.52,135,235,137.81Z"/><path class="cls-5" d="M305.36,137.81c.43,2.84,3.35,4.75,6.54,4.26s5.42-3.17,5-6-3.36-4.74-6.54-4.26S304.93,135,305.36,137.81Z"/><path class="cls-5" d="M353.4,141c.43,2.84,3.36,4.75,6.55,4.27s5.41-3.17,5-6-3.36-4.75-6.55-4.27S353,138.15,353.4,141Z"/><path class="cls-5" d="M240.69,124.59a3,3,0,1,0,2.53-3.44A3,3,0,0,0,240.69,124.59Z"/><ellipse class="cls-5" cx="222.03" cy="128.89" rx="5.52" ry="5.87" transform="translate(-16.77 34.63) rotate(-8.59)"/><ellipse class="cls-5" cx="207.28" cy="117.49" rx="3.33" ry="3.02" transform="translate(-15.23 32.29) rotate(-8.59)"/><path class="cls-5" d="M223.26,115.42c-.71,1.71-.26,3.52,1,4s2.88-.43,3.59-2.14.25-3.52-1-4S224,113.71,223.26,115.42Z"/><path class="cls-5" d="M208.44,104.63c-.49,1.59.08,3.18,1.28,3.55s2.56-.63,3.05-2.22-.09-3.18-1.28-3.55S208.93,103,208.44,104.63Z"/><path class="cls-5" d="M213.24,96.28a1.39,1.39,0,1,0,2.74-.41,1.39,1.39,0,1,0-2.74.41Z"/><path class="cls-5" d="M226.74,107a1.48,1.48,0,1,0,1.24-1.71A1.48,1.48,0,0,0,226.74,107Z"/><path class="cls-5" d="M228.22,111.85a1.48,1.48,0,1,0,1.24-1.72A1.5,1.5,0,0,0,228.22,111.85Z"/><path class="cls-5" d="M226.85,123.08a1.48,1.48,0,1,0,1.24-1.72A1.5,1.5,0,0,0,226.85,123.08Z"/><path class="cls-5" d="M245,116.11a1.56,1.56,0,1,0,1.83-1.56A1.71,1.71,0,0,0,245,116.11Z"/><path class="cls-5" d="M248.48,108.82a1.36,1.36,0,0,0,.73,1.75c.61.16,1.28-.37,1.49-1.17a1.19,1.19,0,1,0-2.22-.58Z"/><path class="cls-5" d="M228.33,101.44a1.38,1.38,0,1,0,1.17-1.4A1.3,1.3,0,0,0,228.33,101.44Z"/><path class="cls-5" d="M232.42,104.29a1.38,1.38,0,1,0,1.18-1.41A1.3,1.3,0,0,0,232.42,104.29Z"/><path class="cls-5" d="M231.06,95.07a1.38,1.38,0,1,0,1.17-1.41A1.29,1.29,0,0,0,231.06,95.07Z"/><path class="cls-5" d="M217.93,87.19a1.37,1.37,0,1,0,2.71-.41,1.37,1.37,0,1,0-2.71.41Z"/><path class="cls-5" d="M220.68,81.36a1.37,1.37,0,1,0,1.15-1.57A1.38,1.38,0,0,0,220.68,81.36Z"/><path class="cls-5" d="M453.59,81.28a3.34,3.34,0,1,1-3.33-3A3.18,3.18,0,0,1,453.59,81.28Z"/><ellipse class="cls-5" cx="441.7" cy="106.8" rx="5.19" ry="5.36"/><path class="cls-5" d="M454.73,87.72c2.46,1.11,3.27,4.65,1.8,7.92s-4.65,5-7.11,3.92-3.27-4.65-1.8-7.92S452.27,86.62,454.73,87.72Z"/><path class="cls-5" d="M449,70.62c.72,1.5.39,3.16-.74,3.7s-2.62-.24-3.34-1.74-.4-3.16.73-3.7S448.26,69.12,449,70.62Z"/><path class="cls-5" d="M444.84,63.86A1.4,1.4,0,1,1,442.42,65a1.4,1.4,0,1,1,2.42-1.16Z"/><path class="cls-5" d="M440.85,94.75a3.34,3.34,0,1,1-3.33-3A3.18,3.18,0,0,1,440.85,94.75Z"/><path class="cls-5" d="M432.1,77.33a1.4,1.4,0,1,1-2-1A1.61,1.61,0,0,1,432.1,77.33Z"/><path class="cls-5" d="M428.94,71.71a1,1,0,1,1-1.84.89,1,1,0,1,1,1.84-.89Z"/><path class="cls-5" d="M426.09,66.77a.86.86,0,1,1-1.17-.46A.89.89,0,0,1,426.09,66.77Z"/><path class="cls-5" d="M438.39,52.19a.88.88,0,0,1-.36,1.2.93.93,0,0,1-.81-1.67A.89.89,0,0,1,438.39,52.19Z"/><path class="cls-5" d="M435.41,47.28a.89.89,0,0,1-.36,1.21.91.91,0,0,1-1.18-.47.89.89,0,0,1,.37-1.2A.88.88,0,0,1,435.41,47.28Z"/><path class="cls-5" d="M434,85.94a1.4,1.4,0,1,1-2-1A1.61,1.61,0,0,1,434,85.94Z"/><ellipse class="cls-5" cx="436.84" cy="86.98" rx="1.34" ry="1.79" transform="translate(5.37 197.55) rotate(-25.63)"/></svg>