<svg id="Layer_1" data-name="Layer 1" xmlns="http://www.w3.org/2000/svg" viewBox="0 0 335 325"><defs><style>.cls-1{fill:#e5428c;stroke:#c42694;stroke-miterlimit:10;}.cls-1,.cls-2,.cls-3,.cls-4,.cls-5,.cls-6,.cls-7,.cls-8{fill-rule:evenodd;}.cls-2{fill:#ff8aa9;}.cls-3{fill:#ffd4df;}.cls-4{fill:#ce1974;}.cls-5{fill:#fc4e6e;}.cls-6{fill:#c4103f;}.cls-7{fill:#fc708e;}.cls-8{fill:#5889d9;opacity:0.2;}</style></defs><path id="color_1" data-name="color 1" class="cls-1" d="M146.1,2.81h0c6,1.79,11,8.42,15.28,14.28l2.49,3.31c5.77,7.45,9.81,12.73,15,20.86,12,18.56,15.93,57.45,17.42,61,3.76,8.85,11.37,17.27,18.1,20,6.24,2.54,16.79,4.23,24.56,3.94,18.84-.72,52.76-12.22,72.94-24.86,5.56-3.48,13.83-10.39,19-9.25,2.36.53,2.36,4,2.65,6.15a30.34,30.34,0,0,1-.46,8.36c-4.82,30.79-17.24,46.6-41.89,62.64-7.63,5-16.65,9.16-25.23,13-5.5,2.49-11.18,5.07-16.43,7.85-4.62,4.86-6.88,13.27-6.22,23.09.08,1.14.19,2.27.34,3.39.89,6.95,1.95,14.11,4,20.48.7,2.2,1.42,4.47,2.09,6.73A202.69,202.69,0,0,0,259,269.57c3.91,8.54,7.61,16.6,12.82,23,2.61,3.21,5.31,6.52,7.84,9.7.57.71,1.17,1.4,1.81,2.13,2.31,2.64,4.69,5.38,5.17,9.05,0,.05,0,.1,0,.14l0,.12-.07.08c-3.4,4.24-10.66,6-15.37,4.25-34.77-12.56-51.49-24.94-53.67-26.42a125.09,125.09,0,0,1-21.4-18.7c-2.76-3-13.89-16.34-17.61-17.91-3.43-1.45-9.18-2.45-13.71-1.22-2.06.56-4.46,2.53-6.38,4.11l-.36.29c-7.65,6.26-13.77,11.1-18.69,14.77,0,0-34.71,27.48-66.71,44.58-5.68,3-16.66,6.57-22.62,3.85a7,7,0,0,1-3.89-4.48C44.76,312.16,48,306.48,51,302.05c5.65-8.4,10.53-13.89,16.33-21.6,4.38-5.81,10.8-14.46,14.94-19.8,17.46-22.5,21-39.3,19.44-51.7-1-7.6-4.83-10.19-9.31-13.19l-.29-.19c-1.86-1.24-3.82-2.31-5.72-3.33l-1.67-.92C70.82,183.64,58,179.75,45.51,171.15l-3.68-2.53C29.87,160.37,14,147.2,6.2,131.37c-3-6-6.6-14.56-4.05-19,2.06-3.54,6.9-4.76,14.38-3.6A61.3,61.3,0,0,1,30,112.6L33.52,114a221.12,221.12,0,0,0,22,7.67,161.12,161.12,0,0,0,26.15,5.27c8,.92,24-.75,33.18-4.49,5.15-2.08,7.34-6.2,9.87-11l.51-1,.77-1.43a60.71,60.71,0,0,0,4.41-9.35c1.63-5,2.31-10.57,3-16.42.26-2.14.54-4.34.86-6.55,2.45-16.8,4-30.54,3.08-51.15l-.17-3c-.5-8.78-1-17.86,5.17-19.55A7,7,0,0,1,146.1,2.81Z"/><g id="light_1" data-name="light 1"><path class="cls-2" d="M144.25,7.81c-9,6.66,8.19,64-13.87,105.86-6.38,12.1-17.32,16.79-26.11,16.82s-48.73-2.43-54-4.78S11.87,110.9,7.76,113.08s72.85,36.12,117.57,46.54c9,2.1,32.58,5.68,35.41-4.29s4.08-71.1,2-89S150,3.61,144.25,7.81Z"/><path class="cls-2" d="M324.81,98.9c-69.63,48.53-102.63,32.58-113.35,28.2s-31.2,28.46-26.1,36S217.11,173,235,166.62s45.2-18,58-27.64S317.93,117.9,324.81,98.9Z"/><path class="cls-2" d="M157.13,189c-14.8.27-47.14,1.14-46.89,6.88,1.12,25.66-8.13,40.68-13.7,50.62C90.07,258.05,55.91,301.57,56,306.65c.09,7.13,34.86-22.71,51-40.9s36.77-45.86,43.34-55C157.07,201.38,170,188.79,157.13,189Z"/><path class="cls-2" d="M182.33,188.6c5.3-2.88,34.22,9.86,35.76,19s4.25,25.12,10.13,37.24c15.46,31.87,25.13,40.48,23.32,44.58-3.25,7.38-36.13-21.88-47.89-33.54s-20.07-19.3-23-23.31S177,191.48,182.33,188.6Z"/></g><g id="light_2" data-name="light 2"><path class="cls-3" d="M145.28,11.52c5.19,29.54,8.59,79.9-9.94,100.14C151.47,75,140,15.5,145.28,11.52Z"/><path class="cls-3" d="M11.55,114.79c75.63,37.19,99.19,19,103.77,16.2C64.81,135.31,18.84,113.85,11.55,114.79Z"/><path class="cls-3" d="M113,200.2c9.92,23.7-19.33,64.52-54.26,104.45C63.19,294.46,112.61,239.78,113,200.2Z"/><path class="cls-3" d="M185.92,193c4.8,9.54,34.52,63.92,61.19,94C209.84,249.22,196.77,221.79,185.92,193Z"/><path class="cls-3" d="M320.1,105c-11.42,32.78-88.64,66.47-115.06,63.84C241.05,162.81,299.89,135.61,320.1,105Z"/><path class="cls-3" d="M159.17,151.69c-1.56-78-1-87.19-12.13-139.29C163.08,53.7,161.75,86.56,159.17,151.69Z"/><path class="cls-3" d="M68.81,138.64c31.41,7.2,47.15,16.43,77.46,21.58C138.62,162.58,92.32,148.51,68.81,138.64Z"/><path class="cls-3" d="M66,301c33.78-23.3,84.9-92.48,91.34-104.29C128.72,230.57,118,246.76,66,301Z"/></g><g id="shadow"><path class="cls-4" d="M258.29,273.05c1,2,2,3.91,2.94,5.77,1.06,2.16,1.83,4.46,3,6.58.71,1.31,1.49,2.59,2.2,3.91a56.41,56.41,0,0,0,10.42,13c3.46,3.39,6.62,6.55,6.73,9.56s-3.4,3.46-9.48,3.15-14.07-2.29-27-9.15c-14.14-7.51-21.49-11.23-31.55-19-2.26-1.75-4.46-3.59-6.55-5.54-3-2.85-6.45-5.16-9.35-8.2-3.09-3.23-5.9-6.72-8.94-10-4.76-5.14-9.55-12.63-16.93-13.47-8.32-1-16.12,3.86-21.86,9.44-4.88,4.75-31,24.85-40.33,31.54s-38,26.6-51,28-11.79-2-11.94-5.32c0,.83,4.16,2.17,5,2.29a8.41,8.41,0,0,0,4.63-1c4.77-2.07,9.87-3.37,14.43-5.91a119.27,119.27,0,0,0,12-7.76c1.59-1.14,3.29-1.95,5-3a97.88,97.88,0,0,0,10-7c7.81-6.35,16.65-12.19,23.29-19.86,7-8,12.18-15.52,20-22.78,6.66-6.2,18.14-11.55,27.28-8.14a32.8,32.8,0,0,1,9.94,6.46c2.71,2.39,3.2,5,5.74,7.58,3.37,3.42,6.7,6.54,9.76,10.3a49.41,49.41,0,0,0,11.52,10.11c4.26,2.7,7.9,6.3,12.29,8.8,4.08,2.33,7.74,5.36,11.79,7.81,7.11,4.3,14.43,8.39,22.4,10.85,2.33.71,16.57,7.19,15.31.93-.91-4.5-3.48-8-5.82-11.81-2.22-3.63-4-7.88-5.92-11.74a185.48,185.48,0,0,1-9.55-22.78c-.94-2.73-1.42-5.43-2.68-8-2.05-4.2-1.24-8.77-2.9-13.11-1.4-3.67-1.83-7.55-3-11.26-2.65-8.3-5.37-16.79-6.85-25.4-.79-4.67-1-11.1,1.7-15.18a14.78,14.78,0,0,1,8.84-5.88c3.74-.82,7.57-2.77,11-4.51,4.63-2.32,9.29-4.58,13.95-6.83A98.26,98.26,0,0,0,278.76,160c3.85-2.53,20.36-10.35,24.47-14.53,3.9-3.95,7.53-8.16,11.29-12.25s7.54-8.92,9.81-14.21c2.2-5.11,3.28-10.4,5.13-15.64.79-2.22.24-4.55,1-6.77,0,.14.6,1.82.64,2.07a19.19,19.19,0,0,1,.08,4.08,69.92,69.92,0,0,1-1,8.14,79.66,79.66,0,0,1-1.56,8.44c-3.82,13.78-10.75,24.71-20.27,35.44-7.11,8-14.84,11.46-24.31,16.51a79.83,79.83,0,0,1-7.55,3.25c-4.35,1.75-8.19,4.37-12.44,6.28-4.59,2.06-9.46,3.53-13.81,6.09-4.75,2.81-6.54,6.34-8.42,11.37-2.31,6.16-1.26,13.92-.14,20.2.84,4.77,2.43,9.4,3.29,14.21,1.13,6.29,1.65,12.71,4.07,18.59,1.35,3.28,2.8,6.63,4.37,9.82,1.43,2.92,2.17,6.11,3.53,9.05C257.34,271.13,257.81,272.09,258.29,273.05Z"/><path class="cls-4" d="M4.45,121.47s8.09,20.1,23.17,32.7,34.38,21,46.84,28.22S99,195.7,102,200.24s3.64-10.08-23.44-26.35c-13-7.82-35.68-14-48-22.3S4.45,121.47,4.45,121.47Z"/><path class="cls-4" d="M197.83,109.77c-8.25-10.74-5.34-21.25-8.15-32.3-1.89-7.42-3.86-17.52-5.76-21.79a84.53,84.53,0,0,0-8.81-16.16,66.46,66.46,0,0,0,3.49,12.73c5.63,15.33,4.54,24.55,5.49,33.42C184.91,93.33,188.34,108.13,197.83,109.77Z"/><path class="cls-4" d="M240.19,173.26c-7.34,5.49-14.4-2.38-16-6s12.11-11.76,14.75-9.75S246.61,168.46,240.19,173.26Z"/><path class="cls-4" d="M172.23,130.91c-7.34,5.49-14.4-2.38-16-6s12.12-11.75,14.76-9.74S178.64,126.11,172.23,130.91Z"/><path class="cls-4" d="M218.06,241.4c-7.34,5.49-14.4-2.38-16-6s12.12-11.75,14.76-9.74S224.47,236.6,218.06,241.4Z"/><path class="cls-4" d="M139.51,241.1c-.66.5-3,4-9.32.88a14,14,0,0,1-3.62-2.67c-1.21-1.2-1.52-2.84-1.9-4.45-.23-1-.65-2,0-2.9a9.43,9.43,0,0,1,1.68-1.66,26.87,26.87,0,0,1,4.39-3,17.67,17.67,0,0,1,4.8-2.2c.7-.13,1.36-.16,2.07-.3a1.42,1.42,0,0,1,1.55.61,15.43,15.43,0,0,1,2.36,4.42,13.36,13.36,0,0,1,1.1,3.83A7.89,7.89,0,0,1,139.51,241.1Z"/><path class="cls-4" d="M118,173.37c-7.35,5.5-14.4-2.38-16-6s12.12-11.75,14.75-9.74S124.45,168.58,118,173.37Z"/><path class="cls-4" d="M267.42,163.18c-5.51,4.12-10.8-1.78-12-4.51s9.09-8.82,11.07-7.31S272.22,159.59,267.42,163.18Z"/><path class="cls-4" d="M169.28,99.74c-5.51,4.12-10.8-1.79-12-4.52s9.09-8.81,11.07-7.3S174.09,96.15,169.28,99.74Z"/><path class="cls-4" d="M86.65,160.15c-5.51,4.13-10.8-1.78-12-4.51s9.09-8.82,11.07-7.31S91.46,156.56,86.65,160.15Z"/><path class="cls-4" d="M121.62,265.93c-5.51,4.12-10.8-1.78-12-4.51s9.09-8.82,11.07-7.31S126.43,262.34,121.62,265.93Z"/><path class="cls-4" d="M228.48,263.43c-5.5,4.12-10.8-1.78-12-4.51s9.09-8.82,11.07-7.31S233.29,259.84,228.48,263.43Z"/><path class="cls-4" d="M289.15,148.85c-4.13,3.09-8.26-.49-9.15-2.54s7-7.46,8.47-6.33C297,146.49,285.69,151.44,289.15,148.85Z"/><path class="cls-4" d="M166.45,73.76c-4.14,3.09-8.27-.5-9.15-2.55s9-7.45,10.47-6.32S170.05,71.06,166.45,73.76Z"/><path class="cls-4" d="M62.8,147.86c-4.13,3.09-8.27,4.51-9.15,2.46s7-12.45,8.47-11.33S66.4,145.17,62.8,147.86Z"/><path class="cls-4" d="M242.31,281.42c-4.13,3.09-8.26-.49-9.15-2.54s7-7.46,8.47-6.33S245.92,278.72,242.31,281.42Z"/><path class="cls-4" d="M103.12,282.33c-4.14,3.09-8.27-.5-9.15-2.54s7-7.46,8.46-6.33S106.72,279.63,103.12,282.33Z"/><path class="cls-4" d="M88.55,294.56c-3.51,2.63-7-.42-7.77-2.16S86.71,286.06,88,287,91.62,292.27,88.55,294.56Z"/><path class="cls-4" d="M255.24,294c-3.51,2.62-7-.42-7.78-2.16s5.94-6.34,7.2-5.38S258.3,291.66,255.24,294Z"/><path class="cls-4" d="M305.17,139.67c-3.51,2.62-7-.42-7.77-2.17s5.93-6.33,7.2-5.37S308.24,137.37,305.17,139.67Z"/><path class="cls-4" d="M163,52.42c-3.51,2.62-7-.43-7.77-2.17s5.93-6.33,7.19-5.37S166.07,50.12,163,52.42Z"/><path class="cls-4" d="M44.87,143.29c-3.51,2.63-7-.42-7.77-2.16s5.93-6.34,7.19-5.38S47.94,141,44.87,143.29Z"/><path class="cls-4" d="M155.74,34.22c-2.63,2-5.27-.32-5.83-1.62s4.45-4.76,5.4-4S158,32.5,155.74,34.22Z"/><path class="cls-4" d="M29,132.53c-2.63,2-5.27-.32-5.83-1.63s4.45-4.75,5.4-4S31.26,130.81,29,132.53Z"/><path class="cls-4" d="M318.22,124.22c-2.63,2-5.27-.32-5.83-1.62s4.45-4.76,5.4-4S320.52,122.5,318.22,124.22Z"/><path class="cls-4" d="M74.73,306.31c-2.64,2-5.27-.31-5.84-1.62s4.46-4.75,5.4-4S77,304.59,74.73,306.31Z"/><path class="cls-4" d="M180,193.59c-9.18,6.86-18-3-20-7.53s15.14-14.69,18.44-12.18S188,187.59,180,193.59Z"/></g><g id="color_eyebrows_eyelids_thorns_" data-name="color (eyebrows, eyelids, thorns)"><path class="cls-5" d="M154.92,29.56l.07.15-.09.13a3.27,3.27,0,0,0-.46,1.09c-.17.62-.34,1.25-1.33,1.43a1.78,1.78,0,0,1-2.26-1.27c-.32-1.2.26-3,1.41-3.47C152.8,27.42,153.86,27.4,154.92,29.56Z"/><path class="cls-5" d="M157.3,43.62a3.74,3.74,0,0,1,4.2,3.52c.2,1.78-.66,3.72-2.69,4h0c-1.86.23-3.15-1.35-3.57-2.93a3.67,3.67,0,0,1,2-4.54l0,0Z"/><path class="cls-5" d="M163.14,63.18c2.86,0,4.57,1.12,5.08,3.44.62,2.79-3.16,4.59-5.19,5.14s-4.76-.15-5.53-2.57c-.5-1.59,1.69-3.11,2.54-4.3A4.06,4.06,0,0,1,163.14,63.18Z"/><path class="cls-5" d="M162.46,85.55c4.44,1.3,6.73,3.33,7,6.22a5.48,5.48,0,0,1-3.78,5.77,7,7,0,0,1-8.08-2.2l0,0v0c-1.37-5.58,1.44-8,4.69-9.68l.1,0Z"/><path class="cls-5" d="M169.91,114.86h0a7.9,7.9,0,0,1,2.45,7.31,8.88,8.88,0,0,1-5.17,6.66,8.06,8.06,0,0,1-7.65-.75,8.31,8.31,0,0,1-3.6-7.16,6.84,6.84,0,0,1,1.26-3.61,12.72,12.72,0,0,0,1.26-2.56l0-.09.08,0C162.36,112.19,167.13,112.29,169.91,114.86Z"/><path class="cls-5" d="M25.66,127a2.51,2.51,0,0,1,1.42,2.5v.09l-.05.07a2.64,2.64,0,0,1-3,.94,2.78,2.78,0,0,1-1.84-2.74v-.12l.09-.08A3.14,3.14,0,0,1,25.66,127Z"/><path class="cls-5" d="M41.43,135.24a3.38,3.38,0,0,1,2.2,3.34h0a2.81,2.81,0,0,1-1.7,2.43,4.31,4.31,0,0,1-4.27-.32,4,4,0,0,1-1.4-4v-.08l0-.06A4.62,4.62,0,0,1,41.43,135.24Z"/><path class="cls-5" d="M56.68,142.48c2.23-.24,4.62-4.22,4.94-1.38h0a4.1,4.1,0,0,1-1,3.26c-1.07,1.21-2.82,6.88-4.92,6.89h-.12l-.08-.08A17,17,0,0,0,54.19,150c-1-.82-1.91-1.6-2-3C51.87,144.42,54.28,142.74,56.68,142.48Z"/><path class="cls-5" d="M82.83,146.91h0a5.23,5.23,0,0,1,2.59,3.27,7.16,7.16,0,0,1,0,5.3c-1,1.77-4.08,3.34-5.86,3.34a5.3,5.3,0,0,1-4.16-2.16,8.36,8.36,0,0,1-1.38-7.1l0-.08.06-.06C76.28,147.34,80,145.66,82.83,146.91Z"/><path class="cls-5" d="M113.75,155l.06,0,0,0c2.48,1.82,3.87,5.22,4.14,10.12v.08a7.65,7.65,0,0,1-8.08,5.8,9,9,0,0,1-8.57-7.31v-.05a8.58,8.58,0,0,1,3.19-6.91A10.79,10.79,0,0,1,113.75,155Z"/><path class="cls-5" d="M316.78,119.36c.23.4.6,1.47-1,2.78l-.08.06-.71,0a3.92,3.92,0,0,1-2.36-.5l-.07-.06,0-.1c-.46-2.19.71-2.89,1.23-3.09A2.6,2.6,0,0,1,316.78,119.36Z"/><path class="cls-5" d="M301.74,131.4a2.75,2.75,0,0,1,2.15,1.87h0a3.62,3.62,0,0,1-1.67,4.25,4,4,0,0,1-5-.71l0-.05,0,0a3.92,3.92,0,0,1,.63-4A4.24,4.24,0,0,1,301.74,131.4Z"/><path class="cls-5" d="M286.9,139.77c1.22,1.89.69,5.18-1.1,6.9-1.41,1.35-3.26,1.4-5.09.12h0a4.41,4.41,0,0,1-1.72-3.55,5.24,5.24,0,0,1,1.85-4.31l0,0h0C284.67,137.39,286.28,138.8,286.9,139.77Z"/><path class="cls-5" d="M262.13,149.82h0c2.56.29,4.61,2,5,3.41a6.94,6.94,0,0,1-3.82,8.22,5.65,5.65,0,0,1-6.41-1.66,6.9,6.9,0,0,1-1.05-7.39C256.51,151.24,258.15,149.36,262.13,149.82Z"/><path class="cls-5" d="M231.8,155.37h0c3.77,0,6.81,1.95,7.74,5,1.44,4.71-1.11,9.45-4.3,10.75-3.4,1.38-8.5-.78-10.29-2.91a7.46,7.46,0,0,1-1.21-8.08A8.68,8.68,0,0,1,231.8,155.37Z"/><path class="cls-5" d="M137,224.21h0a7.36,7.36,0,0,1,3.8,6.76,8.41,8.41,0,0,1-4.21,7.5,7.57,7.57,0,0,1-3,.62,14.13,14.13,0,0,0-2.73.41h-.08l-.07,0a8.9,8.9,0,0,1-6.55-9.06,11.77,11.77,0,0,1,1.88-5.35C128.84,222.24,134.75,223,137,224.21Z"/><path class="cls-5" d="M118.19,252.4c2.51,1,3.91,3.64,3.83,7.21v.07a5.78,5.78,0,0,1-4,3.66,7.92,7.92,0,0,1-7.1-.77l0,0,0-.06c-1.66-3.26-1.5-6.34.43-8.44A6.33,6.33,0,0,1,118.19,252.4Z"/><path class="cls-5" d="M100.09,271.5h0a4.58,4.58,0,0,1,2.31,5.56,4.88,4.88,0,0,1-5.77,3.35h-.06l0,0a5.11,5.11,0,0,1-2.08-6.9A4.26,4.26,0,0,1,100.09,271.5Z"/><path class="cls-5" d="M85.68,285.85A2.58,2.58,0,0,1,88,287.5h0a4,4,0,0,1-1.2,4.63,3.78,3.78,0,0,1-4.69,0l0,0,0-.05a3.79,3.79,0,0,1-.24-4.13A4.36,4.36,0,0,1,85.68,285.85Z"/><path class="cls-5" d="M72.85,300.45a2.29,2.29,0,0,1,.44,2.62,2.7,2.7,0,0,1-2.89,1.59h-.1l-.08-.07c-1-1.06-.81-2.57-.52-3.76l0-.11.1-.06C71.5,299.64,72.44,300.09,72.85,300.45Z"/><path class="cls-5" d="M214,224a9.22,9.22,0,0,1,4.6,10.6l0,.08-.07.06a7.91,7.91,0,0,0-1.46,1.76,6.41,6.41,0,0,1-2.71,2.65c-4.14,1.65-10.28-.57-11.48-3.38-1.42-3.31.09-8.12,1.79-10.11A7.32,7.32,0,0,1,214,224Z"/><path class="cls-5" d="M223.54,249.26c3,.28,4.5,3,4.82,5.29s-.37,5.27-2.77,6.23a6.13,6.13,0,0,1-7.14-1.35,6.82,6.82,0,0,1-1.31-7.36C217.75,250.85,219.38,248.86,223.54,249.26Z"/><path class="cls-5" d="M237.86,270.75h0a4.86,4.86,0,0,1,3.44,3.1,4.05,4.05,0,0,1-.47,4.11c-1.45,1.83-5.17,1.9-6.89.62a4.19,4.19,0,0,1-1.47-5.05A4.82,4.82,0,0,1,237.86,270.75Z"/><path class="cls-5" d="M251.56,285.53a3.52,3.52,0,0,1,2.51,2.86,3,3,0,0,1-.43,2.45,6.44,6.44,0,0,0-.52,1.11l-.05.15-.16,0c-2.91.48-4.74-.09-5.43-1.69a3.38,3.38,0,0,1,.38-3.76A3.74,3.74,0,0,1,251.56,285.53Z"/><path class="cls-4" d="M264.54,298.75a3,3,0,0,1,.88,3.42l0,.14-.14,0a4.57,4.57,0,0,1-3.25-.29l-.41-.16,0-.15a6.93,6.93,0,0,1-.07-2.85l0-.11.08,0A2.46,2.46,0,0,1,264.54,298.75Z"/><path class="cls-5" d="M174.62,171.75l.06,0,.06,0c3.09,2.28,4.83,6.53,5.17,12.65v.1a9.53,9.53,0,0,1-10.1,7.24c-4.45-.22-9.7-3.18-10.71-9.13v0a10.71,10.71,0,0,1,4-8.64A13.45,13.45,0,0,1,174.62,171.75Z"/></g><g id="shadow-2" data-name="shadow"><path class="cls-6" d="M174,184.92a24.09,24.09,0,0,1-4.8,2.44,7.14,7.14,0,0,1-2.35.64c-.45,0-1.4-.19-1.76.16-.52.52.53,1.27.95,1.52a9.18,9.18,0,0,0,5.94.61,7.85,7.85,0,0,0,6-5.57c.35-1.27.93-4,0-5.15s-1,.94-1.19,1.41A10.73,10.73,0,0,1,175,184,8.73,8.73,0,0,1,174,184.92Z"/><path class="cls-6" d="M235,165.76a19,19,0,0,1-3.84,2,5.9,5.9,0,0,1-1.88.51c-.36,0-1.12-.15-1.41.14s.42,1,.76,1.2a7.27,7.27,0,0,0,4.76.5,6.27,6.27,0,0,0,4.82-4.46c.28-1,.75-3.21,0-4.12s-.81.75-1,1.12a8.37,8.37,0,0,1-1.44,2.46A6.91,6.91,0,0,1,235,165.76Z"/><path class="cls-6" d="M263.69,157.21a14.14,14.14,0,0,1-2.87,1.47,4.61,4.61,0,0,1-1.41.38c-.27,0-.84-.11-1.06.1s.32.76.57.91a5.54,5.54,0,0,0,3.57.37,4.72,4.72,0,0,0,3.62-3.35c.21-.76.56-2.4,0-3.08s-.61.56-.71.84a6.59,6.59,0,0,1-1.08,1.84A4.5,4.5,0,0,1,263.69,157.21Z"/><path class="cls-6" d="M284.68,143.72a9.59,9.59,0,0,1-1.94,1,3.12,3.12,0,0,1-.95.26c-.18,0-.57-.08-.72.06s.22.52.39.62a3.76,3.76,0,0,0,2.41.25,3.19,3.19,0,0,0,2.44-2.26c.14-.52.38-1.62,0-2.08s-.41.38-.48.56a4.31,4.31,0,0,1-.73,1.24A2.86,2.86,0,0,1,284.68,143.72Z"/><path class="cls-6" d="M301.73,135a6.84,6.84,0,0,1-1.45.74,2.27,2.27,0,0,1-.72.2c-.13,0-.42-.06-.53.05s.16.38.28.46a2.82,2.82,0,0,0,1.81.18A2.36,2.36,0,0,0,303,135c.11-.38.29-1.22,0-1.56s-.31.28-.36.42a3.36,3.36,0,0,1-.55.93A2,2,0,0,1,301.73,135Z"/><path class="cls-6" d="M167.53,123.53a19,19,0,0,1-3.84,2,6.1,6.1,0,0,1-1.88.51c-.36,0-1.12-.16-1.41.13s.42,1,.76,1.21a7.34,7.34,0,0,0,4.76.49,6.29,6.29,0,0,0,4.83-4.46c.28-1,.74-3.21,0-4.11s-.81.75-.95,1.12a8.32,8.32,0,0,1-1.44,2.45A5.49,5.49,0,0,1,167.53,123.53Z"/><path class="cls-6" d="M165.56,93.55A13.88,13.88,0,0,1,162.69,95a4.61,4.61,0,0,1-1.41.38c-.27,0-.84-.11-1.06.1s.32.76.57.91a5.54,5.54,0,0,0,3.57.37A4.72,4.72,0,0,0,168,93.43c.21-.76.56-2.4,0-3.08s-.61.56-.71.84A6.36,6.36,0,0,1,166.17,93,4.5,4.5,0,0,1,165.56,93.55Z"/><path class="cls-6" d="M165.52,68.62c-.59.44-3.27.7-3.94,1a3.12,3.12,0,0,1-1,.26c-.18,0-.57-.08-.71.06s.21.52.38.62a3.76,3.76,0,0,0,2.41.25c1.15-.23,4.13-1.1,4.44-2.26.14-.52.38-1.63,0-2.09s-.41.38-.48.57a4.31,4.31,0,0,1-.73,1.24A2.86,2.86,0,0,1,165.52,68.62Z"/><path class="cls-6" d="M159.6,48.05a7.42,7.42,0,0,1-1.46.74,2.29,2.29,0,0,1-.71.2c-.14,0-.43-.06-.54,0s.16.38.29.46a2.78,2.78,0,0,0,1.8.18A2.39,2.39,0,0,0,160.82,48c.1-.39.28-1.22,0-1.56s-.31.28-.36.42a3.36,3.36,0,0,1-.55.93A1.93,1.93,0,0,1,159.6,48.05Z"/><path class="cls-6" d="M113.26,165.19a18.71,18.71,0,0,1-3.83,2,6,6,0,0,1-1.89.51c-.36,0-1.12-.15-1.4.13s.42,1,.75,1.21a7.35,7.35,0,0,0,4.76.5,6.29,6.29,0,0,0,4.83-4.47c.28-1,.75-3.2,0-4.11s-.82.75-.95,1.12a8.78,8.78,0,0,1-1.44,2.45A5.51,5.51,0,0,1,113.26,165.19Z"/><path class="cls-6" d="M82.08,154a14.67,14.67,0,0,1-2.87,1.47,4.77,4.77,0,0,1-1.41.38c-.27,0-.85-.12-1.06.1s.31.76.57.9a5.47,5.47,0,0,0,3.57.37,4.69,4.69,0,0,0,3.62-3.34c.21-.76.56-2.41,0-3.09s-.61.57-.71.84a6.32,6.32,0,0,1-1.08,1.84A4.55,4.55,0,0,1,82.08,154Z"/><path class="cls-6" d="M58.06,147.76a9.63,9.63,0,0,1-1.94,1,2.91,2.91,0,0,1-.95.25c-.19,0-.57-.07-.72.07s.21.51.39.61a3.67,3.67,0,0,0,2.4.25,3.16,3.16,0,0,0,2.45-2.26c.14-.51.38-1.62,0-2.08s-.42.38-.48.57a4.45,4.45,0,0,1-.73,1.24A2.8,2.8,0,0,1,58.06,147.76Z"/><path class="cls-6" d="M41,138.66a7.15,7.15,0,0,1-1.46.74,2.13,2.13,0,0,1-.71.19c-.14,0-.43-.05-.54,0s.16.39.29.46a2.74,2.74,0,0,0,1.81.19,2.39,2.39,0,0,0,1.83-1.69c.11-.39.29-1.22,0-1.57s-.31.29-.36.43a3.1,3.1,0,0,1-.54.93A2.73,2.73,0,0,1,41,138.66Z"/><path class="cls-6" d="M135.67,233.55a19.18,19.18,0,0,1-3.83,1.95A6.25,6.25,0,0,1,130,236c-.35,0-1.12-.16-1.4.13s.42,1,.76,1.21a7.31,7.31,0,0,0,4.75.49,6.29,6.29,0,0,0,4.83-4.46c.28-1,.75-3.21,0-4.12s-.82.76-1,1.13a8.92,8.92,0,0,1-1.44,2.45A6.18,6.18,0,0,1,135.67,233.55Z"/><path class="cls-6" d="M118,259.19a13.45,13.45,0,0,1-2.88,1.46,4.36,4.36,0,0,1-1.41.39c-.27,0-.84-.12-1.05.1s.31.76.57.9a5.45,5.45,0,0,0,3.56.37,4.69,4.69,0,0,0,3.62-3.34c.21-.76.56-2.41,0-3.09s-.61.57-.72.84a6.29,6.29,0,0,1-1.07,1.84A5.27,5.27,0,0,1,118,259.19Z"/><path class="cls-6" d="M99.47,276.87a9.59,9.59,0,0,1-1.94,1,2.75,2.75,0,0,1-1,.26c-.18,0-.57-.08-.71.07s.21.51.38.61a3.7,3.7,0,0,0,2.41.25,3.16,3.16,0,0,0,2.44-2.26c.15-.51.38-1.62,0-2.08s-.41.38-.48.57a4.19,4.19,0,0,1-.72,1.24A3.58,3.58,0,0,1,99.47,276.87Z"/><path class="cls-6" d="M85.51,289.87a7.11,7.11,0,0,1-1.45.75,2.26,2.26,0,0,1-.72.19c-.13,0-.42-.06-.53.05s.16.39.29.46a2.79,2.79,0,0,0,1.8.19,2.4,2.4,0,0,0,1.84-1.7c.1-.38.28-1.21,0-1.56s-.31.29-.36.43a3.51,3.51,0,0,1-.55.93A2,2,0,0,1,85.51,289.87Z"/><path class="cls-6" d="M214,233.88a19,19,0,0,1-3.84,2,5.9,5.9,0,0,1-1.88.51c-.36,0-1.12-.15-1.41.14s.42,1,.76,1.21a7.35,7.35,0,0,0,4.76.49,6.29,6.29,0,0,0,4.83-4.46c.28-1,.74-3.21,0-4.12s-.82.75-.95,1.13a9.07,9.07,0,0,1-1.44,2.45A7,7,0,0,1,214,233.88Z"/><path class="cls-6" d="M224.81,256.61a14,14,0,0,1-2.88,1.47,4.34,4.34,0,0,1-1.41.38c-.27,0-.84-.11-1.05.1s.31.76.57.91a5.51,5.51,0,0,0,3.56.37,4.75,4.75,0,0,0,3.63-3.35c.2-.76.55-2.4,0-3.08s-.61.56-.71.84a6.84,6.84,0,0,1-1.08,1.84A5.21,5.21,0,0,1,224.81,256.61Z"/><path class="cls-6" d="M238.39,276a9.59,9.59,0,0,1-1.94,1,3.12,3.12,0,0,1-.95.26c-.19,0-.57-.08-.72.06s.22.52.39.62a3.75,3.75,0,0,0,2.41.25,3.19,3.19,0,0,0,2.44-2.26c.14-.52.38-1.62,0-2.08s-.41.38-.48.56a4.36,4.36,0,0,1-.73,1.25A3.58,3.58,0,0,1,238.39,276Z"/><path class="cls-6" d="M251.54,289.48a7.11,7.11,0,0,1-1.45.75,2.55,2.55,0,0,1-.72.19c-.13,0-.42-.06-.53.05s.16.39.29.46a2.79,2.79,0,0,0,1.8.19,2.4,2.4,0,0,0,1.84-1.7c.1-.38.28-1.21,0-1.56s-.31.29-.36.43a3.51,3.51,0,0,1-.55.93A2,2,0,0,1,251.54,289.48Z"/></g><g id="light_1-2" data-name="light 1"><path class="cls-7" d="M173.66,181.57a15.76,15.76,0,0,1-6.87,4.73c-2,.66-6.25,1.51-7.41-.87a8.78,8.78,0,0,1,1.36-9.8,13.12,13.12,0,0,1,2-1.67,16.26,16.26,0,0,1,7.3-2.91c2-.19,4-.69,5.56.88C177.89,174.14,175.18,179.65,173.66,181.57Z"/><path class="cls-7" d="M236.86,157.55a11.79,11.79,0,0,1-2.14,5.53,9,9,0,0,1-2.53,2.2,12.64,12.64,0,0,1-4.71,1.73c-1,.15-3.22.35-4.11-.35-1.05-.85-1.11-3.1-1-4.3a7.14,7.14,0,0,1,2-4A10.55,10.55,0,0,1,226,157c2.69-1.78,6.43-3.4,9.48-1.51.67.42,1.3.81,1.36,1.63A3.23,3.23,0,0,1,236.86,157.55Z"/><path class="cls-7" d="M265.12,151.06a8.84,8.84,0,0,1-1.61,4.15,6.6,6.6,0,0,1-1.89,1.64,9.36,9.36,0,0,1-3.53,1.3c-.78.11-2.42.27-3.08-.26s-.84-2.33-.72-3.23a5.36,5.36,0,0,1,1.47-3,7.8,7.8,0,0,1,1.23-1c2-1.34,4.83-2.55,7.11-1.13.51.31,1,.6,1,1.22A1.82,1.82,0,0,1,265.12,151.06Z"/><path class="cls-7" d="M285.65,139.57a6.07,6.07,0,0,1-1.09,2.8,4.54,4.54,0,0,1-1.28,1.11,6.59,6.59,0,0,1-2.38.88,3.42,3.42,0,0,1-2.08-.19c-.54-.42-.56-1.56-.49-2.17a3.59,3.59,0,0,1,1-2,4.93,4.93,0,0,1,.83-.68c1.36-.9,3.25-1.72,4.8-.76.34.21.66.41.69.82Z"/><path class="cls-7" d="M302.45,131.92a4.41,4.41,0,0,1-.81,2.09,3.34,3.34,0,0,1-1,.84,4.72,4.72,0,0,1-1.79.66,2.55,2.55,0,0,1-1.55-.14c-.41-.32-.43-1.18-.37-1.63a2.68,2.68,0,0,1,.75-1.53,4.31,4.31,0,0,1,.62-.51c1-.67,2.44-1.29,3.6-.57.25.16.49.31.52.62A1,1,0,0,1,302.45,131.92Z"/><path class="cls-7" d="M316.09,118.88a3,3,0,0,1-.55,1.41,2.36,2.36,0,0,1-.65.57,3.27,3.27,0,0,1-1.21.44,1.71,1.71,0,0,1-1.05-.09c-.27-.22-.28-.79-.24-1.1a1.82,1.82,0,0,1,.5-1,2.79,2.79,0,0,1,.42-.35,2.32,2.32,0,0,1,2.43-.38c.17.1.33.2.35.41Z"/><path class="cls-7" d="M169.43,115.32a11.87,11.87,0,0,1-2.14,5.54,9,9,0,0,1-2.53,2.19,12.49,12.49,0,0,1-4.71,1.74c-.9.12-2.65.57-3.45-.05s-1.14-2.55-1.24-3.46a12.07,12.07,0,0,1,.75-3.72,7.44,7.44,0,0,1,1.4-2.39,7.36,7.36,0,0,1,5.23-2.63c1.85-.11,3.67-.32,5.33.72.68.41,1.31.81,1.37,1.62A3.2,3.2,0,0,1,169.43,115.32Z"/><path class="cls-7" d="M167,87.4a8.82,8.82,0,0,1-1.6,4.15,6.78,6.78,0,0,1-1.9,1.64A9.55,9.55,0,0,1,160,94.5c-.78.1-2.42.26-3.08-.27s-.83-2.33-.72-3.23a5.37,5.37,0,0,1,1.48-3,7,7,0,0,1,1.23-1c2-1.34,4.82-2.55,7.1-1.13.51.31,1,.6,1,1.22C167,87.18,167,87.29,167,87.4Z"/><path class="cls-7" d="M166.49,64.46a6,6,0,0,1-1.09,2.8,4.39,4.39,0,0,1-1.28,1.11,19.23,19.23,0,0,1-4.38.88c-.53.08.37.18-.08-.18s-.56-1.57-.48-2.17a3.58,3.58,0,0,1,1-2,5.36,5.36,0,0,1,.83-.68c1.36-.9,3.26-1.72,4.8-.76.34.21.66.41.69.82A1.62,1.62,0,0,1,166.49,64.46Z"/><path class="cls-7" d="M160.32,44.93a4.55,4.55,0,0,1-.81,2.1,3.38,3.38,0,0,1-1,.84,4.73,4.73,0,0,1-1.78.66,2.58,2.58,0,0,1-1.56-.14c-.4-.32-.42-1.18-.36-1.63a2.66,2.66,0,0,1,.74-1.53,4.31,4.31,0,0,1,.62-.51c1-.67,2.44-1.29,3.6-.57.26.16.5.31.52.62Z"/><path class="cls-7" d="M154.28,28.4a2.92,2.92,0,0,1-.55,1.41,2.18,2.18,0,0,1-.65.56,3.07,3.07,0,0,1-1.2.45,1.7,1.7,0,0,1-1-.09,1.39,1.39,0,0,1-.25-1.1,1.85,1.85,0,0,1,.5-1,3.47,3.47,0,0,1,.42-.34,2.34,2.34,0,0,1,2.43-.39c.18.11.34.21.35.42A.24.24,0,0,1,154.28,28.4Z"/><path class="cls-7" d="M115.16,157a11.69,11.69,0,0,1-2.14,5.53,8.86,8.86,0,0,1-2.53,2.19,12.42,12.42,0,0,1-4.71,1.74c-1,.14-3.21.35-4.1-.36-1.05-.84-1.11-3.1-1-4.3a7.1,7.1,0,0,1,2-4,9.6,9.6,0,0,1,1.64-1.34c2.68-1.78,6.43-3.4,9.48-1.51.67.42,1.3.81,1.36,1.63A2.17,2.17,0,0,1,115.16,157Z"/><path class="cls-7" d="M83.51,147.86A8.8,8.8,0,0,1,81.9,152,6.78,6.78,0,0,1,80,153.66a9.36,9.36,0,0,1-3.53,1.3c-.78.11-2.42.26-3.08-.27s-.84-2.32-.72-3.22a5.3,5.3,0,0,1,1.47-3,7.37,7.37,0,0,1,1.23-1c2-1.34,4.83-2.55,7.11-1.14.51.32,1,.61,1,1.22A1.82,1.82,0,0,1,83.51,147.86Z"/><path class="cls-7" d="M59,143.61a6,6,0,0,1-1.08,2.8,4.54,4.54,0,0,1-1.28,1.11,6.22,6.22,0,0,1-2.39.88,3.39,3.39,0,0,1-2.07-.18c-.54-.43-.57-1.57-.49-2.18a3.65,3.65,0,0,1,1-2,5.41,5.41,0,0,1,.83-.67c1.35-.9,3.25-1.72,4.8-.77.34.21.65.41.69.83A1.62,1.62,0,0,1,59,143.61Z"/><path class="cls-7" d="M41.7,135.54a4.44,4.44,0,0,1-.81,2.1,3.31,3.31,0,0,1-1,.83,4.86,4.86,0,0,1-1.79.67,2.59,2.59,0,0,1-1.56-.14c-.4-.32-.42-1.18-.36-1.63a2.62,2.62,0,0,1,.75-1.53,3.44,3.44,0,0,1,.62-.51c1-.68,2.44-1.29,3.6-.57.25.15.49.3.51.61A.48.48,0,0,1,41.7,135.54Z"/><path class="cls-7" d="M25.87,127.13a3.11,3.11,0,0,1-.55,1.42,2.33,2.33,0,0,1-.65.56,3.05,3.05,0,0,1-1.2.44,1.74,1.74,0,0,1-1.06-.09c-.27-.21-.28-.79-.24-1.1a1.82,1.82,0,0,1,.5-1,2.72,2.72,0,0,1,.42-.34,2.3,2.3,0,0,1,2.43-.39c.17.11.34.21.35.42Z"/><path class="cls-7" d="M137.58,225.34a11.81,11.81,0,0,1-2.15,5.53,8.89,8.89,0,0,1-2.53,2.2,12.59,12.59,0,0,1-4.7,1.73c-1.8.25-3.57.52-4.34-1.4a7.6,7.6,0,0,1-.1-4.94c.84-2.21,1.94-4.56,4.5-5.07s5.4-1.7,8-.12c.67.42,1.3.81,1.36,1.63A3.23,3.23,0,0,1,137.58,225.34Z"/><path class="cls-7" d="M115.89,258.83c-1.64,1-7.12,2.65-6.88-.76.32-4.36,4.61-8.12,9.15-6.75,2.48.75.65,4.58-.37,5.86A6.68,6.68,0,0,1,115.89,258.83Z"/><path class="cls-7" d="M100.43,272.72a6,6,0,0,1-1.08,2.8,4.58,4.58,0,0,1-1.29,1.11,6.28,6.28,0,0,1-2.38.88,3.43,3.43,0,0,1-2.08-.18c-.53-.43-.56-1.57-.48-2.18a3.61,3.61,0,0,1,1-2,5.29,5.29,0,0,1,.83-.67c1.36-.9,3.26-1.72,4.8-.77.34.21.66.41.69.83A.81.81,0,0,1,100.43,272.72Z"/><path class="cls-7" d="M86.24,286.76a4.46,4.46,0,0,1-.82,2.1,3.33,3.33,0,0,1-1,.83,4.73,4.73,0,0,1-1.78.66,2.58,2.58,0,0,1-1.56-.13c-.4-.32-.42-1.18-.37-1.64a2.81,2.81,0,0,1,.75-1.53,4.24,4.24,0,0,1,.62-.5c1-.68,2.44-1.29,3.6-.58.26.16.5.31.52.62Z"/><path class="cls-7" d="M72.72,300.56a3,3,0,0,1-.55,1.42,2.29,2.29,0,0,1-.64.56,3.28,3.28,0,0,1-1.21.45,1.77,1.77,0,0,1-1-.1c-.27-.21-.29-.79-.25-1.1a1.78,1.78,0,0,1,.51-1,3,3,0,0,1,2.85-.73c.17.11.33.21.34.42A.2.2,0,0,1,72.72,300.56Z"/><path class="cls-7" d="M215.86,225.67a11.79,11.79,0,0,1-2.14,5.53,9,9,0,0,1-2.53,2.2,12.64,12.64,0,0,1-4.71,1.73c-1,.15-3.22.35-4.1-.35-1.32-1.06-.86-3.18-.52-4.57a10.24,10.24,0,0,1,1.43-3.09c2.14-3.38,7.46-5.85,11.22-3.52.67.42,1.3.81,1.36,1.63A3.23,3.23,0,0,1,215.86,225.67Z"/><path class="cls-7" d="M226.24,250.46a8.84,8.84,0,0,1-1.61,4.15,6.64,6.64,0,0,1-1.9,1.64,9.3,9.3,0,0,1-3.53,1.3c-.78.11-2.41.27-3.07-.26s-.84-2.33-.72-3.23a5.36,5.36,0,0,1,1.47-3,7.37,7.37,0,0,1,1.23-1c2-1.34,4.82-2.55,7.11-1.13.5.31,1,.6,1,1.22A1.82,1.82,0,0,1,226.24,250.46Z"/><path class="cls-7" d="M239.36,271.85a6.07,6.07,0,0,1-1.09,2.8,4.54,4.54,0,0,1-1.28,1.11,6.41,6.41,0,0,1-2.38.88,3.42,3.42,0,0,1-2.08-.19c-.54-.42-.56-1.56-.49-2.17a3.59,3.59,0,0,1,1-2,5.47,5.47,0,0,1,.83-.68c1.36-.9,3.26-1.72,4.8-.76.34.21.66.41.69.82Z"/><path class="cls-7" d="M252.27,286.37a4.46,4.46,0,0,1-.82,2.1,3.33,3.33,0,0,1-1,.83,4.73,4.73,0,0,1-1.78.66,2.65,2.65,0,0,1-1.56-.13c-.4-.32-.43-1.18-.37-1.64a2.81,2.81,0,0,1,.75-1.53,4.24,4.24,0,0,1,.62-.5c1-.68,2.44-1.3,3.6-.58.26.16.5.31.52.62Z"/><path class="cls-7" d="M264.52,298.77a3.14,3.14,0,0,1-.55,1.41,2.36,2.36,0,0,1-.65.57,3.27,3.27,0,0,1-1.21.44,1.71,1.71,0,0,1-1.05-.09c-.27-.22-.28-.79-.24-1.1a1.76,1.76,0,0,1,.5-1,2.79,2.79,0,0,1,.42-.35,2.32,2.32,0,0,1,2.43-.38c.17.1.33.2.35.41Z"/></g><g id="light_2-2" data-name="light 2"><path class="cls-3" d="M163.31,114.8c1.52-.36,2.49.07,2.63,1.73.11,1.25.05,3.28-.72,4.34-.92,1.25-2.9,1.3-4.26,1-1.61-.33-3-.7-2.81-2.53.19-2,1.87-3.32,3.67-4.07A9.26,9.26,0,0,1,163.31,114.8Z"/><path class="cls-3" d="M162.4,87c1.14-.26,1.87.06,2,1.3a5.53,5.53,0,0,1-.55,3.26c-.68.93-2.17,1-3.19.76-1.21-.25-2.24-.52-2.11-1.9a4,4,0,0,1,2.76-3A7.51,7.51,0,0,1,162.4,87Z"/><path class="cls-3" d="M163.39,64.2c.77-.18,1.26,0,1.33.87a3.62,3.62,0,0,1-.37,2.2,2.18,2.18,0,0,1-2.15.52c-.82-.17-1.51-.36-1.43-1.28a2.68,2.68,0,0,1,1.87-2.07A5.15,5.15,0,0,1,163.39,64.2Z"/><path class="cls-3" d="M158,44.73c.58-.13.95,0,1,.66a2.74,2.74,0,0,1-.27,1.65,1.67,1.67,0,0,1-1.62.39c-.61-.13-1.13-.27-1.07-1a2,2,0,0,1,1.4-1.55C157.56,44.87,157.77,44.79,158,44.73Z"/><path class="cls-3" d="M152.71,28.26c.39-.09.64,0,.68.44a1.89,1.89,0,0,1-.19,1.12,1.1,1.1,0,0,1-1.09.26c-.41-.09-.77-.18-.72-.65a1.37,1.37,0,0,1,.94-1.05A2.9,2.9,0,0,1,152.71,28.26Z"/><path class="cls-3" d="M109,156.46c1.52-.35,2.49.08,2.64,1.73.11,1.25,0,3.29-.73,4.35-.91,1.24-2.89,1.3-4.26,1-1.61-.34-3-.71-2.81-2.54.19-2,1.87-3.32,3.68-4.07A9.79,9.79,0,0,1,109,156.46Z"/><path class="cls-3" d="M78.92,147.47c1.13-.27,1.87.06,2,1.3a5.42,5.42,0,0,1-.54,3.25c-.69.94-2.17,1-3.2.77-1.2-.25-2.23-.53-2.1-1.9a4,4,0,0,1,2.75-3.06A8.29,8.29,0,0,1,78.92,147.47Z"/><path class="cls-3" d="M55.92,143.34c.77-.18,1.26,0,1.34.88a3.78,3.78,0,0,1-.37,2.2,2.2,2.2,0,0,1-2.16.52c-.81-.17-1.51-.36-1.42-1.29a2.69,2.69,0,0,1,1.86-2.06A5,5,0,0,1,55.92,143.34Z"/><path class="cls-3" d="M39.38,135.34c.57-.13.94,0,1,.66a2.77,2.77,0,0,1-.28,1.65,1.62,1.62,0,0,1-1.61.38c-.62-.12-1.14-.26-1.07-1a2,2,0,0,1,1.39-1.54A2.9,2.9,0,0,1,39.38,135.34Z"/><path class="cls-3" d="M24.3,127c.39-.09.64,0,.68.45a1.92,1.92,0,0,1-.19,1.11,1.1,1.1,0,0,1-1.09.26c-.41-.08-.77-.18-.72-.65a1.34,1.34,0,0,1,.94-1A2.74,2.74,0,0,1,24.3,127Z"/><path class="cls-3" d="M131.45,224.82c1.52-.36,2.49.07,2.64,1.72.11,1.25,0,3.29-.73,4.35-.91,1.25-2.9,1.3-4.26,1-1.61-.33-3-.71-2.81-2.53.19-2,1.87-3.33,3.68-4.08A8.89,8.89,0,0,1,131.45,224.82Z"/><path class="cls-3" d="M114.81,252.64c1.13-.27,1.86.06,2,1.29a5.51,5.51,0,0,1-.54,3.26c-.69.94-2.17,1-3.2.77-1.2-.25-2.24-.53-2.11-1.9a4,4,0,0,1,2.76-3.06A7.44,7.44,0,0,1,114.81,252.64Z"/><path class="cls-3" d="M97.33,272.45c.77-.18,1.26,0,1.33.88a3.7,3.7,0,0,1-.36,2.2,2.18,2.18,0,0,1-2.16.51c-.82-.16-1.51-.35-1.42-1.28a2.67,2.67,0,0,1,1.86-2.06A5,5,0,0,1,97.33,272.45Z"/><path class="cls-3" d="M83.91,286.56c.58-.14,1,0,1,.66a2.84,2.84,0,0,1-.27,1.65,1.64,1.64,0,0,1-1.62.38c-.61-.12-1.13-.26-1.07-1a2,2,0,0,1,1.4-1.55A4.14,4.14,0,0,1,83.91,286.56Z"/><path class="cls-3" d="M71.15,300.43c.39-.1.64,0,.68.44a1.84,1.84,0,0,1-.19,1.11,1.08,1.08,0,0,1-1.09.26c-.41-.08-.76-.18-.72-.65a1.36,1.36,0,0,1,.94-1A1.9,1.9,0,0,1,71.15,300.43Z"/><path class="cls-3" d="M230.74,157c1.51-.36,2.49.07,2.63,1.72.11,1.25,0,3.29-.73,4.35-.91,1.24-2.89,1.3-4.26,1-1.6-.33-3-.7-2.81-2.53.19-2,1.88-3.33,3.68-4.08A9.38,9.38,0,0,1,230.74,157Z"/><path class="cls-3" d="M260.53,150.66c1.14-.26,1.87.06,2,1.3a5.53,5.53,0,0,1-.55,3.26c-.68.93-2.17,1-3.19.76-1.21-.25-2.24-.52-2.11-1.9a4,4,0,0,1,2.76-3.05A7.51,7.51,0,0,1,260.53,150.66Z"/><path class="cls-3" d="M282.55,139.3c.76-.18,1.26,0,1.33.87a3.75,3.75,0,0,1-.37,2.2,2.16,2.16,0,0,1-2.15.52c-.82-.17-1.52-.36-1.43-1.28a2.7,2.7,0,0,1,1.86-2.07A5.34,5.34,0,0,1,282.55,139.3Z"/><path class="cls-3" d="M300.13,131.72c.58-.14.95,0,1,.65a2.74,2.74,0,0,1-.28,1.65,1.6,1.6,0,0,1-1.61.39c-.61-.13-1.14-.27-1.07-1a2,2,0,0,1,1.4-1.55A3.72,3.72,0,0,1,300.13,131.72Z"/><path class="cls-3" d="M314.52,118.74c.39-.09.64,0,.67.44a1.87,1.87,0,0,1-.18,1.12,1.11,1.11,0,0,1-1.09.26c-.42-.09-.77-.18-.72-.65a1.33,1.33,0,0,1,.94-1A2.34,2.34,0,0,1,314.52,118.74Z"/><path class="cls-3" d="M209.74,225.14c1.51-.35,2.49.08,2.64,1.73.1,1.25,0,3.29-.73,4.35-.92,1.24-2.9,1.3-4.26,1-1.61-.33-3-.71-2.81-2.53.19-2,1.87-3.33,3.68-4.08A9.79,9.79,0,0,1,209.74,225.14Z"/><path class="cls-3" d="M221.65,250.06c1.13-.26,1.86.06,2,1.3a5.53,5.53,0,0,1-.54,3.26c-.69.93-2.17,1-3.2.76-1.2-.25-2.24-.52-2.11-1.9a4,4,0,0,1,2.76-3A8.13,8.13,0,0,1,221.65,250.06Z"/><path class="cls-3" d="M236.25,271.58c.77-.18,1.27,0,1.34.87a3.75,3.75,0,0,1-.37,2.2,2.17,2.17,0,0,1-2.15.52c-.82-.17-1.52-.36-1.43-1.28a2.67,2.67,0,0,1,1.86-2.06A5.43,5.43,0,0,1,236.25,271.58Z"/><path class="cls-3" d="M249.94,286.17c.58-.14.95,0,1,.65a2.86,2.86,0,0,1-.27,1.66,1.64,1.64,0,0,1-1.62.38c-.61-.13-1.13-.27-1.07-1a2,2,0,0,1,1.4-1.55A4.14,4.14,0,0,1,249.94,286.17Z"/><path class="cls-3" d="M263,298.63c.39-.09.64,0,.67.44a1.93,1.93,0,0,1-.18,1.12,1.12,1.12,0,0,1-1.09.26c-.42-.09-.77-.18-.73-.65a1.34,1.34,0,0,1,.95-1A2.34,2.34,0,0,1,263,298.63Z"/><path class="cls-3" d="M168.68,174c1.9-.45,3.12.09,3.3,2.16.13,1.56.06,4.11-.91,5.43-1.14,1.56-3.62,1.63-5.33,1.28-2-.42-3.73-.88-3.51-3.17.24-2.53,2.34-4.15,4.6-5.09A12.88,12.88,0,0,1,168.68,174Z"/></g><path class="cls-8" d="M333.57,98.21c-.29-2.19-.29-5.62-2.65-6.15-5.15-1.14-13.42,5.77-19,9.25C291.76,114,257.84,125.45,239,126.17c-7.77.29-18.32-1.4-24.56-3.94-6.73-2.74-14.34-11.16-18.1-20-1.49-3.51-5.44-42.4-17.42-61-5.24-8.12-9.28-13.4-15-20.85l-2.49-3.31c-4.33-5.86-9.24-12.49-15.28-14.28a7,7,0,0,0-3.7.18c-6.19,1.69-5.67,10.77-5.17,19.55l.17,3c1,20.61-.63,34.35-3.08,51.15-.32,2.21-.6,4.41-.86,6.55-.71,5.85-1.39,11.38-3,16.42a60.71,60.71,0,0,1-4.41,9.35l-.77,1.43-.51,1c-2.53,4.78-4.72,8.9-9.87,11-9.23,3.74-25.22,5.41-33.18,4.49a161.12,161.12,0,0,1-26.15-5.27,221.12,221.12,0,0,1-22-7.67L30,112.6a61.3,61.3,0,0,0-13.45-3.78c-7.48-1.16-12.32.06-14.38,3.6-2.55,4.39,1.09,12.92,4.05,19,7.77,15.83,23.67,29,35.63,37.25l3.68,2.53c12.44,8.6,25.31,12.49,39.18,20.17l1.67.92c1.9,1,3.86,2.09,5.72,3.33l.29.19c4.48,3,8.35,5.59,9.31,13.19,1.57,12.4-2,29.2-19.44,51.7-4.14,5.34-10.56,14-14.94,19.8-5.8,7.71-10.68,13.2-16.33,21.6-3,4.43-6.21,10.11-4.74,14.85a7,7,0,0,0,3.89,4.48c6,2.72,16.94-.81,22.62-3.85,32-17.1,66.71-44.58,66.71-44.58,4.92-3.67,11-8.51,18.69-14.77l.36-.29c1.92-1.58,4.32-3.55,6.38-4.11,4.53-1.23,10.28-.23,13.71,1.22,3.72,1.57,14.85,14.87,17.61,17.91a125.09,125.09,0,0,0,21.4,18.7c2.18,1.48,18.9,13.86,53.67,26.42,4.71,1.7,12,0,15.37-4.25l.07-.08,0-.12s0-.09,0-.14c-.48-3.67-2.86-6.41-5.17-9.05-.64-.73-1.24-1.42-1.81-2.13-2.53-3.18-5.23-6.49-7.84-9.7-5.21-6.39-8.91-14.45-12.82-23a202.69,202.69,0,0,1-9.29-25.77c-.67-2.26-1.39-4.53-2.09-6.73-2-6.37-3.09-13.53-4-20.48-.15-1.12-.26-2.25-.34-3.39-.66-9.82,1.6-18.23,6.22-23.09,5.25-2.78,10.93-5.36,16.43-7.85,8.58-3.89,17.6-8.08,25.23-13,24.65-16,37.07-31.85,41.89-62.64A30.34,30.34,0,0,0,333.57,98.21Z"/></svg>