<svg id="Layer_1" data-name="Layer 1" xmlns="http://www.w3.org/2000/svg" viewBox="0 0 150 80"><defs><style>.cls-1{fill:#090707;}.cls-2{fill:#f6f5fa;}.cls-3{fill:#322643;}.cls-4{fill:#3c65ac;}.cls-5{fill:#070405;}.cls-6{fill:#fff;}.cls-7{fill:#644a7d;stroke:#47365b;stroke-miterlimit:10;stroke-width:0.5px;}</style></defs><path class="cls-1" d="M122.74,7.74c-8.24-1.1-13.78,8.1-13.78,8.1s6.33-7,13.55-6.16c4.63.57,8.74,4.23,12.21,10.88C134.72,20.56,132.4,9,122.74,7.74Z"/><path class="cls-1" d="M129.07,25.47l-.14,2c.21,0,2.15,1.24,2.35,1.24,5.67,0,8.71-6.61,8.92-6.85C140.2,21.81,134,25.81,129.07,25.47Z"/><path class="cls-1" d="M132.18,30.12l-.46,1.9c1.61.38,3.08,1.77,4.44,1.77a12.85,12.85,0,0,0,8.55-3.51A28.88,28.88,0,0,1,132.18,30.12Z"/><path class="cls-1" d="M135.13,37.45l-.71,1.82c1.74,3.94,4,3,5.78,3,3.65,0,6.54-3,6.66-3.06S141.88,40.07,135.13,37.45Z"/><path class="cls-2" d="M120.55,20.64c-10.89-1.33-21.28,10.41-23.21,26.22s5.33,29.71,16.22,31,21.28-10.41,23.21-26.22S131.44,22,120.55,20.64Z"/><path class="cls-3" d="M120.67,19.69a15.7,15.7,0,0,0-1.81-.11c-10.92,0-20.58,11.68-22.47,27.16-1,7.84.25,15.48,3.4,21.51s8.06,9.92,13.65,10.6a15.7,15.7,0,0,0,1.81.11c10.92,0,20.58-11.68,22.47-27.17,1-7.83-.25-15.47-3.4-21.5S126.26,20.37,120.67,19.69Zm15.15,31.87C134.08,65.85,125,77,115.25,77a11.87,11.87,0,0,1-1.58-.1c-4.94-.6-9.27-4-12.18-9.58S97.38,54.43,98.29,47C100,32.69,109.07,21.5,118.86,21.5a13.82,13.82,0,0,1,1.58.09c4.94.61,9.27,4,12.18,9.58S136.73,44.11,135.82,51.56Z"/><path class="cls-4" d="M118.38,38.39c-6-.74-11.74,5.74-12.8,14.46s2.94,16.39,9,17.13,11.74-5.75,12.8-14.47S124.39,39.12,118.38,38.39Z"/><path class="cls-5" d="M117.4,46.46c-3.37-.42-6.58,3.22-7.18,8.11s1.65,9.19,5,9.6,6.58-3.22,7.18-8.11S120.77,46.87,117.4,46.46Z"/><path class="cls-6" d="M115.64,47.43A3.32,3.32,0,1,0,119,50.75,3.32,3.32,0,0,0,115.64,47.43Z"/><path class="cls-1" d="M36.18,1.7C27.77-1.33,21,7.06,21,7.06c5.64-3.94,10.53-5.18,14.53-3.68C41.79,5.71,43.94,14,44,14.11S43.34,4.28,36.18,1.7Z"/><path class="cls-1" d="M19.09,16c.19,0,2.16-.69,2.35-.67l.24-1.77c-4.52-.64-9.29-5.39-9.29-5.39C12.53,8.37,14,14.88,19.09,16Z"/><path class="cls-1" d="M6.74,14.87a11.87,11.87,0,0,0,7,4.76c1.22.25,2.8-.72,4.32-.75L18,17.08A26.52,26.52,0,0,1,6.74,14.87Z"/><path class="cls-1" d="M3.14,22.43c.09.1,2.12,3.32,5.39,4,1.64.35,3.44,1.64,5.74-1.56L14,23.11A21.74,21.74,0,0,1,3.14,22.43Z"/><path class="cls-2" d="M30.48,10.78C20.46,9.92,11.32,21,10.07,35.55s5.85,27,15.87,27.91S45.09,53.23,46.35,38.68,40.5,11.65,30.48,10.78Z"/><path class="cls-3" d="M32,10.15a13,13,0,0,0-1.64-.24c-5.14-.45-10.2,2-14.25,6.92A34.13,34.13,0,0,0,9,35.48C7.72,49.73,14.18,62,24,64.09a15.07,15.07,0,0,0,1.64.24c5.14.44,10.2-2,14.24-6.92A34.06,34.06,0,0,0,47,38.76C48.21,24.51,41.74,12.21,32,10.15ZM45.23,38.61a32.3,32.3,0,0,1-6.72,17.68c-3.67,4.45-8.19,6.68-12.74,6.29a11.46,11.46,0,0,1-1.43-.21C15.56,60.52,9.57,48.77,10.7,35.63A32.3,32.3,0,0,1,17.42,18c3.67-4.45,8.19-6.68,12.74-6.29a11.46,11.46,0,0,1,1.43.21C40.37,13.72,46.36,25.46,45.23,38.61Z"/><path class="cls-4" d="M28.83,27.11c-5.53-.48-10.57,5.64-11.27,13.66s3.23,14.92,8.76,15.4S36.89,50.53,37.58,42.5,34.35,27.58,28.83,27.11Z"/><path class="cls-5" d="M28.19,34.53c-3.1-.27-5.93,3.16-6.32,7.66s1.81,8.37,4.91,8.64,5.93-3.17,6.32-7.67S31.29,34.8,28.19,34.53Z"/><path class="cls-6" d="M27.15,35.44a2.89,2.89,0,1,0,2.22,3.42A2.87,2.87,0,0,0,27.15,35.44Z"/><path class="cls-7" d="M14.77,20.54S33.1,13.31,44,25.62c0,0,0-7.9-9-13.58C35,12,23.77,6.14,14.77,20.54Z"/><path class="cls-7" d="M101.24,33.79s17.62-12.29,34.16,1.58c0,0-6.58-14.13-15.75-14.81C119.65,20.56,108.82,19.7,101.24,33.79Z"/></svg>