<svg id="Layer_1" data-name="Layer 1" xmlns="http://www.w3.org/2000/svg" viewBox="0 0 256 256"><defs><style>.cls-1{opacity:0.3;}.cls-2{fill:#edece6;}.cls-3{fill:#d1cbb4;}.cls-4{fill:#967c5f;}.cls-5{fill:#63503d;}.cls-6{fill:#201e25;}.cls-7{fill:#c1b99f;}.cls-8{fill:#d39788;}.cls-9{fill:#bf7c6f;}.cls-10{fill:#f3c1a7;}.cls-11{fill:#e0dbca;}.cls-12{fill:#2c2b30;}.cls-13{fill:#7a5f43;}.cls-14{opacity:0.2;}.cls-15{fill:#aa865b;}.cls-16{fill:#d8b993;}.cls-17{fill:#c1b19a;}.cls-18{fill:#3d3b42;}.cls-19{fill:#c17e67;}.cls-20{fill:#271c27;}.cls-21{fill:#48474c;}.cls-22{fill:#fff;}.cls-23{fill:#b5b5b5;}.cls-24{fill:#0f0f11;}.cls-25{fill:#f7f7f7;}</style></defs><ellipse class="cls-1" cx="146.48" cy="199.11" rx="83.8" ry="9.47"/><path class="cls-2" d="M191.8,144.62c1.59,4.83,6.45,8.46,6.55,10.15s-.7,12.95-1.36,17.87-.65,10.56,0,13,.47,4.8-.66,4.78A2.62,2.62,0,0,0,194,193c0,1.41,1.16,5.1.28,6.35s-10.18,1.75-12.67-.27-2.38-1.23-1.49-3.37a23.68,23.68,0,0,1,3.61-6.12,23.16,23.16,0,0,0,4.82-10.14,29.59,29.59,0,0,0-.83-14.21c-1.22-4.07-7.92-16.43-10.09-20.42"/><path class="cls-3" d="M188.25,143.17c0,3.82,3.51,10.05,5.89,12.92s2,9.82,1.08,13.56-1.93,17.62-2,19.5a5.91,5.91,0,0,0,.8,3.46,2.58,2.58,0,0,1,2.27-2.22c1.13,0,1.32-2.37.66-4.78s-.67-8.05,0-13,1.47-16.18,1.36-17.87-5-5.32-6.55-10.15"/><path class="cls-3" d="M183.75,189.61a23.68,23.68,0,0,0-3.61,6.12c-.59,1.43-.84,1.55-.2,2.07l2.81-1.53a37.48,37.48,0,0,1,3-7.09,29.2,29.2,0,0,0,2.56-8.71A23.14,23.14,0,0,1,183.75,189.61Z"/><path class="cls-3" d="M185.15,159.22a50.26,50.26,0,0,1,2.59,6,31.75,31.75,0,0,1,1.35,9.33h0c.38-4.13,1.17-10.27.06-11.28S185.15,159.22,185.15,159.22Z"/><path class="cls-4" d="M182.48,191.34a22.53,22.53,0,0,0-2.34,4.39c-.89,2.14-1,1.34,1.49,3.37s11.8,1.52,12.67.27c.49-.69.34-2.13.11-3.52l-3.69-.08C187,195.69,184,192.94,182.48,191.34Z"/><path class="cls-5" d="M187.82,197.37c-4.22-.39-6.35-1.55-7.37-2.36l-.31.72c-.89,2.14-1,1.34,1.49,3.37s11.8,1.52,12.67.27a2.83,2.83,0,0,0,.32-1.64C192.87,197.71,190.59,197.63,187.82,197.37Z"/><path class="cls-6" d="M198.35,154.77c-.08-1.27-2.83-3.63-4.88-6.78l-6.38-1.77-4,3.19c2.81.85,5.21,2.91,7.16,4.38a8.76,8.76,0,0,0,5.59,1.64h2.5C198.36,155.14,198.36,154.92,198.35,154.77Z"/><path class="cls-3" d="M183.75,189.61a23.68,23.68,0,0,0-3.61,6.12c-.59,1.43-.84,1.55-.2,2.07l2.81-1.53a37.48,37.48,0,0,1,3-7.09,29.2,29.2,0,0,0,2.56-8.71A23.14,23.14,0,0,1,183.75,189.61Z"/><path class="cls-3" d="M185.15,159.22a50.26,50.26,0,0,1,2.59,6,31.75,31.75,0,0,1,1.35,9.33h0c.38-4.13,1.17-10.27.06-11.28S185.15,159.22,185.15,159.22Z"/><path class="cls-4" d="M182.48,191.34a22.53,22.53,0,0,0-2.34,4.39c-.89,2.14-1,1.34,1.49,3.37s11.8,1.52,12.67.27c.49-.69.34-2.13.11-3.52l-3.69-.08C187,195.69,184,192.94,182.48,191.34Z"/><path class="cls-5" d="M187.82,197.37c-4.22-.39-6.35-1.55-7.37-2.36l-.31.72c-.89,2.14-1,1.34,1.49,3.37s11.8,1.52,12.67.27a2.83,2.83,0,0,0,.32-1.64C192.87,197.71,190.59,197.63,187.82,197.37Z"/><path class="cls-2" d="M92.42,142.36a90.12,90.12,0,0,0,.7,10.86c.71,4.79-.56,7.89-1.13,10.14s-1.69,11.27-.7,14.23,3.24,12.27,2.25,13.39-2.11.15-2.11,2.12.28,6.26-.14,6.58-7.47,1.37-11.28,0-1.69-2.78-.28-7.15,4.09-7.61,4.37-12.82a26.08,26.08,0,0,0-.84-9.16c-.29-.85-2.68-3.81-3-7.47s-2.29-8.17-2.85-11.41-5.57-7.89-5.57-7.89"/><path class="cls-7" d="M79.73,192.53c-.56,1.75-1.24,3-1.61,4l1,0s1.29-3.21,2.11-5.91,4.79-8.29,4.79-11-1.12-9.41-2-11a40.4,40.4,0,0,1-3.1-5.83,33.8,33.8,0,0,1-2.19-6.21c.25,2,1.35,4.57,1.49,6.4.28,3.66,2.67,6.62,3,7.47a26.08,26.08,0,0,1,.84,9.16C83.82,184.92,81.14,188.16,79.73,192.53Z"/><path class="cls-3" d="M73.52,145.89s4.29.87,4.18,1.42c.17.42-1.48-.39-1.27.3C76.18,146.09,73.52,145.89,73.52,145.89Z"/><path class="cls-7" d="M88.75,144.9s.81,12.08,0,16.91,0,5.36,0,10.43,2,14.66,1.55,16.21c-.36,1.34-.24,3.3,1.17,4.09.22-1.21,1.2-.56,2.07-1.56s-1.26-10.43-2.25-13.39.14-12,.7-14.23,1.84-5.35,1.13-10.14c-.32-2.18-.49-4.62-.59-6.63l-3.78-1.69"/><path class="cls-4" d="M84.67,195.35a15.76,15.76,0,0,1-5-2.54c-1.41,4.15-3.35,5.53.37,6.87s10.86.33,11.28,0,.25-2.16.2-4A17.36,17.36,0,0,1,84.67,195.35Z"/><path class="cls-5" d="M91.52,198c-1.43,0-3.62,0-6.83-.06a9.62,9.62,0,0,1-6.18-2.29c-.91,2.09-1.22,3.1,1.5,4.08,3.81,1.37,10.86.33,11.28,0A3.61,3.61,0,0,0,91.52,198Z"/><path class="cls-7" d="M93.12,153.22a88.7,88.7,0,0,1-.7-10.62l-.42-.21-20.12,1.39s5,4.65,5.57,7.89c0,.24.09.49.15.74,0,0,10.18,7.17,15.14,5.26a3.3,3.3,0,0,0,.53-.27A18.33,18.33,0,0,0,93.12,153.22Z"/><path class="cls-8" d="M172.65,146.68s1.56,6.91,1.56,8.41,1.3,2.35,2.63.52a10.1,10.1,0,0,0,1.62-4.23Z"/><path class="cls-9" d="M183.58,148.45s1.56,6.9,1.56,8.4,1.29,2.35,2.63.52a10.17,10.17,0,0,0,1.61-4.23Z"/><path class="cls-8" d="M165.82,138.89s2.07,7.29,4.13,8.72,5.73,2.32,6.2,3.28,2,6.51,3,6.7,2.09-.57,2.74-2.45,1.3-4.32,3.55-3.47,2.42,3.76,2.53,5.54,1.33,3.48,2.74,3.29,1.22-5,1.78-6.67,5.23-2.43,6.8-4.13-1.25-11.87-8.49-15.57S164,131,165.82,138.89Z"/><path class="cls-10" d="M194,145.89c-2.85-5.3-13-8.52-16.63-7.35-2.57.83-6.19,4.47-8.51,7.87a4.43,4.43,0,0,0,1.06,1.2c2.07,1.43,5.73,2.32,6.2,3.28s2,6.51,3,6.7,2.09-.57,2.74-2.45,1.3-4.32,3.55-3.47,2.42,3.76,2.53,5.54,1.33,3.48,2.74,3.29,1.22-5,1.78-6.67c.35-1.06,2.32-1.75,4.12-2.53C196,149.88,195.19,148.05,194,145.89Z"/><path class="cls-2" d="M64.3,60.63A20.84,20.84,0,0,0,80.37,72.89c12.4,2.11,22.26,4.51,32,4.08a130.75,130.75,0,0,1,25.16,1.84c3.59.7,20.5-.43,25.29-2s16.91-5.21,28.75-3,19.17,11.42,22.27,18,3.8,22.13,1.55,30S210.3,144.2,212,149s6.63,8.31,6.77,10-.42,13-1,17.89-.43,10.57.28,13,.56,4.79-.57,4.79a2.63,2.63,0,0,0-2.25,2.68c0,1.41,1.27,5.07.42,6.34s-10.15,2-12.68,0-2.4-1.17-1.55-3.33a23,23,0,0,1,3.47-6.2,23.15,23.15,0,0,0,4.61-10.25,29.66,29.66,0,0,0-1.13-14.19c-1.32-4-8.27-16.25-10.52-20.19s-5-9.49-6.49-10.34l-1.5-.84s-4.51-5.69-9.72-3.43-15.51,8.88-22.42,10.43-20.43,2.11-25.36,1.12a56.57,56.57,0,0,0-19.45.15,40,40,0,0,1-9.86,1,89.9,89.9,0,0,0,.7,10.85c.7,4.79-.56,7.89-1.13,10.15s-1.69,11.28-.7,14.23,3.24,12.26,2.25,13.39-2.11.14-2.11,2.11.28,6.27-.14,6.59-7.47,1.37-11.28,0-1.69-2.78-.28-7.15,4.09-7.61,4.37-12.82a25.78,25.78,0,0,0-.85-9.17c-.28-.84-2.67-3.8-3-7.46s-.85-8.17-1.41-11.42A20.89,20.89,0,0,0,88,151.67S74.31,147.58,71.06,146s-5.21-3.66-8.45-6.9-7.33-5.22-9.58-10.86a56.06,56.06,0,0,1-3.39-16.49c-.28-4.36,3-47.35,4.94-48.62S61.63,56.14,64.3,60.63Z"/><path class="cls-8" d="M195.86,147.16l-1.2.45c-1.2.45-6.27,4-11.06,3.28a16.62,16.62,0,0,1-6.5-2.73c.14.1.5.52.67.64,2,1.41,2.45,2.94,3.43,5.69a5.73,5.73,0,0,1,.32,1.52,6.48,6.48,0,0,0,.38-.87c.64-1.87,1.3-4.32,3.55-3.47s2.42,3.76,2.53,5.54a3.41,3.41,0,0,0,.05.46,14.15,14.15,0,0,1,1.63-5C190.58,151.24,195.86,147.16,195.86,147.16Z"/><path class="cls-3" d="M90.37,197.75c-.56,1.75-1.24,3-1.61,4l1,0s1.29-3.21,2.11-5.91,4.79-8.29,4.79-11-1.12-9.41-2-11a40,40,0,0,1-3.1-5.83,46.54,46.54,0,0,1-1.3-5.69c.24,2,.46,4,.6,5.88.28,3.66,2.67,6.62,3,7.46a25.78,25.78,0,0,1,.85,9.17C94.46,190.14,91.78,193.38,90.37,197.75Z"/><path class="cls-3" d="M88.5,151.67s-.06.31-.16.86c.16.42.36,1,.57,1.67C88.66,152.68,88.5,151.67,88.5,151.67Z"/><path class="cls-4" d="M233.47,140.87s0,.15.07.43a11.11,11.11,0,0,1-1,6.31c-1.68,3.31-4.13,4.25-3.47,7.16s1.6,2.63,1.6,3.66a3.61,3.61,0,0,1-2.35,2.92c-1.41.56-1.79,0-1.79,0a2.36,2.36,0,0,0,2.91.65c2-.74,3.76-4.88,3.76-4.88s-.47,4.65-2,6.6l-1.51,1.95a14.85,14.85,0,0,0,5-4.7,7.94,7.94,0,0,1-3.2,5.26l-2.82,1.88a10.05,10.05,0,0,0,6.49-2.73c2.72-2.72,3.1-3.66,3.1-3.66a8.3,8.3,0,0,1-.66,2.82l-.56,1s4.5-3.47,5.12-8,0-11.58-3.34-16.26c0,0-4.25-2.44-4.38-2.44"/><path class="cls-3" d="M212.7,119.68s1.55,9.3,8.6,13.39,9.79,4.72,10.71,6.55,1.12,5.64,1.12,5.64a12.21,12.21,0,0,0,1-3.53l-.07-1a42.14,42.14,0,0,1,1.56,4.08c.62,2.05,1.54,4.86,2.53,5.5l1,.63a14.58,14.58,0,0,1-1.91-5.42l-.35-3a9.7,9.7,0,0,0,2.68,4.3,8.33,8.33,0,0,0,2.25,1.48,17.54,17.54,0,0,1-3.24-5.29l-.91-2.75s1.54,3.1,2.39,3.74,2.12,1.48,2.12,1.48-1.91-2.75-3.25-5.15a12.7,12.7,0,0,0-7.89-5.7c-4-1.13-9.16-2.61-11.41-6.1s-2.89-9.9-3.46-13.21l-.56-3.31Z"/><path class="cls-3" d="M99.39,167c-.8,4.84,0,5.35,0,10.42s2,14.67,1.55,16.22c-.36,1.33-.25,3.3,1.17,4.08.22-1.2,1.2-.55,2.07-1.55s-1.26-10.43-2.25-13.39.14-12,.7-14.23,1.83-5.36,1.13-10.15c-.32-2.17-.49-4.61-.59-6.62l-3.78-1.69S100.2,162.19,99.39,167Z"/><path class="cls-11" d="M103.09,149.71h0c0-1.3,0-2.13,0-2.13a40,40,0,0,0,9.86-1,56.57,56.57,0,0,1,19.45-.15c4.93,1,18.46.43,25.36-1.12s17.2-8.18,22.42-10.43,9.72,3.43,9.72,3.43l1.5.84a7.83,7.83,0,0,1,2,2.39h0c-4.51-8-12.49-14.12-20.38-13s-40,8.77-49.61,7.35S83.91,139,65.56,130.53A32.31,32.31,0,0,1,50.1,116.41,49.88,49.88,0,0,0,53,128.27c2.25,5.64,6.34,7.62,9.58,10.86s5.21,5.35,8.45,6.9S88,151.67,88,151.67l-1-5.07Z"/><path class="cls-6" d="M191.56,73.87a43.56,43.56,0,0,0-9.66-.68,32.65,32.65,0,0,0,8.82,8.58c2.82,1.55,9.86,4.08,10.28,7.47s-1.55,8,0,10.28,5.64,1.69,5.36,6.34-4,5.78-5.78,9.87-4.93,14.1-.42,18.89,5.78,3.8,5.35,9.16,4.23,9.86,7.61,10a9.84,9.84,0,0,0,1.64-.06A17,17,0,0,1,212,149c-1.69-4.79,1.13-19.16,3.39-27.06s1.55-23.39-1.55-30S203.4,76.13,191.56,73.87Z"/><path class="cls-6" d="M189.21,90c-2.63-3.23-11.08-7.93-16.35-7.93-3.38,0-6.07-3.09-8.61-5.67l-1.44.45c-4,1.3-16.35,2.29-22.47,2.18-1.67,2.85-9,4.73-16.33,4s-10-2.45-14.1-.94-9-.75-10.14-4.13a11.1,11.1,0,0,0-.79-1.8c-3.8-.54-7.76-1.28-12-2.06,0,.42,0,.83,0,1.22,0,2.26.56,3.76-3,4.33s-6-1.74-8.08.37-4.88-1.5-10-2.44-10.18.12-12.4,4.13a43,43,0,0,0-2.37,5.69c-.62,7.11-1.13,14.25-1.38,19,2.46,2.13,6.1,4.5,6.34,7.1.28,3.1,0,5.92,3.38,5.92s4.37-3.39,7.19-2.26,6.62,6.34,6.62,9.16-.56,4.51,1.69,4.51,2.4-2.54,3.38-1.41,1.27,4.09,3.81,4.93,1.55,5.26,1.55,7.22,2.25,6.6,5.21,7.86,6.77,3.81,6.49,6.06-2,5.79.84,8,5.5,3.38,4.09,6.06-3.95,3.38-3.95,5.77,1.83,4.37.71,6.49A6.93,6.93,0,0,1,94.78,184c0,.29,0,.6,0,.91a16.19,16.19,0,0,1-.66,3.78c2,1,5.21,1.33,6.69,0a14.77,14.77,0,0,0,2.12-2.51c-.35-1.4-.7-2.63-1-3.41-1-2.95.14-12,.7-14.23s1.83-5.36,1.13-10.15a80.12,80.12,0,0,1-.67-8.72h0c0-1.3,0-2.13,0-2.13h0c.09-2.28.63-5.12,3.26-6,3.56-1.25,5.07-8.39,4.88-11.21s4.32-2.25,7.71-5.82.18-6.77-3.58-7.14-5.45-5.83-3.19-7,4.7-4.13,5.45-7.89,12.59-4.51,13,0,2.36,7.52,3.62,8.64,3,6,.89,9.85-5.54,6.31-.89,10.07,6.53,6.25,6.91,10.46c.2,2.25,1.82,4.21,4.54,5.22a80.11,80.11,0,0,0,12.08-1.44,29.39,29.39,0,0,0,4.63-1.53c2.49-1.94,3.36-4.67,3.36-9,0-7.14.38-13.76,6-13.83s9.42-2,10.16-5-5.47-5.83-2.27-7,4.51,2.06,7-1.32S191.84,93.21,189.21,90Z"/><path class="cls-4" d="M95.3,200.57a16,16,0,0,1-5-2.54c-1.41,4.15-3.35,5.53.37,6.87s10.86.32,11.28,0,.25-2.16.2-4A17.42,17.42,0,0,1,95.3,200.57Z"/><path class="cls-3" d="M50.72,109.3s.07.47.22,1.28c.35-1.69.57-2.78.57-2.78Z"/><path class="cls-3" d="M88.79,153.83a17.45,17.45,0,0,0-3.72-8.41c-3.1-3.56-8.23-2.68-10.82-4.56s-10.19-5.07-15.45-9c-4.42-3.34-7.12-17-7.86-21.25-.27,1.29-.61,2.94-1,4.74a51.73,51.73,0,0,0,3.07,13c2.25,5.64,6.34,7.62,9.58,10.86s5.21,5.35,8.45,6.9S88,151.67,88,151.67A15.2,15.2,0,0,1,88.79,153.83Z"/><path class="cls-3" d="M188,136.49h0Z"/><path class="cls-3" d="M174.18,135c-4.14,1.5-15.41,7.89-24.24,8.64s-17.47-1.31-27.44-2.13S108,142.74,105,143.49s-2,4.09-2,4.09a40,40,0,0,0,9.86-1,56.57,56.57,0,0,1,19.45-.15c4.93,1,18.46.43,25.36-1.12s17.2-8.18,22.42-10.43a6.35,6.35,0,0,1,2.56-.53A17.66,17.66,0,0,0,174.18,135Z"/><path class="cls-12" d="M181.9,89c-6-2.44-19.18-.37-23.69,1s-19.73,2.4-26.87,0-25.56-1.54-37-2.29c-9.68-.64-25.46-4-36.38-9.69a8.19,8.19,0,0,0-4.4,3.67,43,43,0,0,0-2.37,5.69c-.54,6.19-1,12.4-1.27,17,9,3,17.8-1.86,24.35,3.39,6.81,5.46,11.8,15.4,27.77,19.35a46.14,46.14,0,0,0,10.15,1.37c1.48-1,4.39-1.5,6.77-4,3.38-3.57.18-6.77-3.58-7.14s-5.45-5.83-3.19-7,4.7-4.13,5.45-7.89,12.59-4.51,13,0,2.36,7.52,3.62,8.64,3,6,.89,9.85c-.81,1.52-1.84,2.82-2.5,4.07,2.83-.85,5.59-1.72,8.33-2.45,11.28-3,19,.94,23.68,3a18.51,18.51,0,0,0,1.74.69c.71-3.14,2.21-5.27,5.4-5.31,5.63-.07,9.42-2,10.16-5s-5.47-5.83-2.27-7,4.51,2.06,7-1.32,5.26-14.58,2.63-17.81A10.39,10.39,0,0,0,188,88.72C185.52,89.37,183.42,89.62,181.9,89Z"/><path class="cls-12" d="M211,97.83c-1.58-6.93-6.42-9.11-10.38-9.68a2.82,2.82,0,0,1,.37,1.09c.43,3.38-1.55,8,0,10.28s5.64,1.69,5.36,6.34-4,5.78-5.78,9.87-4.93,14.1-.42,18.89c.44.47.85.88,1.23,1.25a11.28,11.28,0,0,0,5.11-6.18C208.19,124.61,213.83,110.23,211,97.83Z"/><path class="cls-3" d="M218.06,189.86c-.71-2.4-.85-8-.28-13s1.12-16.2,1-17.89-5.07-5.22-6.77-10c-.73-2.09-.61-6-.05-10.45h0s-3.65,5.25-3.53,9.07,3.73,10,6.17,12.79,2.18,9.77,1.37,13.54-1.56,17.66-1.56,19.54a6,6,0,0,0,.89,3.44,2.58,2.58,0,0,1,2.21-2.27C218.62,194.65,218.76,192.25,218.06,189.86Z"/><path class="cls-5" d="M102.16,203.17c-1.44,0-3.62,0-6.83-.06a9.67,9.67,0,0,1-6.18-2.29c-.91,2.1-1.22,3.1,1.5,4.08,3.81,1.37,10.86.32,11.28,0A3.61,3.61,0,0,0,102.16,203.17Z"/><path class="cls-3" d="M204.9,194.14a23,23,0,0,0-3.47,6.2c-.57,1.44-.81,1.56-.17,2.07l2.78-1.59a38,38,0,0,1,2.88-7.15,29.44,29.44,0,0,0,2.37-8.77A23,23,0,0,1,204.9,194.14Z"/><path class="cls-3" d="M205.65,163.72a50.48,50.48,0,0,1,2.73,6,31.77,31.77,0,0,1,1.54,9.31h0c.29-4.14,1-10.29-.18-11.28S205.66,163.73,205.65,163.72Z"/><path class="cls-4" d="M203.67,195.9a22.3,22.3,0,0,0-2.24,4.44c-.85,2.16-1,1.36,1.55,3.33s11.83,1.27,12.68,0c.47-.7.29-2.14,0-3.52H212C208.3,200.15,205.18,197.46,203.67,195.9Z"/><path class="cls-5" d="M209.13,201.81c-4.22-.31-6.38-1.41-7.41-2.21-.1.24-.19.48-.29.74-.85,2.16-1,1.36,1.55,3.33s11.83,1.27,12.68,0a2.87,2.87,0,0,0,.28-1.65C214.2,202.05,211.91,202,209.13,201.81Z"/><path class="cls-13" d="M238.16,160.88a11.3,11.3,0,0,1-.62,1.89,5.24,5.24,0,0,0,.72-1.05,8.3,8.3,0,0,1-.66,2.82l-.56,1a14.16,14.16,0,0,0,1.3-1.18c.33-.89.68-1.85,1-2.86,1.79-4.88.66-8,.66-8S239.19,156.37,238.16,160.88Z"/><path class="cls-13" d="M231.38,160.25a17.9,17.9,0,0,0,1.8-3.13s-.47,4.65-2,6.6l-.41.52a10,10,0,0,0,2.48-4.11c.87-3.58,1.16-12.52,1.16-12.52s-1.54,2.56-2.66,4.91S232,156.84,231.38,160.25Z"/><path class="cls-13" d="M236.66,155.71a31.32,31.32,0,0,1-2.19,6.25,8.08,8.08,0,0,1-1.71,3.16h0a2.1,2.1,0,0,1-.33.34,6.62,6.62,0,0,1-.94.76l-2.82,1.88a9.41,9.41,0,0,0,2.17-.33,11.4,11.4,0,0,0,5.54-7.38c.94-3.1,1.27-10.63,1.27-10.63S237.41,152.14,236.66,155.71Z"/><path class="cls-6" d="M209.91,179.75a2.2,2.2,0,0,0,.47-.27c1.81-1.41,1.85-3.85,1.4-5.54s.27-2.92.92-5.83-4.23-7.8-7-9.7-7-7.52-7-7.52h0c2.77,4.89,8.54,15.17,9.73,18.81A31.22,31.22,0,0,1,209.91,179.75Z"/><path class="cls-14" d="M62.61,112.91a34.81,34.81,0,0,0,3.24-11c.28-2.11,3.38-7,5.5-11.13s3.24-12,2.81-14.94a31.1,31.1,0,0,0-2.26-6.22,20.21,20.21,0,0,1-7.6-9c-2.67-4.49-7.75,1.26-9.72,2.53s-5.22,44.26-4.94,48.62A66.94,66.94,0,0,0,50.89,121c1.7-.69,2.7-1.54,3.54-1.62C55.84,119.26,60.49,116.86,62.61,112.91Z"/><path class="cls-2" d="M38.75,58.75c-1.48.7-1.41,1.13-2.07,2.82s-1.6,1.5-2.16,2.81.28,4.05,0,5.36-1.78,3.38-2.72,4.6a8.9,8.9,0,0,0-1.23,6.86c.76,2.44,2.54,5.45,2.92,7a85,85,0,0,1,1,11,24.11,24.11,0,0,1-1.23,7.33c-.66,1.78,1.5,6,3.19,7.14s4,1,6.39.66a22.27,22.27,0,0,1,7,.25,15,15,0,0,0,7-.44c2-.85,4.14-4.14,4.14-5.83s-.19-8.64,1.31-11.93,5-8,5.17-10.24.94-4.61.47-8.46a48.32,48.32,0,0,0-1.79-9.53c-.84-2.4-1.9-3.95-2-5.71s-.49-3.31-1.76-3.31a23.62,23.62,0,0,1-3.17,0l-.78-.14a6.89,6.89,0,0,0,1.1-1.8,2.2,2.2,0,0,0,.1-1.34L58,57.42a6.62,6.62,0,0,0,0-2c-.18-1.2-.67-1.87-.71-1.31a16.84,16.84,0,0,1-.45,3.14A3.09,3.09,0,0,0,56.32,56c-.35-.42-.74-.42-.74.43a7.74,7.74,0,0,1-.35,1.93s-3-.17-4.62-.1-2.43.42-2.82.17A2.91,2.91,0,0,1,47,55.91l.24-1a6.71,6.71,0,0,0-1,2l-.18.85s-1.13-1-1.2-1.8l-.07-.84a2.77,2.77,0,0,0-.21,1.83,8.75,8.75,0,0,0,1.06,1.9,4,4,0,0,1-2.29-.35,3.63,3.63,0,0,1-1.83-1.87l-.15-.49s.15,2.29.75,2.85a3.34,3.34,0,0,1-1.56-.46C40,58.13,39.11,58.58,38.75,58.75Z"/><path class="cls-11" d="M55.75,85.34c-.37,2.25-1.4,6.48-1.4,8.17s1.54,8,1.8,9.75,1.62,6,0,7.75-4.44,3-5.72,2.77a1,1,0,0,0-1.16.64l.57.11a15,15,0,0,0,7-.44c2-.85,4.14-4.14,4.14-5.83s-.19-8.64,1.31-11.93,5-8,5.17-10.24a48.12,48.12,0,0,0,.62-6.37L57.18,78.9S56.13,83.08,55.75,85.34Z"/><path class="cls-11" d="M65.63,66.68a14.48,14.48,0,0,1-1.49-4.29c-.14-1.76-.49-3.31-1.76-3.31a23.62,23.62,0,0,1-3.17,0l-.78-.14a6.89,6.89,0,0,0,1.1-1.8,2.2,2.2,0,0,0,.1-1.34L58,57.42a6.62,6.62,0,0,0,0-2c-.18-1.2-.67-1.87-.71-1.31a16.84,16.84,0,0,1-.45,3.14A3.09,3.09,0,0,0,56.32,56c-.35-.42-.74-.42-.74.43a7.74,7.74,0,0,1-.35,1.93s-3-.17-4.62-.1-2.43.42-2.82.17A2.91,2.91,0,0,1,47,55.91l.24-1a6.71,6.71,0,0,0-1,2l-.18.85s-1.13-1-1.2-1.8l-.07-.84a2.77,2.77,0,0,0-.21,1.83,8.75,8.75,0,0,0,1.06,1.9,4,4,0,0,1-2.29-.35,3.63,3.63,0,0,1-1.83-1.87l-.15-.49s.15,2.29.75,2.85a3.34,3.34,0,0,1-1.56-.46c-.42-.38-1.35.07-1.71.24-1.48.7-1.41,1.13-2.07,2.82s-1.6,1.5-2.16,2.81a7.65,7.65,0,0,0-.05,3.23A7.58,7.58,0,0,1,37,65.74S41,64,42.79,65s4,3.57,6.91,3.28,4.79-3.41,7.84-3.4S62.13,66.66,65.63,66.68Z"/><path class="cls-15" d="M35.7,65s-5-.76-7.66-3.29-2.74-6.44-2.45-9.4,1.18-5.82,1.65-4.6,1.27,6.61,3.08,8,7.62,2.19,8.16,3.14S37.67,64.2,35.7,65Z"/><path class="cls-16" d="M30.32,55.74c-1.81-1.42-2.61-6.81-3.08-8-.2-.53-.49-.29-.77.39a25.7,25.7,0,0,0,.86,7.64c.9,2.35,5,4.83,8,5.17a27.54,27.54,0,0,1,2.91.55,4.06,4.06,0,0,0,.25-2.58C37.94,57.93,32.12,57.15,30.32,55.74Z"/><path class="cls-15" d="M38.48,58.88c-.32-.56-2.45-1.06-4.52-1.66a23.19,23.19,0,0,1-1.25,2.62c-.7,1.23-1.44,2.23-.67,1.62a10.37,10.37,0,0,0,2.28-2.75c.36-.74.89-.81,1-.35a7.83,7.83,0,0,1-1,3.1c-.41.6.12.64,1-1.13s1.94-2,1.8-1.31a22.32,22.32,0,0,1-1.8,3.5c-.39.63,1.27.84,2,0a13.12,13.12,0,0,0,1.25-2.32A2.17,2.17,0,0,0,38.48,58.88Z"/><path class="cls-3" d="M39.55,114c.16,1.24,2.82,4.16,4.3,4.58s3.24-.92,5-.56,4,0,6.27-2.12,3-2.89,1.69-3.1S39.2,111.29,39.55,114Z"/><path class="cls-17" d="M42.86,113.26c-1.43.19-2.4,2,0,2.47s7.54.28,9-1.23S46.67,112.77,42.86,113.26Z"/><path class="cls-3" d="M67.34,86.86l-5.67-3.4s-5,5.45-5.52,8.36a17.3,17.3,0,0,0,1.3,9.3c1.22,3,.18,9-1.79,10.34s-10.9.47-13.81,0-4.14.09-5.21-1-2-3.76-.63-5.72a13.5,13.5,0,0,0,2.6-7.34c.13-3,1.43-11,1.43-11l-6.91.73a8.71,8.71,0,0,1,.36,1,85,85,0,0,1,1,11,24.11,24.11,0,0,1-1.23,7.33c-.66,1.78,1.5,6,3.19,7.14s4,1,6.39.66a22.27,22.27,0,0,1,7,.25,15,15,0,0,0,7-.44c2-.85,4.14-4.14,4.14-5.83s-.19-8.64,1.31-11.93C63.68,93.38,66.61,89.3,67.34,86.86Z"/><path class="cls-10" d="M54.56,104.88c-.64-1.48-3-.63-4,.07s-1.06-.49-2.46-1.27-2.33,1.06-2.89,1.54-2.82.29-3.79-.81-2.49-1.5-2.84-.8-.82,1.61-.82,1.61h0c-.37.06-.67.43-.92,1.07a3.36,3.36,0,0,0,.89,3.42c.81,1,2.64-.18,3.06.38s.19,1.65-.26,3.39a1.34,1.34,0,0,0,.09,1,20,20,0,0,0,2.28-.23,22.27,22.27,0,0,1,7,.25,12.25,12.25,0,0,0,2.16.21c0-.79-1.74-2-1.46-2.81s.85-1.23,2.4-1.41,1.92-1.32,1.92-2.49C55.52,106.8,55.19,106.36,54.56,104.88Z"/><path class="cls-6" d="M69.53,68.94c.94-.15,2.93-1.72,4.79-2s5.57-.35,7.51.42a7.79,7.79,0,0,0,3.77.78c.6-.11,1,.24.46,1.26a16.15,16.15,0,0,1-3.78,4.58c-1.37.92-6.3,2.89-8.24,2.26s-3.17-1.69-4.51-1.62-1.63.36-1.82,1-1-2.6-1.35-3.9S65.08,66,65.7,66.85,66.89,69.36,69.53,68.94Z"/><path class="cls-18" d="M86.26,68.84a18.13,18.13,0,0,0-3-.16c-2.4,0-6.44-.48-8.27.25s-2.73,1.52-4.61,1.84-3.57.18-4.15.3c.05.25.11.46.15.62.14.51.35,1.32.56,2.08,1.31.08,3.33-.52,4.52.15a9.7,9.7,0,0,0,5.41,1.36c2.54,0,4.76-1.88,6.82-2.6h0a19.3,19.3,0,0,0,2.39-3.31A2.7,2.7,0,0,0,86.26,68.84Z"/><path class="cls-6" d="M40.18,78.74c-.21-2.54-2.75-3.67-3.75-4.87-.73-.87-1.6-2.17-2.28-3.12a22.72,22.72,0,0,1-2.35,3.59,8.9,8.9,0,0,0-1.23,6.86c.76,2.44,2.54,5.45,2.92,7a85,85,0,0,1,1,11,21.93,21.93,0,0,1-.21,2.87c1.16-1.79,1-4.66,1.35-5.81a11.61,11.61,0,0,1,2.19-3.45C39,91.28,38,91,39.27,88.88S40.39,81.27,40.18,78.74Z"/><path class="cls-19" d="M52.94,110.52c1.55-.19,1.92-1.32,1.92-2.49.66-1.23.33-1.67-.3-3.15,0-.07-.07-.12-.1-.18a1.57,1.57,0,0,1-.18,1.51c-.65.75-.89,1-.89,1-.31.94-3.86,2.18-5.28,2.46a13.89,13.89,0,0,1-4.55,0,9.63,9.63,0,0,1-4.33-2.21,5.12,5.12,0,0,1-1.4-2.39c0,.11-.09.18-.09.18h0c-.37.06-.67.43-.92,1.07a3.36,3.36,0,0,0,.89,3.42c.81,1,2.64-.18,3.06.38s.19,1.65-.26,3.39a1.34,1.34,0,0,0,.09,1,20,20,0,0,0,2.28-.23,22.27,22.27,0,0,1,7,.25,12.25,12.25,0,0,0,2.16.21c0-.79-1.74-2-1.46-2.81S51.39,110.7,52.94,110.52Z"/><path class="cls-3" d="M66.18,68.1c-.84-2.4-1.9-3.95-2-5.71s-.49-3.31-1.76-3.31a23.62,23.62,0,0,1-3.17,0l-.78-.14a6.89,6.89,0,0,0,1.1-1.8,2.2,2.2,0,0,0,.1-1.34L58,57.42a6.62,6.62,0,0,0,0-2c-.18-1.2-.67-1.87-.71-1.31a16.84,16.84,0,0,1-.45,3.14A3.09,3.09,0,0,0,56.32,56c-.35-.42-.74-.42-.74.43a7.74,7.74,0,0,1-.35,1.93s-3-.17-4.62-.1-2.43.42-2.82.17A2.91,2.91,0,0,1,47,55.91l.24-1a6.71,6.71,0,0,0-1,2l-.18.85s-1.13-1-1.2-1.8l-.07-.84a2.77,2.77,0,0,0-.21,1.83,8.75,8.75,0,0,0,1.06,1.9,4,4,0,0,1-2.29-.35,3.63,3.63,0,0,1-1.83-1.87l-.15-.49s.15,2.29.75,2.85a3.34,3.34,0,0,1-1.56-.46c-.42-.38-1.35.07-1.71.24-1.48.7-1.41,1.13-2.07,2.82s-1.6,1.5-2.16,2.81A3.86,3.86,0,0,0,34.33,66l1,1.81v-.21c1,0,2.89-4.37,4.23-5.15a8.47,8.47,0,0,1,5.78-.95c2,.53,6.48.25,8.38,0s5.5-.67,6.63.95a28,28,0,0,1,3,6.93c.12.76,1.85.36,3.21-.08C66.43,68.85,66.31,68.46,66.18,68.1Z"/><path class="cls-6" d="M66.18,68.1c-.08-.23-.16-.44-.24-.65a2.24,2.24,0,0,0-1.87-.27c-1.9.56-.7,1.76-.63,2.61S63.83,72.18,63,73s-3.3,1.23-4.71,3.3-1.48,4.59-1.48,6.92,1.48,3.94.5,5.77-1.77,3.18-.5,4.09,3.39,2.4,3.45,3.81a8.35,8.35,0,0,0,1.16,2.91,13.7,13.7,0,0,1,.91-3.5c1.51-3.29,5-8,5.17-10.24s.94-4.61.47-8.46A48.32,48.32,0,0,0,66.18,68.1Z"/><path class="cls-18" d="M33.92,65.87a24.88,24.88,0,0,1-4.41,0c-1.93-.33-5.45-1.36-7.94-.84s-3.19,1.83-4.65,2.25-3.62.24-3.24,1,4.27,3.06,5.59,4.16,5.49,3,8.83,1,5.12-3.43,6.06-3.52S36.32,66.15,33.92,65.87Z"/><path class="cls-6" d="M34.32,69.6c-1.42-.33-3.75,1.74-7.85,3-2.42.72-6-.23-8.55-1.12.54.37,1,.72,1.35,1,1.31,1.1,5.49,3,8.83,1s5.12-3.43,6.06-3.52a.68.68,0,0,0,.37-.2A.24.24,0,0,0,34.32,69.6Z"/><path class="cls-6" d="M21.57,65c2.49-.52,6,.51,7.94.84a24.88,24.88,0,0,0,4.41,0,1.53,1.53,0,0,1,1,.45l.38.77-.38-1.43-2-.59A34.34,34.34,0,0,0,26.31,64c-2.44,0-4.8.18-6.7,1.78h0A6.85,6.85,0,0,1,21.57,65Z"/><path class="cls-15" d="M62.61,60.1s3.54-1.53,4.52-2.14,3.37-2,3.42-3.82-.19-6.18.65-5.62,3.6,5,3.71,8.32-1.21,5.49-3.09,6.71S66,66.75,65,66,61.53,63.42,62.61,60.1Z"/><path class="cls-16" d="M72.4,50a5.74,5.74,0,0,0-1.2-1.48c-.84-.56-.61,3.81-.65,5.62S68.1,57.35,67.13,58s-4.52,2.14-4.52,2.14a4.55,4.55,0,0,0,.06,3.28c.86.17,2-.49,3.51-1.05,2.21-.84,5.68-3.38,6.48-6.34A12.28,12.28,0,0,0,72.4,50Z"/><path class="cls-4" d="M56.67,113.25c-2.77,1.42-5.6.67-9.3-.07s-5.81.5-8.88.5-4.72-4-4.87-4.33a9.79,9.79,0,0,0,2.87,4.27c1.7,1.12,4,1,6.39.66a22.27,22.27,0,0,1,7,.25,15,15,0,0,0,7-.44c1.66-.71,3.44-3.14,4-4.9A12.82,12.82,0,0,1,56.67,113.25Z"/><path class="cls-20" d="M47.51,109.73a6.66,6.66,0,0,0,2.15-1,26.6,26.6,0,0,0,1.94-2.08,1.71,1.71,0,0,1,1.69-.4.61.61,0,0,1,.28.7S52.83,108.74,47.51,109.73Z"/><path class="cls-20" d="M38.54,106.62s-.19-.87.48-1.12,1.66.85,1.76,1.38,1.54,2.61,2.78,2.76C43.56,109.64,39.68,108.72,38.54,106.62Z"/><path class="cls-15" d="M63.43,64.61A32.47,32.47,0,0,1,67.34,64c.11.12,1.71-1.49.57-2.49a8.11,8.11,0,0,1-1.66-3l-.46.22a6,6,0,0,0,.11.79,30.53,30.53,0,0,0,1.44,3.29,1.78,1.78,0,0,1-1.85-.47c-.59-.7-.43-2-.72-3.13h0l-.32.15a13.72,13.72,0,0,0,0,1.75c0,1.36.7,1.73.28,2.36s-1.41-.61-1.5-1.94a3.66,3.66,0,0,1,.35-1.76l-.92.4A4.46,4.46,0,0,0,63.43,64.61Z"/><path class="cls-21" d="M32.12,77.7A1.92,1.92,0,0,1,32.35,76a2.47,2.47,0,0,1,3.43-.42,6.61,6.61,0,0,1,2.38,4.2c0,.8.05.89.42,1.2a.49.49,0,0,1-.47.84c-.6-.13-1.74,1.38-3.54,1.16S31.68,81.28,32.35,80,32.67,79,32.12,77.7Z"/><path class="cls-6" d="M33.53,76.32a3,3,0,0,1,3,1.13c.7.84,1.55,2.57,1.12,3.38a3,3,0,0,1-3.59.85c-1.3-.67-3.35-3.46-.53-5.36"/><path class="cls-22" d="M32.7,77.58a1.85,1.85,0,0,1,1.81-.94,2.78,2.78,0,0,1,2.25,1.68c.38.9,1,2.12.19,2.75a2.78,2.78,0,0,1-3.83-.56C32.11,79,32.37,78.41,32.7,77.58Z"/><path class="cls-21" d="M33.68,83s.47.82,2.34.22a13.94,13.94,0,0,0,2.17-.79,2.89,2.89,0,0,1-1.8,1.74C35.12,84.49,33.7,84.33,33.68,83Z"/><path class="cls-23" d="M36.76,78.32a2.78,2.78,0,0,0-2.25-1.68,1.85,1.85,0,0,0-1.81.94,2.41,2.41,0,0,0-.23,1.62s.11-.73,1.21-1.11a3.86,3.86,0,0,1,3.23.59Z"/><path class="cls-24" d="M37.53,79.2s-.86-2.22-2.15-2.83a3.64,3.64,0,0,0-2.9.19l-1.85,1L33,77.28A4.29,4.29,0,0,1,37.53,79.2Z"/><path class="cls-24" d="M36,77.6a1.7,1.7,0,0,0-2.08,1.2A1.9,1.9,0,0,0,35,81a1.73,1.73,0,0,0,2.28-1.11A2.06,2.06,0,0,0,36,77.6Z"/><path class="cls-22" d="M34.79,78.65a.52.52,0,1,1-1,0,.52.52,0,1,1,1,0Z"/><path class="cls-24" d="M32.45,80a2.51,2.51,0,0,0,1.06,1.76,3.37,3.37,0,0,0,3.84-.56S34.1,83.13,32.45,80Z"/><path class="cls-21" d="M66,79a1.93,1.93,0,0,0-.23-1.67,2.48,2.48,0,0,0-3.42-.42,6.63,6.63,0,0,0-2.39,4.21c0,.79-.05.88-.42,1.19a.49.49,0,0,0,.47.84c.6-.13,1.74,1.39,3.55,1.16s2.88-1.73,2.21-3S65.41,80.29,66,79Z"/><path class="cls-6" d="M64.55,77.58a3,3,0,0,0-3,1.13c-.7.85-1.55,2.57-1.12,3.38a3,3,0,0,0,3.59.85c1.3-.67,3.35-3.45.53-5.36"/><path class="cls-22" d="M65.38,78.84a1.85,1.85,0,0,0-1.81-.94,2.77,2.77,0,0,0-2.25,1.69c-.38.89-1,2.11-.19,2.75A2.79,2.79,0,0,0,65,81.77C66,80.28,65.71,79.67,65.38,78.84Z"/><path class="cls-21" d="M64.4,84.29s-.47.82-2.34.22a12.44,12.44,0,0,1-2.17-.79,2.92,2.92,0,0,0,1.8,1.75C63,85.75,64.38,85.59,64.4,84.29Z"/><path class="cls-23" d="M61.32,79.59a2.77,2.77,0,0,1,2.25-1.69,1.85,1.85,0,0,1,1.81.94,2.43,2.43,0,0,1,.23,1.63s-.11-.74-1.21-1.12a3.86,3.86,0,0,0-3.23.59Z"/><path class="cls-24" d="M60.55,80.47s.85-2.23,2.15-2.83a3.64,3.64,0,0,1,2.9.18l1.85,1-2.33-.32A4.28,4.28,0,0,0,60.55,80.47Z"/><path class="cls-24" d="M62.81,78.64a1.71,1.71,0,0,1,2.08,1.21A1.9,1.9,0,0,1,63.76,82a1.72,1.72,0,0,1-2.28-1.1A2,2,0,0,1,62.81,78.64Z"/><path class="cls-22" d="M61.11,80.12a.54.54,0,0,0,.52.56.56.56,0,0,0,0-1.11A.54.54,0,0,0,61.11,80.12Z"/><path class="cls-24" d="M65.63,81.22A2.51,2.51,0,0,1,64.57,83c-.94.57-3,.52-3.83-.56C60.74,82.42,64,84.39,65.63,81.22Z"/><path class="cls-25" d="M46.89,72.42c-1-1.1-.78,3.73-1.43,6.13a30.89,30.89,0,0,0-1,7c-.26,3.46.06,9.15-.26,11.24s-.06,5.47,1.36,4.34,2.6-3.89,3.44-4.34,2.17-3.41,1.9-6.8S49.48,82.14,50.07,80a28.53,28.53,0,0,0,.83-8.74c-.31-2.4-1.29-2-1.94,0S48.06,73.69,46.89,72.42Z"/><path class="cls-6" d="M83.91,181.45a1.59,1.59,0,0,0,1.2-.47c1.4-1.47,1.5-3.19,1-5.54s.26-2.82,1.48-5-.47-5.73-2.44-6.58c-1.29-.55-3.3-.94-4.92-1.73,0,.32.08.62.11.93.28,3.66,2.67,6.62,3,7.47a26.08,26.08,0,0,1,.84,9.16A16,16,0,0,1,83.91,181.45Z"/></svg>