<svg id="Layer_1" data-name="Layer 1" xmlns="http://www.w3.org/2000/svg" viewBox="0 0 90 110"><defs><style>.cls-1{fill:#fff;}.cls-2{fill:#4c270c;}.cls-3{fill:#000a19;}.cls-4{fill:#af5c1e;}.cls-5{fill:#e0d0cd;}.cls-6{fill:#fff2ee;}.cls-7{fill:#635957;}.cls-8{fill:#490303;}.cls-9{fill:#ed6969;}.cls-10{fill:#f98282;}.cls-11{fill:#bc3939;}.cls-12{fill:#211b1a;}.cls-13{fill:#312927;}.cls-14{fill:#070505;}.cls-15{fill:#0f0c0b;}.cls-16{fill:#1e1817;}.cls-17{fill:#60524f;}</style></defs><path class="cls-1" d="M20.6,46.13a9.87,9.87,0,0,1-7.09-3.07,12,12,0,0,1-3.08-9.22c.32-7,6.46-14.59,11.73-14.59.2,0,.41,0,.62,0,4.92.6,6.76,11.49,6.32,16.91C28.54,43.16,26,46.13,20.6,46.13Z"/><path d="M22.16,19.76a5.12,5.12,0,0,1,.56,0c4.43.53,6.33,10.91,5.89,16.37-.54,6.64-2.93,9.47-8,9.47a9.36,9.36,0,0,1-6.73-2.92c-1.46-1.52-3.15-4.29-2.94-8.84.3-6.6,6.28-14.11,11.23-14.11m0-1c-5.58,0-11.9,7.91-12.23,15.06C9.55,42.1,15.14,46.63,20.6,46.63s8.4-3,9-10.39c.4-5-1.2-16.77-6.76-17.44a5.27,5.27,0,0,0-.68,0Z"/><path class="cls-2" d="M28.81,36c-.31,5.54-3.51,9.89-6.78,9.74s-6-4.65-5.68-10.19,3.5-9.82,6.77-9.67S29.11,30.44,28.81,36Z"/><path class="cls-3" d="M25.47,35.82c-.15,2.69-1.56,4.82-3.16,4.74s-2.76-2.32-2.61-5,1.56-4.82,3.15-4.75S25.62,33.12,25.47,35.82Z"/><path class="cls-1" d="M23.79,32.06a2.05,2.05,0,0,1-2.19,1.88,2,2,0,0,1-2-2.08A2.06,2.06,0,0,1,21.82,30,2,2,0,0,1,23.79,32.06Z"/><path class="cls-4" d="M9.93,33.82C9.55,42.1,15.14,46.63,20.6,46.63s8.4-3,9-10.39c.4-5-1.2-16.77-6.76-17.44C17.11,18.1,10.27,26.37,9.93,33.82Z"/><path class="cls-1" d="M71.57,49.85a17.61,17.61,0,0,1-11.73-4.72C59.06,38.38,61,30.76,64.6,26.55A8.8,8.8,0,0,1,71,23.11h.43c10,0,12.27,13.67,12.7,21.82,0,.09,0,.17,0,.24-4.19,3.11-8.42,4.69-12.58,4.69Z"/><path d="M71.44,23.6c9.62,0,11.77,13.34,12.2,21.32-4,2.94-8.09,4.43-12.07,4.43a17.06,17.06,0,0,1-11.25-4.46c-.71-6.58,1.19-13.94,4.66-18a8.3,8.3,0,0,1,6-3.26h.41m0-1H71c-8.25.31-12.85,12.8-11.63,22.75a17.91,17.91,0,0,0,12.2,5c3.74,0,8.18-1.24,13.1-5-.15-2-.5-22.8-13.23-22.8Z"/><path class="cls-2" d="M80.19,38.52c0,6-3.58,10.95-7.55,10.95s-7.55-4.76-7.55-10.81,3.57-10.88,7.54-10.88S80.19,32.47,80.19,38.52Z"/><path class="cls-3" d="M76.14,38.52c0,2.94-1.56,5.33-3.5,5.33s-3.5-2.39-3.5-5.33,1.57-5.33,3.5-5.33S76.14,35.57,76.14,38.52Z"/><path class="cls-1" d="M73.86,34.91a2.53,2.53,0,1,1-2.52-2.57A2.54,2.54,0,0,1,73.86,34.91Z"/><path class="cls-4" d="M59.37,45.36s10.52,11.2,25.3,0c-.16-2-.51-23.27-13.67-22.79C62.75,22.92,58.15,35.41,59.37,45.36Z"/><path class="cls-5" d="M68.41,65.94c-4.49-11.9-16-9.25-24.83-24.69-4.65-8.14-2.75-14.43,0-17.62,4.59-5.33,3.64-7.55,1.29-11.31-1-1.54-5.28-8-5.28-8s-13,5.88-9.08,18c2.34,7.17,1.54,7.48-2.81,14.5C17.51,53.25,14.51,55,11.94,60.68a24,24,0,0,0-.59,18,23.34,23.34,0,0,0,3.14,1.89c5.62,2.12,7.51,1.17,8.13,3.34a29.46,29.46,0,0,1,.73,6.82c.21,5.65.82,11.16,11.38,13.61,9.27,2.14,15.46-.12,21.47-6.19C61.73,92.61,73.14,78.46,68.41,65.94Z"/><path class="cls-6" d="M68.41,65.94c-4.49-11.9-16-9.25-24.83-24.69-4.65-8.14-2.75-14.43,0-17.62,4.59-5.33,3.64-7.55,1.29-11.31-1-1.54-5.28-8-5.28-8s-13,5.88-9.08,18c2.34,7.17,1.54,7.48-2.81,14.5C17.51,53.25,14.51,55,11.94,60.68a24,24,0,0,0-.59,18,23.34,23.34,0,0,0,3.14,1.89c5.62,2.12,7.51,1.17,8.13,3.34a29.46,29.46,0,0,1,.73,6.82c.11,2.94.33,5.84,2,8.3,6.59,7.87,19.47,5.87,29.19-3.74,2.06-2,4.86-2.76,7.55-4.08C67,84.41,71.67,74.58,68.41,65.94Z"/><path class="cls-7" d="M55.88,98c-4.69,4.73-9.25,6.84-14.79,6.84a27.38,27.38,0,0,1-6.26-.78c-10.62-2.46-10.84-8.15-11-13.18l0-.68a26.12,26.12,0,0,0-.73-6.25c-.4-1.43-1.3-1.74-2.89-2.09-.05.3-.1.6-.16.9,1.48.33,1.92.54,2.18,1.44a26.11,26.11,0,0,1,.69,6l0,.68c.2,5.09.44,11.43,11.74,14a28.48,28.48,0,0,0,6.46.8h0c5.8,0,10.56-2.19,15.44-7.11.59-.6,1.6-1.61,2.87-3.11-.53.14-1.25.57-1.78.74A24.24,24.24,0,0,1,55.88,98Z"/><path class="cls-8" d="M28.12,85c-.07.61-3.28,12.08,6.85,13C50.91,99.57,62,71.75,62,71.75v-.3S28.2,84.4,28.12,85Z"/><path class="cls-9" d="M44.44,78.26c-4,3.69-13.81,9.42-14.49,16-.28,2.71,2.84,3.55,5,3.76C50.91,99.57,62,71.75,62,71.75v-.3S53.13,74.86,44.44,78.26Z"/><path class="cls-10" d="M36.13,85C33,87.77,30.3,90.91,30,94.29c-.28,2.71,2.84,3.55,5,3.76,4.75.45,9.07-1.7,12.79-4.94C47.76,88.33,41.32,86.18,36.13,85Z"/><path class="cls-11" d="M36.23,98.56h0c-.44,0-.87,0-1.31-.06-1.57-.15-3.67-.6-4.76-1.93a3.06,3.06,0,0,1-.66-2.33C30,89,35.91,84.42,40.63,80.76c1.33-1,2.58-2,3.51-2.84l.06,0,.08,0c8.58-3.37,17.5-6.78,17.59-6.82l.62-.24v1.06l0,.08C62,73,51.63,98.56,36.23,98.56Zm8.46-19.91c-.94.85-2.19,1.81-3.5,2.83-4.34,3.36-10.28,8-10.79,12.86A2.15,2.15,0,0,0,30.87,96c.93,1.14,3,1.5,4.14,1.61.4,0,.81.05,1.22.05,13.49,0,23.42-21.51,25.12-25.45C58.93,73.13,51.71,75.9,44.69,78.65Z"/><path class="cls-7" d="M36.23,98.56h0c-.44,0-.87,0-1.31-.06a8.12,8.12,0,0,1-6.13-3.1c-1.19-1.62-2.35-4.71-1.17-10.23,0-.11,0-.19.05-.22,0-.4.08-.65,17.27-7.37C53.31,74.3,61.79,71.05,61.87,71l.62-.24v1.06l0,.08C62,73,51.63,98.56,36.23,98.56ZM28.54,85.25l0,.11c-1.11,5.19-.06,8,1,9.5A7.3,7.3,0,0,0,35,97.6c.4,0,.81.05,1.22.05,13.49,0,23.42-21.51,25.12-25.45C48.62,77.08,30.25,84.24,28.54,85.25Z"/><path class="cls-5" d="M9.88,61S2.29,69.07,7.33,79c3.58,7,10,8.43,16.06,7.12C27,87.34,44.76,97,64.35,70.67Z"/><path class="cls-6" d="M10,61S2.41,69.07,7.44,79c3.59,7,8.11,5.79,13.18,1.29,3.64,1.25,19.93,16.7,44-10Z"/><path class="cls-7" d="M35.2,89.3A29.27,29.27,0,0,1,24,86.89l-.82-.32c-7.37,1.56-12.74-.86-15.95-7.17A16.13,16.13,0,0,1,9.14,61.56l.67.62A15,15,0,0,0,8,79c3,5.93,8.09,8.17,15.08,6.66l.12,0,.12,0,1,.37c5.31,2.12,21.45,8.54,39.47-15.63l.74.55C56.69,81.47,48.21,87.52,39.32,89A25,25,0,0,1,35.2,89.3Z"/><path class="cls-7" d="M22.75,86.23c-1-3.49-2.23-4.42-2.24-4.43l.53-.75c.06,0,1.48,1.07,2.59,4.92Z"/><path class="cls-7" d="M65.5,72.77c-.34-1.86-4.28-3.92-5.77-4.56a7.66,7.66,0,0,1,3.77,1A3.91,3.91,0,0,1,65.5,72.77Z"/><path class="cls-12" d="M9.17,60c5.21-8.73,27-4.44,25.73,5.37-.73,5.82-10.39,16.35-14.12,16.08C17.3,81.17,5.05,66.89,9.17,60Z"/><path class="cls-12" d="M32.89,59.85a6.21,6.21,0,0,1,.37,3c-.73,5.82-10.4,16.35-14.13,16.07-1.59-.12-5-3.17-7.87-7.11,3,5.07,7.6,9.46,9.52,9.6,3.73.27,13.39-10.26,14.12-16.08A6.58,6.58,0,0,0,32.89,59.85Z"/><path class="cls-13" d="M18.36,79.38c4,.41,14.17-10.69,14.9-16.51a6.21,6.21,0,0,0-.37-3c-5.37-5.56-19.63-6.72-23.72.13-1.85,3.11-.39,7.71,2.09,11.85C14.12,75.77,16.78,79.22,18.36,79.38Z"/><path class="cls-14" d="M20.92,81.89h-.18C18.25,81.7,12.83,76,10,70.5,8.37,67.38,6.85,63,8.78,59.75s6-5,11.18-5c5.44,0,10.89,2,13.55,5.05a7,7,0,0,1,1.85,5.56C34.64,71.11,25.2,81.89,20.92,81.89ZM20,55.71c-4.9,0-8.69,1.64-10.4,4.5s-.27,7,1.24,9.87c3,5.83,8.23,10.76,10,10.89h.11c3.46,0,12.83-10.13,13.53-15.68a6,6,0,0,0-1.62-4.85C30.32,57.62,25.15,55.71,20,55.71Z"/><path class="cls-14" d="M8.57,63.63l-.49-.77c8.49-5.37,17.41-1.38,17.5-1.34S16.63,58.53,8.57,63.63Z"/><path class="cls-15" d="M29.45,70.14c-2.13-3.09-4.94-3.94-6.43-1.88S21.9,73,26.93,73.73a14.09,14.09,0,0,1,3,.75c.72-.86,1.41-1.75,2-2.65A3.38,3.38,0,0,1,29.45,70.14Z"/><path class="cls-16" d="M23,68.26c-1.19,2-1.12,4.68,3.82,5.45a35.69,35.69,0,0,0,2.77-3.35c-.05-.07-.11-.14-.16-.22C27.32,67.05,24.7,66.36,23,68.26Z"/><path d="M30,75l-.3-.12a13.63,13.63,0,0,0-2.88-.73c-3.21-.48-4.37-1.75-4.78-2.73A3.55,3.55,0,0,1,22.65,68a3,3,0,0,1,2.46-1.31c1.6,0,3.31,1.17,4.71,3.2A2.93,2.93,0,0,0,32,71.37l.78.07-.45.65c-.62.9-1.31,1.8-2,2.69Zm-4.93-7.44a2.06,2.06,0,0,0-1.72.94,2.64,2.64,0,0,0-.47,2.57c.46,1.09,1.87,1.85,4.07,2.18a14.58,14.58,0,0,1,2.77.67c.49-.6,1-1.21,1.4-1.82a4.22,4.22,0,0,1-2.09-1.73C27.86,68.64,26.38,67.59,25.11,67.59Z"/><path class="cls-15" d="M16.28,68.16c-1.53-1.73-3.91-1.1-5.83,1.71l-.16.21a29.47,29.47,0,0,0,1.85,3.15l.6-.1C17.3,72.45,17.37,70,16.28,68.16Z"/><path class="cls-16" d="M15.42,67.4c-1.41-.75-3.4.18-5,2.47l-.16.21a25.85,25.85,0,0,0,1.32,2.34C14,72.38,16.56,69.62,15.42,67.4Z"/><path d="M11.93,73.74l-.17-.25a31,31,0,0,1-1.88-3.21L9.76,70l.21-.29a.64.64,0,0,0,.1-.13c1.28-1.86,2.85-2.93,4.31-2.93a2.73,2.73,0,0,1,2.27,1.21,3.26,3.26,0,0,1,.53,3.18c-.38.9-1.44,2.07-4.38,2.51l-.57.1Zm-1.11-3.62a29.91,29.91,0,0,0,1.53,2.61l.32,0c2-.3,3.26-1,3.67-2a2.35,2.35,0,0,0-.43-2.29,1.83,1.83,0,0,0-1.53-.83C13.24,67.6,11.91,68.54,10.82,70.12Z"/><ellipse class="cls-17" cx="20.82" cy="57.72" rx="4.13" ry="1.57"/></svg>