<svg id="Layer_1" data-name="Layer 1" xmlns="http://www.w3.org/2000/svg" viewBox="0 0 80 60"><defs><style>.cls-1{fill:#62add3;}.cls-2{fill:#fff;}.cls-3{fill:#4896b5;}.cls-4{fill:#bf120a;}.cls-5{fill:#700;}.cls-6{fill:#161616;}</style></defs><path class="cls-1" d="M70,25.6l0-.07Zm.15.45a.53.53,0,0,0,0-.15A.88.88,0,0,1,70.13,26.05Zm.26.77C68,19.1,59.5,21.19,62,29.22c2.62,7.21,10.41,5.11,8.39-2.52A.28.28,0,0,1,70.39,26.82Zm.14.41a.19.19,0,0,0,0-.09A.19.19,0,0,1,70.53,27.23Zm3.63,7.42C63.63,47,49,26.44,61,14.86,68.19,17.08,73.62,27.42,74.16,34.65Z"/><path class="cls-1" d="M36.63,33.93c5.24,6.44,5.15,12.22,5.15,12.22-2.07,2.75-10.44,6-17.38,6C5.4,43.36,22.9,13.41,36.63,33.93Zm-2,12.84c4.71-3.1,3.69-15-3.63-12.81C23.89,36.69,27.32,49,34.64,46.77Z"/><path class="cls-2" d="M57.19,13.87a25.91,25.91,0,0,1,3.52.89c-4.42,4.9-4.5,12.15-2.27,17.91-4.23-5.34-7-12.23-6-19.2A25.75,25.75,0,0,1,57.19,13.87Z"/><path class="cls-2" d="M25.05,52.93c-8.93.83-17.59-5.39-17.59-5.39.14-4.5,3.08-16.85,13.7-18.65C18,34.21,15,44.57,25.05,52.93Z"/><path class="cls-3" d="M68,33.51a3.5,3.5,0,0,1-2.17,0,9,9,0,0,1-1.27,4.61c22.07,3.27-3.67-38.36-6.81-15.47.78-.05,2.26.17,4.06,1.94,2-5.26,7.59-1.88,8.54,2.21a.28.28,0,0,0,0-.12C71,29.07,70.75,32.59,68,33.51Z"/><path class="cls-3" d="M19.06,34.9c2.33-.46,5.29-.11,8,3,6.57-16.2,20,13.16,3.89,8.62a8.29,8.29,0,0,1-2.09,6C57,51.47,26.9,10.84,19.06,34.9Z"/><path class="cls-4" d="M8.15,42.31s6.6-32.42,20.11-15.62C21.44,27.85,12.62,30.32,8.15,42.31Z"/><path class="cls-4" d="M57,13.84c-7.63-20.12-9.36,4.9-3.47,11.66C52.31,19.24,50.06,11,57,13.84Z"/><path class="cls-2" d="M30.13,27.87c5.46,3,3,7.58-2.51,4.75S24.6,25,30.13,27.87Z"/><path class="cls-2" d="M64.92,16.71c4.76,2.53,2.61,6.67-2.2,4.25S60.12,14.29,64.92,16.71Z"/><path class="cls-5" d="M52.51,12.19c-4.11,11.73,4.23,19.64,11.65,28L65.1,40c-.35-.36-.71-.71-1-1.07a18.57,18.57,0,0,0,2.12.12c4,0,8-1.29,8.89-5.24t0,0c-.38,0-.53-11.83-10-18.3a20.14,20.14,0,0,0-8.24-2.4c-.47,0-.94,0-1.41,0a19.52,19.52,0,0,0-2.88.22c0-.38.13-.76.21-1.14l-.2,0Zm5.93,20.48c-4.23-5.34-7-12.22-6-19.2h.13a25.66,25.66,0,0,1,8.1,1.29c-4.42,4.9-4.5,12.15-2.27,17.91Zm8.38,5.59C58,38.26,54.45,22.54,61,14.86,70,17.55,73.45,27,73.52,35.59a11.18,11.18,0,0,1-6.7,2.67Z"/><path class="cls-5" d="M70.5,27.14a.19.19,0,0,1,0,.09.19.19,0,0,0,0-.09Z"/><path class="cls-5" d="M70.33,26.63l0,.11,0-.11Zm0,.11a.24.24,0,0,1,0,.08.24.24,0,0,0,0-.08Z"/><path class="cls-5" d="M70.08,25.9a.88.88,0,0,1,0,.15.53.53,0,0,0,0-.15Z"/><path class="cls-5" d="M70,25.53l0,.07,0-.07Z"/><path class="cls-5" d="M26,52.38c.31.11.62.21.94.3l-.44,0-.5-.35m4.09-26.3c-11.74,0-23.47,8.75-22.66,21.26-.86-.58-1.71-1.17-2.5-1.8a26.48,26.48,0,0,0,19.23,8.3,23.87,23.87,0,0,0,19.56-9.79c-.59.55-1.18,1.07-1.79,1.59C42.66,37.25,36.6,29.8,29,26.54c.91-.16,1.84-.3,2.76-.39-.56,0-1.12-.07-1.69-.07Zm0,26c-9.34,0-15.83-12-8.32-23.46a9.68,9.68,0,0,1,4.9-1.4c8,0,14.61,11.06,15,18.68-3.84,4.37-7.91,6.18-11.55,6.18Zm-8.9-23.21c-5.41,7.8-4,18.5,3.89,24h-.44a31.73,31.73,0,0,1-17-5.5c.81-8.39,5.5-15.39,13.55-18.55Z"/><path class="cls-6" d="M70.54,26.63c2.69,7.51-6.89,10.18-8.9,2.67C58.56,21.54,68.65,18.64,70.54,26.63Z"/><path class="cls-6" d="M38.25,38.4c3.28,8.42-8.4,12.39-10.94,3.72C24,33.7,35.71,29.73,38.25,38.4Z"/><path class="cls-4" d="M7.46,47.54c.52-6,4.83-19.15,20-20.54,8.62,1.57,12.15,11.26,12.15,11.26C41.22,42.09,16.05,50,7.46,47.54Z"/><path class="cls-4" d="M52.48,13.47c-1.41,7.87,2.08,14.81,6,19.2,8.74-3.11,15.41-7.48,11.17-11.31C67.35,17.32,62,13.1,52.48,13.47Z"/></svg>