<svg id="Layer_1" data-name="Layer 1" xmlns="http://www.w3.org/2000/svg" viewBox="0 0 465 460"><defs><style>.cls-1{fill:#1e89e2;}.cls-2{fill:#1361bf;}.cls-3,.cls-6{fill:none;stroke-linecap:round;stroke-linejoin:round;}.cls-3{stroke:#1e89e2;stroke-width:7.55px;}.cls-4{fill:#46adf2;}.cls-5{fill:#16b3dc;}.cls-6{stroke:#4bc4d3;stroke-width:1.89px;}</style></defs><path class="cls-1" d="M227.72,174.7a130.28,130.28,0,0,1-3.49,35.87,93.18,93.18,0,0,1-6.2,17.2,105,105,0,0,1-9.2,15.55c-6.82,9.73-14.72,18-20.06,27.15A50.22,50.22,0,0,0,182.93,285a50.92,50.92,0,0,0-1.12,7.83c-.13,1.32-.1,2.67-.15,4s0,2.69.12,4c.67,10.84,3.6,21.74,7.26,32.34a303.93,303.93,0,0,0,13.2,31.22c9.9,20.43,21.25,40.21,33,59.71-12.85-18.83-25.28-38-36.38-58a310.67,310.67,0,0,1-15.13-30.94c-4.34-10.68-8.06-21.81-9.47-33.7-.18-1.48-.27-3-.38-4.48s-.15-3-.08-4.53A58,58,0,0,1,180.53,266,123.4,123.4,0,0,1,190,250.94c3.31-4.71,6.6-9.23,9.49-13.87a93.41,93.41,0,0,0,7.43-14.25,80.35,80.35,0,0,0,4.54-15.18,116.88,116.88,0,0,0,1.31-32.09Z"/><path class="cls-1" d="M258,167.36c-.77,5.6-1.36,11.21-1.65,16.8a122.63,122.63,0,0,0,.28,16.62,81.13,81.13,0,0,0,3,16,64,64,0,0,0,6.5,14.69,81.63,81.63,0,0,0,10,13.1c3.79,4.18,8,8.23,12.13,12.57a90.36,90.36,0,0,1,11.53,14.39A57.42,57.42,0,0,1,307,288.85a71.78,71.78,0,0,1,1.81,18.32A118.55,118.55,0,0,1,307,325.1c-1,5.89-2.38,11.67-3.94,17.37s-3.35,11.34-5.22,16.92c-7.7,22.27-17.33,43.69-27.54,64.78,9.07-21.6,17.53-43.49,24-65.9,1.56-5.61,3.05-11.24,4.25-16.91s2.27-11.36,2.93-17.07a114,114,0,0,0,.83-17.07,65.19,65.19,0,0,0-2.5-16.45,49.3,49.3,0,0,0-7-14.6,80.48,80.48,0,0,0-11.1-12.39c-4.16-3.93-8.62-7.78-12.94-12a93.11,93.11,0,0,1-12-14.18,75.54,75.54,0,0,1-8.59-16.93,94,94,0,0,1-4.44-18.29,135.11,135.11,0,0,1-1.31-18.45c0-6.12.3-12.19.8-18.23Z"/><path class="cls-1" d="M297.88,161.63a42,42,0,0,0,4.18,15.63,41.2,41.2,0,0,0,10.36,12.67,114.91,114.91,0,0,0,14.89,10.33c5.38,3.29,11,6.61,16.5,10.52a69.43,69.43,0,0,1,15,14.17,52.59,52.59,0,0,1,5.53,9A55.53,55.53,0,0,1,368,243.8,72.64,72.64,0,0,1,370.05,264a121.63,121.63,0,0,1-2.25,19.64,184.47,184.47,0,0,1-4.68,18.91c-.87,3.12-1.93,6.17-2.91,9.24s-2.1,6.09-3.23,9.1c-4.49,12.06-9.57,23.83-15,35.43s-11.18,23-17.13,34.31-12.18,22.44-18.5,33.53q8.65-17.09,16.82-34.37c5.39-11.55,10.56-23.2,15.38-35s9.26-23.69,13.09-35.75c1-3,1.84-6.05,2.73-9.08s1.7-6.08,2.4-9.15a177.94,177.94,0,0,0,3.61-18.43A113.48,113.48,0,0,0,361.61,264,63.83,63.83,0,0,0,359,246.37a45.76,45.76,0,0,0-3.35-8,41.77,41.77,0,0,0-4.82-7,58.61,58.61,0,0,0-13.32-11.31c-5.08-3.27-10.58-6.17-16.25-9.26a127.15,127.15,0,0,1-17-10.67A55.2,55.2,0,0,1,289.72,184a51.72,51.72,0,0,1-4.43-10.17A64,64,0,0,1,283,163.22Z"/><path class="cls-1" d="M178.33,166.87a72.3,72.3,0,0,1,1.18,20.7,53.64,53.64,0,0,1-2.15,10.5,52.7,52.7,0,0,1-4.28,9.82,62.44,62.44,0,0,1-6,8.57,84.68,84.68,0,0,1-6.9,7.33c-4.77,4.54-9.75,8.5-14.55,12.41s-9.5,7.74-13.73,11.89a71.82,71.82,0,0,0-11.08,13.46c-6.19,9.73-8.89,21.41-8.79,33.33s2.58,24,6,35.76a287,287,0,0,0,13.09,34.59c10.15,22.6,22.39,44.31,35.26,65.59-13.92-20.61-27.26-41.7-38.64-64a289.14,289.14,0,0,1-15.06-34.47c-4.11-11.9-7.42-24.29-8.14-37.27a76.48,76.48,0,0,1,1.31-19.57,66.41,66.41,0,0,1,2.69-9.62,68.77,68.77,0,0,1,4.2-9.1,82.05,82.05,0,0,1,11.77-15.91c4.43-4.79,9.18-9.09,13.82-13.26s9.22-8.22,13.25-12.47a73.12,73.12,0,0,0,5.57-6.54,50.2,50.2,0,0,0,4.34-7,39.74,39.74,0,0,0,2.78-7.41,39.28,39.28,0,0,0,1.18-7.82,58.07,58.07,0,0,0-1.81-16.36Z"/><path class="cls-1" d="M140.75,148.06a61.83,61.83,0,0,1-.06,22.57,47.27,47.27,0,0,1-3.82,11.07,48.12,48.12,0,0,1-6.34,9.64c-1.2,1.47-2.5,2.8-3.8,4.14s-2.67,2.54-4.07,3.67a93.06,93.06,0,0,1-8.52,6.38c-5.79,3.91-11.69,7.23-17.44,10.56S85.32,222.7,80,226.31a82,82,0,0,0-14.33,12.18c-1.08,1.11-2,2.34-3,3.52s-1.85,2.45-2.62,3.78a49.33,49.33,0,0,0-4.2,8.14,58.27,58.27,0,0,0-3.86,18.2,87.74,87.74,0,0,0,1.17,19.15,155.38,155.38,0,0,0,4.46,19,277.84,277.84,0,0,0,14.54,36.79c11.38,24,25.12,46.84,39.49,69.25-15.41-21.72-30.23-43.94-42.84-67.57a282,282,0,0,1-16.54-36.72,162.64,162.64,0,0,1-5.56-19.6,95.2,95.2,0,0,1-2.22-20.58A66.58,66.58,0,0,1,48,251a58.51,58.51,0,0,1,4.48-9.8c.85-1.6,1.9-3.05,2.87-4.57s2.09-2.92,3.27-4.26A91.57,91.57,0,0,1,74,218c5.52-4.17,11.24-7.88,16.86-11.48s11.17-7.1,16.25-10.9a79.76,79.76,0,0,0,7.19-5.92c1.14-1,2.16-2.1,3.2-3.17s2-2.2,2.79-3.36a34.2,34.2,0,0,0,4.29-7.22,33.63,33.63,0,0,0,2.3-7.88,47.82,47.82,0,0,0-.85-17.14Z"/><path class="cls-1" d="M328.42,147.28a49.51,49.51,0,0,0,7.78,15.87,66,66,0,0,0,13.05,13c10.09,7.83,22.14,14,33.94,21.33,3,1.84,5.9,3.78,8.78,5.86a93.52,93.52,0,0,1,8.4,6.74c1.36,1.19,2.64,2.51,3.93,3.8s2.49,2.69,3.63,4.15a55.35,55.35,0,0,1,6.11,9.26,52.72,52.72,0,0,1,4.15,10.27c.58,1.75.91,3.55,1.33,5.33.17.9.29,1.8.44,2.7s.3,1.79.36,2.69a87.07,87.07,0,0,1-.55,21.31A144.55,144.55,0,0,1,415.23,290c-1.92,6.65-4.3,13.11-6.82,19.5A389.68,389.68,0,0,1,391,346.6c-12.8,24.08-27.3,47.12-42.32,69.76,14-23.31,27.37-47,39-71.44a384.21,384.21,0,0,0,15.51-37.4c4.39-12.68,7.9-25.71,9.18-38.78a78.43,78.43,0,0,0-.37-19.33,23.42,23.42,0,0,0-.42-2.34c-.16-.77-.3-1.55-.49-2.31-.43-1.5-.77-3-1.34-4.49a43.6,43.6,0,0,0-3.86-8.41,44.63,44.63,0,0,0-5.45-7.47c-1-1.18-2.13-2.27-3.23-3.38s-2.3-2.13-3.55-3.11a80.64,80.64,0,0,0-7.75-5.66c-2.71-1.77-5.52-3.45-8.42-5.07-11.52-6.51-24.13-12.14-36-20.43a79.9,79.9,0,0,1-16.37-15,64.16,64.16,0,0,1-11-20Z"/><path class="cls-2" d="M160.7,160.17a4.19,4.19,0,0,0-6.89-1.23C144,169.4,130.68,175.06,116,166.77c-23.7-13.36-25.61-41.63-16.35-65.45,20.13-51.78,71-66.5,121.79-71.18,49.69-4.58,98,6.42,125,50.54,11.13,18.24,17.28,36.65,13.95,58.12-2.48,16-12.13,27.74-28.64,25.45a4.16,4.16,0,0,0-4.23,2.18c-10.15,18.95-44,32.66-60.17,15.55a4.26,4.26,0,0,0-5.54-.6c-10.56,7.31-17.65,16.41-32.29,17.7-11.3,1-20.89-1.6-30.66-6.57C183.8,184.87,167.5,175.89,160.7,160.17Z"/><path class="cls-1" d="M363.11,148.11a72.87,72.87,0,0,0-3.48-36,73,73,0,0,1,.7,26.65c-2.43,15.63-11.72,27.24-27.6,25.58a6,6,0,0,0-5.8,3c-10.77,18.53-44,31.54-59.83,14.41a3.89,3.89,0,0,0-5-.62c-10.73,7.35-17.82,16.62-32.6,17.92-11.3,1-20.89-1.6-30.66-6.57-15.31-7.79-32-17-38.5-33.29a3.45,3.45,0,0,0-5.78-1.06c-9.83,11-23.48,17.1-38.54,8.61-19-10.71-24-31-20.45-50.91-6.61,22.3-3,46.94,19.08,59.23,16.6,9.26,31.45,1.4,41.5-11.18a1.36,1.36,0,0,1,2.37.46c5.67,18.46,23.87,28.45,40.51,36.83,10,5,19.73,7.66,31.22,6.71C244.77,206.7,252,198,262.28,190.8a5.34,5.34,0,0,1,6.78.58c16.4,16.21,49.29,3.52,60.12-14.69a6.31,6.31,0,0,1,6-3.09C351.33,175.29,360.72,163.71,363.11,148.11Z"/><path class="cls-3" d="M151.34,74.05c5.4,27.86,32.75,37.89,58.58,40.75a45,45,0,0,0,21.37-3c6.48-2.75,10-9.78,16.2-11.69,14.32-4.39,30.86,13.56,46.42,7.09,2.86-1.19,4.36-4.64,7.27-5.77,3.77-1.46,7.53,0,11.27-.76,8.22-1.56,20.18-11.06,15.11-20.13"/><path class="cls-1" d="M218.6,86.86c-9.94.66-15.17,6.47-25.58,3.24-4.86-1.5-18.37-7-21.12-11.19C161,62.35,193,49.39,204.67,48.63c10.43-.68,20.5,2,30.88,2.71,16.2,1.15,32.49-.59,48.72,2.48,8.6,1.62,29.14,3.28,29.54,15.2.24,6.82-11.51,15-16.69,18.06-14,8.18-26.27.63-39.72-5.33C243.15,75.42,230.17,83.28,218.6,86.86Z"/><path class="cls-4" d="M202.21,58.57a8.28,8.28,0,0,1,3.59.44c8.32,1.83,15.37,4.77,4.5,12.62C206,74.71,195,76.2,189.22,73.25a4.44,4.44,0,0,1-1.54-6.46c4.27-6.31,7.46-7.46,14.53-8.22Z"/><path class="cls-4" d="M274.85,78.31c7-2.74,10-.14,17.71,2a1.6,1.6,0,0,1,.93,2.37c-3,4.76-10.71.87-15.83,1.52a5.41,5.41,0,0,1-3.89-.92c-.6-.44-1.21-.82-1.78-1.26a1.38,1.38,0,0,1,.15-2.27l1.12-.67A10.28,10.28,0,0,1,274.85,78.31Z"/><path class="cls-5" d="M276.05,169.61a8.3,8.3,0,0,0,.64,10c4.28,5.12,11.63,6.67,18.17,2.77,4.51-2.68,4.8-8.28,2.66-12.74-2.43-5.06-9.77-6.39-14.92-5A11.94,11.94,0,0,0,276.05,169.61Z"/><path class="cls-5" d="M302,163.2a1.11,1.11,0,0,0-.24.92c.59,4,.57,9.33,4.55,11.38,2.91,1.51,5.92.8,8.58-.73a15.88,15.88,0,0,0,7.66-16.16c-1.26-8.2-6.13-4.43-10.29-.66-2.15,2-3.87,3.48-6.74,4.16C304.22,162.41,302.73,162.43,302,163.2Z"/><path class="cls-6" d="M328.6,149.05a47.23,47.23,0,0,1,1.07,7.14"/><path class="cls-6" d="M325.18,135.83a24.83,24.83,0,0,1,1.78,5.59"/><path class="cls-6" d="M264.67,167.34a42.46,42.46,0,0,1-.16,6.51"/><path class="cls-6" d="M262.69,152.41c.7,2.31,1.59,4.21,1.22,6.49"/><path class="cls-6" d="M260.78,143c.14.93.26,1.91.36,2.84"/><path class="cls-6" d="M259.56,136.51c.07.7.13,1.41.19,2.11"/><path class="cls-6" d="M257,129.71l.84,2.27"/><path class="cls-6" d="M323.48,129.92l.74,1.21"/><path class="cls-6" d="M321.85,123.68l.52,2.19"/><path class="cls-6" d="M320.59,120.28l.17.73"/><path class="cls-6" d="M159.48,144.53a5.51,5.51,0,0,0-.52,3.67"/><path class="cls-6" d="M160.85,137.28l-.54,2.28"/><path class="cls-6" d="M162.63,129.77l-.62,2.61"/><path class="cls-6" d="M164.42,123.65l-.79,1.88"/><path class="cls-6" d="M166.29,117.2l-.87,2.21"/><ellipse class="cls-5" cx="281.81" cy="157.79" rx="5.2" ry="5.83" transform="translate(63.4 395.72) rotate(-76.69)"/><path class="cls-5" d="M283.17,144.85a3,3,0,1,1-2.24-3.63A3,3,0,0,1,283.17,144.85Z"/><ellipse class="cls-5" cx="300.14" cy="151.79" rx="5.87" ry="5.52" transform="translate(83.35 408.94) rotate(-76.69)"/><ellipse class="cls-5" cx="209.25" cy="184.38" rx="5.87" ry="5.52" transform="translate(-18.34 345.58) rotate(-76.69)"/><path class="cls-5" d="M213.62,172.05a3.1,3.1,0,1,1-2.28-3.81A3.13,3.13,0,0,1,213.62,172.05Z"/><ellipse class="cls-5" cx="231.64" cy="176.41" rx="11.76" ry="13.97" transform="translate(6.65 361.23) rotate(-76.69)"/><path class="cls-5" d="M316.16,146.79a3.35,3.35,0,1,1-2.54-3.7A3.17,3.17,0,0,1,316.16,146.79Z"/><path class="cls-5" d="M298.65,137.37c.57,1.77,0,3.54-1.34,4s-2.84-.66-3.4-2.43,0-3.53,1.34-4S298.09,135.61,298.65,137.37Z"/><path class="cls-5" d="M310.88,134c.36,1.63-.34,3.17-1.56,3.43s-2.5-.83-2.86-2.46.35-3.17,1.57-3.43S310.53,132.4,310.88,134Z"/><path class="cls-5" d="M306.38,125.4a1.39,1.39,0,1,1-1-1.74A1.42,1.42,0,0,1,306.38,125.4Z"/><path class="cls-5" d="M294.7,128.63a1.48,1.48,0,1,1-1.1-1.81A1.49,1.49,0,0,1,294.7,128.63Z"/><path class="cls-5" d="M281,135.69a1.57,1.57,0,1,1-3.07.27,1.57,1.57,0,1,1,3.07-.27Z"/><path class="cls-5" d="M278.55,128.17a1.19,1.19,0,1,1-1.39-1.29A1.38,1.38,0,0,1,278.55,128.17Z"/><path class="cls-5" d="M252,151.12a3,3,0,1,1-2.24-3.63A3,3,0,0,1,252,151.12Z"/><path class="cls-5" d="M249.75,142a1.56,1.56,0,1,1-1.69-1.71A1.71,1.71,0,0,1,249.75,142Z"/><ellipse class="cls-5" cx="246.22" cy="134.64" rx="1.15" ry="1.51" transform="translate(-19.41 44.13) rotate(-9.86)"/><path class="cls-5" d="M189.86,149.52a5,5,0,1,1-.88-7A5,5,0,0,1,189.86,149.52Z"/><path class="cls-5" d="M188.4,136.47a2.58,2.58,0,1,1-1.37-3.71A2.82,2.82,0,0,1,188.4,136.47Z"/><ellipse class="cls-5" cx="207.36" cy="143.11" rx="3.04" ry="2.53" transform="translate(3.28 290.86) rotate(-70.51)"/><path class="cls-5" d="M189.84,127.64a2,2,0,1,1-3.65-1c.35-1.33,1.44-2.19,2.45-1.93A2.26,2.26,0,0,1,189.84,127.64Z"/><path class="cls-5" d="M209.28,135.34c-.29,1.12-1.23,1.86-2.08,1.63a1.91,1.91,0,0,1-1-2.45c.3-1.12,1.23-1.86,2.09-1.63A1.91,1.91,0,0,1,209.28,135.34Z"/><path class="cls-5" d="M209.42,127.78a1.06,1.06,0,1,1-.64-1.56A1.22,1.22,0,0,1,209.42,127.78Z"/><path class="cls-5" d="M245.42,127a1.06,1.06,0,1,1-2-.52c.19-.72.78-1.18,1.32-1A1.21,1.21,0,0,1,245.42,127Z"/><ellipse class="cls-5" cx="231" cy="154.02" rx="8.2" ry="5.61" transform="translate(-10.13 16.39) rotate(-3.98)"/><ellipse class="cls-5" cx="229.34" cy="141.17" rx="5.97" ry="3.43" transform="translate(-11.55 20.76) rotate(-5.06)"/><path class="cls-5" d="M229.55,129.22c1.39.67,2.11,2.08,1.6,3.13s-2.06,1.37-3.45.7-2.11-2.08-1.6-3.14S228.15,128.54,229.55,129.22Z"/><path class="cls-5" d="M293.27,124.54a1.38,1.38,0,1,1-1-1.5A1.29,1.29,0,0,1,293.27,124.54Z"/><path class="cls-5" d="M291.65,119.51a1.38,1.38,0,1,1-1-1.5A1.3,1.3,0,0,1,291.65,119.51Z"/><path class="cls-5" d="M350,105.27a1.28,1.28,0,0,1-1.61.87,1.22,1.22,0,1,1,.56-2.36A1.28,1.28,0,0,1,350,105.27Z"/><path class="cls-5" d="M303.9,117.88a1.38,1.38,0,1,1-2.68-.63,1.38,1.38,0,1,1,2.68.63Z"/><path class="cls-5" d="M141.38,151a8.32,8.32,0,0,1-3.71,9.36c-5.65,3.54-13.12,2.74-18.13-3-3.47-4-2-9.36,1.41-12.94,3.88-4.06,11.26-3,15.73-.11A11.91,11.91,0,0,1,141.38,151Z"/><path class="cls-5" d="M203.35,169.55c.53,3.94-2.46,7-7.16,7.63A25.15,25.15,0,0,1,172.82,167c-3.65-5.25-.43-9.94,5-12.05,6.11-2.39,15.69,1.56,20.91,6.22A14,14,0,0,1,203.35,169.55Z"/><path class="cls-5" d="M118.68,136.87a1.11,1.11,0,0,1-.05.94c-1.81,3.66-3.43,8.7-7.85,9.43-3.24.53-5.87-1.07-7.93-3.35a15.91,15.91,0,0,1-2.29-17.75c3.74-7.4,7.2-2.31,10,2.56,1.44,2.53,2.6,4.51,5.12,6C116.83,135.44,118.24,135.92,118.68,136.87Z"/><path class="cls-5" d="M130.64,136.54c-.24,2.86,2.18,5.39,5.39,5.66s6-1.84,6.23-4.7-2.17-5.39-5.38-5.66S130.88,133.68,130.64,136.54Z"/><path class="cls-5" d="M199.15,152.74c-.23,2.86,2.18,5.4,5.39,5.66s6-1.84,6.24-4.7-2.18-5.39-5.39-5.66S199.39,149.88,199.15,152.74Z"/><path class="cls-5" d="M245.18,166.9c-.24,2.86,2.17,5.4,5.38,5.66s6-1.84,6.24-4.7-2.17-5.39-5.38-5.66S245.42,164,245.18,166.9Z"/><path class="cls-5" d="M139.27,125a3,3,0,1,0,3.25-2.76A3,3,0,0,0,139.27,125Z"/><ellipse class="cls-5" cx="120.12" cy="124.89" rx="5.87" ry="5.52" transform="matrix(0.08, -1, 1, 0.08, -14.21, 234.34)"/><ellipse class="cls-5" cx="108.39" cy="110.4" rx="3.02" ry="3.33" transform="translate(-10.55 209.35) rotate(-85.29)"/><path class="cls-5" d="M124.42,112.06c-1.09,1.5-1.06,3.37,0,4.18s2.9.24,4-1.26,1.06-3.37-.06-4.17S125.5,110.56,124.42,112.06Z"/><path class="cls-5" d="M112.47,98.15c-.84,1.44-.65,3.12.43,3.75s2.64,0,3.48-1.46.65-3.12-.43-3.75S113.32,96.71,112.47,98.15Z"/><path class="cls-5" d="M119.07,91.13a1.39,1.39,0,1,0,1.5-1.35A1.43,1.43,0,0,0,119.07,91.13Z"/><path class="cls-5" d="M129.73,104.69a1.48,1.48,0,1,0,1.6-1.38A1.5,1.5,0,0,0,129.73,104.69Z"/><path class="cls-5" d="M130.06,109.73a1.48,1.48,0,1,0,1.6-1.39A1.5,1.5,0,0,0,130.06,109.73Z"/><path class="cls-5" d="M126.15,120.34a1.48,1.48,0,1,0,1.6-1.38A1.5,1.5,0,0,0,126.15,120.34Z"/><path class="cls-5" d="M145.43,117.75a1.56,1.56,0,1,0,2.14-1.1A1.71,1.71,0,0,0,145.43,117.75Z"/><path class="cls-5" d="M150.47,111.45a1.19,1.19,0,1,0,1.72-.8A1.37,1.37,0,0,0,150.47,111.45Z"/><path class="cls-5" d="M132.56,99.63a1.3,1.3,0,0,0,1.27,1.32,1.22,1.22,0,1,0,.2-2.42A1.31,1.31,0,0,0,132.56,99.63Z"/><path class="cls-5" d="M135.9,103.34a1.37,1.37,0,1,0,1.46-1.1A1.29,1.29,0,0,0,135.9,103.34Z"/><path class="cls-5" d="M136.69,94.05a1.38,1.38,0,0,0,2.73.23,1.38,1.38,0,0,0-2.73-.23Z"/><path class="cls-5" d="M125.72,83.36a1.37,1.37,0,1,0,1.49-1.26A1.38,1.38,0,0,0,125.72,83.36Z"/><path class="cls-5" d="M129.74,78.33a1.37,1.37,0,1,0,2.73.22,1.37,1.37,0,1,0-2.73-.22Z"/><path class="cls-5" d="M356.42,131.85a3.35,3.35,0,1,1-2.54-3.7A3.18,3.18,0,0,1,356.42,131.85Z"/><ellipse class="cls-5" cx="338.97" cy="153.95" rx="5.36" ry="5.19" transform="translate(111.13 448.38) rotate(-76.69)"/><path class="cls-5" d="M356.05,138.38c2.14,1.64,2.11,5.28-.07,8.12s-5.69,3.82-7.83,2.18-2.11-5.27.07-8.12S353.91,136.74,356.05,138.38Z"/><path class="cls-5" d="M354.38,120.42c.36,1.62-.34,3.16-1.56,3.43s-2.5-.84-2.86-2.47.35-3.16,1.57-3.43S354,118.79,354.38,120.42Z"/><path class="cls-5" d="M351.92,112.88a1.62,1.62,0,0,1-.93,2c-.73.15-1.48-.5-1.69-1.47a1.6,1.6,0,0,1,.92-2C351,111.26,351.71,111.92,351.92,112.88Z"/><path class="cls-5" d="M340.92,142a3.35,3.35,0,1,1-2.54-3.7A3.17,3.17,0,0,1,340.92,142Z"/><path class="cls-5" d="M336.42,123.06a1.62,1.62,0,0,1-.93,2c-.72.16-1.48-.49-1.69-1.46a1.61,1.61,0,0,1,.93-2C335.45,121.44,336.21,122.09,336.42,123.06Z"/><path class="cls-5" d="M334.64,116.87a1,1,0,1,1-1.27-1A1.15,1.15,0,0,1,334.64,116.87Z"/><path class="cls-5" d="M333,111.41a.86.86,0,1,1-1-.73A.91.91,0,0,1,333,111.41Z"/><path class="cls-5" d="M348.33,100a.86.86,0,1,1-1-.72A.9.9,0,0,1,348.33,100Z"/><path class="cls-5" d="M346.56,94.58a.9.9,0,0,1-.64,1.09.93.93,0,0,1-.4-1.81A.9.9,0,0,1,346.56,94.58Z"/><path class="cls-5" d="M336.25,131.87a1.62,1.62,0,0,1-.93,2c-.72.15-1.48-.5-1.69-1.47a1.62,1.62,0,0,1,.93-2C335.28,130.25,336,130.91,336.25,131.87Z"/><ellipse class="cls-5" cx="338.81" cy="133.55" rx="1.34" ry="1.79" transform="translate(-20.7 75.42) rotate(-12.33)"/></svg>