<svg id="Layer_1" data-name="Layer 1" xmlns="http://www.w3.org/2000/svg" viewBox="0 0 355 512"><defs><style>.cls-1{fill:#323232;opacity:0.4;}.cls-2{fill:#51290f;}.cls-13,.cls-3{fill:#e5b798;}.cls-3{stroke:#6d1f0c;stroke-miterlimit:10;}.cls-4{fill:#231c1c;}.cls-5{fill:#723a1a;}.cls-6{fill:#3f1e0e;}.cls-7{fill:#bf8e6d;}.cls-8{fill:#3d3232;}.cls-9{fill:#280d02;}.cls-10{fill:#281a10;}.cls-11{fill:#1e130b;}.cls-12{fill:#4f280e;}.cls-14{fill:#6d1f0c;}</style></defs><ellipse class="cls-1" cx="165.08" cy="468.68" rx="156.23" ry="41.46"/><path class="cls-2" d="M77.59,41.74S50.82,63.37,48.89,73.87s-11.35,52.9-10.28,64,16.62,48,19.45,58.9,14.18,46.37,15.25,54.08C62.38,247.46,25.68,197.4,24,171.11c-1.33,2.35-3.85,14.67-3.9,21.07-6.48-4.37-7.77-50.2-6-57.06-1.39,2.79-9.62,18.13-11.14,22.07C-7.76,131.7,34.75,57,46.32,45S77.59,41.74,77.59,41.74Z"/><path class="cls-3" d="M71.81,38.64S68.17,9,63,2.33C71.7-1,93.07,14.2,90,28.41,87.41,40.52,71.81,38.64,71.81,38.64Z"/><path class="cls-4" d="M183.91,403.74S164.23,432,173.71,434.6s29.15-2.91,31.64-9.66,3.05-18.15,1.13-21.84S183.91,403.74,183.91,403.74Z"/><path class="cls-3" d="M232.82,289.61s-10.44,28.11-9,36.46c1.07,6.22,6.1,11.58,5.62,17.67-.9,11.39-19.44,44.5-19,47.87s2.09,16.71-5.14,21.05-30.35,9.66-28.27-1.29c2.41-12.69,19.44-23.77,23.29-39.36,3.29-13.28,6.11-32.29-1.28-39-4.7-4.29-22.33-19.12-28.11-21.69S232.82,289.61,232.82,289.61Z"/><path class="cls-4" d="M75,444.3s16.34,19.12,22.42,6.27c3-6.37-2.45-39.47-22.26-36.25C74.49,419.67,75,444.3,75,444.3Z"/><path class="cls-3" d="M61.1,232.58s-18.64,74.86-20.88,81.6-25.06,37.59-21.21,45,25.06,22.17,26.67,28.6S55,434.26,59.81,437s16.71,11.13,20.24,11.45S91,414.74,75.56,411.21c1-2.25,3.85-14.62-18.32-25.06,0-6.1-6-22.38-11.78-25.27,1.93-2.25,1.5-3.43.43-5.68,4.39-.43,42.29-33.73,43.48-49.05C90.18,295.77,61.1,232.58,61.1,232.58Z"/><path class="cls-2" d="M255.94,203.67s25.12-21.47,46.32-22.12,52.48,24.42,51.4,56.12a9.31,9.31,0,0,0-6-5.46c1,2.09,4.71,17.24,3.42,25.59-.84,5.5-5.35,22.6-5.14,25.54-2.14-4.76-3.42-8.83-6.42-9.9-1.5,7.71-1.29,23.13,1.28,31.06-2.78-1.72-5.78-4.93-7.06-4.5.14,14.24,8.13,27.41,15,31.3-5.46,1.28-23.93-10.69-26.42-15.75a43.2,43.2,0,0,0,1.68,12.21c-7.14-.08-21.84-25.3-20.72-38.47-3.43,2.35-4.24,6-4.82,7.07-5.78-5.46-.53-38.56,5.62-46.75-2.24,1.61-5,5.06-5.7,5.46,3.34-10.91,6-28.33,4.26-34.78-1.45-5.3-9.32-17.21-28.27-7.25S255.94,203.67,255.94,203.67Z"/><path class="cls-2" d="M255.94,203.67s25.12-21.47,46.32-22.12,52.48,24.42,51.4,56.12a9.31,9.31,0,0,0-6-5.46c1,2.09,4.71,17.24,3.42,25.59-.84,5.5-5.35,22.6-5.14,25.54-2.14-4.76-3.42-8.83-6.42-9.9-1.5,7.71-1.29,23.13,1.28,31.06-2.78-1.72-5.78-4.93-7.06-4.5.14,14.24,8.13,27.41,15,31.3-5.46,1.28-23.93-10.69-26.42-15.75a43.2,43.2,0,0,0,1.68,12.21c-7.14-.08-21.84-25.3-20.72-38.47-3.43,2.35-4.24,6-4.82,7.07-5.78-5.46-.53-38.56,5.62-46.75-2.24,1.61-5,5.06-5.7,5.46,3.34-10.91,6-28.33,4.26-34.78-1.45-5.3-9.32-17.21-28.27-7.25S255.94,203.67,255.94,203.67Z"/><path class="cls-5" d="M334.24,195.53c-10-9-22.08-14.28-32-14-21.2.65-46.32,22.12-46.32,22.12s1.7,2.1,1.78,3.05C279.7,185.58,306.35,174,334.24,195.53Z"/><path class="cls-6" d="M347.66,212.72c1.15,5.12,2.59,9,1.95,16.11a13,13,0,0,0-7.71-2.57c3.85,14.14,6.53,26,1.28,42.41-1.39-4.39-3.64-5.25-4.6-6.21-3,7.71-5.36,16.6-4.07,25.59-2.45-1.34-2.57-4.61-2.89-5.25-3.52,5.86-4,21.21-1.08,27.42-5.24-3.53-11-13.39-13.06-19.7-1.39,3-2.57,5.14-2.57,7.71-7.71-8.62-6.75-22.12-5.14-37.27-2.41,2.62-3,5-4.34,6.28,0-11.56,10.76-23,8.19-34.55,0,1.82-2.62,3.57-4.05,4.52,1-12.57.58-29.19-12.65-32.8-12.62-3.44-28.29-.72-37.91,9,2.52,2.8,7.09,4.06,15.41-.3,18.95-10,26.82,1.95,28.27,7.25,1.76,6.44-.92,23.87-4.26,34.78.72-.4,3.46-3.86,5.7-5.46-6.15,8.19-11.4,41.28-5.62,46.74.58-1,1.39-4.71,4.82-7.06-1.12,13.17,13.58,38.39,20.72,38.47a43.24,43.24,0,0,1-1.68-12.21c2.49,5.06,21,17,26.42,15.74-6.91-3.88-14.9-17.06-15-31.3,1.28-.42,4.28,2.79,7.06,4.5-2.57-7.92-2.78-23.34-1.28-31.05,3,1.07,4.28,5.14,6.42,9.9-.21-2.94,4.3-20,5.14-25.54,1.29-8.35-2.4-23.51-3.42-25.6a9.37,9.37,0,0,1,6,5.47A49.72,49.72,0,0,0,347.66,212.72Z"/><path class="cls-3" d="M88.73,38.64S54,48.4,40.54,91.86c-1.52,4.91-7.25,36.68-7.39,46.91-.67,47.27,17.19,70.58,18.31,79.67,1.93,15.64-6,58.26,9.21,82,9.21,13,20.35,13.06,20.35,13.06s17.14,21.85,45,24.11c31.31,2.55,68.53-32.52,90.81-31.61,37.86,1.56,66.11-81.48,66.11-81.48s-7.85-36-42.55-35.35S183.45,215,147.08,192.1c-30.94-19.49-51.51-69.55-39.07-77.75C98.05,94.75,88.73,38.64,88.73,38.64Z"/><path class="cls-7" d="M54,99.81c-1.41,31,32.73,36.06,52.3,38.11-.41-3.6-7.23-18,1.08-23.57-6.48-12.88-12.67-41.54-16.16-59.67C76.52,68.27,57.66,81.44,54,99.81Z"/><path class="cls-7" d="M148.44,321.37c-23.13,12.85-56.29,4.91-71.72-19.51-2.66,3.92-5.88,4.4-9.73,1.83-8-5.85-10.19-11.33-13-19.79a54.41,54.41,0,0,0,6.7,16.58c9.21,13,20.35,13.06,20.35,13.06s17.14,21.85,45,24.11c31.31,2.55,68.53-32.52,90.81-31.61,8.9.37,17.27-3.94,24.87-10.75-.44.09-.89.38-1.31.26C216.28,288.64,178,306,148.44,321.37Z"/><path class="cls-8" d="M274.35,425s-19.2,23.86-11.81,26.67,28.43-1.61,31.65-11a21.36,21.36,0,0,0-2.82-18.88C290.17,420.37,274.35,425,274.35,425Z"/><path class="cls-4" d="M294.19,440.69a21.36,21.36,0,0,0-2.82-18.88c-.19-.23-.77-.3-1.61-.26,1.54,4.46-.78,7.77-3.12,8.94-14,4.16-17.67,6-15.43,19.27.14,1.21.29,2,.43,2.77C280.48,451.51,292,447.15,294.19,440.69Z"/><path class="cls-9" d="M268.37,453.17a17.6,17.6,0,0,1-6.06-.88,3.08,3.08,0,0,1-1.95-2.15c-1.76-6.48,12.86-24.74,13.49-25.52l.12-.16.2,0c6.06-1.79,16.42-4.55,17.7-3a21.82,21.82,0,0,1,2.92,19.5c-1.1,3.21-4.23,6.11-9.06,8.38A43.86,43.86,0,0,1,268.37,453.17Zm6.35-27.59c-4.21,5.27-14.42,19.42-13.12,24.22a1.79,1.79,0,0,0,1.17,1.29c4.73,1.8,15.2.41,22.41-3,3.14-1.48,7.15-4,8.4-7.64a20.82,20.82,0,0,0-2.7-18.26C289.91,421.68,281.76,423.52,274.72,425.58Z"/><path class="cls-3" d="M264,196.8c28.7,17.13,25,86.92,18.32,109.46-5.58,18.85,7.28,31.39,9.43,44.12,1.29,7.71-3.12,39-1.45,46.69,2.21,10.12,6.8,20.76,6.1,25.54-.41,2.88-2.45,11.29-9.31,12.86-5.64,1.28-21.4,2.91-19-5.17,1.73-5.8,4.86-11.4,8.64-14.43C280.39,413,276,387,274,382.45c-3.74-8.27-8.95-23.93-22.17-34.37-16.36-12.92-32.24-55.5-31.33-78.21"/><path class="cls-7" d="M290.33,397.07c-1.67-7.65,2.74-39,1.45-46.69-2.15-12.73-15-25.27-9.43-44.12C289,283.72,292.73,213.93,264,196.8h0c10.4,11.56,14.75,23,16.22,36.26,7.72,69.29-19.54,75.41,0,106.83,11.68,18.77,1.25,43.05,5.1,63.61,1.77,10.59,11.8,27.52-14,32.29,22,3.85,23.25-6.8,25.05-13.18C297.13,417.83,292.54,407.19,290.33,397.07Z"/><path class="cls-8" d="M111.7,470.49s-22.17,20.4-16.49,26.7c9.49,10.54,33.69,4.34,37.69-1.48,5.63-8.18,8.36-20.57,4-26.83S111.7,470.49,111.7,470.49Z"/><path class="cls-4" d="M136.92,468.88a4.66,4.66,0,0,0-1.73-1.46c-2.58,7.78-6.51,15.31-14.33,20.9a20.74,20.74,0,0,0-5.25,14.32c7.93-.89,15.25-4,17.29-6.93C138.53,487.53,141.26,475.14,136.92,468.88Z"/><path class="cls-9" d="M111.15,503.54c-7.17,0-12.94-2.07-16.42-5.92C88.8,491,109,472.14,111.27,470l.2-.13c.88-.32,21.41-8,26-1.37s1.52,19.51-4,27.56c-2.41,3.52-11.25,6.83-19.68,7.38C112.86,503.51,112,503.54,111.15,503.54ZM112,471c-6.09,5.63-20.64,21-16.36,25.71,4.89,5.42,13.36,5.72,18,5.42,8.78-.58,16.77-4,18.71-6.83,5.3-7.7,8.34-19.86,4-26.1C133.09,464.48,117.81,468.89,112,471Z"/><path class="cls-3" d="M102.27,264.86c-7.07,9-4,31.93-.37,46.43,4.22,16.86,14.67,39.53,16.71,47.23,1.16,4.39-7.07,30.2,2.89,43,6.85,8.82,5,53-.19,57.26s-19.25,14.58-15.45,20.73c3.63,5.87,22.33,10,32-1.28s4.12-18.8,3.7-20.88-4.13-53.18-3.32-56,6.85-21.69,6.53-24.58,4-28.18,5.41-31.38c3.69-8.26,4.79-35.18,5.4-40.53.8-6.89,3.35-15,5.27-18.2"/><path class="cls-7" d="M133,469c-.45,6.33-4.67,14.16-10.27,16.22a20.9,20.9,0,0,0,14.14-7c9.64-11.25,4.12-18.8,3.69-20.88s-4.12-53.18-3.32-56,6.86-21.69,6.53-24.58,4-28.18,5.41-31.38c3.7-8.26,4.79-35.18,5.41-40.53.8-6.89,3.34-15,5.26-18.2-8.79,3.9-14,47-18.56,66.9-4.3,18.94-11.06,38.29-11.54,48.68C129.48,408.55,135.11,445.58,133,469Z"/><path class="cls-3" d="M40.54,91.22s18.79-67.47,45.3-67,34.05,33.57,36.3,37.43,5.78,27,23.45,26.83,21.41,5,23,8.35c2.41,5.09-3.42,25.79-1.93,27.87,2.48,3.45,1.17,8.08-1.53,8.78s-6.1-.67-7.15.38c0,2.59-2.28,15.24-15.19,15.6-9.32.27-14.23-9-16.34-12.85-2.92-5.32-10.63-9-16.39-7.81-14.89,3.1-52.2-.62-56-29"/><path class="cls-7" d="M110.28,55.18A91.62,91.62,0,0,0,104.88,45c14,5.41,15.88,29.8,22.79,31.62-3.38-6.27-4.83-13.06-6-15C119.49,57.8,112,24.71,85.65,24.23c-11.9-.22-22.24,13.44-30,28.47C74.73,36.52,91.45,57.86,110.28,55.18Z"/><path class="cls-2" d="M47.15,43.83s33.23-46,91.27-24.15c-7.28-.86-26.56.1-29.34,4.55,12.63,3.16,30.2,27.15,28.05,41.07-5.35-5.14-27.41-24-38.33-23.13,5.56,3.21,7.24,9.07,9.21,11.56-4.93.43-27.17-8.55-30.42-9.21-5.81-1.17-8.27,4.23-14.56,4.77C53.7,50.1,47.15,43.83,47.15,43.83Z"/><path class="cls-3" d="M63,57.8s-22.49-6.1-23.18-28c-.37-12,5.1-20.38,9.83-24.21,1.56,1.17,3,3.89,4.38,7.46.42,1.05.84,2.17,1.27,3.35,4.2,11.56,9.37,27.78,19.52,32.3"/><path class="cls-3" d="M62,56.94S40.54,51.7,39.85,29.75c-.37-12,5.1-20.38,9.83-24.21,1.56,1.17,3,3.89,4.38,7.46.42,1.05.84,2.17,1.27,3.35C57,24.79,53.07,49.77,62,56.94Z"/><path class="cls-7" d="M54.48,17c-.39-1.12-.77-2.19-1.16-3.18-1.3-3.4-2.59-6-4-7.11a22.29,22.29,0,0,0-4.26,4.93c1.18-1.06,2.35-1.66,3.53-.44,7.37,10.09-2.81,17.13,5.05,41.5,2.13,1,7,3,7,3C52.41,48.79,56,25,54.48,17Z"/><path class="cls-10" d="M148.74,110c-2.12-.25-3.58-2.53-3.28-5.08s2.27-4.42,4.38-4.17,3.58,2.53,3.28,5.09S150.85,110.29,148.74,110Z"/><path class="cls-11" d="M147.7,109.48c-1.74-.21-2.92-2.28-2.64-4.63s1.92-4.08,3.66-3.87,2.92,2.28,2.63,4.63S149.44,109.69,147.7,109.48Z"/><path class="cls-9" d="M149.13,110.7a3.71,3.71,0,0,1-.47,0h0c-2.46-.29-4.18-2.89-3.84-5.8s2.65-5,5.1-4.72,4.18,2.89,3.84,5.79a5.85,5.85,0,0,1-1.71,3.53A4.26,4.26,0,0,1,149.13,110.7Zm.33-9.3c-1.64,0-3.11,1.56-3.36,3.63s1,4.16,2.71,4.37h0a2.9,2.9,0,0,0,2.35-.86,4.5,4.5,0,0,0,1.32-2.75c.26-2.2-.95-4.16-2.71-4.37Z"/><path class="cls-9" d="M158.77,102c0-1.58-2.17-4.79-6.07-5.82-5-1.34-7.82.85-7.92,1s2.8-3.49,8.38-2.08S159,100.76,158.77,102Z"/><path class="cls-12" d="M71.32,61.16s2.7-7,8-8.89c12.82-4.6,13.18,4.88,13.18,4.88-4-4.73-8.87-4.19-12.88-2.7C74.89,56.22,71.33,61.11,71.32,61.16Z"/><path class="cls-13" d="M158.24,134.31s-26.12-1.24-36.34-24"/><path class="cls-14" d="M158.17,135.81a43.53,43.53,0,0,1-5.85-1,54.54,54.54,0,0,1-5.59-1.7,47.56,47.56,0,0,1-10.37-5.22,39.7,39.7,0,0,1-8.59-7.71,38.7,38.7,0,0,1-5.87-9.81,37.74,37.74,0,0,0,15.25,16.25,46.51,46.51,0,0,0,10.28,4.36,47.53,47.53,0,0,0,10.88,1.87Z"/><path class="cls-13" d="M124.21,106a9.64,9.64,0,0,1-7.17,7.17"/><path class="cls-14" d="M124.25,106a5.64,5.64,0,0,1-.39,2.82,7.38,7.38,0,0,1-1.56,2.43,8.54,8.54,0,0,1-1.13.94,6.62,6.62,0,0,1-1.3.66,5.56,5.56,0,0,1-2.82.36l0-.1a10,10,0,0,0,2.47-1,8.35,8.35,0,0,0,2.08-1.61,10,10,0,0,0,2.58-4.57Z"/><path class="cls-13" d="M48.07,207.89s16.81,26.37,33.29,38.23"/><path class="cls-14" d="M48.49,207.62c2.26,3.57,4.68,7.06,7.16,10.49s5.05,6.81,7.75,10.08c5.39,6.53,11.17,12.81,18,17.93-6.89-5-12.81-11.17-18.35-17.61-2.76-3.23-5.4-6.56-8-9.95s-5-6.85-7.39-10.4Z"/></svg>