<svg id="Layer_1" data-name="Layer 1" xmlns="http://www.w3.org/2000/svg" viewBox="0 0 90 60"><defs><style>.cls-1{fill:#fcf9f7;stroke:#3a1e0f;}.cls-1,.cls-4{stroke-miterlimit:10;stroke-width:0.75px;}.cls-2{fill:#2d1c15;}.cls-3{fill:#f9f4f2;}.cls-4{fill:#f9dad2;stroke:#4c2606;}</style></defs><path class="cls-1" d="M79.17,43.87A13.66,13.66,0,0,1,66.61,55c-7.34.36-13.61-5.44-14.2-13,0-.14,0-.28,0-.42-.39-7.81,5.36-14.43,12.84-14.8S79.07,32.4,79.45,40.19A14.43,14.43,0,0,1,79.17,43.87Z"/><ellipse class="cls-2" cx="71.12" cy="40.35" rx="8.29" ry="8.65" transform="translate(-1.91 3.56) rotate(-2.83)"/><ellipse class="cls-3" cx="66.72" cy="36.23" rx="2.12" ry="2.37" transform="translate(-1.71 3.34) rotate(-2.83)"/><path class="cls-1" d="M30.17,41.23c-1.58,5.14-5.66,8.89-10.62,9.14C13.38,50.67,8,45.43,7,38.39c-.07-.51-.11-1-.14-1.56C6.47,29,11.53,22.44,18.16,22.12s12.3,5.73,12.69,13.53A16.49,16.49,0,0,1,30.17,41.23Z"/><ellipse class="cls-2" cx="23.46" cy="35.76" rx="7.35" ry="8.65" transform="translate(-1.74 1.2) rotate(-2.83)"/><ellipse class="cls-3" cx="19.54" cy="31.62" rx="1.88" ry="2.37" transform="translate(-1.54 1) rotate(-2.83)"/><path class="cls-2" d="M66.51,11.84a17.31,17.31,0,0,1,16.65,7.39S83,8,68.65,7C68.65,7,64,8.22,66.51,11.84Z"/><path class="cls-2" d="M24.21,9.83S15.33,8,9.91,17.21c0,0,.12-11.28,12.45-12.22C22.36,5,26.4,6.2,24.21,9.83Z"/><path class="cls-4" d="M30.17,41.23l-1,.13A44.19,44.19,0,0,1,17.7,41,63,63,0,0,1,7,38.39c-.07-.51-.11-1-.14-1.56C6.47,29,11.53,22.44,18.16,22.12s12.3,5.73,12.69,13.53A16.49,16.49,0,0,1,30.17,41.23Z"/><path class="cls-4" d="M79.17,43.87a4.61,4.61,0,0,1-.53.15c-4.53,1.27-9.89,1.13-14.8.45A79.18,79.18,0,0,1,52.41,42c0-.14,0-.28,0-.42-.39-7.81,5.36-14.43,12.84-14.8S79.07,32.4,79.45,40.19A14.43,14.43,0,0,1,79.17,43.87Z"/></svg>