<svg id="Layer_1" data-name="Layer 1" xmlns="http://www.w3.org/2000/svg" viewBox="0 0 256 256"><defs><style>.cls-1{opacity:0.3;}.cls-2{fill:#4a7d43;}.cls-3{fill:#2f5129;}.cls-4{fill:#3f6e37;}.cls-5{fill:#2a4924;}.cls-6{fill:#3d6734;}.cls-7{fill:#53a947;}.cls-8{fill:#589a51;}.cls-9{fill:#7fc071;}.cls-10{fill:#80c374;}.cls-11{fill:#fff;stroke:#020202;}.cls-11,.cls-14{stroke-miterlimit:10;stroke-width:0.25px;}.cls-12{fill:#702b2e;}.cls-13{fill:#9e3034;}.cls-14{fill:#ee8483;stroke:#471e1e;}.cls-15{fill:#a1d087;}.cls-16{fill:#4c1e20;}.cls-17{fill:#efeeee;}.cls-18{fill:#232323;}</style></defs><ellipse class="cls-1" cx="141.21" cy="164.14" rx="95.15" ry="32.46" transform="translate(-22.82 22.8) rotate(-8.54)"/><path class="cls-2" d="M92.87,158.59s-.13,3.54-1.55,5.11-2.68,2.53-3.95,2.83a9.91,9.91,0,0,1-1.66.32,16.12,16.12,0,0,1-2.86,2.08c-1.23.59-3.4,1.78-5.62,1.59a1.69,1.69,0,0,1-1.07-.39c-.2-.35-.24-.4.44-2,0,0-.51.18-1.3.41a16.28,16.28,0,0,1-3.8.65c-1.19,0-1.63-.25-1.87-.58-.35-.51.79-2.43.79-2.43a13.18,13.18,0,0,1-3.12.63,8,8,0,0,1-3.15-.31c-.36-.21-.62-.44-.34-.86S65,163.77,65,163.77s-.72,0-1.54-.1a6.54,6.54,0,0,1-2.6-.74c-.34-.33-.32-.53-.06-.84A27.13,27.13,0,0,1,63,159.45a16.74,16.74,0,0,1,3.62-2.67,17.69,17.69,0,0,1,6.6-2C74.17,154.66,87.59,153.94,92.87,158.59Z"/><path class="cls-3" d="M85.52,167c2.13-.13,7.24-1.73,7.24-7.65,0,0-.1,6.07-7,7.33Z"/><path class="cls-3" d="M80.1,163.22c-1.6,1.13-3.34,4.5-3.92,6.27-.21.64.45,1.16,2.25.89a16,16,0,0,0,7.83-4.13c-1.5,2.28-5.38,4-7.8,4.3-2.2.26-2.78-.22-2.45-1.18C76.58,167.67,78,164.32,80.1,163.22Z"/><path class="cls-3" d="M69.54,167.79c.76-1.77,2.71-6,5.94-6.72-2.79,1-5,5-5.76,6.87-.27.66.42,1.27,2.42,1.11a14.47,14.47,0,0,0,4.62-1.21.83.83,0,0,0-.12.27v.07a15,15,0,0,1-4.47,1.06C69.71,169.35,69.11,168.8,69.54,167.79Z"/><path class="cls-3" d="M63.66,165.69c.84-1.7,4.4-6.62,7.53-7-2.74.68-6.33,5.38-7.32,7.08-.6,1,3.27,1.47,6.69.22a1.92,1.92,0,0,0-.14.33C66.53,167.43,63.05,166.94,63.66,165.69Z"/><path class="cls-3" d="M60.66,162.22a14.81,14.81,0,0,1,5.92-5.54,17,17,0,0,1,9.79-2,18.42,18.42,0,0,0-9.7,2.2,15.89,15.89,0,0,0-5.81,5.39c-.55.73,1.66,1.4,4.31,1.38a.53.53,0,0,0-.21.21C62.13,163.84,60.05,163.1,60.66,162.22Z"/><path class="cls-3" d="M77.26,168.05c1.73.11,2.31,2,1.2,2.41a6.76,6.76,0,0,1-2.44.42C75.4,170.88,75.92,168,77.26,168.05Z"/><path class="cls-3" d="M70.77,166.59c1.79.11,2.39,2.1,1.24,2.5a7.31,7.31,0,0,1-2.53.43C68.84,169.52,69.38,166.51,70.77,166.59Z"/><path class="cls-3" d="M65.27,164.37c1.67.39,1.92,2.38.76,2.56a7,7,0,0,1-2.46,0C63,166.82,64,164.06,65.27,164.37Z"/><path class="cls-3" d="M62.17,161.1c1.45.6,1.12,2.51,0,2.51a6.16,6.16,0,0,1-2.21-.36C59.48,163.07,61,160.64,62.17,161.1Z"/><path class="cls-4" d="M104.38,107.07c-.34-1.73.22-3,.08-3.45-.28-.85-5,.75-6.86,1.68C96,106.08,104.63,108.33,104.38,107.07Z"/><path class="cls-5" d="M100.83,107.07h0c-1.63-.4-3.4-1-3.45-1.53,0-.11.05-.2.2-.28,1.66-.82,5.49-2.15,6.61-1.88a.41.41,0,0,1,.31.23,2.25,2.25,0,0,1,0,.82,7.24,7.24,0,0,0,0,2.63.25.25,0,0,1-.07.24C104,107.67,102.21,107.41,100.83,107.07Zm3.34-3.62c-1.08-.26-5,1.08-6.55,1.88-.12.06-.18.13-.17.21,0,.37,1.5,1,3.39,1.46s3.16.53,3.46.25a.21.21,0,0,0,0-.17,7.18,7.18,0,0,1,0-2.66,2.26,2.26,0,0,0,0-.79C104.4,103.55,104.31,103.49,104.17,103.45Z"/><path class="cls-4" d="M225.16,64.91a14,14,0,0,0,.54-2.5c.3-.47,2.61,2.85,3.48,4.38C229.9,68.08,224.81,65.7,225.16,64.91Z"/><path class="cls-5" d="M225.14,65.09a.23.23,0,0,1,0-.2,6.25,6.25,0,0,0,.43-1.9,1.74,1.74,0,0,1,.11-.6q.06-.11.21,0c.66.33,2.53,3.06,3.3,4.41a.43.43,0,0,1,.07.3c-.11.32-1.19,0-2.15-.51h0C226.29,66.16,225.29,65.54,225.14,65.09Zm.58-2.66a2.1,2.1,0,0,0-.11.59,6.3,6.3,0,0,1-.43,1.91.19.19,0,0,0,0,.15,4.38,4.38,0,0,0,1.93,1.42c1.12.55,2,.78,2.11.53,0,0,0-.12-.06-.22-.74-1.32-2.63-4.07-3.27-4.39C225.8,62.38,225.75,62.39,225.72,62.43Z"/><path class="cls-4" d="M213.14,61.13a.3.3,0,0,1,0-.2,6.19,6.19,0,0,0,.09-2,2.34,2.34,0,0,1,0-.63q0-.11.21-.06c.71.21,3.07,2.6,4.08,3.82a.41.41,0,0,1,.12.29c-.06.34-1.2.17-2.24-.13h0A4.7,4.7,0,0,1,213.14,61.13Z"/><path class="cls-4" d="M197.58,59.58a.31.31,0,0,1-.08-.19,6,6,0,0,0-.35-1.91,2,2,0,0,1-.13-.61c0-.07.08-.11.19-.1.73,0,3.52,1.82,4.75,2.77.12.09.18.17.18.25,0,.34-1.11.43-2.17.37h0A4.63,4.63,0,0,1,197.58,59.58Z"/><path class="cls-4" d="M187,59.41c.12.08.19.16.2.24.05.33-1.08.5-2.14.52h0a4.59,4.59,0,0,1-2.43-.4.24.24,0,0,1-.09-.18,6,6,0,0,0-.49-1.88,2.12,2.12,0,0,1-.17-.59c0-.08.06-.12.17-.12"/><path class="cls-4" d="M166.46,61.3a14,14,0,0,0-.93-2.39c0-.56,3.76.94,5.32,1.74C172.16,61.32,166.6,62.14,166.46,61.3Z"/><path class="cls-5" d="M166.54,61.46a.3.3,0,0,1-.11-.17,6,6,0,0,0-.69-1.82,2.09,2.09,0,0,1-.24-.57c0-.07.06-.12.17-.13.72-.1,3.79,1.15,5.18,1.86.13.06.2.13.22.21.09.33-1,.62-2.07.76h0A4.68,4.68,0,0,1,166.54,61.46Zm-1-2.54a2.13,2.13,0,0,0,.23.55,6.25,6.25,0,0,1,.7,1.83.2.2,0,0,0,.08.13,4.51,4.51,0,0,0,2.4.12c1.23-.16,2.11-.47,2.05-.72,0-.06-.07-.11-.18-.16-1.34-.69-4.44-1.94-5.14-1.85C165.6,58.83,165.56,58.87,165.56,58.92Z"/><path class="cls-4" d="M151.35,64.36a14.08,14.08,0,0,0-1.11-2.3c-.06-.56,3.82.64,5.43,1.31C157,63.94,151.56,65.2,151.35,64.36Z"/><path class="cls-4" d="M138.37,67.49a14.34,14.34,0,0,0-1.11-2.31c-.06-.55,3.81.64,5.43,1.32C144.05,67.06,138.58,68.32,138.37,67.49Z"/><path class="cls-5" d="M138.47,67.64a.25.25,0,0,1-.13-.16,6.29,6.29,0,0,0-.83-1.76,1.73,1.73,0,0,1-.28-.55c0-.07,0-.12.15-.14.71-.15,3.87.85,5.31,1.44.14.06.21.12.24.2.11.32-1,.7-2,.92h0A4.63,4.63,0,0,1,138.47,67.64Zm-1.19-2.45a2,2,0,0,0,.28.53,6.36,6.36,0,0,1,.84,1.77.18.18,0,0,0,.09.12,4.49,4.49,0,0,0,2.4-.07c1.21-.25,2.07-.63,2-.88,0,0-.08-.1-.18-.14-1.4-.58-4.58-1.59-5.28-1.44C137.32,65.1,137.28,65.14,137.28,65.19Z"/><path class="cls-4" d="M129,69.56a12.45,12.45,0,0,0-.92-1.9c0-.46,3.15.53,4.48,1.09C133.63,69.21,129.12,70.25,129,69.56Z"/><path class="cls-4" d="M120.78,70.69a10.91,10.91,0,0,0-.84-1.93c0-.47,3.12.65,4.43,1.26C125.48,70.53,120.92,71.38,120.78,70.69Z"/><path class="cls-5" d="M120.86,70.82a.2.2,0,0,1-.1-.14,5.35,5.35,0,0,0-.63-1.47,1.46,1.46,0,0,1-.21-.46c0-.06,0-.1.13-.12A15.64,15.64,0,0,1,124.38,70a.36.36,0,0,1,.19.17c.08.27-.82.55-1.69.69h0A3.77,3.77,0,0,1,120.86,70.82ZM120,68.76a1.33,1.33,0,0,0,.21.44,5.17,5.17,0,0,1,.62,1.5.17.17,0,0,0,.07.1,3.68,3.68,0,0,0,2,0c1-.17,1.73-.45,1.67-.66q0-.06-.15-.12a15.93,15.93,0,0,0-4.29-1.37C120,68.69,120,68.72,120,68.76Z"/><path class="cls-2" d="M221.43,63.59s-3.78-1.25-6.42-1.79-6.47-1.29-9.64-1.68A103.06,103.06,0,0,0,195,59.28c-3.23,0-7.69-.05-11.44.22s-8.67.76-12.58,1.34-7.57,1.16-10.88,1.79S151.2,64.51,148,65.26s-8.72,2.2-11.81,2.81-7.26,1.38-10.52,1.81-7.22.88-8,.93-1.13.38-.21.93A25.69,25.69,0,0,0,122.73,74a64.53,64.53,0,0,0,10.13,1.81c3.77.37,7.35.56,11.08.71s13.18.34,16,.64S170.47,78,175.39,79A105.43,105.43,0,0,1,190,82.74,89,89,0,0,1,203.74,89a89.9,89.9,0,0,1,9.67,6.72s14.58,2.11,16.92-9.83S228.19,66.05,221.43,63.59Z"/><path class="cls-6" d="M213.7,95.08s-25.19-19.21-58.85-18c0,0-33.42-.39-38-5.79,0,0,14.32,4.62,37.58,3.92C154.41,75.16,194.41,73.07,213.7,95.08Z"/><path class="cls-7" d="M225.16,65.7S206.35,51.54,149.47,65C149.47,65,196.88,56.74,225.16,65.7Z"/><path class="cls-8" d="M104.39,107.32c.61-.33,3.58-1.75,4.42-2.14s4.18-2.14,5.58-2.79,4.7-2.3,6.36-3,5.59-2.35,7.37-2.93,5.09-1.62,8-2.26,7.12-1.3,10-1.64A87,87,0,0,1,156.63,92c3.53,0,7.76.07,11.17.33s7.84.58,10.87,1,8.68,1,12.23,1.57,9.18,1.25,11.23,1.33a45.8,45.8,0,0,0,10.35-.38,25.49,25.49,0,0,0,9.37-3.5,16.37,16.37,0,0,0,5.1-5.58,17.7,17.7,0,0,0,1.88-6.27,23.22,23.22,0,0,0-.65-6.69,22.57,22.57,0,0,0-2.45-5.68A15.17,15.17,0,0,0,221,63.47s4.31,1.28,6.16,2.09a34.45,34.45,0,0,1,7,3.4,28.49,28.49,0,0,1,6.34,5.89,31.23,31.23,0,0,1,4.39,8,34.82,34.82,0,0,1,1.9,8.6,38.7,38.7,0,0,1-.15,8.71,39.32,39.32,0,0,1-1.09,4.89c-1.33,4.37-5.49,15.7-16.75,22.88a41.41,41.41,0,0,1-14.28,5.35S198.51,145,197.92,146.67A23.9,23.9,0,0,1,193,153.4a22.17,22.17,0,0,1-8.49,5.45,24.86,24.86,0,0,1-10.66,1.42c-3.69-.27-38.5,1.57-47.62-2S93.94,113,104.39,107.32Z"/><path class="cls-9" d="M103.56,108.4s24.68-18.57,60.19-15.83c0,0,3.76-1,37.06,3.57,0,0,22,4.11,27.41-12,0,0,4.82-12.51-7.18-20.66,0,0,12.71,8.14,7.57,24.18,0,0-4.64,11.71-29,10.61C199.58,98.26,147,85.79,103.56,108.4Z"/><path class="cls-2" d="M153,153.41c5.63-1.77,11.27-4.7,17.15-4.26,8.25.62,20.58-4.81,23.79-13.53.78-2.13,19.49-9.24,22.64-10,12.69-3,23.89-8.23,30.34-27.43,0,.71-.13,1.39-.23,2a39.32,39.32,0,0,1-1.09,4.89c-1.33,4.37-5.49,15.7-16.75,22.88a41.41,41.41,0,0,1-14.28,5.35S198.51,145,197.92,146.67A23.9,23.9,0,0,1,193,153.4a22.17,22.17,0,0,1-8.49,5.45,24.86,24.86,0,0,1-10.66,1.42c-3.12-.22-28.35,1-41.66-.67C139.33,158.18,146.08,155.58,153,153.41Z"/><path class="cls-10" d="M203.38,140.53c-2.88,2.93-5.23,5.51-5.46,6.14A23.9,23.9,0,0,1,193,153.4a22.17,22.17,0,0,1-8.49,5.45,24.86,24.86,0,0,1-10.66,1.42c-1-.07-4.47,0-9.09.11C182.92,155.59,190.13,152.89,203.38,140.53Z"/><path class="cls-8" d="M203.86,116.69a13.16,13.16,0,0,1,5.28,1.57,10.92,10.92,0,0,1,3.49,3.17,13.44,13.44,0,0,1,1.83,4,20.72,20.72,0,0,1,.69,4.2c.1,1.21.23,3.12.31,3.46a1.22,1.22,0,0,0,.68.92c.54.35,2.16,1.17,3.53,2.13a56.54,56.54,0,0,1,6.21,4.72,22.56,22.56,0,0,1,4.1,4.72,13.79,13.79,0,0,1,1.93,5.62,7.82,7.82,0,0,1-1.91,5.94,35,35,0,0,1-5.48,5c-1.48,1-3.18,2.08-4.09,2.77a15.1,15.1,0,0,1-3.94,2.57,14.22,14.22,0,0,1-5,1.2c-.9,0-1.69-.33-1.44-1.14a14.89,14.89,0,0,1,.57-1.47,13.6,13.6,0,0,1-2.13.76,10.35,10.35,0,0,1-3.5.37c-.7-.17-1.25-.4-.83-1.43s.48-1.19.48-1.19A9.61,9.61,0,0,1,203,165a6.25,6.25,0,0,1-2.65-.16c-.39-.25-.78-.47-.38-1.29l.68-1.4a7.05,7.05,0,0,1-1.27.18,2.92,2.92,0,0,1-1.87-.39c-.3-.33-.38-.54-.12-1.14a17.68,17.68,0,0,1,2.29-3.4,20.47,20.47,0,0,1,3.81-3.67,14.6,14.6,0,0,1,3-1.65s-2.17-.78-4-1.7a32.12,32.12,0,0,1-5-3,15.22,15.22,0,0,1-3.58-4,20.35,20.35,0,0,1-1.91-7.85,38.23,38.23,0,0,1-.25-5.69c.08-1.31.32-5.59,1.78-7.9s2.34-3.35,4.67-4.35A12.1,12.1,0,0,1,203.86,116.69Z"/><path class="cls-2" d="M219.11,163.42c1-1.4,2.27-1.52,5.28-3.46,2.36-1.51,5.47-3.64,6.41-6.44a10.62,10.62,0,0,0,.21-5.82,13.24,13.24,0,0,1,.9,3.55,7.82,7.82,0,0,1-1.91,5.94,35,35,0,0,1-5.48,5c-1.48,1-3.18,2.08-4.09,2.77a15.1,15.1,0,0,1-3.94,2.57,14.22,14.22,0,0,1-5,1.2,2.25,2.25,0,0,1-1.13-.27A13.23,13.23,0,0,0,219.11,163.42Z"/><path class="cls-4" d="M114.62,110.83c0-1.76.73-3,.67-3.39-.14-.88-5.06-.12-7.05.48C106.57,108.42,114.65,112.11,114.62,110.83Z"/><path class="cls-5" d="M111.12,110.22h0c-1.54-.67-3.17-1.61-3.14-2.09,0-.12.09-.2.25-.25,1.77-.52,5.77-1.18,6.83-.72.16.07.25.16.26.28a2.11,2.11,0,0,1-.18.8,7.36,7.36,0,0,0-.48,2.59.25.25,0,0,1-.11.22C114.1,111.35,112.42,110.79,111.12,110.22Zm3.91-3c-1-.45-5.06.21-6.78.73-.13,0-.19.09-.2.17,0,.37,1.31,1.24,3.09,2s3,1.07,3.36.84a.15.15,0,0,0,.08-.16,7.55,7.55,0,0,1,.48-2.62,2.2,2.2,0,0,0,.19-.76C115.24,107.36,115.16,107.29,115,107.23Z"/><path class="cls-4" d="M93.74,104.58c-.59-1.66-.22-3-.43-3.42-.4-.8-4.83,1.46-6.54,2.65C85.33,104.81,94.17,105.79,93.74,104.58Z"/><path class="cls-5" d="M90.22,105.1h0c-1.67-.16-3.51-.54-3.64-1,0-.11,0-.21.17-.31,1.51-1.06,5.11-2.93,6.26-2.82a.38.38,0,0,1,.34.18,2.41,2.41,0,0,1,.07.82,7.6,7.6,0,0,0,.35,2.61.25.25,0,0,1,0,.25C93.41,105.24,91.64,105.23,90.22,105.1ZM93,101c-1.11-.1-4.74,1.79-6.21,2.81-.11.08-.15.16-.13.23.09.36,1.62.77,3.57,1s3.2.07,3.45-.25a.17.17,0,0,0,0-.18,7.24,7.24,0,0,1-.35-2.63,2.27,2.27,0,0,0-.07-.79C93.24,101.09,93.14,101.05,93,101Z"/><path class="cls-2" d="M191.75,129.83c.08-1.31.32-5.59,1.78-7.9s2.34-3.35,4.67-4.35a11.3,11.3,0,0,1,2.53-.75c-4.83,3.88-4.08,21.52-.94,25.36a32,32,0,0,0,20.81,11.5s-6.78,2.88-17.63.44l.49-.36a14.6,14.6,0,0,1,3-1.65s-2.17-.78-4-1.7a32.12,32.12,0,0,1-5-3,15.22,15.22,0,0,1-3.58-4,20.35,20.35,0,0,1-1.91-7.85A38.23,38.23,0,0,1,191.75,129.83Z"/><path class="cls-8" d="M161.49,180.19s-.13,3.88-1.69,5.59-2.94,2.77-4.33,3.11a10.75,10.75,0,0,1-1.81.35,17.46,17.46,0,0,1-3.14,2.27c-1.35.66-3.71,2-6.15,1.75a1.84,1.84,0,0,1-1.17-.43c-.22-.38-.26-.44.48-2.23,0,0-.56.21-1.42.45a17.49,17.49,0,0,1-4.17.72c-1.29,0-1.78-.28-2-.64-.4-.55.86-2.66.86-2.66a14.56,14.56,0,0,1-3.42.69,8.66,8.66,0,0,1-3.45-.34c-.4-.22-.68-.48-.38-.94s1.36-2,1.36-2-.79,0-1.69-.11a7.5,7.5,0,0,1-2.86-.81c-.36-.36-.34-.59,0-.92a29.05,29.05,0,0,1,2.35-2.9,18.4,18.4,0,0,1,4-2.92A19.47,19.47,0,0,1,140,176C141,175.89,155.71,175.11,161.49,180.19Z"/><path class="cls-8" d="M90.56,104.41s1.54.06,3.17.26,4.57.68,7.49,1.27a68.5,68.5,0,0,1,9.93,2.76,37.12,37.12,0,0,1,8,4.27,56.32,56.32,0,0,1,6.75,6.3c1.1,1.36,11.71,45.86,4.44,47.72s-12.27,2.74-18.83,2.57-11.35-.79-15.75-2.26a101.18,101.18,0,0,1-13.26-5.72c-3.49-1.83-10-5.17-13.75-6S51.36,102.23,90.56,104.41Z"/><path class="cls-2" d="M68.39,113.53c4,.31,7.86,1.38,11.8,2.06,4.59.79,9.26,1,13.75,2.34,3.51,1,8.32,2,10.79,4.92,2.9,3.45,3.58,8.55,5.43,12.59,2.87,6.27,5.37,11.7,10.91,15.89,3.23,2.44,8.59.21,11.78-1.88.12,5.12-.54,17-2.53,17.54-7.26,1.86-12.27,2.74-18.83,2.57s-11.35-.79-15.75-2.26a101.18,101.18,0,0,1-13.26-5.72c-3.49-1.83-10-5.17-13.75-6C66,155.06,58.34,128.13,68.39,113.53Z"/><path class="cls-10" d="M90.72,142.19c17.88,2.78,14,18.61,39.6,24.8-7.26,1.86-12.27,2.74-18.83,2.57s-11.35-.79-15.75-2.26a101.18,101.18,0,0,1-13.26-5.72c-3.49-1.83-10-5.17-13.75-6-1.92-.39-6.35-14.09-5.16-27.22C67.53,129.48,71.91,139.26,90.72,142.19Z"/><path class="cls-8" d="M133.83,141.26c1.67-.71,7.18-2.59,12.55.19,0,0,1.91-.54,3.55-.81s6.89-1.28,9.93-1,6.26.49,10.51,2.78a11.39,11.39,0,0,1,5.12,5.5,17.75,17.75,0,0,1,.94,5.2,26.93,26.93,0,0,1-.61,5.9,47.12,47.12,0,0,1-3.4,9.6c-1.58,3-3.77,7-5.91,9.35a23.64,23.64,0,0,1-5.42,4.77c-1.47.81-22-4.45-21.4-6a53.76,53.76,0,0,1,2.27-4.91c.56-1,1.76-3.19,1.76-3.19a14.26,14.26,0,0,1-5.07.54c-2.49-.28-5.5-.75-7.33-1.81s-3.57-2-4.38-5.51C125.39,155,126.48,144.4,133.83,141.26Z"/><path class="cls-2" d="M149.93,156.12c1.94-1,9.44-5.87,9.44-5.87l-4,3.58a51.34,51.34,0,0,0-5.64,6.24c-1.78,2.29-2.57,3.47-3.94,5.46-.88,1.29-1.22,2-2,3.32a22.47,22.47,0,0,1-5.13.33c-2.49-.28-5.5-.75-7.33-1.81s-4.09-2.23-4.95-5.75c-.53-2.14-.05-5.36,0-7.68C131.7,158.65,141.59,160.32,149.93,156.12Z"/><path class="cls-3" d="M111.79,169.81A81.41,81.41,0,0,0,131,167.22l-.62-.36c-25.23,6.19-37.37-.07-48.45-5.74-6.81-3.49-13.24-6.78-21.78-6.78v.26c8.48,0,14.89,3.27,21.67,6.74C89.72,165.38,98.37,169.81,111.79,169.81Z"/><path class="cls-3" d="M123.07,116.38c-8.88-9.73-23.66-11.31-39.32-13l-2.1-.22,0,.25,2.1.22c12.22,1.31,23.11,2.6,31.62,7.06A41.59,41.59,0,0,1,123.07,116.38Z"/><path class="cls-4" d="M131.61,110.91c-1.52-1.29-1.94-2.82-2.36-3.1-.85-.54-3.89,4.18-4.88,6.31C123.54,115.91,132.71,111.85,131.61,110.91Z"/><path class="cls-5" d="M128.46,113.42h0c-1.71.79-3.73,1.47-4.12,1.08-.09-.09-.09-.23,0-.4.88-1.89,3.33-5.76,4.5-6.31a.46.46,0,0,1,.44,0,2.32,2.32,0,0,1,.53.76,8.34,8.34,0,0,0,1.83,2.34.28.28,0,0,1,.11.27C131.66,111.74,129.92,112.74,128.46,113.42Zm.41-5.55c-1.14.53-3.61,4.44-4.46,6.27-.07.13-.07.24,0,.3.29.3,2-.18,4-1.1s3.16-1.75,3.22-2.21a.19.19,0,0,0-.07-.18,8.3,8.3,0,0,1-1.85-2.37,2.37,2.37,0,0,0-.51-.73C129.14,107.79,129,107.8,128.87,107.87Z"/><path class="cls-4" d="M154.76,103.59c-1.37-1.7-1.5-3.45-1.9-3.83-.8-.77-5.07,3.7-6.58,5.79C145,107.31,155.76,104.83,154.76,103.59Z"/><path class="cls-5" d="M150.85,105.64h0c-2,.5-4.34.81-4.67.31-.08-.11-.06-.26.06-.43,1.34-1.86,4.79-5.53,6.18-5.87a.46.46,0,0,1,.47.07,2.54,2.54,0,0,1,.42.93,9.09,9.09,0,0,0,1.49,2.91.35.35,0,0,1,.06.31C154.65,104.5,152.56,105.22,150.85,105.64Zm1.59-5.9c-1.34.33-4.82,4-6.12,5.83-.1.14-.12.25-.07.33.26.38,2.23.23,4.58-.35,2.19-.55,3.77-1.23,3.94-1.71a.23.23,0,0,0-.05-.22,9.25,9.25,0,0,1-1.5-2.94,2.83,2.83,0,0,0-.39-.89A.38.38,0,0,0,152.44,99.74Z"/><path class="cls-4" d="M179.57,102.23c-1-2.08-.7-3.9-1-4.38-.63-1-6.07,2.54-8.13,4.31C168.7,103.65,180.28,103.74,179.57,102.23Z"/><path class="cls-5" d="M175.07,103.37h0c-2.18,0-4.62-.23-4.84-.83-.06-.13,0-.27.17-.42,1.82-1.57,6.24-4.48,7.73-4.49a.49.49,0,0,1,.47.19,2.7,2.7,0,0,1,.2,1.05,9.72,9.72,0,0,0,.81,3.33.32.32,0,0,1,0,.33C179.23,103.12,176.93,103.35,175.07,103.37Zm3.07-5.64c-1.46,0-5.91,2.94-7.67,4.47-.14.11-.19.22-.15.31.17.46,2.21.78,4.75.76,2.38,0,4.16-.34,4.44-.79a17.6,17.6,0,0,1-.81-3.6C178.72,98.41,178.59,97.63,178.14,97.73Z"/><path class="cls-4" d="M203.35,104.8c-.79-2.09-.36-3.83-.62-4.33-.53-1-6.11,2-8.25,3.52C192.68,105.29,203.91,106.33,203.35,104.8Z"/><path class="cls-4" d="M145.51,117.76c-1.34-1.21-1.69-2.61-2.06-2.87-.76-.52-3.64,3.69-4.6,5.6C138.05,122.09,146.49,118.64,145.51,117.76Z"/><path class="cls-5" d="M142.59,120h0c-1.58.67-3.43,1.23-3.77.87a.3.3,0,0,1,0-.36c.85-1.7,3.17-5.15,4.25-5.61a.43.43,0,0,1,.4,0,2.57,2.57,0,0,1,.47.71,7.4,7.4,0,0,0,1.6,2.17.26.26,0,0,1,.08.25C145.53,118.52,143.93,119.38,142.59,120Zm.51-5c-1,.45-3.39,3.93-4.21,5.57-.07.13-.07.22,0,.28.26.28,1.84-.11,3.68-.9s2.92-1.5,3-1.92a.18.18,0,0,0-.07-.17,7.53,7.53,0,0,1-1.61-2.2,2.45,2.45,0,0,0-.44-.67A.35.35,0,0,0,143.1,114.93Z"/><path class="cls-4" d="M161.71,112.84c-1.31-1.46-1.51-3-1.88-3.34-.75-.65-4.36,3.54-5.61,5.48C153.16,116.61,162.65,113.91,161.71,112.84Z"/><path class="cls-5" d="M158.3,114.85h0c-1.78.54-3.84.93-4.16.5-.08-.1-.06-.24,0-.39,1.11-1.73,4-5.17,5.25-5.54a.44.44,0,0,1,.43,0,2.41,2.41,0,0,1,.42.81,8,8,0,0,0,1.46,2.54.27.27,0,0,1,.06.27C161.64,113.66,159.82,114.39,158.3,114.85Zm1.16-5.35c-1.19.36-4.13,3.83-5.21,5.5-.08.13-.1.23,0,.3.25.33,2,.1,4.07-.53s3.32-1.27,3.44-1.7a.2.2,0,0,0,0-.2,8.17,8.17,0,0,1-1.48-2.56,2.45,2.45,0,0,0-.4-.78A.38.38,0,0,0,159.46,109.5Z"/><path class="cls-4" d="M178.37,112.16c-1-1.81-.8-3.45-1.11-3.87-.6-.85-5.31,2.55-7.06,4.23C168.72,113.93,179.07,113.48,178.37,112.16Z"/><path class="cls-5" d="M174.4,113.38h0c-2,.12-4.15,0-4.37-.51-.05-.12,0-.25.14-.38,1.55-1.49,5.37-4.3,6.7-4.38a.46.46,0,0,1,.43.15,2.62,2.62,0,0,1,.23.93,8.43,8.43,0,0,0,.87,3,.26.26,0,0,1,0,.29C178.1,113,176.06,113.28,174.4,113.38Zm2.48-5.18c-1.3.08-5.14,2.91-6.65,4.35-.12.11-.16.2-.12.29.17.4,2,.59,4.28.46s3.71-.5,3.94-.91a.2.2,0,0,0,0-.21,8.69,8.69,0,0,1-.89-3,2.74,2.74,0,0,0-.21-.9A.4.4,0,0,0,176.88,108.2Z"/><path class="cls-4" d="M215.13,106.28h0c-1.77.21-3.77.2-4-.31a.35.35,0,0,1,.1-.39c1.36-1.55,4.71-4.5,5.92-4.64a.4.4,0,0,1,.4.12,2.66,2.66,0,0,1,.24.92,9.22,9.22,0,0,0,.92,2.89.3.3,0,0,1,0,.29C218.48,105.71,216.63,106.11,215.13,106.28Z"/><path class="cls-4" d="M231.09,100.57h0c-1,.75-2.21,1.4-2.52,1.06a.41.41,0,0,1-.06-.36c.29-1.73,1.32-5.27,2-5.79a.22.22,0,0,1,.28,0,3,3,0,0,1,.46.67,9,9,0,0,0,1.52,2.08.38.38,0,0,1,.11.24C232.92,99,231.94,99.93,231.09,100.57Z"/><path class="cls-4" d="M237.75,90.58h0c-.32,1-.78,1.92-1,1.74a.43.43,0,0,1-.11-.27,23.88,23.88,0,0,1-.28-5.48c0-.1.08-.14.13-.11s.21.19.38.4a5.48,5.48,0,0,0,1.21,1.19.29.29,0,0,1,.11.16A5.72,5.72,0,0,1,237.75,90.58Z"/><path class="cls-4" d="M239.22,79.13A10.81,10.81,0,0,0,241,78c.41-.07-.81,3.74-1.44,5.33C239,84.68,238.6,79.35,239.22,79.13Z"/><path class="cls-11" d="M12.61,131.23c0,1.27.94,4.29,2.07,4.32.71,0,1.4-3.17,1.7-4.25S12.64,130,12.61,131.23Z"/><path class="cls-11" d="M25.73,135.81c0,1.27,1,4.27,2.13,4.3.71,0,1.36-3.19,1.65-4.27S25.75,134.54,25.73,135.81Z"/><path class="cls-12" d="M47.92,135.57a37.86,37.86,0,0,1-4.39,4.55A70,70,0,0,1,37,145.34a54.53,54.53,0,0,1-4.82,3.06c-1.88,1-3.35,2-4.44,2.73s-2.18,1.51-2.11,2.2S27,155.39,30.32,156a25.25,25.25,0,0,0,7.3.59,21,21,0,0,0,6.85-1.73,50.59,50.59,0,0,0,6.78-3.94c2.54-1.72,4.61-3.33,6.89-4.76a27.63,27.63,0,0,1,8.67-3.72c3.72-.88,7.09-1.47,9.55-2.23s4.88-1.92,5.62-2.71a14.82,14.82,0,0,1-2.11.82,9.4,9.4,0,0,1-4.12.42c-1.86-.26-2.63-.75-4.81-1.22a25.7,25.7,0,0,0-6.19-.73,55.74,55.74,0,0,0-7,.43c-2.8.26-3.45.66-5.47.11A26.81,26.81,0,0,1,47.92,135.57Z"/><path class="cls-13" d="M34.33,149.05c3.18-1.85,14-7.71,17.58-11.81a27.89,27.89,0,0,1-4-1.67,37.86,37.86,0,0,1-4.39,4.55A70,70,0,0,1,37,145.34a54.53,54.53,0,0,1-4.82,3.06c-1.88,1-3.35,2-4.44,2.73s-2.18,1.51-2.11,2.2,1.18,1.8,3.83,2.49C24.36,152.83,28.92,152.2,34.33,149.05Z"/><path class="cls-14" d="M74.32,140.73a45.68,45.68,0,0,0-4.89-.82,22.5,22.5,0,0,0-3.47-.06,22,22,0,0,0-3.34-.81c-1.43-.19-7-.9-11.3,1.36A40,40,0,0,0,43,147c-1.5,1.85-4.54,5-1.8,7.22.88.71,3.22.71,3.22.71s2-.91,3.35-1.75,4-2.59,5.93-3.91S57,146.84,59,145.62a22.59,22.59,0,0,1,6.64-2.8C68.25,142.15,74.32,140.73,74.32,140.73Z"/><path class="cls-8" d="M47.67,117.62s.41-1.67.65-3.11c1.09-6.51,3.92-7.22,5.27-7.37a8.83,8.83,0,0,1,4.47,1,17.65,17.65,0,0,0,.9-2.41c.22-.92.77-2.8,1.3-4.26s.85-2.16,1.51-2.59,3.61,3.92,2.4,7.91-2.29,10.8-6.89,11.76S47.67,117.62,47.67,117.62Z"/><path class="cls-8" d="M95.12,107.54c-1.19-.89-3.7-3.17-4.87-4.18s-7-5.69-12.27-3a14,14,0,0,0-3.61,2.85,6.86,6.86,0,0,1-1.45-.86c-.87-.62-3.15-2.41-4.23-3.32a6.12,6.12,0,0,0-4.41-1.36,4.5,4.5,0,0,0-3.38,2.16s1.29.42,1.67,2.54a11.07,11.07,0,0,1-.44,5.75,22.38,22.38,0,0,1-3.49,4.89,14.37,14.37,0,0,0-6,3,29.65,29.65,0,0,0-4.82.15,40.93,40.93,0,0,0-7.91,2.14,27.48,27.48,0,0,0-8.62.22,27.15,27.15,0,0,0-5.89-2.39c-3-.74-5.81-1.21-8.51-.43a10.62,10.62,0,0,0-5.71,3.46,11.36,11.36,0,0,0-2.27,5.86,11.72,11.72,0,0,0,1,5.61c.79,1.4,1.46,1.77,3,1.51s3.14-1.05,4.65-.76a14.91,14.91,0,0,1,5.46,2.78c1.87,1.42,3.54,2.33,6,1.82a31.35,31.35,0,0,0,6.74-2.21,9.66,9.66,0,0,1,5.13-1.13c1.69.15,3.27.67,6.45,2.46s5,2.55,7.64,2.41,6.41-.88,9.65-.73A36,36,0,0,1,72.92,138a11.15,11.15,0,0,0,5.72.64,21.5,21.5,0,0,0,3.33-.89,30.23,30.23,0,0,1-3.91,1.91c-1.3.43-5.69,1.57-8,2a36.65,36.65,0,0,0-7.73,2.18,35.56,35.56,0,0,0-6.35,3.75c-2.5,1.77-4.13,3-6.64,4.54a32.8,32.8,0,0,1-7.81,3.72,19.84,19.84,0,0,1-7.37.65,26.38,26.38,0,0,1-5.84-1.11c-1.6-.59-2.68-1.6-2.72-2.1s.43-1.3,3.07-2.86,4.71-2.78,6.35-3.82a70.54,70.54,0,0,0,6.55-4.77,47.06,47.06,0,0,0,6.88-7s-3.2-2.59-3.64-1.5a13.74,13.74,0,0,1-2.63,4.49,37.7,37.7,0,0,1-4.87,4.84,55.3,55.3,0,0,1-5.77,4.16c-2.87,1.75-3.56,1.8-5.53,3.22s-3.5,2.64-3.2,4.42,2.32,4,5.23,5.19a25.41,25.41,0,0,0,8.58,1.72,51.48,51.48,0,0,0,10-.26,45.73,45.73,0,0,0,9.14-2.09,53.58,53.58,0,0,1,10-3,45.7,45.7,0,0,1,9.88-.45,55.71,55.71,0,0,0,8.15.55,31.5,31.5,0,0,0,8.2-1.85,26.49,26.49,0,0,0,7.3-4c2.13-1.74,4.75-4.06,6-6.08a17.83,17.83,0,0,0,2.85-7.31c.29-1.62,2.11-14-1.48-20.87S95.12,107.54,95.12,107.54Z"/><path class="cls-2" d="M108.05,121.53a129.78,129.78,0,0,1-3.92,12.7,29.42,29.42,0,0,1-5,8.45c-2.2,2.46-5,3.85-8.09,5a49.61,49.61,0,0,1-10.58,2.88c-6.46,1-12.77,2.4-18.58,5.54-1.07.57-2.1,1.19-3.09,1.84a37.76,37.76,0,0,1,6.91-1.85,45.7,45.7,0,0,1,9.88-.45,55.71,55.71,0,0,0,8.15.55,31.5,31.5,0,0,0,8.2-1.85,26.49,26.49,0,0,0,7.3-4c2.13-1.74,4.75-4.06,6-6.08a17.83,17.83,0,0,0,2.85-7.31A47.45,47.45,0,0,0,108.05,121.53Z"/><path class="cls-2" d="M103.71,129.63S102.4,125,100,123.11s-7.82-1.46-12.62,1.47c0,0,3.75-.37,3.09,1.08a35.72,35.72,0,0,1-3.8,6.23c-1.4,1.68-3.1,4-5.93,5a10.81,10.81,0,0,1-8.36-.34c-3.21-1.25-5.64-1.64-10.54-1.06s-7.94,1.37-11.95-.9-6.93-4.74-12.19-3S30.6,135,27.4,134.48s-5.61-4.25-9-4.54-6.47,1.74-7.71.82-1.24-1-1.24-1,.71,2,1.53,2.29a3.82,3.82,0,0,0,2.92,0,6.63,6.63,0,0,1,3.6-.55,9,9,0,0,1,4.58,2.13c2.11,1.67,2.82,2.42,5.14,2.51a13,13,0,0,0,5.93-1.22c1.92-.8,4.88-2.19,6.5-2.19a13.32,13.32,0,0,1,7,2.12c3,1.79,5.18,2.73,7.34,2.78a36.83,36.83,0,0,0,5.48-.44c2.11-.21,6.33-.68,9.55,0s5.85,1.6,7.73,1.7a15.35,15.35,0,0,0,5.66-1.29,11.79,11.79,0,0,0,6-5c1.46-2.14,4.27-6.1,8.45-6.71C99.73,125.43,103.54,129.48,103.71,129.63Z"/><path class="cls-15" d="M105,131.33a15.7,15.7,0,0,0-5.33-6.17,10.17,10.17,0,0,0-6.48-1.68s-4.43,7.31-5.66,8.86a25.76,25.76,0,0,1-6,5.7,20.34,20.34,0,0,1-3.45,1.66c-1.3.43-5.69,1.57-8,2a36.65,36.65,0,0,0-7.73,2.18,35.56,35.56,0,0,0-6.35,3.75c-2.5,1.77-4.13,3-6.64,4.54a32.8,32.8,0,0,1-7.81,3.72,19.84,19.84,0,0,1-7.37.65,26.38,26.38,0,0,1-5.84-1.11c-1.6-.59-2.68-1.6-2.72-2.1s.43-1.3,3.07-2.86,4.71-2.78,6.35-3.82a70.54,70.54,0,0,0,6.55-4.77,52.63,52.63,0,0,0,6.35-6.31,15.89,15.89,0,0,0-3.31-1.69,13.17,13.17,0,0,1-2.43,4,37.7,37.7,0,0,1-4.87,4.84,55.3,55.3,0,0,1-5.77,4.16c-2.87,1.75-3.56,1.8-5.53,3.22s-3.5,2.64-3.2,4.42,2.32,4,5.23,5.19a25.41,25.41,0,0,0,8.58,1.72,51.48,51.48,0,0,0,10-.26,45.73,45.73,0,0,0,9.14-2.09,53.58,53.58,0,0,1,10-3,45.7,45.7,0,0,1,9.88-.45,55.71,55.71,0,0,0,8.15.55,31.5,31.5,0,0,0,8.2-1.85,26.49,26.49,0,0,0,7.3-4c2.13-1.74,4.75-4.06,6-6.08a23.77,23.77,0,0,0,1.38-2.46,22.27,22.27,0,0,0,.06-2.31A20.09,20.09,0,0,0,105,131.33Z"/><path class="cls-10" d="M106.68,139.54a20.51,20.51,0,0,0-1.57-7.9,24.85,24.85,0,0,1-6.83,11.29c-8.14,7.8-17.88,6.53-31.46,9.14-6.72,1.29-11.12,3.27-20.31,6.55-3.41,1.22-8.13,1.49-11.79,1.4A19.24,19.24,0,0,1,25,157.29a9.14,9.14,0,0,1-1.78-1.52,9.4,9.4,0,0,0,4.79,4,25.41,25.41,0,0,0,8.58,1.72,51.48,51.48,0,0,0,10-.26,45.73,45.73,0,0,0,9.14-2.09,53.58,53.58,0,0,1,10-3,45.7,45.7,0,0,1,9.88-.45,55.71,55.71,0,0,0,8.15.55,31.5,31.5,0,0,0,8.2-1.85,26.49,26.49,0,0,0,7.3-4c2.13-1.74,4.75-4.06,6-6.08a23.77,23.77,0,0,0,1.38-2.46A22.27,22.27,0,0,0,106.68,139.54Z"/><path class="cls-10" d="M99.63,125.16a10.17,10.17,0,0,0-6.48-1.68s-4.43,7.31-5.66,8.86a25.76,25.76,0,0,1-6,5.7l-.37.21a13.92,13.92,0,0,0,1.52-.47c2.77-1.05,4-2.77,5.71-5.21,1.46-2.14,4.27-6.1,8.45-6.71,2.89-.43,6.53,3,6.74,3.15A13.78,13.78,0,0,0,99.63,125.16Z"/><path class="cls-3" d="M91.41,104c-2.8-2.64-6.61-5.23-11.23-4.49-5.4.88-7.26,6.41-11.58,8.48,4.79-1.84,7.3-7.37,11.61-8.07,3.87-.63,8,1.7,10.79,4.32,1.29,1.21,4,3.24,4,3.24S92.69,105.22,91.41,104Z"/><path class="cls-3" d="M58.32,118c-7-3.11-13.52-1-17.3.15-.31.1-.49.13-.76.21l-.79-.17s1.06-.24,1.36-.33c4.51-1.43,13.24-4.69,22,2.45C62.81,120.31,59.58,118.56,58.32,118Z"/><path class="cls-3" d="M31,118.76l-.05-.25c6.81-1.34,13.12-.34,16.85,2.69a18.49,18.49,0,0,0-3.89-1.66A29.42,29.42,0,0,0,31,118.76Z"/><path class="cls-3" d="M92.69,123.46c-6,10.33-11,17.62-19.4,14.58-5.24-1.88-11.35-1.53-14.86-1.06-3.23.42-5.09.46-5.9.26A19.94,19.94,0,0,1,47,134.9c-2-1.2-4-2.33-6.58-2.44h-.07c-1.57-.05-3.42.72-5.38,1.54-2.55,1.07-5.39,2.27-8.24,1.9a4.17,4.17,0,0,1-1.47-.41,25.8,25.8,0,0,1-2.65-1.68c-.75-.52-1.43-1.11-2.23-1.57a6.06,6.06,0,0,0-5.88-.62c-1.59.61-3.32,1.16-4.42-.64-1.55-2.55-1.43-6.89.05-9.86A10,10,0,0,1,16.42,116a18.53,18.53,0,0,1,1.91-.39c4.4-.53,9.16,1.3,12.9,3.32,1.56.85,4.57,2.69,4.57,2.69-3.59-3.48-11.2-7.13-17.62-6.26-.37.06-1.27.22-1.78.37A10.31,10.31,0,0,0,9.9,121a11.6,11.6,0,0,0-.34,9.4,3.42,3.42,0,0,0,1.23,1.67,2.43,2.43,0,0,0,1.21.36,6.77,6.77,0,0,0,2.58-.56c1.88-.73,4.45,0,5.6.69.77.43,1.52.94,2.28,1.47a21.77,21.77,0,0,0,2.64,1.78,4.55,4.55,0,0,0,1.52.46c2.95.41,5.85-.93,8.45-2a13.67,13.67,0,0,1,5.32-1.38,13,13,0,0,1,6.48,2.26,19,19,0,0,0,5.92,2.54,10.17,10.17,0,0,0,3,.06c.84-.06,1.74-.16,2.72-.26,4.12-.45,9.24-1,14.7.82a12,12,0,0,0,3.32.64c6.75.28,12.06-6.54,17.29-15.58Z"/><path class="cls-3" d="M52.69,116.36l-.58-.15c2.59-2.56,8.08-4.52,13.37-3.71C60.31,112.19,55.21,113.85,52.69,116.36Z"/><path class="cls-3" d="M74.64,103a12.43,12.43,0,0,1-3.45-2.07c-1.93-1.74-3.79-3.49-6.69-3.42-3.86.08-4.49,4-5.27,6.68-.21.71-1,3.41-1.59,5a24.4,24.4,0,0,0,1.84-5c.78-2.62,1.61-6.2,5.09-6.3,2.31-.07,4.55,1.62,6.42,3.28a22.37,22.37,0,0,0,3.1,2.36C74.31,103.41,74.42,103.1,74.64,103Z"/><path class="cls-3" d="M48,116.29l-.77.12c1-1.19,1.43-8,5.46-9.19a8.11,8.11,0,0,1,5.5.74l-.14.37c-1.86-.91-3.93-1.38-5.27-.87C49,108.91,48.62,115.43,48,116.29Z"/><path class="cls-3" d="M102.47,127.35c-5.25-6.87-12.6-4.11-16.41-2.21C86.06,125.14,96,120.63,102.47,127.35Z"/><path class="cls-11" d="M44.47,154.81c.48-.21.93-.46,1.4-.7l0,0c-.52-.82-1.93-3.11-2.51-2.88-.91.34-.89,3.16-.5,4.26C43.38,155.24,43.93,155.05,44.47,154.81Z"/><path class="cls-16" d="M49.06,147.29s7.38-7,16.47-7.54a42,42,0,0,1,9.58.86l-1,.27a26.49,26.49,0,0,0-8.4-.89C57.09,140.71,49.06,147.29,49.06,147.29Z"/><path class="cls-3" d="M108.89,125.78c-.14-4.19-1.46-7.25-4.63-9.39S97.1,114,93,115.17a45.85,45.85,0,0,0-5.6,2.28,55.1,55.1,0,0,1,5.87-1.86c5.8-1.53,9.42.32,10.51,1.07,3,2.06,4.54,5.08,4.65,9.28.22,7.59-.49,13.76-2.39,16.94-5.1,8.51-16.87,14.39-26.23,13.12-11.41-1.55-17.41.58-22.7,2.47a41.8,41.8,0,0,1-7.68,2.18l-.9.14c-2.4.38-19.58,2.76-25-4.9a2.64,2.64,0,0,1-.42-2.41c.7-2.25,4.31-4.2,6.94-5.58,6-3.17,13.56-10.1,14.77-14.08l-.26-.07C43.39,137.62,36,144.51,30,147.64c-2.53,1.31-6.51,3.42-7.28,5.9a2.93,2.93,0,0,0,.45,2.65c2.26,3.2,6.9,4.93,13.45,5.42l1.42.08a54.58,54.58,0,0,0,10.51-.64l.95-.14a41.81,41.81,0,0,0,7.7-2.2c5.52-2,11.23-4,22.57-2.45a26.5,26.5,0,0,0,14.54-2.74,28,28,0,0,0,12-10.51C108.15,139.8,109.15,133.42,108.89,125.78Z"/><path class="cls-3" d="M25.36,127.08l.93-.65c1.7-1.2,5-2.4,6.8-1.17,0,0-.92-.24-1-.11.72.25,1.11,1.14-.47,1.76a8,8,0,0,1-5.18-.25Z"/><path class="cls-3" d="M28.41,123.37s3-1.58,4.73.5C31.22,122.41,28.41,123.37,28.41,123.37Z"/><path class="cls-2" d="M76.59,115.37c3.68,2.4,7.41.51,9.56-.38.5-4.29-1.15-8.35-4.7-10.5-1-.58-3.74,2.12-5.09,4.68S74.86,114.27,76.59,115.37Z"/><path class="cls-3" d="M77.26,115.66c2.92,1.88,6.74.22,8.89-.67.5-4.29-1.19-8.1-3.54-9.75-.92-.64-3.26,1.13-4.61,3.69S76,114.88,77.26,115.66Z"/><path class="cls-17" d="M77.52,115.52a8.29,8.29,0,0,0,8.5-.59c.49-4.24-1.1-7.78-3.42-9.41-.91-.63-3.19,1.08-4.42,3.41C76.74,111.66,76.31,114.75,77.52,115.52Z"/><path class="cls-18" d="M79.62,112.15a2.75,2.75,0,1,0,3.33-2A2.77,2.77,0,0,0,79.62,112.15Z"/><path class="cls-17" d="M79.9,111.87a.83.83,0,1,0,1-.61A.83.83,0,0,0,79.9,111.87Z"/><path class="cls-3" d="M90.18,113.69c-3,.26-5,2.63-7.66,3.06a8.35,8.35,0,0,1-6.72-1.91,10,10,0,0,0,6.36,1.4C85.28,116,86.71,113.52,90.18,113.69Z"/><path class="cls-3" d="M86.49,114.87a11.44,11.44,0,0,0-.62-5.32,8.9,8.9,0,0,0-5.66-5.65,10.75,10.75,0,0,1,5.19,5.69,8.7,8.7,0,0,1,.45,5.39Z"/><path class="cls-3" d="M58.18,109.66c0,2.71,1.06,3.82,2.06,2.12,1.86-3.13,2.89-7.61,2.1-9.81C62.34,102,58.22,106,58.18,109.66Z"/><path class="cls-17" d="M58.35,109.52c0,2.41,1.12,3.46,2.13,1.76,1.86-3.13,2.69-7,1.9-9.15C62.38,102.13,58.33,105.8,58.35,109.52Z"/><path class="cls-18" d="M59.66,108.47c-.62,1.2-.68,2.75-.15,3.31s2-1.33,2.6-3.75a1.78,1.78,0,0,0-.38-.71C61.2,106.76,60.28,107.28,59.66,108.47Z"/><path class="cls-17" d="M59.81,108.27a.88.88,0,0,0,0,1c.19.21.49.1.66-.23a.9.9,0,0,0,0-1C60.28,107.83,60,107.93,59.81,108.27Z"/><path class="cls-3" d="M59,112.91l-1.12.43c3.75-2.52,5.79-8.52,3.93-12.71C64,103.6,62.86,110.34,59,112.91Z"/><path class="cls-3" d="M82.09,137.45a5.77,5.77,0,0,1-1.64.76c-2.77,1.74-7.29,2.65-10.41,3.35-3.71.83-7.54,1.69-11.13,4-1.58,1-3.18,2.13-4.73,3.23-4.86,3.44-9.89,7-15.71,7.66-4.3.5-12-.71-12.77-3-.35-1.11,3.77-3.22,8.14-5.83,3.32-2,11-7.39,14.16-11.93l-.19-.18c-2.83,4-10.46,9.71-14.09,11.88-5.3,3.16-8.67,4.88-8.27,6.14.61,1.92,5.54,3.11,9.8,3.29a22.65,22.65,0,0,0,3.25-.09c5.89-.68,11-4.26,15.83-7.72,1.55-1.09,3.15-2.23,4.72-3.22,3.55-2.25,7.36-3.1,11-3.92,2.6-.59,8.81-1.38,12.71-4.15a16.56,16.56,0,0,0,5.62-6.54S85.32,135.45,82.09,137.45Z"/><path class="cls-11" d="M27.85,150.48c-.42-1-.46-4,.47-4.33.58-.22,2,2.06,2.51,2.89C31.63,150.31,28.38,151.81,27.85,150.48Z"/><path class="cls-3" d="M97.35,151.64s9-10.6-1.16-23.09C106.68,140.71,98,151.23,98,151.23Z"/><path class="cls-3" d="M85.67,156s8.35-6.9,2.76-17.79C94.68,149.15,86.15,156,86.15,156Z"/><path class="cls-3" d="M74.7,155.63s6-4.15,1.29-13.44c5.05,8.69-.72,13.4-.72,13.4Z"/><path class="cls-3" d="M63,156.75a10.16,10.16,0,0,0-.29-10.84c3.78,4.4.84,10.65.84,10.65Z"/><path class="cls-3" d="M49.49,160.77s3.76-2.47.81-7.55c3.32,5.05-.39,7.44-.39,7.44Z"/><path class="cls-2" d="M161.38,181.07s0,3.41-2,5.33a8.39,8.39,0,0,1-5.74,2.84,13.21,13.21,0,0,1-3.45,2.48c-1.78.77-4.43,2-6.53,1.38a18.84,18.84,0,0,0,6.1-2.08c2.37-1.33,3.5-2.91,4.4-3.34S158.08,186.29,161.38,181.07Z"/><path class="cls-3" d="M140.69,143s2.83-1,4.2-1.34c9.86-2.54,16.72-2.79,22.3-.81,6.24,2.22,8.57,5.26,9.23,10.87,1.24,10.57-8.11,27.31-15.39,31.34l.1-.46c7.21-4,16.27-20.37,15-30.86-.65-5.5-3.54-8.71-9.06-10.65C160.87,138.92,153.3,139.46,140.69,143Z"/><path class="cls-3" d="M140.21,176c7.24-15.86,17.74-24.41,17.74-24.41s-10.58,7.68-18.26,24.48Z"/><path class="cls-3" d="M176.16,160.61c14.58,0,21.53-12.87,21.59-13l-.22-.12c-.07.13-7.23,13.07-22,12.73v.39Z"/><path class="cls-3" d="M117.26,70.73a175,175,0,0,0,23.93-3.94c13.53-3.4,29.54-7,45.68-7.56,15.82-.58,29.76,1.74,42.5,7.09A33.81,33.81,0,0,1,232.88,68c8.89,5.19,12.1,14.6,12.77,16.63a34,34,0,0,1,.61,18.59c-4.9,20.73-28.56,29.28-30.84,30.07v-.41a40.44,40.44,0,0,0,23.16-14.24c8.13-10.42,10-24.13,6.83-33.94a33.21,33.21,0,0,0-7.48-12.5,27.65,27.65,0,0,0-5.2-4,27.34,27.34,0,0,0-3.46-1.61c-29.69-12.47-60.93-6.33-88,.48a154.77,154.77,0,0,1-24,3.93.26.26,0,0,0-.13.48c7.14,4.21,18.55,4.62,31.67,5.08,9.91.34,42.25-.09,64.77,19.12l-.38.1c-20.43-16.49-43.75-18.24-64.4-19-13.2-.46-24.67-.87-31.87-5.14C116.33,71.28,116.55,70.8,117.26,70.73Z"/><path class="cls-3" d="M111.38,103.76a138.28,138.28,0,0,1,17.45-7.67c12-4,38.87-6.09,64.79-1,0,0,16.43,3.26,25.91-1.61a18.79,18.79,0,0,0,6.87-6.07,15.59,15.59,0,0,0,1.66-3.8c2.38-8.32-2.06-17.7-7.45-20.22l.1-.23a18.92,18.92,0,0,1,6.76,8.05c.28.65,3.74,9-.88,16.37a17.63,17.63,0,0,1-7,6.13c-1.13.61-5.11,2.65-14,2.74a58.17,58.17,0,0,1-12.06-1.11C180,92.5,147,90.32,128.91,96.33A137.65,137.65,0,0,0,111.49,104c-1.93,1-3.91,1.94-5.89,2.88a2.88,2.88,0,0,0-.4-.09C107.28,105.79,109.36,104.76,111.38,103.76Z"/><path class="cls-3" d="M139.88,169.51a12.87,12.87,0,0,0,3.77-.52l.28-.63c-4.13,1.27-10.07.3-13.32-1.49a7.9,7.9,0,0,1-3.21-3.15c.26,1.18,1.33,2.34,3.08,3.36A20,20,0,0,0,139.88,169.51Z"/><path class="cls-3" d="M146,141.53l.66-.16a14.08,14.08,0,0,0-10.3-.94C142.58,139.27,145.71,141.47,146,141.53Z"/><path class="cls-3" d="M153.45,189.45c2.33-.15,7.93-1.9,7.93-8.38,0,0-.11,6.64-7.66,8Z"/><path class="cls-3" d="M147.52,185.26c-1.76,1.23-3.66,4.94-4.3,6.87-.22.7.5,1.27,2.47,1,4.8-.73,8.57-4.52,8.57-4.52-1.64,2.5-5.9,4.39-8.54,4.71-2.41.28-3-.24-2.69-1.29C143.66,190.13,145.23,186.46,147.52,185.26Z"/><path class="cls-3" d="M136,190.27c.83-1.94,3-6.57,6.5-7.36-3,1-5.46,5.5-6.3,7.52-.3.73.46,1.4,2.65,1.22a16.16,16.16,0,0,0,5-1.33.9.9,0,0,0-.12.3s0,0,0,.07a16.17,16.17,0,0,1-4.91,1.16C136.14,192,135.48,191.37,136,190.27Z"/><path class="cls-3" d="M129.52,188c.91-1.86,4.81-7.25,8.24-7.71-3,.74-6.93,5.89-8,7.75-.66,1.14,3.59,1.61,7.33.24a1.61,1.61,0,0,0-.15.36C132.66,189.87,128.84,189.34,129.52,188Z"/><path class="cls-3" d="M126.23,184.17a16.14,16.14,0,0,1,6.48-6.06,18.69,18.69,0,0,1,10.73-2.18,20.24,20.24,0,0,0-10.63,2.41,17.33,17.33,0,0,0-6.36,5.9c-.6.8,1.82,1.54,4.72,1.52a.67.67,0,0,0-.24.23C127.84,185.94,125.56,185.13,126.23,184.17Z"/><path class="cls-3" d="M126.59,159.09s-1.43-9.83,4.92-13.14C131.51,146,124.63,148.19,126.59,159.09Z"/><path class="cls-3" d="M195.09,119.51c2.45-2.54,7-3.56,11-2.52,8.08,2.08,8.9,9.4,9.24,14,.06.78.12,1.49.2,2.11a1.18,1.18,0,0,0,.56.85l1.67,1c4.76,2.85,12.23,8.14,13.8,14.12.63,2.41.77,4.74-.6,6.92-1.81,2.92-5.52,5.94-8.51,7.78a23.65,23.65,0,0,0-2.77,2,14.24,14.24,0,0,1-7,3.06c-2.41.29-3-.24-2.68-1.3.63-1.86,2.19-5.53,4.48-6.73-1.76,1.23-3.66,4.93-4.29,6.87-.23.7.49,1.27,2.46,1a14,14,0,0,0,6.83-3.06,21.51,21.51,0,0,1,2.8-2c3.12-2.08,6.93-5.24,8.47-7.7,1.33-2.13,1.18-4.39.56-6.73-1.55-5.92-9-11.19-13.74-14-.62-.37-1.19-.67-1.68-1a1,1,0,0,1-.58-.76c-.1-.68-.16-1.47-.23-2.36-.34-4.5-1-11.76-9.07-13.82-4.2-1.08-8.4,0-10.79,2.52-5.16,5.35-3.17,17-2.44,20.45,1.18,5.54,6,8.44,10.57,10.65a30.66,30.66,0,0,0,13.18,2.64,24.46,24.46,0,0,1-2.52.13,24.72,24.72,0,0,1-10.8-2.56c-4.6-2.18-9.47-5.16-10.67-10.8C191.85,136.71,189.84,124.94,195.09,119.51Z"/><path class="cls-3" d="M204.06,165.93c.68-2,2.36-6,4.83-7.25-1.89,1.32-3.95,5.31-4.63,7.4-.24.75.53,1.37,2.66,1a14.17,14.17,0,0,0,3.83-1.2l-.09.23a.09.09,0,0,0,0,.11,14.51,14.51,0,0,1-3.73,1.06C204.35,167.64,203.67,167.07,204.06,165.93Z"/><path class="cls-3" d="M199.78,163.67c.77-1.89,2.63-5.58,5.08-6.68-1.9,1.16-4.11,4.87-4.89,6.84-.28.7.43,1.34,2.49,1.16a13,13,0,0,0,2.27-.43.73.73,0,0,0-.1.28,11.59,11.59,0,0,1-2.15.34C200,165.32,199.34,164.74,199.78,163.67Z"/><path class="cls-3" d="M197.19,160.93c.74-1.8,4.39-7.08,9-8.81l.2.09.12,0c-4.66,1.74-8.42,6.95-9.17,8.84-.28.7.43,1.34,2.49,1.16.22,0,.44-.05.65-.09a2.09,2.09,0,0,0-.08.23,5.35,5.35,0,0,1-.55.05C197.37,162.59,196.75,162,197.19,160.93Z"/><path class="cls-3" d="M144.4,190.56c1.89.11,2.54,2.22,1.31,2.64a7.5,7.5,0,0,1-2.67.45C142.37,193.65,142.94,190.47,144.4,190.56Z"/><path class="cls-3" d="M211.16,166.4c1.75,0,2.4,2,1.28,2.4a7.34,7.34,0,0,1-2.45.5C209.36,169.32,209.8,166.36,211.16,166.4Z"/><path class="cls-3" d="M205.18,165c1.75.05,2.4,2,1.29,2.4a6.85,6.85,0,0,1-2.46.5C203.39,167.87,203.83,164.91,205.18,165Z"/><path class="cls-3" d="M200.94,162.69c1.75.12,2.32,2.08,1.18,2.45a6.85,6.85,0,0,1-2.47.39C199,165.53,199.59,162.59,200.94,162.69Z"/><path class="cls-3" d="M198.17,160c1.68.2,2.14,2.12,1,2.42a6.76,6.76,0,0,1-2.4.26C196.19,162.63,196.88,159.83,198.17,160Z"/><path class="cls-3" d="M137.29,189c2,.12,2.63,2.3,1.36,2.74a7.75,7.75,0,0,1-2.76.47C135.19,192.16,135.78,188.86,137.29,189Z"/><path class="cls-3" d="M131.27,186.52c1.84.43,2.11,2.6.84,2.81a7.69,7.69,0,0,1-2.69,0C128.76,189.21,129.85,186.19,131.27,186.52Z"/><path class="cls-3" d="M127.88,182.94c1.58.65,1.23,2.75.05,2.75a6.84,6.84,0,0,1-2.42-.4C124.94,185.1,126.65,182.44,127.88,182.94Z"/><path class="cls-4" d="M124.43,97.26c-1.55-1.25-2-2.78-2.43-3-.86-.53-3.79,4.26-4.73,6.41C116.48,102.45,125.56,98.17,124.43,97.26Z"/><path class="cls-5" d="M121.35,99.84h0c-1.7.83-3.7,1.55-4.09,1.17-.1-.08-.1-.22,0-.39.84-1.91,3.19-5.84,4.36-6.41a.42.42,0,0,1,.43,0,2.36,2.36,0,0,1,.56.75,8.27,8.27,0,0,0,1.88,2.3.3.3,0,0,1,.11.26C124.5,98.09,122.79,99.13,121.35,99.84Zm.28-5.56c-1.13.56-3.51,4.52-4.32,6.37q-.09.21,0,.3c.31.29,2-.22,4-1.19s3.12-1.82,3.17-2.28a.19.19,0,0,0-.07-.18A8.34,8.34,0,0,1,122.5,95a2.37,2.37,0,0,0-.52-.71A.34.34,0,0,0,121.63,94.28Z"/><path class="cls-4" d="M146.42,92.85c-1.4-1.68-1.58-3.42-2-3.79-.81-.75-5,3.81-6.44,5.94C136.76,96.79,147.45,94.07,146.42,92.85Z"/><path class="cls-5" d="M142.56,95h0c-2,.55-4.32.91-4.67.42-.08-.12-.06-.26.06-.44,1.3-1.88,4.66-5.63,6-6a.46.46,0,0,1,.47.06,2.76,2.76,0,0,1,.45.92,9,9,0,0,0,1.55,2.88.29.29,0,0,1,.06.31C146.33,93.76,144.26,94.52,142.56,95ZM144,89.05c-1.34.36-4.73,4.15-6,6-.09.14-.12.24-.06.32.27.38,2.23.19,4.56-.45s3.75-1.32,3.9-1.8a.22.22,0,0,0,0-.22A9,9,0,0,1,144.82,90a2.86,2.86,0,0,0-.42-.88A.39.39,0,0,0,144,89.05Z"/><path class="cls-4" d="M169,91.79c-1-2.05-.78-3.87-1.11-4.35-.65-1-6,2.68-8,4.5C158.19,93.47,169.77,93.28,169,91.79Z"/><path class="cls-5" d="M164.56,93h0c-2.18.07-4.63-.13-4.87-.71-.05-.14,0-.28.17-.43,1.78-1.61,6.13-4.62,7.62-4.67a.49.49,0,0,1,.47.18,2.66,2.66,0,0,1,.23,1,9.59,9.59,0,0,0,.89,3.32.35.35,0,0,1,0,.33C168.7,92.69,166.41,93,164.56,93Zm2.93-5.71c-1.45,0-5.84,3.08-7.57,4.64-.13.12-.18.23-.14.32.18.45,2.23.73,4.77.65,2.38-.08,4.15-.44,4.42-.89a.23.23,0,0,0,0-.24,9.55,9.55,0,0,1-.9-3.35,2.85,2.85,0,0,0-.21-1A.41.41,0,0,0,167.49,87.33Z"/><path class="cls-4" d="M187.06,94.13c-.83-2.08-.44-3.83-.72-4.32-.55-1-6.06,2.11-8.16,3.71C176.41,94.86,187.66,95.64,187.06,94.13Z"/><path class="cls-5" d="M182.62,95h0c-2.12-.11-4.48-.5-4.67-1.09,0-.14,0-.27.2-.4,1.87-1.42,6.33-4,7.79-3.91a.48.48,0,0,1,.44.21,2.75,2.75,0,0,1,.14,1,9.35,9.35,0,0,0,.58,3.29.31.31,0,0,1,0,.32C186.68,95,184.43,95.06,182.62,95Zm3.32-5.3c-1.41-.08-5.92,2.51-7.73,3.88-.14.11-.19.21-.16.3.14.45,2.1.89,4.57,1,2.32.12,4.07-.08,4.37-.5a.22.22,0,0,0,0-.22,9.45,9.45,0,0,1-.6-3.33,2.58,2.58,0,0,0-.12-1A.38.38,0,0,0,185.94,89.67Z"/><path class="cls-4" d="M204,97.09h0c-1.77-.18-3.72-.63-3.83-1.18,0-.13,0-.24.19-.36,1.66-1.21,5.58-3.36,6.8-3.23a.39.39,0,0,1,.35.21,2.4,2.4,0,0,1,0,1,9.29,9.29,0,0,0,.26,3,.3.3,0,0,1-.05.29C207.39,97.27,205.51,97.25,204,97.09Z"/><path class="cls-4" d="M223.19,91.71c-1.28-1.47-1.56-3-1.93-3.38-.72-.65-3.73,3.68-4.75,5.68C215.66,95.69,224.12,92.78,223.19,91.71Z"/><path class="cls-4" d="M229.65,78.39a20.21,20.21,0,0,1-3.22-1.06c-.79,0,.71,4.24,1.58,6C228.75,84.82,230.82,78.56,229.65,78.39Z"/><path class="cls-4" d="M222.53,64.11a.25.25,0,0,1,.05-.2,6,6,0,0,0,.82-1.61,1.93,1.93,0,0,1,.24-.53q.08-.06.18.06c.46.53,1.33,3.72,1.63,5.25a.4.4,0,0,1,0,.3c-.17.26-1-.45-1.64-1.22h0A5,5,0,0,1,222.53,64.11Z"/><path class="cls-4" d="M235.08,70a.32.32,0,0,1,.1-.18,5.92,5.92,0,0,0,1.29-1.46,2,2,0,0,1,.39-.47c.07,0,.13,0,.2.08.42.6.75,3.9.76,5.45a.4.4,0,0,1-.08.3c-.25.22-1-.61-1.64-1.49h0A4.64,4.64,0,0,1,235.08,70Z"/><path class="cls-3" d="M74.77,158.69c5,1.44,21.29,3.86,30.83-5.21-9.66,10.33-27.37,6.45-29.85,5.65C75.84,159.13,74.69,158.71,74.77,158.69Z"/><path class="cls-3" d="M88.52,164.57s11,6.1,25.84-1.9c-14.66,8.44-24.52,2.58-24.52,2.58Z"/><path class="cls-3" d="M182.22,159s3.65,0,5.34-4.46c-1.38,4.57-4.49,4.46-4.49,4.46Z"/><path class="cls-9" d="M70.7,107.41l5.89-5.07s4.67-4.43,11.5,0c0,0-7.6-3-11.27.46Z"/><path class="cls-9" d="M72.25,102.58s-5.64-5.67-8.88-4.19c0,0-2.27.53-3.33,4.68,0,0,2.3-4.76,3.67-4.25C63.71,98.82,66,98,72.25,102.58Z"/><path class="cls-9" d="M9.84,129.16s-2.69-7.82,4.66-11.91c0,0,4.86-3.16,13.56.67C28.06,117.92,8.7,111.25,9.84,129.16Z"/><path class="cls-9" d="M211.55,120.24s3.75,8.66,2.41,13.68c0,0,12.73,7.69,17,13.78,0,0-5.67-9.54-15.76-14C215.25,133.71,215.14,123.8,211.55,120.24Z"/><path class="cls-9" d="M148.82,141s16.54-4.5,24.64,4.1c0,0,7.22,7.13-1.73,24.71,0,0,8.12-21.09-1.27-26.06C170.46,143.75,165.91,139.53,148.82,141Z"/></svg>