<svg id="Layer_1" data-name="Layer 1" xmlns="http://www.w3.org/2000/svg" viewBox="0 0 290 256"><defs><style>.cls-1{opacity:0.3;}.cls-2{fill:#edece6;}.cls-3{fill:#d1cbb4;}.cls-4{fill:#967c5f;}.cls-5{fill:#63503d;}.cls-6{fill:#201e25;}.cls-7{fill:#c1b99f;}.cls-8{fill:#d39788;}.cls-9{fill:#bf7c6f;}.cls-10{fill:#f3c1a7;}.cls-11{fill:#e0dbca;}.cls-12{fill:#2c2b30;}.cls-13{fill:#7a5f43;}.cls-14{opacity:0.2;}.cls-15{fill:#aa865b;}.cls-16{fill:#d8b993;}.cls-17{fill:#c1b19a;}.cls-18{fill:#3d3b42;}.cls-19{fill:#c17e67;}.cls-20{fill:#271c27;}.cls-21{fill:#48474c;}.cls-22{fill:#fff;}.cls-23{fill:#b5b5b5;}.cls-24{fill:#0f0f11;}.cls-25{fill:#f7f7f7;}</style></defs><ellipse class="cls-1" cx="168.43" cy="218.16" rx="106.25" ry="12.01"/><path class="cls-2" d="M225.89,149.08c2,6.12,8.17,10.71,8.3,12.86s-.88,16.42-1.73,22.66-.82,13.38,0,16.44.59,6.09-.84,6.06-2.89,1.55-2.93,3.33,1.47,6.47.36,8.06-12.91,2.22-16.07-.34-3-1.56-1.88-4.27a29.62,29.62,0,0,1,4.58-7.77,29.43,29.43,0,0,0,6.11-12.86,37.48,37.48,0,0,0-1.05-18c-1.56-5.16-10-20.83-12.8-25.89"/><path class="cls-3" d="M221.39,147.23c0,4.84,4.44,12.75,7.47,16.38s2.5,12.45,1.37,17.19-2.45,22.35-2.5,24.73a7.55,7.55,0,0,0,1,4.38,3.26,3.26,0,0,1,2.87-2.81c1.43,0,1.67-3,.84-6.06s-.86-10.2,0-16.44,1.87-20.51,1.73-22.66-6.28-6.74-8.3-12.86"/><path class="cls-3" d="M215.69,206.11a29.62,29.62,0,0,0-4.58,7.77c-.75,1.8-1.06,2-.26,2.62l3.57-1.94a47.07,47.07,0,0,1,3.84-9c1.5-2.65,2.54-6.92,3.24-11A29.37,29.37,0,0,1,215.69,206.11Z"/><path class="cls-3" d="M217.45,167.58a62.53,62.53,0,0,1,3.3,7.66,40,40,0,0,1,1.7,11.83h0c.48-5.24,1.48-13,.08-14.3S217.46,167.58,217.45,167.58Z"/><path class="cls-4" d="M214.07,208.31a28.06,28.06,0,0,0-3,5.57c-1.13,2.71-1.28,1.69,1.88,4.27s15,1.92,16.07.34c.62-.88.43-2.71.14-4.47l-4.69-.1C219.83,213.82,215.94,210.33,214.07,208.31Z"/><path class="cls-5" d="M220.84,216c-5.35-.5-8.05-2-9.34-3l-.39.93c-1.13,2.71-1.28,1.69,1.88,4.27s15,1.92,16.07.34a3.56,3.56,0,0,0,.4-2.08C227.25,216.39,224.36,216.28,220.84,216Z"/><path class="cls-6" d="M234.19,161.94c-.09-1.61-3.59-4.61-6.18-8.59l-8.09-2.25-5,4c3.57,1.08,6.6,3.69,9.08,5.56a11,11,0,0,0,7.08,2.07h3.18C234.21,162.41,234.21,162.13,234.19,161.94Z"/><path class="cls-3" d="M215.69,206.11a29.62,29.62,0,0,0-4.58,7.77c-.75,1.8-1.06,2-.26,2.62l3.57-1.94a47.07,47.07,0,0,1,3.84-9c1.5-2.65,2.54-6.92,3.24-11A29.37,29.37,0,0,1,215.69,206.11Z"/><path class="cls-3" d="M217.45,167.58a62.53,62.53,0,0,1,3.3,7.66,40,40,0,0,1,1.7,11.83h0c.48-5.24,1.48-13,.08-14.3S217.46,167.58,217.45,167.58Z"/><path class="cls-4" d="M214.07,208.31a28.06,28.06,0,0,0-3,5.57c-1.13,2.71-1.28,1.69,1.88,4.27s15,1.92,16.07.34c.62-.88.43-2.71.14-4.47l-4.69-.1C219.83,213.82,215.94,210.33,214.07,208.31Z"/><path class="cls-5" d="M220.84,216c-5.35-.5-8.05-2-9.34-3l-.39.93c-1.13,2.71-1.28,1.69,1.88,4.27s15,1.92,16.07.34a3.56,3.56,0,0,0,.4-2.08C227.25,216.39,224.36,216.28,220.84,216Z"/><path class="cls-2" d="M99.89,146.21a113.78,113.78,0,0,0,.89,13.76c.89,6.07-.72,10-1.43,12.86s-2.15,14.3-.89,18,4.1,15.54,2.85,17-2.68.17-2.68,2.67.36,7.95-.17,8.35-9.47,1.74-14.3,0-2.14-3.52-.36-9.06,5.19-9.65,5.54-16.26S88.63,183,88.27,182s-3.39-4.83-3.75-9.48S81.62,162.12,80.9,158s-7.05-10-7.05-10"/><path class="cls-7" d="M83.8,209.82c-.71,2.22-1.57,3.83-2,5.09l1.33.05s1.63-4.07,2.68-7.5,6.07-10.5,6.07-13.94-1.43-11.93-2.5-13.9a50.46,50.46,0,0,1-3.93-7.38,42.62,42.62,0,0,1-2.77-7.87c.31,2.52,1.7,5.78,1.88,8.1.36,4.65,3.39,8.4,3.75,9.48s1.43,5,1.07,11.61S85.59,204.28,83.8,209.82Z"/><path class="cls-3" d="M75.92,150.68s5.44,1.1,5.31,1.8c.21.53-1.88-.5-1.62.38C79.3,150.93,75.92,150.68,75.92,150.68Z"/><path class="cls-7" d="M95.24,149.42s1,15.32,0,21.45,0,6.79,0,13.22,2.5,18.58,2,20.55c-.46,1.7-.31,4.19,1.49,5.19.27-1.54,1.52-.71,2.62-2,1.25-1.44-1.6-13.23-2.85-17s.17-15.18.89-18,2.32-6.79,1.43-12.86c-.41-2.76-.63-5.85-.75-8.4l-4.79-2.15"/><path class="cls-4" d="M90.06,213.39a20.26,20.26,0,0,1-6.38-3.22c-1.78,5.26-4.24,7,.48,8.71s13.76.41,14.3,0c.35-.27.31-2.74.25-5.1A22.1,22.1,0,0,1,90.06,213.39Z"/><path class="cls-5" d="M98.75,216.69c-1.82,0-4.6,0-8.66-.08a12.21,12.21,0,0,1-7.83-2.9c-1.16,2.65-1.55,3.93,1.9,5.17,4.83,1.74,13.76.41,14.3,0A4.73,4.73,0,0,0,98.75,216.69Z"/><path class="cls-7" d="M100.78,160a111,111,0,0,1-.89-13.46l-.53-.26L73.85,148s6.34,5.9,7.05,10c.06.31.12.62.2.94,0,0,12.91,9.09,19.19,6.67a6.16,6.16,0,0,0,.68-.34A23.83,23.83,0,0,0,100.78,160Z"/><path class="cls-8" d="M201.61,151.69s2,8.75,2,10.66,1.65,3,3.34.66a12.88,12.88,0,0,0,2-5.37Z"/><path class="cls-9" d="M215.46,153.92s2,8.76,2,10.66,1.65,3,3.34.66a12.81,12.81,0,0,0,2-5.36Z"/><path class="cls-8" d="M193,141.81s2.62,9.24,5.24,11.05,7.26,2.94,7.86,4.16,2.5,8.26,3.81,8.49,2.65-.71,3.47-3.09,1.66-5.48,4.51-4.41,3.06,4.76,3.21,7,1.68,4.4,3.46,4.16,1.55-6.31,2.27-8.45,6.63-3.08,8.61-5.23-1.58-15.05-10.76-19.75S190.68,131.8,193,141.81Z"/><path class="cls-10" d="M228.72,150.68c-3.62-6.72-16.45-10.81-21.09-9.31-3.25,1-7.85,5.67-10.78,10a5.26,5.26,0,0,0,1.34,1.52c2.62,1.81,7.26,2.94,7.86,4.16s2.5,8.26,3.81,8.49,2.65-.71,3.47-3.09,1.66-5.48,4.51-4.41,3.06,4.76,3.21,7,1.68,4.4,3.46,4.16,1.55-6.31,2.27-8.45c.45-1.35,2.94-2.22,5.23-3.2C231.25,155.74,230.18,153.42,228.72,150.68Z"/><path class="cls-2" d="M64.24,42.58s4.64,12.87,20.37,15.54,28.23,5.72,40.56,5.19a166.18,166.18,0,0,1,31.9,2.32c4.55.89,26-.54,32.06-2.5s21.44-6.61,36.46-3.75,24.3,14.47,28.23,22.87,4.82,28.05,2,38.06-6.43,28.23-4.29,34.3,8.4,10.54,8.58,12.69-.53,16.44-1.25,22.69-.54,13.4.36,16.44.71,6.07-.72,6.07-2.85,1.61-2.85,3.4,1.6,6.43.53,8-12.86,2.5-16.08,0-3-1.49-2-4.23a29.77,29.77,0,0,1,4.41-7.86,29.18,29.18,0,0,0,5.84-13,37.5,37.5,0,0,0-1.43-18c-1.67-5.11-10.48-20.6-13.34-25.6s-6.32-12-8.22-13.1l-1.91-1.08s-5.72-7.2-12.33-4.34S191.46,148,182.7,150s-25.9,2.68-32.16,1.43a71.53,71.53,0,0,0-24.66.18c-8,1.6-12.51,1.25-12.51,1.25a112.53,112.53,0,0,0,.9,13.76c.89,6.07-.72,10-1.43,12.86s-2.15,14.3-.9,18,4.11,15.55,2.86,17-2.68.17-2.68,2.68.36,7.94-.18,8.35-9.47,1.74-14.29,0-2.14-3.52-.36-9.06,5.18-9.65,5.54-16.26-.71-10.54-1.07-11.62-3.4-4.82-3.75-9.47-1.07-10.36-1.79-14.47a25.76,25.76,0,0,0-2-6.61s-17.33-5.18-21.44-7.15-6.61-4.64-10.72-8.75-9.29-6.62-12.15-13.76S46,113,45.65,107.44s3.76-60,6.26-61.64S60.85,36.89,64.24,42.58Z"/><path class="cls-8" d="M231,152.29l-1.51.57c-1.52.57-8,5.06-14,4.16a21,21,0,0,1-8.24-3.46c.18.13.63.66.85.81,2.59,1.78,3.11,3.73,4.35,7.21a7.65,7.65,0,0,1,.41,1.93,7.93,7.93,0,0,0,.47-1.09c.82-2.38,1.66-5.48,4.51-4.41s3.06,4.76,3.21,7a3.94,3.94,0,0,0,.06.58,17.51,17.51,0,0,1,2.07-6.36C224.34,157.47,231,152.29,231,152.29Z"/><path class="cls-3" d="M97.29,216.44c-.71,2.21-1.57,3.83-2,5.08.79,0,1.32.06,1.32.06s1.63-4.07,2.68-7.5,6.07-10.51,6.07-13.94-1.43-11.94-2.5-13.9a50.12,50.12,0,0,1-3.93-7.39,59,59,0,0,1-1.65-7.21c.31,2.53.58,5.13.76,7.45.35,4.65,3.39,8.4,3.75,9.47s1.43,5,1.07,11.62S99.08,210.9,97.29,216.44Z"/><path class="cls-3" d="M94.92,158l-.2,1.09c.2.53.46,1.24.72,2.12C95.12,159.29,94.92,158,94.92,158Z"/><path class="cls-4" d="M278.72,144.32s0,.19.08.54a13.91,13.91,0,0,1-1.28,8c-2.14,4.2-5.24,5.39-4.4,9.08s2,3.34,2,4.65a4.56,4.56,0,0,1-3,3.69c-1.78.71-2.26,0-2.26,0a3,3,0,0,0,3.69.83c2.5-1,4.77-6.19,4.77-6.19s-.6,5.9-2.5,8.37L274,175.76s4.29-2.39,6.32-6a10.06,10.06,0,0,1-4,6.67l-3.58,2.38a12.74,12.74,0,0,0,8.22-3.45c3.45-3.46,3.93-4.65,3.93-4.65a10.48,10.48,0,0,1-.83,3.58l-.72,1.3s5.72-4.4,6.49-10.12,0-14.68-4.23-20.61c0,0-5.39-3.09-5.55-3.09"/><path class="cls-3" d="M252.39,117.45s2,11.79,10.9,17,12.42,6,13.58,8.31,1.43,7.15,1.43,7.15,1.34-3.13,1.25-4.47l-.09-1.34a54.22,54.22,0,0,1,2,5.18c.79,2.59,2,6.17,3.21,7l1.25.8a18.72,18.72,0,0,1-2.41-6.87l-.45-3.76s1.07,3.67,3.4,5.45,2.86,1.88,2.86,1.88a22,22,0,0,1-4.11-6.7L284,143.53s2,3.94,3,4.74,2.68,1.88,2.68,1.88-2.41-3.49-4.11-6.52-5-5.81-10-7.24-11.61-3.31-14.47-7.73-3.67-12.55-4.38-16.75l-.72-4.2Z"/><path class="cls-3" d="M108.73,177.49c-1,6.13,0,6.78,0,13.21s2.5,18.59,2,20.56c-.46,1.69-.31,4.18,1.49,5.18.27-1.53,1.52-.7,2.62-2,1.25-1.43-1.6-13.22-2.86-17s.18-15.18.9-18,2.32-6.79,1.43-12.86c-.41-2.76-.63-5.85-.75-8.41l-4.79-2.13S109.75,171.35,108.73,177.49Z"/><path class="cls-11" d="M113.42,155.52h0c0-1.64,0-2.69,0-2.69s4.47.35,12.51-1.25a71.53,71.53,0,0,1,24.66-.18c6.26,1.25,23.41.53,32.16-1.43s21.8-10.36,28.41-13.22,12.33,4.34,12.33,4.34l1.91,1.08a10.13,10.13,0,0,1,2.51,3l0,0c-5.72-10.09-15.83-17.9-25.84-16.51s-50.75,11.12-62.9,9.32-50,4-73.27-6.77c-10.46-4.84-16.32-11.76-19.6-17.91a64.22,64.22,0,0,0,3.71,15c2.86,7.14,8,9.65,12.15,13.76s6.61,6.78,10.72,8.75S94.25,158,94.25,158L93,151.58Z"/><path class="cls-6" d="M225.59,59.38a55.07,55.07,0,0,0-12.26-.87c3.19,4.63,8.36,9.32,11.18,10.87,3.58,2,12.51,5.19,13.05,9.47s-2,10.19,0,13,7.15,2.15,6.79,8-5,7.32-7.33,12.51-6.25,17.86-.53,23.94,7.32,4.82,6.79,11.61,5.36,12.51,9.64,12.69a12.91,12.91,0,0,0,2.08-.09,21.51,21.51,0,0,1-3.51-6c-2.14-6.07,1.43-24.3,4.29-34.3s2-29.66-2-38.06S240.6,62.23,225.59,59.38Z"/><path class="cls-6" d="M222.61,79.8c-3.34-4.1-14.06-10.06-20.73-10.06-4.29,0-7.7-3.91-10.92-7.19l-1.83.58c-5,1.64-20.73,2.9-28.48,2.76-2.13,3.61-11.42,6-20.71,5s-12.63-3.1-17.87-1.19-11.44-.95-12.87-5.24a14.63,14.63,0,0,0-1-2.27c-4.82-.69-9.84-1.63-15.23-2.61,0,.52,0,1.05,0,1.54,0,2.86.72,4.77-3.81,5.48s-7.62-2.2-10.24.48-6.2-1.91-12.63-3.1-12.91.16-15.72,5.24a54.42,54.42,0,0,0-3,7.22c-.79,9-1.43,18.06-1.75,24.11,3.12,2.7,7.74,5.71,8,9,.36,3.94,0,7.51,4.29,7.51s5.54-4.29,9.11-2.86,8.4,8,8.4,11.61-.71,5.72,2.15,5.72,3-3.21,4.28-1.78S83.71,135,86.93,136s2,6.67,2,9.14,2.85,8.37,6.61,10,8.57,4.82,8.22,7.68-2.51,7.33,1.07,10.19,7,4.29,5.18,7.68-5,4.29-5,7.33,2.32,5.54.89,8.21a8.65,8.65,0,0,1-3,2.79c0,.37,0,.75,0,1.15A20.11,20.11,0,0,1,102,205c2.54,1.26,6.61,1.69,8.48,0a18.53,18.53,0,0,0,2.69-3.19c-.44-1.77-.89-3.32-1.22-4.32-1.25-3.74.18-15.18.9-18s2.32-6.79,1.43-12.86a102.54,102.54,0,0,1-.85-11.06h0c0-1.64,0-2.69,0-2.69h0c.11-2.9.79-6.5,4.12-7.66,4.53-1.58,6.44-10.63,6.2-14.2s5.48-2.86,9.77-7.39.23-8.57-4.53-9-6.91-7.39-4-8.82,5.95-5.24,6.91-10,16-5.72,16.44,0,3,9.53,4.59,11,3.74,7.57,1.12,12.48-7,8-1.12,12.77,8.27,7.92,8.75,13.25c.25,2.86,2.31,5.35,5.76,6.63A102.06,102.06,0,0,0,182.7,150a37.78,37.78,0,0,0,5.86-1.94c3.16-2.46,4.27-5.92,4.27-11.34,0-9.06.48-17.45,7.62-17.54s11.94-2.48,12.88-6.29-6.92-7.39-2.87-8.81,5.72,2.62,8.81-1.67S225.94,83.9,222.61,79.8Z"/><path class="cls-4" d="M103.55,220a20.26,20.26,0,0,1-6.38-3.22c-1.78,5.26-4.24,7,.48,8.71s13.76.41,14.29,0c.36-.27.32-2.73.26-5.1A22.09,22.09,0,0,1,103.55,220Z"/><path class="cls-3" d="M47,104.29s.09.6.27,1.62l.74-3.52Z"/><path class="cls-3" d="M95.29,160.75a22,22,0,0,0-4.72-10.66c-3.93-4.52-10.43-3.4-13.71-5.78s-12.92-6.43-19.59-11.46c-5.61-4.22-9-21.53-10-26.94-.33,1.64-.77,3.73-1.23,6a65.91,65.91,0,0,0,3.88,16.43c2.86,7.14,8,9.65,12.15,13.76s6.61,6.78,10.72,8.75S94.25,158,94.25,158A18.67,18.67,0,0,1,95.29,160.75Z"/><path class="cls-3" d="M221.05,138.77h0Z"/><path class="cls-3" d="M203.55,136.92c-5.25,1.91-19.53,10-30.73,11s-22.16-1.66-34.79-2.71-18.34,1.52-22.15,2.48-2.51,5.18-2.51,5.18,4.47.35,12.51-1.25a71.53,71.53,0,0,1,24.66-.18c6.26,1.25,23.41.53,32.16-1.43s21.8-10.36,28.41-13.22a7.83,7.83,0,0,1,3.25-.67A22.44,22.44,0,0,0,203.55,136.92Z"/><path class="cls-12" d="M213.33,78.56c-7.6-3.1-24.31-.48-30,1.24s-25,3-34.07,0-32.4-2-46.93-2.91C90,76.08,70,71.86,56.17,64.61a10.33,10.33,0,0,0-5.57,4.65,54.42,54.42,0,0,0-3,7.22C46.9,84.32,46.33,92.2,46,98.1c11.45,3.77,22.57-2.37,30.88,4.29,8.62,6.92,15,19.53,35.2,24.53a58.45,58.45,0,0,0,12.87,1.74c1.87-1.3,5.57-1.9,8.58-5.08,4.28-4.52.23-8.57-4.53-9s-6.91-7.39-4-8.82,5.95-5.24,6.91-10,16-5.72,16.44,0,3,9.53,4.59,11,3.74,7.57,1.12,12.48c-1,1.93-2.33,3.58-3.18,5.16,3.6-1.07,7.1-2.18,10.57-3.11,14.3-3.81,24.06,1.19,30,3.81.73.32,1.47.62,2.21.87.89-4,2.8-6.68,6.84-6.73,7.15-.09,11.94-2.48,12.88-6.29s-6.92-7.39-2.87-8.81,5.72,2.62,8.81-1.67,6.67-18.48,3.34-22.58A13.77,13.77,0,0,0,221,78.19C217.93,79,215.27,79.34,213.33,78.56Z"/><path class="cls-12" d="M250.24,89.75c-2-8.79-8.13-11.55-13.15-12.27a3.92,3.92,0,0,1,.47,1.37c.53,4.29-2,10.19,0,13s7.15,2.15,6.79,8-5,7.32-7.33,12.51-6.25,17.86-.53,23.94q.84.88,1.56,1.59a14.34,14.34,0,0,0,6.48-7.84C246.67,123.7,253.82,105.47,250.24,89.75Z"/><path class="cls-3" d="M259.18,206.43c-.9-3-1.07-10.19-.36-16.44s1.43-20.55,1.25-22.69-6.43-6.61-8.58-12.69c-.93-2.65-.78-7.64-.07-13.24h0S246.8,148,247,152.86s4.72,12.65,7.82,16.22,2.76,12.39,1.74,17.16-2,22.4-2,24.77a7.54,7.54,0,0,0,1.13,4.37,3.27,3.27,0,0,1,2.8-2.88C259.89,212.5,260.07,209.47,259.18,206.43Z"/><path class="cls-5" d="M112.24,223.3c-1.82,0-4.6,0-8.66-.07a12.26,12.26,0,0,1-7.83-2.9c-1.16,2.65-1.55,3.93,1.9,5.17,4.82,1.74,13.76.41,14.29,0A4.59,4.59,0,0,0,112.24,223.3Z"/><path class="cls-3" d="M242.5,211.85a29.77,29.77,0,0,0-4.41,7.86c-.71,1.83-1,2-.2,2.63l3.52-2a47.58,47.58,0,0,1,3.65-9.07c1.45-2.69,2.4-7,3-11.12A29.06,29.06,0,0,1,242.5,211.85Z"/><path class="cls-3" d="M243.45,173.29a63.61,63.61,0,0,1,3.46,7.58,40.15,40.15,0,0,1,2,11.8h0c.37-5.25,1.2-13-.22-14.3S243.46,173.3,243.45,173.29Z"/><path class="cls-4" d="M240.94,214.08a28.4,28.4,0,0,0-2.85,5.63c-1.07,2.74-1.24,1.73,2,4.23s15,1.61,16.08,0c.6-.89.36-2.71.05-4.47h-4.7C246.81,219.47,242.85,216.07,240.94,214.08Z"/><path class="cls-5" d="M247.86,221.58c-5.35-.39-8.08-1.78-9.39-2.8l-.38.93c-1.07,2.74-1.24,1.73,2,4.23s15,1.61,16.08,0a3.54,3.54,0,0,0,.35-2.09C254.29,221.88,251.39,221.84,247.86,221.58Z"/><path class="cls-13" d="M284.67,169.69a15.17,15.17,0,0,1-.78,2.39,6.64,6.64,0,0,0,.9-1.33,10.48,10.48,0,0,1-.83,3.58l-.72,1.3a17.64,17.64,0,0,0,1.66-1.5c.41-1.12.85-2.34,1.32-3.61,2.26-6.2.83-10.19.83-10.19S286,164,284.67,169.69Z"/><path class="cls-13" d="M276.08,168.89a23.65,23.65,0,0,0,2.28-4s-.6,5.9-2.5,8.37c-.2.24-.37.47-.52.66a12.58,12.58,0,0,0,3.14-5.22c1.1-4.53,1.47-15.87,1.47-15.87s-1.95,3.24-3.38,6.22S276.81,164.56,276.08,168.89Z"/><path class="cls-13" d="M282.77,163.13a40.11,40.11,0,0,1-2.78,7.93,10.25,10.25,0,0,1-2.16,4,0,0,0,0,0,0,0,2.69,2.69,0,0,1-.41.42,9,9,0,0,1-1.19,1l-3.58,2.38a11.92,11.92,0,0,0,2.75-.42c4.46-2.54,6-5.9,7-9.35,1.19-3.93,1.62-13.48,1.62-13.48S283.72,158.6,282.77,163.13Z"/><path class="cls-6" d="M248.86,193.61a2.84,2.84,0,0,0,.58-.34c2.3-1.79,2.35-4.88,1.79-7s.33-3.69,1.16-7.39S247,169,243.45,166.56s-8.88-9.54-8.88-9.54h0c3.52,6.19,10.83,19.23,12.34,23.84A40,40,0,0,1,248.86,193.61Z"/><path class="cls-14" d="M62.09,108.87c2.68-5,3.76-11.26,4.11-13.94s4.29-8.93,7-14.11,4.11-15.19,3.57-18.94A40,40,0,0,0,73.88,54a25.56,25.56,0,0,1-9.64-11.41c-3.39-5.69-9.83,1.61-12.33,3.22s-6.61,56.1-6.26,61.64a84.37,84.37,0,0,0,1.58,11.71c2.16-.88,3.43-2,4.5-2.06C53.52,116.91,59.41,113.87,62.09,108.87Z"/><path class="cls-2" d="M31.84,40.2c-1.88.89-1.78,1.43-2.62,3.57s-2,1.91-2.74,3.57.36,5.13,0,6.79S24.22,58.42,23,60a11.29,11.29,0,0,0-1.55,8.7c.95,3.09,3.21,6.91,3.69,8.81A106.57,106.57,0,0,1,26.5,91.42a30.93,30.93,0,0,1-1.56,9.29c-.84,2.27,1.9,7.63,4,9.06s5.13,1.3,8.11.83a28.3,28.3,0,0,1,8.81.32c1.79.39,6.43.51,8.93-.56s5.24-5.24,5.24-7.38-.23-11,1.67-15.13,6.32-10.13,6.55-13,1.2-5.83.6-10.72-1.19-9-2.26-12.09-2.42-5-2.59-7.24-.63-4.19-2.24-4.19a31.28,31.28,0,0,1-4,0l-1-.18a8.47,8.47,0,0,0,1.38-2.28,2.83,2.83,0,0,0,.14-1.7s-1.57,1.52-2.1,2a8.32,8.32,0,0,0,0-2.5c-.22-1.51-.85-2.36-.89-1.65a21.3,21.3,0,0,1-.58,4,3.93,3.93,0,0,0-.58-1.61c-.45-.54-.94-.54-.94.54a9.67,9.67,0,0,1-.45,2.45s-3.84-.22-5.85-.13-3.08.53-3.57.22a3.67,3.67,0,0,1-1.07-3.21l.31-1.3a8.41,8.41,0,0,0-1.34,2.54L41,38.92s-1.42-1.21-1.51-2.28l-.09-1.07a3.48,3.48,0,0,0-.27,2.32,11.26,11.26,0,0,0,1.34,2.41,5.1,5.1,0,0,1-2.9-.44,4.61,4.61,0,0,1-2.33-2.37L35,36.86s.18,2.91.94,3.62a4.18,4.18,0,0,1-2-.58C33.48,39.41,32.29,40,31.84,40.2Z"/><path class="cls-11" d="M53.4,73.91c-.47,2.86-1.78,8.22-1.78,10.36s2,10.19,2.29,12.36,2,7.6,0,9.83-5.63,3.81-7.25,3.51a1.21,1.21,0,0,0-1.48.82l.72.13c1.79.39,6.43.51,8.93-.56s5.24-5.24,5.24-7.38-.23-11,1.67-15.13,6.32-10.13,6.55-13c.2-2.3.85-4.68.79-8.08l-13.87-1S53.88,71.05,53.4,73.91Z"/><path class="cls-11" d="M65.92,50.26C65,48.18,64.18,46.58,64,44.81c-.18-2.23-.63-4.19-2.24-4.19a31.28,31.28,0,0,1-4,0l-1-.18a8.47,8.47,0,0,0,1.38-2.28,2.83,2.83,0,0,0,.14-1.7s-1.57,1.52-2.1,2a8.32,8.32,0,0,0,0-2.5c-.22-1.51-.85-2.36-.89-1.65a21.3,21.3,0,0,1-.58,4,3.93,3.93,0,0,0-.58-1.61c-.45-.54-.94-.54-.94.54a9.67,9.67,0,0,1-.45,2.45s-3.84-.22-5.85-.13-3.08.53-3.57.22a3.67,3.67,0,0,1-1.07-3.21l.31-1.3a8.41,8.41,0,0,0-1.34,2.54L41,38.92s-1.42-1.21-1.51-2.28l-.09-1.07a3.48,3.48,0,0,0-.27,2.32,11.26,11.26,0,0,0,1.34,2.41,5.1,5.1,0,0,1-2.9-.44,4.61,4.61,0,0,1-2.33-2.37L35,36.86s.18,2.91.94,3.62a4.18,4.18,0,0,1-2-.58c-.54-.49-1.73.08-2.18.3-1.88.89-1.78,1.43-2.62,3.57s-2,1.91-2.74,3.57c-.42,1-.22,2.6-.06,4.1a9.62,9.62,0,0,1,3.21-2.38s5-2.19,7.34-.94,5,4.53,8.75,4.17S51.8,48,55.67,48,61.49,50.23,65.92,50.26Z"/><path class="cls-15" d="M28,48.12S21.6,47.17,18.26,44,14.79,35.79,15.16,32s1.49-7.39,2.09-5.84,1.61,8.38,3.9,10.18,9.66,2.78,10.36,4S30.47,47.11,28,48.12Z"/><path class="cls-16" d="M21.15,36.38c-2.29-1.8-3.3-8.63-3.9-10.18-.26-.67-.62-.36-1,.5-.07,3,.25,7.45,1.09,9.68,1.13,3,6.35,6.13,10.12,6.56a32.89,32.89,0,0,1,3.69.7c.47-1.42.63-2.75.33-3.28C30.81,39.16,23.44,38.17,21.15,36.38Z"/><path class="cls-15" d="M31.51,40.36c-.41-.7-3.11-1.33-5.74-2.1a30.5,30.5,0,0,1-1.58,3.32c-.9,1.57-1.83,2.83-.85,2.06a13.36,13.36,0,0,0,2.89-3.49c.46-.94,1.13-1,1.26-.44a9.91,9.91,0,0,1-1.26,3.93c-.52.76.15.8,1.26-1.43s2.46-2.53,2.28-1.67A27.44,27.44,0,0,1,27.49,45c-.49.8,1.61,1.07,2.51,0A16.56,16.56,0,0,0,31.58,42,2.9,2.9,0,0,0,31.51,40.36Z"/><path class="cls-3" d="M32.85,110.21c.21,1.57,3.58,5.27,5.45,5.81s4.11-1.16,6.35-.72,5,0,8-2.68,3.75-3.66,2.14-3.93S32.41,106.82,32.85,110.21Z"/><path class="cls-17" d="M37.05,109.32c-1.8.23-3,2.5,0,3.13s9.56.35,11.35-1.57S41.88,108.69,37.05,109.32Z"/><path class="cls-3" d="M68.09,75.85l-7.18-4.32s-6.32,6.91-7,10.6a21.85,21.85,0,0,0,1.64,11.79c1.55,3.81.24,11.44-2.27,13.1s-13.81.6-17.51,0-5.24.12-6.6-1.31-2.57-4.76-.8-7.25a17.15,17.15,0,0,0,3.29-9.3c.17-3.82,1.82-13.92,1.82-13.92l-8.77.93a9.1,9.1,0,0,1,.46,1.31A106.57,106.57,0,0,1,26.5,91.42a30.93,30.93,0,0,1-1.56,9.29c-.84,2.27,1.9,7.63,4,9.06s5.13,1.3,8.11.83a28.3,28.3,0,0,1,8.81.32c1.79.39,6.43.51,8.93-.56s5.24-5.24,5.24-7.38-.23-11,1.67-15.13C63.45,84.11,67.17,78.93,68.09,75.85Z"/><path class="cls-10" d="M51.88,98.69c-.8-1.88-3.75-.81-5.09.09s-1.34-.63-3.12-1.61-3,1.34-3.67,1.94-3.57.38-4.79-1-3.16-1.91-3.61-1-1,2-1,2h0c-.46.08-.85.55-1.16,1.35-.6,1.55,0,3,1.13,4.34s3.34-.23,3.87.49.24,2.08-.32,4.29a1.72,1.72,0,0,0,.11,1.31,24.39,24.39,0,0,0,2.9-.3,28.3,28.3,0,0,1,8.81.32,15.82,15.82,0,0,0,2.75.27c.05-1-2.22-2.56-1.86-3.57s1.07-1.55,3-1.79,2.44-1.66,2.44-3.15C53.11,101.13,52.69,100.56,51.88,98.69Z"/><path class="cls-6" d="M70.87,53.12c1.19-.19,3.71-2.18,6.07-2.59s7.06-.44,9.52.54a9.91,9.91,0,0,0,4.78,1c.76-.13,1.25.31.58,1.61s-3,4.65-4.78,5.81-8,3.66-10.45,2.86-4-2.15-5.72-2.06-2.07.45-2.31,1.28-1.26-3.29-1.71-4.94-1.62-7.22-.84-6.14S67.52,53.66,70.87,53.12Z"/><path class="cls-18" d="M92.08,53a22,22,0,0,0-3.83-.22c-3,0-8.16-.59-10.49.32S74.31,55,71.93,55.45s-4.54.22-5.28.37c.08.31.14.58.2.79.18.65.44,1.67.71,2.63,1.66.11,4.22-.65,5.74.2a12.28,12.28,0,0,0,6.85,1.72c3.22,0,6-2.38,8.64-3.3h0a24.71,24.71,0,0,0,3-4.19A3.41,3.41,0,0,0,92.08,53Z"/><path class="cls-6" d="M33.66,65.54c-.27-3.21-3.49-4.64-4.76-6.16-.93-1.12-2-2.76-2.89-4A28.85,28.85,0,0,1,23,60a11.29,11.29,0,0,0-1.55,8.7c.95,3.09,3.21,6.91,3.69,8.81A106.57,106.57,0,0,1,26.5,91.42a30.46,30.46,0,0,1-.27,3.64c1.47-2.27,1.23-5.91,1.71-7.36.54-1.61,1.34-2.51,2.77-4.38s.18-2.23,1.79-4.91S33.93,68.76,33.66,65.54Z"/><path class="cls-19" d="M49.83,105.83c2-.24,2.44-1.66,2.44-3.15.84-1.55.42-2.12-.39-4a1.24,1.24,0,0,0-.12-.23,2,2,0,0,1-.23,1.91c-.82.95-1.12,1.23-1.12,1.23-.4,1.19-4.89,2.77-6.7,3.12a17.4,17.4,0,0,1-5.76,0,12.06,12.06,0,0,1-5.5-2.81,6.44,6.44,0,0,1-1.77-3c-.07.13-.11.22-.11.22h0c-.46.08-.85.55-1.16,1.35-.6,1.55,0,3,1.13,4.34s3.34-.23,3.87.49.24,2.08-.32,4.29a1.72,1.72,0,0,0,.11,1.31,24.39,24.39,0,0,0,2.9-.3,28.3,28.3,0,0,1,8.81.32,15.82,15.82,0,0,0,2.75.27c.05-1-2.22-2.56-1.86-3.57S47.86,106.07,49.83,105.83Z"/><path class="cls-3" d="M66.63,52.05c-1.08-3-2.42-5-2.59-7.24s-.63-4.19-2.24-4.19a31.28,31.28,0,0,1-4,0l-1-.18a8.47,8.47,0,0,0,1.38-2.28,2.83,2.83,0,0,0,.14-1.7s-1.57,1.52-2.1,2a8.32,8.32,0,0,0,0-2.5c-.22-1.51-.85-2.36-.89-1.65a21.3,21.3,0,0,1-.58,4,3.93,3.93,0,0,0-.58-1.61c-.45-.54-.94-.54-.94.54a9.67,9.67,0,0,1-.45,2.45s-3.84-.22-5.85-.13-3.08.53-3.57.22a3.67,3.67,0,0,1-1.07-3.21l.31-1.3a8.41,8.41,0,0,0-1.34,2.54L41,38.92s-1.42-1.21-1.51-2.28l-.09-1.07a3.48,3.48,0,0,0-.27,2.32,11.26,11.26,0,0,0,1.34,2.41,5.1,5.1,0,0,1-2.9-.44,4.61,4.61,0,0,1-2.33-2.37L35,36.86s.18,2.91.94,3.62a4.18,4.18,0,0,1-2-.58c-.54-.49-1.73.08-2.18.3-1.88.89-1.78,1.43-2.62,3.57s-2,1.91-2.74,3.57a4.93,4.93,0,0,0-.24,2c.73,1.35,1.25,2.29,1.25,2.29v-.27c1.26,0,3.67-5.53,5.36-6.52a10.73,10.73,0,0,1,7.33-1.2c2.59.67,8.22.32,10.63,0s7-.85,8.4,1.2A34.82,34.82,0,0,1,63,53.62c.15,1,2.36.46,4.08-.09C66.94,53,66.79,52.51,66.63,52.05Z"/><path class="cls-6" d="M66.63,52.05c-.11-.28-.21-.55-.31-.82A2.82,2.82,0,0,0,64,50.89c-2.41.71-.9,2.23-.81,3.31s.5,3-.55,4.11-4.18,1.56-6,4.17-1.88,5.83-1.88,8.78,1.88,5,.63,7.33-2.24,4-.63,5.18,4.29,3,4.38,4.82a10.5,10.5,0,0,0,1.46,3.7,17.36,17.36,0,0,1,1.16-4.44c1.91-4.17,6.32-10.13,6.55-13s1.2-5.83.6-10.72S67.7,55.09,66.63,52.05Z"/><path class="cls-18" d="M25.72,49.23c-.91-.11-3.15.42-5.59,0s-6.91-1.73-10.07-1.07S6,50.48,4.17,51s-4.59.3-4.12,1.25,5.42,3.88,7.09,5.27,7,3.78,11.2,1.34,6.49-4.35,7.68-4.47S28.76,49.59,25.72,49.23Z"/><path class="cls-6" d="M26.23,54c-1.8-.42-4.75,2.2-10,3.75-3.07.91-7.62-.29-10.84-1.42.69.47,1.3.91,1.71,1.25,1.67,1.4,7,3.78,11.2,1.34s6.49-4.35,7.68-4.47a.77.77,0,0,0,.47-.26A.31.31,0,0,0,26.23,54Z"/><path class="cls-6" d="M10.06,48.16c3.16-.66,7.62.65,10.07,1.07s4.68-.11,5.59,0A2,2,0,0,1,27,49.8l.48,1L27,49l-2.48-.74a43.27,43.27,0,0,0-8.39-1.43c-3.1,0-6.1.24-8.5,2.26h0A9,9,0,0,1,10.06,48.16Z"/><path class="cls-15" d="M62.09,41.92s4.5-1.94,5.73-2.72,4.28-2.53,4.34-4.84-.24-7.84.83-7.13,4.56,6.31,4.7,10.54-1.54,7-3.92,8.52-7.39,4.05-8.7,3.1S60.72,46.12,62.09,41.92Z"/><path class="cls-16" d="M74.51,29.11A7.76,7.76,0,0,0,73,27.23c-1.07-.71-.77,4.83-.83,7.13s-3.1,4.07-4.34,4.84-5.73,2.72-5.73,2.72a5.72,5.72,0,0,0,.08,4.15c1.09.22,2.6-.62,4.45-1.33,2.8-1.07,7.21-4.29,8.22-8A15.53,15.53,0,0,0,74.51,29.11Z"/><path class="cls-4" d="M54.56,109.3c-3.51,1.8-7.1.85-11.79-.08s-7.37.62-11.25.62c-3.72,0-6-5-6.18-5.49A12.46,12.46,0,0,0,29,109.77c2.15,1.42,5.13,1.3,8.11.83a28.3,28.3,0,0,1,8.81.32c1.79.39,6.43.51,8.93-.56,2.1-.9,4.36-4,5-6.21A16.4,16.4,0,0,1,54.56,109.3Z"/><path class="cls-20" d="M43,104.83a8.4,8.4,0,0,0,2.73-1.22c1-.83,1.72-2,2.45-2.64a2.18,2.18,0,0,1,2.15-.51.79.79,0,0,1,.36.89S49.7,103.59,43,104.83Z"/><path class="cls-20" d="M31.58,100.89s-.24-1.1.6-1.41,2.11,1.07,2.24,1.74,2,3.31,3.53,3.5C38,104.72,33,103.56,31.58,100.89Z"/><path class="cls-15" d="M63.13,47.63a43.1,43.1,0,0,1,5-.84c.15.16,2.17-1.89.72-3.15a10.39,10.39,0,0,1-2.1-3.84l-.59.29a7.83,7.83,0,0,0,.15,1c.36,1.61,1.91,4,1.82,4.17a2.23,2.23,0,0,1-2.34-.59c-.76-.9-.55-2.51-.91-4h0l-.42.19a19.37,19.37,0,0,0-.06,2.23c.06,1.72.9,2.19.36,3s-1.79-.78-1.91-2.46a4.89,4.89,0,0,1,.45-2.24l-1.17.52A5.67,5.67,0,0,0,63.13,47.63Z"/><path class="cls-21" d="M23.43,64.23a2.47,2.47,0,0,1,.3-2.12,3.13,3.13,0,0,1,4.34-.54,8.42,8.42,0,0,1,3,5.34c0,1,.06,1.12.53,1.51A.62.62,0,0,1,31,69.49c-.77-.17-2.21,1.75-4.5,1.47s-3.66-2.19-2.81-3.88S24.14,65.91,23.43,64.23Z"/><path class="cls-6" d="M25.23,62.48A3.83,3.83,0,0,1,29,63.91c.89,1.07,2,3.26,1.42,4.29s-2.9,1.92-4.55,1.07-4.24-4.38-.67-6.79"/><path class="cls-22" d="M24.17,64.08a2.34,2.34,0,0,1,2.3-1.19A3.49,3.49,0,0,1,29.32,65c.48,1.13,1.27,2.68.24,3.48a3.52,3.52,0,0,1-4.85-.71C23.42,65.9,23.76,65.12,24.17,64.08Z"/><path class="cls-21" d="M25.41,71s.61,1,3,.28a16.45,16.45,0,0,0,2.74-1,3.64,3.64,0,0,1-2.28,2.21C27.25,72.83,25.44,72.63,25.41,71Z"/><path class="cls-23" d="M29.32,65a3.49,3.49,0,0,0-2.85-2.13,2.34,2.34,0,0,0-2.3,1.19,3,3,0,0,0-.28,2s.13-.93,1.52-1.41a4.92,4.92,0,0,1,4.11.75Z"/><path class="cls-24" d="M30.3,66.13s-1.09-2.82-2.72-3.58a4.62,4.62,0,0,0-3.68.23l-2.35,1.31s1.64-.21,2.95-.4A5.44,5.44,0,0,1,30.3,66.13Z"/><path class="cls-24" d="M28.32,64.09a2.16,2.16,0,0,0-2.64,1.54,2.4,2.4,0,0,0,1.43,2.72A2.17,2.17,0,0,0,30,67,2.62,2.62,0,0,0,28.32,64.09Z"/><path class="cls-22" d="M26.82,65.43a.66.66,0,1,1-.66-.7A.68.68,0,0,1,26.82,65.43Z"/><path class="cls-24" d="M23.86,67.09a3.18,3.18,0,0,0,1.34,2.23c1.19.72,3.83.66,4.86-.71C30.06,68.61,25.94,71.11,23.86,67.09Z"/><path class="cls-21" d="M66.35,65.83a2.47,2.47,0,0,0-.3-2.12,3.13,3.13,0,0,0-4.34-.54,8.42,8.42,0,0,0-3,5.34c0,1-.06,1.12-.53,1.51a.62.62,0,0,0,.59,1.07c.77-.17,2.21,1.75,4.5,1.47s3.66-2.19,2.81-3.87S65.64,67.51,66.35,65.83Z"/><path class="cls-6" d="M64.55,64.08a3.83,3.83,0,0,0-3.8,1.43c-.89,1.07-2,3.26-1.42,4.29s2.9,1.92,4.55,1.07,4.25-4.38.67-6.79"/><path class="cls-22" d="M65.61,65.68a2.34,2.34,0,0,0-2.3-1.19,3.51,3.51,0,0,0-2.85,2.13c-.48,1.13-1.27,2.68-.24,3.48a3.52,3.52,0,0,0,4.85-.71C66.36,67.5,66,66.72,65.61,65.68Z"/><path class="cls-21" d="M64.37,72.59s-.61,1-3,.28a16.46,16.46,0,0,1-2.75-1,3.64,3.64,0,0,0,2.28,2.21C62.53,74.43,64.34,74.23,64.37,72.59Z"/><path class="cls-23" d="M60.46,66.62a3.51,3.51,0,0,1,2.85-2.13,2.34,2.34,0,0,1,2.3,1.19,3,3,0,0,1,.28,2s-.13-.93-1.52-1.41a4.92,4.92,0,0,0-4.11.75Z"/><path class="cls-24" d="M59.48,67.73s1.08-2.82,2.73-3.58a4.62,4.62,0,0,1,3.68.23c.73.42,2.34,1.31,2.34,1.31l-3-.39A5.43,5.43,0,0,0,59.48,67.73Z"/><path class="cls-24" d="M62.34,65.42A2.16,2.16,0,0,1,65,67a2.42,2.42,0,0,1-1.43,2.73,2.19,2.19,0,0,1-2.89-1.4A2.62,2.62,0,0,1,62.34,65.42Z"/><path class="cls-22" d="M60.19,67.3a.66.66,0,1,0,.66-.7A.68.68,0,0,0,60.19,67.3Z"/><path class="cls-24" d="M65.92,68.69a3.18,3.18,0,0,1-1.34,2.23c-1.19.72-3.83.66-4.86-.71C59.72,70.21,63.84,72.71,65.92,68.69Z"/><path class="cls-25" d="M42.16,57.53c-1.28-1.39-1,4.73-1.81,7.77A39.41,39.41,0,0,0,39,74.22c-.33,4.39.08,11.61-.33,14.26s-.08,6.93,1.73,5.5,3.29-4.93,4.36-5.5,2.75-4.33,2.41-8.62-1.75-10-1-12.77A35.8,35.8,0,0,0,47.24,56c-.39-3-1.63-2.5-2.45,0S43.64,59.14,42.16,57.53Z"/><path class="cls-6" d="M89.1,195.77a2,2,0,0,0,1.52-.6c1.77-1.86,1.91-4,1.22-7s.33-3.57,1.88-6.31-.6-7.26-3.1-8.34c-1.64-.7-4.19-1.2-6.24-2.19.06.4.11.79.14,1.17.36,4.65,3.39,8.4,3.75,9.48s1.43,5,1.07,11.61A21.66,21.66,0,0,1,89.1,195.77Z"/></svg>