<svg id="Layer_1" data-name="Layer 1" xmlns="http://www.w3.org/2000/svg" xmlns:xlink="http://www.w3.org/1999/xlink" viewBox="0 0 100 40"><defs><style>.cls-1{fill:#fff;}.cls-2{fill:url(#linear-gradient);}.cls-3{fill:#030303;}.cls-4{fill:#fcfdff;}.cls-5{fill:#422f2a;}.cls-6{fill:#705257;}.cls-7{fill:url(#linear-gradient-2);}</style><linearGradient id="linear-gradient" x1="-46.19" y1="180.91" x2="-50.16" y2="217.69" gradientTransform="translate(127.99 -169.97)" gradientUnits="userSpaceOnUse"><stop offset="0" stop-color="#4a240d"/><stop offset="0.64" stop-color="#9b6a33"/></linearGradient><linearGradient id="linear-gradient-2" x1="-103.61" y1="174.96" x2="-107.58" y2="211.75" gradientTransform="translate(115.87 -172.54) rotate(-3.54)" xlink:href="#linear-gradient"/></defs><path class="cls-1" d="M64.56,29.16s-.33-5.4,5.63-14.17c3-4.36,7.54-6.61,11.84-5.79C87.64,10.26,90.46,17.38,92.3,22a12.41,12.41,0,0,1,.83,3.29,11.22,11.22,0,0,1-.36,4.27c-1.47,4.4-10.52,5.21-11.2,5.26C73.47,35.49,67.11,31.15,64.56,29.16Z"/><ellipse class="cls-2" cx="80.32" cy="24.6" rx="8.26" ry="8.99" transform="translate(-1.37 5.01) rotate(-3.54)"/><ellipse class="cls-3" cx="80.38" cy="25.55" rx="4.93" ry="4.47" transform="translate(-1.43 5.02) rotate(-3.54)"/><ellipse class="cls-4" cx="76.99" cy="22.83" rx="2.17" ry="1.88" transform="translate(-1.26 4.8) rotate(-3.54)"/><path class="cls-5" d="M67.27,21.63a19.87,19.87,0,0,1,3.14-10.48,12,12,0,0,1,4.31-4,10.21,10.21,0,0,1,6-1.15,11.83,11.83,0,0,1,5.56,2.24,15,15,0,0,1,3.92,4.23A19.07,19.07,0,0,1,93.09,23a30.08,30.08,0,0,0-4.85-9.11c-2.13-2.52-4.91-4.46-7.88-4.8A8,8,0,0,0,76,9.78a11.79,11.79,0,0,0-3.71,2.85A32.07,32.07,0,0,0,67.27,21.63Z"/><path class="cls-6" d="M64.56,29.16s-.33-5.4,5.63-14.17c3-4.36,7.54-6.61,11.84-5.79C87.64,10.26,90.46,17.38,92.3,22a12.41,12.41,0,0,1,.83,3.29,11.22,11.22,0,0,1-.36,4.27S87.43,18.45,80.7,17.91C70.07,17.05,64.56,29.16,64.56,29.16Z"/><path class="cls-1" d="M23.89,32.46c-8.1.65-14.45-3.69-17-5.68,0,0-.34-5.4,5.62-14.17,3-4.36,7.54-6.61,11.84-5.79C30,7.88,32.78,15,34.62,19.64a12.33,12.33,0,0,1,.83,3.29,11.22,11.22,0,0,1-.36,4.27c-1.47,4.4-10.51,5.21-11.2,5.26"/><path class="cls-7" d="M23.2,31.19c-4.56.29-8.5-3.5-8.8-8.46s3.13-9.2,7.69-9.48,8.49,3.51,8.8,8.46-3.14,9.2-7.69,9.48"/><ellipse class="cls-3" cx="22.7" cy="23.17" rx="4.93" ry="4.47" transform="translate(-1.39 1.45) rotate(-3.54)"/><ellipse class="cls-4" cx="19.26" cy="19.03" rx="2.17" ry="1.88" transform="translate(-1.14 1.23) rotate(-3.54)"/><path class="cls-5" d="M9.59,19.24A19.86,19.86,0,0,1,12.73,8.77a12,12,0,0,1,4.31-4,10.13,10.13,0,0,1,6-1.15A11.69,11.69,0,0,1,28.6,5.86a14.87,14.87,0,0,1,3.92,4.23,19.07,19.07,0,0,1,2.89,10.53,30.08,30.08,0,0,0-4.85-9.11c-2.13-2.52-4.9-4.46-7.88-4.8a8,8,0,0,0-4.32.69,11.58,11.58,0,0,0-3.72,2.85A32,32,0,0,0,9.59,19.24Z"/><path class="cls-6" d="M35.12,27.11s2.26-5.91-3.95-14.78C28.14,8,23.9,5.86,19,6.82c-5.6,1.1-8.56,8.25-10.44,12.88-.86,2.12-1.22,3.11-1.33,3.47C6.71,25,6.75,27,6.94,26.82c0,0,6.7-10.75,13.43-11.29C31,14.67,35.12,27.11,35.12,27.11Z"/></svg>