<svg id="Layer_1" data-name="Layer 1" xmlns="http://www.w3.org/2000/svg" viewBox="0 0 100 40"><defs><style>.cls-1{fill:#ffdd7c;}.cls-2{fill:#ceb062;}.cls-3{fill:#4a9544;}.cls-4{fill:#347230;}.cls-5{fill:#2e1e20;}.cls-6{fill:#fff;}</style></defs><path class="cls-1" d="M32.78,22.69l-.05-.21a16.2,16.2,0,0,0-1.26-3.33,23.85,23.85,0,0,0-9.78-10,4.55,4.55,0,0,0-4.85.07,6,6,0,0,0-.66.55A8.32,8.32,0,0,0,13.56,16a11.19,11.19,0,0,0,4.17,8.74,9.39,9.39,0,0,0,2.74,1.37,21.11,21.11,0,0,0,4.36.37A10.6,10.6,0,0,0,27.11,26a16.56,16.56,0,0,0,5.49-3.12Z"/><path class="cls-2" d="M22.49,9.84c-.49-.3-.86-.51-1.07-.61-1.82-1-3.64-1-4.87,0a7,7,0,0,0-.65.55,8,8,0,0,0-2.5,6.16A11.59,11.59,0,0,0,14,19.22C13.4,13.94,17.79,8.25,22.49,9.84Z"/><path class="cls-3" d="M26.87,12.61a6.76,6.76,0,0,0-5.73,3.61,5,5,0,0,0,2.48,7.2,6.56,6.56,0,0,0,7.88-3.25,6.11,6.11,0,0,0,.33-.82A41.34,41.34,0,0,0,26.87,12.61Z"/><path class="cls-4" d="M26.68,12.86a6.36,6.36,0,0,0-5.63,3.44,5.31,5.31,0,0,0-.32,4.18c3.94-.78,6.3-3.05,7.06-6.32C27.43,13.72,27.06,13.29,26.68,12.86Z"/><path class="cls-5" d="M31.5,19.31a5,5,0,0,1-.37,1,6.12,6.12,0,0,1-3.2,2.91,5.71,5.71,0,0,1-4.22.07,4.71,4.71,0,0,1-2.77-2.82,5.1,5.1,0,0,1,.31-4.05,6.12,6.12,0,0,1,1.26-1.68,6.22,6.22,0,0,1,1.94-1.23A6,6,0,0,1,26.84,13l-.37-.42a6.61,6.61,0,0,0-5.61,3.6,5.23,5.23,0,0,0,2.65,7.4,6.15,6.15,0,0,0,4.56-.07,6.64,6.64,0,0,0,2.08-1.32,6.46,6.46,0,0,0,1.37-1.82c.1-.21.17-.43.25-.65Z"/><path class="cls-5" d="M29.7,16.58c-.26-.36-.53-.72-.8-1.07a3.43,3.43,0,0,0-1-.61A4.19,4.19,0,0,0,22.76,17a3.35,3.35,0,0,0,1.71,4.76,4.2,4.2,0,0,0,5.15-2.06A3.51,3.51,0,0,0,29.7,16.58Z"/><path class="cls-6" d="M24.13,15.32a1.11,1.11,0,0,1-.52,1.45,1,1,0,0,1-1.39-.57,1.11,1.11,0,0,1,.52-1.45A1,1,0,0,1,24.13,15.32Z"/><path class="cls-6" d="M28.18,20.79a.6.6,0,0,1-.27.77.56.56,0,0,1-.74-.3.59.59,0,0,1,.27-.77A.55.55,0,0,1,28.18,20.79Z"/><path class="cls-5" d="M32.75,22.55S30.14,15,25.1,11.71c-4.53-3-6.87-4.89-10.31-.38s.46,12.2,3.39,13.63,8.54,2.21,14.52-2.84l.1.64.13.91a17.68,17.68,0,0,1-1.88.87c-.32.06-3.75,2.81-8.11,2.7-3.67-.08-5.15-.73-8-3.28s-2.39-8.12-2.08-9.09a10.73,10.73,0,0,1,2.16-4.61c1.53-1.73,1.07-1,1.07-1a3.77,3.77,0,0,0-1.48.08A4.71,4.71,0,0,1,18.32,8a12.55,12.55,0,0,1,6.53,2.48C26.67,11.88,32.29,17.44,32.75,22.55Z"/><path class="cls-5" d="M19.85,5.72c4.92-.35,10.71,5.34,11.76,6s3-.06,3.47-3.83a10.42,10.42,0,0,1-1.43,6.79,4.78,4.78,0,0,0,1.84-2.47c-.24,1.9-1.64,6-4.48,5.77-1.66-.14-3.33-5.46-7.81-7.08C14.35,7.68,7.52,14.7,7.52,14.7S12.46,6.25,19.85,5.72Z"/><path class="cls-5" d="M13.09,10.3s-3.26,5-1.38,10,6.06,7.32,11.87,7.6a11.08,11.08,0,0,0,8.87-3.53l-.4-1.47-6.28,3.4-5.3.26-4-2.08-2.27-2.57-1.06-4.14-.23-2.9s1.88-4.49,3.66-5.68Z"/><path class="cls-5" d="M32.8,22.76l-.1-.64,0,0c-.71-5-6.05-10.3-7.82-11.67A12.55,12.55,0,0,0,18.32,8a4.71,4.71,0,0,0-3.68,1.37A3.06,3.06,0,0,1,16,9.28c-.16.15-.43.43-.92,1a10.73,10.73,0,0,0-2.16,4.61c-.31,1,.91,2.33,3.77,4.82a18.46,18.46,0,0,0,7.7,3.7c1.51.35,6.37,1.21,6.69,1.15a17.68,17.68,0,0,0,1.88-.87Z"/><path class="cls-1" d="M88.18,26.82a8.83,8.83,0,0,0-2.13-7.51,8.23,8.23,0,0,0-4.28-2.84,11.48,11.48,0,0,0-4.94.07,13.65,13.65,0,0,0-7,5.64c-2.57,3.77-4.73,9.68,1.37,11,5.7,1.24,14.7-.17,16.91-5.81C88.06,27.35,88.17,26.85,88.18,26.82Z"/><path class="cls-1" d="M86.18,19a11.14,11.14,0,0,0-4.46-2.66,10.17,10.17,0,0,0-4.89.18,13.65,13.65,0,0,0-7,5.64c-2.57,3.77-4.73,9.68,1.37,11,5.7,1.24,16,.17,16.91-5.81C88.06,27.35,90.13,22.37,86.18,19Z"/><path class="cls-2" d="M81.47,18.34c4.13,1.21,5.72,4.09,6.82,6a11.34,11.34,0,0,0-2.21-4.68,8.45,8.45,0,0,0-4.3-3.17,10.36,10.36,0,0,0-5,0,12,12,0,0,0-5,3.4A11.36,11.36,0,0,1,81.47,18.34Z"/><path class="cls-2" d="M71.33,31.3c-3.06-2-3.19-5.56-2.54-8.71-1.89,4-2.62,8.82,2.57,10.12a18.53,18.53,0,0,0,5.21.47A11.92,11.92,0,0,1,71.33,31.3Z"/><path class="cls-5" d="M72.53,33.77c-2-.14-6.79.28-7.68-.61-.76-.74,1.48-2.67,2-4.55a21.28,21.28,0,0,1,6.63-11,7,7,0,0,1,4.27-1.85s-.21,1.47-2.63,1.66c7.77-1.42,11.07.23,12.54,3.11s3.89,5.37,2.81,6.75a16.07,16.07,0,0,1-4,3.45C82.5,33.6,77.88,34.15,72.53,33.77Zm5-17c-4.43.54-8.88,6.43-9.46,12.06-.26,2.57,3.65,3.85,5.12,4.12,5.08.95,11.81-.47,14-4.17a8,8,0,0,0-.77-8.3A8.9,8.9,0,0,0,77.57,16.77Z"/><path class="cls-3" d="M80.09,29.67a6.2,6.2,0,0,1-7.93-2.59A5.25,5.25,0,0,1,75,19.83a6.23,6.23,0,0,1,7.94,2.59A5.25,5.25,0,0,1,80.09,29.67Z"/><path class="cls-4" d="M82.49,21.76A6.28,6.28,0,0,0,75,19.83a5.65,5.65,0,0,0-3,3.07C75.87,25.07,79.54,24.53,82.49,21.76Z"/><path class="cls-5" d="M77.93,30.39a6.68,6.68,0,0,1-2.46-.32A6,6,0,0,1,72,27.17a5.45,5.45,0,0,1,2.94-7.52,6.62,6.62,0,0,1,4.72-.22,6,6,0,0,1,3.51,2.9,5.46,5.46,0,0,1-2.94,7.53A6.55,6.55,0,0,1,77.93,30.39Zm-.75-10.87a6.09,6.09,0,0,0-2.09.5,5.4,5.4,0,0,0-3,3,4.85,4.85,0,0,0,.22,4,5.59,5.59,0,0,0,3.26,2.69A6.24,6.24,0,0,0,80,29.48a5.35,5.35,0,0,0,2.94-3,4.75,4.75,0,0,0-.22-4,5.51,5.51,0,0,0-3.25-2.69A6.4,6.4,0,0,0,77.18,19.52Z"/><path class="cls-5" d="M79.25,28A4.14,4.14,0,0,1,74,26.31a3.51,3.51,0,0,1,1.89-4.85,4.15,4.15,0,0,1,5.3,1.73A3.52,3.52,0,0,1,79.25,28Z"/><path class="cls-6" d="M74.64,24.17a1,1,0,0,1-1,1,1.05,1.05,0,0,1-1.15-.92,1,1,0,0,1,1-1.05A1.05,1.05,0,0,1,74.64,24.17Z"/><path class="cls-6" d="M80.11,27.29a.62.62,0,0,1-1.23.08.57.57,0,0,1,.57-.6A.6.6,0,0,1,80.11,27.29Z"/><path class="cls-5" d="M81.45,15.21c-4.76-.35-13.3,5.18-14.4,5.79s-2.93-.07-3-3.65a9.16,9.16,0,0,0,.63,6.44,3.85,3.85,0,0,1-1.52-2.35c0,1.8.92,5.71,3.72,5.49C68.56,26.8,73,21.6,77.6,20.08a14.33,14.33,0,0,1,14.88,3.7S88.62,15.75,81.45,15.21Z"/><path class="cls-5" d="M65.84,24.68s-2.23,7-.67,8S69.79,34.9,81,34A12.16,12.16,0,0,0,92.48,23.78s-2.16-4-4.11-4.38l-2.83-1.85s4.57,7,4.1,7.73-2.39,4.58-2.39,4.58A17.1,17.1,0,0,1,74.64,33.6c-7.69-.79-6.75-3.06-6.75-3.06l.3-3.94.87-2.74Z"/><path class="cls-5" d="M86.36,19.1c-.58-1.44-2.63-2.55-4.43-2.94a12,12,0,0,0-5.13.07,14.15,14.15,0,0,0-7.31,5.84c-2.66,3.91-7,7.71-.69,9.09,5.91,1.28,15.39-.26,17.69-6.1C86.48,25,87.31,21.48,86.36,19.1Z"/></svg>