<svg id="Layer_1" data-name="Layer 1" xmlns="http://www.w3.org/2000/svg" viewBox="0 0 110 80"><defs><style>.cls-1{fill:#fcf9f7;stroke:#3a1e0f;}.cls-1,.cls-4{stroke-miterlimit:10;stroke-width:0.75px;}.cls-2{fill:#2d1c15;}.cls-3{fill:#f9f4f2;}.cls-4{fill:#f9dad2;stroke:#4c2606;}</style></defs><path class="cls-1" d="M84.28,73.84c-10.13.5-18.76-7.66-19.28-18.22a19.59,19.59,0,0,1,2.71-11,18.12,18.12,0,0,1,14.68-9c9.75-.48,18.12,7.08,19.18,17.08q.06.57.09,1.14C102.19,64.37,94.4,73.34,84.28,73.84Z"/><ellipse class="cls-2" cx="90.37" cy="54.02" rx="11.23" ry="11.72" transform="translate(-2.56 4.53) rotate(-2.83)"/><ellipse class="cls-3" cx="84.41" cy="48.44" rx="2.87" ry="3.21" transform="translate(-2.29 4.23) rotate(-2.83)"/><path class="cls-1" d="M20.54,67.58c-9,.44-16.67-7.76-17.19-18.33A21.1,21.1,0,0,1,6.76,36.44a15.31,15.31,0,0,1,11.89-7.12c7.39-.37,13.9,5.13,16.27,13a22,22,0,0,1,.92,5.34C36.36,58.21,29.51,67.14,20.54,67.58Z"/><ellipse class="cls-2" cx="25.83" cy="47.8" rx="9.95" ry="11.72" transform="matrix(1, -0.05, 0.05, 1, -2.33, 1.33)"/><ellipse class="cls-3" cx="20.52" cy="42.19" rx="2.55" ry="3.21" transform="matrix(1, -0.05, 0.05, 1, -2.06, 1.06)"/><path class="cls-2" d="M84.13,15.41s14-2.55,22.55,10c0,0-.18-15.28-19.64-16.55C87,8.86,80.67,10.5,84.13,15.41Z"/><path class="cls-2" d="M26.85,12.68s-12-2.55-19.37,10c0,0,.16-15.27,16.87-16.55C24.35,6.13,29.81,7.77,26.85,12.68Z"/><path class="cls-4" d="M34.92,42.31l-.47-.21a67.61,67.61,0,0,0-14.11-4.18A88,88,0,0,0,6.76,36.44a15.31,15.31,0,0,1,11.89-7.12C26,29,32.55,34.45,34.92,42.31Z"/><path class="cls-4" d="M101.57,52.66l0,0A48.81,48.81,0,0,0,86.8,46.69c-1.38-.33-2.75-.61-4.09-.85l-.35-.06a86.34,86.34,0,0,0-14.65-1.19,18.12,18.12,0,0,1,14.68-9C92.14,35.1,100.51,42.66,101.57,52.66Z"/></svg>