<svg id="Layer_1" data-name="Layer 1" xmlns="http://www.w3.org/2000/svg" viewBox="0 0 460 300"><defs><style>.cls-1{opacity:0.3;}.cls-2{fill:#9e9d9d;}.cls-3{fill:#5e5e5e;}.cls-4{fill:#747474;}.cls-5{fill:#b2b2b2;}.cls-6{fill:#bcbcbc;}.cls-7{fill:#c6c6c6;}.cls-8{fill:#eae8e8;}.cls-9{fill:#1c1c21;}.cls-10{fill:#7c7b7b;}.cls-11{fill:#fff;}.cls-12{fill:#ccc;}.cls-13{fill:#e5e3e3;}.cls-14{fill:#27272c;}.cls-15{fill:#333338;}.cls-16{fill:#e0e1e0;}</style></defs><ellipse class="cls-1" cx="275.05" cy="274.25" rx="140.48" ry="20.09"/><path class="cls-2" d="M417.27,129.18a61.41,61.41,0,0,0,17.33,31.66,8.28,8.28,0,0,0,2.67-2.16c-3.84-7.67-12.35-25.73-16.67-45C415.43,120.68,417.27,129.18,417.27,129.18Z"/><path class="cls-3" d="M434.51,161.45l-.26-.25a62.58,62.58,0,0,1-17.48-31.95c-.07-.32-1.81-8.77,3.43-15.87l.65-.88.24,1.07c4.11,18.34,12.18,36,16.62,44.88l.14.28-.18.25a8.86,8.86,0,0,1-2.85,2.31ZM420.37,114.9c-4.18,6.54-2.63,14.09-2.61,14.17a61.52,61.52,0,0,0,16.93,31.16,8,8,0,0,0,2-1.62C432.27,149.77,424.52,132.74,420.37,114.9Z"/><path class="cls-3" d="M90.93,67.68S70.6,64.84,65.27,35.84C62.6,19.84,68.43-1,77.8,8.68,84.21,15.3,88.6,40.18,90.93,67.68Z"/><path class="cls-4" d="M75.93,30.18C79.54,28,83.15,30,86.39,32.81,84.12,21.1,81.25,12.24,77.8,8.68,68.43-1,62.6,19.84,65.27,35.84A55.83,55.83,0,0,0,68.09,46a23.92,23.92,0,0,0,2.84.18C69.93,40.18,70.93,33.18,75.93,30.18Z"/><path class="cls-3" d="M91.48,68.26l-.62-.09c-.2,0-20.75-3.22-26.09-32.24-1.76-10.57.17-23.13,4.3-28,2.58-3,5.85-2.94,9.09.4C86,16.44,89.85,49,91.43,67.63ZM73.2,6.71a4.5,4.5,0,0,0-3.37,1.86c-4,4.68-5.79,16.88-4.07,27.19C70.43,61.18,87,66.27,90.38,67.06,87.69,35.88,83,14.75,77.44,9,76,7.49,74.53,6.71,73.2,6.71Z"/><path class="cls-2" d="M91.6,74.18S80.75,72.84,80.68,32.51C79.6,7.18,73.53,6.18,73.53,6.18c6.07,1,19.07,10.33,23.74,29.33,2.66,10.67,6.37,23.74,20.85,29.7C110.6,70.18,91.6,74.18,91.6,74.18Z"/><path class="cls-5" d="M98.18,71.68S86.51,73.76,86.43,33.43C85.36,8.09,73.53,6.18,73.53,6.18c6.07,1,19.07,10.33,23.74,29.33,2.66,10.67,6.37,23.74,20.85,29.7C110.6,70.18,98.18,71.68,98.18,71.68Z"/><path class="cls-6" d="M105.68,68.26s-15.92,6.25-16-34.08c-1.07-25.34-16.15-28-16.15-28,6.07,1,19.07,10.33,23.74,29.33,2.66,10.67,6.37,23.74,20.85,29.7C110.6,70.18,105.68,68.26,105.68,68.26Z"/><path class="cls-3" d="M91.62,74.68h-.08c-.46,0-11.29-1.85-11.36-42.16-1-24.28-6.69-25.83-6.74-25.84l.17-1c5.5.91,19.21,9.65,24.14,29.71,2.32,9.27,5.82,23.29,20.56,29.36l.87.36-.78.52c-7.52,5-25.92,8.87-26.7,9ZM75.74,7.35c2,2.55,4.75,9,5.44,25.14.07,37.77,9.52,41,10.41,41.18,1.42-.31,17.93-3.93,25.45-8.38C102.58,58.85,99.1,44.91,96.78,35.63,92.56,18.46,81.88,9.81,75.74,7.35Z"/><path class="cls-2" d="M306.18,198.68s11,32,5.25,39.75-30.17,28.25,23.79,28c6.22-3.29,16.64-36.25,16.64-36.25l-13.68-43.25Z"/><path class="cls-5" d="M328.93,247.18c9-5,3-14,2-23a5.5,5.5,0,0,0,5-3c1.69-11-3.05-22-11.19-29.32l-18.56,6.82s11,32,5.25,39.75c-2.49,3.35-8.48,9.1-10.09,14.52C310.82,253.1,320.22,251.83,328.93,247.18Z"/><path class="cls-3" d="M334.25,266.93c-19.7,0-30.55-2.78-33.19-8.5-2.55-5.55,3.23-12.31,7.46-17.25,1-1.17,1.87-2.19,2.51-3.05,5.53-7.45-5.21-39-5.32-39.29l-.16-.46,32.95-12.1,13.88,43.9,0,.15c-.43,1.35-10.56,33.2-16.88,36.54l-.11.06Zm-27.44-68c1.39,4.13,10.55,32.3,5,39.75-.66.89-1.54,1.91-2.55,3.1-4,4.74-9.6,11.22-7.31,16.18,2.42,5.26,13.28,7.92,32.28,7.92h.84c5.77-3.35,15.48-33.35,16.25-35.75l-13.48-42.6Z"/><path class="cls-7" d="M299.1,257.34s7.17-9.33,12.5-7,6.9,9.29,6.83,12.67-9.66,2.17-12.83,1.83S297.15,260.49,299.1,257.34Z"/><path class="cls-8" d="M299.1,257.34s7.64-10.2,12.5-7c2.63,1.73.62,7.31-.83,11.26a4.56,4.56,0,0,1-5.17,3.24C302.43,264.51,297.15,260.49,299.1,257.34Z"/><path class="cls-3" d="M312.42,265.83a61.88,61.88,0,0,1-6.37-.43l-.5-.06a10,10,0,0,1-6.93-4.78,3.43,3.43,0,0,1,.06-3.48c.26-.35,5.9-7.61,11.09-7.61a5,5,0,0,1,2,.42c6,2.63,7.19,10.37,7.13,13.13S314,265.83,312.42,265.83Zm-2.65-15.36c-4.71,0-10.22,7.11-10.27,7.18a2.45,2.45,0,0,0,0,2.47,9.17,9.17,0,0,0,6.13,4.23l.51,0a60.29,60.29,0,0,0,6.26.43c2,0,5.48-.24,5.51-1.83.07-3.58-1.64-10.06-6.53-12.2A4.06,4.06,0,0,0,309.77,250.47Z"/><path class="cls-7" d="M314.77,260.22s4.83-8,9.41-6.38,9.09,7,8.75,11.84C332.43,269,309.43,268.09,314.77,260.22Z"/><path class="cls-8" d="M314.77,260.22s4.83-8,9.41-6.38,2.56,6.34,2.23,11.17C325.91,268.34,311.27,266.43,314.77,260.22Z"/><path class="cls-3" d="M326.24,268c-5.1,0-10.91-1.26-12.4-4.07a3.7,3.7,0,0,1,.51-4c.16-.26,4.15-6.82,8.54-6.82a4.27,4.27,0,0,1,1.46.25c4.58,1.67,9.44,7.15,9.08,12.34C333.11,267.84,327.85,268,326.24,268Zm-3.35-13.88c-3.82,0-7.66,6.29-7.7,6.36a2.76,2.76,0,0,0-.47,3c1.23,2.32,6.73,3.54,11.52,3.54,4.09,0,6.11-.83,6.2-1.4.32-4.71-4.18-9.74-8.43-11.29A3.3,3.3,0,0,0,322.89,254.12Z"/><path class="cls-2" d="M153.81,188.43s10.12,28.5,9.62,38.25c-1,9.75.75,12.75,3.5,17.25,2.75,10.75-2.6,17.7-10.75,30.62,6.5,6.13,36.62,16.54,54-1.62-4-6-13-15.79-9-31.52,4.09-16.52,13.94-23.65,10.62-27.95C205.93,207.93,153.81,188.43,153.81,188.43Z"/><path class="cls-5" d="M191.93,257.65c6.92-19.76-7.41-24.66,1-53.65-17-7.3-39.16-15.57-39.16-15.57s10.12,28.5,9.62,38.25c-1,9.75.75,12.75,3.5,17.25,2.25,8.8-.93,15.06-6.63,24.14C177.33,277.87,189.14,268.83,191.93,257.65Z"/><path class="cls-3" d="M184.33,283.63h0c-13.13,0-24.76-5.2-28.49-8.71l-.3-.28.22-.35c.71-1.13,1.4-2.22,2.07-3.26,6.89-10.81,11-17.34,8.64-26.91-2.65-4.33-4.56-7.51-3.53-17.49.48-9.52-9.5-37.75-9.6-38l-.36-1,1,.38c2.13.8,52.28,19.6,58.15,25.14,1.94,2.5.16,5.54-2.53,10.16a66.09,66.09,0,0,0-7.94,18.27c-3.47,13.66,3,22.78,7.33,28.82.58.82,1.12,1.59,1.6,2.3l.22.33-.28.29C204.06,280.05,195,283.63,184.33,283.63Zm-27.5-9.16c4,3.51,15.52,8.16,27.5,8.16h0c10.24,0,18.94-3.38,25.21-9.76-.41-.61-.87-1.25-1.36-1.94-4.41-6.19-11.07-15.54-7.48-29.64a67,67,0,0,1,8.05-18.54c2.49-4.26,4.13-7.08,2.66-9-5.24-4.93-49.51-21.76-56.77-24.5,1.82,5.24,9.74,28.63,9.29,37.43-1,9.73.77,12.61,3.43,17l.06.13c2.56,10-1.7,16.7-8.75,27.77C158.08,272.5,157.46,273.46,156.83,274.47Z"/><path class="cls-2" d="M133.18,174.05s23.42,27.13,49.42,33.13c13.33,10,21.33,14.66,46.67,6s32.66.66,48.66-2.67c12.67,2,44.67-8.33,57.34-16.33,5,8,9,20,8.66,31.33s-2.66,18.67-4.66,22.67-12.67,17.33-7.67,23.33,23,15.33,52.33,3.67c.17-12.84-11.66-10.33-8.66-28.67,2-13.33,9.66-24,7.33-36-1.33-9.33,15.67-27.66,23.67-41s34.16-49.83-2.84-95.33c-28-34.5-48-44.5-83.5-38-17,3.5-41.5,7.5-79-8.5-19.5-19-31.5-21-44-21.5s-43.82,11-69.5,68C126.47,88.62,133.18,174.05,133.18,174.05Z"/><path class="cls-6" d="M202.06,198.53c.29-.11.58-.22.87-.35C202.41,198.18,202.17,198.32,202.06,198.53Z"/><path class="cls-5" d="M403.43,74.18c-28-34.5-48-44.5-83.5-38-17,3.5-41.5,7.5-79-8.5-19.5-19-31.5-21-44-21.5s-43.82,11-69.5,68c-.56,8.39,1.48,40.78,3.28,66.43,5.27,15.59,10.71,31.2,25.22,41.57,10,8,19-4,27-10-3,6-5,12-1,18,3.87,5.8,11.49,11.61,20.13,8.35.11-.21.29-.11,0,0-.29.62,28.87,29.94,81.87-11.35,13-9.75,6-25,10-38,1-4,4-11,9-7,9,6,1,22,13,26,11.75,3.91,24.35-.27,33.91-8.09,29.87-42.24-10.21-87.77-9.15-87,22.91,17.26,31.76,46.57,30.9,64.55-1.74,36.16-37.1,57-36.32,56.51,5,8,9,20,8.66,31.33s-2.66,18.67-4.66,22.67-12.67,17.33-7.67,23.33,15,13,44.34,1.38c.16-12.83-11-10.91-8-29.24,2-13.34,10.34-24.48,8-36.48-1.34-9.34,15-27.14,23-40.47S429.07,108.68,403.43,74.18Z"/><path class="cls-6" d="M141.93,157.18c21,13,51,5,61-20,3,20-18.46,50.68,9.54,56.68,21,5,53.46,5.32,58.46-21.68,3-21-11-40-5-60,1-3,3-13,9-9,7,4,2,16,9,21,9,6,19,1,27-4,3-1,8,0,9,2,6,11,12.33,38.3,24.33,28.3,23-20,2.67-62.3-7.33-84.3,28,9,38,35.57,39,64.57,0,22-6,40.43-19,56.43-13,15-2.5,17.84-7.5,62.91-.59,5.36,12.84,10.47,14.5-17.91,8-54.18,23.08-51.25,37.5-82.52C427.11,94,396,65.24,365.62,40.35c-13.26-6.48-27.42-7.52-45.69-4.17-17,3.5-41.5,7.5-79-8.5-19.5-19-31.5-21-44-21.5s-43.82,11-69.5,68c-.56,8.39,1.48,40.78,3.28,66.43,1,2.9,2,5.81,3,8.69A47.9,47.9,0,0,0,141.93,157.18Z"/><path class="cls-3" d="M357.5,281.25c-13.61,0-22.66-5.07-26.28-9.42-4.24-5.09,1.91-14.77,5.59-20.56.87-1.36,1.62-2.54,2-3.32,1.57-3.13,4.25-10.22,4.61-22.45.35-11.95-4-23.57-8.33-30.63-11.86,7.3-39.11,16.39-53.52,16.39A24.63,24.63,0,0,1,278,211a36,36,0,0,1-7.32.74,67,67,0,0,1-9.65-.89,75.72,75.72,0,0,0-11.16-1,61.83,61.83,0,0,0-20.39,3.78c-9.13,3.12-16.14,4.58-22.07,4.58h0c-10.06,0-16.43-4.19-25-10.59-25.82-6-49.34-33-49.58-33.26l-.1-.13,0-.16c-.06-.85-6.7-85.63-5.75-99.95l0-.17C156.91,7.58,192.22,5.66,196.15,5.66l.8,0c12.61.5,24.64,2.48,44.27,21.57,18.29,7.8,35.17,11.59,51.57,11.59a129.06,129.06,0,0,0,27-3.15,103.56,103.56,0,0,1,18.67-1.88c23.92,0,41.63,10.86,65.32,40.05,35.24,43.33,13.56,78.53,4.31,93.56-.52.85-1,1.63-1.43,2.35-2.52,4.19-5.83,8.75-9.34,13.59-7.45,10.26-15.15,20.87-14.27,27.08,1.46,7.47-.9,14.41-3.4,21.75a82.28,82.28,0,0,0-3.93,14.4c-1.66,10.14,1.31,13.75,4.17,17.25,2.25,2.74,4.58,5.58,4.5,11.34v.34l-.31.12C374.76,279.36,365.8,281.25,357.5,281.25Zm-22.07-87.76.26.42c4.47,7.15,9.11,19.2,8.74,31.62s-3.11,19.66-4.72,22.87c-.41.82-1.13,2-2,3.41-3.53,5.56-9.45,14.85-5.68,19.38,3.49,4.18,12.26,9.06,25.52,9.06a71.32,71.32,0,0,0,25.93-5.41c0-5.18-2.08-7.7-4.27-10.36-3-3.67-6.12-7.47-4.39-18.05a83.14,83.14,0,0,1,4-14.56c2.46-7.21,4.78-14,3.37-21.26-.95-6.64,6.87-17.42,14.44-27.84,3.5-4.82,6.8-9.36,9.29-13.52.43-.71.91-1.5,1.44-2.35,9.14-14.85,30.55-49.63-4.23-92.41-23.48-28.92-41-39.68-64.55-39.68A102.27,102.27,0,0,0,320,36.67a129.81,129.81,0,0,1-27.23,3.17c-16.57,0-33.59-3.83-52.05-11.7l-.16-.1C221.17,9.12,209.32,7.17,196.91,6.68l-.76,0c-3.86,0-38.56,1.9-68.22,67.64-.9,14.2,5.41,95.31,5.74,99.55,1.75,2,24.39,27.15,49,32.84l.19.09c8.42,6.31,14.66,10.45,24.45,10.45h0c5.81,0,12.72-1.44,21.74-4.53a63,63,0,0,1,20.72-3.83,75.91,75.91,0,0,1,11.3,1,67,67,0,0,0,9.51.88,34.85,34.85,0,0,0,7.2-.74l.09,0,.09,0a23.59,23.59,0,0,0,3.57.24c14.44,0,41.9-9.23,53.42-16.51Z"/><path class="cls-2" d="M204.66,138.18s-.39,17.66-18.73,34.33-34.66,27-54.66,13.33c-13-9.33-45.34-88-18.67-114.66,21.33-17.34,26-24,50-13.34Z"/><path class="cls-5" d="M204.66,138.18s-.39,17.66-18.73,34.33-30.75,17.4-50.75,3.73c-13-9.33-49.25-78.4-22.58-105.06,21.33-17.34,26-24,50-13.34Z"/><path class="cls-6" d="M204.66,138.18s-2.06,11.48-20.39,28.15C165,179.51,193.89,146,176,113.4c4.08,34.64-23.44,59.28-36.37,50.44-13-9.33-53.67-66-27-92.66,21.33-17.34,26-24,50-13.34,0,0,21.55,13.11,27.12,21.34C210.06,109.18,204.66,138.18,204.66,138.18Z"/><path class="cls-3" d="M149.69,192.6c-5.93,0-12.14-1.86-18.71-6.34-9.06-6.51-26.25-44.56-28.79-75.67-1.49-18.23,1.9-31.61,10.06-39.77,1.84-1.5,3.53-2.89,5.11-4.2,17.35-14.3,23.19-19.12,45.44-9.23l-.4.91C140.71,48.66,135,53.38,118,67.39c-1.59,1.31-3.28,2.71-5.08,4.18-7.91,7.9-11.2,21-9.73,38.93,2.51,30.87,19.46,68.54,28.37,74.94,18.81,12.86,34.06,4.86,54-13.3,18-16.34,19.16-34.8,19.17-35,0,0-.23,19.12-18.5,35.73C175,183.12,163.07,192.6,149.69,192.6Z"/><path class="cls-2" d="M175,110.33s15.77,46-33.13,80.69c-26.4,19.66-49.23,33.16-68.56,33.82-16.34,1.67-8.67-44-5-72.33-2.34-13.67-11.67-30.67,5.66-70.33,5.34-12.67,27.25-23.25,43.75-19,7.82-2.49,38.5-5.5,43,17Z"/><path class="cls-5" d="M175,110.33s14.12,37.92-34.78,72.58c-26.4,19.66-43,27.89-62.3,28.55-16.34,1.67-13.28-30.61-9.61-59-2.34-13.67-11.67-30.67,5.66-70.33,5.34-12.67,27.25-23.25,43.75-19,7.82-2.49,38.5-5.5,43,17Z"/><path class="cls-6" d="M175,110.33s14.21,26.78-34.69,61.45c-9.09,6.76-16.63,12.42-23.4,17-5.46,3.65-7.91,1.76-8.44-16.07-6.64,3-19.93,29.49-27.25,29.75-16.33,1.66-16.58-21.58-12.91-49.92-2.34-13.67-11.67-30.67,5.66-70.33,5.34-12.67,27.25-23.25,43.75-19,7.82-2.49,38.5-5.5,43,17Z"/><path class="cls-5" d="M87.24,124.41c-2,13.39-8.92,23.45-15.44,22.48s-10.19-12.63-8.18-26,8.92-23.46,15.45-22.48S89.25,111,87.24,124.41Z"/><path class="cls-5" d="M101.86,138.59s15.71,12.09,39.4-11.21c-8.86-22.4-14.69-37.16-27.19-34.82S100.11,126.37,101.86,138.59Z"/><path class="cls-3" d="M72.4,225.39a6.8,6.8,0,0,1-5.06-2.15c-8-8.23-3.88-38.65-.59-63.1.35-2.64.7-5.19,1-7.62-.37-2.16-.93-4.44-1.51-6.84C63.13,132.9,58.87,115.4,73.47,82c5.13-12.18,26.94-23.68,44.2-19.32,5.93-1.83,22.24-3.6,33.26,2.9a20.93,20.93,0,0,1,10.24,14.52l-1,.2a20,20,0,0,0-9.77-13.86c-10.81-6.38-26.9-4.57-32.59-2.77l-.13.05-.14,0c-16.85-4.34-38.17,6.85-43.17,18.71-14.47,33.12-10.25,50.43-7.17,63.07.6,2.45,1.16,4.77,1.54,7v.15c-.31,2.45-.66,5-1,7.7-3.09,22.95-7.32,54.39.31,62.26a5.94,5.94,0,0,0,5.17,1.81c16.93-.59,37.35-10.68,68.31-33.73,25.11-17.8,32.86-38.67,34.94-53C178.72,122,175,110.45,175,110.33s4.78,11.53,2.5,27.34c-2.1,14.58-9.93,35.75-35.34,53.76C111,214.61,90.4,224.75,73.28,225.34,73,225.37,72.69,225.39,72.4,225.39Z"/><path class="cls-3" d="M112.35,68s2-4.85,6.83-5.7l.17,1C115,64,112.38,67.91,112.35,68Z"/><path class="cls-3" d="M116.43,154.44a12.87,12.87,0,0,1-9.18-4.15,15.57,15.57,0,0,0,11.24,3c5.19-.76,10-4.43,14.28-10.89,0,0-4.34,9.87-14.15,11.89A15.17,15.17,0,0,1,116.43,154.44Z"/><path class="cls-9" d="M69.18,101.43s5.75-8.75,8.25-10.5S71.18,88.68,69.18,101.43Z"/><path class="cls-9" d="M129.18,98.68s-6.42-12.42-15.75-12C116.43,83.68,129.18,82.68,129.18,98.68Z"/><path class="cls-10" d="M102.36,138.51s-4.64-30,11.07-35.67c8.17-2.5,17.34,12.5,21.17,29.67C124.93,136,102.36,138.51,102.36,138.51Z"/><path class="cls-2" d="M108.65,105.81c-9.88,9.41-6.29,32.7-6.29,32.7s14-1.55,24.71-3.93C129.07,123.72,117.18,101.43,108.65,105.81Z"/><path class="cls-3" d="M101.94,139.06l-.08-.47c-.19-1.25-4.51-30.5,11.4-36.22a6.93,6.93,0,0,1,2-.3c8.48,0,16.54,15.63,19.83,30.33l.09.43-.41.15c-9.61,3.48-32.13,6-32.36,6Zm13.32-36a5.65,5.65,0,0,0-1.68.25c-14.06,5.06-11.29,30.8-10.8,34.64,3.28-.38,22.32-2.69,31.23-5.77C130.27,115.83,122.07,103.07,115.26,103.07Z"/><path class="cls-10" d="M63.81,124.46s4.29-19.12,13.29-17.95c3.5.67,4.83,10.78,2.17,23.54C74.6,129.68,63.81,124.46,63.81,124.46Z"/><path class="cls-2" d="M75.19,106.58c-7.7,1.49-11.38,17.88-11.38,17.88a108.49,108.49,0,0,0,11,4.52C77.61,121.4,80,109.16,75.19,106.58Z"/><path class="cls-3" d="M79.67,130.58l-.44,0c-4.71-.38-15.2-5.43-15.64-5.64l-.36-.18.09-.38c.17-.78,4.5-19.55,13.84-18.33a3.2,3.2,0,0,1,2.07,1.52c2.39,3.59,2.6,12.67.53,22.61Zm-15.28-6.4c1.85.87,10.26,4.77,14.48,5.33,2.21-10.91,1.32-18.73-.47-21.41A2.31,2.31,0,0,0,77,107a5.27,5.27,0,0,0-.7,0C69,107,65,121.59,64.39,124.18Z"/><path class="cls-11" d="M102.36,138.51s9.24,20.33,32.24-6c-5.67-14.33-12.17-19.67-20.17-18.17S102.78,121.51,102.36,138.51Z"/><path class="cls-3" d="M113.58,146.5h0c-8,0-11.64-7.7-11.68-7.78l-.05-.11v-.11c.4-16.34,3.79-23,12.48-24.65s15.08,4.21,20.72,18.48l.12.28-.2.23C127.06,141.9,119.86,146.5,113.58,146.5Zm-10.72-8.1c.43.87,3.8,7.1,10.72,7.1h0c5.93,0,12.8-4.4,20.44-13.09-5.41-13.56-11.5-19.07-19.49-17.57C107.49,116.15,103.32,120.44,102.86,138.4Z"/><path class="cls-11" d="M79.27,130.55c0,9.09-3.59,16.46-8,16.46s-8-7.37-8-16.46,3.59-16.45,8-16.45S79.27,121.47,79.27,130.55Z"/><path class="cls-3" d="M71.25,147.51c-4.78,0-8.52-7.45-8.52-17s3.74-17,8.52-17,8.52,7.45,8.52,17S76,147.51,71.25,147.51Zm0-32.91c-4.14,0-7.52,7.16-7.52,16s3.38,16,7.52,16,7.52-7.16,7.52-16S75.39,114.6,71.25,114.6Z"/><ellipse class="cls-9" cx="118.12" cy="132.99" rx="9.31" ry="10.55"/><path class="cls-9" d="M78.27,129.24c0,4.81-2.61,8.7-5.84,8.7s-5.83-3.89-5.83-8.7,2.61-8.7,5.83-8.7S78.27,124.44,78.27,129.24Z"/><path class="cls-11" d="M75.18,123.69a1.89,1.89,0,1,1-1.6-2.14A1.89,1.89,0,0,1,75.18,123.69Z"/><path class="cls-11" d="M78.38,126.66a1.18,1.18,0,1,1-1-1.34A1.19,1.19,0,0,1,78.38,126.66Z"/><path class="cls-6" d="M67.7,150.68s4.23-16.75,15-16c8.25.75,9.76,11.09,9.76,11.09Z"/><path class="cls-5" d="M77.21,138.92l-8.34,21.37c2.06,4.64,12.28,3.34,18.92-6.39C93.68,144.18,83.17,131.33,77.21,138.92Z"/><path class="cls-3" d="M68.18,150.8l-1-.25c.18-.7,4.48-17.14,15.51-16.37,8.53.77,9.72,11.59,9.72,11.59s-2-9.89-9.8-10.59C72.46,134.47,68.22,150.64,68.18,150.8Z"/><path class="cls-12" d="M59.27,129.67S59,156.22,67.7,160c4.73,2,16.9-6.08,16.9-14,0-6-2.29-5.35-8.67-7.49C64.45,134.65,59.24,127.48,59.27,129.67Z"/><path class="cls-13" d="M59.27,129.67s5.15,23.21,12.15,25.83c5.27,2.35,13.18-1.57,13.18-9.5,0-6-2.29-5.35-8.67-7.49C64.45,134.65,59.24,127.48,59.27,129.67Z"/><path class="cls-11" d="M61.18,131.51s6.42,17.67,11.06,19.29c5.27,2.35,12.36,1,12.36-4.8,0-6-2.29-5.35-8.67-7.49C64.45,134.65,60,128.66,61.18,131.51Z"/><path class="cls-3" d="M69.41,160.82h0a4.93,4.93,0,0,1-1.91-.35c-8.92-3.88-8.75-29.71-8.73-30.81A.89.89,0,0,1,59,129a.68.68,0,0,1,.52-.21c.51,0,1.13.45,2.62,1.58a47.77,47.77,0,0,0,14,7.7c1.14.38,2.15.67,3,.93,4.11,1.2,6,1.74,6,7,0,3.34-2.09,7.06-5.73,10.2C76.12,159,72.21,160.82,69.41,160.82Zm-9.64-30.95c0,2.93.29,26.27,8.13,29.68a3.84,3.84,0,0,0,1.51.27c2.58,0,6.23-1.72,9.31-4.38,3.42-2.95,5.38-6.39,5.38-9.44,0-4.54-1.22-4.89-5.26-6.07-.9-.26-1.91-.56-3.07-1a48.48,48.48,0,0,1-14.23-7.84C60.86,130.63,60.17,130.1,59.77,129.87Z"/><path class="cls-3" d="M147.6,84.9s25,11.61,40.67-17.22c9.66-18.5,13.81-33.49,10.9-42.33C191.6,24.84,175.7,28.52,147.6,84.9Z"/><path class="cls-4" d="M199.17,25.35c-4.82-.32-13,1.06-25.56,16.62a10.74,10.74,0,0,1,9.32,3.21,6.68,6.68,0,0,1,1,10c-5,4-12,11-8,16,1.46,2.43,4.1,3.67,7.12,4.31a49.5,49.5,0,0,0,5.22-7.81C197.93,49.18,202.08,34.19,199.17,25.35Z"/><path class="cls-3" d="M159.48,87.71h0a31,31,0,0,1-12.09-2.36l-.47-.21.23-.46C167.23,44.39,183.88,24.81,198,24.81c.41,0,.8,0,1.17,0l.33,0,.11.32c2.88,8.75-.91,23.52-10.94,42.72C179.82,84.28,167.9,87.71,159.48,87.71Zm-11.2-3.06a31.61,31.61,0,0,0,11.2,2.06c8.15,0,19.69-3.34,28.35-19.27,9.77-18.71,13.56-33.09,11-41.61l-.76,0C184.54,25.81,167.8,45.6,148.28,84.65Z"/><path class="cls-3" d="M332.52,196.35l-.46-.89c.39-.2,38.87-20.53,38.87-57.78,0-39.11-26.27-62.4-30.24-64.56,0,0,10,4.93,19.68,21.52a86.78,86.78,0,0,1,11.56,43C371.93,175.54,332.91,196.15,332.52,196.35Z"/><path class="cls-3" d="M347.43,127.23c-4.41-44.63-26.88-50-27.1-50.06,0,0,12.51,2,20.93,20.65C347.43,111.68,347.43,127.23,347.43,127.23Z"/><path class="cls-3" d="M278.19,210.94l-.52-.86c.18-.1,17.52-10.75,20.77-27.17C298.44,182.91,297.27,198.18,278.19,210.94Z"/><path class="cls-3" d="M360.59,263.38a10,10,0,0,0-10.45-1.91,7.39,7.39,0,0,1,5.81-1.53C357.66,260.25,360.59,263.38,360.59,263.38Z"/><path class="cls-7" d="M326.27,271.84s2.66-12.35,11-11.59c6.5,1.09,8.31,13.65,6.07,18.37C341.6,281.34,324.93,278.68,326.27,271.84Z"/><path class="cls-8" d="M326.27,271.84s2.66-12.35,11-11.59c6.5,1.09,2.57,12,.33,16.76C335.86,279.73,324.93,278.68,326.27,271.84Z"/><path class="cls-3" d="M339.53,280.17c-4.38,0-10.33-1.71-12.7-4.59a4.48,4.48,0,0,1-1.06-3.83c.12-.52,2.91-12.79,11.54-12,2.19.37,4,1.92,5.37,4.49,2.24,4.3,2.76,11.12,1.11,14.6C343.09,280,341.09,280.17,339.53,280.17Zm-3-19.45c-7.28,0-9.76,11.12-9.79,11.23a3.54,3.54,0,0,0,.85,3c2.18,2.64,7.78,4.22,11.93,4.22,2.11,0,3.14-.42,3.39-.82,1.33-2.81,1.15-9.28-1.13-13.65-.82-1.59-2.3-3.57-4.61-3.95A6.4,6.4,0,0,0,336.54,260.72Z"/><path class="cls-7" d="M345,279.13s1.91-11.12,10.41-11.62c4.17.17,9.36,5.85,10.68,12.59C366.93,283.68,343.94,285.25,345,279.13Z"/><path class="cls-8" d="M345,279.13s1.91-11.12,10.41-11.62c4.17.17,3.7,5.92,5,12.66C361.27,283.75,343.94,285.25,345,279.13Z"/><path class="cls-3" d="M355,283.76c-2.32,0-7.93-.25-9.84-2.52a2.56,2.56,0,0,1-.59-2.2c0-.11,2.08-11.51,10.87-12,4.67.19,9.89,6.26,11.2,13a1.36,1.36,0,0,1-.31,1.2C365,282.88,359.58,283.76,355,283.76Zm.45-15.75c-8,.47-9.88,11.1-9.9,11.21a1.6,1.6,0,0,0,.38,1.38c1.13,1.35,4.53,2.16,9.07,2.16,4.86,0,9.59-1,10.55-2.18a.42.42,0,0,0,.12-.36C364.29,273.4,359.13,268.16,355.41,268Z"/><path class="cls-7" d="M367.93,279.67s.36-10.12,7-11.49c4.5-.17,8.84,1.33,9,7C383.43,279.18,368.43,283,367.93,279.67Z"/><path class="cls-8" d="M367.93,279.67s.36-10.12,7-11.49c4.5-.17,4.17,2.16,4.34,7.83C378.77,280,368.43,283,367.93,279.67Z"/><path class="cls-3" d="M370.89,281.44c-2.64,0-3.34-.92-3.45-1.69,0-.52.45-10.63,7.39-12.06.31,0,.53,0,.75,0,5.57,0,8.71,2.66,8.85,7.49C384,278.76,375.15,281.44,370.89,281.44Zm4.69-12.77H375c-6.1,1.26-6.51,10.91-6.52,11,.08.44,1,.75,2.46.75,4.59,0,12.24-2.91,12.55-5.32C383.27,269.8,379.08,268.67,375.58,268.67Z"/><path class="cls-3" d="M327.91,250.09c-4.12-2.74-7.27-.15-7.4,0a4.33,4.33,0,0,1,3.85-2.2A4.68,4.68,0,0,1,327.91,250.09Z"/><path class="cls-3" d="M189.91,208.26a38.23,38.23,0,0,1-9.86-1.22l.28-1a38.3,38.3,0,0,0,18.81,0S195.93,208.26,189.91,208.26Z"/><path class="cls-2" d="M218.93,211.68s4.75,11,5.25,15c-1.75,3.25-4.41,14.33,3.75,22.33.17,1.33.17,9.17-3.83,14s-11,16.33-8.83,20.25c2,3.58,35.83,14.58,54.83-4.92-6-12.33-7.67-10.23-9-17.78s-2.83-13.05-2.83-13.05c1.16-4.17-.17-9.67-.17-9.67.83-2.33,1.83-7.5,1.17-9.5,0-3.66,2.15-11.27,8-17.22C258.69,210.05,245.43,204.51,218.93,211.68Z"/><path class="cls-5" d="M252.93,269.18c3-8,2-24-9-26,5-4,10-8,12-14,1-4,0-6-3-8,5.69-1.63,7.42-6.55,8.94-11-8.64-1.75-21.42-4.3-42.94,1.52,0,0,4.75,11,5.25,15-1.75,3.25-4.41,14.33,3.75,22.33.17,1.33.17,9.17-3.83,14s-11,16.33-8.83,20.25c.78,1.4,6.48,3.95,14.26,5.35C239.79,285.44,248.34,279.51,252.93,269.18Z"/><path class="cls-6" d="M240.93,267.18c6-5,2-15-1-22-3-8,10-21-1-26-6.06-3-11,.83-15.18,5.49a15.39,15.39,0,0,1,.43,2c-1.75,3.25-4.41,14.33,3.75,22.33.17,1.33.17,9.17-3.83,14a58.29,58.29,0,0,0-4.65,6.7A16.38,16.38,0,0,0,240.93,267.18Z"/><path class="cls-3" d="M240.38,290.1h0c-12.85,0-24.26-4.28-25.55-6.6-2.52-4.55,5.75-17,8.88-20.81,3.76-4.53,3.89-11.76,3.74-13.45-8.48-8.46-5.25-19.76-3.78-22.65-.59-4-5.15-14.61-5.2-14.71l-.23-.53.56-.16a95.34,95.34,0,0,1,25-3.62,85.83,85.83,0,0,1,18.2,2.11c2,.4,3.71.75,5.28.95l1,.12-.7.72c-5.72,5.82-7.82,13.2-7.85,16.8.67,2.22-.36,7.31-1.15,9.6.21.92,1.2,5.75.16,9.64.24.89,1.6,6.12,2.81,13a15.17,15.17,0,0,0,3.13,7.57,68.2,68.2,0,0,1,5.83,10.09l.15.31-.24.25C261.27,288.12,249,290.1,240.38,290.1ZM219.62,212c1,2.28,4.61,11,5.06,14.61l0,.16-.08.14c-1.35,2.51-4.69,13.55,3.66,21.73l.13.13,0,.17c.17,1.37.18,9.4-3.94,14.38S213.73,279.44,215.7,283c1,1.76,11.88,6.09,24.68,6.09,8.38,0,20.2-1.89,29.12-10.85a66.61,66.61,0,0,0-5.61-9.65,16,16,0,0,1-3.28-8c-1.32-7.44-2.81-12.95-2.83-13l0-.13,0-.13c1.11-4-.16-9.36-.18-9.42l0-.14.05-.14c.88-2.47,1.75-7.4,1.16-9.18l0-.16c0-3.59,2-10.9,7.46-16.86-1.34-.2-2.78-.49-4.39-.82a85.06,85.06,0,0,0-18-2.09A93.58,93.58,0,0,0,219.62,212Z"/><path class="cls-3" d="M258.78,228.47c-.93-3.71-4.83-5.31-4.87-5.33s4.79.88,5.84,5.08Z"/><path class="cls-3" d="M249.26,245.71c.07,0,6.71-2.58,8.73-9.21l1,.29C256.78,243.91,249.26,245.71,249.26,245.71Z"/><path class="cls-3" d="M224,228.49l-1-.29a7.43,7.43,0,0,1,6.63-5.06A9.8,9.8,0,0,0,224,228.49Z"/><path class="cls-3" d="M251,270.33c-10.35-8.5-17.54-2.07-17.84-1.8a10,10,0,0,1,8.89-3.45C247.1,265.83,251,270.33,251,270.33Z"/><path class="cls-3" d="M165,241.59l.93-.36a7.56,7.56,0,0,0,8,4.45S168.93,247.93,165,241.59Z"/><path class="cls-3" d="M177.33,265.11s1.23-3.17,4.24-3.89a5.29,5.29,0,0,1,5.68,2.35C181.84,259.43,177.51,264.88,177.33,265.11Z"/><path class="cls-7" d="M155.31,274.8s6.62-11.37,10.87-10,6.63,10.28,6.13,15.95S154.68,280.18,155.31,274.8Z"/><path class="cls-8" d="M155.31,274.8s6.76-11.74,10.87-10c2.42,1,2.25,7.4,1.75,13.07S154.68,280.18,155.31,274.8Z"/><path class="cls-3" d="M168.7,283.44c-4.14,0-10-2.51-12.56-5.37a4.32,4.32,0,0,1-1.33-3.33l.07-.19c.24-.42,6.08-10.36,10.55-10.36a2.75,2.75,0,0,1,.91.14c4.63,1.49,7,10.9,6.47,16.47C172.69,281.79,172,283.44,168.7,283.44ZM155.8,275a3.44,3.44,0,0,0,1.09,2.44c2.34,2.64,8,5,11.81,5,1.33,0,3-.3,3.11-1.74.47-5.3-1.75-14.12-5.78-15.42a2,2,0,0,0-.6-.09C162.23,265.19,157.45,272.15,155.8,275Z"/><path class="cls-7" d="M173.16,281.89s3.15-13.53,9.09-14.18c5.56-.66,12.73,6.82,13.64,13.83C196.18,285.05,172.39,287.24,173.16,281.89Z"/><path class="cls-8" d="M173.16,281.89s3.15-13.53,9.09-14.18c5.56-.66,6.43,6.79,7.34,13.8C189.88,285,172.39,287.24,173.16,281.89Z"/><path class="cls-3" d="M182,285.6c-2.62,0-7.24-.26-8.8-2.06a2.13,2.13,0,0,1-.51-1.72c.14-.61,3.3-13.92,9.52-14.61a6.28,6.28,0,0,1,.75,0c5.63,0,12.54,7.35,13.45,14.31a1.54,1.54,0,0,1-.44,1.16C194.26,284.47,187.38,285.6,182,285.6Zm1-17.43c-.21,0-.43,0-.64,0-5.52.62-8.62,13.68-8.65,13.81a1.1,1.1,0,0,0,.29.88c.93,1.07,3.94,1.71,8,1.71,5.75,0,11.93-1.23,13.23-2.64a.53.53,0,0,0,.18-.38C194.54,275.08,188.14,268.17,182.94,268.17Z"/><path class="cls-7" d="M199,280.48s-2.28-14.33,2.1-17.32c3.25-2.36,9.78,5.13,10.37,7.77C212.47,275.55,199.4,284.54,199,280.48Z"/><path class="cls-8" d="M199,280.48s-2.28-14.33,2.1-17.32c3.25-2.36,5.61,7.14,6.21,9.77C208.31,277.56,199.4,284.54,199,280.48Z"/><path class="cls-3" d="M200.22,282a1.59,1.59,0,0,1-1.76-1.47c-.09-.58-2.27-14.66,2.32-17.79a2.92,2.92,0,0,1,1.73-.54c3.84,0,8.88,6.26,9.41,8.61.29,1.28-.32,2.91-1.75,4.7C207.5,278.86,202.67,282,200.22,282Zm2.29-18.8a1.91,1.91,0,0,0-1.16.36c-3.38,2.31-2.52,12.94-1.9,16.84,0,.3.12.6.77.6,2.12,0,6.75-3.09,9.17-6.11,1.22-1.53,1.77-2.9,1.56-3.86C210.45,268.83,205.55,263.21,202.51,263.21Z"/><path class="cls-3" d="M237.24,24.87l.69-.72c.21.21,21.09,20.35,32.06,25.92C270,50.07,260.77,47.68,237.24,24.87Z"/><path class="cls-14" d="M432.1,153.34s-5.67,9.84-1.5,20.84c2.33,6.5,6.17,10.33,6.67,12,1.83-1,1.83-3.84,1.83-3.84,1.17.67,6.83,10.34,3.17,21.5,3.66-2.33,5.83-15,4.5-19.16,1.5,2.33,3.16,6.33,4.83,6.66-1.5-4,.17-12-4-16.33,3.17,2.67,5,1.67,5,1.67-2.17-4-5.17-9.84-6.5-13S435,149.45,434,151.81l1.53,3.26C434.43,155.18,432.1,153.34,432.1,153.34Z"/><path class="cls-15" d="M434,151.81l1.53,3.26c-1.07.11-3.4-1.73-3.4-1.73l0,0c.48,5.72-1.88,12.19,1.85,17.8,1-1-1-3,1-4,1,6,5,9,7,14v-4a7.81,7.81,0,0,1,4,4c2-4-3-8-2-12a25.51,25.51,0,0,0,7.44,5.19c-2-3.7-4.18-8.09-5.27-10.69C444.77,160.51,435,149.45,434,151.81Z"/><path d="M441.35,205l.44-1.33a24.6,24.6,0,0,0-2.31-20.2,4.42,4.42,0,0,1-2,3.13l-.55.29-.17-.59a12.8,12.8,0,0,0-1.51-2.47,40.4,40.4,0,0,1-5.15-9.5c-4.2-11.09,1.48-21.16,1.54-21.26l.28-.5.46.36a12.58,12.58,0,0,0,2.19,1.39l-1.18-2.52.09-.21a1,1,0,0,1,1-.63c2.67,0,10.84,9.59,12.07,12.5,1.3,3.08,4.27,8.88,6.48,13l.24.44-.44.24c-.08,0-1.22.69-3.34-.27,1.38,2.67,1.59,6,1.79,8.93a20.82,20.82,0,0,0,.78,5.39l.31.84-.88-.18c-1.42-.28-2.6-2.38-3.85-4.64.25,5.55-1.81,15-5.12,17.08Zm-2.75-23.54.75.43c1.42.82,6.46,9.7,3.94,20.15,2.67-4,4.09-13.82,3-17.23l-1.16-3.62,2.06,3.2c.41.64.83,1.39,1.27,2.19a20.93,20.93,0,0,0,2.3,3.6,28,28,0,0,1-.47-4.36c-.23-5.12-1.57-10-4.11-12.62l1.74,1.41c1.89,1.59,3.23,1.78,3.94,1.72-2.19-4.06-5-9.51-6.22-12.48s-9-11.54-11-11.88l1.64,3.5-.85.08a7.21,7.21,0,0,1-3.13-1.47c-1,2.12-4.71,10.64-1.2,19.9a39.23,39.23,0,0,0,5,9.28,23.87,23.87,0,0,1,1.38,2.13,4.79,4.79,0,0,0,1.12-3.07Z"/><path class="cls-7" d="M214.06,282.18s7.25-11,11.87-9c3.63,1.75,4.23,12.13,3.62,15.44C228.81,290.93,211.43,286.93,214.06,282.18Z"/><path class="cls-8" d="M214.06,282.18s7.25-11,11.87-9c2.2,1.59-.84,10.47-1.45,13.78C223.74,289.27,211.43,286.93,214.06,282.18Z"/><path class="cls-3" d="M227.39,289.79c-3.64,0-11.81-2.05-13.71-5.27a2.49,2.49,0,0,1-.06-2.58c.28-.42,6.32-9.51,11.11-9.51a3.47,3.47,0,0,1,1.4.29c4.08,2,4.5,12.77,3.91,16C229.8,289.46,228.94,289.79,227.39,289.79Zm-2.66-16.36c-4.26,0-10.2,8.93-10.25,9a1.47,1.47,0,0,0,.06,1.56c1.53,2.59,9,4.78,12.85,4.78,1.28,0,1.65-.26,1.68-.32.64-3.48-.18-13.31-3.35-14.84A2.47,2.47,0,0,0,224.73,273.43Z"/><path class="cls-7" d="M230.89,288.84s1.54-15.15,10.42-15.91c7.87-.75,15.43,8.08,16.22,13.66C258.06,290.68,229.81,294.11,230.89,288.84Z"/><path class="cls-8" d="M230.89,288.84s1.54-15.15,10.42-15.91c6.12-.82,8.86,8.95,9.64,14.53C251.48,291.54,229.81,294.11,230.89,288.84Z"/><path class="cls-3" d="M238.56,292c-2.89,0-6.6-.31-7.79-1.78a1.71,1.71,0,0,1-.37-1.51c0-.58,1.68-15.52,10.87-16.3a8.1,8.1,0,0,1,1-.05c7.86,0,15,8.57,15.76,14.14a1.63,1.63,0,0,1-.46,1.3C255.48,290.19,245.64,292,238.56,292Zm3.7-18.64c-.3,0-.6,0-.9,0-8.37.72-10,15.32-10,15.47a.81.81,0,0,0,.16.72c.73.89,3.29,1.41,7,1.41,7.5,0,16.54-1.92,18.25-3.86a.7.7,0,0,0,.22-.51C256.3,281.42,249.39,273.39,242.26,273.39Z"/><path class="cls-7" d="M258.47,286.21s-4.41-13.53,1.71-16.78c5.25-2.5,11,2.66,12.88,8.39C274.18,281.68,259.3,289.39,258.47,286.21Z"/><path class="cls-8" d="M258.47,286.21s-4.41-13.53,1.71-16.78c5.25-2.5,6.62,5.23,8.5,11C269.8,284.25,259.3,289.39,258.47,286.21Z"/><path class="cls-3" d="M259.88,287.46c-1.39,0-1.78-.7-1.89-1.12s-4.46-13.95,2-17.35a6.93,6.93,0,0,1,3.06-.71c4.84,0,9,4.83,10.52,9.38a3.17,3.17,0,0,1-.8,2.77C270.19,283.82,263,287.46,259.88,287.46ZM263,269.28a6,6,0,0,0-2.61.6c-5.67,3-1.49,16-1.45,16.18s.38.4.93.4c2.8,0,9.75-3.56,12.05-6.63a2.45,2.45,0,0,0,.65-1.87C271.2,273.76,267.38,269.28,263,269.28Z"/><path class="cls-2" d="M136.17,67.19s11.43-1,20.76-18.68c9-17,27.67-32,44.34-24.33-7.34,4-19.34,11.39-26,28.53s-15.52,36-28.64,34Z"/><path class="cls-5" d="M136.17,67.19s11.43-1,20.76-18.68c9-17,27.67-32,44.34-24.33-9.59,0-23.92,7.61-30.59,24.75s-14,37.65-24.05,37.75Z"/><path class="cls-6" d="M136.17,67.19s11.43-1,20.76-18.68c9-17,27.67-32,44.34-24.33-10.59-1.52-27.42,4.11-34.09,21.25s-10.49,41.15-20.55,41.25Z"/><path class="cls-3" d="M146.63,86.68c13.36.93,21.24-16.35,28.17-34.15,6.13-15.76,16.62-23.43,25.33-28.3-15.92-6.48-33.81,7.61-42.76,24.51-4.24,8-9.05,12.78-13,15.58a13.86,13.86,0,0,1-8.2,2.87c.12,0,11.56-2.36,20.32-18.91,9.34-17.64,28.27-32.24,45-24.56l.9.42-.87.48C192.77,29.38,182,36.9,175.73,52.89c-6,15.45-12.75,30.53-23.28,34.05C148,88.11,146.63,86.68,146.63,86.68Z"/><path class="cls-2" d="M108.43,172.68s2.25,27.75-30,45c-5.75,3.75,0,13.25-11.75,15-9.75,1.75-21.5-3.5-34.25-23.75-5.5-4-11.86-14.84,8.14-37.34,15.61-15.91,38.61-23.92,40.19,9.58Z"/><path class="cls-5" d="M108.43,172.68s-3.38,23-35.63,40.25c-5.75,3.75-.4,12.46-6.7,12.89-9.75,1.75-15.4-4.82-20.29-11.7-10.38-3.93-25.24-20-5.24-42.53,15.61-15.91,38.61-23.92,40.19,9.58Z"/><path class="cls-6" d="M66.1,160.32s12.47,17.59-5.1,35.1c-6.57,6.26-19.59,8.49-19.59,8.49,7.42,14.19,47.74,12.24,67-30.5-6.87,1.38-27.75,6.26-27.75,6.26C76.18,165.93,72.18,162.23,66.1,160.32Z"/><path class="cls-3" d="M63.12,233.5c-10.47,0-20.91-8.13-31.06-24.23a13.52,13.52,0,0,1-5.54-9.68c-.83-7.66,3.78-17.19,13.68-28.33,8-8.19,20.79-16.43,30.36-12.78,3.9,1.49,6.84,4.84,8.72,9.88,2.49,7.86,1.4,13.34,1.4,13.34-.57-12.18-4.2-19.89-10.47-22.28-7.51-2.86-19,2.05-29.28,12.52-9.69,10.9-14.21,20.18-13.41,27.54a12.55,12.55,0,0,0,5.21,9l.13.14c11.1,17.63,22.45,25.55,33.73,23.53,6.73-1,7.41-4.52,8.12-8.23.48-2.5,1-5.09,3.45-6.7,31.6-16.91,29.8-44.27,29.77-44.54l1-.08c0,.28,1.91,28.27-30.26,45.48-2.08,1.36-2.52,3.63-3,6-.71,3.71-1.52,7.92-8.93,9A20.36,20.36,0,0,1,63.12,233.5Z"/><path class="cls-3" d="M51.36,215.63a31.8,31.8,0,0,1-21.53-8.4l.73-.69a31,31,0,0,0,29.49,6.9A18.28,18.28,0,0,1,51.36,215.63Z"/><path class="cls-3" d="M51.7,225.09a16.67,16.67,0,0,1-10.29-3.34l.66-.75c.07.06,7.11,6,17.91,1.22C60,222.22,55.6,225.09,51.7,225.09Z"/><path class="cls-3" d="M54.05,230.6c-1,0-1.64-.06-1.72-.06l.09-1c.06,0,7,.58,10.5-2.25C62.92,227.29,60.52,230.6,54.05,230.6Z"/><path class="cls-3" d="M111.47,176.22c-.55-1.86-4.84-3.83-6.44-4.43a7.76,7.76,0,0,1,3.9.74A4.79,4.79,0,0,1,111.47,176.22Z"/><path class="cls-12" d="M18.6,120.54s-8-18-10.67-8.7,1.34,71.34,25.34,88.67c7,5.33,27-.33,33.33-18.67,4.67-15.33-2.67-23-17-31.16S23.37,129,18.6,120.54Z"/><path class="cls-13" d="M18.6,120.54s-8-18-10.67-8.7,5.68,56.64,29.68,74c7,5.33,25.11,9.73,29-4,4.67-15.33-2.67-23-17-31.16S23.37,129,18.6,120.54Z"/><path class="cls-11" d="M22.3,125.68s-6.45-14.54-8.6-7,4.59,45.67,23.94,59.64c5.64,4.3,20.24,7.85,23.37-3.2,3.76-12.36-2.15-18.54-13.71-25.13S26.15,132.5,22.3,125.68Z"/><path class="cls-3" d="M40.12,202.93h0a11.77,11.77,0,0,1-7.16-2c-24.23-17.5-28.2-79.78-25.51-89.2.58-2,1.48-3,2.69-3,3.63,0,8.39,10.48,8.92,11.68,5.1,9,17.33,22.23,30.79,29.9,14.51,8.27,22,16.12,17.23,31.75C62.38,195.6,49.68,202.93,40.12,202.93Zm-30-93.27c-.88,0-1.42,1.26-1.73,2.32-2.66,9.32,1.23,70.85,25.15,88.13a10.8,10.8,0,0,0,6.56,1.82h0c9.22,0,21.46-7.1,26-20.25,4.55-15-2.7-22.55-16.78-30.57-13.62-7.76-26-21.13-31.19-30.32C16.24,116.46,12.39,109.66,10.14,109.66Z"/><path class="cls-2" d="M205.76,190.89s-2.83,25.37,15.17,26c8.68,0,10.38-6.42,33.67-4.42,12.45,1.07,20.67,7,28.33-18.33s-6.07-44.63-13-57.34c-14-25.66,4.17-37.33,1.62-44.68Z"/><path class="cls-5" d="M205.76,190.89s-2,19.91,16,20.57c8.67,0,5.89-7.7,29.18-5.7,12.45,1.07,19.68,6,26.2-13.59,8.36-25.11-.29-42.62-7.22-55.33-14-25.66,4.17-37.33,1.62-44.68Z"/><path class="cls-6" d="M205.76,190.89s1.52,14.13,15.67,13c4.88,0,2.21-7.66,25.5-5.66,12.45,1.07,19.75,5.66,24.46-8.5,8.36-25.12-.53-42.24-7.46-55-14-25.66,10.17-35.22,7.62-42.57,0,0-32.38,17.89-48.56,44.81C206.29,164.78,205.76,190.89,205.76,190.89Z"/><path class="cls-3" d="M220.93,217.43a14.38,14.38,0,0,1-10.71-4.86c-6.67-7.58-4.46-21.68-4.46-21.68s-1.17,13.76,5.21,21a13.4,13.4,0,0,0,10,4.51,20.76,20.76,0,0,0,7.68-1.73c4.84-1.78,10.87-4,26-2.69,1.89.17,3.66.43,5.37.69,9.67,1.48,16.05,2.45,22.44-18.67,6.77-22.36-3.2-39.81-10.48-52.55-.88-1.54-1.72-3-2.48-4.4-9.21-16.89-4.2-28.16-.54-36.39,1.89-4.24,3.39-7.6,2.19-10.31,0,0,2.46,2.8-1.27,10.72-3.58,8-8.48,19,.5,35.51.76,1.38,1.59,2.84,2.47,4.38,7.37,12.89,17.46,30.55,10.57,53.33-6.64,22-13.73,20.87-23.56,19.37-1.69-.25-3.44-.52-5.29-.68-14.93-1.28-20.84.89-25.59,2.63A21.54,21.54,0,0,1,220.93,217.43Z"/><path class="cls-11" d="M119.65,126.19a2.47,2.47,0,1,1-2.47-2.47A2.46,2.46,0,0,1,119.65,126.19Z"/><path class="cls-11" d="M124.35,129.44a1.55,1.55,0,1,1-1.55-1.55A1.54,1.54,0,0,1,124.35,129.44Z"/><path class="cls-16" d="M147.6,46.18s33.83-64.24,84.83-21.37C209.93,15.18,182.12,6,147.6,46.18Z"/></svg>