<svg xmlns="http://www.w3.org/2000/svg" viewBox="0 0 256 256"><defs><style>.cls-1{isolation:isolate;}.cls-2,.cls-20,.cls-4,.cls-7,.cls-9{fill:#365580;}.cls-3{fill:#1d262b;}.cls-4{opacity:0.3;}.cls-14,.cls-4,.cls-9{mix-blend-mode:multiply;}.cls-5{fill:#f2ab95;}.cls-6{fill:#7b7c7f;}.cls-16,.cls-7{opacity:0.5;}.cls-16,.cls-18,.cls-20,.cls-7{mix-blend-mode:screen;}.cls-8{fill:#d6d7d4;}.cls-9{opacity:0.6;}.cls-10{fill:#b4bba7;}.cls-11{fill:#fcfcfc;}.cls-12{fill:#b1b3b6;}.cls-13,.cls-14{fill:#784017;}.cls-14{opacity:0.7;}.cls-15{fill:#19110f;}.cls-17{fill:#a25834;}.cls-18{fill:#d1d1d1;opacity:0.9;}.cls-19{fill:#00000b;}</style></defs><g class="cls-1"><g id="Layer_1" data-name="Layer 1"><path class="cls-2" d="M25.06,161.87a8.85,8.85,0,0,1,2.14,3.36,28.33,28.33,0,0,0,1.36,3.64c1.14,2.24,2.91,4.31,5.47,4.91,5.29,1.23,9.59-2.95,14-5.16a21.8,21.8,0,0,1,7.83-2,58.76,58.76,0,0,1,9.38-.16c2.64.15,5.26.45,7.87.8-7.86-2.67-40.27-13.13-51.77-8A19.24,19.24,0,0,1,25.06,161.87Z"/><path class="cls-3" d="M36,174.23h0a8.94,8.94,0,0,1-2-.23c-2.86-.67-4.63-3.1-5.61-5a17.91,17.91,0,0,1-1-2.65c-.11-.34-.23-.68-.35-1A8.53,8.53,0,0,0,24.9,162a16.51,16.51,0,0,0-3.34-2.39l-.38-.22a.22.22,0,0,1-.11-.21.23.23,0,0,1,.14-.19,21.89,21.89,0,0,1,8.66-1.4c14.4,0,36.71,7.19,43.25,9.42a.22.22,0,0,1,.19.22.23.23,0,0,1-.23.23h0c-3-.41-5.49-.66-7.85-.8a60,60,0,0,0-9.34.15,21.69,21.69,0,0,0-7.76,2c-1.09.54-2.15,1.2-3.27,1.9C42.05,172.45,39.18,174.23,36,174.23Zm-14.16-15a17.11,17.11,0,0,1,3.43,2.44,9.12,9.12,0,0,1,2.18,3.45c.13.34.24.69.35,1a18.35,18.35,0,0,0,1,2.58c.94,1.84,2.63,4.16,5.32,4.79a8.53,8.53,0,0,0,1.88.21c3.09,0,5.9-1.74,8.62-3.43,1.08-.67,2.2-1.36,3.3-1.92a22.11,22.11,0,0,1,7.92-2,59.63,59.63,0,0,1,9.41-.16c1.74.1,3.55.27,5.58.51-8.37-2.75-27.91-8.67-40.92-8.67A22.61,22.61,0,0,0,21.8,159.27Z"/><path class="cls-4" d="M21.3,159.23a19.24,19.24,0,0,1,3.76,2.64,8.85,8.85,0,0,1,2.14,3.36,35.07,35.07,0,0,0,1.27,3.47,8.9,8.9,0,0,1,1.69,1.19c2.51,2,5.57,2.06,8.59,1.33a18.66,18.66,0,0,0,4.2-1.57,21.77,21.77,0,0,1,2.9-1.34,6.2,6.2,0,0,1,3.56-.31,24.35,24.35,0,0,1,6.41-1.37,58.76,58.76,0,0,1,9.38-.16c2.64.15,5.26.45,7.87.8C65.21,164.6,32.8,154.14,21.3,159.23Z"/><path class="cls-5" d="M26.67,164a13.53,13.53,0,0,1,1.76,1.87c1.47,1.83,3,4,5.34,4.66,5.49,1.65,10.47-3.4,15.1-5.47a30.62,30.62,0,0,1,9.52-2.32c-12.75-3.49-29.49-6.91-37.09-3.55a19.24,19.24,0,0,1,3.76,2.64A9.06,9.06,0,0,1,26.67,164Z"/><path class="cls-6" d="M36,171.13h0a7.92,7.92,0,0,1-2.28-.34c-2.22-.66-3.73-2.56-5.06-4.24l-.4-.49a12.79,12.79,0,0,0-1.72-1.84.19.19,0,0,1-.06-.07A8.4,8.4,0,0,0,24.9,162a16.09,16.09,0,0,0-3.34-2.38l-.38-.23a.22.22,0,0,1-.11-.21.23.23,0,0,1,.14-.19,21.89,21.89,0,0,1,8.66-1.4c8.71,0,20.34,2.68,28.58,4.93a.23.23,0,0,1,.16.24.22.22,0,0,1-.2.21,29.85,29.85,0,0,0-9.45,2.3,34.78,34.78,0,0,0-4,2.24C42.12,169.31,39.17,171.13,36,171.13Zm-9.14-7.24a13.9,13.9,0,0,1,1.76,1.88l.4.5c1.35,1.7,2.75,3.46,4.83,4.08a7.41,7.41,0,0,0,2.15.32h0c3,0,5.94-1.79,8.75-3.51a34.76,34.76,0,0,1,4-2.27,29.08,29.08,0,0,1,8.38-2.21c-8.11-2.17-19-4.6-27.29-4.6a22.61,22.61,0,0,0-8.07,1.19,17.11,17.11,0,0,1,3.43,2.44A9.15,9.15,0,0,1,26.85,163.89Z"/><path class="cls-7" d="M30.79,170.91s1.76,3.31,7,2a21.63,21.63,0,0,0,8.68-4.54s-7.22,4-11.88,3.82C31.82,172.05,30.79,170.91,30.79,170.91Z"/><path class="cls-2" d="M236.74,84.25A61.18,61.18,0,0,0,219.4,82,74.5,74.5,0,0,0,198,84.88a107.23,107.23,0,0,0-17.75,7.39c-.39-.35-.85-.6-1.07-3.55-.31-4-1.47-3.19-3.49,2.43-1.89,5.22-8.26,8.06-11.13,9.61-.75.43-1.44.82-2.08,1.16a235.91,235.91,0,0,1-34.76,14.73l11.18,14.53c8.5-13.46,37.44-35.24,56.06-41.7,29.76-10.32,46.21-.61,51.67-.39A30.93,30.93,0,0,0,236.74,84.25Z"/><path class="cls-3" d="M138.93,131.4a.21.21,0,0,1-.18-.09l-11.18-14.52a.23.23,0,0,1,0-.21.23.23,0,0,1,.15-.15,236.89,236.89,0,0,0,34.72-14.71c.6-.32,1.28-.7,2.08-1.16l1-.53c3.12-1.63,8.36-4.36,10-9s2.38-5,2.88-5,.91.83,1.05,2.68c.2,2.56.56,3,.88,3.3A105.76,105.76,0,0,1,198,84.66a75.23,75.23,0,0,1,21.44-2.89h0A60.68,60.68,0,0,1,236.8,84a30.88,30.88,0,0,1,10,4.87.24.24,0,0,1,.08.26.26.26,0,0,1-.23.16,25.5,25.5,0,0,1-5-1.14A70.39,70.39,0,0,0,221.18,85a79.94,79.94,0,0,0-26.11,4.73C177,96,147.68,117.75,139.13,131.3a.23.23,0,0,1-.19.1Zm-10.8-14.64,10.79,14c8.81-13.63,37.94-35.25,56-41.51a80.33,80.33,0,0,1,26.26-4.76,70.91,70.91,0,0,1,20.61,3.23,38.9,38.9,0,0,0,4.05,1,31,31,0,0,0-9.17-4.3,60.08,60.08,0,0,0-17.23-2.24,74.72,74.72,0,0,0-21.35,2.87,105.17,105.17,0,0,0-17.71,7.38.21.21,0,0,1-.25,0l-.06,0c-.41-.36-.87-.76-1.09-3.65-.17-2.24-.58-2.26-.6-2.26s-.86.34-2.45,4.74c-1.72,4.77-7.05,7.55-10.23,9.22l-1,.52c-.8.46-1.48.84-2.08,1.17A237.49,237.49,0,0,1,128.13,116.76Z"/><path class="cls-4" d="M229.73,83.85a107.9,107.9,0,0,0-22.22.7c-7.34.91-14.13,3.39-20.84,6.41-1.11.51-2.1,1.08-3.16,1.66a4.5,4.5,0,0,1-2.32.83,1.07,1.07,0,0,1-1-1.29c-.36-.32-.74-.8-.94-3.44a7.87,7.87,0,0,0-.33-1.92,22.07,22.07,0,0,1-4.08,9.1c-2.84,3.89-6.9,6.35-11.21,8.36a153.31,153.31,0,0,1-15.79,6c-4.64,1.56-9.26,3.75-14.15,4.36-3.65,1.33-5.9,2.05-5.9,2.05l11.18,14.53c8.5-13.46,37.44-35.24,56.06-41.7,29.76-10.32,46.21-.61,51.67-.39a26.57,26.57,0,0,0-3.79-2.39A51.26,51.26,0,0,0,229.73,83.85Z"/><path class="cls-2" d="M159.85,105.91c-3.35,1.4-6.79,2.6-10.12,4a82.59,82.59,0,0,1-10.81,3.72,213.47,213.47,0,0,1-22.39,4.56c-3.82.63-7.63,1.34-11.47,1.8A53.66,53.66,0,0,1,93.87,120c-1.21-.11-2.42-.2-3.63-.29-2.29-.4-4.58-.81-6.87-1.19-9.11-1.52-18.2-2.25-27.36-.63a36.3,36.3,0,0,1-4.59,0,14.39,14.39,0,0,1-9.67-1.59c-4-2.29-6.64-6.27-8.66-10.3-1.39-2.79-2.55-5.69-3.66-8.59-1-2.59-2.25-6.13-5.37-6.73a7.38,7.38,0,0,0-3.17.1c-13.6,6.13-13.21,31.77-8.81,45.66.64,2,1.42,4.38,2,6.23a45.06,45.06,0,0,1,1.78,10.92c0,3.91-.39,8,2.89,10.76,3.9,3.28,8.85,4,13.83,3.69a294.1,294.1,0,0,1,44.72.84c12.12,1.18,24.61,2.5,36.53-.78a72.29,72.29,0,0,0,12.26-4.87c3.47-1.69,7.09-3.09,10.33-5.21,2.85-1.86,7.13-4.85,7.3-8.63.13-2.83-3.54-13.28-3.61-16.14-.15-5.87.92-11.16,4.7-15.47a44.21,44.21,0,0,1,6.64-5.88C154.1,109.87,160.48,105.64,159.85,105.91Z"/><path class="cls-3" d="M96.75,170.35h0c-6.23,0-12.54-.62-18.65-1.22l-.78-.07c-9-.88-18.22-1.32-27.52-1.32-5.6,0-11.37.16-17.16.47-.67,0-1.31.06-1.93.06-5.08,0-9-1.24-12.07-3.79s-3-6.2-3-9.74v-1.2a43.85,43.85,0,0,0-1.77-10.86c-.56-1.67-1.37-4.12-2-6.22-4.75-15-4.31-40,8.92-45.94a7.85,7.85,0,0,1,3.32-.12c3.13.61,4.45,4.07,5.42,6.6l.11.27c1.07,2.78,2.23,5.73,3.65,8.58,2.53,5.05,5.26,8.29,8.58,10.21a14.33,14.33,0,0,0,9.51,1.55h0c.89,0,2,.08,2.88.08a13.45,13.45,0,0,0,1.66-.07,61.72,61.72,0,0,1,10.9-.92,100.37,100.37,0,0,1,16.54,1.55c1.85.31,3.69.64,5.54,1l1.33.23c1.19.09,2.4.18,3.61.29,1.93.17,4.22.34,6.55.34a37,37,0,0,0,4.59-.26c2.93-.35,5.9-.85,8.77-1.34l2.69-.46a211.76,211.76,0,0,0,22.37-4.55,81,81,0,0,0,10.77-3.71c1.85-.8,3.76-1.54,5.61-2.26,1.49-.57,3-1.17,4.52-1.8l.13,0a.23.23,0,0,1,.22.17c.07.21.07.21-3,2.35-1.84,1.28-4.13,2.86-5.45,3.86a43.81,43.81,0,0,0-6.61,5.84c-3.33,3.81-4.81,8.67-4.64,15.31a45.88,45.88,0,0,0,1.71,7.45c1,3.53,2,7.18,1.9,8.71-.19,4.1-5.06,7.29-7.41,8.82a57.62,57.62,0,0,1-7.35,3.82c-1,.45-2,.92-3,1.4a71.22,71.22,0,0,1-12.3,4.88A64.18,64.18,0,0,1,96.75,170.35ZM49.8,167.28c9.32,0,18.59.45,27.57,1.32l.77.08c6.1.59,12.4,1.21,18.61,1.21h0a64.11,64.11,0,0,0,17.06-2.06A71.45,71.45,0,0,0,126,163c1-.49,2-1,3-1.41a54.23,54.23,0,0,0,7.29-3.79c2.28-1.49,7-4.58,7.2-8.45.07-1.46-.92-5.07-1.88-8.57a46.43,46.43,0,0,1-1.73-7.56c-.17-6.76,1.35-11.72,4.76-15.62a44.68,44.68,0,0,1,6.67-5.91c1.33-1,3.62-2.59,5.47-3.86l1.47-1-2.88,1.13c-1.85.71-3.75,1.45-5.59,2.25A80.7,80.7,0,0,1,139,113.9a210.21,210.21,0,0,1-22.42,4.56l-2.68.46c-2.88.49-5.85,1-8.8,1.35a39.79,39.79,0,0,1-4.64.26c-2.35,0-4.65-.18-6.59-.35l-3.63-.28-1.35-.24c-1.85-.32-3.69-.65-5.54-1a99.37,99.37,0,0,0-16.46-1.54,61.77,61.77,0,0,0-10.82.91,14,14,0,0,1-1.74.08c-.91,0-2,0-2.88-.08a14.78,14.78,0,0,1-9.79-1.62c-3.4-2-6.19-5.26-8.75-10.4-1.44-2.86-2.6-5.82-3.68-8.61l-.1-.28c-1-2.56-2.21-5.75-5.09-6.31a7.5,7.5,0,0,0-3.08.1C8,96.79,7.6,121.49,12.3,136.32c.67,2.1,1.48,4.55,2,6.23a44,44,0,0,1,1.79,11c0,.4,0,.81,0,1.21,0,3.43-.05,7,2.81,9.38s6.81,3.68,11.78,3.68c.61,0,1.25,0,1.9-.05C38.41,167.44,44.19,167.28,49.8,167.28Z"/><path class="cls-4" d="M159.85,105.91c-3.35,1.4-6.79,2.6-10.12,4a82.59,82.59,0,0,1-10.81,3.72,213.47,213.47,0,0,1-22.39,4.56c-3.82.63-7.63,1.34-11.47,1.8a46.75,46.75,0,0,1-8.69.11c.49.18,1,.37,1.46.57a31.16,31.16,0,0,1,8.78,5.41c2.47,2.2,5,4.85,6,8.09a12.63,12.63,0,0,1-3.66,12.94c-4.14,3.76-10,5.75-15.32,7a130.62,130.62,0,0,1-17.72,2.55c-4.24.39-8.63,1.05-13,1.07l.44.08a78.76,78.76,0,0,0,10.14,1.3A118.69,118.69,0,0,0,86,158.86c2-.14,4-.41,6-.63,1.7-.18,3.37-.71,5.08-.44a.23.23,0,0,1,.17.22c-.39,3-3.15,4.57-5.74,5.45a39.07,39.07,0,0,1-11.06,1.69c-7.19.29-14.35-.45-21.54-.46-7.44,0-14.88.7-22.32.42-4.29-.16-9.08-.39-13.19-1.8-3.06-1.06-5.67-3.26-4.7-6.81.76-2.78,2.83-4.17,4.77-6.12a44.45,44.45,0,0,0,6.61-8c2.9-4.76,5.7-9.54,9.72-13.47,4.3-4.21,9.51-7,15.07-9.15A73.36,73.36,0,0,1,63.29,117a60.29,60.29,0,0,0-7.28.82,36.3,36.3,0,0,1-4.59,0,14.39,14.39,0,0,1-9.67-1.59c-4-2.29-6.64-6.27-8.66-10.3-1.39-2.79-2.55-5.69-3.66-8.59-1-2.59-2.25-6.13-5.37-6.73a7.38,7.38,0,0,0-3.17.1c-13.6,6.13-13.21,31.77-8.81,45.66.64,2,1.42,4.38,2,6.23a45.06,45.06,0,0,1,1.78,10.92c0,3.91-.39,8,2.89,10.76,3.9,3.28,8.85,4,13.83,3.69a294.1,294.1,0,0,1,44.72.84c12.12,1.18,24.61,2.5,36.53-.78a72.29,72.29,0,0,0,12.26-4.87c3.47-1.69,7.09-3.09,10.33-5.21,2.85-1.86,7.13-4.85,7.3-8.63.13-2.83-3.54-13.28-3.61-16.14-.15-5.87.92-11.16,4.7-15.47a44.21,44.21,0,0,1,6.64-5.88C154.1,109.87,160.48,105.64,159.85,105.91Z"/><path class="cls-4" d="M25.79,94.52c1.48,2.38,2.24,5.24,3.13,7.87A56.14,56.14,0,0,0,33,112.13c2,3.55,7.24,7.13,5.51,11.76a28.12,28.12,0,0,1-2.44,4c-.83,1.42-1.58,2.88-2.28,4.38-.6,1.29-1.17,2.6-1.74,3.91A45.51,45.51,0,0,1,36,130.65a29.08,29.08,0,0,1,10-7.74A67.12,67.12,0,0,1,59.43,118l1.54-.33c.77-.22,1.54-.44,2.32-.64a60.29,60.29,0,0,0-7.28.82,36.3,36.3,0,0,1-4.59,0,14.39,14.39,0,0,1-9.67-1.59c-4-2.29-6.64-6.27-8.66-10.3-1.39-2.79-2.55-5.69-3.66-8.59-1-2.59-2.25-6.13-5.37-6.73a7.38,7.38,0,0,0-3.17.1,13.14,13.14,0,0,0-2.47,1.43C21.12,91.33,24.12,91.84,25.79,94.52Z"/><path class="cls-8" d="M15.78,146.68a73.22,73.22,0,0,0-1.2-9.77c-.8-4.77-1.71-9.53-2.31-14.34a52.78,52.78,0,0,1,.31-16.64c.88-4.6,2.43-9.84,6.06-13.07a9.52,9.52,0,0,1,4.65-2.33,7.49,7.49,0,0,0-2.4.2c-13.6,6.13-13.21,31.77-8.81,45.66.64,2,1.42,4.38,2,6.23a58.28,58.28,0,0,1,1.52,7.29A17.7,17.7,0,0,0,15.78,146.68Z"/><path class="cls-6" d="M15.64,150.14h0a.23.23,0,0,1-.22-.2,55.65,55.65,0,0,0-1.51-7.26c-.56-1.67-1.37-4.12-2-6.22-4.75-15-4.31-40,8.92-45.94a7.87,7.87,0,0,1,2.51-.22.22.22,0,0,1,.21.21.22.22,0,0,1-.18.24A9.47,9.47,0,0,0,18.79,93c-3.79,3.38-5.23,9-6,12.94a52.82,52.82,0,0,0-.3,16.57c.43,3.47,1,7,1.62,10.35.23,1.33.46,2.66.68,4l.12.73A66.66,66.66,0,0,1,16,146.68a17.51,17.51,0,0,1-.15,3.27A.22.22,0,0,1,15.64,150.14Zm5.74-59.28a3.12,3.12,0,0,0-.44.09C8,96.79,7.6,121.49,12.3,136.32c.67,2.1,1.48,4.55,2,6.23.53,2,.93,3.76,1.22,5.4,0-.44,0-.86,0-1.26a66.15,66.15,0,0,0-1.08-9l-.12-.73c-.22-1.33-.45-2.66-.68-4-.59-3.39-1.19-6.9-1.62-10.37a53.11,53.11,0,0,1,.3-16.71c.77-4,2.24-9.73,6.14-13.2A10.44,10.44,0,0,1,21.38,90.86Z"/><path class="cls-9" d="M56,118a20.16,20.16,0,0,0-5.33,1,42.33,42.33,0,0,0-5.27,2.39,32.6,32.6,0,0,0-8.5,6.54c-2.66,2.88-4.5,6.49-6.47,9.86-1.16,2-2.16,4.06-3.39,6-1.13,1.78-2.93,5.28-5.09,5.87-.06,0-.19.18-.08.15a5.28,5.28,0,0,0,2.71-2,46,46,0,0,0,3.26-4.47c2.39-3.67,4.5-7.52,6.86-11.2,4.87-7.59,12.73-11.5,21.16-13.94C56,118.16,56.17,117.93,56,118Z"/><path class="cls-9" d="M116.59,145c-1.23,4.33-6,6.28-9.81,7.67a64.37,64.37,0,0,1-15.94,3.39,271.88,271.88,0,0,1-32,1.52s-.13.09-.07.09a154.09,154.09,0,0,0,17.59.32,166.94,166.94,0,0,0,18.29-1.45,56.74,56.74,0,0,0,15.11-4.23c3.05-1.37,7.06-3.88,7.42-7.57C117.19,144.43,116.63,144.85,116.59,145Z"/><path class="cls-8" d="M54.43,167.35s23.23,1.52,32.64,2.89,16.24,1.51,24.59-.46S142,156.56,147,149.29c6.37-9.26,6.07-20-8.81-8.5s-24.89,27.62-47,26.71S65.36,165.83,54.43,167.35Z"/><path class="cls-6" d="M99.22,171.49a83.7,83.7,0,0,1-12.18-1c-9.3-1.35-32.39-2.87-32.62-2.88a.22.22,0,0,1-.21-.22.21.21,0,0,1,.19-.23,78.16,78.16,0,0,1,11.66-.87c3.41,0,7.37.19,12.85.46,3.45.16,7.36.35,12.27.56.59,0,1.19,0,1.77,0,15.62,0,25-8.64,34.91-17.8,3.25-3,6.61-6.1,10.22-8.9,4.33-3.36,7.69-5.06,10-5.06a2.78,2.78,0,0,1,2.65,1.47c1.28,2.43-.17,7.53-3.52,12.4-5.18,7.52-27.55,18.7-35.51,20.58A52.62,52.62,0,0,1,99.22,171.49Zm-42.46-4.21c6.11.42,22.78,1.63,30.34,2.73a83,83,0,0,0,12.12,1,52.35,52.35,0,0,0,12.39-1.47c4.16-1,11.75-4.3,18.88-8.24,8.19-4.53,14.15-9,16.35-12.16,3.21-4.66,4.68-9.68,3.5-11.93a2.34,2.34,0,0,0-2.25-1.22c-1.52,0-4.44.86-9.73,5-3.6,2.79-7,5.89-10.19,8.88-10,9.21-19.42,17.92-35.22,17.92-.59,0-1.19,0-1.79,0-4.91-.2-8.82-.39-12.27-.56-5.48-.26-9.43-.45-12.83-.45A74.54,74.54,0,0,0,56.76,167.28Z"/><path class="cls-10" d="M148.14,139.21c-5.61-.32-9.69,5.69-13.19,9.2-4.63,4.66-9.14,9.7-14.61,13.39a55.38,55.38,0,0,1-15.26,7.08,68.68,68.68,0,0,1-10.36,2.21,53.5,53.5,0,0,0,16.94-1.31c8.35-2,30.36-13.22,35.37-20.49a24.26,24.26,0,0,0,3.58-7.51A2.53,2.53,0,0,0,148.14,139.21Z"/><path class="cls-9" d="M53.75,155a4.13,4.13,0,0,0-2,2.12.12.12,0,0,0,0,.1,14.92,14.92,0,0,1,9.48-3.06,3,3,0,0,0-1.31-.49,3.91,3.91,0,0,0-1.08,0c-.6.16-.32.09-.14-.26a3.53,3.53,0,0,0,.36-1.73,1.64,1.64,0,0,0,.19.25c.11.11.34,0,.42-.11a3.1,3.1,0,0,0,.68-2.3,3.35,3.35,0,0,0-2.65-3.32,4.33,4.33,0,0,0-3.37.69,11.29,11.29,0,0,0-1.48,2.24A3.65,3.65,0,0,1,55,148.6a5,5,0,0,0-2.88,2C50.83,152.41,52.24,154.14,53.75,155Z"/><path class="cls-9" d="M30.23,141a.07.07,0,0,1,0,0,3.14,3.14,0,0,0,2.58,4.46,5,5,0,0,0,2.65-.63,5,5,0,0,0,1.3-2.19,3.4,3.4,0,0,0-.5-2.52,1.84,1.84,0,0,0-.73-.62,1.64,1.64,0,0,1,.86.57c0,.05.13,0,.16,0,.41-.32.22-.94.17-1.4a2.42,2.42,0,0,0-2.26-2.26,4.2,4.2,0,0,0-3.66,2.12A6.83,6.83,0,0,0,30.5,140a4.81,4.81,0,0,1,2.32-1.18A5.73,5.73,0,0,0,30.23,141Z"/><path class="cls-11" d="M36,142.1a2.62,2.62,0,1,1-2.62-2.61A2.62,2.62,0,0,1,36,142.1Z"/><path class="cls-12" d="M33.38,145a2.85,2.85,0,1,1,2.85-2.85A2.86,2.86,0,0,1,33.38,145Zm0-5.24a2.39,2.39,0,1,0,2.39,2.39A2.4,2.4,0,0,0,33.38,139.71Z"/><path class="cls-13" d="M35.37,142.46a1.73,1.73,0,1,1-1.73-1.73A1.73,1.73,0,0,1,35.37,142.46Z"/><path class="cls-14" d="M33.71,142.1a2.15,2.15,0,0,1,1.51,1.05,1.82,1.82,0,0,0,.15-.69,1.73,1.73,0,1,0-3.45,0,.76.76,0,0,0,0,.15A2,2,0,0,1,33.71,142.1Z"/><path class="cls-15" d="M34.67,142.54a1.13,1.13,0,1,1-1.13-1.13A1.13,1.13,0,0,1,34.67,142.54Z"/><g class="cls-16"><path class="cls-17" d="M35,142.71a1,1,0,0,0-.53-1.39.32.32,0,0,0-.19,0l-.23,0c-.4,0-.48.38-.42.69C33.77,142.43,34.63,143.61,35,142.71Z"/></g><path class="cls-18" d="M35,142.45a.79.79,0,0,0-.4-1,.3.3,0,0,0-.14,0H34.3c-.3,0-.37.29-.32.52a1.3,1.3,0,0,0,.26.49.68.68,0,0,0,.26.27l.07,0,0,0a.15.15,0,0,0,.17,0A.39.39,0,0,0,35,142.45Z"/><path class="cls-11" d="M58.08,151.89a2.62,2.62,0,1,1-2.62-2.62A2.62,2.62,0,0,1,58.08,151.89Z"/><path class="cls-12" d="M55.46,154.74a2.85,2.85,0,1,1,2.85-2.85A2.86,2.86,0,0,1,55.46,154.74Zm0-5.24a2.39,2.39,0,1,0,2.39,2.39A2.39,2.39,0,0,0,55.46,149.5Z"/><path class="cls-13" d="M57.61,152.24a1.72,1.72,0,1,1-1.72-1.72A1.72,1.72,0,0,1,57.61,152.24Z"/><path class="cls-14" d="M56,151.89a2.13,2.13,0,0,1,1.51,1,1.72,1.72,0,1,0-3.3-.69v.16A2,2,0,0,1,56,151.89Z"/><path class="cls-15" d="M56.92,152.33a1.13,1.13,0,1,1-1.13-1.13A1.13,1.13,0,0,1,56.92,152.33Z"/><g class="cls-16"><path class="cls-17" d="M57.28,152.5a1.07,1.07,0,0,0-.53-1.4.58.58,0,0,0-.2,0h-.22c-.4,0-.48.38-.42.69C56,152.22,56.88,153.4,57.28,152.5Z"/></g><path class="cls-18" d="M57.26,152.24a.79.79,0,0,0-.4-1.05.34.34,0,0,0-.15,0h-.17c-.29,0-.36.29-.31.52a1.14,1.14,0,0,0,.26.48.71.71,0,0,0,.26.28l.07,0,0,0a.15.15,0,0,0,.17,0A.39.39,0,0,0,57.26,152.24Z"/><path class="cls-19" d="M33.56,136.82a2.83,2.83,0,0,0-1.61.67c-.32.25-.47.68-.75.91,0,0-.12.14,0,.14a.53.53,0,0,0,.35-.13,2.44,2.44,0,0,1,1.25-.49,4.46,4.46,0,0,1,1.61.3,3.61,3.61,0,0,1,1.31,1.08c.09.1.34-.13.33-.24A2.38,2.38,0,0,0,33.56,136.82Z"/><path class="cls-19" d="M53.39,148.19c0,.09,0,.1.09.06,2.09-1.27,4.3.4,5.41,2.1.1.16.42-.19.45-.29C60.2,146.69,55,145.65,53.39,148.19Z"/><path class="cls-20" d="M177.6,88.22a38.66,38.66,0,0,1-2,4.26A15.1,15.1,0,0,1,170.3,98a71.26,71.26,0,0,1-11.07,6.17c-.07,0-.18.21,0,.15a62.77,62.77,0,0,0,6.58-3.25,48.41,48.41,0,0,0,6.07-3.45,15,15,0,0,0,5.88-9.39C177.75,88.1,177.61,88.19,177.6,88.22Z"/><path class="cls-20" d="M232.11,83.55a79.65,79.65,0,0,0-12.81-1.06,69.92,69.92,0,0,0-13.55.72,54.67,54.67,0,0,0-11.67,3.37q-3.11,1.23-6.15,2.6c-1.75.79-3.46,2.08-5.26,2.72,0,0-.2.17-.1.16A9.77,9.77,0,0,0,185,91c1.92-.84,3.85-1.67,5.8-2.43a79.35,79.35,0,0,1,13-4.26,84.56,84.56,0,0,1,28.21-.59C232,83.74,232.18,83.56,232.11,83.55Z"/><path class="cls-7" d="M71.06,163.05c-4.23-.84-8.78-.61-13.08-.41-4.77.21-9.61.55-14.38.34s-27.36.28-22.13-9.19c.06-.12-.15,0-.18,0-6.22,9.11,11.16,10.17,16.42,10.44s10.78-.1,16.14-.27c5.64-.18,11.34-1,17-.67C70.93,163.33,71.18,163.07,71.06,163.05Z"/><path class="cls-7" d="M78.09,119.92a47.62,47.62,0,0,0-12.08-1,43.91,43.91,0,0,0-11.74,2.74,36.26,36.26,0,0,0-10.35,6.22c-1.47,1.22-2.89,2.51-4.22,3.86-.69.7-1.28,1.48-1.92,2.22-.42.47-1,1.72-1.54,1.95-.08,0-.29.3-.09.26.4-.09.44-.17.7-.49A42.14,42.14,0,0,1,41.4,131a44.05,44.05,0,0,1,11-7.3c3.67-1.64,7.88-2.32,11.8-3.08a48.57,48.57,0,0,1,13.57-.32C77.9,120.35,78.27,120,78.09,119.92Z"/><path class="cls-7" d="M140,114.12c-5.64,2.46-12,3.81-18,5.1-3.43.74-6.9,1.21-10.38,1.67a52.53,52.53,0,0,1-9.7.48c-.08,0-.34.2-.22.26a15.84,15.84,0,0,0,8.66,1c3.62-.44,7.23-1,10.81-1.72a79.12,79.12,0,0,0,10.15-2.72,50.15,50.15,0,0,0,8.67-3.76C140.09,114.36,140.28,114,140,114.12Z"/></g></g></svg>