<svg id="Layer_1" data-name="Layer 1" xmlns="http://www.w3.org/2000/svg" viewBox="0 0 256 256"><defs><style>.cls-1{fill:#750606;}.cls-2{fill:#f4635b;}.cls-3{fill:#62add3;}.cls-4{fill:#fff;}.cls-5{fill:#ea1602;}.cls-6{fill:#bf120a;}.cls-7{fill:#4896b5;}.cls-8{fill:#e0504c;}.cls-9{fill:#f95850;}.cls-10{fill:#700;}.cls-11{fill:#161616;}.cls-12{fill:#6b0303;}.cls-13{fill:#5889d9;opacity:0.2;}</style></defs><path class="cls-1" d="M144.12,150.74c.14.17.27.34.42.5a15.94,15.94,0,0,1-3.42.55,4.73,4.73,0,0,0-.33-2.12C141.88,150,143,150.26,144.12,150.74Z"/><path class="cls-2" d="M141,151.79c-9.85.51-16-9.88-14.12-19,1.27-6.35,6.37,10.32,8.61,15.61a9.69,9.69,0,0,0-.15-1.85C137.2,148.53,141.15,148.57,141,151.79Z"/><path class="cls-3" d="M159.86,123.27a0,0,0,0,0,0,0Zm.07.21a.14.14,0,0,0,0-.07A.19.19,0,0,1,159.93,123.48Zm.13.37c-1.13-3.67-5.17-2.68-4,1.14,1.25,3.42,4.95,2.42,4-1.2C160.05,123.81,160.05,123.83,160.06,123.85Zm.06.19a.08.08,0,0,0,0,0A.08.08,0,0,1,160.12,124Zm1.23,1.92c-1.66,9.31-11.43-2.29-5.77-7.79A8.65,8.65,0,0,1,161.35,126Z"/><path class="cls-3" d="M144.52,127.6c4.35,4.9-.66,8.47-5.8,8.65C131.4,131,138,117.86,144.52,127.6Zm-1.2,5.81c3.38-1.3,1.3-7.4-2.17-6.37C137.77,128.34,139.85,134.45,143.32,133.41Z"/><path class="cls-4" d="M153.79,117.7a10.49,10.49,0,0,1,1.67.43c-2.1,2.32-2.13,5.76-1.08,8.49a12.15,12.15,0,0,1-2.82-9.11A12,12,0,0,1,153.79,117.7Z"/><path class="cls-4" d="M138.54,136.24c-9.6.89-10-8.17-1.85-11.41A8.13,8.13,0,0,0,138.54,136.24Z"/><path class="cls-5" d="M242.93,156.05c.18.8.32,1.61.42,2.42-11-5.87-17.61-17.57-25.07-27.17C232.93,134.93,234.69,146.15,242.93,156.05Z"/><path class="cls-5" d="M244.36,155a22,22,0,0,1-.84,8.54c1.23-11.33-6-21.72-15.16-27.7-16.5-8.15-42.66-19.39-33.79-42.45C216.63,93.86,243.21,133.17,244.36,155Z"/><path class="cls-6" d="M162.08,143.57a13.89,13.89,0,0,0,7.59,2.24C166.68,149.53,163.85,146.76,162.08,143.57Z"/><path class="cls-5" d="M192.82,94.52a2,2,0,0,1,1.23.18c-4.66,8.65,8.68,32-10.51,22.38a3.29,3.29,0,0,1,2.7-.16c-1.4-.93-3.35.08-4.78.63,3.4-5.94-2.17-23,8-19.67a10.68,10.68,0,0,0-.53,2.39C189.81,98.31,190.58,95.25,192.82,94.52Z"/><path class="cls-5" d="M168,113.54c2.58,2.69,3.7,7.85-.17,9.87-.67.35.34-1.47.31-2.24a8.86,8.86,0,0,1-4.4,6.15c-3.23-2-2.14-6.61-6-8.64a9.92,9.92,0,0,0,3.27-2.2c0,.1,0,.21,0,.32C160.28,111.62,165.06,108.88,168,113.54Z"/><path class="cls-5" d="M181.25,99.43l.47-.28c4.55,14.85-7,23.64-11.63,22.35,1-4-1.86-9.53-5.72-11,.36-3,6.12-6.37,9.57-4.52.18.09-.23.34-.33.51.58-1,1.9-.06,2.83,0a17.69,17.69,0,0,0-2.19-.75A33,33,0,0,1,181.25,99.43Z"/><path class="cls-7" d="M158.94,127a1.65,1.65,0,0,1-1,0,4.19,4.19,0,0,1-.6,2.19c10.47,1.55-1.74-18.21-3.23-7.34a2.53,2.53,0,0,1,1.92.92c1-2.5,3.61-.89,4.06,1,0,0,0,0,0-.06C160.36,124.92,160.23,126.59,158.94,127Z"/><path class="cls-5" d="M182.39,167.84c-6.31,23.07-59.26,49-75.13,27.44a11.77,11.77,0,0,0,2.16,1.44,13.07,13.07,0,0,0,.15,1.77c-1.53-24.36,29.82-21.6,45.45-16.22C165.3,180.75,176.44,176.87,182.39,167.84Z"/><path class="cls-5" d="M174.14,169.42a8.93,8.93,0,0,1,2.34,1c-15.19-.91-17.21,16-29.61,9C154.84,174.13,164.13,167.6,174.14,169.42Z"/><path class="cls-7" d="M135.69,127.68a3.85,3.85,0,0,1,3.81,1.43c3.12-7.69,9.48,6.25,1.85,4.09a4,4,0,0,1-1,2.86C153.68,135.55,139.41,116.26,135.69,127.68Z"/><path class="cls-5" d="M171.14,154.38a22.9,22.9,0,0,0,2.73,1.75c-7.83-1.92-15-6.68-16.79-14.9,1.52,5.79,4.3,11.61,8.56,15.87-6-3.06-12.77-8.8-13.13-16a1.54,1.54,0,0,0-.3,0c-.72,4.83,3.82,7.68,5.73,11.51-.75,19.56-55.34-.08-66.68-4.47-24.74-8.55-44.26-29-70.78-32.56,16,.6,30.05,9.12,43.41,17.13,25.56,14.87,56.87,27.27,86.77,22.34-4.27-.91-7.59-5.87-9.57-9.68a15.94,15.94,0,0,0,2.84,5.15c-9.48-2.62-17.25-12.08-17.09-22a18.92,18.92,0,0,1,1.2,1.76c-.62-2-7.84-3.35-5.08-3.43,7.92-.22,2.14,11,4.55,16.28l-1.73.5c-2.25-3.55-5-5.42-7.69-1.08-1.31-3-2-3.93-6.93-2.81-2.54.58-6,1.44-5.46-2-2-4.91-.52-11-3.52-6-1.34,2.24-2.92-1-3.38-3.09-1.18-5.44-.42-8-2.53-5.38-.39.5-1.27-.09-1.17-.9,4.39-1.2,1.71-13-2.59-7.51-8-7.17,4.5-32.5,14.93-21.88a6.72,6.72,0,0,0-1.55-1.67c2.81-4,8.24-4.06,10.86.23-1-.31-2.07-.6-3.11-.86,12.56,4.38,26.31,10,33.8,21.59a4.77,4.77,0,0,0-1.22.37,6.06,6.06,0,0,1,7.38,4.76,8.68,8.68,0,0,0-2,.09,7.82,7.82,0,0,1,.33-1.37c-4.27,9.68,9.12,13.93,9.76,22.39a18.44,18.44,0,0,1-1.85-3.15A17.15,17.15,0,0,0,169,145.41c-5.26-.3-8.92-3.58-11.08-8.19A51.78,51.78,0,0,0,171.14,154.38ZM146.55,133c.29-.3.58-.61.85-.93-.28.26-.56.5-.85.75.34-4-2.54-7.52-6.13-9.06.44-.08.88-.15,1.31-.19-5.82-.43-12,3.84-11.55,10.06-.41-.27-.81-.56-1.19-.85C133.66,137.63,142,138.31,146.55,133Zm-.69,3.79a12.29,12.29,0,0,1-9.79,1.53A8.54,8.54,0,0,0,145.86,136.75Zm-16.28-8.91c1-1.8,5.18-11.64,8-7.44C134,115.88,130.41,124.94,129.58,127.84Zm-12.05,2.83c-2.55-1.55-4.85-3.76-5.66-6.73C111.88,127.15,114.62,129.82,117.53,130.67Zm-5.79-12.55a16.48,16.48,0,0,0,5.08,1.22A18.52,18.52,0,0,1,102,104.64,16.62,16.62,0,0,0,111.74,118.12Z"/><path class="cls-5" d="M165,108.83a8.54,8.54,0,0,0-.73,1.18,6.26,6.26,0,0,0-3.71-3.23c.47-1.24-1.86-4.24-.62-3.8A8.37,8.37,0,0,1,165,108.83Z"/><path class="cls-6" d="M163.32,127.77a3.25,3.25,0,0,1-2.58,3.67,2,2,0,0,0,1.34-.19,14.05,14.05,0,0,1-1,3.66c-.72-2.14-2.5-3.7-4-5.29,2.18.23,4.7-.23,5.22-2.43a3.46,3.46,0,0,1-.68.79c0-.64,0-1.28,0-1.91A2.64,2.64,0,0,1,163.32,127.77Z"/><path class="cls-5" d="M159.28,103.06c1.18,1,1.8,5.18-.77,3.88.12-.37.24-.74.34-1.12-1.69,3.09-3.16,6.56-5.9,8.87a4.64,4.64,0,0,0-2.82-2.27c2.51-2.79,5.24-5.7,6.48-9.31l-.5.88C155.1,101.26,158.15,101.45,159.28,103.06Z"/><path class="cls-5" d="M153.72,107.32l-1.5,2c-.08-2.48-1.89-4.29-3.28-5.83,1.34-.33.07-4.57,1-3.93C152.51,101.25,153.62,104.74,153.72,107.32Z"/><path class="cls-5" d="M149.25,99.1c.77,1.08,1.08,3.89-.31,4.21-.75.17,0-1.53-.12-2.21-.08.72-.15,1.48-.26,2.23h0l0,0c-.32,2.32-.92,4.73-2.5,6.42a30,30,0,0,0-4.33-5c2.07-1,4-2.87,4.37-5.25a9.87,9.87,0,0,1-.82,1.33C144.41,98,147.7,97.45,149.25,99.1Z"/><path class="cls-6" d="M144.66,151.36a16.49,16.49,0,0,0,1.41,1.36c-3.89,2.29-8.72,1.95-13.07,2.19.07-4.86-6.4-6.38-7.22-11.3l1.73-.5C130.25,149.51,138.14,153.77,144.66,151.36Z"/><path class="cls-5" d="M141.49,97.4c.7,2.6,3.4,6.68,0,7.18-4.78.69,2.16-10.2-5.08-11.06C138.82,93,140.64,95.28,141.49,97.4Z"/><path class="cls-5" d="M137.25,94.27c1.5.62,3.91,2.79,2.73,4.51a8.63,8.63,0,0,0-.37-1.58,42.53,42.53,0,0,1-.33,5.53c-2.66-2-8.38-4.52-3.1-7.18a1.58,1.58,0,0,0-1.51.32C133.75,94,136,93.67,137.25,94.27Z"/><path class="cls-5" d="M132.5,153a4.18,4.18,0,0,1,.25,2.88c-5.7,1.36-9.19-8.48-14.64-4.82a7.64,7.64,0,0,1,.1-7.83c3.6-6.36,6.22-2,8,2.62C127.57,148.78,131.13,150,132.5,153Z"/><path class="cls-5" d="M130.8,97.34c-4.69-1.1-.49-6.09-4.07-8.31C129.63,90.6,130,94.46,130.8,97.34Z"/><path class="cls-5" d="M128.14,162.73c1.68,4,.68,10.1-4.47,10.14-.24-6.41-11.13-10-15.72-6.2-6-5.4,5.71-6.9,8.49-9.62q6,1.53,12.07,2.6a7,7,0,0,0-.72,1.82,9.51,9.51,0,0,0-.69-1.05A17.86,17.86,0,0,1,128.14,162.73Z"/><path class="cls-5" d="M127.24,90.13c.71.65,1.44,1.9.64,2.74a6.26,6.26,0,0,0-2.2-2.4A8.54,8.54,0,0,1,128.07,96q-3.12-1.52-6.36-2.75c.48-1,2.37-3.58,1.84-2.61-.86,1.6-1.72,3.59-1.25.68C121.29,87.9,125.83,88.09,127.24,90.13Z"/><path class="cls-6" d="M122,151.34a26.44,26.44,0,0,1,5.24,4c-3.75-.52-7.49-1.18-11.19-2C117.22,151.19,119.75,149.83,122,151.34Z"/><path class="cls-5" d="M123.4,173.1a8.43,8.43,0,0,1-.91,4.44,10.39,10.39,0,0,0-4.25-2.6,19.42,19.42,0,0,1,5,4.28,17,17,0,0,0-13.83,17.5c-7.45-4.05-10.59-17.64-1.27-21.07a5.57,5.57,0,0,0-2.5,1C103.06,163.59,120.66,161.92,123.4,173.1Z"/><path class="cls-6" d="M116,139.21c3,2.48.83,8.28.74,8.14s-4.89,1.79-5.5-3.35c0-1.28,2.53-.29,3.81-.18a2.37,2.37,0,0,1-2,1.66c3.94.39,3-5.62.35-6.6a2.9,2.9,0,0,1,.64.67c-1,.07-1.92.13-2.88.17C111.68,136.49,114.65,137.19,116,139.21Z"/><path class="cls-5" d="M115.15,142.6a3.18,3.18,0,0,1,0,1c-5.27-.55-10.35.78-15.42,2a3.28,3.28,0,0,0,.36-1.42c-.62,1.09-1.27,2.33-2.61,2.51,1.8-3,1.3-6.73-2.94-5.81a6.16,6.16,0,0,1,1.95.16c-1.82.35-3.08,2.05-3.83,3.62-2.36-3.93,3.47-9.07,6.25-4.37a5.32,5.32,0,0,0-.42-.67C103.42,142.32,113.9,136.81,115.15,142.6Z"/><path class="cls-6" d="M107.64,132.84c.65,1.81.31,4.37-2,4.55l0-.17c-.43.52-1.55-.31-1.92-.86a20.16,20.16,0,0,0,2-.78.79.79,0,0,1-1,.58c2.71,1,1.84-5.48-.71-5a2.43,2.43,0,0,1,.7.36,16.84,16.84,0,0,1-2.46.15C103,127.92,107.37,129.7,107.64,132.84Z"/><path class="cls-5" d="M80.73,105.68s.21.17.5.38C69.09,96.11,85,81,95.85,78.87c5.15.46,8.36,6.72,11.85,10.18a10.7,10.7,0,0,0-2,2.12c-11.14-6-21.33,16.87-13.26,23.72a1.8,1.8,0,0,0-.32.57c-9.67-.14-22.84-5.13-15.61-16.68a11.23,11.23,0,0,0,4.22,6.92Z"/><path class="cls-5" d="M105.79,134c.56,1.62-1,1.85-2.27,2.15l0-.06s0,0,0,.06c-4.71,1.12-9.64.37-14.29-.65a6,6,0,0,0,.81-.59c-1.67.46-3.77,1.45-5.28.15,4.12-1,4.27-5.24.08-6.41.59.23,1.14.46.94,1.18a12.77,12.77,0,0,0-2.56.19c1.49-4.57,4.65-1.85,6.82.52a15.25,15.25,0,0,0-1-1.26C93.38,132.69,105.54,130.27,105.79,134Z"/><path class="cls-6" d="M101.47,125.26c.54,3.12-2.34,3.92-4.64,2.33a9.28,9.28,0,0,0,2.72-.72.65.65,0,0,1-.55.55c2.33-.49.63-4.55-1.42-4.6a7.28,7.28,0,0,1,.82.67c-.65,0-1.32-.12-2-.22C97.33,119.29,101.56,122.5,101.47,125.26Z"/><path class="cls-5" d="M99.54,125.46c-1.79,4.34-11.09.57-14.44-1.72a5.94,5.94,0,0,0,.92-.8c-1.81,1.19-4.12,1.31-5.67-.42a10.62,10.62,0,0,1,2.58-.65c0,.32-.07.64-.1.95a3.87,3.87,0,0,0-2.36-5.67c.16.12.33.24.49.38-.75.12-1.51.28-2.26.47,2.56-4.16,5.42-.63,7.55,1.87a8.21,8.21,0,0,0-.5-.91C89.71,123.28,98,122.12,99.54,125.46Z"/><path class="cls-5" d="M97.38,141.39c2.14,1.32-.37,4.56-.9,6.29-1.39-.47-2.76-1-4.13-1.48C92.56,144.2,94.62,140.2,97.38,141.39Z"/><path class="cls-6" d="M96.82,117.66c.71,3.46-2.43,6.93-3.85,2.17-.15-.51,1-.07,1.57-.12a3.45,3.45,0,0,1-.38.39c2.32-.6,1.29-3.77.12-5.19l.24.84-2.37-.29C94.56,111.57,97.12,114.17,96.82,117.66Z"/><path class="cls-5" d="M95.37,150.28a39.45,39.45,0,0,0-2.75,16.93c0-.69,0-1.37.09-2.05,5.22,5.13-7.18,10.07-4.29,1.17,0,.57,0,1.14,0,1.7.73-6.48,1.4-13,3.08-19.3C92.76,149.26,94.06,149.78,95.37,150.28Z"/><path class="cls-5" d="M94.82,191.71a48,48,0,0,1-5.88-20.21c1.1.91,3.14.3,4.07-.76C92.35,177.72,92.34,185.09,94.82,191.71Z"/><path class="cls-5" d="M95.5,78.41c-12.24,2.23-19.78,15-21.37,26.2-6.48,3.69-11.71-9.07-8.6-14.42a18.6,18.6,0,0,0,5.61,8.08C53.05,83.21,84.06,56.93,95.5,78.41Z"/><path class="cls-5" d="M85.79,129.09c1.55,1,2.62,2.54,1.41,4.34-5.67,1.51-9.31,8.78-14.84,3.59,3.75-3.66,8.17-7,13.53-7.24h-.12Z"/><path class="cls-5" d="M82.62,119.6a3.93,3.93,0,0,1,.32,2.14c-4.84-.38-30.78,18.66-24,7.57C60.57,128.34,78.26,113.1,82.62,119.6Z"/><path class="cls-5" d="M95.16,117.75c1.16-4.35-4.78.37-20.7-7-.22-.1.17.45.22.69-1.53-3.25-4.45-3.2-6.79-.95a10.84,10.84,0,0,1,2.52-.22l-.21-.13c2.85.31,2,3.43-.12,4.25l.12-.16q-.72.16-1.41.36c.9,2.34,3.74.25,5.07-.56a6.39,6.39,0,0,1-1.1,1.16c1.72,1.11,5.85,3.07,6.25,2.07-.56-1.88,4.77-.87,6.37,1.07S95.86,121.76,95.16,117.75Z"/><path class="cls-5" d="M82.25,69.11C74.09,71,64.5,78.64,65.05,87.73c-19.48,3-6.34-33.34,8.57-23.82.47.3-.81-.77-1.23-1.14A20.09,20.09,0,0,1,82.25,69.11Z"/><path class="cls-5" d="M75.27,141.3a51.88,51.88,0,0,0-8.85,11.5c.32-.48.66-.94,1-1.42.87,10.2-12.67-.67-4.37-3.49-.46.77-.92,1.54-1.35,2.32C65.67,145.81,68.74,135.48,75.27,141.3Z"/><path class="cls-5" d="M70.6,110.45c1.68.93.82,2.58-.25,3.63-10.63-.25-15.19,16.18-24.59,8.07a5.68,5.68,0,0,1,3.3-1.07l-.94.79C55,116.83,62.13,110.6,70.6,110.45Z"/><path class="cls-5" d="M71.47,62.12C59.32,60.27,54.78,74.58,54.83,84,48,88.21,43.7,77.35,46.28,72.15c1.11,3.06,4,5.13,6.8,6.64C34.33,67.82,59.06,48.13,71.47,62.12Z"/><path class="cls-6" d="M65.05,87.73c3.11,7.24-13.77,7.46-9.44-6.37C57.19,77.77,60.76,89,65.05,87.73Z"/><path class="cls-5" d="M62.28,155.31a6.75,6.75,0,0,0,1.62.65,31.31,31.31,0,0,0-7.62,17,44.79,44.79,0,0,1,3.92-20.4A4.47,4.47,0,0,0,62.28,155.31Z"/><path class="cls-5" d="M62.3,134.05c-1.69,1.44-3.34,2.95-5,4.47.4-.34.81-.67,1.22-1-2.45,7.58-11-2.63-4.22-4.27-.42.45-.84.91-1.25,1.37C56.19,130.44,58.5,131,62.3,134.05Z"/><path class="cls-5" d="M58.37,56.56C49.8,58,45.25,74,45.25,74,30.81,71.26,44.85,46.09,58.37,56.56Z"/><path class="cls-5" d="M52.73,139.84a4.07,4.07,0,0,0,2.42.81c-5.07,5-9.69,11.06-11.31,18.07,0-7.92,3.33-15.67,7.59-22.28A4,4,0,0,0,52.73,139.84Z"/><path class="cls-5" d="M51.82,53.87c-3.23-.14-5.72,1.33-8.73-.36C45.86,52.4,49.32,52.12,51.82,53.87Z"/><path class="cls-6" d="M50.17,126.54c-1.64-.25-3.19-.7-4.14-2.07C47.34,124.67,48.83,125.92,50.17,126.54Z"/><path class="cls-5" d="M47.53,126.42a4.7,4.7,0,0,0,1.87.51c-6.52,3.69-10.7,10.4-13.58,17.11a43.71,43.71,0,0,1,10-19.38A3.43,3.43,0,0,0,47.53,126.42Z"/><path class="cls-6" d="M44.23,73.65l1.24.35a22.18,22.18,0,0,0-.15,4.66c-4.32-.26-5.86-5.1-5.37-8.9A5.77,5.77,0,0,0,44.23,73.65Z"/><path class="cls-5" d="M46.07,54.92c-4.1,4.5-8,1.94-13.44,2.25C36.41,54.2,41.61,52.68,46.07,54.92Z"/><path class="cls-5" d="M41.88,58.54a13.53,13.53,0,0,0-2.32,5.51c-6.63-.09-13.51.88-19.43,3.9C24,59.39,33,55.36,41.88,58.54Z"/><path class="cls-5" d="M39.76,69.21c-1.34,8.27-11,13.46-17.39,18.19C4,97.4,8.21,61.57,39.55,64.09A11.07,11.07,0,0,0,39.76,69.21Zm-10,9.93C20.94,86.63,10.91,88.06,17,73.3,10.13,88.08,21.09,87.44,29.71,79.14Z"/><path class="cls-6" d="M39.76,69.21a11.07,11.07,0,0,1-.21-5.12C19.6,65.34,8.92,86,29.71,79.14c-12.48,13.88-23,4.94-11-9.77-5.61,3.72-9.84,13.43-4.83,19.12C21.5,92.35,38.7,76.61,39.76,69.21Z"/><path class="cls-6" d="M39.56,64.05a13.53,13.53,0,0,1,2.32-5.51c-5-1.67-21.1,8.68-21.75,9.41C26.05,64.93,32.93,64,39.56,64.05Z"/><path class="cls-6" d="M37.79,57.45c3.41,1.22,4.7,1.15,7.53-2.12-5.43-1.5-12.69,1.84-12.69,1.84A25.54,25.54,0,0,1,37.79,57.45Z"/><path class="cls-6" d="M47.65,54.3a8.52,8.52,0,0,0-4.56-.79C44.74,53.64,46.07,55.28,47.65,54.3Z"/><path class="cls-6" d="M42.92,69.46c-2.81-1.77-2-6.87-1.37-9.5C38.67,64.62,38.76,73,45.47,74c.34-6.11,1.49-12.41,7.8-15.61C47.69,58.6,42.68,67.77,42.92,69.46Z"/><path class="cls-6" d="M51.13,74.26c-6.81-3.8-2.2-10.39-1.63-12.12-5.8,6.17-3.44,12.9,3.58,16.65-2.82-1.51-5.69-3.58-6.8-6.64-2.59,5.2,1.77,16.06,8.55,11.89C55.35,77,56,69.3,62.3,64.56,57.56,64.77,51.56,71.42,51.13,74.26Z"/><path class="cls-6" d="M60.84,83c-5.42-6.33-1.4-14,.32-16.66-6.9,5.68-3.89,17.42,3.89,21.42,5.88,3,4.47-12,9.66-15.41C66.19,73.25,62.14,78.85,60.84,83Z"/><path class="cls-6" d="M72.68,94.8C65.55,90.75,67.85,81.44,69,78c-5.73,6-3.92,15.18,2.14,20.26a18.6,18.6,0,0,1-5.61-8.08c-2.76,5.61,1.23,17,8.62,14.81,1.46-10.63,6.91-20.88,17.39-25.44C82.33,80.44,73,91.24,72.68,94.8Z"/><path class="cls-6" d="M92.51,97.37c2.19-4.61,8.23-9.69,13.22-6.2a10.7,10.7,0,0,1,2-2.12c-.51-.66-1-1.29-1.57-1.92a22.89,22.89,0,0,1-3.42,2.09c-9.83-4.58-17.75,9.16-17.64,17.2C73.32,98,82.42,87,84.05,85.24c-6.57,6-11.06,13.87-2.82,20.82-.29-.21-.46-.34-.5-.38l0,0a11.23,11.23,0,0,1-4.22-6.92c-7.24,11.55,5.95,16.53,15.61,16.68a1.8,1.8,0,0,1,.32-.57C87.32,111.45,90.11,101.87,92.51,97.37Z"/><path class="cls-6" d="M111,88.14c-2,.14-3.8,1.66-5.11,3.14A6.72,6.72,0,0,1,107.44,93S108.65,89.14,111,88.14Z"/><path class="cls-6" d="M107.44,93a6.78,6.78,0,0,0-2-1.82C106.28,91.84,107.44,93,107.44,93Z"/><path class="cls-6" d="M130.51,131.2s3.13-15.39,9.55-7.41C136.82,124.34,132.63,125.51,130.51,131.2Z"/><path class="cls-6" d="M153.7,117.69c-3.61-9.56-4.44,2.32-1.64,5.53C151.47,120.25,150.41,116.31,153.7,117.69Z"/><path class="cls-6" d="M136.48,138.24a13.39,13.39,0,0,0,9.27-2.91C149,137.28,137.39,140.18,136.48,138.24Z"/><path class="cls-6" d="M40.21,135.81a27.86,27.86,0,0,1,9.19-8.88,4.32,4.32,0,0,1-2.57-1c-1.95,2.38-8.49,9.23-10.59,17.13A47.05,47.05,0,0,1,40.21,135.81Z"/><path class="cls-6" d="M66,115.17c2-1.06,5.59-.43,5.57-3.51-3.14,1-15.92,4.91-22.66,12.06,1.19.61,2.37,1.24,3.55,1.88A37.16,37.16,0,0,1,66,115.17Z"/><path class="cls-6" d="M95,118c-1.48-.16-6.67-.74-11.69-1.78C85.19,118.94,94,121.42,95,118Z"/><path class="cls-6" d="M73.49,112.75a3.65,3.65,0,0,0-1.42-1c.16,1.21-1,2.16-2,2.7l.12-.16q-.72.16-1.41.36c.9,2.34,3.74.25,5.07-.56a6.39,6.39,0,0,1-1.1,1.16c3,1,5.76,3,8.08.41C77.7,114.88,74.9,113.92,73.49,112.75Z"/><path class="cls-6" d="M47.54,150a47.82,47.82,0,0,1,7.61-9.38,3.8,3.8,0,0,1-2.76-1.14c-2,1.62-7.67,12.54-8.53,19.14A27,27,0,0,1,47.54,150Z"/><path class="cls-6" d="M54.43,138.08A3.52,3.52,0,0,1,52,137.4c.34,3.61,6,3.65,6.55.12-.41.33-.82.66-1.22,1,1.63-1.52,3.28-3,5-4.47C58.52,130.49,53.63,139.26,54.43,138.08Z"/><path class="cls-6" d="M61.87,131c6.56,2.66,12.94-9.78,21.07-9.26C83,116.26,70.15,125.33,61.87,131Z"/><path class="cls-6" d="M91.78,126.78c2.07.28,10,1.5,7.7-1.66C88.71,129.07,83,113.84,79,117.92c.64-.16,1.29-.29,1.93-.39-.16-.14-.33-.26-.49-.38a3.87,3.87,0,0,1,2.36,5.67c0-.31.07-.63.1-.95a10.62,10.62,0,0,0-2.58.65c1.55,1.73,3.86,1.61,5.67.42a5.94,5.94,0,0,1-.92.8A20.79,20.79,0,0,0,91.78,126.78Z"/><path class="cls-6" d="M64.78,150.52c-.71,1.57-3.55,2-4.25,1,.33,4.81,8.09,5.79,6.88-.19-.33.48-.67.94-1,1.42a51.88,51.88,0,0,1,8.85-11.5C71,138.68,68.23,146.64,64.78,150.52Z"/><path class="cls-6" d="M62.28,155.31a4.84,4.84,0,0,1-.93-.73c-.89,1.63-5.41,12.17-5.07,18.34a31.31,31.31,0,0,1,7.62-17A6.75,6.75,0,0,1,62.28,155.31Z"/><path class="cls-6" d="M86.21,129.67c.29.2.58.35.84.5a4.74,4.74,0,0,0-1.26-1.08v.64Z"/><path class="cls-6" d="M77.18,139.59c2.75-3.43,8.67-4.15,10.53-7.58-1.32.06-6.42,1.24-12.63,6.48Z"/><path class="cls-6" d="M85.43,129.78l.35-.05c.19-.7-.39-.9-1-1.13,4.19,1.17,4,5.43-.08,6.41,1.51,1.3,3.61.31,5.28-.15a6,6,0,0,1-.81.59c4.65,1,9.58,1.77,14.29.65,0,0,0,0,0-.06l0,.06c1.86-.21,2.88-1.07,2.1-2.95-15.44,5.24-19.86-9.33-22.41-3.18A12.55,12.55,0,0,1,85.43,129.78Z"/><path class="cls-6" d="M91.11,171.86a3.3,3.3,0,0,1-.6.08,57.25,57.25,0,0,0,3.06,15.62A56.46,56.46,0,0,1,93,170.74,4.08,4.08,0,0,1,91.11,171.86Z"/><path class="cls-6" d="M94.61,152.27c.24-.67.49-1.33.76-2l-2.28-.89c-1.59,3.2-3.31,14-2.9,22.06,2.94.22,5.32-4.8,2.52-6.29,0,.68-.07,1.36-.09,2.05A40.18,40.18,0,0,1,94.61,152.27Z"/><path class="cls-6" d="M96.48,147.68c3.07-4.16,1.2-10.08-3-4,3.87-2.46,2.53.38.7,3.18Z"/><path class="cls-6" d="M111.21,143.55a14.35,14.35,0,0,1,3.91.08,5.64,5.64,0,0,0-.4-2.7c-1.73.29-13.64,2.23-16.2.21-2-1.17-7.67-2.59-5.89,3.52.75-1.57,2-3.27,3.83-3.62a6.16,6.16,0,0,0-1.95-.16c4.25-.92,4.73,2.86,2.94,5.81,1.34-.18,2-1.42,2.61-2.51a3.28,3.28,0,0,1-.36,1.42A65,65,0,0,1,111.21,143.55Z"/><path class="cls-6" d="M132.75,155.85c1.12-4.73-5.66-6.15-6.55-10-.55-2.37-2.79-7.93-6.22-5-2.19,1.89,4.32,5.94,5.93,8,1.84,2.35,1.84,3.69-1.6,1-4.35-3.18-6.2,1.18-6.2,1.18C120.37,157.49,128.19,156.42,132.75,155.85Z"/><path class="cls-6" d="M128.14,162.73a17.86,17.86,0,0,0-1-2.31,9.51,9.51,0,0,1,.69,1.05,7,7,0,0,1,.72-1.82c-2.59-.45-5.16-1-7.72-1.56,1.56,2,5.7,7.49,4.19,8.92-.83-2.75-21.91-7.76-17-.34,4.59-3.8,15.48-.22,15.72,6.2C128.82,172.82,129.82,166.68,128.14,162.73Z"/><path class="cls-6" d="M120.15,180.19a23.15,23.15,0,0,1,3.1-1,19.16,19.16,0,0,0-4.76-4.12c-10.12.1-20.24,12.55-9.07,21.62A16.83,16.83,0,0,1,120.15,180.19Z"/><path class="cls-6" d="M108.59,166.76c2.52.39,11.55,2.21,9.91,8.27a10.25,10.25,0,0,1,4,2.51C127,169.18,115.25,163,108.59,166.76Z"/><path class="cls-6" d="M150.78,187.2c-2,5.4-36,16.67-41.27,7.91a16.6,16.6,0,0,0,.06,3.38,13.07,13.07,0,0,1-.15-1.77,12.12,12.12,0,0,1-2.16-1.44c15.9,21.56,68.76-4.32,75.13-27.44-18.25,23.91-36.16,7.26-58.84,11.8C123.55,179.64,151.45,181.67,150.78,187.2Z"/><path class="cls-6" d="M150.69,180.66c6.69,4,13.94-12,25.79-10.26C166.77,168.38,154,178,150.69,180.66Z"/><path class="cls-6" d="M153.18,153.76c-3.78-.6-10.1-5.92-11.43-7.08,2,3.28,5.08,7.66,8.91,8.37a22.16,22.16,0,0,1-6.65,1.24C147.81,157.08,157.45,154.39,153.18,153.76Z"/><path class="cls-6" d="M142.29,150c.54.2,1.09.38,1.64.54a16.6,16.6,0,0,1-2.44-4.06S141.83,148,142.29,150Z"/><path class="cls-6" d="M152.62,144.07c2.65,1.24,9.83,11.59,13,13C158.21,154.21,155.54,149.41,152.62,144.07Z"/><path class="cls-6" d="M157.39,142.14s6.33,11.48,16.48,14C165.81,154.53,158,148.23,157.39,142.14Z"/><path class="cls-6" d="M159.82,140.39s5.19,4,9.17,5C166.41,145.57,160.22,143.66,159.82,140.39Z"/><path class="cls-6" d="M167.32,123.69a14.11,14.11,0,0,0,.86-2.52,6.46,6.46,0,0,1-.31,2.24c7.49-3.06-4.18-16.77-3.75-7.06,1.24,4.89-1.68,6.45-2.93,6.89-.06,2.3,1.35,2.65,2.59,4.08A8.78,8.78,0,0,0,167.32,123.69Z"/><path class="cls-6" d="M192.77,103.24a25.7,25.7,0,0,1,1.28-8.54c-2.4-.47-3.68,6.28-4.25,10-7-10.31-7.08,8.6-8.34,12.81,1.43-.55,3.38-1.56,4.78-.63a3.29,3.29,0,0,0-2.7.16C195.68,125.06,197.28,111.68,192.77,103.24Z"/><path class="cls-6" d="M180.2,110.66c-8.61-3.32-10.7,2.08-11.09,3.48,1.35,2.13,2.22,5,1,7.36,7.21.71,9.78-4.94,10.24-11.17C180.28,110.44,180.24,110.55,180.2,110.66Z"/><path class="cls-6" d="M129.61,96.72a21.39,21.39,0,0,0-1.32-4.16C127.91,94,127.77,97.36,129.61,96.72Z"/><path class="cls-6" d="M128.07,96a8.54,8.54,0,0,0-2.39-5.48,6.26,6.26,0,0,1,2.2,2.4c.73-2.23-2.57-3-3.23-2.64C126.22,93.13,124.42,95.2,128.07,96Z"/><path class="cls-6" d="M140.54,97.61c-.5,2.33-1.75,5.58.93,7C142.31,101.85,141,98.8,140.54,97.61Z"/><path class="cls-6" d="M137.54,95.59c1.5,1.49-.52,4-1.35,4.93,1.06.7,2.09,1.43,3.09,2.21a42.53,42.53,0,0,0,.33-5.53,8.63,8.63,0,0,1,.37,1.58C141.45,97.25,138,94.5,137.54,95.59Z"/><path class="cls-6" d="M150.1,101c0,.78-.26,2.45-1.16,2.49,1.39,1.54,3.2,3.35,3.28,5.83C153.63,107.3,150.59,102.44,150.1,101Z"/><path class="cls-6" d="M146.06,109.77c1.58-1.69,2.18-4.1,2.5-6.42l0,0h0c.11-.75.18-1.51.26-2.23a13,13,0,0,1,.12,2.21c1.91-.65.25-5.92-1.18-3,.85,2.4-3,6.37-3.61,7A28.24,28.24,0,0,1,146.06,109.77Z"/><path class="cls-6" d="M164.27,109.94c-1.07-3.33-2.91-4.09-3.55-4.14a3.29,3.29,0,0,1-.2,1,6.26,6.26,0,0,1,3.71,3.23A.43.43,0,0,0,164.27,109.94Z"/><path class="cls-6" d="M153,114.69c2.74-2.31,4.21-5.78,5.9-8.87-.1.38-.22.75-.34,1.12,1.88,1,2.48-1.21,1.64-2.22a1.86,1.86,0,0,0-2.26-.68c-.52,3-5,8.32-5.95,9.37A4.61,4.61,0,0,1,153,114.69Z"/><path class="cls-6" d="M207.72,119.7c-14.54-8.33-14.15-21.45-13.95-23.89-8.07,34.64,44.76,31,49.4,60.4C244.46,141.81,223.79,128.91,207.72,119.7Z"/><path class="cls-6" d="M243.05,156.65c-7.31-10-10.94-22.07-24.77-25.35C223.55,140,237.45,153.4,243.05,156.65Z"/><path class="cls-6" d="M157.94,152.61a.85.85,0,0,0-.06-.17c-6.92,19.81-87-11.54-92.52-17C78,144.31,155,176.32,157.94,152.61Z"/><path class="cls-6" d="M170.21,145.16a91.86,91.86,0,0,0,7.64-16.65c-6.34,15.64-11.3,14.9-11.3,14.9C167.6,143.89,169.26,145.81,170.21,145.16Z"/><path class="cls-8" d="M138.58,148.65a21.92,21.92,0,0,1-3.25-2.06,9.69,9.69,0,0,1,.15,1.85c1-.71,5,1.17,5.51,3.35A3,3,0,0,0,138.58,148.65Z"/><path class="cls-8" d="M131.1,142.19a28,28,0,0,1-4.23-9.36c-1,16,2.84,6.85,8.61,15.61C135.35,145.6,132.35,144.51,131.1,142.19Z"/><path class="cls-4" d="M140.94,124.35c2.6,1.4,1.44,3.59-1.18,2.25S138.32,123,140.94,124.35Z"/><path class="cls-4" d="M158.21,119.6c2,1,1.1,2.7-.88,1.7S156.23,118.6,158.21,119.6Z"/><path class="cls-9" d="M116.33,92.79c-1.75-1.36,37.72,18.4,17.31,21.22,2,.67,7.92,2.46,9.15,4.13-1.31-3.13,2.47-6.41,3.69-6C143.8,107.76,126.38,94.92,116.33,92.79Z"/><path class="cls-10" d="M194.57,93.38a5,5,0,0,0-1.26.72,12.53,12.53,0,0,1,3.39-.56,19.44,19.44,0,0,0-2.13-.16Zm2.52.16h-.39c23.07,3.08,52.85,47.34,46.82,70h0a21.21,21.21,0,0,0,1.07-8.14c1.2-17.66-27.3-61.86-47.53-61.85Zm-3.78.56h0l0,0Z"/><path class="cls-10" d="M38.64,65a9.2,9.2,0,0,0,.37,4.2l-.06.4a13.36,13.36,0,0,0-.08,1.94l-.17.27c-3.64,5.52-14.76,15.92-21.27,16.77v-.74c-3.66,0-5-2.86-5-5.55,0-7.16,8-17.25,25.83-17.26v0h.35m143.15,43.43c0,3.32-.13,6.7-1.2,8.58l-1,1.74.41-1-.8.33c1.57-2.65,2.22-6.18,2.59-9.68m-1.74,10.69a85.88,85.88,0,0,1-10.28,25l-1.49-.9c4.66-3.76,6.55-10.05,8.39-16.15a69.48,69.48,0,0,1,2.4-7.11l.25-.6.73-.28m-62.19,33.37a7.12,7.12,0,0,0,.78.86q-.86-.15-1.71-.33a6.56,6.56,0,0,0,.93-.53M46.16,52.23a24.78,24.78,0,0,0-13.88,5c-7,.86-19.78,16.27-20.91,23-.27,6.92,1.94,9.47,5.25,9.47,7.09,0,19.24-11.72,22.91-17.28,0,3.55,2.24,6.52,5.82,6.52h0c.76,3.14,3.34,6.56,6.46,6.56a5,5,0,0,0,2.94-1c-.75,4.39,2.38,8.41,6.2,8.41a6.27,6.27,0,0,0,3.82-1.4C62.7,96.5,66.19,105.62,72,105.62a6.15,6.15,0,0,0,2.16-.41,12.52,12.52,0,0,0,2.65,6.65c-2.29-1.14-4.17-3.46-6.16-3.46-1,0-2,.59-3.17,2.23-8.36,1.74-14.72,8.62-22.07,11.35-8.31-4-17.47-6.63-26.72-6.63l-1.32,0C26.55,117.58,32.86,119,37,120a69.42,69.42,0,0,0-16.56-4.46c9.66.37,18.61,3.61,27.13,7.9a11.76,11.76,0,0,1-1.85-1.33,5.68,5.68,0,0,1,3.3-1.07l-.94.79c4.57-2.61,14-11.06,20.06-11.06a4.4,4.4,0,0,1,3.35,1.35,4.16,4.16,0,0,1-1.18,1.92h-.24c-8.37,0-13,10.32-19.25,10.32a6.17,6.17,0,0,1-2.56-.57c1.75.89,3.47,1.82,5.18,2.77a9.76,9.76,0,0,1-.95-1c5.07-4.8,10.65-9.83,17.67-11.35l-.12.16c2.14-.82,3-3.94.12-4.25l.21.13h-.36a11.24,11.24,0,0,0-2.16.23,5.07,5.07,0,0,1,3.39-1.6c1.34,0,2.57.79,3.4,2.55a4,4,0,0,0-.22-.69c5.84,3.92,13.22,4.7,20.09,5,1.25,2.92,0,3.69-2,3.69s-5.09-.85-6.78-1c-1.55-2.12-2.81-2.69-4-2.69-1.45,0-2.87.8-4.71.8a6.26,6.26,0,0,1-1.92-.3A11.38,11.38,0,0,0,79,117.63a3.24,3.24,0,0,1,2.47-1.57c1.84,0,3.44,2.45,4.83,3.81a8.21,8.21,0,0,0-.5-.91c1.65,2.24,4.94,2.94,7.9,3.64A36.71,36.71,0,0,1,87,119.28a20.28,20.28,0,0,0,4.91.57,26,26,0,0,0,2.65-.14,3.45,3.45,0,0,1-.38.39c2.32-.6,1.29-3.77.12-5.19l.24.84c-9.91-.34-25.8-4.07-18-17a11.37,11.37,0,0,0,4.69,7.28C69.09,96.11,85,81,95.85,78.86c5.15.47,8.36,6.73,11.85,10.19a10.7,10.7,0,0,0-2,2.12,7.84,7.84,0,0,0-3.76-1c-9.48,0-16.65,18.67-9.5,24.73a5.6,5.6,0,0,0-.31.49c1-1.31,1.87-1.84,2.54-1.84,2.66,0,2.58,8.26.35,8.26-.56,0-1.25-.52-2.07-1.82,0,1.33,1.53,2,1.82,2.9l.55.14a.63.63,0,0,1-.25-.68c3.57-1,2.47-9-.38-9a3,3,0,0,0-2.21,1.45c-6.65-6,.85-24.44,9.56-24.44A7.52,7.52,0,0,1,107.44,93a6.72,6.72,0,0,0-1.55-1.67,6.68,6.68,0,0,1,5.43-3,6.34,6.34,0,0,1,5.43,3.23c-1-.31-2.07-.6-3.11-.86,12.56,4.38,26.31,10,33.8,21.59a4.77,4.77,0,0,0-1.22.37,6.42,6.42,0,0,1,1.43-.17,6.06,6.06,0,0,1,5.95,4.93l-.67,0a8.94,8.94,0,0,0-1.37.11,7.82,7.82,0,0,1,.33-1.37c-4.27,9.67,9.12,13.94,9.76,22.39a18.44,18.44,0,0,1-1.85-3.15A17.15,17.15,0,0,0,169,145.41c-4.64-.27-8.05-2.86-10.27-6.63,3.66,6.78,8.49,13.38,15.15,17.35-7.14-1.75-13.69-5.86-16.18-12.8a33.94,33.94,0,0,0,7.95,13.77c-6-3.06-12.77-8.8-13.13-16a1.54,1.54,0,0,0-.3,0c-.71,4.83,3.82,7.68,5.74,11.51-.29,6.28-6.09,8.52-14.21,8.52-17.17,0-44.72-10-52.49-13-2-.71-4.06-1.5-6-2.36,1.81.88,3.76,1.86,5.89,2.81a73.29,73.29,0,0,0-2.8,18.13l.12-.39c0,.57,0,1.14,0,1.7.73-6.48,1.4-13,3.08-19.3,1.3.53,2.6,1.05,3.91,1.55-.27.66-.52,1.32-.76,2a40.18,40.18,0,0,0-2,14.94c0-.69,0-1.37.09-2.05,3.13,3.07-.08,6.08-2.52,6.08a2,2,0,0,1-1.85-1c.35,8.39,2.59,16.58,7.63,23.66-3-7.41-3-15.62-2.7-23.47,1.25-1.37,1.62-4.84-.55-5.38a47.28,47.28,0,0,1,3.13-14.61A185.07,185.07,0,0,0,116.23,157c-3.41,1.9-15,4.81-8.33,9.72a8.68,8.68,0,0,0-2.15,4.46c1.12-3.7,4.57-5.4,8.11-5.4,5,0,10.14,3.36,9.32,9.2a9.74,9.74,0,0,1,.51-1.86c8.29,0,4.19-8.8,5.11-13.41,4,.34,10.79,1.7,16.87,1.7,6.72,0,12.59-1.67,13-8.22a24.69,24.69,0,0,0,8.06,4.66,31.58,31.58,0,0,1-5.5-7.66c4,3.18,8.75,5.92,13.9,6.4-3.92-2.11-7-5.48-9.81-8.83a3.14,3.14,0,0,0,2.6-.44,2.93,2.93,0,0,1-1.19.27c-1.83,0-3.45-1.92-4.62-4a13.89,13.89,0,0,0,7.59,2.24,7.26,7.26,0,0,1-.8.84,5.19,5.19,0,0,1,1.66-.87l-.43-.22a86.92,86.92,0,0,0,11.24-27.49,2.69,2.69,0,0,1,1.65-.59c2.11,0,4.1,2.53,6.51,2.53a3.55,3.55,0,0,0,.64-.06c3.19-.25,4.89-3.3,5.54-6.2,5.06,8.06,13.75,13.47,22.21,17.37,5.54,8.23,16.22,24.06,25.46,27.38a26.69,26.69,0,0,1,.1,5.29,2.77,2.77,0,0,0,.1-.26,37.67,37.67,0,0,0,0-5c-.65-10.06-7-16.59-15-22A40.71,40.71,0,0,1,237,146.73a31.2,31.2,0,0,1-1.7-4.53,30,30,0,0,1,7.64,13.68c-1-1.23-2-2.5-2.89-3.81,1.15,2.13,2.24,4.29,3.35,6.4-11-5.87-17.61-17.57-25.07-27.17a28,28,0,0,1,3.78,1.31c-11-6.33-23-11.8-27.41-21.41.53,3.55,0,6.56-4.1,8.17a5.78,5.78,0,0,1-.71,0c-2.28,0-4.24-1.46-6.3-2.34a4.77,4.77,0,0,1,1.71-.39,2.12,2.12,0,0,1,1,.23,2.3,2.3,0,0,0-1.34-.38,10.37,10.37,0,0,0-3.44,1c2.43-4.25.28-14.15,2.57-18.25-.82.38-1.67.81-2.51,1.27-1,8.25-.16,21-10.41,21-.33,0-.67,0-1,0,2.26-4.47-2-9.66-5.72-11.22a9,9,0,0,1,7.71-4.47,8.42,8.42,0,0,1,1.86.21l-.3.46a.87.87,0,0,1,.78-.4c.63,0,1.41.41,2,.45a17.69,17.69,0,0,0-2.19-.75c.4-.46.81-.91,1.23-1.37a7.82,7.82,0,0,0-1.36,1.34,8.67,8.67,0,0,0-2.49-.36,7.9,7.9,0,0,0-6.5,3.2c.24-2.44-5.37-7.11-8-7.11-1.05,0-1.62.75-1.15,2.67A34.15,34.15,0,0,1,154,107c.17-3.34-3-9.19-6.57-9.19a3.63,3.63,0,0,0-2.25.84c-.1,1.88-.12,3.36-2,4.52.25-5.06-3.26-10.15-6.17-10.15-1.63,0-3.07,1.62-3.53,5.78-4.4-1.31-1.92-9.66-7.42-10.23A4.73,4.73,0,0,0,124,88c-2.12,0-1.9,3.06-2.74,5.05-3.93-.53-6.61-5.45-10.15-5.45A5.12,5.12,0,0,0,107.76,89c-3.42-3.73-6.66-10.5-12.18-10.6l-.3-.4.22.41a18.32,18.32,0,0,0-7.61,3.2C79.36,86.69,75.61,95.8,74.15,105a6.64,6.64,0,0,1-1.82.27c-6.21,0-9.33-10-6.8-15.08a15.07,15.07,0,0,0,2.31,4.49c-7.22-10.74,4.35-24.39,15.48-24.39a12.46,12.46,0,0,1,6.17,1.6,11.68,11.68,0,0,0-6.92-2.84,49.71,49.71,0,0,0-12.95-8.7,16.12,16.12,0,0,1,1.85,1.77,12.06,12.06,0,0,0-2.24-.22,11.17,11.17,0,0,0-1.29.08C58,63.45,54.87,75.88,54.83,84a5.63,5.63,0,0,1-3,.93c-5,0-7.77-8.43-5.58-12.82,1.11,3.06,4,5.13,6.8,6.64-14.14-8.27-3.55-21.51,7.83-21.51a14.84,14.84,0,0,1,1.76.1c-2.43-.92-4.89-1.75-7.33-2.52a10,10,0,0,1,2.6,1.69,10.64,10.64,0,0,0-2.31.64C46.41,60.45,44.9,70.28,45.32,78.66c-4.32-.26-5.86-5.1-5.37-8.9a5.71,5.71,0,0,0,1.68,1.94c-5.89-6.3,1.81-17.62,10.09-17.62a9.07,9.07,0,0,1,1.63.15L52.41,54a10.9,10.9,0,0,0-6.25-1.72Zm.22,2.55a10.5,10.5,0,0,0-3.29-1.27,12,12,0,0,1,4.4-.89,7.45,7.45,0,0,1,4.33,1.25c-.34,0-.69,0-1,0a10.84,10.84,0,0,0-4.41,1ZM32.63,57.17a14.67,14.67,0,0,1,8.83-3.32,10.21,10.21,0,0,1,4.61,1.07,10.79,10.79,0,0,0-3.16,2.33,3,3,0,0,1-2.14.72,8.36,8.36,0,0,1-1.28-.12,17.91,17.91,0,0,1,2.39.69,13.53,13.53,0,0,0-2.32,5.51h-.8c-6.38,0-12.95,1-18.63,3.91A17,17,0,0,1,38.65,57.69a22,22,0,0,0-4.42-.76,5,5,0,0,0-1.6.24ZM62.94,88C49.05,84.47,58,62.43,68.87,62.43a8.66,8.66,0,0,1,4.75,1.48c-.39-.4-.81-.77-1.23-1.14a20.09,20.09,0,0,1,9.86,6.34,14.3,14.3,0,0,0-2.65.75C70.39,73.09,64,81.5,64.93,91.11a8.28,8.28,0,0,1-4.15,1.3c-4.65,0-6.66-5.85-5.17-11,1.23,3,3.88,6.26,7.33,6.65ZM11.46,82.33c0-7.35,8.13-18.26,26.83-18.26-18.7,0-26.82,10.91-26.83,18.26,0,3.74,2.1,6.55,6,6.55-3.87,0-6-2.81-6-6.55Zm111,9c-.06,0-.09,0-.12-.11-.44-1.74.35-2.39,1.48-2.39,1.8,0,4.49,1.67,4.44,3.25a1.27,1.27,0,0,1-.34.74,6.26,6.26,0,0,0-2.2-2.4A8.54,8.54,0,0,1,128.07,96q-3.12-1.52-6.36-2.75a8.53,8.53,0,0,1,1.84-2.61c-.39.09-.9.79-1.13.79Zm8.38,6q-1.16-.61-2.34-1.2c-.47-2.56.9-5.33-1.73-7.11,2.9,1.57,3.3,5.43,4.07,8.31Zm9.32-.34c-.12-1.73-.86-3.14-3.73-3.48a3.82,3.82,0,0,1,.57,0c4.31,0,5.25,6.54,6,9.89-.49.42-1,.81-1.51,1.21-2-1.24-1.55-3.67-1.38-6l-.11.16a8.54,8.54,0,0,0-.37-1.59,42.53,42.53,0,0,1-.33,5.53c-2.66-2-8.38-4.52-3.1-7.18a1.12,1.12,0,0,0-.55-.14c-.53,0-1,.32-1,.5v0c-.27-1.32.29-1.83,1.14-1.83A5.85,5.85,0,0,1,140.12,97Zm5.16,3.89c-.37-1.89.56-2.66,1.67-2.66,1.52,0,3.4,1.44,2.77,3.45-.06.55-.05,1.54-.78,1.63a13,13,0,0,0-.12-2.21c-.08.72-.15,1.48-.26,2.23h0l0,0c-.32,2.32-.92,4.73-2.5,6.42a30,30,0,0,0-4.33-5c2.07-1,4-2.87,4.37-5.25a9.87,9.87,0,0,1-.82,1.33Zm6.94,8.39c-.08-2.48-1.89-4.29-3.28-5.83,1.34-.33,1.27-2.83,1-3.93,2,1.66,4.86,6.45,2.92,8.91l-.65.85Zm3.89-5.29c-.3-1.49.16-2.07.88-2.07,1.49,0,4.07,2.49,3.26,4.41a.84.84,0,0,1-.88.88,1.76,1.76,0,0,1-.86-.27c.12-.37.24-.74.34-1.12-1.69,3.09-3.16,6.56-5.9,8.87a4.64,4.64,0,0,0-2.82-2.27c2.51-2.79,5.24-5.7,6.48-9.31l-.5.88Zm8.12,6a6.26,6.26,0,0,0-3.71-3.23,4.12,4.12,0,0,0-.62-3.8c2.15,1.12,6,4.54,4.33,7Zm-15.47,2.22c-1,0-2-.71-2.6-2.31,1.75-1.22,2.54-3.51,2.74-5.76,1.66,1.2,2.48,3.42,3,5.47-.79,1.63-2,2.6-3.19,2.6Zm7.78,5.8a3.39,3.39,0,0,1-3.52-3.18c2.8-1.65,4.32-4.86,5.45-7.81a2,2,0,0,0,1.11.42.91.91,0,0,0,.78-.41c1.45.76,3.21,2.17,3.54,3.74-2.27.32-3.05,3-2.9,5.09a6.18,6.18,0,0,1-4.46,2.15Zm4.56-1.23c-.19-3.81,1.18-5.28,2.93-5.28,3,0,7,4.29,6.21,8.5a4.53,4.53,0,0,1-2.37,3.39,6.46,6.46,0,0,0,.31-2.24,8.86,8.86,0,0,1-4.4,6.15c-3.23-2-2.14-6.61-6-8.64a9.92,9.92,0,0,0,3.27-2.2c0,.1,0,.21,0,.32Zm-6.72,9.82a12.15,12.15,0,0,1-2.82-9.11h.06a12,12,0,0,1,3.84.62c-2.1,2.32-2.14,5.76-1.08,8.49Zm4,2.66c-4.17,0-5.87-7.46-2.78-11.11,4.3,1.28,5.93,5.76,6,9.84a5.32,5.32,0,0,1-3.18,1.27Zm19.78-9.63c-3.26,7.72-4.29,19-11.65,23.71-7.14-3.75-4.46-10-2.61-15.77,8.77-8.17,3.73-3.68,14.26-7.94ZM161.59,128c0-.64,0-1.28,0-1.91a2.36,2.36,0,0,1,1.73,2.6,3.27,3.27,0,0,1-2.6,2.77,2,2,0,0,0,.41,0,2.1,2.1,0,0,0,.93-.23,14.05,14.05,0,0,1-1,3.66c-.72-2.14-2.5-3.7-4-5.29.33,0,.66,0,1,0,1.9,0,3.78-.61,4.22-2.48a3.46,3.46,0,0,1-.68.79Zm8.35,17.5-3.39-2.07,3.39,2.07Zm-62,21.19c-6-5.4,5.72-6.91,8.49-9.62q6,1.53,12.07,2.6a7,7,0,0,0-.72,1.82,9.51,9.51,0,0,0-.69-1.05c1.4,2.6,2.39,6,1.41,8.79a5,5,0,0,1-4.81,3.66h0c-.17-4.61-5.84-7.75-10.72-7.75a7.79,7.79,0,0,0-5,1.55ZM90.3,171.94a3.82,3.82,0,0,0,2.71-1.2c-.66,7-.67,14.35,1.81,21-.1-.16-.2-.31-.29-.47a48.91,48.91,0,0,1-5.59-19.74,2.08,2.08,0,0,0,1.36.44ZM53.35,54.23l2,.63a9,9,0,0,0-2-.63Zm9.32,3.15c2.35.9,4.68,1.87,7,3a13.6,13.6,0,0,0-7-3Zm-24,.31c.29.06.57.12.84.16l-.84-.16Zm3,14a10.16,10.16,0,0,0,2.6,2,3.6,3.6,0,0,0,.41.21s-1.63-1-3-2.16Zm47.86.19A33.72,33.72,0,0,1,95.28,78a15.4,15.4,0,0,0-5.79-6.11ZM194.56,93.37q-.23.54-.42,1.08a2.86,2.86,0,0,0-.86-.34l-.29,0c-1.84,0-2.85,2.08-3.44,3.61a1.1,1.1,0,0,0-.49-.09,2.39,2.39,0,0,0-.44,0c.27.06.56.14.86.23a10.56,10.56,0,0,0-.53,2.39c.84-1.85,1.84-5.73,4.23-5.73a2.6,2.6,0,0,1,.87.16c-1.62,2.44-1.66,5.27-1.2,8.16a29.73,29.73,0,0,1,1.72-9.48ZM67.84,94.68a17.36,17.36,0,0,0,3.3,3.59,25,25,0,0,1-3.3-3.59ZM140.12,97a12.8,12.8,0,0,1,0,1.63,1.68,1.68,0,0,0,0-1.63Zm47,.47A3.34,3.34,0,0,0,184,99.3a18.82,18.82,0,0,1,4.59-1.65,6.12,6.12,0,0,0-1.46-.18Zm-5.44,1.68a28.26,28.26,0,0,0-6.24,5.26,42.25,42.25,0,0,1,6-3.84c.06-.49.12-1,.2-1.42Zm11.13,3.71a19.52,19.52,0,0,0,1.8,8.34c-.4-2.61-1.34-5.5-1.8-8.34Zm-19.21,3.62,0,0,0,0Zm-99.78,7.6c-1,.55-2.34,1.63-3.55,1.63A1.78,1.78,0,0,1,68.9,115a1.49,1.49,0,0,0,1.62,1.1,3.88,3.88,0,0,0,1-.15,2.44,2.44,0,0,1,1.09-.24,5,5,0,0,1,1.56.31,8.88,8.88,0,0,1-1.44-.81,6.39,6.39,0,0,0,1.1-1.16Zm.34,2a7.4,7.4,0,0,0,.87.34c-.29-.12-.58-.24-.87-.34Zm6.27,1.1c.16.12.33.24.49.38-12.5.58-18.31,10.63-23.89,10.63A4.43,4.43,0,0,1,56,128c2.66,1.54,5.3,3.12,7.9,4.68,21.64,12.58,47.38,23.4,72.91,23.43-1.33-.06-2.66-.16-4-.28h-.07c-6.77-1.06-12.49-.56-14.64-4.82-2.48-4.91.46-10.48,3.66-10.48,1.64,0,3.35,1.48,4.43,5.27.86,3.68,6.74,4.85,6.69,9.1a3.22,3.22,0,0,0,0,.5L133,155c1.33.1,2.74.19,4.16.19,3.23,0,6.49-.47,9.06-2.39a17.76,17.76,0,0,0,3.57,2.35l.88-.14c-4.27-.91-7.59-5.87-9.57-9.68a15.94,15.94,0,0,0,2.84,5.15c-9.32-2.58-17-11.76-17.09-21.51a7.33,7.33,0,0,0-.67-.39,8.94,8.94,0,0,1,.7,4.25c.75,6.41,6.37,10.3,8.61,15.57a9.69,9.69,0,0,0-.15-1.85c1.87,1.94,5.82,2,5.66,5.2h-.55c-.25,0-.5,0-.75,0-7.53-.76-12.14-6.82-12.94-13.73.06,6.74,2.09,14.12,19.32,14.67-3.89,2.29-8.73,1.95-13.07,2.19.26-3.7-3.73-5.62-5.74-8.16-1.09-3-3.26-7.17-5.75-7.17-1.1,0-2.26.83-3.42,2.95,0-2.34-2.84-5.34-4.91-5.34-1,0-1.81.7-2,2.51.68-1.5,1.52-2.12,2.37-2.12,2.57,0,5.18,5.68,3.23,9.77-.51,0-1,.08-1.51.08-1.93,0-3.51-.59-4-3.43a22.17,22.17,0,0,1,2.82-.22c.32,0,.65,0,1,0a2.37,2.37,0,0,1-2,1.66,2.11,2.11,0,0,0,.35,0c3.53,0,2.54-5.67,0-6.62a2.9,2.9,0,0,1,.64.67,4.83,4.83,0,0,0-.68-.05,24,24,0,0,0-2.93.32h.15c2.71,0,4.68.73,4.54,3.81a23.39,23.39,0,0,0-2.5-.13c-4.39,0-8.66,1.1-12.92,2.1a3.28,3.28,0,0,0,.36-1.42c-.63,1.09-1.27,2.33-2.61,2.51,1.61-2.65,1.38-5.95-1.73-5.95a6.25,6.25,0,0,0-1.21.14l.48,0a6.1,6.1,0,0,1,1.47.18c-1.82.35-3.08,2.05-3.83,3.62-1.69-2.81.82-6.25,3.4-6.25a3.3,3.3,0,0,1,2.85,1.88,5.32,5.32,0,0,0-.42-.67,8.08,8.08,0,0,0,3.94.79c1.74,0,3.65-.25,5.44-.43a2,2,0,0,1-2.14-2.3c5.47-.46,1.83-8.63-1.2-8.63-.92,0-1.78.75-2.32,2.66l-.37.07c2.8.41,4.68,1.25,4,3.63a21,21,0,0,1-2.25.69l0-.06s0,0,0,.06a21.46,21.46,0,0,1-5,.56,43.59,43.59,0,0,1-9.25-1.21,6,6,0,0,0,.81-.59,13.81,13.81,0,0,1-3.43.8h0a42.23,42.23,0,0,0,10.61,1.42,27.46,27.46,0,0,0,6.44-.7,2.22,2.22,0,0,0,1.87,1.3,5.07,5.07,0,0,0,.11,2.18h-.16a65.08,65.08,0,0,1-7.12-.41,3.38,3.38,0,0,0-2.68-1.58c-2.8,0-5.26,4.41-3.14,7.06-.17.38-.33.76-.49,1.15a142.6,142.6,0,0,1-14.36-6.25,44.88,44.88,0,0,1,7-4.75l.36.11a1.88,1.88,0,0,1-.24-.18c4.12-1,4.27-5.24.08-6.41,1.92.79,3.84,2.66,2.37,4.83-4.22,1.13-7.31,5.43-10.9,5.43A5.71,5.71,0,0,1,72.36,137c3.75-3.66,8.17-7,13.53-7.24h-.48a12.25,12.25,0,0,0-2.2.2c.59-1.81,1.44-2.47,2.38-2.47,1.45,0,3.12,1.56,4.44,3a15.25,15.25,0,0,0-1-1.26c2.18,1.78,6.45,2,10.15,2.26-4.76-.69-9.47-2-13.15-4.79-1.62.08-2.79,1.74-3.06,3.31-4.7,1.1-10.64,6.42-10.88,6.64h0c.11-.18-4.39-1.57-7.45-4,4.9-3.7,9.8-7.5,15.44-10a3.72,3.72,0,0,0,3.09,1.79,3,3,0,0,0,1.76-.56c4.12,5.09,13,1.25,14.48,7.66l1.15.11c-1-.44-1.46-1.67-1.77-3l.41,0c5.27,0,1.92-7.61-.88-7.61-.8,0-1.56.62-2.06,2.21l-.3,0c2.08.64,3.61,1.53,3.62,3.45a13.68,13.68,0,0,1-4,.59,18.91,18.91,0,0,1-10.45-3.5,5.94,5.94,0,0,0,.92-.8,5.17,5.17,0,0,1-2.78.89,3.8,3.8,0,0,1-2.89-1.31,10.62,10.62,0,0,1,2.58-.65c0,.32-.07.64-.1.95a3.87,3.87,0,0,0-2.36-5.67ZM63.6,131.34a6.76,6.76,0,0,1-4.62-2c3.46-2.34,14.4-11.24,20.25-11.24,2,0,3.38,1,3.71,3.67h-.27c-7.47,0-13,9.6-19.07,9.6Zm34.8-7.85c-.65,0-1.32-.12-2-.22.43-1.26,1.08-1.76,1.78-1.76,2.4,0,5.35,5.9,1.43,6.79l-.51,0a3.89,3.89,0,0,1-2.29-.74,9.28,9.28,0,0,0,2.72-.72.65.65,0,0,1-.39.51c2.09-.64.43-4.51-1.58-4.56a7.28,7.28,0,0,1,.82.67Zm3.8,8.22c.53-1.59,1.33-2.22,2.17-2.22,2.53,0,5.42,5.65,2.28,7.6a2.34,2.34,0,0,1-1,.3l0-.17a.46.46,0,0,1-.37.17,2.47,2.47,0,0,1-1.55-1,20.16,20.16,0,0,0,2-.78.78.78,0,0,1-.75.62,1.13,1.13,0,0,1-.3,0,1.57,1.57,0,0,0,.53.11c2,0,1.2-5.1-1-5.1l-.29,0a2.43,2.43,0,0,1,.7.36,16.84,16.84,0,0,1-2.46.15Zm-5.72,16c-1.39-.47-2.76-1-4.13-1.48.17-2.39,2.94-4.9,4.57-4.9,1,0,1.54.89.92,3.24-.44,1.05-.91,2.1-1.36,3.14ZM111.05,144c-.25,2.73,1.49,3.81,3.65,3.81a8,8,0,0,0,2.07-.29,7,7,0,0,0,1.23,3.58,5.25,5.25,0,0,1-2.46,1.37l.48.22-.48-.22a7.26,7.26,0,0,1-1.82.22c-5.1,0-11.93-4.21-16.75-4.87,3.15-3.29,9.37-2.89,14.08-3.82Zm30.07,7.77a4.73,4.73,0,0,0-.33-2.12c1.17.69,2.86.55,3.75,1.57a15.94,15.94,0,0,1-3.42.55ZM79,117.63s0,0,0,0l0,0ZM37,120c2.37.95,4.7,2,7,3.12-.61-1.15-2.67-2-7-3.12Zm56.61,2.56c.38.12.77.23,1.16.33a.07.07,0,0,0,0-.05l-1.15-.28Zm1.7.42a1.74,1.74,0,0,0,.62.18l-.62-.18ZM44,123.16c1.49,2.79-5.46,7.47-8.83,22.89,3.27-6.21,8.55-18.41,15.58-18.41a6.81,6.81,0,0,1,3,.72c-3.2-1.83-6.43-3.59-9.72-5.2Zm2,1.27-.13-.2a1.51,1.51,0,0,1,.22.11l-.09.09Zm4.17,2.11c-1.64-.25-3.19-.7-4.14-2.07,1.31.2,2.8,1.46,4.14,2.07ZM35.82,144a43.71,43.71,0,0,1,10-19.38,4,4,0,0,0,3.55,2.27c-6.52,3.69-10.7,10.4-13.58,17.11Zm11.79-20.56c.23.13.46.24.69.35l-.69-.35Zm5.87,3.12A5.89,5.89,0,0,0,56,128l-2.51-1.43Zm69.11.22c-1.1,0,1.59.73,3.58,1.8a3.62,3.62,0,0,0-3.21-1.79Zm-23.43.56-.16,0a.34.34,0,0,0,.16,0Zm-45.4,1,1.1.64a9.74,9.74,0,0,0-1.1-.64Zm73.08.14a4.34,4.34,0,0,0,0,.51,4.82,4.82,0,0,1,.83.66c-.26-.39-.53-.8-.83-1.17Zm-72,.5a13.45,13.45,0,0,1,2,1.65,28.89,28.89,0,0,0-3.12,2.78,3.37,3.37,0,0,1,.48-.15,4.5,4.5,0,0,1,3.22-1.65c1.44,0,3,.9,4.87,2.42-.58.5-1.17,1-1.74,1.52a3.62,3.62,0,0,1,2-.63c2.35,0,4.74,2.2,7.52,3.63a58.65,58.65,0,0,0-7.7,9.56l.61-.24c-.46.77-.92,1.54-1.35,2.32,3.14-3.47,5.72-10.64,9.87-10.64a5.7,5.7,0,0,1,3.71,1.73c-.55.54-1.09,1.08-1.62,1.63-.78.82-1.51,1.66-2.21,2.53a7.38,7.38,0,0,1,5.39-2.38,13.72,13.72,0,0,1,5,1.19c-9.32-4.41-18.07-10.09-27-15.27Zm72.81.67.37.59a1.53,1.53,0,0,0-.37-.59Zm-28.48,1.82.24,0v0l-.23,0Zm1.38.13a2.24,2.24,0,0,0,.89.18l.35,0-1.24-.16Zm121.49,1c2.21,1.28,4.37,2.58,6.43,4a26.61,26.61,0,0,0-6.43-4Zm-95.19.22a18.68,18.68,0,0,0-.12,5.22c0-1.82.11-3.6.12-5.18v0Zm-72.54.42-.12,0a13.64,13.64,0,0,0-1.13,1.34c.41-.46.83-.92,1.25-1.37Zm-.6.18a2.71,2.71,0,0,0-2,2.2c.63-.77,1.28-1.51,2-2.2ZM85,135.19a2.79,2.79,0,0,0,1.59.47c-.55-.15-1.08-.3-1.59-.47Zm-24.43.38a6.08,6.08,0,0,0-1.37,1.23c.45-.41.91-.83,1.37-1.23Zm-8.79.06c-5.58,6.86-9.06,16.52-8.06,25.41,1-8.64,7.4-15,12.61-20.83a2.55,2.55,0,0,1-.61.08c-2.05,0-4.2-2.58-3.94-4.66Zm-7.93,23.09c0-7.92,3.33-15.67,7.59-22.28a3.72,3.72,0,0,0,3.64,4.21h.08c-5.07,5-9.69,11.06-11.31,18.07ZM59.19,136.8l-.42.39c-.48.45-1,.88-1.44,1.33.4-.34.81-.67,1.22-1a1.21,1.21,0,0,0,0,.14l.25-.31c.15-.2.3-.38.44-.55Zm98.72.42q.38.81.81,1.56-.42-.78-.81-1.56Zm-99.41.44c-.69.85-1.42,1.69-2.18,2.55a3.54,3.54,0,0,0,2.18-2.55Zm51.93,2.16c-.81,0-1.69.07-2.59.16a4,4,0,0,0,.49,0,16,16,0,0,0,2.1-.18Zm46.65,1.41a15.47,15.47,0,0,0,.61,2.1c-.23-.7-.43-1.4-.61-2.1Zm-75.21,3c1.1.52,2.22,1,3.34,1.51-1.17-.56-2.28-1.08-3.34-1.51Zm-10.43,1.19a19.2,19.2,0,0,0-3.19,4.4,50.76,50.76,0,0,1,3.19-4.4Zm97.43,1.19c-.32.23-.65.46-1,.67a4.28,4.28,0,0,0,1-.67Zm68.08.08a37.16,37.16,0,0,0,3.05,5.34c-1-1.81-2-3.61-3.05-5.34Zm-174.52,1.4c-1.85.83-2.31,2.15-2,3.44.62-1.17,1.29-2.31,2-3.44Zm5.82,1.73q-.94,1.44-1.83,2.94c.32-.48.66-1,1-1.42.27,3.14-.82,4.28-2.22,4.28-1.87,0-4.28-2-4.77-4.09a37.5,37.5,0,0,0-4,25.45c-.11-7.62,3-15,7.63-21a4.21,4.21,0,0,0,1,.15c2.36,0,2.83-2.64,2.41-5,.24-.47.47-.92.71-1.34Zm-12,23.06a44.79,44.79,0,0,1,3.92-20.4A4.76,4.76,0,0,0,63.9,156a31.31,31.31,0,0,0-7.62,17Zm58.85-20.61.41.18-.41-.18Zm34.65,2.88a85.09,85.09,0,0,1-12.84,1h-.14c1.24.07,2.49.11,3.73.11a47.74,47.74,0,0,0,7.26-.52,17,17,0,0,0,2.18-.45l-.19-.09Zm-16.85.23c0,.14-.07.29-.11.43.12,0,.12-.22.11-.43ZM88.3,166.72c-.48,1.69-.39,2.84,0,3.55,0-1.18-.06-2.37,0-3.55Zm94,1.08c-6,8.73-16.86,12.32-26.89,14a37.42,37.42,0,0,1,2.84-2.79,10.19,10.19,0,0,1-5.83,2.11,11.28,11.28,0,0,1-5.59-1.7c6.7-4.28,15-10.3,23.26-10.3a15.66,15.66,0,0,1,6.35,1.32c-.4,0-.8,0-1.18,0-6,0-9.91,2.92-13.32,5.71a31.15,31.15,0,0,1,14.76-5.58,12.34,12.34,0,0,0-6.71-1.82c-8.21,0-17.76,6.3-23.41,10.65a11.51,11.51,0,0,0-5.91-1.22c-2.24,0-4.69.27-7,.51A70.16,70.16,0,0,1,155,182.27c10.28-1.52,21.42-5.4,27.37-14.43l0,0Zm-76.59,3.38a10.18,10.18,0,0,0-.3,4.18,19,19,0,0,1,.3-4.18Zm12.49,3.76a19.42,19.42,0,0,1,5,4.28,17.05,17.05,0,0,0-13.68,19.27c-.82-12.89,7.58-18.19,18-19.52-2.9-.13-4.78-1-4.4-3.86a11.71,11.71,0,0,1-.67,2.43,10.39,10.39,0,0,0-4.25-2.6Zm4.94,0c0,.05,0,.09,0,.13s0-.08,0-.13Zm-17.73.38q0,.7.06,1.38c-6,4.87-4,14.33,1.71,18.54a20.92,20.92,0,0,0,2.17,1.44c-7.42-4.1-10.56-17.62-1.24-21.07a5.57,5.57,0,0,0-2.5,1,12.32,12.32,0,0,1-.2-1.27Zm56.53.71a35.66,35.66,0,0,0-3.69,2.9c1.22-.85,2.42-1.87,3.69-2.9Zm-28.52,2.54a47.45,47.45,0,0,0-5.9.36l.81,0a53.19,53.19,0,0,0,5.31-.38Z"/><path class="cls-10" d="M182.51,167.57c-.06.08-.11.16-.17.23-4.48,17-34.49,35.55-56.31,35.55-7.83,0-14.6-2.38-18.77-8.07h0c4.17,6,11.11,8.49,19.15,8.49,21.95,0,52.09-18.7,56.14-36.2Z"/><path class="cls-10" d="M160.11,124a.08.08,0,0,1,0,0,.08.08,0,0,0,0,0Z"/><path class="cls-10" d="M160,123.76l0,0,0,0Zm0,0a.06.06,0,0,0,0,0v0Z"/><path class="cls-10" d="M159.91,123.41a.19.19,0,0,1,0,.07.14.14,0,0,0,0-.07Z"/><path class="cls-10" d="M159.85,123.24v0a0,0,0,0,0,0,0Z"/><path class="cls-10" d="M140.93,123.5c-5.57,0-11.14,4.15-10.75,10.09-.41-.27-.81-.56-1.19-.85a12.56,12.56,0,0,0,9.12,3.93A11.33,11.33,0,0,0,147.4,132c-.28.26-.56.5-.85.75.34-4-2.54-7.52-6.13-9.06.44-.08.88-.15,1.31-.19-.26,0-.53,0-.8,0Zm0,12.35c-4.43,0-7.51-5.69-3.94-11.14a4.56,4.56,0,0,1,2.32-.66c3.82,0,6.93,5.25,7.1,8.86-1.82,2.08-3.75,2.94-5.48,2.94Zm-4.22-11a8.13,8.13,0,0,0,1.85,11.41h-.22a15,15,0,0,1-8.06-2.6,10.13,10.13,0,0,1,6.43-8.81Z"/><path class="cls-10" d="M145.86,136.75a11.11,11.11,0,0,1-4.93,1.83,13.94,13.94,0,0,1-1.45.08,16.12,16.12,0,0,1-3.41-.38,8.68,8.68,0,0,0,3.87.89,8.13,8.13,0,0,0,5.92-2.42Z"/><path class="cls-10" d="M135.5,119.16c-2.78,0-5.26,6.35-5.92,8.68.82-1.49,3.82-8.48,6.41-8.48a1.39,1.39,0,0,1,.63.15,2,2,0,0,0-1.12-.35Zm1.12.35a3.63,3.63,0,0,1,.92.89,2.48,2.48,0,0,0-.92-.89Z"/><path class="cls-10" d="M111.87,123.94c0,3.21,2.75,5.88,5.66,6.73a16,16,0,0,1-3.65-3,10.64,10.64,0,0,1-2-3.73Z"/><path class="cls-10" d="M102,104.64c.66,7.62,7.19,14.27,14.87,14.7A18.52,18.52,0,0,1,102,104.64Z"/><path class="cls-10" d="M80.73,105.68s.21.17.5.38l-.22-.17c-.1-.06-.18-.15-.28-.21Z"/><path class="cls-10" d="M80.8,105.73l.21.16-.21-.16Z"/><path class="cls-10" d="M63,88h0Z"/><path class="cls-10" d="M17,73.3C13.15,81.53,14.87,85,18.64,85c3,0,7.25-2.16,11.07-5.84-1.57,1-3.12,2.13-4.7,3.14-2.46,1.54-4.34,2.2-5.73,2.2-4.06,0-4.07-5.54-2.32-11.18Z"/><path class="cls-11" d="M160,123.79c1.2,3.36-3.09,4.55-4,1.2C154.64,121.51,159.16,120.21,160,123.79Z"/><path class="cls-11" d="M144.8,129.34c1.55,4-4,5.89-5.19,1.77C138.05,127.11,143.59,125.23,144.8,129.34Z"/><path class="cls-5" d="M197.55,54.23a12.59,12.59,0,0,0-2.48,1.91,17.17,17.17,0,0,0-2.65,3.56,45.35,45.35,0,0,0-3.83,9.79,150.37,150.37,0,0,0-3.72,18c-.77,4.73-1,10.84-1.66,15.54-.42,4.16-.5,8.49-1.35,12.6-2.18,11.08-5.22,21.32-11.92,29.9l-3.1-1.78c3-2.88,3.19-4.14,4.94-7.89,4.83-10.47,6.42-22.07,7.14-33.48a168.48,168.48,0,0,1,5.16-27.82c2.16-6.86,5.54-17.15,12.54-20.29.25-.09.5-.2.65-.27l.28.28Z"/><path class="cls-12" d="M197.55,54.23a12.47,12.47,0,0,0-2.46,1.93h0a12.76,12.76,0,0,0-1.89,2.38,21,21,0,0,0-1.48,2.66,43.9,43.9,0,0,0-2.23,5.67,107,107,0,0,0-2.9,11.84q-.57,3-1.07,6c-.32,2-.66,4-.87,6-.45,4-.67,8.11-1.18,12.16s-.47,8.13-1.23,12.17-1.65,8-2.82,11.91a64.94,64.94,0,0,1-4.52,11.39,49.39,49.39,0,0,1-3.17,5.27c-.28.43-.6.84-.9,1.25l-.46.62-.11.15c0,.08-.11,0-.17,0l-.36-.15a22.11,22.11,0,0,1-3.08-1.47l-.42-.25.34-.34a20.89,20.89,0,0,0,2-2.21,14.24,14.24,0,0,0,1.51-2.56c.84-1.83,1.72-3.67,2.48-5.53a72.38,72.38,0,0,0,3.57-11.57,109.78,109.78,0,0,0,1.9-12c.22-2,.39-4,.54-6.06s.45-4,.7-6a144.94,144.94,0,0,1,4.9-23.86,63.83,63.83,0,0,1,4.59-11.28,24.69,24.69,0,0,1,3.53-5,13.18,13.18,0,0,1,5-3.43h0Zm0,0-.28-.28h0a13.16,13.16,0,0,0-4.92,3.48,25.12,25.12,0,0,0-3.43,5,64.1,64.1,0,0,0-4.41,11.3,148,148,0,0,0-4.76,23.81c-.23,2-.55,4-.66,6s-.3,4.05-.51,6.07a112.22,112.22,0,0,1-1.85,12.06,72.46,72.46,0,0,1-3.55,11.68c-.77,1.9-1.62,3.73-2.46,5.59a14.87,14.87,0,0,1-1.57,2.69,19.65,19.65,0,0,1-2.06,2.3l-.08-.59a15.43,15.43,0,0,1,2.22,1.58l.3.22s.11.13.14.05l.11-.15.46-.6c.3-.41.61-.81.89-1.23a48.63,48.63,0,0,0,3.15-5.18,62.71,62.71,0,0,0,4.53-11.25A119.39,119.39,0,0,0,181.69,115c.77-4,.86-8,1.29-12.12s.76-8.09,1.23-12.15c.22-2,.57-4,.91-6s.7-4,1.1-6a105,105,0,0,1,3.06-11.84,44.84,44.84,0,0,1,2.32-5.66,21.18,21.18,0,0,1,1.53-2.65,12.45,12.45,0,0,1,1.93-2.36h0A12.79,12.79,0,0,1,197.55,54.23Z"/><path class="cls-13" d="M245,155.78a64.83,64.83,0,0,0-1.94-12.3,45.63,45.63,0,0,0-5-11.66,109.82,109.82,0,0,0-6.91-10.67,115.58,115.58,0,0,0-17.73-19.69,44.51,44.51,0,0,0-10.15-7c-2.56-1.18-5.77-2.09-8.38-1h0a5.48,5.48,0,0,0-1.32.8h0a3,3,0,0,0-.42,0A3.24,3.24,0,0,0,190.74,96a9.1,9.1,0,0,0-1,2,7.45,7.45,0,0,0-5.84-.12c0-2.83,0-5.65-.14-8.48-.24-4.49-.81-8.95-.91-13.45A51.33,51.33,0,0,1,183.79,63a17,17,0,0,1,1.82-4.84,2.83,2.83,0,0,1,.25-.24,11.16,11.16,0,0,1,4.37-2.27,11.76,11.76,0,0,0-4.29,2.06l-.09.08a10.46,10.46,0,0,1,3.06-3.16,9.6,9.6,0,0,0-2.9,2.67c-.18.26-.34.53-.5.81a10.1,10.1,0,0,0-2.48,4.1c-1.27,3.82-1.3,8-1.34,12-.06,8.17.71,16.33.26,24.48a24.91,24.91,0,0,0-7.65,7.3,8.68,8.68,0,0,0-5.93.33,8.25,8.25,0,0,0-3.08,2.51,11.54,11.54,0,0,0-1.91-3.74,6.64,6.64,0,0,0-3.67-2.27s0,0-.05,0c-.78-.76-3-1.8-3.73-.4a2.33,2.33,0,0,0,.21,2,33.63,33.63,0,0,1-2.06,2.88,11.22,11.22,0,0,0-1.2-4.77,7.36,7.36,0,0,0-3-3.21,2,2,0,0,0-1.29-1.08c-.93-.28-2.91-.41-3.37.69a4,4,0,0,0,0,2.39,14.49,14.49,0,0,1-2,2.14A20.3,20.3,0,0,0,141.82,97c-.92-2.13-3.27-4.5-5.67-3.29a2.08,2.08,0,0,0-1.56.52c-.6.55-.38,1.34,0,2a5,5,0,0,0-1.06,2.84l-.48-.29c-.62-.35-1.25-.69-1.88-1a16.51,16.51,0,0,0-1.45-5.87c-.66-1.32-2-3.1-3.62-3.06a5.07,5.07,0,0,0-1.25-.49,2.51,2.51,0,0,0-2.77,1,2.39,2.39,0,0,0,.1,2.29,4.4,4.4,0,0,0-.92,1.59c-1.34-.51-2.7-1-4.07-1.38a7.43,7.43,0,0,0-5.4-4,5.61,5.61,0,0,0-4,1.38,52.86,52.86,0,0,0-5.64-6.74c-.8-.8-1.6-1.59-2.44-2.34l-1.23-1.09a2.84,2.84,0,0,0-2-.49,7.63,7.63,0,0,0-1,0A32.27,32.27,0,0,0,90.52,73a17.33,17.33,0,0,0-5.28-3.28,5.37,5.37,0,0,0-2.7-.46l-.25,0a23.68,23.68,0,0,0-3.07-3.1,17.73,17.73,0,0,0-7.59-3.85,24.68,24.68,0,0,0-9.93-5.43,10.39,10.39,0,0,0-3.62-.22,13.14,13.14,0,0,0-5.55-2.55l-.22,0a6.87,6.87,0,0,0-4.81-1.87,10.4,10.4,0,0,0-4.93,1.35,10.06,10.06,0,0,0-4,.2,15.12,15.12,0,0,0-6.41,3.58,11.34,11.34,0,0,0-3.53,1,17.48,17.48,0,0,0-6.56,6,28.14,28.14,0,0,0-2.34,4,16.74,16.74,0,0,0-4.39,3.37,16.87,16.87,0,0,0-4.14,8.79c-.54,3.56.14,9.17,4.57,9.83,2.07.3,4-.72,5.76-1.69A48.5,48.5,0,0,0,27,85a64.55,64.55,0,0,0,8.94-8.15,46.08,46.08,0,0,0,3.47-4.2A9.49,9.49,0,0,0,40.16,76a5.49,5.49,0,0,0,5.11,3.16,11.67,11.67,0,0,0,2.15,4.26,5.34,5.34,0,0,0,5.13,2.22,6,6,0,0,0,2.14-1c0,.33-.06.65-.06,1a8.84,8.84,0,0,0,1.94,5.66c2.18,2.61,5.57,2,8.17.4A12.33,12.33,0,0,0,64.11,95a12.2,12.2,0,0,0,1.38,5.92A10.35,10.35,0,0,0,70,105.56a4.73,4.73,0,0,0,4.14-.07,12.57,12.57,0,0,0,2.66,6.66,22.3,22.3,0,0,1-2.44-1.23,3.81,3.81,0,0,0-3.09-2.31c-1.53-.12-2.88,1.13-3.82,2.31-.64.14-1.26.32-1.82.5a42.54,42.54,0,0,0-6.65,2.88A59,59,0,0,0,49.36,121c-1.51-.1-3.42.14-4.08,1.26A70.6,70.6,0,0,0,29,116.71a55.29,55.29,0,0,0-10.46-1q-.69,0-1.38,0l1.26.14a72.16,72.16,0,0,1,13.17,2.89,91.8,91.8,0,0,1,13.92,5.74c.06.15.12.31.17.46a34,34,0,0,0-7.46,10.52,35.71,35.71,0,0,0-3.07,10.18c0,.27-.07.55-.11.82.11-.25.22-.5.34-.74a59.49,59.49,0,0,1,5-9,40.1,40.1,0,0,1,5-6.08,23,23,0,0,1,4.2-3.32,6,6,0,0,0,1-.06q2.43,1.39,4.78,2.91l1.35.87c-.84.82-1.66,1.68-2.46,2.54-1.26-.38-2.29.67-2.72,1.95a5,5,0,0,0-.23,1.11,42.28,42.28,0,0,0-6.35,12,27.88,27.88,0,0,0-1.52,11.93c0,.31.07.61.11.92.05-.34.11-.67.18-1a30.79,30.79,0,0,1,4.39-10.21A62.34,62.34,0,0,1,55.29,141a3.46,3.46,0,0,0,2.09-.7,3.85,3.85,0,0,0,1.28-2.6q1.92-1.59,3.86-3.13c2.49,1.5,5,3,7.55,4.35a62,62,0,0,0-7,9.19,3,3,0,0,0-3,2.5,4.92,4.92,0,0,0,0,2.09,38.88,38.88,0,0,0-2.21,5.1,37.34,37.34,0,0,0-2,8.34,36.26,36.26,0,0,0,0,8.33c0,.45.12.91.19,1.36s.19,1.09.32,1.63c0-.52,0-1,0-1.56s.06-1.26.13-1.9a29.31,29.31,0,0,1,1.58-6.78A38.68,38.68,0,0,1,64,156.4a2.79,2.79,0,0,0,2.8-.55c.91-1,.89-2.81.67-4.27a67.35,67.35,0,0,1,6.7-8.2c.49-.51,1-1,1.51-1.48l2.54,1.27q6.33,3.09,12.87,5.79c0,.11-.08.2-.11.3a70.21,70.21,0,0,0-2.57,17.2,4.16,4.16,0,0,0-.69,3.12,3.54,3.54,0,0,0,1.06,2.25,40.62,40.62,0,0,0,2.11,12.78,39.31,39.31,0,0,0,3.31,7.3c.38.62.79,1.2,1.21,1.77.18.24.36.49.55.73-.12-.31-.24-.63-.35-.94-.25-.69-.5-1.38-.71-2.09a48.65,48.65,0,0,1-1.5-8.11,93,93,0,0,1-.14-12.38,4.3,4.3,0,0,0,.94-2.08c.2-1.25-.09-3.1-1.49-3.31a48.64,48.64,0,0,1,2.57-13.18q.27-.73.57-1.47a185.84,185.84,0,0,0,20.42,6.55,11.33,11.33,0,0,1-2.31,1.12,44.68,44.68,0,0,0-5.31,2.32c-1.32.77-3,2-2.7,3.73a4.17,4.17,0,0,0,2,2.57,6.87,6.87,0,0,0-1.81,3.25,16.34,16.34,0,0,0-.66,5.47c0,.45.06.89.07,1.33a8.46,8.46,0,0,0-2.63,3.37,14,14,0,0,0-1,5.34,11.2,11.2,0,0,0,2.3,6.52,17.28,17.28,0,0,0,3.09,3.31v0a5.51,5.51,0,0,0,1.32,3.88c1.29,1.38,3.28,1.73,5.09,1.78,5.12,2.29,10.68,2.62,16.22,2.19A59.3,59.3,0,0,0,146,200.39,80.89,80.89,0,0,0,169,187a54.09,54.09,0,0,0,9.18-9.4,23,23,0,0,0,4.47-9.45.36.36,0,0,0,0-.11l-.09.12-.07.1a24.8,24.8,0,0,1-4.36,4.86,35.41,35.41,0,0,1-9.35,5.57,55.64,55.64,0,0,1-11.12,3.18c-.7.14-1.41.29-2.13.39a38.26,38.26,0,0,1,9.74-7.67,28.62,28.62,0,0,1,6.31-2.63,34.79,34.79,0,0,1,5.22-1h.08l-.14-.1a12.29,12.29,0,0,0-7.63-1.7,30.27,30.27,0,0,0-10.3,3.06,61.94,61.94,0,0,0-12.13,7.59l-.3-.08a51.71,51.71,0,0,0-13.49-1,49.64,49.64,0,0,0-9.12.9,10.65,10.65,0,0,0-1.19-1.49,8.41,8.41,0,0,0,1.13-4.52,6.06,6.06,0,0,0,2.24-.32,5.38,5.38,0,0,0,3.13-3.54,10.25,10.25,0,0,0-.86-7.05,12.94,12.94,0,0,1,.6-2.53l.27,0a96.76,96.76,0,0,0,13.25,1.46c4.22.13,8.67-.11,12.6-1.79,1.71-.73,3.57-1.92,4-3.88a4.77,4.77,0,0,0-.18-2.37c.93.75,1.89,1.46,2.87,2.1a19.68,19.68,0,0,0,4.84,2.45l.37.12-.42-.45a29.85,29.85,0,0,1-4.8-6.71l-.29-.52a39.35,39.35,0,0,0,5.21,3.52,22.15,22.15,0,0,0,8.32,2.85l.4.05-.51-.3a20,20,0,0,1-3.4-2.39,59.15,59.15,0,0,1-5.47-5.61l-.45-.56a5,5,0,0,0,4.61-2h0l.63,0-.43-.22,0,0a25.51,25.51,0,0,0,2.86-4.83,112.79,112.79,0,0,0,5.22-11.8,89.12,89.12,0,0,0,3.17-10.88c.36-.18.71-.35,1.07-.51l.83-.37c.5.31,1,.61,1.54.9,1.65.92,3.41,2,5.38,1.86,3.2-.25,4.9-3.31,5.55-6.21.24.4.49.8.76,1.19,4.71,6.74,12.09,11.61,19.35,15.21.71.35,1.43.69,2.15,1,2.77,4.32,5.79,8.48,9,12.51a85.18,85.18,0,0,0,8.39,9.41c2.41,2.26,5,4.47,8.18,5.52a27.17,27.17,0,0,1,.11,5.18v.12l.06-.13a.69.69,0,0,1,.05-.13,15.48,15.48,0,0,0,.66-2.36A23.94,23.94,0,0,0,245,155.78Zm-199.09-31-.12-.2a1.51,1.51,0,0,1,.22.11ZM93,120.29c.18.86.82,2.2,1.74,2.37a3.7,3.7,0,0,0,.1.58,18.2,18.2,0,0,1-3.88-1.44c-1.35-.7-2.66-1.46-4-2.21a21.29,21.29,0,0,0,6,.55Zm54.69-7.78a21.28,21.28,0,0,0-1.39-2.3c1.76-1.23,2.55-3.52,2.75-5.78,1.66,1.2,2.48,3.43,3.06,5.49-.69.9-1.36,1.81-2,2.74A5.56,5.56,0,0,0,147.66,112.51Zm-78.46,17a80.15,80.15,0,0,1,8-5.21,25.93,25.93,0,0,1,2.8-1.36,3.81,3.81,0,0,0,2.39,1.71,3.1,3.1,0,0,0,2.47-.48,18.31,18.31,0,0,0,6.49,3.36,13.77,13.77,0,0,0,5.23.42,3.91,3.91,0,0,0,1.78.93,6.59,6.59,0,0,0,1,3,23.1,23.1,0,0,1-3.57-.66c-1.78-.47-3.53-1-5.3-1.51l-1.86-.5c-.13-.15-.25-.31-.39-.46C87.75,128.11,87,127,86,127H85.9c-1.56.16-2.69,1.77-3,3.31-4.29.81-8,3.67-11.15,6.76-2.43-1.34-4.83-2.73-7.23-4.13C66.1,131.79,67.63,130.63,69.2,129.51Zm14.5,6.42c.29-.18.6-.34.9-.51A2.6,2.6,0,0,0,87,136.53a4.57,4.57,0,0,0,2-.57,29.16,29.16,0,0,0,6.9,1.46l.91.07a19,19,0,0,0,6.92-.76,2.21,2.21,0,0,0,1.87,1.3,5.07,5.07,0,0,0,.11,2.18h-.16c-1.83,0-3.65-.09-5.47-.22-.56,0-1.12-.11-1.67-.19a3.91,3.91,0,0,0-2.58-1.59,3.73,3.73,0,0,0-3.22,2,4.28,4.28,0,0,0,0,5.05c-.18.38-.33.76-.49,1.15a144.26,144.26,0,0,1-14.33-6.23l-.07,0A45,45,0,0,1,83.7,135.93Zm13.59,11.53a2.29,2.29,0,0,0,2.33-1.33c2.38-.37,4.76-.79,7.15-1.15,1.43-.21,2.87-.42,4.31-.59,0,1.39.36,3.07,1.69,3.53a5.73,5.73,0,0,0,2.47.22,14.83,14.83,0,0,0,1.58-.23,6.94,6.94,0,0,0,1.23,3.59,7,7,0,0,0-1.6,2.13c-4.49-1-9-2.13-13.35-3.45-2.06-.62-4.1-1.27-6.14-2Zm35.78,8a30.05,30.05,0,0,0,7,0c2.07-.27,4.59-.74,6.23-2.19a17.26,17.26,0,0,0,3.77,2.44,19.42,19.42,0,0,1-2.2.46,41,41,0,0,1-5.86.48,77.51,77.51,0,0,1-9.14-.35A4.89,4.89,0,0,0,133.07,155.43Zm31.07-44.57-.09.21a2.8,2.8,0,0,0-1.47.69c-1.19,1-1.51,2.83-1.43,4.42a22.51,22.51,0,0,1-3.72,2.52,7.79,7.79,0,0,0-1.43-.58l-.07,0a9.45,9.45,0,0,0-2-.4,7.9,7.9,0,0,0-.74-2.55,10.15,10.15,0,0,0,3.57-3.81,22.4,22.4,0,0,0,1.9-4c.64.46,1.44.65,1.89,0A8.64,8.64,0,0,1,164.14,110.86ZM53.91,126.78,52.42,126a64.68,64.68,0,0,1,8.63-7.21,23.73,23.73,0,0,1,7.67-3.8l.11.39c.31,1.25,1.69,1.22,2.66,1a4.82,4.82,0,0,0,1-.56,20.33,20.33,0,0,0,4.68,2q.8.24,1.59.42c0,.06,0,.12-.07.17v0a41,41,0,0,0-4.4,1.42,48.41,48.41,0,0,0-8.5,4.22,59.6,59.6,0,0,0-7.29,5.45C57,128.51,55.44,127.64,53.91,126.78ZM165,142.38a23.05,23.05,0,0,1-3.16-3.51,14.34,14.34,0,0,0-.37-2.94,7.34,7.34,0,0,0,1.16-4.59,4.38,4.38,0,0,0,1.44-2.44,2.15,2.15,0,0,0,0-1,6.69,6.69,0,0,0,4-4.07,4.74,4.74,0,0,0,2.18-1.89,6.33,6.33,0,0,0,2.8.06,18.78,18.78,0,0,0,4.72-1.75l.64-.31c-.62,2.18-1.31,4.35-2.08,6.49-1.37,3.86-3,7.62-4.57,11.39a12.9,12.9,0,0,1-3.05,4.82,4.84,4.84,0,0,1-2,1.07C166.08,143.31,165.52,142.86,165,142.38Zm70.59.19c.57.59,1.12,1.21,1.64,1.84a29.89,29.89,0,0,1,5.87,11.23c.06.21.1.42.15.63A38,38,0,0,1,235.57,142.57ZM194.79,93.62c-.15.36-.29.71-.43,1.08a2.39,2.39,0,0,0-.85-.33A5.36,5.36,0,0,1,194.79,93.62Z"/></svg>