<svg id="Layer_1" data-name="Layer 1" xmlns="http://www.w3.org/2000/svg" viewBox="0 0 335 256"><defs><style>.cls-1{fill:#3f6875;}.cls-2{fill:#9bbec9;}.cls-3{fill:#648c9b;}.cls-4{fill:#233e44;}.cls-5{fill:#c8d5d6;}.cls-6{fill:#fff;}.cls-7{fill:#839d9e;}.cls-8{fill:#254951;}.cls-9{fill:#11c8d1;}.cls-10{fill:#43e4ff;}.cls-11{fill:#b6f5fc;}.cls-12{fill:#049b9b;}.cls-13{fill:#3d3d3d;}.cls-14{fill:#b2b1b1;}.cls-15{fill:#1d383d;}.cls-16{fill:#2e4f57;}.cls-17{fill:#0c1c1e;}</style></defs><path class="cls-1" d="M72.28,39.15c-1.33,0-6.28,8.6-11.75,14.46-6.91,7.4-14.3,10-14.3,20-7.76-7.44-19.4-2.91-29.74.48-7.2,2.37-12.94-.34-13.29,1-.85,3.15,20.48,23.6,47.27,18.79,5.21-1.21,11.15-7.76,11.15-7.76C81.5,67.63,76.41,39.12,72.28,39.15Z"/><path class="cls-2" d="M72.28,39.15c-1.33,0-6.28,8.6-11.75,14.46-6.91,7.4-14.3,10-14.3,20-7.76-7.44-19.4-2.91-29.74.48-7.2,2.37-8.72.43-9.07,1.74C6.57,78.94,31,90.93,48.19,86.11a17.17,17.17,0,0,0,8.6-5.52C73.92,68,76.41,39.12,72.28,39.15Z"/><path class="cls-3" d="M72.28,39.15c-1.33,0-5.09,10.38-10.56,16.24-6.91,7.4-13.57,12.28-13.57,22.22-7.76-7.44-20.29-6.06-30.63-2.67-7.2,2.36-9.75-.46-10.1.85C6.57,78.94,31,94.32,48.16,89.5,53.37,88.28,59.22,83,59.22,83,76.34,70.42,76.41,39.12,72.28,39.15Z"/><path class="cls-4" d="M72.28,38.9c-.77,0-2,1.73-4.65,5.33a98.58,98.58,0,0,1-7.28,9.21,68.84,68.84,0,0,1-5.63,5.26C50.15,62.65,46.19,66.07,46,73a15.07,15.07,0,0,0-10.52-3.71c-5.46,0-11.39,2-17.13,3.87l-1.93.64a20.42,20.42,0,0,1-6.46,1,35.74,35.74,0,0,1-4-.27c-.71-.08-1.32-.15-1.78-.15S3.1,74.46,3,75c-.2.75.58,2,1.27,2.87,4.24,5.53,19.11,17,38.05,17h0A46.59,46.59,0,0,0,50.52,94c5.23-1.21,11-7.56,11.26-7.81C77.54,71.63,78,50,74.72,41.71,74,39.87,73.16,38.9,72.28,38.9Zm-10.84,47c-.06.06-5.95,6.5-11,7.68a46.14,46.14,0,0,1-8.14.72h0C23.52,94.29,8.81,83,4.62,77.54c-1.27-1.65-1.23-2.3-1.19-2.45s.28-.2.71-.2A16.66,16.66,0,0,1,5.87,75a36.12,36.12,0,0,0,4.08.28,20.9,20.9,0,0,0,6.62-1l1.93-.64c5.69-1.89,11.59-3.85,17-3.85a14.56,14.56,0,0,1,10.59,3.95l.41.4v-.57c0-7.1,3.78-10.37,8.57-14.51a67.69,67.69,0,0,0,5.66-5.28A97.75,97.75,0,0,0,68,44.51c1.82-2.52,3.7-5.12,4.27-5.12s1.37.93,2,2.49C77.49,50.1,77,71.43,61.44,85.89Z"/><path class="cls-1" d="M276.83,173.28c-2.11-1.05-21.85,10.46-20.2,12.12s8.37.6,9-.41c.69,2.47,9.09,3.88,12.89,4,2.5.11,5-2.6,7.34-2.67,2.7-.08,14.4-2.05,14.64-4.84S286.69,180.19,276.83,173.28Z"/><path class="cls-3" d="M279.54,174.92c-2.44,3.86-9.19,6.2-7.25,9.91.71,1.36,4.57,2.46,6.91,1.66,1-.35,3.79-1.93,5.9-2,4.81-.11,16.85-2,14.4-4.1C296.49,179.14,287.31,179,279.54,174.92Z"/><path class="cls-4" d="M294.56,179.06c-5-.86-11.95-2-17.62-6a1.08,1.08,0,0,0-.48-.09c-3.4,0-19,9.18-20.09,11.83a.66.66,0,0,0,.09.77c.78.77,2.4.94,3.63.94,2,0,4.53-.46,5.46-1.1,1.41,2.55,10,3.74,13,3.87h.15a8.4,8.4,0,0,0,3.85-1.4,8,8,0,0,1,3.35-1.28c2.45-.07,14.62-2,14.88-5.06C300.88,180.14,298.5,179.73,294.56,179.06Zm-8.7,7.05a8.54,8.54,0,0,0-3.57,1.35,7.85,7.85,0,0,1-3.75,1.33c-4.09-.17-12.05-1.65-12.66-3.86l-.15-.52-.29.45c-.29.46-2.72,1.16-5.35,1.16a5,5,0,0,1-3.28-.79s0-.12,0-.24c1-2.48,16.45-11.54,19.64-11.54a.92.92,0,0,1,.24,0c5.72,4,13,5.24,17.78,6.06,3.28.56,5.87,1,5.79,2C300.06,183.91,289.15,186,285.86,186.11Z"/><path class="cls-5" d="M176.64,146.53c-16.24,6.3-82.9-13.09-122.25-42.28,13.89,33.8,63.1,83,110.13,89.79,3.39,0,17,3.64,31.51,2.91,87.27,3.64,151-67.12,132.6-129.79C310.93,40.38,192.88,140.23,176.64,146.53Z"/><path class="cls-6" d="M303.14,86.05c-5.93,10.92-10.61,26.71-16.42,37.73-10.07,19.12-38.05,18.95-43,7.28.29-10.2.88-22,1.53-32-31.34,21.29-61,44.55-68.6,47.49-16.24,6.3-82.9-13.09-122.25-42.28,13.89,33.8,75.85,85,114.51,82.52,3.4,0,12.73.72,27.28,0C282.9,190.37,339,124.43,328.82,68.21,320.72,64.1,310.62,72.28,303.14,86.05Z"/><path class="cls-7" d="M326.24,64.92c7,25.23-.74,55.05-20.64,79.79-25.81,32.09-66.23,49.9-108.14,47.64-4.18.54-21.42-1.93-29.7-3.12-3.18-.46-4.73-.68-5-.68h0c-27.91-2.32-53.21-20.37-69.52-35.11-17.24-15.58-29.89-32.38-36-43.75a172.5,172.5,0,0,0,52.57,54.58c20.71,13.66,39.57,19.83,50.29,21,1.37.28,33.15,2.9,39.31,2.19,58.5,1.88,89.82-27.88,103.29-45.79a108.43,108.43,0,0,0,19.12-40.62c3.05-13.35,2.94-26.25-.32-36.31l-.46.15c7,21.56-.54,52.3-18.73,76.49-13,17.29-42.73,45.68-97.67,45.68-1.73,0-3.48,0-5.25-.08-6.42.74-39-2.14-39.22-2.19-21.24-2.4-75-25.29-105.58-80.69l-.43.2c4.38,10.91,18.37,31,38.75,49.46,16.36,14.79,41.75,32.9,69.82,35.23.26,0,2.33.3,4.95.68,8.94,1.28,25.59,3.67,29.78,3.12q3.59.19,7.14.19c39.45,0,76.93-17.63,101.37-48a108,108,0,0,0,20.38-39.22c3.76-14.05,3.88-28.23.35-41Z"/><path class="cls-7" d="M316.28,64.93c6.78,20.94-.38,50.54-17.82,73.64-13,17.2-42.93,45.77-97.59,43.84-7.33.38-15.84-.47-23.34-1.22-6.81-.68-12.68-1.26-15.75-.72-13.64-.33-33.67-7.94-52.28-19.88a173,173,0,0,1-47.61-45.16,166.67,166.67,0,0,0,56.39,47.88c20.47,10.69,38,14.44,45.15,15,.49,0,1.87,0,4,.1,7.84.24,24.16.72,37.12.38,20.7-.55,39.41-5.36,55.59-14.3a104.83,104.83,0,0,0,35-31.39c17.26-24.33,21.61-51.62,17-66l-.46.15c4.58,14.27.24,41.37-16.92,65.57-20.09,28.33-52.14,44.48-90.24,45.49-12.95.34-29.26-.15-37.1-.38-2.1-.07-3.47-.12-4-.11-7.1-.53-24.54-4.27-44.95-14.92a167.46,167.46,0,0,1-63.9-58.76l-.42.25c16.49,28.19,39,46.35,55.06,56.62,18.68,12,38.8,19.64,52.57,20,3.06-.53,8.9.05,15.67.72,6.24.63,13.17,1.32,19.55,1.32,1.3,0,2.59,0,3.84-.1,21.55.76,41.39-3.21,58.94-11.81a109.42,109.42,0,0,0,39-32.22,103.51,103.51,0,0,0,18.31-38.51c3-13,2.89-25.35-.42-35.57Z"/><path class="cls-7" d="M307.3,71.24c3.33,19.49-4.25,43.58-19.79,62.86C268,158.35,239,172.53,205.89,174l-18.81.42c-10.4.23-21.16.47-21.71.47-10.78,0-47.22-9.13-73.42-31.72l-.32.36c26.3,22.69,62.91,31.85,73.74,31.85.56,0,11.31-.24,21.72-.48l18.81-.41c33.23-1.49,62.35-15.72,82-40.09,15.62-19.38,23.24-43.62,19.89-63.24Z"/><path class="cls-7" d="M302.69,77.46c1.22,20.9-7.09,41.92-23.39,59.2-19.19,20.34-46.83,33-72.12,33v.49c25.42,0,53.19-12.7,72.48-33.14,16.39-17.37,24.74-38.52,23.52-59.56Z"/><path class="cls-7" d="M209.6,165.76l0,.49c29.07-1.18,63.06-22.66,70.51-39.42l-.45-.19C272.3,143.27,238.5,164.59,209.6,165.76Z"/><path class="cls-7" d="M210.82,161v.48c8.77,0,21.47-3.59,34-9.61,12-5.77,21.11-12.45,23.8-17.42l-.42-.24C262.67,144.35,229.74,161,210.82,161Z"/><path class="cls-7" d="M215.57,157.28l0,.48c11.62-.79,35.48-11.28,44-20.93l-.36-.32C250.78,146.09,227.1,156.49,215.57,157.28Z"/><path class="cls-7" d="M218.49,152.35v.48c10.1-.15,28.58-9.18,34.69-16.94l-.38-.3C246.77,143.27,228.49,152.19,218.49,152.35Z"/><path class="cls-7" d="M222.6,147.14l.07.48c9.33-1.47,23.47-8.76,25.64-13.22l-.44-.22C245.75,138.54,231.82,145.69,222.6,147.14Z"/><path class="cls-7" d="M328.83,67c-2-3.09-5.51-4.66-10.3-4.66-23.66,0-76,37.75-110.56,62.72-15.12,10.92-27.06,19.53-31.42,21.23a24.45,24.45,0,0,1-8.44,1.17c-25.45,0-80.61-19-113.57-43.42l-.7-.52.33.8c7.17,17.44,23.13,38,42.7,55.12,22.2,19.37,46.22,31.73,67.65,34.83A44.37,44.37,0,0,1,170,195a131.08,131.08,0,0,0,22.12,2.25c1.34,0,2.67,0,3.92-.1,2.15.09,4.32.14,6.46.14a145.7,145.7,0,0,0,64.2-14.71,127.25,127.25,0,0,0,45.55-37.29A98.92,98.92,0,0,0,330,107.51a80.08,80.08,0,0,0-1.17-40.42Zm-17,78c-24.28,32.44-65.17,51.8-109.37,51.8-2.13,0-4.3,0-6.46-.13-1.27.06-2.59.1-3.92.1a131.29,131.29,0,0,1-22-2.25,45.26,45.26,0,0,0-5.49-.76h0C116.81,186.91,68.87,137.72,55,105c33.12,24.25,87.81,43,113.16,43h0a24.7,24.7,0,0,0,8.61-1.21c4.42-1.72,16.38-10.35,31.52-21.28C242.81,100.54,295,62.85,318.53,62.85c4.6,0,7.93,1.48,9.88,4.41C335.86,92.67,329.83,121,311.85,145Z"/><path class="cls-1" d="M296.55,59.43c-6.24,1.12-10.18,2.34-20.77,2.5s-25.67.44-44.84,10.06c-21.17,10.63-57.45,38.91-74.06,48.73s-26.78,10.54-39.39,7.51c-1.82-1.09-17.23-7.33-25.81-13C75.44,104.6,63.83,79.87,56.11,80.76l-8.35,3c-2.91,21.28,52,84.71,116.11,86.88,1.3-.73,42.22-13,50.77-13.11,8.48.55,12.72-9.21,13-13,9.47-2.22,11.41-13.78,16.9-13.45,45.82,23.51,37.09-55.51,76.77-70.7C314.69,55.51,305,57.9,296.55,59.43Z"/><path class="cls-2" d="M296.55,59.43c-6.24,1.12-10.18,2.34-20.77,2.5s-25.67.44-44.84,10.06c-21.17,10.63-57.45,38.91-74.06,48.73s-26.78,10.54-39.39,7.51c-1.82-1.09-17.23-7.33-25.81-13C75.44,104.6,63.83,79.87,56.11,80.76l-8.35,3c-1.39,20.54,74.24,74.11,129.51,72.09,1.29-.72,25.71-11.48,34.26-11.61,4.6.31,9.61-3.88,9.86-7.7,9.47-2.22,10.63-26.86,29.41-20,16,5.9,28.15.13,37.34-21.42C295,79,304.3,66.81,321.28,60.32,314.69,55.51,305,57.9,296.55,59.43Z"/><path class="cls-3" d="M297.26,62.36a112,112,0,0,1-21.94,2.32c-10.58.16-23.69,0-42.86,9.61-21.17,10.63-56.06,37.62-72.66,47.44s-29.7,9.53-42.31,6.5c-1.82-1.09-17.55-5.29-26.13-10.92C75.12,106.64,61.72,80.94,56.11,80.76l-6-1.13-2.3,4.1c-1.39,20.54,62,84.54,117.23,82.52,1.29-.73,45.24-13.9,53.79-14,4.61.3,6.42-6.73,6.67-10.55,9.47-2.22,10-21,28.78-14.06,16,5.9,24.72-10.94,33.91-32.49C295,79,303.25,68.43,320.23,61.93,314.46,58,305.7,60.84,297.26,62.36Z"/><path class="cls-4" d="M298.74,58.78l-2.23.41c-1.17.21-2.25.42-3.31.63a83.91,83.91,0,0,1-17.42,1.87c-10.21.16-25.64.39-44.95,10.09-12.77,6.41-31,19.24-47.15,30.55-10.46,7.35-20.33,14.28-26.92,18.18-17,10-27.24,10.36-39.18,7.49-.55-.32-2.13-1-4.3-2-5.73-2.58-15.32-6.89-21.47-10.93-7.93-5.21-14.66-13.72-20.6-21.23C67.15,88.69,63.65,84.27,60.57,82l-.07-.06c-2.53-2-4.39-1.14-4.39-1.14,3.8-.44,8.86,6,14.72,13.37s12.71,16.08,20.71,21.33c6.19,4.06,15.8,8.39,21.54,11,2.2,1,3.79,1.71,4.29,2l.07,0c12.07,2.9,22.42,2.59,39.57-7.55,6.6-3.9,16.48-10.84,27-18.19,16.1-11.31,34.35-24.13,47.09-30.52,19.21-9.65,34.57-9.88,44.74-10a84.65,84.65,0,0,0,17.5-1.87c1.06-.21,2.14-.42,3.3-.63l2.24-.42c7.52-1.41,16-3,21.94,1-17,6.79-25.23,25.63-32.46,42.28-6.22,14.3-12.08,27.81-22.52,31.55-5.86,2.09-12.79,1-21.17-3.28l-.09,0c-2.67-.16-4.51,2.3-6.64,5.15-2.49,3.34-5.32,7.13-10.34,8.31l-.17,0,0,.18a16.79,16.79,0,0,1-3.34,8c-1.77,2.34-4.83,5.07-9.39,4.78-8.23.12-48.45,12-50.81,13.11-41.75-1.44-79.62-29.3-99.36-52.72-11.33-13.44-17.72-26.44-16.7-33.92a8.85,8.85,0,0,0-.17,5.42l0,.14c1.62,7.66,7.51,18,16.47,28.67a164.14,164.14,0,0,0,42.15,35.16c18.89,11,38.82,17.1,57.63,17.73h.06l.06,0c1.5-.84,42.35-13,50.63-13.08,4.76.31,7.94-2.53,9.79-5a17.48,17.48,0,0,0,3.42-8.1c5.09-1.27,8.06-5.25,10.45-8.45,2-2.72,3.8-5.06,6.17-5,8.48,4.34,15.52,5.41,21.5,3.27,10.64-3.8,16.55-17.41,22.8-31.81C296,86,304.22,67.11,321.36,60.54l.42-.16-.36-.26C315.32,55.67,306.51,57.32,298.74,58.78Z"/><path class="cls-1" d="M111.11,122.72a164.49,164.49,0,0,0-8.28-17.34C99,98.49,93.49,96.16,92.4,97.14c-1.32,1.19,1.63,6.12,0,11.82s-2.47,10.88,2.44,14l22.45,5.44C115.51,125.82,112.12,125.51,111.11,122.72Z"/><path class="cls-3" d="M111.11,122.72a119.27,119.27,0,0,0-8.28-17.34c-3.68-6.12-7.09-7.86-8.18-6.88-1.33,1.19,1.5,4.8-.12,10.5s-3.69,10.38.31,13.93l9.83,4,12.62,1.41C115.51,125.82,112.12,125.51,111.11,122.72Z"/><path class="cls-2" d="M96.12,98.9c6.24,8.24,8.49,15.14,13.88,23.33C108.31,117.38,101.27,101.38,96.12,98.9Z"/><path class="cls-4" d="M114.47,125.55c-1.34-.76-2.61-1.48-3.13-2.91a160.59,160.59,0,0,0-8.3-17.37c-3.16-5.65-7.36-8.2-9.42-8.54a1.67,1.67,0,0,0-1.38.23c-.67.61-.44,1.87-.11,3.62a17.61,17.61,0,0,1,0,8.31c-1.25,4.41-2.22,8.9,0,12.17a1.88,1.88,0,0,0,.16.23c1.56,1.77,2.52,1.64,2.52,1.64-4.83-3-3.8-8.31-2.2-13.9a18,18,0,0,0,0-8.54c-.28-1.53-.5-2.74,0-3.17a1.22,1.22,0,0,1,1-.11c2,.32,6,2.8,9.08,8.29a166.49,166.49,0,0,1,8.26,17.3c.58,1.61,2,2.4,3.35,3.17a8.6,8.6,0,0,1,3.06,2.4l.4-.28A9,9,0,0,0,114.47,125.55Z"/><path class="cls-1" d="M244.15,68.74c-5,1.78-8.63,4.32-8.15,5.67s4.91,1,9.9-.76,8.63-4.31,8.15-5.66S249.14,67,244.15,68.74Z"/><path class="cls-8" d="M244.58,70c-3.75,1.34-6.49,3.25-6.13,4.27s3.7.76,7.45-.58,6.5-3.24,6.13-4.26S248.33,68.63,244.58,70Z"/><path class="cls-4" d="M251.67,66.91a24.62,24.62,0,0,0-7.6,1.61,26.56,26.56,0,0,0-6.18,3c-1.16.8-2.47,2-2.12,2.95.24.66,1.11,1,2.61,1a24.62,24.62,0,0,0,7.6-1.61,26.56,26.56,0,0,0,6.18-3c1.16-.8,2.47-2,2.12-3C254.05,67.25,253.17,66.91,251.67,66.91Zm.22,3.55a26.61,26.61,0,0,1-6.07,3A24.19,24.19,0,0,1,238.38,75c-1.22,0-2-.24-2.15-.67s.53-1.42,1.93-2.39a26.82,26.82,0,0,1,6.07-3,24.19,24.19,0,0,1,7.44-1.57c1.22,0,2,.24,2.15.67S253.29,69.49,251.89,70.46Z"/><path class="cls-9" d="M245.24,29.69a5.46,5.46,0,1,0,5.46,5.46A5.45,5.45,0,0,0,245.24,29.69Z"/><path class="cls-10" d="M245.24,29.69a6.48,6.48,0,0,0-.77.06c-2.91,1.05-3.27,4.63-2.15,6.79,1.69,3.23,6.43,3.73,7.77,1.1a5.52,5.52,0,0,0,.61-2.49A5.46,5.46,0,0,0,245.24,29.69Z"/><path class="cls-11" d="M246.74,30.94a2.4,2.4,0,1,0,2.66,2.39A2.54,2.54,0,0,0,246.74,30.94Z"/><path class="cls-12" d="M245.24,29.45a5.7,5.7,0,1,0,5.7,5.7A5.71,5.71,0,0,0,245.24,29.45Zm0,10.91a5.22,5.22,0,1,1,5.21-5.21A5.22,5.22,0,0,1,245.24,40.36Z"/><path class="cls-9" d="M234.09,49.45a5.46,5.46,0,1,0,5.45,5.45A5.45,5.45,0,0,0,234.09,49.45Z"/><path class="cls-10" d="M234.09,49.45a4.9,4.9,0,0,0-.77.06c-2.91,1-3.27,4.63-2.15,6.79,1.69,3.23,6.43,3.72,7.77,1.09a5.45,5.45,0,0,0-4.85-7.94Z"/><path class="cls-11" d="M235.59,50.7a2.4,2.4,0,1,0,2.66,2.38A2.54,2.54,0,0,0,235.59,50.7Z"/><path class="cls-12" d="M234.09,49.21a5.7,5.7,0,1,0,5.7,5.69A5.7,5.7,0,0,0,234.09,49.21Zm0,10.9a5.21,5.21,0,1,1,5.21-5.21A5.21,5.21,0,0,1,234.09,60.11Z"/><path class="cls-9" d="M232.87,26.79a2.9,2.9,0,1,0,2.9,2.9A2.9,2.9,0,0,0,232.87,26.79Z"/><path class="cls-10" d="M232.87,26.79a2.73,2.73,0,0,0-.41,0,2.56,2.56,0,0,0-1.14,3.61c.9,1.72,3.41,2,4.13.59a3,3,0,0,0,.32-1.33A2.9,2.9,0,0,0,232.87,26.79Z"/><path class="cls-11" d="M233.67,27.46a1.27,1.27,0,1,0,1.41,1.27A1.34,1.34,0,0,0,233.67,27.46Z"/><path class="cls-12" d="M232.87,26.66a3,3,0,1,0,3,3A3,3,0,0,0,232.87,26.66Zm0,5.8a2.77,2.77,0,1,1,2.77-2.77A2.77,2.77,0,0,1,232.87,32.46Z"/><path class="cls-9" d="M248.06,55a2.9,2.9,0,1,0,2.9,2.9A2.9,2.9,0,0,0,248.06,55Z"/><path class="cls-10" d="M248.06,55a2.73,2.73,0,0,0-.41,0,2.57,2.57,0,0,0-1.15,3.61c.9,1.72,3.42,2,4.13.59a2.85,2.85,0,0,0,.33-1.33A2.9,2.9,0,0,0,248.06,55Z"/><path class="cls-11" d="M248.85,55.7A1.27,1.27,0,1,0,250.27,57,1.35,1.35,0,0,0,248.85,55.7Z"/><path class="cls-12" d="M248.06,54.9a3,3,0,1,0,3,3A3,3,0,0,0,248.06,54.9Zm0,5.8a2.77,2.77,0,1,1,2.77-2.77A2.78,2.78,0,0,1,248.06,60.7Z"/><circle class="cls-9" cx="244.4" cy="66.91" r="2.9"/><path class="cls-10" d="M244.4,64c-.14,0-.27,0-.41,0a2.57,2.57,0,0,0-1.14,3.61c.9,1.72,3.42,2,4.13.59a2.84,2.84,0,0,0,.32-1.33A2.9,2.9,0,0,0,244.4,64Z"/><ellipse class="cls-11" cx="245.2" cy="65.95" rx="1.42" ry="1.27"/><path class="cls-12" d="M244.4,63.88a3,3,0,1,0,3,3A3,3,0,0,0,244.4,63.88Zm0,5.81a2.78,2.78,0,1,1,2.78-2.78A2.78,2.78,0,0,1,244.4,69.69Z"/><path class="cls-2" d="M236.79,107.14l20.44-3.36C252.75,98.33,241.7,98.29,236.79,107.14Z"/><path class="cls-3" d="M236.79,107.14h12.07l8.37-3.36C252.57,100.66,242.56,99.64,236.79,107.14Z"/><path class="cls-4" d="M255.09,101.34l-.07,0a13,13,0,0,0-7.69-1.6,13.74,13.74,0,0,0-8.53,4l-.16.16a6.76,6.76,0,0,0-1.85,3.32,13.35,13.35,0,0,1,10.58-7c4-.36,7.74,1,9.86,3.6C257.23,103.78,257.23,102.62,255.09,101.34Z"/><path class="cls-1" d="M252.26,104.81c-3.68,0-10.81,5-11,10.36-.25,6.11,4,8.94,7.72,8.94a8.65,8.65,0,0,0,8.32-9C257.13,109.74,255.94,104.81,252.26,104.81Z"/><path class="cls-13" d="M252.05,106.19c-3.43,0-10.07,4.53-10.27,9.3-.23,5.49,3.83,8.6,7.26,8.6s7.82-3.46,7.68-8.7C256.58,110.62,255.48,106.19,252.05,106.19Z"/><path class="cls-14" d="M252.05,108c-3.43,0-10.08,3.89-10.08,8s3.64,7.52,7.07,7.52a7.77,7.77,0,0,0,7.23-7.52C256.27,111.93,255.48,108,252.05,108Z"/><path class="cls-6" d="M252.05,108c-2.27,0-5.94,1.7-8.17,4-2.22,3.73-1.24,6.24.09,8.25.7,1,1.91,1.08,3.55,1.48a8.58,8.58,0,0,0,8.14-2.9,7,7,0,0,0,.61-2.84C256.27,111.93,255.48,108,252.05,108Z"/><path class="cls-13" d="M248.81,112c-2.77,0-5,2.7-4.95,6a6.29,6.29,0,0,0,2.33,4.94,5.83,5.83,0,0,0,4.94.35,6.07,6.07,0,0,0,2.78-5.37C253.87,114.56,251.59,111.93,248.81,112Z"/><path class="cls-6" d="M246.08,117.48a.59.59,0,0,0-.53.71.71.71,0,0,0,.84.45.6.6,0,0,0,.53-.71A.72.72,0,0,0,246.08,117.48Z"/><path class="cls-6" d="M245,114.3a1,1,0,0,0-.92,1.22,1.24,1.24,0,0,0,1.45.77,1,1,0,0,0,.92-1.22A1.23,1.23,0,0,0,245,114.3Z"/><path class="cls-2" d="M235.57,126.18l12.91-1.63,12.92.42C252.07,118.31,239.93,119.52,235.57,126.18Z"/><path class="cls-3" d="M235.57,126.18,261.4,125C253.88,120.91,240.62,121.12,235.57,126.18Z"/><path class="cls-4" d="M257.9,122.37l-.12-.06a22.89,22.89,0,0,0-13.58-1.84,16.21,16.21,0,0,0-5.25,1.91l-.15.09a7.51,7.51,0,0,0-3.23,3.71c1.73-2.64,4.83-4.5,8.72-5.24a22.88,22.88,0,0,1,17.11,4S260.71,123.55,257.9,122.37Z"/><path class="cls-15" d="M317.56,60.56c-9.37,2.5-18.81,10.51-25.67,25.94s-11.5,36.68-24.11,43.35-15.29-2.33-24.07,1.21c2.62,5.61,11.41,9.33,24.07,4.68,13.66-5,19.27-20.56,24.57-34.3,5.74-14.86,13.32-29.82,22.62-33.93,10-4.43,13.67-1.05,14.54,2.91C330.73,65.57,326.93,58.05,317.56,60.56Z"/><path class="cls-16" d="M317.56,60.56c-9.37,2.5-18.81,10.51-25.67,25.94s-11.5,36.68-24.11,43.35-15.61-2-21.37,1.23c2.37,4.34,9.88,6.77,21.21,2.54,12.86-4.79,17.43-19.16,22.73-32.9,5.74-14.87,14.57-31.1,23.88-35.21,10-4.43,15.5-.43,15.28,4.91C330.73,65.57,326.93,58.05,317.56,60.56Z"/><path class="cls-17" d="M321.1,59.82a14.17,14.17,0,0,0-3.6.5c-7.37,2-17.83,8.1-25.84,26.08-1.7,3.83-3.3,8.1-4.84,12.23-4.79,12.8-9.74,26-19.15,31a18.62,18.62,0,0,1-8.67,2.51,19,19,0,0,1-5.9-1.14,17.36,17.36,0,0,0-5.23-1,11.18,11.18,0,0,0-4.25.87l-.23.1.1.23c2,4.27,7.17,6.93,13.51,6.93A31.67,31.67,0,0,0,267.87,136c13.33-4.89,19.11-19.9,24.21-33.15l.5-1.29c7.47-19.36,14.82-30.42,22.49-33.8a20.5,20.5,0,0,1,8-2.07c4.27,0,5.74,2.61,6.22,4.81l.23,1,.25-1A9,9,0,0,0,328.09,63,8.48,8.48,0,0,0,321.1,59.82Zm1.95,5.35a20.91,20.91,0,0,0-8.17,2.12c-7.8,3.44-15.24,14.58-22.76,34.07l-.49,1.29c-5.07,13.15-10.81,28-23.93,32.87a31.45,31.45,0,0,1-10.7,2.09c-6,0-11-2.46-12.95-6.42a10.58,10.58,0,0,1,3.82-.75,16.81,16.81,0,0,1,5.08,1,16.51,16.51,0,0,0,14.95-1.4c9.57-5.06,14.55-18.38,19.37-31.26,1.55-4.12,3.14-8.39,4.84-12.2,7.92-17.81,18.25-23.87,25.51-25.81a13.82,13.82,0,0,1,3.48-.49,8,8,0,0,1,6.6,3,8.58,8.58,0,0,1,1.75,6C328.77,67.46,327.1,65.17,323.05,65.17Z"/><path class="cls-1" d="M208.11,141.07l-20.17,7.2c-24.95,9.56-25.12,20.48-24.87,24,.14,2.07.94,2.94-1.34,6.06C159,182,159.83,186,161,189s.91,4.36-.57,7.09c-1.61,3-.52,6.41.7,10.37s-5.82,20.72-3,22.54,35.5-13.49,43.49-40.06C209,164.23,232.84,145.56,208.11,141.07Z"/><path class="cls-2" d="M208.11,141.07l-20.17,7.2c-19,8.28-17,20.48-16.73,24a8.83,8.83,0,0,1-1.94,7c-2.75,3.75-1.54,4.52-.37,7.51s3.67,7.58,2.19,10.32c-1.61,3-2.55,2.33-1.34,6.29s-13.21,27.75-3.54,23c6.27-3.75,26.27-13.15,35.38-37.45C209,164.23,232.84,145.56,208.11,141.07Z"/><path class="cls-3" d="M208.11,141.07l-15.16.05-5,7.15c-19,8.28-21,20.2-20.73,23.67.14,2.07.82,3.88-1.46,7-2.74,3.76-.89,6.35.29,9.34s.18,6.08-1.3,8.82c-1.6,3,.37,4.67,1.58,8.63s-9.78,25.41-.11,20.62c6.27-3.75,25.51-15.45,33.3-38.36C206.92,163.33,227.69,145.61,208.11,141.07Z"/><path class="cls-4" d="M212.16,141.56l-.13,0a8.87,8.87,0,0,0-3.92-.45c5.56,1,8.87,2.8,10.13,5.48,2.17,4.6-1.69,11.47-6.58,20.16-3.69,6.57-7.87,14-10.31,22.11-6.36,21.15-29,35.5-38.93,39.14-2.55.93-3.84,1-4.19.79-1.38-.9.09-6.58,1.38-11.6,1.19-4.6,2.32-9,1.75-10.81l-.06-.19c-1.17-3.84-2.19-7.16-.66-10s1.8-4.22.59-7.3c-1-2.65-2.1-6.61.7-10.43,1.89-2.58,1.72-3.71,1.51-5.13a10.88,10.88,0,0,1-.13-1.09c-.65-9.24,7.87-17.52,24.63-23.94a22.93,22.93,0,0,0-6.83,2.4l-.14.07c-12.47,6-18.71,13.39-18.15,21.5,0,.42.09.78.14,1.13.2,1.37.35,2.35-1.42,4.77-2.94,4-1.84,8.15-.76,10.9,1.14,2.92.88,4.22-.56,6.89-1.63,3-.59,6.42.62,10.37l0,.18c.53,1.73-.63,6.21-1.75,10.55-1.46,5.68-2.85,11-1.18,12.12a1.56,1.56,0,0,0,.84.19,13.2,13.2,0,0,0,3.78-.92c4.71-1.72,13-6.15,20.88-13,6.4-5.54,14.79-14.63,18.36-26.51,2.42-8,6.59-15.45,10.26-22,5-8.81,8.87-15.78,6.6-20.61C217.69,144.24,215.54,142.66,212.16,141.56Z"/><path class="cls-3" d="M288.71,96.66C299.2,73,309.08,63,322.77,61.08,309.2,60.86,296.29,73.2,288.71,96.66Z"/><path class="cls-2" d="M299.12,181.12c-1.47-1-14.87-2.54-18.95-5.22C281.3,178.81,294,180.84,299.12,181.12Z"/></svg>