<svg id="Layer_1" data-name="Layer 1" xmlns="http://www.w3.org/2000/svg" viewBox="0 0 80 40"><defs><style>.cls-1,.cls-3{fill:#fff;}.cls-1{stroke:#752917;}.cls-1,.cls-4{stroke-miterlimit:10;stroke-width:0.5px;}.cls-2{fill:#261708;}.cls-4{fill:#e56e43;stroke:#a54325;}</style></defs><path class="cls-1" d="M72.63,14.6c0,5.61-3.37,11.83-10.47,13-4.54.76-7.61-.25-8.68-4.94a9.79,9.79,0,0,1-.19-1c-.71-4.54.18-11.44,7.81-14.2a9.5,9.5,0,0,1,8.82,1.7A6.9,6.9,0,0,1,72.63,14.6Z"/><ellipse class="cls-2" cx="60.88" cy="17.75" rx="7.13" ry="7.99"/><ellipse class="cls-3" cx="65.33" cy="15.04" rx="1.86" ry="2.36"/><path class="cls-1" d="M30.15,25.68c0,.39-.1.77-.16,1.14-1,5.53-4.71,6.71-10.38,5.92-8.3-1.2-12.24-7.41-12.24-13a6.57,6.57,0,0,1,3.15-5.37,12.61,12.61,0,0,1,10.34-1.72C29.06,15.17,30.6,21.21,30.15,25.68Z"/><ellipse class="cls-2" cx="18.2" cy="21.25" rx="7.37" ry="7.99"/><ellipse class="cls-3" cx="22.82" cy="18.84" rx="2.18" ry="2.36"/><path class="cls-4" d="M30.15,25.68a41.55,41.55,0,0,0-4.61-3.91c-.48-.35-1-.69-1.45-1-1.15-.78-2.3-1.48-3.44-2.1a54.27,54.27,0,0,0-7.35-3.38c-1-.37-2-.68-2.78-.93a12.61,12.61,0,0,1,10.34-1.72C29.06,15.17,30.6,21.21,30.15,25.68Z"/><path class="cls-4" d="M69.92,9.2a34.6,34.6,0,0,0-4.69,2.23,32.91,32.91,0,0,0-10.78,9.76c-.37.53-.69,1-1,1.48a9.79,9.79,0,0,1-.19-1c-.71-4.54.18-11.44,7.81-14.2A9.5,9.5,0,0,1,69.92,9.2Z"/></svg>