<svg id="Layer_1" data-name="Layer 1" xmlns="http://www.w3.org/2000/svg" viewBox="0 0 50 50"><defs><style>.cls-1,.cls-3{fill:#fff;}.cls-1{stroke:#0e2938;stroke-width:0.75px;}.cls-1,.cls-4{stroke-miterlimit:10;}.cls-1,.cls-2,.cls-3,.cls-4{fill-rule:evenodd;}.cls-2{fill:#132836;}.cls-4{fill:#5f86c4;stroke:#244777;stroke-width:0.5px;}</style></defs><path class="cls-1" d="M9.13,10.59c-7.44,12.15.95,30.62,12.18,35.69a12.94,12.94,0,0,0,10.27.26C42.5,41.9,46.22,27.22,42.2,16.67a25.25,25.25,0,0,0-5.8-9C29.63.94,15.74-.2,9.13,10.59Z"/><path class="cls-2" d="M12.46,35c3,6.74,10.33,13.6,17.35,10.53,2.6-1.14,4.57-3.84,6-7.43,3-7.48.68-18.45-5.94-23.14C25,11.49,18.79,11.72,15,15.54,10.17,20.3,9.51,28.26,12.46,35Z"/><path class="cls-3" d="M17.87,10.16c-2.44,1.44-3.23,5-1.77,7.89s4.63,4.13,7.07,2.69,3.24-5,1.78-7.89S20.31,8.73,17.87,10.16Z"/><path class="cls-4" d="M6.36,22.78S13.25,5.36,38.3,9.83c0,0-12.51-14.8-26.82-2.29C11.48,7.54,5.23,14,6.36,22.78Z"/></svg>