<svg id="Layer_1" data-name="Layer 1" xmlns="http://www.w3.org/2000/svg" viewBox="0 0 360 380"><defs><style>.cls-1{opacity:0.3;}.cls-2{fill:#6baa11;}.cls-3{fill:#195102;}.cls-4{fill:#e8d0b1;}.cls-5{fill:#f9ebd7;}.cls-6{fill:#c6b099;}.cls-7{fill:#b24b04;}.cls-8{fill:#cc5700;}.cls-9{fill:#dd7314;}.cls-10{fill:#b53d00;}.cls-11{fill:#823907;}.cls-12{fill:#e8b974;}.cls-13{fill:#f4ca8e;}.cls-14{fill:#fad496;}.cls-15{fill:#7ac222;}.cls-16{fill:#87c928;}.cls-17{fill:#94cc32;}.cls-18{fill:#4c0000;}.cls-19{fill:#820000;}.cls-20{fill:#e85885;}.cls-21{fill:#f96e92;}.cls-22{fill:#dd2260;}.cls-23{fill:#256805;}.cls-24{fill:#c6934f;}.cls-25{fill:#f6b954;}.cls-26{fill:#c60;}</style></defs><ellipse class="cls-1" cx="198.17" cy="339.06" rx="159.91" ry="37.37"/><path class="cls-2" d="M273.71,316.88s4.86,21.06-23.09,20.2c-10.33-.56-16.1-11.5-16.1-11.5C252.75,323.15,273.71,316.88,273.71,316.88Z"/><path class="cls-3" d="M252.27,337.41l-1.66,0c-10.38-.56-16.3-11.55-16.36-11.66l-.2-.38.43-.06c18-2.4,38.93-8.63,39.14-8.7l.31-.09.07.32c0,.07,1.74,7.83-3,13.77C267.41,335.11,261.1,337.41,252.27,337.41ZM235,325.82c1.14,1.93,6.68,10.47,15.63,11,9.49.28,16.2-1.93,19.9-6.57,4-5,3.19-11.46,2.93-12.95C270.77,318.05,251.72,323.54,235,325.82Z"/><path class="cls-4" d="M243.68,341.07s7.85-2.78,12.26-5.79c2.88-1.5-4.56-6.66-8.51-2.41C246.22,335,243.68,341.07,243.68,341.07Z"/><path class="cls-5" d="M243.68,341.07s3.32-2.78,7.72-5.79c2.88-1.5,0-6.66-4-2.41C246.22,335,243.68,341.07,243.68,341.07Z"/><path class="cls-6" d="M243.14,341.59l.26-.63c.1-.25,2.56-6.12,3.77-8.24l0-.05a5.4,5.4,0,0,1,4.06-1.75c2.67,0,5.24,1.7,5.58,3.1a1.32,1.32,0,0,1-.77,1.53c-4.36,3-12.22,5.78-12.3,5.81Zm4.54-8.53c-1,1.69-2.77,5.88-3.45,7.49,2-.74,8-3.07,11.54-5.53.43-.22.58-.49.49-.85-.26-1.06-2.47-2.64-5-2.64A4.8,4.8,0,0,0,247.68,333.06Z"/><path class="cls-4" d="M244.83,334.09s-7.73,4.22-9.7,3.93c-.46-2.72,1.67-8.18,5.92-9.25A19.48,19.48,0,0,1,244.83,334.09Z"/><path class="cls-5" d="M241.51,333.15a12.26,12.26,0,0,0-6.38,4.87c-.46-2.72,1.67-8.18,5.92-9.25A3.15,3.15,0,0,1,241.51,333.15Z"/><path class="cls-6" d="M235.35,338.34h-.27l-.21,0,0-.22c-.51-3,1.9-8.53,6.15-9.59l.16,0,.12.11A19.53,19.53,0,0,1,245.1,334l.12.26-.25.13C244.68,334.52,237.66,338.34,235.35,338.34Zm5.62-9.23c-4,1.11-5.83,6.1-5.57,8.62,2-.05,7.74-3.08,9-3.77A19.26,19.26,0,0,0,241,329.11Z"/><path class="cls-7" d="M227.57,155.14s43.3-16.55,63.75,33.41C282.82,205.5,278,213.2,278,213.2l-36.75-7.29Z"/><path class="cls-8" d="M227.57,155.14l13.64,50.77.35-.07c8.37-9.16,22.32-13.67,31.85-5.27.24-.38,10-15.88,17.91-12C270.87,138.59,227.57,155.14,227.57,155.14Z"/><path class="cls-9" d="M229,157l11,44.34c8.36-9.17,21.15-13.71,30.69-5.31.24-.38,8.34-9.12,16.37-10.17C274.16,147.43,229,157,229,157Z"/><path class="cls-8" d="M271.88,190.72c4.33-1.92,11.82-7.27,15.16-11.12-13.77-24.76-34.1-27.92-47.06-26.93,2.41,7,9,26,11.25,30.18A134.23,134.23,0,0,0,271.88,190.72Z"/><path class="cls-10" d="M270.67,187.22c4.55.76,10.4-3.13,13.74-7-13.77-24.76-28.57-25.6-41.54-24.62a271.79,271.79,0,0,0,11.7,26.59C264.29,187,270.67,187.22,270.67,187.22Z"/><path class="cls-8" d="M275.93,181.66c2.53-2.58,5.26-4.39,6.88-8.75-10.4-14.41-23.31-19.16-34-20.17,2.3,5.26,6.74,15.48,8.93,21.17C263.78,177.35,275.93,181.66,275.93,181.66Z"/><path class="cls-9" d="M275.38,178.64c2.53-2.58,2.59-1.57,4.21-5.93-10.39-14.41-17.94-16.06-28.66-17.08,2.3,5.27,6.33,9.91,8.52,15.6A168,168,0,0,0,275.38,178.64Z"/><path class="cls-10" d="M274.31,171.62c1,0,1.38,0,2.23-2.58-6.19-8.19-15.74-12.34-18.06-11.53a38.83,38.83,0,0,1,3.14,8.5C265.81,170.06,272.09,171.15,274.31,171.62Z"/><path class="cls-11" d="M278.1,213.53l-.2,0L241,206.17l-.05-.19L227.2,155l.26-.1A51.23,51.23,0,0,1,244,152.21c14.95,0,35.34,6.29,47.6,36.23l0,.12,0,.13c-8.42,16.76-13.34,24.59-13.38,24.67Zm-36.65-7.88,36.36,7.21c.77-1.25,5.51-9,13.18-24.32-12.13-29.52-32.24-35.72-47-35.72a52,52,0,0,0-16.08,2.51Z"/><path class="cls-7" d="M270.67,215s9.52-25.92,19.44-29.16c8.3,5.46,41.92,35.23,25.72,81.5-9.72,7.6-32.48,16.7-32.48,16.7Z"/><path class="cls-8" d="M290.11,185.86C280.19,189.1,270.67,215,270.67,215l10.78,58.73c10.86-7,23.52-12.08,36.32-12.73C329,218.38,298,191.07,290.11,185.86Z"/><path class="cls-9" d="M289.65,190c-9.92,3.24-15.49,28.4-15.49,28.4l9.19,50.73c10.85-7,18.87-8.92,31.66-9.57C326.2,216.88,297.57,195.17,289.65,190Z"/><path class="cls-8" d="M288.69,208.13c2.63,11.75,9.52,41.31,11.54,49.31.92,2.29,11.4,2.08,18.06,0,8-29.67-10.23-55.42-21.11-65.78C295.06,196.64,290.78,206.34,288.69,208.13Z"/><path class="cls-10" d="M291.32,209.55C294,221.3,299.93,246.2,302,254.2c.92,2.29,7.32,3.57,14,1.49,5.33-30.74-8.1-49.29-19-59.66C294.83,201,293.41,207.76,291.32,209.55Z"/><path class="cls-8" d="M307.12,248.66a49,49,0,0,0,13-3.61c.65-19.77-7.56-35.27-15.8-45.57-1.78,4.33-4.44,10.76-5.73,13.72C300.23,224.94,307.12,248.66,307.12,248.66Z"/><path class="cls-9" d="M308.49,246.46c3.07-.34,3.82-.4,7.89-2.28.65-19.78-3.91-29.59-12.15-39.89-1.78,4.32-2.66,7.78-3.94,10.73C301.9,226.76,308.49,246.46,308.49,246.46Z"/><path class="cls-10" d="M306.92,217.85c0,1.42,2.83,13,4.05,22a14.65,14.65,0,0,0,5.47-1.19c-.77-9.3-.86-18.83-6.09-25C307.5,213.56,306.92,215,306.92,217.85Z"/><path class="cls-11" d="M283.11,284.48,270.35,215l0-.08c.39-1.06,9.69-26.09,19.63-29.34l.14,0,.13.08c4.87,3.21,15,12.21,22.14,25.57,9.38,17.58,10.62,36.52,3.69,56.3l0,.08-.08.05c-9.64,7.53-32.32,16.65-32.55,16.74ZM271,215l12.6,68.6c2.88-1.17,23-9.5,32-16.46,14.89-42.67-13.24-72.83-25.51-81C280.71,189.45,271.57,213.49,271,215Z"/><path class="cls-7" d="M166,163.79s25.68-37.27,67.39-9.93c4.05,10.53,17,39.06,13.9,51.44-9.24,9.11-25.65,14.17-25.65,14.17C196.15,206.11,166,163.79,166,163.79Z"/><path class="cls-8" d="M228.75,205.3c3.36-5.28,9.37-6.77,15-8.06-1.31-14.83-7.3-35.37-10.38-43.38C191.7,126.52,166,163.79,166,163.79a319.09,319.09,0,0,0,29.52,34.94C206.56,194,219.91,198.12,228.75,205.3Z"/><path class="cls-9" d="M227.57,201.84c3.36-5.28,8.26-4.52,13.94-5.81-1.32-14.83-6.19-31.63-9.27-39.64-41.71-27.33-63,9.12-63,9.12a193.14,193.14,0,0,0,26.33,33.22C206.56,194,218.73,194.66,227.57,201.84Z"/><path class="cls-8" d="M204.46,188.55c9.1,3.38,23.88,6,27.33,10.06a44.59,44.59,0,0,1,8.1-7c-2.13-9.12-8.11-29.68-15.56-42.88-21-9.75-37.18-3.24-47.11,4C183.64,156.38,198.24,166.65,204.46,188.55Z"/><path class="cls-10" d="M205.57,186.53c9.1,3.38,21.56,4.27,25,8.33,3.85-4.26,6.6-4.82,6.6-4.82-2.13-9.11-4.92-24.78-12.38-38-17.91-9-33.88-6.05-43.82,1.19C187.4,156.84,199.35,164.63,205.57,186.53Z"/><path class="cls-8" d="M213.36,179.31c4.46.67,14.18,3.51,15.59,6.55,0-6.08-3.84-23.42-3.84-23.42-4.67-5.43-6.94-12.79-15.41-18.14a42.11,42.11,0,0,0-23.53,3.28A66.85,66.85,0,0,1,213.36,179.31Z"/><path class="cls-9" d="M214,176c4.45.68,11.76,3.2,13.18,6.23,0-6.07-4.12-19.77-4.12-19.77-4.67-5.43-5-10.07-13.45-15.42-8-.57-10.86-1.41-17.33,1.47C198.3,152.05,206.43,157.51,214,176Z"/><path class="cls-8" d="M221.87,167.84l-5.47,2.37a128.55,128.55,0,0,0-11.94-17,37.08,37.08,0,0,1,11.53,2A53.61,53.61,0,0,1,221.87,167.84Z"/><path class="cls-10" d="M219.64,166.08l-2.89,1.12a63,63,0,0,0-9.19-12.82c5.26.2,6.3,2.22,8.13,3C220.15,164.7,219.64,166.08,219.64,166.08Z"/><path class="cls-11" d="M221.63,219.8l-.11-.06c-25.28-13.24-55.44-55.36-55.74-55.78l-.13-.17.12-.18c.14-.2,14.11-20.07,37.7-20.07,9.78,0,19.91,3.39,30.1,10.07l.09,0,0,.09c.59,1.52,1.36,3.42,2.25,5.6,5.38,13.22,14.38,35.34,11.67,46l0,.08-.07.07c-9.19,9-25.6,14.19-25.77,14.24Zm-55.23-56c2.15,3,31,42.55,55.29,55.36,1.5-.49,16.66-5.49,25.35-14,2.59-10.52-6.33-32.44-11.67-45.56-.87-2.14-1.63-4-2.21-5.52-10.07-6.58-20.06-9.92-29.69-9.92C181.38,144.14,167.82,161.83,166.4,163.79Z"/><path class="cls-7" d="M225.11,213.2s21.06-19.45,34.83-15,26.12,11.54,31.38,33.21c4.05,17.62,1.38,42.77-5.47,52.25-10.32,1.82-45.15,4.85-55.89-4.05C228.94,261.6,225.11,213.2,225.11,213.2Z"/><path class="cls-8" d="M286.83,270.53c2.59-11.61,3.1-28.87.37-40.73-5.26-21.66-13.49-27.13-27.26-31.59s-34.83,15-34.83,15,2.66,40.21,4.1,61.66C242.63,269.09,272.48,270.42,286.83,270.53Z"/><path class="cls-9" d="M283.35,266.68c2.58-11.61,4-25.3,1.29-37.16-5.26-21.67-11.43-23.73-25.19-28.18s-34.1,15.5-34.1,15.5,3.11,33.25,4.55,54.7C243.32,265.77,269,266.57,283.35,266.68Z"/><path class="cls-11" d="M259.72,286c-10.3,0-23.85-1.07-30-6.13l-.1-.08v-.14c-1-17.81-4.82-65.93-4.86-66.41v-.15l.11-.1c.17-.16,17.19-15.73,30.59-15.73a14.74,14.74,0,0,1,4.54.68c13.23,4.28,26.21,11.29,31.59,33.43,4.09,17.81,1.46,42.83-5.52,52.49l-.07.1-.12,0A169.66,169.66,0,0,1,259.72,286Zm-29.46-6.51c6,4.87,19.32,5.9,29.46,5.9a170.87,170.87,0,0,0,26-2c6.72-9.46,9.33-34.61,5.35-51.9-5.31-21.84-18.13-28.77-31.19-33a14.12,14.12,0,0,0-4.35-.65c-12.6,0-28.6,14.14-30.07,15.47C225.66,216.29,229.26,262,230.26,279.47Z"/><path class="cls-7" d="M127.91,182.21s16.6-30.78,43.33-23.08c18.43,6.68,26,24.76,26,47.82C188.05,220.28,166,243.14,166,243.14,145.12,232,129.93,212.38,127.91,182.21Z"/><path class="cls-8" d="M127.91,182.21s16.6-30.78,43.33-23.08c18.43,6.68,21.85,27.79,21.87,50.84C183.89,223.31,166,243.14,166,243.14,145.12,232,129.93,212.38,127.91,182.21Z"/><path class="cls-9" d="M129.73,185.86s12.76-31.82,39.48-24.13c18.43,6.69,19.88,24.92,19.9,48L166,243.14C145.12,232,131.75,216,129.73,185.86Z"/><path class="cls-11" d="M166.08,243.52l-.2-.11c-23.18-12.32-36.42-33.48-38.28-61.18v-.09l0-.07c.13-.25,13.46-24.48,35.07-24.48a31.51,31.51,0,0,1,8.62,1.24c17.14,6.22,26.22,22.86,26.24,48.12V207l-.06.08c-9.12,13.2-31,36-31.27,36.23Zm-37.87-61.24c1.86,27.35,14.92,48.26,37.75,60.49,2-2.1,22.28-23.34,31-35.92-.05-24.92-9-41.33-25.82-47.44a30.73,30.73,0,0,0-8.43-1.21C142.05,158.2,129.05,180.79,128.21,182.28Z"/><path class="cls-12" d="M91.45,297.26s-20.35-3.08-23.38-6.06c10.32-13.91,37.17-44.72,38.78-44.66,8.91,7.36,7.69,28,7.69,28Z"/><path class="cls-13" d="M84.17,289.89C81.89,292,68.07,291.2,72,286.06c10.33-13.91,33.23-39.58,34.84-39.52,8.91,7.36-9,26.13-11.91,32.15S86.44,287.77,84.17,289.89Z"/><path class="cls-14" d="M92.67,271.52c-5.79,5.35-6.53,13.52-16,17.6,3.37,1,5.94-.06,7.24-1.27,2.28-2.13,6.77-5,9.67-11,1.42-2.93,6.81-8.38,10.88-14.09a8.76,8.76,0,0,0-1.32-3.18A68.77,68.77,0,0,1,92.67,271.52Z"/><path class="cls-6" d="M91.56,297.58l-.15,0c-.84-.13-20.48-3.13-23.56-6.14l-.19-.19.16-.21c9.66-13,37-44.78,39-44.78h.1l.09.07c8.93,7.37,7.85,27.36,7.8,28.21v.11l-.09.09Zm-23.08-6.42c3.37,2.69,21,5.49,22.87,5.78l22.89-22.57c.08-1.67.75-20.53-7.47-27.5C104.42,248,79.06,277,68.48,291.16Z"/><path class="cls-7" d="M83,263.62s-4.65-42.83,24.71-63.79c1.72,21.26-1.47,44.6-1.47,44.6Z"/><path class="cls-9" d="M107.46,231.68a215.33,215.33,0,0,0,.2-31.85c-19.43,13.87-24,37.32-24.81,51.6C92.32,246.38,102,240.53,107.46,231.68Z"/><path class="cls-8" d="M103.37,203.26c-14.29,12.7-18.87,31-20.2,44.14C90.56,245.19,107.05,236.52,103.37,203.26Z"/><path class="cls-10" d="M103.37,203.26c-12.86,17.67-16.67,27.59-18,40.72C92.77,241.77,103.1,231.74,103.37,203.26Z"/><path class="cls-8" d="M98.83,207.83c-7.85,8.94-12,19.72-14.06,29.4C90.08,234.39,97.43,227,98.83,207.83Z"/><path class="cls-9" d="M98.62,210.31c-7.85,8.95-9,15.44-11.11,25.13C90.31,231.72,95.51,225.08,98.62,210.31Z"/><path class="cls-11" d="M82.71,264.21l-.06-.56A92.17,92.17,0,0,1,84,239.53c2.29-12.22,8.23-29.06,23.48-39.95l.44-.31,0,.54c1.7,21.05-1.43,44.43-1.47,44.66v.12l-.09.07Zm24.69-63.82C80.8,219.81,82.8,257.9,83.2,263l22.71-18.74C106.14,242.47,108.94,220.47,107.4,200.39Z"/><path class="cls-7" d="M88.42,252.34l-.35.34c-17.36,11.85-22.74,37.67-20,38.52,7.59.55,19.13-15.74,21.87-22.42l.19-.1C87.12,264.92,87.64,257.37,88.42,252.34Z"/><path class="cls-8" d="M88.07,252.68c-17.36,11.85-22.74,37.67-20,38.52,7.59.55,17.92-17.5,17.61-23.84S88.19,252.57,88.07,252.68Z"/><path class="cls-9" d="M86.38,255.92C73.93,265.59,67.5,287,70.24,287.85c7.59.55,12.45-14.15,12.14-20.49S86.5,255.81,86.38,255.92Z"/><path class="cls-11" d="M68.45,291.52h0l-.41,0H68c-.42-.13-.69-.6-.81-1.4-.79-5.31,5.3-27.12,20.74-37.66l1-1-.15.91c-.68,4.39-1.37,12.32,1.65,16.1l.23.29-.41.22C87.36,275.77,76.07,291.52,68.45,291.52Zm-.32-.62h.32c7.41,0,18.5-15.64,21.2-22.24l0-.07C87,265,87.25,258.34,88,253.1,72.93,263.6,67,284.82,67.76,290,67.85,290.57,68,290.84,68.13,290.9Z"/><path class="cls-7" d="M108.07,250.56s-1.73-5.77-2.64-8.51c-5.38.3-10.17,3.54-17,10.29-.78,5-1.3,12.58,1.71,16.34C98,264.6,108.07,250.56,108.07,250.56Z"/><path class="cls-8" d="M106.06,247.4a14.16,14.16,0,0,0-.63-5.35c-5.38.3-10.17,3.54-17,10.29a14.34,14.34,0,0,0,3.38,10.5C99.67,258.76,106.06,247.4,106.06,247.4Z"/><path class="cls-9" d="M100.63,252.12s-1.14-2.84-2-5.58c-2.66,2.12-1.48-.31-8.32,6.44-.13,3.58-.63,3.46,2.37,7.22C100.5,256.12,100.63,252.12,100.63,252.12Z"/><path class="cls-11" d="M90,269.06l-.15-.19c-3-3.77-2.63-11.09-1.78-16.57l0-.1.07-.07c7.38-7.28,12-10.1,17.21-10.38h.23l.08.22c.9,2.7,2.63,8.45,2.64,8.51l0,.14-.09.12c-.41.58-10.21,14.15-18,18.22ZM88.7,252.49c-.66,4.33-1.31,12,1.51,15.8,7.3-3.94,16.53-16.42,17.53-17.79-.27-.88-1.69-5.6-2.53-8.13C100.32,242.72,95.81,245.49,88.7,252.49Z"/><path class="cls-2" d="M124.26,300.37c7.29,17.62-7,38.27-1.69,42.22,4.39,2.74,7.16,9.42,5.34,12.76-4.56,6.38-22.18,7.9-37.78,4.86C63.58,352.62,75.66,321.63,78.76,313c3.1-18.07,8.44-23.54,17.86-32.19,5.16-16.47,21.21-17.17,21.21-17.17Z"/><path class="cls-15" d="M113.63,303.56c8.7,17.82-4.27,33.25,1,37.21,4.39,2.73,3.84,6.53,1.24,9-4.25,3.51-13.51,6-26.15,4.23-24.41-7-14.08-32.35-11-41,3.1-18.07,8.44-23.54,17.86-32.19,5.16-16.47,21.21-17.17,21.21-17.17S93.53,262.4,113.63,303.56Z"/><path class="cls-16" d="M110.44,302.35c7.44,18.38-5.3,32.8,0,36.75,4.39,2.74,5.79,7.42,3.19,9.87-4.26,3.51-11.45,2.87-24.09,1.08C67.39,344,78,322.54,81.13,313.89c3.1-18.07,8.17-25.63,17.59-34.27,1.18-5.12,6.56-8.12,6.56-8.12S99.17,274.5,110.44,302.35Z"/><path class="cls-3" d="M105.68,362a83,83,0,0,1-15.61-1.51c-6.87-2-11.72-5.65-14.43-10.95-6.1-11.94,0-28.71,2.54-35.87l.29-.81c3.07-17.92,8.25-23.41,17.88-32.26,5.2-16.4,21.3-17.3,21.46-17.31h.27l6.47,37c4.24,10.28,1.19,21.66-1,30-1.57,5.89-2.82,10.54-.75,12.08,4.46,2.78,7.31,9.67,5.41,13.15C125.25,359.59,116.85,362,105.68,362Zm11.89-98.08c-2.09.19-16,2-20.66,16.94l0,.08-.06.05c-9.57,8.8-14.71,14.21-17.76,32l-.31.87c-2.56,7.09-8.55,23.68-2.57,35.38,2.63,5.15,7.35,8.73,14,10.64a82.16,82.16,0,0,0,15.47,1.49c11,0,19.19-2.33,22-6.24,1.74-3.2-1-9.67-5.25-12.32-2.42-1.8-1.18-6.39.52-12.74,2.2-8.24,5.23-19.52,1-29.62l0-.07Z"/><path class="cls-3" d="M93.83,283.74l-.48-.36c4.46-4.63,9-4.69,9-4.69C98.67,279.18,93.86,283.7,93.83,283.74Z"/><path class="cls-2" d="M89.94,159.13s10.25,8.2,10.93,28.85c.72,21.88-8.81,61.06,12.61,85.36,20.2,8.5,71.82,26.73,89.3,12.75-12.88-12.8-45.41-41.37-61.21-71.07-14.18-26.68-10-59.43,18.84-70.28C142.49,137.56,98.14,145.15,89.94,159.13Z"/><path class="cls-15" d="M144.31,252.34c.61,0,11.33,3,6.07-2.7-24.3-24.9-33.41-59.53-21.87-91.73-10.83,0-25.26-.4-33.57,7.55,2.71,4.61,5.58,11.92,5.93,22.52.6,18.23-5.91,48.47,4.29,72.11C109.44,255.1,114.91,240.62,144.31,252.34Z"/><path class="cls-16" d="M139.14,248.11c.6,0,8.8,4.22,3.55-1.5-24.3-24.91-30.85-52-19.31-84.17-10.83,0-16.46,1-22.49,5.47,2.71,4.61,3.4,10.75,3.74,21.35.6,18.23-6.76,38.37,3.44,62C112.35,246.27,119.7,238.48,139.14,248.11Z"/><path class="cls-3" d="M183.24,291.5h0c-26.07,0-62.78-14.9-69.87-17.88l-.11-.08c-16.5-18.72-14.74-46-13.33-67.84.42-6.49.82-12.62.65-17.71-.67-20.28-10.72-28.55-10.82-28.63l-.21-.16.13-.23c6.08-10.34,31.94-17.29,52.29-17.29,7.62,0,14,1,18.56,2.77l.73.29-.74.28c-11.35,4.27-19.52,12.26-23.61,23.09-5.18,13.72-3.33,31.2,4.94,46.77,13.39,25.17,38.87,49.58,54.09,64.17,2.74,2.62,5.11,4.89,7.06,6.83l.24.24-.27.21C198.67,289.77,192,291.5,183.24,291.5Zm-69.58-18.41c7.23,3,43.69,17.8,69.57,17.81h0c8.47,0,14.89-1.63,19.07-4.83-1.89-1.88-4.17-4.07-6.8-6.59-15.25-14.61-40.77-39.06-54.2-64.32-8.36-15.71-10.22-33.38-5-47.26,4.07-10.77,12.09-18.76,23.23-23.16-4.41-1.61-10.47-2.45-17.6-2.45-20,0-45.43,6.73-51.63,16.77,1.45,1.31,10.22,10,10.85,28.91.16,5.13-.23,11.27-.65,17.77C99.12,227.49,97.37,254.55,113.66,273.09Z"/><path class="cls-2" d="M54.09,159.13s-82-19.44-39.79-74.73c-3-15.18,4.56-79.58,58.93-72.59,11.24,1.52,18.53-3.34,30.07-6.38,7.6-1.52,59.84-13.37,85.35,62.87,13.67,13.07,21.87,40.4,3.35,62.27-24.91,25.82-76.24,18.23-87.18,28.56C97.83,165.2,75.05,180.69,54.09,159.13Z"/><path class="cls-15" d="M50.21,152.74S-20,136.87,14.3,84.4c-3-15.18,4.56-79.58,58.93-72.59,11.24,1.52,18.53-3.34,30.07-6.38,7.6-1.52,51.72-9.52,77.23,66.73,13.67,13.06,13.41,36.64-.56,52-24.91,25.82-54.84,14.91-65.78,25.24C107.2,155.47,69,181.66,50.21,152.74Z"/><path class="cls-16" d="M49.84,147S-13.95,136.87,17,84c-3-15.19,3.05-76.18,57.42-69.2,11.24,1.52,18.65-3,30.19-6.07,7.6-1.52,43-11.24,66.41,60.75,13.67,13.06,15.49,36.5,1.52,51.85C147.65,147.19,123,133.69,112.11,144,105.12,150.09,68.6,175.93,49.84,147Z"/><path class="cls-17" d="M52.12,81.47s11.93-49.95,25.19-50.7c10.7-.6,25.19,50.7,25.19,50.7C86.86,77.1,65.71,73.66,52.12,81.47Z"/><path class="cls-3" d="M78,170.51c-8.76,0-16.85-3.73-24-11.11-2.13-.53-41.48-10.61-50.26-35.21C-.57,112.29,2.9,98.88,14,84.33c-1.75-9.11.25-38,15.6-56.73,9-11,21-16.63,35.67-16.63a61.86,61.86,0,0,1,8,.54,32.54,32.54,0,0,0,4.16.28c5.86,0,10.72-1.7,16.34-3.66,3-1,6-2.09,9.45-3l.4-.09a68.7,68.7,0,0,1,14-1.48A61.39,61.39,0,0,1,153.55,14.9c15.21,10.67,27.11,28.58,35.37,53.24,12.93,12.4,22.49,40,3.31,62.63-15.39,15.95-40.41,19.17-60.52,21.76-12.09,1.56-22.54,2.9-26.68,6.82C102,162,91.16,170.51,78,170.51ZM65.25,11.58C50.82,11.58,39,17.1,30.05,28,14.75,46.65,12.82,75.47,14.6,84.34l0,.14-.09.11C3.53,99,.06,112.26,4.25,124c8.87,24.86,49.5,34.75,49.91,34.85l.09,0,.06.07c7.09,7.29,15,11,23.67,11,13,0,23.67-8.43,26.64-11,4.28-4.05,14.31-5.34,27-7,20-2.58,44.91-5.79,60.14-21.57,18.94-22.35,9.45-49.62-3.34-61.84l-.05,0,0-.07C170.6,15.32,140.09,4.18,117.62,4.18a67.78,67.78,0,0,0-13.88,1.47l-.38.08c-3.42.9-6.45,1.95-9.39,3-5.67,2-10.58,3.69-16.54,3.69a32.14,32.14,0,0,1-4.24-.29A62.27,62.27,0,0,0,65.25,11.58Z"/><path class="cls-3" d="M57.06,162.33C53.18,159.4,48.29,149,48.29,149s5.36,10,9.14,12.88Z"/><path class="cls-3" d="M105,159.37l-.37-.48c13.33-10.09,17.58-9.49,17.58-9.49C115.66,151.18,105.11,159.29,105,159.37Z"/><path class="cls-18" d="M49.84,137s12.76,30.52,27,25.13,24.31-20.87,31.59-40.32C85.68,126,49.84,137,49.84,137Z"/><path class="cls-19" d="M71.63,130.36c-13,3.56-21.79,6.59-21.79,6.59s8.34,19.94,19.08,24.74C66.5,150.87,63.62,143.54,71.63,130.36Z"/><path class="cls-20" d="M79.15,146.67c-10.67-1.2-15.17,5-17.05,9.89,4.32,4.54,9.44,7.54,14.77,5.52,7.59-2.86,14-8.58,19.4-16.23C91.6,144.36,85.38,142.24,79.15,146.67Z"/><path class="cls-21" d="M74.55,154.38c-.11-8-10.57-2.71-12.45,2.18,4.32,4.54,9.44,7.54,14.77,5.52,7.59-2.86,10.65-6.44,15.61-11.39C93,146.67,82.49,143.54,74.55,154.38Z"/><path class="cls-22" d="M73.44,163h0c-3.72,0-7.61-2.11-11.56-6.26l-.13-.14.07-.18c1.79-4.67,5.81-10.23,14.73-10.23a24.39,24.39,0,0,1,2.52.14,14.06,14.06,0,0,1,8.32-2.65,28.4,28.4,0,0,1,8.67,1.75l.7.22-.24.34c-5.75,8.13-12.33,13.63-19.54,16.35A10.13,10.13,0,0,1,73.44,163Zm-11-6.54c3.79,3.93,7.48,5.93,11,5.93h0a9.44,9.44,0,0,0,3.33-.62c7-2.64,13.39-8,19-15.79a27.61,27.61,0,0,0-8.39-1.69,13.46,13.46,0,0,0-8.06,2.6l-.1.07-.11,0a25.5,25.5,0,0,0-2.57-.14C68.08,146.83,64.21,152,62.45,156.49Z"/><path class="cls-22" d="M85.07,143.89l.18.59c-.12,0-8.38.14-10.81,11.09C74.44,155.57,74.44,145.31,85.07,143.89Z"/><path class="cls-3" d="M73.44,163h0c-12.88,0-23.44-24.9-23.88-26l-.13-.31.32-.1c.36-.11,36.12-11,58.66-15.19l.53-.1-.19.5C100.37,144.22,90,157.46,77,162.37A10.13,10.13,0,0,1,73.44,163ZM50.25,137.14c1.28,2.92,11.46,25.28,23.19,25.28h0a9.44,9.44,0,0,0,3.33-.62c12.55-4.74,23-18.07,31.22-39.64C86.62,126.21,53.87,136.05,50.25,137.14Z"/><path class="cls-3" d="M33.74,36.41s16.1-10.93,25.67-12.15C56.22,19.1,47.41,15.45,33.74,36.41Z"/><path class="cls-3" d="M135.2,39.15s-11-17.41-21-18.88C119.7,16.06,130.94,16.69,135.2,39.15Z"/><path class="cls-23" d="M185.31,97.44c0,5.55-2.51,10-5.61,10s-5.63-4.5-5.63-10,2.52-10,5.63-10S185.31,91.89,185.31,97.44Z"/><path class="cls-23" d="M192.56,83.55c.42,3-.86,5.64-2.86,5.91s-3.94-1.93-4.35-4.92.87-5.64,2.86-5.92S192.15,80.55,192.56,83.55Z"/><path class="cls-23" d="M195.64,99.74c0,2.1-1.36,3.8-3,3.8s-3-1.7-3-3.8,1.36-3.79,3-3.79S195.64,97.65,195.64,99.74Z"/><path class="cls-23" d="M191.09,112c0,2.48-1.3,4.5-2.89,4.5s-2.89-2-2.89-4.5,1.3-4.5,2.89-4.5S191.09,109.5,191.09,112Z"/><path class="cls-12" d="M302,291.2S285.85,332,236,331.05c-29.77,3.95-34.93,10.33-63.79,1.82-7-.3-35.54-3.34-48.9-27.64-11.24-9.41-19.74-29.46-13.67-41,3.64-7,38-17.93,72.9,22.78C199.89,301.89,302,291.2,302,291.2Z"/><path class="cls-13" d="M302,291.2s-18.6,37.24-59.32,33.15c-29.77,3.95-53.83,9.43-82.68.93-7-.3-16-1.82-27.6-17-11.24-9.42-24.48-31.49-18.41-43,3.79-8.17,36.44-15.6,68.64,21.77C199.89,301.89,302,291.2,302,291.2Z"/><path class="cls-14" d="M229.31,321.62q5.56-.83,11.12-1.63a34.92,34.92,0,0,0,7.4-8.8c-8-1.81-16.27-2.3-24.26-4.18A72.69,72.69,0,0,1,229.31,321.62Z"/><path class="cls-14" d="M274.32,310.78c-7.21,0-12.1,2.55-19.23,1.31a59.58,59.58,0,0,1-3.69,7.74,48.1,48.1,0,0,0,26.45-6.19C277.62,311.85,276.61,310.78,274.32,310.78Z"/><path class="cls-24" d="M196.56,337.38c-7,0-14.47-1.29-24.36-4.21-5.88-.26-35.35-2.82-49.09-27.74-11.38-9.57-19.83-29.69-13.7-41.35,1.78-3.41,9.67-6.94,19.79-6.94,10.51,0,31.45,3.85,53.61,29.67,6,5.17,23.19,7.8,51,7.8h0c32.28,0,67.75-3.68,68.1-3.71l.5,0-.18.46a66.56,66.56,0,0,1-14,20c-9.17,9.13-25.38,20-50.55,20h0l-1.64,0c-8.05,1.08-14.27,2.32-19.76,3.42C209,336.23,203.18,337.38,196.56,337.38ZM129.2,257.74c-10.9,0-17.82,3.88-19.25,6.62-6,11.43,2.37,31.23,13.59,40.64l.07.09c13.61,24.73,42.92,27.23,48.65,27.48h.08c9.84,2.9,17.31,4.2,24.22,4.2,6.56,0,12.31-1.16,19.59-2.61,5.5-1.1,11.73-2.34,19.85-3.42h1.68c25,0,41-10.79,50.12-19.85a67.29,67.29,0,0,0,13.68-19.36c-4.49.46-37.47,3.67-67.66,3.67h0c-28,0-45.27-2.69-51.43-8C160.35,261.57,139.61,257.74,129.2,257.74Z"/><path class="cls-25" d="M168.61,278.2c12.66,12.46,20,13.93,23.84,13.2-4.34-1.12-7.74-2.57-9.87-4.39-34.93-40.71-69.26-29.77-72.9-22.78a17,17,0,0,0-1.61,4.64C130.4,252.18,156.55,268.44,168.61,278.2Z"/><path class="cls-24" d="M190.76,291.86c-4,0-11.08-2.34-22.36-13.45-7.57-6.13-22.73-16.44-38.91-16.44a34.77,34.77,0,0,0-21.24,7.14l-.63.48.15-.78a18,18,0,0,1,1.64-4.73c1.78-3.41,9.67-6.94,19.79-6.94,10.51,0,31.45,3.85,53.61,29.67,2,1.68,5.24,3.14,9.72,4.3l1.3.34-1.32.25A9.9,9.9,0,0,1,190.76,291.86Zm-61.27-30.49c16.36,0,31.66,10.39,39.32,16.59,11.15,11,18.09,13.29,21.95,13.29h0a23.07,23.07,0,0,1-8.39-4c-22-25.67-42.77-29.5-53.18-29.5-10.9,0-17.82,3.88-19.25,6.62a16.13,16.13,0,0,0-1.41,3.79A35.31,35.31,0,0,1,129.49,261.37Z"/><path class="cls-24" d="M164.47,311.08a49.54,49.54,0,0,1-18.11-3.39c-11.6,5.36-23.83-2.8-24-2.88l.35-.5c.12.08,12.15,8.1,23.48,2.77l.12-.05.12.05a49,49,0,0,0,22.92,3.12c11.94-1.35,21.25-7.37,27.68-17.89l.52.31c-6.54,10.7-16,16.82-28.13,18.18A44.45,44.45,0,0,1,164.47,311.08Z"/><path class="cls-24" d="M233.24,331.73l-.27-.54a42.23,42.23,0,0,0,21-36.69h.6A42.79,42.79,0,0,1,233.24,331.73Z"/><path class="cls-24" d="M172.13,333.15c-26.4-11.55-33-45.3-33-45.3.08.34,8.16,33.7,33.23,44.75Z"/><path class="cls-7" d="M168.31,242.05s-7.19-17.72,3.94-27,22.48-18.63,27.75-19.85c11.34,4.46,30.78,9.76,34.83,27.36s10.26,37,3.11,63.53C222.68,285.49,168.31,242.05,168.31,242.05Z"/><path class="cls-8" d="M236.5,269.53c2.15-19.48-1.28-32.35-4.56-46.62-4.05-17.59-20.6-23.28-31.94-27.74-5.27,1.22-16.61,10.53-27.75,19.85s-3.94,27-3.94,27,16.72,13.36,34.22,25.36C215.36,264.91,224.71,262.86,236.5,269.53Z"/><path class="cls-9" d="M231.94,265.24c2.14-19.48.3-28.22-3-42.48-4-17.59-17.47-19.69-28.81-24.15-5.26,1.22-14,8.67-25.15,18s-6.68,25.46-6.68,25.46,13.63,10.84,31.13,22.84C212.27,262.38,220.14,258.57,231.94,265.24Z"/><path class="cls-11" d="M238.16,286.38h-.24c-15.18-.58-67.58-42.3-69.8-44.08l-.06,0,0-.07c-.08-.19-7.15-18,4-27.39,12.18-10.18,22.68-18.71,27.87-19.9l.09,0,.09,0c1.21.48,2.52,1,3.89,1.47,11.59,4.32,27.47,10.23,31.12,26.1.42,1.82.86,3.65,1.31,5.51,3.86,16.07,8.24,34.28,1.8,58.17Zm-69.6-44.51c2.13,1.69,54.07,42.88,69.14,43.88,6.31-23.63,2-41.7-1.86-57.64q-.68-2.79-1.31-5.51c-3.58-15.55-19.28-21.4-30.74-25.67-1.34-.5-2.63-1-3.82-1.44-5.09,1.25-15.92,10.06-27.52,19.76C162,224,168.08,240.62,168.56,241.87Z"/><path class="cls-8" d="M180.15,237.28s-.41-17.2,0-18c5.26-3.44,19.85-14.58,21.06-15,5.27,2,23.09,9.92,25.92,14.17,1.42,8.71,1.82,39.85,1.82,45.74C223.89,263.41,194.93,255.71,180.15,237.28Z"/><path class="cls-10" d="M182.28,234.56s-.41-12.35,0-13.17c5.26-3.44,18.1-14.13,19.32-14.54,5.26,2,20.36,8.7,23.19,13,1.42,8.71,2.41,36.14,2.41,42C222.14,261.05,193.83,253.74,182.28,234.56Z"/><path class="cls-8" d="M223.08,255.92s-38.88-5.06-34.83-31.79c3.45-3.64,9.72-9.52,13-10.93,4,1.41,18.43,7.49,18.63,12.14S221.87,251.67,223.08,255.92Z"/><path class="cls-9" d="M220.4,252.07s-32.45-3.41-29.47-26.7c3.45-3.64,7.43-8.83,10.67-10.25,4.05,1.42,16.77,7.63,17,12.29S219.18,247.82,220.4,252.07Z"/><path class="cls-8" d="M197.33,228.79l5.45-4.66a66.11,66.11,0,0,1,10.58,8.1c-.81,5.06-2.23,13.67-2.23,13.67-3.44-.71-9.92-1.52-12.15-4.35S197.33,228.79,197.33,228.79Z"/><path class="cls-10" d="M199,229.8l4.25-3.73c5.52,3.24,7.75,6.28,7.75,6.28-.81,5.06-1.82,11.17-1.82,11.17-3.44-.72-6.79-.86-9-3.7S199,229.8,199,229.8Z"/><path class="cls-8" d="M239.89,222.1s12.35-13.16,15.19-14c4.86.41,21.66,2,25.31,14s3.84,40.24,1,42.3c-4.25.84-27.13.84-30,.84C245.76,264.2,239.89,222.1,239.89,222.1Z"/><path class="cls-10" d="M243.05,223.22s9.84-11,12.68-11.85c4.86.41,18.43-.56,22.08,11.39s2.87,37.59,0,39.64c-4.26.84-22.72.2-25.56.2C246.62,261.57,243.05,223.22,243.05,223.22Z"/><path class="cls-8" d="M254.25,260.18l21.68-1.42c-.4-8.91-2.46-29.88-6.7-32.56s-13.75-6.73-13.75-6.73c-5.27,4.66-8.71,7.49-8.1,11.75S249.78,259,254.25,260.18Z"/><path class="cls-9" d="M255.18,257.44l18.37-1.52c-.4-8.91-.07-24.71-4.31-27.39s-13.51-7.14-13.51-7.14c-5.27,4.66-6.93,6.71-6.32,11S250.71,256.23,255.18,257.44Z"/><path class="cls-8" d="M256.49,236.69s-.2,14.58,4.25,14.58,7.29,0,7.29-1.63S267.84,235,263.18,235,256.47,235.06,256.49,236.69Z"/><path class="cls-10" d="M258.06,239.42s-1.09,9.77,3.36,9.77,5,.41,5-1.22,1.48-10.92-3.18-10.87S258.05,237.79,258.06,239.42Z"/><path class="cls-8" d="M158.28,162.08s-15.39,4.87-21.67,20.34c-.2,8.7,2.53,19.84,5.11,24.09,6.64,4.46,17.17,8.3,19.6,8.51,4.86-6.28,23.33-25.92,23.71-30.78C181.16,177.35,171.24,167.47,158.28,162.08Z"/><path class="cls-10" d="M158.38,164.85s-12.81,2.53-19.08,18c-.21,8.7,2,17.18,4.55,21.44,6.63,4.45,14.23,7.49,16.66,7.69,4.86-6.28,21.2-23.52,21.59-28.38C178.23,176.71,171.34,170.24,158.38,164.85Z"/><path class="cls-8" d="M156.46,170.21s15.79,7.95,17.61,12c-3.64,7.5-11.52,21.06-13.75,22.08-5.68-.61-14-4.46-14-4.46-2.65-6.89-3.46-17-3.66-17.62C145.73,178.57,156.46,170.21,156.46,170.21Z"/><path class="cls-9" d="M156.86,172.34s12.35,5.82,14.18,9.87c-3.65,7.5-8.49,18.61-10.72,19.63-5.68-.61-11.91-4.29-11.91-4.29a93.53,93.53,0,0,1-4-14.7C147.47,179.21,156.86,172.34,156.86,172.34Z"/><path class="cls-8" d="M157.47,179.38l-7.21,3a105.67,105.67,0,0,0,.76,11.33c4-1.62,4.84-2.63,9.8-2.83C161.52,184.85,160.32,178.57,157.47,179.38Z"/><path class="cls-10" d="M157.74,180.69l-5.91,2.16c.32,8.91,0,7.87,0,7.87,4-1.62,2.64-1.32,7.59-1.52C160.12,183.12,160.58,179.88,157.74,180.69Z"/><path class="cls-2" d="M270.67,301.62s14.88,13.94,19.44,31.25c-2.43,4.56-10.33,16.1,19.29,12.15,12-2.49,27.88-5.23,26.27-21.29-1.21-11.51-14.58-34.41-28.75-35.81C288.59,294,270.67,301.62,270.67,301.62Z"/><path class="cls-15" d="M318.06,322.24c-1.1-7.62-1.53-12.06-5.88-16.67-4.15-2.92-7.93-2.23-17.82,0-2.43.61-5.47,2.43-7.9,3a17.68,17.68,0,0,1-9.35.18c4.61,5.72,10.44,14.39,13,24.12-2.43,4.56,2.62,5.47,16.88,4.24C319,334.61,319.42,331.73,318.06,322.24Z"/><path class="cls-16" d="M315.19,322.24c-1.1-7.62-.48-10.62-4.84-15.23-4.14-2.92-5-2.32-14.93-.12-2.43.61-5.79,2.13-8.22,2.74-2.74.78-2.94,1.74-6.05.86,4.61,5.72,8.37,11,10.93,20.74-2.43,4.56.17,3.41,14.43,2.18C318.56,330.91,316.56,331.73,315.19,322.24Z"/><path class="cls-3" d="M298.92,346.13h0c-6.18,0-9.88-1.15-11.28-3.54-1.67-2.83.4-6.6,1.78-9.09.13-.23.25-.46.37-.66-4.52-17-19.18-30.86-19.33-31l-.34-.32.43-.18c.18-.08,18.14-7.7,36.27-13.71l.06,0H307c14.46,1.43,27.84,24.88,29,36.07,1.58,15.85-13.39,18.93-25.42,21.4l-1.1.23A81.83,81.83,0,0,1,298.92,346.13Zm-27.71-44.41c2.24,2.2,15.05,15.32,19.19,31.08l0,.11-.05.11-.43.77c-1.31,2.38-3.28,6-1.79,8.49,1.27,2.16,4.89,3.25,10.76,3.25h0a80.31,80.31,0,0,0,10.44-.81l1.08-.22c11.79-2.43,26.46-5.44,24.93-20.74-1.16-11-14.26-34.06-28.42-35.53C290.41,293.71,274,300.54,271.21,301.72Z"/><path class="cls-2" d="M179.58,283.19s-14.92,9.28,3.91,57c-2.73,6.69-12.45,20.66,17.92,21.57,14.89-.31,27-3.64,28.86-13.36.3-11.85-.32-43.35-30.38-69.26Z"/><path class="cls-15" d="M200.2,294.5c-15.37-2.34-20.62-11.31-20.62-11.31s-14.92,9.28,3.91,57c-2.73,6.69,1.54,9.89,19.28,10.91C220.55,351.07,218.91,317.45,200.2,294.5Z"/><path class="cls-16" d="M198.38,297.26c-15.37-2.33-18.68-11.11-18.68-11.11s-11.4,8.35,6.54,53.56c-2.73,6.68,1.71,8.21,16,8.21C216.9,347.92,217.09,320.21,198.38,297.26Z"/><path class="cls-3" d="M201.42,362c-11.43-.35-18.22-2.51-20.76-6.63s-.15-9.42,1.62-13.26c.32-.71.63-1.38.88-2-9.71-24.63-10.14-39-8.79-46.79,1.48-8.5,5.77-10.67,5.77-10.67s-14.86,10.52,3.63,57.35l0,.11,0,.12c-.26.65-.59,1.36-.94,2.12-1.72,3.72-4.06,8.81-1.66,12.69s9.21,6,20.25,6.33c17.38-.35,27-4.76,28.55-13.11.71-27.82-9.47-51-30.27-69l.39-.46c20.95,18.06,31.2,41.44,30.48,69.49C228.94,357.09,219.14,361.67,201.42,362Z"/><path class="cls-3" d="M124.76,344.85c-6.08-4.8-10.07-4.09-10.11-4.08s4.16-1.39,10.49,3.6Z"/><path class="cls-23" d="M103.73,307.08c-1,3.85-4.08,6.39-6.85,5.66s-4.19-4.44-3.18-8.29,4.08-6.39,6.85-5.66S104.74,303.23,103.73,307.08Z"/><path class="cls-23" d="M111.5,316.21c0,3.33-1.7,6-3.8,6s-3.8-2.7-3.8-6,1.7-6,3.8-6S111.5,312.88,111.5,316.21Z"/><path class="cls-23" d="M97.94,321.6a5.07,5.07,0,1,1-5.06-5.39A5.23,5.23,0,0,1,97.94,321.6Z"/><path class="cls-23" d="M103.9,332.05c0,2.79-1.9,5.06-4.24,5.06s-4.24-2.27-4.24-5.06,1.9-5.06,4.24-5.06S103.9,329.25,103.9,332.05Z"/><path class="cls-23" d="M108.77,345.6c0,2.87-1.29,5.2-2.88,5.2s-2.89-2.33-2.89-5.2,1.29-5.19,2.89-5.19S108.77,342.74,108.77,345.6Z"/><path class="cls-23" d="M92.88,335.28c0,2.84-1.41,5.13-3.14,5.13s-3.14-2.29-3.14-5.13,1.4-5.14,3.14-5.14S92.88,332.44,92.88,335.28Z"/><path class="cls-23" d="M100.9,345.6c0,2.87-1.65,5.2-3.68,5.2s-3.69-2.33-3.69-5.2,1.65-5.19,3.69-5.19S100.9,342.74,100.9,345.6Z"/><path class="cls-23" d="M185,301.38c0,3.81-1.64,6.89-3.65,6.89s-3.66-3.08-3.66-6.89,1.64-6.88,3.66-6.88S185,297.58,185,301.38Z"/><path class="cls-23" d="M192.45,310.87c0,2.95-1,5.34-2.25,5.34s-2.25-2.39-2.25-5.34,1-5.35,2.25-5.35S192.45,307.91,192.45,310.87Z"/><path class="cls-23" d="M197.33,325.28c0,2.68-1.6,4.86-3.56,4.86s-3.57-2.18-3.57-4.86,1.6-4.86,3.57-4.86S197.33,322.59,197.33,325.28Z"/><path class="cls-23" d="M194.27,338.9c0,2-.9,3.61-2,3.61s-2-1.62-2-3.61.91-3.62,2-3.62S194.27,336.9,194.27,338.9Z"/><path class="cls-23" d="M189.6,328.77c0,2.94-1.51,5.32-3.36,5.32s-3.35-2.38-3.35-5.32,1.5-5.31,3.35-5.31S189.6,325.84,189.6,328.77Z"/><path class="cls-23" d="M186.24,317.12c0,3.5-1.91,6.34-4.26,6.34s-4.26-2.84-4.26-6.34,1.91-6.34,4.26-6.34S186.24,313.62,186.24,317.12Z"/><path class="cls-23" d="M316.49,313.76c.66,4.9-1.23,9.21-4.22,9.62s-6-3.25-6.62-8.16,1.22-9.21,4.22-9.62S315.82,308.85,316.49,313.76Z"/><path class="cls-23" d="M322.3,306.89c0,1.94-1.29,3.5-2.88,3.5s-2.89-1.56-2.89-3.5,1.3-3.5,2.89-3.5S322.3,305,322.3,306.89Z"/><path class="cls-23" d="M324.43,319.2c0,2.35-1.12,4.26-2.5,4.26s-2.51-1.91-2.51-4.26,1.12-4.25,2.51-4.25S324.43,316.86,324.43,319.2Z"/><path class="cls-23" d="M305.6,322.24c0,1.68-.82,3-1.82,3s-1.83-1.36-1.83-3,.82-3,1.83-3S305.6,320.56,305.6,322.24Z"/><path class="cls-4" d="M287.2,348.52s12.33-1.37,11-6.23S290.07,333.78,287.2,348.52Z"/><path class="cls-5" d="M287.2,348.52s8.66-3.95,8.53-6.93C295.51,336.55,289.81,337.11,287.2,348.52Z"/><path class="cls-6" d="M286.82,348.87l.08-.41c1.82-9.34,5-10.74,6.79-10.74,2.3,0,4.13,2.26,4.76,4.49a2.78,2.78,0,0,1-.4,2.42c-2.14,3.19-10.46,4.15-10.81,4.19Zm6.87-10.54c-2.61,0-4.83,3.57-6.11,9.83,1.72-.24,8.24-1.29,10-3.86a2.22,2.22,0,0,0,.32-1.93C297.22,340.07,295.42,338.33,293.69,338.33Z"/><path class="cls-4" d="M303.23,352.31s11.78-7,7.84-12S299.18,338.79,303.23,352.31Z"/><path class="cls-5" d="M303.23,352.31s7.33-7.22,5.1-11.24C305.24,335.49,300.44,341.07,303.23,352.31Z"/><path class="cls-6" d="M303.05,352.77l-.12-.37c-2.23-7.46-.67-11.1.45-12.61a4.55,4.55,0,0,1,3.68-2,5.54,5.54,0,0,1,4.25,2.3,3.88,3.88,0,0,1,.8,3.23c-.84,4.5-8.41,9-8.73,9.21Zm4-14.33a4,4,0,0,0-3.2,1.71c-1.74,2.36-1.91,6.6-.45,11.7,1.48-.94,7.41-4.89,8.1-8.6a3.26,3.26,0,0,0-.68-2.75A4.93,4.93,0,0,0,307.06,338.44Z"/><path class="cls-4" d="M318.36,348.52s8.32-10.1,3.94-12C317.75,334.54,311.22,338.19,318.36,348.52Z"/><path class="cls-5" d="M318.36,348.52s4.83-9,2.16-10.18C316,336.38,312.18,339.1,318.36,348.52Z"/><path class="cls-6" d="M318.34,349l-.23-.33c-3-4.34-3.95-8.09-2.66-10.55a4.81,4.81,0,0,1,4.4-2.44,6.63,6.63,0,0,1,2.58.54,2.25,2.25,0,0,1,1.37,1.6c.84,3.48-5,10.57-5.21,10.87Zm1.51-12.71a4.21,4.21,0,0,0-3.86,2.11c-.67,1.28-1.23,4.21,2.39,9.58,1.11-1.41,5.5-7.22,4.83-10a1.64,1.64,0,0,0-1-1.18A5.78,5.78,0,0,0,319.85,336.31Z"/><path class="cls-4" d="M205.82,364.77s9.87-3.95,9.26-8.2-5.92-4.41-7.44-3.35S205.82,364.77,205.82,364.77Z"/><path class="cls-5" d="M206,361.22s7.45-.4,6.85-4.65-3.7-4.41-5.22-3.35S206,361.22,206,361.22Z"/><path class="cls-6" d="M205.5,365.22v-.46c0-1.09.36-10.67,2-11.79s7.28-.92,7.91,3.55-9,8.37-9.45,8.53ZM210,353a4.11,4.11,0,0,0-2.15.5c-1,.69-1.54,6.81-1.68,10.83,1.87-.81,9.14-4.21,8.64-7.69C214.4,353.93,212,353,210,353Z"/><path class="cls-4" d="M189.6,366s13.94-2.38,13.63-7.26-4.51-8.84-9.46-6.41S189.17,364.61,189.6,366Z"/><path class="cls-5" d="M189.6,362.1s11.81.37,11.51-4.52-3.52-7.53-7.34-5.27C189.8,354.66,189.17,360.73,189.6,362.1Z"/><path class="cls-6" d="M189.39,366.32l-.08-.25c-.39-1.24-.9-11.47,4.32-14a7.07,7.07,0,0,1,3.12-.77c3.61,0,6.53,3.2,6.79,7.43.31,5.1-13.31,7.48-13.89,7.58Zm7.36-14.44a6.57,6.57,0,0,0-2.85.7c-4.55,2.23-4.4,11.13-4.07,13.05-4.19.79,13.42-1.74,13.1-6.89C202.69,354.83,200,351.88,196.75,351.88Z"/><path class="cls-4" d="M174.1,361.73s19.17-3.45,15.27-10.16S175.18,348.21,174.1,361.73Z"/><path class="cls-5" d="M174.79,357.58s13.62-.87,12.35-5.27C185,344.86,177,348.87,174.79,357.58Z"/><path class="cls-6" d="M173.76,362.1l0-.4c.72-9,5.64-13.78,10.13-13.78a6.57,6.57,0,0,1,5.7,3.5,3.48,3.48,0,0,1,.24,3.35c-2.2,4.78-15.16,7.16-15.72,7.26Zm10.17-13.57c-4.14,0-8.69,4.4-9.49,12.82,2.2-.44,13-2.78,14.88-6.83a2.86,2.86,0,0,0-.21-2.79A5.94,5.94,0,0,0,183.93,348.53Z"/><path class="cls-4" d="M90.7,357l9,10c2.88-2.44,4.76-9.88,1.24-12.61S91.93,354,90.7,357Z"/><path class="cls-5" d="M90.7,357l7.24,7.75c2.89-2.43,2.17-8.2.78-9.76C95.74,351.69,91.8,355,90.7,357Z"/><path class="cls-6" d="M99.63,367.47l-9.29-10.39.08-.18c.92-2.23,3.91-4,6.8-4a6.23,6.23,0,0,1,3.87,1.28,5.93,5.93,0,0,1,2,4.76c.06,3.12-1.34,6.69-3.26,8.32ZM91.05,357l8.63,9.66a11.28,11.28,0,0,0,2.83-7.64,5.45,5.45,0,0,0-1.8-4.3,5.63,5.63,0,0,0-3.49-1.15C94.68,353.53,92,355.06,91.05,357Z"/><path class="cls-4" d="M104.05,355l8.52,12.07c2.73-3.5,4.06-10.33,2-12.76S108.3,351.26,104.05,355Z"/><path class="cls-5" d="M104.05,355l6.3,8.4c3-.44,4.09-5.94,2.06-8.37S108.3,351.26,104.05,355Z"/><path class="cls-6" d="M112.55,367.55l-8.9-12.62.2-.18A9.82,9.82,0,0,1,110.2,352a6,6,0,0,1,4.63,2.07c2.19,2.63.72,9.63-2,13.14ZM104.46,355l8.11,11.5c2.62-3.64,3.58-9.91,1.79-12a5.39,5.39,0,0,0-4.16-1.85A9,9,0,0,0,104.46,355Z"/><path class="cls-4" d="M117.73,353.22l8.35,9.72c1.83-1.67,3.65-9.56,0-12.14S117.73,353.22,117.73,353.22Z"/><path class="cls-5" d="M117.73,353.22l6.58,7.66c1.82-1.67,3.6-5.53.83-8.55C122.13,349,117.73,353.22,117.73,353.22Z"/><path class="cls-6" d="M126.06,363.38l-8.74-10.16.19-.2c.12-.14,3.1-3.27,6.25-3.27a4.25,4.25,0,0,1,2.5.8,6,6,0,0,1,2.21,4.77c.2,3.26-1,6.75-2.18,7.85Zm-7.92-10.14,8,9.25c1-1.21,1.94-4.38,1.77-7.14a5.63,5.63,0,0,0-2-4.31,3.68,3.68,0,0,0-2.15-.68C121.3,350.36,118.84,352.57,118.14,353.24Z"/><path class="cls-10" d="M141.57,215s34.63,22.78,43.74,34c4.26.6,14.89,1.77,26.74,17.59,7,1.24,21.65,3.67,31.63,12.78,4.51-4,27.9-8.81,43.39-1.82,3.34-5.69,20.35-12.47,27.15-13.33,8.08-.95,22.82,9.84,19.63,15.15-4.56,6.68-28.28,22.55-37.83,22.21-12.9,4.53-27.78,12.72-54.51,6-12.76-.91-28.31-4.21-38.73-17.92-12.3-5.47-26-15.84-28.1-23.11-5.47-2.1-24.23-18.2-24.42-26.1C146.43,232.63,141.57,215,141.57,215Z"/><path class="cls-11" d="M260.76,310.49A79.2,79.2,0,0,1,241.43,308c-11.38-.81-27.85-3.57-38.85-18-11.77-5.25-25.79-15.54-28.15-23.13-6-2.46-24.19-18.3-24.47-26.25-3.79-7.86-8.63-25.34-8.68-25.51l-.21-.78.67.44c.35.23,34.58,22.81,43.73,34l.19,0c4.47.63,14.93,2.11,26.56,17.57l.34.06c6.93,1.23,21.3,3.77,31.13,12.6,3.25-2.57,13.64-5.26,24.42-5.26A47.22,47.22,0,0,1,287,277.21c3.72-5.76,20.4-12.39,27.24-13.25a9.38,9.38,0,0,1,1.08-.06c6.6,0,15.64,6,18.42,10.89,1,1.84,1.19,3.5.42,4.78-4.84,7.09-28.53,22.64-38.05,22.36-1.67.58-3.35,1.22-5.13,1.9C282.73,307,273.43,310.49,260.76,310.49ZM142.09,215.72c1,3.51,5.13,17.84,8.45,24.68l0,.12c.17,7.61,18.57,23.66,24.22,25.83l.14,0,0,.15c2.17,7.45,16.19,17.7,27.92,22.91l.07,0,0,.07c10.85,14.26,27.18,17,38.52,17.8a78.71,78.71,0,0,0,19.23,2.52c12.55,0,21.8-3.51,30-6.62,1.8-.68,3.5-1.33,5.19-1.93H296c9.11.34,32.92-15.26,37.57-22.08.65-1.08.5-2.48-.44-4.16-2.64-4.66-11.59-10.57-17.89-10.57a8.19,8.19,0,0,0-1,.06c-6.65.84-23.66,7.61-26.93,13.17l-.13.24-.26-.11c-5.08-2.3-11.6-3.51-18.83-3.51-10.88,0-21.31,2.73-24.23,5.28l-.21.18-.19-.18c-9.7-8.86-24.11-11.41-31-12.63l-.58-.1-.07-.09C200.3,251.46,190,250,185.57,249.38l-.41-.06-.08-.09C176.8,239,147,219,142.09,215.72Z"/><path class="cls-7" d="M160.32,227.41a76.62,76.62,0,0,1-8.74,9.87c7.59,13.91,19.6,25.74,24.62,27.1l0,0c5.68-6.71,7.93-12.32,8.81-15.74C180,242.08,169.68,234,160.32,227.41Z"/><path class="cls-8" d="M178.26,261.84A38.06,38.06,0,0,0,185,248.66c-5-6.58-15.35-14.66-24.71-21.25a91.26,91.26,0,0,1-6.44,7.62C160.79,245.12,167.36,256.71,178.26,261.84Z"/><path class="cls-9" d="M177.72,257.44c4.19-5.57,3.78-5.8,4.56-8.78-5-6.58-12.1-11.56-21.46-18.15a33.25,33.25,0,0,1-3.91,4.61C163.82,245.2,166.82,252.31,177.72,257.44Z"/><path class="cls-11" d="M176.2,264.89l-.18-.25c-5.44-1.58-17.35-13.72-24.7-27.21l-.12-.21.18-.16a76,76,0,0,0,8.69-9.84l.18-.23.24.17c12.28,8.65,20.62,15.82,24.79,21.32l.08.12,0,.14c-.92,3.53-3.2,9.15-8.88,15.85ZM152,237.35c7.15,13,18.93,25.1,24.15,26.69,5.43-6.45,7.66-11.86,8.58-15.31-4.13-5.4-12.31-12.43-24.32-20.9A78.28,78.28,0,0,1,152,237.35Z"/><path class="cls-7" d="M212.33,266.68l-.28-.05c-11.85-15.82-22.48-17-26.74-17.59l-.28-.38c-.88,3.42-3.13,9-8.81,15.74,2.76,3.82,15.58,18.13,27.08,21.66C209.27,280.37,211.51,271.74,212.33,266.68Z"/><path class="cls-8" d="M212.05,266.63c-11.85-15.82-22.48-17-26.74-17.59l-.28-.38a38.12,38.12,0,0,1-6.76,13.16c5.59,7.21,17.66,15.06,27.08,22,4.45-5.54,6.26-12.72,7-17.15Z"/><path class="cls-9" d="M209.16,268c-11.85-15.82-22.83-15.75-22.92-15.88-.77,3-.68,4.2-4.86,9.77,5.58,7.2,12.83,10.32,22.25,17.27A26.79,26.79,0,0,0,209.16,268Z"/><path class="cls-11" d="M203.38,286.41l-.17-.05C191,282.6,178,267.41,176,264.58l-.14-.2.16-.18c5.6-6.61,7.85-12.14,8.75-15.61l.16-.61.58.77.18,0c4.47.63,14.93,2.11,26.56,17.57l.46.09-.05.29c-.78,4.8-3,13.72-9.12,19.56Zm-26.78-22c3.37,4.55,15.81,17.9,26.62,21.31,5.76-5.59,8-14,8.77-18.79l-.12,0-.07-.09C200.3,251.46,190,250,185.57,249.38l-.4-.06C184.17,252.84,181.87,258.14,176.6,264.41Z"/><path class="cls-7" d="M160.32,227.41c-9.19-6.47-17.4-11.5-18.6-12.29a172.42,172.42,0,0,0,9.83,22.1l0,.06A76.62,76.62,0,0,0,160.32,227.41Z"/><path class="cls-8" d="M160.32,227.41c-9.19-6.47-17.4-11.5-18.6-12.29,4.12,9.56,12.5,20,12.51,20C156.49,231.73,158.26,230.12,160.32,227.41Z"/><path class="cls-9" d="M156.91,227c-9.18-6.46-11.28-7.84-12.47-8.63a60.49,60.49,0,0,0,9.44,12.15C156.14,227.12,154.86,229.7,156.91,227Z"/><path class="cls-11" d="M151.5,237.77l-.18-.34.26-.15-.28.12a171.17,171.17,0,0,1-9.86-22.18l-.29-.85.74.5,1.36.86c2.92,1.84,9.77,6.17,17.24,11.43l.26.18-.19.25a77.29,77.29,0,0,1-8.77,9.92Zm-9.2-21.92a173.5,173.5,0,0,0,9.37,21,77.24,77.24,0,0,0,8.21-9.32c-7.36-5.18-14.07-9.42-16.95-11.24Z"/><path class="cls-7" d="M333.5,275.09c-2.89-5.33-13.05-11.56-19.28-10.83-6.72.85-23.4,7.48-27,13.13,3.11,4.05,8.13,11.84,8.22,20l.31-.12C311.09,291.63,318.84,288.6,333.5,275.09Z"/><path class="cls-8" d="M328.08,274.05c-2.89-5.33-8.66-10.74-13.86-9.79-6.66,1.22-23.4,7.48-27,13.13,3.11,4.05,6.84,10.22,7.81,16.05C295.12,293.39,313.42,287.56,328.08,274.05Z"/><path class="cls-9" d="M324.58,274.05c-2.88-5.33-7.4-8.31-12.6-7.37-6.67,1.22-18.42,8.1-21.57,11.47,3.11,4.05,5.26,5.81,6.23,11.64A125.74,125.74,0,0,0,324.58,274.05Z"/><path class="cls-11" d="M295.12,297.83v-.45c-.09-8.1-5.15-15.89-8.16-19.8l-.13-.18.12-.17c3.67-5.74,20.52-12.42,27.24-13.27a9.38,9.38,0,0,1,1.08-.06c6.08,0,15.59,5.68,18.5,11l.11.21-.17.16c-14.44,13.3-22,16.43-37.88,22.24Zm-7.54-20.45c3,4,7.88,11.56,8.14,19.56,15.63-5.73,23.19-8.86,37.4-21.91-2.71-4.7-11.52-10.52-17.85-10.52a8.19,8.19,0,0,0-1,.06C307.71,265.39,291.39,271.81,287.58,277.38Z"/><path class="cls-26" d="M287.07,277.59c-15.49-7-38.88-2.13-43.39,1.82l0,0c1.16,5.87,2.2,15.42-.59,24l.63,0c11.31,1.82,22.36,5.74,51.74-6-.09-8.15-5.11-15.94-8.22-20Z"/><path class="cls-7" d="M287.07,277.59c-15.49-7-38.88-2.13-43.39,1.82l0,0c1.16,5.87,2.2,15.42-.59,24l.63,0c11.31,1.82,22.36,5.74,51.74-6-.09-8.15-5.11-15.94-8.22-20Z"/><path class="cls-8" d="M294.84,292.63c-1.42-6.32-5.14-12-7.64-15.24l-.13.2c-15.49-7-38.88-2.13-43.39,1.82l0,0c1,5.05,1.9,12.83.35,20.37C261.28,301.65,279.75,301,294.84,292.63Z"/><path class="cls-9" d="M289.81,291.72a49.27,49.27,0,0,0-4.26-11.7c-15.49-7-33.73-3.11-38.24.84,0,0,.91,8.85-.64,16.4C264,299.17,274.72,300,289.81,291.72Z"/><path class="cls-11" d="M260.89,305.82a73.47,73.47,0,0,1-13.79-1.51c-1.17-.21-2.32-.42-3.47-.6h-.32l-.68,0,.13-.39c2.71-8.35,1.82-17.58.59-23.85l-.19-.94.53.51c3.26-2.57,13.65-5.26,24.42-5.26A47.45,47.45,0,0,1,287,277.21l.22-.35.26.35c3.06,4,8.19,11.88,8.29,20.17v.21l-.2.07C281.64,303.23,270.63,305.82,260.89,305.82Zm-17.44-2.72h.24c1.19.19,2.34.4,3.51.61a72.63,72.63,0,0,0,13.69,1.51c9.61,0,20.49-2.56,34.23-8-.18-7.8-4.89-15.27-7.89-19.25l0,.05-.26-.11c-5.08-2.3-11.6-3.51-18.83-3.51-10.75,0-21.07,2.66-24.12,5.19C245.19,285.79,246,294.83,243.45,303.1Z"/><path class="cls-7" d="M243.64,279.38c-9.84-9-24.22-11.44-31.31-12.7-.82,5.06-3.06,13.69-9,19.38l.09,0c2.86,4.37,13.88,16.65,39.66,17.3C245.84,294.8,244.8,285.25,243.64,279.38Z"/><path class="cls-8" d="M243.64,279.38c-9.84-9-24.22-11.44-31.31-12.7-.73,4.52-2.61,11.88-7.25,17.47a61.84,61.84,0,0,0,39,15.32C245.51,292,244.62,284.37,243.64,279.38Z"/><path class="cls-9" d="M241.51,280.86c-9.85-9-20.26-10.52-27.34-11.77-.73,4.51-1.43,7.48-6.08,13.06,10.93,9.38,18.35,13.7,33.12,14.12C242.68,288.82,242.49,285.85,241.51,280.86Z"/><path class="cls-11" d="M243.26,303.7H243c-27.29-.68-37.86-14.36-39.85-17.34l-.42-.15.32-.35c6-5.72,8.17-14.49,8.94-19.21l.05-.31.48.09c7,1.23,21.46,3.79,31.29,12.73l.07.07,0,.1c1.25,6.34,2.15,15.69-.61,24.16Zm-39.52-17.63c2,3,12.43,16.27,39.09,17,2.61-8.25,1.74-17.33.53-23.54-9.63-8.73-23.84-11.28-30.78-12.5C211.77,271.84,209.55,280.35,203.74,286.07Z"/><path class="cls-14" d="M115.76,267.2s-6,16.23,18.68,39.81c1.21,1.11,8.09-.39,9.41-1.19-2.12-3.93-6.54-14.19-4.71-20.15,2.28,4.22,6.23,18.63,9.42,19.85,3.65,1.38,15,4.34,23.81,1.49-1.94-8.16-.46-16.38,1.73-19.4C168,281.08,140.06,255.28,115.76,267.2Z"/><path class="cls-14" d="M137.17,310.78a29.51,29.51,0,0,0,18.58,12.68c-4.91-4.86-9.14-10.8-10.08-13.28C144.16,310.7,139.56,312.24,137.17,310.78Z"/><path class="cls-14" d="M150.73,310.87a32.71,32.71,0,0,0,21.64.74c1.39,4.88,2.19,10.63,3.85,15.26C171.36,326.37,159.19,325.28,150.73,310.87Z"/></svg>