<svg id="Layer_1" data-name="Layer 1" xmlns="http://www.w3.org/2000/svg" viewBox="0 0 256 290"><defs><style>.cls-1{fill:#ff3b05;}.cls-2{fill:#d95c00;}.cls-3{fill:#eb8500;}.cls-4{fill:#47170a;}.cls-5{fill:#fff;}.cls-6{fill:#ffd154;}.cls-7{fill:#ffb32b;}.cls-8{fill:#ffe680;}.cls-9{fill:#ff991f;}.cls-10{fill:#e87300;}.cls-11{fill:#d40000;}.cls-12{fill:#5889d9;opacity:0.2;}</style></defs><path class="cls-1" d="M116.91,22.76c-1.09-3.85-1.08-14.14-1.55-18.45,7.28,13.58,18.67,14.17,29-1.4,1.05,14.62,14.17,20.89,28.54,8.09-7.76,14.3-3.49,24,17,22.66C176.55,42.34,176.19,55,192,60.31,175.22,67.77,174.42,75,187.89,89c-16.83-1.3-24.84,11.08-15.54,26.16-21.93,4-28.39,15.86-7.91,22.35-7.76,7-5.06,28.95,17.05,26.85-8.09,9-5.19,17.5,9,17.42-6.35,7.52-5.29,18.42,7.09,22.91-10.23,6-9.1,14.67.39,21.44-7.48,2.66-13.32,16.44-1.69,25.87-13.37.85-17.27,7.79-13.83,20.1-10.37-3.48-17.79.71-16.74,12.32-8-5-16-3.75-20.22,2.72-5.38-4.22-14.66-.33-27.71-5.68,7.24-6.37,46.36-7.75,50.4-35.15s-10.49-63.27-38-93.17,19.25-52.51,28.08-88.22S118.9,29.8,116.91,22.76Z"/><path class="cls-2" d="M153.09,154.33C123.28,114.68,170,91.85,170,57.31c0-36.72-62.59-57.79-75.16-5.79-2.85.9-5.64,4.69-20.26,4.69-5.43,0-8.9-1.64-13-1.94-6.14-.45-3.34,19.91,1.65,22.16,9.1,4.1,11.61.71,19.06-.25,7.69-1,18.57,9.48,44.22-2,12,3.29,2.1,21.11-27.55,35.19s-34,57.31,7.19,77.85c60.48,30.14,48.11,76.06,21.57,76.06-20.46,0-58.9-28.95-24.27-69.17-8.68,3-23.35,11.28-27.25,32.24s18.07,55.89,50.51,55.89c36.12,0,51.6-16.56,57.29-47.11C190.49,200,164.19,169.11,153.09,154.33Z"/><path class="cls-3" d="M153.09,154.33C123.28,114.68,170,91.85,170,57.31c0-36.72-62.59-57.79-75.16-5.79-2.85.9-5.64,4.69-20.26,4.69-5.43,0-8.9-1.64-13-1.94-6.14-.45-1.25,17.47,3.74,19.71,9.11,4.1,10.52.27,18-.7,2.9-.38,6.35,1,10.91,2.19,7.06,1.88,16.76,3.43,31.14-2.28.94-.37,20.63-8.48,21.61-8.92,1.8.5-15.67,9.09-14.92,10.27,4.25,6.65-.28,20.2-33.07,34.88-29.95,13.4-34.45,58.19,7.19,77.85,68.47,32.34,48.11,76.06,21.57,76.06-20.46,0-58.9-28.95-24.27-69.17-8.68,3-23.35,11.28-27.25,32.24s18.32,53.7,50.76,53.7c36.12,0,51.35-14.37,57-44.92C190.49,200,164.19,169.11,153.09,154.33Z"/><path class="cls-2" d="M126,42.49c5.54-1.05-7.69,9.25-11.11,10.52s-10-.29-10.5-1.69,1.55-8.67,4.94-10C118.43,37.84,120.45,43.54,126,42.49Z"/><path class="cls-4" d="M117.83,46.83a5.24,5.24,0,1,1-5.24-5.24A5.24,5.24,0,0,1,117.83,46.83Z"/><path class="cls-5" d="M110.41,46.68c-.32.68-.93,1.07-1.36.87s-.54-.92-.22-1.61.93-1.08,1.37-.88S110.73,46,110.41,46.68Z"/><path class="cls-5" d="M111.94,44a.51.51,0,1,1-.51-.51A.51.51,0,0,1,111.94,44Z"/><path class="cls-6" d="M106.08,187.27c-42.13-38.13,5.59-77.06-7.19-77.85C68.94,122.82,64.44,167.61,106.08,187.27Z"/><path class="cls-7" d="M88.26,116.9c.15,1.25,4.27,4.84,9.56,2.4-.5.85-1.32,3.48-2.37,4.66-.1-2.49-6.91-4.69-10.46-3.49C85.84,119.42,88.26,116.9,88.26,116.9Z"/><path class="cls-7" d="M78.19,131.57c.48,1.19,8.38,3.92,13.86.42-.36.93-1.21,3.19-1.74,5.15-.73-2.42-9.65-3.32-13.43-1.41A35.29,35.29,0,0,1,78.19,131.57Z"/><path class="cls-7" d="M76.14,150.65c.77,1,9.1,1.24,12.18-3.57a19.35,19.35,0,0,0-.15,5.34c-1.37-2.07-8.89-.38-11.18,2.46A29,29,0,0,1,76.14,150.65Z"/><path class="cls-7" d="M83.48,168.94c.92.78,7.26-.14,6.72-4.27a23.45,23.45,0,0,0,2,4.77c-1.79-1.66-5.85.69-5.8,3.15A24.63,24.63,0,0,1,83.48,168.94Z"/><path class="cls-8" d="M95.78,111.4a48.74,48.74,0,0,0-4.09,2.9,5.14,5.14,0,0,0-1.8,1.6,1.55,1.55,0,0,0,.55,1.76,5.52,5.52,0,0,0,5,1.27c.62-.15,1.24-.5,1-1.23s-1-1.34-1.31-2.13a2.12,2.12,0,0,1,.58-2.15,9,9,0,0,0,1.41-2.07c.07-.17.13-.34.19-.51a2.06,2.06,0,0,0-.44,0Z"/><path class="cls-8" d="M85.38,132.92a27.34,27.34,0,0,0-3.37-.37c-.89,0-2.11-.05-2.64-.9-.92-1.48.64-3.52,1.27-4.83.45-.91.92-1.79,1.45-2.65a7.08,7.08,0,0,1,3.43-3,6.2,6.2,0,0,1,3-.22c.72.13,1.36.56.45,1s-2,.56-2.89,1.11a4.38,4.38,0,0,0-1.5,1.92,3.82,3.82,0,0,0,1.06,5,20.25,20.25,0,0,1,2.33,1.4c.72.62.75,1.22-.25,1.44-.25.05-.51.08-.76.11Z"/><path class="cls-8" d="M88.41,137.27c-2.66-1-6-2.33-8.86-1.41-2.72.87-2.76,4.13-3,6.51a15.09,15.09,0,0,0,.14,4.45c.12.58.61,2.6,1.58,2.28s1-2.73,1.08-3.51c.17-1.31.31-3,1.63-3.72,2.36-1.22,6,.61,7.13-2.65.1-.28.17-.57.25-.86Z"/><path class="cls-8" d="M85.32,152.94c-2,.1-4.58.26-6.21,1.55s-.66,3.8,0,5.39c.38.9.82,1.77,1.26,2.65,0,.3.69,1.42,1,1.38.21-1.94-.52-4,.12-5.92.7-2,2.51-2.09,4.16-3,.86-.46,1.36-1.47.46-2.16Z"/><path class="cls-8" d="M89.56,175.19a5.74,5.74,0,0,1-1.6-2.81,2.71,2.71,0,0,1,1.85-2.69,1.39,1.39,0,0,1,1.64.57c.43,1,.92,2.05,1.27,3.11.24.73,1,3,.11,3.47-.55.33-1.33-.13-1.77-.45Z"/><path class="cls-9" d="M60.26,63.5c-.71-3.12-1.07-7.11-.15-7.8,2.38-1.77,5.17.19,7.71.64a49.51,49.51,0,0,0,8.76.75,49,49,0,0,0,8.82-.54c2.54-.46,5.41-.79,7.75-1.93,2.77-1.34,3.49-3.68,4.84-6.21,0,1.79.09,3.06,1.2,4.47a5.26,5.26,0,0,0,1.71,1.33c.55.27,1.83.32,1.57,1.19A43.16,43.16,0,0,1,98,56.67c-1.48.29-3.28.07-4.68.61-1.16.45-1.72,1.82-2.48,2.73a7,7,0,0,1-3.47,2.27A9.54,9.54,0,0,1,82.66,62c-1.69-.37-3.45-.58-5.16-.85a54.66,54.66,0,0,0-10.06-.76,5.87,5.87,0,0,0-4.26,2.06,4.81,4.81,0,0,0-.84,2.2c-.12.74.14,1.86-.86,2-.14-.15-.25-.26-.4-.4a1.43,1.43,0,0,0-.32-.68Z"/><path class="cls-9" d="M131.48,21.26c7.2.35,21.09,2.44,33.21,20-2.81-3.64-7.41-3.78-11.25-6.35-1.94-1.3-3.57-3-5.52-4.27s-3.84-1-6-.47a11.69,11.69,0,0,1-6.5-.21,21.09,21.09,0,0,0-7.69-.92,31.14,31.14,0,0,0-8.06,1.65c-2.36.87-10-.41-20.3,9.47C108.27,24.37,120.4,20.71,131.48,21.26Z"/><path class="cls-10" d="M89.81,71.58A47.85,47.85,0,0,0,101,74.68a40.15,40.15,0,0,0,13-.35c4.14-.89,7.91-2.64,11.79-4.28s7.9-3.33,11.76-5.29a53,53,0,0,1,11.74-4.13l1.39-.33c-4,.06-7.83.26-11.4-1.95s-7.16-3.77-11.49-3.64-6.86,2.63-9.48,5.77c-2.21,2.64-4.47,5.34-7.65,6.83C107,69,102.94,69,99,69.43l-1.44.16Z"/><path class="cls-5" d="M82,130.23c-.16.84-.74,1.43-1.29,1.32s-.86-.87-.69-1.72.74-1.43,1.29-1.32S82.16,129.39,82,130.23Z"/><path class="cls-5" d="M91.66,115.75c-.39.39-.82.59-1,.45s.07-.57.45-1,.82-.59.95-.45S92,115.36,91.66,115.75Z"/><path class="cls-5" d="M78.8,139.38c-.19.92-.61,1.61-1,1.54s-.45-.87-.26-1.78.61-1.61,1-1.54S79,138.46,78.8,139.38Z"/><path class="cls-5" d="M77.91,143.55c0,.44-.18.8-.41.8s-.41-.36-.41-.8.19-.79.41-.79S77.91,143.11,77.91,143.55Z"/><path class="cls-5" d="M80.07,157.38c.3.7.29,1.38,0,1.52s-.82-.32-1.12-1-.29-1.38,0-1.52S79.77,156.68,80.07,157.38Z"/><path class="cls-5" d="M89.2,173c.24.3.31.64.17.75s-.45-.05-.68-.35-.3-.64-.16-.74S89,172.73,89.2,173Z"/><path class="cls-5" d="M64.42,56.8c0,.41-.82.74-1.82.74s-1.81-.33-1.81-.74.81-.75,1.81-.75S64.42,56.38,64.42,56.8Z"/><path class="cls-5" d="M116.88,25c.22.41-.7,1.32-2.06,2.05s-2.63,1-2.85.57.71-1.32,2.06-2.05S116.66,24.58,116.88,25Z"/><path class="cls-5" d="M121.76,23.09c.09.26-.31.64-.89.85s-1.13.17-1.23-.09.31-.64.89-.85S121.66,22.84,121.76,23.09Z"/><path class="cls-5" d="M86.18,209.79c-1.28,1.8-2.59,3.06-2.93,2.82s.43-1.89,1.71-3.69,2.59-3.06,2.92-2.82S87.46,208,86.18,209.79Z"/><path class="cls-5" d="M90.91,203.42c-.35.48-.79.75-1,.62s-.06-.64.29-1.12.79-.76,1-.62S91.26,202.94,90.91,203.42Z"/><path class="cls-2" d="M130,141c.5-3.73,9.18-10,63.92-25.1,2.57,7.08-11.12,10.17-11.07,11.4s10.8,4.61,11,5.86S181,136.66,181.23,138s10.62,5.23,10.35,7-10.76,4.78-10.74,6.28,11.18,5.2,9.29,9C181.79,160.06,128,155.26,130,141Z"/><path class="cls-3" d="M132,139.49c.51-3.73,7.11-8.49,61.85-23.61,1.91,5.24-7.08,8.66-11.85,10.58-1.68.67-36.7,8.76-36.69,9.08s35.77-6.51,38.18-5.82c4.25,1.23,10.15,2.62,10.26,3.42s-7.57,2.18-12.57,3.38c-2.43.58-36.33,3.11-36.26,3.55s34.3-.61,36.89.36c4.3,1.6,9.91,3.49,9.75,4.6s-6.73,3-10.83,4.45c-1.89.68-36.5-5.34-36.49-4.87s34.92,7.9,37,8.81c3.88,1.67,9.18,3.9,8,6.37C180.89,159.53,130.1,153.77,132,139.49Z"/><path class="cls-5" d="M183.86,119.81c.17.47-2.08,1.57-5,2.46s-5.49,1.24-5.67.78,2.08-1.56,5-2.45S183.68,119.35,183.86,119.81Z"/><path class="cls-5" d="M192,117.52c.1.29-.74.78-1.87,1.09s-2.14.33-2.24,0,.74-.78,1.87-1.09S191.9,117.23,192,117.52Z"/><path class="cls-5" d="M158,127.81c.08.25-.63.66-1.59.9s-1.8.24-1.88,0,.63-.66,1.59-.9S157.93,127.55,158,127.81Z"/><path class="cls-5" d="M144.61,131.77a13.58,13.58,0,0,1-3.31,1.9,14.73,14.73,0,0,1-3.59,1.45,13.41,13.41,0,0,1,3.31-1.91A14.29,14.29,0,0,1,144.61,131.77Z"/><path class="cls-5" d="M166,133c0,.2-1.42.57-3.24.82s-3.32.3-3.36.1,1.42-.57,3.24-.82S166,132.79,166,133Z"/><path class="cls-5" d="M176,131.4c0,.16-.67.4-1.56.53s-1.64.09-1.67-.08.67-.4,1.56-.53S176,131.23,176,131.4Z"/><path class="cls-5" d="M159.6,140.81c0,.21-1.51.32-3.34.25s-3.33-.27-3.32-.48,1.51-.31,3.35-.25S159.61,140.61,159.6,140.81Z"/><path class="cls-5" d="M169.78,141c0,.17-.74.29-1.64.26s-1.63-.2-1.63-.36.75-.28,1.65-.26S169.79,140.81,169.78,141Z"/><path class="cls-5" d="M165.9,151.13c-.09.22-2,0-4.36-.58s-4.13-1.17-4-1.39,2,0,4.35.58S166,150.91,165.9,151.13Z"/><path class="cls-5" d="M178.79,153.92c-.07.19-1,.12-2.18-.14s-2-.63-1.94-.82,1.05-.12,2.19.14S178.86,153.74,178.79,153.92Z"/><path class="cls-5" d="M192.79,133c-.06.19-.64.21-1.31,0s-1.15-.45-1.09-.64.64-.2,1.3,0S192.85,132.81,192.79,133Z"/><path class="cls-5" d="M190.19,144.52c-.09.18-.67.1-1.29-.16s-1.05-.62-1-.8.67-.1,1.29.17S190.28,144.35,190.19,144.52Z"/><path class="cls-5" d="M189,158.14c.15.31.07.63-.17.72a.61.61,0,0,1-.7-.38c-.15-.31-.07-.63.17-.72A.61.61,0,0,1,189,158.14Z"/><path class="cls-9" d="M126.9,264.34a37.37,37.37,0,0,0,13.34-2.67c3.83-1.65,15.85-9.22,12.95-29.78,17.42,50.4-47,49.71-61.41,8.83C106.83,264.08,122.19,264.5,126.9,264.34Z"/><path class="cls-10" d="M182.57,228c1.23-8.32,2.4-26.33-29.63-71.1-2.34-3.27-21.07-2-24.11-11.08C137.7,185.62,168.36,159.79,182.57,228Z"/><path class="cls-10" d="M133.23,74.18c2.19,3.44,6.8,10.94-17.65,28.24,9.11-2.59,16-6.69,17.78-9.51s2.28-6.4,3.61-9.6c1.42-3.41,4.11-5.42,6.34-8.21,2.05-2.57,3.83-4.24,5.21-10.08C148.52,65,133.8,73,133.23,74.18Z"/><path class="cls-5" d="M134.7,13.64a10.61,10.61,0,0,1-12,0,16,16,0,0,0,6,1.48A15.9,15.9,0,0,0,134.7,13.64Z"/><path class="cls-5" d="M164.44,17.5a10.59,10.59,0,0,1-12,0,16.05,16.05,0,0,0,6,1.45A15.91,15.91,0,0,0,164.44,17.5Z"/><path class="cls-5" d="M177.56,75.14a10.59,10.59,0,0,1,4.94-11,16.14,16.14,0,0,0-3.81,4.88A15.9,15.9,0,0,0,177.56,75.14Z"/><path class="cls-5" d="M168.6,96.62A11.79,11.79,0,0,1,178.77,89a14.48,14.48,0,0,0-10.17,7.66Z"/><path class="cls-5" d="M179.17,164.79a12.56,12.56,0,0,1-6.26.28,12.13,12.13,0,0,1-5.67-3,20.38,20.38,0,0,0,5.81,2.43A23.49,23.49,0,0,0,179.17,164.79Z"/><path class="cls-5" d="M187.23,182.23a10.55,10.55,0,0,1-4.59-.47,10,10,0,0,1-4-2.53,17.39,17.39,0,0,0,4.12,2.16A20.62,20.62,0,0,0,187.23,182.23Z"/><path class="cls-5" d="M195.57,204.79a12.28,12.28,0,0,1-4.14-2,11.48,11.48,0,0,1-3.15-3.46,20.33,20.33,0,0,0,3.35,3.2A23.32,23.32,0,0,0,195.57,204.79Z"/><path class="cls-5" d="M183.47,255.22a12.5,12.5,0,0,1,3.87-2.45,11.53,11.53,0,0,1,4.6-.84,20.39,20.39,0,0,0-4.49,1.15A24.27,24.27,0,0,0,183.47,255.22Z"/><path class="cls-5" d="M185,35c0,.19-3.28.35-6.57-.38s-5.38-2.34-5.34-2.53a39.21,39.21,0,0,0,5.51,2C181.89,34.8,185.05,34.83,185,35Z"/><path class="cls-5" d="M165.08,116.12c.08.21-2.12,1-4.44,1.9s-4.68,2.34-4.76,2.12,2.15-2,4.47-2.88S165,115.91,165.08,116.12Z"/><path class="cls-5" d="M169,115.15c0,.1-.45.28-1.06.4s-1.12.15-1.14,0,.46-.28,1.07-.4S169,115.05,169,115.15Z"/><path class="cls-5" d="M195.92,225.27a7,7,0,0,1-1.53-1.27,7.2,7.2,0,0,1-1.32-1.47,12.92,12.92,0,0,1,2.85,2.74Z"/><path class="cls-5" d="M180.78,270.71c0,.13-.66.07-1.4-.13s-1.31-.45-1.28-.58.66-.07,1.4.13S180.81,270.59,180.78,270.71Z"/><path class="cls-11" d="M138.55,17.21c-1.72,1.4-8.69,2.44-10.33,2.78,3.68-.18,14.39-.2,22,5.51a5,5,0,0,0-2-2.85c-1-.7-2-1.32-2.9-2.1-1.74-1.49-2.3-3.8-2.68-6a25.29,25.29,0,0,1-.41-4.07S140.43,15.68,138.55,17.21Z"/><path class="cls-11" d="M151.79,25.22a10.29,10.29,0,0,0,6.07.06A15.14,15.14,0,0,0,163,22.75c.84-.61,1.64-1.28,2.51-1.86-1.32,1.45-2.8,3.16-3.18,5.14a14.39,14.39,0,0,0,.41,6.42c.31,1,.66,2,1,3-.34.09-1-.73-1.3-1a14.12,14.12,0,0,1-1.09-1.1c-.76-.84-1.53-1.62-2.31-2.41a19.73,19.73,0,0,0-5.1-4c-1-.48-2.3-.88-2.91-1.83,0-.07,0,0,.1,0Z"/><path class="cls-11" d="M127.11,19.51a6.85,6.85,0,0,1-3.93-.89,8.35,8.35,0,0,1-2.81-2.51,15.11,15.11,0,0,1-1-1.64,8.58,8.58,0,0,0-.13,1.35c-.07.53-.11,1.05-.22,1.56a12.81,12.81,0,0,1-.7,2.51c-.15.32-.47.86-.39,1.22a9.13,9.13,0,0,0,2.12-.31c.72-.11,1.43-.22,2.15-.31a38.08,38.08,0,0,1,4-.35,9.45,9.45,0,0,0,1.07-.07c.2,0,.84-.33.31-.41Z"/><path class="cls-11" d="M165.67,37.35A6.27,6.27,0,0,0,169.56,39a23.28,23.28,0,0,0,5.6.33,8.87,8.87,0,0,0,2.59-.86c-1.41,3-3.67,5.73-4.43,9s-.66,8.11,3.15,9.48a28.51,28.51,0,0,0,6,1c-2,.7-4.21,1.33-5.66,3s-2.62,3.38-4.1,5A11.16,11.16,0,0,1,170,68c-.31-.86.43-1.82.66-2.64a11.14,11.14,0,0,0,.41-2.93c0-2,0-4,0-6.07a34.3,34.3,0,0,0-1.69-11.06c-.61-1.87-2-3.37-2.61-5.22l-.17,0c-.1-.58-.71-1.11-1.1-1.54s-.68-1.12-1.19-1.36a1.7,1.7,0,0,0-.22-.68Z"/><path class="cls-11" d="M170.06,72.68c-.95,2.08-1.34,4.12-.21,6.25a9.31,9.31,0,0,0,4.5,4.3,12.62,12.62,0,0,1,2.88,1.41c-4.84-.93-11.34-2.7-14.86,1.94s-3.67,11.22-1.25,16.21a42.3,42.3,0,0,0,4.63,7c-3.64-1.42-8.61-3.9-12.39-1.67s-5,7.1-5,11.13c0,2.41.33,5.26-.71,7.52-.81,1.78-2.3,1.46-3-.25-1.68-4.26,1.2-9.71,2.87-13.58s4.47-6.75,6.11-10.5c.18-.43.36-.87.53-1.3l.17,0c.1-.75.89-1.27.93-2.06l.17,0a7.7,7.7,0,0,1,.94-2.18c.31-.73.67-1.48,1-2.2.61-1.47.93-3,1.6-4.49a6.55,6.55,0,0,1,1.38-2.31c.19-1,1.41-2.29,2-3.14s2-2.17,2.13-3.22l.16,0A12,12,0,0,1,166,79c.38-.83.58-1.72.87-2.56a21.82,21.82,0,0,1,2.42-5,7.28,7.28,0,0,1,2-2.14Z"/><path class="cls-11" d="M156.76,157c1.21,0,2.45-.07,3.65,0a19.93,19.93,0,0,0,1.16,2.07c.36.69.67,1.42,1,2.09.73,1.27,1.31,2.52,2,3.84.39.69,1.18,1.08,1.62,1.71.57,0,1.12.39,1.74.46s1.38.11,2.1.15c1.31.08,2.69.07,4,.07a8.93,8.93,0,0,0,2.2-.21c-1.55,1.12-3.56,2-4.83,3.41-1.44,1.63-1,3.79-.06,5.55a30.88,30.88,0,0,0,3.35,4.7,8.39,8.39,0,0,0,4.45,3.08,25.19,25.19,0,0,0,7,.47c-1.6.82-3.41,1.29-4.79,2.51s-1.42,3.19-1.44,4.76c0,1.09,0,2.18,0,3.27-.47-.34-.73-1.29-1-1.82-.32-.74-.69-1.46-1.07-2.18-.73-1.38-1.3-2.84-2-4.22a86.15,86.15,0,0,0-4.38-7.43c-.74-1.14-1.59-2.21-2.29-3.39s-1.25-2.39-1.84-3.62a39.18,39.18,0,0,0-4.41-6.63c-1.56-2-2.92-4.18-4.61-6.1a8.27,8.27,0,0,1-.56-.61Z"/><path class="cls-11" d="M181.46,198.58c.21.88.89,1.59,1.06,2.45l.13,0c.78,2.41,4,3.64,6.29,4a17.77,17.77,0,0,0,2.39.31c-.57.86-1.74,1.24-2.5,1.95a6.57,6.57,0,0,0-1.58,2.38c-.9,2.24-.7,4.71-.7,7.07a15.28,15.28,0,0,1-1,4.08c-.16-.81-.57-8.45-.76-10.14-.34-3-1.83-6-2.78-8.83-.26-.79-.65-1.51-.94-2.27s-.36-1.63-.62-2.41Z"/><path class="cls-11" d="M189.2,225.13c.8.61,2.3.5,3.14.77-1.24.91-3,.71-4.13,1.79a8.54,8.54,0,0,0-2,4.07c-.7,2.81-2.74,13.4,2.91,16.91-3.16-.11-5.64,0-7.46,2.88a16.49,16.49,0,0,0-2.24,8.73c-.07,1.76-.26,3.51-.3,5.27-.82.1-1.53-.41-2.44-.42a5.71,5.71,0,0,0-2.61.39c-1.4.63-3.1,2.42-4.36,2.85a48.34,48.34,0,0,0,8.4-12.59c.65-1.45,4.34-10,4.77-11.62a42.37,42.37,0,0,0,.9-5.52c.22-1.71,1-3.16,1.2-4.82.23-1.93.51-3.77.75-5.67.28-2.17-.15-4.22-.15-6.44Z"/><path class="cls-11" d="M144.82,284.91a57.34,57.34,0,0,1,4.53-3.92c2-1.27,9.41-1.78,14.17,0,1.13-2.26.7-4.27,1.75-5.29a20.36,20.36,0,0,0,4.44-7,49.42,49.42,0,0,1-14,9.57c-2,.72-4.14,1.12-6.2,1.68s-4,1-6,1.5a43.56,43.56,0,0,1-6.22.9c-2,.2-5.31.32-7,.58C132.18,283.15,139.5,282.59,144.82,284.91Z"/><path class="cls-5" d="M133.67,264.66c0,.24-1.15.58-2.64.75s-2.71.1-2.74-.14,1.16-.59,2.64-.76S133.65,264.41,133.67,264.66Z"/><path class="cls-5" d="M141.28,262.67c.05.17-.44.49-1.1.71s-1.24.25-1.3.08.43-.49,1.1-.71S141.22,262.49,141.28,262.67Z"/><path class="cls-2" d="M165.67,49.4c.19,1.15-.1,2.15-.64,2.24s-1.13-.77-1.31-1.92.09-2.15.63-2.24S165.48,48.25,165.67,49.4Z"/><path class="cls-2" d="M162.05,67.63c-.39,1.1-1.12,1.84-1.64,1.66s-.62-1.22-.23-2.32,1.12-1.84,1.64-1.66S162.43,66.53,162.05,67.63Z"/><path class="cls-2" d="M158.65,84.7c-.39,1.1-1.12,1.84-1.63,1.66s-.62-1.22-.24-2.32,1.12-1.84,1.64-1.66S159,83.6,158.65,84.7Z"/><path class="cls-2" d="M166.7,56.71c.1.58,0,1.09-.32,1.13s-.57-.39-.67-1,0-1.09.32-1.14S166.61,56.12,166.7,56.71Z"/><path class="cls-2" d="M166.69,64.32c-.17.56-.52,1-.78.88s-.35-.6-.19-1.17.52-1,.79-.88S166.86,63.75,166.69,64.32Z"/><path class="cls-2" d="M153.85,93.4c-.17.57-.51,1-.78.88s-.35-.6-.18-1.17.51-1,.78-.88S154,92.83,153.85,93.4Z"/><path class="cls-2" d="M149.52,102c-.19.42-.49.69-.69.6s-.2-.49,0-.91.5-.68.69-.6S149.7,101.54,149.52,102Z"/><path class="cls-2" d="M145.3,105.88c-.35.79-.94,1.3-1.32,1.14s-.39-.94,0-1.74.95-1.31,1.32-1.14S145.65,105.08,145.3,105.88Z"/><path class="cls-2" d="M140,129.77c-.06.87-.45,1.55-.85,1.53s-.69-.76-.63-1.63.44-1.55.85-1.52S140.1,128.91,140,129.77Z"/><path class="cls-2" d="M145.16,110.67c-.21.63-.62,1.06-.92,1s-.36-.69-.15-1.31.61-1.06.91-1S145.36,110,145.16,110.67Z"/><path class="cls-2" d="M142.37,117c-.09.65-.41,1.15-.72,1.11s-.48-.61-.4-1.26.42-1.16.73-1.12S142.46,116.32,142.37,117Z"/><path class="cls-2" d="M135.62,117.58c-.09.65-.41,1.15-.72,1.11s-.48-.61-.39-1.27.41-1.15.72-1.11S135.71,116.92,135.62,117.58Z"/><path class="cls-2" d="M141.64,122.6c-.06.49-.3.86-.53.83s-.36-.45-.29-.94.3-.85.53-.82S141.71,122.12,141.64,122.6Z"/><path class="cls-2" d="M137.12,110.82c-.07.48-.3.85-.53.82s-.36-.45-.29-.93.3-.86.53-.83S137.19,110.33,137.12,110.82Z"/><path class="cls-2" d="M132.39,120c-.07.48-.31.85-.54.82s-.36-.45-.29-.94.31-.85.54-.81S132.45,119.49,132.39,120Z"/><path class="cls-2" d="M135.33,123.06c-.07.49-.31.86-.54.83s-.35-.45-.29-.94.31-.85.54-.82S135.39,122.58,135.33,123.06Z"/><path class="cls-2" d="M139,121.1c-.07.49-.31.85-.53.82s-.36-.45-.3-.93.31-.85.54-.82S139.09,120.62,139,121.1Z"/><path class="cls-2" d="M180.5,233.68c.05.87-.24,1.6-.65,1.62s-.78-.66-.83-1.53.24-1.59.64-1.62S180.44,232.82,180.5,233.68Z"/><path class="cls-2" d="M174,209.28c.32.81.28,1.59-.1,1.74s-.95-.38-1.27-1.19-.28-1.58.1-1.74S173.69,208.47,174,209.28Z"/><path class="cls-2" d="M165.77,197.91c.42.76.47,1.54.11,1.74s-1-.26-1.41-1-.47-1.54-.12-1.74S165.34,197.15,165.77,197.91Z"/><path class="cls-2" d="M166.6,190.84c.39.7.44,1.41.11,1.6s-.91-.24-1.3-.94-.44-1.42-.11-1.6S166.21,190.14,166.6,190.84Z"/><path class="cls-2" d="M159.73,184.62c.52.6.72,1.29.43,1.54s-.93,0-1.46-.65-.72-1.29-.44-1.54S159.2,184,159.73,184.62Z"/><path class="cls-2" d="M170.78,200.16c.5,1.26.43,2.47-.16,2.71s-1.48-.59-2-1.85-.43-2.47.16-2.71S170.27,198.91,170.78,200.16Z"/><path class="cls-2" d="M169.28,206.92c.22.57.19,1.11-.08,1.22s-.67-.27-.89-.83-.2-1.12.07-1.23S169.05,206.35,169.28,206.92Z"/><path class="cls-2" d="M163.16,193.68c.3.53.33,1.08.08,1.22s-.69-.19-1-.72-.33-1.09-.08-1.23S162.87,193.14,163.16,193.68Z"/><path class="cls-2" d="M180.29,238.81c-.21.63-.61,1.06-.91,1s-.36-.69-.16-1.32.62-1.06.92-1S180.5,238.19,180.29,238.81Z"/><path class="cls-2" d="M178.74,226.33c.11.65-.05,1.22-.36,1.27s-.64-.43-.75-1.08.05-1.23.36-1.28S178.63,225.68,178.74,226.33Z"/><path class="cls-2" d="M177.51,245.13c-.09.65-.42,1.15-.72,1.11s-.48-.61-.4-1.27.42-1.15.73-1.11S177.6,244.47,177.51,245.13Z"/><path class="cls-2" d="M171.33,251.73c-.18.63-.57,1.08-.87,1s-.4-.67-.22-1.31.57-1.08.87-1S171.5,251.09,171.33,251.73Z"/><path class="cls-2" d="M176.78,250.75c-.07.49-.31.85-.53.82s-.36-.45-.29-.93.3-.85.53-.82S176.85,250.27,176.78,250.75Z"/><path class="cls-2" d="M176.35,238.7c-.06.48-.3.85-.53.82s-.36-.45-.29-.94.3-.85.53-.82S176.42,238.21,176.35,238.7Z"/><path class="cls-2" d="M177.21,217.34c.08.49,0,.91-.26.95s-.48-.32-.56-.81,0-.9.26-.94S177.13,216.86,177.21,217.34Z"/><path class="cls-2" d="M172.2,259.43c-.24.42-.61.67-.8.56s-.16-.55.09-1,.6-.67.8-.55S172.45,259,172.2,259.43Z"/><path class="cls-2" d="M175,255.32c-.11.47-.38.82-.61.77s-.31-.48-.2-1,.37-.82.6-.77S175.12,254.84,175,255.32Z"/><path class="cls-2" d="M174.17,249.25c-.07.48-.31.85-.54.82s-.36-.45-.29-.93.3-.86.53-.83S174.23,248.77,174.17,249.25Z"/><path class="cls-2" d="M142.08,126.79c-.07.48-.31.85-.54.82s-.36-.45-.29-.94.3-.85.53-.82S142.14,126.3,142.08,126.79Z"/><path class="cls-2" d="M159.37,76.82c-.17.57-.52,1-.79.89s-.34-.61-.18-1.17.52-1,.78-.89S159.53,76.25,159.37,76.82Z"/><path class="cls-2" d="M163.31,53.35c.14.87-.07,1.61-.47,1.68s-.85-.57-1-1.43.07-1.61.48-1.68S163.17,52.5,163.31,53.35Z"/><path class="cls-2" d="M164.33,72.38c-.25.84-.77,1.42-1.17,1.3s-.5-.89-.25-1.73.78-1.41,1.17-1.29S164.58,71.55,164.33,72.38Z"/><path class="cls-2" d="M160.92,44.36c.2.7.09,1.33-.24,1.42s-.75-.39-.94-1.09-.08-1.33.24-1.42S160.73,43.67,160.92,44.36Z"/><path class="cls-12" d="M198,226.08c-9.49-6.77-10.62-15.45-.39-21.44-12.38-4.49-13.44-15.39-7.09-22.91-14.22.08-17.12-8.38-9-17.42-9.18.87-15-2.41-18.13-7a237.51,237.51,0,0,0,26.77,3c1.89-3.81-9.28-7.52-9.29-9s9.55-4.24,10.62-6a.63.63,0,0,0,.12-.25.4.4,0,0,0-.05-.23c-.54-1.86-10.09-5.48-10.3-6.78s11.57-3.43,12.45-4.71c.06-.06.09-.11.08-.17a.26.26,0,0,0-.09-.16c-.93-1.36-10.82-4.52-10.87-5.7s13.64-4.32,11.07-11.4c-19.28,5.32-32.56,9.36-41.73,12.52-1-5.36,6.66-10.85,20.21-13.29C163.05,100,171.06,87.65,187.89,89,174.42,75,175.22,67.77,192,60.31c-15.82-5.34-15.46-18-2.19-26.65-20.46,1.39-24.73-8.36-17-22.66-14.37,12.8-27.49,6.53-28.54-8.09-10.28,15.57-21.66,15-28.95,1.4.47,4.31.46,14.6,1.55,18.45h0C107,26.7,98.61,35.74,94.8,51.52c-2.85.9-5.64,4.69-20.26,4.69-5.43,0-8.9-1.64-13-1.94a2.18,2.18,0,0,0-1.88.71c-3.53,3.6-.85,19.48,3.53,21.45,9.1,4.1,11.61.71,19.06-.25,7.69-1,18.57,9.48,44.22-2,12,3.29,2.1,21.11-27.55,35.19-29.95,13.4-34.45,58.19,7.19,77.85,60.48,30.14,48.11,76.06,21.57,76.06-20.46,0-58.9-28.95-24.27-69.17-8.68,3-23.35,11.28-27.25,32.24-.12.65-.22,1.32-.29,2-2,19.06,15.42,47.66,42,53h0c13.05,5.35,22.33,1.46,27.71,5.68,4.2-6.47,12.21-7.74,20.22-2.72-1.05-11.61,6.37-15.8,16.74-12.32-3.44-12.31.46-19.25,13.83-20.1C184.68,242.52,190.52,228.74,198,226.08Z"/></svg>