<svg id="Layer_1" data-name="Layer 1" xmlns="http://www.w3.org/2000/svg" viewBox="0 0 850 520"><defs><style>.cls-1{fill:#3f6875;}.cls-2{fill:#9bbec9;}.cls-3{fill:#648c9b;}.cls-4{fill:#233e44;}.cls-5{fill:#c8d5d6;}.cls-6{fill:#fff;}.cls-7{fill:#839d9e;}.cls-8{fill:#254951;}.cls-9{fill:#11c8d1;}.cls-10{fill:#43e4ff;}.cls-11{fill:#b6f5fc;}.cls-12{fill:#049b9b;}.cls-13{fill:#1d383d;}.cls-14{fill:#2e4f57;}.cls-15{fill:#0c1c1e;}</style></defs><path class="cls-1" d="M181.55,32.82c-3.42,0-16.08,22-30.06,37-17.66,18.91-36.57,25.61-36.57,51-19.83-19-49.58-7.44-76,1.24-18.42,6-33.09-.88-34,2.47-2.17,8.06,52.37,60.33,120.86,48,13.32-3.1,28.51-19.83,28.51-19.83C205.1,105.64,192.09,32.76,181.55,32.82Z"/><path class="cls-2" d="M181.55,32.82c-3.42,0-16.08,22-30.06,37-17.66,18.91-36.57,25.61-36.57,51-19.83-19-49.58-7.44-76,1.24-18.42,6-22.29,1.08-23.19,4.44-2.17,8,60.33,38.72,104.23,26.39,13.32-3.1,22-14.13,22-14.13C185.73,106.54,192.09,32.76,181.55,32.82Z"/><path class="cls-3" d="M181.55,32.82c-3.42,0-13,26.54-27,41.52-17.66,18.92-34.71,31.4-34.71,56.82-19.83-19-51.85-15.5-78.3-6.82-18.42,6-24.92-1.19-25.82,2.17-2.17,8,60.26,47.37,104.15,35,13.33-3.1,28.28-16.55,28.28-16.55C191.93,112.77,192.09,32.76,181.55,32.82Z"/><path class="cls-4" d="M181.55,32.2c-2,0-5.26,4.42-11.91,13.6-5.25,7.25-11.79,16.27-18.6,23.57a178.7,178.7,0,0,1-14.39,13.44c-11.69,10.1-21.82,18.86-22.33,36.62-7.15-6.39-16-9.5-26.89-9.5-14,0-29.13,5-43.8,9.92l-4.93,1.63A52.4,52.4,0,0,1,22.17,124a89.66,89.66,0,0,1-10.29-.7c-1.82-.2-3.38-.37-4.56-.37s-2.67.16-3,1.42c-.51,1.91,1.48,5.05,3.24,7.35,10.84,14.14,48.86,43.33,97.28,43.33h0a119.27,119.27,0,0,0,21.07-1.88c13.36-3.1,28.2-19.33,28.79-20C195,115.86,196.13,60.63,187.79,39.36,186,34.67,183.8,32.2,181.55,32.2ZM153.82,152.33c-.15.16-15.21,16.63-28.16,19.64a118.16,118.16,0,0,1-20.82,1.85h0C56.88,173.82,19.25,145,8.54,131c-3.24-4.23-3.14-5.87-3-6.27s.7-.51,1.81-.51,2.64.17,4.42.36a89.36,89.36,0,0,0,10.43.71,53.43,53.43,0,0,0,16.92-2.62L44,121c14.57-4.84,29.64-9.85,43.41-9.85,11.12,0,20,3.31,27.06,10.1l1.05,1v-1.45c0-18.14,9.68-26.5,21.92-37.09a177.15,177.15,0,0,0,14.48-13.52c6.87-7.36,13.43-16.41,18.7-23.69,4.66-6.43,9.48-13.09,10.92-13.09,1.61,0,3.51,2.38,5.07,6.38C194.87,60.81,193.71,115.36,153.82,152.33Z"/><path class="cls-1" d="M704.55,375.77c-5.41-2.69-55.89,26.75-51.65,31s21.38,1.55,23-1c1.75,6.3,23.22,9.92,32.93,10.33,6.4.28,12.68-6.66,18.77-6.84,6.92-.21,36.83-5.24,37.45-12.37S729.75,393.43,704.55,375.77Z"/><path class="cls-3" d="M711.47,380c-6.24,9.87-23.5,15.84-18.54,25.34,1.81,3.48,11.69,6.29,17.67,4.23,2.62-.89,9.69-4.93,15.08-5.06,12.29-.28,43.07-5.06,36.81-10.47C754.8,390.75,731.34,390.47,711.47,380Z"/><path class="cls-4" d="M749.88,390.56c-12.9-2.2-30.56-5.2-45-15.35a2.78,2.78,0,0,0-1.23-.24c-8.71,0-48.56,23.47-51.37,30.26a1.65,1.65,0,0,0,.23,2c2,2,6.13,2.4,9.27,2.4,5.16,0,11.6-1.16,14-2.81,3.6,6.52,25.56,9.57,33.14,9.89h.39c3.38,0,6.67-1.81,9.85-3.57,3-1.65,5.81-3.2,8.57-3.28,6.25-.19,37.37-5.08,38.05-12.94C766,393.3,759.94,392.27,749.88,390.56Zm-22.25,18c-3.07.09-6.16,1.79-9.14,3.44-3.16,1.74-6.46,3.53-9.59,3.4-10.46-.44-30.79-4.23-32.37-9.87l-.37-1.34-.75,1.17c-.74,1.16-7,3-13.68,3-4.1,0-7.08-.72-8.39-2-.1-.1-.09-.31,0-.61,2.63-6.34,42.06-29.5,50.23-29.5a2.57,2.57,0,0,1,.59.06c14.64,10.26,33.2,13.42,45.48,15.51,8.39,1.43,15,2.56,14.8,5C763.94,402.94,736,408.34,727.63,408.59Z"/><path class="cls-5" d="M448.37,307.38c-41.53,16.12-212-33.47-312.57-108.1,35.52,86.41,161.34,212.23,281.58,229.58,8.68,0,43.39,9.3,80.57,7.44,223.13,9.3,386.13-171.62,339-331.87C791.73,36,489.9,291.27,448.37,307.38Z"/><path class="cls-6" d="M771.82,152.74c-15.16,27.91-27.15,68.3-42,96.47-25.74,48.88-97.3,48.46-110,18.61.73-26.07,2.23-56.15,3.91-81.86-80.13,54.43-156,113.91-175.4,121.42-41.53,16.12-212-33.47-312.57-108.1,35.52,86.41,193.93,217.4,292.79,211,8.68,0,32.54,1.83,69.73,0,221.74,9.24,365.09-159.37,339.13-303.11C816.76,96.61,790.94,117.52,771.82,152.74Z"/><path class="cls-7" d="M830.88,98.72c17.83,64.5-1.9,140.76-52.77,204-66,82.05-169.35,127.59-276.52,121.82-10.67,1.39-54.75-4.94-75.93-8-8.14-1.17-12.09-1.73-12.77-1.73h0c-71.38-5.93-136.06-52.09-177.75-89.77-44.08-39.85-76.43-82.8-92-111.86C184.73,282.41,238.58,327,277.53,352.73c52.94,34.93,101.16,50.71,128.57,53.81,3.5.7,84.75,7.41,100.51,5.59,149.57,4.81,229.66-71.28,264.1-117.08,23.64-31.43,40.54-67.35,48.89-103.86,7.8-34.13,7.51-67.1-.83-92.83l-1.18.38c17.87,55.14-1.37,133.73-47.88,195.57C736.46,338.52,660.46,411.12,520,411.11q-6.62,0-13.42-.22c-16.41,1.9-99.67-5.46-100.27-5.58C352,399.16,214.51,340.64,136.35,199l-1.12.53c11.2,27.9,47,79.37,99.08,126.46,41.83,37.8,106.75,84.12,178.53,90.08.66,0,6,.76,12.64,1.72,22.87,3.29,65.44,9.4,76.16,8q9.15.5,18.25.49c100.85,0,196.68-45.08,259.18-122.76,24.78-30.8,42.8-65.47,52.11-100.26,9.61-35.93,9.92-72.19.9-104.84Z"/><path class="cls-7" d="M805.4,98.74c17.33,53.55-1,129.22-45.55,188.29-33.19,44-109.77,117-249.53,112.08-18.74,1-40.49-1.2-59.68-3.11-17.4-1.73-32.42-3.23-40.27-1.85-34.87-.83-86.09-20.3-133.67-50.83-35.07-22.5-82.43-59.84-121.73-115.45A426.3,426.3,0,0,0,299.15,350.28c52.35,27.33,97.17,36.93,115.44,38.3,1.25,0,4.79.1,10.15.26,20.05.6,61.77,1.85,94.92,1,52.93-1.39,100.75-13.7,142.12-36.57A267.86,267.86,0,0,0,751.35,273c44.12-62.21,55.26-132,43.45-168.76l-1.18.38c11.71,36.48.61,105.78-43.28,167.66C699,344.7,617.05,386,519.63,388.58c-33.11.87-74.81-.38-94.86-1-5.36-.16-8.86-.3-10.13-.26-18.14-1.36-62.75-10.92-114.91-38.16C233,314.34,178,263.79,136.32,199l-1,.64c42.16,72.06,99.82,118.5,140.76,144.77,47.76,30.65,99.22,50.2,134.43,51,7.81-1.36,22.75.13,40.05,1.85,16,1.6,33.68,3.36,50,3.36,3.35,0,6.64-.07,9.84-.24,55.1,1.94,105.81-8.22,150.69-30.21a279.87,279.87,0,0,0,99.82-82.37c22.63-30,38.81-64,46.81-98.46,7.75-33.38,7.38-64.83-1.07-90.95Z"/><path class="cls-7" d="M782.44,114.88c8.53,49.83-10.86,111.42-50.6,160.71-50,62-124.11,98.26-208.7,102-8.46.17-28.13.61-48.08,1.06-26.6.59-54.1,1.21-55.51,1.21-27.56,0-120.72-23.34-187.72-81.12l-.81.94c67.25,58,160.83,81.42,188.53,81.42,1.43,0,28.93-.62,55.53-1.21l48.1-1.07c85-3.79,159.41-40.19,209.63-102.49,40-49.56,59.44-111.52,50.86-161.7Z"/><path class="cls-7" d="M770.66,130.78c3.11,53.44-18.13,107.19-59.79,151.35-49.09,52-119.74,84.34-184.41,84.34v1.24c65,0,136-32.47,185.31-84.73,41.9-44.41,63.26-98.49,60.13-152.27Z"/><path class="cls-7" d="M532.64,356.55l.05,1.24C607,354.77,693.94,299.86,713,257l-1.14-.5C693,299,606.55,353.55,532.64,356.55Z"/><path class="cls-7" d="M535.76,344.26v1.24c22.42,0,54.9-9.19,86.88-24.58,30.66-14.76,54-31.82,60.86-44.54l-1.08-.59C668.33,301.81,584.13,344.26,535.76,344.26Z"/><path class="cls-7" d="M547.91,334.85l.08,1.24c29.71-2,90.71-28.84,112.4-53.5l-.93-.82C637.94,306.24,577.39,332.85,547.91,334.85Z"/><path class="cls-7" d="M555.38,322.26l0,1.24c25.83-.41,73.08-23.48,88.69-43.31l-1-.77C627.68,299,580.94,321.86,555.38,322.26Z"/><path class="cls-7" d="M565.88,308.94l.19,1.22c23.86-3.76,60-22.4,65.54-33.81l-1.11-.54C625.08,287,589.45,305.22,565.88,308.94Z"/><path class="cls-7" d="M837.49,104.09c-5.22-7.9-14.08-11.91-26.34-11.91-60.49,0-194.2,96.5-282.67,160.36-38.66,27.9-69.19,49.94-80.33,54.27-5.14,2-12.4,3-21.58,3-65.09,0-206.12-48.5-290.4-111l-1.79-1.32.85,2.06c18.33,44.58,59.14,97.26,109.18,140.91,56.77,49.53,118.17,81.15,173,89.05,2.53,0,7.32.81,14,1.93,13.6,2.29,34.16,5.75,56.55,5.75,3.43,0,6.82-.08,10-.24,5.48.23,11,.34,16.5.34,57.57,0,114.34-13,164.16-37.62,46.84-23.14,87.11-56.1,116.47-95.33,22.65-30.27,38-62.8,45.5-96.71,7.83-35.18,6.83-69.95-3-103.34ZM794.07,303.57C732,386.51,627.46,436,514.43,436c-5.45,0-11-.11-16.51-.34-3.25.16-6.63.25-10,.25-22.29,0-42.78-3.46-56.35-5.75-6.66-1.12-11.49-1.93-14-1.93h0C295.39,410.63,172.82,284.86,137.24,201.11c84.66,62,224.52,109.94,289.33,109.94h0c9.34,0,16.75-1,22-3.09,11.3-4.38,41.89-26.46,80.61-54.41C617.55,189.78,751.06,93.42,811.15,93.42c11.78,0,20.27,3.79,25.26,11.28C855.47,169.66,840,242.14,794.07,303.57Z"/><path class="cls-1" d="M755,84.67c-16,2.88-26,6-53.1,6.41S636.23,92.19,587.2,116.8C533.07,144,440.31,216.27,397.86,241.38s-68.49,27-100.72,19.21c-4.65-2.79-44.06-18.75-66-33.16-41.52-27.27-71.2-90.49-90.93-88.22l-21.34,7.59C111.4,201.22,251.71,363.39,415.73,369c3.3-1.86,107.94-33.21,129.79-33.52,21.69,1.39,32.54-23.55,33.16-33.32,24.22-5.68,29.18-35.22,43.23-34.39,117.14,60.12,94.83-141.94,196.27-180.78C801.34,74.65,776.55,80.77,755,84.67Z"/><path class="cls-2" d="M755,84.67c-16,2.88-26,6-53.1,6.41S636.23,92.19,587.2,116.8C533.07,144,440.31,216.27,397.86,241.38s-68.49,27-100.72,19.21c-4.65-2.79-44.06-18.75-66-33.16-41.52-27.27-71.2-90.49-90.93-88.22l-21.34,7.59C115.29,199.33,308.66,336.31,450,331.14c3.31-1.86,65.75-29.37,87.6-29.68,11.78.77,24.59-9.93,25.21-19.69,24.22-5.68,27.18-68.7,75.2-51,41,15.08,72,.31,95.46-54.79,17.56-41.21,41.34-72.39,84.74-89C801.34,74.65,776.55,80.77,755,84.67Z"/><path class="cls-3" d="M756.77,92.18c-15.95,2.88-29,5.5-56.09,5.92s-60.58,0-109.6,24.59C537,149.85,447.76,218.86,405.3,244s-75.93,24.38-108.16,16.63c-4.65-2.79-44.88-13.52-66.82-27.93-41.53-27.27-75.78-93-90.12-93.45l-15.46-2.89-5.88,10.48c-3.57,52.53,158.4,216.16,299.72,211,3.3-1.86,115.69-35.53,137.53-35.84,11.78.77,16.43-17.2,17-27,24.22-5.68,25.58-53.61,73.6-35.95,41,15.08,63.2-28,86.68-83.09,17.56-41.21,38.66-68.26,82-84.87C800.75,80.89,778.36,88.28,756.77,92.18Z"/><path class="cls-4" d="M760.56,83l-5.71,1c-3,.54-5.74,1.08-8.46,1.62a214.65,214.65,0,0,1-44.54,4.78c-26.1.4-65.54,1-114.93,25.78-32.66,16.4-79.36,49.2-120.56,78.14-26.72,18.77-52,36.5-68.82,46.46C354.09,266.53,327.9,267.33,297.38,260c-1.42-.83-5.47-2.65-11-5.15-14.65-6.59-39.16-17.62-54.89-28-20.28-13.32-37.49-35.08-52.67-54.28-10.38-13.13-19.33-24.45-27.2-30.36l-.19-.14c-6.45-5.23-11.21-2.92-11.21-2.92,9.71-1.12,22.65,15.24,37.63,34.19,15.24,19.27,32.51,41.12,53,54.55,15.81,10.38,40.38,21.44,55.06,28,5.63,2.53,9.69,4.36,11,5.13l.18.07c30.87,7.42,57.32,6.65,101.17-19.28,16.89-10,42.16-27.73,68.9-46.52,41.17-28.91,87.83-61.69,120.41-78,49.13-24.66,88.4-25.26,114.39-25.65a214.91,214.91,0,0,0,44.76-4.81c2.71-.53,5.47-1.07,8.44-1.61l5.72-1.06c19.22-3.6,41-7.67,56.09,2.57-43.59,17.34-64.52,65.53-83,108.08C718,231.45,703,266,676.31,275.54c-15,5.36-32.7,2.62-54.12-8.38l-.24-.06c-6.82-.4-11.52,5.89-17,13.17-6.39,8.55-13.62,18.23-26.45,21.24l-.45.11,0,.46c-.3,4.82-3.11,13.3-8.55,20.5-4.53,6-12.34,13-24,12.23-21.06.3-123.88,30.74-129.92,33.51-106.76-3.68-203.57-74.9-254-134.79-28.95-34.35-45.31-67.58-42.68-86.73,0,0-2.41,4.94-.44,13.88,0,.12,0,.24.08.36,4.13,19.58,19.19,46.12,42.09,73.29,29.09,34.51,67.36,66.43,107.77,89.89,48.3,28,99.26,43.72,147.35,45.35h.17l.15-.09c3.82-2.15,108.29-33.14,129.45-33.44,12.16.77,20.31-6.49,25-12.72,5.43-7.19,8.31-15.65,8.76-20.72,13-3.23,20.6-13.4,26.72-21.6,5.19-6.94,9.72-12.94,15.77-12.68,21.69,11.11,39.67,13.85,55,8.37C703.91,267,719,232.19,735,195.36c18.54-42.68,39.55-91.05,83.38-107.84l1.06-.4-.92-.68C803,75.06,780.43,79.28,760.56,83Z"/><path class="cls-1" d="M280.82,246.49a418.45,418.45,0,0,0-21.18-44.32c-9.85-17.62-23.87-23.57-26.65-21.07-3.38,3.05,4.15,15.65,0,30.22s-6.33,27.83,6.22,35.73l57.42,13.89C292.06,254.44,283.4,253.62,280.82,246.49Z"/><path class="cls-3" d="M280.82,246.49c-1.29-3.56-9.89-25.53-21.18-44.32-9.39-15.65-18.13-20.11-20.91-17.61-3.39,3.05,3.84,12.29-.31,26.86s-9.42,26.55.79,35.63l25.14,10.28,32.28,3.61C292.06,254.44,283.4,253.62,280.82,246.49Z"/><path class="cls-2" d="M242.5,185.59c16,21.08,21.69,38.73,35.48,59.66C273.65,232.85,255.67,192,242.5,185.59Z"/><path class="cls-4" d="M289.42,253.73c-3.44-1.94-6.69-3.77-8-7.45a412.32,412.32,0,0,0-21.22-44.41c-8.06-14.42-18.82-21-24.07-21.82a4.18,4.18,0,0,0-3.53.59c-1.72,1.55-1.12,4.78-.29,9.25,1,5.54,2.43,13.12.11,21.26-3.21,11.26-5.67,22.74,0,31.1a5,5,0,0,0,.42.6c4,4.53,6.42,4.2,6.42,4.2-12.34-7.77-9.7-21.26-5.62-35.56,2.4-8.42,1-16.17-.09-21.83-.72-3.92-1.3-7-.09-8.1a3.24,3.24,0,0,1,2.5-.29c5,.83,15.34,7.16,23.19,21.21a422.29,422.29,0,0,1,21.14,44.22c1.48,4.11,5.09,6.15,8.57,8.11,2.87,1.62,5.83,3.29,7.82,6.13l1-.71C295.49,257.16,292.4,255.42,289.42,253.73Z"/><path class="cls-1" d="M621,108.5c-12.74,4.53-22.07,11-20.84,14.49s12.57,2.6,25.31-1.94,22.08-11,20.85-14.49S633.73,104,621,108.5Z"/><path class="cls-8" d="M622.09,111.61c-9.59,3.41-16.61,8.29-15.68,10.9s9.46,1.95,19-1.46,16.61-8.3,15.68-10.9S631.68,108.19,622.09,111.61Z"/><path class="cls-4" d="M640.21,103.81c-5,0-12.12,1.5-19.43,4.1A69.74,69.74,0,0,0,605,115.63c-3,2.06-6.31,5.05-5.41,7.57.6,1.68,2.84,2.53,6.66,2.53,5,0,12.12-1.49,19.44-4.1a69.32,69.32,0,0,0,15.81-7.72c3-2.06,6.31-5,5.41-7.56C646.28,104.67,644,103.81,640.21,103.81Zm.55,9.08a68.34,68.34,0,0,1-15.51,7.58c-7.19,2.55-14.13,4-19,4-3.1,0-5.11-.62-5.49-1.71-.48-1.35,1.37-3.64,4.94-6.13a68.65,68.65,0,0,1,15.52-7.57c7.19-2.56,14.12-4,19-4,3.11,0,5.12.63,5.5,1.71C646.19,108.11,644.34,110.4,640.76,112.89Z"/><path class="cls-9" d="M623.77,8.64a14,14,0,1,0,14,14A14,14,0,0,0,623.77,8.64Z"/><path class="cls-10" d="M623.77,8.64a14.28,14.28,0,0,0-2,.16c-7.43,2.67-8.37,11.84-5.49,17.35,4.32,8.27,16.42,9.53,19.86,2.81a13.93,13.93,0,0,0-12.4-20.32Z"/><path class="cls-11" d="M627.59,11.85c-3.76,0-6.81,2.73-6.81,6.09s3.05,6.1,6.81,6.1,6.82-2.73,6.82-6.1S631.36,11.85,627.59,11.85Z"/><path class="cls-12" d="M623.77,8a14.57,14.57,0,1,0,14.57,14.57A14.58,14.58,0,0,0,623.77,8Zm0,27.9A13.33,13.33,0,1,1,637.1,22.59,13.35,13.35,0,0,1,623.77,35.92Z"/><path class="cls-9" d="M595.26,59.16a13.95,13.95,0,1,0,14,13.94A13.95,13.95,0,0,0,595.26,59.16Z"/><path class="cls-10" d="M595.26,59.16a14.16,14.16,0,0,0-2,.15c-7.43,2.68-8.37,11.84-5.49,17.36,4.32,8.26,16.42,9.53,19.86,2.8a13.93,13.93,0,0,0-12.4-20.31Z"/><path class="cls-11" d="M599.08,62.36c-3.76,0-6.81,2.73-6.81,6.09s3.05,6.1,6.81,6.1,6.82-2.73,6.82-6.1S602.85,62.36,599.08,62.36Z"/><path class="cls-12" d="M595.26,58.54A14.57,14.57,0,1,0,609.82,73.1,14.58,14.58,0,0,0,595.26,58.54Zm0,27.89A13.33,13.33,0,1,1,608.59,73.1,13.35,13.35,0,0,1,595.26,86.43Z"/><path class="cls-9" d="M592.14,1.23a7.42,7.42,0,1,0,7.42,7.41A7.42,7.42,0,0,0,592.14,1.23Z"/><path class="cls-10" d="M592.14,1.23a7.2,7.2,0,0,0-1,.08c-4,1.42-4.45,6.3-2.92,9.23,2.3,4.4,8.74,5.07,10.56,1.49a7.4,7.4,0,0,0-6.59-10.8Z"/><path class="cls-11" d="M594.17,2.93a3.44,3.44,0,0,0-3.62,3.24,3.65,3.65,0,0,0,7.25,0A3.45,3.45,0,0,0,594.17,2.93Z"/><path class="cls-12" d="M592.14.9a7.75,7.75,0,1,0,7.75,7.74A7.75,7.75,0,0,0,592.14.9Zm0,14.83a7.09,7.09,0,1,1,7.09-7.09A7.1,7.1,0,0,1,592.14,15.73Z"/><path class="cls-9" d="M631,73.43a7.42,7.42,0,1,0,7.41,7.42A7.42,7.42,0,0,0,631,73.43Z"/><path class="cls-10" d="M631,73.43a8.93,8.93,0,0,0-1.05.08c-3.95,1.43-4.45,6.3-2.92,9.24,2.29,4.39,8.73,5.06,10.56,1.49A7.42,7.42,0,0,0,631,73.43Z"/><path class="cls-11" d="M633,75.14a3.26,3.26,0,1,0,3.63,3.24A3.44,3.44,0,0,0,633,75.14Z"/><path class="cls-12" d="M631,73.1a7.75,7.75,0,1,0,7.74,7.75A7.76,7.76,0,0,0,631,73.1Zm0,14.84a7.09,7.09,0,1,1,7.08-7.09A7.1,7.1,0,0,1,631,87.94Z"/><circle class="cls-9" cx="621.63" cy="103.81" r="7.42"/><path class="cls-10" d="M621.63,96.39a7.19,7.19,0,0,0-1,.09c-4,1.42-4.45,6.29-2.92,9.23,2.3,4.39,8.74,5.07,10.56,1.49a7.4,7.4,0,0,0-6.59-10.81Z"/><ellipse class="cls-11" cx="623.66" cy="101.34" rx="3.63" ry="3.24"/><path class="cls-12" d="M621.63,96.07a7.75,7.75,0,1,0,7.75,7.74A7.75,7.75,0,0,0,621.63,96.07Zm0,14.83a7.09,7.09,0,1,1,7.09-7.09A7.1,7.1,0,0,1,621.63,110.9Z"/><path class="cls-2" d="M602.15,206.66l52.29-8.59C643,184.13,614.71,184,602.15,206.66Z"/><path class="cls-3" d="M602.15,206.66H633l21.42-8.59C642.5,190.11,616.9,187.49,602.15,206.66Z"/><path class="cls-4" d="M649,191.83l-.18-.11a33.29,33.29,0,0,0-19.66-4.08,35.14,35.14,0,0,0-21.81,10.13l-.41.41a17.32,17.32,0,0,0-4.74,8.48,34.15,34.15,0,0,1,27.07-17.79c10.13-.92,19.79,2.61,25.22,9.2C654.44,198.07,654.44,195.1,649,191.83Z"/><path class="cls-13" d="M808.67,87.56c-24,6.41-48.08,26.87-65.64,66.33s-29.39,93.79-61.62,110.83-39.11-5.94-61.55,3.1c6.7,14.36,29.17,23.86,61.55,12,34.91-12.8,49.25-52.57,62.81-87.7,14.66-38,34-76.26,57.84-86.77,25.62-11.31,34.94-2.69,37.17,7.44C842.35,100.37,832.64,81.16,808.67,87.56Z"/><path class="cls-14" d="M808.67,87.56c-24,6.41-48.08,26.87-65.64,66.33s-29.39,93.79-61.62,110.83-39.92-5.06-54.64,3.15c6,11.11,25.26,17.31,54.23,6.51,32.87-12.25,44.55-49,58.11-84.14,14.66-38,37.26-79.52,61-90,25.61-11.31,39.64-1.09,39.07,12.55C842.35,100.37,832.64,81.16,808.67,87.56Z"/><path class="cls-15" d="M817.72,85.67a35.85,35.85,0,0,0-9.21,1.3c-18.83,5-45.58,20.68-66,66.67-4.36,9.78-8.44,20.7-12.4,31.26-12.24,32.72-24.9,66.56-49,79.27-8.16,4.32-15.41,6.42-22.16,6.42-5.77,0-10.51-1.48-15.11-2.91-4.4-1.38-8.55-2.67-13.37-2.67a28.7,28.7,0,0,0-10.85,2.23l-.6.25.27.59c5.1,10.93,18.33,17.72,34.53,17.72a81,81,0,0,0,27.79-5.42c34.08-12.5,48.87-50.89,61.91-84.76l1.26-3.29c19.1-49.51,37.92-77.78,57.52-86.43,8-3.52,14.82-5.3,20.4-5.3,10.91,0,14.68,6.69,15.92,12.31l.57,2.56.64-2.55a23,23,0,0,0-4.25-19C832.66,90.15,827.17,85.67,817.72,85.67Zm5,13.69c-5.75,0-12.78,1.82-20.9,5.4-19.92,8.8-38.95,37.3-58.17,87.12l-1.27,3.29c-13,33.63-27.62,71.74-61.17,84.05a80.12,80.12,0,0,1-27.37,5.34c-15.42,0-28-6.27-33.12-16.41a27.1,27.1,0,0,1,9.77-1.9c4.63,0,8.7,1.27,13,2.61,4.68,1.46,9.53,3,15.48,3,7,0,14.4-2.15,22.74-6.56,24.46-12.94,37.21-47,49.54-79.93,3.94-10.55,8-21.45,12.36-31.19,20.27-45.55,46.66-61,65.23-66a34.66,34.66,0,0,1,8.89-1.25c8.95,0,14.13,4.23,16.89,7.77A22,22,0,0,1,839.08,110C837.33,105.21,833.07,99.36,822.71,99.36Z"/><path class="cls-1" d="M528.83,293.43l-51.57,18.4c-63.79,24.44-64.22,52.37-63.6,61.25.37,5.29,2.41,7.54-3.41,15.5-7,9.6-4.85,19.62-1.86,27.27S410.7,427,406.92,434c-4.1,7.59-1.32,16.37,1.78,26.49s-14.87,53-7.74,57.64,90.76-34.49,111.19-102.44C531.11,352.63,592.05,304.89,528.83,293.43Z"/><path class="cls-2" d="M528.83,293.43l-51.57,18.4c-48.57,21.17-43.4,52.37-42.78,61.25.37,5.29.86,10-5,18-7,9.61-3.92,11.57-.93,19.22s9.36,19.38,5.58,26.37c-4.11,7.6-6.51,6-3.41,16.08s-33.78,71-9.05,58.71c16-9.59,67.16-33.61,90.44-95.76C531.11,352.63,592.05,304.89,528.83,293.43Z"/><path class="cls-3" d="M528.83,293.43l-38.75.11-12.82,18.29c-48.57,21.17-53.63,51.64-53,60.53.37,5.29,2.1,9.91-3.72,17.87-7,9.61-2.27,16.22.73,23.86s.47,15.56-3.31,22.55c-4.1,7.6.93,11.95,4,22.07s-25,65-.27,52.72c16-9.59,65.22-39.49,85.13-98.06C525.8,350.32,578.9,305,528.83,293.43Z"/><path class="cls-4" d="M539.18,294.68l-.34-.1a22.64,22.64,0,0,0-10-1.15c14.21,2.58,22.69,7.15,25.9,14,5.54,11.78-4.32,29.34-16.82,51.56-9.43,16.79-20.13,35.82-26.35,56.51-16.26,54.08-74.1,90.79-99.56,100.1-6.51,2.38-9.8,2.6-10.71,2-3.52-2.3.23-16.82,3.54-29.64,3.05-11.78,5.92-22.91,4.47-27.66l-.15-.47c-3-9.82-5.6-18.3-1.68-25.55,3.83-7.09,4.59-10.78,1.5-18.65-2.65-6.78-5.36-16.91,1.78-26.68,4.83-6.6,4.4-9.48,3.86-13.12-.13-.87-.26-1.77-.33-2.78-1.65-23.63,20.13-44.79,63-61.21,0,0-6.33.67-17.46,6.14l-.37.17c-31.87,15.42-47.83,34.24-46.39,55,.08,1.07.21,2,.35,2.88.52,3.49.89,6-3.64,12.21-7.5,10.26-4.7,20.81-1.93,27.86,2.92,7.47,2.24,10.79-1.44,17.61-4.17,7.7-1.5,16.42,1.59,26.51l.14.46c1.35,4.42-1.61,15.89-4.48,27-3.74,14.5-7.28,28.21-3,31a4,4,0,0,0,2.14.47c2.6,0,6.48-1.18,9.67-2.35,12-4.39,33.22-15.71,53.38-33.14,16.37-14.14,37.8-37.38,46.94-67.76,6.18-20.56,16.84-39.53,26.24-56.26,12.67-22.54,22.68-40.34,16.86-52.7C553.33,301.52,547.84,297.49,539.18,294.68Z"/><path class="cls-3" d="M734.92,179.86c26.81-60.58,52.06-86.15,87.08-91C787.29,88.35,754.29,119.9,734.92,179.86Z"/><path class="cls-2" d="M761.52,395.83c-3.75-2.43-38-6.5-48.45-13.35C716,389.92,748.3,395.11,761.52,395.83Z"/></svg>