<svg xmlns="http://www.w3.org/2000/svg" xmlns:xlink="http://www.w3.org/1999/xlink" width="256" height="256" viewBox="0 0 256 256">
  <defs>
    <style>
      .cls-1 {
        isolation: isolate;
      }

      .cls-2 {
        opacity: 0.2;
      }

      .cls-3 {
        fill: #52993a;
      }

      .cls-4 {
        fill: #1c0e0d;
        opacity: 0.29;
      }

      .cls-4, .cls-6, .cls-8 {
        mix-blend-mode: multiply;
      }

      .cls-5 {
        fill: #087039;
      }

      .cls-6 {
        fill: url(#linear-gradient);
      }

      .cls-7 {
        fill: #6a9d41;
      }

      .cls-8 {
        fill: url(#linear-gradient-2);
      }

      .cls-14, .cls-9 {
        mix-blend-mode: screen;
      }

      .cls-9 {
        fill: url(#linear-gradient-3);
      }

      .cls-10 {
        fill: #89af35;
      }

      .cls-11 {
        fill: #99ca3c;
      }

      .cls-12 {
        fill: #fff;
      }

      .cls-13 {
        fill: #e6e982;
      }

      .cls-14 {
        fill: url(#linear-gradient-4);
      }

      .cls-15 {
        fill: #756629;
      }

      .cls-16 {
        fill: #400f28;
      }

      .cls-17 {
        fill: #f38183;
      }

      .cls-18 {
        fill: #bf3e3f;
      }

      .cls-19 {
        fill: url(#radial-gradient);
      }

      .cls-20 {
        fill: url(#radial-gradient-2);
      }

      .cls-21 {
        fill: #466d33;
      }
    </style>
    <linearGradient id="linear-gradient" x1="74.23" y1="167.02" x2="25.1" y2="122.7" gradientTransform="translate(7.99 9.35) rotate(0.18)" gradientUnits="userSpaceOnUse">
      <stop offset="0" stop-color="#90ae5c"/>
      <stop offset="0.06" stop-color="#98b565"/>
      <stop offset="0.29" stop-color="#b2ca80"/>
      <stop offset="0.52" stop-color="#c5d993"/>
      <stop offset="0.76" stop-color="#d0e29f"/>
      <stop offset="1" stop-color="#d4e5a3"/>
    </linearGradient>
    <linearGradient id="linear-gradient-2" x1="-6168.68" y1="167.09" x2="-6217.75" y2="122.82" gradientTransform="matrix(-1, 0, 0, 1, -5991.06, -9.27)" xlink:href="#linear-gradient"/>
    <linearGradient id="linear-gradient-3" x1="120.21" y1="89.45" x2="120.02" y2="34.11" gradientTransform="translate(7.99 9.35) rotate(0.18)" gradientUnits="userSpaceOnUse">
      <stop offset="0" stop-color="#fff"/>
      <stop offset="0.1" stop-color="#cfcfcf"/>
      <stop offset="0.23" stop-color="#999"/>
      <stop offset="0.37" stop-color="#6a6a6a"/>
      <stop offset="0.5" stop-color="#444"/>
      <stop offset="0.63" stop-color="#262626"/>
      <stop offset="0.75" stop-color="#111"/>
      <stop offset="0.88" stop-color="#040404"/>
      <stop offset="0.99"/>
    </linearGradient>
    <linearGradient id="linear-gradient-4" x1="120.09" y1="120.23" x2="120.84" y2="65.78" xlink:href="#linear-gradient-3"/>
    <radialGradient id="radial-gradient" cx="2532.19" cy="-58.72" r="7.41" gradientTransform="matrix(0.74, 0, 0, 0.91, -1754.93, 110.49)" gradientUnits="userSpaceOnUse">
      <stop offset="0.33" stop-color="#190c0c"/>
      <stop offset="0.6" stop-color="#37100f"/>
      <stop offset="0.79" stop-color="#481211"/>
      <stop offset="0.8" stop-color="#4a1211"/>
      <stop offset="0.9" stop-color="#5f0e0e"/>
      <stop offset="0.97" stop-color="#660d0d"/>
    </radialGradient>
    <radialGradient id="radial-gradient-2" cx="2519.3" cy="-58.52" r="7.56" xlink:href="#radial-gradient"/>
  </defs>
  <g class="cls-1">
    <g id="Layer_1" data-name="Layer 1">
      <g>
        <g class="cls-2">
          <ellipse cx="128" cy="204.24" rx="110" ry="48.87"/>
        </g>
        <g>
          <g>
            <g>
              <path class="cls-3" d="M41.36,181.25c-2.34-4.22-6.12-8.33-10.49-7.89-6,.6-6.22,9.68-2.22,13.07,3.73,3.18,7.06,2.27,12-.16,2.3.15,14.42,2.5,17,3.14a108.32,108.32,0,0,0-22.07,3c-2.33-3.07-7.27-5.75-11-2.42-3.87,3.49-2.57,10.69,1.84,13,4.19,2.24,8.47-.64,10.4-4.42,4-.89,24.45-2.27,24.45-2.27-12.48,5.54-20.82,8.59-20.82,8.59-4.34-2.64-8.58-1.59-10.57,2-2.1,3.74-.71,11.64,5.83,11.06,4-.36,6.1-3.33,7.31-5.7,3.1-1.18,37.89-17,52.13-11.82-6.42-7.84-10-11.85-13.07-12.62C74.18,185.84,51.58,181.28,41.36,181.25Z"/>
              <path class="cls-4" d="M40.55,184.74c-4.2,1.77-15,4.27-14.26-7.31-.88,3,0,7,2.36,9,3.73,3.18,7.06,2.27,12-.16,1.57.1,7.66,1.22,12.21,2.12.06-.22,7.65,1.51,7.65,1.34A113.6,113.6,0,0,0,40.55,184.74Z"/>
              <path class="cls-4" d="M42.08,210.74c-2.07,5.06-10.24,8.5-13,1.1.37,3.3,2.44,6.49,6.68,6.12,4-.36,6.1-3.33,7.31-5.7,3.1-1.18,37.89-17,52.13-11.82q-2-2.46-3.67-4.42C75,197.69,58.05,203.92,42.08,210.74Z"/>
              <path class="cls-4" d="M36.53,197c-4.08,5.67-12.18,6.78-14.2-1.36A8.48,8.48,0,0,0,26.46,203c4.19,2.24,8.47-.64,10.4-4.42,2.7-.61,20.36-2.32,26.69-2.79A121.73,121.73,0,0,0,36.53,197Z"/>
              <path class="cls-5" d="M35.06,218.36a5.83,5.83,0,0,1-5.49-3.56,9.5,9.5,0,0,1,.09-8.11c2.14-3.82,6.59-4.71,10.86-2.18,1-.37,8.22-3.06,18.69-7.65-5.26.37-18.78,1.37-22.16,2.08-2,3.86-6.46,6.71-10.72,4.43a8.76,8.76,0,0,1-4.27-7,7.91,7.91,0,0,1,2.37-6.72c3.83-3.46,8.85-.75,11.28,2.32l.93-.2a101.83,101.83,0,0,1,18-2.66c-4.5-.93-12.07-2.34-13.95-2.49-5.2,2.54-8.53,3.25-12.24.09-2.23-1.9-3.33-5.65-2.6-8.92.62-2.82,2.44-4.58,5-4.84,5.28-.54,9.17,5.21,10.68,7.89,10.5.09,33,4.67,40.66,6.58,3.06.77,6.4,4.38,13.23,12.73l.86,1-1.17-.43c-8.46-3.1-25.34.63-50.17,11.08l-1.67.69c-1.86,3.6-4.31,5.48-7.49,5.76Zm.67-14.52a6.17,6.17,0,0,0-5.56,3.27,8.57,8.57,0,0,0-.07,7.31,5.34,5.34,0,0,0,5.63,3.16c4-.35,5.94-3.32,7.06-5.52l.07-.12.11,0,1.76-.73c23.92-10.07,40.53-13.91,49.43-11.45-6.08-7.39-9.34-10.84-12.1-11.53-7.69-1.92-30.32-6.53-40.7-6.57h-.17l-.09-.16c-1.38-2.5-5.15-8.24-10.21-7.73A5,5,0,0,0,26.47,178a8.66,8.66,0,0,0,2.36,8.11c3.51,3,6.57,2.31,11.71-.21l.06,0h.07c2.29.15,14.42,2.5,17,3.15l2.8.69-2.86.05a100,100,0,0,0-20.9,2.76c-1,.24-1.12.25-1.23.23l-.1,0-.06-.09c-2.23-2.92-7-5.59-10.56-2.37a7.16,7.16,0,0,0-2.13,6,8,8,0,0,0,3.91,6.36c4,2.13,8.14-.61,10-4.28l.07-.14.13,0c3.94-.89,23.65-2.22,24.49-2.27l2.08-.14-2,.87c-12.34,5.48-20.75,8.56-20.83,8.59l-.12,0-.11-.07A9,9,0,0,0,35.73,203.84Z"/>
            </g>
            <path class="cls-3" d="M83.78,129.11c-6.68-6.89-15.13-10.76-27.31-10.72A73.73,73.73,0,0,1,43,117.64c-4.14-.71-12-1.89-14.84,6.79s5.69,19.43,10.27,27.27,8.84,17.57,16.67,25.77c8.9,9.33,20.67,16.25,32.62,15C73,169,83.78,129.11,83.78,129.11Z"/>
            <path class="cls-6" d="M43,133.18c5.77,23.57,24.15,40.34,30.63,42.12,2.27-12.67.72-10,.72-10C62.23,163.7,49.67,152.57,43,133.18Z"/>
            <path class="cls-5" d="M84.89,193c-9.9,0-20.66-5.46-30-15.21-6-6.32-10-13.64-13.51-20.09-1.1-2-2.14-3.92-3.2-5.75-.81-1.38-1.73-2.84-2.71-4.38-4.45-7-10-15.8-7.6-23.25,3-9.13,11.51-7.65,15.17-7a74.53,74.53,0,0,0,13.4.74C68,118,76.79,121.41,84,128.82l.16.16-.07.25A132.1,132.1,0,0,0,80.54,152c-.77,11.7-.1,28.17,7.46,40.18l.34.54-.56.06A27.68,27.68,0,0,1,84.89,193ZM38.36,117.51c-3.73,0-8,1.22-9.88,7.06-2.28,7.05,2.93,15.26,7.52,22.51,1,1.55,1.9,3,2.71,4.4,1.07,1.84,2.11,3.75,3.21,5.77,3.49,6.42,7.45,13.69,13.41,19.94,9.91,10.38,21.48,15.81,31.84,14.93-7.37-12.14-8-28.5-7.25-40.16a135.06,135.06,0,0,1,3.5-22.73c-7-7.09-15.4-10.42-26.53-10.46h-.42A74.62,74.62,0,0,1,43,118,27.87,27.87,0,0,0,38.36,117.51Z"/>
            <path class="cls-7" d="M82.41,178.57c-8.29,0-14-5-20.51-11.55a64.73,64.73,0,0,1-7.63-9.26,83.08,83.08,0,0,1-6.05-10.46,54.08,54.08,0,0,1-4.6-13.5c.05.2,5.19,19.2,18.67,32.63,6.45,6.44,12,11.36,20.12,11.39Z"/>
          </g>
          <g>
            <g>
              <path class="cls-3" d="M217.42,181.91c2.36-4.2,6.16-8.28,10.53-7.81,6,.65,6.16,9.73,2.15,13.09-3.75,3.15-7.07,2.21-12-.25-2.29.13-14.42,2.39-17,3a108.49,108.49,0,0,1,22,3.15c2.35-3,7.31-5.68,11-2.33,3.85,3.52,2.52,10.7-1.91,13-4.2,2.21-8.46-.71-10.37-4.5-4-.93-24.44-2.45-24.44-2.45,12.45,5.63,20.77,8.74,20.77,8.74,4.36-2.61,8.59-1.52,10.57,2.06,2.07,3.76.65,11.64-5.89,11-4-.39-6.09-3.37-7.28-5.75-3.1-1.2-37.81-17.32-52.07-12.21,6.46-7.8,10.06-11.78,13.13-12.52C184.58,186.26,207.19,181.87,217.42,181.91Z"/>
              <path class="cls-4" d="M218.21,185.41c4.19,1.8,15,4.38,14.29-7.2.87,3,0,7-2.4,9-3.75,3.15-7.07,2.21-12-.25-1.56.09-7.65,1.16-12.21,2-.06-.22-7.66,1.45-7.65,1.28A113.77,113.77,0,0,1,218.21,185.41Z"/>
              <path class="cls-4" d="M216.54,211.39c2.05,5.09,10.2,8.58,13,1.2-.38,3.31-2.47,6.48-6.71,6.07-4-.39-6.09-3.37-7.28-5.75-3.1-1.2-37.81-17.32-52.07-12.21,1.35-1.63,2.57-3.09,3.7-4.39C183.7,198.1,200.61,204.46,216.54,211.39Z"/>
              <path class="cls-4" d="M222.17,197.71c4.05,5.7,12.14,6.87,14.2-1.25a8.49,8.49,0,0,1-4.17,7.34c-4.2,2.21-8.46-.71-10.37-4.5-2.7-.63-20.35-2.48-26.68-3A121.32,121.32,0,0,1,222.17,197.71Z"/>
              <path class="cls-5" d="M222.81,219c-3.17-.31-5.61-2.21-7.46-5.82l-1.66-.7c-24.78-10.64-41.64-14.5-50.11-11.46l-1.17.42.86-1c6.87-8.29,10.23-11.88,13.29-12.62,7.68-1.85,30.2-6.27,40.7-6.28,1.52-2.67,5.44-8.38,10.72-7.8,2.53.27,4.33,2.05,4.94,4.88.71,3.27-.4,7-2.65,8.89-3.72,3.13-7,2.4-12.23-.18-1.89.13-9.46,1.49-14,2.38a102.54,102.54,0,0,1,18,2.8l.92.21c2.45-3.06,7.48-5.72,11.29-2.24a7.94,7.94,0,0,1,2.34,6.74,8.75,8.75,0,0,1-4.31,6.94c-4.27,2.24-8.67-.63-10.69-4.51-3.38-.73-16.9-1.84-22.16-2.25,10.45,4.67,17.67,7.42,18.66,7.79,4.28-2.49,8.73-1.57,10.84,2.26a9.5,9.5,0,0,1,.06,8.11,5.83,5.83,0,0,1-5.51,3.52Zm-4.51-13.12-.11.07-.12,0c-.08,0-8.47-3.18-20.79-8.75l-1.95-.88,2.08.15c.84.06,20.54,1.54,24.47,2.46l.14,0,.07.14c1.86,3.68,6,6.46,10,4.36a8,8,0,0,0,3.95-6.34,7.12,7.12,0,0,0-2.11-6.05c-3.56-3.25-8.32-.62-10.56,2.29l-.07.09-.1,0c-.1,0-.18,0-1.22-.24a101.65,101.65,0,0,0-20.89-2.91l-2.85-.07,2.8-.67c2.61-.63,14.76-2.89,17.05-3h.07l.06,0c5.13,2.56,8.18,3.26,11.71.3a8.61,8.61,0,0,0,2.4-8.09,5,5,0,0,0-4.4-4.32c-5.06-.55-8.85,5.16-10.25,7.64l-.09.17h-.16c-10.39,0-33,4.4-40.74,6.26-2.76.67-6,4.09-12.16,11.44,8.91-2.4,25.51,1.57,49.38,11.82l1.75.74.11,0,.06.12c1.11,2.21,3.05,5.19,7,5.58a5.31,5.31,0,0,0,5.64-3.12,8.57,8.57,0,0,0,0-7.31,6.19,6.19,0,0,0-5.54-3.32A9.1,9.1,0,0,0,218.3,205.92Z"/>
            </g>
            <path class="cls-3" d="M175.26,129.45c6.72-6.84,15.19-10.64,27.37-10.51a73.72,73.72,0,0,0,13.44-.65c4.14-.68,12.05-1.8,14.8,6.9s-5.79,19.39-10.4,27.2-8.94,17.5-16.8,25.64c-8.95,9.27-20.76,16.09-32.71,14.73C185.84,169.44,175.26,129.45,175.26,129.45Z"/>
            <path class="cls-8" d="M216.06,133.84c-5.89,23.52-24.36,40.15-30.84,41.88-2.21-12.69-.67-10.05-.67-10.05C196.63,164.21,209.26,153.17,216.06,133.84Z"/>
            <path class="cls-5" d="M170.94,193.14l-.57-.07.35-.54c7.62-11.95,8.38-28.42,7.66-40.13A132,132,0,0,0,175,129.57l-.07-.24.16-.17c7.23-7.36,16-10.73,27.57-10.59a74.26,74.26,0,0,0,13.4-.65c3.66-.6,12.23-2,15.13,7.14,2.37,7.46-3.22,16.18-7.72,23.19-1,1.54-1.91,3-2.72,4.36-1.08,1.82-2.12,3.71-3.23,5.72-3.54,6.43-7.56,13.72-13.62,20-9.36,9.68-20.14,15-30.05,15A27.49,27.49,0,0,1,170.94,193.14Zm45.17-74.47a74.36,74.36,0,0,1-13.48.65h-.43c-11.13,0-19.59,3.22-26.58,10.26A134.36,134.36,0,0,1,179,152.33c.71,11.67,0,28-7.45,40.11,10.36.95,21.95-4.38,31.92-14.69,6-6.21,10-13.45,13.5-19.83,1.11-2,2.16-3.92,3.24-5.75.82-1.39,1.76-2.84,2.74-4.38,4.63-7.22,9.87-15.39,7.64-22.46-1.86-5.85-6.12-7.11-9.85-7.13A27.26,27.26,0,0,0,216.11,118.67Z"/>
            <path class="cls-7" d="M176.38,178.93c8.29,0,14-4.93,20.57-11.4a64.64,64.64,0,0,0,7.67-9.2,82.88,82.88,0,0,0,6.11-10.42,53.86,53.86,0,0,0,4.67-13.46c-.05.19-5.29,19.16-18.84,32.49-6.49,6.38-12.09,11.26-20.18,11.23Z"/>
          </g>
          <path class="cls-3" d="M182.45,43.75c-.68-2.09,4.75-12.37.66-25.06C179.27,6.75,169,1.06,159,4.17c-7.87,2.44-16.25,12.09-17.47,13.66s-3.56,4.51-6,3.22c-4.88-2.54-9.16-2.83-14.89-.05-2.61,1.26-4.82-1.7-6-3.27S105.09,6.09,97.16,3.94C87.48,1.32,77,6.33,73.06,18.77c-4,12.67,1.11,22.48.42,24.57S62,49.06,62.54,64.7s16.23,33.23,20.65,56.71c-2.94,2.93-10.69,19.22-6.64,36.64-2.33,47.75,80.7,83.19,102.25.39,4.13-17.39-3.54-33.74-6.46-36.69,4.54-23.44,20.33-40.91,20.94-56.55S183.13,45.85,182.45,43.75Z"/>
          <path class="cls-9" d="M82.65,64c8.19,11.41,26.91,15.64,45.16,15.58,19.77-.06,39.06-5.28,45.37-15.24C153.52,80.45,101.94,80.63,82.65,64Z"/>
          <g>
            <ellipse class="cls-10" cx="94.04" cy="33.1" rx="25.36" ry="18.84" transform="translate(60.84 127.11) rotate(-89.94)"/>
            <ellipse class="cls-11" cx="94.51" cy="33.53" rx="16.61" ry="20.6"/>
            <ellipse class="cls-12" cx="94.03" cy="36.21" rx="16.61" ry="20.37"/>
            <path class="cls-7" d="M77.11,36.14c0-11.44,7.65-20.72,17-20.68S111,24.83,111,36.27,103.31,57,94,57,77.08,47.58,77.11,36.14Zm.62,0c0,11,7.26,20,16.25,20.05s16.33-8.91,16.36-19.93-7.26-20-16.25-20.06S77.76,25.12,77.73,36.15Z"/>
            <path d="M111,36.27c.3-21.45-24.86-30.34-32.89-7C87,10.54,108.49,16.27,111,36.27Z"/>
          </g>
          <ellipse cx="94.02" cy="41.48" rx="8.01" ry="9.83"/>
          <path class="cls-12" d="M86,34.9c0,2,1.35,3.68,3,3.69s3-1.64,3-3.67-1.34-3.69-3-3.7S86,32.86,86,34.9Z"/>
          <path class="cls-3" d="M105.38,59l-15.79.51-14.91-5S86.67,45.79,105.38,59Z"/>
          <path class="cls-7" d="M98.27,54.27c2.34,1,7.17,4.82,7.17,4.82C87,46.69,74.81,54.37,74.68,54.45A14.34,14.34,0,0,1,83,51.31,31.73,31.73,0,0,1,98.27,54.27Z"/>
          <g>
            <ellipse class="cls-10" cx="161.66" cy="33.36" rx="25.36" ry="18.84" transform="translate(128.13 194.98) rotate(-89.94)"/>
            <ellipse class="cls-11" cx="161.18" cy="33.78" rx="16.62" ry="20.6"/>
            <ellipse class="cls-12" cx="161.65" cy="36.46" rx="16.62" ry="20.37"/>
            <path class="cls-7" d="M161.6,57.21c-9.34,0-16.9-9.37-16.87-20.81s7.64-20.72,17-20.69,16.9,9.38,16.87,20.82S170.93,57.25,161.6,57.21Zm.1-40.74c-9,0-16.33,8.91-16.36,19.93s7.27,20,16.26,20.06S177.93,47.55,178,36.52,170.69,16.5,161.7,16.47Z"/>
            <path d="M144.73,36.4c-.2-21.46,25-30.16,32.92-6.7C168.84,10.85,147.3,16.41,144.73,36.4Z"/>
          </g>
          <ellipse cx="161.64" cy="41.74" rx="8.01" ry="9.83"/>
          <path class="cls-12" d="M160.4,35.18c0,2-1.37,3.67-3,3.67s-3-1.66-3-3.7,1.36-3.67,3-3.67S160.4,33.14,160.4,35.18Z"/>
          <path class="cls-3" d="M150.19,59.12l15.78.63,14.94-4.9S169,46.1,150.19,59.12Z"/>
          <path class="cls-7" d="M157.32,54.49c-2.35,1-7.19,4.77-7.19,4.77,18.49-12.26,30.65-4.49,30.78-4.41a14.39,14.39,0,0,0-8.29-3.2A31.67,31.67,0,0,0,157.32,54.49Z"/>
          <path class="cls-5" d="M127.62,208.46a48.71,48.71,0,0,1-10.45-1.2A55.11,55.11,0,0,1,87.8,189.61c-8-9.22-12.09-20.41-11.56-31.52-3.88-16.79,3.12-33.09,6.61-36.81-2.22-11.57-7.25-21.84-11.68-30.91-4.65-9.51-8.67-17.72-8.94-25.65-.41-12.16,5.83-17.14,9.18-19.81.89-.71,1.66-1.32,1.78-1.71a10.58,10.58,0,0,0-.51-3.46c-1-4.5-2.74-12,.09-21.1,1.88-6,5.35-10.58,10-13.27a18.85,18.85,0,0,1,14.42-1.8c8.66,2.35,17.47,13.79,17.55,13.9l0,.06c1.22,1.6,3.26,4.27,5.64,3.12,5.52-2.68,9.9-2.66,15.12.06,2.33,1.22,4.6-1.72,5.69-3.14.08-.11,9-11.08,17.62-13.76,10.41-3.23,20.72,3,24.5,14.74,2.94,9.13,1,16.92-.09,21.57a10.88,10.88,0,0,0-.57,3.49c.12.39.89,1,1.77,1.72,3.34,2.7,9.56,7.73,9.08,19.89-.31,7.92-4.37,16.1-9.07,25.57-4.48,9-9.56,19.27-11.83,30.83,3.47,3.75,10.4,20.14,6.41,36.92-5.15,19.78-14,34-26.24,42.3A44.55,44.55,0,0,1,127.62,208.46ZM92.08,3.62c-8.41,0-15.74,5.73-18.73,15.29-2.76,8.84-1.08,16.22-.07,20.63.44,1.93.73,3.21.49,3.94s-.93,1.18-2,2.05c-3.25,2.6-9.3,7.42-8.9,19.16.26,7.74,4.24,15.87,8.85,25.29,4.49,9.18,9.57,19.58,11.79,31.35l0,.23-.14.15C80.91,124.17,72.7,140.1,76.85,158v.12c-1.07,21.84,16.69,43.12,40.42,48.45,22.24,5,50-5,61.22-48.2,4.24-17.81-3.89-33.8-6.35-36.28l-.15-.15,0-.22c2.28-11.76,7.42-22.12,12-31.27,4.66-9.38,8.68-17.48,9-25.22.46-11.73-5.56-16.6-8.8-19.22-1.09-.88-1.81-1.46-2-2.07h0c-.24-.73.08-2,.56-4,1.11-4.56,3-12.18.11-21.08-3.68-11.4-13.68-17.41-23.78-14.28C150.57,7.17,141.81,18,141.73,18.09c-1.09,1.42-3.66,4.73-6.39,3.31-5.05-2.63-9.29-2.65-14.64,0-2.78,1.34-5.08-1.68-6.32-3.3l0-.07c-.09-.11-8.76-11.38-17.24-13.67A19.07,19.07,0,0,0,92.08,3.62Z"/>
          <path class="cls-13" d="M173.18,64.35c-9.94,13.58-35.2,16.84-40.54,16.4-2.15-.18-3.65-.32-4.68-.42v0h-.17v0c-1,.1-2.54.22-4.69.38-5.34.4-30.58-3-40.45-16.7a10.42,10.42,0,0,1-5.87.93c-.53,7.32,1.16,20.42,7.34,30.08s17.24,26.05,18,38.62c1,16.73-9.15,30.62-10.45,44.16-.55,5.72.35,10.18,1.62,15.07,17.36,25.48,50.37,26.78,67.29,1,1.3-4.88,3.53-10.07,3-15.8-1.23-13.55-11.18-29.51-10.22-44.24.81-12.56,12-28.86,18.19-38.48s8-22.7,7.49-30A10.48,10.48,0,0,1,173.18,64.35Z"/>
          <path class="cls-14" d="M93.92,81.13c14.35,43,52.13,47.77,69.24-1.4C143.12,87.76,93.92,81.13,93.92,81.13Z"/>
          <path class="cls-15" d="M127.78,213c-13.52,0-26.15-7.27-34.74-19.87l0-.06,0-.07c-1.19-4.58-2.22-9.18-1.64-15.22.55-5.71,2.63-11.4,4.83-17.42,3-8.37,6.21-17,5.62-26.68-.7-11.62-10.3-26.55-16.65-36.43-.45-.68-.87-1.34-1.28-2C77.94,86,75.88,73,76.48,64.91l0-.4.32.06a10.21,10.21,0,0,0,5.7-.91l.21-.1.14.2c9.93,13.74,35.48,16.93,40.2,16.58,1.72-.13,3.2-.25,4.4-.36v-.06l.39,0,.4,0V80c1.19.12,2.67.25,4.39.39,4.73.4,30.29-2.61,40.29-16.27l.14-.19.2.09a10.31,10.31,0,0,0,5.7,1l.33-.06,0,.4c.56,8.12-1.57,21.06-7.55,30.29l-1.29,2c-6.4,9.82-16.08,24.67-16.83,36.28-.54,8.31,2.45,17.08,5.34,25.56,2.24,6.55,4.35,12.74,4.88,18.61.41,4.54-.84,8.66-2.06,12.65-.34,1.14-.67,2.23-1,3.31l0,.06,0,.06C153,206,141.2,212.84,128.34,213Zm-34.22-20.3c8.58,12.57,21.26,19.68,34.78,19.54,12.65-.13,24.29-6.89,32-18.53.28-1.07.61-2.14.95-3.27,1.19-3.91,2.42-7.95,2-12.31-.53-5.77-2.62-11.91-4.84-18.41-2.92-8.56-5.94-17.41-5.39-25.9.77-11.84,10.51-26.8,17-36.69.45-.69.88-1.36,1.3-2,5.77-8.92,7.89-21.38,7.44-29.37a10.9,10.9,0,0,1-5.48-1c-5.42,7.23-14.94,11.26-22,13.37-8.12,2.43-15.79,3.19-18.64,3-1.86-.16-3.44-.3-4.69-.43h-.12c-1.25.12-2.83.25-4.69.39-2.85.21-10.52-.61-18.62-3.09-7.06-2.17-16.57-6.27-21.94-13.54a10.85,10.85,0,0,1-5.49.9c-.49,8,1.56,20.47,7.29,29.43l1.27,2c6.4,10,16.08,25,16.79,36.84.6,9.85-2.59,18.58-5.68,27-2.18,6-4.23,11.61-4.77,17.2A40.16,40.16,0,0,0,93.56,192.68Z"/>
          <path class="cls-16" d="M128,79.28h-.17c-9.09.65-30.58-2.37-39.19-9,0,0,9.57,20.11,17.16,28.42,6.49,7.09,12,13.18,22,12.85s15.58-5.64,22.1-12.69c7.63-8.24,17.3-28.28,17.3-28.28C158.55,77.14,137,80,128,79.28Z"/>
          <path class="cls-17" d="M110.3,103.88c4.71,4.6,9.68,7.88,17.09,7.64a24,24,0,0,0,15.6-6.26C133.19,94.74,119,96.9,110.3,103.88Z"/>
          <path class="cls-18" d="M126.55,111.91c-7.49,0-12.33-3.72-16.44-7.74l-.33-.32.35-.29c9-7.24,23.29-9.08,33.06,1.42l.3.31-.33.28a24.31,24.31,0,0,1-15.76,6.33Zm-15.72-8c4.11,4,9,7.49,16.55,7.24a23.67,23.67,0,0,0,15.1-5.92C133.08,95.47,119.59,97.13,110.83,103.91Z"/>
          <path class="cls-15" d="M130.85,79.07c-1,0-1.84-.06-2.63-.09-.17,0-.52,0-.69,0-.79,0-1.67.07-2.63.07C115,79,96.65,76.11,88.74,70l-.89-.69.53,1.12c.1.2,9.68,20.25,17.21,28.49l0,0c6.31,6.9,11.75,12.86,21.3,12.9h.86c10-.33,15.53-5.5,22.26-12.77,7.57-8.19,17.26-28.16,17.35-28.37l.54-1.1-.9.68C159.11,76.34,140.76,79.11,130.85,79.07ZM149.71,98.6c-6.65,7.18-12.11,12.29-21.93,12.61S112.4,105.5,106,98.49l0-.06c-6.48-7.08-14.51-23-16.6-27.28,8.4,5.75,25.94,8.49,35.56,8.53,1.07,0,2-.06,2.91-.09h.13c.86,0,1.84.11,2.91.11,9.62,0,27.17-2.57,35.6-8.26C164.33,75.69,156.22,91.56,149.71,98.6Z"/>
          <path class="cls-7" d="M82.55,63.72a10.28,10.28,0,0,1-7.08.64,3.74,3.74,0,0,0,2.66,1,10.12,10.12,0,0,0,4.61-1,11.53,11.53,0,0,0,1.79-1.08,3,3,0,0,0,1.38-2.36S85.3,62.35,82.55,63.72Z"/>
          <g>
            <path class="cls-3" d="M95.53,133.92s-12.18.61-18.33,13.8c-5.71,12.23-3.37,37.48,7.64,56.22-5.68,1.38-15.48,6.4-15.48,6.4-3-2.05-8-1.06-9.59,2.53-1.37,3-.5,7.63,3.4,9.13,3.41,1.31,7.24-1.45,7.43-8.51,3.62-.67,16.38-4.34,16.38-4.34-5.18,5.27-12.18,13.31-12.18,13.31a9.41,9.41,0,0,0-9.59,9c-.22,6.25,5.45,10.66,10.32,6.43C80,234,78.63,227,78.37,226.36,80.28,223.91,90,212.57,90,212.57a113.12,113.12,0,0,0-3.31,17.11c-4.53,2-6.28,5.29-6.09,9.61.29,6.59,7,8.12,10.45,3.4,2.51-3.42,2-8.63.13-12.19,2.48-10.36,3.17-15,4.63-15.55s12.14,3.66,13,4.39c1.61,4.12,4.41,7.35,8.73,7,4.87-.36,6.83-7.52,2.87-11.55-2.75-2.8-7.28-1.81-8.7-.92-3.45-1.59-12.82-7.12-13-8.8s3-28.5-5-43.59c6.14-5.81,5.34-18.7,5.34-18.7Z"/>
            <path class="cls-4" d="M60.56,219.51c4.31,6.23,9.85,1,10-6,2.75-.51,10.8-2.76,14.49-3.8a13.89,13.89,0,0,0,3.09-1.27c-3.69.61-12.49,2.83-18.43,4.12C68.67,221.23,62.87,221.15,60.56,219.51Z"/>
            <path class="cls-4" d="M88.15,214.72c.75-1.07,1.89-1.89,2.51-3.47-1.7,1.13-11.17,11.1-13.85,14.15,1.4,9.83-4.66,14.51-9.58,11.61.4,1.7,4.23,4.46,8.3.9C80,234,78.63,227,78.37,226.36,79.75,224.58,85.23,218.13,88.15,214.72Z"/>
            <path class="cls-4" d="M122.23,221c-1.73,3.63-8.79,5.42-12.59-3.19-5.91-2.58-12.77-5.4-14.65-4.44-2.13,1.1-3.19,8.64-5.07,17.06,2.64,9.49-.77,14.47-6,14.14,2.1,1.24,4.52,1.65,7.12-1.88s2-8.63.13-12.19c1.7-7.11,2.46-13.36,4.66-15.63,3,.38,12.21,3.82,13,4.47,1.61,4.12,4.41,7.35,8.73,7,2.84-.21,4.68-2.73,5-5.59Z"/>
            <path class="cls-4" d="M99.09,142.82c-.5,6.92-3.58,13-7.63,15.2a22.05,22.05,0,0,1,2.29,3.5C96.06,158.82,99.83,153.8,99.09,142.82Z"/>
            <path class="cls-7" d="M86,245.81a5.29,5.29,0,0,1-2.09-.43c-2.16-.92-3.52-3.19-3.65-6.07-.21-4.67,1.79-7.91,6.11-9.9a114.62,114.62,0,0,1,2.94-15.54c-2.37,2.78-8.83,10.35-10.59,12.58.41,1.55,1.24,8.07-3,11.77-2.3,2-5,2.29-7.33.78a8.56,8.56,0,0,1-3.48-7.53,9.69,9.69,0,0,1,9.77-9.38c.78-.89,6.45-7.37,11.12-12.21-3.22.91-11.75,3.31-14.89,3.93-.15,3.45-1.19,6.16-2.94,7.67a4.73,4.73,0,0,1-4.89.88,6.47,6.47,0,0,1-3.83-4.09,7.87,7.87,0,0,1,.26-5.58,6.41,6.41,0,0,1,3.83-3.38,7.08,7.08,0,0,1,6,.61c1.19-.59,9.63-4.82,14.94-6.23a81.71,81.71,0,0,1-9.87-30.24c-1.27-10.37-.36-19.81,2.49-25.92a26.35,26.35,0,0,1,5.71-8A25,25,0,0,1,87,136.22a15.49,15.49,0,0,1,8.56-2.3c-.12,0-12.07,1.13-18.06,14-2.78,6-3.66,15.23-2.41,25.43a80.43,80.43,0,0,0,10,30.39l.28.48-.47.11c-5.58,1.35-15.33,6.33-15.42,6.38l-.15.07-.13-.09a6.46,6.46,0,0,0-5.7-.63,5.75,5.75,0,0,0-3.46,3,7,7,0,0,0-.22,4.94,5.75,5.75,0,0,0,3.44,3.65,4.19,4.19,0,0,0,4.34-.78c1.64-1.41,2.6-4,2.69-7.38v-.32l.25,0c3.57-.66,16.23-4.3,16.36-4.34l1.27-.36-1,1c-5.12,5.2-12.1,13.21-12.17,13.29l-.09.11H74.8a9,9,0,0,0-9.28,8.66,7.8,7.8,0,0,0,3.15,6.84c2.08,1.37,4.58,1.09,6.68-.73,4.2-3.64,3-10.42,2.75-11.08l-.1-.23.15-.19c1.88-2.44,11.52-13.7,11.62-13.81l.89-1.05-.38,1.43a115.57,115.57,0,0,0-3.31,17l0,.23-.18.08c-4.15,1.86-6.08,4.88-5.88,9.24.11,2.6,1.29,4.57,3.23,5.4a5.61,5.61,0,0,0,6.68-2.24c2.47-3.35,1.78-8.43.1-11.73l-.08-.14,0-.16c.55-2.3,1-4.3,1.42-6.07,1.5-6.57,2.12-9.28,3.43-9.75,1.68-.59,12.52,3.81,13.3,4.45l.07.06,0,.09c1.29,3.3,3.8,7.16,8.43,6.82A5.11,5.11,0,0,0,122,222a7.13,7.13,0,0,0-1.76-6.83c-2.64-2.69-7-1.73-8.36-.88l-.12.08-.13-.06c-2.46-1.13-13-7-13.19-9.1,0-.28,0-.92.09-2.35.42-7,1.67-28.33-5-41.09l-.15-.29.22-.21c5.94-5.62,5.53-18.27,5.53-18.4a29.82,29.82,0,0,1-.68,10.83,18,18,0,0,1-4.25,7.95c6.66,13,5.41,34.24,5,41.26-.06,1.11-.11,2-.09,2.2.12,1.25,8.38,6.44,12.66,8.44,1.61-.9,6.13-1.8,8.92,1a8,8,0,0,1,1.94,7.65,5.73,5.73,0,0,1-5,4.56c-4.93.36-7.6-3.66-9-7.15-1.37-.94-11.46-4.73-12.72-4.29-1,.34-1.7,3.5-3,9.22-.39,1.73-.84,3.68-1.37,5.92,1.74,3.53,2.41,8.89-.24,12.49A6.61,6.61,0,0,1,86,245.81Z"/>
          </g>
          <g>
            <path class="cls-3" d="M165,134.18s12.18.7,18.26,13.94c5.64,12.27,3.18,37.51-7.93,56.16,5.67,1.42,15.45,6.52,15.45,6.52,3-2,8-1,9.57,2.6,1.36,3,.47,7.64-3.44,9.1-3.42,1.29-7.23-1.5-7.38-8.56-3.62-.7-16.36-4.46-16.36-4.46,5.15,5.31,12.11,13.4,12.11,13.4a9.44,9.44,0,0,1,9.54,9.09c.19,6.25-5.5,10.62-10.35,6.35-4.45-3.9-3.05-10.94-2.79-11.57-1.89-2.46-11.54-13.88-11.54-13.88A113.87,113.87,0,0,1,173.33,230c4.52,2.06,6.26,5.34,6,9.65-.32,6.59-7,8.07-10.46,3.32-2.5-3.43-1.91-8.64-.07-12.19-2.43-10.38-3.1-15.06-4.56-15.59s-12.16,3.57-13.06,4.3c-1.64,4.11-4.46,7.32-8.77,7-4.87-.39-6.79-7.56-2.81-11.57,2.76-2.77,7.28-1.75,8.7-.86,3.45-1.55,12.86-7,13-8.69s-2.8-28.52,5.22-43.56c-6.11-5.85-5.24-18.73-5.24-18.73Z"/>
            <path class="cls-4" d="M199.49,220c-4.34,6.2-9.85,1-10-6.09-2.76-.53-10.8-2.84-14.48-3.91a13.74,13.74,0,0,1-3.08-1.3c3.68.64,12.47,2.93,18.4,4.26C191.37,221.69,197.18,221.66,199.49,220Z"/>
            <path class="cls-4" d="M171.93,215c-.75-1.08-1.88-1.91-2.5-3.49,1.7,1.14,11.12,11.18,13.78,14.25-1.45,9.82,4.58,14.55,9.52,11.68-.41,1.7-4.25,4.43-8.3.84-4.43-3.92-3.05-10.94-2.79-11.57C180.27,225,174.82,218.47,171.93,215Z"/>
            <path class="cls-4" d="M137.82,221.06c1.71,3.64,8.76,5.49,12.6-3.09,5.93-2.54,12.8-5.31,14.67-4.34,2.13,1.12,3.15,8.67,5,17.1-2.69,9.47.69,14.47,5.93,14.19-2.1,1.22-4.52,1.61-7.1-1.94s-1.91-8.64-.07-12.19c-1.67-7.12-2.4-13.37-4.59-15.66-3,.35-12.23,3.72-13,4.37-1.64,4.11-4.46,7.32-8.77,7-2.84-.23-4.67-2.76-4.92-5.63A2.21,2.21,0,0,0,137.82,221.06Z"/>
            <path class="cls-4" d="M161.36,143.06c.46,6.92,3.51,13,7.55,15.25a21.44,21.44,0,0,0-2.31,3.48C164.3,159.08,160.56,154,161.36,143.06Z"/>
            <path class="cls-7" d="M173.91,246.14a5.31,5.31,0,0,0,2.09-.42c2.16-.9,3.54-3.16,3.68-6,.23-4.66-1.75-7.92-6.06-9.94a117.22,117.22,0,0,0-2.86-15.56c2.36,2.79,8.78,10.42,10.52,12.66-.41,1.54-1.28,8.06,3,11.79,2.3,2,5,2.33,7.33.84a8.55,8.55,0,0,0,3.52-7.51,9.74,9.74,0,0,0-9.72-9.46c-.77-.89-6.42-7.41-11.06-12.29,3.22.94,11.73,3.4,14.88,4,.13,3.44,1.15,6.16,2.89,7.68a4.7,4.7,0,0,0,4.88.92,6.41,6.41,0,0,0,3.86-4.06,7.93,7.93,0,0,0-.23-5.58,6.42,6.42,0,0,0-3.82-3.4,7,7,0,0,0-6,.56c-1.18-.61-9.6-4.89-14.91-6.34a81.42,81.42,0,0,0,10-30.17c1.32-10.36.47-19.81-2.35-25.94a26.33,26.33,0,0,0-5.67-8.08,24.54,24.54,0,0,0-4.31-3.3,15.5,15.5,0,0,0-8.55-2.37c.12,0,12.06,1.23,18,14.12,2.75,6,3.58,15.26,2.28,25.45A80.28,80.28,0,0,1,175,204.06l-.28.47.47.12c5.57,1.39,15.29,6.44,15.39,6.5l.14.07.13-.09a6.49,6.49,0,0,1,5.71-.59,5.76,5.76,0,0,1,3.44,3,7,7,0,0,1,.2,4.94,5.71,5.71,0,0,1-3.46,3.62,4.18,4.18,0,0,1-4.34-.81c-1.63-1.42-2.57-4.05-2.64-7.4v-.32l-.26,0c-3.56-.69-16.2-4.42-16.33-4.46l-1.27-.38,1,1C178,215,185,223.07,185,223.15l.08.1h.13a9.06,9.06,0,0,1,9.23,8.74,7.75,7.75,0,0,1-3.19,6.81c-2.08,1.35-4.58,1.06-6.67-.78-4.18-3.67-3-10.44-2.69-11.1l.1-.23-.15-.19c-1.87-2.45-11.46-13.79-11.55-13.9l-.89-1,.38,1.43A113,113,0,0,1,173,230.05l0,.23.18.08c4.15,1.89,6.06,4.92,5.84,9.28-.13,2.6-1.32,4.56-3.26,5.37-2.3,1-5,.05-6.66-2.28-2.46-3.38-1.74-8.45,0-11.74l.07-.14,0-.16c-.53-2.3-1-4.31-1.38-6.08-1.47-6.57-2.08-9.29-3.38-9.77-1.68-.6-12.54,3.72-13.32,4.35l-.08.06,0,.09c-1.31,3.29-3.85,7.13-8.47,6.75A5.12,5.12,0,0,1,138,222a7.12,7.12,0,0,1,1.8-6.82c2.65-2.66,7-1.67,8.36-.81l.12.08.13-.06c2.46-1.11,13-6.89,13.23-9a22.62,22.62,0,0,0-.08-2.35c-.37-7-1.52-28.34,5.26-41l.15-.29-.22-.21c-5.91-5.67-5.44-18.31-5.43-18.44a29.82,29.82,0,0,0,.62,10.83,18.05,18.05,0,0,0,4.21,8c-6.73,12.95-5.58,34.2-5.21,41.22.06,1.12.11,2,.09,2.21-.13,1.24-8.42,6.37-12.71,8.33-1.6-.9-6.12-1.83-8.92,1a8,8,0,0,0-2,7.63,5.79,5.79,0,0,0,5,4.61c4.92.39,7.62-3.61,9-7.08,1.36-.94,11.48-4.65,12.73-4.21,1,.36,1.68,3.52,3,9.25.39,1.73.83,3.69,1.35,5.93-1.77,3.52-2.46,8.87.17,12.49A6.62,6.62,0,0,0,173.91,246.14Z"/>
          </g>
          <path class="cls-7" d="M87.6,153.33s4,5.46,4.82,7.44l.46-.29A22.35,22.35,0,0,0,87.6,153.33Z"/>
          <path class="cls-15" d="M127,121c-6.33,0-11.2-4.48-11.25-4.52A14.17,14.17,0,0,0,127,121.86c7.49,0,10.46-3.64,10.46-3.64S134,121,127,121Z"/>
          <g>
            <path class="cls-19" d="M131.45,59.79c-1.1.39-1.54,2.62-1,5s1.9,4,3,3.6,1.54-2.62,1-5S132.55,59.41,131.45,59.79Z"/>
            <path class="cls-7" d="M131.79,59.36a1.25,1.25,0,0,0-.43.07,2.48,2.48,0,0,0-1.32,2,8.24,8.24,0,0,0,.14,3.43c.53,2.27,1.78,3.92,3,3.93a1.55,1.55,0,0,0,.43-.07,2.48,2.48,0,0,0,1.32-2,8.23,8.23,0,0,0-.14-3.43C134.22,61,133,59.36,131.79,59.36Zm2.5,7.19c-.16.8-.47,1.32-.89,1.47a.73.73,0,0,1-.25,0c-.9,0-1.92-1.46-2.38-3.38a7.62,7.62,0,0,1-.13-3.05c.16-.8.47-1.33.89-1.47a.75.75,0,0,1,.26,0c.89,0,1.91,1.46,2.37,3.39A7.61,7.61,0,0,1,134.29,66.55Z"/>
          </g>
          <g>
            <path class="cls-20" d="M121.39,59.76c-1.1-.4-2.45,1.2-3,3.57s-.15,4.61,1,5,2.45-1.21,3-3.58S122.49,60.15,121.39,59.76Z"/>
            <path class="cls-7" d="M121.48,59.39a1.25,1.25,0,0,0-.43-.07c-1.18,0-2.43,1.64-3,3.9a8.3,8.3,0,0,0-.16,3.44,2.45,2.45,0,0,0,1.31,2,1.26,1.26,0,0,0,.43.08c1.18,0,2.44-1.64,3-3.91a8.26,8.26,0,0,0,.16-3.43A2.47,2.47,0,0,0,121.48,59.39Zm.56,5.26c-.47,1.92-1.49,3.36-2.39,3.36a.69.69,0,0,1-.25,0c-.42-.15-.73-.68-.89-1.48a7.64,7.64,0,0,1,.15-3c.47-1.92,1.49-3.37,2.39-3.37a.7.7,0,0,1,.25,0c.42.15.73.67.89,1.48A7.65,7.65,0,0,1,122,64.65Z"/>
          </g>
          <path class="cls-7" d="M173.28,64.06c-2.75-1.38-3.34-2.87-3.35-2.89a2.49,2.49,0,0,0,1,2.09,10.62,10.62,0,0,0,2.13,1.38,10.35,10.35,0,0,0,4.61,1.09,4.24,4.24,0,0,0,2.66-1A10.26,10.26,0,0,1,173.28,64.06Z"/>
          <g>
            <path class="cls-21" d="M73.94,58.48c-.82,0-1.49,1-1.49,2.24S73.1,63,73.93,63s1.48-1,1.49-2.25S74.76,58.48,73.94,58.48Z"/>
            <path class="cls-21" d="M68,54.09c-1.28,0-2.33,2-2.33,4.42S66.72,63,68,63s2.33-2,2.34-4.43S69.31,54.09,68,54.09Z"/>
            <path class="cls-21" d="M66.19,67.4c-1,.49-1.12,2.59-.38,4.69s2.11,3.39,3.06,2.89,1.12-2.59.38-4.69S67.14,66.9,66.19,67.4Z"/>
          </g>
          <path class="cls-21" d="M181.92,58.89c-.82,0-1.49,1-1.5,2.24s.66,2.25,1.48,2.26,1.49-1,1.5-2.25S182.74,58.89,181.92,58.89Z"/>
          <path class="cls-21" d="M187.85,54.54c-1.28,0-2.33,2-2.34,4.42s1,4.44,2.32,4.45,2.33-2,2.34-4.43S189.14,54.54,187.85,54.54Z"/>
          <path class="cls-21" d="M189.62,67.86c-1-.5-2.33.78-3.08,2.87s-.59,4.2.36,4.7,2.33-.78,3.08-2.87S190.57,68.37,189.62,67.86Z"/>
          <path class="cls-21" d="M217.24,126.57a2.3,2.3,0,1,0,1.81,2.26A2.08,2.08,0,0,0,217.24,126.57Z"/>
          <path class="cls-21" d="M224.48,122.23c-1.57,0-2.85,2-2.85,4.42s1.26,4.44,2.83,4.45,2.84-2,2.85-4.43S226.05,122.23,224.48,122.23Z"/>
          <path class="cls-21" d="M226.65,135.55c-1.16-.5-2.84.78-3.76,2.87s-.72,4.19.44,4.7,2.84-.78,3.76-2.87S227.8,136.06,226.65,135.55Z"/>
          <path class="cls-21" d="M43.41,124.28a2.26,2.26,0,1,1-2,2.25A2.14,2.14,0,0,1,43.41,124.28Z"/>
          <path class="cls-21" d="M35.39,119.88c1.74,0,3.15,2,3.14,4.45s-1.42,4.43-3.16,4.42-3.16-2-3.15-4.44S33.64,119.88,35.39,119.88Z"/>
          <path class="cls-21" d="M32.91,133.19c1.29-.49,3.15.8,4.16,2.9s.77,4.2-.52,4.69-3.15-.8-4.15-2.9S31.62,133.69,32.91,133.19Z"/>
          <path class="cls-12" d="M97.78,75.15c.18.33,27.88,10.31,61.11.06C157.22,75,128,100.43,97.78,75.15Z"/>
        </g>
      </g>
    </g>
  </g>
</svg>
