<svg id="Layer_1" data-name="Layer 1" xmlns="http://www.w3.org/2000/svg" viewBox="0 0 256 256"><defs><style>.cls-1,.cls-11{fill:#f58d3c;}.cls-1,.cls-13{stroke:#96400f;}.cls-1,.cls-13,.cls-4{stroke-miterlimit:10;}.cls-2{fill:#ffd1ad;}.cls-3{opacity:0.3;}.cls-4{fill:#d17127;stroke:#994811;}.cls-5{fill:#96400f;}.cls-6{fill:#c66422;}.cls-7{fill:#fff;}.cls-8{fill:#210e04;}.cls-9{fill:#231007;}.cls-10{fill:#301209;}.cls-12{fill:#4f180b;}.cls-13{fill:none;}</style></defs><path class="cls-1" d="M228.17,189.19a2.94,2.94,0,0,1-.63,1.65c-10.58-9.61-30.78-7.7-59.64,11.54-22.66,15.11-40.16,1.92-46.63-4.45a32.73,32.73,0,0,1-2.72-3l15.2-29.13c18.28,27.42,54.35-1.44,76.95,8.66C226.46,181.53,228.43,186.7,228.17,189.19Z"/><path class="cls-2" d="M228.17,189.19a2.94,2.94,0,0,1-.63,1.65c-10.58-9.61-30.78-7.7-59.64,11.54-22.66,15.11-40.16,1.92-46.63-4.45l3.72-8.49s17.47,14.41,32.8,8.58C172.76,192.33,209.07,169.69,228.17,189.19Z"/><path class="cls-1" d="M80.07,122.63s-10.2,5.45-15,8.44c0,0-.53,1.22-3.83-2.46s-8.9-11.5-8.9-11.5.16-5.22.46-7.6c0,0,1.61-3.29.16-3.37s-3.07-.23-4.38,3.22l-1.15,1.15s-3.29-2.84-5.37-4.75-4.29-.69-2.83,2l.69,1s-3.15-2.46-5.3-.69,3.23,4.75,3.23,4.75l-4.07.16s-2,1,2.15,3.68,11.27,2.68,11.27,2.68S50.61,134.9,59,142.19c0,0,9.13,2.53,16.5-1"/><path class="cls-1" d="M47.78,110.51a2.72,2.72,0,0,0-2.38,3.91"/><path class="cls-1" d="M64.34,131a6.05,6.05,0,0,1,1.08,6.44"/><ellipse class="cls-3" cx="98.02" cy="227.18" rx="70.22" ry="12.21"/><path class="cls-4" d="M75.13,154.93s-5.75,25.36,15,48.18c0,0,10.4,10.67,4.46,14.18s-31.43-2.48-39-2.08-10.57,10.72-9.35,13.69a4.27,4.27,0,0,0,4.05,1.22,9.64,9.64,0,0,0,7.83.1c.94-.37,34.57-5.51,42.26-7.13s3.38-7.83,1.89-11.61a30.48,30.48,0,0,1,.66-25.92c6-12.56,6.9-28.49-1.2-36.33"/><path class="cls-5" d="M50.57,230.23a11.84,11.84,0,0,1-.28-5,9.72,9.72,0,0,1,.75-2.46,7.44,7.44,0,0,1,1.43-2.2A9.2,9.2,0,0,1,57,218.05a13.43,13.43,0,0,1,5.09-.18v.1a32.85,32.85,0,0,0-4.83,1A11.32,11.32,0,0,0,53,221.13a6.72,6.72,0,0,0-1.41,1.9,9.52,9.52,0,0,0-.84,2.27,11.6,11.6,0,0,0-.12,4.91Z"/><path class="cls-1" d="M117.51,205.38a24,24,0,0,1-2.16-1.39c-15.7,1.78-27.47-7.32-27.47-7.32-8.21-5.76-12.21-15-13.82-25.13h0c-3.23-20.38,3.34-44,4.78-48.19,2.16-6.3,5.79-39.06,5.94-39.45s.24-.57.36-.84c6.11-14.07,19-3.68,19-3.68s-.38,5.77-.92,23.91,6,25.64,21.89,39.33,12.27,32.78,12.27,32.78c1.65,4-12.7,6.37-12.7,6.37"/><path class="cls-1" d="M227,178.5c.58.14.71.3.71.3"/><path class="cls-2" d="M98.6,179.16c-3.28,2.39-16.32,8-24.15-7.62h0c-3.24-20.38,3.33-44,4.77-48.19,2.16-6.3,5.79-39.06,6-39.45s.23-.57.35-.84c5.27-1.61,12.91-2.65,11.35,5.6C94.53,101,84.7,133.26,88.26,150S102.31,176.46,98.6,179.16Z"/><path class="cls-1" d="M103,162.28s-3.78,24.58,17,47.4c0,0,10.4,10.67,4.46,14.18s-32.14-3-39.7-2.57-9.85,11.21-8.64,14.18a4.29,4.29,0,0,0,4,1.21,9.61,9.61,0,0,0,7.83.11c1-.38,5.94-.11,9.32-1.73s25.25-3.78,32.95-5.4,3.37-7.83,1.89-11.61a30.46,30.46,0,0,1,.65-25.92c6-12.56,6.91-28.5-1.19-36.33"/><path class="cls-5" d="M88,236.8a17,17,0,0,1-.15-4.73,10.2,10.2,0,0,1,1.57-4.55,5.84,5.84,0,0,1,4.1-2.7,7.85,7.85,0,0,1,4.74.81l0,.1a12.72,12.72,0,0,0-4.53.07A6,6,0,0,0,90,228a9.68,9.68,0,0,0-1.73,4.16,16.76,16.76,0,0,0-.24,4.64Z"/><path class="cls-5" d="M80.42,236.79a31.33,31.33,0,0,1,.22-5A17.9,17.9,0,0,1,82,226.84a7.25,7.25,0,0,1,3.59-3.77,7.58,7.58,0,0,1,5.11-.34l0,.1A10.93,10.93,0,0,0,86,224a7.92,7.92,0,0,0-3.31,3.23,17.13,17.13,0,0,0-1.55,4.64,29.26,29.26,0,0,0-.62,4.95Z"/><path class="cls-1" d="M82.63,56.86a68.76,68.76,0,0,1-2.08-11.43c-.91-7.74-1.62-11.93-7.66-17.65s-7.28-8.71-7.28-8.71-3.51,7-1.49,19.66S76.07,59.65,76.07,59.65"/><path class="cls-6" d="M78.6,55.12s2.28-16-9.81-26.64C68.79,28.48,70.16,52.05,78.6,55.12Z"/><path class="cls-1" d="M99.22,93.92a24.11,24.11,0,0,1-6.6,3.66s-3.69,1.27-9.1,6.46S69,112.91,65.76,98.85c0,0-10.38.81-9.8-11.65,0,0-2.88-3.34,2-5.18s9.92-3.23,9.92-3.23-3-8.53,3.69-18.79,23.63-5.08,23.63-5.08S107.38,57.11,104.5,84a10.07,10.07,0,0,1-1.08,4.76"/><ellipse class="cls-7" cx="88.13" cy="72.45" rx="6.11" ry="5.42" transform="translate(3.27 148.7) rotate(-81.36)"/><path class="cls-8" d="M93.53,73.27a7.07,7.07,0,0,1-2,4A5.52,5.52,0,0,1,87.14,79a5.73,5.73,0,0,1-4.21-2.56,7.08,7.08,0,0,1,1.41-9.27,5.77,5.77,0,0,1,4.78-1.19,5.49,5.49,0,0,1,3.67,2.87A7.08,7.08,0,0,1,93.53,73.27Zm-.1,0a6.52,6.52,0,0,0-.83-4.32,4.93,4.93,0,0,0-7.68-1.15A6.63,6.63,0,0,0,83.68,76a5,5,0,0,0,3.54,2.46,5.09,5.09,0,0,0,4.13-1.28A6.5,6.5,0,0,0,93.43,73.25Z"/><ellipse class="cls-9" cx="89.62" cy="74.08" rx="3.83" ry="3.4" transform="matrix(0.15, -0.99, 0.99, 0.15, 2.92, 151.57)"/><ellipse class="cls-7" cx="91.74" cy="72.61" rx="0.88" ry="0.78" transform="translate(6.17 152.41) rotate(-81.36)"/><ellipse class="cls-7" cx="72.82" cy="71.61" rx="5.78" ry="4.7" transform="translate(-8.92 132.85) rotate(-81.36)"/><path class="cls-8" d="M77.52,72.33a7.15,7.15,0,0,1-1.72,3.75,4.73,4.73,0,0,1-3.92,1.72,5,5,0,0,1-3.78-2.52,7.06,7.06,0,0,1,1.3-8.57,5,5,0,0,1,4.36-1.28A4.79,4.79,0,0,1,77,68.23,7.32,7.32,0,0,1,77.52,72.33Zm-.1,0a6.56,6.56,0,0,0-.63-4,4.06,4.06,0,0,0-6.77-1,6.74,6.74,0,0,0-1.15,7.56,4.07,4.07,0,0,0,6.77,1A6.55,6.55,0,0,0,77.42,72.31Z"/><ellipse class="cls-9" cx="74.1" cy="73.14" rx="3.63" ry="2.95" transform="translate(-9.34 135.42) rotate(-81.36)"/><ellipse class="cls-7" cx="75.96" cy="71.73" rx="0.83" ry="0.68" transform="translate(-6.36 136.06) rotate(-81.36)"/><path class="cls-10" d="M85.75,60.42s3.2-.75,6.73,2.44c0,0,.47,1.56-1.09,1.63S90.31,63,85.75,62.25C85.75,62.25,83.31,61.64,85.75,60.42Z"/><path class="cls-10" d="M69.88,62.22s2-1.92,6-1.08c0,0,1,.94-.1,1.66s-1.44-.63-5.11.77C70.67,63.57,68.61,64.17,69.88,62.22Z"/><path class="cls-11" d="M67,98.93s-4.3-.23-6.38-5.62"/><path class="cls-5" d="M67,99a3.91,3.91,0,0,1-2.44-.06,5.8,5.8,0,0,1-2.13-1.24,5.69,5.69,0,0,1-1.85-4.35l.09,0a11.75,11.75,0,0,0,1,2A9.22,9.22,0,0,0,63.06,97,7.23,7.23,0,0,0,67,98.88Z"/><path class="cls-10" d="M88.86,90.32s2.69,1.15,2.38,3.23C91.24,93.55,92.62,90.86,88.86,90.32Z"/><path class="cls-12" d="M67.57,99.46s.46,6.23,6.07,5.38,16.75-12.6,16.75-12.6S77.17,103.31,67.57,99.46Z"/><path class="cls-1" d="M91.09,58.27a72.09,72.09,0,0,0,2.46-12.61c1.07-8.53,1.92-13.14,9.06-19.44s8.61-9.61,8.61-9.61,4.15,7.76,1.77,21.67S98.85,61.34,98.85,61.34"/><path class="cls-6" d="M95.85,56.35S93.16,38.67,107.46,27C107.46,27,105.84,53,95.85,56.35Z"/><path class="cls-13" d="M56.11,85.78s-2.53,12.38,9.3,12.76A16.43,16.43,0,0,0,81.09,98c8.38-4.76,9.46-6.22,9.46-6.22"/><path class="cls-10" d="M55.19,85.32s-.23-1.84,5.23-1.38,5.69,1.61,3.84,3.92-3.92,4.61-3.92,4.61S54.58,90.62,55.19,85.32Z"/><path class="cls-1" d="M61.88,80.71a97.41,97.41,0,0,1,15.52-4"/><path class="cls-1" d="M89.93,129.25s1.17,13.74-.87,16.37-14.47,2.63-25.58,2.63c0,0-1.76-.44-6.14,4.53s-8,6.29-3.8,8.77c0,0,.58,3.65,4,2.63,0,0,1.9,3.07,3.8-.44L61,161s4.61,0,5.34-6.68c0,0,21.12,5.8,31.64,2,0,0,5.7-5.26,5.56-21.93"/><path class="cls-1" d="M86.86,146.79s3.22-1.76,6.14-.44"/><path class="cls-1" d="M57.49,164.18s-1.47-1.17-.74-3.8"/><path class="cls-1" d="M54.12,162.72a3.34,3.34,0,0,1,.59-4.09"/></svg>