<svg id="Layer_1" data-name="Layer 1" xmlns="http://www.w3.org/2000/svg" viewBox="0 0 40 40"><defs><style>.cls-1,.cls-3{fill:#fff;}.cls-1{stroke:#33180a;}.cls-1,.cls-4{stroke-miterlimit:10;}.cls-2{fill:#3f1b02;}.cls-4{fill:#ffd44a;stroke:#876a1a;}</style></defs><path class="cls-1" d="M22.31,38A18.14,18.14,0,1,1,37.12,14,17.52,17.52,0,0,1,38,17.68,18.14,18.14,0,0,1,22.31,38Z"/><circle class="cls-2" cx="22.93" cy="17.35" r="12.86"/><circle class="cls-3" cx="31.07" cy="13.1" r="3.94"/><path class="cls-4" d="M37.12,14c-.66-.23-1.31-.44-2-.63L35,13.35c-2.62-.8-5.12-1.43-7.5-1.91A69.87,69.87,0,0,0,12.44,9.9a53.77,53.77,0,0,0-7.9.61A18.13,18.13,0,0,1,37.12,14Z"/></svg>