<svg id="Layer_1" data-name="Layer 1" xmlns="http://www.w3.org/2000/svg" viewBox="0 0 290 256"><defs><style>.cls-1{opacity:0.3;}.cls-2{fill:none;stroke:#542c00;stroke-width:2px;}.cls-14,.cls-2{stroke-miterlimit:10;}.cls-3{fill:#dd6d22;}.cls-4{fill:#e2cfb7;}.cls-5{fill:#ede0cd;}.cls-6{fill:#f2e9dd;}.cls-7{fill:#e87f31;}.cls-8{fill:#ce6117;}.cls-9{fill:#d3bca3;}.cls-10{fill:#aa9579;}.cls-11{fill:#f49a9a;}.cls-12{fill:#fca7a7;}.cls-13{fill:#fc9149;}.cls-14{fill:#fff;stroke:#000;stroke-width:0.25px;}.cls-15{fill:#2b2a2a;}.cls-16{fill:#fcfcfc;}.cls-17{fill:#323232;}.cls-18{fill:#3a3a3a;}.cls-19{fill:#4f4f4f;}</style></defs><ellipse class="cls-1" cx="104.53" cy="228.11" rx="90.77" ry="11.63"/><path class="cls-2" d="M285.74,85.6l-3.09.87c-.16,0-.09.14-.27.17,1.11-3.5,1.88-9.78.32-13.21a11.83,11.83,0,0,0-1.88,2.71c.06-11-3.73-23-13.44-29.11.55,1.65,1.06,3.35,1.74,4.94-4.16-5.49-8.3-7.59-15.06-8.36-.13,0,8.63,11.86,8.48,20.55a7.67,7.67,0,0,1-3.09-1.35,4,4,0,0,0-.5-.34c0,.24.1.49.17.77.4,1.79,1.39,6.48,1.95,11.39h0c-.76-.73-2.85-3-4.12-3.22.93,2.74-.14,10.08,0,10.86a8.83,8.83,0,0,0-.7-2.16c-.3-.6-2.22-3.49-2.25-2.76-.22,4.61-8.6,5.31-11.22,6.79,0-2.16.85-4.21-.35-6-.11-.17-2.09,1.16-3.35,1.72a23.89,23.89,0,0,1-6.78,1.69c-3.1.12-6.28-.33-9,.2.93-1.73,1.83-4.21.74-6.14-.06-.11-.84,1.82-4.58,1.65-3.19-.15-8.85-.9-12.57-.71.83-2.34,4.71-2.81,5.63-3.28,0,0-8.93-4.51-23.88,3.74a8.19,8.19,0,0,1,1.79-3.33c.21-.28-5.86,1.15-8.13,2-1.3.64-5.79,2.06-7.8,3.29l-.42.26a36.85,36.85,0,0,0-17.1,33.89,35.49,35.49,0,0,0-14.57-2.1c-12,.39-23.25,3.13-30.88,6.58a49.62,49.62,0,0,1-10.82,2c-.49-.39-1-.77-1.5-1.13a25.56,25.56,0,0,0-6.89-3.54,28.91,28.91,0,0,0-8.77-1.27c-1.68,0-3.35.08-5,.23l-1.88.17h0a20.65,20.65,0,0,1-7.3-6.11A14.8,14.8,0,0,1,68,105.63c0-.06-.29-1.17-.38-1.68a31.74,31.74,0,0,0-1.3-5.12,52.77,52.77,0,0,1-2.78-8.61q.42,0,.84,0a11.19,11.19,0,0,0,1.72-.14A7.56,7.56,0,0,0,69.18,89a12.65,12.65,0,0,1-2.67-.63c6-.9,7.54-5.47,7.38-5.41a9.68,9.68,0,0,1-2.39.67,9.75,9.75,0,0,0,5-6.17,8.88,8.88,0,0,0,.19-2.68,11.79,11.79,0,0,1-3,1.52,5.47,5.47,0,0,0,.32-.85c.19-.68-.17-2.5-.31-2.34a13.71,13.71,0,0,1-3.17,2c2.22-3.59,4.55-8.38,4.78-13A15.45,15.45,0,0,0,73,53.33C74.93,29.9,62.89,17.94,60.48,18c-.29,0-.38.19-.42.54-.9,7.68-5.71,22.7-6.49,25.1A199.7,199.7,0,0,0,30.5,42.46C30,40,26.7,24.57,26.58,16.83c0-.35-.08-.53-.36-.57-2.4-.29-15.59,10.39-16,33.9a15.3,15.3,0,0,0-3.14,8.56c-.24,4.57,1.59,9.57,3.44,13.37a7.93,7.93,0,0,1-2.95-2.33c-.12-.18-.67,1.6-.55,2.29a6.7,6.7,0,0,0,.23.88A11.66,11.66,0,0,1,4.4,71.12a8.69,8.69,0,0,0-.08,2.68c.39,2.9,2.63,6,2,5.73-.16-.07.9,4.63,6.8,6.13A12.52,12.52,0,0,1,10.4,86a8.64,8.64,0,0,0,4.69,1.74,21.58,21.58,0,0,0,3.41,0l.46,0a61.88,61.88,0,0,0-3.28,7.93A65.46,65.46,0,0,0,13.49,104c-3,15.37-1.3,35.62,10.78,61.59,1.47,4.31,2.9,8.17,4,11.34q1.23,3.5,2.11,6.86c5.57,20.93,2,37.34,2,37.34a8.12,8.12,0,0,0-2.81-1.37,6.37,6.37,0,0,0-1.27-.19,6.63,6.63,0,0,0-4,1.11h0a3.86,3.86,0,0,0-1.75,3.05c-.12,2.5.44,4,1.49,4.79,1.92,1.51,5.46.89,9.42.53a6.77,6.77,0,0,0,5-2.22.24.24,0,0,0,0,.08c-.46,2.46-.09,4,.84,4.95,1.69,1.75,5.29,1.61,9.26,1.79,6.14.27,6.79-3.76,8.72-8.27,1.38-3.25,4.92-26.28,4.92-26.28a104.13,104.13,0,0,0,.78-14.93c-.09-1.76-.15-3.42-.2-5a45.33,45.33,0,0,0,34.93-2.86c6.24-3.24,12.38-6.84,18.77-9.81l.39,1.26a36.84,36.84,0,0,0,1.36,3.71,50.9,50.9,0,0,0,13.32,18.29,50.33,50.33,0,0,1,3.83,4.16c1.18,1.28,2.4,2.52,3.49,3.87a7.74,7.74,0,0,1,1.9,4,21.38,21.38,0,0,1-.76,5.49c-.69,3.7-1.14,5.76-1.85,9.47a23.2,23.2,0,0,0-.45,3.09,10.15,10.15,0,0,0-3.94,1,6.14,6.14,0,0,0-3.1,3.09,3.77,3.77,0,0,0-.25,1.58,4.28,4.28,0,0,0,1,2.41c2.23,2.77,6.2,2.19,9.32,2l2.87-.17a3.45,3.45,0,0,0,2.22-.73c1.1-1,.94-2.93,1.06-4.31a63.49,63.49,0,0,1,4.64-19.06,22.26,22.26,0,0,0,1.68-4.89,9.27,9.27,0,0,0-.76-4.87c-.63-1.53-1.47-3-2.24-4.42a41,41,0,0,1-4.66-16.68l.28.27c11,12.35,27.3,23.83,30.79,29.4,3.66,5.84,3.58,11.28,2.36,14.85A10.45,10.45,0,0,1,177.5,222l-1.17.33c-.39.11-1.79.66-1.88.7-4.59,2.08-4.21,5.91-3.57,8.14a2.59,2.59,0,0,0,2.49,1.86h7.87a4.43,4.43,0,0,0,4.33-3.5c1-4.47,2.47-12.22,2.55-17.09.11-7.18-.87-15.14-7.64-29.39s-6-32.64-9.73-51.34c-1.21-6.13-3-10.36-5.47-13.32a23.93,23.93,0,0,1,26.33-2.25,8.64,8.64,0,0,0,2.38,1.13,9.78,9.78,0,0,1-.19-4.65c1.08,1.5,2,3.27,3.15,4.71,3.16,4,10.55,5.87,15.37,6.06,3.64.14,6.74.22,6.74.22-1.4-.28-2.94-2.45-3.7-3.84a53.11,53.11,0,0,0,6.54,2.68c9.61,2.64,27,.15,30.77-2.58.41-.29-3.37-.68-4.54-2.24a17.24,17.24,0,0,1,3.39-.31c10.77.62,19.49-9.17,20.45-9.84a30.52,30.52,0,0,0,5.18-6.44c.18-.32-2.38.39-4.73.93-.13,0-.62.2-.48.12C285.1,95.17,285.74,85.6,285.74,85.6Zm-237,88.09c.59,2.82,1.16,5.4,1.62,7.64.5,2.41.89,4.78,1.18,7.07,2.7,21.49-3.07,37.27-3.07,37.27a8.35,8.35,0,0,0-2.6-1.73,6.53,6.53,0,0,0-1.23-.36,6.69,6.69,0,0,0-4.13.56h0a4.88,4.88,0,0,0-1,.69c.59-1.49.92-3.26,1.43-5.12.94-3.4,1.85-14.08,1.36-26.7h0c-.18-4.79-.57-9.85-1.23-14.9-.37-2.81-.83-5.62-1.38-8.37-.05-.25-.72-1.27-.14-.73,2.39,2.23,7,2.51,9.18,4.68"/><path class="cls-3" d="M285.74,85.6l-3.09.87c-.16,0-.09.14-.27.17,1.11-3.5,1.88-9.78.32-13.21a11.83,11.83,0,0,0-1.88,2.71c.06-11-3.73-23-13.44-29.11.55,1.65,1.06,3.35,1.74,4.94-4.16-5.49-8.3-7.59-15.06-8.36-.13,0,8.63,11.86,8.48,20.55a7.67,7.67,0,0,1-3.09-1.35,4,4,0,0,0-.5-.34c0,.24.1.49.17.77.4,1.79,1.39,6.48,1.95,11.39h0c-.76-.73-2.85-3-4.12-3.22.93,2.74-.14,10.08,0,10.86a8.83,8.83,0,0,0-.7-2.16c-.3-.6-2.22-3.49-2.25-2.76-.22,4.61-8.6,5.31-11.22,6.79,0-2.16.85-4.21-.35-6-.11-.17-2.09,1.16-3.35,1.72a23.89,23.89,0,0,1-6.78,1.69c-3.1.12-6.28-.33-9,.2.93-1.73,1.83-4.21.74-6.14-.06-.11-.84,1.82-4.58,1.65-3.19-.15-8.85-.9-12.57-.71.83-2.34,4.71-2.81,5.63-3.28,0,0-8.93-4.51-23.88,3.74a8.19,8.19,0,0,1,1.79-3.33c.21-.28-5.86,1.15-8.13,2-1.3.64-5.79,2.06-7.8,3.29l-.42.26a36.85,36.85,0,0,0-17.1,33.89,35.49,35.49,0,0,0-14.57-2.1c-12,.39-23.25,3.13-30.88,6.58a49.62,49.62,0,0,1-10.82,2c-.49-.39-1-.77-1.5-1.13a25.56,25.56,0,0,0-6.89-3.54,28.91,28.91,0,0,0-8.77-1.27c-1.68,0-3.35.08-5,.23l-1.88.17h0a20.65,20.65,0,0,1-7.3-6.11A14.8,14.8,0,0,1,68,105.63c0-.06-.29-1.17-.38-1.68a31.74,31.74,0,0,0-1.3-5.12,52.77,52.77,0,0,1-2.78-8.61q.42,0,.84,0a11.19,11.19,0,0,0,1.72-.14A7.56,7.56,0,0,0,69.18,89a12.65,12.65,0,0,1-2.67-.63c6-.9,7.54-5.47,7.38-5.41a9.68,9.68,0,0,1-2.39.67,9.75,9.75,0,0,0,5-6.17,8.88,8.88,0,0,0,.19-2.68,11.79,11.79,0,0,1-3,1.52,5.47,5.47,0,0,0,.32-.85c.19-.68-.17-2.5-.31-2.34a13.71,13.71,0,0,1-3.17,2c2.22-3.59,4.55-8.38,4.78-13A15.45,15.45,0,0,0,73,53.33C74.93,29.9,62.89,17.94,60.48,18c-.29,0-.38.19-.42.54-.9,7.68-5.71,22.7-6.49,25.1A199.7,199.7,0,0,0,30.5,42.46C30,40,26.7,24.57,26.58,16.83c0-.35-.08-.53-.36-.57-2.4-.29-15.59,10.39-16,33.9a15.3,15.3,0,0,0-3.14,8.56c-.24,4.57,1.59,9.57,3.44,13.37a7.93,7.93,0,0,1-2.95-2.33c-.12-.18-.67,1.6-.55,2.29a6.7,6.7,0,0,0,.23.88A11.66,11.66,0,0,1,4.4,71.12a8.69,8.69,0,0,0-.08,2.68c.39,2.9,2.63,6,2,5.73-.16-.07.9,4.63,6.8,6.13A12.52,12.52,0,0,1,10.4,86a8.64,8.64,0,0,0,4.69,1.74,21.58,21.58,0,0,0,3.41,0l.46,0a61.88,61.88,0,0,0-3.28,7.93A65.46,65.46,0,0,0,13.49,104c-3,15.37-1.3,35.62,10.78,61.59,1.47,4.31,2.9,8.17,4,11.34q1.23,3.5,2.11,6.86c5.57,20.93,2,37.34,2,37.34a8.12,8.12,0,0,0-2.81-1.37,6.37,6.37,0,0,0-1.27-.19,6.63,6.63,0,0,0-4,1.11h0a3.86,3.86,0,0,0-1.75,3.05c-.12,2.5.44,4,1.49,4.79,1.92,1.51,5.46.89,9.42.53a6.77,6.77,0,0,0,5-2.22.24.24,0,0,0,0,.08c-.46,2.46-.09,4,.84,4.95,1.69,1.75,5.29,1.61,9.26,1.79,6.14.27,6.79-3.76,8.72-8.27,1.38-3.25,4.92-26.28,4.92-26.28a104.13,104.13,0,0,0,.78-14.93c-.09-1.76-.15-3.42-.2-5a45.33,45.33,0,0,0,34.93-2.86c6.24-3.24,12.38-6.84,18.77-9.81l.39,1.26a36.84,36.84,0,0,0,1.36,3.71,50.9,50.9,0,0,0,13.32,18.29,50.33,50.33,0,0,1,3.83,4.16c1.18,1.28,2.4,2.52,3.49,3.87a7.74,7.74,0,0,1,1.9,4,21.38,21.38,0,0,1-.76,5.49c-.69,3.7-1.14,5.76-1.85,9.47a23.2,23.2,0,0,0-.45,3.09,10.15,10.15,0,0,0-3.94,1,6.14,6.14,0,0,0-3.1,3.09,3.77,3.77,0,0,0-.25,1.58,4.28,4.28,0,0,0,1,2.41c2.23,2.77,6.2,2.19,9.32,2l2.87-.17a3.45,3.45,0,0,0,2.22-.73c1.1-1,.94-2.93,1.06-4.31a63.49,63.49,0,0,1,4.64-19.06,22.26,22.26,0,0,0,1.68-4.89,9.27,9.27,0,0,0-.76-4.87c-.63-1.53-1.47-3-2.24-4.42a41,41,0,0,1-4.66-16.68l.28.27c11,12.35,27.3,23.83,30.79,29.4,3.66,5.84,3.58,11.28,2.36,14.85A10.45,10.45,0,0,1,177.5,222l-1.17.33c-.39.11-1.79.66-1.88.7-4.59,2.08-4.21,5.91-3.57,8.14a2.59,2.59,0,0,0,2.49,1.86h7.87a4.43,4.43,0,0,0,4.33-3.5c1-4.47,2.47-12.22,2.55-17.09.11-7.18-.87-15.14-7.64-29.39s-6-32.64-9.73-51.34c-1.21-6.13-3-10.36-5.47-13.32a23.93,23.93,0,0,1,26.33-2.25,8.64,8.64,0,0,0,2.38,1.13,9.78,9.78,0,0,1-.19-4.65c1.08,1.5,2,3.27,3.15,4.71,3.16,4,10.55,5.87,15.37,6.06,3.64.14,6.74.22,6.74.22-1.4-.28-2.94-2.45-3.7-3.84a53.11,53.11,0,0,0,6.54,2.68c9.61,2.64,27,.15,30.77-2.58.41-.29-3.37-.68-4.54-2.24a17.24,17.24,0,0,1,3.39-.31c10.77.62,19.49-9.17,20.45-9.84a30.52,30.52,0,0,0,5.18-6.44c.18-.32-2.38.39-4.73.93-.13,0-.62.2-.48.12C285.1,95.17,285.74,85.6,285.74,85.6Zm-237,88.09c.59,2.82,1.16,5.4,1.62,7.64.5,2.41.89,4.78,1.18,7.07,2.7,21.49-3.07,37.27-3.07,37.27a8.35,8.35,0,0,0-2.6-1.73,6.53,6.53,0,0,0-1.23-.36,6.69,6.69,0,0,0-4.13.56h0a4.88,4.88,0,0,0-1,.69c.59-1.49.92-3.26,1.43-5.12.94-3.4,1.85-14.08,1.36-26.7h0c-.18-4.79-.57-9.85-1.23-14.9-.37-2.81-.83-5.62-1.38-8.37-.05-.25-.72-1.27-.14-.73,2.39,2.23,7,2.51,9.18,4.68"/><path class="cls-4" d="M282.65,86.47c-.16,0-.09.14-.27.17,1.11-3.5,1.88-9.78.32-13.21a11.83,11.83,0,0,0-1.88,2.71c.06-11-3.73-23-13.44-29.11.55,1.65,1.06,3.35,1.74,4.94-4.16-5.49-8.3-7.59-15.06-8.36-.13,0,8.23,11.14,8.48,20.55a7.67,7.67,0,0,1-3.09-1.35,4,4,0,0,0-.5-.34l.17.77c.4,1.79,1.39,6.48,2,11.39h0c-.76-.73-2.85-3-4.12-3.22.16,3,.52,6.19-.55,8.81-3.43,1.48-6.85,3.25-7.58,3.55-17.62,7.26,0,35.24,20.73,23.84.37-.2,1.81-5.4,2.3-5.5,13.25-5.9,13.89-16.51,13.89-16.51Zm-13.9,7Z"/><path class="cls-5" d="M257,88.05a9.57,9.57,0,0,1-1.54,4.2c-.13.18-.26.35-.4.51l.13,0c.3-.08.69-.2,1.13-.36,1.09-.4,2.51-1,3.76-1.51a14.94,14.94,0,0,1,2.8-1h0a.5.5,0,0,1,0,.13,7.59,7.59,0,0,1-1.09,2.69,20.38,20.38,0,0,1-1.9,2.81,11.9,11.9,0,0,0-.9,1.64c.63-.85.2-.17-.76,1.32,9.19-5.19,11.42-12.15,11.32-12.78h0v0h0c.07.52.62,4.73-.76,7.79h0c.64-.54,1.29-1.09,1.93-1.65a35.23,35.23,0,0,0,3.22-3.13,19.09,19.09,0,0,0,2.2-2.94l.08-.13a16.55,16.55,0,0,0,1.38-2.85,13.28,13.28,0,0,0,.6-2.23,2.23,2.23,0,0,0,0-.23,8.52,8.52,0,0,1-.91.38l-.36.14c-1.14.44-2.81,1.06-4,1.44-.21.08-.41.14-.58.19l-.2.06-.17,0-.14,0-.11,0c-.09,0-.14,0-.12,0,.19-.35.38-.7.55-1.06a26.3,26.3,0,0,0,1.16-2.73c.06-.19.13-.37.19-.56.13-.38.24-.76.35-1.14s.21-.76.3-1.15.17-.77.25-1.16c.11-.59.2-1.17.27-1.77a26.13,26.13,0,0,0-.43-8.81s0-.07,0-.1l-.09-.38a16.13,16.13,0,0,0-1.45-4.09s0,0,0,0a.17.17,0,0,1,0,.07,8.62,8.62,0,0,1-1.2,3.18,15.06,15.06,0,0,1-1.85,3h0c0-.58,0-1.15-.08-1.71A23.58,23.58,0,0,0,267.93,57q-.26-.62-.54-1.2a21.41,21.41,0,0,0-5.85-7.23,29.45,29.45,0,0,0-4-2.74l-1.34-.75-1.1-.59-.85-.44c4.52,6.75,7,11.75,8.33,20.12a7.67,7.67,0,0,1-3.09-1.35c2.36,1.94,3.19,7.47,3.84,9.19,2-7.55,1.64-13.81-3.12-23.22-.31-.62,8.88,7.56,7.73,23.49,5.08-3,4.75-8.93,4.82-8.59,2,10-5.38,21.29-5.18,20.62,1.41-4.79-.11-10.22-1.52-15.68-.2,4.65-4.56,14-4.54,13.58a52.53,52.53,0,0,0-.41-7.57h0c-.76-.73-2.85-3-4.12-3.22a13.34,13.34,0,0,1-.55,8.81,10,10,0,0,1,.54,2A16.47,16.47,0,0,1,257,88.05Zm1.46-1A49.83,49.83,0,0,0,259,75.27a10.7,10.7,0,0,1,.66,1.82c.29.91.39,1.89.61,2.81a56,56,0,0,1,.5,5.81,14.29,14.29,0,0,0,3-3.32,1.8,1.8,0,0,0,.05-.19,1.8,1.8,0,0,1-.05.19,8.73,8.73,0,0,1-.76,2,16.41,16.41,0,0,1-3.5,4.62,19.74,19.74,0,0,1-1.7,1.26C258,89.2,258.24,88.14,258.44,87.1Z"/><path class="cls-6" d="M261.48,82.2c0,.4,4.34-8.93,4.54-13.58,1.41,5.46,2.93,10.89,1.52,15.68-.2.67,7.21-10.65,5.18-20.62-.07-.34.26,5.6-4.82,8.59,1.15-15.93-8-24.11-7.73-23.49,4.76,9.41,5.15,15.67,3.12,23.22-.65-1.72-1.48-7.25-3.84-9.19a4,4,0,0,0-.5-.34l.17.77c.4,1.79,1.39,6.48,1.95,11.39A52.53,52.53,0,0,1,261.48,82.2Z"/><path class="cls-6" d="M262.94,84.34a8.73,8.73,0,0,0,.76-2,14.29,14.29,0,0,1-3,3.32,56,56,0,0,0-.5-5.81c-.22-.92-.32-1.9-.61-2.81a10.7,10.7,0,0,0-.66-1.82,49.83,49.83,0,0,1-.53,11.83c-.2,1-.45,2.1-.7,3.12a19.74,19.74,0,0,0,1.7-1.26A16.41,16.41,0,0,0,262.94,84.34Z"/><path class="cls-7" d="M265.79,102.84h-.17c.32-.12.64-.26,1-.41,7.13-3.42,12.21-12.52,11.67-12.65,0,0,0,0,0,0h0s-3.67,2.62-5.47,3.84l-.22.15a39.64,39.64,0,0,1-6.31,3.6,28,28,0,0,1-6.59,2c-.72.12-1.47.24-2.26.33s-1.38.16-2.11.22a26,26,0,0,0,3.4-3c.4-.44.81-.91,1.2-1.4a20.38,20.38,0,0,0,1.9-2.81A11.43,11.43,0,0,0,262.84,90a.5.5,0,0,0,0-.13h0a20.2,20.2,0,0,0-2.8,1c-1.25.52-2.67,1.11-3.76,1.51-.44.16-.83.3-1.13.38l-.16,0,0,0c.14-.16.27-.33.4-.51a10.88,10.88,0,0,0,1.54-4.2,16.47,16.47,0,0,0,0-5.78,8.83,8.83,0,0,0-.7-2.16c-.3-.6-2.22-3.49-2.25-2.76-.22,4.61-8.6,5.31-11.22,6.79,0-2.16.85-4.21-.35-6-.11-.17-2.09,1.16-3.35,1.72a23.89,23.89,0,0,1-6.78,1.69c-3.1.12-6.28-.33-9,.2.93-1.73,1.83-4.21.74-6.14-.06-.11-.84,1.82-4.58,1.65-3.19-.15-8.85-.9-12.57-.71.83-2.34,4.71-2.81,5.63-3.28,0,0-8.93-4.51-23.88,3.74a8.19,8.19,0,0,1,1.79-3.33c.21-.28-5.86,1.15-8.13,2-1.3.64-2.56,1.29-3.76,2a43.46,43.46,0,0,0-6.13,4.21,36.72,36.72,0,0,0-4.63,4.62c-.2.24-.41.49-.6.74a20.93,20.93,0,0,0-1.73,2.72,11.33,11.33,0,0,1-1.37,2l-.06.07h0c4.51-3.75,8.7-5.83,18.24-5.88.59,0-16.18,3.72-19.56,16.26,2.31-2.45,5.94-3.56,9.23-4.09L173,98a10.65,10.65,0,0,0-4.83,5.73c-.13.37,7.4-4.41,14.48-.74a9,9,0,0,1,1.45,1.17,14.68,14.68,0,0,0-8.6.37,18.09,18.09,0,0,0-8.28,6.16,21.37,21.37,0,0,0-1.76,2.65c0,.15.07.23.07.23,11.85-7.24,24.12-2,25.25-1.46-.48-.22-1-.48-1.46-.76h0q.78.42,1.56.81l.33.16s0,0,0,0a.75.75,0,0,0-.1-.28c-.24-.5-.82-1.55-1.17-2.29-.63-1.36-1.86-4.21-1.88-6,2.64,4.51,8,8.76,12,11.55a58.66,58.66,0,0,0,9.57,4.28,18.38,18.38,0,0,1-1.72-2.85,18.85,18.85,0,0,1-1.11-2.79,13.3,13.3,0,0,1-.65-3.73h0l.19.19a16.56,16.56,0,0,0,2.39,1.83c1.15.74,2.37,1.45,3.47,2.25a13.24,13.24,0,0,0,2.23,1.29,42.94,42.94,0,0,0,8.14,2.66c2.47.59,4.86,1,6.68,1.28.75.1,1.4.18,1.92.23a99.44,99.44,0,0,0,10.16,0h.05s0,0,0,0l-.72-.44c-1.32-.79-2.77-1.62-4.19-2.53a27.68,27.68,0,0,1-4.42-3.41,15.06,15.06,0,0,1-2-2.29h0l.49.2a36.52,36.52,0,0,0,4.1,1.27,48.21,48.21,0,0,0,5.49,1,66.93,66.93,0,0,0,7.9.57,45.88,45.88,0,0,0,10.83-1.09,37.36,37.36,0,0,0,10.11-3.91c1-.56,2-1.16,2.92-1.83a30.52,30.52,0,0,0,5.18-6.44c.18-.32-2.38.39-4.73.93a3.06,3.06,0,0,1-.48.12c-.53.09-1,.15-1.43.21-.73.1-1.39.16-2.17.24Z"/><path class="cls-3" d="M134.67,221.66c.21,0,.43-.08.65-.11l-.25.12a3.31,3.31,0,0,0-1.81,3.51,1.42,1.42,0,0,1,0,.2l0,.06a.83.83,0,0,0,0,.15v0l.06.19h0l.07.18,0,0,.06.13,0,0,.08.18h0l.09.15,0,0,.09.13,0,0,.11.15h0a1.34,1.34,0,0,0,.11.14l0,0,.12.13h0l.14.14h0l.14.13h0a5.32,5.32,0,0,0,.47.36h0a2.63,2.63,0,0,0,1,.18,2.46,2.46,0,0,1-.51-.77,4.08,4.08,0,0,1,.12-3.35,2.69,2.69,0,0,1,2.12-1.78,2.5,2.5,0,0,0-1.29,1.48c-.39,1.42.08,3.68,1.38,3.73.58,0,1.15.11,1.72.13s1.38.17,2.08.23a3.91,3.91,0,0,0,1.83-.06,2.78,2.78,0,0,0,.68-.36h0a.71.71,0,0,0,.1-.14l0,0,.08-.13,0,0a1.19,1.19,0,0,1,.08-.16v0a.61.61,0,0,1,.07-.14v-.05l.06-.15v0l.06-.18,0-.05,0-.14,0-.05c0-.07,0-.13,0-.19a18.31,18.31,0,0,0,.23-2.56c.05-1,.13-2,.24-3a38,38,0,0,1,2.44-9.88c1.29-3.62,2.84-7.45,1.54-11.3a25.31,25.31,0,0,0-2.54-4.9q-1.53-2.55-2.93-5.17c-1.8-3.41-3.28-7-5.1-10.37a22.39,22.39,0,0,0-6.72-8.11c-2.62-1.83-6.06-2.92-9.22-2a9.54,9.54,0,0,0-4.57,3,50.9,50.9,0,0,0,13.32,18.29,50.33,50.33,0,0,1,3.83,4.16c1.18,1.28,2.4,2.52,3.49,3.87a7.74,7.74,0,0,1,1.9,4,21.38,21.38,0,0,1-.76,5.49c-.69,3.7-1.14,5.76-1.85,9.47a23.2,23.2,0,0,0-.45,3.09,10.15,10.15,0,0,0-3.94,1,6.14,6.14,0,0,0-3.1,3.09,3.77,3.77,0,0,0-.25,1.58A5.8,5.8,0,0,1,134.67,221.66Z"/><path class="cls-8" d="M144.63,173.83c-3.8-4.43-6.85-9-8.32-13.34-.83.08-1.65.19-2.46.32-1.5.24-3,.55-4.44.92a70.49,70.49,0,0,0-11.57,4.13c-.48.21-1,.43-1.44.66l.39,1.26a36.84,36.84,0,0,0,1.36,3.71,9.54,9.54,0,0,1,4.57-3c3.16-.92,6.6.17,9.22,2a22.39,22.39,0,0,1,6.72,8.11c1.82,3.4,3.3,7,5.1,10.37q1.4,2.63,2.93,5.17a25.31,25.31,0,0,1,2.54,4.9c1.3,3.85-.25,7.68-1.54,11.3a38,38,0,0,0-2.44,9.88c-.11,1-.19,2-.24,3a18.31,18.31,0,0,1-.23,2.56c0,.06,0,.12,0,.19l0,.05,0,.14,0,.05-.06.18v0l-.06.15v.05a.61.61,0,0,0-.07.14v0a1.19,1.19,0,0,0-.08.16l0,0-.08.13,0,0a.71.71,0,0,1-.1.14h0a2.78,2.78,0,0,1-.68.36,3.91,3.91,0,0,1-1.83.06c-.7-.06-1.38-.21-2.08-.23s-1.14-.12-1.72-.13c-1.3,0-1.77-2.31-1.38-3.73a2.5,2.5,0,0,1,1.29-1.48,2.69,2.69,0,0,0-2.12,1.78,4.08,4.08,0,0,0-.12,3.35,2.46,2.46,0,0,0,.51.77,2.63,2.63,0,0,1-1-.18h0a5.32,5.32,0,0,1-.47-.36h0l-.14-.13h0l-.14-.14h0l-.12-.13,0,0a1.34,1.34,0,0,1-.11-.14h0l-.11-.15,0,0-.09-.13,0,0-.09-.15h0l-.08-.18,0,0-.06-.13,0,0-.07-.18h0l-.06-.19v0a.83.83,0,0,1,0-.15l0-.06a1.42,1.42,0,0,0,0-.2,3.31,3.31,0,0,1,1.81-3.51l.25-.12c-.22,0-.44.06-.65.11a5.8,5.8,0,0,0-4.33,3.86,4.28,4.28,0,0,0,1,2.41c2.23,2.77,6.2,2.19,9.32,2l2.87-.17a3.45,3.45,0,0,0,2.22-.73c1.1-1,.94-2.93,1.06-4.31a63.49,63.49,0,0,1,4.64-19.06,22.26,22.26,0,0,0,1.68-4.89,9.27,9.27,0,0,0-.76-4.87c-.63-1.53-1.47-3-2.24-4.42a41,41,0,0,1-4.66-16.68l0,0A7.8,7.8,0,0,1,144.63,173.83Zm4.66,19.2.26.12-.26-.12-.37-.17Z"/><path class="cls-4" d="M104.74,165.66c-3.11,1.28-6.13,3.08-9.32,4.14s-6.07,2.28-9.33,3.11A65.36,65.36,0,0,1,76.76,175a30.72,30.72,0,0,1-9.33,0c-1-.17-3.1-1.72-4.15-2.07l-.65,2.64c0,.57.07,3.56.07,3.64a45.33,45.33,0,0,0,34.93-2.86c6.24-3.24,12.38-6.84,18.77-9.81.47-.23,1-.45,1.44-.66C117.18,161.51,107.7,164.44,104.74,165.66Z"/><path class="cls-9" d="M75.71,176.46a74.85,74.85,0,0,0,10-1.93c3.26-.83,6.5-1.77,9.69-2.84s6.36-2.23,9.47-3.52,6-2.79,9.19-3.06a6,6,0,0,1,3.82.75,70.49,70.49,0,0,1,11.57-4.13c1.46-.37,2.94-.68,4.44-.92.81-.13,1.63-.24,2.46-.32l-.08-.24c-.62-1.92-1.13-3.69-1.54-5.33-.93-.1-1.85-.18-2.78-.23h-.32l-.32,0h-5.69l-.47,0H125l-.48,0h-.15l-.24,0-.25,0h-.14l-.5.05-.12,0-.25,0-.27,0h-.11l-.25,0-.28,0-.09,0-.28,0-.26,0h-.08l-.55.09h-.07l-.56.1H120l-.27.05-.3.05h0l-.57.12h0l-.58.12h0l-.59.13h0l-.32.07-.27.07h0l-.59.15h0l-.27.07-.32.09h0l-.6.17h0l-.28.08-.32.1h0l-.33.1-.27.08h0l-.6.19h0l-.6.2h0l-.59.21h0l-.15.06-.14,0a88.13,88.13,0,0,0-10.48,4.87l-2.24,1.17-1,.52c-2.35,1.23-4.72,2.43-7.11,3.57-3.54,1.67-7.13,3.26-10.77,4.69-.91.35-1.83.7-2.77,1a21.52,21.52,0,0,1-7.81,1.27c-.38,0-.76-.06-1.14-.11a12.84,12.84,0,0,1-4.63-1.49,12.05,12.05,0,0,1-1.21-.8v2c0,.41,0,.82,0,1.24h0a21.64,21.64,0,0,0,3.16.76A35.08,35.08,0,0,0,75.71,176.46Z"/><path class="cls-7" d="M102.34,122.25c-2.58,1.78-4.54,2.51-6.83,4.65-1.19-4-3-6.7-6.69-8.43-4.3-2-10.33-2.29-14.61-.38-2.16,1-4.8,3.56-6.44,5.26.12-2,.3-4.14-.56-6-2.49-5.37-7.23-6.44-11.6-6-.18.5-.36,1-.51,1.54a21.23,21.23,0,0,0-.35,5.4,17.18,17.18,0,0,1-1.94-4.91,31.38,31.38,0,0,1-1.22,3.14c-3.1,5.73-3.63,16.73-3.63,16.73a24.75,24.75,0,0,1-1.67-3.92h0c0,.12-.08.51-.1.59s-.13.77-.14.86-.13.81-.14.88,0,.16,0,.25,0,.22,0,.34-.08.54-.09.6-.07.5-.08.62-.09.67-.1.75l0,.22c0,.15-.06.54-.06.58s-.12,1-.13,1.1-.1,1-.1,1.09-.12,1.37-.12,1.44,0,.12,0,.19a.57.57,0,0,1,0,.13c0,.05,0,.26,0,.32v.81c0,.09,0,.18,0,.27s0,.26,0,.38v.13s0,.53,0,.73v.2c0,.15,0,.29,0,.43a2.44,2.44,0,0,1,0,.27v.19c0,.06,0,.12,0,.18v.28c0,.12,0,.24,0,.36v.29c0,.12,0,.24,0,.37v2.22c0,.09,0,.19,0,.29V147c0,.2,0,.4,0,.59v.22c0,.14,0,.27,0,.41s0,.27,0,.4h0c0,.27,0,.53,0,.8,0,0,0,.08,0,.12v.12l0,.57v.28c0,.09,0,.19,0,.28s0,.19,0,.28v.26c0,.27,0,.54.07.81,0,.5.1,1,.16,1.52.09.76.19,1.53.3,2.3s.24,1.53.38,2.3h0c0,.43.11.85.17,1.28.18,1.27.38,2.52.58,3.75.09.55.18,1.09.28,1.63.13.78.48,2.67.52,2.86.39,2.06.79,4,1.18,5.9h0c.59,2.82,1.16,5.4,1.62,7.64.5,2.41.89,4.78,1.18,7.07,2.7,21.49-3.07,37.27-3.07,37.27a8.35,8.35,0,0,0-2.6-1.73,6.53,6.53,0,0,0-1.23-.36,6.69,6.69,0,0,0-4.13.56h0a5.13,5.13,0,0,0-.34,4.93l0,.06c0,.05,0,.1.08.14l0,.06a4,4,0,0,1,.83-3.66c.05-.07.11-.13.17-.2a3.28,3.28,0,0,1,1.85-.86l.11,0,.43-.07.14,0,.28,0h.13a2.56,2.56,0,0,1,.94.17l.2.09.1.06c.1,0-5.15-.38-3.38,4.43a.94.94,0,0,0,.06.15,2.66,2.66,0,0,0,.6.66l.24.2,0-.13a3.29,3.29,0,0,1-.06-.77c0-.16,0-.32,0-.47a5.4,5.4,0,0,1,.6-2.06.75.75,0,0,1,.14-.17,1.28,1.28,0,0,1,.31-.24l.07-.05.17-.09a4.32,4.32,0,0,1,.41-.18h0l.16-.05h0a3.61,3.61,0,0,0-.69,1.35,5.91,5.91,0,0,0,0,1.68,2.68,2.68,0,0,0,.15.59,3.28,3.28,0,0,0,1.52,1.6l.28.15h0l.39.17a3.64,3.64,0,0,0,.91.21h.19l.53,0h.49a5.73,5.73,0,0,0,1.44-.17l.38-.12.07,0a3.48,3.48,0,0,0,.9-.56,4.28,4.28,0,0,0,.74-.84,17.14,17.14,0,0,0,1.44-3.1c.46-1.11.89-2.24,1.3-3.38.8-2.28,1.51-4.6,2.1-6.94a111.73,111.73,0,0,0,2.22-26.86c-.07-1.37-.15-2.75-.25-4.12-.37-5.62-1.06-11.2-1.6-16.81A58.93,58.93,0,0,1,57.54,153c.13-.73.28-1.46.46-2.19a25.34,25.34,0,0,1,5.27-10.74c.06-.07.13-.14.19-.22.3-.33.6-.65.92-1l.3-.29A19.37,19.37,0,0,1,67,136.75l.47-.31c0,.07-.14.28-.15.31s-.48,1-.48,1-.51,1.28-.52,1.29-.16.46-.21.59-.17.52-.18.54-.1.29-.14.44-.21.71-.22.73c-.08.25-.15.52-.22.79,0,0-.07.27-.11.39h0v.06l-.11.41h0c-.07.28-.14.58-.21.88V144l-.09.42v0c-.07.31-.13.63-.2,1v0c0,.15,0,.3-.08.46v0l-.18,1v0c0,.17,0,.34-.08.51v.13c0,.24-.08.48-.11.73l-.12.85v.06l-.06.48v.08h0a1.36,1.36,0,0,1,0,.2v.05c0,.07,0,.14,0,.22h0a1.49,1.49,0,0,0,0,.21v0a1.79,1.79,0,0,0,0,.23h0a1.94,1.94,0,0,0,0,.24h0a2.11,2.11,0,0,0,0,.25h0l0,.52h0c.16,3.77,1.43,7.43,4.93,9.86,7.53,5.22,26.71-6,42.71-7.77,10.22-1.16,16.23-2.68,19.23-5.57a15.88,15.88,0,0,0,2.23-5.22c.12-.73.21-1.17.21-1.17h0c0,.42,0,.87,0,1.36.65,3.89,5.13,25.67,25.42,39.3,5.59,3.76,10.14,8.72,13.45,10.92,9.91,6.63,5.85-5.95,3.46-14l-.33-.74,0-.11c-.1-.24-.21-.47-.31-.71l-.06-.13-.3-.71-.06-.12c-.1-.24-.2-.49-.31-.73l0-.07c-.11-.24-.21-.48-.31-.72l0-.07c-.1-.24-.2-.49-.29-.73l-.05-.13c-.1-.23-.2-.47-.29-.71l-.05-.13c-.1-.24-.19-.49-.28-.73l0-.1c-.1-.25-.2-.51-.29-.76h0c-.1-.25-.19-.51-.28-.76l0-.11c-.08-.24-.17-.48-.25-.73l0-.13c-.08-.25-.17-.49-.25-.73l0-.13-.24-.75,0-.07c-.08-.25-.16-.5-.23-.75l0-.07c-.08-.25-.15-.51-.22-.76l0-.13c-.07-.25-.14-.49-.2-.74l0-.14c-.07-.25-.13-.5-.19-.75l0-.11c-.06-.27-.13-.53-.19-.8a56.12,56.12,0,0,1-.85-15.74c.29-5.24.7-10.5,0-15.73-.64-4.71-2-10.83-5.08-14.53a31.53,31.53,0,0,0-5.57-4.86c-.5-.2-1-.38-1.48-.56a35.49,35.49,0,0,0-14.57-2.1c-12,.39-23.25,3.13-30.88,6.58-2.07.94-3.88,1.84-5.32,2.6A25.71,25.71,0,0,0,102.34,122.25Zm30.79,18.39Z"/><path class="cls-3" d="M14.24,102.11l.42-1.06,0-.08.42-1S19.19,93.09,23.7,91a43.45,43.45,0,0,0-6.56,27.24h0c0-.08,0-.19,0-.32h0s0-.08,0-.13h0s0-.09,0-.14h0s0-.1,0-.15h0c0-.06,0-.12,0-.18h0a.88.88,0,0,0,0-.17v0a1.11,1.11,0,0,1,0-.17v0a1.1,1.1,0,0,1,0-.18v0l0-.2h0a2.07,2.07,0,0,1,0-.22h0l0-.22v0c0-.07,0-.14,0-.21v0a1.7,1.7,0,0,1,0-.22v0c0-.08,0-.16,0-.23v0c0-.08,0-.16.05-.24h0l.06-.25v0l.06-.25v0l.06-.25v-.05l.06-.26,0,0,.06-.27v0c0-.09.05-.18.07-.27v0c0-.09.05-.18.08-.27v-.06c0-.09.05-.19.08-.28l0-.06c0-.09.05-.19.08-.28v-.06l.09-.29v0l.09-.29v0c0-.1.07-.2.1-.3l0-.06c0-.09.06-.19.1-.29l0-.07c0-.1.07-.2.1-.3l0-.06c0-.1.07-.2.11-.31l0,0c0-.1.07-.2.11-.31v0l.12-.32,0-.06c0-.1.08-.2.12-.31l0-.07c0-.1.09-.2.13-.31l0-.06c0-.11.08-.21.13-.32l0-.05c.05-.1.09-.21.14-.32v0l.15-.33,0-.06.15-.31,0-.07.15-.32,0-.06c.06-.11.11-.21.16-.32l0-.05.17-.34v0a3.24,3.24,0,0,0,.17-.32l0,0,.18-.32,0-.06.18-.31,0-.07c.06-.1.12-.21.19-.31l0-.06.2-.32v0l.21-.32,0,0,.21-.32,0,0,.21-.31,0-.06.22-.3,0,0a3.55,3.55,0,0,1,.23-.31l0,0,.24-.31,0,0a3.76,3.76,0,0,1,.25-.31l0,0,.24-.29.05,0c.08-.09.16-.19.25-.28l0,0,.27-.29,0,0,.57-.59,0,0,.67-.62.3-.26,0,0,.32-.26h0l-5.59,2.4s0,0,0-.06.2-.69.22-.75A43.61,43.61,0,0,1,23,96.17.91.91,0,0,0,23,96l.14-.26c.25-.48.5-.92.72-1.27.07-.09.13-.19.2-.29l.19-.29.09-.13.39-.58,0,0,0,0c.12-.18.24-.35.37-.52l.08-.12.21-.28a2.83,2.83,0,0,1,.2-.28l.06-.09.2-.26c.06-.08.12-.17.19-.25l.06-.09.43-.56,0,0,0,0,.42-.53,0,0,.45-.55,0,0,0,0,.47-.56,0,0a6.57,6.57,0,0,0-3.32-2.91,4.28,4.28,0,0,1,3.23.64c-1.84-1.78-4.43-2.23-6.95-2.78a61.59,61.59,0,0,0-5.44,11.91A65.46,65.46,0,0,0,13.49,104c.17-.46.35-.91.53-1.37C14.09,102.47,14.16,102.29,14.24,102.11Z"/><path class="cls-9" d="M59.94,98.1a9.8,9.8,0,0,0-1.19-2.18c-.92-3.61-3.55-7.61-5.1-7.52C53.08,88.44,26,89,26,89c-.63-.16.07.56.86,1.46l-.16.2,0,0,0,0-.43.56-.06.09c-.07.08-.13.17-.19.25l-.2.26-.06.09a2.83,2.83,0,0,0-.2.28l-.21.28-.08.12c-.13.17-.25.34-.37.52l0,0,0,0-.39.58-.09.13-.19.29c-.07.1-.13.2-.2.29-.22.35-.47.79-.72,1.27L23,96a.91.91,0,0,1-.07.14,43.61,43.61,0,0,0-1.89,4.34c0,.06-.21.69-.22.75s0,.07,0,.06l5.59-2.4h0l-.32.26,0,0-.3.26,0,0-.29.26,0,0-.28.26,0,0-.28.29h0l-.27.29,0,0-.27.29,0,0c-.09.09-.17.19-.25.28l-.05,0-.24.29,0,0a3.76,3.76,0,0,0-.25.31l0,0-.24.31,0,0a3.55,3.55,0,0,0-.23.31l0,0-.22.3,0,.06-.21.31,0,0-.21.32,0,0-.21.32v0l-.2.32,0,.06c-.07.1-.13.21-.19.31l0,.07-.18.31,0,.06-.18.32,0,0a3.24,3.24,0,0,1-.17.32v0l-.17.34,0,.05c-.05.11-.1.21-.16.32l0,.06-.15.32,0,.07-.15.31,0,.06-.15.33v0c-.05.11-.09.22-.14.32l0,.05c-.05.11-.09.21-.13.32l0,.06c0,.11-.09.21-.13.31l0,.07c0,.11-.09.21-.12.31l0,.06-.12.32v0c0,.11-.08.21-.11.31l0,0c0,.11-.07.21-.11.31l0,.06c0,.1-.07.2-.1.3l0,.07c0,.1-.07.2-.1.29l0,.06c0,.1-.07.2-.1.3v0l-.09.29v0l-.09.29v.06c0,.09-.06.19-.08.28l0,.06c0,.09-.05.19-.08.28v.06c0,.09-.05.18-.08.27v0c0,.09-.05.18-.07.27v0l-.06.27,0,0-.06.26v.05l-.06.25v0l-.06.25v0l-.06.25h0c0,.08,0,.16-.05.24v0c0,.07,0,.15,0,.23v0a1.7,1.7,0,0,0,0,.22v0c0,.07,0,.14,0,.21v0l0,.22h0a2.07,2.07,0,0,0,0,.22h0l0,.2v0a1.1,1.1,0,0,0,0,.18v0a1.11,1.11,0,0,0,0,.17v0a.88.88,0,0,1,0,.17h0c0,.06,0,.12,0,.18h0s0,.1,0,.15h0s0,.1,0,.14h0s0,.09,0,.13h0c0,.13,0,.24,0,.32h0v.08h0v.11h0v0h0v0h0a24.89,24.89,0,0,1,4.55-4.09l0,.07-.21.38v0c-.09.16-.18.32-.26.49l0,0,0,0-.12.24-.12.23,0,0,0,0a2.56,2.56,0,0,1-.11.24l-.12.24v0l0,0c-.4.85-.77,1.71-1.09,2.59-.09.23-.17.46-.25.69l0,.07c0,.17-.11.34-.17.51v.08l-.09.26a2,2,0,0,1-.08.26v0c-.15.48-.28,1-.41,1.45s-.23,1-.33,1.45h0a32.62,32.62,0,0,0-.35,11.41h0c0,.18,0,.37.09.56.07.45,1.65-3.12,2.76-4.22-.85,7.27-.8,19.35,3.68,23.67,0,0,.36-4.2.58-5.17,1.54,6.66,8.21,16.59,8.13,16.27a9.32,9.32,0,0,1,.14-4.68l.15-.47A30.11,30.11,0,0,0,39.57,169c2.39,2.23,7,2.5,9.18,4.68-.39-1.87-.79-3.84-1.18-5.9,0-.19-.71-3.94-.8-4.49-.2-1.23-.4-2.48-.58-3.75-.06-.43-.12-.85-.17-1.28h0c-.14-.77-.27-1.54-.38-2.3s-.22-1.56-.27-2.08c-.2-2.2-.51-8.81-.51-8.84v-.81c0-.13,0-.25,0-.37v-.29c0-.12,0-.24,0-.36v-.28a1.09,1.09,0,0,0,0-.18v-.19a2.44,2.44,0,0,0,0-.27c0-.14,0-.28,0-.43v-.2c0-.2,0-.69,0-.73s0-.38,0-.51.13-1.85.13-1.91.16-1.84.17-1.89.14-1.31.15-1.42.07-.56.08-.71.09-.64.1-.73.06-.48.08-.6.11-.77.12-.86l.31-1.95,0-.19,0-.19a2.17,2.17,0,0,0,0-.25l.06-.34h0A24.75,24.75,0,0,0,48,133.31s.53-11,3.63-16.73a31.38,31.38,0,0,0,1.22-3.14,17.18,17.18,0,0,0,1.94,4.91,21.23,21.23,0,0,1,.35-5.4c.15-.52.33-1,.51-1.54,1-2.71,2.33-5.22,1.83-7.76,1.12,1.36,3.15,4.84,3.25,4.53A13.85,13.85,0,0,0,59.94,98.1Z"/><path class="cls-4" d="M45.1,151.21v-.13c0-.09,0-.18,0-.28s0-.19,0-.28v-.28l0-.57v-.12s0-.08,0-.12c0-.27,0-.53,0-.8h0c0-.13,0-.27,0-.4s0-.27,0-.41v-.22c0-.19,0-.39,0-.59v-.25c0-.1,0-.2,0-.29v-1.31c-.8-2-1.58-4.05-2.29-6.1-2.23-6.51-3.66-13.68-1.82-20.42a26,26,0,0,0-4.36,9.43c-.11.45-.73-4-.66-6a81.8,81.8,0,0,1,.63-9.25,17.63,17.63,0,0,1,2.15-6.45A16.13,16.13,0,0,0,33,112.64c-.17.34-.32-3.34,0-4.89.37-1.77.39-5,.95-6.75a9.6,9.6,0,0,0,4.61.71c6.84.69,7-1.39,8.49-3.39a29.31,29.31,0,0,1-7.82-.19h0s-4.71,2.39-8-.69a3.15,3.15,0,0,1,0-.53,6.48,6.48,0,0,1-1-1,62.47,62.47,0,0,0-3,8.18l5.84-2.6,0,0c-4.11,4.7-5.7,11.08-6.2,17.2-.18,2.15.21,7,.36,6.63a11.48,11.48,0,0,1,4.38-4.9c-2,6.37-1,13.12.58,19.49.49,1.93,2.23,6,2.28,5.67a20.58,20.58,0,0,1,2.72-8.17,33,33,0,0,0,3.11,15c.67,1.43,3.13,4.24,3,3.83a9.38,9.38,0,0,1,.44-7l1.3,2.82c0-.27,0-.54-.07-.81Z"/><path class="cls-7" d="M23.92,221.77l-.06.32c0,.11,0,.21,0,.32a3.87,3.87,0,0,0,0,.48,5.37,5.37,0,0,0,.05.8l.06.31c0,.11.05.21.07.31s.09.28.14.42,0,.07.05.1a4.42,4.42,0,0,0,.43.8h0l0,.05a1.47,1.47,0,0,1,.1.13h0l0,0a1.17,1.17,0,0,0-.05-.11,4.26,4.26,0,0,1-.15-.47c0-.12-.06-.24-.08-.37a1.49,1.49,0,0,1,0-.21c0-.13,0-.25,0-.38a1.93,1.93,0,0,1,0-.24c0-.08,0-.16,0-.24s0-.24.07-.36a3.58,3.58,0,0,1,.09-.35,4.12,4.12,0,0,1,.23-.58l.23-.43.15-.22a2.21,2.21,0,0,1,.35-.39,3.88,3.88,0,0,1,1.37-.71l.11,0,.41-.13.38-.09.16,0,.24,0a2.16,2.16,0,0,1,.71.06l.22.07.11,0a9.85,9.85,0,0,0-1.08.23,4,4,0,0,0-.68.25l-.2.09-.19.11-.1.06-.27.19-.13.11-.2.2-.07.09a1.27,1.27,0,0,0-.13.19l-.12.2-.09.22a2.24,2.24,0,0,0-.1.37l0,.27a2.19,2.19,0,0,0,0,.44,3.74,3.74,0,0,0,.18.84c.06.18.14.37.23.57l.2.41a.43.43,0,0,0,0,.07l.05.07a2.57,2.57,0,0,0,.75.63,1.18,1.18,0,0,1,.19.11l0-.12a1.87,1.87,0,0,1-.07-.22c0-.12-.05-.24-.08-.36s0-.12,0-.18a1.79,1.79,0,0,1,0-.23c0-.08,0-.16,0-.23v-.25a2.18,2.18,0,0,1,0-.25,2.26,2.26,0,0,1,0-.26c0-.05,0-.09,0-.14a2.51,2.51,0,0,1,0-.27.78.78,0,0,1,0-.14l.06-.31a5.08,5.08,0,0,1,.17-.51.3.3,0,0,1,.06-.11l.05-.07.06-.08.14-.13.08-.08.06-.05.16-.11h0a2.56,2.56,0,0,1,.25-.16l.08,0,0,0h0l.09,0,.06,0h0c-.08.18-.17.35-.25.52s0,.11-.07.17a.87.87,0,0,0-.07.17c0,.06,0,.12-.05.18s0,.06,0,.09l0,.19a.31.31,0,0,1,0,.1v.21a3,3,0,0,0,0,.42,4.51,4.51,0,0,0,.09.53l.12.51a.88.88,0,0,0,.05.15,1.68,1.68,0,0,0,.17.41,2.67,2.67,0,0,0,.71.82l.12.09.19.12a3.07,3.07,0,0,0,.31.17,3.39,3.39,0,0,0,.39.18l.3.12h0l.25.08.17,0,.19,0,.27,0,.23,0h.42l.54,0h0c.31,0,.63-.07.94-.13a4.81,4.81,0,0,0,.65-.18l.28-.1.09,0,.26-.13.07,0h0a4.56,4.56,0,0,0,.42-.31,3.49,3.49,0,0,0,.7-.78,3.77,3.77,0,0,0,.28-.48l0,0,.14-.3.06-.17a6.38,6.38,0,0,0,.3-.87.56.56,0,0,0,0-.12c0-.1.06-.2.08-.3l0-.11c.13-.47.24-.94.36-1.39s.27-1.06.4-1.59.19-.81.27-1.21c.06-.25.11-.49.16-.73l.18-.89c.18-.89.34-1.78.48-2.68,0-.3.1-.6.14-.89s.09-.6.13-.9c.08-.6.16-1.2.23-1.8.07-.89.13-1.78.17-2.65,0-.3,0-.59,0-.88l0-1a1.93,1.93,0,0,0,0-.24c0-.09,0-.17,0-.25,0-.5,0-1,0-1.48,0-.16,0-.32,0-.49v-1l0-1.91c0-.15,0-.31,0-.47,0-.63,0-1.24-.07-1.86h0v0c0-.36-.09-.71-.15-1.06s-.08-.5-.13-.75c-.14-.84-.29-1.68-.47-2.51,0-.25-.1-.5-.17-.75-.16-.66-.34-1.32-.53-2s-.4-1.31-.62-2c-.38-1.15-.81-2.28-1.27-3.4l-.4-1c-.48-1.11-1-2.2-1.53-3.29-.35-.71-.9-1.74-1.61-3.06-.38-.71-.81-1.51-1.27-2.39a186.13,186.13,0,0,1-9.22-19.89c-.1-.24-.19-.49-.28-.73-.19-.49-.37-1-.55-1.48-1-2.71-1.91-5.52-2.7-8.37a66.73,66.73,0,0,1-1.8-12c0-.34,0-.66,0-1,0-.48,0-.94,0-1.38a31.06,31.06,0,0,1,.49-5.8c.06-.23.11-.46.17-.69a2.29,2.29,0,0,1,.07-.28c0-.1,0-.19.07-.29q.12-.45.27-.93h0c.1-.48.21-1,.33-1.45s.26-1,.41-1.45v0a2,2,0,0,0,.08-.26l.09-.26v-.08c.06-.17.12-.34.17-.51l0-.07c.08-.23.16-.46.25-.69.32-.88.69-1.74,1.09-2.59l0,0v0l.12-.24a2.56,2.56,0,0,0,.11-.24l0,0,0,0,.12-.23.12-.24,0,0,0,0c.08-.17.17-.33.26-.49h0v0l.21-.37,0-.07a24.89,24.89,0,0,0-4.55,4.09h0v0h0v0h0v-.11h0v-.08h0A43.45,43.45,0,0,1,23.7,91c-4.51,2.08-8.55,8.88-8.58,8.93l-.42,1,0,.08-.42,1.06c-.08.18-.15.36-.22.54-.18.46-.36.91-.53,1.37-3,15.37-1.3,35.62,10.78,61.59,1.47,4.31,2.9,8.17,4,11.34q1.23,3.5,2.11,6.86c5.57,20.93,2,37.34,2,37.34a8.12,8.12,0,0,0-2.81-1.37,6.37,6.37,0,0,0-1.27-.19,6.63,6.63,0,0,0-4,1.11h0a5.53,5.53,0,0,0-.31.92A.83.83,0,0,0,23.92,221.77Z"/><path class="cls-10" d="M39.25,98.13h0a7.6,7.6,0,0,0,7.29.83,3.22,3.22,0,0,0,.16-.5c-.3.1-.61.18-.91.25a6.19,6.19,0,0,1-5.72-1.25,4.09,4.09,0,0,1-.74-.93,3.93,3.93,0,0,1-.83.85,6.21,6.21,0,0,1-5.82.67c-.29-.1-.59-.22-.88-.35a4.36,4.36,0,0,0,.11.52A7.6,7.6,0,0,0,39.25,98.13Z"/><path class="cls-11" d="M64.07,46.05a20.68,20.68,0,0,1,4.79,2.74,37.75,37.75,0,0,0-5.1-17,.54.54,0,0,0-1,.13c-1.47,5-6.46,11.8-6.46,11.8l.18.35A36.36,36.36,0,0,1,64.07,46.05Z"/><path class="cls-12" d="M62.79,31.91a.54.54,0,0,1,1-.13,37.75,37.75,0,0,1,5.1,17c.32.24.62.49.91.75A57.68,57.68,0,0,0,69,40.82a45.44,45.44,0,0,0-2.65-9.42A35.4,35.4,0,0,0,64.19,27c-.2-.35-.41-.69-.63-1s-.44-.68-.67-1l-.34-.48c-.08.28-.15.57-.23.86s-.24.89-.37,1.33-.25.89-.38,1.33l-.39,1.32c-.13.45-.27.88-.4,1.32L60.37,32,60,33.3q-.86,2.63-1.74,5.23c-.3.87-.6,1.73-.91,2.6s-.62,1.73-1,2.58C56.33,43.71,61.32,36.91,62.79,31.91Z"/><path class="cls-13" d="M58.21,38.53Q59.1,35.92,60,33.3L60.37,32l.41-1.32c.13-.44.27-.87.4-1.32L61.57,28c.13-.44.26-.88.38-1.33s.25-.89.37-1.33.15-.58.23-.86l.34.48c.23.33.46.67.67,1s.43.68.63,1a35.4,35.4,0,0,1,2.15,4.37A45.44,45.44,0,0,1,69,40.82a57.68,57.68,0,0,1,.78,8.72q.62.55,1.17,1.14a47.58,47.58,0,0,0-.21-10.12,41.32,41.32,0,0,0-1-5q-.32-1.23-.72-2.46c-.27-.81-.56-1.62-.88-2.41A34.81,34.81,0,0,0,65.87,26c-.45-.73-.92-1.46-1.43-2.16-.26-.35-.52-.69-.8-1l-.21-.25-.21-.25L63,22.11l-.22-.24-1.23-1.35-.35,1.77-.27,1.33c-.1.45-.19.89-.29,1.34s-.2.88-.31,1.33L60,27.62l-.63,2.67L58.75,33q-.64,2.68-1.25,5.37c-.4,1.79-.78,3.58-1.17,5.38.35-.85.66-1.71,1-2.58S57.91,39.4,58.21,38.53Z"/><ellipse class="cls-14" cx="55.97" cy="71.65" rx="6.39" ry="8.01"/><path class="cls-15" d="M57.21,68.26a2.42,2.42,0,0,0-4,.61,4.63,4.63,0,0,0,.47,5.3,2.42,2.42,0,0,0,4-.62A4.61,4.61,0,0,0,57.21,68.26Zm.37,4.62a1.74,1.74,0,0,1-2.88.44,3.32,3.32,0,0,1-.33-3.81,1.74,1.74,0,0,1,2.88-.44A3.32,3.32,0,0,1,57.58,72.88Z"/><path class="cls-15" d="M57.25,69.07a1.74,1.74,0,0,0-2.88.44,3.32,3.32,0,0,0,.33,3.81,1.74,1.74,0,0,0,2.88-.44A3.32,3.32,0,0,0,57.25,69.07Zm.07,3.12a.79.79,0,0,1-1.32.2,1.53,1.53,0,0,1-.15-1.74.79.79,0,0,1,1.32-.2A1.5,1.5,0,0,1,57.32,72.19Z"/><path class="cls-15" d="M55.85,70.65A1.53,1.53,0,0,0,56,72.39a.79.79,0,0,0,1.32-.2,1.5,1.5,0,0,0-.15-1.74A.79.79,0,0,0,55.85,70.65Z"/><circle class="cls-16" cx="54.44" cy="69.18" r="0.84"/><path class="cls-11" d="M22.51,29.87a.54.54,0,0,0-1-.22,37.68,37.68,0,0,0-6.8,16.41,20.26,20.26,0,0,1,5-2.25,37.37,37.37,0,0,1,7.72-1.22c.08-.11.15-.22.21-.32S23.47,35,22.51,29.87Z"/><path class="cls-12" d="M26.4,36.92q-.63-2.69-1.2-5.38l-.29-1.34-.27-1.35c-.09-.46-.19-.91-.27-1.36l-.26-1.35-.24-1.36c-.08-.46-.16-.91-.23-1.37-.05-.29-.09-.59-.14-.88l-.39.45c-.27.3-.52.61-.77.93s-.49.64-.73,1A35.22,35.22,0,0,0,19,29a45,45,0,0,0-3.58,9.1,56.55,56.55,0,0,0-1.66,8.6c.31-.23.64-.45,1-.65a37.68,37.68,0,0,1,6.8-16.41.54.54,0,0,1,1,.22c1,5.13,5.23,12.4,5.23,12.4-.25-.89-.48-1.78-.7-2.67S26.61,37.81,26.4,36.92Z"/><path class="cls-13" d="M15.45,38.11A45,45,0,0,1,19,29a35.22,35.22,0,0,1,2.58-4.13c.24-.33.48-.65.73-1s.5-.63.77-.93l.39-.45c.05.29.09.59.14.88.07.46.15.91.23,1.37l.24,1.36.26,1.35c.08.45.18.9.27,1.36l.27,1.35.29,1.34q.57,2.7,1.2,5.38c.21.89.42,1.79.64,2.68s.45,1.78.7,2.67q-.28-2.75-.61-5.48t-.7-5.46l-.37-2.72-.36-2.72-.18-1.36c-.05-.45-.11-.91-.16-1.36s-.11-.9-.16-1.36-.09-.9-.14-1.35l-.16-1.8-1.36,1.22-.25.22-.24.22-.24.23-.23.23c-.31.3-.61.62-.9.94-.58.64-1.12,1.32-1.64,2a33.65,33.65,0,0,0-2.74,4.37c-.41.75-.78,1.53-1.13,2.31s-.67,1.57-1,2.37a43,43,0,0,0-1.47,4.9,47.55,47.55,0,0,0-1.23,10,16.26,16.26,0,0,1,1.28-1A56.55,56.55,0,0,1,15.45,38.11Z"/><path class="cls-7" d="M13.93,73.52c-.43-.78-.91-1.54-1.42-2.28-.15-.22,3.53.65,5.23,1.39l.14.07h0c-4.59-7.06-3.62-14.26,4.31-16,13.39-2.88,13.61,17.19,13.61,18.64a93.71,93.71,0,0,1-1.26,10.49l-.13.2,0,.07.44-.1a16.69,16.69,0,0,1,2.59,0,7.29,7.29,0,0,1,0-1.4c.07-1.12.14-2.24.2-3.37.12-2.25.21-4.51.17-6.77a38.2,38.2,0,0,0-2.2-13.2c-.2-.51-.41-1-.64-1.5a9.68,9.68,0,0,1,2.32,1.88,29.7,29.7,0,0,0-.15-9.73,15.42,15.42,0,0,1,2.65,2.44,54.86,54.86,0,0,1,2-6.35v.15a57,57,0,0,1,1.29,6.37A14.9,14.9,0,0,1,46,52.37,29.46,29.46,0,0,0,44.84,62a10.12,10.12,0,0,1,2.5-1.64c-.28.47-.54,1-.79,1.43A38.31,38.31,0,0,0,43,74.73c-.27,2.24-.41,4.5-.52,6.76,0,1.12-.1,2.24-.14,3.37a7.45,7.45,0,0,1-.14,1.39,17.22,17.22,0,0,1,2.56.29l.44.15a.43.43,0,0,1,0-.07l-.11-.21A92,92,0,0,1,45,75.85c.15-1.44,2.39-21.39,15.42-17.18,7.71,2.5,8,9.75,2.68,16.31h0a.5.5,0,0,0,.15,0c1.76-.57,5.51-1.05,5.33-.85-.58.68-1.13,1.39-1.64,2.12,1.08-.32,2.18-.6,3.25-1l.29-.1c2.22-3.59,4.55-8.38,4.78-13A15.45,15.45,0,0,0,73,53.33C74.93,29.9,62.89,17.94,60.48,18c-.29,0-.38.19-.42.54-.9,7.68-5.71,22.7-6.49,25.1A199.7,199.7,0,0,0,30.5,42.46C30,40,26.7,24.57,26.58,16.83c0-.35-.08-.53-.36-.57-2.4-.29-15.59,10.39-16,33.9a15.3,15.3,0,0,0-3.14,8.56c-.24,4.57,1.59,9.57,3.44,13.37l.27.13C11.82,72.7,12.89,73.09,13.93,73.52ZM57.5,38.33q.6-2.69,1.25-5.37l.64-2.67L60,27.62l.31-1.33c.11-.45.21-.89.31-1.33s.19-.89.29-1.34l.27-1.33.35-1.77,1.23,1.35.22.24.22.24.21.25.21.25c.28.34.54.68.8,1,.51.7,1,1.43,1.43,2.16a34.81,34.81,0,0,1,2.29,4.62c.32.79.61,1.6.88,2.41s.51,1.64.72,2.46a41.32,41.32,0,0,1,1,5,47.58,47.58,0,0,1,.21,10.12q-.56-.59-1.17-1.14c-.29-.26-.59-.51-.91-.75a20.68,20.68,0,0,0-4.79-2.74,36.36,36.36,0,0,0-7.56-2l-.18-.35C56.72,41.91,57.1,40.12,57.5,38.33Zm-43.76-.66a43,43,0,0,1,1.47-4.9c.29-.8.62-1.59,1-2.37s.72-1.56,1.13-2.31A33.65,33.65,0,0,1,20,23.72c.52-.68,1.06-1.36,1.64-2,.29-.32.59-.64.9-.94l.23-.23.24-.23.24-.22.25-.22,1.36-1.22.16,1.8c.05.45.09.9.14,1.35s.1.91.16,1.36.11.91.16,1.36l.18,1.36.36,2.72.37,2.72q.38,2.73.7,5.46t.61,5.48c-.06.1-.13.21-.21.32a37.37,37.37,0,0,0-7.72,1.22,20.26,20.26,0,0,0-5,2.25c-.33.2-.66.42-1,.65a16.26,16.26,0,0,0-1.28,1A47.55,47.55,0,0,1,13.74,37.67Z"/><path class="cls-13" d="M42.37,84.86c0-1.13.09-2.25.14-3.37.11-2.26.25-4.52.52-6.76a38.31,38.31,0,0,1,3.52-12.91c.25-.48.51-1,.79-1.43A10.12,10.12,0,0,0,44.84,62,29.46,29.46,0,0,1,46,52.37a14.9,14.9,0,0,0-2.89,2.16,57,57,0,0,0-1.29-6.37V48a54.86,54.86,0,0,0-2,6.35,15.42,15.42,0,0,0-2.65-2.44,29.7,29.7,0,0,1,.15,9.73A9.68,9.68,0,0,0,35,59.77c.23.49.44,1,.64,1.5a38.2,38.2,0,0,1,2.2,13.2c0,2.26-.05,4.52-.17,6.77-.06,1.13-.13,2.25-.2,3.37a7.29,7.29,0,0,0,0,1.4c1.46,0,3.28.13,4.74.24A7.45,7.45,0,0,0,42.37,84.86Z"/><ellipse class="cls-14" cx="25.73" cy="70.13" rx="6.39" ry="8.01"/><path class="cls-15" d="M27,66.73a2.42,2.42,0,0,0-4,.62,4.63,4.63,0,0,0,.46,5.29,2.43,2.43,0,0,0,4-.61A4.65,4.65,0,0,0,27,66.73Zm.37,4.62a1.74,1.74,0,0,1-2.88.44,3.32,3.32,0,0,1-.34-3.8A1.74,1.74,0,0,1,27,67.55,3.34,3.34,0,0,1,27.34,71.35Z"/><path class="cls-15" d="M27,67.55a1.74,1.74,0,0,0-2.89.44,3.32,3.32,0,0,0,.34,3.8,1.74,1.74,0,0,0,2.88-.44A3.34,3.34,0,0,0,27,67.55Zm.07,3.12a.8.8,0,0,1-1.32.2,1.54,1.54,0,0,1-.15-1.74.8.8,0,0,1,1.32-.21A1.53,1.53,0,0,1,27.08,70.67Z"/><path class="cls-15" d="M25.61,69.13a1.54,1.54,0,0,0,.15,1.74.8.8,0,0,0,1.32-.2,1.53,1.53,0,0,0-.15-1.75A.8.8,0,0,0,25.61,69.13Z"/><circle class="cls-16" cx="24.19" cy="67.65" r="0.84"/><path class="cls-13" d="M29.67,54.2a7.48,7.48,0,0,0-3.77-4.12C14.88,45.47,9.8,56,11.53,61.55,12.31,53.55,20.4,48.72,29.67,54.2Z"/><path class="cls-15" d="M26.29,61a7.34,7.34,0,0,1,1.24,0,12.25,12.25,0,0,1,1.35.22.69.69,0,0,0,.28-1.35,7.42,7.42,0,0,0-3-.23,7.92,7.92,0,0,0-2.89.86,8.1,8.1,0,0,0-3.53,4,.2.2,0,0,0,.36.18,8,8,0,0,1,3.73-3.06A8.43,8.43,0,0,1,26.29,61Z"/><path class="cls-15" d="M62.05,66.67a7.51,7.51,0,0,0-5.89-5.52,7.27,7.27,0,0,0-3-.07.68.68,0,0,0,.14,1.36,12.59,12.59,0,0,1,1.37-.08,9.9,9.9,0,0,1,1.22.14,8.83,8.83,0,0,1,2.39.89,8,8,0,0,1,3.4,3.43A.2.2,0,0,0,62.05,66.67Z"/><path class="cls-17" d="M61.85,67a.23.23,0,0,1-.21-.14,7.9,7.9,0,0,0-3.39-3.41,8,8,0,0,0-2.37-.88,7.66,7.66,0,0,0-1.22-.15,7.78,7.78,0,0,0-1,0c-.13,0-.26,0-.4,0h0a.73.73,0,0,1-.73-.65.74.74,0,0,1,.63-.79,7.4,7.4,0,0,1,3,.08A8,8,0,0,1,59,62.27a8.08,8.08,0,0,1,3.12,4.39.23.23,0,0,1-.14.29Zm-7.34-4.64h.15a7.6,7.6,0,0,1,1.23.14,8.11,8.11,0,0,1,2.39.9A7.81,7.81,0,0,1,61.7,66.8a.16.16,0,0,0,.22.09.17.17,0,0,0,.1-.21h0a7.51,7.51,0,0,0-5.87-5.5,7.4,7.4,0,0,0-3-.07.65.65,0,0,0,.08,1.3h0l.39,0A7.55,7.55,0,0,1,54.51,62.33Z"/><path class="cls-9" d="M76.65,74.77a11.79,11.79,0,0,1-3,1.52,5.47,5.47,0,0,0,.32-.85c.19-.68-.17-2.5-.31-2.34a7.91,7.91,0,0,1-3.17,2l-.29.1c-1.07.38-2.17.66-3.25,1,.51-.73,1.06-1.44,1.64-2.12.18-.2-3.57.28-5.33.85a.5.5,0,0,1-.15,0h0a12.82,12.82,0,0,0-3.78,1.91c.11-1.27,1.58-1.3,1.29-1.28a24.19,24.19,0,0,0-8.74,2.32A11.94,11.94,0,0,0,48.54,81a20.18,20.18,0,0,0-2.41,4.08,10.8,10.8,0,0,1-.86,1.52.43.43,0,0,0,0,.07c.54.19-11.33-.41-10.77-.55l0-.07a9.94,9.94,0,0,1-.7-1.6,20,20,0,0,0-2-4.3,11.31,11.31,0,0,0-3-3.4,24.26,24.26,0,0,0-8.21-3.46c-.29,0,.92.4.91,1.68a12.93,12.93,0,0,0-3.58-2.29h0l-.14-.07c-1.7-.74-5.38-1.61-5.23-1.39.51.74,1,1.5,1.42,2.28-1-.43-2.11-.82-3.14-1.3l-.27-.13a7.93,7.93,0,0,1-2.95-2.33c-.12-.18-.67,1.6-.55,2.29a6.7,6.7,0,0,0,.23.88A11.66,11.66,0,0,1,4.4,71.12a8.69,8.69,0,0,0-.08,2.68c.39,2.9.92,6.86,4.31,6.64a9.49,9.49,0,0,1-2.31-.91c-.16-.07.9,4.63,6.8,6.13A12.52,12.52,0,0,1,10.4,86a8.64,8.64,0,0,0,4.69,1.74,21.58,21.58,0,0,0,3.41,0c2.58-.16,5.19-.41,7.45.8a4.25,4.25,0,0,0-3.29.26,6.52,6.52,0,0,1,4,1.91l0,.06,0,0,1.22,1.87a1.55,1.55,0,0,1,0-.21c.11.18.21.37.31.55l-.08.07,2.61,4a5.7,5.7,0,0,0,1.1.63c.29.13.59.25.88.35a6.21,6.21,0,0,0,5.82-.67,3.93,3.93,0,0,0,.83-.85,4.09,4.09,0,0,0,.74.93,6.19,6.19,0,0,0,5.72,1.25c.3-.07.61-.15.91-.25a5.49,5.49,0,0,0,1.84-1,6.73,6.73,0,0,0,1.56-2.2,16.08,16.08,0,0,1,2.33-3.14,6.46,6.46,0,0,1,4.26-1.59,4.23,4.23,0,0,0-3.24-.59,9.2,9.2,0,0,1,4.48-.49c2.14.21,4.32.8,6.41.8a11.19,11.19,0,0,0,1.72-.14A7.56,7.56,0,0,0,69.18,89a12.65,12.65,0,0,1-2.67-.63c6-.9,7.54-5.47,7.38-5.41a9.68,9.68,0,0,1-2.39.67,9.75,9.75,0,0,0,5-6.17A8.88,8.88,0,0,0,76.65,74.77Z"/><path class="cls-4" d="M46,88.94A21,21,0,0,1,42.32,92c-.45.24-.91.47-1.38.68l-.72.31a1.14,1.14,0,0,1-1.42-.08l-.69-.38c-.44-.25-.87-.52-1.3-.81a21.21,21.21,0,0,1-3.38-3.41,1.48,1.48,0,0,1-.2-.44,2,2,0,0,1,0-.61c-.42-.63-.79-1.29-1.15-1.93a19.35,19.35,0,0,0-3.22-4.19,13.43,13.43,0,0,0-2.08-1.61,3.35,3.35,0,0,1,.51,2.14c-1.06-1.62-4.82-3.47-4.69-3.26a4.67,4.67,0,0,1,.62,2,13,13,0,0,0-2.81-2.15,15.85,15.85,0,0,0-1.92-.89,22.57,22.57,0,0,0-3.09-.92c.9.61.93,1.5,1.26,2.05a27.62,27.62,0,0,1-3.2-.89c-.68-.24-1.34-.5-2-.79a22.1,22.1,0,0,1-2-1c-.25-.15,2.23,4.35,4.41,5.21a16.58,16.58,0,0,1-3.27.34,12.54,12.54,0,0,0,5.52,2.32,19.58,19.58,0,0,0,2.65.21c.38,0,.76,0,1.13,0-.83.22-2.39,1.66-2.14,1.64,3.93-.29,8.48-.44,11.56,2.46a6.64,6.64,0,0,1,1.26,1.59A6.46,6.46,0,0,0,27,89.24c-.26,0,1.12,1.22,3.71,6.21.69,1.34,3.3,1.86,4.8,1.71a4.6,4.6,0,0,0,3.55-2.28,4.29,4.29,0,0,0,.33-.72l0,0,0,0A4.55,4.55,0,0,0,43,97.54c1.47.3,4.12,0,5-1.22,3.08-4.7,4.57-5.74,4.31-5.81a6.5,6.5,0,0,0-3.5.08,7,7,0,0,1,1.41-1.46c3.36-2.58,7.87-2,11.75-1.28.25,0-1.16-1.54-2-1.85.37,0,.75,0,1.13.08a21.39,21.39,0,0,0,2.66.06,12.53,12.53,0,0,0,5.72-1.76,15.77,15.77,0,0,1-3.22-.67c2.26-.63,5.17-4.86,4.91-4.74a19.76,19.76,0,0,1-2.11.78c-.68.22-1.37.41-2.06.58a24.43,24.43,0,0,1-3.28.56c.39-.51.51-1.39,1.47-1.9a20.46,20.46,0,0,0-3.17.6,15.75,15.75,0,0,0-2,.69,12.29,12.29,0,0,0-3,1.86,4.39,4.39,0,0,1,.82-1.94c.14-.2-3.79,1.26-5,2.76a3.33,3.33,0,0,1,.73-2.07,12,12,0,0,0-2.24,1.39,19.32,19.32,0,0,0-3.62,3.85c-.43.59-.87,1.21-1.35,1.8a2.08,2.08,0,0,1-.1.6A1.79,1.79,0,0,1,46,88.94Z"/><path class="cls-15" d="M38.11,92.53l.69.38a1.14,1.14,0,0,0,1.42.08l.72-.31c.47-.21.93-.44,1.38-.68A21,21,0,0,0,46,88.94v0c.53-.57.06-1.53-1.59-1a5.2,5.2,0,0,0-2.53,1.67,9.34,9.34,0,0,0-.83,1.25,2,2,0,0,1-1,1,1.16,1.16,0,0,1-.52.08,1.29,1.29,0,0,1-.52-.13,2,2,0,0,1-.9-1.07,8.84,8.84,0,0,0-.69-1.33,5.22,5.22,0,0,0-2.35-1.91c-1.59-.68-2.16.23-1.68.86v0a21.21,21.21,0,0,0,3.38,3.41C37.24,92,37.67,92.28,38.11,92.53Z"/><path class="cls-18" d="M42.23,86.25c-1.46-.11-3.28-.2-4.74-.24a16.69,16.69,0,0,0-2.59,0l-.44.1c-.56.14-1.2.38-1.28,1.12a2,2,0,0,0,0,.61,1.48,1.48,0,0,0,.2.44v0c-.48-.63.09-1.54,1.68-.86a5.22,5.22,0,0,1,2.35,1.91,8.84,8.84,0,0,1,.69,1.33,2,2,0,0,0,.9,1.07,1.29,1.29,0,0,0,.52.13,1.16,1.16,0,0,0,.52-.08,2,2,0,0,0,1-1,9.34,9.34,0,0,1,.83-1.25,5.2,5.2,0,0,1,2.53-1.67c1.65-.51,2.12.45,1.59,1v0a1.79,1.79,0,0,0,.25-.41,2.08,2.08,0,0,0,.1-.6c0-.75-.61-1.05-1.15-1.24l-.44-.15A17.22,17.22,0,0,0,42.23,86.25Zm-2.45,1.44c-1.91-.1-3.43-.44-3.42-.75s1.57-.5,3.48-.41,3.43.43,3.41.75S41.68,87.78,39.78,87.69Z"/><path class="cls-19" d="M39.84,86.53c-1.91-.09-3.46.09-3.48.41s1.51.65,3.42.75,3.46-.09,3.47-.41S41.74,86.63,39.84,86.53Z"/><path class="cls-7" d="M172.34,224.8a.35.35,0,0,0-.05.08,6.69,6.69,0,0,0-1.12,3,4.32,4.32,0,0,0,.91,2.9,2.76,2.76,0,0,0,.29.3,4.23,4.23,0,0,1-.33-1.39,5.77,5.77,0,0,1,.78-3.43,5,5,0,0,1,4.2-2.13,3.45,3.45,0,0,0-2.78,2.38,3.69,3.69,0,0,0,2.61,4.16c2.06.58,4.17-.67,5.36-2.29,1.47-2,1.72-4.65,2-7l.12-1v0c0-.32.07-.64.1-1v0c.06-.65.12-1.3.17-2h0a5.07,5.07,0,0,0-5.78,1.87A10.45,10.45,0,0,1,177.5,222l-1.17.33a9.24,9.24,0,0,0-1.15.41h0l-.13.06a9.49,9.49,0,0,0-1.61.91A4,4,0,0,0,172.34,224.8Z"/><path class="cls-13" d="M70.52,64.53c2.28-5.34-1.71-16.33-13.14-12.86a7.53,7.53,0,0,0-4.17,3.72C63,50.88,70.55,56.49,70.52,64.53Z"/></svg>