<svg id="Layer_1" data-name="Layer 1" xmlns="http://www.w3.org/2000/svg" viewBox="0 0 256 295"><defs><style>.cls-1{opacity:0.3;}.cls-2{fill:#8c8e91;}.cls-3{fill:#a0a2a5;}.cls-4{fill:#cbcfd1;}.cls-5{fill:#dfe0e1;}.cls-6{fill:#232323;}.cls-7{fill:#e5e5e5;}.cls-8{fill:#b5b7b9;}.cls-15,.cls-9{fill:none;stroke:gray;stroke-miterlimit:10;}.cls-10{fill:#231f20;}.cls-11{fill:#cacccd;}.cls-12{fill:#414042;}.cls-13{fill:#fff;}.cls-14{fill:#eaebeb;}.cls-15{stroke-width:0.75px;}.cls-16{fill:gray;}</style></defs><ellipse class="cls-1" cx="122.98" cy="273.22" rx="95.25" ry="16.93"/><path class="cls-2" d="M143.33,201.17a27.49,27.49,0,0,1-.84,4.3c-1.45,5.18-6.69,20.82-3.9,27.83s3.67,8.84,11.36,15.85S166.1,261,166.32,263.06s-10.91,1.62-12.69,1.73-6.91-.11-8.14.32-8.46,5.7-8.13,7.87,3.79.55,3.79.55-.67,2.37.67,2.58,3.79-1,3.79-1a2.08,2.08,0,0,0,2.78,1.73c2.45-.65,8.58-3.56,11.47-4.1s10.59-2,13.15-1.83,8.8-1.73,8.91-4.86a17.86,17.86,0,0,0-3.34-10.35c-2.23-3-6.35-10-6.35-16.29,0,0,4.77-39.82-3.58-40.13C159.59,199,151.76,199.28,143.33,201.17Z"/><path class="cls-3" d="M75.14,191.18c-.36,4.07,3.37,9.95,4.63,13.91,2.76,8.64,4.53,15,3.81,20.52s-4.41,25.27-5.71,31.72-3.47,6.18-5.08,6.53c-4.45.94-8.5.29-12.22,1.79-5.32,2.13-9.79,4.2-8.94,5.3.35.47,3.68.28,5.44-.49a12.19,12.19,0,0,1,3.1-.93s-3.06,1.53-2.77,2.79,2.3.48,4.38-.16c3.88-1.21,6.86-.82,10-1.15s8,.48,11.1-.67,2.49-5.91,6.11-12.47,12-24.05,12.73-27.33l1.86,1.09s1.77-6.45,2-8.31a48,48,0,0,0,.22-5.14l1.74,1.14s.52-5.68.4-8.31c0-.61-.1-1.49-.2-2.51-9.37-7.34-16.63-18.13-27.53-23.13C79.35,187.73,75.93,189.11,75.14,191.18Z"/><path class="cls-4" d="M107.27,204c2.52,2,11.8,8.55,26.91,8.55s30.13-4.81,30.13-4.81l4.92-12.6s-1.26-6-30.35-5.27-29.2.57-31,4.47S107.27,204,107.27,204Z"/><path class="cls-5" d="M70.14,178.29A45.7,45.7,0,0,0,73.44,192c3,7.44,8.82,14.35,13.36,18.91s6.73-7.23,7.13-11.58-7.41-23.64-10.83-25.2S70.14,178.29,70.14,178.29Z"/><path class="cls-6" d="M209.83,179c1.61-.81,5.31-4.63,7.27-12.48a51.54,51.54,0,0,1-21.78-8.4C195.83,165.71,209.83,179,209.83,179Z"/><path class="cls-7" d="M195.73,142.75a39,39,0,0,1,.59,5.76c7.15,2.45,14.61,1.2,21.43-1.94-.15-1.12-.32-2.27-.53-3.46q-.63-3.51-1.44-6.78A29.62,29.62,0,0,1,195.73,142.75Z"/><path class="cls-6" d="M213.05,127.27a31.47,31.47,0,0,1-19.76,6.65,48.63,48.63,0,0,1,2.44,8.83,29.62,29.62,0,0,0,20.05-6.42C215,133.15,214.06,130.13,213.05,127.27Z"/><path class="cls-6" d="M201.82,104.26c-.14.17-.26.34-.41.5-4.84,4.31-11.37,10.73-18.27,11.65a95.32,95.32,0,0,1,6.74,10.18,33.28,33.28,0,0,0,17.8-11.88C205.78,110.92,203.78,107.46,201.82,104.26Z"/><path class="cls-7" d="M194.31,92.59a20.32,20.32,0,0,1-3.2,6c-3.55,4.56-9.72,8.37-15.75,7.85,3.09,3.82,5.64,7.09,7.78,10,6.9-.92,13.43-7.34,18.27-11.65.15-.16.27-.33.41-.5C199.14,99.9,196.53,96,194.31,92.59Z"/><path class="cls-6" d="M193.85,91.88c-1.78-2.8-3.94-5.8-6.18-8.94a27,27,0,0,1-5.5,9.46c-3.44,3.44-7.95,6.17-13,6.43q3.42,4.14,6.2,7.6c6,.52,12.2-3.29,15.75-7.85a20.32,20.32,0,0,0,3.2-6Z"/><path class="cls-7" d="M180.56,72.47c-3.76,7.69-11.41,15.46-20.16,15.82l.13.15c3.19,3.83,6,7.26,8.63,10.39,5.06-.26,9.57-3,13-6.43a27,27,0,0,0,5.5-9.46C185.28,79.59,182.79,76.07,180.56,72.47Z"/><path class="cls-6" d="M173.93,62.16c-4.74,6.51-13.54,15-22,13.79a79.5,79.5,0,0,0,8.51,12.34c8.75-.36,16.4-8.13,20.16-15.82a57.93,57.93,0,0,1-5.83-11.94A11.75,11.75,0,0,1,173.93,62.16Z"/><path class="cls-7" d="M147.9,67.21a61.37,61.37,0,0,0,4,8.74c8.5,1.25,17.3-7.28,22-13.79a11.75,11.75,0,0,0,.8-1.63,28.93,28.93,0,0,1-1.43-7C163.65,53.38,154,59.15,147.9,67.21Z"/><path class="cls-6" d="M144.94,53.94a50.81,50.81,0,0,0,3,13.27c6.06-8.06,15.75-13.83,25.4-13.64,0-.52-.06-1-.06-1.55,0-.72,0-1.43.1-2.12l-.1-.11.1.11c0-.06,0-.11,0-.17A31.82,31.82,0,0,0,144.94,53.94Z"/><path class="cls-6" d="M152.68,22.66A57.59,57.59,0,0,0,145.82,40a30.25,30.25,0,0,1,29.7,2.16,18.69,18.69,0,0,1,1.09-1.8A41.65,41.65,0,0,0,152.68,22.66Z"/><path class="cls-7" d="M159.3,14.41a29,29,0,0,0-5.47,6.35c-.4.63-.78,1.26-1.15,1.9a41.65,41.65,0,0,1,23.93,17.69A16,16,0,0,1,182.79,35C178,25.65,168.87,18.21,159.3,14.41Z"/><path class="cls-6" d="M159.3,14.41C168.87,18.21,178,25.65,182.79,35l.66-.28a49.28,49.28,0,0,0-11.54-27.3A37.12,37.12,0,0,0,159.3,14.41Z"/><path class="cls-7" d="M171.91,7.38a49.28,49.28,0,0,1,11.54,27.3,14.29,14.29,0,0,1,6.41-1.16,78.9,78.9,0,0,0-8.35-28.28A48.23,48.23,0,0,0,171.91,7.38Z"/><path class="cls-6" d="M197.55,5.72a53.77,53.77,0,0,0-16-.48,78.9,78.9,0,0,1,8.35,28.28,13.57,13.57,0,0,1,3.53.66C193.16,24.18,192.34,14.12,197.55,5.72Z"/><path class="cls-7" d="M197.55,5.72c-5.21,8.4-4.39,18.46-4.16,28.46.16,0,.31.09.46.15a18.55,18.55,0,0,1,2.82,1.29c1.27-9.94,4.39-20,11.32-26.67A45.07,45.07,0,0,0,197.55,5.72Z"/><path class="cls-6" d="M218.23,16.34c-.17-.19-.32-.38-.5-.56A30,30,0,0,0,208,9c-6.93,6.64-10.05,16.73-11.32,26.67a18.45,18.45,0,0,1,1.8,1.16C201.42,27.44,209.11,19.13,218.23,16.34Z"/><path class="cls-7" d="M203.18,41.84c4.37-8.71,10.16-16.84,19.31-19.78a41.52,41.52,0,0,0-4.26-5.72c-9.12,2.79-16.81,11.1-19.76,20.44A18,18,0,0,1,203.18,41.84Z"/><path class="cls-6" d="M226.3,30.39a37.17,37.17,0,0,0-3.81-8.33c-9.15,2.94-14.94,11.07-19.31,19.78a19.79,19.79,0,0,1,1.12,2.09C209.82,37.4,218.06,32.76,226.3,30.39Z"/><path class="cls-7" d="M227.88,38.8a37.46,37.46,0,0,0-1.58-8.41c-8.24,2.37-16.48,7-22,13.54a20.75,20.75,0,0,1,.78,2A31.55,31.55,0,0,1,227.88,38.8Z"/><path class="cls-6" d="M227.77,46.34a42.94,42.94,0,0,0,.11-7.54,31.55,31.55,0,0,0-22.8,7.13c.2.61.37,1.25.52,1.89C211.67,44.32,220.39,44.74,227.77,46.34Z"/><path class="cls-7" d="M226.49,53.69a53.32,53.32,0,0,0,1.28-7.35c-7.38-1.6-16.1-2-22.17,1.48a23,23,0,0,1,.46,2.8C213.37,48.88,221.09,49.35,226.49,53.69Z"/><path class="cls-6" d="M205.81,57.52c-.12.73-.26,1.48-.45,2.23-.08.35-.15.67-.22,1,6.07-2,12.55-.58,18.1,2.68.23-.49.46-1,.66-1.47A24.63,24.63,0,0,0,205.81,57.52Z"/><path class="cls-7" d="M205.14,60.75c-.37,1.57-.66,3-.91,4.4a5.23,5.23,0,0,0,2,4.12c.7-1.71,1.82-3.17,2.7-4.88.22,1.26-.07,2.51.36,3.77,1.34-1.13,2.85-2.09,4.24-3.17-.09.86-.1,1.72-.25,2.58A16.11,16.11,0,0,0,217,65.9c-.26,1-.65,1.93-.89,2.9a18.9,18.9,0,0,1,5-1.59,32.55,32.55,0,0,0,2.14-3.78C217.69,60.17,211.21,58.79,205.14,60.75Z"/><path class="cls-6" d="M216.08,68.8c.24-1,.63-1.94.89-2.9a16.11,16.11,0,0,1-3.74,1.67c.15-.86.16-1.72.25-2.58-1.39,1.08-2.9,2-4.24,3.17-.43-1.26-.14-2.51-.36-3.77-.88,1.71-2,3.17-2.7,4.88a5.23,5.23,0,0,1-2-4.12c-1.59,8.66-1.08,13.34-.07,15.22S215,76.54,221.1,67.21A18.9,18.9,0,0,0,216.08,68.8Z"/><path class="cls-7" d="M223.9,62c.19-.45.36-.91.53-1.37.4-1.14.8-2.37,1.18-3.65-5.82-3.16-12.84-5.54-19.48-5.43a27,27,0,0,1-.32,6A24.63,24.63,0,0,1,223.9,62Z"/><path class="cls-6" d="M225.61,56.94c.31-1,.61-2.13.88-3.25-5.4-4.34-13.12-4.81-20.43-3.07,0,.3.05.59.07.89C212.77,51.4,219.79,53.78,225.61,56.94Z"/><path class="cls-7" d="M145.82,40a48.21,48.21,0,0,0-.88,13.95,31.82,31.82,0,0,1,28.41-4.21,20.48,20.48,0,0,1,2.17-7.58A30.25,30.25,0,0,0,145.82,40Z"/><path class="cls-7" d="M207.68,114.71a33.28,33.28,0,0,1-17.8,11.88c.79,1.41,1.47,2.76,2.08,4.12.49,1.06.93,2.14,1.33,3.21a31.47,31.47,0,0,0,19.76-6.65A106.79,106.79,0,0,0,207.68,114.71Z"/><path class="cls-6" d="M196.32,148.51a29.07,29.07,0,0,1-.34,5.43,37.12,37.12,0,0,0,22.35,3.28,63.51,63.51,0,0,0-.58-10.65C210.93,149.71,203.47,151,196.32,148.51Z"/><path class="cls-7" d="M196,153.94c-.14.84-.31,1.67-.52,2.46a5,5,0,0,0-.14,1.7,51.54,51.54,0,0,0,21.78,8.4,44.92,44.92,0,0,0,1.23-9.28A37.12,37.12,0,0,1,196,153.94Z"/><path class="cls-8" d="M215.17,202.78c-.45,9.51-6.07,19.24-6.07,19.24l-.91-3.66c-.92,5.95-8.13,16.72-8.13,16.72l-1.38-3.1c-1.14,2.29-3.55,15.24-3.55,15.24l-2.4-3.67c0,6.64,4.23,14.09,6.52,17.29a19.39,19.39,0,0,1,3.44,11c-.11,3.32-6.53,5.38-9.16,5.15S183,278.37,180,278.94s-9.27,3.66-11.79,4.35a2.16,2.16,0,0,1-2.87-1.83s-2.52,1.26-3.89,1-.69-2.75-.69-2.75-3.55,1.72-3.89-.58,7.1-7.89,8.36-8.35,6.53-.23,8.36-.35,13.28.35,13.06-1.83-8.94-7.33-16.84-14.77S161,244.47,158.14,237s2.52-24.05,4-29.55a31.82,31.82,0,0,0,1-10.14c14.69,6,30.68,3.46,40.54-6.32a33.24,33.24,0,0,0,8.86-16.68c.51,1.41.89,2.73,1.22,3.94C215.4,184.22,215.63,193.27,215.17,202.78Z"/><path class="cls-9" d="M212.58,174.28c.51,1.42.89,2.74,1.22,3.95,1.6,6,1.83,15,1.37,24.5"/><path class="cls-8" d="M115.59,221.33s.46,3.44.46,5.39-.92,8.7-.92,8.7l-2-1.15c-.35,3.44-6.4,21.75-9.15,28.62s-1.49,11.86-4.47,13.06-7.86.36-11,.7-6.18-.06-9.9,1.2c-2,.68-3.9,1.49-4.35.17s2.24-2.82,2.39-2.91a10.7,10.7,0,0,0-3,1c-1.66.8-5,1-5.38.51-1-1.16,3.21-3.31,8.25-5.55,3.52-1.57,7.66-.89,12-1.88,1.57-.36,3.76-.07,4.22-6.83s1.55-27.48,1.55-33.21-3.84-12.71-7.73-21.76A37.45,37.45,0,0,1,84,194.22c.63-6.29,2.17-9.46,3.15-12.7l.15-.5a19.94,19.94,0,0,1,.72-2.1,47.12,47.12,0,0,0,5,5.49,49.52,49.52,0,0,0,19.78,11.27,22.73,22.73,0,0,0,.86,4.81c.74,2.52,2.74,10.59,3.2,13.34s.69,8.71.69,8.71Z"/><path class="cls-8" d="M212.58,174.33A33.24,33.24,0,0,1,203.72,191c-9.86,9.78-25.85,12.28-40.54,6.32v-.05c-2.52-3.09-12.26-1.83-23.94-.11s-26.51-1.49-26.51-1.49A49.52,49.52,0,0,1,93,184.41a47.12,47.12,0,0,1-5-5.49c2-4.79,5.56-8.72,6.26-15.54.32-3.1-.72-7.38-2.14-11.43,4,.44,8.17.67,12,.78,7.67.23,17.52-10,36.31-11.82s42,3.8,55.43,13.29C206.5,161.76,210.56,168.77,212.58,174.33Z"/><path class="cls-10" d="M92.13,152A64.68,64.68,0,0,1,81,149.88c-6.42-1.95-3.67,17.06.57,23.36,0,0,2.83,5.73,2.75,9.51-.11,4.61-.44,8.49-.32,11.48.51-2.17.91-4.79,1.52-7.26.55-2.22,1.32-4.32,1.78-5.94,1.63-5.83,6.18-9.85,7-17.64C94.59,160.29,93.55,156,92.13,152Z"/><path class="cls-11" d="M59.56,144.72s3.49-7.5,7.42-8.59c2.53-.7,5.35-.21,7.92,3.27A12.6,12.6,0,0,1,76.82,145Z"/><path class="cls-7" d="M78.45,174c3.87-1.93,6.37-6.24,7.52-11-3.33-4-9.08-7.49-11.64-9.08-3-1.89-6.93-6.35-9.5-8.64A13.45,13.45,0,0,0,61.18,143a14.09,14.09,0,0,0-5.06,2.12C53,147.24,51.48,150.59,49,154a8.13,8.13,0,0,1-2.22,2c-.62,1.91-1.23,4.49-.78,6.16.6,2.23,4.12,6.36,6.7,7.1s3.09,1.37,2.46,2.86c-.17.39.1,1.07.59,1.87C63.21,175.8,71.1,177.11,78.45,174Z"/><path class="cls-11" d="M87.56,165.34A14.52,14.52,0,0,0,86,163c-1.15,4.78-3.65,9.09-7.52,11-7.35,3.07-15.24,1.76-22.71,0a27.23,27.23,0,0,0,2.37,3.1l1.88.44c3.26.78,5.84,6,17.26,2.15a18.75,18.75,0,0,0,11.54-10.22A11.89,11.89,0,0,0,87.56,165.34Z"/><path class="cls-12" d="M55.15,172.15c.63-1.49.11-2.12-2.46-2.86s-6.1-4.87-6.7-7.1c-.45-1.67.16-4.25.78-6.16-3.09,2-7.59,3.06-9.46,4.53-2.4,1.89,3.95,9.19,3.95,9.19.17,2.83,2.15,3.86,5.16,4.55,2.52.58,8,1.94,11.69,2.82C56.56,175.33,54.78,173,55.15,172.15Z"/><path class="cls-12" d="M90.65,160c-.26-5.5-7-14.18-9.88-15.72a24,24,0,0,0-12.71-2.15,51.33,51.33,0,0,0-6.88.89,13.45,13.45,0,0,1,3.65,2.32c2.57,2.29,6.47,6.75,9.5,8.64s10.6,6.42,13.23,11.4a11.89,11.89,0,0,1,1.23,4.15A21.39,21.39,0,0,0,90.65,160Z"/><path class="cls-9" d="M70.82,181.22a25.14,25.14,0,0,0,6.43-1.38,18.78,18.78,0,0,0,11.54-10.22,21.43,21.43,0,0,0,1.86-9.54,10,10,0,0,0-.32-2"/><path class="cls-6" d="M41.26,169.75c6,1.34,12.21.24,18.3-.09C54.37,172,46.22,173.17,41.26,169.75Z"/><path class="cls-6" d="M39.63,160c1.76.57,3.18,2.32,2.92,5.41s-1.29,4.3-1.29,4.3a14.79,14.79,0,0,1-4.49-5.41C35.08,160.82,37.22,159.27,39.63,160Z"/><circle class="cls-10" cx="59.56" cy="157.38" r="7.42"/><circle class="cls-13" cx="60.11" cy="157.38" r="4.3" transform="translate(-13.47 5.83) rotate(-4.99)"/><path class="cls-6" d="M64.38,156.93a4.23,4.23,0,0,0-.4-1.42,3.63,3.63,0,1,0-3.69,6.16h.26A4.3,4.3,0,0,0,64.38,156.93Z"/><path class="cls-13" d="M62.3,157.63a1.07,1.07,0,1,1-1.18-.95A1.07,1.07,0,0,1,62.3,157.63Z"/><path class="cls-14" d="M70.81,153.08c.88-1.81,3-1.28,6.27-3.52s9.25-5.74,12.8-3.61c4,2.39,2.45,10.37-1.09,14.61-2.59,3.1-6.32,6.48-7.61,6.66s-6.16,1.54-8.82-3.83C71.13,160.91,69.17,156.44,70.81,153.08Z"/><path class="cls-15" d="M71.08,153c.88-1.81,3-1.29,6.27-3.52s9.25-5.75,12.8-3.61c3.95,2.38,2.45,10.37-1.09,14.61-2.59,3.1-6.31,6.48-7.61,6.65s-6.16,1.55-8.82-3.82C71.4,160.79,69.44,156.31,71.08,153Z"/><path class="cls-16" d="M74,160.39c.68,2.26,2.66,4.81,6,3.43a17.23,17.23,0,0,0,8.33-9.11c1-3.34,0-6.69-1.89-6.35s-7,3.44-8.5,3.95S72,153.76,74,160.39Z"/><path class="cls-9" d="M228.15,38.84a36.82,36.82,0,0,0-5.39-16.74,41.52,41.52,0,0,0-4.26-5.72c-.17-.19-.33-.38-.5-.56A30,30,0,0,0,208.26,9a45.07,45.07,0,0,0-10.44-3.23,53.79,53.79,0,0,0-16-.48,48.94,48.94,0,0,0-9.6,2.14,37.12,37.12,0,0,0-12.61,7,29.28,29.28,0,0,0-5.48,6.35c-.39.63-.77,1.26-1.14,1.9A57.69,57.69,0,0,0,146.09,40,48.21,48.21,0,0,0,145.21,54a51.19,51.19,0,0,0,2.95,13.27,62.07,62.07,0,0,0,4,8.74,79.5,79.5,0,0,0,8.51,12.34l.12.15c3.19,3.83,6.05,7.26,8.64,10.4,2.27,2.76,4.34,5.28,6.2,7.59,3.08,3.82,5.64,7.09,7.78,10a95.32,95.32,0,0,1,6.74,10.18c.78,1.41,1.47,2.76,2.08,4.12.49,1.06.93,2.14,1.33,3.21a49.45,49.45,0,0,1,2.44,8.83,39,39,0,0,1,.59,5.76,30,30,0,0,1-.34,5.43l-.06.34-.1-.08c-13.4-9.49-36.65-15.15-55.44-13.29S112,153,104.35,152.77c-3.8-.11-7.94-.34-11.92-.78.14-2.53-.53-4.78-2.33-5.87s-4.3-.7-6.72.25a11.16,11.16,0,0,0-2.38-2,18.54,18.54,0,0,0-4.39-1.57,10.16,10.16,0,0,0-1.48-3.27c-2.58-3.47-5.4-4-7.93-3.26-2.8.78-5.37,4.8-6.62,7.06a13.44,13.44,0,0,0-4.24,1.9c-3.09,2.15-4.63,5.5-7.13,8.94a8.1,8.1,0,0,1-2.22,2c-2.57,1.67-6.12,2.69-8.31,3.83-1.85,0-3.1,1.55-1.69,4.48a14.78,14.78,0,0,0,4.49,5.42c.18,2.83,2.15,3.86,5.16,4.55,2.52.57,11.7,2.81,11.7,2.81l1.87.45c2.49.59,4.59,3.78,10.52,3.54a48.67,48.67,0,0,0,3,10.81,45.08,45.08,0,0,0,4,7.53A59.79,59.79,0,0,1,80,205.13c2.76,8.64,4.53,15.06,3.81,20.52s-4.41,25.27-5.71,31.73-3.47,6.18-5.08,6.52c-4.45.94-8.5.29-12.22,1.79-5.32,2.14-9.79,4.2-9,5.3.36.47,3.69.28,5.45-.49a12.72,12.72,0,0,1,3.1-.93s-3.06,1.53-2.77,2.79,2.29.48,4.37-.16c3.88-1.21,6.87-.82,10.06-1.15A43.17,43.17,0,0,1,77,271l-.17.07c-5,2.24-9.23,4.39-8.24,5.55.41.49,3.72.29,5.38-.51a10.7,10.7,0,0,1,3-1c-.15.09-2.84,1.64-2.39,2.91s2.35.51,4.34-.17c3.73-1.26,6.76-.86,9.91-1.2s8,.5,11-.7,1.72-6.19,4.47-13.06,8.8-25.18,9.15-28.62l2,1.15s.92-6.76.92-8.7-.46-5.39-.46-5.39l1.89,1.21s-.23-6-.69-8.71c-.18-1.06-.58-2.91-1.06-4.92a47,47,0,0,0,18.45,3.63c2.13,0,4.26-.1,6.34-.26-1.87,6.83-3.9,16.07-1.93,21,2.78,7,3.67,8.84,11.36,15.85s16.15,11.87,16.37,13.92-10.91,1.61-12.7,1.72-6.9-.11-8.13.32-8.46,5.7-8.13,7.87,3.79.55,3.79.55-.67,2.37.67,2.59,3.78-1,3.78-1a2.09,2.09,0,0,0,2.79,1.73c2.45-.65,8.58-3.56,11.47-4.1l3.24-.6c-2.62,1.92-6.47,5.32-6.22,7,.34,2.3,3.89.58,3.89.58s-.69,2.52.69,2.75,3.89-1,3.89-1a2.17,2.17,0,0,0,2.87,1.84c2.52-.69,8.81-3.79,11.79-4.36s10.88-2.17,13.52-2,9-1.83,9.16-5.15a19.41,19.41,0,0,0-3.44-11c-2.29-3.21-6.53-10.65-6.53-17.3l2.41,3.67S197.81,234.31,199,232l1.38,3.09s7.21-10.77,8.13-16.72l.91,3.66s5.61-9.73,6.07-19.24.23-18.55-1.37-24.51c-.22-.79-.46-1.62-.74-2.5a27.53,27.53,0,0,0,4-9.27,44.92,44.92,0,0,0,1.23-9.28,64.59,64.59,0,0,0-.58-10.65c-.15-1.12-.32-2.27-.53-3.46q-.63-3.51-1.45-6.78c-.79-3.18-1.71-6.19-2.72-9.06A107.52,107.52,0,0,0,208,114.75c-1.9-3.78-3.9-7.25-5.86-10.44-2.68-4.37-5.29-8.23-7.51-11.68l-.46-.71c-1.78-2.8-3.94-5.8-6.18-8.94-2.4-3.35-4.88-6.87-7.11-10.47A57.43,57.43,0,0,1,175,60.57a28.37,28.37,0,0,1-1.43-7c0-.51-.06-1-.06-1.55,0-.72,0-1.43.09-2.12a1,1,0,0,0,0-.17,20.48,20.48,0,0,1,2.17-7.58,16.87,16.87,0,0,1,1.09-1.8A16,16,0,0,1,183.06,35c.21-.1.44-.19.66-.28a14.27,14.27,0,0,1,6.41-1.16,13.57,13.57,0,0,1,3.53.66c.15.05.31.09.46.15a19,19,0,0,1,2.82,1.29,16.83,16.83,0,0,1,1.8,1.17,17.87,17.87,0,0,1,4.71,5.05A18.06,18.06,0,0,1,204.56,44a18.48,18.48,0,0,1,.79,2c.2.61.37,1.25.52,1.89a22.87,22.87,0,0,1,.46,2.81c0,.29,0,.58.07.88a27,27,0,0,1-.32,6c-.12.74-.27,1.48-.45,2.24-.08.34-.15.66-.23,1-.36,1.57-.66,3-.91,4.4-1.58,8.66-1.07,13.35-.06,15.22s10.87-3.83,16.94-13.16a32.55,32.55,0,0,0,2.14-3.78c.23-.49.45-1,.66-1.47s.36-.9.52-1.36c.41-1.15.81-2.38,1.19-3.66.31-1,.61-2.13.88-3.25A54.86,54.86,0,0,0,228,46.38,43.93,43.93,0,0,0,228.15,38.84ZM88.79,269.2a30.24,30.24,0,0,1-4.61.61c2.06-1.76,1.95-6.13,5.12-11.9,1.15-2.08,2.76-5.25,4.46-8.71-.28,5.4-.56,10.44-.75,13.17C92.55,269.13,90.35,268.84,88.79,269.2Zm88,1.28c2.58-.76,5.29-2.3,5.37-4.35a14.79,14.79,0,0,0-.14-2.35c2.83,2.23,4.77,3.88,4.87,4.89C187.09,270.29,180.81,270.45,176.82,270.48Z"/><path class="cls-16" d="M76.7,274.7a21.64,21.64,0,0,1,2.4-.78,23,23,0,0,1,2.44-.5,18.77,18.77,0,0,1,2.48-.25,18.54,18.54,0,0,1,2.47.08,18.23,18.23,0,0,0-2.45.17,19.1,19.1,0,0,0-2.39.49,23.18,23.18,0,0,0-4.53,1.69Z"/><path class="cls-16" d="M59.54,269.35a23.88,23.88,0,0,1,2.4-.77c.81-.21,1.62-.38,2.44-.51a20.61,20.61,0,0,1,2.48-.24,20.38,20.38,0,0,1,2.47.07,18.24,18.24,0,0,0-2.45.18,19.08,19.08,0,0,0-2.39.48,22.27,22.27,0,0,0-4.52,1.7Z"/><path class="cls-16" d="M165.29,281.13a13.34,13.34,0,0,1,1.93-1.23,18.07,18.07,0,0,1,2.05-.95,19,19,0,0,1,4.3-1.11,18.48,18.48,0,0,0-4.1,1.57,17.73,17.73,0,0,0-1.86,1.13,12.79,12.79,0,0,0-1.65,1.33Z"/><path class="cls-16" d="M160.41,279.89a13.14,13.14,0,0,1,1.62-1.63,16.54,16.54,0,0,1,1.78-1.37,19.5,19.5,0,0,1,3.95-2.05,19.69,19.69,0,0,0-3.65,2.44,18.54,18.54,0,0,0-1.56,1.51,14.41,14.41,0,0,0-1.32,1.67Z"/><path class="cls-16" d="M145.29,275.05a20.59,20.59,0,0,1,2-1.68,16.67,16.67,0,0,1,2.12-1.42,8.25,8.25,0,0,1,4.84-1.32,8,8,0,0,0-4.57,1.74,17.9,17.9,0,0,0-1.91,1.57,21.74,21.74,0,0,0-1.69,1.78Z"/><path class="cls-16" d="M140.81,273.42a20.39,20.39,0,0,1,1.95-1.68,18,18,0,0,1,2.13-1.43,8.22,8.22,0,0,1,4.84-1.31,8,8,0,0,0-4.57,1.73,17,17,0,0,0-1.91,1.58,20.36,20.36,0,0,0-1.7,1.78Z"/><path class="cls-16" d="M181.26,263.78c-2.58-1.86-5.13-3.76-7.61-5.74s-4.83-4.15-7.13-6.36a32,32,0,0,1-6-7.48,40.93,40.93,0,0,1-2-4.37l-.88-2.22a14.6,14.6,0,0,1-.62-2.4,31.67,31.67,0,0,1,.32-9.63,86.91,86.91,0,0,1,2-9.35c.82-3.07,1.81-6.1,2.66-9.14a32.63,32.63,0,0,0,1.09-9.39,30.69,30.69,0,0,1-.62,9.5c-.76,3.1-1.66,6.14-2.38,9.23s-1.43,6.16-1.88,9.29a31.12,31.12,0,0,0-.23,9.33,13,13,0,0,0,.54,2.21l.86,2.21a40.47,40.47,0,0,0,1.92,4.3,33.8,33.8,0,0,0,5.79,7.37A156.5,156.5,0,0,0,181.26,263.78Z"/><path class="cls-16" d="M115.61,209.47q-.89-3.42-1.7-6.85c-.26-1.15-.52-2.3-.75-3.45a14.19,14.19,0,0,1-.43-3.49,14.47,14.47,0,0,0,.67,3.43c.32,1.13.65,2.26,1,3.38.69,2.24,1.42,4.47,2.17,6.69Z"/><path class="cls-9" d="M196.19,154.32a44.55,44.55,0,0,1,16.39,20"/><path class="cls-9" d="M140.79,212.32c3.79-.37,7.89-.94,12.25-1.8,3.14-.62,6.09-1.33,8.84-2.08"/><path class="cls-16" d="M92.92,251.23l.7-14.63.34-7.31a22.4,22.4,0,0,0-1.42-7c-1.61-4.58-3.76-9-5.67-13.49a36.83,36.83,0,0,1-3-14.3h0a41.15,41.15,0,0,1,1.27-6.71c.61-2.2,1.48-4.3,2.13-6.48-.62,2.19-1.46,4.3-2,6.5a40.36,40.36,0,0,0-1.18,6.7h0a36.54,36.54,0,0,0,3.17,14.15c2,4.47,4.18,8.84,5.87,13.45a23.5,23.5,0,0,1,1.56,7.24l-.25,7.34-.49,14.66Z"/><path class="cls-9" d="M78.48,201.13a74.85,74.85,0,0,0,8.3,9.82,3.06,3.06,0,0,0,1.82,1"/><path class="cls-9" d="M60.58,143.36a30.21,30.21,0,0,1,16-.53"/><path class="cls-15" d="M76.91,270.88a22.88,22.88,0,0,1,7.27-1.07"/><path class="cls-15" d="M163.37,272.21a3.93,3.93,0,0,1,2.72-1.57c1.72-.11,10.73-.16,10.73-.16"/></svg>