<svg xmlns="http://www.w3.org/2000/svg" viewBox="0 0 425 256"><defs><style>.cls-1{isolation:isolate;}.cls-2{fill:#231f20;opacity:0.3;}.cls-22,.cls-3{fill:#775d42;}.cls-3{stroke:#59422d;}.cls-10,.cls-12,.cls-14,.cls-15,.cls-17,.cls-26,.cls-3,.cls-6,.cls-9{stroke-miterlimit:10;}.cls-4{fill:#a38358;}.cls-5{fill:#edbf9a;}.cls-6,.cls-9{fill:#5e5142;}.cls-6{stroke:#3a3128;}.cls-7{fill:#a0907c;}.cls-8{fill:#786954;}.cls-9{stroke:#382f25;}.cls-10{fill:#9b7d56;stroke:#604a30;}.cls-11,.cls-15{fill:#bb9b69;}.cls-12{fill:#c18952;stroke:#9b683a;}.cls-13{fill:#9e6930;opacity:0.6;mix-blend-mode:multiply;}.cls-14,.cls-16{fill:#8d704c;}.cls-14,.cls-15{stroke:#826444;}.cls-14{stroke-width:2px;}.cls-17,.cls-19{fill:#917651;}.cls-17{stroke:#7c6140;}.cls-18{fill:#b28c59;}.cls-20{fill:#d8b58b;}.cls-21{fill:#443119;}.cls-23{fill:#fff;}.cls-24{fill:#1371ff;}.cls-25{fill:#000619;}.cls-26{fill:#917653;stroke:#60482d;}</style></defs><g class="cls-1"><g id="Layer_1" data-name="Layer 1"><ellipse class="cls-2" cx="188.16" cy="188.85" rx="99.42" ry="13.39"/><path class="cls-3" d="M123.84,151.8s3.72,16.6-3.61,22c1,5.74,3.26,9.33,12.91,7.42,6.7-7,1.6-29.3,1.6-29.3Z"/><path class="cls-4" d="M122.3,176.69c3.83,1.92,8.29,1.28,9.57-2.55,2.88-6.34,2.94-16.38,1.73-22.82h-9.82s3.78,17.08-3.55,22.5c.1.58.22,1.13.35,1.66A6.9,6.9,0,0,0,122.3,176.69Z"/><path class="cls-5" d="M124.94,165.44a13,13,0,0,1-4.71,8.38c.06.38.15.72.23,1.08A11.78,11.78,0,0,0,124.94,165.44Z"/><path class="cls-6" d="M121.77,174.51c-3.14-1.27-13.51,4.58-13,9.73,2.77-3.08,9.35-6.75,13.4-6.22C122.14,178,123.41,175.74,121.77,174.51Z"/><path class="cls-7" d="M122.15,174.89a2.73,2.73,0,0,0-.38-.38c-3.12-1.26-13.35,4.49-13,9.62C112.61,177.05,123.45,176.57,122.15,174.89Z"/><path class="cls-8" d="M122.15,174.89a2.73,2.73,0,0,0-.38-.38c-2.29-.63-11.59,3.94-13,9.62C112.61,177.05,123.45,176.57,122.15,174.89Z"/><path class="cls-6" d="M124,176.53c-3.2-.27-9.78,6.7-8.93,9.79,1.86-.06,4.89-6.72,10.58-5.75C125.65,180.57,126.55,177.32,124,176.53Z"/><path class="cls-7" d="M124.75,176.9a2.5,2.5,0,0,0-.75-.37c-3.2-.27-9.78,6.7-8.93,9.79l.19,0C117.37,180.44,126.42,178.22,124.75,176.9Z"/><path class="cls-8" d="M124.75,176.9a2.5,2.5,0,0,0-.75-.37c-1.94.46-8.11,5-8.93,9.79l.19,0C117.37,180.44,126.42,178.22,124.75,176.9Z"/><path class="cls-9" d="M213.68,177.17c-2.82-.48-11.11,3-11.11,5.69,2.82-.77,4.62-2.45,11.8-2C214.37,180.89,214.85,177.86,213.68,177.17Z"/><path class="cls-8" d="M214.22,177.89a1.39,1.39,0,0,0-.54-.72c-2.82-.48-11.11,3-11.11,5.69l.45-.14c3.24-2.49,8.16-2.27,11.14-4.75Z"/><path class="cls-10" d="M229.79,135.16c-7.87,1-16.27,8.36-16.27,8.36s8.72,16.35-1.38,36.52c-1.28,4.05,18,9.46,26.79,4.54C243.82,169.71,237.55,138.23,229.79,135.16Z"/><path class="cls-11" d="M232,175.86c4.87-12.51.57-27.66-5.13-40.08-6.9,2.06-13.37,7.74-13.37,7.74s8.72,16.35-1.38,36.52c-.23.72.21,1.5,1.13,2.25C220.77,185.12,229.63,183.6,232,175.86Z"/><path class="cls-9" d="M214.8,179.62c-4.79.63-11.86,7.07-10.53,9.35,2.13-1.27,10.74-5.42,12.76-4.78A4.07,4.07,0,0,0,214.8,179.62Z"/><path class="cls-8" d="M216.28,181.05a1.87,1.87,0,0,0-1.65-1.4c-4.7.74-11.43,6.84-10.42,9.2C206.52,184.87,216.91,183,216.28,181.05Z"/><path class="cls-9" d="M220.25,182.86s-7.13,5.81-6.38,9.08c1.3-1.28,7.39-6,8.77-6.51C222.7,183.46,220.25,182.86,220.25,182.86Z"/><path class="cls-8" d="M221.28,183.29a4.43,4.43,0,0,0-1-.43s-7.13,5.81-6.38,9.08l0,0C214.57,188.66,222.93,184.33,221.28,183.29Z"/><path class="cls-12" d="M129.7,151.59s9.5,26.38-2.83,31.8c-.11,1.92,14.88,11.91,24.13,1.92s0-35.09,0-35.09Z"/><path class="cls-11" d="M143.35,183.71c9.23-8.07,4.38-21.36.54-32.32l-14.07.55s9.38,26-2.95,31.45a1.9,1.9,0,0,0,.65,1.07C132.36,187.41,139.29,187.32,143.35,183.71Z"/><path class="cls-6" d="M118.15,188.81c.32,1.65,5.8-5.25,10.9-3.55,0,0,1-1.18.27-3.84C123.84,180.63,117.56,185.73,118.15,188.81Z"/><path class="cls-8" d="M129.32,181.42h-.14a2.43,2.43,0,0,1,.2.28Z"/><path class="cls-7" d="M129.38,182.28c.08-.08-.12-.78-.2-.87-5.44-.7-11.62,4.35-11,7.4h0C121.24,183.83,129.51,183.41,129.38,182.28Z"/><path class="cls-8" d="M129.38,182.28c.08-.08,0-.45-.1-.54-5.13-.19-10.37,3.84-11.13,7.07h0C121.24,183.83,129.51,183.41,129.38,182.28Z"/><path class="cls-6" d="M133.67,182.81c-4.58-.27-12.43,6.87-10.57,11.8,1.91.48,6.67-8.35,11.89-7.55C135,187.06,136.39,184,133.67,182.81Z"/><path class="cls-7" d="M134.32,183.2a2.73,2.73,0,0,0-.65-.39c-4.44-.26-11.93,6.45-10.57,11.8C126.24,186.22,135.82,185.48,134.32,183.2Z"/><path class="cls-8" d="M134.32,183.2a2.73,2.73,0,0,0-.65-.39c-4.26,1.16-10.77,6.26-10.57,11.8C126.24,186.22,135.82,185.48,134.32,183.2Z"/><path class="cls-6" d="M139.1,183.85c-3.87.64-9.09,8.58-6.49,11.29,2.38-4,6-7.23,8.38-7.44A2.72,2.72,0,0,0,139.1,183.85Z"/><path class="cls-7" d="M139.52,184a3.33,3.33,0,0,0-.42-.17c-3.73.62-8.7,8-6.75,11C133.61,188.79,142.27,185.56,139.52,184Z"/><path class="cls-8" d="M139.52,184a3.33,3.33,0,0,0-.42-.17c-3,1.87-7.38,6.64-6.75,11C133.61,188.79,142.27,185.56,139.52,184Z"/><path class="cls-13" d="M211.89,142.51s.15,3.43,13.88,7.38c13.11,3.76,6.63,32.18-10,32.54,6.28,3.79,15.37,5.46,22.76,1.51s7.31-13.62,7.15-28.15S220.21,130.49,211.89,142.51Z"/><path class="cls-11" d="M419.45,180.64c-8.2-12.94-24-33.77-50.7-49.17-33.57-19.37-66-19.57-87.2-19.44-38,.23-34.12,9.82-100.26,19.75-9.62,1.44-10.61,1.37-96.59,10.48l-46.16,4.91L17.35,158l-.32.16a39,39,0,0,0,4.75.09,68.9,68.9,0,0,0,8.44-.85c10.63-1.7,28.71-7.76,34.66-8.61s31.79-1.12,46,1.75,49.44.48,68.74,0,73-19.61,86.44-25,60.76,8.61,73,10.69,51.67,21.37,64.91,33c7.24,6.37,11.24,10,13.45,11.31a5.62,5.62,0,0,0,.69.35,1.34,1.34,0,0,0,1.24.07.85.85,0,0,0,.19-.14Zm-50.7-49.17c-33.57-19.37-66-19.57-87.2-19.44-38,.23-34.12,9.82-100.26,19.75-9.62,1.44-10.61,1.37-96.59,10.48l-46.16,4.91L17.35,158l1,.06,3.44.19a68.9,68.9,0,0,0,8.44-.85c10.63-1.7,28.71-7.76,34.66-8.61s31.79-1.12,46,1.75,49.44.48,68.74,0,73-19.61,86.44-25,60.76,8.61,73,10.69,51.67,21.37,64.91,33c7.24,6.37,11.24,10,13.45,11.31l.44,0,1.57.08C411.25,167.7,395.44,146.87,368.75,131.47Z"/><path class="cls-11" d="M368.75,131.47c-33.57-19.37-66-19.57-87.2-19.44-38,.23-34.12,9.82-100.26,19.75-9.62,1.44-10.61,1.37-96.59,10.48l-46.16,4.91L17.35,158l1,.06q.82,0,1.74,0a66.67,66.67,0,0,0,10.11-.88c5.9-.94,14-3.22,21.23-5.22,5.78-1.62,10.77-3,13.43-3.39a131,131,0,0,1,14.3-.58c6.08,0,21.33.23,31.76,2.34,4.6.93,11.77,1.38,21.9,1.38s21.66-.45,31.8-.86c5.48-.22,10.66-.42,15-.53,19.6-.49,73.62-19.86,86.37-25a24.5,24.5,0,0,1,8.82-1.26c13.53,0,35.71,5.31,50.39,8.81,6.14,1.47,11,2.62,13.93,3.12,12.29,2.07,51.89,21.53,65,33.06l3.16,2.78c5.51,4.87,8.81,7.77,10.61,8.7a2.46,2.46,0,0,0,1,.32.63.63,0,0,0,.54-.24C411.25,167.7,395.44,146.87,368.75,131.47Zm-352,26.87c.85.09,1.71.13,2.54.15ZM419.37,181l-1.24-.07-.51,0a2.82,2.82,0,0,0,1.29.41,1,1,0,0,0,.75-.29Z"/><path class="cls-14" d="M419.92,181.2c3.62-7.11-10.84-17.89-10.84-17.89s-2.58-.49-7.11,3C405,174.34,417.8,184.22,419.92,181.2Z"/><path class="cls-11" d="M412.19,165.9c1.92,2.88,3.4,6,5.21,9a31.92,31.92,0,0,1-12.63-3.71c4.88,6.53,13.45,12.39,15.15,10C422.44,176.25,416.21,169.54,412.19,165.9Z"/><path class="cls-14" d="M398.51,147.92s-5.07,2.34-4.11,5.63,14,13.45,17.63,13.72C411.27,158.21,398.51,147.92,398.51,147.92Z"/><path class="cls-11" d="M412,167.27c-.39-4.57-3.83-9.46-7.14-13.18,1,1.93,2.28,3.74,2.82,5.91-4-1.34-8-2.69-12.06-4.47C399.19,159.77,409,167,412,167.27Z"/><path class="cls-14" d="M380.81,131.81c-9.39-.5-7.32,7.71-7.32,7.71s25.51,16.86,26.24,11.39S380.81,131.81,380.81,131.81Z"/><path class="cls-11" d="M387.23,136.6c1.44,2.15,2.8,4.5,4.52,6.86-6.79-.11-12.6-3-18.44-6.16a8.53,8.53,0,0,0,.18,2.22s25.51,16.86,26.24,11.39C400.18,147.53,392.89,141.06,387.23,136.6Z"/><path class="cls-14" d="M359,120.19c-6.85,7.36,6.21,13.87,6.21,13.87s17.29,4.47,16.34.73C377.29,123.13,359,120.19,359,120.19Z"/><path class="cls-11" d="M381.51,134.79c-2-5.49-7.1-9-11.95-11.27,2.33,1.42,4.59,3.18,5.06,6.44-6,0-11.54,0-16.7-2.13,2.16,3.69,7.25,6.23,7.25,6.23S382.46,138.53,381.51,134.79Z"/><path class="cls-14" d="M325.8,98c-6.62,4.62,12.57,25.84,12.57,25.84s29.5,4.78,28.71-1.15S325.8,98,325.8,98Z"/><path class="cls-11" d="M367.08,122.71C366.3,116.78,325.8,98,325.8,98c-1.23.85-1.57,2.28-1.31,4,9.91,2.14,20.88,10.55,30.26,16.1-2.1,1.55-15.82,0-21.89-1,2.93,3.83,5.51,6.68,5.51,6.68S367.87,128.64,367.08,122.71Z"/><path class="cls-15" d="M302,103.18a43.84,43.84,0,0,0,11.25,16.95c9.34,4.39,25,3.29,24.68-1.28C323.21,86.83,302,103.18,302,103.18Z"/><path class="cls-16" d="M326.6,114.17a42.41,42.41,0,0,1-17.44,1.14l-.79-.11a46.5,46.5,0,0,1-5.09-8.35l.54-.14C308.74,105.48,320.21,104,326.6,114.17Z"/><path class="cls-14" d="M276.91,84.64c-32,9.85-11.64,35.63-11.64,35.63s42.63-.44,46.88-5.4C313.39,90,276.91,84.64,276.91,84.64Z"/><path class="cls-11" d="M276.91,84.64a34.53,34.53,0,0,0-11.38,5.59c13.55.25,24.51,9.76,35.29,15.5-13,5.69-29.46,3.23-42.95-.65,1.73,6.28,7.4,15.19,7.4,15.19s42.63-.44,46.88-5.4C313.39,90,276.91,84.64,276.91,84.64Z"/><path class="cls-14" d="M305.44,96.16,311.52,110s25.69-.15,29.49-3.19C333.76,95.86,305.44,96.16,305.44,96.16Z"/><path class="cls-11" d="M341,106.8c-5-7.58-20.18-9.76-29-10.39,5.36,3.29,12.51,3.74,18.21,7.81a92,92,0,0,1-20.38,2l1.68,3.81S337.21,109.84,341,106.8Z"/><path class="cls-14" d="M294.65,85.27a55.09,55.09,0,0,0,.67,11c8.49,6.5,29.19,4.81,32.87,3.23C322.07,89.36,294.65,85.27,294.65,85.27Z"/><path class="cls-11" d="M300.21,86.31c6.41,3.19,13.2,5.83,18.59,10.53-8-.42-16-.38-23.73-2.44.07.6.15,1.23.25,1.88,8.49,6.5,29.19,4.81,32.87,3.23C323.82,92.25,308.56,88.1,300.21,86.31Z"/><path class="cls-14" d="M278,84.41s10.3,9.87,12.36,9.69,17.65-.83,20.34-5.55c-4.56-5.88-23.51-11.31-23.51-11.31C285.65,76.77,278,84.41,278,84.41Z"/><path class="cls-11" d="M287.23,77.24a2.59,2.59,0,0,0-1.59.58c5.82,1.84,10.57,5.68,15.93,8.59a62.07,62.07,0,0,1-22.64-1.16c2.53,2.37,9.78,9,11.47,8.85,2.05-.19,17.65-.83,20.34-5.55C306.18,82.67,287.23,77.24,287.23,77.24Z"/><path class="cls-14" d="M256.28,104c-7.61-.21-17.44,7.35-14.16,15.91,17.34,8.64,28.22-1.42,33.57-6.65C271.75,101.78,256.28,104,256.28,104Z"/><path class="cls-11" d="M256.28,104a16,16,0,0,0-9.84,3.51c6.73-.32,13.46-.8,20,1.9-5.68,7.56-15.42,9.07-24.88,8.13a9.56,9.56,0,0,0,.59,2.37c17.34,8.64,28.22-1.42,33.57-6.65C271.75,101.78,256.28,104,256.28,104Z"/><path class="cls-14" d="M255.14,69.32,246.5,79.48l23.86,4.86s18.32-1,21.16-4.42C286.15,69,255.14,69.32,255.14,69.32Z"/><path class="cls-11" d="M255.14,69.32l-1.26,1.48c7.89,1.73,16.31,3,24.09,5.48a99.52,99.52,0,0,1-25.24,4.47l17.63,3.59s18.32-1,21.16-4.42C286.15,69,255.14,69.32,255.14,69.32Z"/><path class="cls-14" d="M241.07,77.88c-23.53,20.31,3.38,34.65,3.38,34.65s36.1-16.27,37.88-22.07C274.11,68.86,241.07,77.88,241.07,77.88Z"/><path class="cls-11" d="M241.07,77.88a32.27,32.27,0,0,0-7.6,9c11.62-4.83,24.49-.84,35.8,0-8.94,9.69-23.86,13.73-36.77,15.46,3.81,4.7,11.95,10.16,11.95,10.16s36.1-16.27,37.88-22.07C274.11,68.86,241.07,77.88,241.07,77.88Z"/><path class="cls-14" d="M228.63,59.93l-7.22,16.48,19.68,4.83s32.34-5.88,33.06-12.45C266.65,54.5,228.63,59.93,228.63,59.93Z"/><path class="cls-11" d="M228.63,59.93l-.58,1.32c11.15.71,21.51,4.26,31.95,6.46-11.79,6.18-24.62,6.6-37.38,6l-1.21,2.74,19.68,4.83s32.34-5.88,33.06-12.45C266.65,54.5,228.63,59.93,228.63,59.93Z"/><path class="cls-14" d="M204.38,92.45s-4.27,14.48-12.66,25.42c22.7,8,53.79.74,64.81-12.26C244.49,81.24,204.38,92.45,204.38,92.45Z"/><path class="cls-11" d="M204.38,92.45s-.38,1.3-1.15,3.42c13-2.42,26,1.82,38.17,5.3-12.13,10.61-29.48,12.49-45.82,11a64.83,64.83,0,0,1-3.86,5.7c22.7,8,53.79.74,64.81-12.26C244.49,81.24,204.38,92.45,204.38,92.45Z"/><path class="cls-14" d="M208.53,118.11l-6.86,10.72,20.78,5.87s29.88-8.3,29-17.83C237.42,103.28,208.53,118.11,208.53,118.11Z"/><path class="cls-11" d="M216.61,114.74a49.52,49.52,0,0,1,22.76,4c-9.7,3.65-18.86,9.44-29.05,12.5l12.13,3.43s29.88-8.3,29-17.83C242.12,107.83,226.22,111.37,216.61,114.74Z"/><path class="cls-14" d="M206.85,60.25,194.93,70l21.91,8.51s30.69-11.09,29.22-16.62C229.88,47.18,206.85,60.25,206.85,60.25Z"/><path class="cls-11" d="M246.06,61.85c-16.18-14.67-39.21-1.6-39.21-1.6l-2.72,2.22c8.68-1.92,17.46-1.48,26.69-1.48-8.5,4.78-17,9.55-26.33,12.68l12.35,4.8S247.53,67.38,246.06,61.85Z"/><path class="cls-14" d="M203,76.4c-19.63,18.3,7.39,24.33,7.39,24.33S247.34,90.38,247.31,83C228,59.67,203,76.4,203,76.4Z"/><path class="cls-11" d="M203,76.4c-1,.95-1.9,1.86-2.67,2.74,10.77-2.66,22.84-2,31.83,4.25-11.22,5-22.95,8.47-35.18,9.25,3.42,5.86,13.41,8.09,13.41,8.09S247.34,90.38,247.31,83C228,59.67,203,76.4,203,76.4Z"/><path class="cls-14" d="M217.56,56.91c-13.66-8.88-31.18,3.83-31.18,3.83l-11.72,8.82,17.44,7.06S221.63,62.78,217.56,56.91Z"/><path class="cls-11" d="M217.56,56.91c-13.66-8.88-31.18,3.83-31.18,3.83l-4.78,3.6c7.85-2.22,16-4,24.2-4.07-6.7,7.27-16.67,10.69-26.67,11.1l13,5.25S221.63,62.78,217.56,56.91Z"/><path class="cls-14" d="M175.75,110.09s1.1,3,3.86,9.3c15.09,11.29,56.13-.25,51.35-9.3C204.27,81.91,175.75,110.09,175.75,110.09Z"/><path class="cls-11" d="M231,110.09c-20-21.08-41-10.62-50.26-4,11.94-1.74,24.15,1.66,35.9,4.6-12,4.89-25.52,8.57-38,6.31.32.74.66,1.54,1,2.4C194.7,130.68,235.74,119.14,231,110.09Z"/><path class="cls-14" d="M185.09,125.29c-6.87,4.13-2.27,12,7.79,16,12.39,2.76,35.64-8.6,31.19-15.24C211.11,111.51,185.09,125.29,185.09,125.29Z"/><path class="cls-11" d="M224.07,126c-8.76-9.83-23.49-6.71-32.12-3.66,7.58-.78,15.16.22,21.3,4.33a75.1,75.1,0,0,1-22.77,13.49c.76.38,1.56.75,2.4,1.08C205.27,144,228.52,132.68,224.07,126Z"/><path class="cls-14" d="M189.1,58.64c-13.53-4-34.84,12.07-34.84,12.07l-6.19,14.13s6.68,1,19.37-2C179.06,80.25,192.66,62,189.1,58.64Z"/><path class="cls-11" d="M189.1,58.64c-13.53-4-34.84,12.07-34.84,12.07l-1.79,4.09c8-3,15.55-7,24.64-6.82-3.53,6.7-10.59,13.75-18.56,16.48a86.54,86.54,0,0,0,8.89-1.65C179.06,80.25,192.66,62,189.1,58.64Z"/><path class="cls-14" d="M171.6,80.93l-3.79,18.82s4.5,6.64,21.07,6.23c16-.51,33.13-23.72,33.65-29.34C192.07,55.37,171.6,80.93,171.6,80.93Z"/><path class="cls-11" d="M171.6,80.93l-1.14,5.67c9.49-7.09,24-7,35.49-6.28-5.31,13-17,20.85-29.87,24.23a41.46,41.46,0,0,0,12.8,1.43c16-.51,33.13-23.72,33.65-29.34C192.07,55.37,171.6,80.93,171.6,80.93Z"/><path class="cls-14" d="M142.14,125.74s1.56,3.68,4,8.24c33.32,19.73,55.49-9.47,54.12-14.35C156.55,90.35,142.14,125.74,142.14,125.74Z"/><path class="cls-11" d="M200.27,119.63c-33.64-22.53-49.93-6.78-55.65,1.69,12.51-4.73,26.27,0,38.53,2.41-8.89,9.41-21.14,12.38-33.53,12.15C181,151.68,201.6,124.34,200.27,119.63Z"/><path class="cls-14" d="M176.06,126.56l-24.53-1.41c-7.44,3.08-5.91,11.66.18,18.9,8.62,4.35,37.39,1.46,42.65-3.85C191.89,131.13,176.06,126.56,176.06,126.56Z"/><path class="cls-11" d="M175.92,126.58l-19.26-1.11c8.34,3.73,16.47,7.87,24.92,10.63-10.09,2.54-21.33,5.17-32,5.26a29.16,29.16,0,0,0,2,2.7c8.61,4.35,37.38,1.46,42.64-3.85C191.74,131.15,175.92,126.58,175.92,126.58Z"/><path class="cls-14" d="M130.39,81.69l-3.48,12.76a98.23,98.23,0,0,0,21.76,2.61c10.14-4.62,20.15-25.43,16.72-31.55C143.57,64.05,130.39,81.69,130.39,81.69Z"/><path class="cls-11" d="M165.39,65.51c-21.82-1.46-35,16.18-35,16.18l-.4,1.46c5.62-2.54,11.71-4.77,16.29-8.5A27.74,27.74,0,0,1,142,96.73c2.07.16,4.32.28,6.72.33C158.81,92.44,168.82,71.63,165.39,65.51Z"/><path class="cls-14" d="M135.22,99.76l1,22.51s10.4-.58,28-1.53c14.87.05,30.61-33.27,26.27-37.31C150,68.7,135.22,99.76,135.22,99.76Z"/><path class="cls-11" d="M190.52,83.43C161.81,73,146,85.52,139.28,93.72a211.22,211.22,0,0,0,36.08-1.92c-8.1,14.85-23.56,21.29-39.42,23.81l.29,6.66s10.4-.58,28-1.53C179.12,120.79,194.86,87.47,190.52,83.43Z"/><path class="cls-14" d="M138.35,125.86c-8.06.64-15.17,6.6-23.07,15.8,10,8,44.7,8.39,46.13-.8C159.28,128.25,138.35,125.86,138.35,125.86Z"/><path class="cls-11" d="M138.35,125.86a20.66,20.66,0,0,0-8.44,2.69c7.53,3,15.2,5.13,21.51,11.57a95.48,95.48,0,0,1-34.78,2.47c11.47,7,43.4,7.09,44.77-1.73C159.28,128.25,138.35,125.86,138.35,125.86Z"/><path class="cls-14" d="M120.53,105,106.3,136.58a104.46,104.46,0,0,0,24.06,0c12.11-1.59,33.18-21.36,32.78-33.63C126.26,87.39,120.53,105,120.53,105Z"/><path class="cls-11" d="M120.53,105l-1.85,4.11a144,144,0,0,1,25.2-2.25c-6.17,13.58-19.62,19.49-33.72,21.16l-3.86,8.54a104.46,104.46,0,0,0,24.06,0c12.11-1.59,33.18-21.36,32.78-33.63C126.26,87.39,120.53,105,120.53,105Z"/><path class="cls-14" d="M100.85,104.1c-1.08,19.53,32.38,10.34,32.38,10.34s10.14-21.18,8.42-30.92C117.43,77.07,100.85,104.1,100.85,104.1Z"/><path class="cls-11" d="M141.65,83.52c-24.22-6.45-40.8,20.58-40.8,20.58a12.42,12.42,0,0,0,.7,5.12c6.47-9.47,18.22-14.7,29.22-18.94-.22,11.52-8.67,18.92-16.79,26.17,9,.8,19.25-2,19.25-2S143.37,93.26,141.65,83.52Z"/><path class="cls-14" d="M82.61,117.26c-7.35,13.12,14.6,23.18,14.6,23.18s29.06-16.12,27.62-26.33C100.77,89.63,82.61,117.26,82.61,117.26Z"/><path class="cls-11" d="M124.83,114.11c-24.06-24.48-42.22,3.15-42.22,3.15a11.66,11.66,0,0,0-1.35,3.7c8-7.72,21.62-7.73,32-7.73C107.68,125.11,96.17,129.3,84,130.38c4.64,6.14,13.19,10.06,13.19,10.06S126.27,124.32,124.83,114.11Z"/><path class="cls-14" d="M85.13,130.15c-9.89,6-.91,15.43-.91,15.43s43,5,38.75-4.87S85.13,130.15,85.13,130.15Z"/><path class="cls-11" d="M123,140.71c-4.25-9.85-37.84-10.56-37.84-10.56a9.24,9.24,0,0,0-4.23,4.72,38.18,38.18,0,0,0,8.26-.13c-.69-.14-1.38-.28-2.08-.4.7.12,1.39.26,2.08.4a44.73,44.73,0,0,0,5.25-.93,44.73,44.73,0,0,1-5.25.93c8.3,1.75,16.14,5.32,24.25,5.64-7.88,4.3-16.21,5.56-24.68,5.64C99.64,147,126.37,148.57,123,140.71Z"/><path class="cls-14" d="M75.56,129.44s-9.4,5.42-4.27,12.92c8.41,7.5,24.92,1.59,26.44-4C92.55,125.05,75.56,129.44,75.56,129.44Z"/><path class="cls-11" d="M75.56,129.44a15.38,15.38,0,0,0-3.76,3.27c6.58-.78,12.63,2.21,18.68,4.63C85,139.85,77,143.15,70.51,141a10.58,10.58,0,0,0,.78,1.35c8.41,7.5,24.92,1.59,26.44-4C92.55,125.05,75.56,129.44,75.56,129.44Z"/><path class="cls-14" d="M63.64,117.57A35.08,35.08,0,0,1,65.35,130c11.1,5,30.73-6.71,27.37-13.85C83.33,105.42,63.64,117.57,63.64,117.57Z"/><path class="cls-11" d="M92.72,116.19c-9.39-10.77-29.08,1.38-29.08,1.38a22.15,22.15,0,0,1,.65,2.21c6.5-1.82,14.24-4.42,20.93-1.84-5.73,4.17-12.54,9.19-19.91,8.74,0,1.06.07,2.18,0,3.36C76.45,135.08,96.08,123.33,92.72,116.19Z"/><path class="cls-14" d="M43.74,121.34c-.49,4.12,14.69,6.1,14.69,6.1S68,119.59,65.52,115C58.42,112.9,43.74,121.34,43.74,121.34Z"/><path class="cls-11" d="M65.52,115c-7.1-2.06-21.78,6.38-21.78,6.38a1.62,1.62,0,0,0,.15.89c6.19-2.74,12.4-4.6,18.65-4.74a26.06,26.06,0,0,1-10.68,8.69c3.4.84,6.57,1.26,6.57,1.26S68,119.59,65.52,115Z"/><path class="cls-14" d="M59.7,122.63,59,130.68l7.58,4.53s14.65-5.89,13-8.57C74.29,117.12,59.7,122.63,59.7,122.63Z"/><path class="cls-11" d="M79.51,126.64c-5.22-9.52-19.81-4-19.81-4l-.21,2.43c5.09-1.59,9.77,0,15,.6a26.53,26.53,0,0,1-13.12,6.44l5.22,3.11S81.21,129.32,79.51,126.64Z"/><path class="cls-14" d="M45.05,120.21c-7.29-.27-13.63,8.9-13.63,8.9l9.13,3.71S52.34,120.49,45.05,120.21Z"/><path class="cls-11" d="M45.05,120.21c-7.29-.27-13.63,8.9-13.63,8.9l1.76.72c2.29-3.45,5.18-5.05,8.59-6.42a12.55,12.55,0,0,1-3.92,8.32l2.7,1.09S52.34,120.49,45.05,120.21Z"/><path class="cls-14" d="M36.35,127.91c-7.28-.28-13.63,8.9-13.63,8.9l9.13,3.71S43.64,128.18,36.35,127.91Z"/><path class="cls-11" d="M36.35,127.91c-7.28-.28-13.63,8.9-13.63,8.9l1.76.71c2.29-3.44,5.18-5,8.6-6.42a12.53,12.53,0,0,1-3.92,8.32l2.69,1.1S43.64,128.18,36.35,127.91Z"/><path class="cls-16" d="M45.68,125.54c-3.18,6.7,14,7.86,14,7.86s4.1-4.72,3.51-9.3C55.09,118.52,45.68,125.54,45.68,125.54Z"/><path class="cls-11" d="M63.17,124.1c-8.08-5.58-17.49,1.44-17.49,1.44a3.19,3.19,0,0,0-.15,2.73c3.82-3.86,9.1-3.05,13.29-2.55-.66,3.27-1.86,5.34-4.49,6.95a49.05,49.05,0,0,0,5.33.73S63.76,128.68,63.17,124.1Z"/><path class="cls-14" d="M38.46,130.92s1.06,4,7,5c4.68-1.91,6-8.24,4.2-9.78C42.77,123.56,38.46,130.92,38.46,130.92Z"/><path class="cls-11" d="M49.62,126.11c-6.85-2.55-11.16,4.81-11.16,4.81a4.88,4.88,0,0,0,.67,1.35c1.94-2.71,4.8-3.26,8.16-3.82a8.93,8.93,0,0,1-3.94,6.92,13,13,0,0,0,2.07.52C50.1,134,51.38,127.65,49.62,126.11Z"/><path class="cls-14" d="M54,132.35l-2.35,14.37,10.14,4.2s16.38-4.3,16.57-10.06C72.57,126.37,54,132.35,54,132.35Z"/><path class="cls-11" d="M54,132.35l-.39,2.35c6.79-.29,12.92.23,19,4.09-6.28,4.07-13.35,4.58-20.25,3.91l-.66,4,10.14,4.2s16.38-4.3,16.57-10.06C72.57,126.37,54,132.35,54,132.35Z"/><path class="cls-14" d="M15.35,143.06c.51.51,8.58,1,8.58,1s4.53-4.46,2.23-7.22C19.63,133.44,15.35,143.06,15.35,143.06Z"/><path class="cls-11" d="M26.16,136.85c-6.53-3.41-10.81,6.21-10.81,6.21a4,4,0,0,0,1.42.35c1.54-2.59,4.29-3.94,7.05-4.63A10,10,0,0,1,22.51,144c.85.07,1.42.1,1.42.1S28.46,139.61,26.16,136.85Z"/><path class="cls-17" d="M29.75,137.57c-4.73,3.72-11.91,5.15-14.89,5.2a56.86,56.86,0,0,0-8.1,7.85c-3.75,4.5-2.9,5.66,3,8.8,6.17,4.78,11-2.9,24.38-1.47s23.41-2.71,27.8-7.94c5.5,1.14,16-1.1,16-1.1-5.81-3.26-18.8-16.75-29-18.26C39.89,129.3,34.48,133.85,29.75,137.57Z"/><path class="cls-18" d="M22.14,152.81c.43,2.5-1.28,4.09-.68,4.63,14.88-5.36,22.67,1.18,38.16-9.88,4.31.32,13.51-.64,12.28-2.76,0-.08.14-.11.2-.17-6.55-5.24-15.59-12.87-23.11-14-9.1-1.35-14.51,3.2-19.24,6.92s-11.91,5.15-14.89,5.2a56.86,56.86,0,0,0-8.1,7.85c-3.44,4.13-3,5.45,1.66,8.06C15.15,161.14,21.55,157.4,22.14,152.81Z"/><path class="cls-19" d="M54.08,135.43s6.16,6.4-3,7.06C54.46,141.43,56.39,139.16,54.08,135.43Z"/><path class="cls-20" d="M12.53,154.17c-2.84,1.79-6.76,2.09-6.72.18.07-3.39,6.14-8.16,9.28-11.59h-.23a56.86,56.86,0,0,0-8.1,7.85c-2,2.41-2.68,3.86-2,5.17C7.3,157,10,156.4,12.53,154.17Z"/><path class="cls-21" d="M9.77,159.23l0,.38c.63,0,1.22.06,1.79.06,9.23,0,10.23-5.72,10.23-5.72S20.28,160,9.77,159.23Z"/><path class="cls-21" d="M4.84,155.6l-.18.34a5.78,5.78,0,0,0,2.71.66,7.86,7.86,0,0,0,5.16-2.43S8.63,157.57,4.84,155.6Z"/><path class="cls-22" d="M37.76,134.2a6.83,6.83,0,0,0-2.56,5.3l.38,0a6.47,6.47,0,0,1,2.4-5c2.59-1.9,6.41-1,6.45-1S40.5,132.2,37.76,134.2Z"/><path class="cls-19" d="M40.93,134.77a6.5,6.5,0,0,0,0,12.95,6.5,6.5,0,0,0,0-12.95Z"/><ellipse class="cls-22" cx="40.64" cy="140.78" rx="5.67" ry="6.01"/><path class="cls-23" d="M40.64,135.47A5.56,5.56,0,1,0,46.1,141,5.5,5.5,0,0,0,40.64,135.47Z"/><path class="cls-24" d="M44.5,142.73a3.09,3.09,0,0,1-2.72,3.49,3.3,3.3,0,0,1-3.12-3.3,3.09,3.09,0,0,1,2.72-3.49A3.3,3.3,0,0,1,44.5,142.73Z"/><path class="cls-25" d="M43.06,142.78a1.57,1.57,0,0,1-1.38,1.77,1.67,1.67,0,0,1-1.58-1.68,1.57,1.57,0,0,1,1.38-1.77A1.69,1.69,0,0,1,43.06,142.78Z"/><path class="cls-23" d="M41,143a.54.54,0,1,1-1.08,0A.54.54,0,0,1,41,143Z"/><path class="cls-25" d="M41.33,146.27a3.45,3.45,0,0,1-2.76-3.35,3.62,3.62,0,0,1,.73-2.46,2.71,2.71,0,0,1,2.07-1.1,3.13,3.13,0,0,1,3.22,3.37,3.17,3.17,0,0,1-2.8,3.56A3.46,3.46,0,0,1,41.33,146.27Zm.46-6.75a1.85,1.85,0,0,0-.41,0,2.5,2.5,0,0,0-1.92,1,3.45,3.45,0,0,0-.7,2.39,3.32,3.32,0,0,0,2.61,3.21,1.85,1.85,0,0,0,.41,0,3,3,0,0,0,2.62-3.42A3.32,3.32,0,0,0,41.79,139.52Z"/><path class="cls-22" d="M52,134c-2.12-.35-3.89,2.13-3.89,2.13S50,134,52,134.33c1.09.18,2,1.1,2.71,2.73a3.11,3.11,0,0,1,.06,2.63c-.91,1.93-3.79,2.79-3.82,2.8s3.19-.55,4.16-2.64a3.41,3.41,0,0,0-.05-2.94C54.25,135.15,53.24,134.16,52,134Z"/><path class="cls-22" d="M51.2,137.51a1.2,1.2,0,1,0,1.2,1.2A1.2,1.2,0,0,0,51.2,137.51Z"/><path class="cls-9" d="M232,182.52c-2.15-1.62-12.6,3.17-12.6,7.23,1.84.32,6.46-4.06,13.24-2.95C232.61,186.8,234.13,184.14,232,182.52Z"/><path class="cls-8" d="M230.8,184.21c.48-.19,1.65-.8,1.65-1.23a3.53,3.53,0,0,0-.48-.46c-2.15-1.62-12.6,3.17-12.6,7.23h0C222.61,186.61,226.54,186,230.8,184.21Z"/><path class="cls-26" d="M225.91,139.45s11.33,13.12,11.22,28.12-5.69,12.53-5.61,16.87,5.64,6.85,14.41,5.27,14.19-5.1,16.18-11.51,4.15-30.84-7.17-49.29C242.82,129.78,225.91,139.45,225.91,139.45Z"/><path class="cls-11" d="M256.05,176.2c6.73-14.82-1.2-32.86-11.42-44.85a114.73,114.73,0,0,0-18.72,8.31s11.33,13.12,11.22,28.11-5.69,12.53-5.61,16.86a4.71,4.71,0,0,0,1.63,3.48C242.38,189.23,252.17,184.75,256.05,176.2Z"/><path class="cls-9" d="M234.42,184.7c-6.75,3-10.1,8.14-9.78,11.33,2.28-2.34,9.67-7,11.8-6.7C236.44,189.33,238.56,185.39,234.42,184.7Z"/><path class="cls-8" d="M235.8,187.2c.82-1.58-.79-2.1-1.86-2.27-6.42,3-9.61,8-9.3,11.1l.08-.08C225.86,191.28,234.72,189.29,235.8,187.2Z"/><path class="cls-9" d="M240.21,186.72c-3.56.75-6.59,10.16-5.79,11.54,2.1-1.89,6.22-7.09,10.1-8.49C244.52,189.77,244,186,240.21,186.72Z"/><path class="cls-8" d="M242.22,188.44a2.57,2.57,0,0,0-2.63-1.5c-3.28,1.61-5.92,10-5.17,11.32l.24-.23C237,192.31,243.31,190.66,242.22,188.44Z"/><path class="cls-9" d="M247.57,186.63c-2.57,2.64-3.9,8.28-3,9.4,2-2.64,3.61-5.67,6-7.29A2.67,2.67,0,0,0,247.57,186.63Z"/><path class="cls-8" d="M247.35,186.87c-2.43,2.74-3.66,8.07-2.83,9.16h0c.4-3.45,4.55-6.49,4.38-7.95A1.36,1.36,0,0,0,247.35,186.87Z"/></g></g></svg>