<svg id="Layer_1" data-name="Layer 1" xmlns="http://www.w3.org/2000/svg" viewBox="0 0 256 256"><defs><style>.cls-1{fill:#ff3b05;}.cls-2{fill:#d95c00;}.cls-3{fill:#eb8500;}.cls-4{fill:#47170a;}.cls-5{fill:#fff;}.cls-6{fill:#ffd154;}.cls-7{fill:#ffb32b;}.cls-8{fill:#ffe680;}.cls-9{fill:#ff991f;}.cls-10{fill:#e87300;}.cls-11{fill:#d40000;}.cls-12{fill:#5889d9;opacity:0.2;}</style></defs><path class="cls-1" d="M119.82,37.85c-.8-2.84-.8-10.43-1.14-13.61,5.37,10,13.77,10.45,21.35-1,.77,10.78,10.45,15.4,21.05,6-5.72,10.55-2.58,17.74,12.52,16.71-9.8,6.41-10.06,15.72,1.61,19.66-12.39,5.5-13,10.87-3,21.12-12.41-1-18.32,8.18-11.46,19.29-16.17,2.92-20.94,11.71-5.83,16.49-5.73,5.15-3.74,21.35,12.57,19.8-6,6.67-3.83,12.9,6.66,12.85-4.69,5.54-3.9,13.58,5.23,16.89-7.55,4.42-6.71,10.83.29,15.82-5.52,2-9.83,12.12-1.25,19.08-9.86.62-12.74,5.74-10.2,14.82-7.65-2.57-13.12.53-12.35,9.08-5.9-3.7-11.81-2.76-14.91,2-4-3.11-10.81-.24-20.44-4.18,5.35-4.71,34.2-5.72,37.18-25.93s-7.74-46.66-28-68.71,14.2-38.73,20.71-65.07S121.29,43,119.82,37.85Z"/><path class="cls-2" d="M146.5,134.88C124.52,105.64,159,88.8,159,63.33c0-27.08-46.16-42.62-55.44-4.27-2.09.66-4.16,3.46-14.94,3.46-4,0-6.56-1.21-9.61-1.44-4.53-.33-2.46,14.69,1.22,16.35,6.71,3,8.57.53,14.06-.19,5.67-.73,13.69,7,32.61-1.43,8.83,2.43,1.55,15.57-20.32,26s-25.09,42.27,5.3,57.41c44.61,22.24,35.48,56.1,15.91,56.1-15.08,0-43.44-21.35-17.89-51-6.41,2.2-17.23,8.31-20.1,23.77s13.32,41.23,37.25,41.23c26.63,0,38.06-12.22,42.25-34.75C174.09,168.53,154.69,145.78,146.5,134.88Z"/><path class="cls-3" d="M146.5,134.88C124.52,105.64,159,88.8,159,63.33c0-27.08-46.16-42.62-55.44-4.27-2.09.66-4.16,3.46-14.94,3.46-4,0-6.56-1.21-9.61-1.44C74.43,60.75,78,74,81.72,75.62c6.72,3,7.76.2,13.25-.51,2.14-.28,4.69.71,8,1.61,5.21,1.39,12.36,2.53,23-1.68.69-.27,15.21-6.26,15.93-6.58,1.33.37-11.55,6.7-11,7.57,3.14,4.91-.21,14.91-24.39,25.73-22.09,9.88-25.4,42.91,5.3,57.41,50.5,23.86,35.48,56.1,15.91,56.1-15.08,0-43.44-21.35-17.89-51-6.41,2.2-17.23,8.31-20.1,23.77s13.51,39.61,37.43,39.61c26.64,0,37.88-10.6,42.07-33.13C174.09,168.53,154.69,145.78,146.5,134.88Z"/><path class="cls-2" d="M126.52,52.4c4.08-.77-5.68,6.82-8.19,7.75s-7.42-.21-7.75-1.24,1.14-6.39,3.64-7.36C120.94,49,122.43,53.17,126.52,52.4Z"/><path class="cls-4" d="M120.5,55.6a3.87,3.87,0,1,1-3.86-3.86A3.87,3.87,0,0,1,120.5,55.6Z"/><path class="cls-5" d="M115,55.48c-.24.51-.69.8-1,.65s-.39-.68-.16-1.19.69-.8,1-.65S115.27,55,115,55.48Z"/><path class="cls-5" d="M116.16,53.53a.38.38,0,1,1-.38-.38A.38.38,0,0,1,116.16,53.53Z"/><path class="cls-6" d="M111.83,159.17c-31.06-28.11,4.13-56.83-5.3-57.41C84.44,111.64,81.13,144.67,111.83,159.17Z"/><path class="cls-7" d="M98.69,107.28c.11.92,3.15,3.57,7,1.76a20.4,20.4,0,0,1-1.75,3.45c-.07-1.84-5.09-3.47-7.71-2.58C96.91,109.14,98.69,107.28,98.69,107.28Z"/><path class="cls-7" d="M91.27,118.09c.35.88,6.17,2.89,10.22.31-.27.69-.89,2.36-1.29,3.8-.54-1.78-7.11-2.45-9.9-1A24.59,24.59,0,0,1,91.27,118.09Z"/><path class="cls-7" d="M89.75,132.16c.57.73,6.72.92,9-2.62a13.81,13.81,0,0,0-.11,3.93c-1-1.53-6.56-.28-8.25,1.82A21,21,0,0,1,89.75,132.16Z"/><path class="cls-7" d="M95.17,145.66c.67.57,5.35-.11,5-3.15A17.55,17.55,0,0,0,101.6,146c-1.32-1.22-4.32.51-4.28,2.33A17.85,17.85,0,0,1,95.17,145.66Z"/><path class="cls-8" d="M104.24,103.22c-1.09.61-2,1.43-3,2.14a3.64,3.64,0,0,0-1.32,1.17,1.15,1.15,0,0,0,.4,1.31,4.06,4.06,0,0,0,3.68.93c.46-.11.91-.36.72-.9s-.75-1-1-1.58a1.55,1.55,0,0,1,.43-1.58,6.66,6.66,0,0,0,1-1.53c0-.12.09-.25.14-.37a1.19,1.19,0,0,0-.33,0Z"/><path class="cls-8" d="M96.57,119.09a20.83,20.83,0,0,0-2.49-.27c-.65,0-1.56,0-2-.66-.67-1.1.47-2.61.94-3.57.33-.67.68-1.32,1.07-2a5.28,5.28,0,0,1,2.53-2.21,4.6,4.6,0,0,1,2.21-.16c.52.1,1,.41.33.76s-1.48.42-2.13.82A3.22,3.22,0,0,0,96,113.26a2.81,2.81,0,0,0,.78,3.68,15.72,15.72,0,0,1,1.72,1c.53.45.55.9-.18,1.06l-.57.08Z"/><path class="cls-8" d="M98.8,122.3c-2-.76-4.42-1.72-6.53-1s-2,3-2.18,4.8a11.26,11.26,0,0,0,.1,3.28c.1.43.46,1.92,1.17,1.68s.73-2,.8-2.59c.12-1,.22-2.24,1.2-2.74,1.74-.9,4.4.45,5.26-2,.07-.21.12-.42.18-.64Z"/><path class="cls-8" d="M96.52,133.85c-1.47.08-3.37.2-4.58,1.15s-.48,2.8,0,4c.28.67.61,1.31.93,2,0,.22.51,1,.78,1,.16-1.43-.39-3,.09-4.36s1.84-1.54,3.06-2.2c.64-.34,1-1.09.35-1.6Z"/><path class="cls-8" d="M99.65,150.27a4.27,4.27,0,0,1-1.18-2.08,2,2,0,0,1,1.37-2,1,1,0,0,1,1.2.42c.32.76.68,1.51.94,2.29.18.54.7,2.19.08,2.56-.4.24-1-.09-1.31-.33Z"/><path class="cls-9" d="M78,67.89c-.52-2.3-.79-5.24-.11-5.75,1.76-1.31,3.81.14,5.69.47a35,35,0,0,0,6.46.55,35.26,35.26,0,0,0,6.5-.39,22.83,22.83,0,0,0,5.72-1.42c2-1,2.57-2.72,3.57-4.58a4.65,4.65,0,0,0,.88,3.29A3.76,3.76,0,0,0,108,61c.4.2,1.34.24,1.15.88a33.87,33.87,0,0,1-3.27.94,20.72,20.72,0,0,0-3.46.45c-.85.33-1.26,1.34-1.82,2A5.24,5.24,0,0,1,98.05,67a7,7,0,0,1-3.49-.22c-1.25-.27-2.54-.43-3.8-.62a40.24,40.24,0,0,0-7.43-.57,4.34,4.34,0,0,0-3.13,1.52,3.67,3.67,0,0,0-.63,1.62c-.08.55.11,1.38-.63,1.51l-.3-.3a1,1,0,0,0-.23-.5Z"/><path class="cls-9" d="M130.56,36.74c5.31.26,15.56,1.8,24.5,14.77-2.08-2.68-5.47-2.79-8.3-4.68-1.43-1-2.63-2.21-4.07-3.15s-2.83-.76-4.45-.35a8.58,8.58,0,0,1-4.79-.15,15.56,15.56,0,0,0-5.67-.68,22.82,22.82,0,0,0-6,1.22c-1.73.64-7.38-.3-15,7C113.45,39,122.39,36.33,130.56,36.74Z"/><path class="cls-10" d="M99.83,73.86a35.47,35.47,0,0,0,8.25,2.28,29.61,29.61,0,0,0,9.58-.26,47.77,47.77,0,0,0,8.69-3.16c2.94-1.24,5.83-2.46,8.68-3.9a39,39,0,0,1,8.65-3l1-.25c-3,0-5.77.2-8.4-1.43a14.9,14.9,0,0,0-8.48-2.69c-3.2.09-5.06,1.94-7,4.26-1.63,2-3.29,3.93-5.64,5-2.67,1.25-5.68,1.25-8.56,1.57l-1.06.11Z"/><path class="cls-5" d="M94.07,117.1c-.12.62-.55,1.06-.95,1s-.64-.64-.52-1.27.55-1,1-1S94.19,116.48,94.07,117.1Z"/><path class="cls-5" d="M101.2,106.43c-.29.28-.6.43-.71.33s.05-.42.33-.7.6-.44.71-.34S101.48,106.14,101.2,106.43Z"/><path class="cls-5" d="M91.71,123.86c-.14.68-.45,1.18-.69,1.13s-.34-.64-.2-1.31.46-1.19.7-1.14S91.85,123.18,91.71,123.86Z"/><path class="cls-5" d="M91.06,126.93c0,.33-.14.59-.3.59s-.3-.26-.3-.59.13-.58.3-.58S91.06,126.61,91.06,126.93Z"/><path class="cls-5" d="M92.65,137.13c.22.52.21,1,0,1.12s-.61-.24-.83-.75-.21-1,0-1.13S92.43,136.61,92.65,137.13Z"/><path class="cls-5" d="M99.39,148.67c.17.23.22.47.12.55s-.33,0-.5-.26-.23-.46-.12-.54S99.22,148.45,99.39,148.67Z"/><path class="cls-5" d="M81.11,63c0,.3-.6.55-1.34.55s-1.34-.25-1.34-.55.6-.55,1.34-.55S81.11,62.65,81.11,63Z"/><path class="cls-5" d="M119.8,39.49c.16.3-.52,1-1.52,1.51s-1.94.73-2.1.43.52-1,1.52-1.51S119.64,39.19,119.8,39.49Z"/><path class="cls-5" d="M123.4,38.09c.06.19-.23.48-.66.63s-.84.12-.9-.07.22-.47.65-.62S123.33,37.9,123.4,38.09Z"/><path class="cls-5" d="M97.16,175.78c-1,1.33-1.91,2.26-2.16,2.08s.31-1.39,1.26-2.72,1.91-2.25,2.15-2.08S98.1,174.46,97.16,175.78Z"/><path class="cls-5" d="M100.65,171.08c-.26.36-.58.56-.72.46s0-.47.22-.82.58-.56.72-.46S100.9,170.73,100.65,171.08Z"/><path class="cls-2" d="M129.44,125c.37-2.75,6.77-7.36,47.14-18.52,1.9,5.23-8.2,7.5-8.17,8.41s8,3.4,8.09,4.32-9.4,2.6-9.24,3.6,7.83,3.86,7.63,5.17-7.93,3.53-7.92,4.63,8.25,3.84,6.85,6.65C167.67,139.1,128,135.57,129.44,125Z"/><path class="cls-3" d="M131,123.94c.37-2.75,5.24-6.26,45.61-17.42,1.41,3.87-5.22,6.39-8.74,7.81-1.24.49-27.07,6.45-27.06,6.69s26.38-4.8,28.16-4.29c3.14.91,7.48,1.94,7.56,2.52s-5.58,1.61-9.26,2.49c-1.8.43-26.8,2.3-26.75,2.63s25.3-.45,27.21.26c3.17,1.18,7.31,2.57,7.19,3.39s-5,2.2-8,3.28c-1.39.5-26.91-3.93-26.91-3.59s25.76,5.83,27.31,6.5c2.86,1.23,6.77,2.88,5.87,4.7C167,138.72,129.55,134.46,131,123.94Z"/><path class="cls-5" d="M169.2,109.42c.13.35-1.54,1.16-3.72,1.82s-4,.91-4.18.57,1.53-1.15,3.72-1.81S169.07,109.08,169.2,109.42Z"/><path class="cls-5" d="M175.2,107.73c.07.22-.54.58-1.38.81s-1.57.24-1.65,0,.54-.57,1.38-.8S175.12,107.52,175.2,107.73Z"/><path class="cls-5" d="M150.13,115.32c.07.19-.46.49-1.17.67s-1.33.17-1.38,0,.46-.48,1.17-.66S150.07,115.13,150.13,115.32Z"/><path class="cls-5" d="M140.25,118.24a10.43,10.43,0,0,1-2.44,1.41,10.69,10.69,0,0,1-2.65,1.06,10.21,10.21,0,0,1,2.44-1.4A10.5,10.5,0,0,1,140.25,118.24Z"/><path class="cls-5" d="M156,119.14a11.36,11.36,0,0,1-4.86.67,11.3,11.3,0,0,1,4.86-.67Z"/><path class="cls-5" d="M163.43,118c0,.12-.5.3-1.15.39s-1.21.07-1.23-.06.49-.29,1.15-.39S163.41,117.84,163.43,118Z"/><path class="cls-5" d="M151.31,124.91a5.92,5.92,0,0,1-2.47.19,5.85,5.85,0,0,1-2.45-.36,5.86,5.86,0,0,1,2.47-.18A6.14,6.14,0,0,1,151.31,124.91Z"/><path class="cls-5" d="M158.81,125c0,.12-.55.21-1.21.19s-1.2-.14-1.2-.27.55-.2,1.22-.18S158.82,124.91,158.81,125Z"/><path class="cls-5" d="M156,132.52c-.06.17-1.5,0-3.21-.43s-3.05-.86-3-1,1.5,0,3.21.43S156,132.36,156,132.52Z"/><path class="cls-5" d="M165.46,134.58c-.05.14-.77.09-1.61-.11s-1.48-.46-1.43-.6.78-.09,1.62.11S165.51,134.44,165.46,134.58Z"/><path class="cls-5" d="M175.78,119.15c0,.13-.47.15-1,0s-.85-.33-.81-.47.48-.15,1,0S175.82,119,175.78,119.15Z"/><path class="cls-5" d="M173.87,127.65c-.07.13-.5.07-1-.12s-.77-.46-.7-.59.5-.07.95.12S173.93,127.52,173.87,127.65Z"/><path class="cls-5" d="M173,137.69a.37.37,0,0,1-.12.53.44.44,0,0,1-.52-.28.37.37,0,0,1,.12-.53A.45.45,0,0,1,173,137.69Z"/><path class="cls-9" d="M127.19,216a27.43,27.43,0,0,0,9.84-2c2.82-1.22,11.68-6.81,9.55-22,12.84,37.18-34.67,36.66-45.29,6.52C112.38,215.82,123.72,216.13,127.19,216Z"/><path class="cls-10" d="M168.25,189.2c.91-6.14,1.77-19.42-21.86-52.44-1.72-2.41-15.53-1.47-17.77-8.17C135.16,158,157.77,138.91,168.25,189.2Z"/><path class="cls-10" d="M131.85,75.77c1.62,2.54,5,8.07-13,20.82,6.72-1.9,11.77-4.92,13.11-7s1.68-4.73,2.66-7.09c1-2.51,3-4,4.68-6A15,15,0,0,0,143.14,69S132.28,74.91,131.85,75.77Z"/><path class="cls-5" d="M132.94,31.12a7.82,7.82,0,0,1-8.87,0,9.57,9.57,0,0,0,8.87,0Z"/><path class="cls-5" d="M154.88,34A7.84,7.84,0,0,1,146,34a9.61,9.61,0,0,0,8.87,0Z"/><path class="cls-5" d="M164.55,76.48a7.81,7.81,0,0,1,3.64-8.09,12.16,12.16,0,0,0-2.81,3.6A11.8,11.8,0,0,0,164.55,76.48Z"/><path class="cls-5" d="M157.94,92.32a8.72,8.72,0,0,1,2.92-3.93,8.61,8.61,0,0,1,4.58-1.72,13,13,0,0,0-4.4,2A13.29,13.29,0,0,0,157.94,92.32Z"/><path class="cls-5" d="M165.74,142.6a9.32,9.32,0,0,1-4.62.2,9,9,0,0,1-4.18-2.23,15.07,15.07,0,0,0,4.29,1.79A17.8,17.8,0,0,0,165.74,142.6Z"/><path class="cls-5" d="M171.68,155.46a7.74,7.74,0,0,1-3.39-.35,7.49,7.49,0,0,1-2.94-1.87,12.73,12.73,0,0,0,3.05,1.6A15,15,0,0,0,171.68,155.46Z"/><path class="cls-5" d="M177.83,172.1a9.2,9.2,0,0,1-3.05-1.46,8.74,8.74,0,0,1-2.33-2.55,15.24,15.24,0,0,0,2.48,2.36A16.8,16.8,0,0,0,177.83,172.1Z"/><path class="cls-5" d="M168.91,209.29a9.1,9.1,0,0,1,2.86-1.81,8.39,8.39,0,0,1,3.39-.62,15.2,15.2,0,0,0-3.31.85A16.91,16.91,0,0,0,168.91,209.29Z"/><path class="cls-5" d="M170,46.88a12.63,12.63,0,0,1-4.85-.28,7.87,7.87,0,0,1-3.94-1.86,30.74,30.74,0,0,0,4.07,1.45C167.74,46.72,170.07,46.75,170,46.88Z"/><path class="cls-5" d="M155.35,106.7a14.88,14.88,0,0,1-3.28,1.4c-1.71.64-3.45,1.72-3.5,1.57a8.27,8.27,0,0,1,3.29-2.13A9.57,9.57,0,0,1,155.35,106.7Z"/><path class="cls-5" d="M158.22,106c0,.07-.34.2-.79.29s-.82.11-.84,0,.34-.21.79-.3S158.2,105.91,158.22,106Z"/><path class="cls-5" d="M178.09,187.2a5.3,5.3,0,0,1-1.12-.94,5.39,5.39,0,0,1-1-1.08,4.74,4.74,0,0,1,1.12.93A5.28,5.28,0,0,1,178.09,187.2Z"/><path class="cls-5" d="M166.93,220.71c0,.1-.49,0-1-.09s-1-.34-.94-.43.49-.05,1,.09S167,220.62,166.93,220.71Z"/><path class="cls-11" d="M135.78,33.76c-1.26,1-6.41,1.79-7.61,2.05,2.71-.14,10.61-.15,16.22,4.06a3.72,3.72,0,0,0-1.49-2.1c-.71-.52-1.47-1-2.14-1.55a7.18,7.18,0,0,1-2-4.41,19,19,0,0,1-.3-3S137.17,32.63,135.78,33.76Z"/><path class="cls-11" d="M145.55,39.66a7.49,7.49,0,0,0,4.47,0,11,11,0,0,0,3.79-1.86c.62-.45,1.21-1,1.85-1.37a8.5,8.5,0,0,0-2.34,3.79,10.65,10.65,0,0,0,.3,4.73c.23.76.49,1.51.76,2.25-.26.06-.77-.55-1-.72s-.54-.52-.8-.81c-.56-.62-1.13-1.19-1.7-1.78a14.63,14.63,0,0,0-3.76-3c-.72-.36-1.7-.65-2.15-1.36,0,0,0,0,.07,0Z"/><path class="cls-11" d="M127.35,35.45a5,5,0,0,1-2.9-.65,6.09,6.09,0,0,1-2.08-1.86,10.43,10.43,0,0,1-.72-1.21,6.64,6.64,0,0,0-.1,1c0,.39-.08.77-.16,1.15a9.05,9.05,0,0,1-.51,1.85c-.11.24-.35.63-.29.9a6.47,6.47,0,0,0,1.56-.23c.53-.08,1.06-.16,1.58-.22a26.67,26.67,0,0,1,3-.26c.26,0,.53,0,.79-.05s.61-.25.23-.31Z"/><path class="cls-11" d="M155.78,48.61a4.64,4.64,0,0,0,2.87,1.23,17.26,17.26,0,0,0,4.13.24,6.15,6.15,0,0,0,1.91-.64c-1,2.21-2.71,4.23-3.27,6.63s-.48,6,2.33,7a22.28,22.28,0,0,0,4.39.76c-1.45.51-3.1,1-4.17,2.24s-1.93,2.49-3,3.68a8.42,8.42,0,0,1-2,1.45c-.23-.64.32-1.35.48-2a7.89,7.89,0,0,0,.31-2.16c0-1.49,0-3,0-4.48a25.32,25.32,0,0,0-1.25-8.15c-.45-1.38-1.48-2.49-1.92-3.85l-.12,0a2.75,2.75,0,0,0-.82-1.13c-.26-.29-.5-.83-.88-1a1.13,1.13,0,0,0-.16-.51Z"/><path class="cls-11" d="M159,74.67a4.9,4.9,0,0,0-.16,4.6,6.82,6.82,0,0,0,3.32,3.17,9.18,9.18,0,0,1,2.13,1c-3.57-.69-8.36-2-11,1.42a11.88,11.88,0,0,0-.93,12,31.28,31.28,0,0,0,3.42,5.17c-2.68-1.05-6.35-2.88-9.14-1.23s-3.65,5.24-3.67,8.21c0,1.78.24,3.88-.52,5.54-.6,1.32-1.7,1.08-2.2-.18-1.24-3.14.89-7.16,2.11-10s3.3-5,4.51-7.74c.14-.32.27-.64.4-1l.12,0c.07-.56.65-.94.69-1.52l.12,0a5.8,5.8,0,0,1,.69-1.61c.23-.54.5-1.09.72-1.62.45-1.08.68-2.24,1.18-3.32a4.91,4.91,0,0,1,1-1.7,8.06,8.06,0,0,1,1.47-2.31c.44-.63,1.46-1.6,1.57-2.37l.12,0c.09-.58.72-1.25,1-1.79a16.82,16.82,0,0,0,.64-1.89,16.3,16.3,0,0,1,1.79-3.71,5.4,5.4,0,0,1,1.47-1.58Z"/><path class="cls-11" d="M149.21,136.87c.89,0,1.81-.05,2.7,0a14.08,14.08,0,0,0,.85,1.52c.27.51.49,1,.77,1.54.53.94,1,1.87,1.51,2.84.28.51.87.8,1.19,1.26.42,0,.83.29,1.28.34s1,.08,1.55.11c1,.06,2,0,3,0a5.83,5.83,0,0,0,1.62-.16c-1.14.83-2.62,1.46-3.56,2.52s-.74,2.79,0,4.09a22.28,22.28,0,0,0,2.47,3.47,6.2,6.2,0,0,0,3.28,2.27,18.6,18.6,0,0,0,5.16.35,16.12,16.12,0,0,0-3.54,1.85c-.93.82-1,2.35-1.06,3.51,0,.81,0,1.61,0,2.42-.35-.26-.54-1-.71-1.35-.24-.55-.51-1.08-.79-1.61-.54-1-1-2.09-1.49-3.11-1-1.9-2.07-3.69-3.23-5.48-.55-.84-1.17-1.63-1.69-2.5s-.92-1.76-1.36-2.67a29,29,0,0,0-3.25-4.89c-1.15-1.49-2.16-3.08-3.4-4.49-.13-.16-.29-.28-.41-.45Z"/><path class="cls-11" d="M167.43,167.51c.15.66.65,1.18.78,1.81l.09,0c.58,1.78,3,2.69,4.64,3a13.17,13.17,0,0,0,1.77.22c-.43.64-1.28.92-1.85,1.44a5,5,0,0,0-1.16,1.76,13.85,13.85,0,0,0-.52,5.21,11.12,11.12,0,0,1-.71,3c-.12-.6-.42-6.24-.56-7.48-.25-2.21-1.35-4.45-2-6.52-.2-.58-.49-1.11-.7-1.67s-.27-1.21-.46-1.78Z"/><path class="cls-11" d="M173.13,187.09c.59.45,1.7.37,2.32.57-.91.68-2.23.53-3,1.33a6.36,6.36,0,0,0-1.47,3c-.52,2.07-2,9.88,2.15,12.47-2.33-.08-4.16,0-5.5,2.12a12.22,12.22,0,0,0-1.66,6.44c0,1.3-.19,2.59-.22,3.89-.6.07-1.13-.31-1.8-.32a4.26,4.26,0,0,0-1.92.29c-1,.47-2.29,1.79-3.22,2.11a35.92,35.92,0,0,0,6.2-9.29c.48-1.07,3.2-7.36,3.52-8.57a32.91,32.91,0,0,0,.66-4.07c.16-1.26.74-2.33.88-3.56.17-1.42.38-2.78.56-4.18a37.84,37.84,0,0,0-.11-4.75Z"/><path class="cls-11" d="M140.4,231.18c.89-.81,2.71-2.48,3.35-2.89,1.46-.93,6.94-1.31,10.45,0,.83-1.67.51-3.15,1.29-3.9a15.16,15.16,0,0,0,3.27-5.18,36.46,36.46,0,0,1-10.31,7.06c-1.48.53-3,.82-4.57,1.24s-3,.74-4.44,1.1a32.35,32.35,0,0,1-4.59.67c-1.51.14-3.91.23-5.13.43C131.09,229.89,136.48,229.47,140.4,231.18Z"/><path class="cls-5" d="M132.18,216.25c0,.18-.85.43-1.94.55s-2,.08-2-.1.85-.43,1.94-.56S132.16,216.06,132.18,216.25Z"/><path class="cls-5" d="M137.79,214.78c0,.13-.32.36-.8.52s-.92.19-1,.06.31-.36.8-.52S137.75,214.65,137.79,214.78Z"/><path class="cls-2" d="M155.78,57.5c.14.84-.07,1.58-.47,1.65s-.83-.57-1-1.42.07-1.59.47-1.65S155.64,56.65,155.78,57.5Z"/><path class="cls-2" d="M153.11,70.94c-.29.81-.83,1.36-1.2,1.22s-.46-.9-.18-1.71.83-1.36,1.21-1.22S153.39,70.13,153.11,70.94Z"/><path class="cls-2" d="M150.6,83.53c-.28.81-.82,1.36-1.2,1.22s-.46-.9-.17-1.71.82-1.35,1.2-1.22S150.89,82.72,150.6,83.53Z"/><path class="cls-2" d="M156.55,62.88c.06.43,0,.81-.24.84s-.43-.29-.5-.72,0-.8.24-.84S156.47,62.45,156.55,62.88Z"/><path class="cls-2" d="M156.53,68.49c-.12.42-.38.71-.57.66s-.26-.44-.14-.86.38-.71.58-.66S156.66,68.08,156.53,68.49Z"/><path class="cls-2" d="M147.07,89.94c-.13.42-.38.71-.58.66s-.26-.45-.13-.87.38-.71.57-.65S147.19,89.53,147.07,89.94Z"/><path class="cls-2" d="M143.87,96.25c-.14.31-.36.51-.51.44s-.15-.36,0-.67.36-.5.51-.44S144,96,143.87,96.25Z"/><path class="cls-2" d="M140.76,99.15c-.26.58-.7,1-1,.84s-.29-.7,0-1.28.69-1,1-.85S141,98.56,140.76,99.15Z"/><path class="cls-2" d="M136.88,116.77c0,.64-.33,1.14-.63,1.12s-.51-.55-.46-1.19.32-1.15.62-1.13S136.92,116.13,136.88,116.77Z"/><path class="cls-2" d="M140.65,102.68c-.15.46-.45.78-.67.71s-.27-.51-.12-1,.46-.78.68-.71S140.8,102.22,140.65,102.68Z"/><path class="cls-2" d="M138.6,107.33c-.07.49-.31.85-.53.82s-.36-.45-.29-.93.3-.85.53-.82S138.66,106.85,138.6,107.33Z"/><path class="cls-2" d="M133.62,107.78c-.07.48-.3.85-.53.81s-.36-.44-.29-.93.3-.85.53-.82S133.69,107.29,133.62,107.78Z"/><path class="cls-2" d="M138.06,111.48c-.05.36-.22.63-.39.61s-.26-.33-.22-.69.23-.63.4-.61S138.11,111.13,138.06,111.48Z"/><path class="cls-2" d="M134.73,102.79c0,.36-.23.63-.4.61s-.26-.33-.21-.69.22-.63.39-.61S134.77,102.43,134.73,102.79Z"/><path class="cls-2" d="M131.23,109.55c0,.35-.22.63-.39.6s-.26-.33-.21-.69.22-.63.39-.6S131.28,109.19,131.23,109.55Z"/><path class="cls-2" d="M133.4,111.82c-.05.36-.22.63-.39.61s-.26-.33-.21-.69.22-.63.39-.61S133.45,111.46,133.4,111.82Z"/><path class="cls-2" d="M136.13,110.38c0,.35-.22.62-.39.6s-.26-.33-.21-.69.22-.63.39-.6S136.18,110,136.13,110.38Z"/><path class="cls-2" d="M166.72,193.4c0,.64-.18,1.18-.48,1.2s-.57-.49-.61-1.13.17-1.18.47-1.19S166.68,192.76,166.72,193.4Z"/><path class="cls-2" d="M161.93,175.41c.24.59.21,1.17-.07,1.28s-.7-.28-.94-.88-.21-1.17.07-1.28S161.69,174.81,161.93,175.41Z"/><path class="cls-2" d="M155.85,167c.31.56.35,1.14.09,1.28s-.73-.19-1-.75-.35-1.13-.09-1.28S155.54,166.46,155.85,167Z"/><path class="cls-2" d="M156.47,161.8c.28.52.32,1,.08,1.18s-.67-.17-1-.69-.32-1-.08-1.18S156.18,161.29,156.47,161.8Z"/><path class="cls-2" d="M151.4,157.22c.39.44.53.95.32,1.13s-.69,0-1.08-.47-.53-1-.32-1.14S151,156.77,151.4,157.22Z"/><path class="cls-2" d="M159.55,168.68c.37.93.32,1.82-.11,2s-1.1-.44-1.47-1.37-.32-1.82.12-2S159.18,167.76,159.55,168.68Z"/><path class="cls-2" d="M158.44,173.67c.17.41.14.82-.05.9s-.5-.2-.66-.62-.15-.82.05-.9S158.27,173.25,158.44,173.67Z"/><path class="cls-2" d="M153.93,163.9c.22.39.25.8.06.9s-.51-.14-.73-.53-.24-.8-.06-.9S153.72,163.5,153.93,163.9Z"/><path class="cls-2" d="M166.57,197.19c-.16.46-.46.78-.67.71s-.27-.51-.12-1,.45-.78.67-.71S166.72,196.73,166.57,197.19Z"/><path class="cls-2" d="M165.42,188c.08.48,0,.9-.26.94s-.48-.32-.56-.8,0-.9.27-.94S165.34,187.5,165.42,188Z"/><path class="cls-2" d="M164.51,201.84c-.06.49-.3.85-.53.82s-.35-.45-.29-.93.31-.85.53-.82S164.58,201.36,164.51,201.84Z"/><path class="cls-2" d="M160,206.71c-.14.47-.42.8-.64.74s-.3-.49-.17-1,.42-.8.64-.74S160.08,206.24,160,206.71Z"/><path class="cls-2" d="M164,206c0,.36-.23.63-.4.61s-.26-.33-.21-.69.22-.63.39-.61S164,205.64,164,206Z"/><path class="cls-2" d="M163.66,197.1c0,.36-.23.63-.39.61s-.27-.34-.22-.69.23-.63.4-.61S163.71,196.74,163.66,197.1Z"/><path class="cls-2" d="M164.29,181.35c.06.36,0,.67-.19.7s-.35-.24-.41-.59,0-.67.19-.7S164.23,181,164.29,181.35Z"/><path class="cls-2" d="M160.6,212.39c-.18.32-.45.5-.59.41s-.12-.4.06-.71.45-.5.59-.41S160.78,212.08,160.6,212.39Z"/><path class="cls-2" d="M162.68,209.36c-.09.35-.28.6-.45.57s-.23-.36-.15-.71.28-.61.44-.57S162.75,209,162.68,209.36Z"/><path class="cls-2" d="M162.05,204.89c-.05.35-.23.62-.4.6s-.26-.33-.21-.69.22-.63.39-.6S162.1,204.53,162.05,204.89Z"/><path class="cls-2" d="M138.38,114.57c0,.36-.23.63-.39.6s-.27-.33-.22-.69.23-.62.39-.6S138.43,114.21,138.38,114.57Z"/><path class="cls-2" d="M151.13,77.72c-.12.42-.38.71-.57.65s-.26-.44-.14-.86.38-.71.58-.65S151.26,77.3,151.13,77.72Z"/><path class="cls-2" d="M154,60.41c.1.64,0,1.19-.35,1.24s-.62-.43-.73-1.06.06-1.19.36-1.24S153.94,59.78,154,60.41Z"/><path class="cls-2" d="M154.8,74.45c-.19.61-.58,1-.87,1s-.37-.66-.18-1.27.57-1,.86-1S155,73.83,154.8,74.45Z"/><path class="cls-2" d="M152.28,53.78c.14.51.06,1-.18,1s-.55-.3-.69-.81-.06-1,.18-1.05S152.14,53.27,152.28,53.78Z"/><path class="cls-12" d="M179.63,187.8c-7-5-7.84-11.4-.29-15.82-9.13-3.31-9.92-11.35-5.23-16.89-10.49,0-12.63-6.18-6.66-12.85-6.77.65-11.07-1.78-13.37-5.19a173.77,173.77,0,0,0,19.74,2.25c1.4-2.81-6.84-5.55-6.85-6.65s7-3.12,7.83-4.45a.38.38,0,0,0,.09-.18.36.36,0,0,0,0-.17c-.4-1.37-7.45-4-7.6-5s8.53-2.53,9.18-3.47a.16.16,0,0,0,.06-.13.26.26,0,0,0-.07-.12c-.69-1-8-3.33-8-4.2s10.07-3.18,8.17-8.41c-14.22,3.93-24,6.91-30.78,9.24-.72-4,4.91-8,14.91-9.81-6.86-11.11-1-20.24,11.46-19.29-9.93-10.25-9.35-15.62,3-21.12-11.67-3.94-11.41-13.25-1.61-19.66-15.1,1-18.24-6.16-12.52-16.71-10.6,9.44-20.28,4.82-21.05-6-7.58,11.48-16,11-21.35,1,.34,3.18.34,10.77,1.14,13.61h0c-7.29,2.89-13.5,9.56-16.32,21.2-2.09.66-4.16,3.46-14.94,3.46-4,0-6.56-1.21-9.61-1.44a1.61,1.61,0,0,0-1.38.53C75,64.26,77,76,80.18,77.43c6.71,3,8.57.53,14.06-.19,5.67-.73,13.69,7,32.61-1.43,8.83,2.43,1.55,15.57-20.32,26-22.09,9.88-25.4,42.91,5.3,57.41,44.61,22.24,35.48,56.1,15.91,56.1-15.08,0-43.44-21.35-17.89-51-6.41,2.2-17.23,8.31-20.1,23.77-.09.49-.16,1-.22,1.48-1.48,14.06,11.37,35.15,31,39.1h0c9.63,3.94,16.47,1.07,20.44,4.18,3.1-4.77,9-5.71,14.91-2-.77-8.55,4.7-11.65,12.35-9.08-2.54-9.08.34-14.2,10.2-14.82C169.8,199.92,174.11,189.76,179.63,187.8Z"/></svg>