<svg id="Layer_1" data-name="Layer 1" xmlns="http://www.w3.org/2000/svg" viewBox="0 0 256 256"><defs><style>.cls-1{opacity:0.3;}.cls-2,.cls-8{fill:#c7c2b5;}.cls-18,.cls-19,.cls-2,.cls-3,.cls-4,.cls-7{stroke:#333;stroke-miterlimit:10;}.cls-3,.cls-6{fill:#f4f0df;}.cls-4,.cls-9{fill:#df771f;}.cls-5,.cls-7{fill:#ff912a;}.cls-10{fill:#2c1f21;}.cls-11{fill:#ffdd7c;}.cls-12{fill:#ceb062;}.cls-13{fill:#613e40;}.cls-14{fill:#2e1e20;}.cls-15{fill:#4a9544;}.cls-16{fill:#347230;}.cls-17{fill:#fff;}.cls-18,.cls-19{fill:none;}.cls-19{stroke-width:0.99px;}</style></defs><ellipse class="cls-1" cx="128" cy="235.21" rx="120" ry="17.16"/><path class="cls-2" d="M47.57,234.44c.38-5.47,3-12.15,7.08-13.76l.62-.25-.66-.07a11.46,11.46,0,0,0-3.26.08c-4.25.77-7.33,7.61-7.75,13.51a5.62,5.62,0,0,0,1.75,4.91,7.7,7.7,0,0,0,5,1.82l.1-.31a6.18,6.18,0,0,1-1-.72A6,6,0,0,1,47.57,234.44Z"/><path class="cls-2" d="M53.58,237.52c-.81-2.49,1.86-9.88,3.15-12a8.12,8.12,0,0,1,4.85-3.42L62,222l-.36-.21a10,10,0,0,0-6.91-1.13c-3.91.79-6.75,7.75-7.13,13.75a6.06,6.06,0,0,0,1.61,5c1.59,1.54,4,1.86,5.81,1.86h.6l.13.07.18-.29A6.9,6.9,0,0,1,53.58,237.52Z"/><path class="cls-3" d="M49.53,87.43s1,8.82-1.59,22.21,13.3,36.28,13.3,36.28l33.34-4.52L100.68,81,88.25,71.47,65.66,72.54Z"/><path class="cls-4" d="M90.69,169l0,.13c-.34,2.1-2.07,12.94-2.38,20.23l0,.48c-.05,1.45-.1,3.12-.15,4.91-.21,8.57-.28,20-.17,23.05a13.75,13.75,0,0,1-1.56,6,28.76,28.76,0,0,0-1.87,5.47,26.28,26.28,0,0,0-.41,3.84c-.15,3-.28,5.52-3.15,7.21l-.12.07a16.72,16.72,0,0,0-1-4.47c-.1-.27-.2-.53-.31-.79s-.29-.7-.45-1-.22-.46-.34-.64a1.51,1.51,0,0,0-.09-.18c-.06-.08-.12-.21-.15-.25-.21-.39-.42-.77-.65-1.14-2.79-4.76-7.48-9.14-13.15-9.9a9.23,9.23,0,0,0-1.18-.08h-.71l.17-.27a2.2,2.2,0,0,0,.27-.64l0-.09.09,0a12.6,12.6,0,0,1,3.56-.5c.4,0,.79,0,1.15,0a13.38,13.38,0,0,0-1.9-.13,12.8,12.8,0,0,0-2.62.27l-.23.05,0-.24c.12-1.17.28-2.77.42-4.52.07-.85.13-1.73.18-2.6.1-1.55.15-3.09.13-4.42,0-.44,0-.89-.08-1.36a31.82,31.82,0,0,0-.69-4.12c-.48-2.18-1.17-4.73-2-7.81-1-3.62-2.16-8-3.46-13.47l-.9-3.89c-.45-2-.85-3.93-1.2-5.73-.08-.43-.16-.85-.25-1.27h0c-.7-3.77-1.21-7-1.61-9.84-.18-1.27-.34-2.46-.49-3.56,0-.14,0-.28,0-.41-.37-2.75-.66-4.9-1-6.48s-1-3.84-1.74-6.48c-.64-2.26-1.34-4.77-2-7.25a85.69,85.69,0,0,1-1.94-9c0-.1,0-.2,0-.31-.66-5.17-.08-12.54,1.76-21.92.17-.86.34-1.68.5-2.45l.33,0c-.64,14.75,5.14,27.36,10.23,36.69l.05.08c1.32,2.43,5.06,9.16,8.21,13.73a1.13,1.13,0,0,0,.1.13,26.32,26.32,0,0,0,2.65,3.38c3.57,3.62,6.5,5.84,13.52,8.6,2.13.85,4.35,1.77,6.6,2.76Z"/><path class="cls-5" d="M46.66,128.2a82.32,82.32,0,0,0,1.82,8.49c.42-.56-.54-5.45-.54-5.45s8.55,5.11,10.67,7.29c-4.55-8.9-10-22-9.4-35l-.33,0c-.16.77-.33,1.59-.5,2.45-1.84,9.38-2.42,16.75-1.76,21.92C46.64,128,46.64,128.1,46.66,128.2Z"/><path class="cls-5" d="M76.92,230.45a38.43,38.43,0,0,0,.33-9.84,36.43,36.43,0,0,0-2.87-11.83c-1.25-2.61-3.5-4.95-6.69-4.2a7.72,7.72,0,0,0-3.78,2.33c0,.19.05.39.07.57.05.47.07.92.08,1.36,0,1.33,0,2.87-.13,4.42,0,.87-.11,1.75-.18,2.6-.14,1.75-.3,3.35-.42,4.52l0,.24,0,.3,0,.09a2.2,2.2,0,0,1-.27.64l-.17.27h.71a9.23,9.23,0,0,1,1.18.08C69.78,222.66,74.08,226.28,76.92,230.45Z"/><path class="cls-2" d="M78.9,232.66a24.72,24.72,0,0,0-3.15-4.55c-3.71-4.31-8.16-6.69-12.53-6.69h-.59a7.75,7.75,0,0,0-6,3.62c-1.32,2.15-4,9.82-3.25,12.19A6.53,6.53,0,0,0,59,242.13a50.58,50.58,0,0,0,8.19.58h0c3.59,0,8.67-.29,12.52-1.66a11.62,11.62,0,0,0,1.47-.64l.06,0a17.09,17.09,0,0,0-2.16-7.46A1.51,1.51,0,0,1,78.9,232.66Z"/><path class="cls-6" d="M53.66,220.35a9.61,9.61,0,0,0-1.19-.07,9.08,9.08,0,0,0-1.74.16c-3,.59-5.37,4.77-6.48,9.35a3.19,3.19,0,0,0,3,.66C48.29,225.92,50.12,221,53.66,220.35Z"/><path class="cls-6" d="M61.63,221.69a12.28,12.28,0,0,0-5-1.2,10.33,10.33,0,0,0-1.92.19c-3.07.62-5.47,5-6.55,9.82A7.6,7.6,0,0,0,53.63,232C54.54,226.88,57,221.37,61.63,221.69Z"/><path class="cls-6" d="M76.84,230.3c-.33-.43-1-1.24-1.39-1.67-3.58-4.16-7.88-6.45-12.09-6.45h-.57A7.47,7.47,0,0,0,57,225.68a30.82,30.82,0,0,0-2.44,6.25C57,235.17,74.58,236.48,76.84,230.3Z"/><path class="cls-2" d="M125,229.92c-.91-3-3.08-4.78-6-4.78-2.52,0-4.17,1-5,3-.94,2.2-1.16,15.68,0,18,.51,1,2.17,1.8,4.13,2,.32,0,.66.05,1,.05a6.69,6.69,0,0,0,5.26-2.09C127,243,125.85,232.74,125,229.92Z"/><path class="cls-7" d="M201,187.48c-.64-3.11-.85-4.57-1.91-11.62l-.38-2.52c-.17-1.1-.32-2.4-.45-3.89v-.16a250.43,250.43,0,0,1-.13-30.86c.17-3.24.69-8,1.24-13.13.85-7.81,1.81-16.65,1.61-20.94a18.1,18.1,0,0,0-1-4.54s0,0,0,0c-.12-.41-.27-.83-.43-1.25A59.73,59.73,0,0,0,196.64,92h0c-.33-.67-.68-1.32-1-2-3.1-5.64-7.09-11.23-10.7-14.2-.28-.22-.55-.44-.83-.63-.43-.31-.86-.61-1.3-.88a22.36,22.36,0,0,0-8.53-3.43,26.25,26.25,0,0,0-2.78-.38c-1.22-.11-2.5-.16-3.89-.16-1,0-2,0-3,.07h0c-.74,0-1.49.07-2.22.1l-3.07.2a70.71,70.71,0,0,0-7.79,1c-1.15.21-2.27.43-3.38.68-1.72.37-3.41.77-5,1.18l-.8.21c-2.5.65-4.78,1.31-6.68,1.87l-1.72.52-1.66.49c-.55.17-1,.31-1.39.4a8.47,8.47,0,0,1-2.12.24,22.52,22.52,0,0,1-6.51-1.2l-.17.27,1.19,1.18c.28.28.56.56.82.84l-.88-.81c-1.29-1.15-2.7-2.37-4-3.46-.91-.75-1.78-1.43-2.57-2a13,13,0,0,0-2.38-1.43,19.62,19.62,0,0,0-2.82-.82c-1-.21-2-.41-3.1-.57-2.65-.42-5.17-.67-6-.75h-.73l.07.93c.5,2.61.42,4.54,1.38,7.18-.27-2.26-.7-5.33-1.38-8.38-.23-1.1-.51-2.19-.81-3.24-.35-1.21-.73-2.37-1.13-3.48a69.82,69.82,0,0,0-4-9.15L95,51.56c0,.49.12,2,.09,5.39,0,0-.17.11-.3-.42l-.47-1.46v4.22c-.37,3.61-.53,7.94-4.12,11.54,2.74-4.18,1.11-2.34,1.36-3.2L90.47,69.5a15.34,15.34,0,0,1-3.94,3.85l-.11.08,0,.12a73.52,73.52,0,0,1,3.16,9.62c.2.79.38,1.63.56,2.49a57.84,57.84,0,0,1,1.11,12c0,1.38-.08,2.81-.2,4.28a2.64,2.64,0,0,1,0,.28c-.13,1.45-.3,2.94-.55,4.46a71.2,71.2,0,0,1-3.42,13.18c-3.73,10.37-.1,23,5.21,29.53l.34.42-.17-2.07c.18,1.5.37,3.15.58,4.85h0c.28,2.32.59,4.75.92,7,.44,3.05.9,5.83,1.35,7.76,1.07,4.6,2.3,10.9,3.26,17.23.3,2,.57,3.93.81,5.84.29,2.37.52,4.68.67,6.81,0,.42.06.84.11,1.28.09,1.27.2,2.6.33,4,0,.36.06.73.09,1.1l0,.13c.16,1.92.34,3.9.5,5.89,0,.38.05.75.08,1.13.05.78.11,1.55.15,2.32h0c.06.92.11,1.84.15,2.74a54.83,54.83,0,0,1-.41,11.27l0,.22.22,0,.48,0a7.43,7.43,0,0,1,3.08.77l.1,0L105,228a5.3,5.3,0,0,1,4.11-1.61c2.17,0,3.69.67,4.51,1.95l.15.23.14-.23a5.05,5.05,0,0,1,4.76-2.46A5.77,5.77,0,0,1,123,227.7l.11.12.12-.1a5.89,5.89,0,0,1,3.41-1,3.46,3.46,0,0,1,.46,0l.33,0-.17-.28c-2-3.42-2.2-5.72-2.2-10.55,0-.35,0-.74,0-1.19s0-.7,0-1.08c.13-2.63.45-6.34.91-10.54,0-.47.1-.94.16-1.43.35-3.15.77-6.55,1.26-9.95,0-.18,0-.36.07-.55.3-2,.61-4.07.95-6.06.2-1.2.4-2.45.6-3.72.1-.67.2-1.34.31-2,.31-2.09.61-4.24.88-6.39h0c.14-1,.26-1.95.38-2.94.28-2.3,1.65-4.23,1.87-6.45,0-.28-.53-1.23-.49-1.5.52-5.59,1.14-9.26,1-13,0-.35-.16-1.75-.18-2.13-.06-1.3-.28-2.81-.44-4.38-.5-4.93-3.24-19.21-3.3-20.45.71,4.1,2.2,13.24,2.93,20.35.11,1.11.27,2.89.36,4.32,0,.4,0,.8,0,1.16.05,1.62,0,3.55-.08,5.77v.14l.15,0a4.26,4.26,0,0,0,.89.09,11.79,11.79,0,0,0,4.27-1.15c4.52-1.9,8.35-3.16,12.35-3.16h.17a14,14,0,0,1,9.38,3.48l.25-.22c-.11-.15-.21-.32-.31-.47A45.36,45.36,0,0,1,163,157c3.77,5.91,8.7,14.11,10.75,19.6,4.7,12.52,4.22,26.75,3.31,32.52a30.51,30.51,0,0,1-4.72,11.79l-.12.18.21.06a5.8,5.8,0,0,1,1.54.75l.09.06.1-.06a5.65,5.65,0,0,1,2.78-1.06h.53c3.33,0,4.87,1.63,5.37,2.33l.07.08h.1a9.64,9.64,0,0,1,1.52-.12,6.15,6.15,0,0,1,5.63,2.6c.11.11.2.25.3.37a.36.36,0,0,0,.07.1l.32.46c.15.24.3.46.43.69h0a.34.34,0,0,1,.07.11l.08.12a11.81,11.81,0,0,1,1.44,3.64s.05.22.12.57a0,0,0,0,0,0,0,1.7,1.7,0,0,0,0,.22,7.08,7.08,0,0,1,.16.8c0,.24.09.5.13.77a19.46,19.46,0,0,1,.29,2l0,.52.27-.46c1-1.68,1.1-4,1.28-7.33.09-1.62.19-3.45.4-5.52a147.58,147.58,0,0,1,3.28-18.31c.25-1.12.51-2.26.78-3.46C201.35,193.31,201.69,190.89,201,187.48Z"/><path class="cls-8" d="M57.57,94.47c6.66,2.73,14.66,1.67,20.72-2.08A35.69,35.69,0,0,0,89.1,81.21a79.09,79.09,0,0,0-2.62-7.58l-.07-.19-.17.11a16,16,0,0,1-5.39,2.21c.22-.12,2.48-1.17,2.74-1.32l-.29-.37a59.14,59.14,0,0,1-11,2.85,24.46,24.46,0,0,0-12.15,5.42c-1.33,2.24-2.87,5.32-6.19,6.39a14.86,14.86,0,0,1-4.28.69h-.16A33.37,33.37,0,0,0,57.57,94.47Z"/><path class="cls-8" d="M92.83,151.87c0-.69-.13-1.48-.16-1.8v0l0-.05a30.37,30.37,0,0,1-5.71-11.21c-9.2,6.25-22.93,7-28.31-.23q.44.83.87,1.62c.07.13,6.66,14,9.81,18.1,6,7.7,26.86,12.86,26.86,12.86S93.26,156.66,92.83,151.87Z"/><path class="cls-9" d="M200.64,187.48c-.64-3.11-.85-4.57-1.91-11.62l-.38-2.52c-.17-1.1-.32-2.4-.45-3.89v-.16c-.18-2-.3-4.29-.39-6.67a23.45,23.45,0,0,1-2.83,5c-4.35,5.82-10,3.36-14.52-1-8.42-8.15-12.92-24.26-26.88-23.16-3.58.28-13.83,2.36-19.65.27a102.53,102.53,0,0,0-4.38-19.27s0,0,0,0c.83,6.14,1.72,12.3,2.67,18.42l-.17-.1c.11,1.1.24,2.69.33,4,0,.4,0,.8.05,1.16,0,1.62,0,3.55-.08,5.77v.14l.15,0a4.26,4.26,0,0,0,.89.09,11.79,11.79,0,0,0,4.27-1.15c4.52-1.9,8.35-3.16,12.35-3.16h.17a14,14,0,0,1,9.38,3.48l.25-.22c-.11-.15-.21-.32-.31-.47a45.36,45.36,0,0,1,3.47,4.58c3.77,5.91,8.7,14.11,10.75,19.6a66.89,66.89,0,0,1,3.85,20.81c.83-2.55,2.11-4.91,4.49-6.05,3.21-1.54,5.89.33,7.38,3.21,4.63,9,2.69,20.68.59,31l.1.12c.11.11.2.25.3.37a.36.36,0,0,0,.07.1l.32.46c.15.24.3.46.43.69h0a.34.34,0,0,1,.07.11l.08.12a11.81,11.81,0,0,1,1.44,3.64s0,.22.12.57a0,0,0,0,0,0,0,1.7,1.7,0,0,0,0,.22,7.08,7.08,0,0,1,.16.8c0,.24.09.5.13.77a19.46,19.46,0,0,1,.29,2l0,.52.27-.46c1-1.68,1.1-4,1.28-7.33.09-1.62.19-3.45.4-5.52a147.58,147.58,0,0,1,3.28-18.31c.25-1.12.51-2.26.78-3.46C201,193.31,201.33,190.89,200.64,187.48Z"/><path class="cls-9" d="M132.42,146.08c0-.35,0-.73,0-1.11-.05-1.28-.27-5.56-.27-5.56s-7,20.83-18.4,11.61c-4.28-3.45-15.37-22.12-19.3-20.48C91,132,91,135,87.25,136.82a31.39,31.39,0,0,0,5.33,10.74l.35.41s.36,2.45.4,2.79h0c.29,2.32.6,4.75.92,7,.45,3.05.91,5.83,1.36,7.75,1.07,4.61,2.29,10.9,3.26,17.24.3,2,.57,3.92.81,5.84.29,2.37.52,4.67.67,6.8,0,.42.06.85.1,1.28.1,1.28,1,13.67,1,13.84.74-9.5,9.44-11.2,15-8.6,6.77,3.13,4.13,16,9.2,23a6.15,6.15,0,0,1,1.15-.11,3.59,3.59,0,0,1,.47,0l.33,0-.17-.27c-2-3.42-2.2-5.73-2.2-10.55,0-.36,0-.75,0-1.19s0-.7,0-1.09c.13-2.63.45-6.33.9-10.53,0-.47.11-1,.16-1.43.35-3.16.78-6.55,1.27-9.95,0-.18,0-.37.07-.55.3-2,.61-4.08.94-6.07.2-1.2.4-2.44.61-3.71l.3-2c.31-2.09.61-4.24.89-6.39h0c.13-1,.26-2,.38-2.94.28-2.31.53-4.6.75-6.82,0-.27.05-.55.08-.83A125.39,125.39,0,0,0,132.42,146.08Z"/><path class="cls-7" d="M239.93,184.94a3.4,3.4,0,0,0-2.68-1,6.13,6.13,0,0,0-3.75,1.29,33,33,0,0,1-6.52,4.1,9.81,9.81,0,0,1-4.33,1.19c-2.36,0-4.63-1.27-7.57-4.25-4.5-4.56-5.77-12.35-7.87-25.25l-.2-1.23c-1.59-9.68-1.75-19.21-1.89-27.62-.06-3.53-.12-6.88-.28-9.86a61.7,61.7,0,0,0-3.23-16.17l-.33,0c-.05,4.62-.85,12-1.63,19.18-.55,5.07-1.06,9.86-1.24,13.1a254.41,254.41,0,0,0,.13,30.86c2.39,19.73,11.51,28.5,16.52,30.57a22.45,22.45,0,0,0,8.25,1.58h0a19.14,19.14,0,0,0,13.62-5.53C241.88,191.21,241.64,187.06,239.93,184.94Z"/><path class="cls-9" d="M239.24,184.4c-3.48,4.9-8.1,9.28-13.82,10.54-8,1.77-16.7-4.42-19.58-11.71-1.83-4.63-4-17-4.23-35.18-.06-6.45,0-12.91,0-19.36,0-3.54.16-12.48-.47-20.19-.3,3.34-1.12,13.23-1.52,16.85-.55,5.07-1.06,9.86-1.24,13.1a254.41,254.41,0,0,0,.13,30.86c2.39,19.73,11.51,28.5,16.52,30.57a22.45,22.45,0,0,0,8.25,1.58h0a19.14,19.14,0,0,0,13.62-5.53c4.95-4.72,4.71-8.87,3-11A2.33,2.33,0,0,0,239.24,184.4Z"/><path class="cls-10" d="M204.26,116.91c-.19-1.26-.41-2.48-.66-3.6a25.61,25.61,0,0,0-2.81.92c-.12,1.29-.25,2.65-.39,4C201.68,117.77,203,117.33,204.26,116.91Z"/><path class="cls-10" d="M205.52,136.17c0-.76-.2-2.36-.21-3.11a43.89,43.89,0,0,0-6.66.91c-.09,1-.16,2.61-.21,3.45A32.14,32.14,0,0,1,205.52,136.17Z"/><path class="cls-10" d="M206.22,152.4c-.06-.87-.1-1.9-.15-2.76-2.71.18-5.58.43-8.07,2,0,.7,0,2.3,0,3A14.91,14.91,0,0,1,206.22,152.4Z"/><path class="cls-10" d="M198.65,170.12c.24,1.77.53,3.46.86,5a29.76,29.76,0,0,1,9.3-4.78c-.24-1.26-.57-3.14-.8-4.54C207.88,165.86,201.51,168.56,198.65,170.12Z"/><path class="cls-2" d="M129.74,226.81a5.77,5.77,0,0,0-3.14-.85,6.86,6.86,0,0,0-3.69,1l-.14.1.11.14a7.87,7.87,0,0,1,1.48,2.64c.73,2.25,2.13,11.51-.15,15.61l0,.1.08.09a4.35,4.35,0,0,0,2.86,1.12l.5,0h0a7,7,0,0,0,5.22-2.3c1.21-1.31,1.62-4.13,1.12-7.74C133.32,232.3,131.48,228,129.74,226.81Z"/><path class="cls-2" d="M114.28,228l0-.09,0-.08a6.33,6.33,0,0,0-4.91-2.17c-3.1,0-5.32,1.19-6.86,7-1.49,5.68-1.5,10.51,0,12.92.69,1.12,2.44,2,4.45,2.13.26,0,.51,0,.77,0a8.92,8.92,0,0,0,6.18-2.46l.07-.06,0-.09C113.09,241.24,113.31,230.2,114.28,228Z"/><path class="cls-2" d="M162.65,154.27l-.1-.15c-2.28-3.41-6.65-5.55-11.4-5.59H151c-4.21,0-8.23,1.35-13,3.36a12,12,0,0,1-4.52,1.25,5.05,5.05,0,0,1-.88-.08l-.2,0v.2c-.2,4.12-.61,9-1.22,14.46l0,.27.26-.08c10-3.36,21.37-7.16,31.08-13.51Z"/><path class="cls-2" d="M146.59,227.15l0-.2c1.14-7.15,3.78-9,5.79-9.27a7.37,7.37,0,0,1,1-.07v-.17h0v-.19a24.72,24.72,0,0,0-5.47-1.43,4.2,4.2,0,0,0-.69-.06,4.1,4.1,0,0,0-2.42.79c-2.38,1.7-4.14,6.9-4.44,9.85a5.08,5.08,0,0,0,2,5,6.65,6.65,0,0,0,4,1.07,12.32,12.32,0,0,0,2.38-.24l.42-.08-.34-.21A4.53,4.53,0,0,1,146.59,227.15Z"/><path class="cls-4" d="M174.22,175.41c-2.31-6-7.86-15.49-11.57-21.07l-.22-.4-5.37,3.52a86.72,86.72,0,0,1-15.63,7l-.17.06.06.16a71.18,71.18,0,0,0,9,14.3l1.64,2,.08.09c3.64,4.46,6.78,8.32,7.34,11.91.64,4.17-.86,13.68-2.46,17.75a23.58,23.58,0,0,1-2.59,5.24l-.29.37a3.29,3.29,0,0,1-1.4,1l-.47.15.47.17a8.91,8.91,0,0,1,2.65,1.59h0a16.63,16.63,0,0,1,1.41,1.37,21,21,0,0,1,4,6.74l.19-.41a8.74,8.74,0,0,1,6.1-4.92,5.61,5.61,0,0,1,3.3-1.41h.48a8.88,8.88,0,0,1,1.75.17l.12,0,.06-.1a30.81,30.81,0,0,0,5-12.15C178.63,202.73,179.13,188.19,174.22,175.41Z"/><path class="cls-2" d="M155.44,218.53l-.32-.24a5.41,5.41,0,0,0-3.94-1.55,5.94,5.94,0,0,0-1.24.13c-2.89.64-4.14,5.73-4.67,9.9a5.37,5.37,0,0,0,3.75,5.82,14.72,14.72,0,0,0,3.86.34h0c2.33,0,4.92-.18,6.25-.29h.14l0-.28c0-.23,0-.45.07-.7a20.66,20.66,0,0,1,1.2-4.52,14.52,14.52,0,0,0-.61-1.67A19.86,19.86,0,0,0,155.44,218.53Z"/><path class="cls-2" d="M102.65,232.63a13.69,13.69,0,0,1,2.27-5.06l.14-.17-.21-.09a8.48,8.48,0,0,0-3.19-.73,4.66,4.66,0,0,0-.93.09c-2.14.41-5.15,1.7-6.57,8.18-1.38,6.31-.78,8.55.56,10,.87.92,3,1.25,4.5,1.25h0a6.94,6.94,0,0,0,3.08-.58l.15-.08-.07-.14C101.1,242.6,101.2,238,102.65,232.63Z"/><path class="cls-6" d="M125.2,239a39.93,39.93,0,0,0-.89-8.19c-.91-3-2.77-4.61-5.63-4.61-2.53,0-3.4.77-4.27,2.81-.5,1.17-.91,5.78-.69,9.93C118.6,241.77,121.45,241.33,125.2,239Z"/><path class="cls-6" d="M133.94,237c-.62-4.43-2.46-8.79-4.2-9.92a5.69,5.69,0,0,0-3.14-.86,7.21,7.21,0,0,0-3.5.87c2.88,2.46,3.39,7.84,3.27,11.49a8.45,8.45,0,0,0,7.69-.45C134,237.8,134,237.43,133.94,237Z"/><path class="cls-6" d="M114.07,227.74a6.55,6.55,0,0,0-4.6-1.83c-3.1,0-5.33,1.2-6.86,7a34.33,34.33,0,0,0-1,5.2,12.08,12.08,0,0,0,11.21.31C112.71,236.54,112.56,230.64,114.07,227.74Z"/><path class="cls-6" d="M104.8,227.51a8.14,8.14,0,0,0-3.09-.7,4.76,4.76,0,0,0-.94.09c-2.14.41-5.15,1.71-6.56,8.18-.26,1.17-.45,2.2-.58,3.11a7.78,7.78,0,0,0,7.32.29C101.35,234.15,102.36,229.82,104.8,227.51Z"/><path class="cls-2" d="M140.4,226.36c.38-3.37,2.41-8.15,4.81-9.91l.32-.23-.44-.05a4.9,4.9,0,0,0-.7,0,5.57,5.57,0,0,0-3.93,1.55c-2.6,2.5-4.64,7-3.51,10.71a3.94,3.94,0,0,0,2.09,2.53,5.43,5.43,0,0,0,2.3.48c.25,0,.46,0,.63,0l.41,0-.27-.24A5,5,0,0,1,140.4,226.36Z"/><path class="cls-10" d="M111.31,69.87v0c-1,7.78-3,15.38-7.42,21.65-1.88,2.64-9.29,10.23-13.36,15.19l-.09.11A25.21,25.21,0,0,0,88.16,110c-3.89,7-7.19,11.44-9.72,21.66-.08-7.29,2.66-14.74,6.14-20.78a49.55,49.55,0,0,1,5.87-8.25c-5.15,2.26-14.79,11-15.22,11.45a53,53,0,0,1,10.56-12.19,55,55,0,0,1,5.46-4.12.1.1,0,0,1,0,0,55.61,55.61,0,0,0,7-5.4c5.66-5.46,8-14.67,9.92-23,1,.16,2.12.36,3.1.57C111.3,69.86,111.31,69.86,111.31,69.87Z"/><path class="cls-10" d="M116.9,120.79c-.61,7.38-3.19,13.76-10.93,21.4-4.84,4.79-9.76,9.38-11.89,17.48-.33-2.27-.64-4.7-.92-7h0a30.13,30.13,0,0,1,7.74-10.73C108,135.89,113.93,130.49,116.9,120.79Z"/><path class="cls-10" d="M68.11,154.3a2.33,2.33,0,0,1-.31-.11C60.89,152,55.32,148,49.68,138.9l-1.08-1.74a85.69,85.69,0,0,1-1.94-9c0-.1,0-.2,0-.31A28.56,28.56,0,0,1,51.06,134c4.24,8.13,8.13,15,16.64,20.05Z"/><path class="cls-10" d="M132.49,146.79a2.47,2.47,0,0,0-.29.06c-18.87,2-33.7,14.93-34.09,15.24.33-.45,10.74-18.39,33.74-19.56l.28-.06C132.3,144,132.42,145.51,132.49,146.79Z"/><path class="cls-10" d="M122.32,163.25a45.21,45.21,0,0,0-6.61,4.76,28.76,28.76,0,0,1,9.89-1.2,13,13,0,0,1,5.22,1.62c-.12,1.12-.25,2.22-.39,3.34a12.11,12.11,0,0,0-6-2c-4.64-.25-18.24,6-26.86.6,8.09.68,13.35-2.57,20.52-6.93a26.27,26.27,0,0,1,13.6-3.63c0,.31-.06.62-.09.93A24.91,24.91,0,0,0,122.32,163.25Z"/><path class="cls-10" d="M100.84,187.16c11.62-2.83,21.84,1.38,26.75,4,0,.19,0,.37-.07.55-5.36-2-16.75-5.12-28-1.24-.23-1.91-.51-3.88-.81-5.84,9.38-5.95,20.25-8.1,30.76-5.28-.11.69-.21,1.36-.31,2A43.69,43.69,0,0,0,100.84,187.16Z"/><path class="cls-10" d="M123.75,78a2.69,2.69,0,0,1-.57-.48h0l-.06,0c-2.23,1-6.18,3.76-7.44,10.24,0-.6-1.12-7.66,3.4-13.7l-2.57-2c-4.8,8.9-4.65,20.34-4.23,25.8.52,6.51-.56,19.21-8.8,29.58,17-14.15,12.34-33.95,15.64-41.76A15,15,0,0,1,124.84,79,7.64,7.64,0,0,0,123.75,78Z"/><path class="cls-10" d="M134,128.9c-2.78-15.44,3.49-21.63,3.57-32.07.11-13.6-5.11-20.47-5.11-20.47l1.64-.49,1.7-.51s5.61,7,4.94,20.16C140,109.94,133.32,114.57,134,128.9Z"/><path class="cls-10" d="M141.22,73.94c2,6.23,10.47,19.33,10.84,28.88.27,6.87-3.75,15.81-8,25.54,6.11-9.37,11.34-18.47,11.76-26.4s-5.45-17.18-4.41-30.27c-1.15.21-2.27.43-3.38.68.33,5.84,1.23,13.46,3.85,20.06C149,86.8,145.18,78.92,143,73.55Z"/><path class="cls-10" d="M170.25,80.22c-2.06,7-1.35,14.16-.78,21.42.62,7.69,4.42,19.41-3.38,28.15-3.92,4.39-7.52,6.81-11.31,14.48,1.7-11.8,8.7-12.62,12.46-24.1,2.49-7.62-4.3-25.84-5.09-30.87a57.65,57.65,0,0,1,.13-18.82c.73,0,1.48-.08,2.22-.1a96.83,96.83,0,0,0,1.7,25.21c0,.25.07.49.11.74-.09-1.37-.15-2.74-.19-4.09-.16-8.06,2-15.11,5.32-21.77a26.25,26.25,0,0,1,2.78.38A50,50,0,0,0,170.25,80.22Z"/><path class="cls-10" d="M189.39,82.76c-8.85,11.62-2.85,35.61-8.54,48.73-4.38,10.07-6.93,16.54-22.39,16.48,15.21-2.51,21-13.81,21.36-28.64C180.06,109.15,177.82,93.72,189.39,82.76Z"/><path class="cls-10" d="M199.61,98.36l-.06.2c-1,2.76-2.14,5.45-3.35,8.14A86,86,0,0,0,196.64,92h0l-1-2c.21,12.86-3.71,33.44-11.9,44.8C197.42,122.44,199,106,200,99.82c0,0,0,0,0,0l.09-.53A2.49,2.49,0,0,1,199.61,98.36Z"/><path class="cls-10" d="M162.65,156.94a3.61,3.61,0,0,1,.22.44l.27.43c.22.37.52.71.72,1.08a33.89,33.89,0,0,0,13.62-3.67,91.08,91.08,0,0,1-10.13,9.26,13.65,13.65,0,0,1,.71,1.37c4.81-2.62,22-12.29,28.34-36.45C187.45,150.35,171.75,155.62,162.65,156.94Z"/><path class="cls-10" d="M199.75,178.11a40.66,40.66,0,0,1-24,5.12c.28,1.56.64,3,.78,4.66,4.88-.23,14.87-1.3,23.26-8.32A10.17,10.17,0,0,1,199.75,178.11Z"/><path class="cls-10" d="M177.34,205.43c0,.6-.18,2-.29,2.57,9.39,4,20.91-1.57,20.91-1.57S185.59,209.35,177.34,205.43Z"/><path class="cls-10" d="M82.84,168.36c-.68-.44-11.79-7.63-18.22-8-3.46-.21-7.31-.2-10.74,1-.18-1.27-.34-2.46-.49-3.56,4.47-2,7.49-2,12.91-.68C72.29,158.52,82.23,167.78,82.84,168.36Z"/><path class="cls-10" d="M57.84,182.08c7.6-2.28,29.41-3.39,29.41-3.39S70,166.86,55.49,171.18h0c.09.42.17.84.25,1.27,7.95-.75,16.49,2.65,16.49,2.65s-10.37,1.45-15.29,3.08Z"/><path class="cls-10" d="M88.26,189.82c-.05,1.45-.1,3.12-.15,4.91-11-4.35-25.79-.89-26.37-.76C62.22,193.73,76.55,186.58,88.26,189.82Z"/><path class="cls-10" d="M132.85,153.43c6.17-5.78,8.7-22.62,6-35.05C139.37,128.28,135.25,148.73,132.85,153.43Z"/><path class="cls-10" d="M175.11,180.58c-.05-.32-.14-.63-.19-1,0-.09-.08-.18-.12-.27-4.76,3-12.4,6.86-19.58,6.65.32.49.58,1,.9,1.51.43.65.89,1.26,1.28,1.92,7.54-.29,13.82-4.8,17.74-8.51C175.13,180.82,175.13,180.7,175.11,180.58Z"/><path class="cls-10" d="M163.86,158.89a93.33,93.33,0,0,1-17,3.82,15.29,15.29,0,0,1-4.68,1.62c.34,1.22.77,2.44,1.21,3.65,11.2,2.91,22.19-2.6,22.19-2.6s-14,3-19.79,0C154.35,164.68,163.86,158.89,163.86,158.89Z"/><path class="cls-10" d="M125.2,213.66c0,.38,0,.75,0,1.08-6.75-1.34-16.18-2.13-23.55,1.13,0-.9-.09-1.82-.15-2.74h0c6-2.88,12.78-2.3,19.36-.43-6.29-3.79-13-3.67-19.51-1.89,0-.38,0-.75-.08-1.13C109.22,206.6,117.51,206.92,125.2,213.66Z"/><path class="cls-10" d="M84.19,218.44S72.53,215,63.75,215.86c.07-.85.13-1.73.18-2.6A34.21,34.21,0,0,1,84.19,218.44Z"/><path class="cls-10" d="M161,116.12c-13.29,10.16-8.31,21.66-17,33.79C154,144.27,153.13,126.1,161,116.12Z"/><path class="cls-10" d="M184.88,75.79c-4.39,5-6.52,9.28-8.48,21.58-.89-8.46.93-17.42,6.35-23.09.44.27.87.57,1.3.88C184.33,75.35,184.6,75.57,184.88,75.79Z"/><path class="cls-10" d="M198.13,144a76.42,76.42,0,0,0-3.71,7c-4.41,9.48-13.7,13.6-13.7,13.6a27.51,27.51,0,0,0,14.34-9.59,26.64,26.64,0,0,0,2.91-5.43A39,39,0,0,1,198.13,144Z"/><path class="cls-10" d="M101.58,68.25c-1.15,4.64-4.08,11.2-11.39,17.41l0,0a54.28,54.28,0,0,1-10.34,6.75,51.75,51.75,0,0,0,9.78-9.24,0,0,0,0,0,0,0,44.74,44.74,0,0,0,9.7-23.12l.31,1.48c.4,1.11.78,2.27,1.13,3.48C101.07,66.06,101.35,67.15,101.58,68.25Z"/><path class="cls-10" d="M48.31,106.41c-.25,1-.56,1.9-.88,2.81.15.21.29.4.41.58,3.95,6.3,7.3,10.29,9.93,19.69,0-6.8-2.8-13.61-6.34-19.06A34.22,34.22,0,0,0,48.31,106.41Z"/><path class="cls-10" d="M90.6,121.72c-3.79,6.28-4.92,16.22-4.42,23.51a73.05,73.05,0,0,1,8.21-22.84c3.15-5.32,10.16-15.51,10.16-15.51S94.47,115.3,90.6,121.72Z"/><path class="cls-10" d="M124.84,110.88c-3.08,6.66-4,16.68-2.74,23.87a72.77,72.77,0,0,1,5.66-23.6c2.53-5.64,6.08-15.16,1.06-26.78C131.68,95.39,128,104.07,124.84,110.88Z"/><path class="cls-10" d="M46.44,122a11.16,11.16,0,0,1-.14,1.91,44.43,44.43,0,0,1,5.89,4.73,102.7,102.7,0,0,1,11.9,15c-2.53-6.16-7.71-15-11.79-19A10.12,10.12,0,0,0,46.44,122Z"/><path class="cls-10" d="M158.41,205.29a12.19,12.19,0,0,1-.44,2.79c5.38,4.73,13.31,3.29,17.66,1.93C169.38,211,162.88,209.52,158.41,205.29Z"/><path class="cls-2" d="M178.79,234.65c0-2.43,1.79-10.68,6-12.05l.26-.09-.18-.19c-.74-.79-2.5-2.11-5.94-2.11l-.58,0c-5.26.21-9.79,7.72-9.81,13.72a5.53,5.53,0,0,0,1.59,4.34,7.59,7.59,0,0,0,5.06,1.91h.5a6.26,6.26,0,0,0,4.43-1.57l.25-.12-.22-.16C179.19,237.63,178.79,236.52,178.79,234.65Z"/><path class="cls-2" d="M170.44,238.51a5.94,5.94,0,0,1-1.62-4.56,16.08,16.08,0,0,1,6-12.51l.22-.16-.23-.13a7.85,7.85,0,0,0-3.93-.94l-.51,0c-4.75.21-8.84,7.72-8.86,13.72a5.77,5.77,0,0,0,1.51,4.43,6.81,6.81,0,0,0,4.58,1.53h.56a18.9,18.9,0,0,0,3.27-.51l-.57-.58Z"/><path class="cls-2" d="M193.65,230.83a14.35,14.35,0,0,0-.74-2.07c-.19-.44-.44-1.06-.76-1.78a9.88,9.88,0,0,0-2.89-3.43,7.11,7.11,0,0,0-4-1,12.36,12.36,0,0,0-1.93.15c-3.59.6-5.53,8.73-5.53,11.92s.85,3.83,3.77,4.67a10.83,10.83,0,0,0,2.94.37,16.57,16.57,0,0,0,8.33-2.3,5.49,5.49,0,0,0,1.47-1.28l0-.06V236A24.88,24.88,0,0,0,193.65,230.83Z"/><path class="cls-2" d="M161.3,234a18.21,18.21,0,0,1,4.38-11.55l-.21-.28c-2.38,1.06-5.41,3.52-6.33,9.25-.42,2.66,0,4.7,1.13,6.07a3.15,3.15,0,0,0,2,1l.45.07-.27-.35A6.69,6.69,0,0,1,161.3,234Z"/><path class="cls-6" d="M183.45,222.05a6.59,6.59,0,0,0-5-1.84l-.5,0c-4.34.2-8.1,6.8-8.55,12.58a9,9,0,0,0,8.07.12C178.94,224.65,182,222.26,183.45,222.05Z"/><path class="cls-6" d="M174,221.55a6.74,6.74,0,0,0-3.43-.85h-.47c-4.09.21-7.64,6.87-8.06,12.64,2.17.87,4.25,1.16,6.07.36C169.11,225.54,172.58,222.21,174,221.55Z"/><path class="cls-6" d="M191.07,225.31c-.27-.26-1.24-1.16-1.54-1.38a7.23,7.23,0,0,0-4-1,12.33,12.33,0,0,0-1.92.16c-2.92.49-4.75,5.94-5.33,9.68C182.32,235.06,190.34,234.18,191.07,225.31Z"/><path class="cls-6" d="M165.09,222.51l0-.07c-2.23,1.06-5.06,3.52-5.92,9.25-.07.45-.1.88-.13,1.3a2.1,2.1,0,0,0,1.73.56C160.61,229.93,162.24,225,165.09,222.51Z"/><path class="cls-7" d="M99.23,20.34a8.93,8.93,0,0,0-3.53-6.22,9.85,9.85,0,0,0-6-1.24,21.15,21.15,0,0,0-8.38,2.32c-1,.56-2.13,1.15-3.41,1.76a12.69,12.69,0,0,1-2.73.94l.1,0L75,17.69a14,14,0,0,0-5.66-2,33.48,33.48,0,0,0-4.9,0l-3.08.2A19.15,19.15,0,0,1,58,16l-.76-.13a34.07,34.07,0,0,0-7.36-.6A14.37,14.37,0,0,0,43.61,17c-5.62,3.15-9.94,8.63-12,11.61-.88,1.27-1.56,2.4-2.2,3.49a28.51,28.51,0,0,1-5.91,7.52c-.46.41-.87.84-1.23,1.23A8.61,8.61,0,0,0,21.49,42l-.37.08a26.21,26.21,0,0,0-5.05,10.16l.35.1.28-.65a20.07,20.07,0,0,0,.29,9l.35-.07a8.14,8.14,0,0,1-.1-1.09v-.95l.32.9A62.28,62.28,0,0,0,21,67.32l.34-.12-.53-1.45.51.51c.24.25,5.93,6,7.6,9.22l.17.34.16-.35a5,5,0,0,1,.84-1.32l.08-.09-.06-.1c-.81-1.25-4.81-7.61-4.37-10.69s3.81-7.2,4.48-8l0,0v-.05a2.82,2.82,0,0,0-.53-2l-.11-.15a9.43,9.43,0,0,1,3.66-1.91l.19-.27a11.38,11.38,0,0,1,2.55-3c.3-.23.61-.45,1-.69a12.87,12.87,0,0,0,3.32-3l.12-.17s3.74-3.7,2.31-4.32-7,1.44-7,1.44-2.38-2-1.83-4.25,3.19-3.69,4.87-3.79c.13,0,.38,1.41.49,1.43,1,.17,1.69-.46,2,.46h.28c.5,1.52,1.56,2.7.75,6.05s-3.41,4.32-5.06,6a12,12,0,0,1-1.25.9,13.66,13.66,0,0,0-3.41,4l.16.9-.16-.1A15.78,15.78,0,0,1,33.85,54c1.39,1.83,3.73,4.9,7,5.19a13.82,13.82,0,0,0,1.95,0,52.74,52.74,0,0,0,9.67-1.93,22.41,22.41,0,0,1,3.15-.73.78.78,0,0,1,.28,0,1.16,1.16,0,0,1,.68.74l.23.55.12-.58a14,14,0,0,0,.21-1.55v.15h.17a9.59,9.59,0,0,1,5.82,2.6,20.35,20.35,0,0,1,3.1,3.71A7.56,7.56,0,0,1,66.85,64c.09.74.19,1.48.28,2.2a8.62,8.62,0,0,1-.74,3.86c-.9,1.69-4.49,4.54-8.91,6.36a11.61,11.61,0,0,1-3.8.89A10.07,10.07,0,0,1,46.48,75a22.8,22.8,0,0,0-5.84-3.31h-.17a25.24,25.24,0,0,0-2.61,0,13,13,0,0,0-6.75,2,5.09,5.09,0,0,0-2.06,3.85,11.37,11.37,0,0,0,.72,5l.35-.08L30.05,82a24.29,24.29,0,0,0,1.32,2.79,14,14,0,0,0,3.82,4.45l.24-.24-.73-.76a27.32,27.32,0,0,0,6.81,2.59l.15-.29-1.23-.84,1,.29a20.16,20.16,0,0,0,6.42.65,17,17,0,0,0,4.77-1c4-1.44,5.49-4.2,6.69-6.42A18.5,18.5,0,0,1,61,80.57c-.22.45-.49,1-.74,1.46l.29.19a23.7,23.7,0,0,1,11.17-5.4,48,48,0,0,0,10.73-2.66,14.35,14.35,0,0,0,2.76-1.57,10.83,10.83,0,0,1-1.56,1.46l.21.28c5.24-2.6,7.35-6.2,8.16-8.17-.06.82-.13,1.61-.17,1.8l.35.1c2.31-5.47,2-12.86,2-12.93l0-.86.34.8a6.33,6.33,0,0,1,.28.84l.36,0c-.37-8.48-3.26-13.79-5.62-16.76-.82-1-1.9-2.27-2.84-3.34l-.27.15c-.29-.52-.6-1-.93-1.52l-.18-.2c-2.4-2.71-4.66-5.27-5.23-6.42-.86-1.73-.62-5.12,2.88-9A12.54,12.54,0,0,1,91,14.69h.19a6.79,6.79,0,0,1,5.06,1.83A10.15,10.15,0,0,1,99,22l.36,0A12.06,12.06,0,0,0,99.23,20.34Z"/><path class="cls-9" d="M30.28,55.27l0,0v0a2.84,2.84,0,0,0-.53-2l-.11-.15a6.9,6.9,0,0,1,3.18-1.66l.67-.52c.15-.24.66-1.43.81-1.65a6.06,6.06,0,0,1-2.92,1.65A8.85,8.85,0,0,0,28,52.67c-2.55,2.41-2.31,6.76-2.31,6.76s1.31-3.11,4-3.33Z"/><path class="cls-9" d="M56.83,51.14s-.09,4-1.6,5.5a1,1,0,0,1,1.39.7l.23.56.47-2c0-.76-.09-1.75-.14-2.51S56.83,51.14,56.83,51.14Z"/><path class="cls-9" d="M74.71,60.37c1.17.39,2.77,3.76,2.77,3.76s-.6-4.7-1.36-6c-1-1.8-2.77-2-6-2a7.3,7.3,0,0,1-5.23-2.32A6,6,0,0,0,68,57.59c1.12.64,1.85.52,1.38,2a9.73,9.73,0,0,1-2.83,3.37c.12.35.59,3.93.57,4.25C68.31,65.6,72.89,59.74,74.71,60.37Z"/><path class="cls-6" d="M60.11,48c2.23.85,9.23.31,13.67-1.94,2.77-1.41,1-3.64-.27-5.63-1.7-2.61-6.45-3.62-10.86-1.84C57.29,40.23,58,47.13,60.11,48Z"/><path class="cls-11" d="M71.34,42.17a4.41,4.41,0,0,0-1.08-3.8,4.15,4.15,0,0,0-2.16-1.44,5.6,5.6,0,0,0-2.51,0A6.84,6.84,0,0,0,62,39.82c-1.3,1.91-2.4,4.91.69,5.58,2.89.63,7.45-.09,8.57-2.94C71.28,42.44,71.34,42.19,71.34,42.17Z"/><path class="cls-12" d="M67.94,37.87a5.64,5.64,0,0,1,3.46,3.06,5.75,5.75,0,0,0-1.12-2.37A4.35,4.35,0,0,0,68.1,37a5.29,5.29,0,0,0-2.51,0,6.08,6.08,0,0,0-2.52,1.72A5.74,5.74,0,0,1,67.94,37.87Z"/><path class="cls-12" d="M62.8,44.45c-1.55-1-1.62-2.82-1.28-4.42-1,2-1.33,4.47,1.3,5.13a9.31,9.31,0,0,0,2.64.24A6.15,6.15,0,0,1,62.8,44.45Z"/><path class="cls-6" d="M86.74,35.76l-.27.16c2.15,3.26,3.86,9.38,4.56,14.47-.32-1-.65-1.82-.89-2.39A28.15,28.15,0,0,1,90,54.29a26.21,26.21,0,0,1-.13,6.18s-.26-2.08-.34-2.78c-.4,3.05-1.78,6.44-4.63,8.36-.09.06,1-1.43,1.23-1.94-2,1.58-6,4.55-8.72,3.35a.84.84,0,0,1-.43-.5,10.29,10.29,0,0,1-.61-3.13c-.38-1.91-.91-5.14-3.18-6.12-3,1.71-4.79,5-6,8l.06.53a8.71,8.71,0,0,1-.74,3.85c-.91,1.7-4.49,4.54-8.92,6.37a12,12,0,0,1-3.79.89A10.16,10.16,0,0,1,46.53,75a22.49,22.49,0,0,0-5.84-3.31h-.17a25.15,25.15,0,0,0-2.61,0,13.1,13.1,0,0,0-6.76,2,5,5,0,0,0-1.86,3.85,11.21,11.21,0,0,0,.53,5l.35-.08L30.1,82a24.24,24.24,0,0,0,1.43,2.72,13.54,13.54,0,0,0,3.73,4.4l.22-.11-.73-.76a27.42,27.42,0,0,0,6.71,2.44l.11-.24-1.09-.75,1,.3a24.45,24.45,0,0,0,6.53.52,16,16,0,0,0,4.62-1c4-1.44,5.53-4.06,6.73-6.28a18,18,0,0,1,1.74-2.71L60.31,82l.29.19a23.7,23.7,0,0,1,11.17-5.39A48.58,48.58,0,0,0,82.5,74.16a14.9,14.9,0,0,0,2.76-1.57,12.07,12.07,0,0,1-1.56,1.46l.21.27c5.23-2.6,7.35-6.2,8.16-8.16-.06.81-.13,1.6-.17,1.8l.35.09c2.31-5.47,2-12.85,2-12.92l0-.86.35.8a5.47,5.47,0,0,1,.28.84l.36,0c-.37-8.47-3.26-13.79-5.62-16.75C88.76,38.07,87.68,36.83,86.74,35.76Z"/><path class="cls-8" d="M92.54,44.19c1.18,2.88,1.61,7.25,1.77,7.76a13.83,13.83,0,0,0-1.06-2.42,44.75,44.75,0,0,1,0,13.2s-.4-2.11-.55-3.68c-.19,3.16.23,7.63-4.58,11.39.58-.73,1.83-2.45,2.32-3.24-6.37,6.54-19.93,5.23-25.26,6a7.1,7.1,0,0,0,2.36-2.66,5.79,5.79,0,0,0,.39-1.88,11.38,11.38,0,0,1,3.68-7.4c1.83-1.52,2.88-1.28,4.07-.25a5.05,5.05,0,0,0-2.51-3.29c-3,1.71-4.79,5-6,8,0,.18,0,1.51,0,2,0,1.21-.83,3-3.16,5a25.84,25.84,0,0,1-4.11,2.54c-3.47,1.89-6.1,2.34-9.65,1.58,1.24,1,4.08,1.27,6.83.79,1.16,2-1.74,5.3-3.87,6.73a11.09,11.09,0,0,0,2.49-1.29c-4.63,4.61-13.2,5.72-19.31,2.15a7.54,7.54,0,0,0,1.87,1.87s-4-1.7-5.52-4.15a7.19,7.19,0,0,0,1,2.14,13.63,13.63,0,0,1-4.25-8.46c-.05.26-.13.72-.16,1a10.73,10.73,0,0,0,.56,4.88l.35-.08L30.1,82a24.24,24.24,0,0,0,1.43,2.72,13.54,13.54,0,0,0,3.73,4.4l.22-.11-.73-.76a27.42,27.42,0,0,0,6.71,2.44l.11-.24-1.09-.75,1,.3a24.45,24.45,0,0,0,6.53.52,16,16,0,0,0,4.62-1c4-1.44,5.53-4.06,6.73-6.28a18,18,0,0,1,1.74-2.71L60.31,82l.29.19a23.7,23.7,0,0,1,11.17-5.39A48.58,48.58,0,0,0,82.5,74.16a14.9,14.9,0,0,0,2.76-1.57,12.07,12.07,0,0,1-1.56,1.46l.21.27c5.23-2.6,7.35-6.2,8.16-8.16-.06.81-.13,1.6-.17,1.8l.35.09c2.31-5.47,2-12.85,2-12.92l0-.86.35.8a5.47,5.47,0,0,1,.28.84l.36,0C95.06,52.71,94.76,46.7,92.54,44.19Z"/><path class="cls-6" d="M29.91,53l-.16.12c-.35.28-1,.88-1,.86-1.1,1.43-1.45,3.1-2.08,4.86-.2.56-.53,1.71-1.28,1.5a7.55,7.55,0,0,1-2.79-3,8.2,8.2,0,0,1-1.33-3.94c-.06.41-.16.82-.2,1.24,0,.16-.29.11-.27-.06s0,0,0-.06h0a6,6,0,0,1,0-2.76c-.15.44-.54,1.64-.54,1.64s-.09-.72-.09-.75A18.57,18.57,0,0,1,20.77,48a4.87,4.87,0,0,1,.3-.75A10.16,10.16,0,0,0,20,48.7a27.32,27.32,0,0,1,2-6.91l-.58.27a26.18,26.18,0,0,0-5,10.17l.35.09.27-.65a20.22,20.22,0,0,0,.3,9l.16-.11a5.34,5.34,0,0,1,.09-1v-1l.32.91a63,63,0,0,0,3.46,7.79l.34-.13-.53-1.45.51.52c.24.25,5.93,6.05,7.59,9.22l.18.34.16-.35a4.66,4.66,0,0,1,.84-1.32l.08-.09-.07-.1c-.8-1.25-4.81-7.62-4.36-10.7s3.81-7.19,4.48-8l0,0v0a2.77,2.77,0,0,0-.52-2Z"/><path class="cls-8" d="M30.39,73.91c-.32-.51-1.16-1.84-2-3.45a71.28,71.28,0,0,0-5.49-5.36,11.79,11.79,0,0,1-3.11-4.36c.14.76.8,2.92.8,2.92a45.47,45.47,0,0,1-3-6.45C17.69,60.84,20,65,21.29,67.27l.34-.13-.53-1.45.51.52c.24.25,5.93,6.05,7.59,9.22l.18.34.16-.35a4.66,4.66,0,0,1,.84-1.32l.08-.09Z"/><path class="cls-8" d="M29.51,56.24c.34-.45.62-.79.77-1l0,0v0a2.84,2.84,0,0,0-.53-2l-.11-.15-.15.13c-.36.28-1,.88-1,.86-1.1,1.42-1.45,3.09-2.08,4.86-.05.12-.1.28-.16.44A6.7,6.7,0,0,1,29.51,56.24Z"/><path class="cls-8" d="M91.29,15h-.15a12.29,12.29,0,0,0-7.89,4c-3.18,3.52-3.71,6.9-2.83,8.69.55,1.11,2.91,3.77,5.19,6.35l2.14,2.43.08.1.13,0a23.75,23.75,0,0,0,8.9-6.05,10.57,10.57,0,0,0,1.89-3.6c.83-3.57-.3-7.92-2.64-10.13A6.37,6.37,0,0,0,91.29,15Z"/><path class="cls-6" d="M96.11,16.71A6.37,6.37,0,0,0,91.29,15h-.15a11.78,11.78,0,0,0-5.85,2.21c3.54-1.07,7.78.1,9.12,3.7,2,5.29-1.3,11.73-6,15.42a23.29,23.29,0,0,0,8.42-5.86,10.57,10.57,0,0,0,1.89-3.6C99.58,23.27,98.45,18.92,96.11,16.71Z"/><path class="cls-6" d="M26.12,63.3c-.41,2.82,3.13,8.63,4.22,10.35l.11.18.17-.14c.11-.09.22-.19.34-.27a13.44,13.44,0,0,1,6.93-2.06,23.86,23.86,0,0,1,2.4,0h.23l0-.21A17.88,17.88,0,0,1,40.3,68v-.13l-.14,0c-2-.45-4-2.52-5.33-4.18a26,26,0,0,1-4.32-7.7l-.09-.35-.23.29C29.09,57.24,26.49,60.71,26.12,63.3Z"/><path class="cls-8" d="M40.3,67.84l-.14,0c-2-.45-4-2.52-5.33-4.18a31.54,31.54,0,0,1-3.2-5c1.69,7.77,8,9,8.09,11s-5.22.55-10.2,2.73c.42.71.58,1,.82,1.33l.11.18.17-.14c.11-.09.22-.19.34-.27a13.44,13.44,0,0,1,6.93-2.06,23.86,23.86,0,0,1,2.4,0h.23l0-.21A17.88,17.88,0,0,1,40.3,68Z"/><path class="cls-8" d="M33.63,25.17l.14.07.09-.11a43.67,43.67,0,0,1,4.37-4.59l.12-.11-.11-.11c-2.36-2.61-2.38-6.29-2.4-9.54v-.3c0-2.85,0-5.54-2-6a2.3,2.3,0,0,0-.69,0c-2,.11-3.25,2.52-3.6,3.26C28.55,9.8,24.11,20.45,33.63,25.17Z"/><path class="cls-6" d="M31.7,12.91c.62-1.64,2.06-4.22,4.13-3.29,0-2.51-.22-4.72-2-5.11a2.3,2.3,0,0,0-.69,0c-2,.11-3.25,2.52-3.6,3.26-1,2-5.13,12,3.2,17C31.15,20.89,30.27,16.65,31.7,12.91Z"/><path class="cls-5" d="M34,4.25c2.17.73,2.19,3.42,2.21,6.53s0,6.78,2.29,9.31l.12.14.15-.12A28.44,28.44,0,0,1,43.5,16.7a13.28,13.28,0,0,1,3.31-1.3l.38-.09-.33-.2A36.64,36.64,0,0,1,43,12.37a44.4,44.4,0,0,1-4.26-5C37.65,6,36.64,4.75,36.07,4.17a2,2,0,0,0-1.58-.51,1.53,1.53,0,0,0-.3,0,4.08,4.08,0,0,0-.63.15l0,.32Z"/><path class="cls-6" d="M40.81,67.91h-.19v.17a13.86,13.86,0,0,0,.23,3.26l0,.06.07,0a23.42,23.42,0,0,1,5.8,3.33,9.77,9.77,0,0,0,7,2.29h0a11.33,11.33,0,0,0,3.67-.86c4.81-2,8-4.83,8.76-6.22A9.54,9.54,0,0,0,66,62.35c-.12-.23-3-5.79-8.59-6.35l-.2,0v.19a8.52,8.52,0,0,1-.4,3.19,2.36,2.36,0,0,1-.6,1.31c-.74.73-9.63,7-14.71,7.24A5.14,5.14,0,0,1,40.81,67.91Z"/><path class="cls-8" d="M47.69,73.72c-3.28-1.87-5.76-1.93-5.94-3.89s9.66-2.11,14.69-9.47a1.83,1.83,0,0,1-.24.31c-.74.73-9.63,7-14.71,7.24a5.14,5.14,0,0,1-.68,0h-.19v.17a13.86,13.86,0,0,0,.23,3.26l0,.06.07,0a23.42,23.42,0,0,1,5.8,3.33c1.84,1.61,5.21,3.51,10.64,1.43,4.87-1.86,8-4.83,8.76-6.22a7.45,7.45,0,0,0,.66-2.55C65.87,71.31,60,75,54.58,75.5A11.72,11.72,0,0,1,47.69,73.72Z"/><path class="cls-9" d="M33.28,51.28l-.42.12a9.41,9.41,0,0,0-3,1.52l-.14.1.11.13a2.44,2.44,0,0,1,.52,1.13l.08.56.26-.51a4.4,4.4,0,0,1,1.75-1.75l.15-.07,0,0c.11-.22.26-.5.45-.83Z"/><path class="cls-13" d="M56.09,56.81a6.29,6.29,0,0,0-.58-.26c-.45,0-1.52.67-2.82,1l.23-.21a55.09,55.09,0,0,1-9.9,2,15.51,15.51,0,0,1-2.13-.12c-3.41-.31-5.7-3.5-7.14-5.39a8.87,8.87,0,0,0-.92-1.09l-.16-.11-.22-.06c-.43.27-1.8,1.07-2,2.26-.17,1,1.76,5.87,4.21,8.95,2,2.48,4.08,3.95,5.65,4.18a8.19,8.19,0,0,0,1.32.35l.64-.27c4.77-.27,13.27-6.8,14.18-7.69a3.43,3.43,0,0,0,.44-2.94A1,1,0,0,0,56.09,56.81Z"/><path class="cls-14" d="M78.54,39.16S84.22,47.4,81,55c-2.4-2.15-5.21-3-9-3.27,6.58,1.56,8.24,4.56,9.78,8.18C87.18,47.42,78.54,39.16,78.54,39.16Z"/><path class="cls-14" d="M63.13,48.41s11.19.06,12.16-5.26C77.36,51.55,63.13,48.41,63.13,48.41Z"/><path class="cls-14" d="M33.84,46.64s-5.54.72-7.64,2.22c-2.08-7.52,3.27-15.52,3.27-15.52S21.61,42,24.92,53C26.81,48.51,33.84,46.64,33.84,46.64Z"/><path class="cls-14" d="M40.53,67.11a16,16,0,0,1-.23-6.39A7.69,7.69,0,0,0,40.53,67.11Z"/><path class="cls-6" d="M52.66,62.84c-.47-.05-3.87-1.09-6.31.15-2.59,1.31-1.58,4.32-1.58,4.32A47.86,47.86,0,0,0,52.66,62.84Z"/><path class="cls-14" d="M52.94,63.13c-.46-.05-3.87-1.09-6.3.14a3.72,3.72,0,0,0-1.87,4.17A35.72,35.72,0,0,0,52.94,63.13Z"/><path class="cls-6" d="M35.52,61.23a2.51,2.51,0,0,0-2.51-1c.42,1.63,4,5.51,4,5.51A7.62,7.62,0,0,0,35.52,61.23Z"/><path class="cls-14" d="M35.44,61.24c-.66-1-1.76-1.05-2.85-1,.41,1.63,3.95,5.51,3.95,5.51A8.89,8.89,0,0,0,35.44,61.24Z"/><path class="cls-14" d="M42.81,44.18a18.54,18.54,0,0,1,8.41.48A12.09,12.09,0,0,0,42.81,44.18Z"/><path class="cls-14" d="M57.68,17.37c-5.64,3.9-7.53,13.21-7.53,13.21S47.72,20.94,57.68,17.37Z"/><path class="cls-14" d="M73.88,23.85S66.61,17.28,60.05,21C66.78,13.73,73.88,23.85,73.88,23.85Z"/><path class="cls-14" d="M38.35,22.36s7-6.28,12.6-2.29C45.39,12.53,38.35,22.36,38.35,22.36Z"/><path class="cls-14" d="M63.41,45.7c-1-.07-3.44.14-3.89-.31s.75-1.35,1-2.31a10.78,10.78,0,0,1,3.36-5.57,3.51,3.51,0,0,1,2.17-.94s-.11.74-1.33.84c3.93-.72,5.6.12,6.35,1.58s2,2.72,1.42,3.42a8,8,0,0,1-2,1.75C68.46,45.61,66.12,45.89,63.41,45.7ZM66,37.08c-2.25.27-4.51,3.26-4.8,6.11-.13,1.31,1.85,2,2.6,2.09,2.57.48,6-.24,7.11-2.11A4.06,4.06,0,0,0,70.49,39,4.53,4.53,0,0,0,66,37.08Z"/><path class="cls-14" d="M37.44,45.06s-9.25-3.64-6.31-9.22C24.21,44.42,37.44,45.06,37.44,45.06Z"/><path class="cls-14" d="M42,22.47c4.94-1.12,8.92,4,8.92,4s8-4.7,13.85-2.85c-6.52-2.79-13.2.58-13.2.58A8.81,8.81,0,0,0,42,22.47Z"/><path class="cls-15" d="M67.24,43.62a3.16,3.16,0,0,1-4-1.31,2.67,2.67,0,0,1,1.44-3.68,3.16,3.16,0,0,1,4,1.31A2.67,2.67,0,0,1,67.24,43.62Z"/><path class="cls-16" d="M68.46,39.61a3.18,3.18,0,0,0-3.8-1,2.92,2.92,0,0,0-1.55,1.56A4.26,4.26,0,0,0,68.46,39.61Z"/><path class="cls-14" d="M66.15,44a3.15,3.15,0,0,1-1.25-.16,3,3,0,0,1-1.78-1.47,2.76,2.76,0,0,1,1.49-3.81A3.34,3.34,0,0,1,67,38.43a3,3,0,0,1,1.78,1.47,2.75,2.75,0,0,1-1.49,3.81A3.22,3.22,0,0,1,66.15,44Zm-.38-5.5a3,3,0,0,0-1.06.25,2.74,2.74,0,0,0-1.49,1.5,2.37,2.37,0,0,0,.11,2A2.8,2.8,0,0,0,65,43.63a3.15,3.15,0,0,0,2.22-.11A2.71,2.71,0,0,0,68.69,42a2.44,2.44,0,0,0-.11-2,2.81,2.81,0,0,0-1.65-1.36A2.88,2.88,0,0,0,65.77,38.48Z"/><path class="cls-14" d="M66.82,42.79a2.1,2.1,0,0,1-2.69-.87,1.78,1.78,0,0,1,1-2.46,2.11,2.11,0,0,1,2.69.88A1.78,1.78,0,0,1,66.82,42.79Z"/><path class="cls-17" d="M64.48,40.83a.51.51,0,0,1-.51.53.53.53,0,0,1-.58-.46.52.52,0,0,1,.51-.54A.54.54,0,0,1,64.48,40.83Z"/><path class="cls-17" d="M67.25,42.41a.3.3,0,0,1-.29.31.3.3,0,0,1-.33-.27.29.29,0,0,1,.29-.3A.3.3,0,0,1,67.25,42.41Z"/><path class="cls-17" d="M41,40.92a.33.33,0,0,1-.4.2.29.29,0,0,1-.21-.36.32.32,0,0,1,.39-.19A.28.28,0,0,1,41,40.92Z"/><path class="cls-6" d="M34.39,56s2.76,3.75,6.38,4.07S51.4,58.58,51.4,58.58s-7.57,2.46-11,1.9C36.41,59.84,34.39,56,34.39,56Z"/><path class="cls-14" d="M47.64,67.9c5.6.8,11.3.75,15.75-2.86C60.71,66.34,57.51,68.15,47.64,67.9Z"/><path class="cls-14" d="M56.43,70.72A30.93,30.93,0,0,1,47,69.65a20,20,0,0,0,9.34,2,11.19,11.19,0,0,0,7.41-3.57A16,16,0,0,1,56.43,70.72Z"/><path class="cls-14" d="M49.34,72.49c4.44,2.62,10.2.35,10.2.35A8.4,8.4,0,0,1,49.34,72.49Z"/><path class="cls-14" d="M26.54,66h0s0,.07,0,.1.07.21.1.32a7.66,7.66,0,0,0,6.05-.83,12.45,12.45,0,0,1-6.18.31Z"/><path class="cls-14" d="M27.74,69.44a14.65,14.65,0,0,0,6.6-2.13s-4.07,1.71-7.1.86C27.36,68.48,27.63,69.13,27.74,69.44Z"/><path class="cls-14" d="M32.59,69.85a14.68,14.68,0,0,1-3.81,1.23l.31.5A9.9,9.9,0,0,0,32.59,69.85Z"/><path class="cls-6" d="M34.07,33.33S31,35,30.79,36.28s-1.07,3.88,3.55,7.12,8.28-1.3,8.56-2.27-.51-.11-.51-.11l-4.34-7.45Z"/><path class="cls-6" d="M43,35.61a4.12,4.12,0,0,0,1.47-3c0-1.94-5.17-3.9-10.59-1.44a5.35,5.35,0,0,0-3.15,5.68l4.16-3.28,6.22,1Z"/><path class="cls-6" d="M43.34,40.58a13.46,13.46,0,0,0,1.09-8c-.87-4.2-2.35,4.33-2.35,4.33l.42,1.42Z"/><path class="cls-11" d="M43.27,40.08l0-.1a8.24,8.24,0,0,0-.64-1.69,12.07,12.07,0,0,0-5-5.07,2.3,2.3,0,0,0-2.46,0l-.33.28a4.17,4.17,0,0,0-1.32,3.13,5.61,5.61,0,0,0,2.11,4.43,4.86,4.86,0,0,0,1.38.7,10.91,10.91,0,0,0,2.22.19,5.49,5.49,0,0,0,1.15-.24,8.18,8.18,0,0,0,2.78-1.58Z"/><path class="cls-12" d="M38.05,33.57l-.54-.31a2.31,2.31,0,0,0-2.47,0,3,3,0,0,0-.33.28,4.05,4.05,0,0,0-1.27,3.12,5.77,5.77,0,0,0,.3,1.68C33.44,35.65,35.67,32.76,38.05,33.57Z"/><path class="cls-15" d="M40.27,35a3.45,3.45,0,0,0-2.91,1.83,2.53,2.53,0,0,0,1.26,3.65,3.33,3.33,0,0,0,4-1.65,2.31,2.31,0,0,0,.16-.41A20.87,20.87,0,0,0,40.27,35Z"/><path class="cls-16" d="M40.17,35.1a3.22,3.22,0,0,0-2.85,1.74A2.69,2.69,0,0,0,37.16,39a4.21,4.21,0,0,0,3.58-3.2Z"/><path class="cls-14" d="M42.62,38.37a3.19,3.19,0,0,1-.19.48,3.07,3.07,0,0,1-1.62,1.47,2.88,2.88,0,0,1-2.14,0,2.4,2.4,0,0,1-1.41-1.43,2.59,2.59,0,0,1,.16-2,3.16,3.16,0,0,1,.64-.86,3.2,3.2,0,0,1,1-.62,3,3,0,0,1,1.21-.21L40.07,35a3.28,3.28,0,0,0-1.1.23,3.4,3.4,0,0,0-1.75,1.59,2.65,2.65,0,0,0,1.35,3.75,3.1,3.1,0,0,0,2.3,0,3.32,3.32,0,0,0,1.75-1.59,2.26,2.26,0,0,0,.13-.33Z"/><path class="cls-14" d="M41.7,37l-.4-.54a2.1,2.1,0,0,0-.5-.31,2.14,2.14,0,0,0-2.62,1,1.71,1.71,0,0,0,.87,2.42,2.13,2.13,0,0,0,2.61-1.05A1.77,1.77,0,0,0,41.7,37Z"/><path class="cls-17" d="M38.88,36.35a.56.56,0,0,1-.26.73.53.53,0,0,1-.71-.29.56.56,0,0,1,.26-.73A.52.52,0,0,1,38.88,36.35Z"/><path class="cls-17" d="M40.93,39.12a.28.28,0,1,1-.51.23.31.31,0,0,1,.14-.39A.28.28,0,0,1,40.93,39.12Z"/><path class="cls-14" d="M43.25,40s-1.33-3.81-3.88-5.49c-2.29-1.52-3.48-2.48-5.22-.2s.23,6.19,1.71,6.91,4.33,1.12,7.36-1.44l.05.32.07.47a9,9,0,0,1-1,.44,7.86,7.86,0,0,1-4.12,1.37,5.06,5.06,0,0,1-4-1.66c-1.43-1.29-1.21-4.12-1.06-4.61a5.54,5.54,0,0,1,1.1-2.34c.78-.88.54-.49.54-.49a1.84,1.84,0,0,0-.75,0,2.37,2.37,0,0,1,1.87-.69,6.3,6.3,0,0,1,3.31,1.26C40.17,34.6,43,37.42,43.25,40Z"/><path class="cls-6" d="M59.06,37.7s-2,3.43-.19,8.7c.21.58.14-3.72,1.93-5.84,2-2.35,5.83-2.58,5.83-2.58s4.29-.18,6,1.73a15.71,15.71,0,0,1,2.54,3.93,7.85,7.85,0,0,0-1.82-7.1c-2-2.19-4.38-2.87-8.08-2.41C65.27,34.13,60.28,35.1,59.06,37.7Z"/><path class="cls-14" d="M67.93,36.29c-2.41-.18-6.74,2.62-7.3,2.93s-1.48,0-1.5-1.84a4.64,4.64,0,0,0,.32,3.26,2,2,0,0,1-.77-1.19c0,.91.47,2.89,1.89,2.78.83-.06,3.1-2.7,5.41-3.47a7.25,7.25,0,0,1,7.54,1.87S71.57,36.56,67.93,36.29Z"/><path class="cls-18" d="M32.6,52.51a3.43,3.43,0,0,0-2.09,2.71c-.13,1.93,4.45,11.1,9.79,12.62S55,61.59,56.55,60c1.22-1.31.25-4-1.32-3.31s-11.56,3.2-14.34,2.59S36,56.41,32.6,52.51Z"/><path class="cls-14" d="M36.71,31.48c2.5-.18,5.43,2.71,6,3s1.52,0,1.76-2A5.27,5.27,0,0,1,43.7,36a2.46,2.46,0,0,0,.94-1.26c-.12,1-.84,3.06-2.27,2.93-.85-.07-1.69-2.77-4-3.59C33.92,32.47,30.46,36,30.46,36S33,31.75,36.71,31.48Z"/><path class="cls-18" d="M30.28,55.27S26.49,59.85,26,63.69s3.9,9.12,4.62,10a16.52,16.52,0,0,1,10.07-2s3.34.86,7.93,4.59S63,73.39,63,73.39a8.55,8.55,0,0,0,3.56-10.45,10.36,10.36,0,0,0-9.26-7.15L57,57"/><path class="cls-18" d="M67.08,65S70.08,60,71.4,59l1.74-1.27s2.17.66,2.77,4.2a27.36,27.36,0,0,0,1.45,5.55s1.49,1.45,6.94-2l1.78-1.34-1.23,1.94S88.21,63.39,89,60s.47-2.26.47-2.26.42,3.23,0,4.22c0,0,.39-5.15.61-7.39.18-1.79,0-6.52,0-6.52L91,50.39S89,39.68,86.47,35.92s-.93-1.52-.93-1.52,1.29,2.26,2.9,1.9,9.12-4,10.58-10.55c0,0,.54-2.91,0-3.8"/><path class="cls-18" d="M84.77,33.53s5.68,5.39,8.57,11.32a20.51,20.51,0,0,1,1.78,11.71"/><path class="cls-7" d="M40.62,68.07a15.68,15.68,0,0,0,.07,3.58"/><path class="cls-19" d="M47.62,15.24S43,12.75,41.49,10.6c0,0-3.32-4-3.75-4.56S36.06,2.67,33.31,4l-.23.12a6.39,6.39,0,0,0-1,.68c-3.59,3-4.78,8.51-4.34,13.1a9.87,9.87,0,0,0,6,7.38l1.79-1.61,3-2.95a15.41,15.41,0,0,1-2.39-6.24c-.29-3.18,0-6.33-.49-8.07A3.75,3.75,0,0,0,33.29,4"/><path class="cls-18" d="M34.39,49.45,32.86,51.4a8.44,8.44,0,0,0-4.33,2.65,10.62,10.62,0,0,0-2.08,5c-.29,1.58-1.05,1.28-1.05,1.28a9.63,9.63,0,0,1-4.11-6.75,4.07,4.07,0,0,0-.12,2,6,6,0,0,1-.36-3.77,7.25,7.25,0,0,0-.71,2.71c0,1.28-.35-5.14,1-7.24a5.52,5.52,0,0,0-1.31,2.43c-.37,1.51.77-6.77,2.7-9.08"/><path class="cls-14" d="M60,41.09s-1.13,3.53-.34,4,2.34,1.13,8,.65a6.15,6.15,0,0,0,5.84-5.16s-1.1-2-2.08-2.22L70,37.47s2.31,3.54,2.07,3.92-1.21,2.32-1.21,2.32a8.65,8.65,0,0,1-6.39,1.9c-3.9-.4-3.42-1.55-3.42-1.55l.15-2,.44-1.39Z"/><path class="cls-14" d="M33.28,33.8a6.26,6.26,0,0,0-.69,5.07c.95,2.55,3.07,3.71,6,3.85a5.61,5.61,0,0,0,4.5-1.79l-.2-.74-3.19,1.72L37,42l-2-1-1.15-1.3-.54-2.1-.12-1.47s1-2.28,1.86-2.88Z"/><path class="cls-14" d="M60.05,33.53s5-4.53,13.47-.65c0,0,3.51,2.64,4.11,4.77a10.19,10.19,0,0,0-7.21-7.31C64.41,28.77,59.66,32.35,60.05,33.53Z"/><path class="cls-14" d="M32.29,30s4.3-5.17,12.35-1.84a2,2,0,0,1,1.51,2.47s1.8-5-4.79-4.95-9.8,3.7-9.2,4.52"/><path class="cls-14" d="M63.39,26.44s8.31.34,11.08,3.51C74.47,30,72.27,24.93,63.39,26.44Z"/><path class="cls-18" d="M42.5,37.51s2.18,2.85-1.42,6.38S33.26,49,32.74,52.51"/></svg>