<svg id="Layer_1" data-name="Layer 1" xmlns="http://www.w3.org/2000/svg" viewBox="0 0 465 500"><defs><style>.cls-1{fill:#1e89e2;}.cls-2{fill:#1361bf;}.cls-3,.cls-6{fill:none;stroke-linecap:round;stroke-linejoin:round;}.cls-3{stroke:#1e89e2;stroke-width:7.55px;}.cls-4{fill:#46adf2;}.cls-5{fill:#16b3dc;}.cls-6{stroke:#4bc4d3;stroke-width:1.89px;}</style></defs><path class="cls-1" d="M228.45,180.75a277.19,277.19,0,0,0-11.24,34.92,211.38,211.38,0,0,0-5.68,36.12c-1.71,24.45.66,49.34,3.57,74.18s6.43,49.75,9.37,74.69,5.57,49.92,7.73,74.93q-5.1-37.3-11.44-74.39c-4.18-24.74-8.87-49.36-13.09-74.17-2.08-12.41-4-24.88-5.43-37.5a294.6,294.6,0,0,1-2-38.24,222.82,222.82,0,0,1,4.1-38.42,289.76,289.76,0,0,1,10-37.24Z"/><path class="cls-1" d="M251.68,154.33c2.8,6.18,5.55,12.39,7.86,18.8,1.23,3.17,2.25,6.43,3.34,9.65.52,1.62,1,3.26,1.48,4.89s1,3.26,1.38,4.91l1.28,4.94,1.1,5c.39,1.65.72,3.32,1,5s.63,3.33.91,5c.5,3.35,1.07,6.69,1.43,10,.19,1.68.43,3.35.58,5l.46,5a378.66,378.66,0,0,1,.94,40.09c-.31,13.29-1.06,26.51-1.94,39.7-1.81,26.37-4,52.63-6,78.93s-3.7,52.6-5.1,78.94q.22-39.56,1.35-79.13c.7-26.37,1.68-52.75,2.23-79.07.26-13.15.38-26.29.06-39.37a368.94,368.94,0,0,0-2.75-38.9l-.66-4.79c-.22-1.6-.53-3.18-.78-4.76-.49-3.18-1.19-6.32-1.81-9.46-.34-1.57-.73-3.12-1.09-4.68s-.73-3.12-1.17-4.65l-1.26-4.63-1.43-4.57c-.45-1.53-1-3-1.5-4.54s-1-3-1.6-4.51c-1.17-3-2.26-6-3.57-8.88-2.44-5.9-5.31-11.62-8.22-17.32Z"/><path class="cls-1" d="M296,149.73c5.95,4.54,11.85,9.17,17.63,14s11.43,9.85,16.87,15.17a170.7,170.7,0,0,1,15.44,17,97,97,0,0,1,12.33,20,74.11,74.11,0,0,1,3.92,11.37,65.94,65.94,0,0,1,1.8,11.9,69.15,69.15,0,0,1-.3,11.88,92.12,92.12,0,0,1-1.93,11.49c-.85,3.75-1.88,7.43-3,11s-2.37,7.17-3.64,10.69c-2.58,7-5.36,13.91-8.13,20.76-5.57,13.7-11.07,27.33-16,41.19s-9.31,27.9-13,42.16c-1.85,7.12-3.56,14.28-5.07,21.49s-2.89,14.45-4.12,21.72q-3.62,21.83-5.51,43.94,1-22.14,3.65-44.21c.93-7.34,2-14.67,3.22-22s2.62-14.59,4.18-21.84c3.11-14.51,6.95-28.86,11.31-43.06S335,316.32,340,302.42c2.48-6.95,4.93-13.88,7.15-20.83a171.34,171.34,0,0,0,5.47-20.88,83,83,0,0,0,1.31-10.41,59.35,59.35,0,0,0-.18-10.25,55.47,55.47,0,0,0-1.93-9.91,64,64,0,0,0-3.7-9.41,86.2,86.2,0,0,0-11.6-17.12,160.69,160.69,0,0,0-15-15.15c-5.34-4.79-10.94-9.35-16.68-13.77s-11.67-8.65-17.65-12.82Z"/><path class="cls-1" d="M178.17,171c-4.19,5.34-8.37,10.67-12.22,16s-7.31,10.78-9.37,16.26l-.77,2.06-.57,2.1-.29,1-.19,1.08-.39,2.16A59.66,59.66,0,0,0,154,221c.21,6.42,1,13.16,1.82,19.91,1.66,13.55,3.34,27.24,4.59,40.93s2.21,27.42,2.94,41.13c2.79,54.86,2,109.68,0,164.38-.48-54.73-2.17-109.49-7.43-163.82-1.35-13.57-2.89-27.12-4.77-40.6S147,256,144.71,242.48c-1.11-6.79-2.28-13.61-2.85-20.86a72.64,72.64,0,0,1-.07-11.25l.37-2.91.2-1.45.31-1.45.65-2.88.89-2.8.45-1.4.53-1.33,1.1-2.67c.79-1.71,1.63-3.38,2.47-5s1.79-3.2,2.71-4.75l2.84-4.56c3.86-5.93,7.87-11.57,11.88-17.18Z"/><path class="cls-1" d="M138.74,146.84c-12.19,7.86-24.09,16.13-34.83,25.5s-20.37,19.85-26.34,32.12c-.79,1.52-1.4,3.1-2.07,4.66s-1.2,3.17-1.65,4.81-.89,3.28-1.3,4.93-.67,3.34-.86,5A69.53,69.53,0,0,0,71,234.25a96,96,0,0,0,.61,10.53A182,182,0,0,0,75.43,266c1.63,7.09,3.53,14.18,5.46,21.27,3.89,14.19,7.92,28.44,11.44,42.82s6.6,28.88,9,43.47,4.23,29.29,5.45,44,1.77,29.49,1.82,44.23q-1-22.1-3.68-44c-1.85-14.6-4.24-29.12-7.28-43.5S91,345.66,86.89,331.56,78.21,303.5,73.7,289.42c-2.24-7-4.47-14.12-6.45-21.32A190.51,190.51,0,0,1,62.36,246,103.72,103.72,0,0,1,61.2,234.5a80.9,80.9,0,0,1,.24-11.74c.15-2,.47-3.93.75-5.89s.74-3.9,1.27-5.82,1.1-3.82,1.7-5.72,1.35-3.75,2.18-5.55a93.61,93.61,0,0,1,12.15-20.14,150.78,150.78,0,0,1,15.57-17c11.07-10.51,23.09-19.62,35.32-28.27Z"/><path class="cls-1" d="M326.61,126.81c12.65,8.93,25.18,18.11,37.12,28.31A208.07,208.07,0,0,1,381,171.44a104.06,104.06,0,0,1,14.59,19.48,69.78,69.78,0,0,1,5.14,11.41,62.3,62.3,0,0,1,2.76,12.26,70.48,70.48,0,0,1,.35,12.39,103,103,0,0,1-1.53,12,197.94,197.94,0,0,1-6,22.77c-2.33,7.4-4.86,14.67-7.38,21.93-5.05,14.49-10.06,28.93-14.6,43.54q-3.42,10.93-6.5,22T362,371.41a789,789,0,0,0-16.43,90.41,790.26,790.26,0,0,1,12.77-91.23q2.26-11.31,4.93-22.54t5.64-22.4c4-14.87,8.41-29.62,12.87-44.29,2.22-7.34,4.43-14.66,6.42-22a190.66,190.66,0,0,0,4.8-21.94,91.33,91.33,0,0,0,.94-10.86,59.57,59.57,0,0,0-.73-10.56A50.87,50.87,0,0,0,390.53,206a59,59,0,0,0-4.7-9.36,92.73,92.73,0,0,0-13.65-16.71,195.37,195.37,0,0,0-16.79-14.64c-11.78-9.27-24.39-17.75-37.15-26Z"/><path class="cls-2" d="M161.87,143.68a4.19,4.19,0,0,0-6.89-1.24c-9.76,10.47-23.13,16.13-37.83,7.84-23.7-13.37-25.61-41.64-16.35-65.45,20.13-51.78,71-66.51,121.79-71.19,49.69-4.58,98,6.42,125,50.54,11.13,18.25,17.28,36.66,13.95,58.13-2.48,16-12.12,27.74-28.64,25.45a4.16,4.16,0,0,0-4.23,2.18c-10.15,18.95-44,32.65-60.17,15.55a4.26,4.26,0,0,0-5.54-.61c-10.55,7.32-17.65,16.42-32.29,17.71-11.3,1-20.88-1.61-30.66-6.58C185,168.38,168.67,159.39,161.87,143.68Z"/><path class="cls-1" d="M364.29,131.62a73.16,73.16,0,0,0-3.48-36,73,73,0,0,1,.69,26.66c-2.42,15.62-11.72,27.24-27.6,25.57a6,6,0,0,0-5.79,3c-10.78,18.54-44,31.54-59.84,14.42a3.89,3.89,0,0,0-5-.62c-10.73,7.35-17.82,16.61-32.6,17.92-11.3,1-20.88-1.61-30.66-6.58-15.3-7.78-31.95-17-38.49-33.29a3.46,3.46,0,0,0-5.79-1.05c-9.82,11-23.48,17.1-38.54,8.61-19-10.72-24-31-20.45-50.91-6.61,22.3-3,46.94,19.08,59.23,16.6,9.25,31.45,1.39,41.51-11.19a1.36,1.36,0,0,1,2.36.46c5.67,18.47,23.87,28.45,40.51,36.83,10,5,19.73,7.66,31.22,6.71,14.56-1.2,21.75-9.91,32.07-17.1a5.33,5.33,0,0,1,6.78.58c16.41,16.2,49.29,3.51,60.12-14.7a6.32,6.32,0,0,1,6-3.08C352.51,158.79,361.89,147.22,364.29,131.62Z"/><path class="cls-3" d="M152.52,57.56c5.39,27.86,32.75,37.88,58.57,40.75a45,45,0,0,0,21.37-3c6.49-2.74,10-9.78,16.2-11.69,14.33-4.38,30.86,13.57,46.42,7.1,2.87-1.2,4.37-4.65,7.27-5.77,3.77-1.46,7.53,0,11.27-.76,8.23-1.56,20.18-11.06,15.12-20.13"/><path class="cls-1" d="M219.77,70.36c-9.94.67-15.17,6.47-25.58,3.25-4.86-1.51-18.37-7-21.12-11.19C162.2,45.85,194.14,32.9,205.84,32.13c10.43-.68,20.5,2,30.88,2.72,16.2,1.15,32.49-.6,48.73,2.47C294,39,314.58,40.61,315,52.52c.23,6.83-11.52,15-16.7,18.06-14,8.19-26.27.64-39.72-5.33C244.32,58.93,231.34,66.78,219.77,70.36Z"/><path class="cls-4" d="M203.38,42.08a8.13,8.13,0,0,1,3.59.44c8.32,1.83,15.37,4.77,4.5,12.61-4.28,3.09-15.33,4.58-21.08,1.63a4.45,4.45,0,0,1-1.54-6.47c4.27-6.3,7.46-7.45,14.53-8.21Z"/><path class="cls-4" d="M276,61.82c7-2.74,10-.15,17.71,2a1.58,1.58,0,0,1,.93,2.36c-3,4.77-10.71.87-15.83,1.52a5.37,5.37,0,0,1-3.88-.91c-.61-.44-1.22-.82-1.79-1.27a1.37,1.37,0,0,1,.15-2.26l1.12-.68A10.7,10.7,0,0,1,276,61.82Z"/><path class="cls-5" d="M277.23,153.11a8.3,8.3,0,0,0,.63,10c4.28,5.12,11.63,6.66,18.17,2.77,4.52-2.69,4.81-8.29,2.66-12.75-2.43-5.05-9.77-6.38-14.92-5A12,12,0,0,0,277.23,153.11Z"/><path class="cls-5" d="M303.19,146.7a1.1,1.1,0,0,0-.25.92c.6,4,.57,9.34,4.55,11.39,2.92,1.5,5.92.8,8.58-.73a15.88,15.88,0,0,0,7.66-16.17c-1.26-8.2-6.13-4.42-10.28-.65-2.16,1.95-3.88,3.48-6.75,4.15C305.39,145.92,303.9,145.94,303.19,146.7Z"/><path class="cls-6" d="M329.77,132.55a47.23,47.23,0,0,1,1.07,7.14"/><path class="cls-6" d="M326.35,119.34a24.34,24.34,0,0,1,1.78,5.59"/><path class="cls-6" d="M265.84,150.85a42.52,42.52,0,0,1-.16,6.51"/><path class="cls-6" d="M263.86,135.91c.7,2.31,1.59,4.22,1.23,6.49"/><path class="cls-6" d="M262,126.5c.13.93.25,1.91.36,2.85"/><path class="cls-6" d="M260.73,120c.07.71.13,1.41.19,2.12"/><path class="cls-6" d="M258.21,113.22l.84,2.26"/><path class="cls-6" d="M324.65,113.43l.75,1.21"/><path class="cls-6" d="M323,107.19l.52,2.18"/><path class="cls-6" d="M321.76,103.79l.17.73"/><path class="cls-6" d="M160.65,128a5.51,5.51,0,0,0-.52,3.67"/><path class="cls-6" d="M162,120.78l-.54,2.29"/><path class="cls-6" d="M163.8,113.28l-.62,2.61"/><path class="cls-6" d="M165.59,107.16,164.8,109"/><path class="cls-6" d="M167.46,100.71l-.87,2.21"/><ellipse class="cls-5" cx="282.98" cy="141.29" rx="5.2" ry="5.83" transform="translate(80.35 384.16) rotate(-76.69)"/><path class="cls-5" d="M284.34,128.35a3,3,0,1,1-2.24-3.63A3,3,0,0,1,284.34,128.35Z"/><ellipse class="cls-5" cx="301.31" cy="135.3" rx="5.87" ry="5.52" transform="translate(100.3 397.38) rotate(-76.69)"/><ellipse class="cls-5" cx="210.42" cy="167.89" rx="5.87" ry="5.52" transform="translate(-1.39 334.02) rotate(-76.69)"/><path class="cls-5" d="M214.79,155.56a3.1,3.1,0,1,1-2.28-3.82A3.14,3.14,0,0,1,214.79,155.56Z"/><ellipse class="cls-5" cx="232.81" cy="159.92" rx="11.76" ry="13.97" transform="translate(23.6 349.67) rotate(-76.69)"/><path class="cls-5" d="M317.33,130.3a3.34,3.34,0,1,1-2.54-3.7A3.18,3.18,0,0,1,317.33,130.3Z"/><path class="cls-5" d="M299.83,120.88c.56,1.76,0,3.53-1.35,4s-2.83-.67-3.4-2.43,0-3.53,1.34-4S299.26,119.12,299.83,120.88Z"/><path class="cls-5" d="M312.06,117.54c.35,1.63-.35,3.16-1.57,3.43s-2.5-.84-2.85-2.47.34-3.16,1.56-3.43S311.7,115.91,312.06,117.54Z"/><path class="cls-5" d="M307.55,108.91a1.39,1.39,0,1,1-1-1.75A1.43,1.43,0,0,1,307.55,108.91Z"/><path class="cls-5" d="M295.87,112.13a1.48,1.48,0,1,1-1.09-1.81A1.49,1.49,0,0,1,295.87,112.13Z"/><path class="cls-5" d="M282.12,119.19a1.57,1.57,0,1,1-1.7-1.7A1.72,1.72,0,0,1,282.12,119.19Z"/><path class="cls-5" d="M279.72,111.68a1.37,1.37,0,0,1-.87,1.68c-.62.11-1.24-.47-1.39-1.29a1.37,1.37,0,0,1,.87-1.68C279,110.28,279.58,110.86,279.72,111.68Z"/><path class="cls-5" d="M253.14,134.62A3,3,0,1,1,250.9,131,3,3,0,0,1,253.14,134.62Z"/><path class="cls-5" d="M250.92,125.46a1.56,1.56,0,1,1-1.69-1.7A1.72,1.72,0,0,1,250.92,125.46Z"/><ellipse class="cls-5" cx="247.4" cy="118.15" rx="1.15" ry="1.51" transform="translate(-16.57 44.09) rotate(-9.86)"/><path class="cls-5" d="M191,133a5,5,0,1,1-.87-7A5,5,0,0,1,191,133Z"/><path class="cls-5" d="M189.57,120a2.57,2.57,0,1,1-1.37-3.71A2.83,2.83,0,0,1,189.57,120Z"/><ellipse class="cls-5" cx="208.53" cy="126.62" rx="3.04" ry="2.53" transform="translate(19.61 280.97) rotate(-70.51)"/><path class="cls-5" d="M191,111.15c-.35,1.33-1.45,2.19-2.45,1.92a2.57,2.57,0,1,1,2.45-1.92Z"/><path class="cls-5" d="M210.45,118.84a1.66,1.66,0,1,1-1-2.45A1.91,1.91,0,0,1,210.45,118.84Z"/><path class="cls-5" d="M210.6,111.28a1.06,1.06,0,1,1-2-.51c.19-.72.79-1.19,1.33-1A1.22,1.22,0,0,1,210.6,111.28Z"/><path class="cls-5" d="M246.59,110.49c-.19.72-.78,1.19-1.32,1a1.2,1.2,0,0,1-.65-1.55c.19-.72.78-1.19,1.33-1A1.21,1.21,0,0,1,246.59,110.49Z"/><ellipse class="cls-5" cx="232.17" cy="137.53" rx="8.2" ry="5.61" transform="matrix(1, -0.07, 0.07, 1, -8.98, 16.44)"/><ellipse class="cls-5" cx="230.51" cy="124.68" rx="5.97" ry="3.43" transform="translate(-10.09 20.8) rotate(-5.06)"/><path class="cls-5" d="M230.72,112.72c1.39.68,2.11,2.08,1.6,3.14s-2.06,1.37-3.45.7-2.11-2.08-1.6-3.14S229.33,112.05,230.72,112.72Z"/><path class="cls-5" d="M294.44,108.05a1.38,1.38,0,1,1-1.05-1.5A1.3,1.3,0,0,1,294.44,108.05Z"/><path class="cls-5" d="M292.82,103a1.28,1.28,0,0,1-1.61.87,1.22,1.22,0,1,1,.56-2.36A1.28,1.28,0,0,1,292.82,103Z"/><path class="cls-5" d="M351.17,88.78a1.38,1.38,0,1,1-1.05-1.5A1.3,1.3,0,0,1,351.17,88.78Z"/><path class="cls-5" d="M305.07,101.39a1.37,1.37,0,1,1-2.67-.63,1.36,1.36,0,0,1,1.65-1A1.38,1.38,0,0,1,305.07,101.39Z"/><path class="cls-5" d="M142.55,134.5a8.29,8.29,0,0,1-3.71,9.35c-5.65,3.55-13.12,2.74-18.13-3-3.46-4-2-9.37,1.41-13,3.88-4,11.27-3,15.73-.11A11.9,11.9,0,0,1,142.55,134.5Z"/><path class="cls-5" d="M204.52,153.06c.54,3.93-2.46,7-7.15,7.62A25.11,25.11,0,0,1,174,150.47c-3.66-5.24-.44-9.93,5-12,6.11-2.39,15.68,1.56,20.9,6.22A13.92,13.92,0,0,1,204.52,153.06Z"/><path class="cls-5" d="M119.85,120.37a1.1,1.1,0,0,1,0,.95C118,125,116.37,130,112,130.74c-3.24.53-5.87-1.07-7.93-3.35a15.9,15.9,0,0,1-2.29-17.74c3.74-7.41,7.2-2.31,10,2.56,1.44,2.52,2.6,4.51,5.13,6C118,118.94,119.41,119.42,119.85,120.37Z"/><path class="cls-5" d="M131.81,120.05c-.23,2.86,2.18,5.39,5.39,5.66s6-1.84,6.24-4.7-2.18-5.4-5.39-5.66S132.05,117.19,131.81,120.05Z"/><path class="cls-5" d="M200.33,136.25c-.24,2.86,2.17,5.39,5.38,5.66s6-1.84,6.24-4.7-2.17-5.39-5.38-5.66S200.56,133.39,200.33,136.25Z"/><path class="cls-5" d="M246.35,150.41c-.23,2.86,2.18,5.39,5.39,5.66s6-1.84,6.23-4.7-2.17-5.4-5.38-5.66S246.59,147.55,246.35,150.41Z"/><path class="cls-5" d="M140.44,108.5a3,3,0,1,0,3.26-2.76A3,3,0,0,0,140.44,108.5Z"/><ellipse class="cls-5" cx="121.29" cy="108.4" rx="5.87" ry="5.52" transform="translate(3.3 220.37) rotate(-85.29)"/><ellipse class="cls-5" cx="109.56" cy="93.91" rx="3.02" ry="3.33" transform="translate(6.97 195.38) rotate(-85.29)"/><path class="cls-5" d="M125.59,95.57c-1.09,1.5-1.06,3.37,0,4.17s2.9.25,4-1.25,1.06-3.37-.06-4.18S126.67,94.07,125.59,95.57Z"/><path class="cls-5" d="M113.65,81.66c-.85,1.44-.65,3.11.43,3.75s2.63,0,3.47-1.46.65-3.12-.43-3.75S114.49,80.22,113.65,81.66Z"/><path class="cls-5" d="M120.24,74.64a1.39,1.39,0,1,0,1.5-1.35A1.42,1.42,0,0,0,120.24,74.64Z"/><path class="cls-5" d="M130.91,88.2a1.48,1.48,0,1,0,1.59-1.38A1.48,1.48,0,0,0,130.91,88.2Z"/><path class="cls-5" d="M131.24,93.23a1.48,1.48,0,1,0,1.59-1.38A1.5,1.5,0,0,0,131.24,93.23Z"/><path class="cls-5" d="M127.32,103.85a1.48,1.48,0,1,0,1.6-1.38A1.49,1.49,0,0,0,127.32,103.85Z"/><path class="cls-5" d="M146.6,101.25a1.57,1.57,0,1,0,2.14-1.09A1.71,1.71,0,0,0,146.6,101.25Z"/><path class="cls-5" d="M151.65,95a1.19,1.19,0,1,0,1.71-.8A1.36,1.36,0,0,0,151.65,95Z"/><path class="cls-5" d="M133.74,83.14A1.37,1.37,0,1,0,135.2,82,1.3,1.3,0,0,0,133.74,83.14Z"/><path class="cls-5" d="M137.07,86.84a1.38,1.38,0,0,0,2.73.23,1.32,1.32,0,0,0-1.27-1.33A1.3,1.3,0,0,0,137.07,86.84Z"/><path class="cls-5" d="M137.86,77.56a1.38,1.38,0,1,0,1.47-1.1A1.3,1.3,0,0,0,137.86,77.56Z"/><path class="cls-5" d="M126.9,66.87a1.37,1.37,0,1,0,1.48-1.27A1.37,1.37,0,0,0,126.9,66.87Z"/><path class="cls-5" d="M130.91,61.83a1.37,1.37,0,1,0,1.48-1.26A1.38,1.38,0,0,0,130.91,61.83Z"/><path class="cls-5" d="M357.59,115.36a3.35,3.35,0,1,1-2.54-3.7A3.18,3.18,0,0,1,357.59,115.36Z"/><ellipse class="cls-5" cx="340.14" cy="137.46" rx="5.36" ry="5.19" transform="translate(128.08 436.82) rotate(-76.69)"/><path class="cls-5" d="M357.22,121.89c2.14,1.64,2.11,5.28-.07,8.12s-5.69,3.82-7.83,2.18-2.1-5.28.08-8.12S355.08,120.25,357.22,121.89Z"/><path class="cls-5" d="M355.55,103.92c.36,1.63-.34,3.17-1.56,3.43s-2.5-.83-2.86-2.46.35-3.17,1.57-3.43S355.2,102.29,355.55,103.92Z"/><path class="cls-5" d="M353.09,96.39a1.62,1.62,0,0,1-.93,2c-.72.16-1.48-.49-1.69-1.46a1.61,1.61,0,0,1,.93-2C352.12,94.77,352.88,95.42,353.09,96.39Z"/><path class="cls-5" d="M342.09,125.54a3.34,3.34,0,1,1-2.54-3.7A3.18,3.18,0,0,1,342.09,125.54Z"/><path class="cls-5" d="M337.59,106.57a1.62,1.62,0,0,1-.93,2c-.72.16-1.48-.5-1.69-1.46a1.62,1.62,0,0,1,.93-2C336.62,105,337.38,105.6,337.59,106.57Z"/><path class="cls-5" d="M335.81,100.38a1,1,0,1,1-1.27-1A1.15,1.15,0,0,1,335.81,100.38Z"/><path class="cls-5" d="M334.17,94.91a.86.86,0,1,1-1-.72A.9.9,0,0,1,334.17,94.91Z"/><path class="cls-5" d="M349.5,83.55a.86.86,0,1,1-1-.73A.9.9,0,0,1,349.5,83.55Z"/><path class="cls-5" d="M347.73,78.09a.86.86,0,1,1-1.67.36.88.88,0,0,1,.63-1.08A.89.89,0,0,1,347.73,78.09Z"/><path class="cls-5" d="M337.42,115.38a1.6,1.6,0,0,1-.92,2c-.73.16-1.49-.49-1.7-1.46a1.62,1.62,0,0,1,.93-2C336.46,113.76,337.21,114.41,337.42,115.38Z"/><ellipse class="cls-5" cx="339.98" cy="117.05" rx="1.34" ry="1.79" transform="translate(-17.15 75.29) rotate(-12.33)"/></svg>