<svg id="Layer_1" data-name="Layer 1" xmlns="http://www.w3.org/2000/svg" viewBox="0 0 140 100"><defs><style>.cls-1,.cls-4{fill:#fff;}.cls-1{stroke:#dbdbda;}.cls-1,.cls-5{stroke-miterlimit:10;stroke-width:0.5px;}.cls-2{fill:#e8e7e7;}.cls-3{fill:#323232;}.cls-4{opacity:0.71;}.cls-5{fill:#726a7f;stroke:#585261;}.cls-6{fill:#71697e;}.cls-7{fill:#2b2735;}.cls-8{fill:#fcfcfc;opacity:0.79;}.cls-9{fill:#5e576d;}.cls-10{fill:#5b5b5b;}.cls-11{fill:#333;}.cls-12{fill:#212020;}.cls-13{fill:#3e3949;}</style></defs><ellipse class="cls-1" cx="120.75" cy="29.79" rx="15.94" ry="14.92" transform="translate(85.71 149.11) rotate(-87.5)"/><path class="cls-2" d="M109.7,19.14a16.57,16.57,0,0,0-3.86,10c-.38,8.8,6,16.22,14.21,16.58a14.57,14.57,0,0,0,12.25-6C121,41.26,109.37,31,109.7,19.14Z"/><path class="cls-3" d="M128.48,34.19c-.23,5.28-4.42,9.37-9.35,9.16s-8.75-4.67-8.52-9.94S115,24,120,24.26,128.71,28.92,128.48,34.19Z"/><path class="cls-4" d="M127.59,28.78a2.81,2.81,0,1,1-2.69-2.93A2.81,2.81,0,0,1,127.59,28.78Z"/><path class="cls-4" d="M120.38,30.75a1.32,1.32,0,1,1-1.26-1.37A1.32,1.32,0,0,1,120.38,30.75Z"/><path class="cls-1" d="M82,20.66c-.3,6.75-5.67,12-12,11.71S58.73,26.4,59,19.66,64.7,7.67,71,8,82.25,13.92,82,20.66Z"/><path class="cls-2" d="M61.73,12.34A12.67,12.67,0,0,0,59,19.66C58.73,26.4,63.63,32.1,70,32.37a11.33,11.33,0,0,0,10.15-5.62C71.29,25.6,62.83,21.42,61.73,12.34Z"/><path class="cls-3" d="M76,22.33a6.2,6.2,0,1,1-12.37-.54A6.2,6.2,0,1,1,76,22.33Z"/><path class="cls-4" d="M74.91,18.38a1.89,1.89,0,1,1-1.8-2A1.89,1.89,0,0,1,74.91,18.38Z"/><path class="cls-4" d="M67.77,24.37a.88.88,0,1,1-.84-.92A.9.9,0,0,1,67.77,24.37Z"/><ellipse class="cls-5" cx="120.75" cy="29.79" rx="15.94" ry="14.92" transform="translate(85.71 149.11) rotate(-87.5)"/><path class="cls-5" d="M82,20.66c-.3,6.75-5.67,12-12,11.71S58.73,26.4,59,19.66,64.7,7.67,71,8,82.25,13.92,82,20.66Z"/><path class="cls-6" d="M80.39,4.9,90.82,13,86.87,34.21,66.05,28.44s11.52-6.91,14.38-12S80.39,4.9,80.39,4.9Z"/><path class="cls-7" d="M66.35,28.94l-.61-1c.12-.07,11.43-6.89,14.18-11.84S80.41,5,80.39,4.9a11.85,11.85,0,0,1,.55,11.77C78,21.89,66.82,28.66,66.35,28.94Z"/><path class="cls-6" d="M89,32.43S33.55,6.23,25.79,45.12C23.48,62.39,37.7,67.5,46.57,61.06c7,12.14,25.81,23.3,41.16,15.77s24.4-13.19,24.4-13.19Z"/><path class="cls-8" d="M89,32.46l0,0S41.54,9,28.11,37.84C42.1,16,73.32,27.13,89,32.46Z"/><path class="cls-9" d="M74.17,72.42C61.61,71.38,50.76,61.17,44.88,55c-11.06,7.47-20.72-3.67-18.56-12.13-.19.72-.37,1.47-.53,2.24C23.48,62.39,37.7,67.5,46.57,61.06c7,12.14,25.81,23.3,41.16,15.77s24.4-13.19,24.4-13.19l-.5-.67C98.68,66.37,88.22,72.45,74.17,72.42Z"/><path class="cls-7" d="M75.9,79.81c-12.22-.53-24.18-9.12-29.52-17.91a13.77,13.77,0,0,1-14.66.61C26.51,59.4,24.14,53,25.21,45c1.78-8.91,6.18-15.19,13.08-18.7,11.14-5.68,26.46-3.13,37.44,0A51.14,51.14,0,0,1,89,32.43c-.31-.15-31.74-14.42-50.15-5.05-6.57,3.35-10.76,9.35-12.45,17.86-1,7.46,1.16,13.41,5.95,16.26a12.64,12.64,0,0,0,13.9-.91l.53-.39.32.57c6.62,11.51,25.2,23,40.41,15.54s24.24-13.11,24.33-13.17l.63,1c-.09.06-9.24,5.78-24.45,13.23A24.72,24.72,0,0,1,75.9,79.81Z"/><path class="cls-7" d="M47.19,63.16a15.58,15.58,0,0,1-2.39-6.42l3.38,5.83Z"/><path class="cls-10" d="M36.76,33.85C32.68,39.1,40.11,49.54,47,50.79s18.72-4.91,20-10.13C68.63,33.53,42.67,26.24,36.76,33.85Z"/><path class="cls-8" d="M37.65,33c-6.28,5,3,16.69,9.35,17.83C53.89,52,65.72,45.88,67,40.66a2.67,2.67,0,0,0,0-.89C64.46,42.33,34.4,38.72,37.65,33Z"/><path class="cls-11" d="M37.65,33c-6.28,5,3,16.69,9.35,17.83C53.89,52,65.72,45.88,67,40.66a2.67,2.67,0,0,0,0-.89C65.07,43.33,33.15,38.86,37.65,33Z"/><path class="cls-12" d="M47,51.39l-.14,0c-4.36-.79-9.25-5.26-11.13-10.17-1.16-3-1-5.77.53-7.71h0c4.22-5.42,17.4-3.69,25-.05,4.62,2.2,6.83,4.82,6.23,7.36C66.2,46.4,54.19,52.59,47,51.39ZM37.22,34.21c-1.25,1.6-1.37,3.93-.36,6.57,1.74,4.57,6.24,8.71,10.24,9.44,6.37,1.12,18.11-4.73,19.28-9.69.45-1.89-1.64-4.15-5.59-6-8-3.84-20.07-4.79-23.57-.28Z"/><path class="cls-6" d="M98.89,61.55s13.48-12.33,19.72-5.68S115.5,76.1,115.5,76.1C109.56,60.58,98.89,61.55,98.89,61.55Z"/><path class="cls-7" d="M115.5,76.1C110.38,62.24,99,61.55,98.89,61.55a14,14,0,0,1,11.29,3.94C115.53,70.52,115.5,76.1,115.5,76.1Z"/><path class="cls-13" d="M16.5,77.9a20,20,0,0,1,2.88-10.65c6.22-9,17-11.1,17.12-11.13.37-.13.63,1.05.21,1.15C36.54,57.3,18.94,60.79,16.5,77.9Z"/><path class="cls-13" d="M4.58,56.61s2.37-5.68,11.14-8c10-2.39,20.05,1.43,20.19,1.48.63.17.14,1.25-.42,1.09C35.29,51.11,15.73,43.68,4.58,56.61Z"/><path class="cls-13" d="M33.22,42.75c-.38-.63-9.44-15.17-29.07-9.1,0,0,3.08-2.56,10.7-2.57A25.61,25.61,0,0,1,34.22,42.14C34.43,42.55,33.4,43,33.22,42.75Z"/><path class="cls-13" d="M114.07,63.35C97.58,45.63,70.79,50.72,70.53,50.77c-.46-.06-.62-.8-.23-1.15.21,0,17-3.23,32.35,4A27.2,27.2,0,0,1,114.07,63.35Z"/><path class="cls-13" d="M114,78.49C99.13,54.85,69.53,58.58,69.23,58.63c-.51-.06-.6-1-.16-1.16.24,0,18.48-2.34,33.77,7.89A37.23,37.23,0,0,1,114,78.49Z"/><path class="cls-13" d="M88.79,95.1c-.88-18.82-22-30.76-22.25-30.88-.32-.29.31-1.17.57-1s12.42,7,18.93,18.68A24.82,24.82,0,0,1,88.79,95.1Z"/><path class="cls-6" d="M105.3,41.63l12.58,7.52,18-1.73A38.61,38.61,0,0,0,105.3,41.63Z"/><path class="cls-7" d="M135.85,47.42a39.63,39.63,0,0,0-30.55-5.79s4-2.51,11.1-2A41.22,41.22,0,0,1,127.89,42,19.42,19.42,0,0,1,135.85,47.42Z"/></svg>