<svg id="Layer_1" data-name="Layer 1" xmlns="http://www.w3.org/2000/svg" viewBox="0 0 80 40"><defs><style>.cls-1,.cls-3{fill:#fff;}.cls-1{stroke:#752917;}.cls-1,.cls-4{stroke-miterlimit:10;stroke-width:0.5px;}.cls-2{fill:#261708;}.cls-4{fill:#e56e43;stroke:#a54325;}</style></defs><path class="cls-1" d="M72.92,14.59c0,5.61-3.37,11.83-10.47,13-3.46.58-6.06.13-7.57-2.18a9.11,9.11,0,0,1-1.31-3.73c-.71-4.54.18-11.44,7.81-14.2a9.47,9.47,0,0,1,8.14,1.2A7.07,7.07,0,0,1,72.92,14.59Z"/><ellipse class="cls-2" cx="61.17" cy="17.75" rx="7.13" ry="7.99"/><ellipse class="cls-3" cx="65.61" cy="15.04" rx="1.86" ry="2.36"/><path class="cls-1" d="M30.27,26.81a11.88,11.88,0,0,1-.38,1.51c-1.38,4.23-4.89,5.13-10,4.41-8.3-1.19-12.25-7.41-12.25-13a5.54,5.54,0,0,1,.4-2.08c1.68-4.27,8.36-6.48,13.09-5C30.06,15.38,31.1,22.28,30.27,26.81Z"/><ellipse class="cls-2" cx="18.48" cy="21.24" rx="7.37" ry="7.99"/><ellipse class="cls-3" cx="23.11" cy="18.83" rx="2.18" ry="2.36"/><path class="cls-4" d="M30.27,26.81a11.88,11.88,0,0,1-.38,1.51A38.92,38.92,0,0,1,23.6,27a36.9,36.9,0,0,1-12.44-6.53,32.68,32.68,0,0,1-3.11-2.82c1.68-4.27,8.36-6.48,13.09-5C30.06,15.38,31.1,22.28,30.27,26.81Z"/><path class="cls-4" d="M69.52,8.69a25.32,25.32,0,0,1-2,5.46,2.1,2.1,0,0,1-.13.26,23.3,23.3,0,0,1-1.83,3,22.73,22.73,0,0,1-8.33,7,21.87,21.87,0,0,1-2.36,1,9.11,9.11,0,0,1-1.31-3.73c-.71-4.54.18-11.44,7.81-14.2A9.47,9.47,0,0,1,69.52,8.69Z"/></svg>