<svg id="Layer_1" data-name="Layer 1" xmlns="http://www.w3.org/2000/svg" width="440" height="350" viewBox="0 0 440 350">
  <defs>
    <style>
      .cls-1 {
        opacity: 0.2;
      }

      .cls-2 {
        fill: #910000;
      }

      .cls-3 {
        fill: #bf0000;
      }

      .cls-4 {
        fill: #f33;
      }

      .cls-5, .cls-7 {
        fill: #d80000;
      }

      .cls-6 {
        fill: #ef0a0a;
      }

      .cls-7 {
        stroke: #890300;
        stroke-width: 2px;
      }

      .cls-7, .cls-8, .cls-9 {
        stroke-miterlimit: 10;
      }

      .cls-8 {
        fill: none;
        stroke: #9e0000;
      }

      .cls-8, .cls-9 {
        stroke-width: 4px;
      }

      .cls-9 {
        fill: #4f0000;
        stroke: #770101;
      }

      .cls-10 {
        fill: #efefef;
      }

      .cls-11 {
        fill: #ea2458;
      }

      .cls-12 {
        fill: #9e0000;
      }
    </style>
  </defs>
  <g>
    <ellipse class="cls-1" cx="215.85" cy="304.82" rx="212.75" ry="39.6"/>
    <g>
      <g>
        <g>
          <path class="cls-2" d="M48.56,156.76s27.17,11.18,48,2.35c2.93-1.25-1.06-9.34-3.48-10.84-5.7-3.56-17.4-8.08-23.72-12.09C64,132.74,44.78,149.22,48.56,156.76Z"/>
          <path class="cls-3" d="M95.17,158.23C66.05,165.53,50.7,156,49.4,154.8a5.09,5.09,0,0,1,.28-3.77c1.93-5.05,8.44-11,13.3-13.44,2.19-1.09,4-1.44,4.77-.94,5.78,3.67,21.66,12.95,25,13.73C94.81,151.31,96.59,157.75,95.17,158.23Z"/>
          <path class="cls-4" d="M84.81,153.51c.1,2.91-7.35,6.68-16,5.18s-13.64-7.33-12.12-10,7.8-1.92,14.89-.77S84.76,150.52,84.81,153.51Z"/>
        </g>
        <g>
          <path class="cls-2" d="M77.66,164.39s27.13,10.35,47.9,3.84c2.92-.92-1.08-7.8-3.49-9.14-5.71-3.19-17.37-7.39-23.69-11C93,145.06,73.87,158,77.66,164.39Z"/>
          <path class="cls-3" d="M124.16,167.44c-29,4.92-44.37-3.57-45.67-4.65a3.6,3.6,0,0,1,.27-3.13c1.93-4.11,8.4-8.82,13.25-10.64,2.19-.81,4-1,4.76-.58,5.78,3.27,21.63,11.6,24.93,12.38C123.78,161.69,125.57,167.1,124.16,167.44Z"/>
          <path class="cls-4" d="M113.81,163.12c.11,2.42-7.32,5.25-16,3.67S84.2,160.16,85.72,158s7.78-1.27,14.85-.05S113.76,160.63,113.81,163.12Z"/>
        </g>
        <g>
          <g>
            <path class="cls-2" d="M36.06,84.81s3.5-5,4.67-6,1-3.36,2.49-5.19a8.65,8.65,0,0,0,2-4.41c.49-1.85.14-3.39,1.75-4.79s2.32-2,1.72-4.3,2-2.51,2.29-4.67-.63-3.33.76-5,.08-3.6.79-5.09a7.05,7.05,0,0,0,.64-4.53c-.28-1.74,0-4.49.92-5.54s.3-6.05-.09-7.31.29-5.48,4.06-.48A56.64,56.64,0,0,1,66,45c2.4,8.7,3.4,19.91.47,30.69-6,21.53-14.9,30-21.45,33-3.46,1.58-8.45-1.75-11.23-6.53S30.51,91,36.06,84.81Z"/>
            <path class="cls-5" d="M64,45.08a55.55,55.55,0,0,0-7.7-17,14.65,14.65,0,0,0-1-1.17,1.87,1.87,0,0,0,0,.27A21.45,21.45,0,0,1,56,31.23c.2,3.12-.37,4.19-.9,4.75a7.26,7.26,0,0,0-.52,4.22,8.6,8.6,0,0,1-.77,5.45,3.16,3.16,0,0,0,0,1.26,5.26,5.26,0,0,1-1,4.15c-.48.58-.47.91-.4,2a10.29,10.29,0,0,1,0,2.23,5,5,0,0,1-1.77,3.07c-.67.65-.66.69-.57,1,.87,3.22-.57,4.46-2.23,5.9-.66.57-.77,1.11-.93,2.28a14.82,14.82,0,0,1-.31,1.7c-.07.23-.12.45-.17.64a9.13,9.13,0,0,1-2.18,4.36,6.75,6.75,0,0,0-1.06,2.4l0,.07C47.92,77.89,56,81.91,59.9,87.91a93.55,93.55,0,0,0,4.6-13C67.86,62.61,65.64,50.94,64,45.08Z"/>
            <path class="cls-4" d="M64.7,59.81c-.34,12.13-6,23.82-7.13,22.67-8.14-8.48.52-11.66.8-22.77s-.91-20.3.82-20.76S65.12,47.68,64.7,59.81Z"/>
          </g>
          <g>
            <path class="cls-2" d="M39.56,17.41C22.39,32.22-3.15,52.11,3,99.63c4.15,19.25,14.11,28.56,22.93,29s31.56-1.36,34-33.74C59,84.68,44.73,78,39.33,77.37c-3.33-.37-1-5.24-2-6.94-1.15-1.85.74-4.16.15-5.88S36.29,61,37,59a13.14,13.14,0,0,0,.49-6.66c-.49-1.7-.77-2.73.33-4.63s1.42-4.9.78-6.3,0-3.61,1.3-5.8.48-2.89-.18-4.7a4.89,4.89,0,0,1,.75-4.58C41.21,25.39,43.75,13.79,39.56,17.41Z"/>
            <path class="cls-5" d="M28,127.07c-.86,0-1.74,0-2.6,0-4.11-.21-8.36-2.64-12-6.86C9.14,115.23,5.91,108,4,99.37c-2.58-19.91.2-36.57,8.48-50.92C19.63,36.1,29.43,27.69,38.09,20.27l1.39-1.2a16.09,16.09,0,0,1-.25,2.67,17.93,17.93,0,0,1-.93,3.74,6.43,6.43,0,0,0-.95,6c.14.39.29.73.42,1,.45,1,.55,1.25-.11,2.34-1,1.66-2.51,4.82-1.39,7.25A6.93,6.93,0,0,1,35.56,47c-1.46,2.53-1,4.06-.47,5.84a11.57,11.57,0,0,1-.47,5.73c-.81,2.37-.21,4.54.48,6.55a4.18,4.18,0,0,1-.24,1.67,5.6,5.6,0,0,0,.22,4.51,6.55,6.55,0,0,1,0,1.9c-.14,1.89-.37,8.39,3.33,8.81,2.48.28,7.09-.94,11.16,1.88,3.35,2.33,7.44,6.13,8,11.08-1,12.32-5,21.26-12.06,26.57C39.6,126,32.71,127,28,127.07Z"/>
            <path class="cls-4" d="M27.33,80.44c-1.83-2.24-1.77-5.61-1.78-8.63-.1-28,8.81-40.63,7.63-41.19-3.9-2.41-21,13.91-24.59,38.38-6.33,43.51,11.12,49.78,14.83,49.71,6.38-.12,11.51-8.77,11.43-19.33C34.77,89.23,31,84.94,27.33,80.44Z"/>
          </g>
        </g>
        <path class="cls-2" d="M49.57,159.45c-4.61-3-10.26-4.18-14.34-16.35-1.88-5.62-11.17-12.83-9-15.82s14.11-14.63,20.39-8.11c3.69,5.82,6.11,7.41,9.14,7.93s15,3,16.48,7-8.8,6.9-13.16,12.28S53.8,162.16,49.57,159.45Z"/>
        <path class="cls-5" d="M50.84,157.79a1.34,1.34,0,0,1-.45-.21c-.8-.53-1.64-1-2.44-1.47-4-2.32-8.18-4.7-11.49-14.56-.93-2.74-2.19-4.1-4.38-6.87a49.41,49.41,0,0,1-3.14-4.21c-2-3.16,4.73-8.2,9-10.26,4.92-2.37,7-.5,7.77.29,3.63,5.74,5.29,6.51,9.18,7.23A62.57,62.57,0,0,1,63.54,130c5.63,2,6.61,3.62,6.77,4.09.08.21.21.58-.76,1.53a30.64,30.64,0,0,1-4.26,3c-2.7,1.71-5.75,3.65-7.78,6.2a32,32,0,0,0-4.13,8C52.67,154.65,51.56,157.42,50.84,157.79Z"/>
        <path class="cls-4" d="M45.33,127.62c-4.4-3.49-7.5-6.68-11.73-2.83-4,3.58-2.14,7.33,1.62,11.43a19.16,19.16,0,0,1,2.53,2.59c.91,1.48,1,3.53,1.82,5.43,2.55,6,9.06,11.46,11,8.45,4.7-7.27,3.66-8.31,1.1-14.28C50.88,136.53,50.43,131.65,45.33,127.62Z"/>
      </g>
      <g>
        <path class="cls-2" d="M327.65,114.26s-26,19.14-31.16,44.38c-.73,3.55,8.6,4.66,11.35,3.27,6.51-3.29,17.46-11.69,24.71-15.29C338.78,143.55,336.39,115.24,327.65,114.26Z"/>
        <path class="cls-3" d="M298.09,157.84c11.47-32.22,28.88-41.09,30.74-41.58a5,5,0,0,1,3,2.55c3.12,4.91,4.27,14.75,3.37,20.85-.4,2.76-1.19,4.66-2.11,5.12-6.64,3.28-24.19,12.79-26.87,15.48C304.21,161.69,297.64,159.48,298.09,157.84Z"/>
        <path class="cls-4" d="M308.41,150.82c-2.54-1.68-1.22-11.06,5.32-18.43s14.55-8.56,15.87-5.51-3.11,8.61-8.39,14.67S311,152.59,308.41,150.82Z"/>
        <g>
          <g>
            <path class="cls-2" d="M391.78,164.05s.54,6.78.25,8.49,1.46,3.5,1.46,6.13a9.58,9.58,0,0,0,1.31,5.15c.86,1.89,2.19,2.89,1.8,5.26s-.52,3.42,1.5,4.82,0,3.59,1.26,5.57,2.77,2.26,2.76,4.68,2.37,3,2.78,4.77a7.29,7.29,0,0,0,2.54,4.2c1.4,1.23,3.07,3.66,3,5.25s3.84,5.19,5,5.92,3.46,4.71-3,3.46a55.18,55.18,0,0,1-18.35-8.39A60.21,60.21,0,0,1,373,194.54c-9.58-22.22-8-35.83-4.65-43.23,1.77-3.92,8.11-4.95,13.62-3.13S392.2,154.82,391.78,164.05Z"/>
            <path class="cls-5" d="M395.65,217.75a53.73,53.73,0,0,0,17.8,8.15,11.07,11.07,0,0,0,1.61.21,1,1,0,0,0-.21-.2,21,21,0,0,1-3.25-2.86c-2.28-2.42-2.52-3.71-2.46-4.58a7.61,7.61,0,0,0-2.43-3.86,8.94,8.94,0,0,1-3-5.05,3.24,3.24,0,0,0-.83-1.06,5.55,5.55,0,0,1-2-4.14c0-.85-.21-1.11-1-1.91a10.38,10.38,0,0,1-1.51-1.84,5.68,5.68,0,0,1-.62-3.85c.1-1,.08-1.06-.23-1.27-2.88-2-2.54-4.08-2.15-6.52a3.32,3.32,0,0,0-.78-2.57,12.89,12.89,0,0,1-.89-1.64l-.3-.65a10.28,10.28,0,0,1-1.16-5.22,7.51,7.51,0,0,0-.74-2.77l0-.08c-4.73,2.63-14.08,5.42-21.31,3.44a101.15,101.15,0,0,0,5,14.11C380.68,206.26,390.37,214.17,395.65,217.75Z"/>
            <path class="cls-4" d="M385.16,206.17c-7.91-10.21-11.13-24.1-9.45-24,12.4.82,7.45,10,14.71,19.3s14.44,16,13.34,17.65S393,216.44,385.16,206.17Z"/>
          </g>
          <g>
            <path class="cls-2" d="M434.4,222c4.1-25.11,11.62-60.7-25.51-95-16.39-12.66-30.84-12.78-38.37-6.49s-25,25-5.15,53.37c7.65,7.67,23.91,2.36,28.75-1.21,3-2.2,4.36,3.54,6.36,4.16,2.19.66,2.2,4,3.84,4.94s3.38,2.09,4.14,4.2a13.59,13.59,0,0,0,4.09,5.84c1.56,1,2.47,1.65,2.85,4s2.14,5.08,3.61,5.75,2.45,3,2.85,5.76,1.55,2.72,3.32,3.71a5.1,5.1,0,0,1,2.46,4.32C427.66,216.68,433.4,228.12,434.4,222Z"/>
            <path class="cls-5" d="M369.91,123.26c.7-.66,1.42-1.31,2.16-1.93,3.51-2.93,8.64-4.15,14.46-3.41,6.82.85,14.32,4.31,21.71,10,15.54,14.39,24.51,30.16,27.4,48.18,2.49,15.5.12,29.81-2,42.43l-.33,2a18.18,18.18,0,0,1-1.6-2.38,21.21,21.21,0,0,1-1.76-3.77,6.75,6.75,0,0,0-3.27-5.64c-.39-.21-.73-.38-1-.53-1.07-.51-1.3-.61-1.5-2-.3-2.12-1.19-5.84-3.74-7-.85-.38-2.38-2.5-2.71-4.53-.51-3.16-1.92-4.08-3.56-5.15a12,12,0,0,1-3.47-5.05c-.94-2.57-2.9-3.88-4.81-5a4.13,4.13,0,0,1-.94-1.54c-.57-1.25-1.35-3-3.22-3.54a7.13,7.13,0,0,1-1.28-1.55c-1.17-1.66-5.37-7.17-8.69-4.72-2.23,1.64-5.19,6.12-10.43,6.88-4.32.62-10.23.59-14-3.09-7.52-10.83-10.23-21.22-8-30.89,1.84-8.07,6.79-14.11,10.63-17.78Z"/>
            <path class="cls-4" d="M401.89,161c3,.45,5.24,3.26,7.28,5.73,19,22.9,20.19,40,21.54,39.56,4.82-1,7.86-27.28-5.73-50.05-24.17-40.47-42.7-32.44-45.71-29.58-5.16,4.91-3.52,15.87,3.67,24.48C389.85,159.46,395.84,160.14,401.89,161Z"/>
          </g>
        </g>
        <path class="cls-2" d="M330.33,113c5.78-1.05,11.25-4.32,22.8,2.59,5.34,3.19,17.82,2.09,18,6.18s-1.7,22.66-11.25,22.05c-7-2-10-1.47-12.85.4s-14.32,8.91-18.24,6.67,2.56-12.31,2.5-20S325,114,330.33,113Z"/>
        <path class="cls-5" d="M330.41,115.33a1.19,1.19,0,0,1,.5-.16c1-.17,2-.41,3-.64,4.85-1.13,9.87-2.31,19.25,3.28,2.61,1.55,4.55,1.71,8.23,2.32a49.44,49.44,0,0,1,5.42,1.1c3.76,1.1,1.65,10.29-.47,15.21-2.43,5.65-5.41,5.7-6.57,5.63-6.85-2-8.74-1.36-12.41,1a72,72,0,0,1-8.62,4.69c-5.93,2.65-7.86,2-8.31,1.76-.19-.11-.56-.32-.4-1.82A34.75,34.75,0,0,1,331.5,142c1.05-3.44,2.25-7.34,2.2-10.95a36.81,36.81,0,0,0-2-9.69C331,119.28,330.07,116.17,330.41,115.33Z"/>
        <path class="cls-4" d="M355.29,135.93c6-.46,10.66-.18,11.53-6.53.82-5.92-3.19-7.63-9-8.15-1.38-.13-2.65.14-3.82-.22-1.75-.53-3.22-2.13-5.16-3.08-6.12-3-15.16-2.57-14.72,1.36,1.05,9.51,2.61,9.58,8.73,12.56C344.73,132.79,348.38,136.46,355.29,135.93Z"/>
      </g>
      <g>
        <g>
          <g>
            <path class="cls-2" d="M327.34,292.46s-3.39,36-27.87,44.17c-10.38,3.46,4.49-13.86,9.9-31.33C314,290.51,329.94,281.48,327.34,292.46Z"/>
            <path class="cls-6" d="M326.19,289.79l.27,0a5.89,5.89,0,0,1-.16,2.79v.1a78.8,78.8,0,0,1-4.72,18.87c-3.52,9-10.29,20.56-22.61,24.68a8.63,8.63,0,0,1-1,.27c.25-2,2.65-6.53,4.8-10.61,2.89-5.49,6.81-12.19,8.7-19.11C314.48,295.81,322.3,290.54,326.19,289.79Z"/>
          </g>
          <g>
            <path class="cls-2" d="M309.51,267.14c6.82,13.87,18.87,18.57,18.38,21-.38,2.77-8.91,8.53-12.1,8.42-2.56-.1-9.57-13.12-16.19-25.63C298.56,269,308.7,265.44,309.51,267.14Z"/>
            <path class="cls-6" d="M314.53,292.12c-3.18-4.27-7.69-12.65-12.77-22.25-.35-.65,2-1.61,2.5-1.8,1.64-.65,3.6-1.1,3.9-.7l0,0a42.27,42.27,0,0,0,4.16,6.76A57.69,57.69,0,0,0,323,284.68a20.62,20.62,0,0,1,3.14,2.74c.31.41.31.64.3.72v0c-.14,1-2,2.66-3.65,3.85-2.22,1.56-4.62,2.67-5.69,2.64C317,294.65,316.28,294.46,314.53,292.12Z"/>
          </g>
          <g>
            <path class="cls-2" d="M280,242c15.45,17.72,31.05,23.28,31.94,26.42,1.2,3.59-4.88,11.07-8.28,11.13-2.68.11-16.65-15.32-30.15-30.34C271.42,246.89,278.09,239.75,280,242Z"/>
            <path class="cls-5" d="M300.56,274.54c-5.61-5.08-14.88-15.29-25.52-27.13-.73-.8.77-2.65,1.08-3,1.06-1.25,2.56-2.28,3.11-1.78l.06.06a101.64,101.64,0,0,0,8.41,8.58,126.63,126.63,0,0,0,17.54,13.09,44.56,44.56,0,0,1,5.08,3.53c.61.55.74.84.77.95v0c.44,1.34-.64,3.48-1.81,5.05-1.54,2.08-3.49,3.59-4.65,3.62C304.51,277.53,303.64,277.34,300.56,274.54Z"/>
          </g>
          <path class="cls-2" d="M284.81,242.75s2.47,3.78,4.38,5.12c1.48,1-9.55,7.45-11,8-1.21.42-3.86-4.22-4.11-5.83S284.06,241.62,284.81,242.75Z"/>
        </g>
        <g>
          <g>
            <path class="cls-2" d="M381,244.62s26.66,34,13.89,62.5c-5.41,12.08-7.73-15.88-17.68-35.68C368.77,254.69,374.1,232.89,381,244.62Z"/>
            <path class="cls-6" d="M377.9,243.34c.08-.11.13-.2.19-.27a7.06,7.06,0,0,1,2.14,2.54l0,0,0,.05a98.64,98.64,0,0,1,11.64,20.4c4.54,10.83,8.61,26.74,2.18,41.09a12,12,0,0,1-.54,1.08c-1.41-1.92-3.22-7.94-4.85-13.35-2.18-7.27-4.53-16.47-8.67-24.1C373.52,258.8,375.42,247.39,377.9,243.34Z"/>
          </g>
          <g>
            <path class="cls-2" d="M354.27,227.42c13.34,12.21,28.06,11.54,28.63,14.47.84,3.31-5.53,14-8.93,15.45-2.72,1.16-15.87-10-28.41-20.8C343.63,234.92,352.66,225.89,354.27,227.42Z"/>
            <path class="cls-6" d="M370.69,253c-5.24-3.22-13.71-10.41-23.32-18.69-.66-.56,1.4-2.81,1.81-3.25,1.44-1.54,3.28-3,3.79-2.71l0,0a47.62,47.62,0,0,0,7.38,5.52,61.15,61.15,0,0,0,15.9,6.53,22.11,22.11,0,0,1,4.5,1.52c.52.32.62.57.64.67v0c.3,1.22-.88,4-2.11,6.13-1.64,2.86-3.65,5.29-4.78,5.77C374.41,254.62,373.56,254.76,370.69,253Z"/>
          </g>
          <g>
            <path class="cls-2" d="M306.93,222.5c26,6.54,44.12.86,47,3.34,3.48,2.71,2.82,14.55-.27,17.06-2.4,2-25.54-3.3-48-8.55C302.28,233.57,303.71,221.65,306.93,222.5Z"/>
            <path class="cls-5" d="M347.54,240.17c-8.55-1-23.88-4.55-41.57-8.69-1.2-.27-1-3.19-1-3.77.17-2,.86-4.12,1.7-4h.09a109.77,109.77,0,0,0,13.45,2.5,133.39,133.39,0,0,0,24.89.42,47.46,47.46,0,0,1,7-.14,2.64,2.64,0,0,1,1.33.39l0,0c1.3,1,1.72,3.93,1.69,6.33-.05,3.18-.85,6.11-1.9,7C353.17,240.3,352.24,240.74,347.54,240.17Z"/>
          </g>
          <path class="cls-2" d="M305.23,219.26s4.59,2.45,7.23,2.67c2.05.17-5.11,13.87-6.27,15.33-.94,1.2-6.21-2-7.38-3.59S303.84,218.54,305.23,219.26Z"/>
        </g>
        <g>
          <g>
            <path class="cls-2" d="M385.91,213.41s30,25.3,23.92,53C407.25,278.15,400,253.72,387.5,238,376.91,224.63,377.61,204.26,385.91,213.41Z"/>
            <path class="cls-6" d="M382.93,212.85l.11-.28a6.35,6.35,0,0,1,2.38,1.86l0,0,0,0a90,90,0,0,1,14.12,16c6,8.79,12.6,22.18,9.55,36.13-.09.4-.19.76-.28,1.06-1.61-1.44-4.34-6.47-6.78-11-3.29-6.06-7.08-13.81-12.17-19.82C381.89,227.4,381.48,216.91,382.93,212.85Z"/>
          </g>
          <g>
            <path class="cls-2" d="M359,203.06c14.12,8.39,27.09,5.07,28.13,7.58,1.36,2.78-2.32,13.46-5.07,15.38-2.21,1.54-16-6-29.12-13.23C350.9,211.7,357.26,202,359,203.06Z"/>
            <path class="cls-6" d="M378.3,222.77c-5.25-1.89-14.11-6.71-24.19-12.3-.69-.37.73-2.75,1-3.22,1-1.64,2.36-3.29,2.87-3.11l0,0a44.12,44.12,0,0,0,7.58,3.55A56.09,56.09,0,0,0,381,210.57a19,19,0,0,1,4.29.52c.52.18.66.39.69.47l0,0c.49,1-.05,3.69-.74,5.84-.93,2.85-2.27,5.38-3.19,6C381.91,223.52,381.18,223.8,378.3,222.77Z"/>
          </g>
          <g>
            <path class="cls-2" d="M316,207.45c24.35,1,39.39-7.4,42.44-5.73,3.59,1.76,5.2,12.41,2.91,15.22-1.76,2.24-23.32,1.79-44.23,1.27C313.89,218.16,313,207.3,316,207.45Z"/>
            <path class="cls-5" d="M355.35,215.64c-7.8.66-22.08.38-38.56,0-1.13,0-1.52-2.64-1.58-3.17-.23-1.81,0-3.81.76-3.88h.09a98.85,98.85,0,0,0,12.41-.27,121.54,121.54,0,0,0,22.21-4.23,44.3,44.3,0,0,1,6.23-1.43,2.48,2.48,0,0,1,1.26.1l0,0c1.34.65,2.26,3.18,2.67,5.32.55,2.83.38,5.59-.39,6.54C360.38,214.72,359.63,215.28,355.35,215.64Z"/>
          </g>
          <path class="cls-2" d="M313.86,204.89s4.53,1.33,6.93,1c1.85-.23-2,13.27-2.74,14.79-.62,1.24-5.91-.68-7.23-1.83S312.49,204.51,313.86,204.89Z"/>
        </g>
        <g>
          <g>
            <path class="cls-2" d="M359.92,260.42s13.69,38.79-5.92,59.87c-8.31,8.93-2.22-16.58-5.26-37.36C346.17,265.35,357.23,247.78,359.92,260.42Z"/>
            <path class="cls-6" d="M357.56,258.28a1.49,1.49,0,0,1,.24-.18,6.94,6.94,0,0,1,1.16,2.95v.1A96.31,96.31,0,0,1,363.34,283c.87,11.06-.18,26.48-10,37.08a9.49,9.49,0,0,1-.8.78c-.68-2.15-.54-8.08-.4-13.4.18-7.14.79-16.06-.65-24.17C349.17,270.53,354.18,261.05,357.56,258.28Z"/>
          </g>
          <g>
            <path class="cls-2" d="M333.06,243.22c12.13,11.9,25.95,11.78,26.38,14.56.69,3.12-5.6,12.92-8.83,14.16-2.59,1-14.58-9.93-26-20.47C322.86,249.89,331.6,241.74,333.06,243.22Z"/>
            <path class="cls-6" d="M347.66,267.76c-4.81-3.2-12.53-10.22-21.28-18.32-.6-.55,1.39-2.58,1.79-3,1.4-1.4,3.17-2.72,3.64-2.41l0,0a45.31,45.31,0,0,0,6.74,5.44,58.1,58.1,0,0,0,14.7,6.65,21.35,21.35,0,0,1,4.18,1.59c.47.31.56.55.58.65v0c.24,1.15-.95,3.69-2.16,5.68-1.62,2.62-3.59,4.83-4.66,5.24C351.09,269.4,350.3,269.51,347.66,267.76Z"/>
          </g>
          <g>
            <path class="cls-2" d="M290.32,233c23.55,9.13,41,6,43.44,8.61,3,2.93,1.11,13.87-2,15.85-2.45,1.6-23.44-6.06-43.78-13.57C284.83,242.77,287.41,231.84,290.32,233Z"/>
            <path class="cls-5" d="M326.28,254.2c-7.85-2-21.76-7-37.79-12.94-1.09-.4-.63-3.1-.53-3.64.36-1.85,1.23-3.73,2-3.53l.08,0a103.32,103.32,0,0,0,12.26,3.9,124.39,124.39,0,0,0,23.13,3.3,46.15,46.15,0,0,1,6.57.7,2.72,2.72,0,0,1,1.2.52l0,0c1.1,1.09,1.19,3.86.9,6.09-.38,3-1.42,5.59-2.49,6.26C331.5,255,330.6,255.28,326.28,254.2Z"/>
          </g>
          <path class="cls-2" d="M292,230.36s4.13,2.64,6.6,3c1.9.31-5.71,12.57-6.89,13.86-1,1.05-5.67-2.39-6.65-3.91S290.8,229.58,292,230.36Z"/>
        </g>
      </g>
      <g>
        <g>
          <g>
            <path class="cls-2" d="M84.26,292.46s3.39,36,27.88,44.17c10.38,3.46-4.5-13.86-9.91-31.33C97.66,290.51,81.67,281.48,84.26,292.46Z"/>
            <path class="cls-6" d="M85.42,289.79l-.27,0a5.75,5.75,0,0,0,.16,2.79v.1a79.13,79.13,0,0,0,4.73,18.87c3.51,9,10.28,20.56,22.61,24.68a8.08,8.08,0,0,0,1,.27c-.25-2-2.65-6.53-4.8-10.61-2.89-5.49-6.81-12.19-8.71-19.11C97.13,295.81,89.31,290.54,85.42,289.79Z"/>
          </g>
          <g>
            <path class="cls-2" d="M102.1,267.14c-6.82,13.87-18.87,18.57-18.39,21,.38,2.77,8.92,8.53,12.11,8.42,2.56-.1,9.56-13.12,16.19-25.63C113.05,269,102.9,265.44,102.1,267.14Z"/>
            <path class="cls-6" d="M97.07,292.12c3.19-4.27,7.7-12.65,12.77-22.25.36-.65-2-1.61-2.49-1.8-1.65-.65-3.6-1.1-3.91-.7,0,0,0,0,0,0a43.07,43.07,0,0,1-4.17,6.76,57.39,57.39,0,0,1-10.69,10.51,19.94,19.94,0,0,0-3.13,2.74c-.32.41-.32.64-.3.72v0c.14,1,2,2.66,3.65,3.85,2.22,1.56,4.62,2.67,5.69,2.64C94.6,294.65,95.32,294.46,97.07,292.12Z"/>
          </g>
          <g>
            <path class="cls-2" d="M131.62,242c-15.46,17.72-31.05,23.28-31.95,26.42-1.2,3.59,4.89,11.07,8.29,11.13,2.67.11,16.64-15.32,30.15-30.34C140.19,246.89,133.51,239.75,131.62,242Z"/>
            <path class="cls-5" d="M111.05,274.54c5.6-5.08,14.87-15.29,25.52-27.13.73-.8-.78-2.65-1.09-3-1.06-1.25-2.56-2.28-3.12-1.78l-.05.06a103.19,103.19,0,0,1-8.41,8.58,126.63,126.63,0,0,1-17.54,13.09,43.66,43.66,0,0,0-5.08,3.53c-.61.55-.74.84-.77.95v0c-.44,1.34.64,3.48,1.81,5.05,1.53,2.08,3.49,3.59,4.65,3.62C107.1,277.53,108,277.34,111.05,274.54Z"/>
          </g>
          <path class="cls-2" d="M126.79,242.75s-2.46,3.78-4.38,5.12c-1.47,1,9.55,7.45,11,8,1.21.42,3.86-4.22,4.11-5.83S127.54,241.62,126.79,242.75Z"/>
        </g>
        <g>
          <g>
            <path class="cls-2" d="M30.62,244.62s-26.66,34-13.89,62.5c5.41,12.08,7.73-15.88,17.68-35.68C42.83,254.69,37.51,232.89,30.62,244.62Z"/>
            <path class="cls-6" d="M33.7,243.34l-.18-.27a7,7,0,0,0-2.14,2.54l0,0,0,.05a99.42,99.42,0,0,0-11.63,20.4c-4.54,10.83-8.61,26.74-2.18,41.09.18.42.37.77.53,1.08,1.41-1.92,3.23-7.94,4.85-13.35,2.18-7.27,4.54-16.47,8.67-24.1C38.09,258.8,36.18,247.39,33.7,243.34Z"/>
          </g>
          <g>
            <path class="cls-2" d="M57.33,227.42C44,239.63,29.27,239,28.71,241.89c-.85,3.31,5.52,14,8.92,15.45,2.72,1.16,15.88-10,28.42-20.8C68,234.92,59,225.89,57.33,227.42Z"/>
            <path class="cls-6" d="M40.92,253c5.24-3.22,13.71-10.41,23.32-18.69.66-.56-1.41-2.81-1.82-3.25-1.43-1.54-3.27-3-3.78-2.71l0,0a48,48,0,0,1-7.37,5.52,61.15,61.15,0,0,1-15.9,6.53A22.25,22.25,0,0,0,30.81,242c-.51.32-.62.57-.63.67v0c-.31,1.22.87,4,2.11,6.13,1.63,2.86,3.64,5.29,4.78,5.77C37.2,254.62,38,254.76,40.92,253Z"/>
          </g>
          <g>
            <path class="cls-2" d="M104.67,222.5c-26,6.54-44.11.86-47,3.34-3.48,2.71-2.82,14.55.27,17.06,2.4,2,25.55-3.3,48-8.55C109.33,233.57,107.89,221.65,104.67,222.5Z"/>
            <path class="cls-5" d="M64.07,240.17c8.55-1,23.88-4.55,41.56-8.69,1.21-.27,1-3.19,1-3.77-.16-2-.85-4.12-1.7-4h-.09a109.62,109.62,0,0,1-13.44,2.5,133.4,133.4,0,0,1-24.89.42,47.48,47.48,0,0,0-7-.14,2.7,2.7,0,0,0-1.34.39l0,0c-1.29,1-1.71,3.93-1.68,6.33.05,3.18.84,6.11,1.89,7C58.44,240.3,59.36,240.74,64.07,240.17Z"/>
          </g>
          <path class="cls-2" d="M106.38,219.26s-4.59,2.45-7.24,2.67c-2,.17,5.11,13.87,6.27,15.33,1,1.2,6.22-2,7.39-3.59S107.76,218.54,106.38,219.26Z"/>
        </g>
        <g>
          <g>
            <path class="cls-2" d="M34.64,209s-28,20.79-24.14,45.71c1.64,10.56,9.4-10.72,21.37-24C42,219.4,42.51,201.29,34.64,209Z"/>
            <path class="cls-6" d="M37.31,208.62a2.08,2.08,0,0,0-.08-.26A5.76,5.76,0,0,0,35,209.88l0,0,0,0a79.78,79.78,0,0,0-13.41,13.4c-5.84,7.46-12.4,19-10.46,31.53a8.58,8.58,0,0,0,.19,1c1.5-1.19,4.2-5.5,6.62-9.36,3.25-5.2,7-11.86,11.89-16.92C37.43,221.59,38.38,212.3,37.31,208.62Z"/>
          </g>
          <g>
            <path class="cls-2" d="M59.11,201.26c-13,6.66-24.31,3-25.38,5.16-1.36,2.4,1.32,12.08,3.66,13.93,1.87,1.49,14.5-4.41,26.56-10.13C65.8,209.37,60.69,200.41,59.11,201.26Z"/>
            <path class="cls-6" d="M40.87,217.67c4.77-1.38,12.9-5.17,22.15-9.58.63-.29-.5-2.48-.72-2.91-.79-1.51-1.91-3.05-2.37-2.92l0,0A38.91,38.91,0,0,1,53,205a49.66,49.66,0,0,1-13.77,1.69,17.31,17.31,0,0,0-3.83.23c-.47.13-.61.31-.64.38v0c-.5.88-.17,3.28.33,5.23.66,2.57,1.71,4.89,2.49,5.51C37.63,218.14,38.26,218.43,40.87,217.67Z"/>
          </g>
          <g>
            <path class="cls-2" d="M97,207.52c-21.66-.46-34.54-8.74-37.33-7.43-3.29,1.37-5.3,10.73-3.43,13.34,1.44,2.09,20.59,2.88,39.18,3.58C98.28,217.14,99.71,207.55,97,207.52Z"/>
            <path class="cls-5" d="M61.63,212.62c6.88,1,19.57,1.55,34.22,2.1,1,0,1.49-2.27,1.58-2.73.3-1.6.21-3.38-.47-3.48h-.07a90,90,0,0,1-11-.92,108.12,108.12,0,0,1-19.47-5A39.22,39.22,0,0,0,61,201a2.16,2.16,0,0,0-1.12,0h0c-1.22.51-2.18,2.7-2.66,4.57-.64,2.49-.65,4.94,0,5.82C57.22,211.52,57.85,212.06,61.63,212.62Z"/>
          </g>
          <path class="cls-2" d="M99,205.36s-4.1.93-6.21.54c-1.63-.3,1,11.89,1.62,13.27.48,1.14,5.28-.27,6.51-1.22S100.27,205.1,99,205.36Z"/>
        </g>
        <g>
          <g>
            <path class="cls-2" d="M51.69,260.42S38,299.21,57.61,320.29c8.31,8.93,2.21-16.58,5.26-37.36C65.44,265.35,54.37,247.78,51.69,260.42Z"/>
            <path class="cls-6" d="M54.05,258.28a2.11,2.11,0,0,0-.24-.18,6.94,6.94,0,0,0-1.16,2.95v.05l0,0A96.64,96.64,0,0,0,48.27,283c-.87,11.06.18,26.48,10,37.08a9.51,9.51,0,0,0,.79.78c.69-2.15.54-8.08.41-13.4-.19-7.14-.79-16.06.65-24.17C62.44,270.53,57.42,261.05,54.05,258.28Z"/>
          </g>
          <g>
            <path class="cls-2" d="M78.54,243.22C66.42,255.12,52.6,255,52.17,257.78c-.7,3.12,5.6,12.92,8.83,14.16,2.58,1,14.57-9.93,26-20.47C88.75,249.89,80,241.74,78.54,243.22Z"/>
            <path class="cls-6" d="M64,267.76c4.81-3.2,12.52-10.22,21.28-18.32.59-.55-1.4-2.58-1.8-3-1.39-1.4-3.16-2.72-3.63-2.41l0,0A45.91,45.91,0,0,1,73,249.52a58.22,58.22,0,0,1-14.69,6.65,21.35,21.35,0,0,0-4.18,1.59c-.48.31-.57.55-.58.65v0c-.25,1.15,1,3.69,2.16,5.68,1.62,2.62,3.57,4.83,4.66,5.24C60.51,269.4,61.3,269.51,64,267.76Z"/>
          </g>
          <g>
            <path class="cls-2" d="M121.28,233c-23.54,9.13-41,6-43.44,8.61-3,2.93-1.1,13.87,2,15.85,2.45,1.6,23.43-6.06,43.77-13.57C126.78,242.77,124.19,231.84,121.28,233Z"/>
            <path class="cls-5" d="M85.32,254.2c7.85-2,21.77-7,37.79-12.94,1.1-.4.64-3.1.53-3.64-.35-1.85-1.22-3.73-2-3.53l-.08,0a104.06,104.06,0,0,1-12.27,3.9,124.28,124.28,0,0,1-23.13,3.3,46,46,0,0,0-6.56.7,2.64,2.64,0,0,0-1.2.52l0,0c-1.11,1.09-1.19,3.86-.9,6.09.37,3,1.42,5.59,2.48,6.26C80.1,255,81,255.28,85.32,254.2Z"/>
          </g>
          <path class="cls-2" d="M119.56,230.36s-4.12,2.64-6.59,3c-1.9.31,5.71,12.57,6.88,13.86,1,1.05,5.68-2.39,6.66-3.91S120.81,229.58,119.56,230.36Z"/>
        </g>
      </g>
      <g>
        <path class="cls-7" d="M96.79,209a38.32,38.32,0,0,0,4.66,12.34c11.44,19.57,30.82,33,51.65,39.65s43.07,6.85,64.66,4.14c21.94-2.75,43.75-8.57,63.16-19.7s36.36-27.85,45.94-48.89c5.38-11.8,8.05-26.82.68-37.34-6.5-9.28-14.26-13.51-23.38-19.87-5.79-4-10.43-9.65-15.31-14.87-13.44-14.41-33.54-24.89-51.62-31.53s-38.4-7.44-56.19,0c-14.67,6.13-27,17.48-36.93,30.43-6.46,8.38-15.83,18.36-19.53,28.45-1.75,4.75-3.1,9.75-5.82,14-3.76,5.86-6,8.81-11.25,13.24A30.92,30.92,0,0,0,96.79,209Z"/>
        <path class="cls-4" d="M127.85,158.25c-3.45-2.61-1.38-7.15.16-11.33,3.27-8.87,14.56-19.37,20.25-26.76,8.77-11.4,22.61-21.1,35.53-26.5,15.67-6.54,34.63-6,50.54-.15S268,106.33,279.85,119c4.29,4.6,16.34,11.85,12.34,15.5-10.16,9.26-26.31,23.59-56.7,47-7.61,5.87-18.8,7.94-28.55,9.48C182,195,154.48,178.42,127.85,158.25Z"/>
        <path class="cls-8" d="M155,175.65s54,46,107.22-17"/>
        <path class="cls-9" d="M168.82,184.63s19,55.58,47.18,51.74,33.42-64.18,33.42-64.18S215.85,206.32,168.82,184.63Z"/>
        <path class="cls-10" d="M181.1,191.13s5.53,8.19,8.12,10c7,4.86,36.81,1,44.05-7,2.39-2.64,6.82-12.68,6.82-12.68S217.48,199.72,181.1,191.13Z"/>
        <path class="cls-11" d="M231.3,210.34c12.83,3.61-5.41,22.18-12.38,23.71-2.77.61-14.23,4.38-25.5-9.6C190.52,220.84,202.92,202.36,231.3,210.34Z"/>
        <path class="cls-12" d="M255.36,151.48a13.11,13.11,0,0,1,5.39,2.15,17,17,0,0,1,4.34,4.16,14.9,14.9,0,0,1,2.5,5.73c.09.53.16,1,.22,1.56s0,1.06,0,1.58l0,.77c-.06.26-.1.52-.16.77a13.84,13.84,0,0,1-.42,1.47,40.23,40.23,0,0,0-2-5.31,30.35,30.35,0,0,0-2.66-4.51c-1-1.42-2.15-2.79-3.36-4.15Z"/>
        <path class="cls-12" d="M162.63,168l-3.81,4.21c-1.2,1.36-2.32,2.73-3.35,4.15a28.63,28.63,0,0,0-2.67,4.51,40.23,40.23,0,0,0-2,5.31c-.17-.47-.29-1-.42-1.47-.06-.25-.11-.51-.16-.77l0-.77c0-.52-.05-1.06,0-1.58s.14-1,.22-1.56a14.86,14.86,0,0,1,2.5-5.72,16.83,16.83,0,0,1,4.34-4.17A13,13,0,0,1,162.63,168Z"/>
      </g>
    </g>
  </g>
</svg>
