<svg id="Layer_1" data-name="Layer 1" xmlns="http://www.w3.org/2000/svg" viewBox="0 0 60 30"><defs><style>.cls-1{fill:#fff;stroke:#111;}.cls-1,.cls-2{stroke-miterlimit:10;stroke-width:0.86px;}.cls-2,.cls-5{fill:#519fe2;}.cls-2{stroke:#030d54;}.cls-3{fill:#00001e;}.cls-4{fill:#fafaff;}.cls-6{fill:#282828;}</style></defs><ellipse class="cls-1" cx="44.94" cy="15" rx="12.43" ry="10.09" transform="translate(17.04 53.3) rotate(-72.38)"/><ellipse class="cls-2" cx="44.94" cy="15" rx="7.13" ry="5.79" transform="translate(17.04 53.3) rotate(-72.38)"/><ellipse class="cls-3" cx="44.66" cy="16.09" rx="4.88" ry="3.98" transform="translate(24.36 59) rotate(-84.5)"/><ellipse class="cls-4" cx="43.68" cy="12.22" rx="1.54" ry="1.46"/><ellipse class="cls-4" cx="44.57" cy="20.04" rx="0.98" ry="0.93"/><path class="cls-1" d="M11.55,7.85S7.1,5.76,5.08,14.1c0,0-1.51,6.62,1.66,11.29A17.14,17.14,0,0,0,12.49,15S13.21,9.28,11.55,7.85Z"/><path class="cls-5" d="M7.82,15.32A8.19,8.19,0,0,0,9.5,21.49c.39.52,2.7-6.33,2.7-6.33l0-4.5S8.84,10.24,7.82,15.32Z"/><path class="cls-3" d="M12.13,12.22A3.57,3.57,0,0,0,9,16.09c.05,3.55,1.54,4.55,1.54,4.55A16.77,16.77,0,0,0,12.49,15c.15-2.46.15-2.8.15-2.8"/><ellipse class="cls-4" cx="10.55" cy="13.16" rx="1.12" ry="1.4"/><path class="cls-6" d="M12.65,12.19v.1a22.41,22.41,0,0,1-.14,2.49,1.5,1.5,0,0,0,0,.22,10.65,10.65,0,0,1-.6,2.65,5.63,5.63,0,0,1-.58,0,10.63,10.63,0,0,1-2.15-.15,11.49,11.49,0,0,1-1.4-.32A12.85,12.85,0,0,1,4.82,15.9a16.12,16.12,0,0,1,.27-1.8c2-8.34,6.47-6.26,6.47-6.26C12.42,8.59,12.64,10.52,12.65,12.19Z"/><path class="cls-6" d="M54.78,17.33c-.06.23-.13.46-.2.69a30.54,30.54,0,0,1-4.84.38c-.55,0-1.09,0-1.63,0a44.62,44.62,0,0,1-7.33-1c-.58-.13-1.14-.26-1.68-.41-1.75-.44-3.27-.93-4.45-1.34a14.81,14.81,0,0,1,.47-3C36.87,6,42.69,1.7,48.12,3S56.53,10.7,54.78,17.33Z"/></svg>