<svg xmlns="http://www.w3.org/2000/svg" xmlns:xlink="http://www.w3.org/1999/xlink" viewBox="0 0 256 256"><defs><style>.cls-1{isolation:isolate;}.cls-2{fill:#919191;}.cls-3{fill:#939393;}.cls-4{fill:url(#linear-gradient);}.cls-5{fill:url(#linear-gradient-2);}.cls-6{fill:url(#linear-gradient-3);}.cls-7{fill:#ef7584;}.cls-8{fill:url(#linear-gradient-4);}.cls-9{fill:url(#linear-gradient-5);}.cls-10{fill:url(#linear-gradient-6);}.cls-11{fill:url(#linear-gradient-7);}.cls-12{fill:url(#linear-gradient-8);}.cls-13{fill:url(#linear-gradient-9);}.cls-14{fill:url(#linear-gradient-10);}.cls-15{fill:url(#linear-gradient-11);}.cls-16{fill:url(#linear-gradient-12);}.cls-17{fill:url(#linear-gradient-13);}.cls-18{fill:url(#linear-gradient-14);}.cls-19{fill:url(#linear-gradient-15);}.cls-20{fill:url(#linear-gradient-16);}.cls-21{fill:url(#linear-gradient-17);}.cls-22{fill:url(#linear-gradient-18);}.cls-23{fill:url(#linear-gradient-19);}.cls-24{fill:url(#linear-gradient-20);}.cls-25,.cls-28{fill:#2b5d72;}.cls-26,.cls-30{fill:#66b2c6;}.cls-26{opacity:0.19;}.cls-27{fill:#1e4756;}.cls-28{stroke:#1c4959;}.cls-28,.cls-31{stroke-miterlimit:10;stroke-width:0.75px;}.cls-29{fill:#0e3f54;}.cls-30{opacity:0.15;}.cls-31{fill:#e5e1e1;stroke:#afafaf;}.cls-32{fill:#c6c6c6;}.cls-33{fill:#545454;}.cls-34{opacity:0.53;}.cls-34,.cls-38{mix-blend-mode:screen;}.cls-35{fill:#fcfafa;}.cls-36{fill:#acacac;opacity:0.22;mix-blend-mode:multiply;}.cls-37{fill:#cbcbcb;}.cls-38{fill:#d6d6d6;}.cls-39{fill:#04568d;}.cls-40{fill:#001d42;}.cls-41{fill:#1c4959;}</style><linearGradient id="linear-gradient" x1="-3427.92" y1="-6362.05" x2="-3422.35" y2="-6362.05" gradientTransform="matrix(0.56, -0.83, -0.83, -0.56, -3317.36, -6231.3)" gradientUnits="userSpaceOnUse"><stop offset="0.09" stop-color="#fff"/><stop offset="1" stop-color="#e2e2e2"/></linearGradient><linearGradient id="linear-gradient-2" x1="-3423.88" y1="-6363.56" x2="-3418.32" y2="-6363.56" xlink:href="#linear-gradient"/><linearGradient id="linear-gradient-3" x1="-3419.18" y1="-6365.97" x2="-3413.61" y2="-6365.97" xlink:href="#linear-gradient"/><linearGradient id="linear-gradient-4" x1="769.13" y1="93.84" x2="774.89" y2="93.84" gradientTransform="translate(-704.37 -66.59) rotate(10.06)" xlink:href="#linear-gradient"/><linearGradient id="linear-gradient-5" x1="774.46" y1="91.23" x2="780.22" y2="91.23" gradientTransform="translate(-704.37 -66.59) rotate(10.06)" gradientUnits="userSpaceOnUse"><stop offset="0.09" stop-color="#fff"/><stop offset="1" stop-color="#919191"/></linearGradient><linearGradient id="linear-gradient-6" x1="774.46" y1="91.66" x2="780.22" y2="91.66" gradientTransform="translate(-704.37 -66.59) rotate(10.06)" xlink:href="#linear-gradient"/><linearGradient id="linear-gradient-7" x1="36.7" y1="167.18" x2="39.44" y2="167.18" gradientTransform="matrix(1, 0, 0, 1, 0, 0)" xlink:href="#linear-gradient"/><linearGradient id="linear-gradient-8" x1="-2818.35" y1="-7078.15" x2="-2812.74" y2="-7078.15" gradientTransform="matrix(0.73, -0.68, -0.68, -0.73, -2740.45, -6923.41)" xlink:href="#linear-gradient"/><linearGradient id="linear-gradient-9" x1="-3205.11" y1="-6662.45" x2="-3199.53" y2="-6662.45" gradientTransform="matrix(0.63, -0.78, -0.78, -0.63, -3110.07, -6516.35)" xlink:href="#linear-gradient"/><linearGradient id="linear-gradient-10" x1="-3199.5" y1="-6666.37" x2="-3193.92" y2="-6666.37" gradientTransform="matrix(0.63, -0.78, -0.78, -0.63, -3110.07, -6516.35)" xlink:href="#linear-gradient"/><linearGradient id="linear-gradient-11" x1="-3527.29" y1="-6195.46" x2="-3521.73" y2="-6195.46" gradientTransform="matrix(0.52, -0.86, -0.86, -0.52, -3423.92, -6052.78)" xlink:href="#linear-gradient"/><linearGradient id="linear-gradient-12" x1="-3522.62" y1="-6198.78" x2="-3517.07" y2="-6198.78" gradientTransform="matrix(0.52, -0.86, -0.86, -0.52, -3423.92, -6052.78)" xlink:href="#linear-gradient"/><linearGradient id="linear-gradient-13" x1="-3518.67" y1="-6202.08" x2="-3513.11" y2="-6202.08" gradientTransform="matrix(0.52, -0.86, -0.86, -0.52, -3423.92, -6052.78)" xlink:href="#linear-gradient"/><linearGradient id="linear-gradient-14" x1="-3514.72" y1="-6204.63" x2="-3509.16" y2="-6204.63" gradientTransform="matrix(0.52, -0.86, -0.86, -0.52, -3423.92, -6052.78)" xlink:href="#linear-gradient"/><linearGradient id="linear-gradient-15" x1="779.53" y1="89.14" x2="785.29" y2="89.14" gradientTransform="translate(-704.37 -66.59) rotate(10.06)" xlink:href="#linear-gradient"/><linearGradient id="linear-gradient-16" x1="785.05" y1="86.55" x2="790.81" y2="86.55" gradientTransform="translate(-704.37 -66.59) rotate(10.06)" xlink:href="#linear-gradient"/><linearGradient id="linear-gradient-17" x1="790.34" y1="84.17" x2="796.1" y2="84.17" gradientTransform="translate(-704.37 -66.59) rotate(10.06)" xlink:href="#linear-gradient"/><linearGradient id="linear-gradient-18" x1="1504.29" y1="-109.66" x2="1510.01" y2="-109.66" gradientTransform="translate(-1385.87 -262.08) rotate(20.08)" xlink:href="#linear-gradient"/><linearGradient id="linear-gradient-19" x1="2110.84" y1="-386.58" x2="2116.51" y2="-386.58" gradientTransform="matrix(0.87, 0.49, -0.49, 0.87, -1961.97, -539.85)" xlink:href="#linear-gradient"/><linearGradient id="linear-gradient-20" x1="2114.63" y1="-390.43" x2="2120.3" y2="-390.43" gradientTransform="matrix(0.87, 0.49, -0.49, 0.87, -1961.97, -539.85)" xlink:href="#linear-gradient"/></defs><g class="cls-1"><g id="Layer_1" data-name="Layer 1"><path class="cls-2" d="M37.87,170.18c-2.3-2.46-1.41-4.9,3.74-7.18C48,160.19,54,156.09,57.49,150.31c7.44-3.51,28.89-6.62,29.37-1.22S76.38,166.34,65.18,168.3,37.87,170.18,37.87,170.18Z"/><path class="cls-3" d="M44.73,166.68l.63-6.28,3.91,3.95S46.32,166.59,44.73,166.68Z"/><path class="cls-4" d="M44.73,166.68l.63-6.28,1.94,5.26A4.35,4.35,0,0,1,44.73,166.68Z"/><path class="cls-3" d="M48.24,164.18l.63-6.28,3.91,4S49.82,164.1,48.24,164.18Z"/><path class="cls-5" d="M48.24,164.18l.63-6.28,1.94,5.26A4.32,4.32,0,0,1,48.24,164.18Z"/><path class="cls-3" d="M52.87,161.63l.63-6.28,3.91,4S54.45,161.54,52.87,161.63Z"/><path class="cls-6" d="M52.87,161.63l.63-6.28,1.94,5.26A4.39,4.39,0,0,1,52.87,161.63Z"/><path class="cls-7" d="M45.13,168.68c-1.82-2.15-1.12-4.29,2.95-6.28,5-2.46,9.77-6.05,12.51-11.11,5.86-3.07,22.77-5.79,23.14-1.06S75.47,165.32,66.65,167,45.13,168.68,45.13,168.68Z"/><path class="cls-3" d="M36.66,159.44l5.15,3.93-.25-5.44S37.83,158.41,36.66,159.44Z"/><path class="cls-8" d="M36.66,159.44l5.15,3.93-2.6-5A4.38,4.38,0,0,0,36.66,159.44Z"/><path class="cls-9" d="M42.29,158.22l5.15,3.93-.25-5.44S43.45,157.19,42.29,158.22Z"/><path class="cls-10" d="M42.29,158.22l5.15,3.93-2.6-5A4.36,4.36,0,0,0,42.29,158.22Z"/><path class="cls-3" d="M36.7,170.15l2.08-6,2.89,4.69S38.27,170.41,36.7,170.15Z"/><path class="cls-11" d="M36.7,170.15l2.08-6,.66,5.55A4.36,4.36,0,0,1,36.7,170.15Z"/><path class="cls-3" d="M42.81,168.93l2.08-6,2.89,4.69S44.38,169.18,42.81,168.93Z"/><path class="cls-12" d="M42.81,168.93l2.08-6,.66,5.54A4.41,4.41,0,0,1,42.81,168.93Z"/><path class="cls-3" d="M49.58,168.48l1.21-6.2,3.53,4.26S51.17,168.53,49.58,168.48Z"/><path class="cls-13" d="M49.58,168.48l1.21-6.2,1.45,5.4A4.37,4.37,0,0,1,49.58,168.48Z"/><path class="cls-3" d="M56.16,166.59l1.21-6.2,3.53,4.27S57.75,166.64,56.16,166.59Z"/><path class="cls-14" d="M56.16,166.59l1.21-6.2,1.44,5.4A4.33,4.33,0,0,1,56.16,166.59Z"/><path class="cls-3" d="M62.67,166.19l.3-6.31,4.11,3.76S64.25,166,62.67,166.19Z"/><path class="cls-15" d="M62.67,166.19l.3-6.31L65.18,165A4.33,4.33,0,0,1,62.67,166.19Z"/><path class="cls-3" d="M67.92,163.9l.3-6.3,4.11,3.76S69.5,163.74,67.92,163.9Z"/><path class="cls-16" d="M67.92,163.9l.3-6.3,2.21,5.16A4.29,4.29,0,0,1,67.92,163.9Z"/><path class="cls-3" d="M72.79,162.22l.31-6.31,4.11,3.76S74.37,162.06,72.79,162.22Z"/><path class="cls-17" d="M72.79,162.22l.31-6.31,2.21,5.17A4.34,4.34,0,0,1,72.79,162.22Z"/><path class="cls-3" d="M77,160.16l.31-6.31,4.11,3.76S78.59,160,77,160.16Z"/><path class="cls-18" d="M77,160.16l.31-6.31L79.53,159A4.38,4.38,0,0,1,77,160.16Z"/><path class="cls-3" d="M47.71,156.63l5.16,3.93-.25-5.44S48.88,155.6,47.71,156.63Z"/><path class="cls-19" d="M47.71,156.63l5.16,3.93-2.6-5A4.4,4.4,0,0,0,47.71,156.63Z"/><path class="cls-3" d="M53.6,155,58.75,159l-.24-5.44S54.77,154,53.6,155Z"/><path class="cls-20" d="M53.6,155,58.75,159l-2.6-5A4.38,4.38,0,0,0,53.6,155Z"/><path class="cls-3" d="M59.23,153.63l5.15,3.93-.25-5.45S60.4,152.59,59.23,153.63Z"/><path class="cls-21" d="M59.23,153.63l5.15,3.93-2.6-5A4.3,4.3,0,0,0,59.23,153.63Z"/><path class="cls-3" d="M64.86,150.82l4.36,4.73.74-5.4S66.2,150,64.86,150.82Z"/><path class="cls-22" d="M64.86,150.82l4.36,4.73-1.66-5.35A4.42,4.42,0,0,0,64.86,150.82Z"/><path class="cls-3" d="M70.55,149.17l3.53,5.33,1.62-5.23S72,148.56,70.55,149.17Z"/><path class="cls-23" d="M70.55,149.17l3.53,5.33L73.32,149A4.45,4.45,0,0,0,70.55,149.17Z"/><path class="cls-3" d="M75.73,147.65,79.26,153l1.62-5.23S77.19,147,75.73,147.65Z"/><path class="cls-24" d="M75.73,147.65,79.26,153l-.76-5.54A4.45,4.45,0,0,0,75.73,147.65Z"/><path class="cls-25" d="M58.33,170.08c-3.78,2.9-16.06,11.23-19.46,13.4,3.4,1.45,21.54-4.39,30-9.62C70,170.26,62.87,168.81,58.33,170.08Z"/><path class="cls-25" d="M121.71,106.8c10.06-10.87,12-43.89,26.92-47.83,4,1.5-6.52,34,10.2,54.22C152.32,115,126.81,112.51,121.71,106.8Z"/><path class="cls-26" d="M126.81,102.86c4.54-9.24,9.21-36,20.83-42.26-3.83,8.29-7.79,30.3-5.81,45.12C139.14,107.48,129.92,104.82,126.81,102.86Z"/><path class="cls-25" d="M190.57,124.06c2.93-1.18,7.27-5.16,10-6.07.19,1.63,0,6.79,1.14,9.6C198.32,127.5,192.74,125.06,190.57,124.06Z"/><path class="cls-25" d="M221.14,129.87C222.56,120.5,238.57,92,250.33,88a18,18,0,0,1,.24,6.54,6.54,6.54,0,0,1-1.74,4,12.7,12.7,0,0,0-2.71,6.06c-.94,4.35-4,22.33-7.36,26,3.3,5.89,2.93,19.66,10.29,28,2.36,2.26,1.14,3.71-5.38.45S222.13,141.61,221.14,129.87Z"/><path class="cls-26" d="M225.38,134.39c2.12,7.31,8.36,15.86,20.12,24.1-4.4-5.35-13.46-17.72-14.31-24.92C230.05,132.89,225.38,134.39,225.38,134.39Z"/><path class="cls-26" d="M225.14,131.26c1.28-11,13.18-31.25,24.65-39.27-4.81,6.8-15.58,25.82-17,39.27C231.8,133.3,225.14,131.26,225.14,131.26Z"/><path class="cls-27" d="M250.16,160.36s.2-.61-2.16-3c0,0-5-6.12-6.48-17.46,0,0-1.1-7-2.76-9.25,0,0,3.78-6.71,7-24.4a14.85,14.85,0,0,1,3-7.7s2.11-2,1.92-7.15L250.33,88s.07,8.22-2.25,9.83a13.41,13.41,0,0,0-3.32,8.81c0,5.37-7.29,24.44-7.29,24.44a32.19,32.19,0,0,1,3,8.79s3.1,13.55,7.16,18.1Z"/><path class="cls-28" d="M85.58,150.14C82.18,157.56,65,164,53.42,165.73c-13,2-18.09.62-18.56,2.75-.74,3.34,7,5.58,32.18,7.62s55.52-4.86,84.14-12.2,48.17-19.32,60.36-23.4,27.27-4.76,27.16-7.74-9.17-3.4-21.92-4.35-34.71-9.79-46.9-16.17S145.8,98.38,117,100.55s-50.59,8.56-75,17S4.82,136.29,5.25,143.76c0,4.35,21.74,13.73,29.11,14.31C48.25,159.15,72.45,147.6,85.58,150.14Z"/><path class="cls-29" d="M37.88,139.59a19.83,19.83,0,0,0,15.21,3.63c7-1.1,6.46-6.34,11.49-8.31C59.8,131.28,39.77,133.93,37.88,139.59Z"/><path class="cls-30" d="M60.83,140.28c10.41-2.63,19.18-6.83,29-8.93,19.18-4.21,36.72-5.78,55.35-8.41,12.65-1.9,24.72-3,36.85-3.62-5.5-2.26-10.63-4.65-14.66-6.76-11.78-6.17-23.29-13.4-51.1-11.3s-48.9,8.28-72.47,16.42c-22.34,7.73-34.69,17.1-35.57,24.21C25.61,142.94,43,144.44,60.83,140.28Z"/><path class="cls-31" d="M78.92,138.73c-4-1.08-8-2.06-13,.55-18.28,9.37-24.77,2.8-36.27,3.35S9.87,145.85,5.4,144.44C7.27,149.14,27,159.11,34,159.66c13.88,1.09,36.51-11.32,49.64-8.79C80.25,158.3,65,164,53.42,165.73c-13,2-19.27.32-19.74,2.44-.74,3.35,6.56,7.12,31.78,9.15s58.24-4.07,86.86-11.41,47-21.33,59.22-25.41l.24-.08c-12.57,1.5-23.57,9.24-35.94,11.36a144.7,144.7,0,0,1-33.44,3.08C115.19,154.13,112.17,145.44,78.92,138.73Z"/><path class="cls-32" d="M62.67,177.09s75.62,5.46,137.47-31.86l13.35-5.34s-32.71,11.56-69.69,25.49c0,0-39.94,15.26-104.93,6.2,0,0-3.7-.84-5.19-3.41C33.68,168.17,32.28,174.81,62.67,177.09Z"/><path class="cls-33" d="M34,151.2c1,.31,1.58,1,1.4,1.5s-1.1.7-2,.39-1.58-1-1.4-1.49S33.05,150.9,34,151.2Z"/><g class="cls-34"><path class="cls-35" d="M31.06,151.34a2.15,2.15,0,0,1,1.86-1.3l-.09,0c-1.47-.47-2.94-.08-3.27.88s.6,2.11,2.07,2.58l.17.05A2.05,2.05,0,0,1,31.06,151.34Z"/></g><path class="cls-36" d="M73.09,167.56c-5.23,3.52-20.83,6.63-35.31,4.88C48.17,176.21,64.13,178.65,73.09,167.56Z"/><path class="cls-36" d="M83.65,150.87A29.1,29.1,0,0,1,90,152.63a25.39,25.39,0,0,0-9,1.87C81.51,153.73,83,152.34,83.65,150.87Z"/><path class="cls-37" d="M56.14,138.34a4.57,4.57,0,0,1-4.83,4.26,4.29,4.29,0,1,1,0-8.51A4.56,4.56,0,0,1,56.14,138.34Z"/><path d="M54,138.28a2.83,2.83,0,1,1-2.79-2.37A2.61,2.61,0,0,1,54,138.28Z"/><ellipse class="cls-38" cx="49.93" cy="137.2" rx="1.05" ry="1.01"/><path class="cls-38" d="M53.09,139.38a.52.52,0,0,1-.53.51.51.51,0,0,1-.52-.51.51.51,0,0,1,.52-.5A.51.51,0,0,1,53.09,139.38Z"/><path class="cls-39" d="M37.59,140a18.84,18.84,0,0,0,5.08-.5,23,23,0,0,0,6.83-3.4c1.94-1.29,5-1.91,7.56-2.14a26.1,26.1,0,0,1,7.76.81c-.7-1.81-9.93-4.66-16.58-3S37.2,137.67,37.59,140Z"/><path class="cls-25" d="M169.25,165.09c-9.92-7.33-10.28-14.4-10.28-14.4l-27.06,1.22s8.36,11.15,30.75,22.29,57,22.55,69.14,22.83C226.42,192.68,179.16,172.43,169.25,165.09Z"/><path class="cls-26" d="M136.16,153.89c5.39,6.18,14.39,13.23,26.59,19.58,16.9,8.8,39.33,16.56,61.33,21.61C203.42,186,143.53,155.64,136.16,153.89Z"/><path class="cls-25" d="M187.27,144.42l-15.11,7s13,10.51,24.93,12A51.43,51.43,0,0,1,187.27,144.42Z"/><path class="cls-26" d="M173,150.68c3.78,4,14.07,9.62,21.54,11.43C191,158.39,178,150.4,173,150.68Z"/><path class="cls-25" d="M205.11,138l-9,4.14s7.74,6.24,14.81,7.1A30.5,30.5,0,0,1,205.11,138Z"/><path class="cls-26" d="M197.24,142c2.12,2.28,7.94,5.51,12.16,6.57C207.44,146.4,200.08,141.81,197.24,142Z"/><path class="cls-40" d="M100.76,155.12A28.48,28.48,0,0,0,103.49,143c.19-7.49-2.14-11.92-2.14-11.92.14.16,4.25,4.22,4.07,12A18,18,0,0,1,100.76,155.12Z"/><path class="cls-40" d="M107,157.1a35.94,35.94,0,0,0,2.84-13.77c.25-8.5-2-13.51-2-13.51.14.19,4.22,4.76,4,13.55S107.14,156.9,107,157.1Z"/><path class="cls-40" d="M113.18,157.46A36.24,36.24,0,0,0,116,143.69c.24-8.5-2-13.51-2-13.51.13.19,4.21,4.75,4,13.55S113.33,157.26,113.18,157.46Z"/><path class="cls-40" d="M118.75,156.16A28.48,28.48,0,0,0,121.48,144c.18-7.49-2.14-11.92-2.14-11.92.14.17,4.25,4.22,4.07,12A18,18,0,0,1,118.75,156.16Z"/><path class="cls-41" d="M37.88,138.94a15,15,0,0,0,9-2.43A18.29,18.29,0,0,1,64,134.27C61.4,130.45,43.74,128.24,37.88,138.94Z"/></g></g></svg>