<svg id="Layer_1" data-name="Layer 1" xmlns="http://www.w3.org/2000/svg" viewBox="0 0 110 80"><defs><style>.cls-1{fill:#1e130b;}.cls-2{fill:#fcf9f7;stroke:#3a1e0f;}.cls-2,.cls-4{stroke-miterlimit:10;stroke-width:0.75px;}.cls-3{fill:#f9f8f7;}.cls-4{fill:#f9dad2;stroke:#4c2606;}</style></defs><path class="cls-1" d="M14.75,29.49s-1-6.62,17.47-10.13S9.06,10.42,14.75,29.49Z"/><path class="cls-1" d="M91.35,23s0-6.69-12.84-7.43S93.27,3.27,91.35,23Z"/><path class="cls-2" d="M53.19,56.53C52,62.59,47.53,67.46,41.53,68.34c-6.64,1-12.94-3.22-15.38-9.76a17.17,17.17,0,0,1-.88-3.44C24,46.72,29.3,39,37,37.83S52.05,42.6,53.3,51A16.63,16.63,0,0,1,53.19,56.53Z"/><ellipse class="cls-1" cx="34.54" cy="57.58" rx="7.66" ry="8.42" transform="translate(-8.02 5.65) rotate(-8.38)"/><ellipse class="cls-3" cx="39.47" cy="56.17" rx="2.17" ry="2.39" transform="translate(-7.76 6.35) rotate(-8.38)"/><path class="cls-2" d="M95.73,53.45C95.3,59.8,92,64.83,87.33,65.51s-9.4-3.29-11.62-9.39a20.86,20.86,0,0,1-1.09-4.32C73.38,43.38,77.06,35.85,82.84,35S94.31,40.3,95.55,48.72A21.67,21.67,0,0,1,95.73,53.45Z"/><ellipse class="cls-1" cx="81.68" cy="54.56" rx="5.72" ry="8.42" transform="translate(-7.08 12.48) rotate(-8.38)"/><ellipse class="cls-3" cx="85.34" cy="53.34" rx="1.62" ry="2.39" transform="translate(-6.86 13) rotate(-8.38)"/><path class="cls-4" d="M53.19,56.53A57.14,57.14,0,0,1,42.13,59,53.81,53.81,0,0,1,27,58.72l-.82-.14a17.17,17.17,0,0,1-.88-3.44C24,46.72,29.3,39,37,37.83S52.05,42.6,53.3,51A16.63,16.63,0,0,1,53.19,56.53Z"/><path class="cls-4" d="M95.73,53.45a30.69,30.69,0,0,1-8.31,3.12,23.12,23.12,0,0,1-11.24-.3l-.47-.15a20.86,20.86,0,0,1-1.09-4.32C73.38,43.38,77.06,35.85,82.84,35S94.31,40.3,95.55,48.72A21.67,21.67,0,0,1,95.73,53.45Z"/></svg>