<svg id="Layer_1" data-name="Layer 1" xmlns="http://www.w3.org/2000/svg" xmlns:xlink="http://www.w3.org/1999/xlink" viewBox="0 0 256 270"><defs><style>.cls-1{fill:#323232;opacity:0.4;}.cls-2,.cls-23,.cls-6{fill:#8f6f73;}.cls-2,.cls-23,.cls-3,.cls-37,.cls-40{stroke:#262626;}.cls-10,.cls-17,.cls-18,.cls-2,.cls-22,.cls-23,.cls-27,.cls-28,.cls-3,.cls-34,.cls-36,.cls-37,.cls-38,.cls-39,.cls-40,.cls-41,.cls-6,.cls-8,.cls-9{stroke-miterlimit:10;}.cls-10,.cls-17,.cls-18,.cls-2,.cls-22,.cls-27,.cls-28,.cls-3,.cls-36,.cls-40,.cls-41,.cls-6,.cls-9{stroke-width:0.58px;}.cls-3,.cls-7{fill:#f5f2ef;}.cls-4{fill:#bfb19d;}.cls-41,.cls-5{fill:#907175;}.cls-28,.cls-34,.cls-6{stroke:#232323;}.cls-22,.cls-8,.cls-9{fill:#f38590;}.cls-22,.cls-8{stroke:#712313;}.cls-8{stroke-width:0.55px;}.cls-9{stroke:#bc554a;}.cls-10,.cls-18{stroke:#302f2f;}.cls-10{fill:url(#linear-gradient);}.cls-11{fill:#fff;}.cls-12{fill:url(#linear-gradient-2);}.cls-13{fill:url(#linear-gradient-3);}.cls-14{fill:#030303;}.cls-15{fill:#fcfdff;}.cls-16{fill:#ee3e3d;}.cls-17{fill:#f28087;stroke:#922f1e;}.cls-18,.cls-27,.cls-28,.cls-33,.cls-34,.cls-36,.cls-37,.cls-38,.cls-39,.cls-40{fill:none;}.cls-19{fill:#302f2f;}.cls-20{fill:#795961;}.cls-21{fill:#422f2a;}.cls-23,.cls-34{stroke-width:0.39px;}.cls-24{fill:#262626;}.cls-25{fill:#75555c;}.cls-26{fill:#3d2d2b;}.cls-27{stroke:#1b1c1c;}.cls-29{fill:#74545b;}.cls-30{fill:#232323;}.cls-31{fill:#3a2528;}.cls-32{fill:#593f44;}.cls-35{fill:#282827;}.cls-36,.cls-38,.cls-41{stroke:#282827;}.cls-37,.cls-38,.cls-39{stroke-width:0.78px;}.cls-39{stroke:#30302f;}</style><linearGradient id="linear-gradient" x1="-74.34" y1="221.86" x2="-44.68" y2="221.86" gradientTransform="translate(117.26 -127.67) rotate(-3.54)" gradientUnits="userSpaceOnUse"><stop offset="0" stop-color="#4e1211"/><stop offset="0.31" stop-color="#471312"/><stop offset="0.69" stop-color="#200d0c"/><stop offset="0.98" stop-color="#680c0c"/></linearGradient><linearGradient id="linear-gradient-2" x1="-75" y1="177.81" x2="-77.94" y2="205.1" gradientTransform="translate(129.02 -123.33)" gradientUnits="userSpaceOnUse"><stop offset="0" stop-color="#4a240d"/><stop offset="0.64" stop-color="#9b6a33"/></linearGradient><linearGradient id="linear-gradient-3" x1="-33.13" y1="182.52" x2="-36.07" y2="209.82" gradientTransform="translate(129.23 -125.92)" xlink:href="#linear-gradient-2"/></defs><ellipse class="cls-1" cx="109.97" cy="244.21" rx="84.61" ry="22.4"/><path class="cls-2" d="M39.27,96.23c.18,1.76.34,3.55.48,5.38.17,2,.3,4,.42,6l5.75,2.19a25.32,25.32,0,0,1-2.2,2.17c-1.51,1.33-2.35,1.75-3.2,2.47a10,10,0,0,0-3,5l1.56.13A100.66,100.66,0,0,0,36.68,142c.16,26.42,11.06,38.18,12.83,64.47.69,10.1,1.23,28.4-2.18,31.27-2.46,1.09-9.14,2.6-6.14,12,1,1.5,1.63,1.5,3.13,2.18,3.83,4.78,9.29.69,9.29.69s2.87,3.14,10.38,0c2.05-2.46,4.64-5.6,5.33-15.3,0,0,1.49-19.29,1.38-20.09l-.12-.81a35.67,35.67,0,0,0,10.6,12.06,64.27,64.27,0,0,1-1.74,6.22q-.9,2.69-1.88,4.95a11,11,0,0,0-6.92,3.54c-3.09,3.64-3.24,9.51-1.49,10.44.61.32,2,.33,5.91-3.56,2.18,3.68,7,2.87,8.15,2.3,3.68,1.26,8.16,1.61,10.57-1.15a20.66,20.66,0,0,0,3.33-4.94s.12,2.3,3.91,3.1c1.37,4,6.2,2.87,8.26,2.07,7.58,2.18,12.41,0,15-3.1,0,0,12.63,1.38,21.24-3.79,5.06-3.22,6.55-5.51,6.55-5.51s4.94,5.05,24,4.36l-5.4-2.18s21.71,2.3,24.12,2.3L189,240.41s20.79,3.68,23.55,5.29l-2.3-4.48a18,18,0,0,0,11,5.86l7.23,1-4.94-3.45s9.76,3.68,19.07-.46c0,0-2-7.58-7.81-10.33,0,0,3.9.11,4.59.92s-8.73-14.93-25-14.13l6.55-.34S214.82,214,201.85,216s-26.42,5.29-27.34,5.4-11.82-.57-14.93-2.18c0,0,.35-10.68-.34-16.08s-2.53-16.31-8.5-25-18.49-27-18.49-27l-13.55-20-5-8.15A39.85,39.85,0,0,0,104.22,108Z"/><path class="cls-3" d="M128.88,190.41a26,26,0,0,0-8.49,4.12c-2.3,1.77-4.47,4.2-4.84,3.89s.44-1.17.1-1.5-1.8.86-2.27.51,1.43-3.11,1.8-7.19a7.86,7.86,0,0,0,0-3c-1.45-4-11.41-1.46-18.3-5.15-3.56-1.9-7.72-6.23-9.77-17.07,5.25-8.53,9.19-25.76,9.19-25.76l1.15,3.28.66-.66c11-19.2,3.11-27.57,3.11-27.57s-5.32-.6-7,.43c-22.75,9.31-25.56-2-27.18-2.12s-13-4.63-13-4.63l-1.57,12.82,2.76-1.5L53.7,131.51l4.14-2.79s-6.9,10.67,1.18,23.89S72.83,172.33,74.6,179s1,9.07,1,9.07l-2.76-3.74L74,188.89c1.18,4.54.4,14,.4,14s-2.76-5.32-3-5.91S74,212.16,74,212.16L71.45,208l1.17,10.11a13.85,13.85,0,0,0,1.49,3.46,15.1,15.1,0,0,0,5,5c11.63,7.49,15.37,13.82,22.28,12.81,3.33-.48,3.2-2.06,8.81-4.5a39.4,39.4,0,0,1,15-3.17h1c-1.67-1.51-6.43-6.26-6.87-13.36a17.38,17.38,0,0,1,.39-4.79q-1.39,3.38-2.77,6.75a14.26,14.26,0,0,1-.67-6.38,47,47,0,0,1,1.46-5.92c.22-.77.4-1.4.53-1.83l-.93.78c-1.14.94-2.27,1.88-3.4,2.8a12.67,12.67,0,0,1,1.27-6.09,14.31,14.31,0,0,1,2.7-3.62,47.15,47.15,0,0,1,4.37-3.73c-.14-.24-4.92,2.87-5.33,2.35s3.13-4.65,8.18-7A14.05,14.05,0,0,1,128.88,190.41Z"/><path class="cls-4" d="M52.69,115l2.36.23a21.22,21.22,0,0,0,27.34,3c1.17-.28,2.11-.53,2.77-.72s1.48-.44,2.93-.89l2.13-.67-.72-1.56-7,.42s-16.41,10.31-26.76-1.56l-2.67-1Z"/><path class="cls-5" d="M77.56,239.64c-1.33.4-6.34,2.07-8.37,6.74-.12.29-2.14,5.1,0,7.24a3.23,3.23,0,0,0,2.69,1c.89-.23,1.23-1.1,2-1a1.8,1.8,0,0,1,1.2.82l1,.3c.81.25,1.61.47,2.39.68a9.36,9.36,0,0,0,7,1.64,7.36,7.36,0,0,0,1.8-.08,8.35,8.35,0,0,0,2.69-1c5.61-3.48,10.89-23.11,10.89-23.11,1-3.68,2.53-9.31,4.59-16.31q.89-6.26,1.75-12.53l2.11,4.88,1.48-15.09s1.9,5.77,1.9,5.1,1.9-17.74,1.9-17.74l1.7,4.21s2.53-11.09,1-20-1.27-6.65-1.27-6.65L90.12,156.5c-5.77,9.26-7.18,16.87-7.39,22.12-.06,1.3.32,6.9,1.08,18,.7,10.27.81,11.12.65,13.61,0,0,0,.63-.09,1.28a110.12,110.12,0,0,1-3.13,17.36A98.17,98.17,0,0,1,77.56,239.64Z"/><path class="cls-2" d="M24.74,54.87s-.86-13.8-1.86-17.81-1.3-11.22.8-21.15S26.24,1.12,36.39,4.41q6.78,4.27,13.85,9.09,6.84,4.7,13.08,9.32C40.1,41.76,32.49,49.08,31.46,51.28c-.51,1.1-1.65,2.33-3.93,4.8-.26.28-.78.82-1.36.74C25.23,56.7,24.8,55.1,24.74,54.87Z"/><path id="f" class="cls-6" d="M54.66,24.31c-.44.22-12,5.13-20.38,14.89-8.16,9.91-17,19.07-19.61,27.37s-1.38,13.09-1.38,13.09l4.85-5.23s-3.78,4.85-.8,15l2.76-6.12s-2.81,5.34,4.16,14.15l1-6.79s2.17,7.23,4.53,9.9c0,0,3.38,7.66,25.76,13.12a18.75,18.75,0,0,0,9.24,5.6c9.62,2.36,17.31-4.51,18-5.17,1.18,0,14-.28,23.69-7.71,6.06-6.86,8.09-12.18,8.09-12.18s1.06,5.71.42,6.81c0,0,6.53-6.88,6-13.69v-.11s2.12,1.75,1.79,6c0,0,3-10.67.71-15.13a20.24,20.24,0,0,1,3.88,5.54s2.91-6.34-1.45-15.9S122,59.35,122,59.35s3.43-14.36,3.8-23,1.64-10.94-.47-20.24-2.65-10.45-15.13-6.38c-6.71,4-20.31,13.64-20.31,13.64l-1.17,1.13s-7.27-3.2-13.4-3.17S57.87,21.83,54.66,24.31Z"/><path class="cls-7" d="M27.56,93c.69-3.6,4.79-6.55,5-6.78C42.28,76.48,56,76.83,59.7,77c17,1,35.51-2.74,46.51,8.87,1.86,2,5.55,6,5.09,10.78-.83,8.69-14.51,13.67-17.18,14.64A39.33,39.33,0,0,1,83,113.6l3.77-4a25.22,25.22,0,0,1-19.91,8l-10.07-5a59.9,59.9,0,0,1-12.8-3,52,52,0,0,1-9.29-4.66,12.71,12.71,0,0,1-3-2.45c-.64-.75-1.54-2-1.53-2h0a10.64,10.64,0,0,1-1.14-1.34,8.29,8.29,0,0,1-1.63-3.67A8.12,8.12,0,0,1,27.56,93Z"/><path class="cls-8" d="M50.45,26.41a81.45,81.45,0,0,0-8.78-11.5A81.74,81.74,0,0,0,31.19,5.27,42,42,0,0,0,28.2,18a42.78,42.78,0,0,0,4.71,22.44,40.94,40.94,0,0,1,6.57-7.23A41.62,41.62,0,0,1,50.45,26.41Z"/><path class="cls-9" d="M72.49,88.53s-6.74-4-9.78-8.48c-1.19-4.3,2.2-5.32,3.77-6s10.55-2.46,14.74.2c3.25,2.25,6,4.27,2,8.08S74.54,89.86,72.49,88.53Z"/><path class="cls-10" d="M56.39,92.32a13.86,13.86,0,0,0,3.81,1.12,12.56,12.56,0,0,0,5.55-.31A21.21,21.21,0,0,0,69.5,91.5c.84-.43.75-.47,1.38-.75a1.88,1.88,0,0,0,.83-.5,1.55,1.55,0,0,0,.29-1A13.52,13.52,0,0,0,79.73,94a13.16,13.16,0,0,0,6.46-.36,16.08,16.08,0,0,1-6.67,9.65A14.4,14.4,0,0,1,74,105.37c-3.62.56-6.12.21-8.06-.76s-3.08-2.46-5.27-5.41A48,48,0,0,1,56.39,92.32Z"/><path class="cls-11" d="M41.24,68S41,64,45.41,57.49c2.2-3.24,5.59-4.91,8.79-4.3,4.16.79,6.25,6.07,7.61,9.52a9.17,9.17,0,0,1,.62,2.43,8.23,8.23,0,0,1-.27,3.17c-1.09,3.27-7.8,3.87-8.31,3.91C47.84,72.69,43.13,69.48,41.24,68Z"/><path class="cls-11" d="M84.47,69.06s-.25-4,4.17-10.51c2.2-3.24,5.6-4.91,8.79-4.3,4.16.79,6.25,6.07,7.62,9.51a9,9,0,0,1,.61,2.44,8.26,8.26,0,0,1-.27,3.17c-1.09,3.27-7.8,3.86-8.3,3.9C91.07,73.75,86.36,70.53,84.47,69.06Z"/><ellipse class="cls-12" cx="52.93" cy="64.62" rx="6.13" ry="6.67" transform="translate(-3.89 3.39) rotate(-3.54)"/><ellipse class="cls-13" cx="95.01" cy="66.74" rx="6.13" ry="6.67" transform="translate(-3.94 6) rotate(-3.54)"/><ellipse class="cls-14" cx="52.97" cy="65.32" rx="3.65" ry="3.32" transform="translate(-3.94 3.4) rotate(-3.54)"/><ellipse class="cls-14" cx="95.4" cy="67.35" rx="3.65" ry="3.32" transform="translate(-3.98 6.03) rotate(-3.54)"/><ellipse class="cls-11" cx="93.18" cy="64.5" rx="1.69" ry="1.66" transform="translate(-3.81 5.88) rotate(-3.54)"/><ellipse class="cls-15" cx="50.46" cy="63.3" rx="1.61" ry="1.39" transform="translate(-3.82 3.24) rotate(-3.54)"/><path class="cls-16" d="M66.93,84.55S73.6,87,80.77,78.09L82,74.61a5.6,5.6,0,0,1,1,.69,6.19,6.19,0,0,1,1.91,3.17c.19,1.44-.76,2.58-2.08,4.17a21,21,0,0,1-7,5.25c-.76.4-1.42.69-1.88.88a17.68,17.68,0,0,1-4.6-2.24A17.37,17.37,0,0,1,66.93,84.55Z"/><path class="cls-17" d="M62.6,100.84s4.7-5.66,9.22-2c3.43-1.36,5.12-1.39,8.52,2.77C79.25,102.57,69.15,110.72,62.6,100.84Z"/><path class="cls-16" d="M78,99.1s-3.63,8.36-13.14,3.42c5.92,5.16,11.86,2,14.83-.76C79.64,101.76,79.29,99.71,78,99.1Z"/><path class="cls-18" d="M49.05,84.73S56,100.09,71.71,90.25l.1-1.21s11.82,13.7,22.7-3"/><path class="cls-19" d="M46.18,84.91a6.14,6.14,0,0,0,3-1.06,9.52,9.52,0,0,0,1.23-1c.39-.36.75-.76,1.15-1.16-.1.27-.23.51-.35.77s-.3.47-.47.7a5.48,5.48,0,0,1-1.24,1.16,4.52,4.52,0,0,1-1.58.67A3.23,3.23,0,0,1,46.18,84.91Z"/><path class="cls-19" d="M93,82.81a4.24,4.24,0,0,0,.88,1.38,9.28,9.28,0,0,0,1.19,1.07c.84.68,1.8,1.24,2.72,2a6.54,6.54,0,0,1-1.68-.46,6.65,6.65,0,0,1-1.52-.89,4.74,4.74,0,0,1-1.19-1.33A2.49,2.49,0,0,1,93,82.81Z"/><path class="cls-4" d="M43.39,109.33c-1.17-.58-2.24-1.18-3.22-1.76A9.62,9.62,0,0,0,43.39,109.33Z"/><path class="cls-4" d="M109,103.13c1.08-1.42,1.81-3.06,2.75-4.56a1.45,1.45,0,0,1,.54-.51c.25-.53.48-1,.68-1.53-.06-.21-.11-.43-.17-.65a20.12,20.12,0,0,0-1.44-3.65,38.73,38.73,0,0,1-13.45,12.63,37.65,37.65,0,0,1-8.94,3.58l-.26-2.15c-20.61,16-32.15,6-36.54,1.61A10.58,10.58,0,0,1,44,109.51a6,6,0,0,1-.64-.18,48.33,48.33,0,0,0,7.09,2.89,50.58,50.58,0,0,0,5.3,1.36,18.44,18.44,0,0,0,8,5,18.06,18.06,0,0,0,7.34.69,22.61,22.61,0,0,0,10.2-4.34,21.42,21.42,0,0,0,3.74-3.67L83,114l.42,0a1.28,1.28,0,0,1,.35-.06l1.92-.1a1.3,1.3,0,0,1,.5-.19,92.84,92.84,0,0,0,9.52-1.8,33,33,0,0,0,5.75-2.47,46.48,46.48,0,0,0,4.06-2.59A33.77,33.77,0,0,0,109,103.13Z"/><path class="cls-20" d="M110.74,92.45l4-8.78s2,3,1.74,4.16c0,0,2.14-6.31,1.52-8.73s1.39,1.81,1.39,1.81,1.41-7.79.37-10.4l1.88.78s-2.68-10.8-8.88-19.57S90.2,24.08,90.2,24.08s10.84,4.52,25,26.66a41.18,41.18,0,0,1,5.51,7c1.22,2,2.43,4.81,4.85,10.5,2,4.84,2.38,6,2.55,7.43a17.41,17.41,0,0,1-.9,7.61A10.58,10.58,0,0,0,126,80.6a10.33,10.33,0,0,0-2.65-2.87,17.9,17.9,0,0,1,.9,4.17,22.39,22.39,0,0,1-.34,5.69,37.37,37.37,0,0,1-1.16,5.14,5.51,5.51,0,0,0-.45-3.62A5.26,5.26,0,0,0,121,87.4a20,20,0,0,1-.83,4.7,20.66,20.66,0,0,1-5,8.31c-.3-.81-.33-1.11-.28-1.22L115,99h0l-.16-6.11-2.56,5Z"/><path d="M45,48.67a8.36,8.36,0,0,1,2.8-3.2A7.93,7.93,0,0,1,51.92,44a8.08,8.08,0,0,1,4.28,1A10,10,0,0,1,58,46.22a16.12,16.12,0,0,1,1.44,1.55c-.66-.28-1.25-.62-1.86-.91l-.92-.39a5.43,5.43,0,0,0-.92-.35c-.31-.08-.62-.18-.92-.28s-.63-.11-.94-.17a3.68,3.68,0,0,0-.93-.1,4.82,4.82,0,0,0-.93,0,9.53,9.53,0,0,0-3.64.94A18.45,18.45,0,0,0,45,48.67Z"/><path d="M88.57,48.77A7.7,7.7,0,0,1,92,46a8.79,8.79,0,0,1,4.43-.71,9.55,9.55,0,0,1,4.2,1.49,11.81,11.81,0,0,1,1.71,1.35,14.48,14.48,0,0,1,1.36,1.68c-.69-.28-1.29-.62-1.9-.91l-.93-.41a8.1,8.1,0,0,0-.92-.38,13.36,13.36,0,0,0-11.33.62Z"/><path class="cls-21" d="M84.14,67.33a25.57,25.57,0,0,1,2.7-8.85,15.78,15.78,0,0,1,2.86-3.94A8.71,8.71,0,0,1,94.36,52a7.32,7.32,0,0,1,5.35,1.23A11.38,11.38,0,0,1,103.08,57a17.26,17.26,0,0,1,2.27,9,32.5,32.5,0,0,0-4.27-7.66,11.58,11.58,0,0,0-2.94-2.62,4.8,4.8,0,0,0-3.27-.66,6.54,6.54,0,0,0-3.18,1.64,20.14,20.14,0,0,0-2.81,3C87.19,62.09,85.72,64.69,84.14,67.33Z"/><path class="cls-21" d="M43.24,62.41a14.06,14.06,0,0,1,2.07-8,9.38,9.38,0,0,1,3.29-3.11,7.78,7.78,0,0,1,4.67-.91,8.94,8.94,0,0,1,4.29,1.75,11.45,11.45,0,0,1,3,3.26,13.57,13.57,0,0,1,1.88,8,24.17,24.17,0,0,0-3.86-6.57,9.38,9.38,0,0,0-5.63-3.35,6.64,6.64,0,0,0-5.67,2.42A26,26,0,0,0,43.24,62.41Z"/><path class="cls-16" d="M31.19,5.27a75.67,75.67,0,0,1,2.08,7.39c.44,1.94.78,3.79,1,5.53h0C34.2,21.61,34.08,25,34,28.44s-.24,6.74-.37,10.1a80.16,80.16,0,0,1,9.63-8.18,77.61,77.61,0,0,1,6.91-4.45c-.62-1-1.49-2.27-2.58-3.78a65.27,65.27,0,0,0-5.88-7.22C40.58,13.75,39,12.3,35.8,9.41,33.9,7.68,32.31,6.26,31.19,5.27Z"/><path class="cls-22" d="M100.55,31s7.09-13.93,18.2-19.31c.71,4.35,5.58,26.19-3.88,36.9C113,47,101.55,31,100.55,31Z"/><path id="f-2" data-name="f" class="cls-16" d="M118.74,11.92c.81.69-3.66,5.41-5.83,11.71-2.1,6.1-2.22,14.18,2.44,25-2.46-2.76-5-5.69-7.49-8.79S103.15,33.86,101,31a55.93,55.93,0,0,1,8.37-11.72C113,15.38,118,11.23,118.74,11.92Z"/><path class="cls-23" d="M81.18,228.47c-1.33-.6-9.18-4.29-11.13-12.23-1-4,0-7.3,1.82-13.52.58-2,2.07-7,3.75-6.91.61,0,1,.71,1.25,1.05,1.1,1.73,3.18,4.07,7.48,6.83a83.33,83.33,0,0,1-.69,12.85A83.93,83.93,0,0,1,81.18,228.47Z"/><path class="cls-24" d="M53.28,253.14a20.78,20.78,0,0,1-.1-3.61A13.92,13.92,0,0,1,53.8,246a6,6,0,0,1,2-3,4.83,4.83,0,0,1,3.41-.87,4.84,4.84,0,0,0-3.32,1,5.75,5.75,0,0,0-1.77,3,13.64,13.64,0,0,0-.47,3.48,22.88,22.88,0,0,0,.24,3.52Z"/><path class="cls-25" d="M117.66,169.65c-.07-3-1.59-12.33-1.59-12.33l-1-2.77-2,18.94-1.29-.6-1.63,16.43-2.55-1.2-.9,12.47-1.58-1S100.7,232,95.52,240.74c-1.6,8-5.18,13.31-7.6,14a12.33,12.33,0,0,1-2.84.42,10.7,10.7,0,0,1-3.45-.54,17,17,0,0,1,.14,2.22c0,.38.47,1,.22,1.44-.07.13-.17.24-.13.38s.4.28.7.31a10.75,10.75,0,0,0,1.82.57,11.83,11.83,0,0,0,4.33.06c2.55-.56,4.16-3.67,5.52-6.71a106.27,106.27,0,0,0,5.33-15.33c.77-2.74,2-6.77,3.71-11.65,0,0,3.6-14.46,3.49-16.23s0-5.92,0-5.92l2.21,5,1.55-15.48,2,5.24,2-18.22,1.78,4.33S117.73,172.66,117.66,169.65Z"/><path class="cls-26" d="M122.31,232.22c.28,0,9.16-.49,15.55.9"/><path class="cls-26" d="M61.85,112.37c-.35-.11-5.81-5.88-6.06-6.73"/><path class="cls-27" d="M116.19,156.53a70.07,70.07,0,0,1,1.26,8.15,68.78,68.78,0,0,1,0,13.4c-.4,4.14-1,7.27-1,7.27l-1.78-4.21-2,17.74-2-5.1-1.56,15.09s-2.24-5.47-2.2-4.88c.24,3.3-.85,6.59-.81,9.9,0,2.73-2.16,11.35-10.1,33.94,0,0-3.24,12.1-7.67,12"/><path class="cls-28" d="M88.46,158.29h0c-1.86,3.95-3.3,7-3.38,7.2-3.8,8.38-1.9,20.57-1.43,26.18A150.33,150.33,0,0,1,84,212.6a84.71,84.71,0,0,1-6.45,27,11,11,0,0,0-6.92,3.54,10.73,10.73,0,0,0-2,3.6,12.08,12.08,0,0,0-.47,5.71"/><path d="M114.63,125.48l-1.81-2.74.65-.25a67.7,67.7,0,0,1,.62,7.26,34.25,34.25,0,0,1-.07,3.65,12.68,12.68,0,0,1-.7,3.62l-.12.31-.26-.26-3.18-3.24.3-.11a37.43,37.43,0,0,1-.7,4.47,29.81,29.81,0,0,1-1.27,4.33,16.4,16.4,0,0,1-2.07,4,9.32,9.32,0,0,1-3.33,3,9.35,9.35,0,0,0,3.26-3,16.71,16.71,0,0,0,2-4,29.48,29.48,0,0,0,1.18-4.33,36.72,36.72,0,0,0,.6-4.44l0-.37.27.26,3.28,3.23-.38.05a12.42,12.42,0,0,0,.61-3.5,35.83,35.83,0,0,0,0-3.59,66.24,66.24,0,0,0-.75-7.17l-.24-1.55.89,1.29,1.87,2.7Z"/><path class="cls-29" d="M190.46,241.64l16.09,2.11-.84-4.83s-4.37-3.84-22.2-2.32l2.7,2s-20.35-.86-22.2-1.19.34,1.49.34,1.49l-9.59-5.51s4-8.25,4.71-14.8a111.26,111.26,0,0,0,.17-14.8c0-1.18-1.85-15.47-6.39-21.86s-17-24.72-17-24.72l-14.59-22q-4.2-6.58-8.38-13.19a17.89,17.89,0,0,0-1.48-3.59,34.15,34.15,0,0,0-2.48-3.64c-.47-.64-.86-1.16-1.14-1.52-.61-.79-1-1.42-1.89-2.65-1.58-2.23-1.69-2.37-2-2.44-.88-.22-1.53.57-3.28,1.6a17.39,17.39,0,0,1-3.52,1.61,10.2,10.2,0,0,1,3.74,2.35,10.4,10.4,0,0,1,2.29,3.39,35.21,35.21,0,0,1,.91,4.29,14.15,14.15,0,0,0,.63,3.16,9,9,0,0,0,1.55,2.66l-.09-2.11.28,6.89s15.87,18,20.07,24.89c7.57,8.4,20,26.23,22.19,32.78s8.92,17.66,0,38.51c-4.37,9.25-9.08,15.46-21.69,13.45-1,1.18-5.86,8.88-17.47,5.28-.69.78-6.07,2.66-7.41-2.74a7.07,7.07,0,0,1-2.87-.64,7.46,7.46,0,0,1-1.45-.89,2.46,2.46,0,0,0-.91,1.78s0,0,.05.56c.11,1.21.1,1.23.12,1.35a2.87,2.87,0,0,0,.91,1.86,7,7,0,0,0,2.21.87,1.51,1.51,0,0,1,.73.38c.33.32.32.74.43.91a4.3,4.3,0,0,0,3,1.63,6.51,6.51,0,0,0,4.16-.73,23.93,23.93,0,0,0,6,.76,13.51,13.51,0,0,0,4.62-.55,11.34,11.34,0,0,0,5.14-3.64c1.32.18,3.21.38,5.49.48a48,48,0,0,0,12.18-.91,39.12,39.12,0,0,0,5.73-2c2-.8,3.24-1.41,3.3-2.29s-1-1.19-1-2.14,1-1.76,2-2.31a21.09,21.09,0,0,0,4.35,2.64c1.32.6,4.21,1.74,14.08,2.22,1.55.08,3.55.15,5.88.17l-5.57-2,22.54,1.65Z"/><polygon class="cls-4" points="100.68 114.04 94.25 114.79 93.15 115.4 100.99 114.4 100.68 114.04"/><path class="cls-25" d="M68.7,248.81a12,12,0,0,0-.49,2.84,6,6,0,0,0,.32,3,4.46,4.46,0,0,0,3.24,2.48,3.94,3.94,0,0,0,2.22-.43,13.51,13.51,0,0,0,1.5,1.16,8,8,0,0,0,3,1.37A5.51,5.51,0,0,0,83,258.1c-.09-.93-.19-1.86-.28-2.79-1.21-.21-2.55-.49-4-.88a34.56,34.56,0,0,1-4.6-1.56A16.55,16.55,0,0,1,68.7,248.81Z"/><path class="cls-30" d="M44.45,251.64A16.44,16.44,0,0,1,46.31,244a7.13,7.13,0,0,1,2.75-2.83,6.56,6.56,0,0,1,3.84-.7,6.41,6.41,0,0,0-3.77.83,6.91,6.91,0,0,0-2.57,2.84A16.07,16.07,0,0,0,45,251.64Z"/><path class="cls-29" d="M71.93,173.9a20.43,20.43,0,0,1,3.67,14l-3.29-4.57c.31,1,.73,2.49,1.18,4.26a38.92,38.92,0,0,1,.94,4.19,36.71,36.71,0,0,1,.17,5.23c0,1.38-.06,3.26-.17,5.51l-3-6.32q.81,5.58,1.8,11.34c.26,1.47.52,2.92.78,4.36l-3-5.32c.25,1.79.49,3.6.73,5.41q.49,3.79,1,7.55L70.89,216c-1,13.42-1.91,23.29-2.31,25.83a28.94,28.94,0,0,1-1.1,4.48c-.35,1-.72,1.8-.89,2.18a11.08,11.08,0,0,1-.89,1.7,11.6,11.6,0,0,1-1.11,1.4,16.09,16.09,0,0,1-1.2,1.23l-.89.28a13.31,13.31,0,0,1-5.18.86,7.84,7.84,0,0,1-2-.41,7,7,0,0,1-1.46-.73l1.06-3.42s9.87.68,10.45-5.15,1.69-31.61,1.69-31.61v-3.59L69.63,212,69,201.56l2,.9-1.38-10.88,1.94-1-1.91-13.78,2.92,2.69Z"/><path class="cls-31" d="M124.58,140.92l4.73,8.08s-2.42-.78-7,3.73-3,4.13-3,4.13A16.48,16.48,0,0,1,124.58,140.92Z"/><path class="cls-31" d="M137.86,160s-5.58.56-7.77,7.15-2.23,10.36-5.51,13.65-5.26,9.65-5.26,9.65,7.53-8.47,11.94-9.65,15.78-7,15.78-7Z"/><path class="cls-31" d="M159.44,203.36c-.71-.23-21.8-6.21-29.35-5.41,7.46,5.89,12.64,9.42,17.34,12.71s12,3.3,12,3.3Z"/><path class="cls-31" d="M160.61,222.65a10.05,10.05,0,0,1,5.88,7.94l1.41-9L160,219.5Z"/><path class="cls-31" d="M173.82,221.66l4.69-.87s.38,8.53,2.23,12.08A17.27,17.27,0,0,1,173.82,221.66Z"/><path class="cls-31" d="M191.63,217.4s9.19-1.65,10.1-1.9-3.88,7.38-4.06,10,1.21,8.86,0,10.42c0,0-1.49-5-3.27-6.25s-2-5.46-2.38-8.86Z"/><path class="cls-31" d="M154.73,232.12c-1-3.46-7.44-4.28-11.27-4.72-2.9-.34-6.16.52-6.29.17,0-.07.05-.15.08-.17.45-.34,3.52,2.47,13.1,13.54a11.74,11.74,0,0,0,2.6-2.84C153.67,237,155.39,234.34,154.73,232.12Z"/><path class="cls-31" d="M106.89,206.94s-9.63,2.43-13.51,3a59.26,59.26,0,0,0-6.82,1.35s7.36.67,13,1.35c2.2.26,8.59,2.25,6.45,1.68h0Z"/><path class="cls-31" d="M84,194.58s6.55,3.16,10.21,3.49a4.32,4.32,0,0,0,1.37,0c3-.69-8.67,4.68-10.46,4.54Z"/><path class="cls-31" d="M84.47,167.67s.41.41,6.74,2.34l13.06,4s-6,1.75-9.9,1.43-4.54-.51-6.19,0-5.5,1.71-5.5,1.71S82.54,169.05,84.47,167.67Z"/><path class="cls-32" d="M40.55,114s3,.22,5.46,3.79c2.48,3.27,4.19,5.48,6.5,6.21a3.45,3.45,0,0,0,.46.12c-3.44-.19-.16,0-.16,0s-2,1.52-7-2.41c-2.9-2.12-5.81-3.63-6.52-3.64S39.75,114.57,40.55,114Z"/><path class="cls-32" d="M36.54,139.65s2.4.8,9.26,3.19S54.26,144,54.26,144l-15.73,6.25c-.42-1.61-.83-3.34-1.18-5.2S36.73,141.33,36.54,139.65Z"/><path class="cls-31" d="M43.56,172.22s5.09,1.17,12.74,7.16c8.54,5.36,9.68,6.5,9.68,6.5S65.09,184,57.83,184,47,185.05,46,182.92,43.56,172.22,43.56,172.22Z"/><path class="cls-31" d="M50.72,210.6s3.06-.91,8.67,4.39,6.5,5.68,6.5,5.68-12.75-4.4-15.17-1.82Z"/><path class="cls-31" d="M126.65,68.89a40.28,40.28,0,0,0-7,2.91,41,41,0,0,0-10.35,7.84A58.54,58.54,0,0,1,129.56,78Z"/><path class="cls-24" d="M100.46,249.44a9.49,9.49,0,0,1,1.54-6.77,9.17,9.17,0,0,1,5.66-3.82A9.07,9.07,0,0,0,101,249.34Z"/><path class="cls-32" d="M92.9,26.34s-2,5.34-4.89,12.19L85.1,45.39s7.79-7.81,11.8-10.67l4-2.85S95.37,26.72,92.9,26.34Z"/><path class="cls-32" d="M71.54,22a43.9,43.9,0,0,1,17,1.72A87.76,87.76,0,0,1,85,38.17a87.89,87.89,0,0,1-7,15.41,48,48,0,0,0,.79-12.19,35.32,35.32,0,0,0-4.67-15.72A33.16,33.16,0,0,0,71.54,22Z"/><path class="cls-32" d="M54.57,24.34a20,20,0,0,1,3.56-1.52,20.49,20.49,0,0,1,4.65-.91c1.91,3.81,2.48,11.23,3.24,13.9a32.47,32.47,0,0,1,.91,6.26c-2-2.34-4-4.92-6-7.75C58.5,30.85,56.39,27.5,54.57,24.34Z"/><path class="cls-32" d="M16,62.67a29.55,29.55,0,0,1,16.79,8.14c-7.71-1.85-15.42-.82-19.56,0Z"/><path class="cls-11" d="M208.4,216a17,17,0,0,1,5.63.58c3.18.89,6.55,2.86,6.3,3.74-.13.45-1.28.82-6,.31l-.25,1.32a1.36,1.36,0,0,1,.2-1c.31-.4,1-.55,3.7-.19a22.81,22.81,0,0,1,2.6.41,27.28,27.28,0,0,1,4.85,1.56,30.91,30.91,0,0,1,7.13,4.44c3.46,2.82,6.46,6.39,6.16,6.73-.06.07-.25,0-.41-.08-.73-.13-1.53-.24-2.39-.31a29.3,29.3,0,0,0-3.18-.08,11.9,11.9,0,0,1,9.13,11,16.56,16.56,0,0,1-6,1.27,22.75,22.75,0,0,1-4-.38c-2.05-.28-5-.65-8.67-1l5.19,3.64c-2.91-.49-5.32-1-7.1-1.49a32,32,0,0,1-6.37-2.1,21.26,21.26,0,0,1-4.34-2.87l1.32,3.42-5.23-1.67a26.07,26.07,0,0,1-2.72-8.37C202.67,225.67,206.85,218.44,208.4,216Z"/><path class="cls-4" d="M204.32,237c.09.68.22,1.4.39,2.15a24.85,24.85,0,0,0,1.6,4.73l6,1.26c-.55-1.31-1.11-2.61-1.66-3.92a23.19,23.19,0,0,0,4.79,3.38,27.77,27.77,0,0,0,7.06,2.42,46.67,46.67,0,0,0,6,1.05l-5.19-3.86s11.4,3.56,19.76,0c-.13-.43-3.16-3.36-9.5-4.53s-13.27-2-13.27-2l-.29,3.8-8.79-3.12-1.26-3.51h-6Z"/><path d="M65.33,87.08a9.73,9.73,0,0,0-2.85.35,12.74,12.74,0,0,0-2.68,1,16.1,16.1,0,0,0-4.52,3.43,26.29,26.29,0,0,0-3.49,4.55c-.47.84-.95,1.68-1.41,2.53s-.83,1.74-1.28,2.61c.31-.92.66-1.83,1-2.75s.84-1.76,1.26-2.64a24,24,0,0,1,3.46-4.75A15.51,15.51,0,0,1,59.59,88,10.37,10.37,0,0,1,65.33,87.08Z"/><path d="M62.67,83.38a24.16,24.16,0,0,0-3.94,1.08c-1.29.43-2.56.94-3.8,1.48a44.23,44.23,0,0,0-7.11,3.91A36,36,0,0,0,41.58,95l-1.4,1.47-1.27,1.6c-.21.26-.43.52-.64.79l-.57.85-1.15,1.7a29.47,29.47,0,0,1,4.59-6.82,33.51,33.51,0,0,1,6.24-5.41,40.13,40.13,0,0,1,7.32-3.82A28.72,28.72,0,0,1,62.67,83.38Z"/><path d="M59.18,81.21a26.51,26.51,0,0,0-3.32-.35c-.56,0-1.12,0-1.67-.06l-1.66,0A27.58,27.58,0,0,0,46,81.9,26.18,26.18,0,0,0,42.88,83a29.17,29.17,0,0,0-2.94,1.52,30.16,30.16,0,0,0-5.31,4c.37-.42.74-.84,1.13-1.26A12.14,12.14,0,0,1,36.94,86L38.24,85c.43-.37.92-.65,1.38-1a22.1,22.1,0,0,1,3-1.66,28.45,28.45,0,0,1,3.2-1.16,26,26,0,0,1,6.73-.91A23,23,0,0,1,59.18,81.21Z"/><path d="M90.44,90a15.43,15.43,0,0,1,5.11,3,24.61,24.61,0,0,1,4,4.38,28.81,28.81,0,0,1,1.56,2.54,23.5,23.5,0,0,1,1.32,2.66c.4.91.7,1.85,1.05,2.78s.53,1.9.76,2.86l-1.06-2.75c-.41-.89-.76-1.81-1.21-2.68a33.84,33.84,0,0,0-3-5,27,27,0,0,0-3.82-4.38A19.46,19.46,0,0,0,90.44,90Z"/><path d="M95.71,90a19.61,19.61,0,0,1,6.62,2A21.92,21.92,0,0,1,108,96a27.23,27.23,0,0,1,2.28,2.66l1,1.43c.3.49.56,1,.84,1.53a26.39,26.39,0,0,1,1.39,3.18c.38,1.09.64,2.22.93,3.34-.43-1.08-.75-2.18-1.23-3.22a24.32,24.32,0,0,0-1.54-3.06,24.69,24.69,0,0,0-9.57-9.45A24,24,0,0,0,95.71,90Z"/><path class="cls-33" d="M96,85c.32.16,14.25-3.29,24.42,11.42"/><path class="cls-29" d="M56.59,114.36l.1,1.89c-2.36-.49-4.26-1-5.63-1.36a29.77,29.77,0,0,1-3-1.08,7.46,7.46,0,0,1-2.37-1.41,7.18,7.18,0,0,1-1-1.08l-.52-1.27a50.94,50.94,0,0,0,5.43,2.38A45.17,45.17,0,0,0,56.59,114.36Z"/><path class="cls-28" d="M159.58,219.17s7.81,4.21,21.88.65,30.6-7.68,39.45.5l-2.9.44s12.56.9,21.39,14l-6.63-1.36s7.23.82,10.23,10.77c0,0-9.89,5.11-19.76,0l5.93,3.86s-12.8.14-18.22-6.06l1.58,3.7s-17.6-5.16-22.07-4.06l4.38,1.88s-21.74-1.34-22.93-1.82,4.71,2,4.71,2-17.65,1-24.5-4.62"/><path class="cls-34" d="M40.36,245.34s-1,5.27,4,6.58c1.76,1.57,4.08,3.58,9.31.8,0,0,4.55,3.61,10.81-.66,1.26-1.54,4.21-6.68,4.46-10.88.38-3.41,1.23-13.66,1.23-13.66l.76-11.5,1.69,3.33L71,206.8l3.17,5.87-2.45-15.62,2.67,5.51s.42-9.71,0-11.69-1.83-7.11-1.83-7.11l3,4.34a28.21,28.21,0,0,0,0-4.83,62.29,62.29,0,0,0-1.77-6.63c-.42-.93-2.12-4.24-2.12-4.24"/><path class="cls-28" d="M71.09,218.2A21.08,21.08,0,0,0,81.2,228.47"/><path class="cls-35" d="M135.18,248.38c-1.76.09-3.54.25-5.33.26a18.14,18.14,0,0,1-5.33-.63l.22-.07a13.77,13.77,0,0,1-7.77,4.27,13.23,13.23,0,0,1-8.71-1.37l0,0v0a5.46,5.46,0,0,1-.18-4.44,5.19,5.19,0,0,1,3.21-3h0a10.79,10.79,0,0,1,1.38-.5,2.63,2.63,0,0,0,1.24-.74,2.56,2.56,0,0,1-1.23.76,10.88,10.88,0,0,0-1.38.52h0a5.12,5.12,0,0,0-3.12,3,5.33,5.33,0,0,0,.23,4.32l0,0a12.91,12.91,0,0,0,8.56,1.23,13.33,13.33,0,0,0,7.51-4.25l.09-.1.13,0a17.54,17.54,0,0,0,5.21.55c1.76,0,3.52-.23,5.3-.34Z"/><path class="cls-36" d="M104.27,108.17c1.08,2,3,3,4,4.5,3,4.44,4.43,8.38,6.9,12.82,12.82,19.73,25.65,37,38,56.72,7.39,11.34,7.39,24.16,5.91,37a36.51,36.51,0,0,1-8,20.94"/><path class="cls-29" d="M99.05,112.57l1.48.58s4.16-.5,5.74-1.36l-.24-.91-2.82-.27S99.57,112.43,99.05,112.57Z"/><path class="cls-31" d="M114.41,124.42a100.4,100.4,0,0,0-10.34,4.27c-3.44,1.84-4,3.18-4,3.18s1.88-.19,4.35-.29c3.62-.14,4.19.27,7.85.23,3.31,0,6.84-.36,6.84-.36h0Z"/><path class="cls-24" d="M94.66,252.07a13.77,13.77,0,0,1-1.59,4.12A8.62,8.62,0,0,1,90,259.36a7.08,7.08,0,0,1-4.32.8,11.22,11.22,0,0,1-2.16-.46c-.34-.13-.7-.24-1-.38l-.5-.22-.26-.11h0s-.09-.07-.09-.09a.34.34,0,0,1,0-.1.44.44,0,0,1,0-.15,15.2,15.2,0,0,1,.32-4.37,13.77,13.77,0,0,1,1.5-4.09,7.46,7.46,0,0,1,7.24-4,7.39,7.39,0,0,0-7.1,4.05,13.61,13.61,0,0,0-1.41,4.06,15.06,15.06,0,0,0-.24,4.28c0,.07,0,.19,0,.11l.25.1.49.21c.33.14.68.23,1,.35a10.19,10.19,0,0,0,2.09.42,6.74,6.74,0,0,0,4.07-.81c2.44-1.46,3.76-4.29,4.32-7Z"/><path class="cls-37" d="M88.71,259.6a10.85,10.85,0,0,1-6.42-.75"/><path class="cls-35" d="M68.71,249.82a11.45,11.45,0,0,0-.2,3.5,4,4,0,0,0,1.46,3,4.36,4.36,0,0,0,3.32.43l.43-.1.11,0s.1-.05,0,.06,0-.1,0-.15c0-.29.06-.59.08-.89,0-.6.11-1.21.19-1.81A14.7,14.7,0,0,1,76.45,247a7,7,0,0,1,2.79-2.27,8,8,0,0,1,3.55-.58,7.82,7.82,0,0,0-3.51.66,6.59,6.59,0,0,0-2.7,2.29,14.47,14.47,0,0,0-2.17,6.75c-.06.59-.1,1.19-.14,1.79,0,.3,0,.6-.06.91a.84.84,0,0,1-.07.29v0a.27.27,0,0,1-.08.07L74,257h0l-.12,0-.44.11a4.8,4.8,0,0,1-3.66-.44A4.48,4.48,0,0,1,68,253.38a11.66,11.66,0,0,1,.15-3.68Z"/><path class="cls-38" d="M73.81,256.88a11.22,11.22,0,0,0,8.48,2"/><path class="cls-39" d="M130.09,214s8.65,16.21,16.95,23.2c5.88,6.45,7.61,7.64-7.39,10.81-13.39,1-15.27-.21-15.27-.21"/><path class="cls-40" d="M126.17,231.7a20.73,20.73,0,0,1-7.1-16.13l-1.3,1.89-.85,2.84-.47-2.53c-1-4.74,1.21-10.93,1.21-10.93l-3.75,2.91a14.22,14.22,0,0,1,.64-4.36,16,16,0,0,1,7-8.63l-4.58,1.9,1.58-1.9a18.1,18.1,0,0,1,5.94-5,13.41,13.41,0,0,1,4.44-1.31s3.61-1.65,9,.05"/><path class="cls-41" d="M80.42,231.49s-11.88,3-10.83,7.36c1,3,1.33,2.49,4.65,1.64l3.32-.85Z"/><path class="cls-41" d="M102.15,229.69s7.56-3.69,9.74-.87a4.45,4.45,0,0,1,.66,5.14l-7.28,3.68-3.85,1.73-2.51-.32Z"/><path class="cls-2" d="M104.46,222.3l0,.06a15,15,0,0,0,6.4,5.71c5.39,2.37,10.71,0,11.41-.31l3.36,3.73s-7.78.35-12.87,2.64-12.09,5.45-12.09,5.45A8,8,0,0,0,97.78,243a8,8,0,0,0-.67,3.25"/><line class="cls-40" x1="102.77" y1="227.32" x2="107.73" y2="226.08"/></svg>