<svg id="Layer_1" data-name="Layer 1" xmlns="http://www.w3.org/2000/svg" viewBox="0 0 170 140"><defs><style>.cls-1{fill:#f1a9a6;}.cls-2{fill:#fff;}.cls-3{fill:#0e3eaa;}.cls-4{fill:#003dc6;}.cls-5{fill:#a52020;}.cls-6{fill:#f5c6bf;stroke:#a51f23;}.cls-11,.cls-6,.cls-8{stroke-miterlimit:10;stroke-width:2px;}.cls-7{fill:#fff1f0;}.cls-8{fill:#f88092;}.cls-11,.cls-8{stroke:#72081d;}.cls-9{fill:#ffc7d4;}.cls-10{fill:#e8627f;}.cls-11{fill:#4c0000;}.cls-12{fill:#280000;}.cls-13{fill:#72081d;}</style></defs><path class="cls-1" d="M62.36,37.79c-6.5,11.34-17.09,17.48-23.64,13.73s-6.59-16-.09-27.34S55.39,5.64,61.94,9.4,68.87,26.45,62.36,37.79Z"/><path d="M61.23,39.75C55.35,50,45.27,55.27,38.72,51.52s-7.1-15.12-1.21-25.38S53.47,10.62,60,14.38,67.12,29.5,61.23,39.75Z"/><path class="cls-2" d="M60.67,40.74C55.1,50.45,45.41,55.35,39,51.69S32,37.18,37.53,27.47,52.8,12.87,59.18,16.53,66.24,31,60.67,40.74Z"/><path class="cls-3" d="M58.59,40.88c-2.8,5.43-8.13,8.25-11.91,6.3s-4.57-7.93-1.77-13.36,8.14-8.26,11.92-6.31S61.39,35.44,58.59,40.88Z"/><path class="cls-4" d="M44.31,35.15c-2,5.05-1.1,10.24,2.37,12,3.78,2,9.11-.87,11.91-6.3a15.43,15.43,0,0,0,1.28-3.43A15.41,15.41,0,0,1,44.31,35.15Z"/><path d="M57.82,40c-1,3.22-3.69,5.24-6.08,4.52s-3.54-3.9-2.58-7.12,3.69-5.24,6.07-4.52S58.78,36.75,57.82,40Z"/><path class="cls-2" d="M55.15,35.08a1.76,1.76,0,1,1-1.07-2.44A1.9,1.9,0,0,1,55.15,35.08Z"/><path class="cls-1" d="M137.25,19.59c19.07-1.4,32,24,25.93,45C159.59,76,123,81.45,115.43,66.65,112.3,54.92,115.56,20.71,137.25,19.59Z"/><path d="M136.92,25.26c17.62-1.25,29.57,21.59,24,40.41-3.31,10.26-37.1,15.19-44.1,1.88C113.87,57,116.89,26.26,136.92,25.26Z"/><path class="cls-2" d="M136.79,28.29c17.22-1.18,28.9,20.29,23.42,38C157,75.91,123.93,80.54,117.09,68,114.26,58.13,117.21,29.23,136.79,28.29Z"/><path class="cls-3" d="M153.23,56.37c0,8.79-5.34,15.93-11.93,15.93s-11.94-7.14-11.94-15.93,5.34-15.93,11.94-15.93S153.23,47.57,153.23,56.37Z"/><path class="cls-4" d="M129.38,55.38c0,.33,0,.66,0,1,0,8.79,5.34,15.93,11.94,15.93s11.93-7.14,11.93-15.93a21.22,21.22,0,0,0-.38-4C150.46,61.94,134.28,66.8,129.38,55.38Z"/><path d="M150.46,59c0,5.71-3.47,10.34-7.75,10.34S135,64.73,135,59s3.47-10.34,7.75-10.34S150.46,53.31,150.46,59Z"/><path class="cls-2" d="M144.05,53a3.32,3.32,0,1,1-3.29-3.83A3.59,3.59,0,0,1,144.05,53Z"/><path class="cls-5" d="M158.39,31.59c-.17-.45-5.75-11.1-17.72-11.32s-16.29,8-16.44,8.31c0,0,3.5-10,16.47-9.73S158.39,31.59,158.39,31.59Z"/><path class="cls-6" d="M146.76,111.92s-20.67,28-58.33,19.58c-27.49-6.13-40.58-5.06-54.38-10C13.87,114.22,9.39,103.11,10.8,97.92S36.13,49.81,37.89,47.16s6-3.36,10-2.3c3.18-2.61,8.57-3.32,12.38-3.36,0,0,7.45-15.16,5.5-26.6"/><path class="cls-7" d="M66.43,14.7c2.13,5.54,3,14.39-1.39,25.94,3.57.8,12.69,3.72,16.4,10.44-4.86-2.47-14.86-7.34-27-4.86C57.91,47.63,71,58.06,71.89,67.71c-4.51-5-16.93-18.88-28.06-18.46-2.64-.82-2.32-2.87-2.32-2.87,1.63-1.12,5.51-.56,6.76.07,2.12-2.38,8.52-4.2,12.59-3.67C63.87,38.71,68.13,21.36,66.43,14.7Z"/><path class="cls-1" d="M140.13,103C127,117.37,106.38,123,88.73,118c-25.7-6.57-48.36-5.7-72.2-19.82-4,7.58-5.41-3.41-5.9-1.62-1.41,5.19,3.07,16.31,23.25,23.56,13.8,5,26.89,3.9,54.38,10,37.66,8.41,58.33-19.58,58.33-19.58A14.27,14.27,0,0,1,140.13,103Z"/><path class="cls-5" d="M146.14,112.81a14.11,14.11,0,0,1-6.32-9.86,18.29,18.29,0,0,0,7.09,8.68,59.35,59.35,0,0,0,12.56,5.75S151.82,116.48,146.14,112.81Z"/><path class="cls-5" d="M70.77,65c-.08-.15-7-11.66-17.57-17.18A25.06,25.06,0,0,0,45,45.11l.2-1.4a26.81,26.81,0,0,1,9,3C64.9,52.36,70.77,65,70.77,65Z"/><path class="cls-5" d="M79,47.83a35.9,35.9,0,0,0-21.57-5.48l-.11-1.41A31.31,31.31,0,0,1,79,47.83Z"/><path class="cls-5" d="M65,15.59c-.63-4.94-2.48-6.9-6.83-7.24C54,8,49,13.27,49,13.32s4.51-6.75,9.33-6.38c5.06.39,7.41,2.85,8.13,8.47Z"/><path class="cls-8" d="M28.74,41c10.61-.94,17.16,5.49,29.9,22S79.7,97.41,71.38,109.8s-19.14,8.79-24,7.19-11.12-4.69-17.23-5.27c-6.6-.62-16.51.44-21.35-8.17S4.56,80.9,8.09,68.39,18.12,42.42,28.74,41Z"/><path class="cls-9" d="M29.22,44.34c14.29-.63,24,19.82,36,31.14a14.17,14.17,0,0,0,1.59,1.44,123.74,123.74,0,0,0-9.19-13.47C44.89,46.94,39.62,41,29,42,18.39,43.37,12.71,55.67,9.17,68.17c-.15.56-.36,1.65-.51,2.22C12.09,62.65,20.66,44.72,29.22,44.34Z"/><path class="cls-10" d="M65,73.92c3.23,7.82,3.68,16-3,20.66-5.66,3.54-14.51,2.18-19.46-2.77-8.32-5.73-12.39-4.48-18-.06-6.36,5-16.7,3.15-17.87-9.88C5.92,90,5.71,98,8.8,103.55c4.84,8.61,14.75,7.55,21.35,8.17,6.11.58,12.3,3.65,17.23,5.27s15.68,5.19,24-7.19C78.09,99.8,73.55,87.47,65,73.92Z"/><path class="cls-11" d="M53.25,85.84C55.3,92,53.85,98,50,99.29s-8.6-2.68-10.65-8.83S38.78,78.29,42.61,77,51.21,79.69,53.25,85.84Z"/><path class="cls-12" d="M53.25,85.84c-1.35-4.07-3.89-7.16-6.57-8.43,3.24,3.62,4.53,8.42,3,12C47,94.84,40.79,93,38.49,86.08a18.2,18.2,0,0,0,.88,4.38c2.05,6.15,6.81,10.1,10.65,8.83S55.3,92,53.25,85.84Z"/><path class="cls-13" d="M38.07,88.27c-1.54-8.71,2-22,2-22S38,79.55,39.46,88Z"/><path class="cls-11" d="M28.47,86.55C28,93,24.68,98.05,21.05,97.79s-6.22-5.72-5.76-12.18,3.79-11.5,7.43-11.24S28.93,80.08,28.47,86.55Z"/><path class="cls-12" d="M26.4,76.86c3.68,14.82-10,18.18-10.69,5.86a20.1,20.1,0,0,0-.42,2.89c-.46,6.46,2.12,11.92,5.76,12.18S28,93,28.47,86.55A15.85,15.85,0,0,0,26.4,76.86Z"/><path class="cls-13" d="M27.8,84.4c-.35-9.11-4.44-17.86-4.48-17.94s5.53,8.48,5.9,17.89Z"/></svg>